<?xml version="1.0" encoding="utf-8"?>
<svg xmlns="http://www.w3.org/2000/svg" xmlns:xlink="http://www.w3.org/1999/xlink" width="600" height="400" viewBox="0 0 2400 1600">
<defs>
  <clipPath id="clip210">
    <rect x="0" y="0" width="2400" height="1600"/>
  </clipPath>
</defs>
<path clip-path="url(#clip210)" d="
M0 1600 L2400 1600 L2400 0 L0 0  Z
  " fill="#ffffff" fill-rule="evenodd" fill-opacity="1"/>
<defs>
  <clipPath id="clip211">
    <rect x="480" y="0" width="1681" height="1600"/>
  </clipPath>
</defs>
<path clip-path="url(#clip210)" d="
M249.542 1423.18 L2352.76 1423.18 L2352.76 47.2441 L249.542 47.2441  Z
  " fill="#ffffff" fill-rule="evenodd" fill-opacity="1"/>
<defs>
  <clipPath id="clip212">
    <rect x="249" y="47" width="2104" height="1377"/>
  </clipPath>
</defs>
<polyline clip-path="url(#clip212)" style="stroke:#000000; stroke-linecap:butt; stroke-linejoin:round; stroke-width:2; stroke-opacity:0.1; fill:none" points="
  365.223,1423.18 365.223,47.2441 
  "/>
<polyline clip-path="url(#clip212)" style="stroke:#000000; stroke-linecap:butt; stroke-linejoin:round; stroke-width:2; stroke-opacity:0.1; fill:none" points="
  857.815,1423.18 857.815,47.2441 
  "/>
<polyline clip-path="url(#clip212)" style="stroke:#000000; stroke-linecap:butt; stroke-linejoin:round; stroke-width:2; stroke-opacity:0.1; fill:none" points="
  1350.41,1423.18 1350.41,47.2441 
  "/>
<polyline clip-path="url(#clip212)" style="stroke:#000000; stroke-linecap:butt; stroke-linejoin:round; stroke-width:2; stroke-opacity:0.1; fill:none" points="
  1843,1423.18 1843,47.2441 
  "/>
<polyline clip-path="url(#clip212)" style="stroke:#000000; stroke-linecap:butt; stroke-linejoin:round; stroke-width:2; stroke-opacity:0.1; fill:none" points="
  2335.59,1423.18 2335.59,47.2441 
  "/>
<polyline clip-path="url(#clip210)" style="stroke:#000000; stroke-linecap:butt; stroke-linejoin:round; stroke-width:4; stroke-opacity:1; fill:none" points="
  249.542,1423.18 2352.76,1423.18 
  "/>
<polyline clip-path="url(#clip210)" style="stroke:#000000; stroke-linecap:butt; stroke-linejoin:round; stroke-width:4; stroke-opacity:1; fill:none" points="
  365.223,1423.18 365.223,1406.67 
  "/>
<polyline clip-path="url(#clip210)" style="stroke:#000000; stroke-linecap:butt; stroke-linejoin:round; stroke-width:4; stroke-opacity:1; fill:none" points="
  857.815,1423.18 857.815,1406.67 
  "/>
<polyline clip-path="url(#clip210)" style="stroke:#000000; stroke-linecap:butt; stroke-linejoin:round; stroke-width:4; stroke-opacity:1; fill:none" points="
  1350.41,1423.18 1350.41,1406.67 
  "/>
<polyline clip-path="url(#clip210)" style="stroke:#000000; stroke-linecap:butt; stroke-linejoin:round; stroke-width:4; stroke-opacity:1; fill:none" points="
  1843,1423.18 1843,1406.67 
  "/>
<polyline clip-path="url(#clip210)" style="stroke:#000000; stroke-linecap:butt; stroke-linejoin:round; stroke-width:4; stroke-opacity:1; fill:none" points="
  2335.59,1423.18 2335.59,1406.67 
  "/>
<path clip-path="url(#clip210)" d="M365.223 1452.37 Q361.611 1452.37 359.783 1455.94 Q357.977 1459.48 357.977 1466.61 Q357.977 1473.71 359.783 1477.28 Q361.611 1480.82 365.223 1480.82 Q368.857 1480.82 370.662 1477.28 Q372.491 1473.71 372.491 1466.61 Q372.491 1459.48 370.662 1455.94 Q368.857 1452.37 365.223 1452.37 M365.223 1448.67 Q371.033 1448.67 374.088 1453.27 Q377.167 1457.86 377.167 1466.61 Q377.167 1475.33 374.088 1479.94 Q371.033 1484.52 365.223 1484.52 Q359.412 1484.52 356.334 1479.94 Q353.278 1475.33 353.278 1466.61 Q353.278 1457.86 356.334 1453.27 Q359.412 1448.67 365.223 1448.67 Z" fill="#000000" fill-rule="evenodd" fill-opacity="1" /><path clip-path="url(#clip210)" d="M848.093 1449.29 L866.45 1449.29 L866.45 1453.23 L852.376 1453.23 L852.376 1461.7 Q853.394 1461.35 854.413 1461.19 Q855.431 1461 856.45 1461 Q862.237 1461 865.616 1464.18 Q868.996 1467.35 868.996 1472.76 Q868.996 1478.34 865.524 1481.44 Q862.051 1484.52 855.732 1484.52 Q853.556 1484.52 851.288 1484.15 Q849.042 1483.78 846.635 1483.04 L846.635 1478.34 Q848.718 1479.48 850.94 1480.03 Q853.163 1480.59 855.639 1480.59 Q859.644 1480.59 861.982 1478.48 Q864.32 1476.38 864.32 1472.76 Q864.32 1469.15 861.982 1467.05 Q859.644 1464.94 855.639 1464.94 Q853.764 1464.94 851.89 1465.36 Q850.038 1465.77 848.093 1466.65 L848.093 1449.29 Z" fill="#000000" fill-rule="evenodd" fill-opacity="1" /><path clip-path="url(#clip210)" d="M1325.1 1479.92 L1332.73 1479.92 L1332.73 1453.55 L1324.42 1455.22 L1324.42 1450.96 L1332.69 1449.29 L1337.36 1449.29 L1337.36 1479.92 L1345 1479.92 L1345 1483.85 L1325.1 1483.85 L1325.1 1479.92 Z" fill="#000000" fill-rule="evenodd" fill-opacity="1" /><path clip-path="url(#clip210)" d="M1364.45 1452.37 Q1360.84 1452.37 1359.01 1455.94 Q1357.2 1459.48 1357.2 1466.61 Q1357.2 1473.71 1359.01 1477.28 Q1360.84 1480.82 1364.45 1480.82 Q1368.08 1480.82 1369.89 1477.28 Q1371.72 1473.71 1371.72 1466.61 Q1371.72 1459.48 1369.89 1455.94 Q1368.08 1452.37 1364.45 1452.37 M1364.45 1448.67 Q1370.26 1448.67 1373.31 1453.27 Q1376.39 1457.86 1376.39 1466.61 Q1376.39 1475.33 1373.31 1479.94 Q1370.26 1484.52 1364.45 1484.52 Q1358.64 1484.52 1355.56 1479.94 Q1352.5 1475.33 1352.5 1466.61 Q1352.5 1457.86 1355.56 1453.27 Q1358.64 1448.67 1364.45 1448.67 Z" fill="#000000" fill-rule="evenodd" fill-opacity="1" /><path clip-path="url(#clip210)" d="M1818.19 1479.92 L1825.83 1479.92 L1825.83 1453.55 L1817.52 1455.22 L1817.52 1450.96 L1825.78 1449.29 L1830.45 1449.29 L1830.45 1479.92 L1838.09 1479.92 L1838.09 1483.85 L1818.19 1483.85 L1818.19 1479.92 Z" fill="#000000" fill-rule="evenodd" fill-opacity="1" /><path clip-path="url(#clip210)" d="M1847.58 1449.29 L1865.94 1449.29 L1865.94 1453.23 L1851.87 1453.23 L1851.87 1461.7 Q1852.89 1461.35 1853.9 1461.19 Q1854.92 1461 1855.94 1461 Q1861.73 1461 1865.11 1464.18 Q1868.49 1467.35 1868.49 1472.76 Q1868.49 1478.34 1865.01 1481.44 Q1861.54 1484.52 1855.22 1484.52 Q1853.05 1484.52 1850.78 1484.15 Q1848.53 1483.78 1846.13 1483.04 L1846.13 1478.34 Q1848.21 1479.48 1850.43 1480.03 Q1852.65 1480.59 1855.13 1480.59 Q1859.14 1480.59 1861.47 1478.48 Q1863.81 1476.38 1863.81 1472.76 Q1863.81 1469.15 1861.47 1467.05 Q1859.14 1464.94 1855.13 1464.94 Q1853.26 1464.94 1851.38 1465.36 Q1849.53 1465.77 1847.58 1466.65 L1847.58 1449.29 Z" fill="#000000" fill-rule="evenodd" fill-opacity="1" /><path clip-path="url(#clip210)" d="M2314.37 1479.92 L2330.69 1479.92 L2330.69 1483.85 L2308.74 1483.85 L2308.74 1479.92 Q2311.4 1477.16 2315.99 1472.53 Q2320.59 1467.88 2321.77 1466.54 Q2324.02 1464.01 2324.9 1462.28 Q2325.8 1460.52 2325.8 1458.83 Q2325.8 1456.07 2323.86 1454.34 Q2321.94 1452.6 2318.83 1452.6 Q2316.64 1452.6 2314.18 1453.37 Q2311.75 1454.13 2308.97 1455.68 L2308.97 1450.96 Q2311.8 1449.82 2314.25 1449.25 Q2316.71 1448.67 2318.74 1448.67 Q2324.11 1448.67 2327.31 1451.35 Q2330.5 1454.04 2330.5 1458.53 Q2330.5 1460.66 2329.69 1462.58 Q2328.9 1464.48 2326.8 1467.07 Q2326.22 1467.74 2323.12 1470.96 Q2320.02 1474.15 2314.37 1479.92 Z" fill="#000000" fill-rule="evenodd" fill-opacity="1" /><path clip-path="url(#clip210)" d="M2350.5 1452.37 Q2346.89 1452.37 2345.06 1455.94 Q2343.26 1459.48 2343.26 1466.61 Q2343.26 1473.71 2345.06 1477.28 Q2346.89 1480.82 2350.5 1480.82 Q2354.14 1480.82 2355.94 1477.28 Q2357.77 1473.71 2357.77 1466.61 Q2357.77 1459.48 2355.94 1455.94 Q2354.14 1452.37 2350.5 1452.37 M2350.5 1448.67 Q2356.31 1448.67 2359.37 1453.27 Q2362.45 1457.86 2362.45 1466.61 Q2362.45 1475.33 2359.37 1479.94 Q2356.31 1484.52 2350.5 1484.52 Q2344.69 1484.52 2341.61 1479.94 Q2338.56 1475.33 2338.56 1466.61 Q2338.56 1457.86 2341.61 1453.27 Q2344.69 1448.67 2350.5 1448.67 Z" fill="#000000" fill-rule="evenodd" fill-opacity="1" /><path clip-path="url(#clip210)" d="M1303.11 1539.24 Q1305.3 1535.29 1308.36 1533.41 Q1311.41 1531.54 1315.55 1531.54 Q1321.12 1531.54 1324.15 1535.45 Q1327.17 1539.33 1327.17 1546.53 L1327.17 1568.04 L1321.28 1568.04 L1321.28 1546.72 Q1321.28 1541.59 1319.47 1539.11 Q1317.65 1536.63 1313.93 1536.63 Q1309.38 1536.63 1306.73 1539.65 Q1304.09 1542.68 1304.09 1547.9 L1304.09 1568.04 L1298.2 1568.04 L1298.2 1546.72 Q1298.2 1541.56 1296.39 1539.11 Q1294.58 1536.63 1290.79 1536.63 Q1286.3 1536.63 1283.66 1539.68 Q1281.02 1542.71 1281.02 1547.9 L1281.02 1568.04 L1275.13 1568.04 L1275.13 1532.4 L1281.02 1532.4 L1281.02 1537.93 Q1283.02 1534.66 1285.82 1533.1 Q1288.62 1531.54 1292.48 1531.54 Q1296.36 1531.54 1299.06 1533.51 Q1301.8 1535.48 1303.11 1539.24 Z" fill="#000000" fill-rule="evenodd" fill-opacity="1" /><polyline clip-path="url(#clip212)" style="stroke:#000000; stroke-linecap:butt; stroke-linejoin:round; stroke-width:2; stroke-opacity:0.1; fill:none" points="
  249.542,1384.24 2352.76,1384.24 
  "/>
<polyline clip-path="url(#clip212)" style="stroke:#000000; stroke-linecap:butt; stroke-linejoin:round; stroke-width:2; stroke-opacity:0.1; fill:none" points="
  249.542,970.054 2352.76,970.054 
  "/>
<polyline clip-path="url(#clip212)" style="stroke:#000000; stroke-linecap:butt; stroke-linejoin:round; stroke-width:2; stroke-opacity:0.1; fill:none" points="
  249.542,555.87 2352.76,555.87 
  "/>
<polyline clip-path="url(#clip212)" style="stroke:#000000; stroke-linecap:butt; stroke-linejoin:round; stroke-width:2; stroke-opacity:0.1; fill:none" points="
  249.542,141.686 2352.76,141.686 
  "/>
<polyline clip-path="url(#clip210)" style="stroke:#000000; stroke-linecap:butt; stroke-linejoin:round; stroke-width:4; stroke-opacity:1; fill:none" points="
  249.542,1423.18 249.542,47.2441 
  "/>
<polyline clip-path="url(#clip210)" style="stroke:#000000; stroke-linecap:butt; stroke-linejoin:round; stroke-width:4; stroke-opacity:1; fill:none" points="
  249.542,1384.24 274.781,1384.24 
  "/>
<polyline clip-path="url(#clip210)" style="stroke:#000000; stroke-linecap:butt; stroke-linejoin:round; stroke-width:4; stroke-opacity:1; fill:none" points="
  249.542,970.054 274.781,970.054 
  "/>
<polyline clip-path="url(#clip210)" style="stroke:#000000; stroke-linecap:butt; stroke-linejoin:round; stroke-width:4; stroke-opacity:1; fill:none" points="
  249.542,555.87 274.781,555.87 
  "/>
<polyline clip-path="url(#clip210)" style="stroke:#000000; stroke-linecap:butt; stroke-linejoin:round; stroke-width:4; stroke-opacity:1; fill:none" points="
  249.542,141.686 274.781,141.686 
  "/>
<path clip-path="url(#clip210)" d="M126.205 1370.04 Q122.593 1370.04 120.765 1373.6 Q118.959 1377.14 118.959 1384.27 Q118.959 1391.38 120.765 1394.94 Q122.593 1398.49 126.205 1398.49 Q129.839 1398.49 131.644 1394.94 Q133.473 1391.38 133.473 1384.27 Q133.473 1377.14 131.644 1373.6 Q129.839 1370.04 126.205 1370.04 M126.205 1366.33 Q132.015 1366.33 135.07 1370.94 Q138.149 1375.52 138.149 1384.27 Q138.149 1393 135.07 1397.61 Q132.015 1402.19 126.205 1402.19 Q120.394 1402.19 117.316 1397.61 Q114.26 1393 114.26 1384.27 Q114.26 1375.52 117.316 1370.94 Q120.394 1366.33 126.205 1366.33 Z" fill="#000000" fill-rule="evenodd" fill-opacity="1" /><path clip-path="url(#clip210)" d="M146.366 1395.64 L151.251 1395.64 L151.251 1401.52 L146.366 1401.52 L146.366 1395.64 Z" fill="#000000" fill-rule="evenodd" fill-opacity="1" /><path clip-path="url(#clip210)" d="M171.436 1370.04 Q167.825 1370.04 165.996 1373.6 Q164.19 1377.14 164.19 1384.27 Q164.19 1391.38 165.996 1394.94 Q167.825 1398.49 171.436 1398.49 Q175.07 1398.49 176.876 1394.94 Q178.704 1391.38 178.704 1384.27 Q178.704 1377.14 176.876 1373.6 Q175.07 1370.04 171.436 1370.04 M171.436 1366.33 Q177.246 1366.33 180.301 1370.94 Q183.38 1375.52 183.38 1384.27 Q183.38 1393 180.301 1397.61 Q177.246 1402.19 171.436 1402.19 Q165.626 1402.19 162.547 1397.61 Q159.491 1393 159.491 1384.27 Q159.491 1375.52 162.547 1370.94 Q165.626 1366.33 171.436 1366.33 Z" fill="#000000" fill-rule="evenodd" fill-opacity="1" /><path clip-path="url(#clip210)" d="M201.598 1370.04 Q197.987 1370.04 196.158 1373.6 Q194.352 1377.14 194.352 1384.27 Q194.352 1391.38 196.158 1394.94 Q197.987 1398.49 201.598 1398.49 Q205.232 1398.49 207.037 1394.94 Q208.866 1391.38 208.866 1384.27 Q208.866 1377.14 207.037 1373.6 Q205.232 1370.04 201.598 1370.04 M201.598 1366.33 Q207.408 1366.33 210.463 1370.94 Q213.542 1375.52 213.542 1384.27 Q213.542 1393 210.463 1397.61 Q207.408 1402.19 201.598 1402.19 Q195.787 1402.19 192.709 1397.61 Q189.653 1393 189.653 1384.27 Q189.653 1375.52 192.709 1370.94 Q195.787 1366.33 201.598 1366.33 Z" fill="#000000" fill-rule="evenodd" fill-opacity="1" /><path clip-path="url(#clip210)" d="M127.2 955.853 Q123.589 955.853 121.76 959.418 Q119.955 962.959 119.955 970.089 Q119.955 977.195 121.76 980.76 Q123.589 984.302 127.2 984.302 Q130.834 984.302 132.64 980.76 Q134.468 977.195 134.468 970.089 Q134.468 962.959 132.64 959.418 Q130.834 955.853 127.2 955.853 M127.2 952.149 Q133.01 952.149 136.066 956.756 Q139.144 961.339 139.144 970.089 Q139.144 978.816 136.066 983.422 Q133.01 988.006 127.2 988.006 Q121.39 988.006 118.311 983.422 Q115.256 978.816 115.256 970.089 Q115.256 961.339 118.311 956.756 Q121.39 952.149 127.2 952.149 Z" fill="#000000" fill-rule="evenodd" fill-opacity="1" /><path clip-path="url(#clip210)" d="M147.362 981.455 L152.246 981.455 L152.246 987.334 L147.362 987.334 L147.362 981.455 Z" fill="#000000" fill-rule="evenodd" fill-opacity="1" /><path clip-path="url(#clip210)" d="M172.431 955.853 Q168.82 955.853 166.991 959.418 Q165.186 962.959 165.186 970.089 Q165.186 977.195 166.991 980.76 Q168.82 984.302 172.431 984.302 Q176.065 984.302 177.871 980.76 Q179.7 977.195 179.7 970.089 Q179.7 962.959 177.871 959.418 Q176.065 955.853 172.431 955.853 M172.431 952.149 Q178.241 952.149 181.297 956.756 Q184.376 961.339 184.376 970.089 Q184.376 978.816 181.297 983.422 Q178.241 988.006 172.431 988.006 Q166.621 988.006 163.542 983.422 Q160.487 978.816 160.487 970.089 Q160.487 961.339 163.542 956.756 Q166.621 952.149 172.431 952.149 Z" fill="#000000" fill-rule="evenodd" fill-opacity="1" /><path clip-path="url(#clip210)" d="M192.639 952.774 L210.996 952.774 L210.996 956.709 L196.922 956.709 L196.922 965.182 Q197.94 964.834 198.959 964.672 Q199.977 964.487 200.996 964.487 Q206.783 964.487 210.162 967.658 Q213.542 970.83 213.542 976.246 Q213.542 981.825 210.07 984.927 Q206.598 988.006 200.278 988.006 Q198.102 988.006 195.834 987.635 Q193.588 987.265 191.181 986.524 L191.181 981.825 Q193.264 982.959 195.487 983.515 Q197.709 984.07 200.186 984.07 Q204.19 984.07 206.528 981.964 Q208.866 979.857 208.866 976.246 Q208.866 972.635 206.528 970.529 Q204.19 968.422 200.186 968.422 Q198.311 968.422 196.436 968.839 Q194.584 969.256 192.639 970.135 L192.639 952.774 Z" fill="#000000" fill-rule="evenodd" fill-opacity="1" /><path clip-path="url(#clip210)" d="M126.205 541.669 Q122.593 541.669 120.765 545.234 Q118.959 548.775 118.959 555.905 Q118.959 563.011 120.765 566.576 Q122.593 570.118 126.205 570.118 Q129.839 570.118 131.644 566.576 Q133.473 563.011 133.473 555.905 Q133.473 548.775 131.644 545.234 Q129.839 541.669 126.205 541.669 M126.205 537.965 Q132.015 537.965 135.07 542.572 Q138.149 547.155 138.149 555.905 Q138.149 564.632 135.07 569.238 Q132.015 573.822 126.205 573.822 Q120.394 573.822 117.316 569.238 Q114.26 564.632 114.26 555.905 Q114.26 547.155 117.316 542.572 Q120.394 537.965 126.205 537.965 Z" fill="#000000" fill-rule="evenodd" fill-opacity="1" /><path clip-path="url(#clip210)" d="M146.366 567.271 L151.251 567.271 L151.251 573.15 L146.366 573.15 L146.366 567.271 Z" fill="#000000" fill-rule="evenodd" fill-opacity="1" /><path clip-path="url(#clip210)" d="M162.246 569.215 L169.885 569.215 L169.885 542.85 L161.575 544.516 L161.575 540.257 L169.839 538.59 L174.514 538.59 L174.514 569.215 L182.153 569.215 L182.153 573.15 L162.246 573.15 L162.246 569.215 Z" fill="#000000" fill-rule="evenodd" fill-opacity="1" /><path clip-path="url(#clip210)" d="M201.598 541.669 Q197.987 541.669 196.158 545.234 Q194.352 548.775 194.352 555.905 Q194.352 563.011 196.158 566.576 Q197.987 570.118 201.598 570.118 Q205.232 570.118 207.037 566.576 Q208.866 563.011 208.866 555.905 Q208.866 548.775 207.037 545.234 Q205.232 541.669 201.598 541.669 M201.598 537.965 Q207.408 537.965 210.463 542.572 Q213.542 547.155 213.542 555.905 Q213.542 564.632 210.463 569.238 Q207.408 573.822 201.598 573.822 Q195.787 573.822 192.709 569.238 Q189.653 564.632 189.653 555.905 Q189.653 547.155 192.709 542.572 Q195.787 537.965 201.598 537.965 Z" fill="#000000" fill-rule="evenodd" fill-opacity="1" /><path clip-path="url(#clip210)" d="M127.2 127.485 Q123.589 127.485 121.76 131.05 Q119.955 134.591 119.955 141.721 Q119.955 148.827 121.76 152.392 Q123.589 155.934 127.2 155.934 Q130.834 155.934 132.64 152.392 Q134.468 148.827 134.468 141.721 Q134.468 134.591 132.64 131.05 Q130.834 127.485 127.2 127.485 M127.2 123.781 Q133.01 123.781 136.066 128.388 Q139.144 132.971 139.144 141.721 Q139.144 150.448 136.066 155.054 Q133.01 159.638 127.2 159.638 Q121.39 159.638 118.311 155.054 Q115.256 150.448 115.256 141.721 Q115.256 132.971 118.311 128.388 Q121.39 123.781 127.2 123.781 Z" fill="#000000" fill-rule="evenodd" fill-opacity="1" /><path clip-path="url(#clip210)" d="M147.362 153.087 L152.246 153.087 L152.246 158.966 L147.362 158.966 L147.362 153.087 Z" fill="#000000" fill-rule="evenodd" fill-opacity="1" /><path clip-path="url(#clip210)" d="M163.241 155.031 L170.88 155.031 L170.88 128.666 L162.57 130.332 L162.57 126.073 L170.834 124.406 L175.51 124.406 L175.51 155.031 L183.149 155.031 L183.149 158.966 L163.241 158.966 L163.241 155.031 Z" fill="#000000" fill-rule="evenodd" fill-opacity="1" /><path clip-path="url(#clip210)" d="M192.639 124.406 L210.996 124.406 L210.996 128.341 L196.922 128.341 L196.922 136.814 Q197.94 136.466 198.959 136.304 Q199.977 136.119 200.996 136.119 Q206.783 136.119 210.162 139.291 Q213.542 142.462 213.542 147.878 Q213.542 153.457 210.07 156.559 Q206.598 159.638 200.278 159.638 Q198.102 159.638 195.834 159.267 Q193.588 158.897 191.181 158.156 L191.181 153.457 Q193.264 154.591 195.487 155.147 Q197.709 155.702 200.186 155.702 Q204.19 155.702 206.528 153.596 Q208.866 151.49 208.866 147.878 Q208.866 144.267 206.528 142.161 Q204.19 140.054 200.186 140.054 Q198.311 140.054 196.436 140.471 Q194.584 140.888 192.639 141.767 L192.639 124.406 Z" fill="#000000" fill-rule="evenodd" fill-opacity="1" /><path clip-path="url(#clip210)" d="M21.7677 799.617 L39.6235 799.617 L39.6235 791.533 Q39.6235 787.045 37.3 784.594 Q34.9765 782.143 30.6797 782.143 Q26.4147 782.143 24.0912 784.594 Q21.7677 787.045 21.7677 791.533 L21.7677 799.617 M16.4842 806.046 L16.4842 791.533 Q16.4842 783.544 20.1126 779.47 Q23.7092 775.364 30.6797 775.364 Q37.7138 775.364 41.3104 779.47 Q44.907 783.544 44.907 791.533 L44.907 799.617 L64.0042 799.617 L64.0042 806.046 L16.4842 806.046 Z" fill="#000000" fill-rule="evenodd" fill-opacity="1" /><path clip-path="url(#clip210)" d="M14.5426 752.925 Q21.8632 757.19 29.0246 759.258 Q36.186 761.327 43.5384 761.327 Q50.8908 761.327 58.1159 759.258 Q65.3091 757.158 72.5979 752.925 L72.5979 758.017 Q65.1182 762.791 57.8931 765.179 Q50.668 767.534 43.5384 767.534 Q36.4406 767.534 29.2474 765.179 Q22.0542 762.823 14.5426 758.017 L14.5426 752.925 Z" fill="#000000" fill-rule="evenodd" fill-opacity="1" /><path clip-path="url(#clip210)" d="M35.1993 713.807 Q31.2526 711.611 29.3747 708.556 Q27.4968 705.5 27.4968 701.362 Q27.4968 695.792 31.4117 692.769 Q35.2948 689.745 42.4881 689.745 L64.0042 689.745 L64.0042 695.633 L42.679 695.633 Q37.5546 695.633 35.072 697.447 Q32.5894 699.262 32.5894 702.986 Q32.5894 707.537 35.6131 710.179 Q38.6368 712.821 43.8567 712.821 L64.0042 712.821 L64.0042 718.709 L42.679 718.709 Q37.5228 718.709 35.072 720.523 Q32.5894 722.337 32.5894 726.125 Q32.5894 730.613 35.6449 733.255 Q38.6686 735.896 43.8567 735.896 L64.0042 735.896 L64.0042 741.785 L28.3562 741.785 L28.3562 735.896 L33.8944 735.896 Q30.616 733.891 29.0564 731.09 Q27.4968 728.289 27.4968 724.438 Q27.4968 720.555 29.4702 717.85 Q31.4436 715.112 35.1993 713.807 Z" fill="#000000" fill-rule="evenodd" fill-opacity="1" /><path clip-path="url(#clip210)" d="M14.5426 678.987 L14.5426 673.894 Q22.0542 669.12 29.2474 666.765 Q36.4406 664.378 43.5384 664.378 Q50.668 664.378 57.8931 666.765 Q65.1182 669.12 72.5979 673.894 L72.5979 678.987 Q65.3091 674.754 58.1159 672.685 Q50.8908 670.584 43.5384 670.584 Q36.186 670.584 29.0246 672.685 Q21.8632 674.754 14.5426 678.987 Z" fill="#000000" fill-rule="evenodd" fill-opacity="1" /><path clip-path="url(#clip212)" d="
M365.223 1370.98 L365.223 1384.24 L463.741 1384.24 L463.741 1370.98 L365.223 1370.98 L365.223 1370.98  Z
  " fill="#009af9" fill-rule="evenodd" fill-opacity="1"/>
<polyline clip-path="url(#clip212)" style="stroke:#000000; stroke-linecap:butt; stroke-linejoin:round; stroke-width:4; stroke-opacity:1; fill:none" points="
  365.223,1370.98 365.223,1384.24 463.741,1384.24 463.741,1370.98 365.223,1370.98 
  "/>
<path clip-path="url(#clip212)" d="
M463.741 1313 L463.741 1384.24 L562.26 1384.24 L562.26 1313 L463.741 1313 L463.741 1313  Z
  " fill="#009af9" fill-rule="evenodd" fill-opacity="1"/>
<polyline clip-path="url(#clip212)" style="stroke:#000000; stroke-linecap:butt; stroke-linejoin:round; stroke-width:4; stroke-opacity:1; fill:none" points="
  463.741,1313 463.741,1384.24 562.26,1384.24 562.26,1313 463.741,1313 
  "/>
<path clip-path="url(#clip212)" d="
M562.26 1145.67 L562.26 1384.24 L660.778 1384.24 L660.778 1145.67 L562.26 1145.67 L562.26 1145.67  Z
  " fill="#009af9" fill-rule="evenodd" fill-opacity="1"/>
<polyline clip-path="url(#clip212)" style="stroke:#000000; stroke-linecap:butt; stroke-linejoin:round; stroke-width:4; stroke-opacity:1; fill:none" points="
  562.26,1145.67 562.26,1384.24 660.778,1384.24 660.778,1145.67 562.26,1145.67 
  "/>
<path clip-path="url(#clip212)" d="
M660.778 880.591 L660.778 1384.24 L759.297 1384.24 L759.297 880.591 L660.778 880.591 L660.778 880.591  Z
  " fill="#009af9" fill-rule="evenodd" fill-opacity="1"/>
<polyline clip-path="url(#clip212)" style="stroke:#000000; stroke-linecap:butt; stroke-linejoin:round; stroke-width:4; stroke-opacity:1; fill:none" points="
  660.778,880.591 660.778,1384.24 759.297,1384.24 759.297,880.591 660.778,880.591 
  "/>
<path clip-path="url(#clip212)" d="
M759.297 504.511 L759.297 1384.24 L857.815 1384.24 L857.815 504.511 L759.297 504.511 L759.297 504.511  Z
  " fill="#009af9" fill-rule="evenodd" fill-opacity="1"/>
<polyline clip-path="url(#clip212)" style="stroke:#000000; stroke-linecap:butt; stroke-linejoin:round; stroke-width:4; stroke-opacity:1; fill:none" points="
  759.297,504.511 759.297,1384.24 857.815,1384.24 857.815,504.511 759.297,504.511 
  "/>
<path clip-path="url(#clip212)" d="
M857.815 201.329 L857.815 1384.24 L956.334 1384.24 L956.334 201.329 L857.815 201.329 L857.815 201.329  Z
  " fill="#009af9" fill-rule="evenodd" fill-opacity="1"/>
<polyline clip-path="url(#clip212)" style="stroke:#000000; stroke-linecap:butt; stroke-linejoin:round; stroke-width:4; stroke-opacity:1; fill:none" points="
  857.815,201.329 857.815,1384.24 956.334,1384.24 956.334,201.329 857.815,201.329 
  "/>
<path clip-path="url(#clip212)" d="
M956.334 86.1857 L956.334 1384.24 L1054.85 1384.24 L1054.85 86.1857 L956.334 86.1857 L956.334 86.1857  Z
  " fill="#009af9" fill-rule="evenodd" fill-opacity="1"/>
<polyline clip-path="url(#clip212)" style="stroke:#000000; stroke-linecap:butt; stroke-linejoin:round; stroke-width:4; stroke-opacity:1; fill:none" points="
  956.334,86.1857 956.334,1384.24 1054.85,1384.24 1054.85,86.1857 956.334,86.1857 
  "/>
<path clip-path="url(#clip212)" d="
M1054.85 212.098 L1054.85 1384.24 L1153.37 1384.24 L1153.37 212.098 L1054.85 212.098 L1054.85 212.098  Z
  " fill="#009af9" fill-rule="evenodd" fill-opacity="1"/>
<polyline clip-path="url(#clip212)" style="stroke:#000000; stroke-linecap:butt; stroke-linejoin:round; stroke-width:4; stroke-opacity:1; fill:none" points="
  1054.85,212.098 1054.85,1384.24 1153.37,1384.24 1153.37,212.098 1054.85,212.098 
  "/>
<path clip-path="url(#clip212)" d="
M1153.37 341.323 L1153.37 1384.24 L1251.89 1384.24 L1251.89 341.323 L1153.37 341.323 L1153.37 341.323  Z
  " fill="#009af9" fill-rule="evenodd" fill-opacity="1"/>
<polyline clip-path="url(#clip212)" style="stroke:#000000; stroke-linecap:butt; stroke-linejoin:round; stroke-width:4; stroke-opacity:1; fill:none" points="
  1153.37,341.323 1153.37,1384.24 1251.89,1384.24 1251.89,341.323 1153.37,341.323 
  "/>
<path clip-path="url(#clip212)" d="
M1251.89 622.968 L1251.89 1384.24 L1350.41 1384.24 L1350.41 622.968 L1251.89 622.968 L1251.89 622.968  Z
  " fill="#009af9" fill-rule="evenodd" fill-opacity="1"/>
<polyline clip-path="url(#clip212)" style="stroke:#000000; stroke-linecap:butt; stroke-linejoin:round; stroke-width:4; stroke-opacity:1; fill:none" points="
  1251.89,622.968 1251.89,1384.24 1350.41,1384.24 1350.41,622.968 1251.89,622.968 
  "/>
<path clip-path="url(#clip212)" d="
M1350.41 891.359 L1350.41 1384.24 L1448.93 1384.24 L1448.93 891.359 L1350.41 891.359 L1350.41 891.359  Z
  " fill="#009af9" fill-rule="evenodd" fill-opacity="1"/>
<polyline clip-path="url(#clip212)" style="stroke:#000000; stroke-linecap:butt; stroke-linejoin:round; stroke-width:4; stroke-opacity:1; fill:none" points="
  1350.41,891.359 1350.41,1384.24 1448.93,1384.24 1448.93,891.359 1350.41,891.359 
  "/>
<path clip-path="url(#clip212)" d="
M1448.93 1075.26 L1448.93 1384.24 L1547.45 1384.24 L1547.45 1075.26 L1448.93 1075.26 L1448.93 1075.26  Z
  " fill="#009af9" fill-rule="evenodd" fill-opacity="1"/>
<polyline clip-path="url(#clip212)" style="stroke:#000000; stroke-linecap:butt; stroke-linejoin:round; stroke-width:4; stroke-opacity:1; fill:none" points="
  1448.93,1075.26 1448.93,1384.24 1547.45,1384.24 1547.45,1075.26 1448.93,1075.26 
  "/>
<path clip-path="url(#clip212)" d="
M1547.45 1216.08 L1547.45 1384.24 L1645.96 1384.24 L1645.96 1216.08 L1547.45 1216.08 L1547.45 1216.08  Z
  " fill="#009af9" fill-rule="evenodd" fill-opacity="1"/>
<polyline clip-path="url(#clip212)" style="stroke:#000000; stroke-linecap:butt; stroke-linejoin:round; stroke-width:4; stroke-opacity:1; fill:none" points="
  1547.45,1216.08 1547.45,1384.24 1645.96,1384.24 1645.96,1216.08 1547.45,1216.08 
  "/>
<path clip-path="url(#clip212)" d="
M1645.96 1311.34 L1645.96 1384.24 L1744.48 1384.24 L1744.48 1311.34 L1645.96 1311.34 L1645.96 1311.34  Z
  " fill="#009af9" fill-rule="evenodd" fill-opacity="1"/>
<polyline clip-path="url(#clip212)" style="stroke:#000000; stroke-linecap:butt; stroke-linejoin:round; stroke-width:4; stroke-opacity:1; fill:none" points="
  1645.96,1311.34 1645.96,1384.24 1744.48,1384.24 1744.48,1311.34 1645.96,1311.34 
  "/>
<path clip-path="url(#clip212)" d="
M1744.48 1337.85 L1744.48 1384.24 L1843 1384.24 L1843 1337.85 L1744.48 1337.85 L1744.48 1337.85  Z
  " fill="#009af9" fill-rule="evenodd" fill-opacity="1"/>
<polyline clip-path="url(#clip212)" style="stroke:#000000; stroke-linecap:butt; stroke-linejoin:round; stroke-width:4; stroke-opacity:1; fill:none" points="
  1744.48,1337.85 1744.48,1384.24 1843,1384.24 1843,1337.85 1744.48,1337.85 
  "/>
<path clip-path="url(#clip212)" d="
M1843 1366.01 L1843 1384.24 L1941.52 1384.24 L1941.52 1366.01 L1843 1366.01 L1843 1366.01  Z
  " fill="#009af9" fill-rule="evenodd" fill-opacity="1"/>
<polyline clip-path="url(#clip212)" style="stroke:#000000; stroke-linecap:butt; stroke-linejoin:round; stroke-width:4; stroke-opacity:1; fill:none" points="
  1843,1366.01 1843,1384.24 1941.52,1384.24 1941.52,1366.01 1843,1366.01 
  "/>
<path clip-path="url(#clip212)" d="
M1941.52 1378.44 L1941.52 1384.24 L2040.04 1384.24 L2040.04 1378.44 L1941.52 1378.44 L1941.52 1378.44  Z
  " fill="#009af9" fill-rule="evenodd" fill-opacity="1"/>
<polyline clip-path="url(#clip212)" style="stroke:#000000; stroke-linecap:butt; stroke-linejoin:round; stroke-width:4; stroke-opacity:1; fill:none" points="
  1941.52,1378.44 1941.52,1384.24 2040.04,1384.24 2040.04,1378.44 1941.52,1378.44 
  "/>
<path clip-path="url(#clip212)" d="
M2040.04 1380.1 L2040.04 1384.24 L2138.56 1384.24 L2138.56 1380.1 L2040.04 1380.1 L2040.04 1380.1  Z
  " fill="#009af9" fill-rule="evenodd" fill-opacity="1"/>
<polyline clip-path="url(#clip212)" style="stroke:#000000; stroke-linecap:butt; stroke-linejoin:round; stroke-width:4; stroke-opacity:1; fill:none" points="
  2040.04,1380.1 2040.04,1384.24 2138.56,1384.24 2138.56,1380.1 2040.04,1380.1 
  "/>
<path clip-path="url(#clip212)" d="
M2138.56 1381.75 L2138.56 1384.24 L2237.08 1384.24 L2237.08 1381.75 L2138.56 1381.75 L2138.56 1381.75  Z
  " fill="#009af9" fill-rule="evenodd" fill-opacity="1"/>
<polyline clip-path="url(#clip212)" style="stroke:#000000; stroke-linecap:butt; stroke-linejoin:round; stroke-width:4; stroke-opacity:1; fill:none" points="
  2138.56,1381.75 2138.56,1384.24 2237.08,1384.24 2237.08,1381.75 2138.56,1381.75 
  "/>
<polyline clip-path="url(#clip212)" style="stroke:#e26f46; stroke-linecap:butt; stroke-linejoin:round; stroke-width:4; stroke-opacity:1; fill:none" points="
  1022.01,2799.12 1022.01,-1328.69 
  "/>
<polyline clip-path="url(#clip212)" style="stroke:#3da44d; stroke-linecap:butt; stroke-linejoin:round; stroke-width:4; stroke-opacity:1; fill:none" points="
  1020.59,2799.12 1020.59,-1328.69 
  "/>
<path clip-path="url(#clip210)" d="
M1650.28 335.029 L2282.65 335.029 L2282.65 93.1086 L1650.28 93.1086  Z
  " fill="#ffffff" fill-rule="evenodd" fill-opacity="1"/>
<polyline clip-path="url(#clip210)" style="stroke:#000000; stroke-linecap:butt; stroke-linejoin:round; stroke-width:4; stroke-opacity:1; fill:none" points="
  1650.28,335.029 2282.65,335.029 2282.65,93.1086 1650.28,93.1086 1650.28,335.029 
  "/>
<path clip-path="url(#clip210)" d="
M1673.65 177.781 L1813.86 177.781 L1813.86 129.397 L1673.65 129.397 L1673.65 177.781  Z
  " fill="#009af9" fill-rule="evenodd" fill-opacity="1"/>
<polyline clip-path="url(#clip210)" style="stroke:#000000; stroke-linecap:butt; stroke-linejoin:round; stroke-width:4; stroke-opacity:1; fill:none" points="
  1673.65,177.781 1813.86,177.781 1813.86,129.397 1673.65,129.397 1673.65,177.781 
  "/>
<path clip-path="url(#clip210)" d="M1851.07 173.276 Q1849.27 177.906 1847.56 179.318 Q1845.84 180.73 1842.97 180.73 L1839.57 180.73 L1839.57 177.165 L1842.07 177.165 Q1843.83 177.165 1844.8 176.332 Q1845.77 175.498 1846.95 172.396 L1847.72 170.452 L1837.23 144.943 L1841.75 144.943 L1849.85 165.221 L1857.95 144.943 L1862.46 144.943 L1851.07 173.276 Z" fill="#000000" fill-rule="evenodd" fill-opacity="1" /><path clip-path="url(#clip210)" d="M1869.76 166.933 L1877.39 166.933 L1877.39 140.568 L1869.08 142.235 L1869.08 137.975 L1877.35 136.309 L1882.02 136.309 L1882.02 166.933 L1889.66 166.933 L1889.66 170.869 L1869.76 170.869 L1869.76 166.933 Z" fill="#000000" fill-rule="evenodd" fill-opacity="1" /><polyline clip-path="url(#clip210)" style="stroke:#e26f46; stroke-linecap:butt; stroke-linejoin:round; stroke-width:4; stroke-opacity:1; fill:none" points="
  1673.65,214.069 1813.86,214.069 
  "/>
<path clip-path="url(#clip210)" d="M1844.64 198.062 L1844.64 205.423 L1853.41 205.423 L1853.41 208.733 L1844.64 208.733 L1844.64 222.807 Q1844.64 225.978 1845.5 226.881 Q1846.38 227.784 1849.04 227.784 L1853.41 227.784 L1853.41 231.349 L1849.04 231.349 Q1844.11 231.349 1842.23 229.52 Q1840.36 227.668 1840.36 222.807 L1840.36 208.733 L1837.23 208.733 L1837.23 205.423 L1840.36 205.423 L1840.36 198.062 L1844.64 198.062 Z" fill="#000000" fill-rule="evenodd" fill-opacity="1" /><path clip-path="url(#clip210)" d="M1880.57 215.701 L1880.57 231.349 L1876.31 231.349 L1876.31 215.839 Q1876.31 212.159 1874.87 210.33 Q1873.44 208.502 1870.57 208.502 Q1867.12 208.502 1865.13 210.701 Q1863.13 212.9 1863.13 216.696 L1863.13 231.349 L1858.85 231.349 L1858.85 195.33 L1863.13 195.33 L1863.13 209.451 Q1864.66 207.113 1866.72 205.955 Q1868.81 204.798 1871.51 204.798 Q1875.98 204.798 1878.27 207.576 Q1880.57 210.33 1880.57 215.701 Z" fill="#000000" fill-rule="evenodd" fill-opacity="1" /><path clip-path="url(#clip210)" d="M1911.24 217.321 L1911.24 219.404 L1891.65 219.404 Q1891.93 223.802 1894.29 226.117 Q1896.68 228.409 1900.91 228.409 Q1903.37 228.409 1905.66 227.807 Q1907.97 227.205 1910.24 226.001 L1910.24 230.029 Q1907.95 231.001 1905.54 231.511 Q1903.13 232.02 1900.66 232.02 Q1894.45 232.02 1890.82 228.409 Q1887.21 224.798 1887.21 218.64 Q1887.21 212.275 1890.63 208.548 Q1894.08 204.798 1899.92 204.798 Q1905.15 204.798 1908.18 208.177 Q1911.24 211.534 1911.24 217.321 M1906.98 216.071 Q1906.93 212.576 1905.01 210.492 Q1903.11 208.409 1899.96 208.409 Q1896.4 208.409 1894.25 210.423 Q1892.12 212.437 1891.79 216.094 L1906.98 216.071 Z" fill="#000000" fill-rule="evenodd" fill-opacity="1" /><path clip-path="url(#clip210)" d="M1928.27 208.409 Q1924.85 208.409 1922.86 211.094 Q1920.87 213.756 1920.87 218.409 Q1920.87 223.062 1922.83 225.747 Q1924.82 228.409 1928.27 228.409 Q1931.68 228.409 1933.67 225.724 Q1935.66 223.038 1935.66 218.409 Q1935.66 213.802 1933.67 211.117 Q1931.68 208.409 1928.27 208.409 M1928.27 204.798 Q1933.83 204.798 1937 208.409 Q1940.17 212.02 1940.17 218.409 Q1940.17 224.775 1937 228.409 Q1933.83 232.02 1928.27 232.02 Q1922.69 232.02 1919.52 228.409 Q1916.38 224.775 1916.38 218.409 Q1916.38 212.02 1919.52 208.409 Q1922.69 204.798 1928.27 204.798 Z" fill="#000000" fill-rule="evenodd" fill-opacity="1" /><path clip-path="url(#clip210)" d="M1962.25 209.404 Q1961.54 208.988 1960.68 208.802 Q1959.85 208.594 1958.83 208.594 Q1955.22 208.594 1953.27 210.955 Q1951.35 213.293 1951.35 217.691 L1951.35 231.349 L1947.07 231.349 L1947.07 205.423 L1951.35 205.423 L1951.35 209.451 Q1952.69 207.089 1954.85 205.955 Q1957 204.798 1960.08 204.798 Q1960.52 204.798 1961.05 204.867 Q1961.58 204.914 1962.23 205.029 L1962.25 209.404 Z" fill="#000000" fill-rule="evenodd" fill-opacity="1" /><path clip-path="url(#clip210)" d="M1987.86 217.321 L1987.86 219.404 L1968.27 219.404 Q1968.55 223.802 1970.91 226.117 Q1973.3 228.409 1977.53 228.409 Q1979.99 228.409 1982.28 227.807 Q1984.59 227.205 1986.86 226.001 L1986.86 230.029 Q1984.57 231.001 1982.16 231.511 Q1979.75 232.02 1977.28 232.02 Q1971.07 232.02 1967.44 228.409 Q1963.83 224.798 1963.83 218.64 Q1963.83 212.275 1967.25 208.548 Q1970.7 204.798 1976.54 204.798 Q1981.77 204.798 1984.8 208.177 Q1987.86 211.534 1987.86 217.321 M1983.6 216.071 Q1983.55 212.576 1981.63 210.492 Q1979.73 208.409 1976.58 208.409 Q1973.02 208.409 1970.87 210.423 Q1968.74 212.437 1968.41 216.094 L1983.6 216.071 Z" fill="#000000" fill-rule="evenodd" fill-opacity="1" /><path clip-path="url(#clip210)" d="M1999.06 198.062 L1999.06 205.423 L2007.83 205.423 L2007.83 208.733 L1999.06 208.733 L1999.06 222.807 Q1999.06 225.978 1999.92 226.881 Q2000.8 227.784 2003.46 227.784 L2007.83 227.784 L2007.83 231.349 L2003.46 231.349 Q1998.53 231.349 1996.65 229.52 Q1994.78 227.668 1994.78 222.807 L1994.78 208.733 L1991.65 208.733 L1991.65 205.423 L1994.78 205.423 L1994.78 198.062 L1999.06 198.062 Z" fill="#000000" fill-rule="evenodd" fill-opacity="1" /><path clip-path="url(#clip210)" d="M2013.44 205.423 L2017.69 205.423 L2017.69 231.349 L2013.44 231.349 L2013.44 205.423 M2013.44 195.33 L2017.69 195.33 L2017.69 200.724 L2013.44 200.724 L2013.44 195.33 Z" fill="#000000" fill-rule="evenodd" fill-opacity="1" /><path clip-path="url(#clip210)" d="M2045.26 206.418 L2045.26 210.4 Q2043.46 209.404 2041.63 208.918 Q2039.82 208.409 2037.97 208.409 Q2033.83 208.409 2031.54 211.048 Q2029.25 213.664 2029.25 218.409 Q2029.25 223.154 2031.54 225.793 Q2033.83 228.409 2037.97 228.409 Q2039.82 228.409 2041.63 227.923 Q2043.46 227.413 2045.26 226.418 L2045.26 230.353 Q2043.48 231.187 2041.56 231.603 Q2039.66 232.02 2037.51 232.02 Q2031.65 232.02 2028.2 228.339 Q2024.75 224.659 2024.75 218.409 Q2024.75 212.066 2028.23 208.432 Q2031.72 204.798 2037.79 204.798 Q2039.75 204.798 2041.63 205.215 Q2043.5 205.608 2045.26 206.418 Z" fill="#000000" fill-rule="evenodd" fill-opacity="1" /><path clip-path="url(#clip210)" d="M2064.45 218.316 Q2059.29 218.316 2057.3 219.497 Q2055.31 220.677 2055.31 223.525 Q2055.31 225.793 2056.79 227.136 Q2058.3 228.455 2060.87 228.455 Q2064.41 228.455 2066.54 225.955 Q2068.69 223.432 2068.69 219.265 L2068.69 218.316 L2064.45 218.316 M2072.95 216.557 L2072.95 231.349 L2068.69 231.349 L2068.69 227.413 Q2067.23 229.775 2065.06 230.909 Q2062.88 232.02 2059.73 232.02 Q2055.75 232.02 2053.39 229.798 Q2051.05 227.552 2051.05 223.802 Q2051.05 219.427 2053.97 217.205 Q2056.91 214.983 2062.72 214.983 L2068.69 214.983 L2068.69 214.566 Q2068.69 211.627 2066.74 210.029 Q2064.82 208.409 2061.33 208.409 Q2059.11 208.409 2057 208.941 Q2054.89 209.474 2052.95 210.539 L2052.95 206.603 Q2055.29 205.701 2057.49 205.261 Q2059.68 204.798 2061.77 204.798 Q2067.39 204.798 2070.17 207.714 Q2072.95 210.631 2072.95 216.557 Z" fill="#000000" fill-rule="evenodd" fill-opacity="1" /><path clip-path="url(#clip210)" d="M2081.72 195.33 L2085.98 195.33 L2085.98 231.349 L2081.72 231.349 L2081.72 195.33 Z" fill="#000000" fill-rule="evenodd" fill-opacity="1" /><path clip-path="url(#clip210)" d="M2130.15 210.4 Q2131.74 207.529 2133.97 206.164 Q2136.19 204.798 2139.2 204.798 Q2143.25 204.798 2145.45 207.645 Q2147.65 210.469 2147.65 215.701 L2147.65 231.349 L2143.36 231.349 L2143.36 215.839 Q2143.36 212.113 2142.05 210.307 Q2140.73 208.502 2138.02 208.502 Q2134.71 208.502 2132.79 210.701 Q2130.86 212.9 2130.86 216.696 L2130.86 231.349 L2126.58 231.349 L2126.58 215.839 Q2126.58 212.089 2125.26 210.307 Q2123.94 208.502 2121.19 208.502 Q2117.93 208.502 2116 210.724 Q2114.08 212.923 2114.08 216.696 L2114.08 231.349 L2109.8 231.349 L2109.8 205.423 L2114.08 205.423 L2114.08 209.451 Q2115.54 207.066 2117.58 205.932 Q2119.62 204.798 2122.42 204.798 Q2125.24 204.798 2127.21 206.233 Q2129.2 207.668 2130.15 210.4 Z" fill="#000000" fill-rule="evenodd" fill-opacity="1" /><path clip-path="url(#clip210)" d="M2178.32 217.321 L2178.32 219.404 L2158.74 219.404 Q2159.01 223.802 2161.37 226.117 Q2163.76 228.409 2167.99 228.409 Q2170.45 228.409 2172.74 227.807 Q2175.05 227.205 2177.32 226.001 L2177.32 230.029 Q2175.03 231.001 2172.62 231.511 Q2170.22 232.02 2167.74 232.02 Q2161.54 232.02 2157.9 228.409 Q2154.29 224.798 2154.29 218.64 Q2154.29 212.275 2157.72 208.548 Q2161.17 204.798 2167 204.798 Q2172.23 204.798 2175.26 208.177 Q2178.32 211.534 2178.32 217.321 M2174.06 216.071 Q2174.01 212.576 2172.09 210.492 Q2170.19 208.409 2167.05 208.409 Q2163.48 208.409 2161.33 210.423 Q2159.2 212.437 2158.87 216.094 L2174.06 216.071 Z" fill="#000000" fill-rule="evenodd" fill-opacity="1" /><path clip-path="url(#clip210)" d="M2197.09 218.316 Q2191.93 218.316 2189.94 219.497 Q2187.95 220.677 2187.95 223.525 Q2187.95 225.793 2189.43 227.136 Q2190.93 228.455 2193.5 228.455 Q2197.05 228.455 2199.17 225.955 Q2201.33 223.432 2201.33 219.265 L2201.33 218.316 L2197.09 218.316 M2205.59 216.557 L2205.59 231.349 L2201.33 231.349 L2201.33 227.413 Q2199.87 229.775 2197.69 230.909 Q2195.52 232.02 2192.37 232.02 Q2188.39 232.02 2186.03 229.798 Q2183.69 227.552 2183.69 223.802 Q2183.69 219.427 2186.61 217.205 Q2189.55 214.983 2195.36 214.983 L2201.33 214.983 L2201.33 214.566 Q2201.33 211.627 2199.38 210.029 Q2197.46 208.409 2193.97 208.409 Q2191.74 208.409 2189.64 208.941 Q2187.53 209.474 2185.59 210.539 L2185.59 206.603 Q2187.92 205.701 2190.12 205.261 Q2192.32 204.798 2194.41 204.798 Q2200.03 204.798 2202.81 207.714 Q2205.59 210.631 2205.59 216.557 Z" fill="#000000" fill-rule="evenodd" fill-opacity="1" /><path clip-path="url(#clip210)" d="M2235.91 215.701 L2235.91 231.349 L2231.65 231.349 L2231.65 215.839 Q2231.65 212.159 2230.22 210.33 Q2228.78 208.502 2225.91 208.502 Q2222.46 208.502 2220.47 210.701 Q2218.48 212.9 2218.48 216.696 L2218.48 231.349 L2214.2 231.349 L2214.2 205.423 L2218.48 205.423 L2218.48 209.451 Q2220.01 207.113 2222.07 205.955 Q2224.15 204.798 2226.86 204.798 Q2231.33 204.798 2233.62 207.576 Q2235.91 210.33 2235.91 215.701 Z" fill="#000000" fill-rule="evenodd" fill-opacity="1" /><polyline clip-path="url(#clip210)" style="stroke:#3da44d; stroke-linecap:butt; stroke-linejoin:round; stroke-width:4; stroke-opacity:1; fill:none" points="
  1673.65,274.549 1813.86,274.549 
  "/>
<path clip-path="url(#clip210)" d="M1855.66 266.667 L1855.66 270.694 Q1853.85 269.769 1851.91 269.306 Q1849.96 268.843 1847.88 268.843 Q1844.71 268.843 1843.11 269.815 Q1841.54 270.787 1841.54 272.731 Q1841.54 274.213 1842.67 275.069 Q1843.81 275.903 1847.23 276.667 L1848.69 276.991 Q1853.23 277.963 1855.13 279.745 Q1857.05 281.505 1857.05 284.676 Q1857.05 288.287 1854.18 290.393 Q1851.33 292.5 1846.33 292.5 Q1844.25 292.5 1841.98 292.083 Q1839.73 291.69 1837.23 290.88 L1837.23 286.481 Q1839.59 287.708 1841.89 288.333 Q1844.18 288.935 1846.42 288.935 Q1849.43 288.935 1851.05 287.917 Q1852.67 286.875 1852.67 285 Q1852.67 283.264 1851.49 282.338 Q1850.33 281.412 1846.38 280.556 L1844.89 280.208 Q1840.94 279.375 1839.18 277.662 Q1837.42 275.926 1837.42 272.917 Q1837.42 269.259 1840.01 267.269 Q1842.6 265.278 1847.37 265.278 Q1849.73 265.278 1851.82 265.625 Q1853.9 265.972 1855.66 266.667 Z" fill="#000000" fill-rule="evenodd" fill-opacity="1" /><path clip-path="url(#clip210)" d="M1868.04 258.542 L1868.04 265.903 L1876.82 265.903 L1876.82 269.213 L1868.04 269.213 L1868.04 283.287 Q1868.04 286.458 1868.9 287.361 Q1869.78 288.264 1872.44 288.264 L1876.82 288.264 L1876.82 291.829 L1872.44 291.829 Q1867.51 291.829 1865.63 290 Q1863.76 288.148 1863.76 283.287 L1863.76 269.213 L1860.63 269.213 L1860.63 265.903 L1863.76 265.903 L1863.76 258.542 L1868.04 258.542 Z" fill="#000000" fill-rule="evenodd" fill-opacity="1" /><path clip-path="url(#clip210)" d="M1894.2 278.796 Q1889.04 278.796 1887.05 279.977 Q1885.06 281.157 1885.06 284.005 Q1885.06 286.273 1886.54 287.616 Q1888.04 288.935 1890.61 288.935 Q1894.15 288.935 1896.28 286.435 Q1898.44 283.912 1898.44 279.745 L1898.44 278.796 L1894.2 278.796 M1902.69 277.037 L1902.69 291.829 L1898.44 291.829 L1898.44 287.893 Q1896.98 290.255 1894.8 291.389 Q1892.63 292.5 1889.48 292.5 Q1885.5 292.5 1883.13 290.278 Q1880.8 288.032 1880.8 284.282 Q1880.8 279.907 1883.71 277.685 Q1886.65 275.463 1892.46 275.463 L1898.44 275.463 L1898.44 275.046 Q1898.44 272.107 1896.49 270.509 Q1894.57 268.889 1891.07 268.889 Q1888.85 268.889 1886.75 269.421 Q1884.64 269.954 1882.69 271.019 L1882.69 267.083 Q1885.03 266.181 1887.23 265.741 Q1889.43 265.278 1891.51 265.278 Q1897.14 265.278 1899.92 268.194 Q1902.69 271.111 1902.69 277.037 Z" fill="#000000" fill-rule="evenodd" fill-opacity="1" /><path clip-path="url(#clip210)" d="M1915.68 258.542 L1915.68 265.903 L1924.45 265.903 L1924.45 269.213 L1915.68 269.213 L1915.68 283.287 Q1915.68 286.458 1916.54 287.361 Q1917.42 288.264 1920.08 288.264 L1924.45 288.264 L1924.45 291.829 L1920.08 291.829 Q1915.15 291.829 1913.27 290 Q1911.4 288.148 1911.4 283.287 L1911.4 269.213 L1908.27 269.213 L1908.27 265.903 L1911.4 265.903 L1911.4 258.542 L1915.68 258.542 Z" fill="#000000" fill-rule="evenodd" fill-opacity="1" /><path clip-path="url(#clip210)" d="M1930.06 265.903 L1934.32 265.903 L1934.32 291.829 L1930.06 291.829 L1930.06 265.903 M1930.06 255.81 L1934.32 255.81 L1934.32 261.204 L1930.06 261.204 L1930.06 255.81 Z" fill="#000000" fill-rule="evenodd" fill-opacity="1" /><path clip-path="url(#clip210)" d="M1959.75 266.667 L1959.75 270.694 Q1957.95 269.769 1956 269.306 Q1954.06 268.843 1951.98 268.843 Q1948.81 268.843 1947.21 269.815 Q1945.63 270.787 1945.63 272.731 Q1945.63 274.213 1946.77 275.069 Q1947.9 275.903 1951.33 276.667 L1952.79 276.991 Q1957.32 277.963 1959.22 279.745 Q1961.14 281.505 1961.14 284.676 Q1961.14 288.287 1958.27 290.393 Q1955.43 292.5 1950.43 292.5 Q1948.34 292.5 1946.07 292.083 Q1943.83 291.69 1941.33 290.88 L1941.33 286.481 Q1943.69 287.708 1945.98 288.333 Q1948.27 288.935 1950.52 288.935 Q1953.53 288.935 1955.15 287.917 Q1956.77 286.875 1956.77 285 Q1956.77 283.264 1955.59 282.338 Q1954.43 281.412 1950.47 280.556 L1948.99 280.208 Q1945.03 279.375 1943.27 277.662 Q1941.51 275.926 1941.51 272.917 Q1941.51 269.259 1944.11 267.269 Q1946.7 265.278 1951.47 265.278 Q1953.83 265.278 1955.91 265.625 Q1958 265.972 1959.75 266.667 Z" fill="#000000" fill-rule="evenodd" fill-opacity="1" /><path clip-path="url(#clip210)" d="M1972.14 258.542 L1972.14 265.903 L1980.91 265.903 L1980.91 269.213 L1972.14 269.213 L1972.14 283.287 Q1972.14 286.458 1973 287.361 Q1973.88 288.264 1976.54 288.264 L1980.91 288.264 L1980.91 291.829 L1976.54 291.829 Q1971.61 291.829 1969.73 290 Q1967.86 288.148 1967.86 283.287 L1967.86 269.213 L1964.73 269.213 L1964.73 265.903 L1967.86 265.903 L1967.86 258.542 L1972.14 258.542 Z" fill="#000000" fill-rule="evenodd" fill-opacity="1" /><path clip-path="url(#clip210)" d="M1986.51 265.903 L1990.77 265.903 L1990.77 291.829 L1986.51 291.829 L1986.51 265.903 M1986.51 255.81 L1990.77 255.81 L1990.77 261.204 L1986.51 261.204 L1986.51 255.81 Z" fill="#000000" fill-rule="evenodd" fill-opacity="1" /><path clip-path="url(#clip210)" d="M2018.34 266.898 L2018.34 270.88 Q2016.54 269.884 2014.71 269.398 Q2012.9 268.889 2011.05 268.889 Q2006.91 268.889 2004.62 271.528 Q2002.32 274.144 2002.32 278.889 Q2002.32 283.634 2004.62 286.273 Q2006.91 288.889 2011.05 288.889 Q2012.9 288.889 2014.71 288.403 Q2016.54 287.893 2018.34 286.898 L2018.34 290.833 Q2016.56 291.667 2014.64 292.083 Q2012.74 292.5 2010.59 292.5 Q2004.73 292.5 2001.28 288.819 Q1997.83 285.139 1997.83 278.889 Q1997.83 272.546 2001.31 268.912 Q2004.8 265.278 2010.87 265.278 Q2012.83 265.278 2014.71 265.695 Q2016.58 266.088 2018.34 266.898 Z" fill="#000000" fill-rule="evenodd" fill-opacity="1" /><path clip-path="url(#clip210)" d="M2037.53 278.796 Q2032.37 278.796 2030.38 279.977 Q2028.39 281.157 2028.39 284.005 Q2028.39 286.273 2029.87 287.616 Q2031.37 288.935 2033.94 288.935 Q2037.49 288.935 2039.62 286.435 Q2041.77 283.912 2041.77 279.745 L2041.77 278.796 L2037.53 278.796 M2046.03 277.037 L2046.03 291.829 L2041.77 291.829 L2041.77 287.893 Q2040.31 290.255 2038.13 291.389 Q2035.96 292.5 2032.81 292.5 Q2028.83 292.5 2026.47 290.278 Q2024.13 288.032 2024.13 284.282 Q2024.13 279.907 2027.05 277.685 Q2029.99 275.463 2035.8 275.463 L2041.77 275.463 L2041.77 275.046 Q2041.77 272.107 2039.82 270.509 Q2037.9 268.889 2034.41 268.889 Q2032.18 268.889 2030.08 269.421 Q2027.97 269.954 2026.03 271.019 L2026.03 267.083 Q2028.37 266.181 2030.56 265.741 Q2032.76 265.278 2034.85 265.278 Q2040.47 265.278 2043.25 268.194 Q2046.03 271.111 2046.03 277.037 Z" fill="#000000" fill-rule="evenodd" fill-opacity="1" /><path clip-path="url(#clip210)" d="M2054.8 255.81 L2059.06 255.81 L2059.06 291.829 L2054.8 291.829 L2054.8 255.81 Z" fill="#000000" fill-rule="evenodd" fill-opacity="1" /><path clip-path="url(#clip210)" d="M2103.23 270.88 Q2104.82 268.009 2107.05 266.644 Q2109.27 265.278 2112.28 265.278 Q2116.33 265.278 2118.53 268.125 Q2120.73 270.949 2120.73 276.181 L2120.73 291.829 L2116.44 291.829 L2116.44 276.319 Q2116.44 272.593 2115.12 270.787 Q2113.8 268.982 2111.1 268.982 Q2107.79 268.982 2105.87 271.181 Q2103.94 273.38 2103.94 277.176 L2103.94 291.829 L2099.66 291.829 L2099.66 276.319 Q2099.66 272.569 2098.34 270.787 Q2097.02 268.982 2094.27 268.982 Q2091 268.982 2089.08 271.204 Q2087.16 273.403 2087.16 277.176 L2087.16 291.829 L2082.88 291.829 L2082.88 265.903 L2087.16 265.903 L2087.16 269.931 Q2088.62 267.546 2090.66 266.412 Q2092.69 265.278 2095.49 265.278 Q2098.32 265.278 2100.29 266.713 Q2102.28 268.148 2103.23 270.88 Z" fill="#000000" fill-rule="evenodd" fill-opacity="1" /><path clip-path="url(#clip210)" d="M2151.4 277.801 L2151.4 279.884 L2131.81 279.884 Q2132.09 284.282 2134.45 286.597 Q2136.84 288.889 2141.07 288.889 Q2143.53 288.889 2145.82 288.287 Q2148.13 287.685 2150.4 286.481 L2150.4 290.509 Q2148.11 291.481 2145.7 291.991 Q2143.3 292.5 2140.82 292.5 Q2134.61 292.5 2130.98 288.889 Q2127.37 285.278 2127.37 279.12 Q2127.37 272.755 2130.8 269.028 Q2134.24 265.278 2140.08 265.278 Q2145.31 265.278 2148.34 268.657 Q2151.4 272.014 2151.4 277.801 M2147.14 276.551 Q2147.09 273.056 2145.17 270.972 Q2143.27 268.889 2140.12 268.889 Q2136.56 268.889 2134.41 270.903 Q2132.28 272.917 2131.95 276.574 L2147.14 276.551 Z" fill="#000000" fill-rule="evenodd" fill-opacity="1" /><path clip-path="url(#clip210)" d="M2170.17 278.796 Q2165.01 278.796 2163.02 279.977 Q2161.03 281.157 2161.03 284.005 Q2161.03 286.273 2162.51 287.616 Q2164.01 288.935 2166.58 288.935 Q2170.12 288.935 2172.25 286.435 Q2174.41 283.912 2174.41 279.745 L2174.41 278.796 L2170.17 278.796 M2178.67 277.037 L2178.67 291.829 L2174.41 291.829 L2174.41 287.893 Q2172.95 290.255 2170.77 291.389 Q2168.6 292.5 2165.45 292.5 Q2161.47 292.5 2159.11 290.278 Q2156.77 288.032 2156.77 284.282 Q2156.77 279.907 2159.68 277.685 Q2162.62 275.463 2168.43 275.463 L2174.41 275.463 L2174.41 275.046 Q2174.41 272.107 2172.46 270.509 Q2170.54 268.889 2167.05 268.889 Q2164.82 268.889 2162.72 269.421 Q2160.61 269.954 2158.67 271.019 L2158.67 267.083 Q2161 266.181 2163.2 265.741 Q2165.4 265.278 2167.49 265.278 Q2173.11 265.278 2175.89 268.194 Q2178.67 271.111 2178.67 277.037 Z" fill="#000000" fill-rule="evenodd" fill-opacity="1" /><path clip-path="url(#clip210)" d="M2208.99 276.181 L2208.99 291.829 L2204.73 291.829 L2204.73 276.319 Q2204.73 272.639 2203.3 270.81 Q2201.86 268.982 2198.99 268.982 Q2195.54 268.982 2193.55 271.181 Q2191.56 273.38 2191.56 277.176 L2191.56 291.829 L2187.28 291.829 L2187.28 265.903 L2191.56 265.903 L2191.56 269.931 Q2193.09 267.593 2195.15 266.435 Q2197.23 265.278 2199.94 265.278 Q2204.41 265.278 2206.7 268.056 Q2208.99 270.81 2208.99 276.181 Z" fill="#000000" fill-rule="evenodd" fill-opacity="1" /></svg>
