<?xml version="1.0" encoding="utf-8"?>
<svg xmlns="http://www.w3.org/2000/svg" xmlns:xlink="http://www.w3.org/1999/xlink" width="600" height="400" viewBox="0 0 2400 1600">
<defs>
  <clipPath id="clip030">
    <rect x="0" y="0" width="2400" height="1600"/>
  </clipPath>
</defs>
<path clip-path="url(#clip030)" d="
M0 1600 L2400 1600 L2400 0 L0 0  Z
  " fill="#ffffff" fill-rule="evenodd" fill-opacity="1"/>
<defs>
  <clipPath id="clip031">
    <rect x="480" y="0" width="1681" height="1600"/>
  </clipPath>
</defs>
<path clip-path="url(#clip030)" d="
M102.74 1505.26 L2352.76 1505.26 L2352.76 47.2441 L102.74 47.2441  Z
  " fill="#ffffff" fill-rule="evenodd" fill-opacity="1"/>
<defs>
  <clipPath id="clip032">
    <rect x="102" y="47" width="2251" height="1459"/>
  </clipPath>
</defs>
<polyline clip-path="url(#clip032)" style="stroke:#000000; stroke-linecap:butt; stroke-linejoin:round; stroke-width:2; stroke-opacity:0.1; fill:none" points="
  226.495,1505.26 226.495,47.2441 
  "/>
<polyline clip-path="url(#clip032)" style="stroke:#000000; stroke-linecap:butt; stroke-linejoin:round; stroke-width:2; stroke-opacity:0.1; fill:none" points="
  727.122,1505.26 727.122,47.2441 
  "/>
<polyline clip-path="url(#clip032)" style="stroke:#000000; stroke-linecap:butt; stroke-linejoin:round; stroke-width:2; stroke-opacity:0.1; fill:none" points="
  1227.75,1505.26 1227.75,47.2441 
  "/>
<polyline clip-path="url(#clip032)" style="stroke:#000000; stroke-linecap:butt; stroke-linejoin:round; stroke-width:2; stroke-opacity:0.1; fill:none" points="
  1728.37,1505.26 1728.37,47.2441 
  "/>
<polyline clip-path="url(#clip032)" style="stroke:#000000; stroke-linecap:butt; stroke-linejoin:round; stroke-width:2; stroke-opacity:0.1; fill:none" points="
  2229,1505.26 2229,47.2441 
  "/>
<polyline clip-path="url(#clip030)" style="stroke:#000000; stroke-linecap:butt; stroke-linejoin:round; stroke-width:4; stroke-opacity:1; fill:none" points="
  102.74,1505.26 2352.76,1505.26 
  "/>
<polyline clip-path="url(#clip030)" style="stroke:#000000; stroke-linecap:butt; stroke-linejoin:round; stroke-width:4; stroke-opacity:1; fill:none" points="
  226.495,1505.26 226.495,1487.76 
  "/>
<polyline clip-path="url(#clip030)" style="stroke:#000000; stroke-linecap:butt; stroke-linejoin:round; stroke-width:4; stroke-opacity:1; fill:none" points="
  727.122,1505.26 727.122,1487.76 
  "/>
<polyline clip-path="url(#clip030)" style="stroke:#000000; stroke-linecap:butt; stroke-linejoin:round; stroke-width:4; stroke-opacity:1; fill:none" points="
  1227.75,1505.26 1227.75,1487.76 
  "/>
<polyline clip-path="url(#clip030)" style="stroke:#000000; stroke-linecap:butt; stroke-linejoin:round; stroke-width:4; stroke-opacity:1; fill:none" points="
  1728.37,1505.26 1728.37,1487.76 
  "/>
<polyline clip-path="url(#clip030)" style="stroke:#000000; stroke-linecap:butt; stroke-linejoin:round; stroke-width:4; stroke-opacity:1; fill:none" points="
  2229,1505.26 2229,1487.76 
  "/>
<path clip-path="url(#clip030)" d="M203.879 1534.45 Q200.268 1534.45 198.44 1538.02 Q196.634 1541.56 196.634 1548.69 Q196.634 1555.79 198.44 1559.36 Q200.268 1562.9 203.879 1562.9 Q207.514 1562.9 209.319 1559.36 Q211.148 1555.79 211.148 1548.69 Q211.148 1541.56 209.319 1538.02 Q207.514 1534.45 203.879 1534.45 M203.879 1530.75 Q209.69 1530.75 212.745 1535.35 Q215.824 1539.94 215.824 1548.69 Q215.824 1557.41 212.745 1562.02 Q209.69 1566.6 203.879 1566.6 Q198.069 1566.6 194.991 1562.02 Q191.935 1557.41 191.935 1548.69 Q191.935 1539.94 194.991 1535.35 Q198.069 1530.75 203.879 1530.75 Z" fill="#000000" fill-rule="evenodd" fill-opacity="1" /><path clip-path="url(#clip030)" d="M224.041 1560.05 L228.926 1560.05 L228.926 1565.93 L224.041 1565.93 L224.041 1560.05 Z" fill="#000000" fill-rule="evenodd" fill-opacity="1" /><path clip-path="url(#clip030)" d="M249.111 1534.45 Q245.5 1534.45 243.671 1538.02 Q241.865 1541.56 241.865 1548.69 Q241.865 1555.79 243.671 1559.36 Q245.5 1562.9 249.111 1562.9 Q252.745 1562.9 254.55 1559.36 Q256.379 1555.79 256.379 1548.69 Q256.379 1541.56 254.55 1538.02 Q252.745 1534.45 249.111 1534.45 M249.111 1530.75 Q254.921 1530.75 257.976 1535.35 Q261.055 1539.94 261.055 1548.69 Q261.055 1557.41 257.976 1562.02 Q254.921 1566.6 249.111 1566.6 Q243.3 1566.6 240.222 1562.02 Q237.166 1557.41 237.166 1548.69 Q237.166 1539.94 240.222 1535.35 Q243.3 1530.75 249.111 1530.75 Z" fill="#000000" fill-rule="evenodd" fill-opacity="1" /><path clip-path="url(#clip030)" d="M698.858 1562 L715.177 1562 L715.177 1565.93 L693.233 1565.93 L693.233 1562 Q695.895 1559.24 700.478 1554.61 Q705.085 1549.96 706.265 1548.62 Q708.511 1546.09 709.39 1544.36 Q710.293 1542.6 710.293 1540.91 Q710.293 1538.15 708.348 1536.42 Q706.427 1534.68 703.325 1534.68 Q701.126 1534.68 698.673 1535.45 Q696.242 1536.21 693.464 1537.76 L693.464 1533.04 Q696.288 1531.9 698.742 1531.33 Q701.196 1530.75 703.233 1530.75 Q708.603 1530.75 711.798 1533.43 Q714.992 1536.12 714.992 1540.61 Q714.992 1542.74 714.182 1544.66 Q713.395 1546.56 711.288 1549.15 Q710.71 1549.82 707.608 1553.04 Q704.506 1556.23 698.858 1562 Z" fill="#000000" fill-rule="evenodd" fill-opacity="1" /><path clip-path="url(#clip030)" d="M724.992 1560.05 L729.876 1560.05 L729.876 1565.93 L724.992 1565.93 L724.992 1560.05 Z" fill="#000000" fill-rule="evenodd" fill-opacity="1" /><path clip-path="url(#clip030)" d="M740.108 1531.37 L758.464 1531.37 L758.464 1535.31 L744.39 1535.31 L744.39 1543.78 Q745.408 1543.43 746.427 1543.27 Q747.445 1543.08 748.464 1543.08 Q754.251 1543.08 757.631 1546.26 Q761.01 1549.43 761.01 1554.84 Q761.01 1560.42 757.538 1563.52 Q754.066 1566.6 747.746 1566.6 Q745.571 1566.6 743.302 1566.23 Q741.057 1565.86 738.649 1565.12 L738.649 1560.42 Q740.733 1561.56 742.955 1562.11 Q745.177 1562.67 747.654 1562.67 Q751.658 1562.67 753.996 1560.56 Q756.334 1558.46 756.334 1554.84 Q756.334 1551.23 753.996 1549.13 Q751.658 1547.02 747.654 1547.02 Q745.779 1547.02 743.904 1547.44 Q742.052 1547.85 740.108 1548.73 L740.108 1531.37 Z" fill="#000000" fill-rule="evenodd" fill-opacity="1" /><path clip-path="url(#clip030)" d="M1194.91 1531.37 L1213.27 1531.37 L1213.27 1535.31 L1199.19 1535.31 L1199.19 1543.78 Q1200.21 1543.43 1201.23 1543.27 Q1202.25 1543.08 1203.27 1543.08 Q1209.06 1543.08 1212.44 1546.26 Q1215.82 1549.43 1215.82 1554.84 Q1215.82 1560.42 1212.34 1563.52 Q1208.87 1566.6 1202.55 1566.6 Q1200.38 1566.6 1198.11 1566.23 Q1195.86 1565.86 1193.45 1565.12 L1193.45 1560.42 Q1195.54 1561.56 1197.76 1562.11 Q1199.98 1562.67 1202.46 1562.67 Q1206.46 1562.67 1208.8 1560.56 Q1211.14 1558.46 1211.14 1554.84 Q1211.14 1551.23 1208.8 1549.13 Q1206.46 1547.02 1202.46 1547.02 Q1200.58 1547.02 1198.71 1547.44 Q1196.86 1547.85 1194.91 1548.73 L1194.91 1531.37 Z" fill="#000000" fill-rule="evenodd" fill-opacity="1" /><path clip-path="url(#clip030)" d="M1225.03 1560.05 L1229.91 1560.05 L1229.91 1565.93 L1225.03 1565.93 L1225.03 1560.05 Z" fill="#000000" fill-rule="evenodd" fill-opacity="1" /><path clip-path="url(#clip030)" d="M1250.1 1534.45 Q1246.49 1534.45 1244.66 1538.02 Q1242.85 1541.56 1242.85 1548.69 Q1242.85 1555.79 1244.66 1559.36 Q1246.49 1562.9 1250.1 1562.9 Q1253.73 1562.9 1255.54 1559.36 Q1257.37 1555.79 1257.37 1548.69 Q1257.37 1541.56 1255.54 1538.02 Q1253.73 1534.45 1250.1 1534.45 M1250.1 1530.75 Q1255.91 1530.75 1258.96 1535.35 Q1262.04 1539.94 1262.04 1548.69 Q1262.04 1557.41 1258.96 1562.02 Q1255.91 1566.6 1250.1 1566.6 Q1244.29 1566.6 1241.21 1562.02 Q1238.15 1557.41 1238.15 1548.69 Q1238.15 1539.94 1241.21 1535.35 Q1244.29 1530.75 1250.1 1530.75 Z" fill="#000000" fill-rule="evenodd" fill-opacity="1" /><path clip-path="url(#clip030)" d="M1694.69 1531.37 L1716.92 1531.37 L1716.92 1533.36 L1704.37 1565.93 L1699.49 1565.93 L1711.29 1535.31 L1694.69 1535.31 L1694.69 1531.37 Z" fill="#000000" fill-rule="evenodd" fill-opacity="1" /><path clip-path="url(#clip030)" d="M1726.04 1560.05 L1730.92 1560.05 L1730.92 1565.93 L1726.04 1565.93 L1726.04 1560.05 Z" fill="#000000" fill-rule="evenodd" fill-opacity="1" /><path clip-path="url(#clip030)" d="M1741.15 1531.37 L1759.51 1531.37 L1759.51 1535.31 L1745.43 1535.31 L1745.43 1543.78 Q1746.45 1543.43 1747.47 1543.27 Q1748.49 1543.08 1749.51 1543.08 Q1755.3 1543.08 1758.68 1546.26 Q1762.05 1549.43 1762.05 1554.84 Q1762.05 1560.42 1758.58 1563.52 Q1755.11 1566.6 1748.79 1566.6 Q1746.62 1566.6 1744.35 1566.23 Q1742.1 1565.86 1739.69 1565.12 L1739.69 1560.42 Q1741.78 1561.56 1744 1562.11 Q1746.22 1562.67 1748.7 1562.67 Q1752.7 1562.67 1755.04 1560.56 Q1757.38 1558.46 1757.38 1554.84 Q1757.38 1551.23 1755.04 1549.13 Q1752.7 1547.02 1748.7 1547.02 Q1746.82 1547.02 1744.95 1547.44 Q1743.1 1547.85 1741.15 1548.73 L1741.15 1531.37 Z" fill="#000000" fill-rule="evenodd" fill-opacity="1" /><path clip-path="url(#clip030)" d="M2181.07 1562 L2188.71 1562 L2188.71 1535.63 L2180.4 1537.3 L2180.4 1533.04 L2188.67 1531.37 L2193.34 1531.37 L2193.34 1562 L2200.98 1562 L2200.98 1565.93 L2181.07 1565.93 L2181.07 1562 Z" fill="#000000" fill-rule="evenodd" fill-opacity="1" /><path clip-path="url(#clip030)" d="M2220.42 1534.45 Q2216.81 1534.45 2214.98 1538.02 Q2213.18 1541.56 2213.18 1548.69 Q2213.18 1555.79 2214.98 1559.36 Q2216.81 1562.9 2220.42 1562.9 Q2224.06 1562.9 2225.86 1559.36 Q2227.69 1555.79 2227.69 1548.69 Q2227.69 1541.56 2225.86 1538.02 Q2224.06 1534.45 2220.42 1534.45 M2220.42 1530.75 Q2226.23 1530.75 2229.29 1535.35 Q2232.37 1539.94 2232.37 1548.69 Q2232.37 1557.41 2229.29 1562.02 Q2226.23 1566.6 2220.42 1566.6 Q2214.61 1566.6 2211.54 1562.02 Q2208.48 1557.41 2208.48 1548.69 Q2208.48 1539.94 2211.54 1535.35 Q2214.61 1530.75 2220.42 1530.75 Z" fill="#000000" fill-rule="evenodd" fill-opacity="1" /><path clip-path="url(#clip030)" d="M2240.59 1560.05 L2245.47 1560.05 L2245.47 1565.93 L2240.59 1565.93 L2240.59 1560.05 Z" fill="#000000" fill-rule="evenodd" fill-opacity="1" /><path clip-path="url(#clip030)" d="M2265.66 1534.45 Q2262.04 1534.45 2260.22 1538.02 Q2258.41 1541.56 2258.41 1548.69 Q2258.41 1555.79 2260.22 1559.36 Q2262.04 1562.9 2265.66 1562.9 Q2269.29 1562.9 2271.1 1559.36 Q2272.92 1555.79 2272.92 1548.69 Q2272.92 1541.56 2271.1 1538.02 Q2269.29 1534.45 2265.66 1534.45 M2265.66 1530.75 Q2271.47 1530.75 2274.52 1535.35 Q2277.6 1539.94 2277.6 1548.69 Q2277.6 1557.41 2274.52 1562.02 Q2271.47 1566.6 2265.66 1566.6 Q2259.85 1566.6 2256.77 1562.02 Q2253.71 1557.41 2253.71 1548.69 Q2253.71 1539.94 2256.77 1535.35 Q2259.85 1530.75 2265.66 1530.75 Z" fill="#000000" fill-rule="evenodd" fill-opacity="1" /><path clip-path="url(#clip030)" d="M1229.71 1621.32 Q1231.9 1617.37 1234.96 1615.49 Q1238.01 1613.62 1242.15 1613.62 Q1247.72 1613.62 1250.74 1617.53 Q1253.77 1621.41 1253.77 1628.61 L1253.77 1650.12 L1247.88 1650.12 L1247.88 1628.8 Q1247.88 1623.67 1246.07 1621.19 Q1244.25 1618.71 1240.53 1618.71 Q1235.98 1618.71 1233.33 1621.73 Q1230.69 1624.76 1230.69 1629.98 L1230.69 1650.12 L1224.8 1650.12 L1224.8 1628.8 Q1224.8 1623.64 1222.99 1621.19 Q1221.18 1618.71 1217.39 1618.71 Q1212.9 1618.71 1210.26 1621.76 Q1207.62 1624.79 1207.62 1629.98 L1207.62 1650.12 L1201.73 1650.12 L1201.73 1614.48 L1207.62 1614.48 L1207.62 1620.01 Q1209.62 1616.74 1212.42 1615.18 Q1215.22 1613.62 1219.07 1613.62 Q1222.96 1613.62 1225.66 1615.59 Q1228.4 1617.56 1229.71 1621.32 Z" fill="#000000" fill-rule="evenodd" fill-opacity="1" /><polyline clip-path="url(#clip032)" style="stroke:#000000; stroke-linecap:butt; stroke-linejoin:round; stroke-width:2; stroke-opacity:0.1; fill:none" points="
  102.74,1464 2352.76,1464 
  "/>
<polyline clip-path="url(#clip032)" style="stroke:#000000; stroke-linecap:butt; stroke-linejoin:round; stroke-width:2; stroke-opacity:0.1; fill:none" points="
  102.74,1090.85 2352.76,1090.85 
  "/>
<polyline clip-path="url(#clip032)" style="stroke:#000000; stroke-linecap:butt; stroke-linejoin:round; stroke-width:2; stroke-opacity:0.1; fill:none" points="
  102.74,717.703 2352.76,717.703 
  "/>
<polyline clip-path="url(#clip032)" style="stroke:#000000; stroke-linecap:butt; stroke-linejoin:round; stroke-width:2; stroke-opacity:0.1; fill:none" points="
  102.74,344.558 2352.76,344.558 
  "/>
<polyline clip-path="url(#clip030)" style="stroke:#000000; stroke-linecap:butt; stroke-linejoin:round; stroke-width:4; stroke-opacity:1; fill:none" points="
  102.74,1505.26 102.74,47.2441 
  "/>
<polyline clip-path="url(#clip030)" style="stroke:#000000; stroke-linecap:butt; stroke-linejoin:round; stroke-width:4; stroke-opacity:1; fill:none" points="
  102.74,1464 129.74,1464 
  "/>
<polyline clip-path="url(#clip030)" style="stroke:#000000; stroke-linecap:butt; stroke-linejoin:round; stroke-width:4; stroke-opacity:1; fill:none" points="
  102.74,1090.85 129.74,1090.85 
  "/>
<polyline clip-path="url(#clip030)" style="stroke:#000000; stroke-linecap:butt; stroke-linejoin:round; stroke-width:4; stroke-opacity:1; fill:none" points="
  102.74,717.703 129.74,717.703 
  "/>
<polyline clip-path="url(#clip030)" style="stroke:#000000; stroke-linecap:butt; stroke-linejoin:round; stroke-width:4; stroke-opacity:1; fill:none" points="
  102.74,344.558 129.74,344.558 
  "/>
<path clip-path="url(#clip030)" d="M9.56454 1449.79 Q5.95345 1449.79 4.12475 1453.36 Q2.31921 1456.9 2.31921 1464.03 Q2.31921 1471.14 4.12475 1474.7 Q5.95345 1478.24 9.56454 1478.24 Q13.1988 1478.24 15.0043 1474.7 Q16.833 1471.14 16.833 1464.03 Q16.833 1456.9 15.0043 1453.36 Q13.1988 1449.79 9.56454 1449.79 M9.56454 1446.09 Q15.3747 1446.09 18.4302 1450.7 Q21.5089 1455.28 21.5089 1464.03 Q21.5089 1472.76 18.4302 1477.36 Q15.3747 1481.95 9.56454 1481.95 Q3.75438 1481.95 0.675697 1477.36 Q-2.37984 1472.76 -2.37984 1464.03 Q-2.37984 1455.28 0.675697 1450.7 Q3.75438 1446.09 9.56454 1446.09 Z" fill="#000000" fill-rule="evenodd" fill-opacity="1" /><path clip-path="url(#clip030)" d="M29.7265 1475.4 L34.6107 1475.4 L34.6107 1481.28 L29.7265 1481.28 L29.7265 1475.4 Z" fill="#000000" fill-rule="evenodd" fill-opacity="1" /><path clip-path="url(#clip030)" d="M54.7958 1449.79 Q51.1847 1449.79 49.356 1453.36 Q47.5504 1456.9 47.5504 1464.03 Q47.5504 1471.14 49.356 1474.7 Q51.1847 1478.24 54.7958 1478.24 Q58.43 1478.24 60.2356 1474.7 Q62.0643 1471.14 62.0643 1464.03 Q62.0643 1456.9 60.2356 1453.36 Q58.43 1449.79 54.7958 1449.79 M54.7958 1446.09 Q60.6059 1446.09 63.6615 1450.7 Q66.7402 1455.28 66.7402 1464.03 Q66.7402 1472.76 63.6615 1477.36 Q60.6059 1481.95 54.7958 1481.95 Q48.9856 1481.95 45.9069 1477.36 Q42.8514 1472.76 42.8514 1464.03 Q42.8514 1455.28 45.9069 1450.7 Q48.9856 1446.09 54.7958 1446.09 Z" fill="#000000" fill-rule="evenodd" fill-opacity="1" /><path clip-path="url(#clip030)" d="M10.7914 1076.65 Q7.18029 1076.65 5.3516 1080.21 Q3.54605 1083.75 3.54605 1090.88 Q3.54605 1097.99 5.3516 1101.56 Q7.18029 1105.1 10.7914 1105.1 Q14.4256 1105.1 16.2312 1101.56 Q18.0599 1097.99 18.0599 1090.88 Q18.0599 1083.75 16.2312 1080.21 Q14.4256 1076.65 10.7914 1076.65 M10.7914 1072.94 Q16.6015 1072.94 19.6571 1077.55 Q22.7358 1082.13 22.7358 1090.88 Q22.7358 1099.61 19.6571 1104.22 Q16.6015 1108.8 10.7914 1108.8 Q4.98123 1108.8 1.90254 1104.22 Q-1.153 1099.61 -1.153 1090.88 Q-1.153 1082.13 1.90254 1077.55 Q4.98123 1072.94 10.7914 1072.94 Z" fill="#000000" fill-rule="evenodd" fill-opacity="1" /><path clip-path="url(#clip030)" d="M30.9533 1102.25 L35.8375 1102.25 L35.8375 1108.13 L30.9533 1108.13 L30.9533 1102.25 Z" fill="#000000" fill-rule="evenodd" fill-opacity="1" /><path clip-path="url(#clip030)" d="M46.8329 1104.19 L54.4717 1104.19 L54.4717 1077.83 L46.1616 1079.5 L46.1616 1075.24 L54.4254 1073.57 L59.1013 1073.57 L59.1013 1104.19 L66.7402 1104.19 L66.7402 1108.13 L46.8329 1108.13 L46.8329 1104.19 Z" fill="#000000" fill-rule="evenodd" fill-opacity="1" /><path clip-path="url(#clip030)" d="M11.1618 703.502 Q7.55066 703.502 5.72197 707.067 Q3.91642 710.609 3.91642 717.738 Q3.91642 724.845 5.72197 728.409 Q7.55066 731.951 11.1618 731.951 Q14.796 731.951 16.6015 728.409 Q18.4302 724.845 18.4302 717.738 Q18.4302 710.609 16.6015 707.067 Q14.796 703.502 11.1618 703.502 M11.1618 699.798 Q16.9719 699.798 20.0274 704.405 Q23.1061 708.988 23.1061 717.738 Q23.1061 726.465 20.0274 731.071 Q16.9719 735.655 11.1618 735.655 Q5.3516 735.655 2.27291 731.071 Q-0.782629 726.465 -0.782629 717.738 Q-0.782629 708.988 2.27291 704.405 Q5.3516 699.798 11.1618 699.798 Z" fill="#000000" fill-rule="evenodd" fill-opacity="1" /><path clip-path="url(#clip030)" d="M31.3237 729.104 L36.2079 729.104 L36.2079 734.983 L31.3237 734.983 L31.3237 729.104 Z" fill="#000000" fill-rule="evenodd" fill-opacity="1" /><path clip-path="url(#clip030)" d="M50.4208 731.048 L66.7402 731.048 L66.7402 734.983 L44.7958 734.983 L44.7958 731.048 Q47.4579 728.294 52.0412 723.664 Q56.6476 719.011 57.8282 717.669 Q60.0735 715.146 60.9532 713.409 Q61.8559 711.65 61.8559 709.96 Q61.8559 707.206 59.9115 705.47 Q57.9902 703.734 54.8884 703.734 Q52.6893 703.734 50.2356 704.497 Q47.8051 705.261 45.0273 706.812 L45.0273 702.09 Q47.8514 700.956 50.3051 700.377 Q52.7588 699.798 54.7958 699.798 Q60.1661 699.798 63.3605 702.484 Q66.555 705.169 66.555 709.659 Q66.555 711.789 65.7448 713.71 Q64.9578 715.609 62.8513 718.201 Q62.2726 718.872 59.1708 722.09 Q56.0689 725.284 50.4208 731.048 Z" fill="#000000" fill-rule="evenodd" fill-opacity="1" /><path clip-path="url(#clip030)" d="M10.2127 330.356 Q6.60159 330.356 4.7729 333.921 Q2.96735 337.463 2.96735 344.592 Q2.96735 351.699 4.7729 355.263 Q6.60159 358.805 10.2127 358.805 Q13.8469 358.805 15.6525 355.263 Q17.4812 351.699 17.4812 344.592 Q17.4812 337.463 15.6525 333.921 Q13.8469 330.356 10.2127 330.356 M10.2127 326.653 Q16.0228 326.653 19.0784 331.259 Q22.1571 335.842 22.1571 344.592 Q22.1571 353.319 19.0784 357.925 Q16.0228 362.509 10.2127 362.509 Q4.40253 362.509 1.32384 357.925 Q-1.7317 353.319 -1.7317 344.592 Q-1.7317 335.842 1.32384 331.259 Q4.40253 326.653 10.2127 326.653 Z" fill="#000000" fill-rule="evenodd" fill-opacity="1" /><path clip-path="url(#clip030)" d="M30.3746 355.958 L35.2588 355.958 L35.2588 361.838 L30.3746 361.838 L30.3746 355.958 Z" fill="#000000" fill-rule="evenodd" fill-opacity="1" /><path clip-path="url(#clip030)" d="M59.6106 343.203 Q62.967 343.921 64.842 346.189 Q66.7402 348.458 66.7402 351.791 Q66.7402 356.907 63.2217 359.708 Q59.7032 362.509 53.2217 362.509 Q51.0458 362.509 48.731 362.069 Q46.4393 361.652 43.9856 360.796 L43.9856 356.282 Q45.9301 357.416 48.2449 357.995 Q50.5597 358.574 53.0828 358.574 Q57.4809 358.574 59.7726 356.838 Q62.0874 355.101 62.0874 351.791 Q62.0874 348.736 59.9346 347.023 Q57.805 345.287 53.9856 345.287 L49.9578 345.287 L49.9578 341.444 L54.1708 341.444 Q57.6198 341.444 59.4485 340.078 Q61.2772 338.689 61.2772 336.097 Q61.2772 333.435 59.3791 332.023 Q57.5041 330.588 53.9856 330.588 Q52.0643 330.588 49.8652 331.004 Q47.6662 331.421 45.0273 332.301 L45.0273 328.134 Q47.6893 327.393 50.0041 327.023 Q52.3421 326.653 54.4023 326.653 Q59.7263 326.653 62.8281 329.083 Q65.93 331.49 65.93 335.611 Q65.93 338.481 64.2865 340.472 Q62.643 342.439 59.6106 343.203 Z" fill="#000000" fill-rule="evenodd" fill-opacity="1" /><path clip-path="url(#clip030)" d="M-94.8723 840.657 L-77.0165 840.657 L-77.0165 832.573 Q-77.0165 828.085 -79.34 825.634 Q-81.6635 823.183 -85.9603 823.183 Q-90.2253 823.183 -92.5488 825.634 Q-94.8723 828.085 -94.8723 832.573 L-94.8723 840.657 M-100.156 847.086 L-100.156 832.573 Q-100.156 824.584 -96.5274 820.51 Q-92.9308 816.404 -85.9603 816.404 Q-78.9262 816.404 -75.3296 820.51 Q-71.733 824.584 -71.733 832.573 L-71.733 840.657 L-52.6358 840.657 L-52.6358 847.086 L-100.156 847.086 Z" fill="#000000" fill-rule="evenodd" fill-opacity="1" /><path clip-path="url(#clip030)" d="M-102.097 793.965 Q-94.7768 798.23 -87.6154 800.298 Q-80.454 802.367 -73.1016 802.367 Q-65.7492 802.367 -58.5241 800.298 Q-51.3309 798.198 -44.0421 793.965 L-44.0421 799.057 Q-51.5218 803.831 -58.7469 806.219 Q-65.972 808.574 -73.1016 808.574 Q-80.1994 808.574 -87.3926 806.219 Q-94.5858 803.863 -102.097 799.057 L-102.097 793.965 Z" fill="#000000" fill-rule="evenodd" fill-opacity="1" /><path clip-path="url(#clip030)" d="M-81.4407 754.847 Q-85.3874 752.651 -87.2653 749.596 Q-89.1432 746.54 -89.1432 742.402 Q-89.1432 736.832 -85.2283 733.809 Q-81.3452 730.785 -74.1519 730.785 L-52.6358 730.785 L-52.6358 736.673 L-73.961 736.673 Q-79.0854 736.673 -81.568 738.487 Q-84.0506 740.302 -84.0506 744.026 Q-84.0506 748.577 -81.0269 751.219 Q-78.0032 753.861 -72.7833 753.861 L-52.6358 753.861 L-52.6358 759.749 L-73.961 759.749 Q-79.1172 759.749 -81.568 761.563 Q-84.0506 763.377 -84.0506 767.165 Q-84.0506 771.653 -80.9951 774.295 Q-77.9714 776.936 -72.7833 776.936 L-52.6358 776.936 L-52.6358 782.825 L-88.2838 782.825 L-88.2838 776.936 L-82.7456 776.936 Q-86.024 774.931 -87.5836 772.13 Q-89.1432 769.329 -89.1432 765.478 Q-89.1432 761.595 -87.1698 758.89 Q-85.1964 756.152 -81.4407 754.847 Z" fill="#000000" fill-rule="evenodd" fill-opacity="1" /><path clip-path="url(#clip030)" d="M-102.097 720.027 L-102.097 714.934 Q-94.5858 710.16 -87.3926 707.805 Q-80.1994 705.418 -73.1016 705.418 Q-65.972 705.418 -58.7469 707.805 Q-51.5218 710.16 -44.0421 714.934 L-44.0421 720.027 Q-51.3309 715.794 -58.5241 713.725 Q-65.7492 711.624 -73.1016 711.624 Q-80.454 711.624 -87.6154 713.725 Q-94.7768 715.794 -102.097 720.027 Z" fill="#000000" fill-rule="evenodd" fill-opacity="1" /><path clip-path="url(#clip032)" d="
M226.495 393.291 L226.495 1464 L426.746 1464 L426.746 393.291 L226.495 393.291 L226.495 393.291  Z
  " fill="#009af9" fill-rule="evenodd" fill-opacity="1"/>
<polyline clip-path="url(#clip032)" style="stroke:#009af9; stroke-linecap:butt; stroke-linejoin:round; stroke-width:4; stroke-opacity:1; fill:none" points="
  226.495,393.291 226.495,1464 426.746,1464 426.746,393.291 226.495,393.291 
  "/>
<path clip-path="url(#clip032)" d="
M426.746 126.67 L426.746 1464 L626.996 1464 L626.996 126.67 L426.746 126.67 L426.746 126.67  Z
  " fill="#009af9" fill-rule="evenodd" fill-opacity="1"/>
<polyline clip-path="url(#clip032)" style="stroke:#009af9; stroke-linecap:butt; stroke-linejoin:round; stroke-width:4; stroke-opacity:1; fill:none" points="
  426.746,126.67 426.746,1464 626.996,1464 626.996,126.67 426.746,126.67 
  "/>
<path clip-path="url(#clip032)" d="
M626.996 632.757 L626.996 1464 L827.247 1464 L827.247 632.757 L626.996 632.757 L626.996 632.757  Z
  " fill="#009af9" fill-rule="evenodd" fill-opacity="1"/>
<polyline clip-path="url(#clip032)" style="stroke:#009af9; stroke-linecap:butt; stroke-linejoin:round; stroke-width:4; stroke-opacity:1; fill:none" points="
  626.996,632.757 626.996,1464 827.247,1464 827.247,632.757 626.996,632.757 
  "/>
<path clip-path="url(#clip032)" d="
M827.247 1115.01 L827.247 1464 L1027.5 1464 L1027.5 1115.01 L827.247 1115.01 L827.247 1115.01  Z
  " fill="#009af9" fill-rule="evenodd" fill-opacity="1"/>
<polyline clip-path="url(#clip032)" style="stroke:#009af9; stroke-linecap:butt; stroke-linejoin:round; stroke-width:4; stroke-opacity:1; fill:none" points="
  827.247,1115.01 827.247,1464 1027.5,1464 1027.5,1115.01 827.247,1115.01 
  "/>
<path clip-path="url(#clip032)" d="
M1027.5 1355.86 L1027.5 1464 L1227.75 1464 L1227.75 1355.86 L1027.5 1355.86 L1027.5 1355.86  Z
  " fill="#009af9" fill-rule="evenodd" fill-opacity="1"/>
<polyline clip-path="url(#clip032)" style="stroke:#009af9; stroke-linecap:butt; stroke-linejoin:round; stroke-width:4; stroke-opacity:1; fill:none" points="
  1027.5,1355.86 1027.5,1464 1227.75,1464 1227.75,1355.86 1027.5,1355.86 
  "/>
<path clip-path="url(#clip032)" d="
M1227.75 1435.64 L1227.75 1464 L1428 1464 L1428 1435.64 L1227.75 1435.64 L1227.75 1435.64  Z
  " fill="#009af9" fill-rule="evenodd" fill-opacity="1"/>
<polyline clip-path="url(#clip032)" style="stroke:#009af9; stroke-linecap:butt; stroke-linejoin:round; stroke-width:4; stroke-opacity:1; fill:none" points="
  1227.75,1435.64 1227.75,1464 1428,1464 1428,1435.64 1227.75,1435.64 
  "/>
<path clip-path="url(#clip032)" d="
M1428 1458.69 L1428 1464 L1628.25 1464 L1628.25 1458.69 L1428 1458.69 L1428 1458.69  Z
  " fill="#009af9" fill-rule="evenodd" fill-opacity="1"/>
<polyline clip-path="url(#clip032)" style="stroke:#009af9; stroke-linecap:butt; stroke-linejoin:round; stroke-width:4; stroke-opacity:1; fill:none" points="
  1428,1458.69 1428,1464 1628.25,1464 1628.25,1458.69 1428,1458.69 
  "/>
<path clip-path="url(#clip032)" d="
M1628.25 1462.87 L1628.25 1464 L1828.5 1464 L1828.5 1462.87 L1628.25 1462.87 L1628.25 1462.87  Z
  " fill="#009af9" fill-rule="evenodd" fill-opacity="1"/>
<polyline clip-path="url(#clip032)" style="stroke:#009af9; stroke-linecap:butt; stroke-linejoin:round; stroke-width:4; stroke-opacity:1; fill:none" points="
  1628.25,1462.87 1628.25,1464 1828.5,1464 1828.5,1462.87 1628.25,1462.87 
  "/>
<path clip-path="url(#clip032)" d="
M1828.5 1463.77 L1828.5 1464 L2028.75 1464 L2028.75 1463.77 L1828.5 1463.77 L1828.5 1463.77  Z
  " fill="#009af9" fill-rule="evenodd" fill-opacity="1"/>
<polyline clip-path="url(#clip032)" style="stroke:#009af9; stroke-linecap:butt; stroke-linejoin:round; stroke-width:4; stroke-opacity:1; fill:none" points="
  1828.5,1463.77 1828.5,1464 2028.75,1464 2028.75,1463.77 1828.5,1463.77 
  "/>
<path clip-path="url(#clip032)" d="
M2028.75 1463.92 L2028.75 1464 L2229 1464 L2229 1463.92 L2028.75 1463.92 L2028.75 1463.92  Z
  " fill="#009af9" fill-rule="evenodd" fill-opacity="1"/>
<polyline clip-path="url(#clip032)" style="stroke:#009af9; stroke-linecap:butt; stroke-linejoin:round; stroke-width:4; stroke-opacity:1; fill:none" points="
  2028.75,1463.92 2028.75,1464 2229,1464 2229,1463.92 2028.75,1463.92 
  "/>
<polyline clip-path="url(#clip032)" style="stroke:#e26f46; stroke-linecap:butt; stroke-linejoin:round; stroke-width:12; stroke-opacity:1; fill:none" points="
  226.495,751.307 246.52,679.497 266.545,607.332 286.57,535.984 306.595,466.703 326.62,400.789 346.645,339.551 366.67,284.261 386.696,236.115 406.721,196.188 
  426.746,165.392 446.771,144.448 466.796,133.849 486.821,133.849 506.846,144.448 526.871,165.392 546.896,196.188 566.921,236.115 586.946,284.261 606.971,339.551 
  626.996,400.789 647.021,466.703 667.046,535.984 687.071,607.332 707.096,679.497 727.122,751.307 747.147,821.702 767.172,889.757 787.197,954.692 807.222,1015.88 
  827.247,1072.86 847.272,1125.32 867.297,1173.08 887.322,1216.09 907.347,1254.43 927.372,1288.25 947.397,1317.79 967.422,1343.33 987.447,1365.2 1007.47,1383.75 
  1027.5,1399.34 1047.52,1412.32 1067.55,1423.02 1087.57,1431.76 1107.6,1438.84 1127.62,1444.52 1147.65,1449.04 1167.67,1452.6 1187.7,1455.38 1207.72,1457.54 
  1227.75,1459.19 1247.77,1460.45 1267.8,1461.4 1287.82,1462.11 1307.85,1462.64 1327.87,1463.03 1347.9,1463.31 1367.92,1463.51 1387.95,1463.66 1407.97,1463.76 
  1428,1463.83 1448.02,1463.89 1468.05,1463.92 1488.07,1463.95 1508.1,1463.96 1528.12,1463.97 1548.15,1463.98 1568.17,1463.99 1588.2,1463.99 1608.22,1463.99 
  1628.25,1463.99 1648.27,1463.99 1668.3,1463.99 1688.32,1463.99 1708.35,1463.99 1728.37,1464 1748.4,1464 1768.42,1464 1788.45,1464 1808.47,1464 
  1828.5,1464 1848.52,1464 1868.55,1464 1888.58,1464 1908.6,1464 1928.63,1464 1948.65,1464 1968.68,1464 1988.7,1464 2008.73,1464 
  2028.75,1464 
  "/>
<polyline clip-path="url(#clip032)" style="stroke:#3da44d; stroke-linecap:butt; stroke-linejoin:round; stroke-width:12; stroke-opacity:1; fill:none" points="
  226.495,394.914 246.52,314.887 266.545,246.492 286.57,190.306 306.595,146.583 326.62,115.279 346.645,96.0945 366.67,88.5087 386.696,91.8189 406.721,105.18 
  426.746,127.644 446.771,158.191 466.796,195.763 486.821,239.295 506.846,287.734 526.871,340.065 546.896,395.323 566.921,452.608 586.946,511.095 606.971,570.038 
  626.996,628.776 647.021,686.731 667.046,743.409 687.071,798.397 707.096,851.359 727.122,902.03 747.147,950.21 767.172,995.76 787.197,1038.59 807.222,1078.67 
  827.247,1115.99 847.272,1150.58 867.297,1182.52 887.322,1211.87 907.347,1238.76 927.372,1263.29 947.397,1285.6 967.422,1305.81 987.447,1324.06 1007.47,1340.49 
  1027.5,1355.24 1047.52,1368.44 1067.55,1380.22 1087.57,1390.7 1107.6,1400.01 1127.62,1408.24 1147.65,1415.52 1167.67,1421.92 1187.7,1427.55 1207.72,1432.49 
  1227.75,1436.81 1247.77,1440.58 1267.8,1443.86 1287.82,1446.71 1307.85,1449.18 1327.87,1451.32 1347.9,1453.17 1367.92,1454.77 1387.95,1456.14 1407.97,1457.32 
  1428,1458.33 1448.02,1459.2 1468.05,1459.94 1488.07,1460.57 1508.1,1461.1 1528.12,1461.56 1548.15,1461.95 1568.17,1462.27 1588.2,1462.55 1608.22,1462.79 
  1628.25,1462.98 1648.27,1463.15 1668.3,1463.29 1688.32,1463.41 1708.35,1463.51 1728.37,1463.59 1748.4,1463.66 1768.42,1463.72 1788.45,1463.76 1808.47,1463.8 
  1828.5,1463.84 1848.52,1463.86 1868.55,1463.89 1888.58,1463.91 1908.6,1463.92 1928.63,1463.94 1948.65,1463.95 1968.68,1463.96 1988.7,1463.96 2008.73,1463.97 
  2028.75,1463.97 
  "/>
<path clip-path="url(#clip030)" d="
M1757.13 337.765 L2277.76 337.765 L2277.76 95.8446 L1757.13 95.8446  Z
  " fill="#ffffff" fill-rule="evenodd" fill-opacity="1"/>
<polyline clip-path="url(#clip030)" style="stroke:#000000; stroke-linecap:butt; stroke-linejoin:round; stroke-width:4; stroke-opacity:1; fill:none" points="
  1757.13,337.765 2277.76,337.765 2277.76,95.8446 1757.13,95.8446 1757.13,337.765 
  "/>
<path clip-path="url(#clip030)" d="
M1782.13 180.517 L1932.13 180.517 L1932.13 132.133 L1782.13 132.133 L1782.13 180.517  Z
  " fill="#009af9" fill-rule="evenodd" fill-opacity="1"/>
<polyline clip-path="url(#clip030)" style="stroke:#009af9; stroke-linecap:butt; stroke-linejoin:round; stroke-width:4; stroke-opacity:1; fill:none" points="
  1782.13,180.517 1932.13,180.517 1932.13,132.133 1782.13,132.133 1782.13,180.517 
  "/>
<path clip-path="url(#clip030)" d="M1979.38 140.179 L1979.38 144.739 Q1976.71 143.466 1974.35 142.841 Q1971.99 142.216 1969.79 142.216 Q1965.97 142.216 1963.89 143.697 Q1961.83 145.179 1961.83 147.91 Q1961.83 150.202 1963.2 151.383 Q1964.59 152.54 1968.43 153.258 L1971.25 153.836 Q1976.48 154.832 1978.96 157.355 Q1981.46 159.855 1981.46 164.068 Q1981.46 169.091 1978.08 171.683 Q1974.72 174.276 1968.22 174.276 Q1965.77 174.276 1962.99 173.72 Q1960.23 173.165 1957.27 172.077 L1957.27 167.262 Q1960.12 168.859 1962.85 169.669 Q1965.58 170.48 1968.22 170.48 Q1972.22 170.48 1974.4 168.906 Q1976.58 167.332 1976.58 164.415 Q1976.58 161.869 1975 160.433 Q1973.45 158.998 1969.89 158.281 L1967.04 157.725 Q1961.81 156.683 1959.47 154.461 Q1957.13 152.239 1957.13 148.281 Q1957.13 143.697 1960.35 141.058 Q1963.59 138.42 1969.26 138.42 Q1971.69 138.42 1974.21 138.859 Q1976.74 139.299 1979.38 140.179 Z" fill="#000000" fill-rule="evenodd" fill-opacity="1" /><path clip-path="url(#clip030)" d="M2009.47 140.179 L2009.47 144.739 Q2006.81 143.466 2004.45 142.841 Q2002.08 142.216 1999.89 142.216 Q1996.07 142.216 1993.98 143.697 Q1991.92 145.179 1991.92 147.91 Q1991.92 150.202 1993.29 151.383 Q1994.68 152.54 1998.52 153.258 L2001.34 153.836 Q2006.58 154.832 2009.05 157.355 Q2011.55 159.855 2011.55 164.068 Q2011.55 169.091 2008.17 171.683 Q2004.82 174.276 1998.31 174.276 Q1995.86 174.276 1993.08 173.72 Q1990.33 173.165 1987.36 172.077 L1987.36 167.262 Q1990.21 168.859 1992.94 169.669 Q1995.67 170.48 1998.31 170.48 Q2002.32 170.48 2004.49 168.906 Q2006.67 167.332 2006.67 164.415 Q2006.67 161.869 2005.09 160.433 Q2003.54 158.998 1999.98 158.281 L1997.13 157.725 Q1991.9 156.683 1989.56 154.461 Q1987.22 152.239 1987.22 148.281 Q1987.22 143.697 1990.44 141.058 Q1993.68 138.42 1999.35 138.42 Q2001.78 138.42 2004.31 138.859 Q2006.83 139.299 2009.47 140.179 Z" fill="#000000" fill-rule="evenodd" fill-opacity="1" /><path clip-path="url(#clip030)" d="M2031.27 143.651 L2024.93 160.85 L2037.64 160.85 L2031.27 143.651 M2028.64 139.045 L2033.94 139.045 L2047.11 173.605 L2042.25 173.605 L2039.1 164.739 L2023.52 164.739 L2020.37 173.605 L2015.44 173.605 L2028.64 139.045 Z" fill="#000000" fill-rule="evenodd" fill-opacity="1" /><polyline clip-path="url(#clip030)" style="stroke:#e26f46; stroke-linecap:butt; stroke-linejoin:round; stroke-width:4; stroke-opacity:1; fill:none" points="
  1782.13,216.805 1932.13,216.805 
  "/>
<path clip-path="url(#clip030)" d="M1976.04 220.821 Q1976.04 216.191 1974.12 213.645 Q1972.22 211.099 1968.77 211.099 Q1965.35 211.099 1963.43 213.645 Q1961.53 216.191 1961.53 220.821 Q1961.53 225.427 1963.43 227.974 Q1965.35 230.52 1968.77 230.52 Q1972.22 230.52 1974.12 227.974 Q1976.04 225.427 1976.04 220.821 M1980.3 230.867 Q1980.3 237.487 1977.36 240.705 Q1974.42 243.946 1968.36 243.946 Q1966.11 243.946 1964.12 243.598 Q1962.13 243.274 1960.26 242.58 L1960.26 238.436 Q1962.13 239.455 1963.96 239.941 Q1965.79 240.427 1967.69 240.427 Q1971.88 240.427 1973.96 238.228 Q1976.04 236.052 1976.04 231.631 L1976.04 229.524 Q1974.72 231.816 1972.66 232.95 Q1970.6 234.085 1967.73 234.085 Q1962.96 234.085 1960.05 230.45 Q1957.13 226.816 1957.13 220.821 Q1957.13 214.802 1960.05 211.168 Q1962.96 207.534 1967.73 207.534 Q1970.6 207.534 1972.66 208.668 Q1974.72 209.802 1976.04 212.094 L1976.04 208.159 L1980.3 208.159 L1980.3 230.867 Z" fill="#000000" fill-rule="evenodd" fill-opacity="1" /><path clip-path="url(#clip030)" d="M2000.86 221.052 Q1995.7 221.052 1993.71 222.233 Q1991.71 223.413 1991.71 226.261 Q1991.71 228.529 1993.2 229.872 Q1994.7 231.191 1997.27 231.191 Q2000.81 231.191 2002.94 228.691 Q2005.09 226.168 2005.09 222.001 L2005.09 221.052 L2000.86 221.052 M2009.35 219.293 L2009.35 234.085 L2005.09 234.085 L2005.09 230.149 Q2003.64 232.511 2001.46 233.645 Q1999.28 234.756 1996.14 234.756 Q1992.15 234.756 1989.79 232.534 Q1987.46 230.288 1987.46 226.538 Q1987.46 222.163 1990.37 219.941 Q1993.31 217.719 1999.12 217.719 L2005.09 217.719 L2005.09 217.302 Q2005.09 214.363 2003.15 212.765 Q2001.23 211.145 1997.73 211.145 Q1995.51 211.145 1993.4 211.677 Q1991.3 212.21 1989.35 213.275 L1989.35 209.339 Q1991.69 208.437 1993.89 207.997 Q1996.09 207.534 1998.17 207.534 Q2003.8 207.534 2006.58 210.45 Q2009.35 213.367 2009.35 219.293 Z" fill="#000000" fill-rule="evenodd" fill-opacity="1" /><path clip-path="url(#clip030)" d="M2017.69 223.853 L2017.69 208.159 L2021.95 208.159 L2021.95 223.691 Q2021.95 227.372 2023.38 229.224 Q2024.82 231.052 2027.69 231.052 Q2031.14 231.052 2033.13 228.853 Q2035.14 226.654 2035.14 222.858 L2035.14 208.159 L2039.4 208.159 L2039.4 234.085 L2035.14 234.085 L2035.14 230.103 Q2033.59 232.464 2031.53 233.622 Q2029.49 234.756 2026.78 234.756 Q2022.32 234.756 2020 231.978 Q2017.69 229.2 2017.69 223.853 M2028.4 207.534 L2028.4 207.534 Z" fill="#000000" fill-rule="evenodd" fill-opacity="1" /><path clip-path="url(#clip030)" d="M2064.7 208.923 L2064.7 212.95 Q2062.89 212.025 2060.95 211.562 Q2059.01 211.099 2056.92 211.099 Q2053.75 211.099 2052.15 212.071 Q2050.58 213.043 2050.58 214.987 Q2050.58 216.469 2051.71 217.325 Q2052.85 218.159 2056.27 218.923 L2057.73 219.247 Q2062.27 220.219 2064.17 222.001 Q2066.09 223.761 2066.09 226.932 Q2066.09 230.543 2063.22 232.649 Q2060.37 234.756 2055.37 234.756 Q2053.29 234.756 2051.02 234.339 Q2048.77 233.946 2046.27 233.136 L2046.27 228.737 Q2048.64 229.964 2050.93 230.589 Q2053.22 231.191 2055.46 231.191 Q2058.47 231.191 2060.09 230.173 Q2061.71 229.131 2061.71 227.256 Q2061.71 225.52 2060.53 224.594 Q2059.38 223.668 2055.42 222.812 L2053.94 222.464 Q2049.98 221.631 2048.22 219.918 Q2046.46 218.182 2046.46 215.173 Q2046.46 211.515 2049.05 209.525 Q2051.64 207.534 2056.41 207.534 Q2058.77 207.534 2060.86 207.881 Q2062.94 208.228 2064.7 208.923 Z" fill="#000000" fill-rule="evenodd" fill-opacity="1" /><path clip-path="url(#clip030)" d="M2089.4 208.923 L2089.4 212.95 Q2087.59 212.025 2085.65 211.562 Q2083.7 211.099 2081.62 211.099 Q2078.45 211.099 2076.85 212.071 Q2075.28 213.043 2075.28 214.987 Q2075.28 216.469 2076.41 217.325 Q2077.55 218.159 2080.97 218.923 L2082.43 219.247 Q2086.97 220.219 2088.87 222.001 Q2090.79 223.761 2090.79 226.932 Q2090.79 230.543 2087.92 232.649 Q2085.07 234.756 2080.07 234.756 Q2077.99 234.756 2075.72 234.339 Q2073.47 233.946 2070.97 233.136 L2070.97 228.737 Q2073.33 229.964 2075.63 230.589 Q2077.92 231.191 2080.16 231.191 Q2083.17 231.191 2084.79 230.173 Q2086.41 229.131 2086.41 227.256 Q2086.41 225.52 2085.23 224.594 Q2084.08 223.668 2080.12 222.812 L2078.64 222.464 Q2074.68 221.631 2072.92 219.918 Q2071.16 218.182 2071.16 215.173 Q2071.16 211.515 2073.75 209.525 Q2076.34 207.534 2081.11 207.534 Q2083.47 207.534 2085.56 207.881 Q2087.64 208.228 2089.4 208.923 Z" fill="#000000" fill-rule="evenodd" fill-opacity="1" /><path clip-path="url(#clip030)" d="M2097.57 208.159 L2101.83 208.159 L2101.83 234.085 L2097.57 234.085 L2097.57 208.159 M2097.57 198.066 L2101.83 198.066 L2101.83 203.46 L2097.57 203.46 L2097.57 198.066 Z" fill="#000000" fill-rule="evenodd" fill-opacity="1" /><path clip-path="url(#clip030)" d="M2122.52 221.052 Q2117.36 221.052 2115.37 222.233 Q2113.38 223.413 2113.38 226.261 Q2113.38 228.529 2114.86 229.872 Q2116.37 231.191 2118.94 231.191 Q2122.48 231.191 2124.61 228.691 Q2126.76 226.168 2126.76 222.001 L2126.76 221.052 L2122.52 221.052 M2131.02 219.293 L2131.02 234.085 L2126.76 234.085 L2126.76 230.149 Q2125.3 232.511 2123.13 233.645 Q2120.95 234.756 2117.8 234.756 Q2113.82 234.756 2111.46 232.534 Q2109.12 230.288 2109.12 226.538 Q2109.12 222.163 2112.04 219.941 Q2114.98 217.719 2120.79 217.719 L2126.76 217.719 L2126.76 217.302 Q2126.76 214.363 2124.82 212.765 Q2122.89 211.145 2119.4 211.145 Q2117.18 211.145 2115.07 211.677 Q2112.96 212.21 2111.02 213.275 L2111.02 209.339 Q2113.36 208.437 2115.56 207.997 Q2117.76 207.534 2119.84 207.534 Q2125.46 207.534 2128.24 210.45 Q2131.02 213.367 2131.02 219.293 Z" fill="#000000" fill-rule="evenodd" fill-opacity="1" /><path clip-path="url(#clip030)" d="M2161.34 218.437 L2161.34 234.085 L2157.08 234.085 L2157.08 218.575 Q2157.08 214.895 2155.65 213.066 Q2154.21 211.238 2151.34 211.238 Q2147.89 211.238 2145.9 213.437 Q2143.91 215.636 2143.91 219.432 L2143.91 234.085 L2139.63 234.085 L2139.63 208.159 L2143.91 208.159 L2143.91 212.187 Q2145.44 209.849 2147.5 208.691 Q2149.58 207.534 2152.29 207.534 Q2156.76 207.534 2159.05 210.312 Q2161.34 213.066 2161.34 218.437 Z" fill="#000000" fill-rule="evenodd" fill-opacity="1" /><path clip-path="url(#clip030)" d="M2198.03 198.066 L2198.03 201.608 L2193.96 201.608 Q2191.67 201.608 2190.76 202.534 Q2189.88 203.46 2189.88 205.867 L2189.88 208.159 L2196.9 208.159 L2196.9 211.469 L2189.88 211.469 L2189.88 234.085 L2185.6 234.085 L2185.6 211.469 L2181.53 211.469 L2181.53 208.159 L2185.6 208.159 L2185.6 206.353 Q2185.6 202.025 2187.62 200.057 Q2189.63 198.066 2194.01 198.066 L2198.03 198.066 Z" fill="#000000" fill-rule="evenodd" fill-opacity="1" /><path clip-path="url(#clip030)" d="M2201.6 208.159 L2205.86 208.159 L2205.86 234.085 L2201.6 234.085 L2201.6 208.159 M2201.6 198.066 L2205.86 198.066 L2205.86 203.46 L2201.6 203.46 L2201.6 198.066 Z" fill="#000000" fill-rule="evenodd" fill-opacity="1" /><path clip-path="url(#clip030)" d="M2218.98 200.798 L2218.98 208.159 L2227.76 208.159 L2227.76 211.469 L2218.98 211.469 L2218.98 225.543 Q2218.98 228.714 2219.84 229.617 Q2220.72 230.52 2223.38 230.52 L2227.76 230.52 L2227.76 234.085 L2223.38 234.085 Q2218.45 234.085 2216.57 232.256 Q2214.7 230.404 2214.7 225.543 L2214.7 211.469 L2211.57 211.469 L2211.57 208.159 L2214.7 208.159 L2214.7 200.798 L2218.98 200.798 Z" fill="#000000" fill-rule="evenodd" fill-opacity="1" /><polyline clip-path="url(#clip030)" style="stroke:#3da44d; stroke-linecap:butt; stroke-linejoin:round; stroke-width:4; stroke-opacity:1; fill:none" points="
  1782.13,277.285 1932.13,277.285 
  "/>
<path clip-path="url(#clip030)" d="M1961.41 290.676 L1961.41 304.426 L1957.13 304.426 L1957.13 268.639 L1961.41 268.639 L1961.41 272.574 Q1962.76 270.259 1964.79 269.148 Q1966.85 268.014 1969.7 268.014 Q1974.42 268.014 1977.36 271.764 Q1980.33 275.514 1980.33 281.625 Q1980.33 287.736 1977.36 291.486 Q1974.42 295.236 1969.7 295.236 Q1966.85 295.236 1964.79 294.125 Q1962.76 292.991 1961.41 290.676 M1975.9 281.625 Q1975.9 276.926 1973.96 274.264 Q1972.04 271.579 1968.66 271.579 Q1965.28 271.579 1963.34 274.264 Q1961.41 276.926 1961.41 281.625 Q1961.41 286.324 1963.34 289.009 Q1965.28 291.671 1968.66 291.671 Q1972.04 291.671 1973.96 289.009 Q1975.9 286.324 1975.9 281.625 Z" fill="#000000" fill-rule="evenodd" fill-opacity="1" /><path clip-path="url(#clip030)" d="M1997.43 271.625 Q1994.01 271.625 1992.02 274.31 Q1990.02 276.972 1990.02 281.625 Q1990.02 286.278 1991.99 288.963 Q1993.98 291.625 1997.43 291.625 Q2000.83 291.625 2002.83 288.94 Q2004.82 286.254 2004.82 281.625 Q2004.82 277.018 2002.83 274.333 Q2000.83 271.625 1997.43 271.625 M1997.43 268.014 Q2002.99 268.014 2006.16 271.625 Q2009.33 275.236 2009.33 281.625 Q2009.33 287.991 2006.16 291.625 Q2002.99 295.236 1997.43 295.236 Q1991.85 295.236 1988.68 291.625 Q1985.53 287.991 1985.53 281.625 Q1985.53 275.236 1988.68 271.625 Q1991.85 268.014 1997.43 268.014 Z" fill="#000000" fill-rule="evenodd" fill-opacity="1" /><path clip-path="url(#clip030)" d="M2016.39 268.639 L2020.65 268.639 L2020.65 294.565 L2016.39 294.565 L2016.39 268.639 M2016.39 258.546 L2020.65 258.546 L2020.65 263.94 L2016.39 263.94 L2016.39 258.546 Z" fill="#000000" fill-rule="evenodd" fill-opacity="1" /><path clip-path="url(#clip030)" d="M2046.09 269.403 L2046.09 273.43 Q2044.28 272.505 2042.34 272.042 Q2040.39 271.579 2038.31 271.579 Q2035.14 271.579 2033.54 272.551 Q2031.97 273.523 2031.97 275.467 Q2031.97 276.949 2033.1 277.805 Q2034.24 278.639 2037.66 279.403 L2039.12 279.727 Q2043.66 280.699 2045.56 282.481 Q2047.48 284.241 2047.48 287.412 Q2047.48 291.023 2044.61 293.129 Q2041.76 295.236 2036.76 295.236 Q2034.68 295.236 2032.41 294.819 Q2030.16 294.426 2027.66 293.616 L2027.66 289.217 Q2030.02 290.444 2032.32 291.069 Q2034.61 291.671 2036.85 291.671 Q2039.86 291.671 2041.48 290.653 Q2043.1 289.611 2043.1 287.736 Q2043.1 286 2041.92 285.074 Q2040.77 284.148 2036.81 283.292 L2035.33 282.944 Q2031.37 282.111 2029.61 280.398 Q2027.85 278.662 2027.85 275.653 Q2027.85 271.995 2030.44 270.005 Q2033.03 268.014 2037.8 268.014 Q2040.16 268.014 2042.25 268.361 Q2044.33 268.708 2046.09 269.403 Z" fill="#000000" fill-rule="evenodd" fill-opacity="1" /><path clip-path="url(#clip030)" d="M2070.79 269.403 L2070.79 273.43 Q2068.98 272.505 2067.04 272.042 Q2065.09 271.579 2063.01 271.579 Q2059.84 271.579 2058.24 272.551 Q2056.67 273.523 2056.67 275.467 Q2056.67 276.949 2057.8 277.805 Q2058.94 278.639 2062.36 279.403 L2063.82 279.727 Q2068.36 280.699 2070.26 282.481 Q2072.18 284.241 2072.18 287.412 Q2072.18 291.023 2069.31 293.129 Q2066.46 295.236 2061.46 295.236 Q2059.38 295.236 2057.11 294.819 Q2054.86 294.426 2052.36 293.616 L2052.36 289.217 Q2054.72 290.444 2057.02 291.069 Q2059.31 291.671 2061.55 291.671 Q2064.56 291.671 2066.18 290.653 Q2067.8 289.611 2067.8 287.736 Q2067.8 286 2066.62 285.074 Q2065.46 284.148 2061.51 283.292 L2060.02 282.944 Q2056.07 282.111 2054.31 280.398 Q2052.55 278.662 2052.55 275.653 Q2052.55 271.995 2055.14 270.005 Q2057.73 268.014 2062.5 268.014 Q2064.86 268.014 2066.95 268.361 Q2069.03 268.708 2070.79 269.403 Z" fill="#000000" fill-rule="evenodd" fill-opacity="1" /><path clip-path="url(#clip030)" d="M2089.01 271.625 Q2085.58 271.625 2083.59 274.31 Q2081.6 276.972 2081.6 281.625 Q2081.6 286.278 2083.57 288.963 Q2085.56 291.625 2089.01 291.625 Q2092.41 291.625 2094.4 288.94 Q2096.39 286.254 2096.39 281.625 Q2096.39 277.018 2094.4 274.333 Q2092.41 271.625 2089.01 271.625 M2089.01 268.014 Q2094.56 268.014 2097.73 271.625 Q2100.9 275.236 2100.9 281.625 Q2100.9 287.991 2097.73 291.625 Q2094.56 295.236 2089.01 295.236 Q2083.43 295.236 2080.26 291.625 Q2077.11 287.991 2077.11 281.625 Q2077.11 275.236 2080.26 271.625 Q2083.43 268.014 2089.01 268.014 Z" fill="#000000" fill-rule="evenodd" fill-opacity="1" /><path clip-path="url(#clip030)" d="M2129.51 278.917 L2129.51 294.565 L2125.26 294.565 L2125.26 279.055 Q2125.26 275.375 2123.82 273.546 Q2122.39 271.718 2119.51 271.718 Q2116.07 271.718 2114.08 273.917 Q2112.08 276.116 2112.08 279.912 L2112.08 294.565 L2107.8 294.565 L2107.8 268.639 L2112.08 268.639 L2112.08 272.667 Q2113.61 270.329 2115.67 269.171 Q2117.76 268.014 2120.46 268.014 Q2124.93 268.014 2127.22 270.792 Q2129.51 273.546 2129.51 278.917 Z" fill="#000000" fill-rule="evenodd" fill-opacity="1" /><path clip-path="url(#clip030)" d="M2166.2 258.546 L2166.2 262.088 L2162.13 262.088 Q2159.84 262.088 2158.94 263.014 Q2158.06 263.94 2158.06 266.347 L2158.06 268.639 L2165.07 268.639 L2165.07 271.949 L2158.06 271.949 L2158.06 294.565 L2153.77 294.565 L2153.77 271.949 L2149.7 271.949 L2149.7 268.639 L2153.77 268.639 L2153.77 266.833 Q2153.77 262.505 2155.79 260.537 Q2157.8 258.546 2162.18 258.546 L2166.2 258.546 Z" fill="#000000" fill-rule="evenodd" fill-opacity="1" /><path clip-path="url(#clip030)" d="M2169.77 268.639 L2174.03 268.639 L2174.03 294.565 L2169.77 294.565 L2169.77 268.639 M2169.77 258.546 L2174.03 258.546 L2174.03 263.94 L2169.77 263.94 L2169.77 258.546 Z" fill="#000000" fill-rule="evenodd" fill-opacity="1" /><path clip-path="url(#clip030)" d="M2187.15 261.278 L2187.15 268.639 L2195.93 268.639 L2195.93 271.949 L2187.15 271.949 L2187.15 286.023 Q2187.15 289.194 2188.01 290.097 Q2188.89 291 2191.55 291 L2195.93 291 L2195.93 294.565 L2191.55 294.565 Q2186.62 294.565 2184.75 292.736 Q2182.87 290.884 2182.87 286.023 L2182.87 271.949 L2179.75 271.949 L2179.75 268.639 L2182.87 268.639 L2182.87 261.278 L2187.15 261.278 Z" fill="#000000" fill-rule="evenodd" fill-opacity="1" /></svg>
