<?xml version="1.0" encoding="utf-8"?>
<svg xmlns="http://www.w3.org/2000/svg" xmlns:xlink="http://www.w3.org/1999/xlink" width="600" height="400" viewBox="0 0 2400 1600">
<defs>
  <clipPath id="clip310">
    <rect x="0" y="0" width="2400" height="1600"/>
  </clipPath>
</defs>
<path clip-path="url(#clip310)" d="
M0 1600 L2400 1600 L2400 0 L0 0  Z
  " fill="#ffffff" fill-rule="evenodd" fill-opacity="1"/>
<defs>
  <clipPath id="clip311">
    <rect x="480" y="0" width="1681" height="1600"/>
  </clipPath>
</defs>
<path clip-path="url(#clip310)" d="
M249.542 1423.18 L2352.76 1423.18 L2352.76 47.2441 L249.542 47.2441  Z
  " fill="#ffffff" fill-rule="evenodd" fill-opacity="1"/>
<defs>
  <clipPath id="clip312">
    <rect x="249" y="47" width="2104" height="1377"/>
  </clipPath>
</defs>
<polyline clip-path="url(#clip312)" style="stroke:#000000; stroke-linecap:butt; stroke-linejoin:round; stroke-width:2; stroke-opacity:0.1; fill:none" points="
  365.223,1423.18 365.223,47.2441 
  "/>
<polyline clip-path="url(#clip312)" style="stroke:#000000; stroke-linecap:butt; stroke-linejoin:round; stroke-width:2; stroke-opacity:0.1; fill:none" points="
  653.2,1423.18 653.2,47.2441 
  "/>
<polyline clip-path="url(#clip312)" style="stroke:#000000; stroke-linecap:butt; stroke-linejoin:round; stroke-width:2; stroke-opacity:0.1; fill:none" points="
  941.177,1423.18 941.177,47.2441 
  "/>
<polyline clip-path="url(#clip312)" style="stroke:#000000; stroke-linecap:butt; stroke-linejoin:round; stroke-width:2; stroke-opacity:0.1; fill:none" points="
  1229.15,1423.18 1229.15,47.2441 
  "/>
<polyline clip-path="url(#clip312)" style="stroke:#000000; stroke-linecap:butt; stroke-linejoin:round; stroke-width:2; stroke-opacity:0.1; fill:none" points="
  1517.13,1423.18 1517.13,47.2441 
  "/>
<polyline clip-path="url(#clip312)" style="stroke:#000000; stroke-linecap:butt; stroke-linejoin:round; stroke-width:2; stroke-opacity:0.1; fill:none" points="
  1805.11,1423.18 1805.11,47.2441 
  "/>
<polyline clip-path="url(#clip312)" style="stroke:#000000; stroke-linecap:butt; stroke-linejoin:round; stroke-width:2; stroke-opacity:0.1; fill:none" points="
  2093.09,1423.18 2093.09,47.2441 
  "/>
<polyline clip-path="url(#clip310)" style="stroke:#000000; stroke-linecap:butt; stroke-linejoin:round; stroke-width:4; stroke-opacity:1; fill:none" points="
  249.542,1423.18 2352.76,1423.18 
  "/>
<polyline clip-path="url(#clip310)" style="stroke:#000000; stroke-linecap:butt; stroke-linejoin:round; stroke-width:4; stroke-opacity:1; fill:none" points="
  365.223,1423.18 365.223,1406.67 
  "/>
<polyline clip-path="url(#clip310)" style="stroke:#000000; stroke-linecap:butt; stroke-linejoin:round; stroke-width:4; stroke-opacity:1; fill:none" points="
  653.2,1423.18 653.2,1406.67 
  "/>
<polyline clip-path="url(#clip310)" style="stroke:#000000; stroke-linecap:butt; stroke-linejoin:round; stroke-width:4; stroke-opacity:1; fill:none" points="
  941.177,1423.18 941.177,1406.67 
  "/>
<polyline clip-path="url(#clip310)" style="stroke:#000000; stroke-linecap:butt; stroke-linejoin:round; stroke-width:4; stroke-opacity:1; fill:none" points="
  1229.15,1423.18 1229.15,1406.67 
  "/>
<polyline clip-path="url(#clip310)" style="stroke:#000000; stroke-linecap:butt; stroke-linejoin:round; stroke-width:4; stroke-opacity:1; fill:none" points="
  1517.13,1423.18 1517.13,1406.67 
  "/>
<polyline clip-path="url(#clip310)" style="stroke:#000000; stroke-linecap:butt; stroke-linejoin:round; stroke-width:4; stroke-opacity:1; fill:none" points="
  1805.11,1423.18 1805.11,1406.67 
  "/>
<polyline clip-path="url(#clip310)" style="stroke:#000000; stroke-linecap:butt; stroke-linejoin:round; stroke-width:4; stroke-opacity:1; fill:none" points="
  2093.09,1423.18 2093.09,1406.67 
  "/>
<path clip-path="url(#clip310)" d="M365.223 1452.37 Q361.611 1452.37 359.783 1455.94 Q357.977 1459.48 357.977 1466.61 Q357.977 1473.71 359.783 1477.28 Q361.611 1480.82 365.223 1480.82 Q368.857 1480.82 370.662 1477.28 Q372.491 1473.71 372.491 1466.61 Q372.491 1459.48 370.662 1455.94 Q368.857 1452.37 365.223 1452.37 M365.223 1448.67 Q371.033 1448.67 374.088 1453.27 Q377.167 1457.86 377.167 1466.61 Q377.167 1475.33 374.088 1479.94 Q371.033 1484.52 365.223 1484.52 Q359.412 1484.52 356.334 1479.94 Q353.278 1475.33 353.278 1466.61 Q353.278 1457.86 356.334 1453.27 Q359.412 1448.67 365.223 1448.67 Z" fill="#000000" fill-rule="evenodd" fill-opacity="1" /><path clip-path="url(#clip310)" d="M647.853 1479.92 L664.172 1479.92 L664.172 1483.85 L642.228 1483.85 L642.228 1479.92 Q644.89 1477.16 649.473 1472.53 Q654.08 1467.88 655.26 1466.54 Q657.505 1464.01 658.385 1462.28 Q659.288 1460.52 659.288 1458.83 Q659.288 1456.07 657.343 1454.34 Q655.422 1452.6 652.32 1452.6 Q650.121 1452.6 647.668 1453.37 Q645.237 1454.13 642.459 1455.68 L642.459 1450.96 Q645.283 1449.82 647.737 1449.25 Q650.191 1448.67 652.228 1448.67 Q657.598 1448.67 660.792 1451.35 Q663.987 1454.04 663.987 1458.53 Q663.987 1460.66 663.177 1462.58 Q662.39 1464.48 660.283 1467.07 Q659.704 1467.74 656.603 1470.96 Q653.501 1474.15 647.853 1479.92 Z" fill="#000000" fill-rule="evenodd" fill-opacity="1" /><path clip-path="url(#clip310)" d="M944.187 1453.37 L932.381 1471.81 L944.187 1471.81 L944.187 1453.37 M942.96 1449.29 L948.839 1449.29 L948.839 1471.81 L953.77 1471.81 L953.77 1475.7 L948.839 1475.7 L948.839 1483.85 L944.187 1483.85 L944.187 1475.7 L928.585 1475.7 L928.585 1471.19 L942.96 1449.29 Z" fill="#000000" fill-rule="evenodd" fill-opacity="1" /><path clip-path="url(#clip310)" d="M1229.56 1464.71 Q1226.41 1464.71 1224.56 1466.86 Q1222.73 1469.01 1222.73 1472.76 Q1222.73 1476.49 1224.56 1478.67 Q1226.41 1480.82 1229.56 1480.82 Q1232.71 1480.82 1234.54 1478.67 Q1236.39 1476.49 1236.39 1472.76 Q1236.39 1469.01 1234.54 1466.86 Q1232.71 1464.71 1229.56 1464.71 M1238.84 1450.06 L1238.84 1454.31 Q1237.08 1453.48 1235.28 1453.04 Q1233.49 1452.6 1231.74 1452.6 Q1227.11 1452.6 1224.65 1455.73 Q1222.22 1458.85 1221.87 1465.17 Q1223.24 1463.16 1225.3 1462.09 Q1227.36 1461 1229.84 1461 Q1235.05 1461 1238.06 1464.18 Q1241.09 1467.32 1241.09 1472.76 Q1241.09 1478.09 1237.94 1481.31 Q1234.79 1484.52 1229.56 1484.52 Q1223.56 1484.52 1220.39 1479.94 Q1217.22 1475.33 1217.22 1466.61 Q1217.22 1458.41 1221.11 1453.55 Q1225 1448.67 1231.55 1448.67 Q1233.31 1448.67 1235.09 1449.01 Q1236.9 1449.36 1238.84 1450.06 Z" fill="#000000" fill-rule="evenodd" fill-opacity="1" /><path clip-path="url(#clip310)" d="M1517.13 1467.44 Q1513.8 1467.44 1511.88 1469.22 Q1509.98 1471 1509.98 1474.13 Q1509.98 1477.25 1511.88 1479.04 Q1513.8 1480.82 1517.13 1480.82 Q1520.47 1480.82 1522.39 1479.04 Q1524.31 1477.23 1524.31 1474.13 Q1524.31 1471 1522.39 1469.22 Q1520.49 1467.44 1517.13 1467.44 M1512.46 1465.45 Q1509.45 1464.71 1507.76 1462.65 Q1506.09 1460.59 1506.09 1457.63 Q1506.09 1453.48 1509.03 1451.07 Q1511.99 1448.67 1517.13 1448.67 Q1522.29 1448.67 1525.23 1451.07 Q1528.17 1453.48 1528.17 1457.63 Q1528.17 1460.59 1526.48 1462.65 Q1524.82 1464.71 1521.83 1465.45 Q1525.21 1466.24 1527.09 1468.53 Q1528.98 1470.82 1528.98 1474.13 Q1528.98 1479.15 1525.91 1481.84 Q1522.85 1484.52 1517.13 1484.52 Q1511.41 1484.52 1508.34 1481.84 Q1505.28 1479.15 1505.28 1474.13 Q1505.28 1470.82 1507.18 1468.53 Q1509.08 1466.24 1512.46 1465.45 M1510.74 1458.06 Q1510.74 1460.75 1512.41 1462.25 Q1514.1 1463.76 1517.13 1463.76 Q1520.14 1463.76 1521.83 1462.25 Q1523.54 1460.75 1523.54 1458.06 Q1523.54 1455.38 1521.83 1453.88 Q1520.14 1452.37 1517.13 1452.37 Q1514.1 1452.37 1512.41 1453.88 Q1510.74 1455.38 1510.74 1458.06 Z" fill="#000000" fill-rule="evenodd" fill-opacity="1" /><path clip-path="url(#clip310)" d="M1779.8 1479.92 L1787.44 1479.92 L1787.44 1453.55 L1779.13 1455.22 L1779.13 1450.96 L1787.39 1449.29 L1792.07 1449.29 L1792.07 1479.92 L1799.7 1479.92 L1799.7 1483.85 L1779.8 1483.85 L1779.8 1479.92 Z" fill="#000000" fill-rule="evenodd" fill-opacity="1" /><path clip-path="url(#clip310)" d="M1819.15 1452.37 Q1815.54 1452.37 1813.71 1455.94 Q1811.9 1459.48 1811.9 1466.61 Q1811.9 1473.71 1813.71 1477.28 Q1815.54 1480.82 1819.15 1480.82 Q1822.78 1480.82 1824.59 1477.28 Q1826.42 1473.71 1826.42 1466.61 Q1826.42 1459.48 1824.59 1455.94 Q1822.78 1452.37 1819.15 1452.37 M1819.15 1448.67 Q1824.96 1448.67 1828.01 1453.27 Q1831.09 1457.86 1831.09 1466.61 Q1831.09 1475.33 1828.01 1479.94 Q1824.96 1484.52 1819.15 1484.52 Q1813.34 1484.52 1810.26 1479.94 Q1807.2 1475.33 1807.2 1466.61 Q1807.2 1457.86 1810.26 1453.27 Q1813.34 1448.67 1819.15 1448.67 Z" fill="#000000" fill-rule="evenodd" fill-opacity="1" /><path clip-path="url(#clip310)" d="M2068.57 1479.92 L2076.21 1479.92 L2076.21 1453.55 L2067.9 1455.22 L2067.9 1450.96 L2076.17 1449.29 L2080.84 1449.29 L2080.84 1479.92 L2088.48 1479.92 L2088.48 1483.85 L2068.57 1483.85 L2068.57 1479.92 Z" fill="#000000" fill-rule="evenodd" fill-opacity="1" /><path clip-path="url(#clip310)" d="M2101.95 1479.92 L2118.27 1479.92 L2118.27 1483.85 L2096.33 1483.85 L2096.33 1479.92 Q2098.99 1477.16 2103.57 1472.53 Q2108.18 1467.88 2109.36 1466.54 Q2111.61 1464.01 2112.48 1462.28 Q2113.39 1460.52 2113.39 1458.83 Q2113.39 1456.07 2111.44 1454.34 Q2109.52 1452.6 2106.42 1452.6 Q2104.22 1452.6 2101.77 1453.37 Q2099.34 1454.13 2096.56 1455.68 L2096.56 1450.96 Q2099.38 1449.82 2101.84 1449.25 Q2104.29 1448.67 2106.33 1448.67 Q2111.7 1448.67 2114.89 1451.35 Q2118.09 1454.04 2118.09 1458.53 Q2118.09 1460.66 2117.28 1462.58 Q2116.49 1464.48 2114.38 1467.07 Q2113.8 1467.74 2110.7 1470.96 Q2107.6 1474.15 2101.95 1479.92 Z" fill="#000000" fill-rule="evenodd" fill-opacity="1" /><path clip-path="url(#clip310)" d="M1303.11 1539.24 Q1305.3 1535.29 1308.36 1533.41 Q1311.41 1531.54 1315.55 1531.54 Q1321.12 1531.54 1324.15 1535.45 Q1327.17 1539.33 1327.17 1546.53 L1327.17 1568.04 L1321.28 1568.04 L1321.28 1546.72 Q1321.28 1541.59 1319.47 1539.11 Q1317.65 1536.63 1313.93 1536.63 Q1309.38 1536.63 1306.73 1539.65 Q1304.09 1542.68 1304.09 1547.9 L1304.09 1568.04 L1298.2 1568.04 L1298.2 1546.72 Q1298.2 1541.56 1296.39 1539.11 Q1294.58 1536.63 1290.79 1536.63 Q1286.3 1536.63 1283.66 1539.68 Q1281.02 1542.71 1281.02 1547.9 L1281.02 1568.04 L1275.13 1568.04 L1275.13 1532.4 L1281.02 1532.4 L1281.02 1537.93 Q1283.02 1534.66 1285.82 1533.1 Q1288.62 1531.54 1292.48 1531.54 Q1296.36 1531.54 1299.06 1533.51 Q1301.8 1535.48 1303.11 1539.24 Z" fill="#000000" fill-rule="evenodd" fill-opacity="1" /><polyline clip-path="url(#clip312)" style="stroke:#000000; stroke-linecap:butt; stroke-linejoin:round; stroke-width:2; stroke-opacity:0.1; fill:none" points="
  249.542,1384.24 2352.76,1384.24 
  "/>
<polyline clip-path="url(#clip312)" style="stroke:#000000; stroke-linecap:butt; stroke-linejoin:round; stroke-width:2; stroke-opacity:0.1; fill:none" points="
  249.542,1131.22 2352.76,1131.22 
  "/>
<polyline clip-path="url(#clip312)" style="stroke:#000000; stroke-linecap:butt; stroke-linejoin:round; stroke-width:2; stroke-opacity:0.1; fill:none" points="
  249.542,878.206 2352.76,878.206 
  "/>
<polyline clip-path="url(#clip312)" style="stroke:#000000; stroke-linecap:butt; stroke-linejoin:round; stroke-width:2; stroke-opacity:0.1; fill:none" points="
  249.542,625.189 2352.76,625.189 
  "/>
<polyline clip-path="url(#clip312)" style="stroke:#000000; stroke-linecap:butt; stroke-linejoin:round; stroke-width:2; stroke-opacity:0.1; fill:none" points="
  249.542,372.173 2352.76,372.173 
  "/>
<polyline clip-path="url(#clip312)" style="stroke:#000000; stroke-linecap:butt; stroke-linejoin:round; stroke-width:2; stroke-opacity:0.1; fill:none" points="
  249.542,119.157 2352.76,119.157 
  "/>
<polyline clip-path="url(#clip310)" style="stroke:#000000; stroke-linecap:butt; stroke-linejoin:round; stroke-width:4; stroke-opacity:1; fill:none" points="
  249.542,1423.18 249.542,47.2441 
  "/>
<polyline clip-path="url(#clip310)" style="stroke:#000000; stroke-linecap:butt; stroke-linejoin:round; stroke-width:4; stroke-opacity:1; fill:none" points="
  249.542,1384.24 274.781,1384.24 
  "/>
<polyline clip-path="url(#clip310)" style="stroke:#000000; stroke-linecap:butt; stroke-linejoin:round; stroke-width:4; stroke-opacity:1; fill:none" points="
  249.542,1131.22 274.781,1131.22 
  "/>
<polyline clip-path="url(#clip310)" style="stroke:#000000; stroke-linecap:butt; stroke-linejoin:round; stroke-width:4; stroke-opacity:1; fill:none" points="
  249.542,878.206 274.781,878.206 
  "/>
<polyline clip-path="url(#clip310)" style="stroke:#000000; stroke-linecap:butt; stroke-linejoin:round; stroke-width:4; stroke-opacity:1; fill:none" points="
  249.542,625.189 274.781,625.189 
  "/>
<polyline clip-path="url(#clip310)" style="stroke:#000000; stroke-linecap:butt; stroke-linejoin:round; stroke-width:4; stroke-opacity:1; fill:none" points="
  249.542,372.173 274.781,372.173 
  "/>
<polyline clip-path="url(#clip310)" style="stroke:#000000; stroke-linecap:butt; stroke-linejoin:round; stroke-width:4; stroke-opacity:1; fill:none" points="
  249.542,119.157 274.781,119.157 
  "/>
<path clip-path="url(#clip310)" d="M126.205 1370.04 Q122.593 1370.04 120.765 1373.6 Q118.959 1377.14 118.959 1384.27 Q118.959 1391.38 120.765 1394.94 Q122.593 1398.49 126.205 1398.49 Q129.839 1398.49 131.644 1394.94 Q133.473 1391.38 133.473 1384.27 Q133.473 1377.14 131.644 1373.6 Q129.839 1370.04 126.205 1370.04 M126.205 1366.33 Q132.015 1366.33 135.07 1370.94 Q138.149 1375.52 138.149 1384.27 Q138.149 1393 135.07 1397.61 Q132.015 1402.19 126.205 1402.19 Q120.394 1402.19 117.316 1397.61 Q114.26 1393 114.26 1384.27 Q114.26 1375.52 117.316 1370.94 Q120.394 1366.33 126.205 1366.33 Z" fill="#000000" fill-rule="evenodd" fill-opacity="1" /><path clip-path="url(#clip310)" d="M146.366 1395.64 L151.251 1395.64 L151.251 1401.52 L146.366 1401.52 L146.366 1395.64 Z" fill="#000000" fill-rule="evenodd" fill-opacity="1" /><path clip-path="url(#clip310)" d="M171.436 1370.04 Q167.825 1370.04 165.996 1373.6 Q164.19 1377.14 164.19 1384.27 Q164.19 1391.38 165.996 1394.94 Q167.825 1398.49 171.436 1398.49 Q175.07 1398.49 176.876 1394.94 Q178.704 1391.38 178.704 1384.27 Q178.704 1377.14 176.876 1373.6 Q175.07 1370.04 171.436 1370.04 M171.436 1366.33 Q177.246 1366.33 180.301 1370.94 Q183.38 1375.52 183.38 1384.27 Q183.38 1393 180.301 1397.61 Q177.246 1402.19 171.436 1402.19 Q165.626 1402.19 162.547 1397.61 Q159.491 1393 159.491 1384.27 Q159.491 1375.52 162.547 1370.94 Q165.626 1366.33 171.436 1366.33 Z" fill="#000000" fill-rule="evenodd" fill-opacity="1" /><path clip-path="url(#clip310)" d="M201.598 1370.04 Q197.987 1370.04 196.158 1373.6 Q194.352 1377.14 194.352 1384.27 Q194.352 1391.38 196.158 1394.94 Q197.987 1398.49 201.598 1398.49 Q205.232 1398.49 207.037 1394.94 Q208.866 1391.38 208.866 1384.27 Q208.866 1377.14 207.037 1373.6 Q205.232 1370.04 201.598 1370.04 M201.598 1366.33 Q207.408 1366.33 210.463 1370.94 Q213.542 1375.52 213.542 1384.27 Q213.542 1393 210.463 1397.61 Q207.408 1402.19 201.598 1402.19 Q195.787 1402.19 192.709 1397.61 Q189.653 1393 189.653 1384.27 Q189.653 1375.52 192.709 1370.94 Q195.787 1366.33 201.598 1366.33 Z" fill="#000000" fill-rule="evenodd" fill-opacity="1" /><path clip-path="url(#clip310)" d="M127.2 1117.02 Q123.589 1117.02 121.76 1120.59 Q119.955 1124.13 119.955 1131.26 Q119.955 1138.36 121.76 1141.93 Q123.589 1145.47 127.2 1145.47 Q130.834 1145.47 132.64 1141.93 Q134.468 1138.36 134.468 1131.26 Q134.468 1124.13 132.64 1120.59 Q130.834 1117.02 127.2 1117.02 M127.2 1113.32 Q133.01 1113.32 136.066 1117.92 Q139.144 1122.51 139.144 1131.26 Q139.144 1139.98 136.066 1144.59 Q133.01 1149.17 127.2 1149.17 Q121.39 1149.17 118.311 1144.59 Q115.256 1139.98 115.256 1131.26 Q115.256 1122.51 118.311 1117.92 Q121.39 1113.32 127.2 1113.32 Z" fill="#000000" fill-rule="evenodd" fill-opacity="1" /><path clip-path="url(#clip310)" d="M147.362 1142.62 L152.246 1142.62 L152.246 1148.5 L147.362 1148.5 L147.362 1142.62 Z" fill="#000000" fill-rule="evenodd" fill-opacity="1" /><path clip-path="url(#clip310)" d="M172.431 1117.02 Q168.82 1117.02 166.991 1120.59 Q165.186 1124.13 165.186 1131.26 Q165.186 1138.36 166.991 1141.93 Q168.82 1145.47 172.431 1145.47 Q176.065 1145.47 177.871 1141.93 Q179.7 1138.36 179.7 1131.26 Q179.7 1124.13 177.871 1120.59 Q176.065 1117.02 172.431 1117.02 M172.431 1113.32 Q178.241 1113.32 181.297 1117.92 Q184.376 1122.51 184.376 1131.26 Q184.376 1139.98 181.297 1144.59 Q178.241 1149.17 172.431 1149.17 Q166.621 1149.17 163.542 1144.59 Q160.487 1139.98 160.487 1131.26 Q160.487 1122.51 163.542 1117.92 Q166.621 1113.32 172.431 1113.32 Z" fill="#000000" fill-rule="evenodd" fill-opacity="1" /><path clip-path="url(#clip310)" d="M192.639 1113.94 L210.996 1113.94 L210.996 1117.88 L196.922 1117.88 L196.922 1126.35 Q197.94 1126 198.959 1125.84 Q199.977 1125.65 200.996 1125.65 Q206.783 1125.65 210.162 1128.83 Q213.542 1132 213.542 1137.41 Q213.542 1142.99 210.07 1146.09 Q206.598 1149.17 200.278 1149.17 Q198.102 1149.17 195.834 1148.8 Q193.588 1148.43 191.181 1147.69 L191.181 1142.99 Q193.264 1144.13 195.487 1144.68 Q197.709 1145.24 200.186 1145.24 Q204.19 1145.24 206.528 1143.13 Q208.866 1141.03 208.866 1137.41 Q208.866 1133.8 206.528 1131.7 Q204.19 1129.59 200.186 1129.59 Q198.311 1129.59 196.436 1130.01 Q194.584 1130.42 192.639 1131.3 L192.639 1113.94 Z" fill="#000000" fill-rule="evenodd" fill-opacity="1" /><path clip-path="url(#clip310)" d="M126.205 864.004 Q122.593 864.004 120.765 867.569 Q118.959 871.111 118.959 878.24 Q118.959 885.347 120.765 888.912 Q122.593 892.453 126.205 892.453 Q129.839 892.453 131.644 888.912 Q133.473 885.347 133.473 878.24 Q133.473 871.111 131.644 867.569 Q129.839 864.004 126.205 864.004 M126.205 860.301 Q132.015 860.301 135.07 864.907 Q138.149 869.49 138.149 878.24 Q138.149 886.967 135.07 891.574 Q132.015 896.157 126.205 896.157 Q120.394 896.157 117.316 891.574 Q114.26 886.967 114.26 878.24 Q114.26 869.49 117.316 864.907 Q120.394 860.301 126.205 860.301 Z" fill="#000000" fill-rule="evenodd" fill-opacity="1" /><path clip-path="url(#clip310)" d="M146.366 889.606 L151.251 889.606 L151.251 895.486 L146.366 895.486 L146.366 889.606 Z" fill="#000000" fill-rule="evenodd" fill-opacity="1" /><path clip-path="url(#clip310)" d="M162.246 891.551 L169.885 891.551 L169.885 865.185 L161.575 866.852 L161.575 862.592 L169.839 860.926 L174.514 860.926 L174.514 891.551 L182.153 891.551 L182.153 895.486 L162.246 895.486 L162.246 891.551 Z" fill="#000000" fill-rule="evenodd" fill-opacity="1" /><path clip-path="url(#clip310)" d="M201.598 864.004 Q197.987 864.004 196.158 867.569 Q194.352 871.111 194.352 878.24 Q194.352 885.347 196.158 888.912 Q197.987 892.453 201.598 892.453 Q205.232 892.453 207.037 888.912 Q208.866 885.347 208.866 878.24 Q208.866 871.111 207.037 867.569 Q205.232 864.004 201.598 864.004 M201.598 860.301 Q207.408 860.301 210.463 864.907 Q213.542 869.49 213.542 878.24 Q213.542 886.967 210.463 891.574 Q207.408 896.157 201.598 896.157 Q195.787 896.157 192.709 891.574 Q189.653 886.967 189.653 878.24 Q189.653 869.49 192.709 864.907 Q195.787 860.301 201.598 860.301 Z" fill="#000000" fill-rule="evenodd" fill-opacity="1" /><path clip-path="url(#clip310)" d="M127.2 610.988 Q123.589 610.988 121.76 614.553 Q119.955 618.095 119.955 625.224 Q119.955 632.331 121.76 635.895 Q123.589 639.437 127.2 639.437 Q130.834 639.437 132.64 635.895 Q134.468 632.331 134.468 625.224 Q134.468 618.095 132.64 614.553 Q130.834 610.988 127.2 610.988 M127.2 607.284 Q133.01 607.284 136.066 611.891 Q139.144 616.474 139.144 625.224 Q139.144 633.951 136.066 638.557 Q133.01 643.141 127.2 643.141 Q121.39 643.141 118.311 638.557 Q115.256 633.951 115.256 625.224 Q115.256 616.474 118.311 611.891 Q121.39 607.284 127.2 607.284 Z" fill="#000000" fill-rule="evenodd" fill-opacity="1" /><path clip-path="url(#clip310)" d="M147.362 636.59 L152.246 636.59 L152.246 642.469 L147.362 642.469 L147.362 636.59 Z" fill="#000000" fill-rule="evenodd" fill-opacity="1" /><path clip-path="url(#clip310)" d="M163.241 638.534 L170.88 638.534 L170.88 612.169 L162.57 613.835 L162.57 609.576 L170.834 607.909 L175.51 607.909 L175.51 638.534 L183.149 638.534 L183.149 642.469 L163.241 642.469 L163.241 638.534 Z" fill="#000000" fill-rule="evenodd" fill-opacity="1" /><path clip-path="url(#clip310)" d="M192.639 607.909 L210.996 607.909 L210.996 611.845 L196.922 611.845 L196.922 620.317 Q197.94 619.97 198.959 619.807 Q199.977 619.622 200.996 619.622 Q206.783 619.622 210.162 622.794 Q213.542 625.965 213.542 631.382 Q213.542 636.96 210.07 640.062 Q206.598 643.141 200.278 643.141 Q198.102 643.141 195.834 642.77 Q193.588 642.4 191.181 641.659 L191.181 636.96 Q193.264 638.094 195.487 638.65 Q197.709 639.206 200.186 639.206 Q204.19 639.206 206.528 637.099 Q208.866 634.993 208.866 631.382 Q208.866 627.77 206.528 625.664 Q204.19 623.557 200.186 623.557 Q198.311 623.557 196.436 623.974 Q194.584 624.391 192.639 625.27 L192.639 607.909 Z" fill="#000000" fill-rule="evenodd" fill-opacity="1" /><path clip-path="url(#clip310)" d="M126.205 357.972 Q122.593 357.972 120.765 361.537 Q118.959 365.078 118.959 372.208 Q118.959 379.314 120.765 382.879 Q122.593 386.421 126.205 386.421 Q129.839 386.421 131.644 382.879 Q133.473 379.314 133.473 372.208 Q133.473 365.078 131.644 361.537 Q129.839 357.972 126.205 357.972 M126.205 354.268 Q132.015 354.268 135.07 358.875 Q138.149 363.458 138.149 372.208 Q138.149 380.935 135.07 385.541 Q132.015 390.124 126.205 390.124 Q120.394 390.124 117.316 385.541 Q114.26 380.935 114.26 372.208 Q114.26 363.458 117.316 358.875 Q120.394 354.268 126.205 354.268 Z" fill="#000000" fill-rule="evenodd" fill-opacity="1" /><path clip-path="url(#clip310)" d="M146.366 383.574 L151.251 383.574 L151.251 389.453 L146.366 389.453 L146.366 383.574 Z" fill="#000000" fill-rule="evenodd" fill-opacity="1" /><path clip-path="url(#clip310)" d="M165.464 385.518 L181.783 385.518 L181.783 389.453 L159.839 389.453 L159.839 385.518 Q162.501 382.763 167.084 378.134 Q171.69 373.481 172.871 372.138 Q175.116 369.615 175.996 367.879 Q176.899 366.12 176.899 364.43 Q176.899 361.675 174.954 359.939 Q173.033 358.203 169.931 358.203 Q167.732 358.203 165.278 358.967 Q162.848 359.731 160.07 361.282 L160.07 356.56 Q162.894 355.426 165.348 354.847 Q167.802 354.268 169.839 354.268 Q175.209 354.268 178.403 356.953 Q181.598 359.638 181.598 364.129 Q181.598 366.259 180.788 368.18 Q180.001 370.078 177.894 372.671 Q177.315 373.342 174.214 376.56 Q171.112 379.754 165.464 385.518 Z" fill="#000000" fill-rule="evenodd" fill-opacity="1" /><path clip-path="url(#clip310)" d="M201.598 357.972 Q197.987 357.972 196.158 361.537 Q194.352 365.078 194.352 372.208 Q194.352 379.314 196.158 382.879 Q197.987 386.421 201.598 386.421 Q205.232 386.421 207.037 382.879 Q208.866 379.314 208.866 372.208 Q208.866 365.078 207.037 361.537 Q205.232 357.972 201.598 357.972 M201.598 354.268 Q207.408 354.268 210.463 358.875 Q213.542 363.458 213.542 372.208 Q213.542 380.935 210.463 385.541 Q207.408 390.124 201.598 390.124 Q195.787 390.124 192.709 385.541 Q189.653 380.935 189.653 372.208 Q189.653 363.458 192.709 358.875 Q195.787 354.268 201.598 354.268 Z" fill="#000000" fill-rule="evenodd" fill-opacity="1" /><path clip-path="url(#clip310)" d="M127.2 104.956 Q123.589 104.956 121.76 108.52 Q119.955 112.062 119.955 119.192 Q119.955 126.298 121.76 129.863 Q123.589 133.404 127.2 133.404 Q130.834 133.404 132.64 129.863 Q134.468 126.298 134.468 119.192 Q134.468 112.062 132.64 108.52 Q130.834 104.956 127.2 104.956 M127.2 101.252 Q133.01 101.252 136.066 105.858 Q139.144 110.442 139.144 119.192 Q139.144 127.918 136.066 132.525 Q133.01 137.108 127.2 137.108 Q121.39 137.108 118.311 132.525 Q115.256 127.918 115.256 119.192 Q115.256 110.442 118.311 105.858 Q121.39 101.252 127.2 101.252 Z" fill="#000000" fill-rule="evenodd" fill-opacity="1" /><path clip-path="url(#clip310)" d="M147.362 130.557 L152.246 130.557 L152.246 136.437 L147.362 136.437 L147.362 130.557 Z" fill="#000000" fill-rule="evenodd" fill-opacity="1" /><path clip-path="url(#clip310)" d="M166.459 132.502 L182.778 132.502 L182.778 136.437 L160.834 136.437 L160.834 132.502 Q163.496 129.747 168.079 125.117 Q172.686 120.465 173.866 119.122 Q176.112 116.599 176.991 114.863 Q177.894 113.104 177.894 111.414 Q177.894 108.659 175.95 106.923 Q174.028 105.187 170.927 105.187 Q168.727 105.187 166.274 105.951 Q163.843 106.715 161.065 108.266 L161.065 103.543 Q163.89 102.409 166.343 101.831 Q168.797 101.252 170.834 101.252 Q176.204 101.252 179.399 103.937 Q182.593 106.622 182.593 111.113 Q182.593 113.243 181.783 115.164 Q180.996 117.062 178.889 119.655 Q178.311 120.326 175.209 123.543 Q172.107 126.738 166.459 132.502 Z" fill="#000000" fill-rule="evenodd" fill-opacity="1" /><path clip-path="url(#clip310)" d="M192.639 101.877 L210.996 101.877 L210.996 105.812 L196.922 105.812 L196.922 114.284 Q197.94 113.937 198.959 113.775 Q199.977 113.59 200.996 113.59 Q206.783 113.59 210.162 116.761 Q213.542 119.932 213.542 125.349 Q213.542 130.928 210.07 134.029 Q206.598 137.108 200.278 137.108 Q198.102 137.108 195.834 136.738 Q193.588 136.367 191.181 135.627 L191.181 130.928 Q193.264 132.062 195.487 132.617 Q197.709 133.173 200.186 133.173 Q204.19 133.173 206.528 131.066 Q208.866 128.96 208.866 125.349 Q208.866 121.738 206.528 119.631 Q204.19 117.525 200.186 117.525 Q198.311 117.525 196.436 117.942 Q194.584 118.358 192.639 119.238 L192.639 101.877 Z" fill="#000000" fill-rule="evenodd" fill-opacity="1" /><path clip-path="url(#clip310)" d="M14.479 773.709 L19.3487 773.709 L19.3487 779.31 Q19.3487 782.461 20.6219 783.703 Q21.895 784.912 25.2052 784.912 L28.3562 784.912 L28.3562 775.268 L32.9077 775.268 L32.9077 784.912 L64.0042 784.912 L64.0042 790.801 L32.9077 790.801 L32.9077 796.402 L28.3562 796.402 L28.3562 790.801 L25.8736 790.801 Q19.9216 790.801 17.2162 788.031 Q14.479 785.262 14.479 779.247 L14.479 773.709 Z" fill="#000000" fill-rule="evenodd" fill-opacity="1" /><path clip-path="url(#clip310)" d="M33.8307 748.15 Q33.2578 749.137 33.0032 750.315 Q32.7167 751.46 32.7167 752.861 Q32.7167 757.826 35.9632 760.5 Q39.1779 763.142 45.2253 763.142 L64.0042 763.142 L64.0042 769.03 L28.3562 769.03 L28.3562 763.142 L33.8944 763.142 Q30.6479 761.295 29.0883 758.335 Q27.4968 755.375 27.4968 751.142 Q27.4968 750.537 27.5923 749.805 Q27.656 749.073 27.8151 748.182 L33.8307 748.15 Z" fill="#000000" fill-rule="evenodd" fill-opacity="1" /><path clip-path="url(#clip310)" d="M44.7161 712.948 L47.5806 712.948 L47.5806 739.875 Q53.6281 739.493 56.8109 736.246 Q59.9619 732.968 59.9619 727.143 Q59.9619 723.77 59.1344 720.619 Q58.3069 717.436 56.6518 714.317 L62.1899 714.317 Q63.5267 717.468 64.227 720.778 Q64.9272 724.088 64.9272 727.494 Q64.9272 736.024 59.9619 741.021 Q54.9967 745.986 46.5303 745.986 Q37.7774 745.986 32.6531 741.275 Q27.4968 736.533 27.4968 728.512 Q27.4968 721.319 32.1438 717.149 Q36.7589 712.948 44.7161 712.948 M42.9973 718.804 Q38.1912 718.868 35.3266 721.51 Q32.4621 724.12 32.4621 728.448 Q32.4621 733.35 35.2312 736.31 Q38.0002 739.238 43.0292 739.684 L42.9973 718.804 Z" fill="#000000" fill-rule="evenodd" fill-opacity="1" /><path clip-path="url(#clip310)" d="M46.212 699.835 Q52.6732 699.835 56.3653 697.193 Q60.0256 694.519 60.0256 689.872 Q60.0256 685.225 56.3653 682.552 Q52.6732 679.878 46.212 679.878 Q39.7508 679.878 36.0905 682.552 Q32.3984 685.225 32.3984 689.872 Q32.3984 694.519 36.0905 697.193 Q39.7508 699.835 46.212 699.835 M58.657 679.878 Q61.8398 681.724 63.3994 684.557 Q64.9272 687.358 64.9272 691.305 Q64.9272 697.766 59.771 701.84 Q54.6147 705.882 46.212 705.882 Q37.8093 705.882 32.6531 701.84 Q27.4968 697.766 27.4968 691.305 Q27.4968 687.358 29.0564 684.557 Q30.5842 681.724 33.7671 679.878 L28.3562 679.878 L28.3562 674.022 L77.5631 674.022 L77.5631 679.878 L58.657 679.878 Z" fill="#000000" fill-rule="evenodd" fill-opacity="1" /><path clip-path="url(#clip312)" d="
M365.223 975.406 L365.223 1384.24 L509.211 1384.24 L509.211 975.406 L365.223 975.406 L365.223 975.406  Z
  " fill="#009af9" fill-rule="evenodd" fill-opacity="1"/>
<polyline clip-path="url(#clip312)" style="stroke:#009af9; stroke-linecap:butt; stroke-linejoin:round; stroke-width:4; stroke-opacity:1; fill:none" points="
  365.223,975.406 365.223,1384.24 509.211,1384.24 509.211,975.406 365.223,975.406 
  "/>
<path clip-path="url(#clip312)" d="
M509.211 344.404 L509.211 1384.24 L653.2 1384.24 L653.2 344.404 L509.211 344.404 L509.211 344.404  Z
  " fill="#009af9" fill-rule="evenodd" fill-opacity="1"/>
<polyline clip-path="url(#clip312)" style="stroke:#009af9; stroke-linecap:butt; stroke-linejoin:round; stroke-width:4; stroke-opacity:1; fill:none" points="
  509.211,344.404 509.211,1384.24 653.2,1384.24 653.2,344.404 509.211,344.404 
  "/>
<path clip-path="url(#clip312)" d="
M653.2 86.6747 L653.2 1384.24 L797.189 1384.24 L797.189 86.6747 L653.2 86.6747 L653.2 86.6747  Z
  " fill="#009af9" fill-rule="evenodd" fill-opacity="1"/>
<polyline clip-path="url(#clip312)" style="stroke:#009af9; stroke-linecap:butt; stroke-linejoin:round; stroke-width:4; stroke-opacity:1; fill:none" points="
  653.2,86.6747 653.2,1384.24 797.189,1384.24 797.189,86.6747 653.2,86.6747 
  "/>
<path clip-path="url(#clip312)" d="
M797.189 300.588 L797.189 1384.24 L941.177 1384.24 L941.177 300.588 L797.189 300.588 L797.189 300.588  Z
  " fill="#009af9" fill-rule="evenodd" fill-opacity="1"/>
<polyline clip-path="url(#clip312)" style="stroke:#009af9; stroke-linecap:butt; stroke-linejoin:round; stroke-width:4; stroke-opacity:1; fill:none" points="
  797.189,300.588 797.189,1384.24 941.177,1384.24 941.177,300.588 797.189,300.588 
  "/>
<path clip-path="url(#clip312)" d="
M941.177 705.722 L941.177 1384.24 L1085.17 1384.24 L1085.17 705.722 L941.177 705.722 L941.177 705.722  Z
  " fill="#009af9" fill-rule="evenodd" fill-opacity="1"/>
<polyline clip-path="url(#clip312)" style="stroke:#009af9; stroke-linecap:butt; stroke-linejoin:round; stroke-width:4; stroke-opacity:1; fill:none" points="
  941.177,705.722 941.177,1384.24 1085.17,1384.24 1085.17,705.722 941.177,705.722 
  "/>
<path clip-path="url(#clip312)" d="
M1085.17 1040.75 L1085.17 1384.24 L1229.15 1384.24 L1229.15 1040.75 L1085.17 1040.75 L1085.17 1040.75  Z
  " fill="#009af9" fill-rule="evenodd" fill-opacity="1"/>
<polyline clip-path="url(#clip312)" style="stroke:#009af9; stroke-linecap:butt; stroke-linejoin:round; stroke-width:4; stroke-opacity:1; fill:none" points="
  1085.17,1040.75 1085.17,1384.24 1229.15,1384.24 1229.15,1040.75 1085.17,1040.75 
  "/>
<path clip-path="url(#clip312)" d="
M1229.15 1247.42 L1229.15 1384.24 L1373.14 1384.24 L1373.14 1247.42 L1229.15 1247.42 L1229.15 1247.42  Z
  " fill="#009af9" fill-rule="evenodd" fill-opacity="1"/>
<polyline clip-path="url(#clip312)" style="stroke:#009af9; stroke-linecap:butt; stroke-linejoin:round; stroke-width:4; stroke-opacity:1; fill:none" points="
  1229.15,1247.42 1229.15,1384.24 1373.14,1384.24 1373.14,1247.42 1229.15,1247.42 
  "/>
<path clip-path="url(#clip312)" d="
M1373.14 1335.51 L1373.14 1384.24 L1517.13 1384.24 L1517.13 1335.51 L1373.14 1335.51 L1373.14 1335.51  Z
  " fill="#009af9" fill-rule="evenodd" fill-opacity="1"/>
<polyline clip-path="url(#clip312)" style="stroke:#009af9; stroke-linecap:butt; stroke-linejoin:round; stroke-width:4; stroke-opacity:1; fill:none" points="
  1373.14,1335.51 1373.14,1384.24 1517.13,1384.24 1517.13,1335.51 1373.14,1335.51 
  "/>
<path clip-path="url(#clip312)" d="
M1517.13 1366.76 L1517.13 1384.24 L1661.12 1384.24 L1661.12 1366.76 L1517.13 1366.76 L1517.13 1366.76  Z
  " fill="#009af9" fill-rule="evenodd" fill-opacity="1"/>
<polyline clip-path="url(#clip312)" style="stroke:#009af9; stroke-linecap:butt; stroke-linejoin:round; stroke-width:4; stroke-opacity:1; fill:none" points="
  1517.13,1366.76 1517.13,1384.24 1661.12,1384.24 1661.12,1366.76 1517.13,1366.76 
  "/>
<path clip-path="url(#clip312)" d="
M1661.12 1380.44 L1661.12 1384.24 L1805.11 1384.24 L1805.11 1380.44 L1661.12 1380.44 L1661.12 1380.44  Z
  " fill="#009af9" fill-rule="evenodd" fill-opacity="1"/>
<polyline clip-path="url(#clip312)" style="stroke:#009af9; stroke-linecap:butt; stroke-linejoin:round; stroke-width:4; stroke-opacity:1; fill:none" points="
  1661.12,1380.44 1661.12,1384.24 1805.11,1384.24 1805.11,1380.44 1661.12,1380.44 
  "/>
<path clip-path="url(#clip312)" d="
M1805.11 1382.92 L1805.11 1384.24 L1949.1 1384.24 L1949.1 1382.92 L1805.11 1382.92 L1805.11 1382.92  Z
  " fill="#009af9" fill-rule="evenodd" fill-opacity="1"/>
<polyline clip-path="url(#clip312)" style="stroke:#009af9; stroke-linecap:butt; stroke-linejoin:round; stroke-width:4; stroke-opacity:1; fill:none" points="
  1805.11,1382.92 1805.11,1384.24 1949.1,1384.24 1949.1,1382.92 1805.11,1382.92 
  "/>
<path clip-path="url(#clip312)" d="
M1949.1 1384.04 L1949.1 1384.24 L2093.09 1384.24 L2093.09 1384.04 L1949.1 1384.04 L1949.1 1384.04  Z
  " fill="#009af9" fill-rule="evenodd" fill-opacity="1"/>
<polyline clip-path="url(#clip312)" style="stroke:#009af9; stroke-linecap:butt; stroke-linejoin:round; stroke-width:4; stroke-opacity:1; fill:none" points="
  1949.1,1384.04 1949.1,1384.24 2093.09,1384.24 2093.09,1384.04 1949.1,1384.04 
  "/>
<path clip-path="url(#clip312)" d="
M2093.09 1384.14 L2093.09 1384.24 L2237.08 1384.24 L2237.08 1384.14 L2093.09 1384.14 L2093.09 1384.14  Z
  " fill="#009af9" fill-rule="evenodd" fill-opacity="1"/>
<polyline clip-path="url(#clip312)" style="stroke:#009af9; stroke-linecap:butt; stroke-linejoin:round; stroke-width:4; stroke-opacity:1; fill:none" points="
  2093.09,1384.14 2093.09,1384.24 2237.08,1384.24 2237.08,1384.14 2093.09,1384.14 
  "/>
<polyline clip-path="url(#clip312)" style="stroke:#e26f46; stroke-linecap:butt; stroke-linejoin:round; stroke-width:12; stroke-opacity:1; fill:none" points="
  365.223,1018.43 379.621,980.768 394.02,941.002 408.419,899.261 422.818,855.707 437.217,810.541 451.616,764.001 466.015,716.362 480.413,667.936 494.812,619.065 
  509.211,570.123 523.61,521.508 538.009,473.64 552.408,426.952 566.807,381.889 581.206,338.893 595.604,298.406 610.003,260.853 624.402,226.641 638.801,196.148 
  653.2,169.721 667.599,147.661 681.998,130.228 696.397,117.625 710.795,110.002 725.194,107.451 739.593,110.002 753.992,117.625 768.391,130.228 782.79,147.661 
  797.189,169.721 811.587,196.148 825.986,226.641 840.385,260.853 854.784,298.406 869.183,338.893 883.582,381.889 897.981,426.952 912.38,473.64 926.778,521.508 
  941.177,570.123 955.576,619.065 969.975,667.936 984.374,716.362 998.773,764.001 1013.17,810.541 1027.57,855.707 1041.97,899.261 1056.37,941.002 1070.77,980.768 
  1085.17,1018.43 1099.56,1053.9 1113.96,1087.13 1128.36,1118.08 1142.76,1146.75 1157.16,1173.19 1171.56,1197.43 1185.96,1219.54 1200.36,1239.62 1214.76,1257.76 
  1229.15,1274.06 1243.55,1288.65 1257.95,1301.63 1272.35,1313.14 1286.75,1323.29 1301.15,1332.19 1315.55,1339.98 1329.95,1346.75 1344.35,1352.61 1358.74,1357.66 
  1373.14,1361.99 1387.54,1365.7 1401.94,1368.84 1416.34,1371.51 1430.74,1373.75 1445.14,1375.64 1459.54,1377.21 1473.94,1378.52 1488.33,1379.6 1502.73,1380.49 
  1517.13,1381.23 1531.53,1381.83 1545.93,1382.31 1560.33,1382.71 1574.73,1383.03 1589.13,1383.29 1603.53,1383.49 1617.92,1383.65 1632.32,1383.78 1646.72,1383.88 
  1661.12,1383.97 1675.52,1384.03 1689.92,1384.08 1704.32,1384.12 1718.72,1384.14 1733.12,1384.17 1747.51,1384.18 1761.91,1384.2 1776.31,1384.21 1790.71,1384.22 
  1805.11,1384.22 1819.51,1384.23 1833.91,1384.23 1848.31,1384.23 1862.7,1384.23 1877.1,1384.23 1891.5,1384.24 1905.9,1384.24 1920.3,1384.24 1934.7,1384.24 
  1949.1,1384.24 1963.5,1384.24 1977.9,1384.24 1992.29,1384.24 2006.69,1384.24 2021.09,1384.24 2035.49,1384.24 2049.89,1384.24 2064.29,1384.24 2078.69,1384.24 
  2093.09,1384.24 
  "/>
<polyline clip-path="url(#clip312)" style="stroke:#3da44d; stroke-linecap:butt; stroke-linejoin:round; stroke-width:12; stroke-opacity:1; fill:none" points="
  365.223,968.861 379.621,905.723 394.02,840.853 408.419,774.976 422.818,708.831 437.217,643.154 451.616,578.666 466.015,516.06 480.413,455.987 494.812,399.051 
  509.211,345.796 523.61,296.704 538.009,252.186 552.408,212.581 566.807,178.154 581.206,149.099 595.604,125.532 610.003,107.505 624.402,95.0002 638.801,87.9388 
  653.2,86.1857 667.599,89.5547 681.998,97.8151 696.397,110.698 710.795,127.901 725.194,149.099 739.593,173.944 753.992,202.078 768.391,233.133 782.79,266.739 
  797.189,302.528 811.587,340.139 825.986,379.22 840.385,419.435 854.784,460.461 869.183,501.996 883.582,543.756 897.981,585.481 912.38,626.932 926.778,667.892 
  941.177,708.169 955.576,747.592 969.975,786.013 984.374,823.306 998.773,859.365 1013.17,894.103 1027.57,927.455 1041.97,959.368 1056.37,989.808 1070.77,1018.76 
  1085.17,1046.2 1099.56,1072.16 1113.96,1096.63 1128.36,1119.65 1142.76,1141.24 1157.16,1161.45 1171.56,1180.32 1185.96,1197.89 1200.36,1214.23 1214.76,1229.37 
  1229.15,1243.39 1243.55,1256.34 1257.95,1268.27 1272.35,1279.24 1286.75,1289.32 1301.15,1298.55 1315.55,1307 1329.95,1314.71 1344.35,1321.73 1358.74,1328.13 
  1373.14,1333.94 1387.54,1339.2 1401.94,1343.97 1416.34,1348.28 1430.74,1352.17 1445.14,1355.68 1459.54,1358.83 1473.94,1361.66 1488.33,1364.2 1502.73,1366.48 
  1517.13,1368.52 1531.53,1370.34 1545.93,1371.96 1560.33,1373.41 1574.73,1374.69 1589.13,1375.84 1603.53,1376.85 1617.92,1377.75 1632.32,1378.55 1646.72,1379.25 
  1661.12,1379.87 1675.52,1380.42 1689.92,1380.9 1704.32,1381.33 1718.72,1381.7 1733.12,1382.03 1747.51,1382.31 1761.91,1382.57 1776.31,1382.79 1790.71,1382.98 
  1805.11,1383.15 1819.51,1383.29 1833.91,1383.42 1848.31,1383.53 1862.7,1383.63 1877.1,1383.71 1891.5,1383.78 1905.9,1383.85 1920.3,1383.9 1934.7,1383.95 
  1949.1,1383.99 1963.5,1384.03 1977.9,1384.06 1992.29,1384.08 2006.69,1384.1 2021.09,1384.12 2035.49,1384.14 2049.89,1384.15 2064.29,1384.17 2078.69,1384.18 
  2093.09,1384.19 
  "/>
<path clip-path="url(#clip310)" d="
M1778.33 335.029 L2282.65 335.029 L2282.65 93.1086 L1778.33 93.1086  Z
  " fill="#ffffff" fill-rule="evenodd" fill-opacity="1"/>
<polyline clip-path="url(#clip310)" style="stroke:#000000; stroke-linecap:butt; stroke-linejoin:round; stroke-width:4; stroke-opacity:1; fill:none" points="
  1778.33,335.029 2282.65,335.029 2282.65,93.1086 1778.33,93.1086 1778.33,335.029 
  "/>
<path clip-path="url(#clip310)" d="
M1801.7 177.781 L1941.92 177.781 L1941.92 129.397 L1801.7 129.397 L1801.7 177.781  Z
  " fill="#009af9" fill-rule="evenodd" fill-opacity="1"/>
<polyline clip-path="url(#clip310)" style="stroke:#009af9; stroke-linecap:butt; stroke-linejoin:round; stroke-width:4; stroke-opacity:1; fill:none" points="
  1801.7,177.781 1941.92,177.781 1941.92,129.397 1801.7,129.397 1801.7,177.781 
  "/>
<path clip-path="url(#clip310)" d="M1987.53 137.443 L1987.53 142.003 Q1984.87 140.73 1982.51 140.105 Q1980.15 139.48 1977.95 139.48 Q1974.13 139.48 1972.05 140.961 Q1969.99 142.443 1969.99 145.174 Q1969.99 147.466 1971.35 148.647 Q1972.74 149.804 1976.58 150.522 L1979.41 151.1 Q1984.64 152.096 1987.12 154.619 Q1989.62 157.119 1989.62 161.332 Q1989.62 166.355 1986.24 168.947 Q1982.88 171.54 1976.38 171.54 Q1973.92 171.54 1971.14 170.984 Q1968.39 170.429 1965.43 169.341 L1965.43 164.526 Q1968.27 166.123 1971 166.933 Q1973.74 167.744 1976.38 167.744 Q1980.38 167.744 1982.56 166.17 Q1984.73 164.596 1984.73 161.679 Q1984.73 159.133 1983.16 157.697 Q1981.61 156.262 1978.04 155.545 L1975.19 154.989 Q1969.96 153.947 1967.63 151.725 Q1965.29 149.503 1965.29 145.545 Q1965.29 140.961 1968.5 138.322 Q1971.75 135.684 1977.42 135.684 Q1979.85 135.684 1982.37 136.123 Q1984.89 136.563 1987.53 137.443 Z" fill="#000000" fill-rule="evenodd" fill-opacity="1" /><path clip-path="url(#clip310)" d="M2017.62 137.443 L2017.62 142.003 Q2014.96 140.73 2012.6 140.105 Q2010.24 139.48 2008.04 139.48 Q2004.22 139.48 2002.14 140.961 Q2000.08 142.443 2000.08 145.174 Q2000.08 147.466 2001.44 148.647 Q2002.83 149.804 2006.68 150.522 L2009.5 151.1 Q2014.73 152.096 2017.21 154.619 Q2019.71 157.119 2019.71 161.332 Q2019.71 166.355 2016.33 168.947 Q2012.97 171.54 2006.47 171.54 Q2004.01 171.54 2001.24 170.984 Q1998.48 170.429 1995.52 169.341 L1995.52 164.526 Q1998.37 166.123 2001.1 166.933 Q2003.83 167.744 2006.47 167.744 Q2010.47 167.744 2012.65 166.17 Q2014.82 164.596 2014.82 161.679 Q2014.82 159.133 2013.25 157.697 Q2011.7 156.262 2008.13 155.545 L2005.29 154.989 Q2000.06 153.947 1997.72 151.725 Q1995.38 149.503 1995.38 145.545 Q1995.38 140.961 1998.6 138.322 Q2001.84 135.684 2007.51 135.684 Q2009.94 135.684 2012.46 136.123 Q2014.99 136.563 2017.62 137.443 Z" fill="#000000" fill-rule="evenodd" fill-opacity="1" /><path clip-path="url(#clip310)" d="M2039.43 140.915 L2033.09 158.114 L2045.8 158.114 L2039.43 140.915 M2036.79 136.309 L2042.09 136.309 L2055.26 170.869 L2050.4 170.869 L2047.25 162.003 L2031.68 162.003 L2028.53 170.869 L2023.6 170.869 L2036.79 136.309 Z" fill="#000000" fill-rule="evenodd" fill-opacity="1" /><polyline clip-path="url(#clip310)" style="stroke:#e26f46; stroke-linecap:butt; stroke-linejoin:round; stroke-width:4; stroke-opacity:1; fill:none" points="
  1801.7,214.069 1941.92,214.069 
  "/>
<path clip-path="url(#clip310)" d="M1984.2 218.085 Q1984.2 213.455 1982.28 210.909 Q1980.38 208.363 1976.93 208.363 Q1973.5 208.363 1971.58 210.909 Q1969.69 213.455 1969.69 218.085 Q1969.69 222.691 1971.58 225.238 Q1973.5 227.784 1976.93 227.784 Q1980.38 227.784 1982.28 225.238 Q1984.2 222.691 1984.2 218.085 M1988.46 228.131 Q1988.46 234.751 1985.52 237.969 Q1982.58 241.21 1976.51 241.21 Q1974.27 241.21 1972.28 240.862 Q1970.29 240.538 1968.41 239.844 L1968.41 235.7 Q1970.29 236.719 1972.12 237.205 Q1973.94 237.691 1975.84 237.691 Q1980.03 237.691 1982.12 235.492 Q1984.2 233.316 1984.2 228.895 L1984.2 226.788 Q1982.88 229.08 1980.82 230.214 Q1978.76 231.349 1975.89 231.349 Q1971.12 231.349 1968.2 227.714 Q1965.29 224.08 1965.29 218.085 Q1965.29 212.066 1968.2 208.432 Q1971.12 204.798 1975.89 204.798 Q1978.76 204.798 1980.82 205.932 Q1982.88 207.066 1984.2 209.358 L1984.2 205.423 L1988.46 205.423 L1988.46 228.131 Z" fill="#000000" fill-rule="evenodd" fill-opacity="1" /><path clip-path="url(#clip310)" d="M2009.01 218.316 Q2003.85 218.316 2001.86 219.497 Q1999.87 220.677 1999.87 223.525 Q1999.87 225.793 2001.35 227.136 Q2002.86 228.455 2005.43 228.455 Q2008.97 228.455 2011.1 225.955 Q2013.25 223.432 2013.25 219.265 L2013.25 218.316 L2009.01 218.316 M2017.51 216.557 L2017.51 231.349 L2013.25 231.349 L2013.25 227.413 Q2011.79 229.775 2009.62 230.909 Q2007.44 232.02 2004.29 232.02 Q2000.31 232.02 1997.95 229.798 Q1995.61 227.552 1995.61 223.802 Q1995.61 219.427 1998.53 217.205 Q2001.47 214.983 2007.28 214.983 L2013.25 214.983 L2013.25 214.566 Q2013.25 211.627 2011.31 210.029 Q2009.38 208.409 2005.89 208.409 Q2003.67 208.409 2001.56 208.941 Q1999.45 209.474 1997.51 210.539 L1997.51 206.603 Q1999.85 205.701 2002.05 205.261 Q2004.25 204.798 2006.33 204.798 Q2011.95 204.798 2014.73 207.714 Q2017.51 210.631 2017.51 216.557 Z" fill="#000000" fill-rule="evenodd" fill-opacity="1" /><path clip-path="url(#clip310)" d="M2025.84 221.117 L2025.84 205.423 L2030.1 205.423 L2030.1 220.955 Q2030.1 224.636 2031.54 226.488 Q2032.97 228.316 2035.84 228.316 Q2039.29 228.316 2041.28 226.117 Q2043.3 223.918 2043.3 220.122 L2043.3 205.423 L2047.56 205.423 L2047.56 231.349 L2043.3 231.349 L2043.3 227.367 Q2041.75 229.728 2039.68 230.886 Q2037.65 232.02 2034.94 232.02 Q2030.47 232.02 2028.16 229.242 Q2025.84 226.464 2025.84 221.117 M2036.56 204.798 L2036.56 204.798 Z" fill="#000000" fill-rule="evenodd" fill-opacity="1" /><path clip-path="url(#clip310)" d="M2072.86 206.187 L2072.86 210.214 Q2071.05 209.289 2069.11 208.826 Q2067.16 208.363 2065.08 208.363 Q2061.91 208.363 2060.31 209.335 Q2058.74 210.307 2058.74 212.251 Q2058.74 213.733 2059.87 214.589 Q2061 215.423 2064.43 216.187 L2065.89 216.511 Q2070.43 217.483 2072.32 219.265 Q2074.24 221.025 2074.24 224.196 Q2074.24 227.807 2071.37 229.913 Q2068.53 232.02 2063.53 232.02 Q2061.44 232.02 2059.18 231.603 Q2056.93 231.21 2054.43 230.4 L2054.43 226.001 Q2056.79 227.228 2059.08 227.853 Q2061.37 228.455 2063.62 228.455 Q2066.63 228.455 2068.25 227.437 Q2069.87 226.395 2069.87 224.52 Q2069.87 222.784 2068.69 221.858 Q2067.53 220.932 2063.57 220.076 L2062.09 219.728 Q2058.13 218.895 2056.37 217.182 Q2054.62 215.446 2054.62 212.437 Q2054.62 208.779 2057.21 206.789 Q2059.8 204.798 2064.57 204.798 Q2066.93 204.798 2069.01 205.145 Q2071.1 205.492 2072.86 206.187 Z" fill="#000000" fill-rule="evenodd" fill-opacity="1" /><path clip-path="url(#clip310)" d="M2097.55 206.187 L2097.55 210.214 Q2095.75 209.289 2093.8 208.826 Q2091.86 208.363 2089.78 208.363 Q2086.61 208.363 2085.01 209.335 Q2083.43 210.307 2083.43 212.251 Q2083.43 213.733 2084.57 214.589 Q2085.7 215.423 2089.13 216.187 L2090.59 216.511 Q2095.12 217.483 2097.02 219.265 Q2098.94 221.025 2098.94 224.196 Q2098.94 227.807 2096.07 229.913 Q2093.23 232.02 2088.23 232.02 Q2086.14 232.02 2083.87 231.603 Q2081.63 231.21 2079.13 230.4 L2079.13 226.001 Q2081.49 227.228 2083.78 227.853 Q2086.07 228.455 2088.32 228.455 Q2091.33 228.455 2092.95 227.437 Q2094.57 226.395 2094.57 224.52 Q2094.57 222.784 2093.39 221.858 Q2092.23 220.932 2088.27 220.076 L2086.79 219.728 Q2082.83 218.895 2081.07 217.182 Q2079.31 215.446 2079.31 212.437 Q2079.31 208.779 2081.91 206.789 Q2084.5 204.798 2089.27 204.798 Q2091.63 204.798 2093.71 205.145 Q2095.8 205.492 2097.55 206.187 Z" fill="#000000" fill-rule="evenodd" fill-opacity="1" /><path clip-path="url(#clip310)" d="M2105.73 205.423 L2109.99 205.423 L2109.99 231.349 L2105.73 231.349 L2105.73 205.423 M2105.73 195.33 L2109.99 195.33 L2109.99 200.724 L2105.73 200.724 L2105.73 195.33 Z" fill="#000000" fill-rule="evenodd" fill-opacity="1" /><path clip-path="url(#clip310)" d="M2130.68 218.316 Q2125.52 218.316 2123.53 219.497 Q2121.54 220.677 2121.54 223.525 Q2121.54 225.793 2123.02 227.136 Q2124.52 228.455 2127.09 228.455 Q2130.63 228.455 2132.76 225.955 Q2134.92 223.432 2134.92 219.265 L2134.92 218.316 L2130.68 218.316 M2139.18 216.557 L2139.18 231.349 L2134.92 231.349 L2134.92 227.413 Q2133.46 229.775 2131.28 230.909 Q2129.11 232.02 2125.96 232.02 Q2121.98 232.02 2119.62 229.798 Q2117.28 227.552 2117.28 223.802 Q2117.28 219.427 2120.19 217.205 Q2123.13 214.983 2128.94 214.983 L2134.92 214.983 L2134.92 214.566 Q2134.92 211.627 2132.97 210.029 Q2131.05 208.409 2127.55 208.409 Q2125.33 208.409 2123.23 208.941 Q2121.12 209.474 2119.18 210.539 L2119.18 206.603 Q2121.51 205.701 2123.71 205.261 Q2125.91 204.798 2127.99 204.798 Q2133.62 204.798 2136.4 207.714 Q2139.18 210.631 2139.18 216.557 Z" fill="#000000" fill-rule="evenodd" fill-opacity="1" /><path clip-path="url(#clip310)" d="M2169.5 215.701 L2169.5 231.349 L2165.24 231.349 L2165.24 215.839 Q2165.24 212.159 2163.8 210.33 Q2162.37 208.502 2159.5 208.502 Q2156.05 208.502 2154.06 210.701 Q2152.07 212.9 2152.07 216.696 L2152.07 231.349 L2147.79 231.349 L2147.79 205.423 L2152.07 205.423 L2152.07 209.451 Q2153.6 207.113 2155.66 205.955 Q2157.74 204.798 2160.45 204.798 Q2164.92 204.798 2167.21 207.576 Q2169.5 210.33 2169.5 215.701 Z" fill="#000000" fill-rule="evenodd" fill-opacity="1" /><path clip-path="url(#clip310)" d="M2206.19 195.33 L2206.19 198.872 L2202.11 198.872 Q2199.82 198.872 2198.92 199.798 Q2198.04 200.724 2198.04 203.131 L2198.04 205.423 L2205.05 205.423 L2205.05 208.733 L2198.04 208.733 L2198.04 231.349 L2193.76 231.349 L2193.76 208.733 L2189.68 208.733 L2189.68 205.423 L2193.76 205.423 L2193.76 203.617 Q2193.76 199.289 2195.77 197.321 Q2197.79 195.33 2202.16 195.33 L2206.19 195.33 Z" fill="#000000" fill-rule="evenodd" fill-opacity="1" /><path clip-path="url(#clip310)" d="M2209.75 205.423 L2214.01 205.423 L2214.01 231.349 L2209.75 231.349 L2209.75 205.423 M2209.75 195.33 L2214.01 195.33 L2214.01 200.724 L2209.75 200.724 L2209.75 195.33 Z" fill="#000000" fill-rule="evenodd" fill-opacity="1" /><path clip-path="url(#clip310)" d="M2227.14 198.062 L2227.14 205.423 L2235.91 205.423 L2235.91 208.733 L2227.14 208.733 L2227.14 222.807 Q2227.14 225.978 2227.99 226.881 Q2228.87 227.784 2231.54 227.784 L2235.91 227.784 L2235.91 231.349 L2231.54 231.349 Q2226.61 231.349 2224.73 229.52 Q2222.86 227.668 2222.86 222.807 L2222.86 208.733 L2219.73 208.733 L2219.73 205.423 L2222.86 205.423 L2222.86 198.062 L2227.14 198.062 Z" fill="#000000" fill-rule="evenodd" fill-opacity="1" /><polyline clip-path="url(#clip310)" style="stroke:#3da44d; stroke-linecap:butt; stroke-linejoin:round; stroke-width:4; stroke-opacity:1; fill:none" points="
  1801.7,274.549 1941.92,274.549 
  "/>
<path clip-path="url(#clip310)" d="M1969.57 287.94 L1969.57 301.69 L1965.29 301.69 L1965.29 265.903 L1969.57 265.903 L1969.57 269.838 Q1970.91 267.523 1972.95 266.412 Q1975.01 265.278 1977.86 265.278 Q1982.58 265.278 1985.52 269.028 Q1988.48 272.778 1988.48 278.889 Q1988.48 285 1985.52 288.75 Q1982.58 292.5 1977.86 292.5 Q1975.01 292.5 1972.95 291.389 Q1970.91 290.255 1969.57 287.94 M1984.06 278.889 Q1984.06 274.19 1982.12 271.528 Q1980.19 268.843 1976.81 268.843 Q1973.44 268.843 1971.49 271.528 Q1969.57 274.19 1969.57 278.889 Q1969.57 283.588 1971.49 286.273 Q1973.44 288.935 1976.81 288.935 Q1980.19 288.935 1982.12 286.273 Q1984.06 283.588 1984.06 278.889 Z" fill="#000000" fill-rule="evenodd" fill-opacity="1" /><path clip-path="url(#clip310)" d="M2005.59 268.889 Q2002.16 268.889 2000.17 271.574 Q1998.18 274.236 1998.18 278.889 Q1998.18 283.542 2000.15 286.227 Q2002.14 288.889 2005.59 288.889 Q2008.99 288.889 2010.98 286.204 Q2012.97 283.518 2012.97 278.889 Q2012.97 274.282 2010.98 271.597 Q2008.99 268.889 2005.59 268.889 M2005.59 265.278 Q2011.14 265.278 2014.31 268.889 Q2017.49 272.5 2017.49 278.889 Q2017.49 285.255 2014.31 288.889 Q2011.14 292.5 2005.59 292.5 Q2000.01 292.5 1996.84 288.889 Q1993.69 285.255 1993.69 278.889 Q1993.69 272.5 1996.84 268.889 Q2000.01 265.278 2005.59 265.278 Z" fill="#000000" fill-rule="evenodd" fill-opacity="1" /><path clip-path="url(#clip310)" d="M2024.55 265.903 L2028.81 265.903 L2028.81 291.829 L2024.55 291.829 L2024.55 265.903 M2024.55 255.81 L2028.81 255.81 L2028.81 261.204 L2024.55 261.204 L2024.55 255.81 Z" fill="#000000" fill-rule="evenodd" fill-opacity="1" /><path clip-path="url(#clip310)" d="M2054.24 266.667 L2054.24 270.694 Q2052.44 269.769 2050.5 269.306 Q2048.55 268.843 2046.47 268.843 Q2043.3 268.843 2041.7 269.815 Q2040.12 270.787 2040.12 272.731 Q2040.12 274.213 2041.26 275.069 Q2042.39 275.903 2045.82 276.667 L2047.28 276.991 Q2051.81 277.963 2053.71 279.745 Q2055.63 281.505 2055.63 284.676 Q2055.63 288.287 2052.76 290.393 Q2049.92 292.5 2044.92 292.5 Q2042.83 292.5 2040.56 292.083 Q2038.32 291.69 2035.82 290.88 L2035.82 286.481 Q2038.18 287.708 2040.47 288.333 Q2042.76 288.935 2045.01 288.935 Q2048.02 288.935 2049.64 287.917 Q2051.26 286.875 2051.26 285 Q2051.26 283.264 2050.08 282.338 Q2048.92 281.412 2044.96 280.556 L2043.48 280.208 Q2039.52 279.375 2037.76 277.662 Q2036 275.926 2036 272.917 Q2036 269.259 2038.6 267.269 Q2041.19 265.278 2045.96 265.278 Q2048.32 265.278 2050.4 265.625 Q2052.49 265.972 2054.24 266.667 Z" fill="#000000" fill-rule="evenodd" fill-opacity="1" /><path clip-path="url(#clip310)" d="M2078.94 266.667 L2078.94 270.694 Q2077.14 269.769 2075.19 269.306 Q2073.25 268.843 2071.17 268.843 Q2067.99 268.843 2066.4 269.815 Q2064.82 270.787 2064.82 272.731 Q2064.82 274.213 2065.96 275.069 Q2067.09 275.903 2070.52 276.667 L2071.98 276.991 Q2076.51 277.963 2078.41 279.745 Q2080.33 281.505 2080.33 284.676 Q2080.33 288.287 2077.46 290.393 Q2074.62 292.5 2069.62 292.5 Q2067.53 292.5 2065.26 292.083 Q2063.02 291.69 2060.52 290.88 L2060.52 286.481 Q2062.88 287.708 2065.17 288.333 Q2067.46 288.935 2069.71 288.935 Q2072.72 288.935 2074.34 287.917 Q2075.96 286.875 2075.96 285 Q2075.96 283.264 2074.78 282.338 Q2073.62 281.412 2069.66 280.556 L2068.18 280.208 Q2064.22 279.375 2062.46 277.662 Q2060.7 275.926 2060.7 272.917 Q2060.7 269.259 2063.3 267.269 Q2065.89 265.278 2070.66 265.278 Q2073.02 265.278 2075.1 265.625 Q2077.18 265.972 2078.94 266.667 Z" fill="#000000" fill-rule="evenodd" fill-opacity="1" /><path clip-path="url(#clip310)" d="M2097.16 268.889 Q2093.74 268.889 2091.74 271.574 Q2089.75 274.236 2089.75 278.889 Q2089.75 283.542 2091.72 286.227 Q2093.71 288.889 2097.16 288.889 Q2100.56 288.889 2102.55 286.204 Q2104.55 283.518 2104.55 278.889 Q2104.55 274.282 2102.55 271.597 Q2100.56 268.889 2097.16 268.889 M2097.16 265.278 Q2102.72 265.278 2105.89 268.889 Q2109.06 272.5 2109.06 278.889 Q2109.06 285.255 2105.89 288.889 Q2102.72 292.5 2097.16 292.5 Q2091.58 292.5 2088.41 288.889 Q2085.26 285.255 2085.26 278.889 Q2085.26 272.5 2088.41 268.889 Q2091.58 265.278 2097.16 265.278 Z" fill="#000000" fill-rule="evenodd" fill-opacity="1" /><path clip-path="url(#clip310)" d="M2137.67 276.181 L2137.67 291.829 L2133.41 291.829 L2133.41 276.319 Q2133.41 272.639 2131.98 270.81 Q2130.54 268.982 2127.67 268.982 Q2124.22 268.982 2122.23 271.181 Q2120.24 273.38 2120.24 277.176 L2120.24 291.829 L2115.96 291.829 L2115.96 265.903 L2120.24 265.903 L2120.24 269.931 Q2121.77 267.593 2123.83 266.435 Q2125.91 265.278 2128.62 265.278 Q2133.09 265.278 2135.38 268.056 Q2137.67 270.81 2137.67 276.181 Z" fill="#000000" fill-rule="evenodd" fill-opacity="1" /><path clip-path="url(#clip310)" d="M2174.36 255.81 L2174.36 259.352 L2170.29 259.352 Q2167.99 259.352 2167.09 260.278 Q2166.21 261.204 2166.21 263.611 L2166.21 265.903 L2173.23 265.903 L2173.23 269.213 L2166.21 269.213 L2166.21 291.829 L2161.93 291.829 L2161.93 269.213 L2157.86 269.213 L2157.86 265.903 L2161.93 265.903 L2161.93 264.097 Q2161.93 259.769 2163.94 257.801 Q2165.96 255.81 2170.33 255.81 L2174.36 255.81 Z" fill="#000000" fill-rule="evenodd" fill-opacity="1" /><path clip-path="url(#clip310)" d="M2177.92 265.903 L2182.18 265.903 L2182.18 291.829 L2177.92 291.829 L2177.92 265.903 M2177.92 255.81 L2182.18 255.81 L2182.18 261.204 L2177.92 261.204 L2177.92 255.81 Z" fill="#000000" fill-rule="evenodd" fill-opacity="1" /><path clip-path="url(#clip310)" d="M2195.31 258.542 L2195.31 265.903 L2204.08 265.903 L2204.08 269.213 L2195.31 269.213 L2195.31 283.287 Q2195.31 286.458 2196.17 287.361 Q2197.05 288.264 2199.71 288.264 L2204.08 288.264 L2204.08 291.829 L2199.71 291.829 Q2194.78 291.829 2192.9 290 Q2191.03 288.148 2191.03 283.287 L2191.03 269.213 L2187.9 269.213 L2187.9 265.903 L2191.03 265.903 L2191.03 258.542 L2195.31 258.542 Z" fill="#000000" fill-rule="evenodd" fill-opacity="1" /></svg>
