<?xml version="1.0" encoding="utf-8"?>
<svg xmlns="http://www.w3.org/2000/svg" xmlns:xlink="http://www.w3.org/1999/xlink" width="600" height="400" viewBox="0 0 2400 1600">
<defs>
  <clipPath id="clip000">
    <rect x="0" y="0" width="2400" height="1600"/>
  </clipPath>
</defs>
<path clip-path="url(#clip000)" d="
M0 1600 L2400 1600 L2400 0 L0 0  Z
  " fill="#ffffff" fill-rule="evenodd" fill-opacity="1"/>
<defs>
  <clipPath id="clip001">
    <rect x="480" y="0" width="1681" height="1600"/>
  </clipPath>
</defs>
<path clip-path="url(#clip000)" d="
M102.74 1505.26 L2352.76 1505.26 L2352.76 47.2441 L102.74 47.2441  Z
  " fill="#ffffff" fill-rule="evenodd" fill-opacity="1"/>
<defs>
  <clipPath id="clip002">
    <rect x="102" y="47" width="2251" height="1459"/>
  </clipPath>
</defs>
<polyline clip-path="url(#clip002)" style="stroke:#000000; stroke-linecap:butt; stroke-linejoin:round; stroke-width:2; stroke-opacity:0.1; fill:none" points="
  226.495,1505.26 226.495,47.2441 
  "/>
<polyline clip-path="url(#clip002)" style="stroke:#000000; stroke-linecap:butt; stroke-linejoin:round; stroke-width:2; stroke-opacity:0.1; fill:none" points="
  655.603,1505.26 655.603,47.2441 
  "/>
<polyline clip-path="url(#clip002)" style="stroke:#000000; stroke-linecap:butt; stroke-linejoin:round; stroke-width:2; stroke-opacity:0.1; fill:none" points="
  1084.71,1505.26 1084.71,47.2441 
  "/>
<polyline clip-path="url(#clip002)" style="stroke:#000000; stroke-linecap:butt; stroke-linejoin:round; stroke-width:2; stroke-opacity:0.1; fill:none" points="
  1513.82,1505.26 1513.82,47.2441 
  "/>
<polyline clip-path="url(#clip002)" style="stroke:#000000; stroke-linecap:butt; stroke-linejoin:round; stroke-width:2; stroke-opacity:0.1; fill:none" points="
  1942.93,1505.26 1942.93,47.2441 
  "/>
<polyline clip-path="url(#clip000)" style="stroke:#000000; stroke-linecap:butt; stroke-linejoin:round; stroke-width:4; stroke-opacity:1; fill:none" points="
  102.74,1505.26 2352.76,1505.26 
  "/>
<polyline clip-path="url(#clip000)" style="stroke:#000000; stroke-linecap:butt; stroke-linejoin:round; stroke-width:4; stroke-opacity:1; fill:none" points="
  226.495,1505.26 226.495,1487.76 
  "/>
<polyline clip-path="url(#clip000)" style="stroke:#000000; stroke-linecap:butt; stroke-linejoin:round; stroke-width:4; stroke-opacity:1; fill:none" points="
  655.603,1505.26 655.603,1487.76 
  "/>
<polyline clip-path="url(#clip000)" style="stroke:#000000; stroke-linecap:butt; stroke-linejoin:round; stroke-width:4; stroke-opacity:1; fill:none" points="
  1084.71,1505.26 1084.71,1487.76 
  "/>
<polyline clip-path="url(#clip000)" style="stroke:#000000; stroke-linecap:butt; stroke-linejoin:round; stroke-width:4; stroke-opacity:1; fill:none" points="
  1513.82,1505.26 1513.82,1487.76 
  "/>
<polyline clip-path="url(#clip000)" style="stroke:#000000; stroke-linecap:butt; stroke-linejoin:round; stroke-width:4; stroke-opacity:1; fill:none" points="
  1942.93,1505.26 1942.93,1487.76 
  "/>
<path clip-path="url(#clip000)" d="M226.495 1534.45 Q222.884 1534.45 221.055 1538.02 Q219.25 1541.56 219.25 1548.69 Q219.25 1555.79 221.055 1559.36 Q222.884 1562.9 226.495 1562.9 Q230.129 1562.9 231.935 1559.36 Q233.764 1555.79 233.764 1548.69 Q233.764 1541.56 231.935 1538.02 Q230.129 1534.45 226.495 1534.45 M226.495 1530.75 Q232.305 1530.75 235.361 1535.35 Q238.439 1539.94 238.439 1548.69 Q238.439 1557.41 235.361 1562.02 Q232.305 1566.6 226.495 1566.6 Q220.685 1566.6 217.606 1562.02 Q214.551 1557.41 214.551 1548.69 Q214.551 1539.94 217.606 1535.35 Q220.685 1530.75 226.495 1530.75 Z" fill="#000000" fill-rule="evenodd" fill-opacity="1" /><path clip-path="url(#clip000)" d="M659.851 1547.3 Q663.208 1548.02 665.083 1550.28 Q666.981 1552.55 666.981 1555.89 Q666.981 1561 663.462 1563.8 Q659.944 1566.6 653.462 1566.6 Q651.286 1566.6 648.972 1566.16 Q646.68 1565.75 644.226 1564.89 L644.226 1560.38 Q646.171 1561.51 648.485 1562.09 Q650.8 1562.67 653.323 1562.67 Q657.722 1562.67 660.013 1560.93 Q662.328 1559.2 662.328 1555.89 Q662.328 1552.83 660.175 1551.12 Q658.046 1549.38 654.226 1549.38 L650.198 1549.38 L650.198 1545.54 L654.411 1545.54 Q657.86 1545.54 659.689 1544.17 Q661.518 1542.78 661.518 1540.19 Q661.518 1537.53 659.62 1536.12 Q657.745 1534.68 654.226 1534.68 Q652.305 1534.68 650.106 1535.1 Q647.907 1535.52 645.268 1536.39 L645.268 1532.23 Q647.93 1531.49 650.245 1531.12 Q652.583 1530.75 654.643 1530.75 Q659.967 1530.75 663.069 1533.18 Q666.171 1535.58 666.171 1539.71 Q666.171 1542.58 664.527 1544.57 Q662.884 1546.53 659.851 1547.3 Z" fill="#000000" fill-rule="evenodd" fill-opacity="1" /><path clip-path="url(#clip000)" d="M1085.12 1546.79 Q1081.97 1546.79 1080.12 1548.94 Q1078.29 1551.09 1078.29 1554.84 Q1078.29 1558.57 1080.12 1560.75 Q1081.97 1562.9 1085.12 1562.9 Q1088.27 1562.9 1090.09 1560.75 Q1091.95 1558.57 1091.95 1554.84 Q1091.95 1551.09 1090.09 1548.94 Q1088.27 1546.79 1085.12 1546.79 M1094.4 1532.14 L1094.4 1536.39 Q1092.64 1535.56 1090.83 1535.12 Q1089.05 1534.68 1087.29 1534.68 Q1082.66 1534.68 1080.21 1537.81 Q1077.78 1540.93 1077.43 1547.25 Q1078.8 1545.24 1080.86 1544.17 Q1082.92 1543.08 1085.39 1543.08 Q1090.6 1543.08 1093.61 1546.26 Q1096.64 1549.4 1096.64 1554.84 Q1096.64 1560.17 1093.5 1563.39 Q1090.35 1566.6 1085.12 1566.6 Q1079.12 1566.6 1075.95 1562.02 Q1072.78 1557.41 1072.78 1548.69 Q1072.78 1540.49 1076.67 1535.63 Q1080.56 1530.75 1087.11 1530.75 Q1088.87 1530.75 1090.65 1531.09 Q1092.45 1531.44 1094.4 1532.14 Z" fill="#000000" fill-rule="evenodd" fill-opacity="1" /><path clip-path="url(#clip000)" d="M1504.12 1565.21 L1504.12 1560.96 Q1505.88 1561.79 1507.69 1562.23 Q1509.49 1562.67 1511.23 1562.67 Q1515.86 1562.67 1518.29 1559.57 Q1520.74 1556.44 1521.09 1550.1 Q1519.75 1552.09 1517.69 1553.15 Q1515.63 1554.22 1513.13 1554.22 Q1507.94 1554.22 1504.91 1551.09 Q1501.9 1547.95 1501.9 1542.51 Q1501.9 1537.18 1505.05 1533.96 Q1508.2 1530.75 1513.43 1530.75 Q1519.42 1530.75 1522.57 1535.35 Q1525.74 1539.94 1525.74 1548.69 Q1525.74 1556.86 1521.85 1561.74 Q1517.99 1566.6 1511.44 1566.6 Q1509.68 1566.6 1507.87 1566.26 Q1506.07 1565.91 1504.12 1565.21 M1513.43 1550.56 Q1516.57 1550.56 1518.4 1548.41 Q1520.26 1546.26 1520.26 1542.51 Q1520.26 1538.78 1518.4 1536.63 Q1516.57 1534.45 1513.43 1534.45 Q1510.28 1534.45 1508.43 1536.63 Q1506.6 1538.78 1506.6 1542.51 Q1506.6 1546.26 1508.43 1548.41 Q1510.28 1550.56 1513.43 1550.56 Z" fill="#000000" fill-rule="evenodd" fill-opacity="1" /><path clip-path="url(#clip000)" d="M1918.41 1562 L1926.05 1562 L1926.05 1535.63 L1917.74 1537.3 L1917.74 1533.04 L1926.01 1531.37 L1930.68 1531.37 L1930.68 1562 L1938.32 1562 L1938.32 1565.93 L1918.41 1565.93 L1918.41 1562 Z" fill="#000000" fill-rule="evenodd" fill-opacity="1" /><path clip-path="url(#clip000)" d="M1951.79 1562 L1968.11 1562 L1968.11 1565.93 L1946.17 1565.93 L1946.17 1562 Q1948.83 1559.24 1953.41 1554.61 Q1958.02 1549.96 1959.2 1548.62 Q1961.45 1546.09 1962.33 1544.36 Q1963.23 1542.6 1963.23 1540.91 Q1963.23 1538.15 1961.29 1536.42 Q1959.36 1534.68 1956.26 1534.68 Q1954.06 1534.68 1951.61 1535.45 Q1949.18 1536.21 1946.4 1537.76 L1946.4 1533.04 Q1949.23 1531.9 1951.68 1531.33 Q1954.13 1530.75 1956.17 1530.75 Q1961.54 1530.75 1964.73 1533.43 Q1967.93 1536.12 1967.93 1540.61 Q1967.93 1542.74 1967.12 1544.66 Q1966.33 1546.56 1964.22 1549.15 Q1963.65 1549.82 1960.54 1553.04 Q1957.44 1556.23 1951.79 1562 Z" fill="#000000" fill-rule="evenodd" fill-opacity="1" /><path clip-path="url(#clip000)" d="M1229.71 1621.32 Q1231.9 1617.37 1234.96 1615.49 Q1238.01 1613.62 1242.15 1613.62 Q1247.72 1613.62 1250.74 1617.53 Q1253.77 1621.41 1253.77 1628.61 L1253.77 1650.12 L1247.88 1650.12 L1247.88 1628.8 Q1247.88 1623.67 1246.07 1621.19 Q1244.25 1618.71 1240.53 1618.71 Q1235.98 1618.71 1233.33 1621.73 Q1230.69 1624.76 1230.69 1629.98 L1230.69 1650.12 L1224.8 1650.12 L1224.8 1628.8 Q1224.8 1623.64 1222.99 1621.19 Q1221.18 1618.71 1217.39 1618.71 Q1212.9 1618.71 1210.26 1621.76 Q1207.62 1624.79 1207.62 1629.98 L1207.62 1650.12 L1201.73 1650.12 L1201.73 1614.48 L1207.62 1614.48 L1207.62 1620.01 Q1209.62 1616.74 1212.42 1615.18 Q1215.22 1613.62 1219.07 1613.62 Q1222.96 1613.62 1225.66 1615.59 Q1228.4 1617.56 1229.71 1621.32 Z" fill="#000000" fill-rule="evenodd" fill-opacity="1" /><polyline clip-path="url(#clip002)" style="stroke:#000000; stroke-linecap:butt; stroke-linejoin:round; stroke-width:2; stroke-opacity:0.1; fill:none" points="
  102.74,1464 2352.76,1464 
  "/>
<polyline clip-path="url(#clip002)" style="stroke:#000000; stroke-linecap:butt; stroke-linejoin:round; stroke-width:2; stroke-opacity:0.1; fill:none" points="
  102.74,1195.89 2352.76,1195.89 
  "/>
<polyline clip-path="url(#clip002)" style="stroke:#000000; stroke-linecap:butt; stroke-linejoin:round; stroke-width:2; stroke-opacity:0.1; fill:none" points="
  102.74,927.776 2352.76,927.776 
  "/>
<polyline clip-path="url(#clip002)" style="stroke:#000000; stroke-linecap:butt; stroke-linejoin:round; stroke-width:2; stroke-opacity:0.1; fill:none" points="
  102.74,659.666 2352.76,659.666 
  "/>
<polyline clip-path="url(#clip002)" style="stroke:#000000; stroke-linecap:butt; stroke-linejoin:round; stroke-width:2; stroke-opacity:0.1; fill:none" points="
  102.74,391.556 2352.76,391.556 
  "/>
<polyline clip-path="url(#clip002)" style="stroke:#000000; stroke-linecap:butt; stroke-linejoin:round; stroke-width:2; stroke-opacity:0.1; fill:none" points="
  102.74,123.447 2352.76,123.447 
  "/>
<polyline clip-path="url(#clip000)" style="stroke:#000000; stroke-linecap:butt; stroke-linejoin:round; stroke-width:4; stroke-opacity:1; fill:none" points="
  102.74,1505.26 102.74,47.2441 
  "/>
<polyline clip-path="url(#clip000)" style="stroke:#000000; stroke-linecap:butt; stroke-linejoin:round; stroke-width:4; stroke-opacity:1; fill:none" points="
  102.74,1464 129.74,1464 
  "/>
<polyline clip-path="url(#clip000)" style="stroke:#000000; stroke-linecap:butt; stroke-linejoin:round; stroke-width:4; stroke-opacity:1; fill:none" points="
  102.74,1195.89 129.74,1195.89 
  "/>
<polyline clip-path="url(#clip000)" style="stroke:#000000; stroke-linecap:butt; stroke-linejoin:round; stroke-width:4; stroke-opacity:1; fill:none" points="
  102.74,927.776 129.74,927.776 
  "/>
<polyline clip-path="url(#clip000)" style="stroke:#000000; stroke-linecap:butt; stroke-linejoin:round; stroke-width:4; stroke-opacity:1; fill:none" points="
  102.74,659.666 129.74,659.666 
  "/>
<polyline clip-path="url(#clip000)" style="stroke:#000000; stroke-linecap:butt; stroke-linejoin:round; stroke-width:4; stroke-opacity:1; fill:none" points="
  102.74,391.556 129.74,391.556 
  "/>
<polyline clip-path="url(#clip000)" style="stroke:#000000; stroke-linecap:butt; stroke-linejoin:round; stroke-width:4; stroke-opacity:1; fill:none" points="
  102.74,123.447 129.74,123.447 
  "/>
<path clip-path="url(#clip000)" d="M-20.5973 1449.79 Q-24.2084 1449.79 -26.0371 1453.36 Q-27.8427 1456.9 -27.8427 1464.03 Q-27.8427 1471.14 -26.0371 1474.7 Q-24.2084 1478.24 -20.5973 1478.24 Q-16.9631 1478.24 -15.1576 1474.7 Q-13.3289 1471.14 -13.3289 1464.03 Q-13.3289 1456.9 -15.1576 1453.36 Q-16.9631 1449.79 -20.5973 1449.79 M-20.5973 1446.09 Q-14.7872 1446.09 -11.7316 1450.7 Q-8.65296 1455.28 -8.65296 1464.03 Q-8.65296 1472.76 -11.7316 1477.36 Q-14.7872 1481.95 -20.5973 1481.95 Q-26.4075 1481.95 -29.4862 1477.36 Q-32.5417 1472.76 -32.5417 1464.03 Q-32.5417 1455.28 -29.4862 1450.7 Q-26.4075 1446.09 -20.5973 1446.09 Z" fill="#000000" fill-rule="evenodd" fill-opacity="1" /><path clip-path="url(#clip000)" d="M-0.435408 1475.4 L4.44882 1475.4 L4.44882 1481.28 L-0.435408 1481.28 L-0.435408 1475.4 Z" fill="#000000" fill-rule="evenodd" fill-opacity="1" /><path clip-path="url(#clip000)" d="M24.6339 1449.79 Q21.0228 1449.79 19.1941 1453.36 Q17.3886 1456.9 17.3886 1464.03 Q17.3886 1471.14 19.1941 1474.7 Q21.0228 1478.24 24.6339 1478.24 Q28.2681 1478.24 30.0737 1474.7 Q31.9024 1471.14 31.9024 1464.03 Q31.9024 1456.9 30.0737 1453.36 Q28.2681 1449.79 24.6339 1449.79 M24.6339 1446.09 Q30.4441 1446.09 33.4996 1450.7 Q36.5783 1455.28 36.5783 1464.03 Q36.5783 1472.76 33.4996 1477.36 Q30.4441 1481.95 24.6339 1481.95 Q18.8237 1481.95 15.7451 1477.36 Q12.6895 1472.76 12.6895 1464.03 Q12.6895 1455.28 15.7451 1450.7 Q18.8237 1446.09 24.6339 1446.09 Z" fill="#000000" fill-rule="evenodd" fill-opacity="1" /><path clip-path="url(#clip000)" d="M54.7958 1449.79 Q51.1847 1449.79 49.356 1453.36 Q47.5504 1456.9 47.5504 1464.03 Q47.5504 1471.14 49.356 1474.7 Q51.1847 1478.24 54.7958 1478.24 Q58.43 1478.24 60.2356 1474.7 Q62.0643 1471.14 62.0643 1464.03 Q62.0643 1456.9 60.2356 1453.36 Q58.43 1449.79 54.7958 1449.79 M54.7958 1446.09 Q60.6059 1446.09 63.6615 1450.7 Q66.7402 1455.28 66.7402 1464.03 Q66.7402 1472.76 63.6615 1477.36 Q60.6059 1481.95 54.7958 1481.95 Q48.9856 1481.95 45.9069 1477.36 Q42.8514 1472.76 42.8514 1464.03 Q42.8514 1455.28 45.9069 1450.7 Q48.9856 1446.09 54.7958 1446.09 Z" fill="#000000" fill-rule="evenodd" fill-opacity="1" /><path clip-path="url(#clip000)" d="M-19.602 1181.68 Q-23.2131 1181.68 -25.0418 1185.25 Q-26.8473 1188.79 -26.8473 1195.92 Q-26.8473 1203.03 -25.0418 1206.59 Q-23.2131 1210.13 -19.602 1210.13 Q-15.9677 1210.13 -14.1622 1206.59 Q-12.3335 1203.03 -12.3335 1195.92 Q-12.3335 1188.79 -14.1622 1185.25 Q-15.9677 1181.68 -19.602 1181.68 M-19.602 1177.98 Q-13.7918 1177.98 -10.7363 1182.59 Q-7.65759 1187.17 -7.65759 1195.92 Q-7.65759 1204.65 -10.7363 1209.25 Q-13.7918 1213.84 -19.602 1213.84 Q-25.4121 1213.84 -28.4908 1209.25 Q-31.5464 1204.65 -31.5464 1195.92 Q-31.5464 1187.17 -28.4908 1182.59 Q-25.4121 1177.98 -19.602 1177.98 Z" fill="#000000" fill-rule="evenodd" fill-opacity="1" /><path clip-path="url(#clip000)" d="M0.559957 1207.29 L5.44419 1207.29 L5.44419 1213.17 L0.559957 1213.17 L0.559957 1207.29 Z" fill="#000000" fill-rule="evenodd" fill-opacity="1" /><path clip-path="url(#clip000)" d="M25.6293 1181.68 Q22.0182 1181.68 20.1895 1185.25 Q18.3839 1188.79 18.3839 1195.92 Q18.3839 1203.03 20.1895 1206.59 Q22.0182 1210.13 25.6293 1210.13 Q29.2635 1210.13 31.0691 1206.59 Q32.8977 1203.03 32.8977 1195.92 Q32.8977 1188.79 31.0691 1185.25 Q29.2635 1181.68 25.6293 1181.68 M25.6293 1177.98 Q31.4394 1177.98 34.495 1182.59 Q37.5736 1187.17 37.5736 1195.92 Q37.5736 1204.65 34.495 1209.25 Q31.4394 1213.84 25.6293 1213.84 Q19.8191 1213.84 16.7404 1209.25 Q13.6849 1204.65 13.6849 1195.92 Q13.6849 1187.17 16.7404 1182.59 Q19.8191 1177.98 25.6293 1177.98 Z" fill="#000000" fill-rule="evenodd" fill-opacity="1" /><path clip-path="url(#clip000)" d="M45.8375 1178.61 L64.1939 1178.61 L64.1939 1182.54 L50.1199 1182.54 L50.1199 1191.01 Q51.1384 1190.67 52.1569 1190.5 Q53.1754 1190.32 54.1939 1190.32 Q59.9809 1190.32 63.3605 1193.49 Q66.7402 1196.66 66.7402 1202.08 Q66.7402 1207.66 63.268 1210.76 Q59.7958 1213.84 53.4763 1213.84 Q51.3004 1213.84 49.0319 1213.47 Q46.7866 1213.1 44.3792 1212.36 L44.3792 1207.66 Q46.4625 1208.79 48.6847 1209.35 Q50.9069 1209.9 53.3837 1209.9 Q57.3884 1209.9 59.7263 1207.8 Q62.0643 1205.69 62.0643 1202.08 Q62.0643 1198.47 59.7263 1196.36 Q57.3884 1194.25 53.3837 1194.25 Q51.5088 1194.25 49.6338 1194.67 Q47.7819 1195.09 45.8375 1195.97 L45.8375 1178.61 Z" fill="#000000" fill-rule="evenodd" fill-opacity="1" /><path clip-path="url(#clip000)" d="M-20.5973 913.575 Q-24.2084 913.575 -26.0371 917.139 Q-27.8427 920.681 -27.8427 927.811 Q-27.8427 934.917 -26.0371 938.482 Q-24.2084 942.023 -20.5973 942.023 Q-16.9631 942.023 -15.1576 938.482 Q-13.3289 934.917 -13.3289 927.811 Q-13.3289 920.681 -15.1576 917.139 Q-16.9631 913.575 -20.5973 913.575 M-20.5973 909.871 Q-14.7872 909.871 -11.7316 914.477 Q-8.65296 919.061 -8.65296 927.811 Q-8.65296 936.537 -11.7316 941.144 Q-14.7872 945.727 -20.5973 945.727 Q-26.4075 945.727 -29.4862 941.144 Q-32.5417 936.537 -32.5417 927.811 Q-32.5417 919.061 -29.4862 914.477 Q-26.4075 909.871 -20.5973 909.871 Z" fill="#000000" fill-rule="evenodd" fill-opacity="1" /><path clip-path="url(#clip000)" d="M-0.435408 939.176 L4.44882 939.176 L4.44882 945.056 L-0.435408 945.056 L-0.435408 939.176 Z" fill="#000000" fill-rule="evenodd" fill-opacity="1" /><path clip-path="url(#clip000)" d="M15.4441 941.121 L23.083 941.121 L23.083 914.755 L14.7728 916.422 L14.7728 912.162 L23.0367 910.496 L27.7126 910.496 L27.7126 941.121 L35.3514 941.121 L35.3514 945.056 L15.4441 945.056 L15.4441 941.121 Z" fill="#000000" fill-rule="evenodd" fill-opacity="1" /><path clip-path="url(#clip000)" d="M54.7958 913.575 Q51.1847 913.575 49.356 917.139 Q47.5504 920.681 47.5504 927.811 Q47.5504 934.917 49.356 938.482 Q51.1847 942.023 54.7958 942.023 Q58.43 942.023 60.2356 938.482 Q62.0643 934.917 62.0643 927.811 Q62.0643 920.681 60.2356 917.139 Q58.43 913.575 54.7958 913.575 M54.7958 909.871 Q60.6059 909.871 63.6615 914.477 Q66.7402 919.061 66.7402 927.811 Q66.7402 936.537 63.6615 941.144 Q60.6059 945.727 54.7958 945.727 Q48.9856 945.727 45.9069 941.144 Q42.8514 936.537 42.8514 927.811 Q42.8514 919.061 45.9069 914.477 Q48.9856 909.871 54.7958 909.871 Z" fill="#000000" fill-rule="evenodd" fill-opacity="1" /><path clip-path="url(#clip000)" d="M-19.602 645.465 Q-23.2131 645.465 -25.0418 649.03 Q-26.8473 652.571 -26.8473 659.701 Q-26.8473 666.807 -25.0418 670.372 Q-23.2131 673.914 -19.602 673.914 Q-15.9677 673.914 -14.1622 670.372 Q-12.3335 666.807 -12.3335 659.701 Q-12.3335 652.571 -14.1622 649.03 Q-15.9677 645.465 -19.602 645.465 M-19.602 641.761 Q-13.7918 641.761 -10.7363 646.368 Q-7.65759 650.951 -7.65759 659.701 Q-7.65759 668.428 -10.7363 673.034 Q-13.7918 677.617 -19.602 677.617 Q-25.4121 677.617 -28.4908 673.034 Q-31.5464 668.428 -31.5464 659.701 Q-31.5464 650.951 -28.4908 646.368 Q-25.4121 641.761 -19.602 641.761 Z" fill="#000000" fill-rule="evenodd" fill-opacity="1" /><path clip-path="url(#clip000)" d="M0.559957 671.067 L5.44419 671.067 L5.44419 676.946 L0.559957 676.946 L0.559957 671.067 Z" fill="#000000" fill-rule="evenodd" fill-opacity="1" /><path clip-path="url(#clip000)" d="M16.4395 673.011 L24.0783 673.011 L24.0783 646.645 L15.7682 648.312 L15.7682 644.053 L24.0321 642.386 L28.708 642.386 L28.708 673.011 L36.3468 673.011 L36.3468 676.946 L16.4395 676.946 L16.4395 673.011 Z" fill="#000000" fill-rule="evenodd" fill-opacity="1" /><path clip-path="url(#clip000)" d="M45.8375 642.386 L64.1939 642.386 L64.1939 646.321 L50.1199 646.321 L50.1199 654.793 Q51.1384 654.446 52.1569 654.284 Q53.1754 654.099 54.1939 654.099 Q59.9809 654.099 63.3605 657.27 Q66.7402 660.442 66.7402 665.858 Q66.7402 671.437 63.268 674.539 Q59.7958 677.617 53.4763 677.617 Q51.3004 677.617 49.0319 677.247 Q46.7866 676.877 44.3792 676.136 L44.3792 671.437 Q46.4625 672.571 48.6847 673.127 Q50.9069 673.682 53.3837 673.682 Q57.3884 673.682 59.7263 671.576 Q62.0643 669.469 62.0643 665.858 Q62.0643 662.247 59.7263 660.141 Q57.3884 658.034 53.3837 658.034 Q51.5088 658.034 49.6338 658.451 Q47.7819 658.868 45.8375 659.747 L45.8375 642.386 Z" fill="#000000" fill-rule="evenodd" fill-opacity="1" /><path clip-path="url(#clip000)" d="M-20.5973 377.355 Q-24.2084 377.355 -26.0371 380.92 Q-27.8427 384.462 -27.8427 391.591 Q-27.8427 398.698 -26.0371 402.262 Q-24.2084 405.804 -20.5973 405.804 Q-16.9631 405.804 -15.1576 402.262 Q-13.3289 398.698 -13.3289 391.591 Q-13.3289 384.462 -15.1576 380.92 Q-16.9631 377.355 -20.5973 377.355 M-20.5973 373.651 Q-14.7872 373.651 -11.7316 378.258 Q-8.65296 382.841 -8.65296 391.591 Q-8.65296 400.318 -11.7316 404.924 Q-14.7872 409.508 -20.5973 409.508 Q-26.4075 409.508 -29.4862 404.924 Q-32.5417 400.318 -32.5417 391.591 Q-32.5417 382.841 -29.4862 378.258 Q-26.4075 373.651 -20.5973 373.651 Z" fill="#000000" fill-rule="evenodd" fill-opacity="1" /><path clip-path="url(#clip000)" d="M-0.435408 402.957 L4.44882 402.957 L4.44882 408.836 L-0.435408 408.836 L-0.435408 402.957 Z" fill="#000000" fill-rule="evenodd" fill-opacity="1" /><path clip-path="url(#clip000)" d="M18.6617 404.901 L34.9811 404.901 L34.9811 408.836 L13.0367 408.836 L13.0367 404.901 Q15.6988 402.147 20.2821 397.517 Q24.8885 392.864 26.0691 391.522 Q28.3144 388.999 29.1941 387.262 Q30.0968 385.503 30.0968 383.813 Q30.0968 381.059 28.1524 379.323 Q26.2311 377.587 23.1293 377.587 Q20.9302 377.587 18.4765 378.35 Q16.046 379.114 13.2682 380.665 L13.2682 375.943 Q16.0923 374.809 18.546 374.23 Q20.9997 373.651 23.0367 373.651 Q28.407 373.651 31.6015 376.337 Q34.7959 379.022 34.7959 383.512 Q34.7959 385.642 33.9857 387.563 Q33.1987 389.462 31.0922 392.054 Q30.5135 392.725 27.4117 395.943 Q24.3098 399.137 18.6617 404.901 Z" fill="#000000" fill-rule="evenodd" fill-opacity="1" /><path clip-path="url(#clip000)" d="M54.7958 377.355 Q51.1847 377.355 49.356 380.92 Q47.5504 384.462 47.5504 391.591 Q47.5504 398.698 49.356 402.262 Q51.1847 405.804 54.7958 405.804 Q58.43 405.804 60.2356 402.262 Q62.0643 398.698 62.0643 391.591 Q62.0643 384.462 60.2356 380.92 Q58.43 377.355 54.7958 377.355 M54.7958 373.651 Q60.6059 373.651 63.6615 378.258 Q66.7402 382.841 66.7402 391.591 Q66.7402 400.318 63.6615 404.924 Q60.6059 409.508 54.7958 409.508 Q48.9856 409.508 45.9069 404.924 Q42.8514 400.318 42.8514 391.591 Q42.8514 382.841 45.9069 378.258 Q48.9856 373.651 54.7958 373.651 Z" fill="#000000" fill-rule="evenodd" fill-opacity="1" /><path clip-path="url(#clip000)" d="M-19.602 109.245 Q-23.2131 109.245 -25.0418 112.81 Q-26.8473 116.352 -26.8473 123.481 Q-26.8473 130.588 -25.0418 134.153 Q-23.2131 137.694 -19.602 137.694 Q-15.9677 137.694 -14.1622 134.153 Q-12.3335 130.588 -12.3335 123.481 Q-12.3335 116.352 -14.1622 112.81 Q-15.9677 109.245 -19.602 109.245 M-19.602 105.542 Q-13.7918 105.542 -10.7363 110.148 Q-7.65759 114.731 -7.65759 123.481 Q-7.65759 132.208 -10.7363 136.815 Q-13.7918 141.398 -19.602 141.398 Q-25.4121 141.398 -28.4908 136.815 Q-31.5464 132.208 -31.5464 123.481 Q-31.5464 114.731 -28.4908 110.148 Q-25.4121 105.542 -19.602 105.542 Z" fill="#000000" fill-rule="evenodd" fill-opacity="1" /><path clip-path="url(#clip000)" d="M0.559957 134.847 L5.44419 134.847 L5.44419 140.727 L0.559957 140.727 L0.559957 134.847 Z" fill="#000000" fill-rule="evenodd" fill-opacity="1" /><path clip-path="url(#clip000)" d="M19.6571 136.792 L35.9764 136.792 L35.9764 140.727 L14.0321 140.727 L14.0321 136.792 Q16.6941 134.037 21.2774 129.407 Q25.8839 124.755 27.0644 123.412 Q29.3098 120.889 30.1894 119.153 Q31.0922 117.394 31.0922 115.704 Q31.0922 112.949 29.1478 111.213 Q27.2265 109.477 24.1246 109.477 Q21.9256 109.477 19.4719 110.241 Q17.0413 111.005 14.2636 112.556 L14.2636 107.833 Q17.0876 106.699 19.5413 106.12 Q21.995 105.542 24.0321 105.542 Q29.4024 105.542 32.5968 108.227 Q35.7912 110.912 35.7912 115.403 Q35.7912 117.532 34.9811 119.454 Q34.194 121.352 32.0876 123.944 Q31.5089 124.616 28.407 127.833 Q25.3052 131.028 19.6571 136.792 Z" fill="#000000" fill-rule="evenodd" fill-opacity="1" /><path clip-path="url(#clip000)" d="M45.8375 106.167 L64.1939 106.167 L64.1939 110.102 L50.1199 110.102 L50.1199 118.574 Q51.1384 118.227 52.1569 118.065 Q53.1754 117.88 54.1939 117.88 Q59.9809 117.88 63.3605 121.051 Q66.7402 124.222 66.7402 129.639 Q66.7402 135.217 63.268 138.319 Q59.7958 141.398 53.4763 141.398 Q51.3004 141.398 49.0319 141.028 Q46.7866 140.657 44.3792 139.917 L44.3792 135.217 Q46.4625 136.352 48.6847 136.907 Q50.9069 137.463 53.3837 137.463 Q57.3884 137.463 59.7263 135.356 Q62.0643 133.25 62.0643 129.639 Q62.0643 126.028 59.7263 123.921 Q57.3884 121.815 53.3837 121.815 Q51.5088 121.815 49.6338 122.231 Q47.7819 122.648 45.8375 123.528 L45.8375 106.167 Z" fill="#000000" fill-rule="evenodd" fill-opacity="1" /><path clip-path="url(#clip000)" d="M-125.034 840.657 L-107.178 840.657 L-107.178 832.573 Q-107.178 828.085 -109.502 825.634 Q-111.825 823.183 -116.122 823.183 Q-120.387 823.183 -122.711 825.634 Q-125.034 828.085 -125.034 832.573 L-125.034 840.657 M-130.318 847.086 L-130.318 832.573 Q-130.318 824.584 -126.689 820.51 Q-123.093 816.404 -116.122 816.404 Q-109.088 816.404 -105.491 820.51 Q-101.895 824.584 -101.895 832.573 L-101.895 840.657 L-82.7977 840.657 L-82.7977 847.086 L-130.318 847.086 Z" fill="#000000" fill-rule="evenodd" fill-opacity="1" /><path clip-path="url(#clip000)" d="M-132.259 793.965 Q-124.939 798.23 -117.777 800.298 Q-110.616 802.367 -103.263 802.367 Q-95.9111 802.367 -88.686 800.298 Q-81.4927 798.198 -74.204 793.965 L-74.204 799.057 Q-81.6837 803.831 -88.9088 806.219 Q-96.1339 808.574 -103.263 808.574 Q-110.361 808.574 -117.554 806.219 Q-124.748 803.863 -132.259 799.057 L-132.259 793.965 Z" fill="#000000" fill-rule="evenodd" fill-opacity="1" /><path clip-path="url(#clip000)" d="M-111.603 754.847 Q-115.549 752.651 -117.427 749.596 Q-119.305 746.54 -119.305 742.402 Q-119.305 736.832 -115.39 733.809 Q-111.507 730.785 -104.314 730.785 L-82.7977 730.785 L-82.7977 736.673 L-104.123 736.673 Q-109.247 736.673 -111.73 738.487 Q-114.212 740.302 -114.212 744.026 Q-114.212 748.577 -111.189 751.219 Q-108.165 753.861 -102.945 753.861 L-82.7977 753.861 L-82.7977 759.749 L-104.123 759.749 Q-109.279 759.749 -111.73 761.563 Q-114.212 763.377 -114.212 767.165 Q-114.212 771.653 -111.157 774.295 Q-108.133 776.936 -102.945 776.936 L-82.7977 776.936 L-82.7977 782.825 L-118.446 782.825 L-118.446 776.936 L-112.908 776.936 Q-116.186 774.931 -117.745 772.13 Q-119.305 769.329 -119.305 765.478 Q-119.305 761.595 -117.332 758.89 Q-115.358 756.152 -111.603 754.847 Z" fill="#000000" fill-rule="evenodd" fill-opacity="1" /><path clip-path="url(#clip000)" d="M-132.259 720.027 L-132.259 714.934 Q-124.748 710.16 -117.554 707.805 Q-110.361 705.418 -103.263 705.418 Q-96.1339 705.418 -88.9088 707.805 Q-81.6837 710.16 -74.204 714.934 L-74.204 720.027 Q-81.4927 715.794 -88.686 713.725 Q-95.9111 711.624 -103.263 711.624 Q-110.616 711.624 -117.777 713.725 Q-124.939 715.794 -132.259 720.027 Z" fill="#000000" fill-rule="evenodd" fill-opacity="1" /><path clip-path="url(#clip002)" d="
M226.495 1027.02 L226.495 1464 L369.531 1464 L369.531 1027.02 L226.495 1027.02 L226.495 1027.02  Z
  " fill="#009af9" fill-rule="evenodd" fill-opacity="1"/>
<polyline clip-path="url(#clip002)" style="stroke:#009af9; stroke-linecap:butt; stroke-linejoin:round; stroke-width:4; stroke-opacity:1; fill:none" points="
  226.495,1027.02 226.495,1464 369.531,1464 369.531,1027.02 226.495,1027.02 
  "/>
<path clip-path="url(#clip002)" d="
M369.531 355.475 L369.531 1464 L512.567 1464 L512.567 355.475 L369.531 355.475 L369.531 355.475  Z
  " fill="#009af9" fill-rule="evenodd" fill-opacity="1"/>
<polyline clip-path="url(#clip002)" style="stroke:#009af9; stroke-linecap:butt; stroke-linejoin:round; stroke-width:4; stroke-opacity:1; fill:none" points="
  369.531,355.475 369.531,1464 512.567,1464 512.567,355.475 369.531,355.475 
  "/>
<path clip-path="url(#clip002)" d="
M512.567 105.774 L512.567 1464 L655.603 1464 L655.603 105.774 L512.567 105.774 L512.567 105.774  Z
  " fill="#009af9" fill-rule="evenodd" fill-opacity="1"/>
<polyline clip-path="url(#clip002)" style="stroke:#009af9; stroke-linecap:butt; stroke-linejoin:round; stroke-width:4; stroke-opacity:1; fill:none" points="
  512.567,105.774 512.567,1464 655.603,1464 655.603,105.774 512.567,105.774 
  "/>
<path clip-path="url(#clip002)" d="
M655.603 307.167 L655.603 1464 L798.64 1464 L798.64 307.167 L655.603 307.167 L655.603 307.167  Z
  " fill="#009af9" fill-rule="evenodd" fill-opacity="1"/>
<polyline clip-path="url(#clip002)" style="stroke:#009af9; stroke-linecap:butt; stroke-linejoin:round; stroke-width:4; stroke-opacity:1; fill:none" points="
  655.603,307.167 655.603,1464 798.64,1464 798.64,307.167 655.603,307.167 
  "/>
<path clip-path="url(#clip002)" d="
M798.64 744.144 L798.64 1464 L941.676 1464 L941.676 744.144 L798.64 744.144 L798.64 744.144  Z
  " fill="#009af9" fill-rule="evenodd" fill-opacity="1"/>
<polyline clip-path="url(#clip002)" style="stroke:#009af9; stroke-linecap:butt; stroke-linejoin:round; stroke-width:4; stroke-opacity:1; fill:none" points="
  798.64,744.144 798.64,1464 941.676,1464 941.676,744.144 798.64,744.144 
  "/>
<path clip-path="url(#clip002)" d="
M941.676 1110.43 L941.676 1464 L1084.71 1464 L1084.71 1110.43 L941.676 1110.43 L941.676 1110.43  Z
  " fill="#009af9" fill-rule="evenodd" fill-opacity="1"/>
<polyline clip-path="url(#clip002)" style="stroke:#009af9; stroke-linecap:butt; stroke-linejoin:round; stroke-width:4; stroke-opacity:1; fill:none" points="
  941.676,1110.43 941.676,1464 1084.71,1464 1084.71,1110.43 941.676,1110.43 
  "/>
<path clip-path="url(#clip002)" d="
M1084.71 1310.64 L1084.71 1464 L1227.75 1464 L1227.75 1310.64 L1084.71 1310.64 L1084.71 1310.64  Z
  " fill="#009af9" fill-rule="evenodd" fill-opacity="1"/>
<polyline clip-path="url(#clip002)" style="stroke:#009af9; stroke-linecap:butt; stroke-linejoin:round; stroke-width:4; stroke-opacity:1; fill:none" points="
  1084.71,1310.64 1084.71,1464 1227.75,1464 1227.75,1310.64 1084.71,1310.64 
  "/>
<path clip-path="url(#clip002)" d="
M1227.75 1412.14 L1227.75 1464 L1370.78 1464 L1370.78 1412.14 L1227.75 1412.14 L1227.75 1412.14  Z
  " fill="#009af9" fill-rule="evenodd" fill-opacity="1"/>
<polyline clip-path="url(#clip002)" style="stroke:#009af9; stroke-linecap:butt; stroke-linejoin:round; stroke-width:4; stroke-opacity:1; fill:none" points="
  1227.75,1412.14 1227.75,1464 1370.78,1464 1370.78,1412.14 1227.75,1412.14 
  "/>
<path clip-path="url(#clip002)" d="
M1370.78 1446.82 L1370.78 1464 L1513.82 1464 L1513.82 1446.82 L1370.78 1446.82 L1370.78 1446.82  Z
  " fill="#009af9" fill-rule="evenodd" fill-opacity="1"/>
<polyline clip-path="url(#clip002)" style="stroke:#009af9; stroke-linecap:butt; stroke-linejoin:round; stroke-width:4; stroke-opacity:1; fill:none" points="
  1370.78,1446.82 1370.78,1464 1513.82,1464 1513.82,1446.82 1370.78,1446.82 
  "/>
<path clip-path="url(#clip002)" d="
M1513.82 1459.7 L1513.82 1464 L1656.86 1464 L1656.86 1459.7 L1513.82 1459.7 L1513.82 1459.7  Z
  " fill="#009af9" fill-rule="evenodd" fill-opacity="1"/>
<polyline clip-path="url(#clip002)" style="stroke:#009af9; stroke-linecap:butt; stroke-linejoin:round; stroke-width:4; stroke-opacity:1; fill:none" points="
  1513.82,1459.7 1513.82,1464 1656.86,1464 1656.86,1459.7 1513.82,1459.7 
  "/>
<path clip-path="url(#clip002)" d="
M1656.86 1462.87 L1656.86 1464 L1799.89 1464 L1799.89 1462.87 L1656.86 1462.87 L1656.86 1462.87  Z
  " fill="#009af9" fill-rule="evenodd" fill-opacity="1"/>
<polyline clip-path="url(#clip002)" style="stroke:#009af9; stroke-linecap:butt; stroke-linejoin:round; stroke-width:4; stroke-opacity:1; fill:none" points="
  1656.86,1462.87 1656.86,1464 1799.89,1464 1799.89,1462.87 1656.86,1462.87 
  "/>
<path clip-path="url(#clip002)" d="
M1799.89 1463.73 L1799.89 1464 L1942.93 1464 L1942.93 1463.73 L1799.89 1463.73 L1799.89 1463.73  Z
  " fill="#009af9" fill-rule="evenodd" fill-opacity="1"/>
<polyline clip-path="url(#clip002)" style="stroke:#009af9; stroke-linecap:butt; stroke-linejoin:round; stroke-width:4; stroke-opacity:1; fill:none" points="
  1799.89,1463.73 1799.89,1464 1942.93,1464 1942.93,1463.73 1799.89,1463.73 
  "/>
<path clip-path="url(#clip002)" d="
M1942.93 1463.89 L1942.93 1464 L2085.96 1464 L2085.96 1463.89 L1942.93 1463.89 L1942.93 1463.89  Z
  " fill="#009af9" fill-rule="evenodd" fill-opacity="1"/>
<polyline clip-path="url(#clip002)" style="stroke:#009af9; stroke-linecap:butt; stroke-linejoin:round; stroke-width:4; stroke-opacity:1; fill:none" points="
  1942.93,1463.89 1942.93,1464 2085.96,1464 2085.96,1463.89 1942.93,1463.89 
  "/>
<path clip-path="url(#clip002)" d="
M2085.96 1463.94 L2085.96 1464 L2229 1464 L2229 1463.94 L2085.96 1463.94 L2085.96 1463.94  Z
  " fill="#009af9" fill-rule="evenodd" fill-opacity="1"/>
<polyline clip-path="url(#clip002)" style="stroke:#009af9; stroke-linecap:butt; stroke-linejoin:round; stroke-width:4; stroke-opacity:1; fill:none" points="
  2085.96,1463.94 2085.96,1464 2229,1464 2229,1463.94 2085.96,1463.94 
  "/>
<polyline clip-path="url(#clip002)" style="stroke:#e26f46; stroke-linecap:butt; stroke-linejoin:round; stroke-width:12; stroke-opacity:1; fill:none" points="
  226.495,1076.37 240.799,1036.46 255.102,994.319 269.406,950.087 283.709,903.935 298.013,856.074 312.317,806.758 326.62,756.278 340.924,704.963 355.228,653.176 
  369.531,601.315 383.835,549.8 398.138,499.076 412.442,449.603 426.746,401.851 441.049,356.291 455.353,313.389 469.656,273.595 483.96,237.342 498.264,205.031 
  512.567,177.027 526.871,153.652 541.175,135.178 555.478,121.823 569.782,113.746 584.085,111.043 598.389,113.746 612.693,121.823 626.996,135.178 641.3,153.652 
  655.603,177.027 669.907,205.031 684.211,237.342 698.514,273.595 712.818,313.389 727.122,356.291 741.425,401.851 755.729,449.603 770.032,499.076 784.336,549.8 
  798.64,601.315 812.943,653.176 827.247,704.963 841.55,756.278 855.854,806.758 870.158,856.074 884.461,903.935 898.765,950.087 913.069,994.319 927.372,1036.46 
  941.676,1076.37 955.979,1113.96 970.283,1149.16 984.587,1181.96 998.89,1212.34 1013.19,1240.35 1027.5,1266.04 1041.8,1289.47 1056.1,1310.75 1070.41,1329.97 
  1084.71,1347.24 1099.02,1362.7 1113.32,1376.46 1127.62,1388.65 1141.93,1399.41 1156.23,1408.85 1170.53,1417.09 1184.84,1424.27 1199.14,1430.48 1213.44,1435.83 
  1227.75,1440.42 1242.05,1444.35 1256.36,1447.68 1270.66,1450.5 1284.96,1452.88 1299.27,1454.88 1313.57,1456.55 1327.87,1457.93 1342.18,1459.08 1356.48,1460.03 
  1370.78,1460.81 1385.09,1461.44 1399.39,1461.96 1413.7,1462.38 1428,1462.71 1442.3,1462.99 1456.61,1463.2 1470.91,1463.38 1485.21,1463.51 1499.52,1463.62 
  1513.82,1463.71 1528.12,1463.77 1542.43,1463.82 1556.73,1463.86 1571.03,1463.9 1585.34,1463.92 1599.64,1463.94 1613.95,1463.95 1628.25,1463.96 1642.55,1463.97 
  1656.86,1463.98 1671.16,1463.98 1685.46,1463.99 1699.77,1463.99 1714.07,1463.99 1728.37,1463.99 1742.68,1463.99 1756.98,1463.99 1771.29,1463.99 1785.59,1463.99 
  1799.89,1463.99 1814.2,1463.99 1828.5,1463.99 1842.8,1463.99 1857.11,1464 1871.41,1464 1885.71,1464 1900.02,1464 1914.32,1464 1928.63,1464 
  1942.93,1464 1957.23,1464 1971.54,1464 1985.84,1464 2000.14,1464 2014.45,1464 2028.75,1464 2043.05,1464 2057.36,1464 2071.66,1464 
  2085.96,1464 
  "/>
<polyline clip-path="url(#clip002)" style="stroke:#3da44d; stroke-linecap:butt; stroke-linejoin:round; stroke-width:12; stroke-opacity:1; fill:none" points="
  226.495,1023.84 240.799,956.935 255.102,888.195 269.406,818.389 283.709,748.298 298.013,678.703 312.317,610.368 326.62,544.026 340.924,480.37 355.228,420.037 
  369.531,363.606 383.835,311.585 398.138,264.411 412.442,222.444 426.746,185.964 441.049,155.175 455.353,130.203 469.656,111.1 483.96,97.8491 498.264,90.3664 
  512.567,88.5087 526.871,92.0787 541.175,100.832 555.478,114.483 569.782,132.713 584.085,155.175 598.389,181.502 612.693,211.314 626.996,244.222 641.3,279.832 
  655.603,317.756 669.907,357.611 684.211,399.024 698.514,441.637 712.818,485.111 727.122,529.123 741.425,573.375 755.729,617.589 770.032,661.513 784.336,704.917 
  798.64,747.596 812.943,789.371 827.247,830.084 841.55,869.601 855.854,907.811 870.158,944.622 884.461,979.963 898.765,1013.78 913.069,1046.04 927.372,1076.71 
  941.676,1105.8 955.979,1133.3 970.283,1159.23 984.587,1183.62 998.89,1206.5 1013.19,1227.92 1027.5,1247.91 1041.8,1266.53 1056.1,1283.84 1070.41,1299.89 
  1084.71,1314.75 1099.02,1328.46 1113.32,1341.11 1127.62,1352.74 1141.93,1363.41 1156.23,1373.2 1170.53,1382.14 1184.84,1390.31 1199.14,1397.76 1213.44,1404.54 
  1227.75,1410.69 1242.05,1416.27 1256.36,1421.33 1270.66,1425.89 1284.96,1430.01 1299.27,1433.73 1313.57,1437.07 1327.87,1440.07 1342.18,1442.77 1356.48,1445.18 
  1370.78,1447.34 1385.09,1449.27 1399.39,1450.99 1413.7,1452.52 1428,1453.88 1442.3,1455.09 1456.61,1456.17 1470.91,1457.12 1485.21,1457.96 1499.52,1458.71 
  1513.82,1459.37 1528.12,1459.95 1542.43,1460.46 1556.73,1460.91 1571.03,1461.31 1585.34,1461.65 1599.64,1461.96 1613.95,1462.22 1628.25,1462.46 1642.55,1462.66 
  1656.86,1462.84 1671.16,1462.99 1685.46,1463.13 1699.77,1463.25 1714.07,1463.35 1728.37,1463.44 1742.68,1463.51 1756.98,1463.58 1771.29,1463.64 1785.59,1463.69 
  1799.89,1463.73 1814.2,1463.77 1828.5,1463.8 1842.8,1463.83 1857.11,1463.85 1871.41,1463.87 1885.71,1463.89 1900.02,1463.91 1914.32,1463.92 1928.63,1463.93 
  1942.93,1463.94 1957.23,1463.95 1971.54,1463.96 1985.84,1463.96 2000.14,1463.97 2014.45,1463.97 2028.75,1463.97 2043.05,1463.98 2057.36,1463.98 2071.66,1463.98 
  2085.96,1463.98 
  "/>
<path clip-path="url(#clip000)" d="
M1757.13 337.765 L2277.76 337.765 L2277.76 95.8446 L1757.13 95.8446  Z
  " fill="#ffffff" fill-rule="evenodd" fill-opacity="1"/>
<polyline clip-path="url(#clip000)" style="stroke:#000000; stroke-linecap:butt; stroke-linejoin:round; stroke-width:4; stroke-opacity:1; fill:none" points="
  1757.13,337.765 2277.76,337.765 2277.76,95.8446 1757.13,95.8446 1757.13,337.765 
  "/>
<path clip-path="url(#clip000)" d="
M1782.13 180.517 L1932.13 180.517 L1932.13 132.133 L1782.13 132.133 L1782.13 180.517  Z
  " fill="#009af9" fill-rule="evenodd" fill-opacity="1"/>
<polyline clip-path="url(#clip000)" style="stroke:#009af9; stroke-linecap:butt; stroke-linejoin:round; stroke-width:4; stroke-opacity:1; fill:none" points="
  1782.13,180.517 1932.13,180.517 1932.13,132.133 1782.13,132.133 1782.13,180.517 
  "/>
<path clip-path="url(#clip000)" d="M1979.38 140.179 L1979.38 144.739 Q1976.71 143.466 1974.35 142.841 Q1971.99 142.216 1969.79 142.216 Q1965.97 142.216 1963.89 143.697 Q1961.83 145.179 1961.83 147.91 Q1961.83 150.202 1963.2 151.383 Q1964.59 152.54 1968.43 153.258 L1971.25 153.836 Q1976.48 154.832 1978.96 157.355 Q1981.46 159.855 1981.46 164.068 Q1981.46 169.091 1978.08 171.683 Q1974.72 174.276 1968.22 174.276 Q1965.77 174.276 1962.99 173.72 Q1960.23 173.165 1957.27 172.077 L1957.27 167.262 Q1960.12 168.859 1962.85 169.669 Q1965.58 170.48 1968.22 170.48 Q1972.22 170.48 1974.4 168.906 Q1976.58 167.332 1976.58 164.415 Q1976.58 161.869 1975 160.433 Q1973.45 158.998 1969.89 158.281 L1967.04 157.725 Q1961.81 156.683 1959.47 154.461 Q1957.13 152.239 1957.13 148.281 Q1957.13 143.697 1960.35 141.058 Q1963.59 138.42 1969.26 138.42 Q1971.69 138.42 1974.21 138.859 Q1976.74 139.299 1979.38 140.179 Z" fill="#000000" fill-rule="evenodd" fill-opacity="1" /><path clip-path="url(#clip000)" d="M2009.47 140.179 L2009.47 144.739 Q2006.81 143.466 2004.45 142.841 Q2002.08 142.216 1999.89 142.216 Q1996.07 142.216 1993.98 143.697 Q1991.92 145.179 1991.92 147.91 Q1991.92 150.202 1993.29 151.383 Q1994.68 152.54 1998.52 153.258 L2001.34 153.836 Q2006.58 154.832 2009.05 157.355 Q2011.55 159.855 2011.55 164.068 Q2011.55 169.091 2008.17 171.683 Q2004.82 174.276 1998.31 174.276 Q1995.86 174.276 1993.08 173.72 Q1990.33 173.165 1987.36 172.077 L1987.36 167.262 Q1990.21 168.859 1992.94 169.669 Q1995.67 170.48 1998.31 170.48 Q2002.32 170.48 2004.49 168.906 Q2006.67 167.332 2006.67 164.415 Q2006.67 161.869 2005.09 160.433 Q2003.54 158.998 1999.98 158.281 L1997.13 157.725 Q1991.9 156.683 1989.56 154.461 Q1987.22 152.239 1987.22 148.281 Q1987.22 143.697 1990.44 141.058 Q1993.68 138.42 1999.35 138.42 Q2001.78 138.42 2004.31 138.859 Q2006.83 139.299 2009.47 140.179 Z" fill="#000000" fill-rule="evenodd" fill-opacity="1" /><path clip-path="url(#clip000)" d="M2031.27 143.651 L2024.93 160.85 L2037.64 160.85 L2031.27 143.651 M2028.64 139.045 L2033.94 139.045 L2047.11 173.605 L2042.25 173.605 L2039.1 164.739 L2023.52 164.739 L2020.37 173.605 L2015.44 173.605 L2028.64 139.045 Z" fill="#000000" fill-rule="evenodd" fill-opacity="1" /><polyline clip-path="url(#clip000)" style="stroke:#e26f46; stroke-linecap:butt; stroke-linejoin:round; stroke-width:4; stroke-opacity:1; fill:none" points="
  1782.13,216.805 1932.13,216.805 
  "/>
<path clip-path="url(#clip000)" d="M1976.04 220.821 Q1976.04 216.191 1974.12 213.645 Q1972.22 211.099 1968.77 211.099 Q1965.35 211.099 1963.43 213.645 Q1961.53 216.191 1961.53 220.821 Q1961.53 225.427 1963.43 227.974 Q1965.35 230.52 1968.77 230.52 Q1972.22 230.52 1974.12 227.974 Q1976.04 225.427 1976.04 220.821 M1980.3 230.867 Q1980.3 237.487 1977.36 240.705 Q1974.42 243.946 1968.36 243.946 Q1966.11 243.946 1964.12 243.598 Q1962.13 243.274 1960.26 242.58 L1960.26 238.436 Q1962.13 239.455 1963.96 239.941 Q1965.79 240.427 1967.69 240.427 Q1971.88 240.427 1973.96 238.228 Q1976.04 236.052 1976.04 231.631 L1976.04 229.524 Q1974.72 231.816 1972.66 232.95 Q1970.6 234.085 1967.73 234.085 Q1962.96 234.085 1960.05 230.45 Q1957.13 226.816 1957.13 220.821 Q1957.13 214.802 1960.05 211.168 Q1962.96 207.534 1967.73 207.534 Q1970.6 207.534 1972.66 208.668 Q1974.72 209.802 1976.04 212.094 L1976.04 208.159 L1980.3 208.159 L1980.3 230.867 Z" fill="#000000" fill-rule="evenodd" fill-opacity="1" /><path clip-path="url(#clip000)" d="M2000.86 221.052 Q1995.7 221.052 1993.71 222.233 Q1991.71 223.413 1991.71 226.261 Q1991.71 228.529 1993.2 229.872 Q1994.7 231.191 1997.27 231.191 Q2000.81 231.191 2002.94 228.691 Q2005.09 226.168 2005.09 222.001 L2005.09 221.052 L2000.86 221.052 M2009.35 219.293 L2009.35 234.085 L2005.09 234.085 L2005.09 230.149 Q2003.64 232.511 2001.46 233.645 Q1999.28 234.756 1996.14 234.756 Q1992.15 234.756 1989.79 232.534 Q1987.46 230.288 1987.46 226.538 Q1987.46 222.163 1990.37 219.941 Q1993.31 217.719 1999.12 217.719 L2005.09 217.719 L2005.09 217.302 Q2005.09 214.363 2003.15 212.765 Q2001.23 211.145 1997.73 211.145 Q1995.51 211.145 1993.4 211.677 Q1991.3 212.21 1989.35 213.275 L1989.35 209.339 Q1991.69 208.437 1993.89 207.997 Q1996.09 207.534 1998.17 207.534 Q2003.8 207.534 2006.58 210.45 Q2009.35 213.367 2009.35 219.293 Z" fill="#000000" fill-rule="evenodd" fill-opacity="1" /><path clip-path="url(#clip000)" d="M2017.69 223.853 L2017.69 208.159 L2021.95 208.159 L2021.95 223.691 Q2021.95 227.372 2023.38 229.224 Q2024.82 231.052 2027.69 231.052 Q2031.14 231.052 2033.13 228.853 Q2035.14 226.654 2035.14 222.858 L2035.14 208.159 L2039.4 208.159 L2039.4 234.085 L2035.14 234.085 L2035.14 230.103 Q2033.59 232.464 2031.53 233.622 Q2029.49 234.756 2026.78 234.756 Q2022.32 234.756 2020 231.978 Q2017.69 229.2 2017.69 223.853 M2028.4 207.534 L2028.4 207.534 Z" fill="#000000" fill-rule="evenodd" fill-opacity="1" /><path clip-path="url(#clip000)" d="M2064.7 208.923 L2064.7 212.95 Q2062.89 212.025 2060.95 211.562 Q2059.01 211.099 2056.92 211.099 Q2053.75 211.099 2052.15 212.071 Q2050.58 213.043 2050.58 214.987 Q2050.58 216.469 2051.71 217.325 Q2052.85 218.159 2056.27 218.923 L2057.73 219.247 Q2062.27 220.219 2064.17 222.001 Q2066.09 223.761 2066.09 226.932 Q2066.09 230.543 2063.22 232.649 Q2060.37 234.756 2055.37 234.756 Q2053.29 234.756 2051.02 234.339 Q2048.77 233.946 2046.27 233.136 L2046.27 228.737 Q2048.64 229.964 2050.93 230.589 Q2053.22 231.191 2055.46 231.191 Q2058.47 231.191 2060.09 230.173 Q2061.71 229.131 2061.71 227.256 Q2061.71 225.52 2060.53 224.594 Q2059.38 223.668 2055.42 222.812 L2053.94 222.464 Q2049.98 221.631 2048.22 219.918 Q2046.46 218.182 2046.46 215.173 Q2046.46 211.515 2049.05 209.525 Q2051.64 207.534 2056.41 207.534 Q2058.77 207.534 2060.86 207.881 Q2062.94 208.228 2064.7 208.923 Z" fill="#000000" fill-rule="evenodd" fill-opacity="1" /><path clip-path="url(#clip000)" d="M2089.4 208.923 L2089.4 212.95 Q2087.59 212.025 2085.65 211.562 Q2083.7 211.099 2081.62 211.099 Q2078.45 211.099 2076.85 212.071 Q2075.28 213.043 2075.28 214.987 Q2075.28 216.469 2076.41 217.325 Q2077.55 218.159 2080.97 218.923 L2082.43 219.247 Q2086.97 220.219 2088.87 222.001 Q2090.79 223.761 2090.79 226.932 Q2090.79 230.543 2087.92 232.649 Q2085.07 234.756 2080.07 234.756 Q2077.99 234.756 2075.72 234.339 Q2073.47 233.946 2070.97 233.136 L2070.97 228.737 Q2073.33 229.964 2075.63 230.589 Q2077.92 231.191 2080.16 231.191 Q2083.17 231.191 2084.79 230.173 Q2086.41 229.131 2086.41 227.256 Q2086.41 225.52 2085.23 224.594 Q2084.08 223.668 2080.12 222.812 L2078.64 222.464 Q2074.68 221.631 2072.92 219.918 Q2071.16 218.182 2071.16 215.173 Q2071.16 211.515 2073.75 209.525 Q2076.34 207.534 2081.11 207.534 Q2083.47 207.534 2085.56 207.881 Q2087.64 208.228 2089.4 208.923 Z" fill="#000000" fill-rule="evenodd" fill-opacity="1" /><path clip-path="url(#clip000)" d="M2097.57 208.159 L2101.83 208.159 L2101.83 234.085 L2097.57 234.085 L2097.57 208.159 M2097.57 198.066 L2101.83 198.066 L2101.83 203.46 L2097.57 203.46 L2097.57 198.066 Z" fill="#000000" fill-rule="evenodd" fill-opacity="1" /><path clip-path="url(#clip000)" d="M2122.52 221.052 Q2117.36 221.052 2115.37 222.233 Q2113.38 223.413 2113.38 226.261 Q2113.38 228.529 2114.86 229.872 Q2116.37 231.191 2118.94 231.191 Q2122.48 231.191 2124.61 228.691 Q2126.76 226.168 2126.76 222.001 L2126.76 221.052 L2122.52 221.052 M2131.02 219.293 L2131.02 234.085 L2126.76 234.085 L2126.76 230.149 Q2125.3 232.511 2123.13 233.645 Q2120.95 234.756 2117.8 234.756 Q2113.82 234.756 2111.46 232.534 Q2109.12 230.288 2109.12 226.538 Q2109.12 222.163 2112.04 219.941 Q2114.98 217.719 2120.79 217.719 L2126.76 217.719 L2126.76 217.302 Q2126.76 214.363 2124.82 212.765 Q2122.89 211.145 2119.4 211.145 Q2117.18 211.145 2115.07 211.677 Q2112.96 212.21 2111.02 213.275 L2111.02 209.339 Q2113.36 208.437 2115.56 207.997 Q2117.76 207.534 2119.84 207.534 Q2125.46 207.534 2128.24 210.45 Q2131.02 213.367 2131.02 219.293 Z" fill="#000000" fill-rule="evenodd" fill-opacity="1" /><path clip-path="url(#clip000)" d="M2161.34 218.437 L2161.34 234.085 L2157.08 234.085 L2157.08 218.575 Q2157.08 214.895 2155.65 213.066 Q2154.21 211.238 2151.34 211.238 Q2147.89 211.238 2145.9 213.437 Q2143.91 215.636 2143.91 219.432 L2143.91 234.085 L2139.63 234.085 L2139.63 208.159 L2143.91 208.159 L2143.91 212.187 Q2145.44 209.849 2147.5 208.691 Q2149.58 207.534 2152.29 207.534 Q2156.76 207.534 2159.05 210.312 Q2161.34 213.066 2161.34 218.437 Z" fill="#000000" fill-rule="evenodd" fill-opacity="1" /><path clip-path="url(#clip000)" d="M2198.03 198.066 L2198.03 201.608 L2193.96 201.608 Q2191.67 201.608 2190.76 202.534 Q2189.88 203.46 2189.88 205.867 L2189.88 208.159 L2196.9 208.159 L2196.9 211.469 L2189.88 211.469 L2189.88 234.085 L2185.6 234.085 L2185.6 211.469 L2181.53 211.469 L2181.53 208.159 L2185.6 208.159 L2185.6 206.353 Q2185.6 202.025 2187.62 200.057 Q2189.63 198.066 2194.01 198.066 L2198.03 198.066 Z" fill="#000000" fill-rule="evenodd" fill-opacity="1" /><path clip-path="url(#clip000)" d="M2201.6 208.159 L2205.86 208.159 L2205.86 234.085 L2201.6 234.085 L2201.6 208.159 M2201.6 198.066 L2205.86 198.066 L2205.86 203.46 L2201.6 203.46 L2201.6 198.066 Z" fill="#000000" fill-rule="evenodd" fill-opacity="1" /><path clip-path="url(#clip000)" d="M2218.98 200.798 L2218.98 208.159 L2227.76 208.159 L2227.76 211.469 L2218.98 211.469 L2218.98 225.543 Q2218.98 228.714 2219.84 229.617 Q2220.72 230.52 2223.38 230.52 L2227.76 230.52 L2227.76 234.085 L2223.38 234.085 Q2218.45 234.085 2216.57 232.256 Q2214.7 230.404 2214.7 225.543 L2214.7 211.469 L2211.57 211.469 L2211.57 208.159 L2214.7 208.159 L2214.7 200.798 L2218.98 200.798 Z" fill="#000000" fill-rule="evenodd" fill-opacity="1" /><polyline clip-path="url(#clip000)" style="stroke:#3da44d; stroke-linecap:butt; stroke-linejoin:round; stroke-width:4; stroke-opacity:1; fill:none" points="
  1782.13,277.285 1932.13,277.285 
  "/>
<path clip-path="url(#clip000)" d="M1961.41 290.676 L1961.41 304.426 L1957.13 304.426 L1957.13 268.639 L1961.41 268.639 L1961.41 272.574 Q1962.76 270.259 1964.79 269.148 Q1966.85 268.014 1969.7 268.014 Q1974.42 268.014 1977.36 271.764 Q1980.33 275.514 1980.33 281.625 Q1980.33 287.736 1977.36 291.486 Q1974.42 295.236 1969.7 295.236 Q1966.85 295.236 1964.79 294.125 Q1962.76 292.991 1961.41 290.676 M1975.9 281.625 Q1975.9 276.926 1973.96 274.264 Q1972.04 271.579 1968.66 271.579 Q1965.28 271.579 1963.34 274.264 Q1961.41 276.926 1961.41 281.625 Q1961.41 286.324 1963.34 289.009 Q1965.28 291.671 1968.66 291.671 Q1972.04 291.671 1973.96 289.009 Q1975.9 286.324 1975.9 281.625 Z" fill="#000000" fill-rule="evenodd" fill-opacity="1" /><path clip-path="url(#clip000)" d="M1997.43 271.625 Q1994.01 271.625 1992.02 274.31 Q1990.02 276.972 1990.02 281.625 Q1990.02 286.278 1991.99 288.963 Q1993.98 291.625 1997.43 291.625 Q2000.83 291.625 2002.83 288.94 Q2004.82 286.254 2004.82 281.625 Q2004.82 277.018 2002.83 274.333 Q2000.83 271.625 1997.43 271.625 M1997.43 268.014 Q2002.99 268.014 2006.16 271.625 Q2009.33 275.236 2009.33 281.625 Q2009.33 287.991 2006.16 291.625 Q2002.99 295.236 1997.43 295.236 Q1991.85 295.236 1988.68 291.625 Q1985.53 287.991 1985.53 281.625 Q1985.53 275.236 1988.68 271.625 Q1991.85 268.014 1997.43 268.014 Z" fill="#000000" fill-rule="evenodd" fill-opacity="1" /><path clip-path="url(#clip000)" d="M2016.39 268.639 L2020.65 268.639 L2020.65 294.565 L2016.39 294.565 L2016.39 268.639 M2016.39 258.546 L2020.65 258.546 L2020.65 263.94 L2016.39 263.94 L2016.39 258.546 Z" fill="#000000" fill-rule="evenodd" fill-opacity="1" /><path clip-path="url(#clip000)" d="M2046.09 269.403 L2046.09 273.43 Q2044.28 272.505 2042.34 272.042 Q2040.39 271.579 2038.31 271.579 Q2035.14 271.579 2033.54 272.551 Q2031.97 273.523 2031.97 275.467 Q2031.97 276.949 2033.1 277.805 Q2034.24 278.639 2037.66 279.403 L2039.12 279.727 Q2043.66 280.699 2045.56 282.481 Q2047.48 284.241 2047.48 287.412 Q2047.48 291.023 2044.61 293.129 Q2041.76 295.236 2036.76 295.236 Q2034.68 295.236 2032.41 294.819 Q2030.16 294.426 2027.66 293.616 L2027.66 289.217 Q2030.02 290.444 2032.32 291.069 Q2034.61 291.671 2036.85 291.671 Q2039.86 291.671 2041.48 290.653 Q2043.1 289.611 2043.1 287.736 Q2043.1 286 2041.92 285.074 Q2040.77 284.148 2036.81 283.292 L2035.33 282.944 Q2031.37 282.111 2029.61 280.398 Q2027.85 278.662 2027.85 275.653 Q2027.85 271.995 2030.44 270.005 Q2033.03 268.014 2037.8 268.014 Q2040.16 268.014 2042.25 268.361 Q2044.33 268.708 2046.09 269.403 Z" fill="#000000" fill-rule="evenodd" fill-opacity="1" /><path clip-path="url(#clip000)" d="M2070.79 269.403 L2070.79 273.43 Q2068.98 272.505 2067.04 272.042 Q2065.09 271.579 2063.01 271.579 Q2059.84 271.579 2058.24 272.551 Q2056.67 273.523 2056.67 275.467 Q2056.67 276.949 2057.8 277.805 Q2058.94 278.639 2062.36 279.403 L2063.82 279.727 Q2068.36 280.699 2070.26 282.481 Q2072.18 284.241 2072.18 287.412 Q2072.18 291.023 2069.31 293.129 Q2066.46 295.236 2061.46 295.236 Q2059.38 295.236 2057.11 294.819 Q2054.86 294.426 2052.36 293.616 L2052.36 289.217 Q2054.72 290.444 2057.02 291.069 Q2059.31 291.671 2061.55 291.671 Q2064.56 291.671 2066.18 290.653 Q2067.8 289.611 2067.8 287.736 Q2067.8 286 2066.62 285.074 Q2065.46 284.148 2061.51 283.292 L2060.02 282.944 Q2056.07 282.111 2054.31 280.398 Q2052.55 278.662 2052.55 275.653 Q2052.55 271.995 2055.14 270.005 Q2057.73 268.014 2062.5 268.014 Q2064.86 268.014 2066.95 268.361 Q2069.03 268.708 2070.79 269.403 Z" fill="#000000" fill-rule="evenodd" fill-opacity="1" /><path clip-path="url(#clip000)" d="M2089.01 271.625 Q2085.58 271.625 2083.59 274.31 Q2081.6 276.972 2081.6 281.625 Q2081.6 286.278 2083.57 288.963 Q2085.56 291.625 2089.01 291.625 Q2092.41 291.625 2094.4 288.94 Q2096.39 286.254 2096.39 281.625 Q2096.39 277.018 2094.4 274.333 Q2092.41 271.625 2089.01 271.625 M2089.01 268.014 Q2094.56 268.014 2097.73 271.625 Q2100.9 275.236 2100.9 281.625 Q2100.9 287.991 2097.73 291.625 Q2094.56 295.236 2089.01 295.236 Q2083.43 295.236 2080.26 291.625 Q2077.11 287.991 2077.11 281.625 Q2077.11 275.236 2080.26 271.625 Q2083.43 268.014 2089.01 268.014 Z" fill="#000000" fill-rule="evenodd" fill-opacity="1" /><path clip-path="url(#clip000)" d="M2129.51 278.917 L2129.51 294.565 L2125.26 294.565 L2125.26 279.055 Q2125.26 275.375 2123.82 273.546 Q2122.39 271.718 2119.51 271.718 Q2116.07 271.718 2114.08 273.917 Q2112.08 276.116 2112.08 279.912 L2112.08 294.565 L2107.8 294.565 L2107.8 268.639 L2112.08 268.639 L2112.08 272.667 Q2113.61 270.329 2115.67 269.171 Q2117.76 268.014 2120.46 268.014 Q2124.93 268.014 2127.22 270.792 Q2129.51 273.546 2129.51 278.917 Z" fill="#000000" fill-rule="evenodd" fill-opacity="1" /><path clip-path="url(#clip000)" d="M2166.2 258.546 L2166.2 262.088 L2162.13 262.088 Q2159.84 262.088 2158.94 263.014 Q2158.06 263.94 2158.06 266.347 L2158.06 268.639 L2165.07 268.639 L2165.07 271.949 L2158.06 271.949 L2158.06 294.565 L2153.77 294.565 L2153.77 271.949 L2149.7 271.949 L2149.7 268.639 L2153.77 268.639 L2153.77 266.833 Q2153.77 262.505 2155.79 260.537 Q2157.8 258.546 2162.18 258.546 L2166.2 258.546 Z" fill="#000000" fill-rule="evenodd" fill-opacity="1" /><path clip-path="url(#clip000)" d="M2169.77 268.639 L2174.03 268.639 L2174.03 294.565 L2169.77 294.565 L2169.77 268.639 M2169.77 258.546 L2174.03 258.546 L2174.03 263.94 L2169.77 263.94 L2169.77 258.546 Z" fill="#000000" fill-rule="evenodd" fill-opacity="1" /><path clip-path="url(#clip000)" d="M2187.15 261.278 L2187.15 268.639 L2195.93 268.639 L2195.93 271.949 L2187.15 271.949 L2187.15 286.023 Q2187.15 289.194 2188.01 290.097 Q2188.89 291 2191.55 291 L2195.93 291 L2195.93 294.565 L2191.55 294.565 Q2186.62 294.565 2184.75 292.736 Q2182.87 290.884 2182.87 286.023 L2182.87 271.949 L2179.75 271.949 L2179.75 268.639 L2182.87 268.639 L2182.87 261.278 L2187.15 261.278 Z" fill="#000000" fill-rule="evenodd" fill-opacity="1" /></svg>
