<?xml version="1.0" encoding="utf-8"?>
<svg xmlns="http://www.w3.org/2000/svg" xmlns:xlink="http://www.w3.org/1999/xlink" width="600" height="400" viewBox="0 0 2400 1600">
<defs>
  <clipPath id="clip340">
    <rect x="0" y="0" width="2400" height="1600"/>
  </clipPath>
</defs>
<path clip-path="url(#clip340)" d="
M0 1600 L2400 1600 L2400 0 L0 0  Z
  " fill="#ffffff" fill-rule="evenodd" fill-opacity="1"/>
<defs>
  <clipPath id="clip341">
    <rect x="480" y="0" width="1681" height="1600"/>
  </clipPath>
</defs>
<path clip-path="url(#clip340)" d="
M219.38 1423.18 L2352.76 1423.18 L2352.76 47.2441 L219.38 47.2441  Z
  " fill="#ffffff" fill-rule="evenodd" fill-opacity="1"/>
<defs>
  <clipPath id="clip342">
    <rect x="219" y="47" width="2134" height="1377"/>
  </clipPath>
</defs>
<polyline clip-path="url(#clip342)" style="stroke:#000000; stroke-linecap:butt; stroke-linejoin:round; stroke-width:2; stroke-opacity:0.1; fill:none" points="
  336.72,1423.18 336.72,47.2441 
  "/>
<polyline clip-path="url(#clip342)" style="stroke:#000000; stroke-linecap:butt; stroke-linejoin:round; stroke-width:2; stroke-opacity:0.1; fill:none" points="
  758.652,1423.18 758.652,47.2441 
  "/>
<polyline clip-path="url(#clip342)" style="stroke:#000000; stroke-linecap:butt; stroke-linejoin:round; stroke-width:2; stroke-opacity:0.1; fill:none" points="
  1180.58,1423.18 1180.58,47.2441 
  "/>
<polyline clip-path="url(#clip342)" style="stroke:#000000; stroke-linecap:butt; stroke-linejoin:round; stroke-width:2; stroke-opacity:0.1; fill:none" points="
  1602.52,1423.18 1602.52,47.2441 
  "/>
<polyline clip-path="url(#clip342)" style="stroke:#000000; stroke-linecap:butt; stroke-linejoin:round; stroke-width:2; stroke-opacity:0.1; fill:none" points="
  2024.45,1423.18 2024.45,47.2441 
  "/>
<polyline clip-path="url(#clip340)" style="stroke:#000000; stroke-linecap:butt; stroke-linejoin:round; stroke-width:4; stroke-opacity:1; fill:none" points="
  219.38,1423.18 2352.76,1423.18 
  "/>
<polyline clip-path="url(#clip340)" style="stroke:#000000; stroke-linecap:butt; stroke-linejoin:round; stroke-width:4; stroke-opacity:1; fill:none" points="
  336.72,1423.18 336.72,1406.67 
  "/>
<polyline clip-path="url(#clip340)" style="stroke:#000000; stroke-linecap:butt; stroke-linejoin:round; stroke-width:4; stroke-opacity:1; fill:none" points="
  758.652,1423.18 758.652,1406.67 
  "/>
<polyline clip-path="url(#clip340)" style="stroke:#000000; stroke-linecap:butt; stroke-linejoin:round; stroke-width:4; stroke-opacity:1; fill:none" points="
  1180.58,1423.18 1180.58,1406.67 
  "/>
<polyline clip-path="url(#clip340)" style="stroke:#000000; stroke-linecap:butt; stroke-linejoin:round; stroke-width:4; stroke-opacity:1; fill:none" points="
  1602.52,1423.18 1602.52,1406.67 
  "/>
<polyline clip-path="url(#clip340)" style="stroke:#000000; stroke-linecap:butt; stroke-linejoin:round; stroke-width:4; stroke-opacity:1; fill:none" points="
  2024.45,1423.18 2024.45,1406.67 
  "/>
<path clip-path="url(#clip340)" d="M336.72 1452.37 Q333.109 1452.37 331.28 1455.94 Q329.474 1459.48 329.474 1466.61 Q329.474 1473.71 331.28 1477.28 Q333.109 1480.82 336.72 1480.82 Q340.354 1480.82 342.159 1477.28 Q343.988 1473.71 343.988 1466.61 Q343.988 1459.48 342.159 1455.94 Q340.354 1452.37 336.72 1452.37 M336.72 1448.67 Q342.53 1448.67 345.585 1453.27 Q348.664 1457.86 348.664 1466.61 Q348.664 1475.33 345.585 1479.94 Q342.53 1484.52 336.72 1484.52 Q330.909 1484.52 327.831 1479.94 Q324.775 1475.33 324.775 1466.61 Q324.775 1457.86 327.831 1453.27 Q330.909 1448.67 336.72 1448.67 Z" fill="#000000" fill-rule="evenodd" fill-opacity="1" /><path clip-path="url(#clip340)" d="M753.305 1479.92 L769.624 1479.92 L769.624 1483.85 L747.68 1483.85 L747.68 1479.92 Q750.342 1477.16 754.925 1472.53 Q759.532 1467.88 760.712 1466.54 Q762.958 1464.01 763.837 1462.28 Q764.74 1460.52 764.74 1458.83 Q764.74 1456.07 762.796 1454.34 Q760.874 1452.6 757.773 1452.6 Q755.574 1452.6 753.12 1453.37 Q750.689 1454.13 747.912 1455.68 L747.912 1450.96 Q750.736 1449.82 753.189 1449.25 Q755.643 1448.67 757.68 1448.67 Q763.05 1448.67 766.245 1451.35 Q769.439 1454.04 769.439 1458.53 Q769.439 1460.66 768.629 1462.58 Q767.842 1464.48 765.736 1467.07 Q765.157 1467.74 762.055 1470.96 Q758.953 1474.15 753.305 1479.92 Z" fill="#000000" fill-rule="evenodd" fill-opacity="1" /><path clip-path="url(#clip340)" d="M1183.59 1453.37 L1171.79 1471.81 L1183.59 1471.81 L1183.59 1453.37 M1182.37 1449.29 L1188.25 1449.29 L1188.25 1471.81 L1193.18 1471.81 L1193.18 1475.7 L1188.25 1475.7 L1188.25 1483.85 L1183.59 1483.85 L1183.59 1475.7 L1167.99 1475.7 L1167.99 1471.19 L1182.37 1449.29 Z" fill="#000000" fill-rule="evenodd" fill-opacity="1" /><path clip-path="url(#clip340)" d="M1602.92 1464.71 Q1599.77 1464.71 1597.92 1466.86 Q1596.09 1469.01 1596.09 1472.76 Q1596.09 1476.49 1597.92 1478.67 Q1599.77 1480.82 1602.92 1480.82 Q1606.07 1480.82 1607.9 1478.67 Q1609.75 1476.49 1609.75 1472.76 Q1609.75 1469.01 1607.9 1466.86 Q1606.07 1464.71 1602.92 1464.71 M1612.2 1450.06 L1612.2 1454.31 Q1610.45 1453.48 1608.64 1453.04 Q1606.86 1452.6 1605.1 1452.6 Q1600.47 1452.6 1598.02 1455.73 Q1595.58 1458.85 1595.24 1465.17 Q1596.6 1463.16 1598.66 1462.09 Q1600.72 1461 1603.2 1461 Q1608.41 1461 1611.42 1464.18 Q1614.45 1467.32 1614.45 1472.76 Q1614.45 1478.09 1611.3 1481.31 Q1608.15 1484.52 1602.92 1484.52 Q1596.93 1484.52 1593.76 1479.94 Q1590.58 1475.33 1590.58 1466.61 Q1590.58 1458.41 1594.47 1453.55 Q1598.36 1448.67 1604.91 1448.67 Q1606.67 1448.67 1608.45 1449.01 Q1610.26 1449.36 1612.2 1450.06 Z" fill="#000000" fill-rule="evenodd" fill-opacity="1" /><path clip-path="url(#clip340)" d="M2024.45 1467.44 Q2021.12 1467.44 2019.2 1469.22 Q2017.3 1471 2017.3 1474.13 Q2017.3 1477.25 2019.2 1479.04 Q2021.12 1480.82 2024.45 1480.82 Q2027.78 1480.82 2029.7 1479.04 Q2031.63 1477.23 2031.63 1474.13 Q2031.63 1471 2029.7 1469.22 Q2027.81 1467.44 2024.45 1467.44 M2019.77 1465.45 Q2016.76 1464.71 2015.08 1462.65 Q2013.41 1460.59 2013.41 1457.63 Q2013.41 1453.48 2016.35 1451.07 Q2019.31 1448.67 2024.45 1448.67 Q2029.61 1448.67 2032.55 1451.07 Q2035.49 1453.48 2035.49 1457.63 Q2035.49 1460.59 2033.8 1462.65 Q2032.14 1464.71 2029.15 1465.45 Q2032.53 1466.24 2034.4 1468.53 Q2036.3 1470.82 2036.3 1474.13 Q2036.3 1479.15 2033.22 1481.84 Q2030.17 1484.52 2024.45 1484.52 Q2018.73 1484.52 2015.65 1481.84 Q2012.6 1479.15 2012.6 1474.13 Q2012.6 1470.82 2014.5 1468.53 Q2016.39 1466.24 2019.77 1465.45 M2018.06 1458.06 Q2018.06 1460.75 2019.73 1462.25 Q2021.42 1463.76 2024.45 1463.76 Q2027.46 1463.76 2029.15 1462.25 Q2030.86 1460.75 2030.86 1458.06 Q2030.86 1455.38 2029.15 1453.88 Q2027.46 1452.37 2024.45 1452.37 Q2021.42 1452.37 2019.73 1453.88 Q2018.06 1455.38 2018.06 1458.06 Z" fill="#000000" fill-rule="evenodd" fill-opacity="1" /><path clip-path="url(#clip340)" d="M1288.03 1539.24 Q1290.22 1535.29 1293.28 1533.41 Q1296.33 1531.54 1300.47 1531.54 Q1306.04 1531.54 1309.06 1535.45 Q1312.09 1539.33 1312.09 1546.53 L1312.09 1568.04 L1306.2 1568.04 L1306.2 1546.72 Q1306.2 1541.59 1304.39 1539.11 Q1302.57 1536.63 1298.85 1536.63 Q1294.3 1536.63 1291.65 1539.65 Q1289.01 1542.68 1289.01 1547.9 L1289.01 1568.04 L1283.12 1568.04 L1283.12 1546.72 Q1283.12 1541.56 1281.31 1539.11 Q1279.5 1536.63 1275.71 1536.63 Q1271.22 1536.63 1268.58 1539.68 Q1265.94 1542.71 1265.94 1547.9 L1265.94 1568.04 L1260.05 1568.04 L1260.05 1532.4 L1265.94 1532.4 L1265.94 1537.93 Q1267.94 1534.66 1270.74 1533.1 Q1273.54 1531.54 1277.39 1531.54 Q1281.28 1531.54 1283.98 1533.51 Q1286.72 1535.48 1288.03 1539.24 Z" fill="#000000" fill-rule="evenodd" fill-opacity="1" /><polyline clip-path="url(#clip342)" style="stroke:#000000; stroke-linecap:butt; stroke-linejoin:round; stroke-width:2; stroke-opacity:0.1; fill:none" points="
  219.38,1384.24 2352.76,1384.24 
  "/>
<polyline clip-path="url(#clip342)" style="stroke:#000000; stroke-linecap:butt; stroke-linejoin:round; stroke-width:2; stroke-opacity:0.1; fill:none" points="
  219.38,1032.1 2352.76,1032.1 
  "/>
<polyline clip-path="url(#clip342)" style="stroke:#000000; stroke-linecap:butt; stroke-linejoin:round; stroke-width:2; stroke-opacity:0.1; fill:none" points="
  219.38,679.959 2352.76,679.959 
  "/>
<polyline clip-path="url(#clip342)" style="stroke:#000000; stroke-linecap:butt; stroke-linejoin:round; stroke-width:2; stroke-opacity:0.1; fill:none" points="
  219.38,327.82 2352.76,327.82 
  "/>
<polyline clip-path="url(#clip340)" style="stroke:#000000; stroke-linecap:butt; stroke-linejoin:round; stroke-width:4; stroke-opacity:1; fill:none" points="
  219.38,1423.18 219.38,47.2441 
  "/>
<polyline clip-path="url(#clip340)" style="stroke:#000000; stroke-linecap:butt; stroke-linejoin:round; stroke-width:4; stroke-opacity:1; fill:none" points="
  219.38,1384.24 244.981,1384.24 
  "/>
<polyline clip-path="url(#clip340)" style="stroke:#000000; stroke-linecap:butt; stroke-linejoin:round; stroke-width:4; stroke-opacity:1; fill:none" points="
  219.38,1032.1 244.981,1032.1 
  "/>
<polyline clip-path="url(#clip340)" style="stroke:#000000; stroke-linecap:butt; stroke-linejoin:round; stroke-width:4; stroke-opacity:1; fill:none" points="
  219.38,679.959 244.981,679.959 
  "/>
<polyline clip-path="url(#clip340)" style="stroke:#000000; stroke-linecap:butt; stroke-linejoin:round; stroke-width:4; stroke-opacity:1; fill:none" points="
  219.38,327.82 244.981,327.82 
  "/>
<path clip-path="url(#clip340)" d="M126.205 1370.04 Q122.593 1370.04 120.765 1373.6 Q118.959 1377.14 118.959 1384.27 Q118.959 1391.38 120.765 1394.94 Q122.593 1398.49 126.205 1398.49 Q129.839 1398.49 131.644 1394.94 Q133.473 1391.38 133.473 1384.27 Q133.473 1377.14 131.644 1373.6 Q129.839 1370.04 126.205 1370.04 M126.205 1366.33 Q132.015 1366.33 135.07 1370.94 Q138.149 1375.52 138.149 1384.27 Q138.149 1393 135.07 1397.61 Q132.015 1402.19 126.205 1402.19 Q120.394 1402.19 117.316 1397.61 Q114.26 1393 114.26 1384.27 Q114.26 1375.52 117.316 1370.94 Q120.394 1366.33 126.205 1366.33 Z" fill="#000000" fill-rule="evenodd" fill-opacity="1" /><path clip-path="url(#clip340)" d="M146.366 1395.64 L151.251 1395.64 L151.251 1401.52 L146.366 1401.52 L146.366 1395.64 Z" fill="#000000" fill-rule="evenodd" fill-opacity="1" /><path clip-path="url(#clip340)" d="M171.436 1370.04 Q167.825 1370.04 165.996 1373.6 Q164.19 1377.14 164.19 1384.27 Q164.19 1391.38 165.996 1394.94 Q167.825 1398.49 171.436 1398.49 Q175.07 1398.49 176.876 1394.94 Q178.704 1391.38 178.704 1384.27 Q178.704 1377.14 176.876 1373.6 Q175.07 1370.04 171.436 1370.04 M171.436 1366.33 Q177.246 1366.33 180.301 1370.94 Q183.38 1375.52 183.38 1384.27 Q183.38 1393 180.301 1397.61 Q177.246 1402.19 171.436 1402.19 Q165.626 1402.19 162.547 1397.61 Q159.491 1393 159.491 1384.27 Q159.491 1375.52 162.547 1370.94 Q165.626 1366.33 171.436 1366.33 Z" fill="#000000" fill-rule="evenodd" fill-opacity="1" /><path clip-path="url(#clip340)" d="M127.431 1017.9 Q123.82 1017.9 121.992 1021.46 Q120.186 1025 120.186 1032.13 Q120.186 1039.24 121.992 1042.8 Q123.82 1046.35 127.431 1046.35 Q131.066 1046.35 132.871 1042.8 Q134.7 1039.24 134.7 1032.13 Q134.7 1025 132.871 1021.46 Q131.066 1017.9 127.431 1017.9 M127.431 1014.19 Q133.242 1014.19 136.297 1018.8 Q139.376 1023.38 139.376 1032.13 Q139.376 1040.86 136.297 1045.47 Q133.242 1050.05 127.431 1050.05 Q121.621 1050.05 118.543 1045.47 Q115.487 1040.86 115.487 1032.13 Q115.487 1023.38 118.543 1018.8 Q121.621 1014.19 127.431 1014.19 Z" fill="#000000" fill-rule="evenodd" fill-opacity="1" /><path clip-path="url(#clip340)" d="M147.593 1043.5 L152.478 1043.5 L152.478 1049.38 L147.593 1049.38 L147.593 1043.5 Z" fill="#000000" fill-rule="evenodd" fill-opacity="1" /><path clip-path="url(#clip340)" d="M163.473 1045.44 L171.112 1045.44 L171.112 1019.08 L162.802 1020.74 L162.802 1016.49 L171.065 1014.82 L175.741 1014.82 L175.741 1045.44 L183.38 1045.44 L183.38 1049.38 L163.473 1049.38 L163.473 1045.44 Z" fill="#000000" fill-rule="evenodd" fill-opacity="1" /><path clip-path="url(#clip340)" d="M127.802 665.758 Q124.191 665.758 122.362 669.323 Q120.556 672.865 120.556 679.994 Q120.556 687.101 122.362 690.665 Q124.191 694.207 127.802 694.207 Q131.436 694.207 133.242 690.665 Q135.07 687.101 135.07 679.994 Q135.07 672.865 133.242 669.323 Q131.436 665.758 127.802 665.758 M127.802 662.054 Q133.612 662.054 136.667 666.661 Q139.746 671.244 139.746 679.994 Q139.746 688.721 136.667 693.327 Q133.612 697.911 127.802 697.911 Q121.992 697.911 118.913 693.327 Q115.857 688.721 115.857 679.994 Q115.857 671.244 118.913 666.661 Q121.992 662.054 127.802 662.054 Z" fill="#000000" fill-rule="evenodd" fill-opacity="1" /><path clip-path="url(#clip340)" d="M147.964 691.36 L152.848 691.36 L152.848 697.239 L147.964 697.239 L147.964 691.36 Z" fill="#000000" fill-rule="evenodd" fill-opacity="1" /><path clip-path="url(#clip340)" d="M167.061 693.304 L183.38 693.304 L183.38 697.239 L161.436 697.239 L161.436 693.304 Q164.098 690.55 168.681 685.92 Q173.288 681.267 174.468 679.925 Q176.714 677.402 177.593 675.665 Q178.496 673.906 178.496 672.216 Q178.496 669.462 176.551 667.726 Q174.63 665.99 171.528 665.99 Q169.329 665.99 166.876 666.754 Q164.445 667.517 161.667 669.068 L161.667 664.346 Q164.491 663.212 166.945 662.633 Q169.399 662.054 171.436 662.054 Q176.806 662.054 180.001 664.74 Q183.195 667.425 183.195 671.916 Q183.195 674.045 182.385 675.966 Q181.598 677.865 179.491 680.457 Q178.913 681.128 175.811 684.346 Q172.709 687.54 167.061 693.304 Z" fill="#000000" fill-rule="evenodd" fill-opacity="1" /><path clip-path="url(#clip340)" d="M126.853 313.619 Q123.242 313.619 121.413 317.184 Q119.607 320.725 119.607 327.855 Q119.607 334.961 121.413 338.526 Q123.242 342.068 126.853 342.068 Q130.487 342.068 132.292 338.526 Q134.121 334.961 134.121 327.855 Q134.121 320.725 132.292 317.184 Q130.487 313.619 126.853 313.619 M126.853 309.915 Q132.663 309.915 135.718 314.522 Q138.797 319.105 138.797 327.855 Q138.797 336.582 135.718 341.188 Q132.663 345.771 126.853 345.771 Q121.043 345.771 117.964 341.188 Q114.908 336.582 114.908 327.855 Q114.908 319.105 117.964 314.522 Q121.043 309.915 126.853 309.915 Z" fill="#000000" fill-rule="evenodd" fill-opacity="1" /><path clip-path="url(#clip340)" d="M147.015 339.22 L151.899 339.22 L151.899 345.1 L147.015 345.1 L147.015 339.22 Z" fill="#000000" fill-rule="evenodd" fill-opacity="1" /><path clip-path="url(#clip340)" d="M176.251 326.466 Q179.607 327.183 181.482 329.452 Q183.38 331.72 183.38 335.054 Q183.38 340.17 179.862 342.97 Q176.343 345.771 169.862 345.771 Q167.686 345.771 165.371 345.332 Q163.079 344.915 160.626 344.058 L160.626 339.545 Q162.57 340.679 164.885 341.257 Q167.2 341.836 169.723 341.836 Q174.121 341.836 176.413 340.1 Q178.727 338.364 178.727 335.054 Q178.727 331.998 176.575 330.285 Q174.445 328.549 170.626 328.549 L166.598 328.549 L166.598 324.707 L170.811 324.707 Q174.26 324.707 176.089 323.341 Q177.917 321.952 177.917 319.359 Q177.917 316.697 176.019 315.285 Q174.144 313.85 170.626 313.85 Q168.704 313.85 166.505 314.267 Q164.306 314.684 161.667 315.563 L161.667 311.397 Q164.329 310.656 166.644 310.285 Q168.982 309.915 171.042 309.915 Q176.366 309.915 179.468 312.346 Q182.57 314.753 182.57 318.873 Q182.57 321.744 180.926 323.734 Q179.283 325.702 176.251 326.466 Z" fill="#000000" fill-rule="evenodd" fill-opacity="1" /><path clip-path="url(#clip340)" d="M14.479 773.709 L19.3487 773.709 L19.3487 779.31 Q19.3487 782.461 20.6219 783.703 Q21.895 784.912 25.2052 784.912 L28.3562 784.912 L28.3562 775.268 L32.9077 775.268 L32.9077 784.912 L64.0042 784.912 L64.0042 790.801 L32.9077 790.801 L32.9077 796.402 L28.3562 796.402 L28.3562 790.801 L25.8736 790.801 Q19.9216 790.801 17.2162 788.031 Q14.479 785.262 14.479 779.247 L14.479 773.709 Z" fill="#000000" fill-rule="evenodd" fill-opacity="1" /><path clip-path="url(#clip340)" d="M33.8307 748.15 Q33.2578 749.137 33.0032 750.315 Q32.7167 751.46 32.7167 752.861 Q32.7167 757.826 35.9632 760.5 Q39.1779 763.142 45.2253 763.142 L64.0042 763.142 L64.0042 769.03 L28.3562 769.03 L28.3562 763.142 L33.8944 763.142 Q30.6479 761.295 29.0883 758.335 Q27.4968 755.375 27.4968 751.142 Q27.4968 750.537 27.5923 749.805 Q27.656 749.073 27.8151 748.182 L33.8307 748.15 Z" fill="#000000" fill-rule="evenodd" fill-opacity="1" /><path clip-path="url(#clip340)" d="M44.7161 712.948 L47.5806 712.948 L47.5806 739.875 Q53.6281 739.493 56.8109 736.246 Q59.9619 732.968 59.9619 727.143 Q59.9619 723.77 59.1344 720.619 Q58.3069 717.436 56.6518 714.317 L62.1899 714.317 Q63.5267 717.468 64.227 720.778 Q64.9272 724.088 64.9272 727.494 Q64.9272 736.024 59.9619 741.021 Q54.9967 745.986 46.5303 745.986 Q37.7774 745.986 32.6531 741.275 Q27.4968 736.533 27.4968 728.512 Q27.4968 721.319 32.1438 717.149 Q36.7589 712.948 44.7161 712.948 M42.9973 718.804 Q38.1912 718.868 35.3266 721.51 Q32.4621 724.12 32.4621 728.448 Q32.4621 733.35 35.2312 736.31 Q38.0002 739.238 43.0292 739.684 L42.9973 718.804 Z" fill="#000000" fill-rule="evenodd" fill-opacity="1" /><path clip-path="url(#clip340)" d="M46.212 699.835 Q52.6732 699.835 56.3653 697.193 Q60.0256 694.519 60.0256 689.872 Q60.0256 685.225 56.3653 682.552 Q52.6732 679.878 46.212 679.878 Q39.7508 679.878 36.0905 682.552 Q32.3984 685.225 32.3984 689.872 Q32.3984 694.519 36.0905 697.193 Q39.7508 699.835 46.212 699.835 M58.657 679.878 Q61.8398 681.724 63.3994 684.557 Q64.9272 687.358 64.9272 691.305 Q64.9272 697.766 59.771 701.84 Q54.6147 705.882 46.212 705.882 Q37.8093 705.882 32.6531 701.84 Q27.4968 697.766 27.4968 691.305 Q27.4968 687.358 29.0564 684.557 Q30.5842 681.724 33.7671 679.878 L28.3562 679.878 L28.3562 674.022 L77.5631 674.022 L77.5631 679.878 L58.657 679.878 Z" fill="#000000" fill-rule="evenodd" fill-opacity="1" /><path clip-path="url(#clip342)" d="
M336.72 383.046 L336.72 1384.24 L547.686 1384.24 L547.686 383.046 L336.72 383.046 L336.72 383.046  Z
  " fill="#009af9" fill-rule="evenodd" fill-opacity="1"/>
<polyline clip-path="url(#clip342)" style="stroke:#009af9; stroke-linecap:butt; stroke-linejoin:round; stroke-width:4; stroke-opacity:1; fill:none" points="
  336.72,383.046 336.72,1384.24 547.686,1384.24 547.686,383.046 336.72,383.046 
  "/>
<path clip-path="url(#clip342)" d="
M547.686 114.867 L547.686 1384.24 L758.652 1384.24 L758.652 114.867 L547.686 114.867 L547.686 114.867  Z
  " fill="#009af9" fill-rule="evenodd" fill-opacity="1"/>
<polyline clip-path="url(#clip342)" style="stroke:#009af9; stroke-linecap:butt; stroke-linejoin:round; stroke-width:4; stroke-opacity:1; fill:none" points="
  547.686,114.867 547.686,1384.24 758.652,1384.24 758.652,114.867 547.686,114.867 
  "/>
<path clip-path="url(#clip342)" d="
M758.652 598.491 L758.652 1384.24 L969.619 1384.24 L969.619 598.491 L758.652 598.491 L758.652 598.491  Z
  " fill="#009af9" fill-rule="evenodd" fill-opacity="1"/>
<polyline clip-path="url(#clip342)" style="stroke:#009af9; stroke-linecap:butt; stroke-linejoin:round; stroke-width:4; stroke-opacity:1; fill:none" points="
  758.652,598.491 758.652,1384.24 969.619,1384.24 969.619,598.491 758.652,598.491 
  "/>
<path clip-path="url(#clip342)" d="
M969.619 1053 L969.619 1384.24 L1180.58 1384.24 L1180.58 1053 L969.619 1053 L969.619 1053  Z
  " fill="#009af9" fill-rule="evenodd" fill-opacity="1"/>
<polyline clip-path="url(#clip342)" style="stroke:#009af9; stroke-linecap:butt; stroke-linejoin:round; stroke-width:4; stroke-opacity:1; fill:none" points="
  969.619,1053 969.619,1384.24 1180.58,1384.24 1180.58,1053 969.619,1053 
  "/>
<path clip-path="url(#clip342)" d="
M1180.58 1281.7 L1180.58 1384.24 L1391.55 1384.24 L1391.55 1281.7 L1180.58 1281.7 L1180.58 1281.7  Z
  " fill="#009af9" fill-rule="evenodd" fill-opacity="1"/>
<polyline clip-path="url(#clip342)" style="stroke:#009af9; stroke-linecap:butt; stroke-linejoin:round; stroke-width:4; stroke-opacity:1; fill:none" points="
  1180.58,1281.7 1180.58,1384.24 1391.55,1384.24 1391.55,1281.7 1180.58,1281.7 
  "/>
<path clip-path="url(#clip342)" d="
M1391.55 1359.74 L1391.55 1384.24 L1602.52 1384.24 L1602.52 1359.74 L1391.55 1359.74 L1391.55 1359.74  Z
  " fill="#009af9" fill-rule="evenodd" fill-opacity="1"/>
<polyline clip-path="url(#clip342)" style="stroke:#009af9; stroke-linecap:butt; stroke-linejoin:round; stroke-width:4; stroke-opacity:1; fill:none" points="
  1391.55,1359.74 1391.55,1384.24 1602.52,1384.24 1602.52,1359.74 1391.55,1359.74 
  "/>
<path clip-path="url(#clip342)" d="
M1602.52 1378.53 L1602.52 1384.24 L1813.48 1384.24 L1813.48 1378.53 L1602.52 1378.53 L1602.52 1378.53  Z
  " fill="#009af9" fill-rule="evenodd" fill-opacity="1"/>
<polyline clip-path="url(#clip342)" style="stroke:#009af9; stroke-linecap:butt; stroke-linejoin:round; stroke-width:4; stroke-opacity:1; fill:none" points="
  1602.52,1378.53 1602.52,1384.24 1813.48,1384.24 1813.48,1378.53 1602.52,1378.53 
  "/>
<path clip-path="url(#clip342)" d="
M1813.48 1383.36 L1813.48 1384.24 L2024.45 1384.24 L2024.45 1383.36 L1813.48 1383.36 L1813.48 1383.36  Z
  " fill="#009af9" fill-rule="evenodd" fill-opacity="1"/>
<polyline clip-path="url(#clip342)" style="stroke:#009af9; stroke-linecap:butt; stroke-linejoin:round; stroke-width:4; stroke-opacity:1; fill:none" points="
  1813.48,1383.36 1813.48,1384.24 2024.45,1384.24 2024.45,1383.36 1813.48,1383.36 
  "/>
<path clip-path="url(#clip342)" d="
M2024.45 1384.03 L2024.45 1384.24 L2235.42 1384.24 L2235.42 1384.03 L2024.45 1384.03 L2024.45 1384.03  Z
  " fill="#009af9" fill-rule="evenodd" fill-opacity="1"/>
<polyline clip-path="url(#clip342)" style="stroke:#009af9; stroke-linecap:butt; stroke-linejoin:round; stroke-width:4; stroke-opacity:1; fill:none" points="
  2024.45,1384.03 2024.45,1384.24 2235.42,1384.24 2235.42,1384.03 2024.45,1384.03 
  "/>
<polyline clip-path="url(#clip342)" style="stroke:#e26f46; stroke-linecap:butt; stroke-linejoin:round; stroke-width:12; stroke-opacity:1; fill:none" points="
  336.72,711.671 357.816,643.904 378.913,575.802 400.01,508.47 421.106,443.089 442.203,380.886 463.299,323.095 484.396,270.918 505.493,225.483 526.589,187.803 
  547.686,158.741 568.783,138.975 589.879,128.973 610.976,128.973 632.072,138.975 653.169,158.741 674.266,187.803 695.362,225.483 716.459,270.918 737.556,323.095 
  758.652,380.886 779.749,443.089 800.846,508.47 821.942,575.802 843.039,643.904 864.135,711.671 885.232,778.104 906.329,842.327 927.425,903.606 948.522,961.353 
  969.619,1015.13 990.715,1064.63 1011.81,1109.7 1032.91,1150.29 1054.01,1186.47 1075.1,1218.39 1096.2,1246.26 1117.29,1270.36 1138.39,1291.01 1159.49,1308.51 
  1180.58,1323.22 1201.68,1335.47 1222.78,1345.57 1243.87,1353.82 1264.97,1360.5 1286.07,1365.86 1307.16,1370.13 1328.26,1373.49 1349.36,1376.11 1370.45,1378.15 
  1391.55,1379.71 1412.65,1380.89 1433.74,1381.79 1454.84,1382.46 1475.94,1382.96 1497.03,1383.32 1518.13,1383.59 1539.23,1383.78 1560.32,1383.92 1581.42,1384.02 
  1602.52,1384.09 1623.61,1384.14 1644.71,1384.17 1665.81,1384.19 1686.9,1384.21 1708,1384.22 1729.1,1384.22 1750.19,1384.23 1771.29,1384.23 1792.39,1384.23 
  1813.48,1384.24 1834.58,1384.24 1855.68,1384.24 1876.77,1384.24 1897.87,1384.24 1918.97,1384.24 1940.06,1384.24 1961.16,1384.24 1982.26,1384.24 2003.35,1384.24 
  2024.45,1384.24 
  "/>
<polyline clip-path="url(#clip342)" style="stroke:#3da44d; stroke-linecap:butt; stroke-linejoin:round; stroke-width:12; stroke-opacity:1; fill:none" points="
  336.72,375.342 357.816,299.82 378.913,235.275 400.01,182.253 421.106,140.99 442.203,111.449 463.299,93.3445 484.396,86.1857 505.493,89.3095 526.589,101.919 
  547.686,123.118 568.783,151.945 589.879,187.402 610.976,228.483 632.072,274.195 653.169,323.58 674.266,375.727 695.362,429.788 716.459,484.982 737.556,540.607 
  758.652,596.038 779.749,650.73 800.846,704.218 821.942,756.11 843.039,806.091 864.135,853.909 885.232,899.377 906.329,942.363 927.425,982.785 948.522,1020.6 
  969.619,1055.82 990.715,1088.47 1011.81,1118.61 1032.91,1146.31 1054.01,1171.68 1075.1,1194.84 1096.2,1215.88 1117.29,1234.96 1138.39,1252.18 1159.49,1267.69 
  1180.58,1281.61 1201.68,1294.06 1222.78,1305.18 1243.87,1315.07 1264.97,1323.85 1286.07,1331.63 1307.16,1338.49 1328.26,1344.54 1349.36,1349.85 1370.45,1354.51 
  1391.55,1358.58 1412.65,1362.14 1433.74,1365.23 1454.84,1367.93 1475.94,1370.26 1497.03,1372.28 1518.13,1374.03 1539.23,1375.53 1560.32,1376.83 1581.42,1377.94 
  1602.52,1378.89 1623.61,1379.71 1644.71,1380.41 1665.81,1381 1686.9,1381.51 1708,1381.94 1729.1,1382.3 1750.19,1382.61 1771.29,1382.88 1792.39,1383.1 
  1813.48,1383.28 1834.58,1383.44 1855.68,1383.57 1876.77,1383.68 1897.87,1383.78 1918.97,1383.86 1940.06,1383.92 1961.16,1383.97 1982.26,1384.02 2003.35,1384.06 
  2024.45,1384.09 
  "/>
<path clip-path="url(#clip340)" d="
M1773.98 335.029 L2281.64 335.029 L2281.64 93.1086 L1773.98 93.1086  Z
  " fill="#ffffff" fill-rule="evenodd" fill-opacity="1"/>
<polyline clip-path="url(#clip340)" style="stroke:#000000; stroke-linecap:butt; stroke-linejoin:round; stroke-width:4; stroke-opacity:1; fill:none" points="
  1773.98,335.029 2281.64,335.029 2281.64,93.1086 1773.98,93.1086 1773.98,335.029 
  "/>
<path clip-path="url(#clip340)" d="
M1797.68 177.781 L1939.91 177.781 L1939.91 129.397 L1797.68 129.397 L1797.68 177.781  Z
  " fill="#009af9" fill-rule="evenodd" fill-opacity="1"/>
<polyline clip-path="url(#clip340)" style="stroke:#009af9; stroke-linecap:butt; stroke-linejoin:round; stroke-width:4; stroke-opacity:1; fill:none" points="
  1797.68,177.781 1939.91,177.781 1939.91,129.397 1797.68,129.397 1797.68,177.781 
  "/>
<path clip-path="url(#clip340)" d="M1985.86 137.443 L1985.86 142.003 Q1983.19 140.73 1980.83 140.105 Q1978.47 139.48 1976.27 139.48 Q1972.45 139.48 1970.37 140.961 Q1968.31 142.443 1968.31 145.174 Q1968.31 147.466 1969.68 148.647 Q1971.07 149.804 1974.91 150.522 L1977.73 151.1 Q1982.96 152.096 1985.44 154.619 Q1987.94 157.119 1987.94 161.332 Q1987.94 166.355 1984.56 168.947 Q1981.2 171.54 1974.7 171.54 Q1972.25 171.54 1969.47 170.984 Q1966.71 170.429 1963.75 169.341 L1963.75 164.526 Q1966.6 166.123 1969.33 166.933 Q1972.06 167.744 1974.7 167.744 Q1978.7 167.744 1980.88 166.17 Q1983.06 164.596 1983.06 161.679 Q1983.06 159.133 1981.48 157.697 Q1979.93 156.262 1976.37 155.545 L1973.52 154.989 Q1968.29 153.947 1965.95 151.725 Q1963.61 149.503 1963.61 145.545 Q1963.61 140.961 1966.83 138.322 Q1970.07 135.684 1975.74 135.684 Q1978.17 135.684 1980.69 136.123 Q1983.22 136.563 1985.86 137.443 Z" fill="#000000" fill-rule="evenodd" fill-opacity="1" /><path clip-path="url(#clip340)" d="M2015.95 137.443 L2015.95 142.003 Q2013.29 140.73 2010.93 140.105 Q2008.56 139.48 2006.37 139.48 Q2002.55 139.48 2000.46 140.961 Q1998.4 142.443 1998.4 145.174 Q1998.4 147.466 1999.77 148.647 Q2001.16 149.804 2005 150.522 L2007.82 151.1 Q2013.06 152.096 2015.53 154.619 Q2018.03 157.119 2018.03 161.332 Q2018.03 166.355 2014.65 168.947 Q2011.3 171.54 2004.79 171.54 Q2002.34 171.54 1999.56 170.984 Q1996.81 170.429 1993.84 169.341 L1993.84 164.526 Q1996.69 166.123 1999.42 166.933 Q2002.15 167.744 2004.79 167.744 Q2008.8 167.744 2010.97 166.17 Q2013.15 164.596 2013.15 161.679 Q2013.15 159.133 2011.57 157.697 Q2010.02 156.262 2006.46 155.545 L2003.61 154.989 Q1998.38 153.947 1996.04 151.725 Q1993.7 149.503 1993.7 145.545 Q1993.7 140.961 1996.92 138.322 Q2000.16 135.684 2005.83 135.684 Q2008.26 135.684 2010.79 136.123 Q2013.31 136.563 2015.95 137.443 Z" fill="#000000" fill-rule="evenodd" fill-opacity="1" /><path clip-path="url(#clip340)" d="M2037.75 140.915 L2031.41 158.114 L2044.12 158.114 L2037.75 140.915 M2035.12 136.309 L2040.42 136.309 L2053.59 170.869 L2048.73 170.869 L2045.58 162.003 L2030 162.003 L2026.85 170.869 L2021.92 170.869 L2035.12 136.309 Z" fill="#000000" fill-rule="evenodd" fill-opacity="1" /><polyline clip-path="url(#clip340)" style="stroke:#e26f46; stroke-linecap:butt; stroke-linejoin:round; stroke-width:4; stroke-opacity:1; fill:none" points="
  1797.68,214.069 1939.91,214.069 
  "/>
<path clip-path="url(#clip340)" d="M1982.52 218.085 Q1982.52 213.455 1980.6 210.909 Q1978.7 208.363 1975.25 208.363 Q1971.83 208.363 1969.91 210.909 Q1968.01 213.455 1968.01 218.085 Q1968.01 222.691 1969.91 225.238 Q1971.83 227.784 1975.25 227.784 Q1978.7 227.784 1980.6 225.238 Q1982.52 222.691 1982.52 218.085 M1986.78 228.131 Q1986.78 234.751 1983.84 237.969 Q1980.9 241.21 1974.84 241.21 Q1972.59 241.21 1970.6 240.862 Q1968.61 240.538 1966.74 239.844 L1966.74 235.7 Q1968.61 236.719 1970.44 237.205 Q1972.27 237.691 1974.17 237.691 Q1978.36 237.691 1980.44 235.492 Q1982.52 233.316 1982.52 228.895 L1982.52 226.788 Q1981.2 229.08 1979.14 230.214 Q1977.08 231.349 1974.21 231.349 Q1969.44 231.349 1966.53 227.714 Q1963.61 224.08 1963.61 218.085 Q1963.61 212.066 1966.53 208.432 Q1969.44 204.798 1974.21 204.798 Q1977.08 204.798 1979.14 205.932 Q1981.2 207.066 1982.52 209.358 L1982.52 205.423 L1986.78 205.423 L1986.78 228.131 Z" fill="#000000" fill-rule="evenodd" fill-opacity="1" /><path clip-path="url(#clip340)" d="M2007.34 218.316 Q2002.18 218.316 2000.19 219.497 Q1998.19 220.677 1998.19 223.525 Q1998.19 225.793 1999.68 227.136 Q2001.18 228.455 2003.75 228.455 Q2007.29 228.455 2009.42 225.955 Q2011.57 223.432 2011.57 219.265 L2011.57 218.316 L2007.34 218.316 M2015.83 216.557 L2015.83 231.349 L2011.57 231.349 L2011.57 227.413 Q2010.12 229.775 2007.94 230.909 Q2005.76 232.02 2002.62 232.02 Q1998.63 232.02 1996.27 229.798 Q1993.94 227.552 1993.94 223.802 Q1993.94 219.427 1996.85 217.205 Q1999.79 214.983 2005.6 214.983 L2011.57 214.983 L2011.57 214.566 Q2011.57 211.627 2009.63 210.029 Q2007.71 208.409 2004.21 208.409 Q2001.99 208.409 1999.88 208.941 Q1997.78 209.474 1995.83 210.539 L1995.83 206.603 Q1998.17 205.701 2000.37 205.261 Q2002.57 204.798 2004.65 204.798 Q2010.28 204.798 2013.06 207.714 Q2015.83 210.631 2015.83 216.557 Z" fill="#000000" fill-rule="evenodd" fill-opacity="1" /><path clip-path="url(#clip340)" d="M2024.17 221.117 L2024.17 205.423 L2028.43 205.423 L2028.43 220.955 Q2028.43 224.636 2029.86 226.488 Q2031.3 228.316 2034.17 228.316 Q2037.62 228.316 2039.61 226.117 Q2041.62 223.918 2041.62 220.122 L2041.62 205.423 L2045.88 205.423 L2045.88 231.349 L2041.62 231.349 L2041.62 227.367 Q2040.07 229.728 2038.01 230.886 Q2035.97 232.02 2033.26 232.02 Q2028.8 232.02 2026.48 229.242 Q2024.17 226.464 2024.17 221.117 M2034.88 204.798 L2034.88 204.798 Z" fill="#000000" fill-rule="evenodd" fill-opacity="1" /><path clip-path="url(#clip340)" d="M2071.18 206.187 L2071.18 210.214 Q2069.37 209.289 2067.43 208.826 Q2065.49 208.363 2063.4 208.363 Q2060.23 208.363 2058.63 209.335 Q2057.06 210.307 2057.06 212.251 Q2057.06 213.733 2058.19 214.589 Q2059.33 215.423 2062.75 216.187 L2064.21 216.511 Q2068.75 217.483 2070.65 219.265 Q2072.57 221.025 2072.57 224.196 Q2072.57 227.807 2069.7 229.913 Q2066.85 232.02 2061.85 232.02 Q2059.77 232.02 2057.5 231.603 Q2055.25 231.21 2052.75 230.4 L2052.75 226.001 Q2055.12 227.228 2057.41 227.853 Q2059.7 228.455 2061.94 228.455 Q2064.95 228.455 2066.57 227.437 Q2068.19 226.395 2068.19 224.52 Q2068.19 222.784 2067.01 221.858 Q2065.86 220.932 2061.9 220.076 L2060.42 219.728 Q2056.46 218.895 2054.7 217.182 Q2052.94 215.446 2052.94 212.437 Q2052.94 208.779 2055.53 206.789 Q2058.12 204.798 2062.89 204.798 Q2065.25 204.798 2067.34 205.145 Q2069.42 205.492 2071.18 206.187 Z" fill="#000000" fill-rule="evenodd" fill-opacity="1" /><path clip-path="url(#clip340)" d="M2095.88 206.187 L2095.88 210.214 Q2094.07 209.289 2092.13 208.826 Q2090.18 208.363 2088.1 208.363 Q2084.93 208.363 2083.33 209.335 Q2081.76 210.307 2081.76 212.251 Q2081.76 213.733 2082.89 214.589 Q2084.03 215.423 2087.45 216.187 L2088.91 216.511 Q2093.45 217.483 2095.35 219.265 Q2097.27 221.025 2097.27 224.196 Q2097.27 227.807 2094.4 229.913 Q2091.55 232.02 2086.55 232.02 Q2084.47 232.02 2082.2 231.603 Q2079.95 231.21 2077.45 230.4 L2077.45 226.001 Q2079.81 227.228 2082.11 227.853 Q2084.4 228.455 2086.64 228.455 Q2089.65 228.455 2091.27 227.437 Q2092.89 226.395 2092.89 224.52 Q2092.89 222.784 2091.71 221.858 Q2090.56 220.932 2086.6 220.076 L2085.12 219.728 Q2081.16 218.895 2079.4 217.182 Q2077.64 215.446 2077.64 212.437 Q2077.64 208.779 2080.23 206.789 Q2082.82 204.798 2087.59 204.798 Q2089.95 204.798 2092.04 205.145 Q2094.12 205.492 2095.88 206.187 Z" fill="#000000" fill-rule="evenodd" fill-opacity="1" /><path clip-path="url(#clip340)" d="M2104.05 205.423 L2108.31 205.423 L2108.31 231.349 L2104.05 231.349 L2104.05 205.423 M2104.05 195.33 L2108.31 195.33 L2108.31 200.724 L2104.05 200.724 L2104.05 195.33 Z" fill="#000000" fill-rule="evenodd" fill-opacity="1" /><path clip-path="url(#clip340)" d="M2129 218.316 Q2123.84 218.316 2121.85 219.497 Q2119.86 220.677 2119.86 223.525 Q2119.86 225.793 2121.34 227.136 Q2122.85 228.455 2125.42 228.455 Q2128.96 228.455 2131.09 225.955 Q2133.24 223.432 2133.24 219.265 L2133.24 218.316 L2129 218.316 M2137.5 216.557 L2137.5 231.349 L2133.24 231.349 L2133.24 227.413 Q2131.78 229.775 2129.61 230.909 Q2127.43 232.02 2124.28 232.02 Q2120.3 232.02 2117.94 229.798 Q2115.6 227.552 2115.6 223.802 Q2115.6 219.427 2118.52 217.205 Q2121.46 214.983 2127.27 214.983 L2133.24 214.983 L2133.24 214.566 Q2133.24 211.627 2131.3 210.029 Q2129.37 208.409 2125.88 208.409 Q2123.66 208.409 2121.55 208.941 Q2119.44 209.474 2117.5 210.539 L2117.5 206.603 Q2119.84 205.701 2122.04 205.261 Q2124.24 204.798 2126.32 204.798 Q2131.94 204.798 2134.72 207.714 Q2137.5 210.631 2137.5 216.557 Z" fill="#000000" fill-rule="evenodd" fill-opacity="1" /><path clip-path="url(#clip340)" d="M2167.82 215.701 L2167.82 231.349 L2163.56 231.349 L2163.56 215.839 Q2163.56 212.159 2162.13 210.33 Q2160.69 208.502 2157.82 208.502 Q2154.37 208.502 2152.38 210.701 Q2150.39 212.9 2150.39 216.696 L2150.39 231.349 L2146.11 231.349 L2146.11 205.423 L2150.39 205.423 L2150.39 209.451 Q2151.92 207.113 2153.98 205.955 Q2156.06 204.798 2158.77 204.798 Q2163.24 204.798 2165.53 207.576 Q2167.82 210.33 2167.82 215.701 Z" fill="#000000" fill-rule="evenodd" fill-opacity="1" /><path clip-path="url(#clip340)" d="M2204.51 195.33 L2204.51 198.872 L2200.44 198.872 Q2198.15 198.872 2197.24 199.798 Q2196.36 200.724 2196.36 203.131 L2196.36 205.423 L2203.38 205.423 L2203.38 208.733 L2196.36 208.733 L2196.36 231.349 L2192.08 231.349 L2192.08 208.733 L2188.01 208.733 L2188.01 205.423 L2192.08 205.423 L2192.08 203.617 Q2192.08 199.289 2194.1 197.321 Q2196.11 195.33 2200.49 195.33 L2204.51 195.33 Z" fill="#000000" fill-rule="evenodd" fill-opacity="1" /><path clip-path="url(#clip340)" d="M2208.08 205.423 L2212.34 205.423 L2212.34 231.349 L2208.08 231.349 L2208.08 205.423 M2208.08 195.33 L2212.34 195.33 L2212.34 200.724 L2208.08 200.724 L2208.08 195.33 Z" fill="#000000" fill-rule="evenodd" fill-opacity="1" /><path clip-path="url(#clip340)" d="M2225.46 198.062 L2225.46 205.423 L2234.24 205.423 L2234.24 208.733 L2225.46 208.733 L2225.46 222.807 Q2225.46 225.978 2226.32 226.881 Q2227.2 227.784 2229.86 227.784 L2234.24 227.784 L2234.24 231.349 L2229.86 231.349 Q2224.93 231.349 2223.05 229.52 Q2221.18 227.668 2221.18 222.807 L2221.18 208.733 L2218.05 208.733 L2218.05 205.423 L2221.18 205.423 L2221.18 198.062 L2225.46 198.062 Z" fill="#000000" fill-rule="evenodd" fill-opacity="1" /><polyline clip-path="url(#clip340)" style="stroke:#3da44d; stroke-linecap:butt; stroke-linejoin:round; stroke-width:4; stroke-opacity:1; fill:none" points="
  1797.68,274.549 1939.91,274.549 
  "/>
<path clip-path="url(#clip340)" d="M1967.89 287.94 L1967.89 301.69 L1963.61 301.69 L1963.61 265.903 L1967.89 265.903 L1967.89 269.838 Q1969.24 267.523 1971.27 266.412 Q1973.33 265.278 1976.18 265.278 Q1980.9 265.278 1983.84 269.028 Q1986.81 272.778 1986.81 278.889 Q1986.81 285 1983.84 288.75 Q1980.9 292.5 1976.18 292.5 Q1973.33 292.5 1971.27 291.389 Q1969.24 290.255 1967.89 287.94 M1982.38 278.889 Q1982.38 274.19 1980.44 271.528 Q1978.52 268.843 1975.14 268.843 Q1971.76 268.843 1969.82 271.528 Q1967.89 274.19 1967.89 278.889 Q1967.89 283.588 1969.82 286.273 Q1971.76 288.935 1975.14 288.935 Q1978.52 288.935 1980.44 286.273 Q1982.38 283.588 1982.38 278.889 Z" fill="#000000" fill-rule="evenodd" fill-opacity="1" /><path clip-path="url(#clip340)" d="M2003.91 268.889 Q2000.49 268.889 1998.5 271.574 Q1996.5 274.236 1996.5 278.889 Q1996.5 283.542 1998.47 286.227 Q2000.46 288.889 2003.91 288.889 Q2007.31 288.889 2009.31 286.204 Q2011.3 283.518 2011.3 278.889 Q2011.3 274.282 2009.31 271.597 Q2007.31 268.889 2003.91 268.889 M2003.91 265.278 Q2009.47 265.278 2012.64 268.889 Q2015.81 272.5 2015.81 278.889 Q2015.81 285.255 2012.64 288.889 Q2009.47 292.5 2003.91 292.5 Q1998.33 292.5 1995.16 288.889 Q1992.01 285.255 1992.01 278.889 Q1992.01 272.5 1995.16 268.889 Q1998.33 265.278 2003.91 265.278 Z" fill="#000000" fill-rule="evenodd" fill-opacity="1" /><path clip-path="url(#clip340)" d="M2022.87 265.903 L2027.13 265.903 L2027.13 291.829 L2022.87 291.829 L2022.87 265.903 M2022.87 255.81 L2027.13 255.81 L2027.13 261.204 L2022.87 261.204 L2022.87 255.81 Z" fill="#000000" fill-rule="evenodd" fill-opacity="1" /><path clip-path="url(#clip340)" d="M2052.57 266.667 L2052.57 270.694 Q2050.76 269.769 2048.82 269.306 Q2046.87 268.843 2044.79 268.843 Q2041.62 268.843 2040.02 269.815 Q2038.45 270.787 2038.45 272.731 Q2038.45 274.213 2039.58 275.069 Q2040.72 275.903 2044.14 276.667 L2045.6 276.991 Q2050.14 277.963 2052.04 279.745 Q2053.96 281.505 2053.96 284.676 Q2053.96 288.287 2051.09 290.393 Q2048.24 292.5 2043.24 292.5 Q2041.16 292.5 2038.89 292.083 Q2036.64 291.69 2034.14 290.88 L2034.14 286.481 Q2036.5 287.708 2038.8 288.333 Q2041.09 288.935 2043.33 288.935 Q2046.34 288.935 2047.96 287.917 Q2049.58 286.875 2049.58 285 Q2049.58 283.264 2048.4 282.338 Q2047.25 281.412 2043.29 280.556 L2041.81 280.208 Q2037.85 279.375 2036.09 277.662 Q2034.33 275.926 2034.33 272.917 Q2034.33 269.259 2036.92 267.269 Q2039.51 265.278 2044.28 265.278 Q2046.64 265.278 2048.73 265.625 Q2050.81 265.972 2052.57 266.667 Z" fill="#000000" fill-rule="evenodd" fill-opacity="1" /><path clip-path="url(#clip340)" d="M2077.27 266.667 L2077.27 270.694 Q2075.46 269.769 2073.52 269.306 Q2071.57 268.843 2069.49 268.843 Q2066.32 268.843 2064.72 269.815 Q2063.15 270.787 2063.15 272.731 Q2063.15 274.213 2064.28 275.069 Q2065.42 275.903 2068.84 276.667 L2070.3 276.991 Q2074.84 277.963 2076.74 279.745 Q2078.66 281.505 2078.66 284.676 Q2078.66 288.287 2075.79 290.393 Q2072.94 292.5 2067.94 292.5 Q2065.86 292.5 2063.59 292.083 Q2061.34 291.69 2058.84 290.88 L2058.84 286.481 Q2061.2 287.708 2063.5 288.333 Q2065.79 288.935 2068.03 288.935 Q2071.04 288.935 2072.66 287.917 Q2074.28 286.875 2074.28 285 Q2074.28 283.264 2073.1 282.338 Q2071.94 281.412 2067.99 280.556 L2066.5 280.208 Q2062.55 279.375 2060.79 277.662 Q2059.03 275.926 2059.03 272.917 Q2059.03 269.259 2061.62 267.269 Q2064.21 265.278 2068.98 265.278 Q2071.34 265.278 2073.43 265.625 Q2075.51 265.972 2077.27 266.667 Z" fill="#000000" fill-rule="evenodd" fill-opacity="1" /><path clip-path="url(#clip340)" d="M2095.49 268.889 Q2092.06 268.889 2090.07 271.574 Q2088.08 274.236 2088.08 278.889 Q2088.08 283.542 2090.05 286.227 Q2092.04 288.889 2095.49 288.889 Q2098.89 288.889 2100.88 286.204 Q2102.87 283.518 2102.87 278.889 Q2102.87 274.282 2100.88 271.597 Q2098.89 268.889 2095.49 268.889 M2095.49 265.278 Q2101.04 265.278 2104.21 268.889 Q2107.38 272.5 2107.38 278.889 Q2107.38 285.255 2104.21 288.889 Q2101.04 292.5 2095.49 292.5 Q2089.91 292.5 2086.74 288.889 Q2083.59 285.255 2083.59 278.889 Q2083.59 272.5 2086.74 268.889 Q2089.91 265.278 2095.49 265.278 Z" fill="#000000" fill-rule="evenodd" fill-opacity="1" /><path clip-path="url(#clip340)" d="M2135.99 276.181 L2135.99 291.829 L2131.74 291.829 L2131.74 276.319 Q2131.74 272.639 2130.3 270.81 Q2128.87 268.982 2125.99 268.982 Q2122.55 268.982 2120.56 271.181 Q2118.56 273.38 2118.56 277.176 L2118.56 291.829 L2114.28 291.829 L2114.28 265.903 L2118.56 265.903 L2118.56 269.931 Q2120.09 267.593 2122.15 266.435 Q2124.24 265.278 2126.94 265.278 Q2131.41 265.278 2133.7 268.056 Q2135.99 270.81 2135.99 276.181 Z" fill="#000000" fill-rule="evenodd" fill-opacity="1" /><path clip-path="url(#clip340)" d="M2172.68 255.81 L2172.68 259.352 L2168.61 259.352 Q2166.32 259.352 2165.42 260.278 Q2164.54 261.204 2164.54 263.611 L2164.54 265.903 L2171.55 265.903 L2171.55 269.213 L2164.54 269.213 L2164.54 291.829 L2160.25 291.829 L2160.25 269.213 L2156.18 269.213 L2156.18 265.903 L2160.25 265.903 L2160.25 264.097 Q2160.25 259.769 2162.27 257.801 Q2164.28 255.81 2168.66 255.81 L2172.68 255.81 Z" fill="#000000" fill-rule="evenodd" fill-opacity="1" /><path clip-path="url(#clip340)" d="M2176.25 265.903 L2180.51 265.903 L2180.51 291.829 L2176.25 291.829 L2176.25 265.903 M2176.25 255.81 L2180.51 255.81 L2180.51 261.204 L2176.25 261.204 L2176.25 255.81 Z" fill="#000000" fill-rule="evenodd" fill-opacity="1" /><path clip-path="url(#clip340)" d="M2193.63 258.542 L2193.63 265.903 L2202.41 265.903 L2202.41 269.213 L2193.63 269.213 L2193.63 283.287 Q2193.63 286.458 2194.49 287.361 Q2195.37 288.264 2198.03 288.264 L2202.41 288.264 L2202.41 291.829 L2198.03 291.829 Q2193.1 291.829 2191.23 290 Q2189.35 288.148 2189.35 283.287 L2189.35 269.213 L2186.23 269.213 L2186.23 265.903 L2189.35 265.903 L2189.35 258.542 L2193.63 258.542 Z" fill="#000000" fill-rule="evenodd" fill-opacity="1" /></svg>
