<?xml version="1.0" encoding="utf-8"?>
<svg xmlns="http://www.w3.org/2000/svg" xmlns:xlink="http://www.w3.org/1999/xlink" width="600" height="400" viewBox="0 0 2400 1600">
<defs>
  <clipPath id="clip460">
    <rect x="0" y="0" width="2400" height="1600"/>
  </clipPath>
</defs>
<path clip-path="url(#clip460)" d="
M0 1600 L2400 1600 L2400 0 L0 0  Z
  " fill="#ffffff" fill-rule="evenodd" fill-opacity="1"/>
<defs>
  <clipPath id="clip461">
    <rect x="480" y="0" width="1681" height="1600"/>
  </clipPath>
</defs>
<path clip-path="url(#clip460)" d="
M279.704 1423.18 L2352.76 1423.18 L2352.76 47.2441 L279.704 47.2441  Z
  " fill="#ffffff" fill-rule="evenodd" fill-opacity="1"/>
<defs>
  <clipPath id="clip462">
    <rect x="279" y="47" width="2074" height="1377"/>
  </clipPath>
</defs>
<polyline clip-path="url(#clip462)" style="stroke:#000000; stroke-linecap:butt; stroke-linejoin:round; stroke-width:2; stroke-opacity:0.1; fill:none" points="
  393.725,1423.18 393.725,47.2441 
  "/>
<polyline clip-path="url(#clip462)" style="stroke:#000000; stroke-linecap:butt; stroke-linejoin:round; stroke-width:2; stroke-opacity:0.1; fill:none" points="
  723.191,1423.18 723.191,47.2441 
  "/>
<polyline clip-path="url(#clip462)" style="stroke:#000000; stroke-linecap:butt; stroke-linejoin:round; stroke-width:2; stroke-opacity:0.1; fill:none" points="
  1052.66,1423.18 1052.66,47.2441 
  "/>
<polyline clip-path="url(#clip462)" style="stroke:#000000; stroke-linecap:butt; stroke-linejoin:round; stroke-width:2; stroke-opacity:0.1; fill:none" points="
  1382.12,1423.18 1382.12,47.2441 
  "/>
<polyline clip-path="url(#clip462)" style="stroke:#000000; stroke-linecap:butt; stroke-linejoin:round; stroke-width:2; stroke-opacity:0.1; fill:none" points="
  1711.59,1423.18 1711.59,47.2441 
  "/>
<polyline clip-path="url(#clip462)" style="stroke:#000000; stroke-linecap:butt; stroke-linejoin:round; stroke-width:2; stroke-opacity:0.1; fill:none" points="
  2041.05,1423.18 2041.05,47.2441 
  "/>
<polyline clip-path="url(#clip460)" style="stroke:#000000; stroke-linecap:butt; stroke-linejoin:round; stroke-width:4; stroke-opacity:1; fill:none" points="
  279.704,1423.18 2352.76,1423.18 
  "/>
<polyline clip-path="url(#clip460)" style="stroke:#000000; stroke-linecap:butt; stroke-linejoin:round; stroke-width:4; stroke-opacity:1; fill:none" points="
  393.725,1423.18 393.725,1406.67 
  "/>
<polyline clip-path="url(#clip460)" style="stroke:#000000; stroke-linecap:butt; stroke-linejoin:round; stroke-width:4; stroke-opacity:1; fill:none" points="
  723.191,1423.18 723.191,1406.67 
  "/>
<polyline clip-path="url(#clip460)" style="stroke:#000000; stroke-linecap:butt; stroke-linejoin:round; stroke-width:4; stroke-opacity:1; fill:none" points="
  1052.66,1423.18 1052.66,1406.67 
  "/>
<polyline clip-path="url(#clip460)" style="stroke:#000000; stroke-linecap:butt; stroke-linejoin:round; stroke-width:4; stroke-opacity:1; fill:none" points="
  1382.12,1423.18 1382.12,1406.67 
  "/>
<polyline clip-path="url(#clip460)" style="stroke:#000000; stroke-linecap:butt; stroke-linejoin:round; stroke-width:4; stroke-opacity:1; fill:none" points="
  1711.59,1423.18 1711.59,1406.67 
  "/>
<polyline clip-path="url(#clip460)" style="stroke:#000000; stroke-linecap:butt; stroke-linejoin:round; stroke-width:4; stroke-opacity:1; fill:none" points="
  2041.05,1423.18 2041.05,1406.67 
  "/>
<path clip-path="url(#clip460)" d="M393.725 1452.37 Q390.114 1452.37 388.286 1455.94 Q386.48 1459.48 386.48 1466.61 Q386.48 1473.71 388.286 1477.28 Q390.114 1480.82 393.725 1480.82 Q397.36 1480.82 399.165 1477.28 Q400.994 1473.71 400.994 1466.61 Q400.994 1459.48 399.165 1455.94 Q397.36 1452.37 393.725 1452.37 M393.725 1448.67 Q399.536 1448.67 402.591 1453.27 Q405.67 1457.86 405.67 1466.61 Q405.67 1475.33 402.591 1479.94 Q399.536 1484.52 393.725 1484.52 Q387.915 1484.52 384.837 1479.94 Q381.781 1475.33 381.781 1466.61 Q381.781 1457.86 384.837 1453.27 Q387.915 1448.67 393.725 1448.67 Z" fill="#000000" fill-rule="evenodd" fill-opacity="1" /><path clip-path="url(#clip460)" d="M713.469 1449.29 L731.826 1449.29 L731.826 1453.23 L717.752 1453.23 L717.752 1461.7 Q718.77 1461.35 719.789 1461.19 Q720.807 1461 721.826 1461 Q727.613 1461 730.992 1464.18 Q734.372 1467.35 734.372 1472.76 Q734.372 1478.34 730.9 1481.44 Q727.427 1484.52 721.108 1484.52 Q718.932 1484.52 716.664 1484.15 Q714.418 1483.78 712.011 1483.04 L712.011 1478.34 Q714.094 1479.48 716.316 1480.03 Q718.539 1480.59 721.015 1480.59 Q725.02 1480.59 727.358 1478.48 Q729.696 1476.38 729.696 1472.76 Q729.696 1469.15 727.358 1467.05 Q725.02 1464.94 721.015 1464.94 Q719.14 1464.94 717.265 1465.36 Q715.414 1465.77 713.469 1466.65 L713.469 1449.29 Z" fill="#000000" fill-rule="evenodd" fill-opacity="1" /><path clip-path="url(#clip460)" d="M1027.34 1479.92 L1034.98 1479.92 L1034.98 1453.55 L1026.67 1455.22 L1026.67 1450.96 L1034.94 1449.29 L1039.61 1449.29 L1039.61 1479.92 L1047.25 1479.92 L1047.25 1483.85 L1027.34 1483.85 L1027.34 1479.92 Z" fill="#000000" fill-rule="evenodd" fill-opacity="1" /><path clip-path="url(#clip460)" d="M1066.7 1452.37 Q1063.09 1452.37 1061.26 1455.94 Q1059.45 1459.48 1059.45 1466.61 Q1059.45 1473.71 1061.26 1477.28 Q1063.09 1480.82 1066.7 1480.82 Q1070.33 1480.82 1072.14 1477.28 Q1073.96 1473.71 1073.96 1466.61 Q1073.96 1459.48 1072.14 1455.94 Q1070.33 1452.37 1066.7 1452.37 M1066.7 1448.67 Q1072.51 1448.67 1075.56 1453.27 Q1078.64 1457.86 1078.64 1466.61 Q1078.64 1475.33 1075.56 1479.94 Q1072.51 1484.52 1066.7 1484.52 Q1060.89 1484.52 1057.81 1479.94 Q1054.75 1475.33 1054.75 1466.61 Q1054.75 1457.86 1057.81 1453.27 Q1060.89 1448.67 1066.7 1448.67 Z" fill="#000000" fill-rule="evenodd" fill-opacity="1" /><path clip-path="url(#clip460)" d="M1357.31 1479.92 L1364.95 1479.92 L1364.95 1453.55 L1356.64 1455.22 L1356.64 1450.96 L1364.9 1449.29 L1369.58 1449.29 L1369.58 1479.92 L1377.22 1479.92 L1377.22 1483.85 L1357.31 1483.85 L1357.31 1479.92 Z" fill="#000000" fill-rule="evenodd" fill-opacity="1" /><path clip-path="url(#clip460)" d="M1386.71 1449.29 L1405.06 1449.29 L1405.06 1453.23 L1390.99 1453.23 L1390.99 1461.7 Q1392.01 1461.35 1393.03 1461.19 Q1394.04 1461 1395.06 1461 Q1400.85 1461 1404.23 1464.18 Q1407.61 1467.35 1407.61 1472.76 Q1407.61 1478.34 1404.14 1481.44 Q1400.66 1484.52 1394.35 1484.52 Q1392.17 1484.52 1389.9 1484.15 Q1387.66 1483.78 1385.25 1483.04 L1385.25 1478.34 Q1387.33 1479.48 1389.55 1480.03 Q1391.78 1480.59 1394.25 1480.59 Q1398.26 1480.59 1400.6 1478.48 Q1402.93 1476.38 1402.93 1472.76 Q1402.93 1469.15 1400.6 1467.05 Q1398.26 1464.94 1394.25 1464.94 Q1392.38 1464.94 1390.5 1465.36 Q1388.65 1465.77 1386.71 1466.65 L1386.71 1449.29 Z" fill="#000000" fill-rule="evenodd" fill-opacity="1" /><path clip-path="url(#clip460)" d="M1690.36 1479.92 L1706.68 1479.92 L1706.68 1483.85 L1684.74 1483.85 L1684.74 1479.92 Q1687.4 1477.16 1691.98 1472.53 Q1696.59 1467.88 1697.77 1466.54 Q1700.01 1464.01 1700.89 1462.28 Q1701.8 1460.52 1701.8 1458.83 Q1701.8 1456.07 1699.85 1454.34 Q1697.93 1452.6 1694.83 1452.6 Q1692.63 1452.6 1690.18 1453.37 Q1687.75 1454.13 1684.97 1455.68 L1684.97 1450.96 Q1687.79 1449.82 1690.25 1449.25 Q1692.7 1448.67 1694.74 1448.67 Q1700.11 1448.67 1703.3 1451.35 Q1706.5 1454.04 1706.5 1458.53 Q1706.5 1460.66 1705.69 1462.58 Q1704.9 1464.48 1702.79 1467.07 Q1702.21 1467.74 1699.11 1470.96 Q1696.01 1474.15 1690.36 1479.92 Z" fill="#000000" fill-rule="evenodd" fill-opacity="1" /><path clip-path="url(#clip460)" d="M1726.5 1452.37 Q1722.89 1452.37 1721.06 1455.94 Q1719.25 1459.48 1719.25 1466.61 Q1719.25 1473.71 1721.06 1477.28 Q1722.89 1480.82 1726.5 1480.82 Q1730.13 1480.82 1731.94 1477.28 Q1733.76 1473.71 1733.76 1466.61 Q1733.76 1459.48 1731.94 1455.94 Q1730.13 1452.37 1726.5 1452.37 M1726.5 1448.67 Q1732.31 1448.67 1735.36 1453.27 Q1738.44 1457.86 1738.44 1466.61 Q1738.44 1475.33 1735.36 1479.94 Q1732.31 1484.52 1726.5 1484.52 Q1720.69 1484.52 1717.61 1479.94 Q1714.55 1475.33 1714.55 1466.61 Q1714.55 1457.86 1717.61 1453.27 Q1720.69 1448.67 1726.5 1448.67 Z" fill="#000000" fill-rule="evenodd" fill-opacity="1" /><path clip-path="url(#clip460)" d="M2020.33 1479.92 L2036.65 1479.92 L2036.65 1483.85 L2014.7 1483.85 L2014.7 1479.92 Q2017.36 1477.16 2021.95 1472.53 Q2026.55 1467.88 2027.73 1466.54 Q2029.98 1464.01 2030.86 1462.28 Q2031.76 1460.52 2031.76 1458.83 Q2031.76 1456.07 2029.82 1454.34 Q2027.9 1452.6 2024.79 1452.6 Q2022.59 1452.6 2020.14 1453.37 Q2017.71 1454.13 2014.93 1455.68 L2014.93 1450.96 Q2017.76 1449.82 2020.21 1449.25 Q2022.66 1448.67 2024.7 1448.67 Q2030.07 1448.67 2033.27 1451.35 Q2036.46 1454.04 2036.46 1458.53 Q2036.46 1460.66 2035.65 1462.58 Q2034.86 1464.48 2032.76 1467.07 Q2032.18 1467.74 2029.08 1470.96 Q2025.97 1474.15 2020.33 1479.92 Z" fill="#000000" fill-rule="evenodd" fill-opacity="1" /><path clip-path="url(#clip460)" d="M2046.51 1449.29 L2064.86 1449.29 L2064.86 1453.23 L2050.79 1453.23 L2050.79 1461.7 Q2051.81 1461.35 2052.83 1461.19 Q2053.84 1461 2054.86 1461 Q2060.65 1461 2064.03 1464.18 Q2067.41 1467.35 2067.41 1472.76 Q2067.41 1478.34 2063.94 1481.44 Q2060.46 1484.52 2054.15 1484.52 Q2051.97 1484.52 2049.7 1484.15 Q2047.46 1483.78 2045.05 1483.04 L2045.05 1478.34 Q2047.13 1479.48 2049.35 1480.03 Q2051.58 1480.59 2054.05 1480.59 Q2058.06 1480.59 2060.4 1478.48 Q2062.73 1476.38 2062.73 1472.76 Q2062.73 1469.15 2060.4 1467.05 Q2058.06 1464.94 2054.05 1464.94 Q2052.18 1464.94 2050.3 1465.36 Q2048.45 1465.77 2046.51 1466.65 L2046.51 1449.29 Z" fill="#000000" fill-rule="evenodd" fill-opacity="1" /><path clip-path="url(#clip460)" d="M1326.67 1537.87 Q1325.68 1537.3 1324.51 1537.04 Q1323.36 1536.76 1321.96 1536.76 Q1316.99 1536.76 1314.32 1540 Q1311.68 1543.22 1311.68 1549.27 L1311.68 1568.04 L1305.79 1568.04 L1305.79 1532.4 L1311.68 1532.4 L1311.68 1537.93 Q1313.52 1534.69 1316.48 1533.13 Q1319.44 1531.54 1323.68 1531.54 Q1324.28 1531.54 1325.01 1531.63 Q1325.75 1531.7 1326.64 1531.85 L1326.67 1537.87 Z" fill="#000000" fill-rule="evenodd" fill-opacity="1" /><polyline clip-path="url(#clip462)" style="stroke:#000000; stroke-linecap:butt; stroke-linejoin:round; stroke-width:2; stroke-opacity:0.1; fill:none" points="
  279.704,1384.24 2352.76,1384.24 
  "/>
<polyline clip-path="url(#clip462)" style="stroke:#000000; stroke-linecap:butt; stroke-linejoin:round; stroke-width:2; stroke-opacity:0.1; fill:none" points="
  279.704,1115.49 2352.76,1115.49 
  "/>
<polyline clip-path="url(#clip462)" style="stroke:#000000; stroke-linecap:butt; stroke-linejoin:round; stroke-width:2; stroke-opacity:0.1; fill:none" points="
  279.704,846.751 2352.76,846.751 
  "/>
<polyline clip-path="url(#clip462)" style="stroke:#000000; stroke-linecap:butt; stroke-linejoin:round; stroke-width:2; stroke-opacity:0.1; fill:none" points="
  279.704,578.008 2352.76,578.008 
  "/>
<polyline clip-path="url(#clip462)" style="stroke:#000000; stroke-linecap:butt; stroke-linejoin:round; stroke-width:2; stroke-opacity:0.1; fill:none" points="
  279.704,309.264 2352.76,309.264 
  "/>
<polyline clip-path="url(#clip460)" style="stroke:#000000; stroke-linecap:butt; stroke-linejoin:round; stroke-width:4; stroke-opacity:1; fill:none" points="
  279.704,1423.18 279.704,47.2441 
  "/>
<polyline clip-path="url(#clip460)" style="stroke:#000000; stroke-linecap:butt; stroke-linejoin:round; stroke-width:4; stroke-opacity:1; fill:none" points="
  279.704,1384.24 304.581,1384.24 
  "/>
<polyline clip-path="url(#clip460)" style="stroke:#000000; stroke-linecap:butt; stroke-linejoin:round; stroke-width:4; stroke-opacity:1; fill:none" points="
  279.704,1115.49 304.581,1115.49 
  "/>
<polyline clip-path="url(#clip460)" style="stroke:#000000; stroke-linecap:butt; stroke-linejoin:round; stroke-width:4; stroke-opacity:1; fill:none" points="
  279.704,846.751 304.581,846.751 
  "/>
<polyline clip-path="url(#clip460)" style="stroke:#000000; stroke-linecap:butt; stroke-linejoin:round; stroke-width:4; stroke-opacity:1; fill:none" points="
  279.704,578.008 304.581,578.008 
  "/>
<polyline clip-path="url(#clip460)" style="stroke:#000000; stroke-linecap:butt; stroke-linejoin:round; stroke-width:4; stroke-opacity:1; fill:none" points="
  279.704,309.264 304.581,309.264 
  "/>
<path clip-path="url(#clip460)" d="M126.205 1370.04 Q122.593 1370.04 120.765 1373.6 Q118.959 1377.14 118.959 1384.27 Q118.959 1391.38 120.765 1394.94 Q122.593 1398.49 126.205 1398.49 Q129.839 1398.49 131.644 1394.94 Q133.473 1391.38 133.473 1384.27 Q133.473 1377.14 131.644 1373.6 Q129.839 1370.04 126.205 1370.04 M126.205 1366.33 Q132.015 1366.33 135.07 1370.94 Q138.149 1375.52 138.149 1384.27 Q138.149 1393 135.07 1397.61 Q132.015 1402.19 126.205 1402.19 Q120.394 1402.19 117.316 1397.61 Q114.26 1393 114.26 1384.27 Q114.26 1375.52 117.316 1370.94 Q120.394 1366.33 126.205 1366.33 Z" fill="#000000" fill-rule="evenodd" fill-opacity="1" /><path clip-path="url(#clip460)" d="M146.366 1395.64 L151.251 1395.64 L151.251 1401.52 L146.366 1401.52 L146.366 1395.64 Z" fill="#000000" fill-rule="evenodd" fill-opacity="1" /><path clip-path="url(#clip460)" d="M171.436 1370.04 Q167.825 1370.04 165.996 1373.6 Q164.19 1377.14 164.19 1384.27 Q164.19 1391.38 165.996 1394.94 Q167.825 1398.49 171.436 1398.49 Q175.07 1398.49 176.876 1394.94 Q178.704 1391.38 178.704 1384.27 Q178.704 1377.14 176.876 1373.6 Q175.07 1370.04 171.436 1370.04 M171.436 1366.33 Q177.246 1366.33 180.301 1370.94 Q183.38 1375.52 183.38 1384.27 Q183.38 1393 180.301 1397.61 Q177.246 1402.19 171.436 1402.19 Q165.626 1402.19 162.547 1397.61 Q159.491 1393 159.491 1384.27 Q159.491 1375.52 162.547 1370.94 Q165.626 1366.33 171.436 1366.33 Z" fill="#000000" fill-rule="evenodd" fill-opacity="1" /><path clip-path="url(#clip460)" d="M201.598 1370.04 Q197.987 1370.04 196.158 1373.6 Q194.352 1377.14 194.352 1384.27 Q194.352 1391.38 196.158 1394.94 Q197.987 1398.49 201.598 1398.49 Q205.232 1398.49 207.037 1394.94 Q208.866 1391.38 208.866 1384.27 Q208.866 1377.14 207.037 1373.6 Q205.232 1370.04 201.598 1370.04 M201.598 1366.33 Q207.408 1366.33 210.463 1370.94 Q213.542 1375.52 213.542 1384.27 Q213.542 1393 210.463 1397.61 Q207.408 1402.19 201.598 1402.19 Q195.787 1402.19 192.709 1397.61 Q189.653 1393 189.653 1384.27 Q189.653 1375.52 192.709 1370.94 Q195.787 1366.33 201.598 1366.33 Z" fill="#000000" fill-rule="evenodd" fill-opacity="1" /><path clip-path="url(#clip460)" d="M231.76 1370.04 Q228.148 1370.04 226.32 1373.6 Q224.514 1377.14 224.514 1384.27 Q224.514 1391.38 226.32 1394.94 Q228.148 1398.49 231.76 1398.49 Q235.394 1398.49 237.199 1394.94 Q239.028 1391.38 239.028 1384.27 Q239.028 1377.14 237.199 1373.6 Q235.394 1370.04 231.76 1370.04 M231.76 1366.33 Q237.57 1366.33 240.625 1370.94 Q243.704 1375.52 243.704 1384.27 Q243.704 1393 240.625 1397.61 Q237.57 1402.19 231.76 1402.19 Q225.949 1402.19 222.871 1397.61 Q219.815 1393 219.815 1384.27 Q219.815 1375.52 222.871 1370.94 Q225.949 1366.33 231.76 1366.33 Z" fill="#000000" fill-rule="evenodd" fill-opacity="1" /><path clip-path="url(#clip460)" d="M127.2 1101.29 Q123.589 1101.29 121.76 1104.86 Q119.955 1108.4 119.955 1115.53 Q119.955 1122.64 121.76 1126.2 Q123.589 1129.74 127.2 1129.74 Q130.834 1129.74 132.64 1126.2 Q134.468 1122.64 134.468 1115.53 Q134.468 1108.4 132.64 1104.86 Q130.834 1101.29 127.2 1101.29 M127.2 1097.59 Q133.01 1097.59 136.066 1102.2 Q139.144 1106.78 139.144 1115.53 Q139.144 1124.26 136.066 1128.86 Q133.01 1133.45 127.2 1133.45 Q121.39 1133.45 118.311 1128.86 Q115.256 1124.26 115.256 1115.53 Q115.256 1106.78 118.311 1102.2 Q121.39 1097.59 127.2 1097.59 Z" fill="#000000" fill-rule="evenodd" fill-opacity="1" /><path clip-path="url(#clip460)" d="M147.362 1126.9 L152.246 1126.9 L152.246 1132.77 L147.362 1132.77 L147.362 1126.9 Z" fill="#000000" fill-rule="evenodd" fill-opacity="1" /><path clip-path="url(#clip460)" d="M172.431 1101.29 Q168.82 1101.29 166.991 1104.86 Q165.186 1108.4 165.186 1115.53 Q165.186 1122.64 166.991 1126.2 Q168.82 1129.74 172.431 1129.74 Q176.065 1129.74 177.871 1126.2 Q179.7 1122.64 179.7 1115.53 Q179.7 1108.4 177.871 1104.86 Q176.065 1101.29 172.431 1101.29 M172.431 1097.59 Q178.241 1097.59 181.297 1102.2 Q184.376 1106.78 184.376 1115.53 Q184.376 1124.26 181.297 1128.86 Q178.241 1133.45 172.431 1133.45 Q166.621 1133.45 163.542 1128.86 Q160.487 1124.26 160.487 1115.53 Q160.487 1106.78 163.542 1102.2 Q166.621 1097.59 172.431 1097.59 Z" fill="#000000" fill-rule="evenodd" fill-opacity="1" /><path clip-path="url(#clip460)" d="M196.621 1128.84 L212.94 1128.84 L212.94 1132.77 L190.996 1132.77 L190.996 1128.84 Q193.658 1126.08 198.241 1121.46 Q202.848 1116.8 204.028 1115.46 Q206.274 1112.94 207.153 1111.2 Q208.056 1109.44 208.056 1107.75 Q208.056 1105 206.112 1103.26 Q204.19 1101.52 201.088 1101.52 Q198.889 1101.52 196.436 1102.29 Q194.005 1103.05 191.227 1104.6 L191.227 1099.88 Q194.051 1098.75 196.505 1098.17 Q198.959 1097.59 200.996 1097.59 Q206.366 1097.59 209.561 1100.27 Q212.755 1102.96 212.755 1107.45 Q212.755 1109.58 211.945 1111.5 Q211.158 1113.4 209.051 1115.99 Q208.473 1116.66 205.371 1119.88 Q202.269 1123.08 196.621 1128.84 Z" fill="#000000" fill-rule="evenodd" fill-opacity="1" /><path clip-path="url(#clip460)" d="M222.801 1098.21 L241.158 1098.21 L241.158 1102.15 L227.084 1102.15 L227.084 1110.62 Q228.102 1110.27 229.121 1110.11 Q230.139 1109.93 231.158 1109.93 Q236.945 1109.93 240.324 1113.1 Q243.704 1116.27 243.704 1121.69 Q243.704 1127.27 240.232 1130.37 Q236.76 1133.45 230.44 1133.45 Q228.264 1133.45 225.996 1133.08 Q223.75 1132.71 221.343 1131.96 L221.343 1127.27 Q223.426 1128.4 225.648 1128.96 Q227.871 1129.51 230.347 1129.51 Q234.352 1129.51 236.69 1127.4 Q239.028 1125.3 239.028 1121.69 Q239.028 1118.08 236.69 1115.97 Q234.352 1113.86 230.347 1113.86 Q228.473 1113.86 226.598 1114.28 Q224.746 1114.7 222.801 1115.58 L222.801 1098.21 Z" fill="#000000" fill-rule="evenodd" fill-opacity="1" /><path clip-path="url(#clip460)" d="M126.205 832.55 Q122.593 832.55 120.765 836.115 Q118.959 839.656 118.959 846.786 Q118.959 853.892 120.765 857.457 Q122.593 860.999 126.205 860.999 Q129.839 860.999 131.644 857.457 Q133.473 853.892 133.473 846.786 Q133.473 839.656 131.644 836.115 Q129.839 832.55 126.205 832.55 M126.205 828.846 Q132.015 828.846 135.07 833.453 Q138.149 838.036 138.149 846.786 Q138.149 855.513 135.07 860.119 Q132.015 864.702 126.205 864.702 Q120.394 864.702 117.316 860.119 Q114.26 855.513 114.26 846.786 Q114.26 838.036 117.316 833.453 Q120.394 828.846 126.205 828.846 Z" fill="#000000" fill-rule="evenodd" fill-opacity="1" /><path clip-path="url(#clip460)" d="M146.366 858.151 L151.251 858.151 L151.251 864.031 L146.366 864.031 L146.366 858.151 Z" fill="#000000" fill-rule="evenodd" fill-opacity="1" /><path clip-path="url(#clip460)" d="M171.436 832.55 Q167.825 832.55 165.996 836.115 Q164.19 839.656 164.19 846.786 Q164.19 853.892 165.996 857.457 Q167.825 860.999 171.436 860.999 Q175.07 860.999 176.876 857.457 Q178.704 853.892 178.704 846.786 Q178.704 839.656 176.876 836.115 Q175.07 832.55 171.436 832.55 M171.436 828.846 Q177.246 828.846 180.301 833.453 Q183.38 838.036 183.38 846.786 Q183.38 855.513 180.301 860.119 Q177.246 864.702 171.436 864.702 Q165.626 864.702 162.547 860.119 Q159.491 855.513 159.491 846.786 Q159.491 838.036 162.547 833.453 Q165.626 828.846 171.436 828.846 Z" fill="#000000" fill-rule="evenodd" fill-opacity="1" /><path clip-path="url(#clip460)" d="M191.644 829.471 L210 829.471 L210 833.406 L195.926 833.406 L195.926 841.878 Q196.945 841.531 197.963 841.369 Q198.982 841.184 200 841.184 Q205.787 841.184 209.167 844.355 Q212.547 847.527 212.547 852.943 Q212.547 858.522 209.074 861.624 Q205.602 864.702 199.283 864.702 Q197.107 864.702 194.838 864.332 Q192.593 863.962 190.186 863.221 L190.186 858.522 Q192.269 859.656 194.491 860.212 Q196.713 860.767 199.19 860.767 Q203.195 860.767 205.533 858.661 Q207.871 856.554 207.871 852.943 Q207.871 849.332 205.533 847.226 Q203.195 845.119 199.19 845.119 Q197.315 845.119 195.44 845.536 Q193.588 845.952 191.644 846.832 L191.644 829.471 Z" fill="#000000" fill-rule="evenodd" fill-opacity="1" /><path clip-path="url(#clip460)" d="M231.76 832.55 Q228.148 832.55 226.32 836.115 Q224.514 839.656 224.514 846.786 Q224.514 853.892 226.32 857.457 Q228.148 860.999 231.76 860.999 Q235.394 860.999 237.199 857.457 Q239.028 853.892 239.028 846.786 Q239.028 839.656 237.199 836.115 Q235.394 832.55 231.76 832.55 M231.76 828.846 Q237.57 828.846 240.625 833.453 Q243.704 838.036 243.704 846.786 Q243.704 855.513 240.625 860.119 Q237.57 864.702 231.76 864.702 Q225.949 864.702 222.871 860.119 Q219.815 855.513 219.815 846.786 Q219.815 838.036 222.871 833.453 Q225.949 828.846 231.76 828.846 Z" fill="#000000" fill-rule="evenodd" fill-opacity="1" /><path clip-path="url(#clip460)" d="M127.2 563.806 Q123.589 563.806 121.76 567.371 Q119.955 570.913 119.955 578.042 Q119.955 585.149 121.76 588.713 Q123.589 592.255 127.2 592.255 Q130.834 592.255 132.64 588.713 Q134.468 585.149 134.468 578.042 Q134.468 570.913 132.64 567.371 Q130.834 563.806 127.2 563.806 M127.2 560.103 Q133.01 560.103 136.066 564.709 Q139.144 569.292 139.144 578.042 Q139.144 586.769 136.066 591.375 Q133.01 595.959 127.2 595.959 Q121.39 595.959 118.311 591.375 Q115.256 586.769 115.256 578.042 Q115.256 569.292 118.311 564.709 Q121.39 560.103 127.2 560.103 Z" fill="#000000" fill-rule="evenodd" fill-opacity="1" /><path clip-path="url(#clip460)" d="M147.362 589.408 L152.246 589.408 L152.246 595.288 L147.362 595.288 L147.362 589.408 Z" fill="#000000" fill-rule="evenodd" fill-opacity="1" /><path clip-path="url(#clip460)" d="M172.431 563.806 Q168.82 563.806 166.991 567.371 Q165.186 570.913 165.186 578.042 Q165.186 585.149 166.991 588.713 Q168.82 592.255 172.431 592.255 Q176.065 592.255 177.871 588.713 Q179.7 585.149 179.7 578.042 Q179.7 570.913 177.871 567.371 Q176.065 563.806 172.431 563.806 M172.431 560.103 Q178.241 560.103 181.297 564.709 Q184.376 569.292 184.376 578.042 Q184.376 586.769 181.297 591.375 Q178.241 595.959 172.431 595.959 Q166.621 595.959 163.542 591.375 Q160.487 586.769 160.487 578.042 Q160.487 569.292 163.542 564.709 Q166.621 560.103 172.431 560.103 Z" fill="#000000" fill-rule="evenodd" fill-opacity="1" /><path clip-path="url(#clip460)" d="M191.413 560.728 L213.635 560.728 L213.635 562.718 L201.088 595.288 L196.204 595.288 L208.01 564.663 L191.413 564.663 L191.413 560.728 Z" fill="#000000" fill-rule="evenodd" fill-opacity="1" /><path clip-path="url(#clip460)" d="M222.801 560.728 L241.158 560.728 L241.158 564.663 L227.084 564.663 L227.084 573.135 Q228.102 572.788 229.121 572.626 Q230.139 572.44 231.158 572.44 Q236.945 572.44 240.324 575.612 Q243.704 578.783 243.704 584.2 Q243.704 589.778 240.232 592.88 Q236.76 595.959 230.44 595.959 Q228.264 595.959 225.996 595.588 Q223.75 595.218 221.343 594.477 L221.343 589.778 Q223.426 590.913 225.648 591.468 Q227.871 592.024 230.347 592.024 Q234.352 592.024 236.69 589.917 Q239.028 587.811 239.028 584.2 Q239.028 580.589 236.69 578.482 Q234.352 576.376 230.347 576.376 Q228.473 576.376 226.598 576.792 Q224.746 577.209 222.801 578.089 L222.801 560.728 Z" fill="#000000" fill-rule="evenodd" fill-opacity="1" /><path clip-path="url(#clip460)" d="M126.205 295.063 Q122.593 295.063 120.765 298.627 Q118.959 302.169 118.959 309.299 Q118.959 316.405 120.765 319.97 Q122.593 323.512 126.205 323.512 Q129.839 323.512 131.644 319.97 Q133.473 316.405 133.473 309.299 Q133.473 302.169 131.644 298.627 Q129.839 295.063 126.205 295.063 M126.205 291.359 Q132.015 291.359 135.07 295.965 Q138.149 300.549 138.149 309.299 Q138.149 318.025 135.07 322.632 Q132.015 327.215 126.205 327.215 Q120.394 327.215 117.316 322.632 Q114.26 318.025 114.26 309.299 Q114.26 300.549 117.316 295.965 Q120.394 291.359 126.205 291.359 Z" fill="#000000" fill-rule="evenodd" fill-opacity="1" /><path clip-path="url(#clip460)" d="M146.366 320.664 L151.251 320.664 L151.251 326.544 L146.366 326.544 L146.366 320.664 Z" fill="#000000" fill-rule="evenodd" fill-opacity="1" /><path clip-path="url(#clip460)" d="M162.246 322.609 L169.885 322.609 L169.885 296.243 L161.575 297.91 L161.575 293.651 L169.839 291.984 L174.514 291.984 L174.514 322.609 L182.153 322.609 L182.153 326.544 L162.246 326.544 L162.246 322.609 Z" fill="#000000" fill-rule="evenodd" fill-opacity="1" /><path clip-path="url(#clip460)" d="M201.598 295.063 Q197.987 295.063 196.158 298.627 Q194.352 302.169 194.352 309.299 Q194.352 316.405 196.158 319.97 Q197.987 323.512 201.598 323.512 Q205.232 323.512 207.037 319.97 Q208.866 316.405 208.866 309.299 Q208.866 302.169 207.037 298.627 Q205.232 295.063 201.598 295.063 M201.598 291.359 Q207.408 291.359 210.463 295.965 Q213.542 300.549 213.542 309.299 Q213.542 318.025 210.463 322.632 Q207.408 327.215 201.598 327.215 Q195.787 327.215 192.709 322.632 Q189.653 318.025 189.653 309.299 Q189.653 300.549 192.709 295.965 Q195.787 291.359 201.598 291.359 Z" fill="#000000" fill-rule="evenodd" fill-opacity="1" /><path clip-path="url(#clip460)" d="M231.76 295.063 Q228.148 295.063 226.32 298.627 Q224.514 302.169 224.514 309.299 Q224.514 316.405 226.32 319.97 Q228.148 323.512 231.76 323.512 Q235.394 323.512 237.199 319.97 Q239.028 316.405 239.028 309.299 Q239.028 302.169 237.199 298.627 Q235.394 295.063 231.76 295.063 M231.76 291.359 Q237.57 291.359 240.625 295.965 Q243.704 300.549 243.704 309.299 Q243.704 318.025 240.625 322.632 Q237.57 327.215 231.76 327.215 Q225.949 327.215 222.871 322.632 Q219.815 318.025 219.815 309.299 Q219.815 300.549 222.871 295.965 Q225.949 291.359 231.76 291.359 Z" fill="#000000" fill-rule="evenodd" fill-opacity="1" /><path clip-path="url(#clip460)" d="M14.479 773.709 L19.3487 773.709 L19.3487 779.31 Q19.3487 782.461 20.6219 783.703 Q21.895 784.912 25.2052 784.912 L28.3562 784.912 L28.3562 775.268 L32.9077 775.268 L32.9077 784.912 L64.0042 784.912 L64.0042 790.801 L32.9077 790.801 L32.9077 796.402 L28.3562 796.402 L28.3562 790.801 L25.8736 790.801 Q19.9216 790.801 17.2162 788.031 Q14.479 785.262 14.479 779.247 L14.479 773.709 Z" fill="#000000" fill-rule="evenodd" fill-opacity="1" /><path clip-path="url(#clip460)" d="M33.8307 748.15 Q33.2578 749.137 33.0032 750.315 Q32.7167 751.46 32.7167 752.861 Q32.7167 757.826 35.9632 760.5 Q39.1779 763.142 45.2253 763.142 L64.0042 763.142 L64.0042 769.03 L28.3562 769.03 L28.3562 763.142 L33.8944 763.142 Q30.6479 761.295 29.0883 758.335 Q27.4968 755.375 27.4968 751.142 Q27.4968 750.537 27.5923 749.805 Q27.656 749.073 27.8151 748.182 L33.8307 748.15 Z" fill="#000000" fill-rule="evenodd" fill-opacity="1" /><path clip-path="url(#clip460)" d="M44.7161 712.948 L47.5806 712.948 L47.5806 739.875 Q53.6281 739.493 56.8109 736.246 Q59.9619 732.968 59.9619 727.143 Q59.9619 723.77 59.1344 720.619 Q58.3069 717.436 56.6518 714.317 L62.1899 714.317 Q63.5267 717.468 64.227 720.778 Q64.9272 724.088 64.9272 727.494 Q64.9272 736.024 59.9619 741.021 Q54.9967 745.986 46.5303 745.986 Q37.7774 745.986 32.6531 741.275 Q27.4968 736.533 27.4968 728.512 Q27.4968 721.319 32.1438 717.149 Q36.7589 712.948 44.7161 712.948 M42.9973 718.804 Q38.1912 718.868 35.3266 721.51 Q32.4621 724.12 32.4621 728.448 Q32.4621 733.35 35.2312 736.31 Q38.0002 739.238 43.0292 739.684 L42.9973 718.804 Z" fill="#000000" fill-rule="evenodd" fill-opacity="1" /><path clip-path="url(#clip460)" d="M46.212 699.835 Q52.6732 699.835 56.3653 697.193 Q60.0256 694.519 60.0256 689.872 Q60.0256 685.225 56.3653 682.552 Q52.6732 679.878 46.212 679.878 Q39.7508 679.878 36.0905 682.552 Q32.3984 685.225 32.3984 689.872 Q32.3984 694.519 36.0905 697.193 Q39.7508 699.835 46.212 699.835 M58.657 679.878 Q61.8398 681.724 63.3994 684.557 Q64.9272 687.358 64.9272 691.305 Q64.9272 697.766 59.771 701.84 Q54.6147 705.882 46.212 705.882 Q37.8093 705.882 32.6531 701.84 Q27.4968 697.766 27.4968 691.305 Q27.4968 687.358 29.0564 684.557 Q30.5842 681.724 33.7671 679.878 L28.3562 679.878 L28.3562 674.022 L77.5631 674.022 L77.5631 679.878 L58.657 679.878 Z" fill="#000000" fill-rule="evenodd" fill-opacity="1" /><path clip-path="url(#clip462)" d="
M393.725 1384.13 L393.725 1384.24 L459.619 1384.24 L459.619 1384.13 L393.725 1384.13 L393.725 1384.13  Z
  " fill="#009af9" fill-rule="evenodd" fill-opacity="1"/>
<polyline clip-path="url(#clip462)" style="stroke:#009af9; stroke-linecap:butt; stroke-linejoin:round; stroke-width:4; stroke-opacity:1; fill:none" points="
  393.725,1384.13 393.725,1384.24 459.619,1384.24 459.619,1384.13 393.725,1384.13 
  "/>
<path clip-path="url(#clip462)" d="
M459.619 1382.09 L459.619 1384.24 L525.512 1384.24 L525.512 1382.09 L459.619 1382.09 L459.619 1382.09  Z
  " fill="#009af9" fill-rule="evenodd" fill-opacity="1"/>
<polyline clip-path="url(#clip462)" style="stroke:#009af9; stroke-linecap:butt; stroke-linejoin:round; stroke-width:4; stroke-opacity:1; fill:none" points="
  459.619,1382.09 459.619,1384.24 525.512,1384.24 525.512,1382.09 459.619,1382.09 
  "/>
<path clip-path="url(#clip462)" d="
M525.512 1372.94 L525.512 1384.24 L591.405 1384.24 L591.405 1372.94 L525.512 1372.94 L525.512 1372.94  Z
  " fill="#009af9" fill-rule="evenodd" fill-opacity="1"/>
<polyline clip-path="url(#clip462)" style="stroke:#009af9; stroke-linecap:butt; stroke-linejoin:round; stroke-width:4; stroke-opacity:1; fill:none" points="
  525.512,1372.94 525.512,1384.24 591.405,1384.24 591.405,1372.94 525.512,1372.94 
  "/>
<path clip-path="url(#clip462)" d="
M591.405 1344.64 L591.405 1384.24 L657.298 1384.24 L657.298 1344.64 L591.405 1344.64 L591.405 1344.64  Z
  " fill="#009af9" fill-rule="evenodd" fill-opacity="1"/>
<polyline clip-path="url(#clip462)" style="stroke:#009af9; stroke-linecap:butt; stroke-linejoin:round; stroke-width:4; stroke-opacity:1; fill:none" points="
  591.405,1344.64 591.405,1384.24 657.298,1384.24 657.298,1344.64 591.405,1344.64 
  "/>
<path clip-path="url(#clip462)" d="
M657.298 1274.7 L657.298 1384.24 L723.191 1384.24 L723.191 1274.7 L657.298 1274.7 L657.298 1274.7  Z
  " fill="#009af9" fill-rule="evenodd" fill-opacity="1"/>
<polyline clip-path="url(#clip462)" style="stroke:#009af9; stroke-linecap:butt; stroke-linejoin:round; stroke-width:4; stroke-opacity:1; fill:none" points="
  657.298,1274.7 657.298,1384.24 723.191,1384.24 723.191,1274.7 657.298,1274.7 
  "/>
<path clip-path="url(#clip462)" d="
M723.191 1146.21 L723.191 1384.24 L789.085 1384.24 L789.085 1146.21 L723.191 1146.21 L723.191 1146.21  Z
  " fill="#009af9" fill-rule="evenodd" fill-opacity="1"/>
<polyline clip-path="url(#clip462)" style="stroke:#009af9; stroke-linecap:butt; stroke-linejoin:round; stroke-width:4; stroke-opacity:1; fill:none" points="
  723.191,1146.21 723.191,1384.24 789.085,1384.24 789.085,1146.21 723.191,1146.21 
  "/>
<path clip-path="url(#clip462)" d="
M789.085 956.827 L789.085 1384.24 L854.978 1384.24 L854.978 956.827 L789.085 956.827 L789.085 956.827  Z
  " fill="#009af9" fill-rule="evenodd" fill-opacity="1"/>
<polyline clip-path="url(#clip462)" style="stroke:#009af9; stroke-linecap:butt; stroke-linejoin:round; stroke-width:4; stroke-opacity:1; fill:none" points="
  789.085,956.827 789.085,1384.24 854.978,1384.24 854.978,956.827 789.085,956.827 
  "/>
<path clip-path="url(#clip462)" d="
M854.978 696.097 L854.978 1384.24 L920.871 1384.24 L920.871 696.097 L854.978 696.097 L854.978 696.097  Z
  " fill="#009af9" fill-rule="evenodd" fill-opacity="1"/>
<polyline clip-path="url(#clip462)" style="stroke:#009af9; stroke-linecap:butt; stroke-linejoin:round; stroke-width:4; stroke-opacity:1; fill:none" points="
  854.978,696.097 854.978,1384.24 920.871,1384.24 920.871,696.097 854.978,696.097 
  "/>
<path clip-path="url(#clip462)" d="
M920.871 423.854 L920.871 1384.24 L986.764 1384.24 L986.764 423.854 L920.871 423.854 L920.871 423.854  Z
  " fill="#009af9" fill-rule="evenodd" fill-opacity="1"/>
<polyline clip-path="url(#clip462)" style="stroke:#009af9; stroke-linecap:butt; stroke-linejoin:round; stroke-width:4; stroke-opacity:1; fill:none" points="
  920.871,423.854 920.871,1384.24 986.764,1384.24 986.764,423.854 920.871,423.854 
  "/>
<path clip-path="url(#clip462)" d="
M986.764 203.799 L986.764 1384.24 L1052.66 1384.24 L1052.66 203.799 L986.764 203.799 L986.764 203.799  Z
  " fill="#009af9" fill-rule="evenodd" fill-opacity="1"/>
<polyline clip-path="url(#clip462)" style="stroke:#009af9; stroke-linecap:butt; stroke-linejoin:round; stroke-width:4; stroke-opacity:1; fill:none" points="
  986.764,203.799 986.764,1384.24 1052.66,1384.24 1052.66,203.799 986.764,203.799 
  "/>
<path clip-path="url(#clip462)" d="
M1052.66 86.1857 L1052.66 1384.24 L1118.55 1384.24 L1118.55 86.1857 L1052.66 86.1857 L1052.66 86.1857  Z
  " fill="#009af9" fill-rule="evenodd" fill-opacity="1"/>
<polyline clip-path="url(#clip462)" style="stroke:#009af9; stroke-linecap:butt; stroke-linejoin:round; stroke-width:4; stroke-opacity:1; fill:none" points="
  1052.66,86.1857 1052.66,1384.24 1118.55,1384.24 1118.55,86.1857 1052.66,86.1857 
  "/>
<path clip-path="url(#clip462)" d="
M1118.55 98.668 L1118.55 1384.24 L1184.44 1384.24 L1184.44 98.668 L1118.55 98.668 L1118.55 98.668  Z
  " fill="#009af9" fill-rule="evenodd" fill-opacity="1"/>
<polyline clip-path="url(#clip462)" style="stroke:#009af9; stroke-linecap:butt; stroke-linejoin:round; stroke-width:4; stroke-opacity:1; fill:none" points="
  1118.55,98.668 1118.55,1384.24 1184.44,1384.24 1184.44,98.668 1118.55,98.668 
  "/>
<path clip-path="url(#clip462)" d="
M1184.44 199.172 L1184.44 1384.24 L1250.34 1384.24 L1250.34 199.172 L1184.44 199.172 L1184.44 199.172  Z
  " fill="#009af9" fill-rule="evenodd" fill-opacity="1"/>
<polyline clip-path="url(#clip462)" style="stroke:#009af9; stroke-linecap:butt; stroke-linejoin:round; stroke-width:4; stroke-opacity:1; fill:none" points="
  1184.44,199.172 1184.44,1384.24 1250.34,1384.24 1250.34,199.172 1184.44,199.172 
  "/>
<path clip-path="url(#clip462)" d="
M1250.34 383.609 L1250.34 1384.24 L1316.23 1384.24 L1316.23 383.609 L1250.34 383.609 L1250.34 383.609  Z
  " fill="#009af9" fill-rule="evenodd" fill-opacity="1"/>
<polyline clip-path="url(#clip462)" style="stroke:#009af9; stroke-linecap:butt; stroke-linejoin:round; stroke-width:4; stroke-opacity:1; fill:none" points="
  1250.34,383.609 1250.34,1384.24 1316.23,1384.24 1316.23,383.609 1250.34,383.609 
  "/>
<path clip-path="url(#clip462)" d="
M1316.23 591.612 L1316.23 1384.24 L1382.12 1384.24 L1382.12 591.612 L1316.23 591.612 L1316.23 591.612  Z
  " fill="#009af9" fill-rule="evenodd" fill-opacity="1"/>
<polyline clip-path="url(#clip462)" style="stroke:#009af9; stroke-linecap:butt; stroke-linejoin:round; stroke-width:4; stroke-opacity:1; fill:none" points="
  1316.23,591.612 1316.23,1384.24 1382.12,1384.24 1382.12,591.612 1316.23,591.612 
  "/>
<path clip-path="url(#clip462)" d="
M1382.12 814.894 L1382.12 1384.24 L1448.02 1384.24 L1448.02 814.894 L1382.12 814.894 L1382.12 814.894  Z
  " fill="#009af9" fill-rule="evenodd" fill-opacity="1"/>
<polyline clip-path="url(#clip462)" style="stroke:#009af9; stroke-linecap:butt; stroke-linejoin:round; stroke-width:4; stroke-opacity:1; fill:none" points="
  1382.12,814.894 1382.12,1384.24 1448.02,1384.24 1448.02,814.894 1382.12,814.894 
  "/>
<path clip-path="url(#clip462)" d="
M1448.02 997.502 L1448.02 1384.24 L1513.91 1384.24 L1513.91 997.502 L1448.02 997.502 L1448.02 997.502  Z
  " fill="#009af9" fill-rule="evenodd" fill-opacity="1"/>
<polyline clip-path="url(#clip462)" style="stroke:#009af9; stroke-linecap:butt; stroke-linejoin:round; stroke-width:4; stroke-opacity:1; fill:none" points="
  1448.02,997.502 1448.02,1384.24 1513.91,1384.24 1513.91,997.502 1448.02,997.502 
  "/>
<path clip-path="url(#clip462)" d="
M1513.91 1138.47 L1513.91 1384.24 L1579.8 1384.24 L1579.8 1138.47 L1513.91 1138.47 L1513.91 1138.47  Z
  " fill="#009af9" fill-rule="evenodd" fill-opacity="1"/>
<polyline clip-path="url(#clip462)" style="stroke:#009af9; stroke-linecap:butt; stroke-linejoin:round; stroke-width:4; stroke-opacity:1; fill:none" points="
  1513.91,1138.47 1513.91,1384.24 1579.8,1384.24 1579.8,1138.47 1513.91,1138.47 
  "/>
<path clip-path="url(#clip462)" d="
M1579.8 1236.93 L1579.8 1384.24 L1645.7 1384.24 L1645.7 1236.93 L1579.8 1236.93 L1579.8 1236.93  Z
  " fill="#009af9" fill-rule="evenodd" fill-opacity="1"/>
<polyline clip-path="url(#clip462)" style="stroke:#009af9; stroke-linecap:butt; stroke-linejoin:round; stroke-width:4; stroke-opacity:1; fill:none" points="
  1579.8,1236.93 1579.8,1384.24 1645.7,1384.24 1645.7,1236.93 1579.8,1236.93 
  "/>
<path clip-path="url(#clip462)" d="
M1645.7 1297.4 L1645.7 1384.24 L1711.59 1384.24 L1711.59 1297.4 L1645.7 1297.4 L1645.7 1297.4  Z
  " fill="#009af9" fill-rule="evenodd" fill-opacity="1"/>
<polyline clip-path="url(#clip462)" style="stroke:#009af9; stroke-linecap:butt; stroke-linejoin:round; stroke-width:4; stroke-opacity:1; fill:none" points="
  1645.7,1297.4 1645.7,1384.24 1711.59,1384.24 1711.59,1297.4 1645.7,1297.4 
  "/>
<path clip-path="url(#clip462)" d="
M1711.59 1337.97 L1711.59 1384.24 L1777.48 1384.24 L1777.48 1337.97 L1711.59 1337.97 L1711.59 1337.97  Z
  " fill="#009af9" fill-rule="evenodd" fill-opacity="1"/>
<polyline clip-path="url(#clip462)" style="stroke:#009af9; stroke-linecap:butt; stroke-linejoin:round; stroke-width:4; stroke-opacity:1; fill:none" points="
  1711.59,1337.97 1711.59,1384.24 1777.48,1384.24 1777.48,1337.97 1711.59,1337.97 
  "/>
<path clip-path="url(#clip462)" d="
M1777.48 1358.31 L1777.48 1384.24 L1843.38 1384.24 L1843.38 1358.31 L1777.48 1358.31 L1777.48 1358.31  Z
  " fill="#009af9" fill-rule="evenodd" fill-opacity="1"/>
<polyline clip-path="url(#clip462)" style="stroke:#009af9; stroke-linecap:butt; stroke-linejoin:round; stroke-width:4; stroke-opacity:1; fill:none" points="
  1777.48,1358.31 1777.48,1384.24 1843.38,1384.24 1843.38,1358.31 1777.48,1358.31 
  "/>
<path clip-path="url(#clip462)" d="
M1843.38 1371.97 L1843.38 1384.24 L1909.27 1384.24 L1909.27 1371.97 L1843.38 1371.97 L1843.38 1371.97  Z
  " fill="#009af9" fill-rule="evenodd" fill-opacity="1"/>
<polyline clip-path="url(#clip462)" style="stroke:#009af9; stroke-linecap:butt; stroke-linejoin:round; stroke-width:4; stroke-opacity:1; fill:none" points="
  1843.38,1371.97 1843.38,1384.24 1909.27,1384.24 1909.27,1371.97 1843.38,1371.97 
  "/>
<path clip-path="url(#clip462)" d="
M1909.27 1378.21 L1909.27 1384.24 L1975.16 1384.24 L1975.16 1378.21 L1909.27 1378.21 L1909.27 1378.21  Z
  " fill="#009af9" fill-rule="evenodd" fill-opacity="1"/>
<polyline clip-path="url(#clip462)" style="stroke:#009af9; stroke-linecap:butt; stroke-linejoin:round; stroke-width:4; stroke-opacity:1; fill:none" points="
  1909.27,1378.21 1909.27,1384.24 1975.16,1384.24 1975.16,1378.21 1909.27,1378.21 
  "/>
<path clip-path="url(#clip462)" d="
M1975.16 1382.09 L1975.16 1384.24 L2041.05 1384.24 L2041.05 1382.09 L1975.16 1382.09 L1975.16 1382.09  Z
  " fill="#009af9" fill-rule="evenodd" fill-opacity="1"/>
<polyline clip-path="url(#clip462)" style="stroke:#009af9; stroke-linecap:butt; stroke-linejoin:round; stroke-width:4; stroke-opacity:1; fill:none" points="
  1975.16,1382.09 1975.16,1384.24 2041.05,1384.24 2041.05,1382.09 1975.16,1382.09 
  "/>
<path clip-path="url(#clip462)" d="
M2041.05 1382.62 L2041.05 1384.24 L2106.95 1384.24 L2106.95 1382.62 L2041.05 1382.62 L2041.05 1382.62  Z
  " fill="#009af9" fill-rule="evenodd" fill-opacity="1"/>
<polyline clip-path="url(#clip462)" style="stroke:#009af9; stroke-linecap:butt; stroke-linejoin:round; stroke-width:4; stroke-opacity:1; fill:none" points="
  2041.05,1382.62 2041.05,1384.24 2106.95,1384.24 2106.95,1382.62 2041.05,1382.62 
  "/>
<path clip-path="url(#clip462)" d="
M2106.95 1383.92 L2106.95 1384.24 L2172.84 1384.24 L2172.84 1383.92 L2106.95 1383.92 L2106.95 1383.92  Z
  " fill="#009af9" fill-rule="evenodd" fill-opacity="1"/>
<polyline clip-path="url(#clip462)" style="stroke:#009af9; stroke-linecap:butt; stroke-linejoin:round; stroke-width:4; stroke-opacity:1; fill:none" points="
  2106.95,1383.92 2106.95,1384.24 2172.84,1384.24 2172.84,1383.92 2106.95,1383.92 
  "/>
<path clip-path="url(#clip462)" d="
M2172.84 1384.13 L2172.84 1384.24 L2238.73 1384.24 L2238.73 1384.13 L2172.84 1384.13 L2172.84 1384.13  Z
  " fill="#009af9" fill-rule="evenodd" fill-opacity="1"/>
<polyline clip-path="url(#clip462)" style="stroke:#009af9; stroke-linecap:butt; stroke-linejoin:round; stroke-width:4; stroke-opacity:1; fill:none" points="
  2172.84,1384.13 2172.84,1384.24 2238.73,1384.24 2238.73,1384.13 2172.84,1384.13 
  "/>
<polyline clip-path="url(#clip462)" style="stroke:#e26f46; stroke-linecap:butt; stroke-linejoin:round; stroke-width:12; stroke-opacity:1; fill:none" points="
  393.725,1378.95 400.315,1378.4 406.904,1377.8 413.493,1377.13 420.083,1376.41 426.672,1375.62 433.261,1374.77 439.851,1373.83 446.44,1372.81 453.029,1371.71 
  459.619,1370.51 466.208,1369.21 472.797,1367.81 479.387,1366.28 485.976,1364.64 492.565,1362.86 499.155,1360.94 505.744,1358.87 512.333,1356.65 518.922,1354.25 
  525.512,1351.68 532.101,1348.92 538.69,1345.97 545.28,1342.8 551.869,1339.41 558.458,1335.78 565.048,1331.91 571.637,1327.79 578.226,1323.39 584.816,1318.71 
  591.405,1313.73 597.994,1308.45 604.584,1302.84 611.173,1296.9 617.762,1290.61 624.352,1283.96 630.941,1276.93 637.53,1269.52 644.12,1261.7 650.709,1253.48 
  657.298,1244.82 663.887,1235.73 670.477,1226.18 677.066,1216.18 683.655,1205.71 690.245,1194.76 696.834,1183.31 703.423,1171.37 710.013,1158.93 716.602,1145.97 
  723.191,1132.5 729.781,1118.51 736.37,1103.99 742.959,1088.96 749.549,1073.39 756.138,1057.31 762.727,1040.7 769.317,1023.58 775.906,1005.95 782.495,987.817 
  789.085,969.193 795.674,950.089 802.263,930.519 808.852,910.498 815.442,890.042 822.031,869.172 828.62,847.908 835.21,826.273 841.799,804.294 848.388,781.996 
  854.978,759.409 861.567,736.564 868.156,713.494 874.746,690.234 881.335,666.819 887.924,643.289 894.514,619.681 901.103,596.039 907.692,572.404 914.282,548.82 
  920.871,525.332 927.46,501.986 934.049,478.829 940.639,455.908 947.228,433.272 953.817,410.97 960.407,389.049 966.996,367.56 973.585,346.55 980.175,326.068 
  986.764,306.163 993.353,286.881 999.943,268.269 1006.53,250.373 1013.12,233.237 1019.71,216.904 1026.3,201.414 1032.89,186.808 1039.48,173.124 1046.07,160.395 
  1052.66,148.657 1059.25,137.94 1065.84,128.272 1072.43,119.68 1079.01,112.185 1085.6,105.809 1092.19,100.568 1098.78,96.4776 1105.37,93.5475 1111.96,91.7863 
  1118.55,91.1987 1125.14,91.7863 1131.73,93.5475 1138.32,96.4776 1144.91,100.568 1151.5,105.809 1158.09,112.185 1164.68,119.68 1171.26,128.272 1177.85,137.94 
  1184.44,148.657 1191.03,160.395 1197.62,173.124 1204.21,186.808 1210.8,201.414 1217.39,216.904 1223.98,233.237 1230.57,250.373 1237.16,268.269 1243.75,286.881 
  1250.34,306.163 1256.93,326.068 1263.52,346.55 1270.1,367.56 1276.69,389.049 1283.28,410.97 1289.87,433.272 1296.46,455.908 1303.05,478.829 1309.64,501.986 
  1316.23,525.332 1322.82,548.82 1329.41,572.404 1336,596.039 1342.59,619.681 1349.18,643.289 1355.77,666.819 1362.36,690.234 1368.94,713.494 1375.53,736.564 
  1382.12,759.409 1388.71,781.996 1395.3,804.294 1401.89,826.273 1408.48,847.908 1415.07,869.172 1421.66,890.042 1428.25,910.498 1434.84,930.519 1441.43,950.089 
  1448.02,969.193 1454.61,987.817 1461.19,1005.95 1467.78,1023.58 1474.37,1040.7 1480.96,1057.31 1487.55,1073.39 1494.14,1088.96 1500.73,1103.99 1507.32,1118.51 
  1513.91,1132.5 1520.5,1145.97 1527.09,1158.93 1533.68,1171.37 1540.27,1183.31 1546.86,1194.76 1553.45,1205.71 1560.03,1216.18 1566.62,1226.18 1573.21,1235.73 
  1579.8,1244.82 1586.39,1253.48 1592.98,1261.7 1599.57,1269.52 1606.16,1276.93 1612.75,1283.96 1619.34,1290.61 1625.93,1296.9 1632.52,1302.84 1639.11,1308.45 
  1645.7,1313.73 1652.29,1318.71 1658.87,1323.39 1665.46,1327.79 1672.05,1331.91 1678.64,1335.78 1685.23,1339.41 1691.82,1342.8 1698.41,1345.97 1705,1348.92 
  1711.59,1351.68 1718.18,1354.25 1724.77,1356.65 1731.36,1358.87 1737.95,1360.94 1744.54,1362.86 1751.12,1364.64 1757.71,1366.28 1764.3,1367.81 1770.89,1369.21 
  1777.48,1370.51 1784.07,1371.71 1790.66,1372.81 1797.25,1373.83 1803.84,1374.77 1810.43,1375.62 1817.02,1376.41 1823.61,1377.13 1830.2,1377.8 1836.79,1378.4 
  1843.38,1378.95 1849.96,1379.46 1856.55,1379.92 1863.14,1380.34 1869.73,1380.72 1876.32,1381.07 1882.91,1381.39 1889.5,1381.67 1896.09,1381.93 1902.68,1382.17 
  1909.27,1382.38 1915.86,1382.57 1922.45,1382.75 1929.04,1382.9 1935.63,1383.05 1942.22,1383.17 1948.8,1383.29 1955.39,1383.39 1961.98,1383.48 1968.57,1383.57 
  1975.16,1383.64 1981.75,1383.71 1988.34,1383.77 1994.93,1383.82 2001.52,1383.87 2008.11,1383.91 2014.7,1383.95 2021.29,1383.98 2027.88,1384.01 2034.47,1384.04 
  2041.05,1384.06 2047.64,1384.08 2054.23,1384.1 2060.82,1384.12 2067.41,1384.13 2074,1384.15 2080.59,1384.16 2087.18,1384.17 2093.77,1384.18 2100.36,1384.18 
  2106.95,1384.19 2113.54,1384.2 2120.13,1384.2 2126.72,1384.21 2133.31,1384.21 2139.89,1384.21 2146.48,1384.22 2153.07,1384.22 2159.66,1384.22 2166.25,1384.23 
  2172.84,1384.23 
  "/>
<polyline clip-path="url(#clip462)" style="stroke:#3da44d; stroke-linecap:butt; stroke-linejoin:round; stroke-width:12; stroke-opacity:1; fill:none" points="
  393.725,1384.06 400.315,1384 406.904,1383.92 413.493,1383.83 420.083,1383.71 426.672,1383.57 433.261,1383.39 439.851,1383.18 446.44,1382.93 453.029,1382.62 
  459.619,1382.26 466.208,1381.84 472.797,1381.34 479.387,1380.76 485.976,1380.09 492.565,1379.31 499.155,1378.42 505.744,1377.39 512.333,1376.22 518.922,1374.88 
  525.512,1373.38 532.101,1371.67 538.69,1369.76 545.28,1367.62 551.869,1365.22 558.458,1362.56 565.048,1359.6 571.637,1356.33 578.226,1352.72 584.816,1348.76 
  591.405,1344.41 597.994,1339.66 604.584,1334.47 611.173,1328.83 617.762,1322.72 624.352,1316.1 630.941,1308.96 637.53,1301.27 644.12,1293.01 650.709,1284.17 
  657.298,1274.71 663.887,1264.63 670.477,1253.9 677.066,1242.5 683.655,1230.44 690.245,1217.68 696.834,1204.22 703.423,1190.06 710.013,1175.18 716.602,1159.59 
  723.191,1143.28 729.781,1126.25 736.37,1108.52 742.959,1090.07 749.549,1070.94 756.138,1051.12 762.727,1030.64 769.317,1009.51 775.906,987.755 782.495,965.404 
  789.085,942.482 795.674,919.021 802.263,895.054 808.852,870.618 815.442,845.752 822.031,820.499 828.62,794.902 835.21,769.01 841.799,742.869 848.388,716.532 
  854.978,690.05 861.567,663.479 868.156,636.873 874.746,610.289 881.335,583.786 887.924,557.42 894.514,531.252 901.103,505.34 907.692,479.743 914.282,454.52 
  920.871,429.73 927.46,405.429 934.049,381.675 940.639,358.523 947.228,336.027 953.817,314.239 960.407,293.209 966.996,272.988 973.585,253.619 980.175,235.149 
  986.764,217.617 993.353,201.063 999.943,185.521 1006.53,171.027 1013.12,157.608 1019.71,145.291 1026.3,134.101 1032.89,124.057 1039.48,115.176 1046.07,107.472 
  1052.66,100.955 1059.25,95.631 1065.84,91.5044 1072.43,88.5753 1079.01,86.8405 1085.6,86.2939 1092.19,86.9261 1098.78,88.725 1105.37,91.6752 1111.96,95.7587 
  1118.55,100.955 1125.14,107.24 1131.73,114.589 1138.32,122.973 1144.91,132.363 1151.5,142.726 1158.09,154.028 1164.68,166.234 1171.26,179.307 1177.85,193.207 
  1184.44,207.895 1191.03,223.331 1197.62,239.473 1204.21,256.278 1210.8,273.704 1217.39,291.708 1223.98,310.246 1230.57,329.274 1237.16,348.75 1243.75,368.63 
  1250.34,388.871 1256.93,409.43 1263.52,430.267 1270.1,451.339 1276.69,472.606 1283.28,494.028 1289.87,515.568 1296.46,537.187 1303.05,558.849 1309.64,580.519 
  1316.23,602.164 1322.82,623.75 1329.41,645.246 1336,666.623 1342.59,687.852 1349.18,708.906 1355.77,729.76 1362.36,750.39 1368.94,770.773 1375.53,790.889 
  1382.12,810.717 1388.71,830.24 1395.3,849.441 1401.89,868.306 1408.48,886.82 1415.07,904.971 1421.66,922.748 1428.25,940.141 1434.84,957.142 1441.43,973.745 
  1448.02,989.942 1454.61,1005.73 1461.19,1021.1 1467.78,1036.06 1474.37,1050.6 1480.96,1064.73 1487.55,1078.43 1494.14,1091.72 1500.73,1104.59 1507.32,1117.05 
  1513.91,1129.11 1520.5,1140.75 1527.09,1152 1533.68,1162.86 1540.27,1173.32 1546.86,1183.4 1553.45,1193.11 1560.03,1202.45 1566.62,1211.42 1573.21,1220.05 
  1579.8,1228.32 1586.39,1236.26 1592.98,1243.88 1599.57,1251.17 1606.16,1258.15 1612.75,1264.82 1619.34,1271.2 1625.93,1277.3 1632.52,1283.12 1639.11,1288.68 
  1645.7,1293.97 1652.29,1299.02 1658.87,1303.82 1665.46,1308.39 1672.05,1312.74 1678.64,1316.88 1685.23,1320.8 1691.82,1324.53 1698.41,1328.06 1705,1331.42 
  1711.59,1334.59 1718.18,1337.6 1724.77,1340.45 1731.36,1343.14 1737.95,1345.69 1744.54,1348.09 1751.12,1350.36 1757.71,1352.51 1764.3,1354.53 1770.89,1356.44 
  1777.48,1358.23 1784.07,1359.92 1790.66,1361.52 1797.25,1363.01 1803.84,1364.42 1810.43,1365.74 1817.02,1366.99 1823.61,1368.15 1830.2,1369.25 1836.79,1370.27 
  1843.38,1371.24 1849.96,1372.14 1856.55,1372.98 1863.14,1373.77 1869.73,1374.51 1876.32,1375.2 1882.91,1375.84 1889.5,1376.44 1896.09,1377.01 1902.68,1377.53 
  1909.27,1378.02 1915.86,1378.48 1922.45,1378.9 1929.04,1379.3 1935.63,1379.66 1942.22,1380.01 1948.8,1380.32 1955.39,1380.62 1961.98,1380.9 1968.57,1381.15 
  1975.16,1381.39 1981.75,1381.61 1988.34,1381.81 1994.93,1382 2001.52,1382.18 2008.11,1382.34 2014.7,1382.49 2021.29,1382.63 2027.88,1382.76 2034.47,1382.87 
  2041.05,1382.98 2047.64,1383.09 2054.23,1383.18 2060.82,1383.27 2067.41,1383.35 2074,1383.42 2080.59,1383.49 2087.18,1383.55 2093.77,1383.61 2100.36,1383.66 
  2106.95,1383.71 2113.54,1383.75 2120.13,1383.79 2126.72,1383.83 2133.31,1383.87 2139.89,1383.9 2146.48,1383.93 2153.07,1383.95 2159.66,1383.98 2166.25,1384 
  2172.84,1384.02 
  "/>
<path clip-path="url(#clip460)" d="
M1782.69 335.029 L2283.65 335.029 L2283.65 93.1086 L1782.69 93.1086  Z
  " fill="#ffffff" fill-rule="evenodd" fill-opacity="1"/>
<polyline clip-path="url(#clip460)" style="stroke:#000000; stroke-linecap:butt; stroke-linejoin:round; stroke-width:4; stroke-opacity:1; fill:none" points="
  1782.69,335.029 2283.65,335.029 2283.65,93.1086 1782.69,93.1086 1782.69,335.029 
  "/>
<path clip-path="url(#clip460)" d="
M1805.73 177.781 L1943.93 177.781 L1943.93 129.397 L1805.73 129.397 L1805.73 177.781  Z
  " fill="#009af9" fill-rule="evenodd" fill-opacity="1"/>
<polyline clip-path="url(#clip460)" style="stroke:#009af9; stroke-linecap:butt; stroke-linejoin:round; stroke-width:4; stroke-opacity:1; fill:none" points="
  1805.73,177.781 1943.93,177.781 1943.93,129.397 1805.73,129.397 1805.73,177.781 
  "/>
<path clip-path="url(#clip460)" d="M1989.21 137.443 L1989.21 142.003 Q1986.55 140.73 1984.18 140.105 Q1981.82 139.48 1979.62 139.48 Q1975.81 139.48 1973.72 140.961 Q1971.66 142.443 1971.66 145.174 Q1971.66 147.466 1973.03 148.647 Q1974.42 149.804 1978.26 150.522 L1981.08 151.1 Q1986.31 152.096 1988.79 154.619 Q1991.29 157.119 1991.29 161.332 Q1991.29 166.355 1987.91 168.947 Q1984.56 171.54 1978.05 171.54 Q1975.6 171.54 1972.82 170.984 Q1970.06 170.429 1967.1 169.341 L1967.1 164.526 Q1969.95 166.123 1972.68 166.933 Q1975.41 167.744 1978.05 167.744 Q1982.06 167.744 1984.23 166.17 Q1986.41 164.596 1986.41 161.679 Q1986.41 159.133 1984.83 157.697 Q1983.28 156.262 1979.72 155.545 L1976.87 154.989 Q1971.64 153.947 1969.3 151.725 Q1966.96 149.503 1966.96 145.545 Q1966.96 140.961 1970.18 138.322 Q1973.42 135.684 1979.09 135.684 Q1981.52 135.684 1984.05 136.123 Q1986.57 136.563 1989.21 137.443 Z" fill="#000000" fill-rule="evenodd" fill-opacity="1" /><path clip-path="url(#clip460)" d="M2019.3 137.443 L2019.3 142.003 Q2016.64 140.73 2014.28 140.105 Q2011.92 139.48 2009.72 139.48 Q2005.9 139.48 2003.81 140.961 Q2001.75 142.443 2001.75 145.174 Q2001.75 147.466 2003.12 148.647 Q2004.51 149.804 2008.35 150.522 L2011.18 151.1 Q2016.41 152.096 2018.88 154.619 Q2021.38 157.119 2021.38 161.332 Q2021.38 166.355 2018 168.947 Q2014.65 171.54 2008.14 171.54 Q2005.69 171.54 2002.91 170.984 Q2000.16 170.429 1997.19 169.341 L1997.19 164.526 Q2000.04 166.123 2002.77 166.933 Q2005.5 167.744 2008.14 167.744 Q2012.15 167.744 2014.32 166.17 Q2016.5 164.596 2016.5 161.679 Q2016.5 159.133 2014.93 157.697 Q2013.37 156.262 2009.81 155.545 L2006.96 154.989 Q2001.73 153.947 1999.39 151.725 Q1997.06 149.503 1997.06 145.545 Q1997.06 140.961 2000.27 138.322 Q2003.51 135.684 2009.18 135.684 Q2011.62 135.684 2014.14 136.123 Q2016.66 136.563 2019.3 137.443 Z" fill="#000000" fill-rule="evenodd" fill-opacity="1" /><path clip-path="url(#clip460)" d="M2041.11 140.915 L2034.76 158.114 L2047.47 158.114 L2041.11 140.915 M2038.47 136.309 L2043.77 136.309 L2056.94 170.869 L2052.08 170.869 L2048.93 162.003 L2033.35 162.003 L2030.2 170.869 L2025.27 170.869 L2038.47 136.309 Z" fill="#000000" fill-rule="evenodd" fill-opacity="1" /><polyline clip-path="url(#clip460)" style="stroke:#e26f46; stroke-linecap:butt; stroke-linejoin:round; stroke-width:4; stroke-opacity:1; fill:none" points="
  1805.73,214.069 1943.93,214.069 
  "/>
<path clip-path="url(#clip460)" d="M1985.87 218.085 Q1985.87 213.455 1983.95 210.909 Q1982.06 208.363 1978.61 208.363 Q1975.18 208.363 1973.26 210.909 Q1971.36 213.455 1971.36 218.085 Q1971.36 222.691 1973.26 225.238 Q1975.18 227.784 1978.61 227.784 Q1982.06 227.784 1983.95 225.238 Q1985.87 222.691 1985.87 218.085 M1990.13 228.131 Q1990.13 234.751 1987.19 237.969 Q1984.25 241.21 1978.19 241.21 Q1975.94 241.21 1973.95 240.862 Q1971.96 240.538 1970.09 239.844 L1970.09 235.7 Q1971.96 236.719 1973.79 237.205 Q1975.62 237.691 1977.52 237.691 Q1981.71 237.691 1983.79 235.492 Q1985.87 233.316 1985.87 228.895 L1985.87 226.788 Q1984.56 229.08 1982.5 230.214 Q1980.43 231.349 1977.56 231.349 Q1972.8 231.349 1969.88 227.714 Q1966.96 224.08 1966.96 218.085 Q1966.96 212.066 1969.88 208.432 Q1972.8 204.798 1977.56 204.798 Q1980.43 204.798 1982.5 205.932 Q1984.56 207.066 1985.87 209.358 L1985.87 205.423 L1990.13 205.423 L1990.13 228.131 Z" fill="#000000" fill-rule="evenodd" fill-opacity="1" /><path clip-path="url(#clip460)" d="M2010.69 218.316 Q2005.53 218.316 2003.54 219.497 Q2001.55 220.677 2001.55 223.525 Q2001.55 225.793 2003.03 227.136 Q2004.53 228.455 2007.1 228.455 Q2010.64 228.455 2012.77 225.955 Q2014.93 223.432 2014.93 219.265 L2014.93 218.316 L2010.69 218.316 M2019.18 216.557 L2019.18 231.349 L2014.93 231.349 L2014.93 227.413 Q2013.47 229.775 2011.29 230.909 Q2009.12 232.02 2005.97 232.02 Q2001.99 232.02 1999.62 229.798 Q1997.29 227.552 1997.29 223.802 Q1997.29 219.427 2000.2 217.205 Q2003.14 214.983 2008.95 214.983 L2014.93 214.983 L2014.93 214.566 Q2014.93 211.627 2012.98 210.029 Q2011.06 208.409 2007.56 208.409 Q2005.34 208.409 2003.24 208.941 Q2001.13 209.474 1999.18 210.539 L1999.18 206.603 Q2001.52 205.701 2003.72 205.261 Q2005.92 204.798 2008 204.798 Q2013.63 204.798 2016.41 207.714 Q2019.18 210.631 2019.18 216.557 Z" fill="#000000" fill-rule="evenodd" fill-opacity="1" /><path clip-path="url(#clip460)" d="M2027.52 221.117 L2027.52 205.423 L2031.78 205.423 L2031.78 220.955 Q2031.78 224.636 2033.21 226.488 Q2034.65 228.316 2037.52 228.316 Q2040.97 228.316 2042.96 226.117 Q2044.97 223.918 2044.97 220.122 L2044.97 205.423 L2049.23 205.423 L2049.23 231.349 L2044.97 231.349 L2044.97 227.367 Q2043.42 229.728 2041.36 230.886 Q2039.32 232.02 2036.62 232.02 Q2032.15 232.02 2029.83 229.242 Q2027.52 226.464 2027.52 221.117 M2038.24 204.798 L2038.24 204.798 Z" fill="#000000" fill-rule="evenodd" fill-opacity="1" /><path clip-path="url(#clip460)" d="M2074.53 206.187 L2074.53 210.214 Q2072.73 209.289 2070.78 208.826 Q2068.84 208.363 2066.75 208.363 Q2063.58 208.363 2061.99 209.335 Q2060.41 210.307 2060.41 212.251 Q2060.41 213.733 2061.55 214.589 Q2062.68 215.423 2066.11 216.187 L2067.56 216.511 Q2072.1 217.483 2074 219.265 Q2075.92 221.025 2075.92 224.196 Q2075.92 227.807 2073.05 229.913 Q2070.2 232.02 2065.2 232.02 Q2063.12 232.02 2060.85 231.603 Q2058.61 231.21 2056.11 230.4 L2056.11 226.001 Q2058.47 227.228 2060.76 227.853 Q2063.05 228.455 2065.3 228.455 Q2068.3 228.455 2069.93 227.437 Q2071.55 226.395 2071.55 224.52 Q2071.55 222.784 2070.37 221.858 Q2069.21 220.932 2065.25 220.076 L2063.77 219.728 Q2059.81 218.895 2058.05 217.182 Q2056.29 215.446 2056.29 212.437 Q2056.29 208.779 2058.88 206.789 Q2061.48 204.798 2066.24 204.798 Q2068.61 204.798 2070.69 205.145 Q2072.77 205.492 2074.53 206.187 Z" fill="#000000" fill-rule="evenodd" fill-opacity="1" /><path clip-path="url(#clip460)" d="M2099.23 206.187 L2099.23 210.214 Q2097.43 209.289 2095.48 208.826 Q2093.54 208.363 2091.45 208.363 Q2088.28 208.363 2086.68 209.335 Q2085.11 210.307 2085.11 212.251 Q2085.11 213.733 2086.24 214.589 Q2087.38 215.423 2090.8 216.187 L2092.26 216.511 Q2096.8 217.483 2098.7 219.265 Q2100.62 221.025 2100.62 224.196 Q2100.62 227.807 2097.75 229.913 Q2094.9 232.02 2089.9 232.02 Q2087.82 232.02 2085.55 231.603 Q2083.3 231.21 2080.8 230.4 L2080.8 226.001 Q2083.17 227.228 2085.46 227.853 Q2087.75 228.455 2089.99 228.455 Q2093 228.455 2094.62 227.437 Q2096.24 226.395 2096.24 224.52 Q2096.24 222.784 2095.06 221.858 Q2093.91 220.932 2089.95 220.076 L2088.47 219.728 Q2084.51 218.895 2082.75 217.182 Q2080.99 215.446 2080.99 212.437 Q2080.99 208.779 2083.58 206.789 Q2086.18 204.798 2090.94 204.798 Q2093.3 204.798 2095.39 205.145 Q2097.47 205.492 2099.23 206.187 Z" fill="#000000" fill-rule="evenodd" fill-opacity="1" /><path clip-path="url(#clip460)" d="M2107.4 205.423 L2111.66 205.423 L2111.66 231.349 L2107.4 231.349 L2107.4 205.423 M2107.4 195.33 L2111.66 195.33 L2111.66 200.724 L2107.4 200.724 L2107.4 195.33 Z" fill="#000000" fill-rule="evenodd" fill-opacity="1" /><path clip-path="url(#clip460)" d="M2132.36 218.316 Q2127.19 218.316 2125.2 219.497 Q2123.21 220.677 2123.21 223.525 Q2123.21 225.793 2124.69 227.136 Q2126.2 228.455 2128.77 228.455 Q2132.31 228.455 2134.44 225.955 Q2136.59 223.432 2136.59 219.265 L2136.59 218.316 L2132.36 218.316 M2140.85 216.557 L2140.85 231.349 L2136.59 231.349 L2136.59 227.413 Q2135.13 229.775 2132.96 230.909 Q2130.78 232.02 2127.63 232.02 Q2123.65 232.02 2121.29 229.798 Q2118.95 227.552 2118.95 223.802 Q2118.95 219.427 2121.87 217.205 Q2124.81 214.983 2130.62 214.983 L2136.59 214.983 L2136.59 214.566 Q2136.59 211.627 2134.65 210.029 Q2132.73 208.409 2129.23 208.409 Q2127.01 208.409 2124.9 208.941 Q2122.8 209.474 2120.85 210.539 L2120.85 206.603 Q2123.19 205.701 2125.39 205.261 Q2127.59 204.798 2129.67 204.798 Q2135.3 204.798 2138.07 207.714 Q2140.85 210.631 2140.85 216.557 Z" fill="#000000" fill-rule="evenodd" fill-opacity="1" /><path clip-path="url(#clip460)" d="M2171.17 215.701 L2171.17 231.349 L2166.92 231.349 L2166.92 215.839 Q2166.92 212.159 2165.48 210.33 Q2164.05 208.502 2161.17 208.502 Q2157.73 208.502 2155.73 210.701 Q2153.74 212.9 2153.74 216.696 L2153.74 231.349 L2149.46 231.349 L2149.46 205.423 L2153.74 205.423 L2153.74 209.451 Q2155.27 207.113 2157.33 205.955 Q2159.42 204.798 2162.12 204.798 Q2166.59 204.798 2168.88 207.576 Q2171.17 210.33 2171.17 215.701 Z" fill="#000000" fill-rule="evenodd" fill-opacity="1" /><path clip-path="url(#clip460)" d="M2207.86 195.33 L2207.86 198.872 L2203.79 198.872 Q2201.5 198.872 2200.6 199.798 Q2199.72 200.724 2199.72 203.131 L2199.72 205.423 L2206.73 205.423 L2206.73 208.733 L2199.72 208.733 L2199.72 231.349 L2195.43 231.349 L2195.43 208.733 L2191.36 208.733 L2191.36 205.423 L2195.43 205.423 L2195.43 203.617 Q2195.43 199.289 2197.45 197.321 Q2199.46 195.33 2203.84 195.33 L2207.86 195.33 Z" fill="#000000" fill-rule="evenodd" fill-opacity="1" /><path clip-path="url(#clip460)" d="M2211.43 205.423 L2215.69 205.423 L2215.69 231.349 L2211.43 231.349 L2211.43 205.423 M2211.43 195.33 L2215.69 195.33 L2215.69 200.724 L2211.43 200.724 L2211.43 195.33 Z" fill="#000000" fill-rule="evenodd" fill-opacity="1" /><path clip-path="url(#clip460)" d="M2228.81 198.062 L2228.81 205.423 L2237.59 205.423 L2237.59 208.733 L2228.81 208.733 L2228.81 222.807 Q2228.81 225.978 2229.67 226.881 Q2230.55 227.784 2233.21 227.784 L2237.59 227.784 L2237.59 231.349 L2233.21 231.349 Q2228.28 231.349 2226.41 229.52 Q2224.53 227.668 2224.53 222.807 L2224.53 208.733 L2221.41 208.733 L2221.41 205.423 L2224.53 205.423 L2224.53 198.062 L2228.81 198.062 Z" fill="#000000" fill-rule="evenodd" fill-opacity="1" /><polyline clip-path="url(#clip460)" style="stroke:#3da44d; stroke-linecap:butt; stroke-linejoin:round; stroke-width:4; stroke-opacity:1; fill:none" points="
  1805.73,274.549 1943.93,274.549 
  "/>
<path clip-path="url(#clip460)" d="M1971.25 287.94 L1971.25 301.69 L1966.96 301.69 L1966.96 265.903 L1971.25 265.903 L1971.25 269.838 Q1972.59 267.523 1974.62 266.412 Q1976.68 265.278 1979.53 265.278 Q1984.25 265.278 1987.19 269.028 Q1990.16 272.778 1990.16 278.889 Q1990.16 285 1987.19 288.75 Q1984.25 292.5 1979.53 292.5 Q1976.68 292.5 1974.62 291.389 Q1972.59 290.255 1971.25 287.94 M1985.74 278.889 Q1985.74 274.19 1983.79 271.528 Q1981.87 268.843 1978.49 268.843 Q1975.11 268.843 1973.17 271.528 Q1971.25 274.19 1971.25 278.889 Q1971.25 283.588 1973.17 286.273 Q1975.11 288.935 1978.49 288.935 Q1981.87 288.935 1983.79 286.273 Q1985.74 283.588 1985.74 278.889 Z" fill="#000000" fill-rule="evenodd" fill-opacity="1" /><path clip-path="url(#clip460)" d="M2007.26 268.889 Q2003.84 268.889 2001.85 271.574 Q1999.86 274.236 1999.86 278.889 Q1999.86 283.542 2001.82 286.227 Q2003.81 288.889 2007.26 288.889 Q2010.67 288.889 2012.66 286.204 Q2014.65 283.518 2014.65 278.889 Q2014.65 274.282 2012.66 271.597 Q2010.67 268.889 2007.26 268.889 M2007.26 265.278 Q2012.82 265.278 2015.99 268.889 Q2019.16 272.5 2019.16 278.889 Q2019.16 285.255 2015.99 288.889 Q2012.82 292.5 2007.26 292.5 Q2001.68 292.5 1998.51 288.889 Q1995.37 285.255 1995.37 278.889 Q1995.37 272.5 1998.51 268.889 Q2001.68 265.278 2007.26 265.278 Z" fill="#000000" fill-rule="evenodd" fill-opacity="1" /><path clip-path="url(#clip460)" d="M2026.22 265.903 L2030.48 265.903 L2030.48 291.829 L2026.22 291.829 L2026.22 265.903 M2026.22 255.81 L2030.48 255.81 L2030.48 261.204 L2026.22 261.204 L2026.22 255.81 Z" fill="#000000" fill-rule="evenodd" fill-opacity="1" /><path clip-path="url(#clip460)" d="M2055.92 266.667 L2055.92 270.694 Q2054.12 269.769 2052.17 269.306 Q2050.23 268.843 2048.14 268.843 Q2044.97 268.843 2043.37 269.815 Q2041.8 270.787 2041.8 272.731 Q2041.8 274.213 2042.93 275.069 Q2044.07 275.903 2047.49 276.667 L2048.95 276.991 Q2053.49 277.963 2055.39 279.745 Q2057.31 281.505 2057.31 284.676 Q2057.31 288.287 2054.44 290.393 Q2051.59 292.5 2046.59 292.5 Q2044.51 292.5 2042.24 292.083 Q2039.99 291.69 2037.49 290.88 L2037.49 286.481 Q2039.86 287.708 2042.15 288.333 Q2044.44 288.935 2046.68 288.935 Q2049.69 288.935 2051.31 287.917 Q2052.93 286.875 2052.93 285 Q2052.93 283.264 2051.75 282.338 Q2050.6 281.412 2046.64 280.556 L2045.16 280.208 Q2041.2 279.375 2039.44 277.662 Q2037.68 275.926 2037.68 272.917 Q2037.68 269.259 2040.27 267.269 Q2042.87 265.278 2047.63 265.278 Q2049.99 265.278 2052.08 265.625 Q2054.16 265.972 2055.92 266.667 Z" fill="#000000" fill-rule="evenodd" fill-opacity="1" /><path clip-path="url(#clip460)" d="M2080.62 266.667 L2080.62 270.694 Q2078.81 269.769 2076.87 269.306 Q2074.93 268.843 2072.84 268.843 Q2069.67 268.843 2068.07 269.815 Q2066.5 270.787 2066.5 272.731 Q2066.5 274.213 2067.63 275.069 Q2068.77 275.903 2072.19 276.667 L2073.65 276.991 Q2078.19 277.963 2080.09 279.745 Q2082.01 281.505 2082.01 284.676 Q2082.01 288.287 2079.14 290.393 Q2076.29 292.5 2071.29 292.5 Q2069.21 292.5 2066.94 292.083 Q2064.69 291.69 2062.19 290.88 L2062.19 286.481 Q2064.55 287.708 2066.85 288.333 Q2069.14 288.935 2071.38 288.935 Q2074.39 288.935 2076.01 287.917 Q2077.63 286.875 2077.63 285 Q2077.63 283.264 2076.45 282.338 Q2075.3 281.412 2071.34 280.556 L2069.86 280.208 Q2065.9 279.375 2064.14 277.662 Q2062.38 275.926 2062.38 272.917 Q2062.38 269.259 2064.97 267.269 Q2067.56 265.278 2072.33 265.278 Q2074.69 265.278 2076.78 265.625 Q2078.86 265.972 2080.62 266.667 Z" fill="#000000" fill-rule="evenodd" fill-opacity="1" /><path clip-path="url(#clip460)" d="M2098.84 268.889 Q2095.41 268.889 2093.42 271.574 Q2091.43 274.236 2091.43 278.889 Q2091.43 283.542 2093.4 286.227 Q2095.39 288.889 2098.84 288.889 Q2102.24 288.889 2104.23 286.204 Q2106.22 283.518 2106.22 278.889 Q2106.22 274.282 2104.23 271.597 Q2102.24 268.889 2098.84 268.889 M2098.84 265.278 Q2104.39 265.278 2107.56 268.889 Q2110.74 272.5 2110.74 278.889 Q2110.74 285.255 2107.56 288.889 Q2104.39 292.5 2098.84 292.5 Q2093.26 292.5 2090.09 288.889 Q2086.94 285.255 2086.94 278.889 Q2086.94 272.5 2090.09 268.889 Q2093.26 265.278 2098.84 265.278 Z" fill="#000000" fill-rule="evenodd" fill-opacity="1" /><path clip-path="url(#clip460)" d="M2139.35 276.181 L2139.35 291.829 L2135.09 291.829 L2135.09 276.319 Q2135.09 272.639 2133.65 270.81 Q2132.22 268.982 2129.35 268.982 Q2125.9 268.982 2123.91 271.181 Q2121.92 273.38 2121.92 277.176 L2121.92 291.829 L2117.63 291.829 L2117.63 265.903 L2121.92 265.903 L2121.92 269.931 Q2123.44 267.593 2125.5 266.435 Q2127.59 265.278 2130.3 265.278 Q2134.76 265.278 2137.05 268.056 Q2139.35 270.81 2139.35 276.181 Z" fill="#000000" fill-rule="evenodd" fill-opacity="1" /><path clip-path="url(#clip460)" d="M2176.04 255.81 L2176.04 259.352 L2171.96 259.352 Q2169.67 259.352 2168.77 260.278 Q2167.89 261.204 2167.89 263.611 L2167.89 265.903 L2174.9 265.903 L2174.9 269.213 L2167.89 269.213 L2167.89 291.829 L2163.61 291.829 L2163.61 269.213 L2159.53 269.213 L2159.53 265.903 L2163.61 265.903 L2163.61 264.097 Q2163.61 259.769 2165.62 257.801 Q2167.63 255.81 2172.01 255.81 L2176.04 255.81 Z" fill="#000000" fill-rule="evenodd" fill-opacity="1" /><path clip-path="url(#clip460)" d="M2179.6 265.903 L2183.86 265.903 L2183.86 291.829 L2179.6 291.829 L2179.6 265.903 M2179.6 255.81 L2183.86 255.81 L2183.86 261.204 L2179.6 261.204 L2179.6 255.81 Z" fill="#000000" fill-rule="evenodd" fill-opacity="1" /><path clip-path="url(#clip460)" d="M2196.98 258.542 L2196.98 265.903 L2205.76 265.903 L2205.76 269.213 L2196.98 269.213 L2196.98 283.287 Q2196.98 286.458 2197.84 287.361 Q2198.72 288.264 2201.38 288.264 L2205.76 288.264 L2205.76 291.829 L2201.38 291.829 Q2196.45 291.829 2194.58 290 Q2192.7 288.148 2192.7 283.287 L2192.7 269.213 L2189.58 269.213 L2189.58 265.903 L2192.7 265.903 L2192.7 258.542 L2196.98 258.542 Z" fill="#000000" fill-rule="evenodd" fill-opacity="1" /></svg>
