<?xml version="1.0" encoding="utf-8"?>
<svg xmlns="http://www.w3.org/2000/svg" xmlns:xlink="http://www.w3.org/1999/xlink" width="600" height="400" viewBox="0 0 2400 1600">
<defs>
  <clipPath id="clip430">
    <rect x="0" y="0" width="2400" height="1600"/>
  </clipPath>
</defs>
<path clip-path="url(#clip430)" d="
M0 1600 L2400 1600 L2400 0 L0 0  Z
  " fill="#ffffff" fill-rule="evenodd" fill-opacity="1"/>
<defs>
  <clipPath id="clip431">
    <rect x="480" y="0" width="1681" height="1600"/>
  </clipPath>
</defs>
<path clip-path="url(#clip430)" d="
M250.028 1423.18 L2352.76 1423.18 L2352.76 47.2441 L250.028 47.2441  Z
  " fill="#ffffff" fill-rule="evenodd" fill-opacity="1"/>
<defs>
  <clipPath id="clip432">
    <rect x="250" y="47" width="2104" height="1377"/>
  </clipPath>
</defs>
<polyline clip-path="url(#clip432)" style="stroke:#000000; stroke-linecap:butt; stroke-linejoin:round; stroke-width:2; stroke-opacity:0.1; fill:none" points="
  309.539,1423.18 309.539,47.2441 
  "/>
<polyline clip-path="url(#clip432)" style="stroke:#000000; stroke-linecap:butt; stroke-linejoin:round; stroke-width:2; stroke-opacity:0.1; fill:none" points="
  720.329,1423.18 720.329,47.2441 
  "/>
<polyline clip-path="url(#clip432)" style="stroke:#000000; stroke-linecap:butt; stroke-linejoin:round; stroke-width:2; stroke-opacity:0.1; fill:none" points="
  1131.12,1423.18 1131.12,47.2441 
  "/>
<polyline clip-path="url(#clip432)" style="stroke:#000000; stroke-linecap:butt; stroke-linejoin:round; stroke-width:2; stroke-opacity:0.1; fill:none" points="
  1541.91,1423.18 1541.91,47.2441 
  "/>
<polyline clip-path="url(#clip432)" style="stroke:#000000; stroke-linecap:butt; stroke-linejoin:round; stroke-width:2; stroke-opacity:0.1; fill:none" points="
  1952.7,1423.18 1952.7,47.2441 
  "/>
<polyline clip-path="url(#clip430)" style="stroke:#000000; stroke-linecap:butt; stroke-linejoin:round; stroke-width:4; stroke-opacity:1; fill:none" points="
  250.028,1423.18 2352.76,1423.18 
  "/>
<polyline clip-path="url(#clip430)" style="stroke:#000000; stroke-linecap:butt; stroke-linejoin:round; stroke-width:4; stroke-opacity:1; fill:none" points="
  309.539,1423.18 309.539,1406.67 
  "/>
<polyline clip-path="url(#clip430)" style="stroke:#000000; stroke-linecap:butt; stroke-linejoin:round; stroke-width:4; stroke-opacity:1; fill:none" points="
  720.329,1423.18 720.329,1406.67 
  "/>
<polyline clip-path="url(#clip430)" style="stroke:#000000; stroke-linecap:butt; stroke-linejoin:round; stroke-width:4; stroke-opacity:1; fill:none" points="
  1131.12,1423.18 1131.12,1406.67 
  "/>
<polyline clip-path="url(#clip430)" style="stroke:#000000; stroke-linecap:butt; stroke-linejoin:round; stroke-width:4; stroke-opacity:1; fill:none" points="
  1541.91,1423.18 1541.91,1406.67 
  "/>
<polyline clip-path="url(#clip430)" style="stroke:#000000; stroke-linecap:butt; stroke-linejoin:round; stroke-width:4; stroke-opacity:1; fill:none" points="
  1952.7,1423.18 1952.7,1406.67 
  "/>
<path clip-path="url(#clip430)" d="M309.539 1452.37 Q305.928 1452.37 304.1 1455.94 Q302.294 1459.48 302.294 1466.61 Q302.294 1473.71 304.1 1477.28 Q305.928 1480.82 309.539 1480.82 Q313.174 1480.82 314.979 1477.28 Q316.808 1473.71 316.808 1466.61 Q316.808 1459.48 314.979 1455.94 Q313.174 1452.37 309.539 1452.37 M309.539 1448.67 Q315.349 1448.67 318.405 1453.27 Q321.484 1457.86 321.484 1466.61 Q321.484 1475.33 318.405 1479.94 Q315.349 1484.52 309.539 1484.52 Q303.729 1484.52 300.65 1479.94 Q297.595 1475.33 297.595 1466.61 Q297.595 1457.86 300.65 1453.27 Q303.729 1448.67 309.539 1448.67 Z" fill="#000000" fill-rule="evenodd" fill-opacity="1" /><path clip-path="url(#clip430)" d="M695.017 1479.92 L702.656 1479.92 L702.656 1453.55 L694.346 1455.22 L694.346 1450.96 L702.61 1449.29 L707.286 1449.29 L707.286 1479.92 L714.924 1479.92 L714.924 1483.85 L695.017 1483.85 L695.017 1479.92 Z" fill="#000000" fill-rule="evenodd" fill-opacity="1" /><path clip-path="url(#clip430)" d="M734.369 1452.37 Q730.758 1452.37 728.929 1455.94 Q727.123 1459.48 727.123 1466.61 Q727.123 1473.71 728.929 1477.28 Q730.758 1480.82 734.369 1480.82 Q738.003 1480.82 739.808 1477.28 Q741.637 1473.71 741.637 1466.61 Q741.637 1459.48 739.808 1455.94 Q738.003 1452.37 734.369 1452.37 M734.369 1448.67 Q740.179 1448.67 743.234 1453.27 Q746.313 1457.86 746.313 1466.61 Q746.313 1475.33 743.234 1479.94 Q740.179 1484.52 734.369 1484.52 Q728.559 1484.52 725.48 1479.94 Q722.424 1475.33 722.424 1466.61 Q722.424 1457.86 725.48 1453.27 Q728.559 1448.67 734.369 1448.67 Z" fill="#000000" fill-rule="evenodd" fill-opacity="1" /><path clip-path="url(#clip430)" d="M1109.89 1479.92 L1126.21 1479.92 L1126.21 1483.85 L1104.27 1483.85 L1104.27 1479.92 Q1106.93 1477.16 1111.51 1472.53 Q1116.12 1467.88 1117.3 1466.54 Q1119.55 1464.01 1120.43 1462.28 Q1121.33 1460.52 1121.33 1458.83 Q1121.33 1456.07 1119.38 1454.34 Q1117.46 1452.6 1114.36 1452.6 Q1112.16 1452.6 1109.71 1453.37 Q1107.28 1454.13 1104.5 1455.68 L1104.5 1450.96 Q1107.32 1449.82 1109.78 1449.25 Q1112.23 1448.67 1114.27 1448.67 Q1119.64 1448.67 1122.83 1451.35 Q1126.03 1454.04 1126.03 1458.53 Q1126.03 1460.66 1125.22 1462.58 Q1124.43 1464.48 1122.32 1467.07 Q1121.74 1467.74 1118.64 1470.96 Q1115.54 1474.15 1109.89 1479.92 Z" fill="#000000" fill-rule="evenodd" fill-opacity="1" /><path clip-path="url(#clip430)" d="M1146.03 1452.37 Q1142.42 1452.37 1140.59 1455.94 Q1138.78 1459.48 1138.78 1466.61 Q1138.78 1473.71 1140.59 1477.28 Q1142.42 1480.82 1146.03 1480.82 Q1149.66 1480.82 1151.47 1477.28 Q1153.3 1473.71 1153.3 1466.61 Q1153.3 1459.48 1151.47 1455.94 Q1149.66 1452.37 1146.03 1452.37 M1146.03 1448.67 Q1151.84 1448.67 1154.89 1453.27 Q1157.97 1457.86 1157.97 1466.61 Q1157.97 1475.33 1154.89 1479.94 Q1151.84 1484.52 1146.03 1484.52 Q1140.22 1484.52 1137.14 1479.94 Q1134.08 1475.33 1134.08 1466.61 Q1134.08 1457.86 1137.14 1453.27 Q1140.22 1448.67 1146.03 1448.67 Z" fill="#000000" fill-rule="evenodd" fill-opacity="1" /><path clip-path="url(#clip430)" d="M1530.75 1465.22 Q1534.11 1465.94 1535.98 1468.2 Q1537.88 1470.47 1537.88 1473.81 Q1537.88 1478.92 1534.36 1481.72 Q1530.84 1484.52 1524.36 1484.52 Q1522.19 1484.52 1519.87 1484.08 Q1517.58 1483.67 1515.13 1482.81 L1515.13 1478.3 Q1517.07 1479.43 1519.39 1480.01 Q1521.7 1480.59 1524.22 1480.59 Q1528.62 1480.59 1530.91 1478.85 Q1533.23 1477.12 1533.23 1473.81 Q1533.23 1470.75 1531.08 1469.04 Q1528.95 1467.3 1525.13 1467.3 L1521.1 1467.3 L1521.1 1463.46 L1525.31 1463.46 Q1528.76 1463.46 1530.59 1462.09 Q1532.42 1460.7 1532.42 1458.11 Q1532.42 1455.45 1530.52 1454.04 Q1528.65 1452.6 1525.13 1452.6 Q1523.21 1452.6 1521.01 1453.02 Q1518.81 1453.44 1516.17 1454.31 L1516.17 1450.15 Q1518.83 1449.41 1521.15 1449.04 Q1523.48 1448.67 1525.54 1448.67 Q1530.87 1448.67 1533.97 1451.1 Q1537.07 1453.5 1537.07 1457.63 Q1537.07 1460.5 1535.43 1462.49 Q1533.78 1464.45 1530.75 1465.22 Z" fill="#000000" fill-rule="evenodd" fill-opacity="1" /><path clip-path="url(#clip430)" d="M1556.75 1452.37 Q1553.14 1452.37 1551.31 1455.94 Q1549.5 1459.48 1549.5 1466.61 Q1549.5 1473.71 1551.31 1477.28 Q1553.14 1480.82 1556.75 1480.82 Q1560.38 1480.82 1562.19 1477.28 Q1564.02 1473.71 1564.02 1466.61 Q1564.02 1459.48 1562.19 1455.94 Q1560.38 1452.37 1556.75 1452.37 M1556.75 1448.67 Q1562.56 1448.67 1565.61 1453.27 Q1568.69 1457.86 1568.69 1466.61 Q1568.69 1475.33 1565.61 1479.94 Q1562.56 1484.52 1556.75 1484.52 Q1550.94 1484.52 1547.86 1479.94 Q1544.8 1475.33 1544.8 1466.61 Q1544.8 1457.86 1547.86 1453.27 Q1550.94 1448.67 1556.75 1448.67 Z" fill="#000000" fill-rule="evenodd" fill-opacity="1" /><path clip-path="url(#clip430)" d="M1940.87 1453.37 L1929.07 1471.81 L1940.87 1471.81 L1940.87 1453.37 M1939.64 1449.29 L1945.52 1449.29 L1945.52 1471.81 L1950.45 1471.81 L1950.45 1475.7 L1945.52 1475.7 L1945.52 1483.85 L1940.87 1483.85 L1940.87 1475.7 L1925.27 1475.7 L1925.27 1471.19 L1939.64 1449.29 Z" fill="#000000" fill-rule="evenodd" fill-opacity="1" /><path clip-path="url(#clip430)" d="M1968.19 1452.37 Q1964.57 1452.37 1962.75 1455.94 Q1960.94 1459.48 1960.94 1466.61 Q1960.94 1473.71 1962.75 1477.28 Q1964.57 1480.82 1968.19 1480.82 Q1971.82 1480.82 1973.63 1477.28 Q1975.45 1473.71 1975.45 1466.61 Q1975.45 1459.48 1973.63 1455.94 Q1971.82 1452.37 1968.19 1452.37 M1968.19 1448.67 Q1974 1448.67 1977.05 1453.27 Q1980.13 1457.86 1980.13 1466.61 Q1980.13 1475.33 1977.05 1479.94 Q1974 1484.52 1968.19 1484.52 Q1962.38 1484.52 1959.3 1479.94 Q1956.24 1475.33 1956.24 1466.61 Q1956.24 1457.86 1959.3 1453.27 Q1962.38 1448.67 1968.19 1448.67 Z" fill="#000000" fill-rule="evenodd" fill-opacity="1" /><path clip-path="url(#clip430)" d="M1311.83 1537.87 Q1310.85 1537.3 1309.67 1537.04 Q1308.52 1536.76 1307.12 1536.76 Q1302.16 1536.76 1299.48 1540 Q1296.84 1543.22 1296.84 1549.27 L1296.84 1568.04 L1290.95 1568.04 L1290.95 1532.4 L1296.84 1532.4 L1296.84 1537.93 Q1298.69 1534.69 1301.65 1533.13 Q1304.61 1531.54 1308.84 1531.54 Q1309.44 1531.54 1310.18 1531.63 Q1310.91 1531.7 1311.8 1531.85 L1311.83 1537.87 Z" fill="#000000" fill-rule="evenodd" fill-opacity="1" /><polyline clip-path="url(#clip432)" style="stroke:#000000; stroke-linecap:butt; stroke-linejoin:round; stroke-width:2; stroke-opacity:0.1; fill:none" points="
  250.028,1384.24 2352.76,1384.24 
  "/>
<polyline clip-path="url(#clip432)" style="stroke:#000000; stroke-linecap:butt; stroke-linejoin:round; stroke-width:2; stroke-opacity:0.1; fill:none" points="
  250.028,1079.59 2352.76,1079.59 
  "/>
<polyline clip-path="url(#clip432)" style="stroke:#000000; stroke-linecap:butt; stroke-linejoin:round; stroke-width:2; stroke-opacity:0.1; fill:none" points="
  250.028,774.938 2352.76,774.938 
  "/>
<polyline clip-path="url(#clip432)" style="stroke:#000000; stroke-linecap:butt; stroke-linejoin:round; stroke-width:2; stroke-opacity:0.1; fill:none" points="
  250.028,470.288 2352.76,470.288 
  "/>
<polyline clip-path="url(#clip432)" style="stroke:#000000; stroke-linecap:butt; stroke-linejoin:round; stroke-width:2; stroke-opacity:0.1; fill:none" points="
  250.028,165.638 2352.76,165.638 
  "/>
<polyline clip-path="url(#clip430)" style="stroke:#000000; stroke-linecap:butt; stroke-linejoin:round; stroke-width:4; stroke-opacity:1; fill:none" points="
  250.028,1423.18 250.028,47.2441 
  "/>
<polyline clip-path="url(#clip430)" style="stroke:#000000; stroke-linecap:butt; stroke-linejoin:round; stroke-width:4; stroke-opacity:1; fill:none" points="
  250.028,1384.24 275.261,1384.24 
  "/>
<polyline clip-path="url(#clip430)" style="stroke:#000000; stroke-linecap:butt; stroke-linejoin:round; stroke-width:4; stroke-opacity:1; fill:none" points="
  250.028,1079.59 275.261,1079.59 
  "/>
<polyline clip-path="url(#clip430)" style="stroke:#000000; stroke-linecap:butt; stroke-linejoin:round; stroke-width:4; stroke-opacity:1; fill:none" points="
  250.028,774.938 275.261,774.938 
  "/>
<polyline clip-path="url(#clip430)" style="stroke:#000000; stroke-linecap:butt; stroke-linejoin:round; stroke-width:4; stroke-opacity:1; fill:none" points="
  250.028,470.288 275.261,470.288 
  "/>
<polyline clip-path="url(#clip430)" style="stroke:#000000; stroke-linecap:butt; stroke-linejoin:round; stroke-width:4; stroke-opacity:1; fill:none" points="
  250.028,165.638 275.261,165.638 
  "/>
<path clip-path="url(#clip430)" d="M126.691 1370.04 Q123.08 1370.04 121.251 1373.6 Q119.445 1377.14 119.445 1384.27 Q119.445 1391.38 121.251 1394.94 Q123.08 1398.49 126.691 1398.49 Q130.325 1398.49 132.13 1394.94 Q133.959 1391.38 133.959 1384.27 Q133.959 1377.14 132.13 1373.6 Q130.325 1370.04 126.691 1370.04 M126.691 1366.33 Q132.501 1366.33 135.556 1370.94 Q138.635 1375.52 138.635 1384.27 Q138.635 1393 135.556 1397.61 Q132.501 1402.19 126.691 1402.19 Q120.88 1402.19 117.802 1397.61 Q114.746 1393 114.746 1384.27 Q114.746 1375.52 117.802 1370.94 Q120.88 1366.33 126.691 1366.33 Z" fill="#000000" fill-rule="evenodd" fill-opacity="1" /><path clip-path="url(#clip430)" d="M146.853 1395.64 L151.737 1395.64 L151.737 1401.52 L146.853 1401.52 L146.853 1395.64 Z" fill="#000000" fill-rule="evenodd" fill-opacity="1" /><path clip-path="url(#clip430)" d="M171.922 1370.04 Q168.311 1370.04 166.482 1373.6 Q164.677 1377.14 164.677 1384.27 Q164.677 1391.38 166.482 1394.94 Q168.311 1398.49 171.922 1398.49 Q175.556 1398.49 177.362 1394.94 Q179.19 1391.38 179.19 1384.27 Q179.19 1377.14 177.362 1373.6 Q175.556 1370.04 171.922 1370.04 M171.922 1366.33 Q177.732 1366.33 180.788 1370.94 Q183.866 1375.52 183.866 1384.27 Q183.866 1393 180.788 1397.61 Q177.732 1402.19 171.922 1402.19 Q166.112 1402.19 163.033 1397.61 Q159.978 1393 159.978 1384.27 Q159.978 1375.52 163.033 1370.94 Q166.112 1366.33 171.922 1366.33 Z" fill="#000000" fill-rule="evenodd" fill-opacity="1" /><path clip-path="url(#clip430)" d="M202.084 1370.04 Q198.473 1370.04 196.644 1373.6 Q194.838 1377.14 194.838 1384.27 Q194.838 1391.38 196.644 1394.94 Q198.473 1398.49 202.084 1398.49 Q205.718 1398.49 207.524 1394.94 Q209.352 1391.38 209.352 1384.27 Q209.352 1377.14 207.524 1373.6 Q205.718 1370.04 202.084 1370.04 M202.084 1366.33 Q207.894 1366.33 210.949 1370.94 Q214.028 1375.52 214.028 1384.27 Q214.028 1393 210.949 1397.61 Q207.894 1402.19 202.084 1402.19 Q196.274 1402.19 193.195 1397.61 Q190.139 1393 190.139 1384.27 Q190.139 1375.52 193.195 1370.94 Q196.274 1366.33 202.084 1366.33 Z" fill="#000000" fill-rule="evenodd" fill-opacity="1" /><path clip-path="url(#clip430)" d="M128.288 1065.39 Q124.677 1065.39 122.848 1068.95 Q121.043 1072.49 121.043 1079.62 Q121.043 1086.73 122.848 1090.29 Q124.677 1093.84 128.288 1093.84 Q131.922 1093.84 133.728 1090.29 Q135.556 1086.73 135.556 1079.62 Q135.556 1072.49 133.728 1068.95 Q131.922 1065.39 128.288 1065.39 M128.288 1061.68 Q134.098 1061.68 137.154 1066.29 Q140.232 1070.87 140.232 1079.62 Q140.232 1088.35 137.154 1092.96 Q134.098 1097.54 128.288 1097.54 Q122.478 1097.54 119.399 1092.96 Q116.343 1088.35 116.343 1079.62 Q116.343 1070.87 119.399 1066.29 Q122.478 1061.68 128.288 1061.68 Z" fill="#000000" fill-rule="evenodd" fill-opacity="1" /><path clip-path="url(#clip430)" d="M148.45 1090.99 L153.334 1090.99 L153.334 1096.87 L148.45 1096.87 L148.45 1090.99 Z" fill="#000000" fill-rule="evenodd" fill-opacity="1" /><path clip-path="url(#clip430)" d="M173.519 1065.39 Q169.908 1065.39 168.079 1068.95 Q166.274 1072.49 166.274 1079.62 Q166.274 1086.73 168.079 1090.29 Q169.908 1093.84 173.519 1093.84 Q177.153 1093.84 178.959 1090.29 Q180.788 1086.73 180.788 1079.62 Q180.788 1072.49 178.959 1068.95 Q177.153 1065.39 173.519 1065.39 M173.519 1061.68 Q179.329 1061.68 182.385 1066.29 Q185.463 1070.87 185.463 1079.62 Q185.463 1088.35 182.385 1092.96 Q179.329 1097.54 173.519 1097.54 Q167.709 1097.54 164.63 1092.96 Q161.575 1088.35 161.575 1079.62 Q161.575 1070.87 164.63 1066.29 Q167.709 1061.68 173.519 1061.68 Z" fill="#000000" fill-rule="evenodd" fill-opacity="1" /><path clip-path="url(#clip430)" d="M197.709 1092.93 L214.028 1092.93 L214.028 1096.87 L192.084 1096.87 L192.084 1092.93 Q194.746 1090.18 199.329 1085.55 Q203.936 1080.9 205.116 1079.55 Q207.362 1077.03 208.241 1075.29 Q209.144 1073.54 209.144 1071.85 Q209.144 1069.09 207.199 1067.35 Q205.278 1065.62 202.176 1065.62 Q199.977 1065.62 197.524 1066.38 Q195.093 1067.15 192.315 1068.7 L192.315 1063.97 Q195.139 1062.84 197.593 1062.26 Q200.047 1061.68 202.084 1061.68 Q207.454 1061.68 210.649 1064.37 Q213.843 1067.05 213.843 1071.54 Q213.843 1073.67 213.033 1075.6 Q212.246 1077.49 210.139 1080.09 Q209.561 1080.76 206.459 1083.97 Q203.357 1087.17 197.709 1092.93 Z" fill="#000000" fill-rule="evenodd" fill-opacity="1" /><path clip-path="url(#clip430)" d="M126.205 760.737 Q122.593 760.737 120.765 764.302 Q118.959 767.843 118.959 774.973 Q118.959 782.08 120.765 785.644 Q122.593 789.186 126.205 789.186 Q129.839 789.186 131.644 785.644 Q133.473 782.08 133.473 774.973 Q133.473 767.843 131.644 764.302 Q129.839 760.737 126.205 760.737 M126.205 757.033 Q132.015 757.033 135.07 761.64 Q138.149 766.223 138.149 774.973 Q138.149 783.7 135.07 788.306 Q132.015 792.89 126.205 792.89 Q120.394 792.89 117.316 788.306 Q114.26 783.7 114.26 774.973 Q114.26 766.223 117.316 761.64 Q120.394 757.033 126.205 757.033 Z" fill="#000000" fill-rule="evenodd" fill-opacity="1" /><path clip-path="url(#clip430)" d="M146.366 786.339 L151.251 786.339 L151.251 792.218 L146.366 792.218 L146.366 786.339 Z" fill="#000000" fill-rule="evenodd" fill-opacity="1" /><path clip-path="url(#clip430)" d="M171.436 760.737 Q167.825 760.737 165.996 764.302 Q164.19 767.843 164.19 774.973 Q164.19 782.08 165.996 785.644 Q167.825 789.186 171.436 789.186 Q175.07 789.186 176.876 785.644 Q178.704 782.08 178.704 774.973 Q178.704 767.843 176.876 764.302 Q175.07 760.737 171.436 760.737 M171.436 757.033 Q177.246 757.033 180.301 761.64 Q183.38 766.223 183.38 774.973 Q183.38 783.7 180.301 788.306 Q177.246 792.89 171.436 792.89 Q165.626 792.89 162.547 788.306 Q159.491 783.7 159.491 774.973 Q159.491 766.223 162.547 761.64 Q165.626 757.033 171.436 757.033 Z" fill="#000000" fill-rule="evenodd" fill-opacity="1" /><path clip-path="url(#clip430)" d="M204.445 761.732 L192.639 780.181 L204.445 780.181 L204.445 761.732 M203.218 757.658 L209.098 757.658 L209.098 780.181 L214.028 780.181 L214.028 784.07 L209.098 784.07 L209.098 792.218 L204.445 792.218 L204.445 784.07 L188.843 784.07 L188.843 779.556 L203.218 757.658 Z" fill="#000000" fill-rule="evenodd" fill-opacity="1" /><path clip-path="url(#clip430)" d="M126.529 456.087 Q122.918 456.087 121.089 459.652 Q119.283 463.194 119.283 470.323 Q119.283 477.43 121.089 480.994 Q122.918 484.536 126.529 484.536 Q130.163 484.536 131.968 480.994 Q133.797 477.43 133.797 470.323 Q133.797 463.194 131.968 459.652 Q130.163 456.087 126.529 456.087 M126.529 452.383 Q132.339 452.383 135.394 456.99 Q138.473 461.573 138.473 470.323 Q138.473 479.05 135.394 483.656 Q132.339 488.24 126.529 488.24 Q120.718 488.24 117.64 483.656 Q114.584 479.05 114.584 470.323 Q114.584 461.573 117.64 456.99 Q120.718 452.383 126.529 452.383 Z" fill="#000000" fill-rule="evenodd" fill-opacity="1" /><path clip-path="url(#clip430)" d="M146.691 481.689 L151.575 481.689 L151.575 487.568 L146.691 487.568 L146.691 481.689 Z" fill="#000000" fill-rule="evenodd" fill-opacity="1" /><path clip-path="url(#clip430)" d="M171.76 456.087 Q168.149 456.087 166.32 459.652 Q164.515 463.194 164.515 470.323 Q164.515 477.43 166.32 480.994 Q168.149 484.536 171.76 484.536 Q175.394 484.536 177.2 480.994 Q179.028 477.43 179.028 470.323 Q179.028 463.194 177.2 459.652 Q175.394 456.087 171.76 456.087 M171.76 452.383 Q177.57 452.383 180.626 456.99 Q183.704 461.573 183.704 470.323 Q183.704 479.05 180.626 483.656 Q177.57 488.24 171.76 488.24 Q165.95 488.24 162.871 483.656 Q159.815 479.05 159.815 470.323 Q159.815 461.573 162.871 456.99 Q165.95 452.383 171.76 452.383 Z" fill="#000000" fill-rule="evenodd" fill-opacity="1" /><path clip-path="url(#clip430)" d="M202.5 468.425 Q199.352 468.425 197.5 470.578 Q195.672 472.73 195.672 476.48 Q195.672 480.207 197.5 482.383 Q199.352 484.536 202.5 484.536 Q205.649 484.536 207.477 482.383 Q209.329 480.207 209.329 476.48 Q209.329 472.73 207.477 470.578 Q205.649 468.425 202.5 468.425 M211.783 453.772 L211.783 458.031 Q210.024 457.198 208.218 456.758 Q206.436 456.319 204.676 456.319 Q200.047 456.319 197.593 459.444 Q195.163 462.569 194.815 468.888 Q196.181 466.874 198.241 465.809 Q200.301 464.721 202.778 464.721 Q207.987 464.721 210.996 467.893 Q214.028 471.041 214.028 476.48 Q214.028 481.805 210.88 485.022 Q207.732 488.24 202.5 488.24 Q196.505 488.24 193.334 483.656 Q190.163 479.05 190.163 470.323 Q190.163 462.129 194.051 457.268 Q197.94 452.383 204.491 452.383 Q206.25 452.383 208.033 452.731 Q209.838 453.078 211.783 453.772 Z" fill="#000000" fill-rule="evenodd" fill-opacity="1" /><path clip-path="url(#clip430)" d="M126.783 151.437 Q123.172 151.437 121.343 155.002 Q119.538 158.544 119.538 165.673 Q119.538 172.78 121.343 176.344 Q123.172 179.886 126.783 179.886 Q130.417 179.886 132.223 176.344 Q134.052 172.78 134.052 165.673 Q134.052 158.544 132.223 155.002 Q130.417 151.437 126.783 151.437 M126.783 147.733 Q132.593 147.733 135.649 152.34 Q138.728 156.923 138.728 165.673 Q138.728 174.4 135.649 179.006 Q132.593 183.59 126.783 183.59 Q120.973 183.59 117.894 179.006 Q114.839 174.4 114.839 165.673 Q114.839 156.923 117.894 152.34 Q120.973 147.733 126.783 147.733 Z" fill="#000000" fill-rule="evenodd" fill-opacity="1" /><path clip-path="url(#clip430)" d="M146.945 177.039 L151.829 177.039 L151.829 182.918 L146.945 182.918 L146.945 177.039 Z" fill="#000000" fill-rule="evenodd" fill-opacity="1" /><path clip-path="url(#clip430)" d="M172.014 151.437 Q168.403 151.437 166.575 155.002 Q164.769 158.544 164.769 165.673 Q164.769 172.78 166.575 176.344 Q168.403 179.886 172.014 179.886 Q175.649 179.886 177.454 176.344 Q179.283 172.78 179.283 165.673 Q179.283 158.544 177.454 155.002 Q175.649 151.437 172.014 151.437 M172.014 147.733 Q177.825 147.733 180.88 152.34 Q183.959 156.923 183.959 165.673 Q183.959 174.4 180.88 179.006 Q177.825 183.59 172.014 183.59 Q166.204 183.59 163.126 179.006 Q160.07 174.4 160.07 165.673 Q160.07 156.923 163.126 152.34 Q166.204 147.733 172.014 147.733 Z" fill="#000000" fill-rule="evenodd" fill-opacity="1" /><path clip-path="url(#clip430)" d="M202.176 166.506 Q198.843 166.506 196.922 168.289 Q195.024 170.071 195.024 173.196 Q195.024 176.321 196.922 178.104 Q198.843 179.886 202.176 179.886 Q205.51 179.886 207.431 178.104 Q209.352 176.298 209.352 173.196 Q209.352 170.071 207.431 168.289 Q205.533 166.506 202.176 166.506 M197.5 164.516 Q194.491 163.775 192.801 161.715 Q191.135 159.655 191.135 156.692 Q191.135 152.548 194.075 150.141 Q197.037 147.733 202.176 147.733 Q207.338 147.733 210.278 150.141 Q213.218 152.548 213.218 156.692 Q213.218 159.655 211.528 161.715 Q209.861 163.775 206.875 164.516 Q210.255 165.303 212.13 167.594 Q214.028 169.886 214.028 173.196 Q214.028 178.219 210.949 180.905 Q207.894 183.59 202.176 183.59 Q196.459 183.59 193.38 180.905 Q190.325 178.219 190.325 173.196 Q190.325 169.886 192.223 167.594 Q194.121 165.303 197.5 164.516 M195.787 157.132 Q195.787 159.817 197.454 161.321 Q199.144 162.826 202.176 162.826 Q205.186 162.826 206.875 161.321 Q208.588 159.817 208.588 157.132 Q208.588 154.446 206.875 152.942 Q205.186 151.437 202.176 151.437 Q199.144 151.437 197.454 152.942 Q195.787 154.446 195.787 157.132 Z" fill="#000000" fill-rule="evenodd" fill-opacity="1" /><path clip-path="url(#clip430)" d="M14.479 773.709 L19.3487 773.709 L19.3487 779.31 Q19.3487 782.461 20.6219 783.703 Q21.895 784.912 25.2052 784.912 L28.3562 784.912 L28.3562 775.268 L32.9077 775.268 L32.9077 784.912 L64.0042 784.912 L64.0042 790.801 L32.9077 790.801 L32.9077 796.402 L28.3562 796.402 L28.3562 790.801 L25.8736 790.801 Q19.9216 790.801 17.2162 788.031 Q14.479 785.262 14.479 779.247 L14.479 773.709 Z" fill="#000000" fill-rule="evenodd" fill-opacity="1" /><path clip-path="url(#clip430)" d="M33.8307 748.15 Q33.2578 749.137 33.0032 750.315 Q32.7167 751.46 32.7167 752.861 Q32.7167 757.826 35.9632 760.5 Q39.1779 763.142 45.2253 763.142 L64.0042 763.142 L64.0042 769.03 L28.3562 769.03 L28.3562 763.142 L33.8944 763.142 Q30.6479 761.295 29.0883 758.335 Q27.4968 755.375 27.4968 751.142 Q27.4968 750.537 27.5923 749.805 Q27.656 749.073 27.8151 748.182 L33.8307 748.15 Z" fill="#000000" fill-rule="evenodd" fill-opacity="1" /><path clip-path="url(#clip430)" d="M44.7161 712.948 L47.5806 712.948 L47.5806 739.875 Q53.6281 739.493 56.8109 736.246 Q59.9619 732.968 59.9619 727.143 Q59.9619 723.77 59.1344 720.619 Q58.3069 717.436 56.6518 714.317 L62.1899 714.317 Q63.5267 717.468 64.227 720.778 Q64.9272 724.088 64.9272 727.494 Q64.9272 736.024 59.9619 741.021 Q54.9967 745.986 46.5303 745.986 Q37.7774 745.986 32.6531 741.275 Q27.4968 736.533 27.4968 728.512 Q27.4968 721.319 32.1438 717.149 Q36.7589 712.948 44.7161 712.948 M42.9973 718.804 Q38.1912 718.868 35.3266 721.51 Q32.4621 724.12 32.4621 728.448 Q32.4621 733.35 35.2312 736.31 Q38.0002 739.238 43.0292 739.684 L42.9973 718.804 Z" fill="#000000" fill-rule="evenodd" fill-opacity="1" /><path clip-path="url(#clip430)" d="M46.212 699.835 Q52.6732 699.835 56.3653 697.193 Q60.0256 694.519 60.0256 689.872 Q60.0256 685.225 56.3653 682.552 Q52.6732 679.878 46.212 679.878 Q39.7508 679.878 36.0905 682.552 Q32.3984 685.225 32.3984 689.872 Q32.3984 694.519 36.0905 697.193 Q39.7508 699.835 46.212 699.835 M58.657 679.878 Q61.8398 681.724 63.3994 684.557 Q64.9272 687.358 64.9272 691.305 Q64.9272 697.766 59.771 701.84 Q54.6147 705.882 46.212 705.882 Q37.8093 705.882 32.6531 701.84 Q27.4968 697.766 27.4968 691.305 Q27.4968 687.358 29.0564 684.557 Q30.5842 681.724 33.7671 679.878 L28.3562 679.878 L28.3562 674.022 L77.5631 674.022 L77.5631 679.878 L58.657 679.878 Z" fill="#000000" fill-rule="evenodd" fill-opacity="1" /><path clip-path="url(#clip432)" d="
M473.855 1384.09 L473.855 1384.24 L514.934 1384.24 L514.934 1384.09 L473.855 1384.09 L473.855 1384.09  Z
  " fill="#009af9" fill-rule="evenodd" fill-opacity="1"/>
<polyline clip-path="url(#clip432)" style="stroke:#009af9; stroke-linecap:butt; stroke-linejoin:round; stroke-width:4; stroke-opacity:1; fill:none" points="
  473.855,1384.09 473.855,1384.24 514.934,1384.24 514.934,1384.09 473.855,1384.09 
  "/>
<path clip-path="url(#clip432)" d="
M514.934 1384.24 L514.934 1384.24 L556.013 1384.24 L556.013 1384.24 L514.934 1384.24 L514.934 1384.24  Z
  " fill="#009af9" fill-rule="evenodd" fill-opacity="1"/>
<polyline clip-path="url(#clip432)" style="stroke:#009af9; stroke-linecap:butt; stroke-linejoin:round; stroke-width:4; stroke-opacity:1; fill:none" points="
  514.934,1384.24 514.934,1384.24 556.013,1384.24 514.934,1384.24 
  "/>
<path clip-path="url(#clip432)" d="
M556.013 1383.48 L556.013 1384.24 L597.092 1384.24 L597.092 1383.48 L556.013 1383.48 L556.013 1383.48  Z
  " fill="#009af9" fill-rule="evenodd" fill-opacity="1"/>
<polyline clip-path="url(#clip432)" style="stroke:#009af9; stroke-linecap:butt; stroke-linejoin:round; stroke-width:4; stroke-opacity:1; fill:none" points="
  556.013,1383.48 556.013,1384.24 597.092,1384.24 597.092,1383.48 556.013,1383.48 
  "/>
<path clip-path="url(#clip432)" d="
M597.092 1381.95 L597.092 1384.24 L638.171 1384.24 L638.171 1381.95 L597.092 1381.95 L597.092 1381.95  Z
  " fill="#009af9" fill-rule="evenodd" fill-opacity="1"/>
<polyline clip-path="url(#clip432)" style="stroke:#009af9; stroke-linecap:butt; stroke-linejoin:round; stroke-width:4; stroke-opacity:1; fill:none" points="
  597.092,1381.95 597.092,1384.24 638.171,1384.24 638.171,1381.95 597.092,1381.95 
  "/>
<path clip-path="url(#clip432)" d="
M638.171 1377.83 L638.171 1384.24 L679.25 1384.24 L679.25 1377.83 L638.171 1377.83 L638.171 1377.83  Z
  " fill="#009af9" fill-rule="evenodd" fill-opacity="1"/>
<polyline clip-path="url(#clip432)" style="stroke:#009af9; stroke-linecap:butt; stroke-linejoin:round; stroke-width:4; stroke-opacity:1; fill:none" points="
  638.171,1377.83 638.171,1384.24 679.25,1384.24 679.25,1377.83 638.171,1377.83 
  "/>
<path clip-path="url(#clip432)" d="
M679.25 1370.21 L679.25 1384.24 L720.329 1384.24 L720.329 1370.21 L679.25 1370.21 L679.25 1370.21  Z
  " fill="#009af9" fill-rule="evenodd" fill-opacity="1"/>
<polyline clip-path="url(#clip432)" style="stroke:#009af9; stroke-linecap:butt; stroke-linejoin:round; stroke-width:4; stroke-opacity:1; fill:none" points="
  679.25,1370.21 679.25,1384.24 720.329,1384.24 720.329,1370.21 679.25,1370.21 
  "/>
<path clip-path="url(#clip432)" d="
M720.329 1355.88 L720.329 1384.24 L761.408 1384.24 L761.408 1355.88 L720.329 1355.88 L720.329 1355.88  Z
  " fill="#009af9" fill-rule="evenodd" fill-opacity="1"/>
<polyline clip-path="url(#clip432)" style="stroke:#009af9; stroke-linecap:butt; stroke-linejoin:round; stroke-width:4; stroke-opacity:1; fill:none" points="
  720.329,1355.88 720.329,1384.24 761.408,1384.24 761.408,1355.88 720.329,1355.88 
  "/>
<path clip-path="url(#clip432)" d="
M761.408 1320.81 L761.408 1384.24 L802.487 1384.24 L802.487 1320.81 L761.408 1320.81 L761.408 1320.81  Z
  " fill="#009af9" fill-rule="evenodd" fill-opacity="1"/>
<polyline clip-path="url(#clip432)" style="stroke:#009af9; stroke-linecap:butt; stroke-linejoin:round; stroke-width:4; stroke-opacity:1; fill:none" points="
  761.408,1320.81 761.408,1384.24 802.487,1384.24 802.487,1320.81 761.408,1320.81 
  "/>
<path clip-path="url(#clip432)" d="
M802.487 1270.34 L802.487 1384.24 L843.566 1384.24 L843.566 1270.34 L802.487 1270.34 L802.487 1270.34  Z
  " fill="#009af9" fill-rule="evenodd" fill-opacity="1"/>
<polyline clip-path="url(#clip432)" style="stroke:#009af9; stroke-linecap:butt; stroke-linejoin:round; stroke-width:4; stroke-opacity:1; fill:none" points="
  802.487,1270.34 802.487,1384.24 843.566,1384.24 843.566,1270.34 802.487,1270.34 
  "/>
<path clip-path="url(#clip432)" d="
M843.566 1200.96 L843.566 1384.24 L884.645 1384.24 L884.645 1200.96 L843.566 1200.96 L843.566 1200.96  Z
  " fill="#009af9" fill-rule="evenodd" fill-opacity="1"/>
<polyline clip-path="url(#clip432)" style="stroke:#009af9; stroke-linecap:butt; stroke-linejoin:round; stroke-width:4; stroke-opacity:1; fill:none" points="
  843.566,1200.96 843.566,1384.24 884.645,1384.24 884.645,1200.96 843.566,1200.96 
  "/>
<path clip-path="url(#clip432)" d="
M884.645 1086.6 L884.645 1384.24 L925.724 1384.24 L925.724 1086.6 L884.645 1086.6 L884.645 1086.6  Z
  " fill="#009af9" fill-rule="evenodd" fill-opacity="1"/>
<polyline clip-path="url(#clip432)" style="stroke:#009af9; stroke-linecap:butt; stroke-linejoin:round; stroke-width:4; stroke-opacity:1; fill:none" points="
  884.645,1086.6 884.645,1384.24 925.724,1384.24 925.724,1086.6 884.645,1086.6 
  "/>
<path clip-path="url(#clip432)" d="
M925.724 946.776 L925.724 1384.24 L966.803 1384.24 L966.803 946.776 L925.724 946.776 L925.724 946.776  Z
  " fill="#009af9" fill-rule="evenodd" fill-opacity="1"/>
<polyline clip-path="url(#clip432)" style="stroke:#009af9; stroke-linecap:butt; stroke-linejoin:round; stroke-width:4; stroke-opacity:1; fill:none" points="
  925.724,946.776 925.724,1384.24 966.803,1384.24 966.803,946.776 925.724,946.776 
  "/>
<path clip-path="url(#clip432)" d="
M966.803 767.308 L966.803 1384.24 L1007.88 1384.24 L1007.88 767.308 L966.803 767.308 L966.803 767.308  Z
  " fill="#009af9" fill-rule="evenodd" fill-opacity="1"/>
<polyline clip-path="url(#clip432)" style="stroke:#009af9; stroke-linecap:butt; stroke-linejoin:round; stroke-width:4; stroke-opacity:1; fill:none" points="
  966.803,767.308 966.803,1384.24 1007.88,1384.24 1007.88,767.308 966.803,767.308 
  "/>
<path clip-path="url(#clip432)" d="
M1007.88 596.227 L1007.88 1384.24 L1048.96 1384.24 L1048.96 596.227 L1007.88 596.227 L1007.88 596.227  Z
  " fill="#009af9" fill-rule="evenodd" fill-opacity="1"/>
<polyline clip-path="url(#clip432)" style="stroke:#009af9; stroke-linecap:butt; stroke-linejoin:round; stroke-width:4; stroke-opacity:1; fill:none" points="
  1007.88,596.227 1007.88,1384.24 1048.96,1384.24 1048.96,596.227 1007.88,596.227 
  "/>
<path clip-path="url(#clip432)" d="
M1048.96 410.355 L1048.96 1384.24 L1090.04 1384.24 L1090.04 410.355 L1048.96 410.355 L1048.96 410.355  Z
  " fill="#009af9" fill-rule="evenodd" fill-opacity="1"/>
<polyline clip-path="url(#clip432)" style="stroke:#009af9; stroke-linecap:butt; stroke-linejoin:round; stroke-width:4; stroke-opacity:1; fill:none" points="
  1048.96,410.355 1048.96,1384.24 1090.04,1384.24 1090.04,410.355 1048.96,410.355 
  "/>
<path clip-path="url(#clip432)" d="
M1090.04 238.206 L1090.04 1384.24 L1131.12 1384.24 L1131.12 238.206 L1090.04 238.206 L1090.04 238.206  Z
  " fill="#009af9" fill-rule="evenodd" fill-opacity="1"/>
<polyline clip-path="url(#clip432)" style="stroke:#009af9; stroke-linecap:butt; stroke-linejoin:round; stroke-width:4; stroke-opacity:1; fill:none" points="
  1090.04,238.206 1090.04,1384.24 1131.12,1384.24 1131.12,238.206 1090.04,238.206 
  "/>
<path clip-path="url(#clip432)" d="
M1131.12 163.034 L1131.12 1384.24 L1172.2 1384.24 L1172.2 163.034 L1131.12 163.034 L1131.12 163.034  Z
  " fill="#009af9" fill-rule="evenodd" fill-opacity="1"/>
<polyline clip-path="url(#clip432)" style="stroke:#009af9; stroke-linecap:butt; stroke-linejoin:round; stroke-width:4; stroke-opacity:1; fill:none" points="
  1131.12,163.034 1131.12,1384.24 1172.2,1384.24 1172.2,163.034 1131.12,163.034 
  "/>
<path clip-path="url(#clip432)" d="
M1172.2 89.6917 L1172.2 1384.24 L1213.28 1384.24 L1213.28 89.6917 L1172.2 89.6917 L1172.2 89.6917  Z
  " fill="#009af9" fill-rule="evenodd" fill-opacity="1"/>
<polyline clip-path="url(#clip432)" style="stroke:#009af9; stroke-linecap:butt; stroke-linejoin:round; stroke-width:4; stroke-opacity:1; fill:none" points="
  1172.2,89.6917 1172.2,1384.24 1213.28,1384.24 1213.28,89.6917 1172.2,89.6917 
  "/>
<path clip-path="url(#clip432)" d="
M1213.28 98.383 L1213.28 1384.24 L1254.36 1384.24 L1254.36 98.383 L1213.28 98.383 L1213.28 98.383  Z
  " fill="#009af9" fill-rule="evenodd" fill-opacity="1"/>
<polyline clip-path="url(#clip432)" style="stroke:#009af9; stroke-linecap:butt; stroke-linejoin:round; stroke-width:4; stroke-opacity:1; fill:none" points="
  1213.28,98.383 1213.28,1384.24 1254.36,1384.24 1254.36,98.383 1213.28,98.383 
  "/>
<path clip-path="url(#clip432)" d="
M1254.36 137.57 L1254.36 1384.24 L1295.44 1384.24 L1295.44 137.57 L1254.36 137.57 L1254.36 137.57  Z
  " fill="#009af9" fill-rule="evenodd" fill-opacity="1"/>
<polyline clip-path="url(#clip432)" style="stroke:#009af9; stroke-linecap:butt; stroke-linejoin:round; stroke-width:4; stroke-opacity:1; fill:none" points="
  1254.36,137.57 1254.36,1384.24 1295.44,1384.24 1295.44,137.57 1254.36,137.57 
  "/>
<path clip-path="url(#clip432)" d="
M1295.44 235.462 L1295.44 1384.24 L1336.51 1384.24 L1336.51 235.462 L1295.44 235.462 L1295.44 235.462  Z
  " fill="#009af9" fill-rule="evenodd" fill-opacity="1"/>
<polyline clip-path="url(#clip432)" style="stroke:#009af9; stroke-linecap:butt; stroke-linejoin:round; stroke-width:4; stroke-opacity:1; fill:none" points="
  1295.44,235.462 1295.44,1384.24 1336.51,1384.24 1336.51,235.462 1295.44,235.462 
  "/>
<path clip-path="url(#clip432)" d="
M1336.51 388.246 L1336.51 1384.24 L1377.59 1384.24 L1377.59 388.246 L1336.51 388.246 L1336.51 388.246  Z
  " fill="#009af9" fill-rule="evenodd" fill-opacity="1"/>
<polyline clip-path="url(#clip432)" style="stroke:#009af9; stroke-linecap:butt; stroke-linejoin:round; stroke-width:4; stroke-opacity:1; fill:none" points="
  1336.51,388.246 1336.51,1384.24 1377.59,1384.24 1377.59,388.246 1336.51,388.246 
  "/>
<path clip-path="url(#clip432)" d="
M1377.59 540.572 L1377.59 1384.24 L1418.67 1384.24 L1418.67 540.572 L1377.59 540.572 L1377.59 540.572  Z
  " fill="#009af9" fill-rule="evenodd" fill-opacity="1"/>
<polyline clip-path="url(#clip432)" style="stroke:#009af9; stroke-linecap:butt; stroke-linejoin:round; stroke-width:4; stroke-opacity:1; fill:none" points="
  1377.59,540.572 1377.59,1384.24 1418.67,1384.24 1418.67,540.572 1377.59,540.572 
  "/>
<path clip-path="url(#clip432)" d="
M1418.67 686.037 L1418.67 1384.24 L1459.75 1384.24 L1459.75 686.037 L1418.67 686.037 L1418.67 686.037  Z
  " fill="#009af9" fill-rule="evenodd" fill-opacity="1"/>
<polyline clip-path="url(#clip432)" style="stroke:#009af9; stroke-linecap:butt; stroke-linejoin:round; stroke-width:4; stroke-opacity:1; fill:none" points="
  1418.67,686.037 1418.67,1384.24 1459.75,1384.24 1459.75,686.037 1418.67,686.037 
  "/>
<path clip-path="url(#clip432)" d="
M1459.75 832.569 L1459.75 1384.24 L1500.83 1384.24 L1500.83 832.569 L1459.75 832.569 L1459.75 832.569  Z
  " fill="#009af9" fill-rule="evenodd" fill-opacity="1"/>
<polyline clip-path="url(#clip432)" style="stroke:#009af9; stroke-linecap:butt; stroke-linejoin:round; stroke-width:4; stroke-opacity:1; fill:none" points="
  1459.75,832.569 1459.75,1384.24 1500.83,1384.24 1500.83,832.569 1459.75,832.569 
  "/>
<path clip-path="url(#clip432)" d="
M1500.83 990.995 L1500.83 1384.24 L1541.91 1384.24 L1541.91 990.995 L1500.83 990.995 L1500.83 990.995  Z
  " fill="#009af9" fill-rule="evenodd" fill-opacity="1"/>
<polyline clip-path="url(#clip432)" style="stroke:#009af9; stroke-linecap:butt; stroke-linejoin:round; stroke-width:4; stroke-opacity:1; fill:none" points="
  1500.83,990.995 1500.83,1384.24 1541.91,1384.24 1541.91,990.995 1500.83,990.995 
  "/>
<path clip-path="url(#clip432)" d="
M1541.91 1106.88 L1541.91 1384.24 L1582.99 1384.24 L1582.99 1106.88 L1541.91 1106.88 L1541.91 1106.88  Z
  " fill="#009af9" fill-rule="evenodd" fill-opacity="1"/>
<polyline clip-path="url(#clip432)" style="stroke:#009af9; stroke-linecap:butt; stroke-linejoin:round; stroke-width:4; stroke-opacity:1; fill:none" points="
  1541.91,1106.88 1541.91,1384.24 1582.99,1384.24 1582.99,1106.88 1541.91,1106.88 
  "/>
<path clip-path="url(#clip432)" d="
M1582.99 1163.14 L1582.99 1384.24 L1624.07 1384.24 L1624.07 1163.14 L1582.99 1163.14 L1582.99 1163.14  Z
  " fill="#009af9" fill-rule="evenodd" fill-opacity="1"/>
<polyline clip-path="url(#clip432)" style="stroke:#009af9; stroke-linecap:butt; stroke-linejoin:round; stroke-width:4; stroke-opacity:1; fill:none" points="
  1582.99,1163.14 1582.99,1384.24 1624.07,1384.24 1624.07,1163.14 1582.99,1163.14 
  "/>
<path clip-path="url(#clip432)" d="
M1624.07 1241.98 L1624.07 1384.24 L1665.15 1384.24 L1665.15 1241.98 L1624.07 1241.98 L1624.07 1241.98  Z
  " fill="#009af9" fill-rule="evenodd" fill-opacity="1"/>
<polyline clip-path="url(#clip432)" style="stroke:#009af9; stroke-linecap:butt; stroke-linejoin:round; stroke-width:4; stroke-opacity:1; fill:none" points="
  1624.07,1241.98 1624.07,1384.24 1665.15,1384.24 1665.15,1241.98 1624.07,1241.98 
  "/>
<path clip-path="url(#clip432)" d="
M1665.15 1295.04 L1665.15 1384.24 L1706.23 1384.24 L1706.23 1295.04 L1665.15 1295.04 L1665.15 1295.04  Z
  " fill="#009af9" fill-rule="evenodd" fill-opacity="1"/>
<polyline clip-path="url(#clip432)" style="stroke:#009af9; stroke-linecap:butt; stroke-linejoin:round; stroke-width:4; stroke-opacity:1; fill:none" points="
  1665.15,1295.04 1665.15,1384.24 1706.23,1384.24 1706.23,1295.04 1665.15,1295.04 
  "/>
<path clip-path="url(#clip432)" d="
M1706.23 1326.14 L1706.23 1384.24 L1747.3 1384.24 L1747.3 1326.14 L1706.23 1326.14 L1706.23 1326.14  Z
  " fill="#009af9" fill-rule="evenodd" fill-opacity="1"/>
<polyline clip-path="url(#clip432)" style="stroke:#009af9; stroke-linecap:butt; stroke-linejoin:round; stroke-width:4; stroke-opacity:1; fill:none" points="
  1706.23,1326.14 1706.23,1384.24 1747.3,1384.24 1747.3,1326.14 1706.23,1326.14 
  "/>
<path clip-path="url(#clip432)" d="
M1747.3 1345.36 L1747.3 1384.24 L1788.38 1384.24 L1788.38 1345.36 L1747.3 1345.36 L1747.3 1345.36  Z
  " fill="#009af9" fill-rule="evenodd" fill-opacity="1"/>
<polyline clip-path="url(#clip432)" style="stroke:#009af9; stroke-linecap:butt; stroke-linejoin:round; stroke-width:4; stroke-opacity:1; fill:none" points="
  1747.3,1345.36 1747.3,1384.24 1788.38,1384.24 1788.38,1345.36 1747.3,1345.36 
  "/>
<path clip-path="url(#clip432)" d="
M1788.38 1360.45 L1788.38 1384.24 L1829.46 1384.24 L1829.46 1360.45 L1788.38 1360.45 L1788.38 1360.45  Z
  " fill="#009af9" fill-rule="evenodd" fill-opacity="1"/>
<polyline clip-path="url(#clip432)" style="stroke:#009af9; stroke-linecap:butt; stroke-linejoin:round; stroke-width:4; stroke-opacity:1; fill:none" points="
  1788.38,1360.45 1788.38,1384.24 1829.46,1384.24 1829.46,1360.45 1788.38,1360.45 
  "/>
<path clip-path="url(#clip432)" d="
M1829.46 1370.06 L1829.46 1384.24 L1870.54 1384.24 L1870.54 1370.06 L1829.46 1370.06 L1829.46 1370.06  Z
  " fill="#009af9" fill-rule="evenodd" fill-opacity="1"/>
<polyline clip-path="url(#clip432)" style="stroke:#009af9; stroke-linecap:butt; stroke-linejoin:round; stroke-width:4; stroke-opacity:1; fill:none" points="
  1829.46,1370.06 1829.46,1384.24 1870.54,1384.24 1870.54,1370.06 1829.46,1370.06 
  "/>
<path clip-path="url(#clip432)" d="
M1870.54 1377.99 L1870.54 1384.24 L1911.62 1384.24 L1911.62 1377.99 L1870.54 1377.99 L1870.54 1377.99  Z
  " fill="#009af9" fill-rule="evenodd" fill-opacity="1"/>
<polyline clip-path="url(#clip432)" style="stroke:#009af9; stroke-linecap:butt; stroke-linejoin:round; stroke-width:4; stroke-opacity:1; fill:none" points="
  1870.54,1377.99 1870.54,1384.24 1911.62,1384.24 1911.62,1377.99 1870.54,1377.99 
  "/>
<path clip-path="url(#clip432)" d="
M1911.62 1380.43 L1911.62 1384.24 L1952.7 1384.24 L1952.7 1380.43 L1911.62 1380.43 L1911.62 1380.43  Z
  " fill="#009af9" fill-rule="evenodd" fill-opacity="1"/>
<polyline clip-path="url(#clip432)" style="stroke:#009af9; stroke-linecap:butt; stroke-linejoin:round; stroke-width:4; stroke-opacity:1; fill:none" points="
  1911.62,1380.43 1911.62,1384.24 1952.7,1384.24 1952.7,1380.43 1911.62,1380.43 
  "/>
<path clip-path="url(#clip432)" d="
M1952.7 1382.26 L1952.7 1384.24 L1993.78 1384.24 L1993.78 1382.26 L1952.7 1382.26 L1952.7 1382.26  Z
  " fill="#009af9" fill-rule="evenodd" fill-opacity="1"/>
<polyline clip-path="url(#clip432)" style="stroke:#009af9; stroke-linecap:butt; stroke-linejoin:round; stroke-width:4; stroke-opacity:1; fill:none" points="
  1952.7,1382.26 1952.7,1384.24 1993.78,1384.24 1993.78,1382.26 1952.7,1382.26 
  "/>
<path clip-path="url(#clip432)" d="
M1993.78 1382.41 L1993.78 1384.24 L2034.86 1384.24 L2034.86 1382.41 L1993.78 1382.41 L1993.78 1382.41  Z
  " fill="#009af9" fill-rule="evenodd" fill-opacity="1"/>
<polyline clip-path="url(#clip432)" style="stroke:#009af9; stroke-linecap:butt; stroke-linejoin:round; stroke-width:4; stroke-opacity:1; fill:none" points="
  1993.78,1382.41 1993.78,1384.24 2034.86,1384.24 2034.86,1382.41 1993.78,1382.41 
  "/>
<path clip-path="url(#clip432)" d="
M2034.86 1383.63 L2034.86 1384.24 L2075.94 1384.24 L2075.94 1383.63 L2034.86 1383.63 L2034.86 1383.63  Z
  " fill="#009af9" fill-rule="evenodd" fill-opacity="1"/>
<polyline clip-path="url(#clip432)" style="stroke:#009af9; stroke-linecap:butt; stroke-linejoin:round; stroke-width:4; stroke-opacity:1; fill:none" points="
  2034.86,1383.63 2034.86,1384.24 2075.94,1384.24 2075.94,1383.63 2034.86,1383.63 
  "/>
<path clip-path="url(#clip432)" d="
M2075.94 1383.93 L2075.94 1384.24 L2117.02 1384.24 L2117.02 1383.93 L2075.94 1383.93 L2075.94 1383.93  Z
  " fill="#009af9" fill-rule="evenodd" fill-opacity="1"/>
<polyline clip-path="url(#clip432)" style="stroke:#009af9; stroke-linecap:butt; stroke-linejoin:round; stroke-width:4; stroke-opacity:1; fill:none" points="
  2075.94,1383.93 2075.94,1384.24 2117.02,1384.24 2117.02,1383.93 2075.94,1383.93 
  "/>
<path clip-path="url(#clip432)" d="
M2117.02 1383.93 L2117.02 1384.24 L2158.09 1384.24 L2158.09 1383.93 L2117.02 1383.93 L2117.02 1383.93  Z
  " fill="#009af9" fill-rule="evenodd" fill-opacity="1"/>
<polyline clip-path="url(#clip432)" style="stroke:#009af9; stroke-linecap:butt; stroke-linejoin:round; stroke-width:4; stroke-opacity:1; fill:none" points="
  2117.02,1383.93 2117.02,1384.24 2158.09,1384.24 2158.09,1383.93 2117.02,1383.93 
  "/>
<path clip-path="url(#clip432)" d="
M2158.09 1384.24 L2158.09 1384.24 L2199.17 1384.24 L2199.17 1384.24 L2158.09 1384.24 L2158.09 1384.24  Z
  " fill="#009af9" fill-rule="evenodd" fill-opacity="1"/>
<polyline clip-path="url(#clip432)" style="stroke:#009af9; stroke-linecap:butt; stroke-linejoin:round; stroke-width:4; stroke-opacity:1; fill:none" points="
  2158.09,1384.24 2158.09,1384.24 2199.17,1384.24 2158.09,1384.24 
  "/>
<path clip-path="url(#clip432)" d="
M2199.17 1384.09 L2199.17 1384.24 L2240.25 1384.24 L2240.25 1384.09 L2199.17 1384.09 L2199.17 1384.09  Z
  " fill="#009af9" fill-rule="evenodd" fill-opacity="1"/>
<polyline clip-path="url(#clip432)" style="stroke:#009af9; stroke-linecap:butt; stroke-linejoin:round; stroke-width:4; stroke-opacity:1; fill:none" points="
  2199.17,1384.09 2199.17,1384.24 2240.25,1384.24 2240.25,1384.09 2199.17,1384.09 
  "/>
<polyline clip-path="url(#clip432)" style="stroke:#e26f46; stroke-linecap:butt; stroke-linejoin:round; stroke-width:12; stroke-opacity:1; fill:none" points="
  309.539,1384.22 313.647,1384.21 317.755,1384.21 321.863,1384.21 325.971,1384.21 330.079,1384.2 334.187,1384.2 338.295,1384.2 342.403,1384.19 346.51,1384.19 
  350.618,1384.18 354.726,1384.18 358.834,1384.17 362.942,1384.16 367.05,1384.15 371.158,1384.15 375.266,1384.14 379.374,1384.13 383.482,1384.12 387.589,1384.1 
  391.697,1384.09 395.805,1384.08 399.913,1384.06 404.021,1384.05 408.129,1384.03 412.237,1384.01 416.345,1383.99 420.453,1383.97 424.561,1383.94 428.668,1383.91 
  432.776,1383.88 436.884,1383.85 440.992,1383.82 445.1,1383.78 449.208,1383.74 453.316,1383.7 457.424,1383.65 461.532,1383.6 465.64,1383.54 469.747,1383.48 
  473.855,1383.42 477.963,1383.35 482.071,1383.27 486.179,1383.19 490.287,1383.1 494.395,1383.01 498.503,1382.91 502.611,1382.8 506.719,1382.68 510.826,1382.55 
  514.934,1382.42 519.042,1382.27 523.15,1382.12 527.258,1381.95 531.366,1381.77 535.474,1381.58 539.582,1381.37 543.69,1381.15 547.798,1380.91 551.905,1380.66 
  556.013,1380.39 560.121,1380.1 564.229,1379.79 568.337,1379.46 572.445,1379.1 576.553,1378.73 580.661,1378.33 584.769,1377.9 588.877,1377.45 592.984,1376.96 
  597.092,1376.45 601.2,1375.9 605.308,1375.32 609.416,1374.7 613.524,1374.04 617.632,1373.34 621.74,1372.6 625.848,1371.82 629.956,1370.99 634.063,1370.11 
  638.171,1369.18 642.279,1368.19 646.387,1367.15 650.495,1366.05 654.603,1364.88 658.711,1363.65 662.819,1362.35 666.927,1360.98 671.035,1359.54 675.143,1358.02 
  679.25,1356.42 683.358,1354.73 687.466,1352.95 691.574,1351.09 695.682,1349.13 699.79,1347.06 703.898,1344.9 708.006,1342.63 712.114,1340.25 716.222,1337.75 
  720.329,1335.13 724.437,1332.39 728.545,1329.52 732.653,1326.52 736.761,1323.38 740.869,1320.1 744.977,1316.67 749.085,1313.1 753.193,1309.36 757.301,1305.47 
  761.408,1301.41 765.516,1297.19 769.624,1292.79 773.732,1288.21 777.84,1283.44 781.948,1278.49 786.056,1273.35 790.164,1268.01 794.272,1262.46 798.38,1256.71 
  802.487,1250.75 806.595,1244.58 810.703,1238.18 814.811,1231.56 818.919,1224.72 823.027,1217.64 827.135,1210.33 831.243,1202.78 835.351,1194.98 839.459,1186.95 
  843.566,1178.66 847.674,1170.13 851.782,1161.34 855.89,1152.29 859.998,1142.99 864.106,1133.43 868.214,1123.61 872.322,1113.53 876.43,1103.18 880.538,1092.58 
  884.645,1081.71 888.753,1070.58 892.861,1059.18 896.969,1047.53 901.077,1035.61 905.185,1023.44 909.293,1011.01 913.401,998.334 917.509,985.404 921.617,972.229 
  925.724,958.813 929.832,945.158 933.94,931.272 938.048,917.159 942.156,902.825 946.264,888.276 950.372,873.52 954.48,858.564 958.588,843.416 962.696,828.084 
  966.803,812.578 970.911,796.906 975.019,781.079 979.127,765.107 983.235,749 987.343,732.771 991.451,716.431 995.559,699.992 999.667,683.467 1003.77,666.869 
  1007.88,650.212 1011.99,633.509 1016.1,616.775 1020.21,600.025 1024.31,583.273 1028.42,566.535 1032.53,549.827 1036.64,533.164 1040.75,516.563 1044.85,500.04 
  1048.96,483.612 1053.07,467.296 1057.18,451.108 1061.29,435.066 1065.39,419.187 1069.5,403.488 1073.61,387.987 1077.72,372.701 1081.82,357.647 1085.93,342.842 
  1090.04,328.304 1094.15,314.049 1098.26,300.095 1102.36,286.459 1106.47,273.155 1110.58,260.202 1114.69,247.614 1118.8,235.408 1122.9,223.598 1127.01,212.2 
  1131.12,201.228 1135.23,190.696 1139.34,180.617 1143.44,171.004 1147.55,161.871 1151.66,153.228 1155.77,145.088 1159.87,137.461 1163.98,130.356 1168.09,123.785 
  1172.2,117.755 1176.31,112.274 1180.41,107.35 1184.52,102.99 1188.63,99.1986 1192.74,95.982 1196.85,93.3442 1200.95,91.2889 1205.06,89.8188 1209.17,88.9359 
  1213.28,88.6415 1217.39,88.9359 1221.49,89.8188 1225.6,91.2889 1229.71,93.3442 1233.82,95.982 1237.92,99.1986 1242.03,102.99 1246.14,107.35 1250.25,112.274 
  1254.36,117.755 1258.46,123.785 1262.57,130.356 1266.68,137.461 1270.79,145.088 1274.9,153.228 1279,161.871 1283.11,171.004 1287.22,180.617 1291.33,190.696 
  1295.44,201.228 1299.54,212.2 1303.65,223.598 1307.76,235.408 1311.87,247.614 1315.98,260.202 1320.08,273.155 1324.19,286.459 1328.3,300.095 1332.41,314.049 
  1336.51,328.304 1340.62,342.842 1344.73,357.647 1348.84,372.701 1352.95,387.987 1357.05,403.488 1361.16,419.187 1365.27,435.066 1369.38,451.108 1373.49,467.296 
  1377.59,483.612 1381.7,500.04 1385.81,516.563 1389.92,533.164 1394.03,549.827 1398.13,566.535 1402.24,583.273 1406.35,600.025 1410.46,616.775 1414.56,633.509 
  1418.67,650.212 1422.78,666.869 1426.89,683.467 1431,699.992 1435.1,716.431 1439.21,732.771 1443.32,749 1447.43,765.107 1451.54,781.079 1455.64,796.906 
  1459.75,812.578 1463.86,828.084 1467.97,843.416 1472.08,858.564 1476.18,873.52 1480.29,888.276 1484.4,902.825 1488.51,917.159 1492.61,931.272 1496.72,945.158 
  1500.83,958.813 1504.94,972.229 1509.05,985.404 1513.15,998.334 1517.26,1011.01 1521.37,1023.44 1525.48,1035.61 1529.59,1047.53 1533.69,1059.18 1537.8,1070.58 
  1541.91,1081.71 1546.02,1092.58 1550.13,1103.18 1554.23,1113.53 1558.34,1123.61 1562.45,1133.43 1566.56,1142.99 1570.66,1152.29 1574.77,1161.34 1578.88,1170.13 
  1582.99,1178.66 1587.1,1186.95 1591.2,1194.98 1595.31,1202.78 1599.42,1210.33 1603.53,1217.64 1607.64,1224.72 1611.74,1231.56 1615.85,1238.18 1619.96,1244.58 
  1624.07,1250.75 1628.18,1256.71 1632.28,1262.46 1636.39,1268.01 1640.5,1273.35 1644.61,1278.49 1648.72,1283.44 1652.82,1288.21 1656.93,1292.79 1661.04,1297.19 
  1665.15,1301.41 1669.25,1305.47 1673.36,1309.36 1677.47,1313.1 1681.58,1316.67 1685.69,1320.1 1689.79,1323.38 1693.9,1326.52 1698.01,1329.52 1702.12,1332.39 
  1706.23,1335.13 1710.33,1337.75 1714.44,1340.25 1718.55,1342.63 1722.66,1344.9 1726.77,1347.06 1730.87,1349.13 1734.98,1351.09 1739.09,1352.95 1743.2,1354.73 
  1747.3,1356.42 1751.41,1358.02 1755.52,1359.54 1759.63,1360.98 1763.74,1362.35 1767.84,1363.65 1771.95,1364.88 1776.06,1366.05 1780.17,1367.15 1784.28,1368.19 
  1788.38,1369.18 1792.49,1370.11 1796.6,1370.99 1800.71,1371.82 1804.82,1372.6 1808.92,1373.34 1813.03,1374.04 1817.14,1374.7 1821.25,1375.32 1825.35,1375.9 
  1829.46,1376.45 1833.57,1376.96 1837.68,1377.45 1841.79,1377.9 1845.89,1378.33 1850,1378.73 1854.11,1379.1 1858.22,1379.46 1862.33,1379.79 1866.43,1380.1 
  1870.54,1380.39 1874.65,1380.66 1878.76,1380.91 1882.87,1381.15 1886.97,1381.37 1891.08,1381.58 1895.19,1381.77 1899.3,1381.95 1903.4,1382.12 1907.51,1382.27 
  1911.62,1382.42 1915.73,1382.55 1919.84,1382.68 1923.94,1382.8 1928.05,1382.91 1932.16,1383.01 1936.27,1383.1 1940.38,1383.19 1944.48,1383.27 1948.59,1383.35 
  1952.7,1383.42 1956.81,1383.48 1960.92,1383.54 1965.02,1383.6 1969.13,1383.65 1973.24,1383.7 1977.35,1383.74 1981.46,1383.78 1985.56,1383.82 1989.67,1383.85 
  1993.78,1383.88 1997.89,1383.91 2001.99,1383.94 2006.1,1383.97 2010.21,1383.99 2014.32,1384.01 2018.43,1384.03 2022.53,1384.05 2026.64,1384.06 2030.75,1384.08 
  2034.86,1384.09 2038.97,1384.1 2043.07,1384.12 2047.18,1384.13 2051.29,1384.14 2055.4,1384.15 2059.51,1384.15 2063.61,1384.16 2067.72,1384.17 2071.83,1384.18 
  2075.94,1384.18 2080.04,1384.19 2084.15,1384.19 2088.26,1384.2 2092.37,1384.2 2096.48,1384.2 2100.58,1384.21 2104.69,1384.21 2108.8,1384.21 2112.91,1384.21 
  2117.02,1384.22 2121.12,1384.22 2125.23,1384.22 2129.34,1384.22 2133.45,1384.22 2137.56,1384.23 2141.66,1384.23 2145.77,1384.23 2149.88,1384.23 2153.99,1384.23 
  2158.09,1384.23 2162.2,1384.23 2166.31,1384.23 2170.42,1384.23 2174.53,1384.23 2178.63,1384.23 2182.74,1384.23 2186.85,1384.23 2190.96,1384.23 2195.07,1384.24 
  2199.17,1384.24 
  "/>
<polyline clip-path="url(#clip432)" style="stroke:#3da44d; stroke-linecap:butt; stroke-linejoin:round; stroke-width:12; stroke-opacity:1; fill:none" points="
  309.539,1384.24 313.647,1384.24 317.755,1384.24 321.863,1384.24 325.971,1384.24 330.079,1384.24 334.187,1384.24 338.295,1384.24 342.403,1384.24 346.51,1384.24 
  350.618,1384.24 354.726,1384.24 358.834,1384.24 362.942,1384.24 367.05,1384.24 371.158,1384.24 375.266,1384.24 379.374,1384.24 383.482,1384.24 387.589,1384.24 
  391.697,1384.24 395.805,1384.24 399.913,1384.24 404.021,1384.24 408.129,1384.24 412.237,1384.24 416.345,1384.23 420.453,1384.23 424.561,1384.23 428.668,1384.23 
  432.776,1384.23 436.884,1384.23 440.992,1384.23 445.1,1384.23 449.208,1384.22 453.316,1384.22 457.424,1384.22 461.532,1384.21 465.64,1384.21 469.747,1384.2 
  473.855,1384.2 477.963,1384.19 482.071,1384.18 486.179,1384.17 490.287,1384.16 494.395,1384.15 498.503,1384.13 502.611,1384.12 506.719,1384.1 510.826,1384.08 
  514.934,1384.06 519.042,1384.03 523.15,1384 527.258,1383.96 531.366,1383.93 535.474,1383.88 539.582,1383.83 543.69,1383.78 547.798,1383.72 551.905,1383.65 
  556.013,1383.57 560.121,1383.48 564.229,1383.39 568.337,1383.28 572.445,1383.16 576.553,1383.03 580.661,1382.89 584.769,1382.72 588.877,1382.55 592.984,1382.35 
  597.092,1382.14 601.2,1381.9 605.308,1381.64 609.416,1381.35 613.524,1381.04 617.632,1380.7 621.74,1380.32 625.848,1379.91 629.956,1379.47 634.063,1378.98 
  638.171,1378.46 642.279,1377.88 646.387,1377.26 650.495,1376.59 654.603,1375.86 658.711,1375.07 662.819,1374.22 666.927,1373.3 671.035,1372.31 675.143,1371.25 
  679.25,1370.1 683.358,1368.87 687.466,1367.55 691.574,1366.14 695.682,1364.63 699.79,1363.01 703.898,1361.28 708.006,1359.43 712.114,1357.46 716.222,1355.37 
  720.329,1353.14 724.437,1350.77 728.545,1348.25 732.653,1345.58 736.761,1342.75 740.869,1339.75 744.977,1336.58 749.085,1333.24 753.193,1329.7 757.301,1325.97 
  761.408,1322.04 765.516,1317.9 769.624,1313.55 773.732,1308.98 777.84,1304.17 781.948,1299.14 786.056,1293.86 790.164,1288.34 794.272,1282.55 798.38,1276.51 
  802.487,1270.21 806.595,1263.63 810.703,1256.77 814.811,1249.62 818.919,1242.19 823.027,1234.46 827.135,1226.44 831.243,1218.11 835.351,1209.47 839.459,1200.52 
  843.566,1191.26 847.674,1181.68 851.782,1171.78 855.89,1161.57 859.998,1151.02 864.106,1140.16 868.214,1128.97 872.322,1117.46 876.43,1105.62 880.538,1093.46 
  884.645,1080.99 888.753,1068.19 892.861,1055.08 896.969,1041.66 901.077,1027.94 905.185,1013.91 909.293,999.588 913.401,984.975 917.509,970.079 921.617,954.908 
  925.724,939.471 929.832,923.775 933.94,907.831 938.048,891.648 942.156,875.238 946.264,858.612 950.372,841.782 954.48,824.761 958.588,807.561 962.696,790.197 
  966.803,772.683 970.911,755.034 975.019,737.265 979.127,719.393 983.235,701.434 987.343,683.404 991.451,665.32 995.559,647.202 999.667,629.065 1003.77,610.93 
  1007.88,592.814 1011.99,574.736 1016.1,556.715 1020.21,538.77 1024.31,520.922 1028.42,503.189 1032.53,485.591 1036.64,468.148 1040.75,450.879 1044.85,433.803 
  1048.96,416.941 1053.07,400.312 1057.18,383.935 1061.29,367.829 1065.39,352.012 1069.5,336.504 1073.61,321.322 1077.72,306.485 1081.82,292.009 1085.93,277.912 
  1090.04,264.21 1094.15,250.92 1098.26,238.057 1102.36,225.637 1106.47,213.673 1110.58,202.179 1114.69,191.169 1118.8,180.655 1122.9,170.65 1127.01,161.164 
  1131.12,152.208 1135.23,143.791 1139.34,135.923 1143.44,128.611 1147.55,121.864 1151.66,115.687 1155.77,110.087 1159.87,105.068 1163.98,100.635 1168.09,96.7915 
  1172.2,93.5394 1176.31,90.8807 1180.41,88.8163 1184.52,87.3462 1188.63,86.4699 1192.74,86.1857 1196.85,86.4913 1200.95,87.3837 1205.06,88.8591 1209.17,90.9128 
  1213.28,93.5394 1217.39,96.733 1221.49,100.487 1225.6,104.793 1229.71,109.644 1233.82,115.031 1237.92,120.945 1242.03,127.375 1246.14,134.311 1250.25,141.742 
  1254.36,149.657 1258.46,158.043 1262.57,166.888 1266.68,176.179 1270.79,185.902 1274.9,196.044 1279,206.592 1283.11,217.53 1287.22,228.843 1291.33,240.518 
  1295.44,252.539 1299.54,264.89 1303.65,277.556 1307.76,290.522 1311.87,303.771 1315.98,317.289 1320.08,331.058 1324.19,345.065 1328.3,359.291 1332.41,373.722 
  1336.51,388.343 1340.62,403.136 1344.73,418.087 1348.84,433.18 1352.95,448.401 1357.05,463.733 1361.16,479.162 1365.27,494.673 1369.38,510.252 1373.49,525.885 
  1377.59,541.557 1381.7,557.255 1385.81,572.966 1389.92,588.677 1394.03,604.374 1398.13,620.045 1402.24,635.679 1406.35,651.263 1410.46,666.787 1414.56,682.239 
  1418.67,697.609 1422.78,712.887 1426.89,728.062 1431,743.126 1435.1,758.07 1439.21,772.884 1443.32,787.56 1447.43,802.092 1451.54,816.471 1455.64,830.691 
  1459.75,844.744 1463.86,858.625 1467.97,872.328 1472.08,885.847 1476.18,899.178 1480.29,912.315 1484.4,925.255 1488.51,937.994 1492.61,950.527 1496.72,962.853 
  1500.83,974.967 1504.94,986.867 1509.05,998.552 1513.15,1010.02 1517.26,1021.27 1521.37,1032.3 1525.48,1043.1 1529.59,1053.69 1533.69,1064.05 1537.8,1074.19 
  1541.91,1084.11 1546.02,1093.8 1550.13,1103.28 1554.23,1112.53 1558.34,1121.56 1562.45,1130.38 1566.56,1138.98 1570.66,1147.36 1574.77,1155.53 1578.88,1163.49 
  1582.99,1171.24 1587.1,1178.78 1591.2,1186.12 1595.31,1193.26 1599.42,1200.2 1603.53,1206.94 1607.64,1213.49 1611.74,1219.84 1615.85,1226.01 1619.96,1232 
  1624.07,1237.8 1628.18,1243.43 1632.28,1248.88 1636.39,1254.16 1640.5,1259.27 1644.61,1264.22 1648.72,1269.01 1652.82,1273.64 1656.93,1278.11 1661.04,1282.44 
  1665.15,1286.61 1669.25,1290.65 1673.36,1294.54 1677.47,1298.3 1681.58,1301.93 1685.69,1305.42 1689.79,1308.79 1693.9,1312.04 1698.01,1315.16 1702.12,1318.17 
  1706.23,1321.07 1710.33,1323.86 1714.44,1326.54 1718.55,1329.12 1722.66,1331.6 1726.77,1333.98 1730.87,1336.26 1734.98,1338.46 1739.09,1340.57 1743.2,1342.59 
  1747.3,1344.53 1751.41,1346.39 1755.52,1348.18 1759.63,1349.89 1763.74,1351.52 1767.84,1353.09 1771.95,1354.59 1776.06,1356.03 1780.17,1357.4 1784.28,1358.72 
  1788.38,1359.97 1792.49,1361.17 1796.6,1362.32 1800.71,1363.42 1804.82,1364.47 1808.92,1365.46 1813.03,1366.42 1817.14,1367.33 1821.25,1368.2 1825.35,1369.02 
  1829.46,1369.81 1833.57,1370.56 1837.68,1371.28 1841.79,1371.96 1845.89,1372.61 1850,1373.22 1854.11,1373.81 1858.22,1374.37 1862.33,1374.9 1866.43,1375.41 
  1870.54,1375.89 1874.65,1376.34 1878.76,1376.77 1882.87,1377.18 1886.97,1377.57 1891.08,1377.94 1895.19,1378.3 1899.3,1378.63 1903.4,1378.94 1907.51,1379.24 
  1911.62,1379.53 1915.73,1379.79 1919.84,1380.05 1923.94,1380.29 1928.05,1380.52 1932.16,1380.73 1936.27,1380.94 1940.38,1381.13 1944.48,1381.31 1948.59,1381.48 
  1952.7,1381.65 1956.81,1381.8 1960.92,1381.95 1965.02,1382.08 1969.13,1382.21 1973.24,1382.33 1977.35,1382.45 1981.46,1382.56 1985.56,1382.66 1989.67,1382.76 
  1993.78,1382.85 1997.89,1382.93 2001.99,1383.01 2006.1,1383.09 2010.21,1383.16 2014.32,1383.23 2018.43,1383.29 2022.53,1383.35 2026.64,1383.41 2030.75,1383.46 
  2034.86,1383.51 2038.97,1383.56 2043.07,1383.6 2047.18,1383.64 2051.29,1383.68 2055.4,1383.72 2059.51,1383.75 2063.61,1383.78 2067.72,1383.81 2071.83,1383.84 
  2075.94,1383.87 2080.04,1383.89 2084.15,1383.91 2088.26,1383.93 2092.37,1383.96 2096.48,1383.97 2100.58,1383.99 2104.69,1384.01 2108.8,1384.02 2112.91,1384.04 
  2117.02,1384.05 2121.12,1384.06 2125.23,1384.08 2129.34,1384.09 2133.45,1384.1 2137.56,1384.11 2141.66,1384.12 2145.77,1384.13 2149.88,1384.13 2153.99,1384.14 
  2158.09,1384.15 2162.2,1384.15 2166.31,1384.16 2170.42,1384.17 2174.53,1384.17 2178.63,1384.18 2182.74,1384.18 2186.85,1384.18 2190.96,1384.19 2195.07,1384.19 
  2199.17,1384.19 
  "/>
<path clip-path="url(#clip430)" d="
M1778.41 335.029 L2282.66 335.029 L2282.66 93.1086 L1778.41 93.1086  Z
  " fill="#ffffff" fill-rule="evenodd" fill-opacity="1"/>
<polyline clip-path="url(#clip430)" style="stroke:#000000; stroke-linecap:butt; stroke-linejoin:round; stroke-width:4; stroke-opacity:1; fill:none" points="
  1778.41,335.029 2282.66,335.029 2282.66,93.1086 1778.41,93.1086 1778.41,335.029 
  "/>
<path clip-path="url(#clip430)" d="
M1801.77 177.781 L1941.95 177.781 L1941.95 129.397 L1801.77 129.397 L1801.77 177.781  Z
  " fill="#009af9" fill-rule="evenodd" fill-opacity="1"/>
<polyline clip-path="url(#clip430)" style="stroke:#009af9; stroke-linecap:butt; stroke-linejoin:round; stroke-width:4; stroke-opacity:1; fill:none" points="
  1801.77,177.781 1941.95,177.781 1941.95,129.397 1801.77,129.397 1801.77,177.781 
  "/>
<path clip-path="url(#clip430)" d="M1987.56 137.443 L1987.56 142.003 Q1984.9 140.73 1982.54 140.105 Q1980.18 139.48 1977.98 139.48 Q1974.16 139.48 1972.07 140.961 Q1970.01 142.443 1970.01 145.174 Q1970.01 147.466 1971.38 148.647 Q1972.77 149.804 1976.61 150.522 L1979.43 151.1 Q1984.67 152.096 1987.14 154.619 Q1989.64 157.119 1989.64 161.332 Q1989.64 166.355 1986.26 168.947 Q1982.91 171.54 1976.4 171.54 Q1973.95 171.54 1971.17 170.984 Q1968.42 170.429 1965.45 169.341 L1965.45 164.526 Q1968.3 166.123 1971.03 166.933 Q1973.76 167.744 1976.4 167.744 Q1980.41 167.744 1982.58 166.17 Q1984.76 164.596 1984.76 161.679 Q1984.76 159.133 1983.18 157.697 Q1981.63 156.262 1978.07 155.545 L1975.22 154.989 Q1969.99 153.947 1967.65 151.725 Q1965.31 149.503 1965.31 145.545 Q1965.31 140.961 1968.53 138.322 Q1971.77 135.684 1977.44 135.684 Q1979.87 135.684 1982.4 136.123 Q1984.92 136.563 1987.56 137.443 Z" fill="#000000" fill-rule="evenodd" fill-opacity="1" /><path clip-path="url(#clip430)" d="M2017.65 137.443 L2017.65 142.003 Q2014.99 140.73 2012.63 140.105 Q2010.27 139.48 2008.07 139.48 Q2004.25 139.48 2002.17 140.961 Q2000.11 142.443 2000.11 145.174 Q2000.11 147.466 2001.47 148.647 Q2002.86 149.804 2006.7 150.522 L2009.53 151.1 Q2014.76 152.096 2017.24 154.619 Q2019.74 157.119 2019.74 161.332 Q2019.74 166.355 2016.36 168.947 Q2013 171.54 2006.49 171.54 Q2004.04 171.54 2001.26 170.984 Q1998.51 170.429 1995.55 169.341 L1995.55 164.526 Q1998.39 166.123 2001.12 166.933 Q2003.86 167.744 2006.49 167.744 Q2010.5 167.744 2012.68 166.17 Q2014.85 164.596 2014.85 161.679 Q2014.85 159.133 2013.28 157.697 Q2011.73 156.262 2008.16 155.545 L2005.31 154.989 Q2000.08 153.947 1997.74 151.725 Q1995.41 149.503 1995.41 145.545 Q1995.41 140.961 1998.62 138.322 Q2001.86 135.684 2007.54 135.684 Q2009.97 135.684 2012.49 136.123 Q2015.01 136.563 2017.65 137.443 Z" fill="#000000" fill-rule="evenodd" fill-opacity="1" /><path clip-path="url(#clip430)" d="M2039.46 140.915 L2033.11 158.114 L2045.82 158.114 L2039.46 140.915 M2036.82 136.309 L2042.12 136.309 L2055.29 170.869 L2050.43 170.869 L2047.28 162.003 L2031.7 162.003 L2028.55 170.869 L2023.62 170.869 L2036.82 136.309 Z" fill="#000000" fill-rule="evenodd" fill-opacity="1" /><polyline clip-path="url(#clip430)" style="stroke:#e26f46; stroke-linecap:butt; stroke-linejoin:round; stroke-width:4; stroke-opacity:1; fill:none" points="
  1801.77,214.069 1941.95,214.069 
  "/>
<path clip-path="url(#clip430)" d="M1984.23 218.085 Q1984.23 213.455 1982.3 210.909 Q1980.41 208.363 1976.96 208.363 Q1973.53 208.363 1971.61 210.909 Q1969.71 213.455 1969.71 218.085 Q1969.71 222.691 1971.61 225.238 Q1973.53 227.784 1976.96 227.784 Q1980.41 227.784 1982.3 225.238 Q1984.23 222.691 1984.23 218.085 M1988.49 228.131 Q1988.49 234.751 1985.55 237.969 Q1982.61 241.21 1976.54 241.21 Q1974.3 241.21 1972.3 240.862 Q1970.31 240.538 1968.44 239.844 L1968.44 235.7 Q1970.31 236.719 1972.14 237.205 Q1973.97 237.691 1975.87 237.691 Q1980.06 237.691 1982.14 235.492 Q1984.23 233.316 1984.23 228.895 L1984.23 226.788 Q1982.91 229.08 1980.85 230.214 Q1978.79 231.349 1975.92 231.349 Q1971.15 231.349 1968.23 227.714 Q1965.31 224.08 1965.31 218.085 Q1965.31 212.066 1968.23 208.432 Q1971.15 204.798 1975.92 204.798 Q1978.79 204.798 1980.85 205.932 Q1982.91 207.066 1984.23 209.358 L1984.23 205.423 L1988.49 205.423 L1988.49 228.131 Z" fill="#000000" fill-rule="evenodd" fill-opacity="1" /><path clip-path="url(#clip430)" d="M2009.04 218.316 Q2003.88 218.316 2001.89 219.497 Q1999.9 220.677 1999.9 223.525 Q1999.9 225.793 2001.38 227.136 Q2002.88 228.455 2005.45 228.455 Q2008.99 228.455 2011.12 225.955 Q2013.28 223.432 2013.28 219.265 L2013.28 218.316 L2009.04 218.316 M2017.54 216.557 L2017.54 231.349 L2013.28 231.349 L2013.28 227.413 Q2011.82 229.775 2009.64 230.909 Q2007.47 232.02 2004.32 232.02 Q2000.34 232.02 1997.98 229.798 Q1995.64 227.552 1995.64 223.802 Q1995.64 219.427 1998.55 217.205 Q2001.49 214.983 2007.3 214.983 L2013.28 214.983 L2013.28 214.566 Q2013.28 211.627 2011.33 210.029 Q2009.41 208.409 2005.92 208.409 Q2003.69 208.409 2001.59 208.941 Q1999.48 209.474 1997.54 210.539 L1997.54 206.603 Q1999.87 205.701 2002.07 205.261 Q2004.27 204.798 2006.36 204.798 Q2011.98 204.798 2014.76 207.714 Q2017.54 210.631 2017.54 216.557 Z" fill="#000000" fill-rule="evenodd" fill-opacity="1" /><path clip-path="url(#clip430)" d="M2025.87 221.117 L2025.87 205.423 L2030.13 205.423 L2030.13 220.955 Q2030.13 224.636 2031.56 226.488 Q2033 228.316 2035.87 228.316 Q2039.32 228.316 2041.31 226.117 Q2043.32 223.918 2043.32 220.122 L2043.32 205.423 L2047.58 205.423 L2047.58 231.349 L2043.32 231.349 L2043.32 227.367 Q2041.77 229.728 2039.71 230.886 Q2037.67 232.02 2034.97 232.02 Q2030.5 232.02 2028.18 229.242 Q2025.87 226.464 2025.87 221.117 M2036.59 204.798 L2036.59 204.798 Z" fill="#000000" fill-rule="evenodd" fill-opacity="1" /><path clip-path="url(#clip430)" d="M2072.88 206.187 L2072.88 210.214 Q2071.08 209.289 2069.13 208.826 Q2067.19 208.363 2065.11 208.363 Q2061.93 208.363 2060.34 209.335 Q2058.76 210.307 2058.76 212.251 Q2058.76 213.733 2059.9 214.589 Q2061.03 215.423 2064.46 216.187 L2065.92 216.511 Q2070.45 217.483 2072.35 219.265 Q2074.27 221.025 2074.27 224.196 Q2074.27 227.807 2071.4 229.913 Q2068.55 232.02 2063.55 232.02 Q2061.47 232.02 2059.2 231.603 Q2056.96 231.21 2054.46 230.4 L2054.46 226.001 Q2056.82 227.228 2059.11 227.853 Q2061.4 228.455 2063.65 228.455 Q2066.66 228.455 2068.28 227.437 Q2069.9 226.395 2069.9 224.52 Q2069.9 222.784 2068.72 221.858 Q2067.56 220.932 2063.6 220.076 L2062.12 219.728 Q2058.16 218.895 2056.4 217.182 Q2054.64 215.446 2054.64 212.437 Q2054.64 208.779 2057.23 206.789 Q2059.83 204.798 2064.6 204.798 Q2066.96 204.798 2069.04 205.145 Q2071.12 205.492 2072.88 206.187 Z" fill="#000000" fill-rule="evenodd" fill-opacity="1" /><path clip-path="url(#clip430)" d="M2097.58 206.187 L2097.58 210.214 Q2095.78 209.289 2093.83 208.826 Q2091.89 208.363 2089.8 208.363 Q2086.63 208.363 2085.04 209.335 Q2083.46 210.307 2083.46 212.251 Q2083.46 213.733 2084.6 214.589 Q2085.73 215.423 2089.16 216.187 L2090.61 216.511 Q2095.15 217.483 2097.05 219.265 Q2098.97 221.025 2098.97 224.196 Q2098.97 227.807 2096.1 229.913 Q2093.25 232.02 2088.25 232.02 Q2086.17 232.02 2083.9 231.603 Q2081.66 231.21 2079.16 230.4 L2079.16 226.001 Q2081.52 227.228 2083.81 227.853 Q2086.1 228.455 2088.35 228.455 Q2091.36 228.455 2092.98 227.437 Q2094.6 226.395 2094.6 224.52 Q2094.6 222.784 2093.42 221.858 Q2092.26 220.932 2088.3 220.076 L2086.82 219.728 Q2082.86 218.895 2081.1 217.182 Q2079.34 215.446 2079.34 212.437 Q2079.34 208.779 2081.93 206.789 Q2084.53 204.798 2089.29 204.798 Q2091.66 204.798 2093.74 205.145 Q2095.82 205.492 2097.58 206.187 Z" fill="#000000" fill-rule="evenodd" fill-opacity="1" /><path clip-path="url(#clip430)" d="M2105.75 205.423 L2110.01 205.423 L2110.01 231.349 L2105.75 231.349 L2105.75 205.423 M2105.75 195.33 L2110.01 195.33 L2110.01 200.724 L2105.75 200.724 L2105.75 195.33 Z" fill="#000000" fill-rule="evenodd" fill-opacity="1" /><path clip-path="url(#clip430)" d="M2130.71 218.316 Q2125.54 218.316 2123.55 219.497 Q2121.56 220.677 2121.56 223.525 Q2121.56 225.793 2123.04 227.136 Q2124.55 228.455 2127.12 228.455 Q2130.66 228.455 2132.79 225.955 Q2134.94 223.432 2134.94 219.265 L2134.94 218.316 L2130.71 218.316 M2139.2 216.557 L2139.2 231.349 L2134.94 231.349 L2134.94 227.413 Q2133.48 229.775 2131.31 230.909 Q2129.13 232.02 2125.98 232.02 Q2122 232.02 2119.64 229.798 Q2117.3 227.552 2117.3 223.802 Q2117.3 219.427 2120.22 217.205 Q2123.16 214.983 2128.97 214.983 L2134.94 214.983 L2134.94 214.566 Q2134.94 211.627 2133 210.029 Q2131.08 208.409 2127.58 208.409 Q2125.36 208.409 2123.25 208.941 Q2121.15 209.474 2119.2 210.539 L2119.2 206.603 Q2121.54 205.701 2123.74 205.261 Q2125.94 204.798 2128.02 204.798 Q2133.65 204.798 2136.42 207.714 Q2139.2 210.631 2139.2 216.557 Z" fill="#000000" fill-rule="evenodd" fill-opacity="1" /><path clip-path="url(#clip430)" d="M2169.53 215.701 L2169.53 231.349 L2165.27 231.349 L2165.27 215.839 Q2165.27 212.159 2163.83 210.33 Q2162.4 208.502 2159.53 208.502 Q2156.08 208.502 2154.09 210.701 Q2152.1 212.9 2152.1 216.696 L2152.1 231.349 L2147.81 231.349 L2147.81 205.423 L2152.1 205.423 L2152.1 209.451 Q2153.62 207.113 2155.68 205.955 Q2157.77 204.798 2160.48 204.798 Q2164.94 204.798 2167.23 207.576 Q2169.53 210.33 2169.53 215.701 Z" fill="#000000" fill-rule="evenodd" fill-opacity="1" /><path clip-path="url(#clip430)" d="M2206.22 195.33 L2206.22 198.872 L2202.14 198.872 Q2199.85 198.872 2198.95 199.798 Q2198.07 200.724 2198.07 203.131 L2198.07 205.423 L2205.08 205.423 L2205.08 208.733 L2198.07 208.733 L2198.07 231.349 L2193.79 231.349 L2193.79 208.733 L2189.71 208.733 L2189.71 205.423 L2193.79 205.423 L2193.79 203.617 Q2193.79 199.289 2195.8 197.321 Q2197.81 195.33 2202.19 195.33 L2206.22 195.33 Z" fill="#000000" fill-rule="evenodd" fill-opacity="1" /><path clip-path="url(#clip430)" d="M2209.78 205.423 L2214.04 205.423 L2214.04 231.349 L2209.78 231.349 L2209.78 205.423 M2209.78 195.33 L2214.04 195.33 L2214.04 200.724 L2209.78 200.724 L2209.78 195.33 Z" fill="#000000" fill-rule="evenodd" fill-opacity="1" /><path clip-path="url(#clip430)" d="M2227.16 198.062 L2227.16 205.423 L2235.94 205.423 L2235.94 208.733 L2227.16 208.733 L2227.16 222.807 Q2227.16 225.978 2228.02 226.881 Q2228.9 227.784 2231.56 227.784 L2235.94 227.784 L2235.94 231.349 L2231.56 231.349 Q2226.63 231.349 2224.76 229.52 Q2222.88 227.668 2222.88 222.807 L2222.88 208.733 L2219.76 208.733 L2219.76 205.423 L2222.88 205.423 L2222.88 198.062 L2227.16 198.062 Z" fill="#000000" fill-rule="evenodd" fill-opacity="1" /><polyline clip-path="url(#clip430)" style="stroke:#3da44d; stroke-linecap:butt; stroke-linejoin:round; stroke-width:4; stroke-opacity:1; fill:none" points="
  1801.77,274.549 1941.95,274.549 
  "/>
<path clip-path="url(#clip430)" d="M1969.6 287.94 L1969.6 301.69 L1965.31 301.69 L1965.31 265.903 L1969.6 265.903 L1969.6 269.838 Q1970.94 267.523 1972.98 266.412 Q1975.04 265.278 1977.88 265.278 Q1982.61 265.278 1985.55 269.028 Q1988.51 272.778 1988.51 278.889 Q1988.51 285 1985.55 288.75 Q1982.61 292.5 1977.88 292.5 Q1975.04 292.5 1972.98 291.389 Q1970.94 290.255 1969.6 287.94 M1984.09 278.889 Q1984.09 274.19 1982.14 271.528 Q1980.22 268.843 1976.84 268.843 Q1973.46 268.843 1971.52 271.528 Q1969.6 274.19 1969.6 278.889 Q1969.6 283.588 1971.52 286.273 Q1973.46 288.935 1976.84 288.935 Q1980.22 288.935 1982.14 286.273 Q1984.09 283.588 1984.09 278.889 Z" fill="#000000" fill-rule="evenodd" fill-opacity="1" /><path clip-path="url(#clip430)" d="M2005.61 268.889 Q2002.19 268.889 2000.2 271.574 Q1998.21 274.236 1998.21 278.889 Q1998.21 283.542 2000.18 286.227 Q2002.17 288.889 2005.61 288.889 Q2009.02 288.889 2011.01 286.204 Q2013 283.518 2013 278.889 Q2013 274.282 2011.01 271.597 Q2009.02 268.889 2005.61 268.889 M2005.61 265.278 Q2011.17 265.278 2014.34 268.889 Q2017.51 272.5 2017.51 278.889 Q2017.51 285.255 2014.34 288.889 Q2011.17 292.5 2005.61 292.5 Q2000.04 292.5 1996.86 288.889 Q1993.72 285.255 1993.72 278.889 Q1993.72 272.5 1996.86 268.889 Q2000.04 265.278 2005.61 265.278 Z" fill="#000000" fill-rule="evenodd" fill-opacity="1" /><path clip-path="url(#clip430)" d="M2024.57 265.903 L2028.83 265.903 L2028.83 291.829 L2024.57 291.829 L2024.57 265.903 M2024.57 255.81 L2028.83 255.81 L2028.83 261.204 L2024.57 261.204 L2024.57 255.81 Z" fill="#000000" fill-rule="evenodd" fill-opacity="1" /><path clip-path="url(#clip430)" d="M2054.27 266.667 L2054.27 270.694 Q2052.47 269.769 2050.52 269.306 Q2048.58 268.843 2046.49 268.843 Q2043.32 268.843 2041.73 269.815 Q2040.15 270.787 2040.15 272.731 Q2040.15 274.213 2041.29 275.069 Q2042.42 275.903 2045.85 276.667 L2047.3 276.991 Q2051.84 277.963 2053.74 279.745 Q2055.66 281.505 2055.66 284.676 Q2055.66 288.287 2052.79 290.393 Q2049.94 292.5 2044.94 292.5 Q2042.86 292.5 2040.59 292.083 Q2038.35 291.69 2035.85 290.88 L2035.85 286.481 Q2038.21 287.708 2040.5 288.333 Q2042.79 288.935 2045.04 288.935 Q2048.05 288.935 2049.67 287.917 Q2051.29 286.875 2051.29 285 Q2051.29 283.264 2050.11 282.338 Q2048.95 281.412 2044.99 280.556 L2043.51 280.208 Q2039.55 279.375 2037.79 277.662 Q2036.03 275.926 2036.03 272.917 Q2036.03 269.259 2038.62 267.269 Q2041.22 265.278 2045.99 265.278 Q2048.35 265.278 2050.43 265.625 Q2052.51 265.972 2054.27 266.667 Z" fill="#000000" fill-rule="evenodd" fill-opacity="1" /><path clip-path="url(#clip430)" d="M2078.97 266.667 L2078.97 270.694 Q2077.17 269.769 2075.22 269.306 Q2073.28 268.843 2071.19 268.843 Q2068.02 268.843 2066.42 269.815 Q2064.85 270.787 2064.85 272.731 Q2064.85 274.213 2065.98 275.069 Q2067.12 275.903 2070.55 276.667 L2072 276.991 Q2076.54 277.963 2078.44 279.745 Q2080.36 281.505 2080.36 284.676 Q2080.36 288.287 2077.49 290.393 Q2074.64 292.5 2069.64 292.5 Q2067.56 292.5 2065.29 292.083 Q2063.05 291.69 2060.55 290.88 L2060.55 286.481 Q2062.91 287.708 2065.2 288.333 Q2067.49 288.935 2069.73 288.935 Q2072.74 288.935 2074.36 287.917 Q2075.98 286.875 2075.98 285 Q2075.98 283.264 2074.8 282.338 Q2073.65 281.412 2069.69 280.556 L2068.21 280.208 Q2064.25 279.375 2062.49 277.662 Q2060.73 275.926 2060.73 272.917 Q2060.73 269.259 2063.32 267.269 Q2065.92 265.278 2070.68 265.278 Q2073.05 265.278 2075.13 265.625 Q2077.21 265.972 2078.97 266.667 Z" fill="#000000" fill-rule="evenodd" fill-opacity="1" /><path clip-path="url(#clip430)" d="M2097.19 268.889 Q2093.76 268.889 2091.77 271.574 Q2089.78 274.236 2089.78 278.889 Q2089.78 283.542 2091.75 286.227 Q2093.74 288.889 2097.19 288.889 Q2100.59 288.889 2102.58 286.204 Q2104.57 283.518 2104.57 278.889 Q2104.57 274.282 2102.58 271.597 Q2100.59 268.889 2097.19 268.889 M2097.19 265.278 Q2102.74 265.278 2105.92 268.889 Q2109.09 272.5 2109.09 278.889 Q2109.09 285.255 2105.92 288.889 Q2102.74 292.5 2097.19 292.5 Q2091.61 292.5 2088.44 288.889 Q2085.29 285.255 2085.29 278.889 Q2085.29 272.5 2088.44 268.889 Q2091.61 265.278 2097.19 265.278 Z" fill="#000000" fill-rule="evenodd" fill-opacity="1" /><path clip-path="url(#clip430)" d="M2137.7 276.181 L2137.7 291.829 L2133.44 291.829 L2133.44 276.319 Q2133.44 272.639 2132 270.81 Q2130.57 268.982 2127.7 268.982 Q2124.25 268.982 2122.26 271.181 Q2120.27 273.38 2120.27 277.176 L2120.27 291.829 L2115.98 291.829 L2115.98 265.903 L2120.27 265.903 L2120.27 269.931 Q2121.79 267.593 2123.85 266.435 Q2125.94 265.278 2128.65 265.278 Q2133.11 265.278 2135.41 268.056 Q2137.7 270.81 2137.7 276.181 Z" fill="#000000" fill-rule="evenodd" fill-opacity="1" /><path clip-path="url(#clip430)" d="M2174.39 255.81 L2174.39 259.352 L2170.31 259.352 Q2168.02 259.352 2167.12 260.278 Q2166.24 261.204 2166.24 263.611 L2166.24 265.903 L2173.25 265.903 L2173.25 269.213 L2166.24 269.213 L2166.24 291.829 L2161.96 291.829 L2161.96 269.213 L2157.88 269.213 L2157.88 265.903 L2161.96 265.903 L2161.96 264.097 Q2161.96 259.769 2163.97 257.801 Q2165.98 255.81 2170.36 255.81 L2174.39 255.81 Z" fill="#000000" fill-rule="evenodd" fill-opacity="1" /><path clip-path="url(#clip430)" d="M2177.95 265.903 L2182.21 265.903 L2182.21 291.829 L2177.95 291.829 L2177.95 265.903 M2177.95 255.81 L2182.21 255.81 L2182.21 261.204 L2177.95 261.204 L2177.95 255.81 Z" fill="#000000" fill-rule="evenodd" fill-opacity="1" /><path clip-path="url(#clip430)" d="M2195.34 258.542 L2195.34 265.903 L2204.11 265.903 L2204.11 269.213 L2195.34 269.213 L2195.34 283.287 Q2195.34 286.458 2196.19 287.361 Q2197.07 288.264 2199.73 288.264 L2204.11 288.264 L2204.11 291.829 L2199.73 291.829 Q2194.8 291.829 2192.93 290 Q2191.05 288.148 2191.05 283.287 L2191.05 269.213 L2187.93 269.213 L2187.93 265.903 L2191.05 265.903 L2191.05 258.542 L2195.34 258.542 Z" fill="#000000" fill-rule="evenodd" fill-opacity="1" /></svg>
