<?xml version="1.0" encoding="utf-8"?>
<svg xmlns="http://www.w3.org/2000/svg" xmlns:xlink="http://www.w3.org/1999/xlink" width="600" height="400" viewBox="0 0 2400 1600">
<defs>
  <clipPath id="clip150">
    <rect x="0" y="0" width="2400" height="1600"/>
  </clipPath>
</defs>
<path clip-path="url(#clip150)" d="
M0 1600 L2400 1600 L2400 0 L0 0  Z
  " fill="#ffffff" fill-rule="evenodd" fill-opacity="1"/>
<defs>
  <clipPath id="clip151">
    <rect x="480" y="0" width="1681" height="1600"/>
  </clipPath>
</defs>
<path clip-path="url(#clip150)" d="
M102.74 1505.26 L2352.76 1505.26 L2352.76 47.2441 L102.74 47.2441  Z
  " fill="#ffffff" fill-rule="evenodd" fill-opacity="1"/>
<defs>
  <clipPath id="clip152">
    <rect x="102" y="47" width="2251" height="1459"/>
  </clipPath>
</defs>
<polyline clip-path="url(#clip152)" style="stroke:#000000; stroke-linecap:butt; stroke-linejoin:round; stroke-width:2; stroke-opacity:0.1; fill:none" points="
  226.495,1505.26 226.495,47.2441 
  "/>
<polyline clip-path="url(#clip152)" style="stroke:#000000; stroke-linecap:butt; stroke-linejoin:round; stroke-width:2; stroke-opacity:0.1; fill:none" points="
  917.014,1505.26 917.014,47.2441 
  "/>
<polyline clip-path="url(#clip152)" style="stroke:#000000; stroke-linecap:butt; stroke-linejoin:round; stroke-width:2; stroke-opacity:0.1; fill:none" points="
  1607.53,1505.26 1607.53,47.2441 
  "/>
<polyline clip-path="url(#clip152)" style="stroke:#000000; stroke-linecap:butt; stroke-linejoin:round; stroke-width:2; stroke-opacity:0.1; fill:none" points="
  2298.05,1505.26 2298.05,47.2441 
  "/>
<polyline clip-path="url(#clip150)" style="stroke:#000000; stroke-linecap:butt; stroke-linejoin:round; stroke-width:4; stroke-opacity:1; fill:none" points="
  102.74,1505.26 2352.76,1505.26 
  "/>
<polyline clip-path="url(#clip150)" style="stroke:#000000; stroke-linecap:butt; stroke-linejoin:round; stroke-width:4; stroke-opacity:1; fill:none" points="
  226.495,1505.26 226.495,1487.76 
  "/>
<polyline clip-path="url(#clip150)" style="stroke:#000000; stroke-linecap:butt; stroke-linejoin:round; stroke-width:4; stroke-opacity:1; fill:none" points="
  917.014,1505.26 917.014,1487.76 
  "/>
<polyline clip-path="url(#clip150)" style="stroke:#000000; stroke-linecap:butt; stroke-linejoin:round; stroke-width:4; stroke-opacity:1; fill:none" points="
  1607.53,1505.26 1607.53,1487.76 
  "/>
<polyline clip-path="url(#clip150)" style="stroke:#000000; stroke-linecap:butt; stroke-linejoin:round; stroke-width:4; stroke-opacity:1; fill:none" points="
  2298.05,1505.26 2298.05,1487.76 
  "/>
<path clip-path="url(#clip150)" d="M226.495 1534.45 Q222.884 1534.45 221.055 1538.02 Q219.25 1541.56 219.25 1548.69 Q219.25 1555.79 221.055 1559.36 Q222.884 1562.9 226.495 1562.9 Q230.129 1562.9 231.935 1559.36 Q233.764 1555.79 233.764 1548.69 Q233.764 1541.56 231.935 1538.02 Q230.129 1534.45 226.495 1534.45 M226.495 1530.75 Q232.305 1530.75 235.361 1535.35 Q238.439 1539.94 238.439 1548.69 Q238.439 1557.41 235.361 1562.02 Q232.305 1566.6 226.495 1566.6 Q220.685 1566.6 217.606 1562.02 Q214.551 1557.41 214.551 1548.69 Q214.551 1539.94 217.606 1535.35 Q220.685 1530.75 226.495 1530.75 Z" fill="#000000" fill-rule="evenodd" fill-opacity="1" /><path clip-path="url(#clip150)" d="M891.702 1562 L899.341 1562 L899.341 1535.63 L891.031 1537.3 L891.031 1533.04 L899.295 1531.37 L903.97 1531.37 L903.97 1562 L911.609 1562 L911.609 1565.93 L891.702 1565.93 L891.702 1562 Z" fill="#000000" fill-rule="evenodd" fill-opacity="1" /><path clip-path="url(#clip150)" d="M931.054 1534.45 Q927.443 1534.45 925.614 1538.02 Q923.808 1541.56 923.808 1548.69 Q923.808 1555.79 925.614 1559.36 Q927.443 1562.9 931.054 1562.9 Q934.688 1562.9 936.493 1559.36 Q938.322 1555.79 938.322 1548.69 Q938.322 1541.56 936.493 1538.02 Q934.688 1534.45 931.054 1534.45 M931.054 1530.75 Q936.864 1530.75 939.919 1535.35 Q942.998 1539.94 942.998 1548.69 Q942.998 1557.41 939.919 1562.02 Q936.864 1566.6 931.054 1566.6 Q925.243 1566.6 922.165 1562.02 Q919.109 1557.41 919.109 1548.69 Q919.109 1539.94 922.165 1535.35 Q925.243 1530.75 931.054 1530.75 Z" fill="#000000" fill-rule="evenodd" fill-opacity="1" /><path clip-path="url(#clip150)" d="M1586.31 1562 L1602.63 1562 L1602.63 1565.93 L1580.68 1565.93 L1580.68 1562 Q1583.34 1559.24 1587.93 1554.61 Q1592.53 1549.96 1593.71 1548.62 Q1595.96 1546.09 1596.84 1544.36 Q1597.74 1542.6 1597.74 1540.91 Q1597.74 1538.15 1595.8 1536.42 Q1593.88 1534.68 1590.77 1534.68 Q1588.58 1534.68 1586.12 1535.45 Q1583.69 1536.21 1580.91 1537.76 L1580.91 1533.04 Q1583.74 1531.9 1586.19 1531.33 Q1588.64 1530.75 1590.68 1530.75 Q1596.05 1530.75 1599.25 1533.43 Q1602.44 1536.12 1602.44 1540.61 Q1602.44 1542.74 1601.63 1544.66 Q1600.84 1546.56 1598.74 1549.15 Q1598.16 1549.82 1595.06 1553.04 Q1591.96 1556.23 1586.31 1562 Z" fill="#000000" fill-rule="evenodd" fill-opacity="1" /><path clip-path="url(#clip150)" d="M1622.44 1534.45 Q1618.83 1534.45 1617 1538.02 Q1615.2 1541.56 1615.2 1548.69 Q1615.2 1555.79 1617 1559.36 Q1618.83 1562.9 1622.44 1562.9 Q1626.08 1562.9 1627.88 1559.36 Q1629.71 1555.79 1629.71 1548.69 Q1629.71 1541.56 1627.88 1538.02 Q1626.08 1534.45 1622.44 1534.45 M1622.44 1530.75 Q1628.25 1530.75 1631.31 1535.35 Q1634.39 1539.94 1634.39 1548.69 Q1634.39 1557.41 1631.31 1562.02 Q1628.25 1566.6 1622.44 1566.6 Q1616.63 1566.6 1613.55 1562.02 Q1610.5 1557.41 1610.5 1548.69 Q1610.5 1539.94 1613.55 1535.35 Q1616.63 1530.75 1622.44 1530.75 Z" fill="#000000" fill-rule="evenodd" fill-opacity="1" /><path clip-path="url(#clip150)" d="M2286.9 1547.3 Q2290.25 1548.02 2292.13 1550.28 Q2294.03 1552.55 2294.03 1555.89 Q2294.03 1561 2290.51 1563.8 Q2286.99 1566.6 2280.51 1566.6 Q2278.33 1566.6 2276.02 1566.16 Q2273.72 1565.75 2271.27 1564.89 L2271.27 1560.38 Q2273.22 1561.51 2275.53 1562.09 Q2277.84 1562.67 2280.37 1562.67 Q2284.77 1562.67 2287.06 1560.93 Q2289.37 1559.2 2289.37 1555.89 Q2289.37 1552.83 2287.22 1551.12 Q2285.09 1549.38 2281.27 1549.38 L2277.24 1549.38 L2277.24 1545.54 L2281.46 1545.54 Q2284.9 1545.54 2286.73 1544.17 Q2288.56 1542.78 2288.56 1540.19 Q2288.56 1537.53 2286.66 1536.12 Q2284.79 1534.68 2281.27 1534.68 Q2279.35 1534.68 2277.15 1535.1 Q2274.95 1535.52 2272.31 1536.39 L2272.31 1532.23 Q2274.97 1531.49 2277.29 1531.12 Q2279.63 1530.75 2281.69 1530.75 Q2287.01 1530.75 2290.11 1533.18 Q2293.22 1535.58 2293.22 1539.71 Q2293.22 1542.58 2291.57 1544.57 Q2289.93 1546.53 2286.9 1547.3 Z" fill="#000000" fill-rule="evenodd" fill-opacity="1" /><path clip-path="url(#clip150)" d="M2312.89 1534.45 Q2309.28 1534.45 2307.45 1538.02 Q2305.65 1541.56 2305.65 1548.69 Q2305.65 1555.79 2307.45 1559.36 Q2309.28 1562.9 2312.89 1562.9 Q2316.53 1562.9 2318.33 1559.36 Q2320.16 1555.79 2320.16 1548.69 Q2320.16 1541.56 2318.33 1538.02 Q2316.53 1534.45 2312.89 1534.45 M2312.89 1530.75 Q2318.7 1530.75 2321.76 1535.35 Q2324.84 1539.94 2324.84 1548.69 Q2324.84 1557.41 2321.76 1562.02 Q2318.7 1566.6 2312.89 1566.6 Q2307.08 1566.6 2304 1562.02 Q2300.95 1557.41 2300.95 1548.69 Q2300.95 1539.94 2304 1535.35 Q2307.08 1530.75 2312.89 1530.75 Z" fill="#000000" fill-rule="evenodd" fill-opacity="1" /><path clip-path="url(#clip150)" d="M1238.19 1619.95 Q1237.2 1619.38 1236.02 1619.12 Q1234.88 1618.84 1233.48 1618.84 Q1228.51 1618.84 1225.84 1622.08 Q1223.2 1625.3 1223.2 1631.35 L1223.2 1650.12 L1217.31 1650.12 L1217.31 1614.48 L1223.2 1614.48 L1223.2 1620.01 Q1225.04 1616.77 1228 1615.21 Q1230.96 1613.62 1235.2 1613.62 Q1235.8 1613.62 1236.53 1613.71 Q1237.26 1613.78 1238.16 1613.93 L1238.19 1619.95 Z" fill="#000000" fill-rule="evenodd" fill-opacity="1" /><polyline clip-path="url(#clip152)" style="stroke:#000000; stroke-linecap:butt; stroke-linejoin:round; stroke-width:2; stroke-opacity:0.1; fill:none" points="
  102.74,1464 2352.76,1464 
  "/>
<polyline clip-path="url(#clip152)" style="stroke:#000000; stroke-linecap:butt; stroke-linejoin:round; stroke-width:2; stroke-opacity:0.1; fill:none" points="
  102.74,1179.2 2352.76,1179.2 
  "/>
<polyline clip-path="url(#clip152)" style="stroke:#000000; stroke-linecap:butt; stroke-linejoin:round; stroke-width:2; stroke-opacity:0.1; fill:none" points="
  102.74,894.397 2352.76,894.397 
  "/>
<polyline clip-path="url(#clip152)" style="stroke:#000000; stroke-linecap:butt; stroke-linejoin:round; stroke-width:2; stroke-opacity:0.1; fill:none" points="
  102.74,609.598 2352.76,609.598 
  "/>
<polyline clip-path="url(#clip152)" style="stroke:#000000; stroke-linecap:butt; stroke-linejoin:round; stroke-width:2; stroke-opacity:0.1; fill:none" points="
  102.74,324.799 2352.76,324.799 
  "/>
<polyline clip-path="url(#clip150)" style="stroke:#000000; stroke-linecap:butt; stroke-linejoin:round; stroke-width:4; stroke-opacity:1; fill:none" points="
  102.74,1505.26 102.74,47.2441 
  "/>
<polyline clip-path="url(#clip150)" style="stroke:#000000; stroke-linecap:butt; stroke-linejoin:round; stroke-width:4; stroke-opacity:1; fill:none" points="
  102.74,1464 129.74,1464 
  "/>
<polyline clip-path="url(#clip150)" style="stroke:#000000; stroke-linecap:butt; stroke-linejoin:round; stroke-width:4; stroke-opacity:1; fill:none" points="
  102.74,1179.2 129.74,1179.2 
  "/>
<polyline clip-path="url(#clip150)" style="stroke:#000000; stroke-linecap:butt; stroke-linejoin:round; stroke-width:4; stroke-opacity:1; fill:none" points="
  102.74,894.397 129.74,894.397 
  "/>
<polyline clip-path="url(#clip150)" style="stroke:#000000; stroke-linecap:butt; stroke-linejoin:round; stroke-width:4; stroke-opacity:1; fill:none" points="
  102.74,609.598 129.74,609.598 
  "/>
<polyline clip-path="url(#clip150)" style="stroke:#000000; stroke-linecap:butt; stroke-linejoin:round; stroke-width:4; stroke-opacity:1; fill:none" points="
  102.74,324.799 129.74,324.799 
  "/>
<path clip-path="url(#clip150)" d="M-50.7592 1449.79 Q-54.3703 1449.79 -56.199 1453.36 Q-58.0045 1456.9 -58.0045 1464.03 Q-58.0045 1471.14 -56.199 1474.7 Q-54.3703 1478.24 -50.7592 1478.24 Q-47.125 1478.24 -45.3194 1474.7 Q-43.4907 1471.14 -43.4907 1464.03 Q-43.4907 1456.9 -45.3194 1453.36 Q-47.125 1449.79 -50.7592 1449.79 M-50.7592 1446.09 Q-44.9491 1446.09 -41.8935 1450.7 Q-38.8148 1455.28 -38.8148 1464.03 Q-38.8148 1472.76 -41.8935 1477.36 Q-44.9491 1481.95 -50.7592 1481.95 Q-56.5694 1481.95 -59.6481 1477.36 Q-62.7036 1472.76 -62.7036 1464.03 Q-62.7036 1455.28 -59.6481 1450.7 Q-56.5694 1446.09 -50.7592 1446.09 Z" fill="#000000" fill-rule="evenodd" fill-opacity="1" /><path clip-path="url(#clip150)" d="M-30.5973 1475.4 L-25.7131 1475.4 L-25.7131 1481.28 L-30.5973 1481.28 L-30.5973 1475.4 Z" fill="#000000" fill-rule="evenodd" fill-opacity="1" /><path clip-path="url(#clip150)" d="M-5.52797 1449.79 Q-9.13907 1449.79 -10.9678 1453.36 Q-12.7733 1456.9 -12.7733 1464.03 Q-12.7733 1471.14 -10.9678 1474.7 Q-9.13907 1478.24 -5.52797 1478.24 Q-1.89373 1478.24 -0.0881881 1474.7 Q1.74051 1471.14 1.74051 1464.03 Q1.74051 1456.9 -0.0881881 1453.36 Q-1.89373 1449.79 -5.52797 1449.79 M-5.52797 1446.09 Q0.28218 1446.09 3.33772 1450.7 Q6.41641 1455.28 6.41641 1464.03 Q6.41641 1472.76 3.33772 1477.36 Q0.28218 1481.95 -5.52797 1481.95 Q-11.3381 1481.95 -14.4168 1477.36 Q-17.4724 1472.76 -17.4724 1464.03 Q-17.4724 1455.28 -14.4168 1450.7 Q-11.3381 1446.09 -5.52797 1446.09 Z" fill="#000000" fill-rule="evenodd" fill-opacity="1" /><path clip-path="url(#clip150)" d="M24.6339 1449.79 Q21.0228 1449.79 19.1941 1453.36 Q17.3886 1456.9 17.3886 1464.03 Q17.3886 1471.14 19.1941 1474.7 Q21.0228 1478.24 24.6339 1478.24 Q28.2681 1478.24 30.0737 1474.7 Q31.9024 1471.14 31.9024 1464.03 Q31.9024 1456.9 30.0737 1453.36 Q28.2681 1449.79 24.6339 1449.79 M24.6339 1446.09 Q30.4441 1446.09 33.4996 1450.7 Q36.5783 1455.28 36.5783 1464.03 Q36.5783 1472.76 33.4996 1477.36 Q30.4441 1481.95 24.6339 1481.95 Q18.8237 1481.95 15.7451 1477.36 Q12.6895 1472.76 12.6895 1464.03 Q12.6895 1455.28 15.7451 1450.7 Q18.8237 1446.09 24.6339 1446.09 Z" fill="#000000" fill-rule="evenodd" fill-opacity="1" /><path clip-path="url(#clip150)" d="M54.7958 1449.79 Q51.1847 1449.79 49.356 1453.36 Q47.5504 1456.9 47.5504 1464.03 Q47.5504 1471.14 49.356 1474.7 Q51.1847 1478.24 54.7958 1478.24 Q58.43 1478.24 60.2356 1474.7 Q62.0643 1471.14 62.0643 1464.03 Q62.0643 1456.9 60.2356 1453.36 Q58.43 1449.79 54.7958 1449.79 M54.7958 1446.09 Q60.6059 1446.09 63.6615 1450.7 Q66.7402 1455.28 66.7402 1464.03 Q66.7402 1472.76 63.6615 1477.36 Q60.6059 1481.95 54.7958 1481.95 Q48.9856 1481.95 45.9069 1477.36 Q42.8514 1472.76 42.8514 1464.03 Q42.8514 1455.28 45.9069 1450.7 Q48.9856 1446.09 54.7958 1446.09 Z" fill="#000000" fill-rule="evenodd" fill-opacity="1" /><path clip-path="url(#clip150)" d="M-49.7638 1164.99 Q-53.3749 1164.99 -55.2036 1168.56 Q-57.0092 1172.1 -57.0092 1179.23 Q-57.0092 1186.34 -55.2036 1189.9 Q-53.3749 1193.44 -49.7638 1193.44 Q-46.1296 1193.44 -44.3241 1189.9 Q-42.4954 1186.34 -42.4954 1179.23 Q-42.4954 1172.1 -44.3241 1168.56 Q-46.1296 1164.99 -49.7638 1164.99 M-49.7638 1161.29 Q-43.9537 1161.29 -40.8982 1165.9 Q-37.8195 1170.48 -37.8195 1179.23 Q-37.8195 1187.96 -40.8982 1192.56 Q-43.9537 1197.15 -49.7638 1197.15 Q-55.574 1197.15 -58.6527 1192.56 Q-61.7082 1187.96 -61.7082 1179.23 Q-61.7082 1170.48 -58.6527 1165.9 Q-55.574 1161.29 -49.7638 1161.29 Z" fill="#000000" fill-rule="evenodd" fill-opacity="1" /><path clip-path="url(#clip150)" d="M-29.6019 1190.6 L-24.7177 1190.6 L-24.7177 1196.48 L-29.6019 1196.48 L-29.6019 1190.6 Z" fill="#000000" fill-rule="evenodd" fill-opacity="1" /><path clip-path="url(#clip150)" d="M-4.53261 1164.99 Q-8.1437 1164.99 -9.97239 1168.56 Q-11.7779 1172.1 -11.7779 1179.23 Q-11.7779 1186.34 -9.97239 1189.9 Q-8.1437 1193.44 -4.53261 1193.44 Q-0.898369 1193.44 0.907177 1189.9 Q2.73587 1186.34 2.73587 1179.23 Q2.73587 1172.1 0.907177 1168.56 Q-0.898369 1164.99 -4.53261 1164.99 M-4.53261 1161.29 Q1.27755 1161.29 4.33308 1165.9 Q7.41177 1170.48 7.41177 1179.23 Q7.41177 1187.96 4.33308 1192.56 Q1.27755 1197.15 -4.53261 1197.15 Q-10.3428 1197.15 -13.4215 1192.56 Q-16.477 1187.96 -16.477 1179.23 Q-16.477 1170.48 -13.4215 1165.9 Q-10.3428 1161.29 -4.53261 1161.29 Z" fill="#000000" fill-rule="evenodd" fill-opacity="1" /><path clip-path="url(#clip150)" d="M19.6571 1192.54 L35.9764 1192.54 L35.9764 1196.48 L14.0321 1196.48 L14.0321 1192.54 Q16.6941 1189.79 21.2774 1185.16 Q25.8839 1180.5 27.0644 1179.16 Q29.3098 1176.64 30.1894 1174.9 Q31.0922 1173.14 31.0922 1171.45 Q31.0922 1168.7 29.1478 1166.96 Q27.2265 1165.23 24.1246 1165.23 Q21.9256 1165.23 19.4719 1165.99 Q17.0413 1166.75 14.2636 1168.31 L14.2636 1163.58 Q17.0876 1162.45 19.5413 1161.87 Q21.995 1161.29 24.0321 1161.29 Q29.4024 1161.29 32.5968 1163.98 Q35.7912 1166.66 35.7912 1171.15 Q35.7912 1173.28 34.9811 1175.2 Q34.194 1177.1 32.0876 1179.69 Q31.5089 1180.37 28.407 1183.58 Q25.3052 1186.78 19.6571 1192.54 Z" fill="#000000" fill-rule="evenodd" fill-opacity="1" /><path clip-path="url(#clip150)" d="M45.8375 1161.92 L64.1939 1161.92 L64.1939 1165.85 L50.1199 1165.85 L50.1199 1174.32 Q51.1384 1173.98 52.1569 1173.81 Q53.1754 1173.63 54.1939 1173.63 Q59.9809 1173.63 63.3605 1176.8 Q66.7402 1179.97 66.7402 1185.39 Q66.7402 1190.97 63.268 1194.07 Q59.7958 1197.15 53.4763 1197.15 Q51.3004 1197.15 49.0319 1196.78 Q46.7866 1196.41 44.3792 1195.67 L44.3792 1190.97 Q46.4625 1192.1 48.6847 1192.66 Q50.9069 1193.21 53.3837 1193.21 Q57.3884 1193.21 59.7263 1191.11 Q62.0643 1189 62.0643 1185.39 Q62.0643 1181.78 59.7263 1179.67 Q57.3884 1177.56 53.3837 1177.56 Q51.5088 1177.56 49.6338 1177.98 Q47.7819 1178.4 45.8375 1179.28 L45.8375 1161.92 Z" fill="#000000" fill-rule="evenodd" fill-opacity="1" /><path clip-path="url(#clip150)" d="M-50.7592 880.196 Q-54.3703 880.196 -56.199 883.761 Q-58.0045 887.302 -58.0045 894.432 Q-58.0045 901.539 -56.199 905.103 Q-54.3703 908.645 -50.7592 908.645 Q-47.125 908.645 -45.3194 905.103 Q-43.4907 901.539 -43.4907 894.432 Q-43.4907 887.302 -45.3194 883.761 Q-47.125 880.196 -50.7592 880.196 M-50.7592 876.492 Q-44.9491 876.492 -41.8935 881.099 Q-38.8148 885.682 -38.8148 894.432 Q-38.8148 903.159 -41.8935 907.765 Q-44.9491 912.349 -50.7592 912.349 Q-56.5694 912.349 -59.6481 907.765 Q-62.7036 903.159 -62.7036 894.432 Q-62.7036 885.682 -59.6481 881.099 Q-56.5694 876.492 -50.7592 876.492 Z" fill="#000000" fill-rule="evenodd" fill-opacity="1" /><path clip-path="url(#clip150)" d="M-30.5973 905.798 L-25.7131 905.798 L-25.7131 911.677 L-30.5973 911.677 L-30.5973 905.798 Z" fill="#000000" fill-rule="evenodd" fill-opacity="1" /><path clip-path="url(#clip150)" d="M-5.52797 880.196 Q-9.13907 880.196 -10.9678 883.761 Q-12.7733 887.302 -12.7733 894.432 Q-12.7733 901.539 -10.9678 905.103 Q-9.13907 908.645 -5.52797 908.645 Q-1.89373 908.645 -0.0881881 905.103 Q1.74051 901.539 1.74051 894.432 Q1.74051 887.302 -0.0881881 883.761 Q-1.89373 880.196 -5.52797 880.196 M-5.52797 876.492 Q0.28218 876.492 3.33772 881.099 Q6.41641 885.682 6.41641 894.432 Q6.41641 903.159 3.33772 907.765 Q0.28218 912.349 -5.52797 912.349 Q-11.3381 912.349 -14.4168 907.765 Q-17.4724 903.159 -17.4724 894.432 Q-17.4724 885.682 -14.4168 881.099 Q-11.3381 876.492 -5.52797 876.492 Z" fill="#000000" fill-rule="evenodd" fill-opacity="1" /><path clip-path="url(#clip150)" d="M14.6803 877.117 L33.0366 877.117 L33.0366 881.053 L18.9626 881.053 L18.9626 889.525 Q19.9811 889.177 20.9997 889.015 Q22.0182 888.83 23.0367 888.83 Q28.8237 888.83 32.2033 892.002 Q35.5829 895.173 35.5829 900.589 Q35.5829 906.168 32.1107 909.27 Q28.6385 912.349 22.3191 912.349 Q20.1432 912.349 17.8747 911.978 Q15.6293 911.608 13.2219 910.867 L13.2219 906.168 Q15.3052 907.302 17.5275 907.858 Q19.7497 908.413 22.2265 908.413 Q26.2311 908.413 28.5691 906.307 Q30.907 904.201 30.907 900.589 Q30.907 896.978 28.5691 894.872 Q26.2311 892.765 22.2265 892.765 Q20.3515 892.765 18.4765 893.182 Q16.6247 893.599 14.6803 894.478 L14.6803 877.117 Z" fill="#000000" fill-rule="evenodd" fill-opacity="1" /><path clip-path="url(#clip150)" d="M54.7958 880.196 Q51.1847 880.196 49.356 883.761 Q47.5504 887.302 47.5504 894.432 Q47.5504 901.539 49.356 905.103 Q51.1847 908.645 54.7958 908.645 Q58.43 908.645 60.2356 905.103 Q62.0643 901.539 62.0643 894.432 Q62.0643 887.302 60.2356 883.761 Q58.43 880.196 54.7958 880.196 M54.7958 876.492 Q60.6059 876.492 63.6615 881.099 Q66.7402 885.682 66.7402 894.432 Q66.7402 903.159 63.6615 907.765 Q60.6059 912.349 54.7958 912.349 Q48.9856 912.349 45.9069 907.765 Q42.8514 903.159 42.8514 894.432 Q42.8514 885.682 45.9069 881.099 Q48.9856 876.492 54.7958 876.492 Z" fill="#000000" fill-rule="evenodd" fill-opacity="1" /><path clip-path="url(#clip150)" d="M-49.7638 595.397 Q-53.3749 595.397 -55.2036 598.962 Q-57.0092 602.504 -57.0092 609.633 Q-57.0092 616.74 -55.2036 620.304 Q-53.3749 623.846 -49.7638 623.846 Q-46.1296 623.846 -44.3241 620.304 Q-42.4954 616.74 -42.4954 609.633 Q-42.4954 602.504 -44.3241 598.962 Q-46.1296 595.397 -49.7638 595.397 M-49.7638 591.693 Q-43.9537 591.693 -40.8982 596.3 Q-37.8195 600.883 -37.8195 609.633 Q-37.8195 618.36 -40.8982 622.966 Q-43.9537 627.55 -49.7638 627.55 Q-55.574 627.55 -58.6527 622.966 Q-61.7082 618.36 -61.7082 609.633 Q-61.7082 600.883 -58.6527 596.3 Q-55.574 591.693 -49.7638 591.693 Z" fill="#000000" fill-rule="evenodd" fill-opacity="1" /><path clip-path="url(#clip150)" d="M-29.6019 620.999 L-24.7177 620.999 L-24.7177 626.878 L-29.6019 626.878 L-29.6019 620.999 Z" fill="#000000" fill-rule="evenodd" fill-opacity="1" /><path clip-path="url(#clip150)" d="M-4.53261 595.397 Q-8.1437 595.397 -9.97239 598.962 Q-11.7779 602.504 -11.7779 609.633 Q-11.7779 616.74 -9.97239 620.304 Q-8.1437 623.846 -4.53261 623.846 Q-0.898369 623.846 0.907177 620.304 Q2.73587 616.74 2.73587 609.633 Q2.73587 602.504 0.907177 598.962 Q-0.898369 595.397 -4.53261 595.397 M-4.53261 591.693 Q1.27755 591.693 4.33308 596.3 Q7.41177 600.883 7.41177 609.633 Q7.41177 618.36 4.33308 622.966 Q1.27755 627.55 -4.53261 627.55 Q-10.3428 627.55 -13.4215 622.966 Q-16.477 618.36 -16.477 609.633 Q-16.477 600.883 -13.4215 596.3 Q-10.3428 591.693 -4.53261 591.693 Z" fill="#000000" fill-rule="evenodd" fill-opacity="1" /><path clip-path="url(#clip150)" d="M14.4488 592.318 L36.6709 592.318 L36.6709 594.309 L24.1246 626.878 L19.2404 626.878 L31.0459 596.254 L14.4488 596.254 L14.4488 592.318 Z" fill="#000000" fill-rule="evenodd" fill-opacity="1" /><path clip-path="url(#clip150)" d="M45.8375 592.318 L64.1939 592.318 L64.1939 596.254 L50.1199 596.254 L50.1199 604.726 Q51.1384 604.379 52.1569 604.217 Q53.1754 604.031 54.1939 604.031 Q59.9809 604.031 63.3605 607.203 Q66.7402 610.374 66.7402 615.791 Q66.7402 621.369 63.268 624.471 Q59.7958 627.55 53.4763 627.55 Q51.3004 627.55 49.0319 627.179 Q46.7866 626.809 44.3792 626.068 L44.3792 621.369 Q46.4625 622.503 48.6847 623.059 Q50.9069 623.615 53.3837 623.615 Q57.3884 623.615 59.7263 621.508 Q62.0643 619.402 62.0643 615.791 Q62.0643 612.179 59.7263 610.073 Q57.3884 607.966 53.3837 607.966 Q51.5088 607.966 49.6338 608.383 Q47.7819 608.8 45.8375 609.679 L45.8375 592.318 Z" fill="#000000" fill-rule="evenodd" fill-opacity="1" /><path clip-path="url(#clip150)" d="M-50.7592 310.598 Q-54.3703 310.598 -56.199 314.163 Q-58.0045 317.705 -58.0045 324.834 Q-58.0045 331.941 -56.199 335.505 Q-54.3703 339.047 -50.7592 339.047 Q-47.125 339.047 -45.3194 335.505 Q-43.4907 331.941 -43.4907 324.834 Q-43.4907 317.705 -45.3194 314.163 Q-47.125 310.598 -50.7592 310.598 M-50.7592 306.894 Q-44.9491 306.894 -41.8935 311.501 Q-38.8148 316.084 -38.8148 324.834 Q-38.8148 333.561 -41.8935 338.167 Q-44.9491 342.751 -50.7592 342.751 Q-56.5694 342.751 -59.6481 338.167 Q-62.7036 333.561 -62.7036 324.834 Q-62.7036 316.084 -59.6481 311.501 Q-56.5694 306.894 -50.7592 306.894 Z" fill="#000000" fill-rule="evenodd" fill-opacity="1" /><path clip-path="url(#clip150)" d="M-30.5973 336.2 L-25.7131 336.2 L-25.7131 342.079 L-30.5973 342.079 L-30.5973 336.2 Z" fill="#000000" fill-rule="evenodd" fill-opacity="1" /><path clip-path="url(#clip150)" d="M-14.7177 338.144 L-7.07889 338.144 L-7.07889 311.779 L-15.389 313.445 L-15.389 309.186 L-7.12519 307.519 L-2.44929 307.519 L-2.44929 338.144 L5.18956 338.144 L5.18956 342.079 L-14.7177 342.079 L-14.7177 338.144 Z" fill="#000000" fill-rule="evenodd" fill-opacity="1" /><path clip-path="url(#clip150)" d="M24.6339 310.598 Q21.0228 310.598 19.1941 314.163 Q17.3886 317.705 17.3886 324.834 Q17.3886 331.941 19.1941 335.505 Q21.0228 339.047 24.6339 339.047 Q28.2681 339.047 30.0737 335.505 Q31.9024 331.941 31.9024 324.834 Q31.9024 317.705 30.0737 314.163 Q28.2681 310.598 24.6339 310.598 M24.6339 306.894 Q30.4441 306.894 33.4996 311.501 Q36.5783 316.084 36.5783 324.834 Q36.5783 333.561 33.4996 338.167 Q30.4441 342.751 24.6339 342.751 Q18.8237 342.751 15.7451 338.167 Q12.6895 333.561 12.6895 324.834 Q12.6895 316.084 15.7451 311.501 Q18.8237 306.894 24.6339 306.894 Z" fill="#000000" fill-rule="evenodd" fill-opacity="1" /><path clip-path="url(#clip150)" d="M54.7958 310.598 Q51.1847 310.598 49.356 314.163 Q47.5504 317.705 47.5504 324.834 Q47.5504 331.941 49.356 335.505 Q51.1847 339.047 54.7958 339.047 Q58.43 339.047 60.2356 335.505 Q62.0643 331.941 62.0643 324.834 Q62.0643 317.705 60.2356 314.163 Q58.43 310.598 54.7958 310.598 M54.7958 306.894 Q60.6059 306.894 63.6615 311.501 Q66.7402 316.084 66.7402 324.834 Q66.7402 333.561 63.6615 338.167 Q60.6059 342.751 54.7958 342.751 Q48.9856 342.751 45.9069 338.167 Q42.8514 333.561 42.8514 324.834 Q42.8514 316.084 45.9069 311.501 Q48.9856 306.894 54.7958 306.894 Z" fill="#000000" fill-rule="evenodd" fill-opacity="1" /><path clip-path="url(#clip150)" d="M-155.196 822.308 L-137.34 822.308 L-137.34 814.223 Q-137.34 809.736 -139.664 807.285 Q-141.987 804.834 -146.284 804.834 Q-150.549 804.834 -152.873 807.285 Q-155.196 809.736 -155.196 814.223 L-155.196 822.308 M-160.48 828.737 L-160.48 814.223 Q-160.48 806.234 -156.851 802.16 Q-153.255 798.055 -146.284 798.055 Q-139.25 798.055 -135.653 802.16 Q-132.057 806.234 -132.057 814.223 L-132.057 822.308 L-112.96 822.308 L-112.96 828.737 L-160.48 828.737 Z" fill="#000000" fill-rule="evenodd" fill-opacity="1" /><path clip-path="url(#clip150)" d="M-162.421 775.615 Q-155.101 779.88 -147.939 781.949 Q-140.778 784.018 -133.425 784.018 Q-126.073 784.018 -118.848 781.949 Q-111.655 779.849 -104.366 775.615 L-104.366 780.708 Q-111.846 785.482 -119.071 787.869 Q-126.296 790.225 -133.425 790.225 Q-140.523 790.225 -147.716 787.869 Q-154.91 785.514 -162.421 780.708 L-162.421 775.615 Z" fill="#000000" fill-rule="evenodd" fill-opacity="1" /><path clip-path="url(#clip150)" d="M-143.133 743.596 Q-143.706 744.583 -143.961 745.76 Q-144.247 746.906 -144.247 748.307 Q-144.247 753.272 -141.001 755.945 Q-137.786 758.587 -131.738 758.587 L-112.96 758.587 L-112.96 764.475 L-148.608 764.475 L-148.608 758.587 L-143.069 758.587 Q-146.316 756.741 -147.875 753.781 Q-149.467 750.821 -149.467 746.588 Q-149.467 745.983 -149.371 745.251 Q-149.308 744.519 -149.149 743.628 L-143.133 743.596 Z" fill="#000000" fill-rule="evenodd" fill-opacity="1" /><path clip-path="url(#clip150)" d="M-162.421 738.376 L-162.421 733.283 Q-154.91 728.509 -147.716 726.154 Q-140.523 723.767 -133.425 723.767 Q-126.296 723.767 -119.071 726.154 Q-111.846 728.509 -104.366 733.283 L-104.366 738.376 Q-111.655 734.143 -118.848 732.074 Q-126.073 729.973 -133.425 729.973 Q-140.778 729.973 -147.939 732.074 Q-155.101 734.143 -162.421 738.376 Z" fill="#000000" fill-rule="evenodd" fill-opacity="1" /><path clip-path="url(#clip152)" d="
M226.495 1463.88 L226.495 1464 L295.547 1464 L295.547 1463.88 L226.495 1463.88 L226.495 1463.88  Z
  " fill="#009af9" fill-rule="evenodd" fill-opacity="1"/>
<polyline clip-path="url(#clip152)" style="stroke:#009af9; stroke-linecap:butt; stroke-linejoin:round; stroke-width:4; stroke-opacity:1; fill:none" points="
  226.495,1463.88 226.495,1464 295.547,1464 295.547,1463.88 226.495,1463.88 
  "/>
<path clip-path="url(#clip152)" d="
M295.547 1461.94 L295.547 1464 L364.599 1464 L364.599 1461.94 L295.547 1461.94 L295.547 1461.94  Z
  " fill="#009af9" fill-rule="evenodd" fill-opacity="1"/>
<polyline clip-path="url(#clip152)" style="stroke:#009af9; stroke-linecap:butt; stroke-linejoin:round; stroke-width:4; stroke-opacity:1; fill:none" points="
  295.547,1461.94 295.547,1464 364.599,1464 364.599,1461.94 295.547,1461.94 
  "/>
<path clip-path="url(#clip152)" d="
M364.599 1453.62 L364.599 1464 L433.651 1464 L433.651 1453.62 L364.599 1453.62 L364.599 1453.62  Z
  " fill="#009af9" fill-rule="evenodd" fill-opacity="1"/>
<polyline clip-path="url(#clip152)" style="stroke:#009af9; stroke-linecap:butt; stroke-linejoin:round; stroke-width:4; stroke-opacity:1; fill:none" points="
  364.599,1453.62 364.599,1464 433.651,1464 433.651,1453.62 364.599,1453.62 
  "/>
<path clip-path="url(#clip152)" d="
M433.651 1418.95 L433.651 1464 L502.703 1464 L502.703 1418.95 L433.651 1418.95 L433.651 1418.95  Z
  " fill="#009af9" fill-rule="evenodd" fill-opacity="1"/>
<polyline clip-path="url(#clip152)" style="stroke:#009af9; stroke-linecap:butt; stroke-linejoin:round; stroke-width:4; stroke-opacity:1; fill:none" points="
  433.651,1418.95 433.651,1464 502.703,1464 502.703,1418.95 433.651,1418.95 
  "/>
<path clip-path="url(#clip152)" d="
M502.703 1340.84 L502.703 1464 L571.755 1464 L571.755 1340.84 L502.703 1340.84 L502.703 1340.84  Z
  " fill="#009af9" fill-rule="evenodd" fill-opacity="1"/>
<polyline clip-path="url(#clip152)" style="stroke:#009af9; stroke-linecap:butt; stroke-linejoin:round; stroke-width:4; stroke-opacity:1; fill:none" points="
  502.703,1340.84 502.703,1464 571.755,1464 571.755,1340.84 502.703,1340.84 
  "/>
<path clip-path="url(#clip152)" d="
M571.755 1201.72 L571.755 1464 L640.807 1464 L640.807 1201.72 L571.755 1201.72 L571.755 1201.72  Z
  " fill="#009af9" fill-rule="evenodd" fill-opacity="1"/>
<polyline clip-path="url(#clip152)" style="stroke:#009af9; stroke-linecap:butt; stroke-linejoin:round; stroke-width:4; stroke-opacity:1; fill:none" points="
  571.755,1201.72 571.755,1464 640.807,1464 640.807,1201.72 571.755,1201.72 
  "/>
<path clip-path="url(#clip152)" d="
M640.807 986.76 L640.807 1464 L709.859 1464 L709.859 986.76 L640.807 986.76 L640.807 986.76  Z
  " fill="#009af9" fill-rule="evenodd" fill-opacity="1"/>
<polyline clip-path="url(#clip152)" style="stroke:#009af9; stroke-linecap:butt; stroke-linejoin:round; stroke-width:4; stroke-opacity:1; fill:none" points="
  640.807,986.76 640.807,1464 709.859,1464 709.859,986.76 640.807,986.76 
  "/>
<path clip-path="url(#clip152)" d="
M709.859 733.147 L709.859 1464 L778.91 1464 L778.91 733.147 L709.859 733.147 L709.859 733.147  Z
  " fill="#009af9" fill-rule="evenodd" fill-opacity="1"/>
<polyline clip-path="url(#clip152)" style="stroke:#009af9; stroke-linecap:butt; stroke-linejoin:round; stroke-width:4; stroke-opacity:1; fill:none" points="
  709.859,733.147 709.859,1464 778.91,1464 778.91,733.147 709.859,733.147 
  "/>
<path clip-path="url(#clip152)" d="
M778.91 470.753 L778.91 1464 L847.962 1464 L847.962 470.753 L778.91 470.753 L778.91 470.753  Z
  " fill="#009af9" fill-rule="evenodd" fill-opacity="1"/>
<polyline clip-path="url(#clip152)" style="stroke:#009af9; stroke-linecap:butt; stroke-linejoin:round; stroke-width:4; stroke-opacity:1; fill:none" points="
  778.91,470.753 778.91,1464 847.962,1464 847.962,470.753 778.91,470.753 
  "/>
<path clip-path="url(#clip152)" d="
M847.962 241.543 L847.962 1464 L917.014 1464 L917.014 241.543 L847.962 241.543 L847.962 241.543  Z
  " fill="#009af9" fill-rule="evenodd" fill-opacity="1"/>
<polyline clip-path="url(#clip152)" style="stroke:#009af9; stroke-linecap:butt; stroke-linejoin:round; stroke-width:4; stroke-opacity:1; fill:none" points="
  847.962,241.543 847.962,1464 917.014,1464 917.014,241.543 847.962,241.543 
  "/>
<path clip-path="url(#clip152)" d="
M917.014 95.5782 L917.014 1464 L986.066 1464 L986.066 95.5782 L917.014 95.5782 L917.014 95.5782  Z
  " fill="#009af9" fill-rule="evenodd" fill-opacity="1"/>
<polyline clip-path="url(#clip152)" style="stroke:#009af9; stroke-linecap:butt; stroke-linejoin:round; stroke-width:4; stroke-opacity:1; fill:none" points="
  917.014,95.5782 917.014,1464 986.066,1464 986.066,95.5782 917.014,95.5782 
  "/>
<path clip-path="url(#clip152)" d="
M986.066 129.675 L986.066 1464 L1055.12 1464 L1055.12 129.675 L986.066 129.675 L986.066 129.675  Z
  " fill="#009af9" fill-rule="evenodd" fill-opacity="1"/>
<polyline clip-path="url(#clip152)" style="stroke:#009af9; stroke-linecap:butt; stroke-linejoin:round; stroke-width:4; stroke-opacity:1; fill:none" points="
  986.066,129.675 986.066,1464 1055.12,1464 1055.12,129.675 986.066,129.675 
  "/>
<path clip-path="url(#clip152)" d="
M1055.12 209.841 L1055.12 1464 L1124.17 1464 L1124.17 209.841 L1055.12 209.841 L1055.12 209.841  Z
  " fill="#009af9" fill-rule="evenodd" fill-opacity="1"/>
<polyline clip-path="url(#clip152)" style="stroke:#009af9; stroke-linecap:butt; stroke-linejoin:round; stroke-width:4; stroke-opacity:1; fill:none" points="
  1055.12,209.841 1055.12,1464 1124.17,1464 1124.17,209.841 1055.12,209.841 
  "/>
<path clip-path="url(#clip152)" d="
M1124.17 400.507 L1124.17 1464 L1193.22 1464 L1193.22 400.507 L1124.17 400.507 L1124.17 400.507  Z
  " fill="#009af9" fill-rule="evenodd" fill-opacity="1"/>
<polyline clip-path="url(#clip152)" style="stroke:#009af9; stroke-linecap:butt; stroke-linejoin:round; stroke-width:4; stroke-opacity:1; fill:none" points="
  1124.17,400.507 1124.17,1464 1193.22,1464 1193.22,400.507 1124.17,400.507 
  "/>
<path clip-path="url(#clip152)" d="
M1193.22 633.48 L1193.22 1464 L1262.27 1464 L1262.27 633.48 L1193.22 633.48 L1193.22 633.48  Z
  " fill="#009af9" fill-rule="evenodd" fill-opacity="1"/>
<polyline clip-path="url(#clip152)" style="stroke:#009af9; stroke-linecap:butt; stroke-linejoin:round; stroke-width:4; stroke-opacity:1; fill:none" points="
  1193.22,633.48 1193.22,1464 1262.27,1464 1262.27,633.48 1193.22,633.48 
  "/>
<path clip-path="url(#clip152)" d="
M1262.27 850.146 L1262.27 1464 L1331.33 1464 L1331.33 850.146 L1262.27 850.146 L1262.27 850.146  Z
  " fill="#009af9" fill-rule="evenodd" fill-opacity="1"/>
<polyline clip-path="url(#clip152)" style="stroke:#009af9; stroke-linecap:butt; stroke-linejoin:round; stroke-width:4; stroke-opacity:1; fill:none" points="
  1262.27,850.146 1262.27,1464 1331.33,1464 1331.33,850.146 1262.27,850.146 
  "/>
<path clip-path="url(#clip152)" d="
M1331.33 1038.65 L1331.33 1464 L1400.38 1464 L1400.38 1038.65 L1331.33 1038.65 L1331.33 1038.65  Z
  " fill="#009af9" fill-rule="evenodd" fill-opacity="1"/>
<polyline clip-path="url(#clip152)" style="stroke:#009af9; stroke-linecap:butt; stroke-linejoin:round; stroke-width:4; stroke-opacity:1; fill:none" points="
  1331.33,1038.65 1331.33,1464 1400.38,1464 1400.38,1038.65 1331.33,1038.65 
  "/>
<path clip-path="url(#clip152)" d="
M1400.38 1188.94 L1400.38 1464 L1469.43 1464 L1469.43 1188.94 L1400.38 1188.94 L1400.38 1188.94  Z
  " fill="#009af9" fill-rule="evenodd" fill-opacity="1"/>
<polyline clip-path="url(#clip152)" style="stroke:#009af9; stroke-linecap:butt; stroke-linejoin:round; stroke-width:4; stroke-opacity:1; fill:none" points="
  1400.38,1188.94 1400.38,1464 1469.43,1464 1469.43,1188.94 1400.38,1188.94 
  "/>
<path clip-path="url(#clip152)" d="
M1469.43 1303.78 L1469.43 1464 L1538.48 1464 L1538.48 1303.78 L1469.43 1303.78 L1469.43 1303.78  Z
  " fill="#009af9" fill-rule="evenodd" fill-opacity="1"/>
<polyline clip-path="url(#clip152)" style="stroke:#009af9; stroke-linecap:butt; stroke-linejoin:round; stroke-width:4; stroke-opacity:1; fill:none" points="
  1469.43,1303.78 1469.43,1464 1538.48,1464 1538.48,1303.78 1469.43,1303.78 
  "/>
<path clip-path="url(#clip152)" d="
M1538.48 1372.08 L1538.48 1464 L1607.53 1464 L1607.53 1372.08 L1538.48 1372.08 L1538.48 1372.08  Z
  " fill="#009af9" fill-rule="evenodd" fill-opacity="1"/>
<polyline clip-path="url(#clip152)" style="stroke:#009af9; stroke-linecap:butt; stroke-linejoin:round; stroke-width:4; stroke-opacity:1; fill:none" points="
  1538.48,1372.08 1538.48,1464 1607.53,1464 1607.53,1372.08 1538.48,1372.08 
  "/>
<path clip-path="url(#clip152)" d="
M1607.53 1410.17 L1607.53 1464 L1676.59 1464 L1676.59 1410.17 L1607.53 1410.17 L1607.53 1410.17  Z
  " fill="#009af9" fill-rule="evenodd" fill-opacity="1"/>
<polyline clip-path="url(#clip152)" style="stroke:#009af9; stroke-linecap:butt; stroke-linejoin:round; stroke-width:4; stroke-opacity:1; fill:none" points="
  1607.53,1410.17 1607.53,1464 1676.59,1464 1676.59,1410.17 1607.53,1410.17 
  "/>
<path clip-path="url(#clip152)" d="
M1676.59 1435.03 L1676.59 1464 L1745.64 1464 L1745.64 1435.03 L1676.59 1435.03 L1676.59 1435.03  Z
  " fill="#009af9" fill-rule="evenodd" fill-opacity="1"/>
<polyline clip-path="url(#clip152)" style="stroke:#009af9; stroke-linecap:butt; stroke-linejoin:round; stroke-width:4; stroke-opacity:1; fill:none" points="
  1676.59,1435.03 1676.59,1464 1745.64,1464 1745.64,1435.03 1676.59,1435.03 
  "/>
<path clip-path="url(#clip152)" d="
M1745.64 1451.45 L1745.64 1464 L1814.69 1464 L1814.69 1451.45 L1745.64 1451.45 L1745.64 1451.45  Z
  " fill="#009af9" fill-rule="evenodd" fill-opacity="1"/>
<polyline clip-path="url(#clip152)" style="stroke:#009af9; stroke-linecap:butt; stroke-linejoin:round; stroke-width:4; stroke-opacity:1; fill:none" points="
  1745.64,1451.45 1745.64,1464 1814.69,1464 1814.69,1451.45 1745.64,1451.45 
  "/>
<path clip-path="url(#clip152)" d="
M1814.69 1456.24 L1814.69 1464 L1883.74 1464 L1883.74 1456.24 L1814.69 1456.24 L1814.69 1456.24  Z
  " fill="#009af9" fill-rule="evenodd" fill-opacity="1"/>
<polyline clip-path="url(#clip152)" style="stroke:#009af9; stroke-linecap:butt; stroke-linejoin:round; stroke-width:4; stroke-opacity:1; fill:none" points="
  1814.69,1456.24 1814.69,1464 1883.74,1464 1883.74,1456.24 1814.69,1456.24 
  "/>
<path clip-path="url(#clip152)" d="
M1883.74 1460.92 L1883.74 1464 L1952.79 1464 L1952.79 1460.92 L1883.74 1460.92 L1883.74 1460.92  Z
  " fill="#009af9" fill-rule="evenodd" fill-opacity="1"/>
<polyline clip-path="url(#clip152)" style="stroke:#009af9; stroke-linecap:butt; stroke-linejoin:round; stroke-width:4; stroke-opacity:1; fill:none" points="
  1883.74,1460.92 1883.74,1464 1952.79,1464 1952.79,1460.92 1883.74,1460.92 
  "/>
<path clip-path="url(#clip152)" d="
M1952.79 1463.31 L1952.79 1464 L2021.85 1464 L2021.85 1463.31 L1952.79 1463.31 L1952.79 1463.31  Z
  " fill="#009af9" fill-rule="evenodd" fill-opacity="1"/>
<polyline clip-path="url(#clip152)" style="stroke:#009af9; stroke-linecap:butt; stroke-linejoin:round; stroke-width:4; stroke-opacity:1; fill:none" points="
  1952.79,1463.31 1952.79,1464 2021.85,1464 2021.85,1463.31 1952.79,1463.31 
  "/>
<path clip-path="url(#clip152)" d="
M2021.85 1463.65 L2021.85 1464 L2090.9 1464 L2090.9 1463.65 L2021.85 1463.65 L2021.85 1463.65  Z
  " fill="#009af9" fill-rule="evenodd" fill-opacity="1"/>
<polyline clip-path="url(#clip152)" style="stroke:#009af9; stroke-linecap:butt; stroke-linejoin:round; stroke-width:4; stroke-opacity:1; fill:none" points="
  2021.85,1463.65 2021.85,1464 2090.9,1464 2090.9,1463.65 2021.85,1463.65 
  "/>
<path clip-path="url(#clip152)" d="
M2090.9 1463.43 L2090.9 1464 L2159.95 1464 L2159.95 1463.43 L2090.9 1463.43 L2090.9 1463.43  Z
  " fill="#009af9" fill-rule="evenodd" fill-opacity="1"/>
<polyline clip-path="url(#clip152)" style="stroke:#009af9; stroke-linecap:butt; stroke-linejoin:round; stroke-width:4; stroke-opacity:1; fill:none" points="
  2090.9,1463.43 2090.9,1464 2159.95,1464 2159.95,1463.43 2090.9,1463.43 
  "/>
<path clip-path="url(#clip152)" d="
M2159.95 1463.88 L2159.95 1464 L2229 1464 L2229 1463.88 L2159.95 1463.88 L2159.95 1463.88  Z
  " fill="#009af9" fill-rule="evenodd" fill-opacity="1"/>
<polyline clip-path="url(#clip152)" style="stroke:#009af9; stroke-linecap:butt; stroke-linejoin:round; stroke-width:4; stroke-opacity:1; fill:none" points="
  2159.95,1463.88 2159.95,1464 2229,1464 2229,1463.88 2159.95,1463.88 
  "/>
<polyline clip-path="url(#clip152)" style="stroke:#e26f46; stroke-linecap:butt; stroke-linejoin:round; stroke-width:12; stroke-opacity:1; fill:none" points="
  226.495,1458.4 233.4,1457.81 240.305,1457.17 247.211,1456.47 254.116,1455.7 261.021,1454.87 267.926,1453.96 274.831,1452.97 281.737,1451.89 288.642,1450.72 
  295.547,1449.45 302.452,1448.07 309.357,1446.58 316.263,1444.97 323.168,1443.22 330.073,1441.34 336.978,1439.3 343.883,1437.11 350.789,1434.76 357.694,1432.22 
  364.599,1429.5 371.504,1426.57 378.409,1423.44 385.314,1420.08 392.22,1416.48 399.125,1412.64 406.03,1408.54 412.935,1404.17 419.84,1399.51 426.746,1394.55 
  433.651,1389.28 440.556,1383.68 447.461,1377.74 454.366,1371.44 461.272,1364.78 468.177,1357.73 475.082,1350.28 481.987,1342.42 488.892,1334.14 495.798,1325.42 
  502.703,1316.25 509.608,1306.61 516.513,1296.5 523.418,1285.9 530.324,1274.8 537.229,1263.19 544.134,1251.07 551.039,1238.41 557.944,1225.22 564.849,1211.49 
  571.755,1197.22 578.66,1182.39 585.565,1167.01 592.47,1151.07 599.375,1134.58 606.281,1117.53 613.186,1099.93 620.091,1081.79 626.996,1063.11 633.901,1043.89 
  640.807,1024.15 647.712,1003.91 654.617,983.17 661.522,961.952 668.427,940.275 675.333,918.157 682.238,895.623 689.143,872.696 696.048,849.403 702.953,825.773 
  709.859,801.837 716.764,777.628 723.669,753.18 730.574,728.529 737.479,703.716 744.385,678.779 751.29,653.762 758.195,628.707 765.1,603.66 772.005,578.667 
  778.91,553.776 785.816,529.035 792.721,504.494 799.626,480.205 806.531,456.216 813.436,432.581 820.342,409.351 827.247,386.578 834.152,364.313 841.057,342.608 
  847.962,321.513 854.868,301.079 861.773,281.356 868.678,262.391 875.583,244.231 882.488,226.921 889.394,210.507 896.299,195.028 903.204,180.526 910.109,167.037 
  917.014,154.598 923.92,143.241 930.825,132.995 937.73,123.889 944.635,115.947 951.54,109.19 958.445,103.636 965.351,99.3008 972.256,96.1957 979.161,94.3292 
  986.066,93.7065 992.971,94.3292 999.877,96.1957 1006.78,99.3008 1013.69,103.636 1020.59,109.19 1027.5,115.947 1034.4,123.889 1041.31,132.995 1048.21,143.241 
  1055.12,154.598 1062.02,167.037 1068.93,180.526 1075.83,195.028 1082.74,210.507 1089.64,226.921 1096.55,244.231 1103.45,262.391 1110.36,281.356 1117.26,301.079 
  1124.17,321.513 1131.08,342.608 1137.98,364.313 1144.89,386.578 1151.79,409.351 1158.7,432.581 1165.6,456.216 1172.51,480.205 1179.41,504.494 1186.32,529.035 
  1193.22,553.776 1200.13,578.667 1207.03,603.66 1213.94,628.707 1220.84,653.762 1227.75,678.779 1234.65,703.716 1241.56,728.529 1248.46,753.18 1255.37,777.628 
  1262.27,801.837 1269.18,825.773 1276.08,849.403 1282.99,872.696 1289.89,895.623 1296.8,918.157 1303.71,940.275 1310.61,961.952 1317.52,983.17 1324.42,1003.91 
  1331.33,1024.15 1338.23,1043.89 1345.14,1063.11 1352.04,1081.79 1358.95,1099.93 1365.85,1117.53 1372.76,1134.58 1379.66,1151.07 1386.57,1167.01 1393.47,1182.39 
  1400.38,1197.22 1407.28,1211.49 1414.19,1225.22 1421.09,1238.41 1428,1251.07 1434.9,1263.19 1441.81,1274.8 1448.71,1285.9 1455.62,1296.5 1462.52,1306.61 
  1469.43,1316.25 1476.33,1325.42 1483.24,1334.14 1490.15,1342.42 1497.05,1350.28 1503.96,1357.73 1510.86,1364.78 1517.77,1371.44 1524.67,1377.74 1531.58,1383.68 
  1538.48,1389.28 1545.39,1394.55 1552.29,1399.51 1559.2,1404.17 1566.1,1408.54 1573.01,1412.64 1579.91,1416.48 1586.82,1420.08 1593.72,1423.44 1600.63,1426.57 
  1607.53,1429.5 1614.44,1432.22 1621.34,1434.76 1628.25,1437.11 1635.15,1439.3 1642.06,1441.34 1648.96,1443.22 1655.87,1444.97 1662.78,1446.58 1669.68,1448.07 
  1676.59,1449.45 1683.49,1450.72 1690.4,1451.89 1697.3,1452.97 1704.21,1453.96 1711.11,1454.87 1718.02,1455.7 1724.92,1456.47 1731.83,1457.17 1738.73,1457.81 
  1745.64,1458.4 1752.54,1458.93 1759.45,1459.42 1766.35,1459.86 1773.26,1460.27 1780.16,1460.64 1787.07,1460.97 1793.97,1461.28 1800.88,1461.55 1807.78,1461.8 
  1814.69,1462.03 1821.59,1462.23 1828.5,1462.42 1835.41,1462.58 1842.31,1462.73 1849.22,1462.87 1856.12,1462.99 1863.03,1463.1 1869.93,1463.2 1876.84,1463.28 
  1883.74,1463.36 1890.65,1463.43 1897.55,1463.5 1904.46,1463.55 1911.36,1463.6 1918.27,1463.65 1925.17,1463.69 1932.08,1463.73 1938.98,1463.76 1945.89,1463.79 
  1952.79,1463.81 1959.7,1463.83 1966.6,1463.85 1973.51,1463.87 1980.41,1463.88 1987.32,1463.9 1994.22,1463.91 2001.13,1463.92 2008.03,1463.93 2014.94,1463.94 
  2021.85,1463.95 2028.75,1463.95 2035.66,1463.96 2042.56,1463.96 2049.47,1463.97 2056.37,1463.97 2063.28,1463.97 2070.18,1463.98 2077.09,1463.98 2083.99,1463.98 
  2090.9,1463.98 2097.8,1463.98 2104.71,1463.99 2111.61,1463.99 2118.52,1463.99 2125.42,1463.99 2132.33,1463.99 2139.23,1463.99 2146.14,1463.99 2153.04,1463.99 
  2159.95,1463.99 
  "/>
<polyline clip-path="url(#clip152)" style="stroke:#3da44d; stroke-linecap:butt; stroke-linejoin:round; stroke-width:12; stroke-opacity:1; fill:none" points="
  226.495,1463.8 233.4,1463.74 240.305,1463.66 247.211,1463.56 254.116,1463.44 261.021,1463.28 267.926,1463.1 274.831,1462.87 281.737,1462.6 288.642,1462.28 
  295.547,1461.9 302.452,1461.45 309.357,1460.93 316.263,1460.31 323.168,1459.6 330.073,1458.77 336.978,1457.82 343.883,1456.74 350.789,1455.49 357.694,1454.08 
  364.599,1452.48 371.504,1450.68 378.409,1448.65 385.314,1446.38 392.22,1443.84 399.125,1441.02 406.03,1437.89 412.935,1434.42 419.84,1430.6 426.746,1426.4 
  433.651,1421.79 440.556,1416.75 447.461,1411.26 454.366,1405.28 461.272,1398.8 468.177,1391.79 475.082,1384.22 481.987,1376.07 488.892,1367.32 495.798,1357.95 
  502.703,1347.93 509.608,1337.24 516.513,1325.87 523.418,1313.79 530.324,1301 537.229,1287.49 544.134,1273.23 551.039,1258.22 557.944,1242.45 564.849,1225.93 
  571.755,1208.64 578.66,1190.6 585.565,1171.8 592.47,1152.26 599.375,1131.98 606.281,1110.98 613.186,1089.27 620.091,1066.88 626.996,1043.83 633.901,1020.14 
  640.807,995.848 647.712,970.985 654.617,945.586 661.522,919.69 668.427,893.339 675.333,866.577 682.238,839.451 689.143,812.011 696.048,784.309 702.953,756.398 
  709.859,728.335 716.764,700.176 723.669,671.981 730.574,643.809 737.479,615.722 744.385,587.781 751.29,560.05 758.195,532.59 765.1,505.464 772.005,478.734 
  778.91,452.462 785.816,426.71 792.721,401.537 799.626,377.001 806.531,353.161 813.436,330.071 820.342,307.786 827.247,286.356 834.152,265.831 841.057,246.256 
  847.962,227.677 854.868,210.134 861.773,193.664 868.678,178.304 875.583,164.083 882.488,151.031 889.394,139.172 896.299,128.528 903.204,119.117 910.109,110.952 
  917.014,104.045 923.92,98.4037 930.825,94.0306 937.73,90.9264 944.635,89.088 951.54,88.5087 958.445,89.1787 965.351,91.085 972.256,94.2115 979.161,98.5389 
  986.066,104.045 992.971,110.706 999.877,118.494 1006.78,127.38 1013.69,137.33 1020.59,148.312 1027.5,160.29 1034.4,173.225 1041.31,187.078 1048.21,201.809 
  1055.12,217.375 1062.02,233.733 1068.93,250.839 1075.83,268.648 1082.74,287.115 1089.64,306.194 1096.55,325.84 1103.45,346.005 1110.36,366.645 1117.26,387.712 
  1124.17,409.162 1131.08,430.95 1137.98,453.031 1144.89,475.362 1151.79,497.9 1158.7,520.602 1165.6,543.428 1172.51,566.339 1179.41,589.295 1186.32,612.26 
  1193.22,635.198 1200.13,658.074 1207.03,680.854 1213.94,703.508 1220.84,726.006 1227.75,748.318 1234.65,770.417 1241.56,792.28 1248.46,813.881 1255.37,835.198 
  1262.27,856.211 1269.18,876.9 1276.08,897.248 1282.99,917.24 1289.89,936.86 1296.8,956.095 1303.71,974.934 1310.61,993.367 1317.52,1011.38 1324.42,1028.98 
  1331.33,1046.14 1338.23,1062.87 1345.14,1079.17 1352.04,1095.02 1358.95,1110.43 1365.85,1125.4 1372.76,1139.92 1379.66,1154 1386.57,1167.64 1393.47,1180.85 
  1400.38,1193.62 1407.28,1205.96 1414.19,1217.88 1421.09,1229.39 1428,1240.48 1434.9,1251.16 1441.81,1261.45 1448.71,1271.34 1455.62,1280.86 1462.52,1289.99 
  1469.43,1298.77 1476.33,1307.18 1483.24,1315.25 1490.15,1322.97 1497.05,1330.37 1503.96,1337.45 1510.86,1344.21 1517.77,1350.67 1524.67,1356.84 1531.58,1362.72 
  1538.48,1368.34 1545.39,1373.68 1552.29,1378.77 1559.2,1383.62 1566.1,1388.23 1573.01,1392.61 1579.91,1396.77 1586.82,1400.72 1593.72,1404.46 1600.63,1408.02 
  1607.53,1411.38 1614.44,1414.57 1621.34,1417.59 1628.25,1420.44 1635.15,1423.14 1642.06,1425.69 1648.96,1428.1 1655.87,1430.37 1662.78,1432.51 1669.68,1434.53 
  1676.59,1436.44 1683.49,1438.23 1690.4,1439.92 1697.3,1441.5 1704.21,1443 1711.11,1444.4 1718.02,1445.71 1724.92,1446.95 1731.83,1448.11 1738.73,1449.2 
  1745.64,1450.22 1752.54,1451.17 1759.45,1452.06 1766.35,1452.9 1773.26,1453.68 1780.16,1454.41 1787.07,1455.1 1793.97,1455.74 1800.88,1456.33 1807.78,1456.89 
  1814.69,1457.41 1821.59,1457.89 1828.5,1458.34 1835.41,1458.76 1842.31,1459.15 1849.22,1459.51 1856.12,1459.85 1863.03,1460.16 1869.93,1460.45 1876.84,1460.72 
  1883.74,1460.97 1890.65,1461.21 1897.55,1461.42 1904.46,1461.62 1911.36,1461.81 1918.27,1461.98 1925.17,1462.14 1932.08,1462.29 1938.98,1462.42 1945.89,1462.55 
  1952.79,1462.67 1959.7,1462.77 1966.6,1462.87 1973.51,1462.96 1980.41,1463.05 1987.32,1463.13 1994.22,1463.2 2001.13,1463.26 2008.03,1463.33 2014.94,1463.38 
  2021.85,1463.43 2028.75,1463.48 2035.66,1463.52 2042.56,1463.56 2049.47,1463.6 2056.37,1463.63 2063.28,1463.67 2070.18,1463.69 2077.09,1463.72 2083.99,1463.74 
  2090.9,1463.77 2097.8,1463.79 2104.71,1463.8 2111.61,1463.82 2118.52,1463.84 2125.42,1463.85 2132.33,1463.86 2139.23,1463.88 2146.14,1463.89 2153.04,1463.9 
  2159.95,1463.91 
  "/>
<path clip-path="url(#clip150)" d="
M1757.13 337.765 L2277.76 337.765 L2277.76 95.8446 L1757.13 95.8446  Z
  " fill="#ffffff" fill-rule="evenodd" fill-opacity="1"/>
<polyline clip-path="url(#clip150)" style="stroke:#000000; stroke-linecap:butt; stroke-linejoin:round; stroke-width:4; stroke-opacity:1; fill:none" points="
  1757.13,337.765 2277.76,337.765 2277.76,95.8446 1757.13,95.8446 1757.13,337.765 
  "/>
<path clip-path="url(#clip150)" d="
M1782.13 180.517 L1932.13 180.517 L1932.13 132.133 L1782.13 132.133 L1782.13 180.517  Z
  " fill="#009af9" fill-rule="evenodd" fill-opacity="1"/>
<polyline clip-path="url(#clip150)" style="stroke:#009af9; stroke-linecap:butt; stroke-linejoin:round; stroke-width:4; stroke-opacity:1; fill:none" points="
  1782.13,180.517 1932.13,180.517 1932.13,132.133 1782.13,132.133 1782.13,180.517 
  "/>
<path clip-path="url(#clip150)" d="M1979.38 140.179 L1979.38 144.739 Q1976.71 143.466 1974.35 142.841 Q1971.99 142.216 1969.79 142.216 Q1965.97 142.216 1963.89 143.697 Q1961.83 145.179 1961.83 147.91 Q1961.83 150.202 1963.2 151.383 Q1964.59 152.54 1968.43 153.258 L1971.25 153.836 Q1976.48 154.832 1978.96 157.355 Q1981.46 159.855 1981.46 164.068 Q1981.46 169.091 1978.08 171.683 Q1974.72 174.276 1968.22 174.276 Q1965.77 174.276 1962.99 173.72 Q1960.23 173.165 1957.27 172.077 L1957.27 167.262 Q1960.12 168.859 1962.85 169.669 Q1965.58 170.48 1968.22 170.48 Q1972.22 170.48 1974.4 168.906 Q1976.58 167.332 1976.58 164.415 Q1976.58 161.869 1975 160.433 Q1973.45 158.998 1969.89 158.281 L1967.04 157.725 Q1961.81 156.683 1959.47 154.461 Q1957.13 152.239 1957.13 148.281 Q1957.13 143.697 1960.35 141.058 Q1963.59 138.42 1969.26 138.42 Q1971.69 138.42 1974.21 138.859 Q1976.74 139.299 1979.38 140.179 Z" fill="#000000" fill-rule="evenodd" fill-opacity="1" /><path clip-path="url(#clip150)" d="M2009.47 140.179 L2009.47 144.739 Q2006.81 143.466 2004.45 142.841 Q2002.08 142.216 1999.89 142.216 Q1996.07 142.216 1993.98 143.697 Q1991.92 145.179 1991.92 147.91 Q1991.92 150.202 1993.29 151.383 Q1994.68 152.54 1998.52 153.258 L2001.34 153.836 Q2006.58 154.832 2009.05 157.355 Q2011.55 159.855 2011.55 164.068 Q2011.55 169.091 2008.17 171.683 Q2004.82 174.276 1998.31 174.276 Q1995.86 174.276 1993.08 173.72 Q1990.33 173.165 1987.36 172.077 L1987.36 167.262 Q1990.21 168.859 1992.94 169.669 Q1995.67 170.48 1998.31 170.48 Q2002.32 170.48 2004.49 168.906 Q2006.67 167.332 2006.67 164.415 Q2006.67 161.869 2005.09 160.433 Q2003.54 158.998 1999.98 158.281 L1997.13 157.725 Q1991.9 156.683 1989.56 154.461 Q1987.22 152.239 1987.22 148.281 Q1987.22 143.697 1990.44 141.058 Q1993.68 138.42 1999.35 138.42 Q2001.78 138.42 2004.31 138.859 Q2006.83 139.299 2009.47 140.179 Z" fill="#000000" fill-rule="evenodd" fill-opacity="1" /><path clip-path="url(#clip150)" d="M2031.27 143.651 L2024.93 160.85 L2037.64 160.85 L2031.27 143.651 M2028.64 139.045 L2033.94 139.045 L2047.11 173.605 L2042.25 173.605 L2039.1 164.739 L2023.52 164.739 L2020.37 173.605 L2015.44 173.605 L2028.64 139.045 Z" fill="#000000" fill-rule="evenodd" fill-opacity="1" /><polyline clip-path="url(#clip150)" style="stroke:#e26f46; stroke-linecap:butt; stroke-linejoin:round; stroke-width:4; stroke-opacity:1; fill:none" points="
  1782.13,216.805 1932.13,216.805 
  "/>
<path clip-path="url(#clip150)" d="M1976.04 220.821 Q1976.04 216.191 1974.12 213.645 Q1972.22 211.099 1968.77 211.099 Q1965.35 211.099 1963.43 213.645 Q1961.53 216.191 1961.53 220.821 Q1961.53 225.427 1963.43 227.974 Q1965.35 230.52 1968.77 230.52 Q1972.22 230.52 1974.12 227.974 Q1976.04 225.427 1976.04 220.821 M1980.3 230.867 Q1980.3 237.487 1977.36 240.705 Q1974.42 243.946 1968.36 243.946 Q1966.11 243.946 1964.12 243.598 Q1962.13 243.274 1960.26 242.58 L1960.26 238.436 Q1962.13 239.455 1963.96 239.941 Q1965.79 240.427 1967.69 240.427 Q1971.88 240.427 1973.96 238.228 Q1976.04 236.052 1976.04 231.631 L1976.04 229.524 Q1974.72 231.816 1972.66 232.95 Q1970.6 234.085 1967.73 234.085 Q1962.96 234.085 1960.05 230.45 Q1957.13 226.816 1957.13 220.821 Q1957.13 214.802 1960.05 211.168 Q1962.96 207.534 1967.73 207.534 Q1970.6 207.534 1972.66 208.668 Q1974.72 209.802 1976.04 212.094 L1976.04 208.159 L1980.3 208.159 L1980.3 230.867 Z" fill="#000000" fill-rule="evenodd" fill-opacity="1" /><path clip-path="url(#clip150)" d="M2000.86 221.052 Q1995.7 221.052 1993.71 222.233 Q1991.71 223.413 1991.71 226.261 Q1991.71 228.529 1993.2 229.872 Q1994.7 231.191 1997.27 231.191 Q2000.81 231.191 2002.94 228.691 Q2005.09 226.168 2005.09 222.001 L2005.09 221.052 L2000.86 221.052 M2009.35 219.293 L2009.35 234.085 L2005.09 234.085 L2005.09 230.149 Q2003.64 232.511 2001.46 233.645 Q1999.28 234.756 1996.14 234.756 Q1992.15 234.756 1989.79 232.534 Q1987.46 230.288 1987.46 226.538 Q1987.46 222.163 1990.37 219.941 Q1993.31 217.719 1999.12 217.719 L2005.09 217.719 L2005.09 217.302 Q2005.09 214.363 2003.15 212.765 Q2001.23 211.145 1997.73 211.145 Q1995.51 211.145 1993.4 211.677 Q1991.3 212.21 1989.35 213.275 L1989.35 209.339 Q1991.69 208.437 1993.89 207.997 Q1996.09 207.534 1998.17 207.534 Q2003.8 207.534 2006.58 210.45 Q2009.35 213.367 2009.35 219.293 Z" fill="#000000" fill-rule="evenodd" fill-opacity="1" /><path clip-path="url(#clip150)" d="M2017.69 223.853 L2017.69 208.159 L2021.95 208.159 L2021.95 223.691 Q2021.95 227.372 2023.38 229.224 Q2024.82 231.052 2027.69 231.052 Q2031.14 231.052 2033.13 228.853 Q2035.14 226.654 2035.14 222.858 L2035.14 208.159 L2039.4 208.159 L2039.4 234.085 L2035.14 234.085 L2035.14 230.103 Q2033.59 232.464 2031.53 233.622 Q2029.49 234.756 2026.78 234.756 Q2022.32 234.756 2020 231.978 Q2017.69 229.2 2017.69 223.853 M2028.4 207.534 L2028.4 207.534 Z" fill="#000000" fill-rule="evenodd" fill-opacity="1" /><path clip-path="url(#clip150)" d="M2064.7 208.923 L2064.7 212.95 Q2062.89 212.025 2060.95 211.562 Q2059.01 211.099 2056.92 211.099 Q2053.75 211.099 2052.15 212.071 Q2050.58 213.043 2050.58 214.987 Q2050.58 216.469 2051.71 217.325 Q2052.85 218.159 2056.27 218.923 L2057.73 219.247 Q2062.27 220.219 2064.17 222.001 Q2066.09 223.761 2066.09 226.932 Q2066.09 230.543 2063.22 232.649 Q2060.37 234.756 2055.37 234.756 Q2053.29 234.756 2051.02 234.339 Q2048.77 233.946 2046.27 233.136 L2046.27 228.737 Q2048.64 229.964 2050.93 230.589 Q2053.22 231.191 2055.46 231.191 Q2058.47 231.191 2060.09 230.173 Q2061.71 229.131 2061.71 227.256 Q2061.71 225.52 2060.53 224.594 Q2059.38 223.668 2055.42 222.812 L2053.94 222.464 Q2049.98 221.631 2048.22 219.918 Q2046.46 218.182 2046.46 215.173 Q2046.46 211.515 2049.05 209.525 Q2051.64 207.534 2056.41 207.534 Q2058.77 207.534 2060.86 207.881 Q2062.94 208.228 2064.7 208.923 Z" fill="#000000" fill-rule="evenodd" fill-opacity="1" /><path clip-path="url(#clip150)" d="M2089.4 208.923 L2089.4 212.95 Q2087.59 212.025 2085.65 211.562 Q2083.7 211.099 2081.62 211.099 Q2078.45 211.099 2076.85 212.071 Q2075.28 213.043 2075.28 214.987 Q2075.28 216.469 2076.41 217.325 Q2077.55 218.159 2080.97 218.923 L2082.43 219.247 Q2086.97 220.219 2088.87 222.001 Q2090.79 223.761 2090.79 226.932 Q2090.79 230.543 2087.92 232.649 Q2085.07 234.756 2080.07 234.756 Q2077.99 234.756 2075.72 234.339 Q2073.47 233.946 2070.97 233.136 L2070.97 228.737 Q2073.33 229.964 2075.63 230.589 Q2077.92 231.191 2080.16 231.191 Q2083.17 231.191 2084.79 230.173 Q2086.41 229.131 2086.41 227.256 Q2086.41 225.52 2085.23 224.594 Q2084.08 223.668 2080.12 222.812 L2078.64 222.464 Q2074.68 221.631 2072.92 219.918 Q2071.16 218.182 2071.16 215.173 Q2071.16 211.515 2073.75 209.525 Q2076.34 207.534 2081.11 207.534 Q2083.47 207.534 2085.56 207.881 Q2087.64 208.228 2089.4 208.923 Z" fill="#000000" fill-rule="evenodd" fill-opacity="1" /><path clip-path="url(#clip150)" d="M2097.57 208.159 L2101.83 208.159 L2101.83 234.085 L2097.57 234.085 L2097.57 208.159 M2097.57 198.066 L2101.83 198.066 L2101.83 203.46 L2097.57 203.46 L2097.57 198.066 Z" fill="#000000" fill-rule="evenodd" fill-opacity="1" /><path clip-path="url(#clip150)" d="M2122.52 221.052 Q2117.36 221.052 2115.37 222.233 Q2113.38 223.413 2113.38 226.261 Q2113.38 228.529 2114.86 229.872 Q2116.37 231.191 2118.94 231.191 Q2122.48 231.191 2124.61 228.691 Q2126.76 226.168 2126.76 222.001 L2126.76 221.052 L2122.52 221.052 M2131.02 219.293 L2131.02 234.085 L2126.76 234.085 L2126.76 230.149 Q2125.3 232.511 2123.13 233.645 Q2120.95 234.756 2117.8 234.756 Q2113.82 234.756 2111.46 232.534 Q2109.12 230.288 2109.12 226.538 Q2109.12 222.163 2112.04 219.941 Q2114.98 217.719 2120.79 217.719 L2126.76 217.719 L2126.76 217.302 Q2126.76 214.363 2124.82 212.765 Q2122.89 211.145 2119.4 211.145 Q2117.18 211.145 2115.07 211.677 Q2112.96 212.21 2111.02 213.275 L2111.02 209.339 Q2113.36 208.437 2115.56 207.997 Q2117.76 207.534 2119.84 207.534 Q2125.46 207.534 2128.24 210.45 Q2131.02 213.367 2131.02 219.293 Z" fill="#000000" fill-rule="evenodd" fill-opacity="1" /><path clip-path="url(#clip150)" d="M2161.34 218.437 L2161.34 234.085 L2157.08 234.085 L2157.08 218.575 Q2157.08 214.895 2155.65 213.066 Q2154.21 211.238 2151.34 211.238 Q2147.89 211.238 2145.9 213.437 Q2143.91 215.636 2143.91 219.432 L2143.91 234.085 L2139.63 234.085 L2139.63 208.159 L2143.91 208.159 L2143.91 212.187 Q2145.44 209.849 2147.5 208.691 Q2149.58 207.534 2152.29 207.534 Q2156.76 207.534 2159.05 210.312 Q2161.34 213.066 2161.34 218.437 Z" fill="#000000" fill-rule="evenodd" fill-opacity="1" /><path clip-path="url(#clip150)" d="M2198.03 198.066 L2198.03 201.608 L2193.96 201.608 Q2191.67 201.608 2190.76 202.534 Q2189.88 203.46 2189.88 205.867 L2189.88 208.159 L2196.9 208.159 L2196.9 211.469 L2189.88 211.469 L2189.88 234.085 L2185.6 234.085 L2185.6 211.469 L2181.53 211.469 L2181.53 208.159 L2185.6 208.159 L2185.6 206.353 Q2185.6 202.025 2187.62 200.057 Q2189.63 198.066 2194.01 198.066 L2198.03 198.066 Z" fill="#000000" fill-rule="evenodd" fill-opacity="1" /><path clip-path="url(#clip150)" d="M2201.6 208.159 L2205.86 208.159 L2205.86 234.085 L2201.6 234.085 L2201.6 208.159 M2201.6 198.066 L2205.86 198.066 L2205.86 203.46 L2201.6 203.46 L2201.6 198.066 Z" fill="#000000" fill-rule="evenodd" fill-opacity="1" /><path clip-path="url(#clip150)" d="M2218.98 200.798 L2218.98 208.159 L2227.76 208.159 L2227.76 211.469 L2218.98 211.469 L2218.98 225.543 Q2218.98 228.714 2219.84 229.617 Q2220.72 230.52 2223.38 230.52 L2227.76 230.52 L2227.76 234.085 L2223.38 234.085 Q2218.45 234.085 2216.57 232.256 Q2214.7 230.404 2214.7 225.543 L2214.7 211.469 L2211.57 211.469 L2211.57 208.159 L2214.7 208.159 L2214.7 200.798 L2218.98 200.798 Z" fill="#000000" fill-rule="evenodd" fill-opacity="1" /><polyline clip-path="url(#clip150)" style="stroke:#3da44d; stroke-linecap:butt; stroke-linejoin:round; stroke-width:4; stroke-opacity:1; fill:none" points="
  1782.13,277.285 1932.13,277.285 
  "/>
<path clip-path="url(#clip150)" d="M1961.41 290.676 L1961.41 304.426 L1957.13 304.426 L1957.13 268.639 L1961.41 268.639 L1961.41 272.574 Q1962.76 270.259 1964.79 269.148 Q1966.85 268.014 1969.7 268.014 Q1974.42 268.014 1977.36 271.764 Q1980.33 275.514 1980.33 281.625 Q1980.33 287.736 1977.36 291.486 Q1974.42 295.236 1969.7 295.236 Q1966.85 295.236 1964.79 294.125 Q1962.76 292.991 1961.41 290.676 M1975.9 281.625 Q1975.9 276.926 1973.96 274.264 Q1972.04 271.579 1968.66 271.579 Q1965.28 271.579 1963.34 274.264 Q1961.41 276.926 1961.41 281.625 Q1961.41 286.324 1963.34 289.009 Q1965.28 291.671 1968.66 291.671 Q1972.04 291.671 1973.96 289.009 Q1975.9 286.324 1975.9 281.625 Z" fill="#000000" fill-rule="evenodd" fill-opacity="1" /><path clip-path="url(#clip150)" d="M1997.43 271.625 Q1994.01 271.625 1992.02 274.31 Q1990.02 276.972 1990.02 281.625 Q1990.02 286.278 1991.99 288.963 Q1993.98 291.625 1997.43 291.625 Q2000.83 291.625 2002.83 288.94 Q2004.82 286.254 2004.82 281.625 Q2004.82 277.018 2002.83 274.333 Q2000.83 271.625 1997.43 271.625 M1997.43 268.014 Q2002.99 268.014 2006.16 271.625 Q2009.33 275.236 2009.33 281.625 Q2009.33 287.991 2006.16 291.625 Q2002.99 295.236 1997.43 295.236 Q1991.85 295.236 1988.68 291.625 Q1985.53 287.991 1985.53 281.625 Q1985.53 275.236 1988.68 271.625 Q1991.85 268.014 1997.43 268.014 Z" fill="#000000" fill-rule="evenodd" fill-opacity="1" /><path clip-path="url(#clip150)" d="M2016.39 268.639 L2020.65 268.639 L2020.65 294.565 L2016.39 294.565 L2016.39 268.639 M2016.39 258.546 L2020.65 258.546 L2020.65 263.94 L2016.39 263.94 L2016.39 258.546 Z" fill="#000000" fill-rule="evenodd" fill-opacity="1" /><path clip-path="url(#clip150)" d="M2046.09 269.403 L2046.09 273.43 Q2044.28 272.505 2042.34 272.042 Q2040.39 271.579 2038.31 271.579 Q2035.14 271.579 2033.54 272.551 Q2031.97 273.523 2031.97 275.467 Q2031.97 276.949 2033.1 277.805 Q2034.24 278.639 2037.66 279.403 L2039.12 279.727 Q2043.66 280.699 2045.56 282.481 Q2047.48 284.241 2047.48 287.412 Q2047.48 291.023 2044.61 293.129 Q2041.76 295.236 2036.76 295.236 Q2034.68 295.236 2032.41 294.819 Q2030.16 294.426 2027.66 293.616 L2027.66 289.217 Q2030.02 290.444 2032.32 291.069 Q2034.61 291.671 2036.85 291.671 Q2039.86 291.671 2041.48 290.653 Q2043.1 289.611 2043.1 287.736 Q2043.1 286 2041.92 285.074 Q2040.77 284.148 2036.81 283.292 L2035.33 282.944 Q2031.37 282.111 2029.61 280.398 Q2027.85 278.662 2027.85 275.653 Q2027.85 271.995 2030.44 270.005 Q2033.03 268.014 2037.8 268.014 Q2040.16 268.014 2042.25 268.361 Q2044.33 268.708 2046.09 269.403 Z" fill="#000000" fill-rule="evenodd" fill-opacity="1" /><path clip-path="url(#clip150)" d="M2070.79 269.403 L2070.79 273.43 Q2068.98 272.505 2067.04 272.042 Q2065.09 271.579 2063.01 271.579 Q2059.84 271.579 2058.24 272.551 Q2056.67 273.523 2056.67 275.467 Q2056.67 276.949 2057.8 277.805 Q2058.94 278.639 2062.36 279.403 L2063.82 279.727 Q2068.36 280.699 2070.26 282.481 Q2072.18 284.241 2072.18 287.412 Q2072.18 291.023 2069.31 293.129 Q2066.46 295.236 2061.46 295.236 Q2059.38 295.236 2057.11 294.819 Q2054.86 294.426 2052.36 293.616 L2052.36 289.217 Q2054.72 290.444 2057.02 291.069 Q2059.31 291.671 2061.55 291.671 Q2064.56 291.671 2066.18 290.653 Q2067.8 289.611 2067.8 287.736 Q2067.8 286 2066.62 285.074 Q2065.46 284.148 2061.51 283.292 L2060.02 282.944 Q2056.07 282.111 2054.31 280.398 Q2052.55 278.662 2052.55 275.653 Q2052.55 271.995 2055.14 270.005 Q2057.73 268.014 2062.5 268.014 Q2064.86 268.014 2066.95 268.361 Q2069.03 268.708 2070.79 269.403 Z" fill="#000000" fill-rule="evenodd" fill-opacity="1" /><path clip-path="url(#clip150)" d="M2089.01 271.625 Q2085.58 271.625 2083.59 274.31 Q2081.6 276.972 2081.6 281.625 Q2081.6 286.278 2083.57 288.963 Q2085.56 291.625 2089.01 291.625 Q2092.41 291.625 2094.4 288.94 Q2096.39 286.254 2096.39 281.625 Q2096.39 277.018 2094.4 274.333 Q2092.41 271.625 2089.01 271.625 M2089.01 268.014 Q2094.56 268.014 2097.73 271.625 Q2100.9 275.236 2100.9 281.625 Q2100.9 287.991 2097.73 291.625 Q2094.56 295.236 2089.01 295.236 Q2083.43 295.236 2080.26 291.625 Q2077.11 287.991 2077.11 281.625 Q2077.11 275.236 2080.26 271.625 Q2083.43 268.014 2089.01 268.014 Z" fill="#000000" fill-rule="evenodd" fill-opacity="1" /><path clip-path="url(#clip150)" d="M2129.51 278.917 L2129.51 294.565 L2125.26 294.565 L2125.26 279.055 Q2125.26 275.375 2123.82 273.546 Q2122.39 271.718 2119.51 271.718 Q2116.07 271.718 2114.08 273.917 Q2112.08 276.116 2112.08 279.912 L2112.08 294.565 L2107.8 294.565 L2107.8 268.639 L2112.08 268.639 L2112.08 272.667 Q2113.61 270.329 2115.67 269.171 Q2117.76 268.014 2120.46 268.014 Q2124.93 268.014 2127.22 270.792 Q2129.51 273.546 2129.51 278.917 Z" fill="#000000" fill-rule="evenodd" fill-opacity="1" /><path clip-path="url(#clip150)" d="M2166.2 258.546 L2166.2 262.088 L2162.13 262.088 Q2159.84 262.088 2158.94 263.014 Q2158.06 263.94 2158.06 266.347 L2158.06 268.639 L2165.07 268.639 L2165.07 271.949 L2158.06 271.949 L2158.06 294.565 L2153.77 294.565 L2153.77 271.949 L2149.7 271.949 L2149.7 268.639 L2153.77 268.639 L2153.77 266.833 Q2153.77 262.505 2155.79 260.537 Q2157.8 258.546 2162.18 258.546 L2166.2 258.546 Z" fill="#000000" fill-rule="evenodd" fill-opacity="1" /><path clip-path="url(#clip150)" d="M2169.77 268.639 L2174.03 268.639 L2174.03 294.565 L2169.77 294.565 L2169.77 268.639 M2169.77 258.546 L2174.03 258.546 L2174.03 263.94 L2169.77 263.94 L2169.77 258.546 Z" fill="#000000" fill-rule="evenodd" fill-opacity="1" /><path clip-path="url(#clip150)" d="M2187.15 261.278 L2187.15 268.639 L2195.93 268.639 L2195.93 271.949 L2187.15 271.949 L2187.15 286.023 Q2187.15 289.194 2188.01 290.097 Q2188.89 291 2191.55 291 L2195.93 291 L2195.93 294.565 L2191.55 294.565 Q2186.62 294.565 2184.75 292.736 Q2182.87 290.884 2182.87 286.023 L2182.87 271.949 L2179.75 271.949 L2179.75 268.639 L2182.87 268.639 L2182.87 261.278 L2187.15 261.278 Z" fill="#000000" fill-rule="evenodd" fill-opacity="1" /></svg>
