<?xml version="1.0" encoding="utf-8"?>
<svg xmlns="http://www.w3.org/2000/svg" xmlns:xlink="http://www.w3.org/1999/xlink" width="600" height="400" viewBox="0 0 2400 1600">
<defs>
  <clipPath id="clip120">
    <rect x="0" y="0" width="2400" height="1600"/>
  </clipPath>
</defs>
<path clip-path="url(#clip120)" d="
M0 1600 L2400 1600 L2400 0 L0 0  Z
  " fill="#ffffff" fill-rule="evenodd" fill-opacity="1"/>
<defs>
  <clipPath id="clip121">
    <rect x="480" y="0" width="1681" height="1600"/>
  </clipPath>
</defs>
<path clip-path="url(#clip120)" d="
M102.74 1505.26 L2352.76 1505.26 L2352.76 47.2441 L102.74 47.2441  Z
  " fill="#ffffff" fill-rule="evenodd" fill-opacity="1"/>
<defs>
  <clipPath id="clip122">
    <rect x="102" y="47" width="2251" height="1459"/>
  </clipPath>
</defs>
<polyline clip-path="url(#clip122)" style="stroke:#000000; stroke-linecap:butt; stroke-linejoin:round; stroke-width:2; stroke-opacity:0.1; fill:none" points="
  166.42,1505.26 166.42,47.2441 
  "/>
<polyline clip-path="url(#clip122)" style="stroke:#000000; stroke-linecap:butt; stroke-linejoin:round; stroke-width:2; stroke-opacity:0.1; fill:none" points="
  579.79,1505.26 579.79,47.2441 
  "/>
<polyline clip-path="url(#clip122)" style="stroke:#000000; stroke-linecap:butt; stroke-linejoin:round; stroke-width:2; stroke-opacity:0.1; fill:none" points="
  993.16,1505.26 993.16,47.2441 
  "/>
<polyline clip-path="url(#clip122)" style="stroke:#000000; stroke-linecap:butt; stroke-linejoin:round; stroke-width:2; stroke-opacity:0.1; fill:none" points="
  1406.53,1505.26 1406.53,47.2441 
  "/>
<polyline clip-path="url(#clip122)" style="stroke:#000000; stroke-linecap:butt; stroke-linejoin:round; stroke-width:2; stroke-opacity:0.1; fill:none" points="
  1819.9,1505.26 1819.9,47.2441 
  "/>
<polyline clip-path="url(#clip122)" style="stroke:#000000; stroke-linecap:butt; stroke-linejoin:round; stroke-width:2; stroke-opacity:0.1; fill:none" points="
  2233.27,1505.26 2233.27,47.2441 
  "/>
<polyline clip-path="url(#clip120)" style="stroke:#000000; stroke-linecap:butt; stroke-linejoin:round; stroke-width:4; stroke-opacity:1; fill:none" points="
  102.74,1505.26 2352.76,1505.26 
  "/>
<polyline clip-path="url(#clip120)" style="stroke:#000000; stroke-linecap:butt; stroke-linejoin:round; stroke-width:4; stroke-opacity:1; fill:none" points="
  166.42,1505.26 166.42,1487.76 
  "/>
<polyline clip-path="url(#clip120)" style="stroke:#000000; stroke-linecap:butt; stroke-linejoin:round; stroke-width:4; stroke-opacity:1; fill:none" points="
  579.79,1505.26 579.79,1487.76 
  "/>
<polyline clip-path="url(#clip120)" style="stroke:#000000; stroke-linecap:butt; stroke-linejoin:round; stroke-width:4; stroke-opacity:1; fill:none" points="
  993.16,1505.26 993.16,1487.76 
  "/>
<polyline clip-path="url(#clip120)" style="stroke:#000000; stroke-linecap:butt; stroke-linejoin:round; stroke-width:4; stroke-opacity:1; fill:none" points="
  1406.53,1505.26 1406.53,1487.76 
  "/>
<polyline clip-path="url(#clip120)" style="stroke:#000000; stroke-linecap:butt; stroke-linejoin:round; stroke-width:4; stroke-opacity:1; fill:none" points="
  1819.9,1505.26 1819.9,1487.76 
  "/>
<polyline clip-path="url(#clip120)" style="stroke:#000000; stroke-linecap:butt; stroke-linejoin:round; stroke-width:4; stroke-opacity:1; fill:none" points="
  2233.27,1505.26 2233.27,1487.76 
  "/>
<path clip-path="url(#clip120)" d="M166.42 1534.45 Q162.809 1534.45 160.98 1538.02 Q159.175 1541.56 159.175 1548.69 Q159.175 1555.79 160.98 1559.36 Q162.809 1562.9 166.42 1562.9 Q170.054 1562.9 171.86 1559.36 Q173.688 1555.79 173.688 1548.69 Q173.688 1541.56 171.86 1538.02 Q170.054 1534.45 166.42 1534.45 M166.42 1530.75 Q172.23 1530.75 175.286 1535.35 Q178.364 1539.94 178.364 1548.69 Q178.364 1557.41 175.286 1562.02 Q172.23 1566.6 166.42 1566.6 Q160.61 1566.6 157.531 1562.02 Q154.475 1557.41 154.475 1548.69 Q154.475 1539.94 157.531 1535.35 Q160.61 1530.75 166.42 1530.75 Z" fill="#000000" fill-rule="evenodd" fill-opacity="1" /><path clip-path="url(#clip120)" d="M554.478 1562 L562.117 1562 L562.117 1535.63 L553.806 1537.3 L553.806 1533.04 L562.07 1531.37 L566.746 1531.37 L566.746 1562 L574.385 1562 L574.385 1565.93 L554.478 1565.93 L554.478 1562 Z" fill="#000000" fill-rule="evenodd" fill-opacity="1" /><path clip-path="url(#clip120)" d="M593.829 1534.45 Q590.218 1534.45 588.39 1538.02 Q586.584 1541.56 586.584 1548.69 Q586.584 1555.79 588.39 1559.36 Q590.218 1562.9 593.829 1562.9 Q597.464 1562.9 599.269 1559.36 Q601.098 1555.79 601.098 1548.69 Q601.098 1541.56 599.269 1538.02 Q597.464 1534.45 593.829 1534.45 M593.829 1530.75 Q599.64 1530.75 602.695 1535.35 Q605.774 1539.94 605.774 1548.69 Q605.774 1557.41 602.695 1562.02 Q599.64 1566.6 593.829 1566.6 Q588.019 1566.6 584.941 1562.02 Q581.885 1557.41 581.885 1548.69 Q581.885 1539.94 584.941 1535.35 Q588.019 1530.75 593.829 1530.75 Z" fill="#000000" fill-rule="evenodd" fill-opacity="1" /><path clip-path="url(#clip120)" d="M971.934 1562 L988.253 1562 L988.253 1565.93 L966.309 1565.93 L966.309 1562 Q968.971 1559.24 973.554 1554.61 Q978.16 1549.96 979.341 1548.62 Q981.586 1546.09 982.466 1544.36 Q983.369 1542.6 983.369 1540.91 Q983.369 1538.15 981.424 1536.42 Q979.503 1534.68 976.401 1534.68 Q974.202 1534.68 971.748 1535.45 Q969.318 1536.21 966.54 1537.76 L966.54 1533.04 Q969.364 1531.9 971.818 1531.33 Q974.272 1530.75 976.309 1530.75 Q981.679 1530.75 984.873 1533.43 Q988.068 1536.12 988.068 1540.61 Q988.068 1542.74 987.258 1544.66 Q986.471 1546.56 984.364 1549.15 Q983.785 1549.82 980.684 1553.04 Q977.582 1556.23 971.934 1562 Z" fill="#000000" fill-rule="evenodd" fill-opacity="1" /><path clip-path="url(#clip120)" d="M1008.07 1534.45 Q1004.46 1534.45 1002.63 1538.02 Q1000.82 1541.56 1000.82 1548.69 Q1000.82 1555.79 1002.63 1559.36 Q1004.46 1562.9 1008.07 1562.9 Q1011.7 1562.9 1013.51 1559.36 Q1015.34 1555.79 1015.34 1548.69 Q1015.34 1541.56 1013.51 1538.02 Q1011.7 1534.45 1008.07 1534.45 M1008.07 1530.75 Q1013.88 1530.75 1016.93 1535.35 Q1020.01 1539.94 1020.01 1548.69 Q1020.01 1557.41 1016.93 1562.02 Q1013.88 1566.6 1008.07 1566.6 Q1002.26 1566.6 999.179 1562.02 Q996.123 1557.41 996.123 1548.69 Q996.123 1539.94 999.179 1535.35 Q1002.26 1530.75 1008.07 1530.75 Z" fill="#000000" fill-rule="evenodd" fill-opacity="1" /><path clip-path="url(#clip120)" d="M1395.37 1547.3 Q1398.73 1548.02 1400.6 1550.28 Q1402.5 1552.55 1402.5 1555.89 Q1402.5 1561 1398.98 1563.8 Q1395.47 1566.6 1388.98 1566.6 Q1386.81 1566.6 1384.49 1566.16 Q1382.2 1565.75 1379.75 1564.89 L1379.75 1560.38 Q1381.69 1561.51 1384.01 1562.09 Q1386.32 1562.67 1388.85 1562.67 Q1393.24 1562.67 1395.54 1560.93 Q1397.85 1559.2 1397.85 1555.89 Q1397.85 1552.83 1395.7 1551.12 Q1393.57 1549.38 1389.75 1549.38 L1385.72 1549.38 L1385.72 1545.54 L1389.93 1545.54 Q1393.38 1545.54 1395.21 1544.17 Q1397.04 1542.78 1397.04 1540.19 Q1397.04 1537.53 1395.14 1536.12 Q1393.27 1534.68 1389.75 1534.68 Q1387.83 1534.68 1385.63 1535.1 Q1383.43 1535.52 1380.79 1536.39 L1380.79 1532.23 Q1383.45 1531.49 1385.77 1531.12 Q1388.1 1530.75 1390.17 1530.75 Q1395.49 1530.75 1398.59 1533.18 Q1401.69 1535.58 1401.69 1539.71 Q1401.69 1542.58 1400.05 1544.57 Q1398.41 1546.53 1395.37 1547.3 Z" fill="#000000" fill-rule="evenodd" fill-opacity="1" /><path clip-path="url(#clip120)" d="M1421.37 1534.45 Q1417.76 1534.45 1415.93 1538.02 Q1414.12 1541.56 1414.12 1548.69 Q1414.12 1555.79 1415.93 1559.36 Q1417.76 1562.9 1421.37 1562.9 Q1425 1562.9 1426.81 1559.36 Q1428.64 1555.79 1428.64 1548.69 Q1428.64 1541.56 1426.81 1538.02 Q1425 1534.45 1421.37 1534.45 M1421.37 1530.75 Q1427.18 1530.75 1430.23 1535.35 Q1433.31 1539.94 1433.31 1548.69 Q1433.31 1557.41 1430.23 1562.02 Q1427.18 1566.6 1421.37 1566.6 Q1415.56 1566.6 1412.48 1562.02 Q1409.42 1557.41 1409.42 1548.69 Q1409.42 1539.94 1412.48 1535.35 Q1415.56 1530.75 1421.37 1530.75 Z" fill="#000000" fill-rule="evenodd" fill-opacity="1" /><path clip-path="url(#clip120)" d="M1808.07 1535.45 L1796.27 1553.89 L1808.07 1553.89 L1808.07 1535.45 M1806.85 1531.37 L1812.73 1531.37 L1812.73 1553.89 L1817.66 1553.89 L1817.66 1557.78 L1812.73 1557.78 L1812.73 1565.93 L1808.07 1565.93 L1808.07 1557.78 L1792.47 1557.78 L1792.47 1553.27 L1806.85 1531.37 Z" fill="#000000" fill-rule="evenodd" fill-opacity="1" /><path clip-path="url(#clip120)" d="M1835.39 1534.45 Q1831.78 1534.45 1829.95 1538.02 Q1828.14 1541.56 1828.14 1548.69 Q1828.14 1555.79 1829.95 1559.36 Q1831.78 1562.9 1835.39 1562.9 Q1839.02 1562.9 1840.83 1559.36 Q1842.66 1555.79 1842.66 1548.69 Q1842.66 1541.56 1840.83 1538.02 Q1839.02 1534.45 1835.39 1534.45 M1835.39 1530.75 Q1841.2 1530.75 1844.25 1535.35 Q1847.33 1539.94 1847.33 1548.69 Q1847.33 1557.41 1844.25 1562.02 Q1841.2 1566.6 1835.39 1566.6 Q1829.58 1566.6 1826.5 1562.02 Q1823.44 1557.41 1823.44 1548.69 Q1823.44 1539.94 1826.5 1535.35 Q1829.58 1530.75 1835.39 1530.75 Z" fill="#000000" fill-rule="evenodd" fill-opacity="1" /><path clip-path="url(#clip120)" d="M2207.97 1531.37 L2226.33 1531.37 L2226.33 1535.31 L2212.25 1535.31 L2212.25 1543.78 Q2213.27 1543.43 2214.29 1543.27 Q2215.31 1543.08 2216.33 1543.08 Q2222.11 1543.08 2225.49 1546.26 Q2228.87 1549.43 2228.87 1554.84 Q2228.87 1560.42 2225.4 1563.52 Q2221.93 1566.6 2215.61 1566.6 Q2213.43 1566.6 2211.16 1566.23 Q2208.92 1565.86 2206.51 1565.12 L2206.51 1560.42 Q2208.6 1561.56 2210.82 1562.11 Q2213.04 1562.67 2215.52 1562.67 Q2219.52 1562.67 2221.86 1560.56 Q2224.2 1558.46 2224.2 1554.84 Q2224.2 1551.23 2221.86 1549.13 Q2219.52 1547.02 2215.52 1547.02 Q2213.64 1547.02 2211.77 1547.44 Q2209.91 1547.85 2207.97 1548.73 L2207.97 1531.37 Z" fill="#000000" fill-rule="evenodd" fill-opacity="1" /><path clip-path="url(#clip120)" d="M2248.09 1534.45 Q2244.47 1534.45 2242.65 1538.02 Q2240.84 1541.56 2240.84 1548.69 Q2240.84 1555.79 2242.65 1559.36 Q2244.47 1562.9 2248.09 1562.9 Q2251.72 1562.9 2253.53 1559.36 Q2255.35 1555.79 2255.35 1548.69 Q2255.35 1541.56 2253.53 1538.02 Q2251.72 1534.45 2248.09 1534.45 M2248.09 1530.75 Q2253.9 1530.75 2256.95 1535.35 Q2260.03 1539.94 2260.03 1548.69 Q2260.03 1557.41 2256.95 1562.02 Q2253.9 1566.6 2248.09 1566.6 Q2242.28 1566.6 2239.2 1562.02 Q2236.14 1557.41 2236.14 1548.69 Q2236.14 1539.94 2239.2 1535.35 Q2242.28 1530.75 2248.09 1530.75 Z" fill="#000000" fill-rule="evenodd" fill-opacity="1" /><path clip-path="url(#clip120)" d="M1238.19 1619.95 Q1237.2 1619.38 1236.02 1619.12 Q1234.88 1618.84 1233.48 1618.84 Q1228.51 1618.84 1225.84 1622.08 Q1223.2 1625.3 1223.2 1631.35 L1223.2 1650.12 L1217.31 1650.12 L1217.31 1614.48 L1223.2 1614.48 L1223.2 1620.01 Q1225.04 1616.77 1228 1615.21 Q1230.96 1613.62 1235.2 1613.62 Q1235.8 1613.62 1236.53 1613.71 Q1237.26 1613.78 1238.16 1613.93 L1238.19 1619.95 Z" fill="#000000" fill-rule="evenodd" fill-opacity="1" /><polyline clip-path="url(#clip122)" style="stroke:#000000; stroke-linecap:butt; stroke-linejoin:round; stroke-width:2; stroke-opacity:0.1; fill:none" points="
  102.74,1464 2352.76,1464 
  "/>
<polyline clip-path="url(#clip122)" style="stroke:#000000; stroke-linecap:butt; stroke-linejoin:round; stroke-width:2; stroke-opacity:0.1; fill:none" points="
  102.74,1141.21 2352.76,1141.21 
  "/>
<polyline clip-path="url(#clip122)" style="stroke:#000000; stroke-linecap:butt; stroke-linejoin:round; stroke-width:2; stroke-opacity:0.1; fill:none" points="
  102.74,818.425 2352.76,818.425 
  "/>
<polyline clip-path="url(#clip122)" style="stroke:#000000; stroke-linecap:butt; stroke-linejoin:round; stroke-width:2; stroke-opacity:0.1; fill:none" points="
  102.74,495.639 2352.76,495.639 
  "/>
<polyline clip-path="url(#clip122)" style="stroke:#000000; stroke-linecap:butt; stroke-linejoin:round; stroke-width:2; stroke-opacity:0.1; fill:none" points="
  102.74,172.854 2352.76,172.854 
  "/>
<polyline clip-path="url(#clip120)" style="stroke:#000000; stroke-linecap:butt; stroke-linejoin:round; stroke-width:4; stroke-opacity:1; fill:none" points="
  102.74,1505.26 102.74,47.2441 
  "/>
<polyline clip-path="url(#clip120)" style="stroke:#000000; stroke-linecap:butt; stroke-linejoin:round; stroke-width:4; stroke-opacity:1; fill:none" points="
  102.74,1464 129.74,1464 
  "/>
<polyline clip-path="url(#clip120)" style="stroke:#000000; stroke-linecap:butt; stroke-linejoin:round; stroke-width:4; stroke-opacity:1; fill:none" points="
  102.74,1141.21 129.74,1141.21 
  "/>
<polyline clip-path="url(#clip120)" style="stroke:#000000; stroke-linecap:butt; stroke-linejoin:round; stroke-width:4; stroke-opacity:1; fill:none" points="
  102.74,818.425 129.74,818.425 
  "/>
<polyline clip-path="url(#clip120)" style="stroke:#000000; stroke-linecap:butt; stroke-linejoin:round; stroke-width:4; stroke-opacity:1; fill:none" points="
  102.74,495.639 129.74,495.639 
  "/>
<polyline clip-path="url(#clip120)" style="stroke:#000000; stroke-linecap:butt; stroke-linejoin:round; stroke-width:4; stroke-opacity:1; fill:none" points="
  102.74,172.854 129.74,172.854 
  "/>
<path clip-path="url(#clip120)" d="M-20.5973 1449.79 Q-24.2084 1449.79 -26.0371 1453.36 Q-27.8427 1456.9 -27.8427 1464.03 Q-27.8427 1471.14 -26.0371 1474.7 Q-24.2084 1478.24 -20.5973 1478.24 Q-16.9631 1478.24 -15.1576 1474.7 Q-13.3289 1471.14 -13.3289 1464.03 Q-13.3289 1456.9 -15.1576 1453.36 Q-16.9631 1449.79 -20.5973 1449.79 M-20.5973 1446.09 Q-14.7872 1446.09 -11.7316 1450.7 Q-8.65296 1455.28 -8.65296 1464.03 Q-8.65296 1472.76 -11.7316 1477.36 Q-14.7872 1481.95 -20.5973 1481.95 Q-26.4075 1481.95 -29.4862 1477.36 Q-32.5417 1472.76 -32.5417 1464.03 Q-32.5417 1455.28 -29.4862 1450.7 Q-26.4075 1446.09 -20.5973 1446.09 Z" fill="#000000" fill-rule="evenodd" fill-opacity="1" /><path clip-path="url(#clip120)" d="M-0.435408 1475.4 L4.44882 1475.4 L4.44882 1481.28 L-0.435408 1481.28 L-0.435408 1475.4 Z" fill="#000000" fill-rule="evenodd" fill-opacity="1" /><path clip-path="url(#clip120)" d="M24.6339 1449.79 Q21.0228 1449.79 19.1941 1453.36 Q17.3886 1456.9 17.3886 1464.03 Q17.3886 1471.14 19.1941 1474.7 Q21.0228 1478.24 24.6339 1478.24 Q28.2681 1478.24 30.0737 1474.7 Q31.9024 1471.14 31.9024 1464.03 Q31.9024 1456.9 30.0737 1453.36 Q28.2681 1449.79 24.6339 1449.79 M24.6339 1446.09 Q30.4441 1446.09 33.4996 1450.7 Q36.5783 1455.28 36.5783 1464.03 Q36.5783 1472.76 33.4996 1477.36 Q30.4441 1481.95 24.6339 1481.95 Q18.8237 1481.95 15.7451 1477.36 Q12.6895 1472.76 12.6895 1464.03 Q12.6895 1455.28 15.7451 1450.7 Q18.8237 1446.09 24.6339 1446.09 Z" fill="#000000" fill-rule="evenodd" fill-opacity="1" /><path clip-path="url(#clip120)" d="M54.7958 1449.79 Q51.1847 1449.79 49.356 1453.36 Q47.5504 1456.9 47.5504 1464.03 Q47.5504 1471.14 49.356 1474.7 Q51.1847 1478.24 54.7958 1478.24 Q58.43 1478.24 60.2356 1474.7 Q62.0643 1471.14 62.0643 1464.03 Q62.0643 1456.9 60.2356 1453.36 Q58.43 1449.79 54.7958 1449.79 M54.7958 1446.09 Q60.6059 1446.09 63.6615 1450.7 Q66.7402 1455.28 66.7402 1464.03 Q66.7402 1472.76 63.6615 1477.36 Q60.6059 1481.95 54.7958 1481.95 Q48.9856 1481.95 45.9069 1477.36 Q42.8514 1472.76 42.8514 1464.03 Q42.8514 1455.28 45.9069 1450.7 Q48.9856 1446.09 54.7958 1446.09 Z" fill="#000000" fill-rule="evenodd" fill-opacity="1" /><path clip-path="url(#clip120)" d="M-19.0001 1127.01 Q-22.6112 1127.01 -24.4399 1130.57 Q-26.2455 1134.12 -26.2455 1141.24 Q-26.2455 1148.35 -24.4399 1151.92 Q-22.6112 1155.46 -19.0001 1155.46 Q-15.3659 1155.46 -13.5603 1151.92 Q-11.7316 1148.35 -11.7316 1141.24 Q-11.7316 1134.12 -13.5603 1130.57 Q-15.3659 1127.01 -19.0001 1127.01 M-19.0001 1123.3 Q-13.19 1123.3 -10.1344 1127.91 Q-7.05574 1132.49 -7.05574 1141.24 Q-7.05574 1149.97 -10.1344 1154.58 Q-13.19 1159.16 -19.0001 1159.16 Q-24.8103 1159.16 -27.889 1154.58 Q-30.9445 1149.97 -30.9445 1141.24 Q-30.9445 1132.49 -27.889 1127.91 Q-24.8103 1123.3 -19.0001 1123.3 Z" fill="#000000" fill-rule="evenodd" fill-opacity="1" /><path clip-path="url(#clip120)" d="M1.16181 1152.61 L6.04604 1152.61 L6.04604 1158.49 L1.16181 1158.49 L1.16181 1152.61 Z" fill="#000000" fill-rule="evenodd" fill-opacity="1" /><path clip-path="url(#clip120)" d="M26.2311 1127.01 Q22.62 1127.01 20.7913 1130.57 Q18.9858 1134.12 18.9858 1141.24 Q18.9858 1148.35 20.7913 1151.92 Q22.62 1155.46 26.2311 1155.46 Q29.8654 1155.46 31.6709 1151.92 Q33.4996 1148.35 33.4996 1141.24 Q33.4996 1134.12 31.6709 1130.57 Q29.8654 1127.01 26.2311 1127.01 M26.2311 1123.3 Q32.0413 1123.3 35.0968 1127.91 Q38.1755 1132.49 38.1755 1141.24 Q38.1755 1149.97 35.0968 1154.58 Q32.0413 1159.16 26.2311 1159.16 Q20.421 1159.16 17.3423 1154.58 Q14.2867 1149.97 14.2867 1141.24 Q14.2867 1132.49 17.3423 1127.91 Q20.421 1123.3 26.2311 1123.3 Z" fill="#000000" fill-rule="evenodd" fill-opacity="1" /><path clip-path="url(#clip120)" d="M50.4208 1154.55 L66.7402 1154.55 L66.7402 1158.49 L44.7958 1158.49 L44.7958 1154.55 Q47.4579 1151.8 52.0412 1147.17 Q56.6476 1142.52 57.8282 1141.18 Q60.0735 1138.65 60.9532 1136.92 Q61.8559 1135.16 61.8559 1133.47 Q61.8559 1130.71 59.9115 1128.98 Q57.9902 1127.24 54.8884 1127.24 Q52.6893 1127.24 50.2356 1128 Q47.8051 1128.77 45.0273 1130.32 L45.0273 1125.6 Q47.8514 1124.46 50.3051 1123.88 Q52.7588 1123.3 54.7958 1123.3 Q60.1661 1123.3 63.3605 1125.99 Q66.555 1128.68 66.555 1133.17 Q66.555 1135.3 65.7448 1137.22 Q64.9578 1139.11 62.8513 1141.71 Q62.2726 1142.38 59.1708 1145.6 Q56.0689 1148.79 50.4208 1154.55 Z" fill="#000000" fill-rule="evenodd" fill-opacity="1" /><path clip-path="url(#clip120)" d="M-21.0834 804.223 Q-24.6945 804.223 -26.5232 807.788 Q-28.3288 811.33 -28.3288 818.459 Q-28.3288 825.566 -26.5232 829.13 Q-24.6945 832.672 -21.0834 832.672 Q-17.4492 832.672 -15.6437 829.13 Q-13.815 825.566 -13.815 818.459 Q-13.815 811.33 -15.6437 807.788 Q-17.4492 804.223 -21.0834 804.223 M-21.0834 800.52 Q-15.2733 800.52 -12.2178 805.126 Q-9.13907 809.709 -9.13907 818.459 Q-9.13907 827.186 -12.2178 831.792 Q-15.2733 836.376 -21.0834 836.376 Q-26.8936 836.376 -29.9723 831.792 Q-33.0278 827.186 -33.0278 818.459 Q-33.0278 809.709 -29.9723 805.126 Q-26.8936 800.52 -21.0834 800.52 Z" fill="#000000" fill-rule="evenodd" fill-opacity="1" /><path clip-path="url(#clip120)" d="M-0.921517 829.825 L3.96272 829.825 L3.96272 835.705 L-0.921517 835.705 L-0.921517 829.825 Z" fill="#000000" fill-rule="evenodd" fill-opacity="1" /><path clip-path="url(#clip120)" d="M24.1478 804.223 Q20.5367 804.223 18.708 807.788 Q16.9025 811.33 16.9025 818.459 Q16.9025 825.566 18.708 829.13 Q20.5367 832.672 24.1478 832.672 Q27.782 832.672 29.5876 829.13 Q31.4163 825.566 31.4163 818.459 Q31.4163 811.33 29.5876 807.788 Q27.782 804.223 24.1478 804.223 M24.1478 800.52 Q29.9579 800.52 33.0135 805.126 Q36.0922 809.709 36.0922 818.459 Q36.0922 827.186 33.0135 831.792 Q29.9579 836.376 24.1478 836.376 Q18.3376 836.376 15.259 831.792 Q12.2034 827.186 12.2034 818.459 Q12.2034 809.709 15.259 805.126 Q18.3376 800.52 24.1478 800.52 Z" fill="#000000" fill-rule="evenodd" fill-opacity="1" /><path clip-path="url(#clip120)" d="M57.1569 805.219 L45.3514 823.668 L57.1569 823.668 L57.1569 805.219 M55.93 801.145 L61.8096 801.145 L61.8096 823.668 L66.7402 823.668 L66.7402 827.556 L61.8096 827.556 L61.8096 835.705 L57.1569 835.705 L57.1569 827.556 L41.5551 827.556 L41.5551 823.043 L55.93 801.145 Z" fill="#000000" fill-rule="evenodd" fill-opacity="1" /><path clip-path="url(#clip120)" d="M-20.7594 481.438 Q-24.3705 481.438 -26.1992 485.003 Q-28.0047 488.544 -28.0047 495.674 Q-28.0047 502.78 -26.1992 506.345 Q-24.3705 509.887 -20.7594 509.887 Q-17.1251 509.887 -15.3196 506.345 Q-13.4909 502.78 -13.4909 495.674 Q-13.4909 488.544 -15.3196 485.003 Q-17.1251 481.438 -20.7594 481.438 M-20.7594 477.734 Q-14.9492 477.734 -11.8937 482.341 Q-8.81499 486.924 -8.81499 495.674 Q-8.81499 504.401 -11.8937 509.007 Q-14.9492 513.59 -20.7594 513.59 Q-26.5695 513.59 -29.6482 509.007 Q-32.7038 504.401 -32.7038 495.674 Q-32.7038 486.924 -29.6482 482.341 Q-26.5695 477.734 -20.7594 477.734 Z" fill="#000000" fill-rule="evenodd" fill-opacity="1" /><path clip-path="url(#clip120)" d="M-0.597445 507.04 L4.28679 507.04 L4.28679 512.919 L-0.597445 512.919 L-0.597445 507.04 Z" fill="#000000" fill-rule="evenodd" fill-opacity="1" /><path clip-path="url(#clip120)" d="M24.4719 481.438 Q20.8608 481.438 19.0321 485.003 Q17.2265 488.544 17.2265 495.674 Q17.2265 502.78 19.0321 506.345 Q20.8608 509.887 24.4719 509.887 Q28.1061 509.887 29.9117 506.345 Q31.7403 502.78 31.7403 495.674 Q31.7403 488.544 29.9117 485.003 Q28.1061 481.438 24.4719 481.438 M24.4719 477.734 Q30.282 477.734 33.3376 482.341 Q36.4162 486.924 36.4162 495.674 Q36.4162 504.401 33.3376 509.007 Q30.282 513.59 24.4719 513.59 Q18.6617 513.59 15.583 509.007 Q12.5275 504.401 12.5275 495.674 Q12.5275 486.924 15.583 482.341 Q18.6617 477.734 24.4719 477.734 Z" fill="#000000" fill-rule="evenodd" fill-opacity="1" /><path clip-path="url(#clip120)" d="M55.2124 493.776 Q52.0643 493.776 50.2125 495.928 Q48.3838 498.081 48.3838 501.831 Q48.3838 505.558 50.2125 507.734 Q52.0643 509.887 55.2124 509.887 Q58.3606 509.887 60.1893 507.734 Q62.0411 505.558 62.0411 501.831 Q62.0411 498.081 60.1893 495.928 Q58.3606 493.776 55.2124 493.776 M64.4948 479.123 L64.4948 483.382 Q62.7355 482.549 60.93 482.109 Q59.1476 481.669 57.3884 481.669 Q52.7588 481.669 50.3051 484.794 Q47.8745 487.919 47.5273 494.239 Q48.893 492.225 50.9532 491.16 Q53.0134 490.072 55.4902 490.072 Q60.6985 490.072 63.7078 493.243 Q66.7402 496.391 66.7402 501.831 Q66.7402 507.155 63.592 510.373 Q60.4439 513.59 55.2124 513.59 Q49.2171 513.59 46.0458 509.007 Q42.8745 504.401 42.8745 495.674 Q42.8745 487.479 46.7634 482.618 Q50.6523 477.734 57.2032 477.734 Q58.9624 477.734 60.7448 478.081 Q62.5504 478.429 64.4948 479.123 Z" fill="#000000" fill-rule="evenodd" fill-opacity="1" /><path clip-path="url(#clip120)" d="M-20.5047 158.652 Q-24.1158 158.652 -25.9445 162.217 Q-27.7501 165.759 -27.7501 172.888 Q-27.7501 179.995 -25.9445 183.56 Q-24.1158 187.101 -20.5047 187.101 Q-16.8705 187.101 -15.065 183.56 Q-13.2363 179.995 -13.2363 172.888 Q-13.2363 165.759 -15.065 162.217 Q-16.8705 158.652 -20.5047 158.652 M-20.5047 154.949 Q-14.6946 154.949 -11.6391 159.555 Q-8.56036 164.139 -8.56036 172.888 Q-8.56036 181.615 -11.6391 186.222 Q-14.6946 190.805 -20.5047 190.805 Q-26.3149 190.805 -29.3936 186.222 Q-32.4491 181.615 -32.4491 172.888 Q-32.4491 164.139 -29.3936 159.555 Q-26.3149 154.949 -20.5047 154.949 Z" fill="#000000" fill-rule="evenodd" fill-opacity="1" /><path clip-path="url(#clip120)" d="M-0.342816 184.254 L4.54142 184.254 L4.54142 190.134 L-0.342816 190.134 L-0.342816 184.254 Z" fill="#000000" fill-rule="evenodd" fill-opacity="1" /><path clip-path="url(#clip120)" d="M24.7265 158.652 Q21.1154 158.652 19.2867 162.217 Q17.4812 165.759 17.4812 172.888 Q17.4812 179.995 19.2867 183.56 Q21.1154 187.101 24.7265 187.101 Q28.3607 187.101 30.1663 183.56 Q31.995 179.995 31.995 172.888 Q31.995 165.759 30.1663 162.217 Q28.3607 158.652 24.7265 158.652 M24.7265 154.949 Q30.5366 154.949 33.5922 159.555 Q36.6709 164.139 36.6709 172.888 Q36.6709 181.615 33.5922 186.222 Q30.5366 190.805 24.7265 190.805 Q18.9163 190.805 15.8377 186.222 Q12.7821 181.615 12.7821 172.888 Q12.7821 164.139 15.8377 159.555 Q18.9163 154.949 24.7265 154.949 Z" fill="#000000" fill-rule="evenodd" fill-opacity="1" /><path clip-path="url(#clip120)" d="M54.8884 173.722 Q51.5551 173.722 49.6338 175.504 Q47.7356 177.287 47.7356 180.412 Q47.7356 183.537 49.6338 185.319 Q51.5551 187.101 54.8884 187.101 Q58.2217 187.101 60.143 185.319 Q62.0643 183.513 62.0643 180.412 Q62.0643 177.287 60.143 175.504 Q58.2448 173.722 54.8884 173.722 M50.2125 171.731 Q47.2032 170.99 45.5134 168.93 Q43.8468 166.87 43.8468 163.907 Q43.8468 159.764 46.7866 157.356 Q49.7495 154.949 54.8884 154.949 Q60.0504 154.949 62.9902 157.356 Q65.93 159.764 65.93 163.907 Q65.93 166.87 64.2402 168.93 Q62.5735 170.99 59.5874 171.731 Q62.967 172.518 64.842 174.81 Q66.7402 177.101 66.7402 180.412 Q66.7402 185.435 63.6615 188.12 Q60.6059 190.805 54.8884 190.805 Q49.1708 190.805 46.0921 188.12 Q43.0366 185.435 43.0366 180.412 Q43.0366 177.101 44.9347 174.81 Q46.8329 172.518 50.2125 171.731 M48.4995 164.347 Q48.4995 167.032 50.1662 168.537 Q51.856 170.041 54.8884 170.041 Q57.8976 170.041 59.5874 168.537 Q61.3004 167.032 61.3004 164.347 Q61.3004 161.662 59.5874 160.157 Q57.8976 158.652 54.8884 158.652 Q51.856 158.652 50.1662 160.157 Q48.4995 161.662 48.4995 164.347 Z" fill="#000000" fill-rule="evenodd" fill-opacity="1" /><path clip-path="url(#clip120)" d="M-125.52 822.308 L-107.664 822.308 L-107.664 814.223 Q-107.664 809.736 -109.988 807.285 Q-112.311 804.834 -116.608 804.834 Q-120.873 804.834 -123.197 807.285 Q-125.52 809.736 -125.52 814.223 L-125.52 822.308 M-130.804 828.737 L-130.804 814.223 Q-130.804 806.234 -127.175 802.16 Q-123.579 798.055 -116.608 798.055 Q-109.574 798.055 -105.978 802.16 Q-102.381 806.234 -102.381 814.223 L-102.381 822.308 L-83.2838 822.308 L-83.2838 828.737 L-130.804 828.737 Z" fill="#000000" fill-rule="evenodd" fill-opacity="1" /><path clip-path="url(#clip120)" d="M-132.745 775.615 Q-125.425 779.88 -118.263 781.949 Q-111.102 784.018 -103.75 784.018 Q-96.3972 784.018 -89.1721 781.949 Q-81.9789 779.849 -74.6901 775.615 L-74.6901 780.708 Q-82.1698 785.482 -89.3949 787.869 Q-96.62 790.225 -103.75 790.225 Q-110.847 790.225 -118.041 787.869 Q-125.234 785.514 -132.745 780.708 L-132.745 775.615 Z" fill="#000000" fill-rule="evenodd" fill-opacity="1" /><path clip-path="url(#clip120)" d="M-113.457 743.596 Q-114.03 744.583 -114.285 745.76 Q-114.571 746.906 -114.571 748.307 Q-114.571 753.272 -111.325 755.945 Q-108.11 758.587 -102.063 758.587 L-83.2838 758.587 L-83.2838 764.475 L-118.932 764.475 L-118.932 758.587 L-113.394 758.587 Q-116.64 756.741 -118.2 753.781 Q-119.791 750.821 -119.791 746.588 Q-119.791 745.983 -119.696 745.251 Q-119.632 744.519 -119.473 743.628 L-113.457 743.596 Z" fill="#000000" fill-rule="evenodd" fill-opacity="1" /><path clip-path="url(#clip120)" d="M-132.745 738.376 L-132.745 733.283 Q-125.234 728.509 -118.041 726.154 Q-110.847 723.767 -103.75 723.767 Q-96.62 723.767 -89.3949 726.154 Q-82.1698 728.509 -74.6901 733.283 L-74.6901 738.376 Q-81.9789 734.143 -89.1721 732.074 Q-96.3972 729.973 -103.75 729.973 Q-111.102 729.973 -118.263 732.074 Q-125.425 734.143 -132.745 738.376 Z" fill="#000000" fill-rule="evenodd" fill-opacity="1" /><path clip-path="url(#clip122)" d="
M373.105 1463.83 L373.105 1464 L414.442 1464 L414.442 1463.83 L373.105 1463.83 L373.105 1463.83  Z
  " fill="#009af9" fill-rule="evenodd" fill-opacity="1"/>
<polyline clip-path="url(#clip122)" style="stroke:#009af9; stroke-linecap:butt; stroke-linejoin:round; stroke-width:4; stroke-opacity:1; fill:none" points="
  373.105,1463.83 373.105,1464 414.442,1464 414.442,1463.83 373.105,1463.83 
  "/>
<path clip-path="url(#clip122)" d="
M414.442 1463.35 L414.442 1464 L455.779 1464 L455.779 1463.35 L414.442 1463.35 L414.442 1463.35  Z
  " fill="#009af9" fill-rule="evenodd" fill-opacity="1"/>
<polyline clip-path="url(#clip122)" style="stroke:#009af9; stroke-linecap:butt; stroke-linejoin:round; stroke-width:4; stroke-opacity:1; fill:none" points="
  414.442,1463.35 414.442,1464 455.779,1464 455.779,1463.35 414.442,1463.35 
  "/>
<path clip-path="url(#clip122)" d="
M455.779 1459.96 L455.779 1464 L497.116 1464 L497.116 1459.96 L455.779 1459.96 L455.779 1459.96  Z
  " fill="#009af9" fill-rule="evenodd" fill-opacity="1"/>
<polyline clip-path="url(#clip122)" style="stroke:#009af9; stroke-linecap:butt; stroke-linejoin:round; stroke-width:4; stroke-opacity:1; fill:none" points="
  455.779,1459.96 455.779,1464 497.116,1464 497.116,1459.96 455.779,1459.96 
  "/>
<path clip-path="url(#clip122)" d="
M497.116 1456.89 L497.116 1464 L538.453 1464 L538.453 1456.89 L497.116 1456.89 L497.116 1456.89  Z
  " fill="#009af9" fill-rule="evenodd" fill-opacity="1"/>
<polyline clip-path="url(#clip122)" style="stroke:#009af9; stroke-linecap:butt; stroke-linejoin:round; stroke-width:4; stroke-opacity:1; fill:none" points="
  497.116,1456.89 497.116,1464 538.453,1464 538.453,1456.89 497.116,1456.89 
  "/>
<path clip-path="url(#clip122)" d="
M538.453 1446.71 L538.453 1464 L579.79 1464 L579.79 1446.71 L538.453 1446.71 L538.453 1446.71  Z
  " fill="#009af9" fill-rule="evenodd" fill-opacity="1"/>
<polyline clip-path="url(#clip122)" style="stroke:#009af9; stroke-linecap:butt; stroke-linejoin:round; stroke-width:4; stroke-opacity:1; fill:none" points="
  538.453,1446.71 538.453,1464 579.79,1464 579.79,1446.71 538.453,1446.71 
  "/>
<path clip-path="url(#clip122)" d="
M579.79 1428.45 L579.79 1464 L621.127 1464 L621.127 1428.45 L579.79 1428.45 L579.79 1428.45  Z
  " fill="#009af9" fill-rule="evenodd" fill-opacity="1"/>
<polyline clip-path="url(#clip122)" style="stroke:#009af9; stroke-linecap:butt; stroke-linejoin:round; stroke-width:4; stroke-opacity:1; fill:none" points="
  579.79,1428.45 579.79,1464 621.127,1464 621.127,1428.45 579.79,1428.45 
  "/>
<path clip-path="url(#clip122)" d="
M621.127 1391.94 L621.127 1464 L662.464 1464 L662.464 1391.94 L621.127 1391.94 L621.127 1391.94  Z
  " fill="#009af9" fill-rule="evenodd" fill-opacity="1"/>
<polyline clip-path="url(#clip122)" style="stroke:#009af9; stroke-linecap:butt; stroke-linejoin:round; stroke-width:4; stroke-opacity:1; fill:none" points="
  621.127,1391.94 621.127,1464 662.464,1464 662.464,1391.94 621.127,1391.94 
  "/>
<path clip-path="url(#clip122)" d="
M662.464 1335.72 L662.464 1464 L703.801 1464 L703.801 1335.72 L662.464 1335.72 L662.464 1335.72  Z
  " fill="#009af9" fill-rule="evenodd" fill-opacity="1"/>
<polyline clip-path="url(#clip122)" style="stroke:#009af9; stroke-linecap:butt; stroke-linejoin:round; stroke-width:4; stroke-opacity:1; fill:none" points="
  662.464,1335.72 662.464,1464 703.801,1464 703.801,1335.72 662.464,1335.72 
  "/>
<path clip-path="url(#clip122)" d="
M703.801 1258.66 L703.801 1464 L745.138 1464 L745.138 1258.66 L703.801 1258.66 L703.801 1258.66  Z
  " fill="#009af9" fill-rule="evenodd" fill-opacity="1"/>
<polyline clip-path="url(#clip122)" style="stroke:#009af9; stroke-linecap:butt; stroke-linejoin:round; stroke-width:4; stroke-opacity:1; fill:none" points="
  703.801,1258.66 703.801,1464 745.138,1464 745.138,1258.66 703.801,1258.66 
  "/>
<path clip-path="url(#clip122)" d="
M745.138 1142.18 L745.138 1464 L786.475 1464 L786.475 1142.18 L745.138 1142.18 L745.138 1142.18  Z
  " fill="#009af9" fill-rule="evenodd" fill-opacity="1"/>
<polyline clip-path="url(#clip122)" style="stroke:#009af9; stroke-linecap:butt; stroke-linejoin:round; stroke-width:4; stroke-opacity:1; fill:none" points="
  745.138,1142.18 745.138,1464 786.475,1464 786.475,1142.18 745.138,1142.18 
  "/>
<path clip-path="url(#clip122)" d="
M786.475 989.021 L786.475 1464 L827.812 1464 L827.812 989.021 L786.475 989.021 L786.475 989.021  Z
  " fill="#009af9" fill-rule="evenodd" fill-opacity="1"/>
<polyline clip-path="url(#clip122)" style="stroke:#009af9; stroke-linecap:butt; stroke-linejoin:round; stroke-width:4; stroke-opacity:1; fill:none" points="
  786.475,989.021 786.475,1464 827.812,1464 827.812,989.021 786.475,989.021 
  "/>
<path clip-path="url(#clip122)" d="
M827.812 819.064 L827.812 1464 L869.149 1464 L869.149 819.064 L827.812 819.064 L827.812 819.064  Z
  " fill="#009af9" fill-rule="evenodd" fill-opacity="1"/>
<polyline clip-path="url(#clip122)" style="stroke:#009af9; stroke-linecap:butt; stroke-linejoin:round; stroke-width:4; stroke-opacity:1; fill:none" points="
  827.812,819.064 827.812,1464 869.149,1464 869.149,819.064 827.812,819.064 
  "/>
<path clip-path="url(#clip122)" d="
M869.149 630.205 L869.149 1464 L910.486 1464 L910.486 630.205 L869.149 630.205 L869.149 630.205  Z
  " fill="#009af9" fill-rule="evenodd" fill-opacity="1"/>
<polyline clip-path="url(#clip122)" style="stroke:#009af9; stroke-linecap:butt; stroke-linejoin:round; stroke-width:4; stroke-opacity:1; fill:none" points="
  869.149,630.205 869.149,1464 910.486,1464 910.486,630.205 869.149,630.205 
  "/>
<path clip-path="url(#clip122)" d="
M910.486 450.878 L910.486 1464 L951.823 1464 L951.823 450.878 L910.486 450.878 L910.486 450.878  Z
  " fill="#009af9" fill-rule="evenodd" fill-opacity="1"/>
<polyline clip-path="url(#clip122)" style="stroke:#009af9; stroke-linecap:butt; stroke-linejoin:round; stroke-width:4; stroke-opacity:1; fill:none" points="
  910.486,450.878 910.486,1464 951.823,1464 951.823,450.878 910.486,450.878 
  "/>
<path clip-path="url(#clip122)" d="
M951.823 271.551 L951.823 1464 L993.16 1464 L993.16 271.551 L951.823 271.551 L951.823 271.551  Z
  " fill="#009af9" fill-rule="evenodd" fill-opacity="1"/>
<polyline clip-path="url(#clip122)" style="stroke:#009af9; stroke-linecap:butt; stroke-linejoin:round; stroke-width:4; stroke-opacity:1; fill:none" points="
  951.823,271.551 951.823,1464 993.16,1464 993.16,271.551 951.823,271.551 
  "/>
<path clip-path="url(#clip122)" d="
M993.16 187.704 L993.16 1464 L1034.5 1464 L1034.5 187.704 L993.16 187.704 L993.16 187.704  Z
  " fill="#009af9" fill-rule="evenodd" fill-opacity="1"/>
<polyline clip-path="url(#clip122)" style="stroke:#009af9; stroke-linecap:butt; stroke-linejoin:round; stroke-width:4; stroke-opacity:1; fill:none" points="
  993.16,187.704 993.16,1464 1034.5,1464 1034.5,187.704 993.16,187.704 
  "/>
<path clip-path="url(#clip122)" d="
M1034.5 113.227 L1034.5 1464 L1075.83 1464 L1075.83 113.227 L1034.5 113.227 L1034.5 113.227  Z
  " fill="#009af9" fill-rule="evenodd" fill-opacity="1"/>
<polyline clip-path="url(#clip122)" style="stroke:#009af9; stroke-linecap:butt; stroke-linejoin:round; stroke-width:4; stroke-opacity:1; fill:none" points="
  1034.5,113.227 1034.5,1464 1075.83,1464 1075.83,113.227 1034.5,113.227 
  "/>
<path clip-path="url(#clip122)" d="
M1075.83 88.5087 L1075.83 1464 L1117.17 1464 L1117.17 88.5087 L1075.83 88.5087 L1075.83 88.5087  Z
  " fill="#009af9" fill-rule="evenodd" fill-opacity="1"/>
<polyline clip-path="url(#clip122)" style="stroke:#009af9; stroke-linecap:butt; stroke-linejoin:round; stroke-width:4; stroke-opacity:1; fill:none" points="
  1075.83,88.5087 1075.83,1464 1117.17,1464 1117.17,88.5087 1075.83,88.5087 
  "/>
<path clip-path="url(#clip122)" d="
M1117.17 180.596 L1117.17 1464 L1158.51 1464 L1158.51 180.596 L1117.17 180.596 L1117.17 180.596  Z
  " fill="#009af9" fill-rule="evenodd" fill-opacity="1"/>
<polyline clip-path="url(#clip122)" style="stroke:#009af9; stroke-linecap:butt; stroke-linejoin:round; stroke-width:4; stroke-opacity:1; fill:none" points="
  1117.17,180.596 1117.17,1464 1158.51,1464 1158.51,180.596 1117.17,180.596 
  "/>
<path clip-path="url(#clip122)" d="
M1158.51 269.613 L1158.51 1464 L1199.85 1464 L1199.85 269.613 L1158.51 269.613 L1158.51 269.613  Z
  " fill="#009af9" fill-rule="evenodd" fill-opacity="1"/>
<polyline clip-path="url(#clip122)" style="stroke:#009af9; stroke-linecap:butt; stroke-linejoin:round; stroke-width:4; stroke-opacity:1; fill:none" points="
  1158.51,269.613 1158.51,1464 1199.85,1464 1199.85,269.613 1158.51,269.613 
  "/>
<path clip-path="url(#clip122)" d="
M1199.85 402.573 L1199.85 1464 L1241.18 1464 L1241.18 402.573 L1199.85 402.573 L1199.85 402.573  Z
  " fill="#009af9" fill-rule="evenodd" fill-opacity="1"/>
<polyline clip-path="url(#clip122)" style="stroke:#009af9; stroke-linecap:butt; stroke-linejoin:round; stroke-width:4; stroke-opacity:1; fill:none" points="
  1199.85,402.573 1199.85,1464 1241.18,1464 1241.18,402.573 1199.85,402.573 
  "/>
<path clip-path="url(#clip122)" d="
M1241.18 575.276 L1241.18 1464 L1282.52 1464 L1282.52 575.276 L1241.18 575.276 L1241.18 575.276  Z
  " fill="#009af9" fill-rule="evenodd" fill-opacity="1"/>
<polyline clip-path="url(#clip122)" style="stroke:#009af9; stroke-linecap:butt; stroke-linejoin:round; stroke-width:4; stroke-opacity:1; fill:none" points="
  1241.18,575.276 1241.18,1464 1282.52,1464 1282.52,575.276 1241.18,575.276 
  "/>
<path clip-path="url(#clip122)" d="
M1282.52 738.771 L1282.52 1464 L1323.86 1464 L1323.86 738.771 L1282.52 738.771 L1282.52 738.771  Z
  " fill="#009af9" fill-rule="evenodd" fill-opacity="1"/>
<polyline clip-path="url(#clip122)" style="stroke:#009af9; stroke-linecap:butt; stroke-linejoin:round; stroke-width:4; stroke-opacity:1; fill:none" points="
  1282.52,738.771 1282.52,1464 1323.86,1464 1323.86,738.771 1282.52,738.771 
  "/>
<path clip-path="url(#clip122)" d="
M1323.86 877.709 L1323.86 1464 L1365.19 1464 L1365.19 877.709 L1323.86 877.709 L1323.86 877.709  Z
  " fill="#009af9" fill-rule="evenodd" fill-opacity="1"/>
<polyline clip-path="url(#clip122)" style="stroke:#009af9; stroke-linecap:butt; stroke-linejoin:round; stroke-width:4; stroke-opacity:1; fill:none" points="
  1323.86,877.709 1323.86,1464 1365.19,1464 1365.19,877.709 1323.86,877.709 
  "/>
<path clip-path="url(#clip122)" d="
M1365.19 1021.17 L1365.19 1464 L1406.53 1464 L1406.53 1021.17 L1365.19 1021.17 L1365.19 1021.17  Z
  " fill="#009af9" fill-rule="evenodd" fill-opacity="1"/>
<polyline clip-path="url(#clip122)" style="stroke:#009af9; stroke-linecap:butt; stroke-linejoin:round; stroke-width:4; stroke-opacity:1; fill:none" points="
  1365.19,1021.17 1365.19,1464 1406.53,1464 1406.53,1021.17 1365.19,1021.17 
  "/>
<path clip-path="url(#clip122)" d="
M1406.53 1141.21 L1406.53 1464 L1447.87 1464 L1447.87 1141.21 L1406.53 1141.21 L1406.53 1141.21  Z
  " fill="#009af9" fill-rule="evenodd" fill-opacity="1"/>
<polyline clip-path="url(#clip122)" style="stroke:#009af9; stroke-linecap:butt; stroke-linejoin:round; stroke-width:4; stroke-opacity:1; fill:none" points="
  1406.53,1141.21 1406.53,1464 1447.87,1464 1447.87,1141.21 1406.53,1141.21 
  "/>
<path clip-path="url(#clip122)" d="
M1447.87 1226.99 L1447.87 1464 L1489.2 1464 L1489.2 1226.99 L1447.87 1226.99 L1447.87 1226.99  Z
  " fill="#009af9" fill-rule="evenodd" fill-opacity="1"/>
<polyline clip-path="url(#clip122)" style="stroke:#009af9; stroke-linecap:butt; stroke-linejoin:round; stroke-width:4; stroke-opacity:1; fill:none" points="
  1447.87,1226.99 1447.87,1464 1489.2,1464 1489.2,1226.99 1447.87,1226.99 
  "/>
<path clip-path="url(#clip122)" d="
M1489.2 1300.82 L1489.2 1464 L1530.54 1464 L1530.54 1300.82 L1489.2 1300.82 L1489.2 1300.82  Z
  " fill="#009af9" fill-rule="evenodd" fill-opacity="1"/>
<polyline clip-path="url(#clip122)" style="stroke:#009af9; stroke-linecap:butt; stroke-linejoin:round; stroke-width:4; stroke-opacity:1; fill:none" points="
  1489.2,1300.82 1489.2,1464 1530.54,1464 1530.54,1300.82 1489.2,1300.82 
  "/>
<path clip-path="url(#clip122)" d="
M1530.54 1358.18 L1530.54 1464 L1571.88 1464 L1571.88 1358.18 L1530.54 1358.18 L1530.54 1358.18  Z
  " fill="#009af9" fill-rule="evenodd" fill-opacity="1"/>
<polyline clip-path="url(#clip122)" style="stroke:#009af9; stroke-linecap:butt; stroke-linejoin:round; stroke-width:4; stroke-opacity:1; fill:none" points="
  1530.54,1358.18 1530.54,1464 1571.88,1464 1571.88,1358.18 1530.54,1358.18 
  "/>
<path clip-path="url(#clip122)" d="
M1571.88 1396.3 L1571.88 1464 L1613.22 1464 L1613.22 1396.3 L1571.88 1396.3 L1571.88 1396.3  Z
  " fill="#009af9" fill-rule="evenodd" fill-opacity="1"/>
<polyline clip-path="url(#clip122)" style="stroke:#009af9; stroke-linecap:butt; stroke-linejoin:round; stroke-width:4; stroke-opacity:1; fill:none" points="
  1571.88,1396.3 1571.88,1464 1613.22,1464 1613.22,1396.3 1571.88,1396.3 
  "/>
<path clip-path="url(#clip122)" d="
M1613.22 1422.8 L1613.22 1464 L1654.55 1464 L1654.55 1422.8 L1613.22 1422.8 L1613.22 1422.8  Z
  " fill="#009af9" fill-rule="evenodd" fill-opacity="1"/>
<polyline clip-path="url(#clip122)" style="stroke:#009af9; stroke-linecap:butt; stroke-linejoin:round; stroke-width:4; stroke-opacity:1; fill:none" points="
  1613.22,1422.8 1613.22,1464 1654.55,1464 1654.55,1422.8 1613.22,1422.8 
  "/>
<path clip-path="url(#clip122)" d="
M1654.55 1436.21 L1654.55 1464 L1695.89 1464 L1695.89 1436.21 L1654.55 1436.21 L1654.55 1436.21  Z
  " fill="#009af9" fill-rule="evenodd" fill-opacity="1"/>
<polyline clip-path="url(#clip122)" style="stroke:#009af9; stroke-linecap:butt; stroke-linejoin:round; stroke-width:4; stroke-opacity:1; fill:none" points="
  1654.55,1436.21 1654.55,1464 1695.89,1464 1695.89,1436.21 1654.55,1436.21 
  "/>
<path clip-path="url(#clip122)" d="
M1695.89 1448 L1695.89 1464 L1737.23 1464 L1737.23 1448 L1695.89 1448 L1695.89 1448  Z
  " fill="#009af9" fill-rule="evenodd" fill-opacity="1"/>
<polyline clip-path="url(#clip122)" style="stroke:#009af9; stroke-linecap:butt; stroke-linejoin:round; stroke-width:4; stroke-opacity:1; fill:none" points="
  1695.89,1448 1695.89,1464 1737.23,1464 1737.23,1448 1695.89,1448 
  "/>
<path clip-path="url(#clip122)" d="
M1737.23 1454.3 L1737.23 1464 L1778.56 1464 L1778.56 1454.3 L1737.23 1454.3 L1737.23 1454.3  Z
  " fill="#009af9" fill-rule="evenodd" fill-opacity="1"/>
<polyline clip-path="url(#clip122)" style="stroke:#009af9; stroke-linecap:butt; stroke-linejoin:round; stroke-width:4; stroke-opacity:1; fill:none" points="
  1737.23,1454.3 1737.23,1464 1778.56,1464 1778.56,1454.3 1737.23,1454.3 
  "/>
<path clip-path="url(#clip122)" d="
M1778.56 1459.63 L1778.56 1464 L1819.9 1464 L1819.9 1459.63 L1778.56 1459.63 L1778.56 1459.63  Z
  " fill="#009af9" fill-rule="evenodd" fill-opacity="1"/>
<polyline clip-path="url(#clip122)" style="stroke:#009af9; stroke-linecap:butt; stroke-linejoin:round; stroke-width:4; stroke-opacity:1; fill:none" points="
  1778.56,1459.63 1778.56,1464 1819.9,1464 1819.9,1459.63 1778.56,1459.63 
  "/>
<path clip-path="url(#clip122)" d="
M1819.9 1460.12 L1819.9 1464 L1861.24 1464 L1861.24 1460.12 L1819.9 1460.12 L1819.9 1460.12  Z
  " fill="#009af9" fill-rule="evenodd" fill-opacity="1"/>
<polyline clip-path="url(#clip122)" style="stroke:#009af9; stroke-linecap:butt; stroke-linejoin:round; stroke-width:4; stroke-opacity:1; fill:none" points="
  1819.9,1460.12 1819.9,1464 1861.24,1464 1861.24,1460.12 1819.9,1460.12 
  "/>
<path clip-path="url(#clip122)" d="
M1861.24 1462.38 L1861.24 1464 L1902.58 1464 L1902.58 1462.38 L1861.24 1462.38 L1861.24 1462.38  Z
  " fill="#009af9" fill-rule="evenodd" fill-opacity="1"/>
<polyline clip-path="url(#clip122)" style="stroke:#009af9; stroke-linecap:butt; stroke-linejoin:round; stroke-width:4; stroke-opacity:1; fill:none" points="
  1861.24,1462.38 1861.24,1464 1902.58,1464 1902.58,1462.38 1861.24,1462.38 
  "/>
<path clip-path="url(#clip122)" d="
M1902.58 1463.03 L1902.58 1464 L1943.91 1464 L1943.91 1463.03 L1902.58 1463.03 L1902.58 1463.03  Z
  " fill="#009af9" fill-rule="evenodd" fill-opacity="1"/>
<polyline clip-path="url(#clip122)" style="stroke:#009af9; stroke-linecap:butt; stroke-linejoin:round; stroke-width:4; stroke-opacity:1; fill:none" points="
  1902.58,1463.03 1902.58,1464 1943.91,1464 1943.91,1463.03 1902.58,1463.03 
  "/>
<path clip-path="url(#clip122)" d="
M1943.91 1463.19 L1943.91 1464 L1985.25 1464 L1985.25 1463.19 L1943.91 1463.19 L1943.91 1463.19  Z
  " fill="#009af9" fill-rule="evenodd" fill-opacity="1"/>
<polyline clip-path="url(#clip122)" style="stroke:#009af9; stroke-linecap:butt; stroke-linejoin:round; stroke-width:4; stroke-opacity:1; fill:none" points="
  1943.91,1463.19 1943.91,1464 1985.25,1464 1985.25,1463.19 1943.91,1463.19 
  "/>
<path clip-path="url(#clip122)" d="
M1985.25 1464 L1985.25 1464 L2026.59 1464 L2026.59 1464 L1985.25 1464 L1985.25 1464  Z
  " fill="#009af9" fill-rule="evenodd" fill-opacity="1"/>
<polyline clip-path="url(#clip122)" style="stroke:#009af9; stroke-linecap:butt; stroke-linejoin:round; stroke-width:4; stroke-opacity:1; fill:none" points="
  1985.25,1464 1985.25,1464 2026.59,1464 1985.25,1464 
  "/>
<path clip-path="url(#clip122)" d="
M2026.59 1464 L2026.59 1464 L2067.92 1464 L2067.92 1464 L2026.59 1464 L2026.59 1464  Z
  " fill="#009af9" fill-rule="evenodd" fill-opacity="1"/>
<polyline clip-path="url(#clip122)" style="stroke:#009af9; stroke-linecap:butt; stroke-linejoin:round; stroke-width:4; stroke-opacity:1; fill:none" points="
  2026.59,1464 2026.59,1464 2067.92,1464 2026.59,1464 
  "/>
<path clip-path="url(#clip122)" d="
M2067.92 1464 L2067.92 1464 L2109.26 1464 L2109.26 1464 L2067.92 1464 L2067.92 1464  Z
  " fill="#009af9" fill-rule="evenodd" fill-opacity="1"/>
<polyline clip-path="url(#clip122)" style="stroke:#009af9; stroke-linecap:butt; stroke-linejoin:round; stroke-width:4; stroke-opacity:1; fill:none" points="
  2067.92,1464 2067.92,1464 2109.26,1464 2067.92,1464 
  "/>
<path clip-path="url(#clip122)" d="
M2109.26 1464 L2109.26 1464 L2150.6 1464 L2150.6 1464 L2109.26 1464 L2109.26 1464  Z
  " fill="#009af9" fill-rule="evenodd" fill-opacity="1"/>
<polyline clip-path="url(#clip122)" style="stroke:#009af9; stroke-linecap:butt; stroke-linejoin:round; stroke-width:4; stroke-opacity:1; fill:none" points="
  2109.26,1464 2109.26,1464 2150.6,1464 2109.26,1464 
  "/>
<path clip-path="url(#clip122)" d="
M2150.6 1464 L2150.6 1464 L2191.93 1464 L2191.93 1464 L2150.6 1464 L2150.6 1464  Z
  " fill="#009af9" fill-rule="evenodd" fill-opacity="1"/>
<polyline clip-path="url(#clip122)" style="stroke:#009af9; stroke-linecap:butt; stroke-linejoin:round; stroke-width:4; stroke-opacity:1; fill:none" points="
  2150.6,1464 2150.6,1464 2191.93,1464 2150.6,1464 
  "/>
<path clip-path="url(#clip122)" d="
M2191.93 1463.83 L2191.93 1464 L2233.27 1464 L2233.27 1463.83 L2191.93 1463.83 L2191.93 1463.83  Z
  " fill="#009af9" fill-rule="evenodd" fill-opacity="1"/>
<polyline clip-path="url(#clip122)" style="stroke:#009af9; stroke-linecap:butt; stroke-linejoin:round; stroke-width:4; stroke-opacity:1; fill:none" points="
  2191.93,1463.83 2191.93,1464 2233.27,1464 2233.27,1463.83 2191.93,1463.83 
  "/>
<polyline clip-path="url(#clip122)" style="stroke:#e26f46; stroke-linecap:butt; stroke-linejoin:round; stroke-width:12; stroke-opacity:1; fill:none" points="
  166.42,1463.97 170.554,1463.97 174.687,1463.97 178.821,1463.96 182.955,1463.96 187.088,1463.96 191.222,1463.95 195.356,1463.95 199.489,1463.94 203.623,1463.94 
  207.757,1463.93 211.891,1463.93 216.024,1463.92 220.158,1463.91 224.292,1463.91 228.425,1463.9 232.559,1463.89 236.693,1463.88 240.826,1463.87 244.96,1463.85 
  249.094,1463.84 253.228,1463.83 257.361,1463.81 261.495,1463.79 265.629,1463.77 269.762,1463.75 273.896,1463.73 278.03,1463.71 282.164,1463.68 286.297,1463.65 
  290.431,1463.62 294.565,1463.59 298.698,1463.55 302.832,1463.51 306.966,1463.47 311.099,1463.42 315.233,1463.37 319.367,1463.32 323.501,1463.26 327.634,1463.19 
  331.768,1463.13 335.902,1463.05 340.035,1462.97 344.169,1462.89 348.303,1462.79 352.436,1462.69 356.57,1462.59 360.704,1462.47 364.838,1462.35 368.971,1462.21 
  373.105,1462.07 377.239,1461.91 381.372,1461.75 385.506,1461.57 389.64,1461.38 393.774,1461.17 397.907,1460.96 402.041,1460.72 406.175,1460.47 410.308,1460.2 
  414.442,1459.91 418.576,1459.61 422.709,1459.28 426.843,1458.93 430.977,1458.56 435.111,1458.16 439.244,1457.73 443.378,1457.28 447.512,1456.8 451.645,1456.29 
  455.779,1455.74 459.913,1455.16 464.046,1454.54 468.18,1453.89 472.314,1453.19 476.448,1452.45 480.581,1451.67 484.715,1450.84 488.849,1449.96 492.982,1449.02 
  497.116,1448.04 501.25,1446.99 505.383,1445.89 509.517,1444.72 513.651,1443.49 517.785,1442.18 521.918,1440.81 526.052,1439.36 530.186,1437.83 534.319,1436.22 
  538.453,1434.52 542.587,1432.73 546.721,1430.85 550.854,1428.87 554.988,1426.79 559.122,1424.61 563.255,1422.32 567.389,1419.91 571.523,1417.38 575.656,1414.74 
  579.79,1411.97 583.924,1409.06 588.058,1406.02 592.191,1402.84 596.325,1399.51 600.459,1396.04 604.592,1392.41 608.726,1388.62 612.86,1384.66 616.993,1380.54 
  621.127,1376.24 625.261,1371.76 629.395,1367.1 633.528,1362.25 637.662,1357.2 641.796,1351.95 645.929,1346.5 650.063,1340.84 654.197,1334.97 658.33,1328.88 
  662.464,1322.56 666.598,1316.02 670.732,1309.24 674.865,1302.23 678.999,1294.98 683.133,1287.48 687.266,1279.73 691.4,1271.73 695.534,1263.48 699.668,1254.96 
  703.801,1246.18 707.935,1237.14 712.069,1227.83 716.202,1218.24 720.336,1208.39 724.47,1198.26 728.603,1187.85 732.737,1177.17 736.871,1166.21 741.005,1154.97 
  745.138,1143.46 749.272,1131.66 753.406,1119.59 757.539,1107.24 761.673,1094.62 765.807,1081.72 769.94,1068.55 774.074,1055.12 778.208,1041.42 782.342,1027.46 
  786.475,1013.24 790.609,998.778 794.743,984.065 798.876,969.111 803.01,953.924 807.144,938.509 811.277,922.875 815.411,907.029 819.545,890.979 823.679,874.734 
  827.812,858.305 831.946,841.7 836.08,824.931 840.213,808.008 844.347,790.943 848.481,773.747 852.615,756.434 856.748,739.017 860.882,721.508 865.016,703.922 
  869.149,686.273 873.283,668.576 877.417,650.846 881.55,633.099 885.684,615.35 889.818,597.615 893.952,579.912 898.085,562.258 902.219,544.668 906.353,527.162 
  910.486,509.756 914.62,492.468 918.754,475.317 922.887,458.32 927.021,441.496 931.155,424.862 935.289,408.439 939.422,392.242 943.556,376.292 947.69,360.606 
  951.823,345.203 955.957,330.1 960.091,315.315 964.224,300.866 968.358,286.771 972.492,273.047 976.626,259.71 980.759,246.777 984.893,234.264 989.027,222.187 
  993.16,210.562 997.294,199.403 1001.43,188.724 1005.56,178.539 1009.7,168.862 1013.83,159.705 1017.96,151.08 1022.1,142.999 1026.23,135.472 1030.36,128.509 
  1034.5,122.12 1038.63,116.313 1042.76,111.096 1046.9,106.476 1051.03,102.459 1055.17,99.0508 1059.3,96.256 1063.43,94.0783 1067.57,92.5207 1071.7,91.5853 
  1075.83,91.2733 1079.97,91.5853 1084.1,92.5207 1088.24,94.0783 1092.37,96.256 1096.5,99.0508 1100.64,102.459 1104.77,106.476 1108.9,111.096 1113.04,116.313 
  1117.17,122.12 1121.31,128.509 1125.44,135.472 1129.57,142.999 1133.71,151.08 1137.84,159.705 1141.97,168.862 1146.11,178.539 1150.24,188.724 1154.37,199.403 
  1158.51,210.562 1162.64,222.187 1166.78,234.264 1170.91,246.777 1175.04,259.71 1179.18,273.047 1183.31,286.771 1187.44,300.866 1191.58,315.315 1195.71,330.1 
  1199.85,345.203 1203.98,360.606 1208.11,376.292 1212.25,392.242 1216.38,408.439 1220.51,424.862 1224.65,441.496 1228.78,458.32 1232.92,475.317 1237.05,492.468 
  1241.18,509.756 1245.32,527.162 1249.45,544.668 1253.58,562.258 1257.72,579.912 1261.85,597.615 1265.98,615.35 1270.12,633.099 1274.25,650.846 1278.39,668.576 
  1282.52,686.273 1286.65,703.922 1290.79,721.508 1294.92,739.017 1299.05,756.434 1303.19,773.747 1307.32,790.943 1311.46,808.008 1315.59,824.931 1319.72,841.7 
  1323.86,858.305 1327.99,874.734 1332.12,890.979 1336.26,907.029 1340.39,922.875 1344.53,938.509 1348.66,953.924 1352.79,969.111 1356.93,984.065 1361.06,998.778 
  1365.19,1013.24 1369.33,1027.46 1373.46,1041.42 1377.59,1055.12 1381.73,1068.55 1385.86,1081.72 1390,1094.62 1394.13,1107.24 1398.26,1119.59 1402.4,1131.66 
  1406.53,1143.46 1410.66,1154.97 1414.8,1166.21 1418.93,1177.17 1423.07,1187.85 1427.2,1198.26 1431.33,1208.39 1435.47,1218.24 1439.6,1227.83 1443.73,1237.14 
  1447.87,1246.18 1452,1254.96 1456.14,1263.48 1460.27,1271.73 1464.4,1279.73 1468.54,1287.48 1472.67,1294.98 1476.8,1302.23 1480.94,1309.24 1485.07,1316.02 
  1489.2,1322.56 1493.34,1328.88 1497.47,1334.97 1501.61,1340.84 1505.74,1346.5 1509.87,1351.95 1514.01,1357.2 1518.14,1362.25 1522.27,1367.1 1526.41,1371.76 
  1530.54,1376.24 1534.68,1380.54 1538.81,1384.66 1542.94,1388.62 1547.08,1392.41 1551.21,1396.04 1555.34,1399.51 1559.48,1402.84 1563.61,1406.02 1567.75,1409.06 
  1571.88,1411.97 1576.01,1414.74 1580.15,1417.38 1584.28,1419.91 1588.41,1422.32 1592.55,1424.61 1596.68,1426.79 1600.81,1428.87 1604.95,1430.85 1609.08,1432.73 
  1613.22,1434.52 1617.35,1436.22 1621.48,1437.83 1625.62,1439.36 1629.75,1440.81 1633.88,1442.18 1638.02,1443.49 1642.15,1444.72 1646.29,1445.89 1650.42,1446.99 
  1654.55,1448.04 1658.69,1449.02 1662.82,1449.96 1666.95,1450.84 1671.09,1451.67 1675.22,1452.45 1679.36,1453.19 1683.49,1453.89 1687.62,1454.54 1691.76,1455.16 
  1695.89,1455.74 1700.02,1456.29 1704.16,1456.8 1708.29,1457.28 1712.42,1457.73 1716.56,1458.16 1720.69,1458.56 1724.83,1458.93 1728.96,1459.28 1733.09,1459.61 
  1737.23,1459.91 1741.36,1460.2 1745.49,1460.47 1749.63,1460.72 1753.76,1460.96 1757.9,1461.17 1762.03,1461.38 1766.16,1461.57 1770.3,1461.75 1774.43,1461.91 
  1778.56,1462.07 1782.7,1462.21 1786.83,1462.35 1790.97,1462.47 1795.1,1462.59 1799.23,1462.69 1803.37,1462.79 1807.5,1462.89 1811.63,1462.97 1815.77,1463.05 
  1819.9,1463.13 1824.03,1463.19 1828.17,1463.26 1832.3,1463.32 1836.44,1463.37 1840.57,1463.42 1844.7,1463.47 1848.84,1463.51 1852.97,1463.55 1857.1,1463.59 
  1861.24,1463.62 1865.37,1463.65 1869.51,1463.68 1873.64,1463.71 1877.77,1463.73 1881.91,1463.75 1886.04,1463.77 1890.17,1463.79 1894.31,1463.81 1898.44,1463.83 
  1902.58,1463.84 1906.71,1463.85 1910.84,1463.87 1914.98,1463.88 1919.11,1463.89 1923.24,1463.9 1927.38,1463.91 1931.51,1463.91 1935.64,1463.92 1939.78,1463.93 
  1943.91,1463.93 1948.05,1463.94 1952.18,1463.94 1956.31,1463.95 1960.45,1463.95 1964.58,1463.96 1968.71,1463.96 1972.85,1463.96 1976.98,1463.97 1981.12,1463.97 
  1985.25,1463.97 1989.38,1463.97 1993.52,1463.98 1997.65,1463.98 2001.78,1463.98 2005.92,1463.98 2010.05,1463.98 2014.18,1463.98 2018.32,1463.99 2022.45,1463.99 
  2026.59,1463.99 2030.72,1463.99 2034.85,1463.99 2038.99,1463.99 2043.12,1463.99 2047.25,1463.99 2051.39,1463.99 2055.52,1463.99 2059.66,1463.99 2063.79,1463.99 
  2067.92,1463.99 2072.06,1463.99 2076.19,1463.99 2080.32,1463.99 2084.46,1463.99 2088.59,1463.99 2092.73,1463.99 2096.86,1463.99 2100.99,1463.99 2105.13,1463.99 
  2109.26,1463.99 2113.39,1463.99 2117.53,1463.99 2121.66,1463.99 2125.79,1463.99 2129.93,1463.99 2134.06,1463.99 2138.2,1463.99 2142.33,1463.99 2146.46,1463.99 
  2150.6,1463.99 2154.73,1463.99 2158.86,1464 2163,1464 2167.13,1464 2171.27,1464 2175.4,1464 2179.53,1464 2183.67,1464 2187.8,1464 
  2191.93,1464 
  "/>
<polyline clip-path="url(#clip122)" style="stroke:#3da44d; stroke-linecap:butt; stroke-linejoin:round; stroke-width:12; stroke-opacity:1; fill:none" points="
  166.42,1464 170.554,1464 174.687,1464 178.821,1464 182.955,1464 187.088,1464 191.222,1464 195.356,1464 199.489,1464 203.623,1464 
  207.757,1464 211.891,1464 216.024,1464 220.158,1464 224.292,1463.99 228.425,1463.99 232.559,1463.99 236.693,1463.99 240.826,1463.99 244.96,1463.99 
  249.094,1463.99 253.228,1463.99 257.361,1463.99 261.495,1463.99 265.629,1463.99 269.762,1463.99 273.896,1463.99 278.03,1463.99 282.164,1463.99 286.297,1463.99 
  290.431,1463.99 294.565,1463.99 298.698,1463.98 302.832,1463.98 306.966,1463.98 311.099,1463.98 315.233,1463.97 319.367,1463.97 323.501,1463.96 327.634,1463.96 
  331.768,1463.95 335.902,1463.94 340.035,1463.94 344.169,1463.93 348.303,1463.91 352.436,1463.9 356.57,1463.89 360.704,1463.87 364.838,1463.85 368.971,1463.83 
  373.105,1463.8 377.239,1463.77 381.372,1463.74 385.506,1463.7 389.64,1463.66 393.774,1463.62 397.907,1463.57 402.041,1463.51 406.175,1463.44 410.308,1463.37 
  414.442,1463.29 418.576,1463.2 422.709,1463.09 426.843,1462.98 430.977,1462.85 435.111,1462.72 439.244,1462.56 443.378,1462.39 447.512,1462.2 451.645,1462 
  455.779,1461.77 459.913,1461.52 464.046,1461.24 468.18,1460.94 472.314,1460.61 476.448,1460.24 480.581,1459.85 484.715,1459.41 488.849,1458.94 492.982,1458.43 
  497.116,1457.87 501.25,1457.26 505.383,1456.6 509.517,1455.89 513.651,1455.12 517.785,1454.28 521.918,1453.38 526.052,1452.41 530.186,1451.36 534.319,1450.23 
  538.453,1449.02 542.587,1447.71 546.721,1446.32 550.854,1444.82 554.988,1443.22 559.122,1441.5 563.255,1439.67 567.389,1437.71 571.523,1435.63 575.656,1433.41 
  579.79,1431.04 583.924,1428.53 588.058,1425.87 592.191,1423.04 596.325,1420.04 600.459,1416.86 604.592,1413.5 608.726,1409.96 612.86,1406.21 616.993,1402.26 
  621.127,1398.09 625.261,1393.71 629.395,1389.1 633.528,1384.25 637.662,1379.17 641.796,1373.83 645.929,1368.24 650.063,1362.38 654.197,1356.26 658.33,1349.86 
  662.464,1343.17 666.598,1336.2 670.732,1328.93 674.865,1321.37 678.999,1313.49 683.133,1305.3 687.266,1296.8 691.4,1287.97 695.534,1278.82 699.668,1269.34 
  703.801,1259.53 707.935,1249.38 712.069,1238.89 716.202,1228.07 720.336,1216.9 724.47,1205.39 728.603,1193.53 732.737,1181.33 736.871,1168.79 741.005,1155.91 
  745.138,1142.69 749.272,1129.14 753.406,1115.25 757.539,1101.03 761.673,1086.49 765.807,1071.62 769.94,1056.45 774.074,1040.96 778.208,1025.18 782.342,1009.11 
  786.475,992.751 790.609,976.121 794.743,959.228 798.876,942.082 803.01,924.695 807.144,907.079 811.277,889.247 815.411,871.213 819.545,852.989 823.679,834.591 
  827.812,816.035 831.946,797.335 836.08,778.509 840.213,759.573 844.347,740.544 848.481,721.441 852.615,702.281 856.748,683.084 860.882,663.868 865.016,644.653 
  869.149,625.458 873.283,606.304 877.417,587.21 881.55,568.198 885.684,549.287 889.818,530.498 893.952,511.853 898.085,493.371 902.219,475.074 906.353,456.982 
  910.486,439.117 914.62,421.497 918.754,404.145 922.887,387.08 927.021,370.322 931.155,353.891 935.289,337.805 939.422,322.084 943.556,306.747 947.69,291.811 
  951.823,277.294 955.957,263.212 960.091,249.584 964.224,236.424 968.358,223.747 972.492,211.57 976.626,199.904 980.759,188.765 984.893,178.164 989.027,168.113 
  993.16,158.623 997.294,149.706 1001.43,141.369 1005.56,133.622 1009.7,126.473 1013.83,119.929 1017.96,113.995 1022.1,108.678 1026.23,103.981 1030.36,99.9085 
  1034.5,96.4628 1038.63,93.6458 1042.76,91.4585 1046.9,89.901 1051.03,88.9724 1055.17,88.6713 1059.3,88.9952 1063.43,89.9407 1067.57,91.5039 1071.7,93.6798 
  1075.83,96.4628 1079.97,99.8465 1084.1,103.824 1088.24,108.387 1092.37,113.526 1096.5,119.234 1100.64,125.5 1104.77,132.312 1108.9,139.661 1113.04,147.535 
  1117.17,155.921 1121.31,164.806 1125.44,174.177 1129.57,184.021 1133.71,194.324 1137.84,205.07 1141.97,216.245 1146.11,227.834 1150.24,239.821 1154.37,252.191 
  1158.51,264.927 1162.64,278.013 1166.78,291.434 1170.91,305.171 1175.04,319.209 1179.18,333.532 1183.31,348.121 1187.44,362.961 1191.58,378.034 1195.71,393.325 
  1199.85,408.815 1203.98,424.489 1208.11,440.33 1212.25,456.322 1216.38,472.448 1220.51,488.693 1224.65,505.041 1228.78,521.476 1232.92,537.982 1237.05,554.545 
  1241.18,571.151 1245.32,587.783 1249.45,604.429 1253.58,621.075 1257.72,637.706 1261.85,654.311 1265.98,670.875 1270.12,687.387 1274.25,703.835 1278.39,720.207 
  1282.52,736.492 1286.65,752.679 1290.79,768.758 1294.92,784.719 1299.05,800.552 1303.19,816.248 1307.32,831.798 1311.46,847.195 1315.59,862.43 1319.72,877.496 
  1323.86,892.386 1327.99,907.093 1332.12,921.612 1336.26,935.936 1340.39,950.06 1344.53,963.979 1348.66,977.69 1352.79,991.186 1356.93,1004.47 1361.06,1017.53 
  1365.19,1030.36 1369.33,1042.97 1373.46,1055.35 1377.59,1067.5 1381.73,1079.42 1385.86,1091.1 1390,1102.55 1394.13,1113.77 1398.26,1124.75 1402.4,1135.49 
  1406.53,1146 1410.66,1156.27 1414.8,1166.31 1418.93,1176.11 1423.07,1185.68 1427.2,1195.02 1431.33,1204.13 1435.47,1213.02 1439.6,1221.67 1443.73,1230.11 
  1447.87,1238.32 1452,1246.31 1456.14,1254.09 1460.27,1261.65 1464.4,1269 1468.54,1276.14 1472.67,1283.08 1476.8,1289.81 1480.94,1296.35 1485.07,1302.69 
  1489.2,1308.84 1493.34,1314.8 1497.47,1320.58 1501.61,1326.17 1505.74,1331.59 1509.87,1336.83 1514.01,1341.9 1518.14,1346.81 1522.27,1351.55 1526.41,1356.13 
  1530.54,1360.56 1534.68,1364.83 1538.81,1368.96 1542.94,1372.94 1547.08,1376.78 1551.21,1380.49 1555.34,1384.05 1559.48,1387.49 1563.61,1390.81 1567.75,1394 
  1571.88,1397.07 1576.01,1400.02 1580.15,1402.86 1584.28,1405.59 1588.41,1408.22 1592.55,1410.74 1596.68,1413.17 1600.81,1415.49 1604.95,1417.73 1609.08,1419.87 
  1613.22,1421.93 1617.35,1423.9 1621.48,1425.79 1625.62,1427.6 1629.75,1429.33 1633.88,1430.99 1638.02,1432.58 1642.15,1434.11 1646.29,1435.56 1650.42,1436.95 
  1654.55,1438.29 1658.69,1439.56 1662.82,1440.77 1666.95,1441.94 1671.09,1443.05 1675.22,1444.1 1679.36,1445.11 1683.49,1446.08 1687.62,1447 1691.76,1447.87 
  1695.89,1448.71 1700.02,1449.5 1704.16,1450.26 1708.29,1450.98 1712.42,1451.67 1716.56,1452.33 1720.69,1452.95 1724.83,1453.54 1728.96,1454.1 1733.09,1454.64 
  1737.23,1455.15 1741.36,1455.63 1745.49,1456.09 1749.63,1456.52 1753.76,1456.93 1757.9,1457.33 1762.03,1457.7 1766.16,1458.05 1770.3,1458.39 1774.43,1458.7 
  1778.56,1459 1782.7,1459.29 1786.83,1459.56 1790.97,1459.81 1795.1,1460.05 1799.23,1460.28 1803.37,1460.5 1807.5,1460.7 1811.63,1460.89 1815.77,1461.08 
  1819.9,1461.25 1824.03,1461.41 1828.17,1461.57 1832.3,1461.71 1836.44,1461.85 1840.57,1461.98 1844.7,1462.1 1848.84,1462.21 1852.97,1462.32 1857.1,1462.43 
  1861.24,1462.52 1865.37,1462.61 1869.51,1462.7 1873.64,1462.78 1877.77,1462.85 1881.91,1462.93 1886.04,1462.99 1890.17,1463.06 1894.31,1463.12 1898.44,1463.17 
  1902.58,1463.22 1906.71,1463.27 1910.84,1463.32 1914.98,1463.36 1919.11,1463.4 1923.24,1463.44 1927.38,1463.48 1931.51,1463.51 1935.64,1463.54 1939.78,1463.57 
  1943.91,1463.6 1948.05,1463.63 1952.18,1463.65 1956.31,1463.67 1960.45,1463.7 1964.58,1463.72 1968.71,1463.73 1972.85,1463.75 1976.98,1463.77 1981.12,1463.78 
  1985.25,1463.8 1989.38,1463.81 1993.52,1463.82 1997.65,1463.84 2001.78,1463.85 2005.92,1463.86 2010.05,1463.87 2014.18,1463.88 2018.32,1463.88 2022.45,1463.89 
  2026.59,1463.9 2030.72,1463.91 2034.85,1463.91 2038.99,1463.92 2043.12,1463.92 2047.25,1463.93 2051.39,1463.93 2055.52,1463.94 2059.66,1463.94 2063.79,1463.95 
  2067.92,1463.95 2072.06,1463.95 2076.19,1463.96 2080.32,1463.96 2084.46,1463.96 2088.59,1463.96 2092.73,1463.97 2096.86,1463.97 2100.99,1463.97 2105.13,1463.97 
  2109.26,1463.97 2113.39,1463.98 2117.53,1463.98 2121.66,1463.98 2125.79,1463.98 2129.93,1463.98 2134.06,1463.98 2138.2,1463.98 2142.33,1463.98 2146.46,1463.98 
  2150.6,1463.99 2154.73,1463.99 2158.86,1463.99 2163,1463.99 2167.13,1463.99 2171.27,1463.99 2175.4,1463.99 2179.53,1463.99 2183.67,1463.99 2187.8,1463.99 
  2191.93,1463.99 
  "/>
<path clip-path="url(#clip120)" d="
M1757.13 337.765 L2277.76 337.765 L2277.76 95.8446 L1757.13 95.8446  Z
  " fill="#ffffff" fill-rule="evenodd" fill-opacity="1"/>
<polyline clip-path="url(#clip120)" style="stroke:#000000; stroke-linecap:butt; stroke-linejoin:round; stroke-width:4; stroke-opacity:1; fill:none" points="
  1757.13,337.765 2277.76,337.765 2277.76,95.8446 1757.13,95.8446 1757.13,337.765 
  "/>
<path clip-path="url(#clip120)" d="
M1782.13 180.517 L1932.13 180.517 L1932.13 132.133 L1782.13 132.133 L1782.13 180.517  Z
  " fill="#009af9" fill-rule="evenodd" fill-opacity="1"/>
<polyline clip-path="url(#clip120)" style="stroke:#009af9; stroke-linecap:butt; stroke-linejoin:round; stroke-width:4; stroke-opacity:1; fill:none" points="
  1782.13,180.517 1932.13,180.517 1932.13,132.133 1782.13,132.133 1782.13,180.517 
  "/>
<path clip-path="url(#clip120)" d="M1979.38 140.179 L1979.38 144.739 Q1976.71 143.466 1974.35 142.841 Q1971.99 142.216 1969.79 142.216 Q1965.97 142.216 1963.89 143.697 Q1961.83 145.179 1961.83 147.91 Q1961.83 150.202 1963.2 151.383 Q1964.59 152.54 1968.43 153.258 L1971.25 153.836 Q1976.48 154.832 1978.96 157.355 Q1981.46 159.855 1981.46 164.068 Q1981.46 169.091 1978.08 171.683 Q1974.72 174.276 1968.22 174.276 Q1965.77 174.276 1962.99 173.72 Q1960.23 173.165 1957.27 172.077 L1957.27 167.262 Q1960.12 168.859 1962.85 169.669 Q1965.58 170.48 1968.22 170.48 Q1972.22 170.48 1974.4 168.906 Q1976.58 167.332 1976.58 164.415 Q1976.58 161.869 1975 160.433 Q1973.45 158.998 1969.89 158.281 L1967.04 157.725 Q1961.81 156.683 1959.47 154.461 Q1957.13 152.239 1957.13 148.281 Q1957.13 143.697 1960.35 141.058 Q1963.59 138.42 1969.26 138.42 Q1971.69 138.42 1974.21 138.859 Q1976.74 139.299 1979.38 140.179 Z" fill="#000000" fill-rule="evenodd" fill-opacity="1" /><path clip-path="url(#clip120)" d="M2009.47 140.179 L2009.47 144.739 Q2006.81 143.466 2004.45 142.841 Q2002.08 142.216 1999.89 142.216 Q1996.07 142.216 1993.98 143.697 Q1991.92 145.179 1991.92 147.91 Q1991.92 150.202 1993.29 151.383 Q1994.68 152.54 1998.52 153.258 L2001.34 153.836 Q2006.58 154.832 2009.05 157.355 Q2011.55 159.855 2011.55 164.068 Q2011.55 169.091 2008.17 171.683 Q2004.82 174.276 1998.31 174.276 Q1995.86 174.276 1993.08 173.72 Q1990.33 173.165 1987.36 172.077 L1987.36 167.262 Q1990.21 168.859 1992.94 169.669 Q1995.67 170.48 1998.31 170.48 Q2002.32 170.48 2004.49 168.906 Q2006.67 167.332 2006.67 164.415 Q2006.67 161.869 2005.09 160.433 Q2003.54 158.998 1999.98 158.281 L1997.13 157.725 Q1991.9 156.683 1989.56 154.461 Q1987.22 152.239 1987.22 148.281 Q1987.22 143.697 1990.44 141.058 Q1993.68 138.42 1999.35 138.42 Q2001.78 138.42 2004.31 138.859 Q2006.83 139.299 2009.47 140.179 Z" fill="#000000" fill-rule="evenodd" fill-opacity="1" /><path clip-path="url(#clip120)" d="M2031.27 143.651 L2024.93 160.85 L2037.64 160.85 L2031.27 143.651 M2028.64 139.045 L2033.94 139.045 L2047.11 173.605 L2042.25 173.605 L2039.1 164.739 L2023.52 164.739 L2020.37 173.605 L2015.44 173.605 L2028.64 139.045 Z" fill="#000000" fill-rule="evenodd" fill-opacity="1" /><polyline clip-path="url(#clip120)" style="stroke:#e26f46; stroke-linecap:butt; stroke-linejoin:round; stroke-width:4; stroke-opacity:1; fill:none" points="
  1782.13,216.805 1932.13,216.805 
  "/>
<path clip-path="url(#clip120)" d="M1976.04 220.821 Q1976.04 216.191 1974.12 213.645 Q1972.22 211.099 1968.77 211.099 Q1965.35 211.099 1963.43 213.645 Q1961.53 216.191 1961.53 220.821 Q1961.53 225.427 1963.43 227.974 Q1965.35 230.52 1968.77 230.52 Q1972.22 230.52 1974.12 227.974 Q1976.04 225.427 1976.04 220.821 M1980.3 230.867 Q1980.3 237.487 1977.36 240.705 Q1974.42 243.946 1968.36 243.946 Q1966.11 243.946 1964.12 243.598 Q1962.13 243.274 1960.26 242.58 L1960.26 238.436 Q1962.13 239.455 1963.96 239.941 Q1965.79 240.427 1967.69 240.427 Q1971.88 240.427 1973.96 238.228 Q1976.04 236.052 1976.04 231.631 L1976.04 229.524 Q1974.72 231.816 1972.66 232.95 Q1970.6 234.085 1967.73 234.085 Q1962.96 234.085 1960.05 230.45 Q1957.13 226.816 1957.13 220.821 Q1957.13 214.802 1960.05 211.168 Q1962.96 207.534 1967.73 207.534 Q1970.6 207.534 1972.66 208.668 Q1974.72 209.802 1976.04 212.094 L1976.04 208.159 L1980.3 208.159 L1980.3 230.867 Z" fill="#000000" fill-rule="evenodd" fill-opacity="1" /><path clip-path="url(#clip120)" d="M2000.86 221.052 Q1995.7 221.052 1993.71 222.233 Q1991.71 223.413 1991.71 226.261 Q1991.71 228.529 1993.2 229.872 Q1994.7 231.191 1997.27 231.191 Q2000.81 231.191 2002.94 228.691 Q2005.09 226.168 2005.09 222.001 L2005.09 221.052 L2000.86 221.052 M2009.35 219.293 L2009.35 234.085 L2005.09 234.085 L2005.09 230.149 Q2003.64 232.511 2001.46 233.645 Q1999.28 234.756 1996.14 234.756 Q1992.15 234.756 1989.79 232.534 Q1987.46 230.288 1987.46 226.538 Q1987.46 222.163 1990.37 219.941 Q1993.31 217.719 1999.12 217.719 L2005.09 217.719 L2005.09 217.302 Q2005.09 214.363 2003.15 212.765 Q2001.23 211.145 1997.73 211.145 Q1995.51 211.145 1993.4 211.677 Q1991.3 212.21 1989.35 213.275 L1989.35 209.339 Q1991.69 208.437 1993.89 207.997 Q1996.09 207.534 1998.17 207.534 Q2003.8 207.534 2006.58 210.45 Q2009.35 213.367 2009.35 219.293 Z" fill="#000000" fill-rule="evenodd" fill-opacity="1" /><path clip-path="url(#clip120)" d="M2017.69 223.853 L2017.69 208.159 L2021.95 208.159 L2021.95 223.691 Q2021.95 227.372 2023.38 229.224 Q2024.82 231.052 2027.69 231.052 Q2031.14 231.052 2033.13 228.853 Q2035.14 226.654 2035.14 222.858 L2035.14 208.159 L2039.4 208.159 L2039.4 234.085 L2035.14 234.085 L2035.14 230.103 Q2033.59 232.464 2031.53 233.622 Q2029.49 234.756 2026.78 234.756 Q2022.32 234.756 2020 231.978 Q2017.69 229.2 2017.69 223.853 M2028.4 207.534 L2028.4 207.534 Z" fill="#000000" fill-rule="evenodd" fill-opacity="1" /><path clip-path="url(#clip120)" d="M2064.7 208.923 L2064.7 212.95 Q2062.89 212.025 2060.95 211.562 Q2059.01 211.099 2056.92 211.099 Q2053.75 211.099 2052.15 212.071 Q2050.58 213.043 2050.58 214.987 Q2050.58 216.469 2051.71 217.325 Q2052.85 218.159 2056.27 218.923 L2057.73 219.247 Q2062.27 220.219 2064.17 222.001 Q2066.09 223.761 2066.09 226.932 Q2066.09 230.543 2063.22 232.649 Q2060.37 234.756 2055.37 234.756 Q2053.29 234.756 2051.02 234.339 Q2048.77 233.946 2046.27 233.136 L2046.27 228.737 Q2048.64 229.964 2050.93 230.589 Q2053.22 231.191 2055.46 231.191 Q2058.47 231.191 2060.09 230.173 Q2061.71 229.131 2061.71 227.256 Q2061.71 225.52 2060.53 224.594 Q2059.38 223.668 2055.42 222.812 L2053.94 222.464 Q2049.98 221.631 2048.22 219.918 Q2046.46 218.182 2046.46 215.173 Q2046.46 211.515 2049.05 209.525 Q2051.64 207.534 2056.41 207.534 Q2058.77 207.534 2060.86 207.881 Q2062.94 208.228 2064.7 208.923 Z" fill="#000000" fill-rule="evenodd" fill-opacity="1" /><path clip-path="url(#clip120)" d="M2089.4 208.923 L2089.4 212.95 Q2087.59 212.025 2085.65 211.562 Q2083.7 211.099 2081.62 211.099 Q2078.45 211.099 2076.85 212.071 Q2075.28 213.043 2075.28 214.987 Q2075.28 216.469 2076.41 217.325 Q2077.55 218.159 2080.97 218.923 L2082.43 219.247 Q2086.97 220.219 2088.87 222.001 Q2090.79 223.761 2090.79 226.932 Q2090.79 230.543 2087.92 232.649 Q2085.07 234.756 2080.07 234.756 Q2077.99 234.756 2075.72 234.339 Q2073.47 233.946 2070.97 233.136 L2070.97 228.737 Q2073.33 229.964 2075.63 230.589 Q2077.92 231.191 2080.16 231.191 Q2083.17 231.191 2084.79 230.173 Q2086.41 229.131 2086.41 227.256 Q2086.41 225.52 2085.23 224.594 Q2084.08 223.668 2080.12 222.812 L2078.64 222.464 Q2074.68 221.631 2072.92 219.918 Q2071.16 218.182 2071.16 215.173 Q2071.16 211.515 2073.75 209.525 Q2076.34 207.534 2081.11 207.534 Q2083.47 207.534 2085.56 207.881 Q2087.64 208.228 2089.4 208.923 Z" fill="#000000" fill-rule="evenodd" fill-opacity="1" /><path clip-path="url(#clip120)" d="M2097.57 208.159 L2101.83 208.159 L2101.83 234.085 L2097.57 234.085 L2097.57 208.159 M2097.57 198.066 L2101.83 198.066 L2101.83 203.46 L2097.57 203.46 L2097.57 198.066 Z" fill="#000000" fill-rule="evenodd" fill-opacity="1" /><path clip-path="url(#clip120)" d="M2122.52 221.052 Q2117.36 221.052 2115.37 222.233 Q2113.38 223.413 2113.38 226.261 Q2113.38 228.529 2114.86 229.872 Q2116.37 231.191 2118.94 231.191 Q2122.48 231.191 2124.61 228.691 Q2126.76 226.168 2126.76 222.001 L2126.76 221.052 L2122.52 221.052 M2131.02 219.293 L2131.02 234.085 L2126.76 234.085 L2126.76 230.149 Q2125.3 232.511 2123.13 233.645 Q2120.95 234.756 2117.8 234.756 Q2113.82 234.756 2111.46 232.534 Q2109.12 230.288 2109.12 226.538 Q2109.12 222.163 2112.04 219.941 Q2114.98 217.719 2120.79 217.719 L2126.76 217.719 L2126.76 217.302 Q2126.76 214.363 2124.82 212.765 Q2122.89 211.145 2119.4 211.145 Q2117.18 211.145 2115.07 211.677 Q2112.96 212.21 2111.02 213.275 L2111.02 209.339 Q2113.36 208.437 2115.56 207.997 Q2117.76 207.534 2119.84 207.534 Q2125.46 207.534 2128.24 210.45 Q2131.02 213.367 2131.02 219.293 Z" fill="#000000" fill-rule="evenodd" fill-opacity="1" /><path clip-path="url(#clip120)" d="M2161.34 218.437 L2161.34 234.085 L2157.08 234.085 L2157.08 218.575 Q2157.08 214.895 2155.65 213.066 Q2154.21 211.238 2151.34 211.238 Q2147.89 211.238 2145.9 213.437 Q2143.91 215.636 2143.91 219.432 L2143.91 234.085 L2139.63 234.085 L2139.63 208.159 L2143.91 208.159 L2143.91 212.187 Q2145.44 209.849 2147.5 208.691 Q2149.58 207.534 2152.29 207.534 Q2156.76 207.534 2159.05 210.312 Q2161.34 213.066 2161.34 218.437 Z" fill="#000000" fill-rule="evenodd" fill-opacity="1" /><path clip-path="url(#clip120)" d="M2198.03 198.066 L2198.03 201.608 L2193.96 201.608 Q2191.67 201.608 2190.76 202.534 Q2189.88 203.46 2189.88 205.867 L2189.88 208.159 L2196.9 208.159 L2196.9 211.469 L2189.88 211.469 L2189.88 234.085 L2185.6 234.085 L2185.6 211.469 L2181.53 211.469 L2181.53 208.159 L2185.6 208.159 L2185.6 206.353 Q2185.6 202.025 2187.62 200.057 Q2189.63 198.066 2194.01 198.066 L2198.03 198.066 Z" fill="#000000" fill-rule="evenodd" fill-opacity="1" /><path clip-path="url(#clip120)" d="M2201.6 208.159 L2205.86 208.159 L2205.86 234.085 L2201.6 234.085 L2201.6 208.159 M2201.6 198.066 L2205.86 198.066 L2205.86 203.46 L2201.6 203.46 L2201.6 198.066 Z" fill="#000000" fill-rule="evenodd" fill-opacity="1" /><path clip-path="url(#clip120)" d="M2218.98 200.798 L2218.98 208.159 L2227.76 208.159 L2227.76 211.469 L2218.98 211.469 L2218.98 225.543 Q2218.98 228.714 2219.84 229.617 Q2220.72 230.52 2223.38 230.52 L2227.76 230.52 L2227.76 234.085 L2223.38 234.085 Q2218.45 234.085 2216.57 232.256 Q2214.7 230.404 2214.7 225.543 L2214.7 211.469 L2211.57 211.469 L2211.57 208.159 L2214.7 208.159 L2214.7 200.798 L2218.98 200.798 Z" fill="#000000" fill-rule="evenodd" fill-opacity="1" /><polyline clip-path="url(#clip120)" style="stroke:#3da44d; stroke-linecap:butt; stroke-linejoin:round; stroke-width:4; stroke-opacity:1; fill:none" points="
  1782.13,277.285 1932.13,277.285 
  "/>
<path clip-path="url(#clip120)" d="M1961.41 290.676 L1961.41 304.426 L1957.13 304.426 L1957.13 268.639 L1961.41 268.639 L1961.41 272.574 Q1962.76 270.259 1964.79 269.148 Q1966.85 268.014 1969.7 268.014 Q1974.42 268.014 1977.36 271.764 Q1980.33 275.514 1980.33 281.625 Q1980.33 287.736 1977.36 291.486 Q1974.42 295.236 1969.7 295.236 Q1966.85 295.236 1964.79 294.125 Q1962.76 292.991 1961.41 290.676 M1975.9 281.625 Q1975.9 276.926 1973.96 274.264 Q1972.04 271.579 1968.66 271.579 Q1965.28 271.579 1963.34 274.264 Q1961.41 276.926 1961.41 281.625 Q1961.41 286.324 1963.34 289.009 Q1965.28 291.671 1968.66 291.671 Q1972.04 291.671 1973.96 289.009 Q1975.9 286.324 1975.9 281.625 Z" fill="#000000" fill-rule="evenodd" fill-opacity="1" /><path clip-path="url(#clip120)" d="M1997.43 271.625 Q1994.01 271.625 1992.02 274.31 Q1990.02 276.972 1990.02 281.625 Q1990.02 286.278 1991.99 288.963 Q1993.98 291.625 1997.43 291.625 Q2000.83 291.625 2002.83 288.94 Q2004.82 286.254 2004.82 281.625 Q2004.82 277.018 2002.83 274.333 Q2000.83 271.625 1997.43 271.625 M1997.43 268.014 Q2002.99 268.014 2006.16 271.625 Q2009.33 275.236 2009.33 281.625 Q2009.33 287.991 2006.16 291.625 Q2002.99 295.236 1997.43 295.236 Q1991.85 295.236 1988.68 291.625 Q1985.53 287.991 1985.53 281.625 Q1985.53 275.236 1988.68 271.625 Q1991.85 268.014 1997.43 268.014 Z" fill="#000000" fill-rule="evenodd" fill-opacity="1" /><path clip-path="url(#clip120)" d="M2016.39 268.639 L2020.65 268.639 L2020.65 294.565 L2016.39 294.565 L2016.39 268.639 M2016.39 258.546 L2020.65 258.546 L2020.65 263.94 L2016.39 263.94 L2016.39 258.546 Z" fill="#000000" fill-rule="evenodd" fill-opacity="1" /><path clip-path="url(#clip120)" d="M2046.09 269.403 L2046.09 273.43 Q2044.28 272.505 2042.34 272.042 Q2040.39 271.579 2038.31 271.579 Q2035.14 271.579 2033.54 272.551 Q2031.97 273.523 2031.97 275.467 Q2031.97 276.949 2033.1 277.805 Q2034.24 278.639 2037.66 279.403 L2039.12 279.727 Q2043.66 280.699 2045.56 282.481 Q2047.48 284.241 2047.48 287.412 Q2047.48 291.023 2044.61 293.129 Q2041.76 295.236 2036.76 295.236 Q2034.68 295.236 2032.41 294.819 Q2030.16 294.426 2027.66 293.616 L2027.66 289.217 Q2030.02 290.444 2032.32 291.069 Q2034.61 291.671 2036.85 291.671 Q2039.86 291.671 2041.48 290.653 Q2043.1 289.611 2043.1 287.736 Q2043.1 286 2041.92 285.074 Q2040.77 284.148 2036.81 283.292 L2035.33 282.944 Q2031.37 282.111 2029.61 280.398 Q2027.85 278.662 2027.85 275.653 Q2027.85 271.995 2030.44 270.005 Q2033.03 268.014 2037.8 268.014 Q2040.16 268.014 2042.25 268.361 Q2044.33 268.708 2046.09 269.403 Z" fill="#000000" fill-rule="evenodd" fill-opacity="1" /><path clip-path="url(#clip120)" d="M2070.79 269.403 L2070.79 273.43 Q2068.98 272.505 2067.04 272.042 Q2065.09 271.579 2063.01 271.579 Q2059.84 271.579 2058.24 272.551 Q2056.67 273.523 2056.67 275.467 Q2056.67 276.949 2057.8 277.805 Q2058.94 278.639 2062.36 279.403 L2063.82 279.727 Q2068.36 280.699 2070.26 282.481 Q2072.18 284.241 2072.18 287.412 Q2072.18 291.023 2069.31 293.129 Q2066.46 295.236 2061.46 295.236 Q2059.38 295.236 2057.11 294.819 Q2054.86 294.426 2052.36 293.616 L2052.36 289.217 Q2054.72 290.444 2057.02 291.069 Q2059.31 291.671 2061.55 291.671 Q2064.56 291.671 2066.18 290.653 Q2067.8 289.611 2067.8 287.736 Q2067.8 286 2066.62 285.074 Q2065.46 284.148 2061.51 283.292 L2060.02 282.944 Q2056.07 282.111 2054.31 280.398 Q2052.55 278.662 2052.55 275.653 Q2052.55 271.995 2055.14 270.005 Q2057.73 268.014 2062.5 268.014 Q2064.86 268.014 2066.95 268.361 Q2069.03 268.708 2070.79 269.403 Z" fill="#000000" fill-rule="evenodd" fill-opacity="1" /><path clip-path="url(#clip120)" d="M2089.01 271.625 Q2085.58 271.625 2083.59 274.31 Q2081.6 276.972 2081.6 281.625 Q2081.6 286.278 2083.57 288.963 Q2085.56 291.625 2089.01 291.625 Q2092.41 291.625 2094.4 288.94 Q2096.39 286.254 2096.39 281.625 Q2096.39 277.018 2094.4 274.333 Q2092.41 271.625 2089.01 271.625 M2089.01 268.014 Q2094.56 268.014 2097.73 271.625 Q2100.9 275.236 2100.9 281.625 Q2100.9 287.991 2097.73 291.625 Q2094.56 295.236 2089.01 295.236 Q2083.43 295.236 2080.26 291.625 Q2077.11 287.991 2077.11 281.625 Q2077.11 275.236 2080.26 271.625 Q2083.43 268.014 2089.01 268.014 Z" fill="#000000" fill-rule="evenodd" fill-opacity="1" /><path clip-path="url(#clip120)" d="M2129.51 278.917 L2129.51 294.565 L2125.26 294.565 L2125.26 279.055 Q2125.26 275.375 2123.82 273.546 Q2122.39 271.718 2119.51 271.718 Q2116.07 271.718 2114.08 273.917 Q2112.08 276.116 2112.08 279.912 L2112.08 294.565 L2107.8 294.565 L2107.8 268.639 L2112.08 268.639 L2112.08 272.667 Q2113.61 270.329 2115.67 269.171 Q2117.76 268.014 2120.46 268.014 Q2124.93 268.014 2127.22 270.792 Q2129.51 273.546 2129.51 278.917 Z" fill="#000000" fill-rule="evenodd" fill-opacity="1" /><path clip-path="url(#clip120)" d="M2166.2 258.546 L2166.2 262.088 L2162.13 262.088 Q2159.84 262.088 2158.94 263.014 Q2158.06 263.94 2158.06 266.347 L2158.06 268.639 L2165.07 268.639 L2165.07 271.949 L2158.06 271.949 L2158.06 294.565 L2153.77 294.565 L2153.77 271.949 L2149.7 271.949 L2149.7 268.639 L2153.77 268.639 L2153.77 266.833 Q2153.77 262.505 2155.79 260.537 Q2157.8 258.546 2162.18 258.546 L2166.2 258.546 Z" fill="#000000" fill-rule="evenodd" fill-opacity="1" /><path clip-path="url(#clip120)" d="M2169.77 268.639 L2174.03 268.639 L2174.03 294.565 L2169.77 294.565 L2169.77 268.639 M2169.77 258.546 L2174.03 258.546 L2174.03 263.94 L2169.77 263.94 L2169.77 258.546 Z" fill="#000000" fill-rule="evenodd" fill-opacity="1" /><path clip-path="url(#clip120)" d="M2187.15 261.278 L2187.15 268.639 L2195.93 268.639 L2195.93 271.949 L2187.15 271.949 L2187.15 286.023 Q2187.15 289.194 2188.01 290.097 Q2188.89 291 2191.55 291 L2195.93 291 L2195.93 294.565 L2191.55 294.565 Q2186.62 294.565 2184.75 292.736 Q2182.87 290.884 2182.87 286.023 L2182.87 271.949 L2179.75 271.949 L2179.75 268.639 L2182.87 268.639 L2182.87 261.278 L2187.15 261.278 Z" fill="#000000" fill-rule="evenodd" fill-opacity="1" /></svg>
