<?xml version="1.0" encoding="utf-8"?>
<svg xmlns="http://www.w3.org/2000/svg" xmlns:xlink="http://www.w3.org/1999/xlink" width="600" height="400" viewBox="0 0 2400 1600">
<defs>
  <clipPath id="clip290">
    <rect x="0" y="0" width="2400" height="1600"/>
  </clipPath>
</defs>
<path clip-path="url(#clip290)" d="
M0 1600 L2400 1600 L2400 0 L0 0  Z
  " fill="#ffffff" fill-rule="evenodd" fill-opacity="1"/>
<defs>
  <clipPath id="clip291">
    <rect x="480" y="0" width="1681" height="1600"/>
  </clipPath>
</defs>
<path clip-path="url(#clip290)" d="
M186.274 1486.45 L2352.76 1486.45 L2352.76 47.2441 L186.274 47.2441  Z
  " fill="#ffffff" fill-rule="evenodd" fill-opacity="1"/>
<defs>
  <clipPath id="clip292">
    <rect x="186" y="47" width="2167" height="1440"/>
  </clipPath>
</defs>
<polyline clip-path="url(#clip292)" style="stroke:#000000; stroke-linecap:butt; stroke-linejoin:round; stroke-width:2; stroke-opacity:0.1; fill:none" points="
  247.59,1486.45 247.59,47.2441 
  "/>
<polyline clip-path="url(#clip292)" style="stroke:#000000; stroke-linecap:butt; stroke-linejoin:round; stroke-width:2; stroke-opacity:0.1; fill:none" points="
  656.36,1486.45 656.36,47.2441 
  "/>
<polyline clip-path="url(#clip292)" style="stroke:#000000; stroke-linecap:butt; stroke-linejoin:round; stroke-width:2; stroke-opacity:0.1; fill:none" points="
  1065.13,1486.45 1065.13,47.2441 
  "/>
<polyline clip-path="url(#clip292)" style="stroke:#000000; stroke-linecap:butt; stroke-linejoin:round; stroke-width:2; stroke-opacity:0.1; fill:none" points="
  1473.9,1486.45 1473.9,47.2441 
  "/>
<polyline clip-path="url(#clip292)" style="stroke:#000000; stroke-linecap:butt; stroke-linejoin:round; stroke-width:2; stroke-opacity:0.1; fill:none" points="
  1882.67,1486.45 1882.67,47.2441 
  "/>
<polyline clip-path="url(#clip292)" style="stroke:#000000; stroke-linecap:butt; stroke-linejoin:round; stroke-width:2; stroke-opacity:0.1; fill:none" points="
  2291.44,1486.45 2291.44,47.2441 
  "/>
<polyline clip-path="url(#clip290)" style="stroke:#000000; stroke-linecap:butt; stroke-linejoin:round; stroke-width:4; stroke-opacity:1; fill:none" points="
  186.274,1486.45 2352.76,1486.45 
  "/>
<polyline clip-path="url(#clip290)" style="stroke:#000000; stroke-linecap:butt; stroke-linejoin:round; stroke-width:4; stroke-opacity:1; fill:none" points="
  247.59,1486.45 247.59,1469.18 
  "/>
<polyline clip-path="url(#clip290)" style="stroke:#000000; stroke-linecap:butt; stroke-linejoin:round; stroke-width:4; stroke-opacity:1; fill:none" points="
  656.36,1486.45 656.36,1469.18 
  "/>
<polyline clip-path="url(#clip290)" style="stroke:#000000; stroke-linecap:butt; stroke-linejoin:round; stroke-width:4; stroke-opacity:1; fill:none" points="
  1065.13,1486.45 1065.13,1469.18 
  "/>
<polyline clip-path="url(#clip290)" style="stroke:#000000; stroke-linecap:butt; stroke-linejoin:round; stroke-width:4; stroke-opacity:1; fill:none" points="
  1473.9,1486.45 1473.9,1469.18 
  "/>
<polyline clip-path="url(#clip290)" style="stroke:#000000; stroke-linecap:butt; stroke-linejoin:round; stroke-width:4; stroke-opacity:1; fill:none" points="
  1882.67,1486.45 1882.67,1469.18 
  "/>
<polyline clip-path="url(#clip290)" style="stroke:#000000; stroke-linecap:butt; stroke-linejoin:round; stroke-width:4; stroke-opacity:1; fill:none" points="
  2291.44,1486.45 2291.44,1469.18 
  "/>
<path clip-path="url(#clip290)" d="M247.59 1515.64 Q243.978 1515.64 242.15 1519.2 Q240.344 1522.75 240.344 1529.87 Q240.344 1536.98 242.15 1540.55 Q243.978 1544.09 247.59 1544.09 Q251.224 1544.09 253.029 1540.55 Q254.858 1536.98 254.858 1529.87 Q254.858 1522.75 253.029 1519.2 Q251.224 1515.64 247.59 1515.64 M247.59 1511.93 Q253.4 1511.93 256.455 1516.54 Q259.534 1521.12 259.534 1529.87 Q259.534 1538.6 256.455 1543.21 Q253.4 1547.79 247.59 1547.79 Q241.779 1547.79 238.701 1543.21 Q235.645 1538.6 235.645 1529.87 Q235.645 1521.12 238.701 1516.54 Q241.779 1511.93 247.59 1511.93 Z" fill="#000000" fill-rule="evenodd" fill-opacity="1" /><path clip-path="url(#clip290)" d="M631.059 1512.56 L649.415 1512.56 L649.415 1516.5 L635.341 1516.5 L635.341 1524.97 Q636.36 1524.62 637.378 1524.46 Q638.397 1524.27 639.415 1524.27 Q645.202 1524.27 648.582 1527.44 Q651.962 1530.62 651.962 1536.03 Q651.962 1541.61 648.489 1544.71 Q645.017 1547.79 638.698 1547.79 Q636.522 1547.79 634.253 1547.42 Q632.008 1547.05 629.601 1546.31 L629.601 1541.61 Q631.684 1542.74 633.906 1543.3 Q636.128 1543.86 638.605 1543.86 Q642.61 1543.86 644.948 1541.75 Q647.286 1539.64 647.286 1536.03 Q647.286 1532.42 644.948 1530.31 Q642.61 1528.21 638.605 1528.21 Q636.73 1528.21 634.855 1528.62 Q633.003 1529.04 631.059 1529.92 L631.059 1512.56 Z" fill="#000000" fill-rule="evenodd" fill-opacity="1" /><path clip-path="url(#clip290)" d="M671.174 1515.64 Q667.563 1515.64 665.735 1519.2 Q663.929 1522.75 663.929 1529.87 Q663.929 1536.98 665.735 1540.55 Q667.563 1544.09 671.174 1544.09 Q674.809 1544.09 676.614 1540.55 Q678.443 1536.98 678.443 1529.87 Q678.443 1522.75 676.614 1519.2 Q674.809 1515.64 671.174 1515.64 M671.174 1511.93 Q676.985 1511.93 680.04 1516.54 Q683.119 1521.12 683.119 1529.87 Q683.119 1538.6 680.04 1543.21 Q676.985 1547.79 671.174 1547.79 Q665.364 1547.79 662.286 1543.21 Q659.23 1538.6 659.23 1529.87 Q659.23 1521.12 662.286 1516.54 Q665.364 1511.93 671.174 1511.93 Z" fill="#000000" fill-rule="evenodd" fill-opacity="1" /><path clip-path="url(#clip290)" d="M1024.74 1543.18 L1032.38 1543.18 L1032.38 1516.82 L1024.07 1518.49 L1024.07 1514.23 L1032.33 1512.56 L1037.01 1512.56 L1037.01 1543.18 L1044.64 1543.18 L1044.64 1547.12 L1024.74 1547.12 L1024.74 1543.18 Z" fill="#000000" fill-rule="evenodd" fill-opacity="1" /><path clip-path="url(#clip290)" d="M1064.09 1515.64 Q1060.48 1515.64 1058.65 1519.2 Q1056.84 1522.75 1056.84 1529.87 Q1056.84 1536.98 1058.65 1540.55 Q1060.48 1544.09 1064.09 1544.09 Q1067.72 1544.09 1069.53 1540.55 Q1071.36 1536.98 1071.36 1529.87 Q1071.36 1522.75 1069.53 1519.2 Q1067.72 1515.64 1064.09 1515.64 M1064.09 1511.93 Q1069.9 1511.93 1072.95 1516.54 Q1076.03 1521.12 1076.03 1529.87 Q1076.03 1538.6 1072.95 1543.21 Q1069.9 1547.79 1064.09 1547.79 Q1058.28 1547.79 1055.2 1543.21 Q1052.14 1538.6 1052.14 1529.87 Q1052.14 1521.12 1055.2 1516.54 Q1058.28 1511.93 1064.09 1511.93 Z" fill="#000000" fill-rule="evenodd" fill-opacity="1" /><path clip-path="url(#clip290)" d="M1094.25 1515.64 Q1090.64 1515.64 1088.81 1519.2 Q1087 1522.75 1087 1529.87 Q1087 1536.98 1088.81 1540.55 Q1090.64 1544.09 1094.25 1544.09 Q1097.88 1544.09 1099.69 1540.55 Q1101.52 1536.98 1101.52 1529.87 Q1101.52 1522.75 1099.69 1519.2 Q1097.88 1515.64 1094.25 1515.64 M1094.25 1511.93 Q1100.06 1511.93 1103.12 1516.54 Q1106.19 1521.12 1106.19 1529.87 Q1106.19 1538.6 1103.12 1543.21 Q1100.06 1547.79 1094.25 1547.79 Q1088.44 1547.79 1085.36 1543.21 Q1082.31 1538.6 1082.31 1529.87 Q1082.31 1521.12 1085.36 1516.54 Q1088.44 1511.93 1094.25 1511.93 Z" fill="#000000" fill-rule="evenodd" fill-opacity="1" /><path clip-path="url(#clip290)" d="M1433.51 1543.18 L1441.15 1543.18 L1441.15 1516.82 L1432.84 1518.49 L1432.84 1514.23 L1441.1 1512.56 L1445.78 1512.56 L1445.78 1543.18 L1453.41 1543.18 L1453.41 1547.12 L1433.51 1547.12 L1433.51 1543.18 Z" fill="#000000" fill-rule="evenodd" fill-opacity="1" /><path clip-path="url(#clip290)" d="M1462.9 1512.56 L1481.26 1512.56 L1481.26 1516.5 L1467.19 1516.5 L1467.19 1524.97 Q1468.21 1524.62 1469.22 1524.46 Q1470.24 1524.27 1471.26 1524.27 Q1477.05 1524.27 1480.43 1527.44 Q1483.81 1530.62 1483.81 1536.03 Q1483.81 1541.61 1480.34 1544.71 Q1476.86 1547.79 1470.54 1547.79 Q1468.37 1547.79 1466.1 1547.42 Q1463.85 1547.05 1461.45 1546.31 L1461.45 1541.61 Q1463.53 1542.74 1465.75 1543.3 Q1467.97 1543.86 1470.45 1543.86 Q1474.46 1543.86 1476.79 1541.75 Q1479.13 1539.64 1479.13 1536.03 Q1479.13 1532.42 1476.79 1530.31 Q1474.46 1528.21 1470.45 1528.21 Q1468.58 1528.21 1466.7 1528.62 Q1464.85 1529.04 1462.9 1529.92 L1462.9 1512.56 Z" fill="#000000" fill-rule="evenodd" fill-opacity="1" /><path clip-path="url(#clip290)" d="M1503.02 1515.64 Q1499.41 1515.64 1497.58 1519.2 Q1495.77 1522.75 1495.77 1529.87 Q1495.77 1536.98 1497.58 1540.55 Q1499.41 1544.09 1503.02 1544.09 Q1506.65 1544.09 1508.46 1540.55 Q1510.29 1536.98 1510.29 1529.87 Q1510.29 1522.75 1508.46 1519.2 Q1506.65 1515.64 1503.02 1515.64 M1503.02 1511.93 Q1508.83 1511.93 1511.89 1516.54 Q1514.96 1521.12 1514.96 1529.87 Q1514.96 1538.6 1511.89 1543.21 Q1508.83 1547.79 1503.02 1547.79 Q1497.21 1547.79 1494.13 1543.21 Q1491.08 1538.6 1491.08 1529.87 Q1491.08 1521.12 1494.13 1516.54 Q1497.21 1511.93 1503.02 1511.93 Z" fill="#000000" fill-rule="evenodd" fill-opacity="1" /><path clip-path="url(#clip290)" d="M1846.36 1543.18 L1862.68 1543.18 L1862.68 1547.12 L1840.74 1547.12 L1840.74 1543.18 Q1843.4 1540.43 1847.98 1535.8 Q1852.59 1531.15 1853.77 1529.81 Q1856.02 1527.28 1856.89 1525.55 Q1857.8 1523.79 1857.8 1522.1 Q1857.8 1519.34 1855.85 1517.61 Q1853.93 1515.87 1850.83 1515.87 Q1848.63 1515.87 1846.18 1516.63 Q1843.75 1517.4 1840.97 1518.95 L1840.97 1514.23 Q1843.79 1513.09 1846.25 1512.51 Q1848.7 1511.93 1850.74 1511.93 Q1856.11 1511.93 1859.3 1514.62 Q1862.5 1517.31 1862.5 1521.8 Q1862.5 1523.93 1861.69 1525.85 Q1860.9 1527.74 1858.79 1530.34 Q1858.21 1531.01 1855.11 1534.23 Q1852.01 1537.42 1846.36 1543.18 Z" fill="#000000" fill-rule="evenodd" fill-opacity="1" /><path clip-path="url(#clip290)" d="M1882.5 1515.64 Q1878.89 1515.64 1877.06 1519.2 Q1875.25 1522.75 1875.25 1529.87 Q1875.25 1536.98 1877.06 1540.55 Q1878.89 1544.09 1882.5 1544.09 Q1886.13 1544.09 1887.94 1540.55 Q1889.77 1536.98 1889.77 1529.87 Q1889.77 1522.75 1887.94 1519.2 Q1886.13 1515.64 1882.5 1515.64 M1882.5 1511.93 Q1888.31 1511.93 1891.36 1516.54 Q1894.44 1521.12 1894.44 1529.87 Q1894.44 1538.6 1891.36 1543.21 Q1888.31 1547.79 1882.5 1547.79 Q1876.69 1547.79 1873.61 1543.21 Q1870.55 1538.6 1870.55 1529.87 Q1870.55 1521.12 1873.61 1516.54 Q1876.69 1511.93 1882.5 1511.93 Z" fill="#000000" fill-rule="evenodd" fill-opacity="1" /><path clip-path="url(#clip290)" d="M1912.66 1515.64 Q1909.05 1515.64 1907.22 1519.2 Q1905.41 1522.75 1905.41 1529.87 Q1905.41 1536.98 1907.22 1540.55 Q1909.05 1544.09 1912.66 1544.09 Q1916.29 1544.09 1918.1 1540.55 Q1919.93 1536.98 1919.93 1529.87 Q1919.93 1522.75 1918.1 1519.2 Q1916.29 1515.64 1912.66 1515.64 M1912.66 1511.93 Q1918.47 1511.93 1921.52 1516.54 Q1924.6 1521.12 1924.6 1529.87 Q1924.6 1538.6 1921.52 1543.21 Q1918.47 1547.79 1912.66 1547.79 Q1906.85 1547.79 1903.77 1543.21 Q1900.71 1538.6 1900.71 1529.87 Q1900.71 1521.12 1903.77 1516.54 Q1906.85 1511.93 1912.66 1511.93 Z" fill="#000000" fill-rule="evenodd" fill-opacity="1" /><path clip-path="url(#clip290)" d="M2255.13 1543.18 L2271.45 1543.18 L2271.45 1547.12 L2249.51 1547.12 L2249.51 1543.18 Q2252.17 1540.43 2256.75 1535.8 Q2261.36 1531.15 2262.54 1529.81 Q2264.79 1527.28 2265.67 1525.55 Q2266.57 1523.79 2266.57 1522.1 Q2266.57 1519.34 2264.62 1517.61 Q2262.7 1515.87 2259.6 1515.87 Q2257.4 1515.87 2254.95 1516.63 Q2252.52 1517.4 2249.74 1518.95 L2249.74 1514.23 Q2252.56 1513.09 2255.02 1512.51 Q2257.47 1511.93 2259.51 1511.93 Q2264.88 1511.93 2268.07 1514.62 Q2271.27 1517.31 2271.27 1521.8 Q2271.27 1523.93 2270.46 1525.85 Q2269.67 1527.74 2267.56 1530.34 Q2266.98 1531.01 2263.88 1534.23 Q2260.78 1537.42 2255.13 1543.18 Z" fill="#000000" fill-rule="evenodd" fill-opacity="1" /><path clip-path="url(#clip290)" d="M2281.31 1512.56 L2299.67 1512.56 L2299.67 1516.5 L2285.6 1516.5 L2285.6 1524.97 Q2286.61 1524.62 2287.63 1524.46 Q2288.65 1524.27 2289.67 1524.27 Q2295.46 1524.27 2298.84 1527.44 Q2302.22 1530.62 2302.22 1536.03 Q2302.22 1541.61 2298.74 1544.71 Q2295.27 1547.79 2288.95 1547.79 Q2286.78 1547.79 2284.51 1547.42 Q2282.26 1547.05 2279.85 1546.31 L2279.85 1541.61 Q2281.94 1542.74 2284.16 1543.3 Q2286.38 1543.86 2288.86 1543.86 Q2292.86 1543.86 2295.2 1541.75 Q2297.54 1539.64 2297.54 1536.03 Q2297.54 1532.42 2295.2 1530.31 Q2292.86 1528.21 2288.86 1528.21 Q2286.98 1528.21 2285.11 1528.62 Q2283.26 1529.04 2281.31 1529.92 L2281.31 1512.56 Z" fill="#000000" fill-rule="evenodd" fill-opacity="1" /><path clip-path="url(#clip290)" d="M2321.43 1515.64 Q2317.82 1515.64 2315.99 1519.2 Q2314.18 1522.75 2314.18 1529.87 Q2314.18 1536.98 2315.99 1540.55 Q2317.82 1544.09 2321.43 1544.09 Q2325.06 1544.09 2326.87 1540.55 Q2328.7 1536.98 2328.7 1529.87 Q2328.7 1522.75 2326.87 1519.2 Q2325.06 1515.64 2321.43 1515.64 M2321.43 1511.93 Q2327.24 1511.93 2330.29 1516.54 Q2333.37 1521.12 2333.37 1529.87 Q2333.37 1538.6 2330.29 1543.21 Q2327.24 1547.79 2321.43 1547.79 Q2315.62 1547.79 2312.54 1543.21 Q2309.48 1538.6 2309.48 1529.87 Q2309.48 1521.12 2312.54 1516.54 Q2315.62 1511.93 2321.43 1511.93 Z" fill="#000000" fill-rule="evenodd" fill-opacity="1" /><polyline clip-path="url(#clip292)" style="stroke:#000000; stroke-linecap:butt; stroke-linejoin:round; stroke-width:2; stroke-opacity:0.1; fill:none" points="
  186.274,1445.72 2352.76,1445.72 
  "/>
<polyline clip-path="url(#clip292)" style="stroke:#000000; stroke-linecap:butt; stroke-linejoin:round; stroke-width:2; stroke-opacity:0.1; fill:none" points="
  186.274,996.563 2352.76,996.563 
  "/>
<polyline clip-path="url(#clip292)" style="stroke:#000000; stroke-linecap:butt; stroke-linejoin:round; stroke-width:2; stroke-opacity:0.1; fill:none" points="
  186.274,547.411 2352.76,547.411 
  "/>
<polyline clip-path="url(#clip292)" style="stroke:#000000; stroke-linecap:butt; stroke-linejoin:round; stroke-width:2; stroke-opacity:0.1; fill:none" points="
  186.274,98.2586 2352.76,98.2586 
  "/>
<polyline clip-path="url(#clip290)" style="stroke:#000000; stroke-linecap:butt; stroke-linejoin:round; stroke-width:4; stroke-opacity:1; fill:none" points="
  186.274,1486.45 186.274,47.2441 
  "/>
<polyline clip-path="url(#clip290)" style="stroke:#000000; stroke-linecap:butt; stroke-linejoin:round; stroke-width:4; stroke-opacity:1; fill:none" points="
  186.274,1445.72 212.272,1445.72 
  "/>
<polyline clip-path="url(#clip290)" style="stroke:#000000; stroke-linecap:butt; stroke-linejoin:round; stroke-width:4; stroke-opacity:1; fill:none" points="
  186.274,996.563 212.272,996.563 
  "/>
<polyline clip-path="url(#clip290)" style="stroke:#000000; stroke-linecap:butt; stroke-linejoin:round; stroke-width:4; stroke-opacity:1; fill:none" points="
  186.274,547.411 212.272,547.411 
  "/>
<polyline clip-path="url(#clip290)" style="stroke:#000000; stroke-linecap:butt; stroke-linejoin:round; stroke-width:4; stroke-opacity:1; fill:none" points="
  186.274,98.2586 212.272,98.2586 
  "/>
<path clip-path="url(#clip290)" d="M62.9365 1431.51 Q59.3254 1431.51 57.4967 1435.08 Q55.6912 1438.62 55.6912 1445.75 Q55.6912 1452.86 57.4967 1456.42 Q59.3254 1459.96 62.9365 1459.96 Q66.5707 1459.96 68.3763 1456.42 Q70.205 1452.86 70.205 1445.75 Q70.205 1438.62 68.3763 1435.08 Q66.5707 1431.51 62.9365 1431.51 M62.9365 1427.81 Q68.7467 1427.81 71.8022 1432.42 Q74.8809 1437 74.8809 1445.75 Q74.8809 1454.48 71.8022 1459.08 Q68.7467 1463.67 62.9365 1463.67 Q57.1264 1463.67 54.0477 1459.08 Q50.9921 1454.48 50.9921 1445.75 Q50.9921 1437 54.0477 1432.42 Q57.1264 1427.81 62.9365 1427.81 Z" fill="#000000" fill-rule="evenodd" fill-opacity="1" /><path clip-path="url(#clip290)" d="M83.0984 1457.12 L87.9827 1457.12 L87.9827 1463 L83.0984 1463 L83.0984 1457.12 Z" fill="#000000" fill-rule="evenodd" fill-opacity="1" /><path clip-path="url(#clip290)" d="M108.168 1431.51 Q104.557 1431.51 102.728 1435.08 Q100.922 1438.62 100.922 1445.75 Q100.922 1452.86 102.728 1456.42 Q104.557 1459.96 108.168 1459.96 Q111.802 1459.96 113.608 1456.42 Q115.436 1452.86 115.436 1445.75 Q115.436 1438.62 113.608 1435.08 Q111.802 1431.51 108.168 1431.51 M108.168 1427.81 Q113.978 1427.81 117.033 1432.42 Q120.112 1437 120.112 1445.75 Q120.112 1454.48 117.033 1459.08 Q113.978 1463.67 108.168 1463.67 Q102.358 1463.67 99.2789 1459.08 Q96.2234 1454.48 96.2234 1445.75 Q96.2234 1437 99.2789 1432.42 Q102.358 1427.81 108.168 1427.81 Z" fill="#000000" fill-rule="evenodd" fill-opacity="1" /><path clip-path="url(#clip290)" d="M138.33 1431.51 Q134.719 1431.51 132.89 1435.08 Q131.084 1438.62 131.084 1445.75 Q131.084 1452.86 132.89 1456.42 Q134.719 1459.96 138.33 1459.96 Q141.964 1459.96 143.769 1456.42 Q145.598 1452.86 145.598 1445.75 Q145.598 1438.62 143.769 1435.08 Q141.964 1431.51 138.33 1431.51 M138.33 1427.81 Q144.14 1427.81 147.195 1432.42 Q150.274 1437 150.274 1445.75 Q150.274 1454.48 147.195 1459.08 Q144.14 1463.67 138.33 1463.67 Q132.519 1463.67 129.441 1459.08 Q126.385 1454.48 126.385 1445.75 Q126.385 1437 129.441 1432.42 Q132.519 1427.81 138.33 1427.81 Z" fill="#000000" fill-rule="evenodd" fill-opacity="1" /><path clip-path="url(#clip290)" d="M64.1634 982.362 Q60.5523 982.362 58.7236 985.927 Q56.918 989.468 56.918 996.598 Q56.918 1003.7 58.7236 1007.27 Q60.5523 1010.81 64.1634 1010.81 Q67.7976 1010.81 69.6031 1007.27 Q71.4318 1003.7 71.4318 996.598 Q71.4318 989.468 69.6031 985.927 Q67.7976 982.362 64.1634 982.362 M64.1634 978.658 Q69.9735 978.658 73.029 983.265 Q76.1077 987.848 76.1077 996.598 Q76.1077 1005.32 73.029 1009.93 Q69.9735 1014.51 64.1634 1014.51 Q58.3532 1014.51 55.2745 1009.93 Q52.219 1005.32 52.219 996.598 Q52.219 987.848 55.2745 983.265 Q58.3532 978.658 64.1634 978.658 Z" fill="#000000" fill-rule="evenodd" fill-opacity="1" /><path clip-path="url(#clip290)" d="M84.3253 1007.96 L89.2095 1007.96 L89.2095 1013.84 L84.3253 1013.84 L84.3253 1007.96 Z" fill="#000000" fill-rule="evenodd" fill-opacity="1" /><path clip-path="url(#clip290)" d="M109.395 982.362 Q105.783 982.362 103.955 985.927 Q102.149 989.468 102.149 996.598 Q102.149 1003.7 103.955 1007.27 Q105.783 1010.81 109.395 1010.81 Q113.029 1010.81 114.834 1007.27 Q116.663 1003.7 116.663 996.598 Q116.663 989.468 114.834 985.927 Q113.029 982.362 109.395 982.362 M109.395 978.658 Q115.205 978.658 118.26 983.265 Q121.339 987.848 121.339 996.598 Q121.339 1005.32 118.26 1009.93 Q115.205 1014.51 109.395 1014.51 Q103.584 1014.51 100.506 1009.93 Q97.4502 1005.32 97.4502 996.598 Q97.4502 987.848 100.506 983.265 Q103.584 978.658 109.395 978.658 Z" fill="#000000" fill-rule="evenodd" fill-opacity="1" /><path clip-path="url(#clip290)" d="M130.367 1009.91 L138.006 1009.91 L138.006 983.543 L129.695 985.209 L129.695 980.95 L137.959 979.283 L142.635 979.283 L142.635 1009.91 L150.274 1009.91 L150.274 1013.84 L130.367 1013.84 L130.367 1009.91 Z" fill="#000000" fill-rule="evenodd" fill-opacity="1" /><path clip-path="url(#clip290)" d="M64.5337 533.21 Q60.9226 533.21 59.0939 536.774 Q57.2884 540.316 57.2884 547.446 Q57.2884 554.552 59.0939 558.117 Q60.9226 561.659 64.5337 561.659 Q68.168 561.659 69.9735 558.117 Q71.8022 554.552 71.8022 547.446 Q71.8022 540.316 69.9735 536.774 Q68.168 533.21 64.5337 533.21 M64.5337 529.506 Q70.3439 529.506 73.3994 534.112 Q76.4781 538.696 76.4781 547.446 Q76.4781 556.172 73.3994 560.779 Q70.3439 565.362 64.5337 565.362 Q58.7236 565.362 55.6449 560.779 Q52.5893 556.172 52.5893 547.446 Q52.5893 538.696 55.6449 534.112 Q58.7236 529.506 64.5337 529.506 Z" fill="#000000" fill-rule="evenodd" fill-opacity="1" /><path clip-path="url(#clip290)" d="M84.6956 558.811 L89.5799 558.811 L89.5799 564.691 L84.6956 564.691 L84.6956 558.811 Z" fill="#000000" fill-rule="evenodd" fill-opacity="1" /><path clip-path="url(#clip290)" d="M109.765 533.21 Q106.154 533.21 104.325 536.774 Q102.52 540.316 102.52 547.446 Q102.52 554.552 104.325 558.117 Q106.154 561.659 109.765 561.659 Q113.399 561.659 115.205 558.117 Q117.033 554.552 117.033 547.446 Q117.033 540.316 115.205 536.774 Q113.399 533.21 109.765 533.21 M109.765 529.506 Q115.575 529.506 118.631 534.112 Q121.709 538.696 121.709 547.446 Q121.709 556.172 118.631 560.779 Q115.575 565.362 109.765 565.362 Q103.955 565.362 100.876 560.779 Q97.8206 556.172 97.8206 547.446 Q97.8206 538.696 100.876 534.112 Q103.955 529.506 109.765 529.506 Z" fill="#000000" fill-rule="evenodd" fill-opacity="1" /><path clip-path="url(#clip290)" d="M133.955 560.756 L150.274 560.756 L150.274 564.691 L128.33 564.691 L128.33 560.756 Q130.992 558.001 135.575 553.372 Q140.181 548.719 141.362 547.376 Q143.607 544.853 144.487 543.117 Q145.39 541.358 145.39 539.668 Q145.39 536.913 143.445 535.177 Q141.524 533.441 138.422 533.441 Q136.223 533.441 133.769 534.205 Q131.339 534.969 128.561 536.52 L128.561 531.798 Q131.385 530.663 133.839 530.085 Q136.293 529.506 138.33 529.506 Q143.7 529.506 146.894 532.191 Q150.089 534.876 150.089 539.367 Q150.089 541.497 149.279 543.418 Q148.492 545.316 146.385 547.909 Q145.806 548.58 142.705 551.798 Q139.603 554.992 133.955 560.756 Z" fill="#000000" fill-rule="evenodd" fill-opacity="1" /><path clip-path="url(#clip290)" d="M63.5847 84.0573 Q59.9736 84.0573 58.1449 87.6221 Q56.3393 91.1637 56.3393 98.2933 Q56.3393 105.4 58.1449 108.965 Q59.9736 112.506 63.5847 112.506 Q67.2189 112.506 69.0244 108.965 Q70.8531 105.4 70.8531 98.2933 Q70.8531 91.1637 69.0244 87.6221 Q67.2189 84.0573 63.5847 84.0573 M63.5847 80.3536 Q69.3948 80.3536 72.4503 84.9601 Q75.529 89.5434 75.529 98.2933 Q75.529 107.02 72.4503 111.627 Q69.3948 116.21 63.5847 116.21 Q57.7745 116.21 54.6958 111.627 Q51.6403 107.02 51.6403 98.2933 Q51.6403 89.5434 54.6958 84.9601 Q57.7745 80.3536 63.5847 80.3536 Z" fill="#000000" fill-rule="evenodd" fill-opacity="1" /><path clip-path="url(#clip290)" d="M83.7466 109.659 L88.6308 109.659 L88.6308 115.539 L83.7466 115.539 L83.7466 109.659 Z" fill="#000000" fill-rule="evenodd" fill-opacity="1" /><path clip-path="url(#clip290)" d="M108.816 84.0573 Q105.205 84.0573 103.376 87.6221 Q101.571 91.1637 101.571 98.2933 Q101.571 105.4 103.376 108.965 Q105.205 112.506 108.816 112.506 Q112.45 112.506 114.256 108.965 Q116.084 105.4 116.084 98.2933 Q116.084 91.1637 114.256 87.6221 Q112.45 84.0573 108.816 84.0573 M108.816 80.3536 Q114.626 80.3536 117.682 84.9601 Q120.76 89.5434 120.76 98.2933 Q120.76 107.02 117.682 111.627 Q114.626 116.21 108.816 116.21 Q103.006 116.21 99.927 111.627 Q96.8715 107.02 96.8715 98.2933 Q96.8715 89.5434 99.927 84.9601 Q103.006 80.3536 108.816 80.3536 Z" fill="#000000" fill-rule="evenodd" fill-opacity="1" /><path clip-path="url(#clip290)" d="M143.144 96.9045 Q146.501 97.622 148.376 99.8905 Q150.274 102.159 150.274 105.492 Q150.274 110.608 146.756 113.409 Q143.237 116.21 136.756 116.21 Q134.58 116.21 132.265 115.77 Q129.973 115.353 127.519 114.497 L127.519 109.983 Q129.464 111.117 131.779 111.696 Q134.094 112.275 136.617 112.275 Q141.015 112.275 143.306 110.539 Q145.621 108.803 145.621 105.492 Q145.621 102.437 143.468 100.724 Q141.339 98.9878 137.519 98.9878 L133.492 98.9878 L133.492 95.1452 L137.705 95.1452 Q141.154 95.1452 142.982 93.7795 Q144.811 92.3906 144.811 89.798 Q144.811 87.136 142.913 85.724 Q141.038 84.2888 137.519 84.2888 Q135.598 84.2888 133.399 84.7054 Q131.2 85.1221 128.561 86.0017 L128.561 81.8351 Q131.223 81.0944 133.538 80.724 Q135.876 80.3536 137.936 80.3536 Q143.26 80.3536 146.362 82.7842 Q149.464 85.1916 149.464 89.3119 Q149.464 92.1823 147.82 94.173 Q146.177 96.1406 143.144 96.9045 Z" fill="#000000" fill-rule="evenodd" fill-opacity="1" /><path clip-path="url(#clip292)" d="
M272.116 1444.2 L272.116 1445.72 L280.291 1445.72 L280.291 1444.2 L272.116 1444.2 L272.116 1444.2  Z
  " fill="#009af9" fill-rule="evenodd" fill-opacity="1"/>
<polyline clip-path="url(#clip292)" style="stroke:#009af9; stroke-linecap:butt; stroke-linejoin:round; stroke-width:4; stroke-opacity:1; fill:none" points="
  272.116,1444.2 272.116,1445.72 280.291,1445.72 280.291,1444.2 272.116,1444.2 
  "/>
<path clip-path="url(#clip292)" d="
M280.291 1439.63 L280.291 1445.72 L288.467 1445.72 L288.467 1439.63 L280.291 1439.63 L280.291 1439.63  Z
  " fill="#009af9" fill-rule="evenodd" fill-opacity="1"/>
<polyline clip-path="url(#clip292)" style="stroke:#009af9; stroke-linecap:butt; stroke-linejoin:round; stroke-width:4; stroke-opacity:1; fill:none" points="
  280.291,1439.63 280.291,1445.72 288.467,1445.72 288.467,1439.63 280.291,1439.63 
  "/>
<path clip-path="url(#clip292)" d="
M288.467 1435.07 L288.467 1445.72 L296.642 1445.72 L296.642 1435.07 L288.467 1435.07 L288.467 1435.07  Z
  " fill="#009af9" fill-rule="evenodd" fill-opacity="1"/>
<polyline clip-path="url(#clip292)" style="stroke:#009af9; stroke-linecap:butt; stroke-linejoin:round; stroke-width:4; stroke-opacity:1; fill:none" points="
  288.467,1435.07 288.467,1445.72 296.642,1445.72 296.642,1435.07 288.467,1435.07 
  "/>
<path clip-path="url(#clip292)" d="
M296.642 1429.56 L296.642 1445.72 L304.817 1445.72 L304.817 1429.56 L296.642 1429.56 L296.642 1429.56  Z
  " fill="#009af9" fill-rule="evenodd" fill-opacity="1"/>
<polyline clip-path="url(#clip292)" style="stroke:#009af9; stroke-linecap:butt; stroke-linejoin:round; stroke-width:4; stroke-opacity:1; fill:none" points="
  296.642,1429.56 296.642,1445.72 304.817,1445.72 304.817,1429.56 296.642,1429.56 
  "/>
<path clip-path="url(#clip292)" d="
M304.817 1413.22 L304.817 1445.72 L312.993 1445.72 L312.993 1413.22 L304.817 1413.22 L304.817 1413.22  Z
  " fill="#009af9" fill-rule="evenodd" fill-opacity="1"/>
<polyline clip-path="url(#clip292)" style="stroke:#009af9; stroke-linecap:butt; stroke-linejoin:round; stroke-width:4; stroke-opacity:1; fill:none" points="
  304.817,1413.22 304.817,1445.72 312.993,1445.72 312.993,1413.22 304.817,1413.22 
  "/>
<path clip-path="url(#clip292)" d="
M312.993 1383.77 L312.993 1445.72 L321.168 1445.72 L321.168 1383.77 L312.993 1383.77 L312.993 1383.77  Z
  " fill="#009af9" fill-rule="evenodd" fill-opacity="1"/>
<polyline clip-path="url(#clip292)" style="stroke:#009af9; stroke-linecap:butt; stroke-linejoin:round; stroke-width:4; stroke-opacity:1; fill:none" points="
  312.993,1383.77 312.993,1445.72 321.168,1445.72 321.168,1383.77 312.993,1383.77 
  "/>
<path clip-path="url(#clip292)" d="
M321.168 1351.08 L321.168 1445.72 L329.344 1445.72 L329.344 1351.08 L321.168 1351.08 L321.168 1351.08  Z
  " fill="#009af9" fill-rule="evenodd" fill-opacity="1"/>
<polyline clip-path="url(#clip292)" style="stroke:#009af9; stroke-linecap:butt; stroke-linejoin:round; stroke-width:4; stroke-opacity:1; fill:none" points="
  321.168,1351.08 321.168,1445.72 329.344,1445.72 329.344,1351.08 321.168,1351.08 
  "/>
<path clip-path="url(#clip292)" d="
M329.344 1318.78 L329.344 1445.72 L337.519 1445.72 L337.519 1318.78 L329.344 1318.78 L329.344 1318.78  Z
  " fill="#009af9" fill-rule="evenodd" fill-opacity="1"/>
<polyline clip-path="url(#clip292)" style="stroke:#009af9; stroke-linecap:butt; stroke-linejoin:round; stroke-width:4; stroke-opacity:1; fill:none" points="
  329.344,1318.78 329.344,1445.72 337.519,1445.72 337.519,1318.78 329.344,1318.78 
  "/>
<path clip-path="url(#clip292)" d="
M337.519 1248.66 L337.519 1445.72 L345.694 1445.72 L345.694 1248.66 L337.519 1248.66 L337.519 1248.66  Z
  " fill="#009af9" fill-rule="evenodd" fill-opacity="1"/>
<polyline clip-path="url(#clip292)" style="stroke:#009af9; stroke-linecap:butt; stroke-linejoin:round; stroke-width:4; stroke-opacity:1; fill:none" points="
  337.519,1248.66 337.519,1445.72 345.694,1445.72 345.694,1248.66 337.519,1248.66 
  "/>
<path clip-path="url(#clip292)" d="
M345.694 1201.15 L345.694 1445.72 L353.87 1445.72 L353.87 1201.15 L345.694 1201.15 L345.694 1201.15  Z
  " fill="#009af9" fill-rule="evenodd" fill-opacity="1"/>
<polyline clip-path="url(#clip292)" style="stroke:#009af9; stroke-linecap:butt; stroke-linejoin:round; stroke-width:4; stroke-opacity:1; fill:none" points="
  345.694,1201.15 345.694,1445.72 353.87,1445.72 353.87,1201.15 345.694,1201.15 
  "/>
<path clip-path="url(#clip292)" d="
M353.87 1151.93 L353.87 1445.72 L362.045 1445.72 L362.045 1151.93 L353.87 1151.93 L353.87 1151.93  Z
  " fill="#009af9" fill-rule="evenodd" fill-opacity="1"/>
<polyline clip-path="url(#clip292)" style="stroke:#009af9; stroke-linecap:butt; stroke-linejoin:round; stroke-width:4; stroke-opacity:1; fill:none" points="
  353.87,1151.93 353.87,1445.72 362.045,1445.72 362.045,1151.93 353.87,1151.93 
  "/>
<path clip-path="url(#clip292)" d="
M362.045 1068.32 L362.045 1445.72 L370.221 1445.72 L370.221 1068.32 L362.045 1068.32 L362.045 1068.32  Z
  " fill="#009af9" fill-rule="evenodd" fill-opacity="1"/>
<polyline clip-path="url(#clip292)" style="stroke:#009af9; stroke-linecap:butt; stroke-linejoin:round; stroke-width:4; stroke-opacity:1; fill:none" points="
  362.045,1068.32 362.045,1445.72 370.221,1445.72 370.221,1068.32 362.045,1068.32 
  "/>
<path clip-path="url(#clip292)" d="
M370.221 941.005 L370.221 1445.72 L378.396 1445.72 L378.396 941.005 L370.221 941.005 L370.221 941.005  Z
  " fill="#009af9" fill-rule="evenodd" fill-opacity="1"/>
<polyline clip-path="url(#clip292)" style="stroke:#009af9; stroke-linecap:butt; stroke-linejoin:round; stroke-width:4; stroke-opacity:1; fill:none" points="
  370.221,941.005 370.221,1445.72 378.396,1445.72 378.396,941.005 370.221,941.005 
  "/>
<path clip-path="url(#clip292)" d="
M378.396 898.249 L378.396 1445.72 L386.571 1445.72 L386.571 898.249 L378.396 898.249 L378.396 898.249  Z
  " fill="#009af9" fill-rule="evenodd" fill-opacity="1"/>
<polyline clip-path="url(#clip292)" style="stroke:#009af9; stroke-linecap:butt; stroke-linejoin:round; stroke-width:4; stroke-opacity:1; fill:none" points="
  378.396,898.249 378.396,1445.72 386.571,1445.72 386.571,898.249 378.396,898.249 
  "/>
<path clip-path="url(#clip292)" d="
M386.571 769.221 L386.571 1445.72 L394.747 1445.72 L394.747 769.221 L386.571 769.221 L386.571 769.221  Z
  " fill="#009af9" fill-rule="evenodd" fill-opacity="1"/>
<polyline clip-path="url(#clip292)" style="stroke:#009af9; stroke-linecap:butt; stroke-linejoin:round; stroke-width:4; stroke-opacity:1; fill:none" points="
  386.571,769.221 386.571,1445.72 394.747,1445.72 394.747,769.221 386.571,769.221 
  "/>
<path clip-path="url(#clip292)" d="
M394.747 670.218 L394.747 1445.72 L402.922 1445.72 L402.922 670.218 L394.747 670.218 L394.747 670.218  Z
  " fill="#009af9" fill-rule="evenodd" fill-opacity="1"/>
<polyline clip-path="url(#clip292)" style="stroke:#009af9; stroke-linecap:butt; stroke-linejoin:round; stroke-width:4; stroke-opacity:1; fill:none" points="
  394.747,670.218 394.747,1445.72 402.922,1445.72 402.922,670.218 394.747,670.218 
  "/>
<path clip-path="url(#clip292)" d="
M402.922 598.197 L402.922 1445.72 L411.098 1445.72 L411.098 598.197 L402.922 598.197 L402.922 598.197  Z
  " fill="#009af9" fill-rule="evenodd" fill-opacity="1"/>
<polyline clip-path="url(#clip292)" style="stroke:#009af9; stroke-linecap:butt; stroke-linejoin:round; stroke-width:4; stroke-opacity:1; fill:none" points="
  402.922,598.197 402.922,1445.72 411.098,1445.72 411.098,598.197 402.922,598.197 
  "/>
<path clip-path="url(#clip292)" d="
M411.098 489.312 L411.098 1445.72 L419.273 1445.72 L419.273 489.312 L411.098 489.312 L411.098 489.312  Z
  " fill="#009af9" fill-rule="evenodd" fill-opacity="1"/>
<polyline clip-path="url(#clip292)" style="stroke:#009af9; stroke-linecap:butt; stroke-linejoin:round; stroke-width:4; stroke-opacity:1; fill:none" points="
  411.098,489.312 411.098,1445.72 419.273,1445.72 419.273,489.312 411.098,489.312 
  "/>
<path clip-path="url(#clip292)" d="
M419.273 396.769 L419.273 1445.72 L427.448 1445.72 L427.448 396.769 L419.273 396.769 L419.273 396.769  Z
  " fill="#009af9" fill-rule="evenodd" fill-opacity="1"/>
<polyline clip-path="url(#clip292)" style="stroke:#009af9; stroke-linecap:butt; stroke-linejoin:round; stroke-width:4; stroke-opacity:1; fill:none" points="
  419.273,396.769 419.273,1445.72 427.448,1445.72 427.448,396.769 419.273,396.769 
  "/>
<path clip-path="url(#clip292)" d="
M427.448 327.98 L427.448 1445.72 L435.624 1445.72 L435.624 327.98 L427.448 327.98 L427.448 327.98  Z
  " fill="#009af9" fill-rule="evenodd" fill-opacity="1"/>
<polyline clip-path="url(#clip292)" style="stroke:#009af9; stroke-linecap:butt; stroke-linejoin:round; stroke-width:4; stroke-opacity:1; fill:none" points="
  427.448,327.98 427.448,1445.72 435.624,1445.72 435.624,327.98 427.448,327.98 
  "/>
<path clip-path="url(#clip292)" d="
M435.624 272.872 L435.624 1445.72 L443.799 1445.72 L443.799 272.872 L435.624 272.872 L435.624 272.872  Z
  " fill="#009af9" fill-rule="evenodd" fill-opacity="1"/>
<polyline clip-path="url(#clip292)" style="stroke:#009af9; stroke-linecap:butt; stroke-linejoin:round; stroke-width:4; stroke-opacity:1; fill:none" points="
  435.624,272.872 435.624,1445.72 443.799,1445.72 443.799,272.872 435.624,272.872 
  "/>
<path clip-path="url(#clip292)" d="
M443.799 256.91 L443.799 1445.72 L451.975 1445.72 L451.975 256.91 L443.799 256.91 L443.799 256.91  Z
  " fill="#009af9" fill-rule="evenodd" fill-opacity="1"/>
<polyline clip-path="url(#clip292)" style="stroke:#009af9; stroke-linecap:butt; stroke-linejoin:round; stroke-width:4; stroke-opacity:1; fill:none" points="
  443.799,256.91 443.799,1445.72 451.975,1445.72 451.975,256.91 443.799,256.91 
  "/>
<path clip-path="url(#clip292)" d="
M451.975 174.248 L451.975 1445.72 L460.15 1445.72 L460.15 174.248 L451.975 174.248 L451.975 174.248  Z
  " fill="#009af9" fill-rule="evenodd" fill-opacity="1"/>
<polyline clip-path="url(#clip292)" style="stroke:#009af9; stroke-linecap:butt; stroke-linejoin:round; stroke-width:4; stroke-opacity:1; fill:none" points="
  451.975,174.248 451.975,1445.72 460.15,1445.72 460.15,174.248 451.975,174.248 
  "/>
<path clip-path="url(#clip292)" d="
M460.15 171.398 L460.15 1445.72 L468.325 1445.72 L468.325 171.398 L460.15 171.398 L460.15 171.398  Z
  " fill="#009af9" fill-rule="evenodd" fill-opacity="1"/>
<polyline clip-path="url(#clip292)" style="stroke:#009af9; stroke-linecap:butt; stroke-linejoin:round; stroke-width:4; stroke-opacity:1; fill:none" points="
  460.15,171.398 460.15,1445.72 468.325,1445.72 468.325,171.398 460.15,171.398 
  "/>
<path clip-path="url(#clip292)" d="
M468.325 98.6178 L468.325 1445.72 L476.501 1445.72 L476.501 98.6178 L468.325 98.6178 L468.325 98.6178  Z
  " fill="#009af9" fill-rule="evenodd" fill-opacity="1"/>
<polyline clip-path="url(#clip292)" style="stroke:#009af9; stroke-linecap:butt; stroke-linejoin:round; stroke-width:4; stroke-opacity:1; fill:none" points="
  468.325,98.6178 468.325,1445.72 476.501,1445.72 476.501,98.6178 468.325,98.6178 
  "/>
<path clip-path="url(#clip292)" d="
M476.501 102.798 L476.501 1445.72 L484.676 1445.72 L484.676 102.798 L476.501 102.798 L476.501 102.798  Z
  " fill="#009af9" fill-rule="evenodd" fill-opacity="1"/>
<polyline clip-path="url(#clip292)" style="stroke:#009af9; stroke-linecap:butt; stroke-linejoin:round; stroke-width:4; stroke-opacity:1; fill:none" points="
  476.501,102.798 476.501,1445.72 484.676,1445.72 484.676,102.798 476.501,102.798 
  "/>
<path clip-path="url(#clip292)" d="
M484.676 108.499 L484.676 1445.72 L492.852 1445.72 L492.852 108.499 L484.676 108.499 L484.676 108.499  Z
  " fill="#009af9" fill-rule="evenodd" fill-opacity="1"/>
<polyline clip-path="url(#clip292)" style="stroke:#009af9; stroke-linecap:butt; stroke-linejoin:round; stroke-width:4; stroke-opacity:1; fill:none" points="
  484.676,108.499 484.676,1445.72 492.852,1445.72 492.852,108.499 484.676,108.499 
  "/>
<path clip-path="url(#clip292)" d="
M492.852 87.9763 L492.852 1445.72 L501.027 1445.72 L501.027 87.9763 L492.852 87.9763 L492.852 87.9763  Z
  " fill="#009af9" fill-rule="evenodd" fill-opacity="1"/>
<polyline clip-path="url(#clip292)" style="stroke:#009af9; stroke-linecap:butt; stroke-linejoin:round; stroke-width:4; stroke-opacity:1; fill:none" points="
  492.852,87.9763 492.852,1445.72 501.027,1445.72 501.027,87.9763 492.852,87.9763 
  "/>
<path clip-path="url(#clip292)" d="
M501.027 112.68 L501.027 1445.72 L509.202 1445.72 L509.202 112.68 L501.027 112.68 L501.027 112.68  Z
  " fill="#009af9" fill-rule="evenodd" fill-opacity="1"/>
<polyline clip-path="url(#clip292)" style="stroke:#009af9; stroke-linecap:butt; stroke-linejoin:round; stroke-width:4; stroke-opacity:1; fill:none" points="
  501.027,112.68 501.027,1445.72 509.202,1445.72 509.202,112.68 501.027,112.68 
  "/>
<path clip-path="url(#clip292)" d="
M509.202 137.003 L509.202 1445.72 L517.378 1445.72 L517.378 137.003 L509.202 137.003 L509.202 137.003  Z
  " fill="#009af9" fill-rule="evenodd" fill-opacity="1"/>
<polyline clip-path="url(#clip292)" style="stroke:#009af9; stroke-linecap:butt; stroke-linejoin:round; stroke-width:4; stroke-opacity:1; fill:none" points="
  509.202,137.003 509.202,1445.72 517.378,1445.72 517.378,137.003 509.202,137.003 
  "/>
<path clip-path="url(#clip292)" d="
M517.378 170.258 L517.378 1445.72 L525.553 1445.72 L525.553 170.258 L517.378 170.258 L517.378 170.258  Z
  " fill="#009af9" fill-rule="evenodd" fill-opacity="1"/>
<polyline clip-path="url(#clip292)" style="stroke:#009af9; stroke-linecap:butt; stroke-linejoin:round; stroke-width:4; stroke-opacity:1; fill:none" points="
  517.378,170.258 517.378,1445.72 525.553,1445.72 525.553,170.258 517.378,170.258 
  "/>
<path clip-path="url(#clip292)" d="
M525.553 205.033 L525.553 1445.72 L533.729 1445.72 L533.729 205.033 L525.553 205.033 L525.553 205.033  Z
  " fill="#009af9" fill-rule="evenodd" fill-opacity="1"/>
<polyline clip-path="url(#clip292)" style="stroke:#009af9; stroke-linecap:butt; stroke-linejoin:round; stroke-width:4; stroke-opacity:1; fill:none" points="
  525.553,205.033 525.553,1445.72 533.729,1445.72 533.729,205.033 525.553,205.033 
  "/>
<path clip-path="url(#clip292)" d="
M533.729 256.15 L533.729 1445.72 L541.904 1445.72 L541.904 256.15 L533.729 256.15 L533.729 256.15  Z
  " fill="#009af9" fill-rule="evenodd" fill-opacity="1"/>
<polyline clip-path="url(#clip292)" style="stroke:#009af9; stroke-linecap:butt; stroke-linejoin:round; stroke-width:4; stroke-opacity:1; fill:none" points="
  533.729,256.15 533.729,1445.72 541.904,1445.72 541.904,256.15 533.729,256.15 
  "/>
<path clip-path="url(#clip292)" d="
M541.904 270.212 L541.904 1445.72 L550.079 1445.72 L550.079 270.212 L541.904 270.212 L541.904 270.212  Z
  " fill="#009af9" fill-rule="evenodd" fill-opacity="1"/>
<polyline clip-path="url(#clip292)" style="stroke:#009af9; stroke-linecap:butt; stroke-linejoin:round; stroke-width:4; stroke-opacity:1; fill:none" points="
  541.904,270.212 541.904,1445.72 550.079,1445.72 550.079,270.212 541.904,270.212 
  "/>
<path clip-path="url(#clip292)" d="
M550.079 316.578 L550.079 1445.72 L558.255 1445.72 L558.255 316.578 L550.079 316.578 L550.079 316.578  Z
  " fill="#009af9" fill-rule="evenodd" fill-opacity="1"/>
<polyline clip-path="url(#clip292)" style="stroke:#009af9; stroke-linecap:butt; stroke-linejoin:round; stroke-width:4; stroke-opacity:1; fill:none" points="
  550.079,316.578 550.079,1445.72 558.255,1445.72 558.255,316.578 550.079,316.578 
  "/>
<path clip-path="url(#clip292)" d="
M558.255 353.633 L558.255 1445.72 L566.43 1445.72 L566.43 353.633 L558.255 353.633 L558.255 353.633  Z
  " fill="#009af9" fill-rule="evenodd" fill-opacity="1"/>
<polyline clip-path="url(#clip292)" style="stroke:#009af9; stroke-linecap:butt; stroke-linejoin:round; stroke-width:4; stroke-opacity:1; fill:none" points="
  558.255,353.633 558.255,1445.72 566.43,1445.72 566.43,353.633 558.255,353.633 
  "/>
<path clip-path="url(#clip292)" d="
M566.43 387.648 L566.43 1445.72 L574.606 1445.72 L574.606 387.648 L566.43 387.648 L566.43 387.648  Z
  " fill="#009af9" fill-rule="evenodd" fill-opacity="1"/>
<polyline clip-path="url(#clip292)" style="stroke:#009af9; stroke-linecap:butt; stroke-linejoin:round; stroke-width:4; stroke-opacity:1; fill:none" points="
  566.43,387.648 566.43,1445.72 574.606,1445.72 574.606,387.648 566.43,387.648 
  "/>
<path clip-path="url(#clip292)" d="
M574.606 448.077 L574.606 1445.72 L582.781 1445.72 L582.781 448.077 L574.606 448.077 L574.606 448.077  Z
  " fill="#009af9" fill-rule="evenodd" fill-opacity="1"/>
<polyline clip-path="url(#clip292)" style="stroke:#009af9; stroke-linecap:butt; stroke-linejoin:round; stroke-width:4; stroke-opacity:1; fill:none" points="
  574.606,448.077 574.606,1445.72 582.781,1445.72 582.781,448.077 574.606,448.077 
  "/>
<path clip-path="url(#clip292)" d="
M582.781 483.231 L582.781 1445.72 L590.956 1445.72 L590.956 483.231 L582.781 483.231 L582.781 483.231  Z
  " fill="#009af9" fill-rule="evenodd" fill-opacity="1"/>
<polyline clip-path="url(#clip292)" style="stroke:#009af9; stroke-linecap:butt; stroke-linejoin:round; stroke-width:4; stroke-opacity:1; fill:none" points="
  582.781,483.231 582.781,1445.72 590.956,1445.72 590.956,483.231 582.781,483.231 
  "/>
<path clip-path="url(#clip292)" d="
M590.956 531.878 L590.956 1445.72 L599.132 1445.72 L599.132 531.878 L590.956 531.878 L590.956 531.878  Z
  " fill="#009af9" fill-rule="evenodd" fill-opacity="1"/>
<polyline clip-path="url(#clip292)" style="stroke:#009af9; stroke-linecap:butt; stroke-linejoin:round; stroke-width:4; stroke-opacity:1; fill:none" points="
  590.956,531.878 590.956,1445.72 599.132,1445.72 599.132,531.878 590.956,531.878 
  "/>
<path clip-path="url(#clip292)" d="
M599.132 564.183 L599.132 1445.72 L607.307 1445.72 L607.307 564.183 L599.132 564.183 L599.132 564.183  Z
  " fill="#009af9" fill-rule="evenodd" fill-opacity="1"/>
<polyline clip-path="url(#clip292)" style="stroke:#009af9; stroke-linecap:butt; stroke-linejoin:round; stroke-width:4; stroke-opacity:1; fill:none" points="
  599.132,564.183 599.132,1445.72 607.307,1445.72 607.307,564.183 599.132,564.183 
  "/>
<path clip-path="url(#clip292)" d="
M607.307 624.991 L607.307 1445.72 L615.483 1445.72 L615.483 624.991 L607.307 624.991 L607.307 624.991  Z
  " fill="#009af9" fill-rule="evenodd" fill-opacity="1"/>
<polyline clip-path="url(#clip292)" style="stroke:#009af9; stroke-linecap:butt; stroke-linejoin:round; stroke-width:4; stroke-opacity:1; fill:none" points="
  607.307,624.991 607.307,1445.72 615.483,1445.72 615.483,624.991 607.307,624.991 
  "/>
<path clip-path="url(#clip292)" d="
M615.483 675.348 L615.483 1445.72 L623.658 1445.72 L623.658 675.348 L615.483 675.348 L615.483 675.348  Z
  " fill="#009af9" fill-rule="evenodd" fill-opacity="1"/>
<polyline clip-path="url(#clip292)" style="stroke:#009af9; stroke-linecap:butt; stroke-linejoin:round; stroke-width:4; stroke-opacity:1; fill:none" points="
  615.483,675.348 615.483,1445.72 623.658,1445.72 623.658,675.348 615.483,675.348 
  "/>
<path clip-path="url(#clip292)" d="
M623.658 681.049 L623.658 1445.72 L631.833 1445.72 L631.833 681.049 L623.658 681.049 L623.658 681.049  Z
  " fill="#009af9" fill-rule="evenodd" fill-opacity="1"/>
<polyline clip-path="url(#clip292)" style="stroke:#009af9; stroke-linecap:butt; stroke-linejoin:round; stroke-width:4; stroke-opacity:1; fill:none" points="
  623.658,681.049 623.658,1445.72 631.833,1445.72 631.833,681.049 623.658,681.049 
  "/>
<path clip-path="url(#clip292)" d="
M631.833 753.069 L631.833 1445.72 L640.009 1445.72 L640.009 753.069 L631.833 753.069 L631.833 753.069  Z
  " fill="#009af9" fill-rule="evenodd" fill-opacity="1"/>
<polyline clip-path="url(#clip292)" style="stroke:#009af9; stroke-linecap:butt; stroke-linejoin:round; stroke-width:4; stroke-opacity:1; fill:none" points="
  631.833,753.069 631.833,1445.72 640.009,1445.72 640.009,753.069 631.833,753.069 
  "/>
<path clip-path="url(#clip292)" d="
M640.009 798.485 L640.009 1445.72 L648.184 1445.72 L648.184 798.485 L640.009 798.485 L640.009 798.485  Z
  " fill="#009af9" fill-rule="evenodd" fill-opacity="1"/>
<polyline clip-path="url(#clip292)" style="stroke:#009af9; stroke-linecap:butt; stroke-linejoin:round; stroke-width:4; stroke-opacity:1; fill:none" points="
  640.009,798.485 640.009,1445.72 648.184,1445.72 648.184,798.485 640.009,798.485 
  "/>
<path clip-path="url(#clip292)" d="
M648.184 826.799 L648.184 1445.72 L656.36 1445.72 L656.36 826.799 L648.184 826.799 L648.184 826.799  Z
  " fill="#009af9" fill-rule="evenodd" fill-opacity="1"/>
<polyline clip-path="url(#clip292)" style="stroke:#009af9; stroke-linecap:butt; stroke-linejoin:round; stroke-width:4; stroke-opacity:1; fill:none" points="
  648.184,826.799 648.184,1445.72 656.36,1445.72 656.36,826.799 648.184,826.799 
  "/>
<path clip-path="url(#clip292)" d="
M656.36 857.204 L656.36 1445.72 L664.535 1445.72 L664.535 857.204 L656.36 857.204 L656.36 857.204  Z
  " fill="#009af9" fill-rule="evenodd" fill-opacity="1"/>
<polyline clip-path="url(#clip292)" style="stroke:#009af9; stroke-linecap:butt; stroke-linejoin:round; stroke-width:4; stroke-opacity:1; fill:none" points="
  656.36,857.204 656.36,1445.72 664.535,1445.72 664.535,857.204 656.36,857.204 
  "/>
<path clip-path="url(#clip292)" d="
M664.535 908.131 L664.535 1445.72 L672.711 1445.72 L672.711 908.131 L664.535 908.131 L664.535 908.131  Z
  " fill="#009af9" fill-rule="evenodd" fill-opacity="1"/>
<polyline clip-path="url(#clip292)" style="stroke:#009af9; stroke-linecap:butt; stroke-linejoin:round; stroke-width:4; stroke-opacity:1; fill:none" points="
  664.535,908.131 664.535,1445.72 672.711,1445.72 672.711,908.131 664.535,908.131 
  "/>
<path clip-path="url(#clip292)" d="
M672.711 942.716 L672.711 1445.72 L680.886 1445.72 L680.886 942.716 L672.711 942.716 L672.711 942.716  Z
  " fill="#009af9" fill-rule="evenodd" fill-opacity="1"/>
<polyline clip-path="url(#clip292)" style="stroke:#009af9; stroke-linecap:butt; stroke-linejoin:round; stroke-width:4; stroke-opacity:1; fill:none" points="
  672.711,942.716 672.711,1445.72 680.886,1445.72 680.886,942.716 672.711,942.716 
  "/>
<path clip-path="url(#clip292)" d="
M680.886 978.441 L680.886 1445.72 L689.061 1445.72 L689.061 978.441 L680.886 978.441 L680.886 978.441  Z
  " fill="#009af9" fill-rule="evenodd" fill-opacity="1"/>
<polyline clip-path="url(#clip292)" style="stroke:#009af9; stroke-linecap:butt; stroke-linejoin:round; stroke-width:4; stroke-opacity:1; fill:none" points="
  680.886,978.441 680.886,1445.72 689.061,1445.72 689.061,978.441 680.886,978.441 
  "/>
<path clip-path="url(#clip292)" d="
M689.061 1007.32 L689.061 1445.72 L697.237 1445.72 L697.237 1007.32 L689.061 1007.32 L689.061 1007.32  Z
  " fill="#009af9" fill-rule="evenodd" fill-opacity="1"/>
<polyline clip-path="url(#clip292)" style="stroke:#009af9; stroke-linecap:butt; stroke-linejoin:round; stroke-width:4; stroke-opacity:1; fill:none" points="
  689.061,1007.32 689.061,1445.72 697.237,1445.72 697.237,1007.32 689.061,1007.32 
  "/>
<path clip-path="url(#clip292)" d="
M697.237 1032.79 L697.237 1445.72 L705.412 1445.72 L705.412 1032.79 L697.237 1032.79 L697.237 1032.79  Z
  " fill="#009af9" fill-rule="evenodd" fill-opacity="1"/>
<polyline clip-path="url(#clip292)" style="stroke:#009af9; stroke-linecap:butt; stroke-linejoin:round; stroke-width:4; stroke-opacity:1; fill:none" points="
  697.237,1032.79 697.237,1445.72 705.412,1445.72 705.412,1032.79 697.237,1032.79 
  "/>
<path clip-path="url(#clip292)" d="
M705.412 1057.68 L705.412 1445.72 L713.588 1445.72 L713.588 1057.68 L705.412 1057.68 L705.412 1057.68  Z
  " fill="#009af9" fill-rule="evenodd" fill-opacity="1"/>
<polyline clip-path="url(#clip292)" style="stroke:#009af9; stroke-linecap:butt; stroke-linejoin:round; stroke-width:4; stroke-opacity:1; fill:none" points="
  705.412,1057.68 705.412,1445.72 713.588,1445.72 713.588,1057.68 705.412,1057.68 
  "/>
<path clip-path="url(#clip292)" d="
M713.588 1083.72 L713.588 1445.72 L721.763 1445.72 L721.763 1083.72 L713.588 1083.72 L713.588 1083.72  Z
  " fill="#009af9" fill-rule="evenodd" fill-opacity="1"/>
<polyline clip-path="url(#clip292)" style="stroke:#009af9; stroke-linecap:butt; stroke-linejoin:round; stroke-width:4; stroke-opacity:1; fill:none" points="
  713.588,1083.72 713.588,1445.72 721.763,1445.72 721.763,1083.72 713.588,1083.72 
  "/>
<path clip-path="url(#clip292)" d="
M721.763 1113.36 L721.763 1445.72 L729.938 1445.72 L729.938 1113.36 L721.763 1113.36 L721.763 1113.36  Z
  " fill="#009af9" fill-rule="evenodd" fill-opacity="1"/>
<polyline clip-path="url(#clip292)" style="stroke:#009af9; stroke-linecap:butt; stroke-linejoin:round; stroke-width:4; stroke-opacity:1; fill:none" points="
  721.763,1113.36 721.763,1445.72 729.938,1445.72 729.938,1113.36 721.763,1113.36 
  "/>
<path clip-path="url(#clip292)" d="
M729.938 1133.31 L729.938 1445.72 L738.114 1445.72 L738.114 1133.31 L729.938 1133.31 L729.938 1133.31  Z
  " fill="#009af9" fill-rule="evenodd" fill-opacity="1"/>
<polyline clip-path="url(#clip292)" style="stroke:#009af9; stroke-linecap:butt; stroke-linejoin:round; stroke-width:4; stroke-opacity:1; fill:none" points="
  729.938,1133.31 729.938,1445.72 738.114,1445.72 738.114,1133.31 729.938,1133.31 
  "/>
<path clip-path="url(#clip292)" d="
M738.114 1150.22 L738.114 1445.72 L746.289 1445.72 L746.289 1150.22 L738.114 1150.22 L738.114 1150.22  Z
  " fill="#009af9" fill-rule="evenodd" fill-opacity="1"/>
<polyline clip-path="url(#clip292)" style="stroke:#009af9; stroke-linecap:butt; stroke-linejoin:round; stroke-width:4; stroke-opacity:1; fill:none" points="
  738.114,1150.22 738.114,1445.72 746.289,1445.72 746.289,1150.22 738.114,1150.22 
  "/>
<path clip-path="url(#clip292)" d="
M746.289 1176.07 L746.289 1445.72 L754.465 1445.72 L754.465 1176.07 L746.289 1176.07 L746.289 1176.07  Z
  " fill="#009af9" fill-rule="evenodd" fill-opacity="1"/>
<polyline clip-path="url(#clip292)" style="stroke:#009af9; stroke-linecap:butt; stroke-linejoin:round; stroke-width:4; stroke-opacity:1; fill:none" points="
  746.289,1176.07 746.289,1445.72 754.465,1445.72 754.465,1176.07 746.289,1176.07 
  "/>
<path clip-path="url(#clip292)" d="
M754.465 1186.9 L754.465 1445.72 L762.64 1445.72 L762.64 1186.9 L754.465 1186.9 L754.465 1186.9  Z
  " fill="#009af9" fill-rule="evenodd" fill-opacity="1"/>
<polyline clip-path="url(#clip292)" style="stroke:#009af9; stroke-linecap:butt; stroke-linejoin:round; stroke-width:4; stroke-opacity:1; fill:none" points="
  754.465,1186.9 754.465,1445.72 762.64,1445.72 762.64,1186.9 754.465,1186.9 
  "/>
<path clip-path="url(#clip292)" d="
M762.64 1224.14 L762.64 1445.72 L770.815 1445.72 L770.815 1224.14 L762.64 1224.14 L762.64 1224.14  Z
  " fill="#009af9" fill-rule="evenodd" fill-opacity="1"/>
<polyline clip-path="url(#clip292)" style="stroke:#009af9; stroke-linecap:butt; stroke-linejoin:round; stroke-width:4; stroke-opacity:1; fill:none" points="
  762.64,1224.14 762.64,1445.72 770.815,1445.72 770.815,1224.14 762.64,1224.14 
  "/>
<path clip-path="url(#clip292)" d="
M770.815 1237.07 L770.815 1445.72 L778.991 1445.72 L778.991 1237.07 L770.815 1237.07 L770.815 1237.07  Z
  " fill="#009af9" fill-rule="evenodd" fill-opacity="1"/>
<polyline clip-path="url(#clip292)" style="stroke:#009af9; stroke-linecap:butt; stroke-linejoin:round; stroke-width:4; stroke-opacity:1; fill:none" points="
  770.815,1237.07 770.815,1445.72 778.991,1445.72 778.991,1237.07 770.815,1237.07 
  "/>
<path clip-path="url(#clip292)" d="
M778.991 1248.47 L778.991 1445.72 L787.166 1445.72 L787.166 1248.47 L778.991 1248.47 L778.991 1248.47  Z
  " fill="#009af9" fill-rule="evenodd" fill-opacity="1"/>
<polyline clip-path="url(#clip292)" style="stroke:#009af9; stroke-linecap:butt; stroke-linejoin:round; stroke-width:4; stroke-opacity:1; fill:none" points="
  778.991,1248.47 778.991,1445.72 787.166,1445.72 787.166,1248.47 778.991,1248.47 
  "/>
<path clip-path="url(#clip292)" d="
M787.166 1266.52 L787.166 1445.72 L795.342 1445.72 L795.342 1266.52 L787.166 1266.52 L787.166 1266.52  Z
  " fill="#009af9" fill-rule="evenodd" fill-opacity="1"/>
<polyline clip-path="url(#clip292)" style="stroke:#009af9; stroke-linecap:butt; stroke-linejoin:round; stroke-width:4; stroke-opacity:1; fill:none" points="
  787.166,1266.52 787.166,1445.72 795.342,1445.72 795.342,1266.52 787.166,1266.52 
  "/>
<path clip-path="url(#clip292)" d="
M795.342 1284.19 L795.342 1445.72 L803.517 1445.72 L803.517 1284.19 L795.342 1284.19 L795.342 1284.19  Z
  " fill="#009af9" fill-rule="evenodd" fill-opacity="1"/>
<polyline clip-path="url(#clip292)" style="stroke:#009af9; stroke-linecap:butt; stroke-linejoin:round; stroke-width:4; stroke-opacity:1; fill:none" points="
  795.342,1284.19 795.342,1445.72 803.517,1445.72 803.517,1284.19 795.342,1284.19 
  "/>
<path clip-path="url(#clip292)" d="
M803.517 1296.73 L803.517 1445.72 L811.692 1445.72 L811.692 1296.73 L803.517 1296.73 L803.517 1296.73  Z
  " fill="#009af9" fill-rule="evenodd" fill-opacity="1"/>
<polyline clip-path="url(#clip292)" style="stroke:#009af9; stroke-linecap:butt; stroke-linejoin:round; stroke-width:4; stroke-opacity:1; fill:none" points="
  803.517,1296.73 803.517,1445.72 811.692,1445.72 811.692,1296.73 803.517,1296.73 
  "/>
<path clip-path="url(#clip292)" d="
M811.692 1309.47 L811.692 1445.72 L819.868 1445.72 L819.868 1309.47 L811.692 1309.47 L811.692 1309.47  Z
  " fill="#009af9" fill-rule="evenodd" fill-opacity="1"/>
<polyline clip-path="url(#clip292)" style="stroke:#009af9; stroke-linecap:butt; stroke-linejoin:round; stroke-width:4; stroke-opacity:1; fill:none" points="
  811.692,1309.47 811.692,1445.72 819.868,1445.72 819.868,1309.47 811.692,1309.47 
  "/>
<path clip-path="url(#clip292)" d="
M819.868 1317.83 L819.868 1445.72 L828.043 1445.72 L828.043 1317.83 L819.868 1317.83 L819.868 1317.83  Z
  " fill="#009af9" fill-rule="evenodd" fill-opacity="1"/>
<polyline clip-path="url(#clip292)" style="stroke:#009af9; stroke-linecap:butt; stroke-linejoin:round; stroke-width:4; stroke-opacity:1; fill:none" points="
  819.868,1317.83 819.868,1445.72 828.043,1445.72 828.043,1317.83 819.868,1317.83 
  "/>
<path clip-path="url(#clip292)" d="
M828.043 1330.94 L828.043 1445.72 L836.219 1445.72 L836.219 1330.94 L828.043 1330.94 L828.043 1330.94  Z
  " fill="#009af9" fill-rule="evenodd" fill-opacity="1"/>
<polyline clip-path="url(#clip292)" style="stroke:#009af9; stroke-linecap:butt; stroke-linejoin:round; stroke-width:4; stroke-opacity:1; fill:none" points="
  828.043,1330.94 828.043,1445.72 836.219,1445.72 836.219,1330.94 828.043,1330.94 
  "/>
<path clip-path="url(#clip292)" d="
M836.219 1343.67 L836.219 1445.72 L844.394 1445.72 L844.394 1343.67 L836.219 1343.67 L836.219 1343.67  Z
  " fill="#009af9" fill-rule="evenodd" fill-opacity="1"/>
<polyline clip-path="url(#clip292)" style="stroke:#009af9; stroke-linecap:butt; stroke-linejoin:round; stroke-width:4; stroke-opacity:1; fill:none" points="
  836.219,1343.67 836.219,1445.72 844.394,1445.72 844.394,1343.67 836.219,1343.67 
  "/>
<path clip-path="url(#clip292)" d="
M844.394 1347.09 L844.394 1445.72 L852.569 1445.72 L852.569 1347.09 L844.394 1347.09 L844.394 1347.09  Z
  " fill="#009af9" fill-rule="evenodd" fill-opacity="1"/>
<polyline clip-path="url(#clip292)" style="stroke:#009af9; stroke-linecap:butt; stroke-linejoin:round; stroke-width:4; stroke-opacity:1; fill:none" points="
  844.394,1347.09 844.394,1445.72 852.569,1445.72 852.569,1347.09 844.394,1347.09 
  "/>
<path clip-path="url(#clip292)" d="
M852.569 1355.64 L852.569 1445.72 L860.745 1445.72 L860.745 1355.64 L852.569 1355.64 L852.569 1355.64  Z
  " fill="#009af9" fill-rule="evenodd" fill-opacity="1"/>
<polyline clip-path="url(#clip292)" style="stroke:#009af9; stroke-linecap:butt; stroke-linejoin:round; stroke-width:4; stroke-opacity:1; fill:none" points="
  852.569,1355.64 852.569,1445.72 860.745,1445.72 860.745,1355.64 852.569,1355.64 
  "/>
<path clip-path="url(#clip292)" d="
M860.745 1364.95 L860.745 1445.72 L868.92 1445.72 L868.92 1364.95 L860.745 1364.95 L860.745 1364.95  Z
  " fill="#009af9" fill-rule="evenodd" fill-opacity="1"/>
<polyline clip-path="url(#clip292)" style="stroke:#009af9; stroke-linecap:butt; stroke-linejoin:round; stroke-width:4; stroke-opacity:1; fill:none" points="
  860.745,1364.95 860.745,1445.72 868.92,1445.72 868.92,1364.95 860.745,1364.95 
  "/>
<path clip-path="url(#clip292)" d="
M868.92 1367.99 L868.92 1445.72 L877.096 1445.72 L877.096 1367.99 L868.92 1367.99 L868.92 1367.99  Z
  " fill="#009af9" fill-rule="evenodd" fill-opacity="1"/>
<polyline clip-path="url(#clip292)" style="stroke:#009af9; stroke-linecap:butt; stroke-linejoin:round; stroke-width:4; stroke-opacity:1; fill:none" points="
  868.92,1367.99 868.92,1445.72 877.096,1445.72 877.096,1367.99 868.92,1367.99 
  "/>
<path clip-path="url(#clip292)" d="
M877.096 1376.17 L877.096 1445.72 L885.271 1445.72 L885.271 1376.17 L877.096 1376.17 L877.096 1376.17  Z
  " fill="#009af9" fill-rule="evenodd" fill-opacity="1"/>
<polyline clip-path="url(#clip292)" style="stroke:#009af9; stroke-linecap:butt; stroke-linejoin:round; stroke-width:4; stroke-opacity:1; fill:none" points="
  877.096,1376.17 877.096,1445.72 885.271,1445.72 885.271,1376.17 877.096,1376.17 
  "/>
<path clip-path="url(#clip292)" d="
M885.271 1386.81 L885.271 1445.72 L893.446 1445.72 L893.446 1386.81 L885.271 1386.81 L885.271 1386.81  Z
  " fill="#009af9" fill-rule="evenodd" fill-opacity="1"/>
<polyline clip-path="url(#clip292)" style="stroke:#009af9; stroke-linecap:butt; stroke-linejoin:round; stroke-width:4; stroke-opacity:1; fill:none" points="
  885.271,1386.81 885.271,1445.72 893.446,1445.72 893.446,1386.81 885.271,1386.81 
  "/>
<path clip-path="url(#clip292)" d="
M893.446 1387.19 L893.446 1445.72 L901.622 1445.72 L901.622 1387.19 L893.446 1387.19 L893.446 1387.19  Z
  " fill="#009af9" fill-rule="evenodd" fill-opacity="1"/>
<polyline clip-path="url(#clip292)" style="stroke:#009af9; stroke-linecap:butt; stroke-linejoin:round; stroke-width:4; stroke-opacity:1; fill:none" points="
  893.446,1387.19 893.446,1445.72 901.622,1445.72 901.622,1387.19 893.446,1387.19 
  "/>
<path clip-path="url(#clip292)" d="
M901.622 1398.4 L901.622 1445.72 L909.797 1445.72 L909.797 1398.4 L901.622 1398.4 L901.622 1398.4  Z
  " fill="#009af9" fill-rule="evenodd" fill-opacity="1"/>
<polyline clip-path="url(#clip292)" style="stroke:#009af9; stroke-linecap:butt; stroke-linejoin:round; stroke-width:4; stroke-opacity:1; fill:none" points="
  901.622,1398.4 901.622,1445.72 909.797,1445.72 909.797,1398.4 901.622,1398.4 
  "/>
<path clip-path="url(#clip292)" d="
M909.797 1399.92 L909.797 1445.72 L917.973 1445.72 L917.973 1399.92 L909.797 1399.92 L909.797 1399.92  Z
  " fill="#009af9" fill-rule="evenodd" fill-opacity="1"/>
<polyline clip-path="url(#clip292)" style="stroke:#009af9; stroke-linecap:butt; stroke-linejoin:round; stroke-width:4; stroke-opacity:1; fill:none" points="
  909.797,1399.92 909.797,1445.72 917.973,1445.72 917.973,1399.92 909.797,1399.92 
  "/>
<path clip-path="url(#clip292)" d="
M917.973 1401.06 L917.973 1445.72 L926.148 1445.72 L926.148 1401.06 L917.973 1401.06 L917.973 1401.06  Z
  " fill="#009af9" fill-rule="evenodd" fill-opacity="1"/>
<polyline clip-path="url(#clip292)" style="stroke:#009af9; stroke-linecap:butt; stroke-linejoin:round; stroke-width:4; stroke-opacity:1; fill:none" points="
  917.973,1401.06 917.973,1445.72 926.148,1445.72 926.148,1401.06 917.973,1401.06 
  "/>
<path clip-path="url(#clip292)" d="
M926.148 1408.28 L926.148 1445.72 L934.323 1445.72 L934.323 1408.28 L926.148 1408.28 L926.148 1408.28  Z
  " fill="#009af9" fill-rule="evenodd" fill-opacity="1"/>
<polyline clip-path="url(#clip292)" style="stroke:#009af9; stroke-linecap:butt; stroke-linejoin:round; stroke-width:4; stroke-opacity:1; fill:none" points="
  926.148,1408.28 926.148,1445.72 934.323,1445.72 934.323,1408.28 926.148,1408.28 
  "/>
<path clip-path="url(#clip292)" d="
M934.323 1410.56 L934.323 1445.72 L942.499 1445.72 L942.499 1410.56 L934.323 1410.56 L934.323 1410.56  Z
  " fill="#009af9" fill-rule="evenodd" fill-opacity="1"/>
<polyline clip-path="url(#clip292)" style="stroke:#009af9; stroke-linecap:butt; stroke-linejoin:round; stroke-width:4; stroke-opacity:1; fill:none" points="
  934.323,1410.56 934.323,1445.72 942.499,1445.72 942.499,1410.56 934.323,1410.56 
  "/>
<path clip-path="url(#clip292)" d="
M942.499 1415.31 L942.499 1445.72 L950.674 1445.72 L950.674 1415.31 L942.499 1415.31 L942.499 1415.31  Z
  " fill="#009af9" fill-rule="evenodd" fill-opacity="1"/>
<polyline clip-path="url(#clip292)" style="stroke:#009af9; stroke-linecap:butt; stroke-linejoin:round; stroke-width:4; stroke-opacity:1; fill:none" points="
  942.499,1415.31 942.499,1445.72 950.674,1445.72 950.674,1415.31 942.499,1415.31 
  "/>
<path clip-path="url(#clip292)" d="
M950.674 1416.26 L950.674 1445.72 L958.85 1445.72 L958.85 1416.26 L950.674 1416.26 L950.674 1416.26  Z
  " fill="#009af9" fill-rule="evenodd" fill-opacity="1"/>
<polyline clip-path="url(#clip292)" style="stroke:#009af9; stroke-linecap:butt; stroke-linejoin:round; stroke-width:4; stroke-opacity:1; fill:none" points="
  950.674,1416.26 950.674,1445.72 958.85,1445.72 958.85,1416.26 950.674,1416.26 
  "/>
<path clip-path="url(#clip292)" d="
M958.85 1422.72 L958.85 1445.72 L967.025 1445.72 L967.025 1422.72 L958.85 1422.72 L958.85 1422.72  Z
  " fill="#009af9" fill-rule="evenodd" fill-opacity="1"/>
<polyline clip-path="url(#clip292)" style="stroke:#009af9; stroke-linecap:butt; stroke-linejoin:round; stroke-width:4; stroke-opacity:1; fill:none" points="
  958.85,1422.72 958.85,1445.72 967.025,1445.72 967.025,1422.72 958.85,1422.72 
  "/>
<path clip-path="url(#clip292)" d="
M967.025 1422.72 L967.025 1445.72 L975.2 1445.72 L975.2 1422.72 L967.025 1422.72 L967.025 1422.72  Z
  " fill="#009af9" fill-rule="evenodd" fill-opacity="1"/>
<polyline clip-path="url(#clip292)" style="stroke:#009af9; stroke-linecap:butt; stroke-linejoin:round; stroke-width:4; stroke-opacity:1; fill:none" points="
  967.025,1422.72 967.025,1445.72 975.2,1445.72 975.2,1422.72 967.025,1422.72 
  "/>
<path clip-path="url(#clip292)" d="
M975.2 1427.09 L975.2 1445.72 L983.376 1445.72 L983.376 1427.09 L975.2 1427.09 L975.2 1427.09  Z
  " fill="#009af9" fill-rule="evenodd" fill-opacity="1"/>
<polyline clip-path="url(#clip292)" style="stroke:#009af9; stroke-linecap:butt; stroke-linejoin:round; stroke-width:4; stroke-opacity:1; fill:none" points="
  975.2,1427.09 975.2,1445.72 983.376,1445.72 983.376,1427.09 975.2,1427.09 
  "/>
<path clip-path="url(#clip292)" d="
M983.376 1426.9 L983.376 1445.72 L991.551 1445.72 L991.551 1426.9 L983.376 1426.9 L983.376 1426.9  Z
  " fill="#009af9" fill-rule="evenodd" fill-opacity="1"/>
<polyline clip-path="url(#clip292)" style="stroke:#009af9; stroke-linecap:butt; stroke-linejoin:round; stroke-width:4; stroke-opacity:1; fill:none" points="
  983.376,1426.9 983.376,1445.72 991.551,1445.72 991.551,1426.9 983.376,1426.9 
  "/>
<path clip-path="url(#clip292)" d="
M991.551 1428.23 L991.551 1445.72 L999.727 1445.72 L999.727 1428.23 L991.551 1428.23 L991.551 1428.23  Z
  " fill="#009af9" fill-rule="evenodd" fill-opacity="1"/>
<polyline clip-path="url(#clip292)" style="stroke:#009af9; stroke-linecap:butt; stroke-linejoin:round; stroke-width:4; stroke-opacity:1; fill:none" points="
  991.551,1428.23 991.551,1445.72 999.727,1445.72 999.727,1428.23 991.551,1428.23 
  "/>
<path clip-path="url(#clip292)" d="
M999.727 1431.65 L999.727 1445.72 L1007.9 1445.72 L1007.9 1431.65 L999.727 1431.65 L999.727 1431.65  Z
  " fill="#009af9" fill-rule="evenodd" fill-opacity="1"/>
<polyline clip-path="url(#clip292)" style="stroke:#009af9; stroke-linecap:butt; stroke-linejoin:round; stroke-width:4; stroke-opacity:1; fill:none" points="
  999.727,1431.65 999.727,1445.72 1007.9,1445.72 1007.9,1431.65 999.727,1431.65 
  "/>
<path clip-path="url(#clip292)" d="
M1007.9 1433.17 L1007.9 1445.72 L1016.08 1445.72 L1016.08 1433.17 L1007.9 1433.17 L1007.9 1433.17  Z
  " fill="#009af9" fill-rule="evenodd" fill-opacity="1"/>
<polyline clip-path="url(#clip292)" style="stroke:#009af9; stroke-linecap:butt; stroke-linejoin:round; stroke-width:4; stroke-opacity:1; fill:none" points="
  1007.9,1433.17 1007.9,1445.72 1016.08,1445.72 1016.08,1433.17 1007.9,1433.17 
  "/>
<path clip-path="url(#clip292)" d="
M1016.08 1434.5 L1016.08 1445.72 L1024.25 1445.72 L1024.25 1434.5 L1016.08 1434.5 L1016.08 1434.5  Z
  " fill="#009af9" fill-rule="evenodd" fill-opacity="1"/>
<polyline clip-path="url(#clip292)" style="stroke:#009af9; stroke-linecap:butt; stroke-linejoin:round; stroke-width:4; stroke-opacity:1; fill:none" points="
  1016.08,1434.5 1016.08,1445.72 1024.25,1445.72 1024.25,1434.5 1016.08,1434.5 
  "/>
<path clip-path="url(#clip292)" d="
M1024.25 1435.07 L1024.25 1445.72 L1032.43 1445.72 L1032.43 1435.07 L1024.25 1435.07 L1024.25 1435.07  Z
  " fill="#009af9" fill-rule="evenodd" fill-opacity="1"/>
<polyline clip-path="url(#clip292)" style="stroke:#009af9; stroke-linecap:butt; stroke-linejoin:round; stroke-width:4; stroke-opacity:1; fill:none" points="
  1024.25,1435.07 1024.25,1445.72 1032.43,1445.72 1032.43,1435.07 1024.25,1435.07 
  "/>
<path clip-path="url(#clip292)" d="
M1032.43 1435.45 L1032.43 1445.72 L1040.6 1445.72 L1040.6 1435.45 L1032.43 1435.45 L1032.43 1435.45  Z
  " fill="#009af9" fill-rule="evenodd" fill-opacity="1"/>
<polyline clip-path="url(#clip292)" style="stroke:#009af9; stroke-linecap:butt; stroke-linejoin:round; stroke-width:4; stroke-opacity:1; fill:none" points="
  1032.43,1435.45 1032.43,1445.72 1040.6,1445.72 1040.6,1435.45 1032.43,1435.45 
  "/>
<path clip-path="url(#clip292)" d="
M1040.6 1435.64 L1040.6 1445.72 L1048.78 1445.72 L1048.78 1435.64 L1040.6 1435.64 L1040.6 1435.64  Z
  " fill="#009af9" fill-rule="evenodd" fill-opacity="1"/>
<polyline clip-path="url(#clip292)" style="stroke:#009af9; stroke-linecap:butt; stroke-linejoin:round; stroke-width:4; stroke-opacity:1; fill:none" points="
  1040.6,1435.64 1040.6,1445.72 1048.78,1445.72 1048.78,1435.64 1040.6,1435.64 
  "/>
<path clip-path="url(#clip292)" d="
M1048.78 1437.54 L1048.78 1445.72 L1056.95 1445.72 L1056.95 1437.54 L1048.78 1437.54 L1048.78 1437.54  Z
  " fill="#009af9" fill-rule="evenodd" fill-opacity="1"/>
<polyline clip-path="url(#clip292)" style="stroke:#009af9; stroke-linecap:butt; stroke-linejoin:round; stroke-width:4; stroke-opacity:1; fill:none" points="
  1048.78,1437.54 1048.78,1445.72 1056.95,1445.72 1056.95,1437.54 1048.78,1437.54 
  "/>
<path clip-path="url(#clip292)" d="
M1056.95 1438.87 L1056.95 1445.72 L1065.13 1445.72 L1065.13 1438.87 L1056.95 1438.87 L1056.95 1438.87  Z
  " fill="#009af9" fill-rule="evenodd" fill-opacity="1"/>
<polyline clip-path="url(#clip292)" style="stroke:#009af9; stroke-linecap:butt; stroke-linejoin:round; stroke-width:4; stroke-opacity:1; fill:none" points="
  1056.95,1438.87 1056.95,1445.72 1065.13,1445.72 1065.13,1438.87 1056.95,1438.87 
  "/>
<path clip-path="url(#clip292)" d="
M1065.13 1440.39 L1065.13 1445.72 L1073.31 1445.72 L1073.31 1440.39 L1065.13 1440.39 L1065.13 1440.39  Z
  " fill="#009af9" fill-rule="evenodd" fill-opacity="1"/>
<polyline clip-path="url(#clip292)" style="stroke:#009af9; stroke-linecap:butt; stroke-linejoin:round; stroke-width:4; stroke-opacity:1; fill:none" points="
  1065.13,1440.39 1065.13,1445.72 1073.31,1445.72 1073.31,1440.39 1065.13,1440.39 
  "/>
<path clip-path="url(#clip292)" d="
M1073.31 1437.54 L1073.31 1445.72 L1081.48 1445.72 L1081.48 1437.54 L1073.31 1437.54 L1073.31 1437.54  Z
  " fill="#009af9" fill-rule="evenodd" fill-opacity="1"/>
<polyline clip-path="url(#clip292)" style="stroke:#009af9; stroke-linecap:butt; stroke-linejoin:round; stroke-width:4; stroke-opacity:1; fill:none" points="
  1073.31,1437.54 1073.31,1445.72 1081.48,1445.72 1081.48,1437.54 1073.31,1437.54 
  "/>
<path clip-path="url(#clip292)" d="
M1081.48 1440.39 L1081.48 1445.72 L1089.66 1445.72 L1089.66 1440.39 L1081.48 1440.39 L1081.48 1440.39  Z
  " fill="#009af9" fill-rule="evenodd" fill-opacity="1"/>
<polyline clip-path="url(#clip292)" style="stroke:#009af9; stroke-linecap:butt; stroke-linejoin:round; stroke-width:4; stroke-opacity:1; fill:none" points="
  1081.48,1440.39 1081.48,1445.72 1089.66,1445.72 1089.66,1440.39 1081.48,1440.39 
  "/>
<path clip-path="url(#clip292)" d="
M1089.66 1441.35 L1089.66 1445.72 L1097.83 1445.72 L1097.83 1441.35 L1089.66 1441.35 L1089.66 1441.35  Z
  " fill="#009af9" fill-rule="evenodd" fill-opacity="1"/>
<polyline clip-path="url(#clip292)" style="stroke:#009af9; stroke-linecap:butt; stroke-linejoin:round; stroke-width:4; stroke-opacity:1; fill:none" points="
  1089.66,1441.35 1089.66,1445.72 1097.83,1445.72 1097.83,1441.35 1089.66,1441.35 
  "/>
<path clip-path="url(#clip292)" d="
M1097.83 1441.73 L1097.83 1445.72 L1106.01 1445.72 L1106.01 1441.73 L1097.83 1441.73 L1097.83 1441.73  Z
  " fill="#009af9" fill-rule="evenodd" fill-opacity="1"/>
<polyline clip-path="url(#clip292)" style="stroke:#009af9; stroke-linecap:butt; stroke-linejoin:round; stroke-width:4; stroke-opacity:1; fill:none" points="
  1097.83,1441.73 1097.83,1445.72 1106.01,1445.72 1106.01,1441.73 1097.83,1441.73 
  "/>
<path clip-path="url(#clip292)" d="
M1106.01 1441.92 L1106.01 1445.72 L1114.18 1445.72 L1114.18 1441.92 L1106.01 1441.92 L1106.01 1441.92  Z
  " fill="#009af9" fill-rule="evenodd" fill-opacity="1"/>
<polyline clip-path="url(#clip292)" style="stroke:#009af9; stroke-linecap:butt; stroke-linejoin:round; stroke-width:4; stroke-opacity:1; fill:none" points="
  1106.01,1441.92 1106.01,1445.72 1114.18,1445.72 1114.18,1441.92 1106.01,1441.92 
  "/>
<path clip-path="url(#clip292)" d="
M1114.18 1442.11 L1114.18 1445.72 L1122.36 1445.72 L1122.36 1442.11 L1114.18 1442.11 L1114.18 1442.11  Z
  " fill="#009af9" fill-rule="evenodd" fill-opacity="1"/>
<polyline clip-path="url(#clip292)" style="stroke:#009af9; stroke-linecap:butt; stroke-linejoin:round; stroke-width:4; stroke-opacity:1; fill:none" points="
  1114.18,1442.11 1114.18,1445.72 1122.36,1445.72 1122.36,1442.11 1114.18,1442.11 
  "/>
<path clip-path="url(#clip292)" d="
M1122.36 1442.87 L1122.36 1445.72 L1130.53 1445.72 L1130.53 1442.87 L1122.36 1442.87 L1122.36 1442.87  Z
  " fill="#009af9" fill-rule="evenodd" fill-opacity="1"/>
<polyline clip-path="url(#clip292)" style="stroke:#009af9; stroke-linecap:butt; stroke-linejoin:round; stroke-width:4; stroke-opacity:1; fill:none" points="
  1122.36,1442.87 1122.36,1445.72 1130.53,1445.72 1130.53,1442.87 1122.36,1442.87 
  "/>
<path clip-path="url(#clip292)" d="
M1130.53 1443.25 L1130.53 1445.72 L1138.71 1445.72 L1138.71 1443.25 L1130.53 1443.25 L1130.53 1443.25  Z
  " fill="#009af9" fill-rule="evenodd" fill-opacity="1"/>
<polyline clip-path="url(#clip292)" style="stroke:#009af9; stroke-linecap:butt; stroke-linejoin:round; stroke-width:4; stroke-opacity:1; fill:none" points="
  1130.53,1443.25 1130.53,1445.72 1138.71,1445.72 1138.71,1443.25 1130.53,1443.25 
  "/>
<path clip-path="url(#clip292)" d="
M1138.71 1442.68 L1138.71 1445.72 L1146.88 1445.72 L1146.88 1442.68 L1138.71 1442.68 L1138.71 1442.68  Z
  " fill="#009af9" fill-rule="evenodd" fill-opacity="1"/>
<polyline clip-path="url(#clip292)" style="stroke:#009af9; stroke-linecap:butt; stroke-linejoin:round; stroke-width:4; stroke-opacity:1; fill:none" points="
  1138.71,1442.68 1138.71,1445.72 1146.88,1445.72 1146.88,1442.68 1138.71,1442.68 
  "/>
<path clip-path="url(#clip292)" d="
M1146.88 1444.58 L1146.88 1445.72 L1155.06 1445.72 L1155.06 1444.58 L1146.88 1444.58 L1146.88 1444.58  Z
  " fill="#009af9" fill-rule="evenodd" fill-opacity="1"/>
<polyline clip-path="url(#clip292)" style="stroke:#009af9; stroke-linecap:butt; stroke-linejoin:round; stroke-width:4; stroke-opacity:1; fill:none" points="
  1146.88,1444.58 1146.88,1445.72 1155.06,1445.72 1155.06,1444.58 1146.88,1444.58 
  "/>
<path clip-path="url(#clip292)" d="
M1155.06 1444.58 L1155.06 1445.72 L1163.23 1445.72 L1163.23 1444.58 L1155.06 1444.58 L1155.06 1444.58  Z
  " fill="#009af9" fill-rule="evenodd" fill-opacity="1"/>
<polyline clip-path="url(#clip292)" style="stroke:#009af9; stroke-linecap:butt; stroke-linejoin:round; stroke-width:4; stroke-opacity:1; fill:none" points="
  1155.06,1444.58 1155.06,1445.72 1163.23,1445.72 1163.23,1444.58 1155.06,1444.58 
  "/>
<path clip-path="url(#clip292)" d="
M1163.23 1443.44 L1163.23 1445.72 L1171.41 1445.72 L1171.41 1443.44 L1163.23 1443.44 L1163.23 1443.44  Z
  " fill="#009af9" fill-rule="evenodd" fill-opacity="1"/>
<polyline clip-path="url(#clip292)" style="stroke:#009af9; stroke-linecap:butt; stroke-linejoin:round; stroke-width:4; stroke-opacity:1; fill:none" points="
  1163.23,1443.44 1163.23,1445.72 1171.41,1445.72 1171.41,1443.44 1163.23,1443.44 
  "/>
<path clip-path="url(#clip292)" d="
M1171.41 1444.39 L1171.41 1445.72 L1179.59 1445.72 L1179.59 1444.39 L1171.41 1444.39 L1171.41 1444.39  Z
  " fill="#009af9" fill-rule="evenodd" fill-opacity="1"/>
<polyline clip-path="url(#clip292)" style="stroke:#009af9; stroke-linecap:butt; stroke-linejoin:round; stroke-width:4; stroke-opacity:1; fill:none" points="
  1171.41,1444.39 1171.41,1445.72 1179.59,1445.72 1179.59,1444.39 1171.41,1444.39 
  "/>
<path clip-path="url(#clip292)" d="
M1179.59 1444.58 L1179.59 1445.72 L1187.76 1445.72 L1187.76 1444.58 L1179.59 1444.58 L1179.59 1444.58  Z
  " fill="#009af9" fill-rule="evenodd" fill-opacity="1"/>
<polyline clip-path="url(#clip292)" style="stroke:#009af9; stroke-linecap:butt; stroke-linejoin:round; stroke-width:4; stroke-opacity:1; fill:none" points="
  1179.59,1444.58 1179.59,1445.72 1187.76,1445.72 1187.76,1444.58 1179.59,1444.58 
  "/>
<path clip-path="url(#clip292)" d="
M1187.76 1444.39 L1187.76 1445.72 L1195.94 1445.72 L1195.94 1444.39 L1187.76 1444.39 L1187.76 1444.39  Z
  " fill="#009af9" fill-rule="evenodd" fill-opacity="1"/>
<polyline clip-path="url(#clip292)" style="stroke:#009af9; stroke-linecap:butt; stroke-linejoin:round; stroke-width:4; stroke-opacity:1; fill:none" points="
  1187.76,1444.39 1187.76,1445.72 1195.94,1445.72 1195.94,1444.39 1187.76,1444.39 
  "/>
<path clip-path="url(#clip292)" d="
M1195.94 1444.58 L1195.94 1445.72 L1204.11 1445.72 L1204.11 1444.58 L1195.94 1444.58 L1195.94 1444.58  Z
  " fill="#009af9" fill-rule="evenodd" fill-opacity="1"/>
<polyline clip-path="url(#clip292)" style="stroke:#009af9; stroke-linecap:butt; stroke-linejoin:round; stroke-width:4; stroke-opacity:1; fill:none" points="
  1195.94,1444.58 1195.94,1445.72 1204.11,1445.72 1204.11,1444.58 1195.94,1444.58 
  "/>
<path clip-path="url(#clip292)" d="
M1204.11 1445.15 L1204.11 1445.72 L1212.29 1445.72 L1212.29 1445.15 L1204.11 1445.15 L1204.11 1445.15  Z
  " fill="#009af9" fill-rule="evenodd" fill-opacity="1"/>
<polyline clip-path="url(#clip292)" style="stroke:#009af9; stroke-linecap:butt; stroke-linejoin:round; stroke-width:4; stroke-opacity:1; fill:none" points="
  1204.11,1445.15 1204.11,1445.72 1212.29,1445.72 1212.29,1445.15 1204.11,1445.15 
  "/>
<path clip-path="url(#clip292)" d="
M1212.29 1444.77 L1212.29 1445.72 L1220.46 1445.72 L1220.46 1444.77 L1212.29 1444.77 L1212.29 1444.77  Z
  " fill="#009af9" fill-rule="evenodd" fill-opacity="1"/>
<polyline clip-path="url(#clip292)" style="stroke:#009af9; stroke-linecap:butt; stroke-linejoin:round; stroke-width:4; stroke-opacity:1; fill:none" points="
  1212.29,1444.77 1212.29,1445.72 1220.46,1445.72 1220.46,1444.77 1212.29,1444.77 
  "/>
<path clip-path="url(#clip292)" d="
M1220.46 1444.77 L1220.46 1445.72 L1228.64 1445.72 L1228.64 1444.77 L1220.46 1444.77 L1220.46 1444.77  Z
  " fill="#009af9" fill-rule="evenodd" fill-opacity="1"/>
<polyline clip-path="url(#clip292)" style="stroke:#009af9; stroke-linecap:butt; stroke-linejoin:round; stroke-width:4; stroke-opacity:1; fill:none" points="
  1220.46,1444.77 1220.46,1445.72 1228.64,1445.72 1228.64,1444.77 1220.46,1444.77 
  "/>
<path clip-path="url(#clip292)" d="
M1228.64 1445.34 L1228.64 1445.72 L1236.81 1445.72 L1236.81 1445.34 L1228.64 1445.34 L1228.64 1445.34  Z
  " fill="#009af9" fill-rule="evenodd" fill-opacity="1"/>
<polyline clip-path="url(#clip292)" style="stroke:#009af9; stroke-linecap:butt; stroke-linejoin:round; stroke-width:4; stroke-opacity:1; fill:none" points="
  1228.64,1445.34 1228.64,1445.72 1236.81,1445.72 1236.81,1445.34 1228.64,1445.34 
  "/>
<path clip-path="url(#clip292)" d="
M1236.81 1445.34 L1236.81 1445.72 L1244.99 1445.72 L1244.99 1445.34 L1236.81 1445.34 L1236.81 1445.34  Z
  " fill="#009af9" fill-rule="evenodd" fill-opacity="1"/>
<polyline clip-path="url(#clip292)" style="stroke:#009af9; stroke-linecap:butt; stroke-linejoin:round; stroke-width:4; stroke-opacity:1; fill:none" points="
  1236.81,1445.34 1236.81,1445.72 1244.99,1445.72 1244.99,1445.34 1236.81,1445.34 
  "/>
<path clip-path="url(#clip292)" d="
M1244.99 1445.34 L1244.99 1445.72 L1253.16 1445.72 L1253.16 1445.34 L1244.99 1445.34 L1244.99 1445.34  Z
  " fill="#009af9" fill-rule="evenodd" fill-opacity="1"/>
<polyline clip-path="url(#clip292)" style="stroke:#009af9; stroke-linecap:butt; stroke-linejoin:round; stroke-width:4; stroke-opacity:1; fill:none" points="
  1244.99,1445.34 1244.99,1445.72 1253.16,1445.72 1253.16,1445.34 1244.99,1445.34 
  "/>
<path clip-path="url(#clip292)" d="
M1253.16 1445.34 L1253.16 1445.72 L1261.34 1445.72 L1261.34 1445.34 L1253.16 1445.34 L1253.16 1445.34  Z
  " fill="#009af9" fill-rule="evenodd" fill-opacity="1"/>
<polyline clip-path="url(#clip292)" style="stroke:#009af9; stroke-linecap:butt; stroke-linejoin:round; stroke-width:4; stroke-opacity:1; fill:none" points="
  1253.16,1445.34 1253.16,1445.72 1261.34,1445.72 1261.34,1445.34 1253.16,1445.34 
  "/>
<path clip-path="url(#clip292)" d="
M1261.34 1445.72 L1261.34 1445.72 L1269.51 1445.72 L1269.51 1445.72 L1261.34 1445.72 L1261.34 1445.72  Z
  " fill="#009af9" fill-rule="evenodd" fill-opacity="1"/>
<polyline clip-path="url(#clip292)" style="stroke:#009af9; stroke-linecap:butt; stroke-linejoin:round; stroke-width:4; stroke-opacity:1; fill:none" points="
  1261.34,1445.72 1261.34,1445.72 1269.51,1445.72 1261.34,1445.72 
  "/>
<path clip-path="url(#clip292)" d="
M1269.51 1445.15 L1269.51 1445.72 L1277.69 1445.72 L1277.69 1445.15 L1269.51 1445.15 L1269.51 1445.15  Z
  " fill="#009af9" fill-rule="evenodd" fill-opacity="1"/>
<polyline clip-path="url(#clip292)" style="stroke:#009af9; stroke-linecap:butt; stroke-linejoin:round; stroke-width:4; stroke-opacity:1; fill:none" points="
  1269.51,1445.15 1269.51,1445.72 1277.69,1445.72 1277.69,1445.15 1269.51,1445.15 
  "/>
<path clip-path="url(#clip292)" d="
M1277.69 1445.15 L1277.69 1445.72 L1285.87 1445.72 L1285.87 1445.15 L1277.69 1445.15 L1277.69 1445.15  Z
  " fill="#009af9" fill-rule="evenodd" fill-opacity="1"/>
<polyline clip-path="url(#clip292)" style="stroke:#009af9; stroke-linecap:butt; stroke-linejoin:round; stroke-width:4; stroke-opacity:1; fill:none" points="
  1277.69,1445.15 1277.69,1445.72 1285.87,1445.72 1285.87,1445.15 1277.69,1445.15 
  "/>
<path clip-path="url(#clip292)" d="
M1285.87 1445.34 L1285.87 1445.72 L1294.04 1445.72 L1294.04 1445.34 L1285.87 1445.34 L1285.87 1445.34  Z
  " fill="#009af9" fill-rule="evenodd" fill-opacity="1"/>
<polyline clip-path="url(#clip292)" style="stroke:#009af9; stroke-linecap:butt; stroke-linejoin:round; stroke-width:4; stroke-opacity:1; fill:none" points="
  1285.87,1445.34 1285.87,1445.72 1294.04,1445.72 1294.04,1445.34 1285.87,1445.34 
  "/>
<path clip-path="url(#clip292)" d="
M1294.04 1445.53 L1294.04 1445.72 L1302.22 1445.72 L1302.22 1445.53 L1294.04 1445.53 L1294.04 1445.53  Z
  " fill="#009af9" fill-rule="evenodd" fill-opacity="1"/>
<polyline clip-path="url(#clip292)" style="stroke:#009af9; stroke-linecap:butt; stroke-linejoin:round; stroke-width:4; stroke-opacity:1; fill:none" points="
  1294.04,1445.53 1294.04,1445.72 1302.22,1445.72 1302.22,1445.53 1294.04,1445.53 
  "/>
<path clip-path="url(#clip292)" d="
M1302.22 1445.72 L1302.22 1445.72 L1310.39 1445.72 L1310.39 1445.72 L1302.22 1445.72 L1302.22 1445.72  Z
  " fill="#009af9" fill-rule="evenodd" fill-opacity="1"/>
<polyline clip-path="url(#clip292)" style="stroke:#009af9; stroke-linecap:butt; stroke-linejoin:round; stroke-width:4; stroke-opacity:1; fill:none" points="
  1302.22,1445.72 1302.22,1445.72 1310.39,1445.72 1302.22,1445.72 
  "/>
<path clip-path="url(#clip292)" d="
M1310.39 1445.53 L1310.39 1445.72 L1318.57 1445.72 L1318.57 1445.53 L1310.39 1445.53 L1310.39 1445.53  Z
  " fill="#009af9" fill-rule="evenodd" fill-opacity="1"/>
<polyline clip-path="url(#clip292)" style="stroke:#009af9; stroke-linecap:butt; stroke-linejoin:round; stroke-width:4; stroke-opacity:1; fill:none" points="
  1310.39,1445.53 1310.39,1445.72 1318.57,1445.72 1318.57,1445.53 1310.39,1445.53 
  "/>
<path clip-path="url(#clip292)" d="
M1318.57 1445.72 L1318.57 1445.72 L1326.74 1445.72 L1326.74 1445.72 L1318.57 1445.72 L1318.57 1445.72  Z
  " fill="#009af9" fill-rule="evenodd" fill-opacity="1"/>
<polyline clip-path="url(#clip292)" style="stroke:#009af9; stroke-linecap:butt; stroke-linejoin:round; stroke-width:4; stroke-opacity:1; fill:none" points="
  1318.57,1445.72 1318.57,1445.72 1326.74,1445.72 1318.57,1445.72 
  "/>
<path clip-path="url(#clip292)" d="
M1326.74 1445.53 L1326.74 1445.72 L1334.92 1445.72 L1334.92 1445.53 L1326.74 1445.53 L1326.74 1445.53  Z
  " fill="#009af9" fill-rule="evenodd" fill-opacity="1"/>
<polyline clip-path="url(#clip292)" style="stroke:#009af9; stroke-linecap:butt; stroke-linejoin:round; stroke-width:4; stroke-opacity:1; fill:none" points="
  1326.74,1445.53 1326.74,1445.72 1334.92,1445.72 1334.92,1445.53 1326.74,1445.53 
  "/>
<path clip-path="url(#clip292)" d="
M1334.92 1445.72 L1334.92 1445.72 L1343.09 1445.72 L1343.09 1445.72 L1334.92 1445.72 L1334.92 1445.72  Z
  " fill="#009af9" fill-rule="evenodd" fill-opacity="1"/>
<polyline clip-path="url(#clip292)" style="stroke:#009af9; stroke-linecap:butt; stroke-linejoin:round; stroke-width:4; stroke-opacity:1; fill:none" points="
  1334.92,1445.72 1334.92,1445.72 1343.09,1445.72 1334.92,1445.72 
  "/>
<path clip-path="url(#clip292)" d="
M1343.09 1445.72 L1343.09 1445.72 L1351.27 1445.72 L1351.27 1445.72 L1343.09 1445.72 L1343.09 1445.72  Z
  " fill="#009af9" fill-rule="evenodd" fill-opacity="1"/>
<polyline clip-path="url(#clip292)" style="stroke:#009af9; stroke-linecap:butt; stroke-linejoin:round; stroke-width:4; stroke-opacity:1; fill:none" points="
  1343.09,1445.72 1343.09,1445.72 1351.27,1445.72 1343.09,1445.72 
  "/>
<path clip-path="url(#clip292)" d="
M1351.27 1445.53 L1351.27 1445.72 L1359.44 1445.72 L1359.44 1445.53 L1351.27 1445.53 L1351.27 1445.53  Z
  " fill="#009af9" fill-rule="evenodd" fill-opacity="1"/>
<polyline clip-path="url(#clip292)" style="stroke:#009af9; stroke-linecap:butt; stroke-linejoin:round; stroke-width:4; stroke-opacity:1; fill:none" points="
  1351.27,1445.53 1351.27,1445.72 1359.44,1445.72 1359.44,1445.53 1351.27,1445.53 
  "/>
<path clip-path="url(#clip292)" d="
M1359.44 1445.72 L1359.44 1445.72 L1367.62 1445.72 L1367.62 1445.72 L1359.44 1445.72 L1359.44 1445.72  Z
  " fill="#009af9" fill-rule="evenodd" fill-opacity="1"/>
<polyline clip-path="url(#clip292)" style="stroke:#009af9; stroke-linecap:butt; stroke-linejoin:round; stroke-width:4; stroke-opacity:1; fill:none" points="
  1359.44,1445.72 1359.44,1445.72 1367.62,1445.72 1359.44,1445.72 
  "/>
<path clip-path="url(#clip292)" d="
M1367.62 1445.72 L1367.62 1445.72 L1375.8 1445.72 L1375.8 1445.72 L1367.62 1445.72 L1367.62 1445.72  Z
  " fill="#009af9" fill-rule="evenodd" fill-opacity="1"/>
<polyline clip-path="url(#clip292)" style="stroke:#009af9; stroke-linecap:butt; stroke-linejoin:round; stroke-width:4; stroke-opacity:1; fill:none" points="
  1367.62,1445.72 1367.62,1445.72 1375.8,1445.72 1367.62,1445.72 
  "/>
<path clip-path="url(#clip292)" d="
M1375.8 1445.72 L1375.8 1445.72 L1383.97 1445.72 L1383.97 1445.72 L1375.8 1445.72 L1375.8 1445.72  Z
  " fill="#009af9" fill-rule="evenodd" fill-opacity="1"/>
<polyline clip-path="url(#clip292)" style="stroke:#009af9; stroke-linecap:butt; stroke-linejoin:round; stroke-width:4; stroke-opacity:1; fill:none" points="
  1375.8,1445.72 1375.8,1445.72 1383.97,1445.72 1375.8,1445.72 
  "/>
<path clip-path="url(#clip292)" d="
M1383.97 1445.72 L1383.97 1445.72 L1392.15 1445.72 L1392.15 1445.72 L1383.97 1445.72 L1383.97 1445.72  Z
  " fill="#009af9" fill-rule="evenodd" fill-opacity="1"/>
<polyline clip-path="url(#clip292)" style="stroke:#009af9; stroke-linecap:butt; stroke-linejoin:round; stroke-width:4; stroke-opacity:1; fill:none" points="
  1383.97,1445.72 1383.97,1445.72 1392.15,1445.72 1383.97,1445.72 
  "/>
<path clip-path="url(#clip292)" d="
M1392.15 1445.53 L1392.15 1445.72 L1400.32 1445.72 L1400.32 1445.53 L1392.15 1445.53 L1392.15 1445.53  Z
  " fill="#009af9" fill-rule="evenodd" fill-opacity="1"/>
<polyline clip-path="url(#clip292)" style="stroke:#009af9; stroke-linecap:butt; stroke-linejoin:round; stroke-width:4; stroke-opacity:1; fill:none" points="
  1392.15,1445.53 1392.15,1445.72 1400.32,1445.72 1400.32,1445.53 1392.15,1445.53 
  "/>
<polyline clip-path="url(#clip292)" style="stroke:#e26f46; stroke-linecap:butt; stroke-linejoin:round; stroke-width:4; stroke-opacity:1; fill:none" points="
  255.765,1445.29 263.94,1444.18 272.116,1441.65 280.291,1436.8 288.467,1428.57 296.642,1415.9 304.817,1397.74 312.993,1373.19 321.168,1341.58 329.344,1302.53 
  337.519,1255.94 345.694,1202.06 353.87,1141.41 362.045,1074.8 370.221,1003.26 378.396,928.003 386.571,850.345 394.747,771.671 402.922,693.372 411.098,616.798 
  419.273,543.215 427.448,473.776 435.624,409.492 443.799,351.216 451.975,299.63 460.15,255.25 468.325,218.419 476.501,189.32 484.676,167.987 492.852,154.318 
  501.027,148.092 509.202,148.984 517.378,156.586 525.553,170.423 533.729,189.969 541.904,214.661 550.079,243.918 558.255,277.152 566.43,313.776 574.606,353.217 
  582.781,394.925 590.956,438.375 599.132,483.077 607.307,528.575 615.483,574.455 623.658,620.339 631.833,665.894 640.009,710.823 648.184,754.872 656.36,797.821 
  664.535,839.488 672.711,879.725 680.886,918.414 689.061,955.465 697.237,990.815 705.412,1024.42 713.588,1056.27 721.763,1086.35 729.938,1114.69 738.114,1141.3 
  746.289,1166.22 754.465,1189.51 762.64,1211.22 770.815,1231.4 778.991,1250.13 787.166,1267.47 795.342,1283.5 803.517,1298.28 811.692,1311.88 819.868,1324.38 
  828.043,1335.85 836.219,1346.35 844.394,1355.94 852.569,1364.71 860.745,1372.7 868.92,1379.97 877.096,1386.57 885.271,1392.57 893.446,1398.01 901.622,1402.93 
  909.797,1407.38 917.973,1411.4 926.148,1415.02 934.323,1418.29 942.499,1421.23 950.674,1423.87 958.85,1426.24 967.025,1428.37 975.2,1430.28 983.376,1431.99 
  991.551,1433.52 999.727,1434.89 1007.9,1436.11 1016.08,1437.2 1024.25,1438.17 1032.43,1439.03 1040.6,1439.8 1048.78,1440.49 1056.95,1441.09 1065.13,1441.63 
  1073.31,1442.11 1081.48,1442.54 1089.66,1442.91 1097.83,1443.25 1106.01,1443.54 1114.18,1443.8 1122.36,1444.03 1130.53,1444.24 1138.71,1444.42 1146.88,1444.57 
  1155.06,1444.71 1163.23,1444.84 1171.41,1444.94 1179.59,1445.04 1187.76,1445.12 1195.94,1445.2 1204.11,1445.26 1212.29,1445.32 1220.46,1445.37 1228.64,1445.41 
  1236.81,1445.45 1244.99,1445.48 1253.16,1445.51 1261.34,1445.54 1269.51,1445.56 
  "/>
<path clip-path="url(#clip290)" d="
M1987.39 276.658 L2280.54 276.658 L2280.54 95.2176 L1987.39 95.2176  Z
  " fill="#ffffff" fill-rule="evenodd" fill-opacity="1"/>
<polyline clip-path="url(#clip290)" style="stroke:#000000; stroke-linecap:butt; stroke-linejoin:round; stroke-width:4; stroke-opacity:1; fill:none" points="
  1987.39,276.658 2280.54,276.658 2280.54,95.2176 1987.39,95.2176 1987.39,276.658 
  "/>
<path clip-path="url(#clip290)" d="
M2011.46 179.89 L2155.89 179.89 L2155.89 131.506 L2011.46 131.506 L2011.46 179.89  Z
  " fill="#009af9" fill-rule="evenodd" fill-opacity="1"/>
<polyline clip-path="url(#clip290)" style="stroke:#009af9; stroke-linecap:butt; stroke-linejoin:round; stroke-width:4; stroke-opacity:1; fill:none" points="
  2011.46,179.89 2155.89,179.89 2155.89,131.506 2011.46,131.506 2011.46,179.89 
  "/>
<path clip-path="url(#clip290)" d="M2193.81 175.385 Q2192 180.015 2190.29 181.427 Q2188.58 182.839 2185.71 182.839 L2182.3 182.839 L2182.3 179.274 L2184.8 179.274 Q2186.56 179.274 2187.53 178.44 Q2188.51 177.607 2189.69 174.505 L2190.45 172.561 L2179.97 147.052 L2184.48 147.052 L2192.58 167.329 L2200.68 147.052 L2205.2 147.052 L2193.81 175.385 Z" fill="#000000" fill-rule="evenodd" fill-opacity="1" /><path clip-path="url(#clip290)" d="M2212.49 169.042 L2220.13 169.042 L2220.13 142.677 L2211.82 144.343 L2211.82 140.084 L2220.08 138.418 L2224.76 138.418 L2224.76 169.042 L2232.4 169.042 L2232.4 172.978 L2212.49 172.978 L2212.49 169.042 Z" fill="#000000" fill-rule="evenodd" fill-opacity="1" /><polyline clip-path="url(#clip290)" style="stroke:#e26f46; stroke-linecap:butt; stroke-linejoin:round; stroke-width:4; stroke-opacity:1; fill:none" points="
  2011.46,216.178 2155.89,216.178 
  "/>
<path clip-path="url(#clip290)" d="M2193.81 235.865 Q2192 240.495 2190.29 241.907 Q2188.58 243.319 2185.71 243.319 L2182.3 243.319 L2182.3 239.754 L2184.8 239.754 Q2186.56 239.754 2187.53 238.92 Q2188.51 238.087 2189.69 234.985 L2190.45 233.041 L2179.97 207.532 L2184.48 207.532 L2192.58 227.809 L2200.68 207.532 L2205.2 207.532 L2193.81 235.865 Z" fill="#000000" fill-rule="evenodd" fill-opacity="1" /><path clip-path="url(#clip290)" d="M2215.71 229.522 L2232.03 229.522 L2232.03 233.458 L2210.08 233.458 L2210.08 229.522 Q2212.74 226.768 2217.33 222.138 Q2221.93 217.485 2223.11 216.143 Q2225.36 213.62 2226.24 211.884 Q2227.14 210.124 2227.14 208.435 Q2227.14 205.68 2225.2 203.944 Q2223.28 202.208 2220.17 202.208 Q2217.97 202.208 2215.52 202.972 Q2213.09 203.735 2210.31 205.286 L2210.31 200.564 Q2213.14 199.43 2215.59 198.851 Q2218.04 198.273 2220.08 198.273 Q2225.45 198.273 2228.65 200.958 Q2231.84 203.643 2231.84 208.134 Q2231.84 210.263 2231.03 212.185 Q2230.24 214.083 2228.14 216.675 Q2227.56 217.347 2224.46 220.564 Q2221.35 223.759 2215.71 229.522 Z" fill="#000000" fill-rule="evenodd" fill-opacity="1" /></svg>
