<?xml version="1.0" encoding="utf-8"?>
<svg xmlns="http://www.w3.org/2000/svg" xmlns:xlink="http://www.w3.org/1999/xlink" width="600" height="400" viewBox="0 0 2400 1600">
<defs>
  <clipPath id="clip940">
    <rect x="0" y="0" width="2400" height="1600"/>
  </clipPath>
</defs>
<path clip-path="url(#clip940)" d="
M0 1600 L2400 1600 L2400 0 L0 0  Z
  " fill="#ffffff" fill-rule="evenodd" fill-opacity="1"/>
<defs>
  <clipPath id="clip941">
    <rect x="480" y="0" width="1681" height="1600"/>
  </clipPath>
</defs>
<path clip-path="url(#clip940)" d="
M211.116 1423.18 L2352.76 1423.18 L2352.76 47.2441 L211.116 47.2441  Z
  " fill="#ffffff" fill-rule="evenodd" fill-opacity="1"/>
<defs>
  <clipPath id="clip942">
    <rect x="211" y="47" width="2143" height="1377"/>
  </clipPath>
</defs>
<polyline clip-path="url(#clip942)" style="stroke:#000000; stroke-width:2; stroke-opacity:0.1; fill:none" points="
  328.91,1423.18 328.91,47.2441 
  "/>
<polyline clip-path="url(#clip942)" style="stroke:#000000; stroke-width:2; stroke-opacity:0.1; fill:none" points="
  762.104,1423.18 762.104,47.2441 
  "/>
<polyline clip-path="url(#clip942)" style="stroke:#000000; stroke-width:2; stroke-opacity:0.1; fill:none" points="
  1195.3,1423.18 1195.3,47.2441 
  "/>
<polyline clip-path="url(#clip942)" style="stroke:#000000; stroke-width:2; stroke-opacity:0.1; fill:none" points="
  1628.49,1423.18 1628.49,47.2441 
  "/>
<polyline clip-path="url(#clip942)" style="stroke:#000000; stroke-width:2; stroke-opacity:0.1; fill:none" points="
  2061.68,1423.18 2061.68,47.2441 
  "/>
<polyline clip-path="url(#clip940)" style="stroke:#000000; stroke-width:4; stroke-opacity:1; fill:none" points="
  211.116,1423.18 2352.76,1423.18 
  "/>
<polyline clip-path="url(#clip940)" style="stroke:#000000; stroke-width:4; stroke-opacity:1; fill:none" points="
  328.91,1423.18 328.91,1406.67 
  "/>
<polyline clip-path="url(#clip940)" style="stroke:#000000; stroke-width:4; stroke-opacity:1; fill:none" points="
  762.104,1423.18 762.104,1406.67 
  "/>
<polyline clip-path="url(#clip940)" style="stroke:#000000; stroke-width:4; stroke-opacity:1; fill:none" points="
  1195.3,1423.18 1195.3,1406.67 
  "/>
<polyline clip-path="url(#clip940)" style="stroke:#000000; stroke-width:4; stroke-opacity:1; fill:none" points="
  1628.49,1423.18 1628.49,1406.67 
  "/>
<polyline clip-path="url(#clip940)" style="stroke:#000000; stroke-width:4; stroke-opacity:1; fill:none" points="
  2061.68,1423.18 2061.68,1406.67 
  "/>
<path clip-path="url(#clip940)" d="M 0 0 M310.427 1452.37 Q306.816 1452.37 304.987 1455.94 Q303.181 1459.48 303.181 1466.61 Q303.181 1473.71 304.987 1477.28 Q306.816 1480.82 310.427 1480.82 Q314.061 1480.82 315.866 1477.28 Q317.695 1473.71 317.695 1466.61 Q317.695 1459.48 315.866 1455.94 Q314.061 1452.37 310.427 1452.37 M310.427 1448.67 Q316.237 1448.67 319.292 1453.27 Q322.371 1457.86 322.371 1466.61 Q322.371 1475.33 319.292 1479.94 Q316.237 1484.52 310.427 1484.52 Q304.616 1484.52 301.538 1479.94 Q298.482 1475.33 298.482 1466.61 Q298.482 1457.86 301.538 1453.27 Q304.616 1448.67 310.427 1448.67 Z" fill="#000000" fill-rule="evenodd" fill-opacity="1" /><path clip-path="url(#clip940)" d="M 0 0 M327.44 1477.97 L332.325 1477.97 L332.325 1483.85 L327.44 1483.85 L327.44 1477.97 Z" fill="#000000" fill-rule="evenodd" fill-opacity="1" /><path clip-path="url(#clip940)" d="M 0 0 M347.394 1452.37 Q343.783 1452.37 341.954 1455.94 Q340.149 1459.48 340.149 1466.61 Q340.149 1473.71 341.954 1477.28 Q343.783 1480.82 347.394 1480.82 Q351.028 1480.82 352.834 1477.28 Q354.662 1473.71 354.662 1466.61 Q354.662 1459.48 352.834 1455.94 Q351.028 1452.37 347.394 1452.37 M347.394 1448.67 Q353.204 1448.67 356.26 1453.27 Q359.338 1457.86 359.338 1466.61 Q359.338 1475.33 356.26 1479.94 Q353.204 1484.52 347.394 1484.52 Q341.584 1484.52 338.505 1479.94 Q335.45 1475.33 335.45 1466.61 Q335.45 1457.86 338.505 1453.27 Q341.584 1448.67 347.394 1448.67 Z" fill="#000000" fill-rule="evenodd" fill-opacity="1" /><path clip-path="url(#clip940)" d="M 0 0 M738.771 1479.92 L755.09 1479.92 L755.09 1483.85 L733.146 1483.85 L733.146 1479.92 Q735.808 1477.16 740.391 1472.53 Q744.997 1467.88 746.178 1466.54 Q748.423 1464.01 749.303 1462.28 Q750.206 1460.52 750.206 1458.83 Q750.206 1456.07 748.261 1454.34 Q746.34 1452.6 743.238 1452.6 Q741.039 1452.6 738.585 1453.37 Q736.155 1454.13 733.377 1455.68 L733.377 1450.96 Q736.201 1449.82 738.655 1449.25 Q741.109 1448.67 743.146 1448.67 Q748.516 1448.67 751.71 1451.35 Q754.905 1454.04 754.905 1458.53 Q754.905 1460.66 754.095 1462.58 Q753.308 1464.48 751.201 1467.07 Q750.622 1467.74 747.521 1470.96 Q744.419 1474.15 738.771 1479.92 Z" fill="#000000" fill-rule="evenodd" fill-opacity="1" /><path clip-path="url(#clip940)" d="M 0 0 M760.159 1477.97 L765.044 1477.97 L765.044 1483.85 L760.159 1483.85 L760.159 1477.97 Z" fill="#000000" fill-rule="evenodd" fill-opacity="1" /><path clip-path="url(#clip940)" d="M 0 0 M770.159 1449.29 L788.516 1449.29 L788.516 1453.23 L774.442 1453.23 L774.442 1461.7 Q775.46 1461.35 776.479 1461.19 Q777.497 1461 778.516 1461 Q784.303 1461 787.682 1464.18 Q791.062 1467.35 791.062 1472.76 Q791.062 1478.34 787.59 1481.44 Q784.118 1484.52 777.798 1484.52 Q775.622 1484.52 773.354 1484.15 Q771.108 1483.78 768.701 1483.04 L768.701 1478.34 Q770.784 1479.48 773.007 1480.03 Q775.229 1480.59 777.706 1480.59 Q781.71 1480.59 784.048 1478.48 Q786.386 1476.38 786.386 1472.76 Q786.386 1469.15 784.048 1467.05 Q781.71 1464.94 777.706 1464.94 Q775.831 1464.94 773.956 1465.36 Q772.104 1465.77 770.159 1466.65 L770.159 1449.29 Z" fill="#000000" fill-rule="evenodd" fill-opacity="1" /><path clip-path="url(#clip940)" d="M 0 0 M1167.09 1449.29 L1185.45 1449.29 L1185.45 1453.23 L1171.37 1453.23 L1171.37 1461.7 Q1172.39 1461.35 1173.41 1461.19 Q1174.43 1461 1175.45 1461 Q1181.23 1461 1184.61 1464.18 Q1187.99 1467.35 1187.99 1472.76 Q1187.99 1478.34 1184.52 1481.44 Q1181.05 1484.52 1174.73 1484.52 Q1172.55 1484.52 1170.29 1484.15 Q1168.04 1483.78 1165.63 1483.04 L1165.63 1478.34 Q1167.72 1479.48 1169.94 1480.03 Q1172.16 1480.59 1174.64 1480.59 Q1178.64 1480.59 1180.98 1478.48 Q1183.32 1476.38 1183.32 1472.76 Q1183.32 1469.15 1180.98 1467.05 Q1178.64 1464.94 1174.64 1464.94 Q1172.76 1464.94 1170.89 1465.36 Q1169.04 1465.77 1167.09 1466.65 L1167.09 1449.29 Z" fill="#000000" fill-rule="evenodd" fill-opacity="1" /><path clip-path="url(#clip940)" d="M 0 0 M1193.06 1477.97 L1197.95 1477.97 L1197.95 1483.85 L1193.06 1483.85 L1193.06 1477.97 Z" fill="#000000" fill-rule="evenodd" fill-opacity="1" /><path clip-path="url(#clip940)" d="M 0 0 M1213.02 1452.37 Q1209.41 1452.37 1207.58 1455.94 Q1205.77 1459.48 1205.77 1466.61 Q1205.77 1473.71 1207.58 1477.28 Q1209.41 1480.82 1213.02 1480.82 Q1216.65 1480.82 1218.46 1477.28 Q1220.29 1473.71 1220.29 1466.61 Q1220.29 1459.48 1218.46 1455.94 Q1216.65 1452.37 1213.02 1452.37 M1213.02 1448.67 Q1218.83 1448.67 1221.88 1453.27 Q1224.96 1457.86 1224.96 1466.61 Q1224.96 1475.33 1221.88 1479.94 Q1218.83 1484.52 1213.02 1484.52 Q1207.21 1484.52 1204.13 1479.94 Q1201.07 1475.33 1201.07 1466.61 Q1201.07 1457.86 1204.13 1453.27 Q1207.21 1448.67 1213.02 1448.67 Z" fill="#000000" fill-rule="evenodd" fill-opacity="1" /><path clip-path="url(#clip940)" d="M 0 0 M1599.39 1449.29 L1621.62 1449.29 L1621.62 1451.28 L1609.07 1483.85 L1604.19 1483.85 L1615.99 1453.23 L1599.39 1453.23 L1599.39 1449.29 Z" fill="#000000" fill-rule="evenodd" fill-opacity="1" /><path clip-path="url(#clip940)" d="M 0 0 M1626.69 1477.97 L1631.57 1477.97 L1631.57 1483.85 L1626.69 1483.85 L1626.69 1477.97 Z" fill="#000000" fill-rule="evenodd" fill-opacity="1" /><path clip-path="url(#clip940)" d="M 0 0 M1636.69 1449.29 L1655.04 1449.29 L1655.04 1453.23 L1640.97 1453.23 L1640.97 1461.7 Q1641.99 1461.35 1643 1461.19 Q1644.02 1461 1645.04 1461 Q1650.83 1461 1654.21 1464.18 Q1657.59 1467.35 1657.59 1472.76 Q1657.59 1478.34 1654.12 1481.44 Q1650.64 1484.52 1644.32 1484.52 Q1642.15 1484.52 1639.88 1484.15 Q1637.63 1483.78 1635.23 1483.04 L1635.23 1478.34 Q1637.31 1479.48 1639.53 1480.03 Q1641.75 1480.59 1644.23 1480.59 Q1648.24 1480.59 1650.57 1478.48 Q1652.91 1476.38 1652.91 1472.76 Q1652.91 1469.15 1650.57 1467.05 Q1648.24 1464.94 1644.23 1464.94 Q1642.36 1464.94 1640.48 1465.36 Q1638.63 1465.77 1636.69 1466.65 L1636.69 1449.29 Z" fill="#000000" fill-rule="evenodd" fill-opacity="1" /><path clip-path="url(#clip940)" d="M 0 0 M2020.08 1479.92 L2027.71 1479.92 L2027.71 1453.55 L2019.4 1455.22 L2019.4 1450.96 L2027.67 1449.29 L2032.34 1449.29 L2032.34 1479.92 L2039.98 1479.92 L2039.98 1483.85 L2020.08 1483.85 L2020.08 1479.92 Z" fill="#000000" fill-rule="evenodd" fill-opacity="1" /><path clip-path="url(#clip940)" d="M 0 0 M2055.05 1452.37 Q2051.44 1452.37 2049.61 1455.94 Q2047.81 1459.48 2047.81 1466.61 Q2047.81 1473.71 2049.61 1477.28 Q2051.44 1480.82 2055.05 1480.82 Q2058.69 1480.82 2060.49 1477.28 Q2062.32 1473.71 2062.32 1466.61 Q2062.32 1459.48 2060.49 1455.94 Q2058.69 1452.37 2055.05 1452.37 M2055.05 1448.67 Q2060.86 1448.67 2063.92 1453.27 Q2067 1457.86 2067 1466.61 Q2067 1475.33 2063.92 1479.94 Q2060.86 1484.52 2055.05 1484.52 Q2049.24 1484.52 2046.16 1479.94 Q2043.11 1475.33 2043.11 1466.61 Q2043.11 1457.86 2046.16 1453.27 Q2049.24 1448.67 2055.05 1448.67 Z" fill="#000000" fill-rule="evenodd" fill-opacity="1" /><path clip-path="url(#clip940)" d="M 0 0 M2072.07 1477.97 L2076.95 1477.97 L2076.95 1483.85 L2072.07 1483.85 L2072.07 1477.97 Z" fill="#000000" fill-rule="evenodd" fill-opacity="1" /><path clip-path="url(#clip940)" d="M 0 0 M2092.02 1452.37 Q2088.41 1452.37 2086.58 1455.94 Q2084.77 1459.48 2084.77 1466.61 Q2084.77 1473.71 2086.58 1477.28 Q2088.41 1480.82 2092.02 1480.82 Q2095.65 1480.82 2097.46 1477.28 Q2099.29 1473.71 2099.29 1466.61 Q2099.29 1459.48 2097.46 1455.94 Q2095.65 1452.37 2092.02 1452.37 M2092.02 1448.67 Q2097.83 1448.67 2100.89 1453.27 Q2103.96 1457.86 2103.96 1466.61 Q2103.96 1475.33 2100.89 1479.94 Q2097.83 1484.52 2092.02 1484.52 Q2086.21 1484.52 2083.13 1479.94 Q2080.08 1475.33 2080.08 1466.61 Q2080.08 1457.86 2083.13 1453.27 Q2086.21 1448.67 2092.02 1448.67 Z" fill="#000000" fill-rule="evenodd" fill-opacity="1" /><path clip-path="url(#clip940)" d="M 0 0 M1283.89 1539.24 Q1286.09 1535.29 1289.15 1533.41 Q1292.2 1531.54 1296.34 1531.54 Q1301.91 1531.54 1304.93 1535.45 Q1307.96 1539.33 1307.96 1546.53 L1307.96 1568.04 L1302.07 1568.04 L1302.07 1546.72 Q1302.07 1541.59 1300.25 1539.11 Q1298.44 1536.63 1294.72 1536.63 Q1290.16 1536.63 1287.52 1539.65 Q1284.88 1542.68 1284.88 1547.9 L1284.88 1568.04 L1278.99 1568.04 L1278.99 1546.72 Q1278.99 1541.56 1277.18 1539.11 Q1275.36 1536.63 1271.58 1536.63 Q1267.09 1536.63 1264.45 1539.68 Q1261.8 1542.71 1261.8 1547.9 L1261.8 1568.04 L1255.92 1568.04 L1255.92 1532.4 L1261.8 1532.4 L1261.8 1537.93 Q1263.81 1534.66 1266.61 1533.1 Q1269.41 1531.54 1273.26 1531.54 Q1277.15 1531.54 1279.85 1533.51 Q1282.59 1535.48 1283.89 1539.24 Z" fill="#000000" fill-rule="evenodd" fill-opacity="1" /><polyline clip-path="url(#clip942)" style="stroke:#000000; stroke-width:2; stroke-opacity:0.1; fill:none" points="
  211.116,1384.24 2352.76,1384.24 
  "/>
<polyline clip-path="url(#clip942)" style="stroke:#000000; stroke-width:2; stroke-opacity:0.1; fill:none" points="
  211.116,1024.66 2352.76,1024.66 
  "/>
<polyline clip-path="url(#clip942)" style="stroke:#000000; stroke-width:2; stroke-opacity:0.1; fill:none" points="
  211.116,665.078 2352.76,665.078 
  "/>
<polyline clip-path="url(#clip942)" style="stroke:#000000; stroke-width:2; stroke-opacity:0.1; fill:none" points="
  211.116,305.498 2352.76,305.498 
  "/>
<polyline clip-path="url(#clip940)" style="stroke:#000000; stroke-width:4; stroke-opacity:1; fill:none" points="
  211.116,1423.18 211.116,47.2441 
  "/>
<polyline clip-path="url(#clip940)" style="stroke:#000000; stroke-width:4; stroke-opacity:1; fill:none" points="
  211.116,1384.24 236.816,1384.24 
  "/>
<polyline clip-path="url(#clip940)" style="stroke:#000000; stroke-width:4; stroke-opacity:1; fill:none" points="
  211.116,1024.66 236.816,1024.66 
  "/>
<polyline clip-path="url(#clip940)" style="stroke:#000000; stroke-width:4; stroke-opacity:1; fill:none" points="
  211.116,665.078 236.816,665.078 
  "/>
<polyline clip-path="url(#clip940)" style="stroke:#000000; stroke-width:4; stroke-opacity:1; fill:none" points="
  211.116,305.498 236.816,305.498 
  "/>
<path clip-path="url(#clip940)" d="M 0 0 M126.205 1370.04 Q122.593 1370.04 120.765 1373.6 Q118.959 1377.14 118.959 1384.27 Q118.959 1391.38 120.765 1394.94 Q122.593 1398.49 126.205 1398.49 Q129.839 1398.49 131.644 1394.94 Q133.473 1391.38 133.473 1384.27 Q133.473 1377.14 131.644 1373.6 Q129.839 1370.04 126.205 1370.04 M126.205 1366.33 Q132.015 1366.33 135.07 1370.94 Q138.149 1375.52 138.149 1384.27 Q138.149 1393 135.07 1397.61 Q132.015 1402.19 126.205 1402.19 Q120.394 1402.19 117.316 1397.61 Q114.26 1393 114.26 1384.27 Q114.26 1375.52 117.316 1370.94 Q120.394 1366.33 126.205 1366.33 Z" fill="#000000" fill-rule="evenodd" fill-opacity="1" /><path clip-path="url(#clip940)" d="M 0 0 M143.218 1395.64 L148.103 1395.64 L148.103 1401.52 L143.218 1401.52 L143.218 1395.64 Z" fill="#000000" fill-rule="evenodd" fill-opacity="1" /><path clip-path="url(#clip940)" d="M 0 0 M163.172 1370.04 Q159.561 1370.04 157.732 1373.6 Q155.927 1377.14 155.927 1384.27 Q155.927 1391.38 157.732 1394.94 Q159.561 1398.49 163.172 1398.49 Q166.806 1398.49 168.612 1394.94 Q170.44 1391.38 170.44 1384.27 Q170.44 1377.14 168.612 1373.6 Q166.806 1370.04 163.172 1370.04 M163.172 1366.33 Q168.982 1366.33 172.038 1370.94 Q175.116 1375.52 175.116 1384.27 Q175.116 1393 172.038 1397.61 Q168.982 1402.19 163.172 1402.19 Q157.362 1402.19 154.283 1397.61 Q151.228 1393 151.228 1384.27 Q151.228 1375.52 154.283 1370.94 Q157.362 1366.33 163.172 1366.33 Z" fill="#000000" fill-rule="evenodd" fill-opacity="1" /><path clip-path="url(#clip940)" d="M 0 0 M127.431 1010.46 Q123.82 1010.46 121.992 1014.02 Q120.186 1017.56 120.186 1024.69 Q120.186 1031.8 121.992 1035.36 Q123.82 1038.91 127.431 1038.91 Q131.066 1038.91 132.871 1035.36 Q134.7 1031.8 134.7 1024.69 Q134.7 1017.56 132.871 1014.02 Q131.066 1010.46 127.431 1010.46 M127.431 1006.75 Q133.242 1006.75 136.297 1011.36 Q139.376 1015.94 139.376 1024.69 Q139.376 1033.42 136.297 1038.03 Q133.242 1042.61 127.431 1042.61 Q121.621 1042.61 118.543 1038.03 Q115.487 1033.42 115.487 1024.69 Q115.487 1015.94 118.543 1011.36 Q121.621 1006.75 127.431 1006.75 Z" fill="#000000" fill-rule="evenodd" fill-opacity="1" /><path clip-path="url(#clip940)" d="M 0 0 M144.445 1036.06 L149.329 1036.06 L149.329 1041.94 L144.445 1041.94 L144.445 1036.06 Z" fill="#000000" fill-rule="evenodd" fill-opacity="1" /><path clip-path="url(#clip940)" d="M 0 0 M155.209 1038 L162.848 1038 L162.848 1011.64 L154.538 1013.3 L154.538 1009.04 L162.802 1007.38 L167.477 1007.38 L167.477 1038 L175.116 1038 L175.116 1041.94 L155.209 1041.94 L155.209 1038 Z" fill="#000000" fill-rule="evenodd" fill-opacity="1" /><path clip-path="url(#clip940)" d="M 0 0 M127.802 650.877 Q124.191 650.877 122.362 654.442 Q120.556 657.983 120.556 665.113 Q120.556 672.219 122.362 675.784 Q124.191 679.326 127.802 679.326 Q131.436 679.326 133.242 675.784 Q135.07 672.219 135.07 665.113 Q135.07 657.983 133.242 654.442 Q131.436 650.877 127.802 650.877 M127.802 647.173 Q133.612 647.173 136.667 651.78 Q139.746 656.363 139.746 665.113 Q139.746 673.84 136.667 678.446 Q133.612 683.03 127.802 683.03 Q121.992 683.03 118.913 678.446 Q115.857 673.84 115.857 665.113 Q115.857 656.363 118.913 651.78 Q121.992 647.173 127.802 647.173 Z" fill="#000000" fill-rule="evenodd" fill-opacity="1" /><path clip-path="url(#clip940)" d="M 0 0 M144.816 676.479 L149.7 676.479 L149.7 682.358 L144.816 682.358 L144.816 676.479 Z" fill="#000000" fill-rule="evenodd" fill-opacity="1" /><path clip-path="url(#clip940)" d="M 0 0 M158.797 678.423 L175.116 678.423 L175.116 682.358 L153.172 682.358 L153.172 678.423 Q155.834 675.668 160.417 671.039 Q165.024 666.386 166.204 665.044 Q168.45 662.52 169.329 660.784 Q170.232 659.025 170.232 657.335 Q170.232 654.581 168.288 652.845 Q166.366 651.108 163.265 651.108 Q161.065 651.108 158.612 651.872 Q156.181 652.636 153.403 654.187 L153.403 649.465 Q156.228 648.331 158.681 647.752 Q161.135 647.173 163.172 647.173 Q168.542 647.173 171.737 649.858 Q174.931 652.544 174.931 657.034 Q174.931 659.164 174.121 661.085 Q173.334 662.983 171.227 665.576 Q170.649 666.247 167.547 669.465 Q164.445 672.659 158.797 678.423 Z" fill="#000000" fill-rule="evenodd" fill-opacity="1" /><path clip-path="url(#clip940)" d="M 0 0 M126.853 291.297 Q123.242 291.297 121.413 294.862 Q119.607 298.403 119.607 305.533 Q119.607 312.639 121.413 316.204 Q123.242 319.746 126.853 319.746 Q130.487 319.746 132.292 316.204 Q134.121 312.639 134.121 305.533 Q134.121 298.403 132.292 294.862 Q130.487 291.297 126.853 291.297 M126.853 287.593 Q132.663 287.593 135.718 292.2 Q138.797 296.783 138.797 305.533 Q138.797 314.26 135.718 318.866 Q132.663 323.45 126.853 323.45 Q121.043 323.45 117.964 318.866 Q114.908 314.26 114.908 305.533 Q114.908 296.783 117.964 292.2 Q121.043 287.593 126.853 287.593 Z" fill="#000000" fill-rule="evenodd" fill-opacity="1" /><path clip-path="url(#clip940)" d="M 0 0 M143.866 316.899 L148.751 316.899 L148.751 322.778 L143.866 322.778 L143.866 316.899 Z" fill="#000000" fill-rule="evenodd" fill-opacity="1" /><path clip-path="url(#clip940)" d="M 0 0 M167.987 304.144 Q171.343 304.862 173.218 307.13 Q175.116 309.399 175.116 312.732 Q175.116 317.848 171.598 320.649 Q168.079 323.45 161.598 323.45 Q159.422 323.45 157.107 323.01 Q154.815 322.593 152.362 321.737 L152.362 317.223 Q154.306 318.357 156.621 318.936 Q158.936 319.514 161.459 319.514 Q165.857 319.514 168.149 317.778 Q170.464 316.042 170.464 312.732 Q170.464 309.676 168.311 307.963 Q166.181 306.227 162.362 306.227 L158.334 306.227 L158.334 302.385 L162.547 302.385 Q165.996 302.385 167.825 301.019 Q169.653 299.63 169.653 297.038 Q169.653 294.376 167.755 292.964 Q165.88 291.528 162.362 291.528 Q160.44 291.528 158.241 291.945 Q156.042 292.362 153.403 293.241 L153.403 289.075 Q156.065 288.334 158.38 287.964 Q160.718 287.593 162.778 287.593 Q168.102 287.593 171.204 290.024 Q174.306 292.431 174.306 296.552 Q174.306 299.422 172.663 301.413 Q171.019 303.38 167.987 304.144 Z" fill="#000000" fill-rule="evenodd" fill-opacity="1" /><path clip-path="url(#clip940)" d="M 0 0 M21.7677 793.124 L39.6235 793.124 L39.6235 785.04 Q39.6235 780.552 37.3 778.101 Q34.9765 775.65 30.6797 775.65 Q26.4147 775.65 24.0912 778.101 Q21.7677 780.552 21.7677 785.04 L21.7677 793.124 M16.4842 799.553 L16.4842 785.04 Q16.4842 777.051 20.1126 772.977 Q23.7092 768.871 30.6797 768.871 Q37.7138 768.871 41.3104 772.977 Q44.907 777.051 44.907 785.04 L44.907 793.124 L64.0042 793.124 L64.0042 799.553 L16.4842 799.553 Z" fill="#000000" fill-rule="evenodd" fill-opacity="1" /><path clip-path="url(#clip940)" d="M 0 0 M14.5426 748.66 Q21.8632 752.925 29.0246 754.993 Q36.186 757.062 43.5384 757.062 Q50.8908 757.062 58.1159 754.993 Q65.3091 752.893 72.5979 748.66 L72.5979 753.752 Q65.1182 758.526 57.8931 760.914 Q50.668 763.269 43.5384 763.269 Q36.4406 763.269 29.2474 760.914 Q22.0542 758.558 14.5426 753.752 L14.5426 748.66 Z" fill="#000000" fill-rule="evenodd" fill-opacity="1" /><path clip-path="url(#clip940)" d="M 0 0 M35.1993 714.762 Q31.2526 712.566 29.3747 709.51 Q27.4968 706.455 27.4968 702.317 Q27.4968 696.747 31.4117 693.723 Q35.2948 690.7 42.4881 690.7 L64.0042 690.7 L64.0042 696.588 L42.679 696.588 Q37.5546 696.588 35.072 698.402 Q32.5894 700.216 32.5894 703.94 Q32.5894 708.492 35.6131 711.134 Q38.6368 713.775 43.8567 713.775 L64.0042 713.775 L64.0042 719.664 L42.679 719.664 Q37.5228 719.664 35.072 721.478 Q32.5894 723.292 32.5894 727.08 Q32.5894 731.568 35.6449 734.209 Q38.6686 736.851 43.8567 736.851 L64.0042 736.851 L64.0042 742.739 L28.3562 742.739 L28.3562 736.851 L33.8944 736.851 Q30.616 734.846 29.0564 732.045 Q27.4968 729.244 27.4968 725.393 Q27.4968 721.51 29.4702 718.804 Q31.4436 716.067 35.1993 714.762 Z" fill="#000000" fill-rule="evenodd" fill-opacity="1" /><path clip-path="url(#clip940)" d="M 0 0 M14.5426 685.48 L14.5426 680.387 Q22.0542 675.613 29.2474 673.258 Q36.4406 670.871 43.5384 670.871 Q50.668 670.871 57.8931 673.258 Q65.1182 675.613 72.5979 680.387 L72.5979 685.48 Q65.3091 681.247 58.1159 679.178 Q50.8908 677.077 43.5384 677.077 Q36.186 677.077 29.0246 679.178 Q21.8632 681.247 14.5426 685.48 Z" fill="#000000" fill-rule="evenodd" fill-opacity="1" /><path clip-path="url(#clip942)" d="
M328.91 333.995 L328.91 1384.24 L502.188 1384.24 L502.188 333.995 L328.91 333.995 L328.91 333.995  Z
  " fill="#009af9" fill-rule="evenodd" fill-opacity="1"/>
<polyline clip-path="url(#clip942)" style="stroke:#000000; stroke-width:4; stroke-opacity:1; fill:none" points="
  328.91,333.995 328.91,1384.24 502.188,1384.24 502.188,333.995 328.91,333.995 
  "/>
<path clip-path="url(#clip942)" d="
M502.188 86.1857 L502.188 1384.24 L675.465 1384.24 L675.465 86.1857 L502.188 86.1857 L502.188 86.1857  Z
  " fill="#009af9" fill-rule="evenodd" fill-opacity="1"/>
<polyline clip-path="url(#clip942)" style="stroke:#000000; stroke-width:4; stroke-opacity:1; fill:none" points="
  502.188,86.1857 502.188,1384.24 675.465,1384.24 675.465,86.1857 502.188,86.1857 
  "/>
<path clip-path="url(#clip942)" d="
M675.465 587.599 L675.465 1384.24 L848.743 1384.24 L848.743 587.599 L675.465 587.599 L675.465 587.599  Z
  " fill="#009af9" fill-rule="evenodd" fill-opacity="1"/>
<polyline clip-path="url(#clip942)" style="stroke:#000000; stroke-width:4; stroke-opacity:1; fill:none" points="
  675.465,587.599 675.465,1384.24 848.743,1384.24 848.743,587.599 675.465,587.599 
  "/>
<path clip-path="url(#clip942)" d="
M848.743 1061.38 L848.743 1384.24 L1022.02 1384.24 L1022.02 1061.38 L848.743 1061.38 L848.743 1061.38  Z
  " fill="#009af9" fill-rule="evenodd" fill-opacity="1"/>
<polyline clip-path="url(#clip942)" style="stroke:#000000; stroke-width:4; stroke-opacity:1; fill:none" points="
  848.743,1061.38 848.743,1384.24 1022.02,1384.24 1022.02,1061.38 848.743,1061.38 
  "/>
<path clip-path="url(#clip942)" d="
M1022.02 1285.98 L1022.02 1384.24 L1195.3 1384.24 L1195.3 1285.98 L1022.02 1285.98 L1022.02 1285.98  Z
  " fill="#009af9" fill-rule="evenodd" fill-opacity="1"/>
<polyline clip-path="url(#clip942)" style="stroke:#000000; stroke-width:4; stroke-opacity:1; fill:none" points="
  1022.02,1285.98 1022.02,1384.24 1195.3,1384.24 1195.3,1285.98 1022.02,1285.98 
  "/>
<path clip-path="url(#clip942)" d="
M1195.3 1360.47 L1195.3 1384.24 L1368.57 1384.24 L1368.57 1360.47 L1195.3 1360.47 L1195.3 1360.47  Z
  " fill="#009af9" fill-rule="evenodd" fill-opacity="1"/>
<polyline clip-path="url(#clip942)" style="stroke:#000000; stroke-width:4; stroke-opacity:1; fill:none" points="
  1195.3,1360.47 1195.3,1384.24 1368.57,1384.24 1368.57,1360.47 1195.3,1360.47 
  "/>
<path clip-path="url(#clip942)" d="
M1368.57 1379.39 L1368.57 1384.24 L1541.85 1384.24 L1541.85 1379.39 L1368.57 1379.39 L1368.57 1379.39  Z
  " fill="#009af9" fill-rule="evenodd" fill-opacity="1"/>
<polyline clip-path="url(#clip942)" style="stroke:#000000; stroke-width:4; stroke-opacity:1; fill:none" points="
  1368.57,1379.39 1368.57,1384.24 1541.85,1384.24 1541.85,1379.39 1368.57,1379.39 
  "/>
<path clip-path="url(#clip942)" d="
M1541.85 1383.33 L1541.85 1384.24 L1715.13 1384.24 L1715.13 1383.33 L1541.85 1383.33 L1541.85 1383.33  Z
  " fill="#009af9" fill-rule="evenodd" fill-opacity="1"/>
<polyline clip-path="url(#clip942)" style="stroke:#000000; stroke-width:4; stroke-opacity:1; fill:none" points="
  1541.85,1383.33 1541.85,1384.24 1715.13,1384.24 1715.13,1383.33 1541.85,1383.33 
  "/>
<path clip-path="url(#clip942)" d="
M1715.13 1384.06 L1715.13 1384.24 L1888.41 1384.24 L1888.41 1384.06 L1715.13 1384.06 L1715.13 1384.06  Z
  " fill="#009af9" fill-rule="evenodd" fill-opacity="1"/>
<polyline clip-path="url(#clip942)" style="stroke:#000000; stroke-width:4; stroke-opacity:1; fill:none" points="
  1715.13,1384.06 1715.13,1384.24 1888.41,1384.24 1888.41,1384.06 1715.13,1384.06 
  "/>
<path clip-path="url(#clip942)" d="
M1888.41 1384.2 L1888.41 1384.24 L2061.68 1384.24 L2061.68 1384.2 L1888.41 1384.2 L1888.41 1384.2  Z
  " fill="#009af9" fill-rule="evenodd" fill-opacity="1"/>
<polyline clip-path="url(#clip942)" style="stroke:#000000; stroke-width:4; stroke-opacity:1; fill:none" points="
  1888.41,1384.2 1888.41,1384.24 2061.68,1384.24 2061.68,1384.2 1888.41,1384.2 
  "/>
<path clip-path="url(#clip942)" d="
M2061.68 1384.23 L2061.68 1384.24 L2234.96 1384.24 L2234.96 1384.23 L2061.68 1384.23 L2061.68 1384.23  Z
  " fill="#009af9" fill-rule="evenodd" fill-opacity="1"/>
<polyline clip-path="url(#clip942)" style="stroke:#000000; stroke-width:4; stroke-opacity:1; fill:none" points="
  2061.68,1384.23 2061.68,1384.24 2234.96,1384.24 2234.96,1384.23 2061.68,1384.23 
  "/>
<polyline clip-path="url(#clip942)" style="stroke:#e26f46; stroke-width:4; stroke-opacity:1; fill:none" points="
  541.63,2799.12 541.63,-1328.69 
  "/>
<polyline clip-path="url(#clip942)" style="stroke:#3da44d; stroke-width:4; stroke-opacity:1; fill:none" points="
  541.379,2799.12 541.379,-1328.69 
  "/>
<path clip-path="url(#clip940)" d="
M1685.66 335.029 L2281.37 335.029 L2281.37 93.1086 L1685.66 93.1086  Z
  " fill="#ffffff" fill-rule="evenodd" fill-opacity="1"/>
<polyline clip-path="url(#clip940)" style="stroke:#000000; stroke-width:4; stroke-opacity:1; fill:none" points="
  1685.66,335.029 2281.37,335.029 2281.37,93.1086 1685.66,93.1086 1685.66,335.029 
  "/>
<path clip-path="url(#clip940)" d="
M1709.45 177.781 L1852.23 177.781 L1852.23 129.397 L1709.45 129.397 L1709.45 177.781  Z
  " fill="#009af9" fill-rule="evenodd" fill-opacity="1"/>
<polyline clip-path="url(#clip940)" style="stroke:#000000; stroke-width:4; stroke-opacity:1; fill:none" points="
  1709.45,177.781 1852.23,177.781 1852.23,129.397 1709.45,129.397 1709.45,177.781 
  "/>
<path clip-path="url(#clip940)" d="M 0 0 M1889.87 173.276 Q1888.06 177.906 1886.35 179.318 Q1884.63 180.73 1881.76 180.73 L1878.36 180.73 L1878.36 177.165 L1880.86 177.165 Q1882.62 177.165 1883.59 176.332 Q1884.56 175.498 1885.75 172.396 L1886.51 170.452 L1876.02 144.943 L1880.54 144.943 L1888.64 165.221 L1896.74 144.943 L1901.25 144.943 L1889.87 173.276 Z" fill="#000000" fill-rule="evenodd" fill-opacity="1" /><path clip-path="url(#clip940)" d="M 0 0 M1907.13 166.933 L1914.77 166.933 L1914.77 140.568 L1906.46 142.235 L1906.46 137.975 L1914.73 136.309 L1919.4 136.309 L1919.4 166.933 L1927.04 166.933 L1927.04 170.869 L1907.13 170.869 L1907.13 166.933 Z" fill="#000000" fill-rule="evenodd" fill-opacity="1" /><polyline clip-path="url(#clip940)" style="stroke:#e26f46; stroke-width:4; stroke-opacity:1; fill:none" points="
  1709.45,214.069 1852.23,214.069 
  "/>
<path clip-path="url(#clip940)" d="M 0 0 M1883.43 198.062 L1883.43 205.423 L1892.2 205.423 L1892.2 208.733 L1883.43 208.733 L1883.43 222.807 Q1883.43 225.978 1884.29 226.881 Q1885.17 227.784 1887.83 227.784 L1892.2 227.784 L1892.2 231.349 L1887.83 231.349 Q1882.9 231.349 1881.02 229.52 Q1879.15 227.668 1879.15 222.807 L1879.15 208.733 L1876.02 208.733 L1876.02 205.423 L1879.15 205.423 L1879.15 198.062 L1883.43 198.062 Z" fill="#000000" fill-rule="evenodd" fill-opacity="1" /><path clip-path="url(#clip940)" d="M 0 0 M1918.22 215.701 L1918.22 231.349 L1913.96 231.349 L1913.96 215.839 Q1913.96 212.159 1912.53 210.33 Q1911.09 208.502 1908.22 208.502 Q1904.77 208.502 1902.78 210.701 Q1900.79 212.9 1900.79 216.696 L1900.79 231.349 L1896.51 231.349 L1896.51 195.33 L1900.79 195.33 L1900.79 209.451 Q1902.32 207.113 1904.38 205.955 Q1906.46 204.798 1909.17 204.798 Q1913.64 204.798 1915.93 207.576 Q1918.22 210.33 1918.22 215.701 Z" fill="#000000" fill-rule="evenodd" fill-opacity="1" /><path clip-path="url(#clip940)" d="M 0 0 M1944.87 217.321 L1944.87 219.404 L1925.28 219.404 Q1925.56 223.802 1927.92 226.117 Q1930.31 228.409 1934.54 228.409 Q1937 228.409 1939.29 227.807 Q1941.6 227.205 1943.87 226.001 L1943.87 230.029 Q1941.58 231.001 1939.17 231.511 Q1936.76 232.02 1934.29 232.02 Q1928.08 232.02 1924.45 228.409 Q1920.84 224.798 1920.84 218.64 Q1920.84 212.275 1924.26 208.548 Q1927.71 204.798 1933.55 204.798 Q1938.78 204.798 1941.81 208.177 Q1944.87 211.534 1944.87 217.321 M1940.61 216.071 Q1940.56 212.576 1938.64 210.492 Q1936.74 208.409 1933.59 208.409 Q1930.03 208.409 1927.87 210.423 Q1925.75 212.437 1925.42 216.094 L1940.61 216.071 Z" fill="#000000" fill-rule="evenodd" fill-opacity="1" /><path clip-path="url(#clip940)" d="M 0 0 M1959.38 208.409 Q1955.95 208.409 1953.96 211.094 Q1951.97 213.756 1951.97 218.409 Q1951.97 223.062 1953.94 225.747 Q1955.93 228.409 1959.38 228.409 Q1962.78 228.409 1964.77 225.724 Q1966.76 223.038 1966.76 218.409 Q1966.76 213.802 1964.77 211.117 Q1962.78 208.409 1959.38 208.409 M1959.38 204.798 Q1964.93 204.798 1968.11 208.409 Q1971.28 212.02 1971.28 218.409 Q1971.28 224.775 1968.11 228.409 Q1964.93 232.02 1959.38 232.02 Q1953.8 232.02 1950.63 228.409 Q1947.48 224.775 1947.48 218.409 Q1947.48 212.02 1950.63 208.409 Q1953.8 204.798 1959.38 204.798 Z" fill="#000000" fill-rule="evenodd" fill-opacity="1" /><path clip-path="url(#clip940)" d="M 0 0 M1990.77 209.404 Q1990.05 208.988 1989.19 208.802 Q1988.36 208.594 1987.34 208.594 Q1983.73 208.594 1981.79 210.955 Q1979.87 213.293 1979.87 217.691 L1979.87 231.349 L1975.58 231.349 L1975.58 205.423 L1979.87 205.423 L1979.87 209.451 Q1981.21 207.089 1983.36 205.955 Q1985.51 204.798 1988.59 204.798 Q1989.03 204.798 1989.56 204.867 Q1990.1 204.914 1990.74 205.029 L1990.77 209.404 Z" fill="#000000" fill-rule="evenodd" fill-opacity="1" /><path clip-path="url(#clip940)" d="M 0 0 M2016.37 217.321 L2016.37 219.404 L1996.79 219.404 Q1997.06 223.802 1999.43 226.117 Q2001.81 228.409 2006.05 228.409 Q2008.5 228.409 2010.79 227.807 Q2013.11 227.205 2015.37 226.001 L2015.37 230.029 Q2013.08 231.001 2010.68 231.511 Q2008.27 232.02 2005.79 232.02 Q1999.59 232.02 1995.95 228.409 Q1992.34 224.798 1992.34 218.64 Q1992.34 212.275 1995.77 208.548 Q1999.22 204.798 2005.05 204.798 Q2010.28 204.798 2013.31 208.177 Q2016.37 211.534 2016.37 217.321 M2012.11 216.071 Q2012.06 212.576 2010.14 210.492 Q2008.24 208.409 2005.1 208.409 Q2001.53 208.409 1999.38 210.423 Q1997.25 212.437 1996.93 216.094 L2012.11 216.071 Z" fill="#000000" fill-rule="evenodd" fill-opacity="1" /><path clip-path="url(#clip940)" d="M 0 0 M2025.05 198.062 L2025.05 205.423 L2033.82 205.423 L2033.82 208.733 L2025.05 208.733 L2025.05 222.807 Q2025.05 225.978 2025.91 226.881 Q2026.79 227.784 2029.45 227.784 L2033.82 227.784 L2033.82 231.349 L2029.45 231.349 Q2024.52 231.349 2022.64 229.52 Q2020.77 227.668 2020.77 222.807 L2020.77 208.733 L2017.64 208.733 L2017.64 205.423 L2020.77 205.423 L2020.77 198.062 L2025.05 198.062 Z" fill="#000000" fill-rule="evenodd" fill-opacity="1" /><path clip-path="url(#clip940)" d="M 0 0 M2038.29 205.423 L2042.55 205.423 L2042.55 231.349 L2038.29 231.349 L2038.29 205.423 M2038.29 195.33 L2042.55 195.33 L2042.55 200.724 L2038.29 200.724 L2038.29 195.33 Z" fill="#000000" fill-rule="evenodd" fill-opacity="1" /><path clip-path="url(#clip940)" d="M 0 0 M2065.67 206.418 L2065.67 210.4 Q2063.87 209.404 2062.04 208.918 Q2060.24 208.409 2058.38 208.409 Q2054.24 208.409 2051.95 211.048 Q2049.66 213.664 2049.66 218.409 Q2049.66 223.154 2051.95 225.793 Q2054.24 228.409 2058.38 228.409 Q2060.24 228.409 2062.04 227.923 Q2063.87 227.413 2065.67 226.418 L2065.67 230.353 Q2063.89 231.187 2061.97 231.603 Q2060.07 232.02 2057.92 232.02 Q2052.06 232.02 2048.61 228.339 Q2045.17 224.659 2045.17 218.409 Q2045.17 212.066 2048.64 208.432 Q2052.13 204.798 2058.2 204.798 Q2060.17 204.798 2062.04 205.215 Q2063.92 205.608 2065.67 206.418 Z" fill="#000000" fill-rule="evenodd" fill-opacity="1" /><path clip-path="url(#clip940)" d="M 0 0 M2081.92 218.316 Q2076.76 218.316 2074.77 219.497 Q2072.78 220.677 2072.78 223.525 Q2072.78 225.793 2074.26 227.136 Q2075.77 228.455 2078.34 228.455 Q2081.88 228.455 2084.01 225.955 Q2086.16 223.432 2086.16 219.265 L2086.16 218.316 L2081.92 218.316 M2090.42 216.557 L2090.42 231.349 L2086.16 231.349 L2086.16 227.413 Q2084.7 229.775 2082.53 230.909 Q2080.35 232.02 2077.2 232.02 Q2073.22 232.02 2070.86 229.798 Q2068.52 227.552 2068.52 223.802 Q2068.52 219.427 2071.44 217.205 Q2074.38 214.983 2080.19 214.983 L2086.16 214.983 L2086.16 214.566 Q2086.16 211.627 2084.22 210.029 Q2082.3 208.409 2078.8 208.409 Q2076.58 208.409 2074.47 208.941 Q2072.36 209.474 2070.42 210.539 L2070.42 206.603 Q2072.76 205.701 2074.96 205.261 Q2077.16 204.798 2079.24 204.798 Q2084.86 204.798 2087.64 207.714 Q2090.42 210.631 2090.42 216.557 Z" fill="#000000" fill-rule="evenodd" fill-opacity="1" /><path clip-path="url(#clip940)" d="M 0 0 M2094.89 195.33 L2099.15 195.33 L2099.15 231.349 L2094.89 231.349 L2094.89 195.33 Z" fill="#000000" fill-rule="evenodd" fill-opacity="1" /><path clip-path="url(#clip940)" d="M 0 0 M2138.87 210.4 Q2140.47 207.529 2142.69 206.164 Q2144.91 204.798 2147.92 204.798 Q2151.97 204.798 2154.17 207.645 Q2156.37 210.469 2156.37 215.701 L2156.37 231.349 L2152.09 231.349 L2152.09 215.839 Q2152.09 212.113 2150.77 210.307 Q2149.45 208.502 2146.74 208.502 Q2143.43 208.502 2141.51 210.701 Q2139.59 212.9 2139.59 216.696 L2139.59 231.349 L2135.3 231.349 L2135.3 215.839 Q2135.3 212.089 2133.98 210.307 Q2132.67 208.502 2129.91 208.502 Q2126.65 208.502 2124.73 210.724 Q2122.8 212.923 2122.8 216.696 L2122.8 231.349 L2118.52 231.349 L2118.52 205.423 L2122.8 205.423 L2122.8 209.451 Q2124.26 207.066 2126.3 205.932 Q2128.34 204.798 2131.14 204.798 Q2133.96 204.798 2135.93 206.233 Q2137.92 207.668 2138.87 210.4 Z" fill="#000000" fill-rule="evenodd" fill-opacity="1" /><path clip-path="url(#clip940)" d="M 0 0 M2183.01 217.321 L2183.01 219.404 L2163.43 219.404 Q2163.71 223.802 2166.07 226.117 Q2168.45 228.409 2172.69 228.409 Q2175.14 228.409 2177.43 227.807 Q2179.75 227.205 2182.02 226.001 L2182.02 230.029 Q2179.73 231.001 2177.32 231.511 Q2174.91 232.02 2172.43 232.02 Q2166.23 232.02 2162.6 228.409 Q2158.98 224.798 2158.98 218.64 Q2158.98 212.275 2162.41 208.548 Q2165.86 204.798 2171.69 204.798 Q2176.92 204.798 2179.96 208.177 Q2183.01 211.534 2183.01 217.321 M2178.75 216.071 Q2178.71 212.576 2176.79 210.492 Q2174.89 208.409 2171.74 208.409 Q2168.17 208.409 2166.02 210.423 Q2163.89 212.437 2163.57 216.094 L2178.75 216.071 Z" fill="#000000" fill-rule="evenodd" fill-opacity="1" /><path clip-path="url(#clip940)" d="M 0 0 M2199.26 218.316 Q2194.1 218.316 2192.11 219.497 Q2190.12 220.677 2190.12 223.525 Q2190.12 225.793 2191.6 227.136 Q2193.1 228.455 2195.67 228.455 Q2199.22 228.455 2201.35 225.955 Q2203.5 223.432 2203.5 219.265 L2203.5 218.316 L2199.26 218.316 M2207.76 216.557 L2207.76 231.349 L2203.5 231.349 L2203.5 227.413 Q2202.04 229.775 2199.86 230.909 Q2197.69 232.02 2194.54 232.02 Q2190.56 232.02 2188.2 229.798 Q2185.86 227.552 2185.86 223.802 Q2185.86 219.427 2188.78 217.205 Q2191.72 214.983 2197.53 214.983 L2203.5 214.983 L2203.5 214.566 Q2203.5 211.627 2201.55 210.029 Q2199.63 208.409 2196.14 208.409 Q2193.92 208.409 2191.81 208.941 Q2189.7 209.474 2187.76 210.539 L2187.76 206.603 Q2190.1 205.701 2192.29 205.261 Q2194.49 204.798 2196.58 204.798 Q2202.2 204.798 2204.98 207.714 Q2207.76 210.631 2207.76 216.557 Z" fill="#000000" fill-rule="evenodd" fill-opacity="1" /><path clip-path="url(#clip940)" d="M 0 0 M2233.78 215.701 L2233.78 231.349 L2229.52 231.349 L2229.52 215.839 Q2229.52 212.159 2228.08 210.33 Q2226.65 208.502 2223.78 208.502 Q2220.33 208.502 2218.34 210.701 Q2216.35 212.9 2216.35 216.696 L2216.35 231.349 L2212.06 231.349 L2212.06 205.423 L2216.35 205.423 L2216.35 209.451 Q2217.87 207.113 2219.93 205.955 Q2222.02 204.798 2224.73 204.798 Q2229.19 204.798 2231.48 207.576 Q2233.78 210.33 2233.78 215.701 Z" fill="#000000" fill-rule="evenodd" fill-opacity="1" /><polyline clip-path="url(#clip940)" style="stroke:#3da44d; stroke-width:4; stroke-opacity:1; fill:none" points="
  1709.45,274.549 1852.23,274.549 
  "/>
<path clip-path="url(#clip940)" d="M 0 0 M1894.45 266.667 L1894.45 270.694 Q1892.64 269.769 1890.7 269.306 Q1888.75 268.843 1886.67 268.843 Q1883.5 268.843 1881.9 269.815 Q1880.33 270.787 1880.33 272.731 Q1880.33 274.213 1881.46 275.069 Q1882.6 275.903 1886.02 276.667 L1887.48 276.991 Q1892.02 277.963 1893.92 279.745 Q1895.84 281.505 1895.84 284.676 Q1895.84 288.287 1892.97 290.393 Q1890.12 292.5 1885.12 292.5 Q1883.04 292.5 1880.77 292.083 Q1878.52 291.69 1876.02 290.88 L1876.02 286.481 Q1878.38 287.708 1880.68 288.333 Q1882.97 288.935 1885.21 288.935 Q1888.22 288.935 1889.84 287.917 Q1891.46 286.875 1891.46 285 Q1891.46 283.264 1890.28 282.338 Q1889.12 281.412 1885.17 280.556 L1883.69 280.208 Q1879.73 279.375 1877.97 277.662 Q1876.21 275.926 1876.21 272.917 Q1876.21 269.259 1878.8 267.269 Q1881.39 265.278 1886.16 265.278 Q1888.52 265.278 1890.61 265.625 Q1892.69 265.972 1894.45 266.667 Z" fill="#000000" fill-rule="evenodd" fill-opacity="1" /><path clip-path="url(#clip940)" d="M 0 0 M1904.52 258.542 L1904.52 265.903 L1913.29 265.903 L1913.29 269.213 L1904.52 269.213 L1904.52 283.287 Q1904.52 286.458 1905.37 287.361 Q1906.25 288.264 1908.92 288.264 L1913.29 288.264 L1913.29 291.829 L1908.92 291.829 Q1903.99 291.829 1902.11 290 Q1900.24 288.148 1900.24 283.287 L1900.24 269.213 L1897.11 269.213 L1897.11 265.903 L1900.24 265.903 L1900.24 258.542 L1904.52 258.542 Z" fill="#000000" fill-rule="evenodd" fill-opacity="1" /><path clip-path="url(#clip940)" d="M 0 0 M1929.54 278.796 Q1924.38 278.796 1922.39 279.977 Q1920.4 281.157 1920.4 284.005 Q1920.4 286.273 1921.88 287.616 Q1923.38 288.935 1925.95 288.935 Q1929.5 288.935 1931.62 286.435 Q1933.78 283.912 1933.78 279.745 L1933.78 278.796 L1929.54 278.796 M1938.04 277.037 L1938.04 291.829 L1933.78 291.829 L1933.78 287.893 Q1932.32 290.255 1930.14 291.389 Q1927.97 292.5 1924.82 292.5 Q1920.84 292.5 1918.48 290.278 Q1916.14 288.032 1916.14 284.282 Q1916.14 279.907 1919.06 277.685 Q1922 275.463 1927.81 275.463 L1933.78 275.463 L1933.78 275.046 Q1933.78 272.107 1931.83 270.509 Q1929.91 268.889 1926.42 268.889 Q1924.19 268.889 1922.09 269.421 Q1919.98 269.954 1918.04 271.019 L1918.04 267.083 Q1920.37 266.181 1922.57 265.741 Q1924.77 265.278 1926.86 265.278 Q1932.48 265.278 1935.26 268.194 Q1938.04 271.111 1938.04 277.037 Z" fill="#000000" fill-rule="evenodd" fill-opacity="1" /><path clip-path="url(#clip940)" d="M 0 0 M1946.72 258.542 L1946.72 265.903 L1955.49 265.903 L1955.49 269.213 L1946.72 269.213 L1946.72 283.287 Q1946.72 286.458 1947.57 287.361 Q1948.45 288.264 1951.12 288.264 L1955.49 288.264 L1955.49 291.829 L1951.12 291.829 Q1946.18 291.829 1944.31 290 Q1942.43 288.148 1942.43 283.287 L1942.43 269.213 L1939.31 269.213 L1939.31 265.903 L1942.43 265.903 L1942.43 258.542 L1946.72 258.542 Z" fill="#000000" fill-rule="evenodd" fill-opacity="1" /><path clip-path="url(#clip940)" d="M 0 0 M1959.96 265.903 L1964.22 265.903 L1964.22 291.829 L1959.96 291.829 L1959.96 265.903 M1959.96 255.81 L1964.22 255.81 L1964.22 261.204 L1959.96 261.204 L1959.96 255.81 Z" fill="#000000" fill-rule="evenodd" fill-opacity="1" /><path clip-path="url(#clip940)" d="M 0 0 M1985.21 266.667 L1985.21 270.694 Q1983.41 269.769 1981.46 269.306 Q1979.52 268.843 1977.43 268.843 Q1974.26 268.843 1972.67 269.815 Q1971.09 270.787 1971.09 272.731 Q1971.09 274.213 1972.23 275.069 Q1973.36 275.903 1976.79 276.667 L1978.24 276.991 Q1982.78 277.963 1984.68 279.745 Q1986.6 281.505 1986.6 284.676 Q1986.6 288.287 1983.73 290.393 Q1980.88 292.5 1975.88 292.5 Q1973.8 292.5 1971.53 292.083 Q1969.29 291.69 1966.79 290.88 L1966.79 286.481 Q1969.15 287.708 1971.44 288.333 Q1973.73 288.935 1975.98 288.935 Q1978.99 288.935 1980.61 287.917 Q1982.23 286.875 1982.23 285 Q1982.23 283.264 1981.05 282.338 Q1979.89 281.412 1975.93 280.556 L1974.45 280.208 Q1970.49 279.375 1968.73 277.662 Q1966.97 275.926 1966.97 272.917 Q1966.97 269.259 1969.56 267.269 Q1972.16 265.278 1976.93 265.278 Q1979.29 265.278 1981.37 265.625 Q1983.45 265.972 1985.21 266.667 Z" fill="#000000" fill-rule="evenodd" fill-opacity="1" /><path clip-path="url(#clip940)" d="M 0 0 M1995.28 258.542 L1995.28 265.903 L2004.05 265.903 L2004.05 269.213 L1995.28 269.213 L1995.28 283.287 Q1995.28 286.458 1996.14 287.361 Q1997.02 288.264 1999.68 288.264 L2004.05 288.264 L2004.05 291.829 L1999.68 291.829 Q1994.75 291.829 1992.87 290 Q1991 288.148 1991 283.287 L1991 269.213 L1987.87 269.213 L1987.87 265.903 L1991 265.903 L1991 258.542 L1995.28 258.542 Z" fill="#000000" fill-rule="evenodd" fill-opacity="1" /><path clip-path="url(#clip940)" d="M 0 0 M2008.52 265.903 L2012.78 265.903 L2012.78 291.829 L2008.52 291.829 L2008.52 265.903 M2008.52 255.81 L2012.78 255.81 L2012.78 261.204 L2008.52 261.204 L2008.52 255.81 Z" fill="#000000" fill-rule="evenodd" fill-opacity="1" /><path clip-path="url(#clip940)" d="M 0 0 M2035.91 266.898 L2035.91 270.88 Q2034.1 269.884 2032.27 269.398 Q2030.47 268.889 2028.61 268.889 Q2024.47 268.889 2022.18 271.528 Q2019.89 274.144 2019.89 278.889 Q2019.89 283.634 2022.18 286.273 Q2024.47 288.889 2028.61 288.889 Q2030.47 288.889 2032.27 288.403 Q2034.1 287.893 2035.91 286.898 L2035.91 290.833 Q2034.12 291.667 2032.2 292.083 Q2030.3 292.5 2028.15 292.5 Q2022.3 292.5 2018.85 288.819 Q2015.4 285.139 2015.4 278.889 Q2015.4 272.546 2018.87 268.912 Q2022.37 265.278 2028.43 265.278 Q2030.4 265.278 2032.27 265.695 Q2034.15 266.088 2035.91 266.898 Z" fill="#000000" fill-rule="evenodd" fill-opacity="1" /><path clip-path="url(#clip940)" d="M 0 0 M2052.16 278.796 Q2046.99 278.796 2045 279.977 Q2043.01 281.157 2043.01 284.005 Q2043.01 286.273 2044.49 287.616 Q2046 288.935 2048.57 288.935 Q2052.11 288.935 2054.24 286.435 Q2056.39 283.912 2056.39 279.745 L2056.39 278.796 L2052.16 278.796 M2060.65 277.037 L2060.65 291.829 L2056.39 291.829 L2056.39 287.893 Q2054.93 290.255 2052.76 291.389 Q2050.58 292.5 2047.43 292.5 Q2043.45 292.5 2041.09 290.278 Q2038.75 288.032 2038.75 284.282 Q2038.75 279.907 2041.67 277.685 Q2044.61 275.463 2050.42 275.463 L2056.39 275.463 L2056.39 275.046 Q2056.39 272.107 2054.45 270.509 Q2052.53 268.889 2049.03 268.889 Q2046.81 268.889 2044.7 269.421 Q2042.6 269.954 2040.65 271.019 L2040.65 267.083 Q2042.99 266.181 2045.19 265.741 Q2047.39 265.278 2049.47 265.278 Q2055.1 265.278 2057.87 268.194 Q2060.65 271.111 2060.65 277.037 Z" fill="#000000" fill-rule="evenodd" fill-opacity="1" /><path clip-path="url(#clip940)" d="M 0 0 M2065.12 255.81 L2069.38 255.81 L2069.38 291.829 L2065.12 291.829 L2065.12 255.81 Z" fill="#000000" fill-rule="evenodd" fill-opacity="1" /><path clip-path="url(#clip940)" d="M 0 0 M2109.1 270.88 Q2110.7 268.009 2112.92 266.644 Q2115.14 265.278 2118.15 265.278 Q2122.2 265.278 2124.4 268.125 Q2126.6 270.949 2126.6 276.181 L2126.6 291.829 L2122.32 291.829 L2122.32 276.319 Q2122.32 272.593 2121 270.787 Q2119.68 268.982 2116.97 268.982 Q2113.66 268.982 2111.74 271.181 Q2109.82 273.38 2109.82 277.176 L2109.82 291.829 L2105.54 291.829 L2105.54 276.319 Q2105.54 272.569 2104.22 270.787 Q2102.9 268.982 2100.14 268.982 Q2096.88 268.982 2094.96 271.204 Q2093.04 273.403 2093.04 277.176 L2093.04 291.829 L2088.75 291.829 L2088.75 265.903 L2093.04 265.903 L2093.04 269.931 Q2094.49 267.546 2096.53 266.412 Q2098.57 265.278 2101.37 265.278 Q2104.19 265.278 2106.16 266.713 Q2108.15 268.148 2109.1 270.88 Z" fill="#000000" fill-rule="evenodd" fill-opacity="1" /><path clip-path="url(#clip940)" d="M 0 0 M2153.24 277.801 L2153.24 279.884 L2133.66 279.884 Q2133.94 284.282 2136.3 286.597 Q2138.68 288.889 2142.92 288.889 Q2145.37 288.889 2147.67 288.287 Q2149.98 287.685 2152.25 286.481 L2152.25 290.509 Q2149.96 291.481 2147.55 291.991 Q2145.14 292.5 2142.67 292.5 Q2136.46 292.5 2132.83 288.889 Q2129.22 285.278 2129.22 279.12 Q2129.22 272.755 2132.64 269.028 Q2136.09 265.278 2141.92 265.278 Q2147.16 265.278 2150.19 268.657 Q2153.24 272.014 2153.24 277.801 M2148.98 276.551 Q2148.94 273.056 2147.02 270.972 Q2145.12 268.889 2141.97 268.889 Q2138.41 268.889 2136.25 270.903 Q2134.12 272.917 2133.8 276.574 L2148.98 276.551 Z" fill="#000000" fill-rule="evenodd" fill-opacity="1" /><path clip-path="url(#clip940)" d="M 0 0 M2169.49 278.796 Q2164.33 278.796 2162.34 279.977 Q2160.35 281.157 2160.35 284.005 Q2160.35 286.273 2161.83 287.616 Q2163.34 288.935 2165.91 288.935 Q2169.45 288.935 2171.58 286.435 Q2173.73 283.912 2173.73 279.745 L2173.73 278.796 L2169.49 278.796 M2177.99 277.037 L2177.99 291.829 L2173.73 291.829 L2173.73 287.893 Q2172.27 290.255 2170.1 291.389 Q2167.92 292.5 2164.77 292.5 Q2160.79 292.5 2158.43 290.278 Q2156.09 288.032 2156.09 284.282 Q2156.09 279.907 2159.01 277.685 Q2161.95 275.463 2167.76 275.463 L2173.73 275.463 L2173.73 275.046 Q2173.73 272.107 2171.79 270.509 Q2169.86 268.889 2166.37 268.889 Q2164.15 268.889 2162.04 269.421 Q2159.93 269.954 2157.99 271.019 L2157.99 267.083 Q2160.33 266.181 2162.53 265.741 Q2164.73 265.278 2166.81 265.278 Q2172.43 265.278 2175.21 268.194 Q2177.99 271.111 2177.99 277.037 Z" fill="#000000" fill-rule="evenodd" fill-opacity="1" /><path clip-path="url(#clip940)" d="M 0 0 M2204.01 276.181 L2204.01 291.829 L2199.75 291.829 L2199.75 276.319 Q2199.75 272.639 2198.31 270.81 Q2196.88 268.982 2194.01 268.982 Q2190.56 268.982 2188.57 271.181 Q2186.58 273.38 2186.58 277.176 L2186.58 291.829 L2182.29 291.829 L2182.29 265.903 L2186.58 265.903 L2186.58 269.931 Q2188.1 267.593 2190.17 266.435 Q2192.25 265.278 2194.96 265.278 Q2199.42 265.278 2201.72 268.056 Q2204.01 270.81 2204.01 276.181 Z" fill="#000000" fill-rule="evenodd" fill-opacity="1" /></svg>
