<?xml version="1.0" encoding="utf-8"?>
<svg xmlns="http://www.w3.org/2000/svg" xmlns:xlink="http://www.w3.org/1999/xlink" width="600" height="400" viewBox="0 0 2400 1600">
<defs>
  <clipPath id="clip000">
    <rect x="0" y="0" width="2400" height="1600"/>
  </clipPath>
</defs>
<path clip-path="url(#clip000)" d="
M0 1600 L2400 1600 L2400 0 L0 0  Z
  " fill="#ffffff" fill-rule="evenodd" fill-opacity="1"/>
<defs>
  <clipPath id="clip001">
    <rect x="480" y="0" width="1681" height="1600"/>
  </clipPath>
</defs>
<path clip-path="url(#clip000)" d="
M238.13 1423.18 L2352.76 1423.18 L2352.76 47.2441 L238.13 47.2441  Z
  " fill="#ffffff" fill-rule="evenodd" fill-opacity="1"/>
<defs>
  <clipPath id="clip002">
    <rect x="238" y="47" width="2116" height="1377"/>
  </clipPath>
</defs>
<polyline clip-path="url(#clip002)" style="stroke:#000000; stroke-width:2; stroke-opacity:0.1; fill:none" points="
  354.438,1423.18 354.438,47.2441 
  "/>
<polyline clip-path="url(#clip002)" style="stroke:#000000; stroke-width:2; stroke-opacity:0.1; fill:none" points="
  877.219,1423.18 877.219,47.2441 
  "/>
<polyline clip-path="url(#clip002)" style="stroke:#000000; stroke-width:2; stroke-opacity:0.1; fill:none" points="
  1400,1423.18 1400,47.2441 
  "/>
<polyline clip-path="url(#clip002)" style="stroke:#000000; stroke-width:2; stroke-opacity:0.1; fill:none" points="
  1922.78,1423.18 1922.78,47.2441 
  "/>
<polyline clip-path="url(#clip000)" style="stroke:#000000; stroke-width:4; stroke-opacity:1; fill:none" points="
  238.13,1423.18 2352.76,1423.18 
  "/>
<polyline clip-path="url(#clip000)" style="stroke:#000000; stroke-width:4; stroke-opacity:1; fill:none" points="
  354.438,1423.18 354.438,1406.67 
  "/>
<polyline clip-path="url(#clip000)" style="stroke:#000000; stroke-width:4; stroke-opacity:1; fill:none" points="
  877.219,1423.18 877.219,1406.67 
  "/>
<polyline clip-path="url(#clip000)" style="stroke:#000000; stroke-width:4; stroke-opacity:1; fill:none" points="
  1400,1423.18 1400,1406.67 
  "/>
<polyline clip-path="url(#clip000)" style="stroke:#000000; stroke-width:4; stroke-opacity:1; fill:none" points="
  1922.78,1423.18 1922.78,1406.67 
  "/>
<path clip-path="url(#clip000)" d="M 0 0 M354.438 1452.37 Q350.827 1452.37 348.998 1455.94 Q347.193 1459.48 347.193 1466.61 Q347.193 1473.71 348.998 1477.28 Q350.827 1480.82 354.438 1480.82 Q358.072 1480.82 359.878 1477.28 Q361.707 1473.71 361.707 1466.61 Q361.707 1459.48 359.878 1455.94 Q358.072 1452.37 354.438 1452.37 M354.438 1448.67 Q360.248 1448.67 363.304 1453.27 Q366.383 1457.86 366.383 1466.61 Q366.383 1475.33 363.304 1479.94 Q360.248 1484.52 354.438 1484.52 Q348.628 1484.52 345.549 1479.94 Q342.494 1475.33 342.494 1466.61 Q342.494 1457.86 345.549 1453.27 Q348.628 1448.67 354.438 1448.67 Z" fill="#000000" fill-rule="evenodd" fill-opacity="1" /><path clip-path="url(#clip000)" d="M 0 0 M867.496 1449.29 L885.853 1449.29 L885.853 1453.23 L871.779 1453.23 L871.779 1461.7 Q872.797 1461.35 873.816 1461.19 Q874.834 1461 875.853 1461 Q881.64 1461 885.02 1464.18 Q888.399 1467.35 888.399 1472.76 Q888.399 1478.34 884.927 1481.44 Q881.455 1484.52 875.135 1484.52 Q872.959 1484.52 870.691 1484.15 Q868.446 1483.78 866.038 1483.04 L866.038 1478.34 Q868.121 1479.48 870.344 1480.03 Q872.566 1480.59 875.043 1480.59 Q879.047 1480.59 881.385 1478.48 Q883.723 1476.38 883.723 1472.76 Q883.723 1469.15 881.385 1467.05 Q879.047 1464.94 875.043 1464.94 Q873.168 1464.94 871.293 1465.36 Q869.441 1465.77 867.496 1466.65 L867.496 1449.29 Z" fill="#000000" fill-rule="evenodd" fill-opacity="1" /><path clip-path="url(#clip000)" d="M 0 0 M1376.87 1479.92 L1384.51 1479.92 L1384.51 1453.55 L1376.2 1455.22 L1376.2 1450.96 L1384.47 1449.29 L1389.14 1449.29 L1389.14 1479.92 L1396.78 1479.92 L1396.78 1483.85 L1376.87 1483.85 L1376.87 1479.92 Z" fill="#000000" fill-rule="evenodd" fill-opacity="1" /><path clip-path="url(#clip000)" d="M 0 0 M1411.85 1452.37 Q1408.24 1452.37 1406.41 1455.94 Q1404.61 1459.48 1404.61 1466.61 Q1404.61 1473.71 1406.41 1477.28 Q1408.24 1480.82 1411.85 1480.82 Q1415.49 1480.82 1417.29 1477.28 Q1419.12 1473.71 1419.12 1466.61 Q1419.12 1459.48 1417.29 1455.94 Q1415.49 1452.37 1411.85 1452.37 M1411.85 1448.67 Q1417.66 1448.67 1420.72 1453.27 Q1423.8 1457.86 1423.8 1466.61 Q1423.8 1475.33 1420.72 1479.94 Q1417.66 1484.52 1411.85 1484.52 Q1406.04 1484.52 1402.96 1479.94 Q1399.91 1475.33 1399.91 1466.61 Q1399.91 1457.86 1402.96 1453.27 Q1406.04 1448.67 1411.85 1448.67 Z" fill="#000000" fill-rule="evenodd" fill-opacity="1" /><path clip-path="url(#clip000)" d="M 0 0 M1900.15 1479.92 L1907.79 1479.92 L1907.79 1453.55 L1899.48 1455.22 L1899.48 1450.96 L1907.74 1449.29 L1912.42 1449.29 L1912.42 1479.92 L1920.06 1479.92 L1920.06 1483.85 L1900.15 1483.85 L1900.15 1479.92 Z" fill="#000000" fill-rule="evenodd" fill-opacity="1" /><path clip-path="url(#clip000)" d="M 0 0 M1925.18 1449.29 L1943.53 1449.29 L1943.53 1453.23 L1929.46 1453.23 L1929.46 1461.7 Q1930.48 1461.35 1931.49 1461.19 Q1932.51 1461 1933.53 1461 Q1939.32 1461 1942.7 1464.18 Q1946.08 1467.35 1946.08 1472.76 Q1946.08 1478.34 1942.61 1481.44 Q1939.13 1484.52 1932.81 1484.52 Q1930.64 1484.52 1928.37 1484.15 Q1926.12 1483.78 1923.72 1483.04 L1923.72 1478.34 Q1925.8 1479.48 1928.02 1480.03 Q1930.24 1480.59 1932.72 1480.59 Q1936.73 1480.59 1939.06 1478.48 Q1941.4 1476.38 1941.4 1472.76 Q1941.4 1469.15 1939.06 1467.05 Q1936.73 1464.94 1932.72 1464.94 Q1930.85 1464.94 1928.97 1465.36 Q1927.12 1465.77 1925.18 1466.65 L1925.18 1449.29 Z" fill="#000000" fill-rule="evenodd" fill-opacity="1" /><path clip-path="url(#clip000)" d="M 0 0 M1285.39 1562.7 L1285.39 1581.6 L1279.5 1581.6 L1279.5 1532.4 L1285.39 1532.4 L1285.39 1537.81 Q1287.23 1534.62 1290.03 1533.1 Q1292.86 1531.54 1296.78 1531.54 Q1303.27 1531.54 1307.32 1536.69 Q1311.39 1541.85 1311.39 1550.25 Q1311.39 1558.65 1307.32 1563.81 Q1303.27 1568.97 1296.78 1568.97 Q1292.86 1568.97 1290.03 1567.44 Q1287.23 1565.88 1285.39 1562.7 M1305.31 1550.25 Q1305.31 1543.79 1302.64 1540.13 Q1299.99 1536.44 1295.35 1536.44 Q1290.7 1536.44 1288.03 1540.13 Q1285.39 1543.79 1285.39 1550.25 Q1285.39 1556.71 1288.03 1560.4 Q1290.7 1564.07 1295.35 1564.07 Q1299.99 1564.07 1302.64 1560.4 Q1305.31 1556.71 1305.31 1550.25 Z" fill="#000000" fill-rule="evenodd" fill-opacity="1" /><polyline clip-path="url(#clip002)" style="stroke:#000000; stroke-width:2; stroke-opacity:0.1; fill:none" points="
  238.13,1384.24 2352.76,1384.24 
  "/>
<polyline clip-path="url(#clip002)" style="stroke:#000000; stroke-width:2; stroke-opacity:0.1; fill:none" points="
  238.13,1151.13 2352.76,1151.13 
  "/>
<polyline clip-path="url(#clip002)" style="stroke:#000000; stroke-width:2; stroke-opacity:0.1; fill:none" points="
  238.13,918.019 2352.76,918.019 
  "/>
<polyline clip-path="url(#clip002)" style="stroke:#000000; stroke-width:2; stroke-opacity:0.1; fill:none" points="
  238.13,684.91 2352.76,684.91 
  "/>
<polyline clip-path="url(#clip002)" style="stroke:#000000; stroke-width:2; stroke-opacity:0.1; fill:none" points="
  238.13,451.8 2352.76,451.8 
  "/>
<polyline clip-path="url(#clip002)" style="stroke:#000000; stroke-width:2; stroke-opacity:0.1; fill:none" points="
  238.13,218.691 2352.76,218.691 
  "/>
<polyline clip-path="url(#clip000)" style="stroke:#000000; stroke-width:4; stroke-opacity:1; fill:none" points="
  238.13,1423.18 238.13,47.2441 
  "/>
<polyline clip-path="url(#clip000)" style="stroke:#000000; stroke-width:4; stroke-opacity:1; fill:none" points="
  238.13,1384.24 263.506,1384.24 
  "/>
<polyline clip-path="url(#clip000)" style="stroke:#000000; stroke-width:4; stroke-opacity:1; fill:none" points="
  238.13,1151.13 263.506,1151.13 
  "/>
<polyline clip-path="url(#clip000)" style="stroke:#000000; stroke-width:4; stroke-opacity:1; fill:none" points="
  238.13,918.019 263.506,918.019 
  "/>
<polyline clip-path="url(#clip000)" style="stroke:#000000; stroke-width:4; stroke-opacity:1; fill:none" points="
  238.13,684.91 263.506,684.91 
  "/>
<polyline clip-path="url(#clip000)" style="stroke:#000000; stroke-width:4; stroke-opacity:1; fill:none" points="
  238.13,451.8 263.506,451.8 
  "/>
<polyline clip-path="url(#clip000)" style="stroke:#000000; stroke-width:4; stroke-opacity:1; fill:none" points="
  238.13,218.691 263.506,218.691 
  "/>
<path clip-path="url(#clip000)" d="M 0 0 M126.205 1370.04 Q122.593 1370.04 120.765 1373.6 Q118.959 1377.14 118.959 1384.27 Q118.959 1391.38 120.765 1394.94 Q122.593 1398.49 126.205 1398.49 Q129.839 1398.49 131.644 1394.94 Q133.473 1391.38 133.473 1384.27 Q133.473 1377.14 131.644 1373.6 Q129.839 1370.04 126.205 1370.04 M126.205 1366.33 Q132.015 1366.33 135.07 1370.94 Q138.149 1375.52 138.149 1384.27 Q138.149 1393 135.07 1397.61 Q132.015 1402.19 126.205 1402.19 Q120.394 1402.19 117.316 1397.61 Q114.26 1393 114.26 1384.27 Q114.26 1375.52 117.316 1370.94 Q120.394 1366.33 126.205 1366.33 Z" fill="#000000" fill-rule="evenodd" fill-opacity="1" /><path clip-path="url(#clip000)" d="M 0 0 M143.218 1395.64 L148.103 1395.64 L148.103 1401.52 L143.218 1401.52 L143.218 1395.64 Z" fill="#000000" fill-rule="evenodd" fill-opacity="1" /><path clip-path="url(#clip000)" d="M 0 0 M163.172 1370.04 Q159.561 1370.04 157.732 1373.6 Q155.927 1377.14 155.927 1384.27 Q155.927 1391.38 157.732 1394.94 Q159.561 1398.49 163.172 1398.49 Q166.806 1398.49 168.612 1394.94 Q170.44 1391.38 170.44 1384.27 Q170.44 1377.14 168.612 1373.6 Q166.806 1370.04 163.172 1370.04 M163.172 1366.33 Q168.982 1366.33 172.038 1370.94 Q175.116 1375.52 175.116 1384.27 Q175.116 1393 172.038 1397.61 Q168.982 1402.19 163.172 1402.19 Q157.362 1402.19 154.283 1397.61 Q151.228 1393 151.228 1384.27 Q151.228 1375.52 154.283 1370.94 Q157.362 1366.33 163.172 1366.33 Z" fill="#000000" fill-rule="evenodd" fill-opacity="1" /><path clip-path="url(#clip000)" d="M 0 0 M190.186 1370.04 Q186.575 1370.04 184.746 1373.6 Q182.94 1377.14 182.94 1384.27 Q182.94 1391.38 184.746 1394.94 Q186.575 1398.49 190.186 1398.49 Q193.82 1398.49 195.625 1394.94 Q197.454 1391.38 197.454 1384.27 Q197.454 1377.14 195.625 1373.6 Q193.82 1370.04 190.186 1370.04 M190.186 1366.33 Q195.996 1366.33 199.051 1370.94 Q202.13 1375.52 202.13 1384.27 Q202.13 1393 199.051 1397.61 Q195.996 1402.19 190.186 1402.19 Q184.376 1402.19 181.297 1397.61 Q178.241 1393 178.241 1384.27 Q178.241 1375.52 181.297 1370.94 Q184.376 1366.33 190.186 1366.33 Z" fill="#000000" fill-rule="evenodd" fill-opacity="1" /><path clip-path="url(#clip000)" d="M 0 0 M127.2 1136.93 Q123.589 1136.93 121.76 1140.49 Q119.955 1144.03 119.955 1151.16 Q119.955 1158.27 121.76 1161.83 Q123.589 1165.38 127.2 1165.38 Q130.834 1165.38 132.64 1161.83 Q134.468 1158.27 134.468 1151.16 Q134.468 1144.03 132.64 1140.49 Q130.834 1136.93 127.2 1136.93 M127.2 1133.22 Q133.01 1133.22 136.066 1137.83 Q139.144 1142.41 139.144 1151.16 Q139.144 1159.89 136.066 1164.5 Q133.01 1169.08 127.2 1169.08 Q121.39 1169.08 118.311 1164.5 Q115.256 1159.89 115.256 1151.16 Q115.256 1142.41 118.311 1137.83 Q121.39 1133.22 127.2 1133.22 Z" fill="#000000" fill-rule="evenodd" fill-opacity="1" /><path clip-path="url(#clip000)" d="M 0 0 M144.214 1162.53 L149.098 1162.53 L149.098 1168.41 L144.214 1168.41 L144.214 1162.53 Z" fill="#000000" fill-rule="evenodd" fill-opacity="1" /><path clip-path="url(#clip000)" d="M 0 0 M164.167 1136.93 Q160.556 1136.93 158.728 1140.49 Q156.922 1144.03 156.922 1151.16 Q156.922 1158.27 158.728 1161.83 Q160.556 1165.38 164.167 1165.38 Q167.802 1165.38 169.607 1161.83 Q171.436 1158.27 171.436 1151.16 Q171.436 1144.03 169.607 1140.49 Q167.802 1136.93 164.167 1136.93 M164.167 1133.22 Q169.977 1133.22 173.033 1137.83 Q176.112 1142.41 176.112 1151.16 Q176.112 1159.89 173.033 1164.5 Q169.977 1169.08 164.167 1169.08 Q158.357 1169.08 155.278 1164.5 Q152.223 1159.89 152.223 1151.16 Q152.223 1142.41 155.278 1137.83 Q158.357 1133.22 164.167 1133.22 Z" fill="#000000" fill-rule="evenodd" fill-opacity="1" /><path clip-path="url(#clip000)" d="M 0 0 M181.227 1133.85 L199.584 1133.85 L199.584 1137.78 L185.51 1137.78 L185.51 1146.26 Q186.528 1145.91 187.547 1145.75 Q188.565 1145.56 189.584 1145.56 Q195.371 1145.56 198.75 1148.73 Q202.13 1151.9 202.13 1157.32 Q202.13 1162.9 198.658 1166 Q195.186 1169.08 188.866 1169.08 Q186.69 1169.08 184.422 1168.71 Q182.176 1168.34 179.769 1167.6 L179.769 1162.9 Q181.852 1164.03 184.075 1164.59 Q186.297 1165.14 188.774 1165.14 Q192.778 1165.14 195.116 1163.04 Q197.454 1160.93 197.454 1157.32 Q197.454 1153.71 195.116 1151.6 Q192.778 1149.5 188.774 1149.5 Q186.899 1149.5 185.024 1149.91 Q183.172 1150.33 181.227 1151.21 L181.227 1133.85 Z" fill="#000000" fill-rule="evenodd" fill-opacity="1" /><path clip-path="url(#clip000)" d="M 0 0 M127.431 903.818 Q123.82 903.818 121.992 907.383 Q120.186 910.925 120.186 918.054 Q120.186 925.161 121.992 928.725 Q123.82 932.267 127.431 932.267 Q131.066 932.267 132.871 928.725 Q134.7 925.161 134.7 918.054 Q134.7 910.925 132.871 907.383 Q131.066 903.818 127.431 903.818 M127.431 900.114 Q133.242 900.114 136.297 904.721 Q139.376 909.304 139.376 918.054 Q139.376 926.781 136.297 931.387 Q133.242 935.971 127.431 935.971 Q121.621 935.971 118.543 931.387 Q115.487 926.781 115.487 918.054 Q115.487 909.304 118.543 904.721 Q121.621 900.114 127.431 900.114 Z" fill="#000000" fill-rule="evenodd" fill-opacity="1" /><path clip-path="url(#clip000)" d="M 0 0 M144.445 929.42 L149.329 929.42 L149.329 935.299 L144.445 935.299 L144.445 929.42 Z" fill="#000000" fill-rule="evenodd" fill-opacity="1" /><path clip-path="url(#clip000)" d="M 0 0 M155.209 931.364 L162.848 931.364 L162.848 904.999 L154.538 906.665 L154.538 902.406 L162.802 900.739 L167.477 900.739 L167.477 931.364 L175.116 931.364 L175.116 935.299 L155.209 935.299 L155.209 931.364 Z" fill="#000000" fill-rule="evenodd" fill-opacity="1" /><path clip-path="url(#clip000)" d="M 0 0 M190.186 903.818 Q186.575 903.818 184.746 907.383 Q182.94 910.925 182.94 918.054 Q182.94 925.161 184.746 928.725 Q186.575 932.267 190.186 932.267 Q193.82 932.267 195.625 928.725 Q197.454 925.161 197.454 918.054 Q197.454 910.925 195.625 907.383 Q193.82 903.818 190.186 903.818 M190.186 900.114 Q195.996 900.114 199.051 904.721 Q202.13 909.304 202.13 918.054 Q202.13 926.781 199.051 931.387 Q195.996 935.971 190.186 935.971 Q184.376 935.971 181.297 931.387 Q178.241 926.781 178.241 918.054 Q178.241 909.304 181.297 904.721 Q184.376 900.114 190.186 900.114 Z" fill="#000000" fill-rule="evenodd" fill-opacity="1" /><path clip-path="url(#clip000)" d="M 0 0 M128.427 670.709 Q124.816 670.709 122.987 674.273 Q121.181 677.815 121.181 684.945 Q121.181 692.051 122.987 695.616 Q124.816 699.158 128.427 699.158 Q132.061 699.158 133.867 695.616 Q135.695 692.051 135.695 684.945 Q135.695 677.815 133.867 674.273 Q132.061 670.709 128.427 670.709 M128.427 667.005 Q134.237 667.005 137.292 671.611 Q140.371 676.195 140.371 684.945 Q140.371 693.671 137.292 698.278 Q134.237 702.861 128.427 702.861 Q122.617 702.861 119.538 698.278 Q116.482 693.671 116.482 684.945 Q116.482 676.195 119.538 671.611 Q122.617 667.005 128.427 667.005 Z" fill="#000000" fill-rule="evenodd" fill-opacity="1" /><path clip-path="url(#clip000)" d="M 0 0 M145.441 696.31 L150.325 696.31 L150.325 702.19 L145.441 702.19 L145.441 696.31 Z" fill="#000000" fill-rule="evenodd" fill-opacity="1" /><path clip-path="url(#clip000)" d="M 0 0 M156.204 698.255 L163.843 698.255 L163.843 671.889 L155.533 673.556 L155.533 669.297 L163.797 667.63 L168.473 667.63 L168.473 698.255 L176.112 698.255 L176.112 702.19 L156.204 702.19 L156.204 698.255 Z" fill="#000000" fill-rule="evenodd" fill-opacity="1" /><path clip-path="url(#clip000)" d="M 0 0 M181.227 667.63 L199.584 667.63 L199.584 671.565 L185.51 671.565 L185.51 680.037 Q186.528 679.69 187.547 679.528 Q188.565 679.343 189.584 679.343 Q195.371 679.343 198.75 682.514 Q202.13 685.685 202.13 691.102 Q202.13 696.681 198.658 699.783 Q195.186 702.861 188.866 702.861 Q186.69 702.861 184.422 702.491 Q182.176 702.12 179.769 701.38 L179.769 696.681 Q181.852 697.815 184.075 698.371 Q186.297 698.926 188.774 698.926 Q192.778 698.926 195.116 696.82 Q197.454 694.713 197.454 691.102 Q197.454 687.491 195.116 685.384 Q192.778 683.278 188.774 683.278 Q186.899 683.278 185.024 683.695 Q183.172 684.111 181.227 684.991 L181.227 667.63 Z" fill="#000000" fill-rule="evenodd" fill-opacity="1" /><path clip-path="url(#clip000)" d="M 0 0 M127.802 437.599 Q124.191 437.599 122.362 441.164 Q120.556 444.706 120.556 451.835 Q120.556 458.942 122.362 462.506 Q124.191 466.048 127.802 466.048 Q131.436 466.048 133.242 462.506 Q135.07 458.942 135.07 451.835 Q135.07 444.706 133.242 441.164 Q131.436 437.599 127.802 437.599 M127.802 433.895 Q133.612 433.895 136.667 438.502 Q139.746 443.085 139.746 451.835 Q139.746 460.562 136.667 465.168 Q133.612 469.752 127.802 469.752 Q121.992 469.752 118.913 465.168 Q115.857 460.562 115.857 451.835 Q115.857 443.085 118.913 438.502 Q121.992 433.895 127.802 433.895 Z" fill="#000000" fill-rule="evenodd" fill-opacity="1" /><path clip-path="url(#clip000)" d="M 0 0 M144.816 463.201 L149.7 463.201 L149.7 469.08 L144.816 469.08 L144.816 463.201 Z" fill="#000000" fill-rule="evenodd" fill-opacity="1" /><path clip-path="url(#clip000)" d="M 0 0 M158.797 465.145 L175.116 465.145 L175.116 469.08 L153.172 469.08 L153.172 465.145 Q155.834 462.391 160.417 457.761 Q165.024 453.108 166.204 451.766 Q168.45 449.243 169.329 447.507 Q170.232 445.747 170.232 444.057 Q170.232 441.303 168.288 439.567 Q166.366 437.831 163.265 437.831 Q161.065 437.831 158.612 438.595 Q156.181 439.358 153.403 440.909 L153.403 436.187 Q156.228 435.053 158.681 434.474 Q161.135 433.895 163.172 433.895 Q168.542 433.895 171.737 436.581 Q174.931 439.266 174.931 443.757 Q174.931 445.886 174.121 447.807 Q173.334 449.706 171.227 452.298 Q170.649 452.969 167.547 456.187 Q164.445 459.381 158.797 465.145 Z" fill="#000000" fill-rule="evenodd" fill-opacity="1" /><path clip-path="url(#clip000)" d="M 0 0 M190.186 437.599 Q186.575 437.599 184.746 441.164 Q182.94 444.706 182.94 451.835 Q182.94 458.942 184.746 462.506 Q186.575 466.048 190.186 466.048 Q193.82 466.048 195.625 462.506 Q197.454 458.942 197.454 451.835 Q197.454 444.706 195.625 441.164 Q193.82 437.599 190.186 437.599 M190.186 433.895 Q195.996 433.895 199.051 438.502 Q202.13 443.085 202.13 451.835 Q202.13 460.562 199.051 465.168 Q195.996 469.752 190.186 469.752 Q184.376 469.752 181.297 465.168 Q178.241 460.562 178.241 451.835 Q178.241 443.085 181.297 438.502 Q184.376 433.895 190.186 433.895 Z" fill="#000000" fill-rule="evenodd" fill-opacity="1" /><path clip-path="url(#clip000)" d="M 0 0 M128.797 204.49 Q125.186 204.49 123.357 208.055 Q121.552 211.596 121.552 218.726 Q121.552 225.832 123.357 229.397 Q125.186 232.939 128.797 232.939 Q132.431 232.939 134.237 229.397 Q136.066 225.832 136.066 218.726 Q136.066 211.596 134.237 208.055 Q132.431 204.49 128.797 204.49 M128.797 200.786 Q134.607 200.786 137.663 205.393 Q140.741 209.976 140.741 218.726 Q140.741 227.453 137.663 232.059 Q134.607 236.642 128.797 236.642 Q122.987 236.642 119.908 232.059 Q116.853 227.453 116.853 218.726 Q116.853 209.976 119.908 205.393 Q122.987 200.786 128.797 200.786 Z" fill="#000000" fill-rule="evenodd" fill-opacity="1" /><path clip-path="url(#clip000)" d="M 0 0 M145.811 230.091 L150.695 230.091 L150.695 235.971 L145.811 235.971 L145.811 230.091 Z" fill="#000000" fill-rule="evenodd" fill-opacity="1" /><path clip-path="url(#clip000)" d="M 0 0 M159.792 232.036 L176.112 232.036 L176.112 235.971 L154.167 235.971 L154.167 232.036 Q156.829 229.281 161.413 224.652 Q166.019 219.999 167.2 218.656 Q169.445 216.133 170.325 214.397 Q171.227 212.638 171.227 210.948 Q171.227 208.193 169.283 206.457 Q167.362 204.721 164.26 204.721 Q162.061 204.721 159.607 205.485 Q157.177 206.249 154.399 207.8 L154.399 203.078 Q157.223 201.943 159.677 201.365 Q162.13 200.786 164.167 200.786 Q169.538 200.786 172.732 203.471 Q175.926 206.156 175.926 210.647 Q175.926 212.777 175.116 214.698 Q174.329 216.596 172.223 219.189 Q171.644 219.86 168.542 223.078 Q165.44 226.272 159.792 232.036 Z" fill="#000000" fill-rule="evenodd" fill-opacity="1" /><path clip-path="url(#clip000)" d="M 0 0 M181.227 201.411 L199.584 201.411 L199.584 205.346 L185.51 205.346 L185.51 213.818 Q186.528 213.471 187.547 213.309 Q188.565 213.124 189.584 213.124 Q195.371 213.124 198.75 216.295 Q202.13 219.467 202.13 224.883 Q202.13 230.462 198.658 233.564 Q195.186 236.642 188.866 236.642 Q186.69 236.642 184.422 236.272 Q182.176 235.902 179.769 235.161 L179.769 230.462 Q181.852 231.596 184.075 232.152 Q186.297 232.707 188.774 232.707 Q192.778 232.707 195.116 230.601 Q197.454 228.494 197.454 224.883 Q197.454 221.272 195.116 219.166 Q192.778 217.059 188.774 217.059 Q186.899 217.059 185.024 217.476 Q183.172 217.892 181.227 218.772 L181.227 201.411 Z" fill="#000000" fill-rule="evenodd" fill-opacity="1" /><path clip-path="url(#clip000)" d="M 0 0 M21.7677 783.05 L39.6235 783.05 L39.6235 774.966 Q39.6235 770.478 37.3 768.027 Q34.9765 765.576 30.6797 765.576 Q26.4147 765.576 24.0912 768.027 Q21.7677 770.478 21.7677 774.966 L21.7677 783.05 M16.4842 789.48 L16.4842 774.966 Q16.4842 766.977 20.1126 762.903 Q23.7092 758.797 30.6797 758.797 Q37.7138 758.797 41.3104 762.903 Q44.907 766.977 44.907 774.966 L44.907 783.05 L64.0042 783.05 L64.0042 789.48 L16.4842 789.48 Z" fill="#000000" fill-rule="evenodd" fill-opacity="1" /><path clip-path="url(#clip000)" d="M 0 0 M14.5426 738.586 Q21.8632 742.851 29.0246 744.92 Q36.186 746.989 43.5384 746.989 Q50.8908 746.989 58.1159 744.92 Q65.3091 742.819 72.5979 738.586 L72.5979 743.678 Q65.1182 748.453 57.8931 750.84 Q50.668 753.195 43.5384 753.195 Q36.4406 753.195 29.2474 750.84 Q22.0542 748.484 14.5426 743.678 L14.5426 738.586 Z" fill="#000000" fill-rule="evenodd" fill-opacity="1" /><path clip-path="url(#clip000)" d="M 0 0 M58.657 726.777 L77.5631 726.777 L77.5631 732.666 L28.3562 732.666 L28.3562 726.777 L33.7671 726.777 Q30.5842 724.931 29.0564 722.13 Q27.4968 719.298 27.4968 715.383 Q27.4968 708.89 32.6531 704.848 Q37.8093 700.773 46.212 700.773 Q54.6147 700.773 59.771 704.848 Q64.9272 708.89 64.9272 715.383 Q64.9272 719.298 63.3994 722.13 Q61.8398 724.931 58.657 726.777 M46.212 706.853 Q39.7508 706.853 36.0905 709.526 Q32.3984 712.168 32.3984 716.815 Q32.3984 721.462 36.0905 724.136 Q39.7508 726.777 46.212 726.777 Q52.6732 726.777 56.3653 724.136 Q60.0256 721.462 60.0256 716.815 Q60.0256 712.168 56.3653 709.526 Q52.6732 706.853 46.212 706.853 Z" fill="#000000" fill-rule="evenodd" fill-opacity="1" /><path clip-path="url(#clip000)" d="M 0 0 M14.5426 695.554 L14.5426 690.461 Q22.0542 685.687 29.2474 683.331 Q36.4406 680.944 43.5384 680.944 Q50.668 680.944 57.8931 683.331 Q65.1182 685.687 72.5979 690.461 L72.5979 695.554 Q65.3091 691.32 58.1159 689.252 Q50.8908 687.151 43.5384 687.151 Q36.186 687.151 29.0246 689.252 Q21.8632 691.32 14.5426 695.554 Z" fill="#000000" fill-rule="evenodd" fill-opacity="1" /><path clip-path="url(#clip002)" d="
M354.438 124.17 L354.438 1384.24 L458.994 1384.24 L458.994 124.17 L354.438 124.17 L354.438 124.17  Z
  " fill="#009af9" fill-rule="evenodd" fill-opacity="1"/>
<polyline clip-path="url(#clip002)" style="stroke:#000000; stroke-width:4; stroke-opacity:1; fill:none" points="
  354.438,124.17 354.438,1384.24 458.994,1384.24 458.994,124.17 354.438,124.17 
  "/>
<path clip-path="url(#clip002)" d="
M458.994 86.1857 L458.994 1384.24 L563.55 1384.24 L563.55 86.1857 L458.994 86.1857 L458.994 86.1857  Z
  " fill="#009af9" fill-rule="evenodd" fill-opacity="1"/>
<polyline clip-path="url(#clip002)" style="stroke:#000000; stroke-width:4; stroke-opacity:1; fill:none" points="
  458.994,86.1857 458.994,1384.24 563.55,1384.24 563.55,86.1857 458.994,86.1857 
  "/>
<path clip-path="url(#clip002)" d="
M563.55 431.528 L563.55 1384.24 L668.106 1384.24 L668.106 431.528 L563.55 431.528 L563.55 431.528  Z
  " fill="#009af9" fill-rule="evenodd" fill-opacity="1"/>
<polyline clip-path="url(#clip002)" style="stroke:#000000; stroke-width:4; stroke-opacity:1; fill:none" points="
  563.55,431.528 563.55,1384.24 668.106,1384.24 668.106,431.528 563.55,431.528 
  "/>
<path clip-path="url(#clip002)" d="
M668.106 805.797 L668.106 1384.24 L772.663 1384.24 L772.663 805.797 L668.106 805.797 L668.106 805.797  Z
  " fill="#009af9" fill-rule="evenodd" fill-opacity="1"/>
<polyline clip-path="url(#clip002)" style="stroke:#000000; stroke-width:4; stroke-opacity:1; fill:none" points="
  668.106,805.797 668.106,1384.24 772.663,1384.24 772.663,805.797 668.106,805.797 
  "/>
<path clip-path="url(#clip002)" d="
M772.663 1077.55 L772.663 1384.24 L877.219 1384.24 L877.219 1077.55 L772.663 1077.55 L772.663 1077.55  Z
  " fill="#009af9" fill-rule="evenodd" fill-opacity="1"/>
<polyline clip-path="url(#clip002)" style="stroke:#000000; stroke-width:4; stroke-opacity:1; fill:none" points="
  772.663,1077.55 772.663,1384.24 877.219,1384.24 877.219,1077.55 772.663,1077.55 
  "/>
<path clip-path="url(#clip002)" d="
M877.219 1234.09 L877.219 1384.24 L981.775 1384.24 L981.775 1234.09 L877.219 1234.09 L877.219 1234.09  Z
  " fill="#009af9" fill-rule="evenodd" fill-opacity="1"/>
<polyline clip-path="url(#clip002)" style="stroke:#000000; stroke-width:4; stroke-opacity:1; fill:none" points="
  877.219,1234.09 877.219,1384.24 981.775,1384.24 981.775,1234.09 877.219,1234.09 
  "/>
<path clip-path="url(#clip002)" d="
M981.775 1315.23 L981.775 1384.24 L1086.33 1384.24 L1086.33 1315.23 L981.775 1315.23 L981.775 1315.23  Z
  " fill="#009af9" fill-rule="evenodd" fill-opacity="1"/>
<polyline clip-path="url(#clip002)" style="stroke:#000000; stroke-width:4; stroke-opacity:1; fill:none" points="
  981.775,1315.23 981.775,1384.24 1086.33,1384.24 1086.33,1315.23 981.775,1315.23 
  "/>
<path clip-path="url(#clip002)" d="
M1086.33 1356.04 L1086.33 1384.24 L1190.89 1384.24 L1190.89 1356.04 L1086.33 1356.04 L1086.33 1356.04  Z
  " fill="#009af9" fill-rule="evenodd" fill-opacity="1"/>
<polyline clip-path="url(#clip002)" style="stroke:#000000; stroke-width:4; stroke-opacity:1; fill:none" points="
  1086.33,1356.04 1086.33,1384.24 1190.89,1384.24 1190.89,1356.04 1086.33,1356.04 
  "/>
<path clip-path="url(#clip002)" d="
M1190.89 1372.64 L1190.89 1384.24 L1295.44 1384.24 L1295.44 1372.64 L1190.89 1372.64 L1190.89 1372.64  Z
  " fill="#009af9" fill-rule="evenodd" fill-opacity="1"/>
<polyline clip-path="url(#clip002)" style="stroke:#000000; stroke-width:4; stroke-opacity:1; fill:none" points="
  1190.89,1372.64 1190.89,1384.24 1295.44,1384.24 1295.44,1372.64 1190.89,1372.64 
  "/>
<path clip-path="url(#clip002)" d="
M1295.44 1379.7 L1295.44 1384.24 L1400 1384.24 L1400 1379.7 L1295.44 1379.7 L1295.44 1379.7  Z
  " fill="#009af9" fill-rule="evenodd" fill-opacity="1"/>
<polyline clip-path="url(#clip002)" style="stroke:#000000; stroke-width:4; stroke-opacity:1; fill:none" points="
  1295.44,1379.7 1295.44,1384.24 1400,1384.24 1400,1379.7 1295.44,1379.7 
  "/>
<path clip-path="url(#clip002)" d="
M1400 1382.53 L1400 1384.24 L1504.56 1384.24 L1504.56 1382.53 L1400 1382.53 L1400 1382.53  Z
  " fill="#009af9" fill-rule="evenodd" fill-opacity="1"/>
<polyline clip-path="url(#clip002)" style="stroke:#000000; stroke-width:4; stroke-opacity:1; fill:none" points="
  1400,1382.53 1400,1384.24 1504.56,1384.24 1504.56,1382.53 1400,1382.53 
  "/>
<path clip-path="url(#clip002)" d="
M1504.56 1383.6 L1504.56 1384.24 L1609.11 1384.24 L1609.11 1383.6 L1504.56 1383.6 L1504.56 1383.6  Z
  " fill="#009af9" fill-rule="evenodd" fill-opacity="1"/>
<polyline clip-path="url(#clip002)" style="stroke:#000000; stroke-width:4; stroke-opacity:1; fill:none" points="
  1504.56,1383.6 1504.56,1384.24 1609.11,1384.24 1609.11,1383.6 1504.56,1383.6 
  "/>
<path clip-path="url(#clip002)" d="
M1609.11 1384 L1609.11 1384.24 L1713.67 1384.24 L1713.67 1384 L1609.11 1384 L1609.11 1384  Z
  " fill="#009af9" fill-rule="evenodd" fill-opacity="1"/>
<polyline clip-path="url(#clip002)" style="stroke:#000000; stroke-width:4; stroke-opacity:1; fill:none" points="
  1609.11,1384 1609.11,1384.24 1713.67,1384.24 1713.67,1384 1609.11,1384 
  "/>
<path clip-path="url(#clip002)" d="
M1713.67 1384.13 L1713.67 1384.24 L1818.22 1384.24 L1818.22 1384.13 L1713.67 1384.13 L1713.67 1384.13  Z
  " fill="#009af9" fill-rule="evenodd" fill-opacity="1"/>
<polyline clip-path="url(#clip002)" style="stroke:#000000; stroke-width:4; stroke-opacity:1; fill:none" points="
  1713.67,1384.13 1713.67,1384.24 1818.22,1384.24 1818.22,1384.13 1713.67,1384.13 
  "/>
<path clip-path="url(#clip002)" d="
M1818.22 1384.2 L1818.22 1384.24 L1922.78 1384.24 L1922.78 1384.2 L1818.22 1384.2 L1818.22 1384.2  Z
  " fill="#009af9" fill-rule="evenodd" fill-opacity="1"/>
<polyline clip-path="url(#clip002)" style="stroke:#000000; stroke-width:4; stroke-opacity:1; fill:none" points="
  1818.22,1384.2 1818.22,1384.24 1922.78,1384.24 1922.78,1384.2 1818.22,1384.2 
  "/>
<path clip-path="url(#clip002)" d="
M1922.78 1384.23 L1922.78 1384.24 L2027.34 1384.24 L2027.34 1384.23 L1922.78 1384.23 L1922.78 1384.23  Z
  " fill="#009af9" fill-rule="evenodd" fill-opacity="1"/>
<polyline clip-path="url(#clip002)" style="stroke:#000000; stroke-width:4; stroke-opacity:1; fill:none" points="
  1922.78,1384.23 1922.78,1384.24 2027.34,1384.24 2027.34,1384.23 1922.78,1384.23 
  "/>
<path clip-path="url(#clip002)" d="
M2027.34 1384.23 L2027.34 1384.24 L2131.89 1384.24 L2131.89 1384.23 L2027.34 1384.23 L2027.34 1384.23  Z
  " fill="#009af9" fill-rule="evenodd" fill-opacity="1"/>
<polyline clip-path="url(#clip002)" style="stroke:#000000; stroke-width:4; stroke-opacity:1; fill:none" points="
  2027.34,1384.23 2027.34,1384.24 2131.89,1384.24 2131.89,1384.23 2027.34,1384.23 
  "/>
<path clip-path="url(#clip002)" d="
M2131.89 1384.23 L2131.89 1384.24 L2236.45 1384.24 L2236.45 1384.23 L2131.89 1384.23 L2131.89 1384.23  Z
  " fill="#009af9" fill-rule="evenodd" fill-opacity="1"/>
<polyline clip-path="url(#clip002)" style="stroke:#000000; stroke-width:4; stroke-opacity:1; fill:none" points="
  2131.89,1384.23 2131.89,1384.24 2236.45,1384.24 2236.45,1384.23 2131.89,1384.23 
  "/>
<polyline clip-path="url(#clip002)" style="stroke:#e26f46; stroke-width:4; stroke-opacity:1; fill:none" points="
  527.067,2799.12 527.067,-1328.69 
  "/>
<polyline clip-path="url(#clip002)" style="stroke:#3da44d; stroke-width:4; stroke-opacity:1; fill:none" points="
  526.907,2799.12 526.907,-1328.69 
  "/>
<path clip-path="url(#clip000)" d="
M1689.56 335.029 L2282.27 335.029 L2282.27 93.1086 L1689.56 93.1086  Z
  " fill="#ffffff" fill-rule="evenodd" fill-opacity="1"/>
<polyline clip-path="url(#clip000)" style="stroke:#000000; stroke-width:4; stroke-opacity:1; fill:none" points="
  1689.56,335.029 2282.27,335.029 2282.27,93.1086 1689.56,93.1086 1689.56,335.029 
  "/>
<path clip-path="url(#clip000)" d="
M1713.05 177.781 L1854.03 177.781 L1854.03 129.397 L1713.05 129.397 L1713.05 177.781  Z
  " fill="#009af9" fill-rule="evenodd" fill-opacity="1"/>
<polyline clip-path="url(#clip000)" style="stroke:#000000; stroke-width:4; stroke-opacity:1; fill:none" points="
  1713.05,177.781 1854.03,177.781 1854.03,129.397 1713.05,129.397 1713.05,177.781 
  "/>
<path clip-path="url(#clip000)" d="M 0 0 M1891.37 173.276 Q1889.56 177.906 1887.85 179.318 Q1886.14 180.73 1883.26 180.73 L1879.86 180.73 L1879.86 177.165 L1882.36 177.165 Q1884.12 177.165 1885.09 176.332 Q1886.07 175.498 1887.25 172.396 L1888.01 170.452 L1877.52 144.943 L1882.04 144.943 L1890.14 165.221 L1898.24 144.943 L1902.76 144.943 L1891.37 173.276 Z" fill="#000000" fill-rule="evenodd" fill-opacity="1" /><path clip-path="url(#clip000)" d="M 0 0 M1908.63 166.933 L1916.27 166.933 L1916.27 140.568 L1907.96 142.235 L1907.96 137.975 L1916.23 136.309 L1920.9 136.309 L1920.9 166.933 L1928.54 166.933 L1928.54 170.869 L1908.63 170.869 L1908.63 166.933 Z" fill="#000000" fill-rule="evenodd" fill-opacity="1" /><polyline clip-path="url(#clip000)" style="stroke:#e26f46; stroke-width:4; stroke-opacity:1; fill:none" points="
  1713.05,214.069 1854.03,214.069 
  "/>
<path clip-path="url(#clip000)" d="M 0 0 M1884.93 198.062 L1884.93 205.423 L1893.7 205.423 L1893.7 208.733 L1884.93 208.733 L1884.93 222.807 Q1884.93 225.978 1885.79 226.881 Q1886.67 227.784 1889.33 227.784 L1893.7 227.784 L1893.7 231.349 L1889.33 231.349 Q1884.4 231.349 1882.52 229.52 Q1880.65 227.668 1880.65 222.807 L1880.65 208.733 L1877.52 208.733 L1877.52 205.423 L1880.65 205.423 L1880.65 198.062 L1884.93 198.062 Z" fill="#000000" fill-rule="evenodd" fill-opacity="1" /><path clip-path="url(#clip000)" d="M 0 0 M1919.72 215.701 L1919.72 231.349 L1915.46 231.349 L1915.46 215.839 Q1915.46 212.159 1914.03 210.33 Q1912.59 208.502 1909.72 208.502 Q1906.27 208.502 1904.28 210.701 Q1902.29 212.9 1902.29 216.696 L1902.29 231.349 L1898.01 231.349 L1898.01 195.33 L1902.29 195.33 L1902.29 209.451 Q1903.82 207.113 1905.88 205.955 Q1907.96 204.798 1910.67 204.798 Q1915.14 204.798 1917.43 207.576 Q1919.72 210.33 1919.72 215.701 Z" fill="#000000" fill-rule="evenodd" fill-opacity="1" /><path clip-path="url(#clip000)" d="M 0 0 M1946.37 217.321 L1946.37 219.404 L1926.78 219.404 Q1927.06 223.802 1929.42 226.117 Q1931.81 228.409 1936.04 228.409 Q1938.5 228.409 1940.79 227.807 Q1943.1 227.205 1945.37 226.001 L1945.37 230.029 Q1943.08 231.001 1940.67 231.511 Q1938.26 232.02 1935.79 232.02 Q1929.58 232.02 1925.95 228.409 Q1922.34 224.798 1922.34 218.64 Q1922.34 212.275 1925.76 208.548 Q1929.21 204.798 1935.05 204.798 Q1940.28 204.798 1943.31 208.177 Q1946.37 211.534 1946.37 217.321 M1942.11 216.071 Q1942.06 212.576 1940.14 210.492 Q1938.24 208.409 1935.09 208.409 Q1931.53 208.409 1929.38 210.423 Q1927.25 212.437 1926.92 216.094 L1942.11 216.071 Z" fill="#000000" fill-rule="evenodd" fill-opacity="1" /><path clip-path="url(#clip000)" d="M 0 0 M1960.88 208.409 Q1957.45 208.409 1955.46 211.094 Q1953.47 213.756 1953.47 218.409 Q1953.47 223.062 1955.44 225.747 Q1957.43 228.409 1960.88 228.409 Q1964.28 228.409 1966.27 225.724 Q1968.26 223.038 1968.26 218.409 Q1968.26 213.802 1966.27 211.117 Q1964.28 208.409 1960.88 208.409 M1960.88 204.798 Q1966.44 204.798 1969.61 208.409 Q1972.78 212.02 1972.78 218.409 Q1972.78 224.775 1969.61 228.409 Q1966.44 232.02 1960.88 232.02 Q1955.3 232.02 1952.13 228.409 Q1948.98 224.775 1948.98 218.409 Q1948.98 212.02 1952.13 208.409 Q1955.3 204.798 1960.88 204.798 Z" fill="#000000" fill-rule="evenodd" fill-opacity="1" /><path clip-path="url(#clip000)" d="M 0 0 M1992.27 209.404 Q1991.55 208.988 1990.69 208.802 Q1989.86 208.594 1988.84 208.594 Q1985.23 208.594 1983.29 210.955 Q1981.37 213.293 1981.37 217.691 L1981.37 231.349 L1977.08 231.349 L1977.08 205.423 L1981.37 205.423 L1981.37 209.451 Q1982.71 207.089 1984.86 205.955 Q1987.01 204.798 1990.09 204.798 Q1990.53 204.798 1991.07 204.867 Q1991.6 204.914 1992.25 205.029 L1992.27 209.404 Z" fill="#000000" fill-rule="evenodd" fill-opacity="1" /><path clip-path="url(#clip000)" d="M 0 0 M2017.87 217.321 L2017.87 219.404 L1998.29 219.404 Q1998.56 223.802 2000.93 226.117 Q2003.31 228.409 2007.55 228.409 Q2010 228.409 2012.29 227.807 Q2014.61 227.205 2016.88 226.001 L2016.88 230.029 Q2014.58 231.001 2012.18 231.511 Q2009.77 232.02 2007.29 232.02 Q2001.09 232.02 1997.45 228.409 Q1993.84 224.798 1993.84 218.64 Q1993.84 212.275 1997.27 208.548 Q2000.72 204.798 2006.55 204.798 Q2011.78 204.798 2014.81 208.177 Q2017.87 211.534 2017.87 217.321 M2013.61 216.071 Q2013.56 212.576 2011.64 210.492 Q2009.75 208.409 2006.6 208.409 Q2003.03 208.409 2000.88 210.423 Q1998.75 212.437 1998.43 216.094 L2013.61 216.071 Z" fill="#000000" fill-rule="evenodd" fill-opacity="1" /><path clip-path="url(#clip000)" d="M 0 0 M2026.55 198.062 L2026.55 205.423 L2035.32 205.423 L2035.32 208.733 L2026.55 208.733 L2026.55 222.807 Q2026.55 225.978 2027.41 226.881 Q2028.29 227.784 2030.95 227.784 L2035.32 227.784 L2035.32 231.349 L2030.95 231.349 Q2026.02 231.349 2024.14 229.52 Q2022.27 227.668 2022.27 222.807 L2022.27 208.733 L2019.14 208.733 L2019.14 205.423 L2022.27 205.423 L2022.27 198.062 L2026.55 198.062 Z" fill="#000000" fill-rule="evenodd" fill-opacity="1" /><path clip-path="url(#clip000)" d="M 0 0 M2039.79 205.423 L2044.05 205.423 L2044.05 231.349 L2039.79 231.349 L2039.79 205.423 M2039.79 195.33 L2044.05 195.33 L2044.05 200.724 L2039.79 200.724 L2039.79 195.33 Z" fill="#000000" fill-rule="evenodd" fill-opacity="1" /><path clip-path="url(#clip000)" d="M 0 0 M2067.18 206.418 L2067.18 210.4 Q2065.37 209.404 2063.54 208.918 Q2061.74 208.409 2059.88 208.409 Q2055.74 208.409 2053.45 211.048 Q2051.16 213.664 2051.16 218.409 Q2051.16 223.154 2053.45 225.793 Q2055.74 228.409 2059.88 228.409 Q2061.74 228.409 2063.54 227.923 Q2065.37 227.413 2067.18 226.418 L2067.18 230.353 Q2065.39 231.187 2063.47 231.603 Q2061.57 232.02 2059.42 232.02 Q2053.56 232.02 2050.12 228.339 Q2046.67 224.659 2046.67 218.409 Q2046.67 212.066 2050.14 208.432 Q2053.63 204.798 2059.7 204.798 Q2061.67 204.798 2063.54 205.215 Q2065.42 205.608 2067.18 206.418 Z" fill="#000000" fill-rule="evenodd" fill-opacity="1" /><path clip-path="url(#clip000)" d="M 0 0 M2083.43 218.316 Q2078.26 218.316 2076.27 219.497 Q2074.28 220.677 2074.28 223.525 Q2074.28 225.793 2075.76 227.136 Q2077.27 228.455 2079.84 228.455 Q2083.38 228.455 2085.51 225.955 Q2087.66 223.432 2087.66 219.265 L2087.66 218.316 L2083.43 218.316 M2091.92 216.557 L2091.92 231.349 L2087.66 231.349 L2087.66 227.413 Q2086.2 229.775 2084.03 230.909 Q2081.85 232.02 2078.7 232.02 Q2074.72 232.02 2072.36 229.798 Q2070.02 227.552 2070.02 223.802 Q2070.02 219.427 2072.94 217.205 Q2075.88 214.983 2081.69 214.983 L2087.66 214.983 L2087.66 214.566 Q2087.66 211.627 2085.72 210.029 Q2083.8 208.409 2080.3 208.409 Q2078.08 208.409 2075.97 208.941 Q2073.87 209.474 2071.92 210.539 L2071.92 206.603 Q2074.26 205.701 2076.46 205.261 Q2078.66 204.798 2080.74 204.798 Q2086.37 204.798 2089.14 207.714 Q2091.92 210.631 2091.92 216.557 Z" fill="#000000" fill-rule="evenodd" fill-opacity="1" /><path clip-path="url(#clip000)" d="M 0 0 M2096.39 195.33 L2100.65 195.33 L2100.65 231.349 L2096.39 231.349 L2096.39 195.33 Z" fill="#000000" fill-rule="evenodd" fill-opacity="1" /><path clip-path="url(#clip000)" d="M 0 0 M2140.37 210.4 Q2141.97 207.529 2144.19 206.164 Q2146.41 204.798 2149.42 204.798 Q2153.47 204.798 2155.67 207.645 Q2157.87 210.469 2157.87 215.701 L2157.87 231.349 L2153.59 231.349 L2153.59 215.839 Q2153.59 212.113 2152.27 210.307 Q2150.95 208.502 2148.24 208.502 Q2144.93 208.502 2143.01 210.701 Q2141.09 212.9 2141.09 216.696 L2141.09 231.349 L2136.8 231.349 L2136.8 215.839 Q2136.8 212.089 2135.49 210.307 Q2134.17 208.502 2131.41 208.502 Q2128.15 208.502 2126.23 210.724 Q2124.31 212.923 2124.31 216.696 L2124.31 231.349 L2120.02 231.349 L2120.02 205.423 L2124.31 205.423 L2124.31 209.451 Q2125.76 207.066 2127.8 205.932 Q2129.84 204.798 2132.64 204.798 Q2135.46 204.798 2137.43 206.233 Q2139.42 207.668 2140.37 210.4 Z" fill="#000000" fill-rule="evenodd" fill-opacity="1" /><path clip-path="url(#clip000)" d="M 0 0 M2184.51 217.321 L2184.51 219.404 L2164.93 219.404 Q2165.21 223.802 2167.57 226.117 Q2169.95 228.409 2174.19 228.409 Q2176.64 228.409 2178.93 227.807 Q2181.25 227.205 2183.52 226.001 L2183.52 230.029 Q2181.23 231.001 2178.82 231.511 Q2176.41 232.02 2173.93 232.02 Q2167.73 232.02 2164.1 228.409 Q2160.49 224.798 2160.49 218.64 Q2160.49 212.275 2163.91 208.548 Q2167.36 204.798 2173.19 204.798 Q2178.43 204.798 2181.46 208.177 Q2184.51 211.534 2184.51 217.321 M2180.25 216.071 Q2180.21 212.576 2178.29 210.492 Q2176.39 208.409 2173.24 208.409 Q2169.68 208.409 2167.52 210.423 Q2165.39 212.437 2165.07 216.094 L2180.25 216.071 Z" fill="#000000" fill-rule="evenodd" fill-opacity="1" /><path clip-path="url(#clip000)" d="M 0 0 M2200.76 218.316 Q2195.6 218.316 2193.61 219.497 Q2191.62 220.677 2191.62 223.525 Q2191.62 225.793 2193.1 227.136 Q2194.61 228.455 2197.18 228.455 Q2200.72 228.455 2202.85 225.955 Q2205 223.432 2205 219.265 L2205 218.316 L2200.76 218.316 M2209.26 216.557 L2209.26 231.349 L2205 231.349 L2205 227.413 Q2203.54 229.775 2201.36 230.909 Q2199.19 232.02 2196.04 232.02 Q2192.06 232.02 2189.7 229.798 Q2187.36 227.552 2187.36 223.802 Q2187.36 219.427 2190.28 217.205 Q2193.22 214.983 2199.03 214.983 L2205 214.983 L2205 214.566 Q2205 211.627 2203.05 210.029 Q2201.13 208.409 2197.64 208.409 Q2195.42 208.409 2193.31 208.941 Q2191.2 209.474 2189.26 210.539 L2189.26 206.603 Q2191.6 205.701 2193.8 205.261 Q2195.99 204.798 2198.08 204.798 Q2203.7 204.798 2206.48 207.714 Q2209.26 210.631 2209.26 216.557 Z" fill="#000000" fill-rule="evenodd" fill-opacity="1" /><path clip-path="url(#clip000)" d="M 0 0 M2235.28 215.701 L2235.28 231.349 L2231.02 231.349 L2231.02 215.839 Q2231.02 212.159 2229.58 210.33 Q2228.15 208.502 2225.28 208.502 Q2221.83 208.502 2219.84 210.701 Q2217.85 212.9 2217.85 216.696 L2217.85 231.349 L2213.56 231.349 L2213.56 205.423 L2217.85 205.423 L2217.85 209.451 Q2219.37 207.113 2221.43 205.955 Q2223.52 204.798 2226.23 204.798 Q2230.69 204.798 2232.99 207.576 Q2235.28 210.33 2235.28 215.701 Z" fill="#000000" fill-rule="evenodd" fill-opacity="1" /><polyline clip-path="url(#clip000)" style="stroke:#3da44d; stroke-width:4; stroke-opacity:1; fill:none" points="
  1713.05,274.549 1854.03,274.549 
  "/>
<path clip-path="url(#clip000)" d="M 0 0 M1895.95 266.667 L1895.95 270.694 Q1894.14 269.769 1892.2 269.306 Q1890.26 268.843 1888.17 268.843 Q1885 268.843 1883.4 269.815 Q1881.83 270.787 1881.83 272.731 Q1881.83 274.213 1882.96 275.069 Q1884.1 275.903 1887.52 276.667 L1888.98 276.991 Q1893.52 277.963 1895.42 279.745 Q1897.34 281.505 1897.34 284.676 Q1897.34 288.287 1894.47 290.393 Q1891.62 292.5 1886.62 292.5 Q1884.54 292.5 1882.27 292.083 Q1880.02 291.69 1877.52 290.88 L1877.52 286.481 Q1879.89 287.708 1882.18 288.333 Q1884.47 288.935 1886.71 288.935 Q1889.72 288.935 1891.34 287.917 Q1892.96 286.875 1892.96 285 Q1892.96 283.264 1891.78 282.338 Q1890.63 281.412 1886.67 280.556 L1885.19 280.208 Q1881.23 279.375 1879.47 277.662 Q1877.71 275.926 1877.71 272.917 Q1877.71 269.259 1880.3 267.269 Q1882.89 265.278 1887.66 265.278 Q1890.02 265.278 1892.11 265.625 Q1894.19 265.972 1895.95 266.667 Z" fill="#000000" fill-rule="evenodd" fill-opacity="1" /><path clip-path="url(#clip000)" d="M 0 0 M1906.02 258.542 L1906.02 265.903 L1914.79 265.903 L1914.79 269.213 L1906.02 269.213 L1906.02 283.287 Q1906.02 286.458 1906.88 287.361 Q1907.76 288.264 1910.42 288.264 L1914.79 288.264 L1914.79 291.829 L1910.42 291.829 Q1905.49 291.829 1903.61 290 Q1901.74 288.148 1901.74 283.287 L1901.74 269.213 L1898.61 269.213 L1898.61 265.903 L1901.74 265.903 L1901.74 258.542 L1906.02 258.542 Z" fill="#000000" fill-rule="evenodd" fill-opacity="1" /><path clip-path="url(#clip000)" d="M 0 0 M1931.04 278.796 Q1925.88 278.796 1923.89 279.977 Q1921.9 281.157 1921.9 284.005 Q1921.9 286.273 1923.38 287.616 Q1924.88 288.935 1927.45 288.935 Q1931 288.935 1933.13 286.435 Q1935.28 283.912 1935.28 279.745 L1935.28 278.796 L1931.04 278.796 M1939.54 277.037 L1939.54 291.829 L1935.28 291.829 L1935.28 287.893 Q1933.82 290.255 1931.64 291.389 Q1929.47 292.5 1926.32 292.5 Q1922.34 292.5 1919.98 290.278 Q1917.64 288.032 1917.64 284.282 Q1917.64 279.907 1920.56 277.685 Q1923.5 275.463 1929.31 275.463 L1935.28 275.463 L1935.28 275.046 Q1935.28 272.107 1933.33 270.509 Q1931.41 268.889 1927.92 268.889 Q1925.7 268.889 1923.59 269.421 Q1921.48 269.954 1919.54 271.019 L1919.54 267.083 Q1921.88 266.181 1924.07 265.741 Q1926.27 265.278 1928.36 265.278 Q1933.98 265.278 1936.76 268.194 Q1939.54 271.111 1939.54 277.037 Z" fill="#000000" fill-rule="evenodd" fill-opacity="1" /><path clip-path="url(#clip000)" d="M 0 0 M1948.22 258.542 L1948.22 265.903 L1956.99 265.903 L1956.99 269.213 L1948.22 269.213 L1948.22 283.287 Q1948.22 286.458 1949.07 287.361 Q1949.95 288.264 1952.62 288.264 L1956.99 288.264 L1956.99 291.829 L1952.62 291.829 Q1947.69 291.829 1945.81 290 Q1943.94 288.148 1943.94 283.287 L1943.94 269.213 L1940.81 269.213 L1940.81 265.903 L1943.94 265.903 L1943.94 258.542 L1948.22 258.542 Z" fill="#000000" fill-rule="evenodd" fill-opacity="1" /><path clip-path="url(#clip000)" d="M 0 0 M1961.46 265.903 L1965.72 265.903 L1965.72 291.829 L1961.46 291.829 L1961.46 265.903 M1961.46 255.81 L1965.72 255.81 L1965.72 261.204 L1961.46 261.204 L1961.46 255.81 Z" fill="#000000" fill-rule="evenodd" fill-opacity="1" /><path clip-path="url(#clip000)" d="M 0 0 M1986.71 266.667 L1986.71 270.694 Q1984.91 269.769 1982.96 269.306 Q1981.02 268.843 1978.94 268.843 Q1975.76 268.843 1974.17 269.815 Q1972.59 270.787 1972.59 272.731 Q1972.59 274.213 1973.73 275.069 Q1974.86 275.903 1978.29 276.667 L1979.75 276.991 Q1984.28 277.963 1986.18 279.745 Q1988.1 281.505 1988.1 284.676 Q1988.1 288.287 1985.23 290.393 Q1982.38 292.5 1977.38 292.5 Q1975.3 292.5 1973.03 292.083 Q1970.79 291.69 1968.29 290.88 L1968.29 286.481 Q1970.65 287.708 1972.94 288.333 Q1975.23 288.935 1977.48 288.935 Q1980.49 288.935 1982.11 287.917 Q1983.73 286.875 1983.73 285 Q1983.73 283.264 1982.55 282.338 Q1981.39 281.412 1977.43 280.556 L1975.95 280.208 Q1971.99 279.375 1970.23 277.662 Q1968.47 275.926 1968.47 272.917 Q1968.47 269.259 1971.07 267.269 Q1973.66 265.278 1978.43 265.278 Q1980.79 265.278 1982.87 265.625 Q1984.95 265.972 1986.71 266.667 Z" fill="#000000" fill-rule="evenodd" fill-opacity="1" /><path clip-path="url(#clip000)" d="M 0 0 M1996.78 258.542 L1996.78 265.903 L2005.56 265.903 L2005.56 269.213 L1996.78 269.213 L1996.78 283.287 Q1996.78 286.458 1997.64 287.361 Q1998.52 288.264 2001.18 288.264 L2005.56 288.264 L2005.56 291.829 L2001.18 291.829 Q1996.25 291.829 1994.38 290 Q1992.5 288.148 1992.5 283.287 L1992.5 269.213 L1989.38 269.213 L1989.38 265.903 L1992.5 265.903 L1992.5 258.542 L1996.78 258.542 Z" fill="#000000" fill-rule="evenodd" fill-opacity="1" /><path clip-path="url(#clip000)" d="M 0 0 M2010.02 265.903 L2014.28 265.903 L2014.28 291.829 L2010.02 291.829 L2010.02 265.903 M2010.02 255.81 L2014.28 255.81 L2014.28 261.204 L2010.02 261.204 L2010.02 255.81 Z" fill="#000000" fill-rule="evenodd" fill-opacity="1" /><path clip-path="url(#clip000)" d="M 0 0 M2037.41 266.898 L2037.41 270.88 Q2035.6 269.884 2033.77 269.398 Q2031.97 268.889 2030.12 268.889 Q2025.97 268.889 2023.68 271.528 Q2021.39 274.144 2021.39 278.889 Q2021.39 283.634 2023.68 286.273 Q2025.97 288.889 2030.12 288.889 Q2031.97 288.889 2033.77 288.403 Q2035.6 287.893 2037.41 286.898 L2037.41 290.833 Q2035.62 291.667 2033.7 292.083 Q2031.81 292.5 2029.65 292.5 Q2023.8 292.5 2020.35 288.819 Q2016.9 285.139 2016.9 278.889 Q2016.9 272.546 2020.37 268.912 Q2023.87 265.278 2029.93 265.278 Q2031.9 265.278 2033.77 265.695 Q2035.65 266.088 2037.41 266.898 Z" fill="#000000" fill-rule="evenodd" fill-opacity="1" /><path clip-path="url(#clip000)" d="M 0 0 M2053.66 278.796 Q2048.5 278.796 2046.5 279.977 Q2044.51 281.157 2044.51 284.005 Q2044.51 286.273 2046 287.616 Q2047.5 288.935 2050.07 288.935 Q2053.61 288.935 2055.74 286.435 Q2057.89 283.912 2057.89 279.745 L2057.89 278.796 L2053.66 278.796 M2062.15 277.037 L2062.15 291.829 L2057.89 291.829 L2057.89 287.893 Q2056.44 290.255 2054.26 291.389 Q2052.08 292.5 2048.94 292.5 Q2044.95 292.5 2042.59 290.278 Q2040.25 288.032 2040.25 284.282 Q2040.25 279.907 2043.17 277.685 Q2046.11 275.463 2051.92 275.463 L2057.89 275.463 L2057.89 275.046 Q2057.89 272.107 2055.95 270.509 Q2054.03 268.889 2050.53 268.889 Q2048.31 268.889 2046.2 269.421 Q2044.1 269.954 2042.15 271.019 L2042.15 267.083 Q2044.49 266.181 2046.69 265.741 Q2048.89 265.278 2050.97 265.278 Q2056.6 265.278 2059.37 268.194 Q2062.15 271.111 2062.15 277.037 Z" fill="#000000" fill-rule="evenodd" fill-opacity="1" /><path clip-path="url(#clip000)" d="M 0 0 M2066.62 255.81 L2070.88 255.81 L2070.88 291.829 L2066.62 291.829 L2066.62 255.81 Z" fill="#000000" fill-rule="evenodd" fill-opacity="1" /><path clip-path="url(#clip000)" d="M 0 0 M2110.6 270.88 Q2112.2 268.009 2114.42 266.644 Q2116.64 265.278 2119.65 265.278 Q2123.7 265.278 2125.9 268.125 Q2128.1 270.949 2128.1 276.181 L2128.1 291.829 L2123.82 291.829 L2123.82 276.319 Q2123.82 272.593 2122.5 270.787 Q2121.18 268.982 2118.47 268.982 Q2115.16 268.982 2113.24 271.181 Q2111.32 273.38 2111.32 277.176 L2111.32 291.829 L2107.04 291.829 L2107.04 276.319 Q2107.04 272.569 2105.72 270.787 Q2104.4 268.982 2101.64 268.982 Q2098.38 268.982 2096.46 271.204 Q2094.54 273.403 2094.54 277.176 L2094.54 291.829 L2090.25 291.829 L2090.25 265.903 L2094.54 265.903 L2094.54 269.931 Q2096 267.546 2098.03 266.412 Q2100.07 265.278 2102.87 265.278 Q2105.69 265.278 2107.66 266.713 Q2109.65 268.148 2110.6 270.88 Z" fill="#000000" fill-rule="evenodd" fill-opacity="1" /><path clip-path="url(#clip000)" d="M 0 0 M2154.74 277.801 L2154.74 279.884 L2135.16 279.884 Q2135.44 284.282 2137.8 286.597 Q2140.18 288.889 2144.42 288.889 Q2146.87 288.889 2149.17 288.287 Q2151.48 287.685 2153.75 286.481 L2153.75 290.509 Q2151.46 291.481 2149.05 291.991 Q2146.64 292.5 2144.17 292.5 Q2137.96 292.5 2134.33 288.889 Q2130.72 285.278 2130.72 279.12 Q2130.72 272.755 2134.14 269.028 Q2137.59 265.278 2143.43 265.278 Q2148.66 265.278 2151.69 268.657 Q2154.74 272.014 2154.74 277.801 M2150.49 276.551 Q2150.44 273.056 2148.52 270.972 Q2146.62 268.889 2143.47 268.889 Q2139.91 268.889 2137.75 270.903 Q2135.62 272.917 2135.3 276.574 L2150.49 276.551 Z" fill="#000000" fill-rule="evenodd" fill-opacity="1" /><path clip-path="url(#clip000)" d="M 0 0 M2170.99 278.796 Q2165.83 278.796 2163.84 279.977 Q2161.85 281.157 2161.85 284.005 Q2161.85 286.273 2163.33 287.616 Q2164.84 288.935 2167.41 288.935 Q2170.95 288.935 2173.08 286.435 Q2175.23 283.912 2175.23 279.745 L2175.23 278.796 L2170.99 278.796 M2179.49 277.037 L2179.49 291.829 L2175.23 291.829 L2175.23 287.893 Q2173.77 290.255 2171.6 291.389 Q2169.42 292.5 2166.27 292.5 Q2162.29 292.5 2159.93 290.278 Q2157.59 288.032 2157.59 284.282 Q2157.59 279.907 2160.51 277.685 Q2163.45 275.463 2169.26 275.463 L2175.23 275.463 L2175.23 275.046 Q2175.23 272.107 2173.29 270.509 Q2171.36 268.889 2167.87 268.889 Q2165.65 268.889 2163.54 269.421 Q2161.43 269.954 2159.49 271.019 L2159.49 267.083 Q2161.83 266.181 2164.03 265.741 Q2166.23 265.278 2168.31 265.278 Q2173.93 265.278 2176.71 268.194 Q2179.49 271.111 2179.49 277.037 Z" fill="#000000" fill-rule="evenodd" fill-opacity="1" /><path clip-path="url(#clip000)" d="M 0 0 M2205.51 276.181 L2205.51 291.829 L2201.25 291.829 L2201.25 276.319 Q2201.25 272.639 2199.81 270.81 Q2198.38 268.982 2195.51 268.982 Q2192.06 268.982 2190.07 271.181 Q2188.08 273.38 2188.08 277.176 L2188.08 291.829 L2183.8 291.829 L2183.8 265.903 L2188.08 265.903 L2188.08 269.931 Q2189.61 267.593 2191.67 266.435 Q2193.75 265.278 2196.46 265.278 Q2200.93 265.278 2203.22 268.056 Q2205.51 270.81 2205.51 276.181 Z" fill="#000000" fill-rule="evenodd" fill-opacity="1" /></svg>
