<?xml version="1.0" encoding="utf-8"?>
<svg xmlns="http://www.w3.org/2000/svg" xmlns:xlink="http://www.w3.org/1999/xlink" width="600" height="400" viewBox="0 0 2400 1600">
<defs>
  <clipPath id="clip030">
    <rect x="0" y="0" width="2400" height="1600"/>
  </clipPath>
</defs>
<path clip-path="url(#clip030)" d="
M0 1600 L2400 1600 L2400 0 L0 0  Z
  " fill="#ffffff" fill-rule="evenodd" fill-opacity="1"/>
<defs>
  <clipPath id="clip031">
    <rect x="480" y="0" width="1681" height="1600"/>
  </clipPath>
</defs>
<path clip-path="url(#clip030)" d="
M238.13 1423.18 L2352.76 1423.18 L2352.76 47.2441 L238.13 47.2441  Z
  " fill="#ffffff" fill-rule="evenodd" fill-opacity="1"/>
<defs>
  <clipPath id="clip032">
    <rect x="238" y="47" width="2116" height="1377"/>
  </clipPath>
</defs>
<polyline clip-path="url(#clip032)" style="stroke:#000000; stroke-width:2; stroke-opacity:0.1; fill:none" points="
  354.438,1423.18 354.438,47.2441 
  "/>
<polyline clip-path="url(#clip032)" style="stroke:#000000; stroke-width:2; stroke-opacity:0.1; fill:none" points="
  716.363,1423.18 716.363,47.2441 
  "/>
<polyline clip-path="url(#clip032)" style="stroke:#000000; stroke-width:2; stroke-opacity:0.1; fill:none" points="
  1078.29,1423.18 1078.29,47.2441 
  "/>
<polyline clip-path="url(#clip032)" style="stroke:#000000; stroke-width:2; stroke-opacity:0.1; fill:none" points="
  1440.21,1423.18 1440.21,47.2441 
  "/>
<polyline clip-path="url(#clip032)" style="stroke:#000000; stroke-width:2; stroke-opacity:0.1; fill:none" points="
  1802.14,1423.18 1802.14,47.2441 
  "/>
<polyline clip-path="url(#clip032)" style="stroke:#000000; stroke-width:2; stroke-opacity:0.1; fill:none" points="
  2164.06,1423.18 2164.06,47.2441 
  "/>
<polyline clip-path="url(#clip030)" style="stroke:#000000; stroke-width:4; stroke-opacity:1; fill:none" points="
  238.13,1423.18 2352.76,1423.18 
  "/>
<polyline clip-path="url(#clip030)" style="stroke:#000000; stroke-width:4; stroke-opacity:1; fill:none" points="
  354.438,1423.18 354.438,1406.67 
  "/>
<polyline clip-path="url(#clip030)" style="stroke:#000000; stroke-width:4; stroke-opacity:1; fill:none" points="
  716.363,1423.18 716.363,1406.67 
  "/>
<polyline clip-path="url(#clip030)" style="stroke:#000000; stroke-width:4; stroke-opacity:1; fill:none" points="
  1078.29,1423.18 1078.29,1406.67 
  "/>
<polyline clip-path="url(#clip030)" style="stroke:#000000; stroke-width:4; stroke-opacity:1; fill:none" points="
  1440.21,1423.18 1440.21,1406.67 
  "/>
<polyline clip-path="url(#clip030)" style="stroke:#000000; stroke-width:4; stroke-opacity:1; fill:none" points="
  1802.14,1423.18 1802.14,1406.67 
  "/>
<polyline clip-path="url(#clip030)" style="stroke:#000000; stroke-width:4; stroke-opacity:1; fill:none" points="
  2164.06,1423.18 2164.06,1406.67 
  "/>
<path clip-path="url(#clip030)" d="M 0 0 M354.438 1452.37 Q350.827 1452.37 348.998 1455.94 Q347.193 1459.48 347.193 1466.61 Q347.193 1473.71 348.998 1477.28 Q350.827 1480.82 354.438 1480.82 Q358.072 1480.82 359.878 1477.28 Q361.707 1473.71 361.707 1466.61 Q361.707 1459.48 359.878 1455.94 Q358.072 1452.37 354.438 1452.37 M354.438 1448.67 Q360.248 1448.67 363.304 1453.27 Q366.383 1457.86 366.383 1466.61 Q366.383 1475.33 363.304 1479.94 Q360.248 1484.52 354.438 1484.52 Q348.628 1484.52 345.549 1479.94 Q342.494 1475.33 342.494 1466.61 Q342.494 1457.86 345.549 1453.27 Q348.628 1448.67 354.438 1448.67 Z" fill="#000000" fill-rule="evenodd" fill-opacity="1" /><path clip-path="url(#clip030)" d="M 0 0 M706.641 1449.29 L724.997 1449.29 L724.997 1453.23 L710.923 1453.23 L710.923 1461.7 Q711.942 1461.35 712.96 1461.19 Q713.979 1461 714.997 1461 Q720.784 1461 724.164 1464.18 Q727.544 1467.35 727.544 1472.76 Q727.544 1478.34 724.071 1481.44 Q720.599 1484.52 714.28 1484.52 Q712.104 1484.52 709.835 1484.15 Q707.59 1483.78 705.183 1483.04 L705.183 1478.34 Q707.266 1479.48 709.488 1480.03 Q711.71 1480.59 714.187 1480.59 Q718.192 1480.59 720.53 1478.48 Q722.868 1476.38 722.868 1472.76 Q722.868 1469.15 720.53 1467.05 Q718.192 1464.94 714.187 1464.94 Q712.312 1464.94 710.437 1465.36 Q708.585 1465.77 706.641 1466.65 L706.641 1449.29 Z" fill="#000000" fill-rule="evenodd" fill-opacity="1" /><path clip-path="url(#clip030)" d="M 0 0 M1055.16 1479.92 L1062.8 1479.92 L1062.8 1453.55 L1054.49 1455.22 L1054.49 1450.96 L1062.76 1449.29 L1067.43 1449.29 L1067.43 1479.92 L1075.07 1479.92 L1075.07 1483.85 L1055.16 1483.85 L1055.16 1479.92 Z" fill="#000000" fill-rule="evenodd" fill-opacity="1" /><path clip-path="url(#clip030)" d="M 0 0 M1090.14 1452.37 Q1086.53 1452.37 1084.7 1455.94 Q1082.89 1459.48 1082.89 1466.61 Q1082.89 1473.71 1084.7 1477.28 Q1086.53 1480.82 1090.14 1480.82 Q1093.77 1480.82 1095.58 1477.28 Q1097.41 1473.71 1097.41 1466.61 Q1097.41 1459.48 1095.58 1455.94 Q1093.77 1452.37 1090.14 1452.37 M1090.14 1448.67 Q1095.95 1448.67 1099.01 1453.27 Q1102.08 1457.86 1102.08 1466.61 Q1102.08 1475.33 1099.01 1479.94 Q1095.95 1484.52 1090.14 1484.52 Q1084.33 1484.52 1081.25 1479.94 Q1078.2 1475.33 1078.2 1466.61 Q1078.2 1457.86 1081.25 1453.27 Q1084.33 1448.67 1090.14 1448.67 Z" fill="#000000" fill-rule="evenodd" fill-opacity="1" /><path clip-path="url(#clip030)" d="M 0 0 M1417.59 1479.92 L1425.22 1479.92 L1425.22 1453.55 L1416.91 1455.22 L1416.91 1450.96 L1425.18 1449.29 L1429.85 1449.29 L1429.85 1479.92 L1437.49 1479.92 L1437.49 1483.85 L1417.59 1483.85 L1417.59 1479.92 Z" fill="#000000" fill-rule="evenodd" fill-opacity="1" /><path clip-path="url(#clip030)" d="M 0 0 M1442.61 1449.29 L1460.97 1449.29 L1460.97 1453.23 L1446.89 1453.23 L1446.89 1461.7 Q1447.91 1461.35 1448.93 1461.19 Q1449.95 1461 1450.97 1461 Q1456.75 1461 1460.13 1464.18 Q1463.51 1467.35 1463.51 1472.76 Q1463.51 1478.34 1460.04 1481.44 Q1456.57 1484.52 1450.25 1484.52 Q1448.07 1484.52 1445.8 1484.15 Q1443.56 1483.78 1441.15 1483.04 L1441.15 1478.34 Q1443.23 1479.48 1445.46 1480.03 Q1447.68 1480.59 1450.16 1480.59 Q1454.16 1480.59 1456.5 1478.48 Q1458.84 1476.38 1458.84 1472.76 Q1458.84 1469.15 1456.5 1467.05 Q1454.16 1464.94 1450.16 1464.94 Q1448.28 1464.94 1446.41 1465.36 Q1444.55 1465.77 1442.61 1466.65 L1442.61 1449.29 Z" fill="#000000" fill-rule="evenodd" fill-opacity="1" /><path clip-path="url(#clip030)" d="M 0 0 M1783.28 1479.92 L1799.6 1479.92 L1799.6 1483.85 L1777.66 1483.85 L1777.66 1479.92 Q1780.32 1477.16 1784.9 1472.53 Q1789.51 1467.88 1790.69 1466.54 Q1792.94 1464.01 1793.82 1462.28 Q1794.72 1460.52 1794.72 1458.83 Q1794.72 1456.07 1792.77 1454.34 Q1790.85 1452.6 1787.75 1452.6 Q1785.55 1452.6 1783.1 1453.37 Q1780.67 1454.13 1777.89 1455.68 L1777.89 1450.96 Q1780.71 1449.82 1783.17 1449.25 Q1785.62 1448.67 1787.66 1448.67 Q1793.03 1448.67 1796.22 1451.35 Q1799.42 1454.04 1799.42 1458.53 Q1799.42 1460.66 1798.61 1462.58 Q1797.82 1464.48 1795.71 1467.07 Q1795.14 1467.74 1792.03 1470.96 Q1788.93 1474.15 1783.28 1479.92 Z" fill="#000000" fill-rule="evenodd" fill-opacity="1" /><path clip-path="url(#clip030)" d="M 0 0 M1814.67 1452.37 Q1811.06 1452.37 1809.23 1455.94 Q1807.43 1459.48 1807.43 1466.61 Q1807.43 1473.71 1809.23 1477.28 Q1811.06 1480.82 1814.67 1480.82 Q1818.31 1480.82 1820.11 1477.28 Q1821.94 1473.71 1821.94 1466.61 Q1821.94 1459.48 1820.11 1455.94 Q1818.31 1452.37 1814.67 1452.37 M1814.67 1448.67 Q1820.48 1448.67 1823.54 1453.27 Q1826.62 1457.86 1826.62 1466.61 Q1826.62 1475.33 1823.54 1479.94 Q1820.48 1484.52 1814.67 1484.52 Q1808.86 1484.52 1805.78 1479.94 Q1802.73 1475.33 1802.73 1466.61 Q1802.73 1457.86 1805.78 1453.27 Q1808.86 1448.67 1814.67 1448.67 Z" fill="#000000" fill-rule="evenodd" fill-opacity="1" /><path clip-path="url(#clip030)" d="M 0 0 M2145.71 1479.92 L2162.03 1479.92 L2162.03 1483.85 L2140.08 1483.85 L2140.08 1479.92 Q2142.74 1477.16 2147.33 1472.53 Q2151.93 1467.88 2153.11 1466.54 Q2155.36 1464.01 2156.24 1462.28 Q2157.14 1460.52 2157.14 1458.83 Q2157.14 1456.07 2155.2 1454.34 Q2153.28 1452.6 2150.17 1452.6 Q2147.97 1452.6 2145.52 1453.37 Q2143.09 1454.13 2140.31 1455.68 L2140.31 1450.96 Q2143.14 1449.82 2145.59 1449.25 Q2148.04 1448.67 2150.08 1448.67 Q2155.45 1448.67 2158.65 1451.35 Q2161.84 1454.04 2161.84 1458.53 Q2161.84 1460.66 2161.03 1462.58 Q2160.24 1464.48 2158.14 1467.07 Q2157.56 1467.74 2154.46 1470.96 Q2151.35 1474.15 2145.71 1479.92 Z" fill="#000000" fill-rule="evenodd" fill-opacity="1" /><path clip-path="url(#clip030)" d="M 0 0 M2167.14 1449.29 L2185.5 1449.29 L2185.5 1453.23 L2171.42 1453.23 L2171.42 1461.7 Q2172.44 1461.35 2173.46 1461.19 Q2174.48 1461 2175.5 1461 Q2181.28 1461 2184.66 1464.18 Q2188.04 1467.35 2188.04 1472.76 Q2188.04 1478.34 2184.57 1481.44 Q2181.1 1484.52 2174.78 1484.52 Q2172.6 1484.52 2170.34 1484.15 Q2168.09 1483.78 2165.68 1483.04 L2165.68 1478.34 Q2167.77 1479.48 2169.99 1480.03 Q2172.21 1480.59 2174.69 1480.59 Q2178.69 1480.59 2181.03 1478.48 Q2183.37 1476.38 2183.37 1472.76 Q2183.37 1469.15 2181.03 1467.05 Q2178.69 1464.94 2174.69 1464.94 Q2172.81 1464.94 2170.94 1465.36 Q2169.09 1465.77 2167.14 1466.65 L2167.14 1449.29 Z" fill="#000000" fill-rule="evenodd" fill-opacity="1" /><path clip-path="url(#clip030)" d="M 0 0 M1285.39 1562.7 L1285.39 1581.6 L1279.5 1581.6 L1279.5 1532.4 L1285.39 1532.4 L1285.39 1537.81 Q1287.23 1534.62 1290.03 1533.1 Q1292.86 1531.54 1296.78 1531.54 Q1303.27 1531.54 1307.32 1536.69 Q1311.39 1541.85 1311.39 1550.25 Q1311.39 1558.65 1307.32 1563.81 Q1303.27 1568.97 1296.78 1568.97 Q1292.86 1568.97 1290.03 1567.44 Q1287.23 1565.88 1285.39 1562.7 M1305.31 1550.25 Q1305.31 1543.79 1302.64 1540.13 Q1299.99 1536.44 1295.35 1536.44 Q1290.7 1536.44 1288.03 1540.13 Q1285.39 1543.79 1285.39 1550.25 Q1285.39 1556.71 1288.03 1560.4 Q1290.7 1564.07 1295.35 1564.07 Q1299.99 1564.07 1302.64 1560.4 Q1305.31 1556.71 1305.31 1550.25 Z" fill="#000000" fill-rule="evenodd" fill-opacity="1" /><polyline clip-path="url(#clip032)" style="stroke:#000000; stroke-width:2; stroke-opacity:0.1; fill:none" points="
  238.13,1384.24 2352.76,1384.24 
  "/>
<polyline clip-path="url(#clip032)" style="stroke:#000000; stroke-width:2; stroke-opacity:0.1; fill:none" points="
  238.13,1002.62 2352.76,1002.62 
  "/>
<polyline clip-path="url(#clip032)" style="stroke:#000000; stroke-width:2; stroke-opacity:0.1; fill:none" points="
  238.13,621.004 2352.76,621.004 
  "/>
<polyline clip-path="url(#clip032)" style="stroke:#000000; stroke-width:2; stroke-opacity:0.1; fill:none" points="
  238.13,239.387 2352.76,239.387 
  "/>
<polyline clip-path="url(#clip030)" style="stroke:#000000; stroke-width:4; stroke-opacity:1; fill:none" points="
  238.13,1423.18 238.13,47.2441 
  "/>
<polyline clip-path="url(#clip030)" style="stroke:#000000; stroke-width:4; stroke-opacity:1; fill:none" points="
  238.13,1384.24 263.506,1384.24 
  "/>
<polyline clip-path="url(#clip030)" style="stroke:#000000; stroke-width:4; stroke-opacity:1; fill:none" points="
  238.13,1002.62 263.506,1002.62 
  "/>
<polyline clip-path="url(#clip030)" style="stroke:#000000; stroke-width:4; stroke-opacity:1; fill:none" points="
  238.13,621.004 263.506,621.004 
  "/>
<polyline clip-path="url(#clip030)" style="stroke:#000000; stroke-width:4; stroke-opacity:1; fill:none" points="
  238.13,239.387 263.506,239.387 
  "/>
<path clip-path="url(#clip030)" d="M 0 0 M126.205 1370.04 Q122.593 1370.04 120.765 1373.6 Q118.959 1377.14 118.959 1384.27 Q118.959 1391.38 120.765 1394.94 Q122.593 1398.49 126.205 1398.49 Q129.839 1398.49 131.644 1394.94 Q133.473 1391.38 133.473 1384.27 Q133.473 1377.14 131.644 1373.6 Q129.839 1370.04 126.205 1370.04 M126.205 1366.33 Q132.015 1366.33 135.07 1370.94 Q138.149 1375.52 138.149 1384.27 Q138.149 1393 135.07 1397.61 Q132.015 1402.19 126.205 1402.19 Q120.394 1402.19 117.316 1397.61 Q114.26 1393 114.26 1384.27 Q114.26 1375.52 117.316 1370.94 Q120.394 1366.33 126.205 1366.33 Z" fill="#000000" fill-rule="evenodd" fill-opacity="1" /><path clip-path="url(#clip030)" d="M 0 0 M143.218 1395.64 L148.103 1395.64 L148.103 1401.52 L143.218 1401.52 L143.218 1395.64 Z" fill="#000000" fill-rule="evenodd" fill-opacity="1" /><path clip-path="url(#clip030)" d="M 0 0 M163.172 1370.04 Q159.561 1370.04 157.732 1373.6 Q155.927 1377.14 155.927 1384.27 Q155.927 1391.38 157.732 1394.94 Q159.561 1398.49 163.172 1398.49 Q166.806 1398.49 168.612 1394.94 Q170.44 1391.38 170.44 1384.27 Q170.44 1377.14 168.612 1373.6 Q166.806 1370.04 163.172 1370.04 M163.172 1366.33 Q168.982 1366.33 172.038 1370.94 Q175.116 1375.52 175.116 1384.27 Q175.116 1393 172.038 1397.61 Q168.982 1402.19 163.172 1402.19 Q157.362 1402.19 154.283 1397.61 Q151.228 1393 151.228 1384.27 Q151.228 1375.52 154.283 1370.94 Q157.362 1366.33 163.172 1366.33 Z" fill="#000000" fill-rule="evenodd" fill-opacity="1" /><path clip-path="url(#clip030)" d="M 0 0 M190.186 1370.04 Q186.575 1370.04 184.746 1373.6 Q182.94 1377.14 182.94 1384.27 Q182.94 1391.38 184.746 1394.94 Q186.575 1398.49 190.186 1398.49 Q193.82 1398.49 195.625 1394.94 Q197.454 1391.38 197.454 1384.27 Q197.454 1377.14 195.625 1373.6 Q193.82 1370.04 190.186 1370.04 M190.186 1366.33 Q195.996 1366.33 199.051 1370.94 Q202.13 1375.52 202.13 1384.27 Q202.13 1393 199.051 1397.61 Q195.996 1402.19 190.186 1402.19 Q184.376 1402.19 181.297 1397.61 Q178.241 1393 178.241 1384.27 Q178.241 1375.52 181.297 1370.94 Q184.376 1366.33 190.186 1366.33 Z" fill="#000000" fill-rule="evenodd" fill-opacity="1" /><path clip-path="url(#clip030)" d="M 0 0 M127.2 988.42 Q123.589 988.42 121.76 991.985 Q119.955 995.526 119.955 1002.66 Q119.955 1009.76 121.76 1013.33 Q123.589 1016.87 127.2 1016.87 Q130.834 1016.87 132.64 1013.33 Q134.468 1009.76 134.468 1002.66 Q134.468 995.526 132.64 991.985 Q130.834 988.42 127.2 988.42 M127.2 984.716 Q133.01 984.716 136.066 989.323 Q139.144 993.906 139.144 1002.66 Q139.144 1011.38 136.066 1015.99 Q133.01 1020.57 127.2 1020.57 Q121.39 1020.57 118.311 1015.99 Q115.256 1011.38 115.256 1002.66 Q115.256 993.906 118.311 989.323 Q121.39 984.716 127.2 984.716 Z" fill="#000000" fill-rule="evenodd" fill-opacity="1" /><path clip-path="url(#clip030)" d="M 0 0 M144.214 1014.02 L149.098 1014.02 L149.098 1019.9 L144.214 1019.9 L144.214 1014.02 Z" fill="#000000" fill-rule="evenodd" fill-opacity="1" /><path clip-path="url(#clip030)" d="M 0 0 M164.167 988.42 Q160.556 988.42 158.728 991.985 Q156.922 995.526 156.922 1002.66 Q156.922 1009.76 158.728 1013.33 Q160.556 1016.87 164.167 1016.87 Q167.802 1016.87 169.607 1013.33 Q171.436 1009.76 171.436 1002.66 Q171.436 995.526 169.607 991.985 Q167.802 988.42 164.167 988.42 M164.167 984.716 Q169.977 984.716 173.033 989.323 Q176.112 993.906 176.112 1002.66 Q176.112 1011.38 173.033 1015.99 Q169.977 1020.57 164.167 1020.57 Q158.357 1020.57 155.278 1015.99 Q152.223 1011.38 152.223 1002.66 Q152.223 993.906 155.278 989.323 Q158.357 984.716 164.167 984.716 Z" fill="#000000" fill-rule="evenodd" fill-opacity="1" /><path clip-path="url(#clip030)" d="M 0 0 M181.227 985.341 L199.584 985.341 L199.584 989.276 L185.51 989.276 L185.51 997.749 Q186.528 997.401 187.547 997.239 Q188.565 997.054 189.584 997.054 Q195.371 997.054 198.75 1000.23 Q202.13 1003.4 202.13 1008.81 Q202.13 1014.39 198.658 1017.49 Q195.186 1020.57 188.866 1020.57 Q186.69 1020.57 184.422 1020.2 Q182.176 1019.83 179.769 1019.09 L179.769 1014.39 Q181.852 1015.53 184.075 1016.08 Q186.297 1016.64 188.774 1016.64 Q192.778 1016.64 195.116 1014.53 Q197.454 1012.42 197.454 1008.81 Q197.454 1005.2 195.116 1003.1 Q192.778 1000.99 188.774 1000.99 Q186.899 1000.99 185.024 1001.41 Q183.172 1001.82 181.227 1002.7 L181.227 985.341 Z" fill="#000000" fill-rule="evenodd" fill-opacity="1" /><path clip-path="url(#clip030)" d="M 0 0 M127.431 606.803 Q123.82 606.803 121.992 610.368 Q120.186 613.909 120.186 621.039 Q120.186 628.145 121.992 631.71 Q123.82 635.252 127.431 635.252 Q131.066 635.252 132.871 631.71 Q134.7 628.145 134.7 621.039 Q134.7 613.909 132.871 610.368 Q131.066 606.803 127.431 606.803 M127.431 603.099 Q133.242 603.099 136.297 607.706 Q139.376 612.289 139.376 621.039 Q139.376 629.766 136.297 634.372 Q133.242 638.955 127.431 638.955 Q121.621 638.955 118.543 634.372 Q115.487 629.766 115.487 621.039 Q115.487 612.289 118.543 607.706 Q121.621 603.099 127.431 603.099 Z" fill="#000000" fill-rule="evenodd" fill-opacity="1" /><path clip-path="url(#clip030)" d="M 0 0 M144.445 632.405 L149.329 632.405 L149.329 638.284 L144.445 638.284 L144.445 632.405 Z" fill="#000000" fill-rule="evenodd" fill-opacity="1" /><path clip-path="url(#clip030)" d="M 0 0 M155.209 634.349 L162.848 634.349 L162.848 607.983 L154.538 609.65 L154.538 605.391 L162.802 603.724 L167.477 603.724 L167.477 634.349 L175.116 634.349 L175.116 638.284 L155.209 638.284 L155.209 634.349 Z" fill="#000000" fill-rule="evenodd" fill-opacity="1" /><path clip-path="url(#clip030)" d="M 0 0 M190.186 606.803 Q186.575 606.803 184.746 610.368 Q182.94 613.909 182.94 621.039 Q182.94 628.145 184.746 631.71 Q186.575 635.252 190.186 635.252 Q193.82 635.252 195.625 631.71 Q197.454 628.145 197.454 621.039 Q197.454 613.909 195.625 610.368 Q193.82 606.803 190.186 606.803 M190.186 603.099 Q195.996 603.099 199.051 607.706 Q202.13 612.289 202.13 621.039 Q202.13 629.766 199.051 634.372 Q195.996 638.955 190.186 638.955 Q184.376 638.955 181.297 634.372 Q178.241 629.766 178.241 621.039 Q178.241 612.289 181.297 607.706 Q184.376 603.099 190.186 603.099 Z" fill="#000000" fill-rule="evenodd" fill-opacity="1" /><path clip-path="url(#clip030)" d="M 0 0 M128.427 225.186 Q124.816 225.186 122.987 228.751 Q121.181 232.292 121.181 239.422 Q121.181 246.528 122.987 250.093 Q124.816 253.635 128.427 253.635 Q132.061 253.635 133.867 250.093 Q135.695 246.528 135.695 239.422 Q135.695 232.292 133.867 228.751 Q132.061 225.186 128.427 225.186 M128.427 221.482 Q134.237 221.482 137.292 226.089 Q140.371 230.672 140.371 239.422 Q140.371 248.149 137.292 252.755 Q134.237 257.338 128.427 257.338 Q122.617 257.338 119.538 252.755 Q116.482 248.149 116.482 239.422 Q116.482 230.672 119.538 226.089 Q122.617 221.482 128.427 221.482 Z" fill="#000000" fill-rule="evenodd" fill-opacity="1" /><path clip-path="url(#clip030)" d="M 0 0 M145.441 250.787 L150.325 250.787 L150.325 256.667 L145.441 256.667 L145.441 250.787 Z" fill="#000000" fill-rule="evenodd" fill-opacity="1" /><path clip-path="url(#clip030)" d="M 0 0 M156.204 252.732 L163.843 252.732 L163.843 226.366 L155.533 228.033 L155.533 223.774 L163.797 222.107 L168.473 222.107 L168.473 252.732 L176.112 252.732 L176.112 256.667 L156.204 256.667 L156.204 252.732 Z" fill="#000000" fill-rule="evenodd" fill-opacity="1" /><path clip-path="url(#clip030)" d="M 0 0 M181.227 222.107 L199.584 222.107 L199.584 226.042 L185.51 226.042 L185.51 234.514 Q186.528 234.167 187.547 234.005 Q188.565 233.82 189.584 233.82 Q195.371 233.82 198.75 236.991 Q202.13 240.163 202.13 245.579 Q202.13 251.158 198.658 254.26 Q195.186 257.338 188.866 257.338 Q186.69 257.338 184.422 256.968 Q182.176 256.598 179.769 255.857 L179.769 251.158 Q181.852 252.292 184.075 252.848 Q186.297 253.403 188.774 253.403 Q192.778 253.403 195.116 251.297 Q197.454 249.19 197.454 245.579 Q197.454 241.968 195.116 239.862 Q192.778 237.755 188.774 237.755 Q186.899 237.755 185.024 238.172 Q183.172 238.588 181.227 239.468 L181.227 222.107 Z" fill="#000000" fill-rule="evenodd" fill-opacity="1" /><path clip-path="url(#clip030)" d="M 0 0 M21.7677 783.05 L39.6235 783.05 L39.6235 774.966 Q39.6235 770.478 37.3 768.027 Q34.9765 765.576 30.6797 765.576 Q26.4147 765.576 24.0912 768.027 Q21.7677 770.478 21.7677 774.966 L21.7677 783.05 M16.4842 789.48 L16.4842 774.966 Q16.4842 766.977 20.1126 762.903 Q23.7092 758.797 30.6797 758.797 Q37.7138 758.797 41.3104 762.903 Q44.907 766.977 44.907 774.966 L44.907 783.05 L64.0042 783.05 L64.0042 789.48 L16.4842 789.48 Z" fill="#000000" fill-rule="evenodd" fill-opacity="1" /><path clip-path="url(#clip030)" d="M 0 0 M14.5426 738.586 Q21.8632 742.851 29.0246 744.92 Q36.186 746.989 43.5384 746.989 Q50.8908 746.989 58.1159 744.92 Q65.3091 742.819 72.5979 738.586 L72.5979 743.678 Q65.1182 748.453 57.8931 750.84 Q50.668 753.195 43.5384 753.195 Q36.4406 753.195 29.2474 750.84 Q22.0542 748.484 14.5426 743.678 L14.5426 738.586 Z" fill="#000000" fill-rule="evenodd" fill-opacity="1" /><path clip-path="url(#clip030)" d="M 0 0 M58.657 726.777 L77.5631 726.777 L77.5631 732.666 L28.3562 732.666 L28.3562 726.777 L33.7671 726.777 Q30.5842 724.931 29.0564 722.13 Q27.4968 719.298 27.4968 715.383 Q27.4968 708.89 32.6531 704.848 Q37.8093 700.773 46.212 700.773 Q54.6147 700.773 59.771 704.848 Q64.9272 708.89 64.9272 715.383 Q64.9272 719.298 63.3994 722.13 Q61.8398 724.931 58.657 726.777 M46.212 706.853 Q39.7508 706.853 36.0905 709.526 Q32.3984 712.168 32.3984 716.815 Q32.3984 721.462 36.0905 724.136 Q39.7508 726.777 46.212 726.777 Q52.6732 726.777 56.3653 724.136 Q60.0256 721.462 60.0256 716.815 Q60.0256 712.168 56.3653 709.526 Q52.6732 706.853 46.212 706.853 Z" fill="#000000" fill-rule="evenodd" fill-opacity="1" /><path clip-path="url(#clip030)" d="M 0 0 M14.5426 695.554 L14.5426 690.461 Q22.0542 685.687 29.2474 683.331 Q36.4406 680.944 43.5384 680.944 Q50.668 680.944 57.8931 683.331 Q65.1182 685.687 72.5979 690.461 L72.5979 695.554 Q65.3091 691.32 58.1159 689.252 Q50.8908 687.151 43.5384 687.151 Q36.186 687.151 29.0246 689.252 Q21.8632 691.32 14.5426 695.554 Z" fill="#000000" fill-rule="evenodd" fill-opacity="1" /><path clip-path="url(#clip032)" d="
M354.438 501.134 L354.438 1384.24 L426.823 1384.24 L426.823 501.134 L354.438 501.134 L354.438 501.134  Z
  " fill="#009af9" fill-rule="evenodd" fill-opacity="1"/>
<polyline clip-path="url(#clip032)" style="stroke:#000000; stroke-width:4; stroke-opacity:1; fill:none" points="
  354.438,501.134 354.438,1384.24 426.823,1384.24 426.823,501.134 354.438,501.134 
  "/>
<path clip-path="url(#clip032)" d="
M426.823 160.403 L426.823 1384.24 L499.208 1384.24 L499.208 160.403 L426.823 160.403 L426.823 160.403  Z
  " fill="#009af9" fill-rule="evenodd" fill-opacity="1"/>
<polyline clip-path="url(#clip032)" style="stroke:#000000; stroke-width:4; stroke-opacity:1; fill:none" points="
  426.823,160.403 426.823,1384.24 499.208,1384.24 499.208,160.403 426.823,160.403 
  "/>
<path clip-path="url(#clip032)" d="
M499.208 86.1857 L499.208 1384.24 L571.593 1384.24 L571.593 86.1857 L499.208 86.1857 L499.208 86.1857  Z
  " fill="#009af9" fill-rule="evenodd" fill-opacity="1"/>
<polyline clip-path="url(#clip032)" style="stroke:#000000; stroke-width:4; stroke-opacity:1; fill:none" points="
  499.208,86.1857 499.208,1384.24 571.593,1384.24 571.593,86.1857 499.208,86.1857 
  "/>
<path clip-path="url(#clip032)" d="
M571.593 214.994 L571.593 1384.24 L643.978 1384.24 L643.978 214.994 L571.593 214.994 L571.593 214.994  Z
  " fill="#009af9" fill-rule="evenodd" fill-opacity="1"/>
<polyline clip-path="url(#clip032)" style="stroke:#000000; stroke-width:4; stroke-opacity:1; fill:none" points="
  571.593,214.994 571.593,1384.24 643.978,1384.24 643.978,214.994 571.593,214.994 
  "/>
<path clip-path="url(#clip032)" d="
M643.978 430.584 L643.978 1384.24 L716.363 1384.24 L716.363 430.584 L643.978 430.584 L643.978 430.584  Z
  " fill="#009af9" fill-rule="evenodd" fill-opacity="1"/>
<polyline clip-path="url(#clip032)" style="stroke:#000000; stroke-width:4; stroke-opacity:1; fill:none" points="
  643.978,430.584 643.978,1384.24 716.363,1384.24 716.363,430.584 643.978,430.584 
  "/>
<path clip-path="url(#clip032)" d="
M716.363 662.969 L716.363 1384.24 L788.748 1384.24 L788.748 662.969 L716.363 662.969 L716.363 662.969  Z
  " fill="#009af9" fill-rule="evenodd" fill-opacity="1"/>
<polyline clip-path="url(#clip032)" style="stroke:#000000; stroke-width:4; stroke-opacity:1; fill:none" points="
  716.363,662.969 716.363,1384.24 788.748,1384.24 788.748,662.969 716.363,662.969 
  "/>
<path clip-path="url(#clip032)" d="
M788.748 876.99 L788.748 1384.24 L861.133 1384.24 L861.133 876.99 L788.748 876.99 L788.748 876.99  Z
  " fill="#009af9" fill-rule="evenodd" fill-opacity="1"/>
<polyline clip-path="url(#clip032)" style="stroke:#000000; stroke-width:4; stroke-opacity:1; fill:none" points="
  788.748,876.99 788.748,1384.24 861.133,1384.24 861.133,876.99 788.748,876.99 
  "/>
<path clip-path="url(#clip032)" d="
M861.133 1043.29 L861.133 1384.24 L933.518 1384.24 L933.518 1043.29 L861.133 1043.29 L861.133 1043.29  Z
  " fill="#009af9" fill-rule="evenodd" fill-opacity="1"/>
<polyline clip-path="url(#clip032)" style="stroke:#000000; stroke-width:4; stroke-opacity:1; fill:none" points="
  861.133,1043.29 861.133,1384.24 933.518,1384.24 933.518,1043.29 861.133,1043.29 
  "/>
<path clip-path="url(#clip032)" d="
M933.518 1167.8 L933.518 1384.24 L1005.9 1384.24 L1005.9 1167.8 L933.518 1167.8 L933.518 1167.8  Z
  " fill="#009af9" fill-rule="evenodd" fill-opacity="1"/>
<polyline clip-path="url(#clip032)" style="stroke:#000000; stroke-width:4; stroke-opacity:1; fill:none" points="
  933.518,1167.8 933.518,1384.24 1005.9,1384.24 1005.9,1167.8 933.518,1167.8 
  "/>
<path clip-path="url(#clip032)" d="
M1005.9 1249.53 L1005.9 1384.24 L1078.29 1384.24 L1078.29 1249.53 L1005.9 1249.53 L1005.9 1249.53  Z
  " fill="#009af9" fill-rule="evenodd" fill-opacity="1"/>
<polyline clip-path="url(#clip032)" style="stroke:#000000; stroke-width:4; stroke-opacity:1; fill:none" points="
  1005.9,1249.53 1005.9,1384.24 1078.29,1384.24 1078.29,1249.53 1005.9,1249.53 
  "/>
<path clip-path="url(#clip032)" d="
M1078.29 1303.3 L1078.29 1384.24 L1150.67 1384.24 L1150.67 1303.3 L1078.29 1303.3 L1078.29 1303.3  Z
  " fill="#009af9" fill-rule="evenodd" fill-opacity="1"/>
<polyline clip-path="url(#clip032)" style="stroke:#000000; stroke-width:4; stroke-opacity:1; fill:none" points="
  1078.29,1303.3 1078.29,1384.24 1150.67,1384.24 1150.67,1303.3 1078.29,1303.3 
  "/>
<path clip-path="url(#clip032)" d="
M1150.67 1338.31 L1150.67 1384.24 L1223.06 1384.24 L1223.06 1338.31 L1150.67 1338.31 L1150.67 1338.31  Z
  " fill="#009af9" fill-rule="evenodd" fill-opacity="1"/>
<polyline clip-path="url(#clip032)" style="stroke:#000000; stroke-width:4; stroke-opacity:1; fill:none" points="
  1150.67,1338.31 1150.67,1384.24 1223.06,1384.24 1223.06,1338.31 1150.67,1338.31 
  "/>
<path clip-path="url(#clip032)" d="
M1223.06 1358.26 L1223.06 1384.24 L1295.44 1384.24 L1295.44 1358.26 L1223.06 1358.26 L1223.06 1358.26  Z
  " fill="#009af9" fill-rule="evenodd" fill-opacity="1"/>
<polyline clip-path="url(#clip032)" style="stroke:#000000; stroke-width:4; stroke-opacity:1; fill:none" points="
  1223.06,1358.26 1223.06,1384.24 1295.44,1384.24 1295.44,1358.26 1223.06,1358.26 
  "/>
<path clip-path="url(#clip032)" d="
M1295.44 1369.6 L1295.44 1384.24 L1367.83 1384.24 L1367.83 1369.6 L1295.44 1369.6 L1295.44 1369.6  Z
  " fill="#009af9" fill-rule="evenodd" fill-opacity="1"/>
<polyline clip-path="url(#clip032)" style="stroke:#000000; stroke-width:4; stroke-opacity:1; fill:none" points="
  1295.44,1369.6 1295.44,1384.24 1367.83,1384.24 1367.83,1369.6 1295.44,1369.6 
  "/>
<path clip-path="url(#clip032)" d="
M1367.83 1376.78 L1367.83 1384.24 L1440.21 1384.24 L1440.21 1376.78 L1367.83 1376.78 L1367.83 1376.78  Z
  " fill="#009af9" fill-rule="evenodd" fill-opacity="1"/>
<polyline clip-path="url(#clip032)" style="stroke:#000000; stroke-width:4; stroke-opacity:1; fill:none" points="
  1367.83,1376.78 1367.83,1384.24 1440.21,1384.24 1440.21,1376.78 1367.83,1376.78 
  "/>
<path clip-path="url(#clip032)" d="
M1440.21 1380.09 L1440.21 1384.24 L1512.6 1384.24 L1512.6 1380.09 L1440.21 1380.09 L1440.21 1380.09  Z
  " fill="#009af9" fill-rule="evenodd" fill-opacity="1"/>
<polyline clip-path="url(#clip032)" style="stroke:#000000; stroke-width:4; stroke-opacity:1; fill:none" points="
  1440.21,1380.09 1440.21,1384.24 1512.6,1384.24 1512.6,1380.09 1440.21,1380.09 
  "/>
<path clip-path="url(#clip032)" d="
M1512.6 1382.03 L1512.6 1384.24 L1584.98 1384.24 L1584.98 1382.03 L1512.6 1382.03 L1512.6 1382.03  Z
  " fill="#009af9" fill-rule="evenodd" fill-opacity="1"/>
<polyline clip-path="url(#clip032)" style="stroke:#000000; stroke-width:4; stroke-opacity:1; fill:none" points="
  1512.6,1382.03 1512.6,1384.24 1584.98,1384.24 1584.98,1382.03 1512.6,1382.03 
  "/>
<path clip-path="url(#clip032)" d="
M1584.98 1383.01 L1584.98 1384.24 L1657.37 1384.24 L1657.37 1383.01 L1584.98 1383.01 L1584.98 1383.01  Z
  " fill="#009af9" fill-rule="evenodd" fill-opacity="1"/>
<polyline clip-path="url(#clip032)" style="stroke:#000000; stroke-width:4; stroke-opacity:1; fill:none" points="
  1584.98,1383.01 1584.98,1384.24 1657.37,1384.24 1657.37,1383.01 1584.98,1383.01 
  "/>
<path clip-path="url(#clip032)" d="
M1657.37 1383.74 L1657.37 1384.24 L1729.75 1384.24 L1729.75 1383.74 L1657.37 1383.74 L1657.37 1383.74  Z
  " fill="#009af9" fill-rule="evenodd" fill-opacity="1"/>
<polyline clip-path="url(#clip032)" style="stroke:#000000; stroke-width:4; stroke-opacity:1; fill:none" points="
  1657.37,1383.74 1657.37,1384.24 1729.75,1384.24 1729.75,1383.74 1657.37,1383.74 
  "/>
<path clip-path="url(#clip032)" d="
M1729.75 1383.79 L1729.75 1384.24 L1802.14 1384.24 L1802.14 1383.79 L1729.75 1383.79 L1729.75 1383.79  Z
  " fill="#009af9" fill-rule="evenodd" fill-opacity="1"/>
<polyline clip-path="url(#clip032)" style="stroke:#000000; stroke-width:4; stroke-opacity:1; fill:none" points="
  1729.75,1383.79 1729.75,1384.24 1802.14,1384.24 1802.14,1383.79 1729.75,1383.79 
  "/>
<path clip-path="url(#clip032)" d="
M1802.14 1384.05 L1802.14 1384.24 L1874.52 1384.24 L1874.52 1384.05 L1802.14 1384.05 L1802.14 1384.05  Z
  " fill="#009af9" fill-rule="evenodd" fill-opacity="1"/>
<polyline clip-path="url(#clip032)" style="stroke:#000000; stroke-width:4; stroke-opacity:1; fill:none" points="
  1802.14,1384.05 1802.14,1384.24 1874.52,1384.24 1874.52,1384.05 1802.14,1384.05 
  "/>
<path clip-path="url(#clip032)" d="
M1874.52 1384.19 L1874.52 1384.24 L1946.91 1384.24 L1946.91 1384.19 L1874.52 1384.19 L1874.52 1384.19  Z
  " fill="#009af9" fill-rule="evenodd" fill-opacity="1"/>
<polyline clip-path="url(#clip032)" style="stroke:#000000; stroke-width:4; stroke-opacity:1; fill:none" points="
  1874.52,1384.19 1874.52,1384.24 1946.91,1384.24 1946.91,1384.19 1874.52,1384.19 
  "/>
<path clip-path="url(#clip032)" d="
M1946.91 1384.18 L1946.91 1384.24 L2019.29 1384.24 L2019.29 1384.18 L1946.91 1384.18 L1946.91 1384.18  Z
  " fill="#009af9" fill-rule="evenodd" fill-opacity="1"/>
<polyline clip-path="url(#clip032)" style="stroke:#000000; stroke-width:4; stroke-opacity:1; fill:none" points="
  1946.91,1384.18 1946.91,1384.24 2019.29,1384.24 2019.29,1384.18 1946.91,1384.18 
  "/>
<path clip-path="url(#clip032)" d="
M2019.29 1384.22 L2019.29 1384.24 L2091.68 1384.24 L2091.68 1384.22 L2019.29 1384.22 L2019.29 1384.22  Z
  " fill="#009af9" fill-rule="evenodd" fill-opacity="1"/>
<polyline clip-path="url(#clip032)" style="stroke:#000000; stroke-width:4; stroke-opacity:1; fill:none" points="
  2019.29,1384.22 2019.29,1384.24 2091.68,1384.24 2091.68,1384.22 2019.29,1384.22 
  "/>
<path clip-path="url(#clip032)" d="
M2091.68 1384.23 L2091.68 1384.24 L2164.06 1384.24 L2164.06 1384.23 L2091.68 1384.23 L2091.68 1384.23  Z
  " fill="#009af9" fill-rule="evenodd" fill-opacity="1"/>
<polyline clip-path="url(#clip032)" style="stroke:#000000; stroke-width:4; stroke-opacity:1; fill:none" points="
  2091.68,1384.23 2091.68,1384.24 2164.06,1384.24 2164.06,1384.23 2091.68,1384.23 
  "/>
<path clip-path="url(#clip032)" d="
M2164.06 1384.21 L2164.06 1384.24 L2236.45 1384.24 L2236.45 1384.21 L2164.06 1384.21 L2164.06 1384.21  Z
  " fill="#009af9" fill-rule="evenodd" fill-opacity="1"/>
<polyline clip-path="url(#clip032)" style="stroke:#000000; stroke-width:4; stroke-opacity:1; fill:none" points="
  2164.06,1384.21 2164.06,1384.24 2236.45,1384.24 2236.45,1384.21 2164.06,1384.21 
  "/>
<polyline clip-path="url(#clip032)" style="stroke:#e26f46; stroke-width:4; stroke-opacity:1; fill:none" points="
  593.463,2799.12 593.463,-1328.69 
  "/>
<polyline clip-path="url(#clip032)" style="stroke:#3da44d; stroke-width:4; stroke-opacity:1; fill:none" points="
  593.314,2799.12 593.314,-1328.69 
  "/>
<path clip-path="url(#clip030)" d="
M1689.56 335.029 L2282.27 335.029 L2282.27 93.1086 L1689.56 93.1086  Z
  " fill="#ffffff" fill-rule="evenodd" fill-opacity="1"/>
<polyline clip-path="url(#clip030)" style="stroke:#000000; stroke-width:4; stroke-opacity:1; fill:none" points="
  1689.56,335.029 2282.27,335.029 2282.27,93.1086 1689.56,93.1086 1689.56,335.029 
  "/>
<path clip-path="url(#clip030)" d="
M1713.05 177.781 L1854.03 177.781 L1854.03 129.397 L1713.05 129.397 L1713.05 177.781  Z
  " fill="#009af9" fill-rule="evenodd" fill-opacity="1"/>
<polyline clip-path="url(#clip030)" style="stroke:#000000; stroke-width:4; stroke-opacity:1; fill:none" points="
  1713.05,177.781 1854.03,177.781 1854.03,129.397 1713.05,129.397 1713.05,177.781 
  "/>
<path clip-path="url(#clip030)" d="M 0 0 M1891.37 173.276 Q1889.56 177.906 1887.85 179.318 Q1886.14 180.73 1883.26 180.73 L1879.86 180.73 L1879.86 177.165 L1882.36 177.165 Q1884.12 177.165 1885.09 176.332 Q1886.07 175.498 1887.25 172.396 L1888.01 170.452 L1877.52 144.943 L1882.04 144.943 L1890.14 165.221 L1898.24 144.943 L1902.76 144.943 L1891.37 173.276 Z" fill="#000000" fill-rule="evenodd" fill-opacity="1" /><path clip-path="url(#clip030)" d="M 0 0 M1908.63 166.933 L1916.27 166.933 L1916.27 140.568 L1907.96 142.235 L1907.96 137.975 L1916.23 136.309 L1920.9 136.309 L1920.9 166.933 L1928.54 166.933 L1928.54 170.869 L1908.63 170.869 L1908.63 166.933 Z" fill="#000000" fill-rule="evenodd" fill-opacity="1" /><polyline clip-path="url(#clip030)" style="stroke:#e26f46; stroke-width:4; stroke-opacity:1; fill:none" points="
  1713.05,214.069 1854.03,214.069 
  "/>
<path clip-path="url(#clip030)" d="M 0 0 M1884.93 198.062 L1884.93 205.423 L1893.7 205.423 L1893.7 208.733 L1884.93 208.733 L1884.93 222.807 Q1884.93 225.978 1885.79 226.881 Q1886.67 227.784 1889.33 227.784 L1893.7 227.784 L1893.7 231.349 L1889.33 231.349 Q1884.4 231.349 1882.52 229.52 Q1880.65 227.668 1880.65 222.807 L1880.65 208.733 L1877.52 208.733 L1877.52 205.423 L1880.65 205.423 L1880.65 198.062 L1884.93 198.062 Z" fill="#000000" fill-rule="evenodd" fill-opacity="1" /><path clip-path="url(#clip030)" d="M 0 0 M1919.72 215.701 L1919.72 231.349 L1915.46 231.349 L1915.46 215.839 Q1915.46 212.159 1914.03 210.33 Q1912.59 208.502 1909.72 208.502 Q1906.27 208.502 1904.28 210.701 Q1902.29 212.9 1902.29 216.696 L1902.29 231.349 L1898.01 231.349 L1898.01 195.33 L1902.29 195.33 L1902.29 209.451 Q1903.82 207.113 1905.88 205.955 Q1907.96 204.798 1910.67 204.798 Q1915.14 204.798 1917.43 207.576 Q1919.72 210.33 1919.72 215.701 Z" fill="#000000" fill-rule="evenodd" fill-opacity="1" /><path clip-path="url(#clip030)" d="M 0 0 M1946.37 217.321 L1946.37 219.404 L1926.78 219.404 Q1927.06 223.802 1929.42 226.117 Q1931.81 228.409 1936.04 228.409 Q1938.5 228.409 1940.79 227.807 Q1943.1 227.205 1945.37 226.001 L1945.37 230.029 Q1943.08 231.001 1940.67 231.511 Q1938.26 232.02 1935.79 232.02 Q1929.58 232.02 1925.95 228.409 Q1922.34 224.798 1922.34 218.64 Q1922.34 212.275 1925.76 208.548 Q1929.21 204.798 1935.05 204.798 Q1940.28 204.798 1943.31 208.177 Q1946.37 211.534 1946.37 217.321 M1942.11 216.071 Q1942.06 212.576 1940.14 210.492 Q1938.24 208.409 1935.09 208.409 Q1931.53 208.409 1929.38 210.423 Q1927.25 212.437 1926.92 216.094 L1942.11 216.071 Z" fill="#000000" fill-rule="evenodd" fill-opacity="1" /><path clip-path="url(#clip030)" d="M 0 0 M1960.88 208.409 Q1957.45 208.409 1955.46 211.094 Q1953.47 213.756 1953.47 218.409 Q1953.47 223.062 1955.44 225.747 Q1957.43 228.409 1960.88 228.409 Q1964.28 228.409 1966.27 225.724 Q1968.26 223.038 1968.26 218.409 Q1968.26 213.802 1966.27 211.117 Q1964.28 208.409 1960.88 208.409 M1960.88 204.798 Q1966.44 204.798 1969.61 208.409 Q1972.78 212.02 1972.78 218.409 Q1972.78 224.775 1969.61 228.409 Q1966.44 232.02 1960.88 232.02 Q1955.3 232.02 1952.13 228.409 Q1948.98 224.775 1948.98 218.409 Q1948.98 212.02 1952.13 208.409 Q1955.3 204.798 1960.88 204.798 Z" fill="#000000" fill-rule="evenodd" fill-opacity="1" /><path clip-path="url(#clip030)" d="M 0 0 M1992.27 209.404 Q1991.55 208.988 1990.69 208.802 Q1989.86 208.594 1988.84 208.594 Q1985.23 208.594 1983.29 210.955 Q1981.37 213.293 1981.37 217.691 L1981.37 231.349 L1977.08 231.349 L1977.08 205.423 L1981.37 205.423 L1981.37 209.451 Q1982.71 207.089 1984.86 205.955 Q1987.01 204.798 1990.09 204.798 Q1990.53 204.798 1991.07 204.867 Q1991.6 204.914 1992.25 205.029 L1992.27 209.404 Z" fill="#000000" fill-rule="evenodd" fill-opacity="1" /><path clip-path="url(#clip030)" d="M 0 0 M2017.87 217.321 L2017.87 219.404 L1998.29 219.404 Q1998.56 223.802 2000.93 226.117 Q2003.31 228.409 2007.55 228.409 Q2010 228.409 2012.29 227.807 Q2014.61 227.205 2016.88 226.001 L2016.88 230.029 Q2014.58 231.001 2012.18 231.511 Q2009.77 232.02 2007.29 232.02 Q2001.09 232.02 1997.45 228.409 Q1993.84 224.798 1993.84 218.64 Q1993.84 212.275 1997.27 208.548 Q2000.72 204.798 2006.55 204.798 Q2011.78 204.798 2014.81 208.177 Q2017.87 211.534 2017.87 217.321 M2013.61 216.071 Q2013.56 212.576 2011.64 210.492 Q2009.75 208.409 2006.6 208.409 Q2003.03 208.409 2000.88 210.423 Q1998.75 212.437 1998.43 216.094 L2013.61 216.071 Z" fill="#000000" fill-rule="evenodd" fill-opacity="1" /><path clip-path="url(#clip030)" d="M 0 0 M2026.55 198.062 L2026.55 205.423 L2035.32 205.423 L2035.32 208.733 L2026.55 208.733 L2026.55 222.807 Q2026.55 225.978 2027.41 226.881 Q2028.29 227.784 2030.95 227.784 L2035.32 227.784 L2035.32 231.349 L2030.95 231.349 Q2026.02 231.349 2024.14 229.52 Q2022.27 227.668 2022.27 222.807 L2022.27 208.733 L2019.14 208.733 L2019.14 205.423 L2022.27 205.423 L2022.27 198.062 L2026.55 198.062 Z" fill="#000000" fill-rule="evenodd" fill-opacity="1" /><path clip-path="url(#clip030)" d="M 0 0 M2039.79 205.423 L2044.05 205.423 L2044.05 231.349 L2039.79 231.349 L2039.79 205.423 M2039.79 195.33 L2044.05 195.33 L2044.05 200.724 L2039.79 200.724 L2039.79 195.33 Z" fill="#000000" fill-rule="evenodd" fill-opacity="1" /><path clip-path="url(#clip030)" d="M 0 0 M2067.18 206.418 L2067.18 210.4 Q2065.37 209.404 2063.54 208.918 Q2061.74 208.409 2059.88 208.409 Q2055.74 208.409 2053.45 211.048 Q2051.16 213.664 2051.16 218.409 Q2051.16 223.154 2053.45 225.793 Q2055.74 228.409 2059.88 228.409 Q2061.74 228.409 2063.54 227.923 Q2065.37 227.413 2067.18 226.418 L2067.18 230.353 Q2065.39 231.187 2063.47 231.603 Q2061.57 232.02 2059.42 232.02 Q2053.56 232.02 2050.12 228.339 Q2046.67 224.659 2046.67 218.409 Q2046.67 212.066 2050.14 208.432 Q2053.63 204.798 2059.7 204.798 Q2061.67 204.798 2063.54 205.215 Q2065.42 205.608 2067.18 206.418 Z" fill="#000000" fill-rule="evenodd" fill-opacity="1" /><path clip-path="url(#clip030)" d="M 0 0 M2083.43 218.316 Q2078.26 218.316 2076.27 219.497 Q2074.28 220.677 2074.28 223.525 Q2074.28 225.793 2075.76 227.136 Q2077.27 228.455 2079.84 228.455 Q2083.38 228.455 2085.51 225.955 Q2087.66 223.432 2087.66 219.265 L2087.66 218.316 L2083.43 218.316 M2091.92 216.557 L2091.92 231.349 L2087.66 231.349 L2087.66 227.413 Q2086.2 229.775 2084.03 230.909 Q2081.85 232.02 2078.7 232.02 Q2074.72 232.02 2072.36 229.798 Q2070.02 227.552 2070.02 223.802 Q2070.02 219.427 2072.94 217.205 Q2075.88 214.983 2081.69 214.983 L2087.66 214.983 L2087.66 214.566 Q2087.66 211.627 2085.72 210.029 Q2083.8 208.409 2080.3 208.409 Q2078.08 208.409 2075.97 208.941 Q2073.87 209.474 2071.92 210.539 L2071.92 206.603 Q2074.26 205.701 2076.46 205.261 Q2078.66 204.798 2080.74 204.798 Q2086.37 204.798 2089.14 207.714 Q2091.92 210.631 2091.92 216.557 Z" fill="#000000" fill-rule="evenodd" fill-opacity="1" /><path clip-path="url(#clip030)" d="M 0 0 M2096.39 195.33 L2100.65 195.33 L2100.65 231.349 L2096.39 231.349 L2096.39 195.33 Z" fill="#000000" fill-rule="evenodd" fill-opacity="1" /><path clip-path="url(#clip030)" d="M 0 0 M2140.37 210.4 Q2141.97 207.529 2144.19 206.164 Q2146.41 204.798 2149.42 204.798 Q2153.47 204.798 2155.67 207.645 Q2157.87 210.469 2157.87 215.701 L2157.87 231.349 L2153.59 231.349 L2153.59 215.839 Q2153.59 212.113 2152.27 210.307 Q2150.95 208.502 2148.24 208.502 Q2144.93 208.502 2143.01 210.701 Q2141.09 212.9 2141.09 216.696 L2141.09 231.349 L2136.8 231.349 L2136.8 215.839 Q2136.8 212.089 2135.49 210.307 Q2134.17 208.502 2131.41 208.502 Q2128.15 208.502 2126.23 210.724 Q2124.31 212.923 2124.31 216.696 L2124.31 231.349 L2120.02 231.349 L2120.02 205.423 L2124.31 205.423 L2124.31 209.451 Q2125.76 207.066 2127.8 205.932 Q2129.84 204.798 2132.64 204.798 Q2135.46 204.798 2137.43 206.233 Q2139.42 207.668 2140.37 210.4 Z" fill="#000000" fill-rule="evenodd" fill-opacity="1" /><path clip-path="url(#clip030)" d="M 0 0 M2184.51 217.321 L2184.51 219.404 L2164.93 219.404 Q2165.21 223.802 2167.57 226.117 Q2169.95 228.409 2174.19 228.409 Q2176.64 228.409 2178.93 227.807 Q2181.25 227.205 2183.52 226.001 L2183.52 230.029 Q2181.23 231.001 2178.82 231.511 Q2176.41 232.02 2173.93 232.02 Q2167.73 232.02 2164.1 228.409 Q2160.49 224.798 2160.49 218.64 Q2160.49 212.275 2163.91 208.548 Q2167.36 204.798 2173.19 204.798 Q2178.43 204.798 2181.46 208.177 Q2184.51 211.534 2184.51 217.321 M2180.25 216.071 Q2180.21 212.576 2178.29 210.492 Q2176.39 208.409 2173.24 208.409 Q2169.68 208.409 2167.52 210.423 Q2165.39 212.437 2165.07 216.094 L2180.25 216.071 Z" fill="#000000" fill-rule="evenodd" fill-opacity="1" /><path clip-path="url(#clip030)" d="M 0 0 M2200.76 218.316 Q2195.6 218.316 2193.61 219.497 Q2191.62 220.677 2191.62 223.525 Q2191.62 225.793 2193.1 227.136 Q2194.61 228.455 2197.18 228.455 Q2200.72 228.455 2202.85 225.955 Q2205 223.432 2205 219.265 L2205 218.316 L2200.76 218.316 M2209.26 216.557 L2209.26 231.349 L2205 231.349 L2205 227.413 Q2203.54 229.775 2201.36 230.909 Q2199.19 232.02 2196.04 232.02 Q2192.06 232.02 2189.7 229.798 Q2187.36 227.552 2187.36 223.802 Q2187.36 219.427 2190.28 217.205 Q2193.22 214.983 2199.03 214.983 L2205 214.983 L2205 214.566 Q2205 211.627 2203.05 210.029 Q2201.13 208.409 2197.64 208.409 Q2195.42 208.409 2193.31 208.941 Q2191.2 209.474 2189.26 210.539 L2189.26 206.603 Q2191.6 205.701 2193.8 205.261 Q2195.99 204.798 2198.08 204.798 Q2203.7 204.798 2206.48 207.714 Q2209.26 210.631 2209.26 216.557 Z" fill="#000000" fill-rule="evenodd" fill-opacity="1" /><path clip-path="url(#clip030)" d="M 0 0 M2235.28 215.701 L2235.28 231.349 L2231.02 231.349 L2231.02 215.839 Q2231.02 212.159 2229.58 210.33 Q2228.15 208.502 2225.28 208.502 Q2221.83 208.502 2219.84 210.701 Q2217.85 212.9 2217.85 216.696 L2217.85 231.349 L2213.56 231.349 L2213.56 205.423 L2217.85 205.423 L2217.85 209.451 Q2219.37 207.113 2221.43 205.955 Q2223.52 204.798 2226.23 204.798 Q2230.69 204.798 2232.99 207.576 Q2235.28 210.33 2235.28 215.701 Z" fill="#000000" fill-rule="evenodd" fill-opacity="1" /><polyline clip-path="url(#clip030)" style="stroke:#3da44d; stroke-width:4; stroke-opacity:1; fill:none" points="
  1713.05,274.549 1854.03,274.549 
  "/>
<path clip-path="url(#clip030)" d="M 0 0 M1895.95 266.667 L1895.95 270.694 Q1894.14 269.769 1892.2 269.306 Q1890.26 268.843 1888.17 268.843 Q1885 268.843 1883.4 269.815 Q1881.83 270.787 1881.83 272.731 Q1881.83 274.213 1882.96 275.069 Q1884.1 275.903 1887.52 276.667 L1888.98 276.991 Q1893.52 277.963 1895.42 279.745 Q1897.34 281.505 1897.34 284.676 Q1897.34 288.287 1894.47 290.393 Q1891.62 292.5 1886.62 292.5 Q1884.54 292.5 1882.27 292.083 Q1880.02 291.69 1877.52 290.88 L1877.52 286.481 Q1879.89 287.708 1882.18 288.333 Q1884.47 288.935 1886.71 288.935 Q1889.72 288.935 1891.34 287.917 Q1892.96 286.875 1892.96 285 Q1892.96 283.264 1891.78 282.338 Q1890.63 281.412 1886.67 280.556 L1885.19 280.208 Q1881.23 279.375 1879.47 277.662 Q1877.71 275.926 1877.71 272.917 Q1877.71 269.259 1880.3 267.269 Q1882.89 265.278 1887.66 265.278 Q1890.02 265.278 1892.11 265.625 Q1894.19 265.972 1895.95 266.667 Z" fill="#000000" fill-rule="evenodd" fill-opacity="1" /><path clip-path="url(#clip030)" d="M 0 0 M1906.02 258.542 L1906.02 265.903 L1914.79 265.903 L1914.79 269.213 L1906.02 269.213 L1906.02 283.287 Q1906.02 286.458 1906.88 287.361 Q1907.76 288.264 1910.42 288.264 L1914.79 288.264 L1914.79 291.829 L1910.42 291.829 Q1905.49 291.829 1903.61 290 Q1901.74 288.148 1901.74 283.287 L1901.74 269.213 L1898.61 269.213 L1898.61 265.903 L1901.74 265.903 L1901.74 258.542 L1906.02 258.542 Z" fill="#000000" fill-rule="evenodd" fill-opacity="1" /><path clip-path="url(#clip030)" d="M 0 0 M1931.04 278.796 Q1925.88 278.796 1923.89 279.977 Q1921.9 281.157 1921.9 284.005 Q1921.9 286.273 1923.38 287.616 Q1924.88 288.935 1927.45 288.935 Q1931 288.935 1933.13 286.435 Q1935.28 283.912 1935.28 279.745 L1935.28 278.796 L1931.04 278.796 M1939.54 277.037 L1939.54 291.829 L1935.28 291.829 L1935.28 287.893 Q1933.82 290.255 1931.64 291.389 Q1929.47 292.5 1926.32 292.5 Q1922.34 292.5 1919.98 290.278 Q1917.64 288.032 1917.64 284.282 Q1917.64 279.907 1920.56 277.685 Q1923.5 275.463 1929.31 275.463 L1935.28 275.463 L1935.28 275.046 Q1935.28 272.107 1933.33 270.509 Q1931.41 268.889 1927.92 268.889 Q1925.7 268.889 1923.59 269.421 Q1921.48 269.954 1919.54 271.019 L1919.54 267.083 Q1921.88 266.181 1924.07 265.741 Q1926.27 265.278 1928.36 265.278 Q1933.98 265.278 1936.76 268.194 Q1939.54 271.111 1939.54 277.037 Z" fill="#000000" fill-rule="evenodd" fill-opacity="1" /><path clip-path="url(#clip030)" d="M 0 0 M1948.22 258.542 L1948.22 265.903 L1956.99 265.903 L1956.99 269.213 L1948.22 269.213 L1948.22 283.287 Q1948.22 286.458 1949.07 287.361 Q1949.95 288.264 1952.62 288.264 L1956.99 288.264 L1956.99 291.829 L1952.62 291.829 Q1947.69 291.829 1945.81 290 Q1943.94 288.148 1943.94 283.287 L1943.94 269.213 L1940.81 269.213 L1940.81 265.903 L1943.94 265.903 L1943.94 258.542 L1948.22 258.542 Z" fill="#000000" fill-rule="evenodd" fill-opacity="1" /><path clip-path="url(#clip030)" d="M 0 0 M1961.46 265.903 L1965.72 265.903 L1965.72 291.829 L1961.46 291.829 L1961.46 265.903 M1961.46 255.81 L1965.72 255.81 L1965.72 261.204 L1961.46 261.204 L1961.46 255.81 Z" fill="#000000" fill-rule="evenodd" fill-opacity="1" /><path clip-path="url(#clip030)" d="M 0 0 M1986.71 266.667 L1986.71 270.694 Q1984.91 269.769 1982.96 269.306 Q1981.02 268.843 1978.94 268.843 Q1975.76 268.843 1974.17 269.815 Q1972.59 270.787 1972.59 272.731 Q1972.59 274.213 1973.73 275.069 Q1974.86 275.903 1978.29 276.667 L1979.75 276.991 Q1984.28 277.963 1986.18 279.745 Q1988.1 281.505 1988.1 284.676 Q1988.1 288.287 1985.23 290.393 Q1982.38 292.5 1977.38 292.5 Q1975.3 292.5 1973.03 292.083 Q1970.79 291.69 1968.29 290.88 L1968.29 286.481 Q1970.65 287.708 1972.94 288.333 Q1975.23 288.935 1977.48 288.935 Q1980.49 288.935 1982.11 287.917 Q1983.73 286.875 1983.73 285 Q1983.73 283.264 1982.55 282.338 Q1981.39 281.412 1977.43 280.556 L1975.95 280.208 Q1971.99 279.375 1970.23 277.662 Q1968.47 275.926 1968.47 272.917 Q1968.47 269.259 1971.07 267.269 Q1973.66 265.278 1978.43 265.278 Q1980.79 265.278 1982.87 265.625 Q1984.95 265.972 1986.71 266.667 Z" fill="#000000" fill-rule="evenodd" fill-opacity="1" /><path clip-path="url(#clip030)" d="M 0 0 M1996.78 258.542 L1996.78 265.903 L2005.56 265.903 L2005.56 269.213 L1996.78 269.213 L1996.78 283.287 Q1996.78 286.458 1997.64 287.361 Q1998.52 288.264 2001.18 288.264 L2005.56 288.264 L2005.56 291.829 L2001.18 291.829 Q1996.25 291.829 1994.38 290 Q1992.5 288.148 1992.5 283.287 L1992.5 269.213 L1989.38 269.213 L1989.38 265.903 L1992.5 265.903 L1992.5 258.542 L1996.78 258.542 Z" fill="#000000" fill-rule="evenodd" fill-opacity="1" /><path clip-path="url(#clip030)" d="M 0 0 M2010.02 265.903 L2014.28 265.903 L2014.28 291.829 L2010.02 291.829 L2010.02 265.903 M2010.02 255.81 L2014.28 255.81 L2014.28 261.204 L2010.02 261.204 L2010.02 255.81 Z" fill="#000000" fill-rule="evenodd" fill-opacity="1" /><path clip-path="url(#clip030)" d="M 0 0 M2037.41 266.898 L2037.41 270.88 Q2035.6 269.884 2033.77 269.398 Q2031.97 268.889 2030.12 268.889 Q2025.97 268.889 2023.68 271.528 Q2021.39 274.144 2021.39 278.889 Q2021.39 283.634 2023.68 286.273 Q2025.97 288.889 2030.12 288.889 Q2031.97 288.889 2033.77 288.403 Q2035.6 287.893 2037.41 286.898 L2037.41 290.833 Q2035.62 291.667 2033.7 292.083 Q2031.81 292.5 2029.65 292.5 Q2023.8 292.5 2020.35 288.819 Q2016.9 285.139 2016.9 278.889 Q2016.9 272.546 2020.37 268.912 Q2023.87 265.278 2029.93 265.278 Q2031.9 265.278 2033.77 265.695 Q2035.65 266.088 2037.41 266.898 Z" fill="#000000" fill-rule="evenodd" fill-opacity="1" /><path clip-path="url(#clip030)" d="M 0 0 M2053.66 278.796 Q2048.5 278.796 2046.5 279.977 Q2044.51 281.157 2044.51 284.005 Q2044.51 286.273 2046 287.616 Q2047.5 288.935 2050.07 288.935 Q2053.61 288.935 2055.74 286.435 Q2057.89 283.912 2057.89 279.745 L2057.89 278.796 L2053.66 278.796 M2062.15 277.037 L2062.15 291.829 L2057.89 291.829 L2057.89 287.893 Q2056.44 290.255 2054.26 291.389 Q2052.08 292.5 2048.94 292.5 Q2044.95 292.5 2042.59 290.278 Q2040.25 288.032 2040.25 284.282 Q2040.25 279.907 2043.17 277.685 Q2046.11 275.463 2051.92 275.463 L2057.89 275.463 L2057.89 275.046 Q2057.89 272.107 2055.95 270.509 Q2054.03 268.889 2050.53 268.889 Q2048.31 268.889 2046.2 269.421 Q2044.1 269.954 2042.15 271.019 L2042.15 267.083 Q2044.49 266.181 2046.69 265.741 Q2048.89 265.278 2050.97 265.278 Q2056.6 265.278 2059.37 268.194 Q2062.15 271.111 2062.15 277.037 Z" fill="#000000" fill-rule="evenodd" fill-opacity="1" /><path clip-path="url(#clip030)" d="M 0 0 M2066.62 255.81 L2070.88 255.81 L2070.88 291.829 L2066.62 291.829 L2066.62 255.81 Z" fill="#000000" fill-rule="evenodd" fill-opacity="1" /><path clip-path="url(#clip030)" d="M 0 0 M2110.6 270.88 Q2112.2 268.009 2114.42 266.644 Q2116.64 265.278 2119.65 265.278 Q2123.7 265.278 2125.9 268.125 Q2128.1 270.949 2128.1 276.181 L2128.1 291.829 L2123.82 291.829 L2123.82 276.319 Q2123.82 272.593 2122.5 270.787 Q2121.18 268.982 2118.47 268.982 Q2115.16 268.982 2113.24 271.181 Q2111.32 273.38 2111.32 277.176 L2111.32 291.829 L2107.04 291.829 L2107.04 276.319 Q2107.04 272.569 2105.72 270.787 Q2104.4 268.982 2101.64 268.982 Q2098.38 268.982 2096.46 271.204 Q2094.54 273.403 2094.54 277.176 L2094.54 291.829 L2090.25 291.829 L2090.25 265.903 L2094.54 265.903 L2094.54 269.931 Q2096 267.546 2098.03 266.412 Q2100.07 265.278 2102.87 265.278 Q2105.69 265.278 2107.66 266.713 Q2109.65 268.148 2110.6 270.88 Z" fill="#000000" fill-rule="evenodd" fill-opacity="1" /><path clip-path="url(#clip030)" d="M 0 0 M2154.74 277.801 L2154.74 279.884 L2135.16 279.884 Q2135.44 284.282 2137.8 286.597 Q2140.18 288.889 2144.42 288.889 Q2146.87 288.889 2149.17 288.287 Q2151.48 287.685 2153.75 286.481 L2153.75 290.509 Q2151.46 291.481 2149.05 291.991 Q2146.64 292.5 2144.17 292.5 Q2137.96 292.5 2134.33 288.889 Q2130.72 285.278 2130.72 279.12 Q2130.72 272.755 2134.14 269.028 Q2137.59 265.278 2143.43 265.278 Q2148.66 265.278 2151.69 268.657 Q2154.74 272.014 2154.74 277.801 M2150.49 276.551 Q2150.44 273.056 2148.52 270.972 Q2146.62 268.889 2143.47 268.889 Q2139.91 268.889 2137.75 270.903 Q2135.62 272.917 2135.3 276.574 L2150.49 276.551 Z" fill="#000000" fill-rule="evenodd" fill-opacity="1" /><path clip-path="url(#clip030)" d="M 0 0 M2170.99 278.796 Q2165.83 278.796 2163.84 279.977 Q2161.85 281.157 2161.85 284.005 Q2161.85 286.273 2163.33 287.616 Q2164.84 288.935 2167.41 288.935 Q2170.95 288.935 2173.08 286.435 Q2175.23 283.912 2175.23 279.745 L2175.23 278.796 L2170.99 278.796 M2179.49 277.037 L2179.49 291.829 L2175.23 291.829 L2175.23 287.893 Q2173.77 290.255 2171.6 291.389 Q2169.42 292.5 2166.27 292.5 Q2162.29 292.5 2159.93 290.278 Q2157.59 288.032 2157.59 284.282 Q2157.59 279.907 2160.51 277.685 Q2163.45 275.463 2169.26 275.463 L2175.23 275.463 L2175.23 275.046 Q2175.23 272.107 2173.29 270.509 Q2171.36 268.889 2167.87 268.889 Q2165.65 268.889 2163.54 269.421 Q2161.43 269.954 2159.49 271.019 L2159.49 267.083 Q2161.83 266.181 2164.03 265.741 Q2166.23 265.278 2168.31 265.278 Q2173.93 265.278 2176.71 268.194 Q2179.49 271.111 2179.49 277.037 Z" fill="#000000" fill-rule="evenodd" fill-opacity="1" /><path clip-path="url(#clip030)" d="M 0 0 M2205.51 276.181 L2205.51 291.829 L2201.25 291.829 L2201.25 276.319 Q2201.25 272.639 2199.81 270.81 Q2198.38 268.982 2195.51 268.982 Q2192.06 268.982 2190.07 271.181 Q2188.08 273.38 2188.08 277.176 L2188.08 291.829 L2183.8 291.829 L2183.8 265.903 L2188.08 265.903 L2188.08 269.931 Q2189.61 267.593 2191.67 266.435 Q2193.75 265.278 2196.46 265.278 Q2200.93 265.278 2203.22 268.056 Q2205.51 270.81 2205.51 276.181 Z" fill="#000000" fill-rule="evenodd" fill-opacity="1" /></svg>
