<?xml version="1.0" encoding="utf-8"?>
<svg xmlns="http://www.w3.org/2000/svg" xmlns:xlink="http://www.w3.org/1999/xlink" width="600" height="400" viewBox="0 0 2400 1600">
<defs>
  <clipPath id="clip900">
    <rect x="0" y="0" width="2400" height="1600"/>
  </clipPath>
</defs>
<path clip-path="url(#clip900)" d="
M0 1600 L2400 1600 L2400 0 L0 0  Z
  " fill="#ffffff" fill-rule="evenodd" fill-opacity="1"/>
<defs>
  <clipPath id="clip901">
    <rect x="480" y="0" width="1681" height="1600"/>
  </clipPath>
</defs>
<path clip-path="url(#clip900)" d="
M238.13 1423.18 L2352.76 1423.18 L2352.76 47.2441 L238.13 47.2441  Z
  " fill="#ffffff" fill-rule="evenodd" fill-opacity="1"/>
<defs>
  <clipPath id="clip902">
    <rect x="238" y="47" width="2116" height="1377"/>
  </clipPath>
</defs>
<polyline clip-path="url(#clip902)" style="stroke:#000000; stroke-width:2; stroke-opacity:0.1; fill:none" points="
  354.438,1423.18 354.438,47.2441 
  "/>
<polyline clip-path="url(#clip902)" style="stroke:#000000; stroke-width:2; stroke-opacity:0.1; fill:none" points="
  877.219,1423.18 877.219,47.2441 
  "/>
<polyline clip-path="url(#clip902)" style="stroke:#000000; stroke-width:2; stroke-opacity:0.1; fill:none" points="
  1400,1423.18 1400,47.2441 
  "/>
<polyline clip-path="url(#clip902)" style="stroke:#000000; stroke-width:2; stroke-opacity:0.1; fill:none" points="
  1922.78,1423.18 1922.78,47.2441 
  "/>
<polyline clip-path="url(#clip900)" style="stroke:#000000; stroke-width:4; stroke-opacity:1; fill:none" points="
  238.13,1423.18 2352.76,1423.18 
  "/>
<polyline clip-path="url(#clip900)" style="stroke:#000000; stroke-width:4; stroke-opacity:1; fill:none" points="
  354.438,1423.18 354.438,1406.67 
  "/>
<polyline clip-path="url(#clip900)" style="stroke:#000000; stroke-width:4; stroke-opacity:1; fill:none" points="
  877.219,1423.18 877.219,1406.67 
  "/>
<polyline clip-path="url(#clip900)" style="stroke:#000000; stroke-width:4; stroke-opacity:1; fill:none" points="
  1400,1423.18 1400,1406.67 
  "/>
<polyline clip-path="url(#clip900)" style="stroke:#000000; stroke-width:4; stroke-opacity:1; fill:none" points="
  1922.78,1423.18 1922.78,1406.67 
  "/>
<path clip-path="url(#clip900)" d="M 0 0 M354.438 1452.37 Q350.827 1452.37 348.998 1455.94 Q347.193 1459.48 347.193 1466.61 Q347.193 1473.71 348.998 1477.28 Q350.827 1480.82 354.438 1480.82 Q358.072 1480.82 359.878 1477.28 Q361.707 1473.71 361.707 1466.61 Q361.707 1459.48 359.878 1455.94 Q358.072 1452.37 354.438 1452.37 M354.438 1448.67 Q360.248 1448.67 363.304 1453.27 Q366.383 1457.86 366.383 1466.61 Q366.383 1475.33 363.304 1479.94 Q360.248 1484.52 354.438 1484.52 Q348.628 1484.52 345.549 1479.94 Q342.494 1475.33 342.494 1466.61 Q342.494 1457.86 345.549 1453.27 Q348.628 1448.67 354.438 1448.67 Z" fill="#000000" fill-rule="evenodd" fill-opacity="1" /><path clip-path="url(#clip900)" d="M 0 0 M867.496 1449.29 L885.853 1449.29 L885.853 1453.23 L871.779 1453.23 L871.779 1461.7 Q872.797 1461.35 873.816 1461.19 Q874.834 1461 875.853 1461 Q881.64 1461 885.02 1464.18 Q888.399 1467.35 888.399 1472.76 Q888.399 1478.34 884.927 1481.44 Q881.455 1484.52 875.135 1484.52 Q872.959 1484.52 870.691 1484.15 Q868.446 1483.78 866.038 1483.04 L866.038 1478.34 Q868.121 1479.48 870.344 1480.03 Q872.566 1480.59 875.043 1480.59 Q879.047 1480.59 881.385 1478.48 Q883.723 1476.38 883.723 1472.76 Q883.723 1469.15 881.385 1467.05 Q879.047 1464.94 875.043 1464.94 Q873.168 1464.94 871.293 1465.36 Q869.441 1465.77 867.496 1466.65 L867.496 1449.29 Z" fill="#000000" fill-rule="evenodd" fill-opacity="1" /><path clip-path="url(#clip900)" d="M 0 0 M1376.87 1479.92 L1384.51 1479.92 L1384.51 1453.55 L1376.2 1455.22 L1376.2 1450.96 L1384.47 1449.29 L1389.14 1449.29 L1389.14 1479.92 L1396.78 1479.92 L1396.78 1483.85 L1376.87 1483.85 L1376.87 1479.92 Z" fill="#000000" fill-rule="evenodd" fill-opacity="1" /><path clip-path="url(#clip900)" d="M 0 0 M1411.85 1452.37 Q1408.24 1452.37 1406.41 1455.94 Q1404.61 1459.48 1404.61 1466.61 Q1404.61 1473.71 1406.41 1477.28 Q1408.24 1480.82 1411.85 1480.82 Q1415.49 1480.82 1417.29 1477.28 Q1419.12 1473.71 1419.12 1466.61 Q1419.12 1459.48 1417.29 1455.94 Q1415.49 1452.37 1411.85 1452.37 M1411.85 1448.67 Q1417.66 1448.67 1420.72 1453.27 Q1423.8 1457.86 1423.8 1466.61 Q1423.8 1475.33 1420.72 1479.94 Q1417.66 1484.52 1411.85 1484.52 Q1406.04 1484.52 1402.96 1479.94 Q1399.91 1475.33 1399.91 1466.61 Q1399.91 1457.86 1402.96 1453.27 Q1406.04 1448.67 1411.85 1448.67 Z" fill="#000000" fill-rule="evenodd" fill-opacity="1" /><path clip-path="url(#clip900)" d="M 0 0 M1900.15 1479.92 L1907.79 1479.92 L1907.79 1453.55 L1899.48 1455.22 L1899.48 1450.96 L1907.74 1449.29 L1912.42 1449.29 L1912.42 1479.92 L1920.06 1479.92 L1920.06 1483.85 L1900.15 1483.85 L1900.15 1479.92 Z" fill="#000000" fill-rule="evenodd" fill-opacity="1" /><path clip-path="url(#clip900)" d="M 0 0 M1925.18 1449.29 L1943.53 1449.29 L1943.53 1453.23 L1929.46 1453.23 L1929.46 1461.7 Q1930.48 1461.35 1931.49 1461.19 Q1932.51 1461 1933.53 1461 Q1939.32 1461 1942.7 1464.18 Q1946.08 1467.35 1946.08 1472.76 Q1946.08 1478.34 1942.61 1481.44 Q1939.13 1484.52 1932.81 1484.52 Q1930.64 1484.52 1928.37 1484.15 Q1926.12 1483.78 1923.72 1483.04 L1923.72 1478.34 Q1925.8 1479.48 1928.02 1480.03 Q1930.24 1480.59 1932.72 1480.59 Q1936.73 1480.59 1939.06 1478.48 Q1941.4 1476.38 1941.4 1472.76 Q1941.4 1469.15 1939.06 1467.05 Q1936.73 1464.94 1932.72 1464.94 Q1930.85 1464.94 1928.97 1465.36 Q1927.12 1465.77 1925.18 1466.65 L1925.18 1449.29 Z" fill="#000000" fill-rule="evenodd" fill-opacity="1" /><path clip-path="url(#clip900)" d="M 0 0 M1297.4 1539.24 Q1299.6 1535.29 1302.65 1533.41 Q1305.71 1531.54 1309.85 1531.54 Q1315.42 1531.54 1318.44 1535.45 Q1321.46 1539.33 1321.46 1546.53 L1321.46 1568.04 L1315.57 1568.04 L1315.57 1546.72 Q1315.57 1541.59 1313.76 1539.11 Q1311.95 1536.63 1308.22 1536.63 Q1303.67 1536.63 1301.03 1539.65 Q1298.39 1542.68 1298.39 1547.9 L1298.39 1568.04 L1292.5 1568.04 L1292.5 1546.72 Q1292.5 1541.56 1290.68 1539.11 Q1288.87 1536.63 1285.08 1536.63 Q1280.59 1536.63 1277.95 1539.68 Q1275.31 1542.71 1275.31 1547.9 L1275.31 1568.04 L1269.42 1568.04 L1269.42 1532.4 L1275.31 1532.4 L1275.31 1537.93 Q1277.32 1534.66 1280.12 1533.1 Q1282.92 1531.54 1286.77 1531.54 Q1290.65 1531.54 1293.36 1533.51 Q1296.1 1535.48 1297.4 1539.24 Z" fill="#000000" fill-rule="evenodd" fill-opacity="1" /><polyline clip-path="url(#clip902)" style="stroke:#000000; stroke-width:2; stroke-opacity:0.1; fill:none" points="
  238.13,1384.24 2352.76,1384.24 
  "/>
<polyline clip-path="url(#clip902)" style="stroke:#000000; stroke-width:2; stroke-opacity:0.1; fill:none" points="
  238.13,1037.01 2352.76,1037.01 
  "/>
<polyline clip-path="url(#clip902)" style="stroke:#000000; stroke-width:2; stroke-opacity:0.1; fill:none" points="
  238.13,689.778 2352.76,689.778 
  "/>
<polyline clip-path="url(#clip902)" style="stroke:#000000; stroke-width:2; stroke-opacity:0.1; fill:none" points="
  238.13,342.548 2352.76,342.548 
  "/>
<polyline clip-path="url(#clip900)" style="stroke:#000000; stroke-width:4; stroke-opacity:1; fill:none" points="
  238.13,1423.18 238.13,47.2441 
  "/>
<polyline clip-path="url(#clip900)" style="stroke:#000000; stroke-width:4; stroke-opacity:1; fill:none" points="
  238.13,1384.24 263.506,1384.24 
  "/>
<polyline clip-path="url(#clip900)" style="stroke:#000000; stroke-width:4; stroke-opacity:1; fill:none" points="
  238.13,1037.01 263.506,1037.01 
  "/>
<polyline clip-path="url(#clip900)" style="stroke:#000000; stroke-width:4; stroke-opacity:1; fill:none" points="
  238.13,689.778 263.506,689.778 
  "/>
<polyline clip-path="url(#clip900)" style="stroke:#000000; stroke-width:4; stroke-opacity:1; fill:none" points="
  238.13,342.548 263.506,342.548 
  "/>
<path clip-path="url(#clip900)" d="M 0 0 M126.205 1370.04 Q122.593 1370.04 120.765 1373.6 Q118.959 1377.14 118.959 1384.27 Q118.959 1391.38 120.765 1394.94 Q122.593 1398.49 126.205 1398.49 Q129.839 1398.49 131.644 1394.94 Q133.473 1391.38 133.473 1384.27 Q133.473 1377.14 131.644 1373.6 Q129.839 1370.04 126.205 1370.04 M126.205 1366.33 Q132.015 1366.33 135.07 1370.94 Q138.149 1375.52 138.149 1384.27 Q138.149 1393 135.07 1397.61 Q132.015 1402.19 126.205 1402.19 Q120.394 1402.19 117.316 1397.61 Q114.26 1393 114.26 1384.27 Q114.26 1375.52 117.316 1370.94 Q120.394 1366.33 126.205 1366.33 Z" fill="#000000" fill-rule="evenodd" fill-opacity="1" /><path clip-path="url(#clip900)" d="M 0 0 M143.218 1395.64 L148.103 1395.64 L148.103 1401.52 L143.218 1401.52 L143.218 1395.64 Z" fill="#000000" fill-rule="evenodd" fill-opacity="1" /><path clip-path="url(#clip900)" d="M 0 0 M163.172 1370.04 Q159.561 1370.04 157.732 1373.6 Q155.927 1377.14 155.927 1384.27 Q155.927 1391.38 157.732 1394.94 Q159.561 1398.49 163.172 1398.49 Q166.806 1398.49 168.612 1394.94 Q170.44 1391.38 170.44 1384.27 Q170.44 1377.14 168.612 1373.6 Q166.806 1370.04 163.172 1370.04 M163.172 1366.33 Q168.982 1366.33 172.038 1370.94 Q175.116 1375.52 175.116 1384.27 Q175.116 1393 172.038 1397.61 Q168.982 1402.19 163.172 1402.19 Q157.362 1402.19 154.283 1397.61 Q151.228 1393 151.228 1384.27 Q151.228 1375.52 154.283 1370.94 Q157.362 1366.33 163.172 1366.33 Z" fill="#000000" fill-rule="evenodd" fill-opacity="1" /><path clip-path="url(#clip900)" d="M 0 0 M190.186 1370.04 Q186.575 1370.04 184.746 1373.6 Q182.94 1377.14 182.94 1384.27 Q182.94 1391.38 184.746 1394.94 Q186.575 1398.49 190.186 1398.49 Q193.82 1398.49 195.625 1394.94 Q197.454 1391.38 197.454 1384.27 Q197.454 1377.14 195.625 1373.6 Q193.82 1370.04 190.186 1370.04 M190.186 1366.33 Q195.996 1366.33 199.051 1370.94 Q202.13 1375.52 202.13 1384.27 Q202.13 1393 199.051 1397.61 Q195.996 1402.19 190.186 1402.19 Q184.376 1402.19 181.297 1397.61 Q178.241 1393 178.241 1384.27 Q178.241 1375.52 181.297 1370.94 Q184.376 1366.33 190.186 1366.33 Z" fill="#000000" fill-rule="evenodd" fill-opacity="1" /><path clip-path="url(#clip900)" d="M 0 0 M127.2 1022.81 Q123.589 1022.81 121.76 1026.37 Q119.955 1029.91 119.955 1037.04 Q119.955 1044.15 121.76 1047.71 Q123.589 1051.26 127.2 1051.26 Q130.834 1051.26 132.64 1047.71 Q134.468 1044.15 134.468 1037.04 Q134.468 1029.91 132.64 1026.37 Q130.834 1022.81 127.2 1022.81 M127.2 1019.1 Q133.01 1019.1 136.066 1023.71 Q139.144 1028.29 139.144 1037.04 Q139.144 1045.77 136.066 1050.38 Q133.01 1054.96 127.2 1054.96 Q121.39 1054.96 118.311 1050.38 Q115.256 1045.77 115.256 1037.04 Q115.256 1028.29 118.311 1023.71 Q121.39 1019.1 127.2 1019.1 Z" fill="#000000" fill-rule="evenodd" fill-opacity="1" /><path clip-path="url(#clip900)" d="M 0 0 M144.214 1048.41 L149.098 1048.41 L149.098 1054.29 L144.214 1054.29 L144.214 1048.41 Z" fill="#000000" fill-rule="evenodd" fill-opacity="1" /><path clip-path="url(#clip900)" d="M 0 0 M164.167 1022.81 Q160.556 1022.81 158.728 1026.37 Q156.922 1029.91 156.922 1037.04 Q156.922 1044.15 158.728 1047.71 Q160.556 1051.26 164.167 1051.26 Q167.802 1051.26 169.607 1047.71 Q171.436 1044.15 171.436 1037.04 Q171.436 1029.91 169.607 1026.37 Q167.802 1022.81 164.167 1022.81 M164.167 1019.1 Q169.977 1019.1 173.033 1023.71 Q176.112 1028.29 176.112 1037.04 Q176.112 1045.77 173.033 1050.38 Q169.977 1054.96 164.167 1054.96 Q158.357 1054.96 155.278 1050.38 Q152.223 1045.77 152.223 1037.04 Q152.223 1028.29 155.278 1023.71 Q158.357 1019.1 164.167 1019.1 Z" fill="#000000" fill-rule="evenodd" fill-opacity="1" /><path clip-path="url(#clip900)" d="M 0 0 M181.227 1019.73 L199.584 1019.73 L199.584 1023.66 L185.51 1023.66 L185.51 1032.14 Q186.528 1031.79 187.547 1031.63 Q188.565 1031.44 189.584 1031.44 Q195.371 1031.44 198.75 1034.61 Q202.13 1037.78 202.13 1043.2 Q202.13 1048.78 198.658 1051.88 Q195.186 1054.96 188.866 1054.96 Q186.69 1054.96 184.422 1054.59 Q182.176 1054.22 179.769 1053.48 L179.769 1048.78 Q181.852 1049.91 184.075 1050.47 Q186.297 1051.02 188.774 1051.02 Q192.778 1051.02 195.116 1048.92 Q197.454 1046.81 197.454 1043.2 Q197.454 1039.59 195.116 1037.48 Q192.778 1035.38 188.774 1035.38 Q186.899 1035.38 185.024 1035.79 Q183.172 1036.21 181.227 1037.09 L181.227 1019.73 Z" fill="#000000" fill-rule="evenodd" fill-opacity="1" /><path clip-path="url(#clip900)" d="M 0 0 M127.431 675.577 Q123.82 675.577 121.992 679.142 Q120.186 682.683 120.186 689.813 Q120.186 696.919 121.992 700.484 Q123.82 704.026 127.431 704.026 Q131.066 704.026 132.871 700.484 Q134.7 696.919 134.7 689.813 Q134.7 682.683 132.871 679.142 Q131.066 675.577 127.431 675.577 M127.431 671.873 Q133.242 671.873 136.297 676.48 Q139.376 681.063 139.376 689.813 Q139.376 698.54 136.297 703.146 Q133.242 707.73 127.431 707.73 Q121.621 707.73 118.543 703.146 Q115.487 698.54 115.487 689.813 Q115.487 681.063 118.543 676.48 Q121.621 671.873 127.431 671.873 Z" fill="#000000" fill-rule="evenodd" fill-opacity="1" /><path clip-path="url(#clip900)" d="M 0 0 M144.445 701.179 L149.329 701.179 L149.329 707.058 L144.445 707.058 L144.445 701.179 Z" fill="#000000" fill-rule="evenodd" fill-opacity="1" /><path clip-path="url(#clip900)" d="M 0 0 M155.209 703.123 L162.848 703.123 L162.848 676.758 L154.538 678.424 L154.538 674.165 L162.802 672.498 L167.477 672.498 L167.477 703.123 L175.116 703.123 L175.116 707.058 L155.209 707.058 L155.209 703.123 Z" fill="#000000" fill-rule="evenodd" fill-opacity="1" /><path clip-path="url(#clip900)" d="M 0 0 M190.186 675.577 Q186.575 675.577 184.746 679.142 Q182.94 682.683 182.94 689.813 Q182.94 696.919 184.746 700.484 Q186.575 704.026 190.186 704.026 Q193.82 704.026 195.625 700.484 Q197.454 696.919 197.454 689.813 Q197.454 682.683 195.625 679.142 Q193.82 675.577 190.186 675.577 M190.186 671.873 Q195.996 671.873 199.051 676.48 Q202.13 681.063 202.13 689.813 Q202.13 698.54 199.051 703.146 Q195.996 707.73 190.186 707.73 Q184.376 707.73 181.297 703.146 Q178.241 698.54 178.241 689.813 Q178.241 681.063 181.297 676.48 Q184.376 671.873 190.186 671.873 Z" fill="#000000" fill-rule="evenodd" fill-opacity="1" /><path clip-path="url(#clip900)" d="M 0 0 M128.427 328.347 Q124.816 328.347 122.987 331.912 Q121.181 335.453 121.181 342.583 Q121.181 349.689 122.987 353.254 Q124.816 356.796 128.427 356.796 Q132.061 356.796 133.867 353.254 Q135.695 349.689 135.695 342.583 Q135.695 335.453 133.867 331.912 Q132.061 328.347 128.427 328.347 M128.427 324.643 Q134.237 324.643 137.292 329.25 Q140.371 333.833 140.371 342.583 Q140.371 351.31 137.292 355.916 Q134.237 360.5 128.427 360.5 Q122.617 360.5 119.538 355.916 Q116.482 351.31 116.482 342.583 Q116.482 333.833 119.538 329.25 Q122.617 324.643 128.427 324.643 Z" fill="#000000" fill-rule="evenodd" fill-opacity="1" /><path clip-path="url(#clip900)" d="M 0 0 M145.441 353.949 L150.325 353.949 L150.325 359.828 L145.441 359.828 L145.441 353.949 Z" fill="#000000" fill-rule="evenodd" fill-opacity="1" /><path clip-path="url(#clip900)" d="M 0 0 M156.204 355.893 L163.843 355.893 L163.843 329.528 L155.533 331.194 L155.533 326.935 L163.797 325.268 L168.473 325.268 L168.473 355.893 L176.112 355.893 L176.112 359.828 L156.204 359.828 L156.204 355.893 Z" fill="#000000" fill-rule="evenodd" fill-opacity="1" /><path clip-path="url(#clip900)" d="M 0 0 M181.227 325.268 L199.584 325.268 L199.584 329.203 L185.51 329.203 L185.51 337.676 Q186.528 337.328 187.547 337.166 Q188.565 336.981 189.584 336.981 Q195.371 336.981 198.75 340.152 Q202.13 343.324 202.13 348.74 Q202.13 354.319 198.658 357.421 Q195.186 360.5 188.866 360.5 Q186.69 360.5 184.422 360.129 Q182.176 359.759 179.769 359.018 L179.769 354.319 Q181.852 355.453 184.075 356.009 Q186.297 356.564 188.774 356.564 Q192.778 356.564 195.116 354.458 Q197.454 352.351 197.454 348.74 Q197.454 345.129 195.116 343.023 Q192.778 340.916 188.774 340.916 Q186.899 340.916 185.024 341.333 Q183.172 341.75 181.227 342.629 L181.227 325.268 Z" fill="#000000" fill-rule="evenodd" fill-opacity="1" /><path clip-path="url(#clip900)" d="M 0 0 M21.7677 793.124 L39.6235 793.124 L39.6235 785.04 Q39.6235 780.552 37.3 778.101 Q34.9765 775.65 30.6797 775.65 Q26.4147 775.65 24.0912 778.101 Q21.7677 780.552 21.7677 785.04 L21.7677 793.124 M16.4842 799.553 L16.4842 785.04 Q16.4842 777.051 20.1126 772.977 Q23.7092 768.871 30.6797 768.871 Q37.7138 768.871 41.3104 772.977 Q44.907 777.051 44.907 785.04 L44.907 793.124 L64.0042 793.124 L64.0042 799.553 L16.4842 799.553 Z" fill="#000000" fill-rule="evenodd" fill-opacity="1" /><path clip-path="url(#clip900)" d="M 0 0 M14.5426 748.66 Q21.8632 752.925 29.0246 754.993 Q36.186 757.062 43.5384 757.062 Q50.8908 757.062 58.1159 754.993 Q65.3091 752.893 72.5979 748.66 L72.5979 753.752 Q65.1182 758.526 57.8931 760.914 Q50.668 763.269 43.5384 763.269 Q36.4406 763.269 29.2474 760.914 Q22.0542 758.558 14.5426 753.752 L14.5426 748.66 Z" fill="#000000" fill-rule="evenodd" fill-opacity="1" /><path clip-path="url(#clip900)" d="M 0 0 M35.1993 714.762 Q31.2526 712.566 29.3747 709.51 Q27.4968 706.455 27.4968 702.317 Q27.4968 696.747 31.4117 693.723 Q35.2948 690.7 42.4881 690.7 L64.0042 690.7 L64.0042 696.588 L42.679 696.588 Q37.5546 696.588 35.072 698.402 Q32.5894 700.216 32.5894 703.94 Q32.5894 708.492 35.6131 711.134 Q38.6368 713.775 43.8567 713.775 L64.0042 713.775 L64.0042 719.664 L42.679 719.664 Q37.5228 719.664 35.072 721.478 Q32.5894 723.292 32.5894 727.08 Q32.5894 731.568 35.6449 734.209 Q38.6686 736.851 43.8567 736.851 L64.0042 736.851 L64.0042 742.739 L28.3562 742.739 L28.3562 736.851 L33.8944 736.851 Q30.616 734.846 29.0564 732.045 Q27.4968 729.244 27.4968 725.393 Q27.4968 721.51 29.4702 718.804 Q31.4436 716.067 35.1993 714.762 Z" fill="#000000" fill-rule="evenodd" fill-opacity="1" /><path clip-path="url(#clip900)" d="M 0 0 M14.5426 685.48 L14.5426 680.387 Q22.0542 675.613 29.2474 673.258 Q36.4406 670.871 43.5384 670.871 Q50.668 670.871 57.8931 673.258 Q65.1182 675.613 72.5979 680.387 L72.5979 685.48 Q65.3091 681.247 58.1159 679.178 Q50.8908 677.077 43.5384 677.077 Q36.186 677.077 29.0246 679.178 Q21.8632 681.247 14.5426 685.48 Z" fill="#000000" fill-rule="evenodd" fill-opacity="1" /><path clip-path="url(#clip902)" d="
M354.438 1314.78 L354.438 1384.24 L458.994 1384.24 L458.994 1314.78 L354.438 1314.78 L354.438 1314.78  Z
  " fill="#009af9" fill-rule="evenodd" fill-opacity="1"/>
<polyline clip-path="url(#clip902)" style="stroke:#009af9; stroke-width:4; stroke-opacity:1; fill:none" points="
  354.438,1314.78 354.438,1384.24 458.994,1384.24 458.994,1314.78 354.438,1314.78 
  "/>
<path clip-path="url(#clip902)" d="
M458.994 1074.62 L458.994 1384.24 L563.55 1384.24 L563.55 1074.62 L458.994 1074.62 L458.994 1074.62  Z
  " fill="#009af9" fill-rule="evenodd" fill-opacity="1"/>
<polyline clip-path="url(#clip902)" style="stroke:#009af9; stroke-width:4; stroke-opacity:1; fill:none" points="
  458.994,1074.62 458.994,1384.24 563.55,1384.24 563.55,1074.62 458.994,1074.62 
  "/>
<path clip-path="url(#clip902)" d="
M563.55 664.39 L563.55 1384.24 L668.106 1384.24 L668.106 664.39 L563.55 664.39 L563.55 664.39  Z
  " fill="#009af9" fill-rule="evenodd" fill-opacity="1"/>
<polyline clip-path="url(#clip902)" style="stroke:#009af9; stroke-width:4; stroke-opacity:1; fill:none" points="
  563.55,664.39 563.55,1384.24 668.106,1384.24 668.106,664.39 563.55,664.39 
  "/>
<path clip-path="url(#clip902)" d="
M668.106 265.044 L668.106 1384.24 L772.663 1384.24 L772.663 265.044 L668.106 265.044 L668.106 265.044  Z
  " fill="#009af9" fill-rule="evenodd" fill-opacity="1"/>
<polyline clip-path="url(#clip902)" style="stroke:#009af9; stroke-width:4; stroke-opacity:1; fill:none" points="
  668.106,265.044 668.106,1384.24 772.663,1384.24 772.663,265.044 668.106,265.044 
  "/>
<path clip-path="url(#clip902)" d="
M772.663 94.7451 L772.663 1384.24 L877.219 1384.24 L877.219 94.7451 L772.663 94.7451 L772.663 94.7451  Z
  " fill="#009af9" fill-rule="evenodd" fill-opacity="1"/>
<polyline clip-path="url(#clip902)" style="stroke:#009af9; stroke-width:4; stroke-opacity:1; fill:none" points="
  772.663,94.7451 772.663,1384.24 877.219,1384.24 877.219,94.7451 772.663,94.7451 
  "/>
<path clip-path="url(#clip902)" d="
M877.219 180.402 L877.219 1384.24 L981.775 1384.24 L981.775 180.402 L877.219 180.402 L877.219 180.402  Z
  " fill="#009af9" fill-rule="evenodd" fill-opacity="1"/>
<polyline clip-path="url(#clip902)" style="stroke:#009af9; stroke-width:4; stroke-opacity:1; fill:none" points="
  877.219,180.402 877.219,1384.24 981.775,1384.24 981.775,180.402 877.219,180.402 
  "/>
<path clip-path="url(#clip902)" d="
M981.775 453.383 L981.775 1384.24 L1086.33 1384.24 L1086.33 453.383 L981.775 453.383 L981.775 453.383  Z
  " fill="#009af9" fill-rule="evenodd" fill-opacity="1"/>
<polyline clip-path="url(#clip902)" style="stroke:#009af9; stroke-width:4; stroke-opacity:1; fill:none" points="
  981.775,453.383 981.775,1384.24 1086.33,1384.24 1086.33,453.383 981.775,453.383 
  "/>
<path clip-path="url(#clip902)" d="
M1086.33 770.471 L1086.33 1384.24 L1190.89 1384.24 L1190.89 770.471 L1086.33 770.471 L1086.33 770.471  Z
  " fill="#009af9" fill-rule="evenodd" fill-opacity="1"/>
<polyline clip-path="url(#clip902)" style="stroke:#009af9; stroke-width:4; stroke-opacity:1; fill:none" points="
  1086.33,770.471 1086.33,1384.24 1190.89,1384.24 1190.89,770.471 1086.33,770.471 
  "/>
<path clip-path="url(#clip902)" d="
M1190.89 1023.06 L1190.89 1384.24 L1295.44 1384.24 L1295.44 1023.06 L1190.89 1023.06 L1190.89 1023.06  Z
  " fill="#009af9" fill-rule="evenodd" fill-opacity="1"/>
<polyline clip-path="url(#clip902)" style="stroke:#009af9; stroke-width:4; stroke-opacity:1; fill:none" points="
  1190.89,1023.06 1190.89,1384.24 1295.44,1384.24 1295.44,1023.06 1190.89,1023.06 
  "/>
<path clip-path="url(#clip902)" d="
M1295.44 1199.31 L1295.44 1384.24 L1400 1384.24 L1400 1199.31 L1295.44 1199.31 L1295.44 1199.31  Z
  " fill="#009af9" fill-rule="evenodd" fill-opacity="1"/>
<polyline clip-path="url(#clip902)" style="stroke:#009af9; stroke-width:4; stroke-opacity:1; fill:none" points="
  1295.44,1199.31 1295.44,1384.24 1400,1384.24 1400,1199.31 1295.44,1199.31 
  "/>
<path clip-path="url(#clip902)" d="
M1400 1298.85 L1400 1384.24 L1504.56 1384.24 L1504.56 1298.85 L1400 1298.85 L1400 1298.85  Z
  " fill="#009af9" fill-rule="evenodd" fill-opacity="1"/>
<polyline clip-path="url(#clip902)" style="stroke:#009af9; stroke-width:4; stroke-opacity:1; fill:none" points="
  1400,1298.85 1400,1384.24 1504.56,1384.24 1504.56,1298.85 1400,1298.85 
  "/>
<path clip-path="url(#clip902)" d="
M1504.56 1348.28 L1504.56 1384.24 L1609.11 1384.24 L1609.11 1348.28 L1504.56 1348.28 L1504.56 1348.28  Z
  " fill="#009af9" fill-rule="evenodd" fill-opacity="1"/>
<polyline clip-path="url(#clip902)" style="stroke:#009af9; stroke-width:4; stroke-opacity:1; fill:none" points="
  1504.56,1348.28 1504.56,1384.24 1609.11,1384.24 1609.11,1348.28 1504.56,1348.28 
  "/>
<path clip-path="url(#clip902)" d="
M1609.11 1370.45 L1609.11 1384.24 L1713.67 1384.24 L1713.67 1370.45 L1609.11 1370.45 L1609.11 1370.45  Z
  " fill="#009af9" fill-rule="evenodd" fill-opacity="1"/>
<polyline clip-path="url(#clip902)" style="stroke:#009af9; stroke-width:4; stroke-opacity:1; fill:none" points="
  1609.11,1370.45 1609.11,1384.24 1713.67,1384.24 1713.67,1370.45 1609.11,1370.45 
  "/>
<path clip-path="url(#clip902)" d="
M1713.67 1379.33 L1713.67 1384.24 L1818.22 1384.24 L1818.22 1379.33 L1713.67 1379.33 L1713.67 1379.33  Z
  " fill="#009af9" fill-rule="evenodd" fill-opacity="1"/>
<polyline clip-path="url(#clip902)" style="stroke:#009af9; stroke-width:4; stroke-opacity:1; fill:none" points="
  1713.67,1379.33 1713.67,1384.24 1818.22,1384.24 1818.22,1379.33 1713.67,1379.33 
  "/>
<path clip-path="url(#clip902)" d="
M1818.22 1382.63 L1818.22 1384.24 L1922.78 1384.24 L1922.78 1382.63 L1818.22 1382.63 L1818.22 1382.63  Z
  " fill="#009af9" fill-rule="evenodd" fill-opacity="1"/>
<polyline clip-path="url(#clip902)" style="stroke:#009af9; stroke-width:4; stroke-opacity:1; fill:none" points="
  1818.22,1382.63 1818.22,1384.24 1922.78,1384.24 1922.78,1382.63 1818.22,1382.63 
  "/>
<path clip-path="url(#clip902)" d="
M1922.78 1383.7 L1922.78 1384.24 L2027.34 1384.24 L2027.34 1383.7 L1922.78 1383.7 L1922.78 1383.7  Z
  " fill="#009af9" fill-rule="evenodd" fill-opacity="1"/>
<polyline clip-path="url(#clip902)" style="stroke:#009af9; stroke-width:4; stroke-opacity:1; fill:none" points="
  1922.78,1383.7 1922.78,1384.24 2027.34,1384.24 2027.34,1383.7 1922.78,1383.7 
  "/>
<path clip-path="url(#clip902)" d="
M2027.34 1384.04 L2027.34 1384.24 L2131.89 1384.24 L2131.89 1384.04 L2027.34 1384.04 L2027.34 1384.04  Z
  " fill="#009af9" fill-rule="evenodd" fill-opacity="1"/>
<polyline clip-path="url(#clip902)" style="stroke:#009af9; stroke-width:4; stroke-opacity:1; fill:none" points="
  2027.34,1384.04 2027.34,1384.24 2131.89,1384.24 2131.89,1384.04 2027.34,1384.04 
  "/>
<path clip-path="url(#clip902)" d="
M2131.89 1384.2 L2131.89 1384.24 L2236.45 1384.24 L2236.45 1384.2 L2131.89 1384.2 L2131.89 1384.2  Z
  " fill="#009af9" fill-rule="evenodd" fill-opacity="1"/>
<polyline clip-path="url(#clip902)" style="stroke:#009af9; stroke-width:4; stroke-opacity:1; fill:none" points="
  2131.89,1384.2 2131.89,1384.24 2236.45,1384.24 2236.45,1384.2 2131.89,1384.2 
  "/>
<polyline clip-path="url(#clip902)" style="stroke:#e26f46; stroke-width:12; stroke-opacity:1; fill:none" points="
  354.438,1257.62 364.894,1244.45 375.349,1230.25 385.805,1214.97 396.261,1198.58 406.716,1181.03 417.172,1162.31 427.628,1142.38 438.083,1121.23 448.539,1098.85 
  458.994,1075.23 469.45,1050.38 479.906,1024.31 490.361,997.032 500.817,968.588 511.272,939.015 521.728,908.366 532.184,876.703 542.639,844.099 553.095,810.639 
  563.55,776.418 574.006,741.543 584.462,706.131 594.917,670.309 605.373,634.214 615.828,597.991 626.284,561.794 636.74,525.785 647.195,490.129 657.651,454.998 
  668.106,420.567 678.562,387.013 689.018,354.514 699.473,323.247 709.929,293.385 720.385,265.098 730.84,238.551 741.296,213.902 751.751,191.297 762.207,170.875 
  772.663,152.762 783.118,137.071 793.574,123.901 804.029,113.336 814.485,105.443 824.941,100.272 835.396,97.8581 845.852,98.2158 856.307,101.343 866.763,107.219 
  877.219,115.807 887.674,127.051 898.13,140.88 908.585,157.206 919.041,175.925 929.497,196.923 939.952,220.069 950.408,245.222 960.864,272.233 971.319,300.942 
  981.775,331.183 992.23,362.785 1002.69,395.573 1013.14,429.37 1023.6,463.998 1034.05,499.281 1044.51,535.044 1054.96,571.118 1065.42,607.336 1075.88,643.54 
  1086.33,679.579 1096.79,715.308 1107.24,750.593 1117.7,785.31 1128.15,819.344 1138.61,852.593 1149.06,884.962 1159.52,916.37 1169.98,946.747 1180.43,976.033 
  1190.89,1004.18 1201.34,1031.15 1211.8,1056.91 1222.25,1081.44 1232.71,1104.74 1243.16,1126.8 1253.62,1147.64 1264.08,1167.25 1274.53,1185.67 1284.99,1202.91 
  1295.44,1219.02 1305.9,1234.02 1316.35,1247.95 1326.81,1260.85 1337.27,1272.78 1347.72,1283.76 1358.18,1293.86 1368.63,1303.13 1379.09,1311.59 1389.54,1319.32 
  1400,1326.35 1410.45,1332.72 1420.91,1338.5 1431.37,1343.71 1441.82,1348.41 1452.28,1352.63 1462.73,1356.42 1473.19,1359.8 1483.64,1362.82 1494.1,1365.5 
  1504.56,1367.89 1515.01,1370 1525.47,1371.87 1535.92,1373.51 1546.38,1374.96 1556.83,1376.22 1567.29,1377.33 1577.74,1378.3 1588.2,1379.15 1598.66,1379.88 
  1609.11,1380.52 1619.57,1381.07 1630.02,1381.54 1640.48,1381.95 1650.93,1382.3 1661.39,1382.6 1671.84,1382.86 1682.3,1383.08 1692.76,1383.26 1703.21,1383.42 
  1713.67,1383.56 1724.12,1383.67 1734.58,1383.76 1745.03,1383.84 1755.49,1383.91 1765.95,1383.97 1776.4,1384.02 1786.86,1384.05 1797.31,1384.09 1807.77,1384.11 
  1818.22,1384.14 1828.68,1384.16 1839.13,1384.17 1849.59,1384.18 1860.05,1384.19 1870.5,1384.2 1880.96,1384.21 1891.41,1384.21 1901.87,1384.22 1912.32,1384.22 
  1922.78,1384.23 1933.24,1384.23 1943.69,1384.23 1954.15,1384.23 1964.6,1384.23 1975.06,1384.23 1985.51,1384.24 1995.97,1384.24 2006.42,1384.24 2016.88,1384.24 
  2027.34,1384.24 2037.79,1384.24 2048.25,1384.24 2058.7,1384.24 2069.16,1384.24 2079.61,1384.24 2090.07,1384.24 2100.52,1384.24 2110.98,1384.24 2121.44,1384.24 
  2131.89,1384.24 
  "/>
<polyline clip-path="url(#clip902)" style="stroke:#3da44d; stroke-width:12; stroke-opacity:1; fill:none" points="
  354.438,1316.98 364.894,1301.81 375.349,1284.67 385.805,1265.49 396.261,1244.21 406.716,1220.8 417.172,1195.25 427.628,1167.59 438.083,1137.83 448.539,1106.06 
  458.994,1072.33 469.45,1036.77 479.906,999.495 490.361,960.658 500.817,920.425 511.272,878.982 521.728,836.528 532.184,793.279 542.639,749.461 553.095,705.31 
  563.55,661.066 574.006,616.976 584.462,573.287 594.917,530.245 605.373,488.093 615.828,447.067 626.284,407.395 636.74,369.297 647.195,332.978 657.651,298.63 
  668.106,266.429 678.562,236.536 689.018,209.092 699.473,184.221 709.929,162.026 720.385,142.592 730.84,125.982 741.296,112.241 751.751,101.395 762.207,93.4484 
  772.663,88.3888 783.118,86.1857 793.574,86.7917 804.029,90.1437 814.485,96.1639 824.941,104.761 835.396,115.832 845.852,129.263 856.307,144.93 866.763,162.702 
  877.219,182.44 887.674,204.002 898.13,227.239 908.585,252.002 919.041,278.139 929.497,305.498 939.952,333.929 950.408,363.282 960.864,393.41 971.319,424.172 
  981.775,455.427 992.23,487.044 1002.69,518.895 1013.14,550.857 1023.6,582.816 1034.05,614.664 1044.51,646.3 1054.96,677.629 1065.42,708.566 1075.88,739.031 
  1086.33,768.953 1096.79,798.269 1107.24,826.92 1117.7,854.858 1128.15,882.039 1138.61,908.425 1149.06,933.988 1159.52,958.703 1169.98,982.55 1180.43,1005.52 
  1190.89,1027.6 1201.34,1048.78 1211.8,1069.07 1222.25,1088.48 1232.71,1107.01 1243.16,1124.66 1253.62,1141.46 1264.08,1157.43 1274.53,1172.57 1284.99,1186.92 
  1295.44,1200.48 1305.9,1213.3 1316.35,1225.39 1326.81,1236.77 1337.27,1247.48 1347.72,1257.54 1358.18,1266.97 1368.63,1275.81 1379.09,1284.08 1389.54,1291.81 
  1400,1299.03 1410.45,1305.76 1420.91,1312.02 1431.37,1317.85 1441.82,1323.26 1452.28,1328.28 1462.73,1332.94 1473.19,1337.25 1483.64,1341.24 1494.1,1344.92 
  1504.56,1348.32 1515.01,1351.45 1525.47,1354.34 1535.92,1356.99 1546.38,1359.43 1556.83,1361.68 1567.29,1363.73 1577.74,1365.61 1588.2,1367.34 1598.66,1368.92 
  1609.11,1370.36 1619.57,1371.67 1630.02,1372.87 1640.48,1373.97 1650.93,1374.96 1661.39,1375.87 1671.84,1376.69 1682.3,1377.44 1692.76,1378.12 1703.21,1378.73 
  1713.67,1379.29 1724.12,1379.79 1734.58,1380.25 1745.03,1380.66 1755.49,1381.03 1765.95,1381.36 1776.4,1381.66 1786.86,1381.94 1797.31,1382.18 1807.77,1382.4 
  1818.22,1382.6 1828.68,1382.78 1839.13,1382.93 1849.59,1383.08 1860.05,1383.2 1870.5,1383.32 1880.96,1383.42 1891.41,1383.51 1901.87,1383.59 1912.32,1383.67 
  1922.78,1383.73 1933.24,1383.79 1943.69,1383.84 1954.15,1383.89 1964.6,1383.93 1975.06,1383.96 1985.51,1384 1995.97,1384.02 2006.42,1384.05 2016.88,1384.07 
  2027.34,1384.09 2037.79,1384.11 2048.25,1384.12 2058.7,1384.14 2069.16,1384.15 2079.61,1384.16 2090.07,1384.17 2100.52,1384.18 2110.98,1384.19 2121.44,1384.19 
  2131.89,1384.2 
  "/>
<path clip-path="url(#clip900)" d="
M1810.55 335.029 L2282.27 335.029 L2282.27 93.1086 L1810.55 93.1086  Z
  " fill="#ffffff" fill-rule="evenodd" fill-opacity="1"/>
<polyline clip-path="url(#clip900)" style="stroke:#000000; stroke-width:4; stroke-opacity:1; fill:none" points="
  1810.55,335.029 2282.27,335.029 2282.27,93.1086 1810.55,93.1086 1810.55,335.029 
  "/>
<path clip-path="url(#clip900)" d="
M1834.05 177.781 L1975.02 177.781 L1975.02 129.397 L1834.05 129.397 L1834.05 177.781  Z
  " fill="#009af9" fill-rule="evenodd" fill-opacity="1"/>
<polyline clip-path="url(#clip900)" style="stroke:#009af9; stroke-width:4; stroke-opacity:1; fill:none" points="
  1834.05,177.781 1975.02,177.781 1975.02,129.397 1834.05,129.397 1834.05,177.781 
  "/>
<path clip-path="url(#clip900)" d="M 0 0 M2012.36 173.276 Q2010.56 177.906 2008.84 179.318 Q2007.13 180.73 2004.26 180.73 L2000.86 180.73 L2000.86 177.165 L2003.36 177.165 Q2005.12 177.165 2006.09 176.332 Q2007.06 175.498 2008.24 172.396 L2009 170.452 L1998.52 144.943 L2003.03 144.943 L2011.13 165.221 L2019.24 144.943 L2023.75 144.943 L2012.36 173.276 Z" fill="#000000" fill-rule="evenodd" fill-opacity="1" /><path clip-path="url(#clip900)" d="M 0 0 M2029.63 166.933 L2037.27 166.933 L2037.27 140.568 L2028.96 142.235 L2028.96 137.975 L2037.22 136.309 L2041.9 136.309 L2041.9 166.933 L2049.54 166.933 L2049.54 170.869 L2029.63 170.869 L2029.63 166.933 Z" fill="#000000" fill-rule="evenodd" fill-opacity="1" /><polyline clip-path="url(#clip900)" style="stroke:#e26f46; stroke-width:4; stroke-opacity:1; fill:none" points="
  1834.05,214.069 1975.02,214.069 
  "/>
<path clip-path="url(#clip900)" d="M 0 0 M2017.43 218.085 Q2017.43 213.455 2015.51 210.909 Q2013.61 208.363 2010.16 208.363 Q2006.74 208.363 2004.81 210.909 Q2002.92 213.455 2002.92 218.085 Q2002.92 222.691 2004.81 225.238 Q2006.74 227.784 2010.16 227.784 Q2013.61 227.784 2015.51 225.238 Q2017.43 222.691 2017.43 218.085 M2021.69 228.131 Q2021.69 234.751 2018.75 237.969 Q2015.81 241.21 2009.75 241.21 Q2007.5 241.21 2005.51 240.862 Q2003.52 240.538 2001.64 239.844 L2001.64 235.7 Q2003.52 236.719 2005.35 237.205 Q2007.18 237.691 2009.07 237.691 Q2013.26 237.691 2015.35 235.492 Q2017.43 233.316 2017.43 228.895 L2017.43 226.788 Q2016.11 229.08 2014.05 230.214 Q2011.99 231.349 2009.12 231.349 Q2004.35 231.349 2001.44 227.714 Q1998.52 224.08 1998.52 218.085 Q1998.52 212.066 2001.44 208.432 Q2004.35 204.798 2009.12 204.798 Q2011.99 204.798 2014.05 205.932 Q2016.11 207.066 2017.43 209.358 L2017.43 205.423 L2021.69 205.423 L2021.69 228.131 Z" fill="#000000" fill-rule="evenodd" fill-opacity="1" /><path clip-path="url(#clip900)" d="M 0 0 M2037.94 218.316 Q2032.78 218.316 2030.79 219.497 Q2028.8 220.677 2028.8 223.525 Q2028.8 225.793 2030.28 227.136 Q2031.78 228.455 2034.35 228.455 Q2037.89 228.455 2040.02 225.955 Q2042.18 223.432 2042.18 219.265 L2042.18 218.316 L2037.94 218.316 M2046.44 216.557 L2046.44 231.349 L2042.18 231.349 L2042.18 227.413 Q2040.72 229.775 2038.54 230.909 Q2036.37 232.02 2033.22 232.02 Q2029.24 232.02 2026.88 229.798 Q2024.54 227.552 2024.54 223.802 Q2024.54 219.427 2027.45 217.205 Q2030.39 214.983 2036.2 214.983 L2042.18 214.983 L2042.18 214.566 Q2042.18 211.627 2040.23 210.029 Q2038.31 208.409 2034.81 208.409 Q2032.59 208.409 2030.49 208.941 Q2028.38 209.474 2026.44 210.539 L2026.44 206.603 Q2028.77 205.701 2030.97 205.261 Q2033.17 204.798 2035.25 204.798 Q2040.88 204.798 2043.66 207.714 Q2046.44 210.631 2046.44 216.557 Z" fill="#000000" fill-rule="evenodd" fill-opacity="1" /><path clip-path="url(#clip900)" d="M 0 0 M2050.46 221.117 L2050.46 205.423 L2054.72 205.423 L2054.72 220.955 Q2054.72 224.636 2056.16 226.488 Q2057.59 228.316 2060.46 228.316 Q2063.91 228.316 2065.9 226.117 Q2067.92 223.918 2067.92 220.122 L2067.92 205.423 L2072.18 205.423 L2072.18 231.349 L2067.92 231.349 L2067.92 227.367 Q2066.37 229.728 2064.31 230.886 Q2062.27 232.02 2059.56 232.02 Q2055.09 232.02 2052.78 229.242 Q2050.46 226.464 2050.46 221.117 M2061.18 204.798 L2061.18 204.798 Z" fill="#000000" fill-rule="evenodd" fill-opacity="1" /><path clip-path="url(#clip900)" d="M 0 0 M2093.17 206.187 L2093.17 210.214 Q2091.37 209.289 2089.42 208.826 Q2087.48 208.363 2085.39 208.363 Q2082.22 208.363 2080.62 209.335 Q2079.05 210.307 2079.05 212.251 Q2079.05 213.733 2080.18 214.589 Q2081.32 215.423 2084.75 216.187 L2086.2 216.511 Q2090.74 217.483 2092.64 219.265 Q2094.56 221.025 2094.56 224.196 Q2094.56 227.807 2091.69 229.913 Q2088.84 232.02 2083.84 232.02 Q2081.76 232.02 2079.49 231.603 Q2077.25 231.21 2074.75 230.4 L2074.75 226.001 Q2077.11 227.228 2079.4 227.853 Q2081.69 228.455 2083.93 228.455 Q2086.94 228.455 2088.56 227.437 Q2090.18 226.395 2090.18 224.52 Q2090.18 222.784 2089 221.858 Q2087.85 220.932 2083.89 220.076 L2082.41 219.728 Q2078.45 218.895 2076.69 217.182 Q2074.93 215.446 2074.93 212.437 Q2074.93 208.779 2077.52 206.789 Q2080.12 204.798 2084.88 204.798 Q2087.25 204.798 2089.33 205.145 Q2091.41 205.492 2093.17 206.187 Z" fill="#000000" fill-rule="evenodd" fill-opacity="1" /><path clip-path="url(#clip900)" d="M 0 0 M2115.56 206.187 L2115.56 210.214 Q2113.75 209.289 2111.81 208.826 Q2109.86 208.363 2107.78 208.363 Q2104.61 208.363 2103.01 209.335 Q2101.43 210.307 2101.43 212.251 Q2101.43 213.733 2102.57 214.589 Q2103.7 215.423 2107.13 216.187 L2108.59 216.511 Q2113.12 217.483 2115.02 219.265 Q2116.94 221.025 2116.94 224.196 Q2116.94 227.807 2114.07 229.913 Q2111.23 232.02 2106.23 232.02 Q2104.14 232.02 2101.87 231.603 Q2099.63 231.21 2097.13 230.4 L2097.13 226.001 Q2099.49 227.228 2101.78 227.853 Q2104.07 228.455 2106.32 228.455 Q2109.33 228.455 2110.95 227.437 Q2112.57 226.395 2112.57 224.52 Q2112.57 222.784 2111.39 221.858 Q2110.23 220.932 2106.27 220.076 L2104.79 219.728 Q2100.83 218.895 2099.07 217.182 Q2097.31 215.446 2097.31 212.437 Q2097.31 208.779 2099.91 206.789 Q2102.5 204.798 2107.27 204.798 Q2109.63 204.798 2111.71 205.145 Q2113.8 205.492 2115.56 206.187 Z" fill="#000000" fill-rule="evenodd" fill-opacity="1" /><path clip-path="url(#clip900)" d="M 0 0 M2121.41 205.423 L2125.67 205.423 L2125.67 231.349 L2121.41 231.349 L2121.41 205.423 M2121.41 195.33 L2125.67 195.33 L2125.67 200.724 L2121.41 200.724 L2121.41 195.33 Z" fill="#000000" fill-rule="evenodd" fill-opacity="1" /><path clip-path="url(#clip900)" d="M 0 0 M2141.92 218.316 Q2136.76 218.316 2134.77 219.497 Q2132.78 220.677 2132.78 223.525 Q2132.78 225.793 2134.26 227.136 Q2135.76 228.455 2138.33 228.455 Q2141.87 228.455 2144 225.955 Q2146.16 223.432 2146.16 219.265 L2146.16 218.316 L2141.92 218.316 M2150.42 216.557 L2150.42 231.349 L2146.16 231.349 L2146.16 227.413 Q2144.7 229.775 2142.52 230.909 Q2140.35 232.02 2137.2 232.02 Q2133.22 232.02 2130.86 229.798 Q2128.52 227.552 2128.52 223.802 Q2128.52 219.427 2131.43 217.205 Q2134.37 214.983 2140.18 214.983 L2146.16 214.983 L2146.16 214.566 Q2146.16 211.627 2144.21 210.029 Q2142.29 208.409 2138.8 208.409 Q2136.57 208.409 2134.47 208.941 Q2132.36 209.474 2130.42 210.539 L2130.42 206.603 Q2132.75 205.701 2134.95 205.261 Q2137.15 204.798 2139.24 204.798 Q2144.86 204.798 2147.64 207.714 Q2150.42 210.631 2150.42 216.557 Z" fill="#000000" fill-rule="evenodd" fill-opacity="1" /><path clip-path="url(#clip900)" d="M 0 0 M2176.43 215.701 L2176.43 231.349 L2172.18 231.349 L2172.18 215.839 Q2172.18 212.159 2170.74 210.33 Q2169.3 208.502 2166.43 208.502 Q2162.99 208.502 2160.99 210.701 Q2159 212.9 2159 216.696 L2159 231.349 L2154.72 231.349 L2154.72 205.423 L2159 205.423 L2159 209.451 Q2160.53 207.113 2162.59 205.955 Q2164.68 204.798 2167.38 204.798 Q2171.85 204.798 2174.14 207.576 Q2176.43 210.33 2176.43 215.701 Z" fill="#000000" fill-rule="evenodd" fill-opacity="1" /><path clip-path="url(#clip900)" d="M 0 0 M2209.1 195.33 L2209.1 198.872 L2205.02 198.872 Q2202.73 198.872 2201.83 199.798 Q2200.95 200.724 2200.95 203.131 L2200.95 205.423 L2207.96 205.423 L2207.96 208.733 L2200.95 208.733 L2200.95 231.349 L2196.67 231.349 L2196.67 208.733 L2192.59 208.733 L2192.59 205.423 L2196.67 205.423 L2196.67 203.617 Q2196.67 199.289 2198.68 197.321 Q2200.69 195.33 2205.07 195.33 L2209.1 195.33 Z" fill="#000000" fill-rule="evenodd" fill-opacity="1" /><path clip-path="url(#clip900)" d="M 0 0 M2213.56 205.423 L2217.82 205.423 L2217.82 231.349 L2213.56 231.349 L2213.56 205.423 M2213.56 195.33 L2217.82 195.33 L2217.82 200.724 L2213.56 200.724 L2213.56 195.33 Z" fill="#000000" fill-rule="evenodd" fill-opacity="1" /><path clip-path="url(#clip900)" d="M 0 0 M2226.5 198.062 L2226.5 205.423 L2235.28 205.423 L2235.28 208.733 L2226.5 208.733 L2226.5 222.807 Q2226.5 225.978 2227.36 226.881 Q2228.24 227.784 2230.9 227.784 L2235.28 227.784 L2235.28 231.349 L2230.9 231.349 Q2225.97 231.349 2224.1 229.52 Q2222.22 227.668 2222.22 222.807 L2222.22 208.733 L2219.1 208.733 L2219.1 205.423 L2222.22 205.423 L2222.22 198.062 L2226.5 198.062 Z" fill="#000000" fill-rule="evenodd" fill-opacity="1" /><polyline clip-path="url(#clip900)" style="stroke:#3da44d; stroke-width:4; stroke-opacity:1; fill:none" points="
  1834.05,274.549 1975.02,274.549 
  "/>
<path clip-path="url(#clip900)" d="M 0 0 M2002.8 287.94 L2002.8 301.69 L1998.52 301.69 L1998.52 265.903 L2002.8 265.903 L2002.8 269.838 Q2004.14 267.523 2006.18 266.412 Q2008.24 265.278 2011.09 265.278 Q2015.81 265.278 2018.75 269.028 Q2021.71 272.778 2021.71 278.889 Q2021.71 285 2018.75 288.75 Q2015.81 292.5 2011.09 292.5 Q2008.24 292.5 2006.18 291.389 Q2004.14 290.255 2002.8 287.94 M2017.29 278.889 Q2017.29 274.19 2015.35 271.528 Q2013.43 268.843 2010.05 268.843 Q2006.67 268.843 2004.72 271.528 Q2002.8 274.19 2002.8 278.889 Q2002.8 283.588 2004.72 286.273 Q2006.67 288.935 2010.05 288.935 Q2013.43 288.935 2015.35 286.273 Q2017.29 283.588 2017.29 278.889 Z" fill="#000000" fill-rule="evenodd" fill-opacity="1" /><path clip-path="url(#clip900)" d="M 0 0 M2036.23 268.889 Q2032.8 268.889 2030.81 271.574 Q2028.82 274.236 2028.82 278.889 Q2028.82 283.542 2030.79 286.227 Q2032.78 288.889 2036.23 288.889 Q2039.63 288.889 2041.62 286.204 Q2043.61 283.518 2043.61 278.889 Q2043.61 274.282 2041.62 271.597 Q2039.63 268.889 2036.23 268.889 M2036.23 265.278 Q2041.78 265.278 2044.95 268.889 Q2048.12 272.5 2048.12 278.889 Q2048.12 285.255 2044.95 288.889 Q2041.78 292.5 2036.23 292.5 Q2030.65 292.5 2027.48 288.889 Q2024.33 285.255 2024.33 278.889 Q2024.33 272.5 2027.48 268.889 Q2030.65 265.278 2036.23 265.278 Z" fill="#000000" fill-rule="evenodd" fill-opacity="1" /><path clip-path="url(#clip900)" d="M 0 0 M2052.59 265.903 L2056.85 265.903 L2056.85 291.829 L2052.59 291.829 L2052.59 265.903 M2052.59 255.81 L2056.85 255.81 L2056.85 261.204 L2052.59 261.204 L2052.59 255.81 Z" fill="#000000" fill-rule="evenodd" fill-opacity="1" /><path clip-path="url(#clip900)" d="M 0 0 M2077.85 266.667 L2077.85 270.694 Q2076.04 269.769 2074.1 269.306 Q2072.15 268.843 2070.07 268.843 Q2066.9 268.843 2065.3 269.815 Q2063.73 270.787 2063.73 272.731 Q2063.73 274.213 2064.86 275.069 Q2066 275.903 2069.42 276.667 L2070.88 276.991 Q2075.42 277.963 2077.31 279.745 Q2079.24 281.505 2079.24 284.676 Q2079.24 288.287 2076.37 290.393 Q2073.52 292.5 2068.52 292.5 Q2066.44 292.5 2064.17 292.083 Q2061.92 291.69 2059.42 290.88 L2059.42 286.481 Q2061.78 287.708 2064.07 288.333 Q2066.37 288.935 2068.61 288.935 Q2071.62 288.935 2073.24 287.917 Q2074.86 286.875 2074.86 285 Q2074.86 283.264 2073.68 282.338 Q2072.52 281.412 2068.56 280.556 L2067.08 280.208 Q2063.12 279.375 2061.37 277.662 Q2059.61 275.926 2059.61 272.917 Q2059.61 269.259 2062.2 267.269 Q2064.79 265.278 2069.56 265.278 Q2071.92 265.278 2074 265.625 Q2076.09 265.972 2077.85 266.667 Z" fill="#000000" fill-rule="evenodd" fill-opacity="1" /><path clip-path="url(#clip900)" d="M 0 0 M2100.23 266.667 L2100.23 270.694 Q2098.43 269.769 2096.48 269.306 Q2094.54 268.843 2092.45 268.843 Q2089.28 268.843 2087.68 269.815 Q2086.11 270.787 2086.11 272.731 Q2086.11 274.213 2087.25 275.069 Q2088.38 275.903 2091.81 276.667 L2093.26 276.991 Q2097.8 277.963 2099.7 279.745 Q2101.62 281.505 2101.62 284.676 Q2101.62 288.287 2098.75 290.393 Q2095.9 292.5 2090.9 292.5 Q2088.82 292.5 2086.55 292.083 Q2084.31 291.69 2081.81 290.88 L2081.81 286.481 Q2084.17 287.708 2086.46 288.333 Q2088.75 288.935 2091 288.935 Q2094 288.935 2095.62 287.917 Q2097.25 286.875 2097.25 285 Q2097.25 283.264 2096.06 282.338 Q2094.91 281.412 2090.95 280.556 L2089.47 280.208 Q2085.51 279.375 2083.75 277.662 Q2081.99 275.926 2081.99 272.917 Q2081.99 269.259 2084.58 267.269 Q2087.18 265.278 2091.94 265.278 Q2094.31 265.278 2096.39 265.625 Q2098.47 265.972 2100.23 266.667 Z" fill="#000000" fill-rule="evenodd" fill-opacity="1" /><path clip-path="url(#clip900)" d="M 0 0 M2116.13 268.889 Q2112.71 268.889 2110.72 271.574 Q2108.73 274.236 2108.73 278.889 Q2108.73 283.542 2110.69 286.227 Q2112.68 288.889 2116.13 288.889 Q2119.54 288.889 2121.53 286.204 Q2123.52 283.518 2123.52 278.889 Q2123.52 274.282 2121.53 271.597 Q2119.54 268.889 2116.13 268.889 M2116.13 265.278 Q2121.69 265.278 2124.86 268.889 Q2128.03 272.5 2128.03 278.889 Q2128.03 285.255 2124.86 288.889 Q2121.69 292.5 2116.13 292.5 Q2110.56 292.5 2107.38 288.889 Q2104.24 285.255 2104.24 278.889 Q2104.24 272.5 2107.38 268.889 Q2110.56 265.278 2116.13 265.278 Z" fill="#000000" fill-rule="evenodd" fill-opacity="1" /><path clip-path="url(#clip900)" d="M 0 0 M2154.05 276.181 L2154.05 291.829 L2149.79 291.829 L2149.79 276.319 Q2149.79 272.639 2148.36 270.81 Q2146.92 268.982 2144.05 268.982 Q2140.6 268.982 2138.61 271.181 Q2136.62 273.38 2136.62 277.176 L2136.62 291.829 L2132.34 291.829 L2132.34 265.903 L2136.62 265.903 L2136.62 269.931 Q2138.15 267.593 2140.21 266.435 Q2142.29 265.278 2145 265.278 Q2149.47 265.278 2151.76 268.056 Q2154.05 270.81 2154.05 276.181 Z" fill="#000000" fill-rule="evenodd" fill-opacity="1" /><path clip-path="url(#clip900)" d="M 0 0 M2186.71 255.81 L2186.71 259.352 L2182.64 259.352 Q2180.35 259.352 2179.44 260.278 Q2178.56 261.204 2178.56 263.611 L2178.56 265.903 L2185.58 265.903 L2185.58 269.213 L2178.56 269.213 L2178.56 291.829 L2174.28 291.829 L2174.28 269.213 L2170.21 269.213 L2170.21 265.903 L2174.28 265.903 L2174.28 264.097 Q2174.28 259.769 2176.3 257.801 Q2178.31 255.81 2182.68 255.81 L2186.71 255.81 Z" fill="#000000" fill-rule="evenodd" fill-opacity="1" /><path clip-path="url(#clip900)" d="M 0 0 M2191.18 265.903 L2195.44 265.903 L2195.44 291.829 L2191.18 291.829 L2191.18 265.903 M2191.18 255.81 L2195.44 255.81 L2195.44 261.204 L2191.18 261.204 L2191.18 255.81 Z" fill="#000000" fill-rule="evenodd" fill-opacity="1" /><path clip-path="url(#clip900)" d="M 0 0 M2204.12 258.542 L2204.12 265.903 L2212.89 265.903 L2212.89 269.213 L2204.12 269.213 L2204.12 283.287 Q2204.12 286.458 2204.98 287.361 Q2205.86 288.264 2208.52 288.264 L2212.89 288.264 L2212.89 291.829 L2208.52 291.829 Q2203.59 291.829 2201.71 290 Q2199.84 288.148 2199.84 283.287 L2199.84 269.213 L2196.71 269.213 L2196.71 265.903 L2199.84 265.903 L2199.84 258.542 L2204.12 258.542 Z" fill="#000000" fill-rule="evenodd" fill-opacity="1" /></svg>
