<?xml version="1.0" encoding="utf-8"?>
<svg xmlns="http://www.w3.org/2000/svg" xmlns:xlink="http://www.w3.org/1999/xlink" width="600" height="400" viewBox="0 0 2400 1600">
<defs>
  <clipPath id="clip930">
    <rect x="0" y="0" width="2400" height="1600"/>
  </clipPath>
</defs>
<path clip-path="url(#clip930)" d="
M0 1600 L2400 1600 L2400 0 L0 0  Z
  " fill="#ffffff" fill-rule="evenodd" fill-opacity="1"/>
<defs>
  <clipPath id="clip931">
    <rect x="480" y="0" width="1681" height="1600"/>
  </clipPath>
</defs>
<path clip-path="url(#clip930)" d="
M238.13 1423.18 L2352.76 1423.18 L2352.76 47.2441 L238.13 47.2441  Z
  " fill="#ffffff" fill-rule="evenodd" fill-opacity="1"/>
<defs>
  <clipPath id="clip932">
    <rect x="238" y="47" width="2116" height="1377"/>
  </clipPath>
</defs>
<polyline clip-path="url(#clip932)" style="stroke:#000000; stroke-width:2; stroke-opacity:0.1; fill:none" points="
  354.438,1423.18 354.438,47.2441 
  "/>
<polyline clip-path="url(#clip932)" style="stroke:#000000; stroke-width:2; stroke-opacity:0.1; fill:none" points="
  757.726,1423.18 757.726,47.2441 
  "/>
<polyline clip-path="url(#clip932)" style="stroke:#000000; stroke-width:2; stroke-opacity:0.1; fill:none" points="
  1161.01,1423.18 1161.01,47.2441 
  "/>
<polyline clip-path="url(#clip932)" style="stroke:#000000; stroke-width:2; stroke-opacity:0.1; fill:none" points="
  1564.3,1423.18 1564.3,47.2441 
  "/>
<polyline clip-path="url(#clip932)" style="stroke:#000000; stroke-width:2; stroke-opacity:0.1; fill:none" points="
  1967.59,1423.18 1967.59,47.2441 
  "/>
<polyline clip-path="url(#clip930)" style="stroke:#000000; stroke-width:4; stroke-opacity:1; fill:none" points="
  238.13,1423.18 2352.76,1423.18 
  "/>
<polyline clip-path="url(#clip930)" style="stroke:#000000; stroke-width:4; stroke-opacity:1; fill:none" points="
  354.438,1423.18 354.438,1406.67 
  "/>
<polyline clip-path="url(#clip930)" style="stroke:#000000; stroke-width:4; stroke-opacity:1; fill:none" points="
  757.726,1423.18 757.726,1406.67 
  "/>
<polyline clip-path="url(#clip930)" style="stroke:#000000; stroke-width:4; stroke-opacity:1; fill:none" points="
  1161.01,1423.18 1161.01,1406.67 
  "/>
<polyline clip-path="url(#clip930)" style="stroke:#000000; stroke-width:4; stroke-opacity:1; fill:none" points="
  1564.3,1423.18 1564.3,1406.67 
  "/>
<polyline clip-path="url(#clip930)" style="stroke:#000000; stroke-width:4; stroke-opacity:1; fill:none" points="
  1967.59,1423.18 1967.59,1406.67 
  "/>
<path clip-path="url(#clip930)" d="M 0 0 M354.438 1452.37 Q350.827 1452.37 348.998 1455.94 Q347.193 1459.48 347.193 1466.61 Q347.193 1473.71 348.998 1477.28 Q350.827 1480.82 354.438 1480.82 Q358.072 1480.82 359.878 1477.28 Q361.707 1473.71 361.707 1466.61 Q361.707 1459.48 359.878 1455.94 Q358.072 1452.37 354.438 1452.37 M354.438 1448.67 Q360.248 1448.67 363.304 1453.27 Q366.383 1457.86 366.383 1466.61 Q366.383 1475.33 363.304 1479.94 Q360.248 1484.52 354.438 1484.52 Q348.628 1484.52 345.549 1479.94 Q342.494 1475.33 342.494 1466.61 Q342.494 1457.86 345.549 1453.27 Q348.628 1448.67 354.438 1448.67 Z" fill="#000000" fill-rule="evenodd" fill-opacity="1" /><path clip-path="url(#clip930)" d="M 0 0 M761.974 1465.22 Q765.33 1465.94 767.205 1468.2 Q769.103 1470.47 769.103 1473.81 Q769.103 1478.92 765.585 1481.72 Q762.066 1484.52 755.585 1484.52 Q753.409 1484.52 751.094 1484.08 Q748.802 1483.67 746.349 1482.81 L746.349 1478.3 Q748.293 1479.43 750.608 1480.01 Q752.923 1480.59 755.446 1480.59 Q759.844 1480.59 762.136 1478.85 Q764.45 1477.12 764.45 1473.81 Q764.45 1470.75 762.298 1469.04 Q760.168 1467.3 756.349 1467.3 L752.321 1467.3 L752.321 1463.46 L756.534 1463.46 Q759.983 1463.46 761.812 1462.09 Q763.64 1460.7 763.64 1458.11 Q763.64 1455.45 761.742 1454.04 Q759.867 1452.6 756.349 1452.6 Q754.427 1452.6 752.228 1453.02 Q750.029 1453.44 747.39 1454.31 L747.39 1450.15 Q750.052 1449.41 752.367 1449.04 Q754.705 1448.67 756.765 1448.67 Q762.089 1448.67 765.191 1451.1 Q768.293 1453.5 768.293 1457.63 Q768.293 1460.5 766.65 1462.49 Q765.006 1464.45 761.974 1465.22 Z" fill="#000000" fill-rule="evenodd" fill-opacity="1" /><path clip-path="url(#clip930)" d="M 0 0 M1161.42 1464.71 Q1158.27 1464.71 1156.42 1466.86 Q1154.59 1469.01 1154.59 1472.76 Q1154.59 1476.49 1156.42 1478.67 Q1158.27 1480.82 1161.42 1480.82 Q1164.57 1480.82 1166.4 1478.67 Q1168.25 1476.49 1168.25 1472.76 Q1168.25 1469.01 1166.4 1466.86 Q1164.57 1464.71 1161.42 1464.71 M1170.7 1450.06 L1170.7 1454.31 Q1168.94 1453.48 1167.14 1453.04 Q1165.35 1452.6 1163.59 1452.6 Q1158.97 1452.6 1156.51 1455.73 Q1154.08 1458.85 1153.73 1465.17 Q1155.1 1463.16 1157.16 1462.09 Q1159.22 1461 1161.7 1461 Q1166.9 1461 1169.91 1464.18 Q1172.95 1467.32 1172.95 1472.76 Q1172.95 1478.09 1169.8 1481.31 Q1166.65 1484.52 1161.42 1484.52 Q1155.42 1484.52 1152.25 1479.94 Q1149.08 1475.33 1149.08 1466.61 Q1149.08 1458.41 1152.97 1453.55 Q1156.86 1448.67 1163.41 1448.67 Q1165.17 1448.67 1166.95 1449.01 Q1168.76 1449.36 1170.7 1450.06 Z" fill="#000000" fill-rule="evenodd" fill-opacity="1" /><path clip-path="url(#clip930)" d="M 0 0 M1554.6 1483.13 L1554.6 1478.88 Q1556.36 1479.71 1558.17 1480.15 Q1559.97 1480.59 1561.71 1480.59 Q1566.34 1480.59 1568.77 1477.49 Q1571.22 1474.36 1571.57 1468.02 Q1570.23 1470.01 1568.17 1471.07 Q1566.11 1472.14 1563.61 1472.14 Q1558.42 1472.14 1555.39 1469.01 Q1552.38 1465.87 1552.38 1460.43 Q1552.38 1455.1 1555.53 1451.88 Q1558.68 1448.67 1563.91 1448.67 Q1569.9 1448.67 1573.05 1453.27 Q1576.22 1457.86 1576.22 1466.61 Q1576.22 1474.78 1572.33 1479.66 Q1568.47 1484.52 1561.92 1484.52 Q1560.16 1484.52 1558.35 1484.18 Q1556.55 1483.83 1554.6 1483.13 M1563.91 1468.48 Q1567.06 1468.48 1568.88 1466.33 Q1570.74 1464.18 1570.74 1460.43 Q1570.74 1456.7 1568.88 1454.55 Q1567.06 1452.37 1563.91 1452.37 Q1560.76 1452.37 1558.91 1454.55 Q1557.08 1456.7 1557.08 1460.43 Q1557.08 1464.18 1558.91 1466.33 Q1560.76 1468.48 1563.91 1468.48 Z" fill="#000000" fill-rule="evenodd" fill-opacity="1" /><path clip-path="url(#clip930)" d="M 0 0 M1945.26 1479.92 L1952.9 1479.92 L1952.9 1453.55 L1944.59 1455.22 L1944.59 1450.96 L1952.86 1449.29 L1957.53 1449.29 L1957.53 1479.92 L1965.17 1479.92 L1965.17 1483.85 L1945.26 1483.85 L1945.26 1479.92 Z" fill="#000000" fill-rule="evenodd" fill-opacity="1" /><path clip-path="url(#clip930)" d="M 0 0 M1974.27 1479.92 L1990.59 1479.92 L1990.59 1483.85 L1968.64 1483.85 L1968.64 1479.92 Q1971.3 1477.16 1975.89 1472.53 Q1980.49 1467.88 1981.67 1466.54 Q1983.92 1464.01 1984.8 1462.28 Q1985.7 1460.52 1985.7 1458.83 Q1985.7 1456.07 1983.76 1454.34 Q1981.84 1452.6 1978.73 1452.6 Q1976.54 1452.6 1974.08 1453.37 Q1971.65 1454.13 1968.87 1455.68 L1968.87 1450.96 Q1971.7 1449.82 1974.15 1449.25 Q1976.61 1448.67 1978.64 1448.67 Q1984.01 1448.67 1987.21 1451.35 Q1990.4 1454.04 1990.4 1458.53 Q1990.4 1460.66 1989.59 1462.58 Q1988.8 1464.48 1986.7 1467.07 Q1986.12 1467.74 1983.02 1470.96 Q1979.92 1474.15 1974.27 1479.92 Z" fill="#000000" fill-rule="evenodd" fill-opacity="1" /><path clip-path="url(#clip930)" d="M 0 0 M1297.4 1539.24 Q1299.6 1535.29 1302.65 1533.41 Q1305.71 1531.54 1309.85 1531.54 Q1315.42 1531.54 1318.44 1535.45 Q1321.46 1539.33 1321.46 1546.53 L1321.46 1568.04 L1315.57 1568.04 L1315.57 1546.72 Q1315.57 1541.59 1313.76 1539.11 Q1311.95 1536.63 1308.22 1536.63 Q1303.67 1536.63 1301.03 1539.65 Q1298.39 1542.68 1298.39 1547.9 L1298.39 1568.04 L1292.5 1568.04 L1292.5 1546.72 Q1292.5 1541.56 1290.68 1539.11 Q1288.87 1536.63 1285.08 1536.63 Q1280.59 1536.63 1277.95 1539.68 Q1275.31 1542.71 1275.31 1547.9 L1275.31 1568.04 L1269.42 1568.04 L1269.42 1532.4 L1275.31 1532.4 L1275.31 1537.93 Q1277.32 1534.66 1280.12 1533.1 Q1282.92 1531.54 1286.77 1531.54 Q1290.65 1531.54 1293.36 1533.51 Q1296.1 1535.48 1297.4 1539.24 Z" fill="#000000" fill-rule="evenodd" fill-opacity="1" /><polyline clip-path="url(#clip932)" style="stroke:#000000; stroke-width:2; stroke-opacity:0.1; fill:none" points="
  238.13,1384.24 2352.76,1384.24 
  "/>
<polyline clip-path="url(#clip932)" style="stroke:#000000; stroke-width:2; stroke-opacity:0.1; fill:none" points="
  238.13,1140.9 2352.76,1140.9 
  "/>
<polyline clip-path="url(#clip932)" style="stroke:#000000; stroke-width:2; stroke-opacity:0.1; fill:none" points="
  238.13,897.565 2352.76,897.565 
  "/>
<polyline clip-path="url(#clip932)" style="stroke:#000000; stroke-width:2; stroke-opacity:0.1; fill:none" points="
  238.13,654.228 2352.76,654.228 
  "/>
<polyline clip-path="url(#clip932)" style="stroke:#000000; stroke-width:2; stroke-opacity:0.1; fill:none" points="
  238.13,410.892 2352.76,410.892 
  "/>
<polyline clip-path="url(#clip932)" style="stroke:#000000; stroke-width:2; stroke-opacity:0.1; fill:none" points="
  238.13,167.555 2352.76,167.555 
  "/>
<polyline clip-path="url(#clip930)" style="stroke:#000000; stroke-width:4; stroke-opacity:1; fill:none" points="
  238.13,1423.18 238.13,47.2441 
  "/>
<polyline clip-path="url(#clip930)" style="stroke:#000000; stroke-width:4; stroke-opacity:1; fill:none" points="
  238.13,1384.24 263.506,1384.24 
  "/>
<polyline clip-path="url(#clip930)" style="stroke:#000000; stroke-width:4; stroke-opacity:1; fill:none" points="
  238.13,1140.9 263.506,1140.9 
  "/>
<polyline clip-path="url(#clip930)" style="stroke:#000000; stroke-width:4; stroke-opacity:1; fill:none" points="
  238.13,897.565 263.506,897.565 
  "/>
<polyline clip-path="url(#clip930)" style="stroke:#000000; stroke-width:4; stroke-opacity:1; fill:none" points="
  238.13,654.228 263.506,654.228 
  "/>
<polyline clip-path="url(#clip930)" style="stroke:#000000; stroke-width:4; stroke-opacity:1; fill:none" points="
  238.13,410.892 263.506,410.892 
  "/>
<polyline clip-path="url(#clip930)" style="stroke:#000000; stroke-width:4; stroke-opacity:1; fill:none" points="
  238.13,167.555 263.506,167.555 
  "/>
<path clip-path="url(#clip930)" d="M 0 0 M126.205 1370.04 Q122.593 1370.04 120.765 1373.6 Q118.959 1377.14 118.959 1384.27 Q118.959 1391.38 120.765 1394.94 Q122.593 1398.49 126.205 1398.49 Q129.839 1398.49 131.644 1394.94 Q133.473 1391.38 133.473 1384.27 Q133.473 1377.14 131.644 1373.6 Q129.839 1370.04 126.205 1370.04 M126.205 1366.33 Q132.015 1366.33 135.07 1370.94 Q138.149 1375.52 138.149 1384.27 Q138.149 1393 135.07 1397.61 Q132.015 1402.19 126.205 1402.19 Q120.394 1402.19 117.316 1397.61 Q114.26 1393 114.26 1384.27 Q114.26 1375.52 117.316 1370.94 Q120.394 1366.33 126.205 1366.33 Z" fill="#000000" fill-rule="evenodd" fill-opacity="1" /><path clip-path="url(#clip930)" d="M 0 0 M143.218 1395.64 L148.103 1395.64 L148.103 1401.52 L143.218 1401.52 L143.218 1395.64 Z" fill="#000000" fill-rule="evenodd" fill-opacity="1" /><path clip-path="url(#clip930)" d="M 0 0 M163.172 1370.04 Q159.561 1370.04 157.732 1373.6 Q155.927 1377.14 155.927 1384.27 Q155.927 1391.38 157.732 1394.94 Q159.561 1398.49 163.172 1398.49 Q166.806 1398.49 168.612 1394.94 Q170.44 1391.38 170.44 1384.27 Q170.44 1377.14 168.612 1373.6 Q166.806 1370.04 163.172 1370.04 M163.172 1366.33 Q168.982 1366.33 172.038 1370.94 Q175.116 1375.52 175.116 1384.27 Q175.116 1393 172.038 1397.61 Q168.982 1402.19 163.172 1402.19 Q157.362 1402.19 154.283 1397.61 Q151.228 1393 151.228 1384.27 Q151.228 1375.52 154.283 1370.94 Q157.362 1366.33 163.172 1366.33 Z" fill="#000000" fill-rule="evenodd" fill-opacity="1" /><path clip-path="url(#clip930)" d="M 0 0 M190.186 1370.04 Q186.575 1370.04 184.746 1373.6 Q182.94 1377.14 182.94 1384.27 Q182.94 1391.38 184.746 1394.94 Q186.575 1398.49 190.186 1398.49 Q193.82 1398.49 195.625 1394.94 Q197.454 1391.38 197.454 1384.27 Q197.454 1377.14 195.625 1373.6 Q193.82 1370.04 190.186 1370.04 M190.186 1366.33 Q195.996 1366.33 199.051 1370.94 Q202.13 1375.52 202.13 1384.27 Q202.13 1393 199.051 1397.61 Q195.996 1402.19 190.186 1402.19 Q184.376 1402.19 181.297 1397.61 Q178.241 1393 178.241 1384.27 Q178.241 1375.52 181.297 1370.94 Q184.376 1366.33 190.186 1366.33 Z" fill="#000000" fill-rule="evenodd" fill-opacity="1" /><path clip-path="url(#clip930)" d="M 0 0 M127.2 1126.7 Q123.589 1126.7 121.76 1130.27 Q119.955 1133.81 119.955 1140.94 Q119.955 1148.04 121.76 1151.61 Q123.589 1155.15 127.2 1155.15 Q130.834 1155.15 132.64 1151.61 Q134.468 1148.04 134.468 1140.94 Q134.468 1133.81 132.64 1130.27 Q130.834 1126.7 127.2 1126.7 M127.2 1123 Q133.01 1123 136.066 1127.6 Q139.144 1132.19 139.144 1140.94 Q139.144 1149.66 136.066 1154.27 Q133.01 1158.85 127.2 1158.85 Q121.39 1158.85 118.311 1154.27 Q115.256 1149.66 115.256 1140.94 Q115.256 1132.19 118.311 1127.6 Q121.39 1123 127.2 1123 Z" fill="#000000" fill-rule="evenodd" fill-opacity="1" /><path clip-path="url(#clip930)" d="M 0 0 M144.214 1152.3 L149.098 1152.3 L149.098 1158.18 L144.214 1158.18 L144.214 1152.3 Z" fill="#000000" fill-rule="evenodd" fill-opacity="1" /><path clip-path="url(#clip930)" d="M 0 0 M164.167 1126.7 Q160.556 1126.7 158.728 1130.27 Q156.922 1133.81 156.922 1140.94 Q156.922 1148.04 158.728 1151.61 Q160.556 1155.15 164.167 1155.15 Q167.802 1155.15 169.607 1151.61 Q171.436 1148.04 171.436 1140.94 Q171.436 1133.81 169.607 1130.27 Q167.802 1126.7 164.167 1126.7 M164.167 1123 Q169.977 1123 173.033 1127.6 Q176.112 1132.19 176.112 1140.94 Q176.112 1149.66 173.033 1154.27 Q169.977 1158.85 164.167 1158.85 Q158.357 1158.85 155.278 1154.27 Q152.223 1149.66 152.223 1140.94 Q152.223 1132.19 155.278 1127.6 Q158.357 1123 164.167 1123 Z" fill="#000000" fill-rule="evenodd" fill-opacity="1" /><path clip-path="url(#clip930)" d="M 0 0 M181.227 1123.62 L199.584 1123.62 L199.584 1127.56 L185.51 1127.56 L185.51 1136.03 Q186.528 1135.68 187.547 1135.52 Q188.565 1135.33 189.584 1135.33 Q195.371 1135.33 198.75 1138.51 Q202.13 1141.68 202.13 1147.09 Q202.13 1152.67 198.658 1155.77 Q195.186 1158.85 188.866 1158.85 Q186.69 1158.85 184.422 1158.48 Q182.176 1158.11 179.769 1157.37 L179.769 1152.67 Q181.852 1153.81 184.075 1154.36 Q186.297 1154.92 188.774 1154.92 Q192.778 1154.92 195.116 1152.81 Q197.454 1150.7 197.454 1147.09 Q197.454 1143.48 195.116 1141.38 Q192.778 1139.27 188.774 1139.27 Q186.899 1139.27 185.024 1139.69 Q183.172 1140.1 181.227 1140.98 L181.227 1123.62 Z" fill="#000000" fill-rule="evenodd" fill-opacity="1" /><path clip-path="url(#clip930)" d="M 0 0 M127.431 883.364 Q123.82 883.364 121.992 886.928 Q120.186 890.47 120.186 897.6 Q120.186 904.706 121.992 908.271 Q123.82 911.813 127.431 911.813 Q131.066 911.813 132.871 908.271 Q134.7 904.706 134.7 897.6 Q134.7 890.47 132.871 886.928 Q131.066 883.364 127.431 883.364 M127.431 879.66 Q133.242 879.66 136.297 884.266 Q139.376 888.85 139.376 897.6 Q139.376 906.326 136.297 910.933 Q133.242 915.516 127.431 915.516 Q121.621 915.516 118.543 910.933 Q115.487 906.326 115.487 897.6 Q115.487 888.85 118.543 884.266 Q121.621 879.66 127.431 879.66 Z" fill="#000000" fill-rule="evenodd" fill-opacity="1" /><path clip-path="url(#clip930)" d="M 0 0 M144.445 908.965 L149.329 908.965 L149.329 914.845 L144.445 914.845 L144.445 908.965 Z" fill="#000000" fill-rule="evenodd" fill-opacity="1" /><path clip-path="url(#clip930)" d="M 0 0 M155.209 910.91 L162.848 910.91 L162.848 884.544 L154.538 886.211 L154.538 881.952 L162.802 880.285 L167.477 880.285 L167.477 910.91 L175.116 910.91 L175.116 914.845 L155.209 914.845 L155.209 910.91 Z" fill="#000000" fill-rule="evenodd" fill-opacity="1" /><path clip-path="url(#clip930)" d="M 0 0 M190.186 883.364 Q186.575 883.364 184.746 886.928 Q182.94 890.47 182.94 897.6 Q182.94 904.706 184.746 908.271 Q186.575 911.813 190.186 911.813 Q193.82 911.813 195.625 908.271 Q197.454 904.706 197.454 897.6 Q197.454 890.47 195.625 886.928 Q193.82 883.364 190.186 883.364 M190.186 879.66 Q195.996 879.66 199.051 884.266 Q202.13 888.85 202.13 897.6 Q202.13 906.326 199.051 910.933 Q195.996 915.516 190.186 915.516 Q184.376 915.516 181.297 910.933 Q178.241 906.326 178.241 897.6 Q178.241 888.85 181.297 884.266 Q184.376 879.66 190.186 879.66 Z" fill="#000000" fill-rule="evenodd" fill-opacity="1" /><path clip-path="url(#clip930)" d="M 0 0 M128.427 640.027 Q124.816 640.027 122.987 643.592 Q121.181 647.133 121.181 654.263 Q121.181 661.369 122.987 664.934 Q124.816 668.476 128.427 668.476 Q132.061 668.476 133.867 664.934 Q135.695 661.369 135.695 654.263 Q135.695 647.133 133.867 643.592 Q132.061 640.027 128.427 640.027 M128.427 636.323 Q134.237 636.323 137.292 640.93 Q140.371 645.513 140.371 654.263 Q140.371 662.99 137.292 667.596 Q134.237 672.18 128.427 672.18 Q122.617 672.18 119.538 667.596 Q116.482 662.99 116.482 654.263 Q116.482 645.513 119.538 640.93 Q122.617 636.323 128.427 636.323 Z" fill="#000000" fill-rule="evenodd" fill-opacity="1" /><path clip-path="url(#clip930)" d="M 0 0 M145.441 665.629 L150.325 665.629 L150.325 671.508 L145.441 671.508 L145.441 665.629 Z" fill="#000000" fill-rule="evenodd" fill-opacity="1" /><path clip-path="url(#clip930)" d="M 0 0 M156.204 667.573 L163.843 667.573 L163.843 641.207 L155.533 642.874 L155.533 638.615 L163.797 636.948 L168.473 636.948 L168.473 667.573 L176.112 667.573 L176.112 671.508 L156.204 671.508 L156.204 667.573 Z" fill="#000000" fill-rule="evenodd" fill-opacity="1" /><path clip-path="url(#clip930)" d="M 0 0 M181.227 636.948 L199.584 636.948 L199.584 640.883 L185.51 640.883 L185.51 649.356 Q186.528 649.008 187.547 648.846 Q188.565 648.661 189.584 648.661 Q195.371 648.661 198.75 651.832 Q202.13 655.004 202.13 660.42 Q202.13 665.999 198.658 669.101 Q195.186 672.18 188.866 672.18 Q186.69 672.18 184.422 671.809 Q182.176 671.439 179.769 670.698 L179.769 665.999 Q181.852 667.133 184.075 667.689 Q186.297 668.244 188.774 668.244 Q192.778 668.244 195.116 666.138 Q197.454 664.031 197.454 660.42 Q197.454 656.809 195.116 654.703 Q192.778 652.596 188.774 652.596 Q186.899 652.596 185.024 653.013 Q183.172 653.43 181.227 654.309 L181.227 636.948 Z" fill="#000000" fill-rule="evenodd" fill-opacity="1" /><path clip-path="url(#clip930)" d="M 0 0 M127.802 396.69 Q124.191 396.69 122.362 400.255 Q120.556 403.797 120.556 410.926 Q120.556 418.033 122.362 421.598 Q124.191 425.139 127.802 425.139 Q131.436 425.139 133.242 421.598 Q135.07 418.033 135.07 410.926 Q135.07 403.797 133.242 400.255 Q131.436 396.69 127.802 396.69 M127.802 392.987 Q133.612 392.987 136.667 397.593 Q139.746 402.176 139.746 410.926 Q139.746 419.653 136.667 424.26 Q133.612 428.843 127.802 428.843 Q121.992 428.843 118.913 424.26 Q115.857 419.653 115.857 410.926 Q115.857 402.176 118.913 397.593 Q121.992 392.987 127.802 392.987 Z" fill="#000000" fill-rule="evenodd" fill-opacity="1" /><path clip-path="url(#clip930)" d="M 0 0 M144.816 422.292 L149.7 422.292 L149.7 428.172 L144.816 428.172 L144.816 422.292 Z" fill="#000000" fill-rule="evenodd" fill-opacity="1" /><path clip-path="url(#clip930)" d="M 0 0 M158.797 424.236 L175.116 424.236 L175.116 428.172 L153.172 428.172 L153.172 424.236 Q155.834 421.482 160.417 416.852 Q165.024 412.199 166.204 410.857 Q168.45 408.334 169.329 406.598 Q170.232 404.838 170.232 403.149 Q170.232 400.394 168.288 398.658 Q166.366 396.922 163.265 396.922 Q161.065 396.922 158.612 397.686 Q156.181 398.45 153.403 400 L153.403 395.278 Q156.228 394.144 158.681 393.565 Q161.135 392.987 163.172 392.987 Q168.542 392.987 171.737 395.672 Q174.931 398.357 174.931 402.848 Q174.931 404.977 174.121 406.899 Q173.334 408.797 171.227 411.389 Q170.649 412.061 167.547 415.278 Q164.445 418.473 158.797 424.236 Z" fill="#000000" fill-rule="evenodd" fill-opacity="1" /><path clip-path="url(#clip930)" d="M 0 0 M190.186 396.69 Q186.575 396.69 184.746 400.255 Q182.94 403.797 182.94 410.926 Q182.94 418.033 184.746 421.598 Q186.575 425.139 190.186 425.139 Q193.82 425.139 195.625 421.598 Q197.454 418.033 197.454 410.926 Q197.454 403.797 195.625 400.255 Q193.82 396.69 190.186 396.69 M190.186 392.987 Q195.996 392.987 199.051 397.593 Q202.13 402.176 202.13 410.926 Q202.13 419.653 199.051 424.26 Q195.996 428.843 190.186 428.843 Q184.376 428.843 181.297 424.26 Q178.241 419.653 178.241 410.926 Q178.241 402.176 181.297 397.593 Q184.376 392.987 190.186 392.987 Z" fill="#000000" fill-rule="evenodd" fill-opacity="1" /><path clip-path="url(#clip930)" d="M 0 0 M128.797 153.354 Q125.186 153.354 123.357 156.918 Q121.552 160.46 121.552 167.59 Q121.552 174.696 123.357 178.261 Q125.186 181.803 128.797 181.803 Q132.431 181.803 134.237 178.261 Q136.066 174.696 136.066 167.59 Q136.066 160.46 134.237 156.918 Q132.431 153.354 128.797 153.354 M128.797 149.65 Q134.607 149.65 137.663 154.256 Q140.741 158.84 140.741 167.59 Q140.741 176.316 137.663 180.923 Q134.607 185.506 128.797 185.506 Q122.987 185.506 119.908 180.923 Q116.853 176.316 116.853 167.59 Q116.853 158.84 119.908 154.256 Q122.987 149.65 128.797 149.65 Z" fill="#000000" fill-rule="evenodd" fill-opacity="1" /><path clip-path="url(#clip930)" d="M 0 0 M145.811 178.955 L150.695 178.955 L150.695 184.835 L145.811 184.835 L145.811 178.955 Z" fill="#000000" fill-rule="evenodd" fill-opacity="1" /><path clip-path="url(#clip930)" d="M 0 0 M159.792 180.9 L176.112 180.9 L176.112 184.835 L154.167 184.835 L154.167 180.9 Q156.829 178.145 161.413 173.516 Q166.019 168.863 167.2 167.52 Q169.445 164.997 170.325 163.261 Q171.227 161.502 171.227 159.812 Q171.227 157.057 169.283 155.321 Q167.362 153.585 164.26 153.585 Q162.061 153.585 159.607 154.349 Q157.177 155.113 154.399 156.664 L154.399 151.942 Q157.223 150.807 159.677 150.229 Q162.13 149.65 164.167 149.65 Q169.538 149.65 172.732 152.335 Q175.926 155.02 175.926 159.511 Q175.926 161.641 175.116 163.562 Q174.329 165.46 172.223 168.053 Q171.644 168.724 168.542 171.941 Q165.44 175.136 159.792 180.9 Z" fill="#000000" fill-rule="evenodd" fill-opacity="1" /><path clip-path="url(#clip930)" d="M 0 0 M181.227 150.275 L199.584 150.275 L199.584 154.21 L185.51 154.21 L185.51 162.682 Q186.528 162.335 187.547 162.173 Q188.565 161.988 189.584 161.988 Q195.371 161.988 198.75 165.159 Q202.13 168.33 202.13 173.747 Q202.13 179.326 198.658 182.427 Q195.186 185.506 188.866 185.506 Q186.69 185.506 184.422 185.136 Q182.176 184.765 179.769 184.025 L179.769 179.326 Q181.852 180.46 184.075 181.015 Q186.297 181.571 188.774 181.571 Q192.778 181.571 195.116 179.465 Q197.454 177.358 197.454 173.747 Q197.454 170.136 195.116 168.029 Q192.778 165.923 188.774 165.923 Q186.899 165.923 185.024 166.34 Q183.172 166.756 181.227 167.636 L181.227 150.275 Z" fill="#000000" fill-rule="evenodd" fill-opacity="1" /><path clip-path="url(#clip930)" d="M 0 0 M21.7677 793.124 L39.6235 793.124 L39.6235 785.04 Q39.6235 780.552 37.3 778.101 Q34.9765 775.65 30.6797 775.65 Q26.4147 775.65 24.0912 778.101 Q21.7677 780.552 21.7677 785.04 L21.7677 793.124 M16.4842 799.553 L16.4842 785.04 Q16.4842 777.051 20.1126 772.977 Q23.7092 768.871 30.6797 768.871 Q37.7138 768.871 41.3104 772.977 Q44.907 777.051 44.907 785.04 L44.907 793.124 L64.0042 793.124 L64.0042 799.553 L16.4842 799.553 Z" fill="#000000" fill-rule="evenodd" fill-opacity="1" /><path clip-path="url(#clip930)" d="M 0 0 M14.5426 748.66 Q21.8632 752.925 29.0246 754.993 Q36.186 757.062 43.5384 757.062 Q50.8908 757.062 58.1159 754.993 Q65.3091 752.893 72.5979 748.66 L72.5979 753.752 Q65.1182 758.526 57.8931 760.914 Q50.668 763.269 43.5384 763.269 Q36.4406 763.269 29.2474 760.914 Q22.0542 758.558 14.5426 753.752 L14.5426 748.66 Z" fill="#000000" fill-rule="evenodd" fill-opacity="1" /><path clip-path="url(#clip930)" d="M 0 0 M35.1993 714.762 Q31.2526 712.566 29.3747 709.51 Q27.4968 706.455 27.4968 702.317 Q27.4968 696.747 31.4117 693.723 Q35.2948 690.7 42.4881 690.7 L64.0042 690.7 L64.0042 696.588 L42.679 696.588 Q37.5546 696.588 35.072 698.402 Q32.5894 700.216 32.5894 703.94 Q32.5894 708.492 35.6131 711.134 Q38.6368 713.775 43.8567 713.775 L64.0042 713.775 L64.0042 719.664 L42.679 719.664 Q37.5228 719.664 35.072 721.478 Q32.5894 723.292 32.5894 727.08 Q32.5894 731.568 35.6449 734.209 Q38.6686 736.851 43.8567 736.851 L64.0042 736.851 L64.0042 742.739 L28.3562 742.739 L28.3562 736.851 L33.8944 736.851 Q30.616 734.846 29.0564 732.045 Q27.4968 729.244 27.4968 725.393 Q27.4968 721.51 29.4702 718.804 Q31.4436 716.067 35.1993 714.762 Z" fill="#000000" fill-rule="evenodd" fill-opacity="1" /><path clip-path="url(#clip930)" d="M 0 0 M14.5426 685.48 L14.5426 680.387 Q22.0542 675.613 29.2474 673.258 Q36.4406 670.871 43.5384 670.871 Q50.668 670.871 57.8931 673.258 Q65.1182 675.613 72.5979 680.387 L72.5979 685.48 Q65.3091 681.247 58.1159 679.178 Q50.8908 677.077 43.5384 677.077 Q36.186 677.077 29.0246 679.178 Q21.8632 681.247 14.5426 685.48 Z" fill="#000000" fill-rule="evenodd" fill-opacity="1" /><path clip-path="url(#clip932)" d="
M354.438 907.269 L354.438 1384.24 L488.867 1384.24 L488.867 907.269 L354.438 907.269 L354.438 907.269  Z
  " fill="#009af9" fill-rule="evenodd" fill-opacity="1"/>
<polyline clip-path="url(#clip932)" style="stroke:#009af9; stroke-width:4; stroke-opacity:1; fill:none" points="
  354.438,907.269 354.438,1384.24 488.867,1384.24 488.867,907.269 354.438,907.269 
  "/>
<path clip-path="url(#clip932)" d="
M488.867 274.393 L488.867 1384.24 L623.297 1384.24 L623.297 274.393 L488.867 274.393 L488.867 274.393  Z
  " fill="#009af9" fill-rule="evenodd" fill-opacity="1"/>
<polyline clip-path="url(#clip932)" style="stroke:#009af9; stroke-width:4; stroke-opacity:1; fill:none" points="
  488.867,274.393 488.867,1384.24 623.297,1384.24 623.297,274.393 488.867,274.393 
  "/>
<path clip-path="url(#clip932)" d="
M623.297 99.2293 L623.297 1384.24 L757.726 1384.24 L757.726 99.2293 L623.297 99.2293 L623.297 99.2293  Z
  " fill="#009af9" fill-rule="evenodd" fill-opacity="1"/>
<polyline clip-path="url(#clip932)" style="stroke:#009af9; stroke-width:4; stroke-opacity:1; fill:none" points="
  623.297,99.2293 623.297,1384.24 757.726,1384.24 757.726,99.2293 623.297,99.2293 
  "/>
<path clip-path="url(#clip932)" d="
M757.726 388.471 L757.726 1384.24 L892.155 1384.24 L892.155 388.471 L757.726 388.471 L757.726 388.471  Z
  " fill="#009af9" fill-rule="evenodd" fill-opacity="1"/>
<polyline clip-path="url(#clip932)" style="stroke:#009af9; stroke-width:4; stroke-opacity:1; fill:none" points="
  757.726,388.471 757.726,1384.24 892.155,1384.24 892.155,388.471 757.726,388.471 
  "/>
<path clip-path="url(#clip932)" d="
M892.155 806.436 L892.155 1384.24 L1026.58 1384.24 L1026.58 806.436 L892.155 806.436 L892.155 806.436  Z
  " fill="#009af9" fill-rule="evenodd" fill-opacity="1"/>
<polyline clip-path="url(#clip932)" style="stroke:#009af9; stroke-width:4; stroke-opacity:1; fill:none" points="
  892.155,806.436 892.155,1384.24 1026.58,1384.24 1026.58,806.436 892.155,806.436 
  "/>
<path clip-path="url(#clip932)" d="
M1026.58 1115.18 L1026.58 1384.24 L1161.01 1384.24 L1161.01 1115.18 L1026.58 1115.18 L1026.58 1115.18  Z
  " fill="#009af9" fill-rule="evenodd" fill-opacity="1"/>
<polyline clip-path="url(#clip932)" style="stroke:#009af9; stroke-width:4; stroke-opacity:1; fill:none" points="
  1026.58,1115.18 1026.58,1384.24 1161.01,1384.24 1161.01,1115.18 1026.58,1115.18 
  "/>
<path clip-path="url(#clip932)" d="
M1161.01 1279.46 L1161.01 1384.24 L1295.44 1384.24 L1295.44 1279.46 L1161.01 1279.46 L1161.01 1279.46  Z
  " fill="#009af9" fill-rule="evenodd" fill-opacity="1"/>
<polyline clip-path="url(#clip932)" style="stroke:#009af9; stroke-width:4; stroke-opacity:1; fill:none" points="
  1161.01,1279.46 1161.01,1384.24 1295.44,1384.24 1295.44,1279.46 1161.01,1279.46 
  "/>
<path clip-path="url(#clip932)" d="
M1295.44 1349.68 L1295.44 1384.24 L1429.87 1384.24 L1429.87 1349.68 L1295.44 1349.68 L1295.44 1349.68  Z
  " fill="#009af9" fill-rule="evenodd" fill-opacity="1"/>
<polyline clip-path="url(#clip932)" style="stroke:#009af9; stroke-width:4; stroke-opacity:1; fill:none" points="
  1295.44,1349.68 1295.44,1384.24 1429.87,1384.24 1429.87,1349.68 1295.44,1349.68 
  "/>
<path clip-path="url(#clip932)" d="
M1429.87 1374.39 L1429.87 1384.24 L1564.3 1384.24 L1564.3 1374.39 L1429.87 1374.39 L1429.87 1374.39  Z
  " fill="#009af9" fill-rule="evenodd" fill-opacity="1"/>
<polyline clip-path="url(#clip932)" style="stroke:#009af9; stroke-width:4; stroke-opacity:1; fill:none" points="
  1429.87,1374.39 1429.87,1384.24 1564.3,1384.24 1564.3,1374.39 1429.87,1374.39 
  "/>
<path clip-path="url(#clip932)" d="
M1564.3 1381.79 L1564.3 1384.24 L1698.73 1384.24 L1698.73 1381.79 L1564.3 1381.79 L1564.3 1381.79  Z
  " fill="#009af9" fill-rule="evenodd" fill-opacity="1"/>
<polyline clip-path="url(#clip932)" style="stroke:#009af9; stroke-width:4; stroke-opacity:1; fill:none" points="
  1564.3,1381.79 1564.3,1384.24 1698.73,1384.24 1698.73,1381.79 1564.3,1381.79 
  "/>
<path clip-path="url(#clip932)" d="
M1698.73 1383.71 L1698.73 1384.24 L1833.16 1384.24 L1833.16 1383.71 L1698.73 1383.71 L1698.73 1383.71  Z
  " fill="#009af9" fill-rule="evenodd" fill-opacity="1"/>
<polyline clip-path="url(#clip932)" style="stroke:#009af9; stroke-width:4; stroke-opacity:1; fill:none" points="
  1698.73,1383.71 1698.73,1384.24 1833.16,1384.24 1833.16,1383.71 1698.73,1383.71 
  "/>
<path clip-path="url(#clip932)" d="
M1833.16 1384.15 L1833.16 1384.24 L1967.59 1384.24 L1967.59 1384.15 L1833.16 1384.15 L1833.16 1384.15  Z
  " fill="#009af9" fill-rule="evenodd" fill-opacity="1"/>
<polyline clip-path="url(#clip932)" style="stroke:#009af9; stroke-width:4; stroke-opacity:1; fill:none" points="
  1833.16,1384.15 1833.16,1384.24 1967.59,1384.24 1967.59,1384.15 1833.16,1384.15 
  "/>
<path clip-path="url(#clip932)" d="
M1967.59 1384.2 L1967.59 1384.24 L2102.02 1384.24 L2102.02 1384.2 L1967.59 1384.2 L1967.59 1384.2  Z
  " fill="#009af9" fill-rule="evenodd" fill-opacity="1"/>
<polyline clip-path="url(#clip932)" style="stroke:#009af9; stroke-width:4; stroke-opacity:1; fill:none" points="
  1967.59,1384.2 1967.59,1384.24 2102.02,1384.24 2102.02,1384.2 1967.59,1384.2 
  "/>
<path clip-path="url(#clip932)" d="
M2102.02 1384.23 L2102.02 1384.24 L2236.45 1384.24 L2236.45 1384.23 L2102.02 1384.23 L2102.02 1384.23  Z
  " fill="#009af9" fill-rule="evenodd" fill-opacity="1"/>
<polyline clip-path="url(#clip932)" style="stroke:#009af9; stroke-width:4; stroke-opacity:1; fill:none" points="
  2102.02,1384.23 2102.02,1384.24 2236.45,1384.24 2236.45,1384.23 2102.02,1384.23 
  "/>
<polyline clip-path="url(#clip932)" style="stroke:#e26f46; stroke-width:12; stroke-opacity:1; fill:none" points="
  354.438,984.227 367.881,943.11 381.324,899.86 394.767,854.659 408.21,807.731 421.653,759.346 435.096,709.816 448.539,659.491 461.982,608.764 475.425,558.057 
  488.867,507.823 502.31,458.536 515.753,410.684 529.196,364.766 542.639,321.277 556.082,280.702 569.525,243.509 582.968,210.137 596.411,180.99 609.854,156.426 
  623.297,136.753 636.74,122.22 650.183,113.012 663.626,109.248 677.068,110.976 690.511,118.174 703.954,130.75 717.397,148.541 730.84,171.323 744.283,198.809 
  757.726,230.658 771.169,266.482 784.612,305.856 798.055,348.319 811.498,393.394 824.941,440.586 838.384,489.398 851.826,539.338 865.269,589.923 878.712,640.694 
  892.155,691.215 905.598,741.083 919.041,789.932 932.484,837.434 945.927,883.305 959.37,927.302 972.813,969.229 986.256,1008.93 999.699,1046.3 1013.14,1081.25 
  1026.58,1113.76 1040.03,1143.82 1053.47,1171.46 1066.91,1196.73 1080.36,1219.71 1093.8,1240.5 1107.24,1259.2 1120.68,1275.93 1134.13,1290.83 1147.57,1304.03 
  1161.01,1315.66 1174.46,1325.85 1187.9,1334.74 1201.34,1342.46 1214.79,1349.13 1228.23,1354.86 1241.67,1359.76 1255.11,1363.93 1268.56,1367.47 1282,1370.44 
  1295.44,1372.94 1308.89,1375.03 1322.33,1376.76 1335.77,1378.19 1349.21,1379.37 1362.66,1380.34 1376.1,1381.13 1389.54,1381.77 1402.99,1382.28 1416.43,1382.7 
  1429.87,1383.03 1443.32,1383.29 1456.76,1383.5 1470.2,1383.67 1483.64,1383.8 1497.09,1383.9 1510.53,1383.98 1523.97,1384.04 1537.42,1384.09 1550.86,1384.13 
  1564.3,1384.15 1577.74,1384.18 1591.19,1384.19 1604.63,1384.2 1618.07,1384.21 1631.52,1384.22 1644.96,1384.22 1658.4,1384.23 1671.84,1384.23 1685.29,1384.23 
  1698.73,1384.23 1712.17,1384.24 1725.62,1384.24 1739.06,1384.24 1752.5,1384.24 1765.95,1384.24 1779.39,1384.24 1792.83,1384.24 1806.27,1384.24 1819.72,1384.24 
  1833.16,1384.24 1846.6,1384.24 1860.05,1384.24 1873.49,1384.24 1886.93,1384.24 1900.37,1384.24 1913.82,1384.24 1927.26,1384.24 1940.7,1384.24 1954.15,1384.24 
  1967.59,1384.24 1981.03,1384.24 1994.48,1384.24 2007.92,1384.24 2021.36,1384.24 2034.8,1384.24 2048.25,1384.24 2061.69,1384.24 2075.13,1384.24 2088.58,1384.24 
  2102.02,1384.24 
  "/>
<polyline clip-path="url(#clip932)" style="stroke:#3da44d; stroke-width:12; stroke-opacity:1; fill:none" points="
  354.438,905.274 367.881,836.612 381.324,767.041 394.767,697.411 408.21,628.56 421.653,561.302 435.096,496.406 448.539,434.588 461.982,376.5 475.425,322.717 
  488.867,273.735 502.31,229.966 515.753,191.735 529.196,159.28 542.639,132.753 556.082,112.223 569.525,97.6841 582.968,89.0539 596.411,86.1857 609.854,88.8731 
  623.297,96.858 636.74,109.838 650.183,127.474 663.626,149.399 677.068,175.223 690.511,204.545 703.954,236.952 717.397,272.033 730.84,309.38 744.283,348.593 
  757.726,389.285 771.169,431.088 784.612,473.653 798.055,516.65 811.498,559.778 824.941,602.758 838.384,645.337 851.826,687.291 865.269,728.418 878.712,768.546 
  892.155,807.525 905.598,845.231 919.041,881.562 932.484,916.436 945.927,949.794 959.37,981.593 972.813,1011.81 986.256,1040.43 999.699,1067.46 1013.14,1092.91 
  1026.58,1116.81 1040.03,1139.2 1053.47,1160.11 1066.91,1179.59 1080.36,1197.7 1093.8,1214.5 1107.24,1230.04 1120.68,1244.39 1134.13,1257.6 1147.57,1269.75 
  1161.01,1280.9 1174.46,1291.1 1187.9,1300.42 1201.34,1308.92 1214.79,1316.66 1228.23,1323.69 1241.67,1330.07 1255.11,1335.84 1268.56,1341.06 1282,1345.77 
  1295.44,1350.01 1308.89,1353.82 1322.33,1357.25 1335.77,1360.32 1349.21,1363.07 1362.66,1365.52 1376.1,1367.71 1389.54,1369.67 1402.99,1371.4 1416.43,1372.95 
  1429.87,1374.32 1443.32,1375.53 1456.76,1376.61 1470.2,1377.56 1483.64,1378.39 1497.09,1379.13 1510.53,1379.78 1523.97,1380.35 1537.42,1380.86 1550.86,1381.3 
  1564.3,1381.68 1577.74,1382.02 1591.19,1382.31 1604.63,1382.57 1618.07,1382.8 1631.52,1382.99 1644.96,1383.16 1658.4,1383.31 1671.84,1383.44 1685.29,1383.55 
  1698.73,1383.65 1712.17,1383.73 1725.62,1383.8 1739.06,1383.86 1752.5,1383.92 1765.95,1383.96 1779.39,1384 1792.83,1384.04 1806.27,1384.07 1819.72,1384.09 
  1833.16,1384.11 1846.6,1384.13 1860.05,1384.15 1873.49,1384.16 1886.93,1384.17 1900.37,1384.18 1913.82,1384.19 1927.26,1384.2 1940.7,1384.2 1954.15,1384.21 
  1967.59,1384.21 1981.03,1384.22 1994.48,1384.22 2007.92,1384.22 2021.36,1384.23 2034.8,1384.23 2048.25,1384.23 2061.69,1384.23 2075.13,1384.23 2088.58,1384.23 
  2102.02,1384.23 
  "/>
<path clip-path="url(#clip930)" d="
M1810.55 335.029 L2282.27 335.029 L2282.27 93.1086 L1810.55 93.1086  Z
  " fill="#ffffff" fill-rule="evenodd" fill-opacity="1"/>
<polyline clip-path="url(#clip930)" style="stroke:#000000; stroke-width:4; stroke-opacity:1; fill:none" points="
  1810.55,335.029 2282.27,335.029 2282.27,93.1086 1810.55,93.1086 1810.55,335.029 
  "/>
<path clip-path="url(#clip930)" d="
M1834.05 177.781 L1975.02 177.781 L1975.02 129.397 L1834.05 129.397 L1834.05 177.781  Z
  " fill="#009af9" fill-rule="evenodd" fill-opacity="1"/>
<polyline clip-path="url(#clip930)" style="stroke:#009af9; stroke-width:4; stroke-opacity:1; fill:none" points="
  1834.05,177.781 1975.02,177.781 1975.02,129.397 1834.05,129.397 1834.05,177.781 
  "/>
<path clip-path="url(#clip930)" d="M 0 0 M2012.36 173.276 Q2010.56 177.906 2008.84 179.318 Q2007.13 180.73 2004.26 180.73 L2000.86 180.73 L2000.86 177.165 L2003.36 177.165 Q2005.12 177.165 2006.09 176.332 Q2007.06 175.498 2008.24 172.396 L2009 170.452 L1998.52 144.943 L2003.03 144.943 L2011.13 165.221 L2019.24 144.943 L2023.75 144.943 L2012.36 173.276 Z" fill="#000000" fill-rule="evenodd" fill-opacity="1" /><path clip-path="url(#clip930)" d="M 0 0 M2029.63 166.933 L2037.27 166.933 L2037.27 140.568 L2028.96 142.235 L2028.96 137.975 L2037.22 136.309 L2041.9 136.309 L2041.9 166.933 L2049.54 166.933 L2049.54 170.869 L2029.63 170.869 L2029.63 166.933 Z" fill="#000000" fill-rule="evenodd" fill-opacity="1" /><polyline clip-path="url(#clip930)" style="stroke:#e26f46; stroke-width:4; stroke-opacity:1; fill:none" points="
  1834.05,214.069 1975.02,214.069 
  "/>
<path clip-path="url(#clip930)" d="M 0 0 M2017.43 218.085 Q2017.43 213.455 2015.51 210.909 Q2013.61 208.363 2010.16 208.363 Q2006.74 208.363 2004.81 210.909 Q2002.92 213.455 2002.92 218.085 Q2002.92 222.691 2004.81 225.238 Q2006.74 227.784 2010.16 227.784 Q2013.61 227.784 2015.51 225.238 Q2017.43 222.691 2017.43 218.085 M2021.69 228.131 Q2021.69 234.751 2018.75 237.969 Q2015.81 241.21 2009.75 241.21 Q2007.5 241.21 2005.51 240.862 Q2003.52 240.538 2001.64 239.844 L2001.64 235.7 Q2003.52 236.719 2005.35 237.205 Q2007.18 237.691 2009.07 237.691 Q2013.26 237.691 2015.35 235.492 Q2017.43 233.316 2017.43 228.895 L2017.43 226.788 Q2016.11 229.08 2014.05 230.214 Q2011.99 231.349 2009.12 231.349 Q2004.35 231.349 2001.44 227.714 Q1998.52 224.08 1998.52 218.085 Q1998.52 212.066 2001.44 208.432 Q2004.35 204.798 2009.12 204.798 Q2011.99 204.798 2014.05 205.932 Q2016.11 207.066 2017.43 209.358 L2017.43 205.423 L2021.69 205.423 L2021.69 228.131 Z" fill="#000000" fill-rule="evenodd" fill-opacity="1" /><path clip-path="url(#clip930)" d="M 0 0 M2037.94 218.316 Q2032.78 218.316 2030.79 219.497 Q2028.8 220.677 2028.8 223.525 Q2028.8 225.793 2030.28 227.136 Q2031.78 228.455 2034.35 228.455 Q2037.89 228.455 2040.02 225.955 Q2042.18 223.432 2042.18 219.265 L2042.18 218.316 L2037.94 218.316 M2046.44 216.557 L2046.44 231.349 L2042.18 231.349 L2042.18 227.413 Q2040.72 229.775 2038.54 230.909 Q2036.37 232.02 2033.22 232.02 Q2029.24 232.02 2026.88 229.798 Q2024.54 227.552 2024.54 223.802 Q2024.54 219.427 2027.45 217.205 Q2030.39 214.983 2036.2 214.983 L2042.18 214.983 L2042.18 214.566 Q2042.18 211.627 2040.23 210.029 Q2038.31 208.409 2034.81 208.409 Q2032.59 208.409 2030.49 208.941 Q2028.38 209.474 2026.44 210.539 L2026.44 206.603 Q2028.77 205.701 2030.97 205.261 Q2033.17 204.798 2035.25 204.798 Q2040.88 204.798 2043.66 207.714 Q2046.44 210.631 2046.44 216.557 Z" fill="#000000" fill-rule="evenodd" fill-opacity="1" /><path clip-path="url(#clip930)" d="M 0 0 M2050.46 221.117 L2050.46 205.423 L2054.72 205.423 L2054.72 220.955 Q2054.72 224.636 2056.16 226.488 Q2057.59 228.316 2060.46 228.316 Q2063.91 228.316 2065.9 226.117 Q2067.92 223.918 2067.92 220.122 L2067.92 205.423 L2072.18 205.423 L2072.18 231.349 L2067.92 231.349 L2067.92 227.367 Q2066.37 229.728 2064.31 230.886 Q2062.27 232.02 2059.56 232.02 Q2055.09 232.02 2052.78 229.242 Q2050.46 226.464 2050.46 221.117 M2061.18 204.798 L2061.18 204.798 Z" fill="#000000" fill-rule="evenodd" fill-opacity="1" /><path clip-path="url(#clip930)" d="M 0 0 M2093.17 206.187 L2093.17 210.214 Q2091.37 209.289 2089.42 208.826 Q2087.48 208.363 2085.39 208.363 Q2082.22 208.363 2080.62 209.335 Q2079.05 210.307 2079.05 212.251 Q2079.05 213.733 2080.18 214.589 Q2081.32 215.423 2084.75 216.187 L2086.2 216.511 Q2090.74 217.483 2092.64 219.265 Q2094.56 221.025 2094.56 224.196 Q2094.56 227.807 2091.69 229.913 Q2088.84 232.02 2083.84 232.02 Q2081.76 232.02 2079.49 231.603 Q2077.25 231.21 2074.75 230.4 L2074.75 226.001 Q2077.11 227.228 2079.4 227.853 Q2081.69 228.455 2083.93 228.455 Q2086.94 228.455 2088.56 227.437 Q2090.18 226.395 2090.18 224.52 Q2090.18 222.784 2089 221.858 Q2087.85 220.932 2083.89 220.076 L2082.41 219.728 Q2078.45 218.895 2076.69 217.182 Q2074.93 215.446 2074.93 212.437 Q2074.93 208.779 2077.52 206.789 Q2080.12 204.798 2084.88 204.798 Q2087.25 204.798 2089.33 205.145 Q2091.41 205.492 2093.17 206.187 Z" fill="#000000" fill-rule="evenodd" fill-opacity="1" /><path clip-path="url(#clip930)" d="M 0 0 M2115.56 206.187 L2115.56 210.214 Q2113.75 209.289 2111.81 208.826 Q2109.86 208.363 2107.78 208.363 Q2104.61 208.363 2103.01 209.335 Q2101.43 210.307 2101.43 212.251 Q2101.43 213.733 2102.57 214.589 Q2103.7 215.423 2107.13 216.187 L2108.59 216.511 Q2113.12 217.483 2115.02 219.265 Q2116.94 221.025 2116.94 224.196 Q2116.94 227.807 2114.07 229.913 Q2111.23 232.02 2106.23 232.02 Q2104.14 232.02 2101.87 231.603 Q2099.63 231.21 2097.13 230.4 L2097.13 226.001 Q2099.49 227.228 2101.78 227.853 Q2104.07 228.455 2106.32 228.455 Q2109.33 228.455 2110.95 227.437 Q2112.57 226.395 2112.57 224.52 Q2112.57 222.784 2111.39 221.858 Q2110.23 220.932 2106.27 220.076 L2104.79 219.728 Q2100.83 218.895 2099.07 217.182 Q2097.31 215.446 2097.31 212.437 Q2097.31 208.779 2099.91 206.789 Q2102.5 204.798 2107.27 204.798 Q2109.63 204.798 2111.71 205.145 Q2113.8 205.492 2115.56 206.187 Z" fill="#000000" fill-rule="evenodd" fill-opacity="1" /><path clip-path="url(#clip930)" d="M 0 0 M2121.41 205.423 L2125.67 205.423 L2125.67 231.349 L2121.41 231.349 L2121.41 205.423 M2121.41 195.33 L2125.67 195.33 L2125.67 200.724 L2121.41 200.724 L2121.41 195.33 Z" fill="#000000" fill-rule="evenodd" fill-opacity="1" /><path clip-path="url(#clip930)" d="M 0 0 M2141.92 218.316 Q2136.76 218.316 2134.77 219.497 Q2132.78 220.677 2132.78 223.525 Q2132.78 225.793 2134.26 227.136 Q2135.76 228.455 2138.33 228.455 Q2141.87 228.455 2144 225.955 Q2146.16 223.432 2146.16 219.265 L2146.16 218.316 L2141.92 218.316 M2150.42 216.557 L2150.42 231.349 L2146.16 231.349 L2146.16 227.413 Q2144.7 229.775 2142.52 230.909 Q2140.35 232.02 2137.2 232.02 Q2133.22 232.02 2130.86 229.798 Q2128.52 227.552 2128.52 223.802 Q2128.52 219.427 2131.43 217.205 Q2134.37 214.983 2140.18 214.983 L2146.16 214.983 L2146.16 214.566 Q2146.16 211.627 2144.21 210.029 Q2142.29 208.409 2138.8 208.409 Q2136.57 208.409 2134.47 208.941 Q2132.36 209.474 2130.42 210.539 L2130.42 206.603 Q2132.75 205.701 2134.95 205.261 Q2137.15 204.798 2139.24 204.798 Q2144.86 204.798 2147.64 207.714 Q2150.42 210.631 2150.42 216.557 Z" fill="#000000" fill-rule="evenodd" fill-opacity="1" /><path clip-path="url(#clip930)" d="M 0 0 M2176.43 215.701 L2176.43 231.349 L2172.18 231.349 L2172.18 215.839 Q2172.18 212.159 2170.74 210.33 Q2169.3 208.502 2166.43 208.502 Q2162.99 208.502 2160.99 210.701 Q2159 212.9 2159 216.696 L2159 231.349 L2154.72 231.349 L2154.72 205.423 L2159 205.423 L2159 209.451 Q2160.53 207.113 2162.59 205.955 Q2164.68 204.798 2167.38 204.798 Q2171.85 204.798 2174.14 207.576 Q2176.43 210.33 2176.43 215.701 Z" fill="#000000" fill-rule="evenodd" fill-opacity="1" /><path clip-path="url(#clip930)" d="M 0 0 M2209.1 195.33 L2209.1 198.872 L2205.02 198.872 Q2202.73 198.872 2201.83 199.798 Q2200.95 200.724 2200.95 203.131 L2200.95 205.423 L2207.96 205.423 L2207.96 208.733 L2200.95 208.733 L2200.95 231.349 L2196.67 231.349 L2196.67 208.733 L2192.59 208.733 L2192.59 205.423 L2196.67 205.423 L2196.67 203.617 Q2196.67 199.289 2198.68 197.321 Q2200.69 195.33 2205.07 195.33 L2209.1 195.33 Z" fill="#000000" fill-rule="evenodd" fill-opacity="1" /><path clip-path="url(#clip930)" d="M 0 0 M2213.56 205.423 L2217.82 205.423 L2217.82 231.349 L2213.56 231.349 L2213.56 205.423 M2213.56 195.33 L2217.82 195.33 L2217.82 200.724 L2213.56 200.724 L2213.56 195.33 Z" fill="#000000" fill-rule="evenodd" fill-opacity="1" /><path clip-path="url(#clip930)" d="M 0 0 M2226.5 198.062 L2226.5 205.423 L2235.28 205.423 L2235.28 208.733 L2226.5 208.733 L2226.5 222.807 Q2226.5 225.978 2227.36 226.881 Q2228.24 227.784 2230.9 227.784 L2235.28 227.784 L2235.28 231.349 L2230.9 231.349 Q2225.97 231.349 2224.1 229.52 Q2222.22 227.668 2222.22 222.807 L2222.22 208.733 L2219.1 208.733 L2219.1 205.423 L2222.22 205.423 L2222.22 198.062 L2226.5 198.062 Z" fill="#000000" fill-rule="evenodd" fill-opacity="1" /><polyline clip-path="url(#clip930)" style="stroke:#3da44d; stroke-width:4; stroke-opacity:1; fill:none" points="
  1834.05,274.549 1975.02,274.549 
  "/>
<path clip-path="url(#clip930)" d="M 0 0 M2002.8 287.94 L2002.8 301.69 L1998.52 301.69 L1998.52 265.903 L2002.8 265.903 L2002.8 269.838 Q2004.14 267.523 2006.18 266.412 Q2008.24 265.278 2011.09 265.278 Q2015.81 265.278 2018.75 269.028 Q2021.71 272.778 2021.71 278.889 Q2021.71 285 2018.75 288.75 Q2015.81 292.5 2011.09 292.5 Q2008.24 292.5 2006.18 291.389 Q2004.14 290.255 2002.8 287.94 M2017.29 278.889 Q2017.29 274.19 2015.35 271.528 Q2013.43 268.843 2010.05 268.843 Q2006.67 268.843 2004.72 271.528 Q2002.8 274.19 2002.8 278.889 Q2002.8 283.588 2004.72 286.273 Q2006.67 288.935 2010.05 288.935 Q2013.43 288.935 2015.35 286.273 Q2017.29 283.588 2017.29 278.889 Z" fill="#000000" fill-rule="evenodd" fill-opacity="1" /><path clip-path="url(#clip930)" d="M 0 0 M2036.23 268.889 Q2032.8 268.889 2030.81 271.574 Q2028.82 274.236 2028.82 278.889 Q2028.82 283.542 2030.79 286.227 Q2032.78 288.889 2036.23 288.889 Q2039.63 288.889 2041.62 286.204 Q2043.61 283.518 2043.61 278.889 Q2043.61 274.282 2041.62 271.597 Q2039.63 268.889 2036.23 268.889 M2036.23 265.278 Q2041.78 265.278 2044.95 268.889 Q2048.12 272.5 2048.12 278.889 Q2048.12 285.255 2044.95 288.889 Q2041.78 292.5 2036.23 292.5 Q2030.65 292.5 2027.48 288.889 Q2024.33 285.255 2024.33 278.889 Q2024.33 272.5 2027.48 268.889 Q2030.65 265.278 2036.23 265.278 Z" fill="#000000" fill-rule="evenodd" fill-opacity="1" /><path clip-path="url(#clip930)" d="M 0 0 M2052.59 265.903 L2056.85 265.903 L2056.85 291.829 L2052.59 291.829 L2052.59 265.903 M2052.59 255.81 L2056.85 255.81 L2056.85 261.204 L2052.59 261.204 L2052.59 255.81 Z" fill="#000000" fill-rule="evenodd" fill-opacity="1" /><path clip-path="url(#clip930)" d="M 0 0 M2077.85 266.667 L2077.85 270.694 Q2076.04 269.769 2074.1 269.306 Q2072.15 268.843 2070.07 268.843 Q2066.9 268.843 2065.3 269.815 Q2063.73 270.787 2063.73 272.731 Q2063.73 274.213 2064.86 275.069 Q2066 275.903 2069.42 276.667 L2070.88 276.991 Q2075.42 277.963 2077.31 279.745 Q2079.24 281.505 2079.24 284.676 Q2079.24 288.287 2076.37 290.393 Q2073.52 292.5 2068.52 292.5 Q2066.44 292.5 2064.17 292.083 Q2061.92 291.69 2059.42 290.88 L2059.42 286.481 Q2061.78 287.708 2064.07 288.333 Q2066.37 288.935 2068.61 288.935 Q2071.62 288.935 2073.24 287.917 Q2074.86 286.875 2074.86 285 Q2074.86 283.264 2073.68 282.338 Q2072.52 281.412 2068.56 280.556 L2067.08 280.208 Q2063.12 279.375 2061.37 277.662 Q2059.61 275.926 2059.61 272.917 Q2059.61 269.259 2062.2 267.269 Q2064.79 265.278 2069.56 265.278 Q2071.92 265.278 2074 265.625 Q2076.09 265.972 2077.85 266.667 Z" fill="#000000" fill-rule="evenodd" fill-opacity="1" /><path clip-path="url(#clip930)" d="M 0 0 M2100.23 266.667 L2100.23 270.694 Q2098.43 269.769 2096.48 269.306 Q2094.54 268.843 2092.45 268.843 Q2089.28 268.843 2087.68 269.815 Q2086.11 270.787 2086.11 272.731 Q2086.11 274.213 2087.25 275.069 Q2088.38 275.903 2091.81 276.667 L2093.26 276.991 Q2097.8 277.963 2099.7 279.745 Q2101.62 281.505 2101.62 284.676 Q2101.62 288.287 2098.75 290.393 Q2095.9 292.5 2090.9 292.5 Q2088.82 292.5 2086.55 292.083 Q2084.31 291.69 2081.81 290.88 L2081.81 286.481 Q2084.17 287.708 2086.46 288.333 Q2088.75 288.935 2091 288.935 Q2094 288.935 2095.62 287.917 Q2097.25 286.875 2097.25 285 Q2097.25 283.264 2096.06 282.338 Q2094.91 281.412 2090.95 280.556 L2089.47 280.208 Q2085.51 279.375 2083.75 277.662 Q2081.99 275.926 2081.99 272.917 Q2081.99 269.259 2084.58 267.269 Q2087.18 265.278 2091.94 265.278 Q2094.31 265.278 2096.39 265.625 Q2098.47 265.972 2100.23 266.667 Z" fill="#000000" fill-rule="evenodd" fill-opacity="1" /><path clip-path="url(#clip930)" d="M 0 0 M2116.13 268.889 Q2112.71 268.889 2110.72 271.574 Q2108.73 274.236 2108.73 278.889 Q2108.73 283.542 2110.69 286.227 Q2112.68 288.889 2116.13 288.889 Q2119.54 288.889 2121.53 286.204 Q2123.52 283.518 2123.52 278.889 Q2123.52 274.282 2121.53 271.597 Q2119.54 268.889 2116.13 268.889 M2116.13 265.278 Q2121.69 265.278 2124.86 268.889 Q2128.03 272.5 2128.03 278.889 Q2128.03 285.255 2124.86 288.889 Q2121.69 292.5 2116.13 292.5 Q2110.56 292.5 2107.38 288.889 Q2104.24 285.255 2104.24 278.889 Q2104.24 272.5 2107.38 268.889 Q2110.56 265.278 2116.13 265.278 Z" fill="#000000" fill-rule="evenodd" fill-opacity="1" /><path clip-path="url(#clip930)" d="M 0 0 M2154.05 276.181 L2154.05 291.829 L2149.79 291.829 L2149.79 276.319 Q2149.79 272.639 2148.36 270.81 Q2146.92 268.982 2144.05 268.982 Q2140.6 268.982 2138.61 271.181 Q2136.62 273.38 2136.62 277.176 L2136.62 291.829 L2132.34 291.829 L2132.34 265.903 L2136.62 265.903 L2136.62 269.931 Q2138.15 267.593 2140.21 266.435 Q2142.29 265.278 2145 265.278 Q2149.47 265.278 2151.76 268.056 Q2154.05 270.81 2154.05 276.181 Z" fill="#000000" fill-rule="evenodd" fill-opacity="1" /><path clip-path="url(#clip930)" d="M 0 0 M2186.71 255.81 L2186.71 259.352 L2182.64 259.352 Q2180.35 259.352 2179.44 260.278 Q2178.56 261.204 2178.56 263.611 L2178.56 265.903 L2185.58 265.903 L2185.58 269.213 L2178.56 269.213 L2178.56 291.829 L2174.28 291.829 L2174.28 269.213 L2170.21 269.213 L2170.21 265.903 L2174.28 265.903 L2174.28 264.097 Q2174.28 259.769 2176.3 257.801 Q2178.31 255.81 2182.68 255.81 L2186.71 255.81 Z" fill="#000000" fill-rule="evenodd" fill-opacity="1" /><path clip-path="url(#clip930)" d="M 0 0 M2191.18 265.903 L2195.44 265.903 L2195.44 291.829 L2191.18 291.829 L2191.18 265.903 M2191.18 255.81 L2195.44 255.81 L2195.44 261.204 L2191.18 261.204 L2191.18 255.81 Z" fill="#000000" fill-rule="evenodd" fill-opacity="1" /><path clip-path="url(#clip930)" d="M 0 0 M2204.12 258.542 L2204.12 265.903 L2212.89 265.903 L2212.89 269.213 L2204.12 269.213 L2204.12 283.287 Q2204.12 286.458 2204.98 287.361 Q2205.86 288.264 2208.52 288.264 L2212.89 288.264 L2212.89 291.829 L2208.52 291.829 Q2203.59 291.829 2201.71 290 Q2199.84 288.148 2199.84 283.287 L2199.84 269.213 L2196.71 269.213 L2196.71 265.903 L2199.84 265.903 L2199.84 258.542 L2204.12 258.542 Z" fill="#000000" fill-rule="evenodd" fill-opacity="1" /></svg>
