<?xml version="1.0" encoding="utf-8"?>
<svg xmlns="http://www.w3.org/2000/svg" xmlns:xlink="http://www.w3.org/1999/xlink" width="600" height="400" viewBox="0 0 2400 1600">
<defs>
  <clipPath id="clip020">
    <rect x="0" y="0" width="2400" height="1600"/>
  </clipPath>
</defs>
<path clip-path="url(#clip020)" d="
M0 1600 L2400 1600 L2400 0 L0 0  Z
  " fill="#ffffff" fill-rule="evenodd" fill-opacity="1"/>
<defs>
  <clipPath id="clip021">
    <rect x="480" y="0" width="1681" height="1600"/>
  </clipPath>
</defs>
<path clip-path="url(#clip020)" d="
M238.616 1423.18 L2352.76 1423.18 L2352.76 47.2441 L238.616 47.2441  Z
  " fill="#ffffff" fill-rule="evenodd" fill-opacity="1"/>
<defs>
  <clipPath id="clip022">
    <rect x="238" y="47" width="2115" height="1377"/>
  </clipPath>
</defs>
<polyline clip-path="url(#clip022)" style="stroke:#000000; stroke-width:2; stroke-opacity:0.1; fill:none" points="
  298.45,1423.18 298.45,47.2441 
  "/>
<polyline clip-path="url(#clip022)" style="stroke:#000000; stroke-width:2; stroke-opacity:0.1; fill:none" points="
  719.936,1423.18 719.936,47.2441 
  "/>
<polyline clip-path="url(#clip022)" style="stroke:#000000; stroke-width:2; stroke-opacity:0.1; fill:none" points="
  1141.42,1423.18 1141.42,47.2441 
  "/>
<polyline clip-path="url(#clip022)" style="stroke:#000000; stroke-width:2; stroke-opacity:0.1; fill:none" points="
  1562.91,1423.18 1562.91,47.2441 
  "/>
<polyline clip-path="url(#clip022)" style="stroke:#000000; stroke-width:2; stroke-opacity:0.1; fill:none" points="
  1984.39,1423.18 1984.39,47.2441 
  "/>
<polyline clip-path="url(#clip020)" style="stroke:#000000; stroke-width:4; stroke-opacity:1; fill:none" points="
  238.616,1423.18 2352.76,1423.18 
  "/>
<polyline clip-path="url(#clip020)" style="stroke:#000000; stroke-width:4; stroke-opacity:1; fill:none" points="
  298.45,1423.18 298.45,1406.67 
  "/>
<polyline clip-path="url(#clip020)" style="stroke:#000000; stroke-width:4; stroke-opacity:1; fill:none" points="
  719.936,1423.18 719.936,1406.67 
  "/>
<polyline clip-path="url(#clip020)" style="stroke:#000000; stroke-width:4; stroke-opacity:1; fill:none" points="
  1141.42,1423.18 1141.42,1406.67 
  "/>
<polyline clip-path="url(#clip020)" style="stroke:#000000; stroke-width:4; stroke-opacity:1; fill:none" points="
  1562.91,1423.18 1562.91,1406.67 
  "/>
<polyline clip-path="url(#clip020)" style="stroke:#000000; stroke-width:4; stroke-opacity:1; fill:none" points="
  1984.39,1423.18 1984.39,1406.67 
  "/>
<path clip-path="url(#clip020)" d="M 0 0 M298.45 1452.37 Q294.839 1452.37 293.011 1455.94 Q291.205 1459.48 291.205 1466.61 Q291.205 1473.71 293.011 1477.28 Q294.839 1480.82 298.45 1480.82 Q302.085 1480.82 303.89 1477.28 Q305.719 1473.71 305.719 1466.61 Q305.719 1459.48 303.89 1455.94 Q302.085 1452.37 298.45 1452.37 M298.45 1448.67 Q304.26 1448.67 307.316 1453.27 Q310.395 1457.86 310.395 1466.61 Q310.395 1475.33 307.316 1479.94 Q304.26 1484.52 298.45 1484.52 Q292.64 1484.52 289.561 1479.94 Q286.506 1475.33 286.506 1466.61 Q286.506 1457.86 289.561 1453.27 Q292.64 1448.67 298.45 1448.67 Z" fill="#000000" fill-rule="evenodd" fill-opacity="1" /><path clip-path="url(#clip020)" d="M 0 0 M696.811 1479.92 L704.45 1479.92 L704.45 1453.55 L696.14 1455.22 L696.14 1450.96 L704.404 1449.29 L709.08 1449.29 L709.08 1479.92 L716.719 1479.92 L716.719 1483.85 L696.811 1483.85 L696.811 1479.92 Z" fill="#000000" fill-rule="evenodd" fill-opacity="1" /><path clip-path="url(#clip020)" d="M 0 0 M731.788 1452.37 Q728.177 1452.37 726.348 1455.94 Q724.543 1459.48 724.543 1466.61 Q724.543 1473.71 726.348 1477.28 Q728.177 1480.82 731.788 1480.82 Q735.422 1480.82 737.228 1477.28 Q739.057 1473.71 739.057 1466.61 Q739.057 1459.48 737.228 1455.94 Q735.422 1452.37 731.788 1452.37 M731.788 1448.67 Q737.598 1448.67 740.654 1453.27 Q743.732 1457.86 743.732 1466.61 Q743.732 1475.33 740.654 1479.94 Q737.598 1484.52 731.788 1484.52 Q725.978 1484.52 722.899 1479.94 Q719.844 1475.33 719.844 1466.61 Q719.844 1457.86 722.899 1453.27 Q725.978 1448.67 731.788 1448.67 Z" fill="#000000" fill-rule="evenodd" fill-opacity="1" /><path clip-path="url(#clip020)" d="M 0 0 M1122.57 1479.92 L1138.89 1479.92 L1138.89 1483.85 L1116.94 1483.85 L1116.94 1479.92 Q1119.61 1477.16 1124.19 1472.53 Q1128.79 1467.88 1129.98 1466.54 Q1132.22 1464.01 1133.1 1462.28 Q1134 1460.52 1134 1458.83 Q1134 1456.07 1132.06 1454.34 Q1130.14 1452.6 1127.04 1452.6 Q1124.84 1452.6 1122.38 1453.37 Q1119.95 1454.13 1117.17 1455.68 L1117.17 1450.96 Q1120 1449.82 1122.45 1449.25 Q1124.91 1448.67 1126.94 1448.67 Q1132.31 1448.67 1135.51 1451.35 Q1138.7 1454.04 1138.7 1458.53 Q1138.7 1460.66 1137.89 1462.58 Q1137.11 1464.48 1135 1467.07 Q1134.42 1467.74 1131.32 1470.96 Q1128.22 1474.15 1122.57 1479.92 Z" fill="#000000" fill-rule="evenodd" fill-opacity="1" /><path clip-path="url(#clip020)" d="M 0 0 M1153.96 1452.37 Q1150.35 1452.37 1148.52 1455.94 Q1146.71 1459.48 1146.71 1466.61 Q1146.71 1473.71 1148.52 1477.28 Q1150.35 1480.82 1153.96 1480.82 Q1157.59 1480.82 1159.4 1477.28 Q1161.23 1473.71 1161.23 1466.61 Q1161.23 1459.48 1159.4 1455.94 Q1157.59 1452.37 1153.96 1452.37 M1153.96 1448.67 Q1159.77 1448.67 1162.82 1453.27 Q1165.9 1457.86 1165.9 1466.61 Q1165.9 1475.33 1162.82 1479.94 Q1159.77 1484.52 1153.96 1484.52 Q1148.15 1484.52 1145.07 1479.94 Q1142.01 1475.33 1142.01 1466.61 Q1142.01 1457.86 1145.07 1453.27 Q1148.15 1448.67 1153.96 1448.67 Z" fill="#000000" fill-rule="evenodd" fill-opacity="1" /><path clip-path="url(#clip020)" d="M 0 0 M1553.65 1465.22 Q1557.01 1465.94 1558.88 1468.2 Q1560.78 1470.47 1560.78 1473.81 Q1560.78 1478.92 1557.26 1481.72 Q1553.74 1484.52 1547.26 1484.52 Q1545.08 1484.52 1542.77 1484.08 Q1540.48 1483.67 1538.02 1482.81 L1538.02 1478.3 Q1539.97 1479.43 1542.28 1480.01 Q1544.6 1480.59 1547.12 1480.59 Q1551.52 1480.59 1553.81 1478.85 Q1556.13 1477.12 1556.13 1473.81 Q1556.13 1470.75 1553.97 1469.04 Q1551.84 1467.3 1548.02 1467.3 L1544 1467.3 L1544 1463.46 L1548.21 1463.46 Q1551.66 1463.46 1553.49 1462.09 Q1555.32 1460.7 1555.32 1458.11 Q1555.32 1455.45 1553.42 1454.04 Q1551.54 1452.6 1548.02 1452.6 Q1546.1 1452.6 1543.9 1453.02 Q1541.7 1453.44 1539.07 1454.31 L1539.07 1450.15 Q1541.73 1449.41 1544.04 1449.04 Q1546.38 1448.67 1548.44 1448.67 Q1553.76 1448.67 1556.87 1451.1 Q1559.97 1453.5 1559.97 1457.63 Q1559.97 1460.5 1558.32 1462.49 Q1556.68 1464.45 1553.65 1465.22 Z" fill="#000000" fill-rule="evenodd" fill-opacity="1" /><path clip-path="url(#clip020)" d="M 0 0 M1575.85 1452.37 Q1572.24 1452.37 1570.41 1455.94 Q1568.6 1459.48 1568.6 1466.61 Q1568.6 1473.71 1570.41 1477.28 Q1572.24 1480.82 1575.85 1480.82 Q1579.48 1480.82 1581.29 1477.28 Q1583.12 1473.71 1583.12 1466.61 Q1583.12 1459.48 1581.29 1455.94 Q1579.48 1452.37 1575.85 1452.37 M1575.85 1448.67 Q1581.66 1448.67 1584.71 1453.27 Q1587.79 1457.86 1587.79 1466.61 Q1587.79 1475.33 1584.71 1479.94 Q1581.66 1484.52 1575.85 1484.52 Q1570.04 1484.52 1566.96 1479.94 Q1563.9 1475.33 1563.9 1466.61 Q1563.9 1457.86 1566.96 1453.27 Q1570.04 1448.67 1575.85 1448.67 Z" fill="#000000" fill-rule="evenodd" fill-opacity="1" /><path clip-path="url(#clip020)" d="M 0 0 M1973.9 1453.37 L1962.09 1471.81 L1973.9 1471.81 L1973.9 1453.37 M1972.67 1449.29 L1978.55 1449.29 L1978.55 1471.81 L1983.48 1471.81 L1983.48 1475.7 L1978.55 1475.7 L1978.55 1483.85 L1973.9 1483.85 L1973.9 1475.7 L1958.29 1475.7 L1958.29 1471.19 L1972.67 1449.29 Z" fill="#000000" fill-rule="evenodd" fill-opacity="1" /><path clip-path="url(#clip020)" d="M 0 0 M1998.55 1452.37 Q1994.94 1452.37 1993.11 1455.94 Q1991.3 1459.48 1991.3 1466.61 Q1991.3 1473.71 1993.11 1477.28 Q1994.94 1480.82 1998.55 1480.82 Q2002.18 1480.82 2003.99 1477.28 Q2005.82 1473.71 2005.82 1466.61 Q2005.82 1459.48 2003.99 1455.94 Q2002.18 1452.37 1998.55 1452.37 M1998.55 1448.67 Q2004.36 1448.67 2007.41 1453.27 Q2010.49 1457.86 2010.49 1466.61 Q2010.49 1475.33 2007.41 1479.94 Q2004.36 1484.52 1998.55 1484.52 Q1992.74 1484.52 1989.66 1479.94 Q1986.6 1475.33 1986.6 1466.61 Q1986.6 1457.86 1989.66 1453.27 Q1992.74 1448.67 1998.55 1448.67 Z" fill="#000000" fill-rule="evenodd" fill-opacity="1" /><path clip-path="url(#clip020)" d="M 0 0 M1306.13 1537.87 Q1305.14 1537.3 1303.96 1537.04 Q1302.82 1536.76 1301.42 1536.76 Q1296.45 1536.76 1293.78 1540 Q1291.13 1543.22 1291.13 1549.27 L1291.13 1568.04 L1285.25 1568.04 L1285.25 1532.4 L1291.13 1532.4 L1291.13 1537.93 Q1292.98 1534.69 1295.94 1533.13 Q1298.9 1531.54 1303.13 1531.54 Q1303.74 1531.54 1304.47 1531.63 Q1305.2 1531.7 1306.09 1531.85 L1306.13 1537.87 Z" fill="#000000" fill-rule="evenodd" fill-opacity="1" /><polyline clip-path="url(#clip022)" style="stroke:#000000; stroke-width:2; stroke-opacity:0.1; fill:none" points="
  238.616,1384.24 2352.76,1384.24 
  "/>
<polyline clip-path="url(#clip022)" style="stroke:#000000; stroke-width:2; stroke-opacity:0.1; fill:none" points="
  238.616,1093.82 2352.76,1093.82 
  "/>
<polyline clip-path="url(#clip022)" style="stroke:#000000; stroke-width:2; stroke-opacity:0.1; fill:none" points="
  238.616,803.404 2352.76,803.404 
  "/>
<polyline clip-path="url(#clip022)" style="stroke:#000000; stroke-width:2; stroke-opacity:0.1; fill:none" points="
  238.616,512.986 2352.76,512.986 
  "/>
<polyline clip-path="url(#clip022)" style="stroke:#000000; stroke-width:2; stroke-opacity:0.1; fill:none" points="
  238.616,222.569 2352.76,222.569 
  "/>
<polyline clip-path="url(#clip020)" style="stroke:#000000; stroke-width:4; stroke-opacity:1; fill:none" points="
  238.616,1423.18 238.616,47.2441 
  "/>
<polyline clip-path="url(#clip020)" style="stroke:#000000; stroke-width:4; stroke-opacity:1; fill:none" points="
  238.616,1384.24 263.986,1384.24 
  "/>
<polyline clip-path="url(#clip020)" style="stroke:#000000; stroke-width:4; stroke-opacity:1; fill:none" points="
  238.616,1093.82 263.986,1093.82 
  "/>
<polyline clip-path="url(#clip020)" style="stroke:#000000; stroke-width:4; stroke-opacity:1; fill:none" points="
  238.616,803.404 263.986,803.404 
  "/>
<polyline clip-path="url(#clip020)" style="stroke:#000000; stroke-width:4; stroke-opacity:1; fill:none" points="
  238.616,512.986 263.986,512.986 
  "/>
<polyline clip-path="url(#clip020)" style="stroke:#000000; stroke-width:4; stroke-opacity:1; fill:none" points="
  238.616,222.569 263.986,222.569 
  "/>
<path clip-path="url(#clip020)" d="M 0 0 M126.691 1370.04 Q123.08 1370.04 121.251 1373.6 Q119.445 1377.14 119.445 1384.27 Q119.445 1391.38 121.251 1394.94 Q123.08 1398.49 126.691 1398.49 Q130.325 1398.49 132.13 1394.94 Q133.959 1391.38 133.959 1384.27 Q133.959 1377.14 132.13 1373.6 Q130.325 1370.04 126.691 1370.04 M126.691 1366.33 Q132.501 1366.33 135.556 1370.94 Q138.635 1375.52 138.635 1384.27 Q138.635 1393 135.556 1397.61 Q132.501 1402.19 126.691 1402.19 Q120.88 1402.19 117.802 1397.61 Q114.746 1393 114.746 1384.27 Q114.746 1375.52 117.802 1370.94 Q120.88 1366.33 126.691 1366.33 Z" fill="#000000" fill-rule="evenodd" fill-opacity="1" /><path clip-path="url(#clip020)" d="M 0 0 M143.704 1395.64 L148.589 1395.64 L148.589 1401.52 L143.704 1401.52 L143.704 1395.64 Z" fill="#000000" fill-rule="evenodd" fill-opacity="1" /><path clip-path="url(#clip020)" d="M 0 0 M163.658 1370.04 Q160.047 1370.04 158.218 1373.6 Q156.413 1377.14 156.413 1384.27 Q156.413 1391.38 158.218 1394.94 Q160.047 1398.49 163.658 1398.49 Q167.292 1398.49 169.098 1394.94 Q170.927 1391.38 170.927 1384.27 Q170.927 1377.14 169.098 1373.6 Q167.292 1370.04 163.658 1370.04 M163.658 1366.33 Q169.468 1366.33 172.524 1370.94 Q175.602 1375.52 175.602 1384.27 Q175.602 1393 172.524 1397.61 Q169.468 1402.19 163.658 1402.19 Q157.848 1402.19 154.769 1397.61 Q151.714 1393 151.714 1384.27 Q151.714 1375.52 154.769 1370.94 Q157.848 1366.33 163.658 1366.33 Z" fill="#000000" fill-rule="evenodd" fill-opacity="1" /><path clip-path="url(#clip020)" d="M 0 0 M190.672 1370.04 Q187.061 1370.04 185.232 1373.6 Q183.426 1377.14 183.426 1384.27 Q183.426 1391.38 185.232 1394.94 Q187.061 1398.49 190.672 1398.49 Q194.306 1398.49 196.112 1394.94 Q197.94 1391.38 197.94 1384.27 Q197.94 1377.14 196.112 1373.6 Q194.306 1370.04 190.672 1370.04 M190.672 1366.33 Q196.482 1366.33 199.537 1370.94 Q202.616 1375.52 202.616 1384.27 Q202.616 1393 199.537 1397.61 Q196.482 1402.19 190.672 1402.19 Q184.862 1402.19 181.783 1397.61 Q178.727 1393 178.727 1384.27 Q178.727 1375.52 181.783 1370.94 Q184.862 1366.33 190.672 1366.33 Z" fill="#000000" fill-rule="evenodd" fill-opacity="1" /><path clip-path="url(#clip020)" d="M 0 0 M128.288 1079.62 Q124.677 1079.62 122.848 1083.18 Q121.043 1086.73 121.043 1093.86 Q121.043 1100.96 122.848 1104.53 Q124.677 1108.07 128.288 1108.07 Q131.922 1108.07 133.728 1104.53 Q135.556 1100.96 135.556 1093.86 Q135.556 1086.73 133.728 1083.18 Q131.922 1079.62 128.288 1079.62 M128.288 1075.92 Q134.098 1075.92 137.154 1080.52 Q140.232 1085.11 140.232 1093.86 Q140.232 1102.58 137.154 1107.19 Q134.098 1111.77 128.288 1111.77 Q122.478 1111.77 119.399 1107.19 Q116.343 1102.58 116.343 1093.86 Q116.343 1085.11 119.399 1080.52 Q122.478 1075.92 128.288 1075.92 Z" fill="#000000" fill-rule="evenodd" fill-opacity="1" /><path clip-path="url(#clip020)" d="M 0 0 M145.302 1105.22 L150.186 1105.22 L150.186 1111.1 L145.302 1111.1 L145.302 1105.22 Z" fill="#000000" fill-rule="evenodd" fill-opacity="1" /><path clip-path="url(#clip020)" d="M 0 0 M165.255 1079.62 Q161.644 1079.62 159.815 1083.18 Q158.01 1086.73 158.01 1093.86 Q158.01 1100.96 159.815 1104.53 Q161.644 1108.07 165.255 1108.07 Q168.889 1108.07 170.695 1104.53 Q172.524 1100.96 172.524 1093.86 Q172.524 1086.73 170.695 1083.18 Q168.889 1079.62 165.255 1079.62 M165.255 1075.92 Q171.065 1075.92 174.121 1080.52 Q177.2 1085.11 177.2 1093.86 Q177.2 1102.58 174.121 1107.19 Q171.065 1111.77 165.255 1111.77 Q159.445 1111.77 156.366 1107.19 Q153.311 1102.58 153.311 1093.86 Q153.311 1085.11 156.366 1080.52 Q159.445 1075.92 165.255 1075.92 Z" fill="#000000" fill-rule="evenodd" fill-opacity="1" /><path clip-path="url(#clip020)" d="M 0 0 M186.297 1107.17 L202.616 1107.17 L202.616 1111.1 L180.672 1111.1 L180.672 1107.17 Q183.334 1104.41 187.917 1099.78 Q192.524 1095.13 193.704 1093.79 Q195.95 1091.26 196.829 1089.53 Q197.732 1087.77 197.732 1086.08 Q197.732 1083.32 195.787 1081.59 Q193.866 1079.85 190.764 1079.85 Q188.565 1079.85 186.112 1080.61 Q183.681 1081.38 180.903 1082.93 L180.903 1078.21 Q183.727 1077.07 186.181 1076.49 Q188.635 1075.92 190.672 1075.92 Q196.042 1075.92 199.237 1078.6 Q202.431 1081.29 202.431 1085.78 Q202.431 1087.91 201.621 1089.83 Q200.834 1091.73 198.727 1094.32 Q198.149 1094.99 195.047 1098.21 Q191.945 1101.4 186.297 1107.17 Z" fill="#000000" fill-rule="evenodd" fill-opacity="1" /><path clip-path="url(#clip020)" d="M 0 0 M126.205 789.202 Q122.593 789.202 120.765 792.767 Q118.959 796.309 118.959 803.438 Q118.959 810.545 120.765 814.11 Q122.593 817.651 126.205 817.651 Q129.839 817.651 131.644 814.11 Q133.473 810.545 133.473 803.438 Q133.473 796.309 131.644 792.767 Q129.839 789.202 126.205 789.202 M126.205 785.499 Q132.015 785.499 135.07 790.105 Q138.149 794.688 138.149 803.438 Q138.149 812.165 135.07 816.772 Q132.015 821.355 126.205 821.355 Q120.394 821.355 117.316 816.772 Q114.26 812.165 114.26 803.438 Q114.26 794.688 117.316 790.105 Q120.394 785.499 126.205 785.499 Z" fill="#000000" fill-rule="evenodd" fill-opacity="1" /><path clip-path="url(#clip020)" d="M 0 0 M143.218 814.804 L148.103 814.804 L148.103 820.684 L143.218 820.684 L143.218 814.804 Z" fill="#000000" fill-rule="evenodd" fill-opacity="1" /><path clip-path="url(#clip020)" d="M 0 0 M163.172 789.202 Q159.561 789.202 157.732 792.767 Q155.927 796.309 155.927 803.438 Q155.927 810.545 157.732 814.11 Q159.561 817.651 163.172 817.651 Q166.806 817.651 168.612 814.11 Q170.44 810.545 170.44 803.438 Q170.44 796.309 168.612 792.767 Q166.806 789.202 163.172 789.202 M163.172 785.499 Q168.982 785.499 172.038 790.105 Q175.116 794.688 175.116 803.438 Q175.116 812.165 172.038 816.772 Q168.982 821.355 163.172 821.355 Q157.362 821.355 154.283 816.772 Q151.228 812.165 151.228 803.438 Q151.228 794.688 154.283 790.105 Q157.362 785.499 163.172 785.499 Z" fill="#000000" fill-rule="evenodd" fill-opacity="1" /><path clip-path="url(#clip020)" d="M 0 0 M193.033 790.198 L181.227 808.647 L193.033 808.647 L193.033 790.198 M191.806 786.124 L197.686 786.124 L197.686 808.647 L202.616 808.647 L202.616 812.535 L197.686 812.535 L197.686 820.684 L193.033 820.684 L193.033 812.535 L177.431 812.535 L177.431 808.022 L191.806 786.124 Z" fill="#000000" fill-rule="evenodd" fill-opacity="1" /><path clip-path="url(#clip020)" d="M 0 0 M126.529 498.785 Q122.918 498.785 121.089 502.35 Q119.283 505.891 119.283 513.021 Q119.283 520.127 121.089 523.692 Q122.918 527.234 126.529 527.234 Q130.163 527.234 131.968 523.692 Q133.797 520.127 133.797 513.021 Q133.797 505.891 131.968 502.35 Q130.163 498.785 126.529 498.785 M126.529 495.081 Q132.339 495.081 135.394 499.688 Q138.473 504.271 138.473 513.021 Q138.473 521.748 135.394 526.354 Q132.339 530.937 126.529 530.937 Q120.718 530.937 117.64 526.354 Q114.584 521.748 114.584 513.021 Q114.584 504.271 117.64 499.688 Q120.718 495.081 126.529 495.081 Z" fill="#000000" fill-rule="evenodd" fill-opacity="1" /><path clip-path="url(#clip020)" d="M 0 0 M143.542 524.387 L148.427 524.387 L148.427 530.266 L143.542 530.266 L143.542 524.387 Z" fill="#000000" fill-rule="evenodd" fill-opacity="1" /><path clip-path="url(#clip020)" d="M 0 0 M163.496 498.785 Q159.885 498.785 158.056 502.35 Q156.251 505.891 156.251 513.021 Q156.251 520.127 158.056 523.692 Q159.885 527.234 163.496 527.234 Q167.13 527.234 168.936 523.692 Q170.764 520.127 170.764 513.021 Q170.764 505.891 168.936 502.35 Q167.13 498.785 163.496 498.785 M163.496 495.081 Q169.306 495.081 172.362 499.688 Q175.44 504.271 175.44 513.021 Q175.44 521.748 172.362 526.354 Q169.306 530.937 163.496 530.937 Q157.686 530.937 154.607 526.354 Q151.552 521.748 151.552 513.021 Q151.552 504.271 154.607 499.688 Q157.686 495.081 163.496 495.081 Z" fill="#000000" fill-rule="evenodd" fill-opacity="1" /><path clip-path="url(#clip020)" d="M 0 0 M191.088 511.123 Q187.94 511.123 186.088 513.276 Q184.26 515.428 184.26 519.178 Q184.26 522.905 186.088 525.081 Q187.94 527.234 191.088 527.234 Q194.237 527.234 196.065 525.081 Q197.917 522.905 197.917 519.178 Q197.917 515.428 196.065 513.276 Q194.237 511.123 191.088 511.123 M200.371 496.47 L200.371 500.729 Q198.612 499.896 196.806 499.456 Q195.024 499.016 193.264 499.016 Q188.635 499.016 186.181 502.141 Q183.751 505.266 183.403 511.586 Q184.769 509.572 186.829 508.507 Q188.889 507.419 191.366 507.419 Q196.575 507.419 199.584 510.59 Q202.616 513.739 202.616 519.178 Q202.616 524.502 199.468 527.72 Q196.32 530.937 191.088 530.937 Q185.093 530.937 181.922 526.354 Q178.751 521.748 178.751 513.021 Q178.751 504.827 182.639 499.965 Q186.528 495.081 193.079 495.081 Q194.838 495.081 196.621 495.428 Q198.426 495.776 200.371 496.47 Z" fill="#000000" fill-rule="evenodd" fill-opacity="1" /><path clip-path="url(#clip020)" d="M 0 0 M126.783 208.368 Q123.172 208.368 121.343 211.932 Q119.538 215.474 119.538 222.604 Q119.538 229.71 121.343 233.275 Q123.172 236.816 126.783 236.816 Q130.417 236.816 132.223 233.275 Q134.052 229.71 134.052 222.604 Q134.052 215.474 132.223 211.932 Q130.417 208.368 126.783 208.368 M126.783 204.664 Q132.593 204.664 135.649 209.27 Q138.728 213.854 138.728 222.604 Q138.728 231.33 135.649 235.937 Q132.593 240.52 126.783 240.52 Q120.973 240.52 117.894 235.937 Q114.839 231.33 114.839 222.604 Q114.839 213.854 117.894 209.27 Q120.973 204.664 126.783 204.664 Z" fill="#000000" fill-rule="evenodd" fill-opacity="1" /><path clip-path="url(#clip020)" d="M 0 0 M143.797 233.969 L148.681 233.969 L148.681 239.849 L143.797 239.849 L143.797 233.969 Z" fill="#000000" fill-rule="evenodd" fill-opacity="1" /><path clip-path="url(#clip020)" d="M 0 0 M163.751 208.368 Q160.14 208.368 158.311 211.932 Q156.505 215.474 156.505 222.604 Q156.505 229.71 158.311 233.275 Q160.14 236.816 163.751 236.816 Q167.385 236.816 169.19 233.275 Q171.019 229.71 171.019 222.604 Q171.019 215.474 169.19 211.932 Q167.385 208.368 163.751 208.368 M163.751 204.664 Q169.561 204.664 172.616 209.27 Q175.695 213.854 175.695 222.604 Q175.695 231.33 172.616 235.937 Q169.561 240.52 163.751 240.52 Q157.94 240.52 154.862 235.937 Q151.806 231.33 151.806 222.604 Q151.806 213.854 154.862 209.27 Q157.94 204.664 163.751 204.664 Z" fill="#000000" fill-rule="evenodd" fill-opacity="1" /><path clip-path="url(#clip020)" d="M 0 0 M190.764 223.437 Q187.431 223.437 185.51 225.219 Q183.612 227.002 183.612 230.127 Q183.612 233.252 185.51 235.034 Q187.431 236.816 190.764 236.816 Q194.098 236.816 196.019 235.034 Q197.94 233.229 197.94 230.127 Q197.94 227.002 196.019 225.219 Q194.121 223.437 190.764 223.437 M186.088 221.446 Q183.079 220.705 181.389 218.645 Q179.723 216.585 179.723 213.622 Q179.723 209.479 182.663 207.071 Q185.626 204.664 190.764 204.664 Q195.926 204.664 198.866 207.071 Q201.806 209.479 201.806 213.622 Q201.806 216.585 200.116 218.645 Q198.45 220.705 195.463 221.446 Q198.843 222.233 200.718 224.525 Q202.616 226.817 202.616 230.127 Q202.616 235.15 199.537 237.835 Q196.482 240.52 190.764 240.52 Q185.047 240.52 181.968 237.835 Q178.913 235.15 178.913 230.127 Q178.913 226.817 180.811 224.525 Q182.709 222.233 186.088 221.446 M184.376 214.062 Q184.376 216.747 186.042 218.252 Q187.732 219.756 190.764 219.756 Q193.774 219.756 195.463 218.252 Q197.176 216.747 197.176 214.062 Q197.176 211.377 195.463 209.872 Q193.774 208.368 190.764 208.368 Q187.732 208.368 186.042 209.872 Q184.376 211.377 184.376 214.062 Z" fill="#000000" fill-rule="evenodd" fill-opacity="1" /><path clip-path="url(#clip020)" d="M 0 0 M21.7677 777.544 L39.6235 777.544 L39.6235 769.459 Q39.6235 764.972 37.3 762.521 Q34.9765 760.07 30.6797 760.07 Q26.4147 760.07 24.0912 762.521 Q21.7677 764.972 21.7677 769.459 L21.7677 777.544 M16.4842 783.973 L16.4842 769.459 Q16.4842 761.471 20.1126 757.396 Q23.7092 753.291 30.6797 753.291 Q37.7138 753.291 41.3104 757.396 Q44.907 761.471 44.907 769.459 L44.907 777.544 L64.0042 777.544 L64.0042 783.973 L16.4842 783.973 Z" fill="#000000" fill-rule="evenodd" fill-opacity="1" /><path clip-path="url(#clip020)" d="M 0 0 M14.5426 733.079 Q21.8632 737.344 29.0246 739.413 Q36.186 741.482 43.5384 741.482 Q50.8908 741.482 58.1159 739.413 Q65.3091 737.313 72.5979 733.079 L72.5979 738.172 Q65.1182 742.946 57.8931 745.333 Q50.668 747.689 43.5384 747.689 Q36.4406 747.689 29.2474 745.333 Q22.0542 742.978 14.5426 738.172 L14.5426 733.079 Z" fill="#000000" fill-rule="evenodd" fill-opacity="1" /><path clip-path="url(#clip020)" d="M 0 0 M33.8307 706.28 Q33.2578 707.267 33.0032 708.444 Q32.7167 709.59 32.7167 710.99 Q32.7167 715.956 35.9632 718.629 Q39.1779 721.271 45.2253 721.271 L64.0042 721.271 L64.0042 727.159 L28.3562 727.159 L28.3562 721.271 L33.8944 721.271 Q30.6479 719.425 29.0883 716.465 Q27.4968 713.505 27.4968 709.272 Q27.4968 708.667 27.5923 707.935 Q27.656 707.203 27.8151 706.312 L33.8307 706.28 Z" fill="#000000" fill-rule="evenodd" fill-opacity="1" /><path clip-path="url(#clip020)" d="M 0 0 M14.5426 701.06 L14.5426 695.967 Q22.0542 691.193 29.2474 688.838 Q36.4406 686.451 43.5384 686.451 Q50.668 686.451 57.8931 688.838 Q65.1182 691.193 72.5979 695.967 L72.5979 701.06 Q65.3091 696.827 58.1159 694.758 Q50.8908 692.657 43.5384 692.657 Q36.186 692.657 29.0246 694.758 Q21.8632 696.827 14.5426 701.06 Z" fill="#000000" fill-rule="evenodd" fill-opacity="1" /><path clip-path="url(#clip022)" d="
M382.747 1384.22 L382.747 1384.24 L424.896 1384.24 L424.896 1384.22 L382.747 1384.22 L382.747 1384.22  Z
  " fill="#009af9" fill-rule="evenodd" fill-opacity="1"/>
<polyline clip-path="url(#clip022)" style="stroke:#009af9; stroke-width:4; stroke-opacity:1; fill:none" points="
  382.747,1384.22 382.747,1384.24 424.896,1384.24 424.896,1384.22 382.747,1384.22 
  "/>
<path clip-path="url(#clip022)" d="
M424.896 1384.19 L424.896 1384.24 L467.045 1384.24 L467.045 1384.19 L424.896 1384.19 L424.896 1384.19  Z
  " fill="#009af9" fill-rule="evenodd" fill-opacity="1"/>
<polyline clip-path="url(#clip022)" style="stroke:#009af9; stroke-width:4; stroke-opacity:1; fill:none" points="
  424.896,1384.19 424.896,1384.24 467.045,1384.24 467.045,1384.19 424.896,1384.19 
  "/>
<path clip-path="url(#clip022)" d="
M467.045 1384.09 L467.045 1384.24 L509.193 1384.24 L509.193 1384.09 L467.045 1384.09 L467.045 1384.09  Z
  " fill="#009af9" fill-rule="evenodd" fill-opacity="1"/>
<polyline clip-path="url(#clip022)" style="stroke:#009af9; stroke-width:4; stroke-opacity:1; fill:none" points="
  467.045,1384.09 467.045,1384.24 509.193,1384.24 509.193,1384.09 467.045,1384.09 
  "/>
<path clip-path="url(#clip022)" d="
M509.193 1383.29 L509.193 1384.24 L551.342 1384.24 L551.342 1383.29 L509.193 1383.29 L509.193 1383.29  Z
  " fill="#009af9" fill-rule="evenodd" fill-opacity="1"/>
<polyline clip-path="url(#clip022)" style="stroke:#009af9; stroke-width:4; stroke-opacity:1; fill:none" points="
  509.193,1383.29 509.193,1384.24 551.342,1384.24 551.342,1383.29 509.193,1383.29 
  "/>
<path clip-path="url(#clip022)" d="
M551.342 1381.74 L551.342 1384.24 L593.49 1384.24 L593.49 1381.74 L551.342 1381.74 L551.342 1381.74  Z
  " fill="#009af9" fill-rule="evenodd" fill-opacity="1"/>
<polyline clip-path="url(#clip022)" style="stroke:#009af9; stroke-width:4; stroke-opacity:1; fill:none" points="
  551.342,1381.74 551.342,1384.24 593.49,1384.24 593.49,1381.74 551.342,1381.74 
  "/>
<path clip-path="url(#clip022)" d="
M593.49 1376.53 L593.49 1384.24 L635.639 1384.24 L635.639 1376.53 L593.49 1376.53 L593.49 1376.53  Z
  " fill="#009af9" fill-rule="evenodd" fill-opacity="1"/>
<polyline clip-path="url(#clip022)" style="stroke:#009af9; stroke-width:4; stroke-opacity:1; fill:none" points="
  593.49,1376.53 593.49,1384.24 635.639,1384.24 635.639,1376.53 593.49,1376.53 
  "/>
<path clip-path="url(#clip022)" d="
M635.639 1365.17 L635.639 1384.24 L677.788 1384.24 L677.788 1365.17 L635.639 1365.17 L635.639 1365.17  Z
  " fill="#009af9" fill-rule="evenodd" fill-opacity="1"/>
<polyline clip-path="url(#clip022)" style="stroke:#009af9; stroke-width:4; stroke-opacity:1; fill:none" points="
  635.639,1365.17 635.639,1384.24 677.788,1384.24 677.788,1365.17 635.639,1365.17 
  "/>
<path clip-path="url(#clip022)" d="
M677.788 1342.62 L677.788 1384.24 L719.936 1384.24 L719.936 1342.62 L677.788 1342.62 L677.788 1342.62  Z
  " fill="#009af9" fill-rule="evenodd" fill-opacity="1"/>
<polyline clip-path="url(#clip022)" style="stroke:#009af9; stroke-width:4; stroke-opacity:1; fill:none" points="
  677.788,1342.62 677.788,1384.24 719.936,1384.24 719.936,1342.62 677.788,1342.62 
  "/>
<path clip-path="url(#clip022)" d="
M719.936 1301.36 L719.936 1384.24 L762.085 1384.24 L762.085 1301.36 L719.936 1301.36 L719.936 1301.36  Z
  " fill="#009af9" fill-rule="evenodd" fill-opacity="1"/>
<polyline clip-path="url(#clip022)" style="stroke:#009af9; stroke-width:4; stroke-opacity:1; fill:none" points="
  719.936,1301.36 719.936,1384.24 762.085,1384.24 762.085,1301.36 719.936,1301.36 
  "/>
<path clip-path="url(#clip022)" d="
M762.085 1228.39 L762.085 1384.24 L804.233 1384.24 L804.233 1228.39 L762.085 1228.39 L762.085 1228.39  Z
  " fill="#009af9" fill-rule="evenodd" fill-opacity="1"/>
<polyline clip-path="url(#clip022)" style="stroke:#009af9; stroke-width:4; stroke-opacity:1; fill:none" points="
  762.085,1228.39 762.085,1384.24 804.233,1384.24 804.233,1228.39 762.085,1228.39 
  "/>
<path clip-path="url(#clip022)" d="
M804.233 1125.87 L804.233 1384.24 L846.382 1384.24 L846.382 1125.87 L804.233 1125.87 L804.233 1125.87  Z
  " fill="#009af9" fill-rule="evenodd" fill-opacity="1"/>
<polyline clip-path="url(#clip022)" style="stroke:#009af9; stroke-width:4; stroke-opacity:1; fill:none" points="
  804.233,1125.87 804.233,1384.24 846.382,1384.24 846.382,1125.87 804.233,1125.87 
  "/>
<path clip-path="url(#clip022)" d="
M846.382 987.436 L846.382 1384.24 L888.531 1384.24 L888.531 987.436 L846.382 987.436 L846.382 987.436  Z
  " fill="#009af9" fill-rule="evenodd" fill-opacity="1"/>
<polyline clip-path="url(#clip022)" style="stroke:#009af9; stroke-width:4; stroke-opacity:1; fill:none" points="
  846.382,987.436 846.382,1384.24 888.531,1384.24 888.531,987.436 846.382,987.436 
  "/>
<path clip-path="url(#clip022)" d="
M888.531 820.962 L888.531 1384.24 L930.679 1384.24 L930.679 820.962 L888.531 820.962 L888.531 820.962  Z
  " fill="#009af9" fill-rule="evenodd" fill-opacity="1"/>
<polyline clip-path="url(#clip022)" style="stroke:#009af9; stroke-width:4; stroke-opacity:1; fill:none" points="
  888.531,820.962 888.531,1384.24 930.679,1384.24 930.679,820.962 888.531,820.962 
  "/>
<path clip-path="url(#clip022)" d="
M930.679 637.132 L930.679 1384.24 L972.828 1384.24 L972.828 637.132 L930.679 637.132 L930.679 637.132  Z
  " fill="#009af9" fill-rule="evenodd" fill-opacity="1"/>
<polyline clip-path="url(#clip022)" style="stroke:#009af9; stroke-width:4; stroke-opacity:1; fill:none" points="
  930.679,637.132 930.679,1384.24 972.828,1384.24 972.828,637.132 930.679,637.132 
  "/>
<path clip-path="url(#clip022)" d="
M972.828 450.468 L972.828 1384.24 L1014.98 1384.24 L1014.98 450.468 L972.828 450.468 L972.828 450.468  Z
  " fill="#009af9" fill-rule="evenodd" fill-opacity="1"/>
<polyline clip-path="url(#clip022)" style="stroke:#009af9; stroke-width:4; stroke-opacity:1; fill:none" points="
  972.828,450.468 972.828,1384.24 1014.98,1384.24 1014.98,450.468 972.828,450.468 
  "/>
<path clip-path="url(#clip022)" d="
M1014.98 285.041 L1014.98 1384.24 L1057.12 1384.24 L1057.12 285.041 L1014.98 285.041 L1014.98 285.041  Z
  " fill="#009af9" fill-rule="evenodd" fill-opacity="1"/>
<polyline clip-path="url(#clip022)" style="stroke:#009af9; stroke-width:4; stroke-opacity:1; fill:none" points="
  1014.98,285.041 1014.98,1384.24 1057.12,1384.24 1057.12,285.041 1014.98,285.041 
  "/>
<path clip-path="url(#clip022)" d="
M1057.12 157.74 L1057.12 1384.24 L1099.27 1384.24 L1099.27 157.74 L1057.12 157.74 L1057.12 157.74  Z
  " fill="#009af9" fill-rule="evenodd" fill-opacity="1"/>
<polyline clip-path="url(#clip022)" style="stroke:#009af9; stroke-width:4; stroke-opacity:1; fill:none" points="
  1057.12,157.74 1057.12,1384.24 1099.27,1384.24 1099.27,157.74 1057.12,157.74 
  "/>
<path clip-path="url(#clip022)" d="
M1099.27 92.4612 L1099.27 1384.24 L1141.42 1384.24 L1141.42 92.4612 L1099.27 92.4612 L1099.27 92.4612  Z
  " fill="#009af9" fill-rule="evenodd" fill-opacity="1"/>
<polyline clip-path="url(#clip022)" style="stroke:#009af9; stroke-width:4; stroke-opacity:1; fill:none" points="
  1099.27,92.4612 1099.27,1384.24 1141.42,1384.24 1141.42,92.4612 1099.27,92.4612 
  "/>
<path clip-path="url(#clip022)" d="
M1141.42 89.932 L1141.42 1384.24 L1183.57 1384.24 L1183.57 89.932 L1141.42 89.932 L1141.42 89.932  Z
  " fill="#009af9" fill-rule="evenodd" fill-opacity="1"/>
<polyline clip-path="url(#clip022)" style="stroke:#009af9; stroke-width:4; stroke-opacity:1; fill:none" points="
  1141.42,89.932 1141.42,1384.24 1183.57,1384.24 1183.57,89.932 1141.42,89.932 
  "/>
<path clip-path="url(#clip022)" d="
M1183.57 155.865 L1183.57 1384.24 L1225.72 1384.24 L1225.72 155.865 L1183.57 155.865 L1183.57 155.865  Z
  " fill="#009af9" fill-rule="evenodd" fill-opacity="1"/>
<polyline clip-path="url(#clip022)" style="stroke:#009af9; stroke-width:4; stroke-opacity:1; fill:none" points="
  1183.57,155.865 1183.57,1384.24 1225.72,1384.24 1225.72,155.865 1183.57,155.865 
  "/>
<path clip-path="url(#clip022)" d="
M1225.72 263.238 L1225.72 1384.24 L1267.87 1384.24 L1267.87 263.238 L1225.72 263.238 L1225.72 263.238  Z
  " fill="#009af9" fill-rule="evenodd" fill-opacity="1"/>
<polyline clip-path="url(#clip022)" style="stroke:#009af9; stroke-width:4; stroke-opacity:1; fill:none" points="
  1225.72,263.238 1225.72,1384.24 1267.87,1384.24 1267.87,263.238 1225.72,263.238 
  "/>
<path clip-path="url(#clip022)" d="
M1267.87 418.752 L1267.87 1384.24 L1310.02 1384.24 L1310.02 418.752 L1267.87 418.752 L1267.87 418.752  Z
  " fill="#009af9" fill-rule="evenodd" fill-opacity="1"/>
<polyline clip-path="url(#clip022)" style="stroke:#009af9; stroke-width:4; stroke-opacity:1; fill:none" points="
  1267.87,418.752 1267.87,1384.24 1310.02,1384.24 1310.02,418.752 1267.87,418.752 
  "/>
<path clip-path="url(#clip022)" d="
M1310.02 576.476 L1310.02 1384.24 L1352.17 1384.24 L1352.17 576.476 L1310.02 576.476 L1310.02 576.476  Z
  " fill="#009af9" fill-rule="evenodd" fill-opacity="1"/>
<polyline clip-path="url(#clip022)" style="stroke:#009af9; stroke-width:4; stroke-opacity:1; fill:none" points="
  1310.02,576.476 1310.02,1384.24 1352.17,1384.24 1352.17,576.476 1310.02,576.476 
  "/>
<path clip-path="url(#clip022)" d="
M1352.17 735.682 L1352.17 1384.24 L1394.31 1384.24 L1394.31 735.682 L1352.17 735.682 L1352.17 735.682  Z
  " fill="#009af9" fill-rule="evenodd" fill-opacity="1"/>
<polyline clip-path="url(#clip022)" style="stroke:#009af9; stroke-width:4; stroke-opacity:1; fill:none" points="
  1352.17,735.682 1352.17,1384.24 1394.31,1384.24 1394.31,735.682 1352.17,735.682 
  "/>
<path clip-path="url(#clip022)" d="
M1394.31 883.769 L1394.31 1384.24 L1436.46 1384.24 L1436.46 883.769 L1394.31 883.769 L1394.31 883.769  Z
  " fill="#009af9" fill-rule="evenodd" fill-opacity="1"/>
<polyline clip-path="url(#clip022)" style="stroke:#009af9; stroke-width:4; stroke-opacity:1; fill:none" points="
  1394.31,883.769 1394.31,1384.24 1436.46,1384.24 1436.46,883.769 1394.31,883.769 
  "/>
<path clip-path="url(#clip022)" d="
M1436.46 1015.55 L1436.46 1384.24 L1478.61 1384.24 L1478.61 1015.55 L1436.46 1015.55 L1436.46 1015.55  Z
  " fill="#009af9" fill-rule="evenodd" fill-opacity="1"/>
<polyline clip-path="url(#clip022)" style="stroke:#009af9; stroke-width:4; stroke-opacity:1; fill:none" points="
  1436.46,1015.55 1436.46,1384.24 1478.61,1384.24 1478.61,1015.55 1436.46,1015.55 
  "/>
<path clip-path="url(#clip022)" d="
M1478.61 1121.1 L1478.61 1384.24 L1520.76 1384.24 L1520.76 1121.1 L1478.61 1121.1 L1478.61 1121.1  Z
  " fill="#009af9" fill-rule="evenodd" fill-opacity="1"/>
<polyline clip-path="url(#clip022)" style="stroke:#009af9; stroke-width:4; stroke-opacity:1; fill:none" points="
  1478.61,1121.1 1478.61,1384.24 1520.76,1384.24 1520.76,1121.1 1478.61,1121.1 
  "/>
<path clip-path="url(#clip022)" d="
M1520.76 1201.48 L1520.76 1384.24 L1562.91 1384.24 L1562.91 1201.48 L1520.76 1201.48 L1520.76 1201.48  Z
  " fill="#009af9" fill-rule="evenodd" fill-opacity="1"/>
<polyline clip-path="url(#clip022)" style="stroke:#009af9; stroke-width:4; stroke-opacity:1; fill:none" points="
  1520.76,1201.48 1520.76,1384.24 1562.91,1384.24 1562.91,1201.48 1520.76,1201.48 
  "/>
<path clip-path="url(#clip022)" d="
M1562.91 1266.57 L1562.91 1384.24 L1605.06 1384.24 L1605.06 1266.57 L1562.91 1266.57 L1562.91 1266.57  Z
  " fill="#009af9" fill-rule="evenodd" fill-opacity="1"/>
<polyline clip-path="url(#clip022)" style="stroke:#009af9; stroke-width:4; stroke-opacity:1; fill:none" points="
  1562.91,1266.57 1562.91,1384.24 1605.06,1384.24 1605.06,1266.57 1562.91,1266.57 
  "/>
<path clip-path="url(#clip022)" d="
M1605.06 1306.49 L1605.06 1384.24 L1647.21 1384.24 L1647.21 1306.49 L1605.06 1306.49 L1605.06 1306.49  Z
  " fill="#009af9" fill-rule="evenodd" fill-opacity="1"/>
<polyline clip-path="url(#clip022)" style="stroke:#009af9; stroke-width:4; stroke-opacity:1; fill:none" points="
  1605.06,1306.49 1605.06,1384.24 1647.21,1384.24 1647.21,1306.49 1605.06,1306.49 
  "/>
<path clip-path="url(#clip022)" d="
M1647.21 1335.63 L1647.21 1384.24 L1689.35 1384.24 L1689.35 1335.63 L1647.21 1335.63 L1647.21 1335.63  Z
  " fill="#009af9" fill-rule="evenodd" fill-opacity="1"/>
<polyline clip-path="url(#clip022)" style="stroke:#009af9; stroke-width:4; stroke-opacity:1; fill:none" points="
  1647.21,1335.63 1647.21,1384.24 1689.35,1384.24 1689.35,1335.63 1647.21,1335.63 
  "/>
<path clip-path="url(#clip022)" d="
M1689.35 1354.31 L1689.35 1384.24 L1731.5 1384.24 L1731.5 1354.31 L1689.35 1354.31 L1689.35 1354.31  Z
  " fill="#009af9" fill-rule="evenodd" fill-opacity="1"/>
<polyline clip-path="url(#clip022)" style="stroke:#009af9; stroke-width:4; stroke-opacity:1; fill:none" points="
  1689.35,1354.31 1689.35,1384.24 1731.5,1384.24 1731.5,1354.31 1689.35,1354.31 
  "/>
<path clip-path="url(#clip022)" d="
M1731.5 1366.84 L1731.5 1384.24 L1773.65 1384.24 L1773.65 1366.84 L1731.5 1366.84 L1731.5 1366.84  Z
  " fill="#009af9" fill-rule="evenodd" fill-opacity="1"/>
<polyline clip-path="url(#clip022)" style="stroke:#009af9; stroke-width:4; stroke-opacity:1; fill:none" points="
  1731.5,1366.84 1731.5,1384.24 1773.65,1384.24 1773.65,1366.84 1731.5,1366.84 
  "/>
<path clip-path="url(#clip022)" d="
M1773.65 1374.69 L1773.65 1384.24 L1815.8 1384.24 L1815.8 1374.69 L1773.65 1374.69 L1773.65 1374.69  Z
  " fill="#009af9" fill-rule="evenodd" fill-opacity="1"/>
<polyline clip-path="url(#clip022)" style="stroke:#009af9; stroke-width:4; stroke-opacity:1; fill:none" points="
  1773.65,1374.69 1773.65,1384.24 1815.8,1384.24 1815.8,1374.69 1773.65,1374.69 
  "/>
<path clip-path="url(#clip022)" d="
M1815.8 1378.8 L1815.8 1384.24 L1857.95 1384.24 L1857.95 1378.8 L1815.8 1378.8 L1815.8 1378.8  Z
  " fill="#009af9" fill-rule="evenodd" fill-opacity="1"/>
<polyline clip-path="url(#clip022)" style="stroke:#009af9; stroke-width:4; stroke-opacity:1; fill:none" points="
  1815.8,1378.8 1815.8,1384.24 1857.95,1384.24 1857.95,1378.8 1815.8,1378.8 
  "/>
<path clip-path="url(#clip022)" d="
M1857.95 1381.16 L1857.95 1384.24 L1900.1 1384.24 L1900.1 1381.16 L1857.95 1381.16 L1857.95 1381.16  Z
  " fill="#009af9" fill-rule="evenodd" fill-opacity="1"/>
<polyline clip-path="url(#clip022)" style="stroke:#009af9; stroke-width:4; stroke-opacity:1; fill:none" points="
  1857.95,1381.16 1857.95,1384.24 1900.1,1384.24 1900.1,1381.16 1857.95,1381.16 
  "/>
<path clip-path="url(#clip022)" d="
M1900.1 1382.68 L1900.1 1384.24 L1942.25 1384.24 L1942.25 1382.68 L1900.1 1382.68 L1900.1 1382.68  Z
  " fill="#009af9" fill-rule="evenodd" fill-opacity="1"/>
<polyline clip-path="url(#clip022)" style="stroke:#009af9; stroke-width:4; stroke-opacity:1; fill:none" points="
  1900.1,1382.68 1900.1,1384.24 1942.25,1384.24 1942.25,1382.68 1900.1,1382.68 
  "/>
<path clip-path="url(#clip022)" d="
M1942.25 1383.26 L1942.25 1384.24 L1984.39 1384.24 L1984.39 1383.26 L1942.25 1383.26 L1942.25 1383.26  Z
  " fill="#009af9" fill-rule="evenodd" fill-opacity="1"/>
<polyline clip-path="url(#clip022)" style="stroke:#009af9; stroke-width:4; stroke-opacity:1; fill:none" points="
  1942.25,1383.26 1942.25,1384.24 1984.39,1384.24 1984.39,1383.26 1942.25,1383.26 
  "/>
<path clip-path="url(#clip022)" d="
M1984.39 1383.82 L1984.39 1384.24 L2026.54 1384.24 L2026.54 1383.82 L1984.39 1383.82 L1984.39 1383.82  Z
  " fill="#009af9" fill-rule="evenodd" fill-opacity="1"/>
<polyline clip-path="url(#clip022)" style="stroke:#009af9; stroke-width:4; stroke-opacity:1; fill:none" points="
  1984.39,1383.82 1984.39,1384.24 2026.54,1384.24 2026.54,1383.82 1984.39,1383.82 
  "/>
<path clip-path="url(#clip022)" d="
M2026.54 1383.99 L2026.54 1384.24 L2068.69 1384.24 L2068.69 1383.99 L2026.54 1383.99 L2026.54 1383.99  Z
  " fill="#009af9" fill-rule="evenodd" fill-opacity="1"/>
<polyline clip-path="url(#clip022)" style="stroke:#009af9; stroke-width:4; stroke-opacity:1; fill:none" points="
  2026.54,1383.99 2026.54,1384.24 2068.69,1384.24 2068.69,1383.99 2026.54,1383.99 
  "/>
<path clip-path="url(#clip022)" d="
M2068.69 1384.18 L2068.69 1384.24 L2110.84 1384.24 L2110.84 1384.18 L2068.69 1384.18 L2068.69 1384.18  Z
  " fill="#009af9" fill-rule="evenodd" fill-opacity="1"/>
<polyline clip-path="url(#clip022)" style="stroke:#009af9; stroke-width:4; stroke-opacity:1; fill:none" points="
  2068.69,1384.18 2068.69,1384.24 2110.84,1384.24 2110.84,1384.18 2068.69,1384.18 
  "/>
<path clip-path="url(#clip022)" d="
M2110.84 1384.18 L2110.84 1384.24 L2152.99 1384.24 L2152.99 1384.18 L2110.84 1384.18 L2110.84 1384.18  Z
  " fill="#009af9" fill-rule="evenodd" fill-opacity="1"/>
<polyline clip-path="url(#clip022)" style="stroke:#009af9; stroke-width:4; stroke-opacity:1; fill:none" points="
  2110.84,1384.18 2110.84,1384.24 2152.99,1384.24 2152.99,1384.18 2110.84,1384.18 
  "/>
<path clip-path="url(#clip022)" d="
M2152.99 1384.24 L2152.99 1384.24 L2195.14 1384.24 L2195.14 1384.24 L2152.99 1384.24 L2152.99 1384.24  Z
  " fill="#009af9" fill-rule="evenodd" fill-opacity="1"/>
<polyline clip-path="url(#clip022)" style="stroke:#009af9; stroke-width:4; stroke-opacity:1; fill:none" points="
  2152.99,1384.24 2152.99,1384.24 2195.14,1384.24 2152.99,1384.24 
  "/>
<path clip-path="url(#clip022)" d="
M2195.14 1384.19 L2195.14 1384.24 L2237.29 1384.24 L2237.29 1384.19 L2195.14 1384.19 L2195.14 1384.19  Z
  " fill="#009af9" fill-rule="evenodd" fill-opacity="1"/>
<polyline clip-path="url(#clip022)" style="stroke:#009af9; stroke-width:4; stroke-opacity:1; fill:none" points="
  2195.14,1384.19 2195.14,1384.24 2237.29,1384.24 2237.29,1384.19 2195.14,1384.19 
  "/>
<polyline clip-path="url(#clip022)" style="stroke:#e26f46; stroke-width:12; stroke-opacity:1; fill:none" points="
  298.45,1384.18 302.665,1384.17 306.88,1384.17 311.095,1384.16 315.31,1384.15 319.525,1384.14 323.739,1384.13 327.954,1384.12 332.169,1384.11 336.384,1384.1 
  340.599,1384.08 344.814,1384.07 349.029,1384.05 353.243,1384.03 357.458,1384.01 361.673,1383.99 365.888,1383.97 370.103,1383.94 374.318,1383.91 378.533,1383.88 
  382.747,1383.85 386.962,1383.81 391.177,1383.77 395.392,1383.72 399.607,1383.68 403.822,1383.63 408.037,1383.57 412.252,1383.51 416.466,1383.44 420.681,1383.37 
  424.896,1383.3 429.111,1383.21 433.326,1383.12 437.541,1383.02 441.756,1382.92 445.97,1382.8 450.185,1382.68 454.4,1382.55 458.615,1382.41 462.83,1382.25 
  467.045,1382.09 471.26,1381.91 475.474,1381.72 479.689,1381.51 483.904,1381.29 488.119,1381.05 492.334,1380.79 496.549,1380.52 500.764,1380.22 504.978,1379.91 
  509.193,1379.57 513.408,1379.2 517.623,1378.82 521.838,1378.4 526.053,1377.96 530.268,1377.48 534.482,1376.98 538.697,1376.44 542.912,1375.86 547.127,1375.25 
  551.342,1374.59 555.557,1373.9 559.772,1373.15 563.986,1372.37 568.201,1371.53 572.416,1370.64 576.631,1369.69 580.846,1368.68 585.061,1367.62 589.276,1366.49 
  593.49,1365.29 597.705,1364.03 601.92,1362.68 606.135,1361.27 610.35,1359.77 614.565,1358.18 618.78,1356.51 622.994,1354.74 627.209,1352.88 631.424,1350.91 
  635.639,1348.84 639.854,1346.67 644.069,1344.37 648.284,1341.96 652.498,1339.42 656.713,1336.76 660.928,1333.96 665.143,1331.03 669.358,1327.95 673.573,1324.72 
  677.788,1321.34 682.003,1317.8 686.217,1314.1 690.432,1310.22 694.647,1306.17 698.862,1301.95 703.077,1297.53 707.292,1292.93 711.507,1288.12 715.721,1283.12 
  719.936,1277.91 724.151,1272.49 728.366,1266.84 732.581,1260.98 736.796,1254.89 741.011,1248.56 745.225,1242 749.44,1235.19 753.655,1228.13 757.87,1220.82 
  762.085,1213.26 766.3,1205.43 770.515,1197.35 774.729,1188.99 778.944,1180.36 783.159,1171.45 787.374,1162.27 791.589,1152.81 795.804,1143.06 800.019,1133.03 
  804.233,1122.71 808.448,1112.11 812.663,1101.21 816.878,1090.03 821.093,1078.56 825.308,1066.8 829.523,1054.75 833.737,1042.42 837.952,1029.8 842.167,1016.9 
  846.382,1003.72 850.597,990.263 854.812,976.536 859.027,962.541 863.241,948.284 867.456,933.77 871.671,919.006 875.886,903.998 880.101,888.753 884.316,873.28 
  888.531,857.588 892.745,841.684 896.96,825.58 901.175,809.286 905.39,792.812 909.605,776.17 913.82,759.372 918.035,742.431 922.249,725.361 926.464,708.175 
  930.679,690.887 934.894,673.512 939.109,656.066 943.324,638.565 947.539,621.025 951.754,603.463 955.968,585.896 960.183,568.342 964.398,550.819 968.613,533.344 
  972.828,515.938 977.043,498.619 981.258,481.405 985.472,464.318 989.687,447.375 993.902,430.597 998.117,414.004 1002.33,397.616 1006.55,381.452 1010.76,365.533 
  1014.98,349.879 1019.19,334.509 1023.41,319.443 1027.62,304.701 1031.84,290.302 1036.05,276.265 1040.27,262.609 1044.48,249.352 1048.7,236.513 1052.91,224.108 
  1057.12,212.156 1061.34,200.672 1065.55,189.673 1069.77,179.175 1073.98,169.192 1078.2,159.739 1082.41,150.829 1086.63,142.475 1090.84,134.69 1095.06,127.484 
  1099.27,120.869 1103.49,114.854 1107.7,109.447 1111.92,104.658 1116.13,100.493 1120.35,96.9574 1124.56,94.0578 1128.78,91.798 1132.99,90.1814 1137.21,89.2105 
  1141.42,88.8867 1145.64,89.2105 1149.85,90.1814 1154.07,91.798 1158.28,94.0578 1162.5,96.9574 1166.71,100.493 1170.93,104.658 1175.14,109.447 1179.36,114.854 
  1183.57,120.869 1187.79,127.484 1192,134.69 1196.22,142.475 1200.43,150.829 1204.65,159.739 1208.86,169.192 1213.07,179.175 1217.29,189.673 1221.5,200.672 
  1225.72,212.156 1229.93,224.108 1234.15,236.513 1238.36,249.352 1242.58,262.609 1246.79,276.265 1251.01,290.302 1255.22,304.701 1259.44,319.443 1263.65,334.509 
  1267.87,349.879 1272.08,365.533 1276.3,381.452 1280.51,397.616 1284.73,414.004 1288.94,430.597 1293.16,447.375 1297.37,464.318 1301.59,481.405 1305.8,498.619 
  1310.02,515.938 1314.23,533.344 1318.45,550.819 1322.66,568.342 1326.88,585.896 1331.09,603.463 1335.31,621.025 1339.52,638.565 1343.74,656.066 1347.95,673.512 
  1352.17,690.887 1356.38,708.175 1360.59,725.361 1364.81,742.431 1369.02,759.372 1373.24,776.17 1377.45,792.812 1381.67,809.286 1385.88,825.58 1390.1,841.684 
  1394.31,857.588 1398.53,873.28 1402.74,888.753 1406.96,903.998 1411.17,919.006 1415.39,933.77 1419.6,948.284 1423.82,962.541 1428.03,976.536 1432.25,990.263 
  1436.46,1003.72 1440.68,1016.9 1444.89,1029.8 1449.11,1042.42 1453.32,1054.75 1457.54,1066.8 1461.75,1078.56 1465.97,1090.03 1470.18,1101.21 1474.4,1112.11 
  1478.61,1122.71 1482.83,1133.03 1487.04,1143.06 1491.26,1152.81 1495.47,1162.27 1499.69,1171.45 1503.9,1180.36 1508.11,1188.99 1512.33,1197.35 1516.54,1205.43 
  1520.76,1213.26 1524.97,1220.82 1529.19,1228.13 1533.4,1235.19 1537.62,1242 1541.83,1248.56 1546.05,1254.89 1550.26,1260.98 1554.48,1266.84 1558.69,1272.49 
  1562.91,1277.91 1567.12,1283.12 1571.34,1288.12 1575.55,1292.93 1579.77,1297.53 1583.98,1301.95 1588.2,1306.17 1592.41,1310.22 1596.63,1314.1 1600.84,1317.8 
  1605.06,1321.34 1609.27,1324.72 1613.49,1327.95 1617.7,1331.03 1621.92,1333.96 1626.13,1336.76 1630.35,1339.42 1634.56,1341.96 1638.78,1344.37 1642.99,1346.67 
  1647.21,1348.84 1651.42,1350.91 1655.64,1352.88 1659.85,1354.74 1664.06,1356.51 1668.28,1358.18 1672.49,1359.77 1676.71,1361.27 1680.92,1362.68 1685.14,1364.03 
  1689.35,1365.29 1693.57,1366.49 1697.78,1367.62 1702,1368.68 1706.21,1369.69 1710.43,1370.64 1714.64,1371.53 1718.86,1372.37 1723.07,1373.15 1727.29,1373.9 
  1731.5,1374.59 1735.72,1375.25 1739.93,1375.86 1744.15,1376.44 1748.36,1376.98 1752.58,1377.48 1756.79,1377.96 1761.01,1378.4 1765.22,1378.82 1769.44,1379.2 
  1773.65,1379.57 1777.87,1379.91 1782.08,1380.22 1786.3,1380.52 1790.51,1380.79 1794.73,1381.05 1798.94,1381.29 1803.16,1381.51 1807.37,1381.72 1811.58,1381.91 
  1815.8,1382.09 1820.01,1382.25 1824.23,1382.41 1828.44,1382.55 1832.66,1382.68 1836.87,1382.8 1841.09,1382.92 1845.3,1383.02 1849.52,1383.12 1853.73,1383.21 
  1857.95,1383.3 1862.16,1383.37 1866.38,1383.44 1870.59,1383.51 1874.81,1383.57 1879.02,1383.63 1883.24,1383.68 1887.45,1383.72 1891.67,1383.77 1895.88,1383.81 
  1900.1,1383.85 1904.31,1383.88 1908.53,1383.91 1912.74,1383.94 1916.96,1383.97 1921.17,1383.99 1925.39,1384.01 1929.6,1384.03 1933.82,1384.05 1938.03,1384.07 
  1942.25,1384.08 1946.46,1384.1 1950.68,1384.11 1954.89,1384.12 1959.1,1384.13 1963.32,1384.14 1967.53,1384.15 1971.75,1384.16 1975.96,1384.17 1980.18,1384.17 
  1984.39,1384.18 1988.61,1384.19 1992.82,1384.19 1997.04,1384.19 2001.25,1384.2 2005.47,1384.2 2009.68,1384.21 2013.9,1384.21 2018.11,1384.21 2022.33,1384.21 
  2026.54,1384.22 2030.76,1384.22 2034.97,1384.22 2039.19,1384.22 2043.4,1384.22 2047.62,1384.23 2051.83,1384.23 2056.05,1384.23 2060.26,1384.23 2064.48,1384.23 
  2068.69,1384.23 2072.91,1384.23 2077.12,1384.23 2081.34,1384.23 2085.55,1384.23 2089.77,1384.23 2093.98,1384.23 2098.2,1384.23 2102.41,1384.24 2106.62,1384.24 
  2110.84,1384.24 2115.05,1384.24 2119.27,1384.24 2123.48,1384.24 2127.7,1384.24 2131.91,1384.24 2136.13,1384.24 2140.34,1384.24 2144.56,1384.24 2148.77,1384.24 
  2152.99,1384.24 2157.2,1384.24 2161.42,1384.24 2165.63,1384.24 2169.85,1384.24 2174.06,1384.24 2178.28,1384.24 2182.49,1384.24 2186.71,1384.24 2190.92,1384.24 
  2195.14,1384.24 
  "/>
<polyline clip-path="url(#clip022)" style="stroke:#3da44d; stroke-width:12; stroke-opacity:1; fill:none" points="
  298.45,1384.24 302.665,1384.24 306.88,1384.24 311.095,1384.24 315.31,1384.24 319.525,1384.24 323.739,1384.24 327.954,1384.24 332.169,1384.24 336.384,1384.24 
  340.599,1384.24 344.814,1384.24 349.029,1384.24 353.243,1384.24 357.458,1384.24 361.673,1384.24 365.888,1384.24 370.103,1384.24 374.318,1384.23 378.533,1384.23 
  382.747,1384.23 386.962,1384.23 391.177,1384.23 395.392,1384.23 399.607,1384.22 403.822,1384.22 408.037,1384.22 412.252,1384.21 416.466,1384.21 420.681,1384.2 
  424.896,1384.2 429.111,1384.19 433.326,1384.18 437.541,1384.17 441.756,1384.16 445.97,1384.15 450.185,1384.13 454.4,1384.11 458.615,1384.09 462.83,1384.07 
  467.045,1384.04 471.26,1384.01 475.474,1383.97 479.689,1383.93 483.904,1383.88 488.119,1383.83 492.334,1383.77 496.549,1383.7 500.764,1383.62 504.978,1383.54 
  509.193,1383.44 513.408,1383.33 517.623,1383.21 521.838,1383.07 526.053,1382.92 530.268,1382.75 534.482,1382.56 538.697,1382.35 542.912,1382.12 547.127,1381.86 
  551.342,1381.58 555.557,1381.26 559.772,1380.92 563.986,1380.54 568.201,1380.12 572.416,1379.66 576.631,1379.16 580.846,1378.61 585.061,1378.01 589.276,1377.35 
  593.49,1376.64 597.705,1375.86 601.92,1375.02 606.135,1374.1 610.35,1373.11 614.565,1372.03 618.78,1370.87 622.994,1369.61 627.209,1368.26 631.424,1366.8 
  635.639,1365.24 639.854,1363.55 644.069,1361.74 648.284,1359.81 652.498,1357.73 656.713,1355.51 660.928,1353.15 665.143,1350.62 669.358,1347.92 673.573,1345.06 
  677.788,1342.01 682.003,1338.77 686.217,1335.34 690.432,1331.7 694.647,1327.84 698.862,1323.77 703.077,1319.46 707.292,1314.92 711.507,1310.13 715.721,1305.09 
  719.936,1299.78 724.151,1294.21 728.366,1288.35 732.581,1282.21 736.796,1275.78 741.011,1269.05 745.225,1262.02 749.44,1254.67 753.655,1247 757.87,1239 
  762.085,1230.68 766.3,1222.02 770.515,1213.01 774.729,1203.67 778.944,1193.97 783.159,1183.92 787.374,1173.51 791.589,1162.75 795.804,1151.63 800.019,1140.15 
  804.233,1128.31 808.448,1116.1 812.663,1103.54 816.878,1090.62 821.093,1077.35 825.308,1063.73 829.523,1049.75 833.737,1035.44 837.952,1020.79 842.167,1005.8 
  846.382,990.496 850.597,974.872 854.812,958.942 859.027,942.713 863.241,926.198 867.456,909.406 871.671,892.35 875.886,875.042 880.101,857.496 884.316,839.727 
  888.531,821.749 892.745,803.577 896.96,785.229 901.175,766.721 905.39,748.071 909.605,729.297 913.82,710.418 918.035,691.454 922.249,672.425 926.464,653.351 
  930.679,634.252 934.894,615.151 939.109,596.068 943.324,577.026 947.539,558.047 951.754,539.153 955.968,520.367 960.183,501.711 964.398,483.209 968.613,464.883 
  972.828,446.756 977.043,428.85 981.258,411.188 985.472,393.794 989.687,376.688 993.902,359.892 998.117,343.429 1002.33,327.32 1006.55,311.584 1010.76,296.244 
  1014.98,281.317 1019.19,266.825 1023.41,252.785 1027.62,239.216 1031.84,226.134 1036.05,213.557 1040.27,201.501 1044.48,189.98 1048.7,179.009 1052.91,168.602 
  1057.12,158.771 1061.34,149.527 1065.55,140.883 1069.77,132.847 1073.98,125.429 1078.2,118.637 1082.41,112.477 1086.63,106.957 1090.84,102.08 1095.06,97.8504 
  1099.27,94.2724 1103.49,91.3474 1107.7,89.0766 1111.92,87.4601 1116.13,86.4971 1120.35,86.1857 1124.56,86.5231 1128.78,87.5055 1132.99,89.1284 1137.21,91.3862 
  1141.42,94.2724 1145.64,97.7797 1149.85,101.9 1154.07,106.624 1158.28,111.943 1162.5,117.845 1166.71,124.321 1170.93,131.356 1175.14,138.94 1179.36,147.059 
  1183.57,155.699 1187.79,164.846 1192,174.485 1196.22,184.601 1200.43,195.177 1204.65,206.198 1208.86,217.648 1213.07,229.508 1217.29,241.763 1221.5,254.394 
  1225.72,267.385 1229.93,280.716 1234.15,294.371 1238.36,308.33 1242.58,322.577 1246.79,337.092 1251.01,351.857 1255.22,366.855 1259.44,382.067 1263.65,397.475 
  1267.87,413.061 1272.08,428.808 1276.3,444.697 1280.51,460.712 1284.73,476.835 1288.94,493.05 1293.16,509.339 1297.37,525.687 1301.59,542.078 1305.8,558.495 
  1310.02,574.924 1314.23,591.35 1318.45,607.758 1322.66,624.134 1326.88,640.465 1331.09,656.737 1335.31,672.938 1339.52,689.055 1343.74,705.076 1347.95,720.991 
  1352.17,736.787 1356.38,752.455 1360.59,767.984 1364.81,783.366 1369.02,798.59 1373.24,813.649 1377.45,828.535 1381.67,843.24 1385.88,857.756 1390.1,872.078 
  1394.31,886.199 1398.53,900.113 1402.74,913.815 1406.96,927.301 1411.17,940.566 1415.39,953.605 1419.6,966.416 1423.82,978.996 1428.03,991.341 1432.25,1003.45 
  1436.46,1015.32 1440.68,1026.95 1444.89,1038.34 1449.11,1049.49 1453.32,1060.39 1457.54,1071.05 1461.75,1081.47 1465.97,1091.64 1470.18,1101.58 1474.4,1111.27 
  1478.61,1120.73 1482.83,1129.94 1487.04,1138.92 1491.26,1147.66 1495.47,1156.18 1499.69,1164.46 1503.9,1172.51 1508.11,1180.34 1512.33,1187.95 1516.54,1195.33 
  1520.76,1202.51 1524.97,1209.46 1529.19,1216.21 1533.4,1222.75 1537.62,1229.09 1541.83,1235.23 1546.05,1241.18 1550.26,1246.93 1554.48,1252.5 1558.69,1257.88 
  1562.91,1263.08 1567.12,1268.11 1571.34,1272.96 1575.55,1277.65 1579.77,1282.17 1583.98,1286.53 1588.2,1290.74 1592.41,1294.79 1596.63,1298.69 1600.84,1302.45 
  1605.06,1306.07 1609.27,1309.56 1613.49,1312.91 1617.7,1316.13 1621.92,1319.23 1626.13,1322.2 1630.35,1325.06 1634.56,1327.8 1638.78,1330.44 1642.99,1332.96 
  1647.21,1335.39 1651.42,1337.71 1655.64,1339.93 1659.85,1342.07 1664.06,1344.11 1668.28,1346.06 1672.49,1347.93 1676.71,1349.72 1680.92,1351.43 1685.14,1353.07 
  1689.35,1354.63 1693.57,1356.12 1697.78,1357.55 1702,1358.91 1706.21,1360.21 1710.43,1361.45 1714.64,1362.63 1718.86,1363.75 1723.07,1364.83 1727.29,1365.85 
  1731.5,1366.82 1735.72,1367.75 1739.93,1368.63 1744.15,1369.47 1748.36,1370.27 1752.58,1371.03 1756.79,1371.75 1761.01,1372.43 1765.22,1373.08 1769.44,1373.7 
  1773.65,1374.29 1777.87,1374.84 1782.08,1375.37 1786.3,1375.87 1790.51,1376.34 1794.73,1376.79 1798.94,1377.22 1803.16,1377.62 1807.37,1378.01 1811.58,1378.37 
  1815.8,1378.71 1820.01,1379.03 1824.23,1379.34 1828.44,1379.63 1832.66,1379.9 1836.87,1380.16 1841.09,1380.4 1845.3,1380.63 1849.52,1380.85 1853.73,1381.06 
  1857.95,1381.25 1862.16,1381.43 1866.38,1381.6 1870.59,1381.77 1874.81,1381.92 1879.02,1382.06 1883.24,1382.2 1887.45,1382.33 1891.67,1382.45 1895.88,1382.56 
  1900.1,1382.67 1904.31,1382.77 1908.53,1382.86 1912.74,1382.95 1916.96,1383.03 1921.17,1383.11 1925.39,1383.18 1929.6,1383.25 1933.82,1383.31 1938.03,1383.37 
  1942.25,1383.43 1946.46,1383.48 1950.68,1383.53 1954.89,1383.58 1959.1,1383.63 1963.32,1383.67 1967.53,1383.7 1971.75,1383.74 1975.96,1383.77 1980.18,1383.81 
  1984.39,1383.83 1988.61,1383.86 1992.82,1383.89 1997.04,1383.91 2001.25,1383.93 2005.47,1383.96 2009.68,1383.98 2013.9,1383.99 2018.11,1384.01 2022.33,1384.03 
  2026.54,1384.04 2030.76,1384.06 2034.97,1384.07 2039.19,1384.08 2043.4,1384.09 2047.62,1384.1 2051.83,1384.11 2056.05,1384.12 2060.26,1384.13 2064.48,1384.14 
  2068.69,1384.14 2072.91,1384.15 2077.12,1384.16 2081.34,1384.16 2085.55,1384.17 2089.77,1384.17 2093.98,1384.18 2098.2,1384.18 2102.41,1384.19 2106.62,1384.19 
  2110.84,1384.19 2115.05,1384.2 2119.27,1384.2 2123.48,1384.2 2127.7,1384.21 2131.91,1384.21 2136.13,1384.21 2140.34,1384.21 2144.56,1384.22 2148.77,1384.22 
  2152.99,1384.22 2157.2,1384.22 2161.42,1384.22 2165.63,1384.22 2169.85,1384.22 2174.06,1384.23 2178.28,1384.23 2182.49,1384.23 2186.71,1384.23 2190.92,1384.23 
  2195.14,1384.23 
  "/>
<path clip-path="url(#clip020)" d="
M1810.62 335.029 L2282.28 335.029 L2282.28 93.1086 L1810.62 93.1086  Z
  " fill="#ffffff" fill-rule="evenodd" fill-opacity="1"/>
<polyline clip-path="url(#clip020)" style="stroke:#000000; stroke-width:4; stroke-opacity:1; fill:none" points="
  1810.62,335.029 2282.28,335.029 2282.28,93.1086 1810.62,93.1086 1810.62,335.029 
  "/>
<path clip-path="url(#clip020)" d="
M1834.11 177.781 L1975.06 177.781 L1975.06 129.397 L1834.11 129.397 L1834.11 177.781  Z
  " fill="#009af9" fill-rule="evenodd" fill-opacity="1"/>
<polyline clip-path="url(#clip020)" style="stroke:#009af9; stroke-width:4; stroke-opacity:1; fill:none" points="
  1834.11,177.781 1975.06,177.781 1975.06,129.397 1834.11,129.397 1834.11,177.781 
  "/>
<path clip-path="url(#clip020)" d="M 0 0 M2012.39 173.276 Q2010.58 177.906 2008.87 179.318 Q2007.16 180.73 2004.29 180.73 L2000.88 180.73 L2000.88 177.165 L2003.38 177.165 Q2005.14 177.165 2006.12 176.332 Q2007.09 175.498 2008.27 172.396 L2009.03 170.452 L1998.55 144.943 L2003.06 144.943 L2011.16 165.221 L2019.26 144.943 L2023.78 144.943 L2012.39 173.276 Z" fill="#000000" fill-rule="evenodd" fill-opacity="1" /><path clip-path="url(#clip020)" d="M 0 0 M2029.66 166.933 L2037.3 166.933 L2037.3 140.568 L2028.99 142.235 L2028.99 137.975 L2037.25 136.309 L2041.93 136.309 L2041.93 166.933 L2049.56 166.933 L2049.56 170.869 L2029.66 170.869 L2029.66 166.933 Z" fill="#000000" fill-rule="evenodd" fill-opacity="1" /><polyline clip-path="url(#clip020)" style="stroke:#e26f46; stroke-width:4; stroke-opacity:1; fill:none" points="
  1834.11,214.069 1975.06,214.069 
  "/>
<path clip-path="url(#clip020)" d="M 0 0 M2017.46 218.085 Q2017.46 213.455 2015.54 210.909 Q2013.64 208.363 2010.19 208.363 Q2006.76 208.363 2004.84 210.909 Q2002.94 213.455 2002.94 218.085 Q2002.94 222.691 2004.84 225.238 Q2006.76 227.784 2010.19 227.784 Q2013.64 227.784 2015.54 225.238 Q2017.46 222.691 2017.46 218.085 M2021.72 228.131 Q2021.72 234.751 2018.78 237.969 Q2015.84 241.21 2009.77 241.21 Q2007.53 241.21 2005.54 240.862 Q2003.55 240.538 2001.67 239.844 L2001.67 235.7 Q2003.55 236.719 2005.37 237.205 Q2007.2 237.691 2009.1 237.691 Q2013.29 237.691 2015.37 235.492 Q2017.46 233.316 2017.46 228.895 L2017.46 226.788 Q2016.14 229.08 2014.08 230.214 Q2012.02 231.349 2009.15 231.349 Q2004.38 231.349 2001.46 227.714 Q1998.55 224.08 1998.55 218.085 Q1998.55 212.066 2001.46 208.432 Q2004.38 204.798 2009.15 204.798 Q2012.02 204.798 2014.08 205.932 Q2016.14 207.066 2017.46 209.358 L2017.46 205.423 L2021.72 205.423 L2021.72 228.131 Z" fill="#000000" fill-rule="evenodd" fill-opacity="1" /><path clip-path="url(#clip020)" d="M 0 0 M2037.97 218.316 Q2032.8 218.316 2030.81 219.497 Q2028.82 220.677 2028.82 223.525 Q2028.82 225.793 2030.3 227.136 Q2031.81 228.455 2034.38 228.455 Q2037.92 228.455 2040.05 225.955 Q2042.2 223.432 2042.2 219.265 L2042.2 218.316 L2037.97 218.316 M2046.46 216.557 L2046.46 231.349 L2042.2 231.349 L2042.2 227.413 Q2040.74 229.775 2038.57 230.909 Q2036.39 232.02 2033.24 232.02 Q2029.26 232.02 2026.9 229.798 Q2024.56 227.552 2024.56 223.802 Q2024.56 219.427 2027.48 217.205 Q2030.42 214.983 2036.23 214.983 L2042.2 214.983 L2042.2 214.566 Q2042.2 211.627 2040.26 210.029 Q2038.34 208.409 2034.84 208.409 Q2032.62 208.409 2030.51 208.941 Q2028.41 209.474 2026.46 210.539 L2026.46 206.603 Q2028.8 205.701 2031 205.261 Q2033.2 204.798 2035.28 204.798 Q2040.91 204.798 2043.68 207.714 Q2046.46 210.631 2046.46 216.557 Z" fill="#000000" fill-rule="evenodd" fill-opacity="1" /><path clip-path="url(#clip020)" d="M 0 0 M2050.49 221.117 L2050.49 205.423 L2054.75 205.423 L2054.75 220.955 Q2054.75 224.636 2056.18 226.488 Q2057.62 228.316 2060.49 228.316 Q2063.94 228.316 2065.93 226.117 Q2067.94 223.918 2067.94 220.122 L2067.94 205.423 L2072.2 205.423 L2072.2 231.349 L2067.94 231.349 L2067.94 227.367 Q2066.39 229.728 2064.33 230.886 Q2062.3 232.02 2059.59 232.02 Q2055.12 232.02 2052.8 229.242 Q2050.49 226.464 2050.49 221.117 M2061.21 204.798 L2061.21 204.798 Z" fill="#000000" fill-rule="evenodd" fill-opacity="1" /><path clip-path="url(#clip020)" d="M 0 0 M2093.2 206.187 L2093.2 210.214 Q2091.39 209.289 2089.45 208.826 Q2087.5 208.363 2085.42 208.363 Q2082.25 208.363 2080.65 209.335 Q2079.08 210.307 2079.08 212.251 Q2079.08 213.733 2080.21 214.589 Q2081.35 215.423 2084.77 216.187 L2086.23 216.511 Q2090.77 217.483 2092.67 219.265 Q2094.59 221.025 2094.59 224.196 Q2094.59 227.807 2091.72 229.913 Q2088.87 232.02 2083.87 232.02 Q2081.79 232.02 2079.52 231.603 Q2077.27 231.21 2074.77 230.4 L2074.77 226.001 Q2077.13 227.228 2079.42 227.853 Q2081.72 228.455 2083.96 228.455 Q2086.97 228.455 2088.59 227.437 Q2090.21 226.395 2090.21 224.52 Q2090.21 222.784 2089.03 221.858 Q2087.87 220.932 2083.92 220.076 L2082.43 219.728 Q2078.48 218.895 2076.72 217.182 Q2074.96 215.446 2074.96 212.437 Q2074.96 208.779 2077.55 206.789 Q2080.14 204.798 2084.91 204.798 Q2087.27 204.798 2089.36 205.145 Q2091.44 205.492 2093.2 206.187 Z" fill="#000000" fill-rule="evenodd" fill-opacity="1" /><path clip-path="url(#clip020)" d="M 0 0 M2115.58 206.187 L2115.58 210.214 Q2113.78 209.289 2111.83 208.826 Q2109.89 208.363 2107.8 208.363 Q2104.63 208.363 2103.04 209.335 Q2101.46 210.307 2101.46 212.251 Q2101.46 213.733 2102.6 214.589 Q2103.73 215.423 2107.16 216.187 L2108.61 216.511 Q2113.15 217.483 2115.05 219.265 Q2116.97 221.025 2116.97 224.196 Q2116.97 227.807 2114.1 229.913 Q2111.25 232.02 2106.25 232.02 Q2104.17 232.02 2101.9 231.603 Q2099.66 231.21 2097.16 230.4 L2097.16 226.001 Q2099.52 227.228 2101.81 227.853 Q2104.1 228.455 2106.35 228.455 Q2109.36 228.455 2110.98 227.437 Q2112.6 226.395 2112.6 224.52 Q2112.6 222.784 2111.42 221.858 Q2110.26 220.932 2106.3 220.076 L2104.82 219.728 Q2100.86 218.895 2099.1 217.182 Q2097.34 215.446 2097.34 212.437 Q2097.34 208.779 2099.93 206.789 Q2102.53 204.798 2107.3 204.798 Q2109.66 204.798 2111.74 205.145 Q2113.82 205.492 2115.58 206.187 Z" fill="#000000" fill-rule="evenodd" fill-opacity="1" /><path clip-path="url(#clip020)" d="M 0 0 M2121.44 205.423 L2125.7 205.423 L2125.7 231.349 L2121.44 231.349 L2121.44 205.423 M2121.44 195.33 L2125.7 195.33 L2125.7 200.724 L2121.44 200.724 L2121.44 195.33 Z" fill="#000000" fill-rule="evenodd" fill-opacity="1" /><path clip-path="url(#clip020)" d="M 0 0 M2141.95 218.316 Q2136.79 218.316 2134.79 219.497 Q2132.8 220.677 2132.8 223.525 Q2132.8 225.793 2134.29 227.136 Q2135.79 228.455 2138.36 228.455 Q2141.9 228.455 2144.03 225.955 Q2146.18 223.432 2146.18 219.265 L2146.18 218.316 L2141.95 218.316 M2150.44 216.557 L2150.44 231.349 L2146.18 231.349 L2146.18 227.413 Q2144.73 229.775 2142.55 230.909 Q2140.37 232.02 2137.23 232.02 Q2133.24 232.02 2130.88 229.798 Q2128.55 227.552 2128.55 223.802 Q2128.55 219.427 2131.46 217.205 Q2134.4 214.983 2140.21 214.983 L2146.18 214.983 L2146.18 214.566 Q2146.18 211.627 2144.24 210.029 Q2142.32 208.409 2138.82 208.409 Q2136.6 208.409 2134.49 208.941 Q2132.39 209.474 2130.44 210.539 L2130.44 206.603 Q2132.78 205.701 2134.98 205.261 Q2137.18 204.798 2139.26 204.798 Q2144.89 204.798 2147.67 207.714 Q2150.44 210.631 2150.44 216.557 Z" fill="#000000" fill-rule="evenodd" fill-opacity="1" /><path clip-path="url(#clip020)" d="M 0 0 M2176.46 215.701 L2176.46 231.349 L2172.2 231.349 L2172.2 215.839 Q2172.2 212.159 2170.77 210.33 Q2169.33 208.502 2166.46 208.502 Q2163.01 208.502 2161.02 210.701 Q2159.03 212.9 2159.03 216.696 L2159.03 231.349 L2154.75 231.349 L2154.75 205.423 L2159.03 205.423 L2159.03 209.451 Q2160.56 207.113 2162.62 205.955 Q2164.7 204.798 2167.41 204.798 Q2171.88 204.798 2174.17 207.576 Q2176.46 210.33 2176.46 215.701 Z" fill="#000000" fill-rule="evenodd" fill-opacity="1" /><path clip-path="url(#clip020)" d="M 0 0 M2209.12 195.33 L2209.12 198.872 L2205.05 198.872 Q2202.76 198.872 2201.85 199.798 Q2200.98 200.724 2200.98 203.131 L2200.98 205.423 L2207.99 205.423 L2207.99 208.733 L2200.98 208.733 L2200.98 231.349 L2196.69 231.349 L2196.69 208.733 L2192.62 208.733 L2192.62 205.423 L2196.69 205.423 L2196.69 203.617 Q2196.69 199.289 2198.71 197.321 Q2200.72 195.33 2205.1 195.33 L2209.12 195.33 Z" fill="#000000" fill-rule="evenodd" fill-opacity="1" /><path clip-path="url(#clip020)" d="M 0 0 M2213.59 205.423 L2217.85 205.423 L2217.85 231.349 L2213.59 231.349 L2213.59 205.423 M2213.59 195.33 L2217.85 195.33 L2217.85 200.724 L2213.59 200.724 L2213.59 195.33 Z" fill="#000000" fill-rule="evenodd" fill-opacity="1" /><path clip-path="url(#clip020)" d="M 0 0 M2226.53 198.062 L2226.53 205.423 L2235.3 205.423 L2235.3 208.733 L2226.53 208.733 L2226.53 222.807 Q2226.53 225.978 2227.39 226.881 Q2228.27 227.784 2230.93 227.784 L2235.3 227.784 L2235.3 231.349 L2230.93 231.349 Q2226 231.349 2224.12 229.52 Q2222.25 227.668 2222.25 222.807 L2222.25 208.733 L2219.12 208.733 L2219.12 205.423 L2222.25 205.423 L2222.25 198.062 L2226.53 198.062 Z" fill="#000000" fill-rule="evenodd" fill-opacity="1" /><polyline clip-path="url(#clip020)" style="stroke:#3da44d; stroke-width:4; stroke-opacity:1; fill:none" points="
  1834.11,274.549 1975.06,274.549 
  "/>
<path clip-path="url(#clip020)" d="M 0 0 M2002.83 287.94 L2002.83 301.69 L1998.55 301.69 L1998.55 265.903 L2002.83 265.903 L2002.83 269.838 Q2004.17 267.523 2006.21 266.412 Q2008.27 265.278 2011.12 265.278 Q2015.84 265.278 2018.78 269.028 Q2021.74 272.778 2021.74 278.889 Q2021.74 285 2018.78 288.75 Q2015.84 292.5 2011.12 292.5 Q2008.27 292.5 2006.21 291.389 Q2004.17 290.255 2002.83 287.94 M2017.32 278.889 Q2017.32 274.19 2015.37 271.528 Q2013.45 268.843 2010.07 268.843 Q2006.69 268.843 2004.75 271.528 Q2002.83 274.19 2002.83 278.889 Q2002.83 283.588 2004.75 286.273 Q2006.69 288.935 2010.07 288.935 Q2013.45 288.935 2015.37 286.273 Q2017.32 283.588 2017.32 278.889 Z" fill="#000000" fill-rule="evenodd" fill-opacity="1" /><path clip-path="url(#clip020)" d="M 0 0 M2036.25 268.889 Q2032.83 268.889 2030.84 271.574 Q2028.85 274.236 2028.85 278.889 Q2028.85 283.542 2030.81 286.227 Q2032.8 288.889 2036.25 288.889 Q2039.66 288.889 2041.65 286.204 Q2043.64 283.518 2043.64 278.889 Q2043.64 274.282 2041.65 271.597 Q2039.66 268.889 2036.25 268.889 M2036.25 265.278 Q2041.81 265.278 2044.98 268.889 Q2048.15 272.5 2048.15 278.889 Q2048.15 285.255 2044.98 288.889 Q2041.81 292.5 2036.25 292.5 Q2030.68 292.5 2027.5 288.889 Q2024.36 285.255 2024.36 278.889 Q2024.36 272.5 2027.5 268.889 Q2030.68 265.278 2036.25 265.278 Z" fill="#000000" fill-rule="evenodd" fill-opacity="1" /><path clip-path="url(#clip020)" d="M 0 0 M2052.62 265.903 L2056.88 265.903 L2056.88 291.829 L2052.62 291.829 L2052.62 265.903 M2052.62 255.81 L2056.88 255.81 L2056.88 261.204 L2052.62 261.204 L2052.62 255.81 Z" fill="#000000" fill-rule="evenodd" fill-opacity="1" /><path clip-path="url(#clip020)" d="M 0 0 M2077.87 266.667 L2077.87 270.694 Q2076.07 269.769 2074.12 269.306 Q2072.18 268.843 2070.1 268.843 Q2066.92 268.843 2065.33 269.815 Q2063.75 270.787 2063.75 272.731 Q2063.75 274.213 2064.89 275.069 Q2066.02 275.903 2069.45 276.667 L2070.91 276.991 Q2075.44 277.963 2077.34 279.745 Q2079.26 281.505 2079.26 284.676 Q2079.26 288.287 2076.39 290.393 Q2073.55 292.5 2068.55 292.5 Q2066.46 292.5 2064.19 292.083 Q2061.95 291.69 2059.45 290.88 L2059.45 286.481 Q2061.81 287.708 2064.1 288.333 Q2066.39 288.935 2068.64 288.935 Q2071.65 288.935 2073.27 287.917 Q2074.89 286.875 2074.89 285 Q2074.89 283.264 2073.71 282.338 Q2072.55 281.412 2068.59 280.556 L2067.11 280.208 Q2063.15 279.375 2061.39 277.662 Q2059.63 275.926 2059.63 272.917 Q2059.63 269.259 2062.23 267.269 Q2064.82 265.278 2069.59 265.278 Q2071.95 265.278 2074.03 265.625 Q2076.11 265.972 2077.87 266.667 Z" fill="#000000" fill-rule="evenodd" fill-opacity="1" /><path clip-path="url(#clip020)" d="M 0 0 M2100.26 266.667 L2100.26 270.694 Q2098.45 269.769 2096.51 269.306 Q2094.56 268.843 2092.48 268.843 Q2089.31 268.843 2087.71 269.815 Q2086.14 270.787 2086.14 272.731 Q2086.14 274.213 2087.27 275.069 Q2088.41 275.903 2091.83 276.667 L2093.29 276.991 Q2097.83 277.963 2099.73 279.745 Q2101.65 281.505 2101.65 284.676 Q2101.65 288.287 2098.78 290.393 Q2095.93 292.5 2090.93 292.5 Q2088.85 292.5 2086.58 292.083 Q2084.33 291.69 2081.83 290.88 L2081.83 286.481 Q2084.19 287.708 2086.49 288.333 Q2088.78 288.935 2091.02 288.935 Q2094.03 288.935 2095.65 287.917 Q2097.27 286.875 2097.27 285 Q2097.27 283.264 2096.09 282.338 Q2094.93 281.412 2090.98 280.556 L2089.49 280.208 Q2085.54 279.375 2083.78 277.662 Q2082.02 275.926 2082.02 272.917 Q2082.02 269.259 2084.61 267.269 Q2087.2 265.278 2091.97 265.278 Q2094.33 265.278 2096.42 265.625 Q2098.5 265.972 2100.26 266.667 Z" fill="#000000" fill-rule="evenodd" fill-opacity="1" /><path clip-path="url(#clip020)" d="M 0 0 M2116.16 268.889 Q2112.73 268.889 2110.74 271.574 Q2108.75 274.236 2108.75 278.889 Q2108.75 283.542 2110.72 286.227 Q2112.71 288.889 2116.16 288.889 Q2119.56 288.889 2121.55 286.204 Q2123.55 283.518 2123.55 278.889 Q2123.55 274.282 2121.55 271.597 Q2119.56 268.889 2116.16 268.889 M2116.16 265.278 Q2121.72 265.278 2124.89 268.889 Q2128.06 272.5 2128.06 278.889 Q2128.06 285.255 2124.89 288.889 Q2121.72 292.5 2116.16 292.5 Q2110.58 292.5 2107.41 288.889 Q2104.26 285.255 2104.26 278.889 Q2104.26 272.5 2107.41 268.889 Q2110.58 265.278 2116.16 265.278 Z" fill="#000000" fill-rule="evenodd" fill-opacity="1" /><path clip-path="url(#clip020)" d="M 0 0 M2154.08 276.181 L2154.08 291.829 L2149.82 291.829 L2149.82 276.319 Q2149.82 272.639 2148.38 270.81 Q2146.95 268.982 2144.08 268.982 Q2140.63 268.982 2138.64 271.181 Q2136.65 273.38 2136.65 277.176 L2136.65 291.829 L2132.36 291.829 L2132.36 265.903 L2136.65 265.903 L2136.65 269.931 Q2138.17 267.593 2140.23 266.435 Q2142.32 265.278 2145.03 265.278 Q2149.49 265.278 2151.79 268.056 Q2154.08 270.81 2154.08 276.181 Z" fill="#000000" fill-rule="evenodd" fill-opacity="1" /><path clip-path="url(#clip020)" d="M 0 0 M2186.74 255.81 L2186.74 259.352 L2182.67 259.352 Q2180.37 259.352 2179.47 260.278 Q2178.59 261.204 2178.59 263.611 L2178.59 265.903 L2185.6 265.903 L2185.6 269.213 L2178.59 269.213 L2178.59 291.829 L2174.31 291.829 L2174.31 269.213 L2170.23 269.213 L2170.23 265.903 L2174.31 265.903 L2174.31 264.097 Q2174.31 259.769 2176.32 257.801 Q2178.34 255.81 2182.71 255.81 L2186.74 255.81 Z" fill="#000000" fill-rule="evenodd" fill-opacity="1" /><path clip-path="url(#clip020)" d="M 0 0 M2191.21 265.903 L2195.47 265.903 L2195.47 291.829 L2191.21 291.829 L2191.21 265.903 M2191.21 255.81 L2195.47 255.81 L2195.47 261.204 L2191.21 261.204 L2191.21 255.81 Z" fill="#000000" fill-rule="evenodd" fill-opacity="1" /><path clip-path="url(#clip020)" d="M 0 0 M2204.15 258.542 L2204.15 265.903 L2212.92 265.903 L2212.92 269.213 L2204.15 269.213 L2204.15 283.287 Q2204.15 286.458 2205 287.361 Q2205.88 288.264 2208.54 288.264 L2212.92 288.264 L2212.92 291.829 L2208.54 291.829 Q2203.61 291.829 2201.74 290 Q2199.86 288.148 2199.86 283.287 L2199.86 269.213 L2196.74 269.213 L2196.74 265.903 L2199.86 265.903 L2199.86 258.542 L2204.15 258.542 Z" fill="#000000" fill-rule="evenodd" fill-opacity="1" /></svg>
