<?xml version="1.0" encoding="utf-8"?>
<svg xmlns="http://www.w3.org/2000/svg" xmlns:xlink="http://www.w3.org/1999/xlink" width="600" height="400" viewBox="0 0 2400 1600">
<defs>
  <clipPath id="clip780">
    <rect x="0" y="0" width="2400" height="1600"/>
  </clipPath>
</defs>
<path clip-path="url(#clip780)" d="
M0 1600 L2400 1600 L2400 0 L0 0  Z
  " fill="#ffffff" fill-rule="evenodd" fill-opacity="1"/>
<defs>
  <clipPath id="clip781">
    <rect x="480" y="0" width="1681" height="1600"/>
  </clipPath>
</defs>
<defs>
  <clipPath id="clip782">
    <rect x="344" y="47" width="2010" height="1397"/>
  </clipPath>
</defs>
<path clip-path="url(#clip780)" d="
M344.208 1443.01 L2352.76 1443.01 L2352.76 47.2441 L344.208 47.2441  Z
  " fill="#ffffff" fill-rule="evenodd" fill-opacity="1"/>
<polyline clip-path="url(#clip780)" style="stroke:#000000; stroke-linecap:butt; stroke-linejoin:round; stroke-width:4; stroke-opacity:1; fill:none" points="
  344.208,1443.01 2352.76,1443.01 
  "/>
<polyline clip-path="url(#clip780)" style="stroke:#000000; stroke-linecap:butt; stroke-linejoin:round; stroke-width:4; stroke-opacity:1; fill:none" points="
  629.743,1443.01 629.743,1424.11 
  "/>
<polyline clip-path="url(#clip780)" style="stroke:#000000; stroke-linecap:butt; stroke-linejoin:round; stroke-width:4; stroke-opacity:1; fill:none" points="
  1174.24,1443.01 1174.24,1424.11 
  "/>
<polyline clip-path="url(#clip780)" style="stroke:#000000; stroke-linecap:butt; stroke-linejoin:round; stroke-width:4; stroke-opacity:1; fill:none" points="
  1718.74,1443.01 1718.74,1424.11 
  "/>
<polyline clip-path="url(#clip780)" style="stroke:#000000; stroke-linecap:butt; stroke-linejoin:round; stroke-width:4; stroke-opacity:1; fill:none" points="
  2263.24,1443.01 2263.24,1424.11 
  "/>
<path clip-path="url(#clip780)" d="M604.442 1469.12 L622.799 1469.12 L622.799 1473.06 L608.725 1473.06 L608.725 1481.53 Q609.743 1481.18 610.762 1481.02 Q611.78 1480.84 612.799 1480.84 Q618.586 1480.84 621.965 1484.01 Q625.345 1487.18 625.345 1492.6 Q625.345 1498.18 621.873 1501.28 Q618.401 1504.36 612.081 1504.36 Q609.905 1504.36 607.637 1503.99 Q605.391 1503.61 602.984 1502.87 L602.984 1498.18 Q605.067 1499.31 607.29 1499.86 Q609.512 1500.42 611.989 1500.42 Q615.993 1500.42 618.331 1498.31 Q620.669 1496.21 620.669 1492.6 Q620.669 1488.99 618.331 1486.88 Q615.993 1484.77 611.989 1484.77 Q610.114 1484.77 608.239 1485.19 Q606.387 1485.61 604.442 1486.49 L604.442 1469.12 Z" fill="#000000" fill-rule="evenodd" fill-opacity="1" /><path clip-path="url(#clip780)" d="M644.558 1472.2 Q640.947 1472.2 639.118 1475.77 Q637.313 1479.31 637.313 1486.44 Q637.313 1493.55 639.118 1497.11 Q640.947 1500.65 644.558 1500.65 Q648.192 1500.65 649.998 1497.11 Q651.826 1493.55 651.826 1486.44 Q651.826 1479.31 649.998 1475.77 Q648.192 1472.2 644.558 1472.2 M644.558 1468.5 Q650.368 1468.5 653.424 1473.11 Q656.502 1477.69 656.502 1486.44 Q656.502 1495.17 653.424 1499.77 Q650.368 1504.36 644.558 1504.36 Q638.748 1504.36 635.669 1499.77 Q632.613 1495.17 632.613 1486.44 Q632.613 1477.69 635.669 1473.11 Q638.748 1468.5 644.558 1468.5 Z" fill="#000000" fill-rule="evenodd" fill-opacity="1" /><path clip-path="url(#clip780)" d="M1133.85 1499.75 L1141.49 1499.75 L1141.49 1473.38 L1133.18 1475.05 L1133.18 1470.79 L1141.44 1469.12 L1146.12 1469.12 L1146.12 1499.75 L1153.76 1499.75 L1153.76 1503.68 L1133.85 1503.68 L1133.85 1499.75 Z" fill="#000000" fill-rule="evenodd" fill-opacity="1" /><path clip-path="url(#clip780)" d="M1173.2 1472.2 Q1169.59 1472.2 1167.76 1475.77 Q1165.96 1479.31 1165.96 1486.44 Q1165.96 1493.55 1167.76 1497.11 Q1169.59 1500.65 1173.2 1500.65 Q1176.83 1500.65 1178.64 1497.11 Q1180.47 1493.55 1180.47 1486.44 Q1180.47 1479.31 1178.64 1475.77 Q1176.83 1472.2 1173.2 1472.2 M1173.2 1468.5 Q1179.01 1468.5 1182.07 1473.11 Q1185.14 1477.69 1185.14 1486.44 Q1185.14 1495.17 1182.07 1499.77 Q1179.01 1504.36 1173.2 1504.36 Q1167.39 1504.36 1164.31 1499.77 Q1161.26 1495.17 1161.26 1486.44 Q1161.26 1477.69 1164.31 1473.11 Q1167.39 1468.5 1173.2 1468.5 Z" fill="#000000" fill-rule="evenodd" fill-opacity="1" /><path clip-path="url(#clip780)" d="M1203.36 1472.2 Q1199.75 1472.2 1197.92 1475.77 Q1196.12 1479.31 1196.12 1486.44 Q1196.12 1493.55 1197.92 1497.11 Q1199.75 1500.65 1203.36 1500.65 Q1207 1500.65 1208.8 1497.11 Q1210.63 1493.55 1210.63 1486.44 Q1210.63 1479.31 1208.8 1475.77 Q1207 1472.2 1203.36 1472.2 M1203.36 1468.5 Q1209.17 1468.5 1212.23 1473.11 Q1215.31 1477.69 1215.31 1486.44 Q1215.31 1495.17 1212.23 1499.77 Q1209.17 1504.36 1203.36 1504.36 Q1197.55 1504.36 1194.47 1499.77 Q1191.42 1495.17 1191.42 1486.44 Q1191.42 1477.69 1194.47 1473.11 Q1197.55 1468.5 1203.36 1468.5 Z" fill="#000000" fill-rule="evenodd" fill-opacity="1" /><path clip-path="url(#clip780)" d="M1678.35 1499.75 L1685.99 1499.75 L1685.99 1473.38 L1677.68 1475.05 L1677.68 1470.79 L1685.94 1469.12 L1690.62 1469.12 L1690.62 1499.75 L1698.26 1499.75 L1698.26 1503.68 L1678.35 1503.68 L1678.35 1499.75 Z" fill="#000000" fill-rule="evenodd" fill-opacity="1" /><path clip-path="url(#clip780)" d="M1707.75 1469.12 L1726.1 1469.12 L1726.1 1473.06 L1712.03 1473.06 L1712.03 1481.53 Q1713.05 1481.18 1714.07 1481.02 Q1715.08 1480.84 1716.1 1480.84 Q1721.89 1480.84 1725.27 1484.01 Q1728.65 1487.18 1728.65 1492.6 Q1728.65 1498.18 1725.18 1501.28 Q1721.7 1504.36 1715.38 1504.36 Q1713.21 1504.36 1710.94 1503.99 Q1708.69 1503.61 1706.29 1502.87 L1706.29 1498.18 Q1708.37 1499.31 1710.59 1499.86 Q1712.82 1500.42 1715.29 1500.42 Q1719.3 1500.42 1721.63 1498.31 Q1723.97 1496.21 1723.97 1492.6 Q1723.97 1488.99 1721.63 1486.88 Q1719.3 1484.77 1715.29 1484.77 Q1713.42 1484.77 1711.54 1485.19 Q1709.69 1485.61 1707.75 1486.49 L1707.75 1469.12 Z" fill="#000000" fill-rule="evenodd" fill-opacity="1" /><path clip-path="url(#clip780)" d="M1747.86 1472.2 Q1744.25 1472.2 1742.42 1475.77 Q1740.62 1479.31 1740.62 1486.44 Q1740.62 1493.55 1742.42 1497.11 Q1744.25 1500.65 1747.86 1500.65 Q1751.5 1500.65 1753.3 1497.11 Q1755.13 1493.55 1755.13 1486.44 Q1755.13 1479.31 1753.3 1475.77 Q1751.5 1472.2 1747.86 1472.2 M1747.86 1468.5 Q1753.67 1468.5 1756.73 1473.11 Q1759.81 1477.69 1759.81 1486.44 Q1759.81 1495.17 1756.73 1499.77 Q1753.67 1504.36 1747.86 1504.36 Q1742.05 1504.36 1738.97 1499.77 Q1735.92 1495.17 1735.92 1486.44 Q1735.92 1477.69 1738.97 1473.11 Q1742.05 1468.5 1747.86 1468.5 Z" fill="#000000" fill-rule="evenodd" fill-opacity="1" /><path clip-path="url(#clip780)" d="M2226.93 1499.75 L2243.25 1499.75 L2243.25 1503.68 L2221.31 1503.68 L2221.31 1499.75 Q2223.97 1496.99 2228.55 1492.36 Q2233.16 1487.71 2234.34 1486.37 Q2236.59 1483.85 2237.46 1482.11 Q2238.37 1480.35 2238.37 1478.66 Q2238.37 1475.91 2236.42 1474.17 Q2234.5 1472.43 2231.4 1472.43 Q2229.2 1472.43 2226.75 1473.2 Q2224.32 1473.96 2221.54 1475.51 L2221.54 1470.79 Q2224.36 1469.66 2226.82 1469.08 Q2229.27 1468.5 2231.31 1468.5 Q2236.68 1468.5 2239.87 1471.18 Q2243.07 1473.87 2243.07 1478.36 Q2243.07 1480.49 2242.26 1482.41 Q2241.47 1484.31 2239.36 1486.9 Q2238.78 1487.57 2235.68 1490.79 Q2232.58 1493.99 2226.93 1499.75 Z" fill="#000000" fill-rule="evenodd" fill-opacity="1" /><path clip-path="url(#clip780)" d="M2263.07 1472.2 Q2259.46 1472.2 2257.63 1475.77 Q2255.82 1479.31 2255.82 1486.44 Q2255.82 1493.55 2257.63 1497.11 Q2259.46 1500.65 2263.07 1500.65 Q2266.7 1500.65 2268.51 1497.11 Q2270.34 1493.55 2270.34 1486.44 Q2270.34 1479.31 2268.51 1475.77 Q2266.7 1472.2 2263.07 1472.2 M2263.07 1468.5 Q2268.88 1468.5 2271.93 1473.11 Q2275.01 1477.69 2275.01 1486.44 Q2275.01 1495.17 2271.93 1499.77 Q2268.88 1504.36 2263.07 1504.36 Q2257.26 1504.36 2254.18 1499.77 Q2251.12 1495.17 2251.12 1486.44 Q2251.12 1477.69 2254.18 1473.11 Q2257.26 1468.5 2263.07 1468.5 Z" fill="#000000" fill-rule="evenodd" fill-opacity="1" /><path clip-path="url(#clip780)" d="M2293.23 1472.2 Q2289.62 1472.2 2287.79 1475.77 Q2285.98 1479.31 2285.98 1486.44 Q2285.98 1493.55 2287.79 1497.11 Q2289.62 1500.65 2293.23 1500.65 Q2296.86 1500.65 2298.67 1497.11 Q2300.5 1493.55 2300.5 1486.44 Q2300.5 1479.31 2298.67 1475.77 Q2296.86 1472.2 2293.23 1472.2 M2293.23 1468.5 Q2299.04 1468.5 2302.09 1473.11 Q2305.17 1477.69 2305.17 1486.44 Q2305.17 1495.17 2302.09 1499.77 Q2299.04 1504.36 2293.23 1504.36 Q2287.42 1504.36 2284.34 1499.77 Q2281.28 1495.17 2281.28 1486.44 Q2281.28 1477.69 2284.34 1473.11 Q2287.42 1468.5 2293.23 1468.5 Z" fill="#000000" fill-rule="evenodd" fill-opacity="1" /><path clip-path="url(#clip780)" d="M1366.51 1536.96 Q1366.51 1541.66 1364.13 1546.2 Q1361.78 1550.74 1358.08 1553.55 Q1354.37 1556.31 1350.6 1556.31 Q1348.35 1556.31 1346.84 1555.09 Q1345.36 1553.84 1344.55 1552.06 Q1343.94 1554.25 1342.62 1559.5 Q1341.3 1564.75 1341.3 1565.27 Q1341.3 1565.56 1341.36 1565.69 Q1341.43 1565.82 1341.72 1565.98 Q1342.01 1566.17 1342.71 1566.23 Q1343.42 1566.33 1344.61 1566.33 Q1345.23 1566.33 1345.45 1566.33 Q1345.71 1566.36 1345.93 1566.52 Q1346.19 1566.69 1346.19 1567.04 Q1346.19 1568.36 1345 1568.36 Q1343.94 1568.36 1341.75 1568.26 Q1339.56 1568.17 1338.46 1568.17 Q1337.53 1568.17 1335.66 1568.26 Q1333.79 1568.36 1332.92 1568.36 Q1332.05 1568.36 1332.05 1567.59 Q1332.05 1567.14 1332.18 1566.85 Q1332.28 1566.59 1332.54 1566.46 Q1332.79 1566.36 1333.02 1566.33 Q1333.21 1566.33 1333.6 1566.33 Q1335.08 1566.33 1335.73 1566.07 Q1336.37 1565.85 1336.6 1565.36 Q1336.85 1564.91 1337.14 1563.63 L1344.55 1534.25 Q1345 1532.29 1345 1530.9 Q1345 1529.17 1344.45 1528.52 Q1343.91 1527.88 1342.94 1527.88 Q1341.27 1527.88 1340.17 1529.87 Q1339.08 1531.87 1338.14 1535.74 Q1337.85 1536.8 1337.66 1537.02 Q1337.5 1537.25 1337.01 1537.25 Q1336.21 1537.22 1336.21 1536.57 Q1336.21 1536.41 1336.47 1535.38 Q1336.72 1534.32 1337.21 1532.77 Q1337.72 1531.19 1338.27 1530.2 Q1338.59 1529.52 1338.88 1529.07 Q1339.17 1528.62 1339.75 1527.91 Q1340.36 1527.2 1341.23 1526.81 Q1342.1 1526.43 1343.17 1526.43 Q1345.23 1526.43 1346.93 1527.65 Q1348.64 1528.88 1349.09 1531.36 Q1350.93 1529.2 1353.18 1527.81 Q1355.44 1526.43 1357.72 1526.43 Q1361.52 1526.43 1364 1529.39 Q1366.51 1532.32 1366.51 1536.96 M1361.75 1534.06 Q1361.75 1531.13 1360.62 1529.52 Q1359.53 1527.88 1357.53 1527.88 Q1355.05 1527.88 1352.18 1530.39 Q1349.35 1532.77 1348.77 1534.99 L1345.52 1547.91 L1345.32 1548.97 Q1345.32 1549.17 1345.42 1549.74 Q1345.55 1550.29 1345.9 1551.19 Q1346.29 1552.1 1346.8 1552.9 Q1347.35 1553.67 1348.32 1554.25 Q1349.32 1554.83 1350.54 1554.83 Q1352.5 1554.83 1354.63 1553.09 Q1356.79 1551.36 1358.4 1548.07 Q1359.4 1545.94 1360.56 1541.37 Q1361.75 1536.77 1361.75 1534.06 Z" fill="#000000" fill-rule="evenodd" fill-opacity="1" /><polyline clip-path="url(#clip780)" style="stroke:#000000; stroke-linecap:butt; stroke-linejoin:round; stroke-width:4; stroke-opacity:1; fill:none" points="
  344.208,1443.01 344.208,47.2441 
  "/>
<polyline clip-path="url(#clip780)" style="stroke:#000000; stroke-linecap:butt; stroke-linejoin:round; stroke-width:4; stroke-opacity:1; fill:none" points="
  344.208,1227.94 363.105,1227.94 
  "/>
<polyline clip-path="url(#clip780)" style="stroke:#000000; stroke-linecap:butt; stroke-linejoin:round; stroke-width:4; stroke-opacity:1; fill:none" points="
  344.208,876.804 363.105,876.804 
  "/>
<polyline clip-path="url(#clip780)" style="stroke:#000000; stroke-linecap:butt; stroke-linejoin:round; stroke-width:4; stroke-opacity:1; fill:none" points="
  344.208,525.668 363.105,525.668 
  "/>
<polyline clip-path="url(#clip780)" style="stroke:#000000; stroke-linecap:butt; stroke-linejoin:round; stroke-width:4; stroke-opacity:1; fill:none" points="
  344.208,174.531 363.105,174.531 
  "/>
<path clip-path="url(#clip780)" d="M110.292 1228.39 L139.968 1228.39 L139.968 1232.33 L110.292 1232.33 L110.292 1228.39 Z" fill="#000000" fill-rule="evenodd" fill-opacity="1" /><path clip-path="url(#clip780)" d="M160.06 1213.74 Q156.449 1213.74 154.621 1217.3 Q152.815 1220.85 152.815 1227.98 Q152.815 1235.08 154.621 1238.65 Q156.449 1242.19 160.06 1242.19 Q163.695 1242.19 165.5 1238.65 Q167.329 1235.08 167.329 1227.98 Q167.329 1220.85 165.5 1217.3 Q163.695 1213.74 160.06 1213.74 M160.06 1210.04 Q165.871 1210.04 168.926 1214.64 Q172.005 1219.23 172.005 1227.98 Q172.005 1236.7 168.926 1241.31 Q165.871 1245.89 160.06 1245.89 Q154.25 1245.89 151.172 1241.31 Q148.116 1236.7 148.116 1227.98 Q148.116 1219.23 151.172 1214.64 Q154.25 1210.04 160.06 1210.04 Z" fill="#000000" fill-rule="evenodd" fill-opacity="1" /><path clip-path="url(#clip780)" d="M180.222 1239.34 L185.107 1239.34 L185.107 1245.22 L180.222 1245.22 L180.222 1239.34 Z" fill="#000000" fill-rule="evenodd" fill-opacity="1" /><path clip-path="url(#clip780)" d="M205.292 1213.74 Q201.681 1213.74 199.852 1217.3 Q198.046 1220.85 198.046 1227.98 Q198.046 1235.08 199.852 1238.65 Q201.681 1242.19 205.292 1242.19 Q208.926 1242.19 210.732 1238.65 Q212.56 1235.08 212.56 1227.98 Q212.56 1220.85 210.732 1217.3 Q208.926 1213.74 205.292 1213.74 M205.292 1210.04 Q211.102 1210.04 214.157 1214.64 Q217.236 1219.23 217.236 1227.98 Q217.236 1236.7 214.157 1241.31 Q211.102 1245.89 205.292 1245.89 Q199.482 1245.89 196.403 1241.31 Q193.347 1236.7 193.347 1227.98 Q193.347 1219.23 196.403 1214.64 Q199.482 1210.04 205.292 1210.04 Z" fill="#000000" fill-rule="evenodd" fill-opacity="1" /><path clip-path="url(#clip780)" d="M235.454 1213.74 Q231.843 1213.74 230.014 1217.3 Q228.208 1220.85 228.208 1227.98 Q228.208 1235.08 230.014 1238.65 Q231.843 1242.19 235.454 1242.19 Q239.088 1242.19 240.893 1238.65 Q242.722 1235.08 242.722 1227.98 Q242.722 1220.85 240.893 1217.3 Q239.088 1213.74 235.454 1213.74 M235.454 1210.04 Q241.264 1210.04 244.319 1214.64 Q247.398 1219.23 247.398 1227.98 Q247.398 1236.7 244.319 1241.31 Q241.264 1245.89 235.454 1245.89 Q229.643 1245.89 226.565 1241.31 Q223.509 1236.7 223.509 1227.98 Q223.509 1219.23 226.565 1214.64 Q229.643 1210.04 235.454 1210.04 Z" fill="#000000" fill-rule="evenodd" fill-opacity="1" /><path clip-path="url(#clip780)" d="M265.615 1213.74 Q262.004 1213.74 260.176 1217.3 Q258.37 1220.85 258.37 1227.98 Q258.37 1235.08 260.176 1238.65 Q262.004 1242.19 265.615 1242.19 Q269.25 1242.19 271.055 1238.65 Q272.884 1235.08 272.884 1227.98 Q272.884 1220.85 271.055 1217.3 Q269.25 1213.74 265.615 1213.74 M265.615 1210.04 Q271.426 1210.04 274.481 1214.64 Q277.56 1219.23 277.56 1227.98 Q277.56 1236.7 274.481 1241.31 Q271.426 1245.89 265.615 1245.89 Q259.805 1245.89 256.727 1241.31 Q253.671 1236.7 253.671 1227.98 Q253.671 1219.23 256.727 1214.64 Q259.805 1210.04 265.615 1210.04 Z" fill="#000000" fill-rule="evenodd" fill-opacity="1" /><path clip-path="url(#clip780)" d="M298.625 1214.74 L286.819 1233.18 L298.625 1233.18 L298.625 1214.74 M297.398 1210.66 L303.277 1210.66 L303.277 1233.18 L308.208 1233.18 L308.208 1237.07 L303.277 1237.07 L303.277 1245.22 L298.625 1245.22 L298.625 1237.07 L283.023 1237.07 L283.023 1232.56 L297.398 1210.66 Z" fill="#000000" fill-rule="evenodd" fill-opacity="1" /><path clip-path="url(#clip780)" d="M112.376 877.256 L142.051 877.256 L142.051 881.191 L112.376 881.191 L112.376 877.256 Z" fill="#000000" fill-rule="evenodd" fill-opacity="1" /><path clip-path="url(#clip780)" d="M162.144 862.603 Q158.533 862.603 156.704 866.168 Q154.898 869.71 154.898 876.839 Q154.898 883.946 156.704 887.51 Q158.533 891.052 162.144 891.052 Q165.778 891.052 167.584 887.51 Q169.412 883.946 169.412 876.839 Q169.412 869.71 167.584 866.168 Q165.778 862.603 162.144 862.603 M162.144 858.899 Q167.954 858.899 171.01 863.506 Q174.088 868.089 174.088 876.839 Q174.088 885.566 171.01 890.172 Q167.954 894.756 162.144 894.756 Q156.334 894.756 153.255 890.172 Q150.199 885.566 150.199 876.839 Q150.199 868.089 153.255 863.506 Q156.334 858.899 162.144 858.899 Z" fill="#000000" fill-rule="evenodd" fill-opacity="1" /><path clip-path="url(#clip780)" d="M182.306 888.205 L187.19 888.205 L187.19 894.084 L182.306 894.084 L182.306 888.205 Z" fill="#000000" fill-rule="evenodd" fill-opacity="1" /><path clip-path="url(#clip780)" d="M207.375 862.603 Q203.764 862.603 201.935 866.168 Q200.13 869.71 200.13 876.839 Q200.13 883.946 201.935 887.51 Q203.764 891.052 207.375 891.052 Q211.009 891.052 212.815 887.51 Q214.644 883.946 214.644 876.839 Q214.644 869.71 212.815 866.168 Q211.009 862.603 207.375 862.603 M207.375 858.899 Q213.185 858.899 216.241 863.506 Q219.319 868.089 219.319 876.839 Q219.319 885.566 216.241 890.172 Q213.185 894.756 207.375 894.756 Q201.565 894.756 198.486 890.172 Q195.431 885.566 195.431 876.839 Q195.431 868.089 198.486 863.506 Q201.565 858.899 207.375 858.899 Z" fill="#000000" fill-rule="evenodd" fill-opacity="1" /><path clip-path="url(#clip780)" d="M237.537 862.603 Q233.926 862.603 232.097 866.168 Q230.292 869.71 230.292 876.839 Q230.292 883.946 232.097 887.51 Q233.926 891.052 237.537 891.052 Q241.171 891.052 242.977 887.51 Q244.805 883.946 244.805 876.839 Q244.805 869.71 242.977 866.168 Q241.171 862.603 237.537 862.603 M237.537 858.899 Q243.347 858.899 246.403 863.506 Q249.481 868.089 249.481 876.839 Q249.481 885.566 246.403 890.172 Q243.347 894.756 237.537 894.756 Q231.727 894.756 228.648 890.172 Q225.593 885.566 225.593 876.839 Q225.593 868.089 228.648 863.506 Q231.727 858.899 237.537 858.899 Z" fill="#000000" fill-rule="evenodd" fill-opacity="1" /><path clip-path="url(#clip780)" d="M267.699 862.603 Q264.088 862.603 262.259 866.168 Q260.453 869.71 260.453 876.839 Q260.453 883.946 262.259 887.51 Q264.088 891.052 267.699 891.052 Q271.333 891.052 273.139 887.51 Q274.967 883.946 274.967 876.839 Q274.967 869.71 273.139 866.168 Q271.333 862.603 267.699 862.603 M267.699 858.899 Q273.509 858.899 276.564 863.506 Q279.643 868.089 279.643 876.839 Q279.643 885.566 276.564 890.172 Q273.509 894.756 267.699 894.756 Q261.889 894.756 258.81 890.172 Q255.754 885.566 255.754 876.839 Q255.754 868.089 258.81 863.506 Q261.889 858.899 267.699 858.899 Z" fill="#000000" fill-rule="evenodd" fill-opacity="1" /><path clip-path="url(#clip780)" d="M291.888 890.149 L308.208 890.149 L308.208 894.084 L286.264 894.084 L286.264 890.149 Q288.926 887.395 293.509 882.765 Q298.115 878.112 299.296 876.77 Q301.541 874.247 302.421 872.511 Q303.324 870.751 303.324 869.061 Q303.324 866.307 301.379 864.571 Q299.458 862.835 296.356 862.835 Q294.157 862.835 291.703 863.599 Q289.273 864.362 286.495 865.913 L286.495 861.191 Q289.319 860.057 291.773 859.478 Q294.226 858.899 296.263 858.899 Q301.634 858.899 304.828 861.585 Q308.023 864.27 308.023 868.761 Q308.023 870.89 307.212 872.811 Q306.425 874.71 304.319 877.302 Q303.74 877.973 300.638 881.191 Q297.537 884.385 291.888 890.149 Z" fill="#000000" fill-rule="evenodd" fill-opacity="1" /><path clip-path="url(#clip780)" d="M160.547 511.466 Q156.936 511.466 155.107 515.031 Q153.301 518.573 153.301 525.703 Q153.301 532.809 155.107 536.374 Q156.936 539.915 160.547 539.915 Q164.181 539.915 165.986 536.374 Q167.815 532.809 167.815 525.703 Q167.815 518.573 165.986 515.031 Q164.181 511.466 160.547 511.466 M160.547 507.763 Q166.357 507.763 169.412 512.369 Q172.491 516.953 172.491 525.703 Q172.491 534.429 169.412 539.036 Q166.357 543.619 160.547 543.619 Q154.736 543.619 151.658 539.036 Q148.602 534.429 148.602 525.703 Q148.602 516.953 151.658 512.369 Q154.736 507.763 160.547 507.763 Z" fill="#000000" fill-rule="evenodd" fill-opacity="1" /><path clip-path="url(#clip780)" d="M180.709 537.068 L185.593 537.068 L185.593 542.948 L180.709 542.948 L180.709 537.068 Z" fill="#000000" fill-rule="evenodd" fill-opacity="1" /><path clip-path="url(#clip780)" d="M205.778 511.466 Q202.167 511.466 200.338 515.031 Q198.533 518.573 198.533 525.703 Q198.533 532.809 200.338 536.374 Q202.167 539.915 205.778 539.915 Q209.412 539.915 211.218 536.374 Q213.046 532.809 213.046 525.703 Q213.046 518.573 211.218 515.031 Q209.412 511.466 205.778 511.466 M205.778 507.763 Q211.588 507.763 214.644 512.369 Q217.722 516.953 217.722 525.703 Q217.722 534.429 214.644 539.036 Q211.588 543.619 205.778 543.619 Q199.968 543.619 196.889 539.036 Q193.833 534.429 193.833 525.703 Q193.833 516.953 196.889 512.369 Q199.968 507.763 205.778 507.763 Z" fill="#000000" fill-rule="evenodd" fill-opacity="1" /><path clip-path="url(#clip780)" d="M235.94 511.466 Q232.329 511.466 230.5 515.031 Q228.694 518.573 228.694 525.703 Q228.694 532.809 230.5 536.374 Q232.329 539.915 235.94 539.915 Q239.574 539.915 241.38 536.374 Q243.208 532.809 243.208 525.703 Q243.208 518.573 241.38 515.031 Q239.574 511.466 235.94 511.466 M235.94 507.763 Q241.75 507.763 244.805 512.369 Q247.884 516.953 247.884 525.703 Q247.884 534.429 244.805 539.036 Q241.75 543.619 235.94 543.619 Q230.13 543.619 227.051 539.036 Q223.995 534.429 223.995 525.703 Q223.995 516.953 227.051 512.369 Q230.13 507.763 235.94 507.763 Z" fill="#000000" fill-rule="evenodd" fill-opacity="1" /><path clip-path="url(#clip780)" d="M266.102 511.466 Q262.49 511.466 260.662 515.031 Q258.856 518.573 258.856 525.703 Q258.856 532.809 260.662 536.374 Q262.49 539.915 266.102 539.915 Q269.736 539.915 271.541 536.374 Q273.37 532.809 273.37 525.703 Q273.37 518.573 271.541 515.031 Q269.736 511.466 266.102 511.466 M266.102 507.763 Q271.912 507.763 274.967 512.369 Q278.046 516.953 278.046 525.703 Q278.046 534.429 274.967 539.036 Q271.912 543.619 266.102 543.619 Q260.291 543.619 257.213 539.036 Q254.157 534.429 254.157 525.703 Q254.157 516.953 257.213 512.369 Q260.291 507.763 266.102 507.763 Z" fill="#000000" fill-rule="evenodd" fill-opacity="1" /><path clip-path="url(#clip780)" d="M296.263 511.466 Q292.652 511.466 290.824 515.031 Q289.018 518.573 289.018 525.703 Q289.018 532.809 290.824 536.374 Q292.652 539.915 296.263 539.915 Q299.898 539.915 301.703 536.374 Q303.532 532.809 303.532 525.703 Q303.532 518.573 301.703 515.031 Q299.898 511.466 296.263 511.466 M296.263 507.763 Q302.074 507.763 305.129 512.369 Q308.208 516.953 308.208 525.703 Q308.208 534.429 305.129 539.036 Q302.074 543.619 296.263 543.619 Q290.453 543.619 287.375 539.036 Q284.319 534.429 284.319 525.703 Q284.319 516.953 287.375 512.369 Q290.453 507.763 296.263 507.763 Z" fill="#000000" fill-rule="evenodd" fill-opacity="1" /><path clip-path="url(#clip780)" d="M162.144 160.33 Q158.533 160.33 156.704 163.895 Q154.898 167.436 154.898 174.566 Q154.898 181.672 156.704 185.237 Q158.533 188.779 162.144 188.779 Q165.778 188.779 167.584 185.237 Q169.412 181.672 169.412 174.566 Q169.412 167.436 167.584 163.895 Q165.778 160.33 162.144 160.33 M162.144 156.626 Q167.954 156.626 171.01 161.233 Q174.088 165.816 174.088 174.566 Q174.088 183.293 171.01 187.899 Q167.954 192.482 162.144 192.482 Q156.334 192.482 153.255 187.899 Q150.199 183.293 150.199 174.566 Q150.199 165.816 153.255 161.233 Q156.334 156.626 162.144 156.626 Z" fill="#000000" fill-rule="evenodd" fill-opacity="1" /><path clip-path="url(#clip780)" d="M182.306 185.932 L187.19 185.932 L187.19 191.811 L182.306 191.811 L182.306 185.932 Z" fill="#000000" fill-rule="evenodd" fill-opacity="1" /><path clip-path="url(#clip780)" d="M207.375 160.33 Q203.764 160.33 201.935 163.895 Q200.13 167.436 200.13 174.566 Q200.13 181.672 201.935 185.237 Q203.764 188.779 207.375 188.779 Q211.009 188.779 212.815 185.237 Q214.644 181.672 214.644 174.566 Q214.644 167.436 212.815 163.895 Q211.009 160.33 207.375 160.33 M207.375 156.626 Q213.185 156.626 216.241 161.233 Q219.319 165.816 219.319 174.566 Q219.319 183.293 216.241 187.899 Q213.185 192.482 207.375 192.482 Q201.565 192.482 198.486 187.899 Q195.431 183.293 195.431 174.566 Q195.431 165.816 198.486 161.233 Q201.565 156.626 207.375 156.626 Z" fill="#000000" fill-rule="evenodd" fill-opacity="1" /><path clip-path="url(#clip780)" d="M237.537 160.33 Q233.926 160.33 232.097 163.895 Q230.292 167.436 230.292 174.566 Q230.292 181.672 232.097 185.237 Q233.926 188.779 237.537 188.779 Q241.171 188.779 242.977 185.237 Q244.805 181.672 244.805 174.566 Q244.805 167.436 242.977 163.895 Q241.171 160.33 237.537 160.33 M237.537 156.626 Q243.347 156.626 246.403 161.233 Q249.481 165.816 249.481 174.566 Q249.481 183.293 246.403 187.899 Q243.347 192.482 237.537 192.482 Q231.727 192.482 228.648 187.899 Q225.593 183.293 225.593 174.566 Q225.593 165.816 228.648 161.233 Q231.727 156.626 237.537 156.626 Z" fill="#000000" fill-rule="evenodd" fill-opacity="1" /><path clip-path="url(#clip780)" d="M267.699 160.33 Q264.088 160.33 262.259 163.895 Q260.453 167.436 260.453 174.566 Q260.453 181.672 262.259 185.237 Q264.088 188.779 267.699 188.779 Q271.333 188.779 273.139 185.237 Q274.967 181.672 274.967 174.566 Q274.967 167.436 273.139 163.895 Q271.333 160.33 267.699 160.33 M267.699 156.626 Q273.509 156.626 276.564 161.233 Q279.643 165.816 279.643 174.566 Q279.643 183.293 276.564 187.899 Q273.509 192.482 267.699 192.482 Q261.889 192.482 258.81 187.899 Q255.754 183.293 255.754 174.566 Q255.754 165.816 258.81 161.233 Q261.889 156.626 267.699 156.626 Z" fill="#000000" fill-rule="evenodd" fill-opacity="1" /><path clip-path="url(#clip780)" d="M291.888 187.876 L308.208 187.876 L308.208 191.811 L286.264 191.811 L286.264 187.876 Q288.926 185.121 293.509 180.492 Q298.115 175.839 299.296 174.496 Q301.541 171.973 302.421 170.237 Q303.324 168.478 303.324 166.788 Q303.324 164.034 301.379 162.297 Q299.458 160.561 296.356 160.561 Q294.157 160.561 291.703 161.325 Q289.273 162.089 286.495 163.64 L286.495 158.918 Q289.319 157.784 291.773 157.205 Q294.226 156.626 296.263 156.626 Q301.634 156.626 304.828 159.311 Q308.023 161.996 308.023 166.487 Q308.023 168.617 307.212 170.538 Q306.425 172.436 304.319 175.029 Q303.74 175.7 300.638 178.918 Q297.537 182.112 291.888 187.876 Z" fill="#000000" fill-rule="evenodd" fill-opacity="1" /><path clip-path="url(#clip780)" d="M63.8528 840.05 Q63.5952 840.05 61.9205 839.181 Q60.2135 838.311 54.1266 835.251 Q48.0075 832.192 41.5986 829.036 L18.7324 817.667 Q17.2831 816.862 17.2831 815.831 Q17.2831 814.897 17.8628 814.479 Q18.4425 814.06 22.3395 812.128 Q24.2396 811.129 25.4634 810.55 L62.79 791.902 Q63.5952 791.58 63.8528 791.548 Q64.4969 791.548 64.4969 792.675 L64.4969 838.311 Q64.4969 840.05 63.8528 840.05 M59.4728 835.702 L59.4728 800.211 L23.8531 817.957 L59.4728 835.702 Z" fill="#000000" fill-rule="evenodd" fill-opacity="1" /><path clip-path="url(#clip780)" d="M29.3925 738.314 Q32.9996 738.314 36.3168 740.987 Q39.634 743.628 41.663 747.944 Q43.6597 752.227 43.6597 756.833 L43.6597 768.04 L60.1491 772.13 Q60.2458 772.163 60.6644 772.259 Q61.0509 772.356 61.2763 772.356 Q62.0815 772.356 62.2747 771.357 Q62.468 770.327 62.468 768.04 Q62.468 766.559 62.7256 766.333 Q62.8866 766.205 63.1765 766.205 Q63.6274 766.205 63.9494 766.333 Q64.2393 766.462 64.3359 766.72 Q64.4325 766.945 64.4647 767.106 Q64.4969 767.267 64.4969 767.525 Q64.4969 768.201 64.4325 769.651 Q64.3681 771.068 64.3681 771.808 L64.3037 776.027 L64.4969 784.401 Q64.4969 785.399 63.6918 785.399 Q63.0799 785.399 62.8222 785.142 Q62.5324 784.884 62.5002 784.594 Q62.468 784.304 62.468 783.563 Q62.468 781.953 62.3713 780.987 Q62.2747 780.021 62.1459 779.409 Q61.9849 778.765 61.534 778.443 Q61.0831 778.088 60.6966 777.927 Q60.278 777.766 59.344 777.541 L23.9175 768.717 Q22.8547 768.459 22.6937 768.459 Q22.1462 768.459 21.953 768.781 Q21.7275 769.071 21.6309 769.908 Q21.5021 771.518 21.5021 772.742 Q21.5021 773.547 21.4699 773.87 Q21.4377 774.159 21.2767 774.417 Q21.0834 774.642 20.697 774.642 Q20.085 774.642 19.8274 774.385 Q19.5375 774.095 19.5053 773.773 Q19.4409 773.451 19.4409 772.678 L19.4409 751.293 Q19.4409 745.142 22.3717 741.728 Q25.3024 738.314 29.3925 738.314 M27.8145 744.433 Q21.5021 744.433 21.5021 753.419 L21.5021 759.731 Q21.5021 761.825 21.8886 762.34 Q22.2428 762.855 24.0142 763.306 L41.9528 767.783 L41.9528 758.475 Q41.9528 752.227 38.4424 748.33 Q36.8321 746.559 33.4827 745.496 Q30.1333 744.433 27.8145 744.433 Z" fill="#000000" fill-rule="evenodd" fill-opacity="1" /><path clip-path="url(#clip780)" d="M48.0075 731.077 Q36.8643 731.077 27.8789 726.922 Q24.1108 725.151 20.9546 722.671 Q17.7984 720.191 16.4136 718.548 Q15.0287 716.906 15.0287 716.455 Q15.0287 715.811 15.6728 715.779 Q15.9949 715.779 16.8 716.648 Q27.6212 727.276 48.0075 727.244 Q68.4582 727.244 78.8607 716.906 Q79.9879 715.779 80.3422 715.779 Q80.9863 715.779 80.9863 716.455 Q80.9863 716.906 79.6659 718.484 Q78.3454 720.062 75.3181 722.51 Q72.2907 724.957 68.5871 726.729 Q59.6016 731.077 48.0075 731.077 Z" fill="#000000" fill-rule="evenodd" fill-opacity="1" /><path clip-path="url(#clip780)" d="M45.8819 680.265 Q50.584 680.265 55.125 682.648 Q59.666 684.999 62.468 688.703 Q65.2377 692.407 65.2377 696.175 Q65.2377 698.429 64.0138 699.943 Q62.7578 701.424 60.9865 702.229 Q63.1765 702.841 68.426 704.162 Q73.6756 705.482 74.1909 705.482 Q74.4807 705.482 74.6096 705.418 Q74.7384 705.353 74.8994 705.063 Q75.0927 704.774 75.1571 704.065 Q75.2537 703.356 75.2537 702.165 Q75.2537 701.553 75.2537 701.328 Q75.2859 701.07 75.4469 700.844 Q75.608 700.587 75.9622 700.587 Q77.2827 700.587 77.2827 701.778 Q77.2827 702.841 77.186 705.031 Q77.0894 707.221 77.0894 708.316 Q77.0894 709.25 77.186 711.118 Q77.2827 712.986 77.2827 713.856 Q77.2827 714.725 76.5097 714.725 Q76.0588 714.725 75.769 714.596 Q75.5113 714.5 75.3825 714.242 Q75.2859 713.984 75.2537 713.759 Q75.2537 713.566 75.2537 713.179 Q75.2537 711.698 74.996 711.054 Q74.7706 710.41 74.2875 710.184 Q73.8366 709.926 72.5484 709.637 L43.1766 702.229 Q41.2121 701.778 39.8272 701.778 Q38.0881 701.778 37.444 702.326 Q36.7999 702.873 36.7999 703.84 Q36.7999 705.514 38.7967 706.609 Q40.7934 707.704 44.6581 708.638 Q45.7209 708.928 45.9464 709.121 Q46.1718 709.282 46.1718 709.765 Q46.1396 710.571 45.4955 710.571 Q45.3344 710.571 44.3039 710.313 Q43.2411 710.055 41.6952 709.572 Q40.1171 709.057 39.1187 708.509 Q38.4424 708.187 37.9915 707.898 Q37.5406 707.608 36.8321 707.028 Q36.1236 706.416 35.7371 705.546 Q35.3506 704.677 35.3506 703.614 Q35.3506 701.553 36.5744 699.846 Q37.7983 698.139 40.2781 697.688 Q38.1203 695.853 36.7355 693.598 Q35.3506 691.344 35.3506 689.057 Q35.3506 685.257 38.3136 682.777 Q41.2443 680.265 45.8819 680.265 M42.9834 685.031 Q40.0527 685.031 38.4424 686.159 Q36.7999 687.254 36.7999 689.25 Q36.7999 691.73 39.3119 694.597 Q41.6952 697.431 43.9174 698.01 L56.8319 701.263 L57.8947 701.456 Q58.088 701.456 58.6677 701.36 Q59.2152 701.231 60.1169 700.877 Q61.0187 700.49 61.8238 699.975 Q62.5968 699.427 63.1765 698.461 Q63.7562 697.463 63.7562 696.239 Q63.7562 694.274 62.0171 692.149 Q60.278 689.991 56.993 688.381 Q54.8674 687.382 50.2941 686.223 Q45.6887 685.031 42.9834 685.031 Z" fill="#000000" fill-rule="evenodd" fill-opacity="1" /><path clip-path="url(#clip780)" d="M80.3422 675.534 Q80.0202 675.534 79.215 674.696 Q68.3938 664.068 48.0075 664.068 Q27.5568 664.068 17.2187 674.278 Q16.0271 675.534 15.6728 675.534 Q15.0287 675.534 15.0287 674.89 Q15.0287 674.439 16.3492 672.861 Q17.6696 671.25 20.697 668.835 Q23.7243 666.387 27.428 664.584 Q36.4134 660.236 48.0075 660.236 Q59.1508 660.236 68.1362 664.39 Q71.9043 666.162 75.0605 668.642 Q78.2166 671.122 79.6015 672.764 Q80.9863 674.407 80.9863 674.89 Q80.9863 675.534 80.3422 675.534 Z" fill="#000000" fill-rule="evenodd" fill-opacity="1" /><circle clip-path="url(#clip782)" cx="401.054" cy="525.668" r="14" fill="#3da44d" fill-rule="evenodd" fill-opacity="1" stroke="none"/>
<circle clip-path="url(#clip782)" cx="531.733" cy="525.668" r="14" fill="#3da44d" fill-rule="evenodd" fill-opacity="1" stroke="none"/>
<circle clip-path="url(#clip782)" cx="662.413" cy="525.673" r="14" fill="#3da44d" fill-rule="evenodd" fill-opacity="1" stroke="none"/>
<circle clip-path="url(#clip782)" cx="793.093" cy="525.681" r="14" fill="#3da44d" fill-rule="evenodd" fill-opacity="1" stroke="none"/>
<circle clip-path="url(#clip782)" cx="923.773" cy="525.672" r="14" fill="#3da44d" fill-rule="evenodd" fill-opacity="1" stroke="none"/>
<circle clip-path="url(#clip782)" cx="1054.45" cy="525.649" r="14" fill="#3da44d" fill-rule="evenodd" fill-opacity="1" stroke="none"/>
<circle clip-path="url(#clip782)" cx="1185.13" cy="525.647" r="14" fill="#3da44d" fill-rule="evenodd" fill-opacity="1" stroke="none"/>
<circle clip-path="url(#clip782)" cx="1315.81" cy="525.663" r="14" fill="#3da44d" fill-rule="evenodd" fill-opacity="1" stroke="none"/>
<circle clip-path="url(#clip782)" cx="1446.49" cy="525.674" r="14" fill="#3da44d" fill-rule="evenodd" fill-opacity="1" stroke="none"/>
<circle clip-path="url(#clip782)" cx="1577.17" cy="525.675" r="14" fill="#3da44d" fill-rule="evenodd" fill-opacity="1" stroke="none"/>
<circle clip-path="url(#clip782)" cx="1707.85" cy="525.672" r="14" fill="#3da44d" fill-rule="evenodd" fill-opacity="1" stroke="none"/>
<circle clip-path="url(#clip782)" cx="1838.53" cy="525.669" r="14" fill="#3da44d" fill-rule="evenodd" fill-opacity="1" stroke="none"/>
<circle clip-path="url(#clip782)" cx="1969.21" cy="525.668" r="14" fill="#3da44d" fill-rule="evenodd" fill-opacity="1" stroke="none"/>
<circle clip-path="url(#clip782)" cx="2099.89" cy="525.668" r="14" fill="#3da44d" fill-rule="evenodd" fill-opacity="1" stroke="none"/>
<circle clip-path="url(#clip782)" cx="2230.57" cy="525.668" r="14" fill="#3da44d" fill-rule="evenodd" fill-opacity="1" stroke="none"/>
<circle clip-path="url(#clip782)" cx="433.723" cy="525.558" r="14" fill="#c271d2" fill-rule="evenodd" fill-opacity="1" stroke="none"/>
<circle clip-path="url(#clip782)" cx="564.403" cy="518.839" r="14" fill="#c271d2" fill-rule="evenodd" fill-opacity="1" stroke="none"/>
<circle clip-path="url(#clip782)" cx="695.083" cy="459.944" r="14" fill="#c271d2" fill-rule="evenodd" fill-opacity="1" stroke="none"/>
<circle clip-path="url(#clip782)" cx="825.763" cy="368.42" r="14" fill="#c271d2" fill-rule="evenodd" fill-opacity="1" stroke="none"/>
<circle clip-path="url(#clip782)" cx="956.443" cy="480.966" r="14" fill="#c271d2" fill-rule="evenodd" fill-opacity="1" stroke="none"/>
<circle clip-path="url(#clip782)" cx="1087.12" cy="732.513" r="14" fill="#c271d2" fill-rule="evenodd" fill-opacity="1" stroke="none"/>
<circle clip-path="url(#clip782)" cx="1217.8" cy="758.863" r="14" fill="#c271d2" fill-rule="evenodd" fill-opacity="1" stroke="none"/>
<circle clip-path="url(#clip782)" cx="1348.48" cy="583.115" r="14" fill="#c271d2" fill-rule="evenodd" fill-opacity="1" stroke="none"/>
<circle clip-path="url(#clip782)" cx="1479.16" cy="456.455" r="14" fill="#c271d2" fill-rule="evenodd" fill-opacity="1" stroke="none"/>
<circle clip-path="url(#clip782)" cx="1609.84" cy="445.126" r="14" fill="#c271d2" fill-rule="evenodd" fill-opacity="1" stroke="none"/>
<circle clip-path="url(#clip782)" cx="1740.52" cy="479.173" r="14" fill="#c271d2" fill-rule="evenodd" fill-opacity="1" stroke="none"/>
<circle clip-path="url(#clip782)" cx="1871.2" cy="506.888" r="14" fill="#c271d2" fill-rule="evenodd" fill-opacity="1" stroke="none"/>
<circle clip-path="url(#clip782)" cx="2001.88" cy="519.763" r="14" fill="#c271d2" fill-rule="evenodd" fill-opacity="1" stroke="none"/>
<circle clip-path="url(#clip782)" cx="2132.56" cy="524.141" r="14" fill="#c271d2" fill-rule="evenodd" fill-opacity="1" stroke="none"/>
<circle clip-path="url(#clip782)" cx="2263.24" cy="525.332" r="14" fill="#c271d2" fill-rule="evenodd" fill-opacity="1" stroke="none"/>
<circle clip-path="url(#clip782)" cx="466.393" cy="525.655" r="14" fill="#ed5d92" fill-rule="evenodd" fill-opacity="1" stroke="none"/>
<circle clip-path="url(#clip782)" cx="597.073" cy="524.842" r="14" fill="#ed5d92" fill-rule="evenodd" fill-opacity="1" stroke="none"/>
<circle clip-path="url(#clip782)" cx="727.753" cy="517.573" r="14" fill="#ed5d92" fill-rule="evenodd" fill-opacity="1" stroke="none"/>
<circle clip-path="url(#clip782)" cx="858.433" cy="506.049" r="14" fill="#ed5d92" fill-rule="evenodd" fill-opacity="1" stroke="none"/>
<circle clip-path="url(#clip782)" cx="989.113" cy="519.939" r="14" fill="#ed5d92" fill-rule="evenodd" fill-opacity="1" stroke="none"/>
<circle clip-path="url(#clip782)" cx="1119.79" cy="551.491" r="14" fill="#ed5d92" fill-rule="evenodd" fill-opacity="1" stroke="none"/>
<circle clip-path="url(#clip782)" cx="1250.47" cy="554.829" r="14" fill="#ed5d92" fill-rule="evenodd" fill-opacity="1" stroke="none"/>
<circle clip-path="url(#clip782)" cx="1381.15" cy="532.759" r="14" fill="#ed5d92" fill-rule="evenodd" fill-opacity="1" stroke="none"/>
<circle clip-path="url(#clip782)" cx="1511.83" cy="516.941" r="14" fill="#ed5d92" fill-rule="evenodd" fill-opacity="1" stroke="none"/>
<circle clip-path="url(#clip782)" cx="1642.51" cy="515.615" r="14" fill="#ed5d92" fill-rule="evenodd" fill-opacity="1" stroke="none"/>
<circle clip-path="url(#clip782)" cx="1773.19" cy="519.91" r="14" fill="#ed5d92" fill-rule="evenodd" fill-opacity="1" stroke="none"/>
<circle clip-path="url(#clip782)" cx="1903.87" cy="523.362" r="14" fill="#ed5d92" fill-rule="evenodd" fill-opacity="1" stroke="none"/>
<circle clip-path="url(#clip782)" cx="2034.55" cy="524.95" r="14" fill="#ed5d92" fill-rule="evenodd" fill-opacity="1" stroke="none"/>
<circle clip-path="url(#clip782)" cx="2165.23" cy="525.484" r="14" fill="#ed5d92" fill-rule="evenodd" fill-opacity="1" stroke="none"/>
<circle clip-path="url(#clip782)" cx="2295.91" cy="525.628" r="14" fill="#ed5d92" fill-rule="evenodd" fill-opacity="1" stroke="none"/>
<path clip-path="url(#clip780)" d="
M1863.86 301.13 L2285.8 301.13 L2285.8 93.7697 L1863.86 93.7697  Z
  " fill="#ffffff" fill-rule="evenodd" fill-opacity="1"/>
<polyline clip-path="url(#clip780)" style="stroke:#000000; stroke-linecap:butt; stroke-linejoin:round; stroke-width:4; stroke-opacity:1; fill:none" points="
  1863.86,301.13 2285.8,301.13 2285.8,93.7697 1863.86,93.7697 1863.86,301.13 
  "/>
<circle clip-path="url(#clip780)" cx="1953.13" cy="145.61" r="23" fill="#3da44d" fill-rule="evenodd" fill-opacity="1" stroke="none"/>
<path clip-path="url(#clip780)" d="M2042.4 128.33 L2049.37 128.33 L2058.18 151.848 L2067.05 128.33 L2074.02 128.33 L2074.02 162.89 L2069.46 162.89 L2069.46 132.543 L2060.55 156.246 L2055.85 156.246 L2046.93 132.543 L2046.93 162.89 L2042.4 162.89 L2042.4 128.33 Z" fill="#000000" fill-rule="evenodd" fill-opacity="1" /><path clip-path="url(#clip780)" d="M2093.16 139.95 Q2089.74 139.95 2087.74 142.635 Q2085.75 145.297 2085.75 149.95 Q2085.75 154.603 2087.72 157.288 Q2089.71 159.95 2093.16 159.95 Q2096.56 159.95 2098.55 157.265 Q2100.55 154.58 2100.55 149.95 Q2100.55 145.344 2098.55 142.658 Q2096.56 139.95 2093.16 139.95 M2093.16 136.339 Q2098.72 136.339 2101.89 139.95 Q2105.06 143.561 2105.06 149.95 Q2105.06 156.316 2101.89 159.95 Q2098.72 163.561 2093.16 163.561 Q2087.58 163.561 2084.41 159.95 Q2081.26 156.316 2081.26 149.95 Q2081.26 143.561 2084.41 139.95 Q2087.58 136.339 2093.16 136.339 Z" fill="#000000" fill-rule="evenodd" fill-opacity="1" /><path clip-path="url(#clip780)" d="M2129.18 140.899 L2129.18 126.871 L2133.44 126.871 L2133.44 162.89 L2129.18 162.89 L2129.18 159.001 Q2127.84 161.316 2125.78 162.45 Q2123.74 163.561 2120.87 163.561 Q2116.17 163.561 2113.21 159.811 Q2110.27 156.061 2110.27 149.95 Q2110.27 143.839 2113.21 140.089 Q2116.17 136.339 2120.87 136.339 Q2123.74 136.339 2125.78 137.473 Q2127.84 138.584 2129.18 140.899 M2114.67 149.95 Q2114.67 154.649 2116.59 157.334 Q2118.53 159.996 2121.91 159.996 Q2125.29 159.996 2127.24 157.334 Q2129.18 154.649 2129.18 149.95 Q2129.18 145.251 2127.24 142.589 Q2125.29 139.904 2121.91 139.904 Q2118.53 139.904 2116.59 142.589 Q2114.67 145.251 2114.67 149.95 Z" fill="#000000" fill-rule="evenodd" fill-opacity="1" /><path clip-path="url(#clip780)" d="M2164.39 148.862 L2164.39 150.945 L2144.8 150.945 Q2145.08 155.343 2147.44 157.658 Q2149.83 159.95 2154.06 159.95 Q2156.52 159.95 2158.81 159.348 Q2161.12 158.746 2163.39 157.543 L2163.39 161.57 Q2161.1 162.542 2158.69 163.052 Q2156.29 163.561 2153.81 163.561 Q2147.61 163.561 2143.97 159.95 Q2140.36 156.339 2140.36 150.181 Q2140.36 143.816 2143.79 140.089 Q2147.24 136.339 2153.07 136.339 Q2158.3 136.339 2161.33 139.719 Q2164.39 143.075 2164.39 148.862 M2160.13 147.612 Q2160.08 144.117 2158.16 142.033 Q2156.26 139.95 2153.11 139.95 Q2149.55 139.95 2147.4 141.964 Q2145.27 143.978 2144.94 147.635 L2160.13 147.612 Z" fill="#000000" fill-rule="evenodd" fill-opacity="1" /><path clip-path="url(#clip780)" d="M2171.38 126.871 L2175.64 126.871 L2175.64 162.89 L2171.38 162.89 L2171.38 126.871 Z" fill="#000000" fill-rule="evenodd" fill-opacity="1" /><path clip-path="url(#clip780)" d="M2199.8 128.33 L2204.48 128.33 L2204.48 162.89 L2199.8 162.89 L2199.8 128.33 Z" fill="#000000" fill-rule="evenodd" fill-opacity="1" /><path clip-path="url(#clip780)" d="M2213.79 128.33 L2218.46 128.33 L2218.46 162.89 L2213.79 162.89 L2213.79 128.33 Z" fill="#000000" fill-rule="evenodd" fill-opacity="1" /><circle clip-path="url(#clip780)" cx="1953.13" cy="197.45" r="23" fill="#c271d2" fill-rule="evenodd" fill-opacity="1" stroke="none"/>
<path clip-path="url(#clip780)" d="M2042.4 180.17 L2049.37 180.17 L2058.18 203.688 L2067.05 180.17 L2074.02 180.17 L2074.02 214.73 L2069.46 214.73 L2069.46 184.383 L2060.55 208.086 L2055.85 208.086 L2046.93 184.383 L2046.93 214.73 L2042.4 214.73 L2042.4 180.17 Z" fill="#000000" fill-rule="evenodd" fill-opacity="1" /><path clip-path="url(#clip780)" d="M2093.16 191.79 Q2089.74 191.79 2087.74 194.475 Q2085.75 197.137 2085.75 201.79 Q2085.75 206.443 2087.72 209.128 Q2089.71 211.79 2093.16 211.79 Q2096.56 211.79 2098.55 209.105 Q2100.55 206.42 2100.55 201.79 Q2100.55 197.184 2098.55 194.498 Q2096.56 191.79 2093.16 191.79 M2093.16 188.179 Q2098.72 188.179 2101.89 191.79 Q2105.06 195.401 2105.06 201.79 Q2105.06 208.156 2101.89 211.79 Q2098.72 215.401 2093.16 215.401 Q2087.58 215.401 2084.41 211.79 Q2081.26 208.156 2081.26 201.79 Q2081.26 195.401 2084.41 191.79 Q2087.58 188.179 2093.16 188.179 Z" fill="#000000" fill-rule="evenodd" fill-opacity="1" /><path clip-path="url(#clip780)" d="M2129.18 192.739 L2129.18 178.711 L2133.44 178.711 L2133.44 214.73 L2129.18 214.73 L2129.18 210.841 Q2127.84 213.156 2125.78 214.29 Q2123.74 215.401 2120.87 215.401 Q2116.17 215.401 2113.21 211.651 Q2110.27 207.901 2110.27 201.79 Q2110.27 195.679 2113.21 191.929 Q2116.17 188.179 2120.87 188.179 Q2123.74 188.179 2125.78 189.313 Q2127.84 190.424 2129.18 192.739 M2114.67 201.79 Q2114.67 206.489 2116.59 209.174 Q2118.53 211.836 2121.91 211.836 Q2125.29 211.836 2127.24 209.174 Q2129.18 206.489 2129.18 201.79 Q2129.18 197.091 2127.24 194.429 Q2125.29 191.744 2121.91 191.744 Q2118.53 191.744 2116.59 194.429 Q2114.67 197.091 2114.67 201.79 Z" fill="#000000" fill-rule="evenodd" fill-opacity="1" /><path clip-path="url(#clip780)" d="M2164.39 200.702 L2164.39 202.785 L2144.8 202.785 Q2145.08 207.183 2147.44 209.498 Q2149.83 211.79 2154.06 211.79 Q2156.52 211.79 2158.81 211.188 Q2161.12 210.586 2163.39 209.383 L2163.39 213.41 Q2161.1 214.382 2158.69 214.892 Q2156.29 215.401 2153.81 215.401 Q2147.61 215.401 2143.97 211.79 Q2140.36 208.179 2140.36 202.021 Q2140.36 195.656 2143.79 191.929 Q2147.24 188.179 2153.07 188.179 Q2158.3 188.179 2161.33 191.559 Q2164.39 194.915 2164.39 200.702 M2160.13 199.452 Q2160.08 195.957 2158.16 193.873 Q2156.26 191.79 2153.11 191.79 Q2149.55 191.79 2147.4 193.804 Q2145.27 195.818 2144.94 199.475 L2160.13 199.452 Z" fill="#000000" fill-rule="evenodd" fill-opacity="1" /><path clip-path="url(#clip780)" d="M2171.38 178.711 L2175.64 178.711 L2175.64 214.73 L2171.38 214.73 L2171.38 178.711 Z" fill="#000000" fill-rule="evenodd" fill-opacity="1" /><path clip-path="url(#clip780)" d="M2199.8 180.17 L2204.48 180.17 L2204.48 214.73 L2199.8 214.73 L2199.8 180.17 Z" fill="#000000" fill-rule="evenodd" fill-opacity="1" /><path clip-path="url(#clip780)" d="M2213.79 180.17 L2218.46 180.17 L2218.46 214.73 L2213.79 214.73 L2213.79 180.17 Z" fill="#000000" fill-rule="evenodd" fill-opacity="1" /><path clip-path="url(#clip780)" d="M2227.77 180.17 L2232.44 180.17 L2232.44 214.73 L2227.77 214.73 L2227.77 180.17 Z" fill="#000000" fill-rule="evenodd" fill-opacity="1" /><circle clip-path="url(#clip780)" cx="1953.13" cy="249.29" r="23" fill="#ed5d92" fill-rule="evenodd" fill-opacity="1" stroke="none"/>
<path clip-path="url(#clip780)" d="M2042.4 232.01 L2049.37 232.01 L2058.18 255.528 L2067.05 232.01 L2074.02 232.01 L2074.02 266.57 L2069.46 266.57 L2069.46 236.223 L2060.55 259.926 L2055.85 259.926 L2046.93 236.223 L2046.93 266.57 L2042.4 266.57 L2042.4 232.01 Z" fill="#000000" fill-rule="evenodd" fill-opacity="1" /><path clip-path="url(#clip780)" d="M2093.16 243.63 Q2089.74 243.63 2087.74 246.315 Q2085.75 248.977 2085.75 253.63 Q2085.75 258.283 2087.72 260.968 Q2089.71 263.63 2093.16 263.63 Q2096.56 263.63 2098.55 260.945 Q2100.55 258.26 2100.55 253.63 Q2100.55 249.024 2098.55 246.338 Q2096.56 243.63 2093.16 243.63 M2093.16 240.019 Q2098.72 240.019 2101.89 243.63 Q2105.06 247.241 2105.06 253.63 Q2105.06 259.996 2101.89 263.63 Q2098.72 267.241 2093.16 267.241 Q2087.58 267.241 2084.41 263.63 Q2081.26 259.996 2081.26 253.63 Q2081.26 247.241 2084.41 243.63 Q2087.58 240.019 2093.16 240.019 Z" fill="#000000" fill-rule="evenodd" fill-opacity="1" /><path clip-path="url(#clip780)" d="M2129.18 244.579 L2129.18 230.551 L2133.44 230.551 L2133.44 266.57 L2129.18 266.57 L2129.18 262.681 Q2127.84 264.996 2125.78 266.13 Q2123.74 267.241 2120.87 267.241 Q2116.17 267.241 2113.21 263.491 Q2110.27 259.741 2110.27 253.63 Q2110.27 247.519 2113.21 243.769 Q2116.17 240.019 2120.87 240.019 Q2123.74 240.019 2125.78 241.153 Q2127.84 242.264 2129.18 244.579 M2114.67 253.63 Q2114.67 258.329 2116.59 261.014 Q2118.53 263.676 2121.91 263.676 Q2125.29 263.676 2127.24 261.014 Q2129.18 258.329 2129.18 253.63 Q2129.18 248.931 2127.24 246.269 Q2125.29 243.584 2121.91 243.584 Q2118.53 243.584 2116.59 246.269 Q2114.67 248.931 2114.67 253.63 Z" fill="#000000" fill-rule="evenodd" fill-opacity="1" /><path clip-path="url(#clip780)" d="M2164.39 252.542 L2164.39 254.625 L2144.8 254.625 Q2145.08 259.023 2147.44 261.338 Q2149.83 263.63 2154.06 263.63 Q2156.52 263.63 2158.81 263.028 Q2161.12 262.426 2163.39 261.223 L2163.39 265.25 Q2161.1 266.222 2158.69 266.732 Q2156.29 267.241 2153.81 267.241 Q2147.61 267.241 2143.97 263.63 Q2140.36 260.019 2140.36 253.861 Q2140.36 247.496 2143.79 243.769 Q2147.24 240.019 2153.07 240.019 Q2158.3 240.019 2161.33 243.399 Q2164.39 246.755 2164.39 252.542 M2160.13 251.292 Q2160.08 247.797 2158.16 245.713 Q2156.26 243.63 2153.11 243.63 Q2149.55 243.63 2147.4 245.644 Q2145.27 247.658 2144.94 251.315 L2160.13 251.292 Z" fill="#000000" fill-rule="evenodd" fill-opacity="1" /><path clip-path="url(#clip780)" d="M2171.38 230.551 L2175.64 230.551 L2175.64 266.57 L2171.38 266.57 L2171.38 230.551 Z" fill="#000000" fill-rule="evenodd" fill-opacity="1" /><path clip-path="url(#clip780)" d="M2199.8 232.01 L2204.48 232.01 L2204.48 266.57 L2199.8 266.57 L2199.8 232.01 Z" fill="#000000" fill-rule="evenodd" fill-opacity="1" /><path clip-path="url(#clip780)" d="M2222.7 266.57 L2209.5 232.01 L2214.39 232.01 L2225.34 261.107 L2236.31 232.01 L2241.17 232.01 L2228 266.57 L2222.7 266.57 Z" fill="#000000" fill-rule="evenodd" fill-opacity="1" /></svg>
