<?xml version="1.0" encoding="utf-8"?>
<svg xmlns="http://www.w3.org/2000/svg" xmlns:xlink="http://www.w3.org/1999/xlink" width="600" height="400" viewBox="0 0 2400 1600">
<defs>
  <clipPath id="clip080">
    <rect x="0" y="0" width="2400" height="1600"/>
  </clipPath>
</defs>
<path clip-path="url(#clip080)" d="
M0 1600 L2400 1600 L2400 0 L0 0  Z
  " fill="#ffffff" fill-rule="evenodd" fill-opacity="1"/>
<defs>
  <clipPath id="clip081">
    <rect x="480" y="0" width="1681" height="1600"/>
  </clipPath>
</defs>
<defs>
  <clipPath id="clip082">
    <rect x="300" y="47" width="2054" height="1377"/>
  </clipPath>
</defs>
<path clip-path="url(#clip080)" d="
M300.17 1423.18 L2352.76 1423.18 L2352.76 47.2441 L300.17 47.2441  Z
  " fill="#ffffff" fill-rule="evenodd" fill-opacity="1"/>
<polyline clip-path="url(#clip080)" style="stroke:#000000; stroke-linecap:butt; stroke-linejoin:round; stroke-width:4; stroke-opacity:1; fill:none" points="
  300.17,1423.18 2352.76,1423.18 
  "/>
<polyline clip-path="url(#clip080)" style="stroke:#000000; stroke-linecap:butt; stroke-linejoin:round; stroke-width:4; stroke-opacity:1; fill:none" points="
  345.352,1423.18 345.352,1404.28 
  "/>
<polyline clip-path="url(#clip080)" style="stroke:#000000; stroke-linecap:butt; stroke-linejoin:round; stroke-width:4; stroke-opacity:1; fill:none" points="
  990.82,1423.18 990.82,1404.28 
  "/>
<polyline clip-path="url(#clip080)" style="stroke:#000000; stroke-linecap:butt; stroke-linejoin:round; stroke-width:4; stroke-opacity:1; fill:none" points="
  1636.29,1423.18 1636.29,1404.28 
  "/>
<polyline clip-path="url(#clip080)" style="stroke:#000000; stroke-linecap:butt; stroke-linejoin:round; stroke-width:4; stroke-opacity:1; fill:none" points="
  2281.75,1423.18 2281.75,1404.28 
  "/>
<path clip-path="url(#clip080)" d="M345.352 1452.37 Q341.741 1452.37 339.913 1455.94 Q338.107 1459.48 338.107 1466.61 Q338.107 1473.71 339.913 1477.28 Q341.741 1480.82 345.352 1480.82 Q348.987 1480.82 350.792 1477.28 Q352.621 1473.71 352.621 1466.61 Q352.621 1459.48 350.792 1455.94 Q348.987 1452.37 345.352 1452.37 M345.352 1448.67 Q351.163 1448.67 354.218 1453.27 Q357.297 1457.86 357.297 1466.61 Q357.297 1475.33 354.218 1479.94 Q351.163 1484.52 345.352 1484.52 Q339.542 1484.52 336.464 1479.94 Q333.408 1475.33 333.408 1466.61 Q333.408 1457.86 336.464 1453.27 Q339.542 1448.67 345.352 1448.67 Z" fill="#000000" fill-rule="evenodd" fill-opacity="1" /><path clip-path="url(#clip080)" d="M965.519 1449.29 L983.875 1449.29 L983.875 1453.23 L969.801 1453.23 L969.801 1461.7 Q970.82 1461.35 971.838 1461.19 Q972.857 1461 973.875 1461 Q979.662 1461 983.042 1464.18 Q986.422 1467.35 986.422 1472.76 Q986.422 1478.34 982.949 1481.44 Q979.477 1484.52 973.158 1484.52 Q970.982 1484.52 968.713 1484.15 Q966.468 1483.78 964.061 1483.04 L964.061 1478.34 Q966.144 1479.48 968.366 1480.03 Q970.588 1480.59 973.065 1480.59 Q977.07 1480.59 979.408 1478.48 Q981.746 1476.38 981.746 1472.76 Q981.746 1469.15 979.408 1467.05 Q977.07 1464.94 973.065 1464.94 Q971.19 1464.94 969.315 1465.36 Q967.463 1465.77 965.519 1466.65 L965.519 1449.29 Z" fill="#000000" fill-rule="evenodd" fill-opacity="1" /><path clip-path="url(#clip080)" d="M1005.63 1452.37 Q1002.02 1452.37 1000.19 1455.94 Q998.389 1459.48 998.389 1466.61 Q998.389 1473.71 1000.19 1477.28 Q1002.02 1480.82 1005.63 1480.82 Q1009.27 1480.82 1011.07 1477.28 Q1012.9 1473.71 1012.9 1466.61 Q1012.9 1459.48 1011.07 1455.94 Q1009.27 1452.37 1005.63 1452.37 M1005.63 1448.67 Q1011.44 1448.67 1014.5 1453.27 Q1017.58 1457.86 1017.58 1466.61 Q1017.58 1475.33 1014.5 1479.94 Q1011.44 1484.52 1005.63 1484.52 Q999.824 1484.52 996.746 1479.94 Q993.69 1475.33 993.69 1466.61 Q993.69 1457.86 996.746 1453.27 Q999.824 1448.67 1005.63 1448.67 Z" fill="#000000" fill-rule="evenodd" fill-opacity="1" /><path clip-path="url(#clip080)" d="M1595.89 1479.92 L1603.53 1479.92 L1603.53 1453.55 L1595.22 1455.22 L1595.22 1450.96 L1603.49 1449.29 L1608.16 1449.29 L1608.16 1479.92 L1615.8 1479.92 L1615.8 1483.85 L1595.89 1483.85 L1595.89 1479.92 Z" fill="#000000" fill-rule="evenodd" fill-opacity="1" /><path clip-path="url(#clip080)" d="M1635.25 1452.37 Q1631.63 1452.37 1629.81 1455.94 Q1628 1459.48 1628 1466.61 Q1628 1473.71 1629.81 1477.28 Q1631.63 1480.82 1635.25 1480.82 Q1638.88 1480.82 1640.69 1477.28 Q1642.51 1473.71 1642.51 1466.61 Q1642.51 1459.48 1640.69 1455.94 Q1638.88 1452.37 1635.25 1452.37 M1635.25 1448.67 Q1641.06 1448.67 1644.11 1453.27 Q1647.19 1457.86 1647.19 1466.61 Q1647.19 1475.33 1644.11 1479.94 Q1641.06 1484.52 1635.25 1484.52 Q1629.44 1484.52 1626.36 1479.94 Q1623.3 1475.33 1623.3 1466.61 Q1623.3 1457.86 1626.36 1453.27 Q1629.44 1448.67 1635.25 1448.67 Z" fill="#000000" fill-rule="evenodd" fill-opacity="1" /><path clip-path="url(#clip080)" d="M1665.41 1452.37 Q1661.8 1452.37 1659.97 1455.94 Q1658.16 1459.48 1658.16 1466.61 Q1658.16 1473.71 1659.97 1477.28 Q1661.8 1480.82 1665.41 1480.82 Q1669.04 1480.82 1670.85 1477.28 Q1672.68 1473.71 1672.68 1466.61 Q1672.68 1459.48 1670.85 1455.94 Q1669.04 1452.37 1665.41 1452.37 M1665.41 1448.67 Q1671.22 1448.67 1674.27 1453.27 Q1677.35 1457.86 1677.35 1466.61 Q1677.35 1475.33 1674.27 1479.94 Q1671.22 1484.52 1665.41 1484.52 Q1659.6 1484.52 1656.52 1479.94 Q1653.46 1475.33 1653.46 1466.61 Q1653.46 1457.86 1656.52 1453.27 Q1659.6 1448.67 1665.41 1448.67 Z" fill="#000000" fill-rule="evenodd" fill-opacity="1" /><path clip-path="url(#clip080)" d="M2241.36 1479.92 L2249 1479.92 L2249 1453.55 L2240.69 1455.22 L2240.69 1450.96 L2248.95 1449.29 L2253.63 1449.29 L2253.63 1479.92 L2261.27 1479.92 L2261.27 1483.85 L2241.36 1483.85 L2241.36 1479.92 Z" fill="#000000" fill-rule="evenodd" fill-opacity="1" /><path clip-path="url(#clip080)" d="M2270.76 1449.29 L2289.12 1449.29 L2289.12 1453.23 L2275.04 1453.23 L2275.04 1461.7 Q2276.06 1461.35 2277.08 1461.19 Q2278.1 1461 2279.12 1461 Q2284.9 1461 2288.28 1464.18 Q2291.66 1467.35 2291.66 1472.76 Q2291.66 1478.34 2288.19 1481.44 Q2284.72 1484.52 2278.4 1484.52 Q2276.22 1484.52 2273.95 1484.15 Q2271.71 1483.78 2269.3 1483.04 L2269.3 1478.34 Q2271.38 1479.48 2273.61 1480.03 Q2275.83 1480.59 2278.31 1480.59 Q2282.31 1480.59 2284.65 1478.48 Q2286.99 1476.38 2286.99 1472.76 Q2286.99 1469.15 2284.65 1467.05 Q2282.31 1464.94 2278.31 1464.94 Q2276.43 1464.94 2274.56 1465.36 Q2272.7 1465.77 2270.76 1466.65 L2270.76 1449.29 Z" fill="#000000" fill-rule="evenodd" fill-opacity="1" /><path clip-path="url(#clip080)" d="M2310.87 1452.37 Q2307.26 1452.37 2305.43 1455.94 Q2303.63 1459.48 2303.63 1466.61 Q2303.63 1473.71 2305.43 1477.28 Q2307.26 1480.82 2310.87 1480.82 Q2314.51 1480.82 2316.31 1477.28 Q2318.14 1473.71 2318.14 1466.61 Q2318.14 1459.48 2316.31 1455.94 Q2314.51 1452.37 2310.87 1452.37 M2310.87 1448.67 Q2316.68 1448.67 2319.74 1453.27 Q2322.82 1457.86 2322.82 1466.61 Q2322.82 1475.33 2319.74 1479.94 Q2316.68 1484.52 2310.87 1484.52 Q2305.06 1484.52 2301.99 1479.94 Q2298.93 1475.33 2298.93 1466.61 Q2298.93 1457.86 2301.99 1453.27 Q2305.06 1448.67 2310.87 1448.67 Z" fill="#000000" fill-rule="evenodd" fill-opacity="1" /><path clip-path="url(#clip080)" d="M1049.76 1520.52 L1058.42 1520.52 L1079.49 1560.28 L1079.49 1520.52 L1085.73 1520.52 L1085.73 1568.04 L1077.07 1568.04 L1056 1528.29 L1056 1568.04 L1049.76 1568.04 L1049.76 1520.52 Z" fill="#000000" fill-rule="evenodd" fill-opacity="1" /><path clip-path="url(#clip080)" d="M1097.66 1553.98 L1097.66 1532.4 L1103.52 1532.4 L1103.52 1553.75 Q1103.52 1558.81 1105.49 1561.36 Q1107.47 1563.87 1111.41 1563.87 Q1116.16 1563.87 1118.89 1560.85 Q1121.66 1557.83 1121.66 1552.61 L1121.66 1532.4 L1127.52 1532.4 L1127.52 1568.04 L1121.66 1568.04 L1121.66 1562.57 Q1119.53 1565.82 1116.7 1567.41 Q1113.9 1568.97 1110.17 1568.97 Q1104.03 1568.97 1100.85 1565.15 Q1097.66 1561.33 1097.66 1553.98 M1112.4 1531.54 L1112.4 1531.54 Z" fill="#000000" fill-rule="evenodd" fill-opacity="1" /><path clip-path="url(#clip080)" d="M1167.34 1539.24 Q1169.53 1535.29 1172.59 1533.41 Q1175.64 1531.54 1179.78 1531.54 Q1185.35 1531.54 1188.37 1535.45 Q1191.4 1539.33 1191.4 1546.53 L1191.4 1568.04 L1185.51 1568.04 L1185.51 1546.72 Q1185.51 1541.59 1183.7 1539.11 Q1181.88 1536.63 1178.16 1536.63 Q1173.61 1536.63 1170.96 1539.65 Q1168.32 1542.68 1168.32 1547.9 L1168.32 1568.04 L1162.43 1568.04 L1162.43 1546.72 Q1162.43 1541.56 1160.62 1539.11 Q1158.81 1536.63 1155.02 1536.63 Q1150.53 1536.63 1147.89 1539.68 Q1145.25 1542.71 1145.25 1547.9 L1145.25 1568.04 L1139.36 1568.04 L1139.36 1532.4 L1145.25 1532.4 L1145.25 1537.93 Q1147.25 1534.66 1150.05 1533.1 Q1152.85 1531.54 1156.71 1531.54 Q1160.59 1531.54 1163.29 1533.51 Q1166.03 1535.48 1167.34 1539.24 Z" fill="#000000" fill-rule="evenodd" fill-opacity="1" /><path clip-path="url(#clip080)" d="M1228.67 1550.25 Q1228.67 1543.79 1226 1540.13 Q1223.35 1536.44 1218.71 1536.44 Q1214.06 1536.44 1211.39 1540.13 Q1208.74 1543.79 1208.74 1550.25 Q1208.74 1556.71 1211.39 1560.4 Q1214.06 1564.07 1218.71 1564.07 Q1223.35 1564.07 1226 1560.4 Q1228.67 1556.71 1228.67 1550.25 M1208.74 1537.81 Q1210.59 1534.62 1213.39 1533.1 Q1216.22 1531.54 1220.14 1531.54 Q1226.63 1531.54 1230.67 1536.69 Q1234.75 1541.85 1234.75 1550.25 Q1234.75 1558.65 1230.67 1563.81 Q1226.63 1568.97 1220.14 1568.97 Q1216.22 1568.97 1213.39 1567.44 Q1210.59 1565.88 1208.74 1562.7 L1208.74 1568.04 L1202.86 1568.04 L1202.86 1518.52 L1208.74 1518.52 L1208.74 1537.81 Z" fill="#000000" fill-rule="evenodd" fill-opacity="1" /><path clip-path="url(#clip080)" d="M1274.95 1548.76 L1274.95 1551.62 L1248.02 1551.62 Q1248.4 1557.67 1251.65 1560.85 Q1254.93 1564 1260.75 1564 Q1264.13 1564 1267.28 1563.17 Q1270.46 1562.35 1273.58 1560.69 L1273.58 1566.23 Q1270.43 1567.57 1267.12 1568.27 Q1263.81 1568.97 1260.4 1568.97 Q1251.87 1568.97 1246.88 1564 Q1241.91 1559.04 1241.91 1550.57 Q1241.91 1541.82 1246.62 1536.69 Q1251.36 1531.54 1259.38 1531.54 Q1266.58 1531.54 1270.75 1536.18 Q1274.95 1540.8 1274.95 1548.76 M1269.09 1547.04 Q1269.03 1542.23 1266.39 1539.37 Q1263.78 1536.5 1259.45 1536.5 Q1254.55 1536.5 1251.59 1539.27 Q1248.66 1542.04 1248.21 1547.07 L1269.09 1547.04 Z" fill="#000000" fill-rule="evenodd" fill-opacity="1" /><path clip-path="url(#clip080)" d="M1305.22 1537.87 Q1304.23 1537.3 1303.05 1537.04 Q1301.91 1536.76 1300.51 1536.76 Q1295.54 1536.76 1292.87 1540 Q1290.23 1543.22 1290.23 1549.27 L1290.23 1568.04 L1284.34 1568.04 L1284.34 1532.4 L1290.23 1532.4 L1290.23 1537.93 Q1292.07 1534.69 1295.03 1533.13 Q1297.99 1531.54 1302.23 1531.54 Q1302.83 1531.54 1303.56 1531.63 Q1304.29 1531.7 1305.19 1531.85 L1305.22 1537.87 Z" fill="#000000" fill-rule="evenodd" fill-opacity="1" /><path clip-path="url(#clip080)" d="M1345.89 1536.5 Q1341.18 1536.5 1338.45 1540.19 Q1335.71 1543.85 1335.71 1550.25 Q1335.71 1556.65 1338.41 1560.34 Q1341.15 1564 1345.89 1564 Q1350.57 1564 1353.31 1560.31 Q1356.05 1556.62 1356.05 1550.25 Q1356.05 1543.92 1353.31 1540.23 Q1350.57 1536.5 1345.89 1536.5 M1345.89 1531.54 Q1353.53 1531.54 1357.89 1536.5 Q1362.25 1541.47 1362.25 1550.25 Q1362.25 1559 1357.89 1564 Q1353.53 1568.97 1345.89 1568.97 Q1338.22 1568.97 1333.86 1564 Q1329.53 1559 1329.53 1550.25 Q1329.53 1541.47 1333.86 1536.5 Q1338.22 1531.54 1345.89 1531.54 Z" fill="#000000" fill-rule="evenodd" fill-opacity="1" /><path clip-path="url(#clip080)" d="M1390.01 1518.52 L1390.01 1523.39 L1384.41 1523.39 Q1381.26 1523.39 1380.01 1524.66 Q1378.8 1525.93 1378.8 1529.24 L1378.8 1532.4 L1388.45 1532.4 L1388.45 1536.95 L1378.8 1536.95 L1378.8 1568.04 L1372.92 1568.04 L1372.92 1536.95 L1367.31 1536.95 L1367.31 1532.4 L1372.92 1532.4 L1372.92 1529.91 Q1372.92 1523.96 1375.69 1521.26 Q1378.45 1518.52 1384.47 1518.52 L1390.01 1518.52 Z" fill="#000000" fill-rule="evenodd" fill-opacity="1" /><path clip-path="url(#clip080)" d="M1439.09 1549.81 Q1439.09 1543.44 1436.45 1539.94 Q1433.84 1536.44 1429.09 1536.44 Q1424.38 1536.44 1421.74 1539.94 Q1419.13 1543.44 1419.13 1549.81 Q1419.13 1556.14 1421.74 1559.64 Q1424.38 1563.14 1429.09 1563.14 Q1433.84 1563.14 1436.45 1559.64 Q1439.09 1556.14 1439.09 1549.81 M1444.94 1563.62 Q1444.94 1572.72 1440.9 1577.15 Q1436.86 1581.6 1428.52 1581.6 Q1425.43 1581.6 1422.7 1581.13 Q1419.96 1580.68 1417.38 1579.72 L1417.38 1574.03 Q1419.96 1575.43 1422.47 1576.1 Q1424.99 1576.76 1427.6 1576.76 Q1433.36 1576.76 1436.22 1573.74 Q1439.09 1570.75 1439.09 1564.67 L1439.09 1561.77 Q1437.27 1564.92 1434.44 1566.48 Q1431.61 1568.04 1427.66 1568.04 Q1421.1 1568.04 1417.09 1563.05 Q1413.08 1558.05 1413.08 1549.81 Q1413.08 1541.53 1417.09 1536.53 Q1421.1 1531.54 1427.66 1531.54 Q1431.61 1531.54 1434.44 1533.1 Q1437.27 1534.66 1439.09 1537.81 L1439.09 1532.4 L1444.94 1532.4 L1444.94 1563.62 Z" fill="#000000" fill-rule="evenodd" fill-opacity="1" /><path clip-path="url(#clip080)" d="M1487.5 1548.76 L1487.5 1551.62 L1460.57 1551.62 Q1460.95 1557.67 1464.2 1560.85 Q1467.48 1564 1473.3 1564 Q1476.68 1564 1479.83 1563.17 Q1483.01 1562.35 1486.13 1560.69 L1486.13 1566.23 Q1482.98 1567.57 1479.67 1568.27 Q1476.36 1568.97 1472.95 1568.97 Q1464.42 1568.97 1459.43 1564 Q1454.46 1559.04 1454.46 1550.57 Q1454.46 1541.82 1459.17 1536.69 Q1463.91 1531.54 1471.94 1531.54 Q1479.13 1531.54 1483.3 1536.18 Q1487.5 1540.8 1487.5 1548.76 M1481.64 1547.04 Q1481.58 1542.23 1478.94 1539.37 Q1476.33 1536.5 1472 1536.5 Q1467.1 1536.5 1464.14 1539.27 Q1461.21 1542.04 1460.76 1547.07 L1481.64 1547.04 Z" fill="#000000" fill-rule="evenodd" fill-opacity="1" /><path clip-path="url(#clip080)" d="M1526.74 1546.53 L1526.74 1568.04 L1520.89 1568.04 L1520.89 1546.72 Q1520.89 1541.66 1518.91 1539.14 Q1516.94 1536.63 1512.99 1536.63 Q1508.25 1536.63 1505.51 1539.65 Q1502.78 1542.68 1502.78 1547.9 L1502.78 1568.04 L1496.89 1568.04 L1496.89 1532.4 L1502.78 1532.4 L1502.78 1537.93 Q1504.88 1534.72 1507.71 1533.13 Q1510.57 1531.54 1514.3 1531.54 Q1520.44 1531.54 1523.59 1535.36 Q1526.74 1539.14 1526.74 1546.53 Z" fill="#000000" fill-rule="evenodd" fill-opacity="1" /><path clip-path="url(#clip080)" d="M1568.92 1548.76 L1568.92 1551.62 L1541.99 1551.62 Q1542.37 1557.67 1545.62 1560.85 Q1548.9 1564 1554.72 1564 Q1558.09 1564 1561.25 1563.17 Q1564.43 1562.35 1567.55 1560.69 L1567.55 1566.23 Q1564.4 1567.57 1561.09 1568.27 Q1557.78 1568.97 1554.37 1568.97 Q1545.84 1568.97 1540.84 1564 Q1535.88 1559.04 1535.88 1550.57 Q1535.88 1541.82 1540.59 1536.69 Q1545.33 1531.54 1553.35 1531.54 Q1560.55 1531.54 1564.72 1536.18 Q1568.92 1540.8 1568.92 1548.76 M1563.06 1547.04 Q1563 1542.23 1560.35 1539.37 Q1557.74 1536.5 1553.42 1536.5 Q1548.51 1536.5 1545.55 1539.27 Q1542.63 1542.04 1542.18 1547.07 L1563.06 1547.04 Z" fill="#000000" fill-rule="evenodd" fill-opacity="1" /><path clip-path="url(#clip080)" d="M1601.25 1533.45 L1601.25 1538.98 Q1598.77 1537.71 1596.1 1537.07 Q1593.42 1536.44 1590.56 1536.44 Q1586.2 1536.44 1584 1537.77 Q1581.84 1539.11 1581.84 1541.79 Q1581.84 1543.82 1583.4 1545 Q1584.96 1546.15 1589.67 1547.2 L1591.67 1547.64 Q1597.91 1548.98 1600.52 1551.43 Q1603.16 1553.85 1603.16 1558.21 Q1603.16 1563.17 1599.22 1566.07 Q1595.3 1568.97 1588.43 1568.97 Q1585.56 1568.97 1582.44 1568.39 Q1579.36 1567.85 1575.92 1566.74 L1575.92 1560.69 Q1579.17 1562.38 1582.32 1563.24 Q1585.47 1564.07 1588.55 1564.07 Q1592.69 1564.07 1594.92 1562.66 Q1597.15 1561.23 1597.15 1558.65 Q1597.15 1556.27 1595.53 1554.99 Q1593.93 1553.72 1588.49 1552.54 L1586.45 1552.07 Q1581.01 1550.92 1578.59 1548.56 Q1576.17 1546.18 1576.17 1542.04 Q1576.17 1537.01 1579.74 1534.27 Q1583.3 1531.54 1589.86 1531.54 Q1593.11 1531.54 1595.97 1532.01 Q1598.84 1532.49 1601.25 1533.45 Z" fill="#000000" fill-rule="evenodd" fill-opacity="1" /><polyline clip-path="url(#clip080)" style="stroke:#000000; stroke-linecap:butt; stroke-linejoin:round; stroke-width:4; stroke-opacity:1; fill:none" points="
  300.17,1423.18 300.17,47.2441 
  "/>
<polyline clip-path="url(#clip080)" style="stroke:#000000; stroke-linecap:butt; stroke-linejoin:round; stroke-width:4; stroke-opacity:1; fill:none" points="
  300.17,1224.76 319.067,1224.76 
  "/>
<polyline clip-path="url(#clip080)" style="stroke:#000000; stroke-linecap:butt; stroke-linejoin:round; stroke-width:4; stroke-opacity:1; fill:none" points="
  300.17,967.164 319.067,967.164 
  "/>
<polyline clip-path="url(#clip080)" style="stroke:#000000; stroke-linecap:butt; stroke-linejoin:round; stroke-width:4; stroke-opacity:1; fill:none" points="
  300.17,709.57 319.067,709.57 
  "/>
<polyline clip-path="url(#clip080)" style="stroke:#000000; stroke-linecap:butt; stroke-linejoin:round; stroke-width:4; stroke-opacity:1; fill:none" points="
  300.17,451.976 319.067,451.976 
  "/>
<polyline clip-path="url(#clip080)" style="stroke:#000000; stroke-linecap:butt; stroke-linejoin:round; stroke-width:4; stroke-opacity:1; fill:none" points="
  300.17,194.381 319.067,194.381 
  "/>
<path clip-path="url(#clip080)" d="M66.7402 1225.21 L96.4159 1225.21 L96.4159 1229.15 L66.7402 1229.15 L66.7402 1225.21 Z" fill="#000000" fill-rule="evenodd" fill-opacity="1" /><path clip-path="url(#clip080)" d="M116.508 1210.56 Q112.897 1210.56 111.069 1214.12 Q109.263 1217.66 109.263 1224.79 Q109.263 1231.9 111.069 1235.46 Q112.897 1239.01 116.508 1239.01 Q120.143 1239.01 121.948 1235.46 Q123.777 1231.9 123.777 1224.79 Q123.777 1217.66 121.948 1214.12 Q120.143 1210.56 116.508 1210.56 M116.508 1206.85 Q122.319 1206.85 125.374 1211.46 Q128.453 1216.04 128.453 1224.79 Q128.453 1233.52 125.374 1238.13 Q122.319 1242.71 116.508 1242.71 Q110.698 1242.71 107.62 1238.13 Q104.564 1233.52 104.564 1224.79 Q104.564 1216.04 107.62 1211.46 Q110.698 1206.85 116.508 1206.85 Z" fill="#000000" fill-rule="evenodd" fill-opacity="1" /><path clip-path="url(#clip080)" d="M136.67 1236.16 L141.555 1236.16 L141.555 1242.04 L136.67 1242.04 L136.67 1236.16 Z" fill="#000000" fill-rule="evenodd" fill-opacity="1" /><path clip-path="url(#clip080)" d="M161.74 1210.56 Q158.129 1210.56 156.3 1214.12 Q154.494 1217.66 154.494 1224.79 Q154.494 1231.9 156.3 1235.46 Q158.129 1239.01 161.74 1239.01 Q165.374 1239.01 167.179 1235.46 Q169.008 1231.9 169.008 1224.79 Q169.008 1217.66 167.179 1214.12 Q165.374 1210.56 161.74 1210.56 M161.74 1206.85 Q167.55 1206.85 170.605 1211.46 Q173.684 1216.04 173.684 1224.79 Q173.684 1233.52 170.605 1238.13 Q167.55 1242.71 161.74 1242.71 Q155.929 1242.71 152.851 1238.13 Q149.795 1233.52 149.795 1224.79 Q149.795 1216.04 152.851 1211.46 Q155.929 1206.85 161.74 1206.85 Z" fill="#000000" fill-rule="evenodd" fill-opacity="1" /><path clip-path="url(#clip080)" d="M191.902 1210.56 Q188.29 1210.56 186.462 1214.12 Q184.656 1217.66 184.656 1224.79 Q184.656 1231.9 186.462 1235.46 Q188.29 1239.01 191.902 1239.01 Q195.536 1239.01 197.341 1235.46 Q199.17 1231.9 199.17 1224.79 Q199.17 1217.66 197.341 1214.12 Q195.536 1210.56 191.902 1210.56 M191.902 1206.85 Q197.712 1206.85 200.767 1211.46 Q203.846 1216.04 203.846 1224.79 Q203.846 1233.52 200.767 1238.13 Q197.712 1242.71 191.902 1242.71 Q186.091 1242.71 183.013 1238.13 Q179.957 1233.52 179.957 1224.79 Q179.957 1216.04 183.013 1211.46 Q186.091 1206.85 191.902 1206.85 Z" fill="#000000" fill-rule="evenodd" fill-opacity="1" /><path clip-path="url(#clip080)" d="M212.11 1207.48 L230.466 1207.48 L230.466 1211.41 L216.392 1211.41 L216.392 1219.89 Q217.411 1219.54 218.429 1219.38 Q219.448 1219.19 220.466 1219.19 Q226.253 1219.19 229.633 1222.36 Q233.012 1225.53 233.012 1230.95 Q233.012 1236.53 229.54 1239.63 Q226.068 1242.71 219.749 1242.71 Q217.573 1242.71 215.304 1242.34 Q213.059 1241.97 210.651 1241.23 L210.651 1236.53 Q212.735 1237.66 214.957 1238.22 Q217.179 1238.77 219.656 1238.77 Q223.661 1238.77 225.999 1236.67 Q228.337 1234.56 228.337 1230.95 Q228.337 1227.34 225.999 1225.23 Q223.661 1223.13 219.656 1223.13 Q217.781 1223.13 215.906 1223.54 Q214.054 1223.96 212.11 1224.84 L212.11 1207.48 Z" fill="#000000" fill-rule="evenodd" fill-opacity="1" /><path clip-path="url(#clip080)" d="M252.225 1210.56 Q248.614 1210.56 246.785 1214.12 Q244.98 1217.66 244.98 1224.79 Q244.98 1231.9 246.785 1235.46 Q248.614 1239.01 252.225 1239.01 Q255.86 1239.01 257.665 1235.46 Q259.494 1231.9 259.494 1224.79 Q259.494 1217.66 257.665 1214.12 Q255.86 1210.56 252.225 1210.56 M252.225 1206.85 Q258.035 1206.85 261.091 1211.46 Q264.17 1216.04 264.17 1224.79 Q264.17 1233.52 261.091 1238.13 Q258.035 1242.71 252.225 1242.71 Q246.415 1242.71 243.336 1238.13 Q240.281 1233.52 240.281 1224.79 Q240.281 1216.04 243.336 1211.46 Q246.415 1206.85 252.225 1206.85 Z" fill="#000000" fill-rule="evenodd" fill-opacity="1" /><path clip-path="url(#clip080)" d="M67.7355 967.616 L97.4113 967.616 L97.4113 971.551 L67.7355 971.551 L67.7355 967.616 Z" fill="#000000" fill-rule="evenodd" fill-opacity="1" /><path clip-path="url(#clip080)" d="M117.504 952.963 Q113.893 952.963 112.064 956.528 Q110.258 960.069 110.258 967.199 Q110.258 974.306 112.064 977.87 Q113.893 981.412 117.504 981.412 Q121.138 981.412 122.944 977.87 Q124.772 974.306 124.772 967.199 Q124.772 960.069 122.944 956.528 Q121.138 952.963 117.504 952.963 M117.504 949.259 Q123.314 949.259 126.369 953.866 Q129.448 958.449 129.448 967.199 Q129.448 975.926 126.369 980.532 Q123.314 985.116 117.504 985.116 Q111.694 985.116 108.615 980.532 Q105.559 975.926 105.559 967.199 Q105.559 958.449 108.615 953.866 Q111.694 949.259 117.504 949.259 Z" fill="#000000" fill-rule="evenodd" fill-opacity="1" /><path clip-path="url(#clip080)" d="M137.666 978.565 L142.55 978.565 L142.55 984.444 L137.666 984.444 L137.666 978.565 Z" fill="#000000" fill-rule="evenodd" fill-opacity="1" /><path clip-path="url(#clip080)" d="M162.735 952.963 Q159.124 952.963 157.295 956.528 Q155.49 960.069 155.49 967.199 Q155.49 974.306 157.295 977.87 Q159.124 981.412 162.735 981.412 Q166.369 981.412 168.175 977.87 Q170.003 974.306 170.003 967.199 Q170.003 960.069 168.175 956.528 Q166.369 952.963 162.735 952.963 M162.735 949.259 Q168.545 949.259 171.601 953.866 Q174.679 958.449 174.679 967.199 Q174.679 975.926 171.601 980.532 Q168.545 985.116 162.735 985.116 Q156.925 985.116 153.846 980.532 Q150.791 975.926 150.791 967.199 Q150.791 958.449 153.846 953.866 Q156.925 949.259 162.735 949.259 Z" fill="#000000" fill-rule="evenodd" fill-opacity="1" /><path clip-path="url(#clip080)" d="M192.897 952.963 Q189.286 952.963 187.457 956.528 Q185.652 960.069 185.652 967.199 Q185.652 974.306 187.457 977.87 Q189.286 981.412 192.897 981.412 Q196.531 981.412 198.337 977.87 Q200.165 974.306 200.165 967.199 Q200.165 960.069 198.337 956.528 Q196.531 952.963 192.897 952.963 M192.897 949.259 Q198.707 949.259 201.763 953.866 Q204.841 958.449 204.841 967.199 Q204.841 975.926 201.763 980.532 Q198.707 985.116 192.897 985.116 Q187.087 985.116 184.008 980.532 Q180.953 975.926 180.953 967.199 Q180.953 958.449 184.008 953.866 Q187.087 949.259 192.897 949.259 Z" fill="#000000" fill-rule="evenodd" fill-opacity="1" /><path clip-path="url(#clip080)" d="M217.087 980.509 L233.406 980.509 L233.406 984.444 L211.462 984.444 L211.462 980.509 Q214.124 977.755 218.707 973.125 Q223.313 968.472 224.494 967.13 Q226.739 964.607 227.619 962.87 Q228.522 961.111 228.522 959.421 Q228.522 956.667 226.577 954.931 Q224.656 953.195 221.554 953.195 Q219.355 953.195 216.901 953.958 Q214.471 954.722 211.693 956.273 L211.693 951.551 Q214.517 950.417 216.971 949.838 Q219.425 949.259 221.462 949.259 Q226.832 949.259 230.026 951.945 Q233.221 954.63 233.221 959.12 Q233.221 961.25 232.411 963.171 Q231.624 965.069 229.517 967.662 Q228.938 968.333 225.837 971.551 Q222.735 974.745 217.087 980.509 Z" fill="#000000" fill-rule="evenodd" fill-opacity="1" /><path clip-path="url(#clip080)" d="M243.267 949.884 L261.623 949.884 L261.623 953.82 L247.549 953.82 L247.549 962.292 Q248.568 961.944 249.586 961.782 Q250.605 961.597 251.623 961.597 Q257.41 961.597 260.79 964.769 Q264.17 967.94 264.17 973.356 Q264.17 978.935 260.697 982.037 Q257.225 985.116 250.906 985.116 Q248.73 985.116 246.461 984.745 Q244.216 984.375 241.809 983.634 L241.809 978.935 Q243.892 980.069 246.114 980.625 Q248.336 981.18 250.813 981.18 Q254.818 981.18 257.156 979.074 Q259.494 976.968 259.494 973.356 Q259.494 969.745 257.156 967.639 Q254.818 965.532 250.813 965.532 Q248.938 965.532 247.063 965.949 Q245.211 966.366 243.267 967.245 L243.267 949.884 Z" fill="#000000" fill-rule="evenodd" fill-opacity="1" /><path clip-path="url(#clip080)" d="M116.508 695.369 Q112.897 695.369 111.069 698.933 Q109.263 702.475 109.263 709.605 Q109.263 716.711 111.069 720.276 Q112.897 723.818 116.508 723.818 Q120.143 723.818 121.948 720.276 Q123.777 716.711 123.777 709.605 Q123.777 702.475 121.948 698.933 Q120.143 695.369 116.508 695.369 M116.508 691.665 Q122.319 691.665 125.374 696.271 Q128.453 700.855 128.453 709.605 Q128.453 718.331 125.374 722.938 Q122.319 727.521 116.508 727.521 Q110.698 727.521 107.62 722.938 Q104.564 718.331 104.564 709.605 Q104.564 700.855 107.62 696.271 Q110.698 691.665 116.508 691.665 Z" fill="#000000" fill-rule="evenodd" fill-opacity="1" /><path clip-path="url(#clip080)" d="M136.67 720.97 L141.555 720.97 L141.555 726.85 L136.67 726.85 L136.67 720.97 Z" fill="#000000" fill-rule="evenodd" fill-opacity="1" /><path clip-path="url(#clip080)" d="M161.74 695.369 Q158.129 695.369 156.3 698.933 Q154.494 702.475 154.494 709.605 Q154.494 716.711 156.3 720.276 Q158.129 723.818 161.74 723.818 Q165.374 723.818 167.179 720.276 Q169.008 716.711 169.008 709.605 Q169.008 702.475 167.179 698.933 Q165.374 695.369 161.74 695.369 M161.74 691.665 Q167.55 691.665 170.605 696.271 Q173.684 700.855 173.684 709.605 Q173.684 718.331 170.605 722.938 Q167.55 727.521 161.74 727.521 Q155.929 727.521 152.851 722.938 Q149.795 718.331 149.795 709.605 Q149.795 700.855 152.851 696.271 Q155.929 691.665 161.74 691.665 Z" fill="#000000" fill-rule="evenodd" fill-opacity="1" /><path clip-path="url(#clip080)" d="M191.902 695.369 Q188.29 695.369 186.462 698.933 Q184.656 702.475 184.656 709.605 Q184.656 716.711 186.462 720.276 Q188.29 723.818 191.902 723.818 Q195.536 723.818 197.341 720.276 Q199.17 716.711 199.17 709.605 Q199.17 702.475 197.341 698.933 Q195.536 695.369 191.902 695.369 M191.902 691.665 Q197.712 691.665 200.767 696.271 Q203.846 700.855 203.846 709.605 Q203.846 718.331 200.767 722.938 Q197.712 727.521 191.902 727.521 Q186.091 727.521 183.013 722.938 Q179.957 718.331 179.957 709.605 Q179.957 700.855 183.013 696.271 Q186.091 691.665 191.902 691.665 Z" fill="#000000" fill-rule="evenodd" fill-opacity="1" /><path clip-path="url(#clip080)" d="M222.063 695.369 Q218.452 695.369 216.624 698.933 Q214.818 702.475 214.818 709.605 Q214.818 716.711 216.624 720.276 Q218.452 723.818 222.063 723.818 Q225.698 723.818 227.503 720.276 Q229.332 716.711 229.332 709.605 Q229.332 702.475 227.503 698.933 Q225.698 695.369 222.063 695.369 M222.063 691.665 Q227.874 691.665 230.929 696.271 Q234.008 700.855 234.008 709.605 Q234.008 718.331 230.929 722.938 Q227.874 727.521 222.063 727.521 Q216.253 727.521 213.175 722.938 Q210.119 718.331 210.119 709.605 Q210.119 700.855 213.175 696.271 Q216.253 691.665 222.063 691.665 Z" fill="#000000" fill-rule="evenodd" fill-opacity="1" /><path clip-path="url(#clip080)" d="M252.225 695.369 Q248.614 695.369 246.785 698.933 Q244.98 702.475 244.98 709.605 Q244.98 716.711 246.785 720.276 Q248.614 723.818 252.225 723.818 Q255.86 723.818 257.665 720.276 Q259.494 716.711 259.494 709.605 Q259.494 702.475 257.665 698.933 Q255.86 695.369 252.225 695.369 M252.225 691.665 Q258.035 691.665 261.091 696.271 Q264.17 700.855 264.17 709.605 Q264.17 718.331 261.091 722.938 Q258.035 727.521 252.225 727.521 Q246.415 727.521 243.336 722.938 Q240.281 718.331 240.281 709.605 Q240.281 700.855 243.336 696.271 Q246.415 691.665 252.225 691.665 Z" fill="#000000" fill-rule="evenodd" fill-opacity="1" /><path clip-path="url(#clip080)" d="M117.504 437.774 Q113.893 437.774 112.064 441.339 Q110.258 444.881 110.258 452.01 Q110.258 459.117 112.064 462.681 Q113.893 466.223 117.504 466.223 Q121.138 466.223 122.944 462.681 Q124.772 459.117 124.772 452.01 Q124.772 444.881 122.944 441.339 Q121.138 437.774 117.504 437.774 M117.504 434.071 Q123.314 434.071 126.369 438.677 Q129.448 443.26 129.448 452.01 Q129.448 460.737 126.369 465.343 Q123.314 469.927 117.504 469.927 Q111.694 469.927 108.615 465.343 Q105.559 460.737 105.559 452.01 Q105.559 443.26 108.615 438.677 Q111.694 434.071 117.504 434.071 Z" fill="#000000" fill-rule="evenodd" fill-opacity="1" /><path clip-path="url(#clip080)" d="M137.666 463.376 L142.55 463.376 L142.55 469.256 L137.666 469.256 L137.666 463.376 Z" fill="#000000" fill-rule="evenodd" fill-opacity="1" /><path clip-path="url(#clip080)" d="M162.735 437.774 Q159.124 437.774 157.295 441.339 Q155.49 444.881 155.49 452.01 Q155.49 459.117 157.295 462.681 Q159.124 466.223 162.735 466.223 Q166.369 466.223 168.175 462.681 Q170.003 459.117 170.003 452.01 Q170.003 444.881 168.175 441.339 Q166.369 437.774 162.735 437.774 M162.735 434.071 Q168.545 434.071 171.601 438.677 Q174.679 443.26 174.679 452.01 Q174.679 460.737 171.601 465.343 Q168.545 469.927 162.735 469.927 Q156.925 469.927 153.846 465.343 Q150.791 460.737 150.791 452.01 Q150.791 443.26 153.846 438.677 Q156.925 434.071 162.735 434.071 Z" fill="#000000" fill-rule="evenodd" fill-opacity="1" /><path clip-path="url(#clip080)" d="M192.897 437.774 Q189.286 437.774 187.457 441.339 Q185.652 444.881 185.652 452.01 Q185.652 459.117 187.457 462.681 Q189.286 466.223 192.897 466.223 Q196.531 466.223 198.337 462.681 Q200.165 459.117 200.165 452.01 Q200.165 444.881 198.337 441.339 Q196.531 437.774 192.897 437.774 M192.897 434.071 Q198.707 434.071 201.763 438.677 Q204.841 443.26 204.841 452.01 Q204.841 460.737 201.763 465.343 Q198.707 469.927 192.897 469.927 Q187.087 469.927 184.008 465.343 Q180.953 460.737 180.953 452.01 Q180.953 443.26 184.008 438.677 Q187.087 434.071 192.897 434.071 Z" fill="#000000" fill-rule="evenodd" fill-opacity="1" /><path clip-path="url(#clip080)" d="M217.087 465.32 L233.406 465.32 L233.406 469.256 L211.462 469.256 L211.462 465.32 Q214.124 462.566 218.707 457.936 Q223.313 453.283 224.494 451.941 Q226.739 449.418 227.619 447.682 Q228.522 445.922 228.522 444.232 Q228.522 441.478 226.577 439.742 Q224.656 438.006 221.554 438.006 Q219.355 438.006 216.901 438.77 Q214.471 439.533 211.693 441.084 L211.693 436.362 Q214.517 435.228 216.971 434.649 Q219.425 434.071 221.462 434.071 Q226.832 434.071 230.026 436.756 Q233.221 439.441 233.221 443.932 Q233.221 446.061 232.411 447.982 Q231.624 449.881 229.517 452.473 Q228.938 453.144 225.837 456.362 Q222.735 459.556 217.087 465.32 Z" fill="#000000" fill-rule="evenodd" fill-opacity="1" /><path clip-path="url(#clip080)" d="M243.267 434.696 L261.623 434.696 L261.623 438.631 L247.549 438.631 L247.549 447.103 Q248.568 446.756 249.586 446.594 Q250.605 446.408 251.623 446.408 Q257.41 446.408 260.79 449.58 Q264.17 452.751 264.17 458.168 Q264.17 463.746 260.697 466.848 Q257.225 469.927 250.906 469.927 Q248.73 469.927 246.461 469.556 Q244.216 469.186 241.809 468.445 L241.809 463.746 Q243.892 464.881 246.114 465.436 Q248.336 465.992 250.813 465.992 Q254.818 465.992 257.156 463.885 Q259.494 461.779 259.494 458.168 Q259.494 454.557 257.156 452.45 Q254.818 450.344 250.813 450.344 Q248.938 450.344 247.063 450.76 Q245.211 451.177 243.267 452.057 L243.267 434.696 Z" fill="#000000" fill-rule="evenodd" fill-opacity="1" /><path clip-path="url(#clip080)" d="M116.508 180.18 Q112.897 180.18 111.069 183.745 Q109.263 187.286 109.263 194.416 Q109.263 201.522 111.069 205.087 Q112.897 208.629 116.508 208.629 Q120.143 208.629 121.948 205.087 Q123.777 201.522 123.777 194.416 Q123.777 187.286 121.948 183.745 Q120.143 180.18 116.508 180.18 M116.508 176.476 Q122.319 176.476 125.374 181.083 Q128.453 185.666 128.453 194.416 Q128.453 203.143 125.374 207.749 Q122.319 212.332 116.508 212.332 Q110.698 212.332 107.62 207.749 Q104.564 203.143 104.564 194.416 Q104.564 185.666 107.62 181.083 Q110.698 176.476 116.508 176.476 Z" fill="#000000" fill-rule="evenodd" fill-opacity="1" /><path clip-path="url(#clip080)" d="M136.67 205.781 L141.555 205.781 L141.555 211.661 L136.67 211.661 L136.67 205.781 Z" fill="#000000" fill-rule="evenodd" fill-opacity="1" /><path clip-path="url(#clip080)" d="M161.74 180.18 Q158.129 180.18 156.3 183.745 Q154.494 187.286 154.494 194.416 Q154.494 201.522 156.3 205.087 Q158.129 208.629 161.74 208.629 Q165.374 208.629 167.179 205.087 Q169.008 201.522 169.008 194.416 Q169.008 187.286 167.179 183.745 Q165.374 180.18 161.74 180.18 M161.74 176.476 Q167.55 176.476 170.605 181.083 Q173.684 185.666 173.684 194.416 Q173.684 203.143 170.605 207.749 Q167.55 212.332 161.74 212.332 Q155.929 212.332 152.851 207.749 Q149.795 203.143 149.795 194.416 Q149.795 185.666 152.851 181.083 Q155.929 176.476 161.74 176.476 Z" fill="#000000" fill-rule="evenodd" fill-opacity="1" /><path clip-path="url(#clip080)" d="M191.902 180.18 Q188.29 180.18 186.462 183.745 Q184.656 187.286 184.656 194.416 Q184.656 201.522 186.462 205.087 Q188.29 208.629 191.902 208.629 Q195.536 208.629 197.341 205.087 Q199.17 201.522 199.17 194.416 Q199.17 187.286 197.341 183.745 Q195.536 180.18 191.902 180.18 M191.902 176.476 Q197.712 176.476 200.767 181.083 Q203.846 185.666 203.846 194.416 Q203.846 203.143 200.767 207.749 Q197.712 212.332 191.902 212.332 Q186.091 212.332 183.013 207.749 Q179.957 203.143 179.957 194.416 Q179.957 185.666 183.013 181.083 Q186.091 176.476 191.902 176.476 Z" fill="#000000" fill-rule="evenodd" fill-opacity="1" /><path clip-path="url(#clip080)" d="M212.11 177.101 L230.466 177.101 L230.466 181.036 L216.392 181.036 L216.392 189.508 Q217.411 189.161 218.429 188.999 Q219.448 188.814 220.466 188.814 Q226.253 188.814 229.633 191.985 Q233.012 195.157 233.012 200.573 Q233.012 206.152 229.54 209.254 Q226.068 212.332 219.749 212.332 Q217.573 212.332 215.304 211.962 Q213.059 211.592 210.651 210.851 L210.651 206.152 Q212.735 207.286 214.957 207.842 Q217.179 208.397 219.656 208.397 Q223.661 208.397 225.999 206.291 Q228.337 204.184 228.337 200.573 Q228.337 196.962 225.999 194.856 Q223.661 192.749 219.656 192.749 Q217.781 192.749 215.906 193.166 Q214.054 193.582 212.11 194.462 L212.11 177.101 Z" fill="#000000" fill-rule="evenodd" fill-opacity="1" /><path clip-path="url(#clip080)" d="M252.225 180.18 Q248.614 180.18 246.785 183.745 Q244.98 187.286 244.98 194.416 Q244.98 201.522 246.785 205.087 Q248.614 208.629 252.225 208.629 Q255.86 208.629 257.665 205.087 Q259.494 201.522 259.494 194.416 Q259.494 187.286 257.665 183.745 Q255.86 180.18 252.225 180.18 M252.225 176.476 Q258.035 176.476 261.091 181.083 Q264.17 185.666 264.17 194.416 Q264.17 203.143 261.091 207.749 Q258.035 212.332 252.225 212.332 Q246.415 212.332 243.336 207.749 Q240.281 203.143 240.281 194.416 Q240.281 185.666 243.336 181.083 Q246.415 176.476 252.225 176.476 Z" fill="#000000" fill-rule="evenodd" fill-opacity="1" /><circle clip-path="url(#clip082)" cx="358.262" cy="86.1857" r="21" fill="#ff00ff" fill-rule="evenodd" fill-opacity="1" stroke="none"/>
<circle clip-path="url(#clip082)" cx="487.355" cy="392.789" r="21" fill="#ff00ff" fill-rule="evenodd" fill-opacity="1" stroke="none"/>
<circle clip-path="url(#clip082)" cx="616.449" cy="587.489" r="21" fill="#ff00ff" fill-rule="evenodd" fill-opacity="1" stroke="none"/>
<circle clip-path="url(#clip082)" cx="745.542" cy="709.038" r="21" fill="#ff00ff" fill-rule="evenodd" fill-opacity="1" stroke="none"/>
<circle clip-path="url(#clip082)" cx="874.636" cy="796.474" r="21" fill="#ff00ff" fill-rule="evenodd" fill-opacity="1" stroke="none"/>
<circle clip-path="url(#clip082)" cx="1003.73" cy="871.698" r="21" fill="#ff00ff" fill-rule="evenodd" fill-opacity="1" stroke="none"/>
<circle clip-path="url(#clip082)" cx="1132.82" cy="942.569" r="21" fill="#ff00ff" fill-rule="evenodd" fill-opacity="1" stroke="none"/>
<circle clip-path="url(#clip082)" cx="1261.92" cy="1010.35" r="21" fill="#ff00ff" fill-rule="evenodd" fill-opacity="1" stroke="none"/>
<circle clip-path="url(#clip082)" cx="1391.01" cy="1074.32" r="21" fill="#ff00ff" fill-rule="evenodd" fill-opacity="1" stroke="none"/>
<circle clip-path="url(#clip082)" cx="1520.1" cy="1133.61" r="21" fill="#ff00ff" fill-rule="evenodd" fill-opacity="1" stroke="none"/>
<circle clip-path="url(#clip082)" cx="1649.2" cy="1187.75" r="21" fill="#ff00ff" fill-rule="evenodd" fill-opacity="1" stroke="none"/>
<circle clip-path="url(#clip082)" cx="1778.29" cy="1236.62" r="21" fill="#ff00ff" fill-rule="evenodd" fill-opacity="1" stroke="none"/>
<circle clip-path="url(#clip082)" cx="1907.38" cy="1280.37" r="21" fill="#ff00ff" fill-rule="evenodd" fill-opacity="1" stroke="none"/>
<circle clip-path="url(#clip082)" cx="2036.48" cy="1319.29" r="21" fill="#ff00ff" fill-rule="evenodd" fill-opacity="1" stroke="none"/>
<circle clip-path="url(#clip082)" cx="2165.57" cy="1353.78" r="21" fill="#ff00ff" fill-rule="evenodd" fill-opacity="1" stroke="none"/>
<circle clip-path="url(#clip082)" cx="2294.66" cy="1384.24" r="21" fill="#ff00ff" fill-rule="evenodd" fill-opacity="1" stroke="none"/>
</svg>
