<?xml version="1.0" encoding="utf-8"?>
<svg xmlns="http://www.w3.org/2000/svg" xmlns:xlink="http://www.w3.org/1999/xlink" width="600" height="400" viewBox="0 0 2400 1600">
<defs>
  <clipPath id="clip870">
    <rect x="0" y="0" width="2400" height="1600"/>
  </clipPath>
</defs>
<path clip-path="url(#clip870)" d="
M0 1600 L2400 1600 L2400 0 L0 0  Z
  " fill="#ffffff" fill-rule="evenodd" fill-opacity="1"/>
<defs>
  <clipPath id="clip871">
    <rect x="480" y="0" width="1681" height="1600"/>
  </clipPath>
</defs>
<defs>
  <clipPath id="clip872">
    <rect x="269" y="47" width="2084" height="1377"/>
  </clipPath>
</defs>
<path clip-path="url(#clip870)" d="
M269.751 1423.18 L2352.76 1423.18 L2352.76 47.2441 L269.751 47.2441  Z
  " fill="#ffffff" fill-rule="evenodd" fill-opacity="1"/>
<polyline clip-path="url(#clip870)" style="stroke:#000000; stroke-linecap:butt; stroke-linejoin:round; stroke-width:4; stroke-opacity:1; fill:none" points="
  269.751,1423.18 2352.76,1423.18 
  "/>
<polyline clip-path="url(#clip870)" style="stroke:#000000; stroke-linecap:butt; stroke-linejoin:round; stroke-width:4; stroke-opacity:1; fill:none" points="
  279.576,1423.18 279.576,1404.28 
  "/>
<polyline clip-path="url(#clip870)" style="stroke:#000000; stroke-linecap:butt; stroke-linejoin:round; stroke-width:4; stroke-opacity:1; fill:none" points="
  770.851,1423.18 770.851,1404.28 
  "/>
<polyline clip-path="url(#clip870)" style="stroke:#000000; stroke-linecap:butt; stroke-linejoin:round; stroke-width:4; stroke-opacity:1; fill:none" points="
  1262.13,1423.18 1262.13,1404.28 
  "/>
<polyline clip-path="url(#clip870)" style="stroke:#000000; stroke-linecap:butt; stroke-linejoin:round; stroke-width:4; stroke-opacity:1; fill:none" points="
  1753.4,1423.18 1753.4,1404.28 
  "/>
<polyline clip-path="url(#clip870)" style="stroke:#000000; stroke-linecap:butt; stroke-linejoin:round; stroke-width:4; stroke-opacity:1; fill:none" points="
  2244.68,1423.18 2244.68,1404.28 
  "/>
<path clip-path="url(#clip870)" d="M279.576 1452.37 Q275.965 1452.37 274.137 1455.94 Q272.331 1459.48 272.331 1466.61 Q272.331 1473.71 274.137 1477.28 Q275.965 1480.82 279.576 1480.82 Q283.211 1480.82 285.016 1477.28 Q286.845 1473.71 286.845 1466.61 Q286.845 1459.48 285.016 1455.94 Q283.211 1452.37 279.576 1452.37 M279.576 1448.67 Q285.386 1448.67 288.442 1453.27 Q291.521 1457.86 291.521 1466.61 Q291.521 1475.33 288.442 1479.94 Q285.386 1484.52 279.576 1484.52 Q273.766 1484.52 270.688 1479.94 Q267.632 1475.33 267.632 1466.61 Q267.632 1457.86 270.688 1453.27 Q273.766 1448.67 279.576 1448.67 Z" fill="#000000" fill-rule="evenodd" fill-opacity="1" /><path clip-path="url(#clip870)" d="M745.539 1479.92 L753.178 1479.92 L753.178 1453.55 L744.867 1455.22 L744.867 1450.96 L753.131 1449.29 L757.807 1449.29 L757.807 1479.92 L765.446 1479.92 L765.446 1483.85 L745.539 1483.85 L745.539 1479.92 Z" fill="#000000" fill-rule="evenodd" fill-opacity="1" /><path clip-path="url(#clip870)" d="M784.89 1452.37 Q781.279 1452.37 779.451 1455.94 Q777.645 1459.48 777.645 1466.61 Q777.645 1473.71 779.451 1477.28 Q781.279 1480.82 784.89 1480.82 Q788.525 1480.82 790.33 1477.28 Q792.159 1473.71 792.159 1466.61 Q792.159 1459.48 790.33 1455.94 Q788.525 1452.37 784.89 1452.37 M784.89 1448.67 Q790.701 1448.67 793.756 1453.27 Q796.835 1457.86 796.835 1466.61 Q796.835 1475.33 793.756 1479.94 Q790.701 1484.52 784.89 1484.52 Q779.08 1484.52 776.002 1479.94 Q772.946 1475.33 772.946 1466.61 Q772.946 1457.86 776.002 1453.27 Q779.08 1448.67 784.89 1448.67 Z" fill="#000000" fill-rule="evenodd" fill-opacity="1" /><path clip-path="url(#clip870)" d="M1240.9 1479.92 L1257.22 1479.92 L1257.22 1483.85 L1235.27 1483.85 L1235.27 1479.92 Q1237.94 1477.16 1242.52 1472.53 Q1247.13 1467.88 1248.31 1466.54 Q1250.55 1464.01 1251.43 1462.28 Q1252.33 1460.52 1252.33 1458.83 Q1252.33 1456.07 1250.39 1454.34 Q1248.47 1452.6 1245.37 1452.6 Q1243.17 1452.6 1240.71 1453.37 Q1238.28 1454.13 1235.51 1455.68 L1235.51 1450.96 Q1238.33 1449.82 1240.78 1449.25 Q1243.24 1448.67 1245.27 1448.67 Q1250.64 1448.67 1253.84 1451.35 Q1257.03 1454.04 1257.03 1458.53 Q1257.03 1460.66 1256.22 1462.58 Q1255.44 1464.48 1253.33 1467.07 Q1252.75 1467.74 1249.65 1470.96 Q1246.55 1474.15 1240.9 1479.92 Z" fill="#000000" fill-rule="evenodd" fill-opacity="1" /><path clip-path="url(#clip870)" d="M1277.03 1452.37 Q1273.42 1452.37 1271.59 1455.94 Q1269.79 1459.48 1269.79 1466.61 Q1269.79 1473.71 1271.59 1477.28 Q1273.42 1480.82 1277.03 1480.82 Q1280.67 1480.82 1282.47 1477.28 Q1284.3 1473.71 1284.3 1466.61 Q1284.3 1459.48 1282.47 1455.94 Q1280.67 1452.37 1277.03 1452.37 M1277.03 1448.67 Q1282.84 1448.67 1285.9 1453.27 Q1288.98 1457.86 1288.98 1466.61 Q1288.98 1475.33 1285.9 1479.94 Q1282.84 1484.52 1277.03 1484.52 Q1271.22 1484.52 1268.14 1479.94 Q1265.09 1475.33 1265.09 1466.61 Q1265.09 1457.86 1268.14 1453.27 Q1271.22 1448.67 1277.03 1448.67 Z" fill="#000000" fill-rule="evenodd" fill-opacity="1" /><path clip-path="url(#clip870)" d="M1742.24 1465.22 Q1745.6 1465.94 1747.47 1468.2 Q1749.37 1470.47 1749.37 1473.81 Q1749.37 1478.92 1745.85 1481.72 Q1742.34 1484.52 1735.85 1484.52 Q1733.68 1484.52 1731.36 1484.08 Q1729.07 1483.67 1726.62 1482.81 L1726.62 1478.3 Q1728.56 1479.43 1730.88 1480.01 Q1733.19 1480.59 1735.72 1480.59 Q1740.11 1480.59 1742.41 1478.85 Q1744.72 1477.12 1744.72 1473.81 Q1744.72 1470.75 1742.57 1469.04 Q1740.44 1467.3 1736.62 1467.3 L1732.59 1467.3 L1732.59 1463.46 L1736.8 1463.46 Q1740.25 1463.46 1742.08 1462.09 Q1743.91 1460.7 1743.91 1458.11 Q1743.91 1455.45 1742.01 1454.04 Q1740.14 1452.6 1736.62 1452.6 Q1734.7 1452.6 1732.5 1453.02 Q1730.3 1453.44 1727.66 1454.31 L1727.66 1450.15 Q1730.32 1449.41 1732.64 1449.04 Q1734.97 1448.67 1737.04 1448.67 Q1742.36 1448.67 1745.46 1451.1 Q1748.56 1453.5 1748.56 1457.63 Q1748.56 1460.5 1746.92 1462.49 Q1745.28 1464.45 1742.24 1465.22 Z" fill="#000000" fill-rule="evenodd" fill-opacity="1" /><path clip-path="url(#clip870)" d="M1768.24 1452.37 Q1764.63 1452.37 1762.8 1455.94 Q1760.99 1459.48 1760.99 1466.61 Q1760.99 1473.71 1762.8 1477.28 Q1764.63 1480.82 1768.24 1480.82 Q1771.87 1480.82 1773.68 1477.28 Q1775.51 1473.71 1775.51 1466.61 Q1775.51 1459.48 1773.68 1455.94 Q1771.87 1452.37 1768.24 1452.37 M1768.24 1448.67 Q1774.05 1448.67 1777.1 1453.27 Q1780.18 1457.86 1780.18 1466.61 Q1780.18 1475.33 1777.1 1479.94 Q1774.05 1484.52 1768.24 1484.52 Q1762.43 1484.52 1759.35 1479.94 Q1756.29 1475.33 1756.29 1466.61 Q1756.29 1457.86 1759.35 1453.27 Q1762.43 1448.67 1768.24 1448.67 Z" fill="#000000" fill-rule="evenodd" fill-opacity="1" /><path clip-path="url(#clip870)" d="M2232.85 1453.37 L2221.04 1471.81 L2232.85 1471.81 L2232.85 1453.37 M2231.62 1449.29 L2237.5 1449.29 L2237.5 1471.81 L2242.43 1471.81 L2242.43 1475.7 L2237.5 1475.7 L2237.5 1483.85 L2232.85 1483.85 L2232.85 1475.7 L2217.25 1475.7 L2217.25 1471.19 L2231.62 1449.29 Z" fill="#000000" fill-rule="evenodd" fill-opacity="1" /><path clip-path="url(#clip870)" d="M2260.16 1452.37 Q2256.55 1452.37 2254.72 1455.94 Q2252.92 1459.48 2252.92 1466.61 Q2252.92 1473.71 2254.72 1477.28 Q2256.55 1480.82 2260.16 1480.82 Q2263.8 1480.82 2265.6 1477.28 Q2267.43 1473.71 2267.43 1466.61 Q2267.43 1459.48 2265.6 1455.94 Q2263.8 1452.37 2260.16 1452.37 M2260.16 1448.67 Q2265.97 1448.67 2269.03 1453.27 Q2272.11 1457.86 2272.11 1466.61 Q2272.11 1475.33 2269.03 1479.94 Q2265.97 1484.52 2260.16 1484.52 Q2254.35 1484.52 2251.27 1479.94 Q2248.22 1475.33 2248.22 1466.61 Q2248.22 1457.86 2251.27 1453.27 Q2254.35 1448.67 2260.16 1448.67 Z" fill="#000000" fill-rule="evenodd" fill-opacity="1" /><path clip-path="url(#clip870)" d="M1034.55 1520.52 L1043.21 1520.52 L1064.28 1560.28 L1064.28 1520.52 L1070.52 1520.52 L1070.52 1568.04 L1061.86 1568.04 L1040.79 1528.29 L1040.79 1568.04 L1034.55 1568.04 L1034.55 1520.52 Z" fill="#000000" fill-rule="evenodd" fill-opacity="1" /><path clip-path="url(#clip870)" d="M1082.45 1553.98 L1082.45 1532.4 L1088.31 1532.4 L1088.31 1553.75 Q1088.31 1558.81 1090.28 1561.36 Q1092.26 1563.87 1096.2 1563.87 Q1100.95 1563.87 1103.68 1560.85 Q1106.45 1557.83 1106.45 1552.61 L1106.45 1532.4 L1112.31 1532.4 L1112.31 1568.04 L1106.45 1568.04 L1106.45 1562.57 Q1104.32 1565.82 1101.49 1567.41 Q1098.69 1568.97 1094.96 1568.97 Q1088.82 1568.97 1085.64 1565.15 Q1082.45 1561.33 1082.45 1553.98 M1097.19 1531.54 L1097.19 1531.54 Z" fill="#000000" fill-rule="evenodd" fill-opacity="1" /><path clip-path="url(#clip870)" d="M1152.13 1539.24 Q1154.32 1535.29 1157.38 1533.41 Q1160.43 1531.54 1164.57 1531.54 Q1170.14 1531.54 1173.17 1535.45 Q1176.19 1539.33 1176.19 1546.53 L1176.19 1568.04 L1170.3 1568.04 L1170.3 1546.72 Q1170.3 1541.59 1168.49 1539.11 Q1166.67 1536.63 1162.95 1536.63 Q1158.4 1536.63 1155.76 1539.65 Q1153.11 1542.68 1153.11 1547.9 L1153.11 1568.04 L1147.23 1568.04 L1147.23 1546.72 Q1147.23 1541.56 1145.41 1539.11 Q1143.6 1536.63 1139.81 1536.63 Q1135.32 1536.63 1132.68 1539.68 Q1130.04 1542.71 1130.04 1547.9 L1130.04 1568.04 L1124.15 1568.04 L1124.15 1532.4 L1130.04 1532.4 L1130.04 1537.93 Q1132.04 1534.66 1134.84 1533.1 Q1137.64 1531.54 1141.5 1531.54 Q1145.38 1531.54 1148.08 1533.51 Q1150.82 1535.48 1152.13 1539.24 Z" fill="#000000" fill-rule="evenodd" fill-opacity="1" /><path clip-path="url(#clip870)" d="M1213.46 1550.25 Q1213.46 1543.79 1210.79 1540.13 Q1208.14 1536.44 1203.5 1536.44 Q1198.85 1536.44 1196.18 1540.13 Q1193.54 1543.79 1193.54 1550.25 Q1193.54 1556.71 1196.18 1560.4 Q1198.85 1564.07 1203.5 1564.07 Q1208.14 1564.07 1210.79 1560.4 Q1213.46 1556.71 1213.46 1550.25 M1193.54 1537.81 Q1195.38 1534.62 1198.18 1533.1 Q1201.02 1531.54 1204.93 1531.54 Q1211.42 1531.54 1215.47 1536.69 Q1219.54 1541.85 1219.54 1550.25 Q1219.54 1558.65 1215.47 1563.81 Q1211.42 1568.97 1204.93 1568.97 Q1201.02 1568.97 1198.18 1567.44 Q1195.38 1565.88 1193.54 1562.7 L1193.54 1568.04 L1187.65 1568.04 L1187.65 1518.52 L1193.54 1518.52 L1193.54 1537.81 Z" fill="#000000" fill-rule="evenodd" fill-opacity="1" /><path clip-path="url(#clip870)" d="M1259.74 1548.76 L1259.74 1551.62 L1232.81 1551.62 Q1233.19 1557.67 1236.44 1560.85 Q1239.72 1564 1245.54 1564 Q1248.92 1564 1252.07 1563.17 Q1255.25 1562.35 1258.37 1560.69 L1258.37 1566.23 Q1255.22 1567.57 1251.91 1568.27 Q1248.6 1568.97 1245.19 1568.97 Q1236.66 1568.97 1231.67 1564 Q1226.7 1559.04 1226.7 1550.57 Q1226.7 1541.82 1231.41 1536.69 Q1236.15 1531.54 1244.17 1531.54 Q1251.37 1531.54 1255.54 1536.18 Q1259.74 1540.8 1259.74 1548.76 M1253.88 1547.04 Q1253.82 1542.23 1251.18 1539.37 Q1248.57 1536.5 1244.24 1536.5 Q1239.34 1536.5 1236.38 1539.27 Q1233.45 1542.04 1233 1547.07 L1253.88 1547.04 Z" fill="#000000" fill-rule="evenodd" fill-opacity="1" /><path clip-path="url(#clip870)" d="M1290.01 1537.87 Q1289.02 1537.3 1287.84 1537.04 Q1286.7 1536.76 1285.3 1536.76 Q1280.33 1536.76 1277.66 1540 Q1275.02 1543.22 1275.02 1549.27 L1275.02 1568.04 L1269.13 1568.04 L1269.13 1532.4 L1275.02 1532.4 L1275.02 1537.93 Q1276.86 1534.69 1279.82 1533.13 Q1282.78 1531.54 1287.02 1531.54 Q1287.62 1531.54 1288.35 1531.63 Q1289.08 1531.7 1289.98 1531.85 L1290.01 1537.87 Z" fill="#000000" fill-rule="evenodd" fill-opacity="1" /><path clip-path="url(#clip870)" d="M1330.68 1536.5 Q1325.97 1536.5 1323.24 1540.19 Q1320.5 1543.85 1320.5 1550.25 Q1320.5 1556.65 1323.2 1560.34 Q1325.94 1564 1330.68 1564 Q1335.36 1564 1338.1 1560.31 Q1340.84 1556.62 1340.84 1550.25 Q1340.84 1543.92 1338.1 1540.23 Q1335.36 1536.5 1330.68 1536.5 M1330.68 1531.54 Q1338.32 1531.54 1342.68 1536.5 Q1347.04 1541.47 1347.04 1550.25 Q1347.04 1559 1342.68 1564 Q1338.32 1568.97 1330.68 1568.97 Q1323.01 1568.97 1318.65 1564 Q1314.32 1559 1314.32 1550.25 Q1314.32 1541.47 1318.65 1536.5 Q1323.01 1531.54 1330.68 1531.54 Z" fill="#000000" fill-rule="evenodd" fill-opacity="1" /><path clip-path="url(#clip870)" d="M1374.8 1518.52 L1374.8 1523.39 L1369.2 1523.39 Q1366.05 1523.39 1364.8 1524.66 Q1363.6 1525.93 1363.6 1529.24 L1363.6 1532.4 L1373.24 1532.4 L1373.24 1536.95 L1363.6 1536.95 L1363.6 1568.04 L1357.71 1568.04 L1357.71 1536.95 L1352.11 1536.95 L1352.11 1532.4 L1357.71 1532.4 L1357.71 1529.91 Q1357.71 1523.96 1360.48 1521.26 Q1363.25 1518.52 1369.26 1518.52 L1374.8 1518.52 Z" fill="#000000" fill-rule="evenodd" fill-opacity="1" /><path clip-path="url(#clip870)" d="M1423.88 1549.81 Q1423.88 1543.44 1421.24 1539.94 Q1418.63 1536.44 1413.88 1536.44 Q1409.17 1536.44 1406.53 1539.94 Q1403.92 1543.44 1403.92 1549.81 Q1403.92 1556.14 1406.53 1559.64 Q1409.17 1563.14 1413.88 1563.14 Q1418.63 1563.14 1421.24 1559.64 Q1423.88 1556.14 1423.88 1549.81 M1429.74 1563.62 Q1429.74 1572.72 1425.69 1577.15 Q1421.65 1581.6 1413.31 1581.6 Q1410.22 1581.6 1407.49 1581.13 Q1404.75 1580.68 1402.17 1579.72 L1402.17 1574.03 Q1404.75 1575.43 1407.26 1576.1 Q1409.78 1576.76 1412.39 1576.76 Q1418.15 1576.76 1421.01 1573.74 Q1423.88 1570.75 1423.88 1564.67 L1423.88 1561.77 Q1422.06 1564.92 1419.23 1566.48 Q1416.4 1568.04 1412.45 1568.04 Q1405.9 1568.04 1401.89 1563.05 Q1397.87 1558.05 1397.87 1549.81 Q1397.87 1541.53 1401.89 1536.53 Q1405.9 1531.54 1412.45 1531.54 Q1416.4 1531.54 1419.23 1533.1 Q1422.06 1534.66 1423.88 1537.81 L1423.88 1532.4 L1429.74 1532.4 L1429.74 1563.62 Z" fill="#000000" fill-rule="evenodd" fill-opacity="1" /><path clip-path="url(#clip870)" d="M1472.29 1548.76 L1472.29 1551.62 L1445.36 1551.62 Q1445.74 1557.67 1448.99 1560.85 Q1452.27 1564 1458.09 1564 Q1461.47 1564 1464.62 1563.17 Q1467.8 1562.35 1470.92 1560.69 L1470.92 1566.23 Q1467.77 1567.57 1464.46 1568.27 Q1461.15 1568.97 1457.74 1568.97 Q1449.21 1568.97 1444.22 1564 Q1439.25 1559.04 1439.25 1550.57 Q1439.25 1541.82 1443.96 1536.69 Q1448.7 1531.54 1456.73 1531.54 Q1463.92 1531.54 1468.09 1536.18 Q1472.29 1540.8 1472.29 1548.76 M1466.43 1547.04 Q1466.37 1542.23 1463.73 1539.37 Q1461.12 1536.5 1456.79 1536.5 Q1451.89 1536.5 1448.93 1539.27 Q1446 1542.04 1445.55 1547.07 L1466.43 1547.04 Z" fill="#000000" fill-rule="evenodd" fill-opacity="1" /><path clip-path="url(#clip870)" d="M1511.53 1546.53 L1511.53 1568.04 L1505.68 1568.04 L1505.68 1546.72 Q1505.68 1541.66 1503.7 1539.14 Q1501.73 1536.63 1497.78 1536.63 Q1493.04 1536.63 1490.3 1539.65 Q1487.57 1542.68 1487.57 1547.9 L1487.57 1568.04 L1481.68 1568.04 L1481.68 1532.4 L1487.57 1532.4 L1487.57 1537.93 Q1489.67 1534.72 1492.5 1533.13 Q1495.37 1531.54 1499.09 1531.54 Q1505.23 1531.54 1508.38 1535.36 Q1511.53 1539.14 1511.53 1546.53 Z" fill="#000000" fill-rule="evenodd" fill-opacity="1" /><path clip-path="url(#clip870)" d="M1553.71 1548.76 L1553.71 1551.62 L1526.78 1551.62 Q1527.16 1557.67 1530.41 1560.85 Q1533.69 1564 1539.51 1564 Q1542.89 1564 1546.04 1563.17 Q1549.22 1562.35 1552.34 1560.69 L1552.34 1566.23 Q1549.19 1567.57 1545.88 1568.27 Q1542.57 1568.97 1539.16 1568.97 Q1530.63 1568.97 1525.63 1564 Q1520.67 1559.04 1520.67 1550.57 Q1520.67 1541.82 1525.38 1536.69 Q1530.12 1531.54 1538.14 1531.54 Q1545.34 1531.54 1549.51 1536.18 Q1553.71 1540.8 1553.71 1548.76 M1547.85 1547.04 Q1547.79 1542.23 1545.15 1539.37 Q1542.54 1536.5 1538.21 1536.5 Q1533.31 1536.5 1530.35 1539.27 Q1527.42 1542.04 1526.97 1547.07 L1547.85 1547.04 Z" fill="#000000" fill-rule="evenodd" fill-opacity="1" /><path clip-path="url(#clip870)" d="M1586.05 1533.45 L1586.05 1538.98 Q1583.56 1537.71 1580.89 1537.07 Q1578.22 1536.44 1575.35 1536.44 Q1570.99 1536.44 1568.79 1537.77 Q1566.63 1539.11 1566.63 1541.79 Q1566.63 1543.82 1568.19 1545 Q1569.75 1546.15 1574.46 1547.2 L1576.46 1547.64 Q1582.7 1548.98 1585.31 1551.43 Q1587.95 1553.85 1587.95 1558.21 Q1587.95 1563.17 1584.01 1566.07 Q1580.09 1568.97 1573.22 1568.97 Q1570.35 1568.97 1567.23 1568.39 Q1564.15 1567.85 1560.71 1566.74 L1560.71 1560.69 Q1563.96 1562.38 1567.11 1563.24 Q1570.26 1564.07 1573.35 1564.07 Q1577.48 1564.07 1579.71 1562.66 Q1581.94 1561.23 1581.94 1558.65 Q1581.94 1556.27 1580.32 1554.99 Q1578.72 1553.72 1573.28 1552.54 L1571.24 1552.07 Q1565.8 1550.92 1563.38 1548.56 Q1560.96 1546.18 1560.96 1542.04 Q1560.96 1537.01 1564.53 1534.27 Q1568.09 1531.54 1574.65 1531.54 Q1577.9 1531.54 1580.76 1532.01 Q1583.63 1532.49 1586.05 1533.45 Z" fill="#000000" fill-rule="evenodd" fill-opacity="1" /><polyline clip-path="url(#clip870)" style="stroke:#000000; stroke-linecap:butt; stroke-linejoin:round; stroke-width:4; stroke-opacity:1; fill:none" points="
  269.751,1423.18 269.751,47.2441 
  "/>
<polyline clip-path="url(#clip870)" style="stroke:#000000; stroke-linecap:butt; stroke-linejoin:round; stroke-width:4; stroke-opacity:1; fill:none" points="
  269.751,1273.13 288.648,1273.13 
  "/>
<polyline clip-path="url(#clip870)" style="stroke:#000000; stroke-linecap:butt; stroke-linejoin:round; stroke-width:4; stroke-opacity:1; fill:none" points="
  269.751,987.482 288.648,987.482 
  "/>
<polyline clip-path="url(#clip870)" style="stroke:#000000; stroke-linecap:butt; stroke-linejoin:round; stroke-width:4; stroke-opacity:1; fill:none" points="
  269.751,701.834 288.648,701.834 
  "/>
<polyline clip-path="url(#clip870)" style="stroke:#000000; stroke-linecap:butt; stroke-linejoin:round; stroke-width:4; stroke-opacity:1; fill:none" points="
  269.751,416.185 288.648,416.185 
  "/>
<polyline clip-path="url(#clip870)" style="stroke:#000000; stroke-linecap:butt; stroke-linejoin:round; stroke-width:4; stroke-opacity:1; fill:none" points="
  269.751,130.536 288.648,130.536 
  "/>
<path clip-path="url(#clip870)" d="M146.413 1258.93 Q142.802 1258.93 140.974 1262.49 Q139.168 1266.04 139.168 1273.17 Q139.168 1280.27 140.974 1283.84 Q142.802 1287.38 146.413 1287.38 Q150.048 1287.38 151.853 1283.84 Q153.682 1280.27 153.682 1273.17 Q153.682 1266.04 151.853 1262.49 Q150.048 1258.93 146.413 1258.93 M146.413 1255.23 Q152.224 1255.23 155.279 1259.83 Q158.358 1264.42 158.358 1273.17 Q158.358 1281.89 155.279 1286.5 Q152.224 1291.08 146.413 1291.08 Q140.603 1291.08 137.525 1286.5 Q134.469 1281.89 134.469 1273.17 Q134.469 1264.42 137.525 1259.83 Q140.603 1255.23 146.413 1255.23 Z" fill="#000000" fill-rule="evenodd" fill-opacity="1" /><path clip-path="url(#clip870)" d="M166.575 1284.53 L171.46 1284.53 L171.46 1290.41 L166.575 1290.41 L166.575 1284.53 Z" fill="#000000" fill-rule="evenodd" fill-opacity="1" /><path clip-path="url(#clip870)" d="M191.645 1258.93 Q188.034 1258.93 186.205 1262.49 Q184.399 1266.04 184.399 1273.17 Q184.399 1280.27 186.205 1283.84 Q188.034 1287.38 191.645 1287.38 Q195.279 1287.38 197.084 1283.84 Q198.913 1280.27 198.913 1273.17 Q198.913 1266.04 197.084 1262.49 Q195.279 1258.93 191.645 1258.93 M191.645 1255.23 Q197.455 1255.23 200.51 1259.83 Q203.589 1264.42 203.589 1273.17 Q203.589 1281.89 200.51 1286.5 Q197.455 1291.08 191.645 1291.08 Q185.834 1291.08 182.756 1286.5 Q179.7 1281.89 179.7 1273.17 Q179.7 1264.42 182.756 1259.83 Q185.834 1255.23 191.645 1255.23 Z" fill="#000000" fill-rule="evenodd" fill-opacity="1" /><path clip-path="url(#clip870)" d="M221.806 1258.93 Q218.195 1258.93 216.367 1262.49 Q214.561 1266.04 214.561 1273.17 Q214.561 1280.27 216.367 1283.84 Q218.195 1287.38 221.806 1287.38 Q225.441 1287.38 227.246 1283.84 Q229.075 1280.27 229.075 1273.17 Q229.075 1266.04 227.246 1262.49 Q225.441 1258.93 221.806 1258.93 M221.806 1255.23 Q227.617 1255.23 230.672 1259.83 Q233.751 1264.42 233.751 1273.17 Q233.751 1281.89 230.672 1286.5 Q227.617 1291.08 221.806 1291.08 Q215.996 1291.08 212.918 1286.5 Q209.862 1281.89 209.862 1273.17 Q209.862 1264.42 212.918 1259.83 Q215.996 1255.23 221.806 1255.23 Z" fill="#000000" fill-rule="evenodd" fill-opacity="1" /><path clip-path="url(#clip870)" d="M148.011 973.281 Q144.399 973.281 142.571 976.846 Q140.765 980.387 140.765 987.517 Q140.765 994.624 142.571 998.188 Q144.399 1001.73 148.011 1001.73 Q151.645 1001.73 153.45 998.188 Q155.279 994.624 155.279 987.517 Q155.279 980.387 153.45 976.846 Q151.645 973.281 148.011 973.281 M148.011 969.577 Q153.821 969.577 156.876 974.184 Q159.955 978.767 159.955 987.517 Q159.955 996.244 156.876 1000.85 Q153.821 1005.43 148.011 1005.43 Q142.2 1005.43 139.122 1000.85 Q136.066 996.244 136.066 987.517 Q136.066 978.767 139.122 974.184 Q142.2 969.577 148.011 969.577 Z" fill="#000000" fill-rule="evenodd" fill-opacity="1" /><path clip-path="url(#clip870)" d="M168.172 998.883 L173.057 998.883 L173.057 1004.76 L168.172 1004.76 L168.172 998.883 Z" fill="#000000" fill-rule="evenodd" fill-opacity="1" /><path clip-path="url(#clip870)" d="M193.242 973.281 Q189.631 973.281 187.802 976.846 Q185.996 980.387 185.996 987.517 Q185.996 994.624 187.802 998.188 Q189.631 1001.73 193.242 1001.73 Q196.876 1001.73 198.682 998.188 Q200.51 994.624 200.51 987.517 Q200.51 980.387 198.682 976.846 Q196.876 973.281 193.242 973.281 M193.242 969.577 Q199.052 969.577 202.108 974.184 Q205.186 978.767 205.186 987.517 Q205.186 996.244 202.108 1000.85 Q199.052 1005.43 193.242 1005.43 Q187.432 1005.43 184.353 1000.85 Q181.297 996.244 181.297 987.517 Q181.297 978.767 184.353 974.184 Q187.432 969.577 193.242 969.577 Z" fill="#000000" fill-rule="evenodd" fill-opacity="1" /><path clip-path="url(#clip870)" d="M217.431 1000.83 L233.751 1000.83 L233.751 1004.76 L211.807 1004.76 L211.807 1000.83 Q214.469 998.073 219.052 993.443 Q223.658 988.79 224.839 987.448 Q227.084 984.924 227.964 983.188 Q228.867 981.429 228.867 979.739 Q228.867 976.985 226.922 975.249 Q225.001 973.513 221.899 973.513 Q219.7 973.513 217.246 974.276 Q214.816 975.04 212.038 976.591 L212.038 971.869 Q214.862 970.735 217.316 970.156 Q219.769 969.577 221.806 969.577 Q227.177 969.577 230.371 972.263 Q233.566 974.948 233.566 979.438 Q233.566 981.568 232.755 983.489 Q231.968 985.387 229.862 987.98 Q229.283 988.651 226.181 991.869 Q223.08 995.063 217.431 1000.83 Z" fill="#000000" fill-rule="evenodd" fill-opacity="1" /><path clip-path="url(#clip870)" d="M145.927 687.632 Q142.316 687.632 140.487 691.197 Q138.682 694.739 138.682 701.868 Q138.682 708.975 140.487 712.54 Q142.316 716.081 145.927 716.081 Q149.561 716.081 151.367 712.54 Q153.196 708.975 153.196 701.868 Q153.196 694.739 151.367 691.197 Q149.561 687.632 145.927 687.632 M145.927 683.929 Q151.737 683.929 154.793 688.535 Q157.872 693.118 157.872 701.868 Q157.872 710.595 154.793 715.202 Q151.737 719.785 145.927 719.785 Q140.117 719.785 137.038 715.202 Q133.983 710.595 133.983 701.868 Q133.983 693.118 137.038 688.535 Q140.117 683.929 145.927 683.929 Z" fill="#000000" fill-rule="evenodd" fill-opacity="1" /><path clip-path="url(#clip870)" d="M166.089 713.234 L170.973 713.234 L170.973 719.114 L166.089 719.114 L166.089 713.234 Z" fill="#000000" fill-rule="evenodd" fill-opacity="1" /><path clip-path="url(#clip870)" d="M191.158 687.632 Q187.547 687.632 185.719 691.197 Q183.913 694.739 183.913 701.868 Q183.913 708.975 185.719 712.54 Q187.547 716.081 191.158 716.081 Q194.793 716.081 196.598 712.54 Q198.427 708.975 198.427 701.868 Q198.427 694.739 196.598 691.197 Q194.793 687.632 191.158 687.632 M191.158 683.929 Q196.969 683.929 200.024 688.535 Q203.103 693.118 203.103 701.868 Q203.103 710.595 200.024 715.202 Q196.969 719.785 191.158 719.785 Q185.348 719.785 182.27 715.202 Q179.214 710.595 179.214 701.868 Q179.214 693.118 182.27 688.535 Q185.348 683.929 191.158 683.929 Z" fill="#000000" fill-rule="evenodd" fill-opacity="1" /><path clip-path="url(#clip870)" d="M224.168 688.628 L212.362 707.077 L224.168 707.077 L224.168 688.628 M222.941 684.554 L228.82 684.554 L228.82 707.077 L233.751 707.077 L233.751 710.965 L228.82 710.965 L228.82 719.114 L224.168 719.114 L224.168 710.965 L208.566 710.965 L208.566 706.452 L222.941 684.554 Z" fill="#000000" fill-rule="evenodd" fill-opacity="1" /><path clip-path="url(#clip870)" d="M146.251 401.983 Q142.64 401.983 140.812 405.548 Q139.006 409.09 139.006 416.219 Q139.006 423.326 140.812 426.891 Q142.64 430.432 146.251 430.432 Q149.886 430.432 151.691 426.891 Q153.52 423.326 153.52 416.219 Q153.52 409.09 151.691 405.548 Q149.886 401.983 146.251 401.983 M146.251 398.28 Q152.061 398.28 155.117 402.886 Q158.196 407.469 158.196 416.219 Q158.196 424.946 155.117 429.553 Q152.061 434.136 146.251 434.136 Q140.441 434.136 137.362 429.553 Q134.307 424.946 134.307 416.219 Q134.307 407.469 137.362 402.886 Q140.441 398.28 146.251 398.28 Z" fill="#000000" fill-rule="evenodd" fill-opacity="1" /><path clip-path="url(#clip870)" d="M166.413 427.585 L171.297 427.585 L171.297 433.465 L166.413 433.465 L166.413 427.585 Z" fill="#000000" fill-rule="evenodd" fill-opacity="1" /><path clip-path="url(#clip870)" d="M191.483 401.983 Q187.871 401.983 186.043 405.548 Q184.237 409.09 184.237 416.219 Q184.237 423.326 186.043 426.891 Q187.871 430.432 191.483 430.432 Q195.117 430.432 196.922 426.891 Q198.751 423.326 198.751 416.219 Q198.751 409.09 196.922 405.548 Q195.117 401.983 191.483 401.983 M191.483 398.28 Q197.293 398.28 200.348 402.886 Q203.427 407.469 203.427 416.219 Q203.427 424.946 200.348 429.553 Q197.293 434.136 191.483 434.136 Q185.672 434.136 182.594 429.553 Q179.538 424.946 179.538 416.219 Q179.538 407.469 182.594 402.886 Q185.672 398.28 191.483 398.28 Z" fill="#000000" fill-rule="evenodd" fill-opacity="1" /><path clip-path="url(#clip870)" d="M222.223 414.321 Q219.075 414.321 217.223 416.474 Q215.394 418.627 215.394 422.377 Q215.394 426.104 217.223 428.28 Q219.075 430.432 222.223 430.432 Q225.371 430.432 227.2 428.28 Q229.052 426.104 229.052 422.377 Q229.052 418.627 227.2 416.474 Q225.371 414.321 222.223 414.321 M231.505 399.669 L231.505 403.928 Q229.746 403.095 227.941 402.655 Q226.158 402.215 224.399 402.215 Q219.769 402.215 217.316 405.34 Q214.885 408.465 214.538 414.784 Q215.904 412.77 217.964 411.706 Q220.024 410.618 222.501 410.618 Q227.709 410.618 230.718 413.789 Q233.751 416.937 233.751 422.377 Q233.751 427.701 230.603 430.918 Q227.455 434.136 222.223 434.136 Q216.228 434.136 213.057 429.553 Q209.885 424.946 209.885 416.219 Q209.885 408.025 213.774 403.164 Q217.663 398.28 224.214 398.28 Q225.973 398.28 227.756 398.627 Q229.561 398.974 231.505 399.669 Z" fill="#000000" fill-rule="evenodd" fill-opacity="1" /><path clip-path="url(#clip870)" d="M146.506 116.335 Q142.895 116.335 141.066 119.899 Q139.261 123.441 139.261 130.571 Q139.261 137.677 141.066 141.242 Q142.895 144.784 146.506 144.784 Q150.14 144.784 151.946 141.242 Q153.774 137.677 153.774 130.571 Q153.774 123.441 151.946 119.899 Q150.14 116.335 146.506 116.335 M146.506 112.631 Q152.316 112.631 155.372 117.237 Q158.45 121.821 158.45 130.571 Q158.45 139.297 155.372 143.904 Q152.316 148.487 146.506 148.487 Q140.696 148.487 137.617 143.904 Q134.562 139.297 134.562 130.571 Q134.562 121.821 137.617 117.237 Q140.696 112.631 146.506 112.631 Z" fill="#000000" fill-rule="evenodd" fill-opacity="1" /><path clip-path="url(#clip870)" d="M166.668 141.936 L171.552 141.936 L171.552 147.816 L166.668 147.816 L166.668 141.936 Z" fill="#000000" fill-rule="evenodd" fill-opacity="1" /><path clip-path="url(#clip870)" d="M191.737 116.335 Q188.126 116.335 186.297 119.899 Q184.492 123.441 184.492 130.571 Q184.492 137.677 186.297 141.242 Q188.126 144.784 191.737 144.784 Q195.371 144.784 197.177 141.242 Q199.006 137.677 199.006 130.571 Q199.006 123.441 197.177 119.899 Q195.371 116.335 191.737 116.335 M191.737 112.631 Q197.547 112.631 200.603 117.237 Q203.682 121.821 203.682 130.571 Q203.682 139.297 200.603 143.904 Q197.547 148.487 191.737 148.487 Q185.927 148.487 182.848 143.904 Q179.793 139.297 179.793 130.571 Q179.793 121.821 182.848 117.237 Q185.927 112.631 191.737 112.631 Z" fill="#000000" fill-rule="evenodd" fill-opacity="1" /><path clip-path="url(#clip870)" d="M221.899 131.404 Q218.566 131.404 216.644 133.186 Q214.746 134.969 214.746 138.094 Q214.746 141.219 216.644 143.001 Q218.566 144.784 221.899 144.784 Q225.232 144.784 227.154 143.001 Q229.075 141.196 229.075 138.094 Q229.075 134.969 227.154 133.186 Q225.256 131.404 221.899 131.404 M217.223 129.413 Q214.214 128.672 212.524 126.612 Q210.857 124.552 210.857 121.589 Q210.857 117.446 213.797 115.038 Q216.76 112.631 221.899 112.631 Q227.061 112.631 230.001 115.038 Q232.941 117.446 232.941 121.589 Q232.941 124.552 231.251 126.612 Q229.584 128.672 226.598 129.413 Q229.978 130.2 231.853 132.492 Q233.751 134.784 233.751 138.094 Q233.751 143.117 230.672 145.802 Q227.617 148.487 221.899 148.487 Q216.181 148.487 213.103 145.802 Q210.047 143.117 210.047 138.094 Q210.047 134.784 211.945 132.492 Q213.844 130.2 217.223 129.413 M215.51 122.029 Q215.51 124.714 217.177 126.219 Q218.867 127.723 221.899 127.723 Q224.908 127.723 226.598 126.219 Q228.311 124.714 228.311 122.029 Q228.311 119.344 226.598 117.839 Q224.908 116.335 221.899 116.335 Q218.867 116.335 217.177 117.839 Q215.51 119.344 215.51 122.029 Z" fill="#000000" fill-rule="evenodd" fill-opacity="1" /><path clip-path="url(#clip870)" d="M44.0232 922.599 L55.424 923.92 Q56.4546 924.016 56.7767 924.177 Q57.0665 924.338 57.0665 924.854 Q57.0665 925.627 56.2936 925.627 Q55.9715 925.627 55.102 925.498 Q53.3307 925.305 51.5271 925.305 Q49.4982 925.305 48.2421 925.691 Q46.9539 926.045 46.0199 927.076 Q45.086 928.106 44.6995 930.007 Q44.2808 931.907 44.2808 934.934 L44.2808 943.63 Q44.2808 945.755 44.6673 946.271 Q45.0537 946.754 46.8573 947.205 L63.6043 951.423 L63.6043 945.433 Q63.6043 941.246 62.3805 939.604 Q61.1567 937.961 57.2598 936.931 Q56.6479 936.77 56.4224 936.705 Q56.1648 936.609 56.0359 936.448 Q55.8749 936.255 55.8749 935.932 Q55.8749 935.643 56.0682 935.449 Q56.2292 935.256 56.4224 935.192 L56.6157 935.127 Q56.9377 935.127 57.6784 935.321 L71.9778 938.96 Q72.944 939.217 73.1695 939.378 Q73.3627 939.507 73.3627 939.958 Q73.3627 940.28 73.1373 940.506 Q72.9118 940.731 72.5576 940.731 Q72.1711 940.667 71.849 940.538 Q69.8845 940.087 68.6284 940.087 Q67.8233 940.087 67.3402 940.248 Q66.8571 940.409 66.4384 940.957 Q66.0198 941.504 65.8265 942.631 Q65.6333 943.758 65.6333 945.562 L65.6333 951.939 L82.0583 956.029 L83.572 956.319 Q84.2483 956.319 84.5059 955.965 Q84.7636 955.578 84.8924 954.193 Q85.0534 952.132 85.0534 950.779 Q85.0534 949.105 85.1178 948.911 Q85.3111 948.525 85.8264 948.525 Q86.4061 948.525 86.7281 948.783 Q87.018 949.04 87.0502 949.266 Q87.0824 949.491 87.0824 949.91 L86.8892 959.733 L87.0824 968.428 Q87.0824 969.427 86.2773 969.427 Q85.6653 969.427 85.4077 969.169 Q85.1178 968.911 85.0856 968.621 Q85.0534 968.332 85.0534 967.591 Q85.0534 965.981 84.9568 965.014 Q84.8602 964.048 84.7314 963.436 Q84.5703 962.792 84.1195 962.47 Q83.6686 962.116 83.2821 961.955 Q82.8634 961.794 81.9295 961.568 L47.0505 952.873 Q45.8589 952.551 45.4724 952.551 Q45.0537 952.551 44.7961 952.841 Q44.5385 953.098 44.4418 953.807 Q44.313 954.515 44.313 955.095 Q44.2808 955.642 44.2808 956.834 Q44.2808 957.607 44.2486 957.929 Q44.2164 958.219 44.0554 958.444 Q43.8943 958.67 43.5401 958.67 Q42.6383 958.67 42.4451 958.283 Q42.2196 957.865 42.2196 956.705 L42.2196 924.371 Q42.2196 923.082 42.5095 922.792 Q42.7671 922.47 44.0232 922.599 Z" fill="#000000" fill-rule="evenodd" fill-opacity="1" /><path clip-path="url(#clip870)" d="M44.0232 880.621 L55.424 881.941 Q56.4546 882.038 56.7767 882.199 Q57.0665 882.36 57.0665 882.875 Q57.0665 883.648 56.2936 883.648 Q55.9715 883.648 55.102 883.519 Q53.3307 883.326 51.5271 883.326 Q49.4982 883.326 48.2421 883.713 Q46.9539 884.067 46.0199 885.097 Q45.086 886.128 44.6995 888.028 Q44.2808 889.928 44.2808 892.956 L44.2808 901.651 Q44.2808 903.777 44.6673 904.292 Q45.0537 904.775 46.8573 905.226 L63.6043 909.445 L63.6043 903.455 Q63.6043 899.268 62.3805 897.626 Q61.1567 895.983 57.2598 894.952 Q56.6479 894.791 56.4224 894.727 Q56.1648 894.63 56.0359 894.469 Q55.8749 894.276 55.8749 893.954 Q55.8749 893.664 56.0682 893.471 Q56.2292 893.278 56.4224 893.213 L56.6157 893.149 Q56.9377 893.149 57.6784 893.342 L71.9778 896.981 Q72.944 897.239 73.1695 897.4 Q73.3627 897.529 73.3627 897.98 Q73.3627 898.302 73.1373 898.527 Q72.9118 898.753 72.5576 898.753 Q72.1711 898.688 71.849 898.559 Q69.8845 898.109 68.6284 898.109 Q67.8233 898.109 67.3402 898.27 Q66.8571 898.431 66.4384 898.978 Q66.0198 899.526 65.8265 900.653 Q65.6333 901.78 65.6333 903.584 L65.6333 909.96 L82.0583 914.05 L83.572 914.34 Q84.2483 914.34 84.5059 913.986 Q84.7636 913.6 84.8924 912.215 Q85.0534 910.154 85.0534 908.801 Q85.0534 907.126 85.1178 906.933 Q85.3111 906.547 85.8264 906.547 Q86.4061 906.547 86.7281 906.804 Q87.018 907.062 87.0502 907.287 Q87.0824 907.513 87.0824 907.931 L86.8892 917.754 L87.0824 926.45 Q87.0824 927.448 86.2773 927.448 Q85.6653 927.448 85.4077 927.19 Q85.1178 926.933 85.0856 926.643 Q85.0534 926.353 85.0534 925.612 Q85.0534 924.002 84.9568 923.036 Q84.8602 922.07 84.7314 921.458 Q84.5703 920.814 84.1195 920.492 Q83.6686 920.137 83.2821 919.976 Q82.8634 919.815 81.9295 919.59 L47.0505 910.894 Q45.8589 910.572 45.4724 910.572 Q45.0537 910.572 44.7961 910.862 Q44.5385 911.12 44.4418 911.828 Q44.313 912.537 44.313 913.117 Q44.2808 913.664 44.2808 914.856 Q44.2808 915.629 44.2486 915.951 Q44.2164 916.24 44.0554 916.466 Q43.8943 916.691 43.5401 916.691 Q42.6383 916.691 42.4451 916.305 Q42.2196 915.886 42.2196 914.727 L42.2196 882.392 Q42.2196 881.104 42.5095 880.814 Q42.7671 880.492 44.0232 880.621 Z" fill="#000000" fill-rule="evenodd" fill-opacity="1" /><path clip-path="url(#clip870)" d="M86.1794 849.786 Q89.4708 849.786 92.6496 851.454 Q95.8283 853.1 97.7896 855.692 Q99.7284 858.285 99.7284 860.923 Q99.7284 862.501 98.8717 863.56 Q97.9925 864.597 96.7526 865.161 Q98.2856 865.589 101.96 866.514 Q105.635 867.438 105.996 867.438 Q106.199 867.438 106.289 867.393 Q106.379 867.348 106.492 867.145 Q106.627 866.942 106.672 866.446 Q106.74 865.95 106.74 865.116 Q106.74 864.688 106.74 864.53 Q106.762 864.349 106.875 864.192 Q106.988 864.011 107.236 864.011 Q108.16 864.011 108.16 864.845 Q108.16 865.589 108.092 867.122 Q108.025 868.655 108.025 869.422 Q108.025 870.076 108.092 871.383 Q108.16 872.691 108.16 873.299 Q108.16 873.908 107.619 873.908 Q107.303 873.908 107.1 873.818 Q106.92 873.75 106.83 873.57 Q106.762 873.39 106.74 873.232 Q106.74 873.097 106.74 872.826 Q106.74 871.789 106.559 871.338 Q106.401 870.887 106.063 870.729 Q105.748 870.549 104.846 870.346 L84.2857 865.161 Q82.9105 864.845 81.9411 864.845 Q80.7237 864.845 80.2729 865.229 Q79.822 865.612 79.822 866.288 Q79.822 867.461 81.2197 868.227 Q82.6174 868.994 85.3227 869.647 Q86.0667 869.85 86.2245 869.985 Q86.3823 870.098 86.3823 870.436 Q86.3598 871 85.9089 871 Q85.7962 871 85.0747 870.82 Q84.3308 870.639 83.2487 870.301 Q82.144 869.94 81.4451 869.557 Q80.9717 869.332 80.6561 869.129 Q80.3405 868.926 79.8445 868.52 Q79.3485 868.092 79.078 867.483 Q78.8075 866.874 78.8075 866.13 Q78.8075 864.688 79.6642 863.493 Q80.5208 862.298 82.2567 861.982 Q80.7463 860.697 79.7769 859.119 Q78.8075 857.541 78.8075 855.94 Q78.8075 853.28 80.8815 851.544 Q82.9331 849.786 86.1794 849.786 M84.1504 853.122 Q82.0989 853.122 80.9717 853.912 Q79.822 854.678 79.822 856.076 Q79.822 857.812 81.5804 859.818 Q83.2487 861.802 84.8042 862.208 L93.8444 864.485 L94.5884 864.62 Q94.7236 864.62 95.1294 864.552 Q95.5127 864.462 96.1439 864.214 Q96.7751 863.944 97.3387 863.583 Q97.8798 863.2 98.2856 862.523 Q98.6914 861.824 98.6914 860.968 Q98.6914 859.593 97.474 858.105 Q96.2566 856.594 93.9571 855.467 Q92.4692 854.768 89.2679 853.957 Q86.0441 853.122 84.1504 853.122 Z" fill="#000000" fill-rule="evenodd" fill-opacity="1" /><path clip-path="url(#clip870)" d="M29.9626 873.908 Q22.1624 873.908 15.8726 871 Q13.2349 869.76 11.0256 868.024 Q8.81626 866.288 7.84686 865.138 Q6.87747 863.989 6.87747 863.673 Q6.87747 863.222 7.32835 863.2 Q7.55379 863.2 8.11739 863.808 Q15.6922 871.248 29.9626 871.225 Q44.2781 871.225 51.5599 863.989 Q52.3489 863.2 52.5969 863.2 Q53.0478 863.2 53.0478 863.673 Q53.0478 863.989 52.1235 865.093 Q51.1992 866.198 49.08 867.911 Q46.9609 869.625 44.3683 870.865 Q38.0785 873.908 29.9626 873.908 Z" fill="#000000" fill-rule="evenodd" fill-opacity="1" /><path clip-path="url(#clip870)" d="M24.3266 829.12 Q26.0625 829.12 29.895 830.067 Q33.7275 831.014 36.3426 832.164 Q42.0237 834.621 42.0237 838.859 Q42.0237 839.378 41.9786 839.896 Q41.9335 840.392 41.7307 841.136 Q41.5278 841.88 41.2121 842.489 Q40.874 843.098 40.2427 843.706 Q39.6115 844.293 38.7774 844.631 Q42.0237 846.502 42.0237 849.433 Q42.0237 852.273 40.5809 854.144 Q39.1381 855.993 36.1848 855.993 Q34.8547 855.993 32.8934 855.452 Q30.932 854.911 26.8741 853.4 Q24.7775 852.566 23.6277 852.566 Q23.1092 852.566 22.7711 852.679 Q22.4329 852.792 22.3202 853.017 Q22.1849 853.22 22.1624 853.355 Q22.1173 853.491 22.1173 853.716 Q22.1173 855.069 23.4925 856.286 Q24.8451 857.503 27.8435 858.383 Q28.4071 858.563 28.5424 858.676 Q28.6776 858.788 28.6776 859.127 Q28.6551 859.69 28.2042 859.69 Q28.0238 859.69 27.325 859.487 Q26.6036 859.284 25.544 858.811 Q24.4619 858.315 23.4925 857.639 Q22.5005 856.962 21.8017 855.903 Q21.1028 854.821 21.1028 853.581 Q21.1028 851.912 22.2075 850.853 Q23.3121 849.793 24.8902 849.793 Q25.3411 849.793 25.8371 849.906 Q26.3105 850.019 26.6261 850.131 Q26.9192 850.222 27.8435 850.582 Q31.7436 852.07 33.6148 852.544 Q35.4859 852.995 36.7935 852.995 Q37.2218 852.995 37.56 852.972 Q37.8982 852.949 38.597 852.769 Q39.2959 852.566 39.7693 852.206 Q40.2202 851.845 40.6034 851.101 Q40.9867 850.334 40.9867 849.297 Q40.9867 846.705 37.1091 845.036 Q36.8837 845.082 36.2975 845.082 Q34.99 845.082 33.2315 844.676 Q32.8257 844.563 30.2332 843.909 Q27.618 843.255 25.3411 842.692 Q23.0416 842.106 22.9063 842.038 Q22.2751 841.813 21.9369 841.317 Q21.5988 840.821 21.5988 840.325 Q21.5988 839.761 21.9369 839.378 Q22.2751 838.995 22.8612 838.995 Q22.974 838.995 23.4925 839.13 Q23.9884 839.243 24.7324 839.423 Q25.4764 839.603 25.8596 839.694 L33.6148 841.632 Q35.4183 842.128 36.9738 842.128 Q38.9352 842.128 39.9722 841.249 Q40.9867 840.37 40.9867 838.724 Q40.9867 835.636 36.9288 833.652 Q35.1703 832.75 32.4199 831.938 Q29.6696 831.104 28.4747 831.104 Q26.2203 831.104 24.552 832.772 Q24.2364 833.133 23.9884 833.291 Q23.7179 833.449 23.3121 833.449 Q22.5456 833.449 21.8242 832.727 Q21.1028 832.006 21.1028 831.149 Q21.1028 830.383 21.8693 829.752 Q22.6133 829.12 24.3266 829.12 Z" fill="#000000" fill-rule="evenodd" fill-opacity="1" /><path clip-path="url(#clip870)" d="M36.1623 807.671 Q36.3652 807.49 36.5681 807.49 Q36.7709 807.49 37.3571 807.941 Q37.9432 808.369 38.7323 809.294 Q39.5213 810.218 40.2653 811.413 Q41.0092 812.608 41.5052 814.366 Q42.0237 816.125 42.0237 817.973 Q42.0237 821.423 39.7468 823.451 Q37.4698 825.458 34.2009 825.458 Q31.0222 825.458 27.9787 823.677 Q24.9127 821.896 23.019 819.01 Q21.1028 816.125 21.1028 813.081 Q21.1028 810.669 22.23 809.159 Q23.3572 807.648 25.0706 807.648 Q26.4007 807.648 27.2122 808.415 Q28.0238 809.181 28.0238 810.218 Q28.0238 810.94 27.618 811.435 Q27.1897 811.931 26.4007 811.931 Q25.3862 811.931 24.5971 811.097 Q24.2815 810.782 24.1463 810.421 Q23.9884 810.038 23.9884 809.812 Q23.9659 809.587 23.9659 809.068 Q23.0867 809.542 22.6133 810.669 Q22.1173 811.774 22.1173 813.036 Q22.1173 814.907 23.4248 816.688 Q24.7099 818.469 26.7388 819.551 Q28.7227 820.633 31.5407 821.332 Q34.3362 822.031 35.9594 822.031 Q38.1912 822.031 39.589 820.994 Q40.9867 819.957 40.9867 817.883 Q40.9867 817.477 40.9642 817.049 Q40.9416 816.598 40.6936 815.471 Q40.4456 814.321 40.0173 813.307 Q39.589 812.292 38.6647 811.007 Q37.7178 809.7 36.4328 808.663 Q35.9594 808.302 35.9594 808.054 Q35.9594 807.851 36.1623 807.671 Z" fill="#000000" fill-rule="evenodd" fill-opacity="1" /><path clip-path="url(#clip870)" d="M52.5969 805.12 Q52.3715 805.12 51.8079 804.534 Q44.233 797.094 29.9626 797.094 Q15.6471 797.094 8.41047 804.241 Q7.57633 805.12 7.32835 805.12 Q6.87747 805.12 6.87747 804.669 Q6.87747 804.354 7.80178 803.249 Q8.72608 802.122 10.8452 800.431 Q12.9644 798.718 15.5569 797.455 Q21.8468 794.412 29.9626 794.412 Q37.7629 794.412 44.0527 797.32 Q46.6904 798.56 48.8997 800.296 Q51.109 802.032 52.0784 803.181 Q53.0478 804.331 53.0478 804.669 Q53.0478 805.12 52.5969 805.12 Z" fill="#000000" fill-rule="evenodd" fill-opacity="1" /><path clip-path="url(#clip870)" d="M69.659 718.506 Q70.0455 718.119 70.593 718.119 Q71.1405 718.119 71.527 718.506 Q71.9134 718.892 71.9134 719.44 L71.9134 760.728 Q71.9134 761.275 71.527 761.662 Q71.1405 762.048 70.593 762.048 Q70.0455 762.048 69.659 761.662 Q69.2726 761.275 69.2726 760.728 L69.2726 719.44 Q69.2726 718.892 69.659 718.506 Z" fill="#000000" fill-rule="evenodd" fill-opacity="1" /><path clip-path="url(#clip870)" d="M44.0232 646.104 L55.424 647.424 Q56.4546 647.521 56.7767 647.682 Q57.0665 647.843 57.0665 648.358 Q57.0665 649.131 56.2936 649.131 Q55.9715 649.131 55.102 649.003 Q53.3307 648.809 51.5271 648.809 Q49.4982 648.809 48.2421 649.196 Q46.9539 649.55 46.0199 650.581 Q45.086 651.611 44.6995 653.511 Q44.2808 655.412 44.2808 658.439 L44.2808 667.134 Q44.2808 669.26 44.6673 669.775 Q45.0537 670.258 46.8573 670.709 L63.6043 674.928 L63.6043 668.938 Q63.6043 664.751 62.3805 663.109 Q61.1567 661.466 57.2598 660.436 Q56.6479 660.275 56.4224 660.21 Q56.1648 660.114 56.0359 659.953 Q55.8749 659.759 55.8749 659.437 Q55.8749 659.147 56.0682 658.954 Q56.2292 658.761 56.4224 658.697 L56.6157 658.632 Q56.9377 658.632 57.6784 658.825 L71.9778 662.465 Q72.944 662.722 73.1695 662.883 Q73.3627 663.012 73.3627 663.463 Q73.3627 663.785 73.1373 664.01 Q72.9118 664.236 72.5576 664.236 Q72.1711 664.172 71.849 664.043 Q69.8845 663.592 68.6284 663.592 Q67.8233 663.592 67.3402 663.753 Q66.8571 663.914 66.4384 664.461 Q66.0198 665.009 65.8265 666.136 Q65.6333 667.263 65.6333 669.067 L65.6333 675.444 L82.0583 679.534 L83.572 679.824 Q84.2483 679.824 84.5059 679.469 Q84.7636 679.083 84.8924 677.698 Q85.0534 675.637 85.0534 674.284 Q85.0534 672.609 85.1178 672.416 Q85.3111 672.03 85.8264 672.03 Q86.4061 672.03 86.7281 672.287 Q87.018 672.545 87.0502 672.77 Q87.0824 672.996 87.0824 673.415 L86.8892 683.237 L87.0824 691.933 Q87.0824 692.931 86.2773 692.931 Q85.6653 692.931 85.4077 692.674 Q85.1178 692.416 85.0856 692.126 Q85.0534 691.836 85.0534 691.096 Q85.0534 689.485 84.9568 688.519 Q84.8602 687.553 84.7314 686.941 Q84.5703 686.297 84.1195 685.975 Q83.6686 685.621 83.2821 685.46 Q82.8634 685.299 81.9295 685.073 L47.0505 676.378 Q45.8589 676.055 45.4724 676.055 Q45.0537 676.055 44.7961 676.345 Q44.5385 676.603 44.4418 677.312 Q44.313 678.02 44.313 678.6 Q44.2808 679.147 44.2808 680.339 Q44.2808 681.112 44.2486 681.434 Q44.2164 681.724 44.0554 681.949 Q43.8943 682.175 43.5401 682.175 Q42.6383 682.175 42.4451 681.788 Q42.2196 681.369 42.2196 680.21 L42.2196 647.875 Q42.2196 646.587 42.5095 646.297 Q42.7671 645.975 44.0232 646.104 Z" fill="#000000" fill-rule="evenodd" fill-opacity="1" /><path clip-path="url(#clip870)" d="M44.0232 604.126 L55.424 605.446 Q56.4546 605.543 56.7767 605.704 Q57.0665 605.865 57.0665 606.38 Q57.0665 607.153 56.2936 607.153 Q55.9715 607.153 55.102 607.024 Q53.3307 606.831 51.5271 606.831 Q49.4982 606.831 48.2421 607.217 Q46.9539 607.572 46.0199 608.602 Q45.086 609.633 44.6995 611.533 Q44.2808 613.433 44.2808 616.46 L44.2808 625.156 Q44.2808 627.282 44.6673 627.797 Q45.0537 628.28 46.8573 628.731 L63.6043 632.95 L63.6043 626.96 Q63.6043 622.773 62.3805 621.13 Q61.1567 619.488 57.2598 618.457 Q56.6479 618.296 56.4224 618.232 Q56.1648 618.135 56.0359 617.974 Q55.8749 617.781 55.8749 617.459 Q55.8749 617.169 56.0682 616.976 Q56.2292 616.783 56.4224 616.718 L56.6157 616.654 Q56.9377 616.654 57.6784 616.847 L71.9778 620.486 Q72.944 620.744 73.1695 620.905 Q73.3627 621.034 73.3627 621.485 Q73.3627 621.807 73.1373 622.032 Q72.9118 622.257 72.5576 622.257 Q72.1711 622.193 71.849 622.064 Q69.8845 621.613 68.6284 621.613 Q67.8233 621.613 67.3402 621.774 Q66.8571 621.935 66.4384 622.483 Q66.0198 623.03 65.8265 624.158 Q65.6333 625.285 65.6333 627.088 L65.6333 633.465 L82.0583 637.555 L83.572 637.845 Q84.2483 637.845 84.5059 637.491 Q84.7636 637.104 84.8924 635.72 Q85.0534 633.658 85.0534 632.306 Q85.0534 630.631 85.1178 630.438 Q85.3111 630.051 85.8264 630.051 Q86.4061 630.051 86.7281 630.309 Q87.018 630.567 87.0502 630.792 Q87.0824 631.017 87.0824 631.436 L86.8892 641.259 L87.0824 649.955 Q87.0824 650.953 86.2773 650.953 Q85.6653 650.953 85.4077 650.695 Q85.1178 650.438 85.0856 650.148 Q85.0534 649.858 85.0534 649.117 Q85.0534 647.507 84.9568 646.541 Q84.8602 645.575 84.7314 644.963 Q84.5703 644.319 84.1195 643.996 Q83.6686 643.642 83.2821 643.481 Q82.8634 643.32 81.9295 643.095 L47.0505 634.399 Q45.8589 634.077 45.4724 634.077 Q45.0537 634.077 44.7961 634.367 Q44.5385 634.625 44.4418 635.333 Q44.313 636.042 44.313 636.621 Q44.2808 637.169 44.2808 638.36 Q44.2808 639.133 44.2486 639.455 Q44.2164 639.745 44.0554 639.971 Q43.8943 640.196 43.5401 640.196 Q42.6383 640.196 42.4451 639.81 Q42.2196 639.391 42.2196 638.232 L42.2196 605.897 Q42.2196 604.609 42.5095 604.319 Q42.7671 603.997 44.0232 604.126 Z" fill="#000000" fill-rule="evenodd" fill-opacity="1" /><path clip-path="url(#clip870)" d="M86.1794 573.291 Q89.4708 573.291 92.6496 574.959 Q95.8283 576.605 97.7896 579.197 Q99.7284 581.79 99.7284 584.428 Q99.7284 586.006 98.8717 587.065 Q97.9925 588.102 96.7526 588.666 Q98.2856 589.094 101.96 590.018 Q105.635 590.943 105.996 590.943 Q106.199 590.943 106.289 590.898 Q106.379 590.853 106.492 590.65 Q106.627 590.447 106.672 589.951 Q106.74 589.455 106.74 588.621 Q106.74 588.192 106.74 588.035 Q106.762 587.854 106.875 587.696 Q106.988 587.516 107.236 587.516 Q108.16 587.516 108.16 588.35 Q108.16 589.094 108.092 590.627 Q108.025 592.16 108.025 592.927 Q108.025 593.58 108.092 594.888 Q108.16 596.196 108.16 596.804 Q108.16 597.413 107.619 597.413 Q107.303 597.413 107.1 597.323 Q106.92 597.255 106.83 597.075 Q106.762 596.894 106.74 596.737 Q106.74 596.601 106.74 596.331 Q106.74 595.294 106.559 594.843 Q106.401 594.392 106.063 594.234 Q105.748 594.054 104.846 593.851 L84.2857 588.666 Q82.9105 588.35 81.9411 588.35 Q80.7237 588.35 80.2729 588.733 Q79.822 589.117 79.822 589.793 Q79.822 590.965 81.2197 591.732 Q82.6174 592.498 85.3227 593.152 Q86.0667 593.355 86.2245 593.49 Q86.3823 593.603 86.3823 593.941 Q86.3598 594.505 85.9089 594.505 Q85.7962 594.505 85.0747 594.324 Q84.3308 594.144 83.2487 593.806 Q82.144 593.445 81.4451 593.062 Q80.9717 592.836 80.6561 592.634 Q80.3405 592.431 79.8445 592.025 Q79.3485 591.597 79.078 590.988 Q78.8075 590.379 78.8075 589.635 Q78.8075 588.192 79.6642 586.998 Q80.5208 585.803 82.2567 585.487 Q80.7463 584.202 79.7769 582.624 Q78.8075 581.046 78.8075 579.445 Q78.8075 576.785 80.8815 575.049 Q82.9331 573.291 86.1794 573.291 M84.1504 576.627 Q82.0989 576.627 80.9717 577.416 Q79.822 578.183 79.822 579.581 Q79.822 581.316 81.5804 583.323 Q83.2487 585.307 84.8042 585.713 L93.8444 587.989 L94.5884 588.125 Q94.7236 588.125 95.1294 588.057 Q95.5127 587.967 96.1439 587.719 Q96.7751 587.448 97.3387 587.088 Q97.8798 586.704 98.2856 586.028 Q98.6914 585.329 98.6914 584.473 Q98.6914 583.097 97.474 581.61 Q96.2566 580.099 93.9571 578.972 Q92.4692 578.273 89.2679 577.461 Q86.0441 576.627 84.1504 576.627 Z" fill="#000000" fill-rule="evenodd" fill-opacity="1" /><path clip-path="url(#clip870)" d="M29.9626 597.413 Q22.1624 597.413 15.8726 594.505 Q13.2349 593.265 11.0256 591.529 Q8.81626 589.793 7.84686 588.643 Q6.87747 587.494 6.87747 587.178 Q6.87747 586.727 7.32835 586.704 Q7.55379 586.704 8.11739 587.313 Q15.6922 594.753 29.9626 594.73 Q44.2781 594.73 51.5599 587.494 Q52.3489 586.704 52.5969 586.704 Q53.0478 586.704 53.0478 587.178 Q53.0478 587.494 52.1235 588.598 Q51.1992 589.703 49.08 591.416 Q46.9609 593.13 44.3683 594.369 Q38.0785 597.413 29.9626 597.413 Z" fill="#000000" fill-rule="evenodd" fill-opacity="1" /><path clip-path="url(#clip870)" d="M24.1012 564.393 Q25.296 564.393 26.0625 565.182 Q26.829 565.949 26.829 566.941 Q26.829 567.797 26.333 568.248 Q25.8371 568.699 25.2058 568.699 Q24.3041 568.699 23.5601 568 Q22.8161 567.301 22.6583 566.287 Q22.1173 567.031 22.1173 568.226 Q22.1173 570.187 23.6277 571.923 Q24.3266 572.689 25.6116 573.524 Q26.8741 574.358 27.4151 574.515 L33.4344 575.981 Q34.1107 576.116 37.3571 576.95 Q40.5809 577.762 40.7162 577.829 Q41.3474 578.055 41.6856 578.551 Q42.0237 579.047 42.0237 579.543 Q42.0237 580.106 41.6856 580.49 Q41.3474 580.873 40.7613 580.873 Q40.6711 580.873 40.3329 580.805 Q39.9948 580.738 39.5213 580.625 Q39.0479 580.512 38.7774 580.467 L28.114 577.784 Q26.1752 577.288 25.5665 577.176 Q24.9353 577.04 24.2364 577.04 Q23.019 577.04 22.5682 577.424 Q22.1173 577.807 22.1173 578.483 Q22.1173 579.656 23.515 580.422 Q24.9127 581.189 27.618 581.842 Q28.362 582.045 28.5198 582.18 Q28.6776 582.293 28.6776 582.631 Q28.6551 583.195 28.2042 583.195 Q28.0915 583.195 27.3701 583.015 Q26.6261 582.834 25.544 582.496 Q24.4393 582.135 23.7405 581.752 Q23.267 581.527 22.9514 581.324 Q22.6358 581.121 22.1398 580.715 Q21.6439 580.309 21.3733 579.701 Q21.1028 579.092 21.1028 578.348 Q21.1028 576.725 22.0947 575.575 Q23.0867 574.403 24.6422 574.132 Q23.8306 573.569 23.1318 572.87 Q22.4104 572.171 21.7566 570.886 Q21.1028 569.601 21.1028 568.226 Q21.1028 566.512 21.982 565.453 Q22.8387 564.393 24.1012 564.393 Z" fill="#000000" fill-rule="evenodd" fill-opacity="1" /><path clip-path="url(#clip870)" d="M12.6488 551.378 Q13.6407 551.378 14.3847 552.189 Q15.1061 552.978 15.1061 553.835 Q15.1061 554.624 14.6326 555.12 Q14.1367 555.594 13.4378 555.594 Q12.5135 555.594 11.747 554.805 Q10.9805 554.016 10.9805 553.091 Q10.9805 552.325 11.4539 551.851 Q11.9273 551.378 12.6488 551.378 M34.8998 550.972 Q35.0801 550.972 35.8016 551.175 Q36.5004 551.378 37.5825 551.874 Q38.6421 552.347 39.634 553.001 Q40.626 553.655 41.3249 554.737 Q42.0237 555.796 42.0237 557.014 Q42.0237 558.66 40.9416 559.742 Q39.8595 560.801 38.2363 560.801 Q37.3571 560.801 34.5391 559.742 Q26.333 556.676 25.9949 556.563 Q24.7099 556.044 23.5826 556.044 Q23.0641 556.044 22.7485 556.157 Q22.4104 556.27 22.2976 556.495 Q22.1624 556.721 22.1398 556.856 Q22.1173 556.969 22.1173 557.194 Q22.1173 558.524 23.4699 559.764 Q24.8226 561.004 27.8435 561.861 Q28.4071 562.041 28.5424 562.154 Q28.6776 562.267 28.6776 562.605 Q28.6551 563.168 28.2042 563.168 Q28.0689 563.168 27.5504 563.011 Q27.0094 562.853 26.1978 562.56 Q25.3636 562.267 24.507 561.748 Q23.6277 561.23 22.8612 560.598 Q22.0947 559.945 21.5988 559.02 Q21.1028 558.096 21.1028 557.059 Q21.1028 555.368 22.2075 554.331 Q23.2896 553.272 24.8902 553.272 Q25.7694 553.272 27.325 553.88 Q29.3539 554.624 30.0077 554.895 L34.8547 556.698 Q36.6131 557.352 37.1542 557.555 Q37.6727 557.735 38.3039 557.893 Q38.9126 558.028 39.4762 558.028 Q40.2653 558.028 40.626 557.78 Q40.9867 557.51 40.9867 556.924 Q40.9867 555.301 39.3861 554.106 Q37.7629 552.911 35.283 552.212 Q35.2154 552.189 35.1027 552.167 Q34.5391 551.987 34.4714 551.806 Q34.4489 551.716 34.4489 551.536 Q34.4489 550.972 34.8998 550.972 Z" fill="#000000" fill-rule="evenodd" fill-opacity="1" /><path clip-path="url(#clip870)" d="M28.4747 529.112 Q31.7211 529.112 34.8998 530.758 Q38.056 532.381 40.0398 534.996 Q42.0237 537.589 42.0237 540.249 Q42.0237 542.842 40.0398 544.487 Q38.0334 546.111 34.7645 546.111 Q33.6148 546.111 32.8032 545.975 Q31.9916 545.84 30.0979 545.367 L15.0384 541.579 Q12.2204 540.925 12.1979 540.925 Q11.9273 540.925 11.7921 541.038 Q11.6343 541.128 11.5216 541.669 Q11.4088 542.21 11.4088 543.247 Q11.4088 543.676 11.3863 543.879 Q11.3637 544.059 11.251 544.217 Q11.1158 544.352 10.8452 544.352 Q10.462 544.352 10.2591 544.194 Q10.0336 544.014 9.98855 543.879 Q9.94347 543.743 9.92092 543.473 Q9.89838 543.09 9.78566 541.805 Q9.65039 540.52 9.56022 539.415 Q9.47004 538.31 9.47004 537.837 Q9.47004 537.566 9.6053 537.431 Q9.71802 537.273 9.85329 537.273 L9.96601 537.251 L23.8757 540.655 Q21.1028 537.972 21.1028 535.244 Q21.1028 532.516 23.1994 530.826 Q25.296 529.112 28.4747 529.112 M26.4457 532.449 Q24.3041 532.449 23.2219 533.26 Q22.1173 534.049 22.1173 535.357 Q22.1173 536.462 22.9514 537.905 Q23.7855 539.347 25.8145 540.88 Q26.1978 541.173 26.4232 541.286 Q26.6486 541.376 27.4151 541.579 L31.676 542.594 Q34.5842 543.338 36.3426 543.338 Q38.7323 543.338 39.8595 542.458 Q40.9867 541.579 40.9867 540.249 Q40.9867 538.851 39.7468 537.386 Q38.5068 535.921 36.2524 534.793 Q34.7645 534.095 31.5633 533.283 Q28.3395 532.449 26.4457 532.449 Z" fill="#000000" fill-rule="evenodd" fill-opacity="1" /><path clip-path="url(#clip870)" d="M52.5969 525.767 Q52.3715 525.767 51.8079 525.18 Q44.233 517.741 29.9626 517.741 Q15.6471 517.741 8.41047 524.887 Q7.57633 525.767 7.32835 525.767 Q6.87747 525.767 6.87747 525.316 Q6.87747 525 7.80178 523.895 Q8.72608 522.768 10.8452 521.077 Q12.9644 519.364 15.5569 518.102 Q21.8468 515.058 29.9626 515.058 Q37.7629 515.058 44.0527 517.966 Q46.6904 519.206 48.8997 520.942 Q51.109 522.678 52.0784 523.828 Q53.0478 524.978 53.0478 525.316 Q53.0478 525.767 52.5969 525.767 Z" fill="#000000" fill-rule="evenodd" fill-opacity="1" /><circle clip-path="url(#clip872)" cx="328.704" cy="86.1857" r="21" fill="#ff00ff" fill-rule="evenodd" fill-opacity="1" stroke="none"/>
<circle clip-path="url(#clip872)" cx="819.979" cy="725.231" r="21" fill="#ff00ff" fill-rule="evenodd" fill-opacity="1" stroke="none"/>
<circle clip-path="url(#clip872)" cx="1311.25" cy="1082.32" r="21" fill="#ff00ff" fill-rule="evenodd" fill-opacity="1" stroke="none"/>
<circle clip-path="url(#clip872)" cx="1802.53" cy="1272.38" r="21" fill="#ff00ff" fill-rule="evenodd" fill-opacity="1" stroke="none"/>
<circle clip-path="url(#clip872)" cx="2293.8" cy="1384.24" r="21" fill="#ff00ff" fill-rule="evenodd" fill-opacity="1" stroke="none"/>
</svg>
