<?xml version="1.0" encoding="utf-8"?>
<svg xmlns="http://www.w3.org/2000/svg" xmlns:xlink="http://www.w3.org/1999/xlink" width="600" height="400" viewBox="0 0 2400 1600">
<defs>
  <clipPath id="clip920">
    <rect x="0" y="0" width="2400" height="1600"/>
  </clipPath>
</defs>
<path clip-path="url(#clip920)" d="
M0 1600 L2400 1600 L2400 0 L0 0  Z
  " fill="#ffffff" fill-rule="evenodd" fill-opacity="1"/>
<defs>
  <clipPath id="clip921">
    <rect x="480" y="0" width="1681" height="1600"/>
  </clipPath>
</defs>
<defs>
  <clipPath id="clip922">
    <rect x="198" y="47" width="2155" height="1377"/>
  </clipPath>
</defs>
<path clip-path="url(#clip920)" d="
M198.81 1423.18 L2352.76 1423.18 L2352.76 47.2441 L198.81 47.2441  Z
  " fill="#ffffff" fill-rule="evenodd" fill-opacity="1"/>
<polyline clip-path="url(#clip920)" style="stroke:#000000; stroke-linecap:butt; stroke-linejoin:round; stroke-width:4; stroke-opacity:1; fill:none" points="
  198.81,1423.18 2352.76,1423.18 
  "/>
<polyline clip-path="url(#clip920)" style="stroke:#000000; stroke-linecap:butt; stroke-linejoin:round; stroke-width:4; stroke-opacity:1; fill:none" points="
  246.224,1423.18 246.224,1404.28 
  "/>
<polyline clip-path="url(#clip920)" style="stroke:#000000; stroke-linecap:butt; stroke-linejoin:round; stroke-width:4; stroke-opacity:1; fill:none" points="
  923.565,1423.18 923.565,1404.28 
  "/>
<polyline clip-path="url(#clip920)" style="stroke:#000000; stroke-linecap:butt; stroke-linejoin:round; stroke-width:4; stroke-opacity:1; fill:none" points="
  1600.91,1423.18 1600.91,1404.28 
  "/>
<polyline clip-path="url(#clip920)" style="stroke:#000000; stroke-linecap:butt; stroke-linejoin:round; stroke-width:4; stroke-opacity:1; fill:none" points="
  2278.25,1423.18 2278.25,1404.28 
  "/>
<path clip-path="url(#clip920)" d="M246.224 1452.37 Q242.613 1452.37 240.784 1455.94 Q238.978 1459.48 238.978 1466.61 Q238.978 1473.71 240.784 1477.28 Q242.613 1480.82 246.224 1480.82 Q249.858 1480.82 251.664 1477.28 Q253.492 1473.71 253.492 1466.61 Q253.492 1459.48 251.664 1455.94 Q249.858 1452.37 246.224 1452.37 M246.224 1448.67 Q252.034 1448.67 255.089 1453.27 Q258.168 1457.86 258.168 1466.61 Q258.168 1475.33 255.089 1479.94 Q252.034 1484.52 246.224 1484.52 Q240.414 1484.52 237.335 1479.94 Q234.279 1475.33 234.279 1466.61 Q234.279 1457.86 237.335 1453.27 Q240.414 1448.67 246.224 1448.67 Z" fill="#000000" fill-rule="evenodd" fill-opacity="1" /><path clip-path="url(#clip920)" d="M898.264 1449.29 L916.621 1449.29 L916.621 1453.23 L902.547 1453.23 L902.547 1461.7 Q903.565 1461.35 904.584 1461.19 Q905.602 1461 906.621 1461 Q912.408 1461 915.788 1464.18 Q919.167 1467.35 919.167 1472.76 Q919.167 1478.34 915.695 1481.44 Q912.223 1484.52 905.903 1484.52 Q903.727 1484.52 901.459 1484.15 Q899.214 1483.78 896.806 1483.04 L896.806 1478.34 Q898.889 1479.48 901.112 1480.03 Q903.334 1480.59 905.811 1480.59 Q909.815 1480.59 912.153 1478.48 Q914.491 1476.38 914.491 1472.76 Q914.491 1469.15 912.153 1467.05 Q909.815 1464.94 905.811 1464.94 Q903.936 1464.94 902.061 1465.36 Q900.209 1465.77 898.264 1466.65 L898.264 1449.29 Z" fill="#000000" fill-rule="evenodd" fill-opacity="1" /><path clip-path="url(#clip920)" d="M938.38 1452.37 Q934.769 1452.37 932.94 1455.94 Q931.135 1459.48 931.135 1466.61 Q931.135 1473.71 932.94 1477.28 Q934.769 1480.82 938.38 1480.82 Q942.014 1480.82 943.82 1477.28 Q945.648 1473.71 945.648 1466.61 Q945.648 1459.48 943.82 1455.94 Q942.014 1452.37 938.38 1452.37 M938.38 1448.67 Q944.19 1448.67 947.246 1453.27 Q950.324 1457.86 950.324 1466.61 Q950.324 1475.33 947.246 1479.94 Q944.19 1484.52 938.38 1484.52 Q932.57 1484.52 929.491 1479.94 Q926.436 1475.33 926.436 1466.61 Q926.436 1457.86 929.491 1453.27 Q932.57 1448.67 938.38 1448.67 Z" fill="#000000" fill-rule="evenodd" fill-opacity="1" /><path clip-path="url(#clip920)" d="M1560.51 1479.92 L1568.15 1479.92 L1568.15 1453.55 L1559.84 1455.22 L1559.84 1450.96 L1568.11 1449.29 L1572.78 1449.29 L1572.78 1479.92 L1580.42 1479.92 L1580.42 1483.85 L1560.51 1483.85 L1560.51 1479.92 Z" fill="#000000" fill-rule="evenodd" fill-opacity="1" /><path clip-path="url(#clip920)" d="M1599.87 1452.37 Q1596.25 1452.37 1594.43 1455.94 Q1592.62 1459.48 1592.62 1466.61 Q1592.62 1473.71 1594.43 1477.28 Q1596.25 1480.82 1599.87 1480.82 Q1603.5 1480.82 1605.3 1477.28 Q1607.13 1473.71 1607.13 1466.61 Q1607.13 1459.48 1605.3 1455.94 Q1603.5 1452.37 1599.87 1452.37 M1599.87 1448.67 Q1605.68 1448.67 1608.73 1453.27 Q1611.81 1457.86 1611.81 1466.61 Q1611.81 1475.33 1608.73 1479.94 Q1605.68 1484.52 1599.87 1484.52 Q1594.05 1484.52 1590.98 1479.94 Q1587.92 1475.33 1587.92 1466.61 Q1587.92 1457.86 1590.98 1453.27 Q1594.05 1448.67 1599.87 1448.67 Z" fill="#000000" fill-rule="evenodd" fill-opacity="1" /><path clip-path="url(#clip920)" d="M1630.03 1452.37 Q1626.42 1452.37 1624.59 1455.94 Q1622.78 1459.48 1622.78 1466.61 Q1622.78 1473.71 1624.59 1477.28 Q1626.42 1480.82 1630.03 1480.82 Q1633.66 1480.82 1635.47 1477.28 Q1637.3 1473.71 1637.3 1466.61 Q1637.3 1459.48 1635.47 1455.94 Q1633.66 1452.37 1630.03 1452.37 M1630.03 1448.67 Q1635.84 1448.67 1638.89 1453.27 Q1641.97 1457.86 1641.97 1466.61 Q1641.97 1475.33 1638.89 1479.94 Q1635.84 1484.52 1630.03 1484.52 Q1624.22 1484.52 1621.14 1479.94 Q1618.08 1475.33 1618.08 1466.61 Q1618.08 1457.86 1621.14 1453.27 Q1624.22 1448.67 1630.03 1448.67 Z" fill="#000000" fill-rule="evenodd" fill-opacity="1" /><path clip-path="url(#clip920)" d="M2237.86 1479.92 L2245.49 1479.92 L2245.49 1453.55 L2237.18 1455.22 L2237.18 1450.96 L2245.45 1449.29 L2250.12 1449.29 L2250.12 1479.92 L2257.76 1479.92 L2257.76 1483.85 L2237.86 1483.85 L2237.86 1479.92 Z" fill="#000000" fill-rule="evenodd" fill-opacity="1" /><path clip-path="url(#clip920)" d="M2267.25 1449.29 L2285.61 1449.29 L2285.61 1453.23 L2271.54 1453.23 L2271.54 1461.7 Q2272.55 1461.35 2273.57 1461.19 Q2274.59 1461 2275.61 1461 Q2281.4 1461 2284.78 1464.18 Q2288.16 1467.35 2288.16 1472.76 Q2288.16 1478.34 2284.68 1481.44 Q2281.21 1484.52 2274.89 1484.52 Q2272.72 1484.52 2270.45 1484.15 Q2268.2 1483.78 2265.79 1483.04 L2265.79 1478.34 Q2267.88 1479.48 2270.1 1480.03 Q2272.32 1480.59 2274.8 1480.59 Q2278.8 1480.59 2281.14 1478.48 Q2283.48 1476.38 2283.48 1472.76 Q2283.48 1469.15 2281.14 1467.05 Q2278.8 1464.94 2274.8 1464.94 Q2272.92 1464.94 2271.05 1465.36 Q2269.2 1465.77 2267.25 1466.65 L2267.25 1449.29 Z" fill="#000000" fill-rule="evenodd" fill-opacity="1" /><path clip-path="url(#clip920)" d="M2307.37 1452.37 Q2303.76 1452.37 2301.93 1455.94 Q2300.12 1459.48 2300.12 1466.61 Q2300.12 1473.71 2301.93 1477.28 Q2303.76 1480.82 2307.37 1480.82 Q2311 1480.82 2312.81 1477.28 Q2314.64 1473.71 2314.64 1466.61 Q2314.64 1459.48 2312.81 1455.94 Q2311 1452.37 2307.37 1452.37 M2307.37 1448.67 Q2313.18 1448.67 2316.23 1453.27 Q2319.31 1457.86 2319.31 1466.61 Q2319.31 1475.33 2316.23 1479.94 Q2313.18 1484.52 2307.37 1484.52 Q2301.56 1484.52 2298.48 1479.94 Q2295.42 1475.33 2295.42 1466.61 Q2295.42 1457.86 2298.48 1453.27 Q2301.56 1448.67 2307.37 1448.67 Z" fill="#000000" fill-rule="evenodd" fill-opacity="1" /><path clip-path="url(#clip920)" d="M999.082 1520.52 L1007.74 1520.52 L1028.81 1560.28 L1028.81 1520.52 L1035.05 1520.52 L1035.05 1568.04 L1026.39 1568.04 L1005.32 1528.29 L1005.32 1568.04 L999.082 1568.04 L999.082 1520.52 Z" fill="#000000" fill-rule="evenodd" fill-opacity="1" /><path clip-path="url(#clip920)" d="M1046.98 1553.98 L1046.98 1532.4 L1052.84 1532.4 L1052.84 1553.75 Q1052.84 1558.81 1054.81 1561.36 Q1056.79 1563.87 1060.73 1563.87 Q1065.48 1563.87 1068.21 1560.85 Q1070.98 1557.83 1070.98 1552.61 L1070.98 1532.4 L1076.84 1532.4 L1076.84 1568.04 L1070.98 1568.04 L1070.98 1562.57 Q1068.85 1565.82 1066.02 1567.41 Q1063.22 1568.97 1059.49 1568.97 Q1053.35 1568.97 1050.17 1565.15 Q1046.98 1561.33 1046.98 1553.98 M1061.72 1531.54 L1061.72 1531.54 Z" fill="#000000" fill-rule="evenodd" fill-opacity="1" /><path clip-path="url(#clip920)" d="M1116.66 1539.24 Q1118.85 1535.29 1121.91 1533.41 Q1124.96 1531.54 1129.1 1531.54 Q1134.67 1531.54 1137.69 1535.45 Q1140.72 1539.33 1140.72 1546.53 L1140.72 1568.04 L1134.83 1568.04 L1134.83 1546.72 Q1134.83 1541.59 1133.02 1539.11 Q1131.2 1536.63 1127.48 1536.63 Q1122.93 1536.63 1120.28 1539.65 Q1117.64 1542.68 1117.64 1547.9 L1117.64 1568.04 L1111.75 1568.04 L1111.75 1546.72 Q1111.75 1541.56 1109.94 1539.11 Q1108.13 1536.63 1104.34 1536.63 Q1099.85 1536.63 1097.21 1539.68 Q1094.57 1542.71 1094.57 1547.9 L1094.57 1568.04 L1088.68 1568.04 L1088.68 1532.4 L1094.57 1532.4 L1094.57 1537.93 Q1096.57 1534.66 1099.37 1533.1 Q1102.17 1531.54 1106.03 1531.54 Q1109.91 1531.54 1112.61 1533.51 Q1115.35 1535.48 1116.66 1539.24 Z" fill="#000000" fill-rule="evenodd" fill-opacity="1" /><path clip-path="url(#clip920)" d="M1177.99 1550.25 Q1177.99 1543.79 1175.32 1540.13 Q1172.67 1536.44 1168.03 1536.44 Q1163.38 1536.44 1160.71 1540.13 Q1158.07 1543.79 1158.07 1550.25 Q1158.07 1556.71 1160.71 1560.4 Q1163.38 1564.07 1168.03 1564.07 Q1172.67 1564.07 1175.32 1560.4 Q1177.99 1556.71 1177.99 1550.25 M1158.07 1537.81 Q1159.91 1534.62 1162.71 1533.1 Q1165.54 1531.54 1169.46 1531.54 Q1175.95 1531.54 1179.99 1536.69 Q1184.07 1541.85 1184.07 1550.25 Q1184.07 1558.65 1179.99 1563.81 Q1175.95 1568.97 1169.46 1568.97 Q1165.54 1568.97 1162.71 1567.44 Q1159.91 1565.88 1158.07 1562.7 L1158.07 1568.04 L1152.18 1568.04 L1152.18 1518.52 L1158.07 1518.52 L1158.07 1537.81 Z" fill="#000000" fill-rule="evenodd" fill-opacity="1" /><path clip-path="url(#clip920)" d="M1224.27 1548.76 L1224.27 1551.62 L1197.34 1551.62 Q1197.72 1557.67 1200.97 1560.85 Q1204.25 1564 1210.07 1564 Q1213.45 1564 1216.6 1563.17 Q1219.78 1562.35 1222.9 1560.69 L1222.9 1566.23 Q1219.75 1567.57 1216.44 1568.27 Q1213.13 1568.97 1209.72 1568.97 Q1201.19 1568.97 1196.2 1564 Q1191.23 1559.04 1191.23 1550.57 Q1191.23 1541.82 1195.94 1536.69 Q1200.68 1531.54 1208.7 1531.54 Q1215.9 1531.54 1220.07 1536.18 Q1224.27 1540.8 1224.27 1548.76 M1218.41 1547.04 Q1218.35 1542.23 1215.71 1539.37 Q1213.1 1536.5 1208.77 1536.5 Q1203.87 1536.5 1200.91 1539.27 Q1197.98 1542.04 1197.53 1547.07 L1218.41 1547.04 Z" fill="#000000" fill-rule="evenodd" fill-opacity="1" /><path clip-path="url(#clip920)" d="M1254.54 1537.87 Q1253.55 1537.3 1252.37 1537.04 Q1251.23 1536.76 1249.83 1536.76 Q1244.86 1536.76 1242.19 1540 Q1239.55 1543.22 1239.55 1549.27 L1239.55 1568.04 L1233.66 1568.04 L1233.66 1532.4 L1239.55 1532.4 L1239.55 1537.93 Q1241.39 1534.69 1244.35 1533.13 Q1247.31 1531.54 1251.55 1531.54 Q1252.15 1531.54 1252.88 1531.63 Q1253.61 1531.7 1254.51 1531.85 L1254.54 1537.87 Z" fill="#000000" fill-rule="evenodd" fill-opacity="1" /><path clip-path="url(#clip920)" d="M1295.21 1536.5 Q1290.5 1536.5 1287.77 1540.19 Q1285.03 1543.85 1285.03 1550.25 Q1285.03 1556.65 1287.73 1560.34 Q1290.47 1564 1295.21 1564 Q1299.89 1564 1302.63 1560.31 Q1305.37 1556.62 1305.37 1550.25 Q1305.37 1543.92 1302.63 1540.23 Q1299.89 1536.5 1295.21 1536.5 M1295.21 1531.54 Q1302.85 1531.54 1307.21 1536.5 Q1311.57 1541.47 1311.57 1550.25 Q1311.57 1559 1307.21 1564 Q1302.85 1568.97 1295.21 1568.97 Q1287.54 1568.97 1283.18 1564 Q1278.85 1559 1278.85 1550.25 Q1278.85 1541.47 1283.18 1536.5 Q1287.54 1531.54 1295.21 1531.54 Z" fill="#000000" fill-rule="evenodd" fill-opacity="1" /><path clip-path="url(#clip920)" d="M1339.33 1518.52 L1339.33 1523.39 L1333.73 1523.39 Q1330.58 1523.39 1329.33 1524.66 Q1328.12 1525.93 1328.12 1529.24 L1328.12 1532.4 L1337.77 1532.4 L1337.77 1536.95 L1328.12 1536.95 L1328.12 1568.04 L1322.24 1568.04 L1322.24 1536.95 L1316.63 1536.95 L1316.63 1532.4 L1322.24 1532.4 L1322.24 1529.91 Q1322.24 1523.96 1325.01 1521.26 Q1327.77 1518.52 1333.79 1518.52 L1339.33 1518.52 Z" fill="#000000" fill-rule="evenodd" fill-opacity="1" /><path clip-path="url(#clip920)" d="M1388.41 1549.81 Q1388.41 1543.44 1385.77 1539.94 Q1383.16 1536.44 1378.41 1536.44 Q1373.7 1536.44 1371.06 1539.94 Q1368.45 1543.44 1368.45 1549.81 Q1368.45 1556.14 1371.06 1559.64 Q1373.7 1563.14 1378.41 1563.14 Q1383.16 1563.14 1385.77 1559.64 Q1388.41 1556.14 1388.41 1549.81 M1394.26 1563.62 Q1394.26 1572.72 1390.22 1577.15 Q1386.18 1581.6 1377.84 1581.6 Q1374.75 1581.6 1372.02 1581.13 Q1369.28 1580.68 1366.7 1579.72 L1366.7 1574.03 Q1369.28 1575.43 1371.79 1576.1 Q1374.31 1576.76 1376.92 1576.76 Q1382.68 1576.76 1385.54 1573.74 Q1388.41 1570.75 1388.41 1564.67 L1388.41 1561.77 Q1386.59 1564.92 1383.76 1566.48 Q1380.93 1568.04 1376.98 1568.04 Q1370.43 1568.04 1366.41 1563.05 Q1362.4 1558.05 1362.4 1549.81 Q1362.4 1541.53 1366.41 1536.53 Q1370.43 1531.54 1376.98 1531.54 Q1380.93 1531.54 1383.76 1533.1 Q1386.59 1534.66 1388.41 1537.81 L1388.41 1532.4 L1394.26 1532.4 L1394.26 1563.62 Z" fill="#000000" fill-rule="evenodd" fill-opacity="1" /><path clip-path="url(#clip920)" d="M1436.82 1548.76 L1436.82 1551.62 L1409.89 1551.62 Q1410.27 1557.67 1413.52 1560.85 Q1416.8 1564 1422.62 1564 Q1426 1564 1429.15 1563.17 Q1432.33 1562.35 1435.45 1560.69 L1435.45 1566.23 Q1432.3 1567.57 1428.99 1568.27 Q1425.68 1568.97 1422.27 1568.97 Q1413.74 1568.97 1408.75 1564 Q1403.78 1559.04 1403.78 1550.57 Q1403.78 1541.82 1408.49 1536.69 Q1413.23 1531.54 1421.26 1531.54 Q1428.45 1531.54 1432.62 1536.18 Q1436.82 1540.8 1436.82 1548.76 M1430.96 1547.04 Q1430.9 1542.23 1428.26 1539.37 Q1425.65 1536.5 1421.32 1536.5 Q1416.42 1536.5 1413.46 1539.27 Q1410.53 1542.04 1410.08 1547.07 L1430.96 1547.04 Z" fill="#000000" fill-rule="evenodd" fill-opacity="1" /><path clip-path="url(#clip920)" d="M1476.06 1546.53 L1476.06 1568.04 L1470.21 1568.04 L1470.21 1546.72 Q1470.21 1541.66 1468.23 1539.14 Q1466.26 1536.63 1462.31 1536.63 Q1457.57 1536.63 1454.83 1539.65 Q1452.1 1542.68 1452.1 1547.9 L1452.1 1568.04 L1446.21 1568.04 L1446.21 1532.4 L1452.1 1532.4 L1452.1 1537.93 Q1454.2 1534.72 1457.03 1533.13 Q1459.9 1531.54 1463.62 1531.54 Q1469.76 1531.54 1472.91 1535.36 Q1476.06 1539.14 1476.06 1546.53 Z" fill="#000000" fill-rule="evenodd" fill-opacity="1" /><path clip-path="url(#clip920)" d="M1518.24 1548.76 L1518.24 1551.62 L1491.31 1551.62 Q1491.69 1557.67 1494.94 1560.85 Q1498.22 1564 1504.04 1564 Q1507.42 1564 1510.57 1563.17 Q1513.75 1562.35 1516.87 1560.69 L1516.87 1566.23 Q1513.72 1567.57 1510.41 1568.27 Q1507.1 1568.97 1503.69 1568.97 Q1495.16 1568.97 1490.16 1564 Q1485.2 1559.04 1485.2 1550.57 Q1485.2 1541.82 1489.91 1536.69 Q1494.65 1531.54 1502.67 1531.54 Q1509.87 1531.54 1514.04 1536.18 Q1518.24 1540.8 1518.24 1548.76 M1512.38 1547.04 Q1512.32 1542.23 1509.67 1539.37 Q1507.06 1536.5 1502.74 1536.5 Q1497.83 1536.5 1494.87 1539.27 Q1491.95 1542.04 1491.5 1547.07 L1512.38 1547.04 Z" fill="#000000" fill-rule="evenodd" fill-opacity="1" /><path clip-path="url(#clip920)" d="M1550.57 1533.45 L1550.57 1538.98 Q1548.09 1537.71 1545.42 1537.07 Q1542.74 1536.44 1539.88 1536.44 Q1535.52 1536.44 1533.32 1537.77 Q1531.16 1539.11 1531.16 1541.79 Q1531.16 1543.82 1532.72 1545 Q1534.28 1546.15 1538.99 1547.2 L1540.99 1547.64 Q1547.23 1548.98 1549.84 1551.43 Q1552.48 1553.85 1552.48 1558.21 Q1552.48 1563.17 1548.54 1566.07 Q1544.62 1568.97 1537.75 1568.97 Q1534.88 1568.97 1531.76 1568.39 Q1528.68 1567.85 1525.24 1566.74 L1525.24 1560.69 Q1528.49 1562.38 1531.64 1563.24 Q1534.79 1564.07 1537.87 1564.07 Q1542.01 1564.07 1544.24 1562.66 Q1546.47 1561.23 1546.47 1558.65 Q1546.47 1556.27 1544.85 1554.99 Q1543.25 1553.72 1537.81 1552.54 L1535.77 1552.07 Q1530.33 1550.92 1527.91 1548.56 Q1525.49 1546.18 1525.49 1542.04 Q1525.49 1537.01 1529.06 1534.27 Q1532.62 1531.54 1539.18 1531.54 Q1542.43 1531.54 1545.29 1532.01 Q1548.16 1532.49 1550.57 1533.45 Z" fill="#000000" fill-rule="evenodd" fill-opacity="1" /><polyline clip-path="url(#clip920)" style="stroke:#000000; stroke-linecap:butt; stroke-linejoin:round; stroke-width:4; stroke-opacity:1; fill:none" points="
  198.81,1423.18 198.81,47.2441 
  "/>
<polyline clip-path="url(#clip920)" style="stroke:#000000; stroke-linecap:butt; stroke-linejoin:round; stroke-width:4; stroke-opacity:1; fill:none" points="
  198.81,1167.61 217.707,1167.61 
  "/>
<polyline clip-path="url(#clip920)" style="stroke:#000000; stroke-linecap:butt; stroke-linejoin:round; stroke-width:4; stroke-opacity:1; fill:none" points="
  198.81,888.041 217.707,888.041 
  "/>
<polyline clip-path="url(#clip920)" style="stroke:#000000; stroke-linecap:butt; stroke-linejoin:round; stroke-width:4; stroke-opacity:1; fill:none" points="
  198.81,608.467 217.707,608.467 
  "/>
<polyline clip-path="url(#clip920)" style="stroke:#000000; stroke-linecap:butt; stroke-linejoin:round; stroke-width:4; stroke-opacity:1; fill:none" points="
  198.81,328.894 217.707,328.894 
  "/>
<polyline clip-path="url(#clip920)" style="stroke:#000000; stroke-linecap:butt; stroke-linejoin:round; stroke-width:4; stroke-opacity:1; fill:none" points="
  198.81,49.3204 217.707,49.3204 
  "/>
<path clip-path="url(#clip920)" d="M151.282 1165.75 Q148.134 1165.75 146.282 1167.9 Q144.453 1170.06 144.453 1173.81 Q144.453 1177.53 146.282 1179.71 Q148.134 1181.86 151.282 1181.86 Q154.43 1181.86 156.259 1179.71 Q158.111 1177.53 158.111 1173.81 Q158.111 1170.06 156.259 1167.9 Q154.43 1165.75 151.282 1165.75 M160.564 1151.1 L160.564 1155.36 Q158.805 1154.52 157 1154.08 Q155.217 1153.64 153.458 1153.64 Q148.828 1153.64 146.375 1156.77 Q143.944 1159.89 143.597 1166.21 Q144.963 1164.2 147.023 1163.14 Q149.083 1162.05 151.56 1162.05 Q156.768 1162.05 159.777 1165.22 Q162.81 1168.37 162.81 1173.81 Q162.81 1179.13 159.662 1182.35 Q156.514 1185.57 151.282 1185.57 Q145.287 1185.57 142.115 1180.98 Q138.944 1176.38 138.944 1167.65 Q138.944 1159.45 142.833 1154.59 Q146.722 1149.71 153.273 1149.71 Q155.032 1149.71 156.814 1150.06 Q158.62 1150.4 160.564 1151.1 Z" fill="#000000" fill-rule="evenodd" fill-opacity="1" /><path clip-path="url(#clip920)" d="M150.958 888.909 Q147.625 888.909 145.703 890.691 Q143.805 892.474 143.805 895.599 Q143.805 898.724 145.703 900.506 Q147.625 902.289 150.958 902.289 Q154.291 902.289 156.213 900.506 Q158.134 898.701 158.134 895.599 Q158.134 892.474 156.213 890.691 Q154.315 888.909 150.958 888.909 M146.282 886.918 Q143.273 886.178 141.583 884.117 Q139.916 882.057 139.916 879.094 Q139.916 874.951 142.856 872.543 Q145.819 870.136 150.958 870.136 Q156.12 870.136 159.06 872.543 Q162 874.951 162 879.094 Q162 882.057 160.31 884.117 Q158.643 886.178 155.657 886.918 Q159.037 887.705 160.912 889.997 Q162.81 892.289 162.81 895.599 Q162.81 900.622 159.731 903.307 Q156.676 905.992 150.958 905.992 Q145.24 905.992 142.162 903.307 Q139.106 900.622 139.106 895.599 Q139.106 892.289 141.004 889.997 Q142.903 887.705 146.282 886.918 M144.569 879.534 Q144.569 882.219 146.236 883.724 Q147.926 885.228 150.958 885.228 Q153.967 885.228 155.657 883.724 Q157.37 882.219 157.37 879.534 Q157.37 876.849 155.657 875.344 Q153.967 873.84 150.958 873.84 Q147.926 873.84 146.236 875.344 Q144.569 876.849 144.569 879.534 Z" fill="#000000" fill-rule="evenodd" fill-opacity="1" /><path clip-path="url(#clip920)" d="M111.514 621.812 L119.153 621.812 L119.153 595.447 L110.843 597.113 L110.843 592.854 L119.106 591.187 L123.782 591.187 L123.782 621.812 L131.421 621.812 L131.421 625.747 L111.514 625.747 L111.514 621.812 Z" fill="#000000" fill-rule="evenodd" fill-opacity="1" /><path clip-path="url(#clip920)" d="M150.865 594.266 Q147.254 594.266 145.426 597.831 Q143.62 601.373 143.62 608.502 Q143.62 615.609 145.426 619.173 Q147.254 622.715 150.865 622.715 Q154.5 622.715 156.305 619.173 Q158.134 615.609 158.134 608.502 Q158.134 601.373 156.305 597.831 Q154.5 594.266 150.865 594.266 M150.865 590.562 Q156.676 590.562 159.731 595.169 Q162.81 599.752 162.81 608.502 Q162.81 617.229 159.731 621.835 Q156.676 626.419 150.865 626.419 Q145.055 626.419 141.977 621.835 Q138.921 617.229 138.921 608.502 Q138.921 599.752 141.977 595.169 Q145.055 590.562 150.865 590.562 Z" fill="#000000" fill-rule="evenodd" fill-opacity="1" /><path clip-path="url(#clip920)" d="M113.111 342.239 L120.75 342.239 L120.75 315.873 L112.44 317.54 L112.44 313.281 L120.704 311.614 L125.379 311.614 L125.379 342.239 L133.018 342.239 L133.018 346.174 L113.111 346.174 L113.111 342.239 Z" fill="#000000" fill-rule="evenodd" fill-opacity="1" /><path clip-path="url(#clip920)" d="M146.49 342.239 L162.81 342.239 L162.81 346.174 L140.866 346.174 L140.866 342.239 Q143.528 339.484 148.111 334.855 Q152.717 330.202 153.898 328.859 Q156.143 326.336 157.023 324.6 Q157.926 322.841 157.926 321.151 Q157.926 318.396 155.981 316.66 Q154.06 314.924 150.958 314.924 Q148.759 314.924 146.305 315.688 Q143.875 316.452 141.097 318.003 L141.097 313.281 Q143.921 312.146 146.375 311.568 Q148.828 310.989 150.865 310.989 Q156.236 310.989 159.43 313.674 Q162.625 316.359 162.625 320.85 Q162.625 322.98 161.814 324.901 Q161.027 326.799 158.921 329.392 Q158.342 330.063 155.24 333.28 Q152.139 336.475 146.49 342.239 Z" fill="#000000" fill-rule="evenodd" fill-opacity="1" /><path clip-path="url(#clip920)" d="M111.028 62.6652 L118.667 62.6652 L118.667 36.2996 L110.356 37.9663 L110.356 33.7071 L118.62 32.0404 L123.296 32.0404 L123.296 62.6652 L130.935 62.6652 L130.935 66.6004 L111.028 66.6004 L111.028 62.6652 Z" fill="#000000" fill-rule="evenodd" fill-opacity="1" /><path clip-path="url(#clip920)" d="M153.227 36.1145 L141.421 54.5634 L153.227 54.5634 L153.227 36.1145 M152 32.0404 L157.879 32.0404 L157.879 54.5634 L162.81 54.5634 L162.81 58.4523 L157.879 58.4523 L157.879 66.6004 L153.227 66.6004 L153.227 58.4523 L137.625 58.4523 L137.625 53.9384 L152 32.0404 Z" fill="#000000" fill-rule="evenodd" fill-opacity="1" /><path clip-path="url(#clip920)" d="M16.8527 751.163 L28.2536 752.484 Q29.2842 752.58 29.6063 752.741 Q29.8961 752.902 29.8961 753.418 Q29.8961 754.191 29.1232 754.191 Q28.8011 754.191 27.9315 754.062 Q26.1602 753.869 24.3567 753.869 Q22.3277 753.869 21.0717 754.255 Q19.7835 754.609 18.8495 755.64 Q17.9155 756.67 17.5291 758.571 Q17.1104 760.471 17.1104 763.498 L17.1104 772.194 Q17.1104 774.319 17.4969 774.835 Q17.8833 775.318 19.6868 775.769 L36.4339 779.988 L36.4339 773.997 Q36.4339 769.81 35.2101 768.168 Q33.9863 766.525 30.0893 765.495 Q29.4774 765.334 29.252 765.269 Q28.9943 765.173 28.8655 765.012 Q28.7045 764.819 28.7045 764.496 Q28.7045 764.207 28.8977 764.013 Q29.0588 763.82 29.252 763.756 L29.4452 763.691 Q29.7673 763.691 30.508 763.885 L44.8074 767.524 Q45.7736 767.781 45.999 767.943 Q46.1923 768.071 46.1923 768.522 Q46.1923 768.844 45.9668 769.07 Q45.7414 769.295 45.3871 769.295 Q45.0007 769.231 44.6786 769.102 Q42.714 768.651 41.458 768.651 Q40.6529 768.651 40.1698 768.812 Q39.6867 768.973 39.268 769.521 Q38.8493 770.068 38.6561 771.195 Q38.4629 772.323 38.4629 774.126 L38.4629 780.503 L54.8879 784.593 L56.4015 784.883 Q57.0779 784.883 57.3355 784.529 Q57.5931 784.142 57.722 782.757 Q57.883 780.696 57.883 779.343 Q57.883 777.669 57.9474 777.475 Q58.1406 777.089 58.6559 777.089 Q59.2356 777.089 59.5577 777.347 Q59.8476 777.604 59.8798 777.83 Q59.912 778.055 59.912 778.474 L59.7187 788.297 L59.912 796.992 Q59.912 797.991 59.1068 797.991 Q58.4949 797.991 58.2373 797.733 Q57.9474 797.475 57.9152 797.185 Q57.883 796.896 57.883 796.155 Q57.883 794.545 57.7864 793.578 Q57.6898 792.612 57.5609 792 Q57.3999 791.356 56.949 791.034 Q56.4981 790.68 56.1117 790.519 Q55.693 790.358 54.759 790.132 L19.8801 781.437 Q18.6885 781.115 18.302 781.115 Q17.8833 781.115 17.6257 781.405 Q17.368 781.662 17.2714 782.371 Q17.1426 783.079 17.1426 783.659 Q17.1104 784.206 17.1104 785.398 Q17.1104 786.171 17.0782 786.493 Q17.046 786.783 16.8849 787.008 Q16.7239 787.234 16.3696 787.234 Q15.4679 787.234 15.2746 786.847 Q15.0492 786.429 15.0492 785.269 L15.0492 752.935 Q15.0492 751.646 15.3391 751.357 Q15.5967 751.034 16.8527 751.163 Z" fill="#000000" fill-rule="evenodd" fill-opacity="1" /><path clip-path="url(#clip920)" d="M16.8527 709.185 L28.2536 710.505 Q29.2842 710.602 29.6063 710.763 Q29.8961 710.924 29.8961 711.439 Q29.8961 712.212 29.1232 712.212 Q28.8011 712.212 27.9315 712.083 Q26.1602 711.89 24.3567 711.89 Q22.3277 711.89 21.0717 712.277 Q19.7835 712.631 18.8495 713.661 Q17.9155 714.692 17.5291 716.592 Q17.1104 718.492 17.1104 721.52 L17.1104 730.215 Q17.1104 732.341 17.4969 732.856 Q17.8833 733.339 19.6868 733.79 L36.4339 738.009 L36.4339 732.019 Q36.4339 727.832 35.2101 726.19 Q33.9863 724.547 30.0893 723.516 Q29.4774 723.355 29.252 723.291 Q28.9943 723.194 28.8655 723.033 Q28.7045 722.84 28.7045 722.518 Q28.7045 722.228 28.8977 722.035 Q29.0588 721.842 29.252 721.777 L29.4452 721.713 Q29.7673 721.713 30.508 721.906 L44.8074 725.545 Q45.7736 725.803 45.999 725.964 Q46.1923 726.093 46.1923 726.544 Q46.1923 726.866 45.9668 727.091 Q45.7414 727.317 45.3871 727.317 Q45.0007 727.252 44.6786 727.124 Q42.714 726.673 41.458 726.673 Q40.6529 726.673 40.1698 726.834 Q39.6867 726.995 39.268 727.542 Q38.8493 728.09 38.6561 729.217 Q38.4629 730.344 38.4629 732.148 L38.4629 738.524 L54.8879 742.615 L56.4015 742.904 Q57.0779 742.904 57.3355 742.55 Q57.5931 742.164 57.722 740.779 Q57.883 738.718 57.883 737.365 Q57.883 735.69 57.9474 735.497 Q58.1406 735.111 58.6559 735.111 Q59.2356 735.111 59.5577 735.368 Q59.8476 735.626 59.8798 735.851 Q59.912 736.077 59.912 736.495 L59.7187 746.318 L59.912 755.014 Q59.912 756.012 59.1068 756.012 Q58.4949 756.012 58.2373 755.755 Q57.9474 755.497 57.9152 755.207 Q57.883 754.917 57.883 754.176 Q57.883 752.566 57.7864 751.6 Q57.6898 750.634 57.5609 750.022 Q57.3999 749.378 56.949 749.056 Q56.4981 748.701 56.1117 748.54 Q55.693 748.379 54.759 748.154 L19.8801 739.458 Q18.6885 739.136 18.302 739.136 Q17.8833 739.136 17.6257 739.426 Q17.368 739.684 17.2714 740.392 Q17.1426 741.101 17.1426 741.681 Q17.1104 742.228 17.1104 743.42 Q17.1104 744.193 17.0782 744.515 Q17.046 744.805 16.8849 745.03 Q16.7239 745.255 16.3696 745.255 Q15.4679 745.255 15.2746 744.869 Q15.0492 744.45 15.0492 743.291 L15.0492 710.956 Q15.0492 709.668 15.3391 709.378 Q15.5967 709.056 16.8527 709.185 Z" fill="#000000" fill-rule="evenodd" fill-opacity="1" /><path clip-path="url(#clip920)" d="M59.009 678.35 Q62.3004 678.35 65.4791 680.018 Q68.6579 681.664 70.6192 684.257 Q72.558 686.849 72.558 689.487 Q72.558 691.065 71.7013 692.124 Q70.8221 693.161 69.5822 693.725 Q71.1152 694.153 74.7899 695.078 Q78.4645 696.002 78.8252 696.002 Q79.0281 696.002 79.1183 695.957 Q79.2085 695.912 79.3212 695.709 Q79.4565 695.506 79.5016 695.01 Q79.5692 694.514 79.5692 693.68 Q79.5692 693.252 79.5692 693.094 Q79.5917 692.913 79.7045 692.756 Q79.8172 692.575 80.0652 692.575 Q80.9895 692.575 80.9895 693.409 Q80.9895 694.153 80.9218 695.686 Q80.8542 697.219 80.8542 697.986 Q80.8542 698.64 80.9218 699.947 Q80.9895 701.255 80.9895 701.863 Q80.9895 702.472 80.4484 702.472 Q80.1328 702.472 79.9299 702.382 Q79.7496 702.314 79.6594 702.134 Q79.5917 701.954 79.5692 701.796 Q79.5692 701.661 79.5692 701.39 Q79.5692 700.353 79.3888 699.902 Q79.231 699.451 78.8929 699.293 Q78.5773 699.113 77.6755 698.91 L57.1153 693.725 Q55.7401 693.409 54.7707 693.409 Q53.5533 693.409 53.1024 693.793 Q52.6515 694.176 52.6515 694.852 Q52.6515 696.025 54.0493 696.791 Q55.447 697.558 58.1523 698.211 Q58.8963 698.414 59.0541 698.549 Q59.2119 698.662 59.2119 699 Q59.1893 699.564 58.7384 699.564 Q58.6257 699.564 57.9043 699.384 Q57.1604 699.203 56.0782 698.865 Q54.9736 698.504 54.2747 698.121 Q53.8013 697.896 53.4857 697.693 Q53.1701 697.49 52.6741 697.084 Q52.1781 696.656 51.9076 696.047 Q51.6371 695.438 51.6371 694.694 Q51.6371 693.252 52.4937 692.057 Q53.3504 690.862 55.0863 690.546 Q53.5758 689.261 52.6065 687.683 Q51.6371 686.105 51.6371 684.505 Q51.6371 681.844 53.7111 680.108 Q55.7626 678.35 59.009 678.35 M56.98 681.687 Q54.9285 681.687 53.8013 682.476 Q52.6515 683.242 52.6515 684.64 Q52.6515 686.376 54.41 688.382 Q56.0782 690.366 57.6338 690.772 L66.674 693.049 L67.4179 693.184 Q67.5532 693.184 67.959 693.116 Q68.3422 693.026 68.9735 692.778 Q69.6047 692.508 70.1683 692.147 Q70.7094 691.764 71.1152 691.087 Q71.521 690.389 71.521 689.532 Q71.521 688.157 70.3036 686.669 Q69.0862 685.158 66.7867 684.031 Q65.2988 683.332 62.0975 682.521 Q58.8737 681.687 56.98 681.687 Z" fill="#000000" fill-rule="evenodd" fill-opacity="1" /><circle clip-path="url(#clip922)" cx="259.771" cy="86.1857" r="21" fill="#0000ff" fill-rule="evenodd" fill-opacity="1" stroke="none"/>
<circle clip-path="url(#clip922)" cx="395.239" cy="262.114" r="21" fill="#0000ff" fill-rule="evenodd" fill-opacity="1" stroke="none"/>
<circle clip-path="url(#clip922)" cx="530.707" cy="430.1" r="21" fill="#0000ff" fill-rule="evenodd" fill-opacity="1" stroke="none"/>
<circle clip-path="url(#clip922)" cx="666.175" cy="582.848" r="21" fill="#0000ff" fill-rule="evenodd" fill-opacity="1" stroke="none"/>
<circle clip-path="url(#clip922)" cx="801.644" cy="717.012" r="21" fill="#0000ff" fill-rule="evenodd" fill-opacity="1" stroke="none"/>
<circle clip-path="url(#clip922)" cx="937.112" cy="832.491" r="21" fill="#0000ff" fill-rule="evenodd" fill-opacity="1" stroke="none"/>
<circle clip-path="url(#clip922)" cx="1072.58" cy="930.994" r="21" fill="#0000ff" fill-rule="evenodd" fill-opacity="1" stroke="none"/>
<circle clip-path="url(#clip922)" cx="1208.05" cy="1014.89" r="21" fill="#0000ff" fill-rule="evenodd" fill-opacity="1" stroke="none"/>
<circle clip-path="url(#clip922)" cx="1343.52" cy="1086.56" r="21" fill="#0000ff" fill-rule="evenodd" fill-opacity="1" stroke="none"/>
<circle clip-path="url(#clip922)" cx="1478.99" cy="1148.12" r="21" fill="#0000ff" fill-rule="evenodd" fill-opacity="1" stroke="none"/>
<circle clip-path="url(#clip922)" cx="1614.45" cy="1201.33" r="21" fill="#0000ff" fill-rule="evenodd" fill-opacity="1" stroke="none"/>
<circle clip-path="url(#clip922)" cx="1749.92" cy="1247.65" r="21" fill="#0000ff" fill-rule="evenodd" fill-opacity="1" stroke="none"/>
<circle clip-path="url(#clip922)" cx="1885.39" cy="1288.25" r="21" fill="#0000ff" fill-rule="evenodd" fill-opacity="1" stroke="none"/>
<circle clip-path="url(#clip922)" cx="2020.86" cy="1324.06" r="21" fill="#0000ff" fill-rule="evenodd" fill-opacity="1" stroke="none"/>
<circle clip-path="url(#clip922)" cx="2156.33" cy="1355.85" r="21" fill="#0000ff" fill-rule="evenodd" fill-opacity="1" stroke="none"/>
<circle clip-path="url(#clip922)" cx="2291.8" cy="1384.24" r="21" fill="#0000ff" fill-rule="evenodd" fill-opacity="1" stroke="none"/>
<circle clip-path="url(#clip922)" cx="259.771" cy="97.8027" r="21" fill="#ff00ff" fill-rule="evenodd" fill-opacity="1" stroke="none"/>
<circle clip-path="url(#clip922)" cx="395.239" cy="267.476" r="21" fill="#ff00ff" fill-rule="evenodd" fill-opacity="1" stroke="none"/>
<circle clip-path="url(#clip922)" cx="530.707" cy="431.968" r="21" fill="#ff00ff" fill-rule="evenodd" fill-opacity="1" stroke="none"/>
<circle clip-path="url(#clip922)" cx="666.175" cy="582.855" r="21" fill="#ff00ff" fill-rule="evenodd" fill-opacity="1" stroke="none"/>
<circle clip-path="url(#clip922)" cx="801.644" cy="715.925" r="21" fill="#ff00ff" fill-rule="evenodd" fill-opacity="1" stroke="none"/>
<circle clip-path="url(#clip922)" cx="937.112" cy="830.644" r="21" fill="#ff00ff" fill-rule="evenodd" fill-opacity="1" stroke="none"/>
<circle clip-path="url(#clip922)" cx="1072.58" cy="928.562" r="21" fill="#ff00ff" fill-rule="evenodd" fill-opacity="1" stroke="none"/>
<circle clip-path="url(#clip922)" cx="1208.05" cy="1012" r="21" fill="#ff00ff" fill-rule="evenodd" fill-opacity="1" stroke="none"/>
<circle clip-path="url(#clip922)" cx="1343.52" cy="1083.31" r="21" fill="#ff00ff" fill-rule="evenodd" fill-opacity="1" stroke="none"/>
<circle clip-path="url(#clip922)" cx="1478.99" cy="1144.59" r="21" fill="#ff00ff" fill-rule="evenodd" fill-opacity="1" stroke="none"/>
<circle clip-path="url(#clip922)" cx="1614.45" cy="1197.6" r="21" fill="#ff00ff" fill-rule="evenodd" fill-opacity="1" stroke="none"/>
<circle clip-path="url(#clip922)" cx="1749.92" cy="1243.77" r="21" fill="#ff00ff" fill-rule="evenodd" fill-opacity="1" stroke="none"/>
<circle clip-path="url(#clip922)" cx="1885.39" cy="1284.27" r="21" fill="#ff00ff" fill-rule="evenodd" fill-opacity="1" stroke="none"/>
<circle clip-path="url(#clip922)" cx="2020.86" cy="1320.03" r="21" fill="#ff00ff" fill-rule="evenodd" fill-opacity="1" stroke="none"/>
<circle clip-path="url(#clip922)" cx="2156.33" cy="1351.79" r="21" fill="#ff00ff" fill-rule="evenodd" fill-opacity="1" stroke="none"/>
<circle clip-path="url(#clip922)" cx="2291.8" cy="1380.16" r="21" fill="#ff00ff" fill-rule="evenodd" fill-opacity="1" stroke="none"/>
<path clip-path="url(#clip920)" d="
M1682.6 248.629 L2280.96 248.629 L2280.96 93.1086 L1682.6 93.1086  Z
  " fill="#ffffff" fill-rule="evenodd" fill-opacity="1"/>
<polyline clip-path="url(#clip920)" style="stroke:#000000; stroke-linecap:butt; stroke-linejoin:round; stroke-width:4; stroke-opacity:1; fill:none" points="
  1682.6,248.629 2280.96,248.629 2280.96,93.1086 1682.6,93.1086 1682.6,248.629 
  "/>
<circle clip-path="url(#clip920)" cx="1778.34" cy="144.949" r="23" fill="#0000ff" fill-rule="evenodd" fill-opacity="1" stroke="none"/>
<path clip-path="url(#clip920)" d="M1874.07 127.669 L1893.93 127.669 L1893.93 131.604 L1878.74 131.604 L1878.74 141.789 L1892.45 141.789 L1892.45 145.724 L1878.74 145.724 L1878.74 162.229 L1874.07 162.229 L1874.07 127.669 Z" fill="#000000" fill-rule="evenodd" fill-opacity="1" /><path clip-path="url(#clip920)" d="M1898.12 151.997 L1898.12 136.303 L1902.38 136.303 L1902.38 151.835 Q1902.38 155.516 1903.81 157.368 Q1905.25 159.196 1908.12 159.196 Q1911.57 159.196 1913.56 156.997 Q1915.57 154.798 1915.57 151.002 L1915.57 136.303 L1919.83 136.303 L1919.83 162.229 L1915.57 162.229 L1915.57 158.247 Q1914.02 160.608 1911.96 161.766 Q1909.92 162.9 1907.21 162.9 Q1902.75 162.9 1900.43 160.122 Q1898.12 157.344 1898.12 151.997 M1908.83 135.678 L1908.83 135.678 Z" fill="#000000" fill-rule="evenodd" fill-opacity="1" /><path clip-path="url(#clip920)" d="M1928.6 126.21 L1932.86 126.21 L1932.86 162.229 L1928.6 162.229 L1928.6 126.21 Z" fill="#000000" fill-rule="evenodd" fill-opacity="1" /><path clip-path="url(#clip920)" d="M1941.77 126.21 L1946.03 126.21 L1946.03 162.229 L1941.77 162.229 L1941.77 126.21 Z" fill="#000000" fill-rule="evenodd" fill-opacity="1" /><path clip-path="url(#clip920)" d="M1990.2 141.28 Q1991.8 138.409 1994.02 137.044 Q1996.24 135.678 1999.25 135.678 Q2003.3 135.678 2005.5 138.525 Q2007.7 141.349 2007.7 146.581 L2007.7 162.229 L2003.42 162.229 L2003.42 146.719 Q2003.42 142.993 2002.1 141.187 Q2000.78 139.382 1998.07 139.382 Q1994.76 139.382 1992.84 141.581 Q1990.92 143.78 1990.92 147.576 L1990.92 162.229 L1986.64 162.229 L1986.64 146.719 Q1986.64 142.969 1985.32 141.187 Q1984 139.382 1981.24 139.382 Q1977.98 139.382 1976.06 141.604 Q1974.14 143.803 1974.14 147.576 L1974.14 162.229 L1969.85 162.229 L1969.85 136.303 L1974.14 136.303 L1974.14 140.331 Q1975.59 137.946 1977.63 136.812 Q1979.67 135.678 1982.47 135.678 Q1985.29 135.678 1987.26 137.113 Q1989.25 138.548 1990.2 141.28 Z" fill="#000000" fill-rule="evenodd" fill-opacity="1" /><path clip-path="url(#clip920)" d="M2026.24 139.289 Q2022.82 139.289 2020.82 141.974 Q2018.83 144.636 2018.83 149.289 Q2018.83 153.942 2020.8 156.627 Q2022.79 159.289 2026.24 159.289 Q2029.64 159.289 2031.63 156.604 Q2033.63 153.918 2033.63 149.289 Q2033.63 144.682 2031.63 141.997 Q2029.64 139.289 2026.24 139.289 M2026.24 135.678 Q2031.8 135.678 2034.97 139.289 Q2038.14 142.9 2038.14 149.289 Q2038.14 155.655 2034.97 159.289 Q2031.8 162.9 2026.24 162.9 Q2020.66 162.9 2017.49 159.289 Q2014.34 155.655 2014.34 149.289 Q2014.34 142.9 2017.49 139.289 Q2020.66 135.678 2026.24 135.678 Z" fill="#000000" fill-rule="evenodd" fill-opacity="1" /><path clip-path="url(#clip920)" d="M2062.26 140.238 L2062.26 126.21 L2066.52 126.21 L2066.52 162.229 L2062.26 162.229 L2062.26 158.34 Q2060.92 160.655 2058.86 161.789 Q2056.82 162.9 2053.95 162.9 Q2049.25 162.9 2046.29 159.15 Q2043.35 155.4 2043.35 149.289 Q2043.35 143.178 2046.29 139.428 Q2049.25 135.678 2053.95 135.678 Q2056.82 135.678 2058.86 136.812 Q2060.92 137.923 2062.26 140.238 M2047.75 149.289 Q2047.75 153.988 2049.67 156.673 Q2051.61 159.335 2054.99 159.335 Q2058.37 159.335 2060.32 156.673 Q2062.26 153.988 2062.26 149.289 Q2062.26 144.59 2060.32 141.928 Q2058.37 139.243 2054.99 139.243 Q2051.61 139.243 2049.67 141.928 Q2047.75 144.59 2047.75 149.289 Z" fill="#000000" fill-rule="evenodd" fill-opacity="1" /><path clip-path="url(#clip920)" d="M2097.47 148.201 L2097.47 150.284 L2077.88 150.284 Q2078.16 154.682 2080.52 156.997 Q2082.91 159.289 2087.14 159.289 Q2089.6 159.289 2091.89 158.687 Q2094.2 158.085 2096.47 156.881 L2096.47 160.909 Q2094.18 161.881 2091.77 162.391 Q2089.37 162.9 2086.89 162.9 Q2080.69 162.9 2077.05 159.289 Q2073.44 155.678 2073.44 149.52 Q2073.44 143.155 2076.87 139.428 Q2080.32 135.678 2086.15 135.678 Q2091.38 135.678 2094.41 139.057 Q2097.47 142.414 2097.47 148.201 M2093.21 146.951 Q2093.16 143.456 2091.24 141.372 Q2089.34 139.289 2086.19 139.289 Q2082.63 139.289 2080.48 141.303 Q2078.35 143.317 2078.02 146.974 L2093.21 146.951 Z" fill="#000000" fill-rule="evenodd" fill-opacity="1" /><path clip-path="url(#clip920)" d="M2104.46 126.21 L2108.72 126.21 L2108.72 162.229 L2104.46 162.229 L2104.46 126.21 Z" fill="#000000" fill-rule="evenodd" fill-opacity="1" /><circle clip-path="url(#clip920)" cx="1778.34" cy="196.789" r="23" fill="#ff00ff" fill-rule="evenodd" fill-opacity="1" stroke="none"/>
<path clip-path="url(#clip920)" d="M1890.46 197.865 Q1891.96 198.374 1893.37 200.041 Q1894.81 201.708 1896.24 204.624 L1900.99 214.069 L1895.96 214.069 L1891.54 205.203 Q1889.83 201.731 1888.21 200.596 Q1886.61 199.462 1883.83 199.462 L1878.74 199.462 L1878.74 214.069 L1874.07 214.069 L1874.07 179.509 L1884.62 179.509 Q1890.55 179.509 1893.46 181.985 Q1896.38 184.462 1896.38 189.462 Q1896.38 192.726 1894.85 194.879 Q1893.35 197.032 1890.46 197.865 M1878.74 183.351 L1878.74 195.62 L1884.62 195.62 Q1888 195.62 1889.71 194.069 Q1891.45 192.495 1891.45 189.462 Q1891.45 186.43 1889.71 184.902 Q1888 183.351 1884.62 183.351 L1878.74 183.351 Z" fill="#000000" fill-rule="evenodd" fill-opacity="1" /><path clip-path="url(#clip920)" d="M1926.87 200.041 L1926.87 202.124 L1907.28 202.124 Q1907.56 206.522 1909.92 208.837 Q1912.31 211.129 1916.54 211.129 Q1919 211.129 1921.29 210.527 Q1923.6 209.925 1925.87 208.721 L1925.87 212.749 Q1923.58 213.721 1921.17 214.231 Q1918.77 214.74 1916.29 214.74 Q1910.08 214.74 1906.45 211.129 Q1902.84 207.518 1902.84 201.36 Q1902.84 194.995 1906.27 191.268 Q1909.71 187.518 1915.55 187.518 Q1920.78 187.518 1923.81 190.897 Q1926.87 194.254 1926.87 200.041 M1922.61 198.791 Q1922.56 195.296 1920.64 193.212 Q1918.74 191.129 1915.59 191.129 Q1912.03 191.129 1909.88 193.143 Q1907.75 195.157 1907.42 198.814 L1922.61 198.791 Z" fill="#000000" fill-rule="evenodd" fill-opacity="1" /><path clip-path="url(#clip920)" d="M1950.92 192.078 L1950.92 178.05 L1955.18 178.05 L1955.18 214.069 L1950.92 214.069 L1950.92 210.18 Q1949.58 212.495 1947.52 213.629 Q1945.48 214.74 1942.61 214.74 Q1937.91 214.74 1934.95 210.99 Q1932.01 207.24 1932.01 201.129 Q1932.01 195.018 1934.95 191.268 Q1937.91 187.518 1942.61 187.518 Q1945.48 187.518 1947.52 188.652 Q1949.58 189.763 1950.92 192.078 M1936.4 201.129 Q1936.4 205.828 1938.33 208.513 Q1940.27 211.175 1943.65 211.175 Q1947.03 211.175 1948.97 208.513 Q1950.92 205.828 1950.92 201.129 Q1950.92 196.43 1948.97 193.768 Q1947.03 191.083 1943.65 191.083 Q1940.27 191.083 1938.33 193.768 Q1936.4 196.43 1936.4 201.129 Z" fill="#000000" fill-rule="evenodd" fill-opacity="1" /><path clip-path="url(#clip920)" d="M1963.51 203.837 L1963.51 188.143 L1967.77 188.143 L1967.77 203.675 Q1967.77 207.356 1969.2 209.208 Q1970.64 211.036 1973.51 211.036 Q1976.96 211.036 1978.95 208.837 Q1980.96 206.638 1980.96 202.842 L1980.96 188.143 L1985.22 188.143 L1985.22 214.069 L1980.96 214.069 L1980.96 210.087 Q1979.41 212.448 1977.35 213.606 Q1975.32 214.74 1972.61 214.74 Q1968.14 214.74 1965.83 211.962 Q1963.51 209.184 1963.51 203.837 M1974.23 187.518 L1974.23 187.518 Z" fill="#000000" fill-rule="evenodd" fill-opacity="1" /><path clip-path="url(#clip920)" d="M2012.65 189.138 L2012.65 193.12 Q2010.85 192.124 2009.02 191.638 Q2007.21 191.129 2005.36 191.129 Q2001.22 191.129 1998.93 193.768 Q1996.64 196.384 1996.64 201.129 Q1996.64 205.874 1998.93 208.513 Q2001.22 211.129 2005.36 211.129 Q2007.21 211.129 2009.02 210.643 Q2010.85 210.133 2012.65 209.138 L2012.65 213.073 Q2010.87 213.907 2008.95 214.323 Q2007.05 214.74 2004.9 214.74 Q1999.04 214.74 1995.59 211.059 Q1992.14 207.379 1992.14 201.129 Q1992.14 194.786 1995.62 191.152 Q1999.11 187.518 2005.18 187.518 Q2007.14 187.518 2009.02 187.935 Q2010.89 188.328 2012.65 189.138 Z" fill="#000000" fill-rule="evenodd" fill-opacity="1" /><path clip-path="url(#clip920)" d="M2042.24 200.041 L2042.24 202.124 L2022.65 202.124 Q2022.93 206.522 2025.29 208.837 Q2027.68 211.129 2031.91 211.129 Q2034.37 211.129 2036.66 210.527 Q2038.97 209.925 2041.24 208.721 L2041.24 212.749 Q2038.95 213.721 2036.54 214.231 Q2034.13 214.74 2031.66 214.74 Q2025.45 214.74 2021.82 211.129 Q2018.21 207.518 2018.21 201.36 Q2018.21 194.995 2021.64 191.268 Q2025.08 187.518 2030.92 187.518 Q2036.15 187.518 2039.18 190.897 Q2042.24 194.254 2042.24 200.041 M2037.98 198.791 Q2037.93 195.296 2036.01 193.212 Q2034.11 191.129 2030.96 191.129 Q2027.4 191.129 2025.25 193.143 Q2023.12 195.157 2022.79 198.814 L2037.98 198.791 Z" fill="#000000" fill-rule="evenodd" fill-opacity="1" /><path clip-path="url(#clip920)" d="M2066.29 192.078 L2066.29 178.05 L2070.55 178.05 L2070.55 214.069 L2066.29 214.069 L2066.29 210.18 Q2064.94 212.495 2062.88 213.629 Q2060.85 214.74 2057.98 214.74 Q2053.28 214.74 2050.32 210.99 Q2047.38 207.24 2047.38 201.129 Q2047.38 195.018 2050.32 191.268 Q2053.28 187.518 2057.98 187.518 Q2060.85 187.518 2062.88 188.652 Q2064.94 189.763 2066.29 192.078 M2051.77 201.129 Q2051.77 205.828 2053.7 208.513 Q2055.64 211.175 2059.02 211.175 Q2062.4 211.175 2064.34 208.513 Q2066.29 205.828 2066.29 201.129 Q2066.29 196.43 2064.34 193.768 Q2062.4 191.083 2059.02 191.083 Q2055.64 191.083 2053.7 193.768 Q2051.77 196.43 2051.77 201.129 Z" fill="#000000" fill-rule="evenodd" fill-opacity="1" /><path clip-path="url(#clip920)" d="M2114.57 193.12 Q2116.17 190.249 2118.39 188.884 Q2120.62 187.518 2123.63 187.518 Q2127.68 187.518 2129.88 190.365 Q2132.07 193.189 2132.07 198.421 L2132.07 214.069 L2127.79 214.069 L2127.79 198.559 Q2127.79 194.833 2126.47 193.027 Q2125.15 191.222 2122.44 191.222 Q2119.13 191.222 2117.21 193.421 Q2115.29 195.62 2115.29 199.416 L2115.29 214.069 L2111.01 214.069 L2111.01 198.559 Q2111.01 194.809 2109.69 193.027 Q2108.37 191.222 2105.62 191.222 Q2102.35 191.222 2100.43 193.444 Q2098.51 195.643 2098.51 199.416 L2098.51 214.069 L2094.23 214.069 L2094.23 188.143 L2098.51 188.143 L2098.51 192.171 Q2099.97 189.786 2102 188.652 Q2104.04 187.518 2106.84 187.518 Q2109.67 187.518 2111.63 188.953 Q2113.63 190.388 2114.57 193.12 Z" fill="#000000" fill-rule="evenodd" fill-opacity="1" /><path clip-path="url(#clip920)" d="M2150.62 191.129 Q2147.19 191.129 2145.2 193.814 Q2143.21 196.476 2143.21 201.129 Q2143.21 205.782 2145.18 208.467 Q2147.17 211.129 2150.62 211.129 Q2154.02 211.129 2156.01 208.444 Q2158 205.758 2158 201.129 Q2158 196.522 2156.01 193.837 Q2154.02 191.129 2150.62 191.129 M2150.62 187.518 Q2156.17 187.518 2159.34 191.129 Q2162.51 194.74 2162.51 201.129 Q2162.51 207.495 2159.34 211.129 Q2156.17 214.74 2150.62 214.74 Q2145.04 214.74 2141.87 211.129 Q2138.72 207.495 2138.72 201.129 Q2138.72 194.74 2141.87 191.129 Q2145.04 187.518 2150.62 187.518 Z" fill="#000000" fill-rule="evenodd" fill-opacity="1" /><path clip-path="url(#clip920)" d="M2186.63 192.078 L2186.63 178.05 L2190.89 178.05 L2190.89 214.069 L2186.63 214.069 L2186.63 210.18 Q2185.29 212.495 2183.23 213.629 Q2181.19 214.74 2178.32 214.74 Q2173.62 214.74 2170.66 210.99 Q2167.72 207.24 2167.72 201.129 Q2167.72 195.018 2170.66 191.268 Q2173.62 187.518 2178.32 187.518 Q2181.19 187.518 2183.23 188.652 Q2185.29 189.763 2186.63 192.078 M2172.12 201.129 Q2172.12 205.828 2174.04 208.513 Q2175.99 211.175 2179.37 211.175 Q2182.75 211.175 2184.69 208.513 Q2186.63 205.828 2186.63 201.129 Q2186.63 196.43 2184.69 193.768 Q2182.75 191.083 2179.37 191.083 Q2175.99 191.083 2174.04 193.768 Q2172.12 196.43 2172.12 201.129 Z" fill="#000000" fill-rule="evenodd" fill-opacity="1" /><path clip-path="url(#clip920)" d="M2221.84 200.041 L2221.84 202.124 L2202.26 202.124 Q2202.54 206.522 2204.9 208.837 Q2207.28 211.129 2211.52 211.129 Q2213.97 211.129 2216.26 210.527 Q2218.58 209.925 2220.85 208.721 L2220.85 212.749 Q2218.56 213.721 2216.15 214.231 Q2213.74 214.74 2211.26 214.74 Q2205.06 214.74 2201.43 211.129 Q2197.81 207.518 2197.81 201.36 Q2197.81 194.995 2201.24 191.268 Q2204.69 187.518 2210.52 187.518 Q2215.75 187.518 2218.79 190.897 Q2221.84 194.254 2221.84 200.041 M2217.58 198.791 Q2217.54 195.296 2215.62 193.212 Q2213.72 191.129 2210.57 191.129 Q2207 191.129 2204.85 193.143 Q2202.72 195.157 2202.4 198.814 L2217.58 198.791 Z" fill="#000000" fill-rule="evenodd" fill-opacity="1" /><path clip-path="url(#clip920)" d="M2228.83 178.05 L2233.09 178.05 L2233.09 214.069 L2228.83 214.069 L2228.83 178.05 Z" fill="#000000" fill-rule="evenodd" fill-opacity="1" /></svg>
