<?xml version="1.0" encoding="utf-8"?>
<svg xmlns="http://www.w3.org/2000/svg" xmlns:xlink="http://www.w3.org/1999/xlink" width="600" height="400" viewBox="0 0 2400 1600">
<defs>
  <clipPath id="clip980">
    <rect x="0" y="0" width="2400" height="1600"/>
  </clipPath>
</defs>
<path clip-path="url(#clip980)" d="
M0 1600 L2400 1600 L2400 0 L0 0  Z
  " fill="#ffffff" fill-rule="evenodd" fill-opacity="1"/>
<defs>
  <clipPath id="clip981">
    <rect x="480" y="0" width="1681" height="1600"/>
  </clipPath>
</defs>
<defs>
  <clipPath id="clip982">
    <rect x="336" y="47" width="2018" height="1377"/>
  </clipPath>
</defs>
<path clip-path="url(#clip980)" d="
M336.255 1423.18 L2352.76 1423.18 L2352.76 47.2441 L336.255 47.2441  Z
  " fill="#ffffff" fill-rule="evenodd" fill-opacity="1"/>
<polyline clip-path="url(#clip980)" style="stroke:#000000; stroke-linecap:butt; stroke-linejoin:round; stroke-width:4; stroke-opacity:1; fill:none" points="
  336.255,1423.18 2352.76,1423.18 
  "/>
<polyline clip-path="url(#clip980)" style="stroke:#000000; stroke-linecap:butt; stroke-linejoin:round; stroke-width:4; stroke-opacity:1; fill:none" points="
  372.189,1423.18 372.189,1404.28 
  "/>
<polyline clip-path="url(#clip980)" style="stroke:#000000; stroke-linecap:butt; stroke-linejoin:round; stroke-width:4; stroke-opacity:1; fill:none" points="
  794.935,1423.18 794.935,1404.28 
  "/>
<polyline clip-path="url(#clip980)" style="stroke:#000000; stroke-linecap:butt; stroke-linejoin:round; stroke-width:4; stroke-opacity:1; fill:none" points="
  1217.68,1423.18 1217.68,1404.28 
  "/>
<polyline clip-path="url(#clip980)" style="stroke:#000000; stroke-linecap:butt; stroke-linejoin:round; stroke-width:4; stroke-opacity:1; fill:none" points="
  1640.43,1423.18 1640.43,1404.28 
  "/>
<polyline clip-path="url(#clip980)" style="stroke:#000000; stroke-linecap:butt; stroke-linejoin:round; stroke-width:4; stroke-opacity:1; fill:none" points="
  2063.17,1423.18 2063.17,1404.28 
  "/>
<path clip-path="url(#clip980)" d="M372.189 1452.37 Q368.577 1452.37 366.749 1455.94 Q364.943 1459.48 364.943 1466.61 Q364.943 1473.71 366.749 1477.28 Q368.577 1480.82 372.189 1480.82 Q375.823 1480.82 377.628 1477.28 Q379.457 1473.71 379.457 1466.61 Q379.457 1459.48 377.628 1455.94 Q375.823 1452.37 372.189 1452.37 M372.189 1448.67 Q377.999 1448.67 381.054 1453.27 Q384.133 1457.86 384.133 1466.61 Q384.133 1475.33 381.054 1479.94 Q377.999 1484.52 372.189 1484.52 Q366.378 1484.52 363.3 1479.94 Q360.244 1475.33 360.244 1466.61 Q360.244 1457.86 363.3 1453.27 Q366.378 1448.67 372.189 1448.67 Z" fill="#000000" fill-rule="evenodd" fill-opacity="1" /><path clip-path="url(#clip980)" d="M773.708 1479.92 L790.028 1479.92 L790.028 1483.85 L768.083 1483.85 L768.083 1479.92 Q770.745 1477.16 775.329 1472.53 Q779.935 1467.88 781.116 1466.54 Q783.361 1464.01 784.241 1462.28 Q785.143 1460.52 785.143 1458.83 Q785.143 1456.07 783.199 1454.34 Q781.278 1452.6 778.176 1452.6 Q775.977 1452.6 773.523 1453.37 Q771.093 1454.13 768.315 1455.68 L768.315 1450.96 Q771.139 1449.82 773.593 1449.25 Q776.046 1448.67 778.083 1448.67 Q783.454 1448.67 786.648 1451.35 Q789.843 1454.04 789.843 1458.53 Q789.843 1460.66 789.032 1462.58 Q788.245 1464.48 786.139 1467.07 Q785.56 1467.74 782.458 1470.96 Q779.356 1474.15 773.708 1479.92 Z" fill="#000000" fill-rule="evenodd" fill-opacity="1" /><path clip-path="url(#clip980)" d="M809.842 1452.37 Q806.231 1452.37 804.403 1455.94 Q802.597 1459.48 802.597 1466.61 Q802.597 1473.71 804.403 1477.28 Q806.231 1480.82 809.842 1480.82 Q813.477 1480.82 815.282 1477.28 Q817.111 1473.71 817.111 1466.61 Q817.111 1459.48 815.282 1455.94 Q813.477 1452.37 809.842 1452.37 M809.842 1448.67 Q815.653 1448.67 818.708 1453.27 Q821.787 1457.86 821.787 1466.61 Q821.787 1475.33 818.708 1479.94 Q815.653 1484.52 809.842 1484.52 Q804.032 1484.52 800.954 1479.94 Q797.898 1475.33 797.898 1466.61 Q797.898 1457.86 800.954 1453.27 Q804.032 1448.67 809.842 1448.67 Z" fill="#000000" fill-rule="evenodd" fill-opacity="1" /><path clip-path="url(#clip980)" d="M1205.85 1453.37 L1194.05 1471.81 L1205.85 1471.81 L1205.85 1453.37 M1204.63 1449.29 L1210.51 1449.29 L1210.51 1471.81 L1215.44 1471.81 L1215.44 1475.7 L1210.51 1475.7 L1210.51 1483.85 L1205.85 1483.85 L1205.85 1475.7 L1190.25 1475.7 L1190.25 1471.19 L1204.63 1449.29 Z" fill="#000000" fill-rule="evenodd" fill-opacity="1" /><path clip-path="url(#clip980)" d="M1233.17 1452.37 Q1229.56 1452.37 1227.73 1455.94 Q1225.92 1459.48 1225.92 1466.61 Q1225.92 1473.71 1227.73 1477.28 Q1229.56 1480.82 1233.17 1480.82 Q1236.8 1480.82 1238.61 1477.28 Q1240.44 1473.71 1240.44 1466.61 Q1240.44 1459.48 1238.61 1455.94 Q1236.8 1452.37 1233.17 1452.37 M1233.17 1448.67 Q1238.98 1448.67 1242.03 1453.27 Q1245.11 1457.86 1245.11 1466.61 Q1245.11 1475.33 1242.03 1479.94 Q1238.98 1484.52 1233.17 1484.52 Q1227.36 1484.52 1224.28 1479.94 Q1221.22 1475.33 1221.22 1466.61 Q1221.22 1457.86 1224.28 1453.27 Q1227.36 1448.67 1233.17 1448.67 Z" fill="#000000" fill-rule="evenodd" fill-opacity="1" /><path clip-path="url(#clip980)" d="M1625.83 1464.71 Q1622.69 1464.71 1620.83 1466.86 Q1619 1469.01 1619 1472.76 Q1619 1476.49 1620.83 1478.67 Q1622.69 1480.82 1625.83 1480.82 Q1628.98 1480.82 1630.81 1478.67 Q1632.66 1476.49 1632.66 1472.76 Q1632.66 1469.01 1630.81 1466.86 Q1628.98 1464.71 1625.83 1464.71 M1635.12 1450.06 L1635.12 1454.31 Q1633.36 1453.48 1631.55 1453.04 Q1629.77 1452.6 1628.01 1452.6 Q1623.38 1452.6 1620.93 1455.73 Q1618.5 1458.85 1618.15 1465.17 Q1619.51 1463.16 1621.57 1462.09 Q1623.63 1461 1626.11 1461 Q1631.32 1461 1634.33 1464.18 Q1637.36 1467.32 1637.36 1472.76 Q1637.36 1478.09 1634.21 1481.31 Q1631.06 1484.52 1625.83 1484.52 Q1619.84 1484.52 1616.67 1479.94 Q1613.5 1475.33 1613.5 1466.61 Q1613.5 1458.41 1617.38 1453.55 Q1621.27 1448.67 1627.82 1448.67 Q1629.58 1448.67 1631.37 1449.01 Q1633.17 1449.36 1635.12 1450.06 Z" fill="#000000" fill-rule="evenodd" fill-opacity="1" /><path clip-path="url(#clip980)" d="M1655.42 1452.37 Q1651.81 1452.37 1649.98 1455.94 Q1648.17 1459.48 1648.17 1466.61 Q1648.17 1473.71 1649.98 1477.28 Q1651.81 1480.82 1655.42 1480.82 Q1659.05 1480.82 1660.86 1477.28 Q1662.68 1473.71 1662.68 1466.61 Q1662.68 1459.48 1660.86 1455.94 Q1659.05 1452.37 1655.42 1452.37 M1655.42 1448.67 Q1661.23 1448.67 1664.28 1453.27 Q1667.36 1457.86 1667.36 1466.61 Q1667.36 1475.33 1664.28 1479.94 Q1661.23 1484.52 1655.42 1484.52 Q1649.61 1484.52 1646.53 1479.94 Q1643.47 1475.33 1643.47 1466.61 Q1643.47 1457.86 1646.53 1453.27 Q1649.61 1448.67 1655.42 1448.67 Z" fill="#000000" fill-rule="evenodd" fill-opacity="1" /><path clip-path="url(#clip980)" d="M2048.05 1467.44 Q2044.71 1467.44 2042.79 1469.22 Q2040.89 1471 2040.89 1474.13 Q2040.89 1477.25 2042.79 1479.04 Q2044.71 1480.82 2048.05 1480.82 Q2051.38 1480.82 2053.3 1479.04 Q2055.22 1477.23 2055.22 1474.13 Q2055.22 1471 2053.3 1469.22 Q2051.4 1467.44 2048.05 1467.44 M2043.37 1465.45 Q2040.36 1464.71 2038.67 1462.65 Q2037.01 1460.59 2037.01 1457.63 Q2037.01 1453.48 2039.95 1451.07 Q2042.91 1448.67 2048.05 1448.67 Q2053.21 1448.67 2056.15 1451.07 Q2059.09 1453.48 2059.09 1457.63 Q2059.09 1460.59 2057.4 1462.65 Q2055.73 1464.71 2052.75 1465.45 Q2056.13 1466.24 2058 1468.53 Q2059.9 1470.82 2059.9 1474.13 Q2059.9 1479.15 2056.82 1481.84 Q2053.76 1484.52 2048.05 1484.52 Q2042.33 1484.52 2039.25 1481.84 Q2036.2 1479.15 2036.2 1474.13 Q2036.2 1470.82 2038.09 1468.53 Q2039.99 1466.24 2043.37 1465.45 M2041.66 1458.06 Q2041.66 1460.75 2043.33 1462.25 Q2045.01 1463.76 2048.05 1463.76 Q2051.06 1463.76 2052.75 1462.25 Q2054.46 1460.75 2054.46 1458.06 Q2054.46 1455.38 2052.75 1453.88 Q2051.06 1452.37 2048.05 1452.37 Q2045.01 1452.37 2043.33 1453.88 Q2041.66 1455.38 2041.66 1458.06 Z" fill="#000000" fill-rule="evenodd" fill-opacity="1" /><path clip-path="url(#clip980)" d="M2078.21 1452.37 Q2074.6 1452.37 2072.77 1455.94 Q2070.96 1459.48 2070.96 1466.61 Q2070.96 1473.71 2072.77 1477.28 Q2074.6 1480.82 2078.21 1480.82 Q2081.84 1480.82 2083.65 1477.28 Q2085.48 1473.71 2085.48 1466.61 Q2085.48 1459.48 2083.65 1455.94 Q2081.84 1452.37 2078.21 1452.37 M2078.21 1448.67 Q2084.02 1448.67 2087.07 1453.27 Q2090.15 1457.86 2090.15 1466.61 Q2090.15 1475.33 2087.07 1479.94 Q2084.02 1484.52 2078.21 1484.52 Q2072.4 1484.52 2069.32 1479.94 Q2066.26 1475.33 2066.26 1466.61 Q2066.26 1457.86 2069.32 1453.27 Q2072.4 1448.67 2078.21 1448.67 Z" fill="#000000" fill-rule="evenodd" fill-opacity="1" /><path clip-path="url(#clip980)" d="M1067.8 1520.52 L1076.46 1520.52 L1097.53 1560.28 L1097.53 1520.52 L1103.77 1520.52 L1103.77 1568.04 L1095.11 1568.04 L1074.04 1528.29 L1074.04 1568.04 L1067.8 1568.04 L1067.8 1520.52 Z" fill="#000000" fill-rule="evenodd" fill-opacity="1" /><path clip-path="url(#clip980)" d="M1115.71 1553.98 L1115.71 1532.4 L1121.56 1532.4 L1121.56 1553.75 Q1121.56 1558.81 1123.54 1561.36 Q1125.51 1563.87 1129.46 1563.87 Q1134.2 1563.87 1136.94 1560.85 Q1139.7 1557.83 1139.7 1552.61 L1139.7 1532.4 L1145.56 1532.4 L1145.56 1568.04 L1139.7 1568.04 L1139.7 1562.57 Q1137.57 1565.82 1134.74 1567.41 Q1131.94 1568.97 1128.21 1568.97 Q1122.07 1568.97 1118.89 1565.15 Q1115.71 1561.33 1115.71 1553.98 M1130.44 1531.54 L1130.44 1531.54 Z" fill="#000000" fill-rule="evenodd" fill-opacity="1" /><path clip-path="url(#clip980)" d="M1185.38 1539.24 Q1187.57 1535.29 1190.63 1533.41 Q1193.69 1531.54 1197.82 1531.54 Q1203.39 1531.54 1206.42 1535.45 Q1209.44 1539.33 1209.44 1546.53 L1209.44 1568.04 L1203.55 1568.04 L1203.55 1546.72 Q1203.55 1541.59 1201.74 1539.11 Q1199.92 1536.63 1196.2 1536.63 Q1191.65 1536.63 1189.01 1539.65 Q1186.37 1542.68 1186.37 1547.9 L1186.37 1568.04 L1180.48 1568.04 L1180.48 1546.72 Q1180.48 1541.56 1178.66 1539.11 Q1176.85 1536.63 1173.06 1536.63 Q1168.57 1536.63 1165.93 1539.68 Q1163.29 1542.71 1163.29 1547.9 L1163.29 1568.04 L1157.4 1568.04 L1157.4 1532.4 L1163.29 1532.4 L1163.29 1537.93 Q1165.29 1534.66 1168.1 1533.1 Q1170.9 1531.54 1174.75 1531.54 Q1178.63 1531.54 1181.34 1533.51 Q1184.07 1535.48 1185.38 1539.24 Z" fill="#000000" fill-rule="evenodd" fill-opacity="1" /><path clip-path="url(#clip980)" d="M1246.71 1550.25 Q1246.71 1543.79 1244.04 1540.13 Q1241.4 1536.44 1236.75 1536.44 Q1232.1 1536.44 1229.43 1540.13 Q1226.79 1543.79 1226.79 1550.25 Q1226.79 1556.71 1229.43 1560.4 Q1232.1 1564.07 1236.75 1564.07 Q1241.4 1564.07 1244.04 1560.4 Q1246.71 1556.71 1246.71 1550.25 M1226.79 1537.81 Q1228.63 1534.62 1231.43 1533.1 Q1234.27 1531.54 1238.18 1531.54 Q1244.68 1531.54 1248.72 1536.69 Q1252.79 1541.85 1252.79 1550.25 Q1252.79 1558.65 1248.72 1563.81 Q1244.68 1568.97 1238.18 1568.97 Q1234.27 1568.97 1231.43 1567.44 Q1228.63 1565.88 1226.79 1562.7 L1226.79 1568.04 L1220.9 1568.04 L1220.9 1518.52 L1226.79 1518.52 L1226.79 1537.81 Z" fill="#000000" fill-rule="evenodd" fill-opacity="1" /><path clip-path="url(#clip980)" d="M1292.99 1548.76 L1292.99 1551.62 L1266.06 1551.62 Q1266.45 1557.67 1269.69 1560.85 Q1272.97 1564 1278.8 1564 Q1282.17 1564 1285.32 1563.17 Q1288.5 1562.35 1291.62 1560.69 L1291.62 1566.23 Q1288.47 1567.57 1285.16 1568.27 Q1281.85 1568.97 1278.45 1568.97 Q1269.92 1568.97 1264.92 1564 Q1259.95 1559.04 1259.95 1550.57 Q1259.95 1541.82 1264.66 1536.69 Q1269.41 1531.54 1277.43 1531.54 Q1284.62 1531.54 1288.79 1536.18 Q1292.99 1540.8 1292.99 1548.76 M1287.13 1547.04 Q1287.07 1542.23 1284.43 1539.37 Q1281.82 1536.5 1277.49 1536.5 Q1272.59 1536.5 1269.63 1539.27 Q1266.7 1542.04 1266.26 1547.07 L1287.13 1547.04 Z" fill="#000000" fill-rule="evenodd" fill-opacity="1" /><path clip-path="url(#clip980)" d="M1323.26 1537.87 Q1322.27 1537.3 1321.1 1537.04 Q1319.95 1536.76 1318.55 1536.76 Q1313.58 1536.76 1310.91 1540 Q1308.27 1543.22 1308.27 1549.27 L1308.27 1568.04 L1302.38 1568.04 L1302.38 1532.4 L1308.27 1532.4 L1308.27 1537.93 Q1310.11 1534.69 1313.07 1533.13 Q1316.03 1531.54 1320.27 1531.54 Q1320.87 1531.54 1321.6 1531.63 Q1322.34 1531.7 1323.23 1531.85 L1323.26 1537.87 Z" fill="#000000" fill-rule="evenodd" fill-opacity="1" /><path clip-path="url(#clip980)" d="M1363.94 1536.5 Q1359.23 1536.5 1356.49 1540.19 Q1353.75 1543.85 1353.75 1550.25 Q1353.75 1556.65 1356.46 1560.34 Q1359.19 1564 1363.94 1564 Q1368.62 1564 1371.35 1560.31 Q1374.09 1556.62 1374.09 1550.25 Q1374.09 1543.92 1371.35 1540.23 Q1368.62 1536.5 1363.94 1536.5 M1363.94 1531.54 Q1371.58 1531.54 1375.94 1536.5 Q1380.3 1541.47 1380.3 1550.25 Q1380.3 1559 1375.94 1564 Q1371.58 1568.97 1363.94 1568.97 Q1356.27 1568.97 1351.91 1564 Q1347.58 1559 1347.58 1550.25 Q1347.58 1541.47 1351.91 1536.5 Q1356.27 1531.54 1363.94 1531.54 Z" fill="#000000" fill-rule="evenodd" fill-opacity="1" /><path clip-path="url(#clip980)" d="M1408.05 1518.52 L1408.05 1523.39 L1402.45 1523.39 Q1399.3 1523.39 1398.06 1524.66 Q1396.85 1525.93 1396.85 1529.24 L1396.85 1532.4 L1406.49 1532.4 L1406.49 1536.95 L1396.85 1536.95 L1396.85 1568.04 L1390.96 1568.04 L1390.96 1536.95 L1385.36 1536.95 L1385.36 1532.4 L1390.96 1532.4 L1390.96 1529.91 Q1390.96 1523.96 1393.73 1521.26 Q1396.5 1518.52 1402.51 1518.52 L1408.05 1518.52 Z" fill="#000000" fill-rule="evenodd" fill-opacity="1" /><path clip-path="url(#clip980)" d="M1457.13 1549.81 Q1457.13 1543.44 1454.49 1539.94 Q1451.88 1536.44 1447.14 1536.44 Q1442.43 1536.44 1439.78 1539.94 Q1437.17 1543.44 1437.17 1549.81 Q1437.17 1556.14 1439.78 1559.64 Q1442.43 1563.14 1447.14 1563.14 Q1451.88 1563.14 1454.49 1559.64 Q1457.13 1556.14 1457.13 1549.81 M1462.99 1563.62 Q1462.99 1572.72 1458.95 1577.15 Q1454.9 1581.6 1446.56 1581.6 Q1443.48 1581.6 1440.74 1581.13 Q1438 1580.68 1435.42 1579.72 L1435.42 1574.03 Q1438 1575.43 1440.52 1576.1 Q1443.03 1576.76 1445.64 1576.76 Q1451.4 1576.76 1454.27 1573.74 Q1457.13 1570.75 1457.13 1564.67 L1457.13 1561.77 Q1455.32 1564.92 1452.48 1566.48 Q1449.65 1568.04 1445.7 1568.04 Q1439.15 1568.04 1435.14 1563.05 Q1431.13 1558.05 1431.13 1549.81 Q1431.13 1541.53 1435.14 1536.53 Q1439.15 1531.54 1445.7 1531.54 Q1449.65 1531.54 1452.48 1533.1 Q1455.32 1534.66 1457.13 1537.81 L1457.13 1532.4 L1462.99 1532.4 L1462.99 1563.62 Z" fill="#000000" fill-rule="evenodd" fill-opacity="1" /><path clip-path="url(#clip980)" d="M1505.54 1548.76 L1505.54 1551.62 L1478.62 1551.62 Q1479 1557.67 1482.24 1560.85 Q1485.52 1564 1491.35 1564 Q1494.72 1564 1497.87 1563.17 Q1501.05 1562.35 1504.17 1560.69 L1504.17 1566.23 Q1501.02 1567.57 1497.71 1568.27 Q1494.4 1568.97 1491 1568.97 Q1482.47 1568.97 1477.47 1564 Q1472.5 1559.04 1472.5 1550.57 Q1472.5 1541.82 1477.21 1536.69 Q1481.96 1531.54 1489.98 1531.54 Q1497.17 1531.54 1501.34 1536.18 Q1505.54 1540.8 1505.54 1548.76 M1499.69 1547.04 Q1499.62 1542.23 1496.98 1539.37 Q1494.37 1536.5 1490.04 1536.5 Q1485.14 1536.5 1482.18 1539.27 Q1479.25 1542.04 1478.81 1547.07 L1499.69 1547.04 Z" fill="#000000" fill-rule="evenodd" fill-opacity="1" /><path clip-path="url(#clip980)" d="M1544.79 1546.53 L1544.79 1568.04 L1538.93 1568.04 L1538.93 1546.72 Q1538.93 1541.66 1536.96 1539.14 Q1534.98 1536.63 1531.04 1536.63 Q1526.29 1536.63 1523.56 1539.65 Q1520.82 1542.68 1520.82 1547.9 L1520.82 1568.04 L1514.93 1568.04 L1514.93 1532.4 L1520.82 1532.4 L1520.82 1537.93 Q1522.92 1534.72 1525.75 1533.13 Q1528.62 1531.54 1532.34 1531.54 Q1538.48 1531.54 1541.64 1535.36 Q1544.79 1539.14 1544.79 1546.53 Z" fill="#000000" fill-rule="evenodd" fill-opacity="1" /><path clip-path="url(#clip980)" d="M1586.96 1548.76 L1586.96 1551.62 L1560.03 1551.62 Q1560.41 1557.67 1563.66 1560.85 Q1566.94 1564 1572.76 1564 Q1576.14 1564 1579.29 1563.17 Q1582.47 1562.35 1585.59 1560.69 L1585.59 1566.23 Q1582.44 1567.57 1579.13 1568.27 Q1575.82 1568.97 1572.41 1568.97 Q1563.88 1568.97 1558.89 1564 Q1553.92 1559.04 1553.92 1550.57 Q1553.92 1541.82 1558.63 1536.69 Q1563.37 1531.54 1571.4 1531.54 Q1578.59 1531.54 1582.76 1536.18 Q1586.96 1540.8 1586.96 1548.76 M1581.1 1547.04 Q1581.04 1542.23 1578.4 1539.37 Q1575.79 1536.5 1571.46 1536.5 Q1566.56 1536.5 1563.6 1539.27 Q1560.67 1542.04 1560.22 1547.07 L1581.1 1547.04 Z" fill="#000000" fill-rule="evenodd" fill-opacity="1" /><path clip-path="url(#clip980)" d="M1619.3 1533.45 L1619.3 1538.98 Q1616.81 1537.71 1614.14 1537.07 Q1611.47 1536.44 1608.6 1536.44 Q1604.24 1536.44 1602.05 1537.77 Q1599.88 1539.11 1599.88 1541.79 Q1599.88 1543.82 1601.44 1545 Q1603 1546.15 1607.71 1547.2 L1609.72 1547.64 Q1615.96 1548.98 1618.57 1551.43 Q1621.21 1553.85 1621.21 1558.21 Q1621.21 1563.17 1617.26 1566.07 Q1613.35 1568.97 1606.47 1568.97 Q1603.61 1568.97 1600.49 1568.39 Q1597.4 1567.85 1593.96 1566.74 L1593.96 1560.69 Q1597.21 1562.38 1600.36 1563.24 Q1603.51 1564.07 1606.6 1564.07 Q1610.74 1564.07 1612.96 1562.66 Q1615.19 1561.23 1615.19 1558.65 Q1615.19 1556.27 1613.57 1554.99 Q1611.98 1553.72 1606.53 1552.54 L1604.5 1552.07 Q1599.05 1550.92 1596.64 1548.56 Q1594.22 1546.18 1594.22 1542.04 Q1594.22 1537.01 1597.78 1534.27 Q1601.35 1531.54 1607.9 1531.54 Q1611.15 1531.54 1614.01 1532.01 Q1616.88 1532.49 1619.3 1533.45 Z" fill="#000000" fill-rule="evenodd" fill-opacity="1" /><polyline clip-path="url(#clip980)" style="stroke:#000000; stroke-linecap:butt; stroke-linejoin:round; stroke-width:4; stroke-opacity:1; fill:none" points="
  336.255,1423.18 336.255,47.2441 
  "/>
<polyline clip-path="url(#clip980)" style="stroke:#000000; stroke-linecap:butt; stroke-linejoin:round; stroke-width:4; stroke-opacity:1; fill:none" points="
  336.255,1381.05 355.153,1381.05 
  "/>
<polyline clip-path="url(#clip980)" style="stroke:#000000; stroke-linecap:butt; stroke-linejoin:round; stroke-width:4; stroke-opacity:1; fill:none" points="
  336.255,1081.6 355.153,1081.6 
  "/>
<polyline clip-path="url(#clip980)" style="stroke:#000000; stroke-linecap:butt; stroke-linejoin:round; stroke-width:4; stroke-opacity:1; fill:none" points="
  336.255,782.157 355.153,782.157 
  "/>
<polyline clip-path="url(#clip980)" style="stroke:#000000; stroke-linecap:butt; stroke-linejoin:round; stroke-width:4; stroke-opacity:1; fill:none" points="
  336.255,482.713 355.153,482.713 
  "/>
<polyline clip-path="url(#clip980)" style="stroke:#000000; stroke-linecap:butt; stroke-linejoin:round; stroke-width:4; stroke-opacity:1; fill:none" points="
  336.255,183.268 355.153,183.268 
  "/>
<path clip-path="url(#clip980)" d="M133.983 1381.5 L163.659 1381.5 L163.659 1385.43 L133.983 1385.43 L133.983 1381.5 Z" fill="#000000" fill-rule="evenodd" fill-opacity="1" /><path clip-path="url(#clip980)" d="M183.751 1366.85 Q180.14 1366.85 178.311 1370.41 Q176.506 1373.95 176.506 1381.08 Q176.506 1388.19 178.311 1391.75 Q180.14 1395.29 183.751 1395.29 Q187.385 1395.29 189.191 1391.75 Q191.02 1388.19 191.02 1381.08 Q191.02 1373.95 189.191 1370.41 Q187.385 1366.85 183.751 1366.85 M183.751 1363.14 Q189.561 1363.14 192.617 1367.75 Q195.695 1372.33 195.695 1381.08 Q195.695 1389.81 192.617 1394.41 Q189.561 1399 183.751 1399 Q177.941 1399 174.862 1394.41 Q171.807 1389.81 171.807 1381.08 Q171.807 1372.33 174.862 1367.75 Q177.941 1363.14 183.751 1363.14 Z" fill="#000000" fill-rule="evenodd" fill-opacity="1" /><path clip-path="url(#clip980)" d="M203.913 1392.45 L208.797 1392.45 L208.797 1398.33 L203.913 1398.33 L203.913 1392.45 Z" fill="#000000" fill-rule="evenodd" fill-opacity="1" /><path clip-path="url(#clip980)" d="M228.982 1366.85 Q225.371 1366.85 223.543 1370.41 Q221.737 1373.95 221.737 1381.08 Q221.737 1388.19 223.543 1391.75 Q225.371 1395.29 228.982 1395.29 Q232.617 1395.29 234.422 1391.75 Q236.251 1388.19 236.251 1381.08 Q236.251 1373.95 234.422 1370.41 Q232.617 1366.85 228.982 1366.85 M228.982 1363.14 Q234.793 1363.14 237.848 1367.75 Q240.927 1372.33 240.927 1381.08 Q240.927 1389.81 237.848 1394.41 Q234.793 1399 228.982 1399 Q223.172 1399 220.094 1394.41 Q217.038 1389.81 217.038 1381.08 Q217.038 1372.33 220.094 1367.75 Q223.172 1363.14 228.982 1363.14 Z" fill="#000000" fill-rule="evenodd" fill-opacity="1" /><path clip-path="url(#clip980)" d="M253.172 1394.39 L269.491 1394.39 L269.491 1398.33 L247.547 1398.33 L247.547 1394.39 Q250.209 1391.64 254.792 1387.01 Q259.399 1382.35 260.579 1381.01 Q262.825 1378.49 263.704 1376.75 Q264.607 1374.99 264.607 1373.3 Q264.607 1370.55 262.663 1368.81 Q260.741 1367.08 257.64 1367.08 Q255.441 1367.08 252.987 1367.84 Q250.556 1368.6 247.779 1370.16 L247.779 1365.43 Q250.603 1364.3 253.056 1363.72 Q255.51 1363.14 257.547 1363.14 Q262.917 1363.14 266.112 1365.83 Q269.306 1368.51 269.306 1373 Q269.306 1375.13 268.496 1377.05 Q267.709 1378.95 265.603 1381.54 Q265.024 1382.22 261.922 1385.43 Q258.82 1388.63 253.172 1394.39 Z" fill="#000000" fill-rule="evenodd" fill-opacity="1" /><path clip-path="url(#clip980)" d="M279.352 1363.77 L297.709 1363.77 L297.709 1367.7 L283.635 1367.7 L283.635 1376.17 Q284.653 1375.83 285.672 1375.66 Q286.69 1375.48 287.709 1375.48 Q293.496 1375.48 296.876 1378.65 Q300.255 1381.82 300.255 1387.24 Q300.255 1392.82 296.783 1395.92 Q293.311 1399 286.991 1399 Q284.815 1399 282.547 1398.63 Q280.302 1398.26 277.894 1397.52 L277.894 1392.82 Q279.977 1393.95 282.2 1394.51 Q284.422 1395.06 286.899 1395.06 Q290.903 1395.06 293.241 1392.96 Q295.579 1390.85 295.579 1387.24 Q295.579 1383.63 293.241 1381.52 Q290.903 1379.41 286.899 1379.41 Q285.024 1379.41 283.149 1379.83 Q281.297 1380.25 279.352 1381.13 L279.352 1363.77 Z" fill="#000000" fill-rule="evenodd" fill-opacity="1" /><path clip-path="url(#clip980)" d="M182.756 1067.4 Q179.145 1067.4 177.316 1070.97 Q175.51 1074.51 175.51 1081.64 Q175.51 1088.74 177.316 1092.31 Q179.145 1095.85 182.756 1095.85 Q186.39 1095.85 188.196 1092.31 Q190.024 1088.74 190.024 1081.64 Q190.024 1074.51 188.196 1070.97 Q186.39 1067.4 182.756 1067.4 M182.756 1063.7 Q188.566 1063.7 191.621 1068.3 Q194.7 1072.89 194.7 1081.64 Q194.7 1090.36 191.621 1094.97 Q188.566 1099.55 182.756 1099.55 Q176.946 1099.55 173.867 1094.97 Q170.811 1090.36 170.811 1081.64 Q170.811 1072.89 173.867 1068.3 Q176.946 1063.7 182.756 1063.7 Z" fill="#000000" fill-rule="evenodd" fill-opacity="1" /><path clip-path="url(#clip980)" d="M202.918 1093 L207.802 1093 L207.802 1098.88 L202.918 1098.88 L202.918 1093 Z" fill="#000000" fill-rule="evenodd" fill-opacity="1" /><path clip-path="url(#clip980)" d="M227.987 1067.4 Q224.376 1067.4 222.547 1070.97 Q220.742 1074.51 220.742 1081.64 Q220.742 1088.74 222.547 1092.31 Q224.376 1095.85 227.987 1095.85 Q231.621 1095.85 233.427 1092.31 Q235.255 1088.74 235.255 1081.64 Q235.255 1074.51 233.427 1070.97 Q231.621 1067.4 227.987 1067.4 M227.987 1063.7 Q233.797 1063.7 236.853 1068.3 Q239.931 1072.89 239.931 1081.64 Q239.931 1090.36 236.853 1094.97 Q233.797 1099.55 227.987 1099.55 Q222.177 1099.55 219.098 1094.97 Q216.043 1090.36 216.043 1081.64 Q216.043 1072.89 219.098 1068.3 Q222.177 1063.7 227.987 1063.7 Z" fill="#000000" fill-rule="evenodd" fill-opacity="1" /><path clip-path="url(#clip980)" d="M258.149 1067.4 Q254.538 1067.4 252.709 1070.97 Q250.904 1074.51 250.904 1081.64 Q250.904 1088.74 252.709 1092.31 Q254.538 1095.85 258.149 1095.85 Q261.783 1095.85 263.589 1092.31 Q265.417 1088.74 265.417 1081.64 Q265.417 1074.51 263.589 1070.97 Q261.783 1067.4 258.149 1067.4 M258.149 1063.7 Q263.959 1063.7 267.015 1068.3 Q270.093 1072.89 270.093 1081.64 Q270.093 1090.36 267.015 1094.97 Q263.959 1099.55 258.149 1099.55 Q252.339 1099.55 249.26 1094.97 Q246.204 1090.36 246.204 1081.64 Q246.204 1072.89 249.26 1068.3 Q252.339 1063.7 258.149 1063.7 Z" fill="#000000" fill-rule="evenodd" fill-opacity="1" /><path clip-path="url(#clip980)" d="M288.311 1067.4 Q284.7 1067.4 282.871 1070.97 Q281.065 1074.51 281.065 1081.64 Q281.065 1088.74 282.871 1092.31 Q284.7 1095.85 288.311 1095.85 Q291.945 1095.85 293.751 1092.31 Q295.579 1088.74 295.579 1081.64 Q295.579 1074.51 293.751 1070.97 Q291.945 1067.4 288.311 1067.4 M288.311 1063.7 Q294.121 1063.7 297.176 1068.3 Q300.255 1072.89 300.255 1081.64 Q300.255 1090.36 297.176 1094.97 Q294.121 1099.55 288.311 1099.55 Q282.501 1099.55 279.422 1094.97 Q276.366 1090.36 276.366 1081.64 Q276.366 1072.89 279.422 1068.3 Q282.501 1063.7 288.311 1063.7 Z" fill="#000000" fill-rule="evenodd" fill-opacity="1" /><path clip-path="url(#clip980)" d="M183.751 767.956 Q180.14 767.956 178.311 771.521 Q176.506 775.063 176.506 782.192 Q176.506 789.299 178.311 792.863 Q180.14 796.405 183.751 796.405 Q187.385 796.405 189.191 792.863 Q191.02 789.299 191.02 782.192 Q191.02 775.063 189.191 771.521 Q187.385 767.956 183.751 767.956 M183.751 764.252 Q189.561 764.252 192.617 768.859 Q195.695 773.442 195.695 782.192 Q195.695 790.919 192.617 795.525 Q189.561 800.109 183.751 800.109 Q177.941 800.109 174.862 795.525 Q171.807 790.919 171.807 782.192 Q171.807 773.442 174.862 768.859 Q177.941 764.252 183.751 764.252 Z" fill="#000000" fill-rule="evenodd" fill-opacity="1" /><path clip-path="url(#clip980)" d="M203.913 793.558 L208.797 793.558 L208.797 799.437 L203.913 799.437 L203.913 793.558 Z" fill="#000000" fill-rule="evenodd" fill-opacity="1" /><path clip-path="url(#clip980)" d="M228.982 767.956 Q225.371 767.956 223.543 771.521 Q221.737 775.063 221.737 782.192 Q221.737 789.299 223.543 792.863 Q225.371 796.405 228.982 796.405 Q232.617 796.405 234.422 792.863 Q236.251 789.299 236.251 782.192 Q236.251 775.063 234.422 771.521 Q232.617 767.956 228.982 767.956 M228.982 764.252 Q234.793 764.252 237.848 768.859 Q240.927 773.442 240.927 782.192 Q240.927 790.919 237.848 795.525 Q234.793 800.109 228.982 800.109 Q223.172 800.109 220.094 795.525 Q217.038 790.919 217.038 782.192 Q217.038 773.442 220.094 768.859 Q223.172 764.252 228.982 764.252 Z" fill="#000000" fill-rule="evenodd" fill-opacity="1" /><path clip-path="url(#clip980)" d="M253.172 795.502 L269.491 795.502 L269.491 799.437 L247.547 799.437 L247.547 795.502 Q250.209 792.748 254.792 788.118 Q259.399 783.465 260.579 782.123 Q262.825 779.6 263.704 777.863 Q264.607 776.104 264.607 774.414 Q264.607 771.66 262.663 769.924 Q260.741 768.188 257.64 768.188 Q255.441 768.188 252.987 768.952 Q250.556 769.715 247.779 771.266 L247.779 766.544 Q250.603 765.41 253.056 764.831 Q255.51 764.252 257.547 764.252 Q262.917 764.252 266.112 766.938 Q269.306 769.623 269.306 774.114 Q269.306 776.243 268.496 778.164 Q267.709 780.063 265.603 782.655 Q265.024 783.326 261.922 786.544 Q258.82 789.738 253.172 795.502 Z" fill="#000000" fill-rule="evenodd" fill-opacity="1" /><path clip-path="url(#clip980)" d="M279.352 764.877 L297.709 764.877 L297.709 768.813 L283.635 768.813 L283.635 777.285 Q284.653 776.938 285.672 776.776 Q286.69 776.59 287.709 776.59 Q293.496 776.59 296.876 779.762 Q300.255 782.933 300.255 788.35 Q300.255 793.928 296.783 797.03 Q293.311 800.109 286.991 800.109 Q284.815 800.109 282.547 799.738 Q280.302 799.368 277.894 798.627 L277.894 793.928 Q279.977 795.062 282.2 795.618 Q284.422 796.174 286.899 796.174 Q290.903 796.174 293.241 794.067 Q295.579 791.961 295.579 788.35 Q295.579 784.738 293.241 782.632 Q290.903 780.526 286.899 780.526 Q285.024 780.526 283.149 780.942 Q281.297 781.359 279.352 782.238 L279.352 764.877 Z" fill="#000000" fill-rule="evenodd" fill-opacity="1" /><path clip-path="url(#clip980)" d="M182.756 468.512 Q179.145 468.512 177.316 472.076 Q175.51 475.618 175.51 482.748 Q175.51 489.854 177.316 493.419 Q179.145 496.961 182.756 496.961 Q186.39 496.961 188.196 493.419 Q190.024 489.854 190.024 482.748 Q190.024 475.618 188.196 472.076 Q186.39 468.512 182.756 468.512 M182.756 464.808 Q188.566 464.808 191.621 469.414 Q194.7 473.998 194.7 482.748 Q194.7 491.474 191.621 496.081 Q188.566 500.664 182.756 500.664 Q176.946 500.664 173.867 496.081 Q170.811 491.474 170.811 482.748 Q170.811 473.998 173.867 469.414 Q176.946 464.808 182.756 464.808 Z" fill="#000000" fill-rule="evenodd" fill-opacity="1" /><path clip-path="url(#clip980)" d="M202.918 494.113 L207.802 494.113 L207.802 499.993 L202.918 499.993 L202.918 494.113 Z" fill="#000000" fill-rule="evenodd" fill-opacity="1" /><path clip-path="url(#clip980)" d="M227.987 468.512 Q224.376 468.512 222.547 472.076 Q220.742 475.618 220.742 482.748 Q220.742 489.854 222.547 493.419 Q224.376 496.961 227.987 496.961 Q231.621 496.961 233.427 493.419 Q235.255 489.854 235.255 482.748 Q235.255 475.618 233.427 472.076 Q231.621 468.512 227.987 468.512 M227.987 464.808 Q233.797 464.808 236.853 469.414 Q239.931 473.998 239.931 482.748 Q239.931 491.474 236.853 496.081 Q233.797 500.664 227.987 500.664 Q222.177 500.664 219.098 496.081 Q216.043 491.474 216.043 482.748 Q216.043 473.998 219.098 469.414 Q222.177 464.808 227.987 464.808 Z" fill="#000000" fill-rule="evenodd" fill-opacity="1" /><path clip-path="url(#clip980)" d="M248.195 465.433 L266.552 465.433 L266.552 469.368 L252.478 469.368 L252.478 477.84 Q253.496 477.493 254.515 477.331 Q255.533 477.146 256.552 477.146 Q262.339 477.146 265.718 480.317 Q269.098 483.488 269.098 488.905 Q269.098 494.484 265.626 497.586 Q262.153 500.664 255.834 500.664 Q253.658 500.664 251.39 500.294 Q249.144 499.923 246.737 499.183 L246.737 494.484 Q248.82 495.618 251.042 496.173 Q253.265 496.729 255.741 496.729 Q259.746 496.729 262.084 494.623 Q264.422 492.516 264.422 488.905 Q264.422 485.294 262.084 483.187 Q259.746 481.081 255.741 481.081 Q253.866 481.081 251.991 481.498 Q250.14 481.914 248.195 482.794 L248.195 465.433 Z" fill="#000000" fill-rule="evenodd" fill-opacity="1" /><path clip-path="url(#clip980)" d="M288.311 468.512 Q284.7 468.512 282.871 472.076 Q281.065 475.618 281.065 482.748 Q281.065 489.854 282.871 493.419 Q284.7 496.961 288.311 496.961 Q291.945 496.961 293.751 493.419 Q295.579 489.854 295.579 482.748 Q295.579 475.618 293.751 472.076 Q291.945 468.512 288.311 468.512 M288.311 464.808 Q294.121 464.808 297.176 469.414 Q300.255 473.998 300.255 482.748 Q300.255 491.474 297.176 496.081 Q294.121 500.664 288.311 500.664 Q282.501 500.664 279.422 496.081 Q276.366 491.474 276.366 482.748 Q276.366 473.998 279.422 469.414 Q282.501 464.808 288.311 464.808 Z" fill="#000000" fill-rule="evenodd" fill-opacity="1" /><path clip-path="url(#clip980)" d="M183.751 169.067 Q180.14 169.067 178.311 172.632 Q176.506 176.173 176.506 183.303 Q176.506 190.41 178.311 193.974 Q180.14 197.516 183.751 197.516 Q187.385 197.516 189.191 193.974 Q191.02 190.41 191.02 183.303 Q191.02 176.173 189.191 172.632 Q187.385 169.067 183.751 169.067 M183.751 165.363 Q189.561 165.363 192.617 169.97 Q195.695 174.553 195.695 183.303 Q195.695 192.03 192.617 196.636 Q189.561 201.22 183.751 201.22 Q177.941 201.22 174.862 196.636 Q171.807 192.03 171.807 183.303 Q171.807 174.553 174.862 169.97 Q177.941 165.363 183.751 165.363 Z" fill="#000000" fill-rule="evenodd" fill-opacity="1" /><path clip-path="url(#clip980)" d="M203.913 194.669 L208.797 194.669 L208.797 200.548 L203.913 200.548 L203.913 194.669 Z" fill="#000000" fill-rule="evenodd" fill-opacity="1" /><path clip-path="url(#clip980)" d="M228.982 169.067 Q225.371 169.067 223.543 172.632 Q221.737 176.173 221.737 183.303 Q221.737 190.41 223.543 193.974 Q225.371 197.516 228.982 197.516 Q232.617 197.516 234.422 193.974 Q236.251 190.41 236.251 183.303 Q236.251 176.173 234.422 172.632 Q232.617 169.067 228.982 169.067 M228.982 165.363 Q234.793 165.363 237.848 169.97 Q240.927 174.553 240.927 183.303 Q240.927 192.03 237.848 196.636 Q234.793 201.22 228.982 201.22 Q223.172 201.22 220.094 196.636 Q217.038 192.03 217.038 183.303 Q217.038 174.553 220.094 169.97 Q223.172 165.363 228.982 165.363 Z" fill="#000000" fill-rule="evenodd" fill-opacity="1" /><path clip-path="url(#clip980)" d="M247.964 165.988 L270.186 165.988 L270.186 167.979 L257.64 200.548 L252.755 200.548 L264.561 169.924 L247.964 169.924 L247.964 165.988 Z" fill="#000000" fill-rule="evenodd" fill-opacity="1" /><path clip-path="url(#clip980)" d="M279.352 165.988 L297.709 165.988 L297.709 169.924 L283.635 169.924 L283.635 178.396 Q284.653 178.048 285.672 177.886 Q286.69 177.701 287.709 177.701 Q293.496 177.701 296.876 180.873 Q300.255 184.044 300.255 189.46 Q300.255 195.039 296.783 198.141 Q293.311 201.22 286.991 201.22 Q284.815 201.22 282.547 200.849 Q280.302 200.479 277.894 199.738 L277.894 195.039 Q279.977 196.173 282.2 196.729 Q284.422 197.284 286.899 197.284 Q290.903 197.284 293.241 195.178 Q295.579 193.072 295.579 189.46 Q295.579 185.849 293.241 183.743 Q290.903 181.636 286.899 181.636 Q285.024 181.636 283.149 182.053 Q281.297 182.47 279.352 183.349 L279.352 165.988 Z" fill="#000000" fill-rule="evenodd" fill-opacity="1" /><path clip-path="url(#clip980)" d="M44.0232 922.599 L55.424 923.92 Q56.4546 924.016 56.7767 924.177 Q57.0665 924.338 57.0665 924.854 Q57.0665 925.627 56.2936 925.627 Q55.9715 925.627 55.102 925.498 Q53.3307 925.305 51.5271 925.305 Q49.4982 925.305 48.2421 925.691 Q46.9539 926.045 46.0199 927.076 Q45.086 928.106 44.6995 930.007 Q44.2808 931.907 44.2808 934.934 L44.2808 943.63 Q44.2808 945.755 44.6673 946.271 Q45.0537 946.754 46.8573 947.205 L63.6043 951.423 L63.6043 945.433 Q63.6043 941.246 62.3805 939.604 Q61.1567 937.961 57.2598 936.931 Q56.6479 936.77 56.4224 936.705 Q56.1648 936.609 56.0359 936.448 Q55.8749 936.255 55.8749 935.932 Q55.8749 935.643 56.0682 935.449 Q56.2292 935.256 56.4224 935.192 L56.6157 935.127 Q56.9377 935.127 57.6784 935.321 L71.9778 938.96 Q72.944 939.217 73.1695 939.378 Q73.3627 939.507 73.3627 939.958 Q73.3627 940.28 73.1373 940.506 Q72.9118 940.731 72.5576 940.731 Q72.1711 940.667 71.849 940.538 Q69.8845 940.087 68.6284 940.087 Q67.8233 940.087 67.3402 940.248 Q66.8571 940.409 66.4384 940.957 Q66.0198 941.504 65.8265 942.631 Q65.6333 943.758 65.6333 945.562 L65.6333 951.939 L82.0583 956.029 L83.572 956.319 Q84.2483 956.319 84.5059 955.965 Q84.7636 955.578 84.8924 954.193 Q85.0534 952.132 85.0534 950.779 Q85.0534 949.105 85.1178 948.911 Q85.3111 948.525 85.8264 948.525 Q86.4061 948.525 86.7281 948.783 Q87.018 949.04 87.0502 949.266 Q87.0824 949.491 87.0824 949.91 L86.8892 959.733 L87.0824 968.428 Q87.0824 969.427 86.2773 969.427 Q85.6653 969.427 85.4077 969.169 Q85.1178 968.911 85.0856 968.621 Q85.0534 968.332 85.0534 967.591 Q85.0534 965.981 84.9568 965.014 Q84.8602 964.048 84.7314 963.436 Q84.5703 962.792 84.1195 962.47 Q83.6686 962.116 83.2821 961.955 Q82.8634 961.794 81.9295 961.568 L47.0505 952.873 Q45.8589 952.551 45.4724 952.551 Q45.0537 952.551 44.7961 952.841 Q44.5385 953.098 44.4418 953.807 Q44.313 954.515 44.313 955.095 Q44.2808 955.642 44.2808 956.834 Q44.2808 957.607 44.2486 957.929 Q44.2164 958.219 44.0554 958.444 Q43.8943 958.67 43.5401 958.67 Q42.6383 958.67 42.4451 958.283 Q42.2196 957.865 42.2196 956.705 L42.2196 924.371 Q42.2196 923.082 42.5095 922.792 Q42.7671 922.47 44.0232 922.599 Z" fill="#000000" fill-rule="evenodd" fill-opacity="1" /><path clip-path="url(#clip980)" d="M44.0232 880.621 L55.424 881.941 Q56.4546 882.038 56.7767 882.199 Q57.0665 882.36 57.0665 882.875 Q57.0665 883.648 56.2936 883.648 Q55.9715 883.648 55.102 883.519 Q53.3307 883.326 51.5271 883.326 Q49.4982 883.326 48.2421 883.713 Q46.9539 884.067 46.0199 885.097 Q45.086 886.128 44.6995 888.028 Q44.2808 889.928 44.2808 892.956 L44.2808 901.651 Q44.2808 903.777 44.6673 904.292 Q45.0537 904.775 46.8573 905.226 L63.6043 909.445 L63.6043 903.455 Q63.6043 899.268 62.3805 897.626 Q61.1567 895.983 57.2598 894.952 Q56.6479 894.791 56.4224 894.727 Q56.1648 894.63 56.0359 894.469 Q55.8749 894.276 55.8749 893.954 Q55.8749 893.664 56.0682 893.471 Q56.2292 893.278 56.4224 893.213 L56.6157 893.149 Q56.9377 893.149 57.6784 893.342 L71.9778 896.981 Q72.944 897.239 73.1695 897.4 Q73.3627 897.529 73.3627 897.98 Q73.3627 898.302 73.1373 898.527 Q72.9118 898.753 72.5576 898.753 Q72.1711 898.688 71.849 898.559 Q69.8845 898.109 68.6284 898.109 Q67.8233 898.109 67.3402 898.27 Q66.8571 898.431 66.4384 898.978 Q66.0198 899.526 65.8265 900.653 Q65.6333 901.78 65.6333 903.584 L65.6333 909.96 L82.0583 914.05 L83.572 914.34 Q84.2483 914.34 84.5059 913.986 Q84.7636 913.6 84.8924 912.215 Q85.0534 910.154 85.0534 908.801 Q85.0534 907.126 85.1178 906.933 Q85.3111 906.547 85.8264 906.547 Q86.4061 906.547 86.7281 906.804 Q87.018 907.062 87.0502 907.287 Q87.0824 907.513 87.0824 907.931 L86.8892 917.754 L87.0824 926.45 Q87.0824 927.448 86.2773 927.448 Q85.6653 927.448 85.4077 927.19 Q85.1178 926.933 85.0856 926.643 Q85.0534 926.353 85.0534 925.612 Q85.0534 924.002 84.9568 923.036 Q84.8602 922.07 84.7314 921.458 Q84.5703 920.814 84.1195 920.492 Q83.6686 920.137 83.2821 919.976 Q82.8634 919.815 81.9295 919.59 L47.0505 910.894 Q45.8589 910.572 45.4724 910.572 Q45.0537 910.572 44.7961 910.862 Q44.5385 911.12 44.4418 911.828 Q44.313 912.537 44.313 913.117 Q44.2808 913.664 44.2808 914.856 Q44.2808 915.629 44.2486 915.951 Q44.2164 916.24 44.0554 916.466 Q43.8943 916.691 43.5401 916.691 Q42.6383 916.691 42.4451 916.305 Q42.2196 915.886 42.2196 914.727 L42.2196 882.392 Q42.2196 881.104 42.5095 880.814 Q42.7671 880.492 44.0232 880.621 Z" fill="#000000" fill-rule="evenodd" fill-opacity="1" /><path clip-path="url(#clip980)" d="M86.1794 849.786 Q89.4708 849.786 92.6496 851.454 Q95.8283 853.1 97.7896 855.692 Q99.7284 858.285 99.7284 860.923 Q99.7284 862.501 98.8717 863.56 Q97.9925 864.597 96.7526 865.161 Q98.2856 865.589 101.96 866.514 Q105.635 867.438 105.996 867.438 Q106.199 867.438 106.289 867.393 Q106.379 867.348 106.492 867.145 Q106.627 866.942 106.672 866.446 Q106.74 865.95 106.74 865.116 Q106.74 864.688 106.74 864.53 Q106.762 864.349 106.875 864.192 Q106.988 864.011 107.236 864.011 Q108.16 864.011 108.16 864.845 Q108.16 865.589 108.092 867.122 Q108.025 868.655 108.025 869.422 Q108.025 870.076 108.092 871.383 Q108.16 872.691 108.16 873.299 Q108.16 873.908 107.619 873.908 Q107.303 873.908 107.1 873.818 Q106.92 873.75 106.83 873.57 Q106.762 873.39 106.74 873.232 Q106.74 873.097 106.74 872.826 Q106.74 871.789 106.559 871.338 Q106.401 870.887 106.063 870.729 Q105.748 870.549 104.846 870.346 L84.2857 865.161 Q82.9105 864.845 81.9411 864.845 Q80.7237 864.845 80.2729 865.229 Q79.822 865.612 79.822 866.288 Q79.822 867.461 81.2197 868.227 Q82.6174 868.994 85.3227 869.647 Q86.0667 869.85 86.2245 869.985 Q86.3823 870.098 86.3823 870.436 Q86.3598 871 85.9089 871 Q85.7962 871 85.0747 870.82 Q84.3308 870.639 83.2487 870.301 Q82.144 869.94 81.4451 869.557 Q80.9717 869.332 80.6561 869.129 Q80.3405 868.926 79.8445 868.52 Q79.3485 868.092 79.078 867.483 Q78.8075 866.874 78.8075 866.13 Q78.8075 864.688 79.6642 863.493 Q80.5208 862.298 82.2567 861.982 Q80.7463 860.697 79.7769 859.119 Q78.8075 857.541 78.8075 855.94 Q78.8075 853.28 80.8815 851.544 Q82.9331 849.786 86.1794 849.786 M84.1504 853.122 Q82.0989 853.122 80.9717 853.912 Q79.822 854.678 79.822 856.076 Q79.822 857.812 81.5804 859.818 Q83.2487 861.802 84.8042 862.208 L93.8444 864.485 L94.5884 864.62 Q94.7236 864.62 95.1294 864.552 Q95.5127 864.462 96.1439 864.214 Q96.7751 863.944 97.3387 863.583 Q97.8798 863.2 98.2856 862.523 Q98.6914 861.824 98.6914 860.968 Q98.6914 859.593 97.474 858.105 Q96.2566 856.594 93.9571 855.467 Q92.4692 854.768 89.2679 853.957 Q86.0441 853.122 84.1504 853.122 Z" fill="#000000" fill-rule="evenodd" fill-opacity="1" /><path clip-path="url(#clip980)" d="M29.9626 873.908 Q22.1624 873.908 15.8726 871 Q13.2349 869.76 11.0256 868.024 Q8.81626 866.288 7.84686 865.138 Q6.87747 863.989 6.87747 863.673 Q6.87747 863.222 7.32835 863.2 Q7.55379 863.2 8.11739 863.808 Q15.6922 871.248 29.9626 871.225 Q44.2781 871.225 51.5599 863.989 Q52.3489 863.2 52.5969 863.2 Q53.0478 863.2 53.0478 863.673 Q53.0478 863.989 52.1235 865.093 Q51.1992 866.198 49.08 867.911 Q46.9609 869.625 44.3683 870.865 Q38.0785 873.908 29.9626 873.908 Z" fill="#000000" fill-rule="evenodd" fill-opacity="1" /><path clip-path="url(#clip980)" d="M24.3266 829.12 Q26.0625 829.12 29.895 830.067 Q33.7275 831.014 36.3426 832.164 Q42.0237 834.621 42.0237 838.859 Q42.0237 839.378 41.9786 839.896 Q41.9335 840.392 41.7307 841.136 Q41.5278 841.88 41.2121 842.489 Q40.874 843.098 40.2427 843.706 Q39.6115 844.293 38.7774 844.631 Q42.0237 846.502 42.0237 849.433 Q42.0237 852.273 40.5809 854.144 Q39.1381 855.993 36.1848 855.993 Q34.8547 855.993 32.8934 855.452 Q30.932 854.911 26.8741 853.4 Q24.7775 852.566 23.6277 852.566 Q23.1092 852.566 22.7711 852.679 Q22.4329 852.792 22.3202 853.017 Q22.1849 853.22 22.1624 853.355 Q22.1173 853.491 22.1173 853.716 Q22.1173 855.069 23.4925 856.286 Q24.8451 857.503 27.8435 858.383 Q28.4071 858.563 28.5424 858.676 Q28.6776 858.788 28.6776 859.127 Q28.6551 859.69 28.2042 859.69 Q28.0238 859.69 27.325 859.487 Q26.6036 859.284 25.544 858.811 Q24.4619 858.315 23.4925 857.639 Q22.5005 856.962 21.8017 855.903 Q21.1028 854.821 21.1028 853.581 Q21.1028 851.912 22.2075 850.853 Q23.3121 849.793 24.8902 849.793 Q25.3411 849.793 25.8371 849.906 Q26.3105 850.019 26.6261 850.131 Q26.9192 850.222 27.8435 850.582 Q31.7436 852.07 33.6148 852.544 Q35.4859 852.995 36.7935 852.995 Q37.2218 852.995 37.56 852.972 Q37.8982 852.949 38.597 852.769 Q39.2959 852.566 39.7693 852.206 Q40.2202 851.845 40.6034 851.101 Q40.9867 850.334 40.9867 849.297 Q40.9867 846.705 37.1091 845.036 Q36.8837 845.082 36.2975 845.082 Q34.99 845.082 33.2315 844.676 Q32.8257 844.563 30.2332 843.909 Q27.618 843.255 25.3411 842.692 Q23.0416 842.106 22.9063 842.038 Q22.2751 841.813 21.9369 841.317 Q21.5988 840.821 21.5988 840.325 Q21.5988 839.761 21.9369 839.378 Q22.2751 838.995 22.8612 838.995 Q22.974 838.995 23.4925 839.13 Q23.9884 839.243 24.7324 839.423 Q25.4764 839.603 25.8596 839.694 L33.6148 841.632 Q35.4183 842.128 36.9738 842.128 Q38.9352 842.128 39.9722 841.249 Q40.9867 840.37 40.9867 838.724 Q40.9867 835.636 36.9288 833.652 Q35.1703 832.75 32.4199 831.938 Q29.6696 831.104 28.4747 831.104 Q26.2203 831.104 24.552 832.772 Q24.2364 833.133 23.9884 833.291 Q23.7179 833.449 23.3121 833.449 Q22.5456 833.449 21.8242 832.727 Q21.1028 832.006 21.1028 831.149 Q21.1028 830.383 21.8693 829.752 Q22.6133 829.12 24.3266 829.12 Z" fill="#000000" fill-rule="evenodd" fill-opacity="1" /><path clip-path="url(#clip980)" d="M36.1623 807.671 Q36.3652 807.49 36.5681 807.49 Q36.7709 807.49 37.3571 807.941 Q37.9432 808.369 38.7323 809.294 Q39.5213 810.218 40.2653 811.413 Q41.0092 812.608 41.5052 814.366 Q42.0237 816.125 42.0237 817.973 Q42.0237 821.423 39.7468 823.451 Q37.4698 825.458 34.2009 825.458 Q31.0222 825.458 27.9787 823.677 Q24.9127 821.896 23.019 819.01 Q21.1028 816.125 21.1028 813.081 Q21.1028 810.669 22.23 809.159 Q23.3572 807.648 25.0706 807.648 Q26.4007 807.648 27.2122 808.415 Q28.0238 809.181 28.0238 810.218 Q28.0238 810.94 27.618 811.435 Q27.1897 811.931 26.4007 811.931 Q25.3862 811.931 24.5971 811.097 Q24.2815 810.782 24.1463 810.421 Q23.9884 810.038 23.9884 809.812 Q23.9659 809.587 23.9659 809.068 Q23.0867 809.542 22.6133 810.669 Q22.1173 811.774 22.1173 813.036 Q22.1173 814.907 23.4248 816.688 Q24.7099 818.469 26.7388 819.551 Q28.7227 820.633 31.5407 821.332 Q34.3362 822.031 35.9594 822.031 Q38.1912 822.031 39.589 820.994 Q40.9867 819.957 40.9867 817.883 Q40.9867 817.477 40.9642 817.049 Q40.9416 816.598 40.6936 815.471 Q40.4456 814.321 40.0173 813.307 Q39.589 812.292 38.6647 811.007 Q37.7178 809.7 36.4328 808.663 Q35.9594 808.302 35.9594 808.054 Q35.9594 807.851 36.1623 807.671 Z" fill="#000000" fill-rule="evenodd" fill-opacity="1" /><path clip-path="url(#clip980)" d="M52.5969 805.12 Q52.3715 805.12 51.8079 804.534 Q44.233 797.094 29.9626 797.094 Q15.6471 797.094 8.41047 804.241 Q7.57633 805.12 7.32835 805.12 Q6.87747 805.12 6.87747 804.669 Q6.87747 804.354 7.80178 803.249 Q8.72608 802.122 10.8452 800.431 Q12.9644 798.718 15.5569 797.455 Q21.8468 794.412 29.9626 794.412 Q37.7629 794.412 44.0527 797.32 Q46.6904 798.56 48.8997 800.296 Q51.109 802.032 52.0784 803.181 Q53.0478 804.331 53.0478 804.669 Q53.0478 805.12 52.5969 805.12 Z" fill="#000000" fill-rule="evenodd" fill-opacity="1" /><path clip-path="url(#clip980)" d="M69.659 718.506 Q70.0455 718.119 70.593 718.119 Q71.1405 718.119 71.527 718.506 Q71.9134 718.892 71.9134 719.44 L71.9134 760.728 Q71.9134 761.275 71.527 761.662 Q71.1405 762.048 70.593 762.048 Q70.0455 762.048 69.659 761.662 Q69.2726 761.275 69.2726 760.728 L69.2726 719.44 Q69.2726 718.892 69.659 718.506 Z" fill="#000000" fill-rule="evenodd" fill-opacity="1" /><path clip-path="url(#clip980)" d="M44.0232 646.104 L55.424 647.424 Q56.4546 647.521 56.7767 647.682 Q57.0665 647.843 57.0665 648.358 Q57.0665 649.131 56.2936 649.131 Q55.9715 649.131 55.102 649.003 Q53.3307 648.809 51.5271 648.809 Q49.4982 648.809 48.2421 649.196 Q46.9539 649.55 46.0199 650.581 Q45.086 651.611 44.6995 653.511 Q44.2808 655.412 44.2808 658.439 L44.2808 667.134 Q44.2808 669.26 44.6673 669.775 Q45.0537 670.258 46.8573 670.709 L63.6043 674.928 L63.6043 668.938 Q63.6043 664.751 62.3805 663.109 Q61.1567 661.466 57.2598 660.436 Q56.6479 660.275 56.4224 660.21 Q56.1648 660.114 56.0359 659.953 Q55.8749 659.759 55.8749 659.437 Q55.8749 659.147 56.0682 658.954 Q56.2292 658.761 56.4224 658.697 L56.6157 658.632 Q56.9377 658.632 57.6784 658.825 L71.9778 662.465 Q72.944 662.722 73.1695 662.883 Q73.3627 663.012 73.3627 663.463 Q73.3627 663.785 73.1373 664.01 Q72.9118 664.236 72.5576 664.236 Q72.1711 664.172 71.849 664.043 Q69.8845 663.592 68.6284 663.592 Q67.8233 663.592 67.3402 663.753 Q66.8571 663.914 66.4384 664.461 Q66.0198 665.009 65.8265 666.136 Q65.6333 667.263 65.6333 669.067 L65.6333 675.444 L82.0583 679.534 L83.572 679.824 Q84.2483 679.824 84.5059 679.469 Q84.7636 679.083 84.8924 677.698 Q85.0534 675.637 85.0534 674.284 Q85.0534 672.609 85.1178 672.416 Q85.3111 672.03 85.8264 672.03 Q86.4061 672.03 86.7281 672.287 Q87.018 672.545 87.0502 672.77 Q87.0824 672.996 87.0824 673.415 L86.8892 683.237 L87.0824 691.933 Q87.0824 692.931 86.2773 692.931 Q85.6653 692.931 85.4077 692.674 Q85.1178 692.416 85.0856 692.126 Q85.0534 691.836 85.0534 691.096 Q85.0534 689.485 84.9568 688.519 Q84.8602 687.553 84.7314 686.941 Q84.5703 686.297 84.1195 685.975 Q83.6686 685.621 83.2821 685.46 Q82.8634 685.299 81.9295 685.073 L47.0505 676.378 Q45.8589 676.055 45.4724 676.055 Q45.0537 676.055 44.7961 676.345 Q44.5385 676.603 44.4418 677.312 Q44.313 678.02 44.313 678.6 Q44.2808 679.147 44.2808 680.339 Q44.2808 681.112 44.2486 681.434 Q44.2164 681.724 44.0554 681.949 Q43.8943 682.175 43.5401 682.175 Q42.6383 682.175 42.4451 681.788 Q42.2196 681.369 42.2196 680.21 L42.2196 647.875 Q42.2196 646.587 42.5095 646.297 Q42.7671 645.975 44.0232 646.104 Z" fill="#000000" fill-rule="evenodd" fill-opacity="1" /><path clip-path="url(#clip980)" d="M44.0232 604.126 L55.424 605.446 Q56.4546 605.543 56.7767 605.704 Q57.0665 605.865 57.0665 606.38 Q57.0665 607.153 56.2936 607.153 Q55.9715 607.153 55.102 607.024 Q53.3307 606.831 51.5271 606.831 Q49.4982 606.831 48.2421 607.217 Q46.9539 607.572 46.0199 608.602 Q45.086 609.633 44.6995 611.533 Q44.2808 613.433 44.2808 616.46 L44.2808 625.156 Q44.2808 627.282 44.6673 627.797 Q45.0537 628.28 46.8573 628.731 L63.6043 632.95 L63.6043 626.96 Q63.6043 622.773 62.3805 621.13 Q61.1567 619.488 57.2598 618.457 Q56.6479 618.296 56.4224 618.232 Q56.1648 618.135 56.0359 617.974 Q55.8749 617.781 55.8749 617.459 Q55.8749 617.169 56.0682 616.976 Q56.2292 616.783 56.4224 616.718 L56.6157 616.654 Q56.9377 616.654 57.6784 616.847 L71.9778 620.486 Q72.944 620.744 73.1695 620.905 Q73.3627 621.034 73.3627 621.485 Q73.3627 621.807 73.1373 622.032 Q72.9118 622.257 72.5576 622.257 Q72.1711 622.193 71.849 622.064 Q69.8845 621.613 68.6284 621.613 Q67.8233 621.613 67.3402 621.774 Q66.8571 621.935 66.4384 622.483 Q66.0198 623.03 65.8265 624.158 Q65.6333 625.285 65.6333 627.088 L65.6333 633.465 L82.0583 637.555 L83.572 637.845 Q84.2483 637.845 84.5059 637.491 Q84.7636 637.104 84.8924 635.72 Q85.0534 633.658 85.0534 632.306 Q85.0534 630.631 85.1178 630.438 Q85.3111 630.051 85.8264 630.051 Q86.4061 630.051 86.7281 630.309 Q87.018 630.567 87.0502 630.792 Q87.0824 631.017 87.0824 631.436 L86.8892 641.259 L87.0824 649.955 Q87.0824 650.953 86.2773 650.953 Q85.6653 650.953 85.4077 650.695 Q85.1178 650.438 85.0856 650.148 Q85.0534 649.858 85.0534 649.117 Q85.0534 647.507 84.9568 646.541 Q84.8602 645.575 84.7314 644.963 Q84.5703 644.319 84.1195 643.996 Q83.6686 643.642 83.2821 643.481 Q82.8634 643.32 81.9295 643.095 L47.0505 634.399 Q45.8589 634.077 45.4724 634.077 Q45.0537 634.077 44.7961 634.367 Q44.5385 634.625 44.4418 635.333 Q44.313 636.042 44.313 636.621 Q44.2808 637.169 44.2808 638.36 Q44.2808 639.133 44.2486 639.455 Q44.2164 639.745 44.0554 639.971 Q43.8943 640.196 43.5401 640.196 Q42.6383 640.196 42.4451 639.81 Q42.2196 639.391 42.2196 638.232 L42.2196 605.897 Q42.2196 604.609 42.5095 604.319 Q42.7671 603.997 44.0232 604.126 Z" fill="#000000" fill-rule="evenodd" fill-opacity="1" /><path clip-path="url(#clip980)" d="M86.1794 573.291 Q89.4708 573.291 92.6496 574.959 Q95.8283 576.605 97.7896 579.197 Q99.7284 581.79 99.7284 584.428 Q99.7284 586.006 98.8717 587.065 Q97.9925 588.102 96.7526 588.666 Q98.2856 589.094 101.96 590.018 Q105.635 590.943 105.996 590.943 Q106.199 590.943 106.289 590.898 Q106.379 590.853 106.492 590.65 Q106.627 590.447 106.672 589.951 Q106.74 589.455 106.74 588.621 Q106.74 588.192 106.74 588.035 Q106.762 587.854 106.875 587.696 Q106.988 587.516 107.236 587.516 Q108.16 587.516 108.16 588.35 Q108.16 589.094 108.092 590.627 Q108.025 592.16 108.025 592.927 Q108.025 593.58 108.092 594.888 Q108.16 596.196 108.16 596.804 Q108.16 597.413 107.619 597.413 Q107.303 597.413 107.1 597.323 Q106.92 597.255 106.83 597.075 Q106.762 596.894 106.74 596.737 Q106.74 596.601 106.74 596.331 Q106.74 595.294 106.559 594.843 Q106.401 594.392 106.063 594.234 Q105.748 594.054 104.846 593.851 L84.2857 588.666 Q82.9105 588.35 81.9411 588.35 Q80.7237 588.35 80.2729 588.733 Q79.822 589.117 79.822 589.793 Q79.822 590.965 81.2197 591.732 Q82.6174 592.498 85.3227 593.152 Q86.0667 593.355 86.2245 593.49 Q86.3823 593.603 86.3823 593.941 Q86.3598 594.505 85.9089 594.505 Q85.7962 594.505 85.0747 594.324 Q84.3308 594.144 83.2487 593.806 Q82.144 593.445 81.4451 593.062 Q80.9717 592.836 80.6561 592.634 Q80.3405 592.431 79.8445 592.025 Q79.3485 591.597 79.078 590.988 Q78.8075 590.379 78.8075 589.635 Q78.8075 588.192 79.6642 586.998 Q80.5208 585.803 82.2567 585.487 Q80.7463 584.202 79.7769 582.624 Q78.8075 581.046 78.8075 579.445 Q78.8075 576.785 80.8815 575.049 Q82.9331 573.291 86.1794 573.291 M84.1504 576.627 Q82.0989 576.627 80.9717 577.416 Q79.822 578.183 79.822 579.581 Q79.822 581.316 81.5804 583.323 Q83.2487 585.307 84.8042 585.713 L93.8444 587.989 L94.5884 588.125 Q94.7236 588.125 95.1294 588.057 Q95.5127 587.967 96.1439 587.719 Q96.7751 587.448 97.3387 587.088 Q97.8798 586.704 98.2856 586.028 Q98.6914 585.329 98.6914 584.473 Q98.6914 583.097 97.474 581.61 Q96.2566 580.099 93.9571 578.972 Q92.4692 578.273 89.2679 577.461 Q86.0441 576.627 84.1504 576.627 Z" fill="#000000" fill-rule="evenodd" fill-opacity="1" /><path clip-path="url(#clip980)" d="M29.9626 597.413 Q22.1624 597.413 15.8726 594.505 Q13.2349 593.265 11.0256 591.529 Q8.81626 589.793 7.84686 588.643 Q6.87747 587.494 6.87747 587.178 Q6.87747 586.727 7.32835 586.704 Q7.55379 586.704 8.11739 587.313 Q15.6922 594.753 29.9626 594.73 Q44.2781 594.73 51.5599 587.494 Q52.3489 586.704 52.5969 586.704 Q53.0478 586.704 53.0478 587.178 Q53.0478 587.494 52.1235 588.598 Q51.1992 589.703 49.08 591.416 Q46.9609 593.13 44.3683 594.369 Q38.0785 597.413 29.9626 597.413 Z" fill="#000000" fill-rule="evenodd" fill-opacity="1" /><path clip-path="url(#clip980)" d="M24.1012 564.393 Q25.296 564.393 26.0625 565.182 Q26.829 565.949 26.829 566.941 Q26.829 567.797 26.333 568.248 Q25.8371 568.699 25.2058 568.699 Q24.3041 568.699 23.5601 568 Q22.8161 567.301 22.6583 566.287 Q22.1173 567.031 22.1173 568.226 Q22.1173 570.187 23.6277 571.923 Q24.3266 572.689 25.6116 573.524 Q26.8741 574.358 27.4151 574.515 L33.4344 575.981 Q34.1107 576.116 37.3571 576.95 Q40.5809 577.762 40.7162 577.829 Q41.3474 578.055 41.6856 578.551 Q42.0237 579.047 42.0237 579.543 Q42.0237 580.106 41.6856 580.49 Q41.3474 580.873 40.7613 580.873 Q40.6711 580.873 40.3329 580.805 Q39.9948 580.738 39.5213 580.625 Q39.0479 580.512 38.7774 580.467 L28.114 577.784 Q26.1752 577.288 25.5665 577.176 Q24.9353 577.04 24.2364 577.04 Q23.019 577.04 22.5682 577.424 Q22.1173 577.807 22.1173 578.483 Q22.1173 579.656 23.515 580.422 Q24.9127 581.189 27.618 581.842 Q28.362 582.045 28.5198 582.18 Q28.6776 582.293 28.6776 582.631 Q28.6551 583.195 28.2042 583.195 Q28.0915 583.195 27.3701 583.015 Q26.6261 582.834 25.544 582.496 Q24.4393 582.135 23.7405 581.752 Q23.267 581.527 22.9514 581.324 Q22.6358 581.121 22.1398 580.715 Q21.6439 580.309 21.3733 579.701 Q21.1028 579.092 21.1028 578.348 Q21.1028 576.725 22.0947 575.575 Q23.0867 574.403 24.6422 574.132 Q23.8306 573.569 23.1318 572.87 Q22.4104 572.171 21.7566 570.886 Q21.1028 569.601 21.1028 568.226 Q21.1028 566.512 21.982 565.453 Q22.8387 564.393 24.1012 564.393 Z" fill="#000000" fill-rule="evenodd" fill-opacity="1" /><path clip-path="url(#clip980)" d="M12.6488 551.378 Q13.6407 551.378 14.3847 552.189 Q15.1061 552.978 15.1061 553.835 Q15.1061 554.624 14.6326 555.12 Q14.1367 555.594 13.4378 555.594 Q12.5135 555.594 11.747 554.805 Q10.9805 554.016 10.9805 553.091 Q10.9805 552.325 11.4539 551.851 Q11.9273 551.378 12.6488 551.378 M34.8998 550.972 Q35.0801 550.972 35.8016 551.175 Q36.5004 551.378 37.5825 551.874 Q38.6421 552.347 39.634 553.001 Q40.626 553.655 41.3249 554.737 Q42.0237 555.796 42.0237 557.014 Q42.0237 558.66 40.9416 559.742 Q39.8595 560.801 38.2363 560.801 Q37.3571 560.801 34.5391 559.742 Q26.333 556.676 25.9949 556.563 Q24.7099 556.044 23.5826 556.044 Q23.0641 556.044 22.7485 556.157 Q22.4104 556.27 22.2976 556.495 Q22.1624 556.721 22.1398 556.856 Q22.1173 556.969 22.1173 557.194 Q22.1173 558.524 23.4699 559.764 Q24.8226 561.004 27.8435 561.861 Q28.4071 562.041 28.5424 562.154 Q28.6776 562.267 28.6776 562.605 Q28.6551 563.168 28.2042 563.168 Q28.0689 563.168 27.5504 563.011 Q27.0094 562.853 26.1978 562.56 Q25.3636 562.267 24.507 561.748 Q23.6277 561.23 22.8612 560.598 Q22.0947 559.945 21.5988 559.02 Q21.1028 558.096 21.1028 557.059 Q21.1028 555.368 22.2075 554.331 Q23.2896 553.272 24.8902 553.272 Q25.7694 553.272 27.325 553.88 Q29.3539 554.624 30.0077 554.895 L34.8547 556.698 Q36.6131 557.352 37.1542 557.555 Q37.6727 557.735 38.3039 557.893 Q38.9126 558.028 39.4762 558.028 Q40.2653 558.028 40.626 557.78 Q40.9867 557.51 40.9867 556.924 Q40.9867 555.301 39.3861 554.106 Q37.7629 552.911 35.283 552.212 Q35.2154 552.189 35.1027 552.167 Q34.5391 551.987 34.4714 551.806 Q34.4489 551.716 34.4489 551.536 Q34.4489 550.972 34.8998 550.972 Z" fill="#000000" fill-rule="evenodd" fill-opacity="1" /><path clip-path="url(#clip980)" d="M28.4747 529.112 Q31.7211 529.112 34.8998 530.758 Q38.056 532.381 40.0398 534.996 Q42.0237 537.589 42.0237 540.249 Q42.0237 542.842 40.0398 544.487 Q38.0334 546.111 34.7645 546.111 Q33.6148 546.111 32.8032 545.975 Q31.9916 545.84 30.0979 545.367 L15.0384 541.579 Q12.2204 540.925 12.1979 540.925 Q11.9273 540.925 11.7921 541.038 Q11.6343 541.128 11.5216 541.669 Q11.4088 542.21 11.4088 543.247 Q11.4088 543.676 11.3863 543.879 Q11.3637 544.059 11.251 544.217 Q11.1158 544.352 10.8452 544.352 Q10.462 544.352 10.2591 544.194 Q10.0336 544.014 9.98855 543.879 Q9.94347 543.743 9.92092 543.473 Q9.89838 543.09 9.78566 541.805 Q9.65039 540.52 9.56022 539.415 Q9.47004 538.31 9.47004 537.837 Q9.47004 537.566 9.6053 537.431 Q9.71802 537.273 9.85329 537.273 L9.96601 537.251 L23.8757 540.655 Q21.1028 537.972 21.1028 535.244 Q21.1028 532.516 23.1994 530.826 Q25.296 529.112 28.4747 529.112 M26.4457 532.449 Q24.3041 532.449 23.2219 533.26 Q22.1173 534.049 22.1173 535.357 Q22.1173 536.462 22.9514 537.905 Q23.7855 539.347 25.8145 540.88 Q26.1978 541.173 26.4232 541.286 Q26.6486 541.376 27.4151 541.579 L31.676 542.594 Q34.5842 543.338 36.3426 543.338 Q38.7323 543.338 39.8595 542.458 Q40.9867 541.579 40.9867 540.249 Q40.9867 538.851 39.7468 537.386 Q38.5068 535.921 36.2524 534.793 Q34.7645 534.095 31.5633 533.283 Q28.3395 532.449 26.4457 532.449 Z" fill="#000000" fill-rule="evenodd" fill-opacity="1" /><path clip-path="url(#clip980)" d="M52.5969 525.767 Q52.3715 525.767 51.8079 525.18 Q44.233 517.741 29.9626 517.741 Q15.6471 517.741 8.41047 524.887 Q7.57633 525.767 7.32835 525.767 Q6.87747 525.767 6.87747 525.316 Q6.87747 525 7.80178 523.895 Q8.72608 522.768 10.8452 521.077 Q12.9644 519.364 15.5569 518.102 Q21.8468 515.058 29.9626 515.058 Q37.7629 515.058 44.0527 517.966 Q46.6904 519.206 48.8997 520.942 Q51.109 522.678 52.0784 523.828 Q53.0478 524.978 53.0478 525.316 Q53.0478 525.767 52.5969 525.767 Z" fill="#000000" fill-rule="evenodd" fill-opacity="1" /><circle clip-path="url(#clip982)" cx="393.326" cy="86.1857" r="21" fill="#ff00ff" fill-rule="evenodd" fill-opacity="1" stroke="none"/>
<circle clip-path="url(#clip982)" cx="604.699" cy="622.113" r="21" fill="#ff00ff" fill-rule="evenodd" fill-opacity="1" stroke="none"/>
<circle clip-path="url(#clip982)" cx="816.072" cy="921.579" r="21" fill="#ff00ff" fill-rule="evenodd" fill-opacity="1" stroke="none"/>
<circle clip-path="url(#clip982)" cx="1027.45" cy="1080.97" r="21" fill="#ff00ff" fill-rule="evenodd" fill-opacity="1" stroke="none"/>
<circle clip-path="url(#clip982)" cx="1238.82" cy="1174.78" r="21" fill="#ff00ff" fill-rule="evenodd" fill-opacity="1" stroke="none"/>
<circle clip-path="url(#clip982)" cx="1450.19" cy="1239.87" r="21" fill="#ff00ff" fill-rule="evenodd" fill-opacity="1" stroke="none"/>
<circle clip-path="url(#clip982)" cx="1661.57" cy="1289.96" r="21" fill="#ff00ff" fill-rule="evenodd" fill-opacity="1" stroke="none"/>
<circle clip-path="url(#clip982)" cx="1872.94" cy="1329.59" r="21" fill="#ff00ff" fill-rule="evenodd" fill-opacity="1" stroke="none"/>
<circle clip-path="url(#clip982)" cx="2084.31" cy="1360.59" r="21" fill="#ff00ff" fill-rule="evenodd" fill-opacity="1" stroke="none"/>
<circle clip-path="url(#clip982)" cx="2295.69" cy="1384.24" r="21" fill="#ff00ff" fill-rule="evenodd" fill-opacity="1" stroke="none"/>
</svg>
