<?xml version="1.0" encoding="utf-8"?>
<svg xmlns="http://www.w3.org/2000/svg" xmlns:xlink="http://www.w3.org/1999/xlink" width="600" height="400" viewBox="0 0 2400 1600">
<defs>
  <clipPath id="clip360">
    <rect x="0" y="0" width="2400" height="1600"/>
  </clipPath>
</defs>
<path clip-path="url(#clip360)" d="
M0 1600 L2400 1600 L2400 0 L0 0  Z
  " fill="#ffffff" fill-rule="evenodd" fill-opacity="1"/>
<defs>
  <clipPath id="clip361">
    <rect x="480" y="0" width="1681" height="1600"/>
  </clipPath>
</defs>
<defs>
  <clipPath id="clip362">
    <rect x="215" y="123" width="2138" height="1328"/>
  </clipPath>
</defs>
<path clip-path="url(#clip360)" d="
M215.898 1450.96 L2352.76 1450.96 L2352.76 123.472 L215.898 123.472  Z
  " fill="#ffffff" fill-rule="evenodd" fill-opacity="1"/>
<polyline clip-path="url(#clip360)" style="stroke:#000000; stroke-linecap:butt; stroke-linejoin:round; stroke-width:4; stroke-opacity:1; fill:none" points="
  215.898,1450.96 2352.76,1450.96 
  "/>
<polyline clip-path="url(#clip360)" style="stroke:#000000; stroke-linecap:butt; stroke-linejoin:round; stroke-width:4; stroke-opacity:1; fill:none" points="
  276.375,1450.96 276.375,1432.06 
  "/>
<polyline clip-path="url(#clip360)" style="stroke:#000000; stroke-linecap:butt; stroke-linejoin:round; stroke-width:4; stroke-opacity:1; fill:none" points="
  612.359,1450.96 612.359,1432.06 
  "/>
<polyline clip-path="url(#clip360)" style="stroke:#000000; stroke-linecap:butt; stroke-linejoin:round; stroke-width:4; stroke-opacity:1; fill:none" points="
  948.343,1450.96 948.343,1432.06 
  "/>
<polyline clip-path="url(#clip360)" style="stroke:#000000; stroke-linecap:butt; stroke-linejoin:round; stroke-width:4; stroke-opacity:1; fill:none" points="
  1284.33,1450.96 1284.33,1432.06 
  "/>
<polyline clip-path="url(#clip360)" style="stroke:#000000; stroke-linecap:butt; stroke-linejoin:round; stroke-width:4; stroke-opacity:1; fill:none" points="
  1620.31,1450.96 1620.31,1432.06 
  "/>
<polyline clip-path="url(#clip360)" style="stroke:#000000; stroke-linecap:butt; stroke-linejoin:round; stroke-width:4; stroke-opacity:1; fill:none" points="
  1956.29,1450.96 1956.29,1432.06 
  "/>
<polyline clip-path="url(#clip360)" style="stroke:#000000; stroke-linecap:butt; stroke-linejoin:round; stroke-width:4; stroke-opacity:1; fill:none" points="
  2292.28,1450.96 2292.28,1432.06 
  "/>
<path clip-path="url(#clip360)" d="M276.375 1480.15 Q272.764 1480.15 270.936 1483.72 Q269.13 1487.26 269.13 1494.39 Q269.13 1501.49 270.936 1505.06 Q272.764 1508.6 276.375 1508.6 Q280.01 1508.6 281.815 1505.06 Q283.644 1501.49 283.644 1494.39 Q283.644 1487.26 281.815 1483.72 Q280.01 1480.15 276.375 1480.15 M276.375 1476.45 Q282.186 1476.45 285.241 1481.05 Q288.32 1485.64 288.32 1494.39 Q288.32 1503.11 285.241 1507.72 Q282.186 1512.3 276.375 1512.3 Q270.565 1512.3 267.487 1507.72 Q264.431 1503.11 264.431 1494.39 Q264.431 1485.64 267.487 1481.05 Q270.565 1476.45 276.375 1476.45 Z" fill="#000000" fill-rule="evenodd" fill-opacity="1" /><path clip-path="url(#clip360)" d="M602.741 1507.7 L610.38 1507.7 L610.38 1481.33 L602.07 1483 L602.07 1478.74 L610.334 1477.07 L615.01 1477.07 L615.01 1507.7 L622.649 1507.7 L622.649 1511.63 L602.741 1511.63 L602.741 1507.7 Z" fill="#000000" fill-rule="evenodd" fill-opacity="1" /><path clip-path="url(#clip360)" d="M942.996 1507.7 L959.315 1507.7 L959.315 1511.63 L937.371 1511.63 L937.371 1507.7 Q940.033 1504.94 944.616 1500.31 Q949.223 1495.66 950.403 1494.32 Q952.649 1491.79 953.528 1490.06 Q954.431 1488.3 954.431 1486.61 Q954.431 1483.85 952.487 1482.12 Q950.565 1480.38 947.464 1480.38 Q945.265 1480.38 942.811 1481.15 Q940.38 1481.91 937.603 1483.46 L937.603 1478.74 Q940.427 1477.6 942.88 1477.03 Q945.334 1476.45 947.371 1476.45 Q952.741 1476.45 955.936 1479.13 Q959.13 1481.82 959.13 1486.31 Q959.13 1488.44 958.32 1490.36 Q957.533 1492.26 955.427 1494.85 Q954.848 1495.52 951.746 1498.74 Q948.644 1501.93 942.996 1507.7 Z" fill="#000000" fill-rule="evenodd" fill-opacity="1" /><path clip-path="url(#clip360)" d="M1288.57 1493 Q1291.93 1493.72 1293.81 1495.98 Q1295.7 1498.25 1295.7 1501.59 Q1295.7 1506.7 1292.19 1509.5 Q1288.67 1512.3 1282.19 1512.3 Q1280.01 1512.3 1277.7 1511.86 Q1275.4 1511.45 1272.95 1510.59 L1272.95 1506.08 Q1274.89 1507.21 1277.21 1507.79 Q1279.52 1508.37 1282.05 1508.37 Q1286.45 1508.37 1288.74 1506.63 Q1291.05 1504.9 1291.05 1501.59 Q1291.05 1498.53 1288.9 1496.82 Q1286.77 1495.08 1282.95 1495.08 L1278.92 1495.08 L1278.92 1491.24 L1283.14 1491.24 Q1286.58 1491.24 1288.41 1489.87 Q1290.24 1488.48 1290.24 1485.89 Q1290.24 1483.23 1288.34 1481.82 Q1286.47 1480.38 1282.95 1480.38 Q1281.03 1480.38 1278.83 1480.8 Q1276.63 1481.22 1273.99 1482.1 L1273.99 1477.93 Q1276.65 1477.19 1278.97 1476.82 Q1281.31 1476.45 1283.37 1476.45 Q1288.69 1476.45 1291.79 1478.88 Q1294.89 1481.29 1294.89 1485.41 Q1294.89 1488.28 1293.25 1490.27 Q1291.61 1492.23 1288.57 1493 Z" fill="#000000" fill-rule="evenodd" fill-opacity="1" /><path clip-path="url(#clip360)" d="M1623.32 1481.15 L1611.51 1499.6 L1623.32 1499.6 L1623.32 1481.15 M1622.09 1477.07 L1627.97 1477.07 L1627.97 1499.6 L1632.9 1499.6 L1632.9 1503.48 L1627.97 1503.48 L1627.97 1511.63 L1623.32 1511.63 L1623.32 1503.48 L1607.72 1503.48 L1607.72 1498.97 L1622.09 1477.07 Z" fill="#000000" fill-rule="evenodd" fill-opacity="1" /><path clip-path="url(#clip360)" d="M1946.57 1477.07 L1964.93 1477.07 L1964.93 1481.01 L1950.86 1481.01 L1950.86 1489.48 Q1951.87 1489.13 1952.89 1488.97 Q1953.91 1488.79 1954.93 1488.79 Q1960.72 1488.79 1964.1 1491.96 Q1967.48 1495.13 1967.48 1500.54 Q1967.48 1506.12 1964 1509.22 Q1960.53 1512.3 1954.21 1512.3 Q1952.04 1512.3 1949.77 1511.93 Q1947.52 1511.56 1945.11 1510.82 L1945.11 1506.12 Q1947.2 1507.26 1949.42 1507.81 Q1951.64 1508.37 1954.12 1508.37 Q1958.12 1508.37 1960.46 1506.26 Q1962.8 1504.16 1962.8 1500.54 Q1962.8 1496.93 1960.46 1494.83 Q1958.12 1492.72 1954.12 1492.72 Q1952.24 1492.72 1950.37 1493.14 Q1948.52 1493.55 1946.57 1494.43 L1946.57 1477.07 Z" fill="#000000" fill-rule="evenodd" fill-opacity="1" /><path clip-path="url(#clip360)" d="M2292.68 1492.49 Q2289.54 1492.49 2287.68 1494.64 Q2285.86 1496.79 2285.86 1500.54 Q2285.86 1504.27 2287.68 1506.45 Q2289.54 1508.6 2292.68 1508.6 Q2295.83 1508.6 2297.66 1506.45 Q2299.51 1504.27 2299.51 1500.54 Q2299.51 1496.79 2297.66 1494.64 Q2295.83 1492.49 2292.68 1492.49 M2301.97 1477.84 L2301.97 1482.1 Q2300.21 1481.26 2298.4 1480.82 Q2296.62 1480.38 2294.86 1480.38 Q2290.23 1480.38 2287.78 1483.51 Q2285.35 1486.63 2285 1492.95 Q2286.36 1490.94 2288.42 1489.87 Q2290.48 1488.79 2292.96 1488.79 Q2298.17 1488.79 2301.18 1491.96 Q2304.21 1495.1 2304.21 1500.54 Q2304.21 1505.87 2301.06 1509.09 Q2297.92 1512.3 2292.68 1512.3 Q2286.69 1512.3 2283.52 1507.72 Q2280.35 1503.11 2280.35 1494.39 Q2280.35 1486.19 2284.23 1481.33 Q2288.12 1476.45 2294.67 1476.45 Q2296.43 1476.45 2298.22 1476.79 Q2300.02 1477.14 2301.97 1477.84 Z" fill="#000000" fill-rule="evenodd" fill-opacity="1" /><path clip-path="url(#clip360)" d="M1309.69 1555.28 Q1309.69 1555.54 1309.4 1556.53 Q1309.11 1557.53 1308.4 1559.08 Q1307.73 1560.62 1306.76 1562.04 Q1305.83 1563.43 1304.28 1564.46 Q1302.77 1565.46 1301.03 1565.46 Q1298.71 1565.46 1297.16 1563.91 Q1295.62 1562.36 1295.62 1560.04 Q1295.62 1558.79 1296.49 1556.41 Q1300.58 1545.52 1300.58 1541.62 Q1300.58 1537.02 1297 1537.02 Q1294.97 1537.02 1293.14 1537.85 Q1291.3 1538.69 1290.11 1539.85 Q1288.92 1541.01 1287.99 1542.33 Q1287.05 1543.65 1286.63 1544.52 Q1286.25 1545.39 1286.15 1545.78 L1282.19 1561.69 Q1281.87 1563.04 1281.64 1563.68 Q1281.42 1564.33 1280.8 1564.88 Q1280.19 1565.46 1279.23 1565.46 Q1278.42 1565.46 1277.84 1564.97 Q1277.29 1564.49 1277.29 1563.65 Q1277.29 1563.52 1277.45 1562.85 Q1277.61 1562.17 1277.84 1561.24 Q1278.07 1560.3 1278.16 1559.75 Q1279.32 1555.37 1279.48 1554.76 L1281.32 1547.1 Q1282.32 1543.3 1282.32 1541.62 Q1282.32 1537.02 1278.74 1537.02 Q1276.97 1537.02 1275.3 1537.69 Q1273.65 1538.34 1272.53 1539.24 Q1271.4 1540.14 1270.37 1541.4 Q1269.37 1542.62 1268.85 1543.46 Q1268.37 1544.26 1267.99 1545.07 L1267.15 1548.35 Q1266.95 1549.26 1266.02 1552.77 L1264.57 1558.72 Q1263.54 1563.17 1263.32 1563.59 Q1262.99 1564.49 1262.28 1564.97 Q1261.58 1565.46 1260.87 1565.46 Q1260.06 1565.46 1259.52 1564.97 Q1258.97 1564.49 1258.97 1563.65 Q1258.97 1563.52 1259.06 1563.04 Q1259.16 1562.56 1259.32 1561.88 Q1259.48 1561.2 1259.55 1560.82 L1263.38 1545.58 Q1264.09 1542.81 1264.25 1541.94 Q1264.44 1541.04 1264.44 1540.04 Q1264.44 1537.02 1262.38 1537.02 Q1260.71 1537.02 1259.61 1539.01 Q1258.52 1541.01 1257.58 1544.88 Q1257.29 1545.94 1257.1 1546.16 Q1256.94 1546.39 1256.46 1546.39 Q1255.65 1546.36 1255.65 1545.71 Q1255.65 1545.55 1255.91 1544.52 Q1256.17 1543.49 1256.65 1541.94 Q1257.16 1540.37 1257.71 1539.34 Q1258.03 1538.66 1258.32 1538.21 Q1258.61 1537.76 1259.19 1537.05 Q1259.77 1536.34 1260.64 1535.95 Q1261.51 1535.57 1262.57 1535.57 Q1264.93 1535.57 1266.66 1537.08 Q1268.44 1538.6 1268.66 1541.3 Q1272.94 1535.57 1278.94 1535.57 Q1282.32 1535.57 1284.35 1537.27 Q1286.25 1538.92 1286.47 1541.94 Q1290.92 1535.57 1297.23 1535.57 Q1300.87 1535.57 1302.83 1537.47 Q1304.8 1539.34 1304.8 1542.62 Q1304.8 1544.33 1303.93 1547.58 Q1303.06 1550.8 1302.48 1552.41 Q1301.9 1554.02 1300.77 1557.11 Q1299.58 1560.08 1299.58 1561.82 Q1299.58 1562.94 1299.97 1563.46 Q1300.35 1563.97 1301.19 1563.97 Q1302.48 1563.97 1303.6 1563.23 Q1304.73 1562.46 1305.54 1561.2 Q1306.37 1559.92 1306.92 1558.63 Q1307.47 1557.31 1307.89 1555.83 Q1308.15 1555.02 1308.27 1554.83 Q1308.44 1554.63 1308.89 1554.63 Q1309.69 1554.63 1309.69 1555.28 Z" fill="#000000" fill-rule="evenodd" fill-opacity="1" /><polyline clip-path="url(#clip360)" style="stroke:#000000; stroke-linecap:butt; stroke-linejoin:round; stroke-width:4; stroke-opacity:1; fill:none" points="
  215.898,1450.96 215.898,123.472 
  "/>
<polyline clip-path="url(#clip360)" style="stroke:#000000; stroke-linecap:butt; stroke-linejoin:round; stroke-width:4; stroke-opacity:1; fill:none" points="
  215.898,1413.39 234.796,1413.39 
  "/>
<polyline clip-path="url(#clip360)" style="stroke:#000000; stroke-linecap:butt; stroke-linejoin:round; stroke-width:4; stroke-opacity:1; fill:none" points="
  215.898,1123.01 234.796,1123.01 
  "/>
<polyline clip-path="url(#clip360)" style="stroke:#000000; stroke-linecap:butt; stroke-linejoin:round; stroke-width:4; stroke-opacity:1; fill:none" points="
  215.898,832.63 234.796,832.63 
  "/>
<polyline clip-path="url(#clip360)" style="stroke:#000000; stroke-linecap:butt; stroke-linejoin:round; stroke-width:4; stroke-opacity:1; fill:none" points="
  215.898,542.25 234.796,542.25 
  "/>
<polyline clip-path="url(#clip360)" style="stroke:#000000; stroke-linecap:butt; stroke-linejoin:round; stroke-width:4; stroke-opacity:1; fill:none" points="
  215.898,251.87 234.796,251.87 
  "/>
<path clip-path="url(#clip360)" d="M122.723 1399.19 Q119.112 1399.19 117.283 1402.75 Q115.477 1406.29 115.477 1413.42 Q115.477 1420.53 117.283 1424.1 Q119.112 1427.64 122.723 1427.64 Q126.357 1427.64 128.163 1424.1 Q129.991 1420.53 129.991 1413.42 Q129.991 1406.29 128.163 1402.75 Q126.357 1399.19 122.723 1399.19 M122.723 1395.48 Q128.533 1395.48 131.588 1400.09 Q134.667 1404.67 134.667 1413.42 Q134.667 1422.15 131.588 1426.76 Q128.533 1431.34 122.723 1431.34 Q116.913 1431.34 113.834 1426.76 Q110.778 1422.15 110.778 1413.42 Q110.778 1404.67 113.834 1400.09 Q116.913 1395.48 122.723 1395.48 Z" fill="#000000" fill-rule="evenodd" fill-opacity="1" /><path clip-path="url(#clip360)" d="M142.885 1424.79 L147.769 1424.79 L147.769 1430.67 L142.885 1430.67 L142.885 1424.79 Z" fill="#000000" fill-rule="evenodd" fill-opacity="1" /><path clip-path="url(#clip360)" d="M167.954 1399.19 Q164.343 1399.19 162.514 1402.75 Q160.709 1406.29 160.709 1413.42 Q160.709 1420.53 162.514 1424.1 Q164.343 1427.64 167.954 1427.64 Q171.588 1427.64 173.394 1424.1 Q175.222 1420.53 175.222 1413.42 Q175.222 1406.29 173.394 1402.75 Q171.588 1399.19 167.954 1399.19 M167.954 1395.48 Q173.764 1395.48 176.82 1400.09 Q179.898 1404.67 179.898 1413.42 Q179.898 1422.15 176.82 1426.76 Q173.764 1431.34 167.954 1431.34 Q162.144 1431.34 159.065 1426.76 Q156.01 1422.15 156.01 1413.42 Q156.01 1404.67 159.065 1400.09 Q162.144 1395.48 167.954 1395.48 Z" fill="#000000" fill-rule="evenodd" fill-opacity="1" /><path clip-path="url(#clip360)" d="M124.32 1108.81 Q120.709 1108.81 118.88 1112.37 Q117.075 1115.92 117.075 1123.04 Q117.075 1130.15 118.88 1133.72 Q120.709 1137.26 124.32 1137.26 Q127.954 1137.26 129.76 1133.72 Q131.588 1130.15 131.588 1123.04 Q131.588 1115.92 129.76 1112.37 Q127.954 1108.81 124.32 1108.81 M124.32 1105.1 Q130.13 1105.1 133.186 1109.71 Q136.264 1114.29 136.264 1123.04 Q136.264 1131.77 133.186 1136.38 Q130.13 1140.96 124.32 1140.96 Q118.51 1140.96 115.431 1136.38 Q112.376 1131.77 112.376 1123.04 Q112.376 1114.29 115.431 1109.71 Q118.51 1105.1 124.32 1105.1 Z" fill="#000000" fill-rule="evenodd" fill-opacity="1" /><path clip-path="url(#clip360)" d="M144.482 1134.41 L149.366 1134.41 L149.366 1140.29 L144.482 1140.29 L144.482 1134.41 Z" fill="#000000" fill-rule="evenodd" fill-opacity="1" /><path clip-path="url(#clip360)" d="M163.579 1136.35 L179.898 1136.35 L179.898 1140.29 L157.954 1140.29 L157.954 1136.35 Q160.616 1133.6 165.199 1128.97 Q169.806 1124.32 170.986 1122.98 Q173.232 1120.45 174.111 1118.72 Q175.014 1116.96 175.014 1115.27 Q175.014 1112.51 173.07 1110.78 Q171.148 1109.04 168.047 1109.04 Q165.847 1109.04 163.394 1109.8 Q160.963 1110.57 158.186 1112.12 L158.186 1107.4 Q161.01 1106.26 163.463 1105.68 Q165.917 1105.1 167.954 1105.1 Q173.324 1105.1 176.519 1107.79 Q179.713 1110.48 179.713 1114.97 Q179.713 1117.1 178.903 1119.02 Q178.116 1120.92 176.009 1123.51 Q175.431 1124.18 172.329 1127.4 Q169.227 1130.59 163.579 1136.35 Z" fill="#000000" fill-rule="evenodd" fill-opacity="1" /><path clip-path="url(#clip360)" d="M122.237 818.429 Q118.626 818.429 116.797 821.993 Q114.991 825.535 114.991 832.665 Q114.991 839.771 116.797 843.336 Q118.626 846.878 122.237 846.878 Q125.871 846.878 127.676 843.336 Q129.505 839.771 129.505 832.665 Q129.505 825.535 127.676 821.993 Q125.871 818.429 122.237 818.429 M122.237 814.725 Q128.047 814.725 131.102 819.331 Q134.181 823.915 134.181 832.665 Q134.181 841.392 131.102 845.998 Q128.047 850.581 122.237 850.581 Q116.426 850.581 113.348 845.998 Q110.292 841.392 110.292 832.665 Q110.292 823.915 113.348 819.331 Q116.426 814.725 122.237 814.725 Z" fill="#000000" fill-rule="evenodd" fill-opacity="1" /><path clip-path="url(#clip360)" d="M142.399 844.03 L147.283 844.03 L147.283 849.91 L142.399 849.91 L142.399 844.03 Z" fill="#000000" fill-rule="evenodd" fill-opacity="1" /><path clip-path="url(#clip360)" d="M170.315 819.424 L158.51 837.873 L170.315 837.873 L170.315 819.424 M169.088 815.35 L174.968 815.35 L174.968 837.873 L179.898 837.873 L179.898 841.762 L174.968 841.762 L174.968 849.91 L170.315 849.91 L170.315 841.762 L154.713 841.762 L154.713 837.248 L169.088 815.35 Z" fill="#000000" fill-rule="evenodd" fill-opacity="1" /><path clip-path="url(#clip360)" d="M122.561 528.049 Q118.95 528.049 117.121 531.614 Q115.315 535.155 115.315 542.285 Q115.315 549.391 117.121 552.956 Q118.95 556.498 122.561 556.498 Q126.195 556.498 128 552.956 Q129.829 549.391 129.829 542.285 Q129.829 535.155 128 531.614 Q126.195 528.049 122.561 528.049 M122.561 524.345 Q128.371 524.345 131.426 528.952 Q134.505 533.535 134.505 542.285 Q134.505 551.012 131.426 555.618 Q128.371 560.201 122.561 560.201 Q116.751 560.201 113.672 555.618 Q110.616 551.012 110.616 542.285 Q110.616 533.535 113.672 528.952 Q116.751 524.345 122.561 524.345 Z" fill="#000000" fill-rule="evenodd" fill-opacity="1" /><path clip-path="url(#clip360)" d="M142.723 553.65 L147.607 553.65 L147.607 559.53 L142.723 559.53 L142.723 553.65 Z" fill="#000000" fill-rule="evenodd" fill-opacity="1" /><path clip-path="url(#clip360)" d="M168.371 540.387 Q165.223 540.387 163.371 542.539 Q161.542 544.692 161.542 548.442 Q161.542 552.169 163.371 554.345 Q165.223 556.498 168.371 556.498 Q171.519 556.498 173.347 554.345 Q175.199 552.169 175.199 548.442 Q175.199 544.692 173.347 542.539 Q171.519 540.387 168.371 540.387 M177.653 525.734 L177.653 529.993 Q175.894 529.16 174.088 528.72 Q172.306 528.28 170.547 528.28 Q165.917 528.28 163.463 531.405 Q161.033 534.53 160.685 540.85 Q162.051 538.836 164.111 537.771 Q166.172 536.683 168.648 536.683 Q173.857 536.683 176.866 539.854 Q179.898 543.002 179.898 548.442 Q179.898 553.766 176.75 556.984 Q173.602 560.201 168.371 560.201 Q162.375 560.201 159.204 555.618 Q156.033 551.012 156.033 542.285 Q156.033 534.09 159.922 529.229 Q163.81 524.345 170.361 524.345 Q172.121 524.345 173.903 524.692 Q175.709 525.04 177.653 525.734 Z" fill="#000000" fill-rule="evenodd" fill-opacity="1" /><path clip-path="url(#clip360)" d="M122.815 237.669 Q119.204 237.669 117.376 241.234 Q115.57 244.775 115.57 251.905 Q115.57 259.011 117.376 262.576 Q119.204 266.118 122.815 266.118 Q126.45 266.118 128.255 262.576 Q130.084 259.011 130.084 251.905 Q130.084 244.775 128.255 241.234 Q126.45 237.669 122.815 237.669 M122.815 233.965 Q128.625 233.965 131.681 238.572 Q134.76 243.155 134.76 251.905 Q134.76 260.632 131.681 265.238 Q128.625 269.821 122.815 269.821 Q117.005 269.821 113.926 265.238 Q110.871 260.632 110.871 251.905 Q110.871 243.155 113.926 238.572 Q117.005 233.965 122.815 233.965 Z" fill="#000000" fill-rule="evenodd" fill-opacity="1" /><path clip-path="url(#clip360)" d="M142.977 263.271 L147.861 263.271 L147.861 269.15 L142.977 269.15 L142.977 263.271 Z" fill="#000000" fill-rule="evenodd" fill-opacity="1" /><path clip-path="url(#clip360)" d="M168.047 252.738 Q164.713 252.738 162.792 254.521 Q160.894 256.303 160.894 259.428 Q160.894 262.553 162.792 264.335 Q164.713 266.118 168.047 266.118 Q171.38 266.118 173.301 264.335 Q175.222 262.53 175.222 259.428 Q175.222 256.303 173.301 254.521 Q171.403 252.738 168.047 252.738 M163.371 250.747 Q160.361 250.007 158.672 247.947 Q157.005 245.886 157.005 242.923 Q157.005 238.78 159.945 236.373 Q162.908 233.965 168.047 233.965 Q173.209 233.965 176.148 236.373 Q179.088 238.78 179.088 242.923 Q179.088 245.886 177.398 247.947 Q175.732 250.007 172.746 250.747 Q176.125 251.535 178 253.826 Q179.898 256.118 179.898 259.428 Q179.898 264.451 176.82 267.136 Q173.764 269.821 168.047 269.821 Q162.329 269.821 159.25 267.136 Q156.195 264.451 156.195 259.428 Q156.195 256.118 158.093 253.826 Q159.991 251.535 163.371 250.747 M161.658 243.363 Q161.658 246.048 163.324 247.553 Q165.014 249.058 168.047 249.058 Q171.056 249.058 172.746 247.553 Q174.459 246.048 174.459 243.363 Q174.459 240.678 172.746 239.173 Q171.056 237.669 168.047 237.669 Q165.014 237.669 163.324 239.173 Q161.658 240.678 161.658 243.363 Z" fill="#000000" fill-rule="evenodd" fill-opacity="1" /><path clip-path="url(#clip360)" d="M29.3925 819.977 Q32.9996 819.977 36.3168 822.65 Q39.634 825.291 41.663 829.606 Q43.6597 833.89 43.6597 838.495 L43.6597 849.703 L60.1491 853.793 Q60.2458 853.825 60.6644 853.922 Q61.0509 854.018 61.2763 854.018 Q62.0815 854.018 62.2747 853.02 Q62.468 851.989 62.468 849.703 Q62.468 848.221 62.7256 847.996 Q62.8866 847.867 63.1765 847.867 Q63.6274 847.867 63.9494 847.996 Q64.2393 848.125 64.3359 848.382 Q64.4325 848.608 64.4647 848.769 Q64.4969 848.93 64.4969 849.187 Q64.4969 849.864 64.4325 851.313 Q64.3681 852.73 64.3681 853.471 L64.3037 857.69 L64.4969 866.063 Q64.4969 867.062 63.6918 867.062 Q63.0799 867.062 62.8222 866.804 Q62.5324 866.546 62.5002 866.257 Q62.468 865.967 62.468 865.226 Q62.468 863.616 62.3713 862.649 Q62.2747 861.683 62.1459 861.071 Q61.9849 860.427 61.534 860.105 Q61.0831 859.751 60.6966 859.59 Q60.278 859.429 59.344 859.203 L23.9175 850.379 Q22.8547 850.121 22.6937 850.121 Q22.1462 850.121 21.953 850.443 Q21.7275 850.733 21.6309 851.571 Q21.5021 853.181 21.5021 854.405 Q21.5021 855.21 21.4699 855.532 Q21.4377 855.822 21.2767 856.079 Q21.0834 856.305 20.697 856.305 Q20.085 856.305 19.8274 856.047 Q19.5375 855.757 19.5053 855.435 Q19.4409 855.113 19.4409 854.34 L19.4409 832.956 Q19.4409 826.804 22.3717 823.391 Q25.3024 819.977 29.3925 819.977 M27.8145 826.096 Q21.5021 826.096 21.5021 835.081 L21.5021 841.394 Q21.5021 843.487 21.8886 844.002 Q22.2428 844.518 24.0142 844.968 L41.9528 849.445 L41.9528 840.138 Q41.9528 833.89 38.4424 829.993 Q36.8321 828.221 33.4827 827.159 Q30.1333 826.096 27.8145 826.096 Z" fill="#000000" fill-rule="evenodd" fill-opacity="1" /><path clip-path="url(#clip360)" d="M48.0075 812.739 Q36.8643 812.739 27.8789 808.584 Q24.1108 806.813 20.9546 804.333 Q17.7984 801.853 16.4136 800.211 Q15.0287 798.568 15.0287 798.118 Q15.0287 797.473 15.6728 797.441 Q15.9949 797.441 16.8 798.311 Q27.6212 808.939 48.0075 808.907 Q68.4582 808.907 78.8607 798.568 Q79.9879 797.441 80.3422 797.441 Q80.9863 797.441 80.9863 798.118 Q80.9863 798.568 79.6659 800.147 Q78.3454 801.725 75.3181 804.172 Q72.2907 806.62 68.5871 808.391 Q59.6016 812.739 48.0075 812.739 Z" fill="#000000" fill-rule="evenodd" fill-opacity="1" /><path clip-path="url(#clip360)" d="M55.0606 738.386 Q55.3183 738.386 56.3166 738.676 Q57.315 738.966 58.8609 739.674 Q60.4068 740.351 61.8238 741.317 Q63.2087 742.251 64.2393 743.797 Q65.2377 745.31 65.2377 747.05 Q65.2377 749.368 63.6918 750.914 Q62.1459 752.46 59.8271 752.46 Q58.571 752.46 56.1878 751.591 Q45.3022 747.5 41.4053 747.5 Q36.7999 747.5 36.7999 751.075 Q36.7999 753.104 37.6372 754.94 Q38.4746 756.776 39.634 757.967 Q40.7934 759.159 42.1139 760.093 Q43.4343 761.027 44.3039 761.446 Q45.1734 761.832 45.5599 761.929 L61.4696 765.89 Q62.8222 766.212 63.4663 766.437 Q64.1105 766.663 64.658 767.275 Q65.2377 767.887 65.2377 768.853 Q65.2377 769.658 64.7546 770.238 Q64.2715 770.785 63.4341 770.785 Q63.3053 770.785 62.629 770.624 Q61.9527 770.463 61.0187 770.238 Q60.0847 770.012 59.5372 769.916 Q55.1572 768.756 54.5453 768.595 L46.8803 766.76 Q43.08 765.761 41.4053 765.761 Q36.7999 765.761 36.7999 769.336 Q36.7999 771.107 37.4762 772.782 Q38.1203 774.425 39.0221 775.552 Q39.9239 776.679 41.1799 777.71 Q42.4037 778.708 43.2411 779.223 Q44.0462 779.706 44.8514 780.093 L48.1364 780.93 Q49.0381 781.123 52.5486 782.057 L58.5066 783.507 Q62.951 784.537 63.3697 784.763 Q64.2715 785.085 64.7546 785.793 Q65.2377 786.502 65.2377 787.21 Q65.2377 788.015 64.7546 788.563 Q64.2715 789.11 63.4341 789.11 Q63.3053 789.11 62.8222 789.014 Q62.3391 788.917 61.6628 788.756 Q60.9865 788.595 60.6 788.531 L45.3666 784.698 Q42.5969 783.99 41.7274 783.829 Q40.8256 783.635 39.8272 783.635 Q36.7999 783.635 36.7999 785.697 Q36.7999 787.371 38.7967 788.466 Q40.7934 789.561 44.6581 790.495 Q45.7209 790.785 45.9464 790.978 Q46.1718 791.139 46.1718 791.622 Q46.1396 792.428 45.4955 792.428 Q45.3344 792.428 44.3039 792.17 Q43.2733 791.912 41.7274 791.429 Q40.1493 790.914 39.1187 790.366 Q38.4424 790.044 37.9915 789.755 Q37.5406 789.465 36.8321 788.885 Q36.1236 788.305 35.7371 787.436 Q35.3506 786.566 35.3506 785.503 Q35.3506 783.152 36.8643 781.413 Q38.378 779.642 41.0833 779.416 Q35.3506 775.133 35.3506 769.143 Q35.3506 765.761 37.0575 763.732 Q38.7 761.832 41.7274 761.607 Q35.3506 757.162 35.3506 750.85 Q35.3506 747.211 37.2508 745.246 Q39.1187 743.281 42.4037 743.281 Q44.1106 743.281 47.3634 744.151 Q50.584 745.021 52.1943 745.6 Q53.8046 746.18 56.8963 747.307 Q59.8593 748.499 61.5984 748.499 Q62.7256 748.499 63.2409 748.112 Q63.7562 747.726 63.7562 746.889 Q63.7562 745.6 63.0155 744.473 Q62.2425 743.346 60.9865 742.541 Q59.6983 741.703 58.41 741.156 Q57.0896 740.608 55.6081 740.19 Q54.803 739.932 54.6097 739.803 Q54.4165 739.642 54.4165 739.191 Q54.4165 738.386 55.0606 738.386 Z" fill="#000000" fill-rule="evenodd" fill-opacity="1" /><path clip-path="url(#clip360)" d="M80.3422 732.698 Q80.0202 732.698 79.215 731.861 Q68.3938 721.233 48.0075 721.233 Q27.5568 721.233 17.2187 731.442 Q16.0271 732.698 15.6728 732.698 Q15.0287 732.698 15.0287 732.054 Q15.0287 731.603 16.3492 730.025 Q17.6696 728.415 20.697 725.999 Q23.7243 723.552 27.428 721.748 Q36.4134 717.4 48.0075 717.4 Q59.1508 717.4 68.1362 721.555 Q71.9043 723.326 75.0605 725.806 Q78.2166 728.286 79.6015 729.928 Q80.9863 731.571 80.9863 732.054 Q80.9863 732.698 80.3422 732.698 Z" fill="#000000" fill-rule="evenodd" fill-opacity="1" /><path clip-path="url(#clip360)" d="M349.338 35.9153 Q352.133 30.8922 356.022 28.5022 Q359.911 26.1121 365.177 26.1121 Q372.266 26.1121 376.114 31.0947 Q379.963 36.0368 379.963 45.1919 L379.963 72.576 L372.469 72.576 L372.469 45.4349 Q372.469 38.913 370.16 35.7533 Q367.851 32.5936 363.111 32.5936 Q357.318 32.5936 353.956 36.4419 Q350.594 40.2903 350.594 46.9338 L350.594 72.576 L343.1 72.576 L343.1 45.4349 Q343.1 38.8725 340.791 35.7533 Q338.482 32.5936 333.661 32.5936 Q327.949 32.5936 324.587 36.4824 Q321.225 40.3308 321.225 46.9338 L321.225 72.576 L313.73 72.576 L313.73 27.2059 L321.225 27.2059 L321.225 34.2544 Q323.777 30.082 327.342 28.0971 Q330.906 26.1121 335.808 26.1121 Q340.75 26.1121 344.193 28.6237 Q347.677 31.1352 349.338 35.9153 Z" fill="#000000" fill-rule="evenodd" fill-opacity="1" /><path clip-path="url(#clip360)" d="M423.834 44.2197 Q426.467 45.1109 428.938 48.0275 Q431.45 50.9442 433.961 56.0483 L442.266 72.576 L433.475 72.576 L425.738 57.061 Q422.74 50.9847 419.905 48.9997 Q417.11 47.0148 412.248 47.0148 L403.336 47.0148 L403.336 72.576 L395.154 72.576 L395.154 12.096 L413.626 12.096 Q423.996 12.096 429.1 16.4305 Q434.204 20.7649 434.204 29.5149 Q434.204 35.2267 431.531 38.994 Q428.898 42.7613 423.834 44.2197 M403.336 18.8205 L403.336 40.2903 L413.626 40.2903 Q419.54 40.2903 422.538 37.5762 Q425.576 34.8216 425.576 29.5149 Q425.576 24.2082 422.538 21.5346 Q419.54 18.8205 413.626 18.8205 L403.336 18.8205 Z" fill="#000000" fill-rule="evenodd" fill-opacity="1" /><path clip-path="url(#clip360)" d="M452.798 12.096 L463.816 12.096 L490.633 62.6918 L490.633 12.096 L498.573 12.096 L498.573 72.576 L487.555 72.576 L460.738 21.9802 L460.738 72.576 L452.798 72.576 L452.798 12.096 Z" fill="#000000" fill-rule="evenodd" fill-opacity="1" /><path clip-path="url(#clip360)" d="M535.072 20.1573 L523.972 50.2555 L546.212 50.2555 L535.072 20.1573 M530.454 12.096 L539.73 12.096 L562.78 72.576 L554.273 72.576 L548.764 57.061 L521.501 57.061 L515.992 72.576 L507.364 72.576 L530.454 12.096 Z" fill="#000000" fill-rule="evenodd" fill-opacity="1" /><path clip-path="url(#clip360)" d="M643.272 16.7545 L643.272 25.383 Q639.14 21.5346 634.441 19.6307 Q629.782 17.7268 624.516 17.7268 Q614.146 17.7268 608.636 24.0867 Q603.127 30.4061 603.127 42.3968 Q603.127 54.3469 608.636 60.7069 Q614.146 67.0263 624.516 67.0263 Q629.782 67.0263 634.441 65.1223 Q639.14 63.2184 643.272 59.3701 L643.272 67.9175 Q638.978 70.8341 634.157 72.2924 Q629.377 73.7508 624.03 73.7508 Q610.297 73.7508 602.398 65.3654 Q594.499 56.9395 594.499 42.3968 Q594.499 27.8135 602.398 19.4281 Q610.297 11.0023 624.03 11.0023 Q629.458 11.0023 634.238 12.4606 Q639.059 13.8784 643.272 16.7545 Z" fill="#000000" fill-rule="evenodd" fill-opacity="1" /><path clip-path="url(#clip360)" d="M673.167 32.4315 Q667.172 32.4315 663.688 37.1306 Q660.204 41.7891 660.204 49.9314 Q660.204 58.0738 663.648 62.7728 Q667.131 67.4314 673.167 67.4314 Q679.122 67.4314 682.606 62.7323 Q686.09 58.0333 686.09 49.9314 Q686.09 41.8701 682.606 37.1711 Q679.122 32.4315 673.167 32.4315 M673.167 26.1121 Q682.889 26.1121 688.439 32.4315 Q693.989 38.7509 693.989 49.9314 Q693.989 61.0714 688.439 67.4314 Q682.889 73.7508 673.167 73.7508 Q663.405 73.7508 657.855 67.4314 Q652.346 61.0714 652.346 49.9314 Q652.346 38.7509 657.855 32.4315 Q663.405 26.1121 673.167 26.1121 Z" fill="#000000" fill-rule="evenodd" fill-opacity="1" /><path clip-path="url(#clip360)" d="M713.555 65.7705 L713.555 89.8329 L706.061 89.8329 L706.061 27.2059 L713.555 27.2059 L713.555 34.0924 Q715.904 30.0415 719.469 28.0971 Q723.074 26.1121 728.057 26.1121 Q736.321 26.1121 741.465 32.6746 Q746.651 39.2371 746.651 49.9314 Q746.651 60.6258 741.465 67.1883 Q736.321 73.7508 728.057 73.7508 Q723.074 73.7508 719.469 71.8063 Q715.904 69.8214 713.555 65.7705 M738.913 49.9314 Q738.913 41.7081 735.511 37.0496 Q732.148 32.3505 726.234 32.3505 Q720.32 32.3505 716.917 37.0496 Q713.555 41.7081 713.555 49.9314 Q713.555 58.1548 716.917 62.8538 Q720.32 67.5124 726.234 67.5124 Q732.148 67.5124 735.511 62.8538 Q738.913 58.1548 738.913 49.9314 Z" fill="#000000" fill-rule="evenodd" fill-opacity="1" /><path clip-path="url(#clip360)" d="M777.883 76.7889 Q774.723 84.8907 771.726 87.3618 Q768.728 89.8329 763.705 89.8329 L757.75 89.8329 L757.75 83.5945 L762.125 83.5945 Q765.204 83.5945 766.905 82.1361 Q768.607 80.6778 770.672 75.2496 L772.009 71.8468 L753.659 27.2059 L761.558 27.2059 L775.736 62.6918 L789.914 27.2059 L797.814 27.2059 L777.883 76.7889 Z" fill="#000000" fill-rule="evenodd" fill-opacity="1" /><path clip-path="url(#clip360)" d="M834.798 12.096 L845.817 12.096 L872.634 62.6918 L872.634 12.096 L880.574 12.096 L880.574 72.576 L869.555 72.576 L842.738 21.9802 L842.738 72.576 L834.798 72.576 L834.798 12.096 Z" fill="#000000" fill-rule="evenodd" fill-opacity="1" /><path clip-path="url(#clip360)" d="M895.764 54.671 L895.764 27.2059 L903.218 27.2059 L903.218 54.3874 Q903.218 60.8284 905.73 64.0691 Q908.241 67.2693 913.264 67.2693 Q919.3 67.2693 922.784 63.421 Q926.308 59.5726 926.308 52.9291 L926.308 27.2059 L933.762 27.2059 L933.762 72.576 L926.308 72.576 L926.308 65.6084 Q923.594 69.7404 919.989 71.7658 Q916.424 73.7508 911.684 73.7508 Q903.866 73.7508 899.815 68.8897 Q895.764 64.0286 895.764 54.671 M914.52 26.1121 L914.52 26.1121 Z" fill="#000000" fill-rule="evenodd" fill-opacity="1" /><path clip-path="url(#clip360)" d="M984.439 35.9153 Q987.234 30.8922 991.123 28.5022 Q995.012 26.1121 1000.28 26.1121 Q1007.37 26.1121 1011.22 31.0947 Q1015.06 36.0368 1015.06 45.1919 L1015.06 72.576 L1007.57 72.576 L1007.57 45.4349 Q1007.57 38.913 1005.26 35.7533 Q1002.95 32.5936 998.212 32.5936 Q992.419 32.5936 989.057 36.4419 Q985.694 40.2903 985.694 46.9338 L985.694 72.576 L978.2 72.576 L978.2 45.4349 Q978.2 38.8725 975.891 35.7533 Q973.582 32.5936 968.762 32.5936 Q963.05 32.5936 959.688 36.4824 Q956.325 40.3308 956.325 46.9338 L956.325 72.576 L948.831 72.576 L948.831 27.2059 L956.325 27.2059 L956.325 34.2544 Q958.877 30.082 962.442 28.0971 Q966.007 26.1121 970.909 26.1121 Q975.851 26.1121 979.294 28.6237 Q982.778 31.1352 984.439 35.9153 Z" fill="#000000" fill-rule="evenodd" fill-opacity="1" /><path clip-path="url(#clip360)" d="M1062.5 49.9314 Q1062.5 41.7081 1059.1 37.0496 Q1055.73 32.3505 1049.82 32.3505 Q1043.91 32.3505 1040.5 37.0496 Q1037.14 41.7081 1037.14 49.9314 Q1037.14 58.1548 1040.5 62.8538 Q1043.91 67.5124 1049.82 67.5124 Q1055.73 67.5124 1059.1 62.8538 Q1062.5 58.1548 1062.5 49.9314 M1037.14 34.0924 Q1039.49 30.0415 1043.06 28.0971 Q1046.66 26.1121 1051.64 26.1121 Q1059.91 26.1121 1065.05 32.6746 Q1070.24 39.2371 1070.24 49.9314 Q1070.24 60.6258 1065.05 67.1883 Q1059.91 73.7508 1051.64 73.7508 Q1046.66 73.7508 1043.06 71.8063 Q1039.49 69.8214 1037.14 65.7705 L1037.14 72.576 L1029.65 72.576 L1029.65 9.54393 L1037.14 9.54393 L1037.14 34.0924 Z" fill="#000000" fill-rule="evenodd" fill-opacity="1" /><path clip-path="url(#clip360)" d="M1121.4 48.0275 L1121.4 51.6733 L1087.13 51.6733 Q1087.62 59.3701 1091.75 63.421 Q1095.92 67.4314 1103.33 67.4314 Q1107.63 67.4314 1111.64 66.3781 Q1115.69 65.3249 1119.66 63.2184 L1119.66 70.267 Q1115.65 71.9684 1111.43 72.8596 Q1107.22 73.7508 1102.89 73.7508 Q1092.03 73.7508 1085.67 67.4314 Q1079.35 61.1119 1079.35 50.3365 Q1079.35 39.1965 1085.35 32.6746 Q1091.38 26.1121 1101.59 26.1121 Q1110.75 26.1121 1116.05 32.0264 Q1121.4 37.9003 1121.4 48.0275 M1113.95 45.84 Q1113.87 39.7232 1110.5 36.0774 Q1107.18 32.4315 1101.67 32.4315 Q1095.43 32.4315 1091.67 35.9558 Q1087.94 39.4801 1087.37 45.8805 L1113.95 45.84 Z" fill="#000000" fill-rule="evenodd" fill-opacity="1" /><path clip-path="url(#clip360)" d="M1159.92 34.1734 Q1158.67 33.4443 1157.17 33.1202 Q1155.71 32.7556 1153.93 32.7556 Q1147.61 32.7556 1144.21 36.8875 Q1140.84 40.9789 1140.84 48.6757 L1140.84 72.576 L1133.35 72.576 L1133.35 27.2059 L1140.84 27.2059 L1140.84 34.2544 Q1143.19 30.1225 1146.96 28.1376 Q1150.73 26.1121 1156.12 26.1121 Q1156.89 26.1121 1157.82 26.2337 Q1158.75 26.3147 1159.88 26.5172 L1159.92 34.1734 Z" fill="#000000" fill-rule="evenodd" fill-opacity="1" /><path clip-path="url(#clip360)" d="M1217.08 9.54393 L1217.08 15.7418 L1209.95 15.7418 Q1205.94 15.7418 1204.36 17.3622 Q1202.82 18.9825 1202.82 23.1955 L1202.82 27.2059 L1215.1 27.2059 L1215.1 32.9987 L1202.82 32.9987 L1202.82 72.576 L1195.33 72.576 L1195.33 32.9987 L1188.2 32.9987 L1188.2 27.2059 L1195.33 27.2059 L1195.33 24.0462 Q1195.33 16.471 1198.85 13.0277 Q1202.38 9.54393 1210.03 9.54393 L1217.08 9.54393 Z" fill="#000000" fill-rule="evenodd" fill-opacity="1" /><path clip-path="url(#clip360)" d="M1240.9 32.4315 Q1234.91 32.4315 1231.42 37.1306 Q1227.94 41.7891 1227.94 49.9314 Q1227.94 58.0738 1231.38 62.7728 Q1234.87 67.4314 1240.9 67.4314 Q1246.86 67.4314 1250.34 62.7323 Q1253.82 58.0333 1253.82 49.9314 Q1253.82 41.8701 1250.34 37.1711 Q1246.86 32.4315 1240.9 32.4315 M1240.9 26.1121 Q1250.62 26.1121 1256.17 32.4315 Q1261.72 38.7509 1261.72 49.9314 Q1261.72 61.0714 1256.17 67.4314 Q1250.62 73.7508 1240.9 73.7508 Q1231.14 73.7508 1225.59 67.4314 Q1220.08 61.0714 1220.08 49.9314 Q1220.08 38.7509 1225.59 32.4315 Q1231.14 26.1121 1240.9 26.1121 Z" fill="#000000" fill-rule="evenodd" fill-opacity="1" /><path clip-path="url(#clip360)" d="M1300.37 34.1734 Q1299.11 33.4443 1297.61 33.1202 Q1296.16 32.7556 1294.37 32.7556 Q1288.05 32.7556 1284.65 36.8875 Q1281.29 40.9789 1281.29 48.6757 L1281.29 72.576 L1273.79 72.576 L1273.79 27.2059 L1281.29 27.2059 L1281.29 34.2544 Q1283.64 30.1225 1287.41 28.1376 Q1291.17 26.1121 1296.56 26.1121 Q1297.33 26.1121 1298.26 26.2337 Q1299.19 26.3147 1300.33 26.5172 L1300.37 34.1734 Z" fill="#000000" fill-rule="evenodd" fill-opacity="1" /><path clip-path="url(#clip360)" d="M1371.14 14.0809 L1371.14 22.0612 Q1366.48 19.8332 1362.35 18.7395 Q1358.22 17.6457 1354.37 17.6457 Q1347.68 17.6457 1344.04 20.2383 Q1340.43 22.8309 1340.43 27.611 Q1340.43 31.6214 1342.82 33.6873 Q1345.25 35.7128 1351.98 36.9686 L1356.92 37.9813 Q1366.07 39.7232 1370.41 44.1387 Q1374.78 48.5136 1374.78 55.8863 Q1374.78 64.6767 1368.87 69.2137 Q1363 73.7508 1351.61 73.7508 Q1347.32 73.7508 1342.46 72.7785 Q1337.64 71.8063 1332.45 69.9024 L1332.45 61.4765 Q1337.43 64.2716 1342.21 65.6895 Q1346.99 67.1073 1351.61 67.1073 Q1358.62 67.1073 1362.43 64.3527 Q1366.24 61.598 1366.24 56.4939 Q1366.24 52.0379 1363.48 49.5264 Q1360.77 47.0148 1354.53 45.759 L1349.55 44.7868 Q1340.39 42.9639 1336.3 39.075 Q1332.21 35.1862 1332.21 28.2591 Q1332.21 20.2383 1337.84 15.6203 Q1343.51 11.0023 1353.44 11.0023 Q1357.69 11.0023 1362.1 11.7719 Q1366.52 12.5416 1371.14 14.0809 Z" fill="#000000" fill-rule="evenodd" fill-opacity="1" /><path clip-path="url(#clip360)" d="M1406.1 76.7889 Q1402.94 84.8907 1399.94 87.3618 Q1396.94 89.8329 1391.92 89.8329 L1385.96 89.8329 L1385.96 83.5945 L1390.34 83.5945 Q1393.42 83.5945 1395.12 82.1361 Q1396.82 80.6778 1398.89 75.2496 L1400.22 71.8468 L1381.87 27.2059 L1389.77 27.2059 L1403.95 62.6918 L1418.13 27.2059 L1426.03 27.2059 L1406.1 76.7889 Z" fill="#000000" fill-rule="evenodd" fill-opacity="1" /><path clip-path="url(#clip360)" d="M1465.24 28.5427 L1465.24 35.5912 Q1462.08 33.9709 1458.68 33.1607 Q1455.28 32.3505 1451.63 32.3505 Q1446.08 32.3505 1443.28 34.0519 Q1440.53 35.7533 1440.53 39.156 Q1440.53 41.7486 1442.51 43.2475 Q1444.5 44.7058 1450.5 46.0426 L1453.05 46.6097 Q1460.99 48.3111 1464.31 51.4303 Q1467.67 54.509 1467.67 60.0587 Q1467.67 66.3781 1462.65 70.0644 Q1457.67 73.7508 1448.92 73.7508 Q1445.27 73.7508 1441.3 73.0216 Q1437.37 72.3329 1433 70.9151 L1433 63.2184 Q1437.13 65.3654 1441.14 66.4591 Q1445.15 67.5124 1449.08 67.5124 Q1454.34 67.5124 1457.18 65.73 Q1460.01 63.9071 1460.01 60.6258 Q1460.01 57.5877 1457.95 55.9673 Q1455.92 54.3469 1449 52.8481 L1446.4 52.2405 Q1439.48 50.7821 1436.4 47.7845 Q1433.32 44.7463 1433.32 39.4801 Q1433.32 33.0797 1437.86 29.5959 Q1442.39 26.1121 1450.74 26.1121 Q1454.87 26.1121 1458.52 26.7198 Q1462.16 27.3274 1465.24 28.5427 Z" fill="#000000" fill-rule="evenodd" fill-opacity="1" /><path clip-path="url(#clip360)" d="M1486.91 14.324 L1486.91 27.2059 L1502.27 27.2059 L1502.27 32.9987 L1486.91 32.9987 L1486.91 57.6282 Q1486.91 63.1779 1488.41 64.7578 Q1489.95 66.3376 1494.61 66.3376 L1502.27 66.3376 L1502.27 72.576 L1494.61 72.576 Q1485.98 72.576 1482.7 69.3758 Q1479.42 66.1351 1479.42 57.6282 L1479.42 32.9987 L1473.95 32.9987 L1473.95 27.2059 L1479.42 27.2059 L1479.42 14.324 L1486.91 14.324 Z" fill="#000000" fill-rule="evenodd" fill-opacity="1" /><path clip-path="url(#clip360)" d="M1550.88 48.0275 L1550.88 51.6733 L1516.61 51.6733 Q1517.09 59.3701 1521.22 63.421 Q1525.4 67.4314 1532.81 67.4314 Q1537.1 67.4314 1541.11 66.3781 Q1545.16 65.3249 1549.13 63.2184 L1549.13 70.267 Q1545.12 71.9684 1540.91 72.8596 Q1536.7 73.7508 1532.36 73.7508 Q1521.51 73.7508 1515.15 67.4314 Q1508.83 61.1119 1508.83 50.3365 Q1508.83 39.1965 1514.82 32.6746 Q1520.86 26.1121 1531.07 26.1121 Q1540.22 26.1121 1545.53 32.0264 Q1550.88 37.9003 1550.88 48.0275 M1543.42 45.84 Q1543.34 39.7232 1539.98 36.0774 Q1536.66 32.4315 1531.15 32.4315 Q1524.91 32.4315 1521.14 35.9558 Q1517.42 39.4801 1516.85 45.8805 L1543.42 45.84 Z" fill="#000000" fill-rule="evenodd" fill-opacity="1" /><path clip-path="url(#clip360)" d="M1598.43 35.9153 Q1601.23 30.8922 1605.12 28.5022 Q1609.01 26.1121 1614.27 26.1121 Q1621.36 26.1121 1625.21 31.0947 Q1629.06 36.0368 1629.06 45.1919 L1629.06 72.576 L1621.56 72.576 L1621.56 45.4349 Q1621.56 38.913 1619.26 35.7533 Q1616.95 32.5936 1612.21 32.5936 Q1606.41 32.5936 1603.05 36.4419 Q1599.69 40.2903 1599.69 46.9338 L1599.69 72.576 L1592.2 72.576 L1592.2 45.4349 Q1592.2 38.8725 1589.89 35.7533 Q1587.58 32.5936 1582.76 32.5936 Q1577.05 32.5936 1573.68 36.4824 Q1570.32 40.3308 1570.32 46.9338 L1570.32 72.576 L1562.83 72.576 L1562.83 27.2059 L1570.32 27.2059 L1570.32 34.2544 Q1572.87 30.082 1576.44 28.0971 Q1580 26.1121 1584.9 26.1121 Q1589.85 26.1121 1593.29 28.6237 Q1596.77 31.1352 1598.43 35.9153 Z" fill="#000000" fill-rule="evenodd" fill-opacity="1" /><path clip-path="url(#clip360)" d="M1665.96 27.2059 L1673.42 27.2059 L1682.73 62.6108 L1692.01 27.2059 L1700.8 27.2059 L1710.12 62.6108 L1719.39 27.2059 L1726.85 27.2059 L1714.98 72.576 L1706.19 72.576 L1696.43 35.3887 L1686.62 72.576 L1677.83 72.576 L1665.96 27.2059 Z" fill="#000000" fill-rule="evenodd" fill-opacity="1" /><path clip-path="url(#clip360)" d="M1738.15 27.2059 L1745.6 27.2059 L1745.6 72.576 L1738.15 72.576 L1738.15 27.2059 M1738.15 9.54393 L1745.6 9.54393 L1745.6 18.9825 L1738.15 18.9825 L1738.15 9.54393 Z" fill="#000000" fill-rule="evenodd" fill-opacity="1" /><path clip-path="url(#clip360)" d="M1768.57 14.324 L1768.57 27.2059 L1783.93 27.2059 L1783.93 32.9987 L1768.57 32.9987 L1768.57 57.6282 Q1768.57 63.1779 1770.07 64.7578 Q1771.61 66.3376 1776.27 66.3376 L1783.93 66.3376 L1783.93 72.576 L1776.27 72.576 Q1767.64 72.576 1764.36 69.3758 Q1761.08 66.1351 1761.08 57.6282 L1761.08 32.9987 L1755.61 32.9987 L1755.61 27.2059 L1761.08 27.2059 L1761.08 14.324 L1768.57 14.324 Z" fill="#000000" fill-rule="evenodd" fill-opacity="1" /><path clip-path="url(#clip360)" d="M1831.44 45.1919 L1831.44 72.576 L1823.99 72.576 L1823.99 45.4349 Q1823.99 38.994 1821.48 35.7938 Q1818.97 32.5936 1813.94 32.5936 Q1807.91 32.5936 1804.42 36.4419 Q1800.94 40.2903 1800.94 46.9338 L1800.94 72.576 L1793.44 72.576 L1793.44 9.54393 L1800.94 9.54393 L1800.94 34.2544 Q1803.61 30.163 1807.22 28.1376 Q1810.86 26.1121 1815.6 26.1121 Q1823.42 26.1121 1827.43 30.9732 Q1831.44 35.7938 1831.44 45.1919 Z" fill="#000000" fill-rule="evenodd" fill-opacity="1" /><path clip-path="url(#clip360)" d="M1875.15 65.6895 L1888.52 65.6895 L1888.52 19.5497 L1873.98 22.4663 L1873.98 15.0127 L1888.44 12.096 L1896.62 12.096 L1896.62 65.6895 L1909.99 65.6895 L1909.99 72.576 L1875.15 72.576 L1875.15 65.6895 Z" fill="#000000" fill-rule="evenodd" fill-opacity="1" /><path clip-path="url(#clip360)" d="M1944.02 17.4837 Q1937.7 17.4837 1934.5 23.7221 Q1931.34 29.92 1931.34 42.3968 Q1931.34 54.833 1934.5 61.0714 Q1937.7 67.2693 1944.02 67.2693 Q1950.38 67.2693 1953.54 61.0714 Q1956.74 54.833 1956.74 42.3968 Q1956.74 29.92 1953.54 23.7221 Q1950.38 17.4837 1944.02 17.4837 M1944.02 11.0023 Q1954.18 11.0023 1959.53 19.0636 Q1964.92 27.0843 1964.92 42.3968 Q1964.92 57.6687 1959.53 65.73 Q1954.18 73.7508 1944.02 73.7508 Q1933.85 73.7508 1928.46 65.73 Q1923.11 57.6687 1923.11 42.3968 Q1923.11 27.0843 1928.46 19.0636 Q1933.85 11.0023 1944.02 11.0023 Z" fill="#000000" fill-rule="evenodd" fill-opacity="1" /><path clip-path="url(#clip360)" d="M2046.18 63.9476 L2046.18 47.7034 L2032.81 47.7034 L2032.81 40.9789 L2054.28 40.9789 L2054.28 66.9452 Q2049.54 70.3075 2043.83 72.0494 Q2038.12 73.7508 2031.64 73.7508 Q2017.46 73.7508 2009.44 65.4869 Q2001.46 57.1826 2001.46 42.3968 Q2001.46 27.5705 2009.44 19.3066 Q2017.46 11.0023 2031.64 11.0023 Q2037.55 11.0023 2042.86 12.4606 Q2048.21 13.9189 2052.7 16.7545 L2052.7 25.464 Q2048.17 21.6156 2043.06 19.6712 Q2037.96 17.7268 2032.33 17.7268 Q2021.23 17.7268 2015.64 23.9246 Q2010.09 30.1225 2010.09 42.3968 Q2010.09 54.6305 2015.64 60.8284 Q2021.23 67.0263 2032.33 67.0263 Q2036.66 67.0263 2040.06 66.2971 Q2043.47 65.5274 2046.18 63.9476 Z" fill="#000000" fill-rule="evenodd" fill-opacity="1" /><path clip-path="url(#clip360)" d="M2107.71 48.0275 L2107.71 51.6733 L2073.44 51.6733 Q2073.93 59.3701 2078.06 63.421 Q2082.23 67.4314 2089.65 67.4314 Q2093.94 67.4314 2097.95 66.3781 Q2102 65.3249 2105.97 63.2184 L2105.97 70.267 Q2101.96 71.9684 2097.75 72.8596 Q2093.54 73.7508 2089.2 73.7508 Q2078.34 73.7508 2071.98 67.4314 Q2065.67 61.1119 2065.67 50.3365 Q2065.67 39.1965 2071.66 32.6746 Q2077.7 26.1121 2087.9 26.1121 Q2097.06 26.1121 2102.37 32.0264 Q2107.71 37.9003 2107.71 48.0275 M2100.26 45.84 Q2100.18 39.7232 2096.82 36.0774 Q2093.5 32.4315 2087.99 32.4315 Q2081.75 32.4315 2077.98 35.9558 Q2074.25 39.4801 2073.69 45.8805 L2100.26 45.84 Z" fill="#000000" fill-rule="evenodd" fill-opacity="1" /><path clip-path="url(#clip360)" d="M2157.66 45.1919 L2157.66 72.576 L2150.21 72.576 L2150.21 45.4349 Q2150.21 38.994 2147.7 35.7938 Q2145.18 32.5936 2140.16 32.5936 Q2134.13 32.5936 2130.64 36.4419 Q2127.16 40.2903 2127.16 46.9338 L2127.16 72.576 L2119.66 72.576 L2119.66 27.2059 L2127.16 27.2059 L2127.16 34.2544 Q2129.83 30.163 2133.44 28.1376 Q2137.08 26.1121 2141.82 26.1121 Q2149.64 26.1121 2153.65 30.9732 Q2157.66 35.7938 2157.66 45.1919 Z" fill="#000000" fill-rule="evenodd" fill-opacity="1" /><path clip-path="url(#clip360)" d="M2211.34 48.0275 L2211.34 51.6733 L2177.07 51.6733 Q2177.55 59.3701 2181.68 63.421 Q2185.86 67.4314 2193.27 67.4314 Q2197.56 67.4314 2201.57 66.3781 Q2205.62 65.3249 2209.59 63.2184 L2209.59 70.267 Q2205.58 71.9684 2201.37 72.8596 Q2197.16 73.7508 2192.82 73.7508 Q2181.97 73.7508 2175.61 67.4314 Q2169.29 61.1119 2169.29 50.3365 Q2169.29 39.1965 2175.28 32.6746 Q2181.32 26.1121 2191.53 26.1121 Q2200.68 26.1121 2205.99 32.0264 Q2211.34 37.9003 2211.34 48.0275 M2203.88 45.84 Q2203.8 39.7232 2200.44 36.0774 Q2197.12 32.4315 2191.61 32.4315 Q2185.37 32.4315 2181.6 35.9558 Q2177.88 39.4801 2177.31 45.8805 L2203.88 45.84 Z" fill="#000000" fill-rule="evenodd" fill-opacity="1" /><path clip-path="url(#clip360)" d="M2252.49 28.5427 L2252.49 35.5912 Q2249.33 33.9709 2245.93 33.1607 Q2242.53 32.3505 2238.88 32.3505 Q2233.33 32.3505 2230.54 34.0519 Q2227.78 35.7533 2227.78 39.156 Q2227.78 41.7486 2229.77 43.2475 Q2231.75 44.7058 2237.75 46.0426 L2240.3 46.6097 Q2248.24 48.3111 2251.56 51.4303 Q2254.92 54.509 2254.92 60.0587 Q2254.92 66.3781 2249.9 70.0644 Q2244.92 73.7508 2236.17 73.7508 Q2232.52 73.7508 2228.55 73.0216 Q2224.62 72.3329 2220.25 70.9151 L2220.25 63.2184 Q2224.38 65.3654 2228.39 66.4591 Q2232.4 67.5124 2236.33 67.5124 Q2241.6 67.5124 2244.43 65.73 Q2247.27 63.9071 2247.27 60.6258 Q2247.27 57.5877 2245.2 55.9673 Q2243.18 54.3469 2236.25 52.8481 L2233.66 52.2405 Q2226.73 50.7821 2223.65 47.7845 Q2220.57 44.7463 2220.57 39.4801 Q2220.57 33.0797 2225.11 29.5959 Q2229.65 26.1121 2237.99 26.1121 Q2242.12 26.1121 2245.77 26.7198 Q2249.41 27.3274 2252.49 28.5427 Z" fill="#000000" fill-rule="evenodd" fill-opacity="1" /><polyline clip-path="url(#clip362)" style="stroke:#009fe3; stroke-linecap:butt; stroke-linejoin:round; stroke-width:20; stroke-opacity:0.996078; fill:none" points="
  276.375,1413.39 276.375,161.65 612.359,161.65 612.359,1227.6 948.343,1227.6 948.343,1399.75 1284.33,1399.75 1284.33,1412.69 1620.31,1412.69 1620.31,1413.37 
  1956.29,1413.37 1956.29,1413.39 2292.28,1413.39 2292.28,1413.39 
  "/>
<circle clip-path="url(#clip362)" cx="276.375" cy="161.043" r="21" fill="#ff00ff" fill-rule="evenodd" fill-opacity="1" stroke="none"/>
<circle clip-path="url(#clip362)" cx="612.359" cy="1228.28" r="21" fill="#ff00ff" fill-rule="evenodd" fill-opacity="1" stroke="none"/>
<circle clip-path="url(#clip362)" cx="948.343" cy="1399.66" r="21" fill="#ff00ff" fill-rule="evenodd" fill-opacity="1" stroke="none"/>
<circle clip-path="url(#clip362)" cx="1284.33" cy="1412.71" r="21" fill="#ff00ff" fill-rule="evenodd" fill-opacity="1" stroke="none"/>
<circle clip-path="url(#clip362)" cx="1620.31" cy="1413.36" r="21" fill="#ff00ff" fill-rule="evenodd" fill-opacity="1" stroke="none"/>
<circle clip-path="url(#clip362)" cx="1956.29" cy="1413.39" r="21" fill="#ff00ff" fill-rule="evenodd" fill-opacity="1" stroke="none"/>
<path clip-path="url(#clip360)" d="
M1291.05 323.242 L2281.53 323.242 L2281.53 167.722 L1291.05 167.722  Z
  " fill="#ffffff" fill-rule="evenodd" fill-opacity="1"/>
<polyline clip-path="url(#clip360)" style="stroke:#000000; stroke-linecap:butt; stroke-linejoin:round; stroke-width:4; stroke-opacity:1; fill:none" points="
  1291.05,323.242 2281.53,323.242 2281.53,167.722 1291.05,167.722 1291.05,323.242 
  "/>
<polyline clip-path="url(#clip360)" style="stroke:#009fe3; stroke-linecap:butt; stroke-linejoin:round; stroke-width:4; stroke-opacity:0.996078; fill:none" points="
  1314.79,219.562 1457.25,219.562 
  "/>
<path clip-path="url(#clip360)" d="M1503.24 203.416 L1503.24 207.976 Q1500.57 206.703 1498.21 206.078 Q1495.85 205.453 1493.65 205.453 Q1489.83 205.453 1487.75 206.934 Q1485.69 208.416 1485.69 211.147 Q1485.69 213.439 1487.05 214.62 Q1488.44 215.777 1492.29 216.495 L1495.11 217.073 Q1500.34 218.069 1502.82 220.592 Q1505.32 223.092 1505.32 227.305 Q1505.32 232.328 1501.94 234.92 Q1498.58 237.513 1492.08 237.513 Q1489.62 237.513 1486.85 236.957 Q1484.09 236.402 1481.13 235.314 L1481.13 230.499 Q1483.98 232.096 1486.71 232.907 Q1489.44 233.717 1492.08 233.717 Q1496.08 233.717 1498.26 232.143 Q1500.43 230.569 1500.43 227.652 Q1500.43 225.106 1498.86 223.671 Q1497.31 222.235 1493.74 221.518 L1490.9 220.962 Q1485.67 219.921 1483.33 217.698 Q1480.99 215.476 1480.99 211.518 Q1480.99 206.934 1484.21 204.296 Q1487.45 201.657 1493.12 201.657 Q1495.55 201.657 1498.07 202.097 Q1500.6 202.536 1503.24 203.416 Z" fill="#000000" fill-rule="evenodd" fill-opacity="1" /><path clip-path="url(#clip360)" d="M1516.64 203.555 L1516.64 210.916 L1525.41 210.916 L1525.41 214.226 L1516.64 214.226 L1516.64 228.3 Q1516.64 231.471 1517.49 232.374 Q1518.37 233.277 1521.04 233.277 L1525.41 233.277 L1525.41 236.842 L1521.04 236.842 Q1516.11 236.842 1514.23 235.013 Q1512.36 233.161 1512.36 228.3 L1512.36 214.226 L1509.23 214.226 L1509.23 210.916 L1512.36 210.916 L1512.36 203.555 L1516.64 203.555 Z" fill="#000000" fill-rule="evenodd" fill-opacity="1" /><path clip-path="url(#clip360)" d="M1541.06 213.902 Q1537.63 213.902 1535.64 216.587 Q1533.65 219.249 1533.65 223.902 Q1533.65 228.555 1535.62 231.24 Q1537.61 233.902 1541.06 233.902 Q1544.46 233.902 1546.45 231.217 Q1548.44 228.532 1548.44 223.902 Q1548.44 219.296 1546.45 216.61 Q1544.46 213.902 1541.06 213.902 M1541.06 210.291 Q1546.61 210.291 1549.79 213.902 Q1552.96 217.513 1552.96 223.902 Q1552.96 230.268 1549.79 233.902 Q1546.61 237.513 1541.06 237.513 Q1535.48 237.513 1532.31 233.902 Q1529.16 230.268 1529.16 223.902 Q1529.16 217.513 1532.31 213.902 Q1535.48 210.291 1541.06 210.291 Z" fill="#000000" fill-rule="evenodd" fill-opacity="1" /><path clip-path="url(#clip360)" d="M1578.67 211.911 L1578.67 215.893 Q1576.87 214.897 1575.04 214.411 Q1573.23 213.902 1571.38 213.902 Q1567.24 213.902 1564.95 216.541 Q1562.66 219.157 1562.66 223.902 Q1562.66 228.647 1564.95 231.286 Q1567.24 233.902 1571.38 233.902 Q1573.23 233.902 1575.04 233.416 Q1576.87 232.907 1578.67 231.911 L1578.67 235.846 Q1576.89 236.68 1574.97 237.096 Q1573.07 237.513 1570.92 237.513 Q1565.06 237.513 1561.61 233.832 Q1558.17 230.152 1558.17 223.902 Q1558.17 217.559 1561.64 213.925 Q1565.13 210.291 1571.2 210.291 Q1573.17 210.291 1575.04 210.708 Q1576.92 211.101 1578.67 211.911 Z" fill="#000000" fill-rule="evenodd" fill-opacity="1" /><path clip-path="url(#clip360)" d="M1607.63 221.194 L1607.63 236.842 L1603.37 236.842 L1603.37 221.333 Q1603.37 217.652 1601.94 215.823 Q1600.5 213.995 1597.63 213.995 Q1594.18 213.995 1592.19 216.194 Q1590.2 218.393 1590.2 222.189 L1590.2 236.842 L1585.92 236.842 L1585.92 200.823 L1590.2 200.823 L1590.2 214.944 Q1591.73 212.606 1593.79 211.448 Q1595.87 210.291 1598.58 210.291 Q1603.05 210.291 1605.34 213.069 Q1607.63 215.823 1607.63 221.194 Z" fill="#000000" fill-rule="evenodd" fill-opacity="1" /><path clip-path="url(#clip360)" d="M1627.91 223.809 Q1622.75 223.809 1620.76 224.99 Q1618.77 226.17 1618.77 229.018 Q1618.77 231.286 1620.25 232.629 Q1621.75 233.948 1624.32 233.948 Q1627.86 233.948 1629.99 231.448 Q1632.15 228.925 1632.15 224.758 L1632.15 223.809 L1627.91 223.809 M1636.41 222.05 L1636.41 236.842 L1632.15 236.842 L1632.15 232.907 Q1630.69 235.268 1628.51 236.402 Q1626.34 237.513 1623.19 237.513 Q1619.21 237.513 1616.85 235.291 Q1614.51 233.045 1614.51 229.295 Q1614.51 224.92 1617.42 222.698 Q1620.36 220.476 1626.17 220.476 L1632.15 220.476 L1632.15 220.059 Q1632.15 217.12 1630.2 215.522 Q1628.28 213.902 1624.79 213.902 Q1622.56 213.902 1620.46 214.434 Q1618.35 214.967 1616.41 216.032 L1616.41 212.096 Q1618.74 211.194 1620.94 210.754 Q1623.14 210.291 1625.23 210.291 Q1630.85 210.291 1633.63 213.208 Q1636.41 216.124 1636.41 222.05 Z" fill="#000000" fill-rule="evenodd" fill-opacity="1" /><path clip-path="url(#clip360)" d="M1661.71 211.68 L1661.71 215.708 Q1659.9 214.782 1657.96 214.319 Q1656.01 213.856 1653.93 213.856 Q1650.76 213.856 1649.16 214.828 Q1647.59 215.8 1647.59 217.745 Q1647.59 219.226 1648.72 220.083 Q1649.85 220.916 1653.28 221.68 L1654.74 222.004 Q1659.28 222.976 1661.17 224.758 Q1663.1 226.518 1663.1 229.689 Q1663.1 233.3 1660.23 235.407 Q1657.38 237.513 1652.38 237.513 Q1650.29 237.513 1648.03 237.096 Q1645.78 236.703 1643.28 235.893 L1643.28 231.495 Q1645.64 232.721 1647.93 233.346 Q1650.23 233.948 1652.47 233.948 Q1655.48 233.948 1657.1 232.93 Q1658.72 231.888 1658.72 230.013 Q1658.72 228.277 1657.54 227.351 Q1656.38 226.425 1652.42 225.569 L1650.94 225.221 Q1646.98 224.388 1645.23 222.675 Q1643.47 220.939 1643.47 217.93 Q1643.47 214.272 1646.06 212.282 Q1648.65 210.291 1653.42 210.291 Q1655.78 210.291 1657.86 210.638 Q1659.95 210.985 1661.71 211.68 Z" fill="#000000" fill-rule="evenodd" fill-opacity="1" /><path clip-path="url(#clip360)" d="M1674.09 203.555 L1674.09 210.916 L1682.86 210.916 L1682.86 214.226 L1674.09 214.226 L1674.09 228.3 Q1674.09 231.471 1674.95 232.374 Q1675.83 233.277 1678.49 233.277 L1682.86 233.277 L1682.86 236.842 L1678.49 236.842 Q1673.56 236.842 1671.68 235.013 Q1669.81 233.161 1669.81 228.3 L1669.81 214.226 L1666.68 214.226 L1666.68 210.916 L1669.81 210.916 L1669.81 203.555 L1674.09 203.555 Z" fill="#000000" fill-rule="evenodd" fill-opacity="1" /><path clip-path="url(#clip360)" d="M1688.47 210.916 L1692.73 210.916 L1692.73 236.842 L1688.47 236.842 L1688.47 210.916 M1688.47 200.823 L1692.73 200.823 L1692.73 206.217 L1688.47 206.217 L1688.47 200.823 Z" fill="#000000" fill-rule="evenodd" fill-opacity="1" /><path clip-path="url(#clip360)" d="M1720.29 211.911 L1720.29 215.893 Q1718.49 214.897 1716.66 214.411 Q1714.85 213.902 1713 213.902 Q1708.86 213.902 1706.57 216.541 Q1704.28 219.157 1704.28 223.902 Q1704.28 228.647 1706.57 231.286 Q1708.86 233.902 1713 233.902 Q1714.85 233.902 1716.66 233.416 Q1718.49 232.907 1720.29 231.911 L1720.29 235.846 Q1718.51 236.68 1716.59 237.096 Q1714.69 237.513 1712.54 237.513 Q1706.68 237.513 1703.23 233.832 Q1699.79 230.152 1699.79 223.902 Q1699.79 217.559 1703.26 213.925 Q1706.75 210.291 1712.82 210.291 Q1714.79 210.291 1716.66 210.708 Q1718.54 211.101 1720.29 211.911 Z" fill="#000000" fill-rule="evenodd" fill-opacity="1" /><path clip-path="url(#clip360)" d="M1763.67 203.416 L1763.67 207.976 Q1761.01 206.703 1758.65 206.078 Q1756.29 205.453 1754.09 205.453 Q1750.27 205.453 1748.19 206.934 Q1746.13 208.416 1746.13 211.147 Q1746.13 213.439 1747.49 214.62 Q1748.88 215.777 1752.72 216.495 L1755.55 217.073 Q1760.78 218.069 1763.26 220.592 Q1765.76 223.092 1765.76 227.305 Q1765.76 232.328 1762.38 234.92 Q1759.02 237.513 1752.52 237.513 Q1750.06 237.513 1747.28 236.957 Q1744.53 236.402 1741.57 235.314 L1741.57 230.499 Q1744.41 232.096 1747.15 232.907 Q1749.88 233.717 1752.52 233.717 Q1756.52 233.717 1758.7 232.143 Q1760.87 230.569 1760.87 227.652 Q1760.87 225.106 1759.3 223.671 Q1757.75 222.235 1754.18 221.518 L1751.34 220.962 Q1746.1 219.921 1743.77 217.698 Q1741.43 215.476 1741.43 211.518 Q1741.43 206.934 1744.65 204.296 Q1747.89 201.657 1753.56 201.657 Q1755.99 201.657 1758.51 202.097 Q1761.03 202.536 1763.67 203.416 Z" fill="#000000" fill-rule="evenodd" fill-opacity="1" /><path clip-path="url(#clip360)" d="M1772.86 210.916 L1777.12 210.916 L1777.12 236.842 L1772.86 236.842 L1772.86 210.916 M1772.86 200.823 L1777.12 200.823 L1777.12 206.217 L1772.86 206.217 L1772.86 200.823 Z" fill="#000000" fill-rule="evenodd" fill-opacity="1" /><path clip-path="url(#clip360)" d="M1806.22 215.893 Q1807.82 213.022 1810.04 211.657 Q1812.26 210.291 1815.27 210.291 Q1819.32 210.291 1821.52 213.138 Q1823.72 215.962 1823.72 221.194 L1823.72 236.842 L1819.44 236.842 L1819.44 221.333 Q1819.44 217.606 1818.12 215.8 Q1816.8 213.995 1814.09 213.995 Q1810.78 213.995 1808.86 216.194 Q1806.94 218.393 1806.94 222.189 L1806.94 236.842 L1802.66 236.842 L1802.66 221.333 Q1802.66 217.583 1801.34 215.8 Q1800.02 213.995 1797.26 213.995 Q1794 213.995 1792.08 216.217 Q1790.16 218.416 1790.16 222.189 L1790.16 236.842 L1785.87 236.842 L1785.87 210.916 L1790.16 210.916 L1790.16 214.944 Q1791.61 212.559 1793.65 211.425 Q1795.69 210.291 1798.49 210.291 Q1801.31 210.291 1803.28 211.726 Q1805.27 213.161 1806.22 215.893 Z" fill="#000000" fill-rule="evenodd" fill-opacity="1" /><path clip-path="url(#clip360)" d="M1831.78 226.61 L1831.78 210.916 L1836.03 210.916 L1836.03 226.448 Q1836.03 230.129 1837.47 231.981 Q1838.9 233.809 1841.78 233.809 Q1845.22 233.809 1847.21 231.61 Q1849.23 229.411 1849.23 225.615 L1849.23 210.916 L1853.49 210.916 L1853.49 236.842 L1849.23 236.842 L1849.23 232.86 Q1847.68 235.221 1845.62 236.379 Q1843.58 237.513 1840.87 237.513 Q1836.4 237.513 1834.09 234.735 Q1831.78 231.957 1831.78 226.61 M1842.49 210.291 L1842.49 210.291 Z" fill="#000000" fill-rule="evenodd" fill-opacity="1" /><path clip-path="url(#clip360)" d="M1862.26 200.823 L1866.52 200.823 L1866.52 236.842 L1862.26 236.842 L1862.26 200.823 Z" fill="#000000" fill-rule="evenodd" fill-opacity="1" /><path clip-path="url(#clip360)" d="M1887.21 223.809 Q1882.05 223.809 1880.06 224.99 Q1878.07 226.17 1878.07 229.018 Q1878.07 231.286 1879.55 232.629 Q1881.06 233.948 1883.63 233.948 Q1887.17 233.948 1889.3 231.448 Q1891.45 228.925 1891.45 224.758 L1891.45 223.809 L1887.21 223.809 M1895.71 222.05 L1895.71 236.842 L1891.45 236.842 L1891.45 232.907 Q1889.99 235.268 1887.82 236.402 Q1885.64 237.513 1882.49 237.513 Q1878.51 237.513 1876.15 235.291 Q1873.81 233.045 1873.81 229.295 Q1873.81 224.92 1876.73 222.698 Q1879.67 220.476 1885.48 220.476 L1891.45 220.476 L1891.45 220.059 Q1891.45 217.12 1889.51 215.522 Q1887.59 213.902 1884.09 213.902 Q1881.87 213.902 1879.76 214.434 Q1877.65 214.967 1875.71 216.032 L1875.71 212.096 Q1878.05 211.194 1880.25 210.754 Q1882.45 210.291 1884.53 210.291 Q1890.15 210.291 1892.93 213.208 Q1895.71 216.124 1895.71 222.05 Z" fill="#000000" fill-rule="evenodd" fill-opacity="1" /><path clip-path="url(#clip360)" d="M1908.7 203.555 L1908.7 210.916 L1917.47 210.916 L1917.47 214.226 L1908.7 214.226 L1908.7 228.3 Q1908.7 231.471 1909.55 232.374 Q1910.43 233.277 1913.09 233.277 L1917.47 233.277 L1917.47 236.842 L1913.09 236.842 Q1908.16 236.842 1906.29 235.013 Q1904.41 233.161 1904.41 228.3 L1904.41 214.226 L1901.29 214.226 L1901.29 210.916 L1904.41 210.916 L1904.41 203.555 L1908.7 203.555 Z" fill="#000000" fill-rule="evenodd" fill-opacity="1" /><path clip-path="url(#clip360)" d="M1923.07 210.916 L1927.33 210.916 L1927.33 236.842 L1923.07 236.842 L1923.07 210.916 M1923.07 200.823 L1927.33 200.823 L1927.33 206.217 L1923.07 206.217 L1923.07 200.823 Z" fill="#000000" fill-rule="evenodd" fill-opacity="1" /><path clip-path="url(#clip360)" d="M1946.29 213.902 Q1942.86 213.902 1940.87 216.587 Q1938.88 219.249 1938.88 223.902 Q1938.88 228.555 1940.85 231.24 Q1942.84 233.902 1946.29 233.902 Q1949.69 233.902 1951.68 231.217 Q1953.67 228.532 1953.67 223.902 Q1953.67 219.296 1951.68 216.61 Q1949.69 213.902 1946.29 213.902 M1946.29 210.291 Q1951.84 210.291 1955.02 213.902 Q1958.19 217.513 1958.19 223.902 Q1958.19 230.268 1955.02 233.902 Q1951.84 237.513 1946.29 237.513 Q1940.71 237.513 1937.54 233.902 Q1934.39 230.268 1934.39 223.902 Q1934.39 217.513 1937.54 213.902 Q1940.71 210.291 1946.29 210.291 Z" fill="#000000" fill-rule="evenodd" fill-opacity="1" /><path clip-path="url(#clip360)" d="M1986.8 221.194 L1986.8 236.842 L1982.54 236.842 L1982.54 221.333 Q1982.54 217.652 1981.1 215.823 Q1979.67 213.995 1976.8 213.995 Q1973.35 213.995 1971.36 216.194 Q1969.37 218.393 1969.37 222.189 L1969.37 236.842 L1965.08 236.842 L1965.08 210.916 L1969.37 210.916 L1969.37 214.944 Q1970.89 212.606 1972.96 211.448 Q1975.04 210.291 1977.75 210.291 Q1982.21 210.291 1984.51 213.069 Q1986.8 215.823 1986.8 221.194 Z" fill="#000000" fill-rule="evenodd" fill-opacity="1" /><path clip-path="url(#clip360)" d="M2022.1 206.888 L2015.76 224.087 L2028.46 224.087 L2022.1 206.888 M2019.46 202.282 L2024.76 202.282 L2037.93 236.842 L2033.07 236.842 L2029.92 227.976 L2014.34 227.976 L2011.2 236.842 L2006.27 236.842 L2019.46 202.282 Z" fill="#000000" fill-rule="evenodd" fill-opacity="1" /><path clip-path="url(#clip360)" d="M2042.79 200.823 L2047.05 200.823 L2047.05 236.842 L2042.79 236.842 L2042.79 200.823 Z" fill="#000000" fill-rule="evenodd" fill-opacity="1" /><path clip-path="url(#clip360)" d="M2073.02 223.578 Q2073.02 218.948 2071.1 216.402 Q2069.2 213.856 2065.76 213.856 Q2062.33 213.856 2060.41 216.402 Q2058.51 218.948 2058.51 223.578 Q2058.51 228.184 2060.41 230.731 Q2062.33 233.277 2065.76 233.277 Q2069.2 233.277 2071.1 230.731 Q2073.02 228.184 2073.02 223.578 M2077.28 233.624 Q2077.28 240.244 2074.34 243.462 Q2071.4 246.703 2065.34 246.703 Q2063.09 246.703 2061.1 246.356 Q2059.11 246.031 2057.24 245.337 L2057.24 241.194 Q2059.11 242.212 2060.94 242.698 Q2062.77 243.184 2064.67 243.184 Q2068.86 243.184 2070.94 240.985 Q2073.02 238.809 2073.02 234.388 L2073.02 232.282 Q2071.7 234.573 2069.64 235.707 Q2067.58 236.842 2064.71 236.842 Q2059.95 236.842 2057.03 233.207 Q2054.11 229.573 2054.11 223.578 Q2054.11 217.559 2057.03 213.925 Q2059.95 210.291 2064.71 210.291 Q2067.58 210.291 2069.64 211.425 Q2071.7 212.559 2073.02 214.851 L2073.02 210.916 L2077.28 210.916 L2077.28 233.624 Z" fill="#000000" fill-rule="evenodd" fill-opacity="1" /><path clip-path="url(#clip360)" d="M2096.1 213.902 Q2092.68 213.902 2090.69 216.587 Q2088.7 219.249 2088.7 223.902 Q2088.7 228.555 2090.66 231.24 Q2092.65 233.902 2096.1 233.902 Q2099.51 233.902 2101.5 231.217 Q2103.49 228.532 2103.49 223.902 Q2103.49 219.296 2101.5 216.61 Q2099.51 213.902 2096.1 213.902 M2096.1 210.291 Q2101.66 210.291 2104.83 213.902 Q2108 217.513 2108 223.902 Q2108 230.268 2104.83 233.902 Q2101.66 237.513 2096.1 237.513 Q2090.52 237.513 2087.35 233.902 Q2084.2 230.268 2084.2 223.902 Q2084.2 217.513 2087.35 213.902 Q2090.52 210.291 2096.1 210.291 Z" fill="#000000" fill-rule="evenodd" fill-opacity="1" /><path clip-path="url(#clip360)" d="M2130.08 214.897 Q2129.37 214.481 2128.51 214.296 Q2127.68 214.087 2126.66 214.087 Q2123.05 214.087 2121.1 216.448 Q2119.18 218.786 2119.18 223.184 L2119.18 236.842 L2114.9 236.842 L2114.9 210.916 L2119.18 210.916 L2119.18 214.944 Q2120.52 212.583 2122.68 211.448 Q2124.83 210.291 2127.91 210.291 Q2128.35 210.291 2128.88 210.36 Q2129.41 210.407 2130.06 210.522 L2130.08 214.897 Z" fill="#000000" fill-rule="evenodd" fill-opacity="1" /><path clip-path="url(#clip360)" d="M2134.55 210.916 L2138.81 210.916 L2138.81 236.842 L2134.55 236.842 L2134.55 210.916 M2134.55 200.823 L2138.81 200.823 L2138.81 206.217 L2134.55 206.217 L2134.55 200.823 Z" fill="#000000" fill-rule="evenodd" fill-opacity="1" /><path clip-path="url(#clip360)" d="M2151.94 203.555 L2151.94 210.916 L2160.71 210.916 L2160.71 214.226 L2151.94 214.226 L2151.94 228.3 Q2151.94 231.471 2152.79 232.374 Q2153.67 233.277 2156.33 233.277 L2160.71 233.277 L2160.71 236.842 L2156.33 236.842 Q2151.4 236.842 2149.53 235.013 Q2147.65 233.161 2147.65 228.3 L2147.65 214.226 L2144.53 214.226 L2144.53 210.916 L2147.65 210.916 L2147.65 203.555 L2151.94 203.555 Z" fill="#000000" fill-rule="evenodd" fill-opacity="1" /><path clip-path="url(#clip360)" d="M2187.86 221.194 L2187.86 236.842 L2183.6 236.842 L2183.6 221.333 Q2183.6 217.652 2182.17 215.823 Q2180.73 213.995 2177.86 213.995 Q2174.41 213.995 2172.42 216.194 Q2170.43 218.393 2170.43 222.189 L2170.43 236.842 L2166.15 236.842 L2166.15 200.823 L2170.43 200.823 L2170.43 214.944 Q2171.96 212.606 2174.02 211.448 Q2176.1 210.291 2178.81 210.291 Q2183.28 210.291 2185.57 213.069 Q2187.86 215.823 2187.86 221.194 Z" fill="#000000" fill-rule="evenodd" fill-opacity="1" /><path clip-path="url(#clip360)" d="M2216.54 215.893 Q2218.14 213.022 2220.36 211.657 Q2222.58 210.291 2225.59 210.291 Q2229.64 210.291 2231.84 213.138 Q2234.04 215.962 2234.04 221.194 L2234.04 236.842 L2229.76 236.842 L2229.76 221.333 Q2229.76 217.606 2228.44 215.8 Q2227.12 213.995 2224.41 213.995 Q2221.1 213.995 2219.18 216.194 Q2217.26 218.393 2217.26 222.189 L2217.26 236.842 L2212.98 236.842 L2212.98 221.333 Q2212.98 217.583 2211.66 215.8 Q2210.34 213.995 2207.58 213.995 Q2204.32 213.995 2202.4 216.217 Q2200.48 218.416 2200.48 222.189 L2200.48 236.842 L2196.19 236.842 L2196.19 210.916 L2200.48 210.916 L2200.48 214.944 Q2201.94 212.559 2203.97 211.425 Q2206.01 210.291 2208.81 210.291 Q2211.63 210.291 2213.6 211.726 Q2215.59 213.161 2216.54 215.893 Z" fill="#000000" fill-rule="evenodd" fill-opacity="1" /><circle clip-path="url(#clip360)" cx="1386.02" cy="271.402" r="23" fill="#ff00ff" fill-rule="evenodd" fill-opacity="1" stroke="none"/>
<path clip-path="url(#clip360)" d="M1480.99 254.122 L1485.67 254.122 L1485.67 284.747 L1502.49 284.747 L1502.49 288.682 L1480.99 288.682 L1480.99 254.122 Z" fill="#000000" fill-rule="evenodd" fill-opacity="1" /><path clip-path="url(#clip360)" d="M1507.4 254.122 L1513.7 254.122 L1529.02 283.034 L1529.02 254.122 L1533.56 254.122 L1533.56 288.682 L1527.26 288.682 L1511.94 259.77 L1511.94 288.682 L1507.4 288.682 L1507.4 254.122 Z" fill="#000000" fill-rule="evenodd" fill-opacity="1" /><path clip-path="url(#clip360)" d="M1554.42 258.728 L1548.07 275.927 L1560.78 275.927 L1554.42 258.728 M1551.78 254.122 L1557.08 254.122 L1570.25 288.682 L1565.39 288.682 L1562.24 279.816 L1546.66 279.816 L1543.51 288.682 L1538.58 288.682 L1551.78 254.122 Z" fill="#000000" fill-rule="evenodd" fill-opacity="1" /><path clip-path="url(#clip360)" d="M1601.92 258.728 L1595.57 275.927 L1608.28 275.927 L1601.92 258.728 M1599.28 254.122 L1604.58 254.122 L1617.75 288.682 L1612.89 288.682 L1609.74 279.816 L1594.16 279.816 L1591.01 288.682 L1586.08 288.682 L1599.28 254.122 Z" fill="#000000" fill-rule="evenodd" fill-opacity="1" /><path clip-path="url(#clip360)" d="M1626.73 284.793 L1626.73 298.543 L1622.45 298.543 L1622.45 262.756 L1626.73 262.756 L1626.73 266.691 Q1628.07 264.376 1630.11 263.265 Q1632.17 262.131 1635.02 262.131 Q1639.74 262.131 1642.68 265.881 Q1645.64 269.631 1645.64 275.742 Q1645.64 281.853 1642.68 285.603 Q1639.74 289.353 1635.02 289.353 Q1632.17 289.353 1630.11 288.242 Q1628.07 287.108 1626.73 284.793 M1641.22 275.742 Q1641.22 271.043 1639.28 268.381 Q1637.35 265.696 1633.98 265.696 Q1630.6 265.696 1628.65 268.381 Q1626.73 271.043 1626.73 275.742 Q1626.73 280.441 1628.65 283.126 Q1630.6 285.788 1633.98 285.788 Q1637.35 285.788 1639.28 283.126 Q1641.22 280.441 1641.22 275.742 Z" fill="#000000" fill-rule="evenodd" fill-opacity="1" /><path clip-path="url(#clip360)" d="M1656.82 284.793 L1656.82 298.543 L1652.54 298.543 L1652.54 262.756 L1656.82 262.756 L1656.82 266.691 Q1658.17 264.376 1660.2 263.265 Q1662.26 262.131 1665.11 262.131 Q1669.83 262.131 1672.77 265.881 Q1675.73 269.631 1675.73 275.742 Q1675.73 281.853 1672.77 285.603 Q1669.83 289.353 1665.11 289.353 Q1662.26 289.353 1660.2 288.242 Q1658.17 287.108 1656.82 284.793 M1671.31 275.742 Q1671.31 271.043 1669.37 268.381 Q1667.45 265.696 1664.07 265.696 Q1660.69 265.696 1658.74 268.381 Q1656.82 271.043 1656.82 275.742 Q1656.82 280.441 1658.74 283.126 Q1660.69 285.788 1664.07 285.788 Q1667.45 285.788 1669.37 283.126 Q1671.31 280.441 1671.31 275.742 Z" fill="#000000" fill-rule="evenodd" fill-opacity="1" /><path clip-path="url(#clip360)" d="M1697.82 266.737 Q1697.1 266.321 1696.24 266.136 Q1695.41 265.927 1694.39 265.927 Q1690.78 265.927 1688.84 268.288 Q1686.91 270.626 1686.91 275.024 L1686.91 288.682 L1682.63 288.682 L1682.63 262.756 L1686.91 262.756 L1686.91 266.784 Q1688.26 264.423 1690.41 263.288 Q1692.56 262.131 1695.64 262.131 Q1696.08 262.131 1696.61 262.2 Q1697.15 262.247 1697.79 262.362 L1697.82 266.737 Z" fill="#000000" fill-rule="evenodd" fill-opacity="1" /><path clip-path="url(#clip360)" d="M1711.29 265.742 Q1707.86 265.742 1705.87 268.427 Q1703.88 271.089 1703.88 275.742 Q1703.88 280.395 1705.85 283.08 Q1707.84 285.742 1711.29 285.742 Q1714.69 285.742 1716.68 283.057 Q1718.67 280.372 1718.67 275.742 Q1718.67 271.136 1716.68 268.45 Q1714.69 265.742 1711.29 265.742 M1711.29 262.131 Q1716.85 262.131 1720.02 265.742 Q1723.19 269.353 1723.19 275.742 Q1723.19 282.108 1720.02 285.742 Q1716.85 289.353 1711.29 289.353 Q1705.71 289.353 1702.54 285.742 Q1699.39 282.108 1699.39 275.742 Q1699.39 269.353 1702.54 265.742 Q1705.71 262.131 1711.29 262.131 Z" fill="#000000" fill-rule="evenodd" fill-opacity="1" /><path clip-path="url(#clip360)" d="M1750.34 262.756 L1740.97 275.372 L1750.83 288.682 L1745.8 288.682 L1738.26 278.497 L1730.71 288.682 L1725.69 288.682 L1735.76 275.117 L1726.54 262.756 L1731.57 262.756 L1738.44 271.992 L1745.32 262.756 L1750.34 262.756 Z" fill="#000000" fill-rule="evenodd" fill-opacity="1" /><path clip-path="url(#clip360)" d="M1756.85 262.756 L1761.1 262.756 L1761.1 288.682 L1756.85 288.682 L1756.85 262.756 M1756.85 252.663 L1761.1 252.663 L1761.1 258.057 L1756.85 258.057 L1756.85 252.663 Z" fill="#000000" fill-rule="evenodd" fill-opacity="1" /><path clip-path="url(#clip360)" d="M1790.2 267.733 Q1791.8 264.862 1794.02 263.497 Q1796.24 262.131 1799.25 262.131 Q1803.3 262.131 1805.5 264.978 Q1807.7 267.802 1807.7 273.034 L1807.7 288.682 L1803.42 288.682 L1803.42 273.173 Q1803.42 269.446 1802.1 267.64 Q1800.78 265.835 1798.07 265.835 Q1794.76 265.835 1792.84 268.034 Q1790.92 270.233 1790.92 274.029 L1790.92 288.682 L1786.64 288.682 L1786.64 273.173 Q1786.64 269.423 1785.32 267.64 Q1784 265.835 1781.24 265.835 Q1777.98 265.835 1776.06 268.057 Q1774.14 270.256 1774.14 274.029 L1774.14 288.682 L1769.85 288.682 L1769.85 262.756 L1774.14 262.756 L1774.14 266.784 Q1775.59 264.399 1777.63 263.265 Q1779.67 262.131 1782.47 262.131 Q1785.29 262.131 1787.26 263.566 Q1789.25 265.001 1790.2 267.733 Z" fill="#000000" fill-rule="evenodd" fill-opacity="1" /><path clip-path="url(#clip360)" d="M1827.98 275.649 Q1822.82 275.649 1820.83 276.83 Q1818.84 278.01 1818.84 280.858 Q1818.84 283.126 1820.32 284.469 Q1821.82 285.788 1824.39 285.788 Q1827.93 285.788 1830.06 283.288 Q1832.22 280.765 1832.22 276.598 L1832.22 275.649 L1827.98 275.649 M1836.47 273.89 L1836.47 288.682 L1832.22 288.682 L1832.22 284.747 Q1830.76 287.108 1828.58 288.242 Q1826.4 289.353 1823.26 289.353 Q1819.28 289.353 1816.91 287.131 Q1814.58 284.885 1814.58 281.135 Q1814.58 276.76 1817.49 274.538 Q1820.43 272.316 1826.24 272.316 L1832.22 272.316 L1832.22 271.899 Q1832.22 268.96 1830.27 267.362 Q1828.35 265.742 1824.85 265.742 Q1822.63 265.742 1820.53 266.274 Q1818.42 266.807 1816.47 267.872 L1816.47 263.936 Q1818.81 263.034 1821.01 262.594 Q1823.21 262.131 1825.29 262.131 Q1830.92 262.131 1833.7 265.048 Q1836.47 267.964 1836.47 273.89 Z" fill="#000000" fill-rule="evenodd" fill-opacity="1" /><path clip-path="url(#clip360)" d="M1849.46 255.395 L1849.46 262.756 L1858.23 262.756 L1858.23 266.066 L1849.46 266.066 L1849.46 280.14 Q1849.46 283.311 1850.32 284.214 Q1851.2 285.117 1853.86 285.117 L1858.23 285.117 L1858.23 288.682 L1853.86 288.682 Q1848.93 288.682 1847.05 286.853 Q1845.18 285.001 1845.18 280.14 L1845.18 266.066 L1842.05 266.066 L1842.05 262.756 L1845.18 262.756 L1845.18 255.395 L1849.46 255.395 Z" fill="#000000" fill-rule="evenodd" fill-opacity="1" /><path clip-path="url(#clip360)" d="M1863.84 262.756 L1868.09 262.756 L1868.09 288.682 L1863.84 288.682 L1863.84 262.756 M1863.84 252.663 L1868.09 252.663 L1868.09 258.057 L1863.84 258.057 L1863.84 252.663 Z" fill="#000000" fill-rule="evenodd" fill-opacity="1" /><path clip-path="url(#clip360)" d="M1887.05 265.742 Q1883.63 265.742 1881.64 268.427 Q1879.65 271.089 1879.65 275.742 Q1879.65 280.395 1881.61 283.08 Q1883.6 285.742 1887.05 285.742 Q1890.46 285.742 1892.45 283.057 Q1894.44 280.372 1894.44 275.742 Q1894.44 271.136 1892.45 268.45 Q1890.46 265.742 1887.05 265.742 M1887.05 262.131 Q1892.61 262.131 1895.78 265.742 Q1898.95 269.353 1898.95 275.742 Q1898.95 282.108 1895.78 285.742 Q1892.61 289.353 1887.05 289.353 Q1881.47 289.353 1878.3 285.742 Q1875.15 282.108 1875.15 275.742 Q1875.15 269.353 1878.3 265.742 Q1881.47 262.131 1887.05 262.131 Z" fill="#000000" fill-rule="evenodd" fill-opacity="1" /><path clip-path="url(#clip360)" d="M1927.56 273.034 L1927.56 288.682 L1923.3 288.682 L1923.3 273.173 Q1923.3 269.492 1921.87 267.663 Q1920.43 265.835 1917.56 265.835 Q1914.11 265.835 1912.12 268.034 Q1910.13 270.233 1910.13 274.029 L1910.13 288.682 L1905.85 288.682 L1905.85 262.756 L1910.13 262.756 L1910.13 266.784 Q1911.66 264.446 1913.72 263.288 Q1915.8 262.131 1918.51 262.131 Q1922.98 262.131 1925.27 264.909 Q1927.56 267.663 1927.56 273.034 Z" fill="#000000" fill-rule="evenodd" fill-opacity="1" /></svg>
