<?xml version="1.0" encoding="utf-8"?>
<svg xmlns="http://www.w3.org/2000/svg" xmlns:xlink="http://www.w3.org/1999/xlink" width="600" height="400" viewBox="0 0 2400 1600">
<defs>
  <clipPath id="clip760">
    <rect x="0" y="0" width="2400" height="1600"/>
  </clipPath>
</defs>
<path clip-path="url(#clip760)" d="
M0 1600 L2400 1600 L2400 0 L0 0  Z
  " fill="#ffffff" fill-rule="evenodd" fill-opacity="1"/>
<defs>
  <clipPath id="clip761">
    <rect x="480" y="0" width="1681" height="1600"/>
  </clipPath>
</defs>
<defs>
  <clipPath id="clip762">
    <rect x="275" y="47" width="2078" height="1405"/>
  </clipPath>
</defs>
<path clip-path="url(#clip760)" d="
M275.736 1450.96 L2352.76 1450.96 L2352.76 47.2441 L275.736 47.2441  Z
  " fill="#ffffff" fill-rule="evenodd" fill-opacity="1"/>
<polyline clip-path="url(#clip760)" style="stroke:#000000; stroke-linecap:butt; stroke-linejoin:round; stroke-width:4; stroke-opacity:1; fill:none" points="
  275.736,1450.96 2352.76,1450.96 
  "/>
<polyline clip-path="url(#clip760)" style="stroke:#000000; stroke-linecap:butt; stroke-linejoin:round; stroke-width:4; stroke-opacity:1; fill:none" points="
  334.52,1450.96 334.52,1432.06 
  "/>
<polyline clip-path="url(#clip760)" style="stroke:#000000; stroke-linecap:butt; stroke-linejoin:round; stroke-width:4; stroke-opacity:1; fill:none" points="
  910.829,1450.96 910.829,1432.06 
  "/>
<polyline clip-path="url(#clip760)" style="stroke:#000000; stroke-linecap:butt; stroke-linejoin:round; stroke-width:4; stroke-opacity:1; fill:none" points="
  1487.14,1450.96 1487.14,1432.06 
  "/>
<polyline clip-path="url(#clip760)" style="stroke:#000000; stroke-linecap:butt; stroke-linejoin:round; stroke-width:4; stroke-opacity:1; fill:none" points="
  2063.45,1450.96 2063.45,1432.06 
  "/>
<path clip-path="url(#clip760)" d="M334.52 1480.15 Q330.908 1480.15 329.08 1483.72 Q327.274 1487.26 327.274 1494.39 Q327.274 1501.49 329.08 1505.06 Q330.908 1508.6 334.52 1508.6 Q338.154 1508.6 339.959 1505.06 Q341.788 1501.49 341.788 1494.39 Q341.788 1487.26 339.959 1483.72 Q338.154 1480.15 334.52 1480.15 M334.52 1476.45 Q340.33 1476.45 343.385 1481.05 Q346.464 1485.64 346.464 1494.39 Q346.464 1503.11 343.385 1507.72 Q340.33 1512.3 334.52 1512.3 Q328.709 1512.3 325.631 1507.72 Q322.575 1503.11 322.575 1494.39 Q322.575 1485.64 325.631 1481.05 Q328.709 1476.45 334.52 1476.45 Z" fill="#000000" fill-rule="evenodd" fill-opacity="1" /><path clip-path="url(#clip760)" d="M885.517 1507.7 L893.156 1507.7 L893.156 1481.33 L884.846 1483 L884.846 1478.74 L893.109 1477.07 L897.785 1477.07 L897.785 1507.7 L905.424 1507.7 L905.424 1511.63 L885.517 1511.63 L885.517 1507.7 Z" fill="#000000" fill-rule="evenodd" fill-opacity="1" /><path clip-path="url(#clip760)" d="M924.868 1480.15 Q921.257 1480.15 919.429 1483.72 Q917.623 1487.26 917.623 1494.39 Q917.623 1501.49 919.429 1505.06 Q921.257 1508.6 924.868 1508.6 Q928.503 1508.6 930.308 1505.06 Q932.137 1501.49 932.137 1494.39 Q932.137 1487.26 930.308 1483.72 Q928.503 1480.15 924.868 1480.15 M924.868 1476.45 Q930.679 1476.45 933.734 1481.05 Q936.813 1485.64 936.813 1494.39 Q936.813 1503.11 933.734 1507.72 Q930.679 1512.3 924.868 1512.3 Q919.058 1512.3 915.98 1507.72 Q912.924 1503.11 912.924 1494.39 Q912.924 1485.64 915.98 1481.05 Q919.058 1476.45 924.868 1476.45 Z" fill="#000000" fill-rule="evenodd" fill-opacity="1" /><path clip-path="url(#clip760)" d="M1465.91 1507.7 L1482.23 1507.7 L1482.23 1511.63 L1460.29 1511.63 L1460.29 1507.7 Q1462.95 1504.94 1467.53 1500.31 Q1472.14 1495.66 1473.32 1494.32 Q1475.56 1491.79 1476.44 1490.06 Q1477.35 1488.3 1477.35 1486.61 Q1477.35 1483.85 1475.4 1482.12 Q1473.48 1480.38 1470.38 1480.38 Q1468.18 1480.38 1465.73 1481.15 Q1463.3 1481.91 1460.52 1483.46 L1460.52 1478.74 Q1463.34 1477.6 1465.8 1477.03 Q1468.25 1476.45 1470.29 1476.45 Q1475.66 1476.45 1478.85 1479.13 Q1482.05 1481.82 1482.05 1486.31 Q1482.05 1488.44 1481.24 1490.36 Q1480.45 1492.26 1478.34 1494.85 Q1477.76 1495.52 1474.66 1498.74 Q1471.56 1501.93 1465.91 1507.7 Z" fill="#000000" fill-rule="evenodd" fill-opacity="1" /><path clip-path="url(#clip760)" d="M1502.05 1480.15 Q1498.44 1480.15 1496.61 1483.72 Q1494.8 1487.26 1494.8 1494.39 Q1494.8 1501.49 1496.61 1505.06 Q1498.44 1508.6 1502.05 1508.6 Q1505.68 1508.6 1507.49 1505.06 Q1509.31 1501.49 1509.31 1494.39 Q1509.31 1487.26 1507.49 1483.72 Q1505.68 1480.15 1502.05 1480.15 M1502.05 1476.45 Q1507.86 1476.45 1510.91 1481.05 Q1513.99 1485.64 1513.99 1494.39 Q1513.99 1503.11 1510.91 1507.72 Q1507.86 1512.3 1502.05 1512.3 Q1496.24 1512.3 1493.16 1507.72 Q1490.1 1503.11 1490.1 1494.39 Q1490.1 1485.64 1493.16 1481.05 Q1496.24 1476.45 1502.05 1476.45 Z" fill="#000000" fill-rule="evenodd" fill-opacity="1" /><path clip-path="url(#clip760)" d="M2052.29 1493 Q2055.65 1493.72 2057.52 1495.98 Q2059.42 1498.25 2059.42 1501.59 Q2059.42 1506.7 2055.9 1509.5 Q2052.38 1512.3 2045.9 1512.3 Q2043.73 1512.3 2041.41 1511.86 Q2039.12 1511.45 2036.67 1510.59 L2036.67 1506.08 Q2038.61 1507.21 2040.93 1507.79 Q2043.24 1508.37 2045.76 1508.37 Q2050.16 1508.37 2052.45 1506.63 Q2054.77 1504.9 2054.77 1501.59 Q2054.77 1498.53 2052.62 1496.82 Q2050.49 1495.08 2046.67 1495.08 L2042.64 1495.08 L2042.64 1491.24 L2046.85 1491.24 Q2050.3 1491.24 2052.13 1489.87 Q2053.96 1488.48 2053.96 1485.89 Q2053.96 1483.23 2052.06 1481.82 Q2050.18 1480.38 2046.67 1480.38 Q2044.74 1480.38 2042.55 1480.8 Q2040.35 1481.22 2037.71 1482.1 L2037.71 1477.93 Q2040.37 1477.19 2042.68 1476.82 Q2045.02 1476.45 2047.08 1476.45 Q2052.41 1476.45 2055.51 1478.88 Q2058.61 1481.29 2058.61 1485.41 Q2058.61 1488.28 2056.97 1490.27 Q2055.32 1492.23 2052.29 1493 Z" fill="#000000" fill-rule="evenodd" fill-opacity="1" /><path clip-path="url(#clip760)" d="M2078.29 1480.15 Q2074.68 1480.15 2072.85 1483.72 Q2071.04 1487.26 2071.04 1494.39 Q2071.04 1501.49 2072.85 1505.06 Q2074.68 1508.6 2078.29 1508.6 Q2081.92 1508.6 2083.73 1505.06 Q2085.55 1501.49 2085.55 1494.39 Q2085.55 1487.26 2083.73 1483.72 Q2081.92 1480.15 2078.29 1480.15 M2078.29 1476.45 Q2084.1 1476.45 2087.15 1481.05 Q2090.23 1485.64 2090.23 1494.39 Q2090.23 1503.11 2087.15 1507.72 Q2084.1 1512.3 2078.29 1512.3 Q2072.48 1512.3 2069.4 1507.72 Q2066.34 1503.11 2066.34 1494.39 Q2066.34 1485.64 2069.4 1481.05 Q2072.48 1476.45 2078.29 1476.45 Z" fill="#000000" fill-rule="evenodd" fill-opacity="1" /><path clip-path="url(#clip760)" d="M1339.61 1555.28 Q1339.61 1555.54 1339.32 1556.53 Q1339.03 1557.53 1338.32 1559.08 Q1337.65 1560.62 1336.68 1562.04 Q1335.75 1563.43 1334.2 1564.46 Q1332.69 1565.46 1330.95 1565.46 Q1328.63 1565.46 1327.08 1563.91 Q1325.54 1562.36 1325.54 1560.04 Q1325.54 1558.79 1326.41 1556.41 Q1330.5 1545.52 1330.5 1541.62 Q1330.5 1537.02 1326.92 1537.02 Q1324.89 1537.02 1323.06 1537.85 Q1321.22 1538.69 1320.03 1539.85 Q1318.84 1541.01 1317.9 1542.33 Q1316.97 1543.65 1316.55 1544.52 Q1316.16 1545.39 1316.07 1545.78 L1312.11 1561.69 Q1311.78 1563.04 1311.56 1563.68 Q1311.33 1564.33 1310.72 1564.88 Q1310.11 1565.46 1309.14 1565.46 Q1308.34 1565.46 1307.76 1564.97 Q1307.21 1564.49 1307.21 1563.65 Q1307.21 1563.52 1307.37 1562.85 Q1307.53 1562.17 1307.76 1561.24 Q1307.98 1560.3 1308.08 1559.75 Q1309.24 1555.37 1309.4 1554.76 L1311.24 1547.1 Q1312.24 1543.3 1312.24 1541.62 Q1312.24 1537.02 1308.66 1537.02 Q1306.89 1537.02 1305.21 1537.69 Q1303.57 1538.34 1302.45 1539.24 Q1301.32 1540.14 1300.29 1541.4 Q1299.29 1542.62 1298.77 1543.46 Q1298.29 1544.26 1297.9 1545.07 L1297.07 1548.35 Q1296.87 1549.26 1295.94 1552.77 L1294.49 1558.72 Q1293.46 1563.17 1293.23 1563.59 Q1292.91 1564.49 1292.2 1564.97 Q1291.5 1565.46 1290.79 1565.46 Q1289.98 1565.46 1289.43 1564.97 Q1288.89 1564.49 1288.89 1563.65 Q1288.89 1563.52 1288.98 1563.04 Q1289.08 1562.56 1289.24 1561.88 Q1289.4 1561.2 1289.47 1560.82 L1293.3 1545.58 Q1294.01 1542.81 1294.17 1541.94 Q1294.36 1541.04 1294.36 1540.04 Q1294.36 1537.02 1292.3 1537.02 Q1290.63 1537.02 1289.53 1539.01 Q1288.44 1541.01 1287.5 1544.88 Q1287.21 1545.94 1287.02 1546.16 Q1286.86 1546.39 1286.37 1546.39 Q1285.57 1546.36 1285.57 1545.71 Q1285.57 1545.55 1285.83 1544.52 Q1286.08 1543.49 1286.57 1541.94 Q1287.08 1540.37 1287.63 1539.34 Q1287.95 1538.66 1288.24 1538.21 Q1288.53 1537.76 1289.11 1537.05 Q1289.69 1536.34 1290.56 1535.95 Q1291.43 1535.57 1292.49 1535.57 Q1294.84 1535.57 1296.58 1537.08 Q1298.35 1538.6 1298.58 1541.3 Q1302.86 1535.57 1308.85 1535.57 Q1312.24 1535.57 1314.26 1537.27 Q1316.16 1538.92 1316.39 1541.94 Q1320.83 1535.57 1327.15 1535.57 Q1330.79 1535.57 1332.75 1537.47 Q1334.72 1539.34 1334.72 1542.62 Q1334.72 1544.33 1333.85 1547.58 Q1332.98 1550.8 1332.4 1552.41 Q1331.82 1554.02 1330.69 1557.11 Q1329.5 1560.08 1329.5 1561.82 Q1329.5 1562.94 1329.88 1563.46 Q1330.27 1563.97 1331.11 1563.97 Q1332.4 1563.97 1333.52 1563.23 Q1334.65 1562.46 1335.46 1561.2 Q1336.29 1559.92 1336.84 1558.63 Q1337.39 1557.31 1337.81 1555.83 Q1338.06 1555.02 1338.19 1554.83 Q1338.35 1554.63 1338.81 1554.63 Q1339.61 1554.63 1339.61 1555.28 Z" fill="#000000" fill-rule="evenodd" fill-opacity="1" /><polyline clip-path="url(#clip760)" style="stroke:#000000; stroke-linecap:butt; stroke-linejoin:round; stroke-width:4; stroke-opacity:1; fill:none" points="
  275.736,1450.96 275.736,47.2441 
  "/>
<polyline clip-path="url(#clip760)" style="stroke:#000000; stroke-linecap:butt; stroke-linejoin:round; stroke-width:4; stroke-opacity:1; fill:none" points="
  275.736,1411.23 294.634,1411.23 
  "/>
<polyline clip-path="url(#clip760)" style="stroke:#000000; stroke-linecap:butt; stroke-linejoin:round; stroke-width:4; stroke-opacity:1; fill:none" points="
  275.736,1124.94 294.634,1124.94 
  "/>
<polyline clip-path="url(#clip760)" style="stroke:#000000; stroke-linecap:butt; stroke-linejoin:round; stroke-width:4; stroke-opacity:1; fill:none" points="
  275.736,838.649 294.634,838.649 
  "/>
<polyline clip-path="url(#clip760)" style="stroke:#000000; stroke-linecap:butt; stroke-linejoin:round; stroke-width:4; stroke-opacity:1; fill:none" points="
  275.736,552.357 294.634,552.357 
  "/>
<polyline clip-path="url(#clip760)" style="stroke:#000000; stroke-linecap:butt; stroke-linejoin:round; stroke-width:4; stroke-opacity:1; fill:none" points="
  275.736,266.065 294.634,266.065 
  "/>
<path clip-path="url(#clip760)" d="M122.237 1397.03 Q118.626 1397.03 116.797 1400.6 Q114.991 1404.14 114.991 1411.27 Q114.991 1418.37 116.797 1421.94 Q118.626 1425.48 122.237 1425.48 Q125.871 1425.48 127.676 1421.94 Q129.505 1418.37 129.505 1411.27 Q129.505 1404.14 127.676 1400.6 Q125.871 1397.03 122.237 1397.03 M122.237 1393.33 Q128.047 1393.33 131.102 1397.93 Q134.181 1402.52 134.181 1411.27 Q134.181 1419.99 131.102 1424.6 Q128.047 1429.18 122.237 1429.18 Q116.426 1429.18 113.348 1424.6 Q110.292 1419.99 110.292 1411.27 Q110.292 1402.52 113.348 1397.93 Q116.426 1393.33 122.237 1393.33 Z" fill="#000000" fill-rule="evenodd" fill-opacity="1" /><path clip-path="url(#clip760)" d="M142.399 1422.63 L147.283 1422.63 L147.283 1428.51 L142.399 1428.51 L142.399 1422.63 Z" fill="#000000" fill-rule="evenodd" fill-opacity="1" /><path clip-path="url(#clip760)" d="M167.468 1397.03 Q163.857 1397.03 162.028 1400.6 Q160.223 1404.14 160.223 1411.27 Q160.223 1418.37 162.028 1421.94 Q163.857 1425.48 167.468 1425.48 Q171.102 1425.48 172.908 1421.94 Q174.736 1418.37 174.736 1411.27 Q174.736 1404.14 172.908 1400.6 Q171.102 1397.03 167.468 1397.03 M167.468 1393.33 Q173.278 1393.33 176.334 1397.93 Q179.412 1402.52 179.412 1411.27 Q179.412 1419.99 176.334 1424.6 Q173.278 1429.18 167.468 1429.18 Q161.658 1429.18 158.579 1424.6 Q155.523 1419.99 155.523 1411.27 Q155.523 1402.52 158.579 1397.93 Q161.658 1393.33 167.468 1393.33 Z" fill="#000000" fill-rule="evenodd" fill-opacity="1" /><path clip-path="url(#clip760)" d="M197.63 1397.03 Q194.019 1397.03 192.19 1400.6 Q190.384 1404.14 190.384 1411.27 Q190.384 1418.37 192.19 1421.94 Q194.019 1425.48 197.63 1425.48 Q201.264 1425.48 203.07 1421.94 Q204.898 1418.37 204.898 1411.27 Q204.898 1404.14 203.07 1400.6 Q201.264 1397.03 197.63 1397.03 M197.63 1393.33 Q203.44 1393.33 206.495 1397.93 Q209.574 1402.52 209.574 1411.27 Q209.574 1419.99 206.495 1424.6 Q203.44 1429.18 197.63 1429.18 Q191.82 1429.18 188.741 1424.6 Q185.685 1419.99 185.685 1411.27 Q185.685 1402.52 188.741 1397.93 Q191.82 1393.33 197.63 1393.33 Z" fill="#000000" fill-rule="evenodd" fill-opacity="1" /><path clip-path="url(#clip760)" d="M227.792 1397.03 Q224.181 1397.03 222.352 1400.6 Q220.546 1404.14 220.546 1411.27 Q220.546 1418.37 222.352 1421.94 Q224.181 1425.48 227.792 1425.48 Q231.426 1425.48 233.231 1421.94 Q235.06 1418.37 235.06 1411.27 Q235.06 1404.14 233.231 1400.6 Q231.426 1397.03 227.792 1397.03 M227.792 1393.33 Q233.602 1393.33 236.657 1397.93 Q239.736 1402.52 239.736 1411.27 Q239.736 1419.99 236.657 1424.6 Q233.602 1429.18 227.792 1429.18 Q221.981 1429.18 218.903 1424.6 Q215.847 1419.99 215.847 1411.27 Q215.847 1402.52 218.903 1397.93 Q221.981 1393.33 227.792 1393.33 Z" fill="#000000" fill-rule="evenodd" fill-opacity="1" /><path clip-path="url(#clip760)" d="M123.232 1110.74 Q119.621 1110.74 117.792 1114.3 Q115.987 1117.85 115.987 1124.98 Q115.987 1132.08 117.792 1135.65 Q119.621 1139.19 123.232 1139.19 Q126.866 1139.19 128.672 1135.65 Q130.5 1132.08 130.5 1124.98 Q130.5 1117.85 128.672 1114.3 Q126.866 1110.74 123.232 1110.74 M123.232 1107.04 Q129.042 1107.04 132.098 1111.64 Q135.176 1116.23 135.176 1124.98 Q135.176 1133.7 132.098 1138.31 Q129.042 1142.89 123.232 1142.89 Q117.422 1142.89 114.343 1138.31 Q111.288 1133.7 111.288 1124.98 Q111.288 1116.23 114.343 1111.64 Q117.422 1107.04 123.232 1107.04 Z" fill="#000000" fill-rule="evenodd" fill-opacity="1" /><path clip-path="url(#clip760)" d="M143.394 1136.34 L148.278 1136.34 L148.278 1142.22 L143.394 1142.22 L143.394 1136.34 Z" fill="#000000" fill-rule="evenodd" fill-opacity="1" /><path clip-path="url(#clip760)" d="M168.463 1110.74 Q164.852 1110.74 163.023 1114.3 Q161.218 1117.85 161.218 1124.98 Q161.218 1132.08 163.023 1135.65 Q164.852 1139.19 168.463 1139.19 Q172.097 1139.19 173.903 1135.65 Q175.732 1132.08 175.732 1124.98 Q175.732 1117.85 173.903 1114.3 Q172.097 1110.74 168.463 1110.74 M168.463 1107.04 Q174.273 1107.04 177.329 1111.64 Q180.408 1116.23 180.408 1124.98 Q180.408 1133.7 177.329 1138.31 Q174.273 1142.89 168.463 1142.89 Q162.653 1142.89 159.574 1138.31 Q156.519 1133.7 156.519 1124.98 Q156.519 1116.23 159.574 1111.64 Q162.653 1107.04 168.463 1107.04 Z" fill="#000000" fill-rule="evenodd" fill-opacity="1" /><path clip-path="url(#clip760)" d="M192.653 1138.29 L208.972 1138.29 L208.972 1142.22 L187.028 1142.22 L187.028 1138.29 Q189.69 1135.53 194.273 1130.9 Q198.88 1126.25 200.06 1124.91 Q202.306 1122.38 203.185 1120.65 Q204.088 1118.89 204.088 1117.2 Q204.088 1114.44 202.144 1112.71 Q200.222 1110.97 197.12 1110.97 Q194.921 1110.97 192.468 1111.73 Q190.037 1112.5 187.259 1114.05 L187.259 1109.33 Q190.083 1108.19 192.537 1107.61 Q194.991 1107.04 197.028 1107.04 Q202.398 1107.04 205.593 1109.72 Q208.787 1112.41 208.787 1116.9 Q208.787 1119.03 207.977 1120.95 Q207.19 1122.85 205.083 1125.44 Q204.505 1126.11 201.403 1129.33 Q198.301 1132.52 192.653 1138.29 Z" fill="#000000" fill-rule="evenodd" fill-opacity="1" /><path clip-path="url(#clip760)" d="M218.833 1107.66 L237.19 1107.66 L237.19 1111.6 L223.116 1111.6 L223.116 1120.07 Q224.134 1119.72 225.153 1119.56 Q226.171 1119.37 227.19 1119.37 Q232.977 1119.37 236.356 1122.54 Q239.736 1125.72 239.736 1131.13 Q239.736 1136.71 236.264 1139.81 Q232.792 1142.89 226.472 1142.89 Q224.296 1142.89 222.028 1142.52 Q219.782 1142.15 217.375 1141.41 L217.375 1136.71 Q219.458 1137.85 221.681 1138.4 Q223.903 1138.96 226.38 1138.96 Q230.384 1138.96 232.722 1136.85 Q235.06 1134.74 235.06 1131.13 Q235.06 1127.52 232.722 1125.42 Q230.384 1123.31 226.38 1123.31 Q224.505 1123.31 222.63 1123.73 Q220.778 1124.14 218.833 1125.02 L218.833 1107.66 Z" fill="#000000" fill-rule="evenodd" fill-opacity="1" /><path clip-path="url(#clip760)" d="M122.237 824.447 Q118.626 824.447 116.797 828.012 Q114.991 831.554 114.991 838.683 Q114.991 845.79 116.797 849.355 Q118.626 852.896 122.237 852.896 Q125.871 852.896 127.676 849.355 Q129.505 845.79 129.505 838.683 Q129.505 831.554 127.676 828.012 Q125.871 824.447 122.237 824.447 M122.237 820.744 Q128.047 820.744 131.102 825.35 Q134.181 829.934 134.181 838.683 Q134.181 847.41 131.102 852.017 Q128.047 856.6 122.237 856.6 Q116.426 856.6 113.348 852.017 Q110.292 847.41 110.292 838.683 Q110.292 829.934 113.348 825.35 Q116.426 820.744 122.237 820.744 Z" fill="#000000" fill-rule="evenodd" fill-opacity="1" /><path clip-path="url(#clip760)" d="M142.399 850.049 L147.283 850.049 L147.283 855.929 L142.399 855.929 L142.399 850.049 Z" fill="#000000" fill-rule="evenodd" fill-opacity="1" /><path clip-path="url(#clip760)" d="M167.468 824.447 Q163.857 824.447 162.028 828.012 Q160.223 831.554 160.223 838.683 Q160.223 845.79 162.028 849.355 Q163.857 852.896 167.468 852.896 Q171.102 852.896 172.908 849.355 Q174.736 845.79 174.736 838.683 Q174.736 831.554 172.908 828.012 Q171.102 824.447 167.468 824.447 M167.468 820.744 Q173.278 820.744 176.334 825.35 Q179.412 829.934 179.412 838.683 Q179.412 847.41 176.334 852.017 Q173.278 856.6 167.468 856.6 Q161.658 856.6 158.579 852.017 Q155.523 847.41 155.523 838.683 Q155.523 829.934 158.579 825.35 Q161.658 820.744 167.468 820.744 Z" fill="#000000" fill-rule="evenodd" fill-opacity="1" /><path clip-path="url(#clip760)" d="M187.676 821.369 L206.032 821.369 L206.032 825.304 L191.958 825.304 L191.958 833.776 Q192.977 833.429 193.995 833.267 Q195.014 833.082 196.033 833.082 Q201.82 833.082 205.199 836.253 Q208.579 839.424 208.579 844.841 Q208.579 850.42 205.107 853.521 Q201.634 856.6 195.315 856.6 Q193.139 856.6 190.871 856.23 Q188.625 855.859 186.218 855.119 L186.218 850.42 Q188.301 851.554 190.523 852.109 Q192.746 852.665 195.222 852.665 Q199.227 852.665 201.565 850.558 Q203.903 848.452 203.903 844.841 Q203.903 841.23 201.565 839.123 Q199.227 837.017 195.222 837.017 Q193.347 837.017 191.472 837.433 Q189.621 837.85 187.676 838.73 L187.676 821.369 Z" fill="#000000" fill-rule="evenodd" fill-opacity="1" /><path clip-path="url(#clip760)" d="M227.792 824.447 Q224.181 824.447 222.352 828.012 Q220.546 831.554 220.546 838.683 Q220.546 845.79 222.352 849.355 Q224.181 852.896 227.792 852.896 Q231.426 852.896 233.231 849.355 Q235.06 845.79 235.06 838.683 Q235.06 831.554 233.231 828.012 Q231.426 824.447 227.792 824.447 M227.792 820.744 Q233.602 820.744 236.657 825.35 Q239.736 829.934 239.736 838.683 Q239.736 847.41 236.657 852.017 Q233.602 856.6 227.792 856.6 Q221.981 856.6 218.903 852.017 Q215.847 847.41 215.847 838.683 Q215.847 829.934 218.903 825.35 Q221.981 820.744 227.792 820.744 Z" fill="#000000" fill-rule="evenodd" fill-opacity="1" /><path clip-path="url(#clip760)" d="M123.232 538.156 Q119.621 538.156 117.792 541.72 Q115.987 545.262 115.987 552.392 Q115.987 559.498 117.792 563.063 Q119.621 566.605 123.232 566.605 Q126.866 566.605 128.672 563.063 Q130.5 559.498 130.5 552.392 Q130.5 545.262 128.672 541.72 Q126.866 538.156 123.232 538.156 M123.232 534.452 Q129.042 534.452 132.098 539.058 Q135.176 543.642 135.176 552.392 Q135.176 561.118 132.098 565.725 Q129.042 570.308 123.232 570.308 Q117.422 570.308 114.343 565.725 Q111.288 561.118 111.288 552.392 Q111.288 543.642 114.343 539.058 Q117.422 534.452 123.232 534.452 Z" fill="#000000" fill-rule="evenodd" fill-opacity="1" /><path clip-path="url(#clip760)" d="M143.394 563.757 L148.278 563.757 L148.278 569.637 L143.394 569.637 L143.394 563.757 Z" fill="#000000" fill-rule="evenodd" fill-opacity="1" /><path clip-path="url(#clip760)" d="M168.463 538.156 Q164.852 538.156 163.023 541.72 Q161.218 545.262 161.218 552.392 Q161.218 559.498 163.023 563.063 Q164.852 566.605 168.463 566.605 Q172.097 566.605 173.903 563.063 Q175.732 559.498 175.732 552.392 Q175.732 545.262 173.903 541.72 Q172.097 538.156 168.463 538.156 M168.463 534.452 Q174.273 534.452 177.329 539.058 Q180.408 543.642 180.408 552.392 Q180.408 561.118 177.329 565.725 Q174.273 570.308 168.463 570.308 Q162.653 570.308 159.574 565.725 Q156.519 561.118 156.519 552.392 Q156.519 543.642 159.574 539.058 Q162.653 534.452 168.463 534.452 Z" fill="#000000" fill-rule="evenodd" fill-opacity="1" /><path clip-path="url(#clip760)" d="M187.445 535.077 L209.667 535.077 L209.667 537.068 L197.12 569.637 L192.236 569.637 L204.042 539.012 L187.445 539.012 L187.445 535.077 Z" fill="#000000" fill-rule="evenodd" fill-opacity="1" /><path clip-path="url(#clip760)" d="M218.833 535.077 L237.19 535.077 L237.19 539.012 L223.116 539.012 L223.116 547.484 Q224.134 547.137 225.153 546.975 Q226.171 546.79 227.19 546.79 Q232.977 546.79 236.356 549.961 Q239.736 553.132 239.736 558.549 Q239.736 564.128 236.264 567.23 Q232.792 570.308 226.472 570.308 Q224.296 570.308 222.028 569.938 Q219.782 569.567 217.375 568.827 L217.375 564.128 Q219.458 565.262 221.681 565.817 Q223.903 566.373 226.38 566.373 Q230.384 566.373 232.722 564.267 Q235.06 562.16 235.06 558.549 Q235.06 554.938 232.722 552.831 Q230.384 550.725 226.38 550.725 Q224.505 550.725 222.63 551.142 Q220.778 551.558 218.833 552.438 L218.833 535.077 Z" fill="#000000" fill-rule="evenodd" fill-opacity="1" /><path clip-path="url(#clip760)" d="M122.237 251.864 Q118.626 251.864 116.797 255.429 Q114.991 258.97 114.991 266.1 Q114.991 273.206 116.797 276.771 Q118.626 280.313 122.237 280.313 Q125.871 280.313 127.676 276.771 Q129.505 273.206 129.505 266.1 Q129.505 258.97 127.676 255.429 Q125.871 251.864 122.237 251.864 M122.237 248.16 Q128.047 248.16 131.102 252.767 Q134.181 257.35 134.181 266.1 Q134.181 274.827 131.102 279.433 Q128.047 284.016 122.237 284.016 Q116.426 284.016 113.348 279.433 Q110.292 274.827 110.292 266.1 Q110.292 257.35 113.348 252.767 Q116.426 248.16 122.237 248.16 Z" fill="#000000" fill-rule="evenodd" fill-opacity="1" /><path clip-path="url(#clip760)" d="M142.399 277.465 L147.283 277.465 L147.283 283.345 L142.399 283.345 L142.399 277.465 Z" fill="#000000" fill-rule="evenodd" fill-opacity="1" /><path clip-path="url(#clip760)" d="M158.278 279.41 L165.917 279.41 L165.917 253.044 L157.607 254.711 L157.607 250.452 L165.871 248.785 L170.547 248.785 L170.547 279.41 L178.185 279.41 L178.185 283.345 L158.278 283.345 L158.278 279.41 Z" fill="#000000" fill-rule="evenodd" fill-opacity="1" /><path clip-path="url(#clip760)" d="M197.63 251.864 Q194.019 251.864 192.19 255.429 Q190.384 258.97 190.384 266.1 Q190.384 273.206 192.19 276.771 Q194.019 280.313 197.63 280.313 Q201.264 280.313 203.07 276.771 Q204.898 273.206 204.898 266.1 Q204.898 258.97 203.07 255.429 Q201.264 251.864 197.63 251.864 M197.63 248.16 Q203.44 248.16 206.495 252.767 Q209.574 257.35 209.574 266.1 Q209.574 274.827 206.495 279.433 Q203.44 284.016 197.63 284.016 Q191.82 284.016 188.741 279.433 Q185.685 274.827 185.685 266.1 Q185.685 257.35 188.741 252.767 Q191.82 248.16 197.63 248.16 Z" fill="#000000" fill-rule="evenodd" fill-opacity="1" /><path clip-path="url(#clip760)" d="M227.792 251.864 Q224.181 251.864 222.352 255.429 Q220.546 258.97 220.546 266.1 Q220.546 273.206 222.352 276.771 Q224.181 280.313 227.792 280.313 Q231.426 280.313 233.231 276.771 Q235.06 273.206 235.06 266.1 Q235.06 258.97 233.231 255.429 Q231.426 251.864 227.792 251.864 M227.792 248.16 Q233.602 248.16 236.657 252.767 Q239.736 257.35 239.736 266.1 Q239.736 274.827 236.657 279.433 Q233.602 284.016 227.792 284.016 Q221.981 284.016 218.903 279.433 Q215.847 274.827 215.847 266.1 Q215.847 257.35 218.903 252.767 Q221.981 248.16 227.792 248.16 Z" fill="#000000" fill-rule="evenodd" fill-opacity="1" /><path clip-path="url(#clip760)" d="M29.3925 781.863 Q32.9996 781.863 36.3168 784.536 Q39.634 787.177 41.663 791.492 Q43.6597 795.776 43.6597 800.381 L43.6597 811.589 L60.1491 815.679 Q60.2458 815.711 60.6644 815.808 Q61.0509 815.904 61.2763 815.904 Q62.0815 815.904 62.2747 814.906 Q62.468 813.875 62.468 811.589 Q62.468 810.107 62.7256 809.882 Q62.8866 809.753 63.1765 809.753 Q63.6274 809.753 63.9494 809.882 Q64.2393 810.011 64.3359 810.268 Q64.4325 810.494 64.4647 810.655 Q64.4969 810.816 64.4969 811.073 Q64.4969 811.75 64.4325 813.199 Q64.3681 814.616 64.3681 815.357 L64.3037 819.576 L64.4969 827.949 Q64.4969 828.948 63.6918 828.948 Q63.0799 828.948 62.8222 828.69 Q62.5324 828.432 62.5002 828.143 Q62.468 827.853 62.468 827.112 Q62.468 825.502 62.3713 824.535 Q62.2747 823.569 62.1459 822.957 Q61.9849 822.313 61.534 821.991 Q61.0831 821.637 60.6966 821.476 Q60.278 821.315 59.344 821.089 L23.9175 812.265 Q22.8547 812.007 22.6937 812.007 Q22.1462 812.007 21.953 812.329 Q21.7275 812.619 21.6309 813.457 Q21.5021 815.067 21.5021 816.291 Q21.5021 817.096 21.4699 817.418 Q21.4377 817.708 21.2767 817.965 Q21.0834 818.191 20.697 818.191 Q20.085 818.191 19.8274 817.933 Q19.5375 817.643 19.5053 817.321 Q19.4409 816.999 19.4409 816.226 L19.4409 794.842 Q19.4409 788.69 22.3717 785.277 Q25.3024 781.863 29.3925 781.863 M27.8145 787.982 Q21.5021 787.982 21.5021 796.967 L21.5021 803.28 Q21.5021 805.373 21.8886 805.888 Q22.2428 806.404 24.0142 806.854 L41.9528 811.331 L41.9528 802.024 Q41.9528 795.776 38.4424 791.879 Q36.8321 790.107 33.4827 789.045 Q30.1333 787.982 27.8145 787.982 Z" fill="#000000" fill-rule="evenodd" fill-opacity="1" /><path clip-path="url(#clip760)" d="M48.0075 774.625 Q36.8643 774.625 27.8789 770.47 Q24.1108 768.699 20.9546 766.219 Q17.7984 763.739 16.4136 762.097 Q15.0287 760.454 15.0287 760.004 Q15.0287 759.359 15.6728 759.327 Q15.9949 759.327 16.8 760.197 Q27.6212 770.825 48.0075 770.793 Q68.4582 770.793 78.8607 760.454 Q79.9879 759.327 80.3422 759.327 Q80.9863 759.327 80.9863 760.004 Q80.9863 760.454 79.6659 762.033 Q78.3454 763.611 75.3181 766.058 Q72.2907 768.506 68.5871 770.277 Q59.6016 774.625 48.0075 774.625 Z" fill="#000000" fill-rule="evenodd" fill-opacity="1" /><path clip-path="url(#clip760)" d="M55.0606 700.272 Q55.3183 700.272 56.3166 700.562 Q57.315 700.852 58.8609 701.56 Q60.4068 702.237 61.8238 703.203 Q63.2087 704.137 64.2393 705.683 Q65.2377 707.196 65.2377 708.936 Q65.2377 711.254 63.6918 712.8 Q62.1459 714.346 59.8271 714.346 Q58.571 714.346 56.1878 713.477 Q45.3022 709.386 41.4053 709.386 Q36.7999 709.386 36.7999 712.961 Q36.7999 714.99 37.6372 716.826 Q38.4746 718.662 39.634 719.853 Q40.7934 721.045 42.1139 721.979 Q43.4343 722.913 44.3039 723.332 Q45.1734 723.718 45.5599 723.815 L61.4696 727.776 Q62.8222 728.098 63.4663 728.323 Q64.1105 728.549 64.658 729.161 Q65.2377 729.773 65.2377 730.739 Q65.2377 731.544 64.7546 732.124 Q64.2715 732.671 63.4341 732.671 Q63.3053 732.671 62.629 732.51 Q61.9527 732.349 61.0187 732.124 Q60.0847 731.898 59.5372 731.802 Q55.1572 730.642 54.5453 730.481 L46.8803 728.646 Q43.08 727.647 41.4053 727.647 Q36.7999 727.647 36.7999 731.222 Q36.7999 732.993 37.4762 734.668 Q38.1203 736.311 39.0221 737.438 Q39.9239 738.565 41.1799 739.596 Q42.4037 740.594 43.2411 741.109 Q44.0462 741.592 44.8514 741.979 L48.1364 742.816 Q49.0381 743.009 52.5486 743.943 L58.5066 745.393 Q62.951 746.423 63.3697 746.649 Q64.2715 746.971 64.7546 747.679 Q65.2377 748.388 65.2377 749.096 Q65.2377 749.901 64.7546 750.449 Q64.2715 750.996 63.4341 750.996 Q63.3053 750.996 62.8222 750.9 Q62.3391 750.803 61.6628 750.642 Q60.9865 750.481 60.6 750.417 L45.3666 746.584 Q42.5969 745.876 41.7274 745.715 Q40.8256 745.521 39.8272 745.521 Q36.7999 745.521 36.7999 747.583 Q36.7999 749.257 38.7967 750.352 Q40.7934 751.447 44.6581 752.381 Q45.7209 752.671 45.9464 752.864 Q46.1718 753.025 46.1718 753.508 Q46.1396 754.314 45.4955 754.314 Q45.3344 754.314 44.3039 754.056 Q43.2733 753.798 41.7274 753.315 Q40.1493 752.8 39.1187 752.252 Q38.4424 751.93 37.9915 751.641 Q37.5406 751.351 36.8321 750.771 Q36.1236 750.191 35.7371 749.322 Q35.3506 748.452 35.3506 747.389 Q35.3506 745.038 36.8643 743.299 Q38.378 741.528 41.0833 741.302 Q35.3506 737.019 35.3506 731.029 Q35.3506 727.647 37.0575 725.618 Q38.7 723.718 41.7274 723.493 Q35.3506 719.048 35.3506 712.736 Q35.3506 709.097 37.2508 707.132 Q39.1187 705.167 42.4037 705.167 Q44.1106 705.167 47.3634 706.037 Q50.584 706.907 52.1943 707.486 Q53.8046 708.066 56.8963 709.193 Q59.8593 710.385 61.5984 710.385 Q62.7256 710.385 63.2409 709.998 Q63.7562 709.612 63.7562 708.775 Q63.7562 707.486 63.0155 706.359 Q62.2425 705.232 60.9865 704.427 Q59.6983 703.589 58.41 703.042 Q57.0896 702.494 55.6081 702.076 Q54.803 701.818 54.6097 701.689 Q54.4165 701.528 54.4165 701.077 Q54.4165 700.272 55.0606 700.272 Z" fill="#000000" fill-rule="evenodd" fill-opacity="1" /><path clip-path="url(#clip760)" d="M80.3422 694.584 Q80.0202 694.584 79.215 693.747 Q68.3938 683.119 48.0075 683.119 Q27.5568 683.119 17.2187 693.328 Q16.0271 694.584 15.6728 694.584 Q15.0287 694.584 15.0287 693.94 Q15.0287 693.489 16.3492 691.911 Q17.6696 690.301 20.697 687.885 Q23.7243 685.438 27.428 683.634 Q36.4134 679.286 48.0075 679.286 Q59.1508 679.286 68.1362 683.441 Q71.9043 685.212 75.0605 687.692 Q78.2166 690.172 79.6015 691.814 Q80.9863 693.457 80.9863 693.94 Q80.9863 694.584 80.3422 694.584 Z" fill="#000000" fill-rule="evenodd" fill-opacity="1" /><polyline clip-path="url(#clip762)" style="stroke:#009fe3; stroke-linecap:butt; stroke-linejoin:round; stroke-width:20; stroke-opacity:0.996078; fill:none" points="
  334.52,1411.23 334.52,1411.14 392.151,1411.14 392.151,1410.23 449.782,1410.23 449.782,1405.21 507.412,1405.21 507.412,1387.89 565.043,1387.89 565.043,1341.7 
  622.674,1341.7 622.674,1247.15 680.305,1247.15 680.305,1090.09 737.936,1090.09 737.936,870.522 795.567,870.522 795.567,614.589 853.198,614.589 853.198,367.209 
  910.829,367.209 910.829,178.069 968.46,178.069 968.46,88.3261 1026.09,88.3261 1026.09,108.08 1083.72,108.08 1083.72,225.362 1141.35,225.362 1141.35,408.6 
  1198.98,408.6 1198.98,620.346 1256.61,620.346 1256.61,825.729 1314.25,825.729 1314.25,1003.79 1371.88,1003.79 1371.88,1141.83 1429.51,1141.83 1429.51,1243.24 
  1487.14,1243.24 1487.14,1312.29 1544.77,1312.29 1544.77,1354.81 1602.4,1354.81 1602.4,1380.56 1660.03,1380.56 1660.03,1395.54 1717.66,1395.54 1717.66,1403.55 
  1775.29,1403.55 1775.29,1407.47 1832.92,1407.47 1832.92,1409.54 1890.56,1409.54 1890.56,1410.48 1948.19,1410.48 1948.19,1410.9 2005.82,1410.9 2005.82,1411.12 
  2063.45,1411.12 2063.45,1411.19 2121.08,1411.19 2121.08,1411.21 2178.71,1411.21 2178.71,1411.22 2236.34,1411.22 2236.34,1411.23 2293.97,1411.23 2293.97,1411.23 
  
  "/>
<circle clip-path="url(#clip762)" cx="334.52" cy="1411.15" r="14" fill="#ff00ff" fill-rule="evenodd" fill-opacity="1" stroke="none"/>
<circle clip-path="url(#clip762)" cx="392.151" cy="1410.21" r="14" fill="#ff00ff" fill-rule="evenodd" fill-opacity="1" stroke="none"/>
<circle clip-path="url(#clip762)" cx="449.782" cy="1405.2" r="14" fill="#ff00ff" fill-rule="evenodd" fill-opacity="1" stroke="none"/>
<circle clip-path="url(#clip762)" cx="507.412" cy="1387.59" r="14" fill="#ff00ff" fill-rule="evenodd" fill-opacity="1" stroke="none"/>
<circle clip-path="url(#clip762)" cx="565.043" cy="1341.69" r="14" fill="#ff00ff" fill-rule="evenodd" fill-opacity="1" stroke="none"/>
<circle clip-path="url(#clip762)" cx="622.674" cy="1247.51" r="14" fill="#ff00ff" fill-rule="evenodd" fill-opacity="1" stroke="none"/>
<circle clip-path="url(#clip762)" cx="680.305" cy="1089.84" r="14" fill="#ff00ff" fill-rule="evenodd" fill-opacity="1" stroke="none"/>
<circle clip-path="url(#clip762)" cx="737.936" cy="870.186" r="14" fill="#ff00ff" fill-rule="evenodd" fill-opacity="1" stroke="none"/>
<circle clip-path="url(#clip762)" cx="795.567" cy="613.842" r="14" fill="#ff00ff" fill-rule="evenodd" fill-opacity="1" stroke="none"/>
<circle clip-path="url(#clip762)" cx="853.198" cy="366.076" r="14" fill="#ff00ff" fill-rule="evenodd" fill-opacity="1" stroke="none"/>
<circle clip-path="url(#clip762)" cx="910.829" cy="177.672" r="14" fill="#ff00ff" fill-rule="evenodd" fill-opacity="1" stroke="none"/>
<circle clip-path="url(#clip762)" cx="968.46" cy="86.9719" r="14" fill="#ff00ff" fill-rule="evenodd" fill-opacity="1" stroke="none"/>
<circle clip-path="url(#clip762)" cx="1026.09" cy="107.393" r="14" fill="#ff00ff" fill-rule="evenodd" fill-opacity="1" stroke="none"/>
<circle clip-path="url(#clip762)" cx="1083.72" cy="225.632" r="14" fill="#ff00ff" fill-rule="evenodd" fill-opacity="1" stroke="none"/>
<circle clip-path="url(#clip762)" cx="1141.35" cy="409.632" r="14" fill="#ff00ff" fill-rule="evenodd" fill-opacity="1" stroke="none"/>
<circle clip-path="url(#clip762)" cx="1198.98" cy="621.076" r="14" fill="#ff00ff" fill-rule="evenodd" fill-opacity="1" stroke="none"/>
<circle clip-path="url(#clip762)" cx="1256.61" cy="826.539" r="14" fill="#ff00ff" fill-rule="evenodd" fill-opacity="1" stroke="none"/>
<circle clip-path="url(#clip762)" cx="1314.25" cy="1003.81" r="14" fill="#ff00ff" fill-rule="evenodd" fill-opacity="1" stroke="none"/>
<circle clip-path="url(#clip762)" cx="1371.88" cy="1142.97" r="14" fill="#ff00ff" fill-rule="evenodd" fill-opacity="1" stroke="none"/>
<circle clip-path="url(#clip762)" cx="1429.51" cy="1243.81" r="14" fill="#ff00ff" fill-rule="evenodd" fill-opacity="1" stroke="none"/>
<circle clip-path="url(#clip762)" cx="1487.14" cy="1311.92" r="14" fill="#ff00ff" fill-rule="evenodd" fill-opacity="1" stroke="none"/>
<circle clip-path="url(#clip762)" cx="1544.77" cy="1355.09" r="14" fill="#ff00ff" fill-rule="evenodd" fill-opacity="1" stroke="none"/>
<circle clip-path="url(#clip762)" cx="1602.4" cy="1380.93" r="14" fill="#ff00ff" fill-rule="evenodd" fill-opacity="1" stroke="none"/>
<circle clip-path="url(#clip762)" cx="1660.03" cy="1395.58" r="14" fill="#ff00ff" fill-rule="evenodd" fill-opacity="1" stroke="none"/>
<circle clip-path="url(#clip762)" cx="1717.66" cy="1403.48" r="14" fill="#ff00ff" fill-rule="evenodd" fill-opacity="1" stroke="none"/>
<circle clip-path="url(#clip762)" cx="1775.29" cy="1407.54" r="14" fill="#ff00ff" fill-rule="evenodd" fill-opacity="1" stroke="none"/>
<circle clip-path="url(#clip762)" cx="1832.92" cy="1409.54" r="14" fill="#ff00ff" fill-rule="evenodd" fill-opacity="1" stroke="none"/>
<circle clip-path="url(#clip762)" cx="1890.56" cy="1410.49" r="14" fill="#ff00ff" fill-rule="evenodd" fill-opacity="1" stroke="none"/>
<circle clip-path="url(#clip762)" cx="1948.19" cy="1410.92" r="14" fill="#ff00ff" fill-rule="evenodd" fill-opacity="1" stroke="none"/>
<circle clip-path="url(#clip762)" cx="2005.82" cy="1411.1" r="14" fill="#ff00ff" fill-rule="evenodd" fill-opacity="1" stroke="none"/>
<circle clip-path="url(#clip762)" cx="2063.45" cy="1411.18" r="14" fill="#ff00ff" fill-rule="evenodd" fill-opacity="1" stroke="none"/>
<circle clip-path="url(#clip762)" cx="2121.08" cy="1411.21" r="14" fill="#ff00ff" fill-rule="evenodd" fill-opacity="1" stroke="none"/>
<circle clip-path="url(#clip762)" cx="2178.71" cy="1411.23" r="14" fill="#ff00ff" fill-rule="evenodd" fill-opacity="1" stroke="none"/>
<circle clip-path="url(#clip762)" cx="2236.34" cy="1411.23" r="14" fill="#ff00ff" fill-rule="evenodd" fill-opacity="1" stroke="none"/>
<path clip-path="url(#clip760)" d="
M1606.17 249.555 L2283.52 249.555 L2283.52 94.0346 L1606.17 94.0346  Z
  " fill="#ffffff" fill-rule="evenodd" fill-opacity="1"/>
<polyline clip-path="url(#clip760)" style="stroke:#000000; stroke-linecap:butt; stroke-linejoin:round; stroke-width:4; stroke-opacity:1; fill:none" points="
  1606.17,249.555 2283.52,249.555 2283.52,94.0346 1606.17,94.0346 1606.17,249.555 
  "/>
<polyline clip-path="url(#clip760)" style="stroke:#009fe3; stroke-linecap:butt; stroke-linejoin:round; stroke-width:4; stroke-opacity:0.996078; fill:none" points="
  1629.25,145.875 1767.72,145.875 
  "/>
<path clip-path="url(#clip760)" d="M1813.04 129.729 L1813.04 134.289 Q1810.38 133.016 1808.02 132.391 Q1805.66 131.766 1803.46 131.766 Q1799.64 131.766 1797.55 133.247 Q1795.49 134.729 1795.49 137.46 Q1795.49 139.752 1796.86 140.933 Q1798.25 142.09 1802.09 142.808 L1804.91 143.386 Q1810.15 144.382 1812.62 146.905 Q1815.12 149.405 1815.12 153.618 Q1815.12 158.641 1811.74 161.233 Q1808.39 163.826 1801.88 163.826 Q1799.43 163.826 1796.65 163.27 Q1793.9 162.715 1790.93 161.627 L1790.93 156.812 Q1793.78 158.409 1796.51 159.219 Q1799.24 160.03 1801.88 160.03 Q1805.89 160.03 1808.06 158.456 Q1810.24 156.882 1810.24 153.965 Q1810.24 151.419 1808.66 149.983 Q1807.11 148.548 1803.55 147.831 L1800.7 147.275 Q1795.47 146.233 1793.13 144.011 Q1790.79 141.789 1790.79 137.831 Q1790.79 133.247 1794.01 130.609 Q1797.25 127.97 1802.92 127.97 Q1805.35 127.97 1807.88 128.409 Q1810.4 128.849 1813.04 129.729 Z" fill="#000000" fill-rule="evenodd" fill-opacity="1" /><path clip-path="url(#clip760)" d="M1822.23 137.229 L1826.49 137.229 L1826.49 163.155 L1822.23 163.155 L1822.23 137.229 M1822.23 127.136 L1826.49 127.136 L1826.49 132.53 L1822.23 132.53 L1822.23 127.136 Z" fill="#000000" fill-rule="evenodd" fill-opacity="1" /><path clip-path="url(#clip760)" d="M1855.59 142.206 Q1857.18 139.335 1859.4 137.97 Q1861.63 136.604 1864.64 136.604 Q1868.69 136.604 1870.89 139.451 Q1873.09 142.275 1873.09 147.507 L1873.09 163.155 L1868.8 163.155 L1868.8 147.645 Q1868.8 143.919 1867.48 142.113 Q1866.16 140.308 1863.46 140.308 Q1860.15 140.308 1858.22 142.507 Q1856.3 144.706 1856.3 148.502 L1856.3 163.155 L1852.02 163.155 L1852.02 147.645 Q1852.02 143.895 1850.7 142.113 Q1849.38 140.308 1846.63 140.308 Q1843.36 140.308 1841.44 142.53 Q1839.52 144.729 1839.52 148.502 L1839.52 163.155 L1835.24 163.155 L1835.24 137.229 L1839.52 137.229 L1839.52 141.257 Q1840.98 138.872 1843.02 137.738 Q1845.05 136.604 1847.85 136.604 Q1850.68 136.604 1852.65 138.039 Q1854.64 139.474 1855.59 142.206 Z" fill="#000000" fill-rule="evenodd" fill-opacity="1" /><path clip-path="url(#clip760)" d="M1881.14 152.923 L1881.14 137.229 L1885.4 137.229 L1885.4 152.761 Q1885.4 156.442 1886.84 158.294 Q1888.27 160.122 1891.14 160.122 Q1894.59 160.122 1896.58 157.923 Q1898.59 155.724 1898.59 151.928 L1898.59 137.229 L1902.85 137.229 L1902.85 163.155 L1898.59 163.155 L1898.59 159.173 Q1897.04 161.534 1894.98 162.692 Q1892.95 163.826 1890.24 163.826 Q1885.77 163.826 1883.46 161.048 Q1881.14 158.27 1881.14 152.923 M1891.86 136.604 L1891.86 136.604 Z" fill="#000000" fill-rule="evenodd" fill-opacity="1" /><path clip-path="url(#clip760)" d="M1911.63 127.136 L1915.89 127.136 L1915.89 163.155 L1911.63 163.155 L1911.63 127.136 Z" fill="#000000" fill-rule="evenodd" fill-opacity="1" /><path clip-path="url(#clip760)" d="M1936.58 150.122 Q1931.42 150.122 1929.43 151.303 Q1927.44 152.483 1927.44 155.331 Q1927.44 157.599 1928.92 158.942 Q1930.42 160.261 1932.99 160.261 Q1936.53 160.261 1938.66 157.761 Q1940.82 155.238 1940.82 151.071 L1940.82 150.122 L1936.58 150.122 M1945.08 148.363 L1945.08 163.155 L1940.82 163.155 L1940.82 159.219 Q1939.36 161.581 1937.18 162.715 Q1935.01 163.826 1931.86 163.826 Q1927.88 163.826 1925.52 161.604 Q1923.18 159.358 1923.18 155.608 Q1923.18 151.233 1926.09 149.011 Q1929.03 146.789 1934.84 146.789 L1940.82 146.789 L1940.82 146.372 Q1940.82 143.433 1938.87 141.835 Q1936.95 140.215 1933.46 140.215 Q1931.23 140.215 1929.13 140.747 Q1927.02 141.28 1925.08 142.345 L1925.08 138.409 Q1927.41 137.507 1929.61 137.067 Q1931.81 136.604 1933.9 136.604 Q1939.52 136.604 1942.3 139.521 Q1945.08 142.437 1945.08 148.363 Z" fill="#000000" fill-rule="evenodd" fill-opacity="1" /><path clip-path="url(#clip760)" d="M1958.06 129.868 L1958.06 137.229 L1966.83 137.229 L1966.83 140.539 L1958.06 140.539 L1958.06 154.613 Q1958.06 157.784 1958.92 158.687 Q1959.8 159.59 1962.46 159.59 L1966.83 159.59 L1966.83 163.155 L1962.46 163.155 Q1957.53 163.155 1955.65 161.326 Q1953.78 159.474 1953.78 154.613 L1953.78 140.539 L1950.65 140.539 L1950.65 137.229 L1953.78 137.229 L1953.78 129.868 L1958.06 129.868 Z" fill="#000000" fill-rule="evenodd" fill-opacity="1" /><path clip-path="url(#clip760)" d="M1972.44 137.229 L1976.7 137.229 L1976.7 163.155 L1972.44 163.155 L1972.44 137.229 M1972.44 127.136 L1976.7 127.136 L1976.7 132.53 L1972.44 132.53 L1972.44 127.136 Z" fill="#000000" fill-rule="evenodd" fill-opacity="1" /><path clip-path="url(#clip760)" d="M1995.65 140.215 Q1992.23 140.215 1990.24 142.9 Q1988.25 145.562 1988.25 150.215 Q1988.25 154.868 1990.21 157.553 Q1992.21 160.215 1995.65 160.215 Q1999.06 160.215 2001.05 157.53 Q2003.04 154.844 2003.04 150.215 Q2003.04 145.608 2001.05 142.923 Q1999.06 140.215 1995.65 140.215 M1995.65 136.604 Q2001.21 136.604 2004.38 140.215 Q2007.55 143.826 2007.55 150.215 Q2007.55 156.581 2004.38 160.215 Q2001.21 163.826 1995.65 163.826 Q1990.08 163.826 1986.9 160.215 Q1983.76 156.581 1983.76 150.215 Q1983.76 143.826 1986.9 140.215 Q1990.08 136.604 1995.65 136.604 Z" fill="#000000" fill-rule="evenodd" fill-opacity="1" /><path clip-path="url(#clip760)" d="M2036.16 147.507 L2036.16 163.155 L2031.9 163.155 L2031.9 147.645 Q2031.9 143.965 2030.47 142.136 Q2029.03 140.308 2026.16 140.308 Q2022.71 140.308 2020.72 142.507 Q2018.73 144.706 2018.73 148.502 L2018.73 163.155 L2014.45 163.155 L2014.45 137.229 L2018.73 137.229 L2018.73 141.257 Q2020.26 138.919 2022.32 137.761 Q2024.4 136.604 2027.11 136.604 Q2031.58 136.604 2033.87 139.382 Q2036.16 142.136 2036.16 147.507 Z" fill="#000000" fill-rule="evenodd" fill-opacity="1" /><circle clip-path="url(#clip760)" cx="1698.48" cy="197.715" r="23" fill="#ff00ff" fill-rule="evenodd" fill-opacity="1" stroke="none"/>
<path clip-path="url(#clip760)" d="M1790.79 180.435 L1795.47 180.435 L1795.47 211.059 L1812.3 211.059 L1812.3 214.995 L1790.79 214.995 L1790.79 180.435 Z" fill="#000000" fill-rule="evenodd" fill-opacity="1" /><path clip-path="url(#clip760)" d="M1817.21 180.435 L1823.5 180.435 L1838.83 209.347 L1838.83 180.435 L1843.36 180.435 L1843.36 214.995 L1837.07 214.995 L1821.74 186.083 L1821.74 214.995 L1817.21 214.995 L1817.21 180.435 Z" fill="#000000" fill-rule="evenodd" fill-opacity="1" /><path clip-path="url(#clip760)" d="M1864.22 185.041 L1857.88 202.24 L1870.59 202.24 L1864.22 185.041 M1861.58 180.435 L1866.88 180.435 L1880.05 214.995 L1875.19 214.995 L1872.04 206.129 L1856.47 206.129 L1853.32 214.995 L1848.39 214.995 L1861.58 180.435 Z" fill="#000000" fill-rule="evenodd" fill-opacity="1" /><path clip-path="url(#clip760)" d="M1911.72 185.041 L1905.38 202.24 L1918.09 202.24 L1911.72 185.041 M1909.08 180.435 L1914.38 180.435 L1927.55 214.995 L1922.69 214.995 L1919.54 206.129 L1903.96 206.129 L1900.82 214.995 L1895.89 214.995 L1909.08 180.435 Z" fill="#000000" fill-rule="evenodd" fill-opacity="1" /><path clip-path="url(#clip760)" d="M1936.53 211.106 L1936.53 224.856 L1932.25 224.856 L1932.25 189.069 L1936.53 189.069 L1936.53 193.004 Q1937.88 190.689 1939.91 189.578 Q1941.97 188.444 1944.82 188.444 Q1949.54 188.444 1952.48 192.194 Q1955.45 195.944 1955.45 202.055 Q1955.45 208.166 1952.48 211.916 Q1949.54 215.666 1944.82 215.666 Q1941.97 215.666 1939.91 214.555 Q1937.88 213.421 1936.53 211.106 M1951.02 202.055 Q1951.02 197.356 1949.08 194.694 Q1947.16 192.009 1943.78 192.009 Q1940.4 192.009 1938.46 194.694 Q1936.53 197.356 1936.53 202.055 Q1936.53 206.754 1938.46 209.439 Q1940.4 212.101 1943.78 212.101 Q1947.16 212.101 1949.08 209.439 Q1951.02 206.754 1951.02 202.055 Z" fill="#000000" fill-rule="evenodd" fill-opacity="1" /><path clip-path="url(#clip760)" d="M1966.63 211.106 L1966.63 224.856 L1962.34 224.856 L1962.34 189.069 L1966.63 189.069 L1966.63 193.004 Q1967.97 190.689 1970.01 189.578 Q1972.07 188.444 1974.91 188.444 Q1979.64 188.444 1982.58 192.194 Q1985.54 195.944 1985.54 202.055 Q1985.54 208.166 1982.58 211.916 Q1979.64 215.666 1974.91 215.666 Q1972.07 215.666 1970.01 214.555 Q1967.97 213.421 1966.63 211.106 M1981.12 202.055 Q1981.12 197.356 1979.17 194.694 Q1977.25 192.009 1973.87 192.009 Q1970.49 192.009 1968.55 194.694 Q1966.63 197.356 1966.63 202.055 Q1966.63 206.754 1968.55 209.439 Q1970.49 212.101 1973.87 212.101 Q1977.25 212.101 1979.17 209.439 Q1981.12 206.754 1981.12 202.055 Z" fill="#000000" fill-rule="evenodd" fill-opacity="1" /><path clip-path="url(#clip760)" d="M2007.62 193.05 Q2006.9 192.634 2006.05 192.448 Q2005.21 192.24 2004.2 192.24 Q2000.58 192.24 1998.64 194.601 Q1996.72 196.939 1996.72 201.337 L1996.72 214.995 L1992.44 214.995 L1992.44 189.069 L1996.72 189.069 L1996.72 193.097 Q1998.06 190.736 2000.21 189.601 Q2002.37 188.444 2005.45 188.444 Q2005.89 188.444 2006.42 188.513 Q2006.95 188.56 2007.6 188.675 L2007.62 193.05 Z" fill="#000000" fill-rule="evenodd" fill-opacity="1" /><path clip-path="url(#clip760)" d="M2021.09 192.055 Q2017.67 192.055 2015.68 194.74 Q2013.69 197.402 2013.69 202.055 Q2013.69 206.708 2015.65 209.393 Q2017.64 212.055 2021.09 212.055 Q2024.5 212.055 2026.49 209.37 Q2028.48 206.684 2028.48 202.055 Q2028.48 197.448 2026.49 194.763 Q2024.5 192.055 2021.09 192.055 M2021.09 188.444 Q2026.65 188.444 2029.82 192.055 Q2032.99 195.666 2032.99 202.055 Q2032.99 208.421 2029.82 212.055 Q2026.65 215.666 2021.09 215.666 Q2015.52 215.666 2012.34 212.055 Q2009.2 208.421 2009.2 202.055 Q2009.2 195.666 2012.34 192.055 Q2015.52 188.444 2021.09 188.444 Z" fill="#000000" fill-rule="evenodd" fill-opacity="1" /><path clip-path="url(#clip760)" d="M2060.14 189.069 L2050.77 201.685 L2060.63 214.995 L2055.61 214.995 L2048.06 204.81 L2040.52 214.995 L2035.49 214.995 L2045.56 201.43 L2036.35 189.069 L2041.37 189.069 L2048.25 198.305 L2055.12 189.069 L2060.14 189.069 Z" fill="#000000" fill-rule="evenodd" fill-opacity="1" /><path clip-path="url(#clip760)" d="M2066.65 189.069 L2070.91 189.069 L2070.91 214.995 L2066.65 214.995 L2066.65 189.069 M2066.65 178.976 L2070.91 178.976 L2070.91 184.37 L2066.65 184.37 L2066.65 178.976 Z" fill="#000000" fill-rule="evenodd" fill-opacity="1" /><path clip-path="url(#clip760)" d="M2100.01 194.046 Q2101.6 191.175 2103.82 189.81 Q2106.05 188.444 2109.06 188.444 Q2113.11 188.444 2115.31 191.291 Q2117.51 194.115 2117.51 199.347 L2117.51 214.995 L2113.22 214.995 L2113.22 199.485 Q2113.22 195.759 2111.9 193.953 Q2110.58 192.148 2107.88 192.148 Q2104.57 192.148 2102.64 194.347 Q2100.72 196.546 2100.72 200.342 L2100.72 214.995 L2096.44 214.995 L2096.44 199.485 Q2096.44 195.735 2095.12 193.953 Q2093.8 192.148 2091.05 192.148 Q2087.78 192.148 2085.86 194.37 Q2083.94 196.569 2083.94 200.342 L2083.94 214.995 L2079.66 214.995 L2079.66 189.069 L2083.94 189.069 L2083.94 193.097 Q2085.4 190.712 2087.44 189.578 Q2089.47 188.444 2092.27 188.444 Q2095.1 188.444 2097.07 189.879 Q2099.06 191.314 2100.01 194.046 Z" fill="#000000" fill-rule="evenodd" fill-opacity="1" /><path clip-path="url(#clip760)" d="M2137.78 201.962 Q2132.62 201.962 2130.63 203.143 Q2128.64 204.323 2128.64 207.171 Q2128.64 209.439 2130.12 210.782 Q2131.63 212.101 2134.2 212.101 Q2137.74 212.101 2139.87 209.601 Q2142.02 207.078 2142.02 202.911 L2142.02 201.962 L2137.78 201.962 M2146.28 200.203 L2146.28 214.995 L2142.02 214.995 L2142.02 211.059 Q2140.56 213.421 2138.38 214.555 Q2136.21 215.666 2133.06 215.666 Q2129.08 215.666 2126.72 213.444 Q2124.38 211.198 2124.38 207.448 Q2124.38 203.073 2127.3 200.851 Q2130.24 198.629 2136.05 198.629 L2142.02 198.629 L2142.02 198.212 Q2142.02 195.273 2140.07 193.675 Q2138.15 192.055 2134.66 192.055 Q2132.44 192.055 2130.33 192.587 Q2128.22 193.12 2126.28 194.185 L2126.28 190.249 Q2128.62 189.347 2130.82 188.907 Q2133.01 188.444 2135.1 188.444 Q2140.72 188.444 2143.5 191.361 Q2146.28 194.277 2146.28 200.203 Z" fill="#000000" fill-rule="evenodd" fill-opacity="1" /><path clip-path="url(#clip760)" d="M2159.26 181.708 L2159.26 189.069 L2168.04 189.069 L2168.04 192.379 L2159.26 192.379 L2159.26 206.453 Q2159.26 209.624 2160.12 210.527 Q2161 211.43 2163.66 211.43 L2168.04 211.43 L2168.04 214.995 L2163.66 214.995 Q2158.73 214.995 2156.86 213.166 Q2154.98 211.314 2154.98 206.453 L2154.98 192.379 L2151.86 192.379 L2151.86 189.069 L2154.98 189.069 L2154.98 181.708 L2159.26 181.708 Z" fill="#000000" fill-rule="evenodd" fill-opacity="1" /><path clip-path="url(#clip760)" d="M2173.64 189.069 L2177.9 189.069 L2177.9 214.995 L2173.64 214.995 L2173.64 189.069 M2173.64 178.976 L2177.9 178.976 L2177.9 184.37 L2173.64 184.37 L2173.64 178.976 Z" fill="#000000" fill-rule="evenodd" fill-opacity="1" /><path clip-path="url(#clip760)" d="M2196.86 192.055 Q2193.43 192.055 2191.44 194.74 Q2189.45 197.402 2189.45 202.055 Q2189.45 206.708 2191.42 209.393 Q2193.41 212.055 2196.86 212.055 Q2200.26 212.055 2202.25 209.37 Q2204.24 206.684 2204.24 202.055 Q2204.24 197.448 2202.25 194.763 Q2200.26 192.055 2196.86 192.055 M2196.86 188.444 Q2202.41 188.444 2205.58 192.055 Q2208.75 195.666 2208.75 202.055 Q2208.75 208.421 2205.58 212.055 Q2202.41 215.666 2196.86 215.666 Q2191.28 215.666 2188.11 212.055 Q2184.96 208.421 2184.96 202.055 Q2184.96 195.666 2188.11 192.055 Q2191.28 188.444 2196.86 188.444 Z" fill="#000000" fill-rule="evenodd" fill-opacity="1" /><path clip-path="url(#clip760)" d="M2237.37 199.347 L2237.37 214.995 L2233.11 214.995 L2233.11 199.485 Q2233.11 195.805 2231.67 193.976 Q2230.24 192.148 2227.37 192.148 Q2223.92 192.148 2221.93 194.347 Q2219.94 196.546 2219.94 200.342 L2219.94 214.995 L2215.65 214.995 L2215.65 189.069 L2219.94 189.069 L2219.94 193.097 Q2221.46 190.759 2223.52 189.601 Q2225.61 188.444 2228.32 188.444 Q2232.78 188.444 2235.07 191.222 Q2237.37 193.976 2237.37 199.347 Z" fill="#000000" fill-rule="evenodd" fill-opacity="1" /></svg>
