<?xml version="1.0" encoding="utf-8"?>
<svg xmlns="http://www.w3.org/2000/svg" xmlns:xlink="http://www.w3.org/1999/xlink" width="600" height="400" viewBox="0 0 2400 1600">
<defs>
  <clipPath id="clip680">
    <rect x="0" y="0" width="2400" height="1600"/>
  </clipPath>
</defs>
<path clip-path="url(#clip680)" d="
M0 1600 L2400 1600 L2400 0 L0 0  Z
  " fill="#ffffff" fill-rule="evenodd" fill-opacity="1"/>
<defs>
  <clipPath id="clip681">
    <rect x="480" y="0" width="1681" height="1600"/>
  </clipPath>
</defs>
<defs>
  <clipPath id="clip682">
    <rect x="276" y="47" width="2078" height="1397"/>
  </clipPath>
</defs>
<path clip-path="url(#clip680)" d="
M276.222 1443.01 L2352.76 1443.01 L2352.76 47.2441 L276.222 47.2441  Z
  " fill="#ffffff" fill-rule="evenodd" fill-opacity="1"/>
<polyline clip-path="url(#clip680)" style="stroke:#000000; stroke-linecap:butt; stroke-linejoin:round; stroke-width:4; stroke-opacity:1; fill:none" points="
  276.222,1443.01 2352.76,1443.01 
  "/>
<polyline clip-path="url(#clip680)" style="stroke:#000000; stroke-linecap:butt; stroke-linejoin:round; stroke-width:4; stroke-opacity:1; fill:none" points="
  487.306,1443.01 487.306,1424.11 
  "/>
<polyline clip-path="url(#clip680)" style="stroke:#000000; stroke-linecap:butt; stroke-linejoin:round; stroke-width:4; stroke-opacity:1; fill:none" points="
  955.965,1443.01 955.965,1424.11 
  "/>
<polyline clip-path="url(#clip680)" style="stroke:#000000; stroke-linecap:butt; stroke-linejoin:round; stroke-width:4; stroke-opacity:1; fill:none" points="
  1424.62,1443.01 1424.62,1424.11 
  "/>
<polyline clip-path="url(#clip680)" style="stroke:#000000; stroke-linecap:butt; stroke-linejoin:round; stroke-width:4; stroke-opacity:1; fill:none" points="
  1893.28,1443.01 1893.28,1424.11 
  "/>
<path clip-path="url(#clip680)" d="M450.998 1499.75 L467.318 1499.75 L467.318 1503.68 L445.373 1503.68 L445.373 1499.75 Q448.035 1496.99 452.619 1492.36 Q457.225 1487.71 458.406 1486.37 Q460.651 1483.85 461.531 1482.11 Q462.434 1480.35 462.434 1478.66 Q462.434 1475.91 460.489 1474.17 Q458.568 1472.43 455.466 1472.43 Q453.267 1472.43 450.813 1473.2 Q448.383 1473.96 445.605 1475.51 L445.605 1470.79 Q448.429 1469.66 450.883 1469.08 Q453.336 1468.5 455.373 1468.5 Q460.744 1468.5 463.938 1471.18 Q467.133 1473.87 467.133 1478.36 Q467.133 1480.49 466.322 1482.41 Q465.535 1484.31 463.429 1486.9 Q462.85 1487.57 459.748 1490.79 Q456.647 1493.99 450.998 1499.75 Z" fill="#000000" fill-rule="evenodd" fill-opacity="1" /><path clip-path="url(#clip680)" d="M487.132 1472.2 Q483.521 1472.2 481.693 1475.77 Q479.887 1479.31 479.887 1486.44 Q479.887 1493.55 481.693 1497.11 Q483.521 1500.65 487.132 1500.65 Q490.767 1500.65 492.572 1497.11 Q494.401 1493.55 494.401 1486.44 Q494.401 1479.31 492.572 1475.77 Q490.767 1472.2 487.132 1472.2 M487.132 1468.5 Q492.943 1468.5 495.998 1473.11 Q499.077 1477.69 499.077 1486.44 Q499.077 1495.17 495.998 1499.77 Q492.943 1504.36 487.132 1504.36 Q481.322 1504.36 478.244 1499.77 Q475.188 1495.17 475.188 1486.44 Q475.188 1477.69 478.244 1473.11 Q481.322 1468.5 487.132 1468.5 Z" fill="#000000" fill-rule="evenodd" fill-opacity="1" /><path clip-path="url(#clip680)" d="M517.294 1472.2 Q513.683 1472.2 511.855 1475.77 Q510.049 1479.31 510.049 1486.44 Q510.049 1493.55 511.855 1497.11 Q513.683 1500.65 517.294 1500.65 Q520.929 1500.65 522.734 1497.11 Q524.563 1493.55 524.563 1486.44 Q524.563 1479.31 522.734 1475.77 Q520.929 1472.2 517.294 1472.2 M517.294 1468.5 Q523.104 1468.5 526.16 1473.11 Q529.239 1477.69 529.239 1486.44 Q529.239 1495.17 526.16 1499.77 Q523.104 1504.36 517.294 1504.36 Q511.484 1504.36 508.405 1499.77 Q505.35 1495.17 505.35 1486.44 Q505.35 1477.69 508.405 1473.11 Q511.484 1468.5 517.294 1468.5 Z" fill="#000000" fill-rule="evenodd" fill-opacity="1" /><path clip-path="url(#clip680)" d="M929.055 1473.2 L917.25 1491.65 L929.055 1491.65 L929.055 1473.2 M927.829 1469.12 L933.708 1469.12 L933.708 1491.65 L938.639 1491.65 L938.639 1495.54 L933.708 1495.54 L933.708 1503.68 L929.055 1503.68 L929.055 1495.54 L913.454 1495.54 L913.454 1491.02 L927.829 1469.12 Z" fill="#000000" fill-rule="evenodd" fill-opacity="1" /><path clip-path="url(#clip680)" d="M956.37 1472.2 Q952.759 1472.2 950.93 1475.77 Q949.125 1479.31 949.125 1486.44 Q949.125 1493.55 950.93 1497.11 Q952.759 1500.65 956.37 1500.65 Q960.004 1500.65 961.81 1497.11 Q963.639 1493.55 963.639 1486.44 Q963.639 1479.31 961.81 1475.77 Q960.004 1472.2 956.37 1472.2 M956.37 1468.5 Q962.18 1468.5 965.236 1473.11 Q968.314 1477.69 968.314 1486.44 Q968.314 1495.17 965.236 1499.77 Q962.18 1504.36 956.37 1504.36 Q950.56 1504.36 947.481 1499.77 Q944.426 1495.17 944.426 1486.44 Q944.426 1477.69 947.481 1473.11 Q950.56 1468.5 956.37 1468.5 Z" fill="#000000" fill-rule="evenodd" fill-opacity="1" /><path clip-path="url(#clip680)" d="M986.532 1472.2 Q982.921 1472.2 981.092 1475.77 Q979.287 1479.31 979.287 1486.44 Q979.287 1493.55 981.092 1497.11 Q982.921 1500.65 986.532 1500.65 Q990.166 1500.65 991.972 1497.11 Q993.8 1493.55 993.8 1486.44 Q993.8 1479.31 991.972 1475.77 Q990.166 1472.2 986.532 1472.2 M986.532 1468.5 Q992.342 1468.5 995.398 1473.11 Q998.476 1477.69 998.476 1486.44 Q998.476 1495.17 995.398 1499.77 Q992.342 1504.36 986.532 1504.36 Q980.722 1504.36 977.643 1499.77 Q974.588 1495.17 974.588 1486.44 Q974.588 1477.69 977.643 1473.11 Q980.722 1468.5 986.532 1468.5 Z" fill="#000000" fill-rule="evenodd" fill-opacity="1" /><path clip-path="url(#clip680)" d="M1394.95 1484.54 Q1391.8 1484.54 1389.95 1486.69 Q1388.12 1488.85 1388.12 1492.6 Q1388.12 1496.32 1389.95 1498.5 Q1391.8 1500.65 1394.95 1500.65 Q1398.1 1500.65 1399.92 1498.5 Q1401.78 1496.32 1401.78 1492.6 Q1401.78 1488.85 1399.92 1486.69 Q1398.1 1484.54 1394.95 1484.54 M1404.23 1469.89 L1404.23 1474.15 Q1402.47 1473.31 1400.67 1472.87 Q1398.88 1472.43 1397.12 1472.43 Q1392.49 1472.43 1390.04 1475.56 Q1387.61 1478.68 1387.26 1485 Q1388.63 1482.99 1390.69 1481.93 Q1392.75 1480.84 1395.23 1480.84 Q1400.43 1480.84 1403.44 1484.01 Q1406.48 1487.16 1406.48 1492.6 Q1406.48 1497.92 1403.33 1501.14 Q1400.18 1504.36 1394.95 1504.36 Q1388.95 1504.36 1385.78 1499.77 Q1382.61 1495.17 1382.61 1486.44 Q1382.61 1478.24 1386.5 1473.38 Q1390.39 1468.5 1396.94 1468.5 Q1398.7 1468.5 1400.48 1468.85 Q1402.29 1469.19 1404.23 1469.89 Z" fill="#000000" fill-rule="evenodd" fill-opacity="1" /><path clip-path="url(#clip680)" d="M1424.53 1472.2 Q1420.92 1472.2 1419.09 1475.77 Q1417.29 1479.31 1417.29 1486.44 Q1417.29 1493.55 1419.09 1497.11 Q1420.92 1500.65 1424.53 1500.65 Q1428.17 1500.65 1429.97 1497.11 Q1431.8 1493.55 1431.8 1486.44 Q1431.8 1479.31 1429.97 1475.77 Q1428.17 1472.2 1424.53 1472.2 M1424.53 1468.5 Q1430.34 1468.5 1433.4 1473.11 Q1436.48 1477.69 1436.48 1486.44 Q1436.48 1495.17 1433.4 1499.77 Q1430.34 1504.36 1424.53 1504.36 Q1418.72 1504.36 1415.64 1499.77 Q1412.59 1495.17 1412.59 1486.44 Q1412.59 1477.69 1415.64 1473.11 Q1418.72 1468.5 1424.53 1468.5 Z" fill="#000000" fill-rule="evenodd" fill-opacity="1" /><path clip-path="url(#clip680)" d="M1454.69 1472.2 Q1451.08 1472.2 1449.25 1475.77 Q1447.45 1479.31 1447.45 1486.44 Q1447.45 1493.55 1449.25 1497.11 Q1451.08 1500.65 1454.69 1500.65 Q1458.33 1500.65 1460.13 1497.11 Q1461.96 1493.55 1461.96 1486.44 Q1461.96 1479.31 1460.13 1475.77 Q1458.33 1472.2 1454.69 1472.2 M1454.69 1468.5 Q1460.5 1468.5 1463.56 1473.11 Q1466.64 1477.69 1466.64 1486.44 Q1466.64 1495.17 1463.56 1499.77 Q1460.5 1504.36 1454.69 1504.36 Q1448.88 1504.36 1445.8 1499.77 Q1442.75 1495.17 1442.75 1486.44 Q1442.75 1477.69 1445.8 1473.11 Q1448.88 1468.5 1454.69 1468.5 Z" fill="#000000" fill-rule="evenodd" fill-opacity="1" /><path clip-path="url(#clip680)" d="M1863.07 1487.27 Q1859.74 1487.27 1857.82 1489.05 Q1855.92 1490.84 1855.92 1493.96 Q1855.92 1497.09 1857.82 1498.87 Q1859.74 1500.65 1863.07 1500.65 Q1866.41 1500.65 1868.33 1498.87 Q1870.25 1497.06 1870.25 1493.96 Q1870.25 1490.84 1868.33 1489.05 Q1866.43 1487.27 1863.07 1487.27 M1858.4 1485.28 Q1855.39 1484.54 1853.7 1482.48 Q1852.03 1480.42 1852.03 1477.46 Q1852.03 1473.31 1854.97 1470.91 Q1857.94 1468.5 1863.07 1468.5 Q1868.24 1468.5 1871.18 1470.91 Q1874.12 1473.31 1874.12 1477.46 Q1874.12 1480.42 1872.43 1482.48 Q1870.76 1484.54 1867.77 1485.28 Q1871.15 1486.07 1873.03 1488.36 Q1874.93 1490.65 1874.93 1493.96 Q1874.93 1498.99 1871.85 1501.67 Q1868.79 1504.36 1863.07 1504.36 Q1857.36 1504.36 1854.28 1501.67 Q1851.22 1498.99 1851.22 1493.96 Q1851.22 1490.65 1853.12 1488.36 Q1855.02 1486.07 1858.4 1485.28 M1856.69 1477.9 Q1856.69 1480.58 1858.35 1482.09 Q1860.04 1483.59 1863.07 1483.59 Q1866.08 1483.59 1867.77 1482.09 Q1869.49 1480.58 1869.49 1477.9 Q1869.49 1475.21 1867.77 1473.71 Q1866.08 1472.2 1863.07 1472.2 Q1860.04 1472.2 1858.35 1473.71 Q1856.69 1475.21 1856.69 1477.9 Z" fill="#000000" fill-rule="evenodd" fill-opacity="1" /><path clip-path="url(#clip680)" d="M1893.24 1472.2 Q1889.63 1472.2 1887.8 1475.77 Q1885.99 1479.31 1885.99 1486.44 Q1885.99 1493.55 1887.8 1497.11 Q1889.63 1500.65 1893.24 1500.65 Q1896.87 1500.65 1898.68 1497.11 Q1900.5 1493.55 1900.5 1486.44 Q1900.5 1479.31 1898.68 1475.77 Q1896.87 1472.2 1893.24 1472.2 M1893.24 1468.5 Q1899.05 1468.5 1902.1 1473.11 Q1905.18 1477.69 1905.18 1486.44 Q1905.18 1495.17 1902.1 1499.77 Q1899.05 1504.36 1893.24 1504.36 Q1887.43 1504.36 1884.35 1499.77 Q1881.29 1495.17 1881.29 1486.44 Q1881.29 1477.69 1884.35 1473.11 Q1887.43 1468.5 1893.24 1468.5 Z" fill="#000000" fill-rule="evenodd" fill-opacity="1" /><path clip-path="url(#clip680)" d="M1923.4 1472.2 Q1919.79 1472.2 1917.96 1475.77 Q1916.15 1479.31 1916.15 1486.44 Q1916.15 1493.55 1917.96 1497.11 Q1919.79 1500.65 1923.4 1500.65 Q1927.03 1500.65 1928.84 1497.11 Q1930.67 1493.55 1930.67 1486.44 Q1930.67 1479.31 1928.84 1475.77 Q1927.03 1472.2 1923.4 1472.2 M1923.4 1468.5 Q1929.21 1468.5 1932.26 1473.11 Q1935.34 1477.69 1935.34 1486.44 Q1935.34 1495.17 1932.26 1499.77 Q1929.21 1504.36 1923.4 1504.36 Q1917.59 1504.36 1914.51 1499.77 Q1911.45 1495.17 1911.45 1486.44 Q1911.45 1477.69 1914.51 1473.11 Q1917.59 1468.5 1923.4 1468.5 Z" fill="#000000" fill-rule="evenodd" fill-opacity="1" /><path clip-path="url(#clip680)" d="M1332.52 1536.96 Q1332.52 1541.66 1330.14 1546.2 Q1327.79 1550.74 1324.08 1553.55 Q1320.38 1556.31 1316.61 1556.31 Q1314.36 1556.31 1312.84 1555.09 Q1311.36 1553.84 1310.56 1552.06 Q1309.95 1554.25 1308.62 1559.5 Q1307.3 1564.75 1307.3 1565.27 Q1307.3 1565.56 1307.37 1565.69 Q1307.43 1565.82 1307.72 1565.98 Q1308.01 1566.17 1308.72 1566.23 Q1309.43 1566.33 1310.62 1566.33 Q1311.23 1566.33 1311.46 1566.33 Q1311.72 1566.36 1311.94 1566.52 Q1312.2 1566.69 1312.2 1567.04 Q1312.2 1568.36 1311.01 1568.36 Q1309.95 1568.36 1307.76 1568.26 Q1305.57 1568.17 1304.47 1568.17 Q1303.54 1568.17 1301.67 1568.26 Q1299.8 1568.36 1298.93 1568.36 Q1298.06 1568.36 1298.06 1567.59 Q1298.06 1567.14 1298.19 1566.85 Q1298.29 1566.59 1298.54 1566.46 Q1298.8 1566.36 1299.03 1566.33 Q1299.22 1566.33 1299.61 1566.33 Q1301.09 1566.33 1301.73 1566.07 Q1302.38 1565.85 1302.6 1565.36 Q1302.86 1564.91 1303.15 1563.63 L1310.56 1534.25 Q1311.01 1532.29 1311.01 1530.9 Q1311.01 1529.17 1310.46 1528.52 Q1309.91 1527.88 1308.95 1527.88 Q1307.27 1527.88 1306.18 1529.87 Q1305.08 1531.87 1304.15 1535.74 Q1303.86 1536.8 1303.67 1537.02 Q1303.5 1537.25 1303.02 1537.25 Q1302.22 1537.22 1302.22 1536.57 Q1302.22 1536.41 1302.47 1535.38 Q1302.73 1534.32 1303.21 1532.77 Q1303.73 1531.19 1304.28 1530.2 Q1304.6 1529.52 1304.89 1529.07 Q1305.18 1528.62 1305.76 1527.91 Q1306.37 1527.2 1307.24 1526.81 Q1308.11 1526.43 1309.17 1526.43 Q1311.23 1526.43 1312.94 1527.65 Q1314.65 1528.88 1315.1 1531.36 Q1316.93 1529.2 1319.19 1527.81 Q1321.44 1526.43 1323.73 1526.43 Q1327.53 1526.43 1330.01 1529.39 Q1332.52 1532.32 1332.52 1536.96 M1327.76 1534.06 Q1327.76 1531.13 1326.63 1529.52 Q1325.53 1527.88 1323.54 1527.88 Q1321.06 1527.88 1318.19 1530.39 Q1315.36 1532.77 1314.78 1534.99 L1311.52 1547.91 L1311.33 1548.97 Q1311.33 1549.17 1311.43 1549.74 Q1311.56 1550.29 1311.91 1551.19 Q1312.3 1552.1 1312.81 1552.9 Q1313.36 1553.67 1314.33 1554.25 Q1315.32 1554.83 1316.55 1554.83 Q1318.51 1554.83 1320.64 1553.09 Q1322.8 1551.36 1324.41 1548.07 Q1325.4 1545.94 1326.56 1541.37 Q1327.76 1536.77 1327.76 1534.06 Z" fill="#000000" fill-rule="evenodd" fill-opacity="1" /><polyline clip-path="url(#clip680)" style="stroke:#000000; stroke-linecap:butt; stroke-linejoin:round; stroke-width:4; stroke-opacity:1; fill:none" points="
  276.222,1443.01 276.222,47.2441 
  "/>
<polyline clip-path="url(#clip680)" style="stroke:#000000; stroke-linecap:butt; stroke-linejoin:round; stroke-width:4; stroke-opacity:1; fill:none" points="
  276.222,1403.51 295.12,1403.51 
  "/>
<polyline clip-path="url(#clip680)" style="stroke:#000000; stroke-linecap:butt; stroke-linejoin:round; stroke-width:4; stroke-opacity:1; fill:none" points="
  276.222,1151.82 295.12,1151.82 
  "/>
<polyline clip-path="url(#clip680)" style="stroke:#000000; stroke-linecap:butt; stroke-linejoin:round; stroke-width:4; stroke-opacity:1; fill:none" points="
  276.222,900.131 295.12,900.131 
  "/>
<polyline clip-path="url(#clip680)" style="stroke:#000000; stroke-linecap:butt; stroke-linejoin:round; stroke-width:4; stroke-opacity:1; fill:none" points="
  276.222,648.442 295.12,648.442 
  "/>
<polyline clip-path="url(#clip680)" style="stroke:#000000; stroke-linecap:butt; stroke-linejoin:round; stroke-width:4; stroke-opacity:1; fill:none" points="
  276.222,396.752 295.12,396.752 
  "/>
<polyline clip-path="url(#clip680)" style="stroke:#000000; stroke-linecap:butt; stroke-linejoin:round; stroke-width:4; stroke-opacity:1; fill:none" points="
  276.222,145.063 295.12,145.063 
  "/>
<path clip-path="url(#clip680)" d="M122.723 1389.31 Q119.112 1389.31 117.283 1392.87 Q115.477 1396.41 115.477 1403.54 Q115.477 1410.65 117.283 1414.22 Q119.112 1417.76 122.723 1417.76 Q126.357 1417.76 128.163 1414.22 Q129.991 1410.65 129.991 1403.54 Q129.991 1396.41 128.163 1392.87 Q126.357 1389.31 122.723 1389.31 M122.723 1385.6 Q128.533 1385.6 131.588 1390.21 Q134.667 1394.79 134.667 1403.54 Q134.667 1412.27 131.588 1416.88 Q128.533 1421.46 122.723 1421.46 Q116.913 1421.46 113.834 1416.88 Q110.778 1412.27 110.778 1403.54 Q110.778 1394.79 113.834 1390.21 Q116.913 1385.6 122.723 1385.6 Z" fill="#000000" fill-rule="evenodd" fill-opacity="1" /><path clip-path="url(#clip680)" d="M142.885 1414.91 L147.769 1414.91 L147.769 1420.79 L142.885 1420.79 L142.885 1414.91 Z" fill="#000000" fill-rule="evenodd" fill-opacity="1" /><path clip-path="url(#clip680)" d="M167.954 1389.31 Q164.343 1389.31 162.514 1392.87 Q160.709 1396.41 160.709 1403.54 Q160.709 1410.65 162.514 1414.22 Q164.343 1417.76 167.954 1417.76 Q171.588 1417.76 173.394 1414.22 Q175.222 1410.65 175.222 1403.54 Q175.222 1396.41 173.394 1392.87 Q171.588 1389.31 167.954 1389.31 M167.954 1385.6 Q173.764 1385.6 176.82 1390.21 Q179.898 1394.79 179.898 1403.54 Q179.898 1412.27 176.82 1416.88 Q173.764 1421.46 167.954 1421.46 Q162.144 1421.46 159.065 1416.88 Q156.01 1412.27 156.01 1403.54 Q156.01 1394.79 159.065 1390.21 Q162.144 1385.6 167.954 1385.6 Z" fill="#000000" fill-rule="evenodd" fill-opacity="1" /><path clip-path="url(#clip680)" d="M198.116 1389.31 Q194.505 1389.31 192.676 1392.87 Q190.871 1396.41 190.871 1403.54 Q190.871 1410.65 192.676 1414.22 Q194.505 1417.76 198.116 1417.76 Q201.75 1417.76 203.556 1414.22 Q205.384 1410.65 205.384 1403.54 Q205.384 1396.41 203.556 1392.87 Q201.75 1389.31 198.116 1389.31 M198.116 1385.6 Q203.926 1385.6 206.982 1390.21 Q210.06 1394.79 210.06 1403.54 Q210.06 1412.27 206.982 1416.88 Q203.926 1421.46 198.116 1421.46 Q192.306 1421.46 189.227 1416.88 Q186.171 1412.27 186.171 1403.54 Q186.171 1394.79 189.227 1390.21 Q192.306 1385.6 198.116 1385.6 Z" fill="#000000" fill-rule="evenodd" fill-opacity="1" /><path clip-path="url(#clip680)" d="M228.278 1389.31 Q224.667 1389.31 222.838 1392.87 Q221.032 1396.41 221.032 1403.54 Q221.032 1410.65 222.838 1414.22 Q224.667 1417.76 228.278 1417.76 Q231.912 1417.76 233.718 1414.22 Q235.546 1410.65 235.546 1403.54 Q235.546 1396.41 233.718 1392.87 Q231.912 1389.31 228.278 1389.31 M228.278 1385.6 Q234.088 1385.6 237.143 1390.21 Q240.222 1394.79 240.222 1403.54 Q240.222 1412.27 237.143 1416.88 Q234.088 1421.46 228.278 1421.46 Q222.468 1421.46 219.389 1416.88 Q216.333 1412.27 216.333 1403.54 Q216.333 1394.79 219.389 1390.21 Q222.468 1385.6 228.278 1385.6 Z" fill="#000000" fill-rule="evenodd" fill-opacity="1" /><path clip-path="url(#clip680)" d="M123.95 1137.62 Q120.338 1137.62 118.51 1141.18 Q116.704 1144.73 116.704 1151.85 Q116.704 1158.96 118.51 1162.53 Q120.338 1166.07 123.95 1166.07 Q127.584 1166.07 129.389 1162.53 Q131.218 1158.96 131.218 1151.85 Q131.218 1144.73 129.389 1141.18 Q127.584 1137.62 123.95 1137.62 M123.95 1133.92 Q129.76 1133.92 132.815 1138.52 Q135.894 1143.1 135.894 1151.85 Q135.894 1160.58 132.815 1165.19 Q129.76 1169.77 123.95 1169.77 Q118.139 1169.77 115.061 1165.19 Q112.005 1160.58 112.005 1151.85 Q112.005 1143.1 115.061 1138.52 Q118.139 1133.92 123.95 1133.92 Z" fill="#000000" fill-rule="evenodd" fill-opacity="1" /><path clip-path="url(#clip680)" d="M144.112 1163.22 L148.996 1163.22 L148.996 1169.1 L144.112 1169.1 L144.112 1163.22 Z" fill="#000000" fill-rule="evenodd" fill-opacity="1" /><path clip-path="url(#clip680)" d="M169.181 1137.62 Q165.57 1137.62 163.741 1141.18 Q161.935 1144.73 161.935 1151.85 Q161.935 1158.96 163.741 1162.53 Q165.57 1166.07 169.181 1166.07 Q172.815 1166.07 174.621 1162.53 Q176.449 1158.96 176.449 1151.85 Q176.449 1144.73 174.621 1141.18 Q172.815 1137.62 169.181 1137.62 M169.181 1133.92 Q174.991 1133.92 178.047 1138.52 Q181.125 1143.1 181.125 1151.85 Q181.125 1160.58 178.047 1165.19 Q174.991 1169.77 169.181 1169.77 Q163.371 1169.77 160.292 1165.19 Q157.236 1160.58 157.236 1151.85 Q157.236 1143.1 160.292 1138.52 Q163.371 1133.92 169.181 1133.92 Z" fill="#000000" fill-rule="evenodd" fill-opacity="1" /><path clip-path="url(#clip680)" d="M199.343 1137.62 Q195.732 1137.62 193.903 1141.18 Q192.097 1144.73 192.097 1151.85 Q192.097 1158.96 193.903 1162.53 Q195.732 1166.07 199.343 1166.07 Q202.977 1166.07 204.782 1162.53 Q206.611 1158.96 206.611 1151.85 Q206.611 1144.73 204.782 1141.18 Q202.977 1137.62 199.343 1137.62 M199.343 1133.92 Q205.153 1133.92 208.208 1138.52 Q211.287 1143.1 211.287 1151.85 Q211.287 1160.58 208.208 1165.19 Q205.153 1169.77 199.343 1169.77 Q193.533 1169.77 190.454 1165.19 Q187.398 1160.58 187.398 1151.85 Q187.398 1143.1 190.454 1138.52 Q193.533 1133.92 199.343 1133.92 Z" fill="#000000" fill-rule="evenodd" fill-opacity="1" /><path clip-path="url(#clip680)" d="M220.315 1165.17 L227.954 1165.17 L227.954 1138.8 L219.644 1140.47 L219.644 1136.21 L227.907 1134.54 L232.583 1134.54 L232.583 1165.17 L240.222 1165.17 L240.222 1169.1 L220.315 1169.1 L220.315 1165.17 Z" fill="#000000" fill-rule="evenodd" fill-opacity="1" /><path clip-path="url(#clip680)" d="M124.32 885.93 Q120.709 885.93 118.88 889.494 Q117.075 893.036 117.075 900.166 Q117.075 907.272 118.88 910.837 Q120.709 914.379 124.32 914.379 Q127.954 914.379 129.76 910.837 Q131.588 907.272 131.588 900.166 Q131.588 893.036 129.76 889.494 Q127.954 885.93 124.32 885.93 M124.32 882.226 Q130.13 882.226 133.186 886.832 Q136.264 891.416 136.264 900.166 Q136.264 908.893 133.186 913.499 Q130.13 918.082 124.32 918.082 Q118.51 918.082 115.431 913.499 Q112.376 908.893 112.376 900.166 Q112.376 891.416 115.431 886.832 Q118.51 882.226 124.32 882.226 Z" fill="#000000" fill-rule="evenodd" fill-opacity="1" /><path clip-path="url(#clip680)" d="M144.482 911.531 L149.366 911.531 L149.366 917.411 L144.482 917.411 L144.482 911.531 Z" fill="#000000" fill-rule="evenodd" fill-opacity="1" /><path clip-path="url(#clip680)" d="M169.551 885.93 Q165.94 885.93 164.111 889.494 Q162.306 893.036 162.306 900.166 Q162.306 907.272 164.111 910.837 Q165.94 914.379 169.551 914.379 Q173.185 914.379 174.991 910.837 Q176.82 907.272 176.82 900.166 Q176.82 893.036 174.991 889.494 Q173.185 885.93 169.551 885.93 M169.551 882.226 Q175.361 882.226 178.417 886.832 Q181.496 891.416 181.496 900.166 Q181.496 908.893 178.417 913.499 Q175.361 918.082 169.551 918.082 Q163.741 918.082 160.662 913.499 Q157.607 908.893 157.607 900.166 Q157.607 891.416 160.662 886.832 Q163.741 882.226 169.551 882.226 Z" fill="#000000" fill-rule="evenodd" fill-opacity="1" /><path clip-path="url(#clip680)" d="M199.713 885.93 Q196.102 885.93 194.273 889.494 Q192.468 893.036 192.468 900.166 Q192.468 907.272 194.273 910.837 Q196.102 914.379 199.713 914.379 Q203.347 914.379 205.153 910.837 Q206.982 907.272 206.982 900.166 Q206.982 893.036 205.153 889.494 Q203.347 885.93 199.713 885.93 M199.713 882.226 Q205.523 882.226 208.579 886.832 Q211.657 891.416 211.657 900.166 Q211.657 908.893 208.579 913.499 Q205.523 918.082 199.713 918.082 Q193.903 918.082 190.824 913.499 Q187.769 908.893 187.769 900.166 Q187.769 891.416 190.824 886.832 Q193.903 882.226 199.713 882.226 Z" fill="#000000" fill-rule="evenodd" fill-opacity="1" /><path clip-path="url(#clip680)" d="M223.903 913.476 L240.222 913.476 L240.222 917.411 L218.278 917.411 L218.278 913.476 Q220.94 910.721 225.523 906.092 Q230.13 901.439 231.31 900.096 Q233.555 897.573 234.435 895.837 Q235.338 894.078 235.338 892.388 Q235.338 889.633 233.393 887.897 Q231.472 886.161 228.37 886.161 Q226.171 886.161 223.718 886.925 Q221.287 887.689 218.509 889.24 L218.509 884.518 Q221.333 883.383 223.787 882.805 Q226.241 882.226 228.278 882.226 Q233.648 882.226 236.842 884.911 Q240.037 887.596 240.037 892.087 Q240.037 894.217 239.227 896.138 Q238.44 898.036 236.333 900.629 Q235.755 901.3 232.653 904.518 Q229.551 907.712 223.903 913.476 Z" fill="#000000" fill-rule="evenodd" fill-opacity="1" /><path clip-path="url(#clip680)" d="M123.371 634.24 Q119.76 634.24 117.931 637.805 Q116.126 641.347 116.126 648.476 Q116.126 655.583 117.931 659.148 Q119.76 662.689 123.371 662.689 Q127.005 662.689 128.811 659.148 Q130.639 655.583 130.639 648.476 Q130.639 641.347 128.811 637.805 Q127.005 634.24 123.371 634.24 M123.371 630.537 Q129.181 630.537 132.237 635.143 Q135.315 639.726 135.315 648.476 Q135.315 657.203 132.237 661.81 Q129.181 666.393 123.371 666.393 Q117.561 666.393 114.482 661.81 Q111.426 657.203 111.426 648.476 Q111.426 639.726 114.482 635.143 Q117.561 630.537 123.371 630.537 Z" fill="#000000" fill-rule="evenodd" fill-opacity="1" /><path clip-path="url(#clip680)" d="M143.533 659.842 L148.417 659.842 L148.417 665.722 L143.533 665.722 L143.533 659.842 Z" fill="#000000" fill-rule="evenodd" fill-opacity="1" /><path clip-path="url(#clip680)" d="M168.602 634.24 Q164.991 634.24 163.162 637.805 Q161.357 641.347 161.357 648.476 Q161.357 655.583 163.162 659.148 Q164.991 662.689 168.602 662.689 Q172.236 662.689 174.042 659.148 Q175.871 655.583 175.871 648.476 Q175.871 641.347 174.042 637.805 Q172.236 634.24 168.602 634.24 M168.602 630.537 Q174.412 630.537 177.468 635.143 Q180.546 639.726 180.546 648.476 Q180.546 657.203 177.468 661.81 Q174.412 666.393 168.602 666.393 Q162.792 666.393 159.713 661.81 Q156.658 657.203 156.658 648.476 Q156.658 639.726 159.713 635.143 Q162.792 630.537 168.602 630.537 Z" fill="#000000" fill-rule="evenodd" fill-opacity="1" /><path clip-path="url(#clip680)" d="M198.764 634.24 Q195.153 634.24 193.324 637.805 Q191.519 641.347 191.519 648.476 Q191.519 655.583 193.324 659.148 Q195.153 662.689 198.764 662.689 Q202.398 662.689 204.204 659.148 Q206.032 655.583 206.032 648.476 Q206.032 641.347 204.204 637.805 Q202.398 634.24 198.764 634.24 M198.764 630.537 Q204.574 630.537 207.63 635.143 Q210.708 639.726 210.708 648.476 Q210.708 657.203 207.63 661.81 Q204.574 666.393 198.764 666.393 Q192.954 666.393 189.875 661.81 Q186.82 657.203 186.82 648.476 Q186.82 639.726 189.875 635.143 Q192.954 630.537 198.764 630.537 Z" fill="#000000" fill-rule="evenodd" fill-opacity="1" /><path clip-path="url(#clip680)" d="M233.093 647.088 Q236.449 647.805 238.324 650.074 Q240.222 652.342 240.222 655.675 Q240.222 660.791 236.704 663.592 Q233.185 666.393 226.704 666.393 Q224.528 666.393 222.213 665.953 Q219.921 665.537 217.468 664.68 L217.468 660.166 Q219.412 661.3 221.727 661.879 Q224.042 662.458 226.565 662.458 Q230.963 662.458 233.255 660.722 Q235.569 658.986 235.569 655.675 Q235.569 652.62 233.417 650.907 Q231.287 649.171 227.468 649.171 L223.44 649.171 L223.44 645.328 L227.653 645.328 Q231.102 645.328 232.93 643.963 Q234.759 642.574 234.759 639.981 Q234.759 637.319 232.861 635.907 Q230.986 634.472 227.468 634.472 Q225.546 634.472 223.347 634.889 Q221.148 635.305 218.509 636.185 L218.509 632.018 Q221.171 631.277 223.486 630.907 Q225.824 630.537 227.884 630.537 Q233.208 630.537 236.31 632.967 Q239.412 635.375 239.412 639.495 Q239.412 642.365 237.768 644.356 Q236.125 646.324 233.093 647.088 Z" fill="#000000" fill-rule="evenodd" fill-opacity="1" /><path clip-path="url(#clip680)" d="M122.237 382.551 Q118.626 382.551 116.797 386.116 Q114.991 389.658 114.991 396.787 Q114.991 403.894 116.797 407.458 Q118.626 411 122.237 411 Q125.871 411 127.676 407.458 Q129.505 403.894 129.505 396.787 Q129.505 389.658 127.676 386.116 Q125.871 382.551 122.237 382.551 M122.237 378.847 Q128.047 378.847 131.102 383.454 Q134.181 388.037 134.181 396.787 Q134.181 405.514 131.102 410.12 Q128.047 414.704 122.237 414.704 Q116.426 414.704 113.348 410.12 Q110.292 405.514 110.292 396.787 Q110.292 388.037 113.348 383.454 Q116.426 378.847 122.237 378.847 Z" fill="#000000" fill-rule="evenodd" fill-opacity="1" /><path clip-path="url(#clip680)" d="M142.399 408.153 L147.283 408.153 L147.283 414.032 L142.399 414.032 L142.399 408.153 Z" fill="#000000" fill-rule="evenodd" fill-opacity="1" /><path clip-path="url(#clip680)" d="M167.468 382.551 Q163.857 382.551 162.028 386.116 Q160.223 389.658 160.223 396.787 Q160.223 403.894 162.028 407.458 Q163.857 411 167.468 411 Q171.102 411 172.908 407.458 Q174.736 403.894 174.736 396.787 Q174.736 389.658 172.908 386.116 Q171.102 382.551 167.468 382.551 M167.468 378.847 Q173.278 378.847 176.334 383.454 Q179.412 388.037 179.412 396.787 Q179.412 405.514 176.334 410.12 Q173.278 414.704 167.468 414.704 Q161.658 414.704 158.579 410.12 Q155.523 405.514 155.523 396.787 Q155.523 388.037 158.579 383.454 Q161.658 378.847 167.468 378.847 Z" fill="#000000" fill-rule="evenodd" fill-opacity="1" /><path clip-path="url(#clip680)" d="M197.63 382.551 Q194.019 382.551 192.19 386.116 Q190.384 389.658 190.384 396.787 Q190.384 403.894 192.19 407.458 Q194.019 411 197.63 411 Q201.264 411 203.07 407.458 Q204.898 403.894 204.898 396.787 Q204.898 389.658 203.07 386.116 Q201.264 382.551 197.63 382.551 M197.63 378.847 Q203.44 378.847 206.495 383.454 Q209.574 388.037 209.574 396.787 Q209.574 405.514 206.495 410.12 Q203.44 414.704 197.63 414.704 Q191.82 414.704 188.741 410.12 Q185.685 405.514 185.685 396.787 Q185.685 388.037 188.741 383.454 Q191.82 378.847 197.63 378.847 Z" fill="#000000" fill-rule="evenodd" fill-opacity="1" /><path clip-path="url(#clip680)" d="M230.639 383.547 L218.833 401.996 L230.639 401.996 L230.639 383.547 M229.412 379.472 L235.292 379.472 L235.292 401.996 L240.222 401.996 L240.222 405.884 L235.292 405.884 L235.292 414.032 L230.639 414.032 L230.639 405.884 L215.037 405.884 L215.037 401.371 L229.412 379.472 Z" fill="#000000" fill-rule="evenodd" fill-opacity="1" /><path clip-path="url(#clip680)" d="M123.718 130.862 Q120.107 130.862 118.278 134.427 Q116.473 137.968 116.473 145.098 Q116.473 152.204 118.278 155.769 Q120.107 159.311 123.718 159.311 Q127.352 159.311 129.158 155.769 Q130.987 152.204 130.987 145.098 Q130.987 137.968 129.158 134.427 Q127.352 130.862 123.718 130.862 M123.718 127.158 Q129.528 127.158 132.584 131.765 Q135.662 136.348 135.662 145.098 Q135.662 153.825 132.584 158.431 Q129.528 163.015 123.718 163.015 Q117.908 163.015 114.829 158.431 Q111.774 153.825 111.774 145.098 Q111.774 136.348 114.829 131.765 Q117.908 127.158 123.718 127.158 Z" fill="#000000" fill-rule="evenodd" fill-opacity="1" /><path clip-path="url(#clip680)" d="M143.88 156.464 L148.764 156.464 L148.764 162.343 L143.88 162.343 L143.88 156.464 Z" fill="#000000" fill-rule="evenodd" fill-opacity="1" /><path clip-path="url(#clip680)" d="M168.949 130.862 Q165.338 130.862 163.51 134.427 Q161.704 137.968 161.704 145.098 Q161.704 152.204 163.51 155.769 Q165.338 159.311 168.949 159.311 Q172.584 159.311 174.389 155.769 Q176.218 152.204 176.218 145.098 Q176.218 137.968 174.389 134.427 Q172.584 130.862 168.949 130.862 M168.949 127.158 Q174.759 127.158 177.815 131.765 Q180.894 136.348 180.894 145.098 Q180.894 153.825 177.815 158.431 Q174.759 163.015 168.949 163.015 Q163.139 163.015 160.06 158.431 Q157.005 153.825 157.005 145.098 Q157.005 136.348 160.06 131.765 Q163.139 127.158 168.949 127.158 Z" fill="#000000" fill-rule="evenodd" fill-opacity="1" /><path clip-path="url(#clip680)" d="M199.111 130.862 Q195.5 130.862 193.671 134.427 Q191.866 137.968 191.866 145.098 Q191.866 152.204 193.671 155.769 Q195.5 159.311 199.111 159.311 Q202.745 159.311 204.551 155.769 Q206.38 152.204 206.38 145.098 Q206.38 137.968 204.551 134.427 Q202.745 130.862 199.111 130.862 M199.111 127.158 Q204.921 127.158 207.977 131.765 Q211.056 136.348 211.056 145.098 Q211.056 153.825 207.977 158.431 Q204.921 163.015 199.111 163.015 Q193.301 163.015 190.222 158.431 Q187.167 153.825 187.167 145.098 Q187.167 136.348 190.222 131.765 Q193.301 127.158 199.111 127.158 Z" fill="#000000" fill-rule="evenodd" fill-opacity="1" /><path clip-path="url(#clip680)" d="M219.319 127.783 L237.676 127.783 L237.676 131.718 L223.602 131.718 L223.602 140.191 Q224.62 139.843 225.639 139.681 Q226.657 139.496 227.676 139.496 Q233.463 139.496 236.842 142.667 Q240.222 145.839 240.222 151.255 Q240.222 156.834 236.75 159.936 Q233.278 163.015 226.958 163.015 Q224.782 163.015 222.514 162.644 Q220.269 162.274 217.861 161.533 L217.861 156.834 Q219.944 157.968 222.167 158.524 Q224.389 159.079 226.866 159.079 Q230.87 159.079 233.208 156.973 Q235.546 154.866 235.546 151.255 Q235.546 147.644 233.208 145.538 Q230.87 143.431 226.866 143.431 Q224.991 143.431 223.116 143.848 Q221.264 144.265 219.319 145.144 L219.319 127.783 Z" fill="#000000" fill-rule="evenodd" fill-opacity="1" /><path clip-path="url(#clip680)" d="M29.3925 765.64 Q32.9996 765.64 36.3168 768.313 Q39.634 770.954 41.663 775.269 Q43.6597 779.553 43.6597 784.158 L43.6597 795.366 L60.1491 799.456 Q60.2458 799.488 60.6644 799.585 Q61.0509 799.681 61.2763 799.681 Q62.0815 799.681 62.2747 798.683 Q62.468 797.652 62.468 795.366 Q62.468 793.884 62.7256 793.659 Q62.8866 793.53 63.1765 793.53 Q63.6274 793.53 63.9494 793.659 Q64.2393 793.788 64.3359 794.045 Q64.4325 794.271 64.4647 794.432 Q64.4969 794.593 64.4969 794.85 Q64.4969 795.527 64.4325 796.976 Q64.3681 798.393 64.3681 799.134 L64.3037 803.353 L64.4969 811.726 Q64.4969 812.725 63.6918 812.725 Q63.0799 812.725 62.8222 812.467 Q62.5324 812.209 62.5002 811.92 Q62.468 811.63 62.468 810.889 Q62.468 809.279 62.3713 808.312 Q62.2747 807.346 62.1459 806.734 Q61.9849 806.09 61.534 805.768 Q61.0831 805.414 60.6966 805.253 Q60.278 805.092 59.344 804.866 L23.9175 796.042 Q22.8547 795.784 22.6937 795.784 Q22.1462 795.784 21.953 796.106 Q21.7275 796.396 21.6309 797.234 Q21.5021 798.844 21.5021 800.068 Q21.5021 800.873 21.4699 801.195 Q21.4377 801.485 21.2767 801.742 Q21.0834 801.968 20.697 801.968 Q20.085 801.968 19.8274 801.71 Q19.5375 801.42 19.5053 801.098 Q19.4409 800.776 19.4409 800.003 L19.4409 778.619 Q19.4409 772.467 22.3717 769.054 Q25.3024 765.64 29.3925 765.64 M27.8145 771.759 Q21.5021 771.759 21.5021 780.744 L21.5021 787.057 Q21.5021 789.15 21.8886 789.665 Q22.2428 790.181 24.0142 790.631 L41.9528 795.108 L41.9528 785.801 Q41.9528 779.553 38.4424 775.656 Q36.8321 773.884 33.4827 772.822 Q30.1333 771.759 27.8145 771.759 Z" fill="#000000" fill-rule="evenodd" fill-opacity="1" /><path clip-path="url(#clip680)" d="M48.0075 758.402 Q36.8643 758.402 27.8789 754.247 Q24.1108 752.476 20.9546 749.996 Q17.7984 747.516 16.4136 745.874 Q15.0287 744.231 15.0287 743.781 Q15.0287 743.136 15.6728 743.104 Q15.9949 743.104 16.8 743.974 Q27.6212 754.602 48.0075 754.57 Q68.4582 754.57 78.8607 744.231 Q79.9879 743.104 80.3422 743.104 Q80.9863 743.104 80.9863 743.781 Q80.9863 744.231 79.6659 745.81 Q78.3454 747.388 75.3181 749.835 Q72.2907 752.283 68.5871 754.054 Q59.6016 758.402 48.0075 758.402 Z" fill="#000000" fill-rule="evenodd" fill-opacity="1" /><path clip-path="url(#clip680)" d="M45.8819 707.59 Q50.584 707.59 55.125 709.974 Q59.666 712.325 62.468 716.028 Q65.2377 719.732 65.2377 723.5 Q65.2377 725.754 64.0138 727.268 Q62.7578 728.75 60.9865 729.555 Q63.1765 730.167 68.426 731.487 Q73.6756 732.808 74.1909 732.808 Q74.4807 732.808 74.6096 732.743 Q74.7384 732.679 74.8994 732.389 Q75.0927 732.099 75.1571 731.39 Q75.2537 730.682 75.2537 729.49 Q75.2537 728.878 75.2537 728.653 Q75.2859 728.395 75.4469 728.17 Q75.608 727.912 75.9622 727.912 Q77.2827 727.912 77.2827 729.104 Q77.2827 730.167 77.186 732.357 Q77.0894 734.547 77.0894 735.642 Q77.0894 736.576 77.186 738.444 Q77.2827 740.312 77.2827 741.181 Q77.2827 742.051 76.5097 742.051 Q76.0588 742.051 75.769 741.922 Q75.5113 741.825 75.3825 741.568 Q75.2859 741.31 75.2537 741.084 Q75.2537 740.891 75.2537 740.505 Q75.2537 739.023 74.996 738.379 Q74.7706 737.735 74.2875 737.51 Q73.8366 737.252 72.5484 736.962 L43.1766 729.555 Q41.2121 729.104 39.8272 729.104 Q38.0881 729.104 37.444 729.651 Q36.7999 730.199 36.7999 731.165 Q36.7999 732.84 38.7967 733.935 Q40.7934 735.03 44.6581 735.964 Q45.7209 736.254 45.9464 736.447 Q46.1718 736.608 46.1718 737.091 Q46.1396 737.896 45.4955 737.896 Q45.3344 737.896 44.3039 737.638 Q43.2411 737.381 41.6952 736.898 Q40.1171 736.382 39.1187 735.835 Q38.4424 735.513 37.9915 735.223 Q37.5406 734.933 36.8321 734.353 Q36.1236 733.742 35.7371 732.872 Q35.3506 732.002 35.3506 730.94 Q35.3506 728.878 36.5744 727.172 Q37.7983 725.465 40.2781 725.014 Q38.1203 723.178 36.7355 720.924 Q35.3506 718.669 35.3506 716.383 Q35.3506 712.582 38.3136 710.102 Q41.2443 707.59 45.8819 707.59 M42.9834 712.357 Q40.0527 712.357 38.4424 713.484 Q36.7999 714.579 36.7999 716.576 Q36.7999 719.056 39.3119 721.922 Q41.6952 724.756 43.9174 725.336 L56.8319 728.589 L57.8947 728.782 Q58.088 728.782 58.6677 728.685 Q59.2152 728.556 60.1169 728.202 Q61.0187 727.816 61.8238 727.3 Q62.5968 726.753 63.1765 725.787 Q63.7562 724.788 63.7562 723.564 Q63.7562 721.6 62.0171 719.474 Q60.278 717.317 56.993 715.706 Q54.8674 714.708 50.2941 713.548 Q45.6887 712.357 42.9834 712.357 Z" fill="#000000" fill-rule="evenodd" fill-opacity="1" /><path clip-path="url(#clip680)" d="M80.3422 702.859 Q80.0202 702.859 79.215 702.022 Q68.3938 691.394 48.0075 691.394 Q27.5568 691.394 17.2187 701.603 Q16.0271 702.859 15.6728 702.859 Q15.0287 702.859 15.0287 702.215 Q15.0287 701.764 16.3492 700.186 Q17.6696 698.576 20.697 696.16 Q23.7243 693.713 27.428 691.909 Q36.4134 687.561 48.0075 687.561 Q59.1508 687.561 68.1362 691.716 Q71.9043 693.487 75.0605 695.967 Q78.2166 698.447 79.6015 700.089 Q80.9863 701.732 80.9863 702.215 Q80.9863 702.859 80.3422 702.859 Z" fill="#000000" fill-rule="evenodd" fill-opacity="1" /><polyline clip-path="url(#clip682)" style="stroke:#009fe3; stroke-linecap:butt; stroke-linejoin:round; stroke-width:20; stroke-opacity:0.996078; fill:none" points="
  334.992,1403.51 334.992,1403.48 337.335,1403.48 337.335,1403.51 339.679,1403.51 342.022,1403.51 342.022,1403.48 344.365,1403.48 344.365,1403.51 
  346.708,1403.51 349.052,1403.51 351.395,1403.51 353.738,1403.51 353.738,1403.48 356.082,1403.48 356.082,1403.51 
  358.425,1403.51 360.768,1403.51 360.768,1403.48 363.111,1403.48 365.455,1403.48 367.798,1403.48 
  370.141,1403.48 370.141,1403.51 372.485,1403.51 374.828,1403.51 377.171,1403.51 379.515,1403.51 379.515,1403.48 
  381.858,1403.48 381.858,1403.51 384.201,1403.51 384.201,1403.46 386.544,1403.46 386.544,1403.48 388.888,1403.48 388.888,1403.51 391.231,1403.51 
  393.574,1403.51 393.574,1403.46 395.918,1403.46 395.918,1403.51 398.261,1403.51 400.604,1403.51 400.604,1403.43 402.947,1403.43 402.947,1403.48 
  405.291,1403.48 405.291,1403.51 407.634,1403.51 409.977,1403.51 409.977,1403.48 412.321,1403.48 412.321,1403.51 414.664,1403.51 414.664,1403.48 
  417.007,1403.48 417.007,1403.41 419.351,1403.41 419.351,1403.51 421.694,1403.51 424.037,1403.51 424.037,1403.48 426.38,1403.48 
  428.724,1403.48 428.724,1403.46 431.067,1403.46 431.067,1403.51 433.41,1403.51 435.754,1403.51 435.754,1403.43 438.097,1403.43 438.097,1403.48 
  440.44,1403.48 440.44,1403.46 442.783,1403.46 445.127,1403.46 445.127,1403.48 447.47,1403.48 447.47,1403.41 449.813,1403.41 449.813,1403.43 
  452.157,1403.43 452.157,1403.36 454.5,1403.36 456.843,1403.36 456.843,1403.41 459.187,1403.41 459.187,1403.36 461.53,1403.36 461.53,1403.21 
  463.873,1403.21 463.873,1403.23 466.216,1403.23 466.216,1403.16 468.56,1403.16 470.903,1403.16 470.903,1403.31 473.246,1403.31 473.246,1403.26 
  475.59,1403.26 475.59,1403.13 477.933,1403.13 477.933,1403.11 480.276,1403.11 480.276,1403.23 482.619,1403.23 482.619,1403.08 484.963,1403.08 484.963,1403.01 
  487.306,1403.01 487.306,1402.86 489.649,1402.86 489.649,1403.08 491.993,1403.08 491.993,1402.96 494.336,1402.96 494.336,1402.98 496.679,1402.98 496.679,1402.93 
  499.023,1402.93 501.366,1402.93 501.366,1403.08 503.709,1403.08 503.709,1402.68 506.052,1402.68 506.052,1402.73 508.396,1402.73 508.396,1402.75 
  510.739,1402.75 510.739,1402.45 513.082,1402.45 513.082,1402.75 515.426,1402.75 515.426,1402.28 517.769,1402.28 517.769,1402.4 520.112,1402.4 520.112,1402.28 
  522.455,1402.28 522.455,1402.5 524.799,1402.5 524.799,1402.05 527.142,1402.05 527.142,1401.95 529.485,1401.95 529.485,1402.05 531.829,1402.05 531.829,1402.15 
  534.172,1402.15 534.172,1402.13 536.515,1402.13 536.515,1401.87 538.859,1401.87 538.859,1401.9 541.202,1401.9 541.202,1401.32 543.545,1401.32 543.545,1401.5 
  545.888,1401.5 545.888,1401.4 548.232,1401.4 548.232,1400.94 550.575,1400.94 550.575,1400.97 552.918,1400.97 552.918,1400.82 555.262,1400.82 555.262,1400.56 
  557.605,1400.56 557.605,1400.59 559.948,1400.59 559.948,1400.51 562.291,1400.51 562.291,1400.14 564.635,1400.14 564.635,1399.96 566.978,1399.96 566.978,1399.63 
  569.321,1399.63 569.321,1398.9 571.665,1398.9 571.665,1398.53 574.008,1398.53 574.008,1398.93 576.351,1398.93 576.351,1398.22 578.695,1398.22 578.695,1398.48 
  581.038,1398.48 581.038,1397.82 583.381,1397.82 583.381,1397.95 585.724,1397.95 585.724,1397.47 588.068,1397.47 588.068,1396.44 590.411,1396.44 
  592.754,1396.44 592.754,1396.03 595.098,1396.03 595.098,1394.98 597.441,1394.98 597.441,1395.15 599.784,1395.15 599.784,1395.56 602.127,1395.56 602.127,1394.95 
  604.471,1394.95 604.471,1394.1 606.814,1394.1 606.814,1393.54 609.157,1393.54 609.157,1393.37 611.501,1393.37 611.501,1392.46 613.844,1392.46 613.844,1392.61 
  616.187,1392.61 616.187,1391.53 618.531,1391.53 618.531,1389.29 620.874,1389.29 620.874,1391.5 623.217,1391.5 623.217,1389.52 625.56,1389.52 625.56,1388.71 
  627.904,1388.71 627.904,1387.05 630.247,1387.05 630.247,1386.42 632.59,1386.42 632.59,1385.69 634.934,1385.69 634.934,1385.29 637.277,1385.29 637.277,1383.17 
  639.62,1383.17 639.62,1383.85 641.963,1383.85 641.963,1381.46 644.307,1381.46 644.307,1380.25 646.65,1380.25 646.65,1380.58 648.993,1380.58 648.993,1378.29 
  651.337,1378.29 651.337,1376.68 653.68,1376.68 653.68,1375.04 656.023,1375.04 656.023,1373.23 658.367,1373.23 658.367,1371.9 660.71,1371.9 660.71,1371.57 
  663.053,1371.57 663.053,1369.38 665.396,1369.38 665.396,1368.25 667.74,1368.25 667.74,1367.27 670.083,1367.27 670.083,1362.84 672.426,1362.84 672.426,1364.45 
  674.77,1364.45 674.77,1361.23 677.113,1361.23 677.113,1359.49 679.456,1359.49 679.456,1358.08 681.8,1358.08 681.8,1357.22 684.143,1357.22 684.143,1352.47 
  686.486,1352.47 686.486,1352.84 688.829,1352.84 688.829,1349.42 691.173,1349.42 691.173,1347.76 693.516,1347.76 693.516,1344.04 695.859,1344.04 695.859,1342.58 
  698.203,1342.58 698.203,1339.53 700.546,1339.53 700.546,1337.79 702.889,1337.79 702.889,1335.35 705.232,1335.35 705.232,1331.05 707.576,1331.05 707.576,1329.24 
  709.919,1329.24 709.919,1325.89 712.262,1325.89 712.262,1324.25 714.606,1324.25 714.606,1319.72 716.949,1319.72 716.949,1319.92 719.292,1319.92 719.292,1314.56 
  721.636,1314.56 721.636,1308.95 723.979,1308.95 723.979,1307.26 726.322,1307.26 726.322,1306.53 728.665,1306.53 728.665,1305.15 731.009,1305.15 731.009,1296.62 
  733.352,1296.62 733.352,1293.17 735.695,1293.17 735.695,1288.34 738.039,1288.34 738.039,1284.59 740.382,1284.59 740.382,1280.76 742.725,1280.76 742.725,1276.36 
  745.068,1276.36 745.068,1272.08 747.412,1272.08 747.412,1266.77 749.755,1266.77 749.755,1262.89 752.098,1262.89 752.098,1261.13 754.442,1261.13 754.442,1257.18 
  756.785,1257.18 756.785,1247.99 759.128,1247.99 759.128,1245.25 761.472,1245.25 761.472,1239.71 763.815,1239.71 763.815,1234.17 766.158,1234.17 766.158,1236.79 
  768.501,1236.79 768.501,1225.11 770.845,1225.11 770.845,1218.59 773.188,1218.59 773.188,1210.19 775.531,1210.19 775.531,1204.67 777.875,1204.67 777.875,1199.52 
  780.218,1199.52 780.218,1195.59 782.561,1195.59 782.561,1184.77 784.904,1184.77 784.904,1185.09 787.248,1185.09 787.248,1177.42 789.591,1177.42 789.591,1173.04 
  791.934,1173.04 791.934,1160.05 794.278,1160.05 794.278,1156.63 796.621,1156.63 796.621,1147.99 798.964,1147.99 798.964,1135.44 801.308,1135.44 801.308,1139.29 
  803.651,1139.29 803.651,1129.04 805.994,1129.04 805.994,1119.63 808.337,1119.63 808.337,1111.12 810.681,1111.12 810.681,1105.26 813.024,1105.26 813.024,1095.59 
  815.367,1095.59 815.367,1084.52 817.711,1084.52 817.711,1083.96 820.054,1083.96 820.054,1070.27 822.397,1070.27 822.397,1066.47 824.74,1066.47 824.74,1052.73 
  827.084,1052.73 827.084,1046.21 829.427,1046.21 829.427,1037.75 831.77,1037.75 831.77,1029.02 834.114,1029.02 834.114,1025.6 836.457,1025.6 836.457,1012.84 
  838.8,1012.84 838.8,1001.39 841.144,1001.39 841.144,994.741 843.487,994.741 843.487,985.126 845.83,985.126 845.83,976.569 848.173,976.569 848.173,969.622 
  850.517,969.622 850.517,964.035 852.86,964.035 852.86,953.363 855.203,953.363 855.203,938.539 857.547,938.539 857.547,928.27 859.89,928.27 859.89,924.042 
  862.233,924.042 862.233,915.232 864.576,915.232 864.576,898.923 866.92,898.923 866.92,882.337 869.263,882.337 869.263,883.343 871.606,883.343 871.606,874.157 
  873.95,874.157 873.95,859.383 876.293,859.383 876.293,848.635 878.636,848.635 878.636,844.206 880.98,844.206 880.98,832.427 883.323,832.427 883.323,822.208 
  885.666,822.208 885.666,805.395 888.009,805.395 888.009,790.546 890.353,790.546 890.353,785.763 892.696,785.763 892.696,774.865 895.039,774.865 895.039,773.607 
  897.383,773.607 897.383,748.06 899.726,748.06 899.726,745.166 902.069,745.166 902.069,724.754 904.412,724.754 904.412,728.429 906.756,728.429 906.756,701.347 
  909.099,701.347 909.099,696.917 911.442,696.917 911.442,681.916 913.786,681.916 913.786,668.3 916.129,668.3 916.129,658.107 918.472,658.107 918.472,649.952 
  920.816,649.952 920.816,638.223 923.159,638.223 923.159,629.49 925.502,629.49 925.502,623.827 927.845,623.827 927.845,609.153 930.189,609.153 930.189,601.074 
  932.532,601.074 932.532,580.914 934.875,580.914 934.875,568.732 937.219,568.732 937.219,565.963 939.562,565.963 939.562,560.476 941.905,560.476 941.905,542.43 
  944.248,542.43 944.248,528.814 946.592,528.814 946.592,523.906 948.935,523.906 948.935,504.903 951.278,504.903 951.278,500.977 953.622,500.977 953.622,474.499 
  955.965,474.499 955.965,475.481 958.308,475.481 958.308,460.405 960.652,460.405 960.652,450.136 962.995,450.136 962.995,437.199 965.338,437.199 965.338,431.133 
  967.681,431.133 967.681,422.903 970.025,422.903 970.025,412.508 972.368,412.508 972.368,400.956 974.711,400.956 974.711,386.761 977.055,386.761 977.055,384.546 
  979.398,384.546 979.398,372.842 981.741,372.842 981.741,370.904 984.084,370.904 984.084,354.116 986.428,354.116 986.428,350.945 988.771,350.945 988.771,328.696 
  991.114,328.696 991.114,326.682 993.458,326.682 993.458,318.377 995.801,318.377 995.801,316.137 998.144,316.137 998.144,296.178 1000.49,296.178 1000.49,279.692 
  1002.83,279.692 1002.83,275.438 1005.17,275.438 1005.17,257.87 1007.52,257.87 1007.52,263.433 1009.86,263.433 1009.86,253.164 1012.2,253.164 1012.2,244.984 
  1014.55,244.984 1014.55,237.307 1016.89,237.307 1016.89,228.347 1019.23,228.347 1019.23,218.582 1021.58,218.582 1021.58,206.778 1023.92,206.778 1023.92,214.102 
  1026.26,214.102 1026.26,190.191 1028.61,190.191 1028.61,202.121 1030.95,202.121 1030.95,189.084 1033.29,189.084 1033.29,193.715 1035.64,193.715 1035.64,177.984 
  1037.98,177.984 1037.98,173.278 1040.32,173.278 1040.32,158.378 1042.67,158.378 1042.67,158.604 1045.01,158.604 1045.01,157.094 1047.35,157.094 1047.35,153.822 
  1049.7,153.822 1049.7,146.372 1052.04,146.372 1052.04,151.934 1054.38,151.934 1054.38,146.75 1056.73,146.75 1056.73,147.832 1059.07,147.832 1059.07,124.953 
  1061.41,124.953 1061.41,124.249 1063.76,124.249 1063.76,128.1 1066.1,128.1 1066.1,109.928 1068.44,109.928 1068.44,118.309 1070.79,118.309 1070.79,116.069 
  1073.13,116.069 1073.13,117.201 1075.47,117.201 1075.47,114.332 1077.82,114.332 1077.82,102.201 1080.16,102.201 1080.16,98.2743 1082.5,98.2743 1082.5,101.496 
  1084.85,101.496 1084.85,103.182 1087.19,103.182 1087.19,94.2473 1089.53,94.2473 1089.53,93.4671 1091.88,93.4671 1091.88,94.2725 1094.22,94.2725 1094.22,98.2995 
  1096.56,98.2995 1096.56,88.9115 1098.91,88.9115 1098.91,88.4585 1101.25,88.4585 1101.25,90.5223 1103.59,90.5223 1103.59,94.7255 1105.94,94.7255 1105.94,86.747 
  1108.28,86.747 1108.28,96.8397 1110.62,96.8397 1110.62,103.711 1112.97,103.711 1112.97,102.452 1115.31,102.452 1115.31,98.0478 1117.65,98.0478 1117.65,103.585 
  1120,103.585 1120,95.1282 1122.34,95.1282 1122.34,100.313 1124.68,100.313 1124.68,99.9607 1127.03,99.9607 1127.03,111.765 1129.37,111.765 1129.37,106.379 
  1131.71,106.379 1131.71,121.077 1134.06,121.077 1134.06,123.519 1136.4,123.519 1136.4,127.948 1138.74,127.948 1138.74,128.376 1141.09,128.376 1141.09,129.534 
  1143.43,129.534 1143.43,134.241 1145.77,134.241 1145.77,137.966 1148.12,137.966 1148.12,149.644 1150.46,149.644 1150.46,147.454 1152.8,147.454 1152.8,157.446 
  1155.14,157.446 1155.14,159.108 1157.49,159.108 1157.49,167.061 1159.83,167.061 1159.83,170.157 1162.17,170.157 1162.17,175.518 1164.52,175.518 1164.52,190.015 
  1166.86,190.015 1166.86,188.58 1169.2,188.58 1169.2,198.447 1171.55,198.447 1171.55,202.297 1173.89,202.297 1173.89,200.485 1176.23,200.485 1176.23,206.702 
  1178.58,206.702 1178.58,221.476 1180.92,221.476 1180.92,232.978 1183.26,232.978 1183.26,225.931 1185.61,225.931 1185.61,236.225 1187.95,236.225 1187.95,240.202 
  1190.29,240.202 1190.29,243.147 1192.64,243.147 1192.64,250.924 1194.98,250.924 1194.98,248.407 1197.32,248.407 1197.32,265.774 1199.67,265.774 1199.67,272.821 
  1202.01,272.821 1202.01,286.412 1204.35,286.412 1204.35,290.439 1206.7,290.439 1206.7,292.151 1209.04,292.151 1209.04,307.151 1211.38,307.151 1211.38,311.656 
  1213.73,311.656 1213.73,315.482 1216.07,315.482 1216.07,329.652 1218.41,329.652 1218.41,325.877 1220.76,325.877 1220.76,346.591 1223.1,346.591 1223.1,354.972 
  1225.44,354.972 1225.44,357.64 1227.79,357.64 1227.79,365.895 1230.13,365.895 1230.13,382.356 1232.47,382.356 1232.47,385.301 1234.82,385.301 1234.82,400.15 
  1237.16,400.15 1237.16,414.522 1239.5,414.522 1239.5,418.801 1241.85,418.801 1241.85,423.13 1244.19,423.13 1244.19,437.098 1246.53,437.098 1246.53,443.894 
  1248.88,443.894 1248.88,446.134 1251.22,446.134 1251.22,452.25 1253.56,452.25 1253.56,474.801 1255.91,474.801 1255.91,480.464 1258.25,480.464 1258.25,496.346 
  1260.59,496.346 1260.59,500.172 1262.94,500.172 1262.94,514.896 1265.28,514.896 1265.28,518.243 1267.62,518.243 1267.62,530.274 1269.97,530.274 1269.97,534.225 
  1272.31,534.225 1272.31,541.424 1274.65,541.424 1274.65,559.193 1277,559.193 1277,567.876 1279.34,567.876 1279.34,570.569 1281.68,570.569 1281.68,585.343 
  1284.03,585.343 1284.03,595.537 1286.37,595.537 1286.37,606.888 1288.71,606.888 1288.71,610.588 1291.06,610.588 1291.06,627.929 1293.4,627.929 1293.4,631.302 
  1295.74,631.302 1295.74,645.799 1298.09,645.799 1298.09,660.447 1300.43,660.447 1300.43,666.337 1302.77,666.337 1302.77,666.79 1305.12,666.79 1305.12,681.64 
  1307.46,681.64 1307.46,697.27 1309.8,697.27 1309.8,700.239 1312.15,700.239 1312.15,708.218 1314.49,708.218 1314.49,709.653 1316.83,709.653 1316.83,730.543 
  1319.18,730.543 1319.18,732.984 1321.52,732.984 1321.52,748.262 1323.86,748.262 1323.86,761.626 1326.21,761.626 1326.21,764.244 1328.55,764.244 1328.55,775.62 
  1330.89,775.62 1330.89,787.097 1333.24,787.097 1333.24,792.458 1335.58,792.458 1335.58,801.469 1337.92,801.469 1337.92,818.785 1340.27,818.785 1340.27,816.142 
  1342.61,816.142 1342.61,829.356 1344.95,829.356 1344.95,838.316 1347.3,838.316 1347.3,851.731 1349.64,851.731 1349.64,853.141 1351.98,853.141 1351.98,866.757 
  1354.33,866.757 1354.33,870.18 1356.67,870.18 1356.67,878.083 1359.01,878.083 1359.01,892.127 1361.35,892.127 1361.35,900.685 1363.7,900.685 1363.7,913.269 
  1366.04,913.269 1366.04,913.999 1368.38,913.999 1368.38,925.904 1370.73,925.904 1370.73,933.153 1373.07,933.153 1373.07,941.937 1375.41,941.937 1375.41,943.447 
  1377.76,943.447 1377.76,957.038 1380.1,957.038 1380.1,964.161 1382.44,964.161 1382.44,966.829 1384.79,966.829 1384.79,979.363 1387.13,979.363 1387.13,982.761 
  1389.47,982.761 1389.47,998.013 1391.82,998.013 1391.82,1001.54 1394.16,1001.54 1394.16,1009.62 1396.5,1009.62 1396.5,1016.84 1398.85,1016.84 1398.85,1027.08 
  1401.19,1027.08 1401.19,1031.71 1403.53,1031.71 1403.53,1035.56 1405.88,1035.56 1405.88,1039.16 1408.22,1039.16 1408.22,1052.58 1410.56,1052.58 1410.56,1053.81 
  1412.91,1053.81 1412.91,1059.02 1415.25,1059.02 1415.25,1066.9 1417.59,1066.9 1417.59,1073.8 1419.94,1073.8 1419.94,1082 1422.28,1082 1422.28,1093.55 
  1424.62,1093.55 1424.62,1093.33 1426.97,1093.33 1426.97,1094.96 1429.31,1094.96 1429.31,1106.19 1431.65,1106.19 1431.65,1113.79 1434,1113.79 1434,1114.39 
  1436.34,1114.39 1436.34,1124.79 1438.68,1124.79 1438.68,1127.21 1441.03,1127.21 1441.03,1136.87 1443.37,1136.87 1443.37,1139.87 1445.71,1139.87 1445.71,1145.1 
  1448.06,1145.1 1448.06,1150.79 1450.4,1150.79 1450.4,1155.7 1452.74,1155.7 1452.74,1161.43 1455.09,1161.43 1455.09,1163.65 1457.43,1163.65 1457.43,1166.29 
  1459.77,1166.29 1459.77,1175.33 1462.12,1175.33 1462.12,1182.93 1464.46,1182.93 1464.46,1187.46 1466.8,1187.46 1466.8,1186 1469.15,1186 1469.15,1194.2 
  1471.49,1194.2 1471.49,1198.46 1473.83,1198.46 1473.83,1201.58 1476.18,1201.58 1476.18,1206.11 1478.52,1206.11 1478.52,1212.33 1480.86,1212.33 1480.86,1213.41 
  1483.21,1213.41 1483.21,1222.19 1485.55,1222.19 1485.55,1222.24 1487.89,1222.24 1487.89,1223.55 1490.24,1223.55 1490.24,1236.61 1492.58,1236.61 1492.58,1235.91 
  1494.92,1235.91 1494.92,1241.87 1497.27,1241.87 1497.27,1246.15 1499.61,1246.15 1499.61,1245.35 1501.95,1245.35 1501.95,1252.57 1504.3,1252.57 1504.3,1253.55 
  1506.64,1253.55 1506.64,1256.45 1508.98,1256.45 1508.98,1261.46 1511.33,1261.46 1511.33,1265.21 1513.67,1265.21 1513.67,1268.53 1516.01,1268.53 1516.01,1271.95 
  1518.36,1271.95 1518.36,1271.72 1520.7,1271.72 1520.7,1279.5 1523.04,1279.5 1523.04,1278.8 1525.39,1278.8 1525.39,1280.99 1527.73,1280.99 1527.73,1286.27 
  1530.07,1286.27 1530.07,1288.71 1532.42,1288.71 1532.42,1293.9 1534.76,1293.9 1534.76,1295.59 1537.1,1295.59 1537.1,1300.9 1539.45,1300.9 1539.45,1300.87 
  1541.79,1300.87 1541.79,1304.22 1544.13,1304.22 1544.13,1305 1546.48,1305 1546.48,1307.31 1548.82,1307.31 1548.82,1311.42 1551.16,1311.42 1551.16,1310.66 
  1553.51,1310.66 1553.51,1318.34 1555.85,1318.34 1555.85,1317.23 1558.19,1317.23 1558.19,1319.62 1560.53,1319.62 1560.53,1322.19 1562.88,1322.19 1562.88,1323.4 
  1565.22,1323.4 1565.22,1326.92 1567.56,1326.92 1567.56,1325.28 1569.91,1325.28 1569.91,1328.86 1572.25,1328.86 1572.25,1332.51 1574.59,1332.51 1574.59,1335.65 
  1576.94,1335.65 1576.94,1333.67 1579.28,1333.67 1579.28,1336.01 1581.62,1336.01 1581.62,1335.43 1583.97,1335.43 1583.97,1338.45 1586.31,1338.45 1586.31,1341.87 
  1588.65,1341.87 1588.65,1343.13 1591,1343.13 1591,1345.82 1593.34,1345.82 1593.34,1347.68 1595.68,1347.68 1595.68,1348.24 1598.03,1348.24 1598.03,1350.13 
  1600.37,1350.13 1600.37,1353.35 1602.71,1353.35 1602.71,1350.68 1605.06,1350.68 1605.06,1353.68 1607.4,1353.68 1607.4,1357.98 1609.74,1357.98 1609.74,1357.1 
  1612.09,1357.1 1612.09,1358.46 1614.43,1358.46 1614.43,1361.7 1616.77,1361.7 1616.77,1362.94 1619.12,1362.94 1619.12,1364.22 1621.46,1364.22 1621.46,1363.62 
  1623.8,1363.62 1623.8,1365.33 1626.15,1365.33 1626.15,1364.7 1628.49,1364.7 1628.49,1366.31 1630.83,1366.31 1630.83,1368.32 1633.18,1368.32 1633.18,1371.6 
  1635.52,1371.6 1635.52,1370.11 1637.86,1370.11 1637.86,1370.92 1640.21,1370.92 1640.21,1371.62 1642.55,1371.62 1642.55,1372.7 1644.89,1372.7 1644.89,1372.8 
  1647.24,1372.8 1647.24,1373.43 1649.58,1373.43 1649.58,1375.42 1651.92,1375.42 1651.92,1377.03 1654.27,1377.03 1654.27,1376.18 1656.61,1376.18 1656.61,1377.54 
  1658.95,1377.54 1658.95,1378.42 1661.3,1378.42 1661.3,1380.96 1663.64,1380.96 1663.64,1380.58 1665.98,1380.58 1665.98,1380.53 1668.33,1380.53 1668.33,1380.81 
  1670.67,1380.81 1670.67,1381.56 1673.01,1381.56 1673.01,1383.45 1675.36,1383.45 1675.36,1384.41 1677.7,1384.41 1677.7,1384.31 1680.04,1384.31 1680.04,1385.06 
  1682.39,1385.06 1682.39,1385.26 1684.73,1385.26 1684.73,1385.92 1687.07,1385.92 1687.07,1386.77 1689.42,1386.77 1689.42,1387.75 1691.76,1387.75 1691.76,1387.98 
  1694.1,1387.98 1694.1,1389.29 1696.45,1389.29 1696.45,1389.04 1698.79,1389.04 1698.79,1388.89 1701.13,1388.89 1701.13,1388.96 1703.48,1388.96 1703.48,1389.94 
  1705.82,1389.94 1705.82,1389.41 1708.16,1389.41 1708.16,1391.3 1710.51,1391.3 1710.51,1391.08 1712.85,1391.08 1712.85,1391.86 1715.19,1391.86 1715.19,1392.26 
  1717.54,1392.26 1717.54,1392.03 1719.88,1392.03 1722.22,1392.03 1722.22,1392.66 1724.57,1392.66 1724.57,1393.24 1726.91,1393.24 1726.91,1393.42 
  1729.25,1393.42 1729.25,1394 1731.6,1394 1731.6,1393.62 1733.94,1393.62 1733.94,1394.05 1736.28,1394.05 1736.28,1394.6 1738.63,1394.6 1738.63,1395.71 
  1740.97,1395.71 1740.97,1395.53 1743.31,1395.53 1743.31,1394.75 1745.66,1394.75 1745.66,1395.88 1748,1395.88 1748,1395.53 1750.34,1395.53 1750.34,1396.69 
  1752.69,1396.69 1752.69,1395.98 1755.03,1395.98 1755.03,1396.86 1757.37,1396.86 1757.37,1397.54 1759.71,1397.54 1759.71,1396.54 1762.06,1396.54 1762.06,1398.17 
  1764.4,1398.17 1764.4,1396.66 1766.74,1396.66 1766.74,1397.49 1769.09,1397.49 1771.43,1397.49 1771.43,1398.68 1773.77,1398.68 1773.77,1398.4 
  1776.12,1398.4 1776.12,1398.3 1778.46,1398.3 1778.46,1399.1 1780.8,1399.1 1780.8,1399.05 1783.15,1399.05 1783.15,1398.9 1785.49,1398.9 1785.49,1399.38 
  1787.83,1399.38 1787.83,1399.13 1790.18,1399.13 1790.18,1399.51 1792.52,1399.51 1792.52,1399.58 1794.86,1399.58 1794.86,1399.96 1797.21,1399.96 1797.21,1399.94 
  1799.55,1399.94 1799.55,1399.71 1801.89,1399.71 1801.89,1399.99 1804.24,1399.99 1804.24,1400.24 1806.58,1400.24 1806.58,1400.01 1808.92,1400.01 1808.92,1400.82 
  1811.27,1400.82 1811.27,1400.56 1813.61,1400.56 1813.61,1400.89 1815.95,1400.89 1815.95,1400.94 1818.3,1400.94 1818.3,1400.72 1820.64,1400.72 1820.64,1401.12 
  1822.98,1401.12 1822.98,1401.14 1825.33,1401.14 1825.33,1401.17 1827.67,1401.17 1827.67,1401.47 1830.01,1401.47 1830.01,1401.24 1832.36,1401.24 1832.36,1401.09 
  1834.7,1401.09 1834.7,1401.17 1837.04,1401.17 1837.04,1401.37 1839.39,1401.37 1839.39,1401.62 1841.73,1401.62 1841.73,1401.45 1844.07,1401.45 1844.07,1401.77 
  1846.42,1401.77 1846.42,1401.75 1848.76,1401.75 1848.76,1402.1 1851.1,1402.1 1853.45,1402.1 1853.45,1401.42 1855.79,1401.42 1855.79,1402.05 
  1858.13,1402.05 1858.13,1402.18 1860.48,1402.18 1860.48,1402.05 1862.82,1402.05 1862.82,1402.15 1865.16,1402.15 1865.16,1402.1 1867.51,1402.1 1867.51,1402.28 
  1869.85,1402.28 1869.85,1402.33 1872.19,1402.33 1872.19,1402.45 1874.54,1402.45 1874.54,1402.33 1876.88,1402.33 1876.88,1402.78 1879.22,1402.78 1879.22,1402.7 
  1881.57,1402.7 1881.57,1402.91 1883.91,1402.91 1883.91,1402.45 1886.25,1402.45 1886.25,1402.7 1888.6,1402.7 1888.6,1402.45 1890.94,1402.45 1890.94,1402.68 
  1893.28,1402.68 1893.28,1402.8 1895.63,1402.8 1895.63,1402.75 1897.97,1402.75 1897.97,1402.7 1900.31,1402.7 1900.31,1402.96 1902.66,1402.96 1902.66,1402.8 
  1905,1402.8 1905,1402.68 1907.34,1402.68 1907.34,1402.88 1909.69,1402.88 1909.69,1403.06 1912.03,1403.06 1912.03,1403.11 1914.37,1403.11 1914.37,1403.03 
  1916.72,1403.03 1916.72,1402.93 1919.06,1402.93 1921.4,1402.93 1921.4,1403.13 1923.75,1403.13 1923.75,1403.23 1926.09,1403.23 1926.09,1403.06 
  1928.43,1403.06 1928.43,1403.18 1930.78,1403.18 1930.78,1403.28 1933.12,1403.28 1933.12,1403.26 1935.46,1403.26 1935.46,1403.13 1937.81,1403.13 1937.81,1403.23 
  1940.15,1403.23 1942.49,1403.23 1942.49,1403.11 1944.84,1403.11 1944.84,1403.13 1947.18,1403.13 1947.18,1403.31 1949.52,1403.31 1949.52,1403.33 
  1951.87,1403.33 1951.87,1403.31 1954.21,1403.31 1954.21,1403.38 1956.55,1403.38 1956.55,1403.26 1958.89,1403.26 1958.89,1403.31 1961.24,1403.31 1961.24,1403.16 
  1963.58,1403.16 1963.58,1403.26 1965.92,1403.26 1965.92,1403.41 1968.27,1403.41 1968.27,1403.31 1970.61,1403.31 1970.61,1403.36 1972.95,1403.36 
  1975.3,1403.36 1975.3,1403.38 1977.64,1403.38 1977.64,1403.33 1979.98,1403.33 1979.98,1403.43 1982.33,1403.43 1984.67,1403.43 1984.67,1403.41 
  1987.01,1403.41 1987.01,1403.36 1989.36,1403.36 1989.36,1403.41 1991.7,1403.41 1994.04,1403.41 1994.04,1403.43 1996.39,1403.43 
  1998.73,1403.43 1998.73,1403.41 2001.07,1403.41 2001.07,1403.48 2003.42,1403.48 2005.76,1403.48 2005.76,1403.41 2008.1,1403.41 2008.1,1403.43 
  2010.45,1403.43 2012.79,1403.43 2012.79,1403.46 2015.13,1403.46 2017.48,1403.46 2017.48,1403.48 2019.82,1403.48 2019.82,1403.51 
  2022.16,1403.51 2024.51,1403.51 2024.51,1403.48 2026.85,1403.48 2026.85,1403.51 2029.19,1403.51 2029.19,1403.46 2031.54,1403.46 2031.54,1403.48 
  2033.88,1403.48 2033.88,1403.46 2036.22,1403.46 2036.22,1403.51 2038.57,1403.51 2038.57,1403.46 2040.91,1403.46 2040.91,1403.51 2043.25,1403.51 2043.25,1403.48 
  2045.6,1403.48 2047.94,1403.48 2050.28,1403.48 2052.63,1403.48 2052.63,1403.51 2054.97,1403.51 
  2057.31,1403.51 2057.31,1403.48 2059.66,1403.48 2059.66,1403.46 2062,1403.46 2064.34,1403.46 2064.34,1403.51 2066.69,1403.51 2066.69,1403.48 
  2069.03,1403.48 2069.03,1403.51 2071.37,1403.51 2071.37,1403.43 2073.72,1403.43 2073.72,1403.48 2076.06,1403.48 2076.06,1403.46 2078.4,1403.46 2078.4,1403.51 
  2080.75,1403.51 2080.75,1403.48 2083.09,1403.48 2083.09,1403.43 2085.43,1403.43 2085.43,1403.48 2087.78,1403.48 2090.12,1403.48 
  2092.46,1403.48 2092.46,1403.51 2094.81,1403.51 2097.15,1403.51 2099.49,1403.51 2101.84,1403.51 2101.84,1403.46 
  2104.18,1403.46 2104.18,1403.51 2106.52,1403.51 2108.87,1403.51 2108.87,1403.48 2111.21,1403.48 2111.21,1403.51 2113.55,1403.51 
  2115.9,1403.51 2118.24,1403.51 2120.58,1403.51 2120.58,1403.48 2122.93,1403.48 2122.93,1403.51 2125.27,1403.51 2125.27,1403.48 
  2127.61,1403.48 2129.96,1403.48 2129.96,1403.51 2132.3,1403.51 2132.3,1403.48 2134.64,1403.48 2134.64,1403.51 2136.99,1403.51 
  2139.33,1403.51 2139.33,1403.48 2141.67,1403.48 2141.67,1403.51 2144.02,1403.51 2144.02,1403.48 2146.36,1403.48 2146.36,1403.51 2148.7,1403.51 
  2151.05,1403.51 2153.39,1403.51 2155.73,1403.51 2158.08,1403.51 2158.08,1403.48 2160.42,1403.48 2160.42,1403.51 
  2162.76,1403.51 2162.76,1403.48 2165.1,1403.48 2165.1,1403.51 2167.45,1403.51 2169.79,1403.51 2172.13,1403.51 
  2174.48,1403.51 2176.82,1403.51 2179.16,1403.51 2181.51,1403.51 2183.85,1403.51 2183.85,1403.48 
  2186.19,1403.48 2186.19,1403.51 2188.54,1403.51 2188.54,1403.48 2190.88,1403.48 2190.88,1403.51 2193.22,1403.51 2195.57,1403.51 
  2197.91,1403.51 2200.25,1403.51 2202.6,1403.51 2202.6,1403.48 2204.94,1403.48 2204.94,1403.51 2207.28,1403.51 
  2209.63,1403.51 2211.97,1403.51 2211.97,1403.48 2214.31,1403.48 2214.31,1403.51 2216.66,1403.51 2216.66,1403.48 2219,1403.48 2219,1403.51 
  2221.34,1403.51 2223.69,1403.51 2226.03,1403.51 2226.03,1403.48 2228.37,1403.48 2228.37,1403.51 2230.72,1403.51 
  2233.06,1403.51 2235.4,1403.51 2237.75,1403.51 2240.09,1403.51 2242.43,1403.51 
  2244.78,1403.51 2247.12,1403.51 2249.46,1403.51 2251.81,1403.51 2254.15,1403.51 2254.15,1403.48 
  2256.49,1403.48 2258.84,1403.48 2258.84,1403.51 2261.18,1403.51 2263.52,1403.51 2265.87,1403.51 
  2268.21,1403.51 2268.21,1403.48 2270.55,1403.48 2270.55,1403.51 2272.9,1403.51 2272.9,1403.46 2275.24,1403.46 2275.24,1403.51 2277.58,1403.51 
  2279.93,1403.51 2282.27,1403.51 2284.61,1403.51 2286.96,1403.51 2289.3,1403.51 
  2291.64,1403.51 2291.64,1403.48 2293.99,1403.48 2293.99,1403.51 
  "/>
<circle clip-path="url(#clip682)" cx="334.992" cy="1403.51" r="14" fill="#ff00ff" fill-rule="evenodd" fill-opacity="1" stroke="none"/>
<circle clip-path="url(#clip682)" cx="358.425" cy="1403.51" r="14" fill="#ff00ff" fill-rule="evenodd" fill-opacity="1" stroke="none"/>
<circle clip-path="url(#clip682)" cx="381.858" cy="1403.51" r="14" fill="#ff00ff" fill-rule="evenodd" fill-opacity="1" stroke="none"/>
<circle clip-path="url(#clip682)" cx="405.291" cy="1403.51" r="14" fill="#ff00ff" fill-rule="evenodd" fill-opacity="1" stroke="none"/>
<circle clip-path="url(#clip682)" cx="428.724" cy="1403.5" r="14" fill="#ff00ff" fill-rule="evenodd" fill-opacity="1" stroke="none"/>
<circle clip-path="url(#clip682)" cx="452.157" cy="1403.49" r="14" fill="#ff00ff" fill-rule="evenodd" fill-opacity="1" stroke="none"/>
<circle clip-path="url(#clip682)" cx="475.59" cy="1403.44" r="14" fill="#ff00ff" fill-rule="evenodd" fill-opacity="1" stroke="none"/>
<circle clip-path="url(#clip682)" cx="499.023" cy="1403.33" r="14" fill="#ff00ff" fill-rule="evenodd" fill-opacity="1" stroke="none"/>
<circle clip-path="url(#clip682)" cx="522.455" cy="1403.06" r="14" fill="#ff00ff" fill-rule="evenodd" fill-opacity="1" stroke="none"/>
<circle clip-path="url(#clip682)" cx="545.888" cy="1402.5" r="14" fill="#ff00ff" fill-rule="evenodd" fill-opacity="1" stroke="none"/>
<circle clip-path="url(#clip682)" cx="569.321" cy="1401.35" r="14" fill="#ff00ff" fill-rule="evenodd" fill-opacity="1" stroke="none"/>
<circle clip-path="url(#clip682)" cx="592.754" cy="1399.19" r="14" fill="#ff00ff" fill-rule="evenodd" fill-opacity="1" stroke="none"/>
<circle clip-path="url(#clip682)" cx="616.187" cy="1395.32" r="14" fill="#ff00ff" fill-rule="evenodd" fill-opacity="1" stroke="none"/>
<circle clip-path="url(#clip682)" cx="639.62" cy="1388.78" r="14" fill="#ff00ff" fill-rule="evenodd" fill-opacity="1" stroke="none"/>
<circle clip-path="url(#clip682)" cx="663.053" cy="1378.3" r="14" fill="#ff00ff" fill-rule="evenodd" fill-opacity="1" stroke="none"/>
<circle clip-path="url(#clip682)" cx="686.486" cy="1362.28" r="14" fill="#ff00ff" fill-rule="evenodd" fill-opacity="1" stroke="none"/>
<circle clip-path="url(#clip682)" cx="709.919" cy="1338.89" r="14" fill="#ff00ff" fill-rule="evenodd" fill-opacity="1" stroke="none"/>
<circle clip-path="url(#clip682)" cx="733.352" cy="1306.2" r="14" fill="#ff00ff" fill-rule="evenodd" fill-opacity="1" stroke="none"/>
<circle clip-path="url(#clip682)" cx="756.785" cy="1262.37" r="14" fill="#ff00ff" fill-rule="evenodd" fill-opacity="1" stroke="none"/>
<circle clip-path="url(#clip682)" cx="780.218" cy="1205.9" r="14" fill="#ff00ff" fill-rule="evenodd" fill-opacity="1" stroke="none"/>
<circle clip-path="url(#clip682)" cx="803.651" cy="1135.89" r="14" fill="#ff00ff" fill-rule="evenodd" fill-opacity="1" stroke="none"/>
<circle clip-path="url(#clip682)" cx="827.084" cy="1052.29" r="14" fill="#ff00ff" fill-rule="evenodd" fill-opacity="1" stroke="none"/>
<circle clip-path="url(#clip682)" cx="850.517" cy="956.077" r="14" fill="#ff00ff" fill-rule="evenodd" fill-opacity="1" stroke="none"/>
<circle clip-path="url(#clip682)" cx="873.95" cy="849.343" r="14" fill="#ff00ff" fill-rule="evenodd" fill-opacity="1" stroke="none"/>
<circle clip-path="url(#clip682)" cx="897.383" cy="735.24" r="14" fill="#ff00ff" fill-rule="evenodd" fill-opacity="1" stroke="none"/>
<circle clip-path="url(#clip682)" cx="920.816" cy="617.837" r="14" fill="#ff00ff" fill-rule="evenodd" fill-opacity="1" stroke="none"/>
<circle clip-path="url(#clip682)" cx="944.248" cy="501.838" r="14" fill="#ff00ff" fill-rule="evenodd" fill-opacity="1" stroke="none"/>
<circle clip-path="url(#clip682)" cx="967.681" cy="392.226" r="14" fill="#ff00ff" fill-rule="evenodd" fill-opacity="1" stroke="none"/>
<circle clip-path="url(#clip682)" cx="991.114" cy="293.875" r="14" fill="#ff00ff" fill-rule="evenodd" fill-opacity="1" stroke="none"/>
<circle clip-path="url(#clip682)" cx="1014.55" cy="211.162" r="14" fill="#ff00ff" fill-rule="evenodd" fill-opacity="1" stroke="none"/>
<circle clip-path="url(#clip682)" cx="1037.98" cy="147.636" r="14" fill="#ff00ff" fill-rule="evenodd" fill-opacity="1" stroke="none"/>
<circle clip-path="url(#clip682)" cx="1061.41" cy="105.772" r="14" fill="#ff00ff" fill-rule="evenodd" fill-opacity="1" stroke="none"/>
<circle clip-path="url(#clip682)" cx="1084.85" cy="86.8307" r="14" fill="#ff00ff" fill-rule="evenodd" fill-opacity="1" stroke="none"/>
<circle clip-path="url(#clip682)" cx="1108.28" cy="90.8376" r="14" fill="#ff00ff" fill-rule="evenodd" fill-opacity="1" stroke="none"/>
<circle clip-path="url(#clip682)" cx="1131.71" cy="116.662" r="14" fill="#ff00ff" fill-rule="evenodd" fill-opacity="1" stroke="none"/>
<circle clip-path="url(#clip682)" cx="1155.14" cy="162.185" r="14" fill="#ff00ff" fill-rule="evenodd" fill-opacity="1" stroke="none"/>
<circle clip-path="url(#clip682)" cx="1178.58" cy="224.53" r="14" fill="#ff00ff" fill-rule="evenodd" fill-opacity="1" stroke="none"/>
<circle clip-path="url(#clip682)" cx="1202.01" cy="300.323" r="14" fill="#ff00ff" fill-rule="evenodd" fill-opacity="1" stroke="none"/>
<circle clip-path="url(#clip682)" cx="1225.44" cy="385.953" r="14" fill="#ff00ff" fill-rule="evenodd" fill-opacity="1" stroke="none"/>
<circle clip-path="url(#clip682)" cx="1248.88" cy="477.819" r="14" fill="#ff00ff" fill-rule="evenodd" fill-opacity="1" stroke="none"/>
<circle clip-path="url(#clip682)" cx="1272.31" cy="572.532" r="14" fill="#ff00ff" fill-rule="evenodd" fill-opacity="1" stroke="none"/>
<circle clip-path="url(#clip682)" cx="1295.74" cy="667.073" r="14" fill="#ff00ff" fill-rule="evenodd" fill-opacity="1" stroke="none"/>
<circle clip-path="url(#clip682)" cx="1319.18" cy="758.894" r="14" fill="#ff00ff" fill-rule="evenodd" fill-opacity="1" stroke="none"/>
<circle clip-path="url(#clip682)" cx="1342.61" cy="845.977" r="14" fill="#ff00ff" fill-rule="evenodd" fill-opacity="1" stroke="none"/>
<circle clip-path="url(#clip682)" cx="1366.04" cy="926.836" r="14" fill="#ff00ff" fill-rule="evenodd" fill-opacity="1" stroke="none"/>
<circle clip-path="url(#clip682)" cx="1389.47" cy="1000.5" r="14" fill="#ff00ff" fill-rule="evenodd" fill-opacity="1" stroke="none"/>
<circle clip-path="url(#clip682)" cx="1412.91" cy="1066.44" r="14" fill="#ff00ff" fill-rule="evenodd" fill-opacity="1" stroke="none"/>
<circle clip-path="url(#clip682)" cx="1436.34" cy="1124.52" r="14" fill="#ff00ff" fill-rule="evenodd" fill-opacity="1" stroke="none"/>
<circle clip-path="url(#clip682)" cx="1459.77" cy="1174.92" r="14" fill="#ff00ff" fill-rule="evenodd" fill-opacity="1" stroke="none"/>
<circle clip-path="url(#clip682)" cx="1483.21" cy="1218.04" r="14" fill="#ff00ff" fill-rule="evenodd" fill-opacity="1" stroke="none"/>
<circle clip-path="url(#clip682)" cx="1506.64" cy="1254.45" r="14" fill="#ff00ff" fill-rule="evenodd" fill-opacity="1" stroke="none"/>
<circle clip-path="url(#clip682)" cx="1530.07" cy="1284.82" r="14" fill="#ff00ff" fill-rule="evenodd" fill-opacity="1" stroke="none"/>
<circle clip-path="url(#clip682)" cx="1553.51" cy="1309.84" r="14" fill="#ff00ff" fill-rule="evenodd" fill-opacity="1" stroke="none"/>
<circle clip-path="url(#clip682)" cx="1576.94" cy="1330.22" r="14" fill="#ff00ff" fill-rule="evenodd" fill-opacity="1" stroke="none"/>
<circle clip-path="url(#clip682)" cx="1600.37" cy="1346.65" r="14" fill="#ff00ff" fill-rule="evenodd" fill-opacity="1" stroke="none"/>
<circle clip-path="url(#clip682)" cx="1623.8" cy="1359.76" r="14" fill="#ff00ff" fill-rule="evenodd" fill-opacity="1" stroke="none"/>
<circle clip-path="url(#clip682)" cx="1647.24" cy="1370.11" r="14" fill="#ff00ff" fill-rule="evenodd" fill-opacity="1" stroke="none"/>
<circle clip-path="url(#clip682)" cx="1670.67" cy="1378.21" r="14" fill="#ff00ff" fill-rule="evenodd" fill-opacity="1" stroke="none"/>
<circle clip-path="url(#clip682)" cx="1694.1" cy="1384.49" r="14" fill="#ff00ff" fill-rule="evenodd" fill-opacity="1" stroke="none"/>
<circle clip-path="url(#clip682)" cx="1717.54" cy="1389.31" r="14" fill="#ff00ff" fill-rule="evenodd" fill-opacity="1" stroke="none"/>
<circle clip-path="url(#clip682)" cx="1740.97" cy="1392.99" r="14" fill="#ff00ff" fill-rule="evenodd" fill-opacity="1" stroke="none"/>
<circle clip-path="url(#clip682)" cx="1764.4" cy="1395.77" r="14" fill="#ff00ff" fill-rule="evenodd" fill-opacity="1" stroke="none"/>
<circle clip-path="url(#clip682)" cx="1787.83" cy="1397.85" r="14" fill="#ff00ff" fill-rule="evenodd" fill-opacity="1" stroke="none"/>
<circle clip-path="url(#clip682)" cx="1811.27" cy="1399.4" r="14" fill="#ff00ff" fill-rule="evenodd" fill-opacity="1" stroke="none"/>
<circle clip-path="url(#clip682)" cx="1834.7" cy="1400.54" r="14" fill="#ff00ff" fill-rule="evenodd" fill-opacity="1" stroke="none"/>
<circle clip-path="url(#clip682)" cx="1858.13" cy="1401.38" r="14" fill="#ff00ff" fill-rule="evenodd" fill-opacity="1" stroke="none"/>
<circle clip-path="url(#clip682)" cx="1881.57" cy="1401.99" r="14" fill="#ff00ff" fill-rule="evenodd" fill-opacity="1" stroke="none"/>
<circle clip-path="url(#clip682)" cx="1905" cy="1402.44" r="14" fill="#ff00ff" fill-rule="evenodd" fill-opacity="1" stroke="none"/>
<circle clip-path="url(#clip682)" cx="1928.43" cy="1402.75" r="14" fill="#ff00ff" fill-rule="evenodd" fill-opacity="1" stroke="none"/>
<circle clip-path="url(#clip682)" cx="1951.87" cy="1402.98" r="14" fill="#ff00ff" fill-rule="evenodd" fill-opacity="1" stroke="none"/>
<circle clip-path="url(#clip682)" cx="1975.3" cy="1403.14" r="14" fill="#ff00ff" fill-rule="evenodd" fill-opacity="1" stroke="none"/>
<circle clip-path="url(#clip682)" cx="1998.73" cy="1403.25" r="14" fill="#ff00ff" fill-rule="evenodd" fill-opacity="1" stroke="none"/>
<circle clip-path="url(#clip682)" cx="2022.16" cy="1403.33" r="14" fill="#ff00ff" fill-rule="evenodd" fill-opacity="1" stroke="none"/>
<circle clip-path="url(#clip682)" cx="2045.6" cy="1403.39" r="14" fill="#ff00ff" fill-rule="evenodd" fill-opacity="1" stroke="none"/>
<circle clip-path="url(#clip682)" cx="2069.03" cy="1403.43" r="14" fill="#ff00ff" fill-rule="evenodd" fill-opacity="1" stroke="none"/>
<circle clip-path="url(#clip682)" cx="2092.46" cy="1403.45" r="14" fill="#ff00ff" fill-rule="evenodd" fill-opacity="1" stroke="none"/>
<circle clip-path="url(#clip682)" cx="2115.9" cy="1403.47" r="14" fill="#ff00ff" fill-rule="evenodd" fill-opacity="1" stroke="none"/>
<circle clip-path="url(#clip682)" cx="2139.33" cy="1403.48" r="14" fill="#ff00ff" fill-rule="evenodd" fill-opacity="1" stroke="none"/>
<circle clip-path="url(#clip682)" cx="2162.76" cy="1403.49" r="14" fill="#ff00ff" fill-rule="evenodd" fill-opacity="1" stroke="none"/>
<circle clip-path="url(#clip682)" cx="2186.19" cy="1403.5" r="14" fill="#ff00ff" fill-rule="evenodd" fill-opacity="1" stroke="none"/>
<circle clip-path="url(#clip682)" cx="2209.63" cy="1403.5" r="14" fill="#ff00ff" fill-rule="evenodd" fill-opacity="1" stroke="none"/>
<circle clip-path="url(#clip682)" cx="2233.06" cy="1403.5" r="14" fill="#ff00ff" fill-rule="evenodd" fill-opacity="1" stroke="none"/>
<circle clip-path="url(#clip682)" cx="2256.49" cy="1403.51" r="14" fill="#ff00ff" fill-rule="evenodd" fill-opacity="1" stroke="none"/>
<circle clip-path="url(#clip682)" cx="2279.93" cy="1403.51" r="14" fill="#ff00ff" fill-rule="evenodd" fill-opacity="1" stroke="none"/>
<path clip-path="url(#clip680)" d="
M1606.24 249.29 L2283.54 249.29 L2283.54 93.7697 L1606.24 93.7697  Z
  " fill="#ffffff" fill-rule="evenodd" fill-opacity="1"/>
<polyline clip-path="url(#clip680)" style="stroke:#000000; stroke-linecap:butt; stroke-linejoin:round; stroke-width:4; stroke-opacity:1; fill:none" points="
  1606.24,249.29 2283.54,249.29 2283.54,93.7697 1606.24,93.7697 1606.24,249.29 
  "/>
<polyline clip-path="url(#clip680)" style="stroke:#009fe3; stroke-linecap:butt; stroke-linejoin:round; stroke-width:4; stroke-opacity:0.996078; fill:none" points="
  1629.31,145.61 1767.75,145.61 
  "/>
<path clip-path="url(#clip680)" d="M1813.07 129.464 L1813.07 134.024 Q1810.4 132.751 1808.04 132.126 Q1805.68 131.501 1803.48 131.501 Q1799.66 131.501 1797.58 132.982 Q1795.52 134.464 1795.52 137.195 Q1795.52 139.487 1796.89 140.668 Q1798.27 141.825 1802.12 142.543 L1804.94 143.121 Q1810.17 144.117 1812.65 146.64 Q1815.15 149.14 1815.15 153.353 Q1815.15 158.376 1811.77 160.968 Q1808.41 163.561 1801.91 163.561 Q1799.46 163.561 1796.68 163.005 Q1793.92 162.45 1790.96 161.362 L1790.96 156.547 Q1793.81 158.144 1796.54 158.955 Q1799.27 159.765 1801.91 159.765 Q1805.91 159.765 1808.09 158.191 Q1810.27 156.617 1810.27 153.7 Q1810.27 151.154 1808.69 149.718 Q1807.14 148.283 1803.58 147.566 L1800.73 147.01 Q1795.5 145.968 1793.16 143.746 Q1790.82 141.524 1790.82 137.566 Q1790.82 132.982 1794.04 130.344 Q1797.28 127.705 1802.95 127.705 Q1805.38 127.705 1807.9 128.145 Q1810.43 128.584 1813.07 129.464 Z" fill="#000000" fill-rule="evenodd" fill-opacity="1" /><path clip-path="url(#clip680)" d="M1822.26 136.964 L1826.52 136.964 L1826.52 162.89 L1822.26 162.89 L1822.26 136.964 M1822.26 126.871 L1826.52 126.871 L1826.52 132.265 L1822.26 132.265 L1822.26 126.871 Z" fill="#000000" fill-rule="evenodd" fill-opacity="1" /><path clip-path="url(#clip680)" d="M1855.61 141.941 Q1857.21 139.07 1859.43 137.705 Q1861.65 136.339 1864.66 136.339 Q1868.71 136.339 1870.91 139.186 Q1873.11 142.01 1873.11 147.242 L1873.11 162.89 L1868.83 162.89 L1868.83 147.381 Q1868.83 143.654 1867.51 141.848 Q1866.19 140.043 1863.48 140.043 Q1860.17 140.043 1858.25 142.242 Q1856.33 144.441 1856.33 148.237 L1856.33 162.89 L1852.05 162.89 L1852.05 147.381 Q1852.05 143.631 1850.73 141.848 Q1849.41 140.043 1846.65 140.043 Q1843.39 140.043 1841.47 142.265 Q1839.55 144.464 1839.55 148.237 L1839.55 162.89 L1835.27 162.89 L1835.27 136.964 L1839.55 136.964 L1839.55 140.992 Q1841.01 138.607 1843.04 137.473 Q1845.08 136.339 1847.88 136.339 Q1850.71 136.339 1852.67 137.774 Q1854.66 139.209 1855.61 141.941 Z" fill="#000000" fill-rule="evenodd" fill-opacity="1" /><path clip-path="url(#clip680)" d="M1881.17 152.658 L1881.17 136.964 L1885.43 136.964 L1885.43 152.496 Q1885.43 156.177 1886.86 158.029 Q1888.3 159.857 1891.17 159.857 Q1894.62 159.857 1896.61 157.658 Q1898.62 155.459 1898.62 151.663 L1898.62 136.964 L1902.88 136.964 L1902.88 162.89 L1898.62 162.89 L1898.62 158.908 Q1897.07 161.269 1895.01 162.427 Q1892.97 163.561 1890.27 163.561 Q1885.8 163.561 1883.48 160.783 Q1881.17 158.005 1881.17 152.658 M1891.89 136.339 L1891.89 136.339 Z" fill="#000000" fill-rule="evenodd" fill-opacity="1" /><path clip-path="url(#clip680)" d="M1911.65 126.871 L1915.91 126.871 L1915.91 162.89 L1911.65 162.89 L1911.65 126.871 Z" fill="#000000" fill-rule="evenodd" fill-opacity="1" /><path clip-path="url(#clip680)" d="M1936.61 149.857 Q1931.45 149.857 1929.45 151.038 Q1927.46 152.218 1927.46 155.066 Q1927.46 157.334 1928.95 158.677 Q1930.45 159.996 1933.02 159.996 Q1936.56 159.996 1938.69 157.496 Q1940.84 154.973 1940.84 150.806 L1940.84 149.857 L1936.61 149.857 M1945.1 148.098 L1945.1 162.89 L1940.84 162.89 L1940.84 158.955 Q1939.39 161.316 1937.21 162.45 Q1935.03 163.561 1931.89 163.561 Q1927.9 163.561 1925.54 161.339 Q1923.2 159.093 1923.2 155.343 Q1923.2 150.968 1926.12 148.746 Q1929.06 146.524 1934.87 146.524 L1940.84 146.524 L1940.84 146.107 Q1940.84 143.168 1938.9 141.57 Q1936.98 139.95 1933.48 139.95 Q1931.26 139.95 1929.15 140.482 Q1927.05 141.015 1925.1 142.08 L1925.1 138.144 Q1927.44 137.242 1929.64 136.802 Q1931.84 136.339 1933.92 136.339 Q1939.55 136.339 1942.33 139.256 Q1945.1 142.172 1945.1 148.098 Z" fill="#000000" fill-rule="evenodd" fill-opacity="1" /><path clip-path="url(#clip680)" d="M1958.09 129.603 L1958.09 136.964 L1966.86 136.964 L1966.86 140.274 L1958.09 140.274 L1958.09 154.348 Q1958.09 157.519 1958.95 158.422 Q1959.82 159.325 1962.49 159.325 L1966.86 159.325 L1966.86 162.89 L1962.49 162.89 Q1957.56 162.89 1955.68 161.061 Q1953.81 159.209 1953.81 154.348 L1953.81 140.274 L1950.68 140.274 L1950.68 136.964 L1953.81 136.964 L1953.81 129.603 L1958.09 129.603 Z" fill="#000000" fill-rule="evenodd" fill-opacity="1" /><path clip-path="url(#clip680)" d="M1972.46 136.964 L1976.72 136.964 L1976.72 162.89 L1972.46 162.89 L1972.46 136.964 M1972.46 126.871 L1976.72 126.871 L1976.72 132.265 L1972.46 132.265 L1972.46 126.871 Z" fill="#000000" fill-rule="evenodd" fill-opacity="1" /><path clip-path="url(#clip680)" d="M1995.68 139.95 Q1992.26 139.95 1990.26 142.635 Q1988.27 145.297 1988.27 149.95 Q1988.27 154.603 1990.24 157.288 Q1992.23 159.95 1995.68 159.95 Q1999.08 159.95 2001.07 157.265 Q2003.07 154.58 2003.07 149.95 Q2003.07 145.344 2001.07 142.658 Q1999.08 139.95 1995.68 139.95 M1995.68 136.339 Q2001.24 136.339 2004.41 139.95 Q2007.58 143.561 2007.58 149.95 Q2007.58 156.316 2004.41 159.95 Q2001.24 163.561 1995.68 163.561 Q1990.1 163.561 1986.93 159.95 Q1983.78 156.316 1983.78 149.95 Q1983.78 143.561 1986.93 139.95 Q1990.1 136.339 1995.68 136.339 Z" fill="#000000" fill-rule="evenodd" fill-opacity="1" /><path clip-path="url(#clip680)" d="M2036.19 147.242 L2036.19 162.89 L2031.93 162.89 L2031.93 147.381 Q2031.93 143.7 2030.5 141.871 Q2029.06 140.043 2026.19 140.043 Q2022.74 140.043 2020.75 142.242 Q2018.76 144.441 2018.76 148.237 L2018.76 162.89 L2014.48 162.89 L2014.48 136.964 L2018.76 136.964 L2018.76 140.992 Q2020.29 138.654 2022.35 137.496 Q2024.43 136.339 2027.14 136.339 Q2031.61 136.339 2033.9 139.117 Q2036.19 141.871 2036.19 147.242 Z" fill="#000000" fill-rule="evenodd" fill-opacity="1" /><circle clip-path="url(#clip680)" cx="1698.53" cy="197.45" r="23" fill="#ff00ff" fill-rule="evenodd" fill-opacity="1" stroke="none"/>
<path clip-path="url(#clip680)" d="M1790.82 180.17 L1795.5 180.17 L1795.5 210.795 L1812.33 210.795 L1812.33 214.73 L1790.82 214.73 L1790.82 180.17 Z" fill="#000000" fill-rule="evenodd" fill-opacity="1" /><path clip-path="url(#clip680)" d="M1817.23 180.17 L1823.53 180.17 L1838.85 209.082 L1838.85 180.17 L1843.39 180.17 L1843.39 214.73 L1837.09 214.73 L1821.77 185.818 L1821.77 214.73 L1817.23 214.73 L1817.23 180.17 Z" fill="#000000" fill-rule="evenodd" fill-opacity="1" /><path clip-path="url(#clip680)" d="M1864.25 184.776 L1857.9 201.975 L1870.61 201.975 L1864.25 184.776 M1861.61 180.17 L1866.91 180.17 L1880.08 214.73 L1875.22 214.73 L1872.07 205.864 L1856.49 205.864 L1853.34 214.73 L1848.41 214.73 L1861.61 180.17 Z" fill="#000000" fill-rule="evenodd" fill-opacity="1" /><path clip-path="url(#clip680)" d="M1911.75 184.776 L1905.4 201.975 L1918.11 201.975 L1911.75 184.776 M1909.11 180.17 L1914.41 180.17 L1927.58 214.73 L1922.72 214.73 L1919.57 205.864 L1903.99 205.864 L1900.84 214.73 L1895.91 214.73 L1909.11 180.17 Z" fill="#000000" fill-rule="evenodd" fill-opacity="1" /><path clip-path="url(#clip680)" d="M1936.56 210.841 L1936.56 224.591 L1932.28 224.591 L1932.28 188.804 L1936.56 188.804 L1936.56 192.739 Q1937.9 190.424 1939.94 189.313 Q1942 188.179 1944.85 188.179 Q1949.57 188.179 1952.51 191.929 Q1955.47 195.679 1955.47 201.79 Q1955.47 207.901 1952.51 211.651 Q1949.57 215.401 1944.85 215.401 Q1942 215.401 1939.94 214.29 Q1937.9 213.156 1936.56 210.841 M1951.05 201.79 Q1951.05 197.091 1949.11 194.429 Q1947.19 191.744 1943.81 191.744 Q1940.43 191.744 1938.48 194.429 Q1936.56 197.091 1936.56 201.79 Q1936.56 206.489 1938.48 209.174 Q1940.43 211.836 1943.81 211.836 Q1947.19 211.836 1949.11 209.174 Q1951.05 206.489 1951.05 201.79 Z" fill="#000000" fill-rule="evenodd" fill-opacity="1" /><path clip-path="url(#clip680)" d="M1966.65 210.841 L1966.65 224.591 L1962.37 224.591 L1962.37 188.804 L1966.65 188.804 L1966.65 192.739 Q1968 190.424 1970.03 189.313 Q1972.09 188.179 1974.94 188.179 Q1979.66 188.179 1982.6 191.929 Q1985.57 195.679 1985.57 201.79 Q1985.57 207.901 1982.6 211.651 Q1979.66 215.401 1974.94 215.401 Q1972.09 215.401 1970.03 214.29 Q1968 213.156 1966.65 210.841 M1981.14 201.79 Q1981.14 197.091 1979.2 194.429 Q1977.28 191.744 1973.9 191.744 Q1970.52 191.744 1968.57 194.429 Q1966.65 197.091 1966.65 201.79 Q1966.65 206.489 1968.57 209.174 Q1970.52 211.836 1973.9 211.836 Q1977.28 211.836 1979.2 209.174 Q1981.14 206.489 1981.14 201.79 Z" fill="#000000" fill-rule="evenodd" fill-opacity="1" /><path clip-path="url(#clip680)" d="M2007.65 192.785 Q2006.93 192.369 2006.07 192.184 Q2005.24 191.975 2004.22 191.975 Q2000.61 191.975 1998.67 194.336 Q1996.75 196.674 1996.75 201.072 L1996.75 214.73 L1992.46 214.73 L1992.46 188.804 L1996.75 188.804 L1996.75 192.832 Q1998.09 190.471 2000.24 189.336 Q2002.39 188.179 2005.47 188.179 Q2005.91 188.179 2006.45 188.248 Q2006.98 188.295 2007.63 188.41 L2007.65 192.785 Z" fill="#000000" fill-rule="evenodd" fill-opacity="1" /><path clip-path="url(#clip680)" d="M2021.12 191.79 Q2017.7 191.79 2015.7 194.475 Q2013.71 197.137 2013.71 201.79 Q2013.71 206.443 2015.68 209.128 Q2017.67 211.79 2021.12 211.79 Q2024.52 211.79 2026.51 209.105 Q2028.51 206.42 2028.51 201.79 Q2028.51 197.184 2026.51 194.498 Q2024.52 191.79 2021.12 191.79 M2021.12 188.179 Q2026.68 188.179 2029.85 191.79 Q2033.02 195.401 2033.02 201.79 Q2033.02 208.156 2029.85 211.79 Q2026.68 215.401 2021.12 215.401 Q2015.54 215.401 2012.37 211.79 Q2009.22 208.156 2009.22 201.79 Q2009.22 195.401 2012.37 191.79 Q2015.54 188.179 2021.12 188.179 Z" fill="#000000" fill-rule="evenodd" fill-opacity="1" /><path clip-path="url(#clip680)" d="M2060.17 188.804 L2050.8 201.42 L2060.66 214.73 L2055.63 214.73 L2048.09 204.545 L2040.54 214.73 L2035.52 214.73 L2045.59 201.165 L2036.38 188.804 L2041.4 188.804 L2048.27 198.04 L2055.15 188.804 L2060.17 188.804 Z" fill="#000000" fill-rule="evenodd" fill-opacity="1" /><path clip-path="url(#clip680)" d="M2066.68 188.804 L2070.94 188.804 L2070.94 214.73 L2066.68 214.73 L2066.68 188.804 M2066.68 178.711 L2070.94 178.711 L2070.94 184.105 L2066.68 184.105 L2066.68 178.711 Z" fill="#000000" fill-rule="evenodd" fill-opacity="1" /><path clip-path="url(#clip680)" d="M2100.03 193.781 Q2101.63 190.91 2103.85 189.545 Q2106.07 188.179 2109.08 188.179 Q2113.13 188.179 2115.33 191.026 Q2117.53 193.85 2117.53 199.082 L2117.53 214.73 L2113.25 214.73 L2113.25 199.221 Q2113.25 195.494 2111.93 193.688 Q2110.61 191.883 2107.9 191.883 Q2104.59 191.883 2102.67 194.082 Q2100.75 196.281 2100.75 200.077 L2100.75 214.73 L2096.47 214.73 L2096.47 199.221 Q2096.47 195.471 2095.15 193.688 Q2093.83 191.883 2091.07 191.883 Q2087.81 191.883 2085.89 194.105 Q2083.97 196.304 2083.97 200.077 L2083.97 214.73 L2079.69 214.73 L2079.69 188.804 L2083.97 188.804 L2083.97 192.832 Q2085.43 190.447 2087.46 189.313 Q2089.5 188.179 2092.3 188.179 Q2095.13 188.179 2097.09 189.614 Q2099.08 191.049 2100.03 193.781 Z" fill="#000000" fill-rule="evenodd" fill-opacity="1" /><path clip-path="url(#clip680)" d="M2137.81 201.697 Q2132.65 201.697 2130.66 202.878 Q2128.67 204.058 2128.67 206.906 Q2128.67 209.174 2130.15 210.517 Q2131.65 211.836 2134.22 211.836 Q2137.76 211.836 2139.89 209.336 Q2142.05 206.813 2142.05 202.646 L2142.05 201.697 L2137.81 201.697 M2146.31 199.938 L2146.31 214.73 L2142.05 214.73 L2142.05 210.795 Q2140.59 213.156 2138.41 214.29 Q2136.24 215.401 2133.09 215.401 Q2129.11 215.401 2126.75 213.179 Q2124.41 210.933 2124.41 207.183 Q2124.41 202.808 2127.32 200.586 Q2130.26 198.364 2136.07 198.364 L2142.05 198.364 L2142.05 197.947 Q2142.05 195.008 2140.1 193.41 Q2138.18 191.79 2134.69 191.79 Q2132.46 191.79 2130.36 192.322 Q2128.25 192.855 2126.31 193.92 L2126.31 189.984 Q2128.64 189.082 2130.84 188.642 Q2133.04 188.179 2135.12 188.179 Q2140.75 188.179 2143.53 191.096 Q2146.31 194.012 2146.31 199.938 Z" fill="#000000" fill-rule="evenodd" fill-opacity="1" /><path clip-path="url(#clip680)" d="M2159.29 181.443 L2159.29 188.804 L2168.06 188.804 L2168.06 192.114 L2159.29 192.114 L2159.29 206.188 Q2159.29 209.359 2160.15 210.262 Q2161.03 211.165 2163.69 211.165 L2168.06 211.165 L2168.06 214.73 L2163.69 214.73 Q2158.76 214.73 2156.88 212.901 Q2155.01 211.049 2155.01 206.188 L2155.01 192.114 L2151.88 192.114 L2151.88 188.804 L2155.01 188.804 L2155.01 181.443 L2159.29 181.443 Z" fill="#000000" fill-rule="evenodd" fill-opacity="1" /><path clip-path="url(#clip680)" d="M2173.67 188.804 L2177.93 188.804 L2177.93 214.73 L2173.67 214.73 L2173.67 188.804 M2173.67 178.711 L2177.93 178.711 L2177.93 184.105 L2173.67 184.105 L2173.67 178.711 Z" fill="#000000" fill-rule="evenodd" fill-opacity="1" /><path clip-path="url(#clip680)" d="M2196.88 191.79 Q2193.46 191.79 2191.47 194.475 Q2189.48 197.137 2189.48 201.79 Q2189.48 206.443 2191.44 209.128 Q2193.43 211.79 2196.88 211.79 Q2200.29 211.79 2202.28 209.105 Q2204.27 206.42 2204.27 201.79 Q2204.27 197.184 2202.28 194.498 Q2200.29 191.79 2196.88 191.79 M2196.88 188.179 Q2202.44 188.179 2205.61 191.79 Q2208.78 195.401 2208.78 201.79 Q2208.78 208.156 2205.61 211.79 Q2202.44 215.401 2196.88 215.401 Q2191.31 215.401 2188.13 211.79 Q2184.99 208.156 2184.99 201.79 Q2184.99 195.401 2188.13 191.79 Q2191.31 188.179 2196.88 188.179 Z" fill="#000000" fill-rule="evenodd" fill-opacity="1" /><path clip-path="url(#clip680)" d="M2237.39 199.082 L2237.39 214.73 L2233.13 214.73 L2233.13 199.221 Q2233.13 195.54 2231.7 193.711 Q2230.26 191.883 2227.39 191.883 Q2223.94 191.883 2221.95 194.082 Q2219.96 196.281 2219.96 200.077 L2219.96 214.73 L2215.68 214.73 L2215.68 188.804 L2219.96 188.804 L2219.96 192.832 Q2221.49 190.494 2223.55 189.336 Q2225.63 188.179 2228.34 188.179 Q2232.81 188.179 2235.1 190.957 Q2237.39 193.711 2237.39 199.082 Z" fill="#000000" fill-rule="evenodd" fill-opacity="1" /></svg>
