<?xml version="1.0" encoding="utf-8"?>
<svg xmlns="http://www.w3.org/2000/svg" xmlns:xlink="http://www.w3.org/1999/xlink" width="600" height="400" viewBox="0 0 2400 1600">
<defs>
  <clipPath id="clip580">
    <rect x="0" y="0" width="2400" height="1600"/>
  </clipPath>
</defs>
<path clip-path="url(#clip580)" d="
M0 1600 L2400 1600 L2400 0 L0 0  Z
  " fill="#ffffff" fill-rule="evenodd" fill-opacity="1"/>
<defs>
  <clipPath id="clip581">
    <rect x="480" y="0" width="1681" height="1600"/>
  </clipPath>
</defs>
<defs>
  <clipPath id="clip582">
    <rect x="275" y="123" width="2078" height="1321"/>
  </clipPath>
</defs>
<path clip-path="url(#clip580)" d="
M275.736 1443.01 L2352.76 1443.01 L2352.76 123.472 L275.736 123.472  Z
  " fill="#ffffff" fill-rule="evenodd" fill-opacity="1"/>
<polyline clip-path="url(#clip580)" style="stroke:#000000; stroke-linecap:butt; stroke-linejoin:round; stroke-width:4; stroke-opacity:1; fill:none" points="
  275.736,1443.01 2352.76,1443.01 
  "/>
<polyline clip-path="url(#clip580)" style="stroke:#000000; stroke-linecap:butt; stroke-linejoin:round; stroke-width:4; stroke-opacity:1; fill:none" points="
  510.368,1443.01 510.368,1424.11 
  "/>
<polyline clip-path="url(#clip580)" style="stroke:#000000; stroke-linecap:butt; stroke-linejoin:round; stroke-width:4; stroke-opacity:1; fill:none" points="
  887.186,1443.01 887.186,1424.11 
  "/>
<polyline clip-path="url(#clip580)" style="stroke:#000000; stroke-linecap:butt; stroke-linejoin:round; stroke-width:4; stroke-opacity:1; fill:none" points="
  1264,1443.01 1264,1424.11 
  "/>
<polyline clip-path="url(#clip580)" style="stroke:#000000; stroke-linecap:butt; stroke-linejoin:round; stroke-width:4; stroke-opacity:1; fill:none" points="
  1640.82,1443.01 1640.82,1424.11 
  "/>
<polyline clip-path="url(#clip580)" style="stroke:#000000; stroke-linecap:butt; stroke-linejoin:round; stroke-width:4; stroke-opacity:1; fill:none" points="
  2017.64,1443.01 2017.64,1424.11 
  "/>
<path clip-path="url(#clip580)" d="M499.211 1485.05 Q502.567 1485.77 504.442 1488.04 Q506.34 1490.3 506.34 1493.64 Q506.34 1498.75 502.822 1501.55 Q499.303 1504.36 492.822 1504.36 Q490.646 1504.36 488.331 1503.92 Q486.039 1503.5 483.586 1502.64 L483.586 1498.13 Q485.53 1499.26 487.845 1499.84 Q490.16 1500.42 492.683 1500.42 Q497.081 1500.42 499.373 1498.68 Q501.687 1496.95 501.687 1493.64 Q501.687 1490.58 499.535 1488.87 Q497.405 1487.13 493.586 1487.13 L489.558 1487.13 L489.558 1483.29 L493.771 1483.29 Q497.22 1483.29 499.049 1481.93 Q500.877 1480.54 500.877 1477.94 Q500.877 1475.28 498.979 1473.87 Q497.104 1472.43 493.586 1472.43 Q491.664 1472.43 489.465 1472.85 Q487.266 1473.27 484.627 1474.15 L484.627 1469.98 Q487.289 1469.24 489.604 1468.87 Q491.942 1468.5 494.002 1468.5 Q499.326 1468.5 502.428 1470.93 Q505.53 1473.34 505.53 1477.46 Q505.53 1480.33 503.886 1482.32 Q502.243 1484.29 499.211 1485.05 Z" fill="#000000" fill-rule="evenodd" fill-opacity="1" /><path clip-path="url(#clip580)" d="M525.206 1472.2 Q521.595 1472.2 519.766 1475.77 Q517.96 1479.31 517.96 1486.44 Q517.96 1493.55 519.766 1497.11 Q521.595 1500.65 525.206 1500.65 Q528.84 1500.65 530.646 1497.11 Q532.474 1493.55 532.474 1486.44 Q532.474 1479.31 530.646 1475.77 Q528.84 1472.2 525.206 1472.2 M525.206 1468.5 Q531.016 1468.5 534.071 1473.11 Q537.15 1477.69 537.15 1486.44 Q537.15 1495.17 534.071 1499.77 Q531.016 1504.36 525.206 1504.36 Q519.396 1504.36 516.317 1499.77 Q513.261 1495.17 513.261 1486.44 Q513.261 1477.69 516.317 1473.11 Q519.396 1468.5 525.206 1468.5 Z" fill="#000000" fill-rule="evenodd" fill-opacity="1" /><path clip-path="url(#clip580)" d="M872.591 1484.54 Q869.443 1484.54 867.591 1486.69 Q865.762 1488.85 865.762 1492.6 Q865.762 1496.32 867.591 1498.5 Q869.443 1500.65 872.591 1500.65 Q875.739 1500.65 877.568 1498.5 Q879.42 1496.32 879.42 1492.6 Q879.42 1488.85 877.568 1486.69 Q875.739 1484.54 872.591 1484.54 M881.873 1469.89 L881.873 1474.15 Q880.114 1473.31 878.308 1472.87 Q876.526 1472.43 874.767 1472.43 Q870.137 1472.43 867.684 1475.56 Q865.253 1478.68 864.906 1485 Q866.271 1482.99 868.332 1481.93 Q870.392 1480.84 872.869 1480.84 Q878.077 1480.84 881.086 1484.01 Q884.119 1487.16 884.119 1492.6 Q884.119 1497.92 880.97 1501.14 Q877.822 1504.36 872.591 1504.36 Q866.596 1504.36 863.424 1499.77 Q860.253 1495.17 860.253 1486.44 Q860.253 1478.24 864.142 1473.38 Q868.031 1468.5 874.582 1468.5 Q876.341 1468.5 878.123 1468.85 Q879.929 1469.19 881.873 1469.89 Z" fill="#000000" fill-rule="evenodd" fill-opacity="1" /><path clip-path="url(#clip580)" d="M902.174 1472.2 Q898.563 1472.2 896.734 1475.77 Q894.929 1479.31 894.929 1486.44 Q894.929 1493.55 896.734 1497.11 Q898.563 1500.65 902.174 1500.65 Q905.808 1500.65 907.614 1497.11 Q909.443 1493.55 909.443 1486.44 Q909.443 1479.31 907.614 1475.77 Q905.808 1472.2 902.174 1472.2 M902.174 1468.5 Q907.984 1468.5 911.04 1473.11 Q914.118 1477.69 914.118 1486.44 Q914.118 1495.17 911.04 1499.77 Q907.984 1504.36 902.174 1504.36 Q896.364 1504.36 893.285 1499.77 Q890.23 1495.17 890.23 1486.44 Q890.23 1477.69 893.285 1473.11 Q896.364 1468.5 902.174 1468.5 Z" fill="#000000" fill-rule="evenodd" fill-opacity="1" /><path clip-path="url(#clip580)" d="M1239.13 1502.97 L1239.13 1498.71 Q1240.89 1499.54 1242.7 1499.98 Q1244.5 1500.42 1246.24 1500.42 Q1250.87 1500.42 1253.3 1497.32 Q1255.75 1494.19 1256.1 1487.85 Q1254.76 1489.84 1252.7 1490.91 Q1250.64 1491.97 1248.14 1491.97 Q1242.95 1491.97 1239.92 1488.85 Q1236.91 1485.7 1236.91 1480.26 Q1236.91 1474.93 1240.06 1471.72 Q1243.21 1468.5 1248.44 1468.5 Q1254.43 1468.5 1257.58 1473.11 Q1260.75 1477.69 1260.75 1486.44 Q1260.75 1494.61 1256.86 1499.49 Q1253 1504.36 1246.45 1504.36 Q1244.69 1504.36 1242.88 1504.01 Q1241.08 1503.66 1239.13 1502.97 M1248.44 1488.31 Q1251.58 1488.31 1253.41 1486.16 Q1255.27 1484.01 1255.27 1480.26 Q1255.27 1476.53 1253.41 1474.38 Q1251.58 1472.2 1248.44 1472.2 Q1245.29 1472.2 1243.44 1474.38 Q1241.61 1476.53 1241.61 1480.26 Q1241.61 1484.01 1243.44 1486.16 Q1245.29 1488.31 1248.44 1488.31 Z" fill="#000000" fill-rule="evenodd" fill-opacity="1" /><path clip-path="url(#clip580)" d="M1279.15 1472.2 Q1275.54 1472.2 1273.71 1475.77 Q1271.91 1479.31 1271.91 1486.44 Q1271.91 1493.55 1273.71 1497.11 Q1275.54 1500.65 1279.15 1500.65 Q1282.79 1500.65 1284.59 1497.11 Q1286.42 1493.55 1286.42 1486.44 Q1286.42 1479.31 1284.59 1475.77 Q1282.79 1472.2 1279.15 1472.2 M1279.15 1468.5 Q1284.96 1468.5 1288.02 1473.11 Q1291.1 1477.69 1291.1 1486.44 Q1291.1 1495.17 1288.02 1499.77 Q1284.96 1504.36 1279.15 1504.36 Q1273.34 1504.36 1270.27 1499.77 Q1267.21 1495.17 1267.21 1486.44 Q1267.21 1477.69 1270.27 1473.11 Q1273.34 1468.5 1279.15 1468.5 Z" fill="#000000" fill-rule="evenodd" fill-opacity="1" /><path clip-path="url(#clip580)" d="M1600.43 1499.75 L1608.07 1499.75 L1608.07 1473.38 L1599.76 1475.05 L1599.76 1470.79 L1608.02 1469.12 L1612.7 1469.12 L1612.7 1499.75 L1620.34 1499.75 L1620.34 1503.68 L1600.43 1503.68 L1600.43 1499.75 Z" fill="#000000" fill-rule="evenodd" fill-opacity="1" /><path clip-path="url(#clip580)" d="M1633.81 1499.75 L1650.13 1499.75 L1650.13 1503.68 L1628.18 1503.68 L1628.18 1499.75 Q1630.84 1496.99 1635.43 1492.36 Q1640.03 1487.71 1641.21 1486.37 Q1643.46 1483.85 1644.34 1482.11 Q1645.24 1480.35 1645.24 1478.66 Q1645.24 1475.91 1643.3 1474.17 Q1641.38 1472.43 1638.28 1472.43 Q1636.08 1472.43 1633.62 1473.2 Q1631.19 1473.96 1628.41 1475.51 L1628.41 1470.79 Q1631.24 1469.66 1633.69 1469.08 Q1636.15 1468.5 1638.18 1468.5 Q1643.55 1468.5 1646.75 1471.18 Q1649.94 1473.87 1649.94 1478.36 Q1649.94 1480.49 1649.13 1482.41 Q1648.34 1484.31 1646.24 1486.9 Q1645.66 1487.57 1642.56 1490.79 Q1639.46 1493.99 1633.81 1499.75 Z" fill="#000000" fill-rule="evenodd" fill-opacity="1" /><path clip-path="url(#clip580)" d="M1669.94 1472.2 Q1666.33 1472.2 1664.5 1475.77 Q1662.7 1479.31 1662.7 1486.44 Q1662.7 1493.55 1664.5 1497.11 Q1666.33 1500.65 1669.94 1500.65 Q1673.58 1500.65 1675.38 1497.11 Q1677.21 1493.55 1677.21 1486.44 Q1677.21 1479.31 1675.38 1475.77 Q1673.58 1472.2 1669.94 1472.2 M1669.94 1468.5 Q1675.75 1468.5 1678.81 1473.11 Q1681.89 1477.69 1681.89 1486.44 Q1681.89 1495.17 1678.81 1499.77 Q1675.75 1504.36 1669.94 1504.36 Q1664.13 1504.36 1661.05 1499.77 Q1658 1495.17 1658 1486.44 Q1658 1477.69 1661.05 1473.11 Q1664.13 1468.5 1669.94 1468.5 Z" fill="#000000" fill-rule="evenodd" fill-opacity="1" /><path clip-path="url(#clip580)" d="M1977.25 1499.75 L1984.88 1499.75 L1984.88 1473.38 L1976.57 1475.05 L1976.57 1470.79 L1984.84 1469.12 L1989.51 1469.12 L1989.51 1499.75 L1997.15 1499.75 L1997.15 1503.68 L1977.25 1503.68 L1977.25 1499.75 Z" fill="#000000" fill-rule="evenodd" fill-opacity="1" /><path clip-path="url(#clip580)" d="M2006.64 1469.12 L2025 1469.12 L2025 1473.06 L2010.93 1473.06 L2010.93 1481.53 Q2011.94 1481.18 2012.96 1481.02 Q2013.98 1480.84 2015 1480.84 Q2020.79 1480.84 2024.17 1484.01 Q2027.55 1487.18 2027.55 1492.6 Q2027.55 1498.18 2024.07 1501.28 Q2020.6 1504.36 2014.28 1504.36 Q2012.11 1504.36 2009.84 1503.99 Q2007.59 1503.61 2005.19 1502.87 L2005.19 1498.18 Q2007.27 1499.31 2009.49 1499.86 Q2011.71 1500.42 2014.19 1500.42 Q2018.19 1500.42 2020.53 1498.31 Q2022.87 1496.21 2022.87 1492.6 Q2022.87 1488.99 2020.53 1486.88 Q2018.19 1484.77 2014.19 1484.77 Q2012.32 1484.77 2010.44 1485.19 Q2008.59 1485.61 2006.64 1486.49 L2006.64 1469.12 Z" fill="#000000" fill-rule="evenodd" fill-opacity="1" /><path clip-path="url(#clip580)" d="M2046.76 1472.2 Q2043.15 1472.2 2041.32 1475.77 Q2039.51 1479.31 2039.51 1486.44 Q2039.51 1493.55 2041.32 1497.11 Q2043.15 1500.65 2046.76 1500.65 Q2050.39 1500.65 2052.2 1497.11 Q2054.03 1493.55 2054.03 1486.44 Q2054.03 1479.31 2052.2 1475.77 Q2050.39 1472.2 2046.76 1472.2 M2046.76 1468.5 Q2052.57 1468.5 2055.63 1473.11 Q2058.7 1477.69 2058.7 1486.44 Q2058.7 1495.17 2055.63 1499.77 Q2052.57 1504.36 2046.76 1504.36 Q2040.95 1504.36 2037.87 1499.77 Q2034.82 1495.17 2034.82 1486.44 Q2034.82 1477.69 2037.87 1473.11 Q2040.95 1468.5 2046.76 1468.5 Z" fill="#000000" fill-rule="evenodd" fill-opacity="1" /><path clip-path="url(#clip580)" d="M1332.28 1536.96 Q1332.28 1541.66 1329.9 1546.2 Q1327.54 1550.74 1323.84 1553.55 Q1320.14 1556.31 1316.37 1556.31 Q1314.11 1556.31 1312.6 1555.09 Q1311.12 1553.84 1310.31 1552.06 Q1309.7 1554.25 1308.38 1559.5 Q1307.06 1564.75 1307.06 1565.27 Q1307.06 1565.56 1307.13 1565.69 Q1307.19 1565.82 1307.48 1565.98 Q1307.77 1566.17 1308.48 1566.23 Q1309.19 1566.33 1310.38 1566.33 Q1310.99 1566.33 1311.22 1566.33 Q1311.47 1566.36 1311.7 1566.52 Q1311.96 1566.69 1311.96 1567.04 Q1311.96 1568.36 1310.76 1568.36 Q1309.7 1568.36 1307.51 1568.26 Q1305.32 1568.17 1304.23 1568.17 Q1303.29 1568.17 1301.43 1568.26 Q1299.56 1568.36 1298.69 1568.36 Q1297.82 1568.36 1297.82 1567.59 Q1297.82 1567.14 1297.95 1566.85 Q1298.04 1566.59 1298.3 1566.46 Q1298.56 1566.36 1298.78 1566.33 Q1298.98 1566.33 1299.36 1566.33 Q1300.85 1566.33 1301.49 1566.07 Q1302.13 1565.85 1302.36 1565.36 Q1302.62 1564.91 1302.91 1563.63 L1310.31 1534.25 Q1310.76 1532.29 1310.76 1530.9 Q1310.76 1529.17 1310.22 1528.52 Q1309.67 1527.88 1308.7 1527.88 Q1307.03 1527.88 1305.93 1529.87 Q1304.84 1531.87 1303.91 1535.74 Q1303.62 1536.8 1303.42 1537.02 Q1303.26 1537.25 1302.78 1537.25 Q1301.97 1537.22 1301.97 1536.57 Q1301.97 1536.41 1302.23 1535.38 Q1302.49 1534.32 1302.97 1532.77 Q1303.49 1531.19 1304.03 1530.2 Q1304.36 1529.52 1304.65 1529.07 Q1304.94 1528.62 1305.52 1527.91 Q1306.13 1527.2 1307 1526.81 Q1307.87 1526.43 1308.93 1526.43 Q1310.99 1526.43 1312.7 1527.65 Q1314.4 1528.88 1314.86 1531.36 Q1316.69 1529.2 1318.95 1527.81 Q1321.2 1526.43 1323.49 1526.43 Q1327.29 1526.43 1329.77 1529.39 Q1332.28 1532.32 1332.28 1536.96 M1327.51 1534.06 Q1327.51 1531.13 1326.38 1529.52 Q1325.29 1527.88 1323.29 1527.88 Q1320.81 1527.88 1317.95 1530.39 Q1315.11 1532.77 1314.53 1534.99 L1311.28 1547.91 L1311.09 1548.97 Q1311.09 1549.17 1311.18 1549.74 Q1311.31 1550.29 1311.67 1551.19 Q1312.05 1552.1 1312.57 1552.9 Q1313.12 1553.67 1314.08 1554.25 Q1315.08 1554.83 1316.3 1554.83 Q1318.27 1554.83 1320.39 1553.09 Q1322.55 1551.36 1324.16 1548.07 Q1325.16 1545.94 1326.32 1541.37 Q1327.51 1536.77 1327.51 1534.06 Z" fill="#000000" fill-rule="evenodd" fill-opacity="1" /><polyline clip-path="url(#clip580)" style="stroke:#000000; stroke-linecap:butt; stroke-linejoin:round; stroke-width:4; stroke-opacity:1; fill:none" points="
  275.736,1443.01 275.736,123.472 
  "/>
<polyline clip-path="url(#clip580)" style="stroke:#000000; stroke-linecap:butt; stroke-linejoin:round; stroke-width:4; stroke-opacity:1; fill:none" points="
  275.736,1405.67 294.634,1405.67 
  "/>
<polyline clip-path="url(#clip580)" style="stroke:#000000; stroke-linecap:butt; stroke-linejoin:round; stroke-width:4; stroke-opacity:1; fill:none" points="
  275.736,1158.47 294.634,1158.47 
  "/>
<polyline clip-path="url(#clip580)" style="stroke:#000000; stroke-linecap:butt; stroke-linejoin:round; stroke-width:4; stroke-opacity:1; fill:none" points="
  275.736,911.279 294.634,911.279 
  "/>
<polyline clip-path="url(#clip580)" style="stroke:#000000; stroke-linecap:butt; stroke-linejoin:round; stroke-width:4; stroke-opacity:1; fill:none" points="
  275.736,664.086 294.634,664.086 
  "/>
<polyline clip-path="url(#clip580)" style="stroke:#000000; stroke-linecap:butt; stroke-linejoin:round; stroke-width:4; stroke-opacity:1; fill:none" points="
  275.736,416.892 294.634,416.892 
  "/>
<polyline clip-path="url(#clip580)" style="stroke:#000000; stroke-linecap:butt; stroke-linejoin:round; stroke-width:4; stroke-opacity:1; fill:none" points="
  275.736,169.698 294.634,169.698 
  "/>
<path clip-path="url(#clip580)" d="M122.237 1391.47 Q118.626 1391.47 116.797 1395.03 Q114.991 1398.57 114.991 1405.7 Q114.991 1412.81 116.797 1416.37 Q118.626 1419.91 122.237 1419.91 Q125.871 1419.91 127.676 1416.37 Q129.505 1412.81 129.505 1405.7 Q129.505 1398.57 127.676 1395.03 Q125.871 1391.47 122.237 1391.47 M122.237 1387.76 Q128.047 1387.76 131.102 1392.37 Q134.181 1396.95 134.181 1405.7 Q134.181 1414.43 131.102 1419.03 Q128.047 1423.62 122.237 1423.62 Q116.426 1423.62 113.348 1419.03 Q110.292 1414.43 110.292 1405.7 Q110.292 1396.95 113.348 1392.37 Q116.426 1387.76 122.237 1387.76 Z" fill="#000000" fill-rule="evenodd" fill-opacity="1" /><path clip-path="url(#clip580)" d="M142.399 1417.07 L147.283 1417.07 L147.283 1422.95 L142.399 1422.95 L142.399 1417.07 Z" fill="#000000" fill-rule="evenodd" fill-opacity="1" /><path clip-path="url(#clip580)" d="M167.468 1391.47 Q163.857 1391.47 162.028 1395.03 Q160.223 1398.57 160.223 1405.7 Q160.223 1412.81 162.028 1416.37 Q163.857 1419.91 167.468 1419.91 Q171.102 1419.91 172.908 1416.37 Q174.736 1412.81 174.736 1405.7 Q174.736 1398.57 172.908 1395.03 Q171.102 1391.47 167.468 1391.47 M167.468 1387.76 Q173.278 1387.76 176.334 1392.37 Q179.412 1396.95 179.412 1405.7 Q179.412 1414.43 176.334 1419.03 Q173.278 1423.62 167.468 1423.62 Q161.658 1423.62 158.579 1419.03 Q155.523 1414.43 155.523 1405.7 Q155.523 1396.95 158.579 1392.37 Q161.658 1387.76 167.468 1387.76 Z" fill="#000000" fill-rule="evenodd" fill-opacity="1" /><path clip-path="url(#clip580)" d="M197.63 1391.47 Q194.019 1391.47 192.19 1395.03 Q190.384 1398.57 190.384 1405.7 Q190.384 1412.81 192.19 1416.37 Q194.019 1419.91 197.63 1419.91 Q201.264 1419.91 203.07 1416.37 Q204.898 1412.81 204.898 1405.7 Q204.898 1398.57 203.07 1395.03 Q201.264 1391.47 197.63 1391.47 M197.63 1387.76 Q203.44 1387.76 206.495 1392.37 Q209.574 1396.95 209.574 1405.7 Q209.574 1414.43 206.495 1419.03 Q203.44 1423.62 197.63 1423.62 Q191.82 1423.62 188.741 1419.03 Q185.685 1414.43 185.685 1405.7 Q185.685 1396.95 188.741 1392.37 Q191.82 1387.76 197.63 1387.76 Z" fill="#000000" fill-rule="evenodd" fill-opacity="1" /><path clip-path="url(#clip580)" d="M227.792 1391.47 Q224.181 1391.47 222.352 1395.03 Q220.546 1398.57 220.546 1405.7 Q220.546 1412.81 222.352 1416.37 Q224.181 1419.91 227.792 1419.91 Q231.426 1419.91 233.231 1416.37 Q235.06 1412.81 235.06 1405.7 Q235.06 1398.57 233.231 1395.03 Q231.426 1391.47 227.792 1391.47 M227.792 1387.76 Q233.602 1387.76 236.657 1392.37 Q239.736 1396.95 239.736 1405.7 Q239.736 1414.43 236.657 1419.03 Q233.602 1423.62 227.792 1423.62 Q221.981 1423.62 218.903 1419.03 Q215.847 1414.43 215.847 1405.7 Q215.847 1396.95 218.903 1392.37 Q221.981 1387.76 227.792 1387.76 Z" fill="#000000" fill-rule="evenodd" fill-opacity="1" /><path clip-path="url(#clip580)" d="M123.232 1144.27 Q119.621 1144.27 117.792 1147.84 Q115.987 1151.38 115.987 1158.51 Q115.987 1165.61 117.792 1169.18 Q119.621 1172.72 123.232 1172.72 Q126.866 1172.72 128.672 1169.18 Q130.5 1165.61 130.5 1158.51 Q130.5 1151.38 128.672 1147.84 Q126.866 1144.27 123.232 1144.27 M123.232 1140.57 Q129.042 1140.57 132.098 1145.17 Q135.176 1149.76 135.176 1158.51 Q135.176 1167.23 132.098 1171.84 Q129.042 1176.42 123.232 1176.42 Q117.422 1176.42 114.343 1171.84 Q111.288 1167.23 111.288 1158.51 Q111.288 1149.76 114.343 1145.17 Q117.422 1140.57 123.232 1140.57 Z" fill="#000000" fill-rule="evenodd" fill-opacity="1" /><path clip-path="url(#clip580)" d="M143.394 1169.87 L148.278 1169.87 L148.278 1175.75 L143.394 1175.75 L143.394 1169.87 Z" fill="#000000" fill-rule="evenodd" fill-opacity="1" /><path clip-path="url(#clip580)" d="M168.463 1144.27 Q164.852 1144.27 163.023 1147.84 Q161.218 1151.38 161.218 1158.51 Q161.218 1165.61 163.023 1169.18 Q164.852 1172.72 168.463 1172.72 Q172.097 1172.72 173.903 1169.18 Q175.732 1165.61 175.732 1158.51 Q175.732 1151.38 173.903 1147.84 Q172.097 1144.27 168.463 1144.27 M168.463 1140.57 Q174.273 1140.57 177.329 1145.17 Q180.408 1149.76 180.408 1158.51 Q180.408 1167.23 177.329 1171.84 Q174.273 1176.42 168.463 1176.42 Q162.653 1176.42 159.574 1171.84 Q156.519 1167.23 156.519 1158.51 Q156.519 1149.76 159.574 1145.17 Q162.653 1140.57 168.463 1140.57 Z" fill="#000000" fill-rule="evenodd" fill-opacity="1" /><path clip-path="url(#clip580)" d="M198.625 1144.27 Q195.014 1144.27 193.185 1147.84 Q191.38 1151.38 191.38 1158.51 Q191.38 1165.61 193.185 1169.18 Q195.014 1172.72 198.625 1172.72 Q202.259 1172.72 204.065 1169.18 Q205.894 1165.61 205.894 1158.51 Q205.894 1151.38 204.065 1147.84 Q202.259 1144.27 198.625 1144.27 M198.625 1140.57 Q204.435 1140.57 207.491 1145.17 Q210.569 1149.76 210.569 1158.51 Q210.569 1167.23 207.491 1171.84 Q204.435 1176.42 198.625 1176.42 Q192.815 1176.42 189.736 1171.84 Q186.681 1167.23 186.681 1158.51 Q186.681 1149.76 189.736 1145.17 Q192.815 1140.57 198.625 1140.57 Z" fill="#000000" fill-rule="evenodd" fill-opacity="1" /><path clip-path="url(#clip580)" d="M218.833 1141.19 L237.19 1141.19 L237.19 1145.13 L223.116 1145.13 L223.116 1153.6 Q224.134 1153.25 225.153 1153.09 Q226.171 1152.91 227.19 1152.91 Q232.977 1152.91 236.356 1156.08 Q239.736 1159.25 239.736 1164.67 Q239.736 1170.24 236.264 1173.35 Q232.792 1176.42 226.472 1176.42 Q224.296 1176.42 222.028 1176.05 Q219.782 1175.68 217.375 1174.94 L217.375 1170.24 Q219.458 1171.38 221.681 1171.93 Q223.903 1172.49 226.38 1172.49 Q230.384 1172.49 232.722 1170.38 Q235.06 1168.28 235.06 1164.67 Q235.06 1161.05 232.722 1158.95 Q230.384 1156.84 226.38 1156.84 Q224.505 1156.84 222.63 1157.26 Q220.778 1157.67 218.833 1158.55 L218.833 1141.19 Z" fill="#000000" fill-rule="evenodd" fill-opacity="1" /><path clip-path="url(#clip580)" d="M122.237 897.078 Q118.626 897.078 116.797 900.643 Q114.991 904.184 114.991 911.314 Q114.991 918.421 116.797 921.985 Q118.626 925.527 122.237 925.527 Q125.871 925.527 127.676 921.985 Q129.505 918.421 129.505 911.314 Q129.505 904.184 127.676 900.643 Q125.871 897.078 122.237 897.078 M122.237 893.374 Q128.047 893.374 131.102 897.981 Q134.181 902.564 134.181 911.314 Q134.181 920.041 131.102 924.647 Q128.047 929.231 122.237 929.231 Q116.426 929.231 113.348 924.647 Q110.292 920.041 110.292 911.314 Q110.292 902.564 113.348 897.981 Q116.426 893.374 122.237 893.374 Z" fill="#000000" fill-rule="evenodd" fill-opacity="1" /><path clip-path="url(#clip580)" d="M142.399 922.68 L147.283 922.68 L147.283 928.559 L142.399 928.559 L142.399 922.68 Z" fill="#000000" fill-rule="evenodd" fill-opacity="1" /><path clip-path="url(#clip580)" d="M167.468 897.078 Q163.857 897.078 162.028 900.643 Q160.223 904.184 160.223 911.314 Q160.223 918.421 162.028 921.985 Q163.857 925.527 167.468 925.527 Q171.102 925.527 172.908 921.985 Q174.736 918.421 174.736 911.314 Q174.736 904.184 172.908 900.643 Q171.102 897.078 167.468 897.078 M167.468 893.374 Q173.278 893.374 176.334 897.981 Q179.412 902.564 179.412 911.314 Q179.412 920.041 176.334 924.647 Q173.278 929.231 167.468 929.231 Q161.658 929.231 158.579 924.647 Q155.523 920.041 155.523 911.314 Q155.523 902.564 158.579 897.981 Q161.658 893.374 167.468 893.374 Z" fill="#000000" fill-rule="evenodd" fill-opacity="1" /><path clip-path="url(#clip580)" d="M188.44 924.624 L196.079 924.624 L196.079 898.259 L187.769 899.925 L187.769 895.666 L196.033 893.999 L200.708 893.999 L200.708 924.624 L208.347 924.624 L208.347 928.559 L188.44 928.559 L188.44 924.624 Z" fill="#000000" fill-rule="evenodd" fill-opacity="1" /><path clip-path="url(#clip580)" d="M227.792 897.078 Q224.181 897.078 222.352 900.643 Q220.546 904.184 220.546 911.314 Q220.546 918.421 222.352 921.985 Q224.181 925.527 227.792 925.527 Q231.426 925.527 233.231 921.985 Q235.06 918.421 235.06 911.314 Q235.06 904.184 233.231 900.643 Q231.426 897.078 227.792 897.078 M227.792 893.374 Q233.602 893.374 236.657 897.981 Q239.736 902.564 239.736 911.314 Q239.736 920.041 236.657 924.647 Q233.602 929.231 227.792 929.231 Q221.981 929.231 218.903 924.647 Q215.847 920.041 215.847 911.314 Q215.847 902.564 218.903 897.981 Q221.981 893.374 227.792 893.374 Z" fill="#000000" fill-rule="evenodd" fill-opacity="1" /><path clip-path="url(#clip580)" d="M123.232 649.884 Q119.621 649.884 117.792 653.449 Q115.987 656.991 115.987 664.12 Q115.987 671.227 117.792 674.792 Q119.621 678.333 123.232 678.333 Q126.866 678.333 128.672 674.792 Q130.5 671.227 130.5 664.12 Q130.5 656.991 128.672 653.449 Q126.866 649.884 123.232 649.884 M123.232 646.181 Q129.042 646.181 132.098 650.787 Q135.176 655.37 135.176 664.12 Q135.176 672.847 132.098 677.454 Q129.042 682.037 123.232 682.037 Q117.422 682.037 114.343 677.454 Q111.288 672.847 111.288 664.12 Q111.288 655.37 114.343 650.787 Q117.422 646.181 123.232 646.181 Z" fill="#000000" fill-rule="evenodd" fill-opacity="1" /><path clip-path="url(#clip580)" d="M143.394 675.486 L148.278 675.486 L148.278 681.366 L143.394 681.366 L143.394 675.486 Z" fill="#000000" fill-rule="evenodd" fill-opacity="1" /><path clip-path="url(#clip580)" d="M168.463 649.884 Q164.852 649.884 163.023 653.449 Q161.218 656.991 161.218 664.12 Q161.218 671.227 163.023 674.792 Q164.852 678.333 168.463 678.333 Q172.097 678.333 173.903 674.792 Q175.732 671.227 175.732 664.12 Q175.732 656.991 173.903 653.449 Q172.097 649.884 168.463 649.884 M168.463 646.181 Q174.273 646.181 177.329 650.787 Q180.408 655.37 180.408 664.12 Q180.408 672.847 177.329 677.454 Q174.273 682.037 168.463 682.037 Q162.653 682.037 159.574 677.454 Q156.519 672.847 156.519 664.12 Q156.519 655.37 159.574 650.787 Q162.653 646.181 168.463 646.181 Z" fill="#000000" fill-rule="evenodd" fill-opacity="1" /><path clip-path="url(#clip580)" d="M189.435 677.43 L197.074 677.43 L197.074 651.065 L188.764 652.731 L188.764 648.472 L197.028 646.806 L201.704 646.806 L201.704 677.43 L209.343 677.43 L209.343 681.366 L189.435 681.366 L189.435 677.43 Z" fill="#000000" fill-rule="evenodd" fill-opacity="1" /><path clip-path="url(#clip580)" d="M218.833 646.806 L237.19 646.806 L237.19 650.741 L223.116 650.741 L223.116 659.213 Q224.134 658.866 225.153 658.704 Q226.171 658.518 227.19 658.518 Q232.977 658.518 236.356 661.69 Q239.736 664.861 239.736 670.278 Q239.736 675.856 236.264 678.958 Q232.792 682.037 226.472 682.037 Q224.296 682.037 222.028 681.667 Q219.782 681.296 217.375 680.555 L217.375 675.856 Q219.458 676.991 221.681 677.546 Q223.903 678.102 226.38 678.102 Q230.384 678.102 232.722 675.995 Q235.06 673.889 235.06 670.278 Q235.06 666.667 232.722 664.56 Q230.384 662.454 226.38 662.454 Q224.505 662.454 222.63 662.87 Q220.778 663.287 218.833 664.167 L218.833 646.806 Z" fill="#000000" fill-rule="evenodd" fill-opacity="1" /><path clip-path="url(#clip580)" d="M122.237 402.691 Q118.626 402.691 116.797 406.255 Q114.991 409.797 114.991 416.927 Q114.991 424.033 116.797 427.598 Q118.626 431.139 122.237 431.139 Q125.871 431.139 127.676 427.598 Q129.505 424.033 129.505 416.927 Q129.505 409.797 127.676 406.255 Q125.871 402.691 122.237 402.691 M122.237 398.987 Q128.047 398.987 131.102 403.593 Q134.181 408.177 134.181 416.927 Q134.181 425.653 131.102 430.26 Q128.047 434.843 122.237 434.843 Q116.426 434.843 113.348 430.26 Q110.292 425.653 110.292 416.927 Q110.292 408.177 113.348 403.593 Q116.426 398.987 122.237 398.987 Z" fill="#000000" fill-rule="evenodd" fill-opacity="1" /><path clip-path="url(#clip580)" d="M142.399 428.292 L147.283 428.292 L147.283 434.172 L142.399 434.172 L142.399 428.292 Z" fill="#000000" fill-rule="evenodd" fill-opacity="1" /><path clip-path="url(#clip580)" d="M167.468 402.691 Q163.857 402.691 162.028 406.255 Q160.223 409.797 160.223 416.927 Q160.223 424.033 162.028 427.598 Q163.857 431.139 167.468 431.139 Q171.102 431.139 172.908 427.598 Q174.736 424.033 174.736 416.927 Q174.736 409.797 172.908 406.255 Q171.102 402.691 167.468 402.691 M167.468 398.987 Q173.278 398.987 176.334 403.593 Q179.412 408.177 179.412 416.927 Q179.412 425.653 176.334 430.26 Q173.278 434.843 167.468 434.843 Q161.658 434.843 158.579 430.26 Q155.523 425.653 155.523 416.927 Q155.523 408.177 158.579 403.593 Q161.658 398.987 167.468 398.987 Z" fill="#000000" fill-rule="evenodd" fill-opacity="1" /><path clip-path="url(#clip580)" d="M191.658 430.237 L207.977 430.237 L207.977 434.172 L186.033 434.172 L186.033 430.237 Q188.695 427.482 193.278 422.852 Q197.884 418.2 199.065 416.857 Q201.31 414.334 202.19 412.598 Q203.093 410.839 203.093 409.149 Q203.093 406.394 201.148 404.658 Q199.227 402.922 196.125 402.922 Q193.926 402.922 191.472 403.686 Q189.042 404.45 186.264 406.001 L186.264 401.278 Q189.088 400.144 191.542 399.566 Q193.995 398.987 196.033 398.987 Q201.403 398.987 204.597 401.672 Q207.792 404.357 207.792 408.848 Q207.792 410.977 206.982 412.899 Q206.195 414.797 204.088 417.39 Q203.509 418.061 200.407 421.278 Q197.306 424.473 191.658 430.237 Z" fill="#000000" fill-rule="evenodd" fill-opacity="1" /><path clip-path="url(#clip580)" d="M227.792 402.691 Q224.181 402.691 222.352 406.255 Q220.546 409.797 220.546 416.927 Q220.546 424.033 222.352 427.598 Q224.181 431.139 227.792 431.139 Q231.426 431.139 233.231 427.598 Q235.06 424.033 235.06 416.927 Q235.06 409.797 233.231 406.255 Q231.426 402.691 227.792 402.691 M227.792 398.987 Q233.602 398.987 236.657 403.593 Q239.736 408.177 239.736 416.927 Q239.736 425.653 236.657 430.26 Q233.602 434.843 227.792 434.843 Q221.981 434.843 218.903 430.26 Q215.847 425.653 215.847 416.927 Q215.847 408.177 218.903 403.593 Q221.981 398.987 227.792 398.987 Z" fill="#000000" fill-rule="evenodd" fill-opacity="1" /><path clip-path="url(#clip580)" d="M123.232 155.497 Q119.621 155.497 117.792 159.062 Q115.987 162.603 115.987 169.733 Q115.987 176.839 117.792 180.404 Q119.621 183.946 123.232 183.946 Q126.866 183.946 128.672 180.404 Q130.5 176.839 130.5 169.733 Q130.5 162.603 128.672 159.062 Q126.866 155.497 123.232 155.497 M123.232 151.793 Q129.042 151.793 132.098 156.4 Q135.176 160.983 135.176 169.733 Q135.176 178.46 132.098 183.066 Q129.042 187.649 123.232 187.649 Q117.422 187.649 114.343 183.066 Q111.288 178.46 111.288 169.733 Q111.288 160.983 114.343 156.4 Q117.422 151.793 123.232 151.793 Z" fill="#000000" fill-rule="evenodd" fill-opacity="1" /><path clip-path="url(#clip580)" d="M143.394 181.098 L148.278 181.098 L148.278 186.978 L143.394 186.978 L143.394 181.098 Z" fill="#000000" fill-rule="evenodd" fill-opacity="1" /><path clip-path="url(#clip580)" d="M168.463 155.497 Q164.852 155.497 163.023 159.062 Q161.218 162.603 161.218 169.733 Q161.218 176.839 163.023 180.404 Q164.852 183.946 168.463 183.946 Q172.097 183.946 173.903 180.404 Q175.732 176.839 175.732 169.733 Q175.732 162.603 173.903 159.062 Q172.097 155.497 168.463 155.497 M168.463 151.793 Q174.273 151.793 177.329 156.4 Q180.408 160.983 180.408 169.733 Q180.408 178.46 177.329 183.066 Q174.273 187.649 168.463 187.649 Q162.653 187.649 159.574 183.066 Q156.519 178.46 156.519 169.733 Q156.519 160.983 159.574 156.4 Q162.653 151.793 168.463 151.793 Z" fill="#000000" fill-rule="evenodd" fill-opacity="1" /><path clip-path="url(#clip580)" d="M192.653 183.043 L208.972 183.043 L208.972 186.978 L187.028 186.978 L187.028 183.043 Q189.69 180.288 194.273 175.659 Q198.88 171.006 200.06 169.663 Q202.306 167.14 203.185 165.404 Q204.088 163.645 204.088 161.955 Q204.088 159.2 202.144 157.464 Q200.222 155.728 197.12 155.728 Q194.921 155.728 192.468 156.492 Q190.037 157.256 187.259 158.807 L187.259 154.085 Q190.083 152.95 192.537 152.372 Q194.991 151.793 197.028 151.793 Q202.398 151.793 205.593 154.478 Q208.787 157.163 208.787 161.654 Q208.787 163.784 207.977 165.705 Q207.19 167.603 205.083 170.196 Q204.505 170.867 201.403 174.085 Q198.301 177.279 192.653 183.043 Z" fill="#000000" fill-rule="evenodd" fill-opacity="1" /><path clip-path="url(#clip580)" d="M218.833 152.418 L237.19 152.418 L237.19 156.353 L223.116 156.353 L223.116 164.825 Q224.134 164.478 225.153 164.316 Q226.171 164.131 227.19 164.131 Q232.977 164.131 236.356 167.302 Q239.736 170.474 239.736 175.89 Q239.736 181.469 236.264 184.571 Q232.792 187.649 226.472 187.649 Q224.296 187.649 222.028 187.279 Q219.782 186.909 217.375 186.168 L217.375 181.469 Q219.458 182.603 221.681 183.159 Q223.903 183.714 226.38 183.714 Q230.384 183.714 232.722 181.608 Q235.06 179.501 235.06 175.89 Q235.06 172.279 232.722 170.173 Q230.384 168.066 226.38 168.066 Q224.505 168.066 222.63 168.483 Q220.778 168.899 218.833 169.779 L218.833 152.418 Z" fill="#000000" fill-rule="evenodd" fill-opacity="1" /><path clip-path="url(#clip580)" d="M29.3925 803.754 Q32.9996 803.754 36.3168 806.427 Q39.634 809.068 41.663 813.383 Q43.6597 817.667 43.6597 822.272 L43.6597 833.48 L60.1491 837.57 Q60.2458 837.602 60.6644 837.699 Q61.0509 837.795 61.2763 837.795 Q62.0815 837.795 62.2747 836.797 Q62.468 835.766 62.468 833.48 Q62.468 831.998 62.7256 831.773 Q62.8866 831.644 63.1765 831.644 Q63.6274 831.644 63.9494 831.773 Q64.2393 831.902 64.3359 832.159 Q64.4325 832.385 64.4647 832.546 Q64.4969 832.707 64.4969 832.964 Q64.4969 833.641 64.4325 835.09 Q64.3681 836.507 64.3681 837.248 L64.3037 841.467 L64.4969 849.84 Q64.4969 850.839 63.6918 850.839 Q63.0799 850.839 62.8222 850.581 Q62.5324 850.323 62.5002 850.034 Q62.468 849.744 62.468 849.003 Q62.468 847.393 62.3713 846.426 Q62.2747 845.46 62.1459 844.848 Q61.9849 844.204 61.534 843.882 Q61.0831 843.528 60.6966 843.367 Q60.278 843.206 59.344 842.98 L23.9175 834.156 Q22.8547 833.898 22.6937 833.898 Q22.1462 833.898 21.953 834.22 Q21.7275 834.51 21.6309 835.348 Q21.5021 836.958 21.5021 838.182 Q21.5021 838.987 21.4699 839.309 Q21.4377 839.599 21.2767 839.856 Q21.0834 840.082 20.697 840.082 Q20.085 840.082 19.8274 839.824 Q19.5375 839.534 19.5053 839.212 Q19.4409 838.89 19.4409 838.117 L19.4409 816.733 Q19.4409 810.581 22.3717 807.168 Q25.3024 803.754 29.3925 803.754 M27.8145 809.873 Q21.5021 809.873 21.5021 818.858 L21.5021 825.171 Q21.5021 827.264 21.8886 827.779 Q22.2428 828.295 24.0142 828.745 L41.9528 833.222 L41.9528 823.915 Q41.9528 817.667 38.4424 813.77 Q36.8321 811.998 33.4827 810.936 Q30.1333 809.873 27.8145 809.873 Z" fill="#000000" fill-rule="evenodd" fill-opacity="1" /><path clip-path="url(#clip580)" d="M48.0075 796.516 Q36.8643 796.516 27.8789 792.361 Q24.1108 790.59 20.9546 788.11 Q17.7984 785.63 16.4136 783.988 Q15.0287 782.345 15.0287 781.895 Q15.0287 781.25 15.6728 781.218 Q15.9949 781.218 16.8 782.088 Q27.6212 792.716 48.0075 792.684 Q68.4582 792.684 78.8607 782.345 Q79.9879 781.218 80.3422 781.218 Q80.9863 781.218 80.9863 781.895 Q80.9863 782.345 79.6659 783.924 Q78.3454 785.502 75.3181 787.949 Q72.2907 790.397 68.5871 792.168 Q59.6016 796.516 48.0075 796.516 Z" fill="#000000" fill-rule="evenodd" fill-opacity="1" /><path clip-path="url(#clip580)" d="M45.8819 745.704 Q50.584 745.704 55.125 748.088 Q59.666 750.439 62.468 754.142 Q65.2377 757.846 65.2377 761.614 Q65.2377 763.868 64.0138 765.382 Q62.7578 766.864 60.9865 767.669 Q63.1765 768.281 68.426 769.601 Q73.6756 770.922 74.1909 770.922 Q74.4807 770.922 74.6096 770.857 Q74.7384 770.793 74.8994 770.503 Q75.0927 770.213 75.1571 769.505 Q75.2537 768.796 75.2537 767.604 Q75.2537 766.992 75.2537 766.767 Q75.2859 766.509 75.4469 766.284 Q75.608 766.026 75.9622 766.026 Q77.2827 766.026 77.2827 767.218 Q77.2827 768.281 77.186 770.471 Q77.0894 772.661 77.0894 773.756 Q77.0894 774.69 77.186 776.558 Q77.2827 778.426 77.2827 779.295 Q77.2827 780.165 76.5097 780.165 Q76.0588 780.165 75.769 780.036 Q75.5113 779.939 75.3825 779.682 Q75.2859 779.424 75.2537 779.198 Q75.2537 779.005 75.2537 778.619 Q75.2537 777.137 74.996 776.493 Q74.7706 775.849 74.2875 775.624 Q73.8366 775.366 72.5484 775.076 L43.1766 767.669 Q41.2121 767.218 39.8272 767.218 Q38.0881 767.218 37.444 767.765 Q36.7999 768.313 36.7999 769.279 Q36.7999 770.954 38.7967 772.049 Q40.7934 773.144 44.6581 774.078 Q45.7209 774.368 45.9464 774.561 Q46.1718 774.722 46.1718 775.205 Q46.1396 776.01 45.4955 776.01 Q45.3344 776.01 44.3039 775.752 Q43.2411 775.495 41.6952 775.012 Q40.1171 774.496 39.1187 773.949 Q38.4424 773.627 37.9915 773.337 Q37.5406 773.047 36.8321 772.467 Q36.1236 771.856 35.7371 770.986 Q35.3506 770.116 35.3506 769.054 Q35.3506 766.992 36.5744 765.286 Q37.7983 763.579 40.2781 763.128 Q38.1203 761.292 36.7355 759.038 Q35.3506 756.783 35.3506 754.497 Q35.3506 750.696 38.3136 748.216 Q41.2443 745.704 45.8819 745.704 M42.9834 750.471 Q40.0527 750.471 38.4424 751.598 Q36.7999 752.693 36.7999 754.69 Q36.7999 757.17 39.3119 760.036 Q41.6952 762.87 43.9174 763.45 L56.8319 766.703 L57.8947 766.896 Q58.088 766.896 58.6677 766.799 Q59.2152 766.67 60.1169 766.316 Q61.0187 765.93 61.8238 765.414 Q62.5968 764.867 63.1765 763.901 Q63.7562 762.902 63.7562 761.678 Q63.7562 759.714 62.0171 757.588 Q60.278 755.431 56.993 753.82 Q54.8674 752.822 50.2941 751.662 Q45.6887 750.471 42.9834 750.471 Z" fill="#000000" fill-rule="evenodd" fill-opacity="1" /><path clip-path="url(#clip580)" d="M80.3422 740.973 Q80.0202 740.973 79.215 740.136 Q68.3938 729.508 48.0075 729.508 Q27.5568 729.508 17.2187 739.717 Q16.0271 740.973 15.6728 740.973 Q15.0287 740.973 15.0287 740.329 Q15.0287 739.878 16.3492 738.3 Q17.6696 736.69 20.697 734.274 Q23.7243 731.827 27.428 730.023 Q36.4134 725.675 48.0075 725.675 Q59.1508 725.675 68.1362 729.83 Q71.9043 731.601 75.0605 734.081 Q78.2166 736.561 79.6015 738.203 Q80.9863 739.846 80.9863 740.329 Q80.9863 740.973 80.3422 740.973 Z" fill="#000000" fill-rule="evenodd" fill-opacity="1" /><path clip-path="url(#clip580)" d="M335.365 18.8205 L335.365 41.5461 L345.654 41.5461 Q351.366 41.5461 354.485 38.5889 Q357.605 35.6318 357.605 30.163 Q357.605 24.7348 354.485 21.7777 Q351.366 18.8205 345.654 18.8205 L335.365 18.8205 M327.182 12.096 L345.654 12.096 Q355.822 12.096 361.007 16.714 Q366.233 21.2916 366.233 30.163 Q366.233 39.1155 361.007 43.6931 Q355.822 48.2706 345.654 48.2706 L335.365 48.2706 L335.365 72.576 L327.182 72.576 L327.182 12.096 Z" fill="#000000" fill-rule="evenodd" fill-opacity="1" /><path clip-path="url(#clip580)" d="M401.719 34.1734 Q400.463 33.4443 398.964 33.1202 Q397.506 32.7556 395.724 32.7556 Q389.404 32.7556 386.002 36.8875 Q382.639 40.9789 382.639 48.6757 L382.639 72.576 L375.145 72.576 L375.145 27.2059 L382.639 27.2059 L382.639 34.2544 Q384.989 30.1225 388.756 28.1376 Q392.523 26.1121 397.911 26.1121 Q398.681 26.1121 399.613 26.2337 Q400.544 26.3147 401.679 26.5172 L401.719 34.1734 Z" fill="#000000" fill-rule="evenodd" fill-opacity="1" /><path clip-path="url(#clip580)" d="M425.295 32.4315 Q419.3 32.4315 415.816 37.1306 Q412.332 41.7891 412.332 49.9314 Q412.332 58.0738 415.776 62.7728 Q419.259 67.4314 425.295 67.4314 Q431.25 67.4314 434.734 62.7323 Q438.218 58.0333 438.218 49.9314 Q438.218 41.8701 434.734 37.1711 Q431.25 32.4315 425.295 32.4315 M425.295 26.1121 Q435.017 26.1121 440.567 32.4315 Q446.117 38.7509 446.117 49.9314 Q446.117 61.0714 440.567 67.4314 Q435.017 73.7508 425.295 73.7508 Q415.533 73.7508 409.983 67.4314 Q404.474 61.0714 404.474 49.9314 Q404.474 38.7509 409.983 32.4315 Q415.533 26.1121 425.295 26.1121 Z" fill="#000000" fill-rule="evenodd" fill-opacity="1" /><path clip-path="url(#clip580)" d="M465.845 14.324 L465.845 27.2059 L481.198 27.2059 L481.198 32.9987 L465.845 32.9987 L465.845 57.6282 Q465.845 63.1779 467.344 64.7578 Q468.883 66.3376 473.542 66.3376 L481.198 66.3376 L481.198 72.576 L473.542 72.576 Q464.913 72.576 461.632 69.3758 Q458.351 66.1351 458.351 57.6282 L458.351 32.9987 L452.882 32.9987 L452.882 27.2059 L458.351 27.2059 L458.351 14.324 L465.845 14.324 Z" fill="#000000" fill-rule="evenodd" fill-opacity="1" /><path clip-path="url(#clip580)" d="M529.809 48.0275 L529.809 51.6733 L495.538 51.6733 Q496.024 59.3701 500.156 63.421 Q504.328 67.4314 511.742 67.4314 Q516.036 67.4314 520.046 66.3781 Q524.097 65.3249 528.067 63.2184 L528.067 70.267 Q524.056 71.9684 519.843 72.8596 Q515.63 73.7508 511.296 73.7508 Q500.44 73.7508 494.08 67.4314 Q487.76 61.1119 487.76 50.3365 Q487.76 39.1965 493.756 32.6746 Q499.791 26.1121 510 26.1121 Q519.155 26.1121 524.461 32.0264 Q529.809 37.9003 529.809 48.0275 M522.355 45.84 Q522.274 39.7232 518.912 36.0774 Q515.59 32.4315 510.081 32.4315 Q503.842 32.4315 500.075 35.9558 Q496.348 39.4801 495.781 45.8805 L522.355 45.84 Z" fill="#000000" fill-rule="evenodd" fill-opacity="1" /><path clip-path="url(#clip580)" d="M542.042 27.2059 L549.496 27.2059 L549.496 72.576 L542.042 72.576 L542.042 27.2059 M542.042 9.54393 L549.496 9.54393 L549.496 18.9825 L542.042 18.9825 L542.042 9.54393 Z" fill="#000000" fill-rule="evenodd" fill-opacity="1" /><path clip-path="url(#clip580)" d="M602.806 45.1919 L602.806 72.576 L595.352 72.576 L595.352 45.4349 Q595.352 38.994 592.841 35.7938 Q590.329 32.5936 585.306 32.5936 Q579.27 32.5936 575.786 36.4419 Q572.303 40.2903 572.303 46.9338 L572.303 72.576 L564.808 72.576 L564.808 27.2059 L572.303 27.2059 L572.303 34.2544 Q574.976 30.163 578.581 28.1376 Q582.227 26.1121 586.967 26.1121 Q594.785 26.1121 598.795 30.9732 Q602.806 35.7938 602.806 45.1919 Z" fill="#000000" fill-rule="evenodd" fill-opacity="1" /><path clip-path="url(#clip580)" d="M689.657 16.7545 L689.657 25.383 Q685.525 21.5346 680.826 19.6307 Q676.168 17.7268 670.902 17.7268 Q660.531 17.7268 655.022 24.0867 Q649.513 30.4061 649.513 42.3968 Q649.513 54.3469 655.022 60.7069 Q660.531 67.0263 670.902 67.0263 Q676.168 67.0263 680.826 65.1223 Q685.525 63.2184 689.657 59.3701 L689.657 67.9175 Q685.363 70.8341 680.543 72.2924 Q675.763 73.7508 670.415 73.7508 Q656.683 73.7508 648.784 65.3654 Q640.884 56.9395 640.884 42.3968 Q640.884 27.8135 648.784 19.4281 Q656.683 11.0023 670.415 11.0023 Q675.844 11.0023 680.624 12.4606 Q685.444 13.8784 689.657 16.7545 Z" fill="#000000" fill-rule="evenodd" fill-opacity="1" /><path clip-path="url(#clip580)" d="M719.553 32.4315 Q713.558 32.4315 710.074 37.1306 Q706.59 41.7891 706.59 49.9314 Q706.59 58.0738 710.033 62.7728 Q713.517 67.4314 719.553 67.4314 Q725.508 67.4314 728.992 62.7323 Q732.475 58.0333 732.475 49.9314 Q732.475 41.8701 728.992 37.1711 Q725.508 32.4315 719.553 32.4315 M719.553 26.1121 Q729.275 26.1121 734.825 32.4315 Q740.375 38.7509 740.375 49.9314 Q740.375 61.0714 734.825 67.4314 Q729.275 73.7508 719.553 73.7508 Q709.79 73.7508 704.241 67.4314 Q698.731 61.0714 698.731 49.9314 Q698.731 38.7509 704.241 32.4315 Q709.79 26.1121 719.553 26.1121 Z" fill="#000000" fill-rule="evenodd" fill-opacity="1" /><path clip-path="url(#clip580)" d="M759.94 65.7705 L759.94 89.8329 L752.446 89.8329 L752.446 27.2059 L759.94 27.2059 L759.94 34.0924 Q762.29 30.0415 765.855 28.0971 Q769.46 26.1121 774.443 26.1121 Q782.707 26.1121 787.851 32.6746 Q793.036 39.2371 793.036 49.9314 Q793.036 60.6258 787.851 67.1883 Q782.707 73.7508 774.443 73.7508 Q769.46 73.7508 765.855 71.8063 Q762.29 69.8214 759.94 65.7705 M785.299 49.9314 Q785.299 41.7081 781.896 37.0496 Q778.534 32.3505 772.62 32.3505 Q766.705 32.3505 763.303 37.0496 Q759.94 41.7081 759.94 49.9314 Q759.94 58.1548 763.303 62.8538 Q766.705 67.5124 772.62 67.5124 Q778.534 67.5124 781.896 62.8538 Q785.299 58.1548 785.299 49.9314 Z" fill="#000000" fill-rule="evenodd" fill-opacity="1" /><path clip-path="url(#clip580)" d="M824.269 76.7889 Q821.109 84.8907 818.111 87.3618 Q815.114 89.8329 810.091 89.8329 L804.136 89.8329 L804.136 83.5945 L808.511 83.5945 Q811.589 83.5945 813.291 82.1361 Q814.992 80.6778 817.058 75.2496 L818.395 71.8468 L800.044 27.2059 L807.944 27.2059 L822.122 62.6918 L836.3 27.2059 L844.199 27.2059 L824.269 76.7889 Z" fill="#000000" fill-rule="evenodd" fill-opacity="1" /><path clip-path="url(#clip580)" d="M881.184 12.096 L892.202 12.096 L919.019 62.6918 L919.019 12.096 L926.959 12.096 L926.959 72.576 L915.941 72.576 L889.124 21.9802 L889.124 72.576 L881.184 72.576 L881.184 12.096 Z" fill="#000000" fill-rule="evenodd" fill-opacity="1" /><path clip-path="url(#clip580)" d="M942.15 54.671 L942.15 27.2059 L949.604 27.2059 L949.604 54.3874 Q949.604 60.8284 952.115 64.0691 Q954.627 67.2693 959.65 67.2693 Q965.686 67.2693 969.17 63.421 Q972.694 59.5726 972.694 52.9291 L972.694 27.2059 L980.148 27.2059 L980.148 72.576 L972.694 72.576 L972.694 65.6084 Q969.98 69.7404 966.375 71.7658 Q962.81 73.7508 958.07 73.7508 Q950.252 73.7508 946.201 68.8897 Q942.15 64.0286 942.15 54.671 M960.906 26.1121 L960.906 26.1121 Z" fill="#000000" fill-rule="evenodd" fill-opacity="1" /><path clip-path="url(#clip580)" d="M1030.82 35.9153 Q1033.62 30.8922 1037.51 28.5022 Q1041.4 26.1121 1046.66 26.1121 Q1053.75 26.1121 1057.6 31.0947 Q1061.45 36.0368 1061.45 45.1919 L1061.45 72.576 L1053.96 72.576 L1053.96 45.4349 Q1053.96 38.913 1051.65 35.7533 Q1049.34 32.5936 1044.6 32.5936 Q1038.8 32.5936 1035.44 36.4419 Q1032.08 40.2903 1032.08 46.9338 L1032.08 72.576 L1024.59 72.576 L1024.59 45.4349 Q1024.59 38.8725 1022.28 35.7533 Q1019.97 32.5936 1015.15 32.5936 Q1009.44 32.5936 1006.07 36.4824 Q1002.71 40.3308 1002.71 46.9338 L1002.71 72.576 L995.217 72.576 L995.217 27.2059 L1002.71 27.2059 L1002.71 34.2544 Q1005.26 30.082 1008.83 28.0971 Q1012.39 26.1121 1017.29 26.1121 Q1022.24 26.1121 1025.68 28.6237 Q1029.16 31.1352 1030.82 35.9153 Z" fill="#000000" fill-rule="evenodd" fill-opacity="1" /><path clip-path="url(#clip580)" d="M1108.89 49.9314 Q1108.89 41.7081 1105.48 37.0496 Q1102.12 32.3505 1096.21 32.3505 Q1090.29 32.3505 1086.89 37.0496 Q1083.53 41.7081 1083.53 49.9314 Q1083.53 58.1548 1086.89 62.8538 Q1090.29 67.5124 1096.21 67.5124 Q1102.12 67.5124 1105.48 62.8538 Q1108.89 58.1548 1108.89 49.9314 M1083.53 34.0924 Q1085.88 30.0415 1089.44 28.0971 Q1093.05 26.1121 1098.03 26.1121 Q1106.29 26.1121 1111.44 32.6746 Q1116.62 39.2371 1116.62 49.9314 Q1116.62 60.6258 1111.44 67.1883 Q1106.29 73.7508 1098.03 73.7508 Q1093.05 73.7508 1089.44 71.8063 Q1085.88 69.8214 1083.53 65.7705 L1083.53 72.576 L1076.03 72.576 L1076.03 9.54393 L1083.53 9.54393 L1083.53 34.0924 Z" fill="#000000" fill-rule="evenodd" fill-opacity="1" /><path clip-path="url(#clip580)" d="M1167.79 48.0275 L1167.79 51.6733 L1133.51 51.6733 Q1134 59.3701 1138.13 63.421 Q1142.31 67.4314 1149.72 67.4314 Q1154.01 67.4314 1158.02 66.3781 Q1162.07 65.3249 1166.04 63.2184 L1166.04 70.267 Q1162.03 71.9684 1157.82 72.8596 Q1153.61 73.7508 1149.27 73.7508 Q1138.42 73.7508 1132.06 67.4314 Q1125.74 61.1119 1125.74 50.3365 Q1125.74 39.1965 1131.73 32.6746 Q1137.77 26.1121 1147.98 26.1121 Q1157.13 26.1121 1162.44 32.0264 Q1167.79 37.9003 1167.79 48.0275 M1160.33 45.84 Q1160.25 39.7232 1156.89 36.0774 Q1153.57 32.4315 1148.06 32.4315 Q1141.82 32.4315 1138.05 35.9558 Q1134.33 39.4801 1133.76 45.8805 L1160.33 45.84 Z" fill="#000000" fill-rule="evenodd" fill-opacity="1" /><path clip-path="url(#clip580)" d="M1206.31 34.1734 Q1205.05 33.4443 1203.55 33.1202 Q1202.1 32.7556 1200.31 32.7556 Q1193.99 32.7556 1190.59 36.8875 Q1187.23 40.9789 1187.23 48.6757 L1187.23 72.576 L1179.74 72.576 L1179.74 27.2059 L1187.23 27.2059 L1187.23 34.2544 Q1189.58 30.1225 1193.35 28.1376 Q1197.11 26.1121 1202.5 26.1121 Q1203.27 26.1121 1204.2 26.2337 Q1205.13 26.3147 1206.27 26.5172 L1206.31 34.1734 Z" fill="#000000" fill-rule="evenodd" fill-opacity="1" /><path clip-path="url(#clip580)" d="M1263.47 9.54393 L1263.47 15.7418 L1256.34 15.7418 Q1252.33 15.7418 1250.75 17.3622 Q1249.21 18.9825 1249.21 23.1955 L1249.21 27.2059 L1261.48 27.2059 L1261.48 32.9987 L1249.21 32.9987 L1249.21 72.576 L1241.71 72.576 L1241.71 32.9987 L1234.58 32.9987 L1234.58 27.2059 L1241.71 27.2059 L1241.71 24.0462 Q1241.71 16.471 1245.24 13.0277 Q1248.76 9.54393 1256.42 9.54393 L1263.47 9.54393 Z" fill="#000000" fill-rule="evenodd" fill-opacity="1" /><path clip-path="url(#clip580)" d="M1287.29 32.4315 Q1281.29 32.4315 1277.81 37.1306 Q1274.32 41.7891 1274.32 49.9314 Q1274.32 58.0738 1277.77 62.7728 Q1281.25 67.4314 1287.29 67.4314 Q1293.24 67.4314 1296.73 62.7323 Q1300.21 58.0333 1300.21 49.9314 Q1300.21 41.8701 1296.73 37.1711 Q1293.24 32.4315 1287.29 32.4315 M1287.29 26.1121 Q1297.01 26.1121 1302.56 32.4315 Q1308.11 38.7509 1308.11 49.9314 Q1308.11 61.0714 1302.56 67.4314 Q1297.01 73.7508 1287.29 73.7508 Q1277.52 73.7508 1271.97 67.4314 Q1266.47 61.0714 1266.47 49.9314 Q1266.47 38.7509 1271.97 32.4315 Q1277.52 26.1121 1287.29 26.1121 Z" fill="#000000" fill-rule="evenodd" fill-opacity="1" /><path clip-path="url(#clip580)" d="M1346.75 34.1734 Q1345.5 33.4443 1344 33.1202 Q1342.54 32.7556 1340.76 32.7556 Q1334.44 32.7556 1331.04 36.8875 Q1327.67 40.9789 1327.67 48.6757 L1327.67 72.576 L1320.18 72.576 L1320.18 27.2059 L1327.67 27.2059 L1327.67 34.2544 Q1330.02 30.1225 1333.79 28.1376 Q1337.56 26.1121 1342.95 26.1121 Q1343.72 26.1121 1344.65 26.2337 Q1345.58 26.3147 1346.71 26.5172 L1346.75 34.1734 Z" fill="#000000" fill-rule="evenodd" fill-opacity="1" /><path clip-path="url(#clip580)" d="M1417.52 14.0809 L1417.52 22.0612 Q1412.87 19.8332 1408.73 18.7395 Q1404.6 17.6457 1400.75 17.6457 Q1394.07 17.6457 1390.42 20.2383 Q1386.82 22.8309 1386.82 27.611 Q1386.82 31.6214 1389.21 33.6873 Q1391.64 35.7128 1398.36 36.9686 L1403.31 37.9813 Q1412.46 39.7232 1416.79 44.1387 Q1421.17 48.5136 1421.17 55.8863 Q1421.17 64.6767 1415.26 69.2137 Q1409.38 73.7508 1398 73.7508 Q1393.7 73.7508 1388.84 72.7785 Q1384.02 71.8063 1378.84 69.9024 L1378.84 61.4765 Q1383.82 64.2716 1388.6 65.6895 Q1393.38 67.1073 1398 67.1073 Q1405.01 67.1073 1408.81 64.3527 Q1412.62 61.598 1412.62 56.4939 Q1412.62 52.0379 1409.87 49.5264 Q1407.15 47.0148 1400.92 45.759 L1395.93 44.7868 Q1386.78 42.9639 1382.69 39.075 Q1378.59 35.1862 1378.59 28.2591 Q1378.59 20.2383 1384.23 15.6203 Q1389.9 11.0023 1399.82 11.0023 Q1404.07 11.0023 1408.49 11.7719 Q1412.91 12.5416 1417.52 14.0809 Z" fill="#000000" fill-rule="evenodd" fill-opacity="1" /><path clip-path="url(#clip580)" d="M1452.48 76.7889 Q1449.32 84.8907 1446.33 87.3618 Q1443.33 89.8329 1438.3 89.8329 L1432.35 89.8329 L1432.35 83.5945 L1436.73 83.5945 Q1439.8 83.5945 1441.51 82.1361 Q1443.21 80.6778 1445.27 75.2496 L1446.61 71.8468 L1428.26 27.2059 L1436.16 27.2059 L1450.34 62.6918 L1464.51 27.2059 L1472.41 27.2059 L1452.48 76.7889 Z" fill="#000000" fill-rule="evenodd" fill-opacity="1" /><path clip-path="url(#clip580)" d="M1511.63 28.5427 L1511.63 35.5912 Q1508.47 33.9709 1505.06 33.1607 Q1501.66 32.3505 1498.02 32.3505 Q1492.47 32.3505 1489.67 34.0519 Q1486.92 35.7533 1486.92 39.156 Q1486.92 41.7486 1488.9 43.2475 Q1490.89 44.7058 1496.88 46.0426 L1499.43 46.6097 Q1507.37 48.3111 1510.69 51.4303 Q1514.06 54.509 1514.06 60.0587 Q1514.06 66.3781 1509.03 70.0644 Q1504.05 73.7508 1495.3 73.7508 Q1491.66 73.7508 1487.69 73.0216 Q1483.76 72.3329 1479.38 70.9151 L1479.38 63.2184 Q1483.51 65.3654 1487.52 66.4591 Q1491.53 67.5124 1495.46 67.5124 Q1500.73 67.5124 1503.56 65.73 Q1506.4 63.9071 1506.4 60.6258 Q1506.4 57.5877 1504.33 55.9673 Q1502.31 54.3469 1495.38 52.8481 L1492.79 52.2405 Q1485.86 50.7821 1482.78 47.7845 Q1479.71 44.7463 1479.71 39.4801 Q1479.71 33.0797 1484.24 29.5959 Q1488.78 26.1121 1497.12 26.1121 Q1501.26 26.1121 1504.9 26.7198 Q1508.55 27.3274 1511.63 28.5427 Z" fill="#000000" fill-rule="evenodd" fill-opacity="1" /><path clip-path="url(#clip580)" d="M1533.3 14.324 L1533.3 27.2059 L1548.65 27.2059 L1548.65 32.9987 L1533.3 32.9987 L1533.3 57.6282 Q1533.3 63.1779 1534.8 64.7578 Q1536.34 66.3376 1541 66.3376 L1548.65 66.3376 L1548.65 72.576 L1541 72.576 Q1532.37 72.576 1529.09 69.3758 Q1525.8 66.1351 1525.8 57.6282 L1525.8 32.9987 L1520.34 32.9987 L1520.34 27.2059 L1525.8 27.2059 L1525.8 14.324 L1533.3 14.324 Z" fill="#000000" fill-rule="evenodd" fill-opacity="1" /><path clip-path="url(#clip580)" d="M1597.26 48.0275 L1597.26 51.6733 L1562.99 51.6733 Q1563.48 59.3701 1567.61 63.421 Q1571.78 67.4314 1579.2 67.4314 Q1583.49 67.4314 1587.5 66.3781 Q1591.55 65.3249 1595.52 63.2184 L1595.52 70.267 Q1591.51 71.9684 1587.3 72.8596 Q1583.08 73.7508 1578.75 73.7508 Q1567.89 73.7508 1561.53 67.4314 Q1555.21 61.1119 1555.21 50.3365 Q1555.21 39.1965 1561.21 32.6746 Q1567.25 26.1121 1577.45 26.1121 Q1586.61 26.1121 1591.92 32.0264 Q1597.26 37.9003 1597.26 48.0275 M1589.81 45.84 Q1589.73 39.7232 1586.37 36.0774 Q1583.04 32.4315 1577.53 32.4315 Q1571.3 32.4315 1567.53 35.9558 Q1563.8 39.4801 1563.23 45.8805 L1589.81 45.84 Z" fill="#000000" fill-rule="evenodd" fill-opacity="1" /><path clip-path="url(#clip580)" d="M1644.82 35.9153 Q1647.62 30.8922 1651.5 28.5022 Q1655.39 26.1121 1660.66 26.1121 Q1667.75 26.1121 1671.6 31.0947 Q1675.44 36.0368 1675.44 45.1919 L1675.44 72.576 L1667.95 72.576 L1667.95 45.4349 Q1667.95 38.913 1665.64 35.7533 Q1663.33 32.5936 1658.59 32.5936 Q1652.8 32.5936 1649.44 36.4419 Q1646.08 40.2903 1646.08 46.9338 L1646.08 72.576 L1638.58 72.576 L1638.58 45.4349 Q1638.58 38.8725 1636.27 35.7533 Q1633.96 32.5936 1629.14 32.5936 Q1623.43 32.5936 1620.07 36.4824 Q1616.71 40.3308 1616.71 46.9338 L1616.71 72.576 L1609.21 72.576 L1609.21 27.2059 L1616.71 27.2059 L1616.71 34.2544 Q1619.26 30.082 1622.82 28.0971 Q1626.39 26.1121 1631.29 26.1121 Q1636.23 26.1121 1639.68 28.6237 Q1643.16 31.1352 1644.82 35.9153 Z" fill="#000000" fill-rule="evenodd" fill-opacity="1" /><path clip-path="url(#clip580)" d="M1712.35 27.2059 L1719.8 27.2059 L1729.12 62.6108 L1738.4 27.2059 L1747.19 27.2059 L1756.5 62.6108 L1765.78 27.2059 L1773.23 27.2059 L1761.36 72.576 L1752.57 72.576 L1742.81 35.3887 L1733.01 72.576 L1724.22 72.576 L1712.35 27.2059 Z" fill="#000000" fill-rule="evenodd" fill-opacity="1" /><path clip-path="url(#clip580)" d="M1784.54 27.2059 L1791.99 27.2059 L1791.99 72.576 L1784.54 72.576 L1784.54 27.2059 M1784.54 9.54393 L1791.99 9.54393 L1791.99 18.9825 L1784.54 18.9825 L1784.54 9.54393 Z" fill="#000000" fill-rule="evenodd" fill-opacity="1" /><path clip-path="url(#clip580)" d="M1814.96 14.324 L1814.96 27.2059 L1830.31 27.2059 L1830.31 32.9987 L1814.96 32.9987 L1814.96 57.6282 Q1814.96 63.1779 1816.46 64.7578 Q1818 66.3376 1822.65 66.3376 L1830.31 66.3376 L1830.31 72.576 L1822.65 72.576 Q1814.03 72.576 1810.75 69.3758 Q1807.46 66.1351 1807.46 57.6282 L1807.46 32.9987 L1802 32.9987 L1802 27.2059 L1807.46 27.2059 L1807.46 14.324 L1814.96 14.324 Z" fill="#000000" fill-rule="evenodd" fill-opacity="1" /><path clip-path="url(#clip580)" d="M1877.83 45.1919 L1877.83 72.576 L1870.37 72.576 L1870.37 45.4349 Q1870.37 38.994 1867.86 35.7938 Q1865.35 32.5936 1860.33 32.5936 Q1854.29 32.5936 1850.81 36.4419 Q1847.32 40.2903 1847.32 46.9338 L1847.32 72.576 L1839.83 72.576 L1839.83 9.54393 L1847.32 9.54393 L1847.32 34.2544 Q1850 30.163 1853.6 28.1376 Q1857.25 26.1121 1861.99 26.1121 Q1869.81 26.1121 1873.82 30.9732 Q1877.83 35.7938 1877.83 45.1919 Z" fill="#000000" fill-rule="evenodd" fill-opacity="1" /><path clip-path="url(#clip580)" d="M1921.54 65.6895 L1934.91 65.6895 L1934.91 19.5497 L1920.36 22.4663 L1920.36 15.0127 L1934.82 12.096 L1943.01 12.096 L1943.01 65.6895 L1956.38 65.6895 L1956.38 72.576 L1921.54 72.576 L1921.54 65.6895 Z" fill="#000000" fill-rule="evenodd" fill-opacity="1" /><path clip-path="url(#clip580)" d="M1990.4 17.4837 Q1984.08 17.4837 1980.88 23.7221 Q1977.72 29.92 1977.72 42.3968 Q1977.72 54.833 1980.88 61.0714 Q1984.08 67.2693 1990.4 67.2693 Q1996.76 67.2693 1999.92 61.0714 Q2003.12 54.833 2003.12 42.3968 Q2003.12 29.92 1999.92 23.7221 Q1996.76 17.4837 1990.4 17.4837 M1990.4 11.0023 Q2000.57 11.0023 2005.92 19.0636 Q2011.31 27.0843 2011.31 42.3968 Q2011.31 57.6687 2005.92 65.73 Q2000.57 73.7508 1990.4 73.7508 Q1980.23 73.7508 1974.85 65.73 Q1969.5 57.6687 1969.5 42.3968 Q1969.5 27.0843 1974.85 19.0636 Q1980.23 11.0023 1990.4 11.0023 Z" fill="#000000" fill-rule="evenodd" fill-opacity="1" /><path clip-path="url(#clip580)" d="M2092.57 63.9476 L2092.57 47.7034 L2079.2 47.7034 L2079.2 40.9789 L2100.67 40.9789 L2100.67 66.9452 Q2095.93 70.3075 2090.22 72.0494 Q2084.51 73.7508 2078.02 73.7508 Q2063.85 73.7508 2055.82 65.4869 Q2047.84 57.1826 2047.84 42.3968 Q2047.84 27.5705 2055.82 19.3066 Q2063.85 11.0023 2078.02 11.0023 Q2083.94 11.0023 2089.24 12.4606 Q2094.59 13.9189 2099.09 16.7545 L2099.09 25.464 Q2094.55 21.6156 2089.45 19.6712 Q2084.34 17.7268 2078.71 17.7268 Q2067.61 17.7268 2062.02 23.9246 Q2056.47 30.1225 2056.47 42.3968 Q2056.47 54.6305 2062.02 60.8284 Q2067.61 67.0263 2078.71 67.0263 Q2083.05 67.0263 2086.45 66.2971 Q2089.85 65.5274 2092.57 63.9476 Z" fill="#000000" fill-rule="evenodd" fill-opacity="1" /><path clip-path="url(#clip580)" d="M2154.1 48.0275 L2154.1 51.6733 L2119.83 51.6733 Q2120.32 59.3701 2124.45 63.421 Q2128.62 67.4314 2136.03 67.4314 Q2140.33 67.4314 2144.34 66.3781 Q2148.39 65.3249 2152.36 63.2184 L2152.36 70.267 Q2148.35 71.9684 2144.13 72.8596 Q2139.92 73.7508 2135.59 73.7508 Q2124.73 73.7508 2118.37 67.4314 Q2112.05 61.1119 2112.05 50.3365 Q2112.05 39.1965 2118.05 32.6746 Q2124.08 26.1121 2134.29 26.1121 Q2143.45 26.1121 2148.75 32.0264 Q2154.1 37.9003 2154.1 48.0275 M2146.65 45.84 Q2146.56 39.7232 2143.2 36.0774 Q2139.88 32.4315 2134.37 32.4315 Q2128.13 32.4315 2124.37 35.9558 Q2120.64 39.4801 2120.07 45.8805 L2146.65 45.84 Z" fill="#000000" fill-rule="evenodd" fill-opacity="1" /><path clip-path="url(#clip580)" d="M2204.05 45.1919 L2204.05 72.576 L2196.59 72.576 L2196.59 45.4349 Q2196.59 38.994 2194.08 35.7938 Q2191.57 32.5936 2186.55 32.5936 Q2180.51 32.5936 2177.03 36.4419 Q2173.54 40.2903 2173.54 46.9338 L2173.54 72.576 L2166.05 72.576 L2166.05 27.2059 L2173.54 27.2059 L2173.54 34.2544 Q2176.22 30.163 2179.82 28.1376 Q2183.47 26.1121 2188.21 26.1121 Q2196.03 26.1121 2200.04 30.9732 Q2204.05 35.7938 2204.05 45.1919 Z" fill="#000000" fill-rule="evenodd" fill-opacity="1" /><path clip-path="url(#clip580)" d="M2257.72 48.0275 L2257.72 51.6733 L2223.45 51.6733 Q2223.94 59.3701 2228.07 63.421 Q2232.24 67.4314 2239.65 67.4314 Q2243.95 67.4314 2247.96 66.3781 Q2252.01 65.3249 2255.98 63.2184 L2255.98 70.267 Q2251.97 71.9684 2247.76 72.8596 Q2243.54 73.7508 2239.21 73.7508 Q2228.35 73.7508 2221.99 67.4314 Q2215.67 61.1119 2215.67 50.3365 Q2215.67 39.1965 2221.67 32.6746 Q2227.7 26.1121 2237.91 26.1121 Q2247.07 26.1121 2252.37 32.0264 Q2257.72 37.9003 2257.72 48.0275 M2250.27 45.84 Q2250.19 39.7232 2246.82 36.0774 Q2243.5 32.4315 2237.99 32.4315 Q2231.76 32.4315 2227.99 35.9558 Q2224.26 39.4801 2223.69 45.8805 L2250.27 45.84 Z" fill="#000000" fill-rule="evenodd" fill-opacity="1" /><path clip-path="url(#clip580)" d="M2298.88 28.5427 L2298.88 35.5912 Q2295.72 33.9709 2292.32 33.1607 Q2288.91 32.3505 2285.27 32.3505 Q2279.72 32.3505 2276.92 34.0519 Q2274.17 35.7533 2274.17 39.156 Q2274.17 41.7486 2276.15 43.2475 Q2278.14 44.7058 2284.13 46.0426 L2286.69 46.6097 Q2294.63 48.3111 2297.95 51.4303 Q2301.31 54.509 2301.31 60.0587 Q2301.31 66.3781 2296.29 70.0644 Q2291.3 73.7508 2282.55 73.7508 Q2278.91 73.7508 2274.94 73.0216 Q2271.01 72.3329 2266.63 70.9151 L2266.63 63.2184 Q2270.77 65.3654 2274.78 66.4591 Q2278.79 67.5124 2282.72 67.5124 Q2287.98 67.5124 2290.82 65.73 Q2293.65 63.9071 2293.65 60.6258 Q2293.65 57.5877 2291.59 55.9673 Q2289.56 54.3469 2282.63 52.8481 L2280.04 52.2405 Q2273.12 50.7821 2270.04 47.7845 Q2266.96 44.7463 2266.96 39.4801 Q2266.96 33.0797 2271.49 29.5959 Q2276.03 26.1121 2284.38 26.1121 Q2288.51 26.1121 2292.15 26.7198 Q2295.8 27.3274 2298.88 28.5427 Z" fill="#000000" fill-rule="evenodd" fill-opacity="1" /><polyline clip-path="url(#clip582)" style="stroke:#009fe3; stroke-linecap:butt; stroke-linejoin:round; stroke-width:20; stroke-opacity:0.996078; fill:none" points="
  334.52,1405.67 334.52,1405.66 347.08,1405.66 347.08,1405.63 359.641,1405.63 359.641,1405.59 372.201,1405.59 372.201,1405.46 384.762,1405.46 384.762,1405.52 
  397.323,1405.52 397.323,1405.39 409.883,1405.39 409.883,1405.13 422.444,1405.13 422.444,1405.04 435.004,1405.04 435.004,1404.64 447.565,1404.64 447.565,1403.98 
  460.126,1403.98 460.126,1403.19 472.686,1403.19 472.686,1402.24 485.247,1402.24 485.247,1400.75 497.807,1400.75 497.807,1398.35 510.368,1398.35 510.368,1395.94 
  522.928,1395.94 522.928,1393.08 535.489,1393.08 535.489,1389.44 548.05,1389.44 548.05,1384.08 560.61,1384.08 560.61,1377.98 573.171,1377.98 573.171,1370.86 
  585.731,1370.86 585.731,1361.15 598.292,1361.15 598.292,1350.52 610.853,1350.52 610.853,1337.29 623.413,1337.29 623.413,1323.71 635.974,1323.71 635.974,1306.81 
  648.534,1306.81 648.534,1286.67 661.095,1286.67 661.095,1265.83 673.656,1265.83 673.656,1238.47 686.216,1238.47 686.216,1215.19 698.777,1215.19 698.777,1187.36 
  711.337,1187.36 711.337,1153.11 723.898,1153.11 723.898,1116.2 736.459,1116.2 736.459,1078.35 749.019,1078.35 749.019,1037.51 761.58,1037.51 761.58,990.045 
  774.14,990.045 774.14,942.495 786.701,942.495 786.701,894.856 799.262,894.856 799.262,842.134 811.822,842.134 811.822,791.064 824.383,791.064 824.383,736.375 
  836.943,736.375 836.943,686.798 849.504,686.798 849.504,632.593 862.065,632.593 862.065,580.979 874.625,580.979 874.625,531.362 887.186,531.362 887.186,485.899 
  899.746,485.899 899.746,439.456 912.307,439.456 912.307,389.829 924.868,389.829 924.868,355.707 937.428,355.707 937.428,312.636 949.989,312.636 949.989,282.34 
  962.549,282.34 962.549,249.967 975.11,249.967 975.11,219.493 987.67,219.493 987.67,201.715 1000.23,201.715 1000.23,185.687 1012.79,185.687 1012.79,164.962 
  1025.35,164.962 1025.35,168.828 1037.91,168.828 1037.91,173.723 1050.47,173.723 1050.47,175.077 1063.03,175.077 1063.03,182.384 1075.59,182.384 1075.59,194.151 
  1088.16,194.151 1088.16,208.982 1100.72,208.982 1100.72,233.464 1113.28,233.464 1113.28,255.534 1125.84,255.534 1125.84,292.692 1138.4,292.692 1138.4,319.686 
  1150.96,319.686 1150.96,357.991 1163.52,357.991 1163.52,392.37 1176.08,392.37 1176.08,428.916 1188.64,428.916 1188.64,467.942 1201.2,467.942 1201.2,506.317 
  1213.76,506.317 1213.76,549.744 1226.32,549.744 1226.32,597.116 1238.88,597.116 1238.88,632.554 1251.44,632.554 1251.44,676.505 1264,676.505 1264,717.133 
  1276.56,717.133 1276.56,759.127 1289.12,759.127 1289.12,799.597 1301.69,799.597 1301.69,835.717 1314.25,835.717 1314.25,875.753 1326.81,875.753 1326.81,918.784 
  1339.37,918.784 1339.37,952.749 1351.93,952.749 1351.93,985.635 1364.49,985.635 1364.49,1017.33 1377.05,1017.33 1377.05,1048.94 1389.61,1048.94 1389.61,1081.55 
  1402.17,1081.55 1402.17,1107.6 1414.73,1107.6 1414.73,1133.24 1427.29,1133.24 1427.29,1156.96 1439.85,1156.96 1439.85,1179.88 1452.41,1179.88 1452.41,1198.4 
  1464.97,1198.4 1464.97,1220.59 1477.53,1220.59 1477.53,1239.53 1490.09,1239.53 1490.09,1256.73 1502.65,1256.73 1502.65,1271.49 1515.22,1271.49 1515.22,1285.41 
  1527.78,1285.41 1527.78,1297.46 1540.34,1297.46 1540.34,1309.62 1552.9,1309.62 1552.9,1318.9 1565.46,1318.9 1565.46,1329.52 1578.02,1329.52 1578.02,1338.51 
  1590.58,1338.51 1590.58,1345.58 1603.14,1345.58 1603.14,1351.27 1615.7,1351.27 1615.7,1359.32 1628.26,1359.32 1628.26,1365.09 1640.82,1365.09 1640.82,1371.41 
  1653.38,1371.41 1653.38,1374.15 1665.94,1374.15 1665.94,1378.31 1678.5,1378.31 1678.5,1381.48 1691.06,1381.48 1691.06,1385.16 1703.62,1385.16 1703.62,1388.23 
  1716.18,1388.23 1716.18,1390.4 1728.75,1390.4 1728.75,1392 1741.31,1392 1741.31,1393.87 1753.87,1393.87 1753.87,1395.53 1766.43,1395.53 1766.43,1396.91 
  1778.99,1396.91 1778.99,1398.14 1791.55,1398.14 1791.55,1399.36 1804.11,1399.36 1804.11,1400.48 1816.67,1400.48 1816.67,1400.88 1829.23,1400.88 1829.23,1402.07 
  1841.79,1402.07 1841.79,1402.25 1854.35,1402.25 1854.35,1402.9 1866.91,1402.9 1866.91,1403.18 1879.47,1403.18 1879.47,1403.7 1892.03,1403.7 1892.03,1403.79 
  1904.59,1403.79 1904.59,1404.03 1917.15,1404.03 1917.15,1404.49 1929.72,1404.49 1929.72,1404.71 1942.28,1404.71 1942.28,1404.79 1954.84,1404.79 1954.84,1404.95 
  1967.4,1404.95 1967.4,1405.1 1979.96,1405.1 1979.96,1405.2 1992.52,1405.2 1992.52,1405.22 2005.08,1405.22 2005.08,1405.34 2017.64,1405.34 2017.64,1405.47 
  2030.2,1405.47 2030.2,1405.49 2042.76,1405.49 2042.76,1405.52 2055.32,1405.52 2055.32,1405.51 2067.88,1405.51 2067.88,1405.58 2080.44,1405.58 2080.44,1405.51 
  2093,1405.51 2093,1405.58 2105.56,1405.58 2105.56,1405.62 2118.12,1405.62 2118.12,1405.65 2130.68,1405.65 2143.25,1405.65 2143.25,1405.63 
  2155.81,1405.63 2155.81,1405.65 2168.37,1405.65 2168.37,1405.64 2180.93,1405.64 2180.93,1405.65 2193.49,1405.65 2193.49,1405.63 2206.05,1405.63 2206.05,1405.67 
  2218.61,1405.67 2218.61,1405.65 2231.17,1405.65 2231.17,1405.67 2243.73,1405.67 2256.29,1405.67 2268.85,1405.67 2268.85,1405.65 
  2281.41,1405.65 2281.41,1405.66 2293.97,1405.66 2293.97,1405.67 
  "/>
<circle clip-path="url(#clip582)" cx="334.52" cy="1405.66" r="18" fill="#ff00ff" fill-rule="evenodd" fill-opacity="1" stroke="none"/>
<circle clip-path="url(#clip582)" cx="359.641" cy="1405.64" r="18" fill="#ff00ff" fill-rule="evenodd" fill-opacity="1" stroke="none"/>
<circle clip-path="url(#clip582)" cx="384.762" cy="1405.57" r="18" fill="#ff00ff" fill-rule="evenodd" fill-opacity="1" stroke="none"/>
<circle clip-path="url(#clip582)" cx="409.883" cy="1405.41" r="18" fill="#ff00ff" fill-rule="evenodd" fill-opacity="1" stroke="none"/>
<circle clip-path="url(#clip582)" cx="435.004" cy="1405.01" r="18" fill="#ff00ff" fill-rule="evenodd" fill-opacity="1" stroke="none"/>
<circle clip-path="url(#clip582)" cx="460.126" cy="1404.15" r="18" fill="#ff00ff" fill-rule="evenodd" fill-opacity="1" stroke="none"/>
<circle clip-path="url(#clip582)" cx="485.247" cy="1402.42" r="18" fill="#ff00ff" fill-rule="evenodd" fill-opacity="1" stroke="none"/>
<circle clip-path="url(#clip582)" cx="510.368" cy="1399.18" r="18" fill="#ff00ff" fill-rule="evenodd" fill-opacity="1" stroke="none"/>
<circle clip-path="url(#clip582)" cx="535.489" cy="1393.51" r="18" fill="#ff00ff" fill-rule="evenodd" fill-opacity="1" stroke="none"/>
<circle clip-path="url(#clip582)" cx="560.61" cy="1384.18" r="18" fill="#ff00ff" fill-rule="evenodd" fill-opacity="1" stroke="none"/>
<circle clip-path="url(#clip582)" cx="585.731" cy="1369.66" r="18" fill="#ff00ff" fill-rule="evenodd" fill-opacity="1" stroke="none"/>
<circle clip-path="url(#clip582)" cx="610.853" cy="1348.18" r="18" fill="#ff00ff" fill-rule="evenodd" fill-opacity="1" stroke="none"/>
<circle clip-path="url(#clip582)" cx="635.974" cy="1317.9" r="18" fill="#ff00ff" fill-rule="evenodd" fill-opacity="1" stroke="none"/>
<circle clip-path="url(#clip582)" cx="661.095" cy="1277.09" r="18" fill="#ff00ff" fill-rule="evenodd" fill-opacity="1" stroke="none"/>
<circle clip-path="url(#clip582)" cx="686.216" cy="1224.38" r="18" fill="#ff00ff" fill-rule="evenodd" fill-opacity="1" stroke="none"/>
<circle clip-path="url(#clip582)" cx="711.337" cy="1158.99" r="18" fill="#ff00ff" fill-rule="evenodd" fill-opacity="1" stroke="none"/>
<circle clip-path="url(#clip582)" cx="736.459" cy="1080.92" r="18" fill="#ff00ff" fill-rule="evenodd" fill-opacity="1" stroke="none"/>
<circle clip-path="url(#clip582)" cx="761.58" cy="991.167" r="18" fill="#ff00ff" fill-rule="evenodd" fill-opacity="1" stroke="none"/>
<circle clip-path="url(#clip582)" cx="786.701" cy="891.699" r="18" fill="#ff00ff" fill-rule="evenodd" fill-opacity="1" stroke="none"/>
<circle clip-path="url(#clip582)" cx="811.822" cy="785.435" r="18" fill="#ff00ff" fill-rule="evenodd" fill-opacity="1" stroke="none"/>
<circle clip-path="url(#clip582)" cx="836.943" cy="676.068" r="18" fill="#ff00ff" fill-rule="evenodd" fill-opacity="1" stroke="none"/>
<circle clip-path="url(#clip582)" cx="862.065" cy="567.813" r="18" fill="#ff00ff" fill-rule="evenodd" fill-opacity="1" stroke="none"/>
<circle clip-path="url(#clip582)" cx="887.186" cy="465.089" r="18" fill="#ff00ff" fill-rule="evenodd" fill-opacity="1" stroke="none"/>
<circle clip-path="url(#clip582)" cx="912.307" cy="372.186" r="18" fill="#ff00ff" fill-rule="evenodd" fill-opacity="1" stroke="none"/>
<circle clip-path="url(#clip582)" cx="937.428" cy="292.944" r="18" fill="#ff00ff" fill-rule="evenodd" fill-opacity="1" stroke="none"/>
<circle clip-path="url(#clip582)" cx="962.549" cy="230.488" r="18" fill="#ff00ff" fill-rule="evenodd" fill-opacity="1" stroke="none"/>
<circle clip-path="url(#clip582)" cx="987.67" cy="187.025" r="18" fill="#ff00ff" fill-rule="evenodd" fill-opacity="1" stroke="none"/>
<circle clip-path="url(#clip582)" cx="1012.79" cy="163.749" r="18" fill="#ff00ff" fill-rule="evenodd" fill-opacity="1" stroke="none"/>
<circle clip-path="url(#clip582)" cx="1037.91" cy="160.818" r="18" fill="#ff00ff" fill-rule="evenodd" fill-opacity="1" stroke="none"/>
<circle clip-path="url(#clip582)" cx="1063.03" cy="177.426" r="18" fill="#ff00ff" fill-rule="evenodd" fill-opacity="1" stroke="none"/>
<circle clip-path="url(#clip582)" cx="1088.16" cy="211.936" r="18" fill="#ff00ff" fill-rule="evenodd" fill-opacity="1" stroke="none"/>
<circle clip-path="url(#clip582)" cx="1113.28" cy="262.058" r="18" fill="#ff00ff" fill-rule="evenodd" fill-opacity="1" stroke="none"/>
<circle clip-path="url(#clip582)" cx="1138.4" cy="325.056" r="18" fill="#ff00ff" fill-rule="evenodd" fill-opacity="1" stroke="none"/>
<circle clip-path="url(#clip582)" cx="1163.52" cy="397.955" r="18" fill="#ff00ff" fill-rule="evenodd" fill-opacity="1" stroke="none"/>
<circle clip-path="url(#clip582)" cx="1188.64" cy="477.73" r="18" fill="#ff00ff" fill-rule="evenodd" fill-opacity="1" stroke="none"/>
<circle clip-path="url(#clip582)" cx="1213.76" cy="561.478" r="18" fill="#ff00ff" fill-rule="evenodd" fill-opacity="1" stroke="none"/>
<circle clip-path="url(#clip582)" cx="1238.88" cy="646.548" r="18" fill="#ff00ff" fill-rule="evenodd" fill-opacity="1" stroke="none"/>
<circle clip-path="url(#clip582)" cx="1264" cy="730.629" r="18" fill="#ff00ff" fill-rule="evenodd" fill-opacity="1" stroke="none"/>
<circle clip-path="url(#clip582)" cx="1289.12" cy="811.812" r="18" fill="#ff00ff" fill-rule="evenodd" fill-opacity="1" stroke="none"/>
<circle clip-path="url(#clip582)" cx="1314.25" cy="888.604" r="18" fill="#ff00ff" fill-rule="evenodd" fill-opacity="1" stroke="none"/>
<circle clip-path="url(#clip582)" cx="1339.37" cy="959.926" r="18" fill="#ff00ff" fill-rule="evenodd" fill-opacity="1" stroke="none"/>
<circle clip-path="url(#clip582)" cx="1364.49" cy="1025.08" r="18" fill="#ff00ff" fill-rule="evenodd" fill-opacity="1" stroke="none"/>
<circle clip-path="url(#clip582)" cx="1389.61" cy="1083.7" r="18" fill="#ff00ff" fill-rule="evenodd" fill-opacity="1" stroke="none"/>
<circle clip-path="url(#clip582)" cx="1414.73" cy="1135.71" r="18" fill="#ff00ff" fill-rule="evenodd" fill-opacity="1" stroke="none"/>
<circle clip-path="url(#clip582)" cx="1439.85" cy="1181.27" r="18" fill="#ff00ff" fill-rule="evenodd" fill-opacity="1" stroke="none"/>
<circle clip-path="url(#clip582)" cx="1464.97" cy="1220.68" r="18" fill="#ff00ff" fill-rule="evenodd" fill-opacity="1" stroke="none"/>
<circle clip-path="url(#clip582)" cx="1490.09" cy="1254.39" r="18" fill="#ff00ff" fill-rule="evenodd" fill-opacity="1" stroke="none"/>
<circle clip-path="url(#clip582)" cx="1515.22" cy="1282.92" r="18" fill="#ff00ff" fill-rule="evenodd" fill-opacity="1" stroke="none"/>
<circle clip-path="url(#clip582)" cx="1540.34" cy="1306.82" r="18" fill="#ff00ff" fill-rule="evenodd" fill-opacity="1" stroke="none"/>
<circle clip-path="url(#clip582)" cx="1565.46" cy="1326.64" r="18" fill="#ff00ff" fill-rule="evenodd" fill-opacity="1" stroke="none"/>
<circle clip-path="url(#clip582)" cx="1590.58" cy="1342.94" r="18" fill="#ff00ff" fill-rule="evenodd" fill-opacity="1" stroke="none"/>
<circle clip-path="url(#clip582)" cx="1615.7" cy="1356.21" r="18" fill="#ff00ff" fill-rule="evenodd" fill-opacity="1" stroke="none"/>
<circle clip-path="url(#clip582)" cx="1640.82" cy="1366.93" r="18" fill="#ff00ff" fill-rule="evenodd" fill-opacity="1" stroke="none"/>
<circle clip-path="url(#clip582)" cx="1665.94" cy="1375.53" r="18" fill="#ff00ff" fill-rule="evenodd" fill-opacity="1" stroke="none"/>
<circle clip-path="url(#clip582)" cx="1691.06" cy="1382.36" r="18" fill="#ff00ff" fill-rule="evenodd" fill-opacity="1" stroke="none"/>
<circle clip-path="url(#clip582)" cx="1716.18" cy="1387.75" r="18" fill="#ff00ff" fill-rule="evenodd" fill-opacity="1" stroke="none"/>
<circle clip-path="url(#clip582)" cx="1741.31" cy="1391.98" r="18" fill="#ff00ff" fill-rule="evenodd" fill-opacity="1" stroke="none"/>
<circle clip-path="url(#clip582)" cx="1766.43" cy="1395.27" r="18" fill="#ff00ff" fill-rule="evenodd" fill-opacity="1" stroke="none"/>
<circle clip-path="url(#clip582)" cx="1791.55" cy="1397.81" r="18" fill="#ff00ff" fill-rule="evenodd" fill-opacity="1" stroke="none"/>
<circle clip-path="url(#clip582)" cx="1816.67" cy="1399.76" r="18" fill="#ff00ff" fill-rule="evenodd" fill-opacity="1" stroke="none"/>
<circle clip-path="url(#clip582)" cx="1841.79" cy="1401.26" r="18" fill="#ff00ff" fill-rule="evenodd" fill-opacity="1" stroke="none"/>
<circle clip-path="url(#clip582)" cx="1866.91" cy="1402.39" r="18" fill="#ff00ff" fill-rule="evenodd" fill-opacity="1" stroke="none"/>
<circle clip-path="url(#clip582)" cx="1892.03" cy="1403.24" r="18" fill="#ff00ff" fill-rule="evenodd" fill-opacity="1" stroke="none"/>
<circle clip-path="url(#clip582)" cx="1917.15" cy="1403.88" r="18" fill="#ff00ff" fill-rule="evenodd" fill-opacity="1" stroke="none"/>
<circle clip-path="url(#clip582)" cx="1942.28" cy="1404.36" r="18" fill="#ff00ff" fill-rule="evenodd" fill-opacity="1" stroke="none"/>
<circle clip-path="url(#clip582)" cx="1967.4" cy="1404.71" r="18" fill="#ff00ff" fill-rule="evenodd" fill-opacity="1" stroke="none"/>
<circle clip-path="url(#clip582)" cx="1992.52" cy="1404.97" r="18" fill="#ff00ff" fill-rule="evenodd" fill-opacity="1" stroke="none"/>
<circle clip-path="url(#clip582)" cx="2017.64" cy="1405.17" r="18" fill="#ff00ff" fill-rule="evenodd" fill-opacity="1" stroke="none"/>
<circle clip-path="url(#clip582)" cx="2042.76" cy="1405.31" r="18" fill="#ff00ff" fill-rule="evenodd" fill-opacity="1" stroke="none"/>
<circle clip-path="url(#clip582)" cx="2067.88" cy="1405.41" r="18" fill="#ff00ff" fill-rule="evenodd" fill-opacity="1" stroke="none"/>
<circle clip-path="url(#clip582)" cx="2093" cy="1405.48" r="18" fill="#ff00ff" fill-rule="evenodd" fill-opacity="1" stroke="none"/>
<circle clip-path="url(#clip582)" cx="2118.12" cy="1405.54" r="18" fill="#ff00ff" fill-rule="evenodd" fill-opacity="1" stroke="none"/>
<circle clip-path="url(#clip582)" cx="2143.25" cy="1405.57" r="18" fill="#ff00ff" fill-rule="evenodd" fill-opacity="1" stroke="none"/>
<circle clip-path="url(#clip582)" cx="2168.37" cy="1405.6" r="18" fill="#ff00ff" fill-rule="evenodd" fill-opacity="1" stroke="none"/>
<circle clip-path="url(#clip582)" cx="2193.49" cy="1405.62" r="18" fill="#ff00ff" fill-rule="evenodd" fill-opacity="1" stroke="none"/>
<circle clip-path="url(#clip582)" cx="2218.61" cy="1405.63" r="18" fill="#ff00ff" fill-rule="evenodd" fill-opacity="1" stroke="none"/>
<circle clip-path="url(#clip582)" cx="2243.73" cy="1405.64" r="18" fill="#ff00ff" fill-rule="evenodd" fill-opacity="1" stroke="none"/>
<circle clip-path="url(#clip582)" cx="2268.85" cy="1405.65" r="18" fill="#ff00ff" fill-rule="evenodd" fill-opacity="1" stroke="none"/>
<path clip-path="url(#clip580)" d="
M1606.17 322.977 L2283.52 322.977 L2283.52 167.457 L1606.17 167.457  Z
  " fill="#ffffff" fill-rule="evenodd" fill-opacity="1"/>
<polyline clip-path="url(#clip580)" style="stroke:#000000; stroke-linecap:butt; stroke-linejoin:round; stroke-width:4; stroke-opacity:1; fill:none" points="
  1606.17,322.977 2283.52,322.977 2283.52,167.457 1606.17,167.457 1606.17,322.977 
  "/>
<polyline clip-path="url(#clip580)" style="stroke:#009fe3; stroke-linecap:butt; stroke-linejoin:round; stroke-width:4; stroke-opacity:0.996078; fill:none" points="
  1629.25,219.297 1767.72,219.297 
  "/>
<path clip-path="url(#clip580)" d="M1813.04 203.151 L1813.04 207.711 Q1810.38 206.438 1808.02 205.813 Q1805.66 205.188 1803.46 205.188 Q1799.64 205.188 1797.55 206.67 Q1795.49 208.151 1795.49 210.882 Q1795.49 213.174 1796.86 214.355 Q1798.25 215.512 1802.09 216.23 L1804.91 216.808 Q1810.15 217.804 1812.62 220.327 Q1815.12 222.827 1815.12 227.04 Q1815.12 232.063 1811.74 234.656 Q1808.39 237.248 1801.88 237.248 Q1799.43 237.248 1796.65 236.693 Q1793.9 236.137 1790.93 235.049 L1790.93 230.234 Q1793.78 231.831 1796.51 232.642 Q1799.24 233.452 1801.88 233.452 Q1805.89 233.452 1808.06 231.878 Q1810.24 230.304 1810.24 227.387 Q1810.24 224.841 1808.66 223.406 Q1807.11 221.97 1803.55 221.253 L1800.7 220.697 Q1795.47 219.656 1793.13 217.433 Q1790.79 215.211 1790.79 211.253 Q1790.79 206.67 1794.01 204.031 Q1797.25 201.392 1802.92 201.392 Q1805.35 201.392 1807.88 201.832 Q1810.4 202.271 1813.04 203.151 Z" fill="#000000" fill-rule="evenodd" fill-opacity="1" /><path clip-path="url(#clip580)" d="M1822.23 210.651 L1826.49 210.651 L1826.49 236.577 L1822.23 236.577 L1822.23 210.651 M1822.23 200.558 L1826.49 200.558 L1826.49 205.952 L1822.23 205.952 L1822.23 200.558 Z" fill="#000000" fill-rule="evenodd" fill-opacity="1" /><path clip-path="url(#clip580)" d="M1855.59 215.628 Q1857.18 212.757 1859.4 211.392 Q1861.63 210.026 1864.64 210.026 Q1868.69 210.026 1870.89 212.873 Q1873.09 215.697 1873.09 220.929 L1873.09 236.577 L1868.8 236.577 L1868.8 221.068 Q1868.8 217.341 1867.48 215.535 Q1866.16 213.73 1863.46 213.73 Q1860.15 213.73 1858.22 215.929 Q1856.3 218.128 1856.3 221.924 L1856.3 236.577 L1852.02 236.577 L1852.02 221.068 Q1852.02 217.318 1850.7 215.535 Q1849.38 213.73 1846.63 213.73 Q1843.36 213.73 1841.44 215.952 Q1839.52 218.151 1839.52 221.924 L1839.52 236.577 L1835.24 236.577 L1835.24 210.651 L1839.52 210.651 L1839.52 214.679 Q1840.98 212.295 1843.02 211.16 Q1845.05 210.026 1847.85 210.026 Q1850.68 210.026 1852.65 211.461 Q1854.64 212.896 1855.59 215.628 Z" fill="#000000" fill-rule="evenodd" fill-opacity="1" /><path clip-path="url(#clip580)" d="M1881.14 226.345 L1881.14 210.651 L1885.4 210.651 L1885.4 226.183 Q1885.4 229.864 1886.84 231.716 Q1888.27 233.544 1891.14 233.544 Q1894.59 233.544 1896.58 231.345 Q1898.59 229.146 1898.59 225.35 L1898.59 210.651 L1902.85 210.651 L1902.85 236.577 L1898.59 236.577 L1898.59 232.595 Q1897.04 234.956 1894.98 236.114 Q1892.95 237.248 1890.24 237.248 Q1885.77 237.248 1883.46 234.47 Q1881.14 231.693 1881.14 226.345 M1891.86 210.026 L1891.86 210.026 Z" fill="#000000" fill-rule="evenodd" fill-opacity="1" /><path clip-path="url(#clip580)" d="M1911.63 200.558 L1915.89 200.558 L1915.89 236.577 L1911.63 236.577 L1911.63 200.558 Z" fill="#000000" fill-rule="evenodd" fill-opacity="1" /><path clip-path="url(#clip580)" d="M1936.58 223.544 Q1931.42 223.544 1929.43 224.725 Q1927.44 225.906 1927.44 228.753 Q1927.44 231.021 1928.92 232.364 Q1930.42 233.683 1932.99 233.683 Q1936.53 233.683 1938.66 231.183 Q1940.82 228.66 1940.82 224.494 L1940.82 223.544 L1936.58 223.544 M1945.08 221.785 L1945.08 236.577 L1940.82 236.577 L1940.82 232.642 Q1939.36 235.003 1937.18 236.137 Q1935.01 237.248 1931.86 237.248 Q1927.88 237.248 1925.52 235.026 Q1923.18 232.781 1923.18 229.031 Q1923.18 224.656 1926.09 222.433 Q1929.03 220.211 1934.84 220.211 L1940.82 220.211 L1940.82 219.794 Q1940.82 216.855 1938.87 215.257 Q1936.95 213.637 1933.46 213.637 Q1931.23 213.637 1929.13 214.17 Q1927.02 214.702 1925.08 215.767 L1925.08 211.832 Q1927.41 210.929 1929.61 210.489 Q1931.81 210.026 1933.9 210.026 Q1939.52 210.026 1942.3 212.943 Q1945.08 215.859 1945.08 221.785 Z" fill="#000000" fill-rule="evenodd" fill-opacity="1" /><path clip-path="url(#clip580)" d="M1958.06 203.29 L1958.06 210.651 L1966.83 210.651 L1966.83 213.961 L1958.06 213.961 L1958.06 228.035 Q1958.06 231.206 1958.92 232.109 Q1959.8 233.012 1962.46 233.012 L1966.83 233.012 L1966.83 236.577 L1962.46 236.577 Q1957.53 236.577 1955.65 234.748 Q1953.78 232.896 1953.78 228.035 L1953.78 213.961 L1950.65 213.961 L1950.65 210.651 L1953.78 210.651 L1953.78 203.29 L1958.06 203.29 Z" fill="#000000" fill-rule="evenodd" fill-opacity="1" /><path clip-path="url(#clip580)" d="M1972.44 210.651 L1976.7 210.651 L1976.7 236.577 L1972.44 236.577 L1972.44 210.651 M1972.44 200.558 L1976.7 200.558 L1976.7 205.952 L1972.44 205.952 L1972.44 200.558 Z" fill="#000000" fill-rule="evenodd" fill-opacity="1" /><path clip-path="url(#clip580)" d="M1995.65 213.637 Q1992.23 213.637 1990.24 216.322 Q1988.25 218.984 1988.25 223.637 Q1988.25 228.29 1990.21 230.975 Q1992.21 233.637 1995.65 233.637 Q1999.06 233.637 2001.05 230.952 Q2003.04 228.267 2003.04 223.637 Q2003.04 219.031 2001.05 216.345 Q1999.06 213.637 1995.65 213.637 M1995.65 210.026 Q2001.21 210.026 2004.38 213.637 Q2007.55 217.248 2007.55 223.637 Q2007.55 230.003 2004.38 233.637 Q2001.21 237.248 1995.65 237.248 Q1990.08 237.248 1986.9 233.637 Q1983.76 230.003 1983.76 223.637 Q1983.76 217.248 1986.9 213.637 Q1990.08 210.026 1995.65 210.026 Z" fill="#000000" fill-rule="evenodd" fill-opacity="1" /><path clip-path="url(#clip580)" d="M2036.16 220.929 L2036.16 236.577 L2031.9 236.577 L2031.9 221.068 Q2031.9 217.387 2030.47 215.558 Q2029.03 213.73 2026.16 213.73 Q2022.71 213.73 2020.72 215.929 Q2018.73 218.128 2018.73 221.924 L2018.73 236.577 L2014.45 236.577 L2014.45 210.651 L2018.73 210.651 L2018.73 214.679 Q2020.26 212.341 2022.32 211.183 Q2024.4 210.026 2027.11 210.026 Q2031.58 210.026 2033.87 212.804 Q2036.16 215.558 2036.16 220.929 Z" fill="#000000" fill-rule="evenodd" fill-opacity="1" /><circle clip-path="url(#clip580)" cx="1698.48" cy="271.137" r="23" fill="#ff00ff" fill-rule="evenodd" fill-opacity="1" stroke="none"/>
<path clip-path="url(#clip580)" d="M1790.79 253.857 L1795.47 253.857 L1795.47 284.482 L1812.3 284.482 L1812.3 288.417 L1790.79 288.417 L1790.79 253.857 Z" fill="#000000" fill-rule="evenodd" fill-opacity="1" /><path clip-path="url(#clip580)" d="M1817.21 253.857 L1823.5 253.857 L1838.83 282.769 L1838.83 253.857 L1843.36 253.857 L1843.36 288.417 L1837.07 288.417 L1821.74 259.505 L1821.74 288.417 L1817.21 288.417 L1817.21 253.857 Z" fill="#000000" fill-rule="evenodd" fill-opacity="1" /><path clip-path="url(#clip580)" d="M1864.22 258.463 L1857.88 275.662 L1870.59 275.662 L1864.22 258.463 M1861.58 253.857 L1866.88 253.857 L1880.05 288.417 L1875.19 288.417 L1872.04 279.551 L1856.47 279.551 L1853.32 288.417 L1848.39 288.417 L1861.58 253.857 Z" fill="#000000" fill-rule="evenodd" fill-opacity="1" /><path clip-path="url(#clip580)" d="M1911.72 258.463 L1905.38 275.662 L1918.09 275.662 L1911.72 258.463 M1909.08 253.857 L1914.38 253.857 L1927.55 288.417 L1922.69 288.417 L1919.54 279.551 L1903.96 279.551 L1900.82 288.417 L1895.89 288.417 L1909.08 253.857 Z" fill="#000000" fill-rule="evenodd" fill-opacity="1" /><path clip-path="url(#clip580)" d="M1936.53 284.528 L1936.53 298.278 L1932.25 298.278 L1932.25 262.491 L1936.53 262.491 L1936.53 266.426 Q1937.88 264.111 1939.91 263 Q1941.97 261.866 1944.82 261.866 Q1949.54 261.866 1952.48 265.616 Q1955.45 269.366 1955.45 275.477 Q1955.45 281.588 1952.48 285.338 Q1949.54 289.088 1944.82 289.088 Q1941.97 289.088 1939.91 287.977 Q1937.88 286.843 1936.53 284.528 M1951.02 275.477 Q1951.02 270.778 1949.08 268.116 Q1947.16 265.431 1943.78 265.431 Q1940.4 265.431 1938.46 268.116 Q1936.53 270.778 1936.53 275.477 Q1936.53 280.176 1938.46 282.861 Q1940.4 285.523 1943.78 285.523 Q1947.16 285.523 1949.08 282.861 Q1951.02 280.176 1951.02 275.477 Z" fill="#000000" fill-rule="evenodd" fill-opacity="1" /><path clip-path="url(#clip580)" d="M1966.63 284.528 L1966.63 298.278 L1962.34 298.278 L1962.34 262.491 L1966.63 262.491 L1966.63 266.426 Q1967.97 264.111 1970.01 263 Q1972.07 261.866 1974.91 261.866 Q1979.64 261.866 1982.58 265.616 Q1985.54 269.366 1985.54 275.477 Q1985.54 281.588 1982.58 285.338 Q1979.64 289.088 1974.91 289.088 Q1972.07 289.088 1970.01 287.977 Q1967.97 286.843 1966.63 284.528 M1981.12 275.477 Q1981.12 270.778 1979.17 268.116 Q1977.25 265.431 1973.87 265.431 Q1970.49 265.431 1968.55 268.116 Q1966.63 270.778 1966.63 275.477 Q1966.63 280.176 1968.55 282.861 Q1970.49 285.523 1973.87 285.523 Q1977.25 285.523 1979.17 282.861 Q1981.12 280.176 1981.12 275.477 Z" fill="#000000" fill-rule="evenodd" fill-opacity="1" /><path clip-path="url(#clip580)" d="M2007.62 266.472 Q2006.9 266.056 2006.05 265.871 Q2005.21 265.662 2004.2 265.662 Q2000.58 265.662 1998.64 268.023 Q1996.72 270.361 1996.72 274.759 L1996.72 288.417 L1992.44 288.417 L1992.44 262.491 L1996.72 262.491 L1996.72 266.519 Q1998.06 264.158 2000.21 263.023 Q2002.37 261.866 2005.45 261.866 Q2005.89 261.866 2006.42 261.935 Q2006.95 261.982 2007.6 262.097 L2007.62 266.472 Z" fill="#000000" fill-rule="evenodd" fill-opacity="1" /><path clip-path="url(#clip580)" d="M2021.09 265.477 Q2017.67 265.477 2015.68 268.162 Q2013.69 270.824 2013.69 275.477 Q2013.69 280.13 2015.65 282.815 Q2017.64 285.477 2021.09 285.477 Q2024.5 285.477 2026.49 282.792 Q2028.48 280.107 2028.48 275.477 Q2028.48 270.871 2026.49 268.185 Q2024.5 265.477 2021.09 265.477 M2021.09 261.866 Q2026.65 261.866 2029.82 265.477 Q2032.99 269.088 2032.99 275.477 Q2032.99 281.843 2029.82 285.477 Q2026.65 289.088 2021.09 289.088 Q2015.52 289.088 2012.34 285.477 Q2009.2 281.843 2009.2 275.477 Q2009.2 269.088 2012.34 265.477 Q2015.52 261.866 2021.09 261.866 Z" fill="#000000" fill-rule="evenodd" fill-opacity="1" /><path clip-path="url(#clip580)" d="M2060.14 262.491 L2050.77 275.107 L2060.63 288.417 L2055.61 288.417 L2048.06 278.232 L2040.52 288.417 L2035.49 288.417 L2045.56 274.852 L2036.35 262.491 L2041.37 262.491 L2048.25 271.727 L2055.12 262.491 L2060.14 262.491 Z" fill="#000000" fill-rule="evenodd" fill-opacity="1" /><path clip-path="url(#clip580)" d="M2066.65 262.491 L2070.91 262.491 L2070.91 288.417 L2066.65 288.417 L2066.65 262.491 M2066.65 252.398 L2070.91 252.398 L2070.91 257.792 L2066.65 257.792 L2066.65 252.398 Z" fill="#000000" fill-rule="evenodd" fill-opacity="1" /><path clip-path="url(#clip580)" d="M2100.01 267.468 Q2101.6 264.597 2103.82 263.232 Q2106.05 261.866 2109.06 261.866 Q2113.11 261.866 2115.31 264.713 Q2117.51 267.537 2117.51 272.769 L2117.51 288.417 L2113.22 288.417 L2113.22 272.908 Q2113.22 269.181 2111.9 267.375 Q2110.58 265.57 2107.88 265.57 Q2104.57 265.57 2102.64 267.769 Q2100.72 269.968 2100.72 273.764 L2100.72 288.417 L2096.44 288.417 L2096.44 272.908 Q2096.44 269.158 2095.12 267.375 Q2093.8 265.57 2091.05 265.57 Q2087.78 265.57 2085.86 267.792 Q2083.94 269.991 2083.94 273.764 L2083.94 288.417 L2079.66 288.417 L2079.66 262.491 L2083.94 262.491 L2083.94 266.519 Q2085.4 264.135 2087.44 263 Q2089.47 261.866 2092.27 261.866 Q2095.1 261.866 2097.07 263.301 Q2099.06 264.736 2100.01 267.468 Z" fill="#000000" fill-rule="evenodd" fill-opacity="1" /><path clip-path="url(#clip580)" d="M2137.78 275.384 Q2132.62 275.384 2130.63 276.565 Q2128.64 277.746 2128.64 280.593 Q2128.64 282.861 2130.12 284.204 Q2131.63 285.523 2134.2 285.523 Q2137.74 285.523 2139.87 283.023 Q2142.02 280.5 2142.02 276.334 L2142.02 275.384 L2137.78 275.384 M2146.28 273.625 L2146.28 288.417 L2142.02 288.417 L2142.02 284.482 Q2140.56 286.843 2138.38 287.977 Q2136.21 289.088 2133.06 289.088 Q2129.08 289.088 2126.72 286.866 Q2124.38 284.621 2124.38 280.871 Q2124.38 276.496 2127.3 274.273 Q2130.24 272.051 2136.05 272.051 L2142.02 272.051 L2142.02 271.634 Q2142.02 268.695 2140.07 267.097 Q2138.15 265.477 2134.66 265.477 Q2132.44 265.477 2130.33 266.01 Q2128.22 266.542 2126.28 267.607 L2126.28 263.672 Q2128.62 262.769 2130.82 262.329 Q2133.01 261.866 2135.1 261.866 Q2140.72 261.866 2143.5 264.783 Q2146.28 267.699 2146.28 273.625 Z" fill="#000000" fill-rule="evenodd" fill-opacity="1" /><path clip-path="url(#clip580)" d="M2159.26 255.13 L2159.26 262.491 L2168.04 262.491 L2168.04 265.801 L2159.26 265.801 L2159.26 279.875 Q2159.26 283.046 2160.12 283.949 Q2161 284.852 2163.66 284.852 L2168.04 284.852 L2168.04 288.417 L2163.66 288.417 Q2158.73 288.417 2156.86 286.588 Q2154.98 284.736 2154.98 279.875 L2154.98 265.801 L2151.86 265.801 L2151.86 262.491 L2154.98 262.491 L2154.98 255.13 L2159.26 255.13 Z" fill="#000000" fill-rule="evenodd" fill-opacity="1" /><path clip-path="url(#clip580)" d="M2173.64 262.491 L2177.9 262.491 L2177.9 288.417 L2173.64 288.417 L2173.64 262.491 M2173.64 252.398 L2177.9 252.398 L2177.9 257.792 L2173.64 257.792 L2173.64 252.398 Z" fill="#000000" fill-rule="evenodd" fill-opacity="1" /><path clip-path="url(#clip580)" d="M2196.86 265.477 Q2193.43 265.477 2191.44 268.162 Q2189.45 270.824 2189.45 275.477 Q2189.45 280.13 2191.42 282.815 Q2193.41 285.477 2196.86 285.477 Q2200.26 285.477 2202.25 282.792 Q2204.24 280.107 2204.24 275.477 Q2204.24 270.871 2202.25 268.185 Q2200.26 265.477 2196.86 265.477 M2196.86 261.866 Q2202.41 261.866 2205.58 265.477 Q2208.75 269.088 2208.75 275.477 Q2208.75 281.843 2205.58 285.477 Q2202.41 289.088 2196.86 289.088 Q2191.28 289.088 2188.11 285.477 Q2184.96 281.843 2184.96 275.477 Q2184.96 269.088 2188.11 265.477 Q2191.28 261.866 2196.86 261.866 Z" fill="#000000" fill-rule="evenodd" fill-opacity="1" /><path clip-path="url(#clip580)" d="M2237.37 272.769 L2237.37 288.417 L2233.11 288.417 L2233.11 272.908 Q2233.11 269.227 2231.67 267.398 Q2230.24 265.57 2227.37 265.57 Q2223.92 265.57 2221.93 267.769 Q2219.94 269.968 2219.94 273.764 L2219.94 288.417 L2215.65 288.417 L2215.65 262.491 L2219.94 262.491 L2219.94 266.519 Q2221.46 264.181 2223.52 263.023 Q2225.61 261.866 2228.32 261.866 Q2232.78 261.866 2235.07 264.644 Q2237.37 267.398 2237.37 272.769 Z" fill="#000000" fill-rule="evenodd" fill-opacity="1" /></svg>
