<?xml version="1.0" encoding="utf-8"?>
<svg xmlns="http://www.w3.org/2000/svg" xmlns:xlink="http://www.w3.org/1999/xlink" width="600" height="400" viewBox="0 0 2400 1600">
<defs>
  <clipPath id="clip140">
    <rect x="0" y="0" width="2400" height="1600"/>
  </clipPath>
</defs>
<path clip-path="url(#clip140)" d="
M0 1600 L2400 1600 L2400 0 L0 0  Z
  " fill="#ffffff" fill-rule="evenodd" fill-opacity="1"/>
<defs>
  <clipPath id="clip141">
    <rect x="480" y="0" width="1681" height="1600"/>
  </clipPath>
</defs>
<defs>
  <clipPath id="clip142">
    <rect x="241" y="47" width="2113" height="1377"/>
  </clipPath>
</defs>
<path clip-path="url(#clip140)" d="
M241.051 1423.18 L2352.76 1423.18 L2352.76 47.2441 L241.051 47.2441  Z
  " fill="#ffffff" fill-rule="evenodd" fill-opacity="1"/>
<polyline clip-path="url(#clip140)" style="stroke:#000000; stroke-linecap:butt; stroke-linejoin:round; stroke-width:4; stroke-opacity:1; fill:none" points="
  241.051,1423.18 2352.76,1423.18 
  "/>
<polyline clip-path="url(#clip140)" style="stroke:#000000; stroke-linecap:butt; stroke-linejoin:round; stroke-width:4; stroke-opacity:1; fill:none" points="
  278.681,1423.18 278.681,1404.28 
  "/>
<polyline clip-path="url(#clip140)" style="stroke:#000000; stroke-linecap:butt; stroke-linejoin:round; stroke-width:4; stroke-opacity:1; fill:none" points="
  721.387,1423.18 721.387,1404.28 
  "/>
<polyline clip-path="url(#clip140)" style="stroke:#000000; stroke-linecap:butt; stroke-linejoin:round; stroke-width:4; stroke-opacity:1; fill:none" points="
  1164.09,1423.18 1164.09,1404.28 
  "/>
<polyline clip-path="url(#clip140)" style="stroke:#000000; stroke-linecap:butt; stroke-linejoin:round; stroke-width:4; stroke-opacity:1; fill:none" points="
  1606.8,1423.18 1606.8,1404.28 
  "/>
<polyline clip-path="url(#clip140)" style="stroke:#000000; stroke-linecap:butt; stroke-linejoin:round; stroke-width:4; stroke-opacity:1; fill:none" points="
  2049.5,1423.18 2049.5,1404.28 
  "/>
<path clip-path="url(#clip140)" d="M278.681 1452.37 Q275.07 1452.37 273.242 1455.94 Q271.436 1459.48 271.436 1466.61 Q271.436 1473.71 273.242 1477.28 Q275.07 1480.82 278.681 1480.82 Q282.316 1480.82 284.121 1477.28 Q285.95 1473.71 285.95 1466.61 Q285.95 1459.48 284.121 1455.94 Q282.316 1452.37 278.681 1452.37 M278.681 1448.67 Q284.492 1448.67 287.547 1453.27 Q290.626 1457.86 290.626 1466.61 Q290.626 1475.33 287.547 1479.94 Q284.492 1484.52 278.681 1484.52 Q272.871 1484.52 269.793 1479.94 Q266.737 1475.33 266.737 1466.61 Q266.737 1457.86 269.793 1453.27 Q272.871 1448.67 278.681 1448.67 Z" fill="#000000" fill-rule="evenodd" fill-opacity="1" /><path clip-path="url(#clip140)" d="M700.16 1479.92 L716.479 1479.92 L716.479 1483.85 L694.535 1483.85 L694.535 1479.92 Q697.197 1477.16 701.78 1472.53 Q706.387 1467.88 707.567 1466.54 Q709.813 1464.01 710.692 1462.28 Q711.595 1460.52 711.595 1458.83 Q711.595 1456.07 709.651 1454.34 Q707.729 1452.6 704.628 1452.6 Q702.428 1452.6 699.975 1453.37 Q697.544 1454.13 694.766 1455.68 L694.766 1450.96 Q697.591 1449.82 700.044 1449.25 Q702.498 1448.67 704.535 1448.67 Q709.905 1448.67 713.1 1451.35 Q716.294 1454.04 716.294 1458.53 Q716.294 1460.66 715.484 1462.58 Q714.697 1464.48 712.59 1467.07 Q712.012 1467.74 708.91 1470.96 Q705.808 1474.15 700.16 1479.92 Z" fill="#000000" fill-rule="evenodd" fill-opacity="1" /><path clip-path="url(#clip140)" d="M736.294 1452.37 Q732.683 1452.37 730.854 1455.94 Q729.049 1459.48 729.049 1466.61 Q729.049 1473.71 730.854 1477.28 Q732.683 1480.82 736.294 1480.82 Q739.928 1480.82 741.734 1477.28 Q743.563 1473.71 743.563 1466.61 Q743.563 1459.48 741.734 1455.94 Q739.928 1452.37 736.294 1452.37 M736.294 1448.67 Q742.104 1448.67 745.16 1453.27 Q748.238 1457.86 748.238 1466.61 Q748.238 1475.33 745.16 1479.94 Q742.104 1484.52 736.294 1484.52 Q730.484 1484.52 727.405 1479.94 Q724.35 1475.33 724.35 1466.61 Q724.35 1457.86 727.405 1453.27 Q730.484 1448.67 736.294 1448.67 Z" fill="#000000" fill-rule="evenodd" fill-opacity="1" /><path clip-path="url(#clip140)" d="M1152.26 1453.37 L1140.46 1471.81 L1152.26 1471.81 L1152.26 1453.37 M1151.04 1449.29 L1156.92 1449.29 L1156.92 1471.81 L1161.85 1471.81 L1161.85 1475.7 L1156.92 1475.7 L1156.92 1483.85 L1152.26 1483.85 L1152.26 1475.7 L1136.66 1475.7 L1136.66 1471.19 L1151.04 1449.29 Z" fill="#000000" fill-rule="evenodd" fill-opacity="1" /><path clip-path="url(#clip140)" d="M1179.58 1452.37 Q1175.97 1452.37 1174.14 1455.94 Q1172.33 1459.48 1172.33 1466.61 Q1172.33 1473.71 1174.14 1477.28 Q1175.97 1480.82 1179.58 1480.82 Q1183.21 1480.82 1185.02 1477.28 Q1186.85 1473.71 1186.85 1466.61 Q1186.85 1459.48 1185.02 1455.94 Q1183.21 1452.37 1179.58 1452.37 M1179.58 1448.67 Q1185.39 1448.67 1188.44 1453.27 Q1191.52 1457.86 1191.52 1466.61 Q1191.52 1475.33 1188.44 1479.94 Q1185.39 1484.52 1179.58 1484.52 Q1173.77 1484.52 1170.69 1479.94 Q1167.63 1475.33 1167.63 1466.61 Q1167.63 1457.86 1170.69 1453.27 Q1173.77 1448.67 1179.58 1448.67 Z" fill="#000000" fill-rule="evenodd" fill-opacity="1" /><path clip-path="url(#clip140)" d="M1592.2 1464.71 Q1589.05 1464.71 1587.2 1466.86 Q1585.37 1469.01 1585.37 1472.76 Q1585.37 1476.49 1587.2 1478.67 Q1589.05 1480.82 1592.2 1480.82 Q1595.35 1480.82 1597.18 1478.67 Q1599.03 1476.49 1599.03 1472.76 Q1599.03 1469.01 1597.18 1466.86 Q1595.35 1464.71 1592.2 1464.71 M1601.48 1450.06 L1601.48 1454.31 Q1599.73 1453.48 1597.92 1453.04 Q1596.14 1452.6 1594.38 1452.6 Q1589.75 1452.6 1587.3 1455.73 Q1584.86 1458.85 1584.52 1465.17 Q1585.88 1463.16 1587.94 1462.09 Q1590 1461 1592.48 1461 Q1597.69 1461 1600.7 1464.18 Q1603.73 1467.32 1603.73 1472.76 Q1603.73 1478.09 1600.58 1481.31 Q1597.43 1484.52 1592.2 1484.52 Q1586.21 1484.52 1583.04 1479.94 Q1579.86 1475.33 1579.86 1466.61 Q1579.86 1458.41 1583.75 1453.55 Q1587.64 1448.67 1594.19 1448.67 Q1595.95 1448.67 1597.73 1449.01 Q1599.54 1449.36 1601.48 1450.06 Z" fill="#000000" fill-rule="evenodd" fill-opacity="1" /><path clip-path="url(#clip140)" d="M1621.79 1452.37 Q1618.17 1452.37 1616.35 1455.94 Q1614.54 1459.48 1614.54 1466.61 Q1614.54 1473.71 1616.35 1477.28 Q1618.17 1480.82 1621.79 1480.82 Q1625.42 1480.82 1627.23 1477.28 Q1629.05 1473.71 1629.05 1466.61 Q1629.05 1459.48 1627.23 1455.94 Q1625.42 1452.37 1621.79 1452.37 M1621.79 1448.67 Q1627.6 1448.67 1630.65 1453.27 Q1633.73 1457.86 1633.73 1466.61 Q1633.73 1475.33 1630.65 1479.94 Q1627.6 1484.52 1621.79 1484.52 Q1615.98 1484.52 1612.9 1479.94 Q1609.84 1475.33 1609.84 1466.61 Q1609.84 1457.86 1612.9 1453.27 Q1615.98 1448.67 1621.79 1448.67 Z" fill="#000000" fill-rule="evenodd" fill-opacity="1" /><path clip-path="url(#clip140)" d="M2034.38 1467.44 Q2031.04 1467.44 2029.12 1469.22 Q2027.22 1471 2027.22 1474.13 Q2027.22 1477.25 2029.12 1479.04 Q2031.04 1480.82 2034.38 1480.82 Q2037.71 1480.82 2039.63 1479.04 Q2041.55 1477.23 2041.55 1474.13 Q2041.55 1471 2039.63 1469.22 Q2037.73 1467.44 2034.38 1467.44 M2029.7 1465.45 Q2026.69 1464.71 2025 1462.65 Q2023.33 1460.59 2023.33 1457.63 Q2023.33 1453.48 2026.27 1451.07 Q2029.24 1448.67 2034.38 1448.67 Q2039.54 1448.67 2042.48 1451.07 Q2045.42 1453.48 2045.42 1457.63 Q2045.42 1460.59 2043.73 1462.65 Q2042.06 1464.71 2039.07 1465.45 Q2042.45 1466.24 2044.33 1468.53 Q2046.23 1470.82 2046.23 1474.13 Q2046.23 1479.15 2043.15 1481.84 Q2040.09 1484.52 2034.38 1484.52 Q2028.66 1484.52 2025.58 1481.84 Q2022.52 1479.15 2022.52 1474.13 Q2022.52 1470.82 2024.42 1468.53 Q2026.32 1466.24 2029.7 1465.45 M2027.99 1458.06 Q2027.99 1460.75 2029.65 1462.25 Q2031.34 1463.76 2034.38 1463.76 Q2037.38 1463.76 2039.07 1462.25 Q2040.79 1460.75 2040.79 1458.06 Q2040.79 1455.38 2039.07 1453.88 Q2037.38 1452.37 2034.38 1452.37 Q2031.34 1452.37 2029.65 1453.88 Q2027.99 1455.38 2027.99 1458.06 Z" fill="#000000" fill-rule="evenodd" fill-opacity="1" /><path clip-path="url(#clip140)" d="M2064.54 1452.37 Q2060.93 1452.37 2059.1 1455.94 Q2057.29 1459.48 2057.29 1466.61 Q2057.29 1473.71 2059.1 1477.28 Q2060.93 1480.82 2064.54 1480.82 Q2068.17 1480.82 2069.98 1477.28 Q2071.81 1473.71 2071.81 1466.61 Q2071.81 1459.48 2069.98 1455.94 Q2068.17 1452.37 2064.54 1452.37 M2064.54 1448.67 Q2070.35 1448.67 2073.4 1453.27 Q2076.48 1457.86 2076.48 1466.61 Q2076.48 1475.33 2073.4 1479.94 Q2070.35 1484.52 2064.54 1484.52 Q2058.73 1484.52 2055.65 1479.94 Q2052.59 1475.33 2052.59 1466.61 Q2052.59 1457.86 2055.65 1453.27 Q2058.73 1448.67 2064.54 1448.67 Z" fill="#000000" fill-rule="evenodd" fill-opacity="1" /><path clip-path="url(#clip140)" d="M1020.2 1520.52 L1028.86 1520.52 L1049.93 1560.28 L1049.93 1520.52 L1056.17 1520.52 L1056.17 1568.04 L1047.51 1568.04 L1026.44 1528.29 L1026.44 1568.04 L1020.2 1568.04 L1020.2 1520.52 Z" fill="#000000" fill-rule="evenodd" fill-opacity="1" /><path clip-path="url(#clip140)" d="M1068.1 1553.98 L1068.1 1532.4 L1073.96 1532.4 L1073.96 1553.75 Q1073.96 1558.81 1075.93 1561.36 Q1077.91 1563.87 1081.85 1563.87 Q1086.6 1563.87 1089.33 1560.85 Q1092.1 1557.83 1092.1 1552.61 L1092.1 1532.4 L1097.96 1532.4 L1097.96 1568.04 L1092.1 1568.04 L1092.1 1562.57 Q1089.97 1565.82 1087.14 1567.41 Q1084.34 1568.97 1080.61 1568.97 Q1074.47 1568.97 1071.29 1565.15 Q1068.1 1561.33 1068.1 1553.98 M1082.84 1531.54 L1082.84 1531.54 Z" fill="#000000" fill-rule="evenodd" fill-opacity="1" /><path clip-path="url(#clip140)" d="M1137.78 1539.24 Q1139.97 1535.29 1143.03 1533.41 Q1146.08 1531.54 1150.22 1531.54 Q1155.79 1531.54 1158.82 1535.45 Q1161.84 1539.33 1161.84 1546.53 L1161.84 1568.04 L1155.95 1568.04 L1155.95 1546.72 Q1155.95 1541.59 1154.14 1539.11 Q1152.32 1536.63 1148.6 1536.63 Q1144.05 1536.63 1141.41 1539.65 Q1138.76 1542.68 1138.76 1547.9 L1138.76 1568.04 L1132.88 1568.04 L1132.88 1546.72 Q1132.88 1541.56 1131.06 1539.11 Q1129.25 1536.63 1125.46 1536.63 Q1120.97 1536.63 1118.33 1539.68 Q1115.69 1542.71 1115.69 1547.9 L1115.69 1568.04 L1109.8 1568.04 L1109.8 1532.4 L1115.69 1532.4 L1115.69 1537.93 Q1117.69 1534.66 1120.49 1533.1 Q1123.29 1531.54 1127.15 1531.54 Q1131.03 1531.54 1133.73 1533.51 Q1136.47 1535.48 1137.78 1539.24 Z" fill="#000000" fill-rule="evenodd" fill-opacity="1" /><path clip-path="url(#clip140)" d="M1199.11 1550.25 Q1199.11 1543.79 1196.44 1540.13 Q1193.8 1536.44 1189.15 1536.44 Q1184.5 1536.44 1181.83 1540.13 Q1179.19 1543.79 1179.19 1550.25 Q1179.19 1556.71 1181.83 1560.4 Q1184.5 1564.07 1189.15 1564.07 Q1193.8 1564.07 1196.44 1560.4 Q1199.11 1556.71 1199.11 1550.25 M1179.19 1537.81 Q1181.03 1534.62 1183.83 1533.1 Q1186.67 1531.54 1190.58 1531.54 Q1197.07 1531.54 1201.12 1536.69 Q1205.19 1541.85 1205.19 1550.25 Q1205.19 1558.65 1201.12 1563.81 Q1197.07 1568.97 1190.58 1568.97 Q1186.67 1568.97 1183.83 1567.44 Q1181.03 1565.88 1179.19 1562.7 L1179.19 1568.04 L1173.3 1568.04 L1173.3 1518.52 L1179.19 1518.52 L1179.19 1537.81 Z" fill="#000000" fill-rule="evenodd" fill-opacity="1" /><path clip-path="url(#clip140)" d="M1245.39 1548.76 L1245.39 1551.62 L1218.46 1551.62 Q1218.84 1557.67 1222.09 1560.85 Q1225.37 1564 1231.19 1564 Q1234.57 1564 1237.72 1563.17 Q1240.9 1562.35 1244.02 1560.69 L1244.02 1566.23 Q1240.87 1567.57 1237.56 1568.27 Q1234.25 1568.97 1230.84 1568.97 Q1222.31 1568.97 1217.32 1564 Q1212.35 1559.04 1212.35 1550.57 Q1212.35 1541.82 1217.06 1536.69 Q1221.8 1531.54 1229.83 1531.54 Q1237.02 1531.54 1241.19 1536.18 Q1245.39 1540.8 1245.39 1548.76 M1239.53 1547.04 Q1239.47 1542.23 1236.83 1539.37 Q1234.22 1536.5 1229.89 1536.5 Q1224.99 1536.5 1222.03 1539.27 Q1219.1 1542.04 1218.65 1547.07 L1239.53 1547.04 Z" fill="#000000" fill-rule="evenodd" fill-opacity="1" /><path clip-path="url(#clip140)" d="M1275.66 1537.87 Q1274.67 1537.3 1273.49 1537.04 Q1272.35 1536.76 1270.95 1536.76 Q1265.98 1536.76 1263.31 1540 Q1260.67 1543.22 1260.67 1549.27 L1260.67 1568.04 L1254.78 1568.04 L1254.78 1532.4 L1260.67 1532.4 L1260.67 1537.93 Q1262.51 1534.69 1265.47 1533.13 Q1268.43 1531.54 1272.67 1531.54 Q1273.27 1531.54 1274 1531.63 Q1274.74 1531.7 1275.63 1531.85 L1275.66 1537.87 Z" fill="#000000" fill-rule="evenodd" fill-opacity="1" /><path clip-path="url(#clip140)" d="M1316.33 1536.5 Q1311.62 1536.5 1308.89 1540.19 Q1306.15 1543.85 1306.15 1550.25 Q1306.15 1556.65 1308.86 1560.34 Q1311.59 1564 1316.33 1564 Q1321.01 1564 1323.75 1560.31 Q1326.49 1556.62 1326.49 1550.25 Q1326.49 1543.92 1323.75 1540.23 Q1321.01 1536.5 1316.33 1536.5 M1316.33 1531.54 Q1323.97 1531.54 1328.33 1536.5 Q1332.69 1541.47 1332.69 1550.25 Q1332.69 1559 1328.33 1564 Q1323.97 1568.97 1316.33 1568.97 Q1308.66 1568.97 1304.3 1564 Q1299.98 1559 1299.98 1550.25 Q1299.98 1541.47 1304.3 1536.5 Q1308.66 1531.54 1316.33 1531.54 Z" fill="#000000" fill-rule="evenodd" fill-opacity="1" /><path clip-path="url(#clip140)" d="M1360.45 1518.52 L1360.45 1523.39 L1354.85 1523.39 Q1351.7 1523.39 1350.46 1524.66 Q1349.25 1525.93 1349.25 1529.24 L1349.25 1532.4 L1358.89 1532.4 L1358.89 1536.95 L1349.25 1536.95 L1349.25 1568.04 L1343.36 1568.04 L1343.36 1536.95 L1337.76 1536.95 L1337.76 1532.4 L1343.36 1532.4 L1343.36 1529.91 Q1343.36 1523.96 1346.13 1521.26 Q1348.9 1518.52 1354.91 1518.52 L1360.45 1518.52 Z" fill="#000000" fill-rule="evenodd" fill-opacity="1" /><path clip-path="url(#clip140)" d="M1409.53 1549.81 Q1409.53 1543.44 1406.89 1539.94 Q1404.28 1536.44 1399.53 1536.44 Q1394.82 1536.44 1392.18 1539.94 Q1389.57 1543.44 1389.57 1549.81 Q1389.57 1556.14 1392.18 1559.64 Q1394.82 1563.14 1399.53 1563.14 Q1404.28 1563.14 1406.89 1559.64 Q1409.53 1556.14 1409.53 1549.81 M1415.39 1563.62 Q1415.39 1572.72 1411.34 1577.15 Q1407.3 1581.6 1398.96 1581.6 Q1395.87 1581.6 1393.14 1581.13 Q1390.4 1580.68 1387.82 1579.72 L1387.82 1574.03 Q1390.4 1575.43 1392.91 1576.1 Q1395.43 1576.76 1398.04 1576.76 Q1403.8 1576.76 1406.66 1573.74 Q1409.53 1570.75 1409.53 1564.67 L1409.53 1561.77 Q1407.71 1564.92 1404.88 1566.48 Q1402.05 1568.04 1398.1 1568.04 Q1391.55 1568.04 1387.54 1563.05 Q1383.53 1558.05 1383.53 1549.81 Q1383.53 1541.53 1387.54 1536.53 Q1391.55 1531.54 1398.1 1531.54 Q1402.05 1531.54 1404.88 1533.1 Q1407.71 1534.66 1409.53 1537.81 L1409.53 1532.4 L1415.39 1532.4 L1415.39 1563.62 Z" fill="#000000" fill-rule="evenodd" fill-opacity="1" /><path clip-path="url(#clip140)" d="M1457.94 1548.76 L1457.94 1551.62 L1431.01 1551.62 Q1431.4 1557.67 1434.64 1560.85 Q1437.92 1564 1443.74 1564 Q1447.12 1564 1450.27 1563.17 Q1453.45 1562.35 1456.57 1560.69 L1456.57 1566.23 Q1453.42 1567.57 1450.11 1568.27 Q1446.8 1568.97 1443.39 1568.97 Q1434.86 1568.97 1429.87 1564 Q1424.9 1559.04 1424.9 1550.57 Q1424.9 1541.82 1429.61 1536.69 Q1434.36 1531.54 1442.38 1531.54 Q1449.57 1531.54 1453.74 1536.18 Q1457.94 1540.8 1457.94 1548.76 M1452.08 1547.04 Q1452.02 1542.23 1449.38 1539.37 Q1446.77 1536.5 1442.44 1536.5 Q1437.54 1536.5 1434.58 1539.27 Q1431.65 1542.04 1431.2 1547.07 L1452.08 1547.04 Z" fill="#000000" fill-rule="evenodd" fill-opacity="1" /><path clip-path="url(#clip140)" d="M1497.18 1546.53 L1497.18 1568.04 L1491.33 1568.04 L1491.33 1546.72 Q1491.33 1541.66 1489.35 1539.14 Q1487.38 1536.63 1483.43 1536.63 Q1478.69 1536.63 1475.96 1539.65 Q1473.22 1542.68 1473.22 1547.9 L1473.22 1568.04 L1467.33 1568.04 L1467.33 1532.4 L1473.22 1532.4 L1473.22 1537.93 Q1475.32 1534.72 1478.15 1533.13 Q1481.02 1531.54 1484.74 1531.54 Q1490.88 1531.54 1494.03 1535.36 Q1497.18 1539.14 1497.18 1546.53 Z" fill="#000000" fill-rule="evenodd" fill-opacity="1" /><path clip-path="url(#clip140)" d="M1539.36 1548.76 L1539.36 1551.62 L1512.43 1551.62 Q1512.81 1557.67 1516.06 1560.85 Q1519.34 1564 1525.16 1564 Q1528.54 1564 1531.69 1563.17 Q1534.87 1562.35 1537.99 1560.69 L1537.99 1566.23 Q1534.84 1567.57 1531.53 1568.27 Q1528.22 1568.97 1524.81 1568.97 Q1516.28 1568.97 1511.28 1564 Q1506.32 1559.04 1506.32 1550.57 Q1506.32 1541.82 1511.03 1536.69 Q1515.77 1531.54 1523.79 1531.54 Q1530.99 1531.54 1535.16 1536.18 Q1539.36 1540.8 1539.36 1548.76 M1533.5 1547.04 Q1533.44 1542.23 1530.8 1539.37 Q1528.19 1536.5 1523.86 1536.5 Q1518.96 1536.5 1516 1539.27 Q1513.07 1542.04 1512.62 1547.07 L1533.5 1547.04 Z" fill="#000000" fill-rule="evenodd" fill-opacity="1" /><path clip-path="url(#clip140)" d="M1571.7 1533.45 L1571.7 1538.98 Q1569.21 1537.71 1566.54 1537.07 Q1563.87 1536.44 1561 1536.44 Q1556.64 1536.44 1554.44 1537.77 Q1552.28 1539.11 1552.28 1541.79 Q1552.28 1543.82 1553.84 1545 Q1555.4 1546.15 1560.11 1547.2 L1562.11 1547.64 Q1568.35 1548.98 1570.96 1551.43 Q1573.61 1553.85 1573.61 1558.21 Q1573.61 1563.17 1569.66 1566.07 Q1565.74 1568.97 1558.87 1568.97 Q1556 1568.97 1552.88 1568.39 Q1549.8 1567.85 1546.36 1566.74 L1546.36 1560.69 Q1549.61 1562.38 1552.76 1563.24 Q1555.91 1564.07 1559 1564.07 Q1563.13 1564.07 1565.36 1562.66 Q1567.59 1561.23 1567.59 1558.65 Q1567.59 1556.27 1565.97 1554.99 Q1564.37 1553.72 1558.93 1552.54 L1556.9 1552.07 Q1551.45 1550.92 1549.03 1548.56 Q1546.61 1546.18 1546.61 1542.04 Q1546.61 1537.01 1550.18 1534.27 Q1553.74 1531.54 1560.3 1531.54 Q1563.55 1531.54 1566.41 1532.01 Q1569.28 1532.49 1571.7 1533.45 Z" fill="#000000" fill-rule="evenodd" fill-opacity="1" /><polyline clip-path="url(#clip140)" style="stroke:#000000; stroke-linecap:butt; stroke-linejoin:round; stroke-width:4; stroke-opacity:1; fill:none" points="
  241.051,1423.18 241.051,47.2441 
  "/>
<polyline clip-path="url(#clip140)" style="stroke:#000000; stroke-linecap:butt; stroke-linejoin:round; stroke-width:4; stroke-opacity:1; fill:none" points="
  241.051,1214.33 259.949,1214.33 
  "/>
<polyline clip-path="url(#clip140)" style="stroke:#000000; stroke-linecap:butt; stroke-linejoin:round; stroke-width:4; stroke-opacity:1; fill:none" points="
  241.051,1001.29 259.949,1001.29 
  "/>
<polyline clip-path="url(#clip140)" style="stroke:#000000; stroke-linecap:butt; stroke-linejoin:round; stroke-width:4; stroke-opacity:1; fill:none" points="
  241.051,788.258 259.949,788.258 
  "/>
<polyline clip-path="url(#clip140)" style="stroke:#000000; stroke-linecap:butt; stroke-linejoin:round; stroke-width:4; stroke-opacity:1; fill:none" points="
  241.051,575.223 259.949,575.223 
  "/>
<polyline clip-path="url(#clip140)" style="stroke:#000000; stroke-linecap:butt; stroke-linejoin:round; stroke-width:4; stroke-opacity:1; fill:none" points="
  241.051,362.189 259.949,362.189 
  "/>
<polyline clip-path="url(#clip140)" style="stroke:#000000; stroke-linecap:butt; stroke-linejoin:round; stroke-width:4; stroke-opacity:1; fill:none" points="
  241.051,149.155 259.949,149.155 
  "/>
<path clip-path="url(#clip140)" d="M126.811 1227.67 L143.13 1227.67 L143.13 1231.61 L121.186 1231.61 L121.186 1227.67 Q123.848 1224.92 128.431 1220.29 Q133.038 1215.63 134.218 1214.29 Q136.464 1211.77 137.343 1210.03 Q138.246 1208.27 138.246 1206.58 Q138.246 1203.83 136.302 1202.09 Q134.38 1200.36 131.279 1200.36 Q129.08 1200.36 126.626 1201.12 Q124.195 1201.88 121.418 1203.44 L121.418 1198.71 Q124.242 1197.58 126.695 1197 Q129.149 1196.42 131.186 1196.42 Q136.556 1196.42 139.751 1199.11 Q142.945 1201.79 142.945 1206.28 Q142.945 1208.41 142.135 1210.33 Q141.348 1212.23 139.242 1214.82 Q138.663 1215.5 135.561 1218.71 Q132.459 1221.91 126.811 1227.67 Z" fill="#000000" fill-rule="evenodd" fill-opacity="1" /><path clip-path="url(#clip140)" d="M152.991 1197.05 L171.348 1197.05 L171.348 1200.98 L157.274 1200.98 L157.274 1209.45 Q158.292 1209.11 159.311 1208.94 Q160.329 1208.76 161.348 1208.76 Q167.135 1208.76 170.515 1211.93 Q173.894 1215.1 173.894 1220.52 Q173.894 1226.1 170.422 1229.2 Q166.95 1232.28 160.63 1232.28 Q158.454 1232.28 156.186 1231.91 Q153.941 1231.54 151.533 1230.8 L151.533 1226.1 Q153.616 1227.23 155.839 1227.79 Q158.061 1228.34 160.538 1228.34 Q164.542 1228.34 166.88 1226.24 Q169.218 1224.13 169.218 1220.52 Q169.218 1216.91 166.88 1214.8 Q164.542 1212.69 160.538 1212.69 Q158.663 1212.69 156.788 1213.11 Q154.936 1213.53 152.991 1214.41 L152.991 1197.05 Z" fill="#000000" fill-rule="evenodd" fill-opacity="1" /><path clip-path="url(#clip140)" d="M193.107 1200.13 Q189.496 1200.13 187.667 1203.69 Q185.862 1207.23 185.862 1214.36 Q185.862 1221.47 187.667 1225.03 Q189.496 1228.57 193.107 1228.57 Q196.741 1228.57 198.547 1225.03 Q200.375 1221.47 200.375 1214.36 Q200.375 1207.23 198.547 1203.69 Q196.741 1200.13 193.107 1200.13 M193.107 1196.42 Q198.917 1196.42 201.973 1201.03 Q205.051 1205.61 205.051 1214.36 Q205.051 1223.09 201.973 1227.69 Q198.917 1232.28 193.107 1232.28 Q187.297 1232.28 184.218 1227.69 Q181.163 1223.09 181.163 1214.36 Q181.163 1205.61 184.218 1201.03 Q187.297 1196.42 193.107 1196.42 Z" fill="#000000" fill-rule="evenodd" fill-opacity="1" /><path clip-path="url(#clip140)" d="M136.95 999.938 Q140.306 1000.66 142.181 1002.92 Q144.079 1005.19 144.079 1008.53 Q144.079 1013.64 140.561 1016.44 Q137.042 1019.24 130.561 1019.24 Q128.385 1019.24 126.07 1018.8 Q123.779 1018.39 121.325 1017.53 L121.325 1013.02 Q123.269 1014.15 125.584 1014.73 Q127.899 1015.31 130.422 1015.31 Q134.82 1015.31 137.112 1013.57 Q139.427 1011.84 139.427 1008.53 Q139.427 1005.47 137.274 1003.76 Q135.144 1002.02 131.325 1002.02 L127.297 1002.02 L127.297 998.179 L131.51 998.179 Q134.959 998.179 136.788 996.813 Q138.617 995.424 138.617 992.832 Q138.617 990.17 136.718 988.758 Q134.843 987.322 131.325 987.322 Q129.404 987.322 127.205 987.739 Q125.006 988.156 122.367 989.035 L122.367 984.869 Q125.029 984.128 127.343 983.758 Q129.681 983.387 131.742 983.387 Q137.066 983.387 140.167 985.818 Q143.269 988.225 143.269 992.346 Q143.269 995.216 141.626 997.207 Q139.982 999.174 136.95 999.938 Z" fill="#000000" fill-rule="evenodd" fill-opacity="1" /><path clip-path="url(#clip140)" d="M162.945 987.091 Q159.334 987.091 157.505 990.656 Q155.7 994.197 155.7 1001.33 Q155.7 1008.43 157.505 1012 Q159.334 1015.54 162.945 1015.54 Q166.579 1015.54 168.385 1012 Q170.214 1008.43 170.214 1001.33 Q170.214 994.197 168.385 990.656 Q166.579 987.091 162.945 987.091 M162.945 983.387 Q168.755 983.387 171.811 987.994 Q174.89 992.577 174.89 1001.33 Q174.89 1010.05 171.811 1014.66 Q168.755 1019.24 162.945 1019.24 Q157.135 1019.24 154.056 1014.66 Q151.001 1010.05 151.001 1001.33 Q151.001 992.577 154.056 987.994 Q157.135 983.387 162.945 983.387 Z" fill="#000000" fill-rule="evenodd" fill-opacity="1" /><path clip-path="url(#clip140)" d="M193.107 987.091 Q189.496 987.091 187.667 990.656 Q185.862 994.197 185.862 1001.33 Q185.862 1008.43 187.667 1012 Q189.496 1015.54 193.107 1015.54 Q196.741 1015.54 198.547 1012 Q200.375 1008.43 200.375 1001.33 Q200.375 994.197 198.547 990.656 Q196.741 987.091 193.107 987.091 M193.107 983.387 Q198.917 983.387 201.973 987.994 Q205.051 992.577 205.051 1001.33 Q205.051 1010.05 201.973 1014.66 Q198.917 1019.24 193.107 1019.24 Q187.297 1019.24 184.218 1014.66 Q181.163 1010.05 181.163 1001.33 Q181.163 992.577 184.218 987.994 Q187.297 983.387 193.107 983.387 Z" fill="#000000" fill-rule="evenodd" fill-opacity="1" /><path clip-path="url(#clip140)" d="M136.95 786.904 Q140.306 787.621 142.181 789.89 Q144.079 792.158 144.079 795.492 Q144.079 800.607 140.561 803.408 Q137.042 806.209 130.561 806.209 Q128.385 806.209 126.07 805.769 Q123.779 805.353 121.325 804.496 L121.325 799.982 Q123.269 801.117 125.584 801.695 Q127.899 802.274 130.422 802.274 Q134.82 802.274 137.112 800.538 Q139.427 798.802 139.427 795.492 Q139.427 792.436 137.274 790.723 Q135.144 788.987 131.325 788.987 L127.297 788.987 L127.297 785.144 L131.51 785.144 Q134.959 785.144 136.788 783.779 Q138.617 782.39 138.617 779.797 Q138.617 777.135 136.718 775.723 Q134.843 774.288 131.325 774.288 Q129.404 774.288 127.205 774.705 Q125.006 775.121 122.367 776.001 L122.367 771.834 Q125.029 771.094 127.343 770.723 Q129.681 770.353 131.742 770.353 Q137.066 770.353 140.167 772.783 Q143.269 775.191 143.269 779.311 Q143.269 782.182 141.626 784.172 Q139.982 786.14 136.95 786.904 Z" fill="#000000" fill-rule="evenodd" fill-opacity="1" /><path clip-path="url(#clip140)" d="M152.991 770.978 L171.348 770.978 L171.348 774.913 L157.274 774.913 L157.274 783.385 Q158.292 783.038 159.311 782.876 Q160.329 782.691 161.348 782.691 Q167.135 782.691 170.515 785.862 Q173.894 789.033 173.894 794.45 Q173.894 800.029 170.422 803.131 Q166.95 806.209 160.63 806.209 Q158.454 806.209 156.186 805.839 Q153.941 805.468 151.533 804.728 L151.533 800.029 Q153.616 801.163 155.839 801.718 Q158.061 802.274 160.538 802.274 Q164.542 802.274 166.88 800.168 Q169.218 798.061 169.218 794.45 Q169.218 790.839 166.88 788.732 Q164.542 786.626 160.538 786.626 Q158.663 786.626 156.788 787.043 Q154.936 787.459 152.991 788.339 L152.991 770.978 Z" fill="#000000" fill-rule="evenodd" fill-opacity="1" /><path clip-path="url(#clip140)" d="M193.107 774.057 Q189.496 774.057 187.667 777.621 Q185.862 781.163 185.862 788.293 Q185.862 795.399 187.667 798.964 Q189.496 802.506 193.107 802.506 Q196.741 802.506 198.547 798.964 Q200.375 795.399 200.375 788.293 Q200.375 781.163 198.547 777.621 Q196.741 774.057 193.107 774.057 M193.107 770.353 Q198.917 770.353 201.973 774.959 Q205.051 779.543 205.051 788.293 Q205.051 797.019 201.973 801.626 Q198.917 806.209 193.107 806.209 Q187.297 806.209 184.218 801.626 Q181.163 797.019 181.163 788.293 Q181.163 779.543 184.218 774.959 Q187.297 770.353 193.107 770.353 Z" fill="#000000" fill-rule="evenodd" fill-opacity="1" /><path clip-path="url(#clip140)" d="M135.63 562.018 L123.825 580.467 L135.63 580.467 L135.63 562.018 M134.404 557.943 L140.283 557.943 L140.283 580.467 L145.214 580.467 L145.214 584.355 L140.283 584.355 L140.283 592.503 L135.63 592.503 L135.63 584.355 L120.029 584.355 L120.029 579.842 L134.404 557.943 Z" fill="#000000" fill-rule="evenodd" fill-opacity="1" /><path clip-path="url(#clip140)" d="M162.945 561.022 Q159.334 561.022 157.505 564.587 Q155.7 568.129 155.7 575.258 Q155.7 582.365 157.505 585.929 Q159.334 589.471 162.945 589.471 Q166.579 589.471 168.385 585.929 Q170.214 582.365 170.214 575.258 Q170.214 568.129 168.385 564.587 Q166.579 561.022 162.945 561.022 M162.945 557.319 Q168.755 557.319 171.811 561.925 Q174.89 566.508 174.89 575.258 Q174.89 583.985 171.811 588.591 Q168.755 593.175 162.945 593.175 Q157.135 593.175 154.056 588.591 Q151.001 583.985 151.001 575.258 Q151.001 566.508 154.056 561.925 Q157.135 557.319 162.945 557.319 Z" fill="#000000" fill-rule="evenodd" fill-opacity="1" /><path clip-path="url(#clip140)" d="M193.107 561.022 Q189.496 561.022 187.667 564.587 Q185.862 568.129 185.862 575.258 Q185.862 582.365 187.667 585.929 Q189.496 589.471 193.107 589.471 Q196.741 589.471 198.547 585.929 Q200.375 582.365 200.375 575.258 Q200.375 568.129 198.547 564.587 Q196.741 561.022 193.107 561.022 M193.107 557.319 Q198.917 557.319 201.973 561.925 Q205.051 566.508 205.051 575.258 Q205.051 583.985 201.973 588.591 Q198.917 593.175 193.107 593.175 Q187.297 593.175 184.218 588.591 Q181.163 583.985 181.163 575.258 Q181.163 566.508 184.218 561.925 Q187.297 557.319 193.107 557.319 Z" fill="#000000" fill-rule="evenodd" fill-opacity="1" /><path clip-path="url(#clip140)" d="M135.63 348.983 L123.825 367.432 L135.63 367.432 L135.63 348.983 M134.404 344.909 L140.283 344.909 L140.283 367.432 L145.214 367.432 L145.214 371.321 L140.283 371.321 L140.283 379.469 L135.63 379.469 L135.63 371.321 L120.029 371.321 L120.029 366.807 L134.404 344.909 Z" fill="#000000" fill-rule="evenodd" fill-opacity="1" /><path clip-path="url(#clip140)" d="M152.991 344.909 L171.348 344.909 L171.348 348.844 L157.274 348.844 L157.274 357.316 Q158.292 356.969 159.311 356.807 Q160.329 356.622 161.348 356.622 Q167.135 356.622 170.515 359.793 Q173.894 362.965 173.894 368.381 Q173.894 373.96 170.422 377.062 Q166.95 380.14 160.63 380.14 Q158.454 380.14 156.186 379.77 Q153.941 379.4 151.533 378.659 L151.533 373.96 Q153.616 375.094 155.839 375.65 Q158.061 376.205 160.538 376.205 Q164.542 376.205 166.88 374.099 Q169.218 371.992 169.218 368.381 Q169.218 364.77 166.88 362.664 Q164.542 360.557 160.538 360.557 Q158.663 360.557 156.788 360.974 Q154.936 361.39 152.991 362.27 L152.991 344.909 Z" fill="#000000" fill-rule="evenodd" fill-opacity="1" /><path clip-path="url(#clip140)" d="M193.107 347.988 Q189.496 347.988 187.667 351.553 Q185.862 355.094 185.862 362.224 Q185.862 369.33 187.667 372.895 Q189.496 376.437 193.107 376.437 Q196.741 376.437 198.547 372.895 Q200.375 369.33 200.375 362.224 Q200.375 355.094 198.547 351.553 Q196.741 347.988 193.107 347.988 M193.107 344.284 Q198.917 344.284 201.973 348.891 Q205.051 353.474 205.051 362.224 Q205.051 370.951 201.973 375.557 Q198.917 380.14 193.107 380.14 Q187.297 380.14 184.218 375.557 Q181.163 370.951 181.163 362.224 Q181.163 353.474 184.218 348.891 Q187.297 344.284 193.107 344.284 Z" fill="#000000" fill-rule="evenodd" fill-opacity="1" /><path clip-path="url(#clip140)" d="M122.83 131.875 L141.186 131.875 L141.186 135.81 L127.112 135.81 L127.112 144.282 Q128.131 143.935 129.149 143.773 Q130.168 143.588 131.186 143.588 Q136.973 143.588 140.353 146.759 Q143.732 149.93 143.732 155.347 Q143.732 160.925 140.26 164.027 Q136.788 167.106 130.468 167.106 Q128.293 167.106 126.024 166.736 Q123.779 166.365 121.371 165.625 L121.371 160.925 Q123.455 162.06 125.677 162.615 Q127.899 163.171 130.376 163.171 Q134.38 163.171 136.718 161.064 Q139.056 158.958 139.056 155.347 Q139.056 151.736 136.718 149.629 Q134.38 147.523 130.376 147.523 Q128.501 147.523 126.626 147.939 Q124.774 148.356 122.83 149.236 L122.83 131.875 Z" fill="#000000" fill-rule="evenodd" fill-opacity="1" /><path clip-path="url(#clip140)" d="M162.945 134.953 Q159.334 134.953 157.505 138.518 Q155.7 142.06 155.7 149.189 Q155.7 156.296 157.505 159.861 Q159.334 163.402 162.945 163.402 Q166.579 163.402 168.385 159.861 Q170.214 156.296 170.214 149.189 Q170.214 142.06 168.385 138.518 Q166.579 134.953 162.945 134.953 M162.945 131.25 Q168.755 131.25 171.811 135.856 Q174.89 140.439 174.89 149.189 Q174.89 157.916 171.811 162.523 Q168.755 167.106 162.945 167.106 Q157.135 167.106 154.056 162.523 Q151.001 157.916 151.001 149.189 Q151.001 140.439 154.056 135.856 Q157.135 131.25 162.945 131.25 Z" fill="#000000" fill-rule="evenodd" fill-opacity="1" /><path clip-path="url(#clip140)" d="M193.107 134.953 Q189.496 134.953 187.667 138.518 Q185.862 142.06 185.862 149.189 Q185.862 156.296 187.667 159.861 Q189.496 163.402 193.107 163.402 Q196.741 163.402 198.547 159.861 Q200.375 156.296 200.375 149.189 Q200.375 142.06 198.547 138.518 Q196.741 134.953 193.107 134.953 M193.107 131.25 Q198.917 131.25 201.973 135.856 Q205.051 140.439 205.051 149.189 Q205.051 157.916 201.973 162.523 Q198.917 167.106 193.107 167.106 Q187.297 167.106 184.218 162.523 Q181.163 157.916 181.163 149.189 Q181.163 140.439 184.218 135.856 Q187.297 131.25 193.107 131.25 Z" fill="#000000" fill-rule="evenodd" fill-opacity="1" /><path clip-path="url(#clip140)" d="M76.2581 777.341 Q76.8056 777.341 77.1921 777.728 Q77.5786 778.114 77.5786 778.662 Q77.5786 779.596 76.709 779.918 L45.0506 792.188 Q44.9218 792.253 44.5998 792.253 Q44.2777 792.253 44.1489 792.188 L12.4905 779.918 Q11.621 779.596 11.621 778.662 Q11.621 778.114 12.0074 777.728 Q12.3939 777.341 12.9414 777.341 Q13.2635 777.341 13.3923 777.406 L44.5998 789.547 L75.8072 777.406 Q75.9361 777.341 76.2581 777.341 Z" fill="#000000" fill-rule="evenodd" fill-opacity="1" /><path clip-path="url(#clip140)" d="M42.4742 732.401 Q47.1762 732.401 51.7173 734.784 Q56.2583 737.135 59.0602 740.839 Q61.8299 744.543 61.8299 748.311 Q61.8299 750.565 60.6061 752.079 Q59.3501 753.56 57.5787 754.365 Q59.7687 754.977 65.0183 756.298 Q70.2678 757.618 70.7831 757.618 Q71.073 757.618 71.2018 757.554 Q71.3306 757.489 71.4917 757.2 Q71.6849 756.91 71.7493 756.201 Q71.8459 755.493 71.8459 754.301 Q71.8459 753.689 71.8459 753.464 Q71.8781 753.206 72.0392 752.981 Q72.2002 752.723 72.5545 752.723 Q73.8749 752.723 73.8749 753.915 Q73.8749 754.977 73.7783 757.167 Q73.6817 759.357 73.6817 760.452 Q73.6817 761.386 73.7783 763.254 Q73.8749 765.122 73.8749 765.992 Q73.8749 766.861 73.102 766.861 Q72.6511 766.861 72.3612 766.733 Q72.1036 766.636 71.9747 766.378 Q71.8781 766.121 71.8459 765.895 Q71.8459 765.702 71.8459 765.315 Q71.8459 763.834 71.5883 763.19 Q71.3628 762.546 70.8797 762.32 Q70.4289 762.063 69.1406 761.773 L39.7689 754.365 Q37.8043 753.915 36.4195 753.915 Q34.6804 753.915 34.0362 754.462 Q33.3921 755.01 33.3921 755.976 Q33.3921 757.65 35.3889 758.745 Q37.3857 759.84 41.2504 760.774 Q42.3132 761.064 42.5386 761.258 Q42.764 761.419 42.764 761.902 Q42.7318 762.707 42.0877 762.707 Q41.9267 762.707 40.8961 762.449 Q39.8333 762.191 38.2874 761.708 Q36.7093 761.193 35.7109 760.646 Q35.0346 760.324 34.5837 760.034 Q34.1329 759.744 33.4243 759.164 Q32.7158 758.552 32.3293 757.683 Q31.9429 756.813 31.9429 755.75 Q31.9429 753.689 33.1667 751.982 Q34.3905 750.275 36.8704 749.824 Q34.7126 747.989 33.3277 745.734 Q31.9429 743.48 31.9429 741.193 Q31.9429 737.393 34.9058 734.913 Q37.8365 732.401 42.4742 732.401 M39.5757 737.168 Q36.6449 737.168 35.0346 738.295 Q33.3921 739.39 33.3921 741.387 Q33.3921 743.866 35.9042 746.733 Q38.2874 749.567 40.5096 750.147 L53.4242 753.399 L54.487 753.593 Q54.6802 753.593 55.2599 753.496 Q55.8074 753.367 56.7092 753.013 Q57.6109 752.626 58.4161 752.111 Q59.189 751.564 59.7687 750.597 Q60.3484 749.599 60.3484 748.375 Q60.3484 746.411 58.6093 744.285 Q56.8702 742.127 53.5852 740.517 Q51.4596 739.519 46.8864 738.359 Q42.2809 737.168 39.5757 737.168 Z" fill="#000000" fill-rule="evenodd" fill-opacity="1" /><path clip-path="url(#clip140)" d="M65.6679 725.696 L64.2251 725.696 Q64.2251 720.15 61.2718 717.287 Q61.2718 716.498 61.4522 716.363 Q61.6325 716.228 62.4667 716.228 L88.3698 716.228 Q89.745 716.228 90.1734 715.551 Q90.6017 714.875 90.6017 711.922 L90.6017 710.457 L92.022 710.457 Q91.8867 712.08 91.8867 717.941 Q91.8867 723.803 92.022 725.403 L90.6017 725.403 L90.6017 723.938 Q90.6017 721.03 90.1959 720.331 Q89.7676 719.632 88.3698 719.632 L64.4505 719.632 Q65.6679 722.044 65.6679 725.696 Z" fill="#000000" fill-rule="evenodd" fill-opacity="1" /><path clip-path="url(#clip140)" d="M44.1489 688.748 Q44.2777 688.683 44.5998 688.683 Q44.9218 688.683 45.0506 688.748 L76.709 701.018 Q77.5786 701.34 77.5786 702.242 Q77.5786 702.79 77.1921 703.176 Q76.8056 703.563 76.2581 703.563 Q75.9361 703.563 75.8072 703.498 L44.5998 691.389 L13.3923 703.498 Q13.2635 703.563 12.9414 703.563 Q12.3939 703.563 12.0074 703.176 Q11.621 702.79 11.621 702.242 Q11.621 701.34 12.4905 701.018 L44.1489 688.748 Z" fill="#000000" fill-rule="evenodd" fill-opacity="1" /><circle clip-path="url(#clip142)" cx="300.817" cy="86.1857" r="21" fill="#ff00ff" fill-rule="evenodd" fill-opacity="1" stroke="none"/>
<circle clip-path="url(#clip142)" cx="522.169" cy="296.588" r="21" fill="#ff00ff" fill-rule="evenodd" fill-opacity="1" stroke="none"/>
<circle clip-path="url(#clip142)" cx="743.522" cy="500.563" r="21" fill="#ff00ff" fill-rule="evenodd" fill-opacity="1" stroke="none"/>
<circle clip-path="url(#clip142)" cx="964.875" cy="687.669" r="21" fill="#ff00ff" fill-rule="evenodd" fill-opacity="1" stroke="none"/>
<circle clip-path="url(#clip142)" cx="1186.23" cy="852.681" r="21" fill="#ff00ff" fill-rule="evenodd" fill-opacity="1" stroke="none"/>
<circle clip-path="url(#clip142)" cx="1407.58" cy="994.937" r="21" fill="#ff00ff" fill-rule="evenodd" fill-opacity="1" stroke="none"/>
<circle clip-path="url(#clip142)" cx="1628.93" cy="1116.36" r="21" fill="#ff00ff" fill-rule="evenodd" fill-opacity="1" stroke="none"/>
<circle clip-path="url(#clip142)" cx="1850.29" cy="1219.82" r="21" fill="#ff00ff" fill-rule="evenodd" fill-opacity="1" stroke="none"/>
<circle clip-path="url(#clip142)" cx="2071.64" cy="1308.25" r="21" fill="#ff00ff" fill-rule="evenodd" fill-opacity="1" stroke="none"/>
<circle clip-path="url(#clip142)" cx="2292.99" cy="1384.24" r="21" fill="#ff00ff" fill-rule="evenodd" fill-opacity="1" stroke="none"/>
</svg>
