<?xml version="1.0" encoding="utf-8"?>
<svg xmlns="http://www.w3.org/2000/svg" xmlns:xlink="http://www.w3.org/1999/xlink" width="600" height="400" viewBox="0 0 2400 1600">
<defs>
  <clipPath id="clip370">
    <rect x="0" y="0" width="2400" height="1600"/>
  </clipPath>
</defs>
<path clip-path="url(#clip370)" d="
M0 1600 L2400 1600 L2400 0 L0 0  Z
  " fill="#ffffff" fill-rule="evenodd" fill-opacity="1"/>
<defs>
  <clipPath id="clip371">
    <rect x="480" y="0" width="1681" height="1600"/>
  </clipPath>
</defs>
<defs>
  <clipPath id="clip372">
    <rect x="269" y="47" width="2084" height="1377"/>
  </clipPath>
</defs>
<path clip-path="url(#clip370)" d="
M269.265 1423.18 L2352.76 1423.18 L2352.76 47.2441 L269.265 47.2441  Z
  " fill="#ffffff" fill-rule="evenodd" fill-opacity="1"/>
<polyline clip-path="url(#clip370)" style="stroke:#000000; stroke-linecap:butt; stroke-linejoin:round; stroke-width:4; stroke-opacity:1; fill:none" points="
  269.265,1423.18 2352.76,1423.18 
  "/>
<polyline clip-path="url(#clip370)" style="stroke:#000000; stroke-linecap:butt; stroke-linejoin:round; stroke-width:4; stroke-opacity:1; fill:none" points="
  306.392,1423.18 306.392,1404.28 
  "/>
<polyline clip-path="url(#clip370)" style="stroke:#000000; stroke-linecap:butt; stroke-linejoin:round; stroke-width:4; stroke-opacity:1; fill:none" points="
  743.183,1423.18 743.183,1404.28 
  "/>
<polyline clip-path="url(#clip370)" style="stroke:#000000; stroke-linecap:butt; stroke-linejoin:round; stroke-width:4; stroke-opacity:1; fill:none" points="
  1179.97,1423.18 1179.97,1404.28 
  "/>
<polyline clip-path="url(#clip370)" style="stroke:#000000; stroke-linecap:butt; stroke-linejoin:round; stroke-width:4; stroke-opacity:1; fill:none" points="
  1616.76,1423.18 1616.76,1404.28 
  "/>
<polyline clip-path="url(#clip370)" style="stroke:#000000; stroke-linecap:butt; stroke-linejoin:round; stroke-width:4; stroke-opacity:1; fill:none" points="
  2053.55,1423.18 2053.55,1404.28 
  "/>
<path clip-path="url(#clip370)" d="M306.392 1452.37 Q302.781 1452.37 300.952 1455.94 Q299.147 1459.48 299.147 1466.61 Q299.147 1473.71 300.952 1477.28 Q302.781 1480.82 306.392 1480.82 Q310.026 1480.82 311.832 1477.28 Q313.66 1473.71 313.66 1466.61 Q313.66 1459.48 311.832 1455.94 Q310.026 1452.37 306.392 1452.37 M306.392 1448.67 Q312.202 1448.67 315.258 1453.27 Q318.336 1457.86 318.336 1466.61 Q318.336 1475.33 315.258 1479.94 Q312.202 1484.52 306.392 1484.52 Q300.582 1484.52 297.503 1479.94 Q294.448 1475.33 294.448 1466.61 Q294.448 1457.86 297.503 1453.27 Q300.582 1448.67 306.392 1448.67 Z" fill="#000000" fill-rule="evenodd" fill-opacity="1" /><path clip-path="url(#clip370)" d="M721.956 1479.92 L738.275 1479.92 L738.275 1483.85 L716.331 1483.85 L716.331 1479.92 Q718.993 1477.16 723.576 1472.53 Q728.183 1467.88 729.363 1466.54 Q731.609 1464.01 732.488 1462.28 Q733.391 1460.52 733.391 1458.83 Q733.391 1456.07 731.446 1454.34 Q729.525 1452.6 726.423 1452.6 Q724.224 1452.6 721.771 1453.37 Q719.34 1454.13 716.562 1455.68 L716.562 1450.96 Q719.386 1449.82 721.84 1449.25 Q724.294 1448.67 726.331 1448.67 Q731.701 1448.67 734.896 1451.35 Q738.09 1454.04 738.09 1458.53 Q738.09 1460.66 737.28 1462.58 Q736.493 1464.48 734.386 1467.07 Q733.808 1467.74 730.706 1470.96 Q727.604 1474.15 721.956 1479.92 Z" fill="#000000" fill-rule="evenodd" fill-opacity="1" /><path clip-path="url(#clip370)" d="M758.09 1452.37 Q754.479 1452.37 752.65 1455.94 Q750.845 1459.48 750.845 1466.61 Q750.845 1473.71 752.65 1477.28 Q754.479 1480.82 758.09 1480.82 Q761.724 1480.82 763.53 1477.28 Q765.358 1473.71 765.358 1466.61 Q765.358 1459.48 763.53 1455.94 Q761.724 1452.37 758.09 1452.37 M758.09 1448.67 Q763.9 1448.67 766.956 1453.27 Q770.034 1457.86 770.034 1466.61 Q770.034 1475.33 766.956 1479.94 Q763.9 1484.52 758.09 1484.52 Q752.28 1484.52 749.201 1479.94 Q746.145 1475.33 746.145 1466.61 Q746.145 1457.86 749.201 1453.27 Q752.28 1448.67 758.09 1448.67 Z" fill="#000000" fill-rule="evenodd" fill-opacity="1" /><path clip-path="url(#clip370)" d="M1168.14 1453.37 L1156.34 1471.81 L1168.14 1471.81 L1168.14 1453.37 M1166.92 1449.29 L1172.8 1449.29 L1172.8 1471.81 L1177.73 1471.81 L1177.73 1475.7 L1172.8 1475.7 L1172.8 1483.85 L1168.14 1483.85 L1168.14 1475.7 L1152.54 1475.7 L1152.54 1471.19 L1166.92 1449.29 Z" fill="#000000" fill-rule="evenodd" fill-opacity="1" /><path clip-path="url(#clip370)" d="M1195.46 1452.37 Q1191.85 1452.37 1190.02 1455.94 Q1188.21 1459.48 1188.21 1466.61 Q1188.21 1473.71 1190.02 1477.28 Q1191.85 1480.82 1195.46 1480.82 Q1199.09 1480.82 1200.9 1477.28 Q1202.73 1473.71 1202.73 1466.61 Q1202.73 1459.48 1200.9 1455.94 Q1199.09 1452.37 1195.46 1452.37 M1195.46 1448.67 Q1201.27 1448.67 1204.32 1453.27 Q1207.4 1457.86 1207.4 1466.61 Q1207.4 1475.33 1204.32 1479.94 Q1201.27 1484.52 1195.46 1484.52 Q1189.65 1484.52 1186.57 1479.94 Q1183.51 1475.33 1183.51 1466.61 Q1183.51 1457.86 1186.57 1453.27 Q1189.65 1448.67 1195.46 1448.67 Z" fill="#000000" fill-rule="evenodd" fill-opacity="1" /><path clip-path="url(#clip370)" d="M1602.17 1464.71 Q1599.02 1464.71 1597.17 1466.86 Q1595.34 1469.01 1595.34 1472.76 Q1595.34 1476.49 1597.17 1478.67 Q1599.02 1480.82 1602.17 1480.82 Q1605.32 1480.82 1607.15 1478.67 Q1609 1476.49 1609 1472.76 Q1609 1469.01 1607.15 1466.86 Q1605.32 1464.71 1602.17 1464.71 M1611.45 1450.06 L1611.45 1454.31 Q1609.69 1453.48 1607.89 1453.04 Q1606.1 1452.6 1604.34 1452.6 Q1599.72 1452.6 1597.26 1455.73 Q1594.83 1458.85 1594.48 1465.17 Q1595.85 1463.16 1597.91 1462.09 Q1599.97 1461 1602.45 1461 Q1607.65 1461 1610.66 1464.18 Q1613.7 1467.32 1613.7 1472.76 Q1613.7 1478.09 1610.55 1481.31 Q1607.4 1484.52 1602.17 1484.52 Q1596.17 1484.52 1593 1479.94 Q1589.83 1475.33 1589.83 1466.61 Q1589.83 1458.41 1593.72 1453.55 Q1597.61 1448.67 1604.16 1448.67 Q1605.92 1448.67 1607.7 1449.01 Q1609.51 1449.36 1611.45 1450.06 Z" fill="#000000" fill-rule="evenodd" fill-opacity="1" /><path clip-path="url(#clip370)" d="M1631.75 1452.37 Q1628.14 1452.37 1626.31 1455.94 Q1624.51 1459.48 1624.51 1466.61 Q1624.51 1473.71 1626.31 1477.28 Q1628.14 1480.82 1631.75 1480.82 Q1635.39 1480.82 1637.19 1477.28 Q1639.02 1473.71 1639.02 1466.61 Q1639.02 1459.48 1637.19 1455.94 Q1635.39 1452.37 1631.75 1452.37 M1631.75 1448.67 Q1637.56 1448.67 1640.62 1453.27 Q1643.7 1457.86 1643.7 1466.61 Q1643.7 1475.33 1640.62 1479.94 Q1637.56 1484.52 1631.75 1484.52 Q1625.94 1484.52 1622.86 1479.94 Q1619.81 1475.33 1619.81 1466.61 Q1619.81 1457.86 1622.86 1453.27 Q1625.94 1448.67 1631.75 1448.67 Z" fill="#000000" fill-rule="evenodd" fill-opacity="1" /><path clip-path="url(#clip370)" d="M2038.43 1467.44 Q2035.09 1467.44 2033.17 1469.22 Q2031.27 1471 2031.27 1474.13 Q2031.27 1477.25 2033.17 1479.04 Q2035.09 1480.82 2038.43 1480.82 Q2041.76 1480.82 2043.68 1479.04 Q2045.6 1477.23 2045.6 1474.13 Q2045.6 1471 2043.68 1469.22 Q2041.78 1467.44 2038.43 1467.44 M2033.75 1465.45 Q2030.74 1464.71 2029.05 1462.65 Q2027.39 1460.59 2027.39 1457.63 Q2027.39 1453.48 2030.33 1451.07 Q2033.29 1448.67 2038.43 1448.67 Q2043.59 1448.67 2046.53 1451.07 Q2049.47 1453.48 2049.47 1457.63 Q2049.47 1460.59 2047.78 1462.65 Q2046.11 1464.71 2043.13 1465.45 Q2046.51 1466.24 2048.38 1468.53 Q2050.28 1470.82 2050.28 1474.13 Q2050.28 1479.15 2047.2 1481.84 Q2044.14 1484.52 2038.43 1484.52 Q2032.71 1484.52 2029.63 1481.84 Q2026.58 1479.15 2026.58 1474.13 Q2026.58 1470.82 2028.47 1468.53 Q2030.37 1466.24 2033.75 1465.45 M2032.04 1458.06 Q2032.04 1460.75 2033.7 1462.25 Q2035.39 1463.76 2038.43 1463.76 Q2041.44 1463.76 2043.13 1462.25 Q2044.84 1460.75 2044.84 1458.06 Q2044.84 1455.38 2043.13 1453.88 Q2041.44 1452.37 2038.43 1452.37 Q2035.39 1452.37 2033.7 1453.88 Q2032.04 1455.38 2032.04 1458.06 Z" fill="#000000" fill-rule="evenodd" fill-opacity="1" /><path clip-path="url(#clip370)" d="M2068.59 1452.37 Q2064.98 1452.37 2063.15 1455.94 Q2061.34 1459.48 2061.34 1466.61 Q2061.34 1473.71 2063.15 1477.28 Q2064.98 1480.82 2068.59 1480.82 Q2072.22 1480.82 2074.03 1477.28 Q2075.86 1473.71 2075.86 1466.61 Q2075.86 1459.48 2074.03 1455.94 Q2072.22 1452.37 2068.59 1452.37 M2068.59 1448.67 Q2074.4 1448.67 2077.45 1453.27 Q2080.53 1457.86 2080.53 1466.61 Q2080.53 1475.33 2077.45 1479.94 Q2074.4 1484.52 2068.59 1484.52 Q2062.78 1484.52 2059.7 1479.94 Q2056.64 1475.33 2056.64 1466.61 Q2056.64 1457.86 2059.7 1453.27 Q2062.78 1448.67 2068.59 1448.67 Z" fill="#000000" fill-rule="evenodd" fill-opacity="1" /><path clip-path="url(#clip370)" d="M1034.31 1520.52 L1042.97 1520.52 L1064.04 1560.28 L1064.04 1520.52 L1070.28 1520.52 L1070.28 1568.04 L1061.62 1568.04 L1040.55 1528.29 L1040.55 1568.04 L1034.31 1568.04 L1034.31 1520.52 Z" fill="#000000" fill-rule="evenodd" fill-opacity="1" /><path clip-path="url(#clip370)" d="M1082.21 1553.98 L1082.21 1532.4 L1088.07 1532.4 L1088.07 1553.75 Q1088.07 1558.81 1090.04 1561.36 Q1092.01 1563.87 1095.96 1563.87 Q1100.7 1563.87 1103.44 1560.85 Q1106.21 1557.83 1106.21 1552.61 L1106.21 1532.4 L1112.07 1532.4 L1112.07 1568.04 L1106.21 1568.04 L1106.21 1562.57 Q1104.08 1565.82 1101.24 1567.41 Q1098.44 1568.97 1094.72 1568.97 Q1088.58 1568.97 1085.39 1565.15 Q1082.21 1561.33 1082.21 1553.98 M1096.95 1531.54 L1096.95 1531.54 Z" fill="#000000" fill-rule="evenodd" fill-opacity="1" /><path clip-path="url(#clip370)" d="M1151.88 1539.24 Q1154.08 1535.29 1157.14 1533.41 Q1160.19 1531.54 1164.33 1531.54 Q1169.9 1531.54 1172.92 1535.45 Q1175.95 1539.33 1175.95 1546.53 L1175.95 1568.04 L1170.06 1568.04 L1170.06 1546.72 Q1170.06 1541.59 1168.24 1539.11 Q1166.43 1536.63 1162.71 1536.63 Q1158.15 1536.63 1155.51 1539.65 Q1152.87 1542.68 1152.87 1547.9 L1152.87 1568.04 L1146.98 1568.04 L1146.98 1546.72 Q1146.98 1541.56 1145.17 1539.11 Q1143.35 1536.63 1139.57 1536.63 Q1135.08 1536.63 1132.44 1539.68 Q1129.79 1542.71 1129.79 1547.9 L1129.79 1568.04 L1123.91 1568.04 L1123.91 1532.4 L1129.79 1532.4 L1129.79 1537.93 Q1131.8 1534.66 1134.6 1533.1 Q1137.4 1531.54 1141.25 1531.54 Q1145.14 1531.54 1147.84 1533.51 Q1150.58 1535.48 1151.88 1539.24 Z" fill="#000000" fill-rule="evenodd" fill-opacity="1" /><path clip-path="url(#clip370)" d="M1213.22 1550.25 Q1213.22 1543.79 1210.54 1540.13 Q1207.9 1536.44 1203.25 1536.44 Q1198.61 1536.44 1195.93 1540.13 Q1193.29 1543.79 1193.29 1550.25 Q1193.29 1556.71 1195.93 1560.4 Q1198.61 1564.07 1203.25 1564.07 Q1207.9 1564.07 1210.54 1560.4 Q1213.22 1556.71 1213.22 1550.25 M1193.29 1537.81 Q1195.14 1534.62 1197.94 1533.1 Q1200.77 1531.54 1204.69 1531.54 Q1211.18 1531.54 1215.22 1536.69 Q1219.3 1541.85 1219.3 1550.25 Q1219.3 1558.65 1215.22 1563.81 Q1211.18 1568.97 1204.69 1568.97 Q1200.77 1568.97 1197.94 1567.44 Q1195.14 1565.88 1193.29 1562.7 L1193.29 1568.04 L1187.4 1568.04 L1187.4 1518.52 L1193.29 1518.52 L1193.29 1537.81 Z" fill="#000000" fill-rule="evenodd" fill-opacity="1" /><path clip-path="url(#clip370)" d="M1259.5 1548.76 L1259.5 1551.62 L1232.57 1551.62 Q1232.95 1557.67 1236.2 1560.85 Q1239.48 1564 1245.3 1564 Q1248.67 1564 1251.83 1563.17 Q1255.01 1562.35 1258.13 1560.69 L1258.13 1566.23 Q1254.98 1567.57 1251.67 1568.27 Q1248.36 1568.97 1244.95 1568.97 Q1236.42 1568.97 1231.42 1564 Q1226.46 1559.04 1226.46 1550.57 Q1226.46 1541.82 1231.17 1536.69 Q1235.91 1531.54 1243.93 1531.54 Q1251.12 1531.54 1255.29 1536.18 Q1259.5 1540.8 1259.5 1548.76 M1253.64 1547.04 Q1253.58 1542.23 1250.93 1539.37 Q1248.32 1536.5 1244 1536.5 Q1239.09 1536.5 1236.13 1539.27 Q1233.21 1542.04 1232.76 1547.07 L1253.64 1547.04 Z" fill="#000000" fill-rule="evenodd" fill-opacity="1" /><path clip-path="url(#clip370)" d="M1289.76 1537.87 Q1288.78 1537.3 1287.6 1537.04 Q1286.45 1536.76 1285.05 1536.76 Q1280.09 1536.76 1277.42 1540 Q1274.77 1543.22 1274.77 1549.27 L1274.77 1568.04 L1268.89 1568.04 L1268.89 1532.4 L1274.77 1532.4 L1274.77 1537.93 Q1276.62 1534.69 1279.58 1533.13 Q1282.54 1531.54 1286.77 1531.54 Q1287.38 1531.54 1288.11 1531.63 Q1288.84 1531.7 1289.73 1531.85 L1289.76 1537.87 Z" fill="#000000" fill-rule="evenodd" fill-opacity="1" /><path clip-path="url(#clip370)" d="M1330.44 1536.5 Q1325.73 1536.5 1322.99 1540.19 Q1320.26 1543.85 1320.26 1550.25 Q1320.26 1556.65 1322.96 1560.34 Q1325.7 1564 1330.44 1564 Q1335.12 1564 1337.86 1560.31 Q1340.59 1556.62 1340.59 1550.25 Q1340.59 1543.92 1337.86 1540.23 Q1335.12 1536.5 1330.44 1536.5 M1330.44 1531.54 Q1338.08 1531.54 1342.44 1536.5 Q1346.8 1541.47 1346.8 1550.25 Q1346.8 1559 1342.44 1564 Q1338.08 1568.97 1330.44 1568.97 Q1322.77 1568.97 1318.41 1564 Q1314.08 1559 1314.08 1550.25 Q1314.08 1541.47 1318.41 1536.5 Q1322.77 1531.54 1330.44 1531.54 Z" fill="#000000" fill-rule="evenodd" fill-opacity="1" /><path clip-path="url(#clip370)" d="M1374.56 1518.52 L1374.56 1523.39 L1368.95 1523.39 Q1365.8 1523.39 1364.56 1524.66 Q1363.35 1525.93 1363.35 1529.24 L1363.35 1532.4 L1373 1532.4 L1373 1536.95 L1363.35 1536.95 L1363.35 1568.04 L1357.46 1568.04 L1357.46 1536.95 L1351.86 1536.95 L1351.86 1532.4 L1357.46 1532.4 L1357.46 1529.91 Q1357.46 1523.96 1360.23 1521.26 Q1363 1518.52 1369.02 1518.52 L1374.56 1518.52 Z" fill="#000000" fill-rule="evenodd" fill-opacity="1" /><path clip-path="url(#clip370)" d="M1423.64 1549.81 Q1423.64 1543.44 1420.99 1539.94 Q1418.38 1536.44 1413.64 1536.44 Q1408.93 1536.44 1406.29 1539.94 Q1403.68 1543.44 1403.68 1549.81 Q1403.68 1556.14 1406.29 1559.64 Q1408.93 1563.14 1413.64 1563.14 Q1418.38 1563.14 1420.99 1559.64 Q1423.64 1556.14 1423.64 1549.81 M1429.49 1563.62 Q1429.49 1572.72 1425.45 1577.15 Q1421.41 1581.6 1413.07 1581.6 Q1409.98 1581.6 1407.24 1581.13 Q1404.51 1580.68 1401.93 1579.72 L1401.93 1574.03 Q1404.51 1575.43 1407.02 1576.1 Q1409.54 1576.76 1412.15 1576.76 Q1417.91 1576.76 1420.77 1573.74 Q1423.64 1570.75 1423.64 1564.67 L1423.64 1561.77 Q1421.82 1564.92 1418.99 1566.48 Q1416.16 1568.04 1412.21 1568.04 Q1405.65 1568.04 1401.64 1563.05 Q1397.63 1558.05 1397.63 1549.81 Q1397.63 1541.53 1401.64 1536.53 Q1405.65 1531.54 1412.21 1531.54 Q1416.16 1531.54 1418.99 1533.1 Q1421.82 1534.66 1423.64 1537.81 L1423.64 1532.4 L1429.49 1532.4 L1429.49 1563.62 Z" fill="#000000" fill-rule="evenodd" fill-opacity="1" /><path clip-path="url(#clip370)" d="M1472.05 1548.76 L1472.05 1551.62 L1445.12 1551.62 Q1445.5 1557.67 1448.75 1560.85 Q1452.03 1564 1457.85 1564 Q1461.23 1564 1464.38 1563.17 Q1467.56 1562.35 1470.68 1560.69 L1470.68 1566.23 Q1467.53 1567.57 1464.22 1568.27 Q1460.91 1568.97 1457.5 1568.97 Q1448.97 1568.97 1443.97 1564 Q1439.01 1559.04 1439.01 1550.57 Q1439.01 1541.82 1443.72 1536.69 Q1448.46 1531.54 1456.48 1531.54 Q1463.68 1531.54 1467.85 1536.18 Q1472.05 1540.8 1472.05 1548.76 M1466.19 1547.04 Q1466.13 1542.23 1463.48 1539.37 Q1460.87 1536.5 1456.55 1536.5 Q1451.64 1536.5 1448.68 1539.27 Q1445.76 1542.04 1445.31 1547.07 L1466.19 1547.04 Z" fill="#000000" fill-rule="evenodd" fill-opacity="1" /><path clip-path="url(#clip370)" d="M1511.29 1546.53 L1511.29 1568.04 L1505.43 1568.04 L1505.43 1546.72 Q1505.43 1541.66 1503.46 1539.14 Q1501.49 1536.63 1497.54 1536.63 Q1492.8 1536.63 1490.06 1539.65 Q1487.32 1542.68 1487.32 1547.9 L1487.32 1568.04 L1481.44 1568.04 L1481.44 1532.4 L1487.32 1532.4 L1487.32 1537.93 Q1489.43 1534.72 1492.26 1533.13 Q1495.12 1531.54 1498.85 1531.54 Q1504.99 1531.54 1508.14 1535.36 Q1511.29 1539.14 1511.29 1546.53 Z" fill="#000000" fill-rule="evenodd" fill-opacity="1" /><path clip-path="url(#clip370)" d="M1553.46 1548.76 L1553.46 1551.62 L1526.54 1551.62 Q1526.92 1557.67 1530.17 1560.85 Q1533.44 1564 1539.27 1564 Q1542.64 1564 1545.79 1563.17 Q1548.98 1562.35 1552.1 1560.69 L1552.1 1566.23 Q1548.94 1567.57 1545.63 1568.27 Q1542.32 1568.97 1538.92 1568.97 Q1530.39 1568.97 1525.39 1564 Q1520.43 1559.04 1520.43 1550.57 Q1520.43 1541.82 1525.14 1536.69 Q1529.88 1531.54 1537.9 1531.54 Q1545.09 1531.54 1549.26 1536.18 Q1553.46 1540.8 1553.46 1548.76 M1547.61 1547.04 Q1547.54 1542.23 1544.9 1539.37 Q1542.29 1536.5 1537.96 1536.5 Q1533.06 1536.5 1530.1 1539.27 Q1527.17 1542.04 1526.73 1547.07 L1547.61 1547.04 Z" fill="#000000" fill-rule="evenodd" fill-opacity="1" /><path clip-path="url(#clip370)" d="M1585.8 1533.45 L1585.8 1538.98 Q1583.32 1537.71 1580.65 1537.07 Q1577.97 1536.44 1575.11 1536.44 Q1570.75 1536.44 1568.55 1537.77 Q1566.39 1539.11 1566.39 1541.79 Q1566.39 1543.82 1567.95 1545 Q1569.51 1546.15 1574.22 1547.2 L1576.22 1547.64 Q1582.46 1548.98 1585.07 1551.43 Q1587.71 1553.85 1587.71 1558.21 Q1587.71 1563.17 1583.76 1566.07 Q1579.85 1568.97 1572.98 1568.97 Q1570.11 1568.97 1566.99 1568.39 Q1563.9 1567.85 1560.47 1566.74 L1560.47 1560.69 Q1563.71 1562.38 1566.86 1563.24 Q1570.02 1564.07 1573.1 1564.07 Q1577.24 1564.07 1579.47 1562.66 Q1581.7 1561.23 1581.7 1558.65 Q1581.7 1556.27 1580.07 1554.99 Q1578.48 1553.72 1573.04 1552.54 L1571 1552.07 Q1565.56 1550.92 1563.14 1548.56 Q1560.72 1546.18 1560.72 1542.04 Q1560.72 1537.01 1564.29 1534.27 Q1567.85 1531.54 1574.41 1531.54 Q1577.65 1531.54 1580.52 1532.01 Q1583.38 1532.49 1585.8 1533.45 Z" fill="#000000" fill-rule="evenodd" fill-opacity="1" /><polyline clip-path="url(#clip370)" style="stroke:#000000; stroke-linecap:butt; stroke-linejoin:round; stroke-width:4; stroke-opacity:1; fill:none" points="
  269.265,1423.18 269.265,47.2441 
  "/>
<polyline clip-path="url(#clip370)" style="stroke:#000000; stroke-linecap:butt; stroke-linejoin:round; stroke-width:4; stroke-opacity:1; fill:none" points="
  269.265,1283.12 288.162,1283.12 
  "/>
<polyline clip-path="url(#clip370)" style="stroke:#000000; stroke-linecap:butt; stroke-linejoin:round; stroke-width:4; stroke-opacity:1; fill:none" points="
  269.265,871.848 288.162,871.848 
  "/>
<polyline clip-path="url(#clip370)" style="stroke:#000000; stroke-linecap:butt; stroke-linejoin:round; stroke-width:4; stroke-opacity:1; fill:none" points="
  269.265,460.58 288.162,460.58 
  "/>
<polyline clip-path="url(#clip370)" style="stroke:#000000; stroke-linecap:butt; stroke-linejoin:round; stroke-width:4; stroke-opacity:1; fill:none" points="
  269.265,49.3111 288.162,49.3111 
  "/>
<path clip-path="url(#clip370)" d="M146.02 1268.92 Q142.409 1268.92 140.58 1272.48 Q138.775 1276.02 138.775 1283.15 Q138.775 1290.26 140.58 1293.82 Q142.409 1297.36 146.02 1297.36 Q149.654 1297.36 151.46 1293.82 Q153.288 1290.26 153.288 1283.15 Q153.288 1276.02 151.46 1272.48 Q149.654 1268.92 146.02 1268.92 M146.02 1265.21 Q151.83 1265.21 154.886 1269.82 Q157.964 1274.4 157.964 1283.15 Q157.964 1291.88 154.886 1296.48 Q151.83 1301.07 146.02 1301.07 Q140.21 1301.07 137.131 1296.48 Q134.075 1291.88 134.075 1283.15 Q134.075 1274.4 137.131 1269.82 Q140.21 1265.21 146.02 1265.21 Z" fill="#000000" fill-rule="evenodd" fill-opacity="1" /><path clip-path="url(#clip370)" d="M166.182 1294.52 L171.066 1294.52 L171.066 1300.4 L166.182 1300.4 L166.182 1294.52 Z" fill="#000000" fill-rule="evenodd" fill-opacity="1" /><path clip-path="url(#clip370)" d="M191.251 1268.92 Q187.64 1268.92 185.811 1272.48 Q184.006 1276.02 184.006 1283.15 Q184.006 1290.26 185.811 1293.82 Q187.64 1297.36 191.251 1297.36 Q194.885 1297.36 196.691 1293.82 Q198.52 1290.26 198.52 1283.15 Q198.52 1276.02 196.691 1272.48 Q194.885 1268.92 191.251 1268.92 M191.251 1265.21 Q197.061 1265.21 200.117 1269.82 Q203.195 1274.4 203.195 1283.15 Q203.195 1291.88 200.117 1296.48 Q197.061 1301.07 191.251 1301.07 Q185.441 1301.07 182.362 1296.48 Q179.307 1291.88 179.307 1283.15 Q179.307 1274.4 182.362 1269.82 Q185.441 1265.21 191.251 1265.21 Z" fill="#000000" fill-rule="evenodd" fill-opacity="1" /><path clip-path="url(#clip370)" d="M221.413 1283.98 Q218.08 1283.98 216.158 1285.77 Q214.26 1287.55 214.26 1290.67 Q214.26 1293.8 216.158 1295.58 Q218.08 1297.36 221.413 1297.36 Q224.746 1297.36 226.668 1295.58 Q228.589 1293.78 228.589 1290.67 Q228.589 1287.55 226.668 1285.77 Q224.769 1283.98 221.413 1283.98 M216.737 1281.99 Q213.728 1281.25 212.038 1279.19 Q210.371 1277.13 210.371 1274.17 Q210.371 1270.03 213.311 1267.62 Q216.274 1265.21 221.413 1265.21 Q226.575 1265.21 229.515 1267.62 Q232.455 1270.03 232.455 1274.17 Q232.455 1277.13 230.765 1279.19 Q229.098 1281.25 226.112 1281.99 Q229.492 1282.78 231.367 1285.07 Q233.265 1287.36 233.265 1290.67 Q233.265 1295.7 230.186 1298.38 Q227.131 1301.07 221.413 1301.07 Q215.695 1301.07 212.617 1298.38 Q209.561 1295.7 209.561 1290.67 Q209.561 1287.36 211.459 1285.07 Q213.357 1282.78 216.737 1281.99 M215.024 1274.61 Q215.024 1277.29 216.691 1278.8 Q218.381 1280.3 221.413 1280.3 Q224.422 1280.3 226.112 1278.8 Q227.825 1277.29 227.825 1274.61 Q227.825 1271.92 226.112 1270.42 Q224.422 1268.92 221.413 1268.92 Q218.381 1268.92 216.691 1270.42 Q215.024 1271.92 215.024 1274.61 Z" fill="#000000" fill-rule="evenodd" fill-opacity="1" /><path clip-path="url(#clip370)" d="M146.112 857.647 Q142.501 857.647 140.673 861.212 Q138.867 864.753 138.867 871.883 Q138.867 878.989 140.673 882.554 Q142.501 886.096 146.112 886.096 Q149.747 886.096 151.552 882.554 Q153.381 878.989 153.381 871.883 Q153.381 864.753 151.552 861.212 Q149.747 857.647 146.112 857.647 M146.112 853.943 Q151.923 853.943 154.978 858.55 Q158.057 863.133 158.057 871.883 Q158.057 880.61 154.978 885.216 Q151.923 889.799 146.112 889.799 Q140.302 889.799 137.224 885.216 Q134.168 880.61 134.168 871.883 Q134.168 863.133 137.224 858.55 Q140.302 853.943 146.112 853.943 Z" fill="#000000" fill-rule="evenodd" fill-opacity="1" /><path clip-path="url(#clip370)" d="M166.274 883.249 L171.159 883.249 L171.159 889.128 L166.274 889.128 L166.274 883.249 Z" fill="#000000" fill-rule="evenodd" fill-opacity="1" /><path clip-path="url(#clip370)" d="M191.344 857.647 Q187.733 857.647 185.904 861.212 Q184.098 864.753 184.098 871.883 Q184.098 878.989 185.904 882.554 Q187.733 886.096 191.344 886.096 Q194.978 886.096 196.783 882.554 Q198.612 878.989 198.612 871.883 Q198.612 864.753 196.783 861.212 Q194.978 857.647 191.344 857.647 M191.344 853.943 Q197.154 853.943 200.209 858.55 Q203.288 863.133 203.288 871.883 Q203.288 880.61 200.209 885.216 Q197.154 889.799 191.344 889.799 Q185.534 889.799 182.455 885.216 Q179.399 880.61 179.399 871.883 Q179.399 863.133 182.455 858.55 Q185.534 853.943 191.344 853.943 Z" fill="#000000" fill-rule="evenodd" fill-opacity="1" /><path clip-path="url(#clip370)" d="M211.644 888.411 L211.644 884.151 Q213.404 884.985 215.209 885.424 Q217.015 885.864 218.751 885.864 Q223.381 885.864 225.811 882.762 Q228.265 879.637 228.612 873.295 Q227.269 875.286 225.209 876.35 Q223.149 877.415 220.649 877.415 Q215.464 877.415 212.432 874.29 Q209.422 871.142 209.422 865.702 Q209.422 860.378 212.57 857.161 Q215.719 853.943 220.95 853.943 Q226.945 853.943 230.093 858.55 Q233.265 863.133 233.265 871.883 Q233.265 880.054 229.376 884.938 Q225.51 889.799 218.959 889.799 Q217.2 889.799 215.394 889.452 Q213.589 889.105 211.644 888.411 M220.95 873.758 Q224.098 873.758 225.927 871.605 Q227.779 869.452 227.779 865.702 Q227.779 861.976 225.927 859.823 Q224.098 857.647 220.95 857.647 Q217.802 857.647 215.95 859.823 Q214.121 861.976 214.121 865.702 Q214.121 869.452 215.95 871.605 Q217.802 873.758 220.95 873.758 Z" fill="#000000" fill-rule="evenodd" fill-opacity="1" /><path clip-path="url(#clip370)" d="M145.927 446.378 Q142.316 446.378 140.487 449.943 Q138.682 453.485 138.682 460.614 Q138.682 467.721 140.487 471.286 Q142.316 474.827 145.927 474.827 Q149.561 474.827 151.367 471.286 Q153.196 467.721 153.196 460.614 Q153.196 453.485 151.367 449.943 Q149.561 446.378 145.927 446.378 M145.927 442.675 Q151.737 442.675 154.793 447.281 Q157.872 451.864 157.872 460.614 Q157.872 469.341 154.793 473.948 Q151.737 478.531 145.927 478.531 Q140.117 478.531 137.038 473.948 Q133.983 469.341 133.983 460.614 Q133.983 451.864 137.038 447.281 Q140.117 442.675 145.927 442.675 Z" fill="#000000" fill-rule="evenodd" fill-opacity="1" /><path clip-path="url(#clip370)" d="M166.089 471.98 L170.973 471.98 L170.973 477.86 L166.089 477.86 L166.089 471.98 Z" fill="#000000" fill-rule="evenodd" fill-opacity="1" /><path clip-path="url(#clip370)" d="M181.969 473.924 L189.608 473.924 L189.608 447.559 L181.297 449.226 L181.297 444.966 L189.561 443.3 L194.237 443.3 L194.237 473.924 L201.876 473.924 L201.876 477.86 L181.969 477.86 L181.969 473.924 Z" fill="#000000" fill-rule="evenodd" fill-opacity="1" /><path clip-path="url(#clip370)" d="M221.32 446.378 Q217.709 446.378 215.881 449.943 Q214.075 453.485 214.075 460.614 Q214.075 467.721 215.881 471.286 Q217.709 474.827 221.32 474.827 Q224.955 474.827 226.76 471.286 Q228.589 467.721 228.589 460.614 Q228.589 453.485 226.76 449.943 Q224.955 446.378 221.32 446.378 M221.32 442.675 Q227.131 442.675 230.186 447.281 Q233.265 451.864 233.265 460.614 Q233.265 469.341 230.186 473.948 Q227.131 478.531 221.32 478.531 Q215.51 478.531 212.432 473.948 Q209.376 469.341 209.376 460.614 Q209.376 451.864 212.432 447.281 Q215.51 442.675 221.32 442.675 Z" fill="#000000" fill-rule="evenodd" fill-opacity="1" /><path clip-path="url(#clip370)" d="M147.154 35.1098 Q143.543 35.1098 141.714 38.6746 Q139.909 42.2162 139.909 49.3458 Q139.909 56.4523 141.714 60.0171 Q143.543 63.5587 147.154 63.5587 Q150.788 63.5587 152.594 60.0171 Q154.423 56.4523 154.423 49.3458 Q154.423 42.2162 152.594 38.6746 Q150.788 35.1098 147.154 35.1098 M147.154 31.4061 Q152.964 31.4061 156.02 36.0126 Q159.098 40.5959 159.098 49.3458 Q159.098 58.0726 156.02 62.6791 Q152.964 67.2624 147.154 67.2624 Q141.344 67.2624 138.265 62.6791 Q135.21 58.0726 135.21 49.3458 Q135.21 40.5959 138.265 36.0126 Q141.344 31.4061 147.154 31.4061 Z" fill="#000000" fill-rule="evenodd" fill-opacity="1" /><path clip-path="url(#clip370)" d="M167.316 60.7115 L172.2 60.7115 L172.2 66.5911 L167.316 66.5911 L167.316 60.7115 Z" fill="#000000" fill-rule="evenodd" fill-opacity="1" /><path clip-path="url(#clip370)" d="M183.196 62.656 L190.834 62.656 L190.834 36.2904 L182.524 37.957 L182.524 33.6978 L190.788 32.0311 L195.464 32.0311 L195.464 62.656 L203.103 62.656 L203.103 66.5911 L183.196 66.5911 L183.196 62.656 Z" fill="#000000" fill-rule="evenodd" fill-opacity="1" /><path clip-path="url(#clip370)" d="M213.357 62.656 L220.996 62.656 L220.996 36.2904 L212.686 37.957 L212.686 33.6978 L220.95 32.0311 L225.626 32.0311 L225.626 62.656 L233.265 62.656 L233.265 66.5911 L213.357 66.5911 L213.357 62.656 Z" fill="#000000" fill-rule="evenodd" fill-opacity="1" /><path clip-path="url(#clip370)" d="M44.0232 922.599 L55.424 923.92 Q56.4546 924.016 56.7767 924.177 Q57.0665 924.338 57.0665 924.854 Q57.0665 925.627 56.2936 925.627 Q55.9715 925.627 55.102 925.498 Q53.3307 925.305 51.5271 925.305 Q49.4982 925.305 48.2421 925.691 Q46.9539 926.045 46.0199 927.076 Q45.086 928.106 44.6995 930.007 Q44.2808 931.907 44.2808 934.934 L44.2808 943.63 Q44.2808 945.755 44.6673 946.271 Q45.0537 946.754 46.8573 947.205 L63.6043 951.423 L63.6043 945.433 Q63.6043 941.246 62.3805 939.604 Q61.1567 937.961 57.2598 936.931 Q56.6479 936.77 56.4224 936.705 Q56.1648 936.609 56.0359 936.448 Q55.8749 936.255 55.8749 935.932 Q55.8749 935.643 56.0682 935.449 Q56.2292 935.256 56.4224 935.192 L56.6157 935.127 Q56.9377 935.127 57.6784 935.321 L71.9778 938.96 Q72.944 939.217 73.1695 939.378 Q73.3627 939.507 73.3627 939.958 Q73.3627 940.28 73.1373 940.506 Q72.9118 940.731 72.5576 940.731 Q72.1711 940.667 71.849 940.538 Q69.8845 940.087 68.6284 940.087 Q67.8233 940.087 67.3402 940.248 Q66.8571 940.409 66.4384 940.957 Q66.0198 941.504 65.8265 942.631 Q65.6333 943.758 65.6333 945.562 L65.6333 951.939 L82.0583 956.029 L83.572 956.319 Q84.2483 956.319 84.5059 955.965 Q84.7636 955.578 84.8924 954.193 Q85.0534 952.132 85.0534 950.779 Q85.0534 949.105 85.1178 948.911 Q85.3111 948.525 85.8264 948.525 Q86.4061 948.525 86.7281 948.783 Q87.018 949.04 87.0502 949.266 Q87.0824 949.491 87.0824 949.91 L86.8892 959.733 L87.0824 968.428 Q87.0824 969.427 86.2773 969.427 Q85.6653 969.427 85.4077 969.169 Q85.1178 968.911 85.0856 968.621 Q85.0534 968.332 85.0534 967.591 Q85.0534 965.981 84.9568 965.014 Q84.8602 964.048 84.7314 963.436 Q84.5703 962.792 84.1195 962.47 Q83.6686 962.116 83.2821 961.955 Q82.8634 961.794 81.9295 961.568 L47.0505 952.873 Q45.8589 952.551 45.4724 952.551 Q45.0537 952.551 44.7961 952.841 Q44.5385 953.098 44.4418 953.807 Q44.313 954.515 44.313 955.095 Q44.2808 955.642 44.2808 956.834 Q44.2808 957.607 44.2486 957.929 Q44.2164 958.219 44.0554 958.444 Q43.8943 958.67 43.5401 958.67 Q42.6383 958.67 42.4451 958.283 Q42.2196 957.865 42.2196 956.705 L42.2196 924.371 Q42.2196 923.082 42.5095 922.792 Q42.7671 922.47 44.0232 922.599 Z" fill="#000000" fill-rule="evenodd" fill-opacity="1" /><path clip-path="url(#clip370)" d="M44.0232 880.621 L55.424 881.941 Q56.4546 882.038 56.7767 882.199 Q57.0665 882.36 57.0665 882.875 Q57.0665 883.648 56.2936 883.648 Q55.9715 883.648 55.102 883.519 Q53.3307 883.326 51.5271 883.326 Q49.4982 883.326 48.2421 883.713 Q46.9539 884.067 46.0199 885.097 Q45.086 886.128 44.6995 888.028 Q44.2808 889.928 44.2808 892.956 L44.2808 901.651 Q44.2808 903.777 44.6673 904.292 Q45.0537 904.775 46.8573 905.226 L63.6043 909.445 L63.6043 903.455 Q63.6043 899.268 62.3805 897.626 Q61.1567 895.983 57.2598 894.952 Q56.6479 894.791 56.4224 894.727 Q56.1648 894.63 56.0359 894.469 Q55.8749 894.276 55.8749 893.954 Q55.8749 893.664 56.0682 893.471 Q56.2292 893.278 56.4224 893.213 L56.6157 893.149 Q56.9377 893.149 57.6784 893.342 L71.9778 896.981 Q72.944 897.239 73.1695 897.4 Q73.3627 897.529 73.3627 897.98 Q73.3627 898.302 73.1373 898.527 Q72.9118 898.753 72.5576 898.753 Q72.1711 898.688 71.849 898.559 Q69.8845 898.109 68.6284 898.109 Q67.8233 898.109 67.3402 898.27 Q66.8571 898.431 66.4384 898.978 Q66.0198 899.526 65.8265 900.653 Q65.6333 901.78 65.6333 903.584 L65.6333 909.96 L82.0583 914.05 L83.572 914.34 Q84.2483 914.34 84.5059 913.986 Q84.7636 913.6 84.8924 912.215 Q85.0534 910.154 85.0534 908.801 Q85.0534 907.126 85.1178 906.933 Q85.3111 906.547 85.8264 906.547 Q86.4061 906.547 86.7281 906.804 Q87.018 907.062 87.0502 907.287 Q87.0824 907.513 87.0824 907.931 L86.8892 917.754 L87.0824 926.45 Q87.0824 927.448 86.2773 927.448 Q85.6653 927.448 85.4077 927.19 Q85.1178 926.933 85.0856 926.643 Q85.0534 926.353 85.0534 925.612 Q85.0534 924.002 84.9568 923.036 Q84.8602 922.07 84.7314 921.458 Q84.5703 920.814 84.1195 920.492 Q83.6686 920.137 83.2821 919.976 Q82.8634 919.815 81.9295 919.59 L47.0505 910.894 Q45.8589 910.572 45.4724 910.572 Q45.0537 910.572 44.7961 910.862 Q44.5385 911.12 44.4418 911.828 Q44.313 912.537 44.313 913.117 Q44.2808 913.664 44.2808 914.856 Q44.2808 915.629 44.2486 915.951 Q44.2164 916.24 44.0554 916.466 Q43.8943 916.691 43.5401 916.691 Q42.6383 916.691 42.4451 916.305 Q42.2196 915.886 42.2196 914.727 L42.2196 882.392 Q42.2196 881.104 42.5095 880.814 Q42.7671 880.492 44.0232 880.621 Z" fill="#000000" fill-rule="evenodd" fill-opacity="1" /><path clip-path="url(#clip370)" d="M86.1794 849.786 Q89.4708 849.786 92.6496 851.454 Q95.8283 853.1 97.7896 855.692 Q99.7284 858.285 99.7284 860.923 Q99.7284 862.501 98.8717 863.56 Q97.9925 864.597 96.7526 865.161 Q98.2856 865.589 101.96 866.514 Q105.635 867.438 105.996 867.438 Q106.199 867.438 106.289 867.393 Q106.379 867.348 106.492 867.145 Q106.627 866.942 106.672 866.446 Q106.74 865.95 106.74 865.116 Q106.74 864.688 106.74 864.53 Q106.762 864.349 106.875 864.192 Q106.988 864.011 107.236 864.011 Q108.16 864.011 108.16 864.845 Q108.16 865.589 108.092 867.122 Q108.025 868.655 108.025 869.422 Q108.025 870.076 108.092 871.383 Q108.16 872.691 108.16 873.299 Q108.16 873.908 107.619 873.908 Q107.303 873.908 107.1 873.818 Q106.92 873.75 106.83 873.57 Q106.762 873.39 106.74 873.232 Q106.74 873.097 106.74 872.826 Q106.74 871.789 106.559 871.338 Q106.401 870.887 106.063 870.729 Q105.748 870.549 104.846 870.346 L84.2857 865.161 Q82.9105 864.845 81.9411 864.845 Q80.7237 864.845 80.2729 865.229 Q79.822 865.612 79.822 866.288 Q79.822 867.461 81.2197 868.227 Q82.6174 868.994 85.3227 869.647 Q86.0667 869.85 86.2245 869.985 Q86.3823 870.098 86.3823 870.436 Q86.3598 871 85.9089 871 Q85.7962 871 85.0747 870.82 Q84.3308 870.639 83.2487 870.301 Q82.144 869.94 81.4451 869.557 Q80.9717 869.332 80.6561 869.129 Q80.3405 868.926 79.8445 868.52 Q79.3485 868.092 79.078 867.483 Q78.8075 866.874 78.8075 866.13 Q78.8075 864.688 79.6642 863.493 Q80.5208 862.298 82.2567 861.982 Q80.7463 860.697 79.7769 859.119 Q78.8075 857.541 78.8075 855.94 Q78.8075 853.28 80.8815 851.544 Q82.9331 849.786 86.1794 849.786 M84.1504 853.122 Q82.0989 853.122 80.9717 853.912 Q79.822 854.678 79.822 856.076 Q79.822 857.812 81.5804 859.818 Q83.2487 861.802 84.8042 862.208 L93.8444 864.485 L94.5884 864.62 Q94.7236 864.62 95.1294 864.552 Q95.5127 864.462 96.1439 864.214 Q96.7751 863.944 97.3387 863.583 Q97.8798 863.2 98.2856 862.523 Q98.6914 861.824 98.6914 860.968 Q98.6914 859.593 97.474 858.105 Q96.2566 856.594 93.9571 855.467 Q92.4692 854.768 89.2679 853.957 Q86.0441 853.122 84.1504 853.122 Z" fill="#000000" fill-rule="evenodd" fill-opacity="1" /><path clip-path="url(#clip370)" d="M29.9626 873.908 Q22.1624 873.908 15.8726 871 Q13.2349 869.76 11.0256 868.024 Q8.81626 866.288 7.84686 865.138 Q6.87747 863.989 6.87747 863.673 Q6.87747 863.222 7.32835 863.2 Q7.55379 863.2 8.11739 863.808 Q15.6922 871.248 29.9626 871.225 Q44.2781 871.225 51.5599 863.989 Q52.3489 863.2 52.5969 863.2 Q53.0478 863.2 53.0478 863.673 Q53.0478 863.989 52.1235 865.093 Q51.1992 866.198 49.08 867.911 Q46.9609 869.625 44.3683 870.865 Q38.0785 873.908 29.9626 873.908 Z" fill="#000000" fill-rule="evenodd" fill-opacity="1" /><path clip-path="url(#clip370)" d="M24.3266 829.12 Q26.0625 829.12 29.895 830.067 Q33.7275 831.014 36.3426 832.164 Q42.0237 834.621 42.0237 838.859 Q42.0237 839.378 41.9786 839.896 Q41.9335 840.392 41.7307 841.136 Q41.5278 841.88 41.2121 842.489 Q40.874 843.098 40.2427 843.706 Q39.6115 844.293 38.7774 844.631 Q42.0237 846.502 42.0237 849.433 Q42.0237 852.273 40.5809 854.144 Q39.1381 855.993 36.1848 855.993 Q34.8547 855.993 32.8934 855.452 Q30.932 854.911 26.8741 853.4 Q24.7775 852.566 23.6277 852.566 Q23.1092 852.566 22.7711 852.679 Q22.4329 852.792 22.3202 853.017 Q22.1849 853.22 22.1624 853.355 Q22.1173 853.491 22.1173 853.716 Q22.1173 855.069 23.4925 856.286 Q24.8451 857.503 27.8435 858.383 Q28.4071 858.563 28.5424 858.676 Q28.6776 858.788 28.6776 859.127 Q28.6551 859.69 28.2042 859.69 Q28.0238 859.69 27.325 859.487 Q26.6036 859.284 25.544 858.811 Q24.4619 858.315 23.4925 857.639 Q22.5005 856.962 21.8017 855.903 Q21.1028 854.821 21.1028 853.581 Q21.1028 851.912 22.2075 850.853 Q23.3121 849.793 24.8902 849.793 Q25.3411 849.793 25.8371 849.906 Q26.3105 850.019 26.6261 850.131 Q26.9192 850.222 27.8435 850.582 Q31.7436 852.07 33.6148 852.544 Q35.4859 852.995 36.7935 852.995 Q37.2218 852.995 37.56 852.972 Q37.8982 852.949 38.597 852.769 Q39.2959 852.566 39.7693 852.206 Q40.2202 851.845 40.6034 851.101 Q40.9867 850.334 40.9867 849.297 Q40.9867 846.705 37.1091 845.036 Q36.8837 845.082 36.2975 845.082 Q34.99 845.082 33.2315 844.676 Q32.8257 844.563 30.2332 843.909 Q27.618 843.255 25.3411 842.692 Q23.0416 842.106 22.9063 842.038 Q22.2751 841.813 21.9369 841.317 Q21.5988 840.821 21.5988 840.325 Q21.5988 839.761 21.9369 839.378 Q22.2751 838.995 22.8612 838.995 Q22.974 838.995 23.4925 839.13 Q23.9884 839.243 24.7324 839.423 Q25.4764 839.603 25.8596 839.694 L33.6148 841.632 Q35.4183 842.128 36.9738 842.128 Q38.9352 842.128 39.9722 841.249 Q40.9867 840.37 40.9867 838.724 Q40.9867 835.636 36.9288 833.652 Q35.1703 832.75 32.4199 831.938 Q29.6696 831.104 28.4747 831.104 Q26.2203 831.104 24.552 832.772 Q24.2364 833.133 23.9884 833.291 Q23.7179 833.449 23.3121 833.449 Q22.5456 833.449 21.8242 832.727 Q21.1028 832.006 21.1028 831.149 Q21.1028 830.383 21.8693 829.752 Q22.6133 829.12 24.3266 829.12 Z" fill="#000000" fill-rule="evenodd" fill-opacity="1" /><path clip-path="url(#clip370)" d="M36.1623 807.671 Q36.3652 807.49 36.5681 807.49 Q36.7709 807.49 37.3571 807.941 Q37.9432 808.369 38.7323 809.294 Q39.5213 810.218 40.2653 811.413 Q41.0092 812.608 41.5052 814.366 Q42.0237 816.125 42.0237 817.973 Q42.0237 821.423 39.7468 823.451 Q37.4698 825.458 34.2009 825.458 Q31.0222 825.458 27.9787 823.677 Q24.9127 821.896 23.019 819.01 Q21.1028 816.125 21.1028 813.081 Q21.1028 810.669 22.23 809.159 Q23.3572 807.648 25.0706 807.648 Q26.4007 807.648 27.2122 808.415 Q28.0238 809.181 28.0238 810.218 Q28.0238 810.94 27.618 811.435 Q27.1897 811.931 26.4007 811.931 Q25.3862 811.931 24.5971 811.097 Q24.2815 810.782 24.1463 810.421 Q23.9884 810.038 23.9884 809.812 Q23.9659 809.587 23.9659 809.068 Q23.0867 809.542 22.6133 810.669 Q22.1173 811.774 22.1173 813.036 Q22.1173 814.907 23.4248 816.688 Q24.7099 818.469 26.7388 819.551 Q28.7227 820.633 31.5407 821.332 Q34.3362 822.031 35.9594 822.031 Q38.1912 822.031 39.589 820.994 Q40.9867 819.957 40.9867 817.883 Q40.9867 817.477 40.9642 817.049 Q40.9416 816.598 40.6936 815.471 Q40.4456 814.321 40.0173 813.307 Q39.589 812.292 38.6647 811.007 Q37.7178 809.7 36.4328 808.663 Q35.9594 808.302 35.9594 808.054 Q35.9594 807.851 36.1623 807.671 Z" fill="#000000" fill-rule="evenodd" fill-opacity="1" /><path clip-path="url(#clip370)" d="M52.5969 805.12 Q52.3715 805.12 51.8079 804.534 Q44.233 797.094 29.9626 797.094 Q15.6471 797.094 8.41047 804.241 Q7.57633 805.12 7.32835 805.12 Q6.87747 805.12 6.87747 804.669 Q6.87747 804.354 7.80178 803.249 Q8.72608 802.122 10.8452 800.431 Q12.9644 798.718 15.5569 797.455 Q21.8468 794.412 29.9626 794.412 Q37.7629 794.412 44.0527 797.32 Q46.6904 798.56 48.8997 800.296 Q51.109 802.032 52.0784 803.181 Q53.0478 804.331 53.0478 804.669 Q53.0478 805.12 52.5969 805.12 Z" fill="#000000" fill-rule="evenodd" fill-opacity="1" /><path clip-path="url(#clip370)" d="M69.659 718.506 Q70.0455 718.119 70.593 718.119 Q71.1405 718.119 71.527 718.506 Q71.9134 718.892 71.9134 719.44 L71.9134 760.728 Q71.9134 761.275 71.527 761.662 Q71.1405 762.048 70.593 762.048 Q70.0455 762.048 69.659 761.662 Q69.2726 761.275 69.2726 760.728 L69.2726 719.44 Q69.2726 718.892 69.659 718.506 Z" fill="#000000" fill-rule="evenodd" fill-opacity="1" /><path clip-path="url(#clip370)" d="M44.0232 646.104 L55.424 647.424 Q56.4546 647.521 56.7767 647.682 Q57.0665 647.843 57.0665 648.358 Q57.0665 649.131 56.2936 649.131 Q55.9715 649.131 55.102 649.003 Q53.3307 648.809 51.5271 648.809 Q49.4982 648.809 48.2421 649.196 Q46.9539 649.55 46.0199 650.581 Q45.086 651.611 44.6995 653.511 Q44.2808 655.412 44.2808 658.439 L44.2808 667.134 Q44.2808 669.26 44.6673 669.775 Q45.0537 670.258 46.8573 670.709 L63.6043 674.928 L63.6043 668.938 Q63.6043 664.751 62.3805 663.109 Q61.1567 661.466 57.2598 660.436 Q56.6479 660.275 56.4224 660.21 Q56.1648 660.114 56.0359 659.953 Q55.8749 659.759 55.8749 659.437 Q55.8749 659.147 56.0682 658.954 Q56.2292 658.761 56.4224 658.697 L56.6157 658.632 Q56.9377 658.632 57.6784 658.825 L71.9778 662.465 Q72.944 662.722 73.1695 662.883 Q73.3627 663.012 73.3627 663.463 Q73.3627 663.785 73.1373 664.01 Q72.9118 664.236 72.5576 664.236 Q72.1711 664.172 71.849 664.043 Q69.8845 663.592 68.6284 663.592 Q67.8233 663.592 67.3402 663.753 Q66.8571 663.914 66.4384 664.461 Q66.0198 665.009 65.8265 666.136 Q65.6333 667.263 65.6333 669.067 L65.6333 675.444 L82.0583 679.534 L83.572 679.824 Q84.2483 679.824 84.5059 679.469 Q84.7636 679.083 84.8924 677.698 Q85.0534 675.637 85.0534 674.284 Q85.0534 672.609 85.1178 672.416 Q85.3111 672.03 85.8264 672.03 Q86.4061 672.03 86.7281 672.287 Q87.018 672.545 87.0502 672.77 Q87.0824 672.996 87.0824 673.415 L86.8892 683.237 L87.0824 691.933 Q87.0824 692.931 86.2773 692.931 Q85.6653 692.931 85.4077 692.674 Q85.1178 692.416 85.0856 692.126 Q85.0534 691.836 85.0534 691.096 Q85.0534 689.485 84.9568 688.519 Q84.8602 687.553 84.7314 686.941 Q84.5703 686.297 84.1195 685.975 Q83.6686 685.621 83.2821 685.46 Q82.8634 685.299 81.9295 685.073 L47.0505 676.378 Q45.8589 676.055 45.4724 676.055 Q45.0537 676.055 44.7961 676.345 Q44.5385 676.603 44.4418 677.312 Q44.313 678.02 44.313 678.6 Q44.2808 679.147 44.2808 680.339 Q44.2808 681.112 44.2486 681.434 Q44.2164 681.724 44.0554 681.949 Q43.8943 682.175 43.5401 682.175 Q42.6383 682.175 42.4451 681.788 Q42.2196 681.369 42.2196 680.21 L42.2196 647.875 Q42.2196 646.587 42.5095 646.297 Q42.7671 645.975 44.0232 646.104 Z" fill="#000000" fill-rule="evenodd" fill-opacity="1" /><path clip-path="url(#clip370)" d="M44.0232 604.126 L55.424 605.446 Q56.4546 605.543 56.7767 605.704 Q57.0665 605.865 57.0665 606.38 Q57.0665 607.153 56.2936 607.153 Q55.9715 607.153 55.102 607.024 Q53.3307 606.831 51.5271 606.831 Q49.4982 606.831 48.2421 607.217 Q46.9539 607.572 46.0199 608.602 Q45.086 609.633 44.6995 611.533 Q44.2808 613.433 44.2808 616.46 L44.2808 625.156 Q44.2808 627.282 44.6673 627.797 Q45.0537 628.28 46.8573 628.731 L63.6043 632.95 L63.6043 626.96 Q63.6043 622.773 62.3805 621.13 Q61.1567 619.488 57.2598 618.457 Q56.6479 618.296 56.4224 618.232 Q56.1648 618.135 56.0359 617.974 Q55.8749 617.781 55.8749 617.459 Q55.8749 617.169 56.0682 616.976 Q56.2292 616.783 56.4224 616.718 L56.6157 616.654 Q56.9377 616.654 57.6784 616.847 L71.9778 620.486 Q72.944 620.744 73.1695 620.905 Q73.3627 621.034 73.3627 621.485 Q73.3627 621.807 73.1373 622.032 Q72.9118 622.257 72.5576 622.257 Q72.1711 622.193 71.849 622.064 Q69.8845 621.613 68.6284 621.613 Q67.8233 621.613 67.3402 621.774 Q66.8571 621.935 66.4384 622.483 Q66.0198 623.03 65.8265 624.158 Q65.6333 625.285 65.6333 627.088 L65.6333 633.465 L82.0583 637.555 L83.572 637.845 Q84.2483 637.845 84.5059 637.491 Q84.7636 637.104 84.8924 635.72 Q85.0534 633.658 85.0534 632.306 Q85.0534 630.631 85.1178 630.438 Q85.3111 630.051 85.8264 630.051 Q86.4061 630.051 86.7281 630.309 Q87.018 630.567 87.0502 630.792 Q87.0824 631.017 87.0824 631.436 L86.8892 641.259 L87.0824 649.955 Q87.0824 650.953 86.2773 650.953 Q85.6653 650.953 85.4077 650.695 Q85.1178 650.438 85.0856 650.148 Q85.0534 649.858 85.0534 649.117 Q85.0534 647.507 84.9568 646.541 Q84.8602 645.575 84.7314 644.963 Q84.5703 644.319 84.1195 643.996 Q83.6686 643.642 83.2821 643.481 Q82.8634 643.32 81.9295 643.095 L47.0505 634.399 Q45.8589 634.077 45.4724 634.077 Q45.0537 634.077 44.7961 634.367 Q44.5385 634.625 44.4418 635.333 Q44.313 636.042 44.313 636.621 Q44.2808 637.169 44.2808 638.36 Q44.2808 639.133 44.2486 639.455 Q44.2164 639.745 44.0554 639.971 Q43.8943 640.196 43.5401 640.196 Q42.6383 640.196 42.4451 639.81 Q42.2196 639.391 42.2196 638.232 L42.2196 605.897 Q42.2196 604.609 42.5095 604.319 Q42.7671 603.997 44.0232 604.126 Z" fill="#000000" fill-rule="evenodd" fill-opacity="1" /><path clip-path="url(#clip370)" d="M86.1794 573.291 Q89.4708 573.291 92.6496 574.959 Q95.8283 576.605 97.7896 579.197 Q99.7284 581.79 99.7284 584.428 Q99.7284 586.006 98.8717 587.065 Q97.9925 588.102 96.7526 588.666 Q98.2856 589.094 101.96 590.018 Q105.635 590.943 105.996 590.943 Q106.199 590.943 106.289 590.898 Q106.379 590.853 106.492 590.65 Q106.627 590.447 106.672 589.951 Q106.74 589.455 106.74 588.621 Q106.74 588.192 106.74 588.035 Q106.762 587.854 106.875 587.696 Q106.988 587.516 107.236 587.516 Q108.16 587.516 108.16 588.35 Q108.16 589.094 108.092 590.627 Q108.025 592.16 108.025 592.927 Q108.025 593.58 108.092 594.888 Q108.16 596.196 108.16 596.804 Q108.16 597.413 107.619 597.413 Q107.303 597.413 107.1 597.323 Q106.92 597.255 106.83 597.075 Q106.762 596.894 106.74 596.737 Q106.74 596.601 106.74 596.331 Q106.74 595.294 106.559 594.843 Q106.401 594.392 106.063 594.234 Q105.748 594.054 104.846 593.851 L84.2857 588.666 Q82.9105 588.35 81.9411 588.35 Q80.7237 588.35 80.2729 588.733 Q79.822 589.117 79.822 589.793 Q79.822 590.965 81.2197 591.732 Q82.6174 592.498 85.3227 593.152 Q86.0667 593.355 86.2245 593.49 Q86.3823 593.603 86.3823 593.941 Q86.3598 594.505 85.9089 594.505 Q85.7962 594.505 85.0747 594.324 Q84.3308 594.144 83.2487 593.806 Q82.144 593.445 81.4451 593.062 Q80.9717 592.836 80.6561 592.634 Q80.3405 592.431 79.8445 592.025 Q79.3485 591.597 79.078 590.988 Q78.8075 590.379 78.8075 589.635 Q78.8075 588.192 79.6642 586.998 Q80.5208 585.803 82.2567 585.487 Q80.7463 584.202 79.7769 582.624 Q78.8075 581.046 78.8075 579.445 Q78.8075 576.785 80.8815 575.049 Q82.9331 573.291 86.1794 573.291 M84.1504 576.627 Q82.0989 576.627 80.9717 577.416 Q79.822 578.183 79.822 579.581 Q79.822 581.316 81.5804 583.323 Q83.2487 585.307 84.8042 585.713 L93.8444 587.989 L94.5884 588.125 Q94.7236 588.125 95.1294 588.057 Q95.5127 587.967 96.1439 587.719 Q96.7751 587.448 97.3387 587.088 Q97.8798 586.704 98.2856 586.028 Q98.6914 585.329 98.6914 584.473 Q98.6914 583.097 97.474 581.61 Q96.2566 580.099 93.9571 578.972 Q92.4692 578.273 89.2679 577.461 Q86.0441 576.627 84.1504 576.627 Z" fill="#000000" fill-rule="evenodd" fill-opacity="1" /><path clip-path="url(#clip370)" d="M29.9626 597.413 Q22.1624 597.413 15.8726 594.505 Q13.2349 593.265 11.0256 591.529 Q8.81626 589.793 7.84686 588.643 Q6.87747 587.494 6.87747 587.178 Q6.87747 586.727 7.32835 586.704 Q7.55379 586.704 8.11739 587.313 Q15.6922 594.753 29.9626 594.73 Q44.2781 594.73 51.5599 587.494 Q52.3489 586.704 52.5969 586.704 Q53.0478 586.704 53.0478 587.178 Q53.0478 587.494 52.1235 588.598 Q51.1992 589.703 49.08 591.416 Q46.9609 593.13 44.3683 594.369 Q38.0785 597.413 29.9626 597.413 Z" fill="#000000" fill-rule="evenodd" fill-opacity="1" /><path clip-path="url(#clip370)" d="M24.1012 564.393 Q25.296 564.393 26.0625 565.182 Q26.829 565.949 26.829 566.941 Q26.829 567.797 26.333 568.248 Q25.8371 568.699 25.2058 568.699 Q24.3041 568.699 23.5601 568 Q22.8161 567.301 22.6583 566.287 Q22.1173 567.031 22.1173 568.226 Q22.1173 570.187 23.6277 571.923 Q24.3266 572.689 25.6116 573.524 Q26.8741 574.358 27.4151 574.515 L33.4344 575.981 Q34.1107 576.116 37.3571 576.95 Q40.5809 577.762 40.7162 577.829 Q41.3474 578.055 41.6856 578.551 Q42.0237 579.047 42.0237 579.543 Q42.0237 580.106 41.6856 580.49 Q41.3474 580.873 40.7613 580.873 Q40.6711 580.873 40.3329 580.805 Q39.9948 580.738 39.5213 580.625 Q39.0479 580.512 38.7774 580.467 L28.114 577.784 Q26.1752 577.288 25.5665 577.176 Q24.9353 577.04 24.2364 577.04 Q23.019 577.04 22.5682 577.424 Q22.1173 577.807 22.1173 578.483 Q22.1173 579.656 23.515 580.422 Q24.9127 581.189 27.618 581.842 Q28.362 582.045 28.5198 582.18 Q28.6776 582.293 28.6776 582.631 Q28.6551 583.195 28.2042 583.195 Q28.0915 583.195 27.3701 583.015 Q26.6261 582.834 25.544 582.496 Q24.4393 582.135 23.7405 581.752 Q23.267 581.527 22.9514 581.324 Q22.6358 581.121 22.1398 580.715 Q21.6439 580.309 21.3733 579.701 Q21.1028 579.092 21.1028 578.348 Q21.1028 576.725 22.0947 575.575 Q23.0867 574.403 24.6422 574.132 Q23.8306 573.569 23.1318 572.87 Q22.4104 572.171 21.7566 570.886 Q21.1028 569.601 21.1028 568.226 Q21.1028 566.512 21.982 565.453 Q22.8387 564.393 24.1012 564.393 Z" fill="#000000" fill-rule="evenodd" fill-opacity="1" /><path clip-path="url(#clip370)" d="M12.6488 551.378 Q13.6407 551.378 14.3847 552.189 Q15.1061 552.978 15.1061 553.835 Q15.1061 554.624 14.6326 555.12 Q14.1367 555.594 13.4378 555.594 Q12.5135 555.594 11.747 554.805 Q10.9805 554.016 10.9805 553.091 Q10.9805 552.325 11.4539 551.851 Q11.9273 551.378 12.6488 551.378 M34.8998 550.972 Q35.0801 550.972 35.8016 551.175 Q36.5004 551.378 37.5825 551.874 Q38.6421 552.347 39.634 553.001 Q40.626 553.655 41.3249 554.737 Q42.0237 555.796 42.0237 557.014 Q42.0237 558.66 40.9416 559.742 Q39.8595 560.801 38.2363 560.801 Q37.3571 560.801 34.5391 559.742 Q26.333 556.676 25.9949 556.563 Q24.7099 556.044 23.5826 556.044 Q23.0641 556.044 22.7485 556.157 Q22.4104 556.27 22.2976 556.495 Q22.1624 556.721 22.1398 556.856 Q22.1173 556.969 22.1173 557.194 Q22.1173 558.524 23.4699 559.764 Q24.8226 561.004 27.8435 561.861 Q28.4071 562.041 28.5424 562.154 Q28.6776 562.267 28.6776 562.605 Q28.6551 563.168 28.2042 563.168 Q28.0689 563.168 27.5504 563.011 Q27.0094 562.853 26.1978 562.56 Q25.3636 562.267 24.507 561.748 Q23.6277 561.23 22.8612 560.598 Q22.0947 559.945 21.5988 559.02 Q21.1028 558.096 21.1028 557.059 Q21.1028 555.368 22.2075 554.331 Q23.2896 553.272 24.8902 553.272 Q25.7694 553.272 27.325 553.88 Q29.3539 554.624 30.0077 554.895 L34.8547 556.698 Q36.6131 557.352 37.1542 557.555 Q37.6727 557.735 38.3039 557.893 Q38.9126 558.028 39.4762 558.028 Q40.2653 558.028 40.626 557.78 Q40.9867 557.51 40.9867 556.924 Q40.9867 555.301 39.3861 554.106 Q37.7629 552.911 35.283 552.212 Q35.2154 552.189 35.1027 552.167 Q34.5391 551.987 34.4714 551.806 Q34.4489 551.716 34.4489 551.536 Q34.4489 550.972 34.8998 550.972 Z" fill="#000000" fill-rule="evenodd" fill-opacity="1" /><path clip-path="url(#clip370)" d="M28.4747 529.112 Q31.7211 529.112 34.8998 530.758 Q38.056 532.381 40.0398 534.996 Q42.0237 537.589 42.0237 540.249 Q42.0237 542.842 40.0398 544.487 Q38.0334 546.111 34.7645 546.111 Q33.6148 546.111 32.8032 545.975 Q31.9916 545.84 30.0979 545.367 L15.0384 541.579 Q12.2204 540.925 12.1979 540.925 Q11.9273 540.925 11.7921 541.038 Q11.6343 541.128 11.5216 541.669 Q11.4088 542.21 11.4088 543.247 Q11.4088 543.676 11.3863 543.879 Q11.3637 544.059 11.251 544.217 Q11.1158 544.352 10.8452 544.352 Q10.462 544.352 10.2591 544.194 Q10.0336 544.014 9.98855 543.879 Q9.94347 543.743 9.92092 543.473 Q9.89838 543.09 9.78566 541.805 Q9.65039 540.52 9.56022 539.415 Q9.47004 538.31 9.47004 537.837 Q9.47004 537.566 9.6053 537.431 Q9.71802 537.273 9.85329 537.273 L9.96601 537.251 L23.8757 540.655 Q21.1028 537.972 21.1028 535.244 Q21.1028 532.516 23.1994 530.826 Q25.296 529.112 28.4747 529.112 M26.4457 532.449 Q24.3041 532.449 23.2219 533.26 Q22.1173 534.049 22.1173 535.357 Q22.1173 536.462 22.9514 537.905 Q23.7855 539.347 25.8145 540.88 Q26.1978 541.173 26.4232 541.286 Q26.6486 541.376 27.4151 541.579 L31.676 542.594 Q34.5842 543.338 36.3426 543.338 Q38.7323 543.338 39.8595 542.458 Q40.9867 541.579 40.9867 540.249 Q40.9867 538.851 39.7468 537.386 Q38.5068 535.921 36.2524 534.793 Q34.7645 534.095 31.5633 533.283 Q28.3395 532.449 26.4457 532.449 Z" fill="#000000" fill-rule="evenodd" fill-opacity="1" /><path clip-path="url(#clip370)" d="M52.5969 525.767 Q52.3715 525.767 51.8079 525.18 Q44.233 517.741 29.9626 517.741 Q15.6471 517.741 8.41047 524.887 Q7.57633 525.767 7.32835 525.767 Q6.87747 525.767 6.87747 525.316 Q6.87747 525 7.80178 523.895 Q8.72608 522.768 10.8452 521.077 Q12.9644 519.364 15.5569 518.102 Q21.8468 515.058 29.9626 515.058 Q37.7629 515.058 44.0527 517.966 Q46.6904 519.206 48.8997 520.942 Q51.109 522.678 52.0784 523.828 Q53.0478 524.978 53.0478 525.316 Q53.0478 525.767 52.5969 525.767 Z" fill="#000000" fill-rule="evenodd" fill-opacity="1" /><circle clip-path="url(#clip372)" cx="328.231" cy="1384.24" r="21" fill="#ff00ff" fill-rule="evenodd" fill-opacity="1" stroke="none"/>
<circle clip-path="url(#clip372)" cx="546.627" cy="1325.99" r="21" fill="#ff00ff" fill-rule="evenodd" fill-opacity="1" stroke="none"/>
<circle clip-path="url(#clip372)" cx="765.022" cy="1155.18" r="21" fill="#ff00ff" fill-rule="evenodd" fill-opacity="1" stroke="none"/>
<circle clip-path="url(#clip372)" cx="983.417" cy="323.436" r="21" fill="#ff00ff" fill-rule="evenodd" fill-opacity="1" stroke="none"/>
<circle clip-path="url(#clip372)" cx="1201.81" cy="86.1857" r="21" fill="#ff00ff" fill-rule="evenodd" fill-opacity="1" stroke="none"/>
<circle clip-path="url(#clip372)" cx="1420.21" cy="88.2296" r="21" fill="#ff00ff" fill-rule="evenodd" fill-opacity="1" stroke="none"/>
<circle clip-path="url(#clip372)" cx="1638.6" cy="275.788" r="21" fill="#ff00ff" fill-rule="evenodd" fill-opacity="1" stroke="none"/>
<circle clip-path="url(#clip372)" cx="1857" cy="539.737" r="21" fill="#ff00ff" fill-rule="evenodd" fill-opacity="1" stroke="none"/>
<circle clip-path="url(#clip372)" cx="2075.39" cy="813.292" r="21" fill="#ff00ff" fill-rule="evenodd" fill-opacity="1" stroke="none"/>
<circle clip-path="url(#clip372)" cx="2293.79" cy="1071.62" r="21" fill="#ff00ff" fill-rule="evenodd" fill-opacity="1" stroke="none"/>
</svg>
