<?xml version="1.0" encoding="utf-8"?>
<svg xmlns="http://www.w3.org/2000/svg" xmlns:xlink="http://www.w3.org/1999/xlink" width="600" height="400" viewBox="0 0 2400 1600">
<defs>
  <clipPath id="clip320">
    <rect x="0" y="0" width="2400" height="1600"/>
  </clipPath>
</defs>
<path clip-path="url(#clip320)" d="
M0 1600 L2400 1600 L2400 0 L0 0  Z
  " fill="#ffffff" fill-rule="evenodd" fill-opacity="1"/>
<defs>
  <clipPath id="clip321">
    <rect x="480" y="0" width="1681" height="1600"/>
  </clipPath>
</defs>
<defs>
  <clipPath id="clip322">
    <rect x="238" y="47" width="2115" height="1377"/>
  </clipPath>
</defs>
<path clip-path="url(#clip320)" d="
M238.756 1423.18 L2352.76 1423.18 L2352.76 47.2441 L238.756 47.2441  Z
  " fill="#ffffff" fill-rule="evenodd" fill-opacity="1"/>
<polyline clip-path="url(#clip320)" style="stroke:#000000; stroke-linecap:butt; stroke-linejoin:round; stroke-width:4; stroke-opacity:1; fill:none" points="
  238.756,1423.18 2352.76,1423.18 
  "/>
<polyline clip-path="url(#clip320)" style="stroke:#000000; stroke-linecap:butt; stroke-linejoin:round; stroke-width:4; stroke-opacity:1; fill:none" points="
  265.347,1423.18 265.347,1404.28 
  "/>
<polyline clip-path="url(#clip320)" style="stroke:#000000; stroke-linecap:butt; stroke-linejoin:round; stroke-width:4; stroke-opacity:1; fill:none" points="
  597.737,1423.18 597.737,1404.28 
  "/>
<polyline clip-path="url(#clip320)" style="stroke:#000000; stroke-linecap:butt; stroke-linejoin:round; stroke-width:4; stroke-opacity:1; fill:none" points="
  930.127,1423.18 930.127,1404.28 
  "/>
<polyline clip-path="url(#clip320)" style="stroke:#000000; stroke-linecap:butt; stroke-linejoin:round; stroke-width:4; stroke-opacity:1; fill:none" points="
  1262.52,1423.18 1262.52,1404.28 
  "/>
<polyline clip-path="url(#clip320)" style="stroke:#000000; stroke-linecap:butt; stroke-linejoin:round; stroke-width:4; stroke-opacity:1; fill:none" points="
  1594.91,1423.18 1594.91,1404.28 
  "/>
<polyline clip-path="url(#clip320)" style="stroke:#000000; stroke-linecap:butt; stroke-linejoin:round; stroke-width:4; stroke-opacity:1; fill:none" points="
  1927.3,1423.18 1927.3,1404.28 
  "/>
<polyline clip-path="url(#clip320)" style="stroke:#000000; stroke-linecap:butt; stroke-linejoin:round; stroke-width:4; stroke-opacity:1; fill:none" points="
  2259.69,1423.18 2259.69,1404.28 
  "/>
<path clip-path="url(#clip320)" d="M265.347 1452.37 Q261.736 1452.37 259.907 1455.94 Q258.102 1459.48 258.102 1466.61 Q258.102 1473.71 259.907 1477.28 Q261.736 1480.82 265.347 1480.82 Q268.981 1480.82 270.787 1477.28 Q272.615 1473.71 272.615 1466.61 Q272.615 1459.48 270.787 1455.94 Q268.981 1452.37 265.347 1452.37 M265.347 1448.67 Q271.157 1448.67 274.213 1453.27 Q277.291 1457.86 277.291 1466.61 Q277.291 1475.33 274.213 1479.94 Q271.157 1484.52 265.347 1484.52 Q259.537 1484.52 256.458 1479.94 Q253.402 1475.33 253.402 1466.61 Q253.402 1457.86 256.458 1453.27 Q259.537 1448.67 265.347 1448.67 Z" fill="#000000" fill-rule="evenodd" fill-opacity="1" /><path clip-path="url(#clip320)" d="M572.424 1479.92 L580.063 1479.92 L580.063 1453.55 L571.753 1455.22 L571.753 1450.96 L580.017 1449.29 L584.693 1449.29 L584.693 1479.92 L592.332 1479.92 L592.332 1483.85 L572.424 1483.85 L572.424 1479.92 Z" fill="#000000" fill-rule="evenodd" fill-opacity="1" /><path clip-path="url(#clip320)" d="M611.776 1452.37 Q608.165 1452.37 606.336 1455.94 Q604.531 1459.48 604.531 1466.61 Q604.531 1473.71 606.336 1477.28 Q608.165 1480.82 611.776 1480.82 Q615.41 1480.82 617.216 1477.28 Q619.045 1473.71 619.045 1466.61 Q619.045 1459.48 617.216 1455.94 Q615.41 1452.37 611.776 1452.37 M611.776 1448.67 Q617.586 1448.67 620.642 1453.27 Q623.72 1457.86 623.72 1466.61 Q623.72 1475.33 620.642 1479.94 Q617.586 1484.52 611.776 1484.52 Q605.966 1484.52 602.887 1479.94 Q599.832 1475.33 599.832 1466.61 Q599.832 1457.86 602.887 1453.27 Q605.966 1448.67 611.776 1448.67 Z" fill="#000000" fill-rule="evenodd" fill-opacity="1" /><path clip-path="url(#clip320)" d="M908.9 1479.92 L925.219 1479.92 L925.219 1483.85 L903.275 1483.85 L903.275 1479.92 Q905.937 1477.16 910.52 1472.53 Q915.127 1467.88 916.307 1466.54 Q918.553 1464.01 919.432 1462.28 Q920.335 1460.52 920.335 1458.83 Q920.335 1456.07 918.391 1454.34 Q916.469 1452.6 913.368 1452.6 Q911.169 1452.6 908.715 1453.37 Q906.284 1454.13 903.507 1455.68 L903.507 1450.96 Q906.331 1449.82 908.784 1449.25 Q911.238 1448.67 913.275 1448.67 Q918.645 1448.67 921.84 1451.35 Q925.034 1454.04 925.034 1458.53 Q925.034 1460.66 924.224 1462.58 Q923.437 1464.48 921.331 1467.07 Q920.752 1467.74 917.65 1470.96 Q914.548 1474.15 908.9 1479.92 Z" fill="#000000" fill-rule="evenodd" fill-opacity="1" /><path clip-path="url(#clip320)" d="M945.034 1452.37 Q941.423 1452.37 939.594 1455.94 Q937.789 1459.48 937.789 1466.61 Q937.789 1473.71 939.594 1477.28 Q941.423 1480.82 945.034 1480.82 Q948.668 1480.82 950.474 1477.28 Q952.303 1473.71 952.303 1466.61 Q952.303 1459.48 950.474 1455.94 Q948.668 1452.37 945.034 1452.37 M945.034 1448.67 Q950.844 1448.67 953.9 1453.27 Q956.979 1457.86 956.979 1466.61 Q956.979 1475.33 953.9 1479.94 Q950.844 1484.52 945.034 1484.52 Q939.224 1484.52 936.145 1479.94 Q933.09 1475.33 933.09 1466.61 Q933.09 1457.86 936.145 1453.27 Q939.224 1448.67 945.034 1448.67 Z" fill="#000000" fill-rule="evenodd" fill-opacity="1" /><path clip-path="url(#clip320)" d="M1251.36 1465.22 Q1254.72 1465.94 1256.59 1468.2 Q1258.49 1470.47 1258.49 1473.81 Q1258.49 1478.92 1254.97 1481.72 Q1251.45 1484.52 1244.97 1484.52 Q1242.79 1484.52 1240.48 1484.08 Q1238.19 1483.67 1235.73 1482.81 L1235.73 1478.3 Q1237.68 1479.43 1239.99 1480.01 Q1242.31 1480.59 1244.83 1480.59 Q1249.23 1480.59 1251.52 1478.85 Q1253.84 1477.12 1253.84 1473.81 Q1253.84 1470.75 1251.68 1469.04 Q1249.55 1467.3 1245.73 1467.3 L1241.71 1467.3 L1241.71 1463.46 L1245.92 1463.46 Q1249.37 1463.46 1251.2 1462.09 Q1253.03 1460.7 1253.03 1458.11 Q1253.03 1455.45 1251.13 1454.04 Q1249.25 1452.6 1245.73 1452.6 Q1243.81 1452.6 1241.61 1453.02 Q1239.42 1453.44 1236.78 1454.31 L1236.78 1450.15 Q1239.44 1449.41 1241.75 1449.04 Q1244.09 1448.67 1246.15 1448.67 Q1251.48 1448.67 1254.58 1451.1 Q1257.68 1453.5 1257.68 1457.63 Q1257.68 1460.5 1256.04 1462.49 Q1254.39 1464.45 1251.36 1465.22 Z" fill="#000000" fill-rule="evenodd" fill-opacity="1" /><path clip-path="url(#clip320)" d="M1277.35 1452.37 Q1273.74 1452.37 1271.91 1455.94 Q1270.11 1459.48 1270.11 1466.61 Q1270.11 1473.71 1271.91 1477.28 Q1273.74 1480.82 1277.35 1480.82 Q1280.99 1480.82 1282.79 1477.28 Q1284.62 1473.71 1284.62 1466.61 Q1284.62 1459.48 1282.79 1455.94 Q1280.99 1452.37 1277.35 1452.37 M1277.35 1448.67 Q1283.16 1448.67 1286.22 1453.27 Q1289.3 1457.86 1289.3 1466.61 Q1289.3 1475.33 1286.22 1479.94 Q1283.16 1484.52 1277.35 1484.52 Q1271.54 1484.52 1268.47 1479.94 Q1265.41 1475.33 1265.41 1466.61 Q1265.41 1457.86 1268.47 1453.27 Q1271.54 1448.67 1277.35 1448.67 Z" fill="#000000" fill-rule="evenodd" fill-opacity="1" /><path clip-path="url(#clip320)" d="M1583.08 1453.37 L1571.27 1471.81 L1583.08 1471.81 L1583.08 1453.37 M1581.85 1449.29 L1587.73 1449.29 L1587.73 1471.81 L1592.66 1471.81 L1592.66 1475.7 L1587.73 1475.7 L1587.73 1483.85 L1583.08 1483.85 L1583.08 1475.7 L1567.48 1475.7 L1567.48 1471.19 L1581.85 1449.29 Z" fill="#000000" fill-rule="evenodd" fill-opacity="1" /><path clip-path="url(#clip320)" d="M1610.39 1452.37 Q1606.78 1452.37 1604.95 1455.94 Q1603.15 1459.48 1603.15 1466.61 Q1603.15 1473.71 1604.95 1477.28 Q1606.78 1480.82 1610.39 1480.82 Q1614.03 1480.82 1615.83 1477.28 Q1617.66 1473.71 1617.66 1466.61 Q1617.66 1459.48 1615.83 1455.94 Q1614.03 1452.37 1610.39 1452.37 M1610.39 1448.67 Q1616.2 1448.67 1619.26 1453.27 Q1622.34 1457.86 1622.34 1466.61 Q1622.34 1475.33 1619.26 1479.94 Q1616.2 1484.52 1610.39 1484.52 Q1604.58 1484.52 1601.5 1479.94 Q1598.45 1475.33 1598.45 1466.61 Q1598.45 1457.86 1601.5 1453.27 Q1604.58 1448.67 1610.39 1448.67 Z" fill="#000000" fill-rule="evenodd" fill-opacity="1" /><path clip-path="url(#clip320)" d="M1902 1449.29 L1920.35 1449.29 L1920.35 1453.23 L1906.28 1453.23 L1906.28 1461.7 Q1907.3 1461.35 1908.32 1461.19 Q1909.33 1461 1910.35 1461 Q1916.14 1461 1919.52 1464.18 Q1922.9 1467.35 1922.9 1472.76 Q1922.9 1478.34 1919.43 1481.44 Q1915.95 1484.52 1909.63 1484.52 Q1907.46 1484.52 1905.19 1484.15 Q1902.95 1483.78 1900.54 1483.04 L1900.54 1478.34 Q1902.62 1479.48 1904.84 1480.03 Q1907.07 1480.59 1909.54 1480.59 Q1913.55 1480.59 1915.88 1478.48 Q1918.22 1476.38 1918.22 1472.76 Q1918.22 1469.15 1915.88 1467.05 Q1913.55 1464.94 1909.54 1464.94 Q1907.67 1464.94 1905.79 1465.36 Q1903.94 1465.77 1902 1466.65 L1902 1449.29 Z" fill="#000000" fill-rule="evenodd" fill-opacity="1" /><path clip-path="url(#clip320)" d="M1942.11 1452.37 Q1938.5 1452.37 1936.67 1455.94 Q1934.87 1459.48 1934.87 1466.61 Q1934.87 1473.71 1936.67 1477.28 Q1938.5 1480.82 1942.11 1480.82 Q1945.75 1480.82 1947.55 1477.28 Q1949.38 1473.71 1949.38 1466.61 Q1949.38 1459.48 1947.55 1455.94 Q1945.75 1452.37 1942.11 1452.37 M1942.11 1448.67 Q1947.92 1448.67 1950.98 1453.27 Q1954.06 1457.86 1954.06 1466.61 Q1954.06 1475.33 1950.98 1479.94 Q1947.92 1484.52 1942.11 1484.52 Q1936.3 1484.52 1933.22 1479.94 Q1930.17 1475.33 1930.17 1466.61 Q1930.17 1457.86 1933.22 1453.27 Q1936.3 1448.67 1942.11 1448.67 Z" fill="#000000" fill-rule="evenodd" fill-opacity="1" /><path clip-path="url(#clip320)" d="M2245.09 1464.71 Q2241.94 1464.71 2240.09 1466.86 Q2238.26 1469.01 2238.26 1472.76 Q2238.26 1476.49 2240.09 1478.67 Q2241.94 1480.82 2245.09 1480.82 Q2248.24 1480.82 2250.07 1478.67 Q2251.92 1476.49 2251.92 1472.76 Q2251.92 1469.01 2250.07 1466.86 Q2248.24 1464.71 2245.09 1464.71 M2254.37 1450.06 L2254.37 1454.31 Q2252.61 1453.48 2250.81 1453.04 Q2249.03 1452.6 2247.27 1452.6 Q2242.64 1452.6 2240.18 1455.73 Q2237.75 1458.85 2237.41 1465.17 Q2238.77 1463.16 2240.83 1462.09 Q2242.89 1461 2245.37 1461 Q2250.58 1461 2253.59 1464.18 Q2256.62 1467.32 2256.62 1472.76 Q2256.62 1478.09 2253.47 1481.31 Q2250.32 1484.52 2245.09 1484.52 Q2239.1 1484.52 2235.93 1479.94 Q2232.75 1475.33 2232.75 1466.61 Q2232.75 1458.41 2236.64 1453.55 Q2240.53 1448.67 2247.08 1448.67 Q2248.84 1448.67 2250.62 1449.01 Q2252.43 1449.36 2254.37 1450.06 Z" fill="#000000" fill-rule="evenodd" fill-opacity="1" /><path clip-path="url(#clip320)" d="M2274.68 1452.37 Q2271.06 1452.37 2269.24 1455.94 Q2267.43 1459.48 2267.43 1466.61 Q2267.43 1473.71 2269.24 1477.28 Q2271.06 1480.82 2274.68 1480.82 Q2278.31 1480.82 2280.11 1477.28 Q2281.94 1473.71 2281.94 1466.61 Q2281.94 1459.48 2280.11 1455.94 Q2278.31 1452.37 2274.68 1452.37 M2274.68 1448.67 Q2280.49 1448.67 2283.54 1453.27 Q2286.62 1457.86 2286.62 1466.61 Q2286.62 1475.33 2283.54 1479.94 Q2280.49 1484.52 2274.68 1484.52 Q2268.86 1484.52 2265.79 1479.94 Q2262.73 1475.33 2262.73 1466.61 Q2262.73 1457.86 2265.79 1453.27 Q2268.86 1448.67 2274.68 1448.67 Z" fill="#000000" fill-rule="evenodd" fill-opacity="1" /><path clip-path="url(#clip320)" d="M1019.05 1520.52 L1027.71 1520.52 L1048.78 1560.28 L1048.78 1520.52 L1055.02 1520.52 L1055.02 1568.04 L1046.36 1568.04 L1025.29 1528.29 L1025.29 1568.04 L1019.05 1568.04 L1019.05 1520.52 Z" fill="#000000" fill-rule="evenodd" fill-opacity="1" /><path clip-path="url(#clip320)" d="M1066.96 1553.98 L1066.96 1532.4 L1072.81 1532.4 L1072.81 1553.75 Q1072.81 1558.81 1074.79 1561.36 Q1076.76 1563.87 1080.71 1563.87 Q1085.45 1563.87 1088.19 1560.85 Q1090.96 1557.83 1090.96 1552.61 L1090.96 1532.4 L1096.81 1532.4 L1096.81 1568.04 L1090.96 1568.04 L1090.96 1562.57 Q1088.82 1565.82 1085.99 1567.41 Q1083.19 1568.97 1079.46 1568.97 Q1073.32 1568.97 1070.14 1565.15 Q1066.96 1561.33 1066.96 1553.98 M1081.69 1531.54 L1081.69 1531.54 Z" fill="#000000" fill-rule="evenodd" fill-opacity="1" /><path clip-path="url(#clip320)" d="M1136.63 1539.24 Q1138.83 1535.29 1141.88 1533.41 Q1144.94 1531.54 1149.07 1531.54 Q1154.64 1531.54 1157.67 1535.45 Q1160.69 1539.33 1160.69 1546.53 L1160.69 1568.04 L1154.8 1568.04 L1154.8 1546.72 Q1154.8 1541.59 1152.99 1539.11 Q1151.17 1536.63 1147.45 1536.63 Q1142.9 1536.63 1140.26 1539.65 Q1137.62 1542.68 1137.62 1547.9 L1137.62 1568.04 L1131.73 1568.04 L1131.73 1546.72 Q1131.73 1541.56 1129.91 1539.11 Q1128.1 1536.63 1124.31 1536.63 Q1119.82 1536.63 1117.18 1539.68 Q1114.54 1542.71 1114.54 1547.9 L1114.54 1568.04 L1108.65 1568.04 L1108.65 1532.4 L1114.54 1532.4 L1114.54 1537.93 Q1116.55 1534.66 1119.35 1533.1 Q1122.15 1531.54 1126 1531.54 Q1129.88 1531.54 1132.59 1533.51 Q1135.32 1535.48 1136.63 1539.24 Z" fill="#000000" fill-rule="evenodd" fill-opacity="1" /><path clip-path="url(#clip320)" d="M1197.96 1550.25 Q1197.96 1543.79 1195.29 1540.13 Q1192.65 1536.44 1188 1536.44 Q1183.35 1536.44 1180.68 1540.13 Q1178.04 1543.79 1178.04 1550.25 Q1178.04 1556.71 1180.68 1560.4 Q1183.35 1564.07 1188 1564.07 Q1192.65 1564.07 1195.29 1560.4 Q1197.96 1556.71 1197.96 1550.25 M1178.04 1537.81 Q1179.88 1534.62 1182.68 1533.1 Q1185.52 1531.54 1189.43 1531.54 Q1195.93 1531.54 1199.97 1536.69 Q1204.04 1541.85 1204.04 1550.25 Q1204.04 1558.65 1199.97 1563.81 Q1195.93 1568.97 1189.43 1568.97 Q1185.52 1568.97 1182.68 1567.44 Q1179.88 1565.88 1178.04 1562.7 L1178.04 1568.04 L1172.15 1568.04 L1172.15 1518.52 L1178.04 1518.52 L1178.04 1537.81 Z" fill="#000000" fill-rule="evenodd" fill-opacity="1" /><path clip-path="url(#clip320)" d="M1244.24 1548.76 L1244.24 1551.62 L1217.31 1551.62 Q1217.7 1557.67 1220.94 1560.85 Q1224.22 1564 1230.05 1564 Q1233.42 1564 1236.57 1563.17 Q1239.75 1562.35 1242.87 1560.69 L1242.87 1566.23 Q1239.72 1567.57 1236.41 1568.27 Q1233.1 1568.97 1229.7 1568.97 Q1221.17 1568.97 1216.17 1564 Q1211.2 1559.04 1211.2 1550.57 Q1211.2 1541.82 1215.91 1536.69 Q1220.66 1531.54 1228.68 1531.54 Q1235.87 1531.54 1240.04 1536.18 Q1244.24 1540.8 1244.24 1548.76 M1238.38 1547.04 Q1238.32 1542.23 1235.68 1539.37 Q1233.07 1536.5 1228.74 1536.5 Q1223.84 1536.5 1220.88 1539.27 Q1217.95 1542.04 1217.51 1547.07 L1238.38 1547.04 Z" fill="#000000" fill-rule="evenodd" fill-opacity="1" /><path clip-path="url(#clip320)" d="M1274.51 1537.87 Q1273.52 1537.3 1272.35 1537.04 Q1271.2 1536.76 1269.8 1536.76 Q1264.83 1536.76 1262.16 1540 Q1259.52 1543.22 1259.52 1549.27 L1259.52 1568.04 L1253.63 1568.04 L1253.63 1532.4 L1259.52 1532.4 L1259.52 1537.93 Q1261.37 1534.69 1264.33 1533.13 Q1267.29 1531.54 1271.52 1531.54 Q1272.12 1531.54 1272.86 1531.63 Q1273.59 1531.7 1274.48 1531.85 L1274.51 1537.87 Z" fill="#000000" fill-rule="evenodd" fill-opacity="1" /><path clip-path="url(#clip320)" d="M1315.19 1536.5 Q1310.48 1536.5 1307.74 1540.19 Q1305 1543.85 1305 1550.25 Q1305 1556.65 1307.71 1560.34 Q1310.44 1564 1315.19 1564 Q1319.87 1564 1322.6 1560.31 Q1325.34 1556.62 1325.34 1550.25 Q1325.34 1543.92 1322.6 1540.23 Q1319.87 1536.5 1315.19 1536.5 M1315.19 1531.54 Q1322.83 1531.54 1327.19 1536.5 Q1331.55 1541.47 1331.55 1550.25 Q1331.55 1559 1327.19 1564 Q1322.83 1568.97 1315.19 1568.97 Q1307.52 1568.97 1303.16 1564 Q1298.83 1559 1298.83 1550.25 Q1298.83 1541.47 1303.16 1536.5 Q1307.52 1531.54 1315.19 1531.54 Z" fill="#000000" fill-rule="evenodd" fill-opacity="1" /><path clip-path="url(#clip320)" d="M1359.3 1518.52 L1359.3 1523.39 L1353.7 1523.39 Q1350.55 1523.39 1349.31 1524.66 Q1348.1 1525.93 1348.1 1529.24 L1348.1 1532.4 L1357.74 1532.4 L1357.74 1536.95 L1348.1 1536.95 L1348.1 1568.04 L1342.21 1568.04 L1342.21 1536.95 L1336.61 1536.95 L1336.61 1532.4 L1342.21 1532.4 L1342.21 1529.91 Q1342.21 1523.96 1344.98 1521.26 Q1347.75 1518.52 1353.76 1518.52 L1359.3 1518.52 Z" fill="#000000" fill-rule="evenodd" fill-opacity="1" /><path clip-path="url(#clip320)" d="M1408.38 1549.81 Q1408.38 1543.44 1405.74 1539.94 Q1403.13 1536.44 1398.39 1536.44 Q1393.68 1536.44 1391.03 1539.94 Q1388.42 1543.44 1388.42 1549.81 Q1388.42 1556.14 1391.03 1559.64 Q1393.68 1563.14 1398.39 1563.14 Q1403.13 1563.14 1405.74 1559.64 Q1408.38 1556.14 1408.38 1549.81 M1414.24 1563.62 Q1414.24 1572.72 1410.2 1577.15 Q1406.15 1581.6 1397.81 1581.6 Q1394.73 1581.6 1391.99 1581.13 Q1389.25 1580.68 1386.67 1579.72 L1386.67 1574.03 Q1389.25 1575.43 1391.77 1576.1 Q1394.28 1576.76 1396.89 1576.76 Q1402.65 1576.76 1405.52 1573.74 Q1408.38 1570.75 1408.38 1564.67 L1408.38 1561.77 Q1406.57 1564.92 1403.73 1566.48 Q1400.9 1568.04 1396.95 1568.04 Q1390.4 1568.04 1386.39 1563.05 Q1382.38 1558.05 1382.38 1549.81 Q1382.38 1541.53 1386.39 1536.53 Q1390.4 1531.54 1396.95 1531.54 Q1400.9 1531.54 1403.73 1533.1 Q1406.57 1534.66 1408.38 1537.81 L1408.38 1532.4 L1414.24 1532.4 L1414.24 1563.62 Z" fill="#000000" fill-rule="evenodd" fill-opacity="1" /><path clip-path="url(#clip320)" d="M1456.79 1548.76 L1456.79 1551.62 L1429.87 1551.62 Q1430.25 1557.67 1433.49 1560.85 Q1436.77 1564 1442.6 1564 Q1445.97 1564 1449.12 1563.17 Q1452.3 1562.35 1455.42 1560.69 L1455.42 1566.23 Q1452.27 1567.57 1448.96 1568.27 Q1445.65 1568.97 1442.25 1568.97 Q1433.72 1568.97 1428.72 1564 Q1423.75 1559.04 1423.75 1550.57 Q1423.75 1541.82 1428.46 1536.69 Q1433.21 1531.54 1441.23 1531.54 Q1448.42 1531.54 1452.59 1536.18 Q1456.79 1540.8 1456.79 1548.76 M1450.94 1547.04 Q1450.87 1542.23 1448.23 1539.37 Q1445.62 1536.5 1441.29 1536.5 Q1436.39 1536.5 1433.43 1539.27 Q1430.5 1542.04 1430.06 1547.07 L1450.94 1547.04 Z" fill="#000000" fill-rule="evenodd" fill-opacity="1" /><path clip-path="url(#clip320)" d="M1496.04 1546.53 L1496.04 1568.04 L1490.18 1568.04 L1490.18 1546.72 Q1490.18 1541.66 1488.21 1539.14 Q1486.23 1536.63 1482.29 1536.63 Q1477.54 1536.63 1474.81 1539.65 Q1472.07 1542.68 1472.07 1547.9 L1472.07 1568.04 L1466.18 1568.04 L1466.18 1532.4 L1472.07 1532.4 L1472.07 1537.93 Q1474.17 1534.72 1477 1533.13 Q1479.87 1531.54 1483.59 1531.54 Q1489.73 1531.54 1492.89 1535.36 Q1496.04 1539.14 1496.04 1546.53 Z" fill="#000000" fill-rule="evenodd" fill-opacity="1" /><path clip-path="url(#clip320)" d="M1538.21 1548.76 L1538.21 1551.62 L1511.28 1551.62 Q1511.66 1557.67 1514.91 1560.85 Q1518.19 1564 1524.01 1564 Q1527.39 1564 1530.54 1563.17 Q1533.72 1562.35 1536.84 1560.69 L1536.84 1566.23 Q1533.69 1567.57 1530.38 1568.27 Q1527.07 1568.97 1523.66 1568.97 Q1515.13 1568.97 1510.14 1564 Q1505.17 1559.04 1505.17 1550.57 Q1505.17 1541.82 1509.88 1536.69 Q1514.62 1531.54 1522.65 1531.54 Q1529.84 1531.54 1534.01 1536.18 Q1538.21 1540.8 1538.21 1548.76 M1532.35 1547.04 Q1532.29 1542.23 1529.65 1539.37 Q1527.04 1536.5 1522.71 1536.5 Q1517.81 1536.5 1514.85 1539.27 Q1511.92 1542.04 1511.47 1547.07 L1532.35 1547.04 Z" fill="#000000" fill-rule="evenodd" fill-opacity="1" /><path clip-path="url(#clip320)" d="M1570.55 1533.45 L1570.55 1538.98 Q1568.06 1537.71 1565.39 1537.07 Q1562.72 1536.44 1559.85 1536.44 Q1555.49 1536.44 1553.3 1537.77 Q1551.13 1539.11 1551.13 1541.79 Q1551.13 1543.82 1552.69 1545 Q1554.25 1546.15 1558.96 1547.2 L1560.97 1547.64 Q1567.21 1548.98 1569.82 1551.43 Q1572.46 1553.85 1572.46 1558.21 Q1572.46 1563.17 1568.51 1566.07 Q1564.6 1568.97 1557.72 1568.97 Q1554.86 1568.97 1551.74 1568.39 Q1548.65 1567.85 1545.21 1566.74 L1545.21 1560.69 Q1548.46 1562.38 1551.61 1563.24 Q1554.76 1564.07 1557.85 1564.07 Q1561.99 1564.07 1564.21 1562.66 Q1566.44 1561.23 1566.44 1558.65 Q1566.44 1556.27 1564.82 1554.99 Q1563.23 1553.72 1557.78 1552.54 L1555.75 1552.07 Q1550.3 1550.92 1547.89 1548.56 Q1545.47 1546.18 1545.47 1542.04 Q1545.47 1537.01 1549.03 1534.27 Q1552.6 1531.54 1559.15 1531.54 Q1562.4 1531.54 1565.26 1532.01 Q1568.13 1532.49 1570.55 1533.45 Z" fill="#000000" fill-rule="evenodd" fill-opacity="1" /><polyline clip-path="url(#clip320)" style="stroke:#000000; stroke-linecap:butt; stroke-linejoin:round; stroke-width:4; stroke-opacity:1; fill:none" points="
  238.756,1423.18 238.756,47.2441 
  "/>
<polyline clip-path="url(#clip320)" style="stroke:#000000; stroke-linecap:butt; stroke-linejoin:round; stroke-width:4; stroke-opacity:1; fill:none" points="
  238.756,1160.36 257.653,1160.36 
  "/>
<polyline clip-path="url(#clip320)" style="stroke:#000000; stroke-linecap:butt; stroke-linejoin:round; stroke-width:4; stroke-opacity:1; fill:none" points="
  238.756,891.851 257.653,891.851 
  "/>
<polyline clip-path="url(#clip320)" style="stroke:#000000; stroke-linecap:butt; stroke-linejoin:round; stroke-width:4; stroke-opacity:1; fill:none" points="
  238.756,623.343 257.653,623.343 
  "/>
<polyline clip-path="url(#clip320)" style="stroke:#000000; stroke-linecap:butt; stroke-linejoin:round; stroke-width:4; stroke-opacity:1; fill:none" points="
  238.756,354.835 257.653,354.835 
  "/>
<polyline clip-path="url(#clip320)" style="stroke:#000000; stroke-linecap:butt; stroke-linejoin:round; stroke-width:4; stroke-opacity:1; fill:none" points="
  238.756,86.3274 257.653,86.3274 
  "/>
<path clip-path="url(#clip320)" d="M146.575 1146.16 Q142.964 1146.16 141.136 1149.72 Q139.33 1153.26 139.33 1160.39 Q139.33 1167.5 141.136 1171.07 Q142.964 1174.61 146.575 1174.61 Q150.21 1174.61 152.015 1171.07 Q153.844 1167.5 153.844 1160.39 Q153.844 1153.26 152.015 1149.72 Q150.21 1146.16 146.575 1146.16 M146.575 1142.45 Q152.386 1142.45 155.441 1147.06 Q158.52 1151.64 158.52 1160.39 Q158.52 1169.12 155.441 1173.73 Q152.386 1178.31 146.575 1178.31 Q140.765 1178.31 137.687 1173.73 Q134.631 1169.12 134.631 1160.39 Q134.631 1151.64 137.687 1147.06 Q140.765 1142.45 146.575 1142.45 Z" fill="#000000" fill-rule="evenodd" fill-opacity="1" /><path clip-path="url(#clip320)" d="M166.737 1171.76 L171.622 1171.76 L171.622 1177.64 L166.737 1177.64 L166.737 1171.76 Z" fill="#000000" fill-rule="evenodd" fill-opacity="1" /><path clip-path="url(#clip320)" d="M181.853 1143.08 L200.209 1143.08 L200.209 1147.01 L186.135 1147.01 L186.135 1155.49 Q187.154 1155.14 188.172 1154.98 Q189.191 1154.79 190.209 1154.79 Q195.996 1154.79 199.376 1157.96 Q202.756 1161.13 202.756 1166.55 Q202.756 1172.13 199.283 1175.23 Q195.811 1178.31 189.492 1178.31 Q187.316 1178.31 185.047 1177.94 Q182.802 1177.57 180.395 1176.83 L180.395 1172.13 Q182.478 1173.26 184.7 1173.82 Q186.922 1174.38 189.399 1174.38 Q193.404 1174.38 195.742 1172.27 Q198.08 1170.16 198.08 1166.55 Q198.08 1162.94 195.742 1160.83 Q193.404 1158.73 189.399 1158.73 Q187.524 1158.73 185.649 1159.14 Q183.797 1159.56 181.853 1160.44 L181.853 1143.08 Z" fill="#000000" fill-rule="evenodd" fill-opacity="1" /><path clip-path="url(#clip320)" d="M136.39 905.196 L144.029 905.196 L144.029 878.83 L135.719 880.497 L135.719 876.238 L143.983 874.571 L148.659 874.571 L148.659 905.196 L156.298 905.196 L156.298 909.131 L136.39 909.131 L136.39 905.196 Z" fill="#000000" fill-rule="evenodd" fill-opacity="1" /><path clip-path="url(#clip320)" d="M165.742 903.252 L170.626 903.252 L170.626 909.131 L165.742 909.131 L165.742 903.252 Z" fill="#000000" fill-rule="evenodd" fill-opacity="1" /><path clip-path="url(#clip320)" d="M190.811 877.65 Q187.2 877.65 185.371 881.215 Q183.566 884.756 183.566 891.886 Q183.566 898.992 185.371 902.557 Q187.2 906.099 190.811 906.099 Q194.446 906.099 196.251 902.557 Q198.08 898.992 198.08 891.886 Q198.08 884.756 196.251 881.215 Q194.446 877.65 190.811 877.65 M190.811 873.946 Q196.621 873.946 199.677 878.553 Q202.756 883.136 202.756 891.886 Q202.756 900.613 199.677 905.219 Q196.621 909.803 190.811 909.803 Q185.001 909.803 181.922 905.219 Q178.867 900.613 178.867 891.886 Q178.867 883.136 181.922 878.553 Q185.001 873.946 190.811 873.946 Z" fill="#000000" fill-rule="evenodd" fill-opacity="1" /><path clip-path="url(#clip320)" d="M137.386 636.688 L145.024 636.688 L145.024 610.323 L136.714 611.989 L136.714 607.73 L144.978 606.063 L149.654 606.063 L149.654 636.688 L157.293 636.688 L157.293 640.623 L137.386 640.623 L137.386 636.688 Z" fill="#000000" fill-rule="evenodd" fill-opacity="1" /><path clip-path="url(#clip320)" d="M166.737 634.744 L171.622 634.744 L171.622 640.623 L166.737 640.623 L166.737 634.744 Z" fill="#000000" fill-rule="evenodd" fill-opacity="1" /><path clip-path="url(#clip320)" d="M181.853 606.063 L200.209 606.063 L200.209 609.998 L186.135 609.998 L186.135 618.471 Q187.154 618.123 188.172 617.961 Q189.191 617.776 190.209 617.776 Q195.996 617.776 199.376 620.947 Q202.756 624.119 202.756 629.535 Q202.756 635.114 199.283 638.216 Q195.811 641.295 189.492 641.295 Q187.316 641.295 185.047 640.924 Q182.802 640.554 180.395 639.813 L180.395 635.114 Q182.478 636.248 184.7 636.804 Q186.922 637.359 189.399 637.359 Q193.404 637.359 195.742 635.253 Q198.08 633.146 198.08 629.535 Q198.08 625.924 195.742 623.818 Q193.404 621.711 189.399 621.711 Q187.524 621.711 185.649 622.128 Q183.797 622.545 181.853 623.424 L181.853 606.063 Z" fill="#000000" fill-rule="evenodd" fill-opacity="1" /><path clip-path="url(#clip320)" d="M139.608 368.18 L155.927 368.18 L155.927 372.115 L133.983 372.115 L133.983 368.18 Q136.645 365.426 141.228 360.796 Q145.835 356.143 147.015 354.801 Q149.261 352.278 150.14 350.541 Q151.043 348.782 151.043 347.092 Q151.043 344.338 149.099 342.602 Q147.177 340.866 144.075 340.866 Q141.876 340.866 139.423 341.629 Q136.992 342.393 134.214 343.944 L134.214 339.222 Q137.038 338.088 139.492 337.509 Q141.946 336.93 143.983 336.93 Q149.353 336.93 152.548 339.616 Q155.742 342.301 155.742 346.791 Q155.742 348.921 154.932 350.842 Q154.145 352.74 152.038 355.333 Q151.46 356.004 148.358 359.222 Q145.256 362.416 139.608 368.18 Z" fill="#000000" fill-rule="evenodd" fill-opacity="1" /><path clip-path="url(#clip320)" d="M165.742 366.236 L170.626 366.236 L170.626 372.115 L165.742 372.115 L165.742 366.236 Z" fill="#000000" fill-rule="evenodd" fill-opacity="1" /><path clip-path="url(#clip320)" d="M190.811 340.634 Q187.2 340.634 185.371 344.199 Q183.566 347.741 183.566 354.87 Q183.566 361.977 185.371 365.541 Q187.2 369.083 190.811 369.083 Q194.446 369.083 196.251 365.541 Q198.08 361.977 198.08 354.87 Q198.08 347.741 196.251 344.199 Q194.446 340.634 190.811 340.634 M190.811 336.93 Q196.621 336.93 199.677 341.537 Q202.756 346.12 202.756 354.87 Q202.756 363.597 199.677 368.203 Q196.621 372.787 190.811 372.787 Q185.001 372.787 181.922 368.203 Q178.867 363.597 178.867 354.87 Q178.867 346.12 181.922 341.537 Q185.001 336.93 190.811 336.93 Z" fill="#000000" fill-rule="evenodd" fill-opacity="1" /><path clip-path="url(#clip320)" d="M140.603 99.6723 L156.923 99.6723 L156.923 103.607 L134.978 103.607 L134.978 99.6723 Q137.64 96.9177 142.224 92.2881 Q146.83 87.6353 148.011 86.2927 Q150.256 83.7696 151.136 82.0335 Q152.038 80.2742 152.038 78.5844 Q152.038 75.8298 150.094 74.0937 Q148.173 72.3576 145.071 72.3576 Q142.872 72.3576 140.418 73.1215 Q137.987 73.8854 135.21 75.4363 L135.21 70.7141 Q138.034 69.5798 140.487 69.0011 Q142.941 68.4224 144.978 68.4224 Q150.349 68.4224 153.543 71.1076 Q156.737 73.7928 156.737 78.2835 Q156.737 80.4131 155.927 82.3344 Q155.14 84.2325 153.034 86.8251 Q152.455 87.4964 149.353 90.714 Q146.251 93.9084 140.603 99.6723 Z" fill="#000000" fill-rule="evenodd" fill-opacity="1" /><path clip-path="url(#clip320)" d="M166.737 97.7278 L171.622 97.7278 L171.622 103.607 L166.737 103.607 L166.737 97.7278 Z" fill="#000000" fill-rule="evenodd" fill-opacity="1" /><path clip-path="url(#clip320)" d="M181.853 69.0474 L200.209 69.0474 L200.209 72.9826 L186.135 72.9826 L186.135 81.4548 Q187.154 81.1076 188.172 80.9455 Q189.191 80.7603 190.209 80.7603 Q195.996 80.7603 199.376 83.9316 Q202.756 87.1029 202.756 92.5195 Q202.756 98.0982 199.283 101.2 Q195.811 104.279 189.492 104.279 Q187.316 104.279 185.047 103.908 Q182.802 103.538 180.395 102.797 L180.395 98.0982 Q182.478 99.2325 184.7 99.788 Q186.922 100.344 189.399 100.344 Q193.404 100.344 195.742 98.2371 Q198.08 96.1306 198.08 92.5195 Q198.08 88.9084 195.742 86.802 Q193.404 84.6955 189.399 84.6955 Q187.524 84.6955 185.649 85.1122 Q183.797 85.5288 181.853 86.4085 L181.853 69.0474 Z" fill="#000000" fill-rule="evenodd" fill-opacity="1" /><path clip-path="url(#clip320)" d="M44.0232 922.599 L55.424 923.92 Q56.4546 924.016 56.7767 924.177 Q57.0665 924.338 57.0665 924.854 Q57.0665 925.627 56.2936 925.627 Q55.9715 925.627 55.102 925.498 Q53.3307 925.305 51.5271 925.305 Q49.4982 925.305 48.2421 925.691 Q46.9539 926.045 46.0199 927.076 Q45.086 928.106 44.6995 930.007 Q44.2808 931.907 44.2808 934.934 L44.2808 943.63 Q44.2808 945.755 44.6673 946.271 Q45.0537 946.754 46.8573 947.205 L63.6043 951.423 L63.6043 945.433 Q63.6043 941.246 62.3805 939.604 Q61.1567 937.961 57.2598 936.931 Q56.6479 936.77 56.4224 936.705 Q56.1648 936.609 56.0359 936.448 Q55.8749 936.255 55.8749 935.932 Q55.8749 935.643 56.0682 935.449 Q56.2292 935.256 56.4224 935.192 L56.6157 935.127 Q56.9377 935.127 57.6784 935.321 L71.9778 938.96 Q72.944 939.217 73.1695 939.378 Q73.3627 939.507 73.3627 939.958 Q73.3627 940.28 73.1373 940.506 Q72.9118 940.731 72.5576 940.731 Q72.1711 940.667 71.849 940.538 Q69.8845 940.087 68.6284 940.087 Q67.8233 940.087 67.3402 940.248 Q66.8571 940.409 66.4384 940.957 Q66.0198 941.504 65.8265 942.631 Q65.6333 943.758 65.6333 945.562 L65.6333 951.939 L82.0583 956.029 L83.572 956.319 Q84.2483 956.319 84.5059 955.965 Q84.7636 955.578 84.8924 954.193 Q85.0534 952.132 85.0534 950.779 Q85.0534 949.105 85.1178 948.911 Q85.3111 948.525 85.8264 948.525 Q86.4061 948.525 86.7281 948.783 Q87.018 949.04 87.0502 949.266 Q87.0824 949.491 87.0824 949.91 L86.8892 959.733 L87.0824 968.428 Q87.0824 969.427 86.2773 969.427 Q85.6653 969.427 85.4077 969.169 Q85.1178 968.911 85.0856 968.621 Q85.0534 968.332 85.0534 967.591 Q85.0534 965.981 84.9568 965.014 Q84.8602 964.048 84.7314 963.436 Q84.5703 962.792 84.1195 962.47 Q83.6686 962.116 83.2821 961.955 Q82.8634 961.794 81.9295 961.568 L47.0505 952.873 Q45.8589 952.551 45.4724 952.551 Q45.0537 952.551 44.7961 952.841 Q44.5385 953.098 44.4418 953.807 Q44.313 954.515 44.313 955.095 Q44.2808 955.642 44.2808 956.834 Q44.2808 957.607 44.2486 957.929 Q44.2164 958.219 44.0554 958.444 Q43.8943 958.67 43.5401 958.67 Q42.6383 958.67 42.4451 958.283 Q42.2196 957.865 42.2196 956.705 L42.2196 924.371 Q42.2196 923.082 42.5095 922.792 Q42.7671 922.47 44.0232 922.599 Z" fill="#000000" fill-rule="evenodd" fill-opacity="1" /><path clip-path="url(#clip320)" d="M44.0232 880.621 L55.424 881.941 Q56.4546 882.038 56.7767 882.199 Q57.0665 882.36 57.0665 882.875 Q57.0665 883.648 56.2936 883.648 Q55.9715 883.648 55.102 883.519 Q53.3307 883.326 51.5271 883.326 Q49.4982 883.326 48.2421 883.713 Q46.9539 884.067 46.0199 885.097 Q45.086 886.128 44.6995 888.028 Q44.2808 889.928 44.2808 892.956 L44.2808 901.651 Q44.2808 903.777 44.6673 904.292 Q45.0537 904.775 46.8573 905.226 L63.6043 909.445 L63.6043 903.455 Q63.6043 899.268 62.3805 897.626 Q61.1567 895.983 57.2598 894.952 Q56.6479 894.791 56.4224 894.727 Q56.1648 894.63 56.0359 894.469 Q55.8749 894.276 55.8749 893.954 Q55.8749 893.664 56.0682 893.471 Q56.2292 893.278 56.4224 893.213 L56.6157 893.149 Q56.9377 893.149 57.6784 893.342 L71.9778 896.981 Q72.944 897.239 73.1695 897.4 Q73.3627 897.529 73.3627 897.98 Q73.3627 898.302 73.1373 898.527 Q72.9118 898.753 72.5576 898.753 Q72.1711 898.688 71.849 898.559 Q69.8845 898.109 68.6284 898.109 Q67.8233 898.109 67.3402 898.27 Q66.8571 898.431 66.4384 898.978 Q66.0198 899.526 65.8265 900.653 Q65.6333 901.78 65.6333 903.584 L65.6333 909.96 L82.0583 914.05 L83.572 914.34 Q84.2483 914.34 84.5059 913.986 Q84.7636 913.6 84.8924 912.215 Q85.0534 910.154 85.0534 908.801 Q85.0534 907.126 85.1178 906.933 Q85.3111 906.547 85.8264 906.547 Q86.4061 906.547 86.7281 906.804 Q87.018 907.062 87.0502 907.287 Q87.0824 907.513 87.0824 907.931 L86.8892 917.754 L87.0824 926.45 Q87.0824 927.448 86.2773 927.448 Q85.6653 927.448 85.4077 927.19 Q85.1178 926.933 85.0856 926.643 Q85.0534 926.353 85.0534 925.612 Q85.0534 924.002 84.9568 923.036 Q84.8602 922.07 84.7314 921.458 Q84.5703 920.814 84.1195 920.492 Q83.6686 920.137 83.2821 919.976 Q82.8634 919.815 81.9295 919.59 L47.0505 910.894 Q45.8589 910.572 45.4724 910.572 Q45.0537 910.572 44.7961 910.862 Q44.5385 911.12 44.4418 911.828 Q44.313 912.537 44.313 913.117 Q44.2808 913.664 44.2808 914.856 Q44.2808 915.629 44.2486 915.951 Q44.2164 916.24 44.0554 916.466 Q43.8943 916.691 43.5401 916.691 Q42.6383 916.691 42.4451 916.305 Q42.2196 915.886 42.2196 914.727 L42.2196 882.392 Q42.2196 881.104 42.5095 880.814 Q42.7671 880.492 44.0232 880.621 Z" fill="#000000" fill-rule="evenodd" fill-opacity="1" /><path clip-path="url(#clip320)" d="M86.1794 849.786 Q89.4708 849.786 92.6496 851.454 Q95.8283 853.1 97.7896 855.692 Q99.7284 858.285 99.7284 860.923 Q99.7284 862.501 98.8717 863.56 Q97.9925 864.597 96.7526 865.161 Q98.2856 865.589 101.96 866.514 Q105.635 867.438 105.996 867.438 Q106.199 867.438 106.289 867.393 Q106.379 867.348 106.492 867.145 Q106.627 866.942 106.672 866.446 Q106.74 865.95 106.74 865.116 Q106.74 864.688 106.74 864.53 Q106.762 864.349 106.875 864.192 Q106.988 864.011 107.236 864.011 Q108.16 864.011 108.16 864.845 Q108.16 865.589 108.092 867.122 Q108.025 868.655 108.025 869.422 Q108.025 870.076 108.092 871.383 Q108.16 872.691 108.16 873.299 Q108.16 873.908 107.619 873.908 Q107.303 873.908 107.1 873.818 Q106.92 873.75 106.83 873.57 Q106.762 873.39 106.74 873.232 Q106.74 873.097 106.74 872.826 Q106.74 871.789 106.559 871.338 Q106.401 870.887 106.063 870.729 Q105.748 870.549 104.846 870.346 L84.2857 865.161 Q82.9105 864.845 81.9411 864.845 Q80.7237 864.845 80.2729 865.229 Q79.822 865.612 79.822 866.288 Q79.822 867.461 81.2197 868.227 Q82.6174 868.994 85.3227 869.647 Q86.0667 869.85 86.2245 869.985 Q86.3823 870.098 86.3823 870.436 Q86.3598 871 85.9089 871 Q85.7962 871 85.0747 870.82 Q84.3308 870.639 83.2487 870.301 Q82.144 869.94 81.4451 869.557 Q80.9717 869.332 80.6561 869.129 Q80.3405 868.926 79.8445 868.52 Q79.3485 868.092 79.078 867.483 Q78.8075 866.874 78.8075 866.13 Q78.8075 864.688 79.6642 863.493 Q80.5208 862.298 82.2567 861.982 Q80.7463 860.697 79.7769 859.119 Q78.8075 857.541 78.8075 855.94 Q78.8075 853.28 80.8815 851.544 Q82.9331 849.786 86.1794 849.786 M84.1504 853.122 Q82.0989 853.122 80.9717 853.912 Q79.822 854.678 79.822 856.076 Q79.822 857.812 81.5804 859.818 Q83.2487 861.802 84.8042 862.208 L93.8444 864.485 L94.5884 864.62 Q94.7236 864.62 95.1294 864.552 Q95.5127 864.462 96.1439 864.214 Q96.7751 863.944 97.3387 863.583 Q97.8798 863.2 98.2856 862.523 Q98.6914 861.824 98.6914 860.968 Q98.6914 859.593 97.474 858.105 Q96.2566 856.594 93.9571 855.467 Q92.4692 854.768 89.2679 853.957 Q86.0441 853.122 84.1504 853.122 Z" fill="#000000" fill-rule="evenodd" fill-opacity="1" /><path clip-path="url(#clip320)" d="M29.9626 873.908 Q22.1624 873.908 15.8726 871 Q13.2349 869.76 11.0256 868.024 Q8.81626 866.288 7.84686 865.138 Q6.87747 863.989 6.87747 863.673 Q6.87747 863.222 7.32835 863.2 Q7.55379 863.2 8.11739 863.808 Q15.6922 871.248 29.9626 871.225 Q44.2781 871.225 51.5599 863.989 Q52.3489 863.2 52.5969 863.2 Q53.0478 863.2 53.0478 863.673 Q53.0478 863.989 52.1235 865.093 Q51.1992 866.198 49.08 867.911 Q46.9609 869.625 44.3683 870.865 Q38.0785 873.908 29.9626 873.908 Z" fill="#000000" fill-rule="evenodd" fill-opacity="1" /><path clip-path="url(#clip320)" d="M24.3266 829.12 Q26.0625 829.12 29.895 830.067 Q33.7275 831.014 36.3426 832.164 Q42.0237 834.621 42.0237 838.859 Q42.0237 839.378 41.9786 839.896 Q41.9335 840.392 41.7307 841.136 Q41.5278 841.88 41.2121 842.489 Q40.874 843.098 40.2427 843.706 Q39.6115 844.293 38.7774 844.631 Q42.0237 846.502 42.0237 849.433 Q42.0237 852.273 40.5809 854.144 Q39.1381 855.993 36.1848 855.993 Q34.8547 855.993 32.8934 855.452 Q30.932 854.911 26.8741 853.4 Q24.7775 852.566 23.6277 852.566 Q23.1092 852.566 22.7711 852.679 Q22.4329 852.792 22.3202 853.017 Q22.1849 853.22 22.1624 853.355 Q22.1173 853.491 22.1173 853.716 Q22.1173 855.069 23.4925 856.286 Q24.8451 857.503 27.8435 858.383 Q28.4071 858.563 28.5424 858.676 Q28.6776 858.788 28.6776 859.127 Q28.6551 859.69 28.2042 859.69 Q28.0238 859.69 27.325 859.487 Q26.6036 859.284 25.544 858.811 Q24.4619 858.315 23.4925 857.639 Q22.5005 856.962 21.8017 855.903 Q21.1028 854.821 21.1028 853.581 Q21.1028 851.912 22.2075 850.853 Q23.3121 849.793 24.8902 849.793 Q25.3411 849.793 25.8371 849.906 Q26.3105 850.019 26.6261 850.131 Q26.9192 850.222 27.8435 850.582 Q31.7436 852.07 33.6148 852.544 Q35.4859 852.995 36.7935 852.995 Q37.2218 852.995 37.56 852.972 Q37.8982 852.949 38.597 852.769 Q39.2959 852.566 39.7693 852.206 Q40.2202 851.845 40.6034 851.101 Q40.9867 850.334 40.9867 849.297 Q40.9867 846.705 37.1091 845.036 Q36.8837 845.082 36.2975 845.082 Q34.99 845.082 33.2315 844.676 Q32.8257 844.563 30.2332 843.909 Q27.618 843.255 25.3411 842.692 Q23.0416 842.106 22.9063 842.038 Q22.2751 841.813 21.9369 841.317 Q21.5988 840.821 21.5988 840.325 Q21.5988 839.761 21.9369 839.378 Q22.2751 838.995 22.8612 838.995 Q22.974 838.995 23.4925 839.13 Q23.9884 839.243 24.7324 839.423 Q25.4764 839.603 25.8596 839.694 L33.6148 841.632 Q35.4183 842.128 36.9738 842.128 Q38.9352 842.128 39.9722 841.249 Q40.9867 840.37 40.9867 838.724 Q40.9867 835.636 36.9288 833.652 Q35.1703 832.75 32.4199 831.938 Q29.6696 831.104 28.4747 831.104 Q26.2203 831.104 24.552 832.772 Q24.2364 833.133 23.9884 833.291 Q23.7179 833.449 23.3121 833.449 Q22.5456 833.449 21.8242 832.727 Q21.1028 832.006 21.1028 831.149 Q21.1028 830.383 21.8693 829.752 Q22.6133 829.12 24.3266 829.12 Z" fill="#000000" fill-rule="evenodd" fill-opacity="1" /><path clip-path="url(#clip320)" d="M36.1623 807.671 Q36.3652 807.49 36.5681 807.49 Q36.7709 807.49 37.3571 807.941 Q37.9432 808.369 38.7323 809.294 Q39.5213 810.218 40.2653 811.413 Q41.0092 812.608 41.5052 814.366 Q42.0237 816.125 42.0237 817.973 Q42.0237 821.423 39.7468 823.451 Q37.4698 825.458 34.2009 825.458 Q31.0222 825.458 27.9787 823.677 Q24.9127 821.896 23.019 819.01 Q21.1028 816.125 21.1028 813.081 Q21.1028 810.669 22.23 809.159 Q23.3572 807.648 25.0706 807.648 Q26.4007 807.648 27.2122 808.415 Q28.0238 809.181 28.0238 810.218 Q28.0238 810.94 27.618 811.435 Q27.1897 811.931 26.4007 811.931 Q25.3862 811.931 24.5971 811.097 Q24.2815 810.782 24.1463 810.421 Q23.9884 810.038 23.9884 809.812 Q23.9659 809.587 23.9659 809.068 Q23.0867 809.542 22.6133 810.669 Q22.1173 811.774 22.1173 813.036 Q22.1173 814.907 23.4248 816.688 Q24.7099 818.469 26.7388 819.551 Q28.7227 820.633 31.5407 821.332 Q34.3362 822.031 35.9594 822.031 Q38.1912 822.031 39.589 820.994 Q40.9867 819.957 40.9867 817.883 Q40.9867 817.477 40.9642 817.049 Q40.9416 816.598 40.6936 815.471 Q40.4456 814.321 40.0173 813.307 Q39.589 812.292 38.6647 811.007 Q37.7178 809.7 36.4328 808.663 Q35.9594 808.302 35.9594 808.054 Q35.9594 807.851 36.1623 807.671 Z" fill="#000000" fill-rule="evenodd" fill-opacity="1" /><path clip-path="url(#clip320)" d="M52.5969 805.12 Q52.3715 805.12 51.8079 804.534 Q44.233 797.094 29.9626 797.094 Q15.6471 797.094 8.41047 804.241 Q7.57633 805.12 7.32835 805.12 Q6.87747 805.12 6.87747 804.669 Q6.87747 804.354 7.80178 803.249 Q8.72608 802.122 10.8452 800.431 Q12.9644 798.718 15.5569 797.455 Q21.8468 794.412 29.9626 794.412 Q37.7629 794.412 44.0527 797.32 Q46.6904 798.56 48.8997 800.296 Q51.109 802.032 52.0784 803.181 Q53.0478 804.331 53.0478 804.669 Q53.0478 805.12 52.5969 805.12 Z" fill="#000000" fill-rule="evenodd" fill-opacity="1" /><path clip-path="url(#clip320)" d="M69.659 718.506 Q70.0455 718.119 70.593 718.119 Q71.1405 718.119 71.527 718.506 Q71.9134 718.892 71.9134 719.44 L71.9134 760.728 Q71.9134 761.275 71.527 761.662 Q71.1405 762.048 70.593 762.048 Q70.0455 762.048 69.659 761.662 Q69.2726 761.275 69.2726 760.728 L69.2726 719.44 Q69.2726 718.892 69.659 718.506 Z" fill="#000000" fill-rule="evenodd" fill-opacity="1" /><path clip-path="url(#clip320)" d="M44.0232 646.104 L55.424 647.424 Q56.4546 647.521 56.7767 647.682 Q57.0665 647.843 57.0665 648.358 Q57.0665 649.131 56.2936 649.131 Q55.9715 649.131 55.102 649.003 Q53.3307 648.809 51.5271 648.809 Q49.4982 648.809 48.2421 649.196 Q46.9539 649.55 46.0199 650.581 Q45.086 651.611 44.6995 653.511 Q44.2808 655.412 44.2808 658.439 L44.2808 667.134 Q44.2808 669.26 44.6673 669.775 Q45.0537 670.258 46.8573 670.709 L63.6043 674.928 L63.6043 668.938 Q63.6043 664.751 62.3805 663.109 Q61.1567 661.466 57.2598 660.436 Q56.6479 660.275 56.4224 660.21 Q56.1648 660.114 56.0359 659.953 Q55.8749 659.759 55.8749 659.437 Q55.8749 659.147 56.0682 658.954 Q56.2292 658.761 56.4224 658.697 L56.6157 658.632 Q56.9377 658.632 57.6784 658.825 L71.9778 662.465 Q72.944 662.722 73.1695 662.883 Q73.3627 663.012 73.3627 663.463 Q73.3627 663.785 73.1373 664.01 Q72.9118 664.236 72.5576 664.236 Q72.1711 664.172 71.849 664.043 Q69.8845 663.592 68.6284 663.592 Q67.8233 663.592 67.3402 663.753 Q66.8571 663.914 66.4384 664.461 Q66.0198 665.009 65.8265 666.136 Q65.6333 667.263 65.6333 669.067 L65.6333 675.444 L82.0583 679.534 L83.572 679.824 Q84.2483 679.824 84.5059 679.469 Q84.7636 679.083 84.8924 677.698 Q85.0534 675.637 85.0534 674.284 Q85.0534 672.609 85.1178 672.416 Q85.3111 672.03 85.8264 672.03 Q86.4061 672.03 86.7281 672.287 Q87.018 672.545 87.0502 672.77 Q87.0824 672.996 87.0824 673.415 L86.8892 683.237 L87.0824 691.933 Q87.0824 692.931 86.2773 692.931 Q85.6653 692.931 85.4077 692.674 Q85.1178 692.416 85.0856 692.126 Q85.0534 691.836 85.0534 691.096 Q85.0534 689.485 84.9568 688.519 Q84.8602 687.553 84.7314 686.941 Q84.5703 686.297 84.1195 685.975 Q83.6686 685.621 83.2821 685.46 Q82.8634 685.299 81.9295 685.073 L47.0505 676.378 Q45.8589 676.055 45.4724 676.055 Q45.0537 676.055 44.7961 676.345 Q44.5385 676.603 44.4418 677.312 Q44.313 678.02 44.313 678.6 Q44.2808 679.147 44.2808 680.339 Q44.2808 681.112 44.2486 681.434 Q44.2164 681.724 44.0554 681.949 Q43.8943 682.175 43.5401 682.175 Q42.6383 682.175 42.4451 681.788 Q42.2196 681.369 42.2196 680.21 L42.2196 647.875 Q42.2196 646.587 42.5095 646.297 Q42.7671 645.975 44.0232 646.104 Z" fill="#000000" fill-rule="evenodd" fill-opacity="1" /><path clip-path="url(#clip320)" d="M44.0232 604.126 L55.424 605.446 Q56.4546 605.543 56.7767 605.704 Q57.0665 605.865 57.0665 606.38 Q57.0665 607.153 56.2936 607.153 Q55.9715 607.153 55.102 607.024 Q53.3307 606.831 51.5271 606.831 Q49.4982 606.831 48.2421 607.217 Q46.9539 607.572 46.0199 608.602 Q45.086 609.633 44.6995 611.533 Q44.2808 613.433 44.2808 616.46 L44.2808 625.156 Q44.2808 627.282 44.6673 627.797 Q45.0537 628.28 46.8573 628.731 L63.6043 632.95 L63.6043 626.96 Q63.6043 622.773 62.3805 621.13 Q61.1567 619.488 57.2598 618.457 Q56.6479 618.296 56.4224 618.232 Q56.1648 618.135 56.0359 617.974 Q55.8749 617.781 55.8749 617.459 Q55.8749 617.169 56.0682 616.976 Q56.2292 616.783 56.4224 616.718 L56.6157 616.654 Q56.9377 616.654 57.6784 616.847 L71.9778 620.486 Q72.944 620.744 73.1695 620.905 Q73.3627 621.034 73.3627 621.485 Q73.3627 621.807 73.1373 622.032 Q72.9118 622.257 72.5576 622.257 Q72.1711 622.193 71.849 622.064 Q69.8845 621.613 68.6284 621.613 Q67.8233 621.613 67.3402 621.774 Q66.8571 621.935 66.4384 622.483 Q66.0198 623.03 65.8265 624.158 Q65.6333 625.285 65.6333 627.088 L65.6333 633.465 L82.0583 637.555 L83.572 637.845 Q84.2483 637.845 84.5059 637.491 Q84.7636 637.104 84.8924 635.72 Q85.0534 633.658 85.0534 632.306 Q85.0534 630.631 85.1178 630.438 Q85.3111 630.051 85.8264 630.051 Q86.4061 630.051 86.7281 630.309 Q87.018 630.567 87.0502 630.792 Q87.0824 631.017 87.0824 631.436 L86.8892 641.259 L87.0824 649.955 Q87.0824 650.953 86.2773 650.953 Q85.6653 650.953 85.4077 650.695 Q85.1178 650.438 85.0856 650.148 Q85.0534 649.858 85.0534 649.117 Q85.0534 647.507 84.9568 646.541 Q84.8602 645.575 84.7314 644.963 Q84.5703 644.319 84.1195 643.996 Q83.6686 643.642 83.2821 643.481 Q82.8634 643.32 81.9295 643.095 L47.0505 634.399 Q45.8589 634.077 45.4724 634.077 Q45.0537 634.077 44.7961 634.367 Q44.5385 634.625 44.4418 635.333 Q44.313 636.042 44.313 636.621 Q44.2808 637.169 44.2808 638.36 Q44.2808 639.133 44.2486 639.455 Q44.2164 639.745 44.0554 639.971 Q43.8943 640.196 43.5401 640.196 Q42.6383 640.196 42.4451 639.81 Q42.2196 639.391 42.2196 638.232 L42.2196 605.897 Q42.2196 604.609 42.5095 604.319 Q42.7671 603.997 44.0232 604.126 Z" fill="#000000" fill-rule="evenodd" fill-opacity="1" /><path clip-path="url(#clip320)" d="M86.1794 573.291 Q89.4708 573.291 92.6496 574.959 Q95.8283 576.605 97.7896 579.197 Q99.7284 581.79 99.7284 584.428 Q99.7284 586.006 98.8717 587.065 Q97.9925 588.102 96.7526 588.666 Q98.2856 589.094 101.96 590.018 Q105.635 590.943 105.996 590.943 Q106.199 590.943 106.289 590.898 Q106.379 590.853 106.492 590.65 Q106.627 590.447 106.672 589.951 Q106.74 589.455 106.74 588.621 Q106.74 588.192 106.74 588.035 Q106.762 587.854 106.875 587.696 Q106.988 587.516 107.236 587.516 Q108.16 587.516 108.16 588.35 Q108.16 589.094 108.092 590.627 Q108.025 592.16 108.025 592.927 Q108.025 593.58 108.092 594.888 Q108.16 596.196 108.16 596.804 Q108.16 597.413 107.619 597.413 Q107.303 597.413 107.1 597.323 Q106.92 597.255 106.83 597.075 Q106.762 596.894 106.74 596.737 Q106.74 596.601 106.74 596.331 Q106.74 595.294 106.559 594.843 Q106.401 594.392 106.063 594.234 Q105.748 594.054 104.846 593.851 L84.2857 588.666 Q82.9105 588.35 81.9411 588.35 Q80.7237 588.35 80.2729 588.733 Q79.822 589.117 79.822 589.793 Q79.822 590.965 81.2197 591.732 Q82.6174 592.498 85.3227 593.152 Q86.0667 593.355 86.2245 593.49 Q86.3823 593.603 86.3823 593.941 Q86.3598 594.505 85.9089 594.505 Q85.7962 594.505 85.0747 594.324 Q84.3308 594.144 83.2487 593.806 Q82.144 593.445 81.4451 593.062 Q80.9717 592.836 80.6561 592.634 Q80.3405 592.431 79.8445 592.025 Q79.3485 591.597 79.078 590.988 Q78.8075 590.379 78.8075 589.635 Q78.8075 588.192 79.6642 586.998 Q80.5208 585.803 82.2567 585.487 Q80.7463 584.202 79.7769 582.624 Q78.8075 581.046 78.8075 579.445 Q78.8075 576.785 80.8815 575.049 Q82.9331 573.291 86.1794 573.291 M84.1504 576.627 Q82.0989 576.627 80.9717 577.416 Q79.822 578.183 79.822 579.581 Q79.822 581.316 81.5804 583.323 Q83.2487 585.307 84.8042 585.713 L93.8444 587.989 L94.5884 588.125 Q94.7236 588.125 95.1294 588.057 Q95.5127 587.967 96.1439 587.719 Q96.7751 587.448 97.3387 587.088 Q97.8798 586.704 98.2856 586.028 Q98.6914 585.329 98.6914 584.473 Q98.6914 583.097 97.474 581.61 Q96.2566 580.099 93.9571 578.972 Q92.4692 578.273 89.2679 577.461 Q86.0441 576.627 84.1504 576.627 Z" fill="#000000" fill-rule="evenodd" fill-opacity="1" /><path clip-path="url(#clip320)" d="M29.9626 597.413 Q22.1624 597.413 15.8726 594.505 Q13.2349 593.265 11.0256 591.529 Q8.81626 589.793 7.84686 588.643 Q6.87747 587.494 6.87747 587.178 Q6.87747 586.727 7.32835 586.704 Q7.55379 586.704 8.11739 587.313 Q15.6922 594.753 29.9626 594.73 Q44.2781 594.73 51.5599 587.494 Q52.3489 586.704 52.5969 586.704 Q53.0478 586.704 53.0478 587.178 Q53.0478 587.494 52.1235 588.598 Q51.1992 589.703 49.08 591.416 Q46.9609 593.13 44.3683 594.369 Q38.0785 597.413 29.9626 597.413 Z" fill="#000000" fill-rule="evenodd" fill-opacity="1" /><path clip-path="url(#clip320)" d="M24.1012 564.393 Q25.296 564.393 26.0625 565.182 Q26.829 565.949 26.829 566.941 Q26.829 567.797 26.333 568.248 Q25.8371 568.699 25.2058 568.699 Q24.3041 568.699 23.5601 568 Q22.8161 567.301 22.6583 566.287 Q22.1173 567.031 22.1173 568.226 Q22.1173 570.187 23.6277 571.923 Q24.3266 572.689 25.6116 573.524 Q26.8741 574.358 27.4151 574.515 L33.4344 575.981 Q34.1107 576.116 37.3571 576.95 Q40.5809 577.762 40.7162 577.829 Q41.3474 578.055 41.6856 578.551 Q42.0237 579.047 42.0237 579.543 Q42.0237 580.106 41.6856 580.49 Q41.3474 580.873 40.7613 580.873 Q40.6711 580.873 40.3329 580.805 Q39.9948 580.738 39.5213 580.625 Q39.0479 580.512 38.7774 580.467 L28.114 577.784 Q26.1752 577.288 25.5665 577.176 Q24.9353 577.04 24.2364 577.04 Q23.019 577.04 22.5682 577.424 Q22.1173 577.807 22.1173 578.483 Q22.1173 579.656 23.515 580.422 Q24.9127 581.189 27.618 581.842 Q28.362 582.045 28.5198 582.18 Q28.6776 582.293 28.6776 582.631 Q28.6551 583.195 28.2042 583.195 Q28.0915 583.195 27.3701 583.015 Q26.6261 582.834 25.544 582.496 Q24.4393 582.135 23.7405 581.752 Q23.267 581.527 22.9514 581.324 Q22.6358 581.121 22.1398 580.715 Q21.6439 580.309 21.3733 579.701 Q21.1028 579.092 21.1028 578.348 Q21.1028 576.725 22.0947 575.575 Q23.0867 574.403 24.6422 574.132 Q23.8306 573.569 23.1318 572.87 Q22.4104 572.171 21.7566 570.886 Q21.1028 569.601 21.1028 568.226 Q21.1028 566.512 21.982 565.453 Q22.8387 564.393 24.1012 564.393 Z" fill="#000000" fill-rule="evenodd" fill-opacity="1" /><path clip-path="url(#clip320)" d="M12.6488 551.378 Q13.6407 551.378 14.3847 552.189 Q15.1061 552.978 15.1061 553.835 Q15.1061 554.624 14.6326 555.12 Q14.1367 555.594 13.4378 555.594 Q12.5135 555.594 11.747 554.805 Q10.9805 554.016 10.9805 553.091 Q10.9805 552.325 11.4539 551.851 Q11.9273 551.378 12.6488 551.378 M34.8998 550.972 Q35.0801 550.972 35.8016 551.175 Q36.5004 551.378 37.5825 551.874 Q38.6421 552.347 39.634 553.001 Q40.626 553.655 41.3249 554.737 Q42.0237 555.796 42.0237 557.014 Q42.0237 558.66 40.9416 559.742 Q39.8595 560.801 38.2363 560.801 Q37.3571 560.801 34.5391 559.742 Q26.333 556.676 25.9949 556.563 Q24.7099 556.044 23.5826 556.044 Q23.0641 556.044 22.7485 556.157 Q22.4104 556.27 22.2976 556.495 Q22.1624 556.721 22.1398 556.856 Q22.1173 556.969 22.1173 557.194 Q22.1173 558.524 23.4699 559.764 Q24.8226 561.004 27.8435 561.861 Q28.4071 562.041 28.5424 562.154 Q28.6776 562.267 28.6776 562.605 Q28.6551 563.168 28.2042 563.168 Q28.0689 563.168 27.5504 563.011 Q27.0094 562.853 26.1978 562.56 Q25.3636 562.267 24.507 561.748 Q23.6277 561.23 22.8612 560.598 Q22.0947 559.945 21.5988 559.02 Q21.1028 558.096 21.1028 557.059 Q21.1028 555.368 22.2075 554.331 Q23.2896 553.272 24.8902 553.272 Q25.7694 553.272 27.325 553.88 Q29.3539 554.624 30.0077 554.895 L34.8547 556.698 Q36.6131 557.352 37.1542 557.555 Q37.6727 557.735 38.3039 557.893 Q38.9126 558.028 39.4762 558.028 Q40.2653 558.028 40.626 557.78 Q40.9867 557.51 40.9867 556.924 Q40.9867 555.301 39.3861 554.106 Q37.7629 552.911 35.283 552.212 Q35.2154 552.189 35.1027 552.167 Q34.5391 551.987 34.4714 551.806 Q34.4489 551.716 34.4489 551.536 Q34.4489 550.972 34.8998 550.972 Z" fill="#000000" fill-rule="evenodd" fill-opacity="1" /><path clip-path="url(#clip320)" d="M28.4747 529.112 Q31.7211 529.112 34.8998 530.758 Q38.056 532.381 40.0398 534.996 Q42.0237 537.589 42.0237 540.249 Q42.0237 542.842 40.0398 544.487 Q38.0334 546.111 34.7645 546.111 Q33.6148 546.111 32.8032 545.975 Q31.9916 545.84 30.0979 545.367 L15.0384 541.579 Q12.2204 540.925 12.1979 540.925 Q11.9273 540.925 11.7921 541.038 Q11.6343 541.128 11.5216 541.669 Q11.4088 542.21 11.4088 543.247 Q11.4088 543.676 11.3863 543.879 Q11.3637 544.059 11.251 544.217 Q11.1158 544.352 10.8452 544.352 Q10.462 544.352 10.2591 544.194 Q10.0336 544.014 9.98855 543.879 Q9.94347 543.743 9.92092 543.473 Q9.89838 543.09 9.78566 541.805 Q9.65039 540.52 9.56022 539.415 Q9.47004 538.31 9.47004 537.837 Q9.47004 537.566 9.6053 537.431 Q9.71802 537.273 9.85329 537.273 L9.96601 537.251 L23.8757 540.655 Q21.1028 537.972 21.1028 535.244 Q21.1028 532.516 23.1994 530.826 Q25.296 529.112 28.4747 529.112 M26.4457 532.449 Q24.3041 532.449 23.2219 533.26 Q22.1173 534.049 22.1173 535.357 Q22.1173 536.462 22.9514 537.905 Q23.7855 539.347 25.8145 540.88 Q26.1978 541.173 26.4232 541.286 Q26.6486 541.376 27.4151 541.579 L31.676 542.594 Q34.5842 543.338 36.3426 543.338 Q38.7323 543.338 39.8595 542.458 Q40.9867 541.579 40.9867 540.249 Q40.9867 538.851 39.7468 537.386 Q38.5068 535.921 36.2524 534.793 Q34.7645 534.095 31.5633 533.283 Q28.3395 532.449 26.4457 532.449 Z" fill="#000000" fill-rule="evenodd" fill-opacity="1" /><path clip-path="url(#clip320)" d="M52.5969 525.767 Q52.3715 525.767 51.8079 525.18 Q44.233 517.741 29.9626 517.741 Q15.6471 517.741 8.41047 524.887 Q7.57633 525.767 7.32835 525.767 Q6.87747 525.767 6.87747 525.316 Q6.87747 525 7.80178 523.895 Q8.72608 522.768 10.8452 521.077 Q12.9644 519.364 15.5569 518.102 Q21.8468 515.058 29.9626 515.058 Q37.7629 515.058 44.0527 517.966 Q46.6904 519.206 48.8997 520.942 Q51.109 522.678 52.0784 523.828 Q53.0478 524.978 53.0478 525.316 Q53.0478 525.767 52.5969 525.767 Z" fill="#000000" fill-rule="evenodd" fill-opacity="1" /><circle clip-path="url(#clip322)" cx="298.586" cy="1384.24" r="21" fill="#ff00ff" fill-rule="evenodd" fill-opacity="1" stroke="none"/>
<circle clip-path="url(#clip322)" cx="630.976" cy="303.028" r="21" fill="#ff00ff" fill-rule="evenodd" fill-opacity="1" stroke="none"/>
<circle clip-path="url(#clip322)" cx="963.366" cy="181.746" r="21" fill="#ff00ff" fill-rule="evenodd" fill-opacity="1" stroke="none"/>
<circle clip-path="url(#clip322)" cx="1295.76" cy="135.63" r="21" fill="#ff00ff" fill-rule="evenodd" fill-opacity="1" stroke="none"/>
<circle clip-path="url(#clip322)" cx="1628.15" cy="111.345" r="21" fill="#ff00ff" fill-rule="evenodd" fill-opacity="1" stroke="none"/>
<circle clip-path="url(#clip322)" cx="1960.54" cy="96.357" r="21" fill="#ff00ff" fill-rule="evenodd" fill-opacity="1" stroke="none"/>
<circle clip-path="url(#clip322)" cx="2292.93" cy="86.1857" r="21" fill="#ff00ff" fill-rule="evenodd" fill-opacity="1" stroke="none"/>
</svg>
