<?xml version="1.0" encoding="utf-8"?>
<svg xmlns="http://www.w3.org/2000/svg" xmlns:xlink="http://www.w3.org/1999/xlink" width="600" height="400" viewBox="0 0 2400 1600">
<defs>
  <clipPath id="clip200">
    <rect x="0" y="0" width="2400" height="1600"/>
  </clipPath>
</defs>
<path clip-path="url(#clip200)" d="
M0 1600 L2400 1600 L2400 0 L0 0  Z
  " fill="#ffffff" fill-rule="evenodd" fill-opacity="1"/>
<defs>
  <clipPath id="clip201">
    <rect x="480" y="0" width="1681" height="1600"/>
  </clipPath>
</defs>
<defs>
  <clipPath id="clip202">
    <rect x="231" y="47" width="2122" height="1377"/>
  </clipPath>
</defs>
<path clip-path="url(#clip200)" d="
M231.315 1423.18 L2352.76 1423.18 L2352.76 47.2441 L231.315 47.2441  Z
  " fill="#ffffff" fill-rule="evenodd" fill-opacity="1"/>
<polyline clip-path="url(#clip200)" style="stroke:#000000; stroke-linecap:butt; stroke-linejoin:round; stroke-width:4; stroke-opacity:1; fill:none" points="
  231.315,1423.18 2352.76,1423.18 
  "/>
<polyline clip-path="url(#clip200)" style="stroke:#000000; stroke-linecap:butt; stroke-linejoin:round; stroke-width:4; stroke-opacity:1; fill:none" points="
  271.342,1423.18 271.342,1404.28 
  "/>
<polyline clip-path="url(#clip200)" style="stroke:#000000; stroke-linecap:butt; stroke-linejoin:round; stroke-width:4; stroke-opacity:1; fill:none" points="
  771.682,1423.18 771.682,1404.28 
  "/>
<polyline clip-path="url(#clip200)" style="stroke:#000000; stroke-linecap:butt; stroke-linejoin:round; stroke-width:4; stroke-opacity:1; fill:none" points="
  1272.02,1423.18 1272.02,1404.28 
  "/>
<polyline clip-path="url(#clip200)" style="stroke:#000000; stroke-linecap:butt; stroke-linejoin:round; stroke-width:4; stroke-opacity:1; fill:none" points="
  1772.36,1423.18 1772.36,1404.28 
  "/>
<polyline clip-path="url(#clip200)" style="stroke:#000000; stroke-linecap:butt; stroke-linejoin:round; stroke-width:4; stroke-opacity:1; fill:none" points="
  2272.7,1423.18 2272.7,1404.28 
  "/>
<path clip-path="url(#clip200)" d="M271.342 1452.37 Q267.731 1452.37 265.902 1455.94 Q264.097 1459.48 264.097 1466.61 Q264.097 1473.71 265.902 1477.28 Q267.731 1480.82 271.342 1480.82 Q274.976 1480.82 276.782 1477.28 Q278.611 1473.71 278.611 1466.61 Q278.611 1459.48 276.782 1455.94 Q274.976 1452.37 271.342 1452.37 M271.342 1448.67 Q277.152 1448.67 280.208 1453.27 Q283.287 1457.86 283.287 1466.61 Q283.287 1475.33 280.208 1479.94 Q277.152 1484.52 271.342 1484.52 Q265.532 1484.52 262.453 1479.94 Q259.398 1475.33 259.398 1466.61 Q259.398 1457.86 262.453 1453.27 Q265.532 1448.67 271.342 1448.67 Z" fill="#000000" fill-rule="evenodd" fill-opacity="1" /><path clip-path="url(#clip200)" d="M750.953 1479.92 L767.272 1479.92 L767.272 1483.85 L745.328 1483.85 L745.328 1479.92 Q747.99 1477.16 752.573 1472.53 Q757.18 1467.88 758.36 1466.54 Q760.606 1464.01 761.485 1462.28 Q762.388 1460.52 762.388 1458.83 Q762.388 1456.07 760.444 1454.34 Q758.522 1452.6 755.42 1452.6 Q753.221 1452.6 750.768 1453.37 Q748.337 1454.13 745.559 1455.68 L745.559 1450.96 Q748.383 1449.82 750.837 1449.25 Q753.291 1448.67 755.328 1448.67 Q760.698 1448.67 763.893 1451.35 Q767.087 1454.04 767.087 1458.53 Q767.087 1460.66 766.277 1462.58 Q765.49 1464.48 763.383 1467.07 Q762.805 1467.74 759.703 1470.96 Q756.601 1474.15 750.953 1479.92 Z" fill="#000000" fill-rule="evenodd" fill-opacity="1" /><path clip-path="url(#clip200)" d="M777.133 1449.29 L795.49 1449.29 L795.49 1453.23 L781.416 1453.23 L781.416 1461.7 Q782.434 1461.35 783.453 1461.19 Q784.471 1461 785.49 1461 Q791.277 1461 794.656 1464.18 Q798.036 1467.35 798.036 1472.76 Q798.036 1478.34 794.564 1481.44 Q791.092 1484.52 784.772 1484.52 Q782.596 1484.52 780.328 1484.15 Q778.082 1483.78 775.675 1483.04 L775.675 1478.34 Q777.758 1479.48 779.981 1480.03 Q782.203 1480.59 784.68 1480.59 Q788.684 1480.59 791.022 1478.48 Q793.36 1476.38 793.36 1472.76 Q793.36 1469.15 791.022 1467.05 Q788.684 1464.94 784.68 1464.94 Q782.805 1464.94 780.93 1465.36 Q779.078 1465.77 777.133 1466.65 L777.133 1449.29 Z" fill="#000000" fill-rule="evenodd" fill-opacity="1" /><path clip-path="url(#clip200)" d="M1246.72 1449.29 L1265.08 1449.29 L1265.08 1453.23 L1251 1453.23 L1251 1461.7 Q1252.02 1461.35 1253.04 1461.19 Q1254.06 1461 1255.08 1461 Q1260.86 1461 1264.24 1464.18 Q1267.62 1467.35 1267.62 1472.76 Q1267.62 1478.34 1264.15 1481.44 Q1260.68 1484.52 1254.36 1484.52 Q1252.18 1484.52 1249.92 1484.15 Q1247.67 1483.78 1245.26 1483.04 L1245.26 1478.34 Q1247.35 1479.48 1249.57 1480.03 Q1251.79 1480.59 1254.27 1480.59 Q1258.27 1480.59 1260.61 1478.48 Q1262.95 1476.38 1262.95 1472.76 Q1262.95 1469.15 1260.61 1467.05 Q1258.27 1464.94 1254.27 1464.94 Q1252.39 1464.94 1250.52 1465.36 Q1248.67 1465.77 1246.72 1466.65 L1246.72 1449.29 Z" fill="#000000" fill-rule="evenodd" fill-opacity="1" /><path clip-path="url(#clip200)" d="M1286.84 1452.37 Q1283.23 1452.37 1281.4 1455.94 Q1279.59 1459.48 1279.59 1466.61 Q1279.59 1473.71 1281.4 1477.28 Q1283.23 1480.82 1286.84 1480.82 Q1290.47 1480.82 1292.28 1477.28 Q1294.11 1473.71 1294.11 1466.61 Q1294.11 1459.48 1292.28 1455.94 Q1290.47 1452.37 1286.84 1452.37 M1286.84 1448.67 Q1292.65 1448.67 1295.7 1453.27 Q1298.78 1457.86 1298.78 1466.61 Q1298.78 1475.33 1295.7 1479.94 Q1292.65 1484.52 1286.84 1484.52 Q1281.03 1484.52 1277.95 1479.94 Q1274.89 1475.33 1274.89 1466.61 Q1274.89 1457.86 1277.95 1453.27 Q1281.03 1448.67 1286.84 1448.67 Z" fill="#000000" fill-rule="evenodd" fill-opacity="1" /><path clip-path="url(#clip200)" d="M1746.22 1449.29 L1768.44 1449.29 L1768.44 1451.28 L1755.89 1483.85 L1751.01 1483.85 L1762.81 1453.23 L1746.22 1453.23 L1746.22 1449.29 Z" fill="#000000" fill-rule="evenodd" fill-opacity="1" /><path clip-path="url(#clip200)" d="M1777.6 1449.29 L1795.96 1449.29 L1795.96 1453.23 L1781.89 1453.23 L1781.89 1461.7 Q1782.91 1461.35 1783.92 1461.19 Q1784.94 1461 1785.96 1461 Q1791.75 1461 1795.13 1464.18 Q1798.51 1467.35 1798.51 1472.76 Q1798.51 1478.34 1795.04 1481.44 Q1791.56 1484.52 1785.24 1484.52 Q1783.07 1484.52 1780.8 1484.15 Q1778.55 1483.78 1776.15 1483.04 L1776.15 1478.34 Q1778.23 1479.48 1780.45 1480.03 Q1782.67 1480.59 1785.15 1480.59 Q1789.16 1480.59 1791.49 1478.48 Q1793.83 1476.38 1793.83 1472.76 Q1793.83 1469.15 1791.49 1467.05 Q1789.16 1464.94 1785.15 1464.94 Q1783.28 1464.94 1781.4 1465.36 Q1779.55 1465.77 1777.6 1466.65 L1777.6 1449.29 Z" fill="#000000" fill-rule="evenodd" fill-opacity="1" /><path clip-path="url(#clip200)" d="M2232.31 1479.92 L2239.95 1479.92 L2239.95 1453.55 L2231.64 1455.22 L2231.64 1450.96 L2239.9 1449.29 L2244.58 1449.29 L2244.58 1479.92 L2252.22 1479.92 L2252.22 1483.85 L2232.31 1483.85 L2232.31 1479.92 Z" fill="#000000" fill-rule="evenodd" fill-opacity="1" /><path clip-path="url(#clip200)" d="M2271.66 1452.37 Q2268.05 1452.37 2266.22 1455.94 Q2264.41 1459.48 2264.41 1466.61 Q2264.41 1473.71 2266.22 1477.28 Q2268.05 1480.82 2271.66 1480.82 Q2275.29 1480.82 2277.1 1477.28 Q2278.93 1473.71 2278.93 1466.61 Q2278.93 1459.48 2277.1 1455.94 Q2275.29 1452.37 2271.66 1452.37 M2271.66 1448.67 Q2277.47 1448.67 2280.53 1453.27 Q2283.6 1457.86 2283.6 1466.61 Q2283.6 1475.33 2280.53 1479.94 Q2277.47 1484.52 2271.66 1484.52 Q2265.85 1484.52 2262.77 1479.94 Q2259.72 1475.33 2259.72 1466.61 Q2259.72 1457.86 2262.77 1453.27 Q2265.85 1448.67 2271.66 1448.67 Z" fill="#000000" fill-rule="evenodd" fill-opacity="1" /><path clip-path="url(#clip200)" d="M2301.82 1452.37 Q2298.21 1452.37 2296.38 1455.94 Q2294.58 1459.48 2294.58 1466.61 Q2294.58 1473.71 2296.38 1477.28 Q2298.21 1480.82 2301.82 1480.82 Q2305.46 1480.82 2307.26 1477.28 Q2309.09 1473.71 2309.09 1466.61 Q2309.09 1459.48 2307.26 1455.94 Q2305.46 1452.37 2301.82 1452.37 M2301.82 1448.67 Q2307.63 1448.67 2310.69 1453.27 Q2313.77 1457.86 2313.77 1466.61 Q2313.77 1475.33 2310.69 1479.94 Q2307.63 1484.52 2301.82 1484.52 Q2296.01 1484.52 2292.93 1479.94 Q2289.88 1475.33 2289.88 1466.61 Q2289.88 1457.86 2292.93 1453.27 Q2296.01 1448.67 2301.82 1448.67 Z" fill="#000000" fill-rule="evenodd" fill-opacity="1" /><path clip-path="url(#clip200)" d="M1015.33 1520.52 L1023.99 1520.52 L1045.06 1560.28 L1045.06 1520.52 L1051.3 1520.52 L1051.3 1568.04 L1042.64 1568.04 L1021.57 1528.29 L1021.57 1568.04 L1015.33 1568.04 L1015.33 1520.52 Z" fill="#000000" fill-rule="evenodd" fill-opacity="1" /><path clip-path="url(#clip200)" d="M1063.24 1553.98 L1063.24 1532.4 L1069.09 1532.4 L1069.09 1553.75 Q1069.09 1558.81 1071.07 1561.36 Q1073.04 1563.87 1076.99 1563.87 Q1081.73 1563.87 1084.47 1560.85 Q1087.23 1557.83 1087.23 1552.61 L1087.23 1532.4 L1093.09 1532.4 L1093.09 1568.04 L1087.23 1568.04 L1087.23 1562.57 Q1085.1 1565.82 1082.27 1567.41 Q1079.47 1568.97 1075.74 1568.97 Q1069.6 1568.97 1066.42 1565.15 Q1063.24 1561.33 1063.24 1553.98 M1077.97 1531.54 L1077.97 1531.54 Z" fill="#000000" fill-rule="evenodd" fill-opacity="1" /><path clip-path="url(#clip200)" d="M1132.91 1539.24 Q1135.1 1535.29 1138.16 1533.41 Q1141.22 1531.54 1145.35 1531.54 Q1150.92 1531.54 1153.95 1535.45 Q1156.97 1539.33 1156.97 1546.53 L1156.97 1568.04 L1151.08 1568.04 L1151.08 1546.72 Q1151.08 1541.59 1149.27 1539.11 Q1147.45 1536.63 1143.73 1536.63 Q1139.18 1536.63 1136.54 1539.65 Q1133.9 1542.68 1133.9 1547.9 L1133.9 1568.04 L1128.01 1568.04 L1128.01 1546.72 Q1128.01 1541.56 1126.19 1539.11 Q1124.38 1536.63 1120.59 1536.63 Q1116.1 1536.63 1113.46 1539.68 Q1110.82 1542.71 1110.82 1547.9 L1110.82 1568.04 L1104.93 1568.04 L1104.93 1532.4 L1110.82 1532.4 L1110.82 1537.93 Q1112.82 1534.66 1115.63 1533.1 Q1118.43 1531.54 1122.28 1531.54 Q1126.16 1531.54 1128.87 1533.51 Q1131.6 1535.48 1132.91 1539.24 Z" fill="#000000" fill-rule="evenodd" fill-opacity="1" /><path clip-path="url(#clip200)" d="M1194.24 1550.25 Q1194.24 1543.79 1191.57 1540.13 Q1188.93 1536.44 1184.28 1536.44 Q1179.63 1536.44 1176.96 1540.13 Q1174.32 1543.79 1174.32 1550.25 Q1174.32 1556.71 1176.96 1560.4 Q1179.63 1564.07 1184.28 1564.07 Q1188.93 1564.07 1191.57 1560.4 Q1194.24 1556.71 1194.24 1550.25 M1174.32 1537.81 Q1176.16 1534.62 1178.96 1533.1 Q1181.8 1531.54 1185.71 1531.54 Q1192.21 1531.54 1196.25 1536.69 Q1200.32 1541.85 1200.32 1550.25 Q1200.32 1558.65 1196.25 1563.81 Q1192.21 1568.97 1185.71 1568.97 Q1181.8 1568.97 1178.96 1567.44 Q1176.16 1565.88 1174.32 1562.7 L1174.32 1568.04 L1168.43 1568.04 L1168.43 1518.52 L1174.32 1518.52 L1174.32 1537.81 Z" fill="#000000" fill-rule="evenodd" fill-opacity="1" /><path clip-path="url(#clip200)" d="M1240.52 1548.76 L1240.52 1551.62 L1213.59 1551.62 Q1213.98 1557.67 1217.22 1560.85 Q1220.5 1564 1226.33 1564 Q1229.7 1564 1232.85 1563.17 Q1236.03 1562.35 1239.15 1560.69 L1239.15 1566.23 Q1236 1567.57 1232.69 1568.27 Q1229.38 1568.97 1225.98 1568.97 Q1217.45 1568.97 1212.45 1564 Q1207.48 1559.04 1207.48 1550.57 Q1207.48 1541.82 1212.19 1536.69 Q1216.94 1531.54 1224.96 1531.54 Q1232.15 1531.54 1236.32 1536.18 Q1240.52 1540.8 1240.52 1548.76 M1234.66 1547.04 Q1234.6 1542.23 1231.96 1539.37 Q1229.35 1536.5 1225.02 1536.5 Q1220.12 1536.5 1217.16 1539.27 Q1214.23 1542.04 1213.78 1547.07 L1234.66 1547.04 Z" fill="#000000" fill-rule="evenodd" fill-opacity="1" /><path clip-path="url(#clip200)" d="M1270.79 1537.87 Q1269.8 1537.3 1268.63 1537.04 Q1267.48 1536.76 1266.08 1536.76 Q1261.11 1536.76 1258.44 1540 Q1255.8 1543.22 1255.8 1549.27 L1255.8 1568.04 L1249.91 1568.04 L1249.91 1532.4 L1255.8 1532.4 L1255.8 1537.93 Q1257.64 1534.69 1260.6 1533.13 Q1263.56 1531.54 1267.8 1531.54 Q1268.4 1531.54 1269.13 1531.63 Q1269.87 1531.7 1270.76 1531.85 L1270.79 1537.87 Z" fill="#000000" fill-rule="evenodd" fill-opacity="1" /><path clip-path="url(#clip200)" d="M1311.47 1536.5 Q1306.76 1536.5 1304.02 1540.19 Q1301.28 1543.85 1301.28 1550.25 Q1301.28 1556.65 1303.99 1560.34 Q1306.72 1564 1311.47 1564 Q1316.15 1564 1318.88 1560.31 Q1321.62 1556.62 1321.62 1550.25 Q1321.62 1543.92 1318.88 1540.23 Q1316.15 1536.5 1311.47 1536.5 M1311.47 1531.54 Q1319.11 1531.54 1323.47 1536.5 Q1327.83 1541.47 1327.83 1550.25 Q1327.83 1559 1323.47 1564 Q1319.11 1568.97 1311.47 1568.97 Q1303.8 1568.97 1299.44 1564 Q1295.11 1559 1295.11 1550.25 Q1295.11 1541.47 1299.44 1536.5 Q1303.8 1531.54 1311.47 1531.54 Z" fill="#000000" fill-rule="evenodd" fill-opacity="1" /><path clip-path="url(#clip200)" d="M1355.58 1518.52 L1355.58 1523.39 L1349.98 1523.39 Q1346.83 1523.39 1345.59 1524.66 Q1344.38 1525.93 1344.38 1529.24 L1344.38 1532.4 L1354.02 1532.4 L1354.02 1536.95 L1344.38 1536.95 L1344.38 1568.04 L1338.49 1568.04 L1338.49 1536.95 L1332.89 1536.95 L1332.89 1532.4 L1338.49 1532.4 L1338.49 1529.91 Q1338.49 1523.96 1341.26 1521.26 Q1344.03 1518.52 1350.04 1518.52 L1355.58 1518.52 Z" fill="#000000" fill-rule="evenodd" fill-opacity="1" /><path clip-path="url(#clip200)" d="M1404.66 1549.81 Q1404.66 1543.44 1402.02 1539.94 Q1399.41 1536.44 1394.67 1536.44 Q1389.96 1536.44 1387.31 1539.94 Q1384.7 1543.44 1384.7 1549.81 Q1384.7 1556.14 1387.31 1559.64 Q1389.96 1563.14 1394.67 1563.14 Q1399.41 1563.14 1402.02 1559.64 Q1404.66 1556.14 1404.66 1549.81 M1410.52 1563.62 Q1410.52 1572.72 1406.47 1577.15 Q1402.43 1581.6 1394.09 1581.6 Q1391.01 1581.6 1388.27 1581.13 Q1385.53 1580.68 1382.95 1579.72 L1382.95 1574.03 Q1385.53 1575.43 1388.05 1576.1 Q1390.56 1576.76 1393.17 1576.76 Q1398.93 1576.76 1401.8 1573.74 Q1404.66 1570.75 1404.66 1564.67 L1404.66 1561.77 Q1402.85 1564.92 1400.01 1566.48 Q1397.18 1568.04 1393.23 1568.04 Q1386.68 1568.04 1382.67 1563.05 Q1378.66 1558.05 1378.66 1549.81 Q1378.66 1541.53 1382.67 1536.53 Q1386.68 1531.54 1393.23 1531.54 Q1397.18 1531.54 1400.01 1533.1 Q1402.85 1534.66 1404.66 1537.81 L1404.66 1532.4 L1410.52 1532.4 L1410.52 1563.62 Z" fill="#000000" fill-rule="evenodd" fill-opacity="1" /><path clip-path="url(#clip200)" d="M1453.07 1548.76 L1453.07 1551.62 L1426.14 1551.62 Q1426.53 1557.67 1429.77 1560.85 Q1433.05 1564 1438.88 1564 Q1442.25 1564 1445.4 1563.17 Q1448.58 1562.35 1451.7 1560.69 L1451.7 1566.23 Q1448.55 1567.57 1445.24 1568.27 Q1441.93 1568.97 1438.53 1568.97 Q1430 1568.97 1425 1564 Q1420.03 1559.04 1420.03 1550.57 Q1420.03 1541.82 1424.74 1536.69 Q1429.49 1531.54 1437.51 1531.54 Q1444.7 1531.54 1448.87 1536.18 Q1453.07 1540.8 1453.07 1548.76 M1447.22 1547.04 Q1447.15 1542.23 1444.51 1539.37 Q1441.9 1536.5 1437.57 1536.5 Q1432.67 1536.5 1429.71 1539.27 Q1426.78 1542.04 1426.34 1547.07 L1447.22 1547.04 Z" fill="#000000" fill-rule="evenodd" fill-opacity="1" /><path clip-path="url(#clip200)" d="M1492.32 1546.53 L1492.32 1568.04 L1486.46 1568.04 L1486.46 1546.72 Q1486.46 1541.66 1484.49 1539.14 Q1482.51 1536.63 1478.57 1536.63 Q1473.82 1536.63 1471.09 1539.65 Q1468.35 1542.68 1468.35 1547.9 L1468.35 1568.04 L1462.46 1568.04 L1462.46 1532.4 L1468.35 1532.4 L1468.35 1537.93 Q1470.45 1534.72 1473.28 1533.13 Q1476.15 1531.54 1479.87 1531.54 Q1486.01 1531.54 1489.17 1535.36 Q1492.32 1539.14 1492.32 1546.53 Z" fill="#000000" fill-rule="evenodd" fill-opacity="1" /><path clip-path="url(#clip200)" d="M1534.49 1548.76 L1534.49 1551.62 L1507.56 1551.62 Q1507.94 1557.67 1511.19 1560.85 Q1514.47 1564 1520.29 1564 Q1523.67 1564 1526.82 1563.17 Q1530 1562.35 1533.12 1560.69 L1533.12 1566.23 Q1529.97 1567.57 1526.66 1568.27 Q1523.35 1568.97 1519.94 1568.97 Q1511.41 1568.97 1506.42 1564 Q1501.45 1559.04 1501.45 1550.57 Q1501.45 1541.82 1506.16 1536.69 Q1510.9 1531.54 1518.93 1531.54 Q1526.12 1531.54 1530.29 1536.18 Q1534.49 1540.8 1534.49 1548.76 M1528.63 1547.04 Q1528.57 1542.23 1525.93 1539.37 Q1523.32 1536.5 1518.99 1536.5 Q1514.09 1536.5 1511.13 1539.27 Q1508.2 1542.04 1507.75 1547.07 L1528.63 1547.04 Z" fill="#000000" fill-rule="evenodd" fill-opacity="1" /><path clip-path="url(#clip200)" d="M1566.83 1533.45 L1566.83 1538.98 Q1564.34 1537.71 1561.67 1537.07 Q1559 1536.44 1556.13 1536.44 Q1551.77 1536.44 1549.58 1537.77 Q1547.41 1539.11 1547.41 1541.79 Q1547.41 1543.82 1548.97 1545 Q1550.53 1546.15 1555.24 1547.2 L1557.25 1547.64 Q1563.49 1548.98 1566.1 1551.43 Q1568.74 1553.85 1568.74 1558.21 Q1568.74 1563.17 1564.79 1566.07 Q1560.88 1568.97 1554 1568.97 Q1551.14 1568.97 1548.02 1568.39 Q1544.93 1567.85 1541.49 1566.74 L1541.49 1560.69 Q1544.74 1562.38 1547.89 1563.24 Q1551.04 1564.07 1554.13 1564.07 Q1558.27 1564.07 1560.49 1562.66 Q1562.72 1561.23 1562.72 1558.65 Q1562.72 1556.27 1561.1 1554.99 Q1559.51 1553.72 1554.06 1552.54 L1552.03 1552.07 Q1546.58 1550.92 1544.17 1548.56 Q1541.75 1546.18 1541.75 1542.04 Q1541.75 1537.01 1545.31 1534.27 Q1548.88 1531.54 1555.43 1531.54 Q1558.68 1531.54 1561.54 1532.01 Q1564.41 1532.49 1566.83 1533.45 Z" fill="#000000" fill-rule="evenodd" fill-opacity="1" /><polyline clip-path="url(#clip200)" style="stroke:#000000; stroke-linecap:butt; stroke-linejoin:round; stroke-width:4; stroke-opacity:1; fill:none" points="
  231.315,1423.18 231.315,47.2441 
  "/>
<polyline clip-path="url(#clip200)" style="stroke:#000000; stroke-linecap:butt; stroke-linejoin:round; stroke-width:4; stroke-opacity:1; fill:none" points="
  231.315,1384.24 250.213,1384.24 
  "/>
<polyline clip-path="url(#clip200)" style="stroke:#000000; stroke-linecap:butt; stroke-linejoin:round; stroke-width:4; stroke-opacity:1; fill:none" points="
  231.315,1105.23 250.213,1105.23 
  "/>
<polyline clip-path="url(#clip200)" style="stroke:#000000; stroke-linecap:butt; stroke-linejoin:round; stroke-width:4; stroke-opacity:1; fill:none" points="
  231.315,826.225 250.213,826.225 
  "/>
<polyline clip-path="url(#clip200)" style="stroke:#000000; stroke-linecap:butt; stroke-linejoin:round; stroke-width:4; stroke-opacity:1; fill:none" points="
  231.315,547.218 250.213,547.218 
  "/>
<polyline clip-path="url(#clip200)" style="stroke:#000000; stroke-linecap:butt; stroke-linejoin:round; stroke-width:4; stroke-opacity:1; fill:none" points="
  231.315,268.212 250.213,268.212 
  "/>
<path clip-path="url(#clip200)" d="M183.371 1370.04 Q179.759 1370.04 177.931 1373.6 Q176.125 1377.14 176.125 1384.27 Q176.125 1391.38 177.931 1394.94 Q179.759 1398.49 183.371 1398.49 Q187.005 1398.49 188.81 1394.94 Q190.639 1391.38 190.639 1384.27 Q190.639 1377.14 188.81 1373.6 Q187.005 1370.04 183.371 1370.04 M183.371 1366.33 Q189.181 1366.33 192.236 1370.94 Q195.315 1375.52 195.315 1384.27 Q195.315 1393 192.236 1397.61 Q189.181 1402.19 183.371 1402.19 Q177.56 1402.19 174.482 1397.61 Q171.426 1393 171.426 1384.27 Q171.426 1375.52 174.482 1370.94 Q177.56 1366.33 183.371 1366.33 Z" fill="#000000" fill-rule="evenodd" fill-opacity="1" /><path clip-path="url(#clip200)" d="M117.075 1118.58 L133.394 1118.58 L133.394 1122.51 L111.45 1122.51 L111.45 1118.58 Q114.112 1115.82 118.695 1111.19 Q123.301 1106.54 124.482 1105.2 Q126.727 1102.67 127.607 1100.94 Q128.51 1099.18 128.51 1097.49 Q128.51 1094.73 126.565 1093 Q124.644 1091.26 121.542 1091.26 Q119.343 1091.26 116.889 1092.03 Q114.459 1092.79 111.681 1094.34 L111.681 1089.62 Q114.505 1088.48 116.959 1087.91 Q119.413 1087.33 121.45 1087.33 Q126.82 1087.33 130.014 1090.01 Q133.209 1092.7 133.209 1097.19 Q133.209 1099.32 132.399 1101.24 Q131.612 1103.14 129.505 1105.73 Q128.926 1106.4 125.825 1109.62 Q122.723 1112.81 117.075 1118.58 Z" fill="#000000" fill-rule="evenodd" fill-opacity="1" /><path clip-path="url(#clip200)" d="M153.209 1091.03 Q149.598 1091.03 147.769 1094.6 Q145.963 1098.14 145.963 1105.27 Q145.963 1112.37 147.769 1115.94 Q149.598 1119.48 153.209 1119.48 Q156.843 1119.48 158.648 1115.94 Q160.477 1112.37 160.477 1105.27 Q160.477 1098.14 158.648 1094.6 Q156.843 1091.03 153.209 1091.03 M153.209 1087.33 Q159.019 1087.33 162.074 1091.93 Q165.153 1096.52 165.153 1105.27 Q165.153 1113.99 162.074 1118.6 Q159.019 1123.18 153.209 1123.18 Q147.399 1123.18 144.32 1118.6 Q141.264 1113.99 141.264 1105.27 Q141.264 1096.52 144.32 1091.93 Q147.399 1087.33 153.209 1087.33 Z" fill="#000000" fill-rule="evenodd" fill-opacity="1" /><path clip-path="url(#clip200)" d="M183.371 1091.03 Q179.759 1091.03 177.931 1094.6 Q176.125 1098.14 176.125 1105.27 Q176.125 1112.37 177.931 1115.94 Q179.759 1119.48 183.371 1119.48 Q187.005 1119.48 188.81 1115.94 Q190.639 1112.37 190.639 1105.27 Q190.639 1098.14 188.81 1094.6 Q187.005 1091.03 183.371 1091.03 M183.371 1087.33 Q189.181 1087.33 192.236 1091.93 Q195.315 1096.52 195.315 1105.27 Q195.315 1113.99 192.236 1118.6 Q189.181 1123.18 183.371 1123.18 Q177.56 1123.18 174.482 1118.6 Q171.426 1113.99 171.426 1105.27 Q171.426 1096.52 174.482 1091.93 Q177.56 1087.33 183.371 1087.33 Z" fill="#000000" fill-rule="evenodd" fill-opacity="1" /><path clip-path="url(#clip200)" d="M125.894 813.019 L114.089 831.468 L125.894 831.468 L125.894 813.019 M124.667 808.945 L130.547 808.945 L130.547 831.468 L135.477 831.468 L135.477 835.357 L130.547 835.357 L130.547 843.505 L125.894 843.505 L125.894 835.357 L110.292 835.357 L110.292 830.843 L124.667 808.945 Z" fill="#000000" fill-rule="evenodd" fill-opacity="1" /><path clip-path="url(#clip200)" d="M153.209 812.024 Q149.598 812.024 147.769 815.588 Q145.963 819.13 145.963 826.26 Q145.963 833.366 147.769 836.931 Q149.598 840.473 153.209 840.473 Q156.843 840.473 158.648 836.931 Q160.477 833.366 160.477 826.26 Q160.477 819.13 158.648 815.588 Q156.843 812.024 153.209 812.024 M153.209 808.32 Q159.019 808.32 162.074 812.926 Q165.153 817.51 165.153 826.26 Q165.153 834.986 162.074 839.593 Q159.019 844.176 153.209 844.176 Q147.399 844.176 144.32 839.593 Q141.264 834.986 141.264 826.26 Q141.264 817.51 144.32 812.926 Q147.399 808.32 153.209 808.32 Z" fill="#000000" fill-rule="evenodd" fill-opacity="1" /><path clip-path="url(#clip200)" d="M183.371 812.024 Q179.759 812.024 177.931 815.588 Q176.125 819.13 176.125 826.26 Q176.125 833.366 177.931 836.931 Q179.759 840.473 183.371 840.473 Q187.005 840.473 188.81 836.931 Q190.639 833.366 190.639 826.26 Q190.639 819.13 188.81 815.588 Q187.005 812.024 183.371 812.024 M183.371 808.32 Q189.181 808.32 192.236 812.926 Q195.315 817.51 195.315 826.26 Q195.315 834.986 192.236 839.593 Q189.181 844.176 183.371 844.176 Q177.56 844.176 174.482 839.593 Q171.426 834.986 171.426 826.26 Q171.426 817.51 174.482 812.926 Q177.56 808.32 183.371 808.32 Z" fill="#000000" fill-rule="evenodd" fill-opacity="1" /><path clip-path="url(#clip200)" d="M123.626 545.355 Q120.477 545.355 118.626 547.508 Q116.797 549.66 116.797 553.41 Q116.797 557.137 118.626 559.313 Q120.477 561.466 123.626 561.466 Q126.774 561.466 128.602 559.313 Q130.454 557.137 130.454 553.41 Q130.454 549.66 128.602 547.508 Q126.774 545.355 123.626 545.355 M132.908 530.702 L132.908 534.961 Q131.149 534.128 129.343 533.688 Q127.561 533.248 125.801 533.248 Q121.172 533.248 118.718 536.373 Q116.288 539.498 115.94 545.818 Q117.306 543.804 119.366 542.739 Q121.426 541.651 123.903 541.651 Q129.112 541.651 132.121 544.822 Q135.153 547.971 135.153 553.41 Q135.153 558.734 132.005 561.952 Q128.857 565.17 123.626 565.17 Q117.63 565.17 114.459 560.586 Q111.288 555.98 111.288 547.253 Q111.288 539.059 115.176 534.197 Q119.065 529.313 125.616 529.313 Q127.375 529.313 129.158 529.66 Q130.963 530.008 132.908 530.702 Z" fill="#000000" fill-rule="evenodd" fill-opacity="1" /><path clip-path="url(#clip200)" d="M153.209 533.017 Q149.598 533.017 147.769 536.582 Q145.963 540.123 145.963 547.253 Q145.963 554.359 147.769 557.924 Q149.598 561.466 153.209 561.466 Q156.843 561.466 158.648 557.924 Q160.477 554.359 160.477 547.253 Q160.477 540.123 158.648 536.582 Q156.843 533.017 153.209 533.017 M153.209 529.313 Q159.019 529.313 162.074 533.92 Q165.153 538.503 165.153 547.253 Q165.153 555.98 162.074 560.586 Q159.019 565.17 153.209 565.17 Q147.399 565.17 144.32 560.586 Q141.264 555.98 141.264 547.253 Q141.264 538.503 144.32 533.92 Q147.399 529.313 153.209 529.313 Z" fill="#000000" fill-rule="evenodd" fill-opacity="1" /><path clip-path="url(#clip200)" d="M183.371 533.017 Q179.759 533.017 177.931 536.582 Q176.125 540.123 176.125 547.253 Q176.125 554.359 177.931 557.924 Q179.759 561.466 183.371 561.466 Q187.005 561.466 188.81 557.924 Q190.639 554.359 190.639 547.253 Q190.639 540.123 188.81 536.582 Q187.005 533.017 183.371 533.017 M183.371 529.313 Q189.181 529.313 192.236 533.92 Q195.315 538.503 195.315 547.253 Q195.315 555.98 192.236 560.586 Q189.181 565.17 183.371 565.17 Q177.56 565.17 174.482 560.586 Q171.426 555.98 171.426 547.253 Q171.426 538.503 174.482 533.92 Q177.56 529.313 183.371 529.313 Z" fill="#000000" fill-rule="evenodd" fill-opacity="1" /><path clip-path="url(#clip200)" d="M123.047 269.08 Q119.713 269.08 117.792 270.862 Q115.894 272.644 115.894 275.769 Q115.894 278.894 117.792 280.677 Q119.713 282.459 123.047 282.459 Q126.38 282.459 128.301 280.677 Q130.223 278.871 130.223 275.769 Q130.223 272.644 128.301 270.862 Q126.403 269.08 123.047 269.08 M118.371 267.089 Q115.362 266.348 113.672 264.288 Q112.005 262.228 112.005 259.265 Q112.005 255.121 114.945 252.714 Q117.908 250.307 123.047 250.307 Q128.209 250.307 131.149 252.714 Q134.088 255.121 134.088 259.265 Q134.088 262.228 132.399 264.288 Q130.732 266.348 127.746 267.089 Q131.125 267.876 133 270.168 Q134.899 272.459 134.899 275.769 Q134.899 280.792 131.82 283.478 Q128.764 286.163 123.047 286.163 Q117.329 286.163 114.251 283.478 Q111.195 280.792 111.195 275.769 Q111.195 272.459 113.093 270.168 Q114.991 267.876 118.371 267.089 M116.658 259.705 Q116.658 262.39 118.325 263.894 Q120.014 265.399 123.047 265.399 Q126.056 265.399 127.746 263.894 Q129.459 262.39 129.459 259.705 Q129.459 257.019 127.746 255.515 Q126.056 254.01 123.047 254.01 Q120.014 254.01 118.325 255.515 Q116.658 257.019 116.658 259.705 Z" fill="#000000" fill-rule="evenodd" fill-opacity="1" /><path clip-path="url(#clip200)" d="M153.209 254.01 Q149.598 254.01 147.769 257.575 Q145.963 261.117 145.963 268.246 Q145.963 275.353 147.769 278.918 Q149.598 282.459 153.209 282.459 Q156.843 282.459 158.648 278.918 Q160.477 275.353 160.477 268.246 Q160.477 261.117 158.648 257.575 Q156.843 254.01 153.209 254.01 M153.209 250.307 Q159.019 250.307 162.074 254.913 Q165.153 259.496 165.153 268.246 Q165.153 276.973 162.074 281.58 Q159.019 286.163 153.209 286.163 Q147.399 286.163 144.32 281.58 Q141.264 276.973 141.264 268.246 Q141.264 259.496 144.32 254.913 Q147.399 250.307 153.209 250.307 Z" fill="#000000" fill-rule="evenodd" fill-opacity="1" /><path clip-path="url(#clip200)" d="M183.371 254.01 Q179.759 254.01 177.931 257.575 Q176.125 261.117 176.125 268.246 Q176.125 275.353 177.931 278.918 Q179.759 282.459 183.371 282.459 Q187.005 282.459 188.81 278.918 Q190.639 275.353 190.639 268.246 Q190.639 261.117 188.81 257.575 Q187.005 254.01 183.371 254.01 M183.371 250.307 Q189.181 250.307 192.236 254.913 Q195.315 259.496 195.315 268.246 Q195.315 276.973 192.236 281.58 Q189.181 286.163 183.371 286.163 Q177.56 286.163 174.482 281.58 Q171.426 276.973 171.426 268.246 Q171.426 259.496 174.482 254.913 Q177.56 250.307 183.371 250.307 Z" fill="#000000" fill-rule="evenodd" fill-opacity="1" /><path clip-path="url(#clip200)" d="M79.6659 762.12 Q80.2134 762.12 80.5999 762.506 Q80.9863 762.893 80.9863 763.44 Q80.9863 764.374 80.1168 764.696 L48.4584 776.966 Q48.3296 777.031 48.0075 777.031 Q47.6855 777.031 47.5566 776.966 L15.8983 764.696 Q15.0287 764.374 15.0287 763.44 Q15.0287 762.893 15.4152 762.506 Q15.8017 762.12 16.3492 762.12 Q16.6712 762.12 16.8 762.184 L48.0075 774.326 L79.215 762.184 Q79.3438 762.12 79.6659 762.12 Z" fill="#000000" fill-rule="evenodd" fill-opacity="1" /><path clip-path="url(#clip200)" d="M45.8819 717.179 Q50.584 717.179 55.125 719.563 Q59.666 721.914 62.468 725.617 Q65.2377 729.321 65.2377 733.089 Q65.2377 735.344 64.0138 736.857 Q62.7578 738.339 60.9865 739.144 Q63.1765 739.756 68.426 741.076 Q73.6756 742.397 74.1909 742.397 Q74.4807 742.397 74.6096 742.332 Q74.7384 742.268 74.8994 741.978 Q75.0927 741.688 75.1571 740.98 Q75.2537 740.271 75.2537 739.079 Q75.2537 738.467 75.2537 738.242 Q75.2859 737.984 75.4469 737.759 Q75.608 737.501 75.9622 737.501 Q77.2827 737.501 77.2827 738.693 Q77.2827 739.756 77.186 741.946 Q77.0894 744.136 77.0894 745.231 Q77.0894 746.165 77.186 748.033 Q77.2827 749.901 77.2827 750.77 Q77.2827 751.64 76.5097 751.64 Q76.0588 751.64 75.769 751.511 Q75.5113 751.414 75.3825 751.157 Q75.2859 750.899 75.2537 750.674 Q75.2537 750.48 75.2537 750.094 Q75.2537 748.612 74.996 747.968 Q74.7706 747.324 74.2875 747.099 Q73.8366 746.841 72.5484 746.551 L43.1766 739.144 Q41.2121 738.693 39.8272 738.693 Q38.0881 738.693 37.444 739.24 Q36.7999 739.788 36.7999 740.754 Q36.7999 742.429 38.7967 743.524 Q40.7934 744.619 44.6581 745.553 Q45.7209 745.843 45.9464 746.036 Q46.1718 746.197 46.1718 746.68 Q46.1396 747.485 45.4955 747.485 Q45.3344 747.485 44.3039 747.227 Q43.2411 746.97 41.6952 746.487 Q40.1171 745.971 39.1187 745.424 Q38.4424 745.102 37.9915 744.812 Q37.5406 744.522 36.8321 743.942 Q36.1236 743.331 35.7371 742.461 Q35.3506 741.591 35.3506 740.529 Q35.3506 738.467 36.5744 736.761 Q37.7983 735.054 40.2781 734.603 Q38.1203 732.767 36.7355 730.513 Q35.3506 728.258 35.3506 725.972 Q35.3506 722.171 38.3136 719.691 Q41.2443 717.179 45.8819 717.179 M42.9834 721.946 Q40.0527 721.946 38.4424 723.073 Q36.7999 724.168 36.7999 726.165 Q36.7999 728.645 39.3119 731.511 Q41.6952 734.345 43.9174 734.925 L56.8319 738.178 L57.8947 738.371 Q58.088 738.371 58.6677 738.274 Q59.2152 738.145 60.1169 737.791 Q61.0187 737.405 61.8238 736.889 Q62.5968 736.342 63.1765 735.376 Q63.7562 734.377 63.7562 733.154 Q63.7562 731.189 62.0171 729.063 Q60.278 726.906 56.993 725.295 Q54.8674 724.297 50.2941 723.138 Q45.6887 721.946 42.9834 721.946 Z" fill="#000000" fill-rule="evenodd" fill-opacity="1" /><path clip-path="url(#clip200)" d="M47.5566 703.97 Q47.6855 703.905 48.0075 703.905 Q48.3296 703.905 48.4584 703.97 L80.1168 716.24 Q80.9863 716.562 80.9863 717.464 Q80.9863 718.011 80.5999 718.398 Q80.2134 718.784 79.6659 718.784 Q79.3438 718.784 79.215 718.72 L48.0075 706.61 L16.8 718.72 Q16.6712 718.784 16.3492 718.784 Q15.8017 718.784 15.4152 718.398 Q15.0287 718.011 15.0287 717.464 Q15.0287 716.562 15.8983 716.24 L47.5566 703.97 Z" fill="#000000" fill-rule="evenodd" fill-opacity="1" /><circle clip-path="url(#clip202)" cx="291.356" cy="666.104" r="21" fill="#ff00ff" fill-rule="evenodd" fill-opacity="1" stroke="none"/>
<circle clip-path="url(#clip202)" cx="491.492" cy="154.88" r="21" fill="#ff00ff" fill-rule="evenodd" fill-opacity="1" stroke="none"/>
<circle clip-path="url(#clip202)" cx="691.628" cy="111.061" r="21" fill="#ff00ff" fill-rule="evenodd" fill-opacity="1" stroke="none"/>
<circle clip-path="url(#clip202)" cx="891.764" cy="94.7233" r="21" fill="#ff00ff" fill-rule="evenodd" fill-opacity="1" stroke="none"/>
<circle clip-path="url(#clip202)" cx="1091.9" cy="86.1857" r="21" fill="#ff00ff" fill-rule="evenodd" fill-opacity="1" stroke="none"/>
<circle clip-path="url(#clip202)" cx="1292.04" cy="1384.24" r="21" fill="#ff00ff" fill-rule="evenodd" fill-opacity="1" stroke="none"/>
<circle clip-path="url(#clip202)" cx="1492.17" cy="1384.24" r="21" fill="#ff00ff" fill-rule="evenodd" fill-opacity="1" stroke="none"/>
<circle clip-path="url(#clip202)" cx="1692.31" cy="1384.24" r="21" fill="#ff00ff" fill-rule="evenodd" fill-opacity="1" stroke="none"/>
<circle clip-path="url(#clip202)" cx="1892.44" cy="1384.24" r="21" fill="#ff00ff" fill-rule="evenodd" fill-opacity="1" stroke="none"/>
<circle clip-path="url(#clip202)" cx="2092.58" cy="1384.24" r="21" fill="#ff00ff" fill-rule="evenodd" fill-opacity="1" stroke="none"/>
<circle clip-path="url(#clip202)" cx="2292.72" cy="1384.24" r="21" fill="#ff00ff" fill-rule="evenodd" fill-opacity="1" stroke="none"/>
</svg>
