<?xml version="1.0" encoding="utf-8"?>
<svg xmlns="http://www.w3.org/2000/svg" xmlns:xlink="http://www.w3.org/1999/xlink" width="600" height="400" viewBox="0 0 2400 1600">
<defs>
  <clipPath id="clip740">
    <rect x="0" y="0" width="2400" height="1600"/>
  </clipPath>
</defs>
<path clip-path="url(#clip740)" d="
M0 1600 L2400 1600 L2400 0 L0 0  Z
  " fill="#ffffff" fill-rule="evenodd" fill-opacity="1"/>
<defs>
  <clipPath id="clip741">
    <rect x="480" y="0" width="1681" height="1600"/>
  </clipPath>
</defs>
<defs>
  <clipPath id="clip742">
    <rect x="231" y="47" width="2122" height="1377"/>
  </clipPath>
</defs>
<path clip-path="url(#clip740)" d="
M231.315 1423.18 L2352.76 1423.18 L2352.76 47.2441 L231.315 47.2441  Z
  " fill="#ffffff" fill-rule="evenodd" fill-opacity="1"/>
<polyline clip-path="url(#clip740)" style="stroke:#000000; stroke-linecap:butt; stroke-linejoin:round; stroke-width:4; stroke-opacity:1; fill:none" points="
  231.315,1423.18 2352.76,1423.18 
  "/>
<polyline clip-path="url(#clip740)" style="stroke:#000000; stroke-linecap:butt; stroke-linejoin:round; stroke-width:4; stroke-opacity:1; fill:none" points="
  278.013,1423.18 278.013,1404.28 
  "/>
<polyline clip-path="url(#clip740)" style="stroke:#000000; stroke-linecap:butt; stroke-linejoin:round; stroke-width:4; stroke-opacity:1; fill:none" points="
  945.133,1423.18 945.133,1404.28 
  "/>
<polyline clip-path="url(#clip740)" style="stroke:#000000; stroke-linecap:butt; stroke-linejoin:round; stroke-width:4; stroke-opacity:1; fill:none" points="
  1612.25,1423.18 1612.25,1404.28 
  "/>
<polyline clip-path="url(#clip740)" style="stroke:#000000; stroke-linecap:butt; stroke-linejoin:round; stroke-width:4; stroke-opacity:1; fill:none" points="
  2279.37,1423.18 2279.37,1404.28 
  "/>
<path clip-path="url(#clip740)" d="M278.013 1452.37 Q274.402 1452.37 272.574 1455.94 Q270.768 1459.48 270.768 1466.61 Q270.768 1473.71 272.574 1477.28 Q274.402 1480.82 278.013 1480.82 Q281.648 1480.82 283.453 1477.28 Q285.282 1473.71 285.282 1466.61 Q285.282 1459.48 283.453 1455.94 Q281.648 1452.37 278.013 1452.37 M278.013 1448.67 Q283.823 1448.67 286.879 1453.27 Q289.958 1457.86 289.958 1466.61 Q289.958 1475.33 286.879 1479.94 Q283.823 1484.52 278.013 1484.52 Q272.203 1484.52 269.124 1479.94 Q266.069 1475.33 266.069 1466.61 Q266.069 1457.86 269.124 1453.27 Q272.203 1448.67 278.013 1448.67 Z" fill="#000000" fill-rule="evenodd" fill-opacity="1" /><path clip-path="url(#clip740)" d="M919.832 1449.29 L938.189 1449.29 L938.189 1453.23 L924.115 1453.23 L924.115 1461.7 Q925.133 1461.35 926.152 1461.19 Q927.17 1461 928.189 1461 Q933.976 1461 937.355 1464.18 Q940.735 1467.35 940.735 1472.76 Q940.735 1478.34 937.263 1481.44 Q933.791 1484.52 927.471 1484.52 Q925.295 1484.52 923.027 1484.15 Q920.781 1483.78 918.374 1483.04 L918.374 1478.34 Q920.457 1479.48 922.68 1480.03 Q924.902 1480.59 927.379 1480.59 Q931.383 1480.59 933.721 1478.48 Q936.059 1476.38 936.059 1472.76 Q936.059 1469.15 933.721 1467.05 Q931.383 1464.94 927.379 1464.94 Q925.504 1464.94 923.629 1465.36 Q921.777 1465.77 919.832 1466.65 L919.832 1449.29 Z" fill="#000000" fill-rule="evenodd" fill-opacity="1" /><path clip-path="url(#clip740)" d="M959.948 1452.37 Q956.337 1452.37 954.508 1455.94 Q952.703 1459.48 952.703 1466.61 Q952.703 1473.71 954.508 1477.28 Q956.337 1480.82 959.948 1480.82 Q963.582 1480.82 965.388 1477.28 Q967.216 1473.71 967.216 1466.61 Q967.216 1459.48 965.388 1455.94 Q963.582 1452.37 959.948 1452.37 M959.948 1448.67 Q965.758 1448.67 968.814 1453.27 Q971.892 1457.86 971.892 1466.61 Q971.892 1475.33 968.814 1479.94 Q965.758 1484.52 959.948 1484.52 Q954.138 1484.52 951.059 1479.94 Q948.003 1475.33 948.003 1466.61 Q948.003 1457.86 951.059 1453.27 Q954.138 1448.67 959.948 1448.67 Z" fill="#000000" fill-rule="evenodd" fill-opacity="1" /><path clip-path="url(#clip740)" d="M1571.86 1479.92 L1579.5 1479.92 L1579.5 1453.55 L1571.19 1455.22 L1571.19 1450.96 L1579.45 1449.29 L1584.13 1449.29 L1584.13 1479.92 L1591.77 1479.92 L1591.77 1483.85 L1571.86 1483.85 L1571.86 1479.92 Z" fill="#000000" fill-rule="evenodd" fill-opacity="1" /><path clip-path="url(#clip740)" d="M1611.21 1452.37 Q1607.6 1452.37 1605.77 1455.94 Q1603.97 1459.48 1603.97 1466.61 Q1603.97 1473.71 1605.77 1477.28 Q1607.6 1480.82 1611.21 1480.82 Q1614.85 1480.82 1616.65 1477.28 Q1618.48 1473.71 1618.48 1466.61 Q1618.48 1459.48 1616.65 1455.94 Q1614.85 1452.37 1611.21 1452.37 M1611.21 1448.67 Q1617.02 1448.67 1620.08 1453.27 Q1623.16 1457.86 1623.16 1466.61 Q1623.16 1475.33 1620.08 1479.94 Q1617.02 1484.52 1611.21 1484.52 Q1605.4 1484.52 1602.32 1479.94 Q1599.27 1475.33 1599.27 1466.61 Q1599.27 1457.86 1602.32 1453.27 Q1605.4 1448.67 1611.21 1448.67 Z" fill="#000000" fill-rule="evenodd" fill-opacity="1" /><path clip-path="url(#clip740)" d="M1641.37 1452.37 Q1637.76 1452.37 1635.93 1455.94 Q1634.13 1459.48 1634.13 1466.61 Q1634.13 1473.71 1635.93 1477.28 Q1637.76 1480.82 1641.37 1480.82 Q1645.01 1480.82 1646.81 1477.28 Q1648.64 1473.71 1648.64 1466.61 Q1648.64 1459.48 1646.81 1455.94 Q1645.01 1452.37 1641.37 1452.37 M1641.37 1448.67 Q1647.18 1448.67 1650.24 1453.27 Q1653.32 1457.86 1653.32 1466.61 Q1653.32 1475.33 1650.24 1479.94 Q1647.18 1484.52 1641.37 1484.52 Q1635.56 1484.52 1632.48 1479.94 Q1629.43 1475.33 1629.43 1466.61 Q1629.43 1457.86 1632.48 1453.27 Q1635.56 1448.67 1641.37 1448.67 Z" fill="#000000" fill-rule="evenodd" fill-opacity="1" /><path clip-path="url(#clip740)" d="M2238.98 1479.92 L2246.62 1479.92 L2246.62 1453.55 L2238.31 1455.22 L2238.31 1450.96 L2246.57 1449.29 L2251.25 1449.29 L2251.25 1479.92 L2258.89 1479.92 L2258.89 1483.85 L2238.98 1483.85 L2238.98 1479.92 Z" fill="#000000" fill-rule="evenodd" fill-opacity="1" /><path clip-path="url(#clip740)" d="M2268.38 1449.29 L2286.73 1449.29 L2286.73 1453.23 L2272.66 1453.23 L2272.66 1461.7 Q2273.68 1461.35 2274.7 1461.19 Q2275.72 1461 2276.73 1461 Q2282.52 1461 2285.9 1464.18 Q2289.28 1467.35 2289.28 1472.76 Q2289.28 1478.34 2285.81 1481.44 Q2282.34 1484.52 2276.02 1484.52 Q2273.84 1484.52 2271.57 1484.15 Q2269.33 1483.78 2266.92 1483.04 L2266.92 1478.34 Q2269 1479.48 2271.22 1480.03 Q2273.45 1480.59 2275.92 1480.59 Q2279.93 1480.59 2282.27 1478.48 Q2284.6 1476.38 2284.6 1472.76 Q2284.6 1469.15 2282.27 1467.05 Q2279.93 1464.94 2275.92 1464.94 Q2274.05 1464.94 2272.17 1465.36 Q2270.32 1465.77 2268.38 1466.65 L2268.38 1449.29 Z" fill="#000000" fill-rule="evenodd" fill-opacity="1" /><path clip-path="url(#clip740)" d="M2308.49 1452.37 Q2304.88 1452.37 2303.05 1455.94 Q2301.25 1459.48 2301.25 1466.61 Q2301.25 1473.71 2303.05 1477.28 Q2304.88 1480.82 2308.49 1480.82 Q2312.13 1480.82 2313.93 1477.28 Q2315.76 1473.71 2315.76 1466.61 Q2315.76 1459.48 2313.93 1455.94 Q2312.13 1452.37 2308.49 1452.37 M2308.49 1448.67 Q2314.3 1448.67 2317.36 1453.27 Q2320.44 1457.86 2320.44 1466.61 Q2320.44 1475.33 2317.36 1479.94 Q2314.3 1484.52 2308.49 1484.52 Q2302.68 1484.52 2299.6 1479.94 Q2296.55 1475.33 2296.55 1466.61 Q2296.55 1457.86 2299.6 1453.27 Q2302.68 1448.67 2308.49 1448.67 Z" fill="#000000" fill-rule="evenodd" fill-opacity="1" /><path clip-path="url(#clip740)" d="M1015.33 1520.52 L1023.99 1520.52 L1045.06 1560.28 L1045.06 1520.52 L1051.3 1520.52 L1051.3 1568.04 L1042.64 1568.04 L1021.57 1528.29 L1021.57 1568.04 L1015.33 1568.04 L1015.33 1520.52 Z" fill="#000000" fill-rule="evenodd" fill-opacity="1" /><path clip-path="url(#clip740)" d="M1063.24 1553.98 L1063.24 1532.4 L1069.09 1532.4 L1069.09 1553.75 Q1069.09 1558.81 1071.07 1561.36 Q1073.04 1563.87 1076.99 1563.87 Q1081.73 1563.87 1084.47 1560.85 Q1087.23 1557.83 1087.23 1552.61 L1087.23 1532.4 L1093.09 1532.4 L1093.09 1568.04 L1087.23 1568.04 L1087.23 1562.57 Q1085.1 1565.82 1082.27 1567.41 Q1079.47 1568.97 1075.74 1568.97 Q1069.6 1568.97 1066.42 1565.15 Q1063.24 1561.33 1063.24 1553.98 M1077.97 1531.54 L1077.97 1531.54 Z" fill="#000000" fill-rule="evenodd" fill-opacity="1" /><path clip-path="url(#clip740)" d="M1132.91 1539.24 Q1135.1 1535.29 1138.16 1533.41 Q1141.22 1531.54 1145.35 1531.54 Q1150.92 1531.54 1153.95 1535.45 Q1156.97 1539.33 1156.97 1546.53 L1156.97 1568.04 L1151.08 1568.04 L1151.08 1546.72 Q1151.08 1541.59 1149.27 1539.11 Q1147.45 1536.63 1143.73 1536.63 Q1139.18 1536.63 1136.54 1539.65 Q1133.9 1542.68 1133.9 1547.9 L1133.9 1568.04 L1128.01 1568.04 L1128.01 1546.72 Q1128.01 1541.56 1126.19 1539.11 Q1124.38 1536.63 1120.59 1536.63 Q1116.1 1536.63 1113.46 1539.68 Q1110.82 1542.71 1110.82 1547.9 L1110.82 1568.04 L1104.93 1568.04 L1104.93 1532.4 L1110.82 1532.4 L1110.82 1537.93 Q1112.82 1534.66 1115.63 1533.1 Q1118.43 1531.54 1122.28 1531.54 Q1126.16 1531.54 1128.87 1533.51 Q1131.6 1535.48 1132.91 1539.24 Z" fill="#000000" fill-rule="evenodd" fill-opacity="1" /><path clip-path="url(#clip740)" d="M1194.24 1550.25 Q1194.24 1543.79 1191.57 1540.13 Q1188.93 1536.44 1184.28 1536.44 Q1179.63 1536.44 1176.96 1540.13 Q1174.32 1543.79 1174.32 1550.25 Q1174.32 1556.71 1176.96 1560.4 Q1179.63 1564.07 1184.28 1564.07 Q1188.93 1564.07 1191.57 1560.4 Q1194.24 1556.71 1194.24 1550.25 M1174.32 1537.81 Q1176.16 1534.62 1178.96 1533.1 Q1181.8 1531.54 1185.71 1531.54 Q1192.21 1531.54 1196.25 1536.69 Q1200.32 1541.85 1200.32 1550.25 Q1200.32 1558.65 1196.25 1563.81 Q1192.21 1568.97 1185.71 1568.97 Q1181.8 1568.97 1178.96 1567.44 Q1176.16 1565.88 1174.32 1562.7 L1174.32 1568.04 L1168.43 1568.04 L1168.43 1518.52 L1174.32 1518.52 L1174.32 1537.81 Z" fill="#000000" fill-rule="evenodd" fill-opacity="1" /><path clip-path="url(#clip740)" d="M1240.52 1548.76 L1240.52 1551.62 L1213.59 1551.62 Q1213.98 1557.67 1217.22 1560.85 Q1220.5 1564 1226.33 1564 Q1229.7 1564 1232.85 1563.17 Q1236.03 1562.35 1239.15 1560.69 L1239.15 1566.23 Q1236 1567.57 1232.69 1568.27 Q1229.38 1568.97 1225.98 1568.97 Q1217.45 1568.97 1212.45 1564 Q1207.48 1559.04 1207.48 1550.57 Q1207.48 1541.82 1212.19 1536.69 Q1216.94 1531.54 1224.96 1531.54 Q1232.15 1531.54 1236.32 1536.18 Q1240.52 1540.8 1240.52 1548.76 M1234.66 1547.04 Q1234.6 1542.23 1231.96 1539.37 Q1229.35 1536.5 1225.02 1536.5 Q1220.12 1536.5 1217.16 1539.27 Q1214.23 1542.04 1213.78 1547.07 L1234.66 1547.04 Z" fill="#000000" fill-rule="evenodd" fill-opacity="1" /><path clip-path="url(#clip740)" d="M1270.79 1537.87 Q1269.8 1537.3 1268.63 1537.04 Q1267.48 1536.76 1266.08 1536.76 Q1261.11 1536.76 1258.44 1540 Q1255.8 1543.22 1255.8 1549.27 L1255.8 1568.04 L1249.91 1568.04 L1249.91 1532.4 L1255.8 1532.4 L1255.8 1537.93 Q1257.64 1534.69 1260.6 1533.13 Q1263.56 1531.54 1267.8 1531.54 Q1268.4 1531.54 1269.13 1531.63 Q1269.87 1531.7 1270.76 1531.85 L1270.79 1537.87 Z" fill="#000000" fill-rule="evenodd" fill-opacity="1" /><path clip-path="url(#clip740)" d="M1311.47 1536.5 Q1306.76 1536.5 1304.02 1540.19 Q1301.28 1543.85 1301.28 1550.25 Q1301.28 1556.65 1303.99 1560.34 Q1306.72 1564 1311.47 1564 Q1316.15 1564 1318.88 1560.31 Q1321.62 1556.62 1321.62 1550.25 Q1321.62 1543.92 1318.88 1540.23 Q1316.15 1536.5 1311.47 1536.5 M1311.47 1531.54 Q1319.11 1531.54 1323.47 1536.5 Q1327.83 1541.47 1327.83 1550.25 Q1327.83 1559 1323.47 1564 Q1319.11 1568.97 1311.47 1568.97 Q1303.8 1568.97 1299.44 1564 Q1295.11 1559 1295.11 1550.25 Q1295.11 1541.47 1299.44 1536.5 Q1303.8 1531.54 1311.47 1531.54 Z" fill="#000000" fill-rule="evenodd" fill-opacity="1" /><path clip-path="url(#clip740)" d="M1355.58 1518.52 L1355.58 1523.39 L1349.98 1523.39 Q1346.83 1523.39 1345.59 1524.66 Q1344.38 1525.93 1344.38 1529.24 L1344.38 1532.4 L1354.02 1532.4 L1354.02 1536.95 L1344.38 1536.95 L1344.38 1568.04 L1338.49 1568.04 L1338.49 1536.95 L1332.89 1536.95 L1332.89 1532.4 L1338.49 1532.4 L1338.49 1529.91 Q1338.49 1523.96 1341.26 1521.26 Q1344.03 1518.52 1350.04 1518.52 L1355.58 1518.52 Z" fill="#000000" fill-rule="evenodd" fill-opacity="1" /><path clip-path="url(#clip740)" d="M1404.66 1549.81 Q1404.66 1543.44 1402.02 1539.94 Q1399.41 1536.44 1394.67 1536.44 Q1389.96 1536.44 1387.31 1539.94 Q1384.7 1543.44 1384.7 1549.81 Q1384.7 1556.14 1387.31 1559.64 Q1389.96 1563.14 1394.67 1563.14 Q1399.41 1563.14 1402.02 1559.64 Q1404.66 1556.14 1404.66 1549.81 M1410.52 1563.62 Q1410.52 1572.72 1406.47 1577.15 Q1402.43 1581.6 1394.09 1581.6 Q1391.01 1581.6 1388.27 1581.13 Q1385.53 1580.68 1382.95 1579.72 L1382.95 1574.03 Q1385.53 1575.43 1388.05 1576.1 Q1390.56 1576.76 1393.17 1576.76 Q1398.93 1576.76 1401.8 1573.74 Q1404.66 1570.75 1404.66 1564.67 L1404.66 1561.77 Q1402.85 1564.92 1400.01 1566.48 Q1397.18 1568.04 1393.23 1568.04 Q1386.68 1568.04 1382.67 1563.05 Q1378.66 1558.05 1378.66 1549.81 Q1378.66 1541.53 1382.67 1536.53 Q1386.68 1531.54 1393.23 1531.54 Q1397.18 1531.54 1400.01 1533.1 Q1402.85 1534.66 1404.66 1537.81 L1404.66 1532.4 L1410.52 1532.4 L1410.52 1563.62 Z" fill="#000000" fill-rule="evenodd" fill-opacity="1" /><path clip-path="url(#clip740)" d="M1453.07 1548.76 L1453.07 1551.62 L1426.14 1551.62 Q1426.53 1557.67 1429.77 1560.85 Q1433.05 1564 1438.88 1564 Q1442.25 1564 1445.4 1563.17 Q1448.58 1562.35 1451.7 1560.69 L1451.7 1566.23 Q1448.55 1567.57 1445.24 1568.27 Q1441.93 1568.97 1438.53 1568.97 Q1430 1568.97 1425 1564 Q1420.03 1559.04 1420.03 1550.57 Q1420.03 1541.82 1424.74 1536.69 Q1429.49 1531.54 1437.51 1531.54 Q1444.7 1531.54 1448.87 1536.18 Q1453.07 1540.8 1453.07 1548.76 M1447.22 1547.04 Q1447.15 1542.23 1444.51 1539.37 Q1441.9 1536.5 1437.57 1536.5 Q1432.67 1536.5 1429.71 1539.27 Q1426.78 1542.04 1426.34 1547.07 L1447.22 1547.04 Z" fill="#000000" fill-rule="evenodd" fill-opacity="1" /><path clip-path="url(#clip740)" d="M1492.32 1546.53 L1492.32 1568.04 L1486.46 1568.04 L1486.46 1546.72 Q1486.46 1541.66 1484.49 1539.14 Q1482.51 1536.63 1478.57 1536.63 Q1473.82 1536.63 1471.09 1539.65 Q1468.35 1542.68 1468.35 1547.9 L1468.35 1568.04 L1462.46 1568.04 L1462.46 1532.4 L1468.35 1532.4 L1468.35 1537.93 Q1470.45 1534.72 1473.28 1533.13 Q1476.15 1531.54 1479.87 1531.54 Q1486.01 1531.54 1489.17 1535.36 Q1492.32 1539.14 1492.32 1546.53 Z" fill="#000000" fill-rule="evenodd" fill-opacity="1" /><path clip-path="url(#clip740)" d="M1534.49 1548.76 L1534.49 1551.62 L1507.56 1551.62 Q1507.94 1557.67 1511.19 1560.85 Q1514.47 1564 1520.29 1564 Q1523.67 1564 1526.82 1563.17 Q1530 1562.35 1533.12 1560.69 L1533.12 1566.23 Q1529.97 1567.57 1526.66 1568.27 Q1523.35 1568.97 1519.94 1568.97 Q1511.41 1568.97 1506.42 1564 Q1501.45 1559.04 1501.45 1550.57 Q1501.45 1541.82 1506.16 1536.69 Q1510.9 1531.54 1518.93 1531.54 Q1526.12 1531.54 1530.29 1536.18 Q1534.49 1540.8 1534.49 1548.76 M1528.63 1547.04 Q1528.57 1542.23 1525.93 1539.37 Q1523.32 1536.5 1518.99 1536.5 Q1514.09 1536.5 1511.13 1539.27 Q1508.2 1542.04 1507.75 1547.07 L1528.63 1547.04 Z" fill="#000000" fill-rule="evenodd" fill-opacity="1" /><path clip-path="url(#clip740)" d="M1566.83 1533.45 L1566.83 1538.98 Q1564.34 1537.71 1561.67 1537.07 Q1559 1536.44 1556.13 1536.44 Q1551.77 1536.44 1549.58 1537.77 Q1547.41 1539.11 1547.41 1541.79 Q1547.41 1543.82 1548.97 1545 Q1550.53 1546.15 1555.24 1547.2 L1557.25 1547.64 Q1563.49 1548.98 1566.1 1551.43 Q1568.74 1553.85 1568.74 1558.21 Q1568.74 1563.17 1564.79 1566.07 Q1560.88 1568.97 1554 1568.97 Q1551.14 1568.97 1548.02 1568.39 Q1544.93 1567.85 1541.49 1566.74 L1541.49 1560.69 Q1544.74 1562.38 1547.89 1563.24 Q1551.04 1564.07 1554.13 1564.07 Q1558.27 1564.07 1560.49 1562.66 Q1562.72 1561.23 1562.72 1558.65 Q1562.72 1556.27 1561.1 1554.99 Q1559.51 1553.72 1554.06 1552.54 L1552.03 1552.07 Q1546.58 1550.92 1544.17 1548.56 Q1541.75 1546.18 1541.75 1542.04 Q1541.75 1537.01 1545.31 1534.27 Q1548.88 1531.54 1555.43 1531.54 Q1558.68 1531.54 1561.54 1532.01 Q1564.41 1532.49 1566.83 1533.45 Z" fill="#000000" fill-rule="evenodd" fill-opacity="1" /><polyline clip-path="url(#clip740)" style="stroke:#000000; stroke-linecap:butt; stroke-linejoin:round; stroke-width:4; stroke-opacity:1; fill:none" points="
  231.315,1423.18 231.315,47.2441 
  "/>
<polyline clip-path="url(#clip740)" style="stroke:#000000; stroke-linecap:butt; stroke-linejoin:round; stroke-width:4; stroke-opacity:1; fill:none" points="
  231.315,1384.24 250.213,1384.24 
  "/>
<polyline clip-path="url(#clip740)" style="stroke:#000000; stroke-linecap:butt; stroke-linejoin:round; stroke-width:4; stroke-opacity:1; fill:none" points="
  231.315,1108.06 250.213,1108.06 
  "/>
<polyline clip-path="url(#clip740)" style="stroke:#000000; stroke-linecap:butt; stroke-linejoin:round; stroke-width:4; stroke-opacity:1; fill:none" points="
  231.315,831.884 250.213,831.884 
  "/>
<polyline clip-path="url(#clip740)" style="stroke:#000000; stroke-linecap:butt; stroke-linejoin:round; stroke-width:4; stroke-opacity:1; fill:none" points="
  231.315,555.707 250.213,555.707 
  "/>
<polyline clip-path="url(#clip740)" style="stroke:#000000; stroke-linecap:butt; stroke-linejoin:round; stroke-width:4; stroke-opacity:1; fill:none" points="
  231.315,279.53 250.213,279.53 
  "/>
<path clip-path="url(#clip740)" d="M183.371 1370.04 Q179.759 1370.04 177.931 1373.6 Q176.125 1377.14 176.125 1384.27 Q176.125 1391.38 177.931 1394.94 Q179.759 1398.49 183.371 1398.49 Q187.005 1398.49 188.81 1394.94 Q190.639 1391.38 190.639 1384.27 Q190.639 1377.14 188.81 1373.6 Q187.005 1370.04 183.371 1370.04 M183.371 1366.33 Q189.181 1366.33 192.236 1370.94 Q195.315 1375.52 195.315 1384.27 Q195.315 1393 192.236 1397.61 Q189.181 1402.19 183.371 1402.19 Q177.56 1402.19 174.482 1397.61 Q171.426 1393 171.426 1384.27 Q171.426 1375.52 174.482 1370.94 Q177.56 1366.33 183.371 1366.33 Z" fill="#000000" fill-rule="evenodd" fill-opacity="1" /><path clip-path="url(#clip740)" d="M117.075 1121.41 L133.394 1121.41 L133.394 1125.34 L111.45 1125.34 L111.45 1121.41 Q114.112 1118.65 118.695 1114.02 Q123.301 1109.37 124.482 1108.03 Q126.727 1105.5 127.607 1103.77 Q128.51 1102.01 128.51 1100.32 Q128.51 1097.56 126.565 1095.83 Q124.644 1094.09 121.542 1094.09 Q119.343 1094.09 116.889 1094.86 Q114.459 1095.62 111.681 1097.17 L111.681 1092.45 Q114.505 1091.31 116.959 1090.73 Q119.413 1090.16 121.45 1090.16 Q126.82 1090.16 130.014 1092.84 Q133.209 1095.53 133.209 1100.02 Q133.209 1102.15 132.399 1104.07 Q131.612 1105.97 129.505 1108.56 Q128.926 1109.23 125.825 1112.45 Q122.723 1115.64 117.075 1121.41 Z" fill="#000000" fill-rule="evenodd" fill-opacity="1" /><path clip-path="url(#clip740)" d="M153.209 1093.86 Q149.598 1093.86 147.769 1097.42 Q145.963 1100.97 145.963 1108.1 Q145.963 1115.2 147.769 1118.77 Q149.598 1122.31 153.209 1122.31 Q156.843 1122.31 158.648 1118.77 Q160.477 1115.2 160.477 1108.1 Q160.477 1100.97 158.648 1097.42 Q156.843 1093.86 153.209 1093.86 M153.209 1090.16 Q159.019 1090.16 162.074 1094.76 Q165.153 1099.35 165.153 1108.1 Q165.153 1116.82 162.074 1121.43 Q159.019 1126.01 153.209 1126.01 Q147.399 1126.01 144.32 1121.43 Q141.264 1116.82 141.264 1108.1 Q141.264 1099.35 144.32 1094.76 Q147.399 1090.16 153.209 1090.16 Z" fill="#000000" fill-rule="evenodd" fill-opacity="1" /><path clip-path="url(#clip740)" d="M183.371 1093.86 Q179.759 1093.86 177.931 1097.42 Q176.125 1100.97 176.125 1108.1 Q176.125 1115.2 177.931 1118.77 Q179.759 1122.31 183.371 1122.31 Q187.005 1122.31 188.81 1118.77 Q190.639 1115.2 190.639 1108.1 Q190.639 1100.97 188.81 1097.42 Q187.005 1093.86 183.371 1093.86 M183.371 1090.16 Q189.181 1090.16 192.236 1094.76 Q195.315 1099.35 195.315 1108.1 Q195.315 1116.82 192.236 1121.43 Q189.181 1126.01 183.371 1126.01 Q177.56 1126.01 174.482 1121.43 Q171.426 1116.82 171.426 1108.1 Q171.426 1099.35 174.482 1094.76 Q177.56 1090.16 183.371 1090.16 Z" fill="#000000" fill-rule="evenodd" fill-opacity="1" /><path clip-path="url(#clip740)" d="M125.894 818.678 L114.089 837.127 L125.894 837.127 L125.894 818.678 M124.667 814.604 L130.547 814.604 L130.547 837.127 L135.477 837.127 L135.477 841.016 L130.547 841.016 L130.547 849.164 L125.894 849.164 L125.894 841.016 L110.292 841.016 L110.292 836.502 L124.667 814.604 Z" fill="#000000" fill-rule="evenodd" fill-opacity="1" /><path clip-path="url(#clip740)" d="M153.209 817.683 Q149.598 817.683 147.769 821.248 Q145.963 824.789 145.963 831.919 Q145.963 839.025 147.769 842.59 Q149.598 846.132 153.209 846.132 Q156.843 846.132 158.648 842.59 Q160.477 839.025 160.477 831.919 Q160.477 824.789 158.648 821.248 Q156.843 817.683 153.209 817.683 M153.209 813.979 Q159.019 813.979 162.074 818.586 Q165.153 823.169 165.153 831.919 Q165.153 840.646 162.074 845.252 Q159.019 849.836 153.209 849.836 Q147.399 849.836 144.32 845.252 Q141.264 840.646 141.264 831.919 Q141.264 823.169 144.32 818.586 Q147.399 813.979 153.209 813.979 Z" fill="#000000" fill-rule="evenodd" fill-opacity="1" /><path clip-path="url(#clip740)" d="M183.371 817.683 Q179.759 817.683 177.931 821.248 Q176.125 824.789 176.125 831.919 Q176.125 839.025 177.931 842.59 Q179.759 846.132 183.371 846.132 Q187.005 846.132 188.81 842.59 Q190.639 839.025 190.639 831.919 Q190.639 824.789 188.81 821.248 Q187.005 817.683 183.371 817.683 M183.371 813.979 Q189.181 813.979 192.236 818.586 Q195.315 823.169 195.315 831.919 Q195.315 840.646 192.236 845.252 Q189.181 849.836 183.371 849.836 Q177.56 849.836 174.482 845.252 Q171.426 840.646 171.426 831.919 Q171.426 823.169 174.482 818.586 Q177.56 813.979 183.371 813.979 Z" fill="#000000" fill-rule="evenodd" fill-opacity="1" /><path clip-path="url(#clip740)" d="M123.626 553.844 Q120.477 553.844 118.626 555.997 Q116.797 558.149 116.797 561.899 Q116.797 565.626 118.626 567.802 Q120.477 569.955 123.626 569.955 Q126.774 569.955 128.602 567.802 Q130.454 565.626 130.454 561.899 Q130.454 558.149 128.602 555.997 Q126.774 553.844 123.626 553.844 M132.908 539.191 L132.908 543.45 Q131.149 542.617 129.343 542.177 Q127.561 541.737 125.801 541.737 Q121.172 541.737 118.718 544.862 Q116.288 547.987 115.94 554.307 Q117.306 552.293 119.366 551.228 Q121.426 550.14 123.903 550.14 Q129.112 550.14 132.121 553.311 Q135.153 556.46 135.153 561.899 Q135.153 567.223 132.005 570.441 Q128.857 573.659 123.626 573.659 Q117.63 573.659 114.459 569.075 Q111.288 564.469 111.288 555.742 Q111.288 547.548 115.176 542.687 Q119.065 537.802 125.616 537.802 Q127.375 537.802 129.158 538.15 Q130.963 538.497 132.908 539.191 Z" fill="#000000" fill-rule="evenodd" fill-opacity="1" /><path clip-path="url(#clip740)" d="M153.209 541.506 Q149.598 541.506 147.769 545.071 Q145.963 548.612 145.963 555.742 Q145.963 562.848 147.769 566.413 Q149.598 569.955 153.209 569.955 Q156.843 569.955 158.648 566.413 Q160.477 562.848 160.477 555.742 Q160.477 548.612 158.648 545.071 Q156.843 541.506 153.209 541.506 M153.209 537.802 Q159.019 537.802 162.074 542.409 Q165.153 546.992 165.153 555.742 Q165.153 564.469 162.074 569.075 Q159.019 573.659 153.209 573.659 Q147.399 573.659 144.32 569.075 Q141.264 564.469 141.264 555.742 Q141.264 546.992 144.32 542.409 Q147.399 537.802 153.209 537.802 Z" fill="#000000" fill-rule="evenodd" fill-opacity="1" /><path clip-path="url(#clip740)" d="M183.371 541.506 Q179.759 541.506 177.931 545.071 Q176.125 548.612 176.125 555.742 Q176.125 562.848 177.931 566.413 Q179.759 569.955 183.371 569.955 Q187.005 569.955 188.81 566.413 Q190.639 562.848 190.639 555.742 Q190.639 548.612 188.81 545.071 Q187.005 541.506 183.371 541.506 M183.371 537.802 Q189.181 537.802 192.236 542.409 Q195.315 546.992 195.315 555.742 Q195.315 564.469 192.236 569.075 Q189.181 573.659 183.371 573.659 Q177.56 573.659 174.482 569.075 Q171.426 564.469 171.426 555.742 Q171.426 546.992 174.482 542.409 Q177.56 537.802 183.371 537.802 Z" fill="#000000" fill-rule="evenodd" fill-opacity="1" /><path clip-path="url(#clip740)" d="M123.047 280.398 Q119.713 280.398 117.792 282.181 Q115.894 283.963 115.894 287.088 Q115.894 290.213 117.792 291.996 Q119.713 293.778 123.047 293.778 Q126.38 293.778 128.301 291.996 Q130.223 290.19 130.223 287.088 Q130.223 283.963 128.301 282.181 Q126.403 280.398 123.047 280.398 M118.371 278.408 Q115.362 277.667 113.672 275.607 Q112.005 273.547 112.005 270.584 Q112.005 266.44 114.945 264.033 Q117.908 261.625 123.047 261.625 Q128.209 261.625 131.149 264.033 Q134.088 266.44 134.088 270.584 Q134.088 273.547 132.399 275.607 Q130.732 277.667 127.746 278.408 Q131.125 279.195 133 281.486 Q134.899 283.778 134.899 287.088 Q134.899 292.111 131.82 294.796 Q128.764 297.482 123.047 297.482 Q117.329 297.482 114.251 294.796 Q111.195 292.111 111.195 287.088 Q111.195 283.778 113.093 281.486 Q114.991 279.195 118.371 278.408 M116.658 271.023 Q116.658 273.709 118.325 275.213 Q120.014 276.718 123.047 276.718 Q126.056 276.718 127.746 275.213 Q129.459 273.709 129.459 271.023 Q129.459 268.338 127.746 266.834 Q126.056 265.329 123.047 265.329 Q120.014 265.329 118.325 266.834 Q116.658 268.338 116.658 271.023 Z" fill="#000000" fill-rule="evenodd" fill-opacity="1" /><path clip-path="url(#clip740)" d="M153.209 265.329 Q149.598 265.329 147.769 268.894 Q145.963 272.435 145.963 279.565 Q145.963 286.671 147.769 290.236 Q149.598 293.778 153.209 293.778 Q156.843 293.778 158.648 290.236 Q160.477 286.671 160.477 279.565 Q160.477 272.435 158.648 268.894 Q156.843 265.329 153.209 265.329 M153.209 261.625 Q159.019 261.625 162.074 266.232 Q165.153 270.815 165.153 279.565 Q165.153 288.292 162.074 292.898 Q159.019 297.482 153.209 297.482 Q147.399 297.482 144.32 292.898 Q141.264 288.292 141.264 279.565 Q141.264 270.815 144.32 266.232 Q147.399 261.625 153.209 261.625 Z" fill="#000000" fill-rule="evenodd" fill-opacity="1" /><path clip-path="url(#clip740)" d="M183.371 265.329 Q179.759 265.329 177.931 268.894 Q176.125 272.435 176.125 279.565 Q176.125 286.671 177.931 290.236 Q179.759 293.778 183.371 293.778 Q187.005 293.778 188.81 290.236 Q190.639 286.671 190.639 279.565 Q190.639 272.435 188.81 268.894 Q187.005 265.329 183.371 265.329 M183.371 261.625 Q189.181 261.625 192.236 266.232 Q195.315 270.815 195.315 279.565 Q195.315 288.292 192.236 292.898 Q189.181 297.482 183.371 297.482 Q177.56 297.482 174.482 292.898 Q171.426 288.292 171.426 279.565 Q171.426 270.815 174.482 266.232 Q177.56 261.625 183.371 261.625 Z" fill="#000000" fill-rule="evenodd" fill-opacity="1" /><path clip-path="url(#clip740)" d="M79.6659 762.12 Q80.2134 762.12 80.5999 762.506 Q80.9863 762.893 80.9863 763.44 Q80.9863 764.374 80.1168 764.696 L48.4584 776.966 Q48.3296 777.031 48.0075 777.031 Q47.6855 777.031 47.5566 776.966 L15.8983 764.696 Q15.0287 764.374 15.0287 763.44 Q15.0287 762.893 15.4152 762.506 Q15.8017 762.12 16.3492 762.12 Q16.6712 762.12 16.8 762.184 L48.0075 774.326 L79.215 762.184 Q79.3438 762.12 79.6659 762.12 Z" fill="#000000" fill-rule="evenodd" fill-opacity="1" /><path clip-path="url(#clip740)" d="M45.8819 717.179 Q50.584 717.179 55.125 719.563 Q59.666 721.914 62.468 725.617 Q65.2377 729.321 65.2377 733.089 Q65.2377 735.344 64.0138 736.857 Q62.7578 738.339 60.9865 739.144 Q63.1765 739.756 68.426 741.076 Q73.6756 742.397 74.1909 742.397 Q74.4807 742.397 74.6096 742.332 Q74.7384 742.268 74.8994 741.978 Q75.0927 741.688 75.1571 740.98 Q75.2537 740.271 75.2537 739.079 Q75.2537 738.467 75.2537 738.242 Q75.2859 737.984 75.4469 737.759 Q75.608 737.501 75.9622 737.501 Q77.2827 737.501 77.2827 738.693 Q77.2827 739.756 77.186 741.946 Q77.0894 744.136 77.0894 745.231 Q77.0894 746.165 77.186 748.033 Q77.2827 749.901 77.2827 750.77 Q77.2827 751.64 76.5097 751.64 Q76.0588 751.64 75.769 751.511 Q75.5113 751.414 75.3825 751.157 Q75.2859 750.899 75.2537 750.674 Q75.2537 750.48 75.2537 750.094 Q75.2537 748.612 74.996 747.968 Q74.7706 747.324 74.2875 747.099 Q73.8366 746.841 72.5484 746.551 L43.1766 739.144 Q41.2121 738.693 39.8272 738.693 Q38.0881 738.693 37.444 739.24 Q36.7999 739.788 36.7999 740.754 Q36.7999 742.429 38.7967 743.524 Q40.7934 744.619 44.6581 745.553 Q45.7209 745.843 45.9464 746.036 Q46.1718 746.197 46.1718 746.68 Q46.1396 747.485 45.4955 747.485 Q45.3344 747.485 44.3039 747.227 Q43.2411 746.97 41.6952 746.487 Q40.1171 745.971 39.1187 745.424 Q38.4424 745.102 37.9915 744.812 Q37.5406 744.522 36.8321 743.942 Q36.1236 743.331 35.7371 742.461 Q35.3506 741.591 35.3506 740.529 Q35.3506 738.467 36.5744 736.761 Q37.7983 735.054 40.2781 734.603 Q38.1203 732.767 36.7355 730.513 Q35.3506 728.258 35.3506 725.972 Q35.3506 722.171 38.3136 719.691 Q41.2443 717.179 45.8819 717.179 M42.9834 721.946 Q40.0527 721.946 38.4424 723.073 Q36.7999 724.168 36.7999 726.165 Q36.7999 728.645 39.3119 731.511 Q41.6952 734.345 43.9174 734.925 L56.8319 738.178 L57.8947 738.371 Q58.088 738.371 58.6677 738.274 Q59.2152 738.145 60.1169 737.791 Q61.0187 737.405 61.8238 736.889 Q62.5968 736.342 63.1765 735.376 Q63.7562 734.377 63.7562 733.154 Q63.7562 731.189 62.0171 729.063 Q60.278 726.906 56.993 725.295 Q54.8674 724.297 50.2941 723.138 Q45.6887 721.946 42.9834 721.946 Z" fill="#000000" fill-rule="evenodd" fill-opacity="1" /><path clip-path="url(#clip740)" d="M47.5566 703.97 Q47.6855 703.905 48.0075 703.905 Q48.3296 703.905 48.4584 703.97 L80.1168 716.24 Q80.9863 716.562 80.9863 717.464 Q80.9863 718.011 80.5999 718.398 Q80.2134 718.784 79.6659 718.784 Q79.3438 718.784 79.215 718.72 L48.0075 706.61 L16.8 718.72 Q16.6712 718.784 16.3492 718.784 Q15.8017 718.784 15.4152 718.398 Q15.0287 718.011 15.0287 717.464 Q15.0287 716.562 15.8983 716.24 L47.5566 703.97 Z" fill="#000000" fill-rule="evenodd" fill-opacity="1" /><circle clip-path="url(#clip742)" cx="291.356" cy="673.388" r="21" fill="#ff00ff" fill-rule="evenodd" fill-opacity="1" stroke="none"/>
<circle clip-path="url(#clip742)" cx="424.78" cy="167.348" r="21" fill="#ff00ff" fill-rule="evenodd" fill-opacity="1" stroke="none"/>
<circle clip-path="url(#clip742)" cx="558.204" cy="123.973" r="21" fill="#ff00ff" fill-rule="evenodd" fill-opacity="1" stroke="none"/>
<circle clip-path="url(#clip742)" cx="691.628" cy="107.802" r="21" fill="#ff00ff" fill-rule="evenodd" fill-opacity="1" stroke="none"/>
<circle clip-path="url(#clip742)" cx="825.052" cy="99.3505" r="21" fill="#ff00ff" fill-rule="evenodd" fill-opacity="1" stroke="none"/>
<circle clip-path="url(#clip742)" cx="958.476" cy="94.1566" r="21" fill="#ff00ff" fill-rule="evenodd" fill-opacity="1" stroke="none"/>
<circle clip-path="url(#clip742)" cx="1091.9" cy="90.6411" r="21" fill="#ff00ff" fill-rule="evenodd" fill-opacity="1" stroke="none"/>
<circle clip-path="url(#clip742)" cx="1225.32" cy="88.1035" r="21" fill="#ff00ff" fill-rule="evenodd" fill-opacity="1" stroke="none"/>
<circle clip-path="url(#clip742)" cx="1358.75" cy="86.1857" r="21" fill="#ff00ff" fill-rule="evenodd" fill-opacity="1" stroke="none"/>
<circle clip-path="url(#clip742)" cx="1492.17" cy="1384.24" r="21" fill="#ff00ff" fill-rule="evenodd" fill-opacity="1" stroke="none"/>
<circle clip-path="url(#clip742)" cx="1625.6" cy="1384.24" r="21" fill="#ff00ff" fill-rule="evenodd" fill-opacity="1" stroke="none"/>
<circle clip-path="url(#clip742)" cx="1759.02" cy="1384.24" r="21" fill="#ff00ff" fill-rule="evenodd" fill-opacity="1" stroke="none"/>
<circle clip-path="url(#clip742)" cx="1892.44" cy="1384.24" r="21" fill="#ff00ff" fill-rule="evenodd" fill-opacity="1" stroke="none"/>
<circle clip-path="url(#clip742)" cx="2025.87" cy="1384.24" r="21" fill="#ff00ff" fill-rule="evenodd" fill-opacity="1" stroke="none"/>
<circle clip-path="url(#clip742)" cx="2159.29" cy="1384.24" r="21" fill="#ff00ff" fill-rule="evenodd" fill-opacity="1" stroke="none"/>
<circle clip-path="url(#clip742)" cx="2292.72" cy="1384.24" r="21" fill="#ff00ff" fill-rule="evenodd" fill-opacity="1" stroke="none"/>
</svg>
