<?xml version="1.0" encoding="utf-8"?>
<svg xmlns="http://www.w3.org/2000/svg" xmlns:xlink="http://www.w3.org/1999/xlink" width="600" height="400" viewBox="0 0 2400 1600">
<defs>
  <clipPath id="clip400">
    <rect x="0" y="0" width="2400" height="1600"/>
  </clipPath>
</defs>
<path clip-path="url(#clip400)" d="
M0 1600 L2400 1600 L2400 0 L0 0  Z
  " fill="#ffffff" fill-rule="evenodd" fill-opacity="1"/>
<defs>
  <clipPath id="clip401">
    <rect x="480" y="0" width="1681" height="1600"/>
  </clipPath>
</defs>
<defs>
  <clipPath id="clip402">
    <rect x="230" y="47" width="2123" height="1377"/>
  </clipPath>
</defs>
<path clip-path="url(#clip400)" d="
M230.644 1423.18 L2352.76 1423.18 L2352.76 47.2441 L230.644 47.2441  Z
  " fill="#ffffff" fill-rule="evenodd" fill-opacity="1"/>
<polyline clip-path="url(#clip400)" style="stroke:#000000; stroke-linecap:butt; stroke-linejoin:round; stroke-width:4; stroke-opacity:1; fill:none" points="
  230.644,1423.18 2352.76,1423.18 
  "/>
<polyline clip-path="url(#clip400)" style="stroke:#000000; stroke-linecap:butt; stroke-linejoin:round; stroke-width:4; stroke-opacity:1; fill:none" points="
  257.337,1423.18 257.337,1404.28 
  "/>
<polyline clip-path="url(#clip400)" style="stroke:#000000; stroke-linecap:butt; stroke-linejoin:round; stroke-width:4; stroke-opacity:1; fill:none" points="
  591.002,1423.18 591.002,1404.28 
  "/>
<polyline clip-path="url(#clip400)" style="stroke:#000000; stroke-linecap:butt; stroke-linejoin:round; stroke-width:4; stroke-opacity:1; fill:none" points="
  924.668,1423.18 924.668,1404.28 
  "/>
<polyline clip-path="url(#clip400)" style="stroke:#000000; stroke-linecap:butt; stroke-linejoin:round; stroke-width:4; stroke-opacity:1; fill:none" points="
  1258.33,1423.18 1258.33,1404.28 
  "/>
<polyline clip-path="url(#clip400)" style="stroke:#000000; stroke-linecap:butt; stroke-linejoin:round; stroke-width:4; stroke-opacity:1; fill:none" points="
  1592,1423.18 1592,1404.28 
  "/>
<polyline clip-path="url(#clip400)" style="stroke:#000000; stroke-linecap:butt; stroke-linejoin:round; stroke-width:4; stroke-opacity:1; fill:none" points="
  1925.66,1423.18 1925.66,1404.28 
  "/>
<polyline clip-path="url(#clip400)" style="stroke:#000000; stroke-linecap:butt; stroke-linejoin:round; stroke-width:4; stroke-opacity:1; fill:none" points="
  2259.33,1423.18 2259.33,1404.28 
  "/>
<path clip-path="url(#clip400)" d="M257.337 1452.37 Q253.726 1452.37 251.897 1455.94 Q250.092 1459.48 250.092 1466.61 Q250.092 1473.71 251.897 1477.28 Q253.726 1480.82 257.337 1480.82 Q260.971 1480.82 262.777 1477.28 Q264.605 1473.71 264.605 1466.61 Q264.605 1459.48 262.777 1455.94 Q260.971 1452.37 257.337 1452.37 M257.337 1448.67 Q263.147 1448.67 266.203 1453.27 Q269.281 1457.86 269.281 1466.61 Q269.281 1475.33 266.203 1479.94 Q263.147 1484.52 257.337 1484.52 Q251.527 1484.52 248.448 1479.94 Q245.392 1475.33 245.392 1466.61 Q245.392 1457.86 248.448 1453.27 Q251.527 1448.67 257.337 1448.67 Z" fill="#000000" fill-rule="evenodd" fill-opacity="1" /><path clip-path="url(#clip400)" d="M565.69 1479.92 L573.329 1479.92 L573.329 1453.55 L565.019 1455.22 L565.019 1450.96 L573.283 1449.29 L577.958 1449.29 L577.958 1479.92 L585.597 1479.92 L585.597 1483.85 L565.69 1483.85 L565.69 1479.92 Z" fill="#000000" fill-rule="evenodd" fill-opacity="1" /><path clip-path="url(#clip400)" d="M605.042 1452.37 Q601.431 1452.37 599.602 1455.94 Q597.796 1459.48 597.796 1466.61 Q597.796 1473.71 599.602 1477.28 Q601.431 1480.82 605.042 1480.82 Q608.676 1480.82 610.481 1477.28 Q612.31 1473.71 612.31 1466.61 Q612.31 1459.48 610.481 1455.94 Q608.676 1452.37 605.042 1452.37 M605.042 1448.67 Q610.852 1448.67 613.907 1453.27 Q616.986 1457.86 616.986 1466.61 Q616.986 1475.33 613.907 1479.94 Q610.852 1484.52 605.042 1484.52 Q599.231 1484.52 596.153 1479.94 Q593.097 1475.33 593.097 1466.61 Q593.097 1457.86 596.153 1453.27 Q599.231 1448.67 605.042 1448.67 Z" fill="#000000" fill-rule="evenodd" fill-opacity="1" /><path clip-path="url(#clip400)" d="M903.441 1479.92 L919.76 1479.92 L919.76 1483.85 L897.816 1483.85 L897.816 1479.92 Q900.478 1477.16 905.061 1472.53 Q909.668 1467.88 910.848 1466.54 Q913.094 1464.01 913.973 1462.28 Q914.876 1460.52 914.876 1458.83 Q914.876 1456.07 912.932 1454.34 Q911.01 1452.6 907.909 1452.6 Q905.71 1452.6 903.256 1453.37 Q900.825 1454.13 898.048 1455.68 L898.048 1450.96 Q900.872 1449.82 903.325 1449.25 Q905.779 1448.67 907.816 1448.67 Q913.186 1448.67 916.381 1451.35 Q919.575 1454.04 919.575 1458.53 Q919.575 1460.66 918.765 1462.58 Q917.978 1464.48 915.872 1467.07 Q915.293 1467.74 912.191 1470.96 Q909.089 1474.15 903.441 1479.92 Z" fill="#000000" fill-rule="evenodd" fill-opacity="1" /><path clip-path="url(#clip400)" d="M939.575 1452.37 Q935.964 1452.37 934.135 1455.94 Q932.33 1459.48 932.33 1466.61 Q932.33 1473.71 934.135 1477.28 Q935.964 1480.82 939.575 1480.82 Q943.209 1480.82 945.015 1477.28 Q946.844 1473.71 946.844 1466.61 Q946.844 1459.48 945.015 1455.94 Q943.209 1452.37 939.575 1452.37 M939.575 1448.67 Q945.385 1448.67 948.441 1453.27 Q951.519 1457.86 951.519 1466.61 Q951.519 1475.33 948.441 1479.94 Q945.385 1484.52 939.575 1484.52 Q933.765 1484.52 930.686 1479.94 Q927.631 1475.33 927.631 1466.61 Q927.631 1457.86 930.686 1453.27 Q933.765 1448.67 939.575 1448.67 Z" fill="#000000" fill-rule="evenodd" fill-opacity="1" /><path clip-path="url(#clip400)" d="M1247.18 1465.22 Q1250.53 1465.94 1252.41 1468.2 Q1254.31 1470.47 1254.31 1473.81 Q1254.31 1478.92 1250.79 1481.72 Q1247.27 1484.52 1240.79 1484.52 Q1238.61 1484.52 1236.3 1484.08 Q1234 1483.67 1231.55 1482.81 L1231.55 1478.3 Q1233.5 1479.43 1235.81 1480.01 Q1238.13 1480.59 1240.65 1480.59 Q1245.05 1480.59 1247.34 1478.85 Q1249.65 1477.12 1249.65 1473.81 Q1249.65 1470.75 1247.5 1469.04 Q1245.37 1467.3 1241.55 1467.3 L1237.52 1467.3 L1237.52 1463.46 L1241.74 1463.46 Q1245.19 1463.46 1247.01 1462.09 Q1248.84 1460.7 1248.84 1458.11 Q1248.84 1455.45 1246.94 1454.04 Q1245.07 1452.6 1241.55 1452.6 Q1239.63 1452.6 1237.43 1453.02 Q1235.23 1453.44 1232.59 1454.31 L1232.59 1450.15 Q1235.25 1449.41 1237.57 1449.04 Q1239.91 1448.67 1241.97 1448.67 Q1247.29 1448.67 1250.39 1451.1 Q1253.5 1453.5 1253.5 1457.63 Q1253.5 1460.5 1251.85 1462.49 Q1250.21 1464.45 1247.18 1465.22 Z" fill="#000000" fill-rule="evenodd" fill-opacity="1" /><path clip-path="url(#clip400)" d="M1273.17 1452.37 Q1269.56 1452.37 1267.73 1455.94 Q1265.93 1459.48 1265.93 1466.61 Q1265.93 1473.71 1267.73 1477.28 Q1269.56 1480.82 1273.17 1480.82 Q1276.81 1480.82 1278.61 1477.28 Q1280.44 1473.71 1280.44 1466.61 Q1280.44 1459.48 1278.61 1455.94 Q1276.81 1452.37 1273.17 1452.37 M1273.17 1448.67 Q1278.98 1448.67 1282.04 1453.27 Q1285.12 1457.86 1285.12 1466.61 Q1285.12 1475.33 1282.04 1479.94 Q1278.98 1484.52 1273.17 1484.52 Q1267.36 1484.52 1264.28 1479.94 Q1261.23 1475.33 1261.23 1466.61 Q1261.23 1457.86 1264.28 1453.27 Q1267.36 1448.67 1273.17 1448.67 Z" fill="#000000" fill-rule="evenodd" fill-opacity="1" /><path clip-path="url(#clip400)" d="M1580.17 1453.37 L1568.36 1471.81 L1580.17 1471.81 L1580.17 1453.37 M1578.94 1449.29 L1584.82 1449.29 L1584.82 1471.81 L1589.75 1471.81 L1589.75 1475.7 L1584.82 1475.7 L1584.82 1483.85 L1580.17 1483.85 L1580.17 1475.7 L1564.57 1475.7 L1564.57 1471.19 L1578.94 1449.29 Z" fill="#000000" fill-rule="evenodd" fill-opacity="1" /><path clip-path="url(#clip400)" d="M1607.48 1452.37 Q1603.87 1452.37 1602.04 1455.94 Q1600.24 1459.48 1600.24 1466.61 Q1600.24 1473.71 1602.04 1477.28 Q1603.87 1480.82 1607.48 1480.82 Q1611.12 1480.82 1612.92 1477.28 Q1614.75 1473.71 1614.75 1466.61 Q1614.75 1459.48 1612.92 1455.94 Q1611.12 1452.37 1607.48 1452.37 M1607.48 1448.67 Q1613.29 1448.67 1616.35 1453.27 Q1619.43 1457.86 1619.43 1466.61 Q1619.43 1475.33 1616.35 1479.94 Q1613.29 1484.52 1607.48 1484.52 Q1601.67 1484.52 1598.6 1479.94 Q1595.54 1475.33 1595.54 1466.61 Q1595.54 1457.86 1598.6 1453.27 Q1601.67 1448.67 1607.48 1448.67 Z" fill="#000000" fill-rule="evenodd" fill-opacity="1" /><path clip-path="url(#clip400)" d="M1900.36 1449.29 L1918.72 1449.29 L1918.72 1453.23 L1904.65 1453.23 L1904.65 1461.7 Q1905.66 1461.35 1906.68 1461.19 Q1907.7 1461 1908.72 1461 Q1914.51 1461 1917.89 1464.18 Q1921.27 1467.35 1921.27 1472.76 Q1921.27 1478.34 1917.79 1481.44 Q1914.32 1484.52 1908 1484.52 Q1905.83 1484.52 1903.56 1484.15 Q1901.31 1483.78 1898.91 1483.04 L1898.91 1478.34 Q1900.99 1479.48 1903.21 1480.03 Q1905.43 1480.59 1907.91 1480.59 Q1911.91 1480.59 1914.25 1478.48 Q1916.59 1476.38 1916.59 1472.76 Q1916.59 1469.15 1914.25 1467.05 Q1911.91 1464.94 1907.91 1464.94 Q1906.03 1464.94 1904.16 1465.36 Q1902.31 1465.77 1900.36 1466.65 L1900.36 1449.29 Z" fill="#000000" fill-rule="evenodd" fill-opacity="1" /><path clip-path="url(#clip400)" d="M1940.48 1452.37 Q1936.87 1452.37 1935.04 1455.94 Q1933.23 1459.48 1933.23 1466.61 Q1933.23 1473.71 1935.04 1477.28 Q1936.87 1480.82 1940.48 1480.82 Q1944.11 1480.82 1945.92 1477.28 Q1947.75 1473.71 1947.75 1466.61 Q1947.75 1459.48 1945.92 1455.94 Q1944.11 1452.37 1940.48 1452.37 M1940.48 1448.67 Q1946.29 1448.67 1949.34 1453.27 Q1952.42 1457.86 1952.42 1466.61 Q1952.42 1475.33 1949.34 1479.94 Q1946.29 1484.52 1940.48 1484.52 Q1934.67 1484.52 1931.59 1479.94 Q1928.53 1475.33 1928.53 1466.61 Q1928.53 1457.86 1931.59 1453.27 Q1934.67 1448.67 1940.48 1448.67 Z" fill="#000000" fill-rule="evenodd" fill-opacity="1" /><path clip-path="url(#clip400)" d="M2244.73 1464.71 Q2241.59 1464.71 2239.73 1466.86 Q2237.91 1469.01 2237.91 1472.76 Q2237.91 1476.49 2239.73 1478.67 Q2241.59 1480.82 2244.73 1480.82 Q2247.88 1480.82 2249.71 1478.67 Q2251.56 1476.49 2251.56 1472.76 Q2251.56 1469.01 2249.71 1466.86 Q2247.88 1464.71 2244.73 1464.71 M2254.02 1450.06 L2254.02 1454.31 Q2252.26 1453.48 2250.45 1453.04 Q2248.67 1452.6 2246.91 1452.6 Q2242.28 1452.6 2239.83 1455.73 Q2237.4 1458.85 2237.05 1465.17 Q2238.42 1463.16 2240.48 1462.09 Q2242.54 1461 2245.01 1461 Q2250.22 1461 2253.23 1464.18 Q2256.26 1467.32 2256.26 1472.76 Q2256.26 1478.09 2253.11 1481.31 Q2249.97 1484.52 2244.73 1484.52 Q2238.74 1484.52 2235.57 1479.94 Q2232.4 1475.33 2232.4 1466.61 Q2232.4 1458.41 2236.29 1453.55 Q2240.17 1448.67 2246.73 1448.67 Q2248.48 1448.67 2250.27 1449.01 Q2252.07 1449.36 2254.02 1450.06 Z" fill="#000000" fill-rule="evenodd" fill-opacity="1" /><path clip-path="url(#clip400)" d="M2274.32 1452.37 Q2270.71 1452.37 2268.88 1455.94 Q2267.07 1459.48 2267.07 1466.61 Q2267.07 1473.71 2268.88 1477.28 Q2270.71 1480.82 2274.32 1480.82 Q2277.95 1480.82 2279.76 1477.28 Q2281.59 1473.71 2281.59 1466.61 Q2281.59 1459.48 2279.76 1455.94 Q2277.95 1452.37 2274.32 1452.37 M2274.32 1448.67 Q2280.13 1448.67 2283.18 1453.27 Q2286.26 1457.86 2286.26 1466.61 Q2286.26 1475.33 2283.18 1479.94 Q2280.13 1484.52 2274.32 1484.52 Q2268.51 1484.52 2265.43 1479.94 Q2262.37 1475.33 2262.37 1466.61 Q2262.37 1457.86 2265.43 1453.27 Q2268.51 1448.67 2274.32 1448.67 Z" fill="#000000" fill-rule="evenodd" fill-opacity="1" /><path clip-path="url(#clip400)" d="M1015 1520.52 L1023.66 1520.52 L1044.73 1560.28 L1044.73 1520.52 L1050.96 1520.52 L1050.96 1568.04 L1042.31 1568.04 L1021.24 1528.29 L1021.24 1568.04 L1015 1568.04 L1015 1520.52 Z" fill="#000000" fill-rule="evenodd" fill-opacity="1" /><path clip-path="url(#clip400)" d="M1062.9 1553.98 L1062.9 1532.4 L1068.76 1532.4 L1068.76 1553.75 Q1068.76 1558.81 1070.73 1561.36 Q1072.7 1563.87 1076.65 1563.87 Q1081.39 1563.87 1084.13 1560.85 Q1086.9 1557.83 1086.9 1552.61 L1086.9 1532.4 L1092.76 1532.4 L1092.76 1568.04 L1086.9 1568.04 L1086.9 1562.57 Q1084.77 1565.82 1081.93 1567.41 Q1079.13 1568.97 1075.41 1568.97 Q1069.27 1568.97 1066.08 1565.15 Q1062.9 1561.33 1062.9 1553.98 M1077.64 1531.54 L1077.64 1531.54 Z" fill="#000000" fill-rule="evenodd" fill-opacity="1" /><path clip-path="url(#clip400)" d="M1132.57 1539.24 Q1134.77 1535.29 1137.82 1533.41 Q1140.88 1531.54 1145.02 1531.54 Q1150.59 1531.54 1153.61 1535.45 Q1156.64 1539.33 1156.64 1546.53 L1156.64 1568.04 L1150.75 1568.04 L1150.75 1546.72 Q1150.75 1541.59 1148.93 1539.11 Q1147.12 1536.63 1143.39 1536.63 Q1138.84 1536.63 1136.2 1539.65 Q1133.56 1542.68 1133.56 1547.9 L1133.56 1568.04 L1127.67 1568.04 L1127.67 1546.72 Q1127.67 1541.56 1125.86 1539.11 Q1124.04 1536.63 1120.26 1536.63 Q1115.77 1536.63 1113.13 1539.68 Q1110.48 1542.71 1110.48 1547.9 L1110.48 1568.04 L1104.6 1568.04 L1104.6 1532.4 L1110.48 1532.4 L1110.48 1537.93 Q1112.49 1534.66 1115.29 1533.1 Q1118.09 1531.54 1121.94 1531.54 Q1125.83 1531.54 1128.53 1533.51 Q1131.27 1535.48 1132.57 1539.24 Z" fill="#000000" fill-rule="evenodd" fill-opacity="1" /><path clip-path="url(#clip400)" d="M1193.91 1550.25 Q1193.91 1543.79 1191.23 1540.13 Q1188.59 1536.44 1183.94 1536.44 Q1179.3 1536.44 1176.62 1540.13 Q1173.98 1543.79 1173.98 1550.25 Q1173.98 1556.71 1176.62 1560.4 Q1179.3 1564.07 1183.94 1564.07 Q1188.59 1564.07 1191.23 1560.4 Q1193.91 1556.71 1193.91 1550.25 M1173.98 1537.81 Q1175.83 1534.62 1178.63 1533.1 Q1181.46 1531.54 1185.38 1531.54 Q1191.87 1531.54 1195.91 1536.69 Q1199.99 1541.85 1199.99 1550.25 Q1199.99 1558.65 1195.91 1563.81 Q1191.87 1568.97 1185.38 1568.97 Q1181.46 1568.97 1178.63 1567.44 Q1175.83 1565.88 1173.98 1562.7 L1173.98 1568.04 L1168.09 1568.04 L1168.09 1518.52 L1173.98 1518.52 L1173.98 1537.81 Z" fill="#000000" fill-rule="evenodd" fill-opacity="1" /><path clip-path="url(#clip400)" d="M1240.19 1548.76 L1240.19 1551.62 L1213.26 1551.62 Q1213.64 1557.67 1216.89 1560.85 Q1220.17 1564 1225.99 1564 Q1229.36 1564 1232.51 1563.17 Q1235.7 1562.35 1238.82 1560.69 L1238.82 1566.23 Q1235.67 1567.57 1232.36 1568.27 Q1229.05 1568.97 1225.64 1568.97 Q1217.11 1568.97 1212.11 1564 Q1207.15 1559.04 1207.15 1550.57 Q1207.15 1541.82 1211.86 1536.69 Q1216.6 1531.54 1224.62 1531.54 Q1231.81 1531.54 1235.98 1536.18 Q1240.19 1540.8 1240.19 1548.76 M1234.33 1547.04 Q1234.27 1542.23 1231.62 1539.37 Q1229.01 1536.5 1224.68 1536.5 Q1219.78 1536.5 1216.82 1539.27 Q1213.89 1542.04 1213.45 1547.07 L1234.33 1547.04 Z" fill="#000000" fill-rule="evenodd" fill-opacity="1" /><path clip-path="url(#clip400)" d="M1270.45 1537.87 Q1269.47 1537.3 1268.29 1537.04 Q1267.14 1536.76 1265.74 1536.76 Q1260.78 1536.76 1258.1 1540 Q1255.46 1543.22 1255.46 1549.27 L1255.46 1568.04 L1249.57 1568.04 L1249.57 1532.4 L1255.46 1532.4 L1255.46 1537.93 Q1257.31 1534.69 1260.27 1533.13 Q1263.23 1531.54 1267.46 1531.54 Q1268.07 1531.54 1268.8 1531.63 Q1269.53 1531.7 1270.42 1531.85 L1270.45 1537.87 Z" fill="#000000" fill-rule="evenodd" fill-opacity="1" /><path clip-path="url(#clip400)" d="M1311.13 1536.5 Q1306.42 1536.5 1303.68 1540.19 Q1300.95 1543.85 1300.95 1550.25 Q1300.95 1556.65 1303.65 1560.34 Q1306.39 1564 1311.13 1564 Q1315.81 1564 1318.55 1560.31 Q1321.28 1556.62 1321.28 1550.25 Q1321.28 1543.92 1318.55 1540.23 Q1315.81 1536.5 1311.13 1536.5 M1311.13 1531.54 Q1318.77 1531.54 1323.13 1536.5 Q1327.49 1541.47 1327.49 1550.25 Q1327.49 1559 1323.13 1564 Q1318.77 1568.97 1311.13 1568.97 Q1303.46 1568.97 1299.1 1564 Q1294.77 1559 1294.77 1550.25 Q1294.77 1541.47 1299.1 1536.5 Q1303.46 1531.54 1311.13 1531.54 Z" fill="#000000" fill-rule="evenodd" fill-opacity="1" /><path clip-path="url(#clip400)" d="M1355.25 1518.52 L1355.25 1523.39 L1349.64 1523.39 Q1346.49 1523.39 1345.25 1524.66 Q1344.04 1525.93 1344.04 1529.24 L1344.04 1532.4 L1353.69 1532.4 L1353.69 1536.95 L1344.04 1536.95 L1344.04 1568.04 L1338.15 1568.04 L1338.15 1536.95 L1332.55 1536.95 L1332.55 1532.4 L1338.15 1532.4 L1338.15 1529.91 Q1338.15 1523.96 1340.92 1521.26 Q1343.69 1518.52 1349.71 1518.52 L1355.25 1518.52 Z" fill="#000000" fill-rule="evenodd" fill-opacity="1" /><path clip-path="url(#clip400)" d="M1404.33 1549.81 Q1404.33 1543.44 1401.68 1539.94 Q1399.07 1536.44 1394.33 1536.44 Q1389.62 1536.44 1386.98 1539.94 Q1384.37 1543.44 1384.37 1549.81 Q1384.37 1556.14 1386.98 1559.64 Q1389.62 1563.14 1394.33 1563.14 Q1399.07 1563.14 1401.68 1559.64 Q1404.33 1556.14 1404.33 1549.81 M1410.18 1563.62 Q1410.18 1572.72 1406.14 1577.15 Q1402.1 1581.6 1393.76 1581.6 Q1390.67 1581.6 1387.93 1581.13 Q1385.2 1580.68 1382.62 1579.72 L1382.62 1574.03 Q1385.2 1575.43 1387.71 1576.1 Q1390.22 1576.76 1392.83 1576.76 Q1398.6 1576.76 1401.46 1573.74 Q1404.33 1570.75 1404.33 1564.67 L1404.33 1561.77 Q1402.51 1564.92 1399.68 1566.48 Q1396.85 1568.04 1392.9 1568.04 Q1386.34 1568.04 1382.33 1563.05 Q1378.32 1558.05 1378.32 1549.81 Q1378.32 1541.53 1382.33 1536.53 Q1386.34 1531.54 1392.9 1531.54 Q1396.85 1531.54 1399.68 1533.1 Q1402.51 1534.66 1404.33 1537.81 L1404.33 1532.4 L1410.18 1532.4 L1410.18 1563.62 Z" fill="#000000" fill-rule="evenodd" fill-opacity="1" /><path clip-path="url(#clip400)" d="M1452.74 1548.76 L1452.74 1551.62 L1425.81 1551.62 Q1426.19 1557.67 1429.44 1560.85 Q1432.72 1564 1438.54 1564 Q1441.91 1564 1445.07 1563.17 Q1448.25 1562.35 1451.37 1560.69 L1451.37 1566.23 Q1448.22 1567.57 1444.91 1568.27 Q1441.6 1568.97 1438.19 1568.97 Q1429.66 1568.97 1424.66 1564 Q1419.7 1559.04 1419.7 1550.57 Q1419.7 1541.82 1424.41 1536.69 Q1429.15 1531.54 1437.17 1531.54 Q1444.37 1531.54 1448.53 1536.18 Q1452.74 1540.8 1452.74 1548.76 M1446.88 1547.04 Q1446.82 1542.23 1444.17 1539.37 Q1441.56 1536.5 1437.24 1536.5 Q1432.33 1536.5 1429.37 1539.27 Q1426.45 1542.04 1426 1547.07 L1446.88 1547.04 Z" fill="#000000" fill-rule="evenodd" fill-opacity="1" /><path clip-path="url(#clip400)" d="M1491.98 1546.53 L1491.98 1568.04 L1486.12 1568.04 L1486.12 1546.72 Q1486.12 1541.66 1484.15 1539.14 Q1482.18 1536.63 1478.23 1536.63 Q1473.49 1536.63 1470.75 1539.65 Q1468.01 1542.68 1468.01 1547.9 L1468.01 1568.04 L1462.13 1568.04 L1462.13 1532.4 L1468.01 1532.4 L1468.01 1537.93 Q1470.11 1534.72 1472.95 1533.13 Q1475.81 1531.54 1479.54 1531.54 Q1485.68 1531.54 1488.83 1535.36 Q1491.98 1539.14 1491.98 1546.53 Z" fill="#000000" fill-rule="evenodd" fill-opacity="1" /><path clip-path="url(#clip400)" d="M1534.15 1548.76 L1534.15 1551.62 L1507.23 1551.62 Q1507.61 1557.67 1510.86 1560.85 Q1514.13 1564 1519.96 1564 Q1523.33 1564 1526.48 1563.17 Q1529.67 1562.35 1532.78 1560.69 L1532.78 1566.23 Q1529.63 1567.57 1526.32 1568.27 Q1523.01 1568.97 1519.61 1568.97 Q1511.08 1568.97 1506.08 1564 Q1501.12 1559.04 1501.12 1550.57 Q1501.12 1541.82 1505.83 1536.69 Q1510.57 1531.54 1518.59 1531.54 Q1525.78 1531.54 1529.95 1536.18 Q1534.15 1540.8 1534.15 1548.76 M1528.3 1547.04 Q1528.23 1542.23 1525.59 1539.37 Q1522.98 1536.5 1518.65 1536.5 Q1513.75 1536.5 1510.79 1539.27 Q1507.86 1542.04 1507.42 1547.07 L1528.3 1547.04 Z" fill="#000000" fill-rule="evenodd" fill-opacity="1" /><path clip-path="url(#clip400)" d="M1566.49 1533.45 L1566.49 1538.98 Q1564.01 1537.71 1561.34 1537.07 Q1558.66 1536.44 1555.8 1536.44 Q1551.44 1536.44 1549.24 1537.77 Q1547.08 1539.11 1547.08 1541.79 Q1547.08 1543.82 1548.64 1545 Q1550.2 1546.15 1554.91 1547.2 L1556.91 1547.64 Q1563.15 1548.98 1565.76 1551.43 Q1568.4 1553.85 1568.4 1558.21 Q1568.4 1563.17 1564.45 1566.07 Q1560.54 1568.97 1553.66 1568.97 Q1550.8 1568.97 1547.68 1568.39 Q1544.59 1567.85 1541.16 1566.74 L1541.16 1560.69 Q1544.4 1562.38 1547.55 1563.24 Q1550.7 1564.07 1553.79 1564.07 Q1557.93 1564.07 1560.16 1562.66 Q1562.39 1561.23 1562.39 1558.65 Q1562.39 1556.27 1560.76 1554.99 Q1559.17 1553.72 1553.73 1552.54 L1551.69 1552.07 Q1546.25 1550.92 1543.83 1548.56 Q1541.41 1546.18 1541.41 1542.04 Q1541.41 1537.01 1544.98 1534.27 Q1548.54 1531.54 1555.1 1531.54 Q1558.34 1531.54 1561.21 1532.01 Q1564.07 1532.49 1566.49 1533.45 Z" fill="#000000" fill-rule="evenodd" fill-opacity="1" /><polyline clip-path="url(#clip400)" style="stroke:#000000; stroke-linecap:butt; stroke-linejoin:round; stroke-width:4; stroke-opacity:1; fill:none" points="
  230.644,1423.18 230.644,47.2441 
  "/>
<polyline clip-path="url(#clip400)" style="stroke:#000000; stroke-linecap:butt; stroke-linejoin:round; stroke-width:4; stroke-opacity:1; fill:none" points="
  230.644,1122.11 249.541,1122.11 
  "/>
<polyline clip-path="url(#clip400)" style="stroke:#000000; stroke-linecap:butt; stroke-linejoin:round; stroke-width:4; stroke-opacity:1; fill:none" points="
  230.644,814.52 249.541,814.52 
  "/>
<polyline clip-path="url(#clip400)" style="stroke:#000000; stroke-linecap:butt; stroke-linejoin:round; stroke-width:4; stroke-opacity:1; fill:none" points="
  230.644,506.931 249.541,506.931 
  "/>
<polyline clip-path="url(#clip400)" style="stroke:#000000; stroke-linecap:butt; stroke-linejoin:round; stroke-width:4; stroke-opacity:1; fill:none" points="
  230.644,199.343 249.541,199.343 
  "/>
<path clip-path="url(#clip400)" d="M122.954 1120.25 Q119.806 1120.25 117.954 1122.4 Q116.126 1124.55 116.126 1128.3 Q116.126 1132.03 117.954 1134.2 Q119.806 1136.36 122.954 1136.36 Q126.102 1136.36 127.931 1134.2 Q129.783 1132.03 129.783 1128.3 Q129.783 1124.55 127.931 1122.4 Q126.102 1120.25 122.954 1120.25 M132.237 1105.59 L132.237 1109.85 Q130.477 1109.02 128.672 1108.58 Q126.889 1108.14 125.13 1108.14 Q120.501 1108.14 118.047 1111.26 Q115.616 1114.39 115.269 1120.71 Q116.635 1118.69 118.695 1117.63 Q120.755 1116.54 123.232 1116.54 Q128.44 1116.54 131.45 1119.71 Q134.482 1122.86 134.482 1128.3 Q134.482 1133.62 131.334 1136.84 Q128.186 1140.06 122.954 1140.06 Q116.959 1140.06 113.788 1135.48 Q110.616 1130.87 110.616 1122.14 Q110.616 1113.95 114.505 1109.09 Q118.394 1104.2 124.945 1104.2 Q126.704 1104.2 128.487 1104.55 Q130.292 1104.9 132.237 1105.59 Z" fill="#000000" fill-rule="evenodd" fill-opacity="1" /><path clip-path="url(#clip400)" d="M152.537 1107.91 Q148.926 1107.91 147.098 1111.47 Q145.292 1115.01 145.292 1122.14 Q145.292 1129.25 147.098 1132.81 Q148.926 1136.36 152.537 1136.36 Q156.172 1136.36 157.977 1132.81 Q159.806 1129.25 159.806 1122.14 Q159.806 1115.01 157.977 1111.47 Q156.172 1107.91 152.537 1107.91 M152.537 1104.2 Q158.348 1104.2 161.403 1108.81 Q164.482 1113.39 164.482 1122.14 Q164.482 1130.87 161.403 1135.48 Q158.348 1140.06 152.537 1140.06 Q146.727 1140.06 143.649 1135.48 Q140.593 1130.87 140.593 1122.14 Q140.593 1113.39 143.649 1108.81 Q146.727 1104.2 152.537 1104.2 Z" fill="#000000" fill-rule="evenodd" fill-opacity="1" /><path clip-path="url(#clip400)" d="M182.699 1107.91 Q179.088 1107.91 177.259 1111.47 Q175.454 1115.01 175.454 1122.14 Q175.454 1129.25 177.259 1132.81 Q179.088 1136.36 182.699 1136.36 Q186.334 1136.36 188.139 1132.81 Q189.968 1129.25 189.968 1122.14 Q189.968 1115.01 188.139 1111.47 Q186.334 1107.91 182.699 1107.91 M182.699 1104.2 Q188.509 1104.2 191.565 1108.81 Q194.644 1113.39 194.644 1122.14 Q194.644 1130.87 191.565 1135.48 Q188.509 1140.06 182.699 1140.06 Q176.889 1140.06 173.81 1135.48 Q170.755 1130.87 170.755 1122.14 Q170.755 1113.39 173.81 1108.81 Q176.889 1104.2 182.699 1104.2 Z" fill="#000000" fill-rule="evenodd" fill-opacity="1" /><path clip-path="url(#clip400)" d="M111.195 797.24 L133.417 797.24 L133.417 799.231 L120.871 831.8 L115.987 831.8 L127.792 801.175 L111.195 801.175 L111.195 797.24 Z" fill="#000000" fill-rule="evenodd" fill-opacity="1" /><path clip-path="url(#clip400)" d="M152.537 800.319 Q148.926 800.319 147.098 803.883 Q145.292 807.425 145.292 814.555 Q145.292 821.661 147.098 825.226 Q148.926 828.768 152.537 828.768 Q156.172 828.768 157.977 825.226 Q159.806 821.661 159.806 814.555 Q159.806 807.425 157.977 803.883 Q156.172 800.319 152.537 800.319 M152.537 796.615 Q158.348 796.615 161.403 801.221 Q164.482 805.805 164.482 814.555 Q164.482 823.282 161.403 827.888 Q158.348 832.471 152.537 832.471 Q146.727 832.471 143.649 827.888 Q140.593 823.282 140.593 814.555 Q140.593 805.805 143.649 801.221 Q146.727 796.615 152.537 796.615 Z" fill="#000000" fill-rule="evenodd" fill-opacity="1" /><path clip-path="url(#clip400)" d="M182.699 800.319 Q179.088 800.319 177.259 803.883 Q175.454 807.425 175.454 814.555 Q175.454 821.661 177.259 825.226 Q179.088 828.768 182.699 828.768 Q186.334 828.768 188.139 825.226 Q189.968 821.661 189.968 814.555 Q189.968 807.425 188.139 803.883 Q186.334 800.319 182.699 800.319 M182.699 796.615 Q188.509 796.615 191.565 801.221 Q194.644 805.805 194.644 814.555 Q194.644 823.282 191.565 827.888 Q188.509 832.471 182.699 832.471 Q176.889 832.471 173.81 827.888 Q170.755 823.282 170.755 814.555 Q170.755 805.805 173.81 801.221 Q176.889 796.615 182.699 796.615 Z" fill="#000000" fill-rule="evenodd" fill-opacity="1" /><path clip-path="url(#clip400)" d="M122.376 507.8 Q119.042 507.8 117.121 509.582 Q115.223 511.364 115.223 514.489 Q115.223 517.614 117.121 519.397 Q119.042 521.179 122.376 521.179 Q125.709 521.179 127.63 519.397 Q129.551 517.591 129.551 514.489 Q129.551 511.364 127.63 509.582 Q125.732 507.8 122.376 507.8 M117.7 505.809 Q114.69 505.068 113.001 503.008 Q111.334 500.948 111.334 497.985 Q111.334 493.841 114.274 491.434 Q117.237 489.026 122.376 489.026 Q127.538 489.026 130.477 491.434 Q133.417 493.841 133.417 497.985 Q133.417 500.948 131.727 503.008 Q130.061 505.068 127.075 505.809 Q130.454 506.596 132.329 508.887 Q134.227 511.179 134.227 514.489 Q134.227 519.512 131.149 522.198 Q128.093 524.883 122.376 524.883 Q116.658 524.883 113.579 522.198 Q110.524 519.512 110.524 514.489 Q110.524 511.179 112.422 508.887 Q114.32 506.596 117.7 505.809 M115.987 498.425 Q115.987 501.11 117.653 502.614 Q119.343 504.119 122.376 504.119 Q125.385 504.119 127.075 502.614 Q128.788 501.11 128.788 498.425 Q128.788 495.739 127.075 494.235 Q125.385 492.73 122.376 492.73 Q119.343 492.73 117.653 494.235 Q115.987 495.739 115.987 498.425 Z" fill="#000000" fill-rule="evenodd" fill-opacity="1" /><path clip-path="url(#clip400)" d="M152.537 492.73 Q148.926 492.73 147.098 496.295 Q145.292 499.837 145.292 506.966 Q145.292 514.073 147.098 517.637 Q148.926 521.179 152.537 521.179 Q156.172 521.179 157.977 517.637 Q159.806 514.073 159.806 506.966 Q159.806 499.837 157.977 496.295 Q156.172 492.73 152.537 492.73 M152.537 489.026 Q158.348 489.026 161.403 493.633 Q164.482 498.216 164.482 506.966 Q164.482 515.693 161.403 520.299 Q158.348 524.883 152.537 524.883 Q146.727 524.883 143.649 520.299 Q140.593 515.693 140.593 506.966 Q140.593 498.216 143.649 493.633 Q146.727 489.026 152.537 489.026 Z" fill="#000000" fill-rule="evenodd" fill-opacity="1" /><path clip-path="url(#clip400)" d="M182.699 492.73 Q179.088 492.73 177.259 496.295 Q175.454 499.837 175.454 506.966 Q175.454 514.073 177.259 517.637 Q179.088 521.179 182.699 521.179 Q186.334 521.179 188.139 517.637 Q189.968 514.073 189.968 506.966 Q189.968 499.837 188.139 496.295 Q186.334 492.73 182.699 492.73 M182.699 489.026 Q188.509 489.026 191.565 493.633 Q194.644 498.216 194.644 506.966 Q194.644 515.693 191.565 520.299 Q188.509 524.883 182.699 524.883 Q176.889 524.883 173.81 520.299 Q170.755 515.693 170.755 506.966 Q170.755 498.216 173.81 493.633 Q176.889 489.026 182.699 489.026 Z" fill="#000000" fill-rule="evenodd" fill-opacity="1" /><path clip-path="url(#clip400)" d="M112.514 215.905 L112.514 211.646 Q114.274 212.479 116.079 212.919 Q117.885 213.359 119.621 213.359 Q124.25 213.359 126.681 210.257 Q129.135 207.132 129.482 200.79 Q128.139 202.78 126.079 203.845 Q124.019 204.91 121.519 204.91 Q116.334 204.91 113.301 201.785 Q110.292 198.637 110.292 193.197 Q110.292 187.873 113.44 184.656 Q116.589 181.438 121.82 181.438 Q127.815 181.438 130.963 186.044 Q134.135 190.628 134.135 199.378 Q134.135 207.549 130.246 212.433 Q126.38 217.294 119.829 217.294 Q118.07 217.294 116.264 216.947 Q114.459 216.6 112.514 215.905 M121.82 201.253 Q124.968 201.253 126.797 199.1 Q128.649 196.947 128.649 193.197 Q128.649 189.47 126.797 187.318 Q124.968 185.142 121.82 185.142 Q118.672 185.142 116.82 187.318 Q114.991 189.47 114.991 193.197 Q114.991 196.947 116.82 199.1 Q118.672 201.253 121.82 201.253 Z" fill="#000000" fill-rule="evenodd" fill-opacity="1" /><path clip-path="url(#clip400)" d="M152.537 185.142 Q148.926 185.142 147.098 188.706 Q145.292 192.248 145.292 199.378 Q145.292 206.484 147.098 210.049 Q148.926 213.591 152.537 213.591 Q156.172 213.591 157.977 210.049 Q159.806 206.484 159.806 199.378 Q159.806 192.248 157.977 188.706 Q156.172 185.142 152.537 185.142 M152.537 181.438 Q158.348 181.438 161.403 186.044 Q164.482 190.628 164.482 199.378 Q164.482 208.104 161.403 212.711 Q158.348 217.294 152.537 217.294 Q146.727 217.294 143.649 212.711 Q140.593 208.104 140.593 199.378 Q140.593 190.628 143.649 186.044 Q146.727 181.438 152.537 181.438 Z" fill="#000000" fill-rule="evenodd" fill-opacity="1" /><path clip-path="url(#clip400)" d="M182.699 185.142 Q179.088 185.142 177.259 188.706 Q175.454 192.248 175.454 199.378 Q175.454 206.484 177.259 210.049 Q179.088 213.591 182.699 213.591 Q186.334 213.591 188.139 210.049 Q189.968 206.484 189.968 199.378 Q189.968 192.248 188.139 188.706 Q186.334 185.142 182.699 185.142 M182.699 181.438 Q188.509 181.438 191.565 186.044 Q194.644 190.628 194.644 199.378 Q194.644 208.104 191.565 212.711 Q188.509 217.294 182.699 217.294 Q176.889 217.294 173.81 212.711 Q170.755 208.104 170.755 199.378 Q170.755 190.628 173.81 186.044 Q176.889 181.438 182.699 181.438 Z" fill="#000000" fill-rule="evenodd" fill-opacity="1" /><path clip-path="url(#clip400)" d="M79.6659 762.12 Q80.2134 762.12 80.5999 762.506 Q80.9863 762.893 80.9863 763.44 Q80.9863 764.374 80.1168 764.696 L48.4584 776.966 Q48.3296 777.031 48.0075 777.031 Q47.6855 777.031 47.5566 776.966 L15.8983 764.696 Q15.0287 764.374 15.0287 763.44 Q15.0287 762.893 15.4152 762.506 Q15.8017 762.12 16.3492 762.12 Q16.6712 762.12 16.8 762.184 L48.0075 774.326 L79.215 762.184 Q79.3438 762.12 79.6659 762.12 Z" fill="#000000" fill-rule="evenodd" fill-opacity="1" /><path clip-path="url(#clip400)" d="M45.8819 717.179 Q50.584 717.179 55.125 719.563 Q59.666 721.914 62.468 725.617 Q65.2377 729.321 65.2377 733.089 Q65.2377 735.344 64.0138 736.857 Q62.7578 738.339 60.9865 739.144 Q63.1765 739.756 68.426 741.076 Q73.6756 742.397 74.1909 742.397 Q74.4807 742.397 74.6096 742.332 Q74.7384 742.268 74.8994 741.978 Q75.0927 741.688 75.1571 740.98 Q75.2537 740.271 75.2537 739.079 Q75.2537 738.467 75.2537 738.242 Q75.2859 737.984 75.4469 737.759 Q75.608 737.501 75.9622 737.501 Q77.2827 737.501 77.2827 738.693 Q77.2827 739.756 77.186 741.946 Q77.0894 744.136 77.0894 745.231 Q77.0894 746.165 77.186 748.033 Q77.2827 749.901 77.2827 750.77 Q77.2827 751.64 76.5097 751.64 Q76.0588 751.64 75.769 751.511 Q75.5113 751.414 75.3825 751.157 Q75.2859 750.899 75.2537 750.674 Q75.2537 750.48 75.2537 750.094 Q75.2537 748.612 74.996 747.968 Q74.7706 747.324 74.2875 747.099 Q73.8366 746.841 72.5484 746.551 L43.1766 739.144 Q41.2121 738.693 39.8272 738.693 Q38.0881 738.693 37.444 739.24 Q36.7999 739.788 36.7999 740.754 Q36.7999 742.429 38.7967 743.524 Q40.7934 744.619 44.6581 745.553 Q45.7209 745.843 45.9464 746.036 Q46.1718 746.197 46.1718 746.68 Q46.1396 747.485 45.4955 747.485 Q45.3344 747.485 44.3039 747.227 Q43.2411 746.97 41.6952 746.487 Q40.1171 745.971 39.1187 745.424 Q38.4424 745.102 37.9915 744.812 Q37.5406 744.522 36.8321 743.942 Q36.1236 743.331 35.7371 742.461 Q35.3506 741.591 35.3506 740.529 Q35.3506 738.467 36.5744 736.761 Q37.7983 735.054 40.2781 734.603 Q38.1203 732.767 36.7355 730.513 Q35.3506 728.258 35.3506 725.972 Q35.3506 722.171 38.3136 719.691 Q41.2443 717.179 45.8819 717.179 M42.9834 721.946 Q40.0527 721.946 38.4424 723.073 Q36.7999 724.168 36.7999 726.165 Q36.7999 728.645 39.3119 731.511 Q41.6952 734.345 43.9174 734.925 L56.8319 738.178 L57.8947 738.371 Q58.088 738.371 58.6677 738.274 Q59.2152 738.145 60.1169 737.791 Q61.0187 737.405 61.8238 736.889 Q62.5968 736.342 63.1765 735.376 Q63.7562 734.377 63.7562 733.154 Q63.7562 731.189 62.0171 729.063 Q60.278 726.906 56.993 725.295 Q54.8674 724.297 50.2941 723.138 Q45.6887 721.946 42.9834 721.946 Z" fill="#000000" fill-rule="evenodd" fill-opacity="1" /><path clip-path="url(#clip400)" d="M47.5566 703.97 Q47.6855 703.905 48.0075 703.905 Q48.3296 703.905 48.4584 703.97 L80.1168 716.24 Q80.9863 716.562 80.9863 717.464 Q80.9863 718.011 80.5999 718.398 Q80.2134 718.784 79.6659 718.784 Q79.3438 718.784 79.215 718.72 L48.0075 706.61 L16.8 718.72 Q16.6712 718.784 16.3492 718.784 Q15.8017 718.784 15.4152 718.398 Q15.0287 718.011 15.0287 717.464 Q15.0287 716.562 15.8983 716.24 L47.5566 703.97 Z" fill="#000000" fill-rule="evenodd" fill-opacity="1" /><circle clip-path="url(#clip402)" cx="290.703" cy="1384.24" r="21" fill="#ff00ff" fill-rule="evenodd" fill-opacity="1" stroke="none"/>
<circle clip-path="url(#clip402)" cx="624.369" cy="257.048" r="21" fill="#ff00ff" fill-rule="evenodd" fill-opacity="1" stroke="none"/>
<circle clip-path="url(#clip402)" cx="958.034" cy="160.433" r="21" fill="#ff00ff" fill-rule="evenodd" fill-opacity="1" stroke="none"/>
<circle clip-path="url(#clip402)" cx="1291.7" cy="124.41" r="21" fill="#ff00ff" fill-rule="evenodd" fill-opacity="1" stroke="none"/>
<circle clip-path="url(#clip402)" cx="1625.37" cy="105.586" r="21" fill="#ff00ff" fill-rule="evenodd" fill-opacity="1" stroke="none"/>
<circle clip-path="url(#clip402)" cx="1959.03" cy="94.0165" r="21" fill="#ff00ff" fill-rule="evenodd" fill-opacity="1" stroke="none"/>
<circle clip-path="url(#clip402)" cx="2292.7" cy="86.1857" r="21" fill="#ff00ff" fill-rule="evenodd" fill-opacity="1" stroke="none"/>
</svg>
