<?xml version="1.0" encoding="utf-8"?>
<svg xmlns="http://www.w3.org/2000/svg" xmlns:xlink="http://www.w3.org/1999/xlink" width="600" height="400" viewBox="0 0 2400 1600">
<defs>
  <clipPath id="clip840">
    <rect x="0" y="0" width="2400" height="1600"/>
  </clipPath>
</defs>
<path clip-path="url(#clip840)" d="
M0 1600 L2400 1600 L2400 0 L0 0  Z
  " fill="#ffffff" fill-rule="evenodd" fill-opacity="1"/>
<defs>
  <clipPath id="clip841">
    <rect x="480" y="0" width="1681" height="1600"/>
  </clipPath>
</defs>
<defs>
  <clipPath id="clip842">
    <rect x="245" y="47" width="2108" height="1377"/>
  </clipPath>
</defs>
<path clip-path="url(#clip840)" d="
M245.291 1423.18 L2352.76 1423.18 L2352.76 47.2441 L245.291 47.2441  Z
  " fill="#ffffff" fill-rule="evenodd" fill-opacity="1"/>
<polyline clip-path="url(#clip840)" style="stroke:#000000; stroke-linecap:butt; stroke-linejoin:round; stroke-width:4; stroke-opacity:1; fill:none" points="
  245.291,1423.18 2352.76,1423.18 
  "/>
<polyline clip-path="url(#clip840)" style="stroke:#000000; stroke-linecap:butt; stroke-linejoin:round; stroke-width:4; stroke-opacity:1; fill:none" points="
  255.232,1423.18 255.232,1404.28 
  "/>
<polyline clip-path="url(#clip840)" style="stroke:#000000; stroke-linecap:butt; stroke-linejoin:round; stroke-width:4; stroke-opacity:1; fill:none" points="
  752.276,1423.18 752.276,1404.28 
  "/>
<polyline clip-path="url(#clip840)" style="stroke:#000000; stroke-linecap:butt; stroke-linejoin:round; stroke-width:4; stroke-opacity:1; fill:none" points="
  1249.32,1423.18 1249.32,1404.28 
  "/>
<polyline clip-path="url(#clip840)" style="stroke:#000000; stroke-linecap:butt; stroke-linejoin:round; stroke-width:4; stroke-opacity:1; fill:none" points="
  1746.36,1423.18 1746.36,1404.28 
  "/>
<polyline clip-path="url(#clip840)" style="stroke:#000000; stroke-linecap:butt; stroke-linejoin:round; stroke-width:4; stroke-opacity:1; fill:none" points="
  2243.41,1423.18 2243.41,1404.28 
  "/>
<path clip-path="url(#clip840)" d="M255.232 1452.37 Q251.621 1452.37 249.792 1455.94 Q247.987 1459.48 247.987 1466.61 Q247.987 1473.71 249.792 1477.28 Q251.621 1480.82 255.232 1480.82 Q258.866 1480.82 260.672 1477.28 Q262.5 1473.71 262.5 1466.61 Q262.5 1459.48 260.672 1455.94 Q258.866 1452.37 255.232 1452.37 M255.232 1448.67 Q261.042 1448.67 264.098 1453.27 Q267.176 1457.86 267.176 1466.61 Q267.176 1475.33 264.098 1479.94 Q261.042 1484.52 255.232 1484.52 Q249.422 1484.52 246.343 1479.94 Q243.288 1475.33 243.288 1466.61 Q243.288 1457.86 246.343 1453.27 Q249.422 1448.67 255.232 1448.67 Z" fill="#000000" fill-rule="evenodd" fill-opacity="1" /><path clip-path="url(#clip840)" d="M726.963 1479.92 L734.602 1479.92 L734.602 1453.55 L726.292 1455.22 L726.292 1450.96 L734.556 1449.29 L739.232 1449.29 L739.232 1479.92 L746.87 1479.92 L746.87 1483.85 L726.963 1483.85 L726.963 1479.92 Z" fill="#000000" fill-rule="evenodd" fill-opacity="1" /><path clip-path="url(#clip840)" d="M766.315 1452.37 Q762.704 1452.37 760.875 1455.94 Q759.069 1459.48 759.069 1466.61 Q759.069 1473.71 760.875 1477.28 Q762.704 1480.82 766.315 1480.82 Q769.949 1480.82 771.755 1477.28 Q773.583 1473.71 773.583 1466.61 Q773.583 1459.48 771.755 1455.94 Q769.949 1452.37 766.315 1452.37 M766.315 1448.67 Q772.125 1448.67 775.18 1453.27 Q778.259 1457.86 778.259 1466.61 Q778.259 1475.33 775.18 1479.94 Q772.125 1484.52 766.315 1484.52 Q760.505 1484.52 757.426 1479.94 Q754.37 1475.33 754.37 1466.61 Q754.37 1457.86 757.426 1453.27 Q760.505 1448.67 766.315 1448.67 Z" fill="#000000" fill-rule="evenodd" fill-opacity="1" /><path clip-path="url(#clip840)" d="M1228.09 1479.92 L1244.41 1479.92 L1244.41 1483.85 L1222.47 1483.85 L1222.47 1479.92 Q1225.13 1477.16 1229.71 1472.53 Q1234.32 1467.88 1235.5 1466.54 Q1237.75 1464.01 1238.62 1462.28 Q1239.53 1460.52 1239.53 1458.83 Q1239.53 1456.07 1237.58 1454.34 Q1235.66 1452.6 1232.56 1452.6 Q1230.36 1452.6 1227.91 1453.37 Q1225.48 1454.13 1222.7 1455.68 L1222.7 1450.96 Q1225.52 1449.82 1227.98 1449.25 Q1230.43 1448.67 1232.47 1448.67 Q1237.84 1448.67 1241.03 1451.35 Q1244.23 1454.04 1244.23 1458.53 Q1244.23 1460.66 1243.42 1462.58 Q1242.63 1464.48 1240.52 1467.07 Q1239.94 1467.74 1236.84 1470.96 Q1233.74 1474.15 1228.09 1479.92 Z" fill="#000000" fill-rule="evenodd" fill-opacity="1" /><path clip-path="url(#clip840)" d="M1264.23 1452.37 Q1260.62 1452.37 1258.79 1455.94 Q1256.98 1459.48 1256.98 1466.61 Q1256.98 1473.71 1258.79 1477.28 Q1260.62 1480.82 1264.23 1480.82 Q1267.86 1480.82 1269.67 1477.28 Q1271.49 1473.71 1271.49 1466.61 Q1271.49 1459.48 1269.67 1455.94 Q1267.86 1452.37 1264.23 1452.37 M1264.23 1448.67 Q1270.04 1448.67 1273.09 1453.27 Q1276.17 1457.86 1276.17 1466.61 Q1276.17 1475.33 1273.09 1479.94 Q1270.04 1484.52 1264.23 1484.52 Q1258.42 1484.52 1255.34 1479.94 Q1252.28 1475.33 1252.28 1466.61 Q1252.28 1457.86 1255.34 1453.27 Q1258.42 1448.67 1264.23 1448.67 Z" fill="#000000" fill-rule="evenodd" fill-opacity="1" /><path clip-path="url(#clip840)" d="M1735.21 1465.22 Q1738.56 1465.94 1740.44 1468.2 Q1742.33 1470.47 1742.33 1473.81 Q1742.33 1478.92 1738.82 1481.72 Q1735.3 1484.52 1728.82 1484.52 Q1726.64 1484.52 1724.33 1484.08 Q1722.03 1483.67 1719.58 1482.81 L1719.58 1478.3 Q1721.52 1479.43 1723.84 1480.01 Q1726.15 1480.59 1728.68 1480.59 Q1733.08 1480.59 1735.37 1478.85 Q1737.68 1477.12 1737.68 1473.81 Q1737.68 1470.75 1735.53 1469.04 Q1733.4 1467.3 1729.58 1467.3 L1725.55 1467.3 L1725.55 1463.46 L1729.77 1463.46 Q1733.21 1463.46 1735.04 1462.09 Q1736.87 1460.7 1736.87 1458.11 Q1736.87 1455.45 1734.97 1454.04 Q1733.1 1452.6 1729.58 1452.6 Q1727.66 1452.6 1725.46 1453.02 Q1723.26 1453.44 1720.62 1454.31 L1720.62 1450.15 Q1723.28 1449.41 1725.6 1449.04 Q1727.94 1448.67 1730 1448.67 Q1735.32 1448.67 1738.42 1451.1 Q1741.52 1453.5 1741.52 1457.63 Q1741.52 1460.5 1739.88 1462.49 Q1738.24 1464.45 1735.21 1465.22 Z" fill="#000000" fill-rule="evenodd" fill-opacity="1" /><path clip-path="url(#clip840)" d="M1761.2 1452.37 Q1757.59 1452.37 1755.76 1455.94 Q1753.96 1459.48 1753.96 1466.61 Q1753.96 1473.71 1755.76 1477.28 Q1757.59 1480.82 1761.2 1480.82 Q1764.83 1480.82 1766.64 1477.28 Q1768.47 1473.71 1768.47 1466.61 Q1768.47 1459.48 1766.64 1455.94 Q1764.83 1452.37 1761.2 1452.37 M1761.2 1448.67 Q1767.01 1448.67 1770.07 1453.27 Q1773.14 1457.86 1773.14 1466.61 Q1773.14 1475.33 1770.07 1479.94 Q1767.01 1484.52 1761.2 1484.52 Q1755.39 1484.52 1752.31 1479.94 Q1749.26 1475.33 1749.26 1466.61 Q1749.26 1457.86 1752.31 1453.27 Q1755.39 1448.67 1761.2 1448.67 Z" fill="#000000" fill-rule="evenodd" fill-opacity="1" /><path clip-path="url(#clip840)" d="M2231.58 1453.37 L2219.77 1471.81 L2231.58 1471.81 L2231.58 1453.37 M2230.35 1449.29 L2236.23 1449.29 L2236.23 1471.81 L2241.16 1471.81 L2241.16 1475.7 L2236.23 1475.7 L2236.23 1483.85 L2231.58 1483.85 L2231.58 1475.7 L2215.98 1475.7 L2215.98 1471.19 L2230.35 1449.29 Z" fill="#000000" fill-rule="evenodd" fill-opacity="1" /><path clip-path="url(#clip840)" d="M2258.89 1452.37 Q2255.28 1452.37 2253.45 1455.94 Q2251.65 1459.48 2251.65 1466.61 Q2251.65 1473.71 2253.45 1477.28 Q2255.28 1480.82 2258.89 1480.82 Q2262.53 1480.82 2264.33 1477.28 Q2266.16 1473.71 2266.16 1466.61 Q2266.16 1459.48 2264.33 1455.94 Q2262.53 1452.37 2258.89 1452.37 M2258.89 1448.67 Q2264.7 1448.67 2267.76 1453.27 Q2270.84 1457.86 2270.84 1466.61 Q2270.84 1475.33 2267.76 1479.94 Q2264.7 1484.52 2258.89 1484.52 Q2253.08 1484.52 2250 1479.94 Q2246.95 1475.33 2246.95 1466.61 Q2246.95 1457.86 2250 1453.27 Q2253.08 1448.67 2258.89 1448.67 Z" fill="#000000" fill-rule="evenodd" fill-opacity="1" /><path clip-path="url(#clip840)" d="M1022.32 1520.52 L1030.98 1520.52 L1052.05 1560.28 L1052.05 1520.52 L1058.29 1520.52 L1058.29 1568.04 L1049.63 1568.04 L1028.56 1528.29 L1028.56 1568.04 L1022.32 1568.04 L1022.32 1520.52 Z" fill="#000000" fill-rule="evenodd" fill-opacity="1" /><path clip-path="url(#clip840)" d="M1070.22 1553.98 L1070.22 1532.4 L1076.08 1532.4 L1076.08 1553.75 Q1076.08 1558.81 1078.05 1561.36 Q1080.03 1563.87 1083.97 1563.87 Q1088.72 1563.87 1091.45 1560.85 Q1094.22 1557.83 1094.22 1552.61 L1094.22 1532.4 L1100.08 1532.4 L1100.08 1568.04 L1094.22 1568.04 L1094.22 1562.57 Q1092.09 1565.82 1089.26 1567.41 Q1086.46 1568.97 1082.73 1568.97 Q1076.59 1568.97 1073.41 1565.15 Q1070.22 1561.33 1070.22 1553.98 M1084.96 1531.54 L1084.96 1531.54 Z" fill="#000000" fill-rule="evenodd" fill-opacity="1" /><path clip-path="url(#clip840)" d="M1139.9 1539.24 Q1142.09 1535.29 1145.15 1533.41 Q1148.2 1531.54 1152.34 1531.54 Q1157.91 1531.54 1160.94 1535.45 Q1163.96 1539.33 1163.96 1546.53 L1163.96 1568.04 L1158.07 1568.04 L1158.07 1546.72 Q1158.07 1541.59 1156.26 1539.11 Q1154.44 1536.63 1150.72 1536.63 Q1146.17 1536.63 1143.53 1539.65 Q1140.88 1542.68 1140.88 1547.9 L1140.88 1568.04 L1135 1568.04 L1135 1546.72 Q1135 1541.56 1133.18 1539.11 Q1131.37 1536.63 1127.58 1536.63 Q1123.09 1536.63 1120.45 1539.68 Q1117.81 1542.71 1117.81 1547.9 L1117.81 1568.04 L1111.92 1568.04 L1111.92 1532.4 L1117.81 1532.4 L1117.81 1537.93 Q1119.81 1534.66 1122.61 1533.1 Q1125.41 1531.54 1129.27 1531.54 Q1133.15 1531.54 1135.85 1533.51 Q1138.59 1535.48 1139.9 1539.24 Z" fill="#000000" fill-rule="evenodd" fill-opacity="1" /><path clip-path="url(#clip840)" d="M1201.23 1550.25 Q1201.23 1543.79 1198.56 1540.13 Q1195.91 1536.44 1191.27 1536.44 Q1186.62 1536.44 1183.95 1540.13 Q1181.31 1543.79 1181.31 1550.25 Q1181.31 1556.71 1183.95 1560.4 Q1186.62 1564.07 1191.27 1564.07 Q1195.91 1564.07 1198.56 1560.4 Q1201.23 1556.71 1201.23 1550.25 M1181.31 1537.81 Q1183.15 1534.62 1185.95 1533.1 Q1188.79 1531.54 1192.7 1531.54 Q1199.19 1531.54 1203.24 1536.69 Q1207.31 1541.85 1207.31 1550.25 Q1207.31 1558.65 1203.24 1563.81 Q1199.19 1568.97 1192.7 1568.97 Q1188.79 1568.97 1185.95 1567.44 Q1183.15 1565.88 1181.31 1562.7 L1181.31 1568.04 L1175.42 1568.04 L1175.42 1518.52 L1181.31 1518.52 L1181.31 1537.81 Z" fill="#000000" fill-rule="evenodd" fill-opacity="1" /><path clip-path="url(#clip840)" d="M1247.51 1548.76 L1247.51 1551.62 L1220.58 1551.62 Q1220.96 1557.67 1224.21 1560.85 Q1227.49 1564 1233.31 1564 Q1236.69 1564 1239.84 1563.17 Q1243.02 1562.35 1246.14 1560.69 L1246.14 1566.23 Q1242.99 1567.57 1239.68 1568.27 Q1236.37 1568.97 1232.96 1568.97 Q1224.43 1568.97 1219.44 1564 Q1214.47 1559.04 1214.47 1550.57 Q1214.47 1541.82 1219.18 1536.69 Q1223.92 1531.54 1231.94 1531.54 Q1239.14 1531.54 1243.31 1536.18 Q1247.51 1540.8 1247.51 1548.76 M1241.65 1547.04 Q1241.59 1542.23 1238.95 1539.37 Q1236.34 1536.5 1232.01 1536.5 Q1227.11 1536.5 1224.15 1539.27 Q1221.22 1542.04 1220.77 1547.07 L1241.65 1547.04 Z" fill="#000000" fill-rule="evenodd" fill-opacity="1" /><path clip-path="url(#clip840)" d="M1277.78 1537.87 Q1276.79 1537.3 1275.61 1537.04 Q1274.47 1536.76 1273.07 1536.76 Q1268.1 1536.76 1265.43 1540 Q1262.79 1543.22 1262.79 1549.27 L1262.79 1568.04 L1256.9 1568.04 L1256.9 1532.4 L1262.79 1532.4 L1262.79 1537.93 Q1264.63 1534.69 1267.59 1533.13 Q1270.55 1531.54 1274.79 1531.54 Q1275.39 1531.54 1276.12 1531.63 Q1276.85 1531.7 1277.75 1531.85 L1277.78 1537.87 Z" fill="#000000" fill-rule="evenodd" fill-opacity="1" /><path clip-path="url(#clip840)" d="M1318.45 1536.5 Q1313.74 1536.5 1311.01 1540.19 Q1308.27 1543.85 1308.27 1550.25 Q1308.27 1556.65 1310.98 1560.34 Q1313.71 1564 1318.45 1564 Q1323.13 1564 1325.87 1560.31 Q1328.61 1556.62 1328.61 1550.25 Q1328.61 1543.92 1325.87 1540.23 Q1323.13 1536.5 1318.45 1536.5 M1318.45 1531.54 Q1326.09 1531.54 1330.45 1536.5 Q1334.81 1541.47 1334.81 1550.25 Q1334.81 1559 1330.45 1564 Q1326.09 1568.97 1318.45 1568.97 Q1310.78 1568.97 1306.42 1564 Q1302.09 1559 1302.09 1550.25 Q1302.09 1541.47 1306.42 1536.5 Q1310.78 1531.54 1318.45 1531.54 Z" fill="#000000" fill-rule="evenodd" fill-opacity="1" /><path clip-path="url(#clip840)" d="M1362.57 1518.52 L1362.57 1523.39 L1356.97 1523.39 Q1353.82 1523.39 1352.57 1524.66 Q1351.37 1525.93 1351.37 1529.24 L1351.37 1532.4 L1361.01 1532.4 L1361.01 1536.95 L1351.37 1536.95 L1351.37 1568.04 L1345.48 1568.04 L1345.48 1536.95 L1339.88 1536.95 L1339.88 1532.4 L1345.48 1532.4 L1345.48 1529.91 Q1345.48 1523.96 1348.25 1521.26 Q1351.02 1518.52 1357.03 1518.52 L1362.57 1518.52 Z" fill="#000000" fill-rule="evenodd" fill-opacity="1" /><path clip-path="url(#clip840)" d="M1411.65 1549.81 Q1411.65 1543.44 1409.01 1539.94 Q1406.4 1536.44 1401.65 1536.44 Q1396.94 1536.44 1394.3 1539.94 Q1391.69 1543.44 1391.69 1549.81 Q1391.69 1556.14 1394.3 1559.64 Q1396.94 1563.14 1401.65 1563.14 Q1406.4 1563.14 1409.01 1559.64 Q1411.65 1556.14 1411.65 1549.81 M1417.51 1563.62 Q1417.51 1572.72 1413.46 1577.15 Q1409.42 1581.6 1401.08 1581.6 Q1397.99 1581.6 1395.26 1581.13 Q1392.52 1580.68 1389.94 1579.72 L1389.94 1574.03 Q1392.52 1575.43 1395.03 1576.1 Q1397.55 1576.76 1400.16 1576.76 Q1405.92 1576.76 1408.78 1573.74 Q1411.65 1570.75 1411.65 1564.67 L1411.65 1561.77 Q1409.83 1564.92 1407 1566.48 Q1404.17 1568.04 1400.22 1568.04 Q1393.67 1568.04 1389.66 1563.05 Q1385.64 1558.05 1385.64 1549.81 Q1385.64 1541.53 1389.66 1536.53 Q1393.67 1531.54 1400.22 1531.54 Q1404.17 1531.54 1407 1533.1 Q1409.83 1534.66 1411.65 1537.81 L1411.65 1532.4 L1417.51 1532.4 L1417.51 1563.62 Z" fill="#000000" fill-rule="evenodd" fill-opacity="1" /><path clip-path="url(#clip840)" d="M1460.06 1548.76 L1460.06 1551.62 L1433.13 1551.62 Q1433.51 1557.67 1436.76 1560.85 Q1440.04 1564 1445.86 1564 Q1449.24 1564 1452.39 1563.17 Q1455.57 1562.35 1458.69 1560.69 L1458.69 1566.23 Q1455.54 1567.57 1452.23 1568.27 Q1448.92 1568.97 1445.51 1568.97 Q1436.98 1568.97 1431.99 1564 Q1427.02 1559.04 1427.02 1550.57 Q1427.02 1541.82 1431.73 1536.69 Q1436.48 1531.54 1444.5 1531.54 Q1451.69 1531.54 1455.86 1536.18 Q1460.06 1540.8 1460.06 1548.76 M1454.2 1547.04 Q1454.14 1542.23 1451.5 1539.37 Q1448.89 1536.5 1444.56 1536.5 Q1439.66 1536.5 1436.7 1539.27 Q1433.77 1542.04 1433.32 1547.07 L1454.2 1547.04 Z" fill="#000000" fill-rule="evenodd" fill-opacity="1" /><path clip-path="url(#clip840)" d="M1499.3 1546.53 L1499.3 1568.04 L1493.45 1568.04 L1493.45 1546.72 Q1493.45 1541.66 1491.47 1539.14 Q1489.5 1536.63 1485.55 1536.63 Q1480.81 1536.63 1478.07 1539.65 Q1475.34 1542.68 1475.34 1547.9 L1475.34 1568.04 L1469.45 1568.04 L1469.45 1532.4 L1475.34 1532.4 L1475.34 1537.93 Q1477.44 1534.72 1480.27 1533.13 Q1483.14 1531.54 1486.86 1531.54 Q1493 1531.54 1496.15 1535.36 Q1499.3 1539.14 1499.3 1546.53 Z" fill="#000000" fill-rule="evenodd" fill-opacity="1" /><path clip-path="url(#clip840)" d="M1541.48 1548.76 L1541.48 1551.62 L1514.55 1551.62 Q1514.93 1557.67 1518.18 1560.85 Q1521.46 1564 1527.28 1564 Q1530.66 1564 1533.81 1563.17 Q1536.99 1562.35 1540.11 1560.69 L1540.11 1566.23 Q1536.96 1567.57 1533.65 1568.27 Q1530.34 1568.97 1526.93 1568.97 Q1518.4 1568.97 1513.4 1564 Q1508.44 1559.04 1508.44 1550.57 Q1508.44 1541.82 1513.15 1536.69 Q1517.89 1531.54 1525.91 1531.54 Q1533.11 1531.54 1537.28 1536.18 Q1541.48 1540.8 1541.48 1548.76 M1535.62 1547.04 Q1535.56 1542.23 1532.92 1539.37 Q1530.31 1536.5 1525.98 1536.5 Q1521.08 1536.5 1518.12 1539.27 Q1515.19 1542.04 1514.74 1547.07 L1535.62 1547.04 Z" fill="#000000" fill-rule="evenodd" fill-opacity="1" /><path clip-path="url(#clip840)" d="M1573.82 1533.45 L1573.82 1538.98 Q1571.33 1537.71 1568.66 1537.07 Q1565.99 1536.44 1563.12 1536.44 Q1558.76 1536.44 1556.56 1537.77 Q1554.4 1539.11 1554.4 1541.79 Q1554.4 1543.82 1555.96 1545 Q1557.52 1546.15 1562.23 1547.2 L1564.23 1547.64 Q1570.47 1548.98 1573.08 1551.43 Q1575.72 1553.85 1575.72 1558.21 Q1575.72 1563.17 1571.78 1566.07 Q1567.86 1568.97 1560.99 1568.97 Q1558.12 1568.97 1555 1568.39 Q1551.92 1567.85 1548.48 1566.74 L1548.48 1560.69 Q1551.73 1562.38 1554.88 1563.24 Q1558.03 1564.07 1561.12 1564.07 Q1565.25 1564.07 1567.48 1562.66 Q1569.71 1561.23 1569.71 1558.65 Q1569.71 1556.27 1568.09 1554.99 Q1566.49 1553.72 1561.05 1552.54 L1559.01 1552.07 Q1553.57 1550.92 1551.15 1548.56 Q1548.73 1546.18 1548.73 1542.04 Q1548.73 1537.01 1552.3 1534.27 Q1555.86 1531.54 1562.42 1531.54 Q1565.67 1531.54 1568.53 1532.01 Q1571.4 1532.49 1573.82 1533.45 Z" fill="#000000" fill-rule="evenodd" fill-opacity="1" /><polyline clip-path="url(#clip840)" style="stroke:#000000; stroke-linecap:butt; stroke-linejoin:round; stroke-width:4; stroke-opacity:1; fill:none" points="
  245.291,1423.18 245.291,47.2441 
  "/>
<polyline clip-path="url(#clip840)" style="stroke:#000000; stroke-linecap:butt; stroke-linejoin:round; stroke-width:4; stroke-opacity:1; fill:none" points="
  245.291,1235.62 264.189,1235.62 
  "/>
<polyline clip-path="url(#clip840)" style="stroke:#000000; stroke-linecap:butt; stroke-linejoin:round; stroke-width:4; stroke-opacity:1; fill:none" points="
  245.291,959.757 264.189,959.757 
  "/>
<polyline clip-path="url(#clip840)" style="stroke:#000000; stroke-linecap:butt; stroke-linejoin:round; stroke-width:4; stroke-opacity:1; fill:none" points="
  245.291,683.893 264.189,683.893 
  "/>
<polyline clip-path="url(#clip840)" style="stroke:#000000; stroke-linecap:butt; stroke-linejoin:round; stroke-width:4; stroke-opacity:1; fill:none" points="
  245.291,408.029 264.189,408.029 
  "/>
<polyline clip-path="url(#clip840)" style="stroke:#000000; stroke-linecap:butt; stroke-linejoin:round; stroke-width:4; stroke-opacity:1; fill:none" points="
  245.291,132.164 264.189,132.164 
  "/>
<path clip-path="url(#clip840)" d="M112.764 1248.97 L120.403 1248.97 L120.403 1222.6 L112.093 1224.27 L112.093 1220.01 L120.356 1218.34 L125.032 1218.34 L125.032 1248.97 L132.671 1248.97 L132.671 1252.9 L112.764 1252.9 L112.764 1248.97 Z" fill="#000000" fill-rule="evenodd" fill-opacity="1" /><path clip-path="url(#clip840)" d="M142.162 1218.34 L160.518 1218.34 L160.518 1222.28 L146.444 1222.28 L146.444 1230.75 Q147.463 1230.4 148.481 1230.24 Q149.5 1230.05 150.518 1230.05 Q156.305 1230.05 159.685 1233.23 Q163.064 1236.4 163.064 1241.81 Q163.064 1247.39 159.592 1250.49 Q156.12 1253.57 149.801 1253.57 Q147.625 1253.57 145.356 1253.2 Q143.111 1252.83 140.703 1252.09 L140.703 1247.39 Q142.787 1248.53 145.009 1249.08 Q147.231 1249.64 149.708 1249.64 Q153.713 1249.64 156.051 1247.53 Q158.389 1245.42 158.389 1241.81 Q158.389 1238.2 156.051 1236.1 Q153.713 1233.99 149.708 1233.99 Q147.833 1233.99 145.958 1234.41 Q144.106 1234.82 142.162 1235.7 L142.162 1218.34 Z" fill="#000000" fill-rule="evenodd" fill-opacity="1" /><path clip-path="url(#clip840)" d="M172.277 1247.02 L177.162 1247.02 L177.162 1252.9 L172.277 1252.9 L172.277 1247.02 Z" fill="#000000" fill-rule="evenodd" fill-opacity="1" /><path clip-path="url(#clip840)" d="M197.347 1221.42 Q193.736 1221.42 191.907 1224.98 Q190.101 1228.53 190.101 1235.66 Q190.101 1242.76 191.907 1246.33 Q193.736 1249.87 197.347 1249.87 Q200.981 1249.87 202.786 1246.33 Q204.615 1242.76 204.615 1235.66 Q204.615 1228.53 202.786 1224.98 Q200.981 1221.42 197.347 1221.42 M197.347 1217.72 Q203.157 1217.72 206.212 1222.32 Q209.291 1226.91 209.291 1235.66 Q209.291 1244.38 206.212 1248.99 Q203.157 1253.57 197.347 1253.57 Q191.537 1253.57 188.458 1248.99 Q185.402 1244.38 185.402 1235.66 Q185.402 1226.91 188.458 1222.32 Q191.537 1217.72 197.347 1217.72 Z" fill="#000000" fill-rule="evenodd" fill-opacity="1" /><path clip-path="url(#clip840)" d="M113.759 973.102 L121.398 973.102 L121.398 946.736 L113.088 948.403 L113.088 944.144 L121.352 942.477 L126.028 942.477 L126.028 973.102 L133.666 973.102 L133.666 977.037 L113.759 977.037 L113.759 973.102 Z" fill="#000000" fill-rule="evenodd" fill-opacity="1" /><path clip-path="url(#clip840)" d="M141.93 942.477 L164.152 942.477 L164.152 944.468 L151.606 977.037 L146.722 977.037 L158.527 946.412 L141.93 946.412 L141.93 942.477 Z" fill="#000000" fill-rule="evenodd" fill-opacity="1" /><path clip-path="url(#clip840)" d="M173.273 971.158 L178.157 971.158 L178.157 977.037 L173.273 977.037 L173.273 971.158 Z" fill="#000000" fill-rule="evenodd" fill-opacity="1" /><path clip-path="url(#clip840)" d="M188.388 942.477 L206.745 942.477 L206.745 946.412 L192.671 946.412 L192.671 954.884 Q193.689 954.537 194.708 954.375 Q195.726 954.19 196.745 954.19 Q202.532 954.19 205.911 957.361 Q209.291 960.533 209.291 965.949 Q209.291 971.528 205.819 974.63 Q202.347 977.708 196.027 977.708 Q193.851 977.708 191.583 977.338 Q189.337 976.968 186.93 976.227 L186.93 971.528 Q189.013 972.662 191.236 973.218 Q193.458 973.773 195.935 973.773 Q199.939 973.773 202.277 971.667 Q204.615 969.56 204.615 965.949 Q204.615 962.338 202.277 960.232 Q199.939 958.125 195.935 958.125 Q194.06 958.125 192.185 958.542 Q190.333 958.959 188.388 959.838 L188.388 942.477 Z" fill="#000000" fill-rule="evenodd" fill-opacity="1" /><path clip-path="url(#clip840)" d="M115.981 697.238 L132.301 697.238 L132.301 701.173 L110.356 701.173 L110.356 697.238 Q113.018 694.483 117.602 689.853 Q122.208 685.201 123.389 683.858 Q125.634 681.335 126.514 679.599 Q127.417 677.84 127.417 676.15 Q127.417 673.395 125.472 671.659 Q123.551 669.923 120.449 669.923 Q118.25 669.923 115.796 670.687 Q113.366 671.451 110.588 673.002 L110.588 668.28 Q113.412 667.145 115.866 666.567 Q118.319 665.988 120.356 665.988 Q125.727 665.988 128.921 668.673 Q132.116 671.358 132.116 675.849 Q132.116 677.979 131.305 679.9 Q130.518 681.798 128.412 684.391 Q127.833 685.062 124.731 688.279 Q121.629 691.474 115.981 697.238 Z" fill="#000000" fill-rule="evenodd" fill-opacity="1" /><path clip-path="url(#clip840)" d="M152.115 669.692 Q148.504 669.692 146.676 673.256 Q144.87 676.798 144.87 683.928 Q144.87 691.034 146.676 694.599 Q148.504 698.14 152.115 698.14 Q155.75 698.14 157.555 694.599 Q159.384 691.034 159.384 683.928 Q159.384 676.798 157.555 673.256 Q155.75 669.692 152.115 669.692 M152.115 665.988 Q157.926 665.988 160.981 670.594 Q164.06 675.178 164.06 683.928 Q164.06 692.654 160.981 697.261 Q157.926 701.844 152.115 701.844 Q146.305 701.844 143.227 697.261 Q140.171 692.654 140.171 683.928 Q140.171 675.178 143.227 670.594 Q146.305 665.988 152.115 665.988 Z" fill="#000000" fill-rule="evenodd" fill-opacity="1" /><path clip-path="url(#clip840)" d="M172.277 695.293 L177.162 695.293 L177.162 701.173 L172.277 701.173 L172.277 695.293 Z" fill="#000000" fill-rule="evenodd" fill-opacity="1" /><path clip-path="url(#clip840)" d="M197.347 669.692 Q193.736 669.692 191.907 673.256 Q190.101 676.798 190.101 683.928 Q190.101 691.034 191.907 694.599 Q193.736 698.14 197.347 698.14 Q200.981 698.14 202.786 694.599 Q204.615 691.034 204.615 683.928 Q204.615 676.798 202.786 673.256 Q200.981 669.692 197.347 669.692 M197.347 665.988 Q203.157 665.988 206.212 670.594 Q209.291 675.178 209.291 683.928 Q209.291 692.654 206.212 697.261 Q203.157 701.844 197.347 701.844 Q191.537 701.844 188.458 697.261 Q185.402 692.654 185.402 683.928 Q185.402 675.178 188.458 670.594 Q191.537 665.988 197.347 665.988 Z" fill="#000000" fill-rule="evenodd" fill-opacity="1" /><path clip-path="url(#clip840)" d="M116.977 421.373 L133.296 421.373 L133.296 425.309 L111.352 425.309 L111.352 421.373 Q114.014 418.619 118.597 413.989 Q123.204 409.337 124.384 407.994 Q126.629 405.471 127.509 403.735 Q128.412 401.975 128.412 400.286 Q128.412 397.531 126.467 395.795 Q124.546 394.059 121.444 394.059 Q119.245 394.059 116.792 394.823 Q114.361 395.587 111.583 397.138 L111.583 392.415 Q114.407 391.281 116.861 390.702 Q119.315 390.124 121.352 390.124 Q126.722 390.124 129.916 392.809 Q133.111 395.494 133.111 399.985 Q133.111 402.114 132.301 404.036 Q131.514 405.934 129.407 408.526 Q128.829 409.198 125.727 412.415 Q122.625 415.61 116.977 421.373 Z" fill="#000000" fill-rule="evenodd" fill-opacity="1" /><path clip-path="url(#clip840)" d="M147.139 421.373 L163.458 421.373 L163.458 425.309 L141.514 425.309 L141.514 421.373 Q144.176 418.619 148.759 413.989 Q153.365 409.337 154.546 407.994 Q156.791 405.471 157.671 403.735 Q158.574 401.975 158.574 400.286 Q158.574 397.531 156.629 395.795 Q154.708 394.059 151.606 394.059 Q149.407 394.059 146.953 394.823 Q144.523 395.587 141.745 397.138 L141.745 392.415 Q144.569 391.281 147.023 390.702 Q149.477 390.124 151.514 390.124 Q156.884 390.124 160.078 392.809 Q163.273 395.494 163.273 399.985 Q163.273 402.114 162.463 404.036 Q161.676 405.934 159.569 408.526 Q158.99 409.198 155.889 412.415 Q152.787 415.61 147.139 421.373 Z" fill="#000000" fill-rule="evenodd" fill-opacity="1" /><path clip-path="url(#clip840)" d="M173.273 419.429 L178.157 419.429 L178.157 425.309 L173.273 425.309 L173.273 419.429 Z" fill="#000000" fill-rule="evenodd" fill-opacity="1" /><path clip-path="url(#clip840)" d="M188.388 390.749 L206.745 390.749 L206.745 394.684 L192.671 394.684 L192.671 403.156 Q193.689 402.809 194.708 402.647 Q195.726 402.462 196.745 402.462 Q202.532 402.462 205.911 405.633 Q209.291 408.804 209.291 414.221 Q209.291 419.799 205.819 422.901 Q202.347 425.98 196.027 425.98 Q193.851 425.98 191.583 425.61 Q189.337 425.239 186.93 424.498 L186.93 419.799 Q189.013 420.934 191.236 421.489 Q193.458 422.045 195.935 422.045 Q199.939 422.045 202.277 419.938 Q204.615 417.832 204.615 414.221 Q204.615 410.61 202.277 408.503 Q199.939 406.397 195.935 406.397 Q194.06 406.397 192.185 406.813 Q190.333 407.23 188.388 408.11 L188.388 390.749 Z" fill="#000000" fill-rule="evenodd" fill-opacity="1" /><path clip-path="url(#clip840)" d="M115.981 145.509 L132.301 145.509 L132.301 149.444 L110.356 149.444 L110.356 145.509 Q113.018 142.755 117.602 138.125 Q122.208 133.472 123.389 132.13 Q125.634 129.607 126.514 127.87 Q127.417 126.111 127.417 124.421 Q127.417 121.667 125.472 119.931 Q123.551 118.195 120.449 118.195 Q118.25 118.195 115.796 118.958 Q113.366 119.722 110.588 121.273 L110.588 116.551 Q113.412 115.417 115.866 114.838 Q118.319 114.259 120.356 114.259 Q125.727 114.259 128.921 116.945 Q132.116 119.63 132.116 124.12 Q132.116 126.25 131.305 128.171 Q130.518 130.07 128.412 132.662 Q127.833 133.333 124.731 136.551 Q121.629 139.745 115.981 145.509 Z" fill="#000000" fill-rule="evenodd" fill-opacity="1" /><path clip-path="url(#clip840)" d="M142.162 114.884 L160.518 114.884 L160.518 118.82 L146.444 118.82 L146.444 127.292 Q147.463 126.945 148.481 126.783 Q149.5 126.597 150.518 126.597 Q156.305 126.597 159.685 129.769 Q163.064 132.94 163.064 138.357 Q163.064 143.935 159.592 147.037 Q156.12 150.116 149.801 150.116 Q147.625 150.116 145.356 149.745 Q143.111 149.375 140.703 148.634 L140.703 143.935 Q142.787 145.069 145.009 145.625 Q147.231 146.181 149.708 146.181 Q153.713 146.181 156.051 144.074 Q158.389 141.968 158.389 138.357 Q158.389 134.745 156.051 132.639 Q153.713 130.532 149.708 130.532 Q147.833 130.532 145.958 130.949 Q144.106 131.366 142.162 132.245 L142.162 114.884 Z" fill="#000000" fill-rule="evenodd" fill-opacity="1" /><path clip-path="url(#clip840)" d="M172.277 143.565 L177.162 143.565 L177.162 149.444 L172.277 149.444 L172.277 143.565 Z" fill="#000000" fill-rule="evenodd" fill-opacity="1" /><path clip-path="url(#clip840)" d="M197.347 117.963 Q193.736 117.963 191.907 121.528 Q190.101 125.07 190.101 132.199 Q190.101 139.306 191.907 142.87 Q193.736 146.412 197.347 146.412 Q200.981 146.412 202.786 142.87 Q204.615 139.306 204.615 132.199 Q204.615 125.07 202.786 121.528 Q200.981 117.963 197.347 117.963 M197.347 114.259 Q203.157 114.259 206.212 118.866 Q209.291 123.449 209.291 132.199 Q209.291 140.926 206.212 145.532 Q203.157 150.116 197.347 150.116 Q191.537 150.116 188.458 145.532 Q185.402 140.926 185.402 132.199 Q185.402 123.449 188.458 118.866 Q191.537 114.259 197.347 114.259 Z" fill="#000000" fill-rule="evenodd" fill-opacity="1" /><path clip-path="url(#clip840)" d="M16.8527 751.163 L28.2536 752.484 Q29.2842 752.58 29.6063 752.741 Q29.8961 752.902 29.8961 753.418 Q29.8961 754.191 29.1232 754.191 Q28.8011 754.191 27.9315 754.062 Q26.1602 753.869 24.3567 753.869 Q22.3277 753.869 21.0717 754.255 Q19.7835 754.609 18.8495 755.64 Q17.9155 756.67 17.5291 758.571 Q17.1104 760.471 17.1104 763.498 L17.1104 772.194 Q17.1104 774.319 17.4969 774.835 Q17.8833 775.318 19.6868 775.769 L36.4339 779.988 L36.4339 773.997 Q36.4339 769.81 35.2101 768.168 Q33.9863 766.525 30.0893 765.495 Q29.4774 765.334 29.252 765.269 Q28.9943 765.173 28.8655 765.012 Q28.7045 764.819 28.7045 764.496 Q28.7045 764.207 28.8977 764.013 Q29.0588 763.82 29.252 763.756 L29.4452 763.691 Q29.7673 763.691 30.508 763.885 L44.8074 767.524 Q45.7736 767.781 45.999 767.943 Q46.1923 768.071 46.1923 768.522 Q46.1923 768.844 45.9668 769.07 Q45.7414 769.295 45.3871 769.295 Q45.0007 769.231 44.6786 769.102 Q42.714 768.651 41.458 768.651 Q40.6529 768.651 40.1698 768.812 Q39.6867 768.973 39.268 769.521 Q38.8493 770.068 38.6561 771.195 Q38.4629 772.323 38.4629 774.126 L38.4629 780.503 L54.8879 784.593 L56.4015 784.883 Q57.0779 784.883 57.3355 784.529 Q57.5931 784.142 57.722 782.757 Q57.883 780.696 57.883 779.343 Q57.883 777.669 57.9474 777.475 Q58.1406 777.089 58.6559 777.089 Q59.2356 777.089 59.5577 777.347 Q59.8476 777.604 59.8798 777.83 Q59.912 778.055 59.912 778.474 L59.7187 788.297 L59.912 796.992 Q59.912 797.991 59.1068 797.991 Q58.4949 797.991 58.2373 797.733 Q57.9474 797.475 57.9152 797.185 Q57.883 796.896 57.883 796.155 Q57.883 794.545 57.7864 793.578 Q57.6898 792.612 57.5609 792 Q57.3999 791.356 56.949 791.034 Q56.4981 790.68 56.1117 790.519 Q55.693 790.358 54.759 790.132 L19.8801 781.437 Q18.6885 781.115 18.302 781.115 Q17.8833 781.115 17.6257 781.405 Q17.368 781.662 17.2714 782.371 Q17.1426 783.079 17.1426 783.659 Q17.1104 784.206 17.1104 785.398 Q17.1104 786.171 17.0782 786.493 Q17.046 786.783 16.8849 787.008 Q16.7239 787.234 16.3696 787.234 Q15.4679 787.234 15.2746 786.847 Q15.0492 786.429 15.0492 785.269 L15.0492 752.935 Q15.0492 751.646 15.3391 751.357 Q15.5967 751.034 16.8527 751.163 Z" fill="#000000" fill-rule="evenodd" fill-opacity="1" /><path clip-path="url(#clip840)" d="M16.8527 709.185 L28.2536 710.505 Q29.2842 710.602 29.6063 710.763 Q29.8961 710.924 29.8961 711.439 Q29.8961 712.212 29.1232 712.212 Q28.8011 712.212 27.9315 712.083 Q26.1602 711.89 24.3567 711.89 Q22.3277 711.89 21.0717 712.277 Q19.7835 712.631 18.8495 713.661 Q17.9155 714.692 17.5291 716.592 Q17.1104 718.492 17.1104 721.52 L17.1104 730.215 Q17.1104 732.341 17.4969 732.856 Q17.8833 733.339 19.6868 733.79 L36.4339 738.009 L36.4339 732.019 Q36.4339 727.832 35.2101 726.19 Q33.9863 724.547 30.0893 723.516 Q29.4774 723.355 29.252 723.291 Q28.9943 723.194 28.8655 723.033 Q28.7045 722.84 28.7045 722.518 Q28.7045 722.228 28.8977 722.035 Q29.0588 721.842 29.252 721.777 L29.4452 721.713 Q29.7673 721.713 30.508 721.906 L44.8074 725.545 Q45.7736 725.803 45.999 725.964 Q46.1923 726.093 46.1923 726.544 Q46.1923 726.866 45.9668 727.091 Q45.7414 727.317 45.3871 727.317 Q45.0007 727.252 44.6786 727.124 Q42.714 726.673 41.458 726.673 Q40.6529 726.673 40.1698 726.834 Q39.6867 726.995 39.268 727.542 Q38.8493 728.09 38.6561 729.217 Q38.4629 730.344 38.4629 732.148 L38.4629 738.524 L54.8879 742.615 L56.4015 742.904 Q57.0779 742.904 57.3355 742.55 Q57.5931 742.164 57.722 740.779 Q57.883 738.718 57.883 737.365 Q57.883 735.69 57.9474 735.497 Q58.1406 735.111 58.6559 735.111 Q59.2356 735.111 59.5577 735.368 Q59.8476 735.626 59.8798 735.851 Q59.912 736.077 59.912 736.495 L59.7187 746.318 L59.912 755.014 Q59.912 756.012 59.1068 756.012 Q58.4949 756.012 58.2373 755.755 Q57.9474 755.497 57.9152 755.207 Q57.883 754.917 57.883 754.176 Q57.883 752.566 57.7864 751.6 Q57.6898 750.634 57.5609 750.022 Q57.3999 749.378 56.949 749.056 Q56.4981 748.701 56.1117 748.54 Q55.693 748.379 54.759 748.154 L19.8801 739.458 Q18.6885 739.136 18.302 739.136 Q17.8833 739.136 17.6257 739.426 Q17.368 739.684 17.2714 740.392 Q17.1426 741.101 17.1426 741.681 Q17.1104 742.228 17.1104 743.42 Q17.1104 744.193 17.0782 744.515 Q17.046 744.805 16.8849 745.03 Q16.7239 745.255 16.3696 745.255 Q15.4679 745.255 15.2746 744.869 Q15.0492 744.45 15.0492 743.291 L15.0492 710.956 Q15.0492 709.668 15.3391 709.378 Q15.5967 709.056 16.8527 709.185 Z" fill="#000000" fill-rule="evenodd" fill-opacity="1" /><path clip-path="url(#clip840)" d="M59.009 678.35 Q62.3004 678.35 65.4791 680.018 Q68.6579 681.664 70.6192 684.257 Q72.558 686.849 72.558 689.487 Q72.558 691.065 71.7013 692.124 Q70.8221 693.161 69.5822 693.725 Q71.1152 694.153 74.7899 695.078 Q78.4645 696.002 78.8252 696.002 Q79.0281 696.002 79.1183 695.957 Q79.2085 695.912 79.3212 695.709 Q79.4565 695.506 79.5016 695.01 Q79.5692 694.514 79.5692 693.68 Q79.5692 693.252 79.5692 693.094 Q79.5917 692.913 79.7045 692.756 Q79.8172 692.575 80.0652 692.575 Q80.9895 692.575 80.9895 693.409 Q80.9895 694.153 80.9218 695.686 Q80.8542 697.219 80.8542 697.986 Q80.8542 698.64 80.9218 699.947 Q80.9895 701.255 80.9895 701.863 Q80.9895 702.472 80.4484 702.472 Q80.1328 702.472 79.9299 702.382 Q79.7496 702.314 79.6594 702.134 Q79.5917 701.954 79.5692 701.796 Q79.5692 701.661 79.5692 701.39 Q79.5692 700.353 79.3888 699.902 Q79.231 699.451 78.8929 699.293 Q78.5773 699.113 77.6755 698.91 L57.1153 693.725 Q55.7401 693.409 54.7707 693.409 Q53.5533 693.409 53.1024 693.793 Q52.6515 694.176 52.6515 694.852 Q52.6515 696.025 54.0493 696.791 Q55.447 697.558 58.1523 698.211 Q58.8963 698.414 59.0541 698.549 Q59.2119 698.662 59.2119 699 Q59.1893 699.564 58.7384 699.564 Q58.6257 699.564 57.9043 699.384 Q57.1604 699.203 56.0782 698.865 Q54.9736 698.504 54.2747 698.121 Q53.8013 697.896 53.4857 697.693 Q53.1701 697.49 52.6741 697.084 Q52.1781 696.656 51.9076 696.047 Q51.6371 695.438 51.6371 694.694 Q51.6371 693.252 52.4937 692.057 Q53.3504 690.862 55.0863 690.546 Q53.5758 689.261 52.6065 687.683 Q51.6371 686.105 51.6371 684.505 Q51.6371 681.844 53.7111 680.108 Q55.7626 678.35 59.009 678.35 M56.98 681.687 Q54.9285 681.687 53.8013 682.476 Q52.6515 683.242 52.6515 684.64 Q52.6515 686.376 54.41 688.382 Q56.0782 690.366 57.6338 690.772 L66.674 693.049 L67.4179 693.184 Q67.5532 693.184 67.959 693.116 Q68.3422 693.026 68.9735 692.778 Q69.6047 692.508 70.1683 692.147 Q70.7094 691.764 71.1152 691.087 Q71.521 690.389 71.521 689.532 Q71.521 688.157 70.3036 686.669 Q69.0862 685.158 66.7867 684.031 Q65.2988 683.332 62.0975 682.521 Q58.8737 681.687 56.98 681.687 Z" fill="#000000" fill-rule="evenodd" fill-opacity="1" /><circle clip-path="url(#clip842)" cx="304.936" cy="1375.07" r="21" fill="#0000ff" fill-rule="evenodd" fill-opacity="1" stroke="none"/>
<circle clip-path="url(#clip842)" cx="801.98" cy="247.361" r="21" fill="#0000ff" fill-rule="evenodd" fill-opacity="1" stroke="none"/>
<circle clip-path="url(#clip842)" cx="1299.02" cy="144.756" r="21" fill="#0000ff" fill-rule="evenodd" fill-opacity="1" stroke="none"/>
<circle clip-path="url(#clip842)" cx="1796.07" cy="106.314" r="21" fill="#0000ff" fill-rule="evenodd" fill-opacity="1" stroke="none"/>
<circle clip-path="url(#clip842)" cx="2293.11" cy="86.1857" r="21" fill="#0000ff" fill-rule="evenodd" fill-opacity="1" stroke="none"/>
<circle clip-path="url(#clip842)" cx="304.936" cy="1384.24" r="21" fill="#ff00ff" fill-rule="evenodd" fill-opacity="1" stroke="none"/>
<circle clip-path="url(#clip842)" cx="801.98" cy="478.697" r="21" fill="#ff00ff" fill-rule="evenodd" fill-opacity="1" stroke="none"/>
<circle clip-path="url(#clip842)" cx="1299.02" cy="401.014" r="21" fill="#ff00ff" fill-rule="evenodd" fill-opacity="1" stroke="none"/>
<circle clip-path="url(#clip842)" cx="1796.07" cy="372.047" r="21" fill="#ff00ff" fill-rule="evenodd" fill-opacity="1" stroke="none"/>
<circle clip-path="url(#clip842)" cx="2293.11" cy="356.909" r="21" fill="#ff00ff" fill-rule="evenodd" fill-opacity="1" stroke="none"/>
<path clip-path="url(#clip840)" d="
M1689.32 248.629 L2282.51 248.629 L2282.51 93.1086 L1689.32 93.1086  Z
  " fill="#ffffff" fill-rule="evenodd" fill-opacity="1"/>
<polyline clip-path="url(#clip840)" style="stroke:#000000; stroke-linecap:butt; stroke-linejoin:round; stroke-width:4; stroke-opacity:1; fill:none" points="
  1689.32,248.629 2282.51,248.629 2282.51,93.1086 1689.32,93.1086 1689.32,248.629 
  "/>
<circle clip-path="url(#clip840)" cx="1782.98" cy="144.949" r="23" fill="#0000ff" fill-rule="evenodd" fill-opacity="1" stroke="none"/>
<path clip-path="url(#clip840)" d="M1876.65 127.669 L1896.51 127.669 L1896.51 131.604 L1881.32 131.604 L1881.32 141.789 L1895.03 141.789 L1895.03 145.724 L1881.32 145.724 L1881.32 162.229 L1876.65 162.229 L1876.65 127.669 Z" fill="#000000" fill-rule="evenodd" fill-opacity="1" /><path clip-path="url(#clip840)" d="M1900.7 151.997 L1900.7 136.303 L1904.96 136.303 L1904.96 151.835 Q1904.96 155.516 1906.39 157.368 Q1907.83 159.196 1910.7 159.196 Q1914.15 159.196 1916.14 156.997 Q1918.15 154.798 1918.15 151.002 L1918.15 136.303 L1922.41 136.303 L1922.41 162.229 L1918.15 162.229 L1918.15 158.247 Q1916.6 160.608 1914.54 161.766 Q1912.5 162.9 1909.8 162.9 Q1905.33 162.9 1903.01 160.122 Q1900.7 157.344 1900.7 151.997 M1911.42 135.678 L1911.42 135.678 Z" fill="#000000" fill-rule="evenodd" fill-opacity="1" /><path clip-path="url(#clip840)" d="M1931.19 126.21 L1935.44 126.21 L1935.44 162.229 L1931.19 162.229 L1931.19 126.21 Z" fill="#000000" fill-rule="evenodd" fill-opacity="1" /><path clip-path="url(#clip840)" d="M1944.36 126.21 L1948.62 126.21 L1948.62 162.229 L1944.36 162.229 L1944.36 126.21 Z" fill="#000000" fill-rule="evenodd" fill-opacity="1" /><path clip-path="url(#clip840)" d="M1992.78 141.28 Q1994.38 138.409 1996.6 137.044 Q1998.82 135.678 2001.83 135.678 Q2005.88 135.678 2008.08 138.525 Q2010.28 141.349 2010.28 146.581 L2010.28 162.229 L2006 162.229 L2006 146.719 Q2006 142.993 2004.68 141.187 Q2003.36 139.382 2000.65 139.382 Q1997.34 139.382 1995.42 141.581 Q1993.5 143.78 1993.5 147.576 L1993.5 162.229 L1989.22 162.229 L1989.22 146.719 Q1989.22 142.969 1987.9 141.187 Q1986.58 139.382 1983.82 139.382 Q1980.56 139.382 1978.64 141.604 Q1976.72 143.803 1976.72 147.576 L1976.72 162.229 L1972.44 162.229 L1972.44 136.303 L1976.72 136.303 L1976.72 140.331 Q1978.18 137.946 1980.21 136.812 Q1982.25 135.678 1985.05 135.678 Q1987.87 135.678 1989.84 137.113 Q1991.83 138.548 1992.78 141.28 Z" fill="#000000" fill-rule="evenodd" fill-opacity="1" /><path clip-path="url(#clip840)" d="M2028.82 139.289 Q2025.4 139.289 2023.41 141.974 Q2021.42 144.636 2021.42 149.289 Q2021.42 153.942 2023.38 156.627 Q2025.37 159.289 2028.82 159.289 Q2032.23 159.289 2034.22 156.604 Q2036.21 153.918 2036.21 149.289 Q2036.21 144.682 2034.22 141.997 Q2032.23 139.289 2028.82 139.289 M2028.82 135.678 Q2034.38 135.678 2037.55 139.289 Q2040.72 142.9 2040.72 149.289 Q2040.72 155.655 2037.55 159.289 Q2034.38 162.9 2028.82 162.9 Q2023.25 162.9 2020.07 159.289 Q2016.93 155.655 2016.93 149.289 Q2016.93 142.9 2020.07 139.289 Q2023.25 135.678 2028.82 135.678 Z" fill="#000000" fill-rule="evenodd" fill-opacity="1" /><path clip-path="url(#clip840)" d="M2064.84 140.238 L2064.84 126.21 L2069.1 126.21 L2069.1 162.229 L2064.84 162.229 L2064.84 158.34 Q2063.5 160.655 2061.44 161.789 Q2059.4 162.9 2056.53 162.9 Q2051.83 162.9 2048.87 159.15 Q2045.93 155.4 2045.93 149.289 Q2045.93 143.178 2048.87 139.428 Q2051.83 135.678 2056.53 135.678 Q2059.4 135.678 2061.44 136.812 Q2063.5 137.923 2064.84 140.238 M2050.33 149.289 Q2050.33 153.988 2052.25 156.673 Q2054.19 159.335 2057.57 159.335 Q2060.95 159.335 2062.9 156.673 Q2064.84 153.988 2064.84 149.289 Q2064.84 144.59 2062.9 141.928 Q2060.95 139.243 2057.57 139.243 Q2054.19 139.243 2052.25 141.928 Q2050.33 144.59 2050.33 149.289 Z" fill="#000000" fill-rule="evenodd" fill-opacity="1" /><path clip-path="url(#clip840)" d="M2100.05 148.201 L2100.05 150.284 L2080.47 150.284 Q2080.74 154.682 2083.11 156.997 Q2085.49 159.289 2089.73 159.289 Q2092.18 159.289 2094.47 158.687 Q2096.79 158.085 2099.05 156.881 L2099.05 160.909 Q2096.76 161.881 2094.36 162.391 Q2091.95 162.9 2089.47 162.9 Q2083.27 162.9 2079.63 159.289 Q2076.02 155.678 2076.02 149.52 Q2076.02 143.155 2079.45 139.428 Q2082.9 135.678 2088.73 135.678 Q2093.96 135.678 2096.99 139.057 Q2100.05 142.414 2100.05 148.201 M2095.79 146.951 Q2095.74 143.456 2093.82 141.372 Q2091.93 139.289 2088.78 139.289 Q2085.21 139.289 2083.06 141.303 Q2080.93 143.317 2080.61 146.974 L2095.79 146.951 Z" fill="#000000" fill-rule="evenodd" fill-opacity="1" /><path clip-path="url(#clip840)" d="M2107.04 126.21 L2111.3 126.21 L2111.3 162.229 L2107.04 162.229 L2107.04 126.21 Z" fill="#000000" fill-rule="evenodd" fill-opacity="1" /><circle clip-path="url(#clip840)" cx="1782.98" cy="196.789" r="23" fill="#ff00ff" fill-rule="evenodd" fill-opacity="1" stroke="none"/>
<path clip-path="url(#clip840)" d="M1893.04 197.865 Q1894.54 198.374 1895.95 200.041 Q1897.39 201.708 1898.82 204.624 L1903.57 214.069 L1898.55 214.069 L1894.13 205.203 Q1892.41 201.731 1890.79 200.596 Q1889.19 199.462 1886.42 199.462 L1881.32 199.462 L1881.32 214.069 L1876.65 214.069 L1876.65 179.509 L1887.2 179.509 Q1893.13 179.509 1896.05 181.985 Q1898.96 184.462 1898.96 189.462 Q1898.96 192.726 1897.44 194.879 Q1895.93 197.032 1893.04 197.865 M1881.32 183.351 L1881.32 195.62 L1887.2 195.62 Q1890.58 195.62 1892.3 194.069 Q1894.03 192.495 1894.03 189.462 Q1894.03 186.43 1892.3 184.902 Q1890.58 183.351 1887.2 183.351 L1881.32 183.351 Z" fill="#000000" fill-rule="evenodd" fill-opacity="1" /><path clip-path="url(#clip840)" d="M1929.45 200.041 L1929.45 202.124 L1909.87 202.124 Q1910.14 206.522 1912.5 208.837 Q1914.89 211.129 1919.13 211.129 Q1921.58 211.129 1923.87 210.527 Q1926.19 209.925 1928.45 208.721 L1928.45 212.749 Q1926.16 213.721 1923.75 214.231 Q1921.35 214.74 1918.87 214.74 Q1912.67 214.74 1909.03 211.129 Q1905.42 207.518 1905.42 201.36 Q1905.42 194.995 1908.85 191.268 Q1912.3 187.518 1918.13 187.518 Q1923.36 187.518 1926.39 190.897 Q1929.45 194.254 1929.45 200.041 M1925.19 198.791 Q1925.14 195.296 1923.22 193.212 Q1921.32 191.129 1918.18 191.129 Q1914.61 191.129 1912.46 193.143 Q1910.33 195.157 1910 198.814 L1925.19 198.791 Z" fill="#000000" fill-rule="evenodd" fill-opacity="1" /><path clip-path="url(#clip840)" d="M1953.5 192.078 L1953.5 178.05 L1957.76 178.05 L1957.76 214.069 L1953.5 214.069 L1953.5 210.18 Q1952.16 212.495 1950.1 213.629 Q1948.06 214.74 1945.19 214.74 Q1940.49 214.74 1937.53 210.99 Q1934.59 207.24 1934.59 201.129 Q1934.59 195.018 1937.53 191.268 Q1940.49 187.518 1945.19 187.518 Q1948.06 187.518 1950.1 188.652 Q1952.16 189.763 1953.5 192.078 M1938.99 201.129 Q1938.99 205.828 1940.91 208.513 Q1942.85 211.175 1946.23 211.175 Q1949.61 211.175 1951.56 208.513 Q1953.5 205.828 1953.5 201.129 Q1953.5 196.43 1951.56 193.768 Q1949.61 191.083 1946.23 191.083 Q1942.85 191.083 1940.91 193.768 Q1938.99 196.43 1938.99 201.129 Z" fill="#000000" fill-rule="evenodd" fill-opacity="1" /><path clip-path="url(#clip840)" d="M1966.09 203.837 L1966.09 188.143 L1970.35 188.143 L1970.35 203.675 Q1970.35 207.356 1971.79 209.208 Q1973.22 211.036 1976.09 211.036 Q1979.54 211.036 1981.53 208.837 Q1983.55 206.638 1983.55 202.842 L1983.55 188.143 L1987.81 188.143 L1987.81 214.069 L1983.55 214.069 L1983.55 210.087 Q1982 212.448 1979.94 213.606 Q1977.9 214.74 1975.19 214.74 Q1970.72 214.74 1968.41 211.962 Q1966.09 209.184 1966.09 203.837 M1976.81 187.518 L1976.81 187.518 Z" fill="#000000" fill-rule="evenodd" fill-opacity="1" /><path clip-path="url(#clip840)" d="M2015.24 189.138 L2015.24 193.12 Q2013.43 192.124 2011.6 191.638 Q2009.8 191.129 2007.94 191.129 Q2003.8 191.129 2001.51 193.768 Q1999.22 196.384 1999.22 201.129 Q1999.22 205.874 2001.51 208.513 Q2003.8 211.129 2007.94 211.129 Q2009.8 211.129 2011.6 210.643 Q2013.43 210.133 2015.24 209.138 L2015.24 213.073 Q2013.45 213.907 2011.53 214.323 Q2009.63 214.74 2007.48 214.74 Q2001.62 214.74 1998.18 211.059 Q1994.73 207.379 1994.73 201.129 Q1994.73 194.786 1998.2 191.152 Q2001.69 187.518 2007.76 187.518 Q2009.73 187.518 2011.6 187.935 Q2013.48 188.328 2015.24 189.138 Z" fill="#000000" fill-rule="evenodd" fill-opacity="1" /><path clip-path="url(#clip840)" d="M2044.82 200.041 L2044.82 202.124 L2025.24 202.124 Q2025.51 206.522 2027.87 208.837 Q2030.26 211.129 2034.5 211.129 Q2036.95 211.129 2039.24 210.527 Q2041.56 209.925 2043.82 208.721 L2043.82 212.749 Q2041.53 213.721 2039.12 214.231 Q2036.72 214.74 2034.24 214.74 Q2028.04 214.74 2024.4 211.129 Q2020.79 207.518 2020.79 201.36 Q2020.79 194.995 2024.22 191.268 Q2027.67 187.518 2033.5 187.518 Q2038.73 187.518 2041.76 190.897 Q2044.82 194.254 2044.82 200.041 M2040.56 198.791 Q2040.51 195.296 2038.59 193.212 Q2036.69 191.129 2033.55 191.129 Q2029.98 191.129 2027.83 193.143 Q2025.7 195.157 2025.37 198.814 L2040.56 198.791 Z" fill="#000000" fill-rule="evenodd" fill-opacity="1" /><path clip-path="url(#clip840)" d="M2068.87 192.078 L2068.87 178.05 L2073.13 178.05 L2073.13 214.069 L2068.87 214.069 L2068.87 210.18 Q2067.53 212.495 2065.47 213.629 Q2063.43 214.74 2060.56 214.74 Q2055.86 214.74 2052.9 210.99 Q2049.96 207.24 2049.96 201.129 Q2049.96 195.018 2052.9 191.268 Q2055.86 187.518 2060.56 187.518 Q2063.43 187.518 2065.47 188.652 Q2067.53 189.763 2068.87 192.078 M2054.36 201.129 Q2054.36 205.828 2056.28 208.513 Q2058.22 211.175 2061.6 211.175 Q2064.98 211.175 2066.93 208.513 Q2068.87 205.828 2068.87 201.129 Q2068.87 196.43 2066.93 193.768 Q2064.98 191.083 2061.6 191.083 Q2058.22 191.083 2056.28 193.768 Q2054.36 196.43 2054.36 201.129 Z" fill="#000000" fill-rule="evenodd" fill-opacity="1" /><path clip-path="url(#clip840)" d="M2117.16 193.12 Q2118.75 190.249 2120.98 188.884 Q2123.2 187.518 2126.21 187.518 Q2130.26 187.518 2132.46 190.365 Q2134.66 193.189 2134.66 198.421 L2134.66 214.069 L2130.37 214.069 L2130.37 198.559 Q2130.37 194.833 2129.05 193.027 Q2127.74 191.222 2125.03 191.222 Q2121.72 191.222 2119.8 193.421 Q2117.87 195.62 2117.87 199.416 L2117.87 214.069 L2113.59 214.069 L2113.59 198.559 Q2113.59 194.809 2112.27 193.027 Q2110.95 191.222 2108.2 191.222 Q2104.93 191.222 2103.01 193.444 Q2101.09 195.643 2101.09 199.416 L2101.09 214.069 L2096.81 214.069 L2096.81 188.143 L2101.09 188.143 L2101.09 192.171 Q2102.55 189.786 2104.59 188.652 Q2106.62 187.518 2109.43 187.518 Q2112.25 187.518 2114.22 188.953 Q2116.21 190.388 2117.16 193.12 Z" fill="#000000" fill-rule="evenodd" fill-opacity="1" /><path clip-path="url(#clip840)" d="M2153.2 191.129 Q2149.77 191.129 2147.78 193.814 Q2145.79 196.476 2145.79 201.129 Q2145.79 205.782 2147.76 208.467 Q2149.75 211.129 2153.2 211.129 Q2156.6 211.129 2158.59 208.444 Q2160.58 205.758 2160.58 201.129 Q2160.58 196.522 2158.59 193.837 Q2156.6 191.129 2153.2 191.129 M2153.2 187.518 Q2158.75 187.518 2161.92 191.129 Q2165.1 194.74 2165.1 201.129 Q2165.1 207.495 2161.92 211.129 Q2158.75 214.74 2153.2 214.74 Q2147.62 214.74 2144.45 211.129 Q2141.3 207.495 2141.3 201.129 Q2141.3 194.74 2144.45 191.129 Q2147.62 187.518 2153.2 187.518 Z" fill="#000000" fill-rule="evenodd" fill-opacity="1" /><path clip-path="url(#clip840)" d="M2189.22 192.078 L2189.22 178.05 L2193.48 178.05 L2193.48 214.069 L2189.22 214.069 L2189.22 210.18 Q2187.87 212.495 2185.81 213.629 Q2183.78 214.74 2180.91 214.74 Q2176.21 214.74 2173.24 210.99 Q2170.3 207.24 2170.3 201.129 Q2170.3 195.018 2173.24 191.268 Q2176.21 187.518 2180.91 187.518 Q2183.78 187.518 2185.81 188.652 Q2187.87 189.763 2189.22 192.078 M2174.7 201.129 Q2174.7 205.828 2176.62 208.513 Q2178.57 211.175 2181.95 211.175 Q2185.33 211.175 2187.27 208.513 Q2189.22 205.828 2189.22 201.129 Q2189.22 196.43 2187.27 193.768 Q2185.33 191.083 2181.95 191.083 Q2178.57 191.083 2176.62 193.768 Q2174.7 196.43 2174.7 201.129 Z" fill="#000000" fill-rule="evenodd" fill-opacity="1" /><path clip-path="url(#clip840)" d="M2224.42 200.041 L2224.42 202.124 L2204.84 202.124 Q2205.12 206.522 2207.48 208.837 Q2209.86 211.129 2214.1 211.129 Q2216.55 211.129 2218.85 210.527 Q2221.16 209.925 2223.43 208.721 L2223.43 212.749 Q2221.14 213.721 2218.73 214.231 Q2216.32 214.74 2213.85 214.74 Q2207.64 214.74 2204.01 211.129 Q2200.4 207.518 2200.4 201.36 Q2200.4 194.995 2203.82 191.268 Q2207.27 187.518 2213.11 187.518 Q2218.34 187.518 2221.37 190.897 Q2224.42 194.254 2224.42 200.041 M2220.17 198.791 Q2220.12 195.296 2218.2 193.212 Q2216.3 191.129 2213.15 191.129 Q2209.59 191.129 2207.43 193.143 Q2205.3 195.157 2204.98 198.814 L2220.17 198.791 Z" fill="#000000" fill-rule="evenodd" fill-opacity="1" /><path clip-path="url(#clip840)" d="M2231.42 178.05 L2235.67 178.05 L2235.67 214.069 L2231.42 214.069 L2231.42 178.05 Z" fill="#000000" fill-rule="evenodd" fill-opacity="1" /></svg>
