<?xml version="1.0" encoding="utf-8"?>
<svg xmlns="http://www.w3.org/2000/svg" xmlns:xlink="http://www.w3.org/1999/xlink" width="600" height="400" viewBox="0 0 2400 1600">
<defs>
  <clipPath id="clip660">
    <rect x="0" y="0" width="2400" height="1600"/>
  </clipPath>
</defs>
<path clip-path="url(#clip660)" d="
M0 1600 L2400 1600 L2400 0 L0 0  Z
  " fill="#ffffff" fill-rule="evenodd" fill-opacity="1"/>
<defs>
  <clipPath id="clip661">
    <rect x="480" y="0" width="1681" height="1600"/>
  </clipPath>
</defs>
<defs>
  <clipPath id="clip662">
    <rect x="239" y="47" width="2115" height="1377"/>
  </clipPath>
</defs>
<path clip-path="url(#clip660)" d="
M239.103 1423.18 L2352.76 1423.18 L2352.76 47.2441 L239.103 47.2441  Z
  " fill="#ffffff" fill-rule="evenodd" fill-opacity="1"/>
<polyline clip-path="url(#clip660)" style="stroke:#000000; stroke-linecap:butt; stroke-linejoin:round; stroke-width:4; stroke-opacity:1; fill:none" points="
  239.103,1423.18 2352.76,1423.18 
  "/>
<polyline clip-path="url(#clip660)" style="stroke:#000000; stroke-linecap:butt; stroke-linejoin:round; stroke-width:4; stroke-opacity:1; fill:none" points="
  285.63,1423.18 285.63,1404.28 
  "/>
<polyline clip-path="url(#clip660)" style="stroke:#000000; stroke-linecap:butt; stroke-linejoin:round; stroke-width:4; stroke-opacity:1; fill:none" points="
  950.301,1423.18 950.301,1404.28 
  "/>
<polyline clip-path="url(#clip660)" style="stroke:#000000; stroke-linecap:butt; stroke-linejoin:round; stroke-width:4; stroke-opacity:1; fill:none" points="
  1614.97,1423.18 1614.97,1404.28 
  "/>
<polyline clip-path="url(#clip660)" style="stroke:#000000; stroke-linecap:butt; stroke-linejoin:round; stroke-width:4; stroke-opacity:1; fill:none" points="
  2279.64,1423.18 2279.64,1404.28 
  "/>
<path clip-path="url(#clip660)" d="M285.63 1452.37 Q282.019 1452.37 280.19 1455.94 Q278.384 1459.48 278.384 1466.61 Q278.384 1473.71 280.19 1477.28 Q282.019 1480.82 285.63 1480.82 Q289.264 1480.82 291.07 1477.28 Q292.898 1473.71 292.898 1466.61 Q292.898 1459.48 291.07 1455.94 Q289.264 1452.37 285.63 1452.37 M285.63 1448.67 Q291.44 1448.67 294.496 1453.27 Q297.574 1457.86 297.574 1466.61 Q297.574 1475.33 294.496 1479.94 Q291.44 1484.52 285.63 1484.52 Q279.82 1484.52 276.741 1479.94 Q273.685 1475.33 273.685 1466.61 Q273.685 1457.86 276.741 1453.27 Q279.82 1448.67 285.63 1448.67 Z" fill="#000000" fill-rule="evenodd" fill-opacity="1" /><path clip-path="url(#clip660)" d="M925 1449.29 L943.356 1449.29 L943.356 1453.23 L929.282 1453.23 L929.282 1461.7 Q930.301 1461.35 931.319 1461.19 Q932.338 1461 933.356 1461 Q939.143 1461 942.523 1464.18 Q945.902 1467.35 945.902 1472.76 Q945.902 1478.34 942.43 1481.44 Q938.958 1484.52 932.639 1484.52 Q930.463 1484.52 928.194 1484.15 Q925.949 1483.78 923.541 1483.04 L923.541 1478.34 Q925.625 1479.48 927.847 1480.03 Q930.069 1480.59 932.546 1480.59 Q936.551 1480.59 938.889 1478.48 Q941.227 1476.38 941.227 1472.76 Q941.227 1469.15 938.889 1467.05 Q936.551 1464.94 932.546 1464.94 Q930.671 1464.94 928.796 1465.36 Q926.944 1465.77 925 1466.65 L925 1449.29 Z" fill="#000000" fill-rule="evenodd" fill-opacity="1" /><path clip-path="url(#clip660)" d="M965.115 1452.37 Q961.504 1452.37 959.676 1455.94 Q957.87 1459.48 957.87 1466.61 Q957.87 1473.71 959.676 1477.28 Q961.504 1480.82 965.115 1480.82 Q968.75 1480.82 970.555 1477.28 Q972.384 1473.71 972.384 1466.61 Q972.384 1459.48 970.555 1455.94 Q968.75 1452.37 965.115 1452.37 M965.115 1448.67 Q970.925 1448.67 973.981 1453.27 Q977.06 1457.86 977.06 1466.61 Q977.06 1475.33 973.981 1479.94 Q970.925 1484.52 965.115 1484.52 Q959.305 1484.52 956.226 1479.94 Q953.171 1475.33 953.171 1466.61 Q953.171 1457.86 956.226 1453.27 Q959.305 1448.67 965.115 1448.67 Z" fill="#000000" fill-rule="evenodd" fill-opacity="1" /><path clip-path="url(#clip660)" d="M1574.58 1479.92 L1582.22 1479.92 L1582.22 1453.55 L1573.91 1455.22 L1573.91 1450.96 L1582.17 1449.29 L1586.85 1449.29 L1586.85 1479.92 L1594.49 1479.92 L1594.49 1483.85 L1574.58 1483.85 L1574.58 1479.92 Z" fill="#000000" fill-rule="evenodd" fill-opacity="1" /><path clip-path="url(#clip660)" d="M1613.93 1452.37 Q1610.32 1452.37 1608.49 1455.94 Q1606.68 1459.48 1606.68 1466.61 Q1606.68 1473.71 1608.49 1477.28 Q1610.32 1480.82 1613.93 1480.82 Q1617.56 1480.82 1619.37 1477.28 Q1621.2 1473.71 1621.2 1466.61 Q1621.2 1459.48 1619.37 1455.94 Q1617.56 1452.37 1613.93 1452.37 M1613.93 1448.67 Q1619.74 1448.67 1622.8 1453.27 Q1625.87 1457.86 1625.87 1466.61 Q1625.87 1475.33 1622.8 1479.94 Q1619.74 1484.52 1613.93 1484.52 Q1608.12 1484.52 1605.04 1479.94 Q1601.99 1475.33 1601.99 1466.61 Q1601.99 1457.86 1605.04 1453.27 Q1608.12 1448.67 1613.93 1448.67 Z" fill="#000000" fill-rule="evenodd" fill-opacity="1" /><path clip-path="url(#clip660)" d="M1644.09 1452.37 Q1640.48 1452.37 1638.65 1455.94 Q1636.85 1459.48 1636.85 1466.61 Q1636.85 1473.71 1638.65 1477.28 Q1640.48 1480.82 1644.09 1480.82 Q1647.73 1480.82 1649.53 1477.28 Q1651.36 1473.71 1651.36 1466.61 Q1651.36 1459.48 1649.53 1455.94 Q1647.73 1452.37 1644.09 1452.37 M1644.09 1448.67 Q1649.9 1448.67 1652.96 1453.27 Q1656.04 1457.86 1656.04 1466.61 Q1656.04 1475.33 1652.96 1479.94 Q1649.9 1484.52 1644.09 1484.52 Q1638.28 1484.52 1635.2 1479.94 Q1632.15 1475.33 1632.15 1466.61 Q1632.15 1457.86 1635.2 1453.27 Q1638.28 1448.67 1644.09 1448.67 Z" fill="#000000" fill-rule="evenodd" fill-opacity="1" /><path clip-path="url(#clip660)" d="M2239.25 1479.92 L2246.89 1479.92 L2246.89 1453.55 L2238.58 1455.22 L2238.58 1450.96 L2246.84 1449.29 L2251.52 1449.29 L2251.52 1479.92 L2259.16 1479.92 L2259.16 1483.85 L2239.25 1483.85 L2239.25 1479.92 Z" fill="#000000" fill-rule="evenodd" fill-opacity="1" /><path clip-path="url(#clip660)" d="M2268.65 1449.29 L2287 1449.29 L2287 1453.23 L2272.93 1453.23 L2272.93 1461.7 Q2273.95 1461.35 2274.97 1461.19 Q2275.98 1461 2277 1461 Q2282.79 1461 2286.17 1464.18 Q2289.55 1467.35 2289.55 1472.76 Q2289.55 1478.34 2286.08 1481.44 Q2282.61 1484.52 2276.29 1484.52 Q2274.11 1484.52 2271.84 1484.15 Q2269.6 1483.78 2267.19 1483.04 L2267.19 1478.34 Q2269.27 1479.48 2271.49 1480.03 Q2273.72 1480.59 2276.19 1480.59 Q2280.2 1480.59 2282.54 1478.48 Q2284.87 1476.38 2284.87 1472.76 Q2284.87 1469.15 2282.54 1467.05 Q2280.2 1464.94 2276.19 1464.94 Q2274.32 1464.94 2272.44 1465.36 Q2270.59 1465.77 2268.65 1466.65 L2268.65 1449.29 Z" fill="#000000" fill-rule="evenodd" fill-opacity="1" /><path clip-path="url(#clip660)" d="M2308.76 1452.37 Q2305.15 1452.37 2303.32 1455.94 Q2301.52 1459.48 2301.52 1466.61 Q2301.52 1473.71 2303.32 1477.28 Q2305.15 1480.82 2308.76 1480.82 Q2312.4 1480.82 2314.2 1477.28 Q2316.03 1473.71 2316.03 1466.61 Q2316.03 1459.48 2314.2 1455.94 Q2312.4 1452.37 2308.76 1452.37 M2308.76 1448.67 Q2314.57 1448.67 2317.63 1453.27 Q2320.71 1457.86 2320.71 1466.61 Q2320.71 1475.33 2317.63 1479.94 Q2314.57 1484.52 2308.76 1484.52 Q2302.95 1484.52 2299.87 1479.94 Q2296.82 1475.33 2296.82 1466.61 Q2296.82 1457.86 2299.87 1453.27 Q2302.95 1448.67 2308.76 1448.67 Z" fill="#000000" fill-rule="evenodd" fill-opacity="1" /><path clip-path="url(#clip660)" d="M1019.23 1520.52 L1027.89 1520.52 L1048.96 1560.28 L1048.96 1520.52 L1055.19 1520.52 L1055.19 1568.04 L1046.54 1568.04 L1025.47 1528.29 L1025.47 1568.04 L1019.23 1568.04 L1019.23 1520.52 Z" fill="#000000" fill-rule="evenodd" fill-opacity="1" /><path clip-path="url(#clip660)" d="M1067.13 1553.98 L1067.13 1532.4 L1072.99 1532.4 L1072.99 1553.75 Q1072.99 1558.81 1074.96 1561.36 Q1076.93 1563.87 1080.88 1563.87 Q1085.62 1563.87 1088.36 1560.85 Q1091.13 1557.83 1091.13 1552.61 L1091.13 1532.4 L1096.99 1532.4 L1096.99 1568.04 L1091.13 1568.04 L1091.13 1562.57 Q1089 1565.82 1086.16 1567.41 Q1083.36 1568.97 1079.64 1568.97 Q1073.5 1568.97 1070.31 1565.15 Q1067.13 1561.33 1067.13 1553.98 M1081.87 1531.54 L1081.87 1531.54 Z" fill="#000000" fill-rule="evenodd" fill-opacity="1" /><path clip-path="url(#clip660)" d="M1136.8 1539.24 Q1139 1535.29 1142.05 1533.41 Q1145.11 1531.54 1149.25 1531.54 Q1154.82 1531.54 1157.84 1535.45 Q1160.87 1539.33 1160.87 1546.53 L1160.87 1568.04 L1154.98 1568.04 L1154.98 1546.72 Q1154.98 1541.59 1153.16 1539.11 Q1151.35 1536.63 1147.62 1536.63 Q1143.07 1536.63 1140.43 1539.65 Q1137.79 1542.68 1137.79 1547.9 L1137.79 1568.04 L1131.9 1568.04 L1131.9 1546.72 Q1131.9 1541.56 1130.09 1539.11 Q1128.27 1536.63 1124.48 1536.63 Q1120 1536.63 1117.36 1539.68 Q1114.71 1542.71 1114.71 1547.9 L1114.71 1568.04 L1108.83 1568.04 L1108.83 1532.4 L1114.71 1532.4 L1114.71 1537.93 Q1116.72 1534.66 1119.52 1533.1 Q1122.32 1531.54 1126.17 1531.54 Q1130.05 1531.54 1132.76 1533.51 Q1135.5 1535.48 1136.8 1539.24 Z" fill="#000000" fill-rule="evenodd" fill-opacity="1" /><path clip-path="url(#clip660)" d="M1198.14 1550.25 Q1198.14 1543.79 1195.46 1540.13 Q1192.82 1536.44 1188.17 1536.44 Q1183.53 1536.44 1180.85 1540.13 Q1178.21 1543.79 1178.21 1550.25 Q1178.21 1556.71 1180.85 1560.4 Q1183.53 1564.07 1188.17 1564.07 Q1192.82 1564.07 1195.46 1560.4 Q1198.14 1556.71 1198.14 1550.25 M1178.21 1537.81 Q1180.06 1534.62 1182.86 1533.1 Q1185.69 1531.54 1189.61 1531.54 Q1196.1 1531.54 1200.14 1536.69 Q1204.22 1541.85 1204.22 1550.25 Q1204.22 1558.65 1200.14 1563.81 Q1196.1 1568.97 1189.61 1568.97 Q1185.69 1568.97 1182.86 1567.44 Q1180.06 1565.88 1178.21 1562.7 L1178.21 1568.04 L1172.32 1568.04 L1172.32 1518.52 L1178.21 1518.52 L1178.21 1537.81 Z" fill="#000000" fill-rule="evenodd" fill-opacity="1" /><path clip-path="url(#clip660)" d="M1244.41 1548.76 L1244.41 1551.62 L1217.49 1551.62 Q1217.87 1557.67 1221.12 1560.85 Q1224.39 1564 1230.22 1564 Q1233.59 1564 1236.74 1563.17 Q1239.93 1562.35 1243.05 1560.69 L1243.05 1566.23 Q1239.9 1567.57 1236.59 1568.27 Q1233.27 1568.97 1229.87 1568.97 Q1221.34 1568.97 1216.34 1564 Q1211.38 1559.04 1211.38 1550.57 Q1211.38 1541.82 1216.09 1536.69 Q1220.83 1531.54 1228.85 1531.54 Q1236.04 1531.54 1240.21 1536.18 Q1244.41 1540.8 1244.41 1548.76 M1238.56 1547.04 Q1238.49 1542.23 1235.85 1539.37 Q1233.24 1536.5 1228.91 1536.5 Q1224.01 1536.5 1221.05 1539.27 Q1218.12 1542.04 1217.68 1547.07 L1238.56 1547.04 Z" fill="#000000" fill-rule="evenodd" fill-opacity="1" /><path clip-path="url(#clip660)" d="M1274.68 1537.87 Q1273.7 1537.3 1272.52 1537.04 Q1271.37 1536.76 1269.97 1536.76 Q1265.01 1536.76 1262.33 1540 Q1259.69 1543.22 1259.69 1549.27 L1259.69 1568.04 L1253.8 1568.04 L1253.8 1532.4 L1259.69 1532.4 L1259.69 1537.93 Q1261.54 1534.69 1264.5 1533.13 Q1267.46 1531.54 1271.69 1531.54 Q1272.3 1531.54 1273.03 1531.63 Q1273.76 1531.7 1274.65 1531.85 L1274.68 1537.87 Z" fill="#000000" fill-rule="evenodd" fill-opacity="1" /><path clip-path="url(#clip660)" d="M1315.36 1536.5 Q1310.65 1536.5 1307.91 1540.19 Q1305.18 1543.85 1305.18 1550.25 Q1305.18 1556.65 1307.88 1560.34 Q1310.62 1564 1315.36 1564 Q1320.04 1564 1322.78 1560.31 Q1325.51 1556.62 1325.51 1550.25 Q1325.51 1543.92 1322.78 1540.23 Q1320.04 1536.5 1315.36 1536.5 M1315.36 1531.54 Q1323 1531.54 1327.36 1536.5 Q1331.72 1541.47 1331.72 1550.25 Q1331.72 1559 1327.36 1564 Q1323 1568.97 1315.36 1568.97 Q1307.69 1568.97 1303.33 1564 Q1299 1559 1299 1550.25 Q1299 1541.47 1303.33 1536.5 Q1307.69 1531.54 1315.36 1531.54 Z" fill="#000000" fill-rule="evenodd" fill-opacity="1" /><path clip-path="url(#clip660)" d="M1359.48 1518.52 L1359.48 1523.39 L1353.87 1523.39 Q1350.72 1523.39 1349.48 1524.66 Q1348.27 1525.93 1348.27 1529.24 L1348.27 1532.4 L1357.92 1532.4 L1357.92 1536.95 L1348.27 1536.95 L1348.27 1568.04 L1342.38 1568.04 L1342.38 1536.95 L1336.78 1536.95 L1336.78 1532.4 L1342.38 1532.4 L1342.38 1529.91 Q1342.38 1523.96 1345.15 1521.26 Q1347.92 1518.52 1353.94 1518.52 L1359.48 1518.52 Z" fill="#000000" fill-rule="evenodd" fill-opacity="1" /><path clip-path="url(#clip660)" d="M1408.55 1549.81 Q1408.55 1543.44 1405.91 1539.94 Q1403.3 1536.44 1398.56 1536.44 Q1393.85 1536.44 1391.21 1539.94 Q1388.6 1543.44 1388.6 1549.81 Q1388.6 1556.14 1391.21 1559.64 Q1393.85 1563.14 1398.56 1563.14 Q1403.3 1563.14 1405.91 1559.64 Q1408.55 1556.14 1408.55 1549.81 M1414.41 1563.62 Q1414.41 1572.72 1410.37 1577.15 Q1406.33 1581.6 1397.99 1581.6 Q1394.9 1581.6 1392.16 1581.13 Q1389.43 1580.68 1386.85 1579.72 L1386.85 1574.03 Q1389.43 1575.43 1391.94 1576.1 Q1394.45 1576.76 1397.06 1576.76 Q1402.83 1576.76 1405.69 1573.74 Q1408.55 1570.75 1408.55 1564.67 L1408.55 1561.77 Q1406.74 1564.92 1403.91 1566.48 Q1401.07 1568.04 1397.13 1568.04 Q1390.57 1568.04 1386.56 1563.05 Q1382.55 1558.05 1382.55 1549.81 Q1382.55 1541.53 1386.56 1536.53 Q1390.57 1531.54 1397.13 1531.54 Q1401.07 1531.54 1403.91 1533.1 Q1406.74 1534.66 1408.55 1537.81 L1408.55 1532.4 L1414.41 1532.4 L1414.41 1563.62 Z" fill="#000000" fill-rule="evenodd" fill-opacity="1" /><path clip-path="url(#clip660)" d="M1456.97 1548.76 L1456.97 1551.62 L1430.04 1551.62 Q1430.42 1557.67 1433.67 1560.85 Q1436.95 1564 1442.77 1564 Q1446.14 1564 1449.3 1563.17 Q1452.48 1562.35 1455.6 1560.69 L1455.6 1566.23 Q1452.45 1567.57 1449.14 1568.27 Q1445.83 1568.97 1442.42 1568.97 Q1433.89 1568.97 1428.89 1564 Q1423.93 1559.04 1423.93 1550.57 Q1423.93 1541.82 1428.64 1536.69 Q1433.38 1531.54 1441.4 1531.54 Q1448.59 1531.54 1452.76 1536.18 Q1456.97 1540.8 1456.97 1548.76 M1451.11 1547.04 Q1451.05 1542.23 1448.4 1539.37 Q1445.79 1536.5 1441.47 1536.5 Q1436.56 1536.5 1433.6 1539.27 Q1430.68 1542.04 1430.23 1547.07 L1451.11 1547.04 Z" fill="#000000" fill-rule="evenodd" fill-opacity="1" /><path clip-path="url(#clip660)" d="M1496.21 1546.53 L1496.21 1568.04 L1490.35 1568.04 L1490.35 1546.72 Q1490.35 1541.66 1488.38 1539.14 Q1486.41 1536.63 1482.46 1536.63 Q1477.72 1536.63 1474.98 1539.65 Q1472.24 1542.68 1472.24 1547.9 L1472.24 1568.04 L1466.36 1568.04 L1466.36 1532.4 L1472.24 1532.4 L1472.24 1537.93 Q1474.34 1534.72 1477.18 1533.13 Q1480.04 1531.54 1483.77 1531.54 Q1489.91 1531.54 1493.06 1535.36 Q1496.21 1539.14 1496.21 1546.53 Z" fill="#000000" fill-rule="evenodd" fill-opacity="1" /><path clip-path="url(#clip660)" d="M1538.38 1548.76 L1538.38 1551.62 L1511.46 1551.62 Q1511.84 1557.67 1515.08 1560.85 Q1518.36 1564 1524.19 1564 Q1527.56 1564 1530.71 1563.17 Q1533.9 1562.35 1537.01 1560.69 L1537.01 1566.23 Q1533.86 1567.57 1530.55 1568.27 Q1527.24 1568.97 1523.84 1568.97 Q1515.31 1568.97 1510.31 1564 Q1505.35 1559.04 1505.35 1550.57 Q1505.35 1541.82 1510.06 1536.69 Q1514.8 1531.54 1522.82 1531.54 Q1530.01 1531.54 1534.18 1536.18 Q1538.38 1540.8 1538.38 1548.76 M1532.53 1547.04 Q1532.46 1542.23 1529.82 1539.37 Q1527.21 1536.5 1522.88 1536.5 Q1517.98 1536.5 1515.02 1539.27 Q1512.09 1542.04 1511.65 1547.07 L1532.53 1547.04 Z" fill="#000000" fill-rule="evenodd" fill-opacity="1" /><path clip-path="url(#clip660)" d="M1570.72 1533.45 L1570.72 1538.98 Q1568.24 1537.71 1565.56 1537.07 Q1562.89 1536.44 1560.03 1536.44 Q1555.67 1536.44 1553.47 1537.77 Q1551.31 1539.11 1551.31 1541.79 Q1551.31 1543.82 1552.87 1545 Q1554.42 1546.15 1559.14 1547.2 L1561.14 1547.64 Q1567.38 1548.98 1569.99 1551.43 Q1572.63 1553.85 1572.63 1558.21 Q1572.63 1563.17 1568.68 1566.07 Q1564.77 1568.97 1557.89 1568.97 Q1555.03 1568.97 1551.91 1568.39 Q1548.82 1567.85 1545.39 1566.74 L1545.39 1560.69 Q1548.63 1562.38 1551.78 1563.24 Q1554.93 1564.07 1558.02 1564.07 Q1562.16 1564.07 1564.39 1562.66 Q1566.62 1561.23 1566.62 1558.65 Q1566.62 1556.27 1564.99 1554.99 Q1563.4 1553.72 1557.96 1552.54 L1555.92 1552.07 Q1550.48 1550.92 1548.06 1548.56 Q1545.64 1546.18 1545.64 1542.04 Q1545.64 1537.01 1549.2 1534.27 Q1552.77 1531.54 1559.33 1531.54 Q1562.57 1531.54 1565.44 1532.01 Q1568.3 1532.49 1570.72 1533.45 Z" fill="#000000" fill-rule="evenodd" fill-opacity="1" /><polyline clip-path="url(#clip660)" style="stroke:#000000; stroke-linecap:butt; stroke-linejoin:round; stroke-width:4; stroke-opacity:1; fill:none" points="
  239.103,1423.18 239.103,47.2441 
  "/>
<polyline clip-path="url(#clip660)" style="stroke:#000000; stroke-linecap:butt; stroke-linejoin:round; stroke-width:4; stroke-opacity:1; fill:none" points="
  239.103,1384.24 258.001,1384.24 
  "/>
<polyline clip-path="url(#clip660)" style="stroke:#000000; stroke-linecap:butt; stroke-linejoin:round; stroke-width:4; stroke-opacity:1; fill:none" points="
  239.103,1127.13 258.001,1127.13 
  "/>
<polyline clip-path="url(#clip660)" style="stroke:#000000; stroke-linecap:butt; stroke-linejoin:round; stroke-width:4; stroke-opacity:1; fill:none" points="
  239.103,870.021 258.001,870.021 
  "/>
<polyline clip-path="url(#clip660)" style="stroke:#000000; stroke-linecap:butt; stroke-linejoin:round; stroke-width:4; stroke-opacity:1; fill:none" points="
  239.103,612.912 258.001,612.912 
  "/>
<polyline clip-path="url(#clip660)" style="stroke:#000000; stroke-linecap:butt; stroke-linejoin:round; stroke-width:4; stroke-opacity:1; fill:none" points="
  239.103,355.803 258.001,355.803 
  "/>
<polyline clip-path="url(#clip660)" style="stroke:#000000; stroke-linecap:butt; stroke-linejoin:round; stroke-width:4; stroke-opacity:1; fill:none" points="
  239.103,98.694 258.001,98.694 
  "/>
<path clip-path="url(#clip660)" d="M145.927 1370.04 Q142.316 1370.04 140.487 1373.6 Q138.682 1377.14 138.682 1384.27 Q138.682 1391.38 140.487 1394.94 Q142.316 1398.49 145.927 1398.49 Q149.561 1398.49 151.367 1394.94 Q153.196 1391.38 153.196 1384.27 Q153.196 1377.14 151.367 1373.6 Q149.561 1370.04 145.927 1370.04 M145.927 1366.33 Q151.737 1366.33 154.793 1370.94 Q157.872 1375.52 157.872 1384.27 Q157.872 1393 154.793 1397.61 Q151.737 1402.19 145.927 1402.19 Q140.117 1402.19 137.038 1397.61 Q133.983 1393 133.983 1384.27 Q133.983 1375.52 137.038 1370.94 Q140.117 1366.33 145.927 1366.33 Z" fill="#000000" fill-rule="evenodd" fill-opacity="1" /><path clip-path="url(#clip660)" d="M166.089 1395.64 L170.973 1395.64 L170.973 1401.52 L166.089 1401.52 L166.089 1395.64 Z" fill="#000000" fill-rule="evenodd" fill-opacity="1" /><path clip-path="url(#clip660)" d="M191.158 1370.04 Q187.547 1370.04 185.719 1373.6 Q183.913 1377.14 183.913 1384.27 Q183.913 1391.38 185.719 1394.94 Q187.547 1398.49 191.158 1398.49 Q194.793 1398.49 196.598 1394.94 Q198.427 1391.38 198.427 1384.27 Q198.427 1377.14 196.598 1373.6 Q194.793 1370.04 191.158 1370.04 M191.158 1366.33 Q196.969 1366.33 200.024 1370.94 Q203.103 1375.52 203.103 1384.27 Q203.103 1393 200.024 1397.61 Q196.969 1402.19 191.158 1402.19 Q185.348 1402.19 182.27 1397.61 Q179.214 1393 179.214 1384.27 Q179.214 1375.52 182.27 1370.94 Q185.348 1366.33 191.158 1366.33 Z" fill="#000000" fill-rule="evenodd" fill-opacity="1" /><path clip-path="url(#clip660)" d="M146.923 1112.93 Q143.312 1112.93 141.483 1116.49 Q139.677 1120.03 139.677 1127.16 Q139.677 1134.27 141.483 1137.84 Q143.312 1141.38 146.923 1141.38 Q150.557 1141.38 152.362 1137.84 Q154.191 1134.27 154.191 1127.16 Q154.191 1120.03 152.362 1116.49 Q150.557 1112.93 146.923 1112.93 M146.923 1109.22 Q152.733 1109.22 155.788 1113.83 Q158.867 1118.41 158.867 1127.16 Q158.867 1135.89 155.788 1140.5 Q152.733 1145.08 146.923 1145.08 Q141.112 1145.08 138.034 1140.5 Q134.978 1135.89 134.978 1127.16 Q134.978 1118.41 138.034 1113.83 Q141.112 1109.22 146.923 1109.22 Z" fill="#000000" fill-rule="evenodd" fill-opacity="1" /><path clip-path="url(#clip660)" d="M167.085 1138.53 L171.969 1138.53 L171.969 1144.41 L167.085 1144.41 L167.085 1138.53 Z" fill="#000000" fill-rule="evenodd" fill-opacity="1" /><path clip-path="url(#clip660)" d="M182.2 1109.85 L200.557 1109.85 L200.557 1113.78 L186.483 1113.78 L186.483 1122.26 Q187.501 1121.91 188.52 1121.75 Q189.538 1121.56 190.557 1121.56 Q196.344 1121.56 199.723 1124.73 Q203.103 1127.9 203.103 1133.32 Q203.103 1138.9 199.631 1142 Q196.158 1145.08 189.839 1145.08 Q187.663 1145.08 185.395 1144.71 Q183.149 1144.34 180.742 1143.6 L180.742 1138.9 Q182.825 1140.03 185.047 1140.59 Q187.27 1141.15 189.746 1141.15 Q193.751 1141.15 196.089 1139.04 Q198.427 1136.93 198.427 1133.32 Q198.427 1129.71 196.089 1127.6 Q193.751 1125.5 189.746 1125.5 Q187.871 1125.5 185.996 1125.91 Q184.145 1126.33 182.2 1127.21 L182.2 1109.85 Z" fill="#000000" fill-rule="evenodd" fill-opacity="1" /><path clip-path="url(#clip660)" d="M136.737 883.365 L144.376 883.365 L144.376 857 L136.066 858.666 L136.066 854.407 L144.33 852.741 L149.006 852.741 L149.006 883.365 L156.645 883.365 L156.645 887.301 L136.737 887.301 L136.737 883.365 Z" fill="#000000" fill-rule="evenodd" fill-opacity="1" /><path clip-path="url(#clip660)" d="M166.089 881.421 L170.973 881.421 L170.973 887.301 L166.089 887.301 L166.089 881.421 Z" fill="#000000" fill-rule="evenodd" fill-opacity="1" /><path clip-path="url(#clip660)" d="M191.158 855.819 Q187.547 855.819 185.719 859.384 Q183.913 862.926 183.913 870.055 Q183.913 877.162 185.719 880.727 Q187.547 884.268 191.158 884.268 Q194.793 884.268 196.598 880.727 Q198.427 877.162 198.427 870.055 Q198.427 862.926 196.598 859.384 Q194.793 855.819 191.158 855.819 M191.158 852.116 Q196.969 852.116 200.024 856.722 Q203.103 861.305 203.103 870.055 Q203.103 878.782 200.024 883.389 Q196.969 887.972 191.158 887.972 Q185.348 887.972 182.27 883.389 Q179.214 878.782 179.214 870.055 Q179.214 861.305 182.27 856.722 Q185.348 852.116 191.158 852.116 Z" fill="#000000" fill-rule="evenodd" fill-opacity="1" /><path clip-path="url(#clip660)" d="M137.733 626.257 L145.372 626.257 L145.372 599.891 L137.062 601.558 L137.062 597.298 L145.325 595.632 L150.001 595.632 L150.001 626.257 L157.64 626.257 L157.64 630.192 L137.733 630.192 L137.733 626.257 Z" fill="#000000" fill-rule="evenodd" fill-opacity="1" /><path clip-path="url(#clip660)" d="M167.085 624.312 L171.969 624.312 L171.969 630.192 L167.085 630.192 L167.085 624.312 Z" fill="#000000" fill-rule="evenodd" fill-opacity="1" /><path clip-path="url(#clip660)" d="M182.2 595.632 L200.557 595.632 L200.557 599.567 L186.483 599.567 L186.483 608.039 Q187.501 607.692 188.52 607.53 Q189.538 607.345 190.557 607.345 Q196.344 607.345 199.723 610.516 Q203.103 613.687 203.103 619.104 Q203.103 624.682 199.631 627.784 Q196.158 630.863 189.839 630.863 Q187.663 630.863 185.395 630.493 Q183.149 630.122 180.742 629.382 L180.742 624.682 Q182.825 625.817 185.047 626.372 Q187.27 626.928 189.746 626.928 Q193.751 626.928 196.089 624.821 Q198.427 622.715 198.427 619.104 Q198.427 615.493 196.089 613.386 Q193.751 611.28 189.746 611.28 Q187.871 611.28 185.996 611.696 Q184.145 612.113 182.2 612.993 L182.2 595.632 Z" fill="#000000" fill-rule="evenodd" fill-opacity="1" /><path clip-path="url(#clip660)" d="M139.955 369.148 L156.274 369.148 L156.274 373.083 L134.33 373.083 L134.33 369.148 Q136.992 366.393 141.575 361.763 Q146.182 357.111 147.362 355.768 Q149.608 353.245 150.487 351.509 Q151.39 349.75 151.39 348.06 Q151.39 345.305 149.446 343.569 Q147.524 341.833 144.423 341.833 Q142.224 341.833 139.77 342.597 Q137.339 343.361 134.562 344.912 L134.562 340.189 Q137.386 339.055 139.839 338.477 Q142.293 337.898 144.33 337.898 Q149.7 337.898 152.895 340.583 Q156.089 343.268 156.089 347.759 Q156.089 349.889 155.279 351.81 Q154.492 353.708 152.386 356.301 Q151.807 356.972 148.705 360.189 Q145.603 363.384 139.955 369.148 Z" fill="#000000" fill-rule="evenodd" fill-opacity="1" /><path clip-path="url(#clip660)" d="M166.089 367.203 L170.973 367.203 L170.973 373.083 L166.089 373.083 L166.089 367.203 Z" fill="#000000" fill-rule="evenodd" fill-opacity="1" /><path clip-path="url(#clip660)" d="M191.158 341.602 Q187.547 341.602 185.719 345.166 Q183.913 348.708 183.913 355.838 Q183.913 362.944 185.719 366.509 Q187.547 370.05 191.158 370.05 Q194.793 370.05 196.598 366.509 Q198.427 362.944 198.427 355.838 Q198.427 348.708 196.598 345.166 Q194.793 341.602 191.158 341.602 M191.158 337.898 Q196.969 337.898 200.024 342.504 Q203.103 347.088 203.103 355.838 Q203.103 364.564 200.024 369.171 Q196.969 373.754 191.158 373.754 Q185.348 373.754 182.27 369.171 Q179.214 364.564 179.214 355.838 Q179.214 347.088 182.27 342.504 Q185.348 337.898 191.158 337.898 Z" fill="#000000" fill-rule="evenodd" fill-opacity="1" /><path clip-path="url(#clip660)" d="M140.95 112.039 L157.27 112.039 L157.27 115.974 L135.325 115.974 L135.325 112.039 Q137.987 109.284 142.571 104.655 Q147.177 100.002 148.358 98.6593 Q150.603 96.1361 151.483 94.4 Q152.386 92.6408 152.386 90.951 Q152.386 88.1963 150.441 86.4602 Q148.52 84.7241 145.418 84.7241 Q143.219 84.7241 140.765 85.488 Q138.335 86.2519 135.557 87.8028 L135.557 83.0806 Q138.381 81.9464 140.835 81.3677 Q143.288 80.789 145.325 80.789 Q150.696 80.789 153.89 83.4741 Q157.085 86.1593 157.085 90.65 Q157.085 92.7797 156.274 94.7009 Q155.487 96.5991 153.381 99.1917 Q152.802 99.8629 149.7 103.081 Q146.599 106.275 140.95 112.039 Z" fill="#000000" fill-rule="evenodd" fill-opacity="1" /><path clip-path="url(#clip660)" d="M167.085 110.094 L171.969 110.094 L171.969 115.974 L167.085 115.974 L167.085 110.094 Z" fill="#000000" fill-rule="evenodd" fill-opacity="1" /><path clip-path="url(#clip660)" d="M182.2 81.414 L200.557 81.414 L200.557 85.3491 L186.483 85.3491 L186.483 93.8213 Q187.501 93.4741 188.52 93.3121 Q189.538 93.1269 190.557 93.1269 Q196.344 93.1269 199.723 96.2982 Q203.103 99.4694 203.103 104.886 Q203.103 110.465 199.631 113.567 Q196.158 116.645 189.839 116.645 Q187.663 116.645 185.395 116.275 Q183.149 115.905 180.742 115.164 L180.742 110.465 Q182.825 111.599 185.047 112.155 Q187.27 112.71 189.746 112.71 Q193.751 112.71 196.089 110.604 Q198.427 108.497 198.427 104.886 Q198.427 101.275 196.089 99.1685 Q193.751 97.062 189.746 97.062 Q187.871 97.062 185.996 97.4787 Q184.145 97.8954 182.2 98.775 L182.2 81.414 Z" fill="#000000" fill-rule="evenodd" fill-opacity="1" /><path clip-path="url(#clip660)" d="M44.0232 922.599 L55.424 923.92 Q56.4546 924.016 56.7767 924.177 Q57.0665 924.338 57.0665 924.854 Q57.0665 925.627 56.2936 925.627 Q55.9715 925.627 55.102 925.498 Q53.3307 925.305 51.5271 925.305 Q49.4982 925.305 48.2421 925.691 Q46.9539 926.045 46.0199 927.076 Q45.086 928.106 44.6995 930.007 Q44.2808 931.907 44.2808 934.934 L44.2808 943.63 Q44.2808 945.755 44.6673 946.271 Q45.0537 946.754 46.8573 947.205 L63.6043 951.423 L63.6043 945.433 Q63.6043 941.246 62.3805 939.604 Q61.1567 937.961 57.2598 936.931 Q56.6479 936.77 56.4224 936.705 Q56.1648 936.609 56.0359 936.448 Q55.8749 936.255 55.8749 935.932 Q55.8749 935.643 56.0682 935.449 Q56.2292 935.256 56.4224 935.192 L56.6157 935.127 Q56.9377 935.127 57.6784 935.321 L71.9778 938.96 Q72.944 939.217 73.1695 939.378 Q73.3627 939.507 73.3627 939.958 Q73.3627 940.28 73.1373 940.506 Q72.9118 940.731 72.5576 940.731 Q72.1711 940.667 71.849 940.538 Q69.8845 940.087 68.6284 940.087 Q67.8233 940.087 67.3402 940.248 Q66.8571 940.409 66.4384 940.957 Q66.0198 941.504 65.8265 942.631 Q65.6333 943.758 65.6333 945.562 L65.6333 951.939 L82.0583 956.029 L83.572 956.319 Q84.2483 956.319 84.5059 955.965 Q84.7636 955.578 84.8924 954.193 Q85.0534 952.132 85.0534 950.779 Q85.0534 949.105 85.1178 948.911 Q85.3111 948.525 85.8264 948.525 Q86.4061 948.525 86.7281 948.783 Q87.018 949.04 87.0502 949.266 Q87.0824 949.491 87.0824 949.91 L86.8892 959.733 L87.0824 968.428 Q87.0824 969.427 86.2773 969.427 Q85.6653 969.427 85.4077 969.169 Q85.1178 968.911 85.0856 968.621 Q85.0534 968.332 85.0534 967.591 Q85.0534 965.981 84.9568 965.014 Q84.8602 964.048 84.7314 963.436 Q84.5703 962.792 84.1195 962.47 Q83.6686 962.116 83.2821 961.955 Q82.8634 961.794 81.9295 961.568 L47.0505 952.873 Q45.8589 952.551 45.4724 952.551 Q45.0537 952.551 44.7961 952.841 Q44.5385 953.098 44.4418 953.807 Q44.313 954.515 44.313 955.095 Q44.2808 955.642 44.2808 956.834 Q44.2808 957.607 44.2486 957.929 Q44.2164 958.219 44.0554 958.444 Q43.8943 958.67 43.5401 958.67 Q42.6383 958.67 42.4451 958.283 Q42.2196 957.865 42.2196 956.705 L42.2196 924.371 Q42.2196 923.082 42.5095 922.792 Q42.7671 922.47 44.0232 922.599 Z" fill="#000000" fill-rule="evenodd" fill-opacity="1" /><path clip-path="url(#clip660)" d="M44.0232 880.621 L55.424 881.941 Q56.4546 882.038 56.7767 882.199 Q57.0665 882.36 57.0665 882.875 Q57.0665 883.648 56.2936 883.648 Q55.9715 883.648 55.102 883.519 Q53.3307 883.326 51.5271 883.326 Q49.4982 883.326 48.2421 883.713 Q46.9539 884.067 46.0199 885.097 Q45.086 886.128 44.6995 888.028 Q44.2808 889.928 44.2808 892.956 L44.2808 901.651 Q44.2808 903.777 44.6673 904.292 Q45.0537 904.775 46.8573 905.226 L63.6043 909.445 L63.6043 903.455 Q63.6043 899.268 62.3805 897.626 Q61.1567 895.983 57.2598 894.952 Q56.6479 894.791 56.4224 894.727 Q56.1648 894.63 56.0359 894.469 Q55.8749 894.276 55.8749 893.954 Q55.8749 893.664 56.0682 893.471 Q56.2292 893.278 56.4224 893.213 L56.6157 893.149 Q56.9377 893.149 57.6784 893.342 L71.9778 896.981 Q72.944 897.239 73.1695 897.4 Q73.3627 897.529 73.3627 897.98 Q73.3627 898.302 73.1373 898.527 Q72.9118 898.753 72.5576 898.753 Q72.1711 898.688 71.849 898.559 Q69.8845 898.109 68.6284 898.109 Q67.8233 898.109 67.3402 898.27 Q66.8571 898.431 66.4384 898.978 Q66.0198 899.526 65.8265 900.653 Q65.6333 901.78 65.6333 903.584 L65.6333 909.96 L82.0583 914.05 L83.572 914.34 Q84.2483 914.34 84.5059 913.986 Q84.7636 913.6 84.8924 912.215 Q85.0534 910.154 85.0534 908.801 Q85.0534 907.126 85.1178 906.933 Q85.3111 906.547 85.8264 906.547 Q86.4061 906.547 86.7281 906.804 Q87.018 907.062 87.0502 907.287 Q87.0824 907.513 87.0824 907.931 L86.8892 917.754 L87.0824 926.45 Q87.0824 927.448 86.2773 927.448 Q85.6653 927.448 85.4077 927.19 Q85.1178 926.933 85.0856 926.643 Q85.0534 926.353 85.0534 925.612 Q85.0534 924.002 84.9568 923.036 Q84.8602 922.07 84.7314 921.458 Q84.5703 920.814 84.1195 920.492 Q83.6686 920.137 83.2821 919.976 Q82.8634 919.815 81.9295 919.59 L47.0505 910.894 Q45.8589 910.572 45.4724 910.572 Q45.0537 910.572 44.7961 910.862 Q44.5385 911.12 44.4418 911.828 Q44.313 912.537 44.313 913.117 Q44.2808 913.664 44.2808 914.856 Q44.2808 915.629 44.2486 915.951 Q44.2164 916.24 44.0554 916.466 Q43.8943 916.691 43.5401 916.691 Q42.6383 916.691 42.4451 916.305 Q42.2196 915.886 42.2196 914.727 L42.2196 882.392 Q42.2196 881.104 42.5095 880.814 Q42.7671 880.492 44.0232 880.621 Z" fill="#000000" fill-rule="evenodd" fill-opacity="1" /><path clip-path="url(#clip660)" d="M86.1794 849.786 Q89.4708 849.786 92.6496 851.454 Q95.8283 853.1 97.7896 855.692 Q99.7284 858.285 99.7284 860.923 Q99.7284 862.501 98.8717 863.56 Q97.9925 864.597 96.7526 865.161 Q98.2856 865.589 101.96 866.514 Q105.635 867.438 105.996 867.438 Q106.199 867.438 106.289 867.393 Q106.379 867.348 106.492 867.145 Q106.627 866.942 106.672 866.446 Q106.74 865.95 106.74 865.116 Q106.74 864.688 106.74 864.53 Q106.762 864.349 106.875 864.192 Q106.988 864.011 107.236 864.011 Q108.16 864.011 108.16 864.845 Q108.16 865.589 108.092 867.122 Q108.025 868.655 108.025 869.422 Q108.025 870.076 108.092 871.383 Q108.16 872.691 108.16 873.299 Q108.16 873.908 107.619 873.908 Q107.303 873.908 107.1 873.818 Q106.92 873.75 106.83 873.57 Q106.762 873.39 106.74 873.232 Q106.74 873.097 106.74 872.826 Q106.74 871.789 106.559 871.338 Q106.401 870.887 106.063 870.729 Q105.748 870.549 104.846 870.346 L84.2857 865.161 Q82.9105 864.845 81.9411 864.845 Q80.7237 864.845 80.2729 865.229 Q79.822 865.612 79.822 866.288 Q79.822 867.461 81.2197 868.227 Q82.6174 868.994 85.3227 869.647 Q86.0667 869.85 86.2245 869.985 Q86.3823 870.098 86.3823 870.436 Q86.3598 871 85.9089 871 Q85.7962 871 85.0747 870.82 Q84.3308 870.639 83.2487 870.301 Q82.144 869.94 81.4451 869.557 Q80.9717 869.332 80.6561 869.129 Q80.3405 868.926 79.8445 868.52 Q79.3485 868.092 79.078 867.483 Q78.8075 866.874 78.8075 866.13 Q78.8075 864.688 79.6642 863.493 Q80.5208 862.298 82.2567 861.982 Q80.7463 860.697 79.7769 859.119 Q78.8075 857.541 78.8075 855.94 Q78.8075 853.28 80.8815 851.544 Q82.9331 849.786 86.1794 849.786 M84.1504 853.122 Q82.0989 853.122 80.9717 853.912 Q79.822 854.678 79.822 856.076 Q79.822 857.812 81.5804 859.818 Q83.2487 861.802 84.8042 862.208 L93.8444 864.485 L94.5884 864.62 Q94.7236 864.62 95.1294 864.552 Q95.5127 864.462 96.1439 864.214 Q96.7751 863.944 97.3387 863.583 Q97.8798 863.2 98.2856 862.523 Q98.6914 861.824 98.6914 860.968 Q98.6914 859.593 97.474 858.105 Q96.2566 856.594 93.9571 855.467 Q92.4692 854.768 89.2679 853.957 Q86.0441 853.122 84.1504 853.122 Z" fill="#000000" fill-rule="evenodd" fill-opacity="1" /><path clip-path="url(#clip660)" d="M29.9626 873.908 Q22.1624 873.908 15.8726 871 Q13.2349 869.76 11.0256 868.024 Q8.81626 866.288 7.84686 865.138 Q6.87747 863.989 6.87747 863.673 Q6.87747 863.222 7.32835 863.2 Q7.55379 863.2 8.11739 863.808 Q15.6922 871.248 29.9626 871.225 Q44.2781 871.225 51.5599 863.989 Q52.3489 863.2 52.5969 863.2 Q53.0478 863.2 53.0478 863.673 Q53.0478 863.989 52.1235 865.093 Q51.1992 866.198 49.08 867.911 Q46.9609 869.625 44.3683 870.865 Q38.0785 873.908 29.9626 873.908 Z" fill="#000000" fill-rule="evenodd" fill-opacity="1" /><path clip-path="url(#clip660)" d="M24.3266 829.12 Q26.0625 829.12 29.895 830.067 Q33.7275 831.014 36.3426 832.164 Q42.0237 834.621 42.0237 838.859 Q42.0237 839.378 41.9786 839.896 Q41.9335 840.392 41.7307 841.136 Q41.5278 841.88 41.2121 842.489 Q40.874 843.098 40.2427 843.706 Q39.6115 844.293 38.7774 844.631 Q42.0237 846.502 42.0237 849.433 Q42.0237 852.273 40.5809 854.144 Q39.1381 855.993 36.1848 855.993 Q34.8547 855.993 32.8934 855.452 Q30.932 854.911 26.8741 853.4 Q24.7775 852.566 23.6277 852.566 Q23.1092 852.566 22.7711 852.679 Q22.4329 852.792 22.3202 853.017 Q22.1849 853.22 22.1624 853.355 Q22.1173 853.491 22.1173 853.716 Q22.1173 855.069 23.4925 856.286 Q24.8451 857.503 27.8435 858.383 Q28.4071 858.563 28.5424 858.676 Q28.6776 858.788 28.6776 859.127 Q28.6551 859.69 28.2042 859.69 Q28.0238 859.69 27.325 859.487 Q26.6036 859.284 25.544 858.811 Q24.4619 858.315 23.4925 857.639 Q22.5005 856.962 21.8017 855.903 Q21.1028 854.821 21.1028 853.581 Q21.1028 851.912 22.2075 850.853 Q23.3121 849.793 24.8902 849.793 Q25.3411 849.793 25.8371 849.906 Q26.3105 850.019 26.6261 850.131 Q26.9192 850.222 27.8435 850.582 Q31.7436 852.07 33.6148 852.544 Q35.4859 852.995 36.7935 852.995 Q37.2218 852.995 37.56 852.972 Q37.8982 852.949 38.597 852.769 Q39.2959 852.566 39.7693 852.206 Q40.2202 851.845 40.6034 851.101 Q40.9867 850.334 40.9867 849.297 Q40.9867 846.705 37.1091 845.036 Q36.8837 845.082 36.2975 845.082 Q34.99 845.082 33.2315 844.676 Q32.8257 844.563 30.2332 843.909 Q27.618 843.255 25.3411 842.692 Q23.0416 842.106 22.9063 842.038 Q22.2751 841.813 21.9369 841.317 Q21.5988 840.821 21.5988 840.325 Q21.5988 839.761 21.9369 839.378 Q22.2751 838.995 22.8612 838.995 Q22.974 838.995 23.4925 839.13 Q23.9884 839.243 24.7324 839.423 Q25.4764 839.603 25.8596 839.694 L33.6148 841.632 Q35.4183 842.128 36.9738 842.128 Q38.9352 842.128 39.9722 841.249 Q40.9867 840.37 40.9867 838.724 Q40.9867 835.636 36.9288 833.652 Q35.1703 832.75 32.4199 831.938 Q29.6696 831.104 28.4747 831.104 Q26.2203 831.104 24.552 832.772 Q24.2364 833.133 23.9884 833.291 Q23.7179 833.449 23.3121 833.449 Q22.5456 833.449 21.8242 832.727 Q21.1028 832.006 21.1028 831.149 Q21.1028 830.383 21.8693 829.752 Q22.6133 829.12 24.3266 829.12 Z" fill="#000000" fill-rule="evenodd" fill-opacity="1" /><path clip-path="url(#clip660)" d="M36.1623 807.671 Q36.3652 807.49 36.5681 807.49 Q36.7709 807.49 37.3571 807.941 Q37.9432 808.369 38.7323 809.294 Q39.5213 810.218 40.2653 811.413 Q41.0092 812.608 41.5052 814.366 Q42.0237 816.125 42.0237 817.973 Q42.0237 821.423 39.7468 823.451 Q37.4698 825.458 34.2009 825.458 Q31.0222 825.458 27.9787 823.677 Q24.9127 821.896 23.019 819.01 Q21.1028 816.125 21.1028 813.081 Q21.1028 810.669 22.23 809.159 Q23.3572 807.648 25.0706 807.648 Q26.4007 807.648 27.2122 808.415 Q28.0238 809.181 28.0238 810.218 Q28.0238 810.94 27.618 811.435 Q27.1897 811.931 26.4007 811.931 Q25.3862 811.931 24.5971 811.097 Q24.2815 810.782 24.1463 810.421 Q23.9884 810.038 23.9884 809.812 Q23.9659 809.587 23.9659 809.068 Q23.0867 809.542 22.6133 810.669 Q22.1173 811.774 22.1173 813.036 Q22.1173 814.907 23.4248 816.688 Q24.7099 818.469 26.7388 819.551 Q28.7227 820.633 31.5407 821.332 Q34.3362 822.031 35.9594 822.031 Q38.1912 822.031 39.589 820.994 Q40.9867 819.957 40.9867 817.883 Q40.9867 817.477 40.9642 817.049 Q40.9416 816.598 40.6936 815.471 Q40.4456 814.321 40.0173 813.307 Q39.589 812.292 38.6647 811.007 Q37.7178 809.7 36.4328 808.663 Q35.9594 808.302 35.9594 808.054 Q35.9594 807.851 36.1623 807.671 Z" fill="#000000" fill-rule="evenodd" fill-opacity="1" /><path clip-path="url(#clip660)" d="M52.5969 805.12 Q52.3715 805.12 51.8079 804.534 Q44.233 797.094 29.9626 797.094 Q15.6471 797.094 8.41047 804.241 Q7.57633 805.12 7.32835 805.12 Q6.87747 805.12 6.87747 804.669 Q6.87747 804.354 7.80178 803.249 Q8.72608 802.122 10.8452 800.431 Q12.9644 798.718 15.5569 797.455 Q21.8468 794.412 29.9626 794.412 Q37.7629 794.412 44.0527 797.32 Q46.6904 798.56 48.8997 800.296 Q51.109 802.032 52.0784 803.181 Q53.0478 804.331 53.0478 804.669 Q53.0478 805.12 52.5969 805.12 Z" fill="#000000" fill-rule="evenodd" fill-opacity="1" /><path clip-path="url(#clip660)" d="M69.659 718.506 Q70.0455 718.119 70.593 718.119 Q71.1405 718.119 71.527 718.506 Q71.9134 718.892 71.9134 719.44 L71.9134 760.728 Q71.9134 761.275 71.527 761.662 Q71.1405 762.048 70.593 762.048 Q70.0455 762.048 69.659 761.662 Q69.2726 761.275 69.2726 760.728 L69.2726 719.44 Q69.2726 718.892 69.659 718.506 Z" fill="#000000" fill-rule="evenodd" fill-opacity="1" /><path clip-path="url(#clip660)" d="M44.0232 646.104 L55.424 647.424 Q56.4546 647.521 56.7767 647.682 Q57.0665 647.843 57.0665 648.358 Q57.0665 649.131 56.2936 649.131 Q55.9715 649.131 55.102 649.003 Q53.3307 648.809 51.5271 648.809 Q49.4982 648.809 48.2421 649.196 Q46.9539 649.55 46.0199 650.581 Q45.086 651.611 44.6995 653.511 Q44.2808 655.412 44.2808 658.439 L44.2808 667.134 Q44.2808 669.26 44.6673 669.775 Q45.0537 670.258 46.8573 670.709 L63.6043 674.928 L63.6043 668.938 Q63.6043 664.751 62.3805 663.109 Q61.1567 661.466 57.2598 660.436 Q56.6479 660.275 56.4224 660.21 Q56.1648 660.114 56.0359 659.953 Q55.8749 659.759 55.8749 659.437 Q55.8749 659.147 56.0682 658.954 Q56.2292 658.761 56.4224 658.697 L56.6157 658.632 Q56.9377 658.632 57.6784 658.825 L71.9778 662.465 Q72.944 662.722 73.1695 662.883 Q73.3627 663.012 73.3627 663.463 Q73.3627 663.785 73.1373 664.01 Q72.9118 664.236 72.5576 664.236 Q72.1711 664.172 71.849 664.043 Q69.8845 663.592 68.6284 663.592 Q67.8233 663.592 67.3402 663.753 Q66.8571 663.914 66.4384 664.461 Q66.0198 665.009 65.8265 666.136 Q65.6333 667.263 65.6333 669.067 L65.6333 675.444 L82.0583 679.534 L83.572 679.824 Q84.2483 679.824 84.5059 679.469 Q84.7636 679.083 84.8924 677.698 Q85.0534 675.637 85.0534 674.284 Q85.0534 672.609 85.1178 672.416 Q85.3111 672.03 85.8264 672.03 Q86.4061 672.03 86.7281 672.287 Q87.018 672.545 87.0502 672.77 Q87.0824 672.996 87.0824 673.415 L86.8892 683.237 L87.0824 691.933 Q87.0824 692.931 86.2773 692.931 Q85.6653 692.931 85.4077 692.674 Q85.1178 692.416 85.0856 692.126 Q85.0534 691.836 85.0534 691.096 Q85.0534 689.485 84.9568 688.519 Q84.8602 687.553 84.7314 686.941 Q84.5703 686.297 84.1195 685.975 Q83.6686 685.621 83.2821 685.46 Q82.8634 685.299 81.9295 685.073 L47.0505 676.378 Q45.8589 676.055 45.4724 676.055 Q45.0537 676.055 44.7961 676.345 Q44.5385 676.603 44.4418 677.312 Q44.313 678.02 44.313 678.6 Q44.2808 679.147 44.2808 680.339 Q44.2808 681.112 44.2486 681.434 Q44.2164 681.724 44.0554 681.949 Q43.8943 682.175 43.5401 682.175 Q42.6383 682.175 42.4451 681.788 Q42.2196 681.369 42.2196 680.21 L42.2196 647.875 Q42.2196 646.587 42.5095 646.297 Q42.7671 645.975 44.0232 646.104 Z" fill="#000000" fill-rule="evenodd" fill-opacity="1" /><path clip-path="url(#clip660)" d="M44.0232 604.126 L55.424 605.446 Q56.4546 605.543 56.7767 605.704 Q57.0665 605.865 57.0665 606.38 Q57.0665 607.153 56.2936 607.153 Q55.9715 607.153 55.102 607.024 Q53.3307 606.831 51.5271 606.831 Q49.4982 606.831 48.2421 607.217 Q46.9539 607.572 46.0199 608.602 Q45.086 609.633 44.6995 611.533 Q44.2808 613.433 44.2808 616.46 L44.2808 625.156 Q44.2808 627.282 44.6673 627.797 Q45.0537 628.28 46.8573 628.731 L63.6043 632.95 L63.6043 626.96 Q63.6043 622.773 62.3805 621.13 Q61.1567 619.488 57.2598 618.457 Q56.6479 618.296 56.4224 618.232 Q56.1648 618.135 56.0359 617.974 Q55.8749 617.781 55.8749 617.459 Q55.8749 617.169 56.0682 616.976 Q56.2292 616.783 56.4224 616.718 L56.6157 616.654 Q56.9377 616.654 57.6784 616.847 L71.9778 620.486 Q72.944 620.744 73.1695 620.905 Q73.3627 621.034 73.3627 621.485 Q73.3627 621.807 73.1373 622.032 Q72.9118 622.257 72.5576 622.257 Q72.1711 622.193 71.849 622.064 Q69.8845 621.613 68.6284 621.613 Q67.8233 621.613 67.3402 621.774 Q66.8571 621.935 66.4384 622.483 Q66.0198 623.03 65.8265 624.158 Q65.6333 625.285 65.6333 627.088 L65.6333 633.465 L82.0583 637.555 L83.572 637.845 Q84.2483 637.845 84.5059 637.491 Q84.7636 637.104 84.8924 635.72 Q85.0534 633.658 85.0534 632.306 Q85.0534 630.631 85.1178 630.438 Q85.3111 630.051 85.8264 630.051 Q86.4061 630.051 86.7281 630.309 Q87.018 630.567 87.0502 630.792 Q87.0824 631.017 87.0824 631.436 L86.8892 641.259 L87.0824 649.955 Q87.0824 650.953 86.2773 650.953 Q85.6653 650.953 85.4077 650.695 Q85.1178 650.438 85.0856 650.148 Q85.0534 649.858 85.0534 649.117 Q85.0534 647.507 84.9568 646.541 Q84.8602 645.575 84.7314 644.963 Q84.5703 644.319 84.1195 643.996 Q83.6686 643.642 83.2821 643.481 Q82.8634 643.32 81.9295 643.095 L47.0505 634.399 Q45.8589 634.077 45.4724 634.077 Q45.0537 634.077 44.7961 634.367 Q44.5385 634.625 44.4418 635.333 Q44.313 636.042 44.313 636.621 Q44.2808 637.169 44.2808 638.36 Q44.2808 639.133 44.2486 639.455 Q44.2164 639.745 44.0554 639.971 Q43.8943 640.196 43.5401 640.196 Q42.6383 640.196 42.4451 639.81 Q42.2196 639.391 42.2196 638.232 L42.2196 605.897 Q42.2196 604.609 42.5095 604.319 Q42.7671 603.997 44.0232 604.126 Z" fill="#000000" fill-rule="evenodd" fill-opacity="1" /><path clip-path="url(#clip660)" d="M86.1794 573.291 Q89.4708 573.291 92.6496 574.959 Q95.8283 576.605 97.7896 579.197 Q99.7284 581.79 99.7284 584.428 Q99.7284 586.006 98.8717 587.065 Q97.9925 588.102 96.7526 588.666 Q98.2856 589.094 101.96 590.018 Q105.635 590.943 105.996 590.943 Q106.199 590.943 106.289 590.898 Q106.379 590.853 106.492 590.65 Q106.627 590.447 106.672 589.951 Q106.74 589.455 106.74 588.621 Q106.74 588.192 106.74 588.035 Q106.762 587.854 106.875 587.696 Q106.988 587.516 107.236 587.516 Q108.16 587.516 108.16 588.35 Q108.16 589.094 108.092 590.627 Q108.025 592.16 108.025 592.927 Q108.025 593.58 108.092 594.888 Q108.16 596.196 108.16 596.804 Q108.16 597.413 107.619 597.413 Q107.303 597.413 107.1 597.323 Q106.92 597.255 106.83 597.075 Q106.762 596.894 106.74 596.737 Q106.74 596.601 106.74 596.331 Q106.74 595.294 106.559 594.843 Q106.401 594.392 106.063 594.234 Q105.748 594.054 104.846 593.851 L84.2857 588.666 Q82.9105 588.35 81.9411 588.35 Q80.7237 588.35 80.2729 588.733 Q79.822 589.117 79.822 589.793 Q79.822 590.965 81.2197 591.732 Q82.6174 592.498 85.3227 593.152 Q86.0667 593.355 86.2245 593.49 Q86.3823 593.603 86.3823 593.941 Q86.3598 594.505 85.9089 594.505 Q85.7962 594.505 85.0747 594.324 Q84.3308 594.144 83.2487 593.806 Q82.144 593.445 81.4451 593.062 Q80.9717 592.836 80.6561 592.634 Q80.3405 592.431 79.8445 592.025 Q79.3485 591.597 79.078 590.988 Q78.8075 590.379 78.8075 589.635 Q78.8075 588.192 79.6642 586.998 Q80.5208 585.803 82.2567 585.487 Q80.7463 584.202 79.7769 582.624 Q78.8075 581.046 78.8075 579.445 Q78.8075 576.785 80.8815 575.049 Q82.9331 573.291 86.1794 573.291 M84.1504 576.627 Q82.0989 576.627 80.9717 577.416 Q79.822 578.183 79.822 579.581 Q79.822 581.316 81.5804 583.323 Q83.2487 585.307 84.8042 585.713 L93.8444 587.989 L94.5884 588.125 Q94.7236 588.125 95.1294 588.057 Q95.5127 587.967 96.1439 587.719 Q96.7751 587.448 97.3387 587.088 Q97.8798 586.704 98.2856 586.028 Q98.6914 585.329 98.6914 584.473 Q98.6914 583.097 97.474 581.61 Q96.2566 580.099 93.9571 578.972 Q92.4692 578.273 89.2679 577.461 Q86.0441 576.627 84.1504 576.627 Z" fill="#000000" fill-rule="evenodd" fill-opacity="1" /><path clip-path="url(#clip660)" d="M29.9626 597.413 Q22.1624 597.413 15.8726 594.505 Q13.2349 593.265 11.0256 591.529 Q8.81626 589.793 7.84686 588.643 Q6.87747 587.494 6.87747 587.178 Q6.87747 586.727 7.32835 586.704 Q7.55379 586.704 8.11739 587.313 Q15.6922 594.753 29.9626 594.73 Q44.2781 594.73 51.5599 587.494 Q52.3489 586.704 52.5969 586.704 Q53.0478 586.704 53.0478 587.178 Q53.0478 587.494 52.1235 588.598 Q51.1992 589.703 49.08 591.416 Q46.9609 593.13 44.3683 594.369 Q38.0785 597.413 29.9626 597.413 Z" fill="#000000" fill-rule="evenodd" fill-opacity="1" /><path clip-path="url(#clip660)" d="M24.1012 564.393 Q25.296 564.393 26.0625 565.182 Q26.829 565.949 26.829 566.941 Q26.829 567.797 26.333 568.248 Q25.8371 568.699 25.2058 568.699 Q24.3041 568.699 23.5601 568 Q22.8161 567.301 22.6583 566.287 Q22.1173 567.031 22.1173 568.226 Q22.1173 570.187 23.6277 571.923 Q24.3266 572.689 25.6116 573.524 Q26.8741 574.358 27.4151 574.515 L33.4344 575.981 Q34.1107 576.116 37.3571 576.95 Q40.5809 577.762 40.7162 577.829 Q41.3474 578.055 41.6856 578.551 Q42.0237 579.047 42.0237 579.543 Q42.0237 580.106 41.6856 580.49 Q41.3474 580.873 40.7613 580.873 Q40.6711 580.873 40.3329 580.805 Q39.9948 580.738 39.5213 580.625 Q39.0479 580.512 38.7774 580.467 L28.114 577.784 Q26.1752 577.288 25.5665 577.176 Q24.9353 577.04 24.2364 577.04 Q23.019 577.04 22.5682 577.424 Q22.1173 577.807 22.1173 578.483 Q22.1173 579.656 23.515 580.422 Q24.9127 581.189 27.618 581.842 Q28.362 582.045 28.5198 582.18 Q28.6776 582.293 28.6776 582.631 Q28.6551 583.195 28.2042 583.195 Q28.0915 583.195 27.3701 583.015 Q26.6261 582.834 25.544 582.496 Q24.4393 582.135 23.7405 581.752 Q23.267 581.527 22.9514 581.324 Q22.6358 581.121 22.1398 580.715 Q21.6439 580.309 21.3733 579.701 Q21.1028 579.092 21.1028 578.348 Q21.1028 576.725 22.0947 575.575 Q23.0867 574.403 24.6422 574.132 Q23.8306 573.569 23.1318 572.87 Q22.4104 572.171 21.7566 570.886 Q21.1028 569.601 21.1028 568.226 Q21.1028 566.512 21.982 565.453 Q22.8387 564.393 24.1012 564.393 Z" fill="#000000" fill-rule="evenodd" fill-opacity="1" /><path clip-path="url(#clip660)" d="M12.6488 551.378 Q13.6407 551.378 14.3847 552.189 Q15.1061 552.978 15.1061 553.835 Q15.1061 554.624 14.6326 555.12 Q14.1367 555.594 13.4378 555.594 Q12.5135 555.594 11.747 554.805 Q10.9805 554.016 10.9805 553.091 Q10.9805 552.325 11.4539 551.851 Q11.9273 551.378 12.6488 551.378 M34.8998 550.972 Q35.0801 550.972 35.8016 551.175 Q36.5004 551.378 37.5825 551.874 Q38.6421 552.347 39.634 553.001 Q40.626 553.655 41.3249 554.737 Q42.0237 555.796 42.0237 557.014 Q42.0237 558.66 40.9416 559.742 Q39.8595 560.801 38.2363 560.801 Q37.3571 560.801 34.5391 559.742 Q26.333 556.676 25.9949 556.563 Q24.7099 556.044 23.5826 556.044 Q23.0641 556.044 22.7485 556.157 Q22.4104 556.27 22.2976 556.495 Q22.1624 556.721 22.1398 556.856 Q22.1173 556.969 22.1173 557.194 Q22.1173 558.524 23.4699 559.764 Q24.8226 561.004 27.8435 561.861 Q28.4071 562.041 28.5424 562.154 Q28.6776 562.267 28.6776 562.605 Q28.6551 563.168 28.2042 563.168 Q28.0689 563.168 27.5504 563.011 Q27.0094 562.853 26.1978 562.56 Q25.3636 562.267 24.507 561.748 Q23.6277 561.23 22.8612 560.598 Q22.0947 559.945 21.5988 559.02 Q21.1028 558.096 21.1028 557.059 Q21.1028 555.368 22.2075 554.331 Q23.2896 553.272 24.8902 553.272 Q25.7694 553.272 27.325 553.88 Q29.3539 554.624 30.0077 554.895 L34.8547 556.698 Q36.6131 557.352 37.1542 557.555 Q37.6727 557.735 38.3039 557.893 Q38.9126 558.028 39.4762 558.028 Q40.2653 558.028 40.626 557.78 Q40.9867 557.51 40.9867 556.924 Q40.9867 555.301 39.3861 554.106 Q37.7629 552.911 35.283 552.212 Q35.2154 552.189 35.1027 552.167 Q34.5391 551.987 34.4714 551.806 Q34.4489 551.716 34.4489 551.536 Q34.4489 550.972 34.8998 550.972 Z" fill="#000000" fill-rule="evenodd" fill-opacity="1" /><path clip-path="url(#clip660)" d="M28.4747 529.112 Q31.7211 529.112 34.8998 530.758 Q38.056 532.381 40.0398 534.996 Q42.0237 537.589 42.0237 540.249 Q42.0237 542.842 40.0398 544.487 Q38.0334 546.111 34.7645 546.111 Q33.6148 546.111 32.8032 545.975 Q31.9916 545.84 30.0979 545.367 L15.0384 541.579 Q12.2204 540.925 12.1979 540.925 Q11.9273 540.925 11.7921 541.038 Q11.6343 541.128 11.5216 541.669 Q11.4088 542.21 11.4088 543.247 Q11.4088 543.676 11.3863 543.879 Q11.3637 544.059 11.251 544.217 Q11.1158 544.352 10.8452 544.352 Q10.462 544.352 10.2591 544.194 Q10.0336 544.014 9.98855 543.879 Q9.94347 543.743 9.92092 543.473 Q9.89838 543.09 9.78566 541.805 Q9.65039 540.52 9.56022 539.415 Q9.47004 538.31 9.47004 537.837 Q9.47004 537.566 9.6053 537.431 Q9.71802 537.273 9.85329 537.273 L9.96601 537.251 L23.8757 540.655 Q21.1028 537.972 21.1028 535.244 Q21.1028 532.516 23.1994 530.826 Q25.296 529.112 28.4747 529.112 M26.4457 532.449 Q24.3041 532.449 23.2219 533.26 Q22.1173 534.049 22.1173 535.357 Q22.1173 536.462 22.9514 537.905 Q23.7855 539.347 25.8145 540.88 Q26.1978 541.173 26.4232 541.286 Q26.6486 541.376 27.4151 541.579 L31.676 542.594 Q34.5842 543.338 36.3426 543.338 Q38.7323 543.338 39.8595 542.458 Q40.9867 541.579 40.9867 540.249 Q40.9867 538.851 39.7468 537.386 Q38.5068 535.921 36.2524 534.793 Q34.7645 534.095 31.5633 533.283 Q28.3395 532.449 26.4457 532.449 Z" fill="#000000" fill-rule="evenodd" fill-opacity="1" /><path clip-path="url(#clip660)" d="M52.5969 525.767 Q52.3715 525.767 51.8079 525.18 Q44.233 517.741 29.9626 517.741 Q15.6471 517.741 8.41047 524.887 Q7.57633 525.767 7.32835 525.767 Q6.87747 525.767 6.87747 525.316 Q6.87747 525 7.80178 523.895 Q8.72608 522.768 10.8452 521.077 Q12.9644 519.364 15.5569 518.102 Q21.8468 515.058 29.9626 515.058 Q37.7629 515.058 44.0527 517.966 Q46.6904 519.206 48.8997 520.942 Q51.109 522.678 52.0784 523.828 Q53.0478 524.978 53.0478 525.316 Q53.0478 525.767 52.5969 525.767 Z" fill="#000000" fill-rule="evenodd" fill-opacity="1" /><circle clip-path="url(#clip662)" cx="298.923" cy="1341.5" r="21" fill="#ff00ff" fill-rule="evenodd" fill-opacity="1" stroke="none"/>
<circle clip-path="url(#clip662)" cx="431.857" cy="306.195" r="21" fill="#ff00ff" fill-rule="evenodd" fill-opacity="1" stroke="none"/>
<circle clip-path="url(#clip662)" cx="564.792" cy="190.062" r="21" fill="#ff00ff" fill-rule="evenodd" fill-opacity="1" stroke="none"/>
<circle clip-path="url(#clip662)" cx="697.726" cy="145.904" r="21" fill="#ff00ff" fill-rule="evenodd" fill-opacity="1" stroke="none"/>
<circle clip-path="url(#clip662)" cx="830.66" cy="122.649" r="21" fill="#ff00ff" fill-rule="evenodd" fill-opacity="1" stroke="none"/>
<circle clip-path="url(#clip662)" cx="963.594" cy="108.298" r="21" fill="#ff00ff" fill-rule="evenodd" fill-opacity="1" stroke="none"/>
<circle clip-path="url(#clip662)" cx="1096.53" cy="98.5582" r="21" fill="#ff00ff" fill-rule="evenodd" fill-opacity="1" stroke="none"/>
<circle clip-path="url(#clip662)" cx="1229.46" cy="91.5155" r="21" fill="#ff00ff" fill-rule="evenodd" fill-opacity="1" stroke="none"/>
<circle clip-path="url(#clip662)" cx="1362.4" cy="86.1857" r="21" fill="#ff00ff" fill-rule="evenodd" fill-opacity="1" stroke="none"/>
<circle clip-path="url(#clip662)" cx="1495.33" cy="1384.24" r="21" fill="#ff00ff" fill-rule="evenodd" fill-opacity="1" stroke="none"/>
<circle clip-path="url(#clip662)" cx="1628.26" cy="1384.24" r="21" fill="#ff00ff" fill-rule="evenodd" fill-opacity="1" stroke="none"/>
<circle clip-path="url(#clip662)" cx="1761.2" cy="1384.24" r="21" fill="#ff00ff" fill-rule="evenodd" fill-opacity="1" stroke="none"/>
<circle clip-path="url(#clip662)" cx="1894.13" cy="1384.24" r="21" fill="#ff00ff" fill-rule="evenodd" fill-opacity="1" stroke="none"/>
<circle clip-path="url(#clip662)" cx="2027.07" cy="1384.24" r="21" fill="#ff00ff" fill-rule="evenodd" fill-opacity="1" stroke="none"/>
<circle clip-path="url(#clip662)" cx="2160" cy="1384.24" r="21" fill="#ff00ff" fill-rule="evenodd" fill-opacity="1" stroke="none"/>
<circle clip-path="url(#clip662)" cx="2292.94" cy="1384.24" r="21" fill="#ff00ff" fill-rule="evenodd" fill-opacity="1" stroke="none"/>
</svg>
