<?xml version="1.0" encoding="utf-8"?>
<svg xmlns="http://www.w3.org/2000/svg" xmlns:xlink="http://www.w3.org/1999/xlink" width="600" height="400" viewBox="0 0 2400 1600">
<defs>
  <clipPath id="clip840">
    <rect x="0" y="0" width="2400" height="1600"/>
  </clipPath>
</defs>
<path clip-path="url(#clip840)" d="
M0 1600 L2400 1600 L2400 0 L0 0  Z
  " fill="#ffffff" fill-rule="evenodd" fill-opacity="1"/>
<defs>
  <clipPath id="clip841">
    <rect x="480" y="0" width="1681" height="1600"/>
  </clipPath>
</defs>
<defs>
  <clipPath id="clip842">
    <rect x="245" y="47" width="2108" height="1405"/>
  </clipPath>
</defs>
<path clip-path="url(#clip840)" d="
M245.574 1450.96 L2352.76 1450.96 L2352.76 47.2441 L245.574 47.2441  Z
  " fill="#ffffff" fill-rule="evenodd" fill-opacity="1"/>
<polyline clip-path="url(#clip840)" style="stroke:#000000; stroke-linecap:butt; stroke-linejoin:round; stroke-width:4; stroke-opacity:1; fill:none" points="
  245.574,1450.96 2352.76,1450.96 
  "/>
<polyline clip-path="url(#clip840)" style="stroke:#000000; stroke-linecap:butt; stroke-linejoin:round; stroke-width:4; stroke-opacity:1; fill:none" points="
  268.652,1450.96 268.652,1432.06 
  "/>
<polyline clip-path="url(#clip840)" style="stroke:#000000; stroke-linecap:butt; stroke-linejoin:round; stroke-width:4; stroke-opacity:1; fill:none" points="
  725.642,1450.96 725.642,1432.06 
  "/>
<polyline clip-path="url(#clip840)" style="stroke:#000000; stroke-linecap:butt; stroke-linejoin:round; stroke-width:4; stroke-opacity:1; fill:none" points="
  1182.63,1450.96 1182.63,1432.06 
  "/>
<polyline clip-path="url(#clip840)" style="stroke:#000000; stroke-linecap:butt; stroke-linejoin:round; stroke-width:4; stroke-opacity:1; fill:none" points="
  1639.62,1450.96 1639.62,1432.06 
  "/>
<polyline clip-path="url(#clip840)" style="stroke:#000000; stroke-linecap:butt; stroke-linejoin:round; stroke-width:4; stroke-opacity:1; fill:none" points="
  2096.61,1450.96 2096.61,1432.06 
  "/>
<path clip-path="url(#clip840)" d="M242.414 1493 Q245.77 1493.72 247.645 1495.98 Q249.543 1498.25 249.543 1501.59 Q249.543 1506.7 246.025 1509.5 Q242.506 1512.3 236.025 1512.3 Q233.849 1512.3 231.534 1511.86 Q229.243 1511.45 226.789 1510.59 L226.789 1506.08 Q228.733 1507.21 231.048 1507.79 Q233.363 1508.37 235.886 1508.37 Q240.284 1508.37 242.576 1506.63 Q244.891 1504.9 244.891 1501.59 Q244.891 1498.53 242.738 1496.82 Q240.608 1495.08 236.789 1495.08 L232.761 1495.08 L232.761 1491.24 L236.974 1491.24 Q240.423 1491.24 242.252 1489.87 Q244.08 1488.48 244.08 1485.89 Q244.08 1483.23 242.182 1481.82 Q240.307 1480.38 236.789 1480.38 Q234.868 1480.38 232.669 1480.8 Q230.469 1481.22 227.831 1482.1 L227.831 1477.93 Q230.493 1477.19 232.807 1476.82 Q235.145 1476.45 237.206 1476.45 Q242.53 1476.45 245.631 1478.88 Q248.733 1481.29 248.733 1485.41 Q248.733 1488.28 247.09 1490.27 Q245.446 1492.23 242.414 1493 Z" fill="#000000" fill-rule="evenodd" fill-opacity="1" /><path clip-path="url(#clip840)" d="M268.409 1480.15 Q264.798 1480.15 262.969 1483.72 Q261.164 1487.26 261.164 1494.39 Q261.164 1501.49 262.969 1505.06 Q264.798 1508.6 268.409 1508.6 Q272.043 1508.6 273.849 1505.06 Q275.678 1501.49 275.678 1494.39 Q275.678 1487.26 273.849 1483.72 Q272.043 1480.15 268.409 1480.15 M268.409 1476.45 Q274.219 1476.45 277.275 1481.05 Q280.353 1485.64 280.353 1494.39 Q280.353 1503.11 277.275 1507.72 Q274.219 1512.3 268.409 1512.3 Q262.599 1512.3 259.52 1507.72 Q256.465 1503.11 256.465 1494.39 Q256.465 1485.64 259.52 1481.05 Q262.599 1476.45 268.409 1476.45 Z" fill="#000000" fill-rule="evenodd" fill-opacity="1" /><path clip-path="url(#clip840)" d="M298.571 1480.15 Q294.96 1480.15 293.131 1483.72 Q291.326 1487.26 291.326 1494.39 Q291.326 1501.49 293.131 1505.06 Q294.96 1508.6 298.571 1508.6 Q302.205 1508.6 304.011 1505.06 Q305.839 1501.49 305.839 1494.39 Q305.839 1487.26 304.011 1483.72 Q302.205 1480.15 298.571 1480.15 M298.571 1476.45 Q304.381 1476.45 307.437 1481.05 Q310.515 1485.64 310.515 1494.39 Q310.515 1503.11 307.437 1507.72 Q304.381 1512.3 298.571 1512.3 Q292.761 1512.3 289.682 1507.72 Q286.627 1503.11 286.627 1494.39 Q286.627 1485.64 289.682 1481.05 Q292.761 1476.45 298.571 1476.45 Z" fill="#000000" fill-rule="evenodd" fill-opacity="1" /><path clip-path="url(#clip840)" d="M699.404 1493 Q702.76 1493.72 704.635 1495.98 Q706.534 1498.25 706.534 1501.59 Q706.534 1506.7 703.015 1509.5 Q699.497 1512.3 693.015 1512.3 Q690.839 1512.3 688.524 1511.86 Q686.233 1511.45 683.779 1510.59 L683.779 1506.08 Q685.724 1507.21 688.038 1507.79 Q690.353 1508.37 692.876 1508.37 Q697.274 1508.37 699.566 1506.63 Q701.881 1504.9 701.881 1501.59 Q701.881 1498.53 699.728 1496.82 Q697.598 1495.08 693.779 1495.08 L689.751 1495.08 L689.751 1491.24 L693.964 1491.24 Q697.413 1491.24 699.242 1489.87 Q701.071 1488.48 701.071 1485.89 Q701.071 1483.23 699.173 1481.82 Q697.298 1480.38 693.779 1480.38 Q691.858 1480.38 689.659 1480.8 Q687.46 1481.22 684.821 1482.1 L684.821 1477.93 Q687.483 1477.19 689.798 1476.82 Q692.136 1476.45 694.196 1476.45 Q699.52 1476.45 702.622 1478.88 Q705.723 1481.29 705.723 1485.41 Q705.723 1488.28 704.08 1490.27 Q702.436 1492.23 699.404 1493 Z" fill="#000000" fill-rule="evenodd" fill-opacity="1" /><path clip-path="url(#clip840)" d="M715.446 1477.07 L733.802 1477.07 L733.802 1481.01 L719.728 1481.01 L719.728 1489.48 Q720.747 1489.13 721.765 1488.97 Q722.784 1488.79 723.802 1488.79 Q729.589 1488.79 732.969 1491.96 Q736.348 1495.13 736.348 1500.54 Q736.348 1506.12 732.876 1509.22 Q729.404 1512.3 723.084 1512.3 Q720.909 1512.3 718.64 1511.93 Q716.395 1511.56 713.987 1510.82 L713.987 1506.12 Q716.071 1507.26 718.293 1507.81 Q720.515 1508.37 722.992 1508.37 Q726.996 1508.37 729.334 1506.26 Q731.672 1504.16 731.672 1500.54 Q731.672 1496.93 729.334 1494.83 Q726.996 1492.72 722.992 1492.72 Q721.117 1492.72 719.242 1493.14 Q717.39 1493.55 715.446 1494.43 L715.446 1477.07 Z" fill="#000000" fill-rule="evenodd" fill-opacity="1" /><path clip-path="url(#clip840)" d="M755.561 1480.15 Q751.95 1480.15 750.121 1483.72 Q748.316 1487.26 748.316 1494.39 Q748.316 1501.49 750.121 1505.06 Q751.95 1508.6 755.561 1508.6 Q759.195 1508.6 761.001 1505.06 Q762.83 1501.49 762.83 1494.39 Q762.83 1487.26 761.001 1483.72 Q759.195 1480.15 755.561 1480.15 M755.561 1476.45 Q761.371 1476.45 764.427 1481.05 Q767.506 1485.64 767.506 1494.39 Q767.506 1503.11 764.427 1507.72 Q761.371 1512.3 755.561 1512.3 Q749.751 1512.3 746.672 1507.72 Q743.617 1503.11 743.617 1494.39 Q743.617 1485.64 746.672 1481.05 Q749.751 1476.45 755.561 1476.45 Z" fill="#000000" fill-rule="evenodd" fill-opacity="1" /><path clip-path="url(#clip840)" d="M1155.72 1481.15 L1143.92 1499.6 L1155.72 1499.6 L1155.72 1481.15 M1154.5 1477.07 L1160.38 1477.07 L1160.38 1499.6 L1165.31 1499.6 L1165.31 1503.48 L1160.38 1503.48 L1160.38 1511.63 L1155.72 1511.63 L1155.72 1503.48 L1140.12 1503.48 L1140.12 1498.97 L1154.5 1477.07 Z" fill="#000000" fill-rule="evenodd" fill-opacity="1" /><path clip-path="url(#clip840)" d="M1183.04 1480.15 Q1179.43 1480.15 1177.6 1483.72 Q1175.79 1487.26 1175.79 1494.39 Q1175.79 1501.49 1177.6 1505.06 Q1179.43 1508.6 1183.04 1508.6 Q1186.67 1508.6 1188.48 1505.06 Q1190.31 1501.49 1190.31 1494.39 Q1190.31 1487.26 1188.48 1483.72 Q1186.67 1480.15 1183.04 1480.15 M1183.04 1476.45 Q1188.85 1476.45 1191.9 1481.05 Q1194.98 1485.64 1194.98 1494.39 Q1194.98 1503.11 1191.9 1507.72 Q1188.85 1512.3 1183.04 1512.3 Q1177.23 1512.3 1174.15 1507.72 Q1171.09 1503.11 1171.09 1494.39 Q1171.09 1485.64 1174.15 1481.05 Q1177.23 1476.45 1183.04 1476.45 Z" fill="#000000" fill-rule="evenodd" fill-opacity="1" /><path clip-path="url(#clip840)" d="M1213.2 1480.15 Q1209.59 1480.15 1207.76 1483.72 Q1205.95 1487.26 1205.95 1494.39 Q1205.95 1501.49 1207.76 1505.06 Q1209.59 1508.6 1213.2 1508.6 Q1216.83 1508.6 1218.64 1505.06 Q1220.47 1501.49 1220.47 1494.39 Q1220.47 1487.26 1218.64 1483.72 Q1216.83 1480.15 1213.2 1480.15 M1213.2 1476.45 Q1219.01 1476.45 1222.07 1481.05 Q1225.14 1485.64 1225.14 1494.39 Q1225.14 1503.11 1222.07 1507.72 Q1219.01 1512.3 1213.2 1512.3 Q1207.39 1512.3 1204.31 1507.72 Q1201.26 1503.11 1201.26 1494.39 Q1201.26 1485.64 1204.31 1481.05 Q1207.39 1476.45 1213.2 1476.45 Z" fill="#000000" fill-rule="evenodd" fill-opacity="1" /><path clip-path="url(#clip840)" d="M1612.71 1481.15 L1600.91 1499.6 L1612.71 1499.6 L1612.71 1481.15 M1611.49 1477.07 L1617.37 1477.07 L1617.37 1499.6 L1622.3 1499.6 L1622.3 1503.48 L1617.37 1503.48 L1617.37 1511.63 L1612.71 1511.63 L1612.71 1503.48 L1597.11 1503.48 L1597.11 1498.97 L1611.49 1477.07 Z" fill="#000000" fill-rule="evenodd" fill-opacity="1" /><path clip-path="url(#clip840)" d="M1630.07 1477.07 L1648.43 1477.07 L1648.43 1481.01 L1634.36 1481.01 L1634.36 1489.48 Q1635.38 1489.13 1636.39 1488.97 Q1637.41 1488.79 1638.43 1488.79 Q1644.22 1488.79 1647.6 1491.96 Q1650.98 1495.13 1650.98 1500.54 Q1650.98 1506.12 1647.5 1509.22 Q1644.03 1512.3 1637.71 1512.3 Q1635.54 1512.3 1633.27 1511.93 Q1631.02 1511.56 1628.62 1510.82 L1628.62 1506.12 Q1630.7 1507.26 1632.92 1507.81 Q1635.14 1508.37 1637.62 1508.37 Q1641.63 1508.37 1643.96 1506.26 Q1646.3 1504.16 1646.3 1500.54 Q1646.3 1496.93 1643.96 1494.83 Q1641.63 1492.72 1637.62 1492.72 Q1635.75 1492.72 1633.87 1493.14 Q1632.02 1493.55 1630.07 1494.43 L1630.07 1477.07 Z" fill="#000000" fill-rule="evenodd" fill-opacity="1" /><path clip-path="url(#clip840)" d="M1670.19 1480.15 Q1666.58 1480.15 1664.75 1483.72 Q1662.94 1487.26 1662.94 1494.39 Q1662.94 1501.49 1664.75 1505.06 Q1666.58 1508.6 1670.19 1508.6 Q1673.82 1508.6 1675.63 1505.06 Q1677.46 1501.49 1677.46 1494.39 Q1677.46 1487.26 1675.63 1483.72 Q1673.82 1480.15 1670.19 1480.15 M1670.19 1476.45 Q1676 1476.45 1679.06 1481.05 Q1682.13 1485.64 1682.13 1494.39 Q1682.13 1503.11 1679.06 1507.72 Q1676 1512.3 1670.19 1512.3 Q1664.38 1512.3 1661.3 1507.72 Q1658.25 1503.11 1658.25 1494.39 Q1658.25 1485.64 1661.3 1481.05 Q1664.38 1476.45 1670.19 1476.45 Z" fill="#000000" fill-rule="evenodd" fill-opacity="1" /><path clip-path="url(#clip840)" d="M2056.23 1477.07 L2074.59 1477.07 L2074.59 1481.01 L2060.51 1481.01 L2060.51 1489.48 Q2061.53 1489.13 2062.55 1488.97 Q2063.57 1488.79 2064.59 1488.79 Q2070.37 1488.79 2073.75 1491.96 Q2077.13 1495.13 2077.13 1500.54 Q2077.13 1506.12 2073.66 1509.22 Q2070.19 1512.3 2063.87 1512.3 Q2061.69 1512.3 2059.43 1511.93 Q2057.18 1511.56 2054.77 1510.82 L2054.77 1506.12 Q2056.86 1507.26 2059.08 1507.81 Q2061.3 1508.37 2063.78 1508.37 Q2067.78 1508.37 2070.12 1506.26 Q2072.46 1504.16 2072.46 1500.54 Q2072.46 1496.93 2070.12 1494.83 Q2067.78 1492.72 2063.78 1492.72 Q2061.9 1492.72 2060.03 1493.14 Q2058.18 1493.55 2056.23 1494.43 L2056.23 1477.07 Z" fill="#000000" fill-rule="evenodd" fill-opacity="1" /><path clip-path="url(#clip840)" d="M2096.35 1480.15 Q2092.74 1480.15 2090.91 1483.72 Q2089.1 1487.26 2089.1 1494.39 Q2089.1 1501.49 2090.91 1505.06 Q2092.74 1508.6 2096.35 1508.6 Q2099.98 1508.6 2101.79 1505.06 Q2103.62 1501.49 2103.62 1494.39 Q2103.62 1487.26 2101.79 1483.72 Q2099.98 1480.15 2096.35 1480.15 M2096.35 1476.45 Q2102.16 1476.45 2105.21 1481.05 Q2108.29 1485.64 2108.29 1494.39 Q2108.29 1503.11 2105.21 1507.72 Q2102.16 1512.3 2096.35 1512.3 Q2090.54 1512.3 2087.46 1507.72 Q2084.4 1503.11 2084.4 1494.39 Q2084.4 1485.64 2087.46 1481.05 Q2090.54 1476.45 2096.35 1476.45 Z" fill="#000000" fill-rule="evenodd" fill-opacity="1" /><path clip-path="url(#clip840)" d="M2126.51 1480.15 Q2122.9 1480.15 2121.07 1483.72 Q2119.26 1487.26 2119.26 1494.39 Q2119.26 1501.49 2121.07 1505.06 Q2122.9 1508.6 2126.51 1508.6 Q2130.14 1508.6 2131.95 1505.06 Q2133.78 1501.49 2133.78 1494.39 Q2133.78 1487.26 2131.95 1483.72 Q2130.14 1480.15 2126.51 1480.15 M2126.51 1476.45 Q2132.32 1476.45 2135.37 1481.05 Q2138.45 1485.64 2138.45 1494.39 Q2138.45 1503.11 2135.37 1507.72 Q2132.32 1512.3 2126.51 1512.3 Q2120.7 1512.3 2117.62 1507.72 Q2114.56 1503.11 2114.56 1494.39 Q2114.56 1485.64 2117.62 1481.05 Q2120.7 1476.45 2126.51 1476.45 Z" fill="#000000" fill-rule="evenodd" fill-opacity="1" /><path clip-path="url(#clip840)" d="M1311.3 1539.85 Q1311.3 1541.56 1310.18 1542.65 Q1309.08 1543.75 1307.66 1543.75 Q1306.44 1543.75 1305.8 1543.04 Q1305.15 1542.33 1305.15 1541.43 Q1305.15 1540.14 1306.15 1539.08 Q1307.15 1538.02 1308.6 1537.79 Q1307.54 1537.02 1305.83 1537.02 Q1303.03 1537.02 1300.55 1539.18 Q1299.45 1540.17 1298.26 1542.01 Q1297.07 1543.81 1296.84 1544.59 L1294.75 1553.18 Q1294.56 1554.15 1293.36 1558.79 Q1292.21 1563.39 1292.11 1563.59 Q1291.79 1564.49 1291.08 1564.97 Q1290.37 1565.46 1289.66 1565.46 Q1288.86 1565.46 1288.31 1564.97 Q1287.76 1564.49 1287.76 1563.65 Q1287.76 1563.52 1287.86 1563.04 Q1287.95 1562.56 1288.12 1561.88 Q1288.28 1561.2 1288.34 1560.82 L1292.17 1545.58 Q1292.88 1542.81 1293.04 1541.94 Q1293.24 1541.04 1293.24 1540.04 Q1293.24 1538.31 1292.69 1537.66 Q1292.14 1537.02 1291.17 1537.02 Q1289.5 1537.02 1288.41 1539.01 Q1287.31 1541.01 1286.38 1544.88 Q1286.09 1545.94 1285.89 1546.16 Q1285.73 1546.39 1285.25 1546.39 Q1284.44 1546.36 1284.44 1545.71 Q1284.44 1545.55 1284.7 1544.52 Q1284.96 1543.46 1285.44 1541.91 Q1285.96 1540.33 1286.51 1539.34 Q1286.83 1538.66 1287.12 1538.21 Q1287.41 1537.76 1287.99 1537.05 Q1288.57 1536.34 1289.44 1535.95 Q1290.31 1535.57 1291.37 1535.57 Q1293.69 1535.57 1295.33 1536.99 Q1297 1538.4 1297.39 1540.62 Q1298.2 1539.46 1299.19 1538.47 Q1300.19 1537.44 1302.03 1536.5 Q1303.86 1535.57 1305.83 1535.57 Q1308.28 1535.57 1309.79 1536.82 Q1311.3 1538.05 1311.3 1539.85 Z" fill="#000000" fill-rule="evenodd" fill-opacity="1" /><polyline clip-path="url(#clip840)" style="stroke:#000000; stroke-linecap:butt; stroke-linejoin:round; stroke-width:4; stroke-opacity:1; fill:none" points="
  245.574,1450.96 245.574,47.2441 
  "/>
<polyline clip-path="url(#clip840)" style="stroke:#000000; stroke-linecap:butt; stroke-linejoin:round; stroke-width:4; stroke-opacity:1; fill:none" points="
  245.574,1411.23 264.472,1411.23 
  "/>
<polyline clip-path="url(#clip840)" style="stroke:#000000; stroke-linecap:butt; stroke-linejoin:round; stroke-width:4; stroke-opacity:1; fill:none" points="
  245.574,1063.64 264.472,1063.64 
  "/>
<polyline clip-path="url(#clip840)" style="stroke:#000000; stroke-linecap:butt; stroke-linejoin:round; stroke-width:4; stroke-opacity:1; fill:none" points="
  245.574,716.039 264.472,716.039 
  "/>
<polyline clip-path="url(#clip840)" style="stroke:#000000; stroke-linecap:butt; stroke-linejoin:round; stroke-width:4; stroke-opacity:1; fill:none" points="
  245.574,368.442 264.472,368.442 
  "/>
<path clip-path="url(#clip840)" d="M122.237 1397.03 Q118.626 1397.03 116.797 1400.6 Q114.991 1404.14 114.991 1411.27 Q114.991 1418.37 116.797 1421.94 Q118.626 1425.48 122.237 1425.48 Q125.871 1425.48 127.676 1421.94 Q129.505 1418.37 129.505 1411.27 Q129.505 1404.14 127.676 1400.6 Q125.871 1397.03 122.237 1397.03 M122.237 1393.33 Q128.047 1393.33 131.102 1397.93 Q134.181 1402.52 134.181 1411.27 Q134.181 1419.99 131.102 1424.6 Q128.047 1429.18 122.237 1429.18 Q116.426 1429.18 113.348 1424.6 Q110.292 1419.99 110.292 1411.27 Q110.292 1402.52 113.348 1397.93 Q116.426 1393.33 122.237 1393.33 Z" fill="#000000" fill-rule="evenodd" fill-opacity="1" /><path clip-path="url(#clip840)" d="M142.399 1422.63 L147.283 1422.63 L147.283 1428.51 L142.399 1428.51 L142.399 1422.63 Z" fill="#000000" fill-rule="evenodd" fill-opacity="1" /><path clip-path="url(#clip840)" d="M167.468 1397.03 Q163.857 1397.03 162.028 1400.6 Q160.223 1404.14 160.223 1411.27 Q160.223 1418.37 162.028 1421.94 Q163.857 1425.48 167.468 1425.48 Q171.102 1425.48 172.908 1421.94 Q174.736 1418.37 174.736 1411.27 Q174.736 1404.14 172.908 1400.6 Q171.102 1397.03 167.468 1397.03 M167.468 1393.33 Q173.278 1393.33 176.334 1397.93 Q179.412 1402.52 179.412 1411.27 Q179.412 1419.99 176.334 1424.6 Q173.278 1429.18 167.468 1429.18 Q161.658 1429.18 158.579 1424.6 Q155.523 1419.99 155.523 1411.27 Q155.523 1402.52 158.579 1397.93 Q161.658 1393.33 167.468 1393.33 Z" fill="#000000" fill-rule="evenodd" fill-opacity="1" /><path clip-path="url(#clip840)" d="M197.63 1397.03 Q194.019 1397.03 192.19 1400.6 Q190.384 1404.14 190.384 1411.27 Q190.384 1418.37 192.19 1421.94 Q194.019 1425.48 197.63 1425.48 Q201.264 1425.48 203.07 1421.94 Q204.898 1418.37 204.898 1411.27 Q204.898 1404.14 203.07 1400.6 Q201.264 1397.03 197.63 1397.03 M197.63 1393.33 Q203.44 1393.33 206.495 1397.93 Q209.574 1402.52 209.574 1411.27 Q209.574 1419.99 206.495 1424.6 Q203.44 1429.18 197.63 1429.18 Q191.82 1429.18 188.741 1424.6 Q185.685 1419.99 185.685 1411.27 Q185.685 1402.52 188.741 1397.93 Q191.82 1393.33 197.63 1393.33 Z" fill="#000000" fill-rule="evenodd" fill-opacity="1" /><path clip-path="url(#clip840)" d="M123.463 1049.43 Q119.852 1049.43 118.024 1053 Q116.218 1056.54 116.218 1063.67 Q116.218 1070.78 118.024 1074.34 Q119.852 1077.88 123.463 1077.88 Q127.098 1077.88 128.903 1074.34 Q130.732 1070.78 130.732 1063.67 Q130.732 1056.54 128.903 1053 Q127.098 1049.43 123.463 1049.43 M123.463 1045.73 Q129.274 1045.73 132.329 1050.34 Q135.408 1054.92 135.408 1063.67 Q135.408 1072.4 132.329 1077 Q129.274 1081.59 123.463 1081.59 Q117.653 1081.59 114.575 1077 Q111.519 1072.4 111.519 1063.67 Q111.519 1054.92 114.575 1050.34 Q117.653 1045.73 123.463 1045.73 Z" fill="#000000" fill-rule="evenodd" fill-opacity="1" /><path clip-path="url(#clip840)" d="M143.625 1075.04 L148.51 1075.04 L148.51 1080.92 L143.625 1080.92 L143.625 1075.04 Z" fill="#000000" fill-rule="evenodd" fill-opacity="1" /><path clip-path="url(#clip840)" d="M168.695 1049.43 Q165.084 1049.43 163.255 1053 Q161.449 1056.54 161.449 1063.67 Q161.449 1070.78 163.255 1074.34 Q165.084 1077.88 168.695 1077.88 Q172.329 1077.88 174.134 1074.34 Q175.963 1070.78 175.963 1063.67 Q175.963 1056.54 174.134 1053 Q172.329 1049.43 168.695 1049.43 M168.695 1045.73 Q174.505 1045.73 177.56 1050.34 Q180.639 1054.92 180.639 1063.67 Q180.639 1072.4 177.56 1077 Q174.505 1081.59 168.695 1081.59 Q162.885 1081.59 159.806 1077 Q156.75 1072.4 156.75 1063.67 Q156.75 1054.92 159.806 1050.34 Q162.885 1045.73 168.695 1045.73 Z" fill="#000000" fill-rule="evenodd" fill-opacity="1" /><path clip-path="url(#clip840)" d="M189.667 1076.98 L197.306 1076.98 L197.306 1050.61 L188.996 1052.28 L188.996 1048.02 L197.259 1046.36 L201.935 1046.36 L201.935 1076.98 L209.574 1076.98 L209.574 1080.92 L189.667 1080.92 L189.667 1076.98 Z" fill="#000000" fill-rule="evenodd" fill-opacity="1" /><path clip-path="url(#clip840)" d="M123.834 701.837 Q120.223 701.837 118.394 705.402 Q116.589 708.944 116.589 716.073 Q116.589 723.18 118.394 726.745 Q120.223 730.286 123.834 730.286 Q127.468 730.286 129.274 726.745 Q131.102 723.18 131.102 716.073 Q131.102 708.944 129.274 705.402 Q127.468 701.837 123.834 701.837 M123.834 698.134 Q129.644 698.134 132.7 702.74 Q135.778 707.323 135.778 716.073 Q135.778 724.8 132.7 729.407 Q129.644 733.99 123.834 733.99 Q118.024 733.99 114.945 729.407 Q111.889 724.8 111.889 716.073 Q111.889 707.323 114.945 702.74 Q118.024 698.134 123.834 698.134 Z" fill="#000000" fill-rule="evenodd" fill-opacity="1" /><path clip-path="url(#clip840)" d="M143.996 727.439 L148.88 727.439 L148.88 733.319 L143.996 733.319 L143.996 727.439 Z" fill="#000000" fill-rule="evenodd" fill-opacity="1" /><path clip-path="url(#clip840)" d="M169.065 701.837 Q165.454 701.837 163.625 705.402 Q161.82 708.944 161.82 716.073 Q161.82 723.18 163.625 726.745 Q165.454 730.286 169.065 730.286 Q172.699 730.286 174.505 726.745 Q176.334 723.18 176.334 716.073 Q176.334 708.944 174.505 705.402 Q172.699 701.837 169.065 701.837 M169.065 698.134 Q174.875 698.134 177.931 702.74 Q181.009 707.323 181.009 716.073 Q181.009 724.8 177.931 729.407 Q174.875 733.99 169.065 733.99 Q163.255 733.99 160.176 729.407 Q157.121 724.8 157.121 716.073 Q157.121 707.323 160.176 702.74 Q163.255 698.134 169.065 698.134 Z" fill="#000000" fill-rule="evenodd" fill-opacity="1" /><path clip-path="url(#clip840)" d="M193.255 729.384 L209.574 729.384 L209.574 733.319 L187.63 733.319 L187.63 729.384 Q190.292 726.629 194.875 721.999 Q199.482 717.347 200.662 716.004 Q202.907 713.481 203.787 711.745 Q204.69 709.985 204.69 708.296 Q204.69 705.541 202.745 703.805 Q200.824 702.069 197.722 702.069 Q195.523 702.069 193.07 702.833 Q190.639 703.597 187.861 705.148 L187.861 700.425 Q190.685 699.291 193.139 698.712 Q195.593 698.134 197.63 698.134 Q203 698.134 206.195 700.819 Q209.389 703.504 209.389 707.995 Q209.389 710.124 208.579 712.046 Q207.792 713.944 205.685 716.536 Q205.107 717.208 202.005 720.425 Q198.903 723.62 193.255 729.384 Z" fill="#000000" fill-rule="evenodd" fill-opacity="1" /><path clip-path="url(#clip840)" d="M122.885 354.241 Q119.274 354.241 117.445 357.805 Q115.639 361.347 115.639 368.477 Q115.639 375.583 117.445 379.148 Q119.274 382.689 122.885 382.689 Q126.519 382.689 128.325 379.148 Q130.153 375.583 130.153 368.477 Q130.153 361.347 128.325 357.805 Q126.519 354.241 122.885 354.241 M122.885 350.537 Q128.695 350.537 131.75 355.143 Q134.829 359.727 134.829 368.477 Q134.829 377.203 131.75 381.81 Q128.695 386.393 122.885 386.393 Q117.075 386.393 113.996 381.81 Q110.94 377.203 110.94 368.477 Q110.94 359.727 113.996 355.143 Q117.075 350.537 122.885 350.537 Z" fill="#000000" fill-rule="evenodd" fill-opacity="1" /><path clip-path="url(#clip840)" d="M143.047 379.842 L147.931 379.842 L147.931 385.722 L143.047 385.722 L143.047 379.842 Z" fill="#000000" fill-rule="evenodd" fill-opacity="1" /><path clip-path="url(#clip840)" d="M168.116 354.241 Q164.505 354.241 162.676 357.805 Q160.871 361.347 160.871 368.477 Q160.871 375.583 162.676 379.148 Q164.505 382.689 168.116 382.689 Q171.75 382.689 173.556 379.148 Q175.384 375.583 175.384 368.477 Q175.384 361.347 173.556 357.805 Q171.75 354.241 168.116 354.241 M168.116 350.537 Q173.926 350.537 176.982 355.143 Q180.06 359.727 180.06 368.477 Q180.06 377.203 176.982 381.81 Q173.926 386.393 168.116 386.393 Q162.306 386.393 159.227 381.81 Q156.172 377.203 156.172 368.477 Q156.172 359.727 159.227 355.143 Q162.306 350.537 168.116 350.537 Z" fill="#000000" fill-rule="evenodd" fill-opacity="1" /><path clip-path="url(#clip840)" d="M202.445 367.088 Q205.801 367.805 207.676 370.074 Q209.574 372.342 209.574 375.676 Q209.574 380.791 206.056 383.592 Q202.537 386.393 196.056 386.393 Q193.88 386.393 191.565 385.953 Q189.273 385.537 186.82 384.68 L186.82 380.166 Q188.764 381.301 191.079 381.879 Q193.394 382.458 195.917 382.458 Q200.315 382.458 202.607 380.722 Q204.921 378.986 204.921 375.676 Q204.921 372.62 202.769 370.907 Q200.639 369.171 196.82 369.171 L192.792 369.171 L192.792 365.328 L197.005 365.328 Q200.454 365.328 202.282 363.963 Q204.111 362.574 204.111 359.981 Q204.111 357.319 202.213 355.907 Q200.338 354.472 196.82 354.472 Q194.898 354.472 192.699 354.889 Q190.5 355.305 187.861 356.185 L187.861 352.018 Q190.523 351.278 192.838 350.907 Q195.176 350.537 197.236 350.537 Q202.56 350.537 205.662 352.967 Q208.764 355.375 208.764 359.495 Q208.764 362.365 207.12 364.356 Q205.477 366.324 202.445 367.088 Z" fill="#000000" fill-rule="evenodd" fill-opacity="1" /><path clip-path="url(#clip840)" d="M29.3925 768.435 Q32.9996 768.435 36.3168 771.108 Q39.634 773.749 41.663 778.065 Q43.6597 782.348 43.6597 786.953 L43.6597 798.161 L60.1491 802.251 Q60.2458 802.283 60.6644 802.38 Q61.0509 802.477 61.2763 802.477 Q62.0815 802.477 62.2747 801.478 Q62.468 800.448 62.468 798.161 Q62.468 796.68 62.7256 796.454 Q62.8866 796.325 63.1765 796.325 Q63.6274 796.325 63.9494 796.454 Q64.2393 796.583 64.3359 796.841 Q64.4325 797.066 64.4647 797.227 Q64.4969 797.388 64.4969 797.646 Q64.4969 798.322 64.4325 799.771 Q64.3681 801.188 64.3681 801.929 L64.3037 806.148 L64.4969 814.522 Q64.4969 815.52 63.6918 815.52 Q63.0799 815.52 62.8222 815.262 Q62.5324 815.005 62.5002 814.715 Q62.468 814.425 62.468 813.684 Q62.468 812.074 62.3713 811.108 Q62.2747 810.142 62.1459 809.53 Q61.9849 808.886 61.534 808.564 Q61.0831 808.209 60.6966 808.048 Q60.278 807.887 59.344 807.662 L23.9175 798.837 Q22.8547 798.58 22.6937 798.58 Q22.1462 798.58 21.953 798.902 Q21.7275 799.192 21.6309 800.029 Q21.5021 801.639 21.5021 802.863 Q21.5021 803.668 21.4699 803.99 Q21.4377 804.28 21.2767 804.538 Q21.0834 804.763 20.697 804.763 Q20.085 804.763 19.8274 804.506 Q19.5375 804.216 19.5053 803.894 Q19.4409 803.572 19.4409 802.799 L19.4409 781.414 Q19.4409 775.263 22.3717 771.849 Q25.3024 768.435 29.3925 768.435 M27.8145 774.554 Q21.5021 774.554 21.5021 783.54 L21.5021 789.852 Q21.5021 791.945 21.8886 792.461 Q22.2428 792.976 24.0142 793.427 L41.9528 797.903 L41.9528 788.596 Q41.9528 782.348 38.4424 778.451 Q36.8321 776.68 33.4827 775.617 Q30.1333 774.554 27.8145 774.554 Z" fill="#000000" fill-rule="evenodd" fill-opacity="1" /><path clip-path="url(#clip840)" d="M48.0075 761.197 Q36.8643 761.197 27.8789 757.043 Q24.1108 755.272 20.9546 752.792 Q17.7984 750.312 16.4136 748.669 Q15.0287 747.027 15.0287 746.576 Q15.0287 745.932 15.6728 745.9 Q15.9949 745.9 16.8 746.769 Q27.6212 757.397 48.0075 757.365 Q68.4582 757.365 78.8607 747.027 Q79.9879 745.9 80.3422 745.9 Q80.9863 745.9 80.9863 746.576 Q80.9863 747.027 79.6659 748.605 Q78.3454 750.183 75.3181 752.631 Q72.2907 755.078 68.5871 756.85 Q59.6016 761.197 48.0075 761.197 Z" fill="#000000" fill-rule="evenodd" fill-opacity="1" /><path clip-path="url(#clip840)" d="M39.634 714.026 Q41.3409 714.026 42.4359 715.154 Q43.5309 716.249 43.5309 717.666 Q43.5309 718.889 42.8224 719.534 Q42.1139 720.178 41.2121 720.178 Q39.9239 720.178 38.8611 719.179 Q37.7983 718.181 37.5728 716.732 Q36.7999 717.794 36.7999 719.501 Q36.7999 722.303 38.9577 724.783 Q39.9561 725.878 41.7918 727.07 Q43.5953 728.261 44.3683 728.487 L52.9672 730.58 Q53.9334 730.773 58.571 731.965 Q63.1765 733.124 63.3697 733.221 Q64.2715 733.543 64.7546 734.252 Q65.2377 734.96 65.2377 735.669 Q65.2377 736.474 64.7546 737.021 Q64.2715 737.569 63.4341 737.569 Q63.3053 737.569 62.8222 737.472 Q62.3391 737.376 61.6628 737.215 Q60.9865 737.054 60.6 736.989 L45.3666 733.157 Q42.5969 732.448 41.7274 732.287 Q40.8256 732.094 39.8272 732.094 Q38.0881 732.094 37.444 732.641 Q36.7999 733.189 36.7999 734.155 Q36.7999 735.83 38.7967 736.925 Q40.7934 738.02 44.6581 738.954 Q45.7209 739.244 45.9464 739.437 Q46.1718 739.598 46.1718 740.081 Q46.1396 740.886 45.4955 740.886 Q45.3344 740.886 44.3039 740.628 Q43.2411 740.371 41.6952 739.888 Q40.1171 739.372 39.1187 738.825 Q38.4424 738.503 37.9915 738.213 Q37.5406 737.923 36.8321 737.343 Q36.1236 736.764 35.7371 735.894 Q35.3506 735.025 35.3506 733.962 Q35.3506 731.643 36.7677 730 Q38.1847 728.326 40.4069 727.939 Q39.2475 727.134 38.2492 726.136 Q37.2186 725.137 36.2846 723.302 Q35.3506 721.466 35.3506 719.501 Q35.3506 717.054 36.6067 715.54 Q37.8305 714.026 39.634 714.026 Z" fill="#000000" fill-rule="evenodd" fill-opacity="1" /><path clip-path="url(#clip840)" d="M80.3422 708.012 Q80.0202 708.012 79.215 707.174 Q68.3938 696.546 48.0075 696.546 Q27.5568 696.546 17.2187 706.756 Q16.0271 708.012 15.6728 708.012 Q15.0287 708.012 15.0287 707.368 Q15.0287 706.917 16.3492 705.339 Q17.6696 703.728 20.697 701.313 Q23.7243 698.865 27.428 697.062 Q36.4134 692.714 48.0075 692.714 Q59.1508 692.714 68.1362 696.868 Q71.9043 698.64 75.0605 701.12 Q78.2166 703.6 79.6015 705.242 Q80.9863 706.885 80.9863 707.368 Q80.9863 708.012 80.3422 708.012 Z" fill="#000000" fill-rule="evenodd" fill-opacity="1" /><polyline clip-path="url(#clip842)" style="stroke:#009fe3; stroke-linecap:butt; stroke-linejoin:round; stroke-width:20; stroke-opacity:0.996078; fill:none" points="
  305.211,1411.23 305.211,1411.23 309.781,1411.23 309.781,1411.23 314.351,1411.23 314.351,1411.22 318.921,1411.22 318.921,1411.23 323.491,1411.23 
  328.061,1411.23 332.631,1411.23 332.631,1411.21 337.201,1411.21 337.201,1411.23 341.771,1411.23 341.771,1411.22 346.34,1411.22 346.34,1411.23 
  350.91,1411.23 350.91,1411.23 355.48,1411.23 355.48,1411.23 360.05,1411.23 360.05,1411.21 364.62,1411.21 364.62,1411.23 369.19,1411.23 
  373.76,1411.23 378.33,1411.23 378.33,1411.2 382.9,1411.2 382.9,1411.23 387.47,1411.23 387.47,1411.21 392.039,1411.21 392.039,1411.23 
  396.609,1411.23 396.609,1411.17 401.179,1411.17 401.179,1411.23 405.749,1411.23 405.749,1411.19 410.319,1411.19 410.319,1411.23 414.889,1411.23 414.889,1411.17 
  419.459,1411.17 419.459,1411.23 424.029,1411.23 424.029,1411.16 428.599,1411.16 428.599,1411.23 433.169,1411.23 433.169,1411.11 437.738,1411.11 437.738,1411.23 
  442.308,1411.23 442.308,1411.14 446.878,1411.14 446.878,1411.23 451.448,1411.23 451.448,1411.04 456.018,1411.04 456.018,1411.23 460.588,1411.23 460.588,1411 
  465.158,1411 465.158,1411.23 469.728,1411.23 469.728,1410.98 474.298,1410.98 474.298,1411.23 478.868,1411.23 478.868,1410.86 483.438,1410.86 483.438,1411.23 
  488.007,1411.23 488.007,1410.93 492.577,1410.93 492.577,1411.23 497.147,1411.23 497.147,1410.78 501.717,1410.78 501.717,1411.23 506.287,1411.23 506.287,1410.62 
  510.857,1410.62 510.857,1411.23 515.427,1411.23 515.427,1410.52 519.997,1410.52 519.997,1411.23 524.567,1411.23 524.567,1410.42 529.137,1410.42 529.137,1411.23 
  533.706,1411.23 533.706,1410.18 538.276,1410.18 538.276,1411.23 542.846,1411.23 542.846,1410.03 547.416,1410.03 547.416,1411.23 551.986,1411.23 551.986,1409.42 
  556.556,1409.42 556.556,1411.23 561.126,1411.23 561.126,1409.41 565.696,1409.41 565.696,1411.23 570.266,1411.23 570.266,1408.84 574.836,1408.84 574.836,1411.23 
  579.405,1411.23 579.405,1408.47 583.975,1408.47 583.975,1411.23 588.545,1411.23 588.545,1408.1 593.115,1408.1 593.115,1411.23 597.685,1411.23 597.685,1407.47 
  602.255,1407.47 602.255,1411.23 606.825,1411.23 606.825,1406.48 611.395,1406.48 611.395,1411.23 615.965,1411.23 615.965,1405.73 620.535,1405.73 620.535,1411.23 
  625.104,1411.23 625.104,1405.05 629.674,1405.05 629.674,1411.23 634.244,1411.23 634.244,1403.68 638.814,1403.68 638.814,1411.23 643.384,1411.23 643.384,1401.99 
  647.954,1401.99 647.954,1411.23 652.524,1411.23 652.524,1400.26 657.094,1400.26 657.094,1411.23 661.664,1411.23 661.664,1399.44 666.234,1399.44 666.234,1411.23 
  670.803,1411.23 670.803,1396.88 675.373,1396.88 675.373,1411.23 679.943,1411.23 679.943,1394.46 684.513,1394.46 684.513,1411.23 689.083,1411.23 689.083,1392.32 
  693.653,1392.32 693.653,1411.23 698.223,1411.23 698.223,1388.54 702.793,1388.54 702.793,1411.23 707.363,1411.23 707.363,1385.19 711.933,1385.19 711.933,1411.23 
  716.503,1411.23 716.503,1382.52 721.072,1382.52 721.072,1411.23 725.642,1411.23 725.642,1377.27 730.212,1377.27 730.212,1411.23 734.782,1411.23 734.782,1373.56 
  739.352,1373.56 739.352,1411.23 743.922,1411.23 743.922,1367.57 748.492,1367.57 748.492,1411.23 753.062,1411.23 753.062,1360.41 757.632,1360.41 757.632,1411.23 
  762.202,1411.23 762.202,1353.68 766.771,1353.68 766.771,1411.23 771.341,1411.23 771.341,1346.84 775.911,1346.84 775.911,1411.23 780.481,1411.23 780.481,1337.75 
  785.051,1337.75 785.051,1411.23 789.621,1411.23 789.621,1328.31 794.191,1328.31 794.191,1411.23 798.761,1411.23 798.761,1317.74 803.331,1317.74 803.331,1411.23 
  807.901,1411.23 807.901,1307.5 812.47,1307.5 812.47,1411.23 817.04,1411.23 817.04,1295.95 821.61,1295.95 821.61,1411.23 826.18,1411.23 826.18,1283.8 
  830.75,1283.8 830.75,1411.23 835.32,1411.23 835.32,1267.17 839.89,1267.17 839.89,1411.23 844.46,1411.23 844.46,1251.09 849.03,1251.09 849.03,1411.23 
  853.6,1411.23 853.6,1234.67 858.169,1234.67 858.169,1411.23 862.739,1411.23 862.739,1220.44 867.309,1220.44 867.309,1411.23 871.879,1411.23 871.879,1198.26 
  876.449,1198.26 876.449,1411.23 881.019,1411.23 881.019,1178.84 885.589,1178.84 885.589,1411.23 890.159,1411.23 890.159,1156.22 894.729,1156.22 894.729,1411.23 
  899.299,1411.23 899.299,1132.71 903.868,1132.71 903.868,1411.23 908.438,1411.23 908.438,1107.55 913.008,1107.55 913.008,1411.23 917.578,1411.23 917.578,1083.46 
  922.148,1083.46 922.148,1411.23 926.718,1411.23 926.718,1053.38 931.288,1053.38 931.288,1411.23 935.858,1411.23 935.858,1026.59 940.428,1026.59 940.428,1411.23 
  944.998,1411.23 944.998,992.9 949.568,992.9 949.568,1411.23 954.137,1411.23 954.137,963.938 958.707,963.938 958.707,1411.23 963.277,1411.23 963.277,928.08 
  967.847,928.08 967.847,1411.23 972.417,1411.23 972.417,898.305 976.987,898.305 976.987,1411.23 981.557,1411.23 981.557,863.468 986.127,863.468 986.127,1411.23 
  990.697,1411.23 990.697,825.838 995.267,825.838 995.267,1411.23 999.836,1411.23 999.836,790.237 1004.41,790.237 1004.41,1411.23 1008.98,1411.23 1008.98,753.489 
  1013.55,753.489 1013.55,1411.23 1018.12,1411.23 1018.12,711.645 1022.69,711.645 1022.69,1411.23 1027.26,1411.23 1027.26,674.904 1031.83,674.904 1031.83,1411.23 
  1036.4,1411.23 1036.4,636.272 1040.97,636.272 1040.97,1411.23 1045.54,1411.23 1045.54,594.067 1050.11,594.067 1050.11,1411.23 1054.68,1411.23 1054.68,557.639 
  1059.25,557.639 1059.25,1411.23 1063.82,1411.23 1063.82,519.904 1068.38,519.904 1068.38,1411.23 1072.95,1411.23 1072.95,478.067 1077.52,478.067 1077.52,1411.23 
  1082.09,1411.23 1082.09,442.39 1086.66,442.39 1086.66,1411.23 1091.23,1411.23 1091.23,403.285 1095.8,403.285 1095.8,1411.23 1100.37,1411.23 1100.37,371.438 
  1104.94,371.438 1104.94,1411.23 1109.51,1411.23 1109.51,337.979 1114.08,337.979 1114.08,1411.23 1118.65,1411.23 1118.65,309.462 1123.22,309.462 1123.22,1411.23 
  1127.79,1411.23 1127.79,269.787 1132.36,269.787 1132.36,1411.23 1136.93,1411.23 1136.93,243.808 1141.5,243.808 1141.5,1411.23 1146.07,1411.23 1146.07,215.763 
  1150.64,215.763 1150.64,1411.23 1155.21,1411.23 1155.21,199.009 1159.78,199.009 1159.78,1411.23 1164.35,1411.23 1164.35,170.896 1168.92,170.896 1168.92,1411.23 
  1173.49,1411.23 1173.49,154.023 1178.06,154.023 1178.06,1411.23 1182.63,1411.23 1182.63,131.541 1187.2,131.541 1187.2,1411.23 1191.77,1411.23 1191.77,115.767 
  1196.34,115.767 1196.34,1411.23 1200.91,1411.23 1200.91,105.721 1205.48,105.721 1205.48,1411.23 1210.05,1411.23 1210.05,95.9608 1214.62,95.9608 1214.62,1411.23 
  1219.19,1411.23 1219.19,95.8148 1223.76,95.8148 1223.76,1411.23 1228.33,1411.23 1228.33,86.9719 1232.9,86.9719 1232.9,1411.23 1237.47,1411.23 1237.47,88.2997 
  1242.04,88.2997 1242.04,1411.23 1246.61,1411.23 1246.61,90.8998 1251.18,90.8998 1251.18,1411.23 1255.75,1411.23 1255.75,99.2629 1260.32,99.2629 1260.32,1411.23 
  1264.89,1411.23 1264.89,102.183 1269.46,102.183 1269.46,1411.23 1274.03,1411.23 1274.03,123.789 1278.6,123.789 1278.6,1411.23 1283.17,1411.23 1283.17,135.705 
  1287.74,135.705 1287.74,1411.23 1292.31,1411.23 1292.31,148.99 1296.88,148.99 1296.88,1411.23 1301.45,1411.23 1301.45,173.899 1306.02,173.899 1306.02,1411.23 
  1310.59,1411.23 1310.59,199.885 1315.16,199.885 1315.16,1411.23 1319.73,1411.23 1319.73,223.48 1324.3,223.48 1324.3,1411.23 1328.87,1411.23 1328.87,241.576 
  1333.44,241.576 1333.44,1411.23 1338.01,1411.23 1338.01,268.424 1342.58,268.424 1342.58,1411.23 1347.15,1411.23 1347.15,308.857 1351.72,308.857 1351.72,1411.23 
  1356.29,1411.23 1356.29,327.717 1360.86,327.717 1360.86,1411.23 1365.43,1411.23 1365.43,373.322 1370,373.322 1370,1411.23 1374.57,1411.23 1374.57,401.707 
  1379.14,401.707 1379.14,1411.23 1383.71,1411.23 1383.71,438.469 1388.28,438.469 1388.28,1411.23 1392.85,1411.23 1392.85,473.993 1397.42,473.993 1397.42,1411.23 
  1401.99,1411.23 1401.99,507.661 1406.56,507.661 1406.56,1411.23 1411.13,1411.23 1411.13,550.033 1415.7,550.033 1415.7,1411.23 1420.27,1411.23 1420.27,587.233 
  1424.84,587.233 1424.84,1411.23 1429.41,1411.23 1429.41,625.017 1433.98,625.017 1433.98,1411.23 1438.55,1411.23 1438.55,665.276 1443.12,665.276 1443.12,1411.23 
  1447.69,1411.23 1447.69,700.307 1452.26,700.307 1452.26,1411.23 1456.83,1411.23 1456.83,740.725 1461.4,740.725 1461.4,1411.23 1465.97,1411.23 1465.97,774.442 
  1470.54,774.442 1470.54,1411.23 1475.11,1411.23 1475.11,808.062 1479.68,808.062 1479.68,1411.23 1484.25,1411.23 1484.25,836.996 1488.82,836.996 1488.82,1411.23 
  1493.39,1411.23 1493.39,878.818 1497.96,878.818 1497.96,1411.23 1502.53,1411.23 1502.53,909.483 1507.1,909.483 1507.1,1411.23 1511.67,1411.23 1511.67,944.459 
  1516.24,944.459 1516.24,1411.23 1520.81,1411.23 1520.81,967.004 1525.38,967.004 1525.38,1411.23 1529.95,1411.23 1529.95,1001.53 1534.51,1001.53 1534.51,1411.23 
  1539.08,1411.23 1539.08,1028.38 1543.65,1028.38 1543.65,1411.23 1548.22,1411.23 1548.22,1057.57 1552.79,1057.57 1552.79,1411.23 1557.36,1411.23 1557.36,1082.6 
  1561.93,1082.6 1561.93,1411.23 1566.5,1411.23 1566.5,1109.16 1571.07,1109.16 1571.07,1411.23 1575.64,1411.23 1575.64,1132.52 1580.21,1132.52 1580.21,1411.23 
  1584.78,1411.23 1584.78,1151.56 1589.35,1151.56 1589.35,1411.23 1593.92,1411.23 1593.92,1174.36 1598.49,1174.36 1598.49,1411.23 1603.06,1411.23 1603.06,1194.71 
  1607.63,1194.71 1607.63,1411.23 1612.2,1411.23 1612.2,1212.42 1616.77,1212.42 1616.77,1411.23 1621.34,1411.23 1621.34,1230.29 1625.91,1230.29 1625.91,1411.23 
  1630.48,1411.23 1630.48,1247.02 1635.05,1247.02 1635.05,1411.23 1639.62,1411.23 1639.62,1261.43 1644.19,1261.43 1644.19,1411.23 1648.76,1411.23 1648.76,1274.98 
  1653.33,1274.98 1653.33,1411.23 1657.9,1411.23 1657.9,1286.55 1662.47,1286.55 1662.47,1411.23 1667.04,1411.23 1667.04,1299.98 1671.61,1299.98 1671.61,1411.23 
  1676.18,1411.23 1676.18,1310.2 1680.75,1310.2 1680.75,1411.23 1685.32,1411.23 1685.32,1321.64 1689.89,1321.64 1689.89,1411.23 1694.46,1411.23 1694.46,1327.95 
  1699.03,1327.95 1699.03,1411.23 1703.6,1411.23 1703.6,1338.51 1708.17,1338.51 1708.17,1411.23 1712.74,1411.23 1712.74,1345.88 1717.31,1345.88 1717.31,1411.23 
  1721.88,1411.23 1721.88,1351.27 1726.45,1351.27 1726.45,1411.23 1731.02,1411.23 1731.02,1358.61 1735.59,1358.61 1735.59,1411.23 1740.16,1411.23 1740.16,1364.26 
  1744.73,1364.26 1744.73,1411.23 1749.3,1411.23 1749.3,1369.54 1753.87,1369.54 1753.87,1411.23 1758.44,1411.23 1758.44,1374.77 1763.01,1374.77 1763.01,1411.23 
  1767.58,1411.23 1767.58,1379.31 1772.15,1379.31 1772.15,1411.23 1776.72,1411.23 1776.72,1383.27 1781.29,1383.27 1781.29,1411.23 1785.86,1411.23 1785.86,1384.79 
  1790.43,1384.79 1790.43,1411.23 1795,1411.23 1795,1389.25 1799.57,1389.25 1799.57,1411.23 1804.14,1411.23 1804.14,1391.73 1808.71,1391.73 1808.71,1411.23 
  1813.28,1411.23 1813.28,1393.89 1817.85,1393.89 1817.85,1411.23 1822.42,1411.23 1822.42,1395.79 1826.99,1395.79 1826.99,1411.23 1831.56,1411.23 1831.56,1398.26 
  1836.13,1398.26 1836.13,1411.23 1840.7,1411.23 1840.7,1399.4 1845.27,1399.4 1845.27,1411.23 1849.84,1411.23 1849.84,1401.51 1854.41,1401.51 1854.41,1411.23 
  1858.98,1411.23 1858.98,1403.02 1863.55,1403.02 1863.55,1411.23 1868.12,1411.23 1868.12,1403.42 1872.69,1403.42 1872.69,1411.23 1877.26,1411.23 1877.26,1404.78 
  1881.83,1404.78 1881.83,1411.23 1886.4,1411.23 1886.4,1405.6 1890.97,1405.6 1890.97,1411.23 1895.54,1411.23 1895.54,1406.29 1900.11,1406.29 1900.11,1411.23 
  1904.68,1411.23 1904.68,1407.17 1909.25,1407.17 1909.25,1411.23 1913.82,1411.23 1913.82,1407.74 1918.39,1407.74 1918.39,1411.23 1922.96,1411.23 1922.96,1408.01 
  1927.53,1408.01 1927.53,1411.23 1932.1,1411.23 1932.1,1408.87 1936.67,1408.87 1936.67,1411.23 1941.24,1411.23 1941.24,1408.98 1945.81,1408.98 1945.81,1411.23 
  1950.38,1411.23 1950.38,1409.21 1954.95,1409.21 1954.95,1411.23 1959.52,1411.23 1959.52,1409.62 1964.09,1409.62 1964.09,1411.23 1968.66,1411.23 1968.66,1410.04 
  1973.23,1410.04 1973.23,1411.23 1977.8,1411.23 1977.8,1409.87 1982.37,1409.87 1982.37,1411.23 1986.94,1411.23 1986.94,1410.3 1991.51,1410.3 1991.51,1411.23 
  1996.08,1411.23 1996.08,1410.33 2000.64,1410.33 2000.64,1411.23 2005.21,1411.23 2005.21,1410.47 2009.78,1410.47 2009.78,1411.23 2014.35,1411.23 2014.35,1410.68 
  2018.92,1410.68 2018.92,1411.23 2023.49,1411.23 2023.49,1410.83 2028.06,1410.83 2028.06,1411.23 2032.63,1411.23 2032.63,1410.84 2037.2,1410.84 2037.2,1411.23 
  2041.77,1411.23 2041.77,1411 2046.34,1411 2046.34,1411.23 2050.91,1411.23 2050.91,1410.99 2055.48,1410.99 2055.48,1411.23 2060.05,1411.23 2060.05,1410.95 
  2064.62,1410.95 2064.62,1411.23 2069.19,1411.23 2069.19,1410.97 2073.76,1410.97 2073.76,1411.23 2078.33,1411.23 2078.33,1411.04 2082.9,1411.04 2082.9,1411.23 
  2087.47,1411.23 2087.47,1411.14 2092.04,1411.14 2092.04,1411.23 2096.61,1411.23 2096.61,1411.07 2101.18,1411.07 2101.18,1411.23 2105.75,1411.23 2105.75,1411.14 
  2110.32,1411.14 2110.32,1411.23 2114.89,1411.23 2114.89,1411.14 2119.46,1411.14 2119.46,1411.23 2124.03,1411.23 2124.03,1411.18 2128.6,1411.18 2128.6,1411.23 
  2133.17,1411.23 2133.17,1411.18 2137.74,1411.18 2137.74,1411.23 2142.31,1411.23 2142.31,1411.18 2146.88,1411.18 2146.88,1411.23 2151.45,1411.23 2151.45,1411.18 
  2156.02,1411.18 2156.02,1411.23 2160.59,1411.23 2160.59,1411.21 2165.16,1411.21 2165.16,1411.23 2169.73,1411.23 2169.73,1411.21 2174.3,1411.21 2174.3,1411.23 
  2178.87,1411.23 2178.87,1411.2 2183.44,1411.2 2183.44,1411.23 2188.01,1411.23 2188.01,1411.23 2192.58,1411.23 2192.58,1411.23 2197.15,1411.23 2197.15,1411.21 
  2201.72,1411.21 2201.72,1411.23 2206.29,1411.23 2206.29,1411.23 2210.86,1411.23 2210.86,1411.23 2215.43,1411.23 2215.43,1411.23 2220,1411.23 2220,1411.23 
  2224.57,1411.23 2229.14,1411.23 2233.71,1411.23 2233.71,1411.23 2238.28,1411.23 2238.28,1411.23 2242.85,1411.23 2242.85,1411.23 
  2247.42,1411.23 2247.42,1411.23 2251.99,1411.23 2251.99,1411.23 2256.56,1411.23 2256.56,1411.23 2261.13,1411.23 2265.7,1411.23 
  2270.27,1411.23 2274.84,1411.23 2279.41,1411.23 2283.98,1411.23 2288.55,1411.23 2288.55,1411.23 
  2293.12,1411.23 2293.12,1411.23 
  "/>
<circle clip-path="url(#clip842)" cx="305.211" cy="1411.23" r="14" fill="#ff00ff" fill-rule="evenodd" fill-opacity="1" stroke="none"/>
<circle clip-path="url(#clip842)" cx="396.609" cy="1411.21" r="14" fill="#ff00ff" fill-rule="evenodd" fill-opacity="1" stroke="none"/>
<circle clip-path="url(#clip842)" cx="488.007" cy="1411.04" r="14" fill="#ff00ff" fill-rule="evenodd" fill-opacity="1" stroke="none"/>
<circle clip-path="url(#clip842)" cx="579.405" cy="1409.87" r="14" fill="#ff00ff" fill-rule="evenodd" fill-opacity="1" stroke="none"/>
<circle clip-path="url(#clip842)" cx="670.803" cy="1404.07" r="14" fill="#ff00ff" fill-rule="evenodd" fill-opacity="1" stroke="none"/>
<circle clip-path="url(#clip842)" cx="762.202" cy="1382.61" r="14" fill="#ff00ff" fill-rule="evenodd" fill-opacity="1" stroke="none"/>
<circle clip-path="url(#clip842)" cx="853.6" cy="1323.25" r="14" fill="#ff00ff" fill-rule="evenodd" fill-opacity="1" stroke="none"/>
<circle clip-path="url(#clip842)" cx="944.998" cy="1201.61" r="14" fill="#ff00ff" fill-rule="evenodd" fill-opacity="1" stroke="none"/>
<circle clip-path="url(#clip842)" cx="1036.4" cy="1021.34" r="14" fill="#ff00ff" fill-rule="evenodd" fill-opacity="1" stroke="none"/>
<circle clip-path="url(#clip842)" cx="1127.79" cy="841.179" r="14" fill="#ff00ff" fill-rule="evenodd" fill-opacity="1" stroke="none"/>
<circle clip-path="url(#clip842)" cx="1219.19" cy="751.758" r="14" fill="#ff00ff" fill-rule="evenodd" fill-opacity="1" stroke="none"/>
<circle clip-path="url(#clip842)" cx="1310.59" cy="803.799" r="14" fill="#ff00ff" fill-rule="evenodd" fill-opacity="1" stroke="none"/>
<circle clip-path="url(#clip842)" cx="1401.99" cy="963.114" r="14" fill="#ff00ff" fill-rule="evenodd" fill-opacity="1" stroke="none"/>
<circle clip-path="url(#clip842)" cx="1493.39" cy="1144.96" r="14" fill="#ff00ff" fill-rule="evenodd" fill-opacity="1" stroke="none"/>
<circle clip-path="url(#clip842)" cx="1584.78" cy="1283.1" r="14" fill="#ff00ff" fill-rule="evenodd" fill-opacity="1" stroke="none"/>
<circle clip-path="url(#clip842)" cx="1676.18" cy="1361.04" r="14" fill="#ff00ff" fill-rule="evenodd" fill-opacity="1" stroke="none"/>
<circle clip-path="url(#clip842)" cx="1767.58" cy="1395.15" r="14" fill="#ff00ff" fill-rule="evenodd" fill-opacity="1" stroke="none"/>
<circle clip-path="url(#clip842)" cx="1858.98" cy="1407" r="14" fill="#ff00ff" fill-rule="evenodd" fill-opacity="1" stroke="none"/>
<circle clip-path="url(#clip842)" cx="1950.38" cy="1410.31" r="14" fill="#ff00ff" fill-rule="evenodd" fill-opacity="1" stroke="none"/>
<circle clip-path="url(#clip842)" cx="2041.77" cy="1411.07" r="14" fill="#ff00ff" fill-rule="evenodd" fill-opacity="1" stroke="none"/>
<circle clip-path="url(#clip842)" cx="2133.17" cy="1411.21" r="14" fill="#ff00ff" fill-rule="evenodd" fill-opacity="1" stroke="none"/>
<circle clip-path="url(#clip842)" cx="2224.57" cy="1411.23" r="14" fill="#ff00ff" fill-rule="evenodd" fill-opacity="1" stroke="none"/>
<path clip-path="url(#clip840)" d="
M1601.81 249.555 L2282.52 249.555 L2282.52 94.0346 L1601.81 94.0346  Z
  " fill="#ffffff" fill-rule="evenodd" fill-opacity="1"/>
<polyline clip-path="url(#clip840)" style="stroke:#000000; stroke-linecap:butt; stroke-linejoin:round; stroke-width:4; stroke-opacity:1; fill:none" points="
  1601.81,249.555 2282.52,249.555 2282.52,94.0346 1601.81,94.0346 1601.81,249.555 
  "/>
<polyline clip-path="url(#clip840)" style="stroke:#009fe3; stroke-linecap:butt; stroke-linejoin:round; stroke-width:4; stroke-opacity:0.996078; fill:none" points="
  1625.23,145.875 1765.71,145.875 
  "/>
<path clip-path="url(#clip840)" d="M1811.36 129.729 L1811.36 134.289 Q1808.7 133.016 1806.34 132.391 Q1803.98 131.766 1801.78 131.766 Q1797.96 131.766 1795.88 133.247 Q1793.82 134.729 1793.82 137.46 Q1793.82 139.752 1795.18 140.933 Q1796.57 142.09 1800.41 142.808 L1803.24 143.386 Q1808.47 144.382 1810.95 146.905 Q1813.45 149.405 1813.45 153.618 Q1813.45 158.641 1810.07 161.233 Q1806.71 163.826 1800.21 163.826 Q1797.75 163.826 1794.98 163.27 Q1792.22 162.715 1789.26 161.627 L1789.26 156.812 Q1792.1 158.409 1794.84 159.219 Q1797.57 160.03 1800.21 160.03 Q1804.21 160.03 1806.39 158.456 Q1808.56 156.882 1808.56 153.965 Q1808.56 151.419 1806.99 149.983 Q1805.44 148.548 1801.87 147.831 L1799.03 147.275 Q1793.79 146.233 1791.46 144.011 Q1789.12 141.789 1789.12 137.831 Q1789.12 133.247 1792.34 130.609 Q1795.58 127.97 1801.25 127.97 Q1803.68 127.97 1806.2 128.409 Q1808.72 128.849 1811.36 129.729 Z" fill="#000000" fill-rule="evenodd" fill-opacity="1" /><path clip-path="url(#clip840)" d="M1820.55 137.229 L1824.81 137.229 L1824.81 163.155 L1820.55 163.155 L1820.55 137.229 M1820.55 127.136 L1824.81 127.136 L1824.81 132.53 L1820.55 132.53 L1820.55 127.136 Z" fill="#000000" fill-rule="evenodd" fill-opacity="1" /><path clip-path="url(#clip840)" d="M1853.91 142.206 Q1855.51 139.335 1857.73 137.97 Q1859.95 136.604 1862.96 136.604 Q1867.01 136.604 1869.21 139.451 Q1871.41 142.275 1871.41 147.507 L1871.41 163.155 L1867.13 163.155 L1867.13 147.645 Q1867.13 143.919 1865.81 142.113 Q1864.49 140.308 1861.78 140.308 Q1858.47 140.308 1856.55 142.507 Q1854.63 144.706 1854.63 148.502 L1854.63 163.155 L1850.35 163.155 L1850.35 147.645 Q1850.35 143.895 1849.03 142.113 Q1847.71 140.308 1844.95 140.308 Q1841.69 140.308 1839.77 142.53 Q1837.85 144.729 1837.85 148.502 L1837.85 163.155 L1833.56 163.155 L1833.56 137.229 L1837.85 137.229 L1837.85 141.257 Q1839.3 138.872 1841.34 137.738 Q1843.38 136.604 1846.18 136.604 Q1849 136.604 1850.97 138.039 Q1852.96 139.474 1853.91 142.206 Z" fill="#000000" fill-rule="evenodd" fill-opacity="1" /><path clip-path="url(#clip840)" d="M1879.47 152.923 L1879.47 137.229 L1883.72 137.229 L1883.72 152.761 Q1883.72 156.442 1885.16 158.294 Q1886.59 160.122 1889.47 160.122 Q1892.91 160.122 1894.91 157.923 Q1896.92 155.724 1896.92 151.928 L1896.92 137.229 L1901.18 137.229 L1901.18 163.155 L1896.92 163.155 L1896.92 159.173 Q1895.37 161.534 1893.31 162.692 Q1891.27 163.826 1888.56 163.826 Q1884.09 163.826 1881.78 161.048 Q1879.47 158.27 1879.47 152.923 M1890.18 136.604 L1890.18 136.604 Z" fill="#000000" fill-rule="evenodd" fill-opacity="1" /><path clip-path="url(#clip840)" d="M1909.95 127.136 L1914.21 127.136 L1914.21 163.155 L1909.95 163.155 L1909.95 127.136 Z" fill="#000000" fill-rule="evenodd" fill-opacity="1" /><path clip-path="url(#clip840)" d="M1934.9 150.122 Q1929.74 150.122 1927.75 151.303 Q1925.76 152.483 1925.76 155.331 Q1925.76 157.599 1927.24 158.942 Q1928.75 160.261 1931.32 160.261 Q1934.86 160.261 1936.99 157.761 Q1939.14 155.238 1939.14 151.071 L1939.14 150.122 L1934.9 150.122 M1943.4 148.363 L1943.4 163.155 L1939.14 163.155 L1939.14 159.219 Q1937.68 161.581 1935.51 162.715 Q1933.33 163.826 1930.18 163.826 Q1926.2 163.826 1923.84 161.604 Q1921.5 159.358 1921.5 155.608 Q1921.5 151.233 1924.42 149.011 Q1927.36 146.789 1933.17 146.789 L1939.14 146.789 L1939.14 146.372 Q1939.14 143.433 1937.2 141.835 Q1935.28 140.215 1931.78 140.215 Q1929.56 140.215 1927.45 140.747 Q1925.34 141.28 1923.4 142.345 L1923.4 138.409 Q1925.74 137.507 1927.94 137.067 Q1930.14 136.604 1932.22 136.604 Q1937.84 136.604 1940.62 139.521 Q1943.4 142.437 1943.4 148.363 Z" fill="#000000" fill-rule="evenodd" fill-opacity="1" /><path clip-path="url(#clip840)" d="M1956.39 129.868 L1956.39 137.229 L1965.16 137.229 L1965.16 140.539 L1956.39 140.539 L1956.39 154.613 Q1956.39 157.784 1957.24 158.687 Q1958.12 159.59 1960.78 159.59 L1965.16 159.59 L1965.16 163.155 L1960.78 163.155 Q1955.85 163.155 1953.98 161.326 Q1952.1 159.474 1952.1 154.613 L1952.1 140.539 L1948.98 140.539 L1948.98 137.229 L1952.1 137.229 L1952.1 129.868 L1956.39 129.868 Z" fill="#000000" fill-rule="evenodd" fill-opacity="1" /><path clip-path="url(#clip840)" d="M1970.76 137.229 L1975.02 137.229 L1975.02 163.155 L1970.76 163.155 L1970.76 137.229 M1970.76 127.136 L1975.02 127.136 L1975.02 132.53 L1970.76 132.53 L1970.76 127.136 Z" fill="#000000" fill-rule="evenodd" fill-opacity="1" /><path clip-path="url(#clip840)" d="M1993.98 140.215 Q1990.55 140.215 1988.56 142.9 Q1986.57 145.562 1986.57 150.215 Q1986.57 154.868 1988.54 157.553 Q1990.53 160.215 1993.98 160.215 Q1997.38 160.215 1999.37 157.53 Q2001.36 154.844 2001.36 150.215 Q2001.36 145.608 1999.37 142.923 Q1997.38 140.215 1993.98 140.215 M1993.98 136.604 Q1999.53 136.604 2002.71 140.215 Q2005.88 143.826 2005.88 150.215 Q2005.88 156.581 2002.71 160.215 Q1999.53 163.826 1993.98 163.826 Q1988.4 163.826 1985.23 160.215 Q1982.08 156.581 1982.08 150.215 Q1982.08 143.826 1985.23 140.215 Q1988.4 136.604 1993.98 136.604 Z" fill="#000000" fill-rule="evenodd" fill-opacity="1" /><path clip-path="url(#clip840)" d="M2034.49 147.507 L2034.49 163.155 L2030.23 163.155 L2030.23 147.645 Q2030.23 143.965 2028.79 142.136 Q2027.36 140.308 2024.49 140.308 Q2021.04 140.308 2019.05 142.507 Q2017.06 144.706 2017.06 148.502 L2017.06 163.155 L2012.77 163.155 L2012.77 137.229 L2017.06 137.229 L2017.06 141.257 Q2018.58 138.919 2020.65 137.761 Q2022.73 136.604 2025.44 136.604 Q2029.9 136.604 2032.2 139.382 Q2034.49 142.136 2034.49 147.507 Z" fill="#000000" fill-rule="evenodd" fill-opacity="1" /><circle clip-path="url(#clip840)" cx="1695.47" cy="197.715" r="23" fill="#ff00ff" fill-rule="evenodd" fill-opacity="1" stroke="none"/>
<path clip-path="url(#clip840)" d="M1789.12 180.435 L1793.79 180.435 L1793.79 211.059 L1810.62 211.059 L1810.62 214.995 L1789.12 214.995 L1789.12 180.435 Z" fill="#000000" fill-rule="evenodd" fill-opacity="1" /><path clip-path="url(#clip840)" d="M1815.53 180.435 L1821.83 180.435 L1837.15 209.347 L1837.15 180.435 L1841.69 180.435 L1841.69 214.995 L1835.39 214.995 L1820.07 186.083 L1820.07 214.995 L1815.53 214.995 L1815.53 180.435 Z" fill="#000000" fill-rule="evenodd" fill-opacity="1" /><path clip-path="url(#clip840)" d="M1862.54 185.041 L1856.2 202.24 L1868.91 202.24 L1862.54 185.041 M1859.91 180.435 L1865.21 180.435 L1878.38 214.995 L1873.52 214.995 L1870.37 206.129 L1854.79 206.129 L1851.64 214.995 L1846.71 214.995 L1859.91 180.435 Z" fill="#000000" fill-rule="evenodd" fill-opacity="1" /><path clip-path="url(#clip840)" d="M1910.04 185.041 L1903.7 202.24 L1916.41 202.24 L1910.04 185.041 M1907.4 180.435 L1912.71 180.435 L1925.88 214.995 L1921.02 214.995 L1917.87 206.129 L1902.29 206.129 L1899.14 214.995 L1894.21 214.995 L1907.4 180.435 Z" fill="#000000" fill-rule="evenodd" fill-opacity="1" /><path clip-path="url(#clip840)" d="M1934.86 211.106 L1934.86 224.856 L1930.58 224.856 L1930.58 189.069 L1934.86 189.069 L1934.86 193.004 Q1936.2 190.689 1938.24 189.578 Q1940.3 188.444 1943.15 188.444 Q1947.87 188.444 1950.81 192.194 Q1953.77 195.944 1953.77 202.055 Q1953.77 208.166 1950.81 211.916 Q1947.87 215.666 1943.15 215.666 Q1940.3 215.666 1938.24 214.555 Q1936.2 213.421 1934.86 211.106 M1949.35 202.055 Q1949.35 197.356 1947.4 194.694 Q1945.48 192.009 1942.1 192.009 Q1938.72 192.009 1936.78 194.694 Q1934.86 197.356 1934.86 202.055 Q1934.86 206.754 1936.78 209.439 Q1938.72 212.101 1942.1 212.101 Q1945.48 212.101 1947.4 209.439 Q1949.35 206.754 1949.35 202.055 Z" fill="#000000" fill-rule="evenodd" fill-opacity="1" /><path clip-path="url(#clip840)" d="M1964.95 211.106 L1964.95 224.856 L1960.67 224.856 L1960.67 189.069 L1964.95 189.069 L1964.95 193.004 Q1966.29 190.689 1968.33 189.578 Q1970.39 188.444 1973.24 188.444 Q1977.96 188.444 1980.9 192.194 Q1983.86 195.944 1983.86 202.055 Q1983.86 208.166 1980.9 211.916 Q1977.96 215.666 1973.24 215.666 Q1970.39 215.666 1968.33 214.555 Q1966.29 213.421 1964.95 211.106 M1979.44 202.055 Q1979.44 197.356 1977.5 194.694 Q1975.58 192.009 1972.2 192.009 Q1968.82 192.009 1966.87 194.694 Q1964.95 197.356 1964.95 202.055 Q1964.95 206.754 1966.87 209.439 Q1968.82 212.101 1972.2 212.101 Q1975.58 212.101 1977.5 209.439 Q1979.44 206.754 1979.44 202.055 Z" fill="#000000" fill-rule="evenodd" fill-opacity="1" /><path clip-path="url(#clip840)" d="M2005.95 193.05 Q2005.23 192.634 2004.37 192.448 Q2003.54 192.24 2002.52 192.24 Q1998.91 192.24 1996.96 194.601 Q1995.04 196.939 1995.04 201.337 L1995.04 214.995 L1990.76 214.995 L1990.76 189.069 L1995.04 189.069 L1995.04 193.097 Q1996.39 190.736 1998.54 189.601 Q2000.69 188.444 2003.77 188.444 Q2004.21 188.444 2004.74 188.513 Q2005.27 188.56 2005.92 188.675 L2005.95 193.05 Z" fill="#000000" fill-rule="evenodd" fill-opacity="1" /><path clip-path="url(#clip840)" d="M2019.42 192.055 Q2015.99 192.055 2014 194.74 Q2012.01 197.402 2012.01 202.055 Q2012.01 206.708 2013.98 209.393 Q2015.97 212.055 2019.42 212.055 Q2022.82 212.055 2024.81 209.37 Q2026.8 206.684 2026.8 202.055 Q2026.8 197.448 2024.81 194.763 Q2022.82 192.055 2019.42 192.055 M2019.42 188.444 Q2024.97 188.444 2028.15 192.055 Q2031.32 195.666 2031.32 202.055 Q2031.32 208.421 2028.15 212.055 Q2024.97 215.666 2019.42 215.666 Q2013.84 215.666 2010.67 212.055 Q2007.52 208.421 2007.52 202.055 Q2007.52 195.666 2010.67 192.055 Q2013.84 188.444 2019.42 188.444 Z" fill="#000000" fill-rule="evenodd" fill-opacity="1" /><path clip-path="url(#clip840)" d="M2058.47 189.069 L2049.09 201.685 L2058.96 214.995 L2053.93 214.995 L2046.39 204.81 L2038.84 214.995 L2033.82 214.995 L2043.89 201.43 L2034.67 189.069 L2039.7 189.069 L2046.57 198.305 L2053.45 189.069 L2058.47 189.069 Z" fill="#000000" fill-rule="evenodd" fill-opacity="1" /><path clip-path="url(#clip840)" d="M2064.97 189.069 L2069.23 189.069 L2069.23 214.995 L2064.97 214.995 L2064.97 189.069 M2064.97 178.976 L2069.23 178.976 L2069.23 184.37 L2064.97 184.37 L2064.97 178.976 Z" fill="#000000" fill-rule="evenodd" fill-opacity="1" /><path clip-path="url(#clip840)" d="M2098.33 194.046 Q2099.93 191.175 2102.15 189.81 Q2104.37 188.444 2107.38 188.444 Q2111.43 188.444 2113.63 191.291 Q2115.83 194.115 2115.83 199.347 L2115.83 214.995 L2111.55 214.995 L2111.55 199.485 Q2111.55 195.759 2110.23 193.953 Q2108.91 192.148 2106.2 192.148 Q2102.89 192.148 2100.97 194.347 Q2099.05 196.546 2099.05 200.342 L2099.05 214.995 L2094.77 214.995 L2094.77 199.485 Q2094.77 195.735 2093.45 193.953 Q2092.13 192.148 2089.37 192.148 Q2086.11 192.148 2084.19 194.37 Q2082.27 196.569 2082.27 200.342 L2082.27 214.995 L2077.98 214.995 L2077.98 189.069 L2082.27 189.069 L2082.27 193.097 Q2083.72 190.712 2085.76 189.578 Q2087.8 188.444 2090.6 188.444 Q2093.42 188.444 2095.39 189.879 Q2097.38 191.314 2098.33 194.046 Z" fill="#000000" fill-rule="evenodd" fill-opacity="1" /><path clip-path="url(#clip840)" d="M2136.11 201.962 Q2130.95 201.962 2128.95 203.143 Q2126.96 204.323 2126.96 207.171 Q2126.96 209.439 2128.45 210.782 Q2129.95 212.101 2132.52 212.101 Q2136.06 212.101 2138.19 209.601 Q2140.34 207.078 2140.34 202.911 L2140.34 201.962 L2136.11 201.962 M2144.6 200.203 L2144.6 214.995 L2140.34 214.995 L2140.34 211.059 Q2138.89 213.421 2136.71 214.555 Q2134.53 215.666 2131.39 215.666 Q2127.4 215.666 2125.04 213.444 Q2122.7 211.198 2122.7 207.448 Q2122.7 203.073 2125.62 200.851 Q2128.56 198.629 2134.37 198.629 L2140.34 198.629 L2140.34 198.212 Q2140.34 195.273 2138.4 193.675 Q2136.48 192.055 2132.98 192.055 Q2130.76 192.055 2128.65 192.587 Q2126.55 193.12 2124.6 194.185 L2124.6 190.249 Q2126.94 189.347 2129.14 188.907 Q2131.34 188.444 2133.42 188.444 Q2139.05 188.444 2141.83 191.361 Q2144.6 194.277 2144.6 200.203 Z" fill="#000000" fill-rule="evenodd" fill-opacity="1" /><path clip-path="url(#clip840)" d="M2157.59 181.708 L2157.59 189.069 L2166.36 189.069 L2166.36 192.379 L2157.59 192.379 L2157.59 206.453 Q2157.59 209.624 2158.45 210.527 Q2159.32 211.43 2161.99 211.43 L2166.36 211.43 L2166.36 214.995 L2161.99 214.995 Q2157.06 214.995 2155.18 213.166 Q2153.31 211.314 2153.31 206.453 L2153.31 192.379 L2150.18 192.379 L2150.18 189.069 L2153.31 189.069 L2153.31 181.708 L2157.59 181.708 Z" fill="#000000" fill-rule="evenodd" fill-opacity="1" /><path clip-path="url(#clip840)" d="M2171.96 189.069 L2176.22 189.069 L2176.22 214.995 L2171.96 214.995 L2171.96 189.069 M2171.96 178.976 L2176.22 178.976 L2176.22 184.37 L2171.96 184.37 L2171.96 178.976 Z" fill="#000000" fill-rule="evenodd" fill-opacity="1" /><path clip-path="url(#clip840)" d="M2195.18 192.055 Q2191.76 192.055 2189.76 194.74 Q2187.77 197.402 2187.77 202.055 Q2187.77 206.708 2189.74 209.393 Q2191.73 212.055 2195.18 212.055 Q2198.58 212.055 2200.57 209.37 Q2202.57 206.684 2202.57 202.055 Q2202.57 197.448 2200.57 194.763 Q2198.58 192.055 2195.18 192.055 M2195.18 188.444 Q2200.74 188.444 2203.91 192.055 Q2207.08 195.666 2207.08 202.055 Q2207.08 208.421 2203.91 212.055 Q2200.74 215.666 2195.18 215.666 Q2189.6 215.666 2186.43 212.055 Q2183.28 208.421 2183.28 202.055 Q2183.28 195.666 2186.43 192.055 Q2189.6 188.444 2195.18 188.444 Z" fill="#000000" fill-rule="evenodd" fill-opacity="1" /><path clip-path="url(#clip840)" d="M2235.69 199.347 L2235.69 214.995 L2231.43 214.995 L2231.43 199.485 Q2231.43 195.805 2230 193.976 Q2228.56 192.148 2225.69 192.148 Q2222.24 192.148 2220.25 194.347 Q2218.26 196.546 2218.26 200.342 L2218.26 214.995 L2213.98 214.995 L2213.98 189.069 L2218.26 189.069 L2218.26 193.097 Q2219.79 190.759 2221.85 189.601 Q2223.93 188.444 2226.64 188.444 Q2231.11 188.444 2233.4 191.222 Q2235.69 193.976 2235.69 199.347 Z" fill="#000000" fill-rule="evenodd" fill-opacity="1" /></svg>
