<?xml version="1.0" encoding="utf-8"?>
<svg xmlns="http://www.w3.org/2000/svg" xmlns:xlink="http://www.w3.org/1999/xlink" width="600" height="400" viewBox="0 0 2400 1600">
<defs>
  <clipPath id="clip000">
    <rect x="0" y="0" width="2400" height="1600"/>
  </clipPath>
</defs>
<path clip-path="url(#clip000)" d="
M0 1600 L2400 1600 L2400 0 L0 0  Z
  " fill="#ffffff" fill-rule="evenodd" fill-opacity="1"/>
<defs>
  <clipPath id="clip001">
    <rect x="480" y="0" width="1681" height="1600"/>
  </clipPath>
</defs>
<defs>
  <clipPath id="clip002">
    <rect x="230" y="47" width="2123" height="1377"/>
  </clipPath>
</defs>
<path clip-path="url(#clip000)" d="
M230.644 1423.18 L2352.76 1423.18 L2352.76 47.2441 L230.644 47.2441  Z
  " fill="#ffffff" fill-rule="evenodd" fill-opacity="1"/>
<polyline clip-path="url(#clip000)" style="stroke:#000000; stroke-linecap:butt; stroke-linejoin:round; stroke-width:4; stroke-opacity:1; fill:none" points="
  230.644,1423.18 2352.76,1423.18 
  "/>
<polyline clip-path="url(#clip000)" style="stroke:#000000; stroke-linecap:butt; stroke-linejoin:round; stroke-width:4; stroke-opacity:1; fill:none" points="
  240.654,1423.18 240.654,1404.28 
  "/>
<polyline clip-path="url(#clip000)" style="stroke:#000000; stroke-linecap:butt; stroke-linejoin:round; stroke-width:4; stroke-opacity:1; fill:none" points="
  741.152,1423.18 741.152,1404.28 
  "/>
<polyline clip-path="url(#clip000)" style="stroke:#000000; stroke-linecap:butt; stroke-linejoin:round; stroke-width:4; stroke-opacity:1; fill:none" points="
  1241.65,1423.18 1241.65,1404.28 
  "/>
<polyline clip-path="url(#clip000)" style="stroke:#000000; stroke-linecap:butt; stroke-linejoin:round; stroke-width:4; stroke-opacity:1; fill:none" points="
  1742.15,1423.18 1742.15,1404.28 
  "/>
<polyline clip-path="url(#clip000)" style="stroke:#000000; stroke-linecap:butt; stroke-linejoin:round; stroke-width:4; stroke-opacity:1; fill:none" points="
  2242.65,1423.18 2242.65,1404.28 
  "/>
<path clip-path="url(#clip000)" d="M240.654 1452.37 Q237.043 1452.37 235.214 1455.94 Q233.408 1459.48 233.408 1466.61 Q233.408 1473.71 235.214 1477.28 Q237.043 1480.82 240.654 1480.82 Q244.288 1480.82 246.093 1477.28 Q247.922 1473.71 247.922 1466.61 Q247.922 1459.48 246.093 1455.94 Q244.288 1452.37 240.654 1452.37 M240.654 1448.67 Q246.464 1448.67 249.519 1453.27 Q252.598 1457.86 252.598 1466.61 Q252.598 1475.33 249.519 1479.94 Q246.464 1484.52 240.654 1484.52 Q234.843 1484.52 231.765 1479.94 Q228.709 1475.33 228.709 1466.61 Q228.709 1457.86 231.765 1453.27 Q234.843 1448.67 240.654 1448.67 Z" fill="#000000" fill-rule="evenodd" fill-opacity="1" /><path clip-path="url(#clip000)" d="M715.839 1479.92 L723.478 1479.92 L723.478 1453.55 L715.168 1455.22 L715.168 1450.96 L723.432 1449.29 L728.108 1449.29 L728.108 1479.92 L735.747 1479.92 L735.747 1483.85 L715.839 1483.85 L715.839 1479.92 Z" fill="#000000" fill-rule="evenodd" fill-opacity="1" /><path clip-path="url(#clip000)" d="M755.191 1452.37 Q751.58 1452.37 749.751 1455.94 Q747.946 1459.48 747.946 1466.61 Q747.946 1473.71 749.751 1477.28 Q751.58 1480.82 755.191 1480.82 Q758.825 1480.82 760.631 1477.28 Q762.46 1473.71 762.46 1466.61 Q762.46 1459.48 760.631 1455.94 Q758.825 1452.37 755.191 1452.37 M755.191 1448.67 Q761.001 1448.67 764.057 1453.27 Q767.135 1457.86 767.135 1466.61 Q767.135 1475.33 764.057 1479.94 Q761.001 1484.52 755.191 1484.52 Q749.381 1484.52 746.302 1479.94 Q743.247 1475.33 743.247 1466.61 Q743.247 1457.86 746.302 1453.27 Q749.381 1448.67 755.191 1448.67 Z" fill="#000000" fill-rule="evenodd" fill-opacity="1" /><path clip-path="url(#clip000)" d="M1220.42 1479.92 L1236.74 1479.92 L1236.74 1483.85 L1214.8 1483.85 L1214.8 1479.92 Q1217.46 1477.16 1222.04 1472.53 Q1226.65 1467.88 1227.83 1466.54 Q1230.08 1464.01 1230.96 1462.28 Q1231.86 1460.52 1231.86 1458.83 Q1231.86 1456.07 1229.91 1454.34 Q1227.99 1452.6 1224.89 1452.6 Q1222.69 1452.6 1220.24 1453.37 Q1217.81 1454.13 1215.03 1455.68 L1215.03 1450.96 Q1217.85 1449.82 1220.31 1449.25 Q1222.76 1448.67 1224.8 1448.67 Q1230.17 1448.67 1233.36 1451.35 Q1236.56 1454.04 1236.56 1458.53 Q1236.56 1460.66 1235.75 1462.58 Q1234.96 1464.48 1232.85 1467.07 Q1232.28 1467.74 1229.17 1470.96 Q1226.07 1474.15 1220.42 1479.92 Z" fill="#000000" fill-rule="evenodd" fill-opacity="1" /><path clip-path="url(#clip000)" d="M1256.56 1452.37 Q1252.95 1452.37 1251.12 1455.94 Q1249.31 1459.48 1249.31 1466.61 Q1249.31 1473.71 1251.12 1477.28 Q1252.95 1480.82 1256.56 1480.82 Q1260.19 1480.82 1262 1477.28 Q1263.83 1473.71 1263.83 1466.61 Q1263.83 1459.48 1262 1455.94 Q1260.19 1452.37 1256.56 1452.37 M1256.56 1448.67 Q1262.37 1448.67 1265.42 1453.27 Q1268.5 1457.86 1268.5 1466.61 Q1268.5 1475.33 1265.42 1479.94 Q1262.37 1484.52 1256.56 1484.52 Q1250.75 1484.52 1247.67 1479.94 Q1244.61 1475.33 1244.61 1466.61 Q1244.61 1457.86 1247.67 1453.27 Q1250.75 1448.67 1256.56 1448.67 Z" fill="#000000" fill-rule="evenodd" fill-opacity="1" /><path clip-path="url(#clip000)" d="M1730.99 1465.22 Q1734.35 1465.94 1736.22 1468.2 Q1738.12 1470.47 1738.12 1473.81 Q1738.12 1478.92 1734.6 1481.72 Q1731.08 1484.52 1724.6 1484.52 Q1722.43 1484.52 1720.11 1484.08 Q1717.82 1483.67 1715.37 1482.81 L1715.37 1478.3 Q1717.31 1479.43 1719.63 1480.01 Q1721.94 1480.59 1724.46 1480.59 Q1728.86 1480.59 1731.15 1478.85 Q1733.47 1477.12 1733.47 1473.81 Q1733.47 1470.75 1731.31 1469.04 Q1729.19 1467.3 1725.37 1467.3 L1721.34 1467.3 L1721.34 1463.46 L1725.55 1463.46 Q1729 1463.46 1730.83 1462.09 Q1732.66 1460.7 1732.66 1458.11 Q1732.66 1455.45 1730.76 1454.04 Q1728.88 1452.6 1725.37 1452.6 Q1723.44 1452.6 1721.25 1453.02 Q1719.05 1453.44 1716.41 1454.31 L1716.41 1450.15 Q1719.07 1449.41 1721.38 1449.04 Q1723.72 1448.67 1725.78 1448.67 Q1731.11 1448.67 1734.21 1451.1 Q1737.31 1453.5 1737.31 1457.63 Q1737.31 1460.5 1735.67 1462.49 Q1734.02 1464.45 1730.99 1465.22 Z" fill="#000000" fill-rule="evenodd" fill-opacity="1" /><path clip-path="url(#clip000)" d="M1756.99 1452.37 Q1753.37 1452.37 1751.55 1455.94 Q1749.74 1459.48 1749.74 1466.61 Q1749.74 1473.71 1751.55 1477.28 Q1753.37 1480.82 1756.99 1480.82 Q1760.62 1480.82 1762.43 1477.28 Q1764.25 1473.71 1764.25 1466.61 Q1764.25 1459.48 1762.43 1455.94 Q1760.62 1452.37 1756.99 1452.37 M1756.99 1448.67 Q1762.8 1448.67 1765.85 1453.27 Q1768.93 1457.86 1768.93 1466.61 Q1768.93 1475.33 1765.85 1479.94 Q1762.8 1484.52 1756.99 1484.52 Q1751.18 1484.52 1748.1 1479.94 Q1745.04 1475.33 1745.04 1466.61 Q1745.04 1457.86 1748.1 1453.27 Q1751.18 1448.67 1756.99 1448.67 Z" fill="#000000" fill-rule="evenodd" fill-opacity="1" /><path clip-path="url(#clip000)" d="M2230.82 1453.37 L2219.01 1471.81 L2230.82 1471.81 L2230.82 1453.37 M2229.59 1449.29 L2235.47 1449.29 L2235.47 1471.81 L2240.4 1471.81 L2240.4 1475.7 L2235.47 1475.7 L2235.47 1483.85 L2230.82 1483.85 L2230.82 1475.7 L2215.22 1475.7 L2215.22 1471.19 L2229.59 1449.29 Z" fill="#000000" fill-rule="evenodd" fill-opacity="1" /><path clip-path="url(#clip000)" d="M2258.13 1452.37 Q2254.52 1452.37 2252.69 1455.94 Q2250.89 1459.48 2250.89 1466.61 Q2250.89 1473.71 2252.69 1477.28 Q2254.52 1480.82 2258.13 1480.82 Q2261.77 1480.82 2263.57 1477.28 Q2265.4 1473.71 2265.4 1466.61 Q2265.4 1459.48 2263.57 1455.94 Q2261.77 1452.37 2258.13 1452.37 M2258.13 1448.67 Q2263.94 1448.67 2267 1453.27 Q2270.08 1457.86 2270.08 1466.61 Q2270.08 1475.33 2267 1479.94 Q2263.94 1484.52 2258.13 1484.52 Q2252.32 1484.52 2249.24 1479.94 Q2246.19 1475.33 2246.19 1466.61 Q2246.19 1457.86 2249.24 1453.27 Q2252.32 1448.67 2258.13 1448.67 Z" fill="#000000" fill-rule="evenodd" fill-opacity="1" /><path clip-path="url(#clip000)" d="M1015 1520.52 L1023.66 1520.52 L1044.73 1560.28 L1044.73 1520.52 L1050.96 1520.52 L1050.96 1568.04 L1042.31 1568.04 L1021.24 1528.29 L1021.24 1568.04 L1015 1568.04 L1015 1520.52 Z" fill="#000000" fill-rule="evenodd" fill-opacity="1" /><path clip-path="url(#clip000)" d="M1062.9 1553.98 L1062.9 1532.4 L1068.76 1532.4 L1068.76 1553.75 Q1068.76 1558.81 1070.73 1561.36 Q1072.7 1563.87 1076.65 1563.87 Q1081.39 1563.87 1084.13 1560.85 Q1086.9 1557.83 1086.9 1552.61 L1086.9 1532.4 L1092.76 1532.4 L1092.76 1568.04 L1086.9 1568.04 L1086.9 1562.57 Q1084.77 1565.82 1081.93 1567.41 Q1079.13 1568.97 1075.41 1568.97 Q1069.27 1568.97 1066.08 1565.15 Q1062.9 1561.33 1062.9 1553.98 M1077.64 1531.54 L1077.64 1531.54 Z" fill="#000000" fill-rule="evenodd" fill-opacity="1" /><path clip-path="url(#clip000)" d="M1132.57 1539.24 Q1134.77 1535.29 1137.82 1533.41 Q1140.88 1531.54 1145.02 1531.54 Q1150.59 1531.54 1153.61 1535.45 Q1156.64 1539.33 1156.64 1546.53 L1156.64 1568.04 L1150.75 1568.04 L1150.75 1546.72 Q1150.75 1541.59 1148.93 1539.11 Q1147.12 1536.63 1143.39 1536.63 Q1138.84 1536.63 1136.2 1539.65 Q1133.56 1542.68 1133.56 1547.9 L1133.56 1568.04 L1127.67 1568.04 L1127.67 1546.72 Q1127.67 1541.56 1125.86 1539.11 Q1124.04 1536.63 1120.26 1536.63 Q1115.77 1536.63 1113.13 1539.68 Q1110.48 1542.71 1110.48 1547.9 L1110.48 1568.04 L1104.6 1568.04 L1104.6 1532.4 L1110.48 1532.4 L1110.48 1537.93 Q1112.49 1534.66 1115.29 1533.1 Q1118.09 1531.54 1121.94 1531.54 Q1125.83 1531.54 1128.53 1533.51 Q1131.27 1535.48 1132.57 1539.24 Z" fill="#000000" fill-rule="evenodd" fill-opacity="1" /><path clip-path="url(#clip000)" d="M1193.91 1550.25 Q1193.91 1543.79 1191.23 1540.13 Q1188.59 1536.44 1183.94 1536.44 Q1179.3 1536.44 1176.62 1540.13 Q1173.98 1543.79 1173.98 1550.25 Q1173.98 1556.71 1176.62 1560.4 Q1179.3 1564.07 1183.94 1564.07 Q1188.59 1564.07 1191.23 1560.4 Q1193.91 1556.71 1193.91 1550.25 M1173.98 1537.81 Q1175.83 1534.62 1178.63 1533.1 Q1181.46 1531.54 1185.38 1531.54 Q1191.87 1531.54 1195.91 1536.69 Q1199.99 1541.85 1199.99 1550.25 Q1199.99 1558.65 1195.91 1563.81 Q1191.87 1568.97 1185.38 1568.97 Q1181.46 1568.97 1178.63 1567.44 Q1175.83 1565.88 1173.98 1562.7 L1173.98 1568.04 L1168.09 1568.04 L1168.09 1518.52 L1173.98 1518.52 L1173.98 1537.81 Z" fill="#000000" fill-rule="evenodd" fill-opacity="1" /><path clip-path="url(#clip000)" d="M1240.19 1548.76 L1240.19 1551.62 L1213.26 1551.62 Q1213.64 1557.67 1216.89 1560.85 Q1220.17 1564 1225.99 1564 Q1229.36 1564 1232.51 1563.17 Q1235.7 1562.35 1238.82 1560.69 L1238.82 1566.23 Q1235.67 1567.57 1232.36 1568.27 Q1229.05 1568.97 1225.64 1568.97 Q1217.11 1568.97 1212.11 1564 Q1207.15 1559.04 1207.15 1550.57 Q1207.15 1541.82 1211.86 1536.69 Q1216.6 1531.54 1224.62 1531.54 Q1231.81 1531.54 1235.98 1536.18 Q1240.19 1540.8 1240.19 1548.76 M1234.33 1547.04 Q1234.27 1542.23 1231.62 1539.37 Q1229.01 1536.5 1224.68 1536.5 Q1219.78 1536.5 1216.82 1539.27 Q1213.89 1542.04 1213.45 1547.07 L1234.33 1547.04 Z" fill="#000000" fill-rule="evenodd" fill-opacity="1" /><path clip-path="url(#clip000)" d="M1270.45 1537.87 Q1269.47 1537.3 1268.29 1537.04 Q1267.14 1536.76 1265.74 1536.76 Q1260.78 1536.76 1258.1 1540 Q1255.46 1543.22 1255.46 1549.27 L1255.46 1568.04 L1249.57 1568.04 L1249.57 1532.4 L1255.46 1532.4 L1255.46 1537.93 Q1257.31 1534.69 1260.27 1533.13 Q1263.23 1531.54 1267.46 1531.54 Q1268.07 1531.54 1268.8 1531.63 Q1269.53 1531.7 1270.42 1531.85 L1270.45 1537.87 Z" fill="#000000" fill-rule="evenodd" fill-opacity="1" /><path clip-path="url(#clip000)" d="M1311.13 1536.5 Q1306.42 1536.5 1303.68 1540.19 Q1300.95 1543.85 1300.95 1550.25 Q1300.95 1556.65 1303.65 1560.34 Q1306.39 1564 1311.13 1564 Q1315.81 1564 1318.55 1560.31 Q1321.28 1556.62 1321.28 1550.25 Q1321.28 1543.92 1318.55 1540.23 Q1315.81 1536.5 1311.13 1536.5 M1311.13 1531.54 Q1318.77 1531.54 1323.13 1536.5 Q1327.49 1541.47 1327.49 1550.25 Q1327.49 1559 1323.13 1564 Q1318.77 1568.97 1311.13 1568.97 Q1303.46 1568.97 1299.1 1564 Q1294.77 1559 1294.77 1550.25 Q1294.77 1541.47 1299.1 1536.5 Q1303.46 1531.54 1311.13 1531.54 Z" fill="#000000" fill-rule="evenodd" fill-opacity="1" /><path clip-path="url(#clip000)" d="M1355.25 1518.52 L1355.25 1523.39 L1349.64 1523.39 Q1346.49 1523.39 1345.25 1524.66 Q1344.04 1525.93 1344.04 1529.24 L1344.04 1532.4 L1353.69 1532.4 L1353.69 1536.95 L1344.04 1536.95 L1344.04 1568.04 L1338.15 1568.04 L1338.15 1536.95 L1332.55 1536.95 L1332.55 1532.4 L1338.15 1532.4 L1338.15 1529.91 Q1338.15 1523.96 1340.92 1521.26 Q1343.69 1518.52 1349.71 1518.52 L1355.25 1518.52 Z" fill="#000000" fill-rule="evenodd" fill-opacity="1" /><path clip-path="url(#clip000)" d="M1404.33 1549.81 Q1404.33 1543.44 1401.68 1539.94 Q1399.07 1536.44 1394.33 1536.44 Q1389.62 1536.44 1386.98 1539.94 Q1384.37 1543.44 1384.37 1549.81 Q1384.37 1556.14 1386.98 1559.64 Q1389.62 1563.14 1394.33 1563.14 Q1399.07 1563.14 1401.68 1559.64 Q1404.33 1556.14 1404.33 1549.81 M1410.18 1563.62 Q1410.18 1572.72 1406.14 1577.15 Q1402.1 1581.6 1393.76 1581.6 Q1390.67 1581.6 1387.93 1581.13 Q1385.2 1580.68 1382.62 1579.72 L1382.62 1574.03 Q1385.2 1575.43 1387.71 1576.1 Q1390.22 1576.76 1392.83 1576.76 Q1398.6 1576.76 1401.46 1573.74 Q1404.33 1570.75 1404.33 1564.67 L1404.33 1561.77 Q1402.51 1564.92 1399.68 1566.48 Q1396.85 1568.04 1392.9 1568.04 Q1386.34 1568.04 1382.33 1563.05 Q1378.32 1558.05 1378.32 1549.81 Q1378.32 1541.53 1382.33 1536.53 Q1386.34 1531.54 1392.9 1531.54 Q1396.85 1531.54 1399.68 1533.1 Q1402.51 1534.66 1404.33 1537.81 L1404.33 1532.4 L1410.18 1532.4 L1410.18 1563.62 Z" fill="#000000" fill-rule="evenodd" fill-opacity="1" /><path clip-path="url(#clip000)" d="M1452.74 1548.76 L1452.74 1551.62 L1425.81 1551.62 Q1426.19 1557.67 1429.44 1560.85 Q1432.72 1564 1438.54 1564 Q1441.91 1564 1445.07 1563.17 Q1448.25 1562.35 1451.37 1560.69 L1451.37 1566.23 Q1448.22 1567.57 1444.91 1568.27 Q1441.6 1568.97 1438.19 1568.97 Q1429.66 1568.97 1424.66 1564 Q1419.7 1559.04 1419.7 1550.57 Q1419.7 1541.82 1424.41 1536.69 Q1429.15 1531.54 1437.17 1531.54 Q1444.37 1531.54 1448.53 1536.18 Q1452.74 1540.8 1452.74 1548.76 M1446.88 1547.04 Q1446.82 1542.23 1444.17 1539.37 Q1441.56 1536.5 1437.24 1536.5 Q1432.33 1536.5 1429.37 1539.27 Q1426.45 1542.04 1426 1547.07 L1446.88 1547.04 Z" fill="#000000" fill-rule="evenodd" fill-opacity="1" /><path clip-path="url(#clip000)" d="M1491.98 1546.53 L1491.98 1568.04 L1486.12 1568.04 L1486.12 1546.72 Q1486.12 1541.66 1484.15 1539.14 Q1482.18 1536.63 1478.23 1536.63 Q1473.49 1536.63 1470.75 1539.65 Q1468.01 1542.68 1468.01 1547.9 L1468.01 1568.04 L1462.13 1568.04 L1462.13 1532.4 L1468.01 1532.4 L1468.01 1537.93 Q1470.11 1534.72 1472.95 1533.13 Q1475.81 1531.54 1479.54 1531.54 Q1485.68 1531.54 1488.83 1535.36 Q1491.98 1539.14 1491.98 1546.53 Z" fill="#000000" fill-rule="evenodd" fill-opacity="1" /><path clip-path="url(#clip000)" d="M1534.15 1548.76 L1534.15 1551.62 L1507.23 1551.62 Q1507.61 1557.67 1510.86 1560.85 Q1514.13 1564 1519.96 1564 Q1523.33 1564 1526.48 1563.17 Q1529.67 1562.35 1532.78 1560.69 L1532.78 1566.23 Q1529.63 1567.57 1526.32 1568.27 Q1523.01 1568.97 1519.61 1568.97 Q1511.08 1568.97 1506.08 1564 Q1501.12 1559.04 1501.12 1550.57 Q1501.12 1541.82 1505.83 1536.69 Q1510.57 1531.54 1518.59 1531.54 Q1525.78 1531.54 1529.95 1536.18 Q1534.15 1540.8 1534.15 1548.76 M1528.3 1547.04 Q1528.23 1542.23 1525.59 1539.37 Q1522.98 1536.5 1518.65 1536.5 Q1513.75 1536.5 1510.79 1539.27 Q1507.86 1542.04 1507.42 1547.07 L1528.3 1547.04 Z" fill="#000000" fill-rule="evenodd" fill-opacity="1" /><path clip-path="url(#clip000)" d="M1566.49 1533.45 L1566.49 1538.98 Q1564.01 1537.71 1561.34 1537.07 Q1558.66 1536.44 1555.8 1536.44 Q1551.44 1536.44 1549.24 1537.77 Q1547.08 1539.11 1547.08 1541.79 Q1547.08 1543.82 1548.64 1545 Q1550.2 1546.15 1554.91 1547.2 L1556.91 1547.64 Q1563.15 1548.98 1565.76 1551.43 Q1568.4 1553.85 1568.4 1558.21 Q1568.4 1563.17 1564.45 1566.07 Q1560.54 1568.97 1553.66 1568.97 Q1550.8 1568.97 1547.68 1568.39 Q1544.59 1567.85 1541.16 1566.74 L1541.16 1560.69 Q1544.4 1562.38 1547.55 1563.24 Q1550.7 1564.07 1553.79 1564.07 Q1557.93 1564.07 1560.16 1562.66 Q1562.39 1561.23 1562.39 1558.65 Q1562.39 1556.27 1560.76 1554.99 Q1559.17 1553.72 1553.73 1552.54 L1551.69 1552.07 Q1546.25 1550.92 1543.83 1548.56 Q1541.41 1546.18 1541.41 1542.04 Q1541.41 1537.01 1544.98 1534.27 Q1548.54 1531.54 1555.1 1531.54 Q1558.34 1531.54 1561.21 1532.01 Q1564.07 1532.49 1566.49 1533.45 Z" fill="#000000" fill-rule="evenodd" fill-opacity="1" /><polyline clip-path="url(#clip000)" style="stroke:#000000; stroke-linecap:butt; stroke-linejoin:round; stroke-width:4; stroke-opacity:1; fill:none" points="
  230.644,1423.18 230.644,47.2441 
  "/>
<polyline clip-path="url(#clip000)" style="stroke:#000000; stroke-linecap:butt; stroke-linejoin:round; stroke-width:4; stroke-opacity:1; fill:none" points="
  230.644,1118.13 249.541,1118.13 
  "/>
<polyline clip-path="url(#clip000)" style="stroke:#000000; stroke-linecap:butt; stroke-linejoin:round; stroke-width:4; stroke-opacity:1; fill:none" points="
  230.644,805.876 249.541,805.876 
  "/>
<polyline clip-path="url(#clip000)" style="stroke:#000000; stroke-linecap:butt; stroke-linejoin:round; stroke-width:4; stroke-opacity:1; fill:none" points="
  230.644,493.621 249.541,493.621 
  "/>
<polyline clip-path="url(#clip000)" style="stroke:#000000; stroke-linecap:butt; stroke-linejoin:round; stroke-width:4; stroke-opacity:1; fill:none" points="
  230.644,181.365 249.541,181.365 
  "/>
<path clip-path="url(#clip000)" d="M122.954 1116.27 Q119.806 1116.27 117.954 1118.42 Q116.126 1120.57 116.126 1124.32 Q116.126 1128.05 117.954 1130.23 Q119.806 1132.38 122.954 1132.38 Q126.102 1132.38 127.931 1130.23 Q129.783 1128.05 129.783 1124.32 Q129.783 1120.57 127.931 1118.42 Q126.102 1116.27 122.954 1116.27 M132.237 1101.62 L132.237 1105.87 Q130.477 1105.04 128.672 1104.6 Q126.889 1104.16 125.13 1104.16 Q120.501 1104.16 118.047 1107.29 Q115.616 1110.41 115.269 1116.73 Q116.635 1114.72 118.695 1113.65 Q120.755 1112.56 123.232 1112.56 Q128.44 1112.56 131.45 1115.74 Q134.482 1118.88 134.482 1124.32 Q134.482 1129.65 131.334 1132.87 Q128.186 1136.08 122.954 1136.08 Q116.959 1136.08 113.788 1131.5 Q110.616 1126.89 110.616 1118.17 Q110.616 1109.97 114.505 1105.11 Q118.394 1100.23 124.945 1100.23 Q126.704 1100.23 128.487 1100.57 Q130.292 1100.92 132.237 1101.62 Z" fill="#000000" fill-rule="evenodd" fill-opacity="1" /><path clip-path="url(#clip000)" d="M152.537 1103.93 Q148.926 1103.93 147.098 1107.49 Q145.292 1111.04 145.292 1118.17 Q145.292 1125.27 147.098 1128.84 Q148.926 1132.38 152.537 1132.38 Q156.172 1132.38 157.977 1128.84 Q159.806 1125.27 159.806 1118.17 Q159.806 1111.04 157.977 1107.49 Q156.172 1103.93 152.537 1103.93 M152.537 1100.23 Q158.348 1100.23 161.403 1104.83 Q164.482 1109.42 164.482 1118.17 Q164.482 1126.89 161.403 1131.5 Q158.348 1136.08 152.537 1136.08 Q146.727 1136.08 143.649 1131.5 Q140.593 1126.89 140.593 1118.17 Q140.593 1109.42 143.649 1104.83 Q146.727 1100.23 152.537 1100.23 Z" fill="#000000" fill-rule="evenodd" fill-opacity="1" /><path clip-path="url(#clip000)" d="M182.699 1103.93 Q179.088 1103.93 177.259 1107.49 Q175.454 1111.04 175.454 1118.17 Q175.454 1125.27 177.259 1128.84 Q179.088 1132.38 182.699 1132.38 Q186.334 1132.38 188.139 1128.84 Q189.968 1125.27 189.968 1118.17 Q189.968 1111.04 188.139 1107.49 Q186.334 1103.93 182.699 1103.93 M182.699 1100.23 Q188.509 1100.23 191.565 1104.83 Q194.644 1109.42 194.644 1118.17 Q194.644 1126.89 191.565 1131.5 Q188.509 1136.08 182.699 1136.08 Q176.889 1136.08 173.81 1131.5 Q170.755 1126.89 170.755 1118.17 Q170.755 1109.42 173.81 1104.83 Q176.889 1100.23 182.699 1100.23 Z" fill="#000000" fill-rule="evenodd" fill-opacity="1" /><path clip-path="url(#clip000)" d="M111.195 788.596 L133.417 788.596 L133.417 790.587 L120.871 823.156 L115.987 823.156 L127.792 792.531 L111.195 792.531 L111.195 788.596 Z" fill="#000000" fill-rule="evenodd" fill-opacity="1" /><path clip-path="url(#clip000)" d="M152.537 791.675 Q148.926 791.675 147.098 795.24 Q145.292 798.781 145.292 805.911 Q145.292 813.017 147.098 816.582 Q148.926 820.124 152.537 820.124 Q156.172 820.124 157.977 816.582 Q159.806 813.017 159.806 805.911 Q159.806 798.781 157.977 795.24 Q156.172 791.675 152.537 791.675 M152.537 787.971 Q158.348 787.971 161.403 792.577 Q164.482 797.161 164.482 805.911 Q164.482 814.638 161.403 819.244 Q158.348 823.827 152.537 823.827 Q146.727 823.827 143.649 819.244 Q140.593 814.638 140.593 805.911 Q140.593 797.161 143.649 792.577 Q146.727 787.971 152.537 787.971 Z" fill="#000000" fill-rule="evenodd" fill-opacity="1" /><path clip-path="url(#clip000)" d="M182.699 791.675 Q179.088 791.675 177.259 795.24 Q175.454 798.781 175.454 805.911 Q175.454 813.017 177.259 816.582 Q179.088 820.124 182.699 820.124 Q186.334 820.124 188.139 816.582 Q189.968 813.017 189.968 805.911 Q189.968 798.781 188.139 795.24 Q186.334 791.675 182.699 791.675 M182.699 787.971 Q188.509 787.971 191.565 792.577 Q194.644 797.161 194.644 805.911 Q194.644 814.638 191.565 819.244 Q188.509 823.827 182.699 823.827 Q176.889 823.827 173.81 819.244 Q170.755 814.638 170.755 805.911 Q170.755 797.161 173.81 792.577 Q176.889 787.971 182.699 787.971 Z" fill="#000000" fill-rule="evenodd" fill-opacity="1" /><path clip-path="url(#clip000)" d="M122.376 494.489 Q119.042 494.489 117.121 496.271 Q115.223 498.054 115.223 501.179 Q115.223 504.304 117.121 506.086 Q119.042 507.868 122.376 507.868 Q125.709 507.868 127.63 506.086 Q129.551 504.28 129.551 501.179 Q129.551 498.054 127.63 496.271 Q125.732 494.489 122.376 494.489 M117.7 492.498 Q114.69 491.757 113.001 489.697 Q111.334 487.637 111.334 484.674 Q111.334 480.53 114.274 478.123 Q117.237 475.716 122.376 475.716 Q127.538 475.716 130.477 478.123 Q133.417 480.53 133.417 484.674 Q133.417 487.637 131.727 489.697 Q130.061 491.757 127.075 492.498 Q130.454 493.285 132.329 495.577 Q134.227 497.868 134.227 501.179 Q134.227 506.202 131.149 508.887 Q128.093 511.572 122.376 511.572 Q116.658 511.572 113.579 508.887 Q110.524 506.202 110.524 501.179 Q110.524 497.868 112.422 495.577 Q114.32 493.285 117.7 492.498 M115.987 485.114 Q115.987 487.799 117.653 489.304 Q119.343 490.808 122.376 490.808 Q125.385 490.808 127.075 489.304 Q128.788 487.799 128.788 485.114 Q128.788 482.429 127.075 480.924 Q125.385 479.419 122.376 479.419 Q119.343 479.419 117.653 480.924 Q115.987 482.429 115.987 485.114 Z" fill="#000000" fill-rule="evenodd" fill-opacity="1" /><path clip-path="url(#clip000)" d="M152.537 479.419 Q148.926 479.419 147.098 482.984 Q145.292 486.526 145.292 493.655 Q145.292 500.762 147.098 504.327 Q148.926 507.868 152.537 507.868 Q156.172 507.868 157.977 504.327 Q159.806 500.762 159.806 493.655 Q159.806 486.526 157.977 482.984 Q156.172 479.419 152.537 479.419 M152.537 475.716 Q158.348 475.716 161.403 480.322 Q164.482 484.905 164.482 493.655 Q164.482 502.382 161.403 506.989 Q158.348 511.572 152.537 511.572 Q146.727 511.572 143.649 506.989 Q140.593 502.382 140.593 493.655 Q140.593 484.905 143.649 480.322 Q146.727 475.716 152.537 475.716 Z" fill="#000000" fill-rule="evenodd" fill-opacity="1" /><path clip-path="url(#clip000)" d="M182.699 479.419 Q179.088 479.419 177.259 482.984 Q175.454 486.526 175.454 493.655 Q175.454 500.762 177.259 504.327 Q179.088 507.868 182.699 507.868 Q186.334 507.868 188.139 504.327 Q189.968 500.762 189.968 493.655 Q189.968 486.526 188.139 482.984 Q186.334 479.419 182.699 479.419 M182.699 475.716 Q188.509 475.716 191.565 480.322 Q194.644 484.905 194.644 493.655 Q194.644 502.382 191.565 506.989 Q188.509 511.572 182.699 511.572 Q176.889 511.572 173.81 506.989 Q170.755 502.382 170.755 493.655 Q170.755 484.905 173.81 480.322 Q176.889 475.716 182.699 475.716 Z" fill="#000000" fill-rule="evenodd" fill-opacity="1" /><path clip-path="url(#clip000)" d="M112.514 197.928 L112.514 193.669 Q114.274 194.502 116.079 194.942 Q117.885 195.382 119.621 195.382 Q124.25 195.382 126.681 192.28 Q129.135 189.155 129.482 182.812 Q128.139 184.803 126.079 185.868 Q124.019 186.932 121.519 186.932 Q116.334 186.932 113.301 183.807 Q110.292 180.659 110.292 175.22 Q110.292 169.896 113.44 166.678 Q116.589 163.46 121.82 163.46 Q127.815 163.46 130.963 168.067 Q134.135 172.65 134.135 181.4 Q134.135 189.571 130.246 194.456 Q126.38 199.317 119.829 199.317 Q118.07 199.317 116.264 198.969 Q114.459 198.622 112.514 197.928 M121.82 183.275 Q124.968 183.275 126.797 181.122 Q128.649 178.97 128.649 175.22 Q128.649 171.493 126.797 169.34 Q124.968 167.164 121.82 167.164 Q118.672 167.164 116.82 169.34 Q114.991 171.493 114.991 175.22 Q114.991 178.97 116.82 181.122 Q118.672 183.275 121.82 183.275 Z" fill="#000000" fill-rule="evenodd" fill-opacity="1" /><path clip-path="url(#clip000)" d="M152.537 167.164 Q148.926 167.164 147.098 170.729 Q145.292 174.271 145.292 181.4 Q145.292 188.507 147.098 192.071 Q148.926 195.613 152.537 195.613 Q156.172 195.613 157.977 192.071 Q159.806 188.507 159.806 181.4 Q159.806 174.271 157.977 170.729 Q156.172 167.164 152.537 167.164 M152.537 163.46 Q158.348 163.46 161.403 168.067 Q164.482 172.65 164.482 181.4 Q164.482 190.127 161.403 194.733 Q158.348 199.317 152.537 199.317 Q146.727 199.317 143.649 194.733 Q140.593 190.127 140.593 181.4 Q140.593 172.65 143.649 168.067 Q146.727 163.46 152.537 163.46 Z" fill="#000000" fill-rule="evenodd" fill-opacity="1" /><path clip-path="url(#clip000)" d="M182.699 167.164 Q179.088 167.164 177.259 170.729 Q175.454 174.271 175.454 181.4 Q175.454 188.507 177.259 192.071 Q179.088 195.613 182.699 195.613 Q186.334 195.613 188.139 192.071 Q189.968 188.507 189.968 181.4 Q189.968 174.271 188.139 170.729 Q186.334 167.164 182.699 167.164 M182.699 163.46 Q188.509 163.46 191.565 168.067 Q194.644 172.65 194.644 181.4 Q194.644 190.127 191.565 194.733 Q188.509 199.317 182.699 199.317 Q176.889 199.317 173.81 194.733 Q170.755 190.127 170.755 181.4 Q170.755 172.65 173.81 168.067 Q176.889 163.46 182.699 163.46 Z" fill="#000000" fill-rule="evenodd" fill-opacity="1" /><path clip-path="url(#clip000)" d="M79.6659 762.12 Q80.2134 762.12 80.5999 762.506 Q80.9863 762.893 80.9863 763.44 Q80.9863 764.374 80.1168 764.696 L48.4584 776.966 Q48.3296 777.031 48.0075 777.031 Q47.6855 777.031 47.5566 776.966 L15.8983 764.696 Q15.0287 764.374 15.0287 763.44 Q15.0287 762.893 15.4152 762.506 Q15.8017 762.12 16.3492 762.12 Q16.6712 762.12 16.8 762.184 L48.0075 774.326 L79.215 762.184 Q79.3438 762.12 79.6659 762.12 Z" fill="#000000" fill-rule="evenodd" fill-opacity="1" /><path clip-path="url(#clip000)" d="M45.8819 717.179 Q50.584 717.179 55.125 719.563 Q59.666 721.914 62.468 725.617 Q65.2377 729.321 65.2377 733.089 Q65.2377 735.344 64.0138 736.857 Q62.7578 738.339 60.9865 739.144 Q63.1765 739.756 68.426 741.076 Q73.6756 742.397 74.1909 742.397 Q74.4807 742.397 74.6096 742.332 Q74.7384 742.268 74.8994 741.978 Q75.0927 741.688 75.1571 740.98 Q75.2537 740.271 75.2537 739.079 Q75.2537 738.467 75.2537 738.242 Q75.2859 737.984 75.4469 737.759 Q75.608 737.501 75.9622 737.501 Q77.2827 737.501 77.2827 738.693 Q77.2827 739.756 77.186 741.946 Q77.0894 744.136 77.0894 745.231 Q77.0894 746.165 77.186 748.033 Q77.2827 749.901 77.2827 750.77 Q77.2827 751.64 76.5097 751.64 Q76.0588 751.64 75.769 751.511 Q75.5113 751.414 75.3825 751.157 Q75.2859 750.899 75.2537 750.674 Q75.2537 750.48 75.2537 750.094 Q75.2537 748.612 74.996 747.968 Q74.7706 747.324 74.2875 747.099 Q73.8366 746.841 72.5484 746.551 L43.1766 739.144 Q41.2121 738.693 39.8272 738.693 Q38.0881 738.693 37.444 739.24 Q36.7999 739.788 36.7999 740.754 Q36.7999 742.429 38.7967 743.524 Q40.7934 744.619 44.6581 745.553 Q45.7209 745.843 45.9464 746.036 Q46.1718 746.197 46.1718 746.68 Q46.1396 747.485 45.4955 747.485 Q45.3344 747.485 44.3039 747.227 Q43.2411 746.97 41.6952 746.487 Q40.1171 745.971 39.1187 745.424 Q38.4424 745.102 37.9915 744.812 Q37.5406 744.522 36.8321 743.942 Q36.1236 743.331 35.7371 742.461 Q35.3506 741.591 35.3506 740.529 Q35.3506 738.467 36.5744 736.761 Q37.7983 735.054 40.2781 734.603 Q38.1203 732.767 36.7355 730.513 Q35.3506 728.258 35.3506 725.972 Q35.3506 722.171 38.3136 719.691 Q41.2443 717.179 45.8819 717.179 M42.9834 721.946 Q40.0527 721.946 38.4424 723.073 Q36.7999 724.168 36.7999 726.165 Q36.7999 728.645 39.3119 731.511 Q41.6952 734.345 43.9174 734.925 L56.8319 738.178 L57.8947 738.371 Q58.088 738.371 58.6677 738.274 Q59.2152 738.145 60.1169 737.791 Q61.0187 737.405 61.8238 736.889 Q62.5968 736.342 63.1765 735.376 Q63.7562 734.377 63.7562 733.154 Q63.7562 731.189 62.0171 729.063 Q60.278 726.906 56.993 725.295 Q54.8674 724.297 50.2941 723.138 Q45.6887 721.946 42.9834 721.946 Z" fill="#000000" fill-rule="evenodd" fill-opacity="1" /><path clip-path="url(#clip000)" d="M47.5566 703.97 Q47.6855 703.905 48.0075 703.905 Q48.3296 703.905 48.4584 703.97 L80.1168 716.24 Q80.9863 716.562 80.9863 717.464 Q80.9863 718.011 80.5999 718.398 Q80.2134 718.784 79.6659 718.784 Q79.3438 718.784 79.215 718.72 L48.0075 706.61 L16.8 718.72 Q16.6712 718.784 16.3492 718.784 Q15.8017 718.784 15.4152 718.398 Q15.0287 718.011 15.0287 717.464 Q15.0287 716.562 15.8983 716.24 L47.5566 703.97 Z" fill="#000000" fill-rule="evenodd" fill-opacity="1" /><circle clip-path="url(#clip002)" cx="290.703" cy="1384.24" r="21" fill="#ff00ff" fill-rule="evenodd" fill-opacity="1" stroke="none"/>
<circle clip-path="url(#clip002)" cx="791.202" cy="239.946" r="21" fill="#ff00ff" fill-rule="evenodd" fill-opacity="1" stroke="none"/>
<circle clip-path="url(#clip002)" cx="1291.7" cy="141.865" r="21" fill="#ff00ff" fill-rule="evenodd" fill-opacity="1" stroke="none"/>
<circle clip-path="url(#clip002)" cx="1792.2" cy="105.296" r="21" fill="#ff00ff" fill-rule="evenodd" fill-opacity="1" stroke="none"/>
<circle clip-path="url(#clip002)" cx="2292.7" cy="86.1857" r="21" fill="#ff00ff" fill-rule="evenodd" fill-opacity="1" stroke="none"/>
</svg>
