<?xml version="1.0" encoding="utf-8"?>
<svg xmlns="http://www.w3.org/2000/svg" xmlns:xlink="http://www.w3.org/1999/xlink" width="600" height="400" viewBox="0 0 2400 1600">
<defs>
  <clipPath id="clip040">
    <rect x="0" y="0" width="2400" height="1600"/>
  </clipPath>
</defs>
<path clip-path="url(#clip040)" d="
M0 1600 L2400 1600 L2400 0 L0 0  Z
  " fill="#ffffff" fill-rule="evenodd" fill-opacity="1"/>
<defs>
  <clipPath id="clip041">
    <rect x="480" y="0" width="1681" height="1600"/>
  </clipPath>
</defs>
<defs>
  <clipPath id="clip042">
    <rect x="200" y="47" width="2154" height="1377"/>
  </clipPath>
</defs>
<path clip-path="url(#clip040)" d="
M200.06 1423.18 L2352.76 1423.18 L2352.76 47.2441 L200.06 47.2441  Z
  " fill="#ffffff" fill-rule="evenodd" fill-opacity="1"/>
<polyline clip-path="url(#clip040)" style="stroke:#000000; stroke-linecap:butt; stroke-linejoin:round; stroke-width:4; stroke-opacity:1; fill:none" points="
  200.06,1423.18 2352.76,1423.18 
  "/>
<polyline clip-path="url(#clip040)" style="stroke:#000000; stroke-linecap:butt; stroke-linejoin:round; stroke-width:4; stroke-opacity:1; fill:none" points="
  240.677,1423.18 240.677,1404.28 
  "/>
<polyline clip-path="url(#clip040)" style="stroke:#000000; stroke-linecap:butt; stroke-linejoin:round; stroke-width:4; stroke-opacity:1; fill:none" points="
  748.388,1423.18 748.388,1404.28 
  "/>
<polyline clip-path="url(#clip040)" style="stroke:#000000; stroke-linecap:butt; stroke-linejoin:round; stroke-width:4; stroke-opacity:1; fill:none" points="
  1256.1,1423.18 1256.1,1404.28 
  "/>
<polyline clip-path="url(#clip040)" style="stroke:#000000; stroke-linecap:butt; stroke-linejoin:round; stroke-width:4; stroke-opacity:1; fill:none" points="
  1763.81,1423.18 1763.81,1404.28 
  "/>
<polyline clip-path="url(#clip040)" style="stroke:#000000; stroke-linecap:butt; stroke-linejoin:round; stroke-width:4; stroke-opacity:1; fill:none" points="
  2271.52,1423.18 2271.52,1404.28 
  "/>
<path clip-path="url(#clip040)" d="M240.677 1452.37 Q237.066 1452.37 235.237 1455.94 Q233.431 1459.48 233.431 1466.61 Q233.431 1473.71 235.237 1477.28 Q237.066 1480.82 240.677 1480.82 Q244.311 1480.82 246.117 1477.28 Q247.945 1473.71 247.945 1466.61 Q247.945 1459.48 246.117 1455.94 Q244.311 1452.37 240.677 1452.37 M240.677 1448.67 Q246.487 1448.67 249.542 1453.27 Q252.621 1457.86 252.621 1466.61 Q252.621 1475.33 249.542 1479.94 Q246.487 1484.52 240.677 1484.52 Q234.867 1484.52 231.788 1479.94 Q228.732 1475.33 228.732 1466.61 Q228.732 1457.86 231.788 1453.27 Q234.867 1448.67 240.677 1448.67 Z" fill="#000000" fill-rule="evenodd" fill-opacity="1" /><path clip-path="url(#clip040)" d="M727.659 1479.92 L743.978 1479.92 L743.978 1483.85 L722.034 1483.85 L722.034 1479.92 Q724.696 1477.16 729.279 1472.53 Q733.886 1467.88 735.066 1466.54 Q737.312 1464.01 738.191 1462.28 Q739.094 1460.52 739.094 1458.83 Q739.094 1456.07 737.15 1454.34 Q735.228 1452.6 732.127 1452.6 Q729.928 1452.6 727.474 1453.37 Q725.043 1454.13 722.266 1455.68 L722.266 1450.96 Q725.09 1449.82 727.543 1449.25 Q729.997 1448.67 732.034 1448.67 Q737.404 1448.67 740.599 1451.35 Q743.793 1454.04 743.793 1458.53 Q743.793 1460.66 742.983 1462.58 Q742.196 1464.48 740.09 1467.07 Q739.511 1467.74 736.409 1470.96 Q733.307 1474.15 727.659 1479.92 Z" fill="#000000" fill-rule="evenodd" fill-opacity="1" /><path clip-path="url(#clip040)" d="M753.839 1449.29 L772.196 1449.29 L772.196 1453.23 L758.122 1453.23 L758.122 1461.7 Q759.14 1461.35 760.159 1461.19 Q761.177 1461 762.196 1461 Q767.983 1461 771.362 1464.18 Q774.742 1467.35 774.742 1472.76 Q774.742 1478.34 771.27 1481.44 Q767.798 1484.52 761.478 1484.52 Q759.302 1484.52 757.034 1484.15 Q754.788 1483.78 752.381 1483.04 L752.381 1478.34 Q754.464 1479.48 756.687 1480.03 Q758.909 1480.59 761.386 1480.59 Q765.39 1480.59 767.728 1478.48 Q770.066 1476.38 770.066 1472.76 Q770.066 1469.15 767.728 1467.05 Q765.39 1464.94 761.386 1464.94 Q759.511 1464.94 757.636 1465.36 Q755.784 1465.77 753.839 1466.65 L753.839 1449.29 Z" fill="#000000" fill-rule="evenodd" fill-opacity="1" /><path clip-path="url(#clip040)" d="M1230.8 1449.29 L1249.16 1449.29 L1249.16 1453.23 L1235.08 1453.23 L1235.08 1461.7 Q1236.1 1461.35 1237.12 1461.19 Q1238.14 1461 1239.16 1461 Q1244.94 1461 1248.32 1464.18 Q1251.7 1467.35 1251.7 1472.76 Q1251.7 1478.34 1248.23 1481.44 Q1244.76 1484.52 1238.44 1484.52 Q1236.26 1484.52 1233.99 1484.15 Q1231.75 1483.78 1229.34 1483.04 L1229.34 1478.34 Q1231.42 1479.48 1233.65 1480.03 Q1235.87 1480.59 1238.34 1480.59 Q1242.35 1480.59 1244.69 1478.48 Q1247.03 1476.38 1247.03 1472.76 Q1247.03 1469.15 1244.69 1467.05 Q1242.35 1464.94 1238.34 1464.94 Q1236.47 1464.94 1234.59 1465.36 Q1232.74 1465.77 1230.8 1466.65 L1230.8 1449.29 Z" fill="#000000" fill-rule="evenodd" fill-opacity="1" /><path clip-path="url(#clip040)" d="M1270.91 1452.37 Q1267.3 1452.37 1265.47 1455.94 Q1263.67 1459.48 1263.67 1466.61 Q1263.67 1473.71 1265.47 1477.28 Q1267.3 1480.82 1270.91 1480.82 Q1274.55 1480.82 1276.35 1477.28 Q1278.18 1473.71 1278.18 1466.61 Q1278.18 1459.48 1276.35 1455.94 Q1274.55 1452.37 1270.91 1452.37 M1270.91 1448.67 Q1276.72 1448.67 1279.78 1453.27 Q1282.86 1457.86 1282.86 1466.61 Q1282.86 1475.33 1279.78 1479.94 Q1276.72 1484.52 1270.91 1484.52 Q1265.1 1484.52 1262.03 1479.94 Q1258.97 1475.33 1258.97 1466.61 Q1258.97 1457.86 1262.03 1453.27 Q1265.1 1448.67 1270.91 1448.67 Z" fill="#000000" fill-rule="evenodd" fill-opacity="1" /><path clip-path="url(#clip040)" d="M1737.67 1449.29 L1759.89 1449.29 L1759.89 1451.28 L1747.34 1483.85 L1742.46 1483.85 L1754.26 1453.23 L1737.67 1453.23 L1737.67 1449.29 Z" fill="#000000" fill-rule="evenodd" fill-opacity="1" /><path clip-path="url(#clip040)" d="M1769.05 1449.29 L1787.41 1449.29 L1787.41 1453.23 L1773.34 1453.23 L1773.34 1461.7 Q1774.35 1461.35 1775.37 1461.19 Q1776.39 1461 1777.41 1461 Q1783.2 1461 1786.58 1464.18 Q1789.96 1467.35 1789.96 1472.76 Q1789.96 1478.34 1786.48 1481.44 Q1783.01 1484.52 1776.69 1484.52 Q1774.52 1484.52 1772.25 1484.15 Q1770 1483.78 1767.6 1483.04 L1767.6 1478.34 Q1769.68 1479.48 1771.9 1480.03 Q1774.12 1480.59 1776.6 1480.59 Q1780.6 1480.59 1782.94 1478.48 Q1785.28 1476.38 1785.28 1472.76 Q1785.28 1469.15 1782.94 1467.05 Q1780.6 1464.94 1776.6 1464.94 Q1774.73 1464.94 1772.85 1465.36 Q1771 1465.77 1769.05 1466.65 L1769.05 1449.29 Z" fill="#000000" fill-rule="evenodd" fill-opacity="1" /><path clip-path="url(#clip040)" d="M2231.13 1479.92 L2238.77 1479.92 L2238.77 1453.55 L2230.46 1455.22 L2230.46 1450.96 L2238.72 1449.29 L2243.4 1449.29 L2243.4 1479.92 L2251.04 1479.92 L2251.04 1483.85 L2231.13 1483.85 L2231.13 1479.92 Z" fill="#000000" fill-rule="evenodd" fill-opacity="1" /><path clip-path="url(#clip040)" d="M2270.48 1452.37 Q2266.87 1452.37 2265.04 1455.94 Q2263.24 1459.48 2263.24 1466.61 Q2263.24 1473.71 2265.04 1477.28 Q2266.87 1480.82 2270.48 1480.82 Q2274.11 1480.82 2275.92 1477.28 Q2277.75 1473.71 2277.75 1466.61 Q2277.75 1459.48 2275.92 1455.94 Q2274.11 1452.37 2270.48 1452.37 M2270.48 1448.67 Q2276.29 1448.67 2279.35 1453.27 Q2282.42 1457.86 2282.42 1466.61 Q2282.42 1475.33 2279.35 1479.94 Q2276.29 1484.52 2270.48 1484.52 Q2264.67 1484.52 2261.59 1479.94 Q2258.54 1475.33 2258.54 1466.61 Q2258.54 1457.86 2261.59 1453.27 Q2264.67 1448.67 2270.48 1448.67 Z" fill="#000000" fill-rule="evenodd" fill-opacity="1" /><path clip-path="url(#clip040)" d="M2300.64 1452.37 Q2297.03 1452.37 2295.2 1455.94 Q2293.4 1459.48 2293.4 1466.61 Q2293.4 1473.71 2295.2 1477.28 Q2297.03 1480.82 2300.64 1480.82 Q2304.28 1480.82 2306.08 1477.28 Q2307.91 1473.71 2307.91 1466.61 Q2307.91 1459.48 2306.08 1455.94 Q2304.28 1452.37 2300.64 1452.37 M2300.64 1448.67 Q2306.45 1448.67 2309.51 1453.27 Q2312.59 1457.86 2312.59 1466.61 Q2312.59 1475.33 2309.51 1479.94 Q2306.45 1484.52 2300.64 1484.52 Q2294.83 1484.52 2291.75 1479.94 Q2288.7 1475.33 2288.7 1466.61 Q2288.7 1457.86 2291.75 1453.27 Q2294.83 1448.67 2300.64 1448.67 Z" fill="#000000" fill-rule="evenodd" fill-opacity="1" /><path clip-path="url(#clip040)" d="M999.707 1520.52 L1008.36 1520.52 L1029.43 1560.28 L1029.43 1520.52 L1035.67 1520.52 L1035.67 1568.04 L1027.02 1568.04 L1005.94 1528.29 L1005.94 1568.04 L999.707 1568.04 L999.707 1520.52 Z" fill="#000000" fill-rule="evenodd" fill-opacity="1" /><path clip-path="url(#clip040)" d="M1047.61 1553.98 L1047.61 1532.4 L1053.46 1532.4 L1053.46 1553.75 Q1053.46 1558.81 1055.44 1561.36 Q1057.41 1563.87 1061.36 1563.87 Q1066.1 1563.87 1068.84 1560.85 Q1071.61 1557.83 1071.61 1552.61 L1071.61 1532.4 L1077.46 1532.4 L1077.46 1568.04 L1071.61 1568.04 L1071.61 1562.57 Q1069.47 1565.82 1066.64 1567.41 Q1063.84 1568.97 1060.12 1568.97 Q1053.97 1568.97 1050.79 1565.15 Q1047.61 1561.33 1047.61 1553.98 M1062.35 1531.54 L1062.35 1531.54 Z" fill="#000000" fill-rule="evenodd" fill-opacity="1" /><path clip-path="url(#clip040)" d="M1117.28 1539.24 Q1119.48 1535.29 1122.53 1533.41 Q1125.59 1531.54 1129.73 1531.54 Q1135.3 1531.54 1138.32 1535.45 Q1141.34 1539.33 1141.34 1546.53 L1141.34 1568.04 L1135.46 1568.04 L1135.46 1546.72 Q1135.46 1541.59 1133.64 1539.11 Q1131.83 1536.63 1128.1 1536.63 Q1123.55 1536.63 1120.91 1539.65 Q1118.27 1542.68 1118.27 1547.9 L1118.27 1568.04 L1112.38 1568.04 L1112.38 1546.72 Q1112.38 1541.56 1110.57 1539.11 Q1108.75 1536.63 1104.96 1536.63 Q1100.48 1536.63 1097.83 1539.68 Q1095.19 1542.71 1095.19 1547.9 L1095.19 1568.04 L1089.3 1568.04 L1089.3 1532.4 L1095.19 1532.4 L1095.19 1537.93 Q1097.2 1534.66 1100 1533.1 Q1102.8 1531.54 1106.65 1531.54 Q1110.53 1531.54 1113.24 1533.51 Q1115.98 1535.48 1117.28 1539.24 Z" fill="#000000" fill-rule="evenodd" fill-opacity="1" /><path clip-path="url(#clip040)" d="M1178.61 1550.25 Q1178.61 1543.79 1175.94 1540.13 Q1173.3 1536.44 1168.65 1536.44 Q1164.01 1536.44 1161.33 1540.13 Q1158.69 1543.79 1158.69 1550.25 Q1158.69 1556.71 1161.33 1560.4 Q1164.01 1564.07 1168.65 1564.07 Q1173.3 1564.07 1175.94 1560.4 Q1178.61 1556.71 1178.61 1550.25 M1158.69 1537.81 Q1160.54 1534.62 1163.34 1533.1 Q1166.17 1531.54 1170.08 1531.54 Q1176.58 1531.54 1180.62 1536.69 Q1184.69 1541.85 1184.69 1550.25 Q1184.69 1558.65 1180.62 1563.81 Q1176.58 1568.97 1170.08 1568.97 Q1166.17 1568.97 1163.34 1567.44 Q1160.54 1565.88 1158.69 1562.7 L1158.69 1568.04 L1152.8 1568.04 L1152.8 1518.52 L1158.69 1518.52 L1158.69 1537.81 Z" fill="#000000" fill-rule="evenodd" fill-opacity="1" /><path clip-path="url(#clip040)" d="M1224.89 1548.76 L1224.89 1551.62 L1197.97 1551.62 Q1198.35 1557.67 1201.59 1560.85 Q1204.87 1564 1210.7 1564 Q1214.07 1564 1217.22 1563.17 Q1220.41 1562.35 1223.52 1560.69 L1223.52 1566.23 Q1220.37 1567.57 1217.06 1568.27 Q1213.75 1568.97 1210.35 1568.97 Q1201.82 1568.97 1196.82 1564 Q1191.86 1559.04 1191.86 1550.57 Q1191.86 1541.82 1196.57 1536.69 Q1201.31 1531.54 1209.33 1531.54 Q1216.52 1531.54 1220.69 1536.18 Q1224.89 1540.8 1224.89 1548.76 M1219.04 1547.04 Q1218.97 1542.23 1216.33 1539.37 Q1213.72 1536.5 1209.39 1536.5 Q1204.49 1536.5 1201.53 1539.27 Q1198.6 1542.04 1198.16 1547.07 L1219.04 1547.04 Z" fill="#000000" fill-rule="evenodd" fill-opacity="1" /><path clip-path="url(#clip040)" d="M1255.16 1537.87 Q1254.18 1537.3 1253 1537.04 Q1251.85 1536.76 1250.45 1536.76 Q1245.49 1536.76 1242.81 1540 Q1240.17 1543.22 1240.17 1549.27 L1240.17 1568.04 L1234.28 1568.04 L1234.28 1532.4 L1240.17 1532.4 L1240.17 1537.93 Q1242.02 1534.69 1244.98 1533.13 Q1247.94 1531.54 1252.17 1531.54 Q1252.78 1531.54 1253.51 1531.63 Q1254.24 1531.7 1255.13 1531.85 L1255.16 1537.87 Z" fill="#000000" fill-rule="evenodd" fill-opacity="1" /><path clip-path="url(#clip040)" d="M1295.84 1536.5 Q1291.13 1536.5 1288.39 1540.19 Q1285.65 1543.85 1285.65 1550.25 Q1285.65 1556.65 1288.36 1560.34 Q1291.1 1564 1295.84 1564 Q1300.52 1564 1303.26 1560.31 Q1305.99 1556.62 1305.99 1550.25 Q1305.99 1543.92 1303.26 1540.23 Q1300.52 1536.5 1295.84 1536.5 M1295.84 1531.54 Q1303.48 1531.54 1307.84 1536.5 Q1312.2 1541.47 1312.2 1550.25 Q1312.2 1559 1307.84 1564 Q1303.48 1568.97 1295.84 1568.97 Q1288.17 1568.97 1283.81 1564 Q1279.48 1559 1279.48 1550.25 Q1279.48 1541.47 1283.81 1536.5 Q1288.17 1531.54 1295.84 1531.54 Z" fill="#000000" fill-rule="evenodd" fill-opacity="1" /><path clip-path="url(#clip040)" d="M1339.95 1518.52 L1339.95 1523.39 L1334.35 1523.39 Q1331.2 1523.39 1329.96 1524.66 Q1328.75 1525.93 1328.75 1529.24 L1328.75 1532.4 L1338.39 1532.4 L1338.39 1536.95 L1328.75 1536.95 L1328.75 1568.04 L1322.86 1568.04 L1322.86 1536.95 L1317.26 1536.95 L1317.26 1532.4 L1322.86 1532.4 L1322.86 1529.91 Q1322.86 1523.96 1325.63 1521.26 Q1328.4 1518.52 1334.42 1518.52 L1339.95 1518.52 Z" fill="#000000" fill-rule="evenodd" fill-opacity="1" /><path clip-path="url(#clip040)" d="M1389.03 1549.81 Q1389.03 1543.44 1386.39 1539.94 Q1383.78 1536.44 1379.04 1536.44 Q1374.33 1536.44 1371.69 1539.94 Q1369.08 1543.44 1369.08 1549.81 Q1369.08 1556.14 1371.69 1559.64 Q1374.33 1563.14 1379.04 1563.14 Q1383.78 1563.14 1386.39 1559.64 Q1389.03 1556.14 1389.03 1549.81 M1394.89 1563.62 Q1394.89 1572.72 1390.85 1577.15 Q1386.81 1581.6 1378.47 1581.6 Q1375.38 1581.6 1372.64 1581.13 Q1369.9 1580.68 1367.33 1579.72 L1367.33 1574.03 Q1369.9 1575.43 1372.42 1576.1 Q1374.93 1576.76 1377.54 1576.76 Q1383.3 1576.76 1386.17 1573.74 Q1389.03 1570.75 1389.03 1564.67 L1389.03 1561.77 Q1387.22 1564.92 1384.39 1566.48 Q1381.55 1568.04 1377.61 1568.04 Q1371.05 1568.04 1367.04 1563.05 Q1363.03 1558.05 1363.03 1549.81 Q1363.03 1541.53 1367.04 1536.53 Q1371.05 1531.54 1377.61 1531.54 Q1381.55 1531.54 1384.39 1533.1 Q1387.22 1534.66 1389.03 1537.81 L1389.03 1532.4 L1394.89 1532.4 L1394.89 1563.62 Z" fill="#000000" fill-rule="evenodd" fill-opacity="1" /><path clip-path="url(#clip040)" d="M1437.44 1548.76 L1437.44 1551.62 L1410.52 1551.62 Q1410.9 1557.67 1414.15 1560.85 Q1417.42 1564 1423.25 1564 Q1426.62 1564 1429.77 1563.17 Q1432.96 1562.35 1436.08 1560.69 L1436.08 1566.23 Q1432.92 1567.57 1429.61 1568.27 Q1426.3 1568.97 1422.9 1568.97 Q1414.37 1568.97 1409.37 1564 Q1404.41 1559.04 1404.41 1550.57 Q1404.41 1541.82 1409.12 1536.69 Q1413.86 1531.54 1421.88 1531.54 Q1429.07 1531.54 1433.24 1536.18 Q1437.44 1540.8 1437.44 1548.76 M1431.59 1547.04 Q1431.52 1542.23 1428.88 1539.37 Q1426.27 1536.5 1421.94 1536.5 Q1417.04 1536.5 1414.08 1539.27 Q1411.15 1542.04 1410.71 1547.07 L1431.59 1547.04 Z" fill="#000000" fill-rule="evenodd" fill-opacity="1" /><path clip-path="url(#clip040)" d="M1476.69 1546.53 L1476.69 1568.04 L1470.83 1568.04 L1470.83 1546.72 Q1470.83 1541.66 1468.86 1539.14 Q1466.89 1536.63 1462.94 1536.63 Q1458.2 1536.63 1455.46 1539.65 Q1452.72 1542.68 1452.72 1547.9 L1452.72 1568.04 L1446.83 1568.04 L1446.83 1532.4 L1452.72 1532.4 L1452.72 1537.93 Q1454.82 1534.72 1457.66 1533.13 Q1460.52 1531.54 1464.24 1531.54 Q1470.39 1531.54 1473.54 1535.36 Q1476.69 1539.14 1476.69 1546.53 Z" fill="#000000" fill-rule="evenodd" fill-opacity="1" /><path clip-path="url(#clip040)" d="M1518.86 1548.76 L1518.86 1551.62 L1491.93 1551.62 Q1492.32 1557.67 1495.56 1560.85 Q1498.84 1564 1504.67 1564 Q1508.04 1564 1511.19 1563.17 Q1514.37 1562.35 1517.49 1560.69 L1517.49 1566.23 Q1514.34 1567.57 1511.03 1568.27 Q1507.72 1568.97 1504.32 1568.97 Q1495.79 1568.97 1490.79 1564 Q1485.82 1559.04 1485.82 1550.57 Q1485.82 1541.82 1490.53 1536.69 Q1495.28 1531.54 1503.3 1531.54 Q1510.49 1531.54 1514.66 1536.18 Q1518.86 1540.8 1518.86 1548.76 M1513.01 1547.04 Q1512.94 1542.23 1510.3 1539.37 Q1507.69 1536.5 1503.36 1536.5 Q1498.46 1536.5 1495.5 1539.27 Q1492.57 1542.04 1492.13 1547.07 L1513.01 1547.04 Z" fill="#000000" fill-rule="evenodd" fill-opacity="1" /><path clip-path="url(#clip040)" d="M1551.2 1533.45 L1551.2 1538.98 Q1548.72 1537.71 1546.04 1537.07 Q1543.37 1536.44 1540.51 1536.44 Q1536.14 1536.44 1533.95 1537.77 Q1531.78 1539.11 1531.78 1541.79 Q1531.78 1543.82 1533.34 1545 Q1534.9 1546.15 1539.61 1547.2 L1541.62 1547.64 Q1547.86 1548.98 1550.47 1551.43 Q1553.11 1553.85 1553.11 1558.21 Q1553.11 1563.17 1549.16 1566.07 Q1545.25 1568.97 1538.37 1568.97 Q1535.51 1568.97 1532.39 1568.39 Q1529.3 1567.85 1525.86 1566.74 L1525.86 1560.69 Q1529.11 1562.38 1532.26 1563.24 Q1535.41 1564.07 1538.5 1564.07 Q1542.64 1564.07 1544.87 1562.66 Q1547.09 1561.23 1547.09 1558.65 Q1547.09 1556.27 1545.47 1554.99 Q1543.88 1553.72 1538.44 1552.54 L1536.4 1552.07 Q1530.96 1550.92 1528.54 1548.56 Q1526.12 1546.18 1526.12 1542.04 Q1526.12 1537.01 1529.68 1534.27 Q1533.25 1531.54 1539.8 1531.54 Q1543.05 1531.54 1545.92 1532.01 Q1548.78 1532.49 1551.2 1533.45 Z" fill="#000000" fill-rule="evenodd" fill-opacity="1" /><polyline clip-path="url(#clip040)" style="stroke:#000000; stroke-linecap:butt; stroke-linejoin:round; stroke-width:4; stroke-opacity:1; fill:none" points="
  200.06,1423.18 200.06,47.2441 
  "/>
<polyline clip-path="url(#clip040)" style="stroke:#000000; stroke-linecap:butt; stroke-linejoin:round; stroke-width:4; stroke-opacity:1; fill:none" points="
  200.06,1384.24 218.957,1384.24 
  "/>
<polyline clip-path="url(#clip040)" style="stroke:#000000; stroke-linecap:butt; stroke-linejoin:round; stroke-width:4; stroke-opacity:1; fill:none" points="
  200.06,1128.88 218.957,1128.88 
  "/>
<polyline clip-path="url(#clip040)" style="stroke:#000000; stroke-linecap:butt; stroke-linejoin:round; stroke-width:4; stroke-opacity:1; fill:none" points="
  200.06,873.529 218.957,873.529 
  "/>
<polyline clip-path="url(#clip040)" style="stroke:#000000; stroke-linecap:butt; stroke-linejoin:round; stroke-width:4; stroke-opacity:1; fill:none" points="
  200.06,618.175 218.957,618.175 
  "/>
<polyline clip-path="url(#clip040)" style="stroke:#000000; stroke-linecap:butt; stroke-linejoin:round; stroke-width:4; stroke-opacity:1; fill:none" points="
  200.06,362.82 218.957,362.82 
  "/>
<polyline clip-path="url(#clip040)" style="stroke:#000000; stroke-linecap:butt; stroke-linejoin:round; stroke-width:4; stroke-opacity:1; fill:none" points="
  200.06,107.466 218.957,107.466 
  "/>
<path clip-path="url(#clip040)" d="M152.115 1370.04 Q148.504 1370.04 146.676 1373.6 Q144.87 1377.14 144.87 1384.27 Q144.87 1391.38 146.676 1394.94 Q148.504 1398.49 152.115 1398.49 Q155.75 1398.49 157.555 1394.94 Q159.384 1391.38 159.384 1384.27 Q159.384 1377.14 157.555 1373.6 Q155.75 1370.04 152.115 1370.04 M152.115 1366.33 Q157.926 1366.33 160.981 1370.94 Q164.06 1375.52 164.06 1384.27 Q164.06 1393 160.981 1397.61 Q157.926 1402.19 152.115 1402.19 Q146.305 1402.19 143.227 1397.61 Q140.171 1393 140.171 1384.27 Q140.171 1375.52 143.227 1370.94 Q146.305 1366.33 152.115 1366.33 Z" fill="#000000" fill-rule="evenodd" fill-opacity="1" /><path clip-path="url(#clip040)" d="M143.157 1111.6 L161.514 1111.6 L161.514 1115.54 L147.44 1115.54 L147.44 1124.01 Q148.458 1123.66 149.477 1123.5 Q150.495 1123.32 151.514 1123.32 Q157.301 1123.32 160.68 1126.49 Q164.06 1129.66 164.06 1135.08 Q164.06 1140.65 160.588 1143.76 Q157.115 1146.84 150.796 1146.84 Q148.62 1146.84 146.352 1146.46 Q144.106 1146.09 141.699 1145.35 L141.699 1140.65 Q143.782 1141.79 146.004 1142.34 Q148.227 1142.9 150.703 1142.9 Q154.708 1142.9 157.046 1140.79 Q159.384 1138.69 159.384 1135.08 Q159.384 1131.46 157.046 1129.36 Q154.708 1127.25 150.703 1127.25 Q148.828 1127.25 146.953 1127.67 Q145.102 1128.09 143.157 1128.96 L143.157 1111.6 Z" fill="#000000" fill-rule="evenodd" fill-opacity="1" /><path clip-path="url(#clip040)" d="M112.764 886.874 L120.403 886.874 L120.403 860.509 L112.093 862.175 L112.093 857.916 L120.356 856.249 L125.032 856.249 L125.032 886.874 L132.671 886.874 L132.671 890.809 L112.764 890.809 L112.764 886.874 Z" fill="#000000" fill-rule="evenodd" fill-opacity="1" /><path clip-path="url(#clip040)" d="M152.115 859.328 Q148.504 859.328 146.676 862.893 Q144.87 866.434 144.87 873.564 Q144.87 880.67 146.676 884.235 Q148.504 887.777 152.115 887.777 Q155.75 887.777 157.555 884.235 Q159.384 880.67 159.384 873.564 Q159.384 866.434 157.555 862.893 Q155.75 859.328 152.115 859.328 M152.115 855.624 Q157.926 855.624 160.981 860.231 Q164.06 864.814 164.06 873.564 Q164.06 882.291 160.981 886.897 Q157.926 891.481 152.115 891.481 Q146.305 891.481 143.227 886.897 Q140.171 882.291 140.171 873.564 Q140.171 864.814 143.227 860.231 Q146.305 855.624 152.115 855.624 Z" fill="#000000" fill-rule="evenodd" fill-opacity="1" /><path clip-path="url(#clip040)" d="M113.759 631.52 L121.398 631.52 L121.398 605.154 L113.088 606.821 L113.088 602.561 L121.352 600.895 L126.028 600.895 L126.028 631.52 L133.666 631.52 L133.666 635.455 L113.759 635.455 L113.759 631.52 Z" fill="#000000" fill-rule="evenodd" fill-opacity="1" /><path clip-path="url(#clip040)" d="M143.157 600.895 L161.514 600.895 L161.514 604.83 L147.44 604.83 L147.44 613.302 Q148.458 612.955 149.477 612.793 Q150.495 612.608 151.514 612.608 Q157.301 612.608 160.68 615.779 Q164.06 618.95 164.06 624.367 Q164.06 629.946 160.588 633.047 Q157.115 636.126 150.796 636.126 Q148.62 636.126 146.352 635.756 Q144.106 635.385 141.699 634.645 L141.699 629.946 Q143.782 631.08 146.004 631.635 Q148.227 632.191 150.703 632.191 Q154.708 632.191 157.046 630.084 Q159.384 627.978 159.384 624.367 Q159.384 620.756 157.046 618.649 Q154.708 616.543 150.703 616.543 Q148.828 616.543 146.953 616.96 Q145.102 617.376 143.157 618.256 L143.157 600.895 Z" fill="#000000" fill-rule="evenodd" fill-opacity="1" /><path clip-path="url(#clip040)" d="M115.981 376.165 L132.301 376.165 L132.301 380.1 L110.356 380.1 L110.356 376.165 Q113.018 373.411 117.602 368.781 Q122.208 364.128 123.389 362.786 Q125.634 360.262 126.514 358.526 Q127.417 356.767 127.417 355.077 Q127.417 352.323 125.472 350.587 Q123.551 348.85 120.449 348.85 Q118.25 348.85 115.796 349.614 Q113.366 350.378 110.588 351.929 L110.588 347.207 Q113.412 346.073 115.866 345.494 Q118.319 344.915 120.356 344.915 Q125.727 344.915 128.921 347.601 Q132.116 350.286 132.116 354.776 Q132.116 356.906 131.305 358.827 Q130.518 360.725 128.412 363.318 Q127.833 363.989 124.731 367.207 Q121.629 370.401 115.981 376.165 Z" fill="#000000" fill-rule="evenodd" fill-opacity="1" /><path clip-path="url(#clip040)" d="M152.115 348.619 Q148.504 348.619 146.676 352.184 Q144.87 355.725 144.87 362.855 Q144.87 369.961 146.676 373.526 Q148.504 377.068 152.115 377.068 Q155.75 377.068 157.555 373.526 Q159.384 369.961 159.384 362.855 Q159.384 355.725 157.555 352.184 Q155.75 348.619 152.115 348.619 M152.115 344.915 Q157.926 344.915 160.981 349.522 Q164.06 354.105 164.06 362.855 Q164.06 371.582 160.981 376.188 Q157.926 380.772 152.115 380.772 Q146.305 380.772 143.227 376.188 Q140.171 371.582 140.171 362.855 Q140.171 354.105 143.227 349.522 Q146.305 344.915 152.115 344.915 Z" fill="#000000" fill-rule="evenodd" fill-opacity="1" /><path clip-path="url(#clip040)" d="M116.977 120.811 L133.296 120.811 L133.296 124.746 L111.352 124.746 L111.352 120.811 Q114.014 118.056 118.597 113.426 Q123.204 108.774 124.384 107.431 Q126.629 104.908 127.509 103.172 Q128.412 101.413 128.412 99.7228 Q128.412 96.9682 126.467 95.2321 Q124.546 93.496 121.444 93.496 Q119.245 93.496 116.792 94.2599 Q114.361 95.0238 111.583 96.5747 L111.583 91.8525 Q114.407 90.7183 116.861 90.1396 Q119.315 89.5609 121.352 89.5609 Q126.722 89.5609 129.916 92.246 Q133.111 94.9312 133.111 99.4219 Q133.111 101.552 132.301 103.473 Q131.514 105.371 129.407 107.964 Q128.829 108.635 125.727 111.852 Q122.625 115.047 116.977 120.811 Z" fill="#000000" fill-rule="evenodd" fill-opacity="1" /><path clip-path="url(#clip040)" d="M143.157 90.1858 L161.514 90.1858 L161.514 94.121 L147.44 94.121 L147.44 102.593 Q148.458 102.246 149.477 102.084 Q150.495 101.899 151.514 101.899 Q157.301 101.899 160.68 105.07 Q164.06 108.241 164.06 113.658 Q164.06 119.237 160.588 122.338 Q157.115 125.417 150.796 125.417 Q148.62 125.417 146.352 125.047 Q144.106 124.676 141.699 123.936 L141.699 119.237 Q143.782 120.371 146.004 120.926 Q148.227 121.482 150.703 121.482 Q154.708 121.482 157.046 119.376 Q159.384 117.269 159.384 113.658 Q159.384 110.047 157.046 107.94 Q154.708 105.834 150.703 105.834 Q148.828 105.834 146.953 106.251 Q145.102 106.667 143.157 107.547 L143.157 90.1858 Z" fill="#000000" fill-rule="evenodd" fill-opacity="1" /><path clip-path="url(#clip040)" d="M16.8527 751.163 L28.2536 752.484 Q29.2842 752.58 29.6063 752.741 Q29.8961 752.902 29.8961 753.418 Q29.8961 754.191 29.1232 754.191 Q28.8011 754.191 27.9315 754.062 Q26.1602 753.869 24.3567 753.869 Q22.3277 753.869 21.0717 754.255 Q19.7835 754.609 18.8495 755.64 Q17.9155 756.67 17.5291 758.571 Q17.1104 760.471 17.1104 763.498 L17.1104 772.194 Q17.1104 774.319 17.4969 774.835 Q17.8833 775.318 19.6868 775.769 L36.4339 779.988 L36.4339 773.997 Q36.4339 769.81 35.2101 768.168 Q33.9863 766.525 30.0893 765.495 Q29.4774 765.334 29.252 765.269 Q28.9943 765.173 28.8655 765.012 Q28.7045 764.819 28.7045 764.496 Q28.7045 764.207 28.8977 764.013 Q29.0588 763.82 29.252 763.756 L29.4452 763.691 Q29.7673 763.691 30.508 763.885 L44.8074 767.524 Q45.7736 767.781 45.999 767.943 Q46.1923 768.071 46.1923 768.522 Q46.1923 768.844 45.9668 769.07 Q45.7414 769.295 45.3871 769.295 Q45.0007 769.231 44.6786 769.102 Q42.714 768.651 41.458 768.651 Q40.6529 768.651 40.1698 768.812 Q39.6867 768.973 39.268 769.521 Q38.8493 770.068 38.6561 771.195 Q38.4629 772.323 38.4629 774.126 L38.4629 780.503 L54.8879 784.593 L56.4015 784.883 Q57.0779 784.883 57.3355 784.529 Q57.5931 784.142 57.722 782.757 Q57.883 780.696 57.883 779.343 Q57.883 777.669 57.9474 777.475 Q58.1406 777.089 58.6559 777.089 Q59.2356 777.089 59.5577 777.347 Q59.8476 777.604 59.8798 777.83 Q59.912 778.055 59.912 778.474 L59.7187 788.297 L59.912 796.992 Q59.912 797.991 59.1068 797.991 Q58.4949 797.991 58.2373 797.733 Q57.9474 797.475 57.9152 797.185 Q57.883 796.896 57.883 796.155 Q57.883 794.545 57.7864 793.578 Q57.6898 792.612 57.5609 792 Q57.3999 791.356 56.949 791.034 Q56.4981 790.68 56.1117 790.519 Q55.693 790.358 54.759 790.132 L19.8801 781.437 Q18.6885 781.115 18.302 781.115 Q17.8833 781.115 17.6257 781.405 Q17.368 781.662 17.2714 782.371 Q17.1426 783.079 17.1426 783.659 Q17.1104 784.206 17.1104 785.398 Q17.1104 786.171 17.0782 786.493 Q17.046 786.783 16.8849 787.008 Q16.7239 787.234 16.3696 787.234 Q15.4679 787.234 15.2746 786.847 Q15.0492 786.429 15.0492 785.269 L15.0492 752.935 Q15.0492 751.646 15.3391 751.357 Q15.5967 751.034 16.8527 751.163 Z" fill="#000000" fill-rule="evenodd" fill-opacity="1" /><path clip-path="url(#clip040)" d="M16.8527 709.185 L28.2536 710.505 Q29.2842 710.602 29.6063 710.763 Q29.8961 710.924 29.8961 711.439 Q29.8961 712.212 29.1232 712.212 Q28.8011 712.212 27.9315 712.083 Q26.1602 711.89 24.3567 711.89 Q22.3277 711.89 21.0717 712.277 Q19.7835 712.631 18.8495 713.661 Q17.9155 714.692 17.5291 716.592 Q17.1104 718.492 17.1104 721.52 L17.1104 730.215 Q17.1104 732.341 17.4969 732.856 Q17.8833 733.339 19.6868 733.79 L36.4339 738.009 L36.4339 732.019 Q36.4339 727.832 35.2101 726.19 Q33.9863 724.547 30.0893 723.516 Q29.4774 723.355 29.252 723.291 Q28.9943 723.194 28.8655 723.033 Q28.7045 722.84 28.7045 722.518 Q28.7045 722.228 28.8977 722.035 Q29.0588 721.842 29.252 721.777 L29.4452 721.713 Q29.7673 721.713 30.508 721.906 L44.8074 725.545 Q45.7736 725.803 45.999 725.964 Q46.1923 726.093 46.1923 726.544 Q46.1923 726.866 45.9668 727.091 Q45.7414 727.317 45.3871 727.317 Q45.0007 727.252 44.6786 727.124 Q42.714 726.673 41.458 726.673 Q40.6529 726.673 40.1698 726.834 Q39.6867 726.995 39.268 727.542 Q38.8493 728.09 38.6561 729.217 Q38.4629 730.344 38.4629 732.148 L38.4629 738.524 L54.8879 742.615 L56.4015 742.904 Q57.0779 742.904 57.3355 742.55 Q57.5931 742.164 57.722 740.779 Q57.883 738.718 57.883 737.365 Q57.883 735.69 57.9474 735.497 Q58.1406 735.111 58.6559 735.111 Q59.2356 735.111 59.5577 735.368 Q59.8476 735.626 59.8798 735.851 Q59.912 736.077 59.912 736.495 L59.7187 746.318 L59.912 755.014 Q59.912 756.012 59.1068 756.012 Q58.4949 756.012 58.2373 755.755 Q57.9474 755.497 57.9152 755.207 Q57.883 754.917 57.883 754.176 Q57.883 752.566 57.7864 751.6 Q57.6898 750.634 57.5609 750.022 Q57.3999 749.378 56.949 749.056 Q56.4981 748.701 56.1117 748.54 Q55.693 748.379 54.759 748.154 L19.8801 739.458 Q18.6885 739.136 18.302 739.136 Q17.8833 739.136 17.6257 739.426 Q17.368 739.684 17.2714 740.392 Q17.1426 741.101 17.1426 741.681 Q17.1104 742.228 17.1104 743.42 Q17.1104 744.193 17.0782 744.515 Q17.046 744.805 16.8849 745.03 Q16.7239 745.255 16.3696 745.255 Q15.4679 745.255 15.2746 744.869 Q15.0492 744.45 15.0492 743.291 L15.0492 710.956 Q15.0492 709.668 15.3391 709.378 Q15.5967 709.056 16.8527 709.185 Z" fill="#000000" fill-rule="evenodd" fill-opacity="1" /><path clip-path="url(#clip040)" d="M59.009 678.35 Q62.3004 678.35 65.4791 680.018 Q68.6579 681.664 70.6192 684.257 Q72.558 686.849 72.558 689.487 Q72.558 691.065 71.7013 692.124 Q70.8221 693.161 69.5822 693.725 Q71.1152 694.153 74.7899 695.078 Q78.4645 696.002 78.8252 696.002 Q79.0281 696.002 79.1183 695.957 Q79.2085 695.912 79.3212 695.709 Q79.4565 695.506 79.5016 695.01 Q79.5692 694.514 79.5692 693.68 Q79.5692 693.252 79.5692 693.094 Q79.5917 692.913 79.7045 692.756 Q79.8172 692.575 80.0652 692.575 Q80.9895 692.575 80.9895 693.409 Q80.9895 694.153 80.9218 695.686 Q80.8542 697.219 80.8542 697.986 Q80.8542 698.64 80.9218 699.947 Q80.9895 701.255 80.9895 701.863 Q80.9895 702.472 80.4484 702.472 Q80.1328 702.472 79.9299 702.382 Q79.7496 702.314 79.6594 702.134 Q79.5917 701.954 79.5692 701.796 Q79.5692 701.661 79.5692 701.39 Q79.5692 700.353 79.3888 699.902 Q79.231 699.451 78.8929 699.293 Q78.5773 699.113 77.6755 698.91 L57.1153 693.725 Q55.7401 693.409 54.7707 693.409 Q53.5533 693.409 53.1024 693.793 Q52.6515 694.176 52.6515 694.852 Q52.6515 696.025 54.0493 696.791 Q55.447 697.558 58.1523 698.211 Q58.8963 698.414 59.0541 698.549 Q59.2119 698.662 59.2119 699 Q59.1893 699.564 58.7384 699.564 Q58.6257 699.564 57.9043 699.384 Q57.1604 699.203 56.0782 698.865 Q54.9736 698.504 54.2747 698.121 Q53.8013 697.896 53.4857 697.693 Q53.1701 697.49 52.6741 697.084 Q52.1781 696.656 51.9076 696.047 Q51.6371 695.438 51.6371 694.694 Q51.6371 693.252 52.4937 692.057 Q53.3504 690.862 55.0863 690.546 Q53.5758 689.261 52.6065 687.683 Q51.6371 686.105 51.6371 684.505 Q51.6371 681.844 53.7111 680.108 Q55.7626 678.35 59.009 678.35 M56.98 681.687 Q54.9285 681.687 53.8013 682.476 Q52.6515 683.242 52.6515 684.64 Q52.6515 686.376 54.41 688.382 Q56.0782 690.366 57.6338 690.772 L66.674 693.049 L67.4179 693.184 Q67.5532 693.184 67.959 693.116 Q68.3422 693.026 68.9735 692.778 Q69.6047 692.508 70.1683 692.147 Q70.7094 691.764 71.1152 691.087 Q71.521 690.389 71.521 689.532 Q71.521 688.157 70.3036 686.669 Q69.0862 685.158 66.7867 684.031 Q65.2988 683.332 62.0975 682.521 Q58.8737 681.687 56.98 681.687 Z" fill="#000000" fill-rule="evenodd" fill-opacity="1" /><circle clip-path="url(#clip042)" cx="260.985" cy="682.714" r="21" fill="#0000ff" fill-rule="evenodd" fill-opacity="1" stroke="none"/>
<circle clip-path="url(#clip042)" cx="464.07" cy="160.782" r="21" fill="#0000ff" fill-rule="evenodd" fill-opacity="1" stroke="none"/>
<circle clip-path="url(#clip042)" cx="667.154" cy="113.294" r="21" fill="#0000ff" fill-rule="evenodd" fill-opacity="1" stroke="none"/>
<circle clip-path="url(#clip042)" cx="870.239" cy="95.5014" r="21" fill="#0000ff" fill-rule="evenodd" fill-opacity="1" stroke="none"/>
<circle clip-path="url(#clip042)" cx="1073.32" cy="86.1857" r="21" fill="#0000ff" fill-rule="evenodd" fill-opacity="1" stroke="none"/>
<circle clip-path="url(#clip042)" cx="1276.41" cy="1384.24" r="21" fill="#0000ff" fill-rule="evenodd" fill-opacity="1" stroke="none"/>
<circle clip-path="url(#clip042)" cx="1479.49" cy="1384.24" r="21" fill="#0000ff" fill-rule="evenodd" fill-opacity="1" stroke="none"/>
<circle clip-path="url(#clip042)" cx="1682.58" cy="1384.24" r="21" fill="#0000ff" fill-rule="evenodd" fill-opacity="1" stroke="none"/>
<circle clip-path="url(#clip042)" cx="1885.66" cy="1384.24" r="21" fill="#0000ff" fill-rule="evenodd" fill-opacity="1" stroke="none"/>
<circle clip-path="url(#clip042)" cx="2088.75" cy="1384.24" r="21" fill="#0000ff" fill-rule="evenodd" fill-opacity="1" stroke="none"/>
<circle clip-path="url(#clip042)" cx="2291.83" cy="1384.24" r="21" fill="#0000ff" fill-rule="evenodd" fill-opacity="1" stroke="none"/>
<circle clip-path="url(#clip042)" cx="260.985" cy="686.959" r="21" fill="#ff00ff" fill-rule="evenodd" fill-opacity="1" stroke="none"/>
<circle clip-path="url(#clip042)" cx="464.07" cy="267.85" r="21" fill="#ff00ff" fill-rule="evenodd" fill-opacity="1" stroke="none"/>
<circle clip-path="url(#clip042)" cx="667.154" cy="231.896" r="21" fill="#ff00ff" fill-rule="evenodd" fill-opacity="1" stroke="none"/>
<circle clip-path="url(#clip042)" cx="870.239" cy="218.49" r="21" fill="#ff00ff" fill-rule="evenodd" fill-opacity="1" stroke="none"/>
<circle clip-path="url(#clip042)" cx="1073.32" cy="211.484" r="21" fill="#ff00ff" fill-rule="evenodd" fill-opacity="1" stroke="none"/>
<circle clip-path="url(#clip042)" cx="1276.41" cy="1384.24" r="21" fill="#ff00ff" fill-rule="evenodd" fill-opacity="1" stroke="none"/>
<circle clip-path="url(#clip042)" cx="1479.49" cy="1384.24" r="21" fill="#ff00ff" fill-rule="evenodd" fill-opacity="1" stroke="none"/>
<circle clip-path="url(#clip042)" cx="1682.58" cy="1384.24" r="21" fill="#ff00ff" fill-rule="evenodd" fill-opacity="1" stroke="none"/>
<circle clip-path="url(#clip042)" cx="1885.66" cy="1384.24" r="21" fill="#ff00ff" fill-rule="evenodd" fill-opacity="1" stroke="none"/>
<circle clip-path="url(#clip042)" cx="2088.75" cy="1384.24" r="21" fill="#ff00ff" fill-rule="evenodd" fill-opacity="1" stroke="none"/>
<circle clip-path="url(#clip042)" cx="2291.83" cy="1384.24" r="21" fill="#ff00ff" fill-rule="evenodd" fill-opacity="1" stroke="none"/>
<path clip-path="url(#clip040)" d="
M1682.79 248.629 L2281 248.629 L2281 93.1086 L1682.79 93.1086  Z
  " fill="#ffffff" fill-rule="evenodd" fill-opacity="1"/>
<polyline clip-path="url(#clip040)" style="stroke:#000000; stroke-linecap:butt; stroke-linejoin:round; stroke-width:4; stroke-opacity:1; fill:none" points="
  1682.79,248.629 2281,248.629 2281,93.1086 1682.79,93.1086 1682.79,248.629 
  "/>
<circle clip-path="url(#clip040)" cx="1778.46" cy="144.949" r="23" fill="#0000ff" fill-rule="evenodd" fill-opacity="1" stroke="none"/>
<path clip-path="url(#clip040)" d="M1874.14 127.669 L1894 127.669 L1894 131.604 L1878.81 131.604 L1878.81 141.789 L1892.52 141.789 L1892.52 145.724 L1878.81 145.724 L1878.81 162.229 L1874.14 162.229 L1874.14 127.669 Z" fill="#000000" fill-rule="evenodd" fill-opacity="1" /><path clip-path="url(#clip040)" d="M1898.19 151.997 L1898.19 136.303 L1902.45 136.303 L1902.45 151.835 Q1902.45 155.516 1903.88 157.368 Q1905.32 159.196 1908.19 159.196 Q1911.64 159.196 1913.63 156.997 Q1915.64 154.798 1915.64 151.002 L1915.64 136.303 L1919.9 136.303 L1919.9 162.229 L1915.64 162.229 L1915.64 158.247 Q1914.09 160.608 1912.03 161.766 Q1909.99 162.9 1907.28 162.9 Q1902.82 162.9 1900.5 160.122 Q1898.19 157.344 1898.19 151.997 M1908.9 135.678 L1908.9 135.678 Z" fill="#000000" fill-rule="evenodd" fill-opacity="1" /><path clip-path="url(#clip040)" d="M1928.67 126.21 L1932.93 126.21 L1932.93 162.229 L1928.67 162.229 L1928.67 126.21 Z" fill="#000000" fill-rule="evenodd" fill-opacity="1" /><path clip-path="url(#clip040)" d="M1941.84 126.21 L1946.1 126.21 L1946.1 162.229 L1941.84 162.229 L1941.84 126.21 Z" fill="#000000" fill-rule="evenodd" fill-opacity="1" /><path clip-path="url(#clip040)" d="M1990.27 141.28 Q1991.87 138.409 1994.09 137.044 Q1996.31 135.678 1999.32 135.678 Q2003.37 135.678 2005.57 138.525 Q2007.77 141.349 2007.77 146.581 L2007.77 162.229 L2003.49 162.229 L2003.49 146.719 Q2003.49 142.993 2002.17 141.187 Q2000.85 139.382 1998.14 139.382 Q1994.83 139.382 1992.91 141.581 Q1990.99 143.78 1990.99 147.576 L1990.99 162.229 L1986.7 162.229 L1986.7 146.719 Q1986.7 142.969 1985.39 141.187 Q1984.07 139.382 1981.31 139.382 Q1978.05 139.382 1976.13 141.604 Q1974.2 143.803 1974.2 147.576 L1974.2 162.229 L1969.92 162.229 L1969.92 136.303 L1974.2 136.303 L1974.2 140.331 Q1975.66 137.946 1977.7 136.812 Q1979.74 135.678 1982.54 135.678 Q1985.36 135.678 1987.33 137.113 Q1989.32 138.548 1990.27 141.28 Z" fill="#000000" fill-rule="evenodd" fill-opacity="1" /><path clip-path="url(#clip040)" d="M2026.31 139.289 Q2022.89 139.289 2020.89 141.974 Q2018.9 144.636 2018.9 149.289 Q2018.9 153.942 2020.87 156.627 Q2022.86 159.289 2026.31 159.289 Q2029.71 159.289 2031.7 156.604 Q2033.7 153.918 2033.7 149.289 Q2033.7 144.682 2031.7 141.997 Q2029.71 139.289 2026.31 139.289 M2026.31 135.678 Q2031.87 135.678 2035.04 139.289 Q2038.21 142.9 2038.21 149.289 Q2038.21 155.655 2035.04 159.289 Q2031.87 162.9 2026.31 162.9 Q2020.73 162.9 2017.56 159.289 Q2014.41 155.655 2014.41 149.289 Q2014.41 142.9 2017.56 139.289 Q2020.73 135.678 2026.31 135.678 Z" fill="#000000" fill-rule="evenodd" fill-opacity="1" /><path clip-path="url(#clip040)" d="M2062.33 140.238 L2062.33 126.21 L2066.59 126.21 L2066.59 162.229 L2062.33 162.229 L2062.33 158.34 Q2060.99 160.655 2058.93 161.789 Q2056.89 162.9 2054.02 162.9 Q2049.32 162.9 2046.36 159.15 Q2043.42 155.4 2043.42 149.289 Q2043.42 143.178 2046.36 139.428 Q2049.32 135.678 2054.02 135.678 Q2056.89 135.678 2058.93 136.812 Q2060.99 137.923 2062.33 140.238 M2047.82 149.289 Q2047.82 153.988 2049.74 156.673 Q2051.68 159.335 2055.06 159.335 Q2058.44 159.335 2060.38 156.673 Q2062.33 153.988 2062.33 149.289 Q2062.33 144.59 2060.38 141.928 Q2058.44 139.243 2055.06 139.243 Q2051.68 139.243 2049.74 141.928 Q2047.82 144.59 2047.82 149.289 Z" fill="#000000" fill-rule="evenodd" fill-opacity="1" /><path clip-path="url(#clip040)" d="M2097.54 148.201 L2097.54 150.284 L2077.95 150.284 Q2078.23 154.682 2080.59 156.997 Q2082.98 159.289 2087.21 159.289 Q2089.67 159.289 2091.96 158.687 Q2094.27 158.085 2096.54 156.881 L2096.54 160.909 Q2094.25 161.881 2091.84 162.391 Q2089.44 162.9 2086.96 162.9 Q2080.76 162.9 2077.12 159.289 Q2073.51 155.678 2073.51 149.52 Q2073.51 143.155 2076.94 139.428 Q2080.38 135.678 2086.22 135.678 Q2091.45 135.678 2094.48 139.057 Q2097.54 142.414 2097.54 148.201 M2093.28 146.951 Q2093.23 143.456 2091.31 141.372 Q2089.41 139.289 2086.26 139.289 Q2082.7 139.289 2080.55 141.303 Q2078.42 143.317 2078.09 146.974 L2093.28 146.951 Z" fill="#000000" fill-rule="evenodd" fill-opacity="1" /><path clip-path="url(#clip040)" d="M2104.53 126.21 L2108.79 126.21 L2108.79 162.229 L2104.53 162.229 L2104.53 126.21 Z" fill="#000000" fill-rule="evenodd" fill-opacity="1" /><circle clip-path="url(#clip040)" cx="1778.46" cy="196.789" r="23" fill="#ff00ff" fill-rule="evenodd" fill-opacity="1" stroke="none"/>
<path clip-path="url(#clip040)" d="M1890.52 197.865 Q1892.03 198.374 1893.44 200.041 Q1894.88 201.708 1896.31 204.624 L1901.06 214.069 L1896.03 214.069 L1891.61 205.203 Q1889.9 201.731 1888.28 200.596 Q1886.68 199.462 1883.9 199.462 L1878.81 199.462 L1878.81 214.069 L1874.14 214.069 L1874.14 179.509 L1884.69 179.509 Q1890.62 179.509 1893.53 181.985 Q1896.45 184.462 1896.45 189.462 Q1896.45 192.726 1894.92 194.879 Q1893.42 197.032 1890.52 197.865 M1878.81 183.351 L1878.81 195.62 L1884.69 195.62 Q1888.07 195.62 1889.78 194.069 Q1891.52 192.495 1891.52 189.462 Q1891.52 186.43 1889.78 184.902 Q1888.07 183.351 1884.69 183.351 L1878.81 183.351 Z" fill="#000000" fill-rule="evenodd" fill-opacity="1" /><path clip-path="url(#clip040)" d="M1926.94 200.041 L1926.94 202.124 L1907.35 202.124 Q1907.63 206.522 1909.99 208.837 Q1912.38 211.129 1916.61 211.129 Q1919.07 211.129 1921.36 210.527 Q1923.67 209.925 1925.94 208.721 L1925.94 212.749 Q1923.65 213.721 1921.24 214.231 Q1918.83 214.74 1916.36 214.74 Q1910.15 214.74 1906.52 211.129 Q1902.91 207.518 1902.91 201.36 Q1902.91 194.995 1906.33 191.268 Q1909.78 187.518 1915.62 187.518 Q1920.85 187.518 1923.88 190.897 Q1926.94 194.254 1926.94 200.041 M1922.68 198.791 Q1922.63 195.296 1920.71 193.212 Q1918.81 191.129 1915.66 191.129 Q1912.1 191.129 1909.95 193.143 Q1907.82 195.157 1907.49 198.814 L1922.68 198.791 Z" fill="#000000" fill-rule="evenodd" fill-opacity="1" /><path clip-path="url(#clip040)" d="M1950.99 192.078 L1950.99 178.05 L1955.25 178.05 L1955.25 214.069 L1950.99 214.069 L1950.99 210.18 Q1949.64 212.495 1947.58 213.629 Q1945.55 214.74 1942.68 214.74 Q1937.98 214.74 1935.02 210.99 Q1932.08 207.24 1932.08 201.129 Q1932.08 195.018 1935.02 191.268 Q1937.98 187.518 1942.68 187.518 Q1945.55 187.518 1947.58 188.652 Q1949.64 189.763 1950.99 192.078 M1936.47 201.129 Q1936.47 205.828 1938.39 208.513 Q1940.34 211.175 1943.72 211.175 Q1947.1 211.175 1949.04 208.513 Q1950.99 205.828 1950.99 201.129 Q1950.99 196.43 1949.04 193.768 Q1947.1 191.083 1943.72 191.083 Q1940.34 191.083 1938.39 193.768 Q1936.47 196.43 1936.47 201.129 Z" fill="#000000" fill-rule="evenodd" fill-opacity="1" /><path clip-path="url(#clip040)" d="M1963.58 203.837 L1963.58 188.143 L1967.84 188.143 L1967.84 203.675 Q1967.84 207.356 1969.27 209.208 Q1970.71 211.036 1973.58 211.036 Q1977.03 211.036 1979.02 208.837 Q1981.03 206.638 1981.03 202.842 L1981.03 188.143 L1985.29 188.143 L1985.29 214.069 L1981.03 214.069 L1981.03 210.087 Q1979.48 212.448 1977.42 213.606 Q1975.39 214.74 1972.68 214.74 Q1968.21 214.74 1965.89 211.962 Q1963.58 209.184 1963.58 203.837 M1974.3 187.518 L1974.3 187.518 Z" fill="#000000" fill-rule="evenodd" fill-opacity="1" /><path clip-path="url(#clip040)" d="M2012.72 189.138 L2012.72 193.12 Q2010.92 192.124 2009.09 191.638 Q2007.28 191.129 2005.43 191.129 Q2001.29 191.129 1999 193.768 Q1996.7 196.384 1996.7 201.129 Q1996.7 205.874 1999 208.513 Q2001.29 211.129 2005.43 211.129 Q2007.28 211.129 2009.09 210.643 Q2010.92 210.133 2012.72 209.138 L2012.72 213.073 Q2010.94 213.907 2009.02 214.323 Q2007.12 214.74 2004.97 214.74 Q1999.11 214.74 1995.66 211.059 Q1992.21 207.379 1992.21 201.129 Q1992.21 194.786 1995.69 191.152 Q1999.18 187.518 2005.25 187.518 Q2007.21 187.518 2009.09 187.935 Q2010.96 188.328 2012.72 189.138 Z" fill="#000000" fill-rule="evenodd" fill-opacity="1" /><path clip-path="url(#clip040)" d="M2042.31 200.041 L2042.31 202.124 L2022.72 202.124 Q2023 206.522 2025.36 208.837 Q2027.75 211.129 2031.98 211.129 Q2034.44 211.129 2036.73 210.527 Q2039.04 209.925 2041.31 208.721 L2041.31 212.749 Q2039.02 213.721 2036.61 214.231 Q2034.2 214.74 2031.73 214.74 Q2025.52 214.74 2021.89 211.129 Q2018.28 207.518 2018.28 201.36 Q2018.28 194.995 2021.7 191.268 Q2025.15 187.518 2030.99 187.518 Q2036.22 187.518 2039.25 190.897 Q2042.31 194.254 2042.31 200.041 M2038.05 198.791 Q2038 195.296 2036.08 193.212 Q2034.18 191.129 2031.03 191.129 Q2027.47 191.129 2025.32 193.143 Q2023.19 195.157 2022.86 198.814 L2038.05 198.791 Z" fill="#000000" fill-rule="evenodd" fill-opacity="1" /><path clip-path="url(#clip040)" d="M2066.36 192.078 L2066.36 178.05 L2070.62 178.05 L2070.62 214.069 L2066.36 214.069 L2066.36 210.18 Q2065.01 212.495 2062.95 213.629 Q2060.92 214.74 2058.05 214.74 Q2053.35 214.74 2050.38 210.99 Q2047.45 207.24 2047.45 201.129 Q2047.45 195.018 2050.38 191.268 Q2053.35 187.518 2058.05 187.518 Q2060.92 187.518 2062.95 188.652 Q2065.01 189.763 2066.36 192.078 M2051.84 201.129 Q2051.84 205.828 2053.76 208.513 Q2055.71 211.175 2059.09 211.175 Q2062.47 211.175 2064.41 208.513 Q2066.36 205.828 2066.36 201.129 Q2066.36 196.43 2064.41 193.768 Q2062.47 191.083 2059.09 191.083 Q2055.71 191.083 2053.76 193.768 Q2051.84 196.43 2051.84 201.129 Z" fill="#000000" fill-rule="evenodd" fill-opacity="1" /><path clip-path="url(#clip040)" d="M2114.64 193.12 Q2116.24 190.249 2118.46 188.884 Q2120.69 187.518 2123.69 187.518 Q2127.75 187.518 2129.94 190.365 Q2132.14 193.189 2132.14 198.421 L2132.14 214.069 L2127.86 214.069 L2127.86 198.559 Q2127.86 194.833 2126.54 193.027 Q2125.22 191.222 2122.51 191.222 Q2119.2 191.222 2117.28 193.421 Q2115.36 195.62 2115.36 199.416 L2115.36 214.069 L2111.08 214.069 L2111.08 198.559 Q2111.08 194.809 2109.76 193.027 Q2108.44 191.222 2105.69 191.222 Q2102.42 191.222 2100.5 193.444 Q2098.58 195.643 2098.58 199.416 L2098.58 214.069 L2094.3 214.069 L2094.3 188.143 L2098.58 188.143 L2098.58 192.171 Q2100.04 189.786 2102.07 188.652 Q2104.11 187.518 2106.91 187.518 Q2109.74 187.518 2111.7 188.953 Q2113.69 190.388 2114.64 193.12 Z" fill="#000000" fill-rule="evenodd" fill-opacity="1" /><path clip-path="url(#clip040)" d="M2150.69 191.129 Q2147.26 191.129 2145.27 193.814 Q2143.28 196.476 2143.28 201.129 Q2143.28 205.782 2145.25 208.467 Q2147.24 211.129 2150.69 211.129 Q2154.09 211.129 2156.08 208.444 Q2158.07 205.758 2158.07 201.129 Q2158.07 196.522 2156.08 193.837 Q2154.09 191.129 2150.69 191.129 M2150.69 187.518 Q2156.24 187.518 2159.41 191.129 Q2162.58 194.74 2162.58 201.129 Q2162.58 207.495 2159.41 211.129 Q2156.24 214.74 2150.69 214.74 Q2145.11 214.74 2141.94 211.129 Q2138.79 207.495 2138.79 201.129 Q2138.79 194.74 2141.94 191.129 Q2145.11 187.518 2150.69 187.518 Z" fill="#000000" fill-rule="evenodd" fill-opacity="1" /><path clip-path="url(#clip040)" d="M2186.7 192.078 L2186.7 178.05 L2190.96 178.05 L2190.96 214.069 L2186.7 214.069 L2186.7 210.18 Q2185.36 212.495 2183.3 213.629 Q2181.26 214.74 2178.39 214.74 Q2173.69 214.74 2170.73 210.99 Q2167.79 207.24 2167.79 201.129 Q2167.79 195.018 2170.73 191.268 Q2173.69 187.518 2178.39 187.518 Q2181.26 187.518 2183.3 188.652 Q2185.36 189.763 2186.7 192.078 M2172.19 201.129 Q2172.19 205.828 2174.11 208.513 Q2176.06 211.175 2179.44 211.175 Q2182.81 211.175 2184.76 208.513 Q2186.7 205.828 2186.7 201.129 Q2186.7 196.43 2184.76 193.768 Q2182.81 191.083 2179.44 191.083 Q2176.06 191.083 2174.11 193.768 Q2172.19 196.43 2172.19 201.129 Z" fill="#000000" fill-rule="evenodd" fill-opacity="1" /><path clip-path="url(#clip040)" d="M2221.91 200.041 L2221.91 202.124 L2202.33 202.124 Q2202.61 206.522 2204.97 208.837 Q2207.35 211.129 2211.59 211.129 Q2214.04 211.129 2216.33 210.527 Q2218.65 209.925 2220.92 208.721 L2220.92 212.749 Q2218.62 213.721 2216.22 214.231 Q2213.81 214.74 2211.33 214.74 Q2205.13 214.74 2201.5 211.129 Q2197.88 207.518 2197.88 201.36 Q2197.88 194.995 2201.31 191.268 Q2204.76 187.518 2210.59 187.518 Q2215.82 187.518 2218.86 190.897 Q2221.91 194.254 2221.91 200.041 M2217.65 198.791 Q2217.61 195.296 2215.68 193.212 Q2213.79 191.129 2210.64 191.129 Q2207.07 191.129 2204.92 193.143 Q2202.79 195.157 2202.47 198.814 L2217.65 198.791 Z" fill="#000000" fill-rule="evenodd" fill-opacity="1" /><path clip-path="url(#clip040)" d="M2228.9 178.05 L2233.16 178.05 L2233.16 214.069 L2228.9 214.069 L2228.9 178.05 Z" fill="#000000" fill-rule="evenodd" fill-opacity="1" /></svg>
