<?xml version="1.0" encoding="utf-8"?>
<svg xmlns="http://www.w3.org/2000/svg" xmlns:xlink="http://www.w3.org/1999/xlink" width="600" height="400" viewBox="0 0 2400 1600">
<defs>
  <clipPath id="clip850">
    <rect x="0" y="0" width="2400" height="1600"/>
  </clipPath>
</defs>
<path clip-path="url(#clip850)" d="
M0 1600 L2400 1600 L2400 0 L0 0  Z
  " fill="#ffffff" fill-rule="evenodd" fill-opacity="1"/>
<defs>
  <clipPath id="clip851">
    <rect x="480" y="0" width="1681" height="1600"/>
  </clipPath>
</defs>
<defs>
  <clipPath id="clip852">
    <rect x="275" y="47" width="2078" height="1405"/>
  </clipPath>
</defs>
<path clip-path="url(#clip850)" d="
M275.736 1450.96 L2352.76 1450.96 L2352.76 47.2441 L275.736 47.2441  Z
  " fill="#ffffff" fill-rule="evenodd" fill-opacity="1"/>
<polyline clip-path="url(#clip850)" style="stroke:#000000; stroke-linecap:butt; stroke-linejoin:round; stroke-width:4; stroke-opacity:1; fill:none" points="
  275.736,1450.96 2352.76,1450.96 
  "/>
<polyline clip-path="url(#clip850)" style="stroke:#000000; stroke-linecap:butt; stroke-linejoin:round; stroke-width:4; stroke-opacity:1; fill:none" points="
  334.52,1450.96 334.52,1432.06 
  "/>
<polyline clip-path="url(#clip850)" style="stroke:#000000; stroke-linecap:butt; stroke-linejoin:round; stroke-width:4; stroke-opacity:1; fill:none" points="
  769.954,1450.96 769.954,1432.06 
  "/>
<polyline clip-path="url(#clip850)" style="stroke:#000000; stroke-linecap:butt; stroke-linejoin:round; stroke-width:4; stroke-opacity:1; fill:none" points="
  1205.39,1450.96 1205.39,1432.06 
  "/>
<polyline clip-path="url(#clip850)" style="stroke:#000000; stroke-linecap:butt; stroke-linejoin:round; stroke-width:4; stroke-opacity:1; fill:none" points="
  1640.82,1450.96 1640.82,1432.06 
  "/>
<polyline clip-path="url(#clip850)" style="stroke:#000000; stroke-linecap:butt; stroke-linejoin:round; stroke-width:4; stroke-opacity:1; fill:none" points="
  2076.26,1450.96 2076.26,1432.06 
  "/>
<path clip-path="url(#clip850)" d="M308.281 1493 Q311.638 1493.72 313.513 1495.98 Q315.411 1498.25 315.411 1501.59 Q315.411 1506.7 311.892 1509.5 Q308.374 1512.3 301.892 1512.3 Q299.717 1512.3 297.402 1511.86 Q295.11 1511.45 292.656 1510.59 L292.656 1506.08 Q294.601 1507.21 296.916 1507.79 Q299.23 1508.37 301.754 1508.37 Q306.152 1508.37 308.443 1506.63 Q310.758 1504.9 310.758 1501.59 Q310.758 1498.53 308.605 1496.82 Q306.476 1495.08 302.656 1495.08 L298.629 1495.08 L298.629 1491.24 L302.842 1491.24 Q306.291 1491.24 308.119 1489.87 Q309.948 1488.48 309.948 1485.89 Q309.948 1483.23 308.05 1481.82 Q306.175 1480.38 302.656 1480.38 Q300.735 1480.38 298.536 1480.8 Q296.337 1481.22 293.698 1482.1 L293.698 1477.93 Q296.36 1477.19 298.675 1476.82 Q301.013 1476.45 303.073 1476.45 Q308.397 1476.45 311.499 1478.88 Q314.601 1481.29 314.601 1485.41 Q314.601 1488.28 312.957 1490.27 Q311.314 1492.23 308.281 1493 Z" fill="#000000" fill-rule="evenodd" fill-opacity="1" /><path clip-path="url(#clip850)" d="M334.277 1480.15 Q330.665 1480.15 328.837 1483.72 Q327.031 1487.26 327.031 1494.39 Q327.031 1501.49 328.837 1505.06 Q330.665 1508.6 334.277 1508.6 Q337.911 1508.6 339.716 1505.06 Q341.545 1501.49 341.545 1494.39 Q341.545 1487.26 339.716 1483.72 Q337.911 1480.15 334.277 1480.15 M334.277 1476.45 Q340.087 1476.45 343.142 1481.05 Q346.221 1485.64 346.221 1494.39 Q346.221 1503.11 343.142 1507.72 Q340.087 1512.3 334.277 1512.3 Q328.466 1512.3 325.388 1507.72 Q322.332 1503.11 322.332 1494.39 Q322.332 1485.64 325.388 1481.05 Q328.466 1476.45 334.277 1476.45 Z" fill="#000000" fill-rule="evenodd" fill-opacity="1" /><path clip-path="url(#clip850)" d="M364.438 1480.15 Q360.827 1480.15 358.999 1483.72 Q357.193 1487.26 357.193 1494.39 Q357.193 1501.49 358.999 1505.06 Q360.827 1508.6 364.438 1508.6 Q368.073 1508.6 369.878 1505.06 Q371.707 1501.49 371.707 1494.39 Q371.707 1487.26 369.878 1483.72 Q368.073 1480.15 364.438 1480.15 M364.438 1476.45 Q370.249 1476.45 373.304 1481.05 Q376.383 1485.64 376.383 1494.39 Q376.383 1503.11 373.304 1507.72 Q370.249 1512.3 364.438 1512.3 Q358.628 1512.3 355.55 1507.72 Q352.494 1503.11 352.494 1494.39 Q352.494 1485.64 355.55 1481.05 Q358.628 1476.45 364.438 1476.45 Z" fill="#000000" fill-rule="evenodd" fill-opacity="1" /><path clip-path="url(#clip850)" d="M743.715 1493 Q747.072 1493.72 748.947 1495.98 Q750.845 1498.25 750.845 1501.59 Q750.845 1506.7 747.326 1509.5 Q743.808 1512.3 737.326 1512.3 Q735.15 1512.3 732.836 1511.86 Q730.544 1511.45 728.09 1510.59 L728.09 1506.08 Q730.035 1507.21 732.35 1507.79 Q734.664 1508.37 737.187 1508.37 Q741.586 1508.37 743.877 1506.63 Q746.192 1504.9 746.192 1501.59 Q746.192 1498.53 744.039 1496.82 Q741.91 1495.08 738.09 1495.08 L734.063 1495.08 L734.063 1491.24 L738.275 1491.24 Q741.725 1491.24 743.553 1489.87 Q745.382 1488.48 745.382 1485.89 Q745.382 1483.23 743.484 1481.82 Q741.609 1480.38 738.09 1480.38 Q736.169 1480.38 733.97 1480.8 Q731.771 1481.22 729.132 1482.1 L729.132 1477.93 Q731.794 1477.19 734.109 1476.82 Q736.447 1476.45 738.507 1476.45 Q743.831 1476.45 746.933 1478.88 Q750.035 1481.29 750.035 1485.41 Q750.035 1488.28 748.391 1490.27 Q746.748 1492.23 743.715 1493 Z" fill="#000000" fill-rule="evenodd" fill-opacity="1" /><path clip-path="url(#clip850)" d="M759.757 1477.07 L778.113 1477.07 L778.113 1481.01 L764.039 1481.01 L764.039 1489.48 Q765.058 1489.13 766.076 1488.97 Q767.095 1488.79 768.113 1488.79 Q773.9 1488.79 777.28 1491.96 Q780.659 1495.13 780.659 1500.54 Q780.659 1506.12 777.187 1509.22 Q773.715 1512.3 767.396 1512.3 Q765.22 1512.3 762.951 1511.93 Q760.706 1511.56 758.298 1510.82 L758.298 1506.12 Q760.382 1507.26 762.604 1507.81 Q764.826 1508.37 767.303 1508.37 Q771.308 1508.37 773.646 1506.26 Q775.984 1504.16 775.984 1500.54 Q775.984 1496.93 773.646 1494.83 Q771.308 1492.72 767.303 1492.72 Q765.428 1492.72 763.553 1493.14 Q761.701 1493.55 759.757 1494.43 L759.757 1477.07 Z" fill="#000000" fill-rule="evenodd" fill-opacity="1" /><path clip-path="url(#clip850)" d="M799.872 1480.15 Q796.261 1480.15 794.433 1483.72 Q792.627 1487.26 792.627 1494.39 Q792.627 1501.49 794.433 1505.06 Q796.261 1508.6 799.872 1508.6 Q803.507 1508.6 805.312 1505.06 Q807.141 1501.49 807.141 1494.39 Q807.141 1487.26 805.312 1483.72 Q803.507 1480.15 799.872 1480.15 M799.872 1476.45 Q805.682 1476.45 808.738 1481.05 Q811.817 1485.64 811.817 1494.39 Q811.817 1503.11 808.738 1507.72 Q805.682 1512.3 799.872 1512.3 Q794.062 1512.3 790.983 1507.72 Q787.928 1503.11 787.928 1494.39 Q787.928 1485.64 790.983 1481.05 Q794.062 1476.45 799.872 1476.45 Z" fill="#000000" fill-rule="evenodd" fill-opacity="1" /><path clip-path="url(#clip850)" d="M1178.48 1481.15 L1166.67 1499.6 L1178.48 1499.6 L1178.48 1481.15 M1177.25 1477.07 L1183.13 1477.07 L1183.13 1499.6 L1188.06 1499.6 L1188.06 1503.48 L1183.13 1503.48 L1183.13 1511.63 L1178.48 1511.63 L1178.48 1503.48 L1162.88 1503.48 L1162.88 1498.97 L1177.25 1477.07 Z" fill="#000000" fill-rule="evenodd" fill-opacity="1" /><path clip-path="url(#clip850)" d="M1205.79 1480.15 Q1202.18 1480.15 1200.35 1483.72 Q1198.55 1487.26 1198.55 1494.39 Q1198.55 1501.49 1200.35 1505.06 Q1202.18 1508.6 1205.79 1508.6 Q1209.43 1508.6 1211.23 1505.06 Q1213.06 1501.49 1213.06 1494.39 Q1213.06 1487.26 1211.23 1483.72 Q1209.43 1480.15 1205.79 1480.15 M1205.79 1476.45 Q1211.6 1476.45 1214.66 1481.05 Q1217.74 1485.64 1217.74 1494.39 Q1217.74 1503.11 1214.66 1507.72 Q1211.6 1512.3 1205.79 1512.3 Q1199.98 1512.3 1196.9 1507.72 Q1193.85 1503.11 1193.85 1494.39 Q1193.85 1485.64 1196.9 1481.05 Q1199.98 1476.45 1205.79 1476.45 Z" fill="#000000" fill-rule="evenodd" fill-opacity="1" /><path clip-path="url(#clip850)" d="M1235.95 1480.15 Q1232.34 1480.15 1230.51 1483.72 Q1228.71 1487.26 1228.71 1494.39 Q1228.71 1501.49 1230.51 1505.06 Q1232.34 1508.6 1235.95 1508.6 Q1239.59 1508.6 1241.39 1505.06 Q1243.22 1501.49 1243.22 1494.39 Q1243.22 1487.26 1241.39 1483.72 Q1239.59 1480.15 1235.95 1480.15 M1235.95 1476.45 Q1241.76 1476.45 1244.82 1481.05 Q1247.9 1485.64 1247.9 1494.39 Q1247.9 1503.11 1244.82 1507.72 Q1241.76 1512.3 1235.95 1512.3 Q1230.14 1512.3 1227.07 1507.72 Q1224.01 1503.11 1224.01 1494.39 Q1224.01 1485.64 1227.07 1481.05 Q1230.14 1476.45 1235.95 1476.45 Z" fill="#000000" fill-rule="evenodd" fill-opacity="1" /><path clip-path="url(#clip850)" d="M1613.91 1481.15 L1602.11 1499.6 L1613.91 1499.6 L1613.91 1481.15 M1612.68 1477.07 L1618.56 1477.07 L1618.56 1499.6 L1623.5 1499.6 L1623.5 1503.48 L1618.56 1503.48 L1618.56 1511.63 L1613.91 1511.63 L1613.91 1503.48 L1598.31 1503.48 L1598.31 1498.97 L1612.68 1477.07 Z" fill="#000000" fill-rule="evenodd" fill-opacity="1" /><path clip-path="url(#clip850)" d="M1631.27 1477.07 L1649.63 1477.07 L1649.63 1481.01 L1635.56 1481.01 L1635.56 1489.48 Q1636.57 1489.13 1637.59 1488.97 Q1638.61 1488.79 1639.63 1488.79 Q1645.42 1488.79 1648.8 1491.96 Q1652.18 1495.13 1652.18 1500.54 Q1652.18 1506.12 1648.7 1509.22 Q1645.23 1512.3 1638.91 1512.3 Q1636.74 1512.3 1634.47 1511.93 Q1632.22 1511.56 1629.81 1510.82 L1629.81 1506.12 Q1631.9 1507.26 1634.12 1507.81 Q1636.34 1508.37 1638.82 1508.37 Q1642.82 1508.37 1645.16 1506.26 Q1647.5 1504.16 1647.5 1500.54 Q1647.5 1496.93 1645.16 1494.83 Q1642.82 1492.72 1638.82 1492.72 Q1636.94 1492.72 1635.07 1493.14 Q1633.22 1493.55 1631.27 1494.43 L1631.27 1477.07 Z" fill="#000000" fill-rule="evenodd" fill-opacity="1" /><path clip-path="url(#clip850)" d="M1671.39 1480.15 Q1667.78 1480.15 1665.95 1483.72 Q1664.14 1487.26 1664.14 1494.39 Q1664.14 1501.49 1665.95 1505.06 Q1667.78 1508.6 1671.39 1508.6 Q1675.02 1508.6 1676.83 1505.06 Q1678.66 1501.49 1678.66 1494.39 Q1678.66 1487.26 1676.83 1483.72 Q1675.02 1480.15 1671.39 1480.15 M1671.39 1476.45 Q1677.2 1476.45 1680.25 1481.05 Q1683.33 1485.64 1683.33 1494.39 Q1683.33 1503.11 1680.25 1507.72 Q1677.2 1512.3 1671.39 1512.3 Q1665.58 1512.3 1662.5 1507.72 Q1659.44 1503.11 1659.44 1494.39 Q1659.44 1485.64 1662.5 1481.05 Q1665.58 1476.45 1671.39 1476.45 Z" fill="#000000" fill-rule="evenodd" fill-opacity="1" /><path clip-path="url(#clip850)" d="M2035.87 1477.07 L2054.23 1477.07 L2054.23 1481.01 L2040.16 1481.01 L2040.16 1489.48 Q2041.17 1489.13 2042.19 1488.97 Q2043.21 1488.79 2044.23 1488.79 Q2050.02 1488.79 2053.4 1491.96 Q2056.78 1495.13 2056.78 1500.54 Q2056.78 1506.12 2053.3 1509.22 Q2049.83 1512.3 2043.51 1512.3 Q2041.34 1512.3 2039.07 1511.93 Q2036.82 1511.56 2034.42 1510.82 L2034.42 1506.12 Q2036.5 1507.26 2038.72 1507.81 Q2040.94 1508.37 2043.42 1508.37 Q2047.42 1508.37 2049.76 1506.26 Q2052.1 1504.16 2052.1 1500.54 Q2052.1 1496.93 2049.76 1494.83 Q2047.42 1492.72 2043.42 1492.72 Q2041.54 1492.72 2039.67 1493.14 Q2037.82 1493.55 2035.87 1494.43 L2035.87 1477.07 Z" fill="#000000" fill-rule="evenodd" fill-opacity="1" /><path clip-path="url(#clip850)" d="M2075.99 1480.15 Q2072.38 1480.15 2070.55 1483.72 Q2068.74 1487.26 2068.74 1494.39 Q2068.74 1501.49 2070.55 1505.06 Q2072.38 1508.6 2075.99 1508.6 Q2079.62 1508.6 2081.43 1505.06 Q2083.26 1501.49 2083.26 1494.39 Q2083.26 1487.26 2081.43 1483.72 Q2079.62 1480.15 2075.99 1480.15 M2075.99 1476.45 Q2081.8 1476.45 2084.85 1481.05 Q2087.93 1485.64 2087.93 1494.39 Q2087.93 1503.11 2084.85 1507.72 Q2081.8 1512.3 2075.99 1512.3 Q2070.18 1512.3 2067.1 1507.72 Q2064.04 1503.11 2064.04 1494.39 Q2064.04 1485.64 2067.1 1481.05 Q2070.18 1476.45 2075.99 1476.45 Z" fill="#000000" fill-rule="evenodd" fill-opacity="1" /><path clip-path="url(#clip850)" d="M2106.15 1480.15 Q2102.54 1480.15 2100.71 1483.72 Q2098.91 1487.26 2098.91 1494.39 Q2098.91 1501.49 2100.71 1505.06 Q2102.54 1508.6 2106.15 1508.6 Q2109.79 1508.6 2111.59 1505.06 Q2113.42 1501.49 2113.42 1494.39 Q2113.42 1487.26 2111.59 1483.72 Q2109.79 1480.15 2106.15 1480.15 M2106.15 1476.45 Q2111.96 1476.45 2115.02 1481.05 Q2118.1 1485.64 2118.1 1494.39 Q2118.1 1503.11 2115.02 1507.72 Q2111.96 1512.3 2106.15 1512.3 Q2100.34 1512.3 2097.26 1507.72 Q2094.21 1503.11 2094.21 1494.39 Q2094.21 1485.64 2097.26 1481.05 Q2100.34 1476.45 2106.15 1476.45 Z" fill="#000000" fill-rule="evenodd" fill-opacity="1" /><path clip-path="url(#clip850)" d="M1326.38 1539.85 Q1326.38 1541.56 1325.26 1542.65 Q1324.16 1543.75 1322.75 1543.75 Q1321.52 1543.75 1320.88 1543.04 Q1320.23 1542.33 1320.23 1541.43 Q1320.23 1540.14 1321.23 1539.08 Q1322.23 1538.02 1323.68 1537.79 Q1322.62 1537.02 1320.91 1537.02 Q1318.11 1537.02 1315.63 1539.18 Q1314.53 1540.17 1313.34 1542.01 Q1312.15 1543.81 1311.92 1544.59 L1309.83 1553.18 Q1309.64 1554.15 1308.45 1558.79 Q1307.29 1563.39 1307.19 1563.59 Q1306.87 1564.49 1306.16 1564.97 Q1305.45 1565.46 1304.74 1565.46 Q1303.94 1565.46 1303.39 1564.97 Q1302.84 1564.49 1302.84 1563.65 Q1302.84 1563.52 1302.94 1563.04 Q1303.04 1562.56 1303.2 1561.88 Q1303.36 1561.2 1303.42 1560.82 L1307.25 1545.58 Q1307.96 1542.81 1308.12 1541.94 Q1308.32 1541.04 1308.32 1540.04 Q1308.32 1538.31 1307.77 1537.66 Q1307.22 1537.02 1306.26 1537.02 Q1304.58 1537.02 1303.49 1539.01 Q1302.39 1541.01 1301.46 1544.88 Q1301.17 1545.94 1300.97 1546.16 Q1300.81 1546.39 1300.33 1546.39 Q1299.52 1546.36 1299.52 1545.71 Q1299.52 1545.55 1299.78 1544.52 Q1300.04 1543.46 1300.52 1541.91 Q1301.04 1540.33 1301.59 1539.34 Q1301.91 1538.66 1302.2 1538.21 Q1302.49 1537.76 1303.07 1537.05 Q1303.65 1536.34 1304.52 1535.95 Q1305.39 1535.57 1306.45 1535.57 Q1308.77 1535.57 1310.41 1536.99 Q1312.09 1538.4 1312.47 1540.62 Q1313.28 1539.46 1314.28 1538.47 Q1315.27 1537.44 1317.11 1536.5 Q1318.94 1535.57 1320.91 1535.57 Q1323.36 1535.57 1324.87 1536.82 Q1326.38 1538.05 1326.38 1539.85 Z" fill="#000000" fill-rule="evenodd" fill-opacity="1" /><polyline clip-path="url(#clip850)" style="stroke:#000000; stroke-linecap:butt; stroke-linejoin:round; stroke-width:4; stroke-opacity:1; fill:none" points="
  275.736,1450.96 275.736,47.2441 
  "/>
<polyline clip-path="url(#clip850)" style="stroke:#000000; stroke-linecap:butt; stroke-linejoin:round; stroke-width:4; stroke-opacity:1; fill:none" points="
  275.736,1411.23 294.634,1411.23 
  "/>
<polyline clip-path="url(#clip850)" style="stroke:#000000; stroke-linecap:butt; stroke-linejoin:round; stroke-width:4; stroke-opacity:1; fill:none" points="
  275.736,1063.3 294.634,1063.3 
  "/>
<polyline clip-path="url(#clip850)" style="stroke:#000000; stroke-linecap:butt; stroke-linejoin:round; stroke-width:4; stroke-opacity:1; fill:none" points="
  275.736,715.367 294.634,715.367 
  "/>
<polyline clip-path="url(#clip850)" style="stroke:#000000; stroke-linecap:butt; stroke-linejoin:round; stroke-width:4; stroke-opacity:1; fill:none" points="
  275.736,367.434 294.634,367.434 
  "/>
<path clip-path="url(#clip850)" d="M122.237 1397.03 Q118.626 1397.03 116.797 1400.6 Q114.991 1404.14 114.991 1411.27 Q114.991 1418.37 116.797 1421.94 Q118.626 1425.48 122.237 1425.48 Q125.871 1425.48 127.676 1421.94 Q129.505 1418.37 129.505 1411.27 Q129.505 1404.14 127.676 1400.6 Q125.871 1397.03 122.237 1397.03 M122.237 1393.33 Q128.047 1393.33 131.102 1397.93 Q134.181 1402.52 134.181 1411.27 Q134.181 1419.99 131.102 1424.6 Q128.047 1429.18 122.237 1429.18 Q116.426 1429.18 113.348 1424.6 Q110.292 1419.99 110.292 1411.27 Q110.292 1402.52 113.348 1397.93 Q116.426 1393.33 122.237 1393.33 Z" fill="#000000" fill-rule="evenodd" fill-opacity="1" /><path clip-path="url(#clip850)" d="M142.399 1422.63 L147.283 1422.63 L147.283 1428.51 L142.399 1428.51 L142.399 1422.63 Z" fill="#000000" fill-rule="evenodd" fill-opacity="1" /><path clip-path="url(#clip850)" d="M167.468 1397.03 Q163.857 1397.03 162.028 1400.6 Q160.223 1404.14 160.223 1411.27 Q160.223 1418.37 162.028 1421.94 Q163.857 1425.48 167.468 1425.48 Q171.102 1425.48 172.908 1421.94 Q174.736 1418.37 174.736 1411.27 Q174.736 1404.14 172.908 1400.6 Q171.102 1397.03 167.468 1397.03 M167.468 1393.33 Q173.278 1393.33 176.334 1397.93 Q179.412 1402.52 179.412 1411.27 Q179.412 1419.99 176.334 1424.6 Q173.278 1429.18 167.468 1429.18 Q161.658 1429.18 158.579 1424.6 Q155.523 1419.99 155.523 1411.27 Q155.523 1402.52 158.579 1397.93 Q161.658 1393.33 167.468 1393.33 Z" fill="#000000" fill-rule="evenodd" fill-opacity="1" /><path clip-path="url(#clip850)" d="M197.63 1397.03 Q194.019 1397.03 192.19 1400.6 Q190.384 1404.14 190.384 1411.27 Q190.384 1418.37 192.19 1421.94 Q194.019 1425.48 197.63 1425.48 Q201.264 1425.48 203.07 1421.94 Q204.898 1418.37 204.898 1411.27 Q204.898 1404.14 203.07 1400.6 Q201.264 1397.03 197.63 1397.03 M197.63 1393.33 Q203.44 1393.33 206.495 1397.93 Q209.574 1402.52 209.574 1411.27 Q209.574 1419.99 206.495 1424.6 Q203.44 1429.18 197.63 1429.18 Q191.82 1429.18 188.741 1424.6 Q185.685 1419.99 185.685 1411.27 Q185.685 1402.52 188.741 1397.93 Q191.82 1393.33 197.63 1393.33 Z" fill="#000000" fill-rule="evenodd" fill-opacity="1" /><path clip-path="url(#clip850)" d="M227.792 1397.03 Q224.181 1397.03 222.352 1400.6 Q220.546 1404.14 220.546 1411.27 Q220.546 1418.37 222.352 1421.94 Q224.181 1425.48 227.792 1425.48 Q231.426 1425.48 233.231 1421.94 Q235.06 1418.37 235.06 1411.27 Q235.06 1404.14 233.231 1400.6 Q231.426 1397.03 227.792 1397.03 M227.792 1393.33 Q233.602 1393.33 236.657 1397.93 Q239.736 1402.52 239.736 1411.27 Q239.736 1419.99 236.657 1424.6 Q233.602 1429.18 227.792 1429.18 Q221.981 1429.18 218.903 1424.6 Q215.847 1419.99 215.847 1411.27 Q215.847 1402.52 218.903 1397.93 Q221.981 1393.33 227.792 1393.33 Z" fill="#000000" fill-rule="evenodd" fill-opacity="1" /><path clip-path="url(#clip850)" d="M123.232 1049.1 Q119.621 1049.1 117.792 1052.66 Q115.987 1056.2 115.987 1063.33 Q115.987 1070.44 117.792 1074.01 Q119.621 1077.55 123.232 1077.55 Q126.866 1077.55 128.672 1074.01 Q130.5 1070.44 130.5 1063.33 Q130.5 1056.2 128.672 1052.66 Q126.866 1049.1 123.232 1049.1 M123.232 1045.39 Q129.042 1045.39 132.098 1050 Q135.176 1054.58 135.176 1063.33 Q135.176 1072.06 132.098 1076.67 Q129.042 1081.25 123.232 1081.25 Q117.422 1081.25 114.343 1076.67 Q111.288 1072.06 111.288 1063.33 Q111.288 1054.58 114.343 1050 Q117.422 1045.39 123.232 1045.39 Z" fill="#000000" fill-rule="evenodd" fill-opacity="1" /><path clip-path="url(#clip850)" d="M143.394 1074.7 L148.278 1074.7 L148.278 1080.58 L143.394 1080.58 L143.394 1074.7 Z" fill="#000000" fill-rule="evenodd" fill-opacity="1" /><path clip-path="url(#clip850)" d="M168.463 1049.1 Q164.852 1049.1 163.023 1052.66 Q161.218 1056.2 161.218 1063.33 Q161.218 1070.44 163.023 1074.01 Q164.852 1077.55 168.463 1077.55 Q172.097 1077.55 173.903 1074.01 Q175.732 1070.44 175.732 1063.33 Q175.732 1056.2 173.903 1052.66 Q172.097 1049.1 168.463 1049.1 M168.463 1045.39 Q174.273 1045.39 177.329 1050 Q180.408 1054.58 180.408 1063.33 Q180.408 1072.06 177.329 1076.67 Q174.273 1081.25 168.463 1081.25 Q162.653 1081.25 159.574 1076.67 Q156.519 1072.06 156.519 1063.33 Q156.519 1054.58 159.574 1050 Q162.653 1045.39 168.463 1045.39 Z" fill="#000000" fill-rule="evenodd" fill-opacity="1" /><path clip-path="url(#clip850)" d="M198.625 1049.1 Q195.014 1049.1 193.185 1052.66 Q191.38 1056.2 191.38 1063.33 Q191.38 1070.44 193.185 1074.01 Q195.014 1077.55 198.625 1077.55 Q202.259 1077.55 204.065 1074.01 Q205.894 1070.44 205.894 1063.33 Q205.894 1056.2 204.065 1052.66 Q202.259 1049.1 198.625 1049.1 M198.625 1045.39 Q204.435 1045.39 207.491 1050 Q210.569 1054.58 210.569 1063.33 Q210.569 1072.06 207.491 1076.67 Q204.435 1081.25 198.625 1081.25 Q192.815 1081.25 189.736 1076.67 Q186.681 1072.06 186.681 1063.33 Q186.681 1054.58 189.736 1050 Q192.815 1045.39 198.625 1045.39 Z" fill="#000000" fill-rule="evenodd" fill-opacity="1" /><path clip-path="url(#clip850)" d="M218.833 1046.02 L237.19 1046.02 L237.19 1049.95 L223.116 1049.95 L223.116 1058.43 Q224.134 1058.08 225.153 1057.92 Q226.171 1057.73 227.19 1057.73 Q232.977 1057.73 236.356 1060.9 Q239.736 1064.07 239.736 1069.49 Q239.736 1075.07 236.264 1078.17 Q232.792 1081.25 226.472 1081.25 Q224.296 1081.25 222.028 1080.88 Q219.782 1080.51 217.375 1079.77 L217.375 1075.07 Q219.458 1076.2 221.681 1076.76 Q223.903 1077.32 226.38 1077.32 Q230.384 1077.32 232.722 1075.21 Q235.06 1073.1 235.06 1069.49 Q235.06 1065.88 232.722 1063.77 Q230.384 1061.67 226.38 1061.67 Q224.505 1061.67 222.63 1062.08 Q220.778 1062.5 218.833 1063.38 L218.833 1046.02 Z" fill="#000000" fill-rule="evenodd" fill-opacity="1" /><path clip-path="url(#clip850)" d="M122.237 701.165 Q118.626 701.165 116.797 704.73 Q114.991 708.272 114.991 715.401 Q114.991 722.508 116.797 726.072 Q118.626 729.614 122.237 729.614 Q125.871 729.614 127.676 726.072 Q129.505 722.508 129.505 715.401 Q129.505 708.272 127.676 704.73 Q125.871 701.165 122.237 701.165 M122.237 697.462 Q128.047 697.462 131.102 702.068 Q134.181 706.651 134.181 715.401 Q134.181 724.128 131.102 728.735 Q128.047 733.318 122.237 733.318 Q116.426 733.318 113.348 728.735 Q110.292 724.128 110.292 715.401 Q110.292 706.651 113.348 702.068 Q116.426 697.462 122.237 697.462 Z" fill="#000000" fill-rule="evenodd" fill-opacity="1" /><path clip-path="url(#clip850)" d="M142.399 726.767 L147.283 726.767 L147.283 732.647 L142.399 732.647 L142.399 726.767 Z" fill="#000000" fill-rule="evenodd" fill-opacity="1" /><path clip-path="url(#clip850)" d="M167.468 701.165 Q163.857 701.165 162.028 704.73 Q160.223 708.272 160.223 715.401 Q160.223 722.508 162.028 726.072 Q163.857 729.614 167.468 729.614 Q171.102 729.614 172.908 726.072 Q174.736 722.508 174.736 715.401 Q174.736 708.272 172.908 704.73 Q171.102 701.165 167.468 701.165 M167.468 697.462 Q173.278 697.462 176.334 702.068 Q179.412 706.651 179.412 715.401 Q179.412 724.128 176.334 728.735 Q173.278 733.318 167.468 733.318 Q161.658 733.318 158.579 728.735 Q155.523 724.128 155.523 715.401 Q155.523 706.651 158.579 702.068 Q161.658 697.462 167.468 697.462 Z" fill="#000000" fill-rule="evenodd" fill-opacity="1" /><path clip-path="url(#clip850)" d="M188.44 728.711 L196.079 728.711 L196.079 702.346 L187.769 704.012 L187.769 699.753 L196.033 698.087 L200.708 698.087 L200.708 728.711 L208.347 728.711 L208.347 732.647 L188.44 732.647 L188.44 728.711 Z" fill="#000000" fill-rule="evenodd" fill-opacity="1" /><path clip-path="url(#clip850)" d="M227.792 701.165 Q224.181 701.165 222.352 704.73 Q220.546 708.272 220.546 715.401 Q220.546 722.508 222.352 726.072 Q224.181 729.614 227.792 729.614 Q231.426 729.614 233.231 726.072 Q235.06 722.508 235.06 715.401 Q235.06 708.272 233.231 704.73 Q231.426 701.165 227.792 701.165 M227.792 697.462 Q233.602 697.462 236.657 702.068 Q239.736 706.651 239.736 715.401 Q239.736 724.128 236.657 728.735 Q233.602 733.318 227.792 733.318 Q221.981 733.318 218.903 728.735 Q215.847 724.128 215.847 715.401 Q215.847 706.651 218.903 702.068 Q221.981 697.462 227.792 697.462 Z" fill="#000000" fill-rule="evenodd" fill-opacity="1" /><path clip-path="url(#clip850)" d="M123.232 353.232 Q119.621 353.232 117.792 356.797 Q115.987 360.339 115.987 367.468 Q115.987 374.575 117.792 378.14 Q119.621 381.681 123.232 381.681 Q126.866 381.681 128.672 378.14 Q130.5 374.575 130.5 367.468 Q130.5 360.339 128.672 356.797 Q126.866 353.232 123.232 353.232 M123.232 349.529 Q129.042 349.529 132.098 354.135 Q135.176 358.718 135.176 367.468 Q135.176 376.195 132.098 380.802 Q129.042 385.385 123.232 385.385 Q117.422 385.385 114.343 380.802 Q111.288 376.195 111.288 367.468 Q111.288 358.718 114.343 354.135 Q117.422 349.529 123.232 349.529 Z" fill="#000000" fill-rule="evenodd" fill-opacity="1" /><path clip-path="url(#clip850)" d="M143.394 378.834 L148.278 378.834 L148.278 384.714 L143.394 384.714 L143.394 378.834 Z" fill="#000000" fill-rule="evenodd" fill-opacity="1" /><path clip-path="url(#clip850)" d="M168.463 353.232 Q164.852 353.232 163.023 356.797 Q161.218 360.339 161.218 367.468 Q161.218 374.575 163.023 378.14 Q164.852 381.681 168.463 381.681 Q172.097 381.681 173.903 378.14 Q175.732 374.575 175.732 367.468 Q175.732 360.339 173.903 356.797 Q172.097 353.232 168.463 353.232 M168.463 349.529 Q174.273 349.529 177.329 354.135 Q180.408 358.718 180.408 367.468 Q180.408 376.195 177.329 380.802 Q174.273 385.385 168.463 385.385 Q162.653 385.385 159.574 380.802 Q156.519 376.195 156.519 367.468 Q156.519 358.718 159.574 354.135 Q162.653 349.529 168.463 349.529 Z" fill="#000000" fill-rule="evenodd" fill-opacity="1" /><path clip-path="url(#clip850)" d="M189.435 380.778 L197.074 380.778 L197.074 354.413 L188.764 356.079 L188.764 351.82 L197.028 350.154 L201.704 350.154 L201.704 380.778 L209.343 380.778 L209.343 384.714 L189.435 384.714 L189.435 380.778 Z" fill="#000000" fill-rule="evenodd" fill-opacity="1" /><path clip-path="url(#clip850)" d="M218.833 350.154 L237.19 350.154 L237.19 354.089 L223.116 354.089 L223.116 362.561 Q224.134 362.214 225.153 362.052 Q226.171 361.866 227.19 361.866 Q232.977 361.866 236.356 365.038 Q239.736 368.209 239.736 373.626 Q239.736 379.204 236.264 382.306 Q232.792 385.385 226.472 385.385 Q224.296 385.385 222.028 385.014 Q219.782 384.644 217.375 383.903 L217.375 379.204 Q219.458 380.339 221.681 380.894 Q223.903 381.45 226.38 381.45 Q230.384 381.45 232.722 379.343 Q235.06 377.237 235.06 373.626 Q235.06 370.015 232.722 367.908 Q230.384 365.802 226.38 365.802 Q224.505 365.802 222.63 366.218 Q220.778 366.635 218.833 367.515 L218.833 350.154 Z" fill="#000000" fill-rule="evenodd" fill-opacity="1" /><path clip-path="url(#clip850)" d="M29.3925 768.435 Q32.9996 768.435 36.3168 771.108 Q39.634 773.749 41.663 778.065 Q43.6597 782.348 43.6597 786.953 L43.6597 798.161 L60.1491 802.251 Q60.2458 802.283 60.6644 802.38 Q61.0509 802.477 61.2763 802.477 Q62.0815 802.477 62.2747 801.478 Q62.468 800.448 62.468 798.161 Q62.468 796.68 62.7256 796.454 Q62.8866 796.325 63.1765 796.325 Q63.6274 796.325 63.9494 796.454 Q64.2393 796.583 64.3359 796.841 Q64.4325 797.066 64.4647 797.227 Q64.4969 797.388 64.4969 797.646 Q64.4969 798.322 64.4325 799.771 Q64.3681 801.188 64.3681 801.929 L64.3037 806.148 L64.4969 814.522 Q64.4969 815.52 63.6918 815.52 Q63.0799 815.52 62.8222 815.262 Q62.5324 815.005 62.5002 814.715 Q62.468 814.425 62.468 813.684 Q62.468 812.074 62.3713 811.108 Q62.2747 810.142 62.1459 809.53 Q61.9849 808.886 61.534 808.564 Q61.0831 808.209 60.6966 808.048 Q60.278 807.887 59.344 807.662 L23.9175 798.837 Q22.8547 798.58 22.6937 798.58 Q22.1462 798.58 21.953 798.902 Q21.7275 799.192 21.6309 800.029 Q21.5021 801.639 21.5021 802.863 Q21.5021 803.668 21.4699 803.99 Q21.4377 804.28 21.2767 804.538 Q21.0834 804.763 20.697 804.763 Q20.085 804.763 19.8274 804.506 Q19.5375 804.216 19.5053 803.894 Q19.4409 803.572 19.4409 802.799 L19.4409 781.414 Q19.4409 775.263 22.3717 771.849 Q25.3024 768.435 29.3925 768.435 M27.8145 774.554 Q21.5021 774.554 21.5021 783.54 L21.5021 789.852 Q21.5021 791.945 21.8886 792.461 Q22.2428 792.976 24.0142 793.427 L41.9528 797.903 L41.9528 788.596 Q41.9528 782.348 38.4424 778.451 Q36.8321 776.68 33.4827 775.617 Q30.1333 774.554 27.8145 774.554 Z" fill="#000000" fill-rule="evenodd" fill-opacity="1" /><path clip-path="url(#clip850)" d="M48.0075 761.197 Q36.8643 761.197 27.8789 757.043 Q24.1108 755.272 20.9546 752.792 Q17.7984 750.312 16.4136 748.669 Q15.0287 747.027 15.0287 746.576 Q15.0287 745.932 15.6728 745.9 Q15.9949 745.9 16.8 746.769 Q27.6212 757.397 48.0075 757.365 Q68.4582 757.365 78.8607 747.027 Q79.9879 745.9 80.3422 745.9 Q80.9863 745.9 80.9863 746.576 Q80.9863 747.027 79.6659 748.605 Q78.3454 750.183 75.3181 752.631 Q72.2907 755.078 68.5871 756.85 Q59.6016 761.197 48.0075 761.197 Z" fill="#000000" fill-rule="evenodd" fill-opacity="1" /><path clip-path="url(#clip850)" d="M39.634 714.026 Q41.3409 714.026 42.4359 715.154 Q43.5309 716.249 43.5309 717.666 Q43.5309 718.889 42.8224 719.534 Q42.1139 720.178 41.2121 720.178 Q39.9239 720.178 38.8611 719.179 Q37.7983 718.181 37.5728 716.732 Q36.7999 717.794 36.7999 719.501 Q36.7999 722.303 38.9577 724.783 Q39.9561 725.878 41.7918 727.07 Q43.5953 728.261 44.3683 728.487 L52.9672 730.58 Q53.9334 730.773 58.571 731.965 Q63.1765 733.124 63.3697 733.221 Q64.2715 733.543 64.7546 734.252 Q65.2377 734.96 65.2377 735.669 Q65.2377 736.474 64.7546 737.021 Q64.2715 737.569 63.4341 737.569 Q63.3053 737.569 62.8222 737.472 Q62.3391 737.376 61.6628 737.215 Q60.9865 737.054 60.6 736.989 L45.3666 733.157 Q42.5969 732.448 41.7274 732.287 Q40.8256 732.094 39.8272 732.094 Q38.0881 732.094 37.444 732.641 Q36.7999 733.189 36.7999 734.155 Q36.7999 735.83 38.7967 736.925 Q40.7934 738.02 44.6581 738.954 Q45.7209 739.244 45.9464 739.437 Q46.1718 739.598 46.1718 740.081 Q46.1396 740.886 45.4955 740.886 Q45.3344 740.886 44.3039 740.628 Q43.2411 740.371 41.6952 739.888 Q40.1171 739.372 39.1187 738.825 Q38.4424 738.503 37.9915 738.213 Q37.5406 737.923 36.8321 737.343 Q36.1236 736.764 35.7371 735.894 Q35.3506 735.025 35.3506 733.962 Q35.3506 731.643 36.7677 730 Q38.1847 728.326 40.4069 727.939 Q39.2475 727.134 38.2492 726.136 Q37.2186 725.137 36.2846 723.302 Q35.3506 721.466 35.3506 719.501 Q35.3506 717.054 36.6067 715.54 Q37.8305 714.026 39.634 714.026 Z" fill="#000000" fill-rule="evenodd" fill-opacity="1" /><path clip-path="url(#clip850)" d="M80.3422 708.012 Q80.0202 708.012 79.215 707.174 Q68.3938 696.546 48.0075 696.546 Q27.5568 696.546 17.2187 706.756 Q16.0271 708.012 15.6728 708.012 Q15.0287 708.012 15.0287 707.368 Q15.0287 706.917 16.3492 705.339 Q17.6696 703.728 20.697 701.313 Q23.7243 698.865 27.428 697.062 Q36.4134 692.714 48.0075 692.714 Q59.1508 692.714 68.1362 696.868 Q71.9043 698.64 75.0605 701.12 Q78.2166 703.6 79.6015 705.242 Q80.9863 706.885 80.9863 707.368 Q80.9863 708.012 80.3422 708.012 Z" fill="#000000" fill-rule="evenodd" fill-opacity="1" /><polyline clip-path="url(#clip852)" style="stroke:#009fe3; stroke-linecap:butt; stroke-linejoin:round; stroke-width:20; stroke-opacity:0.996078; fill:none" points="
  334.52,1411.23 334.52,1411.23 343.228,1411.23 343.228,1411.23 351.937,1411.23 351.937,1411.23 360.646,1411.23 360.646,1411.23 369.354,1411.23 369.354,1411.23 
  378.063,1411.23 378.063,1411.23 386.772,1411.23 395.48,1411.23 395.48,1411.23 404.189,1411.23 404.189,1411.23 412.898,1411.23 412.898,1411.21 
  421.606,1411.21 421.606,1411.22 430.315,1411.22 430.315,1411.2 439.024,1411.2 447.732,1411.2 447.732,1411.19 456.441,1411.19 456.441,1411.16 
  465.15,1411.16 465.15,1411.2 473.858,1411.2 473.858,1411.14 482.567,1411.14 482.567,1411.1 491.276,1411.1 491.276,1411.13 499.984,1411.13 499.984,1411.07 
  508.693,1411.07 508.693,1411.07 517.402,1411.07 517.402,1411.08 526.111,1411.08 526.111,1411.02 534.819,1411.02 534.819,1410.86 543.528,1410.86 543.528,1410.82 
  552.237,1410.82 552.237,1410.7 560.945,1410.7 560.945,1410.69 569.654,1410.69 569.654,1410.36 578.363,1410.36 578.363,1410.27 587.071,1410.27 587.071,1410.22 
  595.78,1410.22 595.78,1409.81 604.489,1409.81 604.489,1409.92 613.197,1409.92 613.197,1409.48 621.906,1409.48 621.906,1409.01 630.615,1409.01 630.615,1408.47 
  639.323,1408.47 639.323,1408 648.032,1408 648.032,1407.43 656.741,1407.43 656.741,1406.62 665.449,1406.62 665.449,1405.85 674.158,1405.85 674.158,1404.68 
  682.867,1404.68 682.867,1403.64 691.575,1403.64 691.575,1402.39 700.284,1402.39 700.284,1401.09 708.993,1401.09 708.993,1398.59 717.701,1398.59 717.701,1397.52 
  726.41,1397.52 726.41,1394.3 735.119,1394.3 735.119,1391.84 743.827,1391.84 743.827,1389.37 752.536,1389.37 752.536,1385.99 761.245,1385.99 761.245,1381.28 
  769.954,1381.28 769.954,1377.23 778.662,1377.23 778.662,1371.86 787.371,1371.86 787.371,1367.48 796.08,1367.48 796.08,1360.75 804.788,1360.75 804.788,1353.86 
  813.497,1353.86 813.497,1346.33 822.206,1346.33 822.206,1338.06 830.914,1338.06 830.914,1328.4 839.623,1328.4 839.623,1318.4 848.332,1318.4 848.332,1307.88 
  857.04,1307.88 857.04,1294.69 865.749,1294.69 865.749,1281.47 874.458,1281.47 874.458,1267.36 883.166,1267.36 883.166,1251.38 891.875,1251.38 891.875,1235.14 
  900.584,1235.14 900.584,1215.53 909.292,1215.53 909.292,1197.32 918.001,1197.32 918.001,1176.5 926.71,1176.5 926.71,1154.27 935.418,1154.27 935.418,1130.99 
  944.127,1130.99 944.127,1107.06 952.836,1107.06 952.836,1076.96 961.544,1076.96 961.544,1051.11 970.253,1051.11 970.253,1021.18 978.962,1021.18 978.962,995.209 
  987.67,995.209 987.67,962.371 996.379,962.371 996.379,924.154 1005.09,924.154 1005.09,896.939 1013.8,896.939 1013.8,853.106 1022.51,853.106 1022.51,821.096 
  1031.21,821.096 1031.21,783.868 1039.92,783.868 1039.92,747.265 1048.63,747.265 1048.63,707.949 1057.34,707.949 1057.34,668.41 1066.05,668.41 1066.05,626.658 
  1074.76,626.658 1074.76,594.14 1083.47,594.14 1083.47,549.514 1092.17,549.514 1092.17,514.971 1100.88,514.971 1100.88,478.661 1109.59,478.661 1109.59,439.762 
  1118.3,439.762 1118.3,400.453 1127.01,400.453 1127.01,361.505 1135.72,361.505 1135.72,328.215 1144.43,328.215 1144.43,297.068 1153.14,297.068 1153.14,270.493 
  1161.84,270.493 1161.84,238.685 1170.55,238.685 1170.55,216.208 1179.26,216.208 1179.26,184.818 1187.97,184.818 1187.97,167.324 1196.68,167.324 1196.68,148.264 
  1205.39,148.264 1205.39,127.951 1214.1,127.951 1214.1,119.037 1222.8,119.037 1222.8,103.909 1231.51,103.909 1231.51,91.5507 1240.22,91.5507 1240.22,90.3329 
  1248.93,90.3329 1248.93,86.9719 1257.64,86.9719 1257.64,88.0157 1266.35,88.0157 1266.35,94.1045 1275.06,94.1045 1275.06,98.0501 1283.77,98.0501 1283.77,104.974 
  1292.47,104.974 1292.47,116.191 1301.18,116.191 1301.18,126.462 1309.89,126.462 1309.89,152.181 1318.6,152.181 1318.6,171.742 1327.31,171.742 1327.31,190.732 
  1336.02,190.732 1336.02,221.573 1344.73,221.573 1344.73,249.568 1353.44,249.568 1353.44,276.206 1362.14,276.206 1362.14,309.962 1370.85,309.962 1370.85,337.602 
  1379.56,337.602 1379.56,369.201 1388.27,369.201 1388.27,403.528 1396.98,403.528 1396.98,443.04 1405.69,443.04 1405.69,479.412 1414.4,479.412 1414.4,512.793 
  1423.1,512.793 1423.1,553.863 1431.81,553.863 1431.81,591.53 1440.52,591.53 1440.52,625.238 1449.23,625.238 1449.23,662.23 1457.94,662.23 1457.94,704.817 
  1466.65,704.817 1466.65,738.233 1475.36,738.233 1475.36,775.176 1484.07,775.176 1484.07,814.249 1492.77,814.249 1492.77,845.153 1501.48,845.153 1501.48,880.141 
  1510.19,880.141 1510.19,911.643 1518.9,911.643 1518.9,946.436 1527.61,946.436 1527.61,974.096 1536.32,974.096 1536.32,1004.28 1545.03,1004.28 1545.03,1029.81 
  1553.73,1029.81 1553.73,1058.72 1562.44,1058.72 1562.44,1084.66 1571.15,1084.66 1571.15,1109.16 1579.86,1109.16 1579.86,1133.9 1588.57,1133.9 1588.57,1157.83 
  1597.28,1157.83 1597.28,1175.17 1605.99,1175.17 1605.99,1194.62 1614.7,1194.62 1614.7,1214.62 1623.4,1214.62 1623.4,1232.2 1632.11,1232.2 1632.11,1247.68 
  1640.82,1247.68 1640.82,1263.16 1649.53,1263.16 1649.53,1278.55 1658.24,1278.55 1658.24,1288.91 1666.95,1288.91 1666.95,1301.01 1675.66,1301.01 1675.66,1311.31 
  1684.36,1311.31 1684.36,1321.77 1693.07,1321.77 1693.07,1330.49 1701.78,1330.49 1701.78,1338.99 1710.49,1338.99 1710.49,1347.01 1719.2,1347.01 1719.2,1353.73 
  1727.91,1353.73 1727.91,1360.31 1736.62,1360.31 1736.62,1366.52 1745.33,1366.52 1745.33,1371.38 1754.03,1371.38 1754.03,1375.08 1762.74,1375.08 1762.74,1379.06 
  1771.45,1379.06 1771.45,1383.35 1780.16,1383.35 1780.16,1386.81 1788.87,1386.81 1788.87,1389.31 1797.58,1389.31 1797.58,1392.41 1806.29,1392.41 1806.29,1394.07 
  1814.99,1394.07 1814.99,1396.77 1823.7,1396.77 1823.7,1397.98 1832.41,1397.98 1832.41,1400.31 1841.12,1400.31 1841.12,1401.82 1849.83,1401.82 1849.83,1402.82 
  1858.54,1402.82 1858.54,1404.26 1867.25,1404.26 1867.25,1405.21 1875.96,1405.21 1875.96,1405.74 1884.66,1405.74 1884.66,1406.56 1893.37,1406.56 1893.37,1407.44 
  1902.08,1407.44 1902.08,1408.02 1910.79,1408.02 1910.79,1408.33 1919.5,1408.33 1919.5,1408.68 1928.21,1408.68 1928.21,1409.22 1936.92,1409.22 1936.92,1409.5 
  1945.63,1409.5 1945.63,1409.76 1954.33,1409.76 1954.33,1409.99 1963.04,1409.99 1963.04,1410.3 1971.75,1410.3 1971.75,1410.27 1980.46,1410.27 1980.46,1410.51 
  1989.17,1410.51 1989.17,1410.54 1997.88,1410.54 1997.88,1410.79 2006.59,1410.79 2006.59,1410.8 2015.29,1410.8 2015.29,1410.85 2024,1410.85 2024,1410.77 
  2032.71,1410.77 2032.71,1410.95 2041.42,1410.95 2041.42,1410.97 2050.13,1410.97 2050.13,1411.06 2058.84,1411.06 2058.84,1410.99 2067.55,1410.99 2067.55,1411.07 
  2076.26,1411.07 2076.26,1411.11 2084.96,1411.11 2084.96,1411.12 2093.67,1411.12 2093.67,1411.15 2102.38,1411.15 2102.38,1411.18 2111.09,1411.18 2111.09,1411.19 
  2119.8,1411.19 2119.8,1411.2 2128.51,1411.2 2128.51,1411.18 2137.22,1411.18 2137.22,1411.2 2145.92,1411.2 2145.92,1411.22 2154.63,1411.22 
  2163.34,1411.22 2163.34,1411.2 2172.05,1411.2 2172.05,1411.23 2180.76,1411.23 2180.76,1411.22 2189.47,1411.22 2198.18,1411.22 
  2206.89,1411.22 2206.89,1411.21 2215.59,1411.21 2215.59,1411.23 2224.3,1411.23 2224.3,1411.23 2233.01,1411.23 2233.01,1411.23 2241.72,1411.23 
  2250.43,1411.23 2259.14,1411.23 2267.85,1411.23 2276.55,1411.23 2285.26,1411.23 2285.26,1411.23 
  2293.97,1411.23 2293.97,1411.23 
  "/>
<circle clip-path="url(#clip852)" cx="334.52" cy="1411.23" r="14" fill="#ff00ff" fill-rule="evenodd" fill-opacity="1" stroke="none"/>
<circle clip-path="url(#clip852)" cx="421.606" cy="1411.22" r="14" fill="#ff00ff" fill-rule="evenodd" fill-opacity="1" stroke="none"/>
<circle clip-path="url(#clip852)" cx="508.693" cy="1411.06" r="14" fill="#ff00ff" fill-rule="evenodd" fill-opacity="1" stroke="none"/>
<circle clip-path="url(#clip852)" cx="595.78" cy="1409.93" r="14" fill="#ff00ff" fill-rule="evenodd" fill-opacity="1" stroke="none"/>
<circle clip-path="url(#clip852)" cx="682.867" cy="1403.6" r="14" fill="#ff00ff" fill-rule="evenodd" fill-opacity="1" stroke="none"/>
<circle clip-path="url(#clip852)" cx="769.954" cy="1377.25" r="14" fill="#ff00ff" fill-rule="evenodd" fill-opacity="1" stroke="none"/>
<circle clip-path="url(#clip852)" cx="857.04" cy="1295.3" r="14" fill="#ff00ff" fill-rule="evenodd" fill-opacity="1" stroke="none"/>
<circle clip-path="url(#clip852)" cx="944.127" cy="1105.63" r="14" fill="#ff00ff" fill-rule="evenodd" fill-opacity="1" stroke="none"/>
<circle clip-path="url(#clip852)" cx="1031.21" cy="784.183" r="14" fill="#ff00ff" fill-rule="evenodd" fill-opacity="1" stroke="none"/>
<circle clip-path="url(#clip852)" cx="1118.3" cy="402.593" r="14" fill="#ff00ff" fill-rule="evenodd" fill-opacity="1" stroke="none"/>
<circle clip-path="url(#clip852)" cx="1205.39" cy="130.788" r="14" fill="#ff00ff" fill-rule="evenodd" fill-opacity="1" stroke="none"/>
<circle clip-path="url(#clip852)" cx="1292.47" cy="120.198" r="14" fill="#ff00ff" fill-rule="evenodd" fill-opacity="1" stroke="none"/>
<circle clip-path="url(#clip852)" cx="1379.56" cy="371.088" r="14" fill="#ff00ff" fill-rule="evenodd" fill-opacity="1" stroke="none"/>
<circle clip-path="url(#clip852)" cx="1466.65" cy="737.747" r="14" fill="#ff00ff" fill-rule="evenodd" fill-opacity="1" stroke="none"/>
<circle clip-path="url(#clip852)" cx="1553.73" cy="1058.84" r="14" fill="#ff00ff" fill-rule="evenodd" fill-opacity="1" stroke="none"/>
<circle clip-path="url(#clip852)" cx="1640.82" cy="1261.45" r="14" fill="#ff00ff" fill-rule="evenodd" fill-opacity="1" stroke="none"/>
<circle clip-path="url(#clip852)" cx="1727.91" cy="1359.26" r="14" fill="#ff00ff" fill-rule="evenodd" fill-opacity="1" stroke="none"/>
<circle clip-path="url(#clip852)" cx="1814.99" cy="1396.44" r="14" fill="#ff00ff" fill-rule="evenodd" fill-opacity="1" stroke="none"/>
<circle clip-path="url(#clip852)" cx="1902.08" cy="1407.76" r="14" fill="#ff00ff" fill-rule="evenodd" fill-opacity="1" stroke="none"/>
<circle clip-path="url(#clip852)" cx="1989.17" cy="1410.56" r="14" fill="#ff00ff" fill-rule="evenodd" fill-opacity="1" stroke="none"/>
<circle clip-path="url(#clip852)" cx="2076.26" cy="1411.12" r="14" fill="#ff00ff" fill-rule="evenodd" fill-opacity="1" stroke="none"/>
<circle clip-path="url(#clip852)" cx="2163.34" cy="1411.22" r="14" fill="#ff00ff" fill-rule="evenodd" fill-opacity="1" stroke="none"/>
<circle clip-path="url(#clip852)" cx="2250.43" cy="1411.23" r="14" fill="#ff00ff" fill-rule="evenodd" fill-opacity="1" stroke="none"/>
<path clip-path="url(#clip850)" d="
M1606.17 249.555 L2283.52 249.555 L2283.52 94.0346 L1606.17 94.0346  Z
  " fill="#ffffff" fill-rule="evenodd" fill-opacity="1"/>
<polyline clip-path="url(#clip850)" style="stroke:#000000; stroke-linecap:butt; stroke-linejoin:round; stroke-width:4; stroke-opacity:1; fill:none" points="
  1606.17,249.555 2283.52,249.555 2283.52,94.0346 1606.17,94.0346 1606.17,249.555 
  "/>
<polyline clip-path="url(#clip850)" style="stroke:#009fe3; stroke-linecap:butt; stroke-linejoin:round; stroke-width:4; stroke-opacity:0.996078; fill:none" points="
  1629.25,145.875 1767.72,145.875 
  "/>
<path clip-path="url(#clip850)" d="M1813.04 129.729 L1813.04 134.289 Q1810.38 133.016 1808.02 132.391 Q1805.66 131.766 1803.46 131.766 Q1799.64 131.766 1797.55 133.247 Q1795.49 134.729 1795.49 137.46 Q1795.49 139.752 1796.86 140.933 Q1798.25 142.09 1802.09 142.808 L1804.91 143.386 Q1810.15 144.382 1812.62 146.905 Q1815.12 149.405 1815.12 153.618 Q1815.12 158.641 1811.74 161.233 Q1808.39 163.826 1801.88 163.826 Q1799.43 163.826 1796.65 163.27 Q1793.9 162.715 1790.93 161.627 L1790.93 156.812 Q1793.78 158.409 1796.51 159.219 Q1799.24 160.03 1801.88 160.03 Q1805.89 160.03 1808.06 158.456 Q1810.24 156.882 1810.24 153.965 Q1810.24 151.419 1808.66 149.983 Q1807.11 148.548 1803.55 147.831 L1800.7 147.275 Q1795.47 146.233 1793.13 144.011 Q1790.79 141.789 1790.79 137.831 Q1790.79 133.247 1794.01 130.609 Q1797.25 127.97 1802.92 127.97 Q1805.35 127.97 1807.88 128.409 Q1810.4 128.849 1813.04 129.729 Z" fill="#000000" fill-rule="evenodd" fill-opacity="1" /><path clip-path="url(#clip850)" d="M1822.23 137.229 L1826.49 137.229 L1826.49 163.155 L1822.23 163.155 L1822.23 137.229 M1822.23 127.136 L1826.49 127.136 L1826.49 132.53 L1822.23 132.53 L1822.23 127.136 Z" fill="#000000" fill-rule="evenodd" fill-opacity="1" /><path clip-path="url(#clip850)" d="M1855.59 142.206 Q1857.18 139.335 1859.4 137.97 Q1861.63 136.604 1864.64 136.604 Q1868.69 136.604 1870.89 139.451 Q1873.09 142.275 1873.09 147.507 L1873.09 163.155 L1868.8 163.155 L1868.8 147.645 Q1868.8 143.919 1867.48 142.113 Q1866.16 140.308 1863.46 140.308 Q1860.15 140.308 1858.22 142.507 Q1856.3 144.706 1856.3 148.502 L1856.3 163.155 L1852.02 163.155 L1852.02 147.645 Q1852.02 143.895 1850.7 142.113 Q1849.38 140.308 1846.63 140.308 Q1843.36 140.308 1841.44 142.53 Q1839.52 144.729 1839.52 148.502 L1839.52 163.155 L1835.24 163.155 L1835.24 137.229 L1839.52 137.229 L1839.52 141.257 Q1840.98 138.872 1843.02 137.738 Q1845.05 136.604 1847.85 136.604 Q1850.68 136.604 1852.65 138.039 Q1854.64 139.474 1855.59 142.206 Z" fill="#000000" fill-rule="evenodd" fill-opacity="1" /><path clip-path="url(#clip850)" d="M1881.14 152.923 L1881.14 137.229 L1885.4 137.229 L1885.4 152.761 Q1885.4 156.442 1886.84 158.294 Q1888.27 160.122 1891.14 160.122 Q1894.59 160.122 1896.58 157.923 Q1898.59 155.724 1898.59 151.928 L1898.59 137.229 L1902.85 137.229 L1902.85 163.155 L1898.59 163.155 L1898.59 159.173 Q1897.04 161.534 1894.98 162.692 Q1892.95 163.826 1890.24 163.826 Q1885.77 163.826 1883.46 161.048 Q1881.14 158.27 1881.14 152.923 M1891.86 136.604 L1891.86 136.604 Z" fill="#000000" fill-rule="evenodd" fill-opacity="1" /><path clip-path="url(#clip850)" d="M1911.63 127.136 L1915.89 127.136 L1915.89 163.155 L1911.63 163.155 L1911.63 127.136 Z" fill="#000000" fill-rule="evenodd" fill-opacity="1" /><path clip-path="url(#clip850)" d="M1936.58 150.122 Q1931.42 150.122 1929.43 151.303 Q1927.44 152.483 1927.44 155.331 Q1927.44 157.599 1928.92 158.942 Q1930.42 160.261 1932.99 160.261 Q1936.53 160.261 1938.66 157.761 Q1940.82 155.238 1940.82 151.071 L1940.82 150.122 L1936.58 150.122 M1945.08 148.363 L1945.08 163.155 L1940.82 163.155 L1940.82 159.219 Q1939.36 161.581 1937.18 162.715 Q1935.01 163.826 1931.86 163.826 Q1927.88 163.826 1925.52 161.604 Q1923.18 159.358 1923.18 155.608 Q1923.18 151.233 1926.09 149.011 Q1929.03 146.789 1934.84 146.789 L1940.82 146.789 L1940.82 146.372 Q1940.82 143.433 1938.87 141.835 Q1936.95 140.215 1933.46 140.215 Q1931.23 140.215 1929.13 140.747 Q1927.02 141.28 1925.08 142.345 L1925.08 138.409 Q1927.41 137.507 1929.61 137.067 Q1931.81 136.604 1933.9 136.604 Q1939.52 136.604 1942.3 139.521 Q1945.08 142.437 1945.08 148.363 Z" fill="#000000" fill-rule="evenodd" fill-opacity="1" /><path clip-path="url(#clip850)" d="M1958.06 129.868 L1958.06 137.229 L1966.83 137.229 L1966.83 140.539 L1958.06 140.539 L1958.06 154.613 Q1958.06 157.784 1958.92 158.687 Q1959.8 159.59 1962.46 159.59 L1966.83 159.59 L1966.83 163.155 L1962.46 163.155 Q1957.53 163.155 1955.65 161.326 Q1953.78 159.474 1953.78 154.613 L1953.78 140.539 L1950.65 140.539 L1950.65 137.229 L1953.78 137.229 L1953.78 129.868 L1958.06 129.868 Z" fill="#000000" fill-rule="evenodd" fill-opacity="1" /><path clip-path="url(#clip850)" d="M1972.44 137.229 L1976.7 137.229 L1976.7 163.155 L1972.44 163.155 L1972.44 137.229 M1972.44 127.136 L1976.7 127.136 L1976.7 132.53 L1972.44 132.53 L1972.44 127.136 Z" fill="#000000" fill-rule="evenodd" fill-opacity="1" /><path clip-path="url(#clip850)" d="M1995.65 140.215 Q1992.23 140.215 1990.24 142.9 Q1988.25 145.562 1988.25 150.215 Q1988.25 154.868 1990.21 157.553 Q1992.21 160.215 1995.65 160.215 Q1999.06 160.215 2001.05 157.53 Q2003.04 154.844 2003.04 150.215 Q2003.04 145.608 2001.05 142.923 Q1999.06 140.215 1995.65 140.215 M1995.65 136.604 Q2001.21 136.604 2004.38 140.215 Q2007.55 143.826 2007.55 150.215 Q2007.55 156.581 2004.38 160.215 Q2001.21 163.826 1995.65 163.826 Q1990.08 163.826 1986.9 160.215 Q1983.76 156.581 1983.76 150.215 Q1983.76 143.826 1986.9 140.215 Q1990.08 136.604 1995.65 136.604 Z" fill="#000000" fill-rule="evenodd" fill-opacity="1" /><path clip-path="url(#clip850)" d="M2036.16 147.507 L2036.16 163.155 L2031.9 163.155 L2031.9 147.645 Q2031.9 143.965 2030.47 142.136 Q2029.03 140.308 2026.16 140.308 Q2022.71 140.308 2020.72 142.507 Q2018.73 144.706 2018.73 148.502 L2018.73 163.155 L2014.45 163.155 L2014.45 137.229 L2018.73 137.229 L2018.73 141.257 Q2020.26 138.919 2022.32 137.761 Q2024.4 136.604 2027.11 136.604 Q2031.58 136.604 2033.87 139.382 Q2036.16 142.136 2036.16 147.507 Z" fill="#000000" fill-rule="evenodd" fill-opacity="1" /><circle clip-path="url(#clip850)" cx="1698.48" cy="197.715" r="23" fill="#ff00ff" fill-rule="evenodd" fill-opacity="1" stroke="none"/>
<path clip-path="url(#clip850)" d="M1790.79 180.435 L1795.47 180.435 L1795.47 211.059 L1812.3 211.059 L1812.3 214.995 L1790.79 214.995 L1790.79 180.435 Z" fill="#000000" fill-rule="evenodd" fill-opacity="1" /><path clip-path="url(#clip850)" d="M1817.21 180.435 L1823.5 180.435 L1838.83 209.347 L1838.83 180.435 L1843.36 180.435 L1843.36 214.995 L1837.07 214.995 L1821.74 186.083 L1821.74 214.995 L1817.21 214.995 L1817.21 180.435 Z" fill="#000000" fill-rule="evenodd" fill-opacity="1" /><path clip-path="url(#clip850)" d="M1864.22 185.041 L1857.88 202.24 L1870.59 202.24 L1864.22 185.041 M1861.58 180.435 L1866.88 180.435 L1880.05 214.995 L1875.19 214.995 L1872.04 206.129 L1856.47 206.129 L1853.32 214.995 L1848.39 214.995 L1861.58 180.435 Z" fill="#000000" fill-rule="evenodd" fill-opacity="1" /><path clip-path="url(#clip850)" d="M1911.72 185.041 L1905.38 202.24 L1918.09 202.24 L1911.72 185.041 M1909.08 180.435 L1914.38 180.435 L1927.55 214.995 L1922.69 214.995 L1919.54 206.129 L1903.96 206.129 L1900.82 214.995 L1895.89 214.995 L1909.08 180.435 Z" fill="#000000" fill-rule="evenodd" fill-opacity="1" /><path clip-path="url(#clip850)" d="M1936.53 211.106 L1936.53 224.856 L1932.25 224.856 L1932.25 189.069 L1936.53 189.069 L1936.53 193.004 Q1937.88 190.689 1939.91 189.578 Q1941.97 188.444 1944.82 188.444 Q1949.54 188.444 1952.48 192.194 Q1955.45 195.944 1955.45 202.055 Q1955.45 208.166 1952.48 211.916 Q1949.54 215.666 1944.82 215.666 Q1941.97 215.666 1939.91 214.555 Q1937.88 213.421 1936.53 211.106 M1951.02 202.055 Q1951.02 197.356 1949.08 194.694 Q1947.16 192.009 1943.78 192.009 Q1940.4 192.009 1938.46 194.694 Q1936.53 197.356 1936.53 202.055 Q1936.53 206.754 1938.46 209.439 Q1940.4 212.101 1943.78 212.101 Q1947.16 212.101 1949.08 209.439 Q1951.02 206.754 1951.02 202.055 Z" fill="#000000" fill-rule="evenodd" fill-opacity="1" /><path clip-path="url(#clip850)" d="M1966.63 211.106 L1966.63 224.856 L1962.34 224.856 L1962.34 189.069 L1966.63 189.069 L1966.63 193.004 Q1967.97 190.689 1970.01 189.578 Q1972.07 188.444 1974.91 188.444 Q1979.64 188.444 1982.58 192.194 Q1985.54 195.944 1985.54 202.055 Q1985.54 208.166 1982.58 211.916 Q1979.64 215.666 1974.91 215.666 Q1972.07 215.666 1970.01 214.555 Q1967.97 213.421 1966.63 211.106 M1981.12 202.055 Q1981.12 197.356 1979.17 194.694 Q1977.25 192.009 1973.87 192.009 Q1970.49 192.009 1968.55 194.694 Q1966.63 197.356 1966.63 202.055 Q1966.63 206.754 1968.55 209.439 Q1970.49 212.101 1973.87 212.101 Q1977.25 212.101 1979.17 209.439 Q1981.12 206.754 1981.12 202.055 Z" fill="#000000" fill-rule="evenodd" fill-opacity="1" /><path clip-path="url(#clip850)" d="M2007.62 193.05 Q2006.9 192.634 2006.05 192.448 Q2005.21 192.24 2004.2 192.24 Q2000.58 192.24 1998.64 194.601 Q1996.72 196.939 1996.72 201.337 L1996.72 214.995 L1992.44 214.995 L1992.44 189.069 L1996.72 189.069 L1996.72 193.097 Q1998.06 190.736 2000.21 189.601 Q2002.37 188.444 2005.45 188.444 Q2005.89 188.444 2006.42 188.513 Q2006.95 188.56 2007.6 188.675 L2007.62 193.05 Z" fill="#000000" fill-rule="evenodd" fill-opacity="1" /><path clip-path="url(#clip850)" d="M2021.09 192.055 Q2017.67 192.055 2015.68 194.74 Q2013.69 197.402 2013.69 202.055 Q2013.69 206.708 2015.65 209.393 Q2017.64 212.055 2021.09 212.055 Q2024.5 212.055 2026.49 209.37 Q2028.48 206.684 2028.48 202.055 Q2028.48 197.448 2026.49 194.763 Q2024.5 192.055 2021.09 192.055 M2021.09 188.444 Q2026.65 188.444 2029.82 192.055 Q2032.99 195.666 2032.99 202.055 Q2032.99 208.421 2029.82 212.055 Q2026.65 215.666 2021.09 215.666 Q2015.52 215.666 2012.34 212.055 Q2009.2 208.421 2009.2 202.055 Q2009.2 195.666 2012.34 192.055 Q2015.52 188.444 2021.09 188.444 Z" fill="#000000" fill-rule="evenodd" fill-opacity="1" /><path clip-path="url(#clip850)" d="M2060.14 189.069 L2050.77 201.685 L2060.63 214.995 L2055.61 214.995 L2048.06 204.81 L2040.52 214.995 L2035.49 214.995 L2045.56 201.43 L2036.35 189.069 L2041.37 189.069 L2048.25 198.305 L2055.12 189.069 L2060.14 189.069 Z" fill="#000000" fill-rule="evenodd" fill-opacity="1" /><path clip-path="url(#clip850)" d="M2066.65 189.069 L2070.91 189.069 L2070.91 214.995 L2066.65 214.995 L2066.65 189.069 M2066.65 178.976 L2070.91 178.976 L2070.91 184.37 L2066.65 184.37 L2066.65 178.976 Z" fill="#000000" fill-rule="evenodd" fill-opacity="1" /><path clip-path="url(#clip850)" d="M2100.01 194.046 Q2101.6 191.175 2103.82 189.81 Q2106.05 188.444 2109.06 188.444 Q2113.11 188.444 2115.31 191.291 Q2117.51 194.115 2117.51 199.347 L2117.51 214.995 L2113.22 214.995 L2113.22 199.485 Q2113.22 195.759 2111.9 193.953 Q2110.58 192.148 2107.88 192.148 Q2104.57 192.148 2102.64 194.347 Q2100.72 196.546 2100.72 200.342 L2100.72 214.995 L2096.44 214.995 L2096.44 199.485 Q2096.44 195.735 2095.12 193.953 Q2093.8 192.148 2091.05 192.148 Q2087.78 192.148 2085.86 194.37 Q2083.94 196.569 2083.94 200.342 L2083.94 214.995 L2079.66 214.995 L2079.66 189.069 L2083.94 189.069 L2083.94 193.097 Q2085.4 190.712 2087.44 189.578 Q2089.47 188.444 2092.27 188.444 Q2095.1 188.444 2097.07 189.879 Q2099.06 191.314 2100.01 194.046 Z" fill="#000000" fill-rule="evenodd" fill-opacity="1" /><path clip-path="url(#clip850)" d="M2137.78 201.962 Q2132.62 201.962 2130.63 203.143 Q2128.64 204.323 2128.64 207.171 Q2128.64 209.439 2130.12 210.782 Q2131.63 212.101 2134.2 212.101 Q2137.74 212.101 2139.87 209.601 Q2142.02 207.078 2142.02 202.911 L2142.02 201.962 L2137.78 201.962 M2146.28 200.203 L2146.28 214.995 L2142.02 214.995 L2142.02 211.059 Q2140.56 213.421 2138.38 214.555 Q2136.21 215.666 2133.06 215.666 Q2129.08 215.666 2126.72 213.444 Q2124.38 211.198 2124.38 207.448 Q2124.38 203.073 2127.3 200.851 Q2130.24 198.629 2136.05 198.629 L2142.02 198.629 L2142.02 198.212 Q2142.02 195.273 2140.07 193.675 Q2138.15 192.055 2134.66 192.055 Q2132.44 192.055 2130.33 192.587 Q2128.22 193.12 2126.28 194.185 L2126.28 190.249 Q2128.62 189.347 2130.82 188.907 Q2133.01 188.444 2135.1 188.444 Q2140.72 188.444 2143.5 191.361 Q2146.28 194.277 2146.28 200.203 Z" fill="#000000" fill-rule="evenodd" fill-opacity="1" /><path clip-path="url(#clip850)" d="M2159.26 181.708 L2159.26 189.069 L2168.04 189.069 L2168.04 192.379 L2159.26 192.379 L2159.26 206.453 Q2159.26 209.624 2160.12 210.527 Q2161 211.43 2163.66 211.43 L2168.04 211.43 L2168.04 214.995 L2163.66 214.995 Q2158.73 214.995 2156.86 213.166 Q2154.98 211.314 2154.98 206.453 L2154.98 192.379 L2151.86 192.379 L2151.86 189.069 L2154.98 189.069 L2154.98 181.708 L2159.26 181.708 Z" fill="#000000" fill-rule="evenodd" fill-opacity="1" /><path clip-path="url(#clip850)" d="M2173.64 189.069 L2177.9 189.069 L2177.9 214.995 L2173.64 214.995 L2173.64 189.069 M2173.64 178.976 L2177.9 178.976 L2177.9 184.37 L2173.64 184.37 L2173.64 178.976 Z" fill="#000000" fill-rule="evenodd" fill-opacity="1" /><path clip-path="url(#clip850)" d="M2196.86 192.055 Q2193.43 192.055 2191.44 194.74 Q2189.45 197.402 2189.45 202.055 Q2189.45 206.708 2191.42 209.393 Q2193.41 212.055 2196.86 212.055 Q2200.26 212.055 2202.25 209.37 Q2204.24 206.684 2204.24 202.055 Q2204.24 197.448 2202.25 194.763 Q2200.26 192.055 2196.86 192.055 M2196.86 188.444 Q2202.41 188.444 2205.58 192.055 Q2208.75 195.666 2208.75 202.055 Q2208.75 208.421 2205.58 212.055 Q2202.41 215.666 2196.86 215.666 Q2191.28 215.666 2188.11 212.055 Q2184.96 208.421 2184.96 202.055 Q2184.96 195.666 2188.11 192.055 Q2191.28 188.444 2196.86 188.444 Z" fill="#000000" fill-rule="evenodd" fill-opacity="1" /><path clip-path="url(#clip850)" d="M2237.37 199.347 L2237.37 214.995 L2233.11 214.995 L2233.11 199.485 Q2233.11 195.805 2231.67 193.976 Q2230.24 192.148 2227.37 192.148 Q2223.92 192.148 2221.93 194.347 Q2219.94 196.546 2219.94 200.342 L2219.94 214.995 L2215.65 214.995 L2215.65 189.069 L2219.94 189.069 L2219.94 193.097 Q2221.46 190.759 2223.52 189.601 Q2225.61 188.444 2228.32 188.444 Q2232.78 188.444 2235.07 191.222 Q2237.37 193.976 2237.37 199.347 Z" fill="#000000" fill-rule="evenodd" fill-opacity="1" /></svg>
