<?xml version="1.0" encoding="utf-8"?>
<svg xmlns="http://www.w3.org/2000/svg" xmlns:xlink="http://www.w3.org/1999/xlink" width="600" height="400" viewBox="0 0 2400 1600">
<defs>
  <clipPath id="clip210">
    <rect x="0" y="0" width="2400" height="1600"/>
  </clipPath>
</defs>
<path clip-path="url(#clip210)" d="
M0 1600 L2400 1600 L2400 0 L0 0  Z
  " fill="#ffffff" fill-rule="evenodd" fill-opacity="1"/>
<defs>
  <clipPath id="clip211">
    <rect x="480" y="0" width="1681" height="1600"/>
  </clipPath>
</defs>
<path clip-path="url(#clip210)" d="
M238.13 1423.18 L2352.76 1423.18 L2352.76 47.2441 L238.13 47.2441  Z
  " fill="#ffffff" fill-rule="evenodd" fill-opacity="1"/>
<defs>
  <clipPath id="clip212">
    <rect x="238" y="47" width="2116" height="1377"/>
  </clipPath>
</defs>
<polyline clip-path="url(#clip212)" style="stroke:#000000; stroke-width:2; stroke-opacity:0.1; fill:none" points="
  354.438,1423.18 354.438,47.2441 
  "/>
<polyline clip-path="url(#clip212)" style="stroke:#000000; stroke-width:2; stroke-opacity:0.1; fill:none" points="
  730.84,1423.18 730.84,47.2441 
  "/>
<polyline clip-path="url(#clip212)" style="stroke:#000000; stroke-width:2; stroke-opacity:0.1; fill:none" points="
  1107.24,1423.18 1107.24,47.2441 
  "/>
<polyline clip-path="url(#clip212)" style="stroke:#000000; stroke-width:2; stroke-opacity:0.1; fill:none" points="
  1483.64,1423.18 1483.64,47.2441 
  "/>
<polyline clip-path="url(#clip212)" style="stroke:#000000; stroke-width:2; stroke-opacity:0.1; fill:none" points="
  1860.05,1423.18 1860.05,47.2441 
  "/>
<polyline clip-path="url(#clip212)" style="stroke:#000000; stroke-width:2; stroke-opacity:0.1; fill:none" points="
  2236.45,1423.18 2236.45,47.2441 
  "/>
<polyline clip-path="url(#clip210)" style="stroke:#000000; stroke-width:4; stroke-opacity:1; fill:none" points="
  238.13,1423.18 2352.76,1423.18 
  "/>
<polyline clip-path="url(#clip210)" style="stroke:#000000; stroke-width:4; stroke-opacity:1; fill:none" points="
  354.438,1423.18 354.438,1406.67 
  "/>
<polyline clip-path="url(#clip210)" style="stroke:#000000; stroke-width:4; stroke-opacity:1; fill:none" points="
  730.84,1423.18 730.84,1406.67 
  "/>
<polyline clip-path="url(#clip210)" style="stroke:#000000; stroke-width:4; stroke-opacity:1; fill:none" points="
  1107.24,1423.18 1107.24,1406.67 
  "/>
<polyline clip-path="url(#clip210)" style="stroke:#000000; stroke-width:4; stroke-opacity:1; fill:none" points="
  1483.64,1423.18 1483.64,1406.67 
  "/>
<polyline clip-path="url(#clip210)" style="stroke:#000000; stroke-width:4; stroke-opacity:1; fill:none" points="
  1860.05,1423.18 1860.05,1406.67 
  "/>
<polyline clip-path="url(#clip210)" style="stroke:#000000; stroke-width:4; stroke-opacity:1; fill:none" points="
  2236.45,1423.18 2236.45,1406.67 
  "/>
<path clip-path="url(#clip210)" d="M 0 0 M354.438 1452.37 Q350.827 1452.37 348.998 1455.94 Q347.193 1459.48 347.193 1466.61 Q347.193 1473.71 348.998 1477.28 Q350.827 1480.82 354.438 1480.82 Q358.072 1480.82 359.878 1477.28 Q361.707 1473.71 361.707 1466.61 Q361.707 1459.48 359.878 1455.94 Q358.072 1452.37 354.438 1452.37 M354.438 1448.67 Q360.248 1448.67 363.304 1453.27 Q366.383 1457.86 366.383 1466.61 Q366.383 1475.33 363.304 1479.94 Q360.248 1484.52 354.438 1484.52 Q348.628 1484.52 345.549 1479.94 Q342.494 1475.33 342.494 1466.61 Q342.494 1457.86 345.549 1453.27 Q348.628 1448.67 354.438 1448.67 Z" fill="#000000" fill-rule="evenodd" fill-opacity="1" /><path clip-path="url(#clip210)" d="M 0 0 M721.118 1449.29 L739.474 1449.29 L739.474 1453.23 L725.4 1453.23 L725.4 1461.7 Q726.419 1461.35 727.437 1461.19 Q728.456 1461 729.474 1461 Q735.261 1461 738.641 1464.18 Q742.021 1467.35 742.021 1472.76 Q742.021 1478.34 738.548 1481.44 Q735.076 1484.52 728.757 1484.52 Q726.581 1484.52 724.312 1484.15 Q722.067 1483.78 719.66 1483.04 L719.66 1478.34 Q721.743 1479.48 723.965 1480.03 Q726.187 1480.59 728.664 1480.59 Q732.669 1480.59 735.007 1478.48 Q737.345 1476.38 737.345 1472.76 Q737.345 1469.15 735.007 1467.05 Q732.669 1464.94 728.664 1464.94 Q726.789 1464.94 724.914 1465.36 Q723.062 1465.77 721.118 1466.65 L721.118 1449.29 Z" fill="#000000" fill-rule="evenodd" fill-opacity="1" /><path clip-path="url(#clip210)" d="M 0 0 M1084.12 1479.92 L1091.76 1479.92 L1091.76 1453.55 L1083.45 1455.22 L1083.45 1450.96 L1091.71 1449.29 L1096.39 1449.29 L1096.39 1479.92 L1104.02 1479.92 L1104.02 1483.85 L1084.12 1483.85 L1084.12 1479.92 Z" fill="#000000" fill-rule="evenodd" fill-opacity="1" /><path clip-path="url(#clip210)" d="M 0 0 M1119.09 1452.37 Q1115.48 1452.37 1113.65 1455.94 Q1111.85 1459.48 1111.85 1466.61 Q1111.85 1473.71 1113.65 1477.28 Q1115.48 1480.82 1119.09 1480.82 Q1122.73 1480.82 1124.53 1477.28 Q1126.36 1473.71 1126.36 1466.61 Q1126.36 1459.48 1124.53 1455.94 Q1122.73 1452.37 1119.09 1452.37 M1119.09 1448.67 Q1124.9 1448.67 1127.96 1453.27 Q1131.04 1457.86 1131.04 1466.61 Q1131.04 1475.33 1127.96 1479.94 Q1124.9 1484.52 1119.09 1484.52 Q1113.28 1484.52 1110.2 1479.94 Q1107.15 1475.33 1107.15 1466.61 Q1107.15 1457.86 1110.2 1453.27 Q1113.28 1448.67 1119.09 1448.67 Z" fill="#000000" fill-rule="evenodd" fill-opacity="1" /><path clip-path="url(#clip210)" d="M 0 0 M1461.02 1479.92 L1468.66 1479.92 L1468.66 1453.55 L1460.35 1455.22 L1460.35 1450.96 L1468.61 1449.29 L1473.29 1449.29 L1473.29 1479.92 L1480.92 1479.92 L1480.92 1483.85 L1461.02 1483.85 L1461.02 1479.92 Z" fill="#000000" fill-rule="evenodd" fill-opacity="1" /><path clip-path="url(#clip210)" d="M 0 0 M1486.04 1449.29 L1504.4 1449.29 L1504.4 1453.23 L1490.32 1453.23 L1490.32 1461.7 Q1491.34 1461.35 1492.36 1461.19 Q1493.38 1461 1494.4 1461 Q1500.18 1461 1503.56 1464.18 Q1506.94 1467.35 1506.94 1472.76 Q1506.94 1478.34 1503.47 1481.44 Q1500 1484.52 1493.68 1484.52 Q1491.5 1484.52 1489.23 1484.15 Q1486.99 1483.78 1484.58 1483.04 L1484.58 1478.34 Q1486.66 1479.48 1488.89 1480.03 Q1491.11 1480.59 1493.59 1480.59 Q1497.59 1480.59 1499.93 1478.48 Q1502.27 1476.38 1502.27 1472.76 Q1502.27 1469.15 1499.93 1467.05 Q1497.59 1464.94 1493.59 1464.94 Q1491.71 1464.94 1489.84 1465.36 Q1487.98 1465.77 1486.04 1466.65 L1486.04 1449.29 Z" fill="#000000" fill-rule="evenodd" fill-opacity="1" /><path clip-path="url(#clip210)" d="M 0 0 M1841.19 1479.92 L1857.51 1479.92 L1857.51 1483.85 L1835.57 1483.85 L1835.57 1479.92 Q1838.23 1477.16 1842.81 1472.53 Q1847.42 1467.88 1848.6 1466.54 Q1850.84 1464.01 1851.72 1462.28 Q1852.63 1460.52 1852.63 1458.83 Q1852.63 1456.07 1850.68 1454.34 Q1848.76 1452.6 1845.66 1452.6 Q1843.46 1452.6 1841.01 1453.37 Q1838.58 1454.13 1835.8 1455.68 L1835.8 1450.96 Q1838.62 1449.82 1841.08 1449.25 Q1843.53 1448.67 1845.57 1448.67 Q1850.94 1448.67 1854.13 1451.35 Q1857.33 1454.04 1857.33 1458.53 Q1857.33 1460.66 1856.52 1462.58 Q1855.73 1464.48 1853.62 1467.07 Q1853.04 1467.74 1849.94 1470.96 Q1846.84 1474.15 1841.19 1479.92 Z" fill="#000000" fill-rule="evenodd" fill-opacity="1" /><path clip-path="url(#clip210)" d="M 0 0 M1872.58 1452.37 Q1868.97 1452.37 1867.14 1455.94 Q1865.34 1459.48 1865.34 1466.61 Q1865.34 1473.71 1867.14 1477.28 Q1868.97 1480.82 1872.58 1480.82 Q1876.21 1480.82 1878.02 1477.28 Q1879.85 1473.71 1879.85 1466.61 Q1879.85 1459.48 1878.02 1455.94 Q1876.21 1452.37 1872.58 1452.37 M1872.58 1448.67 Q1878.39 1448.67 1881.45 1453.27 Q1884.52 1457.86 1884.52 1466.61 Q1884.52 1475.33 1881.45 1479.94 Q1878.39 1484.52 1872.58 1484.52 Q1866.77 1484.52 1863.69 1479.94 Q1860.64 1475.33 1860.64 1466.61 Q1860.64 1457.86 1863.69 1453.27 Q1866.77 1448.67 1872.58 1448.67 Z" fill="#000000" fill-rule="evenodd" fill-opacity="1" /><path clip-path="url(#clip210)" d="M 0 0 M2218.09 1479.92 L2234.41 1479.92 L2234.41 1483.85 L2212.47 1483.85 L2212.47 1479.92 Q2215.13 1477.16 2219.71 1472.53 Q2224.32 1467.88 2225.5 1466.54 Q2227.74 1464.01 2228.62 1462.28 Q2229.53 1460.52 2229.53 1458.83 Q2229.53 1456.07 2227.58 1454.34 Q2225.66 1452.6 2222.56 1452.6 Q2220.36 1452.6 2217.91 1453.37 Q2215.48 1454.13 2212.7 1455.68 L2212.7 1450.96 Q2215.52 1449.82 2217.98 1449.25 Q2220.43 1448.67 2222.47 1448.67 Q2227.84 1448.67 2231.03 1451.35 Q2234.23 1454.04 2234.23 1458.53 Q2234.23 1460.66 2233.42 1462.58 Q2232.63 1464.48 2230.52 1467.07 Q2229.94 1467.74 2226.84 1470.96 Q2223.74 1474.15 2218.09 1479.92 Z" fill="#000000" fill-rule="evenodd" fill-opacity="1" /><path clip-path="url(#clip210)" d="M 0 0 M2239.53 1449.29 L2257.88 1449.29 L2257.88 1453.23 L2243.81 1453.23 L2243.81 1461.7 Q2244.83 1461.35 2245.85 1461.19 Q2246.86 1461 2247.88 1461 Q2253.67 1461 2257.05 1464.18 Q2260.43 1467.35 2260.43 1472.76 Q2260.43 1478.34 2256.96 1481.44 Q2253.48 1484.52 2247.17 1484.52 Q2244.99 1484.52 2242.72 1484.15 Q2240.48 1483.78 2238.07 1483.04 L2238.07 1478.34 Q2240.15 1479.48 2242.37 1480.03 Q2244.6 1480.59 2247.07 1480.59 Q2251.08 1480.59 2253.42 1478.48 Q2255.75 1476.38 2255.75 1472.76 Q2255.75 1469.15 2253.42 1467.05 Q2251.08 1464.94 2247.07 1464.94 Q2245.2 1464.94 2243.32 1465.36 Q2241.47 1465.77 2239.53 1466.65 L2239.53 1449.29 Z" fill="#000000" fill-rule="evenodd" fill-opacity="1" /><path clip-path="url(#clip210)" d="M 0 0 M1285.39 1562.7 L1285.39 1581.6 L1279.5 1581.6 L1279.5 1532.4 L1285.39 1532.4 L1285.39 1537.81 Q1287.23 1534.62 1290.03 1533.1 Q1292.86 1531.54 1296.78 1531.54 Q1303.27 1531.54 1307.32 1536.69 Q1311.39 1541.85 1311.39 1550.25 Q1311.39 1558.65 1307.32 1563.81 Q1303.27 1568.97 1296.78 1568.97 Q1292.86 1568.97 1290.03 1567.44 Q1287.23 1565.88 1285.39 1562.7 M1305.31 1550.25 Q1305.31 1543.79 1302.64 1540.13 Q1299.99 1536.44 1295.35 1536.44 Q1290.7 1536.44 1288.03 1540.13 Q1285.39 1543.79 1285.39 1550.25 Q1285.39 1556.71 1288.03 1560.4 Q1290.7 1564.07 1295.35 1564.07 Q1299.99 1564.07 1302.64 1560.4 Q1305.31 1556.71 1305.31 1550.25 Z" fill="#000000" fill-rule="evenodd" fill-opacity="1" /><polyline clip-path="url(#clip212)" style="stroke:#000000; stroke-width:2; stroke-opacity:0.1; fill:none" points="
  238.13,1384.24 2352.76,1384.24 
  "/>
<polyline clip-path="url(#clip212)" style="stroke:#000000; stroke-width:2; stroke-opacity:0.1; fill:none" points="
  238.13,1140.06 2352.76,1140.06 
  "/>
<polyline clip-path="url(#clip212)" style="stroke:#000000; stroke-width:2; stroke-opacity:0.1; fill:none" points="
  238.13,895.891 2352.76,895.891 
  "/>
<polyline clip-path="url(#clip212)" style="stroke:#000000; stroke-width:2; stroke-opacity:0.1; fill:none" points="
  238.13,651.717 2352.76,651.717 
  "/>
<polyline clip-path="url(#clip212)" style="stroke:#000000; stroke-width:2; stroke-opacity:0.1; fill:none" points="
  238.13,407.544 2352.76,407.544 
  "/>
<polyline clip-path="url(#clip212)" style="stroke:#000000; stroke-width:2; stroke-opacity:0.1; fill:none" points="
  238.13,163.37 2352.76,163.37 
  "/>
<polyline clip-path="url(#clip210)" style="stroke:#000000; stroke-width:4; stroke-opacity:1; fill:none" points="
  238.13,1423.18 238.13,47.2441 
  "/>
<polyline clip-path="url(#clip210)" style="stroke:#000000; stroke-width:4; stroke-opacity:1; fill:none" points="
  238.13,1384.24 263.506,1384.24 
  "/>
<polyline clip-path="url(#clip210)" style="stroke:#000000; stroke-width:4; stroke-opacity:1; fill:none" points="
  238.13,1140.06 263.506,1140.06 
  "/>
<polyline clip-path="url(#clip210)" style="stroke:#000000; stroke-width:4; stroke-opacity:1; fill:none" points="
  238.13,895.891 263.506,895.891 
  "/>
<polyline clip-path="url(#clip210)" style="stroke:#000000; stroke-width:4; stroke-opacity:1; fill:none" points="
  238.13,651.717 263.506,651.717 
  "/>
<polyline clip-path="url(#clip210)" style="stroke:#000000; stroke-width:4; stroke-opacity:1; fill:none" points="
  238.13,407.544 263.506,407.544 
  "/>
<polyline clip-path="url(#clip210)" style="stroke:#000000; stroke-width:4; stroke-opacity:1; fill:none" points="
  238.13,163.37 263.506,163.37 
  "/>
<path clip-path="url(#clip210)" d="M 0 0 M126.205 1370.04 Q122.593 1370.04 120.765 1373.6 Q118.959 1377.14 118.959 1384.27 Q118.959 1391.38 120.765 1394.94 Q122.593 1398.49 126.205 1398.49 Q129.839 1398.49 131.644 1394.94 Q133.473 1391.38 133.473 1384.27 Q133.473 1377.14 131.644 1373.6 Q129.839 1370.04 126.205 1370.04 M126.205 1366.33 Q132.015 1366.33 135.07 1370.94 Q138.149 1375.52 138.149 1384.27 Q138.149 1393 135.07 1397.61 Q132.015 1402.19 126.205 1402.19 Q120.394 1402.19 117.316 1397.61 Q114.26 1393 114.26 1384.27 Q114.26 1375.52 117.316 1370.94 Q120.394 1366.33 126.205 1366.33 Z" fill="#000000" fill-rule="evenodd" fill-opacity="1" /><path clip-path="url(#clip210)" d="M 0 0 M143.218 1395.64 L148.103 1395.64 L148.103 1401.52 L143.218 1401.52 L143.218 1395.64 Z" fill="#000000" fill-rule="evenodd" fill-opacity="1" /><path clip-path="url(#clip210)" d="M 0 0 M163.172 1370.04 Q159.561 1370.04 157.732 1373.6 Q155.927 1377.14 155.927 1384.27 Q155.927 1391.38 157.732 1394.94 Q159.561 1398.49 163.172 1398.49 Q166.806 1398.49 168.612 1394.94 Q170.44 1391.38 170.44 1384.27 Q170.44 1377.14 168.612 1373.6 Q166.806 1370.04 163.172 1370.04 M163.172 1366.33 Q168.982 1366.33 172.038 1370.94 Q175.116 1375.52 175.116 1384.27 Q175.116 1393 172.038 1397.61 Q168.982 1402.19 163.172 1402.19 Q157.362 1402.19 154.283 1397.61 Q151.228 1393 151.228 1384.27 Q151.228 1375.52 154.283 1370.94 Q157.362 1366.33 163.172 1366.33 Z" fill="#000000" fill-rule="evenodd" fill-opacity="1" /><path clip-path="url(#clip210)" d="M 0 0 M190.186 1370.04 Q186.575 1370.04 184.746 1373.6 Q182.94 1377.14 182.94 1384.27 Q182.94 1391.38 184.746 1394.94 Q186.575 1398.49 190.186 1398.49 Q193.82 1398.49 195.625 1394.94 Q197.454 1391.38 197.454 1384.27 Q197.454 1377.14 195.625 1373.6 Q193.82 1370.04 190.186 1370.04 M190.186 1366.33 Q195.996 1366.33 199.051 1370.94 Q202.13 1375.52 202.13 1384.27 Q202.13 1393 199.051 1397.61 Q195.996 1402.19 190.186 1402.19 Q184.376 1402.19 181.297 1397.61 Q178.241 1393 178.241 1384.27 Q178.241 1375.52 181.297 1370.94 Q184.376 1366.33 190.186 1366.33 Z" fill="#000000" fill-rule="evenodd" fill-opacity="1" /><path clip-path="url(#clip210)" d="M 0 0 M127.2 1125.86 Q123.589 1125.86 121.76 1129.43 Q119.955 1132.97 119.955 1140.1 Q119.955 1147.21 121.76 1150.77 Q123.589 1154.31 127.2 1154.31 Q130.834 1154.31 132.64 1150.77 Q134.468 1147.21 134.468 1140.1 Q134.468 1132.97 132.64 1129.43 Q130.834 1125.86 127.2 1125.86 M127.2 1122.16 Q133.01 1122.16 136.066 1126.77 Q139.144 1131.35 139.144 1140.1 Q139.144 1148.83 136.066 1153.43 Q133.01 1158.02 127.2 1158.02 Q121.39 1158.02 118.311 1153.43 Q115.256 1148.83 115.256 1140.1 Q115.256 1131.35 118.311 1126.77 Q121.39 1122.16 127.2 1122.16 Z" fill="#000000" fill-rule="evenodd" fill-opacity="1" /><path clip-path="url(#clip210)" d="M 0 0 M144.214 1151.47 L149.098 1151.47 L149.098 1157.34 L144.214 1157.34 L144.214 1151.47 Z" fill="#000000" fill-rule="evenodd" fill-opacity="1" /><path clip-path="url(#clip210)" d="M 0 0 M164.167 1125.86 Q160.556 1125.86 158.728 1129.43 Q156.922 1132.97 156.922 1140.1 Q156.922 1147.21 158.728 1150.77 Q160.556 1154.31 164.167 1154.31 Q167.802 1154.31 169.607 1150.77 Q171.436 1147.21 171.436 1140.1 Q171.436 1132.97 169.607 1129.43 Q167.802 1125.86 164.167 1125.86 M164.167 1122.16 Q169.977 1122.16 173.033 1126.77 Q176.112 1131.35 176.112 1140.1 Q176.112 1148.83 173.033 1153.43 Q169.977 1158.02 164.167 1158.02 Q158.357 1158.02 155.278 1153.43 Q152.223 1148.83 152.223 1140.1 Q152.223 1131.35 155.278 1126.77 Q158.357 1122.16 164.167 1122.16 Z" fill="#000000" fill-rule="evenodd" fill-opacity="1" /><path clip-path="url(#clip210)" d="M 0 0 M181.227 1122.78 L199.584 1122.78 L199.584 1126.72 L185.51 1126.72 L185.51 1135.19 Q186.528 1134.84 187.547 1134.68 Q188.565 1134.5 189.584 1134.5 Q195.371 1134.5 198.75 1137.67 Q202.13 1140.84 202.13 1146.26 Q202.13 1151.84 198.658 1154.94 Q195.186 1158.02 188.866 1158.02 Q186.69 1158.02 184.422 1157.65 Q182.176 1157.28 179.769 1156.53 L179.769 1151.84 Q181.852 1152.97 184.075 1153.53 Q186.297 1154.08 188.774 1154.08 Q192.778 1154.08 195.116 1151.97 Q197.454 1149.87 197.454 1146.26 Q197.454 1142.65 195.116 1140.54 Q192.778 1138.43 188.774 1138.43 Q186.899 1138.43 185.024 1138.85 Q183.172 1139.27 181.227 1140.15 L181.227 1122.78 Z" fill="#000000" fill-rule="evenodd" fill-opacity="1" /><path clip-path="url(#clip210)" d="M 0 0 M127.431 881.69 Q123.82 881.69 121.992 885.254 Q120.186 888.796 120.186 895.926 Q120.186 903.032 121.992 906.597 Q123.82 910.139 127.431 910.139 Q131.066 910.139 132.871 906.597 Q134.7 903.032 134.7 895.926 Q134.7 888.796 132.871 885.254 Q131.066 881.69 127.431 881.69 M127.431 877.986 Q133.242 877.986 136.297 882.592 Q139.376 887.176 139.376 895.926 Q139.376 904.653 136.297 909.259 Q133.242 913.842 127.431 913.842 Q121.621 913.842 118.543 909.259 Q115.487 904.653 115.487 895.926 Q115.487 887.176 118.543 882.592 Q121.621 877.986 127.431 877.986 Z" fill="#000000" fill-rule="evenodd" fill-opacity="1" /><path clip-path="url(#clip210)" d="M 0 0 M144.445 907.291 L149.329 907.291 L149.329 913.171 L144.445 913.171 L144.445 907.291 Z" fill="#000000" fill-rule="evenodd" fill-opacity="1" /><path clip-path="url(#clip210)" d="M 0 0 M155.209 909.236 L162.848 909.236 L162.848 882.87 L154.538 884.537 L154.538 880.278 L162.802 878.611 L167.477 878.611 L167.477 909.236 L175.116 909.236 L175.116 913.171 L155.209 913.171 L155.209 909.236 Z" fill="#000000" fill-rule="evenodd" fill-opacity="1" /><path clip-path="url(#clip210)" d="M 0 0 M190.186 881.69 Q186.575 881.69 184.746 885.254 Q182.94 888.796 182.94 895.926 Q182.94 903.032 184.746 906.597 Q186.575 910.139 190.186 910.139 Q193.82 910.139 195.625 906.597 Q197.454 903.032 197.454 895.926 Q197.454 888.796 195.625 885.254 Q193.82 881.69 190.186 881.69 M190.186 877.986 Q195.996 877.986 199.051 882.592 Q202.13 887.176 202.13 895.926 Q202.13 904.653 199.051 909.259 Q195.996 913.842 190.186 913.842 Q184.376 913.842 181.297 909.259 Q178.241 904.653 178.241 895.926 Q178.241 887.176 181.297 882.592 Q184.376 877.986 190.186 877.986 Z" fill="#000000" fill-rule="evenodd" fill-opacity="1" /><path clip-path="url(#clip210)" d="M 0 0 M128.427 637.516 Q124.816 637.516 122.987 641.081 Q121.181 644.622 121.181 651.752 Q121.181 658.859 122.987 662.423 Q124.816 665.965 128.427 665.965 Q132.061 665.965 133.867 662.423 Q135.695 658.859 135.695 651.752 Q135.695 644.622 133.867 641.081 Q132.061 637.516 128.427 637.516 M128.427 633.812 Q134.237 633.812 137.292 638.419 Q140.371 643.002 140.371 651.752 Q140.371 660.479 137.292 665.085 Q134.237 669.669 128.427 669.669 Q122.617 669.669 119.538 665.085 Q116.482 660.479 116.482 651.752 Q116.482 643.002 119.538 638.419 Q122.617 633.812 128.427 633.812 Z" fill="#000000" fill-rule="evenodd" fill-opacity="1" /><path clip-path="url(#clip210)" d="M 0 0 M145.441 663.118 L150.325 663.118 L150.325 668.997 L145.441 668.997 L145.441 663.118 Z" fill="#000000" fill-rule="evenodd" fill-opacity="1" /><path clip-path="url(#clip210)" d="M 0 0 M156.204 665.062 L163.843 665.062 L163.843 638.697 L155.533 640.363 L155.533 636.104 L163.797 634.437 L168.473 634.437 L168.473 665.062 L176.112 665.062 L176.112 668.997 L156.204 668.997 L156.204 665.062 Z" fill="#000000" fill-rule="evenodd" fill-opacity="1" /><path clip-path="url(#clip210)" d="M 0 0 M181.227 634.437 L199.584 634.437 L199.584 638.373 L185.51 638.373 L185.51 646.845 Q186.528 646.497 187.547 646.335 Q188.565 646.15 189.584 646.15 Q195.371 646.15 198.75 649.322 Q202.13 652.493 202.13 657.909 Q202.13 663.488 198.658 666.59 Q195.186 669.669 188.866 669.669 Q186.69 669.669 184.422 669.298 Q182.176 668.928 179.769 668.187 L179.769 663.488 Q181.852 664.622 184.075 665.178 Q186.297 665.733 188.774 665.733 Q192.778 665.733 195.116 663.627 Q197.454 661.521 197.454 657.909 Q197.454 654.298 195.116 652.192 Q192.778 650.085 188.774 650.085 Q186.899 650.085 185.024 650.502 Q183.172 650.919 181.227 651.798 L181.227 634.437 Z" fill="#000000" fill-rule="evenodd" fill-opacity="1" /><path clip-path="url(#clip210)" d="M 0 0 M127.802 393.342 Q124.191 393.342 122.362 396.907 Q120.556 400.449 120.556 407.578 Q120.556 414.685 122.362 418.25 Q124.191 421.791 127.802 421.791 Q131.436 421.791 133.242 418.25 Q135.07 414.685 135.07 407.578 Q135.07 400.449 133.242 396.907 Q131.436 393.342 127.802 393.342 M127.802 389.639 Q133.612 389.639 136.667 394.245 Q139.746 398.828 139.746 407.578 Q139.746 416.305 136.667 420.912 Q133.612 425.495 127.802 425.495 Q121.992 425.495 118.913 420.912 Q115.857 416.305 115.857 407.578 Q115.857 398.828 118.913 394.245 Q121.992 389.639 127.802 389.639 Z" fill="#000000" fill-rule="evenodd" fill-opacity="1" /><path clip-path="url(#clip210)" d="M 0 0 M144.816 418.944 L149.7 418.944 L149.7 424.824 L144.816 424.824 L144.816 418.944 Z" fill="#000000" fill-rule="evenodd" fill-opacity="1" /><path clip-path="url(#clip210)" d="M 0 0 M158.797 420.889 L175.116 420.889 L175.116 424.824 L153.172 424.824 L153.172 420.889 Q155.834 418.134 160.417 413.504 Q165.024 408.852 166.204 407.509 Q168.45 404.986 169.329 403.25 Q170.232 401.491 170.232 399.801 Q170.232 397.046 168.288 395.31 Q166.366 393.574 163.265 393.574 Q161.065 393.574 158.612 394.338 Q156.181 395.102 153.403 396.653 L153.403 391.93 Q156.228 390.796 158.681 390.217 Q161.135 389.639 163.172 389.639 Q168.542 389.639 171.737 392.324 Q174.931 395.009 174.931 399.5 Q174.931 401.629 174.121 403.551 Q173.334 405.449 171.227 408.041 Q170.649 408.713 167.547 411.93 Q164.445 415.125 158.797 420.889 Z" fill="#000000" fill-rule="evenodd" fill-opacity="1" /><path clip-path="url(#clip210)" d="M 0 0 M190.186 393.342 Q186.575 393.342 184.746 396.907 Q182.94 400.449 182.94 407.578 Q182.94 414.685 184.746 418.25 Q186.575 421.791 190.186 421.791 Q193.82 421.791 195.625 418.25 Q197.454 414.685 197.454 407.578 Q197.454 400.449 195.625 396.907 Q193.82 393.342 190.186 393.342 M190.186 389.639 Q195.996 389.639 199.051 394.245 Q202.13 398.828 202.13 407.578 Q202.13 416.305 199.051 420.912 Q195.996 425.495 190.186 425.495 Q184.376 425.495 181.297 420.912 Q178.241 416.305 178.241 407.578 Q178.241 398.828 181.297 394.245 Q184.376 389.639 190.186 389.639 Z" fill="#000000" fill-rule="evenodd" fill-opacity="1" /><path clip-path="url(#clip210)" d="M 0 0 M128.797 149.169 Q125.186 149.169 123.357 152.734 Q121.552 156.275 121.552 163.405 Q121.552 170.511 123.357 174.076 Q125.186 177.618 128.797 177.618 Q132.431 177.618 134.237 174.076 Q136.066 170.511 136.066 163.405 Q136.066 156.275 134.237 152.734 Q132.431 149.169 128.797 149.169 M128.797 145.465 Q134.607 145.465 137.663 150.072 Q140.741 154.655 140.741 163.405 Q140.741 172.132 137.663 176.738 Q134.607 181.321 128.797 181.321 Q122.987 181.321 119.908 176.738 Q116.853 172.132 116.853 163.405 Q116.853 154.655 119.908 150.072 Q122.987 145.465 128.797 145.465 Z" fill="#000000" fill-rule="evenodd" fill-opacity="1" /><path clip-path="url(#clip210)" d="M 0 0 M145.811 174.77 L150.695 174.77 L150.695 180.65 L145.811 180.65 L145.811 174.77 Z" fill="#000000" fill-rule="evenodd" fill-opacity="1" /><path clip-path="url(#clip210)" d="M 0 0 M159.792 176.715 L176.112 176.715 L176.112 180.65 L154.167 180.65 L154.167 176.715 Q156.829 173.96 161.413 169.331 Q166.019 164.678 167.2 163.335 Q169.445 160.812 170.325 159.076 Q171.227 157.317 171.227 155.627 Q171.227 152.872 169.283 151.136 Q167.362 149.4 164.26 149.4 Q162.061 149.4 159.607 150.164 Q157.177 150.928 154.399 152.479 L154.399 147.757 Q157.223 146.622 159.677 146.044 Q162.13 145.465 164.167 145.465 Q169.538 145.465 172.732 148.15 Q175.926 150.835 175.926 155.326 Q175.926 157.456 175.116 159.377 Q174.329 161.275 172.223 163.868 Q171.644 164.539 168.542 167.757 Q165.44 170.951 159.792 176.715 Z" fill="#000000" fill-rule="evenodd" fill-opacity="1" /><path clip-path="url(#clip210)" d="M 0 0 M181.227 146.09 L199.584 146.09 L199.584 150.025 L185.51 150.025 L185.51 158.497 Q186.528 158.15 187.547 157.988 Q188.565 157.803 189.584 157.803 Q195.371 157.803 198.75 160.974 Q202.13 164.146 202.13 169.562 Q202.13 175.141 198.658 178.243 Q195.186 181.321 188.866 181.321 Q186.69 181.321 184.422 180.951 Q182.176 180.581 179.769 179.84 L179.769 175.141 Q181.852 176.275 184.075 176.831 Q186.297 177.386 188.774 177.386 Q192.778 177.386 195.116 175.28 Q197.454 173.173 197.454 169.562 Q197.454 165.951 195.116 163.845 Q192.778 161.738 188.774 161.738 Q186.899 161.738 185.024 162.155 Q183.172 162.571 181.227 163.451 L181.227 146.09 Z" fill="#000000" fill-rule="evenodd" fill-opacity="1" /><path clip-path="url(#clip210)" d="M 0 0 M21.7677 783.05 L39.6235 783.05 L39.6235 774.966 Q39.6235 770.478 37.3 768.027 Q34.9765 765.576 30.6797 765.576 Q26.4147 765.576 24.0912 768.027 Q21.7677 770.478 21.7677 774.966 L21.7677 783.05 M16.4842 789.48 L16.4842 774.966 Q16.4842 766.977 20.1126 762.903 Q23.7092 758.797 30.6797 758.797 Q37.7138 758.797 41.3104 762.903 Q44.907 766.977 44.907 774.966 L44.907 783.05 L64.0042 783.05 L64.0042 789.48 L16.4842 789.48 Z" fill="#000000" fill-rule="evenodd" fill-opacity="1" /><path clip-path="url(#clip210)" d="M 0 0 M14.5426 738.586 Q21.8632 742.851 29.0246 744.92 Q36.186 746.989 43.5384 746.989 Q50.8908 746.989 58.1159 744.92 Q65.3091 742.819 72.5979 738.586 L72.5979 743.678 Q65.1182 748.453 57.8931 750.84 Q50.668 753.195 43.5384 753.195 Q36.4406 753.195 29.2474 750.84 Q22.0542 748.484 14.5426 743.678 L14.5426 738.586 Z" fill="#000000" fill-rule="evenodd" fill-opacity="1" /><path clip-path="url(#clip210)" d="M 0 0 M58.657 726.777 L77.5631 726.777 L77.5631 732.666 L28.3562 732.666 L28.3562 726.777 L33.7671 726.777 Q30.5842 724.931 29.0564 722.13 Q27.4968 719.298 27.4968 715.383 Q27.4968 708.89 32.6531 704.848 Q37.8093 700.773 46.212 700.773 Q54.6147 700.773 59.771 704.848 Q64.9272 708.89 64.9272 715.383 Q64.9272 719.298 63.3994 722.13 Q61.8398 724.931 58.657 726.777 M46.212 706.853 Q39.7508 706.853 36.0905 709.526 Q32.3984 712.168 32.3984 716.815 Q32.3984 721.462 36.0905 724.136 Q39.7508 726.777 46.212 726.777 Q52.6732 726.777 56.3653 724.136 Q60.0256 721.462 60.0256 716.815 Q60.0256 712.168 56.3653 709.526 Q52.6732 706.853 46.212 706.853 Z" fill="#000000" fill-rule="evenodd" fill-opacity="1" /><path clip-path="url(#clip210)" d="M 0 0 M14.5426 695.554 L14.5426 690.461 Q22.0542 685.687 29.2474 683.331 Q36.4406 680.944 43.5384 680.944 Q50.668 680.944 57.8931 683.331 Q65.1182 685.687 72.5979 690.461 L72.5979 695.554 Q65.3091 691.32 58.1159 689.252 Q50.8908 687.151 43.5384 687.151 Q36.186 687.151 29.0246 689.252 Q21.8632 691.32 14.5426 695.554 Z" fill="#000000" fill-rule="evenodd" fill-opacity="1" /><path clip-path="url(#clip212)" d="
M354.438 208.785 L354.438 1384.24 L429.719 1384.24 L429.719 208.785 L354.438 208.785 L354.438 208.785  Z
  " fill="#009af9" fill-rule="evenodd" fill-opacity="1"/>
<polyline clip-path="url(#clip212)" style="stroke:#000000; stroke-width:4; stroke-opacity:1; fill:none" points="
  354.438,208.785 354.438,1384.24 429.719,1384.24 429.719,208.785 354.438,208.785 
  "/>
<path clip-path="url(#clip212)" d="
M429.719 86.1857 L429.719 1384.24 L504.999 1384.24 L504.999 86.1857 L429.719 86.1857 L429.719 86.1857  Z
  " fill="#009af9" fill-rule="evenodd" fill-opacity="1"/>
<polyline clip-path="url(#clip212)" style="stroke:#000000; stroke-width:4; stroke-opacity:1; fill:none" points="
  429.719,86.1857 429.719,1384.24 504.999,1384.24 504.999,86.1857 429.719,86.1857 
  "/>
<path clip-path="url(#clip212)" d="
M504.999 393.805 L504.999 1384.24 L580.279 1384.24 L580.279 393.805 L504.999 393.805 L504.999 393.805  Z
  " fill="#009af9" fill-rule="evenodd" fill-opacity="1"/>
<polyline clip-path="url(#clip212)" style="stroke:#000000; stroke-width:4; stroke-opacity:1; fill:none" points="
  504.999,393.805 504.999,1384.24 580.279,1384.24 580.279,393.805 504.999,393.805 
  "/>
<path clip-path="url(#clip212)" d="
M580.279 741.821 L580.279 1384.24 L655.56 1384.24 L655.56 741.821 L580.279 741.821 L580.279 741.821  Z
  " fill="#009af9" fill-rule="evenodd" fill-opacity="1"/>
<polyline clip-path="url(#clip212)" style="stroke:#000000; stroke-width:4; stroke-opacity:1; fill:none" points="
  580.279,741.821 580.279,1384.24 655.56,1384.24 655.56,741.821 580.279,741.821 
  "/>
<path clip-path="url(#clip212)" d="
M655.56 1008.26 L655.56 1384.24 L730.84 1384.24 L730.84 1008.26 L655.56 1008.26 L655.56 1008.26  Z
  " fill="#009af9" fill-rule="evenodd" fill-opacity="1"/>
<polyline clip-path="url(#clip212)" style="stroke:#000000; stroke-width:4; stroke-opacity:1; fill:none" points="
  655.56,1008.26 655.56,1384.24 730.84,1384.24 730.84,1008.26 655.56,1008.26 
  "/>
<path clip-path="url(#clip212)" d="
M730.84 1181.53 L730.84 1384.24 L806.121 1384.24 L806.121 1181.53 L730.84 1181.53 L730.84 1181.53  Z
  " fill="#009af9" fill-rule="evenodd" fill-opacity="1"/>
<polyline clip-path="url(#clip212)" style="stroke:#000000; stroke-width:4; stroke-opacity:1; fill:none" points="
  730.84,1181.53 730.84,1384.24 806.121,1384.24 806.121,1181.53 730.84,1181.53 
  "/>
<path clip-path="url(#clip212)" d="
M806.121 1279.96 L806.121 1384.24 L881.401 1384.24 L881.401 1279.96 L806.121 1279.96 L806.121 1279.96  Z
  " fill="#009af9" fill-rule="evenodd" fill-opacity="1"/>
<polyline clip-path="url(#clip212)" style="stroke:#000000; stroke-width:4; stroke-opacity:1; fill:none" points="
  806.121,1279.96 806.121,1384.24 881.401,1384.24 881.401,1279.96 806.121,1279.96 
  "/>
<path clip-path="url(#clip212)" d="
M881.401 1333.38 L881.401 1384.24 L956.681 1384.24 L956.681 1333.38 L881.401 1333.38 L881.401 1333.38  Z
  " fill="#009af9" fill-rule="evenodd" fill-opacity="1"/>
<polyline clip-path="url(#clip212)" style="stroke:#000000; stroke-width:4; stroke-opacity:1; fill:none" points="
  881.401,1333.38 881.401,1384.24 956.681,1384.24 956.681,1333.38 881.401,1333.38 
  "/>
<path clip-path="url(#clip212)" d="
M956.681 1360.44 L956.681 1384.24 L1031.96 1384.24 L1031.96 1360.44 L956.681 1360.44 L956.681 1360.44  Z
  " fill="#009af9" fill-rule="evenodd" fill-opacity="1"/>
<polyline clip-path="url(#clip212)" style="stroke:#000000; stroke-width:4; stroke-opacity:1; fill:none" points="
  956.681,1360.44 956.681,1384.24 1031.96,1384.24 1031.96,1360.44 956.681,1360.44 
  "/>
<path clip-path="url(#clip212)" d="
M1031.96 1373.04 L1031.96 1384.24 L1107.24 1384.24 L1107.24 1373.04 L1031.96 1373.04 L1031.96 1373.04  Z
  " fill="#009af9" fill-rule="evenodd" fill-opacity="1"/>
<polyline clip-path="url(#clip212)" style="stroke:#000000; stroke-width:4; stroke-opacity:1; fill:none" points="
  1031.96,1373.04 1031.96,1384.24 1107.24,1384.24 1107.24,1373.04 1031.96,1373.04 
  "/>
<path clip-path="url(#clip212)" d="
M1107.24 1379.35 L1107.24 1384.24 L1182.52 1384.24 L1182.52 1379.35 L1107.24 1379.35 L1107.24 1379.35  Z
  " fill="#009af9" fill-rule="evenodd" fill-opacity="1"/>
<polyline clip-path="url(#clip212)" style="stroke:#000000; stroke-width:4; stroke-opacity:1; fill:none" points="
  1107.24,1379.35 1107.24,1384.24 1182.52,1384.24 1182.52,1379.35 1107.24,1379.35 
  "/>
<path clip-path="url(#clip212)" d="
M1182.52 1382.25 L1182.52 1384.24 L1257.8 1384.24 L1257.8 1382.25 L1182.52 1382.25 L1182.52 1382.25  Z
  " fill="#009af9" fill-rule="evenodd" fill-opacity="1"/>
<polyline clip-path="url(#clip212)" style="stroke:#000000; stroke-width:4; stroke-opacity:1; fill:none" points="
  1182.52,1382.25 1182.52,1384.24 1257.8,1384.24 1257.8,1382.25 1182.52,1382.25 
  "/>
<path clip-path="url(#clip212)" d="
M1257.8 1383.33 L1257.8 1384.24 L1333.08 1384.24 L1333.08 1383.33 L1257.8 1383.33 L1257.8 1383.33  Z
  " fill="#009af9" fill-rule="evenodd" fill-opacity="1"/>
<polyline clip-path="url(#clip212)" style="stroke:#000000; stroke-width:4; stroke-opacity:1; fill:none" points="
  1257.8,1383.33 1257.8,1384.24 1333.08,1384.24 1333.08,1383.33 1257.8,1383.33 
  "/>
<path clip-path="url(#clip212)" d="
M1333.08 1383.92 L1333.08 1384.24 L1408.36 1384.24 L1408.36 1383.92 L1333.08 1383.92 L1333.08 1383.92  Z
  " fill="#009af9" fill-rule="evenodd" fill-opacity="1"/>
<polyline clip-path="url(#clip212)" style="stroke:#000000; stroke-width:4; stroke-opacity:1; fill:none" points="
  1333.08,1383.92 1333.08,1384.24 1408.36,1384.24 1408.36,1383.92 1333.08,1383.92 
  "/>
<path clip-path="url(#clip212)" d="
M1408.36 1384.13 L1408.36 1384.24 L1483.64 1384.24 L1483.64 1384.13 L1408.36 1384.13 L1408.36 1384.13  Z
  " fill="#009af9" fill-rule="evenodd" fill-opacity="1"/>
<polyline clip-path="url(#clip212)" style="stroke:#000000; stroke-width:4; stroke-opacity:1; fill:none" points="
  1408.36,1384.13 1408.36,1384.24 1483.64,1384.24 1483.64,1384.13 1408.36,1384.13 
  "/>
<path clip-path="url(#clip212)" d="
M1483.64 1384.18 L1483.64 1384.24 L1558.92 1384.24 L1558.92 1384.18 L1483.64 1384.18 L1483.64 1384.18  Z
  " fill="#009af9" fill-rule="evenodd" fill-opacity="1"/>
<polyline clip-path="url(#clip212)" style="stroke:#000000; stroke-width:4; stroke-opacity:1; fill:none" points="
  1483.64,1384.18 1483.64,1384.24 1558.92,1384.24 1558.92,1384.18 1483.64,1384.18 
  "/>
<path clip-path="url(#clip212)" d="
M1558.92 1384.24 L1558.92 1384.24 L1634.2 1384.24 L1634.2 1384.24 L1558.92 1384.24 L1558.92 1384.24  Z
  " fill="#009af9" fill-rule="evenodd" fill-opacity="1"/>
<polyline clip-path="url(#clip212)" style="stroke:#000000; stroke-width:4; stroke-opacity:1; fill:none" points="
  1558.92,1384.24 1558.92,1384.24 1634.2,1384.24 1558.92,1384.24 
  "/>
<path clip-path="url(#clip212)" d="
M1634.2 1384.23 L1634.2 1384.24 L1709.49 1384.24 L1709.49 1384.23 L1634.2 1384.23 L1634.2 1384.23  Z
  " fill="#009af9" fill-rule="evenodd" fill-opacity="1"/>
<polyline clip-path="url(#clip212)" style="stroke:#000000; stroke-width:4; stroke-opacity:1; fill:none" points="
  1634.2,1384.23 1634.2,1384.24 1709.49,1384.24 1709.49,1384.23 1634.2,1384.23 
  "/>
<path clip-path="url(#clip212)" d="
M1709.49 1384.23 L1709.49 1384.24 L1784.77 1384.24 L1784.77 1384.23 L1709.49 1384.23 L1709.49 1384.23  Z
  " fill="#009af9" fill-rule="evenodd" fill-opacity="1"/>
<polyline clip-path="url(#clip212)" style="stroke:#000000; stroke-width:4; stroke-opacity:1; fill:none" points="
  1709.49,1384.23 1709.49,1384.24 1784.77,1384.24 1784.77,1384.23 1709.49,1384.23 
  "/>
<path clip-path="url(#clip212)" d="
M1784.77 1384.24 L1784.77 1384.24 L1860.05 1384.24 L1860.05 1384.24 L1784.77 1384.24 L1784.77 1384.24  Z
  " fill="#009af9" fill-rule="evenodd" fill-opacity="1"/>
<polyline clip-path="url(#clip212)" style="stroke:#000000; stroke-width:4; stroke-opacity:1; fill:none" points="
  1784.77,1384.24 1784.77,1384.24 1860.05,1384.24 1784.77,1384.24 
  "/>
<path clip-path="url(#clip212)" d="
M1860.05 1384.24 L1860.05 1384.24 L1935.33 1384.24 L1935.33 1384.24 L1860.05 1384.24 L1860.05 1384.24  Z
  " fill="#009af9" fill-rule="evenodd" fill-opacity="1"/>
<polyline clip-path="url(#clip212)" style="stroke:#000000; stroke-width:4; stroke-opacity:1; fill:none" points="
  1860.05,1384.24 1860.05,1384.24 1935.33,1384.24 1860.05,1384.24 
  "/>
<path clip-path="url(#clip212)" d="
M1935.33 1384.24 L1935.33 1384.24 L2010.61 1384.24 L2010.61 1384.24 L1935.33 1384.24 L1935.33 1384.24  Z
  " fill="#009af9" fill-rule="evenodd" fill-opacity="1"/>
<polyline clip-path="url(#clip212)" style="stroke:#000000; stroke-width:4; stroke-opacity:1; fill:none" points="
  1935.33,1384.24 1935.33,1384.24 2010.61,1384.24 1935.33,1384.24 
  "/>
<path clip-path="url(#clip212)" d="
M2010.61 1384.24 L2010.61 1384.24 L2085.89 1384.24 L2085.89 1384.24 L2010.61 1384.24 L2010.61 1384.24  Z
  " fill="#009af9" fill-rule="evenodd" fill-opacity="1"/>
<polyline clip-path="url(#clip212)" style="stroke:#000000; stroke-width:4; stroke-opacity:1; fill:none" points="
  2010.61,1384.24 2010.61,1384.24 2085.89,1384.24 2010.61,1384.24 
  "/>
<path clip-path="url(#clip212)" d="
M2085.89 1384.24 L2085.89 1384.24 L2161.17 1384.24 L2161.17 1384.24 L2085.89 1384.24 L2085.89 1384.24  Z
  " fill="#009af9" fill-rule="evenodd" fill-opacity="1"/>
<polyline clip-path="url(#clip212)" style="stroke:#000000; stroke-width:4; stroke-opacity:1; fill:none" points="
  2085.89,1384.24 2085.89,1384.24 2161.17,1384.24 2085.89,1384.24 
  "/>
<path clip-path="url(#clip212)" d="
M2161.17 1384.23 L2161.17 1384.24 L2236.45 1384.24 L2236.45 1384.23 L2161.17 1384.23 L2161.17 1384.23  Z
  " fill="#009af9" fill-rule="evenodd" fill-opacity="1"/>
<polyline clip-path="url(#clip212)" style="stroke:#000000; stroke-width:4; stroke-opacity:1; fill:none" points="
  2161.17,1384.23 2161.17,1384.24 2236.45,1384.24 2236.45,1384.23 2161.17,1384.23 
  "/>
<polyline clip-path="url(#clip212)" style="stroke:#e26f46; stroke-width:4; stroke-opacity:1; fill:none" points="
  494.442,2799.12 494.442,-1328.69 
  "/>
<polyline clip-path="url(#clip212)" style="stroke:#3da44d; stroke-width:4; stroke-opacity:1; fill:none" points="
  494.488,2799.12 494.488,-1328.69 
  "/>
<path clip-path="url(#clip210)" d="
M1689.56 335.029 L2282.27 335.029 L2282.27 93.1086 L1689.56 93.1086  Z
  " fill="#ffffff" fill-rule="evenodd" fill-opacity="1"/>
<polyline clip-path="url(#clip210)" style="stroke:#000000; stroke-width:4; stroke-opacity:1; fill:none" points="
  1689.56,335.029 2282.27,335.029 2282.27,93.1086 1689.56,93.1086 1689.56,335.029 
  "/>
<path clip-path="url(#clip210)" d="
M1713.05 177.781 L1854.03 177.781 L1854.03 129.397 L1713.05 129.397 L1713.05 177.781  Z
  " fill="#009af9" fill-rule="evenodd" fill-opacity="1"/>
<polyline clip-path="url(#clip210)" style="stroke:#000000; stroke-width:4; stroke-opacity:1; fill:none" points="
  1713.05,177.781 1854.03,177.781 1854.03,129.397 1713.05,129.397 1713.05,177.781 
  "/>
<path clip-path="url(#clip210)" d="M 0 0 M1891.37 173.276 Q1889.56 177.906 1887.85 179.318 Q1886.14 180.73 1883.26 180.73 L1879.86 180.73 L1879.86 177.165 L1882.36 177.165 Q1884.12 177.165 1885.09 176.332 Q1886.07 175.498 1887.25 172.396 L1888.01 170.452 L1877.52 144.943 L1882.04 144.943 L1890.14 165.221 L1898.24 144.943 L1902.76 144.943 L1891.37 173.276 Z" fill="#000000" fill-rule="evenodd" fill-opacity="1" /><path clip-path="url(#clip210)" d="M 0 0 M1908.63 166.933 L1916.27 166.933 L1916.27 140.568 L1907.96 142.235 L1907.96 137.975 L1916.23 136.309 L1920.9 136.309 L1920.9 166.933 L1928.54 166.933 L1928.54 170.869 L1908.63 170.869 L1908.63 166.933 Z" fill="#000000" fill-rule="evenodd" fill-opacity="1" /><polyline clip-path="url(#clip210)" style="stroke:#e26f46; stroke-width:4; stroke-opacity:1; fill:none" points="
  1713.05,214.069 1854.03,214.069 
  "/>
<path clip-path="url(#clip210)" d="M 0 0 M1884.93 198.062 L1884.93 205.423 L1893.7 205.423 L1893.7 208.733 L1884.93 208.733 L1884.93 222.807 Q1884.93 225.978 1885.79 226.881 Q1886.67 227.784 1889.33 227.784 L1893.7 227.784 L1893.7 231.349 L1889.33 231.349 Q1884.4 231.349 1882.52 229.52 Q1880.65 227.668 1880.65 222.807 L1880.65 208.733 L1877.52 208.733 L1877.52 205.423 L1880.65 205.423 L1880.65 198.062 L1884.93 198.062 Z" fill="#000000" fill-rule="evenodd" fill-opacity="1" /><path clip-path="url(#clip210)" d="M 0 0 M1919.72 215.701 L1919.72 231.349 L1915.46 231.349 L1915.46 215.839 Q1915.46 212.159 1914.03 210.33 Q1912.59 208.502 1909.72 208.502 Q1906.27 208.502 1904.28 210.701 Q1902.29 212.9 1902.29 216.696 L1902.29 231.349 L1898.01 231.349 L1898.01 195.33 L1902.29 195.33 L1902.29 209.451 Q1903.82 207.113 1905.88 205.955 Q1907.96 204.798 1910.67 204.798 Q1915.14 204.798 1917.43 207.576 Q1919.72 210.33 1919.72 215.701 Z" fill="#000000" fill-rule="evenodd" fill-opacity="1" /><path clip-path="url(#clip210)" d="M 0 0 M1946.37 217.321 L1946.37 219.404 L1926.78 219.404 Q1927.06 223.802 1929.42 226.117 Q1931.81 228.409 1936.04 228.409 Q1938.5 228.409 1940.79 227.807 Q1943.1 227.205 1945.37 226.001 L1945.37 230.029 Q1943.08 231.001 1940.67 231.511 Q1938.26 232.02 1935.79 232.02 Q1929.58 232.02 1925.95 228.409 Q1922.34 224.798 1922.34 218.64 Q1922.34 212.275 1925.76 208.548 Q1929.21 204.798 1935.05 204.798 Q1940.28 204.798 1943.31 208.177 Q1946.37 211.534 1946.37 217.321 M1942.11 216.071 Q1942.06 212.576 1940.14 210.492 Q1938.24 208.409 1935.09 208.409 Q1931.53 208.409 1929.38 210.423 Q1927.25 212.437 1926.92 216.094 L1942.11 216.071 Z" fill="#000000" fill-rule="evenodd" fill-opacity="1" /><path clip-path="url(#clip210)" d="M 0 0 M1960.88 208.409 Q1957.45 208.409 1955.46 211.094 Q1953.47 213.756 1953.47 218.409 Q1953.47 223.062 1955.44 225.747 Q1957.43 228.409 1960.88 228.409 Q1964.28 228.409 1966.27 225.724 Q1968.26 223.038 1968.26 218.409 Q1968.26 213.802 1966.27 211.117 Q1964.28 208.409 1960.88 208.409 M1960.88 204.798 Q1966.44 204.798 1969.61 208.409 Q1972.78 212.02 1972.78 218.409 Q1972.78 224.775 1969.61 228.409 Q1966.44 232.02 1960.88 232.02 Q1955.3 232.02 1952.13 228.409 Q1948.98 224.775 1948.98 218.409 Q1948.98 212.02 1952.13 208.409 Q1955.3 204.798 1960.88 204.798 Z" fill="#000000" fill-rule="evenodd" fill-opacity="1" /><path clip-path="url(#clip210)" d="M 0 0 M1992.27 209.404 Q1991.55 208.988 1990.69 208.802 Q1989.86 208.594 1988.84 208.594 Q1985.23 208.594 1983.29 210.955 Q1981.37 213.293 1981.37 217.691 L1981.37 231.349 L1977.08 231.349 L1977.08 205.423 L1981.37 205.423 L1981.37 209.451 Q1982.71 207.089 1984.86 205.955 Q1987.01 204.798 1990.09 204.798 Q1990.53 204.798 1991.07 204.867 Q1991.6 204.914 1992.25 205.029 L1992.27 209.404 Z" fill="#000000" fill-rule="evenodd" fill-opacity="1" /><path clip-path="url(#clip210)" d="M 0 0 M2017.87 217.321 L2017.87 219.404 L1998.29 219.404 Q1998.56 223.802 2000.93 226.117 Q2003.31 228.409 2007.55 228.409 Q2010 228.409 2012.29 227.807 Q2014.61 227.205 2016.88 226.001 L2016.88 230.029 Q2014.58 231.001 2012.18 231.511 Q2009.77 232.02 2007.29 232.02 Q2001.09 232.02 1997.45 228.409 Q1993.84 224.798 1993.84 218.64 Q1993.84 212.275 1997.27 208.548 Q2000.72 204.798 2006.55 204.798 Q2011.78 204.798 2014.81 208.177 Q2017.87 211.534 2017.87 217.321 M2013.61 216.071 Q2013.56 212.576 2011.64 210.492 Q2009.75 208.409 2006.6 208.409 Q2003.03 208.409 2000.88 210.423 Q1998.75 212.437 1998.43 216.094 L2013.61 216.071 Z" fill="#000000" fill-rule="evenodd" fill-opacity="1" /><path clip-path="url(#clip210)" d="M 0 0 M2026.55 198.062 L2026.55 205.423 L2035.32 205.423 L2035.32 208.733 L2026.55 208.733 L2026.55 222.807 Q2026.55 225.978 2027.41 226.881 Q2028.29 227.784 2030.95 227.784 L2035.32 227.784 L2035.32 231.349 L2030.95 231.349 Q2026.02 231.349 2024.14 229.52 Q2022.27 227.668 2022.27 222.807 L2022.27 208.733 L2019.14 208.733 L2019.14 205.423 L2022.27 205.423 L2022.27 198.062 L2026.55 198.062 Z" fill="#000000" fill-rule="evenodd" fill-opacity="1" /><path clip-path="url(#clip210)" d="M 0 0 M2039.79 205.423 L2044.05 205.423 L2044.05 231.349 L2039.79 231.349 L2039.79 205.423 M2039.79 195.33 L2044.05 195.33 L2044.05 200.724 L2039.79 200.724 L2039.79 195.33 Z" fill="#000000" fill-rule="evenodd" fill-opacity="1" /><path clip-path="url(#clip210)" d="M 0 0 M2067.18 206.418 L2067.18 210.4 Q2065.37 209.404 2063.54 208.918 Q2061.74 208.409 2059.88 208.409 Q2055.74 208.409 2053.45 211.048 Q2051.16 213.664 2051.16 218.409 Q2051.16 223.154 2053.45 225.793 Q2055.74 228.409 2059.88 228.409 Q2061.74 228.409 2063.54 227.923 Q2065.37 227.413 2067.18 226.418 L2067.18 230.353 Q2065.39 231.187 2063.47 231.603 Q2061.57 232.02 2059.42 232.02 Q2053.56 232.02 2050.12 228.339 Q2046.67 224.659 2046.67 218.409 Q2046.67 212.066 2050.14 208.432 Q2053.63 204.798 2059.7 204.798 Q2061.67 204.798 2063.54 205.215 Q2065.42 205.608 2067.18 206.418 Z" fill="#000000" fill-rule="evenodd" fill-opacity="1" /><path clip-path="url(#clip210)" d="M 0 0 M2083.43 218.316 Q2078.26 218.316 2076.27 219.497 Q2074.28 220.677 2074.28 223.525 Q2074.28 225.793 2075.76 227.136 Q2077.27 228.455 2079.84 228.455 Q2083.38 228.455 2085.51 225.955 Q2087.66 223.432 2087.66 219.265 L2087.66 218.316 L2083.43 218.316 M2091.92 216.557 L2091.92 231.349 L2087.66 231.349 L2087.66 227.413 Q2086.2 229.775 2084.03 230.909 Q2081.85 232.02 2078.7 232.02 Q2074.72 232.02 2072.36 229.798 Q2070.02 227.552 2070.02 223.802 Q2070.02 219.427 2072.94 217.205 Q2075.88 214.983 2081.69 214.983 L2087.66 214.983 L2087.66 214.566 Q2087.66 211.627 2085.72 210.029 Q2083.8 208.409 2080.3 208.409 Q2078.08 208.409 2075.97 208.941 Q2073.87 209.474 2071.92 210.539 L2071.92 206.603 Q2074.26 205.701 2076.46 205.261 Q2078.66 204.798 2080.74 204.798 Q2086.37 204.798 2089.14 207.714 Q2091.92 210.631 2091.92 216.557 Z" fill="#000000" fill-rule="evenodd" fill-opacity="1" /><path clip-path="url(#clip210)" d="M 0 0 M2096.39 195.33 L2100.65 195.33 L2100.65 231.349 L2096.39 231.349 L2096.39 195.33 Z" fill="#000000" fill-rule="evenodd" fill-opacity="1" /><path clip-path="url(#clip210)" d="M 0 0 M2140.37 210.4 Q2141.97 207.529 2144.19 206.164 Q2146.41 204.798 2149.42 204.798 Q2153.47 204.798 2155.67 207.645 Q2157.87 210.469 2157.87 215.701 L2157.87 231.349 L2153.59 231.349 L2153.59 215.839 Q2153.59 212.113 2152.27 210.307 Q2150.95 208.502 2148.24 208.502 Q2144.93 208.502 2143.01 210.701 Q2141.09 212.9 2141.09 216.696 L2141.09 231.349 L2136.8 231.349 L2136.8 215.839 Q2136.8 212.089 2135.49 210.307 Q2134.17 208.502 2131.41 208.502 Q2128.15 208.502 2126.23 210.724 Q2124.31 212.923 2124.31 216.696 L2124.31 231.349 L2120.02 231.349 L2120.02 205.423 L2124.31 205.423 L2124.31 209.451 Q2125.76 207.066 2127.8 205.932 Q2129.84 204.798 2132.64 204.798 Q2135.46 204.798 2137.43 206.233 Q2139.42 207.668 2140.37 210.4 Z" fill="#000000" fill-rule="evenodd" fill-opacity="1" /><path clip-path="url(#clip210)" d="M 0 0 M2184.51 217.321 L2184.51 219.404 L2164.93 219.404 Q2165.21 223.802 2167.57 226.117 Q2169.95 228.409 2174.19 228.409 Q2176.64 228.409 2178.93 227.807 Q2181.25 227.205 2183.52 226.001 L2183.52 230.029 Q2181.23 231.001 2178.82 231.511 Q2176.41 232.02 2173.93 232.02 Q2167.73 232.02 2164.1 228.409 Q2160.49 224.798 2160.49 218.64 Q2160.49 212.275 2163.91 208.548 Q2167.36 204.798 2173.19 204.798 Q2178.43 204.798 2181.46 208.177 Q2184.51 211.534 2184.51 217.321 M2180.25 216.071 Q2180.21 212.576 2178.29 210.492 Q2176.39 208.409 2173.24 208.409 Q2169.68 208.409 2167.52 210.423 Q2165.39 212.437 2165.07 216.094 L2180.25 216.071 Z" fill="#000000" fill-rule="evenodd" fill-opacity="1" /><path clip-path="url(#clip210)" d="M 0 0 M2200.76 218.316 Q2195.6 218.316 2193.61 219.497 Q2191.62 220.677 2191.62 223.525 Q2191.62 225.793 2193.1 227.136 Q2194.61 228.455 2197.18 228.455 Q2200.72 228.455 2202.85 225.955 Q2205 223.432 2205 219.265 L2205 218.316 L2200.76 218.316 M2209.26 216.557 L2209.26 231.349 L2205 231.349 L2205 227.413 Q2203.54 229.775 2201.36 230.909 Q2199.19 232.02 2196.04 232.02 Q2192.06 232.02 2189.7 229.798 Q2187.36 227.552 2187.36 223.802 Q2187.36 219.427 2190.28 217.205 Q2193.22 214.983 2199.03 214.983 L2205 214.983 L2205 214.566 Q2205 211.627 2203.05 210.029 Q2201.13 208.409 2197.64 208.409 Q2195.42 208.409 2193.31 208.941 Q2191.2 209.474 2189.26 210.539 L2189.26 206.603 Q2191.6 205.701 2193.8 205.261 Q2195.99 204.798 2198.08 204.798 Q2203.7 204.798 2206.48 207.714 Q2209.26 210.631 2209.26 216.557 Z" fill="#000000" fill-rule="evenodd" fill-opacity="1" /><path clip-path="url(#clip210)" d="M 0 0 M2235.28 215.701 L2235.28 231.349 L2231.02 231.349 L2231.02 215.839 Q2231.02 212.159 2229.58 210.33 Q2228.15 208.502 2225.28 208.502 Q2221.83 208.502 2219.84 210.701 Q2217.85 212.9 2217.85 216.696 L2217.85 231.349 L2213.56 231.349 L2213.56 205.423 L2217.85 205.423 L2217.85 209.451 Q2219.37 207.113 2221.43 205.955 Q2223.52 204.798 2226.23 204.798 Q2230.69 204.798 2232.99 207.576 Q2235.28 210.33 2235.28 215.701 Z" fill="#000000" fill-rule="evenodd" fill-opacity="1" /><polyline clip-path="url(#clip210)" style="stroke:#3da44d; stroke-width:4; stroke-opacity:1; fill:none" points="
  1713.05,274.549 1854.03,274.549 
  "/>
<path clip-path="url(#clip210)" d="M 0 0 M1895.95 266.667 L1895.95 270.694 Q1894.14 269.769 1892.2 269.306 Q1890.26 268.843 1888.17 268.843 Q1885 268.843 1883.4 269.815 Q1881.83 270.787 1881.83 272.731 Q1881.83 274.213 1882.96 275.069 Q1884.1 275.903 1887.52 276.667 L1888.98 276.991 Q1893.52 277.963 1895.42 279.745 Q1897.34 281.505 1897.34 284.676 Q1897.34 288.287 1894.47 290.393 Q1891.62 292.5 1886.62 292.5 Q1884.54 292.5 1882.27 292.083 Q1880.02 291.69 1877.52 290.88 L1877.52 286.481 Q1879.89 287.708 1882.18 288.333 Q1884.47 288.935 1886.71 288.935 Q1889.72 288.935 1891.34 287.917 Q1892.96 286.875 1892.96 285 Q1892.96 283.264 1891.78 282.338 Q1890.63 281.412 1886.67 280.556 L1885.19 280.208 Q1881.23 279.375 1879.47 277.662 Q1877.71 275.926 1877.71 272.917 Q1877.71 269.259 1880.3 267.269 Q1882.89 265.278 1887.66 265.278 Q1890.02 265.278 1892.11 265.625 Q1894.19 265.972 1895.95 266.667 Z" fill="#000000" fill-rule="evenodd" fill-opacity="1" /><path clip-path="url(#clip210)" d="M 0 0 M1906.02 258.542 L1906.02 265.903 L1914.79 265.903 L1914.79 269.213 L1906.02 269.213 L1906.02 283.287 Q1906.02 286.458 1906.88 287.361 Q1907.76 288.264 1910.42 288.264 L1914.79 288.264 L1914.79 291.829 L1910.42 291.829 Q1905.49 291.829 1903.61 290 Q1901.74 288.148 1901.74 283.287 L1901.74 269.213 L1898.61 269.213 L1898.61 265.903 L1901.74 265.903 L1901.74 258.542 L1906.02 258.542 Z" fill="#000000" fill-rule="evenodd" fill-opacity="1" /><path clip-path="url(#clip210)" d="M 0 0 M1931.04 278.796 Q1925.88 278.796 1923.89 279.977 Q1921.9 281.157 1921.9 284.005 Q1921.9 286.273 1923.38 287.616 Q1924.88 288.935 1927.45 288.935 Q1931 288.935 1933.13 286.435 Q1935.28 283.912 1935.28 279.745 L1935.28 278.796 L1931.04 278.796 M1939.54 277.037 L1939.54 291.829 L1935.28 291.829 L1935.28 287.893 Q1933.82 290.255 1931.64 291.389 Q1929.47 292.5 1926.32 292.5 Q1922.34 292.5 1919.98 290.278 Q1917.64 288.032 1917.64 284.282 Q1917.64 279.907 1920.56 277.685 Q1923.5 275.463 1929.31 275.463 L1935.28 275.463 L1935.28 275.046 Q1935.28 272.107 1933.33 270.509 Q1931.41 268.889 1927.92 268.889 Q1925.7 268.889 1923.59 269.421 Q1921.48 269.954 1919.54 271.019 L1919.54 267.083 Q1921.88 266.181 1924.07 265.741 Q1926.27 265.278 1928.36 265.278 Q1933.98 265.278 1936.76 268.194 Q1939.54 271.111 1939.54 277.037 Z" fill="#000000" fill-rule="evenodd" fill-opacity="1" /><path clip-path="url(#clip210)" d="M 0 0 M1948.22 258.542 L1948.22 265.903 L1956.99 265.903 L1956.99 269.213 L1948.22 269.213 L1948.22 283.287 Q1948.22 286.458 1949.07 287.361 Q1949.95 288.264 1952.62 288.264 L1956.99 288.264 L1956.99 291.829 L1952.62 291.829 Q1947.69 291.829 1945.81 290 Q1943.94 288.148 1943.94 283.287 L1943.94 269.213 L1940.81 269.213 L1940.81 265.903 L1943.94 265.903 L1943.94 258.542 L1948.22 258.542 Z" fill="#000000" fill-rule="evenodd" fill-opacity="1" /><path clip-path="url(#clip210)" d="M 0 0 M1961.46 265.903 L1965.72 265.903 L1965.72 291.829 L1961.46 291.829 L1961.46 265.903 M1961.46 255.81 L1965.72 255.81 L1965.72 261.204 L1961.46 261.204 L1961.46 255.81 Z" fill="#000000" fill-rule="evenodd" fill-opacity="1" /><path clip-path="url(#clip210)" d="M 0 0 M1986.71 266.667 L1986.71 270.694 Q1984.91 269.769 1982.96 269.306 Q1981.02 268.843 1978.94 268.843 Q1975.76 268.843 1974.17 269.815 Q1972.59 270.787 1972.59 272.731 Q1972.59 274.213 1973.73 275.069 Q1974.86 275.903 1978.29 276.667 L1979.75 276.991 Q1984.28 277.963 1986.18 279.745 Q1988.1 281.505 1988.1 284.676 Q1988.1 288.287 1985.23 290.393 Q1982.38 292.5 1977.38 292.5 Q1975.3 292.5 1973.03 292.083 Q1970.79 291.69 1968.29 290.88 L1968.29 286.481 Q1970.65 287.708 1972.94 288.333 Q1975.23 288.935 1977.48 288.935 Q1980.49 288.935 1982.11 287.917 Q1983.73 286.875 1983.73 285 Q1983.73 283.264 1982.55 282.338 Q1981.39 281.412 1977.43 280.556 L1975.95 280.208 Q1971.99 279.375 1970.23 277.662 Q1968.47 275.926 1968.47 272.917 Q1968.47 269.259 1971.07 267.269 Q1973.66 265.278 1978.43 265.278 Q1980.79 265.278 1982.87 265.625 Q1984.95 265.972 1986.71 266.667 Z" fill="#000000" fill-rule="evenodd" fill-opacity="1" /><path clip-path="url(#clip210)" d="M 0 0 M1996.78 258.542 L1996.78 265.903 L2005.56 265.903 L2005.56 269.213 L1996.78 269.213 L1996.78 283.287 Q1996.78 286.458 1997.64 287.361 Q1998.52 288.264 2001.18 288.264 L2005.56 288.264 L2005.56 291.829 L2001.18 291.829 Q1996.25 291.829 1994.38 290 Q1992.5 288.148 1992.5 283.287 L1992.5 269.213 L1989.38 269.213 L1989.38 265.903 L1992.5 265.903 L1992.5 258.542 L1996.78 258.542 Z" fill="#000000" fill-rule="evenodd" fill-opacity="1" /><path clip-path="url(#clip210)" d="M 0 0 M2010.02 265.903 L2014.28 265.903 L2014.28 291.829 L2010.02 291.829 L2010.02 265.903 M2010.02 255.81 L2014.28 255.81 L2014.28 261.204 L2010.02 261.204 L2010.02 255.81 Z" fill="#000000" fill-rule="evenodd" fill-opacity="1" /><path clip-path="url(#clip210)" d="M 0 0 M2037.41 266.898 L2037.41 270.88 Q2035.6 269.884 2033.77 269.398 Q2031.97 268.889 2030.12 268.889 Q2025.97 268.889 2023.68 271.528 Q2021.39 274.144 2021.39 278.889 Q2021.39 283.634 2023.68 286.273 Q2025.97 288.889 2030.12 288.889 Q2031.97 288.889 2033.77 288.403 Q2035.6 287.893 2037.41 286.898 L2037.41 290.833 Q2035.62 291.667 2033.7 292.083 Q2031.81 292.5 2029.65 292.5 Q2023.8 292.5 2020.35 288.819 Q2016.9 285.139 2016.9 278.889 Q2016.9 272.546 2020.37 268.912 Q2023.87 265.278 2029.93 265.278 Q2031.9 265.278 2033.77 265.695 Q2035.65 266.088 2037.41 266.898 Z" fill="#000000" fill-rule="evenodd" fill-opacity="1" /><path clip-path="url(#clip210)" d="M 0 0 M2053.66 278.796 Q2048.5 278.796 2046.5 279.977 Q2044.51 281.157 2044.51 284.005 Q2044.51 286.273 2046 287.616 Q2047.5 288.935 2050.07 288.935 Q2053.61 288.935 2055.74 286.435 Q2057.89 283.912 2057.89 279.745 L2057.89 278.796 L2053.66 278.796 M2062.15 277.037 L2062.15 291.829 L2057.89 291.829 L2057.89 287.893 Q2056.44 290.255 2054.26 291.389 Q2052.08 292.5 2048.94 292.5 Q2044.95 292.5 2042.59 290.278 Q2040.25 288.032 2040.25 284.282 Q2040.25 279.907 2043.17 277.685 Q2046.11 275.463 2051.92 275.463 L2057.89 275.463 L2057.89 275.046 Q2057.89 272.107 2055.95 270.509 Q2054.03 268.889 2050.53 268.889 Q2048.31 268.889 2046.2 269.421 Q2044.1 269.954 2042.15 271.019 L2042.15 267.083 Q2044.49 266.181 2046.69 265.741 Q2048.89 265.278 2050.97 265.278 Q2056.6 265.278 2059.37 268.194 Q2062.15 271.111 2062.15 277.037 Z" fill="#000000" fill-rule="evenodd" fill-opacity="1" /><path clip-path="url(#clip210)" d="M 0 0 M2066.62 255.81 L2070.88 255.81 L2070.88 291.829 L2066.62 291.829 L2066.62 255.81 Z" fill="#000000" fill-rule="evenodd" fill-opacity="1" /><path clip-path="url(#clip210)" d="M 0 0 M2110.6 270.88 Q2112.2 268.009 2114.42 266.644 Q2116.64 265.278 2119.65 265.278 Q2123.7 265.278 2125.9 268.125 Q2128.1 270.949 2128.1 276.181 L2128.1 291.829 L2123.82 291.829 L2123.82 276.319 Q2123.82 272.593 2122.5 270.787 Q2121.18 268.982 2118.47 268.982 Q2115.16 268.982 2113.24 271.181 Q2111.32 273.38 2111.32 277.176 L2111.32 291.829 L2107.04 291.829 L2107.04 276.319 Q2107.04 272.569 2105.72 270.787 Q2104.4 268.982 2101.64 268.982 Q2098.38 268.982 2096.46 271.204 Q2094.54 273.403 2094.54 277.176 L2094.54 291.829 L2090.25 291.829 L2090.25 265.903 L2094.54 265.903 L2094.54 269.931 Q2096 267.546 2098.03 266.412 Q2100.07 265.278 2102.87 265.278 Q2105.69 265.278 2107.66 266.713 Q2109.65 268.148 2110.6 270.88 Z" fill="#000000" fill-rule="evenodd" fill-opacity="1" /><path clip-path="url(#clip210)" d="M 0 0 M2154.74 277.801 L2154.74 279.884 L2135.16 279.884 Q2135.44 284.282 2137.8 286.597 Q2140.18 288.889 2144.42 288.889 Q2146.87 288.889 2149.17 288.287 Q2151.48 287.685 2153.75 286.481 L2153.75 290.509 Q2151.46 291.481 2149.05 291.991 Q2146.64 292.5 2144.17 292.5 Q2137.96 292.5 2134.33 288.889 Q2130.72 285.278 2130.72 279.12 Q2130.72 272.755 2134.14 269.028 Q2137.59 265.278 2143.43 265.278 Q2148.66 265.278 2151.69 268.657 Q2154.74 272.014 2154.74 277.801 M2150.49 276.551 Q2150.44 273.056 2148.52 270.972 Q2146.62 268.889 2143.47 268.889 Q2139.91 268.889 2137.75 270.903 Q2135.62 272.917 2135.3 276.574 L2150.49 276.551 Z" fill="#000000" fill-rule="evenodd" fill-opacity="1" /><path clip-path="url(#clip210)" d="M 0 0 M2170.99 278.796 Q2165.83 278.796 2163.84 279.977 Q2161.85 281.157 2161.85 284.005 Q2161.85 286.273 2163.33 287.616 Q2164.84 288.935 2167.41 288.935 Q2170.95 288.935 2173.08 286.435 Q2175.23 283.912 2175.23 279.745 L2175.23 278.796 L2170.99 278.796 M2179.49 277.037 L2179.49 291.829 L2175.23 291.829 L2175.23 287.893 Q2173.77 290.255 2171.6 291.389 Q2169.42 292.5 2166.27 292.5 Q2162.29 292.5 2159.93 290.278 Q2157.59 288.032 2157.59 284.282 Q2157.59 279.907 2160.51 277.685 Q2163.45 275.463 2169.26 275.463 L2175.23 275.463 L2175.23 275.046 Q2175.23 272.107 2173.29 270.509 Q2171.36 268.889 2167.87 268.889 Q2165.65 268.889 2163.54 269.421 Q2161.43 269.954 2159.49 271.019 L2159.49 267.083 Q2161.83 266.181 2164.03 265.741 Q2166.23 265.278 2168.31 265.278 Q2173.93 265.278 2176.71 268.194 Q2179.49 271.111 2179.49 277.037 Z" fill="#000000" fill-rule="evenodd" fill-opacity="1" /><path clip-path="url(#clip210)" d="M 0 0 M2205.51 276.181 L2205.51 291.829 L2201.25 291.829 L2201.25 276.319 Q2201.25 272.639 2199.81 270.81 Q2198.38 268.982 2195.51 268.982 Q2192.06 268.982 2190.07 271.181 Q2188.08 273.38 2188.08 277.176 L2188.08 291.829 L2183.8 291.829 L2183.8 265.903 L2188.08 265.903 L2188.08 269.931 Q2189.61 267.593 2191.67 266.435 Q2193.75 265.278 2196.46 265.278 Q2200.93 265.278 2203.22 268.056 Q2205.51 270.81 2205.51 276.181 Z" fill="#000000" fill-rule="evenodd" fill-opacity="1" /></svg>
