<?xml version="1.0" encoding="utf-8"?>
<svg xmlns="http://www.w3.org/2000/svg" xmlns:xlink="http://www.w3.org/1999/xlink" width="600" height="400" viewBox="0 0 2400 1600">
<defs>
  <clipPath id="clip180">
    <rect x="0" y="0" width="2400" height="1600"/>
  </clipPath>
</defs>
<path clip-path="url(#clip180)" d="
M0 1600 L2400 1600 L2400 0 L0 0  Z
  " fill="#ffffff" fill-rule="evenodd" fill-opacity="1"/>
<defs>
  <clipPath id="clip181">
    <rect x="480" y="0" width="1681" height="1600"/>
  </clipPath>
</defs>
<defs>
  <clipPath id="clip182">
    <rect x="245" y="123" width="2108" height="1321"/>
  </clipPath>
</defs>
<path clip-path="url(#clip180)" d="
M245.574 1443.01 L2352.76 1443.01 L2352.76 123.472 L245.574 123.472  Z
  " fill="#ffffff" fill-rule="evenodd" fill-opacity="1"/>
<polyline clip-path="url(#clip180)" style="stroke:#000000; stroke-linecap:butt; stroke-linejoin:round; stroke-width:4; stroke-opacity:1; fill:none" points="
  245.574,1443.01 2352.76,1443.01 
  "/>
<polyline clip-path="url(#clip180)" style="stroke:#000000; stroke-linecap:butt; stroke-linejoin:round; stroke-width:4; stroke-opacity:1; fill:none" points="
  305.211,1443.01 305.211,1424.11 
  "/>
<polyline clip-path="url(#clip180)" style="stroke:#000000; stroke-linecap:butt; stroke-linejoin:round; stroke-width:4; stroke-opacity:1; fill:none" points="
  889.89,1443.01 889.89,1424.11 
  "/>
<polyline clip-path="url(#clip180)" style="stroke:#000000; stroke-linecap:butt; stroke-linejoin:round; stroke-width:4; stroke-opacity:1; fill:none" points="
  1474.57,1443.01 1474.57,1424.11 
  "/>
<polyline clip-path="url(#clip180)" style="stroke:#000000; stroke-linecap:butt; stroke-linejoin:round; stroke-width:4; stroke-opacity:1; fill:none" points="
  2059.25,1443.01 2059.25,1424.11 
  "/>
<path clip-path="url(#clip180)" d="M305.211 1472.2 Q301.6 1472.2 299.772 1475.77 Q297.966 1479.31 297.966 1486.44 Q297.966 1493.55 299.772 1497.11 Q301.6 1500.65 305.211 1500.65 Q308.846 1500.65 310.651 1497.11 Q312.48 1493.55 312.48 1486.44 Q312.48 1479.31 310.651 1475.77 Q308.846 1472.2 305.211 1472.2 M305.211 1468.5 Q311.021 1468.5 314.077 1473.11 Q317.156 1477.69 317.156 1486.44 Q317.156 1495.17 314.077 1499.77 Q311.021 1504.36 305.211 1504.36 Q299.401 1504.36 296.322 1499.77 Q293.267 1495.17 293.267 1486.44 Q293.267 1477.69 296.322 1473.11 Q299.401 1468.5 305.211 1468.5 Z" fill="#000000" fill-rule="evenodd" fill-opacity="1" /><path clip-path="url(#clip180)" d="M880.168 1469.12 L898.524 1469.12 L898.524 1473.06 L884.45 1473.06 L884.45 1481.53 Q885.469 1481.18 886.487 1481.02 Q887.506 1480.84 888.524 1480.84 Q894.311 1480.84 897.691 1484.01 Q901.07 1487.18 901.07 1492.6 Q901.07 1498.18 897.598 1501.28 Q894.126 1504.36 887.807 1504.36 Q885.631 1504.36 883.362 1503.99 Q881.117 1503.61 878.709 1502.87 L878.709 1498.18 Q880.793 1499.31 883.015 1499.86 Q885.237 1500.42 887.714 1500.42 Q891.719 1500.42 894.057 1498.31 Q896.395 1496.21 896.395 1492.6 Q896.395 1488.99 894.057 1486.88 Q891.719 1484.77 887.714 1484.77 Q885.839 1484.77 883.964 1485.19 Q882.112 1485.61 880.168 1486.49 L880.168 1469.12 Z" fill="#000000" fill-rule="evenodd" fill-opacity="1" /><path clip-path="url(#clip180)" d="M1449.26 1499.75 L1456.9 1499.75 L1456.9 1473.38 L1448.58 1475.05 L1448.58 1470.79 L1456.85 1469.12 L1461.52 1469.12 L1461.52 1499.75 L1469.16 1499.75 L1469.16 1503.68 L1449.26 1503.68 L1449.26 1499.75 Z" fill="#000000" fill-rule="evenodd" fill-opacity="1" /><path clip-path="url(#clip180)" d="M1488.61 1472.2 Q1485 1472.2 1483.17 1475.77 Q1481.36 1479.31 1481.36 1486.44 Q1481.36 1493.55 1483.17 1497.11 Q1485 1500.65 1488.61 1500.65 Q1492.24 1500.65 1494.05 1497.11 Q1495.88 1493.55 1495.88 1486.44 Q1495.88 1479.31 1494.05 1475.77 Q1492.24 1472.2 1488.61 1472.2 M1488.61 1468.5 Q1494.42 1468.5 1497.47 1473.11 Q1500.55 1477.69 1500.55 1486.44 Q1500.55 1495.17 1497.47 1499.77 Q1494.42 1504.36 1488.61 1504.36 Q1482.8 1504.36 1479.72 1499.77 Q1476.66 1495.17 1476.66 1486.44 Q1476.66 1477.69 1479.72 1473.11 Q1482.8 1468.5 1488.61 1468.5 Z" fill="#000000" fill-rule="evenodd" fill-opacity="1" /><path clip-path="url(#clip180)" d="M2034.43 1499.75 L2042.07 1499.75 L2042.07 1473.38 L2033.76 1475.05 L2033.76 1470.79 L2042.03 1469.12 L2046.7 1469.12 L2046.7 1499.75 L2054.34 1499.75 L2054.34 1503.68 L2034.43 1503.68 L2034.43 1499.75 Z" fill="#000000" fill-rule="evenodd" fill-opacity="1" /><path clip-path="url(#clip180)" d="M2063.83 1469.12 L2082.19 1469.12 L2082.19 1473.06 L2068.11 1473.06 L2068.11 1481.53 Q2069.13 1481.18 2070.15 1481.02 Q2071.17 1480.84 2072.19 1480.84 Q2077.97 1480.84 2081.35 1484.01 Q2084.73 1487.18 2084.73 1492.6 Q2084.73 1498.18 2081.26 1501.28 Q2077.79 1504.36 2071.47 1504.36 Q2069.29 1504.36 2067.02 1503.99 Q2064.78 1503.61 2062.37 1502.87 L2062.37 1498.18 Q2064.46 1499.31 2066.68 1499.86 Q2068.9 1500.42 2071.38 1500.42 Q2075.38 1500.42 2077.72 1498.31 Q2080.06 1496.21 2080.06 1492.6 Q2080.06 1488.99 2077.72 1486.88 Q2075.38 1484.77 2071.38 1484.77 Q2069.5 1484.77 2067.63 1485.19 Q2065.77 1485.61 2063.83 1486.49 L2063.83 1469.12 Z" fill="#000000" fill-rule="evenodd" fill-opacity="1" /><path clip-path="url(#clip180)" d="M1317.2 1536.96 Q1317.2 1541.66 1314.81 1546.2 Q1312.46 1550.74 1308.76 1553.55 Q1305.06 1556.31 1301.29 1556.31 Q1299.03 1556.31 1297.52 1555.09 Q1296.04 1553.84 1295.23 1552.06 Q1294.62 1554.25 1293.3 1559.5 Q1291.98 1564.75 1291.98 1565.27 Q1291.98 1565.56 1292.04 1565.69 Q1292.11 1565.82 1292.4 1565.98 Q1292.69 1566.17 1293.4 1566.23 Q1294.11 1566.33 1295.3 1566.33 Q1295.91 1566.33 1296.13 1566.33 Q1296.39 1566.36 1296.62 1566.52 Q1296.88 1566.69 1296.88 1567.04 Q1296.88 1568.36 1295.68 1568.36 Q1294.62 1568.36 1292.43 1568.26 Q1290.24 1568.17 1289.15 1568.17 Q1288.21 1568.17 1286.34 1568.26 Q1284.48 1568.36 1283.61 1568.36 Q1282.74 1568.36 1282.74 1567.59 Q1282.74 1567.14 1282.87 1566.85 Q1282.96 1566.59 1283.22 1566.46 Q1283.48 1566.36 1283.7 1566.33 Q1283.9 1566.33 1284.28 1566.33 Q1285.76 1566.33 1286.41 1566.07 Q1287.05 1565.85 1287.28 1565.36 Q1287.54 1564.91 1287.83 1563.63 L1295.23 1534.25 Q1295.68 1532.29 1295.68 1530.9 Q1295.68 1529.17 1295.14 1528.52 Q1294.59 1527.88 1293.62 1527.88 Q1291.95 1527.88 1290.85 1529.87 Q1289.76 1531.87 1288.82 1535.74 Q1288.53 1536.8 1288.34 1537.02 Q1288.18 1537.25 1287.7 1537.25 Q1286.89 1537.22 1286.89 1536.57 Q1286.89 1536.41 1287.15 1535.38 Q1287.41 1534.32 1287.89 1532.77 Q1288.41 1531.19 1288.95 1530.2 Q1289.28 1529.52 1289.56 1529.07 Q1289.85 1528.62 1290.43 1527.91 Q1291.05 1527.2 1291.92 1526.81 Q1292.79 1526.43 1293.85 1526.43 Q1295.91 1526.43 1297.62 1527.65 Q1299.32 1528.88 1299.77 1531.36 Q1301.61 1529.2 1303.86 1527.81 Q1306.12 1526.43 1308.41 1526.43 Q1312.21 1526.43 1314.69 1529.39 Q1317.2 1532.32 1317.2 1536.96 M1312.43 1534.06 Q1312.43 1531.13 1311.3 1529.52 Q1310.21 1527.88 1308.21 1527.88 Q1305.73 1527.88 1302.87 1530.39 Q1300.03 1532.77 1299.45 1534.99 L1296.2 1547.91 L1296.01 1548.97 Q1296.01 1549.17 1296.1 1549.74 Q1296.23 1550.29 1296.59 1551.19 Q1296.97 1552.1 1297.49 1552.9 Q1298.04 1553.67 1299 1554.25 Q1300 1554.83 1301.22 1554.83 Q1303.19 1554.83 1305.31 1553.09 Q1307.47 1551.36 1309.08 1548.07 Q1310.08 1545.94 1311.24 1541.37 Q1312.43 1536.77 1312.43 1534.06 Z" fill="#000000" fill-rule="evenodd" fill-opacity="1" /><polyline clip-path="url(#clip180)" style="stroke:#000000; stroke-linecap:butt; stroke-linejoin:round; stroke-width:4; stroke-opacity:1; fill:none" points="
  245.574,1443.01 245.574,123.472 
  "/>
<polyline clip-path="url(#clip180)" style="stroke:#000000; stroke-linecap:butt; stroke-linejoin:round; stroke-width:4; stroke-opacity:1; fill:none" points="
  245.574,1405.67 264.472,1405.67 
  "/>
<polyline clip-path="url(#clip180)" style="stroke:#000000; stroke-linecap:butt; stroke-linejoin:round; stroke-width:4; stroke-opacity:1; fill:none" points="
  245.574,1094.45 264.472,1094.45 
  "/>
<polyline clip-path="url(#clip180)" style="stroke:#000000; stroke-linecap:butt; stroke-linejoin:round; stroke-width:4; stroke-opacity:1; fill:none" points="
  245.574,783.242 264.472,783.242 
  "/>
<polyline clip-path="url(#clip180)" style="stroke:#000000; stroke-linecap:butt; stroke-linejoin:round; stroke-width:4; stroke-opacity:1; fill:none" points="
  245.574,472.03 264.472,472.03 
  "/>
<polyline clip-path="url(#clip180)" style="stroke:#000000; stroke-linecap:butt; stroke-linejoin:round; stroke-width:4; stroke-opacity:1; fill:none" points="
  245.574,160.818 264.472,160.818 
  "/>
<path clip-path="url(#clip180)" d="M122.237 1391.47 Q118.626 1391.47 116.797 1395.03 Q114.991 1398.57 114.991 1405.7 Q114.991 1412.81 116.797 1416.37 Q118.626 1419.91 122.237 1419.91 Q125.871 1419.91 127.676 1416.37 Q129.505 1412.81 129.505 1405.7 Q129.505 1398.57 127.676 1395.03 Q125.871 1391.47 122.237 1391.47 M122.237 1387.76 Q128.047 1387.76 131.102 1392.37 Q134.181 1396.95 134.181 1405.7 Q134.181 1414.43 131.102 1419.03 Q128.047 1423.62 122.237 1423.62 Q116.426 1423.62 113.348 1419.03 Q110.292 1414.43 110.292 1405.7 Q110.292 1396.95 113.348 1392.37 Q116.426 1387.76 122.237 1387.76 Z" fill="#000000" fill-rule="evenodd" fill-opacity="1" /><path clip-path="url(#clip180)" d="M142.399 1417.07 L147.283 1417.07 L147.283 1422.95 L142.399 1422.95 L142.399 1417.07 Z" fill="#000000" fill-rule="evenodd" fill-opacity="1" /><path clip-path="url(#clip180)" d="M167.468 1391.47 Q163.857 1391.47 162.028 1395.03 Q160.223 1398.57 160.223 1405.7 Q160.223 1412.81 162.028 1416.37 Q163.857 1419.91 167.468 1419.91 Q171.102 1419.91 172.908 1416.37 Q174.736 1412.81 174.736 1405.7 Q174.736 1398.57 172.908 1395.03 Q171.102 1391.47 167.468 1391.47 M167.468 1387.76 Q173.278 1387.76 176.334 1392.37 Q179.412 1396.95 179.412 1405.7 Q179.412 1414.43 176.334 1419.03 Q173.278 1423.62 167.468 1423.62 Q161.658 1423.62 158.579 1419.03 Q155.523 1414.43 155.523 1405.7 Q155.523 1396.95 158.579 1392.37 Q161.658 1387.76 167.468 1387.76 Z" fill="#000000" fill-rule="evenodd" fill-opacity="1" /><path clip-path="url(#clip180)" d="M197.63 1391.47 Q194.019 1391.47 192.19 1395.03 Q190.384 1398.57 190.384 1405.7 Q190.384 1412.81 192.19 1416.37 Q194.019 1419.91 197.63 1419.91 Q201.264 1419.91 203.07 1416.37 Q204.898 1412.81 204.898 1405.7 Q204.898 1398.57 203.07 1395.03 Q201.264 1391.47 197.63 1391.47 M197.63 1387.76 Q203.44 1387.76 206.495 1392.37 Q209.574 1396.95 209.574 1405.7 Q209.574 1414.43 206.495 1419.03 Q203.44 1423.62 197.63 1423.62 Q191.82 1423.62 188.741 1419.03 Q185.685 1414.43 185.685 1405.7 Q185.685 1396.95 188.741 1392.37 Q191.82 1387.76 197.63 1387.76 Z" fill="#000000" fill-rule="evenodd" fill-opacity="1" /><path clip-path="url(#clip180)" d="M123.232 1080.25 Q119.621 1080.25 117.792 1083.82 Q115.987 1087.36 115.987 1094.49 Q115.987 1101.6 117.792 1105.16 Q119.621 1108.7 123.232 1108.7 Q126.866 1108.7 128.672 1105.16 Q130.5 1101.6 130.5 1094.49 Q130.5 1087.36 128.672 1083.82 Q126.866 1080.25 123.232 1080.25 M123.232 1076.55 Q129.042 1076.55 132.098 1081.16 Q135.176 1085.74 135.176 1094.49 Q135.176 1103.22 132.098 1107.82 Q129.042 1112.41 123.232 1112.41 Q117.422 1112.41 114.343 1107.82 Q111.288 1103.22 111.288 1094.49 Q111.288 1085.74 114.343 1081.16 Q117.422 1076.55 123.232 1076.55 Z" fill="#000000" fill-rule="evenodd" fill-opacity="1" /><path clip-path="url(#clip180)" d="M143.394 1105.85 L148.278 1105.85 L148.278 1111.73 L143.394 1111.73 L143.394 1105.85 Z" fill="#000000" fill-rule="evenodd" fill-opacity="1" /><path clip-path="url(#clip180)" d="M162.491 1107.8 L178.81 1107.8 L178.81 1111.73 L156.866 1111.73 L156.866 1107.8 Q159.528 1105.04 164.111 1100.42 Q168.718 1095.76 169.898 1094.42 Q172.144 1091.9 173.023 1090.16 Q173.926 1088.4 173.926 1086.71 Q173.926 1083.96 171.982 1082.22 Q170.06 1080.48 166.959 1080.48 Q164.76 1080.48 162.306 1081.25 Q159.875 1082.01 157.098 1083.56 L157.098 1078.84 Q159.922 1077.71 162.375 1077.13 Q164.829 1076.55 166.866 1076.55 Q172.236 1076.55 175.431 1079.23 Q178.625 1081.92 178.625 1086.41 Q178.625 1088.54 177.815 1090.46 Q177.028 1092.36 174.922 1094.95 Q174.343 1095.62 171.241 1098.84 Q168.139 1102.04 162.491 1107.8 Z" fill="#000000" fill-rule="evenodd" fill-opacity="1" /><path clip-path="url(#clip180)" d="M188.671 1077.17 L207.028 1077.17 L207.028 1081.11 L192.954 1081.11 L192.954 1089.58 Q193.972 1089.23 194.991 1089.07 Q196.009 1088.89 197.028 1088.89 Q202.815 1088.89 206.195 1092.06 Q209.574 1095.23 209.574 1100.65 Q209.574 1106.23 206.102 1109.33 Q202.63 1112.41 196.31 1112.41 Q194.134 1112.41 191.866 1112.04 Q189.621 1111.67 187.213 1110.92 L187.213 1106.23 Q189.296 1107.36 191.519 1107.92 Q193.741 1108.47 196.218 1108.47 Q200.222 1108.47 202.56 1106.36 Q204.898 1104.26 204.898 1100.65 Q204.898 1097.04 202.56 1094.93 Q200.222 1092.82 196.218 1092.82 Q194.343 1092.82 192.468 1093.24 Q190.616 1093.66 188.671 1094.54 L188.671 1077.17 Z" fill="#000000" fill-rule="evenodd" fill-opacity="1" /><path clip-path="url(#clip180)" d="M122.237 769.041 Q118.626 769.041 116.797 772.606 Q114.991 776.147 114.991 783.277 Q114.991 790.383 116.797 793.948 Q118.626 797.49 122.237 797.49 Q125.871 797.49 127.676 793.948 Q129.505 790.383 129.505 783.277 Q129.505 776.147 127.676 772.606 Q125.871 769.041 122.237 769.041 M122.237 765.337 Q128.047 765.337 131.102 769.944 Q134.181 774.527 134.181 783.277 Q134.181 792.004 131.102 796.61 Q128.047 801.194 122.237 801.194 Q116.426 801.194 113.348 796.61 Q110.292 792.004 110.292 783.277 Q110.292 774.527 113.348 769.944 Q116.426 765.337 122.237 765.337 Z" fill="#000000" fill-rule="evenodd" fill-opacity="1" /><path clip-path="url(#clip180)" d="M142.399 794.643 L147.283 794.643 L147.283 800.522 L142.399 800.522 L142.399 794.643 Z" fill="#000000" fill-rule="evenodd" fill-opacity="1" /><path clip-path="url(#clip180)" d="M157.514 765.962 L175.871 765.962 L175.871 769.897 L161.797 769.897 L161.797 778.37 Q162.815 778.022 163.834 777.86 Q164.852 777.675 165.871 777.675 Q171.658 777.675 175.037 780.846 Q178.417 784.018 178.417 789.434 Q178.417 795.013 174.945 798.115 Q171.472 801.194 165.153 801.194 Q162.977 801.194 160.709 800.823 Q158.463 800.453 156.056 799.712 L156.056 795.013 Q158.139 796.147 160.361 796.703 Q162.584 797.258 165.06 797.258 Q169.065 797.258 171.403 795.152 Q173.741 793.045 173.741 789.434 Q173.741 785.823 171.403 783.717 Q169.065 781.61 165.06 781.61 Q163.185 781.61 161.31 782.027 Q159.459 782.444 157.514 783.323 L157.514 765.962 Z" fill="#000000" fill-rule="evenodd" fill-opacity="1" /><path clip-path="url(#clip180)" d="M197.63 769.041 Q194.019 769.041 192.19 772.606 Q190.384 776.147 190.384 783.277 Q190.384 790.383 192.19 793.948 Q194.019 797.49 197.63 797.49 Q201.264 797.49 203.07 793.948 Q204.898 790.383 204.898 783.277 Q204.898 776.147 203.07 772.606 Q201.264 769.041 197.63 769.041 M197.63 765.337 Q203.44 765.337 206.495 769.944 Q209.574 774.527 209.574 783.277 Q209.574 792.004 206.495 796.61 Q203.44 801.194 197.63 801.194 Q191.82 801.194 188.741 796.61 Q185.685 792.004 185.685 783.277 Q185.685 774.527 188.741 769.944 Q191.82 765.337 197.63 765.337 Z" fill="#000000" fill-rule="evenodd" fill-opacity="1" /><path clip-path="url(#clip180)" d="M123.232 457.829 Q119.621 457.829 117.792 461.393 Q115.987 464.935 115.987 472.065 Q115.987 479.171 117.792 482.736 Q119.621 486.278 123.232 486.278 Q126.866 486.278 128.672 482.736 Q130.5 479.171 130.5 472.065 Q130.5 464.935 128.672 461.393 Q126.866 457.829 123.232 457.829 M123.232 454.125 Q129.042 454.125 132.098 458.731 Q135.176 463.315 135.176 472.065 Q135.176 480.791 132.098 485.398 Q129.042 489.981 123.232 489.981 Q117.422 489.981 114.343 485.398 Q111.288 480.791 111.288 472.065 Q111.288 463.315 114.343 458.731 Q117.422 454.125 123.232 454.125 Z" fill="#000000" fill-rule="evenodd" fill-opacity="1" /><path clip-path="url(#clip180)" d="M143.394 483.43 L148.278 483.43 L148.278 489.31 L143.394 489.31 L143.394 483.43 Z" fill="#000000" fill-rule="evenodd" fill-opacity="1" /><path clip-path="url(#clip180)" d="M157.283 454.75 L179.505 454.75 L179.505 456.741 L166.959 489.31 L162.074 489.31 L173.88 458.685 L157.283 458.685 L157.283 454.75 Z" fill="#000000" fill-rule="evenodd" fill-opacity="1" /><path clip-path="url(#clip180)" d="M188.671 454.75 L207.028 454.75 L207.028 458.685 L192.954 458.685 L192.954 467.157 Q193.972 466.81 194.991 466.648 Q196.009 466.463 197.028 466.463 Q202.815 466.463 206.195 469.634 Q209.574 472.805 209.574 478.222 Q209.574 483.801 206.102 486.903 Q202.63 489.981 196.31 489.981 Q194.134 489.981 191.866 489.611 Q189.621 489.24 187.213 488.5 L187.213 483.801 Q189.296 484.935 191.519 485.49 Q193.741 486.046 196.218 486.046 Q200.222 486.046 202.56 483.94 Q204.898 481.833 204.898 478.222 Q204.898 474.611 202.56 472.504 Q200.222 470.398 196.218 470.398 Q194.343 470.398 192.468 470.815 Q190.616 471.231 188.671 472.111 L188.671 454.75 Z" fill="#000000" fill-rule="evenodd" fill-opacity="1" /><path clip-path="url(#clip180)" d="M113.047 174.162 L120.686 174.162 L120.686 147.797 L112.376 149.463 L112.376 145.204 L120.639 143.538 L125.315 143.538 L125.315 174.162 L132.954 174.162 L132.954 178.098 L113.047 178.098 L113.047 174.162 Z" fill="#000000" fill-rule="evenodd" fill-opacity="1" /><path clip-path="url(#clip180)" d="M142.399 172.218 L147.283 172.218 L147.283 178.098 L142.399 178.098 L142.399 172.218 Z" fill="#000000" fill-rule="evenodd" fill-opacity="1" /><path clip-path="url(#clip180)" d="M167.468 146.616 Q163.857 146.616 162.028 150.181 Q160.223 153.723 160.223 160.852 Q160.223 167.959 162.028 171.524 Q163.857 175.065 167.468 175.065 Q171.102 175.065 172.908 171.524 Q174.736 167.959 174.736 160.852 Q174.736 153.723 172.908 150.181 Q171.102 146.616 167.468 146.616 M167.468 142.913 Q173.278 142.913 176.334 147.519 Q179.412 152.102 179.412 160.852 Q179.412 169.579 176.334 174.186 Q173.278 178.769 167.468 178.769 Q161.658 178.769 158.579 174.186 Q155.523 169.579 155.523 160.852 Q155.523 152.102 158.579 147.519 Q161.658 142.913 167.468 142.913 Z" fill="#000000" fill-rule="evenodd" fill-opacity="1" /><path clip-path="url(#clip180)" d="M197.63 146.616 Q194.019 146.616 192.19 150.181 Q190.384 153.723 190.384 160.852 Q190.384 167.959 192.19 171.524 Q194.019 175.065 197.63 175.065 Q201.264 175.065 203.07 171.524 Q204.898 167.959 204.898 160.852 Q204.898 153.723 203.07 150.181 Q201.264 146.616 197.63 146.616 M197.63 142.913 Q203.44 142.913 206.495 147.519 Q209.574 152.102 209.574 160.852 Q209.574 169.579 206.495 174.186 Q203.44 178.769 197.63 178.769 Q191.82 178.769 188.741 174.186 Q185.685 169.579 185.685 160.852 Q185.685 152.102 188.741 147.519 Q191.82 142.913 197.63 142.913 Z" fill="#000000" fill-rule="evenodd" fill-opacity="1" /><path clip-path="url(#clip180)" d="M29.3925 803.754 Q32.9996 803.754 36.3168 806.427 Q39.634 809.068 41.663 813.383 Q43.6597 817.667 43.6597 822.272 L43.6597 833.48 L60.1491 837.57 Q60.2458 837.602 60.6644 837.699 Q61.0509 837.795 61.2763 837.795 Q62.0815 837.795 62.2747 836.797 Q62.468 835.766 62.468 833.48 Q62.468 831.998 62.7256 831.773 Q62.8866 831.644 63.1765 831.644 Q63.6274 831.644 63.9494 831.773 Q64.2393 831.902 64.3359 832.159 Q64.4325 832.385 64.4647 832.546 Q64.4969 832.707 64.4969 832.964 Q64.4969 833.641 64.4325 835.09 Q64.3681 836.507 64.3681 837.248 L64.3037 841.467 L64.4969 849.84 Q64.4969 850.839 63.6918 850.839 Q63.0799 850.839 62.8222 850.581 Q62.5324 850.323 62.5002 850.034 Q62.468 849.744 62.468 849.003 Q62.468 847.393 62.3713 846.426 Q62.2747 845.46 62.1459 844.848 Q61.9849 844.204 61.534 843.882 Q61.0831 843.528 60.6966 843.367 Q60.278 843.206 59.344 842.98 L23.9175 834.156 Q22.8547 833.898 22.6937 833.898 Q22.1462 833.898 21.953 834.22 Q21.7275 834.51 21.6309 835.348 Q21.5021 836.958 21.5021 838.182 Q21.5021 838.987 21.4699 839.309 Q21.4377 839.599 21.2767 839.856 Q21.0834 840.082 20.697 840.082 Q20.085 840.082 19.8274 839.824 Q19.5375 839.534 19.5053 839.212 Q19.4409 838.89 19.4409 838.117 L19.4409 816.733 Q19.4409 810.581 22.3717 807.168 Q25.3024 803.754 29.3925 803.754 M27.8145 809.873 Q21.5021 809.873 21.5021 818.858 L21.5021 825.171 Q21.5021 827.264 21.8886 827.779 Q22.2428 828.295 24.0142 828.745 L41.9528 833.222 L41.9528 823.915 Q41.9528 817.667 38.4424 813.77 Q36.8321 811.998 33.4827 810.936 Q30.1333 809.873 27.8145 809.873 Z" fill="#000000" fill-rule="evenodd" fill-opacity="1" /><path clip-path="url(#clip180)" d="M48.0075 796.516 Q36.8643 796.516 27.8789 792.361 Q24.1108 790.59 20.9546 788.11 Q17.7984 785.63 16.4136 783.988 Q15.0287 782.345 15.0287 781.895 Q15.0287 781.25 15.6728 781.218 Q15.9949 781.218 16.8 782.088 Q27.6212 792.716 48.0075 792.684 Q68.4582 792.684 78.8607 782.345 Q79.9879 781.218 80.3422 781.218 Q80.9863 781.218 80.9863 781.895 Q80.9863 782.345 79.6659 783.924 Q78.3454 785.502 75.3181 787.949 Q72.2907 790.397 68.5871 792.168 Q59.6016 796.516 48.0075 796.516 Z" fill="#000000" fill-rule="evenodd" fill-opacity="1" /><path clip-path="url(#clip180)" d="M45.8819 745.704 Q50.584 745.704 55.125 748.088 Q59.666 750.439 62.468 754.142 Q65.2377 757.846 65.2377 761.614 Q65.2377 763.868 64.0138 765.382 Q62.7578 766.864 60.9865 767.669 Q63.1765 768.281 68.426 769.601 Q73.6756 770.922 74.1909 770.922 Q74.4807 770.922 74.6096 770.857 Q74.7384 770.793 74.8994 770.503 Q75.0927 770.213 75.1571 769.505 Q75.2537 768.796 75.2537 767.604 Q75.2537 766.992 75.2537 766.767 Q75.2859 766.509 75.4469 766.284 Q75.608 766.026 75.9622 766.026 Q77.2827 766.026 77.2827 767.218 Q77.2827 768.281 77.186 770.471 Q77.0894 772.661 77.0894 773.756 Q77.0894 774.69 77.186 776.558 Q77.2827 778.426 77.2827 779.295 Q77.2827 780.165 76.5097 780.165 Q76.0588 780.165 75.769 780.036 Q75.5113 779.939 75.3825 779.682 Q75.2859 779.424 75.2537 779.198 Q75.2537 779.005 75.2537 778.619 Q75.2537 777.137 74.996 776.493 Q74.7706 775.849 74.2875 775.624 Q73.8366 775.366 72.5484 775.076 L43.1766 767.669 Q41.2121 767.218 39.8272 767.218 Q38.0881 767.218 37.444 767.765 Q36.7999 768.313 36.7999 769.279 Q36.7999 770.954 38.7967 772.049 Q40.7934 773.144 44.6581 774.078 Q45.7209 774.368 45.9464 774.561 Q46.1718 774.722 46.1718 775.205 Q46.1396 776.01 45.4955 776.01 Q45.3344 776.01 44.3039 775.752 Q43.2411 775.495 41.6952 775.012 Q40.1171 774.496 39.1187 773.949 Q38.4424 773.627 37.9915 773.337 Q37.5406 773.047 36.8321 772.467 Q36.1236 771.856 35.7371 770.986 Q35.3506 770.116 35.3506 769.054 Q35.3506 766.992 36.5744 765.286 Q37.7983 763.579 40.2781 763.128 Q38.1203 761.292 36.7355 759.038 Q35.3506 756.783 35.3506 754.497 Q35.3506 750.696 38.3136 748.216 Q41.2443 745.704 45.8819 745.704 M42.9834 750.471 Q40.0527 750.471 38.4424 751.598 Q36.7999 752.693 36.7999 754.69 Q36.7999 757.17 39.3119 760.036 Q41.6952 762.87 43.9174 763.45 L56.8319 766.703 L57.8947 766.896 Q58.088 766.896 58.6677 766.799 Q59.2152 766.67 60.1169 766.316 Q61.0187 765.93 61.8238 765.414 Q62.5968 764.867 63.1765 763.901 Q63.7562 762.902 63.7562 761.678 Q63.7562 759.714 62.0171 757.588 Q60.278 755.431 56.993 753.82 Q54.8674 752.822 50.2941 751.662 Q45.6887 750.471 42.9834 750.471 Z" fill="#000000" fill-rule="evenodd" fill-opacity="1" /><path clip-path="url(#clip180)" d="M80.3422 740.973 Q80.0202 740.973 79.215 740.136 Q68.3938 729.508 48.0075 729.508 Q27.5568 729.508 17.2187 739.717 Q16.0271 740.973 15.6728 740.973 Q15.0287 740.973 15.0287 740.329 Q15.0287 739.878 16.3492 738.3 Q17.6696 736.69 20.697 734.274 Q23.7243 731.827 27.428 730.023 Q36.4134 725.675 48.0075 725.675 Q59.1508 725.675 68.1362 729.83 Q71.9043 731.601 75.0605 734.081 Q78.2166 736.561 79.6015 738.203 Q80.9863 739.846 80.9863 740.329 Q80.9863 740.973 80.3422 740.973 Z" fill="#000000" fill-rule="evenodd" fill-opacity="1" /><path clip-path="url(#clip180)" d="M293.893 18.8205 L293.893 41.5461 L304.182 41.5461 Q309.894 41.5461 313.013 38.5889 Q316.132 35.6318 316.132 30.163 Q316.132 24.7348 313.013 21.7777 Q309.894 18.8205 304.182 18.8205 L293.893 18.8205 M285.71 12.096 L304.182 12.096 Q314.35 12.096 319.535 16.714 Q324.761 21.2916 324.761 30.163 Q324.761 39.1155 319.535 43.6931 Q314.35 48.2706 304.182 48.2706 L293.893 48.2706 L293.893 72.576 L285.71 72.576 L285.71 12.096 Z" fill="#000000" fill-rule="evenodd" fill-opacity="1" /><path clip-path="url(#clip180)" d="M360.246 34.1734 Q358.991 33.4443 357.492 33.1202 Q356.033 32.7556 354.251 32.7556 Q347.932 32.7556 344.529 36.8875 Q341.167 40.9789 341.167 48.6757 L341.167 72.576 L333.672 72.576 L333.672 27.2059 L341.167 27.2059 L341.167 34.2544 Q343.516 30.1225 347.284 28.1376 Q351.051 26.1121 356.439 26.1121 Q357.208 26.1121 358.14 26.2337 Q359.072 26.3147 360.206 26.5172 L360.246 34.1734 Z" fill="#000000" fill-rule="evenodd" fill-opacity="1" /><path clip-path="url(#clip180)" d="M383.823 32.4315 Q377.827 32.4315 374.344 37.1306 Q370.86 41.7891 370.86 49.9314 Q370.86 58.0738 374.303 62.7728 Q377.787 67.4314 383.823 67.4314 Q389.778 67.4314 393.261 62.7323 Q396.745 58.0333 396.745 49.9314 Q396.745 41.8701 393.261 37.1711 Q389.778 32.4315 383.823 32.4315 M383.823 26.1121 Q393.545 26.1121 399.095 32.4315 Q404.644 38.7509 404.644 49.9314 Q404.644 61.0714 399.095 67.4314 Q393.545 73.7508 383.823 73.7508 Q374.06 73.7508 368.51 67.4314 Q363.001 61.0714 363.001 49.9314 Q363.001 38.7509 368.51 32.4315 Q374.06 26.1121 383.823 26.1121 Z" fill="#000000" fill-rule="evenodd" fill-opacity="1" /><path clip-path="url(#clip180)" d="M424.372 14.324 L424.372 27.2059 L439.725 27.2059 L439.725 32.9987 L424.372 32.9987 L424.372 57.6282 Q424.372 63.1779 425.871 64.7578 Q427.41 66.3376 432.069 66.3376 L439.725 66.3376 L439.725 72.576 L432.069 72.576 Q423.441 72.576 420.159 69.3758 Q416.878 66.1351 416.878 57.6282 L416.878 32.9987 L411.409 32.9987 L411.409 27.2059 L416.878 27.2059 L416.878 14.324 L424.372 14.324 Z" fill="#000000" fill-rule="evenodd" fill-opacity="1" /><path clip-path="url(#clip180)" d="M488.336 48.0275 L488.336 51.6733 L454.065 51.6733 Q454.551 59.3701 458.683 63.421 Q462.856 67.4314 470.269 67.4314 Q474.563 67.4314 478.573 66.3781 Q482.624 65.3249 486.594 63.2184 L486.594 70.267 Q482.584 71.9684 478.371 72.8596 Q474.158 73.7508 469.823 73.7508 Q458.967 73.7508 452.607 67.4314 Q446.288 61.1119 446.288 50.3365 Q446.288 39.1965 452.283 32.6746 Q458.319 26.1121 468.527 26.1121 Q477.682 26.1121 482.989 32.0264 Q488.336 37.9003 488.336 48.0275 M480.882 45.84 Q480.801 39.7232 477.439 36.0774 Q474.117 32.4315 468.608 32.4315 Q462.37 32.4315 458.602 35.9558 Q454.876 39.4801 454.308 45.8805 L480.882 45.84 Z" fill="#000000" fill-rule="evenodd" fill-opacity="1" /><path clip-path="url(#clip180)" d="M500.57 27.2059 L508.023 27.2059 L508.023 72.576 L500.57 72.576 L500.57 27.2059 M500.57 9.54393 L508.023 9.54393 L508.023 18.9825 L500.57 18.9825 L500.57 9.54393 Z" fill="#000000" fill-rule="evenodd" fill-opacity="1" /><path clip-path="url(#clip180)" d="M561.333 45.1919 L561.333 72.576 L553.88 72.576 L553.88 45.4349 Q553.88 38.994 551.368 35.7938 Q548.857 32.5936 543.833 32.5936 Q537.798 32.5936 534.314 36.4419 Q530.83 40.2903 530.83 46.9338 L530.83 72.576 L523.336 72.576 L523.336 27.2059 L530.83 27.2059 L530.83 34.2544 Q533.504 30.163 537.109 28.1376 Q540.755 26.1121 545.494 26.1121 Q553.313 26.1121 557.323 30.9732 Q561.333 35.7938 561.333 45.1919 Z" fill="#000000" fill-rule="evenodd" fill-opacity="1" /><path clip-path="url(#clip180)" d="M648.185 16.7545 L648.185 25.383 Q644.053 21.5346 639.354 19.6307 Q634.695 17.7268 629.429 17.7268 Q619.059 17.7268 613.549 24.0867 Q608.04 30.4061 608.04 42.3968 Q608.04 54.3469 613.549 60.7069 Q619.059 67.0263 629.429 67.0263 Q634.695 67.0263 639.354 65.1223 Q644.053 63.2184 648.185 59.3701 L648.185 67.9175 Q643.891 70.8341 639.07 72.2924 Q634.29 73.7508 628.943 73.7508 Q615.21 73.7508 607.311 65.3654 Q599.412 56.9395 599.412 42.3968 Q599.412 27.8135 607.311 19.4281 Q615.21 11.0023 628.943 11.0023 Q634.371 11.0023 639.151 12.4606 Q643.972 13.8784 648.185 16.7545 Z" fill="#000000" fill-rule="evenodd" fill-opacity="1" /><path clip-path="url(#clip180)" d="M678.08 32.4315 Q672.085 32.4315 668.601 37.1306 Q665.117 41.7891 665.117 49.9314 Q665.117 58.0738 668.561 62.7728 Q672.045 67.4314 678.08 67.4314 Q684.035 67.4314 687.519 62.7323 Q691.003 58.0333 691.003 49.9314 Q691.003 41.8701 687.519 37.1711 Q684.035 32.4315 678.08 32.4315 M678.08 26.1121 Q687.803 26.1121 693.352 32.4315 Q698.902 38.7509 698.902 49.9314 Q698.902 61.0714 693.352 67.4314 Q687.803 73.7508 678.08 73.7508 Q668.318 73.7508 662.768 67.4314 Q657.259 61.0714 657.259 49.9314 Q657.259 38.7509 662.768 32.4315 Q668.318 26.1121 678.08 26.1121 Z" fill="#000000" fill-rule="evenodd" fill-opacity="1" /><path clip-path="url(#clip180)" d="M718.468 65.7705 L718.468 89.8329 L710.974 89.8329 L710.974 27.2059 L718.468 27.2059 L718.468 34.0924 Q720.817 30.0415 724.382 28.0971 Q727.988 26.1121 732.97 26.1121 Q741.234 26.1121 746.379 32.6746 Q751.564 39.2371 751.564 49.9314 Q751.564 60.6258 746.379 67.1883 Q741.234 73.7508 732.97 73.7508 Q727.988 73.7508 724.382 71.8063 Q720.817 69.8214 718.468 65.7705 M743.827 49.9314 Q743.827 41.7081 740.424 37.0496 Q737.062 32.3505 731.147 32.3505 Q725.233 32.3505 721.83 37.0496 Q718.468 41.7081 718.468 49.9314 Q718.468 58.1548 721.83 62.8538 Q725.233 67.5124 731.147 67.5124 Q737.062 67.5124 740.424 62.8538 Q743.827 58.1548 743.827 49.9314 Z" fill="#000000" fill-rule="evenodd" fill-opacity="1" /><path clip-path="url(#clip180)" d="M782.796 76.7889 Q779.637 84.8907 776.639 87.3618 Q773.641 89.8329 768.618 89.8329 L762.663 89.8329 L762.663 83.5945 L767.038 83.5945 Q770.117 83.5945 771.818 82.1361 Q773.52 80.6778 775.586 75.2496 L776.922 71.8468 L758.572 27.2059 L766.471 27.2059 L780.649 62.6918 L794.827 27.2059 L802.727 27.2059 L782.796 76.7889 Z" fill="#000000" fill-rule="evenodd" fill-opacity="1" /><path clip-path="url(#clip180)" d="M839.711 12.096 L850.73 12.096 L877.547 62.6918 L877.547 12.096 L885.487 12.096 L885.487 72.576 L874.468 72.576 L847.651 21.9802 L847.651 72.576 L839.711 72.576 L839.711 12.096 Z" fill="#000000" fill-rule="evenodd" fill-opacity="1" /><path clip-path="url(#clip180)" d="M900.678 54.671 L900.678 27.2059 L908.131 27.2059 L908.131 54.3874 Q908.131 60.8284 910.643 64.0691 Q913.154 67.2693 918.177 67.2693 Q924.213 67.2693 927.697 63.421 Q931.221 59.5726 931.221 52.9291 L931.221 27.2059 L938.675 27.2059 L938.675 72.576 L931.221 72.576 L931.221 65.6084 Q928.507 69.7404 924.902 71.7658 Q921.337 73.7508 916.598 73.7508 Q908.779 73.7508 904.728 68.8897 Q900.678 64.0286 900.678 54.671 M919.433 26.1121 L919.433 26.1121 Z" fill="#000000" fill-rule="evenodd" fill-opacity="1" /><path clip-path="url(#clip180)" d="M989.352 35.9153 Q992.147 30.8922 996.036 28.5022 Q999.925 26.1121 1005.19 26.1121 Q1012.28 26.1121 1016.13 31.0947 Q1019.98 36.0368 1019.98 45.1919 L1019.98 72.576 L1012.48 72.576 L1012.48 45.4349 Q1012.48 38.913 1010.17 35.7533 Q1007.86 32.5936 1003.12 32.5936 Q997.332 32.5936 993.97 36.4419 Q990.608 40.2903 990.608 46.9338 L990.608 72.576 L983.113 72.576 L983.113 45.4349 Q983.113 38.8725 980.804 35.7533 Q978.495 32.5936 973.675 32.5936 Q967.963 32.5936 964.601 36.4824 Q961.239 40.3308 961.239 46.9338 L961.239 72.576 L953.744 72.576 L953.744 27.2059 L961.239 27.2059 L961.239 34.2544 Q963.791 30.082 967.355 28.0971 Q970.92 26.1121 975.822 26.1121 Q980.764 26.1121 984.207 28.6237 Q987.691 31.1352 989.352 35.9153 Z" fill="#000000" fill-rule="evenodd" fill-opacity="1" /><path clip-path="url(#clip180)" d="M1067.41 49.9314 Q1067.41 41.7081 1064.01 37.0496 Q1060.65 32.3505 1054.73 32.3505 Q1048.82 32.3505 1045.42 37.0496 Q1042.05 41.7081 1042.05 49.9314 Q1042.05 58.1548 1045.42 62.8538 Q1048.82 67.5124 1054.73 67.5124 Q1060.65 67.5124 1064.01 62.8538 Q1067.41 58.1548 1067.41 49.9314 M1042.05 34.0924 Q1044.4 30.0415 1047.97 28.0971 Q1051.57 26.1121 1056.56 26.1121 Q1064.82 26.1121 1069.96 32.6746 Q1075.15 39.2371 1075.15 49.9314 Q1075.15 60.6258 1069.96 67.1883 Q1064.82 73.7508 1056.56 73.7508 Q1051.57 73.7508 1047.97 71.8063 Q1044.4 69.8214 1042.05 65.7705 L1042.05 72.576 L1034.56 72.576 L1034.56 9.54393 L1042.05 9.54393 L1042.05 34.0924 Z" fill="#000000" fill-rule="evenodd" fill-opacity="1" /><path clip-path="url(#clip180)" d="M1126.31 48.0275 L1126.31 51.6733 L1092.04 51.6733 Q1092.53 59.3701 1096.66 63.421 Q1100.83 67.4314 1108.25 67.4314 Q1112.54 67.4314 1116.55 66.3781 Q1120.6 65.3249 1124.57 63.2184 L1124.57 70.267 Q1120.56 71.9684 1116.35 72.8596 Q1112.13 73.7508 1107.8 73.7508 Q1096.94 73.7508 1090.58 67.4314 Q1084.26 61.1119 1084.26 50.3365 Q1084.26 39.1965 1090.26 32.6746 Q1096.3 26.1121 1106.5 26.1121 Q1115.66 26.1121 1120.97 32.0264 Q1126.31 37.9003 1126.31 48.0275 M1118.86 45.84 Q1118.78 39.7232 1115.42 36.0774 Q1112.09 32.4315 1106.59 32.4315 Q1100.35 32.4315 1096.58 35.9558 Q1092.85 39.4801 1092.29 45.8805 L1118.86 45.84 Z" fill="#000000" fill-rule="evenodd" fill-opacity="1" /><path clip-path="url(#clip180)" d="M1164.84 34.1734 Q1163.58 33.4443 1162.08 33.1202 Q1160.62 32.7556 1158.84 32.7556 Q1152.52 32.7556 1149.12 36.8875 Q1145.76 40.9789 1145.76 48.6757 L1145.76 72.576 L1138.26 72.576 L1138.26 27.2059 L1145.76 27.2059 L1145.76 34.2544 Q1148.11 30.1225 1151.87 28.1376 Q1155.64 26.1121 1161.03 26.1121 Q1161.8 26.1121 1162.73 26.2337 Q1163.66 26.3147 1164.8 26.5172 L1164.84 34.1734 Z" fill="#000000" fill-rule="evenodd" fill-opacity="1" /><path clip-path="url(#clip180)" d="M1222 9.54393 L1222 15.7418 L1214.87 15.7418 Q1210.86 15.7418 1209.28 17.3622 Q1207.74 18.9825 1207.74 23.1955 L1207.74 27.2059 L1220.01 27.2059 L1220.01 32.9987 L1207.74 32.9987 L1207.74 72.576 L1200.24 72.576 L1200.24 32.9987 L1193.11 32.9987 L1193.11 27.2059 L1200.24 27.2059 L1200.24 24.0462 Q1200.24 16.471 1203.77 13.0277 Q1207.29 9.54393 1214.95 9.54393 L1222 9.54393 Z" fill="#000000" fill-rule="evenodd" fill-opacity="1" /><path clip-path="url(#clip180)" d="M1245.81 32.4315 Q1239.82 32.4315 1236.34 37.1306 Q1232.85 41.7891 1232.85 49.9314 Q1232.85 58.0738 1236.29 62.7728 Q1239.78 67.4314 1245.81 67.4314 Q1251.77 67.4314 1255.25 62.7323 Q1258.74 58.0333 1258.74 49.9314 Q1258.74 41.8701 1255.25 37.1711 Q1251.77 32.4315 1245.81 32.4315 M1245.81 26.1121 Q1255.54 26.1121 1261.09 32.4315 Q1266.64 38.7509 1266.64 49.9314 Q1266.64 61.0714 1261.09 67.4314 Q1255.54 73.7508 1245.81 73.7508 Q1236.05 73.7508 1230.5 67.4314 Q1224.99 61.0714 1224.99 49.9314 Q1224.99 38.7509 1230.5 32.4315 Q1236.05 26.1121 1245.81 26.1121 Z" fill="#000000" fill-rule="evenodd" fill-opacity="1" /><path clip-path="url(#clip180)" d="M1305.28 34.1734 Q1304.03 33.4443 1302.53 33.1202 Q1301.07 32.7556 1299.29 32.7556 Q1292.97 32.7556 1289.56 36.8875 Q1286.2 40.9789 1286.2 48.6757 L1286.2 72.576 L1278.71 72.576 L1278.71 27.2059 L1286.2 27.2059 L1286.2 34.2544 Q1288.55 30.1225 1292.32 28.1376 Q1296.09 26.1121 1301.47 26.1121 Q1302.24 26.1121 1303.18 26.2337 Q1304.11 26.3147 1305.24 26.5172 L1305.28 34.1734 Z" fill="#000000" fill-rule="evenodd" fill-opacity="1" /><path clip-path="url(#clip180)" d="M1376.05 14.0809 L1376.05 22.0612 Q1371.39 19.8332 1367.26 18.7395 Q1363.13 17.6457 1359.28 17.6457 Q1352.6 17.6457 1348.95 20.2383 Q1345.35 22.8309 1345.35 27.611 Q1345.35 31.6214 1347.74 33.6873 Q1350.17 35.7128 1356.89 36.9686 L1361.83 37.9813 Q1370.99 39.7232 1375.32 44.1387 Q1379.7 48.5136 1379.7 55.8863 Q1379.7 64.6767 1373.78 69.2137 Q1367.91 73.7508 1356.53 73.7508 Q1352.23 73.7508 1347.37 72.7785 Q1342.55 71.8063 1337.37 69.9024 L1337.37 61.4765 Q1342.35 64.2716 1347.13 65.6895 Q1351.91 67.1073 1356.53 67.1073 Q1363.53 67.1073 1367.34 64.3527 Q1371.15 61.598 1371.15 56.4939 Q1371.15 52.0379 1368.39 49.5264 Q1365.68 47.0148 1359.44 45.759 L1354.46 44.7868 Q1345.3 42.9639 1341.21 39.075 Q1337.12 35.1862 1337.12 28.2591 Q1337.12 20.2383 1342.75 15.6203 Q1348.42 11.0023 1358.35 11.0023 Q1362.6 11.0023 1367.02 11.7719 Q1371.43 12.5416 1376.05 14.0809 Z" fill="#000000" fill-rule="evenodd" fill-opacity="1" /><path clip-path="url(#clip180)" d="M1411.01 76.7889 Q1407.85 84.8907 1404.85 87.3618 Q1401.86 89.8329 1396.83 89.8329 L1390.88 89.8329 L1390.88 83.5945 L1395.25 83.5945 Q1398.33 83.5945 1400.03 82.1361 Q1401.73 80.6778 1403.8 75.2496 L1405.14 71.8468 L1386.79 27.2059 L1394.69 27.2059 L1408.86 62.6918 L1423.04 27.2059 L1430.94 27.2059 L1411.01 76.7889 Z" fill="#000000" fill-rule="evenodd" fill-opacity="1" /><path clip-path="url(#clip180)" d="M1470.15 28.5427 L1470.15 35.5912 Q1466.99 33.9709 1463.59 33.1607 Q1460.19 32.3505 1456.54 32.3505 Q1450.99 32.3505 1448.2 34.0519 Q1445.44 35.7533 1445.44 39.156 Q1445.44 41.7486 1447.43 43.2475 Q1449.41 44.7058 1455.41 46.0426 L1457.96 46.6097 Q1465.9 48.3111 1469.22 51.4303 Q1472.58 54.509 1472.58 60.0587 Q1472.58 66.3781 1467.56 70.0644 Q1462.58 73.7508 1453.83 73.7508 Q1450.18 73.7508 1446.21 73.0216 Q1442.28 72.3329 1437.91 70.9151 L1437.91 63.2184 Q1442.04 65.3654 1446.05 66.4591 Q1450.06 67.5124 1453.99 67.5124 Q1459.26 67.5124 1462.09 65.73 Q1464.93 63.9071 1464.93 60.6258 Q1464.93 57.5877 1462.86 55.9673 Q1460.84 54.3469 1453.91 52.8481 L1451.32 52.2405 Q1444.39 50.7821 1441.31 47.7845 Q1438.23 44.7463 1438.23 39.4801 Q1438.23 33.0797 1442.77 29.5959 Q1447.31 26.1121 1455.65 26.1121 Q1459.78 26.1121 1463.43 26.7198 Q1467.07 27.3274 1470.15 28.5427 Z" fill="#000000" fill-rule="evenodd" fill-opacity="1" /><path clip-path="url(#clip180)" d="M1491.83 14.324 L1491.83 27.2059 L1507.18 27.2059 L1507.18 32.9987 L1491.83 32.9987 L1491.83 57.6282 Q1491.83 63.1779 1493.32 64.7578 Q1494.86 66.3376 1499.52 66.3376 L1507.18 66.3376 L1507.18 72.576 L1499.52 72.576 Q1490.89 72.576 1487.61 69.3758 Q1484.33 66.1351 1484.33 57.6282 L1484.33 32.9987 L1478.86 32.9987 L1478.86 27.2059 L1484.33 27.2059 L1484.33 14.324 L1491.83 14.324 Z" fill="#000000" fill-rule="evenodd" fill-opacity="1" /><path clip-path="url(#clip180)" d="M1555.79 48.0275 L1555.79 51.6733 L1521.52 51.6733 Q1522.01 59.3701 1526.14 63.421 Q1530.31 67.4314 1537.72 67.4314 Q1542.02 67.4314 1546.03 66.3781 Q1550.08 65.3249 1554.05 63.2184 L1554.05 70.267 Q1550.04 71.9684 1545.82 72.8596 Q1541.61 73.7508 1537.28 73.7508 Q1526.42 73.7508 1520.06 67.4314 Q1513.74 61.1119 1513.74 50.3365 Q1513.74 39.1965 1519.74 32.6746 Q1525.77 26.1121 1535.98 26.1121 Q1545.14 26.1121 1550.44 32.0264 Q1555.79 37.9003 1555.79 48.0275 M1548.34 45.84 Q1548.26 39.7232 1544.89 36.0774 Q1541.57 32.4315 1536.06 32.4315 Q1529.82 32.4315 1526.06 35.9558 Q1522.33 39.4801 1521.76 45.8805 L1548.34 45.84 Z" fill="#000000" fill-rule="evenodd" fill-opacity="1" /><path clip-path="url(#clip180)" d="M1603.35 35.9153 Q1606.14 30.8922 1610.03 28.5022 Q1613.92 26.1121 1619.19 26.1121 Q1626.28 26.1121 1630.12 31.0947 Q1633.97 36.0368 1633.97 45.1919 L1633.97 72.576 L1626.48 72.576 L1626.48 45.4349 Q1626.48 38.913 1624.17 35.7533 Q1621.86 32.5936 1617.12 32.5936 Q1611.33 32.5936 1607.97 36.4419 Q1604.6 40.2903 1604.6 46.9338 L1604.6 72.576 L1597.11 72.576 L1597.11 45.4349 Q1597.11 38.8725 1594.8 35.7533 Q1592.49 32.5936 1587.67 32.5936 Q1581.96 32.5936 1578.6 36.4824 Q1575.23 40.3308 1575.23 46.9338 L1575.23 72.576 L1567.74 72.576 L1567.74 27.2059 L1575.23 27.2059 L1575.23 34.2544 Q1577.79 30.082 1581.35 28.0971 Q1584.92 26.1121 1589.82 26.1121 Q1594.76 26.1121 1598.2 28.6237 Q1601.69 31.1352 1603.35 35.9153 Z" fill="#000000" fill-rule="evenodd" fill-opacity="1" /><path clip-path="url(#clip180)" d="M1670.88 27.2059 L1678.33 27.2059 L1687.65 62.6108 L1696.92 27.2059 L1705.71 27.2059 L1715.03 62.6108 L1724.31 27.2059 L1731.76 27.2059 L1719.89 72.576 L1711.1 72.576 L1701.34 35.3887 L1691.54 72.576 L1682.75 72.576 L1670.88 27.2059 Z" fill="#000000" fill-rule="evenodd" fill-opacity="1" /><path clip-path="url(#clip180)" d="M1743.06 27.2059 L1750.52 27.2059 L1750.52 72.576 L1743.06 72.576 L1743.06 27.2059 M1743.06 9.54393 L1750.52 9.54393 L1750.52 18.9825 L1743.06 18.9825 L1743.06 9.54393 Z" fill="#000000" fill-rule="evenodd" fill-opacity="1" /><path clip-path="url(#clip180)" d="M1773.49 14.324 L1773.49 27.2059 L1788.84 27.2059 L1788.84 32.9987 L1773.49 32.9987 L1773.49 57.6282 Q1773.49 63.1779 1774.98 64.7578 Q1776.52 66.3376 1781.18 66.3376 L1788.84 66.3376 L1788.84 72.576 L1781.18 72.576 Q1772.55 72.576 1769.27 69.3758 Q1765.99 66.1351 1765.99 57.6282 L1765.99 32.9987 L1760.52 32.9987 L1760.52 27.2059 L1765.99 27.2059 L1765.99 14.324 L1773.49 14.324 Z" fill="#000000" fill-rule="evenodd" fill-opacity="1" /><path clip-path="url(#clip180)" d="M1836.36 45.1919 L1836.36 72.576 L1828.9 72.576 L1828.9 45.4349 Q1828.9 38.994 1826.39 35.7938 Q1823.88 32.5936 1818.86 32.5936 Q1812.82 32.5936 1809.34 36.4419 Q1805.85 40.2903 1805.85 46.9338 L1805.85 72.576 L1798.36 72.576 L1798.36 9.54393 L1805.85 9.54393 L1805.85 34.2544 Q1808.53 30.163 1812.13 28.1376 Q1815.78 26.1121 1820.52 26.1121 Q1828.33 26.1121 1832.35 30.9732 Q1836.36 35.7938 1836.36 45.1919 Z" fill="#000000" fill-rule="evenodd" fill-opacity="1" /><path clip-path="url(#clip180)" d="M1885.7 65.6895 L1914.25 65.6895 L1914.25 72.576 L1875.85 72.576 L1875.85 65.6895 Q1880.51 60.8689 1888.53 52.7671 Q1896.59 44.6248 1898.66 42.2752 Q1902.59 37.8598 1904.13 34.8216 Q1905.71 31.7429 1905.71 28.7857 Q1905.71 23.9651 1902.3 20.927 Q1898.94 17.8888 1893.51 17.8888 Q1889.67 17.8888 1885.37 19.2256 Q1881.12 20.5624 1876.26 23.2765 L1876.26 15.0127 Q1881.2 13.0277 1885.49 12.015 Q1889.79 11.0023 1893.35 11.0023 Q1902.75 11.0023 1908.34 15.7013 Q1913.93 20.4004 1913.93 28.2591 Q1913.93 31.9859 1912.51 35.3482 Q1911.14 38.6699 1907.45 43.2069 Q1906.44 44.3817 1901.01 50.0125 Q1895.58 55.6027 1885.7 65.6895 Z" fill="#000000" fill-rule="evenodd" fill-opacity="1" /><path clip-path="url(#clip180)" d="M1948.93 17.4837 Q1942.61 17.4837 1939.41 23.7221 Q1936.25 29.92 1936.25 42.3968 Q1936.25 54.833 1939.41 61.0714 Q1942.61 67.2693 1948.93 67.2693 Q1955.29 67.2693 1958.45 61.0714 Q1961.65 54.833 1961.65 42.3968 Q1961.65 29.92 1958.45 23.7221 Q1955.29 17.4837 1948.93 17.4837 M1948.93 11.0023 Q1959.1 11.0023 1964.45 19.0636 Q1969.83 27.0843 1969.83 42.3968 Q1969.83 57.6687 1964.45 65.73 Q1959.1 73.7508 1948.93 73.7508 Q1938.76 73.7508 1933.37 65.73 Q1928.03 57.6687 1928.03 42.3968 Q1928.03 27.0843 1933.37 19.0636 Q1938.76 11.0023 1948.93 11.0023 Z" fill="#000000" fill-rule="evenodd" fill-opacity="1" /><path clip-path="url(#clip180)" d="M2001.71 17.4837 Q1995.39 17.4837 1992.19 23.7221 Q1989.03 29.92 1989.03 42.3968 Q1989.03 54.833 1992.19 61.0714 Q1995.39 67.2693 2001.71 67.2693 Q2008.07 67.2693 2011.23 61.0714 Q2014.43 54.833 2014.43 42.3968 Q2014.43 29.92 2011.23 23.7221 Q2008.07 17.4837 2001.71 17.4837 M2001.71 11.0023 Q2011.88 11.0023 2017.23 19.0636 Q2022.62 27.0843 2022.62 42.3968 Q2022.62 57.6687 2017.23 65.73 Q2011.88 73.7508 2001.71 73.7508 Q1991.55 73.7508 1986.16 65.73 Q1980.81 57.6687 1980.81 42.3968 Q1980.81 27.0843 1986.16 19.0636 Q1991.55 11.0023 2001.71 11.0023 Z" fill="#000000" fill-rule="evenodd" fill-opacity="1" /><path clip-path="url(#clip180)" d="M2103.88 63.9476 L2103.88 47.7034 L2090.51 47.7034 L2090.51 40.9789 L2111.98 40.9789 L2111.98 66.9452 Q2107.24 70.3075 2101.53 72.0494 Q2095.82 73.7508 2089.33 73.7508 Q2075.16 73.7508 2067.14 65.4869 Q2059.16 57.1826 2059.16 42.3968 Q2059.16 27.5705 2067.14 19.3066 Q2075.16 11.0023 2089.33 11.0023 Q2095.25 11.0023 2100.56 12.4606 Q2105.9 13.9189 2110.4 16.7545 L2110.4 25.464 Q2105.86 21.6156 2100.76 19.6712 Q2095.65 17.7268 2090.02 17.7268 Q2078.92 17.7268 2073.33 23.9246 Q2067.78 30.1225 2067.78 42.3968 Q2067.78 54.6305 2073.33 60.8284 Q2078.92 67.0263 2090.02 67.0263 Q2094.36 67.0263 2097.76 66.2971 Q2101.16 65.5274 2103.88 63.9476 Z" fill="#000000" fill-rule="evenodd" fill-opacity="1" /><path clip-path="url(#clip180)" d="M2165.41 48.0275 L2165.41 51.6733 L2131.14 51.6733 Q2131.63 59.3701 2135.76 63.421 Q2139.93 67.4314 2147.34 67.4314 Q2151.64 67.4314 2155.65 66.3781 Q2159.7 65.3249 2163.67 63.2184 L2163.67 70.267 Q2159.66 71.9684 2155.45 72.8596 Q2151.23 73.7508 2146.9 73.7508 Q2136.04 73.7508 2129.68 67.4314 Q2123.36 61.1119 2123.36 50.3365 Q2123.36 39.1965 2129.36 32.6746 Q2135.39 26.1121 2145.6 26.1121 Q2154.76 26.1121 2160.06 32.0264 Q2165.41 37.9003 2165.41 48.0275 M2157.96 45.84 Q2157.88 39.7232 2154.51 36.0774 Q2151.19 32.4315 2145.68 32.4315 Q2139.44 32.4315 2135.68 35.9558 Q2131.95 39.4801 2131.38 45.8805 L2157.96 45.84 Z" fill="#000000" fill-rule="evenodd" fill-opacity="1" /><path clip-path="url(#clip180)" d="M2215.36 45.1919 L2215.36 72.576 L2207.9 72.576 L2207.9 45.4349 Q2207.9 38.994 2205.39 35.7938 Q2202.88 32.5936 2197.86 32.5936 Q2191.82 32.5936 2188.34 36.4419 Q2184.85 40.2903 2184.85 46.9338 L2184.85 72.576 L2177.36 72.576 L2177.36 27.2059 L2184.85 27.2059 L2184.85 34.2544 Q2187.53 30.163 2191.13 28.1376 Q2194.78 26.1121 2199.52 26.1121 Q2207.34 26.1121 2211.35 30.9732 Q2215.36 35.7938 2215.36 45.1919 Z" fill="#000000" fill-rule="evenodd" fill-opacity="1" /><path clip-path="url(#clip180)" d="M2269.03 48.0275 L2269.03 51.6733 L2234.76 51.6733 Q2235.25 59.3701 2239.38 63.421 Q2243.55 67.4314 2250.97 67.4314 Q2255.26 67.4314 2259.27 66.3781 Q2263.32 65.3249 2267.29 63.2184 L2267.29 70.267 Q2263.28 71.9684 2259.07 72.8596 Q2254.85 73.7508 2250.52 73.7508 Q2239.66 73.7508 2233.3 67.4314 Q2226.98 61.1119 2226.98 50.3365 Q2226.98 39.1965 2232.98 32.6746 Q2239.02 26.1121 2249.22 26.1121 Q2258.38 26.1121 2263.69 32.0264 Q2269.03 37.9003 2269.03 48.0275 M2261.58 45.84 Q2261.5 39.7232 2258.14 36.0774 Q2254.81 32.4315 2249.3 32.4315 Q2243.07 32.4315 2239.3 35.9558 Q2235.57 39.4801 2235 45.8805 L2261.58 45.84 Z" fill="#000000" fill-rule="evenodd" fill-opacity="1" /><path clip-path="url(#clip180)" d="M2310.19 28.5427 L2310.19 35.5912 Q2307.03 33.9709 2303.63 33.1607 Q2300.22 32.3505 2296.58 32.3505 Q2291.03 32.3505 2288.23 34.0519 Q2285.48 35.7533 2285.48 39.156 Q2285.48 41.7486 2287.46 43.2475 Q2289.45 44.7058 2295.44 46.0426 L2298 46.6097 Q2305.94 48.3111 2309.26 51.4303 Q2312.62 54.509 2312.62 60.0587 Q2312.62 66.3781 2307.6 70.0644 Q2302.61 73.7508 2293.86 73.7508 Q2290.22 73.7508 2286.25 73.0216 Q2282.32 72.3329 2277.94 70.9151 L2277.94 63.2184 Q2282.08 65.3654 2286.09 66.4591 Q2290.1 67.5124 2294.03 67.5124 Q2299.29 67.5124 2302.13 65.73 Q2304.96 63.9071 2304.96 60.6258 Q2304.96 57.5877 2302.9 55.9673 Q2300.87 54.3469 2293.95 52.8481 L2291.35 52.2405 Q2284.43 50.7821 2281.35 47.7845 Q2278.27 44.7463 2278.27 39.4801 Q2278.27 33.0797 2282.81 29.5959 Q2287.34 26.1121 2295.69 26.1121 Q2299.82 26.1121 2303.47 26.7198 Q2307.11 27.3274 2310.19 28.5427 Z" fill="#000000" fill-rule="evenodd" fill-opacity="1" /><polyline clip-path="url(#clip182)" style="stroke:#009fe3; stroke-linecap:butt; stroke-linejoin:round; stroke-width:20; stroke-opacity:0.996078; fill:none" points="
  2176.18,1405.67 2176.18,160.818 2293.12,160.818 2293.12,1405.67 
  "/>
<circle clip-path="url(#clip182)" cx="305.211" cy="1405.66" r="21" fill="#ff00ff" fill-rule="evenodd" fill-opacity="1" stroke="none"/>
<circle clip-path="url(#clip182)" cx="422.147" cy="1405.6" r="21" fill="#ff00ff" fill-rule="evenodd" fill-opacity="1" stroke="none"/>
<circle clip-path="url(#clip182)" cx="539.083" cy="1405.33" r="21" fill="#ff00ff" fill-rule="evenodd" fill-opacity="1" stroke="none"/>
<circle clip-path="url(#clip182)" cx="656.019" cy="1404.48" r="21" fill="#ff00ff" fill-rule="evenodd" fill-opacity="1" stroke="none"/>
<circle clip-path="url(#clip182)" cx="772.954" cy="1402.4" r="21" fill="#ff00ff" fill-rule="evenodd" fill-opacity="1" stroke="none"/>
<circle clip-path="url(#clip182)" cx="889.89" cy="1398.26" r="21" fill="#ff00ff" fill-rule="evenodd" fill-opacity="1" stroke="none"/>
<circle clip-path="url(#clip182)" cx="1006.83" cy="1391.26" r="21" fill="#ff00ff" fill-rule="evenodd" fill-opacity="1" stroke="none"/>
<circle clip-path="url(#clip182)" cx="1123.76" cy="1380.96" r="21" fill="#ff00ff" fill-rule="evenodd" fill-opacity="1" stroke="none"/>
<circle clip-path="url(#clip182)" cx="1240.7" cy="1367.57" r="21" fill="#ff00ff" fill-rule="evenodd" fill-opacity="1" stroke="none"/>
<circle clip-path="url(#clip182)" cx="1357.63" cy="1352.03" r="21" fill="#ff00ff" fill-rule="evenodd" fill-opacity="1" stroke="none"/>
<circle clip-path="url(#clip182)" cx="1474.57" cy="1335.91" r="21" fill="#ff00ff" fill-rule="evenodd" fill-opacity="1" stroke="none"/>
<circle clip-path="url(#clip182)" cx="1591.5" cy="1321.08" r="21" fill="#ff00ff" fill-rule="evenodd" fill-opacity="1" stroke="none"/>
<circle clip-path="url(#clip182)" cx="1708.44" cy="1309.3" r="21" fill="#ff00ff" fill-rule="evenodd" fill-opacity="1" stroke="none"/>
<circle clip-path="url(#clip182)" cx="1825.38" cy="1301.84" r="21" fill="#ff00ff" fill-rule="evenodd" fill-opacity="1" stroke="none"/>
<circle clip-path="url(#clip182)" cx="1942.31" cy="1299.33" r="21" fill="#ff00ff" fill-rule="evenodd" fill-opacity="1" stroke="none"/>
<circle clip-path="url(#clip182)" cx="2059.25" cy="1301.65" r="21" fill="#ff00ff" fill-rule="evenodd" fill-opacity="1" stroke="none"/>
<circle clip-path="url(#clip182)" cx="2176.18" cy="1308.11" r="21" fill="#ff00ff" fill-rule="evenodd" fill-opacity="1" stroke="none"/>
<path clip-path="url(#clip180)" d="
M1601.81 322.977 L2282.52 322.977 L2282.52 167.457 L1601.81 167.457  Z
  " fill="#ffffff" fill-rule="evenodd" fill-opacity="1"/>
<polyline clip-path="url(#clip180)" style="stroke:#000000; stroke-linecap:butt; stroke-linejoin:round; stroke-width:4; stroke-opacity:1; fill:none" points="
  1601.81,322.977 2282.52,322.977 2282.52,167.457 1601.81,167.457 1601.81,322.977 
  "/>
<polyline clip-path="url(#clip180)" style="stroke:#009fe3; stroke-linecap:butt; stroke-linejoin:round; stroke-width:4; stroke-opacity:0.996078; fill:none" points="
  1625.23,219.297 1765.71,219.297 
  "/>
<path clip-path="url(#clip180)" d="M1811.36 203.151 L1811.36 207.711 Q1808.7 206.438 1806.34 205.813 Q1803.98 205.188 1801.78 205.188 Q1797.96 205.188 1795.88 206.67 Q1793.82 208.151 1793.82 210.882 Q1793.82 213.174 1795.18 214.355 Q1796.57 215.512 1800.41 216.23 L1803.24 216.808 Q1808.47 217.804 1810.95 220.327 Q1813.45 222.827 1813.45 227.04 Q1813.45 232.063 1810.07 234.656 Q1806.71 237.248 1800.21 237.248 Q1797.75 237.248 1794.98 236.693 Q1792.22 236.137 1789.26 235.049 L1789.26 230.234 Q1792.1 231.831 1794.84 232.642 Q1797.57 233.452 1800.21 233.452 Q1804.21 233.452 1806.39 231.878 Q1808.56 230.304 1808.56 227.387 Q1808.56 224.841 1806.99 223.406 Q1805.44 221.97 1801.87 221.253 L1799.03 220.697 Q1793.79 219.656 1791.46 217.433 Q1789.12 215.211 1789.12 211.253 Q1789.12 206.67 1792.34 204.031 Q1795.58 201.392 1801.25 201.392 Q1803.68 201.392 1806.2 201.832 Q1808.72 202.271 1811.36 203.151 Z" fill="#000000" fill-rule="evenodd" fill-opacity="1" /><path clip-path="url(#clip180)" d="M1820.55 210.651 L1824.81 210.651 L1824.81 236.577 L1820.55 236.577 L1820.55 210.651 M1820.55 200.558 L1824.81 200.558 L1824.81 205.952 L1820.55 205.952 L1820.55 200.558 Z" fill="#000000" fill-rule="evenodd" fill-opacity="1" /><path clip-path="url(#clip180)" d="M1853.91 215.628 Q1855.51 212.757 1857.73 211.392 Q1859.95 210.026 1862.96 210.026 Q1867.01 210.026 1869.21 212.873 Q1871.41 215.697 1871.41 220.929 L1871.41 236.577 L1867.13 236.577 L1867.13 221.068 Q1867.13 217.341 1865.81 215.535 Q1864.49 213.73 1861.78 213.73 Q1858.47 213.73 1856.55 215.929 Q1854.63 218.128 1854.63 221.924 L1854.63 236.577 L1850.35 236.577 L1850.35 221.068 Q1850.35 217.318 1849.03 215.535 Q1847.71 213.73 1844.95 213.73 Q1841.69 213.73 1839.77 215.952 Q1837.85 218.151 1837.85 221.924 L1837.85 236.577 L1833.56 236.577 L1833.56 210.651 L1837.85 210.651 L1837.85 214.679 Q1839.3 212.295 1841.34 211.16 Q1843.38 210.026 1846.18 210.026 Q1849 210.026 1850.97 211.461 Q1852.96 212.896 1853.91 215.628 Z" fill="#000000" fill-rule="evenodd" fill-opacity="1" /><path clip-path="url(#clip180)" d="M1879.47 226.345 L1879.47 210.651 L1883.72 210.651 L1883.72 226.183 Q1883.72 229.864 1885.16 231.716 Q1886.59 233.544 1889.47 233.544 Q1892.91 233.544 1894.91 231.345 Q1896.92 229.146 1896.92 225.35 L1896.92 210.651 L1901.18 210.651 L1901.18 236.577 L1896.92 236.577 L1896.92 232.595 Q1895.37 234.956 1893.31 236.114 Q1891.27 237.248 1888.56 237.248 Q1884.09 237.248 1881.78 234.47 Q1879.47 231.693 1879.47 226.345 M1890.18 210.026 L1890.18 210.026 Z" fill="#000000" fill-rule="evenodd" fill-opacity="1" /><path clip-path="url(#clip180)" d="M1909.95 200.558 L1914.21 200.558 L1914.21 236.577 L1909.95 236.577 L1909.95 200.558 Z" fill="#000000" fill-rule="evenodd" fill-opacity="1" /><path clip-path="url(#clip180)" d="M1934.9 223.544 Q1929.74 223.544 1927.75 224.725 Q1925.76 225.906 1925.76 228.753 Q1925.76 231.021 1927.24 232.364 Q1928.75 233.683 1931.32 233.683 Q1934.86 233.683 1936.99 231.183 Q1939.14 228.66 1939.14 224.494 L1939.14 223.544 L1934.9 223.544 M1943.4 221.785 L1943.4 236.577 L1939.14 236.577 L1939.14 232.642 Q1937.68 235.003 1935.51 236.137 Q1933.33 237.248 1930.18 237.248 Q1926.2 237.248 1923.84 235.026 Q1921.5 232.781 1921.5 229.031 Q1921.5 224.656 1924.42 222.433 Q1927.36 220.211 1933.17 220.211 L1939.14 220.211 L1939.14 219.794 Q1939.14 216.855 1937.2 215.257 Q1935.28 213.637 1931.78 213.637 Q1929.56 213.637 1927.45 214.17 Q1925.34 214.702 1923.4 215.767 L1923.4 211.832 Q1925.74 210.929 1927.94 210.489 Q1930.14 210.026 1932.22 210.026 Q1937.84 210.026 1940.62 212.943 Q1943.4 215.859 1943.4 221.785 Z" fill="#000000" fill-rule="evenodd" fill-opacity="1" /><path clip-path="url(#clip180)" d="M1956.39 203.29 L1956.39 210.651 L1965.16 210.651 L1965.16 213.961 L1956.39 213.961 L1956.39 228.035 Q1956.39 231.206 1957.24 232.109 Q1958.12 233.012 1960.78 233.012 L1965.16 233.012 L1965.16 236.577 L1960.78 236.577 Q1955.85 236.577 1953.98 234.748 Q1952.1 232.896 1952.1 228.035 L1952.1 213.961 L1948.98 213.961 L1948.98 210.651 L1952.1 210.651 L1952.1 203.29 L1956.39 203.29 Z" fill="#000000" fill-rule="evenodd" fill-opacity="1" /><path clip-path="url(#clip180)" d="M1970.76 210.651 L1975.02 210.651 L1975.02 236.577 L1970.76 236.577 L1970.76 210.651 M1970.76 200.558 L1975.02 200.558 L1975.02 205.952 L1970.76 205.952 L1970.76 200.558 Z" fill="#000000" fill-rule="evenodd" fill-opacity="1" /><path clip-path="url(#clip180)" d="M1993.98 213.637 Q1990.55 213.637 1988.56 216.322 Q1986.57 218.984 1986.57 223.637 Q1986.57 228.29 1988.54 230.975 Q1990.53 233.637 1993.98 233.637 Q1997.38 233.637 1999.37 230.952 Q2001.36 228.267 2001.36 223.637 Q2001.36 219.031 1999.37 216.345 Q1997.38 213.637 1993.98 213.637 M1993.98 210.026 Q1999.53 210.026 2002.71 213.637 Q2005.88 217.248 2005.88 223.637 Q2005.88 230.003 2002.71 233.637 Q1999.53 237.248 1993.98 237.248 Q1988.4 237.248 1985.23 233.637 Q1982.08 230.003 1982.08 223.637 Q1982.08 217.248 1985.23 213.637 Q1988.4 210.026 1993.98 210.026 Z" fill="#000000" fill-rule="evenodd" fill-opacity="1" /><path clip-path="url(#clip180)" d="M2034.49 220.929 L2034.49 236.577 L2030.23 236.577 L2030.23 221.068 Q2030.23 217.387 2028.79 215.558 Q2027.36 213.73 2024.49 213.73 Q2021.04 213.73 2019.05 215.929 Q2017.06 218.128 2017.06 221.924 L2017.06 236.577 L2012.77 236.577 L2012.77 210.651 L2017.06 210.651 L2017.06 214.679 Q2018.58 212.341 2020.65 211.183 Q2022.73 210.026 2025.44 210.026 Q2029.9 210.026 2032.2 212.804 Q2034.49 215.558 2034.49 220.929 Z" fill="#000000" fill-rule="evenodd" fill-opacity="1" /><circle clip-path="url(#clip180)" cx="1695.47" cy="271.137" r="23" fill="#ff00ff" fill-rule="evenodd" fill-opacity="1" stroke="none"/>
<path clip-path="url(#clip180)" d="M1789.12 253.857 L1793.79 253.857 L1793.79 284.482 L1810.62 284.482 L1810.62 288.417 L1789.12 288.417 L1789.12 253.857 Z" fill="#000000" fill-rule="evenodd" fill-opacity="1" /><path clip-path="url(#clip180)" d="M1815.53 253.857 L1821.83 253.857 L1837.15 282.769 L1837.15 253.857 L1841.69 253.857 L1841.69 288.417 L1835.39 288.417 L1820.07 259.505 L1820.07 288.417 L1815.53 288.417 L1815.53 253.857 Z" fill="#000000" fill-rule="evenodd" fill-opacity="1" /><path clip-path="url(#clip180)" d="M1862.54 258.463 L1856.2 275.662 L1868.91 275.662 L1862.54 258.463 M1859.91 253.857 L1865.21 253.857 L1878.38 288.417 L1873.52 288.417 L1870.37 279.551 L1854.79 279.551 L1851.64 288.417 L1846.71 288.417 L1859.91 253.857 Z" fill="#000000" fill-rule="evenodd" fill-opacity="1" /><path clip-path="url(#clip180)" d="M1910.04 258.463 L1903.7 275.662 L1916.41 275.662 L1910.04 258.463 M1907.4 253.857 L1912.71 253.857 L1925.88 288.417 L1921.02 288.417 L1917.87 279.551 L1902.29 279.551 L1899.14 288.417 L1894.21 288.417 L1907.4 253.857 Z" fill="#000000" fill-rule="evenodd" fill-opacity="1" /><path clip-path="url(#clip180)" d="M1934.86 284.528 L1934.86 298.278 L1930.58 298.278 L1930.58 262.491 L1934.86 262.491 L1934.86 266.426 Q1936.2 264.111 1938.24 263 Q1940.3 261.866 1943.15 261.866 Q1947.87 261.866 1950.81 265.616 Q1953.77 269.366 1953.77 275.477 Q1953.77 281.588 1950.81 285.338 Q1947.87 289.088 1943.15 289.088 Q1940.3 289.088 1938.24 287.977 Q1936.2 286.843 1934.86 284.528 M1949.35 275.477 Q1949.35 270.778 1947.4 268.116 Q1945.48 265.431 1942.1 265.431 Q1938.72 265.431 1936.78 268.116 Q1934.86 270.778 1934.86 275.477 Q1934.86 280.176 1936.78 282.861 Q1938.72 285.523 1942.1 285.523 Q1945.48 285.523 1947.4 282.861 Q1949.35 280.176 1949.35 275.477 Z" fill="#000000" fill-rule="evenodd" fill-opacity="1" /><path clip-path="url(#clip180)" d="M1964.95 284.528 L1964.95 298.278 L1960.67 298.278 L1960.67 262.491 L1964.95 262.491 L1964.95 266.426 Q1966.29 264.111 1968.33 263 Q1970.39 261.866 1973.24 261.866 Q1977.96 261.866 1980.9 265.616 Q1983.86 269.366 1983.86 275.477 Q1983.86 281.588 1980.9 285.338 Q1977.96 289.088 1973.24 289.088 Q1970.39 289.088 1968.33 287.977 Q1966.29 286.843 1964.95 284.528 M1979.44 275.477 Q1979.44 270.778 1977.5 268.116 Q1975.58 265.431 1972.2 265.431 Q1968.82 265.431 1966.87 268.116 Q1964.95 270.778 1964.95 275.477 Q1964.95 280.176 1966.87 282.861 Q1968.82 285.523 1972.2 285.523 Q1975.58 285.523 1977.5 282.861 Q1979.44 280.176 1979.44 275.477 Z" fill="#000000" fill-rule="evenodd" fill-opacity="1" /><path clip-path="url(#clip180)" d="M2005.95 266.472 Q2005.23 266.056 2004.37 265.871 Q2003.54 265.662 2002.52 265.662 Q1998.91 265.662 1996.96 268.023 Q1995.04 270.361 1995.04 274.759 L1995.04 288.417 L1990.76 288.417 L1990.76 262.491 L1995.04 262.491 L1995.04 266.519 Q1996.39 264.158 1998.54 263.023 Q2000.69 261.866 2003.77 261.866 Q2004.21 261.866 2004.74 261.935 Q2005.27 261.982 2005.92 262.097 L2005.95 266.472 Z" fill="#000000" fill-rule="evenodd" fill-opacity="1" /><path clip-path="url(#clip180)" d="M2019.42 265.477 Q2015.99 265.477 2014 268.162 Q2012.01 270.824 2012.01 275.477 Q2012.01 280.13 2013.98 282.815 Q2015.97 285.477 2019.42 285.477 Q2022.82 285.477 2024.81 282.792 Q2026.8 280.107 2026.8 275.477 Q2026.8 270.871 2024.81 268.185 Q2022.82 265.477 2019.42 265.477 M2019.42 261.866 Q2024.97 261.866 2028.15 265.477 Q2031.32 269.088 2031.32 275.477 Q2031.32 281.843 2028.15 285.477 Q2024.97 289.088 2019.42 289.088 Q2013.84 289.088 2010.67 285.477 Q2007.52 281.843 2007.52 275.477 Q2007.52 269.088 2010.67 265.477 Q2013.84 261.866 2019.42 261.866 Z" fill="#000000" fill-rule="evenodd" fill-opacity="1" /><path clip-path="url(#clip180)" d="M2058.47 262.491 L2049.09 275.107 L2058.96 288.417 L2053.93 288.417 L2046.39 278.232 L2038.84 288.417 L2033.82 288.417 L2043.89 274.852 L2034.67 262.491 L2039.7 262.491 L2046.57 271.727 L2053.45 262.491 L2058.47 262.491 Z" fill="#000000" fill-rule="evenodd" fill-opacity="1" /><path clip-path="url(#clip180)" d="M2064.97 262.491 L2069.23 262.491 L2069.23 288.417 L2064.97 288.417 L2064.97 262.491 M2064.97 252.398 L2069.23 252.398 L2069.23 257.792 L2064.97 257.792 L2064.97 252.398 Z" fill="#000000" fill-rule="evenodd" fill-opacity="1" /><path clip-path="url(#clip180)" d="M2098.33 267.468 Q2099.93 264.597 2102.15 263.232 Q2104.37 261.866 2107.38 261.866 Q2111.43 261.866 2113.63 264.713 Q2115.83 267.537 2115.83 272.769 L2115.83 288.417 L2111.55 288.417 L2111.55 272.908 Q2111.55 269.181 2110.23 267.375 Q2108.91 265.57 2106.2 265.57 Q2102.89 265.57 2100.97 267.769 Q2099.05 269.968 2099.05 273.764 L2099.05 288.417 L2094.77 288.417 L2094.77 272.908 Q2094.77 269.158 2093.45 267.375 Q2092.13 265.57 2089.37 265.57 Q2086.11 265.57 2084.19 267.792 Q2082.27 269.991 2082.27 273.764 L2082.27 288.417 L2077.98 288.417 L2077.98 262.491 L2082.27 262.491 L2082.27 266.519 Q2083.72 264.135 2085.76 263 Q2087.8 261.866 2090.6 261.866 Q2093.42 261.866 2095.39 263.301 Q2097.38 264.736 2098.33 267.468 Z" fill="#000000" fill-rule="evenodd" fill-opacity="1" /><path clip-path="url(#clip180)" d="M2136.11 275.384 Q2130.95 275.384 2128.95 276.565 Q2126.96 277.746 2126.96 280.593 Q2126.96 282.861 2128.45 284.204 Q2129.95 285.523 2132.52 285.523 Q2136.06 285.523 2138.19 283.023 Q2140.34 280.5 2140.34 276.334 L2140.34 275.384 L2136.11 275.384 M2144.6 273.625 L2144.6 288.417 L2140.34 288.417 L2140.34 284.482 Q2138.89 286.843 2136.71 287.977 Q2134.53 289.088 2131.39 289.088 Q2127.4 289.088 2125.04 286.866 Q2122.7 284.621 2122.7 280.871 Q2122.7 276.496 2125.62 274.273 Q2128.56 272.051 2134.37 272.051 L2140.34 272.051 L2140.34 271.634 Q2140.34 268.695 2138.4 267.097 Q2136.48 265.477 2132.98 265.477 Q2130.76 265.477 2128.65 266.01 Q2126.55 266.542 2124.6 267.607 L2124.6 263.672 Q2126.94 262.769 2129.14 262.329 Q2131.34 261.866 2133.42 261.866 Q2139.05 261.866 2141.83 264.783 Q2144.6 267.699 2144.6 273.625 Z" fill="#000000" fill-rule="evenodd" fill-opacity="1" /><path clip-path="url(#clip180)" d="M2157.59 255.13 L2157.59 262.491 L2166.36 262.491 L2166.36 265.801 L2157.59 265.801 L2157.59 279.875 Q2157.59 283.046 2158.45 283.949 Q2159.32 284.852 2161.99 284.852 L2166.36 284.852 L2166.36 288.417 L2161.99 288.417 Q2157.06 288.417 2155.18 286.588 Q2153.31 284.736 2153.31 279.875 L2153.31 265.801 L2150.18 265.801 L2150.18 262.491 L2153.31 262.491 L2153.31 255.13 L2157.59 255.13 Z" fill="#000000" fill-rule="evenodd" fill-opacity="1" /><path clip-path="url(#clip180)" d="M2171.96 262.491 L2176.22 262.491 L2176.22 288.417 L2171.96 288.417 L2171.96 262.491 M2171.96 252.398 L2176.22 252.398 L2176.22 257.792 L2171.96 257.792 L2171.96 252.398 Z" fill="#000000" fill-rule="evenodd" fill-opacity="1" /><path clip-path="url(#clip180)" d="M2195.18 265.477 Q2191.76 265.477 2189.76 268.162 Q2187.77 270.824 2187.77 275.477 Q2187.77 280.13 2189.74 282.815 Q2191.73 285.477 2195.18 285.477 Q2198.58 285.477 2200.57 282.792 Q2202.57 280.107 2202.57 275.477 Q2202.57 270.871 2200.57 268.185 Q2198.58 265.477 2195.18 265.477 M2195.18 261.866 Q2200.74 261.866 2203.91 265.477 Q2207.08 269.088 2207.08 275.477 Q2207.08 281.843 2203.91 285.477 Q2200.74 289.088 2195.18 289.088 Q2189.6 289.088 2186.43 285.477 Q2183.28 281.843 2183.28 275.477 Q2183.28 269.088 2186.43 265.477 Q2189.6 261.866 2195.18 261.866 Z" fill="#000000" fill-rule="evenodd" fill-opacity="1" /><path clip-path="url(#clip180)" d="M2235.69 272.769 L2235.69 288.417 L2231.43 288.417 L2231.43 272.908 Q2231.43 269.227 2230 267.398 Q2228.56 265.57 2225.69 265.57 Q2222.24 265.57 2220.25 267.769 Q2218.26 269.968 2218.26 273.764 L2218.26 288.417 L2213.98 288.417 L2213.98 262.491 L2218.26 262.491 L2218.26 266.519 Q2219.79 264.181 2221.85 263.023 Q2223.93 261.866 2226.64 261.866 Q2231.11 261.866 2233.4 264.644 Q2235.69 267.398 2235.69 272.769 Z" fill="#000000" fill-rule="evenodd" fill-opacity="1" /></svg>
