<?xml version="1.0" encoding="utf-8"?>
<svg xmlns="http://www.w3.org/2000/svg" xmlns:xlink="http://www.w3.org/1999/xlink" width="600" height="400" viewBox="0 0 2400 1600">
<defs>
  <clipPath id="clip100">
    <rect x="0" y="0" width="2400" height="1600"/>
  </clipPath>
</defs>
<path clip-path="url(#clip100)" d="
M0 1600 L2400 1600 L2400 0 L0 0  Z
  " fill="#ffffff" fill-rule="evenodd" fill-opacity="1"/>
<defs>
  <clipPath id="clip101">
    <rect x="480" y="0" width="1681" height="1600"/>
  </clipPath>
</defs>
<defs>
  <clipPath id="clip102">
    <rect x="275" y="123" width="2078" height="1321"/>
  </clipPath>
</defs>
<path clip-path="url(#clip100)" d="
M275.736 1443.01 L2352.76 1443.01 L2352.76 123.472 L275.736 123.472  Z
  " fill="#ffffff" fill-rule="evenodd" fill-opacity="1"/>
<polyline clip-path="url(#clip100)" style="stroke:#000000; stroke-linecap:butt; stroke-linejoin:round; stroke-width:4; stroke-opacity:1; fill:none" points="
  275.736,1443.01 2352.76,1443.01 
  "/>
<polyline clip-path="url(#clip100)" style="stroke:#000000; stroke-linecap:butt; stroke-linejoin:round; stroke-width:4; stroke-opacity:1; fill:none" points="
  334.52,1443.01 334.52,1424.11 
  "/>
<polyline clip-path="url(#clip100)" style="stroke:#000000; stroke-linecap:butt; stroke-linejoin:round; stroke-width:4; stroke-opacity:1; fill:none" points="
  928.293,1443.01 928.293,1424.11 
  "/>
<polyline clip-path="url(#clip100)" style="stroke:#000000; stroke-linecap:butt; stroke-linejoin:round; stroke-width:4; stroke-opacity:1; fill:none" points="
  1522.07,1443.01 1522.07,1424.11 
  "/>
<polyline clip-path="url(#clip100)" style="stroke:#000000; stroke-linecap:butt; stroke-linejoin:round; stroke-width:4; stroke-opacity:1; fill:none" points="
  2115.84,1443.01 2115.84,1424.11 
  "/>
<path clip-path="url(#clip100)" d="M334.52 1472.2 Q330.908 1472.2 329.08 1475.77 Q327.274 1479.31 327.274 1486.44 Q327.274 1493.55 329.08 1497.11 Q330.908 1500.65 334.52 1500.65 Q338.154 1500.65 339.959 1497.11 Q341.788 1493.55 341.788 1486.44 Q341.788 1479.31 339.959 1475.77 Q338.154 1472.2 334.52 1472.2 M334.52 1468.5 Q340.33 1468.5 343.385 1473.11 Q346.464 1477.69 346.464 1486.44 Q346.464 1495.17 343.385 1499.77 Q340.33 1504.36 334.52 1504.36 Q328.709 1504.36 325.631 1499.77 Q322.575 1495.17 322.575 1486.44 Q322.575 1477.69 325.631 1473.11 Q328.709 1468.5 334.52 1468.5 Z" fill="#000000" fill-rule="evenodd" fill-opacity="1" /><path clip-path="url(#clip100)" d="M902.981 1499.75 L910.62 1499.75 L910.62 1473.38 L902.309 1475.05 L902.309 1470.79 L910.573 1469.12 L915.249 1469.12 L915.249 1499.75 L922.888 1499.75 L922.888 1503.68 L902.981 1503.68 L902.981 1499.75 Z" fill="#000000" fill-rule="evenodd" fill-opacity="1" /><path clip-path="url(#clip100)" d="M942.332 1472.2 Q938.721 1472.2 936.893 1475.77 Q935.087 1479.31 935.087 1486.44 Q935.087 1493.55 936.893 1497.11 Q938.721 1500.65 942.332 1500.65 Q945.967 1500.65 947.772 1497.11 Q949.601 1493.55 949.601 1486.44 Q949.601 1479.31 947.772 1475.77 Q945.967 1472.2 942.332 1472.2 M942.332 1468.5 Q948.143 1468.5 951.198 1473.11 Q954.277 1477.69 954.277 1486.44 Q954.277 1495.17 951.198 1499.77 Q948.143 1504.36 942.332 1504.36 Q936.522 1504.36 933.444 1499.77 Q930.388 1495.17 930.388 1486.44 Q930.388 1477.69 933.444 1473.11 Q936.522 1468.5 942.332 1468.5 Z" fill="#000000" fill-rule="evenodd" fill-opacity="1" /><path clip-path="url(#clip100)" d="M1500.84 1499.75 L1517.16 1499.75 L1517.16 1503.68 L1495.21 1503.68 L1495.21 1499.75 Q1497.88 1496.99 1502.46 1492.36 Q1507.07 1487.71 1508.25 1486.37 Q1510.49 1483.85 1511.37 1482.11 Q1512.28 1480.35 1512.28 1478.66 Q1512.28 1475.91 1510.33 1474.17 Q1508.41 1472.43 1505.31 1472.43 Q1503.11 1472.43 1500.65 1473.2 Q1498.22 1473.96 1495.45 1475.51 L1495.45 1470.79 Q1498.27 1469.66 1500.72 1469.08 Q1503.18 1468.5 1505.21 1468.5 Q1510.59 1468.5 1513.78 1471.18 Q1516.97 1473.87 1516.97 1478.36 Q1516.97 1480.49 1516.16 1482.41 Q1515.38 1484.31 1513.27 1486.9 Q1512.69 1487.57 1509.59 1490.79 Q1506.49 1493.99 1500.84 1499.75 Z" fill="#000000" fill-rule="evenodd" fill-opacity="1" /><path clip-path="url(#clip100)" d="M1536.97 1472.2 Q1533.36 1472.2 1531.53 1475.77 Q1529.73 1479.31 1529.73 1486.44 Q1529.73 1493.55 1531.53 1497.11 Q1533.36 1500.65 1536.97 1500.65 Q1540.61 1500.65 1542.41 1497.11 Q1544.24 1493.55 1544.24 1486.44 Q1544.24 1479.31 1542.41 1475.77 Q1540.61 1472.2 1536.97 1472.2 M1536.97 1468.5 Q1542.78 1468.5 1545.84 1473.11 Q1548.92 1477.69 1548.92 1486.44 Q1548.92 1495.17 1545.84 1499.77 Q1542.78 1504.36 1536.97 1504.36 Q1531.16 1504.36 1528.09 1499.77 Q1525.03 1495.17 1525.03 1486.44 Q1525.03 1477.69 1528.09 1473.11 Q1531.16 1468.5 1536.97 1468.5 Z" fill="#000000" fill-rule="evenodd" fill-opacity="1" /><path clip-path="url(#clip100)" d="M2104.68 1485.05 Q2108.04 1485.77 2109.91 1488.04 Q2111.81 1490.3 2111.81 1493.64 Q2111.81 1498.75 2108.29 1501.55 Q2104.78 1504.36 2098.29 1504.36 Q2096.12 1504.36 2093.8 1503.92 Q2091.51 1503.5 2089.06 1502.64 L2089.06 1498.13 Q2091 1499.26 2093.32 1499.84 Q2095.63 1500.42 2098.16 1500.42 Q2102.55 1500.42 2104.84 1498.68 Q2107.16 1496.95 2107.16 1493.64 Q2107.16 1490.58 2105.01 1488.87 Q2102.88 1487.13 2099.06 1487.13 L2095.03 1487.13 L2095.03 1483.29 L2099.24 1483.29 Q2102.69 1483.29 2104.52 1481.93 Q2106.35 1480.54 2106.35 1477.94 Q2106.35 1475.28 2104.45 1473.87 Q2102.58 1472.43 2099.06 1472.43 Q2097.14 1472.43 2094.94 1472.85 Q2092.74 1473.27 2090.1 1474.15 L2090.1 1469.98 Q2092.76 1469.24 2095.08 1468.87 Q2097.41 1468.5 2099.47 1468.5 Q2104.8 1468.5 2107.9 1470.93 Q2111 1473.34 2111 1477.46 Q2111 1480.33 2109.36 1482.32 Q2107.72 1484.29 2104.68 1485.05 Z" fill="#000000" fill-rule="evenodd" fill-opacity="1" /><path clip-path="url(#clip100)" d="M2130.68 1472.2 Q2127.07 1472.2 2125.24 1475.77 Q2123.43 1479.31 2123.43 1486.44 Q2123.43 1493.55 2125.24 1497.11 Q2127.07 1500.65 2130.68 1500.65 Q2134.31 1500.65 2136.12 1497.11 Q2137.95 1493.55 2137.95 1486.44 Q2137.95 1479.31 2136.12 1475.77 Q2134.31 1472.2 2130.68 1472.2 M2130.68 1468.5 Q2136.49 1468.5 2139.54 1473.11 Q2142.62 1477.69 2142.62 1486.44 Q2142.62 1495.17 2139.54 1499.77 Q2136.49 1504.36 2130.68 1504.36 Q2124.87 1504.36 2121.79 1499.77 Q2118.73 1495.17 2118.73 1486.44 Q2118.73 1477.69 2121.79 1473.11 Q2124.87 1468.5 2130.68 1468.5 Z" fill="#000000" fill-rule="evenodd" fill-opacity="1" /><path clip-path="url(#clip100)" d="M1332.28 1536.96 Q1332.28 1541.66 1329.9 1546.2 Q1327.54 1550.74 1323.84 1553.55 Q1320.14 1556.31 1316.37 1556.31 Q1314.11 1556.31 1312.6 1555.09 Q1311.12 1553.84 1310.31 1552.06 Q1309.7 1554.25 1308.38 1559.5 Q1307.06 1564.75 1307.06 1565.27 Q1307.06 1565.56 1307.13 1565.69 Q1307.19 1565.82 1307.48 1565.98 Q1307.77 1566.17 1308.48 1566.23 Q1309.19 1566.33 1310.38 1566.33 Q1310.99 1566.33 1311.22 1566.33 Q1311.47 1566.36 1311.7 1566.52 Q1311.96 1566.69 1311.96 1567.04 Q1311.96 1568.36 1310.76 1568.36 Q1309.7 1568.36 1307.51 1568.26 Q1305.32 1568.17 1304.23 1568.17 Q1303.29 1568.17 1301.43 1568.26 Q1299.56 1568.36 1298.69 1568.36 Q1297.82 1568.36 1297.82 1567.59 Q1297.82 1567.14 1297.95 1566.85 Q1298.04 1566.59 1298.3 1566.46 Q1298.56 1566.36 1298.78 1566.33 Q1298.98 1566.33 1299.36 1566.33 Q1300.85 1566.33 1301.49 1566.07 Q1302.13 1565.85 1302.36 1565.36 Q1302.62 1564.91 1302.91 1563.63 L1310.31 1534.25 Q1310.76 1532.29 1310.76 1530.9 Q1310.76 1529.17 1310.22 1528.52 Q1309.67 1527.88 1308.7 1527.88 Q1307.03 1527.88 1305.93 1529.87 Q1304.84 1531.87 1303.91 1535.74 Q1303.62 1536.8 1303.42 1537.02 Q1303.26 1537.25 1302.78 1537.25 Q1301.97 1537.22 1301.97 1536.57 Q1301.97 1536.41 1302.23 1535.38 Q1302.49 1534.32 1302.97 1532.77 Q1303.49 1531.19 1304.03 1530.2 Q1304.36 1529.52 1304.65 1529.07 Q1304.94 1528.62 1305.52 1527.91 Q1306.13 1527.2 1307 1526.81 Q1307.87 1526.43 1308.93 1526.43 Q1310.99 1526.43 1312.7 1527.65 Q1314.4 1528.88 1314.86 1531.36 Q1316.69 1529.2 1318.95 1527.81 Q1321.2 1526.43 1323.49 1526.43 Q1327.29 1526.43 1329.77 1529.39 Q1332.28 1532.32 1332.28 1536.96 M1327.51 1534.06 Q1327.51 1531.13 1326.38 1529.52 Q1325.29 1527.88 1323.29 1527.88 Q1320.81 1527.88 1317.95 1530.39 Q1315.11 1532.77 1314.53 1534.99 L1311.28 1547.91 L1311.09 1548.97 Q1311.09 1549.17 1311.18 1549.74 Q1311.31 1550.29 1311.67 1551.19 Q1312.05 1552.1 1312.57 1552.9 Q1313.12 1553.67 1314.08 1554.25 Q1315.08 1554.83 1316.3 1554.83 Q1318.27 1554.83 1320.39 1553.09 Q1322.55 1551.36 1324.16 1548.07 Q1325.16 1545.94 1326.32 1541.37 Q1327.51 1536.77 1327.51 1534.06 Z" fill="#000000" fill-rule="evenodd" fill-opacity="1" /><polyline clip-path="url(#clip100)" style="stroke:#000000; stroke-linecap:butt; stroke-linejoin:round; stroke-width:4; stroke-opacity:1; fill:none" points="
  275.736,1443.01 275.736,123.472 
  "/>
<polyline clip-path="url(#clip100)" style="stroke:#000000; stroke-linecap:butt; stroke-linejoin:round; stroke-width:4; stroke-opacity:1; fill:none" points="
  275.736,1405.67 294.634,1405.67 
  "/>
<polyline clip-path="url(#clip100)" style="stroke:#000000; stroke-linecap:butt; stroke-linejoin:round; stroke-width:4; stroke-opacity:1; fill:none" points="
  275.736,1129.81 294.634,1129.81 
  "/>
<polyline clip-path="url(#clip100)" style="stroke:#000000; stroke-linecap:butt; stroke-linejoin:round; stroke-width:4; stroke-opacity:1; fill:none" points="
  275.736,853.955 294.634,853.955 
  "/>
<polyline clip-path="url(#clip100)" style="stroke:#000000; stroke-linecap:butt; stroke-linejoin:round; stroke-width:4; stroke-opacity:1; fill:none" points="
  275.736,578.098 294.634,578.098 
  "/>
<polyline clip-path="url(#clip100)" style="stroke:#000000; stroke-linecap:butt; stroke-linejoin:round; stroke-width:4; stroke-opacity:1; fill:none" points="
  275.736,302.242 294.634,302.242 
  "/>
<path clip-path="url(#clip100)" d="M122.237 1391.47 Q118.626 1391.47 116.797 1395.03 Q114.991 1398.57 114.991 1405.7 Q114.991 1412.81 116.797 1416.37 Q118.626 1419.91 122.237 1419.91 Q125.871 1419.91 127.676 1416.37 Q129.505 1412.81 129.505 1405.7 Q129.505 1398.57 127.676 1395.03 Q125.871 1391.47 122.237 1391.47 M122.237 1387.76 Q128.047 1387.76 131.102 1392.37 Q134.181 1396.95 134.181 1405.7 Q134.181 1414.43 131.102 1419.03 Q128.047 1423.62 122.237 1423.62 Q116.426 1423.62 113.348 1419.03 Q110.292 1414.43 110.292 1405.7 Q110.292 1396.95 113.348 1392.37 Q116.426 1387.76 122.237 1387.76 Z" fill="#000000" fill-rule="evenodd" fill-opacity="1" /><path clip-path="url(#clip100)" d="M142.399 1417.07 L147.283 1417.07 L147.283 1422.95 L142.399 1422.95 L142.399 1417.07 Z" fill="#000000" fill-rule="evenodd" fill-opacity="1" /><path clip-path="url(#clip100)" d="M167.468 1391.47 Q163.857 1391.47 162.028 1395.03 Q160.223 1398.57 160.223 1405.7 Q160.223 1412.81 162.028 1416.37 Q163.857 1419.91 167.468 1419.91 Q171.102 1419.91 172.908 1416.37 Q174.736 1412.81 174.736 1405.7 Q174.736 1398.57 172.908 1395.03 Q171.102 1391.47 167.468 1391.47 M167.468 1387.76 Q173.278 1387.76 176.334 1392.37 Q179.412 1396.95 179.412 1405.7 Q179.412 1414.43 176.334 1419.03 Q173.278 1423.62 167.468 1423.62 Q161.658 1423.62 158.579 1419.03 Q155.523 1414.43 155.523 1405.7 Q155.523 1396.95 158.579 1392.37 Q161.658 1387.76 167.468 1387.76 Z" fill="#000000" fill-rule="evenodd" fill-opacity="1" /><path clip-path="url(#clip100)" d="M197.63 1391.47 Q194.019 1391.47 192.19 1395.03 Q190.384 1398.57 190.384 1405.7 Q190.384 1412.81 192.19 1416.37 Q194.019 1419.91 197.63 1419.91 Q201.264 1419.91 203.07 1416.37 Q204.898 1412.81 204.898 1405.7 Q204.898 1398.57 203.07 1395.03 Q201.264 1391.47 197.63 1391.47 M197.63 1387.76 Q203.44 1387.76 206.495 1392.37 Q209.574 1396.95 209.574 1405.7 Q209.574 1414.43 206.495 1419.03 Q203.44 1423.62 197.63 1423.62 Q191.82 1423.62 188.741 1419.03 Q185.685 1414.43 185.685 1405.7 Q185.685 1396.95 188.741 1392.37 Q191.82 1387.76 197.63 1387.76 Z" fill="#000000" fill-rule="evenodd" fill-opacity="1" /><path clip-path="url(#clip100)" d="M227.792 1391.47 Q224.181 1391.47 222.352 1395.03 Q220.546 1398.57 220.546 1405.7 Q220.546 1412.81 222.352 1416.37 Q224.181 1419.91 227.792 1419.91 Q231.426 1419.91 233.231 1416.37 Q235.06 1412.81 235.06 1405.7 Q235.06 1398.57 233.231 1395.03 Q231.426 1391.47 227.792 1391.47 M227.792 1387.76 Q233.602 1387.76 236.657 1392.37 Q239.736 1396.95 239.736 1405.7 Q239.736 1414.43 236.657 1419.03 Q233.602 1423.62 227.792 1423.62 Q221.981 1423.62 218.903 1419.03 Q215.847 1414.43 215.847 1405.7 Q215.847 1396.95 218.903 1392.37 Q221.981 1387.76 227.792 1387.76 Z" fill="#000000" fill-rule="evenodd" fill-opacity="1" /><path clip-path="url(#clip100)" d="M123.232 1115.61 Q119.621 1115.61 117.792 1119.17 Q115.987 1122.72 115.987 1129.85 Q115.987 1136.95 117.792 1140.52 Q119.621 1144.06 123.232 1144.06 Q126.866 1144.06 128.672 1140.52 Q130.5 1136.95 130.5 1129.85 Q130.5 1122.72 128.672 1119.17 Q126.866 1115.61 123.232 1115.61 M123.232 1111.91 Q129.042 1111.91 132.098 1116.51 Q135.176 1121.1 135.176 1129.85 Q135.176 1138.57 132.098 1143.18 Q129.042 1147.76 123.232 1147.76 Q117.422 1147.76 114.343 1143.18 Q111.288 1138.57 111.288 1129.85 Q111.288 1121.1 114.343 1116.51 Q117.422 1111.91 123.232 1111.91 Z" fill="#000000" fill-rule="evenodd" fill-opacity="1" /><path clip-path="url(#clip100)" d="M143.394 1141.21 L148.278 1141.21 L148.278 1147.09 L143.394 1147.09 L143.394 1141.21 Z" fill="#000000" fill-rule="evenodd" fill-opacity="1" /><path clip-path="url(#clip100)" d="M168.463 1115.61 Q164.852 1115.61 163.023 1119.17 Q161.218 1122.72 161.218 1129.85 Q161.218 1136.95 163.023 1140.52 Q164.852 1144.06 168.463 1144.06 Q172.097 1144.06 173.903 1140.52 Q175.732 1136.95 175.732 1129.85 Q175.732 1122.72 173.903 1119.17 Q172.097 1115.61 168.463 1115.61 M168.463 1111.91 Q174.273 1111.91 177.329 1116.51 Q180.408 1121.1 180.408 1129.85 Q180.408 1138.57 177.329 1143.18 Q174.273 1147.76 168.463 1147.76 Q162.653 1147.76 159.574 1143.18 Q156.519 1138.57 156.519 1129.85 Q156.519 1121.1 159.574 1116.51 Q162.653 1111.91 168.463 1111.91 Z" fill="#000000" fill-rule="evenodd" fill-opacity="1" /><path clip-path="url(#clip100)" d="M192.653 1143.16 L208.972 1143.16 L208.972 1147.09 L187.028 1147.09 L187.028 1143.16 Q189.69 1140.4 194.273 1135.77 Q198.88 1131.12 200.06 1129.78 Q202.306 1127.25 203.185 1125.52 Q204.088 1123.76 204.088 1122.07 Q204.088 1119.31 202.144 1117.58 Q200.222 1115.84 197.12 1115.84 Q194.921 1115.84 192.468 1116.6 Q190.037 1117.37 187.259 1118.92 L187.259 1114.2 Q190.083 1113.06 192.537 1112.48 Q194.991 1111.91 197.028 1111.91 Q202.398 1111.91 205.593 1114.59 Q208.787 1117.28 208.787 1121.77 Q208.787 1123.9 207.977 1125.82 Q207.19 1127.72 205.083 1130.31 Q204.505 1130.98 201.403 1134.2 Q198.301 1137.39 192.653 1143.16 Z" fill="#000000" fill-rule="evenodd" fill-opacity="1" /><path clip-path="url(#clip100)" d="M218.833 1112.53 L237.19 1112.53 L237.19 1116.47 L223.116 1116.47 L223.116 1124.94 Q224.134 1124.59 225.153 1124.43 Q226.171 1124.24 227.19 1124.24 Q232.977 1124.24 236.356 1127.41 Q239.736 1130.59 239.736 1136 Q239.736 1141.58 236.264 1144.68 Q232.792 1147.76 226.472 1147.76 Q224.296 1147.76 222.028 1147.39 Q219.782 1147.02 217.375 1146.28 L217.375 1141.58 Q219.458 1142.72 221.681 1143.27 Q223.903 1143.83 226.38 1143.83 Q230.384 1143.83 232.722 1141.72 Q235.06 1139.61 235.06 1136 Q235.06 1132.39 232.722 1130.29 Q230.384 1128.18 226.38 1128.18 Q224.505 1128.18 222.63 1128.6 Q220.778 1129.01 218.833 1129.89 L218.833 1112.53 Z" fill="#000000" fill-rule="evenodd" fill-opacity="1" /><path clip-path="url(#clip100)" d="M122.237 839.753 Q118.626 839.753 116.797 843.318 Q114.991 846.86 114.991 853.989 Q114.991 861.096 116.797 864.661 Q118.626 868.202 122.237 868.202 Q125.871 868.202 127.676 864.661 Q129.505 861.096 129.505 853.989 Q129.505 846.86 127.676 843.318 Q125.871 839.753 122.237 839.753 M122.237 836.05 Q128.047 836.05 131.102 840.656 Q134.181 845.239 134.181 853.989 Q134.181 862.716 131.102 867.323 Q128.047 871.906 122.237 871.906 Q116.426 871.906 113.348 867.323 Q110.292 862.716 110.292 853.989 Q110.292 845.239 113.348 840.656 Q116.426 836.05 122.237 836.05 Z" fill="#000000" fill-rule="evenodd" fill-opacity="1" /><path clip-path="url(#clip100)" d="M142.399 865.355 L147.283 865.355 L147.283 871.235 L142.399 871.235 L142.399 865.355 Z" fill="#000000" fill-rule="evenodd" fill-opacity="1" /><path clip-path="url(#clip100)" d="M167.468 839.753 Q163.857 839.753 162.028 843.318 Q160.223 846.86 160.223 853.989 Q160.223 861.096 162.028 864.661 Q163.857 868.202 167.468 868.202 Q171.102 868.202 172.908 864.661 Q174.736 861.096 174.736 853.989 Q174.736 846.86 172.908 843.318 Q171.102 839.753 167.468 839.753 M167.468 836.05 Q173.278 836.05 176.334 840.656 Q179.412 845.239 179.412 853.989 Q179.412 862.716 176.334 867.323 Q173.278 871.906 167.468 871.906 Q161.658 871.906 158.579 867.323 Q155.523 862.716 155.523 853.989 Q155.523 845.239 158.579 840.656 Q161.658 836.05 167.468 836.05 Z" fill="#000000" fill-rule="evenodd" fill-opacity="1" /><path clip-path="url(#clip100)" d="M187.676 836.675 L206.032 836.675 L206.032 840.61 L191.958 840.61 L191.958 849.082 Q192.977 848.735 193.995 848.573 Q195.014 848.387 196.033 848.387 Q201.82 848.387 205.199 851.559 Q208.579 854.73 208.579 860.147 Q208.579 865.725 205.107 868.827 Q201.634 871.906 195.315 871.906 Q193.139 871.906 190.871 871.536 Q188.625 871.165 186.218 870.424 L186.218 865.725 Q188.301 866.86 190.523 867.415 Q192.746 867.971 195.222 867.971 Q199.227 867.971 201.565 865.864 Q203.903 863.758 203.903 860.147 Q203.903 856.536 201.565 854.429 Q199.227 852.323 195.222 852.323 Q193.347 852.323 191.472 852.739 Q189.621 853.156 187.676 854.036 L187.676 836.675 Z" fill="#000000" fill-rule="evenodd" fill-opacity="1" /><path clip-path="url(#clip100)" d="M227.792 839.753 Q224.181 839.753 222.352 843.318 Q220.546 846.86 220.546 853.989 Q220.546 861.096 222.352 864.661 Q224.181 868.202 227.792 868.202 Q231.426 868.202 233.231 864.661 Q235.06 861.096 235.06 853.989 Q235.06 846.86 233.231 843.318 Q231.426 839.753 227.792 839.753 M227.792 836.05 Q233.602 836.05 236.657 840.656 Q239.736 845.239 239.736 853.989 Q239.736 862.716 236.657 867.323 Q233.602 871.906 227.792 871.906 Q221.981 871.906 218.903 867.323 Q215.847 862.716 215.847 853.989 Q215.847 845.239 218.903 840.656 Q221.981 836.05 227.792 836.05 Z" fill="#000000" fill-rule="evenodd" fill-opacity="1" /><path clip-path="url(#clip100)" d="M123.232 563.897 Q119.621 563.897 117.792 567.462 Q115.987 571.004 115.987 578.133 Q115.987 585.24 117.792 588.804 Q119.621 592.346 123.232 592.346 Q126.866 592.346 128.672 588.804 Q130.5 585.24 130.5 578.133 Q130.5 571.004 128.672 567.462 Q126.866 563.897 123.232 563.897 M123.232 560.193 Q129.042 560.193 132.098 564.8 Q135.176 569.383 135.176 578.133 Q135.176 586.86 132.098 591.466 Q129.042 596.05 123.232 596.05 Q117.422 596.05 114.343 591.466 Q111.288 586.86 111.288 578.133 Q111.288 569.383 114.343 564.8 Q117.422 560.193 123.232 560.193 Z" fill="#000000" fill-rule="evenodd" fill-opacity="1" /><path clip-path="url(#clip100)" d="M143.394 589.499 L148.278 589.499 L148.278 595.378 L143.394 595.378 L143.394 589.499 Z" fill="#000000" fill-rule="evenodd" fill-opacity="1" /><path clip-path="url(#clip100)" d="M168.463 563.897 Q164.852 563.897 163.023 567.462 Q161.218 571.004 161.218 578.133 Q161.218 585.24 163.023 588.804 Q164.852 592.346 168.463 592.346 Q172.097 592.346 173.903 588.804 Q175.732 585.24 175.732 578.133 Q175.732 571.004 173.903 567.462 Q172.097 563.897 168.463 563.897 M168.463 560.193 Q174.273 560.193 177.329 564.8 Q180.408 569.383 180.408 578.133 Q180.408 586.86 177.329 591.466 Q174.273 596.05 168.463 596.05 Q162.653 596.05 159.574 591.466 Q156.519 586.86 156.519 578.133 Q156.519 569.383 159.574 564.8 Q162.653 560.193 168.463 560.193 Z" fill="#000000" fill-rule="evenodd" fill-opacity="1" /><path clip-path="url(#clip100)" d="M187.445 560.818 L209.667 560.818 L209.667 562.809 L197.12 595.378 L192.236 595.378 L204.042 564.754 L187.445 564.754 L187.445 560.818 Z" fill="#000000" fill-rule="evenodd" fill-opacity="1" /><path clip-path="url(#clip100)" d="M218.833 560.818 L237.19 560.818 L237.19 564.754 L223.116 564.754 L223.116 573.226 Q224.134 572.879 225.153 572.717 Q226.171 572.531 227.19 572.531 Q232.977 572.531 236.356 575.703 Q239.736 578.874 239.736 584.291 Q239.736 589.869 236.264 592.971 Q232.792 596.05 226.472 596.05 Q224.296 596.05 222.028 595.679 Q219.782 595.309 217.375 594.568 L217.375 589.869 Q219.458 591.003 221.681 591.559 Q223.903 592.115 226.38 592.115 Q230.384 592.115 232.722 590.008 Q235.06 587.902 235.06 584.291 Q235.06 580.679 232.722 578.573 Q230.384 576.466 226.38 576.466 Q224.505 576.466 222.63 576.883 Q220.778 577.3 218.833 578.179 L218.833 560.818 Z" fill="#000000" fill-rule="evenodd" fill-opacity="1" /><path clip-path="url(#clip100)" d="M122.237 288.041 Q118.626 288.041 116.797 291.606 Q114.991 295.147 114.991 302.277 Q114.991 309.383 116.797 312.948 Q118.626 316.49 122.237 316.49 Q125.871 316.49 127.676 312.948 Q129.505 309.383 129.505 302.277 Q129.505 295.147 127.676 291.606 Q125.871 288.041 122.237 288.041 M122.237 284.337 Q128.047 284.337 131.102 288.944 Q134.181 293.527 134.181 302.277 Q134.181 311.004 131.102 315.61 Q128.047 320.194 122.237 320.194 Q116.426 320.194 113.348 315.61 Q110.292 311.004 110.292 302.277 Q110.292 293.527 113.348 288.944 Q116.426 284.337 122.237 284.337 Z" fill="#000000" fill-rule="evenodd" fill-opacity="1" /><path clip-path="url(#clip100)" d="M142.399 313.643 L147.283 313.643 L147.283 319.522 L142.399 319.522 L142.399 313.643 Z" fill="#000000" fill-rule="evenodd" fill-opacity="1" /><path clip-path="url(#clip100)" d="M158.278 315.587 L165.917 315.587 L165.917 289.222 L157.607 290.888 L157.607 286.629 L165.871 284.962 L170.547 284.962 L170.547 315.587 L178.185 315.587 L178.185 319.522 L158.278 319.522 L158.278 315.587 Z" fill="#000000" fill-rule="evenodd" fill-opacity="1" /><path clip-path="url(#clip100)" d="M197.63 288.041 Q194.019 288.041 192.19 291.606 Q190.384 295.147 190.384 302.277 Q190.384 309.383 192.19 312.948 Q194.019 316.49 197.63 316.49 Q201.264 316.49 203.07 312.948 Q204.898 309.383 204.898 302.277 Q204.898 295.147 203.07 291.606 Q201.264 288.041 197.63 288.041 M197.63 284.337 Q203.44 284.337 206.495 288.944 Q209.574 293.527 209.574 302.277 Q209.574 311.004 206.495 315.61 Q203.44 320.194 197.63 320.194 Q191.82 320.194 188.741 315.61 Q185.685 311.004 185.685 302.277 Q185.685 293.527 188.741 288.944 Q191.82 284.337 197.63 284.337 Z" fill="#000000" fill-rule="evenodd" fill-opacity="1" /><path clip-path="url(#clip100)" d="M227.792 288.041 Q224.181 288.041 222.352 291.606 Q220.546 295.147 220.546 302.277 Q220.546 309.383 222.352 312.948 Q224.181 316.49 227.792 316.49 Q231.426 316.49 233.231 312.948 Q235.06 309.383 235.06 302.277 Q235.06 295.147 233.231 291.606 Q231.426 288.041 227.792 288.041 M227.792 284.337 Q233.602 284.337 236.657 288.944 Q239.736 293.527 239.736 302.277 Q239.736 311.004 236.657 315.61 Q233.602 320.194 227.792 320.194 Q221.981 320.194 218.903 315.61 Q215.847 311.004 215.847 302.277 Q215.847 293.527 218.903 288.944 Q221.981 284.337 227.792 284.337 Z" fill="#000000" fill-rule="evenodd" fill-opacity="1" /><path clip-path="url(#clip100)" d="M29.3925 803.754 Q32.9996 803.754 36.3168 806.427 Q39.634 809.068 41.663 813.383 Q43.6597 817.667 43.6597 822.272 L43.6597 833.48 L60.1491 837.57 Q60.2458 837.602 60.6644 837.699 Q61.0509 837.795 61.2763 837.795 Q62.0815 837.795 62.2747 836.797 Q62.468 835.766 62.468 833.48 Q62.468 831.998 62.7256 831.773 Q62.8866 831.644 63.1765 831.644 Q63.6274 831.644 63.9494 831.773 Q64.2393 831.902 64.3359 832.159 Q64.4325 832.385 64.4647 832.546 Q64.4969 832.707 64.4969 832.964 Q64.4969 833.641 64.4325 835.09 Q64.3681 836.507 64.3681 837.248 L64.3037 841.467 L64.4969 849.84 Q64.4969 850.839 63.6918 850.839 Q63.0799 850.839 62.8222 850.581 Q62.5324 850.323 62.5002 850.034 Q62.468 849.744 62.468 849.003 Q62.468 847.393 62.3713 846.426 Q62.2747 845.46 62.1459 844.848 Q61.9849 844.204 61.534 843.882 Q61.0831 843.528 60.6966 843.367 Q60.278 843.206 59.344 842.98 L23.9175 834.156 Q22.8547 833.898 22.6937 833.898 Q22.1462 833.898 21.953 834.22 Q21.7275 834.51 21.6309 835.348 Q21.5021 836.958 21.5021 838.182 Q21.5021 838.987 21.4699 839.309 Q21.4377 839.599 21.2767 839.856 Q21.0834 840.082 20.697 840.082 Q20.085 840.082 19.8274 839.824 Q19.5375 839.534 19.5053 839.212 Q19.4409 838.89 19.4409 838.117 L19.4409 816.733 Q19.4409 810.581 22.3717 807.168 Q25.3024 803.754 29.3925 803.754 M27.8145 809.873 Q21.5021 809.873 21.5021 818.858 L21.5021 825.171 Q21.5021 827.264 21.8886 827.779 Q22.2428 828.295 24.0142 828.745 L41.9528 833.222 L41.9528 823.915 Q41.9528 817.667 38.4424 813.77 Q36.8321 811.998 33.4827 810.936 Q30.1333 809.873 27.8145 809.873 Z" fill="#000000" fill-rule="evenodd" fill-opacity="1" /><path clip-path="url(#clip100)" d="M48.0075 796.516 Q36.8643 796.516 27.8789 792.361 Q24.1108 790.59 20.9546 788.11 Q17.7984 785.63 16.4136 783.988 Q15.0287 782.345 15.0287 781.895 Q15.0287 781.25 15.6728 781.218 Q15.9949 781.218 16.8 782.088 Q27.6212 792.716 48.0075 792.684 Q68.4582 792.684 78.8607 782.345 Q79.9879 781.218 80.3422 781.218 Q80.9863 781.218 80.9863 781.895 Q80.9863 782.345 79.6659 783.924 Q78.3454 785.502 75.3181 787.949 Q72.2907 790.397 68.5871 792.168 Q59.6016 796.516 48.0075 796.516 Z" fill="#000000" fill-rule="evenodd" fill-opacity="1" /><path clip-path="url(#clip100)" d="M45.8819 745.704 Q50.584 745.704 55.125 748.088 Q59.666 750.439 62.468 754.142 Q65.2377 757.846 65.2377 761.614 Q65.2377 763.868 64.0138 765.382 Q62.7578 766.864 60.9865 767.669 Q63.1765 768.281 68.426 769.601 Q73.6756 770.922 74.1909 770.922 Q74.4807 770.922 74.6096 770.857 Q74.7384 770.793 74.8994 770.503 Q75.0927 770.213 75.1571 769.505 Q75.2537 768.796 75.2537 767.604 Q75.2537 766.992 75.2537 766.767 Q75.2859 766.509 75.4469 766.284 Q75.608 766.026 75.9622 766.026 Q77.2827 766.026 77.2827 767.218 Q77.2827 768.281 77.186 770.471 Q77.0894 772.661 77.0894 773.756 Q77.0894 774.69 77.186 776.558 Q77.2827 778.426 77.2827 779.295 Q77.2827 780.165 76.5097 780.165 Q76.0588 780.165 75.769 780.036 Q75.5113 779.939 75.3825 779.682 Q75.2859 779.424 75.2537 779.198 Q75.2537 779.005 75.2537 778.619 Q75.2537 777.137 74.996 776.493 Q74.7706 775.849 74.2875 775.624 Q73.8366 775.366 72.5484 775.076 L43.1766 767.669 Q41.2121 767.218 39.8272 767.218 Q38.0881 767.218 37.444 767.765 Q36.7999 768.313 36.7999 769.279 Q36.7999 770.954 38.7967 772.049 Q40.7934 773.144 44.6581 774.078 Q45.7209 774.368 45.9464 774.561 Q46.1718 774.722 46.1718 775.205 Q46.1396 776.01 45.4955 776.01 Q45.3344 776.01 44.3039 775.752 Q43.2411 775.495 41.6952 775.012 Q40.1171 774.496 39.1187 773.949 Q38.4424 773.627 37.9915 773.337 Q37.5406 773.047 36.8321 772.467 Q36.1236 771.856 35.7371 770.986 Q35.3506 770.116 35.3506 769.054 Q35.3506 766.992 36.5744 765.286 Q37.7983 763.579 40.2781 763.128 Q38.1203 761.292 36.7355 759.038 Q35.3506 756.783 35.3506 754.497 Q35.3506 750.696 38.3136 748.216 Q41.2443 745.704 45.8819 745.704 M42.9834 750.471 Q40.0527 750.471 38.4424 751.598 Q36.7999 752.693 36.7999 754.69 Q36.7999 757.17 39.3119 760.036 Q41.6952 762.87 43.9174 763.45 L56.8319 766.703 L57.8947 766.896 Q58.088 766.896 58.6677 766.799 Q59.2152 766.67 60.1169 766.316 Q61.0187 765.93 61.8238 765.414 Q62.5968 764.867 63.1765 763.901 Q63.7562 762.902 63.7562 761.678 Q63.7562 759.714 62.0171 757.588 Q60.278 755.431 56.993 753.82 Q54.8674 752.822 50.2941 751.662 Q45.6887 750.471 42.9834 750.471 Z" fill="#000000" fill-rule="evenodd" fill-opacity="1" /><path clip-path="url(#clip100)" d="M80.3422 740.973 Q80.0202 740.973 79.215 740.136 Q68.3938 729.508 48.0075 729.508 Q27.5568 729.508 17.2187 739.717 Q16.0271 740.973 15.6728 740.973 Q15.0287 740.973 15.0287 740.329 Q15.0287 739.878 16.3492 738.3 Q17.6696 736.69 20.697 734.274 Q23.7243 731.827 27.428 730.023 Q36.4134 725.675 48.0075 725.675 Q59.1508 725.675 68.1362 729.83 Q71.9043 731.601 75.0605 734.081 Q78.2166 736.561 79.6015 738.203 Q80.9863 739.846 80.9863 740.329 Q80.9863 740.973 80.3422 740.973 Z" fill="#000000" fill-rule="evenodd" fill-opacity="1" /><path clip-path="url(#clip100)" d="M335.365 18.8205 L335.365 41.5461 L345.654 41.5461 Q351.366 41.5461 354.485 38.5889 Q357.605 35.6318 357.605 30.163 Q357.605 24.7348 354.485 21.7777 Q351.366 18.8205 345.654 18.8205 L335.365 18.8205 M327.182 12.096 L345.654 12.096 Q355.822 12.096 361.007 16.714 Q366.233 21.2916 366.233 30.163 Q366.233 39.1155 361.007 43.6931 Q355.822 48.2706 345.654 48.2706 L335.365 48.2706 L335.365 72.576 L327.182 72.576 L327.182 12.096 Z" fill="#000000" fill-rule="evenodd" fill-opacity="1" /><path clip-path="url(#clip100)" d="M401.719 34.1734 Q400.463 33.4443 398.964 33.1202 Q397.506 32.7556 395.724 32.7556 Q389.404 32.7556 386.002 36.8875 Q382.639 40.9789 382.639 48.6757 L382.639 72.576 L375.145 72.576 L375.145 27.2059 L382.639 27.2059 L382.639 34.2544 Q384.989 30.1225 388.756 28.1376 Q392.523 26.1121 397.911 26.1121 Q398.681 26.1121 399.613 26.2337 Q400.544 26.3147 401.679 26.5172 L401.719 34.1734 Z" fill="#000000" fill-rule="evenodd" fill-opacity="1" /><path clip-path="url(#clip100)" d="M425.295 32.4315 Q419.3 32.4315 415.816 37.1306 Q412.332 41.7891 412.332 49.9314 Q412.332 58.0738 415.776 62.7728 Q419.259 67.4314 425.295 67.4314 Q431.25 67.4314 434.734 62.7323 Q438.218 58.0333 438.218 49.9314 Q438.218 41.8701 434.734 37.1711 Q431.25 32.4315 425.295 32.4315 M425.295 26.1121 Q435.017 26.1121 440.567 32.4315 Q446.117 38.7509 446.117 49.9314 Q446.117 61.0714 440.567 67.4314 Q435.017 73.7508 425.295 73.7508 Q415.533 73.7508 409.983 67.4314 Q404.474 61.0714 404.474 49.9314 Q404.474 38.7509 409.983 32.4315 Q415.533 26.1121 425.295 26.1121 Z" fill="#000000" fill-rule="evenodd" fill-opacity="1" /><path clip-path="url(#clip100)" d="M465.845 14.324 L465.845 27.2059 L481.198 27.2059 L481.198 32.9987 L465.845 32.9987 L465.845 57.6282 Q465.845 63.1779 467.344 64.7578 Q468.883 66.3376 473.542 66.3376 L481.198 66.3376 L481.198 72.576 L473.542 72.576 Q464.913 72.576 461.632 69.3758 Q458.351 66.1351 458.351 57.6282 L458.351 32.9987 L452.882 32.9987 L452.882 27.2059 L458.351 27.2059 L458.351 14.324 L465.845 14.324 Z" fill="#000000" fill-rule="evenodd" fill-opacity="1" /><path clip-path="url(#clip100)" d="M529.809 48.0275 L529.809 51.6733 L495.538 51.6733 Q496.024 59.3701 500.156 63.421 Q504.328 67.4314 511.742 67.4314 Q516.036 67.4314 520.046 66.3781 Q524.097 65.3249 528.067 63.2184 L528.067 70.267 Q524.056 71.9684 519.843 72.8596 Q515.63 73.7508 511.296 73.7508 Q500.44 73.7508 494.08 67.4314 Q487.76 61.1119 487.76 50.3365 Q487.76 39.1965 493.756 32.6746 Q499.791 26.1121 510 26.1121 Q519.155 26.1121 524.461 32.0264 Q529.809 37.9003 529.809 48.0275 M522.355 45.84 Q522.274 39.7232 518.912 36.0774 Q515.59 32.4315 510.081 32.4315 Q503.842 32.4315 500.075 35.9558 Q496.348 39.4801 495.781 45.8805 L522.355 45.84 Z" fill="#000000" fill-rule="evenodd" fill-opacity="1" /><path clip-path="url(#clip100)" d="M542.042 27.2059 L549.496 27.2059 L549.496 72.576 L542.042 72.576 L542.042 27.2059 M542.042 9.54393 L549.496 9.54393 L549.496 18.9825 L542.042 18.9825 L542.042 9.54393 Z" fill="#000000" fill-rule="evenodd" fill-opacity="1" /><path clip-path="url(#clip100)" d="M602.806 45.1919 L602.806 72.576 L595.352 72.576 L595.352 45.4349 Q595.352 38.994 592.841 35.7938 Q590.329 32.5936 585.306 32.5936 Q579.27 32.5936 575.786 36.4419 Q572.303 40.2903 572.303 46.9338 L572.303 72.576 L564.808 72.576 L564.808 27.2059 L572.303 27.2059 L572.303 34.2544 Q574.976 30.163 578.581 28.1376 Q582.227 26.1121 586.967 26.1121 Q594.785 26.1121 598.795 30.9732 Q602.806 35.7938 602.806 45.1919 Z" fill="#000000" fill-rule="evenodd" fill-opacity="1" /><path clip-path="url(#clip100)" d="M689.657 16.7545 L689.657 25.383 Q685.525 21.5346 680.826 19.6307 Q676.168 17.7268 670.902 17.7268 Q660.531 17.7268 655.022 24.0867 Q649.513 30.4061 649.513 42.3968 Q649.513 54.3469 655.022 60.7069 Q660.531 67.0263 670.902 67.0263 Q676.168 67.0263 680.826 65.1223 Q685.525 63.2184 689.657 59.3701 L689.657 67.9175 Q685.363 70.8341 680.543 72.2924 Q675.763 73.7508 670.415 73.7508 Q656.683 73.7508 648.784 65.3654 Q640.884 56.9395 640.884 42.3968 Q640.884 27.8135 648.784 19.4281 Q656.683 11.0023 670.415 11.0023 Q675.844 11.0023 680.624 12.4606 Q685.444 13.8784 689.657 16.7545 Z" fill="#000000" fill-rule="evenodd" fill-opacity="1" /><path clip-path="url(#clip100)" d="M719.553 32.4315 Q713.558 32.4315 710.074 37.1306 Q706.59 41.7891 706.59 49.9314 Q706.59 58.0738 710.033 62.7728 Q713.517 67.4314 719.553 67.4314 Q725.508 67.4314 728.992 62.7323 Q732.475 58.0333 732.475 49.9314 Q732.475 41.8701 728.992 37.1711 Q725.508 32.4315 719.553 32.4315 M719.553 26.1121 Q729.275 26.1121 734.825 32.4315 Q740.375 38.7509 740.375 49.9314 Q740.375 61.0714 734.825 67.4314 Q729.275 73.7508 719.553 73.7508 Q709.79 73.7508 704.241 67.4314 Q698.731 61.0714 698.731 49.9314 Q698.731 38.7509 704.241 32.4315 Q709.79 26.1121 719.553 26.1121 Z" fill="#000000" fill-rule="evenodd" fill-opacity="1" /><path clip-path="url(#clip100)" d="M759.94 65.7705 L759.94 89.8329 L752.446 89.8329 L752.446 27.2059 L759.94 27.2059 L759.94 34.0924 Q762.29 30.0415 765.855 28.0971 Q769.46 26.1121 774.443 26.1121 Q782.707 26.1121 787.851 32.6746 Q793.036 39.2371 793.036 49.9314 Q793.036 60.6258 787.851 67.1883 Q782.707 73.7508 774.443 73.7508 Q769.46 73.7508 765.855 71.8063 Q762.29 69.8214 759.94 65.7705 M785.299 49.9314 Q785.299 41.7081 781.896 37.0496 Q778.534 32.3505 772.62 32.3505 Q766.705 32.3505 763.303 37.0496 Q759.94 41.7081 759.94 49.9314 Q759.94 58.1548 763.303 62.8538 Q766.705 67.5124 772.62 67.5124 Q778.534 67.5124 781.896 62.8538 Q785.299 58.1548 785.299 49.9314 Z" fill="#000000" fill-rule="evenodd" fill-opacity="1" /><path clip-path="url(#clip100)" d="M824.269 76.7889 Q821.109 84.8907 818.111 87.3618 Q815.114 89.8329 810.091 89.8329 L804.136 89.8329 L804.136 83.5945 L808.511 83.5945 Q811.589 83.5945 813.291 82.1361 Q814.992 80.6778 817.058 75.2496 L818.395 71.8468 L800.044 27.2059 L807.944 27.2059 L822.122 62.6918 L836.3 27.2059 L844.199 27.2059 L824.269 76.7889 Z" fill="#000000" fill-rule="evenodd" fill-opacity="1" /><path clip-path="url(#clip100)" d="M881.184 12.096 L892.202 12.096 L919.019 62.6918 L919.019 12.096 L926.959 12.096 L926.959 72.576 L915.941 72.576 L889.124 21.9802 L889.124 72.576 L881.184 72.576 L881.184 12.096 Z" fill="#000000" fill-rule="evenodd" fill-opacity="1" /><path clip-path="url(#clip100)" d="M942.15 54.671 L942.15 27.2059 L949.604 27.2059 L949.604 54.3874 Q949.604 60.8284 952.115 64.0691 Q954.627 67.2693 959.65 67.2693 Q965.686 67.2693 969.17 63.421 Q972.694 59.5726 972.694 52.9291 L972.694 27.2059 L980.148 27.2059 L980.148 72.576 L972.694 72.576 L972.694 65.6084 Q969.98 69.7404 966.375 71.7658 Q962.81 73.7508 958.07 73.7508 Q950.252 73.7508 946.201 68.8897 Q942.15 64.0286 942.15 54.671 M960.906 26.1121 L960.906 26.1121 Z" fill="#000000" fill-rule="evenodd" fill-opacity="1" /><path clip-path="url(#clip100)" d="M1030.82 35.9153 Q1033.62 30.8922 1037.51 28.5022 Q1041.4 26.1121 1046.66 26.1121 Q1053.75 26.1121 1057.6 31.0947 Q1061.45 36.0368 1061.45 45.1919 L1061.45 72.576 L1053.96 72.576 L1053.96 45.4349 Q1053.96 38.913 1051.65 35.7533 Q1049.34 32.5936 1044.6 32.5936 Q1038.8 32.5936 1035.44 36.4419 Q1032.08 40.2903 1032.08 46.9338 L1032.08 72.576 L1024.59 72.576 L1024.59 45.4349 Q1024.59 38.8725 1022.28 35.7533 Q1019.97 32.5936 1015.15 32.5936 Q1009.44 32.5936 1006.07 36.4824 Q1002.71 40.3308 1002.71 46.9338 L1002.71 72.576 L995.217 72.576 L995.217 27.2059 L1002.71 27.2059 L1002.71 34.2544 Q1005.26 30.082 1008.83 28.0971 Q1012.39 26.1121 1017.29 26.1121 Q1022.24 26.1121 1025.68 28.6237 Q1029.16 31.1352 1030.82 35.9153 Z" fill="#000000" fill-rule="evenodd" fill-opacity="1" /><path clip-path="url(#clip100)" d="M1108.89 49.9314 Q1108.89 41.7081 1105.48 37.0496 Q1102.12 32.3505 1096.21 32.3505 Q1090.29 32.3505 1086.89 37.0496 Q1083.53 41.7081 1083.53 49.9314 Q1083.53 58.1548 1086.89 62.8538 Q1090.29 67.5124 1096.21 67.5124 Q1102.12 67.5124 1105.48 62.8538 Q1108.89 58.1548 1108.89 49.9314 M1083.53 34.0924 Q1085.88 30.0415 1089.44 28.0971 Q1093.05 26.1121 1098.03 26.1121 Q1106.29 26.1121 1111.44 32.6746 Q1116.62 39.2371 1116.62 49.9314 Q1116.62 60.6258 1111.44 67.1883 Q1106.29 73.7508 1098.03 73.7508 Q1093.05 73.7508 1089.44 71.8063 Q1085.88 69.8214 1083.53 65.7705 L1083.53 72.576 L1076.03 72.576 L1076.03 9.54393 L1083.53 9.54393 L1083.53 34.0924 Z" fill="#000000" fill-rule="evenodd" fill-opacity="1" /><path clip-path="url(#clip100)" d="M1167.79 48.0275 L1167.79 51.6733 L1133.51 51.6733 Q1134 59.3701 1138.13 63.421 Q1142.31 67.4314 1149.72 67.4314 Q1154.01 67.4314 1158.02 66.3781 Q1162.07 65.3249 1166.04 63.2184 L1166.04 70.267 Q1162.03 71.9684 1157.82 72.8596 Q1153.61 73.7508 1149.27 73.7508 Q1138.42 73.7508 1132.06 67.4314 Q1125.74 61.1119 1125.74 50.3365 Q1125.74 39.1965 1131.73 32.6746 Q1137.77 26.1121 1147.98 26.1121 Q1157.13 26.1121 1162.44 32.0264 Q1167.79 37.9003 1167.79 48.0275 M1160.33 45.84 Q1160.25 39.7232 1156.89 36.0774 Q1153.57 32.4315 1148.06 32.4315 Q1141.82 32.4315 1138.05 35.9558 Q1134.33 39.4801 1133.76 45.8805 L1160.33 45.84 Z" fill="#000000" fill-rule="evenodd" fill-opacity="1" /><path clip-path="url(#clip100)" d="M1206.31 34.1734 Q1205.05 33.4443 1203.55 33.1202 Q1202.1 32.7556 1200.31 32.7556 Q1193.99 32.7556 1190.59 36.8875 Q1187.23 40.9789 1187.23 48.6757 L1187.23 72.576 L1179.74 72.576 L1179.74 27.2059 L1187.23 27.2059 L1187.23 34.2544 Q1189.58 30.1225 1193.35 28.1376 Q1197.11 26.1121 1202.5 26.1121 Q1203.27 26.1121 1204.2 26.2337 Q1205.13 26.3147 1206.27 26.5172 L1206.31 34.1734 Z" fill="#000000" fill-rule="evenodd" fill-opacity="1" /><path clip-path="url(#clip100)" d="M1263.47 9.54393 L1263.47 15.7418 L1256.34 15.7418 Q1252.33 15.7418 1250.75 17.3622 Q1249.21 18.9825 1249.21 23.1955 L1249.21 27.2059 L1261.48 27.2059 L1261.48 32.9987 L1249.21 32.9987 L1249.21 72.576 L1241.71 72.576 L1241.71 32.9987 L1234.58 32.9987 L1234.58 27.2059 L1241.71 27.2059 L1241.71 24.0462 Q1241.71 16.471 1245.24 13.0277 Q1248.76 9.54393 1256.42 9.54393 L1263.47 9.54393 Z" fill="#000000" fill-rule="evenodd" fill-opacity="1" /><path clip-path="url(#clip100)" d="M1287.29 32.4315 Q1281.29 32.4315 1277.81 37.1306 Q1274.32 41.7891 1274.32 49.9314 Q1274.32 58.0738 1277.77 62.7728 Q1281.25 67.4314 1287.29 67.4314 Q1293.24 67.4314 1296.73 62.7323 Q1300.21 58.0333 1300.21 49.9314 Q1300.21 41.8701 1296.73 37.1711 Q1293.24 32.4315 1287.29 32.4315 M1287.29 26.1121 Q1297.01 26.1121 1302.56 32.4315 Q1308.11 38.7509 1308.11 49.9314 Q1308.11 61.0714 1302.56 67.4314 Q1297.01 73.7508 1287.29 73.7508 Q1277.52 73.7508 1271.97 67.4314 Q1266.47 61.0714 1266.47 49.9314 Q1266.47 38.7509 1271.97 32.4315 Q1277.52 26.1121 1287.29 26.1121 Z" fill="#000000" fill-rule="evenodd" fill-opacity="1" /><path clip-path="url(#clip100)" d="M1346.75 34.1734 Q1345.5 33.4443 1344 33.1202 Q1342.54 32.7556 1340.76 32.7556 Q1334.44 32.7556 1331.04 36.8875 Q1327.67 40.9789 1327.67 48.6757 L1327.67 72.576 L1320.18 72.576 L1320.18 27.2059 L1327.67 27.2059 L1327.67 34.2544 Q1330.02 30.1225 1333.79 28.1376 Q1337.56 26.1121 1342.95 26.1121 Q1343.72 26.1121 1344.65 26.2337 Q1345.58 26.3147 1346.71 26.5172 L1346.75 34.1734 Z" fill="#000000" fill-rule="evenodd" fill-opacity="1" /><path clip-path="url(#clip100)" d="M1417.52 14.0809 L1417.52 22.0612 Q1412.87 19.8332 1408.73 18.7395 Q1404.6 17.6457 1400.75 17.6457 Q1394.07 17.6457 1390.42 20.2383 Q1386.82 22.8309 1386.82 27.611 Q1386.82 31.6214 1389.21 33.6873 Q1391.64 35.7128 1398.36 36.9686 L1403.31 37.9813 Q1412.46 39.7232 1416.79 44.1387 Q1421.17 48.5136 1421.17 55.8863 Q1421.17 64.6767 1415.26 69.2137 Q1409.38 73.7508 1398 73.7508 Q1393.7 73.7508 1388.84 72.7785 Q1384.02 71.8063 1378.84 69.9024 L1378.84 61.4765 Q1383.82 64.2716 1388.6 65.6895 Q1393.38 67.1073 1398 67.1073 Q1405.01 67.1073 1408.81 64.3527 Q1412.62 61.598 1412.62 56.4939 Q1412.62 52.0379 1409.87 49.5264 Q1407.15 47.0148 1400.92 45.759 L1395.93 44.7868 Q1386.78 42.9639 1382.69 39.075 Q1378.59 35.1862 1378.59 28.2591 Q1378.59 20.2383 1384.23 15.6203 Q1389.9 11.0023 1399.82 11.0023 Q1404.07 11.0023 1408.49 11.7719 Q1412.91 12.5416 1417.52 14.0809 Z" fill="#000000" fill-rule="evenodd" fill-opacity="1" /><path clip-path="url(#clip100)" d="M1452.48 76.7889 Q1449.32 84.8907 1446.33 87.3618 Q1443.33 89.8329 1438.3 89.8329 L1432.35 89.8329 L1432.35 83.5945 L1436.73 83.5945 Q1439.8 83.5945 1441.51 82.1361 Q1443.21 80.6778 1445.27 75.2496 L1446.61 71.8468 L1428.26 27.2059 L1436.16 27.2059 L1450.34 62.6918 L1464.51 27.2059 L1472.41 27.2059 L1452.48 76.7889 Z" fill="#000000" fill-rule="evenodd" fill-opacity="1" /><path clip-path="url(#clip100)" d="M1511.63 28.5427 L1511.63 35.5912 Q1508.47 33.9709 1505.06 33.1607 Q1501.66 32.3505 1498.02 32.3505 Q1492.47 32.3505 1489.67 34.0519 Q1486.92 35.7533 1486.92 39.156 Q1486.92 41.7486 1488.9 43.2475 Q1490.89 44.7058 1496.88 46.0426 L1499.43 46.6097 Q1507.37 48.3111 1510.69 51.4303 Q1514.06 54.509 1514.06 60.0587 Q1514.06 66.3781 1509.03 70.0644 Q1504.05 73.7508 1495.3 73.7508 Q1491.66 73.7508 1487.69 73.0216 Q1483.76 72.3329 1479.38 70.9151 L1479.38 63.2184 Q1483.51 65.3654 1487.52 66.4591 Q1491.53 67.5124 1495.46 67.5124 Q1500.73 67.5124 1503.56 65.73 Q1506.4 63.9071 1506.4 60.6258 Q1506.4 57.5877 1504.33 55.9673 Q1502.31 54.3469 1495.38 52.8481 L1492.79 52.2405 Q1485.86 50.7821 1482.78 47.7845 Q1479.71 44.7463 1479.71 39.4801 Q1479.71 33.0797 1484.24 29.5959 Q1488.78 26.1121 1497.12 26.1121 Q1501.26 26.1121 1504.9 26.7198 Q1508.55 27.3274 1511.63 28.5427 Z" fill="#000000" fill-rule="evenodd" fill-opacity="1" /><path clip-path="url(#clip100)" d="M1533.3 14.324 L1533.3 27.2059 L1548.65 27.2059 L1548.65 32.9987 L1533.3 32.9987 L1533.3 57.6282 Q1533.3 63.1779 1534.8 64.7578 Q1536.34 66.3376 1541 66.3376 L1548.65 66.3376 L1548.65 72.576 L1541 72.576 Q1532.37 72.576 1529.09 69.3758 Q1525.8 66.1351 1525.8 57.6282 L1525.8 32.9987 L1520.34 32.9987 L1520.34 27.2059 L1525.8 27.2059 L1525.8 14.324 L1533.3 14.324 Z" fill="#000000" fill-rule="evenodd" fill-opacity="1" /><path clip-path="url(#clip100)" d="M1597.26 48.0275 L1597.26 51.6733 L1562.99 51.6733 Q1563.48 59.3701 1567.61 63.421 Q1571.78 67.4314 1579.2 67.4314 Q1583.49 67.4314 1587.5 66.3781 Q1591.55 65.3249 1595.52 63.2184 L1595.52 70.267 Q1591.51 71.9684 1587.3 72.8596 Q1583.08 73.7508 1578.75 73.7508 Q1567.89 73.7508 1561.53 67.4314 Q1555.21 61.1119 1555.21 50.3365 Q1555.21 39.1965 1561.21 32.6746 Q1567.25 26.1121 1577.45 26.1121 Q1586.61 26.1121 1591.92 32.0264 Q1597.26 37.9003 1597.26 48.0275 M1589.81 45.84 Q1589.73 39.7232 1586.37 36.0774 Q1583.04 32.4315 1577.53 32.4315 Q1571.3 32.4315 1567.53 35.9558 Q1563.8 39.4801 1563.23 45.8805 L1589.81 45.84 Z" fill="#000000" fill-rule="evenodd" fill-opacity="1" /><path clip-path="url(#clip100)" d="M1644.82 35.9153 Q1647.62 30.8922 1651.5 28.5022 Q1655.39 26.1121 1660.66 26.1121 Q1667.75 26.1121 1671.6 31.0947 Q1675.44 36.0368 1675.44 45.1919 L1675.44 72.576 L1667.95 72.576 L1667.95 45.4349 Q1667.95 38.913 1665.64 35.7533 Q1663.33 32.5936 1658.59 32.5936 Q1652.8 32.5936 1649.44 36.4419 Q1646.08 40.2903 1646.08 46.9338 L1646.08 72.576 L1638.58 72.576 L1638.58 45.4349 Q1638.58 38.8725 1636.27 35.7533 Q1633.96 32.5936 1629.14 32.5936 Q1623.43 32.5936 1620.07 36.4824 Q1616.71 40.3308 1616.71 46.9338 L1616.71 72.576 L1609.21 72.576 L1609.21 27.2059 L1616.71 27.2059 L1616.71 34.2544 Q1619.26 30.082 1622.82 28.0971 Q1626.39 26.1121 1631.29 26.1121 Q1636.23 26.1121 1639.68 28.6237 Q1643.16 31.1352 1644.82 35.9153 Z" fill="#000000" fill-rule="evenodd" fill-opacity="1" /><path clip-path="url(#clip100)" d="M1712.35 27.2059 L1719.8 27.2059 L1729.12 62.6108 L1738.4 27.2059 L1747.19 27.2059 L1756.5 62.6108 L1765.78 27.2059 L1773.23 27.2059 L1761.36 72.576 L1752.57 72.576 L1742.81 35.3887 L1733.01 72.576 L1724.22 72.576 L1712.35 27.2059 Z" fill="#000000" fill-rule="evenodd" fill-opacity="1" /><path clip-path="url(#clip100)" d="M1784.54 27.2059 L1791.99 27.2059 L1791.99 72.576 L1784.54 72.576 L1784.54 27.2059 M1784.54 9.54393 L1791.99 9.54393 L1791.99 18.9825 L1784.54 18.9825 L1784.54 9.54393 Z" fill="#000000" fill-rule="evenodd" fill-opacity="1" /><path clip-path="url(#clip100)" d="M1814.96 14.324 L1814.96 27.2059 L1830.31 27.2059 L1830.31 32.9987 L1814.96 32.9987 L1814.96 57.6282 Q1814.96 63.1779 1816.46 64.7578 Q1818 66.3376 1822.65 66.3376 L1830.31 66.3376 L1830.31 72.576 L1822.65 72.576 Q1814.03 72.576 1810.75 69.3758 Q1807.46 66.1351 1807.46 57.6282 L1807.46 32.9987 L1802 32.9987 L1802 27.2059 L1807.46 27.2059 L1807.46 14.324 L1814.96 14.324 Z" fill="#000000" fill-rule="evenodd" fill-opacity="1" /><path clip-path="url(#clip100)" d="M1877.83 45.1919 L1877.83 72.576 L1870.37 72.576 L1870.37 45.4349 Q1870.37 38.994 1867.86 35.7938 Q1865.35 32.5936 1860.33 32.5936 Q1854.29 32.5936 1850.81 36.4419 Q1847.32 40.2903 1847.32 46.9338 L1847.32 72.576 L1839.83 72.576 L1839.83 9.54393 L1847.32 9.54393 L1847.32 34.2544 Q1850 30.163 1853.6 28.1376 Q1857.25 26.1121 1861.99 26.1121 Q1869.81 26.1121 1873.82 30.9732 Q1877.83 35.7938 1877.83 45.1919 Z" fill="#000000" fill-rule="evenodd" fill-opacity="1" /><path clip-path="url(#clip100)" d="M1920.2 12.096 L1952.32 12.096 L1952.32 18.9825 L1927.69 18.9825 L1927.69 33.8088 Q1929.48 33.2012 1931.26 32.9176 Q1933.04 32.5936 1934.82 32.5936 Q1944.95 32.5936 1950.87 38.1433 Q1956.78 43.6931 1956.78 53.1722 Q1956.78 62.9348 1950.7 68.3631 Q1944.63 73.7508 1933.57 73.7508 Q1929.76 73.7508 1925.79 73.1026 Q1921.86 72.4545 1917.65 71.1582 L1917.65 62.9348 Q1921.29 64.9198 1925.18 65.892 Q1929.07 66.8642 1933.41 66.8642 Q1940.41 66.8642 1944.51 63.1779 Q1948.6 59.4916 1948.6 53.1722 Q1948.6 46.8528 1944.51 43.1664 Q1940.41 39.4801 1933.41 39.4801 Q1930.13 39.4801 1926.84 40.2093 Q1923.6 40.9384 1920.2 42.4778 L1920.2 12.096 Z" fill="#000000" fill-rule="evenodd" fill-opacity="1" /><path clip-path="url(#clip100)" d="M1990.4 17.4837 Q1984.08 17.4837 1980.88 23.7221 Q1977.72 29.92 1977.72 42.3968 Q1977.72 54.833 1980.88 61.0714 Q1984.08 67.2693 1990.4 67.2693 Q1996.76 67.2693 1999.92 61.0714 Q2003.12 54.833 2003.12 42.3968 Q2003.12 29.92 1999.92 23.7221 Q1996.76 17.4837 1990.4 17.4837 M1990.4 11.0023 Q2000.57 11.0023 2005.92 19.0636 Q2011.31 27.0843 2011.31 42.3968 Q2011.31 57.6687 2005.92 65.73 Q2000.57 73.7508 1990.4 73.7508 Q1980.23 73.7508 1974.85 65.73 Q1969.5 57.6687 1969.5 42.3968 Q1969.5 27.0843 1974.85 19.0636 Q1980.23 11.0023 1990.4 11.0023 Z" fill="#000000" fill-rule="evenodd" fill-opacity="1" /><path clip-path="url(#clip100)" d="M2092.57 63.9476 L2092.57 47.7034 L2079.2 47.7034 L2079.2 40.9789 L2100.67 40.9789 L2100.67 66.9452 Q2095.93 70.3075 2090.22 72.0494 Q2084.51 73.7508 2078.02 73.7508 Q2063.85 73.7508 2055.82 65.4869 Q2047.84 57.1826 2047.84 42.3968 Q2047.84 27.5705 2055.82 19.3066 Q2063.85 11.0023 2078.02 11.0023 Q2083.94 11.0023 2089.24 12.4606 Q2094.59 13.9189 2099.09 16.7545 L2099.09 25.464 Q2094.55 21.6156 2089.45 19.6712 Q2084.34 17.7268 2078.71 17.7268 Q2067.61 17.7268 2062.02 23.9246 Q2056.47 30.1225 2056.47 42.3968 Q2056.47 54.6305 2062.02 60.8284 Q2067.61 67.0263 2078.71 67.0263 Q2083.05 67.0263 2086.45 66.2971 Q2089.85 65.5274 2092.57 63.9476 Z" fill="#000000" fill-rule="evenodd" fill-opacity="1" /><path clip-path="url(#clip100)" d="M2154.1 48.0275 L2154.1 51.6733 L2119.83 51.6733 Q2120.32 59.3701 2124.45 63.421 Q2128.62 67.4314 2136.03 67.4314 Q2140.33 67.4314 2144.34 66.3781 Q2148.39 65.3249 2152.36 63.2184 L2152.36 70.267 Q2148.35 71.9684 2144.13 72.8596 Q2139.92 73.7508 2135.59 73.7508 Q2124.73 73.7508 2118.37 67.4314 Q2112.05 61.1119 2112.05 50.3365 Q2112.05 39.1965 2118.05 32.6746 Q2124.08 26.1121 2134.29 26.1121 Q2143.45 26.1121 2148.75 32.0264 Q2154.1 37.9003 2154.1 48.0275 M2146.65 45.84 Q2146.56 39.7232 2143.2 36.0774 Q2139.88 32.4315 2134.37 32.4315 Q2128.13 32.4315 2124.37 35.9558 Q2120.64 39.4801 2120.07 45.8805 L2146.65 45.84 Z" fill="#000000" fill-rule="evenodd" fill-opacity="1" /><path clip-path="url(#clip100)" d="M2204.05 45.1919 L2204.05 72.576 L2196.59 72.576 L2196.59 45.4349 Q2196.59 38.994 2194.08 35.7938 Q2191.57 32.5936 2186.55 32.5936 Q2180.51 32.5936 2177.03 36.4419 Q2173.54 40.2903 2173.54 46.9338 L2173.54 72.576 L2166.05 72.576 L2166.05 27.2059 L2173.54 27.2059 L2173.54 34.2544 Q2176.22 30.163 2179.82 28.1376 Q2183.47 26.1121 2188.21 26.1121 Q2196.03 26.1121 2200.04 30.9732 Q2204.05 35.7938 2204.05 45.1919 Z" fill="#000000" fill-rule="evenodd" fill-opacity="1" /><path clip-path="url(#clip100)" d="M2257.72 48.0275 L2257.72 51.6733 L2223.45 51.6733 Q2223.94 59.3701 2228.07 63.421 Q2232.24 67.4314 2239.65 67.4314 Q2243.95 67.4314 2247.96 66.3781 Q2252.01 65.3249 2255.98 63.2184 L2255.98 70.267 Q2251.97 71.9684 2247.76 72.8596 Q2243.54 73.7508 2239.21 73.7508 Q2228.35 73.7508 2221.99 67.4314 Q2215.67 61.1119 2215.67 50.3365 Q2215.67 39.1965 2221.67 32.6746 Q2227.7 26.1121 2237.91 26.1121 Q2247.07 26.1121 2252.37 32.0264 Q2257.72 37.9003 2257.72 48.0275 M2250.27 45.84 Q2250.19 39.7232 2246.82 36.0774 Q2243.5 32.4315 2237.99 32.4315 Q2231.76 32.4315 2227.99 35.9558 Q2224.26 39.4801 2223.69 45.8805 L2250.27 45.84 Z" fill="#000000" fill-rule="evenodd" fill-opacity="1" /><path clip-path="url(#clip100)" d="M2298.88 28.5427 L2298.88 35.5912 Q2295.72 33.9709 2292.32 33.1607 Q2288.91 32.3505 2285.27 32.3505 Q2279.72 32.3505 2276.92 34.0519 Q2274.17 35.7533 2274.17 39.156 Q2274.17 41.7486 2276.15 43.2475 Q2278.14 44.7058 2284.13 46.0426 L2286.69 46.6097 Q2294.63 48.3111 2297.95 51.4303 Q2301.31 54.509 2301.31 60.0587 Q2301.31 66.3781 2296.29 70.0644 Q2291.3 73.7508 2282.55 73.7508 Q2278.91 73.7508 2274.94 73.0216 Q2271.01 72.3329 2266.63 70.9151 L2266.63 63.2184 Q2270.77 65.3654 2274.78 66.4591 Q2278.79 67.5124 2282.72 67.5124 Q2287.98 67.5124 2290.82 65.73 Q2293.65 63.9071 2293.65 60.6258 Q2293.65 57.5877 2291.59 55.9673 Q2289.56 54.3469 2282.63 52.8481 L2280.04 52.2405 Q2273.12 50.7821 2270.04 47.7845 Q2266.96 44.7463 2266.96 39.4801 Q2266.96 33.0797 2271.49 29.5959 Q2276.03 26.1121 2284.38 26.1121 Q2288.51 26.1121 2292.15 26.7198 Q2295.8 27.3274 2298.88 28.5427 Z" fill="#000000" fill-rule="evenodd" fill-opacity="1" /><polyline clip-path="url(#clip102)" style="stroke:#009fe3; stroke-linecap:butt; stroke-linejoin:round; stroke-width:20; stroke-opacity:0.996078; fill:none" points="
  334.52,1405.67 334.52,1403.26 393.897,1403.26 393.897,1390.88 453.274,1390.88 453.274,1346.98 512.652,1346.98 512.652,1251.64 572.029,1251.64 572.029,1091.93 
  631.406,1091.93 631.406,870.297 690.784,870.297 690.784,615.428 750.161,615.428 750.161,392.746 809.538,392.746 809.538,237.02 868.916,237.02 868.916,160.818 
  928.293,160.818 928.293,186.031 987.67,186.031 987.67,309.327 1047.05,309.327 1047.05,472.138 1106.43,472.138 1106.43,667.123 1165.8,667.123 1165.8,840.218 
  1225.18,840.218 1225.18,995.436 1284.56,995.436 1284.56,1120.55 1343.93,1120.55 1343.93,1214.93 1403.31,1214.93 1403.31,1284.36 1462.69,1284.36 1462.69,1328.78 
  1522.07,1328.78 1522.07,1361.35 1581.44,1361.35 1581.44,1379.1 1640.82,1379.1 1640.82,1391.54 1700.2,1391.54 1700.2,1398.55 1759.58,1398.55 1759.58,1401.41 
  1818.95,1401.41 1818.95,1403.46 1878.33,1403.46 1878.33,1404.7 1937.71,1404.7 1937.71,1404.92 1997.09,1404.92 1997.09,1405.4 2056.46,1405.4 2056.46,1405.57 
  2115.84,1405.57 2115.84,1405.59 2175.22,1405.59 2175.22,1405.63 2234.59,1405.63 2234.59,1405.66 2293.97,1405.66 2293.97,1405.67 
  "/>
<circle clip-path="url(#clip102)" cx="334.52" cy="1403.81" r="21" fill="#ff00ff" fill-rule="evenodd" fill-opacity="1" stroke="none"/>
<circle clip-path="url(#clip102)" cx="393.897" cy="1391.46" r="21" fill="#ff00ff" fill-rule="evenodd" fill-opacity="1" stroke="none"/>
<circle clip-path="url(#clip102)" cx="453.274" cy="1349.77" r="21" fill="#ff00ff" fill-rule="evenodd" fill-opacity="1" stroke="none"/>
<circle clip-path="url(#clip102)" cx="512.652" cy="1254.73" r="21" fill="#ff00ff" fill-rule="evenodd" fill-opacity="1" stroke="none"/>
<circle clip-path="url(#clip102)" cx="572.029" cy="1091.25" r="21" fill="#ff00ff" fill-rule="evenodd" fill-opacity="1" stroke="none"/>
<circle clip-path="url(#clip102)" cx="631.406" cy="867.14" r="21" fill="#ff00ff" fill-rule="evenodd" fill-opacity="1" stroke="none"/>
<circle clip-path="url(#clip102)" cx="690.784" cy="616.21" r="21" fill="#ff00ff" fill-rule="evenodd" fill-opacity="1" stroke="none"/>
<circle clip-path="url(#clip102)" cx="750.161" cy="387.545" r="21" fill="#ff00ff" fill-rule="evenodd" fill-opacity="1" stroke="none"/>
<circle clip-path="url(#clip102)" cx="809.538" cy="227.275" r="21" fill="#ff00ff" fill-rule="evenodd" fill-opacity="1" stroke="none"/>
<circle clip-path="url(#clip102)" cx="868.916" cy="162.971" r="21" fill="#ff00ff" fill-rule="evenodd" fill-opacity="1" stroke="none"/>
<circle clip-path="url(#clip102)" cx="928.293" cy="197.403" r="21" fill="#ff00ff" fill-rule="evenodd" fill-opacity="1" stroke="none"/>
<circle clip-path="url(#clip102)" cx="987.67" cy="312.22" r="21" fill="#ff00ff" fill-rule="evenodd" fill-opacity="1" stroke="none"/>
<circle clip-path="url(#clip102)" cx="1047.05" cy="477.466" r="21" fill="#ff00ff" fill-rule="evenodd" fill-opacity="1" stroke="none"/>
<circle clip-path="url(#clip102)" cx="1106.43" cy="661.8" r="21" fill="#ff00ff" fill-rule="evenodd" fill-opacity="1" stroke="none"/>
<circle clip-path="url(#clip102)" cx="1165.8" cy="839.792" r="21" fill="#ff00ff" fill-rule="evenodd" fill-opacity="1" stroke="none"/>
<circle clip-path="url(#clip102)" cx="1225.18" cy="995.148" r="21" fill="#ff00ff" fill-rule="evenodd" fill-opacity="1" stroke="none"/>
<circle clip-path="url(#clip102)" cx="1284.56" cy="1120.52" r="21" fill="#ff00ff" fill-rule="evenodd" fill-opacity="1" stroke="none"/>
<circle clip-path="url(#clip102)" cx="1343.93" cy="1215.36" r="21" fill="#ff00ff" fill-rule="evenodd" fill-opacity="1" stroke="none"/>
<circle clip-path="url(#clip102)" cx="1403.31" cy="1283.27" r="21" fill="#ff00ff" fill-rule="evenodd" fill-opacity="1" stroke="none"/>
<circle clip-path="url(#clip102)" cx="1462.69" cy="1329.59" r="21" fill="#ff00ff" fill-rule="evenodd" fill-opacity="1" stroke="none"/>
<circle clip-path="url(#clip102)" cx="1522.07" cy="1359.87" r="21" fill="#ff00ff" fill-rule="evenodd" fill-opacity="1" stroke="none"/>
<circle clip-path="url(#clip102)" cx="1581.44" cy="1378.9" r="21" fill="#ff00ff" fill-rule="evenodd" fill-opacity="1" stroke="none"/>
<circle clip-path="url(#clip102)" cx="1640.82" cy="1390.45" r="21" fill="#ff00ff" fill-rule="evenodd" fill-opacity="1" stroke="none"/>
<circle clip-path="url(#clip102)" cx="1700.2" cy="1397.24" r="21" fill="#ff00ff" fill-rule="evenodd" fill-opacity="1" stroke="none"/>
<circle clip-path="url(#clip102)" cx="1759.58" cy="1401.11" r="21" fill="#ff00ff" fill-rule="evenodd" fill-opacity="1" stroke="none"/>
<circle clip-path="url(#clip102)" cx="1818.95" cy="1403.26" r="21" fill="#ff00ff" fill-rule="evenodd" fill-opacity="1" stroke="none"/>
<circle clip-path="url(#clip102)" cx="1878.33" cy="1404.43" r="21" fill="#ff00ff" fill-rule="evenodd" fill-opacity="1" stroke="none"/>
<circle clip-path="url(#clip102)" cx="1937.71" cy="1405.04" r="21" fill="#ff00ff" fill-rule="evenodd" fill-opacity="1" stroke="none"/>
<circle clip-path="url(#clip102)" cx="1997.09" cy="1405.36" r="21" fill="#ff00ff" fill-rule="evenodd" fill-opacity="1" stroke="none"/>
<circle clip-path="url(#clip102)" cx="2056.46" cy="1405.51" r="21" fill="#ff00ff" fill-rule="evenodd" fill-opacity="1" stroke="none"/>
<circle clip-path="url(#clip102)" cx="2115.84" cy="1405.59" r="21" fill="#ff00ff" fill-rule="evenodd" fill-opacity="1" stroke="none"/>
<circle clip-path="url(#clip102)" cx="2175.22" cy="1405.63" r="21" fill="#ff00ff" fill-rule="evenodd" fill-opacity="1" stroke="none"/>
<circle clip-path="url(#clip102)" cx="2234.59" cy="1405.65" r="21" fill="#ff00ff" fill-rule="evenodd" fill-opacity="1" stroke="none"/>
<path clip-path="url(#clip100)" d="
M1606.17 322.977 L2283.52 322.977 L2283.52 167.457 L1606.17 167.457  Z
  " fill="#ffffff" fill-rule="evenodd" fill-opacity="1"/>
<polyline clip-path="url(#clip100)" style="stroke:#000000; stroke-linecap:butt; stroke-linejoin:round; stroke-width:4; stroke-opacity:1; fill:none" points="
  1606.17,322.977 2283.52,322.977 2283.52,167.457 1606.17,167.457 1606.17,322.977 
  "/>
<polyline clip-path="url(#clip100)" style="stroke:#009fe3; stroke-linecap:butt; stroke-linejoin:round; stroke-width:4; stroke-opacity:0.996078; fill:none" points="
  1629.25,219.297 1767.72,219.297 
  "/>
<path clip-path="url(#clip100)" d="M1813.04 203.151 L1813.04 207.711 Q1810.38 206.438 1808.02 205.813 Q1805.66 205.188 1803.46 205.188 Q1799.64 205.188 1797.55 206.67 Q1795.49 208.151 1795.49 210.882 Q1795.49 213.174 1796.86 214.355 Q1798.25 215.512 1802.09 216.23 L1804.91 216.808 Q1810.15 217.804 1812.62 220.327 Q1815.12 222.827 1815.12 227.04 Q1815.12 232.063 1811.74 234.656 Q1808.39 237.248 1801.88 237.248 Q1799.43 237.248 1796.65 236.693 Q1793.9 236.137 1790.93 235.049 L1790.93 230.234 Q1793.78 231.831 1796.51 232.642 Q1799.24 233.452 1801.88 233.452 Q1805.89 233.452 1808.06 231.878 Q1810.24 230.304 1810.24 227.387 Q1810.24 224.841 1808.66 223.406 Q1807.11 221.97 1803.55 221.253 L1800.7 220.697 Q1795.47 219.656 1793.13 217.433 Q1790.79 215.211 1790.79 211.253 Q1790.79 206.67 1794.01 204.031 Q1797.25 201.392 1802.92 201.392 Q1805.35 201.392 1807.88 201.832 Q1810.4 202.271 1813.04 203.151 Z" fill="#000000" fill-rule="evenodd" fill-opacity="1" /><path clip-path="url(#clip100)" d="M1822.23 210.651 L1826.49 210.651 L1826.49 236.577 L1822.23 236.577 L1822.23 210.651 M1822.23 200.558 L1826.49 200.558 L1826.49 205.952 L1822.23 205.952 L1822.23 200.558 Z" fill="#000000" fill-rule="evenodd" fill-opacity="1" /><path clip-path="url(#clip100)" d="M1855.59 215.628 Q1857.18 212.757 1859.4 211.392 Q1861.63 210.026 1864.64 210.026 Q1868.69 210.026 1870.89 212.873 Q1873.09 215.697 1873.09 220.929 L1873.09 236.577 L1868.8 236.577 L1868.8 221.068 Q1868.8 217.341 1867.48 215.535 Q1866.16 213.73 1863.46 213.73 Q1860.15 213.73 1858.22 215.929 Q1856.3 218.128 1856.3 221.924 L1856.3 236.577 L1852.02 236.577 L1852.02 221.068 Q1852.02 217.318 1850.7 215.535 Q1849.38 213.73 1846.63 213.73 Q1843.36 213.73 1841.44 215.952 Q1839.52 218.151 1839.52 221.924 L1839.52 236.577 L1835.24 236.577 L1835.24 210.651 L1839.52 210.651 L1839.52 214.679 Q1840.98 212.295 1843.02 211.16 Q1845.05 210.026 1847.85 210.026 Q1850.68 210.026 1852.65 211.461 Q1854.64 212.896 1855.59 215.628 Z" fill="#000000" fill-rule="evenodd" fill-opacity="1" /><path clip-path="url(#clip100)" d="M1881.14 226.345 L1881.14 210.651 L1885.4 210.651 L1885.4 226.183 Q1885.4 229.864 1886.84 231.716 Q1888.27 233.544 1891.14 233.544 Q1894.59 233.544 1896.58 231.345 Q1898.59 229.146 1898.59 225.35 L1898.59 210.651 L1902.85 210.651 L1902.85 236.577 L1898.59 236.577 L1898.59 232.595 Q1897.04 234.956 1894.98 236.114 Q1892.95 237.248 1890.24 237.248 Q1885.77 237.248 1883.46 234.47 Q1881.14 231.693 1881.14 226.345 M1891.86 210.026 L1891.86 210.026 Z" fill="#000000" fill-rule="evenodd" fill-opacity="1" /><path clip-path="url(#clip100)" d="M1911.63 200.558 L1915.89 200.558 L1915.89 236.577 L1911.63 236.577 L1911.63 200.558 Z" fill="#000000" fill-rule="evenodd" fill-opacity="1" /><path clip-path="url(#clip100)" d="M1936.58 223.544 Q1931.42 223.544 1929.43 224.725 Q1927.44 225.906 1927.44 228.753 Q1927.44 231.021 1928.92 232.364 Q1930.42 233.683 1932.99 233.683 Q1936.53 233.683 1938.66 231.183 Q1940.82 228.66 1940.82 224.494 L1940.82 223.544 L1936.58 223.544 M1945.08 221.785 L1945.08 236.577 L1940.82 236.577 L1940.82 232.642 Q1939.36 235.003 1937.18 236.137 Q1935.01 237.248 1931.86 237.248 Q1927.88 237.248 1925.52 235.026 Q1923.18 232.781 1923.18 229.031 Q1923.18 224.656 1926.09 222.433 Q1929.03 220.211 1934.84 220.211 L1940.82 220.211 L1940.82 219.794 Q1940.82 216.855 1938.87 215.257 Q1936.95 213.637 1933.46 213.637 Q1931.23 213.637 1929.13 214.17 Q1927.02 214.702 1925.08 215.767 L1925.08 211.832 Q1927.41 210.929 1929.61 210.489 Q1931.81 210.026 1933.9 210.026 Q1939.52 210.026 1942.3 212.943 Q1945.08 215.859 1945.08 221.785 Z" fill="#000000" fill-rule="evenodd" fill-opacity="1" /><path clip-path="url(#clip100)" d="M1958.06 203.29 L1958.06 210.651 L1966.83 210.651 L1966.83 213.961 L1958.06 213.961 L1958.06 228.035 Q1958.06 231.206 1958.92 232.109 Q1959.8 233.012 1962.46 233.012 L1966.83 233.012 L1966.83 236.577 L1962.46 236.577 Q1957.53 236.577 1955.65 234.748 Q1953.78 232.896 1953.78 228.035 L1953.78 213.961 L1950.65 213.961 L1950.65 210.651 L1953.78 210.651 L1953.78 203.29 L1958.06 203.29 Z" fill="#000000" fill-rule="evenodd" fill-opacity="1" /><path clip-path="url(#clip100)" d="M1972.44 210.651 L1976.7 210.651 L1976.7 236.577 L1972.44 236.577 L1972.44 210.651 M1972.44 200.558 L1976.7 200.558 L1976.7 205.952 L1972.44 205.952 L1972.44 200.558 Z" fill="#000000" fill-rule="evenodd" fill-opacity="1" /><path clip-path="url(#clip100)" d="M1995.65 213.637 Q1992.23 213.637 1990.24 216.322 Q1988.25 218.984 1988.25 223.637 Q1988.25 228.29 1990.21 230.975 Q1992.21 233.637 1995.65 233.637 Q1999.06 233.637 2001.05 230.952 Q2003.04 228.267 2003.04 223.637 Q2003.04 219.031 2001.05 216.345 Q1999.06 213.637 1995.65 213.637 M1995.65 210.026 Q2001.21 210.026 2004.38 213.637 Q2007.55 217.248 2007.55 223.637 Q2007.55 230.003 2004.38 233.637 Q2001.21 237.248 1995.65 237.248 Q1990.08 237.248 1986.9 233.637 Q1983.76 230.003 1983.76 223.637 Q1983.76 217.248 1986.9 213.637 Q1990.08 210.026 1995.65 210.026 Z" fill="#000000" fill-rule="evenodd" fill-opacity="1" /><path clip-path="url(#clip100)" d="M2036.16 220.929 L2036.16 236.577 L2031.9 236.577 L2031.9 221.068 Q2031.9 217.387 2030.47 215.558 Q2029.03 213.73 2026.16 213.73 Q2022.71 213.73 2020.72 215.929 Q2018.73 218.128 2018.73 221.924 L2018.73 236.577 L2014.45 236.577 L2014.45 210.651 L2018.73 210.651 L2018.73 214.679 Q2020.26 212.341 2022.32 211.183 Q2024.4 210.026 2027.11 210.026 Q2031.58 210.026 2033.87 212.804 Q2036.16 215.558 2036.16 220.929 Z" fill="#000000" fill-rule="evenodd" fill-opacity="1" /><circle clip-path="url(#clip100)" cx="1698.48" cy="271.137" r="23" fill="#ff00ff" fill-rule="evenodd" fill-opacity="1" stroke="none"/>
<path clip-path="url(#clip100)" d="M1790.79 253.857 L1795.47 253.857 L1795.47 284.482 L1812.3 284.482 L1812.3 288.417 L1790.79 288.417 L1790.79 253.857 Z" fill="#000000" fill-rule="evenodd" fill-opacity="1" /><path clip-path="url(#clip100)" d="M1817.21 253.857 L1823.5 253.857 L1838.83 282.769 L1838.83 253.857 L1843.36 253.857 L1843.36 288.417 L1837.07 288.417 L1821.74 259.505 L1821.74 288.417 L1817.21 288.417 L1817.21 253.857 Z" fill="#000000" fill-rule="evenodd" fill-opacity="1" /><path clip-path="url(#clip100)" d="M1864.22 258.463 L1857.88 275.662 L1870.59 275.662 L1864.22 258.463 M1861.58 253.857 L1866.88 253.857 L1880.05 288.417 L1875.19 288.417 L1872.04 279.551 L1856.47 279.551 L1853.32 288.417 L1848.39 288.417 L1861.58 253.857 Z" fill="#000000" fill-rule="evenodd" fill-opacity="1" /><path clip-path="url(#clip100)" d="M1911.72 258.463 L1905.38 275.662 L1918.09 275.662 L1911.72 258.463 M1909.08 253.857 L1914.38 253.857 L1927.55 288.417 L1922.69 288.417 L1919.54 279.551 L1903.96 279.551 L1900.82 288.417 L1895.89 288.417 L1909.08 253.857 Z" fill="#000000" fill-rule="evenodd" fill-opacity="1" /><path clip-path="url(#clip100)" d="M1936.53 284.528 L1936.53 298.278 L1932.25 298.278 L1932.25 262.491 L1936.53 262.491 L1936.53 266.426 Q1937.88 264.111 1939.91 263 Q1941.97 261.866 1944.82 261.866 Q1949.54 261.866 1952.48 265.616 Q1955.45 269.366 1955.45 275.477 Q1955.45 281.588 1952.48 285.338 Q1949.54 289.088 1944.82 289.088 Q1941.97 289.088 1939.91 287.977 Q1937.88 286.843 1936.53 284.528 M1951.02 275.477 Q1951.02 270.778 1949.08 268.116 Q1947.16 265.431 1943.78 265.431 Q1940.4 265.431 1938.46 268.116 Q1936.53 270.778 1936.53 275.477 Q1936.53 280.176 1938.46 282.861 Q1940.4 285.523 1943.78 285.523 Q1947.16 285.523 1949.08 282.861 Q1951.02 280.176 1951.02 275.477 Z" fill="#000000" fill-rule="evenodd" fill-opacity="1" /><path clip-path="url(#clip100)" d="M1966.63 284.528 L1966.63 298.278 L1962.34 298.278 L1962.34 262.491 L1966.63 262.491 L1966.63 266.426 Q1967.97 264.111 1970.01 263 Q1972.07 261.866 1974.91 261.866 Q1979.64 261.866 1982.58 265.616 Q1985.54 269.366 1985.54 275.477 Q1985.54 281.588 1982.58 285.338 Q1979.64 289.088 1974.91 289.088 Q1972.07 289.088 1970.01 287.977 Q1967.97 286.843 1966.63 284.528 M1981.12 275.477 Q1981.12 270.778 1979.17 268.116 Q1977.25 265.431 1973.87 265.431 Q1970.49 265.431 1968.55 268.116 Q1966.63 270.778 1966.63 275.477 Q1966.63 280.176 1968.55 282.861 Q1970.49 285.523 1973.87 285.523 Q1977.25 285.523 1979.17 282.861 Q1981.12 280.176 1981.12 275.477 Z" fill="#000000" fill-rule="evenodd" fill-opacity="1" /><path clip-path="url(#clip100)" d="M2007.62 266.472 Q2006.9 266.056 2006.05 265.871 Q2005.21 265.662 2004.2 265.662 Q2000.58 265.662 1998.64 268.023 Q1996.72 270.361 1996.72 274.759 L1996.72 288.417 L1992.44 288.417 L1992.44 262.491 L1996.72 262.491 L1996.72 266.519 Q1998.06 264.158 2000.21 263.023 Q2002.37 261.866 2005.45 261.866 Q2005.89 261.866 2006.42 261.935 Q2006.95 261.982 2007.6 262.097 L2007.62 266.472 Z" fill="#000000" fill-rule="evenodd" fill-opacity="1" /><path clip-path="url(#clip100)" d="M2021.09 265.477 Q2017.67 265.477 2015.68 268.162 Q2013.69 270.824 2013.69 275.477 Q2013.69 280.13 2015.65 282.815 Q2017.64 285.477 2021.09 285.477 Q2024.5 285.477 2026.49 282.792 Q2028.48 280.107 2028.48 275.477 Q2028.48 270.871 2026.49 268.185 Q2024.5 265.477 2021.09 265.477 M2021.09 261.866 Q2026.65 261.866 2029.82 265.477 Q2032.99 269.088 2032.99 275.477 Q2032.99 281.843 2029.82 285.477 Q2026.65 289.088 2021.09 289.088 Q2015.52 289.088 2012.34 285.477 Q2009.2 281.843 2009.2 275.477 Q2009.2 269.088 2012.34 265.477 Q2015.52 261.866 2021.09 261.866 Z" fill="#000000" fill-rule="evenodd" fill-opacity="1" /><path clip-path="url(#clip100)" d="M2060.14 262.491 L2050.77 275.107 L2060.63 288.417 L2055.61 288.417 L2048.06 278.232 L2040.52 288.417 L2035.49 288.417 L2045.56 274.852 L2036.35 262.491 L2041.37 262.491 L2048.25 271.727 L2055.12 262.491 L2060.14 262.491 Z" fill="#000000" fill-rule="evenodd" fill-opacity="1" /><path clip-path="url(#clip100)" d="M2066.65 262.491 L2070.91 262.491 L2070.91 288.417 L2066.65 288.417 L2066.65 262.491 M2066.65 252.398 L2070.91 252.398 L2070.91 257.792 L2066.65 257.792 L2066.65 252.398 Z" fill="#000000" fill-rule="evenodd" fill-opacity="1" /><path clip-path="url(#clip100)" d="M2100.01 267.468 Q2101.6 264.597 2103.82 263.232 Q2106.05 261.866 2109.06 261.866 Q2113.11 261.866 2115.31 264.713 Q2117.51 267.537 2117.51 272.769 L2117.51 288.417 L2113.22 288.417 L2113.22 272.908 Q2113.22 269.181 2111.9 267.375 Q2110.58 265.57 2107.88 265.57 Q2104.57 265.57 2102.64 267.769 Q2100.72 269.968 2100.72 273.764 L2100.72 288.417 L2096.44 288.417 L2096.44 272.908 Q2096.44 269.158 2095.12 267.375 Q2093.8 265.57 2091.05 265.57 Q2087.78 265.57 2085.86 267.792 Q2083.94 269.991 2083.94 273.764 L2083.94 288.417 L2079.66 288.417 L2079.66 262.491 L2083.94 262.491 L2083.94 266.519 Q2085.4 264.135 2087.44 263 Q2089.47 261.866 2092.27 261.866 Q2095.1 261.866 2097.07 263.301 Q2099.06 264.736 2100.01 267.468 Z" fill="#000000" fill-rule="evenodd" fill-opacity="1" /><path clip-path="url(#clip100)" d="M2137.78 275.384 Q2132.62 275.384 2130.63 276.565 Q2128.64 277.746 2128.64 280.593 Q2128.64 282.861 2130.12 284.204 Q2131.63 285.523 2134.2 285.523 Q2137.74 285.523 2139.87 283.023 Q2142.02 280.5 2142.02 276.334 L2142.02 275.384 L2137.78 275.384 M2146.28 273.625 L2146.28 288.417 L2142.02 288.417 L2142.02 284.482 Q2140.56 286.843 2138.38 287.977 Q2136.21 289.088 2133.06 289.088 Q2129.08 289.088 2126.72 286.866 Q2124.38 284.621 2124.38 280.871 Q2124.38 276.496 2127.3 274.273 Q2130.24 272.051 2136.05 272.051 L2142.02 272.051 L2142.02 271.634 Q2142.02 268.695 2140.07 267.097 Q2138.15 265.477 2134.66 265.477 Q2132.44 265.477 2130.33 266.01 Q2128.22 266.542 2126.28 267.607 L2126.28 263.672 Q2128.62 262.769 2130.82 262.329 Q2133.01 261.866 2135.1 261.866 Q2140.72 261.866 2143.5 264.783 Q2146.28 267.699 2146.28 273.625 Z" fill="#000000" fill-rule="evenodd" fill-opacity="1" /><path clip-path="url(#clip100)" d="M2159.26 255.13 L2159.26 262.491 L2168.04 262.491 L2168.04 265.801 L2159.26 265.801 L2159.26 279.875 Q2159.26 283.046 2160.12 283.949 Q2161 284.852 2163.66 284.852 L2168.04 284.852 L2168.04 288.417 L2163.66 288.417 Q2158.73 288.417 2156.86 286.588 Q2154.98 284.736 2154.98 279.875 L2154.98 265.801 L2151.86 265.801 L2151.86 262.491 L2154.98 262.491 L2154.98 255.13 L2159.26 255.13 Z" fill="#000000" fill-rule="evenodd" fill-opacity="1" /><path clip-path="url(#clip100)" d="M2173.64 262.491 L2177.9 262.491 L2177.9 288.417 L2173.64 288.417 L2173.64 262.491 M2173.64 252.398 L2177.9 252.398 L2177.9 257.792 L2173.64 257.792 L2173.64 252.398 Z" fill="#000000" fill-rule="evenodd" fill-opacity="1" /><path clip-path="url(#clip100)" d="M2196.86 265.477 Q2193.43 265.477 2191.44 268.162 Q2189.45 270.824 2189.45 275.477 Q2189.45 280.13 2191.42 282.815 Q2193.41 285.477 2196.86 285.477 Q2200.26 285.477 2202.25 282.792 Q2204.24 280.107 2204.24 275.477 Q2204.24 270.871 2202.25 268.185 Q2200.26 265.477 2196.86 265.477 M2196.86 261.866 Q2202.41 261.866 2205.58 265.477 Q2208.75 269.088 2208.75 275.477 Q2208.75 281.843 2205.58 285.477 Q2202.41 289.088 2196.86 289.088 Q2191.28 289.088 2188.11 285.477 Q2184.96 281.843 2184.96 275.477 Q2184.96 269.088 2188.11 265.477 Q2191.28 261.866 2196.86 261.866 Z" fill="#000000" fill-rule="evenodd" fill-opacity="1" /><path clip-path="url(#clip100)" d="M2237.37 272.769 L2237.37 288.417 L2233.11 288.417 L2233.11 272.908 Q2233.11 269.227 2231.67 267.398 Q2230.24 265.57 2227.37 265.57 Q2223.92 265.57 2221.93 267.769 Q2219.94 269.968 2219.94 273.764 L2219.94 288.417 L2215.65 288.417 L2215.65 262.491 L2219.94 262.491 L2219.94 266.519 Q2221.46 264.181 2223.52 263.023 Q2225.61 261.866 2228.32 261.866 Q2232.78 261.866 2235.07 264.644 Q2237.37 267.398 2237.37 272.769 Z" fill="#000000" fill-rule="evenodd" fill-opacity="1" /></svg>
