<?xml version="1.0" encoding="utf-8"?>
<svg xmlns="http://www.w3.org/2000/svg" xmlns:xlink="http://www.w3.org/1999/xlink" width="600" height="400" viewBox="0 0 2400 1600">
<defs>
  <clipPath id="clip220">
    <rect x="0" y="0" width="2400" height="1600"/>
  </clipPath>
</defs>
<path clip-path="url(#clip220)" d="
M0 1600 L2400 1600 L2400 0 L0 0  Z
  " fill="#ffffff" fill-rule="evenodd" fill-opacity="1"/>
<defs>
  <clipPath id="clip221">
    <rect x="480" y="0" width="1681" height="1600"/>
  </clipPath>
</defs>
<defs>
  <clipPath id="clip222">
    <rect x="245" y="123" width="2108" height="1321"/>
  </clipPath>
</defs>
<path clip-path="url(#clip220)" d="
M245.574 1443.01 L2352.76 1443.01 L2352.76 123.472 L245.574 123.472  Z
  " fill="#ffffff" fill-rule="evenodd" fill-opacity="1"/>
<polyline clip-path="url(#clip222)" style="stroke:#000000; stroke-linecap:butt; stroke-linejoin:round; stroke-width:2; stroke-opacity:0.1; fill:none" points="
  305.211,1443.01 305.211,123.472 
  "/>
<polyline clip-path="url(#clip222)" style="stroke:#000000; stroke-linecap:butt; stroke-linejoin:round; stroke-width:2; stroke-opacity:0.1; fill:none" points="
  611.043,1443.01 611.043,123.472 
  "/>
<polyline clip-path="url(#clip222)" style="stroke:#000000; stroke-linecap:butt; stroke-linejoin:round; stroke-width:2; stroke-opacity:0.1; fill:none" points="
  916.875,1443.01 916.875,123.472 
  "/>
<polyline clip-path="url(#clip222)" style="stroke:#000000; stroke-linecap:butt; stroke-linejoin:round; stroke-width:2; stroke-opacity:0.1; fill:none" points="
  1222.71,1443.01 1222.71,123.472 
  "/>
<polyline clip-path="url(#clip222)" style="stroke:#000000; stroke-linecap:butt; stroke-linejoin:round; stroke-width:2; stroke-opacity:0.1; fill:none" points="
  1528.54,1443.01 1528.54,123.472 
  "/>
<polyline clip-path="url(#clip222)" style="stroke:#000000; stroke-linecap:butt; stroke-linejoin:round; stroke-width:2; stroke-opacity:0.1; fill:none" points="
  1834.37,1443.01 1834.37,123.472 
  "/>
<polyline clip-path="url(#clip222)" style="stroke:#000000; stroke-linecap:butt; stroke-linejoin:round; stroke-width:2; stroke-opacity:0.1; fill:none" points="
  2140.2,1443.01 2140.2,123.472 
  "/>
<polyline clip-path="url(#clip220)" style="stroke:#000000; stroke-linecap:butt; stroke-linejoin:round; stroke-width:4; stroke-opacity:1; fill:none" points="
  245.574,1443.01 2352.76,1443.01 
  "/>
<polyline clip-path="url(#clip220)" style="stroke:#000000; stroke-linecap:butt; stroke-linejoin:round; stroke-width:4; stroke-opacity:1; fill:none" points="
  305.211,1443.01 305.211,1424.11 
  "/>
<polyline clip-path="url(#clip220)" style="stroke:#000000; stroke-linecap:butt; stroke-linejoin:round; stroke-width:4; stroke-opacity:1; fill:none" points="
  611.043,1443.01 611.043,1424.11 
  "/>
<polyline clip-path="url(#clip220)" style="stroke:#000000; stroke-linecap:butt; stroke-linejoin:round; stroke-width:4; stroke-opacity:1; fill:none" points="
  916.875,1443.01 916.875,1424.11 
  "/>
<polyline clip-path="url(#clip220)" style="stroke:#000000; stroke-linecap:butt; stroke-linejoin:round; stroke-width:4; stroke-opacity:1; fill:none" points="
  1222.71,1443.01 1222.71,1424.11 
  "/>
<polyline clip-path="url(#clip220)" style="stroke:#000000; stroke-linecap:butt; stroke-linejoin:round; stroke-width:4; stroke-opacity:1; fill:none" points="
  1528.54,1443.01 1528.54,1424.11 
  "/>
<polyline clip-path="url(#clip220)" style="stroke:#000000; stroke-linecap:butt; stroke-linejoin:round; stroke-width:4; stroke-opacity:1; fill:none" points="
  1834.37,1443.01 1834.37,1424.11 
  "/>
<polyline clip-path="url(#clip220)" style="stroke:#000000; stroke-linecap:butt; stroke-linejoin:round; stroke-width:4; stroke-opacity:1; fill:none" points="
  2140.2,1443.01 2140.2,1424.11 
  "/>
<path clip-path="url(#clip220)" d="M305.211 1472.2 Q301.6 1472.2 299.772 1475.77 Q297.966 1479.31 297.966 1486.44 Q297.966 1493.55 299.772 1497.11 Q301.6 1500.65 305.211 1500.65 Q308.846 1500.65 310.651 1497.11 Q312.48 1493.55 312.48 1486.44 Q312.48 1479.31 310.651 1475.77 Q308.846 1472.2 305.211 1472.2 M305.211 1468.5 Q311.021 1468.5 314.077 1473.11 Q317.156 1477.69 317.156 1486.44 Q317.156 1495.17 314.077 1499.77 Q311.021 1504.36 305.211 1504.36 Q299.401 1504.36 296.322 1499.77 Q293.267 1495.17 293.267 1486.44 Q293.267 1477.69 296.322 1473.11 Q299.401 1468.5 305.211 1468.5 Z" fill="#000000" fill-rule="evenodd" fill-opacity="1" /><path clip-path="url(#clip220)" d="M605.696 1499.75 L622.015 1499.75 L622.015 1503.68 L600.071 1503.68 L600.071 1499.75 Q602.733 1496.99 607.316 1492.36 Q611.923 1487.71 613.103 1486.37 Q615.349 1483.85 616.228 1482.11 Q617.131 1480.35 617.131 1478.66 Q617.131 1475.91 615.187 1474.17 Q613.265 1472.43 610.164 1472.43 Q607.965 1472.43 605.511 1473.2 Q603.08 1473.96 600.303 1475.51 L600.303 1470.79 Q603.127 1469.66 605.58 1469.08 Q608.034 1468.5 610.071 1468.5 Q615.441 1468.5 618.636 1471.18 Q621.83 1473.87 621.83 1478.36 Q621.83 1480.49 621.02 1482.41 Q620.233 1484.31 618.127 1486.9 Q617.548 1487.57 614.446 1490.79 Q611.344 1493.99 605.696 1499.75 Z" fill="#000000" fill-rule="evenodd" fill-opacity="1" /><path clip-path="url(#clip220)" d="M919.884 1473.2 L908.079 1491.65 L919.884 1491.65 L919.884 1473.2 M918.658 1469.12 L924.537 1469.12 L924.537 1491.65 L929.468 1491.65 L929.468 1495.54 L924.537 1495.54 L924.537 1503.68 L919.884 1503.68 L919.884 1495.54 L904.283 1495.54 L904.283 1491.02 L918.658 1469.12 Z" fill="#000000" fill-rule="evenodd" fill-opacity="1" /><path clip-path="url(#clip220)" d="M1223.11 1484.54 Q1219.96 1484.54 1218.11 1486.69 Q1216.28 1488.85 1216.28 1492.6 Q1216.28 1496.32 1218.11 1498.5 Q1219.96 1500.65 1223.11 1500.65 Q1226.26 1500.65 1228.09 1498.5 Q1229.94 1496.32 1229.94 1492.6 Q1229.94 1488.85 1228.09 1486.69 Q1226.26 1484.54 1223.11 1484.54 M1232.39 1469.89 L1232.39 1474.15 Q1230.64 1473.31 1228.83 1472.87 Q1227.05 1472.43 1225.29 1472.43 Q1220.66 1472.43 1218.2 1475.56 Q1215.77 1478.68 1215.43 1485 Q1216.79 1482.99 1218.85 1481.93 Q1220.91 1480.84 1223.39 1480.84 Q1228.6 1480.84 1231.61 1484.01 Q1234.64 1487.16 1234.64 1492.6 Q1234.64 1497.92 1231.49 1501.14 Q1228.34 1504.36 1223.11 1504.36 Q1217.12 1504.36 1213.95 1499.77 Q1210.77 1495.17 1210.77 1486.44 Q1210.77 1478.24 1214.66 1473.38 Q1218.55 1468.5 1225.1 1468.5 Q1226.86 1468.5 1228.64 1468.85 Q1230.45 1469.19 1232.39 1469.89 Z" fill="#000000" fill-rule="evenodd" fill-opacity="1" /><path clip-path="url(#clip220)" d="M1528.54 1487.27 Q1525.21 1487.27 1523.28 1489.05 Q1521.39 1490.84 1521.39 1493.96 Q1521.39 1497.09 1523.28 1498.87 Q1525.21 1500.65 1528.54 1500.65 Q1531.87 1500.65 1533.79 1498.87 Q1535.71 1497.06 1535.71 1493.96 Q1535.71 1490.84 1533.79 1489.05 Q1531.9 1487.27 1528.54 1487.27 M1523.86 1485.28 Q1520.85 1484.54 1519.16 1482.48 Q1517.5 1480.42 1517.5 1477.46 Q1517.5 1473.31 1520.44 1470.91 Q1523.4 1468.5 1528.54 1468.5 Q1533.7 1468.5 1536.64 1470.91 Q1539.58 1473.31 1539.58 1477.46 Q1539.58 1480.42 1537.89 1482.48 Q1536.22 1484.54 1533.24 1485.28 Q1536.62 1486.07 1538.49 1488.36 Q1540.39 1490.65 1540.39 1493.96 Q1540.39 1498.99 1537.31 1501.67 Q1534.26 1504.36 1528.54 1504.36 Q1522.82 1504.36 1519.74 1501.67 Q1516.69 1498.99 1516.69 1493.96 Q1516.69 1490.65 1518.59 1488.36 Q1520.48 1486.07 1523.86 1485.28 M1522.15 1477.9 Q1522.15 1480.58 1523.82 1482.09 Q1525.51 1483.59 1528.54 1483.59 Q1531.55 1483.59 1533.24 1482.09 Q1534.95 1480.58 1534.95 1477.9 Q1534.95 1475.21 1533.24 1473.71 Q1531.55 1472.2 1528.54 1472.2 Q1525.51 1472.2 1523.82 1473.71 Q1522.15 1475.21 1522.15 1477.9 Z" fill="#000000" fill-rule="evenodd" fill-opacity="1" /><path clip-path="url(#clip220)" d="M1809.06 1499.75 L1816.7 1499.75 L1816.7 1473.38 L1808.39 1475.05 L1808.39 1470.79 L1816.65 1469.12 L1821.33 1469.12 L1821.33 1499.75 L1828.97 1499.75 L1828.97 1503.68 L1809.06 1503.68 L1809.06 1499.75 Z" fill="#000000" fill-rule="evenodd" fill-opacity="1" /><path clip-path="url(#clip220)" d="M1848.41 1472.2 Q1844.8 1472.2 1842.97 1475.77 Q1841.16 1479.31 1841.16 1486.44 Q1841.16 1493.55 1842.97 1497.11 Q1844.8 1500.65 1848.41 1500.65 Q1852.04 1500.65 1853.85 1497.11 Q1855.68 1493.55 1855.68 1486.44 Q1855.68 1479.31 1853.85 1475.77 Q1852.04 1472.2 1848.41 1472.2 M1848.41 1468.5 Q1854.22 1468.5 1857.28 1473.11 Q1860.35 1477.69 1860.35 1486.44 Q1860.35 1495.17 1857.28 1499.77 Q1854.22 1504.36 1848.41 1504.36 Q1842.6 1504.36 1839.52 1499.77 Q1836.47 1495.17 1836.47 1486.44 Q1836.47 1477.69 1839.52 1473.11 Q1842.6 1468.5 1848.41 1468.5 Z" fill="#000000" fill-rule="evenodd" fill-opacity="1" /><path clip-path="url(#clip220)" d="M2115.69 1499.75 L2123.33 1499.75 L2123.33 1473.38 L2115.02 1475.05 L2115.02 1470.79 L2123.28 1469.12 L2127.96 1469.12 L2127.96 1499.75 L2135.6 1499.75 L2135.6 1503.68 L2115.69 1503.68 L2115.69 1499.75 Z" fill="#000000" fill-rule="evenodd" fill-opacity="1" /><path clip-path="url(#clip220)" d="M2149.07 1499.75 L2165.39 1499.75 L2165.39 1503.68 L2143.44 1503.68 L2143.44 1499.75 Q2146.11 1496.99 2150.69 1492.36 Q2155.3 1487.71 2156.48 1486.37 Q2158.72 1483.85 2159.6 1482.11 Q2160.5 1480.35 2160.5 1478.66 Q2160.5 1475.91 2158.56 1474.17 Q2156.64 1472.43 2153.54 1472.43 Q2151.34 1472.43 2148.88 1473.2 Q2146.45 1473.96 2143.67 1475.51 L2143.67 1470.79 Q2146.5 1469.66 2148.95 1469.08 Q2151.41 1468.5 2153.44 1468.5 Q2158.81 1468.5 2162.01 1471.18 Q2165.2 1473.87 2165.2 1478.36 Q2165.2 1480.49 2164.39 1482.41 Q2163.61 1484.31 2161.5 1486.9 Q2160.92 1487.57 2157.82 1490.79 Q2154.72 1493.99 2149.07 1499.75 Z" fill="#000000" fill-rule="evenodd" fill-opacity="1" /><path clip-path="url(#clip220)" d="M1317.2 1536.96 Q1317.2 1541.66 1314.81 1546.2 Q1312.46 1550.74 1308.76 1553.55 Q1305.06 1556.31 1301.29 1556.31 Q1299.03 1556.31 1297.52 1555.09 Q1296.04 1553.84 1295.23 1552.06 Q1294.62 1554.25 1293.3 1559.5 Q1291.98 1564.75 1291.98 1565.27 Q1291.98 1565.56 1292.04 1565.69 Q1292.11 1565.82 1292.4 1565.98 Q1292.69 1566.17 1293.4 1566.23 Q1294.11 1566.33 1295.3 1566.33 Q1295.91 1566.33 1296.13 1566.33 Q1296.39 1566.36 1296.62 1566.52 Q1296.88 1566.69 1296.88 1567.04 Q1296.88 1568.36 1295.68 1568.36 Q1294.62 1568.36 1292.43 1568.26 Q1290.24 1568.17 1289.15 1568.17 Q1288.21 1568.17 1286.34 1568.26 Q1284.48 1568.36 1283.61 1568.36 Q1282.74 1568.36 1282.74 1567.59 Q1282.74 1567.14 1282.87 1566.85 Q1282.96 1566.59 1283.22 1566.46 Q1283.48 1566.36 1283.7 1566.33 Q1283.9 1566.33 1284.28 1566.33 Q1285.76 1566.33 1286.41 1566.07 Q1287.05 1565.85 1287.28 1565.36 Q1287.54 1564.91 1287.83 1563.63 L1295.23 1534.25 Q1295.68 1532.29 1295.68 1530.9 Q1295.68 1529.17 1295.14 1528.52 Q1294.59 1527.88 1293.62 1527.88 Q1291.95 1527.88 1290.85 1529.87 Q1289.76 1531.87 1288.82 1535.74 Q1288.53 1536.8 1288.34 1537.02 Q1288.18 1537.25 1287.7 1537.25 Q1286.89 1537.22 1286.89 1536.57 Q1286.89 1536.41 1287.15 1535.38 Q1287.41 1534.32 1287.89 1532.77 Q1288.41 1531.19 1288.95 1530.2 Q1289.28 1529.52 1289.56 1529.07 Q1289.85 1528.62 1290.43 1527.91 Q1291.05 1527.2 1291.92 1526.81 Q1292.79 1526.43 1293.85 1526.43 Q1295.91 1526.43 1297.62 1527.65 Q1299.32 1528.88 1299.77 1531.36 Q1301.61 1529.2 1303.86 1527.81 Q1306.12 1526.43 1308.41 1526.43 Q1312.21 1526.43 1314.69 1529.39 Q1317.2 1532.32 1317.2 1536.96 M1312.43 1534.06 Q1312.43 1531.13 1311.3 1529.52 Q1310.21 1527.88 1308.21 1527.88 Q1305.73 1527.88 1302.87 1530.39 Q1300.03 1532.77 1299.45 1534.99 L1296.2 1547.91 L1296.01 1548.97 Q1296.01 1549.17 1296.1 1549.74 Q1296.23 1550.29 1296.59 1551.19 Q1296.97 1552.1 1297.49 1552.9 Q1298.04 1553.67 1299 1554.25 Q1300 1554.83 1301.22 1554.83 Q1303.19 1554.83 1305.31 1553.09 Q1307.47 1551.36 1309.08 1548.07 Q1310.08 1545.94 1311.24 1541.37 Q1312.43 1536.77 1312.43 1534.06 Z" fill="#000000" fill-rule="evenodd" fill-opacity="1" /><polyline clip-path="url(#clip222)" style="stroke:#000000; stroke-linecap:butt; stroke-linejoin:round; stroke-width:2; stroke-opacity:0.1; fill:none" points="
  245.574,1405.67 2352.76,1405.67 
  "/>
<polyline clip-path="url(#clip222)" style="stroke:#000000; stroke-linecap:butt; stroke-linejoin:round; stroke-width:2; stroke-opacity:0.1; fill:none" points="
  245.574,1176.08 2352.76,1176.08 
  "/>
<polyline clip-path="url(#clip222)" style="stroke:#000000; stroke-linecap:butt; stroke-linejoin:round; stroke-width:2; stroke-opacity:0.1; fill:none" points="
  245.574,946.484 2352.76,946.484 
  "/>
<polyline clip-path="url(#clip222)" style="stroke:#000000; stroke-linecap:butt; stroke-linejoin:round; stroke-width:2; stroke-opacity:0.1; fill:none" points="
  245.574,716.893 2352.76,716.893 
  "/>
<polyline clip-path="url(#clip222)" style="stroke:#000000; stroke-linecap:butt; stroke-linejoin:round; stroke-width:2; stroke-opacity:0.1; fill:none" points="
  245.574,487.301 2352.76,487.301 
  "/>
<polyline clip-path="url(#clip222)" style="stroke:#000000; stroke-linecap:butt; stroke-linejoin:round; stroke-width:2; stroke-opacity:0.1; fill:none" points="
  245.574,257.71 2352.76,257.71 
  "/>
<polyline clip-path="url(#clip220)" style="stroke:#000000; stroke-linecap:butt; stroke-linejoin:round; stroke-width:4; stroke-opacity:1; fill:none" points="
  245.574,1443.01 245.574,123.472 
  "/>
<polyline clip-path="url(#clip220)" style="stroke:#000000; stroke-linecap:butt; stroke-linejoin:round; stroke-width:4; stroke-opacity:1; fill:none" points="
  245.574,1405.67 264.472,1405.67 
  "/>
<polyline clip-path="url(#clip220)" style="stroke:#000000; stroke-linecap:butt; stroke-linejoin:round; stroke-width:4; stroke-opacity:1; fill:none" points="
  245.574,1176.08 264.472,1176.08 
  "/>
<polyline clip-path="url(#clip220)" style="stroke:#000000; stroke-linecap:butt; stroke-linejoin:round; stroke-width:4; stroke-opacity:1; fill:none" points="
  245.574,946.484 264.472,946.484 
  "/>
<polyline clip-path="url(#clip220)" style="stroke:#000000; stroke-linecap:butt; stroke-linejoin:round; stroke-width:4; stroke-opacity:1; fill:none" points="
  245.574,716.893 264.472,716.893 
  "/>
<polyline clip-path="url(#clip220)" style="stroke:#000000; stroke-linecap:butt; stroke-linejoin:round; stroke-width:4; stroke-opacity:1; fill:none" points="
  245.574,487.301 264.472,487.301 
  "/>
<polyline clip-path="url(#clip220)" style="stroke:#000000; stroke-linecap:butt; stroke-linejoin:round; stroke-width:4; stroke-opacity:1; fill:none" points="
  245.574,257.71 264.472,257.71 
  "/>
<path clip-path="url(#clip220)" d="M122.237 1391.47 Q118.626 1391.47 116.797 1395.03 Q114.991 1398.57 114.991 1405.7 Q114.991 1412.81 116.797 1416.37 Q118.626 1419.91 122.237 1419.91 Q125.871 1419.91 127.676 1416.37 Q129.505 1412.81 129.505 1405.7 Q129.505 1398.57 127.676 1395.03 Q125.871 1391.47 122.237 1391.47 M122.237 1387.76 Q128.047 1387.76 131.102 1392.37 Q134.181 1396.95 134.181 1405.7 Q134.181 1414.43 131.102 1419.03 Q128.047 1423.62 122.237 1423.62 Q116.426 1423.62 113.348 1419.03 Q110.292 1414.43 110.292 1405.7 Q110.292 1396.95 113.348 1392.37 Q116.426 1387.76 122.237 1387.76 Z" fill="#000000" fill-rule="evenodd" fill-opacity="1" /><path clip-path="url(#clip220)" d="M142.399 1417.07 L147.283 1417.07 L147.283 1422.95 L142.399 1422.95 L142.399 1417.07 Z" fill="#000000" fill-rule="evenodd" fill-opacity="1" /><path clip-path="url(#clip220)" d="M167.468 1391.47 Q163.857 1391.47 162.028 1395.03 Q160.223 1398.57 160.223 1405.7 Q160.223 1412.81 162.028 1416.37 Q163.857 1419.91 167.468 1419.91 Q171.102 1419.91 172.908 1416.37 Q174.736 1412.81 174.736 1405.7 Q174.736 1398.57 172.908 1395.03 Q171.102 1391.47 167.468 1391.47 M167.468 1387.76 Q173.278 1387.76 176.334 1392.37 Q179.412 1396.95 179.412 1405.7 Q179.412 1414.43 176.334 1419.03 Q173.278 1423.62 167.468 1423.62 Q161.658 1423.62 158.579 1419.03 Q155.523 1414.43 155.523 1405.7 Q155.523 1396.95 158.579 1392.37 Q161.658 1387.76 167.468 1387.76 Z" fill="#000000" fill-rule="evenodd" fill-opacity="1" /><path clip-path="url(#clip220)" d="M197.63 1391.47 Q194.019 1391.47 192.19 1395.03 Q190.384 1398.57 190.384 1405.7 Q190.384 1412.81 192.19 1416.37 Q194.019 1419.91 197.63 1419.91 Q201.264 1419.91 203.07 1416.37 Q204.898 1412.81 204.898 1405.7 Q204.898 1398.57 203.07 1395.03 Q201.264 1391.47 197.63 1391.47 M197.63 1387.76 Q203.44 1387.76 206.495 1392.37 Q209.574 1396.95 209.574 1405.7 Q209.574 1414.43 206.495 1419.03 Q203.44 1423.62 197.63 1423.62 Q191.82 1423.62 188.741 1419.03 Q185.685 1414.43 185.685 1405.7 Q185.685 1396.95 188.741 1392.37 Q191.82 1387.76 197.63 1387.76 Z" fill="#000000" fill-rule="evenodd" fill-opacity="1" /><path clip-path="url(#clip220)" d="M123.232 1161.87 Q119.621 1161.87 117.792 1165.44 Q115.987 1168.98 115.987 1176.11 Q115.987 1183.22 117.792 1186.78 Q119.621 1190.32 123.232 1190.32 Q126.866 1190.32 128.672 1186.78 Q130.5 1183.22 130.5 1176.11 Q130.5 1168.98 128.672 1165.44 Q126.866 1161.87 123.232 1161.87 M123.232 1158.17 Q129.042 1158.17 132.098 1162.78 Q135.176 1167.36 135.176 1176.11 Q135.176 1184.84 132.098 1189.44 Q129.042 1194.03 123.232 1194.03 Q117.422 1194.03 114.343 1189.44 Q111.288 1184.84 111.288 1176.11 Q111.288 1167.36 114.343 1162.78 Q117.422 1158.17 123.232 1158.17 Z" fill="#000000" fill-rule="evenodd" fill-opacity="1" /><path clip-path="url(#clip220)" d="M143.394 1187.48 L148.278 1187.48 L148.278 1193.36 L143.394 1193.36 L143.394 1187.48 Z" fill="#000000" fill-rule="evenodd" fill-opacity="1" /><path clip-path="url(#clip220)" d="M168.463 1161.87 Q164.852 1161.87 163.023 1165.44 Q161.218 1168.98 161.218 1176.11 Q161.218 1183.22 163.023 1186.78 Q164.852 1190.32 168.463 1190.32 Q172.097 1190.32 173.903 1186.78 Q175.732 1183.22 175.732 1176.11 Q175.732 1168.98 173.903 1165.44 Q172.097 1161.87 168.463 1161.87 M168.463 1158.17 Q174.273 1158.17 177.329 1162.78 Q180.408 1167.36 180.408 1176.11 Q180.408 1184.84 177.329 1189.44 Q174.273 1194.03 168.463 1194.03 Q162.653 1194.03 159.574 1189.44 Q156.519 1184.84 156.519 1176.11 Q156.519 1167.36 159.574 1162.78 Q162.653 1158.17 168.463 1158.17 Z" fill="#000000" fill-rule="evenodd" fill-opacity="1" /><path clip-path="url(#clip220)" d="M188.671 1158.8 L207.028 1158.8 L207.028 1162.73 L192.954 1162.73 L192.954 1171.2 Q193.972 1170.86 194.991 1170.69 Q196.009 1170.51 197.028 1170.51 Q202.815 1170.51 206.195 1173.68 Q209.574 1176.85 209.574 1182.27 Q209.574 1187.85 206.102 1190.95 Q202.63 1194.03 196.31 1194.03 Q194.134 1194.03 191.866 1193.66 Q189.621 1193.29 187.213 1192.55 L187.213 1187.85 Q189.296 1188.98 191.519 1189.54 Q193.741 1190.09 196.218 1190.09 Q200.222 1190.09 202.56 1187.99 Q204.898 1185.88 204.898 1182.27 Q204.898 1178.66 202.56 1176.55 Q200.222 1174.44 196.218 1174.44 Q194.343 1174.44 192.468 1174.86 Q190.616 1175.28 188.671 1176.16 L188.671 1158.8 Z" fill="#000000" fill-rule="evenodd" fill-opacity="1" /><path clip-path="url(#clip220)" d="M122.237 932.283 Q118.626 932.283 116.797 935.848 Q114.991 939.389 114.991 946.519 Q114.991 953.625 116.797 957.19 Q118.626 960.732 122.237 960.732 Q125.871 960.732 127.676 957.19 Q129.505 953.625 129.505 946.519 Q129.505 939.389 127.676 935.848 Q125.871 932.283 122.237 932.283 M122.237 928.579 Q128.047 928.579 131.102 933.186 Q134.181 937.769 134.181 946.519 Q134.181 955.246 131.102 959.852 Q128.047 964.435 122.237 964.435 Q116.426 964.435 113.348 959.852 Q110.292 955.246 110.292 946.519 Q110.292 937.769 113.348 933.186 Q116.426 928.579 122.237 928.579 Z" fill="#000000" fill-rule="evenodd" fill-opacity="1" /><path clip-path="url(#clip220)" d="M142.399 957.885 L147.283 957.885 L147.283 963.764 L142.399 963.764 L142.399 957.885 Z" fill="#000000" fill-rule="evenodd" fill-opacity="1" /><path clip-path="url(#clip220)" d="M158.278 959.829 L165.917 959.829 L165.917 933.463 L157.607 935.13 L157.607 930.871 L165.871 929.204 L170.547 929.204 L170.547 959.829 L178.185 959.829 L178.185 963.764 L158.278 963.764 L158.278 959.829 Z" fill="#000000" fill-rule="evenodd" fill-opacity="1" /><path clip-path="url(#clip220)" d="M197.63 932.283 Q194.019 932.283 192.19 935.848 Q190.384 939.389 190.384 946.519 Q190.384 953.625 192.19 957.19 Q194.019 960.732 197.63 960.732 Q201.264 960.732 203.07 957.19 Q204.898 953.625 204.898 946.519 Q204.898 939.389 203.07 935.848 Q201.264 932.283 197.63 932.283 M197.63 928.579 Q203.44 928.579 206.495 933.186 Q209.574 937.769 209.574 946.519 Q209.574 955.246 206.495 959.852 Q203.44 964.435 197.63 964.435 Q191.82 964.435 188.741 959.852 Q185.685 955.246 185.685 946.519 Q185.685 937.769 188.741 933.186 Q191.82 928.579 197.63 928.579 Z" fill="#000000" fill-rule="evenodd" fill-opacity="1" /><path clip-path="url(#clip220)" d="M123.232 702.692 Q119.621 702.692 117.792 706.256 Q115.987 709.798 115.987 716.928 Q115.987 724.034 117.792 727.599 Q119.621 731.14 123.232 731.14 Q126.866 731.14 128.672 727.599 Q130.5 724.034 130.5 716.928 Q130.5 709.798 128.672 706.256 Q126.866 702.692 123.232 702.692 M123.232 698.988 Q129.042 698.988 132.098 703.594 Q135.176 708.178 135.176 716.928 Q135.176 725.654 132.098 730.261 Q129.042 734.844 123.232 734.844 Q117.422 734.844 114.343 730.261 Q111.288 725.654 111.288 716.928 Q111.288 708.178 114.343 703.594 Q117.422 698.988 123.232 698.988 Z" fill="#000000" fill-rule="evenodd" fill-opacity="1" /><path clip-path="url(#clip220)" d="M143.394 728.293 L148.278 728.293 L148.278 734.173 L143.394 734.173 L143.394 728.293 Z" fill="#000000" fill-rule="evenodd" fill-opacity="1" /><path clip-path="url(#clip220)" d="M159.273 730.238 L166.912 730.238 L166.912 703.872 L158.602 705.539 L158.602 701.279 L166.866 699.613 L171.542 699.613 L171.542 730.238 L179.181 730.238 L179.181 734.173 L159.273 734.173 L159.273 730.238 Z" fill="#000000" fill-rule="evenodd" fill-opacity="1" /><path clip-path="url(#clip220)" d="M188.671 699.613 L207.028 699.613 L207.028 703.548 L192.954 703.548 L192.954 712.02 Q193.972 711.673 194.991 711.511 Q196.009 711.326 197.028 711.326 Q202.815 711.326 206.195 714.497 Q209.574 717.668 209.574 723.085 Q209.574 728.664 206.102 731.765 Q202.63 734.844 196.31 734.844 Q194.134 734.844 191.866 734.474 Q189.621 734.103 187.213 733.363 L187.213 728.664 Q189.296 729.798 191.519 730.353 Q193.741 730.909 196.218 730.909 Q200.222 730.909 202.56 728.802 Q204.898 726.696 204.898 723.085 Q204.898 719.474 202.56 717.367 Q200.222 715.261 196.218 715.261 Q194.343 715.261 192.468 715.678 Q190.616 716.094 188.671 716.974 L188.671 699.613 Z" fill="#000000" fill-rule="evenodd" fill-opacity="1" /><path clip-path="url(#clip220)" d="M122.237 473.1 Q118.626 473.1 116.797 476.665 Q114.991 480.207 114.991 487.336 Q114.991 494.443 116.797 498.007 Q118.626 501.549 122.237 501.549 Q125.871 501.549 127.676 498.007 Q129.505 494.443 129.505 487.336 Q129.505 480.207 127.676 476.665 Q125.871 473.1 122.237 473.1 M122.237 469.396 Q128.047 469.396 131.102 474.003 Q134.181 478.586 134.181 487.336 Q134.181 496.063 131.102 500.669 Q128.047 505.253 122.237 505.253 Q116.426 505.253 113.348 500.669 Q110.292 496.063 110.292 487.336 Q110.292 478.586 113.348 474.003 Q116.426 469.396 122.237 469.396 Z" fill="#000000" fill-rule="evenodd" fill-opacity="1" /><path clip-path="url(#clip220)" d="M142.399 498.702 L147.283 498.702 L147.283 504.581 L142.399 504.581 L142.399 498.702 Z" fill="#000000" fill-rule="evenodd" fill-opacity="1" /><path clip-path="url(#clip220)" d="M161.496 500.646 L177.815 500.646 L177.815 504.581 L155.871 504.581 L155.871 500.646 Q158.533 497.892 163.116 493.262 Q167.722 488.609 168.903 487.267 Q171.148 484.744 172.028 483.008 Q172.931 481.248 172.931 479.558 Q172.931 476.804 170.986 475.068 Q169.065 473.332 165.963 473.332 Q163.764 473.332 161.31 474.096 Q158.88 474.859 156.102 476.41 L156.102 471.688 Q158.926 470.554 161.38 469.975 Q163.834 469.396 165.871 469.396 Q171.241 469.396 174.435 472.082 Q177.63 474.767 177.63 479.258 Q177.63 481.387 176.82 483.308 Q176.033 485.207 173.926 487.799 Q173.347 488.47 170.246 491.688 Q167.144 494.882 161.496 500.646 Z" fill="#000000" fill-rule="evenodd" fill-opacity="1" /><path clip-path="url(#clip220)" d="M197.63 473.1 Q194.019 473.1 192.19 476.665 Q190.384 480.207 190.384 487.336 Q190.384 494.443 192.19 498.007 Q194.019 501.549 197.63 501.549 Q201.264 501.549 203.07 498.007 Q204.898 494.443 204.898 487.336 Q204.898 480.207 203.07 476.665 Q201.264 473.1 197.63 473.1 M197.63 469.396 Q203.44 469.396 206.495 474.003 Q209.574 478.586 209.574 487.336 Q209.574 496.063 206.495 500.669 Q203.44 505.253 197.63 505.253 Q191.82 505.253 188.741 500.669 Q185.685 496.063 185.685 487.336 Q185.685 478.586 188.741 474.003 Q191.82 469.396 197.63 469.396 Z" fill="#000000" fill-rule="evenodd" fill-opacity="1" /><path clip-path="url(#clip220)" d="M123.232 243.509 Q119.621 243.509 117.792 247.074 Q115.987 250.615 115.987 257.745 Q115.987 264.851 117.792 268.416 Q119.621 271.958 123.232 271.958 Q126.866 271.958 128.672 268.416 Q130.5 264.851 130.5 257.745 Q130.5 250.615 128.672 247.074 Q126.866 243.509 123.232 243.509 M123.232 239.805 Q129.042 239.805 132.098 244.412 Q135.176 248.995 135.176 257.745 Q135.176 266.472 132.098 271.078 Q129.042 275.661 123.232 275.661 Q117.422 275.661 114.343 271.078 Q111.288 266.472 111.288 257.745 Q111.288 248.995 114.343 244.412 Q117.422 239.805 123.232 239.805 Z" fill="#000000" fill-rule="evenodd" fill-opacity="1" /><path clip-path="url(#clip220)" d="M143.394 269.111 L148.278 269.111 L148.278 274.99 L143.394 274.99 L143.394 269.111 Z" fill="#000000" fill-rule="evenodd" fill-opacity="1" /><path clip-path="url(#clip220)" d="M162.491 271.055 L178.81 271.055 L178.81 274.99 L156.866 274.99 L156.866 271.055 Q159.528 268.3 164.111 263.671 Q168.718 259.018 169.898 257.675 Q172.144 255.152 173.023 253.416 Q173.926 251.657 173.926 249.967 Q173.926 247.212 171.982 245.476 Q170.06 243.74 166.959 243.74 Q164.76 243.74 162.306 244.504 Q159.875 245.268 157.098 246.819 L157.098 242.097 Q159.922 240.963 162.375 240.384 Q164.829 239.805 166.866 239.805 Q172.236 239.805 175.431 242.49 Q178.625 245.175 178.625 249.666 Q178.625 251.796 177.815 253.717 Q177.028 255.615 174.922 258.208 Q174.343 258.879 171.241 262.097 Q168.139 265.291 162.491 271.055 Z" fill="#000000" fill-rule="evenodd" fill-opacity="1" /><path clip-path="url(#clip220)" d="M188.671 240.43 L207.028 240.43 L207.028 244.365 L192.954 244.365 L192.954 252.837 Q193.972 252.49 194.991 252.328 Q196.009 252.143 197.028 252.143 Q202.815 252.143 206.195 255.314 Q209.574 258.486 209.574 263.902 Q209.574 269.481 206.102 272.583 Q202.63 275.661 196.31 275.661 Q194.134 275.661 191.866 275.291 Q189.621 274.921 187.213 274.18 L187.213 269.481 Q189.296 270.615 191.519 271.171 Q193.741 271.726 196.218 271.726 Q200.222 271.726 202.56 269.62 Q204.898 267.513 204.898 263.902 Q204.898 260.291 202.56 258.185 Q200.222 256.078 196.218 256.078 Q194.343 256.078 192.468 256.495 Q190.616 256.912 188.671 257.791 L188.671 240.43 Z" fill="#000000" fill-rule="evenodd" fill-opacity="1" /><path clip-path="url(#clip220)" d="M29.3925 803.754 Q32.9996 803.754 36.3168 806.427 Q39.634 809.068 41.663 813.383 Q43.6597 817.667 43.6597 822.272 L43.6597 833.48 L60.1491 837.57 Q60.2458 837.602 60.6644 837.699 Q61.0509 837.795 61.2763 837.795 Q62.0815 837.795 62.2747 836.797 Q62.468 835.766 62.468 833.48 Q62.468 831.998 62.7256 831.773 Q62.8866 831.644 63.1765 831.644 Q63.6274 831.644 63.9494 831.773 Q64.2393 831.902 64.3359 832.159 Q64.4325 832.385 64.4647 832.546 Q64.4969 832.707 64.4969 832.964 Q64.4969 833.641 64.4325 835.09 Q64.3681 836.507 64.3681 837.248 L64.3037 841.467 L64.4969 849.84 Q64.4969 850.839 63.6918 850.839 Q63.0799 850.839 62.8222 850.581 Q62.5324 850.323 62.5002 850.034 Q62.468 849.744 62.468 849.003 Q62.468 847.393 62.3713 846.426 Q62.2747 845.46 62.1459 844.848 Q61.9849 844.204 61.534 843.882 Q61.0831 843.528 60.6966 843.367 Q60.278 843.206 59.344 842.98 L23.9175 834.156 Q22.8547 833.898 22.6937 833.898 Q22.1462 833.898 21.953 834.22 Q21.7275 834.51 21.6309 835.348 Q21.5021 836.958 21.5021 838.182 Q21.5021 838.987 21.4699 839.309 Q21.4377 839.599 21.2767 839.856 Q21.0834 840.082 20.697 840.082 Q20.085 840.082 19.8274 839.824 Q19.5375 839.534 19.5053 839.212 Q19.4409 838.89 19.4409 838.117 L19.4409 816.733 Q19.4409 810.581 22.3717 807.168 Q25.3024 803.754 29.3925 803.754 M27.8145 809.873 Q21.5021 809.873 21.5021 818.858 L21.5021 825.171 Q21.5021 827.264 21.8886 827.779 Q22.2428 828.295 24.0142 828.745 L41.9528 833.222 L41.9528 823.915 Q41.9528 817.667 38.4424 813.77 Q36.8321 811.998 33.4827 810.936 Q30.1333 809.873 27.8145 809.873 Z" fill="#000000" fill-rule="evenodd" fill-opacity="1" /><path clip-path="url(#clip220)" d="M48.0075 796.516 Q36.8643 796.516 27.8789 792.361 Q24.1108 790.59 20.9546 788.11 Q17.7984 785.63 16.4136 783.988 Q15.0287 782.345 15.0287 781.895 Q15.0287 781.25 15.6728 781.218 Q15.9949 781.218 16.8 782.088 Q27.6212 792.716 48.0075 792.684 Q68.4582 792.684 78.8607 782.345 Q79.9879 781.218 80.3422 781.218 Q80.9863 781.218 80.9863 781.895 Q80.9863 782.345 79.6659 783.924 Q78.3454 785.502 75.3181 787.949 Q72.2907 790.397 68.5871 792.168 Q59.6016 796.516 48.0075 796.516 Z" fill="#000000" fill-rule="evenodd" fill-opacity="1" /><path clip-path="url(#clip220)" d="M45.8819 745.704 Q50.584 745.704 55.125 748.088 Q59.666 750.439 62.468 754.142 Q65.2377 757.846 65.2377 761.614 Q65.2377 763.868 64.0138 765.382 Q62.7578 766.864 60.9865 767.669 Q63.1765 768.281 68.426 769.601 Q73.6756 770.922 74.1909 770.922 Q74.4807 770.922 74.6096 770.857 Q74.7384 770.793 74.8994 770.503 Q75.0927 770.213 75.1571 769.505 Q75.2537 768.796 75.2537 767.604 Q75.2537 766.992 75.2537 766.767 Q75.2859 766.509 75.4469 766.284 Q75.608 766.026 75.9622 766.026 Q77.2827 766.026 77.2827 767.218 Q77.2827 768.281 77.186 770.471 Q77.0894 772.661 77.0894 773.756 Q77.0894 774.69 77.186 776.558 Q77.2827 778.426 77.2827 779.295 Q77.2827 780.165 76.5097 780.165 Q76.0588 780.165 75.769 780.036 Q75.5113 779.939 75.3825 779.682 Q75.2859 779.424 75.2537 779.198 Q75.2537 779.005 75.2537 778.619 Q75.2537 777.137 74.996 776.493 Q74.7706 775.849 74.2875 775.624 Q73.8366 775.366 72.5484 775.076 L43.1766 767.669 Q41.2121 767.218 39.8272 767.218 Q38.0881 767.218 37.444 767.765 Q36.7999 768.313 36.7999 769.279 Q36.7999 770.954 38.7967 772.049 Q40.7934 773.144 44.6581 774.078 Q45.7209 774.368 45.9464 774.561 Q46.1718 774.722 46.1718 775.205 Q46.1396 776.01 45.4955 776.01 Q45.3344 776.01 44.3039 775.752 Q43.2411 775.495 41.6952 775.012 Q40.1171 774.496 39.1187 773.949 Q38.4424 773.627 37.9915 773.337 Q37.5406 773.047 36.8321 772.467 Q36.1236 771.856 35.7371 770.986 Q35.3506 770.116 35.3506 769.054 Q35.3506 766.992 36.5744 765.286 Q37.7983 763.579 40.2781 763.128 Q38.1203 761.292 36.7355 759.038 Q35.3506 756.783 35.3506 754.497 Q35.3506 750.696 38.3136 748.216 Q41.2443 745.704 45.8819 745.704 M42.9834 750.471 Q40.0527 750.471 38.4424 751.598 Q36.7999 752.693 36.7999 754.69 Q36.7999 757.17 39.3119 760.036 Q41.6952 762.87 43.9174 763.45 L56.8319 766.703 L57.8947 766.896 Q58.088 766.896 58.6677 766.799 Q59.2152 766.67 60.1169 766.316 Q61.0187 765.93 61.8238 765.414 Q62.5968 764.867 63.1765 763.901 Q63.7562 762.902 63.7562 761.678 Q63.7562 759.714 62.0171 757.588 Q60.278 755.431 56.993 753.82 Q54.8674 752.822 50.2941 751.662 Q45.6887 750.471 42.9834 750.471 Z" fill="#000000" fill-rule="evenodd" fill-opacity="1" /><path clip-path="url(#clip220)" d="M80.3422 740.973 Q80.0202 740.973 79.215 740.136 Q68.3938 729.508 48.0075 729.508 Q27.5568 729.508 17.2187 739.717 Q16.0271 740.973 15.6728 740.973 Q15.0287 740.973 15.0287 740.329 Q15.0287 739.878 16.3492 738.3 Q17.6696 736.69 20.697 734.274 Q23.7243 731.827 27.428 730.023 Q36.4134 725.675 48.0075 725.675 Q59.1508 725.675 68.1362 729.83 Q71.9043 731.601 75.0605 734.081 Q78.2166 736.561 79.6015 738.203 Q80.9863 739.846 80.9863 740.329 Q80.9863 740.973 80.3422 740.973 Z" fill="#000000" fill-rule="evenodd" fill-opacity="1" /><path clip-path="url(#clip220)" d="M320.284 18.8205 L320.284 41.5461 L330.574 41.5461 Q336.285 41.5461 339.405 38.5889 Q342.524 35.6318 342.524 30.163 Q342.524 24.7348 339.405 21.7777 Q336.285 18.8205 330.574 18.8205 L320.284 18.8205 M312.101 12.096 L330.574 12.096 Q340.741 12.096 345.926 16.714 Q351.152 21.2916 351.152 30.163 Q351.152 39.1155 345.926 43.6931 Q340.741 48.2706 330.574 48.2706 L320.284 48.2706 L320.284 72.576 L312.101 72.576 L312.101 12.096 Z" fill="#000000" fill-rule="evenodd" fill-opacity="1" /><path clip-path="url(#clip220)" d="M386.638 34.1734 Q385.382 33.4443 383.883 33.1202 Q382.425 32.7556 380.643 32.7556 Q374.323 32.7556 370.921 36.8875 Q367.558 40.9789 367.558 48.6757 L367.558 72.576 L360.064 72.576 L360.064 27.2059 L367.558 27.2059 L367.558 34.2544 Q369.908 30.1225 373.675 28.1376 Q377.443 26.1121 382.83 26.1121 Q383.6 26.1121 384.532 26.2337 Q385.463 26.3147 386.598 26.5172 L386.638 34.1734 Z" fill="#000000" fill-rule="evenodd" fill-opacity="1" /><path clip-path="url(#clip220)" d="M410.214 32.4315 Q404.219 32.4315 400.735 37.1306 Q397.251 41.7891 397.251 49.9314 Q397.251 58.0738 400.695 62.7728 Q404.178 67.4314 410.214 67.4314 Q416.169 67.4314 419.653 62.7323 Q423.137 58.0333 423.137 49.9314 Q423.137 41.8701 419.653 37.1711 Q416.169 32.4315 410.214 32.4315 M410.214 26.1121 Q419.937 26.1121 425.486 32.4315 Q431.036 38.7509 431.036 49.9314 Q431.036 61.0714 425.486 67.4314 Q419.937 73.7508 410.214 73.7508 Q400.452 73.7508 394.902 67.4314 Q389.393 61.0714 389.393 49.9314 Q389.393 38.7509 394.902 32.4315 Q400.452 26.1121 410.214 26.1121 Z" fill="#000000" fill-rule="evenodd" fill-opacity="1" /><path clip-path="url(#clip220)" d="M450.764 14.324 L450.764 27.2059 L466.117 27.2059 L466.117 32.9987 L450.764 32.9987 L450.764 57.6282 Q450.764 63.1779 452.263 64.7578 Q453.802 66.3376 458.461 66.3376 L466.117 66.3376 L466.117 72.576 L458.461 72.576 Q449.832 72.576 446.551 69.3758 Q443.27 66.1351 443.27 57.6282 L443.27 32.9987 L437.801 32.9987 L437.801 27.2059 L443.27 27.2059 L443.27 14.324 L450.764 14.324 Z" fill="#000000" fill-rule="evenodd" fill-opacity="1" /><path clip-path="url(#clip220)" d="M514.728 48.0275 L514.728 51.6733 L480.457 51.6733 Q480.943 59.3701 485.075 63.421 Q489.247 67.4314 496.661 67.4314 Q500.955 67.4314 504.965 66.3781 Q509.016 65.3249 512.986 63.2184 L512.986 70.267 Q508.975 71.9684 504.762 72.8596 Q500.549 73.7508 496.215 73.7508 Q485.359 73.7508 478.999 67.4314 Q472.679 61.1119 472.679 50.3365 Q472.679 39.1965 478.675 32.6746 Q484.71 26.1121 494.919 26.1121 Q504.074 26.1121 509.38 32.0264 Q514.728 37.9003 514.728 48.0275 M507.274 45.84 Q507.193 39.7232 503.831 36.0774 Q500.509 32.4315 495 32.4315 Q488.761 32.4315 484.994 35.9558 Q481.267 39.4801 480.7 45.8805 L507.274 45.84 Z" fill="#000000" fill-rule="evenodd" fill-opacity="1" /><path clip-path="url(#clip220)" d="M526.961 27.2059 L534.415 27.2059 L534.415 72.576 L526.961 72.576 L526.961 27.2059 M526.961 9.54393 L534.415 9.54393 L534.415 18.9825 L526.961 18.9825 L526.961 9.54393 Z" fill="#000000" fill-rule="evenodd" fill-opacity="1" /><path clip-path="url(#clip220)" d="M587.725 45.1919 L587.725 72.576 L580.271 72.576 L580.271 45.4349 Q580.271 38.994 577.76 35.7938 Q575.248 32.5936 570.225 32.5936 Q564.189 32.5936 560.705 36.4419 Q557.222 40.2903 557.222 46.9338 L557.222 72.576 L549.727 72.576 L549.727 27.2059 L557.222 27.2059 L557.222 34.2544 Q559.895 30.163 563.501 28.1376 Q567.146 26.1121 571.886 26.1121 Q579.704 26.1121 583.715 30.9732 Q587.725 35.7938 587.725 45.1919 Z" fill="#000000" fill-rule="evenodd" fill-opacity="1" /><path clip-path="url(#clip220)" d="M674.576 16.7545 L674.576 25.383 Q670.444 21.5346 665.745 19.6307 Q661.087 17.7268 655.821 17.7268 Q645.45 17.7268 639.941 24.0867 Q634.432 30.4061 634.432 42.3968 Q634.432 54.3469 639.941 60.7069 Q645.45 67.0263 655.821 67.0263 Q661.087 67.0263 665.745 65.1223 Q670.444 63.2184 674.576 59.3701 L674.576 67.9175 Q670.282 70.8341 665.462 72.2924 Q660.682 73.7508 655.335 73.7508 Q641.602 73.7508 633.703 65.3654 Q625.803 56.9395 625.803 42.3968 Q625.803 27.8135 633.703 19.4281 Q641.602 11.0023 655.335 11.0023 Q660.763 11.0023 665.543 12.4606 Q670.363 13.8784 674.576 16.7545 Z" fill="#000000" fill-rule="evenodd" fill-opacity="1" /><path clip-path="url(#clip220)" d="M704.472 32.4315 Q698.477 32.4315 694.993 37.1306 Q691.509 41.7891 691.509 49.9314 Q691.509 58.0738 694.952 62.7728 Q698.436 67.4314 704.472 67.4314 Q710.427 67.4314 713.911 62.7323 Q717.394 58.0333 717.394 49.9314 Q717.394 41.8701 713.911 37.1711 Q710.427 32.4315 704.472 32.4315 M704.472 26.1121 Q714.194 26.1121 719.744 32.4315 Q725.294 38.7509 725.294 49.9314 Q725.294 61.0714 719.744 67.4314 Q714.194 73.7508 704.472 73.7508 Q694.709 73.7508 689.16 67.4314 Q683.65 61.0714 683.65 49.9314 Q683.65 38.7509 689.16 32.4315 Q694.709 26.1121 704.472 26.1121 Z" fill="#000000" fill-rule="evenodd" fill-opacity="1" /><path clip-path="url(#clip220)" d="M744.86 65.7705 L744.86 89.8329 L737.365 89.8329 L737.365 27.2059 L744.86 27.2059 L744.86 34.0924 Q747.209 30.0415 750.774 28.0971 Q754.379 26.1121 759.362 26.1121 Q767.626 26.1121 772.77 32.6746 Q777.955 39.2371 777.955 49.9314 Q777.955 60.6258 772.77 67.1883 Q767.626 73.7508 759.362 73.7508 Q754.379 73.7508 750.774 71.8063 Q747.209 69.8214 744.86 65.7705 M770.218 49.9314 Q770.218 41.7081 766.815 37.0496 Q763.453 32.3505 757.539 32.3505 Q751.625 32.3505 748.222 37.0496 Q744.86 41.7081 744.86 49.9314 Q744.86 58.1548 748.222 62.8538 Q751.625 67.5124 757.539 67.5124 Q763.453 67.5124 766.815 62.8538 Q770.218 58.1548 770.218 49.9314 Z" fill="#000000" fill-rule="evenodd" fill-opacity="1" /><path clip-path="url(#clip220)" d="M809.188 76.7889 Q806.028 84.8907 803.031 87.3618 Q800.033 89.8329 795.01 89.8329 L789.055 89.8329 L789.055 83.5945 L793.43 83.5945 Q796.509 83.5945 798.21 82.1361 Q799.911 80.6778 801.977 75.2496 L803.314 71.8468 L784.963 27.2059 L792.863 27.2059 L807.041 62.6918 L821.219 27.2059 L829.118 27.2059 L809.188 76.7889 Z" fill="#000000" fill-rule="evenodd" fill-opacity="1" /><path clip-path="url(#clip220)" d="M866.103 12.096 L877.122 12.096 L903.939 62.6918 L903.939 12.096 L911.878 12.096 L911.878 72.576 L900.86 72.576 L874.043 21.9802 L874.043 72.576 L866.103 72.576 L866.103 12.096 Z" fill="#000000" fill-rule="evenodd" fill-opacity="1" /><path clip-path="url(#clip220)" d="M927.069 54.671 L927.069 27.2059 L934.523 27.2059 L934.523 54.3874 Q934.523 60.8284 937.034 64.0691 Q939.546 67.2693 944.569 67.2693 Q950.605 67.2693 954.089 63.421 Q957.613 59.5726 957.613 52.9291 L957.613 27.2059 L965.067 27.2059 L965.067 72.576 L957.613 72.576 L957.613 65.6084 Q954.899 69.7404 951.294 71.7658 Q947.729 73.7508 942.989 73.7508 Q935.171 73.7508 931.12 68.8897 Q927.069 64.0286 927.069 54.671 M945.825 26.1121 L945.825 26.1121 Z" fill="#000000" fill-rule="evenodd" fill-opacity="1" /><path clip-path="url(#clip220)" d="M1015.74 35.9153 Q1018.54 30.8922 1022.43 28.5022 Q1026.32 26.1121 1031.58 26.1121 Q1038.67 26.1121 1042.52 31.0947 Q1046.37 36.0368 1046.37 45.1919 L1046.37 72.576 L1038.87 72.576 L1038.87 45.4349 Q1038.87 38.913 1036.57 35.7533 Q1034.26 32.5936 1029.52 32.5936 Q1023.72 32.5936 1020.36 36.4419 Q1017 40.2903 1017 46.9338 L1017 72.576 L1009.51 72.576 L1009.51 45.4349 Q1009.51 38.8725 1007.2 35.7533 Q1004.89 32.5936 1000.07 32.5936 Q994.355 32.5936 990.992 36.4824 Q987.63 40.3308 987.63 46.9338 L987.63 72.576 L980.136 72.576 L980.136 27.2059 L987.63 27.2059 L987.63 34.2544 Q990.182 30.082 993.747 28.0971 Q997.312 26.1121 1002.21 26.1121 Q1007.16 26.1121 1010.6 28.6237 Q1014.08 31.1352 1015.74 35.9153 Z" fill="#000000" fill-rule="evenodd" fill-opacity="1" /><path clip-path="url(#clip220)" d="M1093.8 49.9314 Q1093.8 41.7081 1090.4 37.0496 Q1087.04 32.3505 1081.13 32.3505 Q1075.21 32.3505 1071.81 37.0496 Q1068.45 41.7081 1068.45 49.9314 Q1068.45 58.1548 1071.81 62.8538 Q1075.21 67.5124 1081.13 67.5124 Q1087.04 67.5124 1090.4 62.8538 Q1093.8 58.1548 1093.8 49.9314 M1068.45 34.0924 Q1070.8 30.0415 1074.36 28.0971 Q1077.97 26.1121 1082.95 26.1121 Q1091.21 26.1121 1096.36 32.6746 Q1101.54 39.2371 1101.54 49.9314 Q1101.54 60.6258 1096.36 67.1883 Q1091.21 73.7508 1082.95 73.7508 Q1077.97 73.7508 1074.36 71.8063 Q1070.8 69.8214 1068.45 65.7705 L1068.45 72.576 L1060.95 72.576 L1060.95 9.54393 L1068.45 9.54393 L1068.45 34.0924 Z" fill="#000000" fill-rule="evenodd" fill-opacity="1" /><path clip-path="url(#clip220)" d="M1152.7 48.0275 L1152.7 51.6733 L1118.43 51.6733 Q1118.92 59.3701 1123.05 63.421 Q1127.22 67.4314 1134.64 67.4314 Q1138.93 67.4314 1142.94 66.3781 Q1146.99 65.3249 1150.96 63.2184 L1150.96 70.267 Q1146.95 71.9684 1142.74 72.8596 Q1138.53 73.7508 1134.19 73.7508 Q1123.34 73.7508 1116.98 67.4314 Q1110.66 61.1119 1110.66 50.3365 Q1110.66 39.1965 1116.65 32.6746 Q1122.69 26.1121 1132.9 26.1121 Q1142.05 26.1121 1147.36 32.0264 Q1152.7 37.9003 1152.7 48.0275 M1145.25 45.84 Q1145.17 39.7232 1141.81 36.0774 Q1138.49 32.4315 1132.98 32.4315 Q1126.74 32.4315 1122.97 35.9558 Q1119.24 39.4801 1118.68 45.8805 L1145.25 45.84 Z" fill="#000000" fill-rule="evenodd" fill-opacity="1" /><path clip-path="url(#clip220)" d="M1191.23 34.1734 Q1189.97 33.4443 1188.47 33.1202 Q1187.02 32.7556 1185.23 32.7556 Q1178.91 32.7556 1175.51 36.8875 Q1172.15 40.9789 1172.15 48.6757 L1172.15 72.576 L1164.65 72.576 L1164.65 27.2059 L1172.15 27.2059 L1172.15 34.2544 Q1174.5 30.1225 1178.27 28.1376 Q1182.03 26.1121 1187.42 26.1121 Q1188.19 26.1121 1189.12 26.2337 Q1190.05 26.3147 1191.19 26.5172 L1191.23 34.1734 Z" fill="#000000" fill-rule="evenodd" fill-opacity="1" /><path clip-path="url(#clip220)" d="M1248.39 9.54393 L1248.39 15.7418 L1241.26 15.7418 Q1237.25 15.7418 1235.67 17.3622 Q1234.13 18.9825 1234.13 23.1955 L1234.13 27.2059 L1246.4 27.2059 L1246.4 32.9987 L1234.13 32.9987 L1234.13 72.576 L1226.63 72.576 L1226.63 32.9987 L1219.5 32.9987 L1219.5 27.2059 L1226.63 27.2059 L1226.63 24.0462 Q1226.63 16.471 1230.16 13.0277 Q1233.68 9.54393 1241.34 9.54393 L1248.39 9.54393 Z" fill="#000000" fill-rule="evenodd" fill-opacity="1" /><path clip-path="url(#clip220)" d="M1272.21 32.4315 Q1266.21 32.4315 1262.73 37.1306 Q1259.24 41.7891 1259.24 49.9314 Q1259.24 58.0738 1262.69 62.7728 Q1266.17 67.4314 1272.21 67.4314 Q1278.16 67.4314 1281.64 62.7323 Q1285.13 58.0333 1285.13 49.9314 Q1285.13 41.8701 1281.64 37.1711 Q1278.16 32.4315 1272.21 32.4315 M1272.21 26.1121 Q1281.93 26.1121 1287.48 32.4315 Q1293.03 38.7509 1293.03 49.9314 Q1293.03 61.0714 1287.48 67.4314 Q1281.93 73.7508 1272.21 73.7508 Q1262.44 73.7508 1256.89 67.4314 Q1251.38 61.0714 1251.38 49.9314 Q1251.38 38.7509 1256.89 32.4315 Q1262.44 26.1121 1272.21 26.1121 Z" fill="#000000" fill-rule="evenodd" fill-opacity="1" /><path clip-path="url(#clip220)" d="M1331.67 34.1734 Q1330.42 33.4443 1328.92 33.1202 Q1327.46 32.7556 1325.68 32.7556 Q1319.36 32.7556 1315.96 36.8875 Q1312.59 40.9789 1312.59 48.6757 L1312.59 72.576 L1305.1 72.576 L1305.1 27.2059 L1312.59 27.2059 L1312.59 34.2544 Q1314.94 30.1225 1318.71 28.1376 Q1322.48 26.1121 1327.87 26.1121 Q1328.64 26.1121 1329.57 26.2337 Q1330.5 26.3147 1331.63 26.5172 L1331.67 34.1734 Z" fill="#000000" fill-rule="evenodd" fill-opacity="1" /><path clip-path="url(#clip220)" d="M1402.44 14.0809 L1402.44 22.0612 Q1397.78 19.8332 1393.65 18.7395 Q1389.52 17.6457 1385.67 17.6457 Q1378.99 17.6457 1375.34 20.2383 Q1371.74 22.8309 1371.74 27.611 Q1371.74 31.6214 1374.13 33.6873 Q1376.56 35.7128 1383.28 36.9686 L1388.22 37.9813 Q1397.38 39.7232 1401.71 44.1387 Q1406.09 48.5136 1406.09 55.8863 Q1406.09 64.6767 1400.17 69.2137 Q1394.3 73.7508 1382.92 73.7508 Q1378.62 73.7508 1373.76 72.7785 Q1368.94 71.8063 1363.76 69.9024 L1363.76 61.4765 Q1368.74 64.2716 1373.52 65.6895 Q1378.3 67.1073 1382.92 67.1073 Q1389.93 67.1073 1393.73 64.3527 Q1397.54 61.598 1397.54 56.4939 Q1397.54 52.0379 1394.79 49.5264 Q1392.07 47.0148 1385.83 45.759 L1380.85 44.7868 Q1371.7 42.9639 1367.61 39.075 Q1363.51 35.1862 1363.51 28.2591 Q1363.51 20.2383 1369.14 15.6203 Q1374.82 11.0023 1384.74 11.0023 Q1388.99 11.0023 1393.41 11.7719 Q1397.82 12.5416 1402.44 14.0809 Z" fill="#000000" fill-rule="evenodd" fill-opacity="1" /><path clip-path="url(#clip220)" d="M1437.4 76.7889 Q1434.24 84.8907 1431.24 87.3618 Q1428.25 89.8329 1423.22 89.8329 L1417.27 89.8329 L1417.27 83.5945 L1421.64 83.5945 Q1424.72 83.5945 1426.42 82.1361 Q1428.13 80.6778 1430.19 75.2496 L1431.53 71.8468 L1413.18 27.2059 L1421.08 27.2059 L1435.26 62.6918 L1449.43 27.2059 L1457.33 27.2059 L1437.4 76.7889 Z" fill="#000000" fill-rule="evenodd" fill-opacity="1" /><path clip-path="url(#clip220)" d="M1496.55 28.5427 L1496.55 35.5912 Q1493.39 33.9709 1489.98 33.1607 Q1486.58 32.3505 1482.93 32.3505 Q1477.38 32.3505 1474.59 34.0519 Q1471.83 35.7533 1471.83 39.156 Q1471.83 41.7486 1473.82 43.2475 Q1475.8 44.7058 1481.8 46.0426 L1484.35 46.6097 Q1492.29 48.3111 1495.61 51.4303 Q1498.98 54.509 1498.98 60.0587 Q1498.98 66.3781 1493.95 70.0644 Q1488.97 73.7508 1480.22 73.7508 Q1476.57 73.7508 1472.6 73.0216 Q1468.68 72.3329 1464.3 70.9151 L1464.3 63.2184 Q1468.43 65.3654 1472.44 66.4591 Q1476.45 67.5124 1480.38 67.5124 Q1485.65 67.5124 1488.48 65.73 Q1491.32 63.9071 1491.32 60.6258 Q1491.32 57.5877 1489.25 55.9673 Q1487.23 54.3469 1480.3 52.8481 L1477.71 52.2405 Q1470.78 50.7821 1467.7 47.7845 Q1464.62 44.7463 1464.62 39.4801 Q1464.62 33.0797 1469.16 29.5959 Q1473.7 26.1121 1482.04 26.1121 Q1486.18 26.1121 1489.82 26.7198 Q1493.47 27.3274 1496.55 28.5427 Z" fill="#000000" fill-rule="evenodd" fill-opacity="1" /><path clip-path="url(#clip220)" d="M1518.22 14.324 L1518.22 27.2059 L1533.57 27.2059 L1533.57 32.9987 L1518.22 32.9987 L1518.22 57.6282 Q1518.22 63.1779 1519.72 64.7578 Q1521.26 66.3376 1525.91 66.3376 L1533.57 66.3376 L1533.57 72.576 L1525.91 72.576 Q1517.29 72.576 1514 69.3758 Q1510.72 66.1351 1510.72 57.6282 L1510.72 32.9987 L1505.25 32.9987 L1505.25 27.2059 L1510.72 27.2059 L1510.72 14.324 L1518.22 14.324 Z" fill="#000000" fill-rule="evenodd" fill-opacity="1" /><path clip-path="url(#clip220)" d="M1582.18 48.0275 L1582.18 51.6733 L1547.91 51.6733 Q1548.4 59.3701 1552.53 63.421 Q1556.7 67.4314 1564.11 67.4314 Q1568.41 67.4314 1572.42 66.3781 Q1576.47 65.3249 1580.44 63.2184 L1580.44 70.267 Q1576.43 71.9684 1572.22 72.8596 Q1568 73.7508 1563.67 73.7508 Q1552.81 73.7508 1546.45 67.4314 Q1540.13 61.1119 1540.13 50.3365 Q1540.13 39.1965 1546.13 32.6746 Q1552.16 26.1121 1562.37 26.1121 Q1571.53 26.1121 1576.83 32.0264 Q1582.18 37.9003 1582.18 48.0275 M1574.73 45.84 Q1574.65 39.7232 1571.28 36.0774 Q1567.96 32.4315 1562.45 32.4315 Q1556.22 32.4315 1552.45 35.9558 Q1548.72 39.4801 1548.15 45.8805 L1574.73 45.84 Z" fill="#000000" fill-rule="evenodd" fill-opacity="1" /><path clip-path="url(#clip220)" d="M1629.74 35.9153 Q1632.53 30.8922 1636.42 28.5022 Q1640.31 26.1121 1645.58 26.1121 Q1652.67 26.1121 1656.52 31.0947 Q1660.36 36.0368 1660.36 45.1919 L1660.36 72.576 L1652.87 72.576 L1652.87 45.4349 Q1652.87 38.913 1650.56 35.7533 Q1648.25 32.5936 1643.51 32.5936 Q1637.72 32.5936 1634.36 36.4419 Q1630.99 40.2903 1630.99 46.9338 L1630.99 72.576 L1623.5 72.576 L1623.5 45.4349 Q1623.5 38.8725 1621.19 35.7533 Q1618.88 32.5936 1614.06 32.5936 Q1608.35 32.5936 1604.99 36.4824 Q1601.63 40.3308 1601.63 46.9338 L1601.63 72.576 L1594.13 72.576 L1594.13 27.2059 L1601.63 27.2059 L1601.63 34.2544 Q1604.18 30.082 1607.74 28.0971 Q1611.31 26.1121 1616.21 26.1121 Q1621.15 26.1121 1624.59 28.6237 Q1628.08 31.1352 1629.74 35.9153 Z" fill="#000000" fill-rule="evenodd" fill-opacity="1" /><path clip-path="url(#clip220)" d="M1697.27 27.2059 L1704.72 27.2059 L1714.04 62.6108 L1723.31 27.2059 L1732.11 27.2059 L1741.42 62.6108 L1750.7 27.2059 L1758.15 27.2059 L1746.28 72.576 L1737.49 72.576 L1727.73 35.3887 L1717.93 72.576 L1709.14 72.576 L1697.27 27.2059 Z" fill="#000000" fill-rule="evenodd" fill-opacity="1" /><path clip-path="url(#clip220)" d="M1769.45 27.2059 L1776.91 27.2059 L1776.91 72.576 L1769.45 72.576 L1769.45 27.2059 M1769.45 9.54393 L1776.91 9.54393 L1776.91 18.9825 L1769.45 18.9825 L1769.45 9.54393 Z" fill="#000000" fill-rule="evenodd" fill-opacity="1" /><path clip-path="url(#clip220)" d="M1799.88 14.324 L1799.88 27.2059 L1815.23 27.2059 L1815.23 32.9987 L1799.88 32.9987 L1799.88 57.6282 Q1799.88 63.1779 1801.38 64.7578 Q1802.92 66.3376 1807.57 66.3376 L1815.23 66.3376 L1815.23 72.576 L1807.57 72.576 Q1798.95 72.576 1795.66 69.3758 Q1792.38 66.1351 1792.38 57.6282 L1792.38 32.9987 L1786.91 32.9987 L1786.91 27.2059 L1792.38 27.2059 L1792.38 14.324 L1799.88 14.324 Z" fill="#000000" fill-rule="evenodd" fill-opacity="1" /><path clip-path="url(#clip220)" d="M1862.75 45.1919 L1862.75 72.576 L1855.29 72.576 L1855.29 45.4349 Q1855.29 38.994 1852.78 35.7938 Q1850.27 32.5936 1845.25 32.5936 Q1839.21 32.5936 1835.73 36.4419 Q1832.24 40.2903 1832.24 46.9338 L1832.24 72.576 L1824.75 72.576 L1824.75 9.54393 L1832.24 9.54393 L1832.24 34.2544 Q1834.92 30.163 1838.52 28.1376 Q1842.17 26.1121 1846.91 26.1121 Q1854.73 26.1121 1858.74 30.9732 Q1862.75 35.7938 1862.75 45.1919 Z" fill="#000000" fill-rule="evenodd" fill-opacity="1" /><path clip-path="url(#clip220)" d="M1905.12 12.096 L1937.24 12.096 L1937.24 18.9825 L1912.61 18.9825 L1912.61 33.8088 Q1914.4 33.2012 1916.18 32.9176 Q1917.96 32.5936 1919.74 32.5936 Q1929.87 32.5936 1935.78 38.1433 Q1941.7 43.6931 1941.7 53.1722 Q1941.7 62.9348 1935.62 68.3631 Q1929.55 73.7508 1918.49 73.7508 Q1914.68 73.7508 1910.71 73.1026 Q1906.78 72.4545 1902.57 71.1582 L1902.57 62.9348 Q1906.21 64.9198 1910.1 65.892 Q1913.99 66.8642 1918.33 66.8642 Q1925.33 66.8642 1929.42 63.1779 Q1933.52 59.4916 1933.52 53.1722 Q1933.52 46.8528 1929.42 43.1664 Q1925.33 39.4801 1918.33 39.4801 Q1915.04 39.4801 1911.76 40.2093 Q1908.52 40.9384 1905.12 42.4778 L1905.12 12.096 Z" fill="#000000" fill-rule="evenodd" fill-opacity="1" /><path clip-path="url(#clip220)" d="M1975.32 17.4837 Q1969 17.4837 1965.8 23.7221 Q1962.64 29.92 1962.64 42.3968 Q1962.64 54.833 1965.8 61.0714 Q1969 67.2693 1975.32 67.2693 Q1981.68 67.2693 1984.84 61.0714 Q1988.04 54.833 1988.04 42.3968 Q1988.04 29.92 1984.84 23.7221 Q1981.68 17.4837 1975.32 17.4837 M1975.32 11.0023 Q1985.49 11.0023 1990.84 19.0636 Q1996.22 27.0843 1996.22 42.3968 Q1996.22 57.6687 1990.84 65.73 Q1985.49 73.7508 1975.32 73.7508 Q1965.15 73.7508 1959.77 65.73 Q1954.42 57.6687 1954.42 42.3968 Q1954.42 27.0843 1959.77 19.0636 Q1965.15 11.0023 1975.32 11.0023 Z" fill="#000000" fill-rule="evenodd" fill-opacity="1" /><path clip-path="url(#clip220)" d="M2077.49 63.9476 L2077.49 47.7034 L2064.12 47.7034 L2064.12 40.9789 L2085.59 40.9789 L2085.59 66.9452 Q2080.85 70.3075 2075.14 72.0494 Q2069.42 73.7508 2062.94 73.7508 Q2048.76 73.7508 2040.74 65.4869 Q2032.76 57.1826 2032.76 42.3968 Q2032.76 27.5705 2040.74 19.3066 Q2048.76 11.0023 2062.94 11.0023 Q2068.86 11.0023 2074.16 12.4606 Q2079.51 13.9189 2084.01 16.7545 L2084.01 25.464 Q2079.47 21.6156 2074.37 19.6712 Q2069.26 17.7268 2063.63 17.7268 Q2052.53 17.7268 2046.94 23.9246 Q2041.39 30.1225 2041.39 42.3968 Q2041.39 54.6305 2046.94 60.8284 Q2052.53 67.0263 2063.63 67.0263 Q2067.97 67.0263 2071.37 66.2971 Q2074.77 65.5274 2077.49 63.9476 Z" fill="#000000" fill-rule="evenodd" fill-opacity="1" /><path clip-path="url(#clip220)" d="M2139.02 48.0275 L2139.02 51.6733 L2104.75 51.6733 Q2105.23 59.3701 2109.37 63.421 Q2113.54 67.4314 2120.95 67.4314 Q2125.25 67.4314 2129.26 66.3781 Q2133.31 65.3249 2137.28 63.2184 L2137.28 70.267 Q2133.27 71.9684 2129.05 72.8596 Q2124.84 73.7508 2120.51 73.7508 Q2109.65 73.7508 2103.29 67.4314 Q2096.97 61.1119 2096.97 50.3365 Q2096.97 39.1965 2102.97 32.6746 Q2109 26.1121 2119.21 26.1121 Q2128.36 26.1121 2133.67 32.0264 Q2139.02 37.9003 2139.02 48.0275 M2131.57 45.84 Q2131.48 39.7232 2128.12 36.0774 Q2124.8 32.4315 2119.29 32.4315 Q2113.05 32.4315 2109.29 35.9558 Q2105.56 39.4801 2104.99 45.8805 L2131.57 45.84 Z" fill="#000000" fill-rule="evenodd" fill-opacity="1" /><path clip-path="url(#clip220)" d="M2188.97 45.1919 L2188.97 72.576 L2181.51 72.576 L2181.51 45.4349 Q2181.51 38.994 2179 35.7938 Q2176.49 32.5936 2171.47 32.5936 Q2165.43 32.5936 2161.95 36.4419 Q2158.46 40.2903 2158.46 46.9338 L2158.46 72.576 L2150.97 72.576 L2150.97 27.2059 L2158.46 27.2059 L2158.46 34.2544 Q2161.14 30.163 2164.74 28.1376 Q2168.39 26.1121 2173.13 26.1121 Q2180.95 26.1121 2184.96 30.9732 Q2188.97 35.7938 2188.97 45.1919 Z" fill="#000000" fill-rule="evenodd" fill-opacity="1" /><path clip-path="url(#clip220)" d="M2242.64 48.0275 L2242.64 51.6733 L2208.37 51.6733 Q2208.86 59.3701 2212.99 63.421 Q2217.16 67.4314 2224.57 67.4314 Q2228.87 67.4314 2232.88 66.3781 Q2236.93 65.3249 2240.9 63.2184 L2240.9 70.267 Q2236.89 71.9684 2232.68 72.8596 Q2228.46 73.7508 2224.13 73.7508 Q2213.27 73.7508 2206.91 67.4314 Q2200.59 61.1119 2200.59 50.3365 Q2200.59 39.1965 2206.59 32.6746 Q2212.62 26.1121 2222.83 26.1121 Q2231.99 26.1121 2237.29 32.0264 Q2242.64 37.9003 2242.64 48.0275 M2235.19 45.84 Q2235.11 39.7232 2231.74 36.0774 Q2228.42 32.4315 2222.91 32.4315 Q2216.67 32.4315 2212.91 35.9558 Q2209.18 39.4801 2208.61 45.8805 L2235.19 45.84 Z" fill="#000000" fill-rule="evenodd" fill-opacity="1" /><path clip-path="url(#clip220)" d="M2283.8 28.5427 L2283.8 35.5912 Q2280.64 33.9709 2277.24 33.1607 Q2273.83 32.3505 2270.19 32.3505 Q2264.64 32.3505 2261.84 34.0519 Q2259.09 35.7533 2259.09 39.156 Q2259.09 41.7486 2261.07 43.2475 Q2263.06 44.7058 2269.05 46.0426 L2271.6 46.6097 Q2279.54 48.3111 2282.87 51.4303 Q2286.23 54.509 2286.23 60.0587 Q2286.23 66.3781 2281.21 70.0644 Q2276.22 73.7508 2267.47 73.7508 Q2263.83 73.7508 2259.86 73.0216 Q2255.93 72.3329 2251.55 70.9151 L2251.55 63.2184 Q2255.68 65.3654 2259.7 66.4591 Q2263.71 67.5124 2267.63 67.5124 Q2272.9 67.5124 2275.74 65.73 Q2278.57 63.9071 2278.57 60.6258 Q2278.57 57.5877 2276.51 55.9673 Q2274.48 54.3469 2267.55 52.8481 L2264.96 52.2405 Q2258.03 50.7821 2254.96 47.7845 Q2251.88 44.7463 2251.88 39.4801 Q2251.88 33.0797 2256.41 29.5959 Q2260.95 26.1121 2269.3 26.1121 Q2273.43 26.1121 2277.07 26.7198 Q2280.72 27.3274 2283.8 28.5427 Z" fill="#000000" fill-rule="evenodd" fill-opacity="1" /><polyline clip-path="url(#clip222)" style="stroke:#009af9; stroke-linecap:butt; stroke-linejoin:round; stroke-width:4; stroke-opacity:1; fill:none" points="
  305.211,1405.67 305.211,736.625 458.127,736.625 458.127,171.555 611.043,171.555 611.043,202.361 763.959,202.361 763.959,599.338 916.875,599.338 916.875,991.25 
  1069.79,991.25 1069.79,1230.03 1222.71,1230.03 1222.71,1343.16 1375.62,1343.16 1375.62,1386.47 1528.54,1386.47 1528.54,1400.03 1681.45,1400.03 1681.45,1404.37 
  1834.37,1404.37 1834.37,1405.38 1987.29,1405.38 1987.29,1405.61 2140.2,1405.61 2140.2,1405.66 2293.12,1405.66 2293.12,1405.67 
  "/>
<circle clip-path="url(#clip222)" cx="305.211" cy="744.041" r="14" fill="#e26f46" fill-rule="evenodd" fill-opacity="1" stroke="#000000" stroke-opacity="1" stroke-width="3.2"/>
<circle clip-path="url(#clip222)" cx="458.127" cy="160.818" r="14" fill="#e26f46" fill-rule="evenodd" fill-opacity="1" stroke="#000000" stroke-opacity="1" stroke-width="3.2"/>
<circle clip-path="url(#clip222)" cx="611.043" cy="199.047" r="14" fill="#e26f46" fill-rule="evenodd" fill-opacity="1" stroke="#000000" stroke-opacity="1" stroke-width="3.2"/>
<circle clip-path="url(#clip222)" cx="763.959" cy="602.999" r="14" fill="#e26f46" fill-rule="evenodd" fill-opacity="1" stroke="#000000" stroke-opacity="1" stroke-width="3.2"/>
<circle clip-path="url(#clip222)" cx="916.875" cy="993.75" r="14" fill="#e26f46" fill-rule="evenodd" fill-opacity="1" stroke="#000000" stroke-opacity="1" stroke-width="3.2"/>
<circle clip-path="url(#clip222)" cx="1069.79" cy="1231.85" r="14" fill="#e26f46" fill-rule="evenodd" fill-opacity="1" stroke="#000000" stroke-opacity="1" stroke-width="3.2"/>
<circle clip-path="url(#clip222)" cx="1222.71" cy="1342.89" r="14" fill="#e26f46" fill-rule="evenodd" fill-opacity="1" stroke="#000000" stroke-opacity="1" stroke-width="3.2"/>
<circle clip-path="url(#clip222)" cx="1375.62" cy="1385.72" r="14" fill="#e26f46" fill-rule="evenodd" fill-opacity="1" stroke="#000000" stroke-opacity="1" stroke-width="3.2"/>
<circle clip-path="url(#clip222)" cx="1528.54" cy="1399.98" r="14" fill="#e26f46" fill-rule="evenodd" fill-opacity="1" stroke="#000000" stroke-opacity="1" stroke-width="3.2"/>
<circle clip-path="url(#clip222)" cx="1681.45" cy="1404.19" r="14" fill="#e26f46" fill-rule="evenodd" fill-opacity="1" stroke="#000000" stroke-opacity="1" stroke-width="3.2"/>
<circle clip-path="url(#clip222)" cx="1834.37" cy="1405.31" r="14" fill="#e26f46" fill-rule="evenodd" fill-opacity="1" stroke="#000000" stroke-opacity="1" stroke-width="3.2"/>
<circle clip-path="url(#clip222)" cx="1987.29" cy="1405.59" r="14" fill="#e26f46" fill-rule="evenodd" fill-opacity="1" stroke="#000000" stroke-opacity="1" stroke-width="3.2"/>
<circle clip-path="url(#clip222)" cx="2140.2" cy="1405.65" r="14" fill="#e26f46" fill-rule="evenodd" fill-opacity="1" stroke="#000000" stroke-opacity="1" stroke-width="3.2"/>
<path clip-path="url(#clip220)" d="
M1295.33 322.977 L2282.52 322.977 L2282.52 167.457 L1295.33 167.457  Z
  " fill="#ffffff" fill-rule="evenodd" fill-opacity="1"/>
<polyline clip-path="url(#clip220)" style="stroke:#000000; stroke-linecap:butt; stroke-linejoin:round; stroke-width:4; stroke-opacity:1; fill:none" points="
  1295.33,322.977 2282.52,322.977 2282.52,167.457 1295.33,167.457 1295.33,322.977 
  "/>
<polyline clip-path="url(#clip220)" style="stroke:#009af9; stroke-linecap:butt; stroke-linejoin:round; stroke-width:4; stroke-opacity:1; fill:none" points="
  1318.75,219.297 1459.23,219.297 
  "/>
<path clip-path="url(#clip220)" d="M1504.88 203.151 L1504.88 207.711 Q1502.22 206.438 1499.86 205.813 Q1497.5 205.188 1495.3 205.188 Q1491.48 205.188 1489.4 206.67 Q1487.34 208.151 1487.34 210.882 Q1487.34 213.174 1488.7 214.355 Q1490.09 215.512 1493.93 216.23 L1496.76 216.808 Q1501.99 217.804 1504.47 220.327 Q1506.97 222.827 1506.97 227.04 Q1506.97 232.063 1503.59 234.656 Q1500.23 237.248 1493.73 237.248 Q1491.27 237.248 1488.5 236.693 Q1485.74 236.137 1482.78 235.049 L1482.78 230.234 Q1485.62 231.831 1488.36 232.642 Q1491.09 233.452 1493.73 233.452 Q1497.73 233.452 1499.91 231.878 Q1502.08 230.304 1502.08 227.387 Q1502.08 224.841 1500.51 223.406 Q1498.96 221.97 1495.39 221.253 L1492.55 220.697 Q1487.31 219.656 1484.98 217.433 Q1482.64 215.211 1482.64 211.253 Q1482.64 206.67 1485.86 204.031 Q1489.1 201.392 1494.77 201.392 Q1497.2 201.392 1499.72 201.832 Q1502.25 202.271 1504.88 203.151 Z" fill="#000000" fill-rule="evenodd" fill-opacity="1" /><path clip-path="url(#clip220)" d="M1518.29 203.29 L1518.29 210.651 L1527.06 210.651 L1527.06 213.961 L1518.29 213.961 L1518.29 228.035 Q1518.29 231.206 1519.14 232.109 Q1520.02 233.012 1522.68 233.012 L1527.06 233.012 L1527.06 236.577 L1522.68 236.577 Q1517.75 236.577 1515.88 234.748 Q1514 232.896 1514 228.035 L1514 213.961 L1510.88 213.961 L1510.88 210.651 L1514 210.651 L1514 203.29 L1518.29 203.29 Z" fill="#000000" fill-rule="evenodd" fill-opacity="1" /><path clip-path="url(#clip220)" d="M1542.71 213.637 Q1539.28 213.637 1537.29 216.322 Q1535.3 218.984 1535.3 223.637 Q1535.3 228.29 1537.27 230.975 Q1539.26 233.637 1542.71 233.637 Q1546.11 233.637 1548.1 230.952 Q1550.09 228.267 1550.09 223.637 Q1550.09 219.031 1548.1 216.345 Q1546.11 213.637 1542.71 213.637 M1542.71 210.026 Q1548.26 210.026 1551.43 213.637 Q1554.61 217.248 1554.61 223.637 Q1554.61 230.003 1551.43 233.637 Q1548.26 237.248 1542.71 237.248 Q1537.13 237.248 1533.96 233.637 Q1530.81 230.003 1530.81 223.637 Q1530.81 217.248 1533.96 213.637 Q1537.13 210.026 1542.71 210.026 Z" fill="#000000" fill-rule="evenodd" fill-opacity="1" /><path clip-path="url(#clip220)" d="M1580.32 211.646 L1580.32 215.628 Q1578.52 214.632 1576.69 214.146 Q1574.88 213.637 1573.03 213.637 Q1568.89 213.637 1566.6 216.276 Q1564.3 218.892 1564.3 223.637 Q1564.3 228.382 1566.6 231.021 Q1568.89 233.637 1573.03 233.637 Q1574.88 233.637 1576.69 233.151 Q1578.52 232.642 1580.32 231.646 L1580.32 235.581 Q1578.54 236.415 1576.62 236.831 Q1574.72 237.248 1572.57 237.248 Q1566.71 237.248 1563.26 233.568 Q1559.81 229.887 1559.81 223.637 Q1559.81 217.294 1563.29 213.66 Q1566.78 210.026 1572.85 210.026 Q1574.81 210.026 1576.69 210.443 Q1578.56 210.836 1580.32 211.646 Z" fill="#000000" fill-rule="evenodd" fill-opacity="1" /><path clip-path="url(#clip220)" d="M1609.28 220.929 L1609.28 236.577 L1605.02 236.577 L1605.02 221.068 Q1605.02 217.387 1603.59 215.558 Q1602.15 213.73 1599.28 213.73 Q1595.83 213.73 1593.84 215.929 Q1591.85 218.128 1591.85 221.924 L1591.85 236.577 L1587.57 236.577 L1587.57 200.558 L1591.85 200.558 L1591.85 214.679 Q1593.38 212.341 1595.44 211.183 Q1597.52 210.026 1600.23 210.026 Q1604.7 210.026 1606.99 212.804 Q1609.28 215.558 1609.28 220.929 Z" fill="#000000" fill-rule="evenodd" fill-opacity="1" /><path clip-path="url(#clip220)" d="M1629.56 223.544 Q1624.4 223.544 1622.41 224.725 Q1620.42 225.906 1620.42 228.753 Q1620.42 231.021 1621.9 232.364 Q1623.4 233.683 1625.97 233.683 Q1629.51 233.683 1631.64 231.183 Q1633.8 228.66 1633.8 224.494 L1633.8 223.544 L1629.56 223.544 M1638.05 221.785 L1638.05 236.577 L1633.8 236.577 L1633.8 232.642 Q1632.34 235.003 1630.16 236.137 Q1627.99 237.248 1624.84 237.248 Q1620.86 237.248 1618.49 235.026 Q1616.16 232.781 1616.16 229.031 Q1616.16 224.656 1619.07 222.433 Q1622.01 220.211 1627.82 220.211 L1633.8 220.211 L1633.8 219.794 Q1633.8 216.855 1631.85 215.257 Q1629.93 213.637 1626.43 213.637 Q1624.21 213.637 1622.11 214.17 Q1620 214.702 1618.05 215.767 L1618.05 211.832 Q1620.39 210.929 1622.59 210.489 Q1624.79 210.026 1626.87 210.026 Q1632.5 210.026 1635.28 212.943 Q1638.05 215.859 1638.05 221.785 Z" fill="#000000" fill-rule="evenodd" fill-opacity="1" /><path clip-path="url(#clip220)" d="M1663.36 211.415 L1663.36 215.443 Q1661.55 214.517 1659.61 214.054 Q1657.66 213.591 1655.58 213.591 Q1652.41 213.591 1650.81 214.563 Q1649.24 215.535 1649.24 217.48 Q1649.24 218.961 1650.37 219.818 Q1651.5 220.651 1654.93 221.415 L1656.39 221.739 Q1660.92 222.711 1662.82 224.494 Q1664.74 226.253 1664.74 229.424 Q1664.74 233.035 1661.87 235.142 Q1659.03 237.248 1654.03 237.248 Q1651.94 237.248 1649.67 236.831 Q1647.43 236.438 1644.93 235.628 L1644.93 231.23 Q1647.29 232.456 1649.58 233.081 Q1651.87 233.683 1654.12 233.683 Q1657.13 233.683 1658.75 232.665 Q1660.37 231.623 1660.37 229.748 Q1660.37 228.012 1659.19 227.086 Q1658.03 226.16 1654.07 225.304 L1652.59 224.956 Q1648.63 224.123 1646.87 222.41 Q1645.11 220.674 1645.11 217.665 Q1645.11 214.007 1647.71 212.017 Q1650.3 210.026 1655.07 210.026 Q1657.43 210.026 1659.51 210.373 Q1661.6 210.72 1663.36 211.415 Z" fill="#000000" fill-rule="evenodd" fill-opacity="1" /><path clip-path="url(#clip220)" d="M1675.74 203.29 L1675.74 210.651 L1684.51 210.651 L1684.51 213.961 L1675.74 213.961 L1675.74 228.035 Q1675.74 231.206 1676.6 232.109 Q1677.48 233.012 1680.14 233.012 L1684.51 233.012 L1684.51 236.577 L1680.14 236.577 Q1675.21 236.577 1673.33 234.748 Q1671.46 232.896 1671.46 228.035 L1671.46 213.961 L1668.33 213.961 L1668.33 210.651 L1671.46 210.651 L1671.46 203.29 L1675.74 203.29 Z" fill="#000000" fill-rule="evenodd" fill-opacity="1" /><path clip-path="url(#clip220)" d="M1690.11 210.651 L1694.37 210.651 L1694.37 236.577 L1690.11 236.577 L1690.11 210.651 M1690.11 200.558 L1694.37 200.558 L1694.37 205.952 L1690.11 205.952 L1690.11 200.558 Z" fill="#000000" fill-rule="evenodd" fill-opacity="1" /><path clip-path="url(#clip220)" d="M1721.94 211.646 L1721.94 215.628 Q1720.14 214.632 1718.31 214.146 Q1716.5 213.637 1714.65 213.637 Q1710.51 213.637 1708.22 216.276 Q1705.92 218.892 1705.92 223.637 Q1705.92 228.382 1708.22 231.021 Q1710.51 233.637 1714.65 233.637 Q1716.5 233.637 1718.31 233.151 Q1720.14 232.642 1721.94 231.646 L1721.94 235.581 Q1720.16 236.415 1718.24 236.831 Q1716.34 237.248 1714.19 237.248 Q1708.33 237.248 1704.88 233.568 Q1701.43 229.887 1701.43 223.637 Q1701.43 217.294 1704.91 213.66 Q1708.4 210.026 1714.47 210.026 Q1716.43 210.026 1718.31 210.443 Q1720.18 210.836 1721.94 211.646 Z" fill="#000000" fill-rule="evenodd" fill-opacity="1" /><path clip-path="url(#clip220)" d="M1765.32 203.151 L1765.32 207.711 Q1762.66 206.438 1760.3 205.813 Q1757.94 205.188 1755.74 205.188 Q1751.92 205.188 1749.84 206.67 Q1747.78 208.151 1747.78 210.882 Q1747.78 213.174 1749.14 214.355 Q1750.53 215.512 1754.37 216.23 L1757.2 216.808 Q1762.43 217.804 1764.91 220.327 Q1767.41 222.827 1767.41 227.04 Q1767.41 232.063 1764.03 234.656 Q1760.67 237.248 1754.17 237.248 Q1751.71 237.248 1748.93 236.693 Q1746.18 236.137 1743.22 235.049 L1743.22 230.234 Q1746.06 231.831 1748.79 232.642 Q1751.53 233.452 1754.17 233.452 Q1758.17 233.452 1760.35 231.878 Q1762.52 230.304 1762.52 227.387 Q1762.52 224.841 1760.95 223.406 Q1759.4 221.97 1755.83 221.253 L1752.98 220.697 Q1747.75 219.656 1745.42 217.433 Q1743.08 215.211 1743.08 211.253 Q1743.08 206.67 1746.29 204.031 Q1749.54 201.392 1755.21 201.392 Q1757.64 201.392 1760.16 201.832 Q1762.68 202.271 1765.32 203.151 Z" fill="#000000" fill-rule="evenodd" fill-opacity="1" /><path clip-path="url(#clip220)" d="M1774.51 210.651 L1778.77 210.651 L1778.77 236.577 L1774.51 236.577 L1774.51 210.651 M1774.51 200.558 L1778.77 200.558 L1778.77 205.952 L1774.51 205.952 L1774.51 200.558 Z" fill="#000000" fill-rule="evenodd" fill-opacity="1" /><path clip-path="url(#clip220)" d="M1807.87 215.628 Q1809.47 212.757 1811.69 211.392 Q1813.91 210.026 1816.92 210.026 Q1820.97 210.026 1823.17 212.873 Q1825.37 215.697 1825.37 220.929 L1825.37 236.577 L1821.09 236.577 L1821.09 221.068 Q1821.09 217.341 1819.77 215.535 Q1818.45 213.73 1815.74 213.73 Q1812.43 213.73 1810.51 215.929 Q1808.59 218.128 1808.59 221.924 L1808.59 236.577 L1804.3 236.577 L1804.3 221.068 Q1804.3 217.318 1802.98 215.535 Q1801.66 213.73 1798.91 213.73 Q1795.65 213.73 1793.73 215.952 Q1791.8 218.151 1791.8 221.924 L1791.8 236.577 L1787.52 236.577 L1787.52 210.651 L1791.8 210.651 L1791.8 214.679 Q1793.26 212.295 1795.3 211.16 Q1797.34 210.026 1800.14 210.026 Q1802.96 210.026 1804.93 211.461 Q1806.92 212.896 1807.87 215.628 Z" fill="#000000" fill-rule="evenodd" fill-opacity="1" /><path clip-path="url(#clip220)" d="M1833.42 226.345 L1833.42 210.651 L1837.68 210.651 L1837.68 226.183 Q1837.68 229.864 1839.12 231.716 Q1840.55 233.544 1843.42 233.544 Q1846.87 233.544 1848.86 231.345 Q1850.88 229.146 1850.88 225.35 L1850.88 210.651 L1855.14 210.651 L1855.14 236.577 L1850.88 236.577 L1850.88 232.595 Q1849.33 234.956 1847.27 236.114 Q1845.23 237.248 1842.52 237.248 Q1838.05 237.248 1835.74 234.47 Q1833.42 231.693 1833.42 226.345 M1844.14 210.026 L1844.14 210.026 Z" fill="#000000" fill-rule="evenodd" fill-opacity="1" /><path clip-path="url(#clip220)" d="M1863.91 200.558 L1868.17 200.558 L1868.17 236.577 L1863.91 236.577 L1863.91 200.558 Z" fill="#000000" fill-rule="evenodd" fill-opacity="1" /><path clip-path="url(#clip220)" d="M1888.86 223.544 Q1883.7 223.544 1881.71 224.725 Q1879.72 225.906 1879.72 228.753 Q1879.72 231.021 1881.2 232.364 Q1882.71 233.683 1885.28 233.683 Q1888.82 233.683 1890.95 231.183 Q1893.1 228.66 1893.1 224.494 L1893.1 223.544 L1888.86 223.544 M1897.36 221.785 L1897.36 236.577 L1893.1 236.577 L1893.1 232.642 Q1891.64 235.003 1889.47 236.137 Q1887.29 237.248 1884.14 237.248 Q1880.16 237.248 1877.8 235.026 Q1875.46 232.781 1875.46 229.031 Q1875.46 224.656 1878.38 222.433 Q1881.32 220.211 1887.13 220.211 L1893.1 220.211 L1893.1 219.794 Q1893.1 216.855 1891.16 215.257 Q1889.23 213.637 1885.74 213.637 Q1883.52 213.637 1881.41 214.17 Q1879.3 214.702 1877.36 215.767 L1877.36 211.832 Q1879.7 210.929 1881.9 210.489 Q1884.09 210.026 1886.18 210.026 Q1891.8 210.026 1894.58 212.943 Q1897.36 215.859 1897.36 221.785 Z" fill="#000000" fill-rule="evenodd" fill-opacity="1" /><path clip-path="url(#clip220)" d="M1910.34 203.29 L1910.34 210.651 L1919.12 210.651 L1919.12 213.961 L1910.34 213.961 L1910.34 228.035 Q1910.34 231.206 1911.2 232.109 Q1912.08 233.012 1914.74 233.012 L1919.12 233.012 L1919.12 236.577 L1914.74 236.577 Q1909.81 236.577 1907.94 234.748 Q1906.06 232.896 1906.06 228.035 L1906.06 213.961 L1902.94 213.961 L1902.94 210.651 L1906.06 210.651 L1906.06 203.29 L1910.34 203.29 Z" fill="#000000" fill-rule="evenodd" fill-opacity="1" /><path clip-path="url(#clip220)" d="M1924.72 210.651 L1928.98 210.651 L1928.98 236.577 L1924.72 236.577 L1924.72 210.651 M1924.72 200.558 L1928.98 200.558 L1928.98 205.952 L1924.72 205.952 L1924.72 200.558 Z" fill="#000000" fill-rule="evenodd" fill-opacity="1" /><path clip-path="url(#clip220)" d="M1947.94 213.637 Q1944.51 213.637 1942.52 216.322 Q1940.53 218.984 1940.53 223.637 Q1940.53 228.29 1942.5 230.975 Q1944.49 233.637 1947.94 233.637 Q1951.34 233.637 1953.33 230.952 Q1955.32 228.267 1955.32 223.637 Q1955.32 219.031 1953.33 216.345 Q1951.34 213.637 1947.94 213.637 M1947.94 210.026 Q1953.49 210.026 1956.66 213.637 Q1959.84 217.248 1959.84 223.637 Q1959.84 230.003 1956.66 233.637 Q1953.49 237.248 1947.94 237.248 Q1942.36 237.248 1939.19 233.637 Q1936.04 230.003 1936.04 223.637 Q1936.04 217.248 1939.19 213.637 Q1942.36 210.026 1947.94 210.026 Z" fill="#000000" fill-rule="evenodd" fill-opacity="1" /><path clip-path="url(#clip220)" d="M1988.45 220.929 L1988.45 236.577 L1984.19 236.577 L1984.19 221.068 Q1984.19 217.387 1982.75 215.558 Q1981.32 213.73 1978.45 213.73 Q1975 213.73 1973.01 215.929 Q1971.02 218.128 1971.02 221.924 L1971.02 236.577 L1966.73 236.577 L1966.73 210.651 L1971.02 210.651 L1971.02 214.679 Q1972.54 212.341 1974.6 211.183 Q1976.69 210.026 1979.4 210.026 Q1983.86 210.026 1986.15 212.804 Q1988.45 215.558 1988.45 220.929 Z" fill="#000000" fill-rule="evenodd" fill-opacity="1" /><path clip-path="url(#clip220)" d="M2023.75 206.623 L2017.4 223.822 L2030.11 223.822 L2023.75 206.623 M2021.11 202.017 L2026.41 202.017 L2039.58 236.577 L2034.72 236.577 L2031.57 227.711 L2015.99 227.711 L2012.84 236.577 L2007.91 236.577 L2021.11 202.017 Z" fill="#000000" fill-rule="evenodd" fill-opacity="1" /><path clip-path="url(#clip220)" d="M2044.44 200.558 L2048.7 200.558 L2048.7 236.577 L2044.44 236.577 L2044.44 200.558 Z" fill="#000000" fill-rule="evenodd" fill-opacity="1" /><path clip-path="url(#clip220)" d="M2074.67 223.313 Q2074.67 218.683 2072.75 216.137 Q2070.85 213.591 2067.4 213.591 Q2063.98 213.591 2062.06 216.137 Q2060.16 218.683 2060.16 223.313 Q2060.16 227.919 2062.06 230.466 Q2063.98 233.012 2067.4 233.012 Q2070.85 233.012 2072.75 230.466 Q2074.67 227.919 2074.67 223.313 M2078.93 233.359 Q2078.93 239.98 2075.99 243.197 Q2073.05 246.438 2066.99 246.438 Q2064.74 246.438 2062.75 246.091 Q2060.76 245.767 2058.89 245.072 L2058.89 240.929 Q2060.76 241.947 2062.59 242.433 Q2064.42 242.919 2066.32 242.919 Q2070.51 242.919 2072.59 240.72 Q2074.67 238.544 2074.67 234.123 L2074.67 232.017 Q2073.35 234.308 2071.29 235.443 Q2069.23 236.577 2066.36 236.577 Q2061.59 236.577 2058.68 232.943 Q2055.76 229.308 2055.76 223.313 Q2055.76 217.294 2058.68 213.66 Q2061.59 210.026 2066.36 210.026 Q2069.23 210.026 2071.29 211.16 Q2073.35 212.295 2074.67 214.586 L2074.67 210.651 L2078.93 210.651 L2078.93 233.359 Z" fill="#000000" fill-rule="evenodd" fill-opacity="1" /><path clip-path="url(#clip220)" d="M2097.75 213.637 Q2094.33 213.637 2092.33 216.322 Q2090.34 218.984 2090.34 223.637 Q2090.34 228.29 2092.31 230.975 Q2094.3 233.637 2097.75 233.637 Q2101.15 233.637 2103.14 230.952 Q2105.14 228.267 2105.14 223.637 Q2105.14 219.031 2103.14 216.345 Q2101.15 213.637 2097.75 213.637 M2097.75 210.026 Q2103.31 210.026 2106.48 213.637 Q2109.65 217.248 2109.65 223.637 Q2109.65 230.003 2106.48 233.637 Q2103.31 237.248 2097.75 237.248 Q2092.17 237.248 2089 233.637 Q2085.85 230.003 2085.85 223.637 Q2085.85 217.248 2089 213.637 Q2092.17 210.026 2097.75 210.026 Z" fill="#000000" fill-rule="evenodd" fill-opacity="1" /><path clip-path="url(#clip220)" d="M2131.73 214.632 Q2131.01 214.216 2130.16 214.031 Q2129.33 213.822 2128.31 213.822 Q2124.7 213.822 2122.75 216.183 Q2120.83 218.521 2120.83 222.919 L2120.83 236.577 L2116.55 236.577 L2116.55 210.651 L2120.83 210.651 L2120.83 214.679 Q2122.17 212.318 2124.33 211.183 Q2126.48 210.026 2129.56 210.026 Q2130 210.026 2130.53 210.095 Q2131.06 210.142 2131.71 210.257 L2131.73 214.632 Z" fill="#000000" fill-rule="evenodd" fill-opacity="1" /><path clip-path="url(#clip220)" d="M2136.2 210.651 L2140.46 210.651 L2140.46 236.577 L2136.2 236.577 L2136.2 210.651 M2136.2 200.558 L2140.46 200.558 L2140.46 205.952 L2136.2 205.952 L2136.2 200.558 Z" fill="#000000" fill-rule="evenodd" fill-opacity="1" /><path clip-path="url(#clip220)" d="M2153.58 203.29 L2153.58 210.651 L2162.36 210.651 L2162.36 213.961 L2153.58 213.961 L2153.58 228.035 Q2153.58 231.206 2154.44 232.109 Q2155.32 233.012 2157.98 233.012 L2162.36 233.012 L2162.36 236.577 L2157.98 236.577 Q2153.05 236.577 2151.18 234.748 Q2149.3 232.896 2149.3 228.035 L2149.3 213.961 L2146.18 213.961 L2146.18 210.651 L2149.3 210.651 L2149.3 203.29 L2153.58 203.29 Z" fill="#000000" fill-rule="evenodd" fill-opacity="1" /><path clip-path="url(#clip220)" d="M2189.51 220.929 L2189.51 236.577 L2185.25 236.577 L2185.25 221.068 Q2185.25 217.387 2183.82 215.558 Q2182.38 213.73 2179.51 213.73 Q2176.06 213.73 2174.07 215.929 Q2172.08 218.128 2172.08 221.924 L2172.08 236.577 L2167.8 236.577 L2167.8 200.558 L2172.08 200.558 L2172.08 214.679 Q2173.61 212.341 2175.67 211.183 Q2177.75 210.026 2180.46 210.026 Q2184.93 210.026 2187.22 212.804 Q2189.51 215.558 2189.51 220.929 Z" fill="#000000" fill-rule="evenodd" fill-opacity="1" /><path clip-path="url(#clip220)" d="M2218.19 215.628 Q2219.79 212.757 2222.01 211.392 Q2224.23 210.026 2227.24 210.026 Q2231.29 210.026 2233.49 212.873 Q2235.69 215.697 2235.69 220.929 L2235.69 236.577 L2231.41 236.577 L2231.41 221.068 Q2231.41 217.341 2230.09 215.535 Q2228.77 213.73 2226.06 213.73 Q2222.75 213.73 2220.83 215.929 Q2218.91 218.128 2218.91 221.924 L2218.91 236.577 L2214.63 236.577 L2214.63 221.068 Q2214.63 217.318 2213.31 215.535 Q2211.99 213.73 2209.23 213.73 Q2205.97 213.73 2204.05 215.952 Q2202.13 218.151 2202.13 221.924 L2202.13 236.577 L2197.84 236.577 L2197.84 210.651 L2202.13 210.651 L2202.13 214.679 Q2203.58 212.295 2205.62 211.16 Q2207.66 210.026 2210.46 210.026 Q2213.28 210.026 2215.25 211.461 Q2217.24 212.896 2218.19 215.628 Z" fill="#000000" fill-rule="evenodd" fill-opacity="1" /><circle clip-path="url(#clip220)" cx="1388.99" cy="271.137" r="23" fill="#e26f46" fill-rule="evenodd" fill-opacity="1" stroke="#000000" stroke-opacity="1" stroke-width="5.12"/>
<path clip-path="url(#clip220)" d="M1482.64 253.857 L1487.31 253.857 L1487.31 284.482 L1504.14 284.482 L1504.14 288.417 L1482.64 288.417 L1482.64 253.857 Z" fill="#000000" fill-rule="evenodd" fill-opacity="1" /><path clip-path="url(#clip220)" d="M1509.05 253.857 L1515.35 253.857 L1530.67 282.769 L1530.67 253.857 L1535.21 253.857 L1535.21 288.417 L1528.91 288.417 L1513.59 259.505 L1513.59 288.417 L1509.05 288.417 L1509.05 253.857 Z" fill="#000000" fill-rule="evenodd" fill-opacity="1" /><path clip-path="url(#clip220)" d="M1556.06 258.463 L1549.72 275.662 L1562.43 275.662 L1556.06 258.463 M1553.43 253.857 L1558.73 253.857 L1571.9 288.417 L1567.04 288.417 L1563.89 279.551 L1548.31 279.551 L1545.16 288.417 L1540.23 288.417 L1553.43 253.857 Z" fill="#000000" fill-rule="evenodd" fill-opacity="1" /><path clip-path="url(#clip220)" d="M1603.56 258.463 L1597.22 275.662 L1609.93 275.662 L1603.56 258.463 M1600.93 253.857 L1606.23 253.857 L1619.4 288.417 L1614.54 288.417 L1611.39 279.551 L1595.81 279.551 L1592.66 288.417 L1587.73 288.417 L1600.93 253.857 Z" fill="#000000" fill-rule="evenodd" fill-opacity="1" /><path clip-path="url(#clip220)" d="M1628.38 284.528 L1628.38 298.278 L1624.1 298.278 L1624.1 262.491 L1628.38 262.491 L1628.38 266.426 Q1629.72 264.111 1631.76 263 Q1633.82 261.866 1636.67 261.866 Q1641.39 261.866 1644.33 265.616 Q1647.29 269.366 1647.29 275.477 Q1647.29 281.588 1644.33 285.338 Q1641.39 289.088 1636.67 289.088 Q1633.82 289.088 1631.76 287.977 Q1629.72 286.843 1628.38 284.528 M1642.87 275.477 Q1642.87 270.778 1640.92 268.116 Q1639 265.431 1635.62 265.431 Q1632.24 265.431 1630.3 268.116 Q1628.38 270.778 1628.38 275.477 Q1628.38 280.176 1630.3 282.861 Q1632.24 285.523 1635.62 285.523 Q1639 285.523 1640.92 282.861 Q1642.87 280.176 1642.87 275.477 Z" fill="#000000" fill-rule="evenodd" fill-opacity="1" /><path clip-path="url(#clip220)" d="M1658.47 284.528 L1658.47 298.278 L1654.19 298.278 L1654.19 262.491 L1658.47 262.491 L1658.47 266.426 Q1659.81 264.111 1661.85 263 Q1663.91 261.866 1666.76 261.866 Q1671.48 261.866 1674.42 265.616 Q1677.38 269.366 1677.38 275.477 Q1677.38 281.588 1674.42 285.338 Q1671.48 289.088 1666.76 289.088 Q1663.91 289.088 1661.85 287.977 Q1659.81 286.843 1658.47 284.528 M1672.96 275.477 Q1672.96 270.778 1671.02 268.116 Q1669.1 265.431 1665.72 265.431 Q1662.34 265.431 1660.39 268.116 Q1658.47 270.778 1658.47 275.477 Q1658.47 280.176 1660.39 282.861 Q1662.34 285.523 1665.72 285.523 Q1669.1 285.523 1671.02 282.861 Q1672.96 280.176 1672.96 275.477 Z" fill="#000000" fill-rule="evenodd" fill-opacity="1" /><path clip-path="url(#clip220)" d="M1699.47 266.472 Q1698.75 266.056 1697.89 265.871 Q1697.06 265.662 1696.04 265.662 Q1692.43 265.662 1690.48 268.023 Q1688.56 270.361 1688.56 274.759 L1688.56 288.417 L1684.28 288.417 L1684.28 262.491 L1688.56 262.491 L1688.56 266.519 Q1689.91 264.158 1692.06 263.023 Q1694.21 261.866 1697.29 261.866 Q1697.73 261.866 1698.26 261.935 Q1698.79 261.982 1699.44 262.097 L1699.47 266.472 Z" fill="#000000" fill-rule="evenodd" fill-opacity="1" /><path clip-path="url(#clip220)" d="M1712.94 265.477 Q1709.51 265.477 1707.52 268.162 Q1705.53 270.824 1705.53 275.477 Q1705.53 280.13 1707.5 282.815 Q1709.49 285.477 1712.94 285.477 Q1716.34 285.477 1718.33 282.792 Q1720.32 280.107 1720.32 275.477 Q1720.32 270.871 1718.33 268.185 Q1716.34 265.477 1712.94 265.477 M1712.94 261.866 Q1718.49 261.866 1721.67 265.477 Q1724.84 269.088 1724.84 275.477 Q1724.84 281.843 1721.67 285.477 Q1718.49 289.088 1712.94 289.088 Q1707.36 289.088 1704.19 285.477 Q1701.04 281.843 1701.04 275.477 Q1701.04 269.088 1704.19 265.477 Q1707.36 261.866 1712.94 261.866 Z" fill="#000000" fill-rule="evenodd" fill-opacity="1" /><path clip-path="url(#clip220)" d="M1751.99 262.491 L1742.61 275.107 L1752.48 288.417 L1747.45 288.417 L1739.91 278.232 L1732.36 288.417 L1727.34 288.417 L1737.41 274.852 L1728.19 262.491 L1733.22 262.491 L1740.09 271.727 L1746.97 262.491 L1751.99 262.491 Z" fill="#000000" fill-rule="evenodd" fill-opacity="1" /><path clip-path="url(#clip220)" d="M1758.49 262.491 L1762.75 262.491 L1762.75 288.417 L1758.49 288.417 L1758.49 262.491 M1758.49 252.398 L1762.75 252.398 L1762.75 257.792 L1758.49 257.792 L1758.49 252.398 Z" fill="#000000" fill-rule="evenodd" fill-opacity="1" /><path clip-path="url(#clip220)" d="M1791.85 267.468 Q1793.45 264.597 1795.67 263.232 Q1797.89 261.866 1800.9 261.866 Q1804.95 261.866 1807.15 264.713 Q1809.35 267.537 1809.35 272.769 L1809.35 288.417 L1805.07 288.417 L1805.07 272.908 Q1805.07 269.181 1803.75 267.375 Q1802.43 265.57 1799.72 265.57 Q1796.41 265.57 1794.49 267.769 Q1792.57 269.968 1792.57 273.764 L1792.57 288.417 L1788.29 288.417 L1788.29 272.908 Q1788.29 269.158 1786.97 267.375 Q1785.65 265.57 1782.89 265.57 Q1779.63 265.57 1777.71 267.792 Q1775.79 269.991 1775.79 273.764 L1775.79 288.417 L1771.5 288.417 L1771.5 262.491 L1775.79 262.491 L1775.79 266.519 Q1777.24 264.135 1779.28 263 Q1781.32 261.866 1784.12 261.866 Q1786.94 261.866 1788.91 263.301 Q1790.9 264.736 1791.85 267.468 Z" fill="#000000" fill-rule="evenodd" fill-opacity="1" /><path clip-path="url(#clip220)" d="M1829.63 275.384 Q1824.47 275.384 1822.47 276.565 Q1820.48 277.746 1820.48 280.593 Q1820.48 282.861 1821.97 284.204 Q1823.47 285.523 1826.04 285.523 Q1829.58 285.523 1831.71 283.023 Q1833.86 280.5 1833.86 276.334 L1833.86 275.384 L1829.63 275.384 M1838.12 273.625 L1838.12 288.417 L1833.86 288.417 L1833.86 284.482 Q1832.41 286.843 1830.23 287.977 Q1828.05 289.088 1824.91 289.088 Q1820.92 289.088 1818.56 286.866 Q1816.22 284.621 1816.22 280.871 Q1816.22 276.496 1819.14 274.273 Q1822.08 272.051 1827.89 272.051 L1833.86 272.051 L1833.86 271.634 Q1833.86 268.695 1831.92 267.097 Q1830 265.477 1826.5 265.477 Q1824.28 265.477 1822.17 266.01 Q1820.07 266.542 1818.12 267.607 L1818.12 263.672 Q1820.46 262.769 1822.66 262.329 Q1824.86 261.866 1826.94 261.866 Q1832.57 261.866 1835.35 264.783 Q1838.12 267.699 1838.12 273.625 Z" fill="#000000" fill-rule="evenodd" fill-opacity="1" /><path clip-path="url(#clip220)" d="M1851.11 255.13 L1851.11 262.491 L1859.88 262.491 L1859.88 265.801 L1851.11 265.801 L1851.11 279.875 Q1851.11 283.046 1851.97 283.949 Q1852.85 284.852 1855.51 284.852 L1859.88 284.852 L1859.88 288.417 L1855.51 288.417 Q1850.58 288.417 1848.7 286.588 Q1846.83 284.736 1846.83 279.875 L1846.83 265.801 L1843.7 265.801 L1843.7 262.491 L1846.83 262.491 L1846.83 255.13 L1851.11 255.13 Z" fill="#000000" fill-rule="evenodd" fill-opacity="1" /><path clip-path="url(#clip220)" d="M1865.48 262.491 L1869.74 262.491 L1869.74 288.417 L1865.48 288.417 L1865.48 262.491 M1865.48 252.398 L1869.74 252.398 L1869.74 257.792 L1865.48 257.792 L1865.48 252.398 Z" fill="#000000" fill-rule="evenodd" fill-opacity="1" /><path clip-path="url(#clip220)" d="M1888.7 265.477 Q1885.28 265.477 1883.28 268.162 Q1881.29 270.824 1881.29 275.477 Q1881.29 280.13 1883.26 282.815 Q1885.25 285.477 1888.7 285.477 Q1892.1 285.477 1894.09 282.792 Q1896.09 280.107 1896.09 275.477 Q1896.09 270.871 1894.09 268.185 Q1892.1 265.477 1888.7 265.477 M1888.7 261.866 Q1894.26 261.866 1897.43 265.477 Q1900.6 269.088 1900.6 275.477 Q1900.6 281.843 1897.43 285.477 Q1894.26 289.088 1888.7 289.088 Q1883.12 289.088 1879.95 285.477 Q1876.8 281.843 1876.8 275.477 Q1876.8 269.088 1879.95 265.477 Q1883.12 261.866 1888.7 261.866 Z" fill="#000000" fill-rule="evenodd" fill-opacity="1" /><path clip-path="url(#clip220)" d="M1929.21 272.769 L1929.21 288.417 L1924.95 288.417 L1924.95 272.908 Q1924.95 269.227 1923.52 267.398 Q1922.08 265.57 1919.21 265.57 Q1915.76 265.57 1913.77 267.769 Q1911.78 269.968 1911.78 273.764 L1911.78 288.417 L1907.5 288.417 L1907.5 262.491 L1911.78 262.491 L1911.78 266.519 Q1913.31 264.181 1915.37 263.023 Q1917.45 261.866 1920.16 261.866 Q1924.63 261.866 1926.92 264.644 Q1929.21 267.398 1929.21 272.769 Z" fill="#000000" fill-rule="evenodd" fill-opacity="1" /></svg>
