<?xml version="1.0" encoding="utf-8"?>
<svg xmlns="http://www.w3.org/2000/svg" xmlns:xlink="http://www.w3.org/1999/xlink" width="600" height="400" viewBox="0 0 2400 1600">
<defs>
  <clipPath id="clip150">
    <rect x="0" y="0" width="2400" height="1600"/>
  </clipPath>
</defs>
<path clip-path="url(#clip150)" d="
M0 1600 L2400 1600 L2400 0 L0 0  Z
  " fill="#ffffff" fill-rule="evenodd" fill-opacity="1"/>
<defs>
  <clipPath id="clip151">
    <rect x="480" y="0" width="1681" height="1600"/>
  </clipPath>
</defs>
<defs>
  <clipPath id="clip152">
    <rect x="246" y="123" width="2108" height="1321"/>
  </clipPath>
</defs>
<path clip-path="url(#clip150)" d="
M246.06 1443.01 L2352.76 1443.01 L2352.76 123.472 L246.06 123.472  Z
  " fill="#ffffff" fill-rule="evenodd" fill-opacity="1"/>
<polyline clip-path="url(#clip150)" style="stroke:#000000; stroke-linecap:butt; stroke-linejoin:round; stroke-width:4; stroke-opacity:1; fill:none" points="
  246.06,1443.01 2352.76,1443.01 
  "/>
<polyline clip-path="url(#clip150)" style="stroke:#000000; stroke-linecap:butt; stroke-linejoin:round; stroke-width:4; stroke-opacity:1; fill:none" points="
  305.684,1443.01 305.684,1424.11 
  "/>
<polyline clip-path="url(#clip150)" style="stroke:#000000; stroke-linecap:butt; stroke-linejoin:round; stroke-width:4; stroke-opacity:1; fill:none" points="
  790.427,1443.01 790.427,1424.11 
  "/>
<polyline clip-path="url(#clip150)" style="stroke:#000000; stroke-linecap:butt; stroke-linejoin:round; stroke-width:4; stroke-opacity:1; fill:none" points="
  1275.17,1443.01 1275.17,1424.11 
  "/>
<polyline clip-path="url(#clip150)" style="stroke:#000000; stroke-linecap:butt; stroke-linejoin:round; stroke-width:4; stroke-opacity:1; fill:none" points="
  1759.91,1443.01 1759.91,1424.11 
  "/>
<polyline clip-path="url(#clip150)" style="stroke:#000000; stroke-linecap:butt; stroke-linejoin:round; stroke-width:4; stroke-opacity:1; fill:none" points="
  2244.66,1443.01 2244.66,1424.11 
  "/>
<path clip-path="url(#clip150)" d="M305.684 1472.2 Q302.073 1472.2 300.244 1475.77 Q298.438 1479.31 298.438 1486.44 Q298.438 1493.55 300.244 1497.11 Q302.073 1500.65 305.684 1500.65 Q309.318 1500.65 311.123 1497.11 Q312.952 1493.55 312.952 1486.44 Q312.952 1479.31 311.123 1475.77 Q309.318 1472.2 305.684 1472.2 M305.684 1468.5 Q311.494 1468.5 314.549 1473.11 Q317.628 1477.69 317.628 1486.44 Q317.628 1495.17 314.549 1499.77 Q311.494 1504.36 305.684 1504.36 Q299.874 1504.36 296.795 1499.77 Q293.739 1495.17 293.739 1486.44 Q293.739 1477.69 296.795 1473.11 Q299.874 1468.5 305.684 1468.5 Z" fill="#000000" fill-rule="evenodd" fill-opacity="1" /><path clip-path="url(#clip150)" d="M765.115 1499.75 L772.754 1499.75 L772.754 1473.38 L764.444 1475.05 L764.444 1470.79 L772.707 1469.12 L777.383 1469.12 L777.383 1499.75 L785.022 1499.75 L785.022 1503.68 L765.115 1503.68 L765.115 1499.75 Z" fill="#000000" fill-rule="evenodd" fill-opacity="1" /><path clip-path="url(#clip150)" d="M804.467 1472.2 Q800.855 1472.2 799.027 1475.77 Q797.221 1479.31 797.221 1486.44 Q797.221 1493.55 799.027 1497.11 Q800.855 1500.65 804.467 1500.65 Q808.101 1500.65 809.906 1497.11 Q811.735 1493.55 811.735 1486.44 Q811.735 1479.31 809.906 1475.77 Q808.101 1472.2 804.467 1472.2 M804.467 1468.5 Q810.277 1468.5 813.332 1473.11 Q816.411 1477.69 816.411 1486.44 Q816.411 1495.17 813.332 1499.77 Q810.277 1504.36 804.467 1504.36 Q798.656 1504.36 795.578 1499.77 Q792.522 1495.17 792.522 1486.44 Q792.522 1477.69 795.578 1473.11 Q798.656 1468.5 804.467 1468.5 Z" fill="#000000" fill-rule="evenodd" fill-opacity="1" /><path clip-path="url(#clip150)" d="M1253.94 1499.75 L1270.26 1499.75 L1270.26 1503.68 L1248.32 1503.68 L1248.32 1499.75 Q1250.98 1496.99 1255.56 1492.36 Q1260.17 1487.71 1261.35 1486.37 Q1263.6 1483.85 1264.48 1482.11 Q1265.38 1480.35 1265.38 1478.66 Q1265.38 1475.91 1263.43 1474.17 Q1261.51 1472.43 1258.41 1472.43 Q1256.21 1472.43 1253.76 1473.2 Q1251.33 1473.96 1248.55 1475.51 L1248.55 1470.79 Q1251.37 1469.66 1253.83 1469.08 Q1256.28 1468.5 1258.32 1468.5 Q1263.69 1468.5 1266.88 1471.18 Q1270.08 1473.87 1270.08 1478.36 Q1270.08 1480.49 1269.27 1482.41 Q1268.48 1484.31 1266.37 1486.9 Q1265.8 1487.57 1262.69 1490.79 Q1259.59 1493.99 1253.94 1499.75 Z" fill="#000000" fill-rule="evenodd" fill-opacity="1" /><path clip-path="url(#clip150)" d="M1290.08 1472.2 Q1286.47 1472.2 1284.64 1475.77 Q1282.83 1479.31 1282.83 1486.44 Q1282.83 1493.55 1284.64 1497.11 Q1286.47 1500.65 1290.08 1500.65 Q1293.71 1500.65 1295.52 1497.11 Q1297.35 1493.55 1297.35 1486.44 Q1297.35 1479.31 1295.52 1475.77 Q1293.71 1472.2 1290.08 1472.2 M1290.08 1468.5 Q1295.89 1468.5 1298.94 1473.11 Q1302.02 1477.69 1302.02 1486.44 Q1302.02 1495.17 1298.94 1499.77 Q1295.89 1504.36 1290.08 1504.36 Q1284.27 1504.36 1281.19 1499.77 Q1278.13 1495.17 1278.13 1486.44 Q1278.13 1477.69 1281.19 1473.11 Q1284.27 1468.5 1290.08 1468.5 Z" fill="#000000" fill-rule="evenodd" fill-opacity="1" /><path clip-path="url(#clip150)" d="M1748.76 1485.05 Q1752.11 1485.77 1753.99 1488.04 Q1755.89 1490.3 1755.89 1493.64 Q1755.89 1498.75 1752.37 1501.55 Q1748.85 1504.36 1742.37 1504.36 Q1740.19 1504.36 1737.88 1503.92 Q1735.59 1503.5 1733.13 1502.64 L1733.13 1498.13 Q1735.08 1499.26 1737.39 1499.84 Q1739.71 1500.42 1742.23 1500.42 Q1746.63 1500.42 1748.92 1498.68 Q1751.23 1496.95 1751.23 1493.64 Q1751.23 1490.58 1749.08 1488.87 Q1746.95 1487.13 1743.13 1487.13 L1739.1 1487.13 L1739.1 1483.29 L1743.32 1483.29 Q1746.77 1483.29 1748.6 1481.93 Q1750.42 1480.54 1750.42 1477.94 Q1750.42 1475.28 1748.53 1473.87 Q1746.65 1472.43 1743.13 1472.43 Q1741.21 1472.43 1739.01 1472.85 Q1736.81 1473.27 1734.17 1474.15 L1734.17 1469.98 Q1736.84 1469.24 1739.15 1468.87 Q1741.49 1468.5 1743.55 1468.5 Q1748.87 1468.5 1751.97 1470.93 Q1755.08 1473.34 1755.08 1477.46 Q1755.08 1480.33 1753.43 1482.32 Q1751.79 1484.29 1748.76 1485.05 Z" fill="#000000" fill-rule="evenodd" fill-opacity="1" /><path clip-path="url(#clip150)" d="M1774.75 1472.2 Q1771.14 1472.2 1769.31 1475.77 Q1767.51 1479.31 1767.51 1486.44 Q1767.51 1493.55 1769.31 1497.11 Q1771.14 1500.65 1774.75 1500.65 Q1778.39 1500.65 1780.19 1497.11 Q1782.02 1493.55 1782.02 1486.44 Q1782.02 1479.31 1780.19 1475.77 Q1778.39 1472.2 1774.75 1472.2 M1774.75 1468.5 Q1780.56 1468.5 1783.62 1473.11 Q1786.7 1477.69 1786.7 1486.44 Q1786.7 1495.17 1783.62 1499.77 Q1780.56 1504.36 1774.75 1504.36 Q1768.94 1504.36 1765.86 1499.77 Q1762.81 1495.17 1762.81 1486.44 Q1762.81 1477.69 1765.86 1473.11 Q1768.94 1468.5 1774.75 1468.5 Z" fill="#000000" fill-rule="evenodd" fill-opacity="1" /><path clip-path="url(#clip150)" d="M2232.83 1473.2 L2221.02 1491.65 L2232.83 1491.65 L2232.83 1473.2 M2231.6 1469.12 L2237.48 1469.12 L2237.48 1491.65 L2242.41 1491.65 L2242.41 1495.54 L2237.48 1495.54 L2237.48 1503.68 L2232.83 1503.68 L2232.83 1495.54 L2217.23 1495.54 L2217.23 1491.02 L2231.6 1469.12 Z" fill="#000000" fill-rule="evenodd" fill-opacity="1" /><path clip-path="url(#clip150)" d="M2260.14 1472.2 Q2256.53 1472.2 2254.7 1475.77 Q2252.9 1479.31 2252.9 1486.44 Q2252.9 1493.55 2254.7 1497.11 Q2256.53 1500.65 2260.14 1500.65 Q2263.78 1500.65 2265.58 1497.11 Q2267.41 1493.55 2267.41 1486.44 Q2267.41 1479.31 2265.58 1475.77 Q2263.78 1472.2 2260.14 1472.2 M2260.14 1468.5 Q2265.95 1468.5 2269.01 1473.11 Q2272.09 1477.69 2272.09 1486.44 Q2272.09 1495.17 2269.01 1499.77 Q2265.95 1504.36 2260.14 1504.36 Q2254.33 1504.36 2251.26 1499.77 Q2248.2 1495.17 2248.2 1486.44 Q2248.2 1477.69 2251.26 1473.11 Q2254.33 1468.5 2260.14 1468.5 Z" fill="#000000" fill-rule="evenodd" fill-opacity="1" /><path clip-path="url(#clip150)" d="M1317.44 1536.96 Q1317.44 1541.66 1315.06 1546.2 Q1312.71 1550.74 1309 1553.55 Q1305.3 1556.31 1301.53 1556.31 Q1299.28 1556.31 1297.76 1555.09 Q1296.28 1553.84 1295.48 1552.06 Q1294.86 1554.25 1293.54 1559.5 Q1292.22 1564.75 1292.22 1565.27 Q1292.22 1565.56 1292.29 1565.69 Q1292.35 1565.82 1292.64 1565.98 Q1292.93 1566.17 1293.64 1566.23 Q1294.35 1566.33 1295.54 1566.33 Q1296.15 1566.33 1296.38 1566.33 Q1296.64 1566.36 1296.86 1566.52 Q1297.12 1566.69 1297.12 1567.04 Q1297.12 1568.36 1295.93 1568.36 Q1294.86 1568.36 1292.67 1568.26 Q1290.48 1568.17 1289.39 1568.17 Q1288.46 1568.17 1286.59 1568.26 Q1284.72 1568.36 1283.85 1568.36 Q1282.98 1568.36 1282.98 1567.59 Q1282.98 1567.14 1283.11 1566.85 Q1283.21 1566.59 1283.46 1566.46 Q1283.72 1566.36 1283.95 1566.33 Q1284.14 1566.33 1284.53 1566.33 Q1286.01 1566.33 1286.65 1566.07 Q1287.3 1565.85 1287.52 1565.36 Q1287.78 1564.91 1288.07 1563.63 L1295.48 1534.25 Q1295.93 1532.29 1295.93 1530.9 Q1295.93 1529.17 1295.38 1528.52 Q1294.83 1527.88 1293.87 1527.88 Q1292.19 1527.88 1291.1 1529.87 Q1290 1531.87 1289.07 1535.74 Q1288.78 1536.8 1288.58 1537.02 Q1288.42 1537.25 1287.94 1537.25 Q1287.13 1537.22 1287.13 1536.57 Q1287.13 1536.41 1287.39 1535.38 Q1287.65 1534.32 1288.13 1532.77 Q1288.65 1531.19 1289.2 1530.2 Q1289.52 1529.52 1289.81 1529.07 Q1290.1 1528.62 1290.68 1527.91 Q1291.29 1527.2 1292.16 1526.81 Q1293.03 1526.43 1294.09 1526.43 Q1296.15 1526.43 1297.86 1527.65 Q1299.57 1528.88 1300.02 1531.36 Q1301.85 1529.2 1304.11 1527.81 Q1306.36 1526.43 1308.65 1526.43 Q1312.45 1526.43 1314.93 1529.39 Q1317.44 1532.32 1317.44 1536.96 M1312.67 1534.06 Q1312.67 1531.13 1311.55 1529.52 Q1310.45 1527.88 1308.46 1527.88 Q1305.98 1527.88 1303.11 1530.39 Q1300.27 1532.77 1299.7 1534.99 L1296.44 1547.91 L1296.25 1548.97 Q1296.25 1549.17 1296.35 1549.74 Q1296.47 1550.29 1296.83 1551.19 Q1297.22 1552.1 1297.73 1552.9 Q1298.28 1553.67 1299.24 1554.25 Q1300.24 1554.83 1301.47 1554.83 Q1303.43 1554.83 1305.56 1553.09 Q1307.71 1551.36 1309.32 1548.07 Q1310.32 1545.94 1311.48 1541.37 Q1312.67 1536.77 1312.67 1534.06 Z" fill="#000000" fill-rule="evenodd" fill-opacity="1" /><polyline clip-path="url(#clip150)" style="stroke:#000000; stroke-linecap:butt; stroke-linejoin:round; stroke-width:4; stroke-opacity:1; fill:none" points="
  246.06,1443.01 246.06,123.472 
  "/>
<polyline clip-path="url(#clip150)" style="stroke:#000000; stroke-linecap:butt; stroke-linejoin:round; stroke-width:4; stroke-opacity:1; fill:none" points="
  246.06,1405.67 264.958,1405.67 
  "/>
<polyline clip-path="url(#clip150)" style="stroke:#000000; stroke-linecap:butt; stroke-linejoin:round; stroke-width:4; stroke-opacity:1; fill:none" points="
  246.06,1115.21 264.958,1115.21 
  "/>
<polyline clip-path="url(#clip150)" style="stroke:#000000; stroke-linecap:butt; stroke-linejoin:round; stroke-width:4; stroke-opacity:1; fill:none" points="
  246.06,824.757 264.958,824.757 
  "/>
<polyline clip-path="url(#clip150)" style="stroke:#000000; stroke-linecap:butt; stroke-linejoin:round; stroke-width:4; stroke-opacity:1; fill:none" points="
  246.06,534.303 264.958,534.303 
  "/>
<polyline clip-path="url(#clip150)" style="stroke:#000000; stroke-linecap:butt; stroke-linejoin:round; stroke-width:4; stroke-opacity:1; fill:none" points="
  246.06,243.848 264.958,243.848 
  "/>
<path clip-path="url(#clip150)" d="M122.723 1391.47 Q119.112 1391.47 117.283 1395.03 Q115.477 1398.57 115.477 1405.7 Q115.477 1412.81 117.283 1416.37 Q119.112 1419.91 122.723 1419.91 Q126.357 1419.91 128.163 1416.37 Q129.991 1412.81 129.991 1405.7 Q129.991 1398.57 128.163 1395.03 Q126.357 1391.47 122.723 1391.47 M122.723 1387.76 Q128.533 1387.76 131.588 1392.37 Q134.667 1396.95 134.667 1405.7 Q134.667 1414.43 131.588 1419.03 Q128.533 1423.62 122.723 1423.62 Q116.913 1423.62 113.834 1419.03 Q110.778 1414.43 110.778 1405.7 Q110.778 1396.95 113.834 1392.37 Q116.913 1387.76 122.723 1387.76 Z" fill="#000000" fill-rule="evenodd" fill-opacity="1" /><path clip-path="url(#clip150)" d="M142.885 1417.07 L147.769 1417.07 L147.769 1422.95 L142.885 1422.95 L142.885 1417.07 Z" fill="#000000" fill-rule="evenodd" fill-opacity="1" /><path clip-path="url(#clip150)" d="M167.954 1391.47 Q164.343 1391.47 162.514 1395.03 Q160.709 1398.57 160.709 1405.7 Q160.709 1412.81 162.514 1416.37 Q164.343 1419.91 167.954 1419.91 Q171.588 1419.91 173.394 1416.37 Q175.222 1412.81 175.222 1405.7 Q175.222 1398.57 173.394 1395.03 Q171.588 1391.47 167.954 1391.47 M167.954 1387.76 Q173.764 1387.76 176.82 1392.37 Q179.898 1396.95 179.898 1405.7 Q179.898 1414.43 176.82 1419.03 Q173.764 1423.62 167.954 1423.62 Q162.144 1423.62 159.065 1419.03 Q156.01 1414.43 156.01 1405.7 Q156.01 1396.95 159.065 1392.37 Q162.144 1387.76 167.954 1387.76 Z" fill="#000000" fill-rule="evenodd" fill-opacity="1" /><path clip-path="url(#clip150)" d="M198.116 1391.47 Q194.505 1391.47 192.676 1395.03 Q190.871 1398.57 190.871 1405.7 Q190.871 1412.81 192.676 1416.37 Q194.505 1419.91 198.116 1419.91 Q201.75 1419.91 203.556 1416.37 Q205.384 1412.81 205.384 1405.7 Q205.384 1398.57 203.556 1395.03 Q201.75 1391.47 198.116 1391.47 M198.116 1387.76 Q203.926 1387.76 206.982 1392.37 Q210.06 1396.95 210.06 1405.7 Q210.06 1414.43 206.982 1419.03 Q203.926 1423.62 198.116 1423.62 Q192.306 1423.62 189.227 1419.03 Q186.171 1414.43 186.171 1405.7 Q186.171 1396.95 189.227 1392.37 Q192.306 1387.76 198.116 1387.76 Z" fill="#000000" fill-rule="evenodd" fill-opacity="1" /><path clip-path="url(#clip150)" d="M124.32 1101.01 Q120.709 1101.01 118.88 1104.58 Q117.075 1108.12 117.075 1115.25 Q117.075 1122.35 118.88 1125.92 Q120.709 1129.46 124.32 1129.46 Q127.954 1129.46 129.76 1125.92 Q131.588 1122.35 131.588 1115.25 Q131.588 1108.12 129.76 1104.58 Q127.954 1101.01 124.32 1101.01 M124.32 1097.31 Q130.13 1097.31 133.186 1101.91 Q136.264 1106.5 136.264 1115.25 Q136.264 1123.97 133.186 1128.58 Q130.13 1133.16 124.32 1133.16 Q118.51 1133.16 115.431 1128.58 Q112.376 1123.97 112.376 1115.25 Q112.376 1106.5 115.431 1101.91 Q118.51 1097.31 124.32 1097.31 Z" fill="#000000" fill-rule="evenodd" fill-opacity="1" /><path clip-path="url(#clip150)" d="M144.482 1126.61 L149.366 1126.61 L149.366 1132.49 L144.482 1132.49 L144.482 1126.61 Z" fill="#000000" fill-rule="evenodd" fill-opacity="1" /><path clip-path="url(#clip150)" d="M169.551 1101.01 Q165.94 1101.01 164.111 1104.58 Q162.306 1108.12 162.306 1115.25 Q162.306 1122.35 164.111 1125.92 Q165.94 1129.46 169.551 1129.46 Q173.185 1129.46 174.991 1125.92 Q176.82 1122.35 176.82 1115.25 Q176.82 1108.12 174.991 1104.58 Q173.185 1101.01 169.551 1101.01 M169.551 1097.31 Q175.361 1097.31 178.417 1101.91 Q181.496 1106.5 181.496 1115.25 Q181.496 1123.97 178.417 1128.58 Q175.361 1133.16 169.551 1133.16 Q163.741 1133.16 160.662 1128.58 Q157.607 1123.97 157.607 1115.25 Q157.607 1106.5 160.662 1101.91 Q163.741 1097.31 169.551 1097.31 Z" fill="#000000" fill-rule="evenodd" fill-opacity="1" /><path clip-path="url(#clip150)" d="M193.741 1128.56 L210.06 1128.56 L210.06 1132.49 L188.116 1132.49 L188.116 1128.56 Q190.778 1125.8 195.361 1121.17 Q199.968 1116.52 201.148 1115.18 Q203.394 1112.65 204.273 1110.92 Q205.176 1109.16 205.176 1107.47 Q205.176 1104.71 203.232 1102.98 Q201.31 1101.24 198.208 1101.24 Q196.009 1101.24 193.556 1102.01 Q191.125 1102.77 188.347 1104.32 L188.347 1099.6 Q191.171 1098.46 193.625 1097.89 Q196.079 1097.31 198.116 1097.31 Q203.486 1097.31 206.681 1099.99 Q209.875 1102.68 209.875 1107.17 Q209.875 1109.3 209.065 1111.22 Q208.278 1113.12 206.171 1115.71 Q205.593 1116.38 202.491 1119.6 Q199.389 1122.79 193.741 1128.56 Z" fill="#000000" fill-rule="evenodd" fill-opacity="1" /><path clip-path="url(#clip150)" d="M122.237 810.556 Q118.626 810.556 116.797 814.121 Q114.991 817.663 114.991 824.792 Q114.991 831.899 116.797 835.463 Q118.626 839.005 122.237 839.005 Q125.871 839.005 127.676 835.463 Q129.505 831.899 129.505 824.792 Q129.505 817.663 127.676 814.121 Q125.871 810.556 122.237 810.556 M122.237 806.852 Q128.047 806.852 131.102 811.459 Q134.181 816.042 134.181 824.792 Q134.181 833.519 131.102 838.125 Q128.047 842.709 122.237 842.709 Q116.426 842.709 113.348 838.125 Q110.292 833.519 110.292 824.792 Q110.292 816.042 113.348 811.459 Q116.426 806.852 122.237 806.852 Z" fill="#000000" fill-rule="evenodd" fill-opacity="1" /><path clip-path="url(#clip150)" d="M142.399 836.158 L147.283 836.158 L147.283 842.037 L142.399 842.037 L142.399 836.158 Z" fill="#000000" fill-rule="evenodd" fill-opacity="1" /><path clip-path="url(#clip150)" d="M167.468 810.556 Q163.857 810.556 162.028 814.121 Q160.223 817.663 160.223 824.792 Q160.223 831.899 162.028 835.463 Q163.857 839.005 167.468 839.005 Q171.102 839.005 172.908 835.463 Q174.736 831.899 174.736 824.792 Q174.736 817.663 172.908 814.121 Q171.102 810.556 167.468 810.556 M167.468 806.852 Q173.278 806.852 176.334 811.459 Q179.412 816.042 179.412 824.792 Q179.412 833.519 176.334 838.125 Q173.278 842.709 167.468 842.709 Q161.658 842.709 158.579 838.125 Q155.523 833.519 155.523 824.792 Q155.523 816.042 158.579 811.459 Q161.658 806.852 167.468 806.852 Z" fill="#000000" fill-rule="evenodd" fill-opacity="1" /><path clip-path="url(#clip150)" d="M200.477 811.551 L188.671 830 L200.477 830 L200.477 811.551 M199.25 807.477 L205.13 807.477 L205.13 830 L210.06 830 L210.06 833.889 L205.13 833.889 L205.13 842.037 L200.477 842.037 L200.477 833.889 L184.875 833.889 L184.875 829.375 L199.25 807.477 Z" fill="#000000" fill-rule="evenodd" fill-opacity="1" /><path clip-path="url(#clip150)" d="M122.561 520.101 Q118.95 520.101 117.121 523.666 Q115.315 527.208 115.315 534.337 Q115.315 541.444 117.121 545.009 Q118.95 548.55 122.561 548.55 Q126.195 548.55 128 545.009 Q129.829 541.444 129.829 534.337 Q129.829 527.208 128 523.666 Q126.195 520.101 122.561 520.101 M122.561 516.398 Q128.371 516.398 131.426 521.004 Q134.505 525.587 134.505 534.337 Q134.505 543.064 131.426 547.671 Q128.371 552.254 122.561 552.254 Q116.751 552.254 113.672 547.671 Q110.616 543.064 110.616 534.337 Q110.616 525.587 113.672 521.004 Q116.751 516.398 122.561 516.398 Z" fill="#000000" fill-rule="evenodd" fill-opacity="1" /><path clip-path="url(#clip150)" d="M142.723 545.703 L147.607 545.703 L147.607 551.583 L142.723 551.583 L142.723 545.703 Z" fill="#000000" fill-rule="evenodd" fill-opacity="1" /><path clip-path="url(#clip150)" d="M167.792 520.101 Q164.181 520.101 162.352 523.666 Q160.547 527.208 160.547 534.337 Q160.547 541.444 162.352 545.009 Q164.181 548.55 167.792 548.55 Q171.426 548.55 173.232 545.009 Q175.06 541.444 175.06 534.337 Q175.06 527.208 173.232 523.666 Q171.426 520.101 167.792 520.101 M167.792 516.398 Q173.602 516.398 176.658 521.004 Q179.736 525.587 179.736 534.337 Q179.736 543.064 176.658 547.671 Q173.602 552.254 167.792 552.254 Q161.982 552.254 158.903 547.671 Q155.848 543.064 155.848 534.337 Q155.848 525.587 158.903 521.004 Q161.982 516.398 167.792 516.398 Z" fill="#000000" fill-rule="evenodd" fill-opacity="1" /><path clip-path="url(#clip150)" d="M198.533 532.439 Q195.384 532.439 193.533 534.592 Q191.704 536.745 191.704 540.495 Q191.704 544.222 193.533 546.397 Q195.384 548.55 198.533 548.55 Q201.681 548.55 203.509 546.397 Q205.361 544.222 205.361 540.495 Q205.361 536.745 203.509 534.592 Q201.681 532.439 198.533 532.439 M207.815 517.787 L207.815 522.046 Q206.056 521.212 204.25 520.773 Q202.468 520.333 200.708 520.333 Q196.079 520.333 193.625 523.458 Q191.195 526.583 190.847 532.902 Q192.213 530.888 194.273 529.823 Q196.333 528.736 198.81 528.736 Q204.019 528.736 207.028 531.907 Q210.06 535.055 210.06 540.495 Q210.06 545.819 206.912 549.036 Q203.764 552.254 198.533 552.254 Q192.537 552.254 189.366 547.671 Q186.195 543.064 186.195 534.337 Q186.195 526.143 190.083 521.282 Q193.972 516.398 200.523 516.398 Q202.282 516.398 204.065 516.745 Q205.87 517.092 207.815 517.787 Z" fill="#000000" fill-rule="evenodd" fill-opacity="1" /><path clip-path="url(#clip150)" d="M122.815 229.647 Q119.204 229.647 117.376 233.211 Q115.57 236.753 115.57 243.883 Q115.57 250.989 117.376 254.554 Q119.204 258.096 122.815 258.096 Q126.45 258.096 128.255 254.554 Q130.084 250.989 130.084 243.883 Q130.084 236.753 128.255 233.211 Q126.45 229.647 122.815 229.647 M122.815 225.943 Q128.625 225.943 131.681 230.549 Q134.76 235.133 134.76 243.883 Q134.76 252.609 131.681 257.216 Q128.625 261.799 122.815 261.799 Q117.005 261.799 113.926 257.216 Q110.871 252.609 110.871 243.883 Q110.871 235.133 113.926 230.549 Q117.005 225.943 122.815 225.943 Z" fill="#000000" fill-rule="evenodd" fill-opacity="1" /><path clip-path="url(#clip150)" d="M142.977 255.248 L147.861 255.248 L147.861 261.128 L142.977 261.128 L142.977 255.248 Z" fill="#000000" fill-rule="evenodd" fill-opacity="1" /><path clip-path="url(#clip150)" d="M168.047 229.647 Q164.435 229.647 162.607 233.211 Q160.801 236.753 160.801 243.883 Q160.801 250.989 162.607 254.554 Q164.435 258.096 168.047 258.096 Q171.681 258.096 173.486 254.554 Q175.315 250.989 175.315 243.883 Q175.315 236.753 173.486 233.211 Q171.681 229.647 168.047 229.647 M168.047 225.943 Q173.857 225.943 176.912 230.549 Q179.991 235.133 179.991 243.883 Q179.991 252.609 176.912 257.216 Q173.857 261.799 168.047 261.799 Q162.236 261.799 159.158 257.216 Q156.102 252.609 156.102 243.883 Q156.102 235.133 159.158 230.549 Q162.236 225.943 168.047 225.943 Z" fill="#000000" fill-rule="evenodd" fill-opacity="1" /><path clip-path="url(#clip150)" d="M198.208 244.716 Q194.875 244.716 192.954 246.498 Q191.056 248.281 191.056 251.406 Q191.056 254.531 192.954 256.313 Q194.875 258.096 198.208 258.096 Q201.542 258.096 203.463 256.313 Q205.384 254.508 205.384 251.406 Q205.384 248.281 203.463 246.498 Q201.565 244.716 198.208 244.716 M193.533 242.725 Q190.523 241.984 188.833 239.924 Q187.167 237.864 187.167 234.901 Q187.167 230.758 190.107 228.35 Q193.07 225.943 198.208 225.943 Q203.37 225.943 206.31 228.35 Q209.25 230.758 209.25 234.901 Q209.25 237.864 207.56 239.924 Q205.894 241.984 202.907 242.725 Q206.287 243.512 208.162 245.804 Q210.06 248.096 210.06 251.406 Q210.06 256.429 206.982 259.114 Q203.926 261.799 198.208 261.799 Q192.491 261.799 189.412 259.114 Q186.357 256.429 186.357 251.406 Q186.357 248.096 188.255 245.804 Q190.153 243.512 193.533 242.725 M191.82 235.341 Q191.82 238.026 193.486 239.531 Q195.176 241.035 198.208 241.035 Q201.218 241.035 202.907 239.531 Q204.62 238.026 204.62 235.341 Q204.62 232.656 202.907 231.151 Q201.218 229.647 198.208 229.647 Q195.176 229.647 193.486 231.151 Q191.82 232.656 191.82 235.341 Z" fill="#000000" fill-rule="evenodd" fill-opacity="1" /><path clip-path="url(#clip150)" d="M29.3925 803.754 Q32.9996 803.754 36.3168 806.427 Q39.634 809.068 41.663 813.383 Q43.6597 817.667 43.6597 822.272 L43.6597 833.48 L60.1491 837.57 Q60.2458 837.602 60.6644 837.699 Q61.0509 837.795 61.2763 837.795 Q62.0815 837.795 62.2747 836.797 Q62.468 835.766 62.468 833.48 Q62.468 831.998 62.7256 831.773 Q62.8866 831.644 63.1765 831.644 Q63.6274 831.644 63.9494 831.773 Q64.2393 831.902 64.3359 832.159 Q64.4325 832.385 64.4647 832.546 Q64.4969 832.707 64.4969 832.964 Q64.4969 833.641 64.4325 835.09 Q64.3681 836.507 64.3681 837.248 L64.3037 841.467 L64.4969 849.84 Q64.4969 850.839 63.6918 850.839 Q63.0799 850.839 62.8222 850.581 Q62.5324 850.323 62.5002 850.034 Q62.468 849.744 62.468 849.003 Q62.468 847.393 62.3713 846.426 Q62.2747 845.46 62.1459 844.848 Q61.9849 844.204 61.534 843.882 Q61.0831 843.528 60.6966 843.367 Q60.278 843.206 59.344 842.98 L23.9175 834.156 Q22.8547 833.898 22.6937 833.898 Q22.1462 833.898 21.953 834.22 Q21.7275 834.51 21.6309 835.348 Q21.5021 836.958 21.5021 838.182 Q21.5021 838.987 21.4699 839.309 Q21.4377 839.599 21.2767 839.856 Q21.0834 840.082 20.697 840.082 Q20.085 840.082 19.8274 839.824 Q19.5375 839.534 19.5053 839.212 Q19.4409 838.89 19.4409 838.117 L19.4409 816.733 Q19.4409 810.581 22.3717 807.168 Q25.3024 803.754 29.3925 803.754 M27.8145 809.873 Q21.5021 809.873 21.5021 818.858 L21.5021 825.171 Q21.5021 827.264 21.8886 827.779 Q22.2428 828.295 24.0142 828.745 L41.9528 833.222 L41.9528 823.915 Q41.9528 817.667 38.4424 813.77 Q36.8321 811.998 33.4827 810.936 Q30.1333 809.873 27.8145 809.873 Z" fill="#000000" fill-rule="evenodd" fill-opacity="1" /><path clip-path="url(#clip150)" d="M48.0075 796.516 Q36.8643 796.516 27.8789 792.361 Q24.1108 790.59 20.9546 788.11 Q17.7984 785.63 16.4136 783.988 Q15.0287 782.345 15.0287 781.895 Q15.0287 781.25 15.6728 781.218 Q15.9949 781.218 16.8 782.088 Q27.6212 792.716 48.0075 792.684 Q68.4582 792.684 78.8607 782.345 Q79.9879 781.218 80.3422 781.218 Q80.9863 781.218 80.9863 781.895 Q80.9863 782.345 79.6659 783.924 Q78.3454 785.502 75.3181 787.949 Q72.2907 790.397 68.5871 792.168 Q59.6016 796.516 48.0075 796.516 Z" fill="#000000" fill-rule="evenodd" fill-opacity="1" /><path clip-path="url(#clip150)" d="M45.8819 745.704 Q50.584 745.704 55.125 748.088 Q59.666 750.439 62.468 754.142 Q65.2377 757.846 65.2377 761.614 Q65.2377 763.868 64.0138 765.382 Q62.7578 766.864 60.9865 767.669 Q63.1765 768.281 68.426 769.601 Q73.6756 770.922 74.1909 770.922 Q74.4807 770.922 74.6096 770.857 Q74.7384 770.793 74.8994 770.503 Q75.0927 770.213 75.1571 769.505 Q75.2537 768.796 75.2537 767.604 Q75.2537 766.992 75.2537 766.767 Q75.2859 766.509 75.4469 766.284 Q75.608 766.026 75.9622 766.026 Q77.2827 766.026 77.2827 767.218 Q77.2827 768.281 77.186 770.471 Q77.0894 772.661 77.0894 773.756 Q77.0894 774.69 77.186 776.558 Q77.2827 778.426 77.2827 779.295 Q77.2827 780.165 76.5097 780.165 Q76.0588 780.165 75.769 780.036 Q75.5113 779.939 75.3825 779.682 Q75.2859 779.424 75.2537 779.198 Q75.2537 779.005 75.2537 778.619 Q75.2537 777.137 74.996 776.493 Q74.7706 775.849 74.2875 775.624 Q73.8366 775.366 72.5484 775.076 L43.1766 767.669 Q41.2121 767.218 39.8272 767.218 Q38.0881 767.218 37.444 767.765 Q36.7999 768.313 36.7999 769.279 Q36.7999 770.954 38.7967 772.049 Q40.7934 773.144 44.6581 774.078 Q45.7209 774.368 45.9464 774.561 Q46.1718 774.722 46.1718 775.205 Q46.1396 776.01 45.4955 776.01 Q45.3344 776.01 44.3039 775.752 Q43.2411 775.495 41.6952 775.012 Q40.1171 774.496 39.1187 773.949 Q38.4424 773.627 37.9915 773.337 Q37.5406 773.047 36.8321 772.467 Q36.1236 771.856 35.7371 770.986 Q35.3506 770.116 35.3506 769.054 Q35.3506 766.992 36.5744 765.286 Q37.7983 763.579 40.2781 763.128 Q38.1203 761.292 36.7355 759.038 Q35.3506 756.783 35.3506 754.497 Q35.3506 750.696 38.3136 748.216 Q41.2443 745.704 45.8819 745.704 M42.9834 750.471 Q40.0527 750.471 38.4424 751.598 Q36.7999 752.693 36.7999 754.69 Q36.7999 757.17 39.3119 760.036 Q41.6952 762.87 43.9174 763.45 L56.8319 766.703 L57.8947 766.896 Q58.088 766.896 58.6677 766.799 Q59.2152 766.67 60.1169 766.316 Q61.0187 765.93 61.8238 765.414 Q62.5968 764.867 63.1765 763.901 Q63.7562 762.902 63.7562 761.678 Q63.7562 759.714 62.0171 757.588 Q60.278 755.431 56.993 753.82 Q54.8674 752.822 50.2941 751.662 Q45.6887 750.471 42.9834 750.471 Z" fill="#000000" fill-rule="evenodd" fill-opacity="1" /><path clip-path="url(#clip150)" d="M80.3422 740.973 Q80.0202 740.973 79.215 740.136 Q68.3938 729.508 48.0075 729.508 Q27.5568 729.508 17.2187 739.717 Q16.0271 740.973 15.6728 740.973 Q15.0287 740.973 15.0287 740.329 Q15.0287 739.878 16.3492 738.3 Q17.6696 736.69 20.697 734.274 Q23.7243 731.827 27.428 730.023 Q36.4134 725.675 48.0075 725.675 Q59.1508 725.675 68.1362 729.83 Q71.9043 731.601 75.0605 734.081 Q78.2166 736.561 79.6015 738.203 Q80.9863 739.846 80.9863 740.329 Q80.9863 740.973 80.3422 740.973 Z" fill="#000000" fill-rule="evenodd" fill-opacity="1" /><path clip-path="url(#clip150)" d="M320.527 18.8205 L320.527 41.5461 L330.817 41.5461 Q336.528 41.5461 339.648 38.5889 Q342.767 35.6318 342.767 30.163 Q342.767 24.7348 339.648 21.7777 Q336.528 18.8205 330.817 18.8205 L320.527 18.8205 M312.344 12.096 L330.817 12.096 Q340.984 12.096 346.17 16.714 Q351.395 21.2916 351.395 30.163 Q351.395 39.1155 346.17 43.6931 Q340.984 48.2706 330.817 48.2706 L320.527 48.2706 L320.527 72.576 L312.344 72.576 L312.344 12.096 Z" fill="#000000" fill-rule="evenodd" fill-opacity="1" /><path clip-path="url(#clip150)" d="M386.881 34.1734 Q385.625 33.4443 384.127 33.1202 Q382.668 32.7556 380.886 32.7556 Q374.566 32.7556 371.164 36.8875 Q367.801 40.9789 367.801 48.6757 L367.801 72.576 L360.307 72.576 L360.307 27.2059 L367.801 27.2059 L367.801 34.2544 Q370.151 30.1225 373.918 28.1376 Q377.686 26.1121 383.073 26.1121 Q383.843 26.1121 384.775 26.2337 Q385.706 26.3147 386.841 26.5172 L386.881 34.1734 Z" fill="#000000" fill-rule="evenodd" fill-opacity="1" /><path clip-path="url(#clip150)" d="M410.457 32.4315 Q404.462 32.4315 400.978 37.1306 Q397.494 41.7891 397.494 49.9314 Q397.494 58.0738 400.938 62.7728 Q404.422 67.4314 410.457 67.4314 Q416.412 67.4314 419.896 62.7323 Q423.38 58.0333 423.38 49.9314 Q423.38 41.8701 419.896 37.1711 Q416.412 32.4315 410.457 32.4315 M410.457 26.1121 Q420.18 26.1121 425.729 32.4315 Q431.279 38.7509 431.279 49.9314 Q431.279 61.0714 425.729 67.4314 Q420.18 73.7508 410.457 73.7508 Q400.695 73.7508 395.145 67.4314 Q389.636 61.0714 389.636 49.9314 Q389.636 38.7509 395.145 32.4315 Q400.695 26.1121 410.457 26.1121 Z" fill="#000000" fill-rule="evenodd" fill-opacity="1" /><path clip-path="url(#clip150)" d="M451.007 14.324 L451.007 27.2059 L466.36 27.2059 L466.36 32.9987 L451.007 32.9987 L451.007 57.6282 Q451.007 63.1779 452.506 64.7578 Q454.045 66.3376 458.704 66.3376 L466.36 66.3376 L466.36 72.576 L458.704 72.576 Q450.075 72.576 446.794 69.3758 Q443.513 66.1351 443.513 57.6282 L443.513 32.9987 L438.044 32.9987 L438.044 27.2059 L443.513 27.2059 L443.513 14.324 L451.007 14.324 Z" fill="#000000" fill-rule="evenodd" fill-opacity="1" /><path clip-path="url(#clip150)" d="M514.971 48.0275 L514.971 51.6733 L480.7 51.6733 Q481.186 59.3701 485.318 63.421 Q489.491 67.4314 496.904 67.4314 Q501.198 67.4314 505.208 66.3781 Q509.259 65.3249 513.229 63.2184 L513.229 70.267 Q509.218 71.9684 505.005 72.8596 Q500.793 73.7508 496.458 73.7508 Q485.602 73.7508 479.242 67.4314 Q472.922 61.1119 472.922 50.3365 Q472.922 39.1965 478.918 32.6746 Q484.954 26.1121 495.162 26.1121 Q504.317 26.1121 509.624 32.0264 Q514.971 37.9003 514.971 48.0275 M507.517 45.84 Q507.436 39.7232 504.074 36.0774 Q500.752 32.4315 495.243 32.4315 Q489.004 32.4315 485.237 35.9558 Q481.51 39.4801 480.943 45.8805 L507.517 45.84 Z" fill="#000000" fill-rule="evenodd" fill-opacity="1" /><path clip-path="url(#clip150)" d="M527.204 27.2059 L534.658 27.2059 L534.658 72.576 L527.204 72.576 L527.204 27.2059 M527.204 9.54393 L534.658 9.54393 L534.658 18.9825 L527.204 18.9825 L527.204 9.54393 Z" fill="#000000" fill-rule="evenodd" fill-opacity="1" /><path clip-path="url(#clip150)" d="M587.968 45.1919 L587.968 72.576 L580.514 72.576 L580.514 45.4349 Q580.514 38.994 578.003 35.7938 Q575.491 32.5936 570.468 32.5936 Q564.432 32.5936 560.948 36.4419 Q557.465 40.2903 557.465 46.9338 L557.465 72.576 L549.971 72.576 L549.971 27.2059 L557.465 27.2059 L557.465 34.2544 Q560.138 30.163 563.744 28.1376 Q567.389 26.1121 572.129 26.1121 Q579.947 26.1121 583.958 30.9732 Q587.968 35.7938 587.968 45.1919 Z" fill="#000000" fill-rule="evenodd" fill-opacity="1" /><path clip-path="url(#clip150)" d="M674.819 16.7545 L674.819 25.383 Q670.687 21.5346 665.988 19.6307 Q661.33 17.7268 656.064 17.7268 Q645.693 17.7268 640.184 24.0867 Q634.675 30.4061 634.675 42.3968 Q634.675 54.3469 640.184 60.7069 Q645.693 67.0263 656.064 67.0263 Q661.33 67.0263 665.988 65.1223 Q670.687 63.2184 674.819 59.3701 L674.819 67.9175 Q670.525 70.8341 665.705 72.2924 Q660.925 73.7508 655.578 73.7508 Q641.845 73.7508 633.946 65.3654 Q626.047 56.9395 626.047 42.3968 Q626.047 27.8135 633.946 19.4281 Q641.845 11.0023 655.578 11.0023 Q661.006 11.0023 665.786 12.4606 Q670.606 13.8784 674.819 16.7545 Z" fill="#000000" fill-rule="evenodd" fill-opacity="1" /><path clip-path="url(#clip150)" d="M704.715 32.4315 Q698.72 32.4315 695.236 37.1306 Q691.752 41.7891 691.752 49.9314 Q691.752 58.0738 695.195 62.7728 Q698.679 67.4314 704.715 67.4314 Q710.67 67.4314 714.154 62.7323 Q717.637 58.0333 717.637 49.9314 Q717.637 41.8701 714.154 37.1711 Q710.67 32.4315 704.715 32.4315 M704.715 26.1121 Q714.437 26.1121 719.987 32.4315 Q725.537 38.7509 725.537 49.9314 Q725.537 61.0714 719.987 67.4314 Q714.437 73.7508 704.715 73.7508 Q694.952 73.7508 689.403 67.4314 Q683.893 61.0714 683.893 49.9314 Q683.893 38.7509 689.403 32.4315 Q694.952 26.1121 704.715 26.1121 Z" fill="#000000" fill-rule="evenodd" fill-opacity="1" /><path clip-path="url(#clip150)" d="M745.103 65.7705 L745.103 89.8329 L737.608 89.8329 L737.608 27.2059 L745.103 27.2059 L745.103 34.0924 Q747.452 30.0415 751.017 28.0971 Q754.622 26.1121 759.605 26.1121 Q767.869 26.1121 773.013 32.6746 Q778.198 39.2371 778.198 49.9314 Q778.198 60.6258 773.013 67.1883 Q767.869 73.7508 759.605 73.7508 Q754.622 73.7508 751.017 71.8063 Q747.452 69.8214 745.103 65.7705 M770.461 49.9314 Q770.461 41.7081 767.058 37.0496 Q763.696 32.3505 757.782 32.3505 Q751.868 32.3505 748.465 37.0496 Q745.103 41.7081 745.103 49.9314 Q745.103 58.1548 748.465 62.8538 Q751.868 67.5124 757.782 67.5124 Q763.696 67.5124 767.058 62.8538 Q770.461 58.1548 770.461 49.9314 Z" fill="#000000" fill-rule="evenodd" fill-opacity="1" /><path clip-path="url(#clip150)" d="M809.431 76.7889 Q806.271 84.8907 803.274 87.3618 Q800.276 89.8329 795.253 89.8329 L789.298 89.8329 L789.298 83.5945 L793.673 83.5945 Q796.752 83.5945 798.453 82.1361 Q800.154 80.6778 802.22 75.2496 L803.557 71.8468 L785.207 27.2059 L793.106 27.2059 L807.284 62.6918 L821.462 27.2059 L829.361 27.2059 L809.431 76.7889 Z" fill="#000000" fill-rule="evenodd" fill-opacity="1" /><path clip-path="url(#clip150)" d="M866.346 12.096 L877.365 12.096 L904.182 62.6918 L904.182 12.096 L912.121 12.096 L912.121 72.576 L901.103 72.576 L874.286 21.9802 L874.286 72.576 L866.346 72.576 L866.346 12.096 Z" fill="#000000" fill-rule="evenodd" fill-opacity="1" /><path clip-path="url(#clip150)" d="M927.312 54.671 L927.312 27.2059 L934.766 27.2059 L934.766 54.3874 Q934.766 60.8284 937.277 64.0691 Q939.789 67.2693 944.812 67.2693 Q950.848 67.2693 954.332 63.421 Q957.856 59.5726 957.856 52.9291 L957.856 27.2059 L965.31 27.2059 L965.31 72.576 L957.856 72.576 L957.856 65.6084 Q955.142 69.7404 951.537 71.7658 Q947.972 73.7508 943.232 73.7508 Q935.414 73.7508 931.363 68.8897 Q927.312 64.0286 927.312 54.671 M946.068 26.1121 L946.068 26.1121 Z" fill="#000000" fill-rule="evenodd" fill-opacity="1" /><path clip-path="url(#clip150)" d="M1015.99 35.9153 Q1018.78 30.8922 1022.67 28.5022 Q1026.56 26.1121 1031.83 26.1121 Q1038.91 26.1121 1042.76 31.0947 Q1046.61 36.0368 1046.61 45.1919 L1046.61 72.576 L1039.12 72.576 L1039.12 45.4349 Q1039.12 38.913 1036.81 35.7533 Q1034.5 32.5936 1029.76 32.5936 Q1023.97 32.5936 1020.6 36.4419 Q1017.24 40.2903 1017.24 46.9338 L1017.24 72.576 L1009.75 72.576 L1009.75 45.4349 Q1009.75 38.8725 1007.44 35.7533 Q1005.13 32.5936 1000.31 32.5936 Q994.598 32.5936 991.236 36.4824 Q987.873 40.3308 987.873 46.9338 L987.873 72.576 L980.379 72.576 L980.379 27.2059 L987.873 27.2059 L987.873 34.2544 Q990.425 30.082 993.99 28.0971 Q997.555 26.1121 1002.46 26.1121 Q1007.4 26.1121 1010.84 28.6237 Q1014.33 31.1352 1015.99 35.9153 Z" fill="#000000" fill-rule="evenodd" fill-opacity="1" /><path clip-path="url(#clip150)" d="M1094.05 49.9314 Q1094.05 41.7081 1090.64 37.0496 Q1087.28 32.3505 1081.37 32.3505 Q1075.45 32.3505 1072.05 37.0496 Q1068.69 41.7081 1068.69 49.9314 Q1068.69 58.1548 1072.05 62.8538 Q1075.45 67.5124 1081.37 67.5124 Q1087.28 67.5124 1090.64 62.8538 Q1094.05 58.1548 1094.05 49.9314 M1068.69 34.0924 Q1071.04 30.0415 1074.6 28.0971 Q1078.21 26.1121 1083.19 26.1121 Q1091.45 26.1121 1096.6 32.6746 Q1101.78 39.2371 1101.78 49.9314 Q1101.78 60.6258 1096.6 67.1883 Q1091.45 73.7508 1083.19 73.7508 Q1078.21 73.7508 1074.6 71.8063 Q1071.04 69.8214 1068.69 65.7705 L1068.69 72.576 L1061.19 72.576 L1061.19 9.54393 L1068.69 9.54393 L1068.69 34.0924 Z" fill="#000000" fill-rule="evenodd" fill-opacity="1" /><path clip-path="url(#clip150)" d="M1152.95 48.0275 L1152.95 51.6733 L1118.68 51.6733 Q1119.16 59.3701 1123.3 63.421 Q1127.47 67.4314 1134.88 67.4314 Q1139.17 67.4314 1143.18 66.3781 Q1147.24 65.3249 1151.21 63.2184 L1151.21 70.267 Q1147.2 71.9684 1142.98 72.8596 Q1138.77 73.7508 1134.43 73.7508 Q1123.58 73.7508 1117.22 67.4314 Q1110.9 61.1119 1110.9 50.3365 Q1110.9 39.1965 1116.89 32.6746 Q1122.93 26.1121 1133.14 26.1121 Q1142.29 26.1121 1147.6 32.0264 Q1152.95 37.9003 1152.95 48.0275 M1145.49 45.84 Q1145.41 39.7232 1142.05 36.0774 Q1138.73 32.4315 1133.22 32.4315 Q1126.98 32.4315 1123.21 35.9558 Q1119.49 39.4801 1118.92 45.8805 L1145.49 45.84 Z" fill="#000000" fill-rule="evenodd" fill-opacity="1" /><path clip-path="url(#clip150)" d="M1191.47 34.1734 Q1190.22 33.4443 1188.72 33.1202 Q1187.26 32.7556 1185.48 32.7556 Q1179.16 32.7556 1175.75 36.8875 Q1172.39 40.9789 1172.39 48.6757 L1172.39 72.576 L1164.9 72.576 L1164.9 27.2059 L1172.39 27.2059 L1172.39 34.2544 Q1174.74 30.1225 1178.51 28.1376 Q1182.28 26.1121 1187.66 26.1121 Q1188.43 26.1121 1189.37 26.2337 Q1190.3 26.3147 1191.43 26.5172 L1191.47 34.1734 Z" fill="#000000" fill-rule="evenodd" fill-opacity="1" /><path clip-path="url(#clip150)" d="M1248.63 9.54393 L1248.63 15.7418 L1241.5 15.7418 Q1237.49 15.7418 1235.91 17.3622 Q1234.37 18.9825 1234.37 23.1955 L1234.37 27.2059 L1246.65 27.2059 L1246.65 32.9987 L1234.37 32.9987 L1234.37 72.576 L1226.88 72.576 L1226.88 32.9987 L1219.75 32.9987 L1219.75 27.2059 L1226.88 27.2059 L1226.88 24.0462 Q1226.88 16.471 1230.4 13.0277 Q1233.93 9.54393 1241.58 9.54393 L1248.63 9.54393 Z" fill="#000000" fill-rule="evenodd" fill-opacity="1" /><path clip-path="url(#clip150)" d="M1272.45 32.4315 Q1266.45 32.4315 1262.97 37.1306 Q1259.49 41.7891 1259.49 49.9314 Q1259.49 58.0738 1262.93 62.7728 Q1266.41 67.4314 1272.45 67.4314 Q1278.4 67.4314 1281.89 62.7323 Q1285.37 58.0333 1285.37 49.9314 Q1285.37 41.8701 1281.89 37.1711 Q1278.4 32.4315 1272.45 32.4315 M1272.45 26.1121 Q1282.17 26.1121 1287.72 32.4315 Q1293.27 38.7509 1293.27 49.9314 Q1293.27 61.0714 1287.72 67.4314 Q1282.17 73.7508 1272.45 73.7508 Q1262.69 73.7508 1257.14 67.4314 Q1251.63 61.0714 1251.63 49.9314 Q1251.63 38.7509 1257.14 32.4315 Q1262.69 26.1121 1272.45 26.1121 Z" fill="#000000" fill-rule="evenodd" fill-opacity="1" /><path clip-path="url(#clip150)" d="M1331.92 34.1734 Q1330.66 33.4443 1329.16 33.1202 Q1327.7 32.7556 1325.92 32.7556 Q1319.6 32.7556 1316.2 36.8875 Q1312.84 40.9789 1312.84 48.6757 L1312.84 72.576 L1305.34 72.576 L1305.34 27.2059 L1312.84 27.2059 L1312.84 34.2544 Q1315.19 30.1225 1318.95 28.1376 Q1322.72 26.1121 1328.11 26.1121 Q1328.88 26.1121 1329.81 26.2337 Q1330.74 26.3147 1331.88 26.5172 L1331.92 34.1734 Z" fill="#000000" fill-rule="evenodd" fill-opacity="1" /><path clip-path="url(#clip150)" d="M1402.69 14.0809 L1402.69 22.0612 Q1398.03 19.8332 1393.9 18.7395 Q1389.76 17.6457 1385.92 17.6457 Q1379.23 17.6457 1375.59 20.2383 Q1371.98 22.8309 1371.98 27.611 Q1371.98 31.6214 1374.37 33.6873 Q1376.8 35.7128 1383.53 36.9686 L1388.47 37.9813 Q1397.62 39.7232 1401.96 44.1387 Q1406.33 48.5136 1406.33 55.8863 Q1406.33 64.6767 1400.42 69.2137 Q1394.54 73.7508 1383.16 73.7508 Q1378.87 73.7508 1374.01 72.7785 Q1369.18 71.8063 1364 69.9024 L1364 61.4765 Q1368.98 64.2716 1373.76 65.6895 Q1378.54 67.1073 1383.16 67.1073 Q1390.17 67.1073 1393.98 64.3527 Q1397.78 61.598 1397.78 56.4939 Q1397.78 52.0379 1395.03 49.5264 Q1392.32 47.0148 1386.08 45.759 L1381.09 44.7868 Q1371.94 42.9639 1367.85 39.075 Q1363.76 35.1862 1363.76 28.2591 Q1363.76 20.2383 1369.39 15.6203 Q1375.06 11.0023 1384.98 11.0023 Q1389.24 11.0023 1393.65 11.7719 Q1398.07 12.5416 1402.69 14.0809 Z" fill="#000000" fill-rule="evenodd" fill-opacity="1" /><path clip-path="url(#clip150)" d="M1437.65 76.7889 Q1434.49 84.8907 1431.49 87.3618 Q1428.49 89.8329 1423.47 89.8329 L1417.51 89.8329 L1417.51 83.5945 L1421.89 83.5945 Q1424.97 83.5945 1426.67 82.1361 Q1428.37 80.6778 1430.43 75.2496 L1431.77 71.8468 L1413.42 27.2059 L1421.32 27.2059 L1435.5 62.6918 L1449.68 27.2059 L1457.58 27.2059 L1437.65 76.7889 Z" fill="#000000" fill-rule="evenodd" fill-opacity="1" /><path clip-path="url(#clip150)" d="M1496.79 28.5427 L1496.79 35.5912 Q1493.63 33.9709 1490.23 33.1607 Q1486.82 32.3505 1483.18 32.3505 Q1477.63 32.3505 1474.83 34.0519 Q1472.08 35.7533 1472.08 39.156 Q1472.08 41.7486 1474.06 43.2475 Q1476.05 44.7058 1482.04 46.0426 L1484.6 46.6097 Q1492.53 48.3111 1495.86 51.4303 Q1499.22 54.509 1499.22 60.0587 Q1499.22 66.3781 1494.2 70.0644 Q1489.21 73.7508 1480.46 73.7508 Q1476.82 73.7508 1472.85 73.0216 Q1468.92 72.3329 1464.54 70.9151 L1464.54 63.2184 Q1468.68 65.3654 1472.69 66.4591 Q1476.7 67.5124 1480.63 67.5124 Q1485.89 67.5124 1488.73 65.73 Q1491.56 63.9071 1491.56 60.6258 Q1491.56 57.5877 1489.5 55.9673 Q1487.47 54.3469 1480.54 52.8481 L1477.95 52.2405 Q1471.02 50.7821 1467.95 47.7845 Q1464.87 44.7463 1464.87 39.4801 Q1464.87 33.0797 1469.4 29.5959 Q1473.94 26.1121 1482.29 26.1121 Q1486.42 26.1121 1490.06 26.7198 Q1493.71 27.3274 1496.79 28.5427 Z" fill="#000000" fill-rule="evenodd" fill-opacity="1" /><path clip-path="url(#clip150)" d="M1518.46 14.324 L1518.46 27.2059 L1533.81 27.2059 L1533.81 32.9987 L1518.46 32.9987 L1518.46 57.6282 Q1518.46 63.1779 1519.96 64.7578 Q1521.5 66.3376 1526.16 66.3376 L1533.81 66.3376 L1533.81 72.576 L1526.16 72.576 Q1517.53 72.576 1514.25 69.3758 Q1510.97 66.1351 1510.97 57.6282 L1510.97 32.9987 L1505.5 32.9987 L1505.5 27.2059 L1510.97 27.2059 L1510.97 14.324 L1518.46 14.324 Z" fill="#000000" fill-rule="evenodd" fill-opacity="1" /><path clip-path="url(#clip150)" d="M1582.42 48.0275 L1582.42 51.6733 L1548.15 51.6733 Q1548.64 59.3701 1552.77 63.421 Q1556.94 67.4314 1564.36 67.4314 Q1568.65 67.4314 1572.66 66.3781 Q1576.71 65.3249 1580.68 63.2184 L1580.68 70.267 Q1576.67 71.9684 1572.46 72.8596 Q1568.25 73.7508 1563.91 73.7508 Q1553.06 73.7508 1546.7 67.4314 Q1540.38 61.1119 1540.38 50.3365 Q1540.38 39.1965 1546.37 32.6746 Q1552.41 26.1121 1562.62 26.1121 Q1571.77 26.1121 1577.08 32.0264 Q1582.42 37.9003 1582.42 48.0275 M1574.97 45.84 Q1574.89 39.7232 1571.53 36.0774 Q1568.21 32.4315 1562.7 32.4315 Q1556.46 32.4315 1552.69 35.9558 Q1548.96 39.4801 1548.4 45.8805 L1574.97 45.84 Z" fill="#000000" fill-rule="evenodd" fill-opacity="1" /><path clip-path="url(#clip150)" d="M1629.98 35.9153 Q1632.78 30.8922 1636.67 28.5022 Q1640.55 26.1121 1645.82 26.1121 Q1652.91 26.1121 1656.76 31.0947 Q1660.61 36.0368 1660.61 45.1919 L1660.61 72.576 L1653.11 72.576 L1653.11 45.4349 Q1653.11 38.913 1650.8 35.7533 Q1648.49 32.5936 1643.76 32.5936 Q1637.96 32.5936 1634.6 36.4419 Q1631.24 40.2903 1631.24 46.9338 L1631.24 72.576 L1623.74 72.576 L1623.74 45.4349 Q1623.74 38.8725 1621.43 35.7533 Q1619.13 32.5936 1614.31 32.5936 Q1608.59 32.5936 1605.23 36.4824 Q1601.87 40.3308 1601.87 46.9338 L1601.87 72.576 L1594.37 72.576 L1594.37 27.2059 L1601.87 27.2059 L1601.87 34.2544 Q1604.42 30.082 1607.99 28.0971 Q1611.55 26.1121 1616.45 26.1121 Q1621.39 26.1121 1624.84 28.6237 Q1628.32 31.1352 1629.98 35.9153 Z" fill="#000000" fill-rule="evenodd" fill-opacity="1" /><path clip-path="url(#clip150)" d="M1697.51 27.2059 L1704.96 27.2059 L1714.28 62.6108 L1723.56 27.2059 L1732.35 27.2059 L1741.67 62.6108 L1750.94 27.2059 L1758.4 27.2059 L1746.53 72.576 L1737.74 72.576 L1727.97 35.3887 L1718.17 72.576 L1709.38 72.576 L1697.51 27.2059 Z" fill="#000000" fill-rule="evenodd" fill-opacity="1" /><path clip-path="url(#clip150)" d="M1769.7 27.2059 L1777.15 27.2059 L1777.15 72.576 L1769.7 72.576 L1769.7 27.2059 M1769.7 9.54393 L1777.15 9.54393 L1777.15 18.9825 L1769.7 18.9825 L1769.7 9.54393 Z" fill="#000000" fill-rule="evenodd" fill-opacity="1" /><path clip-path="url(#clip150)" d="M1800.12 14.324 L1800.12 27.2059 L1815.47 27.2059 L1815.47 32.9987 L1800.12 32.9987 L1800.12 57.6282 Q1800.12 63.1779 1801.62 64.7578 Q1803.16 66.3376 1807.82 66.3376 L1815.47 66.3376 L1815.47 72.576 L1807.82 72.576 Q1799.19 72.576 1795.91 69.3758 Q1792.63 66.1351 1792.63 57.6282 L1792.63 32.9987 L1787.16 32.9987 L1787.16 27.2059 L1792.63 27.2059 L1792.63 14.324 L1800.12 14.324 Z" fill="#000000" fill-rule="evenodd" fill-opacity="1" /><path clip-path="url(#clip150)" d="M1862.99 45.1919 L1862.99 72.576 L1855.54 72.576 L1855.54 45.4349 Q1855.54 38.994 1853.02 35.7938 Q1850.51 32.5936 1845.49 32.5936 Q1839.45 32.5936 1835.97 36.4419 Q1832.49 40.2903 1832.49 46.9338 L1832.49 72.576 L1824.99 72.576 L1824.99 9.54393 L1832.49 9.54393 L1832.49 34.2544 Q1835.16 30.163 1838.77 28.1376 Q1842.41 26.1121 1847.15 26.1121 Q1854.97 26.1121 1858.98 30.9732 Q1862.99 35.7938 1862.99 45.1919 Z" fill="#000000" fill-rule="evenodd" fill-opacity="1" /><path clip-path="url(#clip150)" d="M1906.7 65.6895 L1920.07 65.6895 L1920.07 19.5497 L1905.52 22.4663 L1905.52 15.0127 L1919.99 12.096 L1928.17 12.096 L1928.17 65.6895 L1941.54 65.6895 L1941.54 72.576 L1906.7 72.576 L1906.7 65.6895 Z" fill="#000000" fill-rule="evenodd" fill-opacity="1" /><path clip-path="url(#clip150)" d="M1975.56 17.4837 Q1969.25 17.4837 1966.05 23.7221 Q1962.89 29.92 1962.89 42.3968 Q1962.89 54.833 1966.05 61.0714 Q1969.25 67.2693 1975.56 67.2693 Q1981.92 67.2693 1985.08 61.0714 Q1988.28 54.833 1988.28 42.3968 Q1988.28 29.92 1985.08 23.7221 Q1981.92 17.4837 1975.56 17.4837 M1975.56 11.0023 Q1985.73 11.0023 1991.08 19.0636 Q1996.47 27.0843 1996.47 42.3968 Q1996.47 57.6687 1991.08 65.73 Q1985.73 73.7508 1975.56 73.7508 Q1965.4 73.7508 1960.01 65.73 Q1954.66 57.6687 1954.66 42.3968 Q1954.66 27.0843 1960.01 19.0636 Q1965.4 11.0023 1975.56 11.0023 Z" fill="#000000" fill-rule="evenodd" fill-opacity="1" /><path clip-path="url(#clip150)" d="M2077.73 63.9476 L2077.73 47.7034 L2064.36 47.7034 L2064.36 40.9789 L2085.83 40.9789 L2085.83 66.9452 Q2081.09 70.3075 2075.38 72.0494 Q2069.67 73.7508 2063.19 73.7508 Q2049.01 73.7508 2040.99 65.4869 Q2033.01 57.1826 2033.01 42.3968 Q2033.01 27.5705 2040.99 19.3066 Q2049.01 11.0023 2063.19 11.0023 Q2069.1 11.0023 2074.41 12.4606 Q2079.75 13.9189 2084.25 16.7545 L2084.25 25.464 Q2079.71 21.6156 2074.61 19.6712 Q2069.51 17.7268 2063.87 17.7268 Q2052.77 17.7268 2047.18 23.9246 Q2041.63 30.1225 2041.63 42.3968 Q2041.63 54.6305 2047.18 60.8284 Q2052.77 67.0263 2063.87 67.0263 Q2068.21 67.0263 2071.61 66.2971 Q2075.01 65.5274 2077.73 63.9476 Z" fill="#000000" fill-rule="evenodd" fill-opacity="1" /><path clip-path="url(#clip150)" d="M2139.26 48.0275 L2139.26 51.6733 L2104.99 51.6733 Q2105.48 59.3701 2109.61 63.421 Q2113.78 67.4314 2121.19 67.4314 Q2125.49 67.4314 2129.5 66.3781 Q2133.55 65.3249 2137.52 63.2184 L2137.52 70.267 Q2133.51 71.9684 2129.3 72.8596 Q2125.08 73.7508 2120.75 73.7508 Q2109.89 73.7508 2103.53 67.4314 Q2097.21 61.1119 2097.21 50.3365 Q2097.21 39.1965 2103.21 32.6746 Q2109.24 26.1121 2119.45 26.1121 Q2128.61 26.1121 2133.91 32.0264 Q2139.26 37.9003 2139.26 48.0275 M2131.81 45.84 Q2131.73 39.7232 2128.36 36.0774 Q2125.04 32.4315 2119.53 32.4315 Q2113.3 32.4315 2109.53 35.9558 Q2105.8 39.4801 2105.23 45.8805 L2131.81 45.84 Z" fill="#000000" fill-rule="evenodd" fill-opacity="1" /><path clip-path="url(#clip150)" d="M2189.21 45.1919 L2189.21 72.576 L2181.76 72.576 L2181.76 45.4349 Q2181.76 38.994 2179.24 35.7938 Q2176.73 32.5936 2171.71 32.5936 Q2165.67 32.5936 2162.19 36.4419 Q2158.71 40.2903 2158.71 46.9338 L2158.71 72.576 L2151.21 72.576 L2151.21 27.2059 L2158.71 27.2059 L2158.71 34.2544 Q2161.38 30.163 2164.99 28.1376 Q2168.63 26.1121 2173.37 26.1121 Q2181.19 26.1121 2185.2 30.9732 Q2189.21 35.7938 2189.21 45.1919 Z" fill="#000000" fill-rule="evenodd" fill-opacity="1" /><path clip-path="url(#clip150)" d="M2242.88 48.0275 L2242.88 51.6733 L2208.61 51.6733 Q2209.1 59.3701 2213.23 63.421 Q2217.4 67.4314 2224.82 67.4314 Q2229.11 67.4314 2233.12 66.3781 Q2237.17 65.3249 2241.14 63.2184 L2241.14 70.267 Q2237.13 71.9684 2232.92 72.8596 Q2228.71 73.7508 2224.37 73.7508 Q2213.51 73.7508 2207.15 67.4314 Q2200.84 61.1119 2200.84 50.3365 Q2200.84 39.1965 2206.83 32.6746 Q2212.87 26.1121 2223.07 26.1121 Q2232.23 26.1121 2237.54 32.0264 Q2242.88 37.9003 2242.88 48.0275 M2235.43 45.84 Q2235.35 39.7232 2231.99 36.0774 Q2228.67 32.4315 2223.16 32.4315 Q2216.92 32.4315 2213.15 35.9558 Q2209.42 39.4801 2208.86 45.8805 L2235.43 45.84 Z" fill="#000000" fill-rule="evenodd" fill-opacity="1" /><path clip-path="url(#clip150)" d="M2284.04 28.5427 L2284.04 35.5912 Q2280.88 33.9709 2277.48 33.1607 Q2274.08 32.3505 2270.43 32.3505 Q2264.88 32.3505 2262.09 34.0519 Q2259.33 35.7533 2259.33 39.156 Q2259.33 41.7486 2261.32 43.2475 Q2263.3 44.7058 2269.3 46.0426 L2271.85 46.6097 Q2279.79 48.3111 2283.11 51.4303 Q2286.47 54.509 2286.47 60.0587 Q2286.47 66.3781 2281.45 70.0644 Q2276.47 73.7508 2267.72 73.7508 Q2264.07 73.7508 2260.1 73.0216 Q2256.17 72.3329 2251.8 70.9151 L2251.8 63.2184 Q2255.93 65.3654 2259.94 66.4591 Q2263.95 67.5124 2267.88 67.5124 Q2273.14 67.5124 2275.98 65.73 Q2278.82 63.9071 2278.82 60.6258 Q2278.82 57.5877 2276.75 55.9673 Q2274.72 54.3469 2267.8 52.8481 L2265.2 52.2405 Q2258.28 50.7821 2255.2 47.7845 Q2252.12 44.7463 2252.12 39.4801 Q2252.12 33.0797 2256.66 29.5959 Q2261.19 26.1121 2269.54 26.1121 Q2273.67 26.1121 2277.32 26.7198 Q2280.96 27.3274 2284.04 28.5427 Z" fill="#000000" fill-rule="evenodd" fill-opacity="1" /><polyline clip-path="url(#clip152)" style="stroke:#009fe3; stroke-linecap:butt; stroke-linejoin:round; stroke-width:20; stroke-opacity:0.996078; fill:none" points="
  305.684,1405.67 305.684,1405.65 354.158,1405.65 354.158,1404.88 402.632,1404.88 402.632,1401.21 451.107,1401.21 451.107,1389.43 499.581,1389.43 499.581,1365.06 
  548.055,1365.06 548.055,1315.19 596.53,1315.19 596.53,1231.16 645.004,1231.16 645.004,1109.43 693.479,1109.43 693.479,950.699 741.953,950.699 741.953,772.389 
  790.427,772.389 790.427,584.465 838.902,584.465 838.902,420.634 887.376,420.634 887.376,276.307 935.85,276.307 935.85,193.005 984.325,193.005 984.325,162.318 
  1032.8,162.318 1032.8,195.866 1081.27,195.866 1081.27,266.563 1129.75,266.563 1129.75,386.244 1178.22,386.244 1178.22,517.123 1226.7,517.123 1226.7,651.124 
  1275.17,651.124 1275.17,794.13 1323.65,794.13 1323.65,921.436 1372.12,921.436 1372.12,1030.37 1420.59,1030.37 1420.59,1127.21 1469.07,1127.21 1469.07,1198.09 
  1517.54,1198.09 1517.54,1256.34 1566.02,1256.34 1566.02,1301.84 1614.49,1301.84 1614.49,1336.57 1662.97,1336.57 1662.97,1359.96 1711.44,1359.96 1711.44,1375.27 
  1759.91,1375.27 1759.91,1386.13 1808.39,1386.13 1808.39,1392.54 1856.86,1392.54 1856.86,1397.88 1905.34,1397.88 1905.34,1400.5 1953.81,1400.5 1953.81,1402.66 
  2002.29,1402.66 2002.29,1403.69 2050.76,1403.69 2050.76,1404.75 2099.24,1404.75 2099.24,1405.06 2147.71,1405.06 2147.71,1405.38 2196.18,1405.38 2196.18,1405.45 
  2244.66,1405.45 2244.66,1405.58 2293.13,1405.58 2293.13,1405.67 
  "/>
<circle clip-path="url(#clip152)" cx="305.684" cy="1405.59" r="21" fill="#ff00ff" fill-rule="evenodd" fill-opacity="1" stroke="none"/>
<circle clip-path="url(#clip152)" cx="354.158" cy="1404.88" r="21" fill="#ff00ff" fill-rule="evenodd" fill-opacity="1" stroke="none"/>
<circle clip-path="url(#clip152)" cx="402.632" cy="1401.62" r="21" fill="#ff00ff" fill-rule="evenodd" fill-opacity="1" stroke="none"/>
<circle clip-path="url(#clip152)" cx="451.107" cy="1391.3" r="21" fill="#ff00ff" fill-rule="evenodd" fill-opacity="1" stroke="none"/>
<circle clip-path="url(#clip152)" cx="499.581" cy="1366.25" r="21" fill="#ff00ff" fill-rule="evenodd" fill-opacity="1" stroke="none"/>
<circle clip-path="url(#clip152)" cx="548.055" cy="1316.56" r="21" fill="#ff00ff" fill-rule="evenodd" fill-opacity="1" stroke="none"/>
<circle clip-path="url(#clip152)" cx="596.53" cy="1232.84" r="21" fill="#ff00ff" fill-rule="evenodd" fill-opacity="1" stroke="none"/>
<circle clip-path="url(#clip152)" cx="645.004" cy="1110.15" r="21" fill="#ff00ff" fill-rule="evenodd" fill-opacity="1" stroke="none"/>
<circle clip-path="url(#clip152)" cx="693.479" cy="951.272" r="21" fill="#ff00ff" fill-rule="evenodd" fill-opacity="1" stroke="none"/>
<circle clip-path="url(#clip152)" cx="741.953" cy="767.843" r="21" fill="#ff00ff" fill-rule="evenodd" fill-opacity="1" stroke="none"/>
<circle clip-path="url(#clip152)" cx="790.427" cy="578.72" r="21" fill="#ff00ff" fill-rule="evenodd" fill-opacity="1" stroke="none"/>
<circle clip-path="url(#clip152)" cx="838.902" cy="406.025" r="21" fill="#ff00ff" fill-rule="evenodd" fill-opacity="1" stroke="none"/>
<circle clip-path="url(#clip152)" cx="887.376" cy="270.308" r="21" fill="#ff00ff" fill-rule="evenodd" fill-opacity="1" stroke="none"/>
<circle clip-path="url(#clip152)" cx="935.85" cy="186.359" r="21" fill="#ff00ff" fill-rule="evenodd" fill-opacity="1" stroke="none"/>
<circle clip-path="url(#clip152)" cx="984.325" cy="160.818" r="21" fill="#ff00ff" fill-rule="evenodd" fill-opacity="1" stroke="none"/>
<circle clip-path="url(#clip152)" cx="1032.8" cy="191.915" r="21" fill="#ff00ff" fill-rule="evenodd" fill-opacity="1" stroke="none"/>
<circle clip-path="url(#clip152)" cx="1081.27" cy="271.012" r="21" fill="#ff00ff" fill-rule="evenodd" fill-opacity="1" stroke="none"/>
<circle clip-path="url(#clip152)" cx="1129.75" cy="385.188" r="21" fill="#ff00ff" fill-rule="evenodd" fill-opacity="1" stroke="none"/>
<circle clip-path="url(#clip152)" cx="1178.22" cy="520.04" r="21" fill="#ff00ff" fill-rule="evenodd" fill-opacity="1" stroke="none"/>
<circle clip-path="url(#clip152)" cx="1226.7" cy="662.047" r="21" fill="#ff00ff" fill-rule="evenodd" fill-opacity="1" stroke="none"/>
<circle clip-path="url(#clip152)" cx="1275.17" cy="800.158" r="21" fill="#ff00ff" fill-rule="evenodd" fill-opacity="1" stroke="none"/>
<circle clip-path="url(#clip152)" cx="1323.65" cy="926.523" r="21" fill="#ff00ff" fill-rule="evenodd" fill-opacity="1" stroke="none"/>
<circle clip-path="url(#clip152)" cx="1372.12" cy="1036.52" r="21" fill="#ff00ff" fill-rule="evenodd" fill-opacity="1" stroke="none"/>
<circle clip-path="url(#clip152)" cx="1420.59" cy="1128.3" r="21" fill="#ff00ff" fill-rule="evenodd" fill-opacity="1" stroke="none"/>
<circle clip-path="url(#clip152)" cx="1469.07" cy="1202.11" r="21" fill="#ff00ff" fill-rule="evenodd" fill-opacity="1" stroke="none"/>
<circle clip-path="url(#clip152)" cx="1517.54" cy="1259.55" r="21" fill="#ff00ff" fill-rule="evenodd" fill-opacity="1" stroke="none"/>
<circle clip-path="url(#clip152)" cx="1566.02" cy="1302.95" r="21" fill="#ff00ff" fill-rule="evenodd" fill-opacity="1" stroke="none"/>
<circle clip-path="url(#clip152)" cx="1614.49" cy="1334.87" r="21" fill="#ff00ff" fill-rule="evenodd" fill-opacity="1" stroke="none"/>
<circle clip-path="url(#clip152)" cx="1662.97" cy="1357.77" r="21" fill="#ff00ff" fill-rule="evenodd" fill-opacity="1" stroke="none"/>
<circle clip-path="url(#clip152)" cx="1711.44" cy="1373.84" r="21" fill="#ff00ff" fill-rule="evenodd" fill-opacity="1" stroke="none"/>
<circle clip-path="url(#clip152)" cx="1759.91" cy="1384.86" r="21" fill="#ff00ff" fill-rule="evenodd" fill-opacity="1" stroke="none"/>
<circle clip-path="url(#clip152)" cx="1808.39" cy="1392.29" r="21" fill="#ff00ff" fill-rule="evenodd" fill-opacity="1" stroke="none"/>
<circle clip-path="url(#clip152)" cx="1856.86" cy="1397.19" r="21" fill="#ff00ff" fill-rule="evenodd" fill-opacity="1" stroke="none"/>
<circle clip-path="url(#clip152)" cx="1905.34" cy="1400.38" r="21" fill="#ff00ff" fill-rule="evenodd" fill-opacity="1" stroke="none"/>
<circle clip-path="url(#clip152)" cx="1953.81" cy="1402.41" r="21" fill="#ff00ff" fill-rule="evenodd" fill-opacity="1" stroke="none"/>
<circle clip-path="url(#clip152)" cx="2002.29" cy="1403.69" r="21" fill="#ff00ff" fill-rule="evenodd" fill-opacity="1" stroke="none"/>
<circle clip-path="url(#clip152)" cx="2050.76" cy="1404.48" r="21" fill="#ff00ff" fill-rule="evenodd" fill-opacity="1" stroke="none"/>
<circle clip-path="url(#clip152)" cx="2099.24" cy="1404.96" r="21" fill="#ff00ff" fill-rule="evenodd" fill-opacity="1" stroke="none"/>
<circle clip-path="url(#clip152)" cx="2147.71" cy="1405.25" r="21" fill="#ff00ff" fill-rule="evenodd" fill-opacity="1" stroke="none"/>
<circle clip-path="url(#clip152)" cx="2196.18" cy="1405.43" r="21" fill="#ff00ff" fill-rule="evenodd" fill-opacity="1" stroke="none"/>
<circle clip-path="url(#clip152)" cx="2244.66" cy="1405.53" r="21" fill="#ff00ff" fill-rule="evenodd" fill-opacity="1" stroke="none"/>
<path clip-path="url(#clip150)" d="
M1601.88 322.977 L2282.53 322.977 L2282.53 167.457 L1601.88 167.457  Z
  " fill="#ffffff" fill-rule="evenodd" fill-opacity="1"/>
<polyline clip-path="url(#clip150)" style="stroke:#000000; stroke-linecap:butt; stroke-linejoin:round; stroke-width:4; stroke-opacity:1; fill:none" points="
  1601.88,322.977 2282.53,322.977 2282.53,167.457 1601.88,167.457 1601.88,322.977 
  "/>
<polyline clip-path="url(#clip150)" style="stroke:#009fe3; stroke-linecap:butt; stroke-linejoin:round; stroke-width:4; stroke-opacity:0.996078; fill:none" points="
  1625.29,219.297 1765.74,219.297 
  "/>
<path clip-path="url(#clip150)" d="M1811.39 203.151 L1811.39 207.711 Q1808.73 206.438 1806.37 205.813 Q1804.01 205.188 1801.81 205.188 Q1797.99 205.188 1795.9 206.67 Q1793.84 208.151 1793.84 210.882 Q1793.84 213.174 1795.21 214.355 Q1796.6 215.512 1800.44 216.23 L1803.27 216.808 Q1808.5 217.804 1810.97 220.327 Q1813.47 222.827 1813.47 227.04 Q1813.47 232.063 1810.09 234.656 Q1806.74 237.248 1800.23 237.248 Q1797.78 237.248 1795 236.693 Q1792.25 236.137 1789.28 235.049 L1789.28 230.234 Q1792.13 231.831 1794.86 232.642 Q1797.59 233.452 1800.23 233.452 Q1804.24 233.452 1806.41 231.878 Q1808.59 230.304 1808.59 227.387 Q1808.59 224.841 1807.02 223.406 Q1805.46 221.97 1801.9 221.253 L1799.05 220.697 Q1793.82 219.656 1791.48 217.433 Q1789.15 215.211 1789.15 211.253 Q1789.15 206.67 1792.36 204.031 Q1795.6 201.392 1801.28 201.392 Q1803.71 201.392 1806.23 201.832 Q1808.75 202.271 1811.39 203.151 Z" fill="#000000" fill-rule="evenodd" fill-opacity="1" /><path clip-path="url(#clip150)" d="M1820.58 210.651 L1824.84 210.651 L1824.84 236.577 L1820.58 236.577 L1820.58 210.651 M1820.58 200.558 L1824.84 200.558 L1824.84 205.952 L1820.58 205.952 L1820.58 200.558 Z" fill="#000000" fill-rule="evenodd" fill-opacity="1" /><path clip-path="url(#clip150)" d="M1853.94 215.628 Q1855.53 212.757 1857.76 211.392 Q1859.98 210.026 1862.99 210.026 Q1867.04 210.026 1869.24 212.873 Q1871.44 215.697 1871.44 220.929 L1871.44 236.577 L1867.15 236.577 L1867.15 221.068 Q1867.15 217.341 1865.83 215.535 Q1864.52 213.73 1861.81 213.73 Q1858.5 213.73 1856.58 215.929 Q1854.65 218.128 1854.65 221.924 L1854.65 236.577 L1850.37 236.577 L1850.37 221.068 Q1850.37 217.318 1849.05 215.535 Q1847.73 213.73 1844.98 213.73 Q1841.71 213.73 1839.79 215.952 Q1837.87 218.151 1837.87 221.924 L1837.87 236.577 L1833.59 236.577 L1833.59 210.651 L1837.87 210.651 L1837.87 214.679 Q1839.33 212.295 1841.37 211.16 Q1843.4 210.026 1846.21 210.026 Q1849.03 210.026 1851 211.461 Q1852.99 212.896 1853.94 215.628 Z" fill="#000000" fill-rule="evenodd" fill-opacity="1" /><path clip-path="url(#clip150)" d="M1879.49 226.345 L1879.49 210.651 L1883.75 210.651 L1883.75 226.183 Q1883.75 229.864 1885.19 231.716 Q1886.62 233.544 1889.49 233.544 Q1892.94 233.544 1894.93 231.345 Q1896.95 229.146 1896.95 225.35 L1896.95 210.651 L1901.21 210.651 L1901.21 236.577 L1896.95 236.577 L1896.95 232.595 Q1895.4 234.956 1893.33 236.114 Q1891.3 237.248 1888.59 237.248 Q1884.12 237.248 1881.81 234.47 Q1879.49 231.693 1879.49 226.345 M1890.21 210.026 L1890.21 210.026 Z" fill="#000000" fill-rule="evenodd" fill-opacity="1" /><path clip-path="url(#clip150)" d="M1909.98 200.558 L1914.24 200.558 L1914.24 236.577 L1909.98 236.577 L1909.98 200.558 Z" fill="#000000" fill-rule="evenodd" fill-opacity="1" /><path clip-path="url(#clip150)" d="M1934.93 223.544 Q1929.77 223.544 1927.78 224.725 Q1925.79 225.906 1925.79 228.753 Q1925.79 231.021 1927.27 232.364 Q1928.77 233.683 1931.34 233.683 Q1934.89 233.683 1937.02 231.183 Q1939.17 228.66 1939.17 224.494 L1939.17 223.544 L1934.93 223.544 M1943.43 221.785 L1943.43 236.577 L1939.17 236.577 L1939.17 232.642 Q1937.71 235.003 1935.53 236.137 Q1933.36 237.248 1930.21 237.248 Q1926.23 237.248 1923.87 235.026 Q1921.53 232.781 1921.53 229.031 Q1921.53 224.656 1924.45 222.433 Q1927.39 220.211 1933.2 220.211 L1939.17 220.211 L1939.17 219.794 Q1939.17 216.855 1937.22 215.257 Q1935.3 213.637 1931.81 213.637 Q1929.58 213.637 1927.48 214.17 Q1925.37 214.702 1923.43 215.767 L1923.43 211.832 Q1925.77 210.929 1927.96 210.489 Q1930.16 210.026 1932.25 210.026 Q1937.87 210.026 1940.65 212.943 Q1943.43 215.859 1943.43 221.785 Z" fill="#000000" fill-rule="evenodd" fill-opacity="1" /><path clip-path="url(#clip150)" d="M1956.41 203.29 L1956.41 210.651 L1965.19 210.651 L1965.19 213.961 L1956.41 213.961 L1956.41 228.035 Q1956.41 231.206 1957.27 232.109 Q1958.15 233.012 1960.81 233.012 L1965.19 233.012 L1965.19 236.577 L1960.81 236.577 Q1955.88 236.577 1954.01 234.748 Q1952.13 232.896 1952.13 228.035 L1952.13 213.961 L1949.01 213.961 L1949.01 210.651 L1952.13 210.651 L1952.13 203.29 L1956.41 203.29 Z" fill="#000000" fill-rule="evenodd" fill-opacity="1" /><path clip-path="url(#clip150)" d="M1970.79 210.651 L1975.05 210.651 L1975.05 236.577 L1970.79 236.577 L1970.79 210.651 M1970.79 200.558 L1975.05 200.558 L1975.05 205.952 L1970.79 205.952 L1970.79 200.558 Z" fill="#000000" fill-rule="evenodd" fill-opacity="1" /><path clip-path="url(#clip150)" d="M1994.01 213.637 Q1990.58 213.637 1988.59 216.322 Q1986.6 218.984 1986.6 223.637 Q1986.6 228.29 1988.57 230.975 Q1990.56 233.637 1994.01 233.637 Q1997.41 233.637 1999.4 230.952 Q2001.39 228.267 2001.39 223.637 Q2001.39 219.031 1999.4 216.345 Q1997.41 213.637 1994.01 213.637 M1994.01 210.026 Q1999.56 210.026 2002.73 213.637 Q2005.9 217.248 2005.9 223.637 Q2005.9 230.003 2002.73 233.637 Q1999.56 237.248 1994.01 237.248 Q1988.43 237.248 1985.26 233.637 Q1982.11 230.003 1982.11 223.637 Q1982.11 217.248 1985.26 213.637 Q1988.43 210.026 1994.01 210.026 Z" fill="#000000" fill-rule="evenodd" fill-opacity="1" /><path clip-path="url(#clip150)" d="M2034.51 220.929 L2034.51 236.577 L2030.26 236.577 L2030.26 221.068 Q2030.26 217.387 2028.82 215.558 Q2027.39 213.73 2024.51 213.73 Q2021.07 213.73 2019.07 215.929 Q2017.08 218.128 2017.08 221.924 L2017.08 236.577 L2012.8 236.577 L2012.8 210.651 L2017.08 210.651 L2017.08 214.679 Q2018.61 212.341 2020.67 211.183 Q2022.76 210.026 2025.46 210.026 Q2029.93 210.026 2032.22 212.804 Q2034.51 215.558 2034.51 220.929 Z" fill="#000000" fill-rule="evenodd" fill-opacity="1" /><circle clip-path="url(#clip150)" cx="1695.51" cy="271.137" r="23" fill="#ff00ff" fill-rule="evenodd" fill-opacity="1" stroke="none"/>
<path clip-path="url(#clip150)" d="M1789.15 253.857 L1793.82 253.857 L1793.82 284.482 L1810.65 284.482 L1810.65 288.417 L1789.15 288.417 L1789.15 253.857 Z" fill="#000000" fill-rule="evenodd" fill-opacity="1" /><path clip-path="url(#clip150)" d="M1815.56 253.857 L1821.85 253.857 L1837.18 282.769 L1837.18 253.857 L1841.71 253.857 L1841.71 288.417 L1835.42 288.417 L1820.09 259.505 L1820.09 288.417 L1815.56 288.417 L1815.56 253.857 Z" fill="#000000" fill-rule="evenodd" fill-opacity="1" /><path clip-path="url(#clip150)" d="M1862.57 258.463 L1856.23 275.662 L1868.94 275.662 L1862.57 258.463 M1859.93 253.857 L1865.23 253.857 L1878.4 288.417 L1873.54 288.417 L1870.4 279.551 L1854.82 279.551 L1851.67 288.417 L1846.74 288.417 L1859.93 253.857 Z" fill="#000000" fill-rule="evenodd" fill-opacity="1" /><path clip-path="url(#clip150)" d="M1910.07 258.463 L1903.73 275.662 L1916.44 275.662 L1910.07 258.463 M1907.43 253.857 L1912.73 253.857 L1925.9 288.417 L1921.04 288.417 L1917.89 279.551 L1902.32 279.551 L1899.17 288.417 L1894.24 288.417 L1907.43 253.857 Z" fill="#000000" fill-rule="evenodd" fill-opacity="1" /><path clip-path="url(#clip150)" d="M1934.89 284.528 L1934.89 298.278 L1930.6 298.278 L1930.6 262.491 L1934.89 262.491 L1934.89 266.426 Q1936.23 264.111 1938.27 263 Q1940.33 261.866 1943.17 261.866 Q1947.89 261.866 1950.83 265.616 Q1953.8 269.366 1953.8 275.477 Q1953.8 281.588 1950.83 285.338 Q1947.89 289.088 1943.17 289.088 Q1940.33 289.088 1938.27 287.977 Q1936.23 286.843 1934.89 284.528 M1949.38 275.477 Q1949.38 270.778 1947.43 268.116 Q1945.51 265.431 1942.13 265.431 Q1938.75 265.431 1936.81 268.116 Q1934.89 270.778 1934.89 275.477 Q1934.89 280.176 1936.81 282.861 Q1938.75 285.523 1942.13 285.523 Q1945.51 285.523 1947.43 282.861 Q1949.38 280.176 1949.38 275.477 Z" fill="#000000" fill-rule="evenodd" fill-opacity="1" /><path clip-path="url(#clip150)" d="M1964.98 284.528 L1964.98 298.278 L1960.7 298.278 L1960.7 262.491 L1964.98 262.491 L1964.98 266.426 Q1966.32 264.111 1968.36 263 Q1970.42 261.866 1973.26 261.866 Q1977.99 261.866 1980.93 265.616 Q1983.89 269.366 1983.89 275.477 Q1983.89 281.588 1980.93 285.338 Q1977.99 289.088 1973.26 289.088 Q1970.42 289.088 1968.36 287.977 Q1966.32 286.843 1964.98 284.528 M1979.47 275.477 Q1979.47 270.778 1977.52 268.116 Q1975.6 265.431 1972.22 265.431 Q1968.84 265.431 1966.9 268.116 Q1964.98 270.778 1964.98 275.477 Q1964.98 280.176 1966.9 282.861 Q1968.84 285.523 1972.22 285.523 Q1975.6 285.523 1977.52 282.861 Q1979.47 280.176 1979.47 275.477 Z" fill="#000000" fill-rule="evenodd" fill-opacity="1" /><path clip-path="url(#clip150)" d="M2005.97 266.472 Q2005.26 266.056 2004.4 265.871 Q2003.57 265.662 2002.55 265.662 Q1998.94 265.662 1996.99 268.023 Q1995.07 270.361 1995.07 274.759 L1995.07 288.417 L1990.79 288.417 L1990.79 262.491 L1995.07 262.491 L1995.07 266.519 Q1996.41 264.158 1998.57 263.023 Q2000.72 261.866 2003.8 261.866 Q2004.24 261.866 2004.77 261.935 Q2005.3 261.982 2005.95 262.097 L2005.97 266.472 Z" fill="#000000" fill-rule="evenodd" fill-opacity="1" /><path clip-path="url(#clip150)" d="M2019.45 265.477 Q2016.02 265.477 2014.03 268.162 Q2012.04 270.824 2012.04 275.477 Q2012.04 280.13 2014.01 282.815 Q2016 285.477 2019.45 285.477 Q2022.85 285.477 2024.84 282.792 Q2026.83 280.107 2026.83 275.477 Q2026.83 270.871 2024.84 268.185 Q2022.85 265.477 2019.45 265.477 M2019.45 261.866 Q2025 261.866 2028.17 265.477 Q2031.34 269.088 2031.34 275.477 Q2031.34 281.843 2028.17 285.477 Q2025 289.088 2019.45 289.088 Q2013.87 289.088 2010.7 285.477 Q2007.55 281.843 2007.55 275.477 Q2007.55 269.088 2010.7 265.477 Q2013.87 261.866 2019.45 261.866 Z" fill="#000000" fill-rule="evenodd" fill-opacity="1" /><path clip-path="url(#clip150)" d="M2058.5 262.491 L2049.12 275.107 L2058.98 288.417 L2053.96 288.417 L2046.41 278.232 L2038.87 288.417 L2033.84 288.417 L2043.91 274.852 L2034.7 262.491 L2039.72 262.491 L2046.6 271.727 L2053.47 262.491 L2058.5 262.491 Z" fill="#000000" fill-rule="evenodd" fill-opacity="1" /><path clip-path="url(#clip150)" d="M2065 262.491 L2069.26 262.491 L2069.26 288.417 L2065 288.417 L2065 262.491 M2065 252.398 L2069.26 252.398 L2069.26 257.792 L2065 257.792 L2065 252.398 Z" fill="#000000" fill-rule="evenodd" fill-opacity="1" /><path clip-path="url(#clip150)" d="M2098.36 267.468 Q2099.95 264.597 2102.18 263.232 Q2104.4 261.866 2107.41 261.866 Q2111.46 261.866 2113.66 264.713 Q2115.86 267.537 2115.86 272.769 L2115.86 288.417 L2111.57 288.417 L2111.57 272.908 Q2111.57 269.181 2110.25 267.375 Q2108.94 265.57 2106.23 265.57 Q2102.92 265.57 2101 267.769 Q2099.07 269.968 2099.07 273.764 L2099.07 288.417 L2094.79 288.417 L2094.79 272.908 Q2094.79 269.158 2093.47 267.375 Q2092.15 265.57 2089.4 265.57 Q2086.13 265.57 2084.21 267.792 Q2082.29 269.991 2082.29 273.764 L2082.29 288.417 L2078.01 288.417 L2078.01 262.491 L2082.29 262.491 L2082.29 266.519 Q2083.75 264.135 2085.79 263 Q2087.82 261.866 2090.63 261.866 Q2093.45 261.866 2095.42 263.301 Q2097.41 264.736 2098.36 267.468 Z" fill="#000000" fill-rule="evenodd" fill-opacity="1" /><path clip-path="url(#clip150)" d="M2136.13 275.384 Q2130.97 275.384 2128.98 276.565 Q2126.99 277.746 2126.99 280.593 Q2126.99 282.861 2128.47 284.204 Q2129.98 285.523 2132.55 285.523 Q2136.09 285.523 2138.22 283.023 Q2140.37 280.5 2140.37 276.334 L2140.37 275.384 L2136.13 275.384 M2144.63 273.625 L2144.63 288.417 L2140.37 288.417 L2140.37 284.482 Q2138.91 286.843 2136.74 287.977 Q2134.56 289.088 2131.41 289.088 Q2127.43 289.088 2125.07 286.866 Q2122.73 284.621 2122.73 280.871 Q2122.73 276.496 2125.65 274.273 Q2128.59 272.051 2134.4 272.051 L2140.37 272.051 L2140.37 271.634 Q2140.37 268.695 2138.43 267.097 Q2136.5 265.477 2133.01 265.477 Q2130.79 265.477 2128.68 266.01 Q2126.57 266.542 2124.63 267.607 L2124.63 263.672 Q2126.97 262.769 2129.17 262.329 Q2131.37 261.866 2133.45 261.866 Q2139.07 261.866 2141.85 264.783 Q2144.63 267.699 2144.63 273.625 Z" fill="#000000" fill-rule="evenodd" fill-opacity="1" /><path clip-path="url(#clip150)" d="M2157.62 255.13 L2157.62 262.491 L2166.39 262.491 L2166.39 265.801 L2157.62 265.801 L2157.62 279.875 Q2157.62 283.046 2158.47 283.949 Q2159.35 284.852 2162.01 284.852 L2166.39 284.852 L2166.39 288.417 L2162.01 288.417 Q2157.08 288.417 2155.21 286.588 Q2153.33 284.736 2153.33 279.875 L2153.33 265.801 L2150.21 265.801 L2150.21 262.491 L2153.33 262.491 L2153.33 255.13 L2157.62 255.13 Z" fill="#000000" fill-rule="evenodd" fill-opacity="1" /><path clip-path="url(#clip150)" d="M2171.99 262.491 L2176.25 262.491 L2176.25 288.417 L2171.99 288.417 L2171.99 262.491 M2171.99 252.398 L2176.25 252.398 L2176.25 257.792 L2171.99 257.792 L2171.99 252.398 Z" fill="#000000" fill-rule="evenodd" fill-opacity="1" /><path clip-path="url(#clip150)" d="M2195.21 265.477 Q2191.78 265.477 2189.79 268.162 Q2187.8 270.824 2187.8 275.477 Q2187.8 280.13 2189.77 282.815 Q2191.76 285.477 2195.21 285.477 Q2198.61 285.477 2200.6 282.792 Q2202.59 280.107 2202.59 275.477 Q2202.59 270.871 2200.6 268.185 Q2198.61 265.477 2195.21 265.477 M2195.21 261.866 Q2200.76 261.866 2203.94 265.477 Q2207.11 269.088 2207.11 275.477 Q2207.11 281.843 2203.94 285.477 Q2200.76 289.088 2195.21 289.088 Q2189.63 289.088 2186.46 285.477 Q2183.31 281.843 2183.31 275.477 Q2183.31 269.088 2186.46 265.477 Q2189.63 261.866 2195.21 261.866 Z" fill="#000000" fill-rule="evenodd" fill-opacity="1" /><path clip-path="url(#clip150)" d="M2235.72 272.769 L2235.72 288.417 L2231.46 288.417 L2231.46 272.908 Q2231.46 269.227 2230.02 267.398 Q2228.59 265.57 2225.72 265.57 Q2222.27 265.57 2220.28 267.769 Q2218.29 269.968 2218.29 273.764 L2218.29 288.417 L2214 288.417 L2214 262.491 L2218.29 262.491 L2218.29 266.519 Q2219.81 264.181 2221.87 263.023 Q2223.96 261.866 2226.67 261.866 Q2231.13 261.866 2233.43 264.644 Q2235.72 267.398 2235.72 272.769 Z" fill="#000000" fill-rule="evenodd" fill-opacity="1" /></svg>
