<?xml version="1.0" encoding="utf-8"?>
<svg xmlns="http://www.w3.org/2000/svg" xmlns:xlink="http://www.w3.org/1999/xlink" width="600" height="400" viewBox="0 0 2400 1600">
<defs>
  <clipPath id="clip360">
    <rect x="0" y="0" width="2400" height="1600"/>
  </clipPath>
</defs>
<path clip-path="url(#clip360)" d="
M0 1600 L2400 1600 L2400 0 L0 0  Z
  " fill="#ffffff" fill-rule="evenodd" fill-opacity="1"/>
<defs>
  <clipPath id="clip361">
    <rect x="480" y="0" width="1681" height="1600"/>
  </clipPath>
</defs>
<path clip-path="url(#clip360)" d="
M238.13 1423.18 L2352.76 1423.18 L2352.76 47.2441 L238.13 47.2441  Z
  " fill="#ffffff" fill-rule="evenodd" fill-opacity="1"/>
<defs>
  <clipPath id="clip362">
    <rect x="238" y="47" width="2116" height="1377"/>
  </clipPath>
</defs>
<polyline clip-path="url(#clip362)" style="stroke:#000000; stroke-width:2; stroke-opacity:0.1; fill:none" points="
  354.438,1423.18 354.438,47.2441 
  "/>
<polyline clip-path="url(#clip362)" style="stroke:#000000; stroke-width:2; stroke-opacity:0.1; fill:none" points="
  907.97,1423.18 907.97,47.2441 
  "/>
<polyline clip-path="url(#clip362)" style="stroke:#000000; stroke-width:2; stroke-opacity:0.1; fill:none" points="
  1461.5,1423.18 1461.5,47.2441 
  "/>
<polyline clip-path="url(#clip362)" style="stroke:#000000; stroke-width:2; stroke-opacity:0.1; fill:none" points="
  2015.03,1423.18 2015.03,47.2441 
  "/>
<polyline clip-path="url(#clip360)" style="stroke:#000000; stroke-width:4; stroke-opacity:1; fill:none" points="
  238.13,1423.18 2352.76,1423.18 
  "/>
<polyline clip-path="url(#clip360)" style="stroke:#000000; stroke-width:4; stroke-opacity:1; fill:none" points="
  354.438,1423.18 354.438,1406.67 
  "/>
<polyline clip-path="url(#clip360)" style="stroke:#000000; stroke-width:4; stroke-opacity:1; fill:none" points="
  907.97,1423.18 907.97,1406.67 
  "/>
<polyline clip-path="url(#clip360)" style="stroke:#000000; stroke-width:4; stroke-opacity:1; fill:none" points="
  1461.5,1423.18 1461.5,1406.67 
  "/>
<polyline clip-path="url(#clip360)" style="stroke:#000000; stroke-width:4; stroke-opacity:1; fill:none" points="
  2015.03,1423.18 2015.03,1406.67 
  "/>
<path clip-path="url(#clip360)" d="M 0 0 M354.438 1452.37 Q350.827 1452.37 348.998 1455.94 Q347.193 1459.48 347.193 1466.61 Q347.193 1473.71 348.998 1477.28 Q350.827 1480.82 354.438 1480.82 Q358.072 1480.82 359.878 1477.28 Q361.707 1473.71 361.707 1466.61 Q361.707 1459.48 359.878 1455.94 Q358.072 1452.37 354.438 1452.37 M354.438 1448.67 Q360.248 1448.67 363.304 1453.27 Q366.383 1457.86 366.383 1466.61 Q366.383 1475.33 363.304 1479.94 Q360.248 1484.52 354.438 1484.52 Q348.628 1484.52 345.549 1479.94 Q342.494 1475.33 342.494 1466.61 Q342.494 1457.86 345.549 1453.27 Q348.628 1448.67 354.438 1448.67 Z" fill="#000000" fill-rule="evenodd" fill-opacity="1" /><path clip-path="url(#clip360)" d="M 0 0 M898.248 1449.29 L916.605 1449.29 L916.605 1453.23 L902.531 1453.23 L902.531 1461.7 Q903.549 1461.35 904.568 1461.19 Q905.586 1461 906.605 1461 Q912.392 1461 915.771 1464.18 Q919.151 1467.35 919.151 1472.76 Q919.151 1478.34 915.679 1481.44 Q912.207 1484.52 905.887 1484.52 Q903.711 1484.52 901.443 1484.15 Q899.197 1483.78 896.79 1483.04 L896.79 1478.34 Q898.873 1479.48 901.095 1480.03 Q903.318 1480.59 905.795 1480.59 Q909.799 1480.59 912.137 1478.48 Q914.475 1476.38 914.475 1472.76 Q914.475 1469.15 912.137 1467.05 Q909.799 1464.94 905.795 1464.94 Q903.92 1464.94 902.045 1465.36 Q900.193 1465.77 898.248 1466.65 L898.248 1449.29 Z" fill="#000000" fill-rule="evenodd" fill-opacity="1" /><path clip-path="url(#clip360)" d="M 0 0 M1438.38 1479.92 L1446.02 1479.92 L1446.02 1453.55 L1437.71 1455.22 L1437.71 1450.96 L1445.97 1449.29 L1450.65 1449.29 L1450.65 1479.92 L1458.29 1479.92 L1458.29 1483.85 L1438.38 1483.85 L1438.38 1479.92 Z" fill="#000000" fill-rule="evenodd" fill-opacity="1" /><path clip-path="url(#clip360)" d="M 0 0 M1473.35 1452.37 Q1469.74 1452.37 1467.91 1455.94 Q1466.11 1459.48 1466.11 1466.61 Q1466.11 1473.71 1467.91 1477.28 Q1469.74 1480.82 1473.35 1480.82 Q1476.99 1480.82 1478.79 1477.28 Q1480.62 1473.71 1480.62 1466.61 Q1480.62 1459.48 1478.79 1455.94 Q1476.99 1452.37 1473.35 1452.37 M1473.35 1448.67 Q1479.16 1448.67 1482.22 1453.27 Q1485.3 1457.86 1485.3 1466.61 Q1485.3 1475.33 1482.22 1479.94 Q1479.16 1484.52 1473.35 1484.52 Q1467.54 1484.52 1464.47 1479.94 Q1461.41 1475.33 1461.41 1466.61 Q1461.41 1457.86 1464.47 1453.27 Q1467.54 1448.67 1473.35 1448.67 Z" fill="#000000" fill-rule="evenodd" fill-opacity="1" /><path clip-path="url(#clip360)" d="M 0 0 M1992.41 1479.92 L2000.05 1479.92 L2000.05 1453.55 L1991.74 1455.22 L1991.74 1450.96 L2000 1449.29 L2004.68 1449.29 L2004.68 1479.92 L2012.31 1479.92 L2012.31 1483.85 L1992.41 1483.85 L1992.41 1479.92 Z" fill="#000000" fill-rule="evenodd" fill-opacity="1" /><path clip-path="url(#clip360)" d="M 0 0 M2017.43 1449.29 L2035.79 1449.29 L2035.79 1453.23 L2021.71 1453.23 L2021.71 1461.7 Q2022.73 1461.35 2023.75 1461.19 Q2024.77 1461 2025.79 1461 Q2031.57 1461 2034.95 1464.18 Q2038.33 1467.35 2038.33 1472.76 Q2038.33 1478.34 2034.86 1481.44 Q2031.39 1484.52 2025.07 1484.52 Q2022.89 1484.52 2020.63 1484.15 Q2018.38 1483.78 2015.97 1483.04 L2015.97 1478.34 Q2018.06 1479.48 2020.28 1480.03 Q2022.5 1480.59 2024.98 1480.59 Q2028.98 1480.59 2031.32 1478.48 Q2033.66 1476.38 2033.66 1472.76 Q2033.66 1469.15 2031.32 1467.05 Q2028.98 1464.94 2024.98 1464.94 Q2023.1 1464.94 2021.23 1465.36 Q2019.38 1465.77 2017.43 1466.65 L2017.43 1449.29 Z" fill="#000000" fill-rule="evenodd" fill-opacity="1" /><path clip-path="url(#clip360)" d="M 0 0 M1297.4 1539.24 Q1299.6 1535.29 1302.65 1533.41 Q1305.71 1531.54 1309.85 1531.54 Q1315.42 1531.54 1318.44 1535.45 Q1321.46 1539.33 1321.46 1546.53 L1321.46 1568.04 L1315.57 1568.04 L1315.57 1546.72 Q1315.57 1541.59 1313.76 1539.11 Q1311.95 1536.63 1308.22 1536.63 Q1303.67 1536.63 1301.03 1539.65 Q1298.39 1542.68 1298.39 1547.9 L1298.39 1568.04 L1292.5 1568.04 L1292.5 1546.72 Q1292.5 1541.56 1290.68 1539.11 Q1288.87 1536.63 1285.08 1536.63 Q1280.59 1536.63 1277.95 1539.68 Q1275.31 1542.71 1275.31 1547.9 L1275.31 1568.04 L1269.42 1568.04 L1269.42 1532.4 L1275.31 1532.4 L1275.31 1537.93 Q1277.32 1534.66 1280.12 1533.1 Q1282.92 1531.54 1286.77 1531.54 Q1290.65 1531.54 1293.36 1533.51 Q1296.1 1535.48 1297.4 1539.24 Z" fill="#000000" fill-rule="evenodd" fill-opacity="1" /><polyline clip-path="url(#clip362)" style="stroke:#000000; stroke-width:2; stroke-opacity:0.1; fill:none" points="
  238.13,1384.24 2352.76,1384.24 
  "/>
<polyline clip-path="url(#clip362)" style="stroke:#000000; stroke-width:2; stroke-opacity:0.1; fill:none" points="
  238.13,1094.81 2352.76,1094.81 
  "/>
<polyline clip-path="url(#clip362)" style="stroke:#000000; stroke-width:2; stroke-opacity:0.1; fill:none" points="
  238.13,805.379 2352.76,805.379 
  "/>
<polyline clip-path="url(#clip362)" style="stroke:#000000; stroke-width:2; stroke-opacity:0.1; fill:none" points="
  238.13,515.949 2352.76,515.949 
  "/>
<polyline clip-path="url(#clip362)" style="stroke:#000000; stroke-width:2; stroke-opacity:0.1; fill:none" points="
  238.13,226.519 2352.76,226.519 
  "/>
<polyline clip-path="url(#clip360)" style="stroke:#000000; stroke-width:4; stroke-opacity:1; fill:none" points="
  238.13,1423.18 238.13,47.2441 
  "/>
<polyline clip-path="url(#clip360)" style="stroke:#000000; stroke-width:4; stroke-opacity:1; fill:none" points="
  238.13,1384.24 263.506,1384.24 
  "/>
<polyline clip-path="url(#clip360)" style="stroke:#000000; stroke-width:4; stroke-opacity:1; fill:none" points="
  238.13,1094.81 263.506,1094.81 
  "/>
<polyline clip-path="url(#clip360)" style="stroke:#000000; stroke-width:4; stroke-opacity:1; fill:none" points="
  238.13,805.379 263.506,805.379 
  "/>
<polyline clip-path="url(#clip360)" style="stroke:#000000; stroke-width:4; stroke-opacity:1; fill:none" points="
  238.13,515.949 263.506,515.949 
  "/>
<polyline clip-path="url(#clip360)" style="stroke:#000000; stroke-width:4; stroke-opacity:1; fill:none" points="
  238.13,226.519 263.506,226.519 
  "/>
<path clip-path="url(#clip360)" d="M 0 0 M126.205 1370.04 Q122.593 1370.04 120.765 1373.6 Q118.959 1377.14 118.959 1384.27 Q118.959 1391.38 120.765 1394.94 Q122.593 1398.49 126.205 1398.49 Q129.839 1398.49 131.644 1394.94 Q133.473 1391.38 133.473 1384.27 Q133.473 1377.14 131.644 1373.6 Q129.839 1370.04 126.205 1370.04 M126.205 1366.33 Q132.015 1366.33 135.07 1370.94 Q138.149 1375.52 138.149 1384.27 Q138.149 1393 135.07 1397.61 Q132.015 1402.19 126.205 1402.19 Q120.394 1402.19 117.316 1397.61 Q114.26 1393 114.26 1384.27 Q114.26 1375.52 117.316 1370.94 Q120.394 1366.33 126.205 1366.33 Z" fill="#000000" fill-rule="evenodd" fill-opacity="1" /><path clip-path="url(#clip360)" d="M 0 0 M143.218 1395.64 L148.103 1395.64 L148.103 1401.52 L143.218 1401.52 L143.218 1395.64 Z" fill="#000000" fill-rule="evenodd" fill-opacity="1" /><path clip-path="url(#clip360)" d="M 0 0 M163.172 1370.04 Q159.561 1370.04 157.732 1373.6 Q155.927 1377.14 155.927 1384.27 Q155.927 1391.38 157.732 1394.94 Q159.561 1398.49 163.172 1398.49 Q166.806 1398.49 168.612 1394.94 Q170.44 1391.38 170.44 1384.27 Q170.44 1377.14 168.612 1373.6 Q166.806 1370.04 163.172 1370.04 M163.172 1366.33 Q168.982 1366.33 172.038 1370.94 Q175.116 1375.52 175.116 1384.27 Q175.116 1393 172.038 1397.61 Q168.982 1402.19 163.172 1402.19 Q157.362 1402.19 154.283 1397.61 Q151.228 1393 151.228 1384.27 Q151.228 1375.52 154.283 1370.94 Q157.362 1366.33 163.172 1366.33 Z" fill="#000000" fill-rule="evenodd" fill-opacity="1" /><path clip-path="url(#clip360)" d="M 0 0 M190.186 1370.04 Q186.575 1370.04 184.746 1373.6 Q182.94 1377.14 182.94 1384.27 Q182.94 1391.38 184.746 1394.94 Q186.575 1398.49 190.186 1398.49 Q193.82 1398.49 195.625 1394.94 Q197.454 1391.38 197.454 1384.27 Q197.454 1377.14 195.625 1373.6 Q193.82 1370.04 190.186 1370.04 M190.186 1366.33 Q195.996 1366.33 199.051 1370.94 Q202.13 1375.52 202.13 1384.27 Q202.13 1393 199.051 1397.61 Q195.996 1402.19 190.186 1402.19 Q184.376 1402.19 181.297 1397.61 Q178.241 1393 178.241 1384.27 Q178.241 1375.52 181.297 1370.94 Q184.376 1366.33 190.186 1366.33 Z" fill="#000000" fill-rule="evenodd" fill-opacity="1" /><path clip-path="url(#clip360)" d="M 0 0 M127.2 1080.61 Q123.589 1080.61 121.76 1084.17 Q119.955 1087.71 119.955 1094.84 Q119.955 1101.95 121.76 1105.51 Q123.589 1109.06 127.2 1109.06 Q130.834 1109.06 132.64 1105.51 Q134.468 1101.95 134.468 1094.84 Q134.468 1087.71 132.64 1084.17 Q130.834 1080.61 127.2 1080.61 M127.2 1076.9 Q133.01 1076.9 136.066 1081.51 Q139.144 1086.09 139.144 1094.84 Q139.144 1103.57 136.066 1108.18 Q133.01 1112.76 127.2 1112.76 Q121.39 1112.76 118.311 1108.18 Q115.256 1103.57 115.256 1094.84 Q115.256 1086.09 118.311 1081.51 Q121.39 1076.9 127.2 1076.9 Z" fill="#000000" fill-rule="evenodd" fill-opacity="1" /><path clip-path="url(#clip360)" d="M 0 0 M144.214 1106.21 L149.098 1106.21 L149.098 1112.09 L144.214 1112.09 L144.214 1106.21 Z" fill="#000000" fill-rule="evenodd" fill-opacity="1" /><path clip-path="url(#clip360)" d="M 0 0 M164.167 1080.61 Q160.556 1080.61 158.728 1084.17 Q156.922 1087.71 156.922 1094.84 Q156.922 1101.95 158.728 1105.51 Q160.556 1109.06 164.167 1109.06 Q167.802 1109.06 169.607 1105.51 Q171.436 1101.95 171.436 1094.84 Q171.436 1087.71 169.607 1084.17 Q167.802 1080.61 164.167 1080.61 M164.167 1076.9 Q169.977 1076.9 173.033 1081.51 Q176.112 1086.09 176.112 1094.84 Q176.112 1103.57 173.033 1108.18 Q169.977 1112.76 164.167 1112.76 Q158.357 1112.76 155.278 1108.18 Q152.223 1103.57 152.223 1094.84 Q152.223 1086.09 155.278 1081.51 Q158.357 1076.9 164.167 1076.9 Z" fill="#000000" fill-rule="evenodd" fill-opacity="1" /><path clip-path="url(#clip360)" d="M 0 0 M181.227 1077.53 L199.584 1077.53 L199.584 1081.46 L185.51 1081.46 L185.51 1089.94 Q186.528 1089.59 187.547 1089.43 Q188.565 1089.24 189.584 1089.24 Q195.371 1089.24 198.75 1092.41 Q202.13 1095.58 202.13 1101 Q202.13 1106.58 198.658 1109.68 Q195.186 1112.76 188.866 1112.76 Q186.69 1112.76 184.422 1112.39 Q182.176 1112.02 179.769 1111.28 L179.769 1106.58 Q181.852 1107.71 184.075 1108.27 Q186.297 1108.82 188.774 1108.82 Q192.778 1108.82 195.116 1106.72 Q197.454 1104.61 197.454 1101 Q197.454 1097.39 195.116 1095.28 Q192.778 1093.18 188.774 1093.18 Q186.899 1093.18 185.024 1093.59 Q183.172 1094.01 181.227 1094.89 L181.227 1077.53 Z" fill="#000000" fill-rule="evenodd" fill-opacity="1" /><path clip-path="url(#clip360)" d="M 0 0 M127.431 791.177 Q123.82 791.177 121.992 794.742 Q120.186 798.284 120.186 805.413 Q120.186 812.52 121.992 816.085 Q123.82 819.626 127.431 819.626 Q131.066 819.626 132.871 816.085 Q134.7 812.52 134.7 805.413 Q134.7 798.284 132.871 794.742 Q131.066 791.177 127.431 791.177 M127.431 787.474 Q133.242 787.474 136.297 792.08 Q139.376 796.663 139.376 805.413 Q139.376 814.14 136.297 818.747 Q133.242 823.33 127.431 823.33 Q121.621 823.33 118.543 818.747 Q115.487 814.14 115.487 805.413 Q115.487 796.663 118.543 792.08 Q121.621 787.474 127.431 787.474 Z" fill="#000000" fill-rule="evenodd" fill-opacity="1" /><path clip-path="url(#clip360)" d="M 0 0 M144.445 816.779 L149.329 816.779 L149.329 822.659 L144.445 822.659 L144.445 816.779 Z" fill="#000000" fill-rule="evenodd" fill-opacity="1" /><path clip-path="url(#clip360)" d="M 0 0 M155.209 818.724 L162.848 818.724 L162.848 792.358 L154.538 794.025 L154.538 789.765 L162.802 788.099 L167.477 788.099 L167.477 818.724 L175.116 818.724 L175.116 822.659 L155.209 822.659 L155.209 818.724 Z" fill="#000000" fill-rule="evenodd" fill-opacity="1" /><path clip-path="url(#clip360)" d="M 0 0 M190.186 791.177 Q186.575 791.177 184.746 794.742 Q182.94 798.284 182.94 805.413 Q182.94 812.52 184.746 816.085 Q186.575 819.626 190.186 819.626 Q193.82 819.626 195.625 816.085 Q197.454 812.52 197.454 805.413 Q197.454 798.284 195.625 794.742 Q193.82 791.177 190.186 791.177 M190.186 787.474 Q195.996 787.474 199.051 792.08 Q202.13 796.663 202.13 805.413 Q202.13 814.14 199.051 818.747 Q195.996 823.33 190.186 823.33 Q184.376 823.33 181.297 818.747 Q178.241 814.14 178.241 805.413 Q178.241 796.663 181.297 792.08 Q184.376 787.474 190.186 787.474 Z" fill="#000000" fill-rule="evenodd" fill-opacity="1" /><path clip-path="url(#clip360)" d="M 0 0 M128.427 501.748 Q124.816 501.748 122.987 505.312 Q121.181 508.854 121.181 515.984 Q121.181 523.09 122.987 526.655 Q124.816 530.197 128.427 530.197 Q132.061 530.197 133.867 526.655 Q135.695 523.09 135.695 515.984 Q135.695 508.854 133.867 505.312 Q132.061 501.748 128.427 501.748 M128.427 498.044 Q134.237 498.044 137.292 502.65 Q140.371 507.234 140.371 515.984 Q140.371 524.71 137.292 529.317 Q134.237 533.9 128.427 533.9 Q122.617 533.9 119.538 529.317 Q116.482 524.71 116.482 515.984 Q116.482 507.234 119.538 502.65 Q122.617 498.044 128.427 498.044 Z" fill="#000000" fill-rule="evenodd" fill-opacity="1" /><path clip-path="url(#clip360)" d="M 0 0 M145.441 527.349 L150.325 527.349 L150.325 533.229 L145.441 533.229 L145.441 527.349 Z" fill="#000000" fill-rule="evenodd" fill-opacity="1" /><path clip-path="url(#clip360)" d="M 0 0 M156.204 529.294 L163.843 529.294 L163.843 502.928 L155.533 504.595 L155.533 500.336 L163.797 498.669 L168.473 498.669 L168.473 529.294 L176.112 529.294 L176.112 533.229 L156.204 533.229 L156.204 529.294 Z" fill="#000000" fill-rule="evenodd" fill-opacity="1" /><path clip-path="url(#clip360)" d="M 0 0 M181.227 498.669 L199.584 498.669 L199.584 502.604 L185.51 502.604 L185.51 511.076 Q186.528 510.729 187.547 510.567 Q188.565 510.382 189.584 510.382 Q195.371 510.382 198.75 513.553 Q202.13 516.724 202.13 522.141 Q202.13 527.72 198.658 530.822 Q195.186 533.9 188.866 533.9 Q186.69 533.9 184.422 533.53 Q182.176 533.159 179.769 532.419 L179.769 527.72 Q181.852 528.854 184.075 529.41 Q186.297 529.965 188.774 529.965 Q192.778 529.965 195.116 527.859 Q197.454 525.752 197.454 522.141 Q197.454 518.53 195.116 516.423 Q192.778 514.317 188.774 514.317 Q186.899 514.317 185.024 514.734 Q183.172 515.15 181.227 516.03 L181.227 498.669 Z" fill="#000000" fill-rule="evenodd" fill-opacity="1" /><path clip-path="url(#clip360)" d="M 0 0 M127.802 212.318 Q124.191 212.318 122.362 215.883 Q120.556 219.424 120.556 226.554 Q120.556 233.66 122.362 237.225 Q124.191 240.767 127.802 240.767 Q131.436 240.767 133.242 237.225 Q135.07 233.66 135.07 226.554 Q135.07 219.424 133.242 215.883 Q131.436 212.318 127.802 212.318 M127.802 208.614 Q133.612 208.614 136.667 213.221 Q139.746 217.804 139.746 226.554 Q139.746 235.281 136.667 239.887 Q133.612 244.47 127.802 244.47 Q121.992 244.47 118.913 239.887 Q115.857 235.281 115.857 226.554 Q115.857 217.804 118.913 213.221 Q121.992 208.614 127.802 208.614 Z" fill="#000000" fill-rule="evenodd" fill-opacity="1" /><path clip-path="url(#clip360)" d="M 0 0 M144.816 237.92 L149.7 237.92 L149.7 243.799 L144.816 243.799 L144.816 237.92 Z" fill="#000000" fill-rule="evenodd" fill-opacity="1" /><path clip-path="url(#clip360)" d="M 0 0 M158.797 239.864 L175.116 239.864 L175.116 243.799 L153.172 243.799 L153.172 239.864 Q155.834 237.109 160.417 232.48 Q165.024 227.827 166.204 226.484 Q168.45 223.961 169.329 222.225 Q170.232 220.466 170.232 218.776 Q170.232 216.022 168.288 214.285 Q166.366 212.549 163.265 212.549 Q161.065 212.549 158.612 213.313 Q156.181 214.077 153.403 215.628 L153.403 210.906 Q156.228 209.772 158.681 209.193 Q161.135 208.614 163.172 208.614 Q168.542 208.614 171.737 211.299 Q174.931 213.984 174.931 218.475 Q174.931 220.605 174.121 222.526 Q173.334 224.424 171.227 227.017 Q170.649 227.688 167.547 230.906 Q164.445 234.1 158.797 239.864 Z" fill="#000000" fill-rule="evenodd" fill-opacity="1" /><path clip-path="url(#clip360)" d="M 0 0 M190.186 212.318 Q186.575 212.318 184.746 215.883 Q182.94 219.424 182.94 226.554 Q182.94 233.66 184.746 237.225 Q186.575 240.767 190.186 240.767 Q193.82 240.767 195.625 237.225 Q197.454 233.66 197.454 226.554 Q197.454 219.424 195.625 215.883 Q193.82 212.318 190.186 212.318 M190.186 208.614 Q195.996 208.614 199.051 213.221 Q202.13 217.804 202.13 226.554 Q202.13 235.281 199.051 239.887 Q195.996 244.47 190.186 244.47 Q184.376 244.47 181.297 239.887 Q178.241 235.281 178.241 226.554 Q178.241 217.804 181.297 213.221 Q184.376 208.614 190.186 208.614 Z" fill="#000000" fill-rule="evenodd" fill-opacity="1" /><path clip-path="url(#clip360)" d="M 0 0 M21.7677 793.124 L39.6235 793.124 L39.6235 785.04 Q39.6235 780.552 37.3 778.101 Q34.9765 775.65 30.6797 775.65 Q26.4147 775.65 24.0912 778.101 Q21.7677 780.552 21.7677 785.04 L21.7677 793.124 M16.4842 799.553 L16.4842 785.04 Q16.4842 777.051 20.1126 772.977 Q23.7092 768.871 30.6797 768.871 Q37.7138 768.871 41.3104 772.977 Q44.907 777.051 44.907 785.04 L44.907 793.124 L64.0042 793.124 L64.0042 799.553 L16.4842 799.553 Z" fill="#000000" fill-rule="evenodd" fill-opacity="1" /><path clip-path="url(#clip360)" d="M 0 0 M14.5426 748.66 Q21.8632 752.925 29.0246 754.993 Q36.186 757.062 43.5384 757.062 Q50.8908 757.062 58.1159 754.993 Q65.3091 752.893 72.5979 748.66 L72.5979 753.752 Q65.1182 758.526 57.8931 760.914 Q50.668 763.269 43.5384 763.269 Q36.4406 763.269 29.2474 760.914 Q22.0542 758.558 14.5426 753.752 L14.5426 748.66 Z" fill="#000000" fill-rule="evenodd" fill-opacity="1" /><path clip-path="url(#clip360)" d="M 0 0 M35.1993 714.762 Q31.2526 712.566 29.3747 709.51 Q27.4968 706.455 27.4968 702.317 Q27.4968 696.747 31.4117 693.723 Q35.2948 690.7 42.4881 690.7 L64.0042 690.7 L64.0042 696.588 L42.679 696.588 Q37.5546 696.588 35.072 698.402 Q32.5894 700.216 32.5894 703.94 Q32.5894 708.492 35.6131 711.134 Q38.6368 713.775 43.8567 713.775 L64.0042 713.775 L64.0042 719.664 L42.679 719.664 Q37.5228 719.664 35.072 721.478 Q32.5894 723.292 32.5894 727.08 Q32.5894 731.568 35.6449 734.209 Q38.6686 736.851 43.8567 736.851 L64.0042 736.851 L64.0042 742.739 L28.3562 742.739 L28.3562 736.851 L33.8944 736.851 Q30.616 734.846 29.0564 732.045 Q27.4968 729.244 27.4968 725.393 Q27.4968 721.51 29.4702 718.804 Q31.4436 716.067 35.1993 714.762 Z" fill="#000000" fill-rule="evenodd" fill-opacity="1" /><path clip-path="url(#clip360)" d="M 0 0 M14.5426 685.48 L14.5426 680.387 Q22.0542 675.613 29.2474 673.258 Q36.4406 670.871 43.5384 670.871 Q50.668 670.871 57.8931 673.258 Q65.1182 675.613 72.5979 680.387 L72.5979 685.48 Q65.3091 681.247 58.1159 679.178 Q50.8908 677.077 43.5384 677.077 Q36.186 677.077 29.0246 679.178 Q21.8632 681.247 14.5426 685.48 Z" fill="#000000" fill-rule="evenodd" fill-opacity="1" /><path clip-path="url(#clip362)" d="
M354.438 1159.21 L354.438 1384.24 L465.145 1384.24 L465.145 1159.21 L354.438 1159.21 L354.438 1159.21  Z
  " fill="#009af9" fill-rule="evenodd" fill-opacity="1"/>
<polyline clip-path="url(#clip362)" style="stroke:#009af9; stroke-width:4; stroke-opacity:1; fill:none" points="
  354.438,1159.21 354.438,1384.24 465.145,1384.24 465.145,1159.21 354.438,1159.21 
  "/>
<path clip-path="url(#clip362)" d="
M465.145 651.427 L465.145 1384.24 L575.851 1384.24 L575.851 651.427 L465.145 651.427 L465.145 651.427  Z
  " fill="#009af9" fill-rule="evenodd" fill-opacity="1"/>
<polyline clip-path="url(#clip362)" style="stroke:#009af9; stroke-width:4; stroke-opacity:1; fill:none" points="
  465.145,651.427 465.145,1384.24 575.851,1384.24 575.851,651.427 465.145,651.427 
  "/>
<path clip-path="url(#clip362)" d="
M575.851 198.421 L575.851 1384.24 L686.558 1384.24 L686.558 198.421 L575.851 198.421 L575.851 198.421  Z
  " fill="#009af9" fill-rule="evenodd" fill-opacity="1"/>
<polyline clip-path="url(#clip362)" style="stroke:#009af9; stroke-width:4; stroke-opacity:1; fill:none" points="
  575.851,198.421 575.851,1384.24 686.558,1384.24 686.558,198.421 575.851,198.421 
  "/>
<path clip-path="url(#clip362)" d="
M686.558 100.438 L686.558 1384.24 L797.264 1384.24 L797.264 100.438 L686.558 100.438 L686.558 100.438  Z
  " fill="#009af9" fill-rule="evenodd" fill-opacity="1"/>
<polyline clip-path="url(#clip362)" style="stroke:#009af9; stroke-width:4; stroke-opacity:1; fill:none" points="
  686.558,100.438 686.558,1384.24 797.264,1384.24 797.264,100.438 686.558,100.438 
  "/>
<path clip-path="url(#clip362)" d="
M797.264 344.318 L797.264 1384.24 L907.97 1384.24 L907.97 344.318 L797.264 344.318 L797.264 344.318  Z
  " fill="#009af9" fill-rule="evenodd" fill-opacity="1"/>
<polyline clip-path="url(#clip362)" style="stroke:#009af9; stroke-width:4; stroke-opacity:1; fill:none" points="
  797.264,344.318 797.264,1384.24 907.97,1384.24 907.97,344.318 797.264,344.318 
  "/>
<path clip-path="url(#clip362)" d="
M907.97 707.719 L907.97 1384.24 L1018.68 1384.24 L1018.68 707.719 L907.97 707.719 L907.97 707.719  Z
  " fill="#009af9" fill-rule="evenodd" fill-opacity="1"/>
<polyline clip-path="url(#clip362)" style="stroke:#009af9; stroke-width:4; stroke-opacity:1; fill:none" points="
  907.97,707.719 907.97,1384.24 1018.68,1384.24 1018.68,707.719 907.97,707.719 
  "/>
<path clip-path="url(#clip362)" d="
M1018.68 1016.01 L1018.68 1384.24 L1129.38 1384.24 L1129.38 1016.01 L1018.68 1016.01 L1018.68 1016.01  Z
  " fill="#009af9" fill-rule="evenodd" fill-opacity="1"/>
<polyline clip-path="url(#clip362)" style="stroke:#009af9; stroke-width:4; stroke-opacity:1; fill:none" points="
  1018.68,1016.01 1018.68,1384.24 1129.38,1384.24 1129.38,1016.01 1018.68,1016.01 
  "/>
<path clip-path="url(#clip362)" d="
M1129.38 1213.15 L1129.38 1384.24 L1240.09 1384.24 L1240.09 1213.15 L1129.38 1213.15 L1129.38 1213.15  Z
  " fill="#009af9" fill-rule="evenodd" fill-opacity="1"/>
<polyline clip-path="url(#clip362)" style="stroke:#009af9; stroke-width:4; stroke-opacity:1; fill:none" points="
  1129.38,1213.15 1129.38,1384.24 1240.09,1384.24 1240.09,1213.15 1129.38,1213.15 
  "/>
<path clip-path="url(#clip362)" d="
M1240.09 1315.2 L1240.09 1384.24 L1350.8 1384.24 L1350.8 1315.2 L1240.09 1315.2 L1240.09 1315.2  Z
  " fill="#009af9" fill-rule="evenodd" fill-opacity="1"/>
<polyline clip-path="url(#clip362)" style="stroke:#009af9; stroke-width:4; stroke-opacity:1; fill:none" points="
  1240.09,1315.2 1240.09,1384.24 1350.8,1384.24 1350.8,1315.2 1240.09,1315.2 
  "/>
<path clip-path="url(#clip362)" d="
M1350.8 1359.03 L1350.8 1384.24 L1461.5 1384.24 L1461.5 1359.03 L1350.8 1359.03 L1350.8 1359.03  Z
  " fill="#009af9" fill-rule="evenodd" fill-opacity="1"/>
<polyline clip-path="url(#clip362)" style="stroke:#009af9; stroke-width:4; stroke-opacity:1; fill:none" points="
  1350.8,1359.03 1350.8,1384.24 1461.5,1384.24 1461.5,1359.03 1350.8,1359.03 
  "/>
<path clip-path="url(#clip362)" d="
M1461.5 1376.42 L1461.5 1384.24 L1572.21 1384.24 L1572.21 1376.42 L1461.5 1376.42 L1461.5 1376.42  Z
  " fill="#009af9" fill-rule="evenodd" fill-opacity="1"/>
<polyline clip-path="url(#clip362)" style="stroke:#009af9; stroke-width:4; stroke-opacity:1; fill:none" points="
  1461.5,1376.42 1461.5,1384.24 1572.21,1384.24 1572.21,1376.42 1461.5,1376.42 
  "/>
<path clip-path="url(#clip362)" d="
M1572.21 1381.77 L1572.21 1384.24 L1682.92 1384.24 L1682.92 1381.77 L1572.21 1381.77 L1572.21 1381.77  Z
  " fill="#009af9" fill-rule="evenodd" fill-opacity="1"/>
<polyline clip-path="url(#clip362)" style="stroke:#009af9; stroke-width:4; stroke-opacity:1; fill:none" points="
  1572.21,1381.77 1572.21,1384.24 1682.92,1384.24 1682.92,1381.77 1572.21,1381.77 
  "/>
<path clip-path="url(#clip362)" d="
M1682.92 1383.55 L1682.92 1384.24 L1793.62 1384.24 L1793.62 1383.55 L1682.92 1383.55 L1682.92 1383.55  Z
  " fill="#009af9" fill-rule="evenodd" fill-opacity="1"/>
<polyline clip-path="url(#clip362)" style="stroke:#009af9; stroke-width:4; stroke-opacity:1; fill:none" points="
  1682.92,1383.55 1682.92,1384.24 1793.62,1384.24 1793.62,1383.55 1682.92,1383.55 
  "/>
<path clip-path="url(#clip362)" d="
M1793.62 1384.13 L1793.62 1384.24 L1904.33 1384.24 L1904.33 1384.13 L1793.62 1384.13 L1793.62 1384.13  Z
  " fill="#009af9" fill-rule="evenodd" fill-opacity="1"/>
<polyline clip-path="url(#clip362)" style="stroke:#009af9; stroke-width:4; stroke-opacity:1; fill:none" points="
  1793.62,1384.13 1793.62,1384.24 1904.33,1384.24 1904.33,1384.13 1793.62,1384.13 
  "/>
<path clip-path="url(#clip362)" d="
M1904.33 1384.22 L1904.33 1384.24 L2015.03 1384.24 L2015.03 1384.22 L1904.33 1384.22 L1904.33 1384.22  Z
  " fill="#009af9" fill-rule="evenodd" fill-opacity="1"/>
<polyline clip-path="url(#clip362)" style="stroke:#009af9; stroke-width:4; stroke-opacity:1; fill:none" points="
  1904.33,1384.22 1904.33,1384.24 2015.03,1384.24 2015.03,1384.22 1904.33,1384.22 
  "/>
<path clip-path="url(#clip362)" d="
M2015.03 1384.22 L2015.03 1384.24 L2125.74 1384.24 L2125.74 1384.22 L2015.03 1384.22 L2015.03 1384.22  Z
  " fill="#009af9" fill-rule="evenodd" fill-opacity="1"/>
<polyline clip-path="url(#clip362)" style="stroke:#009af9; stroke-width:4; stroke-opacity:1; fill:none" points="
  2015.03,1384.22 2015.03,1384.24 2125.74,1384.24 2125.74,1384.22 2015.03,1384.22 
  "/>
<path clip-path="url(#clip362)" d="
M2125.74 1384.23 L2125.74 1384.24 L2236.45 1384.24 L2236.45 1384.23 L2125.74 1384.23 L2125.74 1384.23  Z
  " fill="#009af9" fill-rule="evenodd" fill-opacity="1"/>
<polyline clip-path="url(#clip362)" style="stroke:#009af9; stroke-width:4; stroke-opacity:1; fill:none" points="
  2125.74,1384.23 2125.74,1384.24 2236.45,1384.24 2236.45,1384.23 2125.74,1384.23 
  "/>
<polyline clip-path="url(#clip362)" style="stroke:#e26f46; stroke-width:12; stroke-opacity:1; fill:none" points="
  354.438,1131.33 365.509,1105.17 376.58,1077.24 387.65,1047.55 398.721,1016.13 409.791,983.021 420.862,948.275 431.933,911.976 443.003,874.229 454.074,835.16 
  465.145,794.915 476.215,753.666 487.286,711.606 498.357,668.947 509.427,625.923 520.498,582.783 531.569,539.795 542.639,497.238 553.71,455.402 564.78,414.585 
  575.851,375.088 586.922,337.213 597.992,301.257 609.063,267.513 620.134,236.259 631.204,207.76 642.275,182.263 653.346,159.99 664.416,141.14 675.487,125.883 
  686.558,114.357 697.628,106.667 708.699,102.884 719.769,103.042 730.84,107.142 741.911,115.144 752.981,126.975 764.052,142.527 775.123,161.659 786.193,184.199 
  797.264,209.947 808.335,238.677 819.405,270.141 830.476,304.074 841.547,340.195 852.617,378.212 863.688,417.827 874.759,458.737 885.829,500.642 896.9,543.245 
  907.97,586.255 919.041,629.395 930.112,672.399 941.182,715.018 952.253,757.021 963.324,798.195 974.394,838.351 985.465,877.32 996.536,914.954 1007.61,951.131 
  1018.68,985.749 1029.75,1018.73 1040.82,1050.01 1051.89,1079.55 1062.96,1107.34 1074.03,1133.36 1085.1,1157.64 1096.17,1180.2 1107.24,1201.08 1118.31,1220.33 
  1129.38,1238.01 1140.45,1254.18 1151.52,1268.92 1162.6,1282.3 1173.67,1294.41 1184.74,1305.32 1195.81,1315.12 1206.88,1323.89 1217.95,1331.71 1229.02,1338.65 
  1240.09,1344.8 1251.16,1350.23 1262.23,1355 1273.3,1359.17 1284.37,1362.82 1295.44,1365.99 1306.51,1368.74 1317.58,1371.12 1328.65,1373.17 1339.73,1374.92 
  1350.8,1376.42 1361.87,1377.7 1372.94,1378.79 1384.01,1379.71 1395.08,1380.49 1406.15,1381.14 1417.22,1381.69 1428.29,1382.14 1439.36,1382.52 1450.43,1382.84 
  1461.5,1383.1 1472.57,1383.32 1483.64,1383.49 1494.71,1383.64 1505.79,1383.76 1516.86,1383.85 1527.93,1383.93 1539,1383.99 1550.07,1384.04 1561.14,1384.08 
  1572.21,1384.12 1583.28,1384.14 1594.35,1384.16 1605.42,1384.18 1616.49,1384.19 1627.56,1384.2 1638.63,1384.21 1649.7,1384.22 1660.77,1384.22 1671.84,1384.23 
  1682.92,1384.23 1693.99,1384.23 1705.06,1384.23 1716.13,1384.23 1727.2,1384.24 1738.27,1384.24 1749.34,1384.24 1760.41,1384.24 1771.48,1384.24 1782.55,1384.24 
  1793.62,1384.24 1804.69,1384.24 1815.76,1384.24 1826.83,1384.24 1837.9,1384.24 1848.98,1384.24 1860.05,1384.24 1871.12,1384.24 1882.19,1384.24 1893.26,1384.24 
  1904.33,1384.24 1915.4,1384.24 1926.47,1384.24 1937.54,1384.24 1948.61,1384.24 1959.68,1384.24 1970.75,1384.24 1981.82,1384.24 1992.89,1384.24 2003.96,1384.24 
  2015.03,1384.24 2026.11,1384.24 2037.18,1384.24 2048.25,1384.24 2059.32,1384.24 2070.39,1384.24 2081.46,1384.24 2092.53,1384.24 2103.6,1384.24 2114.67,1384.24 
  2125.74,1384.24 
  "/>
<polyline clip-path="url(#clip362)" style="stroke:#3da44d; stroke-width:12; stroke-opacity:1; fill:none" points="
  354.438,1158.88 365.509,1117.76 376.58,1073.63 387.65,1026.76 398.721,977.467 409.791,926.105 420.862,873.063 431.933,818.761 443.003,763.638 454.074,708.146 
  465.145,652.746 476.215,597.897 487.286,544.053 498.357,491.653 509.427,441.118 520.498,392.845 531.569,347.2 542.639,304.519 553.71,265.098 564.78,229.198 
  575.851,197.036 586.922,168.79 597.992,144.593 609.063,124.539 620.134,108.679 631.204,97.0235 642.275,89.5465 653.346,86.1857 664.416,86.8454 675.487,91.3997 
  686.558,99.6958 697.628,111.556 708.699,126.784 719.769,145.163 730.84,166.464 741.911,190.448 752.981,216.867 764.052,245.469 775.123,276 786.193,308.207 
  797.264,341.84 808.335,376.655 819.405,412.413 830.476,448.888 841.547,485.86 852.617,523.125 863.688,560.487 874.759,597.767 885.829,634.798 896.9,671.428 
  907.97,707.519 919.041,742.946 930.112,777.6 941.182,811.385 952.253,844.218 963.324,876.029 974.394,906.761 985.465,936.367 996.536,964.814 1007.61,992.075 
  1018.68,1018.14 1029.75,1042.99 1040.82,1066.64 1051.89,1089.08 1062.96,1110.35 1074.03,1130.45 1085.1,1149.41 1096.17,1167.26 1107.24,1184.03 1118.31,1199.75 
  1129.38,1214.47 1140.45,1228.23 1151.52,1241.05 1162.6,1253 1173.67,1264.1 1184.74,1274.4 1195.81,1283.94 1206.88,1292.77 1217.95,1300.92 1229.02,1308.44 
  1240.09,1315.36 1251.16,1321.72 1262.23,1327.56 1273.3,1332.91 1284.37,1337.81 1295.44,1342.29 1306.51,1346.38 1317.58,1350.11 1328.65,1353.51 1339.73,1356.59 
  1350.8,1359.4 1361.87,1361.94 1372.94,1364.24 1384.01,1366.32 1395.08,1368.21 1406.15,1369.91 1417.22,1371.44 1428.29,1372.82 1439.36,1374.06 1450.43,1375.17 
  1461.5,1376.17 1472.57,1377.07 1483.64,1377.87 1494.71,1378.59 1505.79,1379.23 1516.86,1379.81 1527.93,1380.32 1539,1380.77 1550.07,1381.18 1561.14,1381.54 
  1572.21,1381.86 1583.28,1382.14 1594.35,1382.39 1605.42,1382.62 1616.49,1382.81 1627.56,1382.99 1638.63,1383.14 1649.7,1383.28 1660.77,1383.4 1671.84,1383.5 
  1682.92,1383.59 1693.99,1383.68 1705.06,1383.75 1716.13,1383.81 1727.2,1383.87 1738.27,1383.91 1749.34,1383.96 1760.41,1383.99 1771.48,1384.02 1782.55,1384.05 
  1793.62,1384.08 1804.69,1384.1 1815.76,1384.12 1826.83,1384.13 1837.9,1384.15 1848.98,1384.16 1860.05,1384.17 1871.12,1384.18 1882.19,1384.19 1893.26,1384.19 
  1904.33,1384.2 1915.4,1384.21 1926.47,1384.21 1937.54,1384.21 1948.61,1384.22 1959.68,1384.22 1970.75,1384.22 1981.82,1384.23 1992.89,1384.23 2003.96,1384.23 
  2015.03,1384.23 2026.11,1384.23 2037.18,1384.23 2048.25,1384.23 2059.32,1384.23 2070.39,1384.23 2081.46,1384.24 2092.53,1384.24 2103.6,1384.24 2114.67,1384.24 
  2125.74,1384.24 
  "/>
<path clip-path="url(#clip360)" d="
M1810.55 335.029 L2282.27 335.029 L2282.27 93.1086 L1810.55 93.1086  Z
  " fill="#ffffff" fill-rule="evenodd" fill-opacity="1"/>
<polyline clip-path="url(#clip360)" style="stroke:#000000; stroke-width:4; stroke-opacity:1; fill:none" points="
  1810.55,335.029 2282.27,335.029 2282.27,93.1086 1810.55,93.1086 1810.55,335.029 
  "/>
<path clip-path="url(#clip360)" d="
M1834.05 177.781 L1975.02 177.781 L1975.02 129.397 L1834.05 129.397 L1834.05 177.781  Z
  " fill="#009af9" fill-rule="evenodd" fill-opacity="1"/>
<polyline clip-path="url(#clip360)" style="stroke:#009af9; stroke-width:4; stroke-opacity:1; fill:none" points="
  1834.05,177.781 1975.02,177.781 1975.02,129.397 1834.05,129.397 1834.05,177.781 
  "/>
<path clip-path="url(#clip360)" d="M 0 0 M2012.36 173.276 Q2010.56 177.906 2008.84 179.318 Q2007.13 180.73 2004.26 180.73 L2000.86 180.73 L2000.86 177.165 L2003.36 177.165 Q2005.12 177.165 2006.09 176.332 Q2007.06 175.498 2008.24 172.396 L2009 170.452 L1998.52 144.943 L2003.03 144.943 L2011.13 165.221 L2019.24 144.943 L2023.75 144.943 L2012.36 173.276 Z" fill="#000000" fill-rule="evenodd" fill-opacity="1" /><path clip-path="url(#clip360)" d="M 0 0 M2029.63 166.933 L2037.27 166.933 L2037.27 140.568 L2028.96 142.235 L2028.96 137.975 L2037.22 136.309 L2041.9 136.309 L2041.9 166.933 L2049.54 166.933 L2049.54 170.869 L2029.63 170.869 L2029.63 166.933 Z" fill="#000000" fill-rule="evenodd" fill-opacity="1" /><polyline clip-path="url(#clip360)" style="stroke:#e26f46; stroke-width:4; stroke-opacity:1; fill:none" points="
  1834.05,214.069 1975.02,214.069 
  "/>
<path clip-path="url(#clip360)" d="M 0 0 M2017.43 218.085 Q2017.43 213.455 2015.51 210.909 Q2013.61 208.363 2010.16 208.363 Q2006.74 208.363 2004.81 210.909 Q2002.92 213.455 2002.92 218.085 Q2002.92 222.691 2004.81 225.238 Q2006.74 227.784 2010.16 227.784 Q2013.61 227.784 2015.51 225.238 Q2017.43 222.691 2017.43 218.085 M2021.69 228.131 Q2021.69 234.751 2018.75 237.969 Q2015.81 241.21 2009.75 241.21 Q2007.5 241.21 2005.51 240.862 Q2003.52 240.538 2001.64 239.844 L2001.64 235.7 Q2003.52 236.719 2005.35 237.205 Q2007.18 237.691 2009.07 237.691 Q2013.26 237.691 2015.35 235.492 Q2017.43 233.316 2017.43 228.895 L2017.43 226.788 Q2016.11 229.08 2014.05 230.214 Q2011.99 231.349 2009.12 231.349 Q2004.35 231.349 2001.44 227.714 Q1998.52 224.08 1998.52 218.085 Q1998.52 212.066 2001.44 208.432 Q2004.35 204.798 2009.12 204.798 Q2011.99 204.798 2014.05 205.932 Q2016.11 207.066 2017.43 209.358 L2017.43 205.423 L2021.69 205.423 L2021.69 228.131 Z" fill="#000000" fill-rule="evenodd" fill-opacity="1" /><path clip-path="url(#clip360)" d="M 0 0 M2037.94 218.316 Q2032.78 218.316 2030.79 219.497 Q2028.8 220.677 2028.8 223.525 Q2028.8 225.793 2030.28 227.136 Q2031.78 228.455 2034.35 228.455 Q2037.89 228.455 2040.02 225.955 Q2042.18 223.432 2042.18 219.265 L2042.18 218.316 L2037.94 218.316 M2046.44 216.557 L2046.44 231.349 L2042.18 231.349 L2042.18 227.413 Q2040.72 229.775 2038.54 230.909 Q2036.37 232.02 2033.22 232.02 Q2029.24 232.02 2026.88 229.798 Q2024.54 227.552 2024.54 223.802 Q2024.54 219.427 2027.45 217.205 Q2030.39 214.983 2036.2 214.983 L2042.18 214.983 L2042.18 214.566 Q2042.18 211.627 2040.23 210.029 Q2038.31 208.409 2034.81 208.409 Q2032.59 208.409 2030.49 208.941 Q2028.38 209.474 2026.44 210.539 L2026.44 206.603 Q2028.77 205.701 2030.97 205.261 Q2033.17 204.798 2035.25 204.798 Q2040.88 204.798 2043.66 207.714 Q2046.44 210.631 2046.44 216.557 Z" fill="#000000" fill-rule="evenodd" fill-opacity="1" /><path clip-path="url(#clip360)" d="M 0 0 M2050.46 221.117 L2050.46 205.423 L2054.72 205.423 L2054.72 220.955 Q2054.72 224.636 2056.16 226.488 Q2057.59 228.316 2060.46 228.316 Q2063.91 228.316 2065.9 226.117 Q2067.92 223.918 2067.92 220.122 L2067.92 205.423 L2072.18 205.423 L2072.18 231.349 L2067.92 231.349 L2067.92 227.367 Q2066.37 229.728 2064.31 230.886 Q2062.27 232.02 2059.56 232.02 Q2055.09 232.02 2052.78 229.242 Q2050.46 226.464 2050.46 221.117 M2061.18 204.798 L2061.18 204.798 Z" fill="#000000" fill-rule="evenodd" fill-opacity="1" /><path clip-path="url(#clip360)" d="M 0 0 M2093.17 206.187 L2093.17 210.214 Q2091.37 209.289 2089.42 208.826 Q2087.48 208.363 2085.39 208.363 Q2082.22 208.363 2080.62 209.335 Q2079.05 210.307 2079.05 212.251 Q2079.05 213.733 2080.18 214.589 Q2081.32 215.423 2084.75 216.187 L2086.2 216.511 Q2090.74 217.483 2092.64 219.265 Q2094.56 221.025 2094.56 224.196 Q2094.56 227.807 2091.69 229.913 Q2088.84 232.02 2083.84 232.02 Q2081.76 232.02 2079.49 231.603 Q2077.25 231.21 2074.75 230.4 L2074.75 226.001 Q2077.11 227.228 2079.4 227.853 Q2081.69 228.455 2083.93 228.455 Q2086.94 228.455 2088.56 227.437 Q2090.18 226.395 2090.18 224.52 Q2090.18 222.784 2089 221.858 Q2087.85 220.932 2083.89 220.076 L2082.41 219.728 Q2078.45 218.895 2076.69 217.182 Q2074.93 215.446 2074.93 212.437 Q2074.93 208.779 2077.52 206.789 Q2080.12 204.798 2084.88 204.798 Q2087.25 204.798 2089.33 205.145 Q2091.41 205.492 2093.17 206.187 Z" fill="#000000" fill-rule="evenodd" fill-opacity="1" /><path clip-path="url(#clip360)" d="M 0 0 M2115.56 206.187 L2115.56 210.214 Q2113.75 209.289 2111.81 208.826 Q2109.86 208.363 2107.78 208.363 Q2104.61 208.363 2103.01 209.335 Q2101.43 210.307 2101.43 212.251 Q2101.43 213.733 2102.57 214.589 Q2103.7 215.423 2107.13 216.187 L2108.59 216.511 Q2113.12 217.483 2115.02 219.265 Q2116.94 221.025 2116.94 224.196 Q2116.94 227.807 2114.07 229.913 Q2111.23 232.02 2106.23 232.02 Q2104.14 232.02 2101.87 231.603 Q2099.63 231.21 2097.13 230.4 L2097.13 226.001 Q2099.49 227.228 2101.78 227.853 Q2104.07 228.455 2106.32 228.455 Q2109.33 228.455 2110.95 227.437 Q2112.57 226.395 2112.57 224.52 Q2112.57 222.784 2111.39 221.858 Q2110.23 220.932 2106.27 220.076 L2104.79 219.728 Q2100.83 218.895 2099.07 217.182 Q2097.31 215.446 2097.31 212.437 Q2097.31 208.779 2099.91 206.789 Q2102.5 204.798 2107.27 204.798 Q2109.63 204.798 2111.71 205.145 Q2113.8 205.492 2115.56 206.187 Z" fill="#000000" fill-rule="evenodd" fill-opacity="1" /><path clip-path="url(#clip360)" d="M 0 0 M2121.41 205.423 L2125.67 205.423 L2125.67 231.349 L2121.41 231.349 L2121.41 205.423 M2121.41 195.33 L2125.67 195.33 L2125.67 200.724 L2121.41 200.724 L2121.41 195.33 Z" fill="#000000" fill-rule="evenodd" fill-opacity="1" /><path clip-path="url(#clip360)" d="M 0 0 M2141.92 218.316 Q2136.76 218.316 2134.77 219.497 Q2132.78 220.677 2132.78 223.525 Q2132.78 225.793 2134.26 227.136 Q2135.76 228.455 2138.33 228.455 Q2141.87 228.455 2144 225.955 Q2146.16 223.432 2146.16 219.265 L2146.16 218.316 L2141.92 218.316 M2150.42 216.557 L2150.42 231.349 L2146.16 231.349 L2146.16 227.413 Q2144.7 229.775 2142.52 230.909 Q2140.35 232.02 2137.2 232.02 Q2133.22 232.02 2130.86 229.798 Q2128.52 227.552 2128.52 223.802 Q2128.52 219.427 2131.43 217.205 Q2134.37 214.983 2140.18 214.983 L2146.16 214.983 L2146.16 214.566 Q2146.16 211.627 2144.21 210.029 Q2142.29 208.409 2138.8 208.409 Q2136.57 208.409 2134.47 208.941 Q2132.36 209.474 2130.42 210.539 L2130.42 206.603 Q2132.75 205.701 2134.95 205.261 Q2137.15 204.798 2139.24 204.798 Q2144.86 204.798 2147.64 207.714 Q2150.42 210.631 2150.42 216.557 Z" fill="#000000" fill-rule="evenodd" fill-opacity="1" /><path clip-path="url(#clip360)" d="M 0 0 M2176.43 215.701 L2176.43 231.349 L2172.18 231.349 L2172.18 215.839 Q2172.18 212.159 2170.74 210.33 Q2169.3 208.502 2166.43 208.502 Q2162.99 208.502 2160.99 210.701 Q2159 212.9 2159 216.696 L2159 231.349 L2154.72 231.349 L2154.72 205.423 L2159 205.423 L2159 209.451 Q2160.53 207.113 2162.59 205.955 Q2164.68 204.798 2167.38 204.798 Q2171.85 204.798 2174.14 207.576 Q2176.43 210.33 2176.43 215.701 Z" fill="#000000" fill-rule="evenodd" fill-opacity="1" /><path clip-path="url(#clip360)" d="M 0 0 M2209.1 195.33 L2209.1 198.872 L2205.02 198.872 Q2202.73 198.872 2201.83 199.798 Q2200.95 200.724 2200.95 203.131 L2200.95 205.423 L2207.96 205.423 L2207.96 208.733 L2200.95 208.733 L2200.95 231.349 L2196.67 231.349 L2196.67 208.733 L2192.59 208.733 L2192.59 205.423 L2196.67 205.423 L2196.67 203.617 Q2196.67 199.289 2198.68 197.321 Q2200.69 195.33 2205.07 195.33 L2209.1 195.33 Z" fill="#000000" fill-rule="evenodd" fill-opacity="1" /><path clip-path="url(#clip360)" d="M 0 0 M2213.56 205.423 L2217.82 205.423 L2217.82 231.349 L2213.56 231.349 L2213.56 205.423 M2213.56 195.33 L2217.82 195.33 L2217.82 200.724 L2213.56 200.724 L2213.56 195.33 Z" fill="#000000" fill-rule="evenodd" fill-opacity="1" /><path clip-path="url(#clip360)" d="M 0 0 M2226.5 198.062 L2226.5 205.423 L2235.28 205.423 L2235.28 208.733 L2226.5 208.733 L2226.5 222.807 Q2226.5 225.978 2227.36 226.881 Q2228.24 227.784 2230.9 227.784 L2235.28 227.784 L2235.28 231.349 L2230.9 231.349 Q2225.97 231.349 2224.1 229.52 Q2222.22 227.668 2222.22 222.807 L2222.22 208.733 L2219.1 208.733 L2219.1 205.423 L2222.22 205.423 L2222.22 198.062 L2226.5 198.062 Z" fill="#000000" fill-rule="evenodd" fill-opacity="1" /><polyline clip-path="url(#clip360)" style="stroke:#3da44d; stroke-width:4; stroke-opacity:1; fill:none" points="
  1834.05,274.549 1975.02,274.549 
  "/>
<path clip-path="url(#clip360)" d="M 0 0 M2002.8 287.94 L2002.8 301.69 L1998.52 301.69 L1998.52 265.903 L2002.8 265.903 L2002.8 269.838 Q2004.14 267.523 2006.18 266.412 Q2008.24 265.278 2011.09 265.278 Q2015.81 265.278 2018.75 269.028 Q2021.71 272.778 2021.71 278.889 Q2021.71 285 2018.75 288.75 Q2015.81 292.5 2011.09 292.5 Q2008.24 292.5 2006.18 291.389 Q2004.14 290.255 2002.8 287.94 M2017.29 278.889 Q2017.29 274.19 2015.35 271.528 Q2013.43 268.843 2010.05 268.843 Q2006.67 268.843 2004.72 271.528 Q2002.8 274.19 2002.8 278.889 Q2002.8 283.588 2004.72 286.273 Q2006.67 288.935 2010.05 288.935 Q2013.43 288.935 2015.35 286.273 Q2017.29 283.588 2017.29 278.889 Z" fill="#000000" fill-rule="evenodd" fill-opacity="1" /><path clip-path="url(#clip360)" d="M 0 0 M2036.23 268.889 Q2032.8 268.889 2030.81 271.574 Q2028.82 274.236 2028.82 278.889 Q2028.82 283.542 2030.79 286.227 Q2032.78 288.889 2036.23 288.889 Q2039.63 288.889 2041.62 286.204 Q2043.61 283.518 2043.61 278.889 Q2043.61 274.282 2041.62 271.597 Q2039.63 268.889 2036.23 268.889 M2036.23 265.278 Q2041.78 265.278 2044.95 268.889 Q2048.12 272.5 2048.12 278.889 Q2048.12 285.255 2044.95 288.889 Q2041.78 292.5 2036.23 292.5 Q2030.65 292.5 2027.48 288.889 Q2024.33 285.255 2024.33 278.889 Q2024.33 272.5 2027.48 268.889 Q2030.65 265.278 2036.23 265.278 Z" fill="#000000" fill-rule="evenodd" fill-opacity="1" /><path clip-path="url(#clip360)" d="M 0 0 M2052.59 265.903 L2056.85 265.903 L2056.85 291.829 L2052.59 291.829 L2052.59 265.903 M2052.59 255.81 L2056.85 255.81 L2056.85 261.204 L2052.59 261.204 L2052.59 255.81 Z" fill="#000000" fill-rule="evenodd" fill-opacity="1" /><path clip-path="url(#clip360)" d="M 0 0 M2077.85 266.667 L2077.85 270.694 Q2076.04 269.769 2074.1 269.306 Q2072.15 268.843 2070.07 268.843 Q2066.9 268.843 2065.3 269.815 Q2063.73 270.787 2063.73 272.731 Q2063.73 274.213 2064.86 275.069 Q2066 275.903 2069.42 276.667 L2070.88 276.991 Q2075.42 277.963 2077.31 279.745 Q2079.24 281.505 2079.24 284.676 Q2079.24 288.287 2076.37 290.393 Q2073.52 292.5 2068.52 292.5 Q2066.44 292.5 2064.17 292.083 Q2061.92 291.69 2059.42 290.88 L2059.42 286.481 Q2061.78 287.708 2064.07 288.333 Q2066.37 288.935 2068.61 288.935 Q2071.62 288.935 2073.24 287.917 Q2074.86 286.875 2074.86 285 Q2074.86 283.264 2073.68 282.338 Q2072.52 281.412 2068.56 280.556 L2067.08 280.208 Q2063.12 279.375 2061.37 277.662 Q2059.61 275.926 2059.61 272.917 Q2059.61 269.259 2062.2 267.269 Q2064.79 265.278 2069.56 265.278 Q2071.92 265.278 2074 265.625 Q2076.09 265.972 2077.85 266.667 Z" fill="#000000" fill-rule="evenodd" fill-opacity="1" /><path clip-path="url(#clip360)" d="M 0 0 M2100.23 266.667 L2100.23 270.694 Q2098.43 269.769 2096.48 269.306 Q2094.54 268.843 2092.45 268.843 Q2089.28 268.843 2087.68 269.815 Q2086.11 270.787 2086.11 272.731 Q2086.11 274.213 2087.25 275.069 Q2088.38 275.903 2091.81 276.667 L2093.26 276.991 Q2097.8 277.963 2099.7 279.745 Q2101.62 281.505 2101.62 284.676 Q2101.62 288.287 2098.75 290.393 Q2095.9 292.5 2090.9 292.5 Q2088.82 292.5 2086.55 292.083 Q2084.31 291.69 2081.81 290.88 L2081.81 286.481 Q2084.17 287.708 2086.46 288.333 Q2088.75 288.935 2091 288.935 Q2094 288.935 2095.62 287.917 Q2097.25 286.875 2097.25 285 Q2097.25 283.264 2096.06 282.338 Q2094.91 281.412 2090.95 280.556 L2089.47 280.208 Q2085.51 279.375 2083.75 277.662 Q2081.99 275.926 2081.99 272.917 Q2081.99 269.259 2084.58 267.269 Q2087.18 265.278 2091.94 265.278 Q2094.31 265.278 2096.39 265.625 Q2098.47 265.972 2100.23 266.667 Z" fill="#000000" fill-rule="evenodd" fill-opacity="1" /><path clip-path="url(#clip360)" d="M 0 0 M2116.13 268.889 Q2112.71 268.889 2110.72 271.574 Q2108.73 274.236 2108.73 278.889 Q2108.73 283.542 2110.69 286.227 Q2112.68 288.889 2116.13 288.889 Q2119.54 288.889 2121.53 286.204 Q2123.52 283.518 2123.52 278.889 Q2123.52 274.282 2121.53 271.597 Q2119.54 268.889 2116.13 268.889 M2116.13 265.278 Q2121.69 265.278 2124.86 268.889 Q2128.03 272.5 2128.03 278.889 Q2128.03 285.255 2124.86 288.889 Q2121.69 292.5 2116.13 292.5 Q2110.56 292.5 2107.38 288.889 Q2104.24 285.255 2104.24 278.889 Q2104.24 272.5 2107.38 268.889 Q2110.56 265.278 2116.13 265.278 Z" fill="#000000" fill-rule="evenodd" fill-opacity="1" /><path clip-path="url(#clip360)" d="M 0 0 M2154.05 276.181 L2154.05 291.829 L2149.79 291.829 L2149.79 276.319 Q2149.79 272.639 2148.36 270.81 Q2146.92 268.982 2144.05 268.982 Q2140.6 268.982 2138.61 271.181 Q2136.62 273.38 2136.62 277.176 L2136.62 291.829 L2132.34 291.829 L2132.34 265.903 L2136.62 265.903 L2136.62 269.931 Q2138.15 267.593 2140.21 266.435 Q2142.29 265.278 2145 265.278 Q2149.47 265.278 2151.76 268.056 Q2154.05 270.81 2154.05 276.181 Z" fill="#000000" fill-rule="evenodd" fill-opacity="1" /><path clip-path="url(#clip360)" d="M 0 0 M2186.71 255.81 L2186.71 259.352 L2182.64 259.352 Q2180.35 259.352 2179.44 260.278 Q2178.56 261.204 2178.56 263.611 L2178.56 265.903 L2185.58 265.903 L2185.58 269.213 L2178.56 269.213 L2178.56 291.829 L2174.28 291.829 L2174.28 269.213 L2170.21 269.213 L2170.21 265.903 L2174.28 265.903 L2174.28 264.097 Q2174.28 259.769 2176.3 257.801 Q2178.31 255.81 2182.68 255.81 L2186.71 255.81 Z" fill="#000000" fill-rule="evenodd" fill-opacity="1" /><path clip-path="url(#clip360)" d="M 0 0 M2191.18 265.903 L2195.44 265.903 L2195.44 291.829 L2191.18 291.829 L2191.18 265.903 M2191.18 255.81 L2195.44 255.81 L2195.44 261.204 L2191.18 261.204 L2191.18 255.81 Z" fill="#000000" fill-rule="evenodd" fill-opacity="1" /><path clip-path="url(#clip360)" d="M 0 0 M2204.12 258.542 L2204.12 265.903 L2212.89 265.903 L2212.89 269.213 L2204.12 269.213 L2204.12 283.287 Q2204.12 286.458 2204.98 287.361 Q2205.86 288.264 2208.52 288.264 L2212.89 288.264 L2212.89 291.829 L2208.52 291.829 Q2203.59 291.829 2201.71 290 Q2199.84 288.148 2199.84 283.287 L2199.84 269.213 L2196.71 269.213 L2196.71 265.903 L2199.84 265.903 L2199.84 258.542 L2204.12 258.542 Z" fill="#000000" fill-rule="evenodd" fill-opacity="1" /></svg>
