<?xml version="1.0" encoding="utf-8"?>
<svg xmlns="http://www.w3.org/2000/svg" xmlns:xlink="http://www.w3.org/1999/xlink" width="600" height="400" viewBox="0 0 2400 1600">
<defs>
  <clipPath id="clip330">
    <rect x="0" y="0" width="2400" height="1600"/>
  </clipPath>
</defs>
<path clip-path="url(#clip330)" d="
M0 1600 L2400 1600 L2400 0 L0 0  Z
  " fill="#ffffff" fill-rule="evenodd" fill-opacity="1"/>
<defs>
  <clipPath id="clip331">
    <rect x="480" y="0" width="1681" height="1600"/>
  </clipPath>
</defs>
<path clip-path="url(#clip330)" d="
M238.13 1423.18 L2352.76 1423.18 L2352.76 47.2441 L238.13 47.2441  Z
  " fill="#ffffff" fill-rule="evenodd" fill-opacity="1"/>
<defs>
  <clipPath id="clip332">
    <rect x="238" y="47" width="2116" height="1377"/>
  </clipPath>
</defs>
<polyline clip-path="url(#clip332)" style="stroke:#000000; stroke-width:2; stroke-opacity:0.1; fill:none" points="
  354.438,1423.18 354.438,47.2441 
  "/>
<polyline clip-path="url(#clip332)" style="stroke:#000000; stroke-width:2; stroke-opacity:0.1; fill:none" points="
  763.571,1423.18 763.571,47.2441 
  "/>
<polyline clip-path="url(#clip332)" style="stroke:#000000; stroke-width:2; stroke-opacity:0.1; fill:none" points="
  1172.7,1423.18 1172.7,47.2441 
  "/>
<polyline clip-path="url(#clip332)" style="stroke:#000000; stroke-width:2; stroke-opacity:0.1; fill:none" points="
  1581.84,1423.18 1581.84,47.2441 
  "/>
<polyline clip-path="url(#clip332)" style="stroke:#000000; stroke-width:2; stroke-opacity:0.1; fill:none" points="
  1990.97,1423.18 1990.97,47.2441 
  "/>
<polyline clip-path="url(#clip330)" style="stroke:#000000; stroke-width:4; stroke-opacity:1; fill:none" points="
  238.13,1423.18 2352.76,1423.18 
  "/>
<polyline clip-path="url(#clip330)" style="stroke:#000000; stroke-width:4; stroke-opacity:1; fill:none" points="
  354.438,1423.18 354.438,1406.67 
  "/>
<polyline clip-path="url(#clip330)" style="stroke:#000000; stroke-width:4; stroke-opacity:1; fill:none" points="
  763.571,1423.18 763.571,1406.67 
  "/>
<polyline clip-path="url(#clip330)" style="stroke:#000000; stroke-width:4; stroke-opacity:1; fill:none" points="
  1172.7,1423.18 1172.7,1406.67 
  "/>
<polyline clip-path="url(#clip330)" style="stroke:#000000; stroke-width:4; stroke-opacity:1; fill:none" points="
  1581.84,1423.18 1581.84,1406.67 
  "/>
<polyline clip-path="url(#clip330)" style="stroke:#000000; stroke-width:4; stroke-opacity:1; fill:none" points="
  1990.97,1423.18 1990.97,1406.67 
  "/>
<path clip-path="url(#clip330)" d="M 0 0 M354.438 1452.37 Q350.827 1452.37 348.998 1455.94 Q347.193 1459.48 347.193 1466.61 Q347.193 1473.71 348.998 1477.28 Q350.827 1480.82 354.438 1480.82 Q358.072 1480.82 359.878 1477.28 Q361.707 1473.71 361.707 1466.61 Q361.707 1459.48 359.878 1455.94 Q358.072 1452.37 354.438 1452.37 M354.438 1448.67 Q360.248 1448.67 363.304 1453.27 Q366.383 1457.86 366.383 1466.61 Q366.383 1475.33 363.304 1479.94 Q360.248 1484.52 354.438 1484.52 Q348.628 1484.52 345.549 1479.94 Q342.494 1475.33 342.494 1466.61 Q342.494 1457.86 345.549 1453.27 Q348.628 1448.67 354.438 1448.67 Z" fill="#000000" fill-rule="evenodd" fill-opacity="1" /><path clip-path="url(#clip330)" d="M 0 0 M753.849 1449.29 L772.205 1449.29 L772.205 1453.23 L758.131 1453.23 L758.131 1461.7 Q759.149 1461.35 760.168 1461.19 Q761.186 1461 762.205 1461 Q767.992 1461 771.372 1464.18 Q774.751 1467.35 774.751 1472.76 Q774.751 1478.34 771.279 1481.44 Q767.807 1484.52 761.487 1484.52 Q759.312 1484.52 757.043 1484.15 Q754.798 1483.78 752.39 1483.04 L752.39 1478.34 Q754.474 1479.48 756.696 1480.03 Q758.918 1480.59 761.395 1480.59 Q765.399 1480.59 767.737 1478.48 Q770.075 1476.38 770.075 1472.76 Q770.075 1469.15 767.737 1467.05 Q765.399 1464.94 761.395 1464.94 Q759.52 1464.94 757.645 1465.36 Q755.793 1465.77 753.849 1466.65 L753.849 1449.29 Z" fill="#000000" fill-rule="evenodd" fill-opacity="1" /><path clip-path="url(#clip330)" d="M 0 0 M1149.58 1479.92 L1157.22 1479.92 L1157.22 1453.55 L1148.91 1455.22 L1148.91 1450.96 L1157.17 1449.29 L1161.85 1449.29 L1161.85 1479.92 L1169.49 1479.92 L1169.49 1483.85 L1149.58 1483.85 L1149.58 1479.92 Z" fill="#000000" fill-rule="evenodd" fill-opacity="1" /><path clip-path="url(#clip330)" d="M 0 0 M1184.56 1452.37 Q1180.94 1452.37 1179.12 1455.94 Q1177.31 1459.48 1177.31 1466.61 Q1177.31 1473.71 1179.12 1477.28 Q1180.94 1480.82 1184.56 1480.82 Q1188.19 1480.82 1189.99 1477.28 Q1191.82 1473.71 1191.82 1466.61 Q1191.82 1459.48 1189.99 1455.94 Q1188.19 1452.37 1184.56 1452.37 M1184.56 1448.67 Q1190.37 1448.67 1193.42 1453.27 Q1196.5 1457.86 1196.5 1466.61 Q1196.5 1475.33 1193.42 1479.94 Q1190.37 1484.52 1184.56 1484.52 Q1178.74 1484.52 1175.67 1479.94 Q1172.61 1475.33 1172.61 1466.61 Q1172.61 1457.86 1175.67 1453.27 Q1178.74 1448.67 1184.56 1448.67 Z" fill="#000000" fill-rule="evenodd" fill-opacity="1" /><path clip-path="url(#clip330)" d="M 0 0 M1559.21 1479.92 L1566.85 1479.92 L1566.85 1453.55 L1558.54 1455.22 L1558.54 1450.96 L1566.8 1449.29 L1571.48 1449.29 L1571.48 1479.92 L1579.12 1479.92 L1579.12 1483.85 L1559.21 1483.85 L1559.21 1479.92 Z" fill="#000000" fill-rule="evenodd" fill-opacity="1" /><path clip-path="url(#clip330)" d="M 0 0 M1584.23 1449.29 L1602.59 1449.29 L1602.59 1453.23 L1588.51 1453.23 L1588.51 1461.7 Q1589.53 1461.35 1590.55 1461.19 Q1591.57 1461 1592.59 1461 Q1598.37 1461 1601.75 1464.18 Q1605.13 1467.35 1605.13 1472.76 Q1605.13 1478.34 1601.66 1481.44 Q1598.19 1484.52 1591.87 1484.52 Q1589.69 1484.52 1587.43 1484.15 Q1585.18 1483.78 1582.77 1483.04 L1582.77 1478.34 Q1584.86 1479.48 1587.08 1480.03 Q1589.3 1480.59 1591.78 1480.59 Q1595.78 1480.59 1598.12 1478.48 Q1600.46 1476.38 1600.46 1472.76 Q1600.46 1469.15 1598.12 1467.05 Q1595.78 1464.94 1591.78 1464.94 Q1589.9 1464.94 1588.03 1465.36 Q1586.18 1465.77 1584.23 1466.65 L1584.23 1449.29 Z" fill="#000000" fill-rule="evenodd" fill-opacity="1" /><path clip-path="url(#clip330)" d="M 0 0 M1972.11 1479.92 L1988.43 1479.92 L1988.43 1483.85 L1966.49 1483.85 L1966.49 1479.92 Q1969.15 1477.16 1973.73 1472.53 Q1978.34 1467.88 1979.52 1466.54 Q1981.77 1464.01 1982.65 1462.28 Q1983.55 1460.52 1983.55 1458.83 Q1983.55 1456.07 1981.6 1454.34 Q1979.68 1452.6 1976.58 1452.6 Q1974.38 1452.6 1971.93 1453.37 Q1969.5 1454.13 1966.72 1455.68 L1966.72 1450.96 Q1969.54 1449.82 1972 1449.25 Q1974.45 1448.67 1976.49 1448.67 Q1981.86 1448.67 1985.05 1451.35 Q1988.25 1454.04 1988.25 1458.53 Q1988.25 1460.66 1987.44 1462.58 Q1986.65 1464.48 1984.54 1467.07 Q1983.97 1467.74 1980.86 1470.96 Q1977.76 1474.15 1972.11 1479.92 Z" fill="#000000" fill-rule="evenodd" fill-opacity="1" /><path clip-path="url(#clip330)" d="M 0 0 M2003.5 1452.37 Q1999.89 1452.37 1998.06 1455.94 Q1996.26 1459.48 1996.26 1466.61 Q1996.26 1473.71 1998.06 1477.28 Q1999.89 1480.82 2003.5 1480.82 Q2007.14 1480.82 2008.94 1477.28 Q2010.77 1473.71 2010.77 1466.61 Q2010.77 1459.48 2008.94 1455.94 Q2007.14 1452.37 2003.5 1452.37 M2003.5 1448.67 Q2009.31 1448.67 2012.37 1453.27 Q2015.45 1457.86 2015.45 1466.61 Q2015.45 1475.33 2012.37 1479.94 Q2009.31 1484.52 2003.5 1484.52 Q1997.69 1484.52 1994.61 1479.94 Q1991.56 1475.33 1991.56 1466.61 Q1991.56 1457.86 1994.61 1453.27 Q1997.69 1448.67 2003.5 1448.67 Z" fill="#000000" fill-rule="evenodd" fill-opacity="1" /><path clip-path="url(#clip330)" d="M 0 0 M1297.4 1539.24 Q1299.6 1535.29 1302.65 1533.41 Q1305.71 1531.54 1309.85 1531.54 Q1315.42 1531.54 1318.44 1535.45 Q1321.46 1539.33 1321.46 1546.53 L1321.46 1568.04 L1315.57 1568.04 L1315.57 1546.72 Q1315.57 1541.59 1313.76 1539.11 Q1311.95 1536.63 1308.22 1536.63 Q1303.67 1536.63 1301.03 1539.65 Q1298.39 1542.68 1298.39 1547.9 L1298.39 1568.04 L1292.5 1568.04 L1292.5 1546.72 Q1292.5 1541.56 1290.68 1539.11 Q1288.87 1536.63 1285.08 1536.63 Q1280.59 1536.63 1277.95 1539.68 Q1275.31 1542.71 1275.31 1547.9 L1275.31 1568.04 L1269.42 1568.04 L1269.42 1532.4 L1275.31 1532.4 L1275.31 1537.93 Q1277.32 1534.66 1280.12 1533.1 Q1282.92 1531.54 1286.77 1531.54 Q1290.65 1531.54 1293.36 1533.51 Q1296.1 1535.48 1297.4 1539.24 Z" fill="#000000" fill-rule="evenodd" fill-opacity="1" /><polyline clip-path="url(#clip332)" style="stroke:#000000; stroke-width:2; stroke-opacity:0.1; fill:none" points="
  238.13,1384.24 2352.76,1384.24 
  "/>
<polyline clip-path="url(#clip332)" style="stroke:#000000; stroke-width:2; stroke-opacity:0.1; fill:none" points="
  238.13,972.589 2352.76,972.589 
  "/>
<polyline clip-path="url(#clip332)" style="stroke:#000000; stroke-width:2; stroke-opacity:0.1; fill:none" points="
  238.13,560.939 2352.76,560.939 
  "/>
<polyline clip-path="url(#clip332)" style="stroke:#000000; stroke-width:2; stroke-opacity:0.1; fill:none" points="
  238.13,149.29 2352.76,149.29 
  "/>
<polyline clip-path="url(#clip330)" style="stroke:#000000; stroke-width:4; stroke-opacity:1; fill:none" points="
  238.13,1423.18 238.13,47.2441 
  "/>
<polyline clip-path="url(#clip330)" style="stroke:#000000; stroke-width:4; stroke-opacity:1; fill:none" points="
  238.13,1384.24 263.506,1384.24 
  "/>
<polyline clip-path="url(#clip330)" style="stroke:#000000; stroke-width:4; stroke-opacity:1; fill:none" points="
  238.13,972.589 263.506,972.589 
  "/>
<polyline clip-path="url(#clip330)" style="stroke:#000000; stroke-width:4; stroke-opacity:1; fill:none" points="
  238.13,560.939 263.506,560.939 
  "/>
<polyline clip-path="url(#clip330)" style="stroke:#000000; stroke-width:4; stroke-opacity:1; fill:none" points="
  238.13,149.29 263.506,149.29 
  "/>
<path clip-path="url(#clip330)" d="M 0 0 M126.205 1370.04 Q122.593 1370.04 120.765 1373.6 Q118.959 1377.14 118.959 1384.27 Q118.959 1391.38 120.765 1394.94 Q122.593 1398.49 126.205 1398.49 Q129.839 1398.49 131.644 1394.94 Q133.473 1391.38 133.473 1384.27 Q133.473 1377.14 131.644 1373.6 Q129.839 1370.04 126.205 1370.04 M126.205 1366.33 Q132.015 1366.33 135.07 1370.94 Q138.149 1375.52 138.149 1384.27 Q138.149 1393 135.07 1397.61 Q132.015 1402.19 126.205 1402.19 Q120.394 1402.19 117.316 1397.61 Q114.26 1393 114.26 1384.27 Q114.26 1375.52 117.316 1370.94 Q120.394 1366.33 126.205 1366.33 Z" fill="#000000" fill-rule="evenodd" fill-opacity="1" /><path clip-path="url(#clip330)" d="M 0 0 M143.218 1395.64 L148.103 1395.64 L148.103 1401.52 L143.218 1401.52 L143.218 1395.64 Z" fill="#000000" fill-rule="evenodd" fill-opacity="1" /><path clip-path="url(#clip330)" d="M 0 0 M163.172 1370.04 Q159.561 1370.04 157.732 1373.6 Q155.927 1377.14 155.927 1384.27 Q155.927 1391.38 157.732 1394.94 Q159.561 1398.49 163.172 1398.49 Q166.806 1398.49 168.612 1394.94 Q170.44 1391.38 170.44 1384.27 Q170.44 1377.14 168.612 1373.6 Q166.806 1370.04 163.172 1370.04 M163.172 1366.33 Q168.982 1366.33 172.038 1370.94 Q175.116 1375.52 175.116 1384.27 Q175.116 1393 172.038 1397.61 Q168.982 1402.19 163.172 1402.19 Q157.362 1402.19 154.283 1397.61 Q151.228 1393 151.228 1384.27 Q151.228 1375.52 154.283 1370.94 Q157.362 1366.33 163.172 1366.33 Z" fill="#000000" fill-rule="evenodd" fill-opacity="1" /><path clip-path="url(#clip330)" d="M 0 0 M190.186 1370.04 Q186.575 1370.04 184.746 1373.6 Q182.94 1377.14 182.94 1384.27 Q182.94 1391.38 184.746 1394.94 Q186.575 1398.49 190.186 1398.49 Q193.82 1398.49 195.625 1394.94 Q197.454 1391.38 197.454 1384.27 Q197.454 1377.14 195.625 1373.6 Q193.82 1370.04 190.186 1370.04 M190.186 1366.33 Q195.996 1366.33 199.051 1370.94 Q202.13 1375.52 202.13 1384.27 Q202.13 1393 199.051 1397.61 Q195.996 1402.19 190.186 1402.19 Q184.376 1402.19 181.297 1397.61 Q178.241 1393 178.241 1384.27 Q178.241 1375.52 181.297 1370.94 Q184.376 1366.33 190.186 1366.33 Z" fill="#000000" fill-rule="evenodd" fill-opacity="1" /><path clip-path="url(#clip330)" d="M 0 0 M127.2 958.388 Q123.589 958.388 121.76 961.952 Q119.955 965.494 119.955 972.624 Q119.955 979.73 121.76 983.295 Q123.589 986.836 127.2 986.836 Q130.834 986.836 132.64 983.295 Q134.468 979.73 134.468 972.624 Q134.468 965.494 132.64 961.952 Q130.834 958.388 127.2 958.388 M127.2 954.684 Q133.01 954.684 136.066 959.29 Q139.144 963.874 139.144 972.624 Q139.144 981.35 136.066 985.957 Q133.01 990.54 127.2 990.54 Q121.39 990.54 118.311 985.957 Q115.256 981.35 115.256 972.624 Q115.256 963.874 118.311 959.29 Q121.39 954.684 127.2 954.684 Z" fill="#000000" fill-rule="evenodd" fill-opacity="1" /><path clip-path="url(#clip330)" d="M 0 0 M144.214 983.989 L149.098 983.989 L149.098 989.869 L144.214 989.869 L144.214 983.989 Z" fill="#000000" fill-rule="evenodd" fill-opacity="1" /><path clip-path="url(#clip330)" d="M 0 0 M164.167 958.388 Q160.556 958.388 158.728 961.952 Q156.922 965.494 156.922 972.624 Q156.922 979.73 158.728 983.295 Q160.556 986.836 164.167 986.836 Q167.802 986.836 169.607 983.295 Q171.436 979.73 171.436 972.624 Q171.436 965.494 169.607 961.952 Q167.802 958.388 164.167 958.388 M164.167 954.684 Q169.977 954.684 173.033 959.29 Q176.112 963.874 176.112 972.624 Q176.112 981.35 173.033 985.957 Q169.977 990.54 164.167 990.54 Q158.357 990.54 155.278 985.957 Q152.223 981.35 152.223 972.624 Q152.223 963.874 155.278 959.29 Q158.357 954.684 164.167 954.684 Z" fill="#000000" fill-rule="evenodd" fill-opacity="1" /><path clip-path="url(#clip330)" d="M 0 0 M181.227 955.309 L199.584 955.309 L199.584 959.244 L185.51 959.244 L185.51 967.716 Q186.528 967.369 187.547 967.207 Q188.565 967.022 189.584 967.022 Q195.371 967.022 198.75 970.193 Q202.13 973.364 202.13 978.781 Q202.13 984.36 198.658 987.461 Q195.186 990.54 188.866 990.54 Q186.69 990.54 184.422 990.17 Q182.176 989.799 179.769 989.059 L179.769 984.36 Q181.852 985.494 184.075 986.049 Q186.297 986.605 188.774 986.605 Q192.778 986.605 195.116 984.499 Q197.454 982.392 197.454 978.781 Q197.454 975.17 195.116 973.063 Q192.778 970.957 188.774 970.957 Q186.899 970.957 185.024 971.374 Q183.172 971.79 181.227 972.67 L181.227 955.309 Z" fill="#000000" fill-rule="evenodd" fill-opacity="1" /><path clip-path="url(#clip330)" d="M 0 0 M127.431 546.738 Q123.82 546.738 121.992 550.303 Q120.186 553.845 120.186 560.974 Q120.186 568.081 121.992 571.645 Q123.82 575.187 127.431 575.187 Q131.066 575.187 132.871 571.645 Q134.7 568.081 134.7 560.974 Q134.7 553.845 132.871 550.303 Q131.066 546.738 127.431 546.738 M127.431 543.034 Q133.242 543.034 136.297 547.641 Q139.376 552.224 139.376 560.974 Q139.376 569.701 136.297 574.307 Q133.242 578.891 127.431 578.891 Q121.621 578.891 118.543 574.307 Q115.487 569.701 115.487 560.974 Q115.487 552.224 118.543 547.641 Q121.621 543.034 127.431 543.034 Z" fill="#000000" fill-rule="evenodd" fill-opacity="1" /><path clip-path="url(#clip330)" d="M 0 0 M144.445 572.34 L149.329 572.34 L149.329 578.219 L144.445 578.219 L144.445 572.34 Z" fill="#000000" fill-rule="evenodd" fill-opacity="1" /><path clip-path="url(#clip330)" d="M 0 0 M155.209 574.284 L162.848 574.284 L162.848 547.919 L154.538 549.585 L154.538 545.326 L162.802 543.659 L167.477 543.659 L167.477 574.284 L175.116 574.284 L175.116 578.219 L155.209 578.219 L155.209 574.284 Z" fill="#000000" fill-rule="evenodd" fill-opacity="1" /><path clip-path="url(#clip330)" d="M 0 0 M190.186 546.738 Q186.575 546.738 184.746 550.303 Q182.94 553.845 182.94 560.974 Q182.94 568.081 184.746 571.645 Q186.575 575.187 190.186 575.187 Q193.82 575.187 195.625 571.645 Q197.454 568.081 197.454 560.974 Q197.454 553.845 195.625 550.303 Q193.82 546.738 190.186 546.738 M190.186 543.034 Q195.996 543.034 199.051 547.641 Q202.13 552.224 202.13 560.974 Q202.13 569.701 199.051 574.307 Q195.996 578.891 190.186 578.891 Q184.376 578.891 181.297 574.307 Q178.241 569.701 178.241 560.974 Q178.241 552.224 181.297 547.641 Q184.376 543.034 190.186 543.034 Z" fill="#000000" fill-rule="evenodd" fill-opacity="1" /><path clip-path="url(#clip330)" d="M 0 0 M128.427 135.089 Q124.816 135.089 122.987 138.654 Q121.181 142.195 121.181 149.325 Q121.181 156.431 122.987 159.996 Q124.816 163.538 128.427 163.538 Q132.061 163.538 133.867 159.996 Q135.695 156.431 135.695 149.325 Q135.695 142.195 133.867 138.654 Q132.061 135.089 128.427 135.089 M128.427 131.385 Q134.237 131.385 137.292 135.992 Q140.371 140.575 140.371 149.325 Q140.371 158.052 137.292 162.658 Q134.237 167.241 128.427 167.241 Q122.617 167.241 119.538 162.658 Q116.482 158.052 116.482 149.325 Q116.482 140.575 119.538 135.992 Q122.617 131.385 128.427 131.385 Z" fill="#000000" fill-rule="evenodd" fill-opacity="1" /><path clip-path="url(#clip330)" d="M 0 0 M145.441 160.69 L150.325 160.69 L150.325 166.57 L145.441 166.57 L145.441 160.69 Z" fill="#000000" fill-rule="evenodd" fill-opacity="1" /><path clip-path="url(#clip330)" d="M 0 0 M156.204 162.635 L163.843 162.635 L163.843 136.269 L155.533 137.936 L155.533 133.677 L163.797 132.01 L168.473 132.01 L168.473 162.635 L176.112 162.635 L176.112 166.57 L156.204 166.57 L156.204 162.635 Z" fill="#000000" fill-rule="evenodd" fill-opacity="1" /><path clip-path="url(#clip330)" d="M 0 0 M181.227 132.01 L199.584 132.01 L199.584 135.945 L185.51 135.945 L185.51 144.417 Q186.528 144.07 187.547 143.908 Q188.565 143.723 189.584 143.723 Q195.371 143.723 198.75 146.894 Q202.13 150.066 202.13 155.482 Q202.13 161.061 198.658 164.163 Q195.186 167.241 188.866 167.241 Q186.69 167.241 184.422 166.871 Q182.176 166.501 179.769 165.76 L179.769 161.061 Q181.852 162.195 184.075 162.751 Q186.297 163.306 188.774 163.306 Q192.778 163.306 195.116 161.2 Q197.454 159.093 197.454 155.482 Q197.454 151.871 195.116 149.765 Q192.778 147.658 188.774 147.658 Q186.899 147.658 185.024 148.075 Q183.172 148.491 181.227 149.371 L181.227 132.01 Z" fill="#000000" fill-rule="evenodd" fill-opacity="1" /><path clip-path="url(#clip330)" d="M 0 0 M21.7677 793.124 L39.6235 793.124 L39.6235 785.04 Q39.6235 780.552 37.3 778.101 Q34.9765 775.65 30.6797 775.65 Q26.4147 775.65 24.0912 778.101 Q21.7677 780.552 21.7677 785.04 L21.7677 793.124 M16.4842 799.553 L16.4842 785.04 Q16.4842 777.051 20.1126 772.977 Q23.7092 768.871 30.6797 768.871 Q37.7138 768.871 41.3104 772.977 Q44.907 777.051 44.907 785.04 L44.907 793.124 L64.0042 793.124 L64.0042 799.553 L16.4842 799.553 Z" fill="#000000" fill-rule="evenodd" fill-opacity="1" /><path clip-path="url(#clip330)" d="M 0 0 M14.5426 748.66 Q21.8632 752.925 29.0246 754.993 Q36.186 757.062 43.5384 757.062 Q50.8908 757.062 58.1159 754.993 Q65.3091 752.893 72.5979 748.66 L72.5979 753.752 Q65.1182 758.526 57.8931 760.914 Q50.668 763.269 43.5384 763.269 Q36.4406 763.269 29.2474 760.914 Q22.0542 758.558 14.5426 753.752 L14.5426 748.66 Z" fill="#000000" fill-rule="evenodd" fill-opacity="1" /><path clip-path="url(#clip330)" d="M 0 0 M35.1993 714.762 Q31.2526 712.566 29.3747 709.51 Q27.4968 706.455 27.4968 702.317 Q27.4968 696.747 31.4117 693.723 Q35.2948 690.7 42.4881 690.7 L64.0042 690.7 L64.0042 696.588 L42.679 696.588 Q37.5546 696.588 35.072 698.402 Q32.5894 700.216 32.5894 703.94 Q32.5894 708.492 35.6131 711.134 Q38.6368 713.775 43.8567 713.775 L64.0042 713.775 L64.0042 719.664 L42.679 719.664 Q37.5228 719.664 35.072 721.478 Q32.5894 723.292 32.5894 727.08 Q32.5894 731.568 35.6449 734.209 Q38.6686 736.851 43.8567 736.851 L64.0042 736.851 L64.0042 742.739 L28.3562 742.739 L28.3562 736.851 L33.8944 736.851 Q30.616 734.846 29.0564 732.045 Q27.4968 729.244 27.4968 725.393 Q27.4968 721.51 29.4702 718.804 Q31.4436 716.067 35.1993 714.762 Z" fill="#000000" fill-rule="evenodd" fill-opacity="1" /><path clip-path="url(#clip330)" d="M 0 0 M14.5426 685.48 L14.5426 680.387 Q22.0542 675.613 29.2474 673.258 Q36.4406 670.871 43.5384 670.871 Q50.668 670.871 57.8931 673.258 Q65.1182 675.613 72.5979 680.387 L72.5979 685.48 Q65.3091 681.247 58.1159 679.178 Q50.8908 677.077 43.5384 677.077 Q36.186 677.077 29.0246 679.178 Q21.8632 681.247 14.5426 685.48 Z" fill="#000000" fill-rule="evenodd" fill-opacity="1" /><path clip-path="url(#clip332)" d="
M354.438 1372.1 L354.438 1384.24 L436.265 1384.24 L436.265 1372.1 L354.438 1372.1 L354.438 1372.1  Z
  " fill="#009af9" fill-rule="evenodd" fill-opacity="1"/>
<polyline clip-path="url(#clip332)" style="stroke:#009af9; stroke-width:4; stroke-opacity:1; fill:none" points="
  354.438,1372.1 354.438,1384.24 436.265,1384.24 436.265,1372.1 354.438,1372.1 
  "/>
<path clip-path="url(#clip332)" d="
M436.265 1303.42 L436.265 1384.24 L518.091 1384.24 L518.091 1303.42 L436.265 1303.42 L436.265 1303.42  Z
  " fill="#009af9" fill-rule="evenodd" fill-opacity="1"/>
<polyline clip-path="url(#clip332)" style="stroke:#009af9; stroke-width:4; stroke-opacity:1; fill:none" points="
  436.265,1303.42 436.265,1384.24 518.091,1384.24 518.091,1303.42 436.265,1303.42 
  "/>
<path clip-path="url(#clip332)" d="
M518.091 1121.41 L518.091 1384.24 L599.918 1384.24 L599.918 1121.41 L518.091 1121.41 L518.091 1121.41  Z
  " fill="#009af9" fill-rule="evenodd" fill-opacity="1"/>
<polyline clip-path="url(#clip332)" style="stroke:#009af9; stroke-width:4; stroke-opacity:1; fill:none" points="
  518.091,1121.41 518.091,1384.24 599.918,1384.24 599.918,1121.41 518.091,1121.41 
  "/>
<path clip-path="url(#clip332)" d="
M599.918 818.255 L599.918 1384.24 L681.744 1384.24 L681.744 818.255 L599.918 818.255 L599.918 818.255  Z
  " fill="#009af9" fill-rule="evenodd" fill-opacity="1"/>
<polyline clip-path="url(#clip332)" style="stroke:#009af9; stroke-width:4; stroke-opacity:1; fill:none" points="
  599.918,818.255 599.918,1384.24 681.744,1384.24 681.744,818.255 599.918,818.255 
  "/>
<path clip-path="url(#clip332)" d="
M681.744 461.862 L681.744 1384.24 L763.571 1384.24 L763.571 461.862 L681.744 461.862 L681.744 461.862  Z
  " fill="#009af9" fill-rule="evenodd" fill-opacity="1"/>
<polyline clip-path="url(#clip332)" style="stroke:#009af9; stroke-width:4; stroke-opacity:1; fill:none" points="
  681.744,461.862 681.744,1384.24 763.571,1384.24 763.571,461.862 681.744,461.862 
  "/>
<path clip-path="url(#clip332)" d="
M763.571 182.93 L763.571 1384.24 L845.397 1384.24 L845.397 182.93 L763.571 182.93 L763.571 182.93  Z
  " fill="#009af9" fill-rule="evenodd" fill-opacity="1"/>
<polyline clip-path="url(#clip332)" style="stroke:#009af9; stroke-width:4; stroke-opacity:1; fill:none" points="
  763.571,182.93 763.571,1384.24 845.397,1384.24 845.397,182.93 763.571,182.93 
  "/>
<path clip-path="url(#clip332)" d="
M845.397 86.1857 L845.397 1384.24 L927.224 1384.24 L927.224 86.1857 L845.397 86.1857 L845.397 86.1857  Z
  " fill="#009af9" fill-rule="evenodd" fill-opacity="1"/>
<polyline clip-path="url(#clip332)" style="stroke:#009af9; stroke-width:4; stroke-opacity:1; fill:none" points="
  845.397,86.1857 845.397,1384.24 927.224,1384.24 927.224,86.1857 845.397,86.1857 
  "/>
<path clip-path="url(#clip332)" d="
M927.224 180.474 L927.224 1384.24 L1009.05 1384.24 L1009.05 180.474 L927.224 180.474 L927.224 180.474  Z
  " fill="#009af9" fill-rule="evenodd" fill-opacity="1"/>
<polyline clip-path="url(#clip332)" style="stroke:#009af9; stroke-width:4; stroke-opacity:1; fill:none" points="
  927.224,180.474 927.224,1384.24 1009.05,1384.24 1009.05,180.474 927.224,180.474 
  "/>
<path clip-path="url(#clip332)" d="
M1009.05 408.484 L1009.05 1384.24 L1090.88 1384.24 L1090.88 408.484 L1009.05 408.484 L1009.05 408.484  Z
  " fill="#009af9" fill-rule="evenodd" fill-opacity="1"/>
<polyline clip-path="url(#clip332)" style="stroke:#009af9; stroke-width:4; stroke-opacity:1; fill:none" points="
  1009.05,408.484 1009.05,1384.24 1090.88,1384.24 1090.88,408.484 1009.05,408.484 
  "/>
<path clip-path="url(#clip332)" d="
M1090.88 677.569 L1090.88 1384.24 L1172.7 1384.24 L1172.7 677.569 L1090.88 677.569 L1090.88 677.569  Z
  " fill="#009af9" fill-rule="evenodd" fill-opacity="1"/>
<polyline clip-path="url(#clip332)" style="stroke:#009af9; stroke-width:4; stroke-opacity:1; fill:none" points="
  1090.88,677.569 1090.88,1384.24 1172.7,1384.24 1172.7,677.569 1090.88,677.569 
  "/>
<path clip-path="url(#clip332)" d="
M1172.7 929.907 L1172.7 1384.24 L1254.53 1384.24 L1254.53 929.907 L1172.7 929.907 L1172.7 929.907  Z
  " fill="#009af9" fill-rule="evenodd" fill-opacity="1"/>
<polyline clip-path="url(#clip332)" style="stroke:#009af9; stroke-width:4; stroke-opacity:1; fill:none" points="
  1172.7,929.907 1172.7,1384.24 1254.53,1384.24 1254.53,929.907 1172.7,929.907 
  "/>
<path clip-path="url(#clip332)" d="
M1254.53 1116.04 L1254.53 1384.24 L1336.36 1384.24 L1336.36 1116.04 L1254.53 1116.04 L1254.53 1116.04  Z
  " fill="#009af9" fill-rule="evenodd" fill-opacity="1"/>
<polyline clip-path="url(#clip332)" style="stroke:#009af9; stroke-width:4; stroke-opacity:1; fill:none" points="
  1254.53,1116.04 1254.53,1384.24 1336.36,1384.24 1336.36,1116.04 1254.53,1116.04 
  "/>
<path clip-path="url(#clip332)" d="
M1336.36 1235.05 L1336.36 1384.24 L1418.18 1384.24 L1418.18 1235.05 L1336.36 1235.05 L1336.36 1235.05  Z
  " fill="#009af9" fill-rule="evenodd" fill-opacity="1"/>
<polyline clip-path="url(#clip332)" style="stroke:#009af9; stroke-width:4; stroke-opacity:1; fill:none" points="
  1336.36,1235.05 1336.36,1384.24 1418.18,1384.24 1418.18,1235.05 1336.36,1235.05 
  "/>
<path clip-path="url(#clip332)" d="
M1418.18 1310.87 L1418.18 1384.24 L1500.01 1384.24 L1500.01 1310.87 L1418.18 1310.87 L1418.18 1310.87  Z
  " fill="#009af9" fill-rule="evenodd" fill-opacity="1"/>
<polyline clip-path="url(#clip332)" style="stroke:#009af9; stroke-width:4; stroke-opacity:1; fill:none" points="
  1418.18,1310.87 1418.18,1384.24 1500.01,1384.24 1500.01,1310.87 1418.18,1310.87 
  "/>
<path clip-path="url(#clip332)" d="
M1500.01 1350.73 L1500.01 1384.24 L1581.84 1384.24 L1581.84 1350.73 L1500.01 1350.73 L1500.01 1350.73  Z
  " fill="#009af9" fill-rule="evenodd" fill-opacity="1"/>
<polyline clip-path="url(#clip332)" style="stroke:#009af9; stroke-width:4; stroke-opacity:1; fill:none" points="
  1500.01,1350.73 1500.01,1384.24 1581.84,1384.24 1581.84,1350.73 1500.01,1350.73 
  "/>
<path clip-path="url(#clip332)" d="
M1581.84 1369 L1581.84 1384.24 L1663.66 1384.24 L1663.66 1369 L1581.84 1369 L1581.84 1369  Z
  " fill="#009af9" fill-rule="evenodd" fill-opacity="1"/>
<polyline clip-path="url(#clip332)" style="stroke:#009af9; stroke-width:4; stroke-opacity:1; fill:none" points="
  1581.84,1369 1581.84,1384.24 1663.66,1384.24 1663.66,1369 1581.84,1369 
  "/>
<path clip-path="url(#clip332)" d="
M1663.66 1378.16 L1663.66 1384.24 L1745.49 1384.24 L1745.49 1378.16 L1663.66 1378.16 L1663.66 1378.16  Z
  " fill="#009af9" fill-rule="evenodd" fill-opacity="1"/>
<polyline clip-path="url(#clip332)" style="stroke:#009af9; stroke-width:4; stroke-opacity:1; fill:none" points="
  1663.66,1378.16 1663.66,1384.24 1745.49,1384.24 1745.49,1378.16 1663.66,1378.16 
  "/>
<path clip-path="url(#clip332)" d="
M1745.49 1382.2 L1745.49 1384.24 L1827.32 1384.24 L1827.32 1382.2 L1745.49 1382.2 L1745.49 1382.2  Z
  " fill="#009af9" fill-rule="evenodd" fill-opacity="1"/>
<polyline clip-path="url(#clip332)" style="stroke:#009af9; stroke-width:4; stroke-opacity:1; fill:none" points="
  1745.49,1382.2 1745.49,1384.24 1827.32,1384.24 1827.32,1382.2 1745.49,1382.2 
  "/>
<path clip-path="url(#clip332)" d="
M1827.32 1383.3 L1827.32 1384.24 L1909.14 1384.24 L1909.14 1383.3 L1827.32 1383.3 L1827.32 1383.3  Z
  " fill="#009af9" fill-rule="evenodd" fill-opacity="1"/>
<polyline clip-path="url(#clip332)" style="stroke:#009af9; stroke-width:4; stroke-opacity:1; fill:none" points="
  1827.32,1383.3 1827.32,1384.24 1909.14,1384.24 1909.14,1383.3 1827.32,1383.3 
  "/>
<path clip-path="url(#clip332)" d="
M1909.14 1383.96 L1909.14 1384.24 L1990.97 1384.24 L1990.97 1383.96 L1909.14 1383.96 L1909.14 1383.96  Z
  " fill="#009af9" fill-rule="evenodd" fill-opacity="1"/>
<polyline clip-path="url(#clip332)" style="stroke:#009af9; stroke-width:4; stroke-opacity:1; fill:none" points="
  1909.14,1383.96 1909.14,1384.24 1990.97,1384.24 1990.97,1383.96 1909.14,1383.96 
  "/>
<path clip-path="url(#clip332)" d="
M1990.97 1384.13 L1990.97 1384.24 L2072.79 1384.24 L2072.79 1384.13 L1990.97 1384.13 L1990.97 1384.13  Z
  " fill="#009af9" fill-rule="evenodd" fill-opacity="1"/>
<polyline clip-path="url(#clip332)" style="stroke:#009af9; stroke-width:4; stroke-opacity:1; fill:none" points="
  1990.97,1384.13 1990.97,1384.24 2072.79,1384.24 2072.79,1384.13 1990.97,1384.13 
  "/>
<path clip-path="url(#clip332)" d="
M2072.79 1384.23 L2072.79 1384.24 L2154.62 1384.24 L2154.62 1384.23 L2072.79 1384.23 L2072.79 1384.23  Z
  " fill="#009af9" fill-rule="evenodd" fill-opacity="1"/>
<polyline clip-path="url(#clip332)" style="stroke:#009af9; stroke-width:4; stroke-opacity:1; fill:none" points="
  2072.79,1384.23 2072.79,1384.24 2154.62,1384.24 2154.62,1384.23 2072.79,1384.23 
  "/>
<path clip-path="url(#clip332)" d="
M2154.62 1384.23 L2154.62 1384.24 L2236.45 1384.24 L2236.45 1384.23 L2154.62 1384.23 L2154.62 1384.23  Z
  " fill="#009af9" fill-rule="evenodd" fill-opacity="1"/>
<polyline clip-path="url(#clip332)" style="stroke:#009af9; stroke-width:4; stroke-opacity:1; fill:none" points="
  2154.62,1384.23 2154.62,1384.24 2236.45,1384.24 2236.45,1384.23 2154.62,1384.23 
  "/>
<polyline clip-path="url(#clip332)" style="stroke:#e26f46; stroke-width:12; stroke-opacity:1; fill:none" points="
  354.438,1334.05 362.621,1328.82 370.804,1323.13 378.986,1316.96 387.169,1310.29 395.351,1303.08 403.534,1295.3 411.717,1286.92 419.899,1277.92 428.082,1268.27 
  436.265,1257.93 444.447,1246.89 452.63,1235.11 460.813,1222.57 468.995,1209.24 477.178,1195.11 485.361,1180.15 493.543,1164.35 501.726,1147.69 509.909,1130.15 
  518.091,1111.74 526.274,1092.44 534.457,1072.26 542.639,1051.19 550.822,1029.25 559.004,1006.45 567.187,982.795 575.37,958.321 583.552,933.05 591.735,907.015 
  599.918,880.254 608.1,852.813 616.283,824.74 624.466,796.09 632.648,766.925 640.831,737.311 649.014,707.32 657.196,677.028 665.379,646.519 673.562,615.878 
  681.744,585.195 689.927,554.567 698.11,524.09 706.292,493.867 714.475,464 722.657,434.595 730.84,405.759 739.023,377.599 747.205,350.223 755.388,323.737 
  763.571,298.247 771.753,273.856 779.936,250.664 788.119,228.77 796.301,208.265 804.484,189.238 812.667,171.773 820.849,155.946 829.032,141.828 837.215,129.482 
  845.397,118.963 853.58,110.32 861.763,103.592 869.945,98.8106 878.128,95.9969 886.31,95.1642 894.493,96.3164 902.676,99.4481 910.858,104.545 919.041,111.583 
  927.224,120.531 935.406,131.348 943.589,143.983 951.772,158.381 959.954,174.477 968.137,192.199 976.32,211.469 984.502,232.204 992.685,254.314 1000.87,277.706 
  1009.05,302.281 1017.23,327.938 1025.42,354.575 1033.6,382.084 1041.78,410.36 1049.96,439.295 1058.15,468.781 1066.33,498.713 1074.51,528.984 1082.69,559.492 
  1090.88,590.135 1099.06,620.817 1107.24,651.443 1115.42,681.924 1123.61,712.172 1131.79,742.107 1139.97,771.654 1148.16,800.74 1156.34,829.301 1164.52,857.276 
  1172.7,884.611 1180.89,911.258 1189.07,937.172 1197.25,962.317 1205.43,986.66 1213.62,1010.18 1221.8,1032.84 1229.98,1054.64 1238.16,1075.57 1246.35,1095.61 
  1254.53,1114.76 1262.71,1133.03 1270.9,1150.43 1279.08,1166.95 1287.26,1182.62 1295.44,1197.44 1303.63,1211.44 1311.81,1224.64 1319.99,1237.06 1328.17,1248.72 
  1336.36,1259.65 1344.54,1269.87 1352.72,1279.41 1360.9,1288.31 1369.09,1296.59 1377.27,1304.27 1385.45,1311.4 1393.63,1317.99 1401.82,1324.08 1410,1329.69 
  1418.18,1334.86 1426.37,1339.6 1434.55,1343.95 1442.73,1347.93 1450.91,1351.57 1459.1,1354.89 1467.28,1357.92 1475.46,1360.67 1483.64,1363.16 1491.83,1365.42 
  1500.01,1367.46 1508.19,1369.3 1516.37,1370.97 1524.56,1372.46 1532.74,1373.8 1540.92,1375.01 1549.11,1376.08 1557.29,1377.05 1565.47,1377.91 1573.65,1378.67 
  1581.84,1379.35 1590.02,1379.95 1598.2,1380.49 1606.38,1380.96 1614.57,1381.38 1622.75,1381.75 1630.93,1382.07 1639.11,1382.36 1647.3,1382.61 1655.48,1382.83 
  1663.66,1383.02 1671.84,1383.19 1680.03,1383.33 1688.21,1383.46 1696.39,1383.57 1704.58,1383.66 1712.76,1383.75 1720.94,1383.82 1729.12,1383.88 1737.31,1383.93 
  1745.49,1383.98 1753.67,1384.02 1761.85,1384.05 1770.04,1384.08 1778.22,1384.1 1786.4,1384.12 1794.58,1384.14 1802.77,1384.16 1810.95,1384.17 1819.13,1384.18 
  1827.32,1384.19 1835.5,1384.2 1843.68,1384.2 1851.86,1384.21 1860.05,1384.21 1868.23,1384.22 1876.41,1384.22 1884.59,1384.22 1892.78,1384.23 1900.96,1384.23 
  1909.14,1384.23 1917.32,1384.23 1925.51,1384.23 1933.69,1384.23 1941.87,1384.23 1950.05,1384.24 1958.24,1384.24 1966.42,1384.24 1974.6,1384.24 1982.79,1384.24 
  1990.97,1384.24 1999.15,1384.24 2007.33,1384.24 2015.52,1384.24 2023.7,1384.24 2031.88,1384.24 2040.06,1384.24 2048.25,1384.24 2056.43,1384.24 2064.61,1384.24 
  2072.79,1384.24 2080.98,1384.24 2089.16,1384.24 2097.34,1384.24 2105.53,1384.24 2113.71,1384.24 2121.89,1384.24 2130.07,1384.24 2138.26,1384.24 2146.44,1384.24 
  2154.62,1384.24 
  "/>
<polyline clip-path="url(#clip332)" style="stroke:#3da44d; stroke-width:12; stroke-opacity:1; fill:none" points="
  354.438,1371.76 362.621,1368.42 370.804,1364.48 378.986,1359.87 387.169,1354.52 395.351,1348.36 403.534,1341.34 411.717,1333.37 419.899,1324.41 428.082,1314.38 
  436.265,1303.23 444.447,1290.91 452.63,1277.36 460.813,1262.55 468.995,1246.43 477.178,1228.98 485.361,1210.17 493.543,1190 501.726,1168.46 509.909,1145.55 
  518.091,1121.3 526.274,1095.72 534.457,1068.85 542.639,1040.75 550.822,1011.46 559.004,981.056 567.187,949.608 575.37,917.204 583.552,883.937 591.735,849.911 
  599.918,815.236 608.1,780.027 616.283,744.409 624.466,708.509 632.648,672.46 640.831,636.398 649.014,600.461 657.196,564.789 665.379,529.521 673.562,494.797 
  681.744,460.755 689.927,427.53 698.11,395.253 706.292,364.053 714.475,334.051 722.657,305.363 730.84,278.099 739.023,252.361 747.205,228.242 755.388,205.828 
  763.571,185.197 771.753,166.414 779.936,149.538 788.119,134.617 796.301,121.69 804.484,110.783 812.667,101.917 820.849,95.0997 829.032,90.3301 837.215,87.5985 
  845.397,86.8858 853.58,88.1643 861.763,91.3983 869.945,96.5441 878.128,103.551 886.31,112.361 894.493,122.911 902.676,135.131 910.858,148.946 919.041,164.279 
  927.224,181.046 935.406,199.162 943.589,218.537 951.772,239.082 959.954,260.704 968.137,283.31 976.32,306.808 984.502,331.103 992.685,356.104 1000.87,381.718 
  1009.05,407.856 1017.23,434.429 1025.42,461.351 1033.6,488.54 1041.78,515.914 1049.96,543.395 1058.15,570.91 1066.33,598.388 1074.51,625.761 1082.69,652.967 
  1090.88,679.947 1099.06,706.643 1107.24,733.006 1115.42,758.988 1123.61,784.545 1131.79,809.637 1139.97,834.229 1148.16,858.29 1156.34,881.79 1164.52,904.706 
  1172.7,927.016 1180.89,948.703 1189.07,969.752 1197.25,990.152 1205.43,1009.89 1213.62,1028.97 1221.8,1047.39 1229.98,1065.13 1238.16,1082.21 1246.35,1098.63 
  1254.53,1114.4 1262.71,1129.51 1270.9,1143.99 1279.08,1157.83 1287.26,1171.06 1295.44,1183.69 1303.63,1195.72 1311.81,1207.18 1319.99,1218.07 1328.17,1228.43 
  1336.36,1238.25 1344.54,1247.57 1352.72,1256.39 1360.9,1264.74 1369.09,1272.63 1377.27,1280.08 1385.45,1287.11 1393.63,1293.73 1401.82,1299.96 1410,1305.83 
  1418.18,1311.34 1426.37,1316.51 1434.55,1321.36 1442.73,1325.91 1450.91,1330.17 1459.1,1334.15 1467.28,1337.87 1475.46,1341.35 1483.64,1344.59 1491.83,1347.62 
  1500.01,1350.43 1508.19,1353.05 1516.37,1355.49 1524.56,1357.76 1532.74,1359.86 1540.92,1361.81 1549.11,1363.62 1557.29,1365.3 1565.47,1366.85 1573.65,1368.28 
  1581.84,1369.61 1590.02,1370.83 1598.2,1371.96 1606.38,1373 1614.57,1373.96 1622.75,1374.85 1630.93,1375.66 1639.11,1376.41 1647.3,1377.09 1655.48,1377.72 
  1663.66,1378.3 1671.84,1378.83 1680.03,1379.32 1688.21,1379.76 1696.39,1380.17 1704.58,1380.54 1712.76,1380.88 1720.94,1381.19 1729.12,1381.48 1737.31,1381.74 
  1745.49,1381.97 1753.67,1382.19 1761.85,1382.38 1770.04,1382.56 1778.22,1382.72 1786.4,1382.87 1794.58,1383 1802.77,1383.12 1810.95,1383.23 1819.13,1383.33 
  1827.32,1383.42 1835.5,1383.5 1843.68,1383.58 1851.86,1383.64 1860.05,1383.7 1868.23,1383.76 1876.41,1383.81 1884.59,1383.85 1892.78,1383.89 1900.96,1383.93 
  1909.14,1383.96 1917.32,1383.99 1925.51,1384.01 1933.69,1384.04 1941.87,1384.06 1950.05,1384.08 1958.24,1384.1 1966.42,1384.11 1974.6,1384.12 1982.79,1384.14 
  1990.97,1384.15 1999.15,1384.16 2007.33,1384.17 2015.52,1384.17 2023.7,1384.18 2031.88,1384.19 2040.06,1384.19 2048.25,1384.2 2056.43,1384.2 2064.61,1384.21 
  2072.79,1384.21 2080.98,1384.21 2089.16,1384.22 2097.34,1384.22 2105.53,1384.22 2113.71,1384.22 2121.89,1384.22 2130.07,1384.23 2138.26,1384.23 2146.44,1384.23 
  2154.62,1384.23 
  "/>
<path clip-path="url(#clip330)" d="
M1810.55 335.029 L2282.27 335.029 L2282.27 93.1086 L1810.55 93.1086  Z
  " fill="#ffffff" fill-rule="evenodd" fill-opacity="1"/>
<polyline clip-path="url(#clip330)" style="stroke:#000000; stroke-width:4; stroke-opacity:1; fill:none" points="
  1810.55,335.029 2282.27,335.029 2282.27,93.1086 1810.55,93.1086 1810.55,335.029 
  "/>
<path clip-path="url(#clip330)" d="
M1834.05 177.781 L1975.02 177.781 L1975.02 129.397 L1834.05 129.397 L1834.05 177.781  Z
  " fill="#009af9" fill-rule="evenodd" fill-opacity="1"/>
<polyline clip-path="url(#clip330)" style="stroke:#009af9; stroke-width:4; stroke-opacity:1; fill:none" points="
  1834.05,177.781 1975.02,177.781 1975.02,129.397 1834.05,129.397 1834.05,177.781 
  "/>
<path clip-path="url(#clip330)" d="M 0 0 M2012.36 173.276 Q2010.56 177.906 2008.84 179.318 Q2007.13 180.73 2004.26 180.73 L2000.86 180.73 L2000.86 177.165 L2003.36 177.165 Q2005.12 177.165 2006.09 176.332 Q2007.06 175.498 2008.24 172.396 L2009 170.452 L1998.52 144.943 L2003.03 144.943 L2011.13 165.221 L2019.24 144.943 L2023.75 144.943 L2012.36 173.276 Z" fill="#000000" fill-rule="evenodd" fill-opacity="1" /><path clip-path="url(#clip330)" d="M 0 0 M2029.63 166.933 L2037.27 166.933 L2037.27 140.568 L2028.96 142.235 L2028.96 137.975 L2037.22 136.309 L2041.9 136.309 L2041.9 166.933 L2049.54 166.933 L2049.54 170.869 L2029.63 170.869 L2029.63 166.933 Z" fill="#000000" fill-rule="evenodd" fill-opacity="1" /><polyline clip-path="url(#clip330)" style="stroke:#e26f46; stroke-width:4; stroke-opacity:1; fill:none" points="
  1834.05,214.069 1975.02,214.069 
  "/>
<path clip-path="url(#clip330)" d="M 0 0 M2017.43 218.085 Q2017.43 213.455 2015.51 210.909 Q2013.61 208.363 2010.16 208.363 Q2006.74 208.363 2004.81 210.909 Q2002.92 213.455 2002.92 218.085 Q2002.92 222.691 2004.81 225.238 Q2006.74 227.784 2010.16 227.784 Q2013.61 227.784 2015.51 225.238 Q2017.43 222.691 2017.43 218.085 M2021.69 228.131 Q2021.69 234.751 2018.75 237.969 Q2015.81 241.21 2009.75 241.21 Q2007.5 241.21 2005.51 240.862 Q2003.52 240.538 2001.64 239.844 L2001.64 235.7 Q2003.52 236.719 2005.35 237.205 Q2007.18 237.691 2009.07 237.691 Q2013.26 237.691 2015.35 235.492 Q2017.43 233.316 2017.43 228.895 L2017.43 226.788 Q2016.11 229.08 2014.05 230.214 Q2011.99 231.349 2009.12 231.349 Q2004.35 231.349 2001.44 227.714 Q1998.52 224.08 1998.52 218.085 Q1998.52 212.066 2001.44 208.432 Q2004.35 204.798 2009.12 204.798 Q2011.99 204.798 2014.05 205.932 Q2016.11 207.066 2017.43 209.358 L2017.43 205.423 L2021.69 205.423 L2021.69 228.131 Z" fill="#000000" fill-rule="evenodd" fill-opacity="1" /><path clip-path="url(#clip330)" d="M 0 0 M2037.94 218.316 Q2032.78 218.316 2030.79 219.497 Q2028.8 220.677 2028.8 223.525 Q2028.8 225.793 2030.28 227.136 Q2031.78 228.455 2034.35 228.455 Q2037.89 228.455 2040.02 225.955 Q2042.18 223.432 2042.18 219.265 L2042.18 218.316 L2037.94 218.316 M2046.44 216.557 L2046.44 231.349 L2042.18 231.349 L2042.18 227.413 Q2040.72 229.775 2038.54 230.909 Q2036.37 232.02 2033.22 232.02 Q2029.24 232.02 2026.88 229.798 Q2024.54 227.552 2024.54 223.802 Q2024.54 219.427 2027.45 217.205 Q2030.39 214.983 2036.2 214.983 L2042.18 214.983 L2042.18 214.566 Q2042.18 211.627 2040.23 210.029 Q2038.31 208.409 2034.81 208.409 Q2032.59 208.409 2030.49 208.941 Q2028.38 209.474 2026.44 210.539 L2026.44 206.603 Q2028.77 205.701 2030.97 205.261 Q2033.17 204.798 2035.25 204.798 Q2040.88 204.798 2043.66 207.714 Q2046.44 210.631 2046.44 216.557 Z" fill="#000000" fill-rule="evenodd" fill-opacity="1" /><path clip-path="url(#clip330)" d="M 0 0 M2050.46 221.117 L2050.46 205.423 L2054.72 205.423 L2054.72 220.955 Q2054.72 224.636 2056.16 226.488 Q2057.59 228.316 2060.46 228.316 Q2063.91 228.316 2065.9 226.117 Q2067.92 223.918 2067.92 220.122 L2067.92 205.423 L2072.18 205.423 L2072.18 231.349 L2067.92 231.349 L2067.92 227.367 Q2066.37 229.728 2064.31 230.886 Q2062.27 232.02 2059.56 232.02 Q2055.09 232.02 2052.78 229.242 Q2050.46 226.464 2050.46 221.117 M2061.18 204.798 L2061.18 204.798 Z" fill="#000000" fill-rule="evenodd" fill-opacity="1" /><path clip-path="url(#clip330)" d="M 0 0 M2093.17 206.187 L2093.17 210.214 Q2091.37 209.289 2089.42 208.826 Q2087.48 208.363 2085.39 208.363 Q2082.22 208.363 2080.62 209.335 Q2079.05 210.307 2079.05 212.251 Q2079.05 213.733 2080.18 214.589 Q2081.32 215.423 2084.75 216.187 L2086.2 216.511 Q2090.74 217.483 2092.64 219.265 Q2094.56 221.025 2094.56 224.196 Q2094.56 227.807 2091.69 229.913 Q2088.84 232.02 2083.84 232.02 Q2081.76 232.02 2079.49 231.603 Q2077.25 231.21 2074.75 230.4 L2074.75 226.001 Q2077.11 227.228 2079.4 227.853 Q2081.69 228.455 2083.93 228.455 Q2086.94 228.455 2088.56 227.437 Q2090.18 226.395 2090.18 224.52 Q2090.18 222.784 2089 221.858 Q2087.85 220.932 2083.89 220.076 L2082.41 219.728 Q2078.45 218.895 2076.69 217.182 Q2074.93 215.446 2074.93 212.437 Q2074.93 208.779 2077.52 206.789 Q2080.12 204.798 2084.88 204.798 Q2087.25 204.798 2089.33 205.145 Q2091.41 205.492 2093.17 206.187 Z" fill="#000000" fill-rule="evenodd" fill-opacity="1" /><path clip-path="url(#clip330)" d="M 0 0 M2115.56 206.187 L2115.56 210.214 Q2113.75 209.289 2111.81 208.826 Q2109.86 208.363 2107.78 208.363 Q2104.61 208.363 2103.01 209.335 Q2101.43 210.307 2101.43 212.251 Q2101.43 213.733 2102.57 214.589 Q2103.7 215.423 2107.13 216.187 L2108.59 216.511 Q2113.12 217.483 2115.02 219.265 Q2116.94 221.025 2116.94 224.196 Q2116.94 227.807 2114.07 229.913 Q2111.23 232.02 2106.23 232.02 Q2104.14 232.02 2101.87 231.603 Q2099.63 231.21 2097.13 230.4 L2097.13 226.001 Q2099.49 227.228 2101.78 227.853 Q2104.07 228.455 2106.32 228.455 Q2109.33 228.455 2110.95 227.437 Q2112.57 226.395 2112.57 224.52 Q2112.57 222.784 2111.39 221.858 Q2110.23 220.932 2106.27 220.076 L2104.79 219.728 Q2100.83 218.895 2099.07 217.182 Q2097.31 215.446 2097.31 212.437 Q2097.31 208.779 2099.91 206.789 Q2102.5 204.798 2107.27 204.798 Q2109.63 204.798 2111.71 205.145 Q2113.8 205.492 2115.56 206.187 Z" fill="#000000" fill-rule="evenodd" fill-opacity="1" /><path clip-path="url(#clip330)" d="M 0 0 M2121.41 205.423 L2125.67 205.423 L2125.67 231.349 L2121.41 231.349 L2121.41 205.423 M2121.41 195.33 L2125.67 195.33 L2125.67 200.724 L2121.41 200.724 L2121.41 195.33 Z" fill="#000000" fill-rule="evenodd" fill-opacity="1" /><path clip-path="url(#clip330)" d="M 0 0 M2141.92 218.316 Q2136.76 218.316 2134.77 219.497 Q2132.78 220.677 2132.78 223.525 Q2132.78 225.793 2134.26 227.136 Q2135.76 228.455 2138.33 228.455 Q2141.87 228.455 2144 225.955 Q2146.16 223.432 2146.16 219.265 L2146.16 218.316 L2141.92 218.316 M2150.42 216.557 L2150.42 231.349 L2146.16 231.349 L2146.16 227.413 Q2144.7 229.775 2142.52 230.909 Q2140.35 232.02 2137.2 232.02 Q2133.22 232.02 2130.86 229.798 Q2128.52 227.552 2128.52 223.802 Q2128.52 219.427 2131.43 217.205 Q2134.37 214.983 2140.18 214.983 L2146.16 214.983 L2146.16 214.566 Q2146.16 211.627 2144.21 210.029 Q2142.29 208.409 2138.8 208.409 Q2136.57 208.409 2134.47 208.941 Q2132.36 209.474 2130.42 210.539 L2130.42 206.603 Q2132.75 205.701 2134.95 205.261 Q2137.15 204.798 2139.24 204.798 Q2144.86 204.798 2147.64 207.714 Q2150.42 210.631 2150.42 216.557 Z" fill="#000000" fill-rule="evenodd" fill-opacity="1" /><path clip-path="url(#clip330)" d="M 0 0 M2176.43 215.701 L2176.43 231.349 L2172.18 231.349 L2172.18 215.839 Q2172.18 212.159 2170.74 210.33 Q2169.3 208.502 2166.43 208.502 Q2162.99 208.502 2160.99 210.701 Q2159 212.9 2159 216.696 L2159 231.349 L2154.72 231.349 L2154.72 205.423 L2159 205.423 L2159 209.451 Q2160.53 207.113 2162.59 205.955 Q2164.68 204.798 2167.38 204.798 Q2171.85 204.798 2174.14 207.576 Q2176.43 210.33 2176.43 215.701 Z" fill="#000000" fill-rule="evenodd" fill-opacity="1" /><path clip-path="url(#clip330)" d="M 0 0 M2209.1 195.33 L2209.1 198.872 L2205.02 198.872 Q2202.73 198.872 2201.83 199.798 Q2200.95 200.724 2200.95 203.131 L2200.95 205.423 L2207.96 205.423 L2207.96 208.733 L2200.95 208.733 L2200.95 231.349 L2196.67 231.349 L2196.67 208.733 L2192.59 208.733 L2192.59 205.423 L2196.67 205.423 L2196.67 203.617 Q2196.67 199.289 2198.68 197.321 Q2200.69 195.33 2205.07 195.33 L2209.1 195.33 Z" fill="#000000" fill-rule="evenodd" fill-opacity="1" /><path clip-path="url(#clip330)" d="M 0 0 M2213.56 205.423 L2217.82 205.423 L2217.82 231.349 L2213.56 231.349 L2213.56 205.423 M2213.56 195.33 L2217.82 195.33 L2217.82 200.724 L2213.56 200.724 L2213.56 195.33 Z" fill="#000000" fill-rule="evenodd" fill-opacity="1" /><path clip-path="url(#clip330)" d="M 0 0 M2226.5 198.062 L2226.5 205.423 L2235.28 205.423 L2235.28 208.733 L2226.5 208.733 L2226.5 222.807 Q2226.5 225.978 2227.36 226.881 Q2228.24 227.784 2230.9 227.784 L2235.28 227.784 L2235.28 231.349 L2230.9 231.349 Q2225.97 231.349 2224.1 229.52 Q2222.22 227.668 2222.22 222.807 L2222.22 208.733 L2219.1 208.733 L2219.1 205.423 L2222.22 205.423 L2222.22 198.062 L2226.5 198.062 Z" fill="#000000" fill-rule="evenodd" fill-opacity="1" /><polyline clip-path="url(#clip330)" style="stroke:#3da44d; stroke-width:4; stroke-opacity:1; fill:none" points="
  1834.05,274.549 1975.02,274.549 
  "/>
<path clip-path="url(#clip330)" d="M 0 0 M2002.8 287.94 L2002.8 301.69 L1998.52 301.69 L1998.52 265.903 L2002.8 265.903 L2002.8 269.838 Q2004.14 267.523 2006.18 266.412 Q2008.24 265.278 2011.09 265.278 Q2015.81 265.278 2018.75 269.028 Q2021.71 272.778 2021.71 278.889 Q2021.71 285 2018.75 288.75 Q2015.81 292.5 2011.09 292.5 Q2008.24 292.5 2006.18 291.389 Q2004.14 290.255 2002.8 287.94 M2017.29 278.889 Q2017.29 274.19 2015.35 271.528 Q2013.43 268.843 2010.05 268.843 Q2006.67 268.843 2004.72 271.528 Q2002.8 274.19 2002.8 278.889 Q2002.8 283.588 2004.72 286.273 Q2006.67 288.935 2010.05 288.935 Q2013.43 288.935 2015.35 286.273 Q2017.29 283.588 2017.29 278.889 Z" fill="#000000" fill-rule="evenodd" fill-opacity="1" /><path clip-path="url(#clip330)" d="M 0 0 M2036.23 268.889 Q2032.8 268.889 2030.81 271.574 Q2028.82 274.236 2028.82 278.889 Q2028.82 283.542 2030.79 286.227 Q2032.78 288.889 2036.23 288.889 Q2039.63 288.889 2041.62 286.204 Q2043.61 283.518 2043.61 278.889 Q2043.61 274.282 2041.62 271.597 Q2039.63 268.889 2036.23 268.889 M2036.23 265.278 Q2041.78 265.278 2044.95 268.889 Q2048.12 272.5 2048.12 278.889 Q2048.12 285.255 2044.95 288.889 Q2041.78 292.5 2036.23 292.5 Q2030.65 292.5 2027.48 288.889 Q2024.33 285.255 2024.33 278.889 Q2024.33 272.5 2027.48 268.889 Q2030.65 265.278 2036.23 265.278 Z" fill="#000000" fill-rule="evenodd" fill-opacity="1" /><path clip-path="url(#clip330)" d="M 0 0 M2052.59 265.903 L2056.85 265.903 L2056.85 291.829 L2052.59 291.829 L2052.59 265.903 M2052.59 255.81 L2056.85 255.81 L2056.85 261.204 L2052.59 261.204 L2052.59 255.81 Z" fill="#000000" fill-rule="evenodd" fill-opacity="1" /><path clip-path="url(#clip330)" d="M 0 0 M2077.85 266.667 L2077.85 270.694 Q2076.04 269.769 2074.1 269.306 Q2072.15 268.843 2070.07 268.843 Q2066.9 268.843 2065.3 269.815 Q2063.73 270.787 2063.73 272.731 Q2063.73 274.213 2064.86 275.069 Q2066 275.903 2069.42 276.667 L2070.88 276.991 Q2075.42 277.963 2077.31 279.745 Q2079.24 281.505 2079.24 284.676 Q2079.24 288.287 2076.37 290.393 Q2073.52 292.5 2068.52 292.5 Q2066.44 292.5 2064.17 292.083 Q2061.92 291.69 2059.42 290.88 L2059.42 286.481 Q2061.78 287.708 2064.07 288.333 Q2066.37 288.935 2068.61 288.935 Q2071.62 288.935 2073.24 287.917 Q2074.86 286.875 2074.86 285 Q2074.86 283.264 2073.68 282.338 Q2072.52 281.412 2068.56 280.556 L2067.08 280.208 Q2063.12 279.375 2061.37 277.662 Q2059.61 275.926 2059.61 272.917 Q2059.61 269.259 2062.2 267.269 Q2064.79 265.278 2069.56 265.278 Q2071.92 265.278 2074 265.625 Q2076.09 265.972 2077.85 266.667 Z" fill="#000000" fill-rule="evenodd" fill-opacity="1" /><path clip-path="url(#clip330)" d="M 0 0 M2100.23 266.667 L2100.23 270.694 Q2098.43 269.769 2096.48 269.306 Q2094.54 268.843 2092.45 268.843 Q2089.28 268.843 2087.68 269.815 Q2086.11 270.787 2086.11 272.731 Q2086.11 274.213 2087.25 275.069 Q2088.38 275.903 2091.81 276.667 L2093.26 276.991 Q2097.8 277.963 2099.7 279.745 Q2101.62 281.505 2101.62 284.676 Q2101.62 288.287 2098.75 290.393 Q2095.9 292.5 2090.9 292.5 Q2088.82 292.5 2086.55 292.083 Q2084.31 291.69 2081.81 290.88 L2081.81 286.481 Q2084.17 287.708 2086.46 288.333 Q2088.75 288.935 2091 288.935 Q2094 288.935 2095.62 287.917 Q2097.25 286.875 2097.25 285 Q2097.25 283.264 2096.06 282.338 Q2094.91 281.412 2090.95 280.556 L2089.47 280.208 Q2085.51 279.375 2083.75 277.662 Q2081.99 275.926 2081.99 272.917 Q2081.99 269.259 2084.58 267.269 Q2087.18 265.278 2091.94 265.278 Q2094.31 265.278 2096.39 265.625 Q2098.47 265.972 2100.23 266.667 Z" fill="#000000" fill-rule="evenodd" fill-opacity="1" /><path clip-path="url(#clip330)" d="M 0 0 M2116.13 268.889 Q2112.71 268.889 2110.72 271.574 Q2108.73 274.236 2108.73 278.889 Q2108.73 283.542 2110.69 286.227 Q2112.68 288.889 2116.13 288.889 Q2119.54 288.889 2121.53 286.204 Q2123.52 283.518 2123.52 278.889 Q2123.52 274.282 2121.53 271.597 Q2119.54 268.889 2116.13 268.889 M2116.13 265.278 Q2121.69 265.278 2124.86 268.889 Q2128.03 272.5 2128.03 278.889 Q2128.03 285.255 2124.86 288.889 Q2121.69 292.5 2116.13 292.5 Q2110.56 292.5 2107.38 288.889 Q2104.24 285.255 2104.24 278.889 Q2104.24 272.5 2107.38 268.889 Q2110.56 265.278 2116.13 265.278 Z" fill="#000000" fill-rule="evenodd" fill-opacity="1" /><path clip-path="url(#clip330)" d="M 0 0 M2154.05 276.181 L2154.05 291.829 L2149.79 291.829 L2149.79 276.319 Q2149.79 272.639 2148.36 270.81 Q2146.92 268.982 2144.05 268.982 Q2140.6 268.982 2138.61 271.181 Q2136.62 273.38 2136.62 277.176 L2136.62 291.829 L2132.34 291.829 L2132.34 265.903 L2136.62 265.903 L2136.62 269.931 Q2138.15 267.593 2140.21 266.435 Q2142.29 265.278 2145 265.278 Q2149.47 265.278 2151.76 268.056 Q2154.05 270.81 2154.05 276.181 Z" fill="#000000" fill-rule="evenodd" fill-opacity="1" /><path clip-path="url(#clip330)" d="M 0 0 M2186.71 255.81 L2186.71 259.352 L2182.64 259.352 Q2180.35 259.352 2179.44 260.278 Q2178.56 261.204 2178.56 263.611 L2178.56 265.903 L2185.58 265.903 L2185.58 269.213 L2178.56 269.213 L2178.56 291.829 L2174.28 291.829 L2174.28 269.213 L2170.21 269.213 L2170.21 265.903 L2174.28 265.903 L2174.28 264.097 Q2174.28 259.769 2176.3 257.801 Q2178.31 255.81 2182.68 255.81 L2186.71 255.81 Z" fill="#000000" fill-rule="evenodd" fill-opacity="1" /><path clip-path="url(#clip330)" d="M 0 0 M2191.18 265.903 L2195.44 265.903 L2195.44 291.829 L2191.18 291.829 L2191.18 265.903 M2191.18 255.81 L2195.44 255.81 L2195.44 261.204 L2191.18 261.204 L2191.18 255.81 Z" fill="#000000" fill-rule="evenodd" fill-opacity="1" /><path clip-path="url(#clip330)" d="M 0 0 M2204.12 258.542 L2204.12 265.903 L2212.89 265.903 L2212.89 269.213 L2204.12 269.213 L2204.12 283.287 Q2204.12 286.458 2204.98 287.361 Q2205.86 288.264 2208.52 288.264 L2212.89 288.264 L2212.89 291.829 L2208.52 291.829 Q2203.59 291.829 2201.71 290 Q2199.84 288.148 2199.84 283.287 L2199.84 269.213 L2196.71 269.213 L2196.71 265.903 L2199.84 265.903 L2199.84 258.542 L2204.12 258.542 Z" fill="#000000" fill-rule="evenodd" fill-opacity="1" /></svg>
