<?xml version="1.0" encoding="utf-8"?>
<svg xmlns="http://www.w3.org/2000/svg" xmlns:xlink="http://www.w3.org/1999/xlink" width="600" height="400" viewBox="0 0 2400 1600">
<defs>
  <clipPath id="clip480">
    <rect x="0" y="0" width="2400" height="1600"/>
  </clipPath>
</defs>
<path clip-path="url(#clip480)" d="
M0 1600 L2400 1600 L2400 0 L0 0  Z
  " fill="#ffffff" fill-rule="evenodd" fill-opacity="1"/>
<defs>
  <clipPath id="clip481">
    <rect x="480" y="0" width="1681" height="1600"/>
  </clipPath>
</defs>
<path clip-path="url(#clip480)" d="
M238.616 1423.18 L2352.76 1423.18 L2352.76 47.2441 L238.616 47.2441  Z
  " fill="#ffffff" fill-rule="evenodd" fill-opacity="1"/>
<defs>
  <clipPath id="clip482">
    <rect x="238" y="47" width="2115" height="1377"/>
  </clipPath>
</defs>
<polyline clip-path="url(#clip482)" style="stroke:#000000; stroke-width:2; stroke-opacity:0.1; fill:none" points="
  354.898,1423.18 354.898,47.2441 
  "/>
<polyline clip-path="url(#clip482)" style="stroke:#000000; stroke-width:2; stroke-opacity:0.1; fill:none" points="
  1003.72,1423.18 1003.72,47.2441 
  "/>
<polyline clip-path="url(#clip482)" style="stroke:#000000; stroke-width:2; stroke-opacity:0.1; fill:none" points="
  1652.54,1423.18 1652.54,47.2441 
  "/>
<polyline clip-path="url(#clip482)" style="stroke:#000000; stroke-width:2; stroke-opacity:0.1; fill:none" points="
  2301.36,1423.18 2301.36,47.2441 
  "/>
<polyline clip-path="url(#clip480)" style="stroke:#000000; stroke-width:4; stroke-opacity:1; fill:none" points="
  238.616,1423.18 2352.76,1423.18 
  "/>
<polyline clip-path="url(#clip480)" style="stroke:#000000; stroke-width:4; stroke-opacity:1; fill:none" points="
  354.898,1423.18 354.898,1406.67 
  "/>
<polyline clip-path="url(#clip480)" style="stroke:#000000; stroke-width:4; stroke-opacity:1; fill:none" points="
  1003.72,1423.18 1003.72,1406.67 
  "/>
<polyline clip-path="url(#clip480)" style="stroke:#000000; stroke-width:4; stroke-opacity:1; fill:none" points="
  1652.54,1423.18 1652.54,1406.67 
  "/>
<polyline clip-path="url(#clip480)" style="stroke:#000000; stroke-width:4; stroke-opacity:1; fill:none" points="
  2301.36,1423.18 2301.36,1406.67 
  "/>
<path clip-path="url(#clip480)" d="M 0 0 M354.898 1452.37 Q351.287 1452.37 349.458 1455.94 Q347.652 1459.48 347.652 1466.61 Q347.652 1473.71 349.458 1477.28 Q351.287 1480.82 354.898 1480.82 Q358.532 1480.82 360.337 1477.28 Q362.166 1473.71 362.166 1466.61 Q362.166 1459.48 360.337 1455.94 Q358.532 1452.37 354.898 1452.37 M354.898 1448.67 Q360.708 1448.67 363.763 1453.27 Q366.842 1457.86 366.842 1466.61 Q366.842 1475.33 363.763 1479.94 Q360.708 1484.52 354.898 1484.52 Q349.087 1484.52 346.009 1479.94 Q342.953 1475.33 342.953 1466.61 Q342.953 1457.86 346.009 1453.27 Q349.087 1448.67 354.898 1448.67 Z" fill="#000000" fill-rule="evenodd" fill-opacity="1" /><path clip-path="url(#clip480)" d="M 0 0 M980.592 1479.92 L988.231 1479.92 L988.231 1453.55 L979.921 1455.22 L979.921 1450.96 L988.185 1449.29 L992.861 1449.29 L992.861 1479.92 L1000.5 1479.92 L1000.5 1483.85 L980.592 1483.85 L980.592 1479.92 Z" fill="#000000" fill-rule="evenodd" fill-opacity="1" /><path clip-path="url(#clip480)" d="M 0 0 M1015.57 1452.37 Q1011.96 1452.37 1010.13 1455.94 Q1008.32 1459.48 1008.32 1466.61 Q1008.32 1473.71 1010.13 1477.28 Q1011.96 1480.82 1015.57 1480.82 Q1019.2 1480.82 1021.01 1477.28 Q1022.84 1473.71 1022.84 1466.61 Q1022.84 1459.48 1021.01 1455.94 Q1019.2 1452.37 1015.57 1452.37 M1015.57 1448.67 Q1021.38 1448.67 1024.43 1453.27 Q1027.51 1457.86 1027.51 1466.61 Q1027.51 1475.33 1024.43 1479.94 Q1021.38 1484.52 1015.57 1484.52 Q1009.76 1484.52 1006.68 1479.94 Q1003.62 1475.33 1003.62 1466.61 Q1003.62 1457.86 1006.68 1453.27 Q1009.76 1448.67 1015.57 1448.67 Z" fill="#000000" fill-rule="evenodd" fill-opacity="1" /><path clip-path="url(#clip480)" d="M 0 0 M1633.68 1479.92 L1650 1479.92 L1650 1483.85 L1628.06 1483.85 L1628.06 1479.92 Q1630.72 1477.16 1635.3 1472.53 Q1639.91 1467.88 1641.09 1466.54 Q1643.34 1464.01 1644.22 1462.28 Q1645.12 1460.52 1645.12 1458.83 Q1645.12 1456.07 1643.17 1454.34 Q1641.25 1452.6 1638.15 1452.6 Q1635.95 1452.6 1633.5 1453.37 Q1631.07 1454.13 1628.29 1455.68 L1628.29 1450.96 Q1631.11 1449.82 1633.57 1449.25 Q1636.02 1448.67 1638.06 1448.67 Q1643.43 1448.67 1646.62 1451.35 Q1649.82 1454.04 1649.82 1458.53 Q1649.82 1460.66 1649.01 1462.58 Q1648.22 1464.48 1646.11 1467.07 Q1645.53 1467.74 1642.43 1470.96 Q1639.33 1474.15 1633.68 1479.92 Z" fill="#000000" fill-rule="evenodd" fill-opacity="1" /><path clip-path="url(#clip480)" d="M 0 0 M1665.07 1452.37 Q1661.46 1452.37 1659.63 1455.94 Q1657.83 1459.48 1657.83 1466.61 Q1657.83 1473.71 1659.63 1477.28 Q1661.46 1480.82 1665.07 1480.82 Q1668.71 1480.82 1670.51 1477.28 Q1672.34 1473.71 1672.34 1466.61 Q1672.34 1459.48 1670.51 1455.94 Q1668.71 1452.37 1665.07 1452.37 M1665.07 1448.67 Q1670.88 1448.67 1673.94 1453.27 Q1677.02 1457.86 1677.02 1466.61 Q1677.02 1475.33 1673.94 1479.94 Q1670.88 1484.52 1665.07 1484.52 Q1659.26 1484.52 1656.18 1479.94 Q1653.13 1475.33 1653.13 1466.61 Q1653.13 1457.86 1656.18 1453.27 Q1659.26 1448.67 1665.07 1448.67 Z" fill="#000000" fill-rule="evenodd" fill-opacity="1" /><path clip-path="url(#clip480)" d="M 0 0 M2292.1 1465.22 Q2295.45 1465.94 2297.33 1468.2 Q2299.23 1470.47 2299.23 1473.81 Q2299.23 1478.92 2295.71 1481.72 Q2292.19 1484.52 2285.71 1484.52 Q2283.53 1484.52 2281.22 1484.08 Q2278.93 1483.67 2276.47 1482.81 L2276.47 1478.3 Q2278.42 1479.43 2280.73 1480.01 Q2283.05 1480.59 2285.57 1480.59 Q2289.97 1480.59 2292.26 1478.85 Q2294.57 1477.12 2294.57 1473.81 Q2294.57 1470.75 2292.42 1469.04 Q2290.29 1467.3 2286.47 1467.3 L2282.44 1467.3 L2282.44 1463.46 L2286.66 1463.46 Q2290.11 1463.46 2291.94 1462.09 Q2293.76 1460.7 2293.76 1458.11 Q2293.76 1455.45 2291.87 1454.04 Q2289.99 1452.6 2286.47 1452.6 Q2284.55 1452.6 2282.35 1453.02 Q2280.15 1453.44 2277.51 1454.31 L2277.51 1450.15 Q2280.18 1449.41 2282.49 1449.04 Q2284.83 1448.67 2286.89 1448.67 Q2292.21 1448.67 2295.31 1451.1 Q2298.42 1453.5 2298.42 1457.63 Q2298.42 1460.5 2296.77 1462.49 Q2295.13 1464.45 2292.1 1465.22 Z" fill="#000000" fill-rule="evenodd" fill-opacity="1" /><path clip-path="url(#clip480)" d="M 0 0 M2314.3 1452.37 Q2310.69 1452.37 2308.86 1455.94 Q2307.05 1459.48 2307.05 1466.61 Q2307.05 1473.71 2308.86 1477.28 Q2310.69 1480.82 2314.3 1480.82 Q2317.93 1480.82 2319.74 1477.28 Q2321.56 1473.71 2321.56 1466.61 Q2321.56 1459.48 2319.74 1455.94 Q2317.93 1452.37 2314.3 1452.37 M2314.3 1448.67 Q2320.11 1448.67 2323.16 1453.27 Q2326.24 1457.86 2326.24 1466.61 Q2326.24 1475.33 2323.16 1479.94 Q2320.11 1484.52 2314.3 1484.52 Q2308.49 1484.52 2305.41 1479.94 Q2302.35 1475.33 2302.35 1466.61 Q2302.35 1457.86 2305.41 1453.27 Q2308.49 1448.67 2314.3 1448.67 Z" fill="#000000" fill-rule="evenodd" fill-opacity="1" /><path clip-path="url(#clip480)" d="M 0 0 M1306.13 1537.87 Q1305.14 1537.3 1303.96 1537.04 Q1302.82 1536.76 1301.42 1536.76 Q1296.45 1536.76 1293.78 1540 Q1291.13 1543.22 1291.13 1549.27 L1291.13 1568.04 L1285.25 1568.04 L1285.25 1532.4 L1291.13 1532.4 L1291.13 1537.93 Q1292.98 1534.69 1295.94 1533.13 Q1298.9 1531.54 1303.13 1531.54 Q1303.74 1531.54 1304.47 1531.63 Q1305.2 1531.7 1306.09 1531.85 L1306.13 1537.87 Z" fill="#000000" fill-rule="evenodd" fill-opacity="1" /><polyline clip-path="url(#clip482)" style="stroke:#000000; stroke-width:2; stroke-opacity:0.1; fill:none" points="
  238.616,1384.24 2352.76,1384.24 
  "/>
<polyline clip-path="url(#clip482)" style="stroke:#000000; stroke-width:2; stroke-opacity:0.1; fill:none" points="
  238.616,1179.31 2352.76,1179.31 
  "/>
<polyline clip-path="url(#clip482)" style="stroke:#000000; stroke-width:2; stroke-opacity:0.1; fill:none" points="
  238.616,974.38 2352.76,974.38 
  "/>
<polyline clip-path="url(#clip482)" style="stroke:#000000; stroke-width:2; stroke-opacity:0.1; fill:none" points="
  238.616,769.451 2352.76,769.451 
  "/>
<polyline clip-path="url(#clip482)" style="stroke:#000000; stroke-width:2; stroke-opacity:0.1; fill:none" points="
  238.616,564.522 2352.76,564.522 
  "/>
<polyline clip-path="url(#clip482)" style="stroke:#000000; stroke-width:2; stroke-opacity:0.1; fill:none" points="
  238.616,359.593 2352.76,359.593 
  "/>
<polyline clip-path="url(#clip482)" style="stroke:#000000; stroke-width:2; stroke-opacity:0.1; fill:none" points="
  238.616,154.663 2352.76,154.663 
  "/>
<polyline clip-path="url(#clip480)" style="stroke:#000000; stroke-width:4; stroke-opacity:1; fill:none" points="
  238.616,1423.18 238.616,47.2441 
  "/>
<polyline clip-path="url(#clip480)" style="stroke:#000000; stroke-width:4; stroke-opacity:1; fill:none" points="
  238.616,1384.24 263.986,1384.24 
  "/>
<polyline clip-path="url(#clip480)" style="stroke:#000000; stroke-width:4; stroke-opacity:1; fill:none" points="
  238.616,1179.31 263.986,1179.31 
  "/>
<polyline clip-path="url(#clip480)" style="stroke:#000000; stroke-width:4; stroke-opacity:1; fill:none" points="
  238.616,974.38 263.986,974.38 
  "/>
<polyline clip-path="url(#clip480)" style="stroke:#000000; stroke-width:4; stroke-opacity:1; fill:none" points="
  238.616,769.451 263.986,769.451 
  "/>
<polyline clip-path="url(#clip480)" style="stroke:#000000; stroke-width:4; stroke-opacity:1; fill:none" points="
  238.616,564.522 263.986,564.522 
  "/>
<polyline clip-path="url(#clip480)" style="stroke:#000000; stroke-width:4; stroke-opacity:1; fill:none" points="
  238.616,359.593 263.986,359.593 
  "/>
<polyline clip-path="url(#clip480)" style="stroke:#000000; stroke-width:4; stroke-opacity:1; fill:none" points="
  238.616,154.663 263.986,154.663 
  "/>
<path clip-path="url(#clip480)" d="M 0 0 M126.691 1370.04 Q123.08 1370.04 121.251 1373.6 Q119.445 1377.14 119.445 1384.27 Q119.445 1391.38 121.251 1394.94 Q123.08 1398.49 126.691 1398.49 Q130.325 1398.49 132.13 1394.94 Q133.959 1391.38 133.959 1384.27 Q133.959 1377.14 132.13 1373.6 Q130.325 1370.04 126.691 1370.04 M126.691 1366.33 Q132.501 1366.33 135.556 1370.94 Q138.635 1375.52 138.635 1384.27 Q138.635 1393 135.556 1397.61 Q132.501 1402.19 126.691 1402.19 Q120.88 1402.19 117.802 1397.61 Q114.746 1393 114.746 1384.27 Q114.746 1375.52 117.802 1370.94 Q120.88 1366.33 126.691 1366.33 Z" fill="#000000" fill-rule="evenodd" fill-opacity="1" /><path clip-path="url(#clip480)" d="M 0 0 M143.704 1395.64 L148.589 1395.64 L148.589 1401.52 L143.704 1401.52 L143.704 1395.64 Z" fill="#000000" fill-rule="evenodd" fill-opacity="1" /><path clip-path="url(#clip480)" d="M 0 0 M163.658 1370.04 Q160.047 1370.04 158.218 1373.6 Q156.413 1377.14 156.413 1384.27 Q156.413 1391.38 158.218 1394.94 Q160.047 1398.49 163.658 1398.49 Q167.292 1398.49 169.098 1394.94 Q170.927 1391.38 170.927 1384.27 Q170.927 1377.14 169.098 1373.6 Q167.292 1370.04 163.658 1370.04 M163.658 1366.33 Q169.468 1366.33 172.524 1370.94 Q175.602 1375.52 175.602 1384.27 Q175.602 1393 172.524 1397.61 Q169.468 1402.19 163.658 1402.19 Q157.848 1402.19 154.769 1397.61 Q151.714 1393 151.714 1384.27 Q151.714 1375.52 154.769 1370.94 Q157.848 1366.33 163.658 1366.33 Z" fill="#000000" fill-rule="evenodd" fill-opacity="1" /><path clip-path="url(#clip480)" d="M 0 0 M190.672 1370.04 Q187.061 1370.04 185.232 1373.6 Q183.426 1377.14 183.426 1384.27 Q183.426 1391.38 185.232 1394.94 Q187.061 1398.49 190.672 1398.49 Q194.306 1398.49 196.112 1394.94 Q197.94 1391.38 197.94 1384.27 Q197.94 1377.14 196.112 1373.6 Q194.306 1370.04 190.672 1370.04 M190.672 1366.33 Q196.482 1366.33 199.537 1370.94 Q202.616 1375.52 202.616 1384.27 Q202.616 1393 199.537 1397.61 Q196.482 1402.19 190.672 1402.19 Q184.862 1402.19 181.783 1397.61 Q178.727 1393 178.727 1384.27 Q178.727 1375.52 181.783 1370.94 Q184.862 1366.33 190.672 1366.33 Z" fill="#000000" fill-rule="evenodd" fill-opacity="1" /><path clip-path="url(#clip480)" d="M 0 0 M128.288 1165.11 Q124.677 1165.11 122.848 1168.67 Q121.043 1172.21 121.043 1179.34 Q121.043 1186.45 122.848 1190.02 Q124.677 1193.56 128.288 1193.56 Q131.922 1193.56 133.728 1190.02 Q135.556 1186.45 135.556 1179.34 Q135.556 1172.21 133.728 1168.67 Q131.922 1165.11 128.288 1165.11 M128.288 1161.4 Q134.098 1161.4 137.154 1166.01 Q140.232 1170.59 140.232 1179.34 Q140.232 1188.07 137.154 1192.68 Q134.098 1197.26 128.288 1197.26 Q122.478 1197.26 119.399 1192.68 Q116.343 1188.07 116.343 1179.34 Q116.343 1170.59 119.399 1166.01 Q122.478 1161.4 128.288 1161.4 Z" fill="#000000" fill-rule="evenodd" fill-opacity="1" /><path clip-path="url(#clip480)" d="M 0 0 M145.302 1190.71 L150.186 1190.71 L150.186 1196.59 L145.302 1196.59 L145.302 1190.71 Z" fill="#000000" fill-rule="evenodd" fill-opacity="1" /><path clip-path="url(#clip480)" d="M 0 0 M165.255 1165.11 Q161.644 1165.11 159.815 1168.67 Q158.01 1172.21 158.01 1179.34 Q158.01 1186.45 159.815 1190.02 Q161.644 1193.56 165.255 1193.56 Q168.889 1193.56 170.695 1190.02 Q172.524 1186.45 172.524 1179.34 Q172.524 1172.21 170.695 1168.67 Q168.889 1165.11 165.255 1165.11 M165.255 1161.4 Q171.065 1161.4 174.121 1166.01 Q177.2 1170.59 177.2 1179.34 Q177.2 1188.07 174.121 1192.68 Q171.065 1197.26 165.255 1197.26 Q159.445 1197.26 156.366 1192.68 Q153.311 1188.07 153.311 1179.34 Q153.311 1170.59 156.366 1166.01 Q159.445 1161.4 165.255 1161.4 Z" fill="#000000" fill-rule="evenodd" fill-opacity="1" /><path clip-path="url(#clip480)" d="M 0 0 M186.297 1192.65 L202.616 1192.65 L202.616 1196.59 L180.672 1196.59 L180.672 1192.65 Q183.334 1189.9 187.917 1185.27 Q192.524 1180.62 193.704 1179.27 Q195.95 1176.75 196.829 1175.02 Q197.732 1173.26 197.732 1171.57 Q197.732 1168.81 195.787 1167.08 Q193.866 1165.34 190.764 1165.34 Q188.565 1165.34 186.112 1166.1 Q183.681 1166.87 180.903 1168.42 L180.903 1163.7 Q183.727 1162.56 186.181 1161.98 Q188.635 1161.4 190.672 1161.4 Q196.042 1161.4 199.237 1164.09 Q202.431 1166.77 202.431 1171.27 Q202.431 1173.39 201.621 1175.32 Q200.834 1177.21 198.727 1179.81 Q198.149 1180.48 195.047 1183.7 Q191.945 1186.89 186.297 1192.65 Z" fill="#000000" fill-rule="evenodd" fill-opacity="1" /><path clip-path="url(#clip480)" d="M 0 0 M126.205 960.179 Q122.593 960.179 120.765 963.743 Q118.959 967.285 118.959 974.415 Q118.959 981.521 120.765 985.086 Q122.593 988.628 126.205 988.628 Q129.839 988.628 131.644 985.086 Q133.473 981.521 133.473 974.415 Q133.473 967.285 131.644 963.743 Q129.839 960.179 126.205 960.179 M126.205 956.475 Q132.015 956.475 135.07 961.081 Q138.149 965.665 138.149 974.415 Q138.149 983.142 135.07 987.748 Q132.015 992.331 126.205 992.331 Q120.394 992.331 117.316 987.748 Q114.26 983.142 114.26 974.415 Q114.26 965.665 117.316 961.081 Q120.394 956.475 126.205 956.475 Z" fill="#000000" fill-rule="evenodd" fill-opacity="1" /><path clip-path="url(#clip480)" d="M 0 0 M143.218 985.78 L148.103 985.78 L148.103 991.66 L143.218 991.66 L143.218 985.78 Z" fill="#000000" fill-rule="evenodd" fill-opacity="1" /><path clip-path="url(#clip480)" d="M 0 0 M163.172 960.179 Q159.561 960.179 157.732 963.743 Q155.927 967.285 155.927 974.415 Q155.927 981.521 157.732 985.086 Q159.561 988.628 163.172 988.628 Q166.806 988.628 168.612 985.086 Q170.44 981.521 170.44 974.415 Q170.44 967.285 168.612 963.743 Q166.806 960.179 163.172 960.179 M163.172 956.475 Q168.982 956.475 172.038 961.081 Q175.116 965.665 175.116 974.415 Q175.116 983.142 172.038 987.748 Q168.982 992.331 163.172 992.331 Q157.362 992.331 154.283 987.748 Q151.228 983.142 151.228 974.415 Q151.228 965.665 154.283 961.081 Q157.362 956.475 163.172 956.475 Z" fill="#000000" fill-rule="evenodd" fill-opacity="1" /><path clip-path="url(#clip480)" d="M 0 0 M193.033 961.174 L181.227 979.623 L193.033 979.623 L193.033 961.174 M191.806 957.1 L197.686 957.1 L197.686 979.623 L202.616 979.623 L202.616 983.512 L197.686 983.512 L197.686 991.66 L193.033 991.66 L193.033 983.512 L177.431 983.512 L177.431 978.998 L191.806 957.1 Z" fill="#000000" fill-rule="evenodd" fill-opacity="1" /><path clip-path="url(#clip480)" d="M 0 0 M126.529 755.25 Q122.918 755.25 121.089 758.814 Q119.283 762.356 119.283 769.486 Q119.283 776.592 121.089 780.157 Q122.918 783.698 126.529 783.698 Q130.163 783.698 131.968 780.157 Q133.797 776.592 133.797 769.486 Q133.797 762.356 131.968 758.814 Q130.163 755.25 126.529 755.25 M126.529 751.546 Q132.339 751.546 135.394 756.152 Q138.473 760.736 138.473 769.486 Q138.473 778.212 135.394 782.819 Q132.339 787.402 126.529 787.402 Q120.718 787.402 117.64 782.819 Q114.584 778.212 114.584 769.486 Q114.584 760.736 117.64 756.152 Q120.718 751.546 126.529 751.546 Z" fill="#000000" fill-rule="evenodd" fill-opacity="1" /><path clip-path="url(#clip480)" d="M 0 0 M143.542 780.851 L148.427 780.851 L148.427 786.731 L143.542 786.731 L143.542 780.851 Z" fill="#000000" fill-rule="evenodd" fill-opacity="1" /><path clip-path="url(#clip480)" d="M 0 0 M163.496 755.25 Q159.885 755.25 158.056 758.814 Q156.251 762.356 156.251 769.486 Q156.251 776.592 158.056 780.157 Q159.885 783.698 163.496 783.698 Q167.13 783.698 168.936 780.157 Q170.764 776.592 170.764 769.486 Q170.764 762.356 168.936 758.814 Q167.13 755.25 163.496 755.25 M163.496 751.546 Q169.306 751.546 172.362 756.152 Q175.44 760.736 175.44 769.486 Q175.44 778.212 172.362 782.819 Q169.306 787.402 163.496 787.402 Q157.686 787.402 154.607 782.819 Q151.552 778.212 151.552 769.486 Q151.552 760.736 154.607 756.152 Q157.686 751.546 163.496 751.546 Z" fill="#000000" fill-rule="evenodd" fill-opacity="1" /><path clip-path="url(#clip480)" d="M 0 0 M191.088 767.587 Q187.94 767.587 186.088 769.74 Q184.26 771.893 184.26 775.643 Q184.26 779.37 186.088 781.546 Q187.94 783.698 191.088 783.698 Q194.237 783.698 196.065 781.546 Q197.917 779.37 197.917 775.643 Q197.917 771.893 196.065 769.74 Q194.237 767.587 191.088 767.587 M200.371 752.935 L200.371 757.194 Q198.612 756.361 196.806 755.921 Q195.024 755.481 193.264 755.481 Q188.635 755.481 186.181 758.606 Q183.751 761.731 183.403 768.05 Q184.769 766.037 186.829 764.972 Q188.889 763.884 191.366 763.884 Q196.575 763.884 199.584 767.055 Q202.616 770.203 202.616 775.643 Q202.616 780.967 199.468 784.185 Q196.32 787.402 191.088 787.402 Q185.093 787.402 181.922 782.819 Q178.751 778.212 178.751 769.486 Q178.751 761.291 182.639 756.43 Q186.528 751.546 193.079 751.546 Q194.838 751.546 196.621 751.893 Q198.426 752.24 200.371 752.935 Z" fill="#000000" fill-rule="evenodd" fill-opacity="1" /><path clip-path="url(#clip480)" d="M 0 0 M126.783 550.32 Q123.172 550.32 121.343 553.885 Q119.538 557.427 119.538 564.556 Q119.538 571.663 121.343 575.228 Q123.172 578.769 126.783 578.769 Q130.417 578.769 132.223 575.228 Q134.052 571.663 134.052 564.556 Q134.052 557.427 132.223 553.885 Q130.417 550.32 126.783 550.32 M126.783 546.617 Q132.593 546.617 135.649 551.223 Q138.728 555.806 138.728 564.556 Q138.728 573.283 135.649 577.89 Q132.593 582.473 126.783 582.473 Q120.973 582.473 117.894 577.89 Q114.839 573.283 114.839 564.556 Q114.839 555.806 117.894 551.223 Q120.973 546.617 126.783 546.617 Z" fill="#000000" fill-rule="evenodd" fill-opacity="1" /><path clip-path="url(#clip480)" d="M 0 0 M143.797 575.922 L148.681 575.922 L148.681 581.802 L143.797 581.802 L143.797 575.922 Z" fill="#000000" fill-rule="evenodd" fill-opacity="1" /><path clip-path="url(#clip480)" d="M 0 0 M163.751 550.32 Q160.14 550.32 158.311 553.885 Q156.505 557.427 156.505 564.556 Q156.505 571.663 158.311 575.228 Q160.14 578.769 163.751 578.769 Q167.385 578.769 169.19 575.228 Q171.019 571.663 171.019 564.556 Q171.019 557.427 169.19 553.885 Q167.385 550.32 163.751 550.32 M163.751 546.617 Q169.561 546.617 172.616 551.223 Q175.695 555.806 175.695 564.556 Q175.695 573.283 172.616 577.89 Q169.561 582.473 163.751 582.473 Q157.94 582.473 154.862 577.89 Q151.806 573.283 151.806 564.556 Q151.806 555.806 154.862 551.223 Q157.94 546.617 163.751 546.617 Z" fill="#000000" fill-rule="evenodd" fill-opacity="1" /><path clip-path="url(#clip480)" d="M 0 0 M190.764 565.39 Q187.431 565.39 185.51 567.172 Q183.612 568.955 183.612 572.08 Q183.612 575.205 185.51 576.987 Q187.431 578.769 190.764 578.769 Q194.098 578.769 196.019 576.987 Q197.94 575.181 197.94 572.08 Q197.94 568.955 196.019 567.172 Q194.121 565.39 190.764 565.39 M186.088 563.399 Q183.079 562.658 181.389 560.598 Q179.723 558.538 179.723 555.575 Q179.723 551.432 182.663 549.024 Q185.626 546.617 190.764 546.617 Q195.926 546.617 198.866 549.024 Q201.806 551.432 201.806 555.575 Q201.806 558.538 200.116 560.598 Q198.45 562.658 195.463 563.399 Q198.843 564.186 200.718 566.478 Q202.616 568.769 202.616 572.08 Q202.616 577.103 199.537 579.788 Q196.482 582.473 190.764 582.473 Q185.047 582.473 181.968 579.788 Q178.913 577.103 178.913 572.08 Q178.913 568.769 180.811 566.478 Q182.709 564.186 186.088 563.399 M184.376 556.015 Q184.376 558.7 186.042 560.205 Q187.732 561.709 190.764 561.709 Q193.774 561.709 195.463 560.205 Q197.176 558.7 197.176 556.015 Q197.176 553.33 195.463 551.825 Q193.774 550.32 190.764 550.32 Q187.732 550.32 186.042 551.825 Q184.376 553.33 184.376 556.015 Z" fill="#000000" fill-rule="evenodd" fill-opacity="1" /><path clip-path="url(#clip480)" d="M 0 0 M127.917 345.391 Q124.306 345.391 122.478 348.956 Q120.672 352.498 120.672 359.627 Q120.672 366.734 122.478 370.299 Q124.306 373.84 127.917 373.84 Q131.552 373.84 133.357 370.299 Q135.186 366.734 135.186 359.627 Q135.186 352.498 133.357 348.956 Q131.552 345.391 127.917 345.391 M127.917 341.688 Q133.728 341.688 136.783 346.294 Q139.862 350.877 139.862 359.627 Q139.862 368.354 136.783 372.961 Q133.728 377.544 127.917 377.544 Q122.107 377.544 119.029 372.961 Q115.973 368.354 115.973 359.627 Q115.973 350.877 119.029 346.294 Q122.107 341.688 127.917 341.688 Z" fill="#000000" fill-rule="evenodd" fill-opacity="1" /><path clip-path="url(#clip480)" d="M 0 0 M144.931 370.993 L149.816 370.993 L149.816 376.873 L144.931 376.873 L144.931 370.993 Z" fill="#000000" fill-rule="evenodd" fill-opacity="1" /><path clip-path="url(#clip480)" d="M 0 0 M155.695 372.937 L163.334 372.937 L163.334 346.572 L155.024 348.238 L155.024 343.979 L163.288 342.313 L167.964 342.313 L167.964 372.937 L175.602 372.937 L175.602 376.873 L155.695 376.873 L155.695 372.937 Z" fill="#000000" fill-rule="evenodd" fill-opacity="1" /><path clip-path="url(#clip480)" d="M 0 0 M190.672 345.391 Q187.061 345.391 185.232 348.956 Q183.426 352.498 183.426 359.627 Q183.426 366.734 185.232 370.299 Q187.061 373.84 190.672 373.84 Q194.306 373.84 196.112 370.299 Q197.94 366.734 197.94 359.627 Q197.94 352.498 196.112 348.956 Q194.306 345.391 190.672 345.391 M190.672 341.688 Q196.482 341.688 199.537 346.294 Q202.616 350.877 202.616 359.627 Q202.616 368.354 199.537 372.961 Q196.482 377.544 190.672 377.544 Q184.862 377.544 181.783 372.961 Q178.727 368.354 178.727 359.627 Q178.727 350.877 181.783 346.294 Q184.862 341.688 190.672 341.688 Z" fill="#000000" fill-rule="evenodd" fill-opacity="1" /><path clip-path="url(#clip480)" d="M 0 0 M129.515 140.462 Q125.904 140.462 124.075 144.027 Q122.269 147.569 122.269 154.698 Q122.269 161.805 124.075 165.369 Q125.904 168.911 129.515 168.911 Q133.149 168.911 134.954 165.369 Q136.783 161.805 136.783 154.698 Q136.783 147.569 134.954 144.027 Q133.149 140.462 129.515 140.462 M129.515 136.758 Q135.325 136.758 138.38 141.365 Q141.459 145.948 141.459 154.698 Q141.459 163.425 138.38 168.031 Q135.325 172.615 129.515 172.615 Q123.705 172.615 120.626 168.031 Q117.57 163.425 117.57 154.698 Q117.57 145.948 120.626 141.365 Q123.705 136.758 129.515 136.758 Z" fill="#000000" fill-rule="evenodd" fill-opacity="1" /><path clip-path="url(#clip480)" d="M 0 0 M146.529 166.064 L151.413 166.064 L151.413 171.943 L146.529 171.943 L146.529 166.064 Z" fill="#000000" fill-rule="evenodd" fill-opacity="1" /><path clip-path="url(#clip480)" d="M 0 0 M157.292 168.008 L164.931 168.008 L164.931 141.643 L156.621 143.309 L156.621 139.05 L164.885 137.383 L169.561 137.383 L169.561 168.008 L177.2 168.008 L177.2 171.943 L157.292 171.943 L157.292 168.008 Z" fill="#000000" fill-rule="evenodd" fill-opacity="1" /><path clip-path="url(#clip480)" d="M 0 0 M186.297 168.008 L202.616 168.008 L202.616 171.943 L180.672 171.943 L180.672 168.008 Q183.334 165.254 187.917 160.624 Q192.524 155.971 193.704 154.629 Q195.95 152.106 196.829 150.369 Q197.732 148.61 197.732 146.92 Q197.732 144.166 195.787 142.43 Q193.866 140.694 190.764 140.694 Q188.565 140.694 186.112 141.457 Q183.681 142.221 180.903 143.772 L180.903 139.05 Q183.727 137.916 186.181 137.337 Q188.635 136.758 190.672 136.758 Q196.042 136.758 199.237 139.444 Q202.431 142.129 202.431 146.62 Q202.431 148.749 201.621 150.67 Q200.834 152.569 198.727 155.161 Q198.149 155.832 195.047 159.05 Q191.945 162.244 186.297 168.008 Z" fill="#000000" fill-rule="evenodd" fill-opacity="1" /><path clip-path="url(#clip480)" d="M 0 0 M21.7677 777.544 L39.6235 777.544 L39.6235 769.459 Q39.6235 764.972 37.3 762.521 Q34.9765 760.07 30.6797 760.07 Q26.4147 760.07 24.0912 762.521 Q21.7677 764.972 21.7677 769.459 L21.7677 777.544 M16.4842 783.973 L16.4842 769.459 Q16.4842 761.471 20.1126 757.396 Q23.7092 753.291 30.6797 753.291 Q37.7138 753.291 41.3104 757.396 Q44.907 761.471 44.907 769.459 L44.907 777.544 L64.0042 777.544 L64.0042 783.973 L16.4842 783.973 Z" fill="#000000" fill-rule="evenodd" fill-opacity="1" /><path clip-path="url(#clip480)" d="M 0 0 M14.5426 733.079 Q21.8632 737.344 29.0246 739.413 Q36.186 741.482 43.5384 741.482 Q50.8908 741.482 58.1159 739.413 Q65.3091 737.313 72.5979 733.079 L72.5979 738.172 Q65.1182 742.946 57.8931 745.333 Q50.668 747.689 43.5384 747.689 Q36.4406 747.689 29.2474 745.333 Q22.0542 742.978 14.5426 738.172 L14.5426 733.079 Z" fill="#000000" fill-rule="evenodd" fill-opacity="1" /><path clip-path="url(#clip480)" d="M 0 0 M33.8307 706.28 Q33.2578 707.267 33.0032 708.444 Q32.7167 709.59 32.7167 710.99 Q32.7167 715.956 35.9632 718.629 Q39.1779 721.271 45.2253 721.271 L64.0042 721.271 L64.0042 727.159 L28.3562 727.159 L28.3562 721.271 L33.8944 721.271 Q30.6479 719.425 29.0883 716.465 Q27.4968 713.505 27.4968 709.272 Q27.4968 708.667 27.5923 707.935 Q27.656 707.203 27.8151 706.312 L33.8307 706.28 Z" fill="#000000" fill-rule="evenodd" fill-opacity="1" /><path clip-path="url(#clip480)" d="M 0 0 M14.5426 701.06 L14.5426 695.967 Q22.0542 691.193 29.2474 688.838 Q36.4406 686.451 43.5384 686.451 Q50.668 686.451 57.8931 688.838 Q65.1182 691.193 72.5979 695.967 L72.5979 701.06 Q65.3091 696.827 58.1159 694.758 Q50.8908 692.657 43.5384 692.657 Q36.186 692.657 29.0246 694.758 Q21.8632 696.827 14.5426 701.06 Z" fill="#000000" fill-rule="evenodd" fill-opacity="1" /><path clip-path="url(#clip482)" d="
M354.898 1383.68 L354.898 1384.24 L419.78 1384.24 L419.78 1383.68 L354.898 1383.68 L354.898 1383.68  Z
  " fill="#009af9" fill-rule="evenodd" fill-opacity="1"/>
<polyline clip-path="url(#clip482)" style="stroke:#009af9; stroke-width:4; stroke-opacity:1; fill:none" points="
  354.898,1383.68 354.898,1384.24 419.78,1384.24 419.78,1383.68 354.898,1383.68 
  "/>
<path clip-path="url(#clip482)" d="
M419.78 1379.46 L419.78 1384.24 L484.662 1384.24 L484.662 1379.46 L419.78 1379.46 L419.78 1379.46  Z
  " fill="#009af9" fill-rule="evenodd" fill-opacity="1"/>
<polyline clip-path="url(#clip482)" style="stroke:#009af9; stroke-width:4; stroke-opacity:1; fill:none" points="
  419.78,1379.46 419.78,1384.24 484.662,1384.24 484.662,1379.46 419.78,1379.46 
  "/>
<path clip-path="url(#clip482)" d="
M484.662 1361.62 L484.662 1384.24 L549.543 1384.24 L549.543 1361.62 L484.662 1361.62 L484.662 1361.62  Z
  " fill="#009af9" fill-rule="evenodd" fill-opacity="1"/>
<polyline clip-path="url(#clip482)" style="stroke:#009af9; stroke-width:4; stroke-opacity:1; fill:none" points="
  484.662,1361.62 484.662,1384.24 549.543,1384.24 549.543,1361.62 484.662,1361.62 
  "/>
<path clip-path="url(#clip482)" d="
M549.543 1307.02 L549.543 1384.24 L614.425 1384.24 L614.425 1307.02 L549.543 1307.02 L549.543 1307.02  Z
  " fill="#009af9" fill-rule="evenodd" fill-opacity="1"/>
<polyline clip-path="url(#clip482)" style="stroke:#009af9; stroke-width:4; stroke-opacity:1; fill:none" points="
  549.543,1307.02 549.543,1384.24 614.425,1384.24 614.425,1307.02 549.543,1307.02 
  "/>
<path clip-path="url(#clip482)" d="
M614.425 1187.21 L614.425 1384.24 L679.307 1384.24 L679.307 1187.21 L614.425 1187.21 L614.425 1187.21  Z
  " fill="#009af9" fill-rule="evenodd" fill-opacity="1"/>
<polyline clip-path="url(#clip482)" style="stroke:#009af9; stroke-width:4; stroke-opacity:1; fill:none" points="
  614.425,1187.21 614.425,1384.24 679.307,1384.24 679.307,1187.21 614.425,1187.21 
  "/>
<path clip-path="url(#clip482)" d="
M679.307 996.349 L679.307 1384.24 L744.189 1384.24 L744.189 996.349 L679.307 996.349 L679.307 996.349  Z
  " fill="#009af9" fill-rule="evenodd" fill-opacity="1"/>
<polyline clip-path="url(#clip482)" style="stroke:#009af9; stroke-width:4; stroke-opacity:1; fill:none" points="
  679.307,996.349 679.307,1384.24 744.189,1384.24 744.189,996.349 679.307,996.349 
  "/>
<path clip-path="url(#clip482)" d="
M744.189 739.121 L744.189 1384.24 L809.071 1384.24 L809.071 739.121 L744.189 739.121 L744.189 739.121  Z
  " fill="#009af9" fill-rule="evenodd" fill-opacity="1"/>
<polyline clip-path="url(#clip482)" style="stroke:#009af9; stroke-width:4; stroke-opacity:1; fill:none" points="
  744.189,739.121 744.189,1384.24 809.071,1384.24 809.071,739.121 744.189,739.121 
  "/>
<path clip-path="url(#clip482)" d="
M809.071 457.338 L809.071 1384.24 L873.953 1384.24 L873.953 457.338 L809.071 457.338 L809.071 457.338  Z
  " fill="#009af9" fill-rule="evenodd" fill-opacity="1"/>
<polyline clip-path="url(#clip482)" style="stroke:#009af9; stroke-width:4; stroke-opacity:1; fill:none" points="
  809.071,457.338 809.071,1384.24 873.953,1384.24 873.953,457.338 809.071,457.338 
  "/>
<path clip-path="url(#clip482)" d="
M873.953 234.07 L873.953 1384.24 L938.835 1384.24 L938.835 234.07 L873.953 234.07 L873.953 234.07  Z
  " fill="#009af9" fill-rule="evenodd" fill-opacity="1"/>
<polyline clip-path="url(#clip482)" style="stroke:#009af9; stroke-width:4; stroke-opacity:1; fill:none" points="
  873.953,234.07 873.953,1384.24 938.835,1384.24 938.835,234.07 873.953,234.07 
  "/>
<path clip-path="url(#clip482)" d="
M938.835 101.461 L938.835 1384.24 L1003.72 1384.24 L1003.72 101.461 L938.835 101.461 L938.835 101.461  Z
  " fill="#009af9" fill-rule="evenodd" fill-opacity="1"/>
<polyline clip-path="url(#clip482)" style="stroke:#009af9; stroke-width:4; stroke-opacity:1; fill:none" points="
  938.835,101.461 938.835,1384.24 1003.72,1384.24 1003.72,101.461 938.835,101.461 
  "/>
<path clip-path="url(#clip482)" d="
M1003.72 104.261 L1003.72 1384.24 L1068.6 1384.24 L1068.6 104.261 L1003.72 104.261 L1003.72 104.261  Z
  " fill="#009af9" fill-rule="evenodd" fill-opacity="1"/>
<polyline clip-path="url(#clip482)" style="stroke:#009af9; stroke-width:4; stroke-opacity:1; fill:none" points="
  1003.72,104.261 1003.72,1384.24 1068.6,1384.24 1068.6,104.261 1003.72,104.261 
  "/>
<path clip-path="url(#clip482)" d="
M1068.6 219.639 L1068.6 1384.24 L1133.48 1384.24 L1133.48 219.639 L1068.6 219.639 L1068.6 219.639  Z
  " fill="#009af9" fill-rule="evenodd" fill-opacity="1"/>
<polyline clip-path="url(#clip482)" style="stroke:#009af9; stroke-width:4; stroke-opacity:1; fill:none" points="
  1068.6,219.639 1068.6,1384.24 1133.48,1384.24 1133.48,219.639 1068.6,219.639 
  "/>
<path clip-path="url(#clip482)" d="
M1133.48 414.373 L1133.48 1384.24 L1198.36 1384.24 L1198.36 414.373 L1133.48 414.373 L1133.48 414.373  Z
  " fill="#009af9" fill-rule="evenodd" fill-opacity="1"/>
<polyline clip-path="url(#clip482)" style="stroke:#009af9; stroke-width:4; stroke-opacity:1; fill:none" points="
  1133.48,414.373 1133.48,1384.24 1198.36,1384.24 1198.36,414.373 1133.48,414.373 
  "/>
<path clip-path="url(#clip482)" d="
M1198.36 634.492 L1198.36 1384.24 L1263.25 1384.24 L1263.25 634.492 L1198.36 634.492 L1198.36 634.492  Z
  " fill="#009af9" fill-rule="evenodd" fill-opacity="1"/>
<polyline clip-path="url(#clip482)" style="stroke:#009af9; stroke-width:4; stroke-opacity:1; fill:none" points="
  1198.36,634.492 1198.36,1384.24 1263.25,1384.24 1263.25,634.492 1198.36,634.492 
  "/>
<path clip-path="url(#clip482)" d="
M1263.25 851.822 L1263.25 1384.24 L1328.13 1384.24 L1328.13 851.822 L1263.25 851.822 L1263.25 851.822  Z
  " fill="#009af9" fill-rule="evenodd" fill-opacity="1"/>
<polyline clip-path="url(#clip482)" style="stroke:#009af9; stroke-width:4; stroke-opacity:1; fill:none" points="
  1263.25,851.822 1263.25,1384.24 1328.13,1384.24 1328.13,851.822 1263.25,851.822 
  "/>
<path clip-path="url(#clip482)" d="
M1328.13 1028.32 L1328.13 1384.24 L1393.01 1384.24 L1393.01 1028.32 L1328.13 1028.32 L1328.13 1028.32  Z
  " fill="#009af9" fill-rule="evenodd" fill-opacity="1"/>
<polyline clip-path="url(#clip482)" style="stroke:#009af9; stroke-width:4; stroke-opacity:1; fill:none" points="
  1328.13,1028.32 1328.13,1384.24 1393.01,1384.24 1393.01,1028.32 1328.13,1028.32 
  "/>
<path clip-path="url(#clip482)" d="
M1393.01 1161.74 L1393.01 1384.24 L1457.89 1384.24 L1457.89 1161.74 L1393.01 1161.74 L1393.01 1161.74  Z
  " fill="#009af9" fill-rule="evenodd" fill-opacity="1"/>
<polyline clip-path="url(#clip482)" style="stroke:#009af9; stroke-width:4; stroke-opacity:1; fill:none" points="
  1393.01,1161.74 1393.01,1384.24 1457.89,1384.24 1457.89,1161.74 1393.01,1161.74 
  "/>
<path clip-path="url(#clip482)" d="
M1457.89 1255.01 L1457.89 1384.24 L1522.77 1384.24 L1522.77 1255.01 L1457.89 1255.01 L1457.89 1255.01  Z
  " fill="#009af9" fill-rule="evenodd" fill-opacity="1"/>
<polyline clip-path="url(#clip482)" style="stroke:#009af9; stroke-width:4; stroke-opacity:1; fill:none" points="
  1457.89,1255.01 1457.89,1384.24 1522.77,1384.24 1522.77,1255.01 1457.89,1255.01 
  "/>
<path clip-path="url(#clip482)" d="
M1522.77 1311.17 L1522.77 1384.24 L1587.65 1384.24 L1587.65 1311.17 L1522.77 1311.17 L1522.77 1311.17  Z
  " fill="#009af9" fill-rule="evenodd" fill-opacity="1"/>
<polyline clip-path="url(#clip482)" style="stroke:#009af9; stroke-width:4; stroke-opacity:1; fill:none" points="
  1522.77,1311.17 1522.77,1384.24 1587.65,1384.24 1587.65,1311.17 1522.77,1311.17 
  "/>
<path clip-path="url(#clip482)" d="
M1587.65 1345.51 L1587.65 1384.24 L1652.54 1384.24 L1652.54 1345.51 L1587.65 1345.51 L1587.65 1345.51  Z
  " fill="#009af9" fill-rule="evenodd" fill-opacity="1"/>
<polyline clip-path="url(#clip482)" style="stroke:#009af9; stroke-width:4; stroke-opacity:1; fill:none" points="
  1587.65,1345.51 1587.65,1384.24 1652.54,1384.24 1652.54,1345.51 1587.65,1345.51 
  "/>
<path clip-path="url(#clip482)" d="
M1652.54 1365.19 L1652.54 1384.24 L1717.42 1384.24 L1717.42 1365.19 L1652.54 1365.19 L1652.54 1365.19  Z
  " fill="#009af9" fill-rule="evenodd" fill-opacity="1"/>
<polyline clip-path="url(#clip482)" style="stroke:#009af9; stroke-width:4; stroke-opacity:1; fill:none" points="
  1652.54,1365.19 1652.54,1384.24 1717.42,1384.24 1717.42,1365.19 1652.54,1365.19 
  "/>
<path clip-path="url(#clip482)" d="
M1717.42 1375.01 L1717.42 1384.24 L1782.3 1384.24 L1782.3 1375.01 L1717.42 1375.01 L1717.42 1375.01  Z
  " fill="#009af9" fill-rule="evenodd" fill-opacity="1"/>
<polyline clip-path="url(#clip482)" style="stroke:#009af9; stroke-width:4; stroke-opacity:1; fill:none" points="
  1717.42,1375.01 1717.42,1384.24 1782.3,1384.24 1782.3,1375.01 1717.42,1375.01 
  "/>
<path clip-path="url(#clip482)" d="
M1782.3 1380.03 L1782.3 1384.24 L1847.18 1384.24 L1847.18 1380.03 L1782.3 1380.03 L1782.3 1380.03  Z
  " fill="#009af9" fill-rule="evenodd" fill-opacity="1"/>
<polyline clip-path="url(#clip482)" style="stroke:#009af9; stroke-width:4; stroke-opacity:1; fill:none" points="
  1782.3,1380.03 1782.3,1384.24 1847.18,1384.24 1847.18,1380.03 1782.3,1380.03 
  "/>
<path clip-path="url(#clip482)" d="
M1847.18 1382.6 L1847.18 1384.24 L1912.06 1384.24 L1912.06 1382.6 L1847.18 1382.6 L1847.18 1382.6  Z
  " fill="#009af9" fill-rule="evenodd" fill-opacity="1"/>
<polyline clip-path="url(#clip482)" style="stroke:#009af9; stroke-width:4; stroke-opacity:1; fill:none" points="
  1847.18,1382.6 1847.18,1384.24 1912.06,1384.24 1912.06,1382.6 1847.18,1382.6 
  "/>
<path clip-path="url(#clip482)" d="
M1912.06 1383.52 L1912.06 1384.24 L1976.95 1384.24 L1976.95 1383.52 L1912.06 1383.52 L1912.06 1383.52  Z
  " fill="#009af9" fill-rule="evenodd" fill-opacity="1"/>
<polyline clip-path="url(#clip482)" style="stroke:#009af9; stroke-width:4; stroke-opacity:1; fill:none" points="
  1912.06,1383.52 1912.06,1384.24 1976.95,1384.24 1976.95,1383.52 1912.06,1383.52 
  "/>
<path clip-path="url(#clip482)" d="
M1976.95 1383.96 L1976.95 1384.24 L2041.83 1384.24 L2041.83 1383.96 L1976.95 1383.96 L1976.95 1383.96  Z
  " fill="#009af9" fill-rule="evenodd" fill-opacity="1"/>
<polyline clip-path="url(#clip482)" style="stroke:#009af9; stroke-width:4; stroke-opacity:1; fill:none" points="
  1976.95,1383.96 1976.95,1384.24 2041.83,1384.24 2041.83,1383.96 1976.95,1383.96 
  "/>
<path clip-path="url(#clip482)" d="
M2041.83 1384.09 L2041.83 1384.24 L2106.71 1384.24 L2106.71 1384.09 L2041.83 1384.09 L2041.83 1384.09  Z
  " fill="#009af9" fill-rule="evenodd" fill-opacity="1"/>
<polyline clip-path="url(#clip482)" style="stroke:#009af9; stroke-width:4; stroke-opacity:1; fill:none" points="
  2041.83,1384.09 2041.83,1384.24 2106.71,1384.24 2106.71,1384.09 2041.83,1384.09 
  "/>
<path clip-path="url(#clip482)" d="
M2106.71 1384.19 L2106.71 1384.24 L2171.59 1384.24 L2171.59 1384.19 L2106.71 1384.19 L2106.71 1384.19  Z
  " fill="#009af9" fill-rule="evenodd" fill-opacity="1"/>
<polyline clip-path="url(#clip482)" style="stroke:#009af9; stroke-width:4; stroke-opacity:1; fill:none" points="
  2106.71,1384.19 2106.71,1384.24 2171.59,1384.24 2171.59,1384.19 2106.71,1384.19 
  "/>
<path clip-path="url(#clip482)" d="
M2171.59 1384.2 L2171.59 1384.24 L2236.47 1384.24 L2236.47 1384.2 L2171.59 1384.2 L2171.59 1384.2  Z
  " fill="#009af9" fill-rule="evenodd" fill-opacity="1"/>
<polyline clip-path="url(#clip482)" style="stroke:#009af9; stroke-width:4; stroke-opacity:1; fill:none" points="
  2171.59,1384.2 2171.59,1384.24 2236.47,1384.24 2236.47,1384.2 2171.59,1384.2 
  "/>
<polyline clip-path="url(#clip482)" style="stroke:#e26f46; stroke-width:12; stroke-opacity:1; fill:none" points="
  354.898,1375.53 361.386,1374.62 367.874,1373.62 374.362,1372.53 380.85,1371.35 387.339,1370.06 393.827,1368.65 400.315,1367.12 406.803,1365.46 413.291,1363.67 
  419.78,1361.72 426.268,1359.61 432.756,1357.33 439.244,1354.87 445.732,1352.22 452.221,1349.36 458.709,1346.28 465.197,1342.98 471.685,1339.43 478.173,1335.62 
  484.662,1331.55 491.15,1327.19 497.638,1322.53 504.126,1317.55 510.614,1312.25 517.103,1306.61 523.591,1300.6 530.079,1294.23 536.567,1287.46 543.055,1280.28 
  549.543,1272.69 556.032,1264.66 562.52,1256.18 569.008,1247.24 575.496,1237.82 581.984,1227.91 588.473,1217.49 594.961,1206.56 601.449,1195.1 607.937,1183.11 
  614.425,1170.56 620.914,1157.46 627.402,1143.8 633.89,1129.57 640.378,1114.77 646.866,1099.39 653.355,1083.44 659.843,1066.9 666.331,1049.8 672.819,1032.12 
  679.307,1013.89 685.796,995.092 692.284,975.753 698.772,955.882 705.26,935.493 711.748,914.603 718.237,893.232 724.725,871.402 731.213,849.137 737.701,826.463 
  744.189,803.409 750.678,780.008 757.166,756.291 763.654,732.296 770.142,708.06 776.63,683.625 783.119,659.032 789.607,634.326 796.095,609.554 802.583,584.763 
  809.071,560.003 815.56,535.326 822.048,510.784 828.536,486.43 835.024,462.32 841.512,438.509 848.001,415.053 854.489,392.007 860.977,369.429 867.465,347.374 
  873.953,325.899 880.441,305.059 886.93,284.908 893.418,265.501 899.906,246.888 906.394,229.122 912.882,212.251 919.371,196.322 925.859,181.38 932.347,167.467 
  938.835,154.624 945.323,142.887 951.812,132.29 958.3,122.865 964.788,114.64 971.276,107.638 977.764,101.88 984.253,97.3837 990.741,94.1626 997.229,92.226 
  1003.72,91.5798 1010.21,92.226 1016.69,94.1626 1023.18,97.3837 1029.67,101.88 1036.16,107.638 1042.65,114.64 1049.13,122.865 1055.62,132.29 1062.11,142.887 
  1068.6,154.624 1075.09,167.467 1081.58,181.38 1088.06,196.322 1094.55,212.251 1101.04,229.122 1107.53,246.888 1114.02,265.501 1120.5,284.908 1126.99,305.059 
  1133.48,325.899 1139.97,347.374 1146.46,369.429 1152.95,392.007 1159.43,415.053 1165.92,438.509 1172.41,462.32 1178.9,486.43 1185.39,510.784 1191.87,535.326 
  1198.36,560.003 1204.85,584.763 1211.34,609.554 1217.83,634.326 1224.32,659.032 1230.8,683.625 1237.29,708.06 1243.78,732.296 1250.27,756.291 1256.76,780.008 
  1263.25,803.409 1269.73,826.463 1276.22,849.137 1282.71,871.402 1289.2,893.232 1295.69,914.603 1302.17,935.493 1308.66,955.882 1315.15,975.753 1321.64,995.092 
  1328.13,1013.89 1334.62,1032.12 1341.1,1049.8 1347.59,1066.9 1354.08,1083.44 1360.57,1099.39 1367.06,1114.77 1373.54,1129.57 1380.03,1143.8 1386.52,1157.46 
  1393.01,1170.56 1399.5,1183.11 1405.99,1195.1 1412.47,1206.56 1418.96,1217.49 1425.45,1227.91 1431.94,1237.82 1438.43,1247.24 1444.91,1256.18 1451.4,1264.66 
  1457.89,1272.69 1464.38,1280.28 1470.87,1287.46 1477.36,1294.23 1483.84,1300.6 1490.33,1306.61 1496.82,1312.25 1503.31,1317.55 1509.8,1322.53 1516.28,1327.19 
  1522.77,1331.55 1529.26,1335.62 1535.75,1339.43 1542.24,1342.98 1548.73,1346.28 1555.21,1349.36 1561.7,1352.22 1568.19,1354.87 1574.68,1357.33 1581.17,1359.61 
  1587.65,1361.72 1594.14,1363.67 1600.63,1365.46 1607.12,1367.12 1613.61,1368.65 1620.1,1370.06 1626.58,1371.35 1633.07,1372.53 1639.56,1373.62 1646.05,1374.62 
  1652.54,1375.53 1659.03,1376.36 1665.51,1377.12 1672,1377.81 1678.49,1378.45 1684.98,1379.02 1691.47,1379.54 1697.95,1380.02 1704.44,1380.45 1710.93,1380.84 
  1717.42,1381.19 1723.91,1381.51 1730.4,1381.8 1736.88,1382.06 1743.37,1382.29 1749.86,1382.5 1756.35,1382.69 1762.84,1382.86 1769.32,1383.01 1775.81,1383.15 
  1782.3,1383.27 1788.79,1383.38 1795.28,1383.48 1801.77,1383.57 1808.25,1383.65 1814.74,1383.72 1821.23,1383.78 1827.72,1383.83 1834.21,1383.88 1840.69,1383.92 
  1847.18,1383.96 1853.67,1384 1860.16,1384.03 1866.65,1384.05 1873.14,1384.08 1879.62,1384.1 1886.11,1384.11 1892.6,1384.13 1899.09,1384.14 1905.58,1384.16 
  1912.06,1384.17 1918.55,1384.18 1925.04,1384.18 1931.53,1384.19 1938.02,1384.2 1944.51,1384.2 1950.99,1384.21 1957.48,1384.21 1963.97,1384.22 1970.46,1384.22 
  1976.95,1384.22 1983.43,1384.22 1989.92,1384.23 1996.41,1384.23 2002.9,1384.23 2009.39,1384.23 2015.88,1384.23 2022.36,1384.23 2028.85,1384.23 2035.34,1384.23 
  2041.83,1384.23 2048.32,1384.24 2054.8,1384.24 2061.29,1384.24 2067.78,1384.24 2074.27,1384.24 2080.76,1384.24 2087.25,1384.24 2093.73,1384.24 2100.22,1384.24 
  2106.71,1384.24 2113.2,1384.24 2119.69,1384.24 2126.18,1384.24 2132.66,1384.24 2139.15,1384.24 2145.64,1384.24 2152.13,1384.24 2158.62,1384.24 2165.1,1384.24 
  2171.59,1384.24 
  "/>
<polyline clip-path="url(#clip482)" style="stroke:#3da44d; stroke-width:12; stroke-opacity:1; fill:none" points="
  354.898,1383.77 361.386,1383.62 367.874,1383.44 374.362,1383.2 380.85,1382.92 387.339,1382.58 393.827,1382.17 400.315,1381.67 406.803,1381.09 413.291,1380.4 
  419.78,1379.59 426.268,1378.64 432.756,1377.55 439.244,1376.28 445.732,1374.83 452.221,1373.17 458.709,1371.28 465.197,1369.14 471.685,1366.73 478.173,1364.02 
  484.662,1360.98 491.15,1357.59 497.638,1353.82 504.126,1349.65 510.614,1345.04 517.103,1339.97 523.591,1334.41 530.079,1328.34 536.567,1321.71 543.055,1314.51 
  549.543,1306.71 556.032,1298.27 562.52,1289.19 569.008,1279.42 575.496,1268.96 581.984,1257.77 588.473,1245.84 594.961,1233.15 601.449,1219.69 607.937,1205.45 
  614.425,1190.41 620.914,1174.57 627.402,1157.93 633.89,1140.48 640.378,1122.24 646.866,1103.2 653.355,1083.37 659.843,1062.78 666.331,1041.44 672.819,1019.36 
  679.307,996.581 685.796,973.126 692.284,949.027 698.772,924.322 705.26,899.049 711.748,873.252 718.237,846.977 724.725,820.275 731.213,793.198 737.701,765.802 
  744.189,738.143 750.678,710.284 757.166,682.285 763.654,654.212 770.142,626.129 776.63,598.105 783.119,570.207 789.607,542.503 796.095,515.062 802.583,487.953 
  809.071,461.245 815.56,435.006 822.048,409.303 828.536,384.202 835.024,359.767 841.512,336.061 848.001,313.144 854.489,291.075 860.977,269.909 867.465,249.7 
  873.953,230.497 880.441,212.347 886.93,195.293 893.418,179.375 899.906,164.63 906.394,151.088 912.882,138.78 919.371,127.729 925.859,117.956 932.347,109.476 
  938.835,102.304 945.323,96.4457 951.812,91.9066 958.3,88.6867 964.788,86.7822 971.276,86.1857 977.764,86.8858 984.253,88.8677 990.741,92.113 997.229,96.6 
  1003.72,102.304 1010.21,109.196 1016.69,117.246 1023.18,126.421 1029.67,136.684 1036.16,147.998 1042.65,160.321 1049.13,173.612 1055.62,187.826 1062.11,202.919 
  1068.6,218.843 1075.09,235.552 1081.58,252.996 1088.06,271.126 1094.55,289.893 1101.04,309.246 1107.53,329.137 1114.02,349.515 1120.5,370.33 1126.99,391.533 
  1133.48,413.076 1139.97,434.91 1146.46,456.99 1152.95,479.269 1159.43,501.702 1165.92,524.245 1172.41,546.856 1178.9,569.495 1185.39,592.122 1191.87,614.699 
  1198.36,637.19 1204.85,659.561 1211.34,681.778 1217.83,703.81 1224.32,725.629 1230.8,747.206 1237.29,768.516 1243.78,789.535 1250.27,810.241 1256.76,830.613 
  1263.25,850.632 1269.73,870.282 1276.22,889.548 1282.71,908.414 1289.2,926.871 1295.69,944.906 1302.17,962.511 1308.66,979.678 1315.15,996.402 1321.64,1012.68 
  1328.13,1028.5 1334.62,1043.87 1341.1,1058.78 1347.59,1073.24 1354.08,1087.25 1360.57,1100.8 1367.06,1113.9 1373.54,1126.56 1380.03,1138.77 1386.52,1150.55 
  1393.01,1161.9 1399.5,1172.83 1405.99,1183.34 1412.47,1193.44 1418.96,1203.15 1425.45,1212.46 1431.94,1221.38 1438.43,1229.94 1444.91,1238.13 1451.4,1245.96 
  1457.89,1253.45 1464.38,1260.61 1470.87,1267.44 1477.36,1273.95 1483.84,1280.16 1490.33,1286.08 1496.82,1291.71 1503.31,1297.06 1509.8,1302.15 1516.28,1306.99 
  1522.77,1311.58 1529.26,1315.93 1535.75,1320.06 1542.24,1323.97 1548.73,1327.68 1555.21,1331.18 1561.7,1334.49 1568.19,1337.62 1574.68,1340.58 1581.17,1343.37 
  1587.65,1346 1594.14,1348.48 1600.63,1350.81 1607.12,1353.01 1613.61,1355.08 1620.1,1357.03 1626.58,1358.86 1633.07,1360.57 1639.56,1362.19 1646.05,1363.7 
  1652.54,1365.12 1659.03,1366.45 1665.51,1367.69 1672,1368.86 1678.49,1369.95 1684.98,1370.96 1691.47,1371.92 1697.95,1372.81 1704.44,1373.64 1710.93,1374.41 
  1717.42,1375.13 1723.91,1375.81 1730.4,1376.43 1736.88,1377.02 1743.37,1377.56 1749.86,1378.06 1756.35,1378.53 1762.84,1378.97 1769.32,1379.38 1775.81,1379.75 
  1782.3,1380.1 1788.79,1380.42 1795.28,1380.72 1801.77,1381 1808.25,1381.26 1814.74,1381.49 1821.23,1381.71 1827.72,1381.92 1834.21,1382.11 1840.69,1382.28 
  1847.18,1382.44 1853.67,1382.59 1860.16,1382.72 1866.65,1382.85 1873.14,1382.96 1879.62,1383.07 1886.11,1383.17 1892.6,1383.26 1899.09,1383.34 1905.58,1383.42 
  1912.06,1383.49 1918.55,1383.55 1925.04,1383.61 1931.53,1383.67 1938.02,1383.72 1944.51,1383.76 1950.99,1383.8 1957.48,1383.84 1963.97,1383.88 1970.46,1383.91 
  1976.95,1383.94 1983.43,1383.97 1989.92,1383.99 1996.41,1384.01 2002.9,1384.03 2009.39,1384.05 2015.88,1384.07 2022.36,1384.08 2028.85,1384.1 2035.34,1384.11 
  2041.83,1384.12 2048.32,1384.13 2054.8,1384.14 2061.29,1384.15 2067.78,1384.16 2074.27,1384.17 2080.76,1384.17 2087.25,1384.18 2093.73,1384.19 2100.22,1384.19 
  2106.71,1384.2 2113.2,1384.2 2119.69,1384.2 2126.18,1384.21 2132.66,1384.21 2139.15,1384.21 2145.64,1384.22 2152.13,1384.22 2158.62,1384.22 2165.1,1384.22 
  2171.59,1384.22 
  "/>
<path clip-path="url(#clip480)" d="
M1810.62 335.029 L2282.28 335.029 L2282.28 93.1086 L1810.62 93.1086  Z
  " fill="#ffffff" fill-rule="evenodd" fill-opacity="1"/>
<polyline clip-path="url(#clip480)" style="stroke:#000000; stroke-width:4; stroke-opacity:1; fill:none" points="
  1810.62,335.029 2282.28,335.029 2282.28,93.1086 1810.62,93.1086 1810.62,335.029 
  "/>
<path clip-path="url(#clip480)" d="
M1834.11 177.781 L1975.06 177.781 L1975.06 129.397 L1834.11 129.397 L1834.11 177.781  Z
  " fill="#009af9" fill-rule="evenodd" fill-opacity="1"/>
<polyline clip-path="url(#clip480)" style="stroke:#009af9; stroke-width:4; stroke-opacity:1; fill:none" points="
  1834.11,177.781 1975.06,177.781 1975.06,129.397 1834.11,129.397 1834.11,177.781 
  "/>
<path clip-path="url(#clip480)" d="M 0 0 M2012.39 173.276 Q2010.58 177.906 2008.87 179.318 Q2007.16 180.73 2004.29 180.73 L2000.88 180.73 L2000.88 177.165 L2003.38 177.165 Q2005.14 177.165 2006.12 176.332 Q2007.09 175.498 2008.27 172.396 L2009.03 170.452 L1998.55 144.943 L2003.06 144.943 L2011.16 165.221 L2019.26 144.943 L2023.78 144.943 L2012.39 173.276 Z" fill="#000000" fill-rule="evenodd" fill-opacity="1" /><path clip-path="url(#clip480)" d="M 0 0 M2029.66 166.933 L2037.3 166.933 L2037.3 140.568 L2028.99 142.235 L2028.99 137.975 L2037.25 136.309 L2041.93 136.309 L2041.93 166.933 L2049.56 166.933 L2049.56 170.869 L2029.66 170.869 L2029.66 166.933 Z" fill="#000000" fill-rule="evenodd" fill-opacity="1" /><polyline clip-path="url(#clip480)" style="stroke:#e26f46; stroke-width:4; stroke-opacity:1; fill:none" points="
  1834.11,214.069 1975.06,214.069 
  "/>
<path clip-path="url(#clip480)" d="M 0 0 M2017.46 218.085 Q2017.46 213.455 2015.54 210.909 Q2013.64 208.363 2010.19 208.363 Q2006.76 208.363 2004.84 210.909 Q2002.94 213.455 2002.94 218.085 Q2002.94 222.691 2004.84 225.238 Q2006.76 227.784 2010.19 227.784 Q2013.64 227.784 2015.54 225.238 Q2017.46 222.691 2017.46 218.085 M2021.72 228.131 Q2021.72 234.751 2018.78 237.969 Q2015.84 241.21 2009.77 241.21 Q2007.53 241.21 2005.54 240.862 Q2003.55 240.538 2001.67 239.844 L2001.67 235.7 Q2003.55 236.719 2005.37 237.205 Q2007.2 237.691 2009.1 237.691 Q2013.29 237.691 2015.37 235.492 Q2017.46 233.316 2017.46 228.895 L2017.46 226.788 Q2016.14 229.08 2014.08 230.214 Q2012.02 231.349 2009.15 231.349 Q2004.38 231.349 2001.46 227.714 Q1998.55 224.08 1998.55 218.085 Q1998.55 212.066 2001.46 208.432 Q2004.38 204.798 2009.15 204.798 Q2012.02 204.798 2014.08 205.932 Q2016.14 207.066 2017.46 209.358 L2017.46 205.423 L2021.72 205.423 L2021.72 228.131 Z" fill="#000000" fill-rule="evenodd" fill-opacity="1" /><path clip-path="url(#clip480)" d="M 0 0 M2037.97 218.316 Q2032.8 218.316 2030.81 219.497 Q2028.82 220.677 2028.82 223.525 Q2028.82 225.793 2030.3 227.136 Q2031.81 228.455 2034.38 228.455 Q2037.92 228.455 2040.05 225.955 Q2042.2 223.432 2042.2 219.265 L2042.2 218.316 L2037.97 218.316 M2046.46 216.557 L2046.46 231.349 L2042.2 231.349 L2042.2 227.413 Q2040.74 229.775 2038.57 230.909 Q2036.39 232.02 2033.24 232.02 Q2029.26 232.02 2026.9 229.798 Q2024.56 227.552 2024.56 223.802 Q2024.56 219.427 2027.48 217.205 Q2030.42 214.983 2036.23 214.983 L2042.2 214.983 L2042.2 214.566 Q2042.2 211.627 2040.26 210.029 Q2038.34 208.409 2034.84 208.409 Q2032.62 208.409 2030.51 208.941 Q2028.41 209.474 2026.46 210.539 L2026.46 206.603 Q2028.8 205.701 2031 205.261 Q2033.2 204.798 2035.28 204.798 Q2040.91 204.798 2043.68 207.714 Q2046.46 210.631 2046.46 216.557 Z" fill="#000000" fill-rule="evenodd" fill-opacity="1" /><path clip-path="url(#clip480)" d="M 0 0 M2050.49 221.117 L2050.49 205.423 L2054.75 205.423 L2054.75 220.955 Q2054.75 224.636 2056.18 226.488 Q2057.62 228.316 2060.49 228.316 Q2063.94 228.316 2065.93 226.117 Q2067.94 223.918 2067.94 220.122 L2067.94 205.423 L2072.2 205.423 L2072.2 231.349 L2067.94 231.349 L2067.94 227.367 Q2066.39 229.728 2064.33 230.886 Q2062.3 232.02 2059.59 232.02 Q2055.12 232.02 2052.8 229.242 Q2050.49 226.464 2050.49 221.117 M2061.21 204.798 L2061.21 204.798 Z" fill="#000000" fill-rule="evenodd" fill-opacity="1" /><path clip-path="url(#clip480)" d="M 0 0 M2093.2 206.187 L2093.2 210.214 Q2091.39 209.289 2089.45 208.826 Q2087.5 208.363 2085.42 208.363 Q2082.25 208.363 2080.65 209.335 Q2079.08 210.307 2079.08 212.251 Q2079.08 213.733 2080.21 214.589 Q2081.35 215.423 2084.77 216.187 L2086.23 216.511 Q2090.77 217.483 2092.67 219.265 Q2094.59 221.025 2094.59 224.196 Q2094.59 227.807 2091.72 229.913 Q2088.87 232.02 2083.87 232.02 Q2081.79 232.02 2079.52 231.603 Q2077.27 231.21 2074.77 230.4 L2074.77 226.001 Q2077.13 227.228 2079.42 227.853 Q2081.72 228.455 2083.96 228.455 Q2086.97 228.455 2088.59 227.437 Q2090.21 226.395 2090.21 224.52 Q2090.21 222.784 2089.03 221.858 Q2087.87 220.932 2083.92 220.076 L2082.43 219.728 Q2078.48 218.895 2076.72 217.182 Q2074.96 215.446 2074.96 212.437 Q2074.96 208.779 2077.55 206.789 Q2080.14 204.798 2084.91 204.798 Q2087.27 204.798 2089.36 205.145 Q2091.44 205.492 2093.2 206.187 Z" fill="#000000" fill-rule="evenodd" fill-opacity="1" /><path clip-path="url(#clip480)" d="M 0 0 M2115.58 206.187 L2115.58 210.214 Q2113.78 209.289 2111.83 208.826 Q2109.89 208.363 2107.8 208.363 Q2104.63 208.363 2103.04 209.335 Q2101.46 210.307 2101.46 212.251 Q2101.46 213.733 2102.6 214.589 Q2103.73 215.423 2107.16 216.187 L2108.61 216.511 Q2113.15 217.483 2115.05 219.265 Q2116.97 221.025 2116.97 224.196 Q2116.97 227.807 2114.1 229.913 Q2111.25 232.02 2106.25 232.02 Q2104.17 232.02 2101.9 231.603 Q2099.66 231.21 2097.16 230.4 L2097.16 226.001 Q2099.52 227.228 2101.81 227.853 Q2104.1 228.455 2106.35 228.455 Q2109.36 228.455 2110.98 227.437 Q2112.6 226.395 2112.6 224.52 Q2112.6 222.784 2111.42 221.858 Q2110.26 220.932 2106.3 220.076 L2104.82 219.728 Q2100.86 218.895 2099.1 217.182 Q2097.34 215.446 2097.34 212.437 Q2097.34 208.779 2099.93 206.789 Q2102.53 204.798 2107.3 204.798 Q2109.66 204.798 2111.74 205.145 Q2113.82 205.492 2115.58 206.187 Z" fill="#000000" fill-rule="evenodd" fill-opacity="1" /><path clip-path="url(#clip480)" d="M 0 0 M2121.44 205.423 L2125.7 205.423 L2125.7 231.349 L2121.44 231.349 L2121.44 205.423 M2121.44 195.33 L2125.7 195.33 L2125.7 200.724 L2121.44 200.724 L2121.44 195.33 Z" fill="#000000" fill-rule="evenodd" fill-opacity="1" /><path clip-path="url(#clip480)" d="M 0 0 M2141.95 218.316 Q2136.79 218.316 2134.79 219.497 Q2132.8 220.677 2132.8 223.525 Q2132.8 225.793 2134.29 227.136 Q2135.79 228.455 2138.36 228.455 Q2141.9 228.455 2144.03 225.955 Q2146.18 223.432 2146.18 219.265 L2146.18 218.316 L2141.95 218.316 M2150.44 216.557 L2150.44 231.349 L2146.18 231.349 L2146.18 227.413 Q2144.73 229.775 2142.55 230.909 Q2140.37 232.02 2137.23 232.02 Q2133.24 232.02 2130.88 229.798 Q2128.55 227.552 2128.55 223.802 Q2128.55 219.427 2131.46 217.205 Q2134.4 214.983 2140.21 214.983 L2146.18 214.983 L2146.18 214.566 Q2146.18 211.627 2144.24 210.029 Q2142.32 208.409 2138.82 208.409 Q2136.6 208.409 2134.49 208.941 Q2132.39 209.474 2130.44 210.539 L2130.44 206.603 Q2132.78 205.701 2134.98 205.261 Q2137.18 204.798 2139.26 204.798 Q2144.89 204.798 2147.67 207.714 Q2150.44 210.631 2150.44 216.557 Z" fill="#000000" fill-rule="evenodd" fill-opacity="1" /><path clip-path="url(#clip480)" d="M 0 0 M2176.46 215.701 L2176.46 231.349 L2172.2 231.349 L2172.2 215.839 Q2172.2 212.159 2170.77 210.33 Q2169.33 208.502 2166.46 208.502 Q2163.01 208.502 2161.02 210.701 Q2159.03 212.9 2159.03 216.696 L2159.03 231.349 L2154.75 231.349 L2154.75 205.423 L2159.03 205.423 L2159.03 209.451 Q2160.56 207.113 2162.62 205.955 Q2164.7 204.798 2167.41 204.798 Q2171.88 204.798 2174.17 207.576 Q2176.46 210.33 2176.46 215.701 Z" fill="#000000" fill-rule="evenodd" fill-opacity="1" /><path clip-path="url(#clip480)" d="M 0 0 M2209.12 195.33 L2209.12 198.872 L2205.05 198.872 Q2202.76 198.872 2201.85 199.798 Q2200.98 200.724 2200.98 203.131 L2200.98 205.423 L2207.99 205.423 L2207.99 208.733 L2200.98 208.733 L2200.98 231.349 L2196.69 231.349 L2196.69 208.733 L2192.62 208.733 L2192.62 205.423 L2196.69 205.423 L2196.69 203.617 Q2196.69 199.289 2198.71 197.321 Q2200.72 195.33 2205.1 195.33 L2209.12 195.33 Z" fill="#000000" fill-rule="evenodd" fill-opacity="1" /><path clip-path="url(#clip480)" d="M 0 0 M2213.59 205.423 L2217.85 205.423 L2217.85 231.349 L2213.59 231.349 L2213.59 205.423 M2213.59 195.33 L2217.85 195.33 L2217.85 200.724 L2213.59 200.724 L2213.59 195.33 Z" fill="#000000" fill-rule="evenodd" fill-opacity="1" /><path clip-path="url(#clip480)" d="M 0 0 M2226.53 198.062 L2226.53 205.423 L2235.3 205.423 L2235.3 208.733 L2226.53 208.733 L2226.53 222.807 Q2226.53 225.978 2227.39 226.881 Q2228.27 227.784 2230.93 227.784 L2235.3 227.784 L2235.3 231.349 L2230.93 231.349 Q2226 231.349 2224.12 229.52 Q2222.25 227.668 2222.25 222.807 L2222.25 208.733 L2219.12 208.733 L2219.12 205.423 L2222.25 205.423 L2222.25 198.062 L2226.53 198.062 Z" fill="#000000" fill-rule="evenodd" fill-opacity="1" /><polyline clip-path="url(#clip480)" style="stroke:#3da44d; stroke-width:4; stroke-opacity:1; fill:none" points="
  1834.11,274.549 1975.06,274.549 
  "/>
<path clip-path="url(#clip480)" d="M 0 0 M2002.83 287.94 L2002.83 301.69 L1998.55 301.69 L1998.55 265.903 L2002.83 265.903 L2002.83 269.838 Q2004.17 267.523 2006.21 266.412 Q2008.27 265.278 2011.12 265.278 Q2015.84 265.278 2018.78 269.028 Q2021.74 272.778 2021.74 278.889 Q2021.74 285 2018.78 288.75 Q2015.84 292.5 2011.12 292.5 Q2008.27 292.5 2006.21 291.389 Q2004.17 290.255 2002.83 287.94 M2017.32 278.889 Q2017.32 274.19 2015.37 271.528 Q2013.45 268.843 2010.07 268.843 Q2006.69 268.843 2004.75 271.528 Q2002.83 274.19 2002.83 278.889 Q2002.83 283.588 2004.75 286.273 Q2006.69 288.935 2010.07 288.935 Q2013.45 288.935 2015.37 286.273 Q2017.32 283.588 2017.32 278.889 Z" fill="#000000" fill-rule="evenodd" fill-opacity="1" /><path clip-path="url(#clip480)" d="M 0 0 M2036.25 268.889 Q2032.83 268.889 2030.84 271.574 Q2028.85 274.236 2028.85 278.889 Q2028.85 283.542 2030.81 286.227 Q2032.8 288.889 2036.25 288.889 Q2039.66 288.889 2041.65 286.204 Q2043.64 283.518 2043.64 278.889 Q2043.64 274.282 2041.65 271.597 Q2039.66 268.889 2036.25 268.889 M2036.25 265.278 Q2041.81 265.278 2044.98 268.889 Q2048.15 272.5 2048.15 278.889 Q2048.15 285.255 2044.98 288.889 Q2041.81 292.5 2036.25 292.5 Q2030.68 292.5 2027.5 288.889 Q2024.36 285.255 2024.36 278.889 Q2024.36 272.5 2027.5 268.889 Q2030.68 265.278 2036.25 265.278 Z" fill="#000000" fill-rule="evenodd" fill-opacity="1" /><path clip-path="url(#clip480)" d="M 0 0 M2052.62 265.903 L2056.88 265.903 L2056.88 291.829 L2052.62 291.829 L2052.62 265.903 M2052.62 255.81 L2056.88 255.81 L2056.88 261.204 L2052.62 261.204 L2052.62 255.81 Z" fill="#000000" fill-rule="evenodd" fill-opacity="1" /><path clip-path="url(#clip480)" d="M 0 0 M2077.87 266.667 L2077.87 270.694 Q2076.07 269.769 2074.12 269.306 Q2072.18 268.843 2070.1 268.843 Q2066.92 268.843 2065.33 269.815 Q2063.75 270.787 2063.75 272.731 Q2063.75 274.213 2064.89 275.069 Q2066.02 275.903 2069.45 276.667 L2070.91 276.991 Q2075.44 277.963 2077.34 279.745 Q2079.26 281.505 2079.26 284.676 Q2079.26 288.287 2076.39 290.393 Q2073.55 292.5 2068.55 292.5 Q2066.46 292.5 2064.19 292.083 Q2061.95 291.69 2059.45 290.88 L2059.45 286.481 Q2061.81 287.708 2064.1 288.333 Q2066.39 288.935 2068.64 288.935 Q2071.65 288.935 2073.27 287.917 Q2074.89 286.875 2074.89 285 Q2074.89 283.264 2073.71 282.338 Q2072.55 281.412 2068.59 280.556 L2067.11 280.208 Q2063.15 279.375 2061.39 277.662 Q2059.63 275.926 2059.63 272.917 Q2059.63 269.259 2062.23 267.269 Q2064.82 265.278 2069.59 265.278 Q2071.95 265.278 2074.03 265.625 Q2076.11 265.972 2077.87 266.667 Z" fill="#000000" fill-rule="evenodd" fill-opacity="1" /><path clip-path="url(#clip480)" d="M 0 0 M2100.26 266.667 L2100.26 270.694 Q2098.45 269.769 2096.51 269.306 Q2094.56 268.843 2092.48 268.843 Q2089.31 268.843 2087.71 269.815 Q2086.14 270.787 2086.14 272.731 Q2086.14 274.213 2087.27 275.069 Q2088.41 275.903 2091.83 276.667 L2093.29 276.991 Q2097.83 277.963 2099.73 279.745 Q2101.65 281.505 2101.65 284.676 Q2101.65 288.287 2098.78 290.393 Q2095.93 292.5 2090.93 292.5 Q2088.85 292.5 2086.58 292.083 Q2084.33 291.69 2081.83 290.88 L2081.83 286.481 Q2084.19 287.708 2086.49 288.333 Q2088.78 288.935 2091.02 288.935 Q2094.03 288.935 2095.65 287.917 Q2097.27 286.875 2097.27 285 Q2097.27 283.264 2096.09 282.338 Q2094.93 281.412 2090.98 280.556 L2089.49 280.208 Q2085.54 279.375 2083.78 277.662 Q2082.02 275.926 2082.02 272.917 Q2082.02 269.259 2084.61 267.269 Q2087.2 265.278 2091.97 265.278 Q2094.33 265.278 2096.42 265.625 Q2098.5 265.972 2100.26 266.667 Z" fill="#000000" fill-rule="evenodd" fill-opacity="1" /><path clip-path="url(#clip480)" d="M 0 0 M2116.16 268.889 Q2112.73 268.889 2110.74 271.574 Q2108.75 274.236 2108.75 278.889 Q2108.75 283.542 2110.72 286.227 Q2112.71 288.889 2116.16 288.889 Q2119.56 288.889 2121.55 286.204 Q2123.55 283.518 2123.55 278.889 Q2123.55 274.282 2121.55 271.597 Q2119.56 268.889 2116.16 268.889 M2116.16 265.278 Q2121.72 265.278 2124.89 268.889 Q2128.06 272.5 2128.06 278.889 Q2128.06 285.255 2124.89 288.889 Q2121.72 292.5 2116.16 292.5 Q2110.58 292.5 2107.41 288.889 Q2104.26 285.255 2104.26 278.889 Q2104.26 272.5 2107.41 268.889 Q2110.58 265.278 2116.16 265.278 Z" fill="#000000" fill-rule="evenodd" fill-opacity="1" /><path clip-path="url(#clip480)" d="M 0 0 M2154.08 276.181 L2154.08 291.829 L2149.82 291.829 L2149.82 276.319 Q2149.82 272.639 2148.38 270.81 Q2146.95 268.982 2144.08 268.982 Q2140.63 268.982 2138.64 271.181 Q2136.65 273.38 2136.65 277.176 L2136.65 291.829 L2132.36 291.829 L2132.36 265.903 L2136.65 265.903 L2136.65 269.931 Q2138.17 267.593 2140.23 266.435 Q2142.32 265.278 2145.03 265.278 Q2149.49 265.278 2151.79 268.056 Q2154.08 270.81 2154.08 276.181 Z" fill="#000000" fill-rule="evenodd" fill-opacity="1" /><path clip-path="url(#clip480)" d="M 0 0 M2186.74 255.81 L2186.74 259.352 L2182.67 259.352 Q2180.37 259.352 2179.47 260.278 Q2178.59 261.204 2178.59 263.611 L2178.59 265.903 L2185.6 265.903 L2185.6 269.213 L2178.59 269.213 L2178.59 291.829 L2174.31 291.829 L2174.31 269.213 L2170.23 269.213 L2170.23 265.903 L2174.31 265.903 L2174.31 264.097 Q2174.31 259.769 2176.32 257.801 Q2178.34 255.81 2182.71 255.81 L2186.74 255.81 Z" fill="#000000" fill-rule="evenodd" fill-opacity="1" /><path clip-path="url(#clip480)" d="M 0 0 M2191.21 265.903 L2195.47 265.903 L2195.47 291.829 L2191.21 291.829 L2191.21 265.903 M2191.21 255.81 L2195.47 255.81 L2195.47 261.204 L2191.21 261.204 L2191.21 255.81 Z" fill="#000000" fill-rule="evenodd" fill-opacity="1" /><path clip-path="url(#clip480)" d="M 0 0 M2204.15 258.542 L2204.15 265.903 L2212.92 265.903 L2212.92 269.213 L2204.15 269.213 L2204.15 283.287 Q2204.15 286.458 2205 287.361 Q2205.88 288.264 2208.54 288.264 L2212.92 288.264 L2212.92 291.829 L2208.54 291.829 Q2203.61 291.829 2201.74 290 Q2199.86 288.148 2199.86 283.287 L2199.86 269.213 L2196.74 269.213 L2196.74 265.903 L2199.86 265.903 L2199.86 258.542 L2204.15 258.542 Z" fill="#000000" fill-rule="evenodd" fill-opacity="1" /></svg>
