<?xml version="1.0" encoding="utf-8"?>
<svg xmlns="http://www.w3.org/2000/svg" xmlns:xlink="http://www.w3.org/1999/xlink" width="600" height="400" viewBox="0 0 2400 1600">
<defs>
  <clipPath id="clip450">
    <rect x="0" y="0" width="2400" height="1600"/>
  </clipPath>
</defs>
<path clip-path="url(#clip450)" d="
M0 1600 L2400 1600 L2400 0 L0 0  Z
  " fill="#ffffff" fill-rule="evenodd" fill-opacity="1"/>
<defs>
  <clipPath id="clip451">
    <rect x="480" y="0" width="1681" height="1600"/>
  </clipPath>
</defs>
<path clip-path="url(#clip450)" d="
M238.616 1423.18 L2352.76 1423.18 L2352.76 47.2441 L238.616 47.2441  Z
  " fill="#ffffff" fill-rule="evenodd" fill-opacity="1"/>
<defs>
  <clipPath id="clip452">
    <rect x="238" y="47" width="2115" height="1377"/>
  </clipPath>
</defs>
<polyline clip-path="url(#clip452)" style="stroke:#000000; stroke-width:2; stroke-opacity:0.1; fill:none" points="
  298.45,1423.18 298.45,47.2441 
  "/>
<polyline clip-path="url(#clip452)" style="stroke:#000000; stroke-width:2; stroke-opacity:0.1; fill:none" points="
  739.412,1423.18 739.412,47.2441 
  "/>
<polyline clip-path="url(#clip452)" style="stroke:#000000; stroke-width:2; stroke-opacity:0.1; fill:none" points="
  1180.37,1423.18 1180.37,47.2441 
  "/>
<polyline clip-path="url(#clip452)" style="stroke:#000000; stroke-width:2; stroke-opacity:0.1; fill:none" points="
  1621.34,1423.18 1621.34,47.2441 
  "/>
<polyline clip-path="url(#clip452)" style="stroke:#000000; stroke-width:2; stroke-opacity:0.1; fill:none" points="
  2062.3,1423.18 2062.3,47.2441 
  "/>
<polyline clip-path="url(#clip450)" style="stroke:#000000; stroke-width:4; stroke-opacity:1; fill:none" points="
  238.616,1423.18 2352.76,1423.18 
  "/>
<polyline clip-path="url(#clip450)" style="stroke:#000000; stroke-width:4; stroke-opacity:1; fill:none" points="
  298.45,1423.18 298.45,1406.67 
  "/>
<polyline clip-path="url(#clip450)" style="stroke:#000000; stroke-width:4; stroke-opacity:1; fill:none" points="
  739.412,1423.18 739.412,1406.67 
  "/>
<polyline clip-path="url(#clip450)" style="stroke:#000000; stroke-width:4; stroke-opacity:1; fill:none" points="
  1180.37,1423.18 1180.37,1406.67 
  "/>
<polyline clip-path="url(#clip450)" style="stroke:#000000; stroke-width:4; stroke-opacity:1; fill:none" points="
  1621.34,1423.18 1621.34,1406.67 
  "/>
<polyline clip-path="url(#clip450)" style="stroke:#000000; stroke-width:4; stroke-opacity:1; fill:none" points="
  2062.3,1423.18 2062.3,1406.67 
  "/>
<path clip-path="url(#clip450)" d="M 0 0 M298.45 1452.37 Q294.839 1452.37 293.011 1455.94 Q291.205 1459.48 291.205 1466.61 Q291.205 1473.71 293.011 1477.28 Q294.839 1480.82 298.45 1480.82 Q302.085 1480.82 303.89 1477.28 Q305.719 1473.71 305.719 1466.61 Q305.719 1459.48 303.89 1455.94 Q302.085 1452.37 298.45 1452.37 M298.45 1448.67 Q304.26 1448.67 307.316 1453.27 Q310.395 1457.86 310.395 1466.61 Q310.395 1475.33 307.316 1479.94 Q304.26 1484.52 298.45 1484.52 Q292.64 1484.52 289.561 1479.94 Q286.506 1475.33 286.506 1466.61 Q286.506 1457.86 289.561 1453.27 Q292.64 1448.67 298.45 1448.67 Z" fill="#000000" fill-rule="evenodd" fill-opacity="1" /><path clip-path="url(#clip450)" d="M 0 0 M716.288 1479.92 L723.926 1479.92 L723.926 1453.55 L715.616 1455.22 L715.616 1450.96 L723.88 1449.29 L728.556 1449.29 L728.556 1479.92 L736.195 1479.92 L736.195 1483.85 L716.288 1483.85 L716.288 1479.92 Z" fill="#000000" fill-rule="evenodd" fill-opacity="1" /><path clip-path="url(#clip450)" d="M 0 0 M751.264 1452.37 Q747.653 1452.37 745.824 1455.94 Q744.019 1459.48 744.019 1466.61 Q744.019 1473.71 745.824 1477.28 Q747.653 1480.82 751.264 1480.82 Q754.898 1480.82 756.704 1477.28 Q758.533 1473.71 758.533 1466.61 Q758.533 1459.48 756.704 1455.94 Q754.898 1452.37 751.264 1452.37 M751.264 1448.67 Q757.074 1448.67 760.13 1453.27 Q763.209 1457.86 763.209 1466.61 Q763.209 1475.33 760.13 1479.94 Q757.074 1484.52 751.264 1484.52 Q745.454 1484.52 742.375 1479.94 Q739.32 1475.33 739.32 1466.61 Q739.32 1457.86 742.375 1453.27 Q745.454 1448.67 751.264 1448.67 Z" fill="#000000" fill-rule="evenodd" fill-opacity="1" /><path clip-path="url(#clip450)" d="M 0 0 M1161.52 1479.92 L1177.84 1479.92 L1177.84 1483.85 L1155.9 1483.85 L1155.9 1479.92 Q1158.56 1477.16 1163.14 1472.53 Q1167.75 1467.88 1168.93 1466.54 Q1171.17 1464.01 1172.05 1462.28 Q1172.96 1460.52 1172.96 1458.83 Q1172.96 1456.07 1171.01 1454.34 Q1169.09 1452.6 1165.99 1452.6 Q1163.79 1452.6 1161.34 1453.37 Q1158.9 1454.13 1156.13 1455.68 L1156.13 1450.96 Q1158.95 1449.82 1161.4 1449.25 Q1163.86 1448.67 1165.9 1448.67 Q1171.27 1448.67 1174.46 1451.35 Q1177.65 1454.04 1177.65 1458.53 Q1177.65 1460.66 1176.84 1462.58 Q1176.06 1464.48 1173.95 1467.07 Q1173.37 1467.74 1170.27 1470.96 Q1167.17 1474.15 1161.52 1479.92 Z" fill="#000000" fill-rule="evenodd" fill-opacity="1" /><path clip-path="url(#clip450)" d="M 0 0 M1192.91 1452.37 Q1189.3 1452.37 1187.47 1455.94 Q1185.66 1459.48 1185.66 1466.61 Q1185.66 1473.71 1187.47 1477.28 Q1189.3 1480.82 1192.91 1480.82 Q1196.54 1480.82 1198.35 1477.28 Q1200.18 1473.71 1200.18 1466.61 Q1200.18 1459.48 1198.35 1455.94 Q1196.54 1452.37 1192.91 1452.37 M1192.91 1448.67 Q1198.72 1448.67 1201.77 1453.27 Q1204.85 1457.86 1204.85 1466.61 Q1204.85 1475.33 1201.77 1479.94 Q1198.72 1484.52 1192.91 1484.52 Q1187.1 1484.52 1184.02 1479.94 Q1180.96 1475.33 1180.96 1466.61 Q1180.96 1457.86 1184.02 1453.27 Q1187.1 1448.67 1192.91 1448.67 Z" fill="#000000" fill-rule="evenodd" fill-opacity="1" /><path clip-path="url(#clip450)" d="M 0 0 M1612.08 1465.22 Q1615.43 1465.94 1617.31 1468.2 Q1619.21 1470.47 1619.21 1473.81 Q1619.21 1478.92 1615.69 1481.72 Q1612.17 1484.52 1605.69 1484.52 Q1603.51 1484.52 1601.2 1484.08 Q1598.91 1483.67 1596.45 1482.81 L1596.45 1478.3 Q1598.4 1479.43 1600.71 1480.01 Q1603.03 1480.59 1605.55 1480.59 Q1609.95 1480.59 1612.24 1478.85 Q1614.55 1477.12 1614.55 1473.81 Q1614.55 1470.75 1612.4 1469.04 Q1610.27 1467.3 1606.45 1467.3 L1602.42 1467.3 L1602.42 1463.46 L1606.64 1463.46 Q1610.09 1463.46 1611.92 1462.09 Q1613.74 1460.7 1613.74 1458.11 Q1613.74 1455.45 1611.85 1454.04 Q1609.97 1452.6 1606.45 1452.6 Q1604.53 1452.6 1602.33 1453.02 Q1600.13 1453.44 1597.49 1454.31 L1597.49 1450.15 Q1600.16 1449.41 1602.47 1449.04 Q1604.81 1448.67 1606.87 1448.67 Q1612.19 1448.67 1615.29 1451.1 Q1618.4 1453.5 1618.4 1457.63 Q1618.4 1460.5 1616.75 1462.49 Q1615.11 1464.45 1612.08 1465.22 Z" fill="#000000" fill-rule="evenodd" fill-opacity="1" /><path clip-path="url(#clip450)" d="M 0 0 M1634.28 1452.37 Q1630.67 1452.37 1628.84 1455.94 Q1627.03 1459.48 1627.03 1466.61 Q1627.03 1473.71 1628.84 1477.28 Q1630.67 1480.82 1634.28 1480.82 Q1637.91 1480.82 1639.72 1477.28 Q1641.54 1473.71 1641.54 1466.61 Q1641.54 1459.48 1639.72 1455.94 Q1637.91 1452.37 1634.28 1452.37 M1634.28 1448.67 Q1640.09 1448.67 1643.14 1453.27 Q1646.22 1457.86 1646.22 1466.61 Q1646.22 1475.33 1643.14 1479.94 Q1640.09 1484.52 1634.28 1484.52 Q1628.47 1484.52 1625.39 1479.94 Q1622.33 1475.33 1622.33 1466.61 Q1622.33 1457.86 1625.39 1453.27 Q1628.47 1448.67 1634.28 1448.67 Z" fill="#000000" fill-rule="evenodd" fill-opacity="1" /><path clip-path="url(#clip450)" d="M 0 0 M2051.8 1453.37 L2040 1471.81 L2051.8 1471.81 L2051.8 1453.37 M2050.57 1449.29 L2056.45 1449.29 L2056.45 1471.81 L2061.38 1471.81 L2061.38 1475.7 L2056.45 1475.7 L2056.45 1483.85 L2051.8 1483.85 L2051.8 1475.7 L2036.2 1475.7 L2036.2 1471.19 L2050.57 1449.29 Z" fill="#000000" fill-rule="evenodd" fill-opacity="1" /><path clip-path="url(#clip450)" d="M 0 0 M2076.45 1452.37 Q2072.84 1452.37 2071.01 1455.94 Q2069.21 1459.48 2069.21 1466.61 Q2069.21 1473.71 2071.01 1477.28 Q2072.84 1480.82 2076.45 1480.82 Q2080.09 1480.82 2081.89 1477.28 Q2083.72 1473.71 2083.72 1466.61 Q2083.72 1459.48 2081.89 1455.94 Q2080.09 1452.37 2076.45 1452.37 M2076.45 1448.67 Q2082.26 1448.67 2085.32 1453.27 Q2088.4 1457.86 2088.4 1466.61 Q2088.4 1475.33 2085.32 1479.94 Q2082.26 1484.52 2076.45 1484.52 Q2070.64 1484.52 2067.56 1479.94 Q2064.51 1475.33 2064.51 1466.61 Q2064.51 1457.86 2067.56 1453.27 Q2070.64 1448.67 2076.45 1448.67 Z" fill="#000000" fill-rule="evenodd" fill-opacity="1" /><path clip-path="url(#clip450)" d="M 0 0 M1306.13 1537.87 Q1305.14 1537.3 1303.96 1537.04 Q1302.82 1536.76 1301.42 1536.76 Q1296.45 1536.76 1293.78 1540 Q1291.13 1543.22 1291.13 1549.27 L1291.13 1568.04 L1285.25 1568.04 L1285.25 1532.4 L1291.13 1532.4 L1291.13 1537.93 Q1292.98 1534.69 1295.94 1533.13 Q1298.9 1531.54 1303.13 1531.54 Q1303.74 1531.54 1304.47 1531.63 Q1305.2 1531.7 1306.09 1531.85 L1306.13 1537.87 Z" fill="#000000" fill-rule="evenodd" fill-opacity="1" /><polyline clip-path="url(#clip452)" style="stroke:#000000; stroke-width:2; stroke-opacity:0.1; fill:none" points="
  238.616,1384.24 2352.76,1384.24 
  "/>
<polyline clip-path="url(#clip452)" style="stroke:#000000; stroke-width:2; stroke-opacity:0.1; fill:none" points="
  238.616,1094.23 2352.76,1094.23 
  "/>
<polyline clip-path="url(#clip452)" style="stroke:#000000; stroke-width:2; stroke-opacity:0.1; fill:none" points="
  238.616,804.224 2352.76,804.224 
  "/>
<polyline clip-path="url(#clip452)" style="stroke:#000000; stroke-width:2; stroke-opacity:0.1; fill:none" points="
  238.616,514.216 2352.76,514.216 
  "/>
<polyline clip-path="url(#clip452)" style="stroke:#000000; stroke-width:2; stroke-opacity:0.1; fill:none" points="
  238.616,224.209 2352.76,224.209 
  "/>
<polyline clip-path="url(#clip450)" style="stroke:#000000; stroke-width:4; stroke-opacity:1; fill:none" points="
  238.616,1423.18 238.616,47.2441 
  "/>
<polyline clip-path="url(#clip450)" style="stroke:#000000; stroke-width:4; stroke-opacity:1; fill:none" points="
  238.616,1384.24 263.986,1384.24 
  "/>
<polyline clip-path="url(#clip450)" style="stroke:#000000; stroke-width:4; stroke-opacity:1; fill:none" points="
  238.616,1094.23 263.986,1094.23 
  "/>
<polyline clip-path="url(#clip450)" style="stroke:#000000; stroke-width:4; stroke-opacity:1; fill:none" points="
  238.616,804.224 263.986,804.224 
  "/>
<polyline clip-path="url(#clip450)" style="stroke:#000000; stroke-width:4; stroke-opacity:1; fill:none" points="
  238.616,514.216 263.986,514.216 
  "/>
<polyline clip-path="url(#clip450)" style="stroke:#000000; stroke-width:4; stroke-opacity:1; fill:none" points="
  238.616,224.209 263.986,224.209 
  "/>
<path clip-path="url(#clip450)" d="M 0 0 M126.691 1370.04 Q123.08 1370.04 121.251 1373.6 Q119.445 1377.14 119.445 1384.27 Q119.445 1391.38 121.251 1394.94 Q123.08 1398.49 126.691 1398.49 Q130.325 1398.49 132.13 1394.94 Q133.959 1391.38 133.959 1384.27 Q133.959 1377.14 132.13 1373.6 Q130.325 1370.04 126.691 1370.04 M126.691 1366.33 Q132.501 1366.33 135.556 1370.94 Q138.635 1375.52 138.635 1384.27 Q138.635 1393 135.556 1397.61 Q132.501 1402.19 126.691 1402.19 Q120.88 1402.19 117.802 1397.61 Q114.746 1393 114.746 1384.27 Q114.746 1375.52 117.802 1370.94 Q120.88 1366.33 126.691 1366.33 Z" fill="#000000" fill-rule="evenodd" fill-opacity="1" /><path clip-path="url(#clip450)" d="M 0 0 M143.704 1395.64 L148.589 1395.64 L148.589 1401.52 L143.704 1401.52 L143.704 1395.64 Z" fill="#000000" fill-rule="evenodd" fill-opacity="1" /><path clip-path="url(#clip450)" d="M 0 0 M163.658 1370.04 Q160.047 1370.04 158.218 1373.6 Q156.413 1377.14 156.413 1384.27 Q156.413 1391.38 158.218 1394.94 Q160.047 1398.49 163.658 1398.49 Q167.292 1398.49 169.098 1394.94 Q170.927 1391.38 170.927 1384.27 Q170.927 1377.14 169.098 1373.6 Q167.292 1370.04 163.658 1370.04 M163.658 1366.33 Q169.468 1366.33 172.524 1370.94 Q175.602 1375.52 175.602 1384.27 Q175.602 1393 172.524 1397.61 Q169.468 1402.19 163.658 1402.19 Q157.848 1402.19 154.769 1397.61 Q151.714 1393 151.714 1384.27 Q151.714 1375.52 154.769 1370.94 Q157.848 1366.33 163.658 1366.33 Z" fill="#000000" fill-rule="evenodd" fill-opacity="1" /><path clip-path="url(#clip450)" d="M 0 0 M190.672 1370.04 Q187.061 1370.04 185.232 1373.6 Q183.426 1377.14 183.426 1384.27 Q183.426 1391.38 185.232 1394.94 Q187.061 1398.49 190.672 1398.49 Q194.306 1398.49 196.112 1394.94 Q197.94 1391.38 197.94 1384.27 Q197.94 1377.14 196.112 1373.6 Q194.306 1370.04 190.672 1370.04 M190.672 1366.33 Q196.482 1366.33 199.537 1370.94 Q202.616 1375.52 202.616 1384.27 Q202.616 1393 199.537 1397.61 Q196.482 1402.19 190.672 1402.19 Q184.862 1402.19 181.783 1397.61 Q178.727 1393 178.727 1384.27 Q178.727 1375.52 181.783 1370.94 Q184.862 1366.33 190.672 1366.33 Z" fill="#000000" fill-rule="evenodd" fill-opacity="1" /><path clip-path="url(#clip450)" d="M 0 0 M128.288 1080.03 Q124.677 1080.03 122.848 1083.59 Q121.043 1087.14 121.043 1094.27 Q121.043 1101.37 122.848 1104.94 Q124.677 1108.48 128.288 1108.48 Q131.922 1108.48 133.728 1104.94 Q135.556 1101.37 135.556 1094.27 Q135.556 1087.14 133.728 1083.59 Q131.922 1080.03 128.288 1080.03 M128.288 1076.33 Q134.098 1076.33 137.154 1080.93 Q140.232 1085.52 140.232 1094.27 Q140.232 1102.99 137.154 1107.6 Q134.098 1112.18 128.288 1112.18 Q122.478 1112.18 119.399 1107.6 Q116.343 1102.99 116.343 1094.27 Q116.343 1085.52 119.399 1080.93 Q122.478 1076.33 128.288 1076.33 Z" fill="#000000" fill-rule="evenodd" fill-opacity="1" /><path clip-path="url(#clip450)" d="M 0 0 M145.302 1105.63 L150.186 1105.63 L150.186 1111.51 L145.302 1111.51 L145.302 1105.63 Z" fill="#000000" fill-rule="evenodd" fill-opacity="1" /><path clip-path="url(#clip450)" d="M 0 0 M165.255 1080.03 Q161.644 1080.03 159.815 1083.59 Q158.01 1087.14 158.01 1094.27 Q158.01 1101.37 159.815 1104.94 Q161.644 1108.48 165.255 1108.48 Q168.889 1108.48 170.695 1104.94 Q172.524 1101.37 172.524 1094.27 Q172.524 1087.14 170.695 1083.59 Q168.889 1080.03 165.255 1080.03 M165.255 1076.33 Q171.065 1076.33 174.121 1080.93 Q177.2 1085.52 177.2 1094.27 Q177.2 1102.99 174.121 1107.6 Q171.065 1112.18 165.255 1112.18 Q159.445 1112.18 156.366 1107.6 Q153.311 1102.99 153.311 1094.27 Q153.311 1085.52 156.366 1080.93 Q159.445 1076.33 165.255 1076.33 Z" fill="#000000" fill-rule="evenodd" fill-opacity="1" /><path clip-path="url(#clip450)" d="M 0 0 M186.297 1107.58 L202.616 1107.58 L202.616 1111.51 L180.672 1111.51 L180.672 1107.58 Q183.334 1104.82 187.917 1100.19 Q192.524 1095.54 193.704 1094.2 Q195.95 1091.67 196.829 1089.94 Q197.732 1088.18 197.732 1086.49 Q197.732 1083.73 195.787 1082 Q193.866 1080.26 190.764 1080.26 Q188.565 1080.26 186.112 1081.02 Q183.681 1081.79 180.903 1083.34 L180.903 1078.62 Q183.727 1077.48 186.181 1076.9 Q188.635 1076.33 190.672 1076.33 Q196.042 1076.33 199.237 1079.01 Q202.431 1081.7 202.431 1086.19 Q202.431 1088.32 201.621 1090.24 Q200.834 1092.14 198.727 1094.73 Q198.149 1095.4 195.047 1098.62 Q191.945 1101.81 186.297 1107.58 Z" fill="#000000" fill-rule="evenodd" fill-opacity="1" /><path clip-path="url(#clip450)" d="M 0 0 M126.205 790.022 Q122.593 790.022 120.765 793.587 Q118.959 797.129 118.959 804.258 Q118.959 811.365 120.765 814.93 Q122.593 818.471 126.205 818.471 Q129.839 818.471 131.644 814.93 Q133.473 811.365 133.473 804.258 Q133.473 797.129 131.644 793.587 Q129.839 790.022 126.205 790.022 M126.205 786.319 Q132.015 786.319 135.07 790.925 Q138.149 795.508 138.149 804.258 Q138.149 812.985 135.07 817.592 Q132.015 822.175 126.205 822.175 Q120.394 822.175 117.316 817.592 Q114.26 812.985 114.26 804.258 Q114.26 795.508 117.316 790.925 Q120.394 786.319 126.205 786.319 Z" fill="#000000" fill-rule="evenodd" fill-opacity="1" /><path clip-path="url(#clip450)" d="M 0 0 M143.218 815.624 L148.103 815.624 L148.103 821.504 L143.218 821.504 L143.218 815.624 Z" fill="#000000" fill-rule="evenodd" fill-opacity="1" /><path clip-path="url(#clip450)" d="M 0 0 M163.172 790.022 Q159.561 790.022 157.732 793.587 Q155.927 797.129 155.927 804.258 Q155.927 811.365 157.732 814.93 Q159.561 818.471 163.172 818.471 Q166.806 818.471 168.612 814.93 Q170.44 811.365 170.44 804.258 Q170.44 797.129 168.612 793.587 Q166.806 790.022 163.172 790.022 M163.172 786.319 Q168.982 786.319 172.038 790.925 Q175.116 795.508 175.116 804.258 Q175.116 812.985 172.038 817.592 Q168.982 822.175 163.172 822.175 Q157.362 822.175 154.283 817.592 Q151.228 812.985 151.228 804.258 Q151.228 795.508 154.283 790.925 Q157.362 786.319 163.172 786.319 Z" fill="#000000" fill-rule="evenodd" fill-opacity="1" /><path clip-path="url(#clip450)" d="M 0 0 M193.033 791.018 L181.227 809.467 L193.033 809.467 L193.033 791.018 M191.806 786.944 L197.686 786.944 L197.686 809.467 L202.616 809.467 L202.616 813.356 L197.686 813.356 L197.686 821.504 L193.033 821.504 L193.033 813.356 L177.431 813.356 L177.431 808.842 L191.806 786.944 Z" fill="#000000" fill-rule="evenodd" fill-opacity="1" /><path clip-path="url(#clip450)" d="M 0 0 M126.529 500.015 Q122.918 500.015 121.089 503.58 Q119.283 507.121 119.283 514.251 Q119.283 521.357 121.089 524.922 Q122.918 528.464 126.529 528.464 Q130.163 528.464 131.968 524.922 Q133.797 521.357 133.797 514.251 Q133.797 507.121 131.968 503.58 Q130.163 500.015 126.529 500.015 M126.529 496.311 Q132.339 496.311 135.394 500.918 Q138.473 505.501 138.473 514.251 Q138.473 522.978 135.394 527.584 Q132.339 532.168 126.529 532.168 Q120.718 532.168 117.64 527.584 Q114.584 522.978 114.584 514.251 Q114.584 505.501 117.64 500.918 Q120.718 496.311 126.529 496.311 Z" fill="#000000" fill-rule="evenodd" fill-opacity="1" /><path clip-path="url(#clip450)" d="M 0 0 M143.542 525.617 L148.427 525.617 L148.427 531.496 L143.542 531.496 L143.542 525.617 Z" fill="#000000" fill-rule="evenodd" fill-opacity="1" /><path clip-path="url(#clip450)" d="M 0 0 M163.496 500.015 Q159.885 500.015 158.056 503.58 Q156.251 507.121 156.251 514.251 Q156.251 521.357 158.056 524.922 Q159.885 528.464 163.496 528.464 Q167.13 528.464 168.936 524.922 Q170.764 521.357 170.764 514.251 Q170.764 507.121 168.936 503.58 Q167.13 500.015 163.496 500.015 M163.496 496.311 Q169.306 496.311 172.362 500.918 Q175.44 505.501 175.44 514.251 Q175.44 522.978 172.362 527.584 Q169.306 532.168 163.496 532.168 Q157.686 532.168 154.607 527.584 Q151.552 522.978 151.552 514.251 Q151.552 505.501 154.607 500.918 Q157.686 496.311 163.496 496.311 Z" fill="#000000" fill-rule="evenodd" fill-opacity="1" /><path clip-path="url(#clip450)" d="M 0 0 M191.088 512.353 Q187.94 512.353 186.088 514.506 Q184.26 516.658 184.26 520.408 Q184.26 524.135 186.088 526.311 Q187.94 528.464 191.088 528.464 Q194.237 528.464 196.065 526.311 Q197.917 524.135 197.917 520.408 Q197.917 516.658 196.065 514.506 Q194.237 512.353 191.088 512.353 M200.371 497.7 L200.371 501.959 Q198.612 501.126 196.806 500.686 Q195.024 500.246 193.264 500.246 Q188.635 500.246 186.181 503.371 Q183.751 506.496 183.403 512.816 Q184.769 510.802 186.829 509.737 Q188.889 508.649 191.366 508.649 Q196.575 508.649 199.584 511.82 Q202.616 514.969 202.616 520.408 Q202.616 525.732 199.468 528.95 Q196.32 532.168 191.088 532.168 Q185.093 532.168 181.922 527.584 Q178.751 522.978 178.751 514.251 Q178.751 506.057 182.639 501.196 Q186.528 496.311 193.079 496.311 Q194.838 496.311 196.621 496.659 Q198.426 497.006 200.371 497.7 Z" fill="#000000" fill-rule="evenodd" fill-opacity="1" /><path clip-path="url(#clip450)" d="M 0 0 M126.783 210.008 Q123.172 210.008 121.343 213.572 Q119.538 217.114 119.538 224.244 Q119.538 231.35 121.343 234.915 Q123.172 238.457 126.783 238.457 Q130.417 238.457 132.223 234.915 Q134.052 231.35 134.052 224.244 Q134.052 217.114 132.223 213.572 Q130.417 210.008 126.783 210.008 M126.783 206.304 Q132.593 206.304 135.649 210.91 Q138.728 215.494 138.728 224.244 Q138.728 232.971 135.649 237.577 Q132.593 242.16 126.783 242.16 Q120.973 242.16 117.894 237.577 Q114.839 232.971 114.839 224.244 Q114.839 215.494 117.894 210.91 Q120.973 206.304 126.783 206.304 Z" fill="#000000" fill-rule="evenodd" fill-opacity="1" /><path clip-path="url(#clip450)" d="M 0 0 M143.797 235.609 L148.681 235.609 L148.681 241.489 L143.797 241.489 L143.797 235.609 Z" fill="#000000" fill-rule="evenodd" fill-opacity="1" /><path clip-path="url(#clip450)" d="M 0 0 M163.751 210.008 Q160.14 210.008 158.311 213.572 Q156.505 217.114 156.505 224.244 Q156.505 231.35 158.311 234.915 Q160.14 238.457 163.751 238.457 Q167.385 238.457 169.19 234.915 Q171.019 231.35 171.019 224.244 Q171.019 217.114 169.19 213.572 Q167.385 210.008 163.751 210.008 M163.751 206.304 Q169.561 206.304 172.616 210.91 Q175.695 215.494 175.695 224.244 Q175.695 232.971 172.616 237.577 Q169.561 242.16 163.751 242.16 Q157.94 242.16 154.862 237.577 Q151.806 232.971 151.806 224.244 Q151.806 215.494 154.862 210.91 Q157.94 206.304 163.751 206.304 Z" fill="#000000" fill-rule="evenodd" fill-opacity="1" /><path clip-path="url(#clip450)" d="M 0 0 M190.764 225.077 Q187.431 225.077 185.51 226.859 Q183.612 228.642 183.612 231.767 Q183.612 234.892 185.51 236.674 Q187.431 238.457 190.764 238.457 Q194.098 238.457 196.019 236.674 Q197.94 234.869 197.94 231.767 Q197.94 228.642 196.019 226.859 Q194.121 225.077 190.764 225.077 M186.088 223.086 Q183.079 222.346 181.389 220.285 Q179.723 218.225 179.723 215.262 Q179.723 211.119 182.663 208.711 Q185.626 206.304 190.764 206.304 Q195.926 206.304 198.866 208.711 Q201.806 211.119 201.806 215.262 Q201.806 218.225 200.116 220.285 Q198.45 222.346 195.463 223.086 Q198.843 223.873 200.718 226.165 Q202.616 228.457 202.616 231.767 Q202.616 236.79 199.537 239.475 Q196.482 242.16 190.764 242.16 Q185.047 242.16 181.968 239.475 Q178.913 236.79 178.913 231.767 Q178.913 228.457 180.811 226.165 Q182.709 223.873 186.088 223.086 M184.376 215.702 Q184.376 218.387 186.042 219.892 Q187.732 221.396 190.764 221.396 Q193.774 221.396 195.463 219.892 Q197.176 218.387 197.176 215.702 Q197.176 213.017 195.463 211.512 Q193.774 210.008 190.764 210.008 Q187.732 210.008 186.042 211.512 Q184.376 213.017 184.376 215.702 Z" fill="#000000" fill-rule="evenodd" fill-opacity="1" /><path clip-path="url(#clip450)" d="M 0 0 M21.7677 777.544 L39.6235 777.544 L39.6235 769.459 Q39.6235 764.972 37.3 762.521 Q34.9765 760.07 30.6797 760.07 Q26.4147 760.07 24.0912 762.521 Q21.7677 764.972 21.7677 769.459 L21.7677 777.544 M16.4842 783.973 L16.4842 769.459 Q16.4842 761.471 20.1126 757.396 Q23.7092 753.291 30.6797 753.291 Q37.7138 753.291 41.3104 757.396 Q44.907 761.471 44.907 769.459 L44.907 777.544 L64.0042 777.544 L64.0042 783.973 L16.4842 783.973 Z" fill="#000000" fill-rule="evenodd" fill-opacity="1" /><path clip-path="url(#clip450)" d="M 0 0 M14.5426 733.079 Q21.8632 737.344 29.0246 739.413 Q36.186 741.482 43.5384 741.482 Q50.8908 741.482 58.1159 739.413 Q65.3091 737.313 72.5979 733.079 L72.5979 738.172 Q65.1182 742.946 57.8931 745.333 Q50.668 747.689 43.5384 747.689 Q36.4406 747.689 29.2474 745.333 Q22.0542 742.978 14.5426 738.172 L14.5426 733.079 Z" fill="#000000" fill-rule="evenodd" fill-opacity="1" /><path clip-path="url(#clip450)" d="M 0 0 M33.8307 706.28 Q33.2578 707.267 33.0032 708.444 Q32.7167 709.59 32.7167 710.99 Q32.7167 715.956 35.9632 718.629 Q39.1779 721.271 45.2253 721.271 L64.0042 721.271 L64.0042 727.159 L28.3562 727.159 L28.3562 721.271 L33.8944 721.271 Q30.6479 719.425 29.0883 716.465 Q27.4968 713.505 27.4968 709.272 Q27.4968 708.667 27.5923 707.935 Q27.656 707.203 27.8151 706.312 L33.8307 706.28 Z" fill="#000000" fill-rule="evenodd" fill-opacity="1" /><path clip-path="url(#clip450)" d="M 0 0 M14.5426 701.06 L14.5426 695.967 Q22.0542 691.193 29.2474 688.838 Q36.4406 686.451 43.5384 686.451 Q50.668 686.451 57.8931 688.838 Q65.1182 691.193 72.5979 695.967 L72.5979 701.06 Q65.3091 696.827 58.1159 694.758 Q50.8908 692.657 43.5384 692.657 Q36.186 692.657 29.0246 694.758 Q21.8632 696.827 14.5426 701.06 Z" fill="#000000" fill-rule="evenodd" fill-opacity="1" /><path clip-path="url(#clip452)" d="
M430.739 1384.19 L430.739 1384.24 L474.835 1384.24 L474.835 1384.19 L430.739 1384.19 L430.739 1384.19  Z
  " fill="#009af9" fill-rule="evenodd" fill-opacity="1"/>
<polyline clip-path="url(#clip452)" style="stroke:#009af9; stroke-width:4; stroke-opacity:1; fill:none" points="
  430.739,1384.19 430.739,1384.24 474.835,1384.24 474.835,1384.19 430.739,1384.19 
  "/>
<path clip-path="url(#clip452)" d="
M474.835 1384.05 L474.835 1384.24 L518.931 1384.24 L518.931 1384.05 L474.835 1384.05 L474.835 1384.05  Z
  " fill="#009af9" fill-rule="evenodd" fill-opacity="1"/>
<polyline clip-path="url(#clip452)" style="stroke:#009af9; stroke-width:4; stroke-opacity:1; fill:none" points="
  474.835,1384.05 474.835,1384.24 518.931,1384.24 518.931,1384.05 474.835,1384.05 
  "/>
<path clip-path="url(#clip452)" d="
M518.931 1383.45 L518.931 1384.24 L563.028 1384.24 L563.028 1383.45 L518.931 1383.45 L518.931 1383.45  Z
  " fill="#009af9" fill-rule="evenodd" fill-opacity="1"/>
<polyline clip-path="url(#clip452)" style="stroke:#009af9; stroke-width:4; stroke-opacity:1; fill:none" points="
  518.931,1383.45 518.931,1384.24 563.028,1384.24 563.028,1383.45 518.931,1383.45 
  "/>
<path clip-path="url(#clip452)" d="
M563.028 1381.47 L563.028 1384.24 L607.124 1384.24 L607.124 1381.47 L563.028 1381.47 L563.028 1381.47  Z
  " fill="#009af9" fill-rule="evenodd" fill-opacity="1"/>
<polyline clip-path="url(#clip452)" style="stroke:#009af9; stroke-width:4; stroke-opacity:1; fill:none" points="
  563.028,1381.47 563.028,1384.24 607.124,1384.24 607.124,1381.47 563.028,1381.47 
  "/>
<path clip-path="url(#clip452)" d="
M607.124 1376.69 L607.124 1384.24 L651.22 1384.24 L651.22 1376.69 L607.124 1376.69 L607.124 1376.69  Z
  " fill="#009af9" fill-rule="evenodd" fill-opacity="1"/>
<polyline clip-path="url(#clip452)" style="stroke:#009af9; stroke-width:4; stroke-opacity:1; fill:none" points="
  607.124,1376.69 607.124,1384.24 651.22,1384.24 651.22,1376.69 607.124,1376.69 
  "/>
<path clip-path="url(#clip452)" d="
M651.22 1365.6 L651.22 1384.24 L695.316 1384.24 L695.316 1365.6 L651.22 1365.6 L651.22 1365.6  Z
  " fill="#009af9" fill-rule="evenodd" fill-opacity="1"/>
<polyline clip-path="url(#clip452)" style="stroke:#009af9; stroke-width:4; stroke-opacity:1; fill:none" points="
  651.22,1365.6 651.22,1384.24 695.316,1384.24 695.316,1365.6 651.22,1365.6 
  "/>
<path clip-path="url(#clip452)" d="
M695.316 1342.39 L695.316 1384.24 L739.412 1384.24 L739.412 1342.39 L695.316 1342.39 L695.316 1342.39  Z
  " fill="#009af9" fill-rule="evenodd" fill-opacity="1"/>
<polyline clip-path="url(#clip452)" style="stroke:#009af9; stroke-width:4; stroke-opacity:1; fill:none" points="
  695.316,1342.39 695.316,1384.24 739.412,1384.24 739.412,1342.39 695.316,1342.39 
  "/>
<path clip-path="url(#clip452)" d="
M739.412 1300.05 L739.412 1384.24 L783.509 1384.24 L783.509 1300.05 L739.412 1300.05 L739.412 1300.05  Z
  " fill="#009af9" fill-rule="evenodd" fill-opacity="1"/>
<polyline clip-path="url(#clip452)" style="stroke:#009af9; stroke-width:4; stroke-opacity:1; fill:none" points="
  739.412,1300.05 739.412,1384.24 783.509,1384.24 783.509,1300.05 739.412,1300.05 
  "/>
<path clip-path="url(#clip452)" d="
M783.509 1230.77 L783.509 1384.24 L827.605 1384.24 L827.605 1230.77 L783.509 1230.77 L783.509 1230.77  Z
  " fill="#009af9" fill-rule="evenodd" fill-opacity="1"/>
<polyline clip-path="url(#clip452)" style="stroke:#009af9; stroke-width:4; stroke-opacity:1; fill:none" points="
  783.509,1230.77 783.509,1384.24 827.605,1384.24 827.605,1230.77 783.509,1230.77 
  "/>
<path clip-path="url(#clip452)" d="
M827.605 1126.42 L827.605 1384.24 L871.701 1384.24 L871.701 1126.42 L827.605 1126.42 L827.605 1126.42  Z
  " fill="#009af9" fill-rule="evenodd" fill-opacity="1"/>
<polyline clip-path="url(#clip452)" style="stroke:#009af9; stroke-width:4; stroke-opacity:1; fill:none" points="
  827.605,1126.42 827.605,1384.24 871.701,1384.24 871.701,1126.42 827.605,1126.42 
  "/>
<path clip-path="url(#clip452)" d="
M871.701 992.06 L871.701 1384.24 L915.797 1384.24 L915.797 992.06 L871.701 992.06 L871.701 992.06  Z
  " fill="#009af9" fill-rule="evenodd" fill-opacity="1"/>
<polyline clip-path="url(#clip452)" style="stroke:#009af9; stroke-width:4; stroke-opacity:1; fill:none" points="
  871.701,992.06 871.701,1384.24 915.797,1384.24 915.797,992.06 871.701,992.06 
  "/>
<path clip-path="url(#clip452)" d="
M915.797 820.726 L915.797 1384.24 L959.893 1384.24 L959.893 820.726 L915.797 820.726 L915.797 820.726  Z
  " fill="#009af9" fill-rule="evenodd" fill-opacity="1"/>
<polyline clip-path="url(#clip452)" style="stroke:#009af9; stroke-width:4; stroke-opacity:1; fill:none" points="
  915.797,820.726 915.797,1384.24 959.893,1384.24 959.893,820.726 915.797,820.726 
  "/>
<path clip-path="url(#clip452)" d="
M959.893 638.565 L959.893 1384.24 L1003.99 1384.24 L1003.99 638.565 L959.893 638.565 L959.893 638.565  Z
  " fill="#009af9" fill-rule="evenodd" fill-opacity="1"/>
<polyline clip-path="url(#clip452)" style="stroke:#009af9; stroke-width:4; stroke-opacity:1; fill:none" points="
  959.893,638.565 959.893,1384.24 1003.99,1384.24 1003.99,638.565 959.893,638.565 
  "/>
<path clip-path="url(#clip452)" d="
M1003.99 447.94 L1003.99 1384.24 L1048.09 1384.24 L1048.09 447.94 L1003.99 447.94 L1003.99 447.94  Z
  " fill="#009af9" fill-rule="evenodd" fill-opacity="1"/>
<polyline clip-path="url(#clip452)" style="stroke:#009af9; stroke-width:4; stroke-opacity:1; fill:none" points="
  1003.99,447.94 1003.99,1384.24 1048.09,1384.24 1048.09,447.94 1003.99,447.94 
  "/>
<path clip-path="url(#clip452)" d="
M1048.09 283.501 L1048.09 1384.24 L1092.18 1384.24 L1092.18 283.501 L1048.09 283.501 L1048.09 283.501  Z
  " fill="#009af9" fill-rule="evenodd" fill-opacity="1"/>
<polyline clip-path="url(#clip452)" style="stroke:#009af9; stroke-width:4; stroke-opacity:1; fill:none" points="
  1048.09,283.501 1048.09,1384.24 1092.18,1384.24 1092.18,283.501 1048.09,283.501 
  "/>
<path clip-path="url(#clip452)" d="
M1092.18 164.856 L1092.18 1384.24 L1136.28 1384.24 L1136.28 164.856 L1092.18 164.856 L1092.18 164.856  Z
  " fill="#009af9" fill-rule="evenodd" fill-opacity="1"/>
<polyline clip-path="url(#clip452)" style="stroke:#009af9; stroke-width:4; stroke-opacity:1; fill:none" points="
  1092.18,164.856 1092.18,1384.24 1136.28,1384.24 1136.28,164.856 1092.18,164.856 
  "/>
<path clip-path="url(#clip452)" d="
M1136.28 99.7136 L1136.28 1384.24 L1180.37 1384.24 L1180.37 99.7136 L1136.28 99.7136 L1136.28 99.7136  Z
  " fill="#009af9" fill-rule="evenodd" fill-opacity="1"/>
<polyline clip-path="url(#clip452)" style="stroke:#009af9; stroke-width:4; stroke-opacity:1; fill:none" points="
  1136.28,99.7136 1136.28,1384.24 1180.37,1384.24 1180.37,99.7136 1136.28,99.7136 
  "/>
<path clip-path="url(#clip452)" d="
M1180.37 86.1857 L1180.37 1384.24 L1224.47 1384.24 L1224.47 86.1857 L1180.37 86.1857 L1180.37 86.1857  Z
  " fill="#009af9" fill-rule="evenodd" fill-opacity="1"/>
<polyline clip-path="url(#clip452)" style="stroke:#009af9; stroke-width:4; stroke-opacity:1; fill:none" points="
  1180.37,86.1857 1180.37,1384.24 1224.47,1384.24 1224.47,86.1857 1180.37,86.1857 
  "/>
<path clip-path="url(#clip452)" d="
M1224.47 154.87 L1224.47 1384.24 L1268.57 1384.24 L1268.57 154.87 L1224.47 154.87 L1224.47 154.87  Z
  " fill="#009af9" fill-rule="evenodd" fill-opacity="1"/>
<polyline clip-path="url(#clip452)" style="stroke:#009af9; stroke-width:4; stroke-opacity:1; fill:none" points="
  1224.47,154.87 1224.47,1384.24 1268.57,1384.24 1268.57,154.87 1224.47,154.87 
  "/>
<path clip-path="url(#clip452)" d="
M1268.57 270.409 L1268.57 1384.24 L1312.66 1384.24 L1312.66 270.409 L1268.57 270.409 L1268.57 270.409  Z
  " fill="#009af9" fill-rule="evenodd" fill-opacity="1"/>
<polyline clip-path="url(#clip452)" style="stroke:#009af9; stroke-width:4; stroke-opacity:1; fill:none" points="
  1268.57,270.409 1268.57,1384.24 1312.66,1384.24 1312.66,270.409 1268.57,270.409 
  "/>
<path clip-path="url(#clip452)" d="
M1312.66 414.745 L1312.66 1384.24 L1356.76 1384.24 L1356.76 414.745 L1312.66 414.745 L1312.66 414.745  Z
  " fill="#009af9" fill-rule="evenodd" fill-opacity="1"/>
<polyline clip-path="url(#clip452)" style="stroke:#009af9; stroke-width:4; stroke-opacity:1; fill:none" points="
  1312.66,414.745 1312.66,1384.24 1356.76,1384.24 1356.76,414.745 1312.66,414.745 
  "/>
<path clip-path="url(#clip452)" d="
M1356.76 572.885 L1356.76 1384.24 L1400.86 1384.24 L1400.86 572.885 L1356.76 572.885 L1356.76 572.885  Z
  " fill="#009af9" fill-rule="evenodd" fill-opacity="1"/>
<polyline clip-path="url(#clip452)" style="stroke:#009af9; stroke-width:4; stroke-opacity:1; fill:none" points="
  1356.76,572.885 1356.76,1384.24 1400.86,1384.24 1400.86,572.885 1356.76,572.885 
  "/>
<path clip-path="url(#clip452)" d="
M1400.86 740.677 L1400.86 1384.24 L1444.95 1384.24 L1444.95 740.677 L1400.86 740.677 L1400.86 740.677  Z
  " fill="#009af9" fill-rule="evenodd" fill-opacity="1"/>
<polyline clip-path="url(#clip452)" style="stroke:#009af9; stroke-width:4; stroke-opacity:1; fill:none" points="
  1400.86,740.677 1400.86,1384.24 1444.95,1384.24 1444.95,740.677 1400.86,740.677 
  "/>
<path clip-path="url(#clip452)" d="
M1444.95 885.318 L1444.95 1384.24 L1489.05 1384.24 L1489.05 885.318 L1444.95 885.318 L1444.95 885.318  Z
  " fill="#009af9" fill-rule="evenodd" fill-opacity="1"/>
<polyline clip-path="url(#clip452)" style="stroke:#009af9; stroke-width:4; stroke-opacity:1; fill:none" points="
  1444.95,885.318 1444.95,1384.24 1489.05,1384.24 1489.05,885.318 1444.95,885.318 
  "/>
<path clip-path="url(#clip452)" d="
M1489.05 1015.04 L1489.05 1384.24 L1533.14 1384.24 L1533.14 1015.04 L1489.05 1015.04 L1489.05 1015.04  Z
  " fill="#009af9" fill-rule="evenodd" fill-opacity="1"/>
<polyline clip-path="url(#clip452)" style="stroke:#009af9; stroke-width:4; stroke-opacity:1; fill:none" points="
  1489.05,1015.04 1489.05,1384.24 1533.14,1384.24 1533.14,1015.04 1489.05,1015.04 
  "/>
<path clip-path="url(#clip452)" d="
M1533.14 1127.22 L1533.14 1384.24 L1577.24 1384.24 L1577.24 1127.22 L1533.14 1127.22 L1533.14 1127.22  Z
  " fill="#009af9" fill-rule="evenodd" fill-opacity="1"/>
<polyline clip-path="url(#clip452)" style="stroke:#009af9; stroke-width:4; stroke-opacity:1; fill:none" points="
  1533.14,1127.22 1533.14,1384.24 1577.24,1384.24 1577.24,1127.22 1533.14,1127.22 
  "/>
<path clip-path="url(#clip452)" d="
M1577.24 1201.86 L1577.24 1384.24 L1621.34 1384.24 L1621.34 1201.86 L1577.24 1201.86 L1577.24 1201.86  Z
  " fill="#009af9" fill-rule="evenodd" fill-opacity="1"/>
<polyline clip-path="url(#clip452)" style="stroke:#009af9; stroke-width:4; stroke-opacity:1; fill:none" points="
  1577.24,1201.86 1577.24,1384.24 1621.34,1384.24 1621.34,1201.86 1577.24,1201.86 
  "/>
<path clip-path="url(#clip452)" d="
M1621.34 1263.55 L1621.34 1384.24 L1665.43 1384.24 L1665.43 1263.55 L1621.34 1263.55 L1621.34 1263.55  Z
  " fill="#009af9" fill-rule="evenodd" fill-opacity="1"/>
<polyline clip-path="url(#clip452)" style="stroke:#009af9; stroke-width:4; stroke-opacity:1; fill:none" points="
  1621.34,1263.55 1621.34,1384.24 1665.43,1384.24 1665.43,1263.55 1621.34,1263.55 
  "/>
<path clip-path="url(#clip452)" d="
M1665.43 1305.51 L1665.43 1384.24 L1709.53 1384.24 L1709.53 1305.51 L1665.43 1305.51 L1665.43 1305.51  Z
  " fill="#009af9" fill-rule="evenodd" fill-opacity="1"/>
<polyline clip-path="url(#clip452)" style="stroke:#009af9; stroke-width:4; stroke-opacity:1; fill:none" points="
  1665.43,1305.51 1665.43,1384.24 1709.53,1384.24 1709.53,1305.51 1665.43,1305.51 
  "/>
<path clip-path="url(#clip452)" d="
M1709.53 1335.5 L1709.53 1384.24 L1753.63 1384.24 L1753.63 1335.5 L1709.53 1335.5 L1709.53 1335.5  Z
  " fill="#009af9" fill-rule="evenodd" fill-opacity="1"/>
<polyline clip-path="url(#clip452)" style="stroke:#009af9; stroke-width:4; stroke-opacity:1; fill:none" points="
  1709.53,1335.5 1709.53,1384.24 1753.63,1384.24 1753.63,1335.5 1709.53,1335.5 
  "/>
<path clip-path="url(#clip452)" d="
M1753.63 1353.26 L1753.63 1384.24 L1797.72 1384.24 L1797.72 1353.26 L1753.63 1353.26 L1753.63 1353.26  Z
  " fill="#009af9" fill-rule="evenodd" fill-opacity="1"/>
<polyline clip-path="url(#clip452)" style="stroke:#009af9; stroke-width:4; stroke-opacity:1; fill:none" points="
  1753.63,1353.26 1753.63,1384.24 1797.72,1384.24 1797.72,1353.26 1753.63,1353.26 
  "/>
<path clip-path="url(#clip452)" d="
M1797.72 1367.05 L1797.72 1384.24 L1841.82 1384.24 L1841.82 1367.05 L1797.72 1367.05 L1797.72 1367.05  Z
  " fill="#009af9" fill-rule="evenodd" fill-opacity="1"/>
<polyline clip-path="url(#clip452)" style="stroke:#009af9; stroke-width:4; stroke-opacity:1; fill:none" points="
  1797.72,1367.05 1797.72,1384.24 1841.82,1384.24 1841.82,1367.05 1797.72,1367.05 
  "/>
<path clip-path="url(#clip452)" d="
M1841.82 1374.79 L1841.82 1384.24 L1885.91 1384.24 L1885.91 1374.79 L1841.82 1374.79 L1841.82 1374.79  Z
  " fill="#009af9" fill-rule="evenodd" fill-opacity="1"/>
<polyline clip-path="url(#clip452)" style="stroke:#009af9; stroke-width:4; stroke-opacity:1; fill:none" points="
  1841.82,1374.79 1841.82,1384.24 1885.91,1384.24 1885.91,1374.79 1841.82,1374.79 
  "/>
<path clip-path="url(#clip452)" d="
M1885.91 1378.64 L1885.91 1384.24 L1930.01 1384.24 L1930.01 1378.64 L1885.91 1378.64 L1885.91 1378.64  Z
  " fill="#009af9" fill-rule="evenodd" fill-opacity="1"/>
<polyline clip-path="url(#clip452)" style="stroke:#009af9; stroke-width:4; stroke-opacity:1; fill:none" points="
  1885.91,1378.64 1885.91,1384.24 1930.01,1384.24 1930.01,1378.64 1885.91,1378.64 
  "/>
<path clip-path="url(#clip452)" d="
M1930.01 1381.2 L1930.01 1384.24 L1974.11 1384.24 L1974.11 1381.2 L1930.01 1381.2 L1930.01 1381.2  Z
  " fill="#009af9" fill-rule="evenodd" fill-opacity="1"/>
<polyline clip-path="url(#clip452)" style="stroke:#009af9; stroke-width:4; stroke-opacity:1; fill:none" points="
  1930.01,1381.2 1930.01,1384.24 1974.11,1384.24 1974.11,1381.2 1930.01,1381.2 
  "/>
<path clip-path="url(#clip452)" d="
M1974.11 1382.53 L1974.11 1384.24 L2018.2 1384.24 L2018.2 1382.53 L1974.11 1382.53 L1974.11 1382.53  Z
  " fill="#009af9" fill-rule="evenodd" fill-opacity="1"/>
<polyline clip-path="url(#clip452)" style="stroke:#009af9; stroke-width:4; stroke-opacity:1; fill:none" points="
  1974.11,1382.53 1974.11,1384.24 2018.2,1384.24 2018.2,1382.53 1974.11,1382.53 
  "/>
<path clip-path="url(#clip452)" d="
M2018.2 1383.45 L2018.2 1384.24 L2062.3 1384.24 L2062.3 1383.45 L2018.2 1383.45 L2018.2 1383.45  Z
  " fill="#009af9" fill-rule="evenodd" fill-opacity="1"/>
<polyline clip-path="url(#clip452)" style="stroke:#009af9; stroke-width:4; stroke-opacity:1; fill:none" points="
  2018.2,1383.45 2018.2,1384.24 2062.3,1384.24 2062.3,1383.45 2018.2,1383.45 
  "/>
<path clip-path="url(#clip452)" d="
M2062.3 1383.8 L2062.3 1384.24 L2106.39 1384.24 L2106.39 1383.8 L2062.3 1383.8 L2062.3 1383.8  Z
  " fill="#009af9" fill-rule="evenodd" fill-opacity="1"/>
<polyline clip-path="url(#clip452)" style="stroke:#009af9; stroke-width:4; stroke-opacity:1; fill:none" points="
  2062.3,1383.8 2062.3,1384.24 2106.39,1384.24 2106.39,1383.8 2062.3,1383.8 
  "/>
<path clip-path="url(#clip452)" d="
M2106.39 1384.04 L2106.39 1384.24 L2150.49 1384.24 L2150.49 1384.04 L2106.39 1384.04 L2106.39 1384.04  Z
  " fill="#009af9" fill-rule="evenodd" fill-opacity="1"/>
<polyline clip-path="url(#clip452)" style="stroke:#009af9; stroke-width:4; stroke-opacity:1; fill:none" points="
  2106.39,1384.04 2106.39,1384.24 2150.49,1384.24 2150.49,1384.04 2106.39,1384.04 
  "/>
<path clip-path="url(#clip452)" d="
M2150.49 1384.21 L2150.49 1384.24 L2194.59 1384.24 L2194.59 1384.21 L2150.49 1384.21 L2150.49 1384.21  Z
  " fill="#009af9" fill-rule="evenodd" fill-opacity="1"/>
<polyline clip-path="url(#clip452)" style="stroke:#009af9; stroke-width:4; stroke-opacity:1; fill:none" points="
  2150.49,1384.21 2150.49,1384.24 2194.59,1384.24 2194.59,1384.21 2150.49,1384.21 
  "/>
<path clip-path="url(#clip452)" d="
M2194.59 1384.21 L2194.59 1384.24 L2238.68 1384.24 L2238.68 1384.21 L2194.59 1384.21 L2194.59 1384.21  Z
  " fill="#009af9" fill-rule="evenodd" fill-opacity="1"/>
<polyline clip-path="url(#clip452)" style="stroke:#009af9; stroke-width:4; stroke-opacity:1; fill:none" points="
  2194.59,1384.21 2194.59,1384.24 2238.68,1384.24 2238.68,1384.21 2194.59,1384.21 
  "/>
<polyline clip-path="url(#clip452)" style="stroke:#e26f46; stroke-width:12; stroke-opacity:1; fill:none" points="
  298.45,1384.18 302.86,1384.17 307.27,1384.17 311.679,1384.16 316.089,1384.15 320.498,1384.14 324.908,1384.13 329.318,1384.12 333.727,1384.11 338.137,1384.1 
  342.547,1384.08 346.956,1384.07 351.366,1384.05 355.775,1384.03 360.185,1384.01 364.595,1383.99 369.004,1383.97 373.414,1383.94 377.823,1383.91 382.233,1383.88 
  386.643,1383.85 391.052,1383.81 395.462,1383.77 399.872,1383.73 404.281,1383.68 408.691,1383.63 413.1,1383.57 417.51,1383.51 421.92,1383.44 426.329,1383.37 
  430.739,1383.3 435.149,1383.21 439.558,1383.12 443.968,1383.03 448.377,1382.92 452.787,1382.81 457.197,1382.68 461.606,1382.55 466.016,1382.41 470.426,1382.25 
  474.835,1382.09 479.245,1381.91 483.654,1381.72 488.064,1381.51 492.474,1381.29 496.883,1381.05 501.293,1380.8 505.702,1380.52 510.112,1380.23 514.522,1379.91 
  518.931,1379.57 523.341,1379.21 527.751,1378.82 532.16,1378.41 536.57,1377.97 540.979,1377.49 545.389,1376.99 549.799,1376.45 554.208,1375.87 558.618,1375.26 
  563.028,1374.61 567.437,1373.91 571.847,1373.17 576.256,1372.38 580.666,1371.54 585.076,1370.65 589.485,1369.71 593.895,1368.71 598.305,1367.64 602.714,1366.52 
  607.124,1365.32 611.533,1364.05 615.943,1362.72 620.353,1361.3 624.762,1359.8 629.172,1358.22 633.581,1356.55 637.991,1354.78 642.401,1352.92 646.81,1350.96 
  651.22,1348.89 655.63,1346.72 660.039,1344.43 664.449,1342.02 668.858,1339.49 673.268,1336.83 677.678,1334.03 682.087,1331.1 686.497,1328.03 690.907,1324.8 
  695.316,1321.43 699.726,1317.89 704.135,1314.19 708.545,1310.33 712.955,1306.28 717.364,1302.06 721.774,1297.65 726.184,1293.05 730.593,1288.26 735.003,1283.26 
  739.412,1278.06 743.822,1272.64 748.232,1267.01 752.641,1261.15 757.051,1255.07 761.46,1248.75 765.87,1242.2 770.28,1235.4 774.689,1228.35 779.099,1221.05 
  783.509,1213.5 787.918,1205.69 792.328,1197.61 796.737,1189.26 801.147,1180.64 805.557,1171.75 809.966,1162.58 814.376,1153.13 818.786,1143.4 823.195,1133.38 
  827.605,1123.08 832.014,1112.49 836.424,1101.61 840.834,1090.45 845.243,1078.99 849.653,1067.25 854.063,1055.22 858.472,1042.9 862.882,1030.3 867.291,1017.42 
  871.701,1004.26 876.111,990.82 880.52,977.112 884.93,963.137 889.339,948.899 893.749,934.406 898.159,919.663 902.568,904.676 906.978,889.453 911.388,874.002 
  915.797,858.331 920.207,842.45 924.616,826.369 929.026,810.098 933.436,793.647 937.845,777.028 942.255,760.254 946.665,743.338 951.074,726.291 955.484,709.129 
  959.893,691.865 964.303,674.515 968.713,657.094 973.122,639.618 977.532,622.103 981.942,604.565 986.351,587.023 990.761,569.494 995.17,551.995 999.58,534.546 
  1003.99,517.164 1008.4,499.869 1012.81,482.68 1017.22,465.616 1021.63,448.698 1026.04,431.944 1030.45,415.374 1034.86,399.009 1039.27,382.868 1043.68,366.972 
  1048.09,351.339 1052.5,335.991 1056.91,320.947 1061.31,306.226 1065.72,291.847 1070.13,277.83 1074.54,264.193 1078.95,250.955 1083.36,238.133 1087.77,225.746 
  1092.18,213.811 1096.59,202.343 1101,191.36 1105.41,180.876 1109.82,170.908 1114.23,161.468 1118.64,152.57 1123.05,144.229 1127.46,136.454 1131.87,129.259 
  1136.28,122.653 1140.69,116.646 1145.1,111.247 1149.51,106.465 1153.92,102.305 1158.33,98.7749 1162.74,95.8794 1167.15,93.6228 1171.56,92.0085 1175.96,91.039 
  1180.37,90.7156 1184.78,91.039 1189.19,92.0085 1193.6,93.6228 1198.01,95.8794 1202.42,98.7749 1206.83,102.305 1211.24,106.465 1215.65,111.247 1220.06,116.646 
  1224.47,122.653 1228.88,129.259 1233.29,136.454 1237.7,144.229 1242.11,152.57 1246.52,161.468 1250.93,170.908 1255.34,180.876 1259.75,191.36 1264.16,202.343 
  1268.57,213.811 1272.98,225.746 1277.39,238.133 1281.8,250.955 1286.21,264.193 1290.61,277.83 1295.02,291.847 1299.43,306.226 1303.84,320.947 1308.25,335.991 
  1312.66,351.339 1317.07,366.972 1321.48,382.868 1325.89,399.009 1330.3,415.374 1334.71,431.944 1339.12,448.698 1343.53,465.616 1347.94,482.68 1352.35,499.869 
  1356.76,517.164 1361.17,534.546 1365.58,551.995 1369.99,569.494 1374.4,587.023 1378.81,604.565 1383.22,622.103 1387.63,639.618 1392.04,657.094 1396.45,674.515 
  1400.86,691.865 1405.27,709.129 1409.67,726.291 1414.08,743.338 1418.49,760.254 1422.9,777.028 1427.31,793.647 1431.72,810.098 1436.13,826.369 1440.54,842.45 
  1444.95,858.331 1449.36,874.002 1453.77,889.453 1458.18,904.676 1462.59,919.663 1467,934.406 1471.41,948.899 1475.82,963.137 1480.23,977.112 1484.64,990.82 
  1489.05,1004.26 1493.46,1017.42 1497.87,1030.3 1502.28,1042.9 1506.69,1055.22 1511.1,1067.25 1515.51,1078.99 1519.92,1090.45 1524.32,1101.61 1528.73,1112.49 
  1533.14,1123.08 1537.55,1133.38 1541.96,1143.4 1546.37,1153.13 1550.78,1162.58 1555.19,1171.75 1559.6,1180.64 1564.01,1189.26 1568.42,1197.61 1572.83,1205.69 
  1577.24,1213.5 1581.65,1221.05 1586.06,1228.35 1590.47,1235.4 1594.88,1242.2 1599.29,1248.75 1603.7,1255.07 1608.11,1261.15 1612.52,1267.01 1616.93,1272.64 
  1621.34,1278.06 1625.75,1283.26 1630.16,1288.26 1634.57,1293.05 1638.98,1297.65 1643.38,1302.06 1647.79,1306.28 1652.2,1310.33 1656.61,1314.19 1661.02,1317.89 
  1665.43,1321.43 1669.84,1324.8 1674.25,1328.03 1678.66,1331.1 1683.07,1334.03 1687.48,1336.83 1691.89,1339.49 1696.3,1342.02 1700.71,1344.43 1705.12,1346.72 
  1709.53,1348.89 1713.94,1350.96 1718.35,1352.92 1722.76,1354.78 1727.17,1356.55 1731.58,1358.22 1735.99,1359.8 1740.4,1361.3 1744.81,1362.72 1749.22,1364.05 
  1753.63,1365.32 1758.03,1366.52 1762.44,1367.64 1766.85,1368.71 1771.26,1369.71 1775.67,1370.65 1780.08,1371.54 1784.49,1372.38 1788.9,1373.17 1793.31,1373.91 
  1797.72,1374.61 1802.13,1375.26 1806.54,1375.87 1810.95,1376.45 1815.36,1376.99 1819.77,1377.49 1824.18,1377.97 1828.59,1378.41 1833,1378.82 1837.41,1379.21 
  1841.82,1379.57 1846.23,1379.91 1850.64,1380.23 1855.05,1380.52 1859.46,1380.8 1863.87,1381.05 1868.28,1381.29 1872.68,1381.51 1877.09,1381.72 1881.5,1381.91 
  1885.91,1382.09 1890.32,1382.25 1894.73,1382.41 1899.14,1382.55 1903.55,1382.68 1907.96,1382.81 1912.37,1382.92 1916.78,1383.03 1921.19,1383.12 1925.6,1383.21 
  1930.01,1383.3 1934.42,1383.37 1938.83,1383.44 1943.24,1383.51 1947.65,1383.57 1952.06,1383.63 1956.47,1383.68 1960.88,1383.73 1965.29,1383.77 1969.7,1383.81 
  1974.11,1383.85 1978.52,1383.88 1982.93,1383.91 1987.34,1383.94 1991.74,1383.97 1996.15,1383.99 2000.56,1384.01 2004.97,1384.03 2009.38,1384.05 2013.79,1384.07 
  2018.2,1384.08 2022.61,1384.1 2027.02,1384.11 2031.43,1384.12 2035.84,1384.13 2040.25,1384.14 2044.66,1384.15 2049.07,1384.16 2053.48,1384.17 2057.89,1384.17 
  2062.3,1384.18 2066.71,1384.19 2071.12,1384.19 2075.53,1384.19 2079.94,1384.2 2084.35,1384.2 2088.76,1384.21 2093.17,1384.21 2097.58,1384.21 2101.99,1384.21 
  2106.39,1384.22 2110.8,1384.22 2115.21,1384.22 2119.62,1384.22 2124.03,1384.22 2128.44,1384.23 2132.85,1384.23 2137.26,1384.23 2141.67,1384.23 2146.08,1384.23 
  2150.49,1384.23 2154.9,1384.23 2159.31,1384.23 2163.72,1384.23 2168.13,1384.23 2172.54,1384.23 2176.95,1384.23 2181.36,1384.23 2185.77,1384.24 2190.18,1384.24 
  2194.59,1384.24 
  "/>
<polyline clip-path="url(#clip452)" style="stroke:#3da44d; stroke-width:12; stroke-opacity:1; fill:none" points="
  298.45,1384.24 302.86,1384.24 307.27,1384.24 311.679,1384.24 316.089,1384.24 320.498,1384.24 324.908,1384.24 329.318,1384.24 333.727,1384.24 338.137,1384.24 
  342.547,1384.24 346.956,1384.24 351.366,1384.24 355.775,1384.24 360.185,1384.24 364.595,1384.24 369.004,1384.24 373.414,1384.24 377.823,1384.23 382.233,1384.23 
  386.643,1384.23 391.052,1384.23 395.462,1384.23 399.872,1384.23 404.281,1384.22 408.691,1384.22 413.1,1384.22 417.51,1384.21 421.92,1384.21 426.329,1384.2 
  430.739,1384.2 435.149,1384.19 439.558,1384.18 443.968,1384.17 448.377,1384.16 452.787,1384.15 457.197,1384.13 461.606,1384.11 466.016,1384.09 470.426,1384.07 
  474.835,1384.04 479.245,1384.01 483.654,1383.97 488.064,1383.93 492.474,1383.88 496.883,1383.83 501.293,1383.77 505.702,1383.7 510.112,1383.62 514.522,1383.54 
  518.931,1383.44 523.341,1383.33 527.751,1383.21 532.16,1383.07 536.57,1382.92 540.979,1382.75 545.389,1382.56 549.799,1382.35 554.208,1382.12 558.618,1381.87 
  563.028,1381.58 567.437,1381.27 571.847,1380.92 576.256,1380.54 580.666,1380.13 585.076,1379.67 589.485,1379.16 593.895,1378.62 598.305,1378.02 602.714,1377.36 
  607.124,1376.65 611.533,1375.87 615.943,1375.03 620.353,1374.11 624.762,1373.12 629.172,1372.05 633.581,1370.89 637.991,1369.63 642.401,1368.28 646.81,1366.83 
  651.22,1365.26 655.63,1363.58 660.039,1361.78 664.449,1359.84 668.858,1357.77 673.268,1355.55 677.678,1353.19 682.087,1350.67 686.497,1347.98 690.907,1345.11 
  695.316,1342.07 699.726,1338.84 704.135,1335.41 708.545,1331.77 712.955,1327.92 717.364,1323.85 721.774,1319.55 726.184,1315.02 730.593,1310.23 735.003,1305.2 
  739.412,1299.9 743.822,1294.33 748.232,1288.49 752.641,1282.36 757.051,1275.94 761.46,1269.22 765.87,1262.19 770.28,1254.85 774.689,1247.19 779.099,1239.21 
  783.509,1230.9 787.918,1222.25 792.328,1213.26 796.737,1203.92 801.147,1194.24 805.557,1184.2 809.966,1173.81 814.376,1163.06 818.786,1151.96 823.195,1140.49 
  827.605,1128.67 832.014,1116.48 836.424,1103.94 840.834,1091.04 845.243,1077.78 849.653,1064.18 854.063,1050.23 858.472,1035.93 862.882,1021.3 867.291,1006.34 
  871.701,991.051 876.111,975.45 880.52,959.542 884.93,943.337 889.339,926.844 893.749,910.076 898.159,893.044 902.568,875.761 906.978,858.24 911.388,840.496 
  915.797,822.543 920.207,804.397 924.616,786.075 929.026,767.593 933.436,748.969 937.845,730.222 942.255,711.37 946.665,692.433 951.074,673.43 955.484,654.383 
  959.893,635.311 964.303,616.237 968.713,597.181 973.122,578.166 977.532,559.213 981.942,540.346 986.351,521.586 990.761,502.957 995.17,484.481 999.58,466.181 
  1003.99,448.079 1008.4,430.199 1012.81,412.562 1017.22,395.192 1021.63,378.11 1026.04,361.338 1030.45,344.899 1034.86,328.812 1039.27,313.099 1043.68,297.78 
  1048.09,282.875 1052.5,268.403 1056.91,254.383 1061.31,240.832 1065.72,227.769 1070.13,215.21 1074.54,203.171 1078.95,191.666 1083.36,180.711 1087.77,170.318 
  1092.18,160.501 1096.59,151.271 1101,142.639 1105.41,134.614 1109.82,127.207 1114.23,120.424 1118.64,114.273 1123.05,108.76 1127.46,103.89 1131.87,99.6667 
  1136.28,96.0936 1140.69,93.1728 1145.1,90.9052 1149.51,89.291 1153.92,88.3294 1158.33,88.0184 1162.74,88.3553 1167.15,89.3363 1171.56,90.9569 1175.96,93.2115 
  1180.37,96.0936 1184.78,99.596 1189.19,103.711 1193.6,108.428 1198.01,113.739 1202.42,119.633 1206.83,126.099 1211.24,133.125 1215.65,140.699 1220.06,148.806 
  1224.47,157.434 1228.88,166.568 1233.29,176.193 1237.7,186.295 1242.11,196.856 1246.52,207.862 1250.93,219.295 1255.34,231.139 1259.75,243.376 1264.16,255.99 
  1268.57,268.962 1272.98,282.274 1277.39,295.909 1281.8,309.849 1286.21,324.076 1290.61,338.57 1295.02,353.315 1299.43,368.292 1303.84,383.482 1308.25,398.868 
  1312.66,414.432 1317.07,430.157 1321.48,446.024 1325.89,462.016 1330.3,478.116 1334.71,494.308 1339.12,510.574 1343.53,526.899 1347.94,543.267 1352.35,559.661 
  1356.76,576.067 1361.17,592.469 1365.58,608.854 1369.99,625.208 1374.4,641.515 1378.81,657.765 1383.22,673.942 1387.63,690.037 1392.04,706.035 1396.45,721.927 
  1400.86,737.701 1405.27,753.347 1409.67,768.854 1414.08,784.214 1418.49,799.417 1422.9,814.455 1427.31,829.32 1431.72,844.004 1436.13,858.5 1440.54,872.801 
  1444.95,886.902 1449.36,900.796 1453.77,914.479 1458.18,927.946 1462.59,941.192 1467,954.213 1471.41,967.006 1475.82,979.568 1480.23,991.896 1484.64,1003.99 
  1489.05,1015.84 1493.46,1027.45 1497.87,1038.83 1502.28,1049.96 1506.69,1060.85 1511.1,1071.49 1515.51,1081.9 1519.92,1092.06 1524.32,1101.98 1528.73,1111.66 
  1533.14,1121.1 1537.55,1130.3 1541.96,1139.27 1546.37,1148 1550.78,1156.5 1555.19,1164.77 1559.6,1172.81 1564.01,1180.63 1568.42,1188.22 1572.83,1195.6 
  1577.24,1202.76 1581.65,1209.71 1586.06,1216.45 1590.47,1222.98 1594.88,1229.31 1599.29,1235.44 1603.7,1241.38 1608.11,1247.13 1612.52,1252.69 1616.93,1258.06 
  1621.34,1263.25 1625.75,1268.27 1630.16,1273.12 1634.57,1277.8 1638.98,1282.31 1643.38,1286.67 1647.79,1290.87 1652.2,1294.91 1656.61,1298.81 1661.02,1302.57 
  1665.43,1306.18 1669.84,1309.66 1674.25,1313.01 1678.66,1316.23 1683.07,1319.32 1687.48,1322.29 1691.89,1325.14 1696.3,1327.88 1700.71,1330.51 1705.12,1333.04 
  1709.53,1335.45 1713.94,1337.77 1718.35,1340 1722.76,1342.13 1727.17,1344.16 1731.58,1346.12 1735.99,1347.98 1740.4,1349.77 1744.81,1351.48 1749.22,1353.11 
  1753.63,1354.67 1758.03,1356.16 1762.44,1357.59 1766.85,1358.95 1771.26,1360.24 1775.67,1361.48 1780.08,1362.66 1784.49,1363.78 1788.9,1364.85 1793.31,1365.87 
  1797.72,1366.85 1802.13,1367.77 1806.54,1368.65 1810.95,1369.49 1815.36,1370.29 1819.77,1371.04 1824.18,1371.76 1828.59,1372.45 1833,1373.1 1837.41,1373.71 
  1841.82,1374.3 1846.23,1374.86 1850.64,1375.38 1855.05,1375.88 1859.46,1376.36 1863.87,1376.81 1868.28,1377.23 1872.68,1377.63 1877.09,1378.01 1881.5,1378.38 
  1885.91,1378.72 1890.32,1379.04 1894.73,1379.35 1899.14,1379.63 1903.55,1379.91 1907.96,1380.17 1912.37,1380.41 1916.78,1380.64 1921.19,1380.86 1925.6,1381.06 
  1930.01,1381.25 1934.42,1381.44 1938.83,1381.61 1943.24,1381.77 1947.65,1381.92 1952.06,1382.07 1956.47,1382.2 1960.88,1382.33 1965.29,1382.45 1969.7,1382.56 
  1974.11,1382.67 1978.52,1382.77 1982.93,1382.86 1987.34,1382.95 1991.74,1383.03 1996.15,1383.11 2000.56,1383.18 2004.97,1383.25 2009.38,1383.32 2013.79,1383.38 
  2018.2,1383.43 2022.61,1383.49 2027.02,1383.54 2031.43,1383.58 2035.84,1383.63 2040.25,1383.67 2044.66,1383.71 2049.07,1383.74 2053.48,1383.77 2057.89,1383.81 
  2062.3,1383.84 2066.71,1383.86 2071.12,1383.89 2075.53,1383.91 2079.94,1383.94 2084.35,1383.96 2088.76,1383.98 2093.17,1383.99 2097.58,1384.01 2101.99,1384.03 
  2106.39,1384.04 2110.8,1384.06 2115.21,1384.07 2119.62,1384.08 2124.03,1384.09 2128.44,1384.1 2132.85,1384.11 2137.26,1384.12 2141.67,1384.13 2146.08,1384.14 
  2150.49,1384.14 2154.9,1384.15 2159.31,1384.16 2163.72,1384.16 2168.13,1384.17 2172.54,1384.17 2176.95,1384.18 2181.36,1384.18 2185.77,1384.19 2190.18,1384.19 
  2194.59,1384.19 
  "/>
<path clip-path="url(#clip450)" d="
M1810.62 335.029 L2282.28 335.029 L2282.28 93.1086 L1810.62 93.1086  Z
  " fill="#ffffff" fill-rule="evenodd" fill-opacity="1"/>
<polyline clip-path="url(#clip450)" style="stroke:#000000; stroke-width:4; stroke-opacity:1; fill:none" points="
  1810.62,335.029 2282.28,335.029 2282.28,93.1086 1810.62,93.1086 1810.62,335.029 
  "/>
<path clip-path="url(#clip450)" d="
M1834.11 177.781 L1975.06 177.781 L1975.06 129.397 L1834.11 129.397 L1834.11 177.781  Z
  " fill="#009af9" fill-rule="evenodd" fill-opacity="1"/>
<polyline clip-path="url(#clip450)" style="stroke:#009af9; stroke-width:4; stroke-opacity:1; fill:none" points="
  1834.11,177.781 1975.06,177.781 1975.06,129.397 1834.11,129.397 1834.11,177.781 
  "/>
<path clip-path="url(#clip450)" d="M 0 0 M2012.39 173.276 Q2010.58 177.906 2008.87 179.318 Q2007.16 180.73 2004.29 180.73 L2000.88 180.73 L2000.88 177.165 L2003.38 177.165 Q2005.14 177.165 2006.12 176.332 Q2007.09 175.498 2008.27 172.396 L2009.03 170.452 L1998.55 144.943 L2003.06 144.943 L2011.16 165.221 L2019.26 144.943 L2023.78 144.943 L2012.39 173.276 Z" fill="#000000" fill-rule="evenodd" fill-opacity="1" /><path clip-path="url(#clip450)" d="M 0 0 M2029.66 166.933 L2037.3 166.933 L2037.3 140.568 L2028.99 142.235 L2028.99 137.975 L2037.25 136.309 L2041.93 136.309 L2041.93 166.933 L2049.56 166.933 L2049.56 170.869 L2029.66 170.869 L2029.66 166.933 Z" fill="#000000" fill-rule="evenodd" fill-opacity="1" /><polyline clip-path="url(#clip450)" style="stroke:#e26f46; stroke-width:4; stroke-opacity:1; fill:none" points="
  1834.11,214.069 1975.06,214.069 
  "/>
<path clip-path="url(#clip450)" d="M 0 0 M2017.46 218.085 Q2017.46 213.455 2015.54 210.909 Q2013.64 208.363 2010.19 208.363 Q2006.76 208.363 2004.84 210.909 Q2002.94 213.455 2002.94 218.085 Q2002.94 222.691 2004.84 225.238 Q2006.76 227.784 2010.19 227.784 Q2013.64 227.784 2015.54 225.238 Q2017.46 222.691 2017.46 218.085 M2021.72 228.131 Q2021.72 234.751 2018.78 237.969 Q2015.84 241.21 2009.77 241.21 Q2007.53 241.21 2005.54 240.862 Q2003.55 240.538 2001.67 239.844 L2001.67 235.7 Q2003.55 236.719 2005.37 237.205 Q2007.2 237.691 2009.1 237.691 Q2013.29 237.691 2015.37 235.492 Q2017.46 233.316 2017.46 228.895 L2017.46 226.788 Q2016.14 229.08 2014.08 230.214 Q2012.02 231.349 2009.15 231.349 Q2004.38 231.349 2001.46 227.714 Q1998.55 224.08 1998.55 218.085 Q1998.55 212.066 2001.46 208.432 Q2004.38 204.798 2009.15 204.798 Q2012.02 204.798 2014.08 205.932 Q2016.14 207.066 2017.46 209.358 L2017.46 205.423 L2021.72 205.423 L2021.72 228.131 Z" fill="#000000" fill-rule="evenodd" fill-opacity="1" /><path clip-path="url(#clip450)" d="M 0 0 M2037.97 218.316 Q2032.8 218.316 2030.81 219.497 Q2028.82 220.677 2028.82 223.525 Q2028.82 225.793 2030.3 227.136 Q2031.81 228.455 2034.38 228.455 Q2037.92 228.455 2040.05 225.955 Q2042.2 223.432 2042.2 219.265 L2042.2 218.316 L2037.97 218.316 M2046.46 216.557 L2046.46 231.349 L2042.2 231.349 L2042.2 227.413 Q2040.74 229.775 2038.57 230.909 Q2036.39 232.02 2033.24 232.02 Q2029.26 232.02 2026.9 229.798 Q2024.56 227.552 2024.56 223.802 Q2024.56 219.427 2027.48 217.205 Q2030.42 214.983 2036.23 214.983 L2042.2 214.983 L2042.2 214.566 Q2042.2 211.627 2040.26 210.029 Q2038.34 208.409 2034.84 208.409 Q2032.62 208.409 2030.51 208.941 Q2028.41 209.474 2026.46 210.539 L2026.46 206.603 Q2028.8 205.701 2031 205.261 Q2033.2 204.798 2035.28 204.798 Q2040.91 204.798 2043.68 207.714 Q2046.46 210.631 2046.46 216.557 Z" fill="#000000" fill-rule="evenodd" fill-opacity="1" /><path clip-path="url(#clip450)" d="M 0 0 M2050.49 221.117 L2050.49 205.423 L2054.75 205.423 L2054.75 220.955 Q2054.75 224.636 2056.18 226.488 Q2057.62 228.316 2060.49 228.316 Q2063.94 228.316 2065.93 226.117 Q2067.94 223.918 2067.94 220.122 L2067.94 205.423 L2072.2 205.423 L2072.2 231.349 L2067.94 231.349 L2067.94 227.367 Q2066.39 229.728 2064.33 230.886 Q2062.3 232.02 2059.59 232.02 Q2055.12 232.02 2052.8 229.242 Q2050.49 226.464 2050.49 221.117 M2061.21 204.798 L2061.21 204.798 Z" fill="#000000" fill-rule="evenodd" fill-opacity="1" /><path clip-path="url(#clip450)" d="M 0 0 M2093.2 206.187 L2093.2 210.214 Q2091.39 209.289 2089.45 208.826 Q2087.5 208.363 2085.42 208.363 Q2082.25 208.363 2080.65 209.335 Q2079.08 210.307 2079.08 212.251 Q2079.08 213.733 2080.21 214.589 Q2081.35 215.423 2084.77 216.187 L2086.23 216.511 Q2090.77 217.483 2092.67 219.265 Q2094.59 221.025 2094.59 224.196 Q2094.59 227.807 2091.72 229.913 Q2088.87 232.02 2083.87 232.02 Q2081.79 232.02 2079.52 231.603 Q2077.27 231.21 2074.77 230.4 L2074.77 226.001 Q2077.13 227.228 2079.42 227.853 Q2081.72 228.455 2083.96 228.455 Q2086.97 228.455 2088.59 227.437 Q2090.21 226.395 2090.21 224.52 Q2090.21 222.784 2089.03 221.858 Q2087.87 220.932 2083.92 220.076 L2082.43 219.728 Q2078.48 218.895 2076.72 217.182 Q2074.96 215.446 2074.96 212.437 Q2074.96 208.779 2077.55 206.789 Q2080.14 204.798 2084.91 204.798 Q2087.27 204.798 2089.36 205.145 Q2091.44 205.492 2093.2 206.187 Z" fill="#000000" fill-rule="evenodd" fill-opacity="1" /><path clip-path="url(#clip450)" d="M 0 0 M2115.58 206.187 L2115.58 210.214 Q2113.78 209.289 2111.83 208.826 Q2109.89 208.363 2107.8 208.363 Q2104.63 208.363 2103.04 209.335 Q2101.46 210.307 2101.46 212.251 Q2101.46 213.733 2102.6 214.589 Q2103.73 215.423 2107.16 216.187 L2108.61 216.511 Q2113.15 217.483 2115.05 219.265 Q2116.97 221.025 2116.97 224.196 Q2116.97 227.807 2114.1 229.913 Q2111.25 232.02 2106.25 232.02 Q2104.17 232.02 2101.9 231.603 Q2099.66 231.21 2097.16 230.4 L2097.16 226.001 Q2099.52 227.228 2101.81 227.853 Q2104.1 228.455 2106.35 228.455 Q2109.36 228.455 2110.98 227.437 Q2112.6 226.395 2112.6 224.52 Q2112.6 222.784 2111.42 221.858 Q2110.26 220.932 2106.3 220.076 L2104.82 219.728 Q2100.86 218.895 2099.1 217.182 Q2097.34 215.446 2097.34 212.437 Q2097.34 208.779 2099.93 206.789 Q2102.53 204.798 2107.3 204.798 Q2109.66 204.798 2111.74 205.145 Q2113.82 205.492 2115.58 206.187 Z" fill="#000000" fill-rule="evenodd" fill-opacity="1" /><path clip-path="url(#clip450)" d="M 0 0 M2121.44 205.423 L2125.7 205.423 L2125.7 231.349 L2121.44 231.349 L2121.44 205.423 M2121.44 195.33 L2125.7 195.33 L2125.7 200.724 L2121.44 200.724 L2121.44 195.33 Z" fill="#000000" fill-rule="evenodd" fill-opacity="1" /><path clip-path="url(#clip450)" d="M 0 0 M2141.95 218.316 Q2136.79 218.316 2134.79 219.497 Q2132.8 220.677 2132.8 223.525 Q2132.8 225.793 2134.29 227.136 Q2135.79 228.455 2138.36 228.455 Q2141.9 228.455 2144.03 225.955 Q2146.18 223.432 2146.18 219.265 L2146.18 218.316 L2141.95 218.316 M2150.44 216.557 L2150.44 231.349 L2146.18 231.349 L2146.18 227.413 Q2144.73 229.775 2142.55 230.909 Q2140.37 232.02 2137.23 232.02 Q2133.24 232.02 2130.88 229.798 Q2128.55 227.552 2128.55 223.802 Q2128.55 219.427 2131.46 217.205 Q2134.4 214.983 2140.21 214.983 L2146.18 214.983 L2146.18 214.566 Q2146.18 211.627 2144.24 210.029 Q2142.32 208.409 2138.82 208.409 Q2136.6 208.409 2134.49 208.941 Q2132.39 209.474 2130.44 210.539 L2130.44 206.603 Q2132.78 205.701 2134.98 205.261 Q2137.18 204.798 2139.26 204.798 Q2144.89 204.798 2147.67 207.714 Q2150.44 210.631 2150.44 216.557 Z" fill="#000000" fill-rule="evenodd" fill-opacity="1" /><path clip-path="url(#clip450)" d="M 0 0 M2176.46 215.701 L2176.46 231.349 L2172.2 231.349 L2172.2 215.839 Q2172.2 212.159 2170.77 210.33 Q2169.33 208.502 2166.46 208.502 Q2163.01 208.502 2161.02 210.701 Q2159.03 212.9 2159.03 216.696 L2159.03 231.349 L2154.75 231.349 L2154.75 205.423 L2159.03 205.423 L2159.03 209.451 Q2160.56 207.113 2162.62 205.955 Q2164.7 204.798 2167.41 204.798 Q2171.88 204.798 2174.17 207.576 Q2176.46 210.33 2176.46 215.701 Z" fill="#000000" fill-rule="evenodd" fill-opacity="1" /><path clip-path="url(#clip450)" d="M 0 0 M2209.12 195.33 L2209.12 198.872 L2205.05 198.872 Q2202.76 198.872 2201.85 199.798 Q2200.98 200.724 2200.98 203.131 L2200.98 205.423 L2207.99 205.423 L2207.99 208.733 L2200.98 208.733 L2200.98 231.349 L2196.69 231.349 L2196.69 208.733 L2192.62 208.733 L2192.62 205.423 L2196.69 205.423 L2196.69 203.617 Q2196.69 199.289 2198.71 197.321 Q2200.72 195.33 2205.1 195.33 L2209.12 195.33 Z" fill="#000000" fill-rule="evenodd" fill-opacity="1" /><path clip-path="url(#clip450)" d="M 0 0 M2213.59 205.423 L2217.85 205.423 L2217.85 231.349 L2213.59 231.349 L2213.59 205.423 M2213.59 195.33 L2217.85 195.33 L2217.85 200.724 L2213.59 200.724 L2213.59 195.33 Z" fill="#000000" fill-rule="evenodd" fill-opacity="1" /><path clip-path="url(#clip450)" d="M 0 0 M2226.53 198.062 L2226.53 205.423 L2235.3 205.423 L2235.3 208.733 L2226.53 208.733 L2226.53 222.807 Q2226.53 225.978 2227.39 226.881 Q2228.27 227.784 2230.93 227.784 L2235.3 227.784 L2235.3 231.349 L2230.93 231.349 Q2226 231.349 2224.12 229.52 Q2222.25 227.668 2222.25 222.807 L2222.25 208.733 L2219.12 208.733 L2219.12 205.423 L2222.25 205.423 L2222.25 198.062 L2226.53 198.062 Z" fill="#000000" fill-rule="evenodd" fill-opacity="1" /><polyline clip-path="url(#clip450)" style="stroke:#3da44d; stroke-width:4; stroke-opacity:1; fill:none" points="
  1834.11,274.549 1975.06,274.549 
  "/>
<path clip-path="url(#clip450)" d="M 0 0 M2002.83 287.94 L2002.83 301.69 L1998.55 301.69 L1998.55 265.903 L2002.83 265.903 L2002.83 269.838 Q2004.17 267.523 2006.21 266.412 Q2008.27 265.278 2011.12 265.278 Q2015.84 265.278 2018.78 269.028 Q2021.74 272.778 2021.74 278.889 Q2021.74 285 2018.78 288.75 Q2015.84 292.5 2011.12 292.5 Q2008.27 292.5 2006.21 291.389 Q2004.17 290.255 2002.83 287.94 M2017.32 278.889 Q2017.32 274.19 2015.37 271.528 Q2013.45 268.843 2010.07 268.843 Q2006.69 268.843 2004.75 271.528 Q2002.83 274.19 2002.83 278.889 Q2002.83 283.588 2004.75 286.273 Q2006.69 288.935 2010.07 288.935 Q2013.45 288.935 2015.37 286.273 Q2017.32 283.588 2017.32 278.889 Z" fill="#000000" fill-rule="evenodd" fill-opacity="1" /><path clip-path="url(#clip450)" d="M 0 0 M2036.25 268.889 Q2032.83 268.889 2030.84 271.574 Q2028.85 274.236 2028.85 278.889 Q2028.85 283.542 2030.81 286.227 Q2032.8 288.889 2036.25 288.889 Q2039.66 288.889 2041.65 286.204 Q2043.64 283.518 2043.64 278.889 Q2043.64 274.282 2041.65 271.597 Q2039.66 268.889 2036.25 268.889 M2036.25 265.278 Q2041.81 265.278 2044.98 268.889 Q2048.15 272.5 2048.15 278.889 Q2048.15 285.255 2044.98 288.889 Q2041.81 292.5 2036.25 292.5 Q2030.68 292.5 2027.5 288.889 Q2024.36 285.255 2024.36 278.889 Q2024.36 272.5 2027.5 268.889 Q2030.68 265.278 2036.25 265.278 Z" fill="#000000" fill-rule="evenodd" fill-opacity="1" /><path clip-path="url(#clip450)" d="M 0 0 M2052.62 265.903 L2056.88 265.903 L2056.88 291.829 L2052.62 291.829 L2052.62 265.903 M2052.62 255.81 L2056.88 255.81 L2056.88 261.204 L2052.62 261.204 L2052.62 255.81 Z" fill="#000000" fill-rule="evenodd" fill-opacity="1" /><path clip-path="url(#clip450)" d="M 0 0 M2077.87 266.667 L2077.87 270.694 Q2076.07 269.769 2074.12 269.306 Q2072.18 268.843 2070.1 268.843 Q2066.92 268.843 2065.33 269.815 Q2063.75 270.787 2063.75 272.731 Q2063.75 274.213 2064.89 275.069 Q2066.02 275.903 2069.45 276.667 L2070.91 276.991 Q2075.44 277.963 2077.34 279.745 Q2079.26 281.505 2079.26 284.676 Q2079.26 288.287 2076.39 290.393 Q2073.55 292.5 2068.55 292.5 Q2066.46 292.5 2064.19 292.083 Q2061.95 291.69 2059.45 290.88 L2059.45 286.481 Q2061.81 287.708 2064.1 288.333 Q2066.39 288.935 2068.64 288.935 Q2071.65 288.935 2073.27 287.917 Q2074.89 286.875 2074.89 285 Q2074.89 283.264 2073.71 282.338 Q2072.55 281.412 2068.59 280.556 L2067.11 280.208 Q2063.15 279.375 2061.39 277.662 Q2059.63 275.926 2059.63 272.917 Q2059.63 269.259 2062.23 267.269 Q2064.82 265.278 2069.59 265.278 Q2071.95 265.278 2074.03 265.625 Q2076.11 265.972 2077.87 266.667 Z" fill="#000000" fill-rule="evenodd" fill-opacity="1" /><path clip-path="url(#clip450)" d="M 0 0 M2100.26 266.667 L2100.26 270.694 Q2098.45 269.769 2096.51 269.306 Q2094.56 268.843 2092.48 268.843 Q2089.31 268.843 2087.71 269.815 Q2086.14 270.787 2086.14 272.731 Q2086.14 274.213 2087.27 275.069 Q2088.41 275.903 2091.83 276.667 L2093.29 276.991 Q2097.83 277.963 2099.73 279.745 Q2101.65 281.505 2101.65 284.676 Q2101.65 288.287 2098.78 290.393 Q2095.93 292.5 2090.93 292.5 Q2088.85 292.5 2086.58 292.083 Q2084.33 291.69 2081.83 290.88 L2081.83 286.481 Q2084.19 287.708 2086.49 288.333 Q2088.78 288.935 2091.02 288.935 Q2094.03 288.935 2095.65 287.917 Q2097.27 286.875 2097.27 285 Q2097.27 283.264 2096.09 282.338 Q2094.93 281.412 2090.98 280.556 L2089.49 280.208 Q2085.54 279.375 2083.78 277.662 Q2082.02 275.926 2082.02 272.917 Q2082.02 269.259 2084.61 267.269 Q2087.2 265.278 2091.97 265.278 Q2094.33 265.278 2096.42 265.625 Q2098.5 265.972 2100.26 266.667 Z" fill="#000000" fill-rule="evenodd" fill-opacity="1" /><path clip-path="url(#clip450)" d="M 0 0 M2116.16 268.889 Q2112.73 268.889 2110.74 271.574 Q2108.75 274.236 2108.75 278.889 Q2108.75 283.542 2110.72 286.227 Q2112.71 288.889 2116.16 288.889 Q2119.56 288.889 2121.55 286.204 Q2123.55 283.518 2123.55 278.889 Q2123.55 274.282 2121.55 271.597 Q2119.56 268.889 2116.16 268.889 M2116.16 265.278 Q2121.72 265.278 2124.89 268.889 Q2128.06 272.5 2128.06 278.889 Q2128.06 285.255 2124.89 288.889 Q2121.72 292.5 2116.16 292.5 Q2110.58 292.5 2107.41 288.889 Q2104.26 285.255 2104.26 278.889 Q2104.26 272.5 2107.41 268.889 Q2110.58 265.278 2116.16 265.278 Z" fill="#000000" fill-rule="evenodd" fill-opacity="1" /><path clip-path="url(#clip450)" d="M 0 0 M2154.08 276.181 L2154.08 291.829 L2149.82 291.829 L2149.82 276.319 Q2149.82 272.639 2148.38 270.81 Q2146.95 268.982 2144.08 268.982 Q2140.63 268.982 2138.64 271.181 Q2136.65 273.38 2136.65 277.176 L2136.65 291.829 L2132.36 291.829 L2132.36 265.903 L2136.65 265.903 L2136.65 269.931 Q2138.17 267.593 2140.23 266.435 Q2142.32 265.278 2145.03 265.278 Q2149.49 265.278 2151.79 268.056 Q2154.08 270.81 2154.08 276.181 Z" fill="#000000" fill-rule="evenodd" fill-opacity="1" /><path clip-path="url(#clip450)" d="M 0 0 M2186.74 255.81 L2186.74 259.352 L2182.67 259.352 Q2180.37 259.352 2179.47 260.278 Q2178.59 261.204 2178.59 263.611 L2178.59 265.903 L2185.6 265.903 L2185.6 269.213 L2178.59 269.213 L2178.59 291.829 L2174.31 291.829 L2174.31 269.213 L2170.23 269.213 L2170.23 265.903 L2174.31 265.903 L2174.31 264.097 Q2174.31 259.769 2176.32 257.801 Q2178.34 255.81 2182.71 255.81 L2186.74 255.81 Z" fill="#000000" fill-rule="evenodd" fill-opacity="1" /><path clip-path="url(#clip450)" d="M 0 0 M2191.21 265.903 L2195.47 265.903 L2195.47 291.829 L2191.21 291.829 L2191.21 265.903 M2191.21 255.81 L2195.47 255.81 L2195.47 261.204 L2191.21 261.204 L2191.21 255.81 Z" fill="#000000" fill-rule="evenodd" fill-opacity="1" /><path clip-path="url(#clip450)" d="M 0 0 M2204.15 258.542 L2204.15 265.903 L2212.92 265.903 L2212.92 269.213 L2204.15 269.213 L2204.15 283.287 Q2204.15 286.458 2205 287.361 Q2205.88 288.264 2208.54 288.264 L2212.92 288.264 L2212.92 291.829 L2208.54 291.829 Q2203.61 291.829 2201.74 290 Q2199.86 288.148 2199.86 283.287 L2199.86 269.213 L2196.74 269.213 L2196.74 265.903 L2199.86 265.903 L2199.86 258.542 L2204.15 258.542 Z" fill="#000000" fill-rule="evenodd" fill-opacity="1" /></svg>
