<?xml version="1.0" encoding="utf-8"?>
<svg xmlns="http://www.w3.org/2000/svg" xmlns:xlink="http://www.w3.org/1999/xlink" width="600" height="400" viewBox="0 0 2400 1600">
<defs>
  <clipPath id="clip150">
    <rect x="0" y="0" width="2400" height="1600"/>
  </clipPath>
</defs>
<path clip-path="url(#clip150)" d="
M0 1600 L2400 1600 L2400 0 L0 0  Z
  " fill="#ffffff" fill-rule="evenodd" fill-opacity="1"/>
<defs>
  <clipPath id="clip151">
    <rect x="480" y="0" width="1681" height="1600"/>
  </clipPath>
</defs>
<path clip-path="url(#clip150)" d="
M211.602 1423.18 L2352.76 1423.18 L2352.76 47.2441 L211.602 47.2441  Z
  " fill="#ffffff" fill-rule="evenodd" fill-opacity="1"/>
<defs>
  <clipPath id="clip152">
    <rect x="211" y="47" width="2142" height="1377"/>
  </clipPath>
</defs>
<polyline clip-path="url(#clip152)" style="stroke:#000000; stroke-width:2; stroke-opacity:0.1; fill:none" points="
  329.37,1423.18 329.37,47.2441 
  "/>
<polyline clip-path="url(#clip152)" style="stroke:#000000; stroke-width:2; stroke-opacity:0.1; fill:none" points="
  805.774,1423.18 805.774,47.2441 
  "/>
<polyline clip-path="url(#clip152)" style="stroke:#000000; stroke-width:2; stroke-opacity:0.1; fill:none" points="
  1282.18,1423.18 1282.18,47.2441 
  "/>
<polyline clip-path="url(#clip152)" style="stroke:#000000; stroke-width:2; stroke-opacity:0.1; fill:none" points="
  1758.58,1423.18 1758.58,47.2441 
  "/>
<polyline clip-path="url(#clip152)" style="stroke:#000000; stroke-width:2; stroke-opacity:0.1; fill:none" points="
  2234.99,1423.18 2234.99,47.2441 
  "/>
<polyline clip-path="url(#clip150)" style="stroke:#000000; stroke-width:4; stroke-opacity:1; fill:none" points="
  211.602,1423.18 2352.76,1423.18 
  "/>
<polyline clip-path="url(#clip150)" style="stroke:#000000; stroke-width:4; stroke-opacity:1; fill:none" points="
  329.37,1423.18 329.37,1406.67 
  "/>
<polyline clip-path="url(#clip150)" style="stroke:#000000; stroke-width:4; stroke-opacity:1; fill:none" points="
  805.774,1423.18 805.774,1406.67 
  "/>
<polyline clip-path="url(#clip150)" style="stroke:#000000; stroke-width:4; stroke-opacity:1; fill:none" points="
  1282.18,1423.18 1282.18,1406.67 
  "/>
<polyline clip-path="url(#clip150)" style="stroke:#000000; stroke-width:4; stroke-opacity:1; fill:none" points="
  1758.58,1423.18 1758.58,1406.67 
  "/>
<polyline clip-path="url(#clip150)" style="stroke:#000000; stroke-width:4; stroke-opacity:1; fill:none" points="
  2234.99,1423.18 2234.99,1406.67 
  "/>
<path clip-path="url(#clip150)" d="M 0 0 M310.886 1452.37 Q307.275 1452.37 305.446 1455.94 Q303.641 1459.48 303.641 1466.61 Q303.641 1473.71 305.446 1477.28 Q307.275 1480.82 310.886 1480.82 Q314.52 1480.82 316.326 1477.28 Q318.154 1473.71 318.154 1466.61 Q318.154 1459.48 316.326 1455.94 Q314.52 1452.37 310.886 1452.37 M310.886 1448.67 Q316.696 1448.67 319.752 1453.27 Q322.83 1457.86 322.83 1466.61 Q322.83 1475.33 319.752 1479.94 Q316.696 1484.52 310.886 1484.52 Q305.076 1484.52 301.997 1479.94 Q298.942 1475.33 298.942 1466.61 Q298.942 1457.86 301.997 1453.27 Q305.076 1448.67 310.886 1448.67 Z" fill="#000000" fill-rule="evenodd" fill-opacity="1" /><path clip-path="url(#clip150)" d="M 0 0 M327.9 1477.97 L332.784 1477.97 L332.784 1483.85 L327.9 1483.85 L327.9 1477.97 Z" fill="#000000" fill-rule="evenodd" fill-opacity="1" /><path clip-path="url(#clip150)" d="M 0 0 M347.853 1452.37 Q344.242 1452.37 342.414 1455.94 Q340.608 1459.48 340.608 1466.61 Q340.608 1473.71 342.414 1477.28 Q344.242 1480.82 347.853 1480.82 Q351.488 1480.82 353.293 1477.28 Q355.122 1473.71 355.122 1466.61 Q355.122 1459.48 353.293 1455.94 Q351.488 1452.37 347.853 1452.37 M347.853 1448.67 Q353.664 1448.67 356.719 1453.27 Q359.798 1457.86 359.798 1466.61 Q359.798 1475.33 356.719 1479.94 Q353.664 1484.52 347.853 1484.52 Q342.043 1484.52 338.965 1479.94 Q335.909 1475.33 335.909 1466.61 Q335.909 1457.86 338.965 1453.27 Q342.043 1448.67 347.853 1448.67 Z" fill="#000000" fill-rule="evenodd" fill-opacity="1" /><path clip-path="url(#clip150)" d="M 0 0 M782.441 1479.92 L798.761 1479.92 L798.761 1483.85 L776.816 1483.85 L776.816 1479.92 Q779.478 1477.16 784.062 1472.53 Q788.668 1467.88 789.849 1466.54 Q792.094 1464.01 792.974 1462.28 Q793.876 1460.52 793.876 1458.83 Q793.876 1456.07 791.932 1454.34 Q790.011 1452.6 786.909 1452.6 Q784.71 1452.6 782.256 1453.37 Q779.825 1454.13 777.048 1455.68 L777.048 1450.96 Q779.872 1449.82 782.325 1449.25 Q784.779 1448.67 786.816 1448.67 Q792.187 1448.67 795.381 1451.35 Q798.575 1454.04 798.575 1458.53 Q798.575 1460.66 797.765 1462.58 Q796.978 1464.48 794.872 1467.07 Q794.293 1467.74 791.191 1470.96 Q788.089 1474.15 782.441 1479.92 Z" fill="#000000" fill-rule="evenodd" fill-opacity="1" /><path clip-path="url(#clip150)" d="M 0 0 M803.83 1477.97 L808.714 1477.97 L808.714 1483.85 L803.83 1483.85 L803.83 1477.97 Z" fill="#000000" fill-rule="evenodd" fill-opacity="1" /><path clip-path="url(#clip150)" d="M 0 0 M813.83 1449.29 L832.186 1449.29 L832.186 1453.23 L818.112 1453.23 L818.112 1461.7 Q819.131 1461.35 820.149 1461.19 Q821.168 1461 822.186 1461 Q827.973 1461 831.353 1464.18 Q834.733 1467.35 834.733 1472.76 Q834.733 1478.34 831.26 1481.44 Q827.788 1484.52 821.469 1484.52 Q819.293 1484.52 817.024 1484.15 Q814.779 1483.78 812.372 1483.04 L812.372 1478.34 Q814.455 1479.48 816.677 1480.03 Q818.899 1480.59 821.376 1480.59 Q825.381 1480.59 827.719 1478.48 Q830.057 1476.38 830.057 1472.76 Q830.057 1469.15 827.719 1467.05 Q825.381 1464.94 821.376 1464.94 Q819.501 1464.94 817.626 1465.36 Q815.774 1465.77 813.83 1466.65 L813.83 1449.29 Z" fill="#000000" fill-rule="evenodd" fill-opacity="1" /><path clip-path="url(#clip150)" d="M 0 0 M1253.97 1449.29 L1272.33 1449.29 L1272.33 1453.23 L1258.26 1453.23 L1258.26 1461.7 Q1259.27 1461.35 1260.29 1461.19 Q1261.31 1461 1262.33 1461 Q1268.12 1461 1271.5 1464.18 Q1274.88 1467.35 1274.88 1472.76 Q1274.88 1478.34 1271.4 1481.44 Q1267.93 1484.52 1261.61 1484.52 Q1259.44 1484.52 1257.17 1484.15 Q1254.92 1483.78 1252.51 1483.04 L1252.51 1478.34 Q1254.6 1479.48 1256.82 1480.03 Q1259.04 1480.59 1261.52 1480.59 Q1265.52 1480.59 1267.86 1478.48 Q1270.2 1476.38 1270.2 1472.76 Q1270.2 1469.15 1267.86 1467.05 Q1265.52 1464.94 1261.52 1464.94 Q1259.64 1464.94 1257.77 1465.36 Q1255.92 1465.77 1253.97 1466.65 L1253.97 1449.29 Z" fill="#000000" fill-rule="evenodd" fill-opacity="1" /><path clip-path="url(#clip150)" d="M 0 0 M1279.95 1477.97 L1284.83 1477.97 L1284.83 1483.85 L1279.95 1483.85 L1279.95 1477.97 Z" fill="#000000" fill-rule="evenodd" fill-opacity="1" /><path clip-path="url(#clip150)" d="M 0 0 M1299.9 1452.37 Q1296.29 1452.37 1294.46 1455.94 Q1292.65 1459.48 1292.65 1466.61 Q1292.65 1473.71 1294.46 1477.28 Q1296.29 1480.82 1299.9 1480.82 Q1303.53 1480.82 1305.34 1477.28 Q1307.17 1473.71 1307.17 1466.61 Q1307.17 1459.48 1305.34 1455.94 Q1303.53 1452.37 1299.9 1452.37 M1299.9 1448.67 Q1305.71 1448.67 1308.76 1453.27 Q1311.84 1457.86 1311.84 1466.61 Q1311.84 1475.33 1308.76 1479.94 Q1305.71 1484.52 1299.9 1484.52 Q1294.09 1484.52 1291.01 1479.94 Q1287.95 1475.33 1287.95 1466.61 Q1287.95 1457.86 1291.01 1453.27 Q1294.09 1448.67 1299.9 1448.67 Z" fill="#000000" fill-rule="evenodd" fill-opacity="1" /><path clip-path="url(#clip150)" d="M 0 0 M1729.49 1449.29 L1751.71 1449.29 L1751.71 1451.28 L1739.16 1483.85 L1734.28 1483.85 L1746.08 1453.23 L1729.49 1453.23 L1729.49 1449.29 Z" fill="#000000" fill-rule="evenodd" fill-opacity="1" /><path clip-path="url(#clip150)" d="M 0 0 M1756.78 1477.97 L1761.66 1477.97 L1761.66 1483.85 L1756.78 1483.85 L1756.78 1477.97 Z" fill="#000000" fill-rule="evenodd" fill-opacity="1" /><path clip-path="url(#clip150)" d="M 0 0 M1766.78 1449.29 L1785.13 1449.29 L1785.13 1453.23 L1771.06 1453.23 L1771.06 1461.7 Q1772.08 1461.35 1773.1 1461.19 Q1774.12 1461 1775.13 1461 Q1780.92 1461 1784.3 1464.18 Q1787.68 1467.35 1787.68 1472.76 Q1787.68 1478.34 1784.21 1481.44 Q1780.74 1484.52 1774.42 1484.52 Q1772.24 1484.52 1769.97 1484.15 Q1767.73 1483.78 1765.32 1483.04 L1765.32 1478.34 Q1767.4 1479.48 1769.63 1480.03 Q1771.85 1480.59 1774.32 1480.59 Q1778.33 1480.59 1780.67 1478.48 Q1783.01 1476.38 1783.01 1472.76 Q1783.01 1469.15 1780.67 1467.05 Q1778.33 1464.94 1774.32 1464.94 Q1772.45 1464.94 1770.57 1465.36 Q1768.72 1465.77 1766.78 1466.65 L1766.78 1449.29 Z" fill="#000000" fill-rule="evenodd" fill-opacity="1" /><path clip-path="url(#clip150)" d="M 0 0 M2193.38 1479.92 L2201.02 1479.92 L2201.02 1453.55 L2192.71 1455.22 L2192.71 1450.96 L2200.97 1449.29 L2205.65 1449.29 L2205.65 1479.92 L2213.29 1479.92 L2213.29 1483.85 L2193.38 1483.85 L2193.38 1479.92 Z" fill="#000000" fill-rule="evenodd" fill-opacity="1" /><path clip-path="url(#clip150)" d="M 0 0 M2228.36 1452.37 Q2224.75 1452.37 2222.92 1455.94 Q2221.11 1459.48 2221.11 1466.61 Q2221.11 1473.71 2222.92 1477.28 Q2224.75 1480.82 2228.36 1480.82 Q2231.99 1480.82 2233.8 1477.28 Q2235.63 1473.71 2235.63 1466.61 Q2235.63 1459.48 2233.8 1455.94 Q2231.99 1452.37 2228.36 1452.37 M2228.36 1448.67 Q2234.17 1448.67 2237.22 1453.27 Q2240.3 1457.86 2240.3 1466.61 Q2240.3 1475.33 2237.22 1479.94 Q2234.17 1484.52 2228.36 1484.52 Q2222.55 1484.52 2219.47 1479.94 Q2216.41 1475.33 2216.41 1466.61 Q2216.41 1457.86 2219.47 1453.27 Q2222.55 1448.67 2228.36 1448.67 Z" fill="#000000" fill-rule="evenodd" fill-opacity="1" /><path clip-path="url(#clip150)" d="M 0 0 M2245.37 1477.97 L2250.25 1477.97 L2250.25 1483.85 L2245.37 1483.85 L2245.37 1477.97 Z" fill="#000000" fill-rule="evenodd" fill-opacity="1" /><path clip-path="url(#clip150)" d="M 0 0 M2265.32 1452.37 Q2261.71 1452.37 2259.88 1455.94 Q2258.08 1459.48 2258.08 1466.61 Q2258.08 1473.71 2259.88 1477.28 Q2261.71 1480.82 2265.32 1480.82 Q2268.96 1480.82 2270.76 1477.28 Q2272.59 1473.71 2272.59 1466.61 Q2272.59 1459.48 2270.76 1455.94 Q2268.96 1452.37 2265.32 1452.37 M2265.32 1448.67 Q2271.13 1448.67 2274.19 1453.27 Q2277.27 1457.86 2277.27 1466.61 Q2277.27 1475.33 2274.19 1479.94 Q2271.13 1484.52 2265.32 1484.52 Q2259.51 1484.52 2256.44 1479.94 Q2253.38 1475.33 2253.38 1466.61 Q2253.38 1457.86 2256.44 1453.27 Q2259.51 1448.67 2265.32 1448.67 Z" fill="#000000" fill-rule="evenodd" fill-opacity="1" /><path clip-path="url(#clip150)" d="M 0 0 M1272.12 1562.7 L1272.12 1581.6 L1266.23 1581.6 L1266.23 1532.4 L1272.12 1532.4 L1272.12 1537.81 Q1273.97 1534.62 1276.77 1533.1 Q1279.6 1531.54 1283.52 1531.54 Q1290.01 1531.54 1294.05 1536.69 Q1298.13 1541.85 1298.13 1550.25 Q1298.13 1558.65 1294.05 1563.81 Q1290.01 1568.97 1283.52 1568.97 Q1279.6 1568.97 1276.77 1567.44 Q1273.97 1565.88 1272.12 1562.7 M1292.05 1550.25 Q1292.05 1543.79 1289.37 1540.13 Q1286.73 1536.44 1282.08 1536.44 Q1277.44 1536.44 1274.76 1540.13 Q1272.12 1543.79 1272.12 1550.25 Q1272.12 1556.71 1274.76 1560.4 Q1277.44 1564.07 1282.08 1564.07 Q1286.73 1564.07 1289.37 1560.4 Q1292.05 1556.71 1292.05 1550.25 Z" fill="#000000" fill-rule="evenodd" fill-opacity="1" /><polyline clip-path="url(#clip152)" style="stroke:#000000; stroke-width:2; stroke-opacity:0.1; fill:none" points="
  211.602,1384.24 2352.76,1384.24 
  "/>
<polyline clip-path="url(#clip152)" style="stroke:#000000; stroke-width:2; stroke-opacity:0.1; fill:none" points="
  211.602,1191.48 2352.76,1191.48 
  "/>
<polyline clip-path="url(#clip152)" style="stroke:#000000; stroke-width:2; stroke-opacity:0.1; fill:none" points="
  211.602,998.732 2352.76,998.732 
  "/>
<polyline clip-path="url(#clip152)" style="stroke:#000000; stroke-width:2; stroke-opacity:0.1; fill:none" points="
  211.602,805.978 2352.76,805.978 
  "/>
<polyline clip-path="url(#clip152)" style="stroke:#000000; stroke-width:2; stroke-opacity:0.1; fill:none" points="
  211.602,613.225 2352.76,613.225 
  "/>
<polyline clip-path="url(#clip152)" style="stroke:#000000; stroke-width:2; stroke-opacity:0.1; fill:none" points="
  211.602,420.471 2352.76,420.471 
  "/>
<polyline clip-path="url(#clip152)" style="stroke:#000000; stroke-width:2; stroke-opacity:0.1; fill:none" points="
  211.602,227.718 2352.76,227.718 
  "/>
<polyline clip-path="url(#clip150)" style="stroke:#000000; stroke-width:4; stroke-opacity:1; fill:none" points="
  211.602,1423.18 211.602,47.2441 
  "/>
<polyline clip-path="url(#clip150)" style="stroke:#000000; stroke-width:4; stroke-opacity:1; fill:none" points="
  211.602,1384.24 237.296,1384.24 
  "/>
<polyline clip-path="url(#clip150)" style="stroke:#000000; stroke-width:4; stroke-opacity:1; fill:none" points="
  211.602,1191.48 237.296,1191.48 
  "/>
<polyline clip-path="url(#clip150)" style="stroke:#000000; stroke-width:4; stroke-opacity:1; fill:none" points="
  211.602,998.732 237.296,998.732 
  "/>
<polyline clip-path="url(#clip150)" style="stroke:#000000; stroke-width:4; stroke-opacity:1; fill:none" points="
  211.602,805.978 237.296,805.978 
  "/>
<polyline clip-path="url(#clip150)" style="stroke:#000000; stroke-width:4; stroke-opacity:1; fill:none" points="
  211.602,613.225 237.296,613.225 
  "/>
<polyline clip-path="url(#clip150)" style="stroke:#000000; stroke-width:4; stroke-opacity:1; fill:none" points="
  211.602,420.471 237.296,420.471 
  "/>
<polyline clip-path="url(#clip150)" style="stroke:#000000; stroke-width:4; stroke-opacity:1; fill:none" points="
  211.602,227.718 237.296,227.718 
  "/>
<path clip-path="url(#clip150)" d="M 0 0 M126.691 1370.04 Q123.08 1370.04 121.251 1373.6 Q119.445 1377.14 119.445 1384.27 Q119.445 1391.38 121.251 1394.94 Q123.08 1398.49 126.691 1398.49 Q130.325 1398.49 132.13 1394.94 Q133.959 1391.38 133.959 1384.27 Q133.959 1377.14 132.13 1373.6 Q130.325 1370.04 126.691 1370.04 M126.691 1366.33 Q132.501 1366.33 135.556 1370.94 Q138.635 1375.52 138.635 1384.27 Q138.635 1393 135.556 1397.61 Q132.501 1402.19 126.691 1402.19 Q120.88 1402.19 117.802 1397.61 Q114.746 1393 114.746 1384.27 Q114.746 1375.52 117.802 1370.94 Q120.88 1366.33 126.691 1366.33 Z" fill="#000000" fill-rule="evenodd" fill-opacity="1" /><path clip-path="url(#clip150)" d="M 0 0 M143.704 1395.64 L148.589 1395.64 L148.589 1401.52 L143.704 1401.52 L143.704 1395.64 Z" fill="#000000" fill-rule="evenodd" fill-opacity="1" /><path clip-path="url(#clip150)" d="M 0 0 M163.658 1370.04 Q160.047 1370.04 158.218 1373.6 Q156.413 1377.14 156.413 1384.27 Q156.413 1391.38 158.218 1394.94 Q160.047 1398.49 163.658 1398.49 Q167.292 1398.49 169.098 1394.94 Q170.927 1391.38 170.927 1384.27 Q170.927 1377.14 169.098 1373.6 Q167.292 1370.04 163.658 1370.04 M163.658 1366.33 Q169.468 1366.33 172.524 1370.94 Q175.602 1375.52 175.602 1384.27 Q175.602 1393 172.524 1397.61 Q169.468 1402.19 163.658 1402.19 Q157.848 1402.19 154.769 1397.61 Q151.714 1393 151.714 1384.27 Q151.714 1375.52 154.769 1370.94 Q157.848 1366.33 163.658 1366.33 Z" fill="#000000" fill-rule="evenodd" fill-opacity="1" /><path clip-path="url(#clip150)" d="M 0 0 M127.917 1177.28 Q124.306 1177.28 122.478 1180.85 Q120.672 1184.39 120.672 1191.52 Q120.672 1198.63 122.478 1202.19 Q124.306 1205.73 127.917 1205.73 Q131.552 1205.73 133.357 1202.19 Q135.186 1198.63 135.186 1191.52 Q135.186 1184.39 133.357 1180.85 Q131.552 1177.28 127.917 1177.28 M127.917 1173.58 Q133.728 1173.58 136.783 1178.19 Q139.862 1182.77 139.862 1191.52 Q139.862 1200.25 136.783 1204.85 Q133.728 1209.44 127.917 1209.44 Q122.107 1209.44 119.029 1204.85 Q115.973 1200.25 115.973 1191.52 Q115.973 1182.77 119.029 1178.19 Q122.107 1173.58 127.917 1173.58 Z" fill="#000000" fill-rule="evenodd" fill-opacity="1" /><path clip-path="url(#clip150)" d="M 0 0 M144.931 1202.89 L149.816 1202.89 L149.816 1208.76 L144.931 1208.76 L144.931 1202.89 Z" fill="#000000" fill-rule="evenodd" fill-opacity="1" /><path clip-path="url(#clip150)" d="M 0 0 M155.695 1204.83 L163.334 1204.83 L163.334 1178.46 L155.024 1180.13 L155.024 1175.87 L163.288 1174.2 L167.964 1174.2 L167.964 1204.83 L175.602 1204.83 L175.602 1208.76 L155.695 1208.76 L155.695 1204.83 Z" fill="#000000" fill-rule="evenodd" fill-opacity="1" /><path clip-path="url(#clip150)" d="M 0 0 M128.288 984.53 Q124.677 984.53 122.848 988.095 Q121.043 991.637 121.043 998.766 Q121.043 1005.87 122.848 1009.44 Q124.677 1012.98 128.288 1012.98 Q131.922 1012.98 133.728 1009.44 Q135.556 1005.87 135.556 998.766 Q135.556 991.637 133.728 988.095 Q131.922 984.53 128.288 984.53 M128.288 980.827 Q134.098 980.827 137.154 985.433 Q140.232 990.016 140.232 998.766 Q140.232 1007.49 137.154 1012.1 Q134.098 1016.68 128.288 1016.68 Q122.478 1016.68 119.399 1012.1 Q116.343 1007.49 116.343 998.766 Q116.343 990.016 119.399 985.433 Q122.478 980.827 128.288 980.827 Z" fill="#000000" fill-rule="evenodd" fill-opacity="1" /><path clip-path="url(#clip150)" d="M 0 0 M145.302 1010.13 L150.186 1010.13 L150.186 1016.01 L145.302 1016.01 L145.302 1010.13 Z" fill="#000000" fill-rule="evenodd" fill-opacity="1" /><path clip-path="url(#clip150)" d="M 0 0 M159.283 1012.08 L175.602 1012.08 L175.602 1016.01 L153.658 1016.01 L153.658 1012.08 Q156.32 1009.32 160.903 1004.69 Q165.51 1000.04 166.69 998.697 Q168.936 996.174 169.815 994.438 Q170.718 992.678 170.718 990.989 Q170.718 988.234 168.774 986.498 Q166.852 984.762 163.751 984.762 Q161.552 984.762 159.098 985.526 Q156.667 986.289 153.89 987.84 L153.89 983.118 Q156.714 981.984 159.167 981.405 Q161.621 980.827 163.658 980.827 Q169.028 980.827 172.223 983.512 Q175.417 986.197 175.417 990.688 Q175.417 992.817 174.607 994.738 Q173.82 996.637 171.714 999.229 Q171.135 999.9 168.033 1003.12 Q164.931 1006.31 159.283 1012.08 Z" fill="#000000" fill-rule="evenodd" fill-opacity="1" /><path clip-path="url(#clip150)" d="M 0 0 M127.339 791.777 Q123.728 791.777 121.899 795.342 Q120.093 798.883 120.093 806.013 Q120.093 813.119 121.899 816.684 Q123.728 820.226 127.339 820.226 Q130.973 820.226 132.779 816.684 Q134.607 813.119 134.607 806.013 Q134.607 798.883 132.779 795.342 Q130.973 791.777 127.339 791.777 M127.339 788.073 Q133.149 788.073 136.204 792.68 Q139.283 797.263 139.283 806.013 Q139.283 814.74 136.204 819.346 Q133.149 823.929 127.339 823.929 Q121.529 823.929 118.45 819.346 Q115.394 814.74 115.394 806.013 Q115.394 797.263 118.45 792.68 Q121.529 788.073 127.339 788.073 Z" fill="#000000" fill-rule="evenodd" fill-opacity="1" /><path clip-path="url(#clip150)" d="M 0 0 M144.353 817.379 L149.237 817.379 L149.237 823.258 L144.353 823.258 L144.353 817.379 Z" fill="#000000" fill-rule="evenodd" fill-opacity="1" /><path clip-path="url(#clip150)" d="M 0 0 M168.473 804.624 Q171.829 805.342 173.704 807.61 Q175.602 809.879 175.602 813.212 Q175.602 818.328 172.084 821.129 Q168.565 823.929 162.084 823.929 Q159.908 823.929 157.593 823.49 Q155.302 823.073 152.848 822.216 L152.848 817.703 Q154.792 818.837 157.107 819.416 Q159.422 819.994 161.945 819.994 Q166.343 819.994 168.635 818.258 Q170.95 816.522 170.95 813.212 Q170.95 810.156 168.797 808.443 Q166.667 806.707 162.848 806.707 L158.82 806.707 L158.82 802.865 L163.033 802.865 Q166.482 802.865 168.311 801.499 Q170.139 800.11 170.139 797.518 Q170.139 794.856 168.241 793.443 Q166.366 792.008 162.848 792.008 Q160.927 792.008 158.728 792.425 Q156.528 792.842 153.89 793.721 L153.89 789.555 Q156.552 788.814 158.866 788.444 Q161.204 788.073 163.265 788.073 Q168.589 788.073 171.69 790.504 Q174.792 792.911 174.792 797.031 Q174.792 799.902 173.149 801.893 Q171.505 803.86 168.473 804.624 Z" fill="#000000" fill-rule="evenodd" fill-opacity="1" /><path clip-path="url(#clip150)" d="M 0 0 M126.205 599.023 Q122.593 599.023 120.765 602.588 Q118.959 606.13 118.959 613.26 Q118.959 620.366 120.765 623.931 Q122.593 627.472 126.205 627.472 Q129.839 627.472 131.644 623.931 Q133.473 620.366 133.473 613.26 Q133.473 606.13 131.644 602.588 Q129.839 599.023 126.205 599.023 M126.205 595.32 Q132.015 595.32 135.07 599.926 Q138.149 604.51 138.149 613.26 Q138.149 621.986 135.07 626.593 Q132.015 631.176 126.205 631.176 Q120.394 631.176 117.316 626.593 Q114.26 621.986 114.26 613.26 Q114.26 604.51 117.316 599.926 Q120.394 595.32 126.205 595.32 Z" fill="#000000" fill-rule="evenodd" fill-opacity="1" /><path clip-path="url(#clip150)" d="M 0 0 M143.218 624.625 L148.103 624.625 L148.103 630.505 L143.218 630.505 L143.218 624.625 Z" fill="#000000" fill-rule="evenodd" fill-opacity="1" /><path clip-path="url(#clip150)" d="M 0 0 M166.019 600.019 L154.214 618.468 L166.019 618.468 L166.019 600.019 M164.792 595.945 L170.672 595.945 L170.672 618.468 L175.602 618.468 L175.602 622.357 L170.672 622.357 L170.672 630.505 L166.019 630.505 L166.019 622.357 L150.417 622.357 L150.417 617.843 L164.792 595.945 Z" fill="#000000" fill-rule="evenodd" fill-opacity="1" /><path clip-path="url(#clip150)" d="M 0 0 M127.686 406.27 Q124.075 406.27 122.246 409.835 Q120.441 413.377 120.441 420.506 Q120.441 427.613 122.246 431.177 Q124.075 434.719 127.686 434.719 Q131.32 434.719 133.126 431.177 Q134.954 427.613 134.954 420.506 Q134.954 413.377 133.126 409.835 Q131.32 406.27 127.686 406.27 M127.686 402.566 Q133.496 402.566 136.552 407.173 Q139.63 411.756 139.63 420.506 Q139.63 429.233 136.552 433.839 Q133.496 438.423 127.686 438.423 Q121.876 438.423 118.797 433.839 Q115.742 429.233 115.742 420.506 Q115.742 411.756 118.797 407.173 Q121.876 402.566 127.686 402.566 Z" fill="#000000" fill-rule="evenodd" fill-opacity="1" /><path clip-path="url(#clip150)" d="M 0 0 M144.7 431.872 L149.584 431.872 L149.584 437.751 L144.7 437.751 L144.7 431.872 Z" fill="#000000" fill-rule="evenodd" fill-opacity="1" /><path clip-path="url(#clip150)" d="M 0 0 M154.7 403.191 L173.056 403.191 L173.056 407.127 L158.982 407.127 L158.982 415.599 Q160.001 415.252 161.019 415.089 Q162.038 414.904 163.056 414.904 Q168.843 414.904 172.223 418.076 Q175.602 421.247 175.602 426.664 Q175.602 432.242 172.13 435.344 Q168.658 438.423 162.339 438.423 Q160.163 438.423 157.894 438.052 Q155.649 437.682 153.241 436.941 L153.241 432.242 Q155.325 433.376 157.547 433.932 Q159.769 434.488 162.246 434.488 Q166.251 434.488 168.589 432.381 Q170.927 430.275 170.927 426.664 Q170.927 423.052 168.589 420.946 Q166.251 418.839 162.246 418.839 Q160.371 418.839 158.496 419.256 Q156.644 419.673 154.7 420.552 L154.7 403.191 Z" fill="#000000" fill-rule="evenodd" fill-opacity="1" /><path clip-path="url(#clip150)" d="M 0 0 M126.529 213.517 Q122.918 213.517 121.089 217.082 Q119.283 220.623 119.283 227.753 Q119.283 234.859 121.089 238.424 Q122.918 241.966 126.529 241.966 Q130.163 241.966 131.968 238.424 Q133.797 234.859 133.797 227.753 Q133.797 220.623 131.968 217.082 Q130.163 213.517 126.529 213.517 M126.529 209.813 Q132.339 209.813 135.394 214.42 Q138.473 219.003 138.473 227.753 Q138.473 236.48 135.394 241.086 Q132.339 245.669 126.529 245.669 Q120.718 245.669 117.64 241.086 Q114.584 236.48 114.584 227.753 Q114.584 219.003 117.64 214.42 Q120.718 209.813 126.529 209.813 Z" fill="#000000" fill-rule="evenodd" fill-opacity="1" /><path clip-path="url(#clip150)" d="M 0 0 M143.542 239.118 L148.427 239.118 L148.427 244.998 L143.542 244.998 L143.542 239.118 Z" fill="#000000" fill-rule="evenodd" fill-opacity="1" /><path clip-path="url(#clip150)" d="M 0 0 M164.075 225.855 Q160.927 225.855 159.075 228.007 Q157.246 230.16 157.246 233.91 Q157.246 237.637 159.075 239.813 Q160.927 241.966 164.075 241.966 Q167.223 241.966 169.052 239.813 Q170.903 237.637 170.903 233.91 Q170.903 230.16 169.052 228.007 Q167.223 225.855 164.075 225.855 M173.357 211.202 L173.357 215.461 Q171.598 214.628 169.792 214.188 Q168.01 213.748 166.251 213.748 Q161.621 213.748 159.167 216.873 Q156.737 219.998 156.39 226.318 Q157.755 224.304 159.815 223.239 Q161.876 222.151 164.352 222.151 Q169.561 222.151 172.57 225.322 Q175.602 228.47 175.602 233.91 Q175.602 239.234 172.454 242.452 Q169.306 245.669 164.075 245.669 Q158.079 245.669 154.908 241.086 Q151.737 236.48 151.737 227.753 Q151.737 219.558 155.626 214.697 Q159.515 209.813 166.065 209.813 Q167.825 209.813 169.607 210.16 Q171.413 210.507 173.357 211.202 Z" fill="#000000" fill-rule="evenodd" fill-opacity="1" /><path clip-path="url(#clip150)" d="M 0 0 M21.7677 783.05 L39.6235 783.05 L39.6235 774.966 Q39.6235 770.478 37.3 768.027 Q34.9765 765.576 30.6797 765.576 Q26.4147 765.576 24.0912 768.027 Q21.7677 770.478 21.7677 774.966 L21.7677 783.05 M16.4842 789.48 L16.4842 774.966 Q16.4842 766.977 20.1126 762.903 Q23.7092 758.797 30.6797 758.797 Q37.7138 758.797 41.3104 762.903 Q44.907 766.977 44.907 774.966 L44.907 783.05 L64.0042 783.05 L64.0042 789.48 L16.4842 789.48 Z" fill="#000000" fill-rule="evenodd" fill-opacity="1" /><path clip-path="url(#clip150)" d="M 0 0 M14.5426 738.586 Q21.8632 742.851 29.0246 744.92 Q36.186 746.989 43.5384 746.989 Q50.8908 746.989 58.1159 744.92 Q65.3091 742.819 72.5979 738.586 L72.5979 743.678 Q65.1182 748.453 57.8931 750.84 Q50.668 753.195 43.5384 753.195 Q36.4406 753.195 29.2474 750.84 Q22.0542 748.484 14.5426 743.678 L14.5426 738.586 Z" fill="#000000" fill-rule="evenodd" fill-opacity="1" /><path clip-path="url(#clip150)" d="M 0 0 M58.657 726.777 L77.5631 726.777 L77.5631 732.666 L28.3562 732.666 L28.3562 726.777 L33.7671 726.777 Q30.5842 724.931 29.0564 722.13 Q27.4968 719.298 27.4968 715.383 Q27.4968 708.89 32.6531 704.848 Q37.8093 700.773 46.212 700.773 Q54.6147 700.773 59.771 704.848 Q64.9272 708.89 64.9272 715.383 Q64.9272 719.298 63.3994 722.13 Q61.8398 724.931 58.657 726.777 M46.212 706.853 Q39.7508 706.853 36.0905 709.526 Q32.3984 712.168 32.3984 716.815 Q32.3984 721.462 36.0905 724.136 Q39.7508 726.777 46.212 726.777 Q52.6732 726.777 56.3653 724.136 Q60.0256 721.462 60.0256 716.815 Q60.0256 712.168 56.3653 709.526 Q52.6732 706.853 46.212 706.853 Z" fill="#000000" fill-rule="evenodd" fill-opacity="1" /><path clip-path="url(#clip150)" d="M 0 0 M14.5426 695.554 L14.5426 690.461 Q22.0542 685.687 29.2474 683.331 Q36.4406 680.944 43.5384 680.944 Q50.668 680.944 57.8931 683.331 Q65.1182 685.687 72.5979 690.461 L72.5979 695.554 Q65.3091 691.32 58.1159 689.252 Q50.8908 687.151 43.5384 687.151 Q36.186 687.151 29.0246 689.252 Q21.8632 691.32 14.5426 695.554 Z" fill="#000000" fill-rule="evenodd" fill-opacity="1" /><path clip-path="url(#clip152)" d="
M329.37 86.1857 L329.37 1384.24 L519.932 1384.24 L519.932 86.1857 L329.37 86.1857 L329.37 86.1857  Z
  " fill="#009af9" fill-rule="evenodd" fill-opacity="1"/>
<polyline clip-path="url(#clip152)" style="stroke:#000000; stroke-width:4; stroke-opacity:1; fill:none" points="
  329.37,86.1857 329.37,1384.24 519.932,1384.24 519.932,86.1857 329.37,86.1857 
  "/>
<path clip-path="url(#clip152)" d="
M519.932 951.725 L519.932 1384.24 L710.493 1384.24 L710.493 951.725 L519.932 951.725 L519.932 951.725  Z
  " fill="#009af9" fill-rule="evenodd" fill-opacity="1"/>
<polyline clip-path="url(#clip152)" style="stroke:#000000; stroke-width:4; stroke-opacity:1; fill:none" points="
  519.932,951.725 519.932,1384.24 710.493,1384.24 710.493,951.725 519.932,951.725 
  "/>
<path clip-path="url(#clip152)" d="
M710.493 1242.55 L710.493 1384.24 L901.055 1384.24 L901.055 1242.55 L710.493 1242.55 L710.493 1242.55  Z
  " fill="#009af9" fill-rule="evenodd" fill-opacity="1"/>
<polyline clip-path="url(#clip152)" style="stroke:#000000; stroke-width:4; stroke-opacity:1; fill:none" points="
  710.493,1242.55 710.493,1384.24 901.055,1384.24 901.055,1242.55 710.493,1242.55 
  "/>
<path clip-path="url(#clip152)" d="
M901.055 1343.34 L901.055 1384.24 L1091.62 1384.24 L1091.62 1343.34 L901.055 1343.34 L901.055 1343.34  Z
  " fill="#009af9" fill-rule="evenodd" fill-opacity="1"/>
<polyline clip-path="url(#clip152)" style="stroke:#000000; stroke-width:4; stroke-opacity:1; fill:none" points="
  901.055,1343.34 901.055,1384.24 1091.62,1384.24 1091.62,1343.34 901.055,1343.34 
  "/>
<path clip-path="url(#clip152)" d="
M1091.62 1373.38 L1091.62 1384.24 L1282.18 1384.24 L1282.18 1373.38 L1091.62 1373.38 L1091.62 1373.38  Z
  " fill="#009af9" fill-rule="evenodd" fill-opacity="1"/>
<polyline clip-path="url(#clip152)" style="stroke:#000000; stroke-width:4; stroke-opacity:1; fill:none" points="
  1091.62,1373.38 1091.62,1384.24 1282.18,1384.24 1282.18,1373.38 1091.62,1373.38 
  "/>
<path clip-path="url(#clip152)" d="
M1282.18 1381.56 L1282.18 1384.24 L1472.74 1384.24 L1472.74 1381.56 L1282.18 1381.56 L1282.18 1381.56  Z
  " fill="#009af9" fill-rule="evenodd" fill-opacity="1"/>
<polyline clip-path="url(#clip152)" style="stroke:#000000; stroke-width:4; stroke-opacity:1; fill:none" points="
  1282.18,1381.56 1282.18,1384.24 1472.74,1384.24 1472.74,1381.56 1282.18,1381.56 
  "/>
<path clip-path="url(#clip152)" d="
M1472.74 1383.58 L1472.74 1384.24 L1663.3 1384.24 L1663.3 1383.58 L1472.74 1383.58 L1472.74 1383.58  Z
  " fill="#009af9" fill-rule="evenodd" fill-opacity="1"/>
<polyline clip-path="url(#clip152)" style="stroke:#000000; stroke-width:4; stroke-opacity:1; fill:none" points="
  1472.74,1383.58 1472.74,1384.24 1663.3,1384.24 1663.3,1383.58 1472.74,1383.58 
  "/>
<path clip-path="url(#clip152)" d="
M1663.3 1384.1 L1663.3 1384.24 L1853.86 1384.24 L1853.86 1384.1 L1663.3 1384.1 L1663.3 1384.1  Z
  " fill="#009af9" fill-rule="evenodd" fill-opacity="1"/>
<polyline clip-path="url(#clip152)" style="stroke:#000000; stroke-width:4; stroke-opacity:1; fill:none" points="
  1663.3,1384.1 1663.3,1384.24 1853.86,1384.24 1853.86,1384.1 1663.3,1384.1 
  "/>
<path clip-path="url(#clip152)" d="
M1853.86 1384.19 L1853.86 1384.24 L2044.43 1384.24 L2044.43 1384.19 L1853.86 1384.19 L1853.86 1384.19  Z
  " fill="#009af9" fill-rule="evenodd" fill-opacity="1"/>
<polyline clip-path="url(#clip152)" style="stroke:#000000; stroke-width:4; stroke-opacity:1; fill:none" points="
  1853.86,1384.19 1853.86,1384.24 2044.43,1384.24 2044.43,1384.19 1853.86,1384.19 
  "/>
<path clip-path="url(#clip152)" d="
M2044.43 1384.23 L2044.43 1384.24 L2234.99 1384.24 L2234.99 1384.23 L2044.43 1384.23 L2044.43 1384.23  Z
  " fill="#009af9" fill-rule="evenodd" fill-opacity="1"/>
<polyline clip-path="url(#clip152)" style="stroke:#000000; stroke-width:4; stroke-opacity:1; fill:none" points="
  2044.43,1384.23 2044.43,1384.24 2234.99,1384.24 2234.99,1384.23 2044.43,1384.23 
  "/>
<polyline clip-path="url(#clip152)" style="stroke:#e26f46; stroke-width:4; stroke-opacity:1; fill:none" points="
  418.566,2799.12 418.566,-1328.69 
  "/>
<polyline clip-path="url(#clip152)" style="stroke:#3da44d; stroke-width:4; stroke-opacity:1; fill:none" points="
  418.42,2799.12 418.42,-1328.69 
  "/>
<path clip-path="url(#clip150)" d="
M1685.73 335.029 L2281.38 335.029 L2281.38 93.1086 L1685.73 93.1086  Z
  " fill="#ffffff" fill-rule="evenodd" fill-opacity="1"/>
<polyline clip-path="url(#clip150)" style="stroke:#000000; stroke-width:4; stroke-opacity:1; fill:none" points="
  1685.73,335.029 2281.38,335.029 2281.38,93.1086 1685.73,93.1086 1685.73,335.029 
  "/>
<path clip-path="url(#clip150)" d="
M1709.52 177.781 L1852.26 177.781 L1852.26 129.397 L1709.52 129.397 L1709.52 177.781  Z
  " fill="#009af9" fill-rule="evenodd" fill-opacity="1"/>
<polyline clip-path="url(#clip150)" style="stroke:#000000; stroke-width:4; stroke-opacity:1; fill:none" points="
  1709.52,177.781 1852.26,177.781 1852.26,129.397 1709.52,129.397 1709.52,177.781 
  "/>
<path clip-path="url(#clip150)" d="M 0 0 M1889.89 173.276 Q1888.09 177.906 1886.37 179.318 Q1884.66 180.73 1881.79 180.73 L1878.39 180.73 L1878.39 177.165 L1880.89 177.165 Q1882.65 177.165 1883.62 176.332 Q1884.59 175.498 1885.77 172.396 L1886.54 170.452 L1876.05 144.943 L1880.56 144.943 L1888.67 165.221 L1896.77 144.943 L1901.28 144.943 L1889.89 173.276 Z" fill="#000000" fill-rule="evenodd" fill-opacity="1" /><path clip-path="url(#clip150)" d="M 0 0 M1907.16 166.933 L1914.8 166.933 L1914.8 140.568 L1906.49 142.235 L1906.49 137.975 L1914.75 136.309 L1919.43 136.309 L1919.43 166.933 L1927.07 166.933 L1927.07 170.869 L1907.16 170.869 L1907.16 166.933 Z" fill="#000000" fill-rule="evenodd" fill-opacity="1" /><polyline clip-path="url(#clip150)" style="stroke:#e26f46; stroke-width:4; stroke-opacity:1; fill:none" points="
  1709.52,214.069 1852.26,214.069 
  "/>
<path clip-path="url(#clip150)" d="M 0 0 M1883.46 198.062 L1883.46 205.423 L1892.23 205.423 L1892.23 208.733 L1883.46 208.733 L1883.46 222.807 Q1883.46 225.978 1884.31 226.881 Q1885.19 227.784 1887.86 227.784 L1892.23 227.784 L1892.23 231.349 L1887.86 231.349 Q1882.93 231.349 1881.05 229.52 Q1879.18 227.668 1879.18 222.807 L1879.18 208.733 L1876.05 208.733 L1876.05 205.423 L1879.18 205.423 L1879.18 198.062 L1883.46 198.062 Z" fill="#000000" fill-rule="evenodd" fill-opacity="1" /><path clip-path="url(#clip150)" d="M 0 0 M1918.25 215.701 L1918.25 231.349 L1913.99 231.349 L1913.99 215.839 Q1913.99 212.159 1912.55 210.33 Q1911.12 208.502 1908.25 208.502 Q1904.8 208.502 1902.81 210.701 Q1900.82 212.9 1900.82 216.696 L1900.82 231.349 L1896.54 231.349 L1896.54 195.33 L1900.82 195.33 L1900.82 209.451 Q1902.35 207.113 1904.41 205.955 Q1906.49 204.798 1909.2 204.798 Q1913.67 204.798 1915.96 207.576 Q1918.25 210.33 1918.25 215.701 Z" fill="#000000" fill-rule="evenodd" fill-opacity="1" /><path clip-path="url(#clip150)" d="M 0 0 M1944.89 217.321 L1944.89 219.404 L1925.31 219.404 Q1925.59 223.802 1927.95 226.117 Q1930.33 228.409 1934.57 228.409 Q1937.02 228.409 1939.31 227.807 Q1941.63 227.205 1943.9 226.001 L1943.9 230.029 Q1941.61 231.001 1939.2 231.511 Q1936.79 232.02 1934.31 232.02 Q1928.11 232.02 1924.48 228.409 Q1920.86 224.798 1920.86 218.64 Q1920.86 212.275 1924.29 208.548 Q1927.74 204.798 1933.57 204.798 Q1938.8 204.798 1941.84 208.177 Q1944.89 211.534 1944.89 217.321 M1940.63 216.071 Q1940.59 212.576 1938.67 210.492 Q1936.77 208.409 1933.62 208.409 Q1930.05 208.409 1927.9 210.423 Q1925.77 212.437 1925.45 216.094 L1940.63 216.071 Z" fill="#000000" fill-rule="evenodd" fill-opacity="1" /><path clip-path="url(#clip150)" d="M 0 0 M1959.41 208.409 Q1955.98 208.409 1953.99 211.094 Q1952 213.756 1952 218.409 Q1952 223.062 1953.97 225.747 Q1955.96 228.409 1959.41 228.409 Q1962.81 228.409 1964.8 225.724 Q1966.79 223.038 1966.79 218.409 Q1966.79 213.802 1964.8 211.117 Q1962.81 208.409 1959.41 208.409 M1959.41 204.798 Q1964.96 204.798 1968.13 208.409 Q1971.3 212.02 1971.3 218.409 Q1971.3 224.775 1968.13 228.409 Q1964.96 232.02 1959.41 232.02 Q1953.83 232.02 1950.66 228.409 Q1947.51 224.775 1947.51 218.409 Q1947.51 212.02 1950.66 208.409 Q1953.83 204.798 1959.41 204.798 Z" fill="#000000" fill-rule="evenodd" fill-opacity="1" /><path clip-path="url(#clip150)" d="M 0 0 M1990.79 209.404 Q1990.08 208.988 1989.22 208.802 Q1988.39 208.594 1987.37 208.594 Q1983.76 208.594 1981.81 210.955 Q1979.89 213.293 1979.89 217.691 L1979.89 231.349 L1975.61 231.349 L1975.61 205.423 L1979.89 205.423 L1979.89 209.451 Q1981.23 207.089 1983.39 205.955 Q1985.54 204.798 1988.62 204.798 Q1989.06 204.798 1989.59 204.867 Q1990.12 204.914 1990.77 205.029 L1990.79 209.404 Z" fill="#000000" fill-rule="evenodd" fill-opacity="1" /><path clip-path="url(#clip150)" d="M 0 0 M2016.4 217.321 L2016.4 219.404 L1996.81 219.404 Q1997.09 223.802 1999.45 226.117 Q2001.84 228.409 2006.07 228.409 Q2008.53 228.409 2010.82 227.807 Q2013.13 227.205 2015.4 226.001 L2015.4 230.029 Q2013.11 231.001 2010.7 231.511 Q2008.29 232.02 2005.82 232.02 Q1999.61 232.02 1995.98 228.409 Q1992.37 224.798 1992.37 218.64 Q1992.37 212.275 1995.79 208.548 Q1999.24 204.798 2005.08 204.798 Q2010.31 204.798 2013.34 208.177 Q2016.4 211.534 2016.4 217.321 M2012.14 216.071 Q2012.09 212.576 2010.17 210.492 Q2008.27 208.409 2005.12 208.409 Q2001.56 208.409 1999.41 210.423 Q1997.28 212.437 1996.95 216.094 L2012.14 216.071 Z" fill="#000000" fill-rule="evenodd" fill-opacity="1" /><path clip-path="url(#clip150)" d="M 0 0 M2025.08 198.062 L2025.08 205.423 L2033.85 205.423 L2033.85 208.733 L2025.08 208.733 L2025.08 222.807 Q2025.08 225.978 2025.93 226.881 Q2026.81 227.784 2029.48 227.784 L2033.85 227.784 L2033.85 231.349 L2029.48 231.349 Q2024.54 231.349 2022.67 229.52 Q2020.79 227.668 2020.79 222.807 L2020.79 208.733 L2017.67 208.733 L2017.67 205.423 L2020.79 205.423 L2020.79 198.062 L2025.08 198.062 Z" fill="#000000" fill-rule="evenodd" fill-opacity="1" /><path clip-path="url(#clip150)" d="M 0 0 M2038.32 205.423 L2042.58 205.423 L2042.58 231.349 L2038.32 231.349 L2038.32 205.423 M2038.32 195.33 L2042.58 195.33 L2042.58 200.724 L2038.32 200.724 L2038.32 195.33 Z" fill="#000000" fill-rule="evenodd" fill-opacity="1" /><path clip-path="url(#clip150)" d="M 0 0 M2065.7 206.418 L2065.7 210.4 Q2063.9 209.404 2062.07 208.918 Q2060.26 208.409 2058.41 208.409 Q2054.27 208.409 2051.98 211.048 Q2049.68 213.664 2049.68 218.409 Q2049.68 223.154 2051.98 225.793 Q2054.27 228.409 2058.41 228.409 Q2060.26 228.409 2062.07 227.923 Q2063.9 227.413 2065.7 226.418 L2065.7 230.353 Q2063.92 231.187 2062 231.603 Q2060.1 232.02 2057.95 232.02 Q2052.09 232.02 2048.64 228.339 Q2045.19 224.659 2045.19 218.409 Q2045.19 212.066 2048.67 208.432 Q2052.16 204.798 2058.23 204.798 Q2060.19 204.798 2062.07 205.215 Q2063.94 205.608 2065.7 206.418 Z" fill="#000000" fill-rule="evenodd" fill-opacity="1" /><path clip-path="url(#clip150)" d="M 0 0 M2081.95 218.316 Q2076.79 218.316 2074.8 219.497 Q2072.81 220.677 2072.81 223.525 Q2072.81 225.793 2074.29 227.136 Q2075.79 228.455 2078.36 228.455 Q2081.91 228.455 2084.04 225.955 Q2086.19 223.432 2086.19 219.265 L2086.19 218.316 L2081.95 218.316 M2090.45 216.557 L2090.45 231.349 L2086.19 231.349 L2086.19 227.413 Q2084.73 229.775 2082.55 230.909 Q2080.38 232.02 2077.23 232.02 Q2073.25 232.02 2070.89 229.798 Q2068.55 227.552 2068.55 223.802 Q2068.55 219.427 2071.47 217.205 Q2074.41 214.983 2080.22 214.983 L2086.19 214.983 L2086.19 214.566 Q2086.19 211.627 2084.24 210.029 Q2082.32 208.409 2078.83 208.409 Q2076.6 208.409 2074.5 208.941 Q2072.39 209.474 2070.45 210.539 L2070.45 206.603 Q2072.79 205.701 2074.98 205.261 Q2077.18 204.798 2079.27 204.798 Q2084.89 204.798 2087.67 207.714 Q2090.45 210.631 2090.45 216.557 Z" fill="#000000" fill-rule="evenodd" fill-opacity="1" /><path clip-path="url(#clip150)" d="M 0 0 M2094.91 195.33 L2099.17 195.33 L2099.17 231.349 L2094.91 231.349 L2094.91 195.33 Z" fill="#000000" fill-rule="evenodd" fill-opacity="1" /><path clip-path="url(#clip150)" d="M 0 0 M2138.9 210.4 Q2140.49 207.529 2142.72 206.164 Q2144.94 204.798 2147.95 204.798 Q2152 204.798 2154.2 207.645 Q2156.4 210.469 2156.4 215.701 L2156.4 231.349 L2152.11 231.349 L2152.11 215.839 Q2152.11 212.113 2150.79 210.307 Q2149.47 208.502 2146.77 208.502 Q2143.46 208.502 2141.53 210.701 Q2139.61 212.9 2139.61 216.696 L2139.61 231.349 L2135.33 231.349 L2135.33 215.839 Q2135.33 212.089 2134.01 210.307 Q2132.69 208.502 2129.94 208.502 Q2126.67 208.502 2124.75 210.724 Q2122.83 212.923 2122.83 216.696 L2122.83 231.349 L2118.55 231.349 L2118.55 205.423 L2122.83 205.423 L2122.83 209.451 Q2124.29 207.066 2126.33 205.932 Q2128.36 204.798 2131.16 204.798 Q2133.99 204.798 2135.96 206.233 Q2137.95 207.668 2138.9 210.4 Z" fill="#000000" fill-rule="evenodd" fill-opacity="1" /><path clip-path="url(#clip150)" d="M 0 0 M2183.04 217.321 L2183.04 219.404 L2163.46 219.404 Q2163.73 223.802 2166.09 226.117 Q2168.48 228.409 2172.72 228.409 Q2175.17 228.409 2177.46 227.807 Q2179.78 227.205 2182.04 226.001 L2182.04 230.029 Q2179.75 231.001 2177.34 231.511 Q2174.94 232.02 2172.46 232.02 Q2166.26 232.02 2162.62 228.409 Q2159.01 224.798 2159.01 218.64 Q2159.01 212.275 2162.44 208.548 Q2165.89 204.798 2171.72 204.798 Q2176.95 204.798 2179.98 208.177 Q2183.04 211.534 2183.04 217.321 M2178.78 216.071 Q2178.73 212.576 2176.81 210.492 Q2174.91 208.409 2171.77 208.409 Q2168.2 208.409 2166.05 210.423 Q2163.92 212.437 2163.59 216.094 L2178.78 216.071 Z" fill="#000000" fill-rule="evenodd" fill-opacity="1" /><path clip-path="url(#clip150)" d="M 0 0 M2199.29 218.316 Q2194.13 218.316 2192.14 219.497 Q2190.15 220.677 2190.15 223.525 Q2190.15 225.793 2191.63 227.136 Q2193.13 228.455 2195.7 228.455 Q2199.24 228.455 2201.37 225.955 Q2203.53 223.432 2203.53 219.265 L2203.53 218.316 L2199.29 218.316 M2207.78 216.557 L2207.78 231.349 L2203.53 231.349 L2203.53 227.413 Q2202.07 229.775 2199.89 230.909 Q2197.72 232.02 2194.57 232.02 Q2190.59 232.02 2188.22 229.798 Q2185.89 227.552 2185.89 223.802 Q2185.89 219.427 2188.8 217.205 Q2191.74 214.983 2197.55 214.983 L2203.53 214.983 L2203.53 214.566 Q2203.53 211.627 2201.58 210.029 Q2199.66 208.409 2196.16 208.409 Q2193.94 208.409 2191.84 208.941 Q2189.73 209.474 2187.78 210.539 L2187.78 206.603 Q2190.12 205.701 2192.32 205.261 Q2194.52 204.798 2196.6 204.798 Q2202.23 204.798 2205.01 207.714 Q2207.78 210.631 2207.78 216.557 Z" fill="#000000" fill-rule="evenodd" fill-opacity="1" /><path clip-path="url(#clip150)" d="M 0 0 M2233.8 215.701 L2233.8 231.349 L2229.54 231.349 L2229.54 215.839 Q2229.54 212.159 2228.11 210.33 Q2226.67 208.502 2223.8 208.502 Q2220.35 208.502 2218.36 210.701 Q2216.37 212.9 2216.37 216.696 L2216.37 231.349 L2212.09 231.349 L2212.09 205.423 L2216.37 205.423 L2216.37 209.451 Q2217.9 207.113 2219.96 205.955 Q2222.04 204.798 2224.75 204.798 Q2229.22 204.798 2231.51 207.576 Q2233.8 210.33 2233.8 215.701 Z" fill="#000000" fill-rule="evenodd" fill-opacity="1" /><polyline clip-path="url(#clip150)" style="stroke:#3da44d; stroke-width:4; stroke-opacity:1; fill:none" points="
  1709.52,274.549 1852.26,274.549 
  "/>
<path clip-path="url(#clip150)" d="M 0 0 M1894.48 266.667 L1894.48 270.694 Q1892.67 269.769 1890.73 269.306 Q1888.78 268.843 1886.7 268.843 Q1883.53 268.843 1881.93 269.815 Q1880.36 270.787 1880.36 272.731 Q1880.36 274.213 1881.49 275.069 Q1882.62 275.903 1886.05 276.667 L1887.51 276.991 Q1892.05 277.963 1893.94 279.745 Q1895.86 281.505 1895.86 284.676 Q1895.86 288.287 1892.99 290.393 Q1890.15 292.5 1885.15 292.5 Q1883.06 292.5 1880.8 292.083 Q1878.55 291.69 1876.05 290.88 L1876.05 286.481 Q1878.41 287.708 1880.7 288.333 Q1882.99 288.935 1885.24 288.935 Q1888.25 288.935 1889.87 287.917 Q1891.49 286.875 1891.49 285 Q1891.49 283.264 1890.31 282.338 Q1889.15 281.412 1885.19 280.556 L1883.71 280.208 Q1879.75 279.375 1877.99 277.662 Q1876.24 275.926 1876.24 272.917 Q1876.24 269.259 1878.83 267.269 Q1881.42 265.278 1886.19 265.278 Q1888.55 265.278 1890.63 265.625 Q1892.72 265.972 1894.48 266.667 Z" fill="#000000" fill-rule="evenodd" fill-opacity="1" /><path clip-path="url(#clip150)" d="M 0 0 M1904.55 258.542 L1904.55 265.903 L1913.32 265.903 L1913.32 269.213 L1904.55 269.213 L1904.55 283.287 Q1904.55 286.458 1905.4 287.361 Q1906.28 288.264 1908.94 288.264 L1913.32 288.264 L1913.32 291.829 L1908.94 291.829 Q1904.01 291.829 1902.14 290 Q1900.26 288.148 1900.26 283.287 L1900.26 269.213 L1897.14 269.213 L1897.14 265.903 L1900.26 265.903 L1900.26 258.542 L1904.55 258.542 Z" fill="#000000" fill-rule="evenodd" fill-opacity="1" /><path clip-path="url(#clip150)" d="M 0 0 M1929.57 278.796 Q1924.41 278.796 1922.42 279.977 Q1920.42 281.157 1920.42 284.005 Q1920.42 286.273 1921.91 287.616 Q1923.41 288.935 1925.98 288.935 Q1929.52 288.935 1931.65 286.435 Q1933.8 283.912 1933.8 279.745 L1933.8 278.796 L1929.57 278.796 M1938.06 277.037 L1938.06 291.829 L1933.8 291.829 L1933.8 287.893 Q1932.35 290.255 1930.17 291.389 Q1927.99 292.5 1924.85 292.5 Q1920.86 292.5 1918.5 290.278 Q1916.17 288.032 1916.17 284.282 Q1916.17 279.907 1919.08 277.685 Q1922.02 275.463 1927.83 275.463 L1933.8 275.463 L1933.8 275.046 Q1933.8 272.107 1931.86 270.509 Q1929.94 268.889 1926.44 268.889 Q1924.22 268.889 1922.11 269.421 Q1920.01 269.954 1918.06 271.019 L1918.06 267.083 Q1920.4 266.181 1922.6 265.741 Q1924.8 265.278 1926.88 265.278 Q1932.51 265.278 1935.29 268.194 Q1938.06 271.111 1938.06 277.037 Z" fill="#000000" fill-rule="evenodd" fill-opacity="1" /><path clip-path="url(#clip150)" d="M 0 0 M1946.74 258.542 L1946.74 265.903 L1955.52 265.903 L1955.52 269.213 L1946.74 269.213 L1946.74 283.287 Q1946.74 286.458 1947.6 287.361 Q1948.48 288.264 1951.14 288.264 L1955.52 288.264 L1955.52 291.829 L1951.14 291.829 Q1946.21 291.829 1944.34 290 Q1942.46 288.148 1942.46 283.287 L1942.46 269.213 L1939.34 269.213 L1939.34 265.903 L1942.46 265.903 L1942.46 258.542 L1946.74 258.542 Z" fill="#000000" fill-rule="evenodd" fill-opacity="1" /><path clip-path="url(#clip150)" d="M 0 0 M1959.98 265.903 L1964.24 265.903 L1964.24 291.829 L1959.98 291.829 L1959.98 265.903 M1959.98 255.81 L1964.24 255.81 L1964.24 261.204 L1959.98 261.204 L1959.98 255.81 Z" fill="#000000" fill-rule="evenodd" fill-opacity="1" /><path clip-path="url(#clip150)" d="M 0 0 M1985.24 266.667 L1985.24 270.694 Q1983.43 269.769 1981.49 269.306 Q1979.55 268.843 1977.46 268.843 Q1974.29 268.843 1972.69 269.815 Q1971.12 270.787 1971.12 272.731 Q1971.12 274.213 1972.25 275.069 Q1973.39 275.903 1976.81 276.667 L1978.27 276.991 Q1982.81 277.963 1984.71 279.745 Q1986.63 281.505 1986.63 284.676 Q1986.63 288.287 1983.76 290.393 Q1980.91 292.5 1975.91 292.5 Q1973.83 292.5 1971.56 292.083 Q1969.31 291.69 1966.81 290.88 L1966.81 286.481 Q1969.17 287.708 1971.47 288.333 Q1973.76 288.935 1976 288.935 Q1979.01 288.935 1980.63 287.917 Q1982.25 286.875 1982.25 285 Q1982.25 283.264 1981.07 282.338 Q1979.92 281.412 1975.96 280.556 L1974.48 280.208 Q1970.52 279.375 1968.76 277.662 Q1967 275.926 1967 272.917 Q1967 269.259 1969.59 267.269 Q1972.18 265.278 1976.95 265.278 Q1979.31 265.278 1981.4 265.625 Q1983.48 265.972 1985.24 266.667 Z" fill="#000000" fill-rule="evenodd" fill-opacity="1" /><path clip-path="url(#clip150)" d="M 0 0 M1995.31 258.542 L1995.31 265.903 L2004.08 265.903 L2004.08 269.213 L1995.31 269.213 L1995.31 283.287 Q1995.31 286.458 1996.17 287.361 Q1997.04 288.264 1999.71 288.264 L2004.08 288.264 L2004.08 291.829 L1999.71 291.829 Q1994.78 291.829 1992.9 290 Q1991.03 288.148 1991.03 283.287 L1991.03 269.213 L1987.9 269.213 L1987.9 265.903 L1991.03 265.903 L1991.03 258.542 L1995.31 258.542 Z" fill="#000000" fill-rule="evenodd" fill-opacity="1" /><path clip-path="url(#clip150)" d="M 0 0 M2008.55 265.903 L2012.81 265.903 L2012.81 291.829 L2008.55 291.829 L2008.55 265.903 M2008.55 255.81 L2012.81 255.81 L2012.81 261.204 L2008.55 261.204 L2008.55 255.81 Z" fill="#000000" fill-rule="evenodd" fill-opacity="1" /><path clip-path="url(#clip150)" d="M 0 0 M2035.93 266.898 L2035.93 270.88 Q2034.13 269.884 2032.3 269.398 Q2030.49 268.889 2028.64 268.889 Q2024.5 268.889 2022.21 271.528 Q2019.92 274.144 2019.92 278.889 Q2019.92 283.634 2022.21 286.273 Q2024.5 288.889 2028.64 288.889 Q2030.49 288.889 2032.3 288.403 Q2034.13 287.893 2035.93 286.898 L2035.93 290.833 Q2034.15 291.667 2032.23 292.083 Q2030.33 292.5 2028.18 292.5 Q2022.32 292.5 2018.87 288.819 Q2015.42 285.139 2015.42 278.889 Q2015.42 272.546 2018.9 268.912 Q2022.39 265.278 2028.46 265.278 Q2030.42 265.278 2032.3 265.695 Q2034.17 266.088 2035.93 266.898 Z" fill="#000000" fill-rule="evenodd" fill-opacity="1" /><path clip-path="url(#clip150)" d="M 0 0 M2052.18 278.796 Q2047.02 278.796 2045.03 279.977 Q2043.04 281.157 2043.04 284.005 Q2043.04 286.273 2044.52 287.616 Q2046.03 288.935 2048.6 288.935 Q2052.14 288.935 2054.27 286.435 Q2056.42 283.912 2056.42 279.745 L2056.42 278.796 L2052.18 278.796 M2060.68 277.037 L2060.68 291.829 L2056.42 291.829 L2056.42 287.893 Q2054.96 290.255 2052.79 291.389 Q2050.61 292.5 2047.46 292.5 Q2043.48 292.5 2041.12 290.278 Q2038.78 288.032 2038.78 284.282 Q2038.78 279.907 2041.7 277.685 Q2044.64 275.463 2050.45 275.463 L2056.42 275.463 L2056.42 275.046 Q2056.42 272.107 2054.48 270.509 Q2052.55 268.889 2049.06 268.889 Q2046.84 268.889 2044.73 269.421 Q2042.62 269.954 2040.68 271.019 L2040.68 267.083 Q2043.02 266.181 2045.22 265.741 Q2047.42 265.278 2049.5 265.278 Q2055.12 265.278 2057.9 268.194 Q2060.68 271.111 2060.68 277.037 Z" fill="#000000" fill-rule="evenodd" fill-opacity="1" /><path clip-path="url(#clip150)" d="M 0 0 M2065.15 255.81 L2069.41 255.81 L2069.41 291.829 L2065.15 291.829 L2065.15 255.81 Z" fill="#000000" fill-rule="evenodd" fill-opacity="1" /><path clip-path="url(#clip150)" d="M 0 0 M2109.13 270.88 Q2110.72 268.009 2112.95 266.644 Q2115.17 265.278 2118.18 265.278 Q2122.23 265.278 2124.43 268.125 Q2126.63 270.949 2126.63 276.181 L2126.63 291.829 L2122.35 291.829 L2122.35 276.319 Q2122.35 272.593 2121.03 270.787 Q2119.71 268.982 2117 268.982 Q2113.69 268.982 2111.77 271.181 Q2109.85 273.38 2109.85 277.176 L2109.85 291.829 L2105.56 291.829 L2105.56 276.319 Q2105.56 272.569 2104.24 270.787 Q2102.92 268.982 2100.17 268.982 Q2096.91 268.982 2094.98 271.204 Q2093.06 273.403 2093.06 277.176 L2093.06 291.829 L2088.78 291.829 L2088.78 265.903 L2093.06 265.903 L2093.06 269.931 Q2094.52 267.546 2096.56 266.412 Q2098.6 265.278 2101.4 265.278 Q2104.22 265.278 2106.19 266.713 Q2108.18 268.148 2109.13 270.88 Z" fill="#000000" fill-rule="evenodd" fill-opacity="1" /><path clip-path="url(#clip150)" d="M 0 0 M2153.27 277.801 L2153.27 279.884 L2133.69 279.884 Q2133.97 284.282 2136.33 286.597 Q2138.71 288.889 2142.95 288.889 Q2145.4 288.889 2147.69 288.287 Q2150.01 287.685 2152.28 286.481 L2152.28 290.509 Q2149.98 291.481 2147.58 291.991 Q2145.17 292.5 2142.69 292.5 Q2136.49 292.5 2132.85 288.889 Q2129.24 285.278 2129.24 279.12 Q2129.24 272.755 2132.67 269.028 Q2136.12 265.278 2141.95 265.278 Q2147.18 265.278 2150.22 268.657 Q2153.27 272.014 2153.27 277.801 M2149.01 276.551 Q2148.97 273.056 2147.04 270.972 Q2145.15 268.889 2142 268.889 Q2138.43 268.889 2136.28 270.903 Q2134.15 272.917 2133.83 276.574 L2149.01 276.551 Z" fill="#000000" fill-rule="evenodd" fill-opacity="1" /><path clip-path="url(#clip150)" d="M 0 0 M2169.52 278.796 Q2164.36 278.796 2162.37 279.977 Q2160.38 281.157 2160.38 284.005 Q2160.38 286.273 2161.86 287.616 Q2163.36 288.935 2165.93 288.935 Q2169.47 288.935 2171.6 286.435 Q2173.76 283.912 2173.76 279.745 L2173.76 278.796 L2169.52 278.796 M2178.02 277.037 L2178.02 291.829 L2173.76 291.829 L2173.76 287.893 Q2172.3 290.255 2170.12 291.389 Q2167.95 292.5 2164.8 292.5 Q2160.82 292.5 2158.46 290.278 Q2156.12 288.032 2156.12 284.282 Q2156.12 279.907 2159.03 277.685 Q2161.97 275.463 2167.78 275.463 L2173.76 275.463 L2173.76 275.046 Q2173.76 272.107 2171.81 270.509 Q2169.89 268.889 2166.4 268.889 Q2164.17 268.889 2162.07 269.421 Q2159.96 269.954 2158.02 271.019 L2158.02 267.083 Q2160.35 266.181 2162.55 265.741 Q2164.75 265.278 2166.84 265.278 Q2172.46 265.278 2175.24 268.194 Q2178.02 271.111 2178.02 277.037 Z" fill="#000000" fill-rule="evenodd" fill-opacity="1" /><path clip-path="url(#clip150)" d="M 0 0 M2204.03 276.181 L2204.03 291.829 L2199.78 291.829 L2199.78 276.319 Q2199.78 272.639 2198.34 270.81 Q2196.9 268.982 2194.03 268.982 Q2190.59 268.982 2188.59 271.181 Q2186.6 273.38 2186.6 277.176 L2186.6 291.829 L2182.32 291.829 L2182.32 265.903 L2186.6 265.903 L2186.6 269.931 Q2188.13 267.593 2190.19 266.435 Q2192.28 265.278 2194.98 265.278 Q2199.45 265.278 2201.74 268.056 Q2204.03 270.81 2204.03 276.181 Z" fill="#000000" fill-rule="evenodd" fill-opacity="1" /></svg>
