<?xml version="1.0" encoding="utf-8"?>
<svg xmlns="http://www.w3.org/2000/svg" xmlns:xlink="http://www.w3.org/1999/xlink" width="600" height="400" viewBox="0 0 2400 1600">
<defs>
  <clipPath id="clip280">
    <rect x="0" y="0" width="2400" height="1600"/>
  </clipPath>
</defs>
<path clip-path="url(#clip280)" d="
M0 1600 L2400 1600 L2400 0 L0 0  Z
  " fill="#ffffff" fill-rule="evenodd" fill-opacity="1"/>
<defs>
  <clipPath id="clip281">
    <rect x="480" y="0" width="1681" height="1600"/>
  </clipPath>
</defs>
<path clip-path="url(#clip280)" d="
M250.028 1423.18 L2352.76 1423.18 L2352.76 47.2441 L250.028 47.2441  Z
  " fill="#ffffff" fill-rule="evenodd" fill-opacity="1"/>
<defs>
  <clipPath id="clip282">
    <rect x="250" y="47" width="2104" height="1377"/>
  </clipPath>
</defs>
<polyline clip-path="url(#clip282)" style="stroke:#000000; stroke-width:2; stroke-opacity:0.1; fill:none" points="
  365.682,1423.18 365.682,47.2441 
  "/>
<polyline clip-path="url(#clip282)" style="stroke:#000000; stroke-width:2; stroke-opacity:0.1; fill:none" points="
  725.57,1423.18 725.57,47.2441 
  "/>
<polyline clip-path="url(#clip282)" style="stroke:#000000; stroke-width:2; stroke-opacity:0.1; fill:none" points="
  1085.46,1423.18 1085.46,47.2441 
  "/>
<polyline clip-path="url(#clip282)" style="stroke:#000000; stroke-width:2; stroke-opacity:0.1; fill:none" points="
  1445.35,1423.18 1445.35,47.2441 
  "/>
<polyline clip-path="url(#clip282)" style="stroke:#000000; stroke-width:2; stroke-opacity:0.1; fill:none" points="
  1805.24,1423.18 1805.24,47.2441 
  "/>
<polyline clip-path="url(#clip282)" style="stroke:#000000; stroke-width:2; stroke-opacity:0.1; fill:none" points="
  2165.12,1423.18 2165.12,47.2441 
  "/>
<polyline clip-path="url(#clip280)" style="stroke:#000000; stroke-width:4; stroke-opacity:1; fill:none" points="
  250.028,1423.18 2352.76,1423.18 
  "/>
<polyline clip-path="url(#clip280)" style="stroke:#000000; stroke-width:4; stroke-opacity:1; fill:none" points="
  365.682,1423.18 365.682,1406.67 
  "/>
<polyline clip-path="url(#clip280)" style="stroke:#000000; stroke-width:4; stroke-opacity:1; fill:none" points="
  725.57,1423.18 725.57,1406.67 
  "/>
<polyline clip-path="url(#clip280)" style="stroke:#000000; stroke-width:4; stroke-opacity:1; fill:none" points="
  1085.46,1423.18 1085.46,1406.67 
  "/>
<polyline clip-path="url(#clip280)" style="stroke:#000000; stroke-width:4; stroke-opacity:1; fill:none" points="
  1445.35,1423.18 1445.35,1406.67 
  "/>
<polyline clip-path="url(#clip280)" style="stroke:#000000; stroke-width:4; stroke-opacity:1; fill:none" points="
  1805.24,1423.18 1805.24,1406.67 
  "/>
<polyline clip-path="url(#clip280)" style="stroke:#000000; stroke-width:4; stroke-opacity:1; fill:none" points="
  2165.12,1423.18 2165.12,1406.67 
  "/>
<path clip-path="url(#clip280)" d="M 0 0 M365.682 1452.37 Q362.071 1452.37 360.242 1455.94 Q358.437 1459.48 358.437 1466.61 Q358.437 1473.71 360.242 1477.28 Q362.071 1480.82 365.682 1480.82 Q369.316 1480.82 371.122 1477.28 Q372.95 1473.71 372.95 1466.61 Q372.95 1459.48 371.122 1455.94 Q369.316 1452.37 365.682 1452.37 M365.682 1448.67 Q371.492 1448.67 374.548 1453.27 Q377.626 1457.86 377.626 1466.61 Q377.626 1475.33 374.548 1479.94 Q371.492 1484.52 365.682 1484.52 Q359.872 1484.52 356.793 1479.94 Q353.738 1475.33 353.738 1466.61 Q353.738 1457.86 356.793 1453.27 Q359.872 1448.67 365.682 1448.67 Z" fill="#000000" fill-rule="evenodd" fill-opacity="1" /><path clip-path="url(#clip280)" d="M 0 0 M715.848 1449.29 L734.205 1449.29 L734.205 1453.23 L720.131 1453.23 L720.131 1461.7 Q721.149 1461.35 722.168 1461.19 Q723.186 1461 724.205 1461 Q729.992 1461 733.371 1464.18 Q736.751 1467.35 736.751 1472.76 Q736.751 1478.34 733.279 1481.44 Q729.807 1484.52 723.487 1484.52 Q721.311 1484.52 719.043 1484.15 Q716.797 1483.78 714.39 1483.04 L714.39 1478.34 Q716.473 1479.48 718.695 1480.03 Q720.918 1480.59 723.395 1480.59 Q727.399 1480.59 729.737 1478.48 Q732.075 1476.38 732.075 1472.76 Q732.075 1469.15 729.737 1467.05 Q727.399 1464.94 723.395 1464.94 Q721.52 1464.94 719.645 1465.36 Q717.793 1465.77 715.848 1466.65 L715.848 1449.29 Z" fill="#000000" fill-rule="evenodd" fill-opacity="1" /><path clip-path="url(#clip280)" d="M 0 0 M1060.15 1479.92 L1067.79 1479.92 L1067.79 1453.55 L1059.48 1455.22 L1059.48 1450.96 L1067.74 1449.29 L1072.42 1449.29 L1072.42 1479.92 L1080.05 1479.92 L1080.05 1483.85 L1060.15 1483.85 L1060.15 1479.92 Z" fill="#000000" fill-rule="evenodd" fill-opacity="1" /><path clip-path="url(#clip280)" d="M 0 0 M1099.5 1452.37 Q1095.89 1452.37 1094.06 1455.94 Q1092.25 1459.48 1092.25 1466.61 Q1092.25 1473.71 1094.06 1477.28 Q1095.89 1480.82 1099.5 1480.82 Q1103.13 1480.82 1104.94 1477.28 Q1106.77 1473.71 1106.77 1466.61 Q1106.77 1459.48 1104.94 1455.94 Q1103.13 1452.37 1099.5 1452.37 M1099.5 1448.67 Q1105.31 1448.67 1108.36 1453.27 Q1111.44 1457.86 1111.44 1466.61 Q1111.44 1475.33 1108.36 1479.94 Q1105.31 1484.52 1099.5 1484.52 Q1093.69 1484.52 1090.61 1479.94 Q1087.55 1475.33 1087.55 1466.61 Q1087.55 1457.86 1090.61 1453.27 Q1093.69 1448.67 1099.5 1448.67 Z" fill="#000000" fill-rule="evenodd" fill-opacity="1" /><path clip-path="url(#clip280)" d="M 0 0 M1420.53 1479.92 L1428.17 1479.92 L1428.17 1453.55 L1419.86 1455.22 L1419.86 1450.96 L1428.13 1449.29 L1432.8 1449.29 L1432.8 1479.92 L1440.44 1479.92 L1440.44 1483.85 L1420.53 1483.85 L1420.53 1479.92 Z" fill="#000000" fill-rule="evenodd" fill-opacity="1" /><path clip-path="url(#clip280)" d="M 0 0 M1449.93 1449.29 L1468.29 1449.29 L1468.29 1453.23 L1454.21 1453.23 L1454.21 1461.7 Q1455.23 1461.35 1456.25 1461.19 Q1457.27 1461 1458.29 1461 Q1464.07 1461 1467.45 1464.18 Q1470.83 1467.35 1470.83 1472.76 Q1470.83 1478.34 1467.36 1481.44 Q1463.89 1484.52 1457.57 1484.52 Q1455.39 1484.52 1453.13 1484.15 Q1450.88 1483.78 1448.47 1483.04 L1448.47 1478.34 Q1450.56 1479.48 1452.78 1480.03 Q1455 1480.59 1457.48 1480.59 Q1461.48 1480.59 1463.82 1478.48 Q1466.16 1476.38 1466.16 1472.76 Q1466.16 1469.15 1463.82 1467.05 Q1461.48 1464.94 1457.48 1464.94 Q1455.6 1464.94 1453.73 1465.36 Q1451.88 1465.77 1449.93 1466.65 L1449.93 1449.29 Z" fill="#000000" fill-rule="evenodd" fill-opacity="1" /><path clip-path="url(#clip280)" d="M 0 0 M1784.01 1479.92 L1800.33 1479.92 L1800.33 1483.85 L1778.38 1483.85 L1778.38 1479.92 Q1781.05 1477.16 1785.63 1472.53 Q1790.24 1467.88 1791.42 1466.54 Q1793.66 1464.01 1794.54 1462.28 Q1795.44 1460.52 1795.44 1458.83 Q1795.44 1456.07 1793.5 1454.34 Q1791.58 1452.6 1788.48 1452.6 Q1786.28 1452.6 1783.82 1453.37 Q1781.39 1454.13 1778.62 1455.68 L1778.62 1450.96 Q1781.44 1449.82 1783.89 1449.25 Q1786.35 1448.67 1788.38 1448.67 Q1793.75 1448.67 1796.95 1451.35 Q1800.14 1454.04 1800.14 1458.53 Q1800.14 1460.66 1799.33 1462.58 Q1798.55 1464.48 1796.44 1467.07 Q1795.86 1467.74 1792.76 1470.96 Q1789.66 1474.15 1784.01 1479.92 Z" fill="#000000" fill-rule="evenodd" fill-opacity="1" /><path clip-path="url(#clip280)" d="M 0 0 M1820.14 1452.37 Q1816.53 1452.37 1814.7 1455.94 Q1812.9 1459.48 1812.9 1466.61 Q1812.9 1473.71 1814.7 1477.28 Q1816.53 1480.82 1820.14 1480.82 Q1823.78 1480.82 1825.58 1477.28 Q1827.41 1473.71 1827.41 1466.61 Q1827.41 1459.48 1825.58 1455.94 Q1823.78 1452.37 1820.14 1452.37 M1820.14 1448.67 Q1825.95 1448.67 1829.01 1453.27 Q1832.09 1457.86 1832.09 1466.61 Q1832.09 1475.33 1829.01 1479.94 Q1825.95 1484.52 1820.14 1484.52 Q1814.33 1484.52 1811.25 1479.94 Q1808.2 1475.33 1808.2 1466.61 Q1808.2 1457.86 1811.25 1453.27 Q1814.33 1448.67 1820.14 1448.67 Z" fill="#000000" fill-rule="evenodd" fill-opacity="1" /><path clip-path="url(#clip280)" d="M 0 0 M2144.4 1479.92 L2160.71 1479.92 L2160.71 1483.85 L2138.77 1483.85 L2138.77 1479.92 Q2141.43 1477.16 2146.02 1472.53 Q2150.62 1467.88 2151.8 1466.54 Q2154.05 1464.01 2154.93 1462.28 Q2155.83 1460.52 2155.83 1458.83 Q2155.83 1456.07 2153.89 1454.34 Q2151.96 1452.6 2148.86 1452.6 Q2146.66 1452.6 2144.21 1453.37 Q2141.78 1454.13 2139 1455.68 L2139 1450.96 Q2141.83 1449.82 2144.28 1449.25 Q2146.73 1448.67 2148.77 1448.67 Q2154.14 1448.67 2157.34 1451.35 Q2160.53 1454.04 2160.53 1458.53 Q2160.53 1460.66 2159.72 1462.58 Q2158.93 1464.48 2156.83 1467.07 Q2156.25 1467.74 2153.15 1470.96 Q2150.04 1474.15 2144.4 1479.92 Z" fill="#000000" fill-rule="evenodd" fill-opacity="1" /><path clip-path="url(#clip280)" d="M 0 0 M2170.58 1449.29 L2188.93 1449.29 L2188.93 1453.23 L2174.86 1453.23 L2174.86 1461.7 Q2175.88 1461.35 2176.9 1461.19 Q2177.91 1461 2178.93 1461 Q2184.72 1461 2188.1 1464.18 Q2191.48 1467.35 2191.48 1472.76 Q2191.48 1478.34 2188.01 1481.44 Q2184.53 1484.52 2178.21 1484.52 Q2176.04 1484.52 2173.77 1484.15 Q2171.52 1483.78 2169.12 1483.04 L2169.12 1478.34 Q2171.2 1479.48 2173.42 1480.03 Q2175.65 1480.59 2178.12 1480.59 Q2182.13 1480.59 2184.46 1478.48 Q2186.8 1476.38 2186.8 1472.76 Q2186.8 1469.15 2184.46 1467.05 Q2182.13 1464.94 2178.12 1464.94 Q2176.25 1464.94 2174.37 1465.36 Q2172.52 1465.77 2170.58 1466.65 L2170.58 1449.29 Z" fill="#000000" fill-rule="evenodd" fill-opacity="1" /><path clip-path="url(#clip280)" d="M 0 0 M1303.35 1539.24 Q1305.55 1535.29 1308.6 1533.41 Q1311.66 1531.54 1315.79 1531.54 Q1321.36 1531.54 1324.39 1535.45 Q1327.41 1539.33 1327.41 1546.53 L1327.41 1568.04 L1321.52 1568.04 L1321.52 1546.72 Q1321.52 1541.59 1319.71 1539.11 Q1317.9 1536.63 1314.17 1536.63 Q1309.62 1536.63 1306.98 1539.65 Q1304.34 1542.68 1304.34 1547.9 L1304.34 1568.04 L1298.45 1568.04 L1298.45 1546.72 Q1298.45 1541.56 1296.63 1539.11 Q1294.82 1536.63 1291.03 1536.63 Q1286.54 1536.63 1283.9 1539.68 Q1281.26 1542.71 1281.26 1547.9 L1281.26 1568.04 L1275.37 1568.04 L1275.37 1532.4 L1281.26 1532.4 L1281.26 1537.93 Q1283.27 1534.66 1286.07 1533.1 Q1288.87 1531.54 1292.72 1531.54 Q1296.6 1531.54 1299.31 1533.51 Q1302.04 1535.48 1303.35 1539.24 Z" fill="#000000" fill-rule="evenodd" fill-opacity="1" /><polyline clip-path="url(#clip282)" style="stroke:#000000; stroke-width:2; stroke-opacity:0.1; fill:none" points="
  250.028,1384.24 2352.76,1384.24 
  "/>
<polyline clip-path="url(#clip282)" style="stroke:#000000; stroke-width:2; stroke-opacity:0.1; fill:none" points="
  250.028,1184.08 2352.76,1184.08 
  "/>
<polyline clip-path="url(#clip282)" style="stroke:#000000; stroke-width:2; stroke-opacity:0.1; fill:none" points="
  250.028,983.917 2352.76,983.917 
  "/>
<polyline clip-path="url(#clip282)" style="stroke:#000000; stroke-width:2; stroke-opacity:0.1; fill:none" points="
  250.028,783.756 2352.76,783.756 
  "/>
<polyline clip-path="url(#clip282)" style="stroke:#000000; stroke-width:2; stroke-opacity:0.1; fill:none" points="
  250.028,583.595 2352.76,583.595 
  "/>
<polyline clip-path="url(#clip282)" style="stroke:#000000; stroke-width:2; stroke-opacity:0.1; fill:none" points="
  250.028,383.434 2352.76,383.434 
  "/>
<polyline clip-path="url(#clip282)" style="stroke:#000000; stroke-width:2; stroke-opacity:0.1; fill:none" points="
  250.028,183.274 2352.76,183.274 
  "/>
<polyline clip-path="url(#clip280)" style="stroke:#000000; stroke-width:4; stroke-opacity:1; fill:none" points="
  250.028,1423.18 250.028,47.2441 
  "/>
<polyline clip-path="url(#clip280)" style="stroke:#000000; stroke-width:4; stroke-opacity:1; fill:none" points="
  250.028,1384.24 275.261,1384.24 
  "/>
<polyline clip-path="url(#clip280)" style="stroke:#000000; stroke-width:4; stroke-opacity:1; fill:none" points="
  250.028,1184.08 275.261,1184.08 
  "/>
<polyline clip-path="url(#clip280)" style="stroke:#000000; stroke-width:4; stroke-opacity:1; fill:none" points="
  250.028,983.917 275.261,983.917 
  "/>
<polyline clip-path="url(#clip280)" style="stroke:#000000; stroke-width:4; stroke-opacity:1; fill:none" points="
  250.028,783.756 275.261,783.756 
  "/>
<polyline clip-path="url(#clip280)" style="stroke:#000000; stroke-width:4; stroke-opacity:1; fill:none" points="
  250.028,583.595 275.261,583.595 
  "/>
<polyline clip-path="url(#clip280)" style="stroke:#000000; stroke-width:4; stroke-opacity:1; fill:none" points="
  250.028,383.434 275.261,383.434 
  "/>
<polyline clip-path="url(#clip280)" style="stroke:#000000; stroke-width:4; stroke-opacity:1; fill:none" points="
  250.028,183.274 275.261,183.274 
  "/>
<path clip-path="url(#clip280)" d="M 0 0 M126.691 1370.04 Q123.08 1370.04 121.251 1373.6 Q119.445 1377.14 119.445 1384.27 Q119.445 1391.38 121.251 1394.94 Q123.08 1398.49 126.691 1398.49 Q130.325 1398.49 132.13 1394.94 Q133.959 1391.38 133.959 1384.27 Q133.959 1377.14 132.13 1373.6 Q130.325 1370.04 126.691 1370.04 M126.691 1366.33 Q132.501 1366.33 135.556 1370.94 Q138.635 1375.52 138.635 1384.27 Q138.635 1393 135.556 1397.61 Q132.501 1402.19 126.691 1402.19 Q120.88 1402.19 117.802 1397.61 Q114.746 1393 114.746 1384.27 Q114.746 1375.52 117.802 1370.94 Q120.88 1366.33 126.691 1366.33 Z" fill="#000000" fill-rule="evenodd" fill-opacity="1" /><path clip-path="url(#clip280)" d="M 0 0 M146.853 1395.64 L151.737 1395.64 L151.737 1401.52 L146.853 1401.52 L146.853 1395.64 Z" fill="#000000" fill-rule="evenodd" fill-opacity="1" /><path clip-path="url(#clip280)" d="M 0 0 M171.922 1370.04 Q168.311 1370.04 166.482 1373.6 Q164.677 1377.14 164.677 1384.27 Q164.677 1391.38 166.482 1394.94 Q168.311 1398.49 171.922 1398.49 Q175.556 1398.49 177.362 1394.94 Q179.19 1391.38 179.19 1384.27 Q179.19 1377.14 177.362 1373.6 Q175.556 1370.04 171.922 1370.04 M171.922 1366.33 Q177.732 1366.33 180.788 1370.94 Q183.866 1375.52 183.866 1384.27 Q183.866 1393 180.788 1397.61 Q177.732 1402.19 171.922 1402.19 Q166.112 1402.19 163.033 1397.61 Q159.978 1393 159.978 1384.27 Q159.978 1375.52 163.033 1370.94 Q166.112 1366.33 171.922 1366.33 Z" fill="#000000" fill-rule="evenodd" fill-opacity="1" /><path clip-path="url(#clip280)" d="M 0 0 M202.084 1370.04 Q198.473 1370.04 196.644 1373.6 Q194.838 1377.14 194.838 1384.27 Q194.838 1391.38 196.644 1394.94 Q198.473 1398.49 202.084 1398.49 Q205.718 1398.49 207.524 1394.94 Q209.352 1391.38 209.352 1384.27 Q209.352 1377.14 207.524 1373.6 Q205.718 1370.04 202.084 1370.04 M202.084 1366.33 Q207.894 1366.33 210.949 1370.94 Q214.028 1375.52 214.028 1384.27 Q214.028 1393 210.949 1397.61 Q207.894 1402.19 202.084 1402.19 Q196.274 1402.19 193.195 1397.61 Q190.139 1393 190.139 1384.27 Q190.139 1375.52 193.195 1370.94 Q196.274 1366.33 202.084 1366.33 Z" fill="#000000" fill-rule="evenodd" fill-opacity="1" /><path clip-path="url(#clip280)" d="M 0 0 M128.288 1169.88 Q124.677 1169.88 122.848 1173.44 Q121.043 1176.98 121.043 1184.11 Q121.043 1191.22 122.848 1194.78 Q124.677 1198.33 128.288 1198.33 Q131.922 1198.33 133.728 1194.78 Q135.556 1191.22 135.556 1184.11 Q135.556 1176.98 133.728 1173.44 Q131.922 1169.88 128.288 1169.88 M128.288 1166.17 Q134.098 1166.17 137.154 1170.78 Q140.232 1175.36 140.232 1184.11 Q140.232 1192.84 137.154 1197.45 Q134.098 1202.03 128.288 1202.03 Q122.478 1202.03 119.399 1197.45 Q116.343 1192.84 116.343 1184.11 Q116.343 1175.36 119.399 1170.78 Q122.478 1166.17 128.288 1166.17 Z" fill="#000000" fill-rule="evenodd" fill-opacity="1" /><path clip-path="url(#clip280)" d="M 0 0 M148.45 1195.48 L153.334 1195.48 L153.334 1201.36 L148.45 1201.36 L148.45 1195.48 Z" fill="#000000" fill-rule="evenodd" fill-opacity="1" /><path clip-path="url(#clip280)" d="M 0 0 M173.519 1169.88 Q169.908 1169.88 168.079 1173.44 Q166.274 1176.98 166.274 1184.11 Q166.274 1191.22 168.079 1194.78 Q169.908 1198.33 173.519 1198.33 Q177.153 1198.33 178.959 1194.78 Q180.788 1191.22 180.788 1184.11 Q180.788 1176.98 178.959 1173.44 Q177.153 1169.88 173.519 1169.88 M173.519 1166.17 Q179.329 1166.17 182.385 1170.78 Q185.463 1175.36 185.463 1184.11 Q185.463 1192.84 182.385 1197.45 Q179.329 1202.03 173.519 1202.03 Q167.709 1202.03 164.63 1197.45 Q161.575 1192.84 161.575 1184.11 Q161.575 1175.36 164.63 1170.78 Q167.709 1166.17 173.519 1166.17 Z" fill="#000000" fill-rule="evenodd" fill-opacity="1" /><path clip-path="url(#clip280)" d="M 0 0 M197.709 1197.42 L214.028 1197.42 L214.028 1201.36 L192.084 1201.36 L192.084 1197.42 Q194.746 1194.67 199.329 1190.04 Q203.936 1185.39 205.116 1184.04 Q207.362 1181.52 208.241 1179.78 Q209.144 1178.02 209.144 1176.33 Q209.144 1173.58 207.199 1171.84 Q205.278 1170.11 202.176 1170.11 Q199.977 1170.11 197.524 1170.87 Q195.093 1171.64 192.315 1173.19 L192.315 1168.46 Q195.139 1167.33 197.593 1166.75 Q200.047 1166.17 202.084 1166.17 Q207.454 1166.17 210.649 1168.86 Q213.843 1171.54 213.843 1176.03 Q213.843 1178.16 213.033 1180.08 Q212.246 1181.98 210.139 1184.58 Q209.561 1185.25 206.459 1188.46 Q203.357 1191.66 197.709 1197.42 Z" fill="#000000" fill-rule="evenodd" fill-opacity="1" /><path clip-path="url(#clip280)" d="M 0 0 M126.205 969.715 Q122.593 969.715 120.765 973.28 Q118.959 976.822 118.959 983.951 Q118.959 991.058 120.765 994.623 Q122.593 998.164 126.205 998.164 Q129.839 998.164 131.644 994.623 Q133.473 991.058 133.473 983.951 Q133.473 976.822 131.644 973.28 Q129.839 969.715 126.205 969.715 M126.205 966.012 Q132.015 966.012 135.07 970.618 Q138.149 975.201 138.149 983.951 Q138.149 992.678 135.07 997.285 Q132.015 1001.87 126.205 1001.87 Q120.394 1001.87 117.316 997.285 Q114.26 992.678 114.26 983.951 Q114.26 975.201 117.316 970.618 Q120.394 966.012 126.205 966.012 Z" fill="#000000" fill-rule="evenodd" fill-opacity="1" /><path clip-path="url(#clip280)" d="M 0 0 M146.366 995.317 L151.251 995.317 L151.251 1001.2 L146.366 1001.2 L146.366 995.317 Z" fill="#000000" fill-rule="evenodd" fill-opacity="1" /><path clip-path="url(#clip280)" d="M 0 0 M171.436 969.715 Q167.825 969.715 165.996 973.28 Q164.19 976.822 164.19 983.951 Q164.19 991.058 165.996 994.623 Q167.825 998.164 171.436 998.164 Q175.07 998.164 176.876 994.623 Q178.704 991.058 178.704 983.951 Q178.704 976.822 176.876 973.28 Q175.07 969.715 171.436 969.715 M171.436 966.012 Q177.246 966.012 180.301 970.618 Q183.38 975.201 183.38 983.951 Q183.38 992.678 180.301 997.285 Q177.246 1001.87 171.436 1001.87 Q165.626 1001.87 162.547 997.285 Q159.491 992.678 159.491 983.951 Q159.491 975.201 162.547 970.618 Q165.626 966.012 171.436 966.012 Z" fill="#000000" fill-rule="evenodd" fill-opacity="1" /><path clip-path="url(#clip280)" d="M 0 0 M204.445 970.711 L192.639 989.16 L204.445 989.16 L204.445 970.711 M203.218 966.637 L209.098 966.637 L209.098 989.16 L214.028 989.16 L214.028 993.049 L209.098 993.049 L209.098 1001.2 L204.445 1001.2 L204.445 993.049 L188.843 993.049 L188.843 988.535 L203.218 966.637 Z" fill="#000000" fill-rule="evenodd" fill-opacity="1" /><path clip-path="url(#clip280)" d="M 0 0 M126.529 769.555 Q122.918 769.555 121.089 773.119 Q119.283 776.661 119.283 783.791 Q119.283 790.897 121.089 794.462 Q122.918 798.004 126.529 798.004 Q130.163 798.004 131.968 794.462 Q133.797 790.897 133.797 783.791 Q133.797 776.661 131.968 773.119 Q130.163 769.555 126.529 769.555 M126.529 765.851 Q132.339 765.851 135.394 770.457 Q138.473 775.041 138.473 783.791 Q138.473 792.517 135.394 797.124 Q132.339 801.707 126.529 801.707 Q120.718 801.707 117.64 797.124 Q114.584 792.517 114.584 783.791 Q114.584 775.041 117.64 770.457 Q120.718 765.851 126.529 765.851 Z" fill="#000000" fill-rule="evenodd" fill-opacity="1" /><path clip-path="url(#clip280)" d="M 0 0 M146.691 795.156 L151.575 795.156 L151.575 801.036 L146.691 801.036 L146.691 795.156 Z" fill="#000000" fill-rule="evenodd" fill-opacity="1" /><path clip-path="url(#clip280)" d="M 0 0 M171.76 769.555 Q168.149 769.555 166.32 773.119 Q164.515 776.661 164.515 783.791 Q164.515 790.897 166.32 794.462 Q168.149 798.004 171.76 798.004 Q175.394 798.004 177.2 794.462 Q179.028 790.897 179.028 783.791 Q179.028 776.661 177.2 773.119 Q175.394 769.555 171.76 769.555 M171.76 765.851 Q177.57 765.851 180.626 770.457 Q183.704 775.041 183.704 783.791 Q183.704 792.517 180.626 797.124 Q177.57 801.707 171.76 801.707 Q165.95 801.707 162.871 797.124 Q159.815 792.517 159.815 783.791 Q159.815 775.041 162.871 770.457 Q165.95 765.851 171.76 765.851 Z" fill="#000000" fill-rule="evenodd" fill-opacity="1" /><path clip-path="url(#clip280)" d="M 0 0 M202.5 781.893 Q199.352 781.893 197.5 784.045 Q195.672 786.198 195.672 789.948 Q195.672 793.675 197.5 795.851 Q199.352 798.004 202.5 798.004 Q205.649 798.004 207.477 795.851 Q209.329 793.675 209.329 789.948 Q209.329 786.198 207.477 784.045 Q205.649 781.893 202.5 781.893 M211.783 767.24 L211.783 771.499 Q210.024 770.666 208.218 770.226 Q206.436 769.786 204.676 769.786 Q200.047 769.786 197.593 772.911 Q195.163 776.036 194.815 782.355 Q196.181 780.342 198.241 779.277 Q200.301 778.189 202.778 778.189 Q207.987 778.189 210.996 781.36 Q214.028 784.508 214.028 789.948 Q214.028 795.272 210.88 798.49 Q207.732 801.707 202.5 801.707 Q196.505 801.707 193.334 797.124 Q190.163 792.517 190.163 783.791 Q190.163 775.596 194.051 770.735 Q197.94 765.851 204.491 765.851 Q206.25 765.851 208.033 766.198 Q209.838 766.545 211.783 767.24 Z" fill="#000000" fill-rule="evenodd" fill-opacity="1" /><path clip-path="url(#clip280)" d="M 0 0 M126.783 569.394 Q123.172 569.394 121.343 572.959 Q119.538 576.5 119.538 583.63 Q119.538 590.736 121.343 594.301 Q123.172 597.843 126.783 597.843 Q130.417 597.843 132.223 594.301 Q134.052 590.736 134.052 583.63 Q134.052 576.5 132.223 572.959 Q130.417 569.394 126.783 569.394 M126.783 565.69 Q132.593 565.69 135.649 570.297 Q138.728 574.88 138.728 583.63 Q138.728 592.357 135.649 596.963 Q132.593 601.546 126.783 601.546 Q120.973 601.546 117.894 596.963 Q114.839 592.357 114.839 583.63 Q114.839 574.88 117.894 570.297 Q120.973 565.69 126.783 565.69 Z" fill="#000000" fill-rule="evenodd" fill-opacity="1" /><path clip-path="url(#clip280)" d="M 0 0 M146.945 594.996 L151.829 594.996 L151.829 600.875 L146.945 600.875 L146.945 594.996 Z" fill="#000000" fill-rule="evenodd" fill-opacity="1" /><path clip-path="url(#clip280)" d="M 0 0 M172.014 569.394 Q168.403 569.394 166.575 572.959 Q164.769 576.5 164.769 583.63 Q164.769 590.736 166.575 594.301 Q168.403 597.843 172.014 597.843 Q175.649 597.843 177.454 594.301 Q179.283 590.736 179.283 583.63 Q179.283 576.5 177.454 572.959 Q175.649 569.394 172.014 569.394 M172.014 565.69 Q177.825 565.69 180.88 570.297 Q183.959 574.88 183.959 583.63 Q183.959 592.357 180.88 596.963 Q177.825 601.546 172.014 601.546 Q166.204 601.546 163.126 596.963 Q160.07 592.357 160.07 583.63 Q160.07 574.88 163.126 570.297 Q166.204 565.69 172.014 565.69 Z" fill="#000000" fill-rule="evenodd" fill-opacity="1" /><path clip-path="url(#clip280)" d="M 0 0 M202.176 584.463 Q198.843 584.463 196.922 586.246 Q195.024 588.028 195.024 591.153 Q195.024 594.278 196.922 596.06 Q198.843 597.843 202.176 597.843 Q205.51 597.843 207.431 596.06 Q209.352 594.255 209.352 591.153 Q209.352 588.028 207.431 586.246 Q205.533 584.463 202.176 584.463 M197.5 582.472 Q194.491 581.732 192.801 579.672 Q191.135 577.611 191.135 574.648 Q191.135 570.505 194.075 568.098 Q197.037 565.69 202.176 565.69 Q207.338 565.69 210.278 568.098 Q213.218 570.505 213.218 574.648 Q213.218 577.611 211.528 579.672 Q209.861 581.732 206.875 582.472 Q210.255 583.26 212.13 585.551 Q214.028 587.843 214.028 591.153 Q214.028 596.176 210.949 598.861 Q207.894 601.546 202.176 601.546 Q196.459 601.546 193.38 598.861 Q190.325 596.176 190.325 591.153 Q190.325 587.843 192.223 585.551 Q194.121 583.26 197.5 582.472 M195.787 575.088 Q195.787 577.773 197.454 579.278 Q199.144 580.783 202.176 580.783 Q205.186 580.783 206.875 579.278 Q208.588 577.773 208.588 575.088 Q208.588 572.403 206.875 570.898 Q205.186 569.394 202.176 569.394 Q199.144 569.394 197.454 570.898 Q195.787 572.403 195.787 575.088 Z" fill="#000000" fill-rule="evenodd" fill-opacity="1" /><path clip-path="url(#clip280)" d="M 0 0 M126.691 369.233 Q123.08 369.233 121.251 372.798 Q119.445 376.34 119.445 383.469 Q119.445 390.576 121.251 394.14 Q123.08 397.682 126.691 397.682 Q130.325 397.682 132.13 394.14 Q133.959 390.576 133.959 383.469 Q133.959 376.34 132.13 372.798 Q130.325 369.233 126.691 369.233 M126.691 365.529 Q132.501 365.529 135.556 370.136 Q138.635 374.719 138.635 383.469 Q138.635 392.196 135.556 396.802 Q132.501 401.386 126.691 401.386 Q120.88 401.386 117.802 396.802 Q114.746 392.196 114.746 383.469 Q114.746 374.719 117.802 370.136 Q120.88 365.529 126.691 365.529 Z" fill="#000000" fill-rule="evenodd" fill-opacity="1" /><path clip-path="url(#clip280)" d="M 0 0 M146.853 394.835 L151.737 394.835 L151.737 400.714 L146.853 400.714 L146.853 394.835 Z" fill="#000000" fill-rule="evenodd" fill-opacity="1" /><path clip-path="url(#clip280)" d="M 0 0 M162.732 396.779 L170.371 396.779 L170.371 370.414 L162.061 372.08 L162.061 367.821 L170.325 366.154 L175.001 366.154 L175.001 396.779 L182.639 396.779 L182.639 400.714 L162.732 400.714 L162.732 396.779 Z" fill="#000000" fill-rule="evenodd" fill-opacity="1" /><path clip-path="url(#clip280)" d="M 0 0 M202.084 369.233 Q198.473 369.233 196.644 372.798 Q194.838 376.34 194.838 383.469 Q194.838 390.576 196.644 394.14 Q198.473 397.682 202.084 397.682 Q205.718 397.682 207.524 394.14 Q209.352 390.576 209.352 383.469 Q209.352 376.34 207.524 372.798 Q205.718 369.233 202.084 369.233 M202.084 365.529 Q207.894 365.529 210.949 370.136 Q214.028 374.719 214.028 383.469 Q214.028 392.196 210.949 396.802 Q207.894 401.386 202.084 401.386 Q196.274 401.386 193.195 396.802 Q190.139 392.196 190.139 383.469 Q190.139 374.719 193.195 370.136 Q196.274 365.529 202.084 365.529 Z" fill="#000000" fill-rule="evenodd" fill-opacity="1" /><path clip-path="url(#clip280)" d="M 0 0 M128.288 169.072 Q124.677 169.072 122.848 172.637 Q121.043 176.179 121.043 183.308 Q121.043 190.415 122.848 193.98 Q124.677 197.521 128.288 197.521 Q131.922 197.521 133.728 193.98 Q135.556 190.415 135.556 183.308 Q135.556 176.179 133.728 172.637 Q131.922 169.072 128.288 169.072 M128.288 165.369 Q134.098 165.369 137.154 169.975 Q140.232 174.558 140.232 183.308 Q140.232 192.035 137.154 196.642 Q134.098 201.225 128.288 201.225 Q122.478 201.225 119.399 196.642 Q116.343 192.035 116.343 183.308 Q116.343 174.558 119.399 169.975 Q122.478 165.369 128.288 165.369 Z" fill="#000000" fill-rule="evenodd" fill-opacity="1" /><path clip-path="url(#clip280)" d="M 0 0 M148.45 194.674 L153.334 194.674 L153.334 200.554 L148.45 200.554 L148.45 194.674 Z" fill="#000000" fill-rule="evenodd" fill-opacity="1" /><path clip-path="url(#clip280)" d="M 0 0 M164.329 196.618 L171.968 196.618 L171.968 170.253 L163.658 171.92 L163.658 167.66 L171.922 165.994 L176.598 165.994 L176.598 196.618 L184.237 196.618 L184.237 200.554 L164.329 200.554 L164.329 196.618 Z" fill="#000000" fill-rule="evenodd" fill-opacity="1" /><path clip-path="url(#clip280)" d="M 0 0 M197.709 196.618 L214.028 196.618 L214.028 200.554 L192.084 200.554 L192.084 196.618 Q194.746 193.864 199.329 189.234 Q203.936 184.581 205.116 183.239 Q207.362 180.716 208.241 178.98 Q209.144 177.22 209.144 175.531 Q209.144 172.776 207.199 171.04 Q205.278 169.304 202.176 169.304 Q199.977 169.304 197.524 170.068 Q195.093 170.832 192.315 172.382 L192.315 167.66 Q195.139 166.526 197.593 165.947 Q200.047 165.369 202.084 165.369 Q207.454 165.369 210.649 168.054 Q213.843 170.739 213.843 175.23 Q213.843 177.359 213.033 179.281 Q212.246 181.179 210.139 183.771 Q209.561 184.443 206.459 187.66 Q203.357 190.855 197.709 196.618 Z" fill="#000000" fill-rule="evenodd" fill-opacity="1" /><path clip-path="url(#clip280)" d="M 0 0 M21.7677 799.617 L39.6235 799.617 L39.6235 791.533 Q39.6235 787.045 37.3 784.594 Q34.9765 782.143 30.6797 782.143 Q26.4147 782.143 24.0912 784.594 Q21.7677 787.045 21.7677 791.533 L21.7677 799.617 M16.4842 806.046 L16.4842 791.533 Q16.4842 783.544 20.1126 779.47 Q23.7092 775.364 30.6797 775.364 Q37.7138 775.364 41.3104 779.47 Q44.907 783.544 44.907 791.533 L44.907 799.617 L64.0042 799.617 L64.0042 806.046 L16.4842 806.046 Z" fill="#000000" fill-rule="evenodd" fill-opacity="1" /><path clip-path="url(#clip280)" d="M 0 0 M14.5426 752.925 Q21.8632 757.19 29.0246 759.258 Q36.186 761.327 43.5384 761.327 Q50.8908 761.327 58.1159 759.258 Q65.3091 757.158 72.5979 752.925 L72.5979 758.017 Q65.1182 762.791 57.8931 765.179 Q50.668 767.534 43.5384 767.534 Q36.4406 767.534 29.2474 765.179 Q22.0542 762.823 14.5426 758.017 L14.5426 752.925 Z" fill="#000000" fill-rule="evenodd" fill-opacity="1" /><path clip-path="url(#clip280)" d="M 0 0 M35.1993 713.807 Q31.2526 711.611 29.3747 708.556 Q27.4968 705.5 27.4968 701.362 Q27.4968 695.792 31.4117 692.769 Q35.2948 689.745 42.4881 689.745 L64.0042 689.745 L64.0042 695.633 L42.679 695.633 Q37.5546 695.633 35.072 697.447 Q32.5894 699.262 32.5894 702.986 Q32.5894 707.537 35.6131 710.179 Q38.6368 712.821 43.8567 712.821 L64.0042 712.821 L64.0042 718.709 L42.679 718.709 Q37.5228 718.709 35.072 720.523 Q32.5894 722.337 32.5894 726.125 Q32.5894 730.613 35.6449 733.255 Q38.6686 735.896 43.8567 735.896 L64.0042 735.896 L64.0042 741.785 L28.3562 741.785 L28.3562 735.896 L33.8944 735.896 Q30.616 733.891 29.0564 731.09 Q27.4968 728.289 27.4968 724.438 Q27.4968 720.555 29.4702 717.85 Q31.4436 715.112 35.1993 713.807 Z" fill="#000000" fill-rule="evenodd" fill-opacity="1" /><path clip-path="url(#clip280)" d="M 0 0 M14.5426 678.987 L14.5426 673.894 Q22.0542 669.12 29.2474 666.765 Q36.4406 664.378 43.5384 664.378 Q50.668 664.378 57.8931 666.765 Q65.1182 669.12 72.5979 673.894 L72.5979 678.987 Q65.3091 674.754 58.1159 672.685 Q50.8908 670.584 43.5384 670.584 Q36.186 670.584 29.0246 672.685 Q21.8632 674.754 14.5426 678.987 Z" fill="#000000" fill-rule="evenodd" fill-opacity="1" /><path clip-path="url(#clip282)" d="
M365.682 1383.54 L365.682 1384.24 L437.66 1384.24 L437.66 1383.54 L365.682 1383.54 L365.682 1383.54  Z
  " fill="#009af9" fill-rule="evenodd" fill-opacity="1"/>
<polyline clip-path="url(#clip282)" style="stroke:#009af9; stroke-width:4; stroke-opacity:1; fill:none" points="
  365.682,1383.54 365.682,1384.24 437.66,1384.24 437.66,1383.54 365.682,1383.54 
  "/>
<path clip-path="url(#clip282)" d="
M437.66 1379.83 L437.66 1384.24 L509.637 1384.24 L509.637 1379.83 L437.66 1379.83 L437.66 1379.83  Z
  " fill="#009af9" fill-rule="evenodd" fill-opacity="1"/>
<polyline clip-path="url(#clip282)" style="stroke:#009af9; stroke-width:4; stroke-opacity:1; fill:none" points="
  437.66,1379.83 437.66,1384.24 509.637,1384.24 509.637,1379.83 437.66,1379.83 
  "/>
<path clip-path="url(#clip282)" d="
M509.637 1351.58 L509.637 1384.24 L581.615 1384.24 L581.615 1351.58 L509.637 1351.58 L509.637 1351.58  Z
  " fill="#009af9" fill-rule="evenodd" fill-opacity="1"/>
<polyline clip-path="url(#clip282)" style="stroke:#009af9; stroke-width:4; stroke-opacity:1; fill:none" points="
  509.637,1351.58 509.637,1384.24 581.615,1384.24 581.615,1351.58 509.637,1351.58 
  "/>
<path clip-path="url(#clip282)" d="
M581.615 1289.07 L581.615 1384.24 L653.593 1384.24 L653.593 1289.07 L581.615 1289.07 L581.615 1289.07  Z
  " fill="#009af9" fill-rule="evenodd" fill-opacity="1"/>
<polyline clip-path="url(#clip282)" style="stroke:#009af9; stroke-width:4; stroke-opacity:1; fill:none" points="
  581.615,1289.07 581.615,1384.24 653.593,1384.24 653.593,1289.07 581.615,1289.07 
  "/>
<path clip-path="url(#clip282)" d="
M653.593 1161.63 L653.593 1384.24 L725.57 1384.24 L725.57 1161.63 L653.593 1161.63 L653.593 1161.63  Z
  " fill="#009af9" fill-rule="evenodd" fill-opacity="1"/>
<polyline clip-path="url(#clip282)" style="stroke:#009af9; stroke-width:4; stroke-opacity:1; fill:none" points="
  653.593,1161.63 653.593,1384.24 725.57,1384.24 725.57,1161.63 653.593,1161.63 
  "/>
<path clip-path="url(#clip282)" d="
M725.57 943.439 L725.57 1384.24 L797.548 1384.24 L797.548 943.439 L725.57 943.439 L725.57 943.439  Z
  " fill="#009af9" fill-rule="evenodd" fill-opacity="1"/>
<polyline clip-path="url(#clip282)" style="stroke:#009af9; stroke-width:4; stroke-opacity:1; fill:none" points="
  725.57,943.439 725.57,1384.24 797.548,1384.24 797.548,943.439 725.57,943.439 
  "/>
<path clip-path="url(#clip282)" d="
M797.548 671.446 L797.548 1384.24 L869.526 1384.24 L869.526 671.446 L797.548 671.446 L797.548 671.446  Z
  " fill="#009af9" fill-rule="evenodd" fill-opacity="1"/>
<polyline clip-path="url(#clip282)" style="stroke:#009af9; stroke-width:4; stroke-opacity:1; fill:none" points="
  797.548,671.446 797.548,1384.24 869.526,1384.24 869.526,671.446 797.548,671.446 
  "/>
<path clip-path="url(#clip282)" d="
M869.526 386.931 L869.526 1384.24 L941.504 1384.24 L941.504 386.931 L869.526 386.931 L869.526 386.931  Z
  " fill="#009af9" fill-rule="evenodd" fill-opacity="1"/>
<polyline clip-path="url(#clip282)" style="stroke:#009af9; stroke-width:4; stroke-opacity:1; fill:none" points="
  869.526,386.931 869.526,1384.24 941.504,1384.24 941.504,386.931 869.526,386.931 
  "/>
<path clip-path="url(#clip282)" d="
M941.504 201.495 L941.504 1384.24 L1013.48 1384.24 L1013.48 201.495 L941.504 201.495 L941.504 201.495  Z
  " fill="#009af9" fill-rule="evenodd" fill-opacity="1"/>
<polyline clip-path="url(#clip282)" style="stroke:#009af9; stroke-width:4; stroke-opacity:1; fill:none" points="
  941.504,201.495 941.504,1384.24 1013.48,1384.24 1013.48,201.495 941.504,201.495 
  "/>
<path clip-path="url(#clip282)" d="
M1013.48 86.1857 L1013.48 1384.24 L1085.46 1384.24 L1085.46 86.1857 L1013.48 86.1857 L1013.48 86.1857  Z
  " fill="#009af9" fill-rule="evenodd" fill-opacity="1"/>
<polyline clip-path="url(#clip282)" style="stroke:#009af9; stroke-width:4; stroke-opacity:1; fill:none" points="
  1013.48,86.1857 1013.48,1384.24 1085.46,1384.24 1085.46,86.1857 1013.48,86.1857 
  "/>
<path clip-path="url(#clip282)" d="
M1085.46 116.941 L1085.46 1384.24 L1157.44 1384.24 L1157.44 116.941 L1085.46 116.941 L1085.46 116.941  Z
  " fill="#009af9" fill-rule="evenodd" fill-opacity="1"/>
<polyline clip-path="url(#clip282)" style="stroke:#009af9; stroke-width:4; stroke-opacity:1; fill:none" points="
  1085.46,116.941 1085.46,1384.24 1157.44,1384.24 1157.44,116.941 1085.46,116.941 
  "/>
<path clip-path="url(#clip282)" d="
M1157.44 281.54 L1157.44 1384.24 L1229.41 1384.24 L1229.41 281.54 L1157.44 281.54 L1157.44 281.54  Z
  " fill="#009af9" fill-rule="evenodd" fill-opacity="1"/>
<polyline clip-path="url(#clip282)" style="stroke:#009af9; stroke-width:4; stroke-opacity:1; fill:none" points="
  1157.44,281.54 1157.44,1384.24 1229.41,1384.24 1229.41,281.54 1157.44,281.54 
  "/>
<path clip-path="url(#clip282)" d="
M1229.41 498.132 L1229.41 1384.24 L1301.39 1384.24 L1301.39 498.132 L1229.41 498.132 L1229.41 498.132  Z
  " fill="#009af9" fill-rule="evenodd" fill-opacity="1"/>
<polyline clip-path="url(#clip282)" style="stroke:#009af9; stroke-width:4; stroke-opacity:1; fill:none" points="
  1229.41,498.132 1229.41,1384.24 1301.39,1384.24 1301.39,498.132 1229.41,498.132 
  "/>
<path clip-path="url(#clip282)" d="
M1301.39 748.987 L1301.39 1384.24 L1373.37 1384.24 L1373.37 748.987 L1301.39 748.987 L1301.39 748.987  Z
  " fill="#009af9" fill-rule="evenodd" fill-opacity="1"/>
<polyline clip-path="url(#clip282)" style="stroke:#009af9; stroke-width:4; stroke-opacity:1; fill:none" points="
  1301.39,748.987 1301.39,1384.24 1373.37,1384.24 1373.37,748.987 1301.39,748.987 
  "/>
<path clip-path="url(#clip282)" d="
M1373.37 931.117 L1373.37 1384.24 L1445.35 1384.24 L1445.35 931.117 L1373.37 931.117 L1373.37 931.117  Z
  " fill="#009af9" fill-rule="evenodd" fill-opacity="1"/>
<polyline clip-path="url(#clip282)" style="stroke:#009af9; stroke-width:4; stroke-opacity:1; fill:none" points="
  1373.37,931.117 1373.37,1384.24 1445.35,1384.24 1445.35,931.117 1373.37,931.117 
  "/>
<path clip-path="url(#clip282)" d="
M1445.35 1092.81 L1445.35 1384.24 L1517.33 1384.24 L1517.33 1092.81 L1445.35 1092.81 L1445.35 1092.81  Z
  " fill="#009af9" fill-rule="evenodd" fill-opacity="1"/>
<polyline clip-path="url(#clip282)" style="stroke:#009af9; stroke-width:4; stroke-opacity:1; fill:none" points="
  1445.35,1092.81 1445.35,1384.24 1517.33,1384.24 1517.33,1092.81 1445.35,1092.81 
  "/>
<path clip-path="url(#clip282)" d="
M1517.33 1209.32 L1517.33 1384.24 L1589.3 1384.24 L1589.3 1209.32 L1517.33 1209.32 L1517.33 1209.32  Z
  " fill="#009af9" fill-rule="evenodd" fill-opacity="1"/>
<polyline clip-path="url(#clip282)" style="stroke:#009af9; stroke-width:4; stroke-opacity:1; fill:none" points="
  1517.33,1209.32 1517.33,1384.24 1589.3,1384.24 1589.3,1209.32 1517.33,1209.32 
  "/>
<path clip-path="url(#clip282)" d="
M1589.3 1282.75 L1589.3 1384.24 L1661.28 1384.24 L1661.28 1282.75 L1589.3 1282.75 L1589.3 1282.75  Z
  " fill="#009af9" fill-rule="evenodd" fill-opacity="1"/>
<polyline clip-path="url(#clip282)" style="stroke:#009af9; stroke-width:4; stroke-opacity:1; fill:none" points="
  1589.3,1282.75 1589.3,1384.24 1661.28,1384.24 1661.28,1282.75 1589.3,1282.75 
  "/>
<path clip-path="url(#clip282)" d="
M1661.28 1328.54 L1661.28 1384.24 L1733.26 1384.24 L1733.26 1328.54 L1661.28 1328.54 L1661.28 1328.54  Z
  " fill="#009af9" fill-rule="evenodd" fill-opacity="1"/>
<polyline clip-path="url(#clip282)" style="stroke:#009af9; stroke-width:4; stroke-opacity:1; fill:none" points="
  1661.28,1328.54 1661.28,1384.24 1733.26,1384.24 1733.26,1328.54 1661.28,1328.54 
  "/>
<path clip-path="url(#clip282)" d="
M1733.26 1355.89 L1733.26 1384.24 L1805.24 1384.24 L1805.24 1355.89 L1733.26 1355.89 L1733.26 1355.89  Z
  " fill="#009af9" fill-rule="evenodd" fill-opacity="1"/>
<polyline clip-path="url(#clip282)" style="stroke:#009af9; stroke-width:4; stroke-opacity:1; fill:none" points="
  1733.26,1355.89 1733.26,1384.24 1805.24,1384.24 1805.24,1355.89 1733.26,1355.89 
  "/>
<path clip-path="url(#clip282)" d="
M1805.24 1370.01 L1805.24 1384.24 L1877.21 1384.24 L1877.21 1370.01 L1805.24 1370.01 L1805.24 1370.01  Z
  " fill="#009af9" fill-rule="evenodd" fill-opacity="1"/>
<polyline clip-path="url(#clip282)" style="stroke:#009af9; stroke-width:4; stroke-opacity:1; fill:none" points="
  1805.24,1370.01 1805.24,1384.24 1877.21,1384.24 1877.21,1370.01 1805.24,1370.01 
  "/>
<path clip-path="url(#clip282)" d="
M1877.21 1377.73 L1877.21 1384.24 L1949.19 1384.24 L1949.19 1377.73 L1877.21 1377.73 L1877.21 1377.73  Z
  " fill="#009af9" fill-rule="evenodd" fill-opacity="1"/>
<polyline clip-path="url(#clip282)" style="stroke:#009af9; stroke-width:4; stroke-opacity:1; fill:none" points="
  1877.21,1377.73 1877.21,1384.24 1949.19,1384.24 1949.19,1377.73 1877.21,1377.73 
  "/>
<path clip-path="url(#clip282)" d="
M1949.19 1382.33 L1949.19 1384.24 L2021.17 1384.24 L2021.17 1382.33 L1949.19 1382.33 L1949.19 1382.33  Z
  " fill="#009af9" fill-rule="evenodd" fill-opacity="1"/>
<polyline clip-path="url(#clip282)" style="stroke:#009af9; stroke-width:4; stroke-opacity:1; fill:none" points="
  1949.19,1382.33 1949.19,1384.24 2021.17,1384.24 2021.17,1382.33 1949.19,1382.33 
  "/>
<path clip-path="url(#clip282)" d="
M2021.17 1383.04 L2021.17 1384.24 L2093.15 1384.24 L2093.15 1383.04 L2021.17 1383.04 L2021.17 1383.04  Z
  " fill="#009af9" fill-rule="evenodd" fill-opacity="1"/>
<polyline clip-path="url(#clip282)" style="stroke:#009af9; stroke-width:4; stroke-opacity:1; fill:none" points="
  2021.17,1383.04 2021.17,1384.24 2093.15,1384.24 2093.15,1383.04 2021.17,1383.04 
  "/>
<path clip-path="url(#clip282)" d="
M2093.15 1384.04 L2093.15 1384.24 L2165.12 1384.24 L2165.12 1384.04 L2093.15 1384.04 L2093.15 1384.04  Z
  " fill="#009af9" fill-rule="evenodd" fill-opacity="1"/>
<polyline clip-path="url(#clip282)" style="stroke:#009af9; stroke-width:4; stroke-opacity:1; fill:none" points="
  2093.15,1384.04 2093.15,1384.24 2165.12,1384.24 2165.12,1384.04 2093.15,1384.04 
  "/>
<path clip-path="url(#clip282)" d="
M2165.12 1383.84 L2165.12 1384.24 L2237.1 1384.24 L2237.1 1383.84 L2165.12 1383.84 L2165.12 1383.84  Z
  " fill="#009af9" fill-rule="evenodd" fill-opacity="1"/>
<polyline clip-path="url(#clip282)" style="stroke:#009af9; stroke-width:4; stroke-opacity:1; fill:none" points="
  2165.12,1383.84 2165.12,1384.24 2237.1,1384.24 2237.1,1383.84 2165.12,1383.84 
  "/>
<polyline clip-path="url(#clip282)" style="stroke:#e26f46; stroke-width:12; stroke-opacity:1; fill:none" points="
  365.682,1374.04 372.88,1372.97 380.077,1371.81 387.275,1370.54 394.473,1369.15 401.671,1367.64 408.869,1366 416.066,1364.22 423.264,1362.28 430.462,1360.19 
  437.66,1357.92 444.857,1355.46 452.055,1352.81 459.253,1349.95 466.451,1346.87 473.648,1343.56 480.846,1339.99 488.044,1336.17 495.242,1332.06 502.44,1327.67 
  509.637,1322.97 516.835,1317.94 524.033,1312.58 531.231,1306.86 538.428,1300.78 545.626,1294.31 552.824,1287.44 560.022,1280.15 567.219,1272.43 574.417,1264.26 
  581.615,1255.62 588.813,1246.51 596.011,1236.9 603.208,1226.79 610.406,1216.15 617.604,1204.98 624.802,1193.27 631.999,1181 639.197,1168.17 646.395,1154.77 
  653.593,1140.78 660.79,1126.22 667.988,1111.06 675.186,1095.31 682.384,1078.96 689.582,1062.03 696.779,1044.51 703.977,1026.41 711.175,1007.73 718.373,988.481 
  725.57,968.682 732.768,948.344 739.966,927.483 747.164,906.119 754.361,884.272 761.559,861.967 768.757,839.231 775.955,816.093 783.153,792.585 790.35,768.741 
  797.548,744.598 804.746,720.194 811.944,695.573 819.141,670.776 826.339,645.85 833.537,620.843 840.735,595.806 847.933,570.788 855.13,545.844 862.328,521.028 
  869.526,496.396 876.724,472.005 883.921,447.913 891.119,424.178 898.317,400.858 905.515,378.013 912.712,355.701 919.91,333.981 927.108,312.911 934.306,292.547 
  941.504,272.946 948.701,254.162 955.899,236.248 963.097,219.256 970.295,203.234 977.492,188.229 984.69,174.285 991.888,161.443 999.086,149.743 1006.28,139.218 
  1013.48,129.902 1020.68,121.821 1027.88,115.002 1035.07,109.465 1042.27,105.227 1049.47,102.301 1056.67,100.696 1063.87,100.417 1071.06,101.465 1078.26,103.838 
  1085.46,107.526 1092.66,112.52 1099.85,118.803 1107.05,126.357 1114.25,135.157 1121.45,145.178 1128.65,156.389 1135.84,168.756 1143.04,182.242 1150.24,196.807 
  1157.44,212.407 1164.63,228.998 1171.83,246.531 1179.03,264.956 1186.23,284.22 1193.43,304.27 1200.62,325.051 1207.82,346.505 1215.02,368.575 1222.22,391.204 
  1229.41,414.331 1236.61,437.899 1243.81,461.849 1251.01,486.122 1258.21,510.659 1265.4,535.405 1272.6,560.302 1279.8,585.295 1287,610.331 1294.19,635.357 
  1301.39,660.322 1308.59,685.179 1315.79,709.879 1322.99,734.38 1330.18,758.637 1337.38,782.611 1344.58,806.265 1351.78,829.562 1358.97,852.471 1366.17,874.96 
  1373.37,897.002 1380.57,918.572 1387.77,939.647 1394.96,960.207 1402.16,980.234 1409.36,999.713 1416.56,1018.63 1423.75,1036.98 1430.95,1054.74 1438.15,1071.93 
  1445.35,1088.52 1452.55,1104.52 1459.74,1119.92 1466.94,1134.74 1474.14,1148.97 1481.34,1162.61 1488.53,1175.69 1495.73,1188.19 1502.93,1200.13 1510.13,1211.53 
  1517.33,1222.39 1524.52,1232.72 1531.72,1242.53 1538.92,1251.85 1546.12,1260.69 1553.31,1269.05 1560.51,1276.96 1567.71,1284.43 1574.91,1291.47 1582.11,1298.11 
  1589.3,1304.36 1596.5,1310.22 1603.7,1315.73 1610.9,1320.9 1618.09,1325.73 1625.29,1330.25 1632.49,1334.48 1639.69,1338.42 1646.88,1342.09 1654.08,1345.51 
  1661.28,1348.69 1668.48,1351.64 1675.68,1354.37 1682.87,1356.91 1690.07,1359.25 1697.27,1361.42 1704.47,1363.42 1711.66,1365.27 1718.86,1366.97 1726.06,1368.53 
  1733.26,1369.97 1740.46,1371.29 1747.65,1372.5 1754.85,1373.6 1762.05,1374.62 1769.25,1375.54 1776.44,1376.39 1783.64,1377.16 1790.84,1377.86 1798.04,1378.49 
  1805.24,1379.07 1812.43,1379.6 1819.63,1380.08 1826.83,1380.51 1834.03,1380.9 1841.22,1381.25 1848.42,1381.57 1855.62,1381.85 1862.82,1382.11 1870.02,1382.34 
  1877.21,1382.55 1884.41,1382.74 1891.61,1382.91 1898.81,1383.06 1906,1383.19 1913.2,1383.31 1920.4,1383.42 1927.6,1383.51 1934.8,1383.6 1941.99,1383.68 
  1949.19,1383.74 1956.39,1383.8 1963.59,1383.85 1970.78,1383.9 1977.98,1383.94 1985.18,1383.98 1992.38,1384.01 1999.58,1384.04 2006.77,1384.07 2013.97,1384.09 
  2021.17,1384.11 2028.37,1384.12 2035.56,1384.14 2042.76,1384.15 2049.96,1384.16 2057.16,1384.17 2064.36,1384.18 2071.55,1384.19 2078.75,1384.2 2085.95,1384.2 
  2093.15,1384.21 2100.34,1384.21 2107.54,1384.21 2114.74,1384.22 2121.94,1384.22 2129.14,1384.22 2136.33,1384.23 2143.53,1384.23 2150.73,1384.23 2157.93,1384.23 
  2165.12,1384.23 
  "/>
<polyline clip-path="url(#clip282)" style="stroke:#3da44d; stroke-width:12; stroke-opacity:1; fill:none" points="
  365.682,1383.61 372.88,1383.41 380.077,1383.16 387.275,1382.85 394.473,1382.47 401.671,1382.02 408.869,1381.48 416.066,1380.84 423.264,1380.07 430.462,1379.18 
  437.66,1378.13 444.857,1376.92 452.055,1375.51 459.253,1373.9 466.451,1372.05 473.648,1369.95 480.846,1367.57 488.044,1364.89 495.242,1361.86 502.44,1358.48 
  509.637,1354.71 516.835,1350.52 524.033,1345.89 531.231,1340.77 538.428,1335.14 545.626,1328.98 552.824,1322.25 560.022,1314.92 567.219,1306.96 574.417,1298.35 
  581.615,1289.06 588.813,1279.06 596.011,1268.33 603.208,1256.85 610.406,1244.6 617.604,1231.55 624.802,1217.71 631.999,1203.05 639.197,1187.57 646.395,1171.26 
  653.593,1154.11 660.79,1136.14 667.988,1117.34 675.186,1097.73 682.384,1077.31 689.582,1056.1 696.779,1034.13 703.977,1011.42 711.175,987.991 718.373,963.883 
  725.57,939.132 732.768,913.777 739.966,887.863 747.164,861.437 754.361,834.551 761.559,807.258 768.757,779.616 775.955,751.686 783.153,723.53 790.35,695.213 
  797.548,666.802 804.746,638.365 811.944,609.973 819.141,581.697 826.339,553.609 833.537,525.781 840.735,498.284 847.933,471.192 855.13,444.575 862.328,418.505 
  869.526,393.049 876.724,368.276 883.921,344.25 891.119,321.037 898.317,298.696 905.515,277.286 912.712,256.862 919.91,237.477 927.108,219.177 934.306,202.01 
  941.504,186.015 948.701,171.229 955.899,157.687 963.097,145.417 970.295,134.444 977.492,124.788 984.69,116.465 991.888,109.488 999.086,103.863 1006.28,99.5946 
  1013.48,96.6809 1020.68,95.117 1027.88,94.8938 1035.07,95.9982 1042.27,98.4133 1049.47,102.118 1056.67,107.09 1063.87,113.3 1071.06,120.718 1078.26,129.311 
  1085.46,139.042 1092.66,149.873 1099.85,161.763 1107.05,174.669 1114.25,188.545 1121.45,203.345 1128.65,219.021 1135.84,235.524 1143.04,252.803 1150.24,270.807 
  1157.44,289.485 1164.63,308.784 1171.83,328.653 1179.03,349.04 1186.23,369.892 1193.43,391.159 1200.62,412.789 1207.82,434.733 1215.02,456.941 1222.22,479.365 
  1229.41,501.959 1236.61,524.675 1243.81,547.471 1251.01,570.304 1258.21,593.131 1265.4,615.913 1272.6,638.613 1279.8,661.194 1287,683.622 1294.19,705.864 
  1301.39,727.89 1308.59,749.671 1315.79,771.18 1322.99,792.392 1330.18,813.283 1337.38,833.833 1344.58,854.022 1351.78,873.833 1358.97,893.249 1366.17,912.256 
  1373.37,930.843 1380.57,948.997 1387.77,966.711 1394.96,983.976 1402.16,1000.79 1409.36,1017.14 1416.56,1033.02 1423.75,1048.45 1430.95,1063.4 1438.15,1077.89 
  1445.35,1091.92 1452.55,1105.48 1459.74,1118.59 1466.94,1131.24 1474.14,1143.44 1481.34,1155.19 1488.53,1166.51 1495.73,1177.4 1502.93,1187.86 1510.13,1197.91 
  1517.33,1207.55 1524.52,1216.79 1531.72,1225.65 1538.92,1234.13 1546.12,1242.24 1553.31,1249.99 1560.51,1257.39 1567.71,1264.46 1574.91,1271.19 1582.11,1277.61 
  1589.3,1283.72 1596.5,1289.54 1603.7,1295.07 1610.9,1300.32 1618.09,1305.31 1625.29,1310.05 1632.49,1314.54 1639.69,1318.79 1646.88,1322.82 1654.08,1326.63 
  1661.28,1330.23 1668.48,1333.64 1675.68,1336.86 1682.87,1339.89 1690.07,1342.76 1697.27,1345.45 1704.47,1348 1711.66,1350.39 1718.86,1352.64 1726.06,1354.76 
  1733.26,1356.75 1740.46,1358.62 1747.65,1360.37 1754.85,1362.02 1762.05,1363.56 1769.25,1365 1776.44,1366.36 1783.64,1367.62 1790.84,1368.81 1798.04,1369.91 
  1805.24,1370.95 1812.43,1371.91 1819.63,1372.81 1826.83,1373.65 1834.03,1374.43 1841.22,1375.16 1848.42,1375.84 1855.62,1376.48 1862.82,1377.06 1870.02,1377.61 
  1877.21,1378.12 1884.41,1378.59 1891.61,1379.03 1898.81,1379.43 1906,1379.81 1913.2,1380.16 1920.4,1380.48 1927.6,1380.78 1934.8,1381.06 1941.99,1381.31 
  1949.19,1381.55 1956.39,1381.77 1963.59,1381.97 1970.78,1382.15 1977.98,1382.33 1985.18,1382.48 1992.38,1382.63 1999.58,1382.76 2006.77,1382.89 2013.97,1383 
  2021.17,1383.11 2028.37,1383.2 2035.56,1383.29 2042.76,1383.37 2049.96,1383.45 2057.16,1383.52 2064.36,1383.58 2071.55,1383.64 2078.75,1383.69 2085.95,1383.74 
  2093.15,1383.78 2100.34,1383.82 2107.54,1383.86 2114.74,1383.89 2121.94,1383.92 2129.14,1383.95 2136.33,1383.98 2143.53,1384 2150.73,1384.02 2157.93,1384.04 
  2165.12,1384.06 
  "/>
<path clip-path="url(#clip280)" d="
M1778.41 335.029 L2282.66 335.029 L2282.66 93.1086 L1778.41 93.1086  Z
  " fill="#ffffff" fill-rule="evenodd" fill-opacity="1"/>
<polyline clip-path="url(#clip280)" style="stroke:#000000; stroke-width:4; stroke-opacity:1; fill:none" points="
  1778.41,335.029 2282.66,335.029 2282.66,93.1086 1778.41,93.1086 1778.41,335.029 
  "/>
<path clip-path="url(#clip280)" d="
M1801.77 177.781 L1941.95 177.781 L1941.95 129.397 L1801.77 129.397 L1801.77 177.781  Z
  " fill="#009af9" fill-rule="evenodd" fill-opacity="1"/>
<polyline clip-path="url(#clip280)" style="stroke:#009af9; stroke-width:4; stroke-opacity:1; fill:none" points="
  1801.77,177.781 1941.95,177.781 1941.95,129.397 1801.77,129.397 1801.77,177.781 
  "/>
<path clip-path="url(#clip280)" d="M 0 0 M1979.16 173.276 Q1977.35 177.906 1975.64 179.318 Q1973.93 180.73 1971.05 180.73 L1967.65 180.73 L1967.65 177.165 L1970.15 177.165 Q1971.91 177.165 1972.88 176.332 Q1973.86 175.498 1975.04 172.396 L1975.8 170.452 L1965.31 144.943 L1969.83 144.943 L1977.93 165.221 L1986.03 144.943 L1990.55 144.943 L1979.16 173.276 Z" fill="#000000" fill-rule="evenodd" fill-opacity="1" /><path clip-path="url(#clip280)" d="M 0 0 M1997.84 166.933 L2005.48 166.933 L2005.48 140.568 L1997.17 142.235 L1997.17 137.975 L2005.43 136.309 L2010.11 136.309 L2010.11 166.933 L2017.74 166.933 L2017.74 170.869 L1997.84 170.869 L1997.84 166.933 Z" fill="#000000" fill-rule="evenodd" fill-opacity="1" /><polyline clip-path="url(#clip280)" style="stroke:#e26f46; stroke-width:4; stroke-opacity:1; fill:none" points="
  1801.77,214.069 1941.95,214.069 
  "/>
<path clip-path="url(#clip280)" d="M 0 0 M1984.23 218.085 Q1984.23 213.455 1982.3 210.909 Q1980.41 208.363 1976.96 208.363 Q1973.53 208.363 1971.61 210.909 Q1969.71 213.455 1969.71 218.085 Q1969.71 222.691 1971.61 225.238 Q1973.53 227.784 1976.96 227.784 Q1980.41 227.784 1982.3 225.238 Q1984.23 222.691 1984.23 218.085 M1988.49 228.131 Q1988.49 234.751 1985.55 237.969 Q1982.61 241.21 1976.54 241.21 Q1974.3 241.21 1972.3 240.862 Q1970.31 240.538 1968.44 239.844 L1968.44 235.7 Q1970.31 236.719 1972.14 237.205 Q1973.97 237.691 1975.87 237.691 Q1980.06 237.691 1982.14 235.492 Q1984.23 233.316 1984.23 228.895 L1984.23 226.788 Q1982.91 229.08 1980.85 230.214 Q1978.79 231.349 1975.92 231.349 Q1971.15 231.349 1968.23 227.714 Q1965.31 224.08 1965.31 218.085 Q1965.31 212.066 1968.23 208.432 Q1971.15 204.798 1975.92 204.798 Q1978.79 204.798 1980.85 205.932 Q1982.91 207.066 1984.23 209.358 L1984.23 205.423 L1988.49 205.423 L1988.49 228.131 Z" fill="#000000" fill-rule="evenodd" fill-opacity="1" /><path clip-path="url(#clip280)" d="M 0 0 M2009.04 218.316 Q2003.88 218.316 2001.89 219.497 Q1999.9 220.677 1999.9 223.525 Q1999.9 225.793 2001.38 227.136 Q2002.88 228.455 2005.45 228.455 Q2008.99 228.455 2011.12 225.955 Q2013.28 223.432 2013.28 219.265 L2013.28 218.316 L2009.04 218.316 M2017.54 216.557 L2017.54 231.349 L2013.28 231.349 L2013.28 227.413 Q2011.82 229.775 2009.64 230.909 Q2007.47 232.02 2004.32 232.02 Q2000.34 232.02 1997.98 229.798 Q1995.64 227.552 1995.64 223.802 Q1995.64 219.427 1998.55 217.205 Q2001.49 214.983 2007.3 214.983 L2013.28 214.983 L2013.28 214.566 Q2013.28 211.627 2011.33 210.029 Q2009.41 208.409 2005.92 208.409 Q2003.69 208.409 2001.59 208.941 Q1999.48 209.474 1997.54 210.539 L1997.54 206.603 Q1999.87 205.701 2002.07 205.261 Q2004.27 204.798 2006.36 204.798 Q2011.98 204.798 2014.76 207.714 Q2017.54 210.631 2017.54 216.557 Z" fill="#000000" fill-rule="evenodd" fill-opacity="1" /><path clip-path="url(#clip280)" d="M 0 0 M2025.87 221.117 L2025.87 205.423 L2030.13 205.423 L2030.13 220.955 Q2030.13 224.636 2031.56 226.488 Q2033 228.316 2035.87 228.316 Q2039.32 228.316 2041.31 226.117 Q2043.32 223.918 2043.32 220.122 L2043.32 205.423 L2047.58 205.423 L2047.58 231.349 L2043.32 231.349 L2043.32 227.367 Q2041.77 229.728 2039.71 230.886 Q2037.67 232.02 2034.97 232.02 Q2030.5 232.02 2028.18 229.242 Q2025.87 226.464 2025.87 221.117 M2036.59 204.798 L2036.59 204.798 Z" fill="#000000" fill-rule="evenodd" fill-opacity="1" /><path clip-path="url(#clip280)" d="M 0 0 M2072.88 206.187 L2072.88 210.214 Q2071.08 209.289 2069.13 208.826 Q2067.19 208.363 2065.11 208.363 Q2061.93 208.363 2060.34 209.335 Q2058.76 210.307 2058.76 212.251 Q2058.76 213.733 2059.9 214.589 Q2061.03 215.423 2064.46 216.187 L2065.92 216.511 Q2070.45 217.483 2072.35 219.265 Q2074.27 221.025 2074.27 224.196 Q2074.27 227.807 2071.4 229.913 Q2068.55 232.02 2063.55 232.02 Q2061.47 232.02 2059.2 231.603 Q2056.96 231.21 2054.46 230.4 L2054.46 226.001 Q2056.82 227.228 2059.11 227.853 Q2061.4 228.455 2063.65 228.455 Q2066.66 228.455 2068.28 227.437 Q2069.9 226.395 2069.9 224.52 Q2069.9 222.784 2068.72 221.858 Q2067.56 220.932 2063.6 220.076 L2062.12 219.728 Q2058.16 218.895 2056.4 217.182 Q2054.64 215.446 2054.64 212.437 Q2054.64 208.779 2057.23 206.789 Q2059.83 204.798 2064.6 204.798 Q2066.96 204.798 2069.04 205.145 Q2071.12 205.492 2072.88 206.187 Z" fill="#000000" fill-rule="evenodd" fill-opacity="1" /><path clip-path="url(#clip280)" d="M 0 0 M2097.58 206.187 L2097.58 210.214 Q2095.78 209.289 2093.83 208.826 Q2091.89 208.363 2089.8 208.363 Q2086.63 208.363 2085.04 209.335 Q2083.46 210.307 2083.46 212.251 Q2083.46 213.733 2084.6 214.589 Q2085.73 215.423 2089.16 216.187 L2090.61 216.511 Q2095.15 217.483 2097.05 219.265 Q2098.97 221.025 2098.97 224.196 Q2098.97 227.807 2096.1 229.913 Q2093.25 232.02 2088.25 232.02 Q2086.17 232.02 2083.9 231.603 Q2081.66 231.21 2079.16 230.4 L2079.16 226.001 Q2081.52 227.228 2083.81 227.853 Q2086.1 228.455 2088.35 228.455 Q2091.36 228.455 2092.98 227.437 Q2094.6 226.395 2094.6 224.52 Q2094.6 222.784 2093.42 221.858 Q2092.26 220.932 2088.3 220.076 L2086.82 219.728 Q2082.86 218.895 2081.1 217.182 Q2079.34 215.446 2079.34 212.437 Q2079.34 208.779 2081.93 206.789 Q2084.53 204.798 2089.29 204.798 Q2091.66 204.798 2093.74 205.145 Q2095.82 205.492 2097.58 206.187 Z" fill="#000000" fill-rule="evenodd" fill-opacity="1" /><path clip-path="url(#clip280)" d="M 0 0 M2105.75 205.423 L2110.01 205.423 L2110.01 231.349 L2105.75 231.349 L2105.75 205.423 M2105.75 195.33 L2110.01 195.33 L2110.01 200.724 L2105.75 200.724 L2105.75 195.33 Z" fill="#000000" fill-rule="evenodd" fill-opacity="1" /><path clip-path="url(#clip280)" d="M 0 0 M2130.71 218.316 Q2125.54 218.316 2123.55 219.497 Q2121.56 220.677 2121.56 223.525 Q2121.56 225.793 2123.04 227.136 Q2124.55 228.455 2127.12 228.455 Q2130.66 228.455 2132.79 225.955 Q2134.94 223.432 2134.94 219.265 L2134.94 218.316 L2130.71 218.316 M2139.2 216.557 L2139.2 231.349 L2134.94 231.349 L2134.94 227.413 Q2133.48 229.775 2131.31 230.909 Q2129.13 232.02 2125.98 232.02 Q2122 232.02 2119.64 229.798 Q2117.3 227.552 2117.3 223.802 Q2117.3 219.427 2120.22 217.205 Q2123.16 214.983 2128.97 214.983 L2134.94 214.983 L2134.94 214.566 Q2134.94 211.627 2133 210.029 Q2131.08 208.409 2127.58 208.409 Q2125.36 208.409 2123.25 208.941 Q2121.15 209.474 2119.2 210.539 L2119.2 206.603 Q2121.54 205.701 2123.74 205.261 Q2125.94 204.798 2128.02 204.798 Q2133.65 204.798 2136.42 207.714 Q2139.2 210.631 2139.2 216.557 Z" fill="#000000" fill-rule="evenodd" fill-opacity="1" /><path clip-path="url(#clip280)" d="M 0 0 M2169.53 215.701 L2169.53 231.349 L2165.27 231.349 L2165.27 215.839 Q2165.27 212.159 2163.83 210.33 Q2162.4 208.502 2159.53 208.502 Q2156.08 208.502 2154.09 210.701 Q2152.1 212.9 2152.1 216.696 L2152.1 231.349 L2147.81 231.349 L2147.81 205.423 L2152.1 205.423 L2152.1 209.451 Q2153.62 207.113 2155.68 205.955 Q2157.77 204.798 2160.48 204.798 Q2164.94 204.798 2167.23 207.576 Q2169.53 210.33 2169.53 215.701 Z" fill="#000000" fill-rule="evenodd" fill-opacity="1" /><path clip-path="url(#clip280)" d="M 0 0 M2206.22 195.33 L2206.22 198.872 L2202.14 198.872 Q2199.85 198.872 2198.95 199.798 Q2198.07 200.724 2198.07 203.131 L2198.07 205.423 L2205.08 205.423 L2205.08 208.733 L2198.07 208.733 L2198.07 231.349 L2193.79 231.349 L2193.79 208.733 L2189.71 208.733 L2189.71 205.423 L2193.79 205.423 L2193.79 203.617 Q2193.79 199.289 2195.8 197.321 Q2197.81 195.33 2202.19 195.33 L2206.22 195.33 Z" fill="#000000" fill-rule="evenodd" fill-opacity="1" /><path clip-path="url(#clip280)" d="M 0 0 M2209.78 205.423 L2214.04 205.423 L2214.04 231.349 L2209.78 231.349 L2209.78 205.423 M2209.78 195.33 L2214.04 195.33 L2214.04 200.724 L2209.78 200.724 L2209.78 195.33 Z" fill="#000000" fill-rule="evenodd" fill-opacity="1" /><path clip-path="url(#clip280)" d="M 0 0 M2227.16 198.062 L2227.16 205.423 L2235.94 205.423 L2235.94 208.733 L2227.16 208.733 L2227.16 222.807 Q2227.16 225.978 2228.02 226.881 Q2228.9 227.784 2231.56 227.784 L2235.94 227.784 L2235.94 231.349 L2231.56 231.349 Q2226.63 231.349 2224.76 229.52 Q2222.88 227.668 2222.88 222.807 L2222.88 208.733 L2219.76 208.733 L2219.76 205.423 L2222.88 205.423 L2222.88 198.062 L2227.16 198.062 Z" fill="#000000" fill-rule="evenodd" fill-opacity="1" /><polyline clip-path="url(#clip280)" style="stroke:#3da44d; stroke-width:4; stroke-opacity:1; fill:none" points="
  1801.77,274.549 1941.95,274.549 
  "/>
<path clip-path="url(#clip280)" d="M 0 0 M1969.6 287.94 L1969.6 301.69 L1965.31 301.69 L1965.31 265.903 L1969.6 265.903 L1969.6 269.838 Q1970.94 267.523 1972.98 266.412 Q1975.04 265.278 1977.88 265.278 Q1982.61 265.278 1985.55 269.028 Q1988.51 272.778 1988.51 278.889 Q1988.51 285 1985.55 288.75 Q1982.61 292.5 1977.88 292.5 Q1975.04 292.5 1972.98 291.389 Q1970.94 290.255 1969.6 287.94 M1984.09 278.889 Q1984.09 274.19 1982.14 271.528 Q1980.22 268.843 1976.84 268.843 Q1973.46 268.843 1971.52 271.528 Q1969.6 274.19 1969.6 278.889 Q1969.6 283.588 1971.52 286.273 Q1973.46 288.935 1976.84 288.935 Q1980.22 288.935 1982.14 286.273 Q1984.09 283.588 1984.09 278.889 Z" fill="#000000" fill-rule="evenodd" fill-opacity="1" /><path clip-path="url(#clip280)" d="M 0 0 M2005.61 268.889 Q2002.19 268.889 2000.2 271.574 Q1998.21 274.236 1998.21 278.889 Q1998.21 283.542 2000.18 286.227 Q2002.17 288.889 2005.61 288.889 Q2009.02 288.889 2011.01 286.204 Q2013 283.518 2013 278.889 Q2013 274.282 2011.01 271.597 Q2009.02 268.889 2005.61 268.889 M2005.61 265.278 Q2011.17 265.278 2014.34 268.889 Q2017.51 272.5 2017.51 278.889 Q2017.51 285.255 2014.34 288.889 Q2011.17 292.5 2005.61 292.5 Q2000.04 292.5 1996.86 288.889 Q1993.72 285.255 1993.72 278.889 Q1993.72 272.5 1996.86 268.889 Q2000.04 265.278 2005.61 265.278 Z" fill="#000000" fill-rule="evenodd" fill-opacity="1" /><path clip-path="url(#clip280)" d="M 0 0 M2024.57 265.903 L2028.83 265.903 L2028.83 291.829 L2024.57 291.829 L2024.57 265.903 M2024.57 255.81 L2028.83 255.81 L2028.83 261.204 L2024.57 261.204 L2024.57 255.81 Z" fill="#000000" fill-rule="evenodd" fill-opacity="1" /><path clip-path="url(#clip280)" d="M 0 0 M2054.27 266.667 L2054.27 270.694 Q2052.47 269.769 2050.52 269.306 Q2048.58 268.843 2046.49 268.843 Q2043.32 268.843 2041.73 269.815 Q2040.15 270.787 2040.15 272.731 Q2040.15 274.213 2041.29 275.069 Q2042.42 275.903 2045.85 276.667 L2047.3 276.991 Q2051.84 277.963 2053.74 279.745 Q2055.66 281.505 2055.66 284.676 Q2055.66 288.287 2052.79 290.393 Q2049.94 292.5 2044.94 292.5 Q2042.86 292.5 2040.59 292.083 Q2038.35 291.69 2035.85 290.88 L2035.85 286.481 Q2038.21 287.708 2040.5 288.333 Q2042.79 288.935 2045.04 288.935 Q2048.05 288.935 2049.67 287.917 Q2051.29 286.875 2051.29 285 Q2051.29 283.264 2050.11 282.338 Q2048.95 281.412 2044.99 280.556 L2043.51 280.208 Q2039.55 279.375 2037.79 277.662 Q2036.03 275.926 2036.03 272.917 Q2036.03 269.259 2038.62 267.269 Q2041.22 265.278 2045.99 265.278 Q2048.35 265.278 2050.43 265.625 Q2052.51 265.972 2054.27 266.667 Z" fill="#000000" fill-rule="evenodd" fill-opacity="1" /><path clip-path="url(#clip280)" d="M 0 0 M2078.97 266.667 L2078.97 270.694 Q2077.17 269.769 2075.22 269.306 Q2073.28 268.843 2071.19 268.843 Q2068.02 268.843 2066.42 269.815 Q2064.85 270.787 2064.85 272.731 Q2064.85 274.213 2065.98 275.069 Q2067.12 275.903 2070.55 276.667 L2072 276.991 Q2076.54 277.963 2078.44 279.745 Q2080.36 281.505 2080.36 284.676 Q2080.36 288.287 2077.49 290.393 Q2074.64 292.5 2069.64 292.5 Q2067.56 292.5 2065.29 292.083 Q2063.05 291.69 2060.55 290.88 L2060.55 286.481 Q2062.91 287.708 2065.2 288.333 Q2067.49 288.935 2069.73 288.935 Q2072.74 288.935 2074.36 287.917 Q2075.98 286.875 2075.98 285 Q2075.98 283.264 2074.8 282.338 Q2073.65 281.412 2069.69 280.556 L2068.21 280.208 Q2064.25 279.375 2062.49 277.662 Q2060.73 275.926 2060.73 272.917 Q2060.73 269.259 2063.32 267.269 Q2065.92 265.278 2070.68 265.278 Q2073.05 265.278 2075.13 265.625 Q2077.21 265.972 2078.97 266.667 Z" fill="#000000" fill-rule="evenodd" fill-opacity="1" /><path clip-path="url(#clip280)" d="M 0 0 M2097.19 268.889 Q2093.76 268.889 2091.77 271.574 Q2089.78 274.236 2089.78 278.889 Q2089.78 283.542 2091.75 286.227 Q2093.74 288.889 2097.19 288.889 Q2100.59 288.889 2102.58 286.204 Q2104.57 283.518 2104.57 278.889 Q2104.57 274.282 2102.58 271.597 Q2100.59 268.889 2097.19 268.889 M2097.19 265.278 Q2102.74 265.278 2105.92 268.889 Q2109.09 272.5 2109.09 278.889 Q2109.09 285.255 2105.92 288.889 Q2102.74 292.5 2097.19 292.5 Q2091.61 292.5 2088.44 288.889 Q2085.29 285.255 2085.29 278.889 Q2085.29 272.5 2088.44 268.889 Q2091.61 265.278 2097.19 265.278 Z" fill="#000000" fill-rule="evenodd" fill-opacity="1" /><path clip-path="url(#clip280)" d="M 0 0 M2137.7 276.181 L2137.7 291.829 L2133.44 291.829 L2133.44 276.319 Q2133.44 272.639 2132 270.81 Q2130.57 268.982 2127.7 268.982 Q2124.25 268.982 2122.26 271.181 Q2120.27 273.38 2120.27 277.176 L2120.27 291.829 L2115.98 291.829 L2115.98 265.903 L2120.27 265.903 L2120.27 269.931 Q2121.79 267.593 2123.85 266.435 Q2125.94 265.278 2128.65 265.278 Q2133.11 265.278 2135.41 268.056 Q2137.7 270.81 2137.7 276.181 Z" fill="#000000" fill-rule="evenodd" fill-opacity="1" /><path clip-path="url(#clip280)" d="M 0 0 M2174.39 255.81 L2174.39 259.352 L2170.31 259.352 Q2168.02 259.352 2167.12 260.278 Q2166.24 261.204 2166.24 263.611 L2166.24 265.903 L2173.25 265.903 L2173.25 269.213 L2166.24 269.213 L2166.24 291.829 L2161.96 291.829 L2161.96 269.213 L2157.88 269.213 L2157.88 265.903 L2161.96 265.903 L2161.96 264.097 Q2161.96 259.769 2163.97 257.801 Q2165.98 255.81 2170.36 255.81 L2174.39 255.81 Z" fill="#000000" fill-rule="evenodd" fill-opacity="1" /><path clip-path="url(#clip280)" d="M 0 0 M2177.95 265.903 L2182.21 265.903 L2182.21 291.829 L2177.95 291.829 L2177.95 265.903 M2177.95 255.81 L2182.21 255.81 L2182.21 261.204 L2177.95 261.204 L2177.95 255.81 Z" fill="#000000" fill-rule="evenodd" fill-opacity="1" /><path clip-path="url(#clip280)" d="M 0 0 M2195.34 258.542 L2195.34 265.903 L2204.11 265.903 L2204.11 269.213 L2195.34 269.213 L2195.34 283.287 Q2195.34 286.458 2196.19 287.361 Q2197.07 288.264 2199.73 288.264 L2204.11 288.264 L2204.11 291.829 L2199.73 291.829 Q2194.8 291.829 2192.93 290 Q2191.05 288.148 2191.05 283.287 L2191.05 269.213 L2187.93 269.213 L2187.93 265.903 L2191.05 265.903 L2191.05 258.542 L2195.34 258.542 Z" fill="#000000" fill-rule="evenodd" fill-opacity="1" /></svg>
