<?xml version="1.0" encoding="utf-8"?>
<svg xmlns="http://www.w3.org/2000/svg" xmlns:xlink="http://www.w3.org/1999/xlink" width="600" height="400" viewBox="0 0 2400 1600">
<defs>
  <clipPath id="clip310">
    <rect x="0" y="0" width="2400" height="1600"/>
  </clipPath>
</defs>
<path clip-path="url(#clip310)" d="
M0 1600 L2400 1600 L2400 0 L0 0  Z
  " fill="#ffffff" fill-rule="evenodd" fill-opacity="1"/>
<defs>
  <clipPath id="clip311">
    <rect x="480" y="0" width="1681" height="1600"/>
  </clipPath>
</defs>
<path clip-path="url(#clip310)" d="
M249.542 1423.18 L2352.76 1423.18 L2352.76 47.2441 L249.542 47.2441  Z
  " fill="#ffffff" fill-rule="evenodd" fill-opacity="1"/>
<defs>
  <clipPath id="clip312">
    <rect x="249" y="47" width="2104" height="1377"/>
  </clipPath>
</defs>
<polyline clip-path="url(#clip312)" style="stroke:#000000; stroke-width:2; stroke-opacity:0.1; fill:none" points="
  365.223,1423.18 365.223,47.2441 
  "/>
<polyline clip-path="url(#clip312)" style="stroke:#000000; stroke-width:2; stroke-opacity:0.1; fill:none" points="
  885.182,1423.18 885.182,47.2441 
  "/>
<polyline clip-path="url(#clip312)" style="stroke:#000000; stroke-width:2; stroke-opacity:0.1; fill:none" points="
  1405.14,1423.18 1405.14,47.2441 
  "/>
<polyline clip-path="url(#clip312)" style="stroke:#000000; stroke-width:2; stroke-opacity:0.1; fill:none" points="
  1925.1,1423.18 1925.1,47.2441 
  "/>
<polyline clip-path="url(#clip310)" style="stroke:#000000; stroke-width:4; stroke-opacity:1; fill:none" points="
  249.542,1423.18 2352.76,1423.18 
  "/>
<polyline clip-path="url(#clip310)" style="stroke:#000000; stroke-width:4; stroke-opacity:1; fill:none" points="
  365.223,1423.18 365.223,1406.67 
  "/>
<polyline clip-path="url(#clip310)" style="stroke:#000000; stroke-width:4; stroke-opacity:1; fill:none" points="
  885.182,1423.18 885.182,1406.67 
  "/>
<polyline clip-path="url(#clip310)" style="stroke:#000000; stroke-width:4; stroke-opacity:1; fill:none" points="
  1405.14,1423.18 1405.14,1406.67 
  "/>
<polyline clip-path="url(#clip310)" style="stroke:#000000; stroke-width:4; stroke-opacity:1; fill:none" points="
  1925.1,1423.18 1925.1,1406.67 
  "/>
<path clip-path="url(#clip310)" d="M 0 0 M365.223 1452.37 Q361.611 1452.37 359.783 1455.94 Q357.977 1459.48 357.977 1466.61 Q357.977 1473.71 359.783 1477.28 Q361.611 1480.82 365.223 1480.82 Q368.857 1480.82 370.662 1477.28 Q372.491 1473.71 372.491 1466.61 Q372.491 1459.48 370.662 1455.94 Q368.857 1452.37 365.223 1452.37 M365.223 1448.67 Q371.033 1448.67 374.088 1453.27 Q377.167 1457.86 377.167 1466.61 Q377.167 1475.33 374.088 1479.94 Q371.033 1484.52 365.223 1484.52 Q359.412 1484.52 356.334 1479.94 Q353.278 1475.33 353.278 1466.61 Q353.278 1457.86 356.334 1453.27 Q359.412 1448.67 365.223 1448.67 Z" fill="#000000" fill-rule="evenodd" fill-opacity="1" /><path clip-path="url(#clip310)" d="M 0 0 M875.459 1449.29 L893.816 1449.29 L893.816 1453.23 L879.742 1453.23 L879.742 1461.7 Q880.76 1461.35 881.779 1461.19 Q882.797 1461 883.816 1461 Q889.603 1461 892.983 1464.18 Q896.362 1467.35 896.362 1472.76 Q896.362 1478.34 892.89 1481.44 Q889.418 1484.52 883.098 1484.52 Q880.922 1484.52 878.654 1484.15 Q876.409 1483.78 874.001 1483.04 L874.001 1478.34 Q876.084 1479.48 878.307 1480.03 Q880.529 1480.59 883.006 1480.59 Q887.01 1480.59 889.348 1478.48 Q891.686 1476.38 891.686 1472.76 Q891.686 1469.15 889.348 1467.05 Q887.01 1464.94 883.006 1464.94 Q881.131 1464.94 879.256 1465.36 Q877.404 1465.77 875.459 1466.65 L875.459 1449.29 Z" fill="#000000" fill-rule="evenodd" fill-opacity="1" /><path clip-path="url(#clip310)" d="M 0 0 M1379.83 1479.92 L1387.47 1479.92 L1387.47 1453.55 L1379.16 1455.22 L1379.16 1450.96 L1387.42 1449.29 L1392.1 1449.29 L1392.1 1479.92 L1399.74 1479.92 L1399.74 1483.85 L1379.83 1483.85 L1379.83 1479.92 Z" fill="#000000" fill-rule="evenodd" fill-opacity="1" /><path clip-path="url(#clip310)" d="M 0 0 M1419.18 1452.37 Q1415.57 1452.37 1413.74 1455.94 Q1411.93 1459.48 1411.93 1466.61 Q1411.93 1473.71 1413.74 1477.28 Q1415.57 1480.82 1419.18 1480.82 Q1422.81 1480.82 1424.62 1477.28 Q1426.45 1473.71 1426.45 1466.61 Q1426.45 1459.48 1424.62 1455.94 Q1422.81 1452.37 1419.18 1452.37 M1419.18 1448.67 Q1424.99 1448.67 1428.05 1453.27 Q1431.12 1457.86 1431.12 1466.61 Q1431.12 1475.33 1428.05 1479.94 Q1424.99 1484.52 1419.18 1484.52 Q1413.37 1484.52 1410.29 1479.94 Q1407.24 1475.33 1407.24 1466.61 Q1407.24 1457.86 1410.29 1453.27 Q1413.37 1448.67 1419.18 1448.67 Z" fill="#000000" fill-rule="evenodd" fill-opacity="1" /><path clip-path="url(#clip310)" d="M 0 0 M1900.29 1479.92 L1907.92 1479.92 L1907.92 1453.55 L1899.61 1455.22 L1899.61 1450.96 L1907.88 1449.29 L1912.55 1449.29 L1912.55 1479.92 L1920.19 1479.92 L1920.19 1483.85 L1900.29 1483.85 L1900.29 1479.92 Z" fill="#000000" fill-rule="evenodd" fill-opacity="1" /><path clip-path="url(#clip310)" d="M 0 0 M1929.68 1449.29 L1948.04 1449.29 L1948.04 1453.23 L1933.97 1453.23 L1933.97 1461.7 Q1934.98 1461.35 1936 1461.19 Q1937.02 1461 1938.04 1461 Q1943.83 1461 1947.21 1464.18 Q1950.59 1467.35 1950.59 1472.76 Q1950.59 1478.34 1947.11 1481.44 Q1943.64 1484.52 1937.32 1484.52 Q1935.15 1484.52 1932.88 1484.15 Q1930.63 1483.78 1928.22 1483.04 L1928.22 1478.34 Q1930.31 1479.48 1932.53 1480.03 Q1934.75 1480.59 1937.23 1480.59 Q1941.23 1480.59 1943.57 1478.48 Q1945.91 1476.38 1945.91 1472.76 Q1945.91 1469.15 1943.57 1467.05 Q1941.23 1464.94 1937.23 1464.94 Q1935.35 1464.94 1933.48 1465.36 Q1931.63 1465.77 1929.68 1466.65 L1929.68 1449.29 Z" fill="#000000" fill-rule="evenodd" fill-opacity="1" /><path clip-path="url(#clip310)" d="M 0 0 M1303.11 1539.24 Q1305.3 1535.29 1308.36 1533.41 Q1311.41 1531.54 1315.55 1531.54 Q1321.12 1531.54 1324.15 1535.45 Q1327.17 1539.33 1327.17 1546.53 L1327.17 1568.04 L1321.28 1568.04 L1321.28 1546.72 Q1321.28 1541.59 1319.47 1539.11 Q1317.65 1536.63 1313.93 1536.63 Q1309.38 1536.63 1306.73 1539.65 Q1304.09 1542.68 1304.09 1547.9 L1304.09 1568.04 L1298.2 1568.04 L1298.2 1546.72 Q1298.2 1541.56 1296.39 1539.11 Q1294.58 1536.63 1290.79 1536.63 Q1286.3 1536.63 1283.66 1539.68 Q1281.02 1542.71 1281.02 1547.9 L1281.02 1568.04 L1275.13 1568.04 L1275.13 1532.4 L1281.02 1532.4 L1281.02 1537.93 Q1283.02 1534.66 1285.82 1533.1 Q1288.62 1531.54 1292.48 1531.54 Q1296.36 1531.54 1299.06 1533.51 Q1301.8 1535.48 1303.11 1539.24 Z" fill="#000000" fill-rule="evenodd" fill-opacity="1" /><polyline clip-path="url(#clip312)" style="stroke:#000000; stroke-width:2; stroke-opacity:0.1; fill:none" points="
  249.542,1384.24 2352.76,1384.24 
  "/>
<polyline clip-path="url(#clip312)" style="stroke:#000000; stroke-width:2; stroke-opacity:0.1; fill:none" points="
  249.542,1029.53 2352.76,1029.53 
  "/>
<polyline clip-path="url(#clip312)" style="stroke:#000000; stroke-width:2; stroke-opacity:0.1; fill:none" points="
  249.542,674.825 2352.76,674.825 
  "/>
<polyline clip-path="url(#clip312)" style="stroke:#000000; stroke-width:2; stroke-opacity:0.1; fill:none" points="
  249.542,320.119 2352.76,320.119 
  "/>
<polyline clip-path="url(#clip310)" style="stroke:#000000; stroke-width:4; stroke-opacity:1; fill:none" points="
  249.542,1423.18 249.542,47.2441 
  "/>
<polyline clip-path="url(#clip310)" style="stroke:#000000; stroke-width:4; stroke-opacity:1; fill:none" points="
  249.542,1384.24 274.781,1384.24 
  "/>
<polyline clip-path="url(#clip310)" style="stroke:#000000; stroke-width:4; stroke-opacity:1; fill:none" points="
  249.542,1029.53 274.781,1029.53 
  "/>
<polyline clip-path="url(#clip310)" style="stroke:#000000; stroke-width:4; stroke-opacity:1; fill:none" points="
  249.542,674.825 274.781,674.825 
  "/>
<polyline clip-path="url(#clip310)" style="stroke:#000000; stroke-width:4; stroke-opacity:1; fill:none" points="
  249.542,320.119 274.781,320.119 
  "/>
<path clip-path="url(#clip310)" d="M 0 0 M126.205 1370.04 Q122.593 1370.04 120.765 1373.6 Q118.959 1377.14 118.959 1384.27 Q118.959 1391.38 120.765 1394.94 Q122.593 1398.49 126.205 1398.49 Q129.839 1398.49 131.644 1394.94 Q133.473 1391.38 133.473 1384.27 Q133.473 1377.14 131.644 1373.6 Q129.839 1370.04 126.205 1370.04 M126.205 1366.33 Q132.015 1366.33 135.07 1370.94 Q138.149 1375.52 138.149 1384.27 Q138.149 1393 135.07 1397.61 Q132.015 1402.19 126.205 1402.19 Q120.394 1402.19 117.316 1397.61 Q114.26 1393 114.26 1384.27 Q114.26 1375.52 117.316 1370.94 Q120.394 1366.33 126.205 1366.33 Z" fill="#000000" fill-rule="evenodd" fill-opacity="1" /><path clip-path="url(#clip310)" d="M 0 0 M146.366 1395.64 L151.251 1395.64 L151.251 1401.52 L146.366 1401.52 L146.366 1395.64 Z" fill="#000000" fill-rule="evenodd" fill-opacity="1" /><path clip-path="url(#clip310)" d="M 0 0 M171.436 1370.04 Q167.825 1370.04 165.996 1373.6 Q164.19 1377.14 164.19 1384.27 Q164.19 1391.38 165.996 1394.94 Q167.825 1398.49 171.436 1398.49 Q175.07 1398.49 176.876 1394.94 Q178.704 1391.38 178.704 1384.27 Q178.704 1377.14 176.876 1373.6 Q175.07 1370.04 171.436 1370.04 M171.436 1366.33 Q177.246 1366.33 180.301 1370.94 Q183.38 1375.52 183.38 1384.27 Q183.38 1393 180.301 1397.61 Q177.246 1402.19 171.436 1402.19 Q165.626 1402.19 162.547 1397.61 Q159.491 1393 159.491 1384.27 Q159.491 1375.52 162.547 1370.94 Q165.626 1366.33 171.436 1366.33 Z" fill="#000000" fill-rule="evenodd" fill-opacity="1" /><path clip-path="url(#clip310)" d="M 0 0 M201.598 1370.04 Q197.987 1370.04 196.158 1373.6 Q194.352 1377.14 194.352 1384.27 Q194.352 1391.38 196.158 1394.94 Q197.987 1398.49 201.598 1398.49 Q205.232 1398.49 207.037 1394.94 Q208.866 1391.38 208.866 1384.27 Q208.866 1377.14 207.037 1373.6 Q205.232 1370.04 201.598 1370.04 M201.598 1366.33 Q207.408 1366.33 210.463 1370.94 Q213.542 1375.52 213.542 1384.27 Q213.542 1393 210.463 1397.61 Q207.408 1402.19 201.598 1402.19 Q195.787 1402.19 192.709 1397.61 Q189.653 1393 189.653 1384.27 Q189.653 1375.52 192.709 1370.94 Q195.787 1366.33 201.598 1366.33 Z" fill="#000000" fill-rule="evenodd" fill-opacity="1" /><path clip-path="url(#clip310)" d="M 0 0 M127.2 1015.33 Q123.589 1015.33 121.76 1018.9 Q119.955 1022.44 119.955 1029.57 Q119.955 1036.67 121.76 1040.24 Q123.589 1043.78 127.2 1043.78 Q130.834 1043.78 132.64 1040.24 Q134.468 1036.67 134.468 1029.57 Q134.468 1022.44 132.64 1018.9 Q130.834 1015.33 127.2 1015.33 M127.2 1011.63 Q133.01 1011.63 136.066 1016.23 Q139.144 1020.82 139.144 1029.57 Q139.144 1038.29 136.066 1042.9 Q133.01 1047.48 127.2 1047.48 Q121.39 1047.48 118.311 1042.9 Q115.256 1038.29 115.256 1029.57 Q115.256 1020.82 118.311 1016.23 Q121.39 1011.63 127.2 1011.63 Z" fill="#000000" fill-rule="evenodd" fill-opacity="1" /><path clip-path="url(#clip310)" d="M 0 0 M147.362 1040.93 L152.246 1040.93 L152.246 1046.81 L147.362 1046.81 L147.362 1040.93 Z" fill="#000000" fill-rule="evenodd" fill-opacity="1" /><path clip-path="url(#clip310)" d="M 0 0 M172.431 1015.33 Q168.82 1015.33 166.991 1018.9 Q165.186 1022.44 165.186 1029.57 Q165.186 1036.67 166.991 1040.24 Q168.82 1043.78 172.431 1043.78 Q176.065 1043.78 177.871 1040.24 Q179.7 1036.67 179.7 1029.57 Q179.7 1022.44 177.871 1018.9 Q176.065 1015.33 172.431 1015.33 M172.431 1011.63 Q178.241 1011.63 181.297 1016.23 Q184.376 1020.82 184.376 1029.57 Q184.376 1038.29 181.297 1042.9 Q178.241 1047.48 172.431 1047.48 Q166.621 1047.48 163.542 1042.9 Q160.487 1038.29 160.487 1029.57 Q160.487 1020.82 163.542 1016.23 Q166.621 1011.63 172.431 1011.63 Z" fill="#000000" fill-rule="evenodd" fill-opacity="1" /><path clip-path="url(#clip310)" d="M 0 0 M192.639 1012.25 L210.996 1012.25 L210.996 1016.19 L196.922 1016.19 L196.922 1024.66 Q197.94 1024.31 198.959 1024.15 Q199.977 1023.96 200.996 1023.96 Q206.783 1023.96 210.162 1027.14 Q213.542 1030.31 213.542 1035.72 Q213.542 1041.3 210.07 1044.4 Q206.598 1047.48 200.278 1047.48 Q198.102 1047.48 195.834 1047.11 Q193.588 1046.74 191.181 1046 L191.181 1041.3 Q193.264 1042.44 195.487 1042.99 Q197.709 1043.55 200.186 1043.55 Q204.19 1043.55 206.528 1041.44 Q208.866 1039.34 208.866 1035.72 Q208.866 1032.11 206.528 1030.01 Q204.19 1027.9 200.186 1027.9 Q198.311 1027.9 196.436 1028.32 Q194.584 1028.73 192.639 1029.61 L192.639 1012.25 Z" fill="#000000" fill-rule="evenodd" fill-opacity="1" /><path clip-path="url(#clip310)" d="M 0 0 M126.205 660.624 Q122.593 660.624 120.765 664.189 Q118.959 667.731 118.959 674.86 Q118.959 681.967 120.765 685.531 Q122.593 689.073 126.205 689.073 Q129.839 689.073 131.644 685.531 Q133.473 681.967 133.473 674.86 Q133.473 667.731 131.644 664.189 Q129.839 660.624 126.205 660.624 M126.205 656.92 Q132.015 656.92 135.07 661.527 Q138.149 666.11 138.149 674.86 Q138.149 683.587 135.07 688.193 Q132.015 692.777 126.205 692.777 Q120.394 692.777 117.316 688.193 Q114.26 683.587 114.26 674.86 Q114.26 666.11 117.316 661.527 Q120.394 656.92 126.205 656.92 Z" fill="#000000" fill-rule="evenodd" fill-opacity="1" /><path clip-path="url(#clip310)" d="M 0 0 M146.366 686.226 L151.251 686.226 L151.251 692.105 L146.366 692.105 L146.366 686.226 Z" fill="#000000" fill-rule="evenodd" fill-opacity="1" /><path clip-path="url(#clip310)" d="M 0 0 M162.246 688.17 L169.885 688.17 L169.885 661.805 L161.575 663.471 L161.575 659.212 L169.839 657.545 L174.514 657.545 L174.514 688.17 L182.153 688.17 L182.153 692.105 L162.246 692.105 L162.246 688.17 Z" fill="#000000" fill-rule="evenodd" fill-opacity="1" /><path clip-path="url(#clip310)" d="M 0 0 M201.598 660.624 Q197.987 660.624 196.158 664.189 Q194.352 667.731 194.352 674.86 Q194.352 681.967 196.158 685.531 Q197.987 689.073 201.598 689.073 Q205.232 689.073 207.037 685.531 Q208.866 681.967 208.866 674.86 Q208.866 667.731 207.037 664.189 Q205.232 660.624 201.598 660.624 M201.598 656.92 Q207.408 656.92 210.463 661.527 Q213.542 666.11 213.542 674.86 Q213.542 683.587 210.463 688.193 Q207.408 692.777 201.598 692.777 Q195.787 692.777 192.709 688.193 Q189.653 683.587 189.653 674.86 Q189.653 666.11 192.709 661.527 Q195.787 656.92 201.598 656.92 Z" fill="#000000" fill-rule="evenodd" fill-opacity="1" /><path clip-path="url(#clip310)" d="M 0 0 M127.2 305.918 Q123.589 305.918 121.76 309.482 Q119.955 313.024 119.955 320.154 Q119.955 327.26 121.76 330.825 Q123.589 334.367 127.2 334.367 Q130.834 334.367 132.64 330.825 Q134.468 327.26 134.468 320.154 Q134.468 313.024 132.64 309.482 Q130.834 305.918 127.2 305.918 M127.2 302.214 Q133.01 302.214 136.066 306.82 Q139.144 311.404 139.144 320.154 Q139.144 328.881 136.066 333.487 Q133.01 338.07 127.2 338.07 Q121.39 338.07 118.311 333.487 Q115.256 328.881 115.256 320.154 Q115.256 311.404 118.311 306.82 Q121.39 302.214 127.2 302.214 Z" fill="#000000" fill-rule="evenodd" fill-opacity="1" /><path clip-path="url(#clip310)" d="M 0 0 M147.362 331.519 L152.246 331.519 L152.246 337.399 L147.362 337.399 L147.362 331.519 Z" fill="#000000" fill-rule="evenodd" fill-opacity="1" /><path clip-path="url(#clip310)" d="M 0 0 M163.241 333.464 L170.88 333.464 L170.88 307.098 L162.57 308.765 L162.57 304.506 L170.834 302.839 L175.51 302.839 L175.51 333.464 L183.149 333.464 L183.149 337.399 L163.241 337.399 L163.241 333.464 Z" fill="#000000" fill-rule="evenodd" fill-opacity="1" /><path clip-path="url(#clip310)" d="M 0 0 M192.639 302.839 L210.996 302.839 L210.996 306.774 L196.922 306.774 L196.922 315.246 Q197.94 314.899 198.959 314.737 Q199.977 314.552 200.996 314.552 Q206.783 314.552 210.162 317.723 Q213.542 320.894 213.542 326.311 Q213.542 331.89 210.07 334.992 Q206.598 338.07 200.278 338.07 Q198.102 338.07 195.834 337.7 Q193.588 337.33 191.181 336.589 L191.181 331.89 Q193.264 333.024 195.487 333.58 Q197.709 334.135 200.186 334.135 Q204.19 334.135 206.528 332.029 Q208.866 329.922 208.866 326.311 Q208.866 322.7 206.528 320.594 Q204.19 318.487 200.186 318.487 Q198.311 318.487 196.436 318.904 Q194.584 319.32 192.639 320.2 L192.639 302.839 Z" fill="#000000" fill-rule="evenodd" fill-opacity="1" /><path clip-path="url(#clip310)" d="M 0 0 M21.7677 799.617 L39.6235 799.617 L39.6235 791.533 Q39.6235 787.045 37.3 784.594 Q34.9765 782.143 30.6797 782.143 Q26.4147 782.143 24.0912 784.594 Q21.7677 787.045 21.7677 791.533 L21.7677 799.617 M16.4842 806.046 L16.4842 791.533 Q16.4842 783.544 20.1126 779.47 Q23.7092 775.364 30.6797 775.364 Q37.7138 775.364 41.3104 779.47 Q44.907 783.544 44.907 791.533 L44.907 799.617 L64.0042 799.617 L64.0042 806.046 L16.4842 806.046 Z" fill="#000000" fill-rule="evenodd" fill-opacity="1" /><path clip-path="url(#clip310)" d="M 0 0 M14.5426 752.925 Q21.8632 757.19 29.0246 759.258 Q36.186 761.327 43.5384 761.327 Q50.8908 761.327 58.1159 759.258 Q65.3091 757.158 72.5979 752.925 L72.5979 758.017 Q65.1182 762.791 57.8931 765.179 Q50.668 767.534 43.5384 767.534 Q36.4406 767.534 29.2474 765.179 Q22.0542 762.823 14.5426 758.017 L14.5426 752.925 Z" fill="#000000" fill-rule="evenodd" fill-opacity="1" /><path clip-path="url(#clip310)" d="M 0 0 M35.1993 713.807 Q31.2526 711.611 29.3747 708.556 Q27.4968 705.5 27.4968 701.362 Q27.4968 695.792 31.4117 692.769 Q35.2948 689.745 42.4881 689.745 L64.0042 689.745 L64.0042 695.633 L42.679 695.633 Q37.5546 695.633 35.072 697.447 Q32.5894 699.262 32.5894 702.986 Q32.5894 707.537 35.6131 710.179 Q38.6368 712.821 43.8567 712.821 L64.0042 712.821 L64.0042 718.709 L42.679 718.709 Q37.5228 718.709 35.072 720.523 Q32.5894 722.337 32.5894 726.125 Q32.5894 730.613 35.6449 733.255 Q38.6686 735.896 43.8567 735.896 L64.0042 735.896 L64.0042 741.785 L28.3562 741.785 L28.3562 735.896 L33.8944 735.896 Q30.616 733.891 29.0564 731.09 Q27.4968 728.289 27.4968 724.438 Q27.4968 720.555 29.4702 717.85 Q31.4436 715.112 35.1993 713.807 Z" fill="#000000" fill-rule="evenodd" fill-opacity="1" /><path clip-path="url(#clip310)" d="M 0 0 M14.5426 678.987 L14.5426 673.894 Q22.0542 669.12 29.2474 666.765 Q36.4406 664.378 43.5384 664.378 Q50.668 664.378 57.8931 666.765 Q65.1182 669.12 72.5979 673.894 L72.5979 678.987 Q65.3091 674.754 58.1159 672.685 Q50.8908 670.584 43.5384 670.584 Q36.186 670.584 29.0246 672.685 Q21.8632 674.754 14.5426 678.987 Z" fill="#000000" fill-rule="evenodd" fill-opacity="1" /><path clip-path="url(#clip312)" d="
M365.223 1328.14 L365.223 1384.24 L469.214 1384.24 L469.214 1328.14 L365.223 1328.14 L365.223 1328.14  Z
  " fill="#009af9" fill-rule="evenodd" fill-opacity="1"/>
<polyline clip-path="url(#clip312)" style="stroke:#009af9; stroke-width:4; stroke-opacity:1; fill:none" points="
  365.223,1328.14 365.223,1384.24 469.214,1384.24 469.214,1328.14 365.223,1328.14 
  "/>
<path clip-path="url(#clip312)" d="
M469.214 1110.55 L469.214 1384.24 L573.206 1384.24 L573.206 1110.55 L469.214 1110.55 L469.214 1110.55  Z
  " fill="#009af9" fill-rule="evenodd" fill-opacity="1"/>
<polyline clip-path="url(#clip312)" style="stroke:#009af9; stroke-width:4; stroke-opacity:1; fill:none" points="
  469.214,1110.55 469.214,1384.24 573.206,1384.24 573.206,1110.55 469.214,1110.55 
  "/>
<path clip-path="url(#clip312)" d="
M573.206 732.481 L573.206 1384.24 L677.198 1384.24 L677.198 732.481 L573.206 732.481 L573.206 732.481  Z
  " fill="#009af9" fill-rule="evenodd" fill-opacity="1"/>
<polyline clip-path="url(#clip312)" style="stroke:#009af9; stroke-width:4; stroke-opacity:1; fill:none" points="
  573.206,732.481 573.206,1384.24 677.198,1384.24 677.198,732.481 573.206,732.481 
  "/>
<path clip-path="url(#clip312)" d="
M677.198 332.394 L677.198 1384.24 L781.19 1384.24 L781.19 332.394 L677.198 332.394 L677.198 332.394  Z
  " fill="#009af9" fill-rule="evenodd" fill-opacity="1"/>
<polyline clip-path="url(#clip312)" style="stroke:#009af9; stroke-width:4; stroke-opacity:1; fill:none" points="
  677.198,332.394 677.198,1384.24 781.19,1384.24 781.19,332.394 677.198,332.394 
  "/>
<path clip-path="url(#clip312)" d="
M781.19 104.939 L781.19 1384.24 L885.182 1384.24 L885.182 104.939 L781.19 104.939 L781.19 104.939  Z
  " fill="#009af9" fill-rule="evenodd" fill-opacity="1"/>
<polyline clip-path="url(#clip312)" style="stroke:#009af9; stroke-width:4; stroke-opacity:1; fill:none" points="
  781.19,104.939 781.19,1384.24 885.182,1384.24 885.182,104.939 781.19,104.939 
  "/>
<path clip-path="url(#clip312)" d="
M885.182 132.279 L885.182 1384.24 L989.173 1384.24 L989.173 132.279 L885.182 132.279 L885.182 132.279  Z
  " fill="#009af9" fill-rule="evenodd" fill-opacity="1"/>
<polyline clip-path="url(#clip312)" style="stroke:#009af9; stroke-width:4; stroke-opacity:1; fill:none" points="
  885.182,132.279 885.182,1384.24 989.173,1384.24 989.173,132.279 885.182,132.279 
  "/>
<path clip-path="url(#clip312)" d="
M989.173 367.261 L989.173 1384.24 L1093.17 1384.24 L1093.17 367.261 L989.173 367.261 L989.173 367.261  Z
  " fill="#009af9" fill-rule="evenodd" fill-opacity="1"/>
<polyline clip-path="url(#clip312)" style="stroke:#009af9; stroke-width:4; stroke-opacity:1; fill:none" points="
  989.173,367.261 989.173,1384.24 1093.17,1384.24 1093.17,367.261 989.173,367.261 
  "/>
<path clip-path="url(#clip312)" d="
M1093.17 687.175 L1093.17 1384.24 L1197.16 1384.24 L1197.16 687.175 L1093.17 687.175 L1093.17 687.175  Z
  " fill="#009af9" fill-rule="evenodd" fill-opacity="1"/>
<polyline clip-path="url(#clip312)" style="stroke:#009af9; stroke-width:4; stroke-opacity:1; fill:none" points="
  1093.17,687.175 1093.17,1384.24 1197.16,1384.24 1197.16,687.175 1093.17,687.175 
  "/>
<path clip-path="url(#clip312)" d="
M1197.16 974.209 L1197.16 1384.24 L1301.15 1384.24 L1301.15 974.209 L1197.16 974.209 L1197.16 974.209  Z
  " fill="#009af9" fill-rule="evenodd" fill-opacity="1"/>
<polyline clip-path="url(#clip312)" style="stroke:#009af9; stroke-width:4; stroke-opacity:1; fill:none" points="
  1197.16,974.209 1197.16,1384.24 1301.15,1384.24 1301.15,974.209 1197.16,974.209 
  "/>
<path clip-path="url(#clip312)" d="
M1301.15 1162.96 L1301.15 1384.24 L1405.14 1384.24 L1405.14 1162.96 L1301.15 1162.96 L1301.15 1162.96  Z
  " fill="#009af9" fill-rule="evenodd" fill-opacity="1"/>
<polyline clip-path="url(#clip312)" style="stroke:#009af9; stroke-width:4; stroke-opacity:1; fill:none" points="
  1301.15,1162.96 1301.15,1384.24 1405.14,1384.24 1405.14,1162.96 1301.15,1162.96 
  "/>
<path clip-path="url(#clip312)" d="
M1405.14 1278.43 L1405.14 1384.24 L1509.13 1384.24 L1509.13 1278.43 L1405.14 1278.43 L1405.14 1278.43  Z
  " fill="#009af9" fill-rule="evenodd" fill-opacity="1"/>
<polyline clip-path="url(#clip312)" style="stroke:#009af9; stroke-width:4; stroke-opacity:1; fill:none" points="
  1405.14,1278.43 1405.14,1384.24 1509.13,1384.24 1509.13,1278.43 1405.14,1278.43 
  "/>
<path clip-path="url(#clip312)" d="
M1509.13 1336.59 L1509.13 1384.24 L1613.12 1384.24 L1613.12 1336.59 L1509.13 1336.59 L1509.13 1336.59  Z
  " fill="#009af9" fill-rule="evenodd" fill-opacity="1"/>
<polyline clip-path="url(#clip312)" style="stroke:#009af9; stroke-width:4; stroke-opacity:1; fill:none" points="
  1509.13,1336.59 1509.13,1384.24 1613.12,1384.24 1613.12,1336.59 1509.13,1336.59 
  "/>
<path clip-path="url(#clip312)" d="
M1613.12 1363.36 L1613.12 1384.24 L1717.12 1384.24 L1717.12 1363.36 L1613.12 1363.36 L1613.12 1363.36  Z
  " fill="#009af9" fill-rule="evenodd" fill-opacity="1"/>
<polyline clip-path="url(#clip312)" style="stroke:#009af9; stroke-width:4; stroke-opacity:1; fill:none" points="
  1613.12,1363.36 1613.12,1384.24 1717.12,1384.24 1717.12,1363.36 1613.12,1363.36 
  "/>
<path clip-path="url(#clip312)" d="
M1717.12 1378.34 L1717.12 1384.24 L1821.11 1384.24 L1821.11 1378.34 L1717.12 1378.34 L1717.12 1378.34  Z
  " fill="#009af9" fill-rule="evenodd" fill-opacity="1"/>
<polyline clip-path="url(#clip312)" style="stroke:#009af9; stroke-width:4; stroke-opacity:1; fill:none" points="
  1717.12,1378.34 1717.12,1384.24 1821.11,1384.24 1821.11,1378.34 1717.12,1378.34 
  "/>
<path clip-path="url(#clip312)" d="
M1821.11 1381.33 L1821.11 1384.24 L1925.1 1384.24 L1925.1 1381.33 L1821.11 1381.33 L1821.11 1381.33  Z
  " fill="#009af9" fill-rule="evenodd" fill-opacity="1"/>
<polyline clip-path="url(#clip312)" style="stroke:#009af9; stroke-width:4; stroke-opacity:1; fill:none" points="
  1821.11,1381.33 1821.11,1384.24 1925.1,1384.24 1925.1,1381.33 1821.11,1381.33 
  "/>
<path clip-path="url(#clip312)" d="
M1925.1 1383.67 L1925.1 1384.24 L2029.09 1384.24 L2029.09 1383.67 L1925.1 1383.67 L1925.1 1383.67  Z
  " fill="#009af9" fill-rule="evenodd" fill-opacity="1"/>
<polyline clip-path="url(#clip312)" style="stroke:#009af9; stroke-width:4; stroke-opacity:1; fill:none" points="
  1925.1,1383.67 1925.1,1384.24 2029.09,1384.24 2029.09,1383.67 1925.1,1383.67 
  "/>
<path clip-path="url(#clip312)" d="
M2029.09 1383.95 L2029.09 1384.24 L2133.08 1384.24 L2133.08 1383.95 L2029.09 1383.95 L2029.09 1383.95  Z
  " fill="#009af9" fill-rule="evenodd" fill-opacity="1"/>
<polyline clip-path="url(#clip312)" style="stroke:#009af9; stroke-width:4; stroke-opacity:1; fill:none" points="
  2029.09,1383.95 2029.09,1384.24 2133.08,1384.24 2133.08,1383.95 2029.09,1383.95 
  "/>
<path clip-path="url(#clip312)" d="
M2133.08 1384.1 L2133.08 1384.24 L2237.08 1384.24 L2237.08 1384.1 L2133.08 1384.1 L2133.08 1384.1  Z
  " fill="#009af9" fill-rule="evenodd" fill-opacity="1"/>
<polyline clip-path="url(#clip312)" style="stroke:#009af9; stroke-width:4; stroke-opacity:1; fill:none" points="
  2133.08,1384.1 2133.08,1384.24 2237.08,1384.24 2237.08,1384.1 2133.08,1384.1 
  "/>
<polyline clip-path="url(#clip312)" style="stroke:#e26f46; stroke-width:12; stroke-opacity:1; fill:none" points="
  365.223,1269.54 375.622,1257.6 386.021,1244.72 396.42,1230.84 406.819,1215.93 417.218,1199.95 427.618,1182.87 438.017,1164.67 448.416,1145.31 458.815,1124.78 
  469.214,1103.07 479.614,1080.18 490.013,1056.1 500.412,1030.84 510.811,1004.43 521.21,976.882 531.609,948.242 542.009,918.552 552.408,887.869 562.807,856.256 
  573.206,823.791 583.605,790.558 594.005,756.654 604.404,722.184 614.803,687.264 625.202,652.018 635.601,616.579 646,581.087 656.4,545.69 666.799,510.542 
  677.198,475.801 687.597,441.63 697.996,408.195 708.396,375.661 718.795,344.196 729.194,313.965 739.593,285.131 749.992,257.851 760.391,232.28 770.791,208.561 
  781.19,186.834 791.589,167.224 801.988,149.848 812.387,134.811 822.787,122.203 833.186,112.101 843.585,104.568 853.984,99.6497 864.383,97.3764 874.782,97.7623 
  885.182,100.805 895.581,106.486 905.98,114.769 916.379,125.605 926.778,138.926 937.178,154.651 947.577,172.686 957.976,192.923 968.375,215.242 978.774,239.512 
  989.173,265.594 999.573,293.341 1009.97,322.597 1020.37,353.203 1030.77,384.995 1041.17,417.807 1051.57,451.473 1061.97,485.826 1072.37,520.702 1082.77,555.938 
  1093.17,591.378 1103.56,626.87 1113.96,662.267 1124.36,697.432 1134.76,732.234 1145.16,766.551 1155.56,800.271 1165.96,833.29 1176.36,865.517 1186.76,896.867 
  1197.16,927.269 1207.56,956.659 1217.96,984.985 1228.35,1012.21 1238.75,1038.29 1249.15,1063.2 1259.55,1086.94 1269.95,1109.49 1280.35,1130.86 1290.75,1151.04 
  1301.15,1170.07 1311.55,1187.94 1321.95,1204.7 1332.35,1220.36 1342.75,1234.97 1353.14,1248.56 1363.54,1261.16 1373.94,1272.82 1384.34,1283.59 1394.74,1293.51 
  1405.14,1302.61 1415.54,1310.96 1425.94,1318.58 1436.34,1325.54 1446.74,1331.87 1457.14,1337.61 1467.54,1342.8 1477.94,1347.5 1488.33,1351.73 1498.73,1355.53 
  1509.13,1358.94 1519.53,1361.99 1529.93,1364.72 1540.33,1367.14 1550.73,1369.3 1561.13,1371.21 1571.53,1372.9 1581.93,1374.39 1592.33,1375.7 1602.73,1376.85 
  1613.12,1377.86 1623.52,1378.75 1633.92,1379.52 1644.32,1380.19 1654.72,1380.77 1665.12,1381.28 1675.52,1381.71 1685.92,1382.09 1696.32,1382.41 1706.72,1382.69 
  1717.12,1382.93 1727.52,1383.14 1737.91,1383.31 1748.31,1383.46 1758.71,1383.58 1769.11,1383.69 1779.51,1383.78 1789.91,1383.86 1800.31,1383.92 1810.71,1383.98 
  1821.11,1384.02 1831.51,1384.06 1841.91,1384.09 1852.31,1384.12 1862.7,1384.14 1873.1,1384.16 1883.5,1384.17 1893.9,1384.18 1904.3,1384.19 1914.7,1384.2 
  1925.1,1384.21 1935.5,1384.21 1945.9,1384.22 1956.3,1384.22 1966.7,1384.23 1977.1,1384.23 1987.5,1384.23 1997.89,1384.23 2008.29,1384.23 2018.69,1384.23 
  2029.09,1384.24 2039.49,1384.24 2049.89,1384.24 2060.29,1384.24 2070.69,1384.24 2081.09,1384.24 2091.49,1384.24 2101.89,1384.24 2112.29,1384.24 2122.68,1384.24 
  2133.08,1384.24 
  "/>
<polyline clip-path="url(#clip312)" style="stroke:#3da44d; stroke-width:12; stroke-opacity:1; fill:none" points="
  365.223,1327.89 375.622,1314.9 386.021,1300.13 396.42,1283.5 406.819,1264.95 417.218,1244.43 427.618,1221.9 438.017,1197.35 448.416,1170.79 458.815,1142.25 
  469.214,1111.77 479.614,1079.43 490.013,1045.32 500.412,1009.54 510.811,972.23 521.21,933.531 531.609,893.61 542.009,852.646 552.408,810.833 562.807,768.375 
  573.206,725.487 583.605,682.391 594.005,639.312 604.404,596.481 614.803,554.128 625.202,512.481 635.601,471.764 646,432.196 656.4,393.988 666.799,357.34 
  677.198,322.442 687.597,289.47 697.996,258.586 708.396,229.936 718.795,203.651 729.194,179.843 739.593,158.608 749.992,140.022 760.391,124.145 770.791,111.016 
  781.19,100.659 791.589,93.0793 801.988,88.2641 812.387,86.1857 822.787,86.8002 833.186,90.0495 843.585,95.8617 853.984,104.152 864.383,114.826 874.782,127.777 
  885.182,142.89 895.581,160.043 905.98,179.107 916.379,199.949 926.778,222.431 937.178,246.412 947.577,271.749 957.976,298.299 968.375,325.921 978.774,354.473 
  989.173,383.815 999.573,413.813 1009.97,444.334 1020.37,475.25 1030.77,506.439 1041.17,537.783 1051.57,569.171 1061.97,600.499 1072.37,631.666 1082.77,662.582 
  1093.17,693.161 1103.56,723.324 1113.96,753.001 1124.36,782.127 1134.76,810.644 1145.16,838.501 1155.56,865.652 1165.96,892.06 1176.36,917.692 1186.76,942.521 
  1197.16,966.525 1207.56,989.689 1217.96,1012 1228.35,1033.45 1238.75,1054.05 1249.15,1073.78 1259.55,1092.65 1269.95,1110.68 1280.35,1127.88 1290.75,1144.25 
  1301.15,1159.81 1311.55,1174.59 1321.95,1188.59 1332.35,1201.85 1342.75,1214.38 1353.14,1226.21 1363.54,1237.37 1373.94,1247.87 1384.34,1257.74 1394.74,1267.02 
  1405.14,1275.72 1415.54,1283.86 1425.94,1291.49 1436.34,1298.61 1446.74,1305.26 1457.14,1311.46 1467.54,1317.24 1477.94,1322.61 1488.33,1327.6 1498.73,1332.24 
  1509.13,1336.53 1519.53,1340.51 1529.93,1344.19 1540.33,1347.6 1550.73,1350.74 1561.13,1353.64 1571.53,1356.31 1581.93,1358.77 1592.33,1361.03 1602.73,1363.11 
  1613.12,1365.02 1623.52,1366.76 1633.92,1368.37 1644.32,1369.83 1654.72,1371.18 1665.12,1372.4 1675.52,1373.52 1685.92,1374.54 1696.32,1375.47 1706.72,1376.32 
  1717.12,1377.09 1727.52,1377.79 1737.91,1378.42 1748.31,1379 1758.71,1379.52 1769.11,1380 1779.51,1380.43 1789.91,1380.82 1800.31,1381.17 1810.71,1381.48 
  1821.11,1381.77 1831.51,1382.03 1841.91,1382.26 1852.31,1382.47 1862.7,1382.66 1873.1,1382.82 1883.5,1382.98 1893.9,1383.11 1904.3,1383.23 1914.7,1383.34 
  1925.1,1383.44 1935.5,1383.53 1945.9,1383.61 1956.3,1383.68 1966.7,1383.74 1977.1,1383.8 1987.5,1383.85 1997.89,1383.89 2008.29,1383.93 2018.69,1383.97 
  2029.09,1384 2039.49,1384.03 2049.89,1384.05 2060.29,1384.07 2070.69,1384.09 2081.09,1384.11 2091.49,1384.12 2101.89,1384.14 2112.29,1384.15 2122.68,1384.16 
  2133.08,1384.17 
  "/>
<path clip-path="url(#clip310)" d="
M1778.33 335.029 L2282.65 335.029 L2282.65 93.1086 L1778.33 93.1086  Z
  " fill="#ffffff" fill-rule="evenodd" fill-opacity="1"/>
<polyline clip-path="url(#clip310)" style="stroke:#000000; stroke-width:4; stroke-opacity:1; fill:none" points="
  1778.33,335.029 2282.65,335.029 2282.65,93.1086 1778.33,93.1086 1778.33,335.029 
  "/>
<path clip-path="url(#clip310)" d="
M1801.7 177.781 L1941.92 177.781 L1941.92 129.397 L1801.7 129.397 L1801.7 177.781  Z
  " fill="#009af9" fill-rule="evenodd" fill-opacity="1"/>
<polyline clip-path="url(#clip310)" style="stroke:#009af9; stroke-width:4; stroke-opacity:1; fill:none" points="
  1801.7,177.781 1941.92,177.781 1941.92,129.397 1801.7,129.397 1801.7,177.781 
  "/>
<path clip-path="url(#clip310)" d="M 0 0 M1979.13 173.276 Q1977.32 177.906 1975.61 179.318 Q1973.9 180.73 1971.03 180.73 L1967.63 180.73 L1967.63 177.165 L1970.13 177.165 Q1971.88 177.165 1972.86 176.332 Q1973.83 175.498 1975.01 172.396 L1975.77 170.452 L1965.29 144.943 L1969.8 144.943 L1977.9 165.221 L1986 144.943 L1990.52 144.943 L1979.13 173.276 Z" fill="#000000" fill-rule="evenodd" fill-opacity="1" /><path clip-path="url(#clip310)" d="M 0 0 M1997.81 166.933 L2005.45 166.933 L2005.45 140.568 L1997.14 142.235 L1997.14 137.975 L2005.4 136.309 L2010.08 136.309 L2010.08 166.933 L2017.72 166.933 L2017.72 170.869 L1997.81 170.869 L1997.81 166.933 Z" fill="#000000" fill-rule="evenodd" fill-opacity="1" /><polyline clip-path="url(#clip310)" style="stroke:#e26f46; stroke-width:4; stroke-opacity:1; fill:none" points="
  1801.7,214.069 1941.92,214.069 
  "/>
<path clip-path="url(#clip310)" d="M 0 0 M1984.2 218.085 Q1984.2 213.455 1982.28 210.909 Q1980.38 208.363 1976.93 208.363 Q1973.5 208.363 1971.58 210.909 Q1969.69 213.455 1969.69 218.085 Q1969.69 222.691 1971.58 225.238 Q1973.5 227.784 1976.93 227.784 Q1980.38 227.784 1982.28 225.238 Q1984.2 222.691 1984.2 218.085 M1988.46 228.131 Q1988.46 234.751 1985.52 237.969 Q1982.58 241.21 1976.51 241.21 Q1974.27 241.21 1972.28 240.862 Q1970.29 240.538 1968.41 239.844 L1968.41 235.7 Q1970.29 236.719 1972.12 237.205 Q1973.94 237.691 1975.84 237.691 Q1980.03 237.691 1982.12 235.492 Q1984.2 233.316 1984.2 228.895 L1984.2 226.788 Q1982.88 229.08 1980.82 230.214 Q1978.76 231.349 1975.89 231.349 Q1971.12 231.349 1968.2 227.714 Q1965.29 224.08 1965.29 218.085 Q1965.29 212.066 1968.2 208.432 Q1971.12 204.798 1975.89 204.798 Q1978.76 204.798 1980.82 205.932 Q1982.88 207.066 1984.2 209.358 L1984.2 205.423 L1988.46 205.423 L1988.46 228.131 Z" fill="#000000" fill-rule="evenodd" fill-opacity="1" /><path clip-path="url(#clip310)" d="M 0 0 M2009.01 218.316 Q2003.85 218.316 2001.86 219.497 Q1999.87 220.677 1999.87 223.525 Q1999.87 225.793 2001.35 227.136 Q2002.86 228.455 2005.43 228.455 Q2008.97 228.455 2011.1 225.955 Q2013.25 223.432 2013.25 219.265 L2013.25 218.316 L2009.01 218.316 M2017.51 216.557 L2017.51 231.349 L2013.25 231.349 L2013.25 227.413 Q2011.79 229.775 2009.62 230.909 Q2007.44 232.02 2004.29 232.02 Q2000.31 232.02 1997.95 229.798 Q1995.61 227.552 1995.61 223.802 Q1995.61 219.427 1998.53 217.205 Q2001.47 214.983 2007.28 214.983 L2013.25 214.983 L2013.25 214.566 Q2013.25 211.627 2011.31 210.029 Q2009.38 208.409 2005.89 208.409 Q2003.67 208.409 2001.56 208.941 Q1999.45 209.474 1997.51 210.539 L1997.51 206.603 Q1999.85 205.701 2002.05 205.261 Q2004.25 204.798 2006.33 204.798 Q2011.95 204.798 2014.73 207.714 Q2017.51 210.631 2017.51 216.557 Z" fill="#000000" fill-rule="evenodd" fill-opacity="1" /><path clip-path="url(#clip310)" d="M 0 0 M2025.84 221.117 L2025.84 205.423 L2030.1 205.423 L2030.1 220.955 Q2030.1 224.636 2031.54 226.488 Q2032.97 228.316 2035.84 228.316 Q2039.29 228.316 2041.28 226.117 Q2043.3 223.918 2043.3 220.122 L2043.3 205.423 L2047.56 205.423 L2047.56 231.349 L2043.3 231.349 L2043.3 227.367 Q2041.75 229.728 2039.68 230.886 Q2037.65 232.02 2034.94 232.02 Q2030.47 232.02 2028.16 229.242 Q2025.84 226.464 2025.84 221.117 M2036.56 204.798 L2036.56 204.798 Z" fill="#000000" fill-rule="evenodd" fill-opacity="1" /><path clip-path="url(#clip310)" d="M 0 0 M2072.86 206.187 L2072.86 210.214 Q2071.05 209.289 2069.11 208.826 Q2067.16 208.363 2065.08 208.363 Q2061.91 208.363 2060.31 209.335 Q2058.74 210.307 2058.74 212.251 Q2058.74 213.733 2059.87 214.589 Q2061 215.423 2064.43 216.187 L2065.89 216.511 Q2070.43 217.483 2072.32 219.265 Q2074.24 221.025 2074.24 224.196 Q2074.24 227.807 2071.37 229.913 Q2068.53 232.02 2063.53 232.02 Q2061.44 232.02 2059.18 231.603 Q2056.93 231.21 2054.43 230.4 L2054.43 226.001 Q2056.79 227.228 2059.08 227.853 Q2061.37 228.455 2063.62 228.455 Q2066.63 228.455 2068.25 227.437 Q2069.87 226.395 2069.87 224.52 Q2069.87 222.784 2068.69 221.858 Q2067.53 220.932 2063.57 220.076 L2062.09 219.728 Q2058.13 218.895 2056.37 217.182 Q2054.62 215.446 2054.62 212.437 Q2054.62 208.779 2057.21 206.789 Q2059.8 204.798 2064.57 204.798 Q2066.93 204.798 2069.01 205.145 Q2071.1 205.492 2072.86 206.187 Z" fill="#000000" fill-rule="evenodd" fill-opacity="1" /><path clip-path="url(#clip310)" d="M 0 0 M2097.55 206.187 L2097.55 210.214 Q2095.75 209.289 2093.8 208.826 Q2091.86 208.363 2089.78 208.363 Q2086.61 208.363 2085.01 209.335 Q2083.43 210.307 2083.43 212.251 Q2083.43 213.733 2084.57 214.589 Q2085.7 215.423 2089.13 216.187 L2090.59 216.511 Q2095.12 217.483 2097.02 219.265 Q2098.94 221.025 2098.94 224.196 Q2098.94 227.807 2096.07 229.913 Q2093.23 232.02 2088.23 232.02 Q2086.14 232.02 2083.87 231.603 Q2081.63 231.21 2079.13 230.4 L2079.13 226.001 Q2081.49 227.228 2083.78 227.853 Q2086.07 228.455 2088.32 228.455 Q2091.33 228.455 2092.95 227.437 Q2094.57 226.395 2094.57 224.52 Q2094.57 222.784 2093.39 221.858 Q2092.23 220.932 2088.27 220.076 L2086.79 219.728 Q2082.83 218.895 2081.07 217.182 Q2079.31 215.446 2079.31 212.437 Q2079.31 208.779 2081.91 206.789 Q2084.5 204.798 2089.27 204.798 Q2091.63 204.798 2093.71 205.145 Q2095.8 205.492 2097.55 206.187 Z" fill="#000000" fill-rule="evenodd" fill-opacity="1" /><path clip-path="url(#clip310)" d="M 0 0 M2105.73 205.423 L2109.99 205.423 L2109.99 231.349 L2105.73 231.349 L2105.73 205.423 M2105.73 195.33 L2109.99 195.33 L2109.99 200.724 L2105.73 200.724 L2105.73 195.33 Z" fill="#000000" fill-rule="evenodd" fill-opacity="1" /><path clip-path="url(#clip310)" d="M 0 0 M2130.68 218.316 Q2125.52 218.316 2123.53 219.497 Q2121.54 220.677 2121.54 223.525 Q2121.54 225.793 2123.02 227.136 Q2124.52 228.455 2127.09 228.455 Q2130.63 228.455 2132.76 225.955 Q2134.92 223.432 2134.92 219.265 L2134.92 218.316 L2130.68 218.316 M2139.18 216.557 L2139.18 231.349 L2134.92 231.349 L2134.92 227.413 Q2133.46 229.775 2131.28 230.909 Q2129.11 232.02 2125.96 232.02 Q2121.98 232.02 2119.62 229.798 Q2117.28 227.552 2117.28 223.802 Q2117.28 219.427 2120.19 217.205 Q2123.13 214.983 2128.94 214.983 L2134.92 214.983 L2134.92 214.566 Q2134.92 211.627 2132.97 210.029 Q2131.05 208.409 2127.55 208.409 Q2125.33 208.409 2123.23 208.941 Q2121.12 209.474 2119.18 210.539 L2119.18 206.603 Q2121.51 205.701 2123.71 205.261 Q2125.91 204.798 2127.99 204.798 Q2133.62 204.798 2136.4 207.714 Q2139.18 210.631 2139.18 216.557 Z" fill="#000000" fill-rule="evenodd" fill-opacity="1" /><path clip-path="url(#clip310)" d="M 0 0 M2169.5 215.701 L2169.5 231.349 L2165.24 231.349 L2165.24 215.839 Q2165.24 212.159 2163.8 210.33 Q2162.37 208.502 2159.5 208.502 Q2156.05 208.502 2154.06 210.701 Q2152.07 212.9 2152.07 216.696 L2152.07 231.349 L2147.79 231.349 L2147.79 205.423 L2152.07 205.423 L2152.07 209.451 Q2153.6 207.113 2155.66 205.955 Q2157.74 204.798 2160.45 204.798 Q2164.92 204.798 2167.21 207.576 Q2169.5 210.33 2169.5 215.701 Z" fill="#000000" fill-rule="evenodd" fill-opacity="1" /><path clip-path="url(#clip310)" d="M 0 0 M2206.19 195.33 L2206.19 198.872 L2202.11 198.872 Q2199.82 198.872 2198.92 199.798 Q2198.04 200.724 2198.04 203.131 L2198.04 205.423 L2205.05 205.423 L2205.05 208.733 L2198.04 208.733 L2198.04 231.349 L2193.76 231.349 L2193.76 208.733 L2189.68 208.733 L2189.68 205.423 L2193.76 205.423 L2193.76 203.617 Q2193.76 199.289 2195.77 197.321 Q2197.79 195.33 2202.16 195.33 L2206.19 195.33 Z" fill="#000000" fill-rule="evenodd" fill-opacity="1" /><path clip-path="url(#clip310)" d="M 0 0 M2209.75 205.423 L2214.01 205.423 L2214.01 231.349 L2209.75 231.349 L2209.75 205.423 M2209.75 195.33 L2214.01 195.33 L2214.01 200.724 L2209.75 200.724 L2209.75 195.33 Z" fill="#000000" fill-rule="evenodd" fill-opacity="1" /><path clip-path="url(#clip310)" d="M 0 0 M2227.14 198.062 L2227.14 205.423 L2235.91 205.423 L2235.91 208.733 L2227.14 208.733 L2227.14 222.807 Q2227.14 225.978 2227.99 226.881 Q2228.87 227.784 2231.54 227.784 L2235.91 227.784 L2235.91 231.349 L2231.54 231.349 Q2226.61 231.349 2224.73 229.52 Q2222.86 227.668 2222.86 222.807 L2222.86 208.733 L2219.73 208.733 L2219.73 205.423 L2222.86 205.423 L2222.86 198.062 L2227.14 198.062 Z" fill="#000000" fill-rule="evenodd" fill-opacity="1" /><polyline clip-path="url(#clip310)" style="stroke:#3da44d; stroke-width:4; stroke-opacity:1; fill:none" points="
  1801.7,274.549 1941.92,274.549 
  "/>
<path clip-path="url(#clip310)" d="M 0 0 M1969.57 287.94 L1969.57 301.69 L1965.29 301.69 L1965.29 265.903 L1969.57 265.903 L1969.57 269.838 Q1970.91 267.523 1972.95 266.412 Q1975.01 265.278 1977.86 265.278 Q1982.58 265.278 1985.52 269.028 Q1988.48 272.778 1988.48 278.889 Q1988.48 285 1985.52 288.75 Q1982.58 292.5 1977.86 292.5 Q1975.01 292.5 1972.95 291.389 Q1970.91 290.255 1969.57 287.94 M1984.06 278.889 Q1984.06 274.19 1982.12 271.528 Q1980.19 268.843 1976.81 268.843 Q1973.44 268.843 1971.49 271.528 Q1969.57 274.19 1969.57 278.889 Q1969.57 283.588 1971.49 286.273 Q1973.44 288.935 1976.81 288.935 Q1980.19 288.935 1982.12 286.273 Q1984.06 283.588 1984.06 278.889 Z" fill="#000000" fill-rule="evenodd" fill-opacity="1" /><path clip-path="url(#clip310)" d="M 0 0 M2005.59 268.889 Q2002.16 268.889 2000.17 271.574 Q1998.18 274.236 1998.18 278.889 Q1998.18 283.542 2000.15 286.227 Q2002.14 288.889 2005.59 288.889 Q2008.99 288.889 2010.98 286.204 Q2012.97 283.518 2012.97 278.889 Q2012.97 274.282 2010.98 271.597 Q2008.99 268.889 2005.59 268.889 M2005.59 265.278 Q2011.14 265.278 2014.31 268.889 Q2017.49 272.5 2017.49 278.889 Q2017.49 285.255 2014.31 288.889 Q2011.14 292.5 2005.59 292.5 Q2000.01 292.5 1996.84 288.889 Q1993.69 285.255 1993.69 278.889 Q1993.69 272.5 1996.84 268.889 Q2000.01 265.278 2005.59 265.278 Z" fill="#000000" fill-rule="evenodd" fill-opacity="1" /><path clip-path="url(#clip310)" d="M 0 0 M2024.55 265.903 L2028.81 265.903 L2028.81 291.829 L2024.55 291.829 L2024.55 265.903 M2024.55 255.81 L2028.81 255.81 L2028.81 261.204 L2024.55 261.204 L2024.55 255.81 Z" fill="#000000" fill-rule="evenodd" fill-opacity="1" /><path clip-path="url(#clip310)" d="M 0 0 M2054.24 266.667 L2054.24 270.694 Q2052.44 269.769 2050.5 269.306 Q2048.55 268.843 2046.47 268.843 Q2043.3 268.843 2041.7 269.815 Q2040.12 270.787 2040.12 272.731 Q2040.12 274.213 2041.26 275.069 Q2042.39 275.903 2045.82 276.667 L2047.28 276.991 Q2051.81 277.963 2053.71 279.745 Q2055.63 281.505 2055.63 284.676 Q2055.63 288.287 2052.76 290.393 Q2049.92 292.5 2044.92 292.5 Q2042.83 292.5 2040.56 292.083 Q2038.32 291.69 2035.82 290.88 L2035.82 286.481 Q2038.18 287.708 2040.47 288.333 Q2042.76 288.935 2045.01 288.935 Q2048.02 288.935 2049.64 287.917 Q2051.26 286.875 2051.26 285 Q2051.26 283.264 2050.08 282.338 Q2048.92 281.412 2044.96 280.556 L2043.48 280.208 Q2039.52 279.375 2037.76 277.662 Q2036 275.926 2036 272.917 Q2036 269.259 2038.6 267.269 Q2041.19 265.278 2045.96 265.278 Q2048.32 265.278 2050.4 265.625 Q2052.49 265.972 2054.24 266.667 Z" fill="#000000" fill-rule="evenodd" fill-opacity="1" /><path clip-path="url(#clip310)" d="M 0 0 M2078.94 266.667 L2078.94 270.694 Q2077.14 269.769 2075.19 269.306 Q2073.25 268.843 2071.17 268.843 Q2067.99 268.843 2066.4 269.815 Q2064.82 270.787 2064.82 272.731 Q2064.82 274.213 2065.96 275.069 Q2067.09 275.903 2070.52 276.667 L2071.98 276.991 Q2076.51 277.963 2078.41 279.745 Q2080.33 281.505 2080.33 284.676 Q2080.33 288.287 2077.46 290.393 Q2074.62 292.5 2069.62 292.5 Q2067.53 292.5 2065.26 292.083 Q2063.02 291.69 2060.52 290.88 L2060.52 286.481 Q2062.88 287.708 2065.17 288.333 Q2067.46 288.935 2069.71 288.935 Q2072.72 288.935 2074.34 287.917 Q2075.96 286.875 2075.96 285 Q2075.96 283.264 2074.78 282.338 Q2073.62 281.412 2069.66 280.556 L2068.18 280.208 Q2064.22 279.375 2062.46 277.662 Q2060.7 275.926 2060.7 272.917 Q2060.7 269.259 2063.3 267.269 Q2065.89 265.278 2070.66 265.278 Q2073.02 265.278 2075.1 265.625 Q2077.18 265.972 2078.94 266.667 Z" fill="#000000" fill-rule="evenodd" fill-opacity="1" /><path clip-path="url(#clip310)" d="M 0 0 M2097.16 268.889 Q2093.74 268.889 2091.74 271.574 Q2089.75 274.236 2089.75 278.889 Q2089.75 283.542 2091.72 286.227 Q2093.71 288.889 2097.16 288.889 Q2100.56 288.889 2102.55 286.204 Q2104.55 283.518 2104.55 278.889 Q2104.55 274.282 2102.55 271.597 Q2100.56 268.889 2097.16 268.889 M2097.16 265.278 Q2102.72 265.278 2105.89 268.889 Q2109.06 272.5 2109.06 278.889 Q2109.06 285.255 2105.89 288.889 Q2102.72 292.5 2097.16 292.5 Q2091.58 292.5 2088.41 288.889 Q2085.26 285.255 2085.26 278.889 Q2085.26 272.5 2088.41 268.889 Q2091.58 265.278 2097.16 265.278 Z" fill="#000000" fill-rule="evenodd" fill-opacity="1" /><path clip-path="url(#clip310)" d="M 0 0 M2137.67 276.181 L2137.67 291.829 L2133.41 291.829 L2133.41 276.319 Q2133.41 272.639 2131.98 270.81 Q2130.54 268.982 2127.67 268.982 Q2124.22 268.982 2122.23 271.181 Q2120.24 273.38 2120.24 277.176 L2120.24 291.829 L2115.96 291.829 L2115.96 265.903 L2120.24 265.903 L2120.24 269.931 Q2121.77 267.593 2123.83 266.435 Q2125.91 265.278 2128.62 265.278 Q2133.09 265.278 2135.38 268.056 Q2137.67 270.81 2137.67 276.181 Z" fill="#000000" fill-rule="evenodd" fill-opacity="1" /><path clip-path="url(#clip310)" d="M 0 0 M2174.36 255.81 L2174.36 259.352 L2170.29 259.352 Q2167.99 259.352 2167.09 260.278 Q2166.21 261.204 2166.21 263.611 L2166.21 265.903 L2173.23 265.903 L2173.23 269.213 L2166.21 269.213 L2166.21 291.829 L2161.93 291.829 L2161.93 269.213 L2157.86 269.213 L2157.86 265.903 L2161.93 265.903 L2161.93 264.097 Q2161.93 259.769 2163.94 257.801 Q2165.96 255.81 2170.33 255.81 L2174.36 255.81 Z" fill="#000000" fill-rule="evenodd" fill-opacity="1" /><path clip-path="url(#clip310)" d="M 0 0 M2177.92 265.903 L2182.18 265.903 L2182.18 291.829 L2177.92 291.829 L2177.92 265.903 M2177.92 255.81 L2182.18 255.81 L2182.18 261.204 L2177.92 261.204 L2177.92 255.81 Z" fill="#000000" fill-rule="evenodd" fill-opacity="1" /><path clip-path="url(#clip310)" d="M 0 0 M2195.31 258.542 L2195.31 265.903 L2204.08 265.903 L2204.08 269.213 L2195.31 269.213 L2195.31 283.287 Q2195.31 286.458 2196.17 287.361 Q2197.05 288.264 2199.71 288.264 L2204.08 288.264 L2204.08 291.829 L2199.71 291.829 Q2194.78 291.829 2192.9 290 Q2191.03 288.148 2191.03 283.287 L2191.03 269.213 L2187.9 269.213 L2187.9 265.903 L2191.03 265.903 L2191.03 258.542 L2195.31 258.542 Z" fill="#000000" fill-rule="evenodd" fill-opacity="1" /></svg>
