<?xml version="1.0" encoding="utf-8"?>
<svg xmlns="http://www.w3.org/2000/svg" xmlns:xlink="http://www.w3.org/1999/xlink" width="600" height="400" viewBox="0 0 2400 1600">
<defs>
  <clipPath id="clip400">
    <rect x="0" y="0" width="2400" height="1600"/>
  </clipPath>
</defs>
<path clip-path="url(#clip400)" d="
M0 1600 L2400 1600 L2400 0 L0 0  Z
  " fill="#ffffff" fill-rule="evenodd" fill-opacity="1"/>
<defs>
  <clipPath id="clip401">
    <rect x="480" y="0" width="1681" height="1600"/>
  </clipPath>
</defs>
<path clip-path="url(#clip400)" d="
M279.704 1423.18 L2352.76 1423.18 L2352.76 47.2441 L279.704 47.2441  Z
  " fill="#ffffff" fill-rule="evenodd" fill-opacity="1"/>
<defs>
  <clipPath id="clip402">
    <rect x="279" y="47" width="2074" height="1377"/>
  </clipPath>
</defs>
<polyline clip-path="url(#clip402)" style="stroke:#000000; stroke-width:2; stroke-opacity:0.1; fill:none" points="
  338.375,1423.18 338.375,47.2441 
  "/>
<polyline clip-path="url(#clip402)" style="stroke:#000000; stroke-width:2; stroke-opacity:0.1; fill:none" points="
  897.309,1423.18 897.309,47.2441 
  "/>
<polyline clip-path="url(#clip402)" style="stroke:#000000; stroke-width:2; stroke-opacity:0.1; fill:none" points="
  1456.24,1423.18 1456.24,47.2441 
  "/>
<polyline clip-path="url(#clip402)" style="stroke:#000000; stroke-width:2; stroke-opacity:0.1; fill:none" points="
  2015.18,1423.18 2015.18,47.2441 
  "/>
<polyline clip-path="url(#clip400)" style="stroke:#000000; stroke-width:4; stroke-opacity:1; fill:none" points="
  279.704,1423.18 2352.76,1423.18 
  "/>
<polyline clip-path="url(#clip400)" style="stroke:#000000; stroke-width:4; stroke-opacity:1; fill:none" points="
  338.375,1423.18 338.375,1406.67 
  "/>
<polyline clip-path="url(#clip400)" style="stroke:#000000; stroke-width:4; stroke-opacity:1; fill:none" points="
  897.309,1423.18 897.309,1406.67 
  "/>
<polyline clip-path="url(#clip400)" style="stroke:#000000; stroke-width:4; stroke-opacity:1; fill:none" points="
  1456.24,1423.18 1456.24,1406.67 
  "/>
<polyline clip-path="url(#clip400)" style="stroke:#000000; stroke-width:4; stroke-opacity:1; fill:none" points="
  2015.18,1423.18 2015.18,1406.67 
  "/>
<path clip-path="url(#clip400)" d="M 0 0 M338.375 1452.37 Q334.764 1452.37 332.935 1455.94 Q331.13 1459.48 331.13 1466.61 Q331.13 1473.71 332.935 1477.28 Q334.764 1480.82 338.375 1480.82 Q342.009 1480.82 343.815 1477.28 Q345.644 1473.71 345.644 1466.61 Q345.644 1459.48 343.815 1455.94 Q342.009 1452.37 338.375 1452.37 M338.375 1448.67 Q344.185 1448.67 347.241 1453.27 Q350.32 1457.86 350.32 1466.61 Q350.32 1475.33 347.241 1479.94 Q344.185 1484.52 338.375 1484.52 Q332.565 1484.52 329.486 1479.94 Q326.431 1475.33 326.431 1466.61 Q326.431 1457.86 329.486 1453.27 Q332.565 1448.67 338.375 1448.67 Z" fill="#000000" fill-rule="evenodd" fill-opacity="1" /><path clip-path="url(#clip400)" d="M 0 0 M871.997 1479.92 L879.635 1479.92 L879.635 1453.55 L871.325 1455.22 L871.325 1450.96 L879.589 1449.29 L884.265 1449.29 L884.265 1479.92 L891.904 1479.92 L891.904 1483.85 L871.997 1483.85 L871.997 1479.92 Z" fill="#000000" fill-rule="evenodd" fill-opacity="1" /><path clip-path="url(#clip400)" d="M 0 0 M911.348 1452.37 Q907.737 1452.37 905.909 1455.94 Q904.103 1459.48 904.103 1466.61 Q904.103 1473.71 905.909 1477.28 Q907.737 1480.82 911.348 1480.82 Q914.983 1480.82 916.788 1477.28 Q918.617 1473.71 918.617 1466.61 Q918.617 1459.48 916.788 1455.94 Q914.983 1452.37 911.348 1452.37 M911.348 1448.67 Q917.158 1448.67 920.214 1453.27 Q923.293 1457.86 923.293 1466.61 Q923.293 1475.33 920.214 1479.94 Q917.158 1484.52 911.348 1484.52 Q905.538 1484.52 902.459 1479.94 Q899.404 1475.33 899.404 1466.61 Q899.404 1457.86 902.459 1453.27 Q905.538 1448.67 911.348 1448.67 Z" fill="#000000" fill-rule="evenodd" fill-opacity="1" /><path clip-path="url(#clip400)" d="M 0 0 M1435.02 1479.92 L1451.34 1479.92 L1451.34 1483.85 L1429.39 1483.85 L1429.39 1479.92 Q1432.05 1477.16 1436.64 1472.53 Q1441.24 1467.88 1442.42 1466.54 Q1444.67 1464.01 1445.55 1462.28 Q1446.45 1460.52 1446.45 1458.83 Q1446.45 1456.07 1444.51 1454.34 Q1442.59 1452.6 1439.48 1452.6 Q1437.28 1452.6 1434.83 1453.37 Q1432.4 1454.13 1429.62 1455.68 L1429.62 1450.96 Q1432.45 1449.82 1434.9 1449.25 Q1437.35 1448.67 1439.39 1448.67 Q1444.76 1448.67 1447.96 1451.35 Q1451.15 1454.04 1451.15 1458.53 Q1451.15 1460.66 1450.34 1462.58 Q1449.55 1464.48 1447.45 1467.07 Q1446.87 1467.74 1443.77 1470.96 Q1440.66 1474.15 1435.02 1479.92 Z" fill="#000000" fill-rule="evenodd" fill-opacity="1" /><path clip-path="url(#clip400)" d="M 0 0 M1471.15 1452.37 Q1467.54 1452.37 1465.71 1455.94 Q1463.9 1459.48 1463.9 1466.61 Q1463.9 1473.71 1465.71 1477.28 Q1467.54 1480.82 1471.15 1480.82 Q1474.78 1480.82 1476.59 1477.28 Q1478.42 1473.71 1478.42 1466.61 Q1478.42 1459.48 1476.59 1455.94 Q1474.78 1452.37 1471.15 1452.37 M1471.15 1448.67 Q1476.96 1448.67 1480.02 1453.27 Q1483.09 1457.86 1483.09 1466.61 Q1483.09 1475.33 1480.02 1479.94 Q1476.96 1484.52 1471.15 1484.52 Q1465.34 1484.52 1462.26 1479.94 Q1459.21 1475.33 1459.21 1466.61 Q1459.21 1457.86 1462.26 1453.27 Q1465.34 1448.67 1471.15 1448.67 Z" fill="#000000" fill-rule="evenodd" fill-opacity="1" /><path clip-path="url(#clip400)" d="M 0 0 M2004.02 1465.22 Q2007.38 1465.94 2009.25 1468.2 Q2011.15 1470.47 2011.15 1473.81 Q2011.15 1478.92 2007.63 1481.72 Q2004.11 1484.52 1997.63 1484.52 Q1995.45 1484.52 1993.14 1484.08 Q1990.85 1483.67 1988.39 1482.81 L1988.39 1478.3 Q1990.34 1479.43 1992.65 1480.01 Q1994.97 1480.59 1997.49 1480.59 Q2001.89 1480.59 2004.18 1478.85 Q2006.5 1477.12 2006.5 1473.81 Q2006.5 1470.75 2004.34 1469.04 Q2002.21 1467.3 1998.39 1467.3 L1994.37 1467.3 L1994.37 1463.46 L1998.58 1463.46 Q2002.03 1463.46 2003.86 1462.09 Q2005.69 1460.7 2005.69 1458.11 Q2005.69 1455.45 2003.79 1454.04 Q2001.91 1452.6 1998.39 1452.6 Q1996.47 1452.6 1994.27 1453.02 Q1992.07 1453.44 1989.44 1454.31 L1989.44 1450.15 Q1992.1 1449.41 1994.41 1449.04 Q1996.75 1448.67 1998.81 1448.67 Q2004.14 1448.67 2007.24 1451.1 Q2010.34 1453.5 2010.34 1457.63 Q2010.34 1460.5 2008.7 1462.49 Q2007.05 1464.45 2004.02 1465.22 Z" fill="#000000" fill-rule="evenodd" fill-opacity="1" /><path clip-path="url(#clip400)" d="M 0 0 M2030.01 1452.37 Q2026.4 1452.37 2024.57 1455.94 Q2022.77 1459.48 2022.77 1466.61 Q2022.77 1473.71 2024.57 1477.28 Q2026.4 1480.82 2030.01 1480.82 Q2033.65 1480.82 2035.45 1477.28 Q2037.28 1473.71 2037.28 1466.61 Q2037.28 1459.48 2035.45 1455.94 Q2033.65 1452.37 2030.01 1452.37 M2030.01 1448.67 Q2035.82 1448.67 2038.88 1453.27 Q2041.96 1457.86 2041.96 1466.61 Q2041.96 1475.33 2038.88 1479.94 Q2035.82 1484.52 2030.01 1484.52 Q2024.2 1484.52 2021.13 1479.94 Q2018.07 1475.33 2018.07 1466.61 Q2018.07 1457.86 2021.13 1453.27 Q2024.2 1448.67 2030.01 1448.67 Z" fill="#000000" fill-rule="evenodd" fill-opacity="1" /><path clip-path="url(#clip400)" d="M 0 0 M1326.67 1537.87 Q1325.68 1537.3 1324.51 1537.04 Q1323.36 1536.76 1321.96 1536.76 Q1316.99 1536.76 1314.32 1540 Q1311.68 1543.22 1311.68 1549.27 L1311.68 1568.04 L1305.79 1568.04 L1305.79 1532.4 L1311.68 1532.4 L1311.68 1537.93 Q1313.52 1534.69 1316.48 1533.13 Q1319.44 1531.54 1323.68 1531.54 Q1324.28 1531.54 1325.01 1531.63 Q1325.75 1531.7 1326.64 1531.85 L1326.67 1537.87 Z" fill="#000000" fill-rule="evenodd" fill-opacity="1" /><polyline clip-path="url(#clip402)" style="stroke:#000000; stroke-width:2; stroke-opacity:0.1; fill:none" points="
  279.704,1384.24 2352.76,1384.24 
  "/>
<polyline clip-path="url(#clip402)" style="stroke:#000000; stroke-width:2; stroke-opacity:0.1; fill:none" points="
  279.704,1070.07 2352.76,1070.07 
  "/>
<polyline clip-path="url(#clip402)" style="stroke:#000000; stroke-width:2; stroke-opacity:0.1; fill:none" points="
  279.704,755.902 2352.76,755.902 
  "/>
<polyline clip-path="url(#clip402)" style="stroke:#000000; stroke-width:2; stroke-opacity:0.1; fill:none" points="
  279.704,441.735 2352.76,441.735 
  "/>
<polyline clip-path="url(#clip402)" style="stroke:#000000; stroke-width:2; stroke-opacity:0.1; fill:none" points="
  279.704,127.567 2352.76,127.567 
  "/>
<polyline clip-path="url(#clip400)" style="stroke:#000000; stroke-width:4; stroke-opacity:1; fill:none" points="
  279.704,1423.18 279.704,47.2441 
  "/>
<polyline clip-path="url(#clip400)" style="stroke:#000000; stroke-width:4; stroke-opacity:1; fill:none" points="
  279.704,1384.24 304.581,1384.24 
  "/>
<polyline clip-path="url(#clip400)" style="stroke:#000000; stroke-width:4; stroke-opacity:1; fill:none" points="
  279.704,1070.07 304.581,1070.07 
  "/>
<polyline clip-path="url(#clip400)" style="stroke:#000000; stroke-width:4; stroke-opacity:1; fill:none" points="
  279.704,755.902 304.581,755.902 
  "/>
<polyline clip-path="url(#clip400)" style="stroke:#000000; stroke-width:4; stroke-opacity:1; fill:none" points="
  279.704,441.735 304.581,441.735 
  "/>
<polyline clip-path="url(#clip400)" style="stroke:#000000; stroke-width:4; stroke-opacity:1; fill:none" points="
  279.704,127.567 304.581,127.567 
  "/>
<path clip-path="url(#clip400)" d="M 0 0 M126.205 1370.04 Q122.593 1370.04 120.765 1373.6 Q118.959 1377.14 118.959 1384.27 Q118.959 1391.38 120.765 1394.94 Q122.593 1398.49 126.205 1398.49 Q129.839 1398.49 131.644 1394.94 Q133.473 1391.38 133.473 1384.27 Q133.473 1377.14 131.644 1373.6 Q129.839 1370.04 126.205 1370.04 M126.205 1366.33 Q132.015 1366.33 135.07 1370.94 Q138.149 1375.52 138.149 1384.27 Q138.149 1393 135.07 1397.61 Q132.015 1402.19 126.205 1402.19 Q120.394 1402.19 117.316 1397.61 Q114.26 1393 114.26 1384.27 Q114.26 1375.52 117.316 1370.94 Q120.394 1366.33 126.205 1366.33 Z" fill="#000000" fill-rule="evenodd" fill-opacity="1" /><path clip-path="url(#clip400)" d="M 0 0 M146.366 1395.64 L151.251 1395.64 L151.251 1401.52 L146.366 1401.52 L146.366 1395.64 Z" fill="#000000" fill-rule="evenodd" fill-opacity="1" /><path clip-path="url(#clip400)" d="M 0 0 M171.436 1370.04 Q167.825 1370.04 165.996 1373.6 Q164.19 1377.14 164.19 1384.27 Q164.19 1391.38 165.996 1394.94 Q167.825 1398.49 171.436 1398.49 Q175.07 1398.49 176.876 1394.94 Q178.704 1391.38 178.704 1384.27 Q178.704 1377.14 176.876 1373.6 Q175.07 1370.04 171.436 1370.04 M171.436 1366.33 Q177.246 1366.33 180.301 1370.94 Q183.38 1375.52 183.38 1384.27 Q183.38 1393 180.301 1397.61 Q177.246 1402.19 171.436 1402.19 Q165.626 1402.19 162.547 1397.61 Q159.491 1393 159.491 1384.27 Q159.491 1375.52 162.547 1370.94 Q165.626 1366.33 171.436 1366.33 Z" fill="#000000" fill-rule="evenodd" fill-opacity="1" /><path clip-path="url(#clip400)" d="M 0 0 M201.598 1370.04 Q197.987 1370.04 196.158 1373.6 Q194.352 1377.14 194.352 1384.27 Q194.352 1391.38 196.158 1394.94 Q197.987 1398.49 201.598 1398.49 Q205.232 1398.49 207.037 1394.94 Q208.866 1391.38 208.866 1384.27 Q208.866 1377.14 207.037 1373.6 Q205.232 1370.04 201.598 1370.04 M201.598 1366.33 Q207.408 1366.33 210.463 1370.94 Q213.542 1375.52 213.542 1384.27 Q213.542 1393 210.463 1397.61 Q207.408 1402.19 201.598 1402.19 Q195.787 1402.19 192.709 1397.61 Q189.653 1393 189.653 1384.27 Q189.653 1375.52 192.709 1370.94 Q195.787 1366.33 201.598 1366.33 Z" fill="#000000" fill-rule="evenodd" fill-opacity="1" /><path clip-path="url(#clip400)" d="M 0 0 M231.76 1370.04 Q228.148 1370.04 226.32 1373.6 Q224.514 1377.14 224.514 1384.27 Q224.514 1391.38 226.32 1394.94 Q228.148 1398.49 231.76 1398.49 Q235.394 1398.49 237.199 1394.94 Q239.028 1391.38 239.028 1384.27 Q239.028 1377.14 237.199 1373.6 Q235.394 1370.04 231.76 1370.04 M231.76 1366.33 Q237.57 1366.33 240.625 1370.94 Q243.704 1375.52 243.704 1384.27 Q243.704 1393 240.625 1397.61 Q237.57 1402.19 231.76 1402.19 Q225.949 1402.19 222.871 1397.61 Q219.815 1393 219.815 1384.27 Q219.815 1375.52 222.871 1370.94 Q225.949 1366.33 231.76 1366.33 Z" fill="#000000" fill-rule="evenodd" fill-opacity="1" /><path clip-path="url(#clip400)" d="M 0 0 M127.2 1055.87 Q123.589 1055.87 121.76 1059.43 Q119.955 1062.98 119.955 1070.11 Q119.955 1077.21 121.76 1080.78 Q123.589 1084.32 127.2 1084.32 Q130.834 1084.32 132.64 1080.78 Q134.468 1077.21 134.468 1070.11 Q134.468 1062.98 132.64 1059.43 Q130.834 1055.87 127.2 1055.87 M127.2 1052.17 Q133.01 1052.17 136.066 1056.77 Q139.144 1061.36 139.144 1070.11 Q139.144 1078.83 136.066 1083.44 Q133.01 1088.02 127.2 1088.02 Q121.39 1088.02 118.311 1083.44 Q115.256 1078.83 115.256 1070.11 Q115.256 1061.36 118.311 1056.77 Q121.39 1052.17 127.2 1052.17 Z" fill="#000000" fill-rule="evenodd" fill-opacity="1" /><path clip-path="url(#clip400)" d="M 0 0 M147.362 1081.47 L152.246 1081.47 L152.246 1087.35 L147.362 1087.35 L147.362 1081.47 Z" fill="#000000" fill-rule="evenodd" fill-opacity="1" /><path clip-path="url(#clip400)" d="M 0 0 M172.431 1055.87 Q168.82 1055.87 166.991 1059.43 Q165.186 1062.98 165.186 1070.11 Q165.186 1077.21 166.991 1080.78 Q168.82 1084.32 172.431 1084.32 Q176.065 1084.32 177.871 1080.78 Q179.7 1077.21 179.7 1070.11 Q179.7 1062.98 177.871 1059.43 Q176.065 1055.87 172.431 1055.87 M172.431 1052.17 Q178.241 1052.17 181.297 1056.77 Q184.376 1061.36 184.376 1070.11 Q184.376 1078.83 181.297 1083.44 Q178.241 1088.02 172.431 1088.02 Q166.621 1088.02 163.542 1083.44 Q160.487 1078.83 160.487 1070.11 Q160.487 1061.36 163.542 1056.77 Q166.621 1052.17 172.431 1052.17 Z" fill="#000000" fill-rule="evenodd" fill-opacity="1" /><path clip-path="url(#clip400)" d="M 0 0 M196.621 1083.42 L212.94 1083.42 L212.94 1087.35 L190.996 1087.35 L190.996 1083.42 Q193.658 1080.66 198.241 1076.03 Q202.848 1071.38 204.028 1070.04 Q206.274 1067.51 207.153 1065.78 Q208.056 1064.02 208.056 1062.33 Q208.056 1059.57 206.112 1057.84 Q204.19 1056.1 201.088 1056.1 Q198.889 1056.1 196.436 1056.86 Q194.005 1057.63 191.227 1059.18 L191.227 1054.46 Q194.051 1053.32 196.505 1052.74 Q198.959 1052.17 200.996 1052.17 Q206.366 1052.17 209.561 1054.85 Q212.755 1057.54 212.755 1062.03 Q212.755 1064.16 211.945 1066.08 Q211.158 1067.98 209.051 1070.57 Q208.473 1071.24 205.371 1074.46 Q202.269 1077.65 196.621 1083.42 Z" fill="#000000" fill-rule="evenodd" fill-opacity="1" /><path clip-path="url(#clip400)" d="M 0 0 M222.801 1052.79 L241.158 1052.79 L241.158 1056.73 L227.084 1056.73 L227.084 1065.2 Q228.102 1064.85 229.121 1064.69 Q230.139 1064.5 231.158 1064.5 Q236.945 1064.5 240.324 1067.67 Q243.704 1070.85 243.704 1076.26 Q243.704 1081.84 240.232 1084.94 Q236.76 1088.02 230.44 1088.02 Q228.264 1088.02 225.996 1087.65 Q223.75 1087.28 221.343 1086.54 L221.343 1081.84 Q223.426 1082.98 225.648 1083.53 Q227.871 1084.09 230.347 1084.09 Q234.352 1084.09 236.69 1081.98 Q239.028 1079.87 239.028 1076.26 Q239.028 1072.65 236.69 1070.54 Q234.352 1068.44 230.347 1068.44 Q228.473 1068.44 226.598 1068.86 Q224.746 1069.27 222.801 1070.15 L222.801 1052.79 Z" fill="#000000" fill-rule="evenodd" fill-opacity="1" /><path clip-path="url(#clip400)" d="M 0 0 M126.205 741.701 Q122.593 741.701 120.765 745.266 Q118.959 748.808 118.959 755.937 Q118.959 763.044 120.765 766.608 Q122.593 770.15 126.205 770.15 Q129.839 770.15 131.644 766.608 Q133.473 763.044 133.473 755.937 Q133.473 748.808 131.644 745.266 Q129.839 741.701 126.205 741.701 M126.205 737.997 Q132.015 737.997 135.07 742.604 Q138.149 747.187 138.149 755.937 Q138.149 764.664 135.07 769.27 Q132.015 773.854 126.205 773.854 Q120.394 773.854 117.316 769.27 Q114.26 764.664 114.26 755.937 Q114.26 747.187 117.316 742.604 Q120.394 737.997 126.205 737.997 Z" fill="#000000" fill-rule="evenodd" fill-opacity="1" /><path clip-path="url(#clip400)" d="M 0 0 M146.366 767.303 L151.251 767.303 L151.251 773.182 L146.366 773.182 L146.366 767.303 Z" fill="#000000" fill-rule="evenodd" fill-opacity="1" /><path clip-path="url(#clip400)" d="M 0 0 M171.436 741.701 Q167.825 741.701 165.996 745.266 Q164.19 748.808 164.19 755.937 Q164.19 763.044 165.996 766.608 Q167.825 770.15 171.436 770.15 Q175.07 770.15 176.876 766.608 Q178.704 763.044 178.704 755.937 Q178.704 748.808 176.876 745.266 Q175.07 741.701 171.436 741.701 M171.436 737.997 Q177.246 737.997 180.301 742.604 Q183.38 747.187 183.38 755.937 Q183.38 764.664 180.301 769.27 Q177.246 773.854 171.436 773.854 Q165.626 773.854 162.547 769.27 Q159.491 764.664 159.491 755.937 Q159.491 747.187 162.547 742.604 Q165.626 737.997 171.436 737.997 Z" fill="#000000" fill-rule="evenodd" fill-opacity="1" /><path clip-path="url(#clip400)" d="M 0 0 M191.644 738.622 L210 738.622 L210 742.558 L195.926 742.558 L195.926 751.03 Q196.945 750.683 197.963 750.521 Q198.982 750.335 200 750.335 Q205.787 750.335 209.167 753.507 Q212.547 756.678 212.547 762.095 Q212.547 767.673 209.074 770.775 Q205.602 773.854 199.283 773.854 Q197.107 773.854 194.838 773.483 Q192.593 773.113 190.186 772.372 L190.186 767.673 Q192.269 768.808 194.491 769.363 Q196.713 769.919 199.19 769.919 Q203.195 769.919 205.533 767.812 Q207.871 765.706 207.871 762.095 Q207.871 758.483 205.533 756.377 Q203.195 754.271 199.19 754.271 Q197.315 754.271 195.44 754.687 Q193.588 755.104 191.644 755.983 L191.644 738.622 Z" fill="#000000" fill-rule="evenodd" fill-opacity="1" /><path clip-path="url(#clip400)" d="M 0 0 M231.76 741.701 Q228.148 741.701 226.32 745.266 Q224.514 748.808 224.514 755.937 Q224.514 763.044 226.32 766.608 Q228.148 770.15 231.76 770.15 Q235.394 770.15 237.199 766.608 Q239.028 763.044 239.028 755.937 Q239.028 748.808 237.199 745.266 Q235.394 741.701 231.76 741.701 M231.76 737.997 Q237.57 737.997 240.625 742.604 Q243.704 747.187 243.704 755.937 Q243.704 764.664 240.625 769.27 Q237.57 773.854 231.76 773.854 Q225.949 773.854 222.871 769.27 Q219.815 764.664 219.815 755.937 Q219.815 747.187 222.871 742.604 Q225.949 737.997 231.76 737.997 Z" fill="#000000" fill-rule="evenodd" fill-opacity="1" /><path clip-path="url(#clip400)" d="M 0 0 M127.2 427.533 Q123.589 427.533 121.76 431.098 Q119.955 434.64 119.955 441.769 Q119.955 448.876 121.76 452.441 Q123.589 455.982 127.2 455.982 Q130.834 455.982 132.64 452.441 Q134.468 448.876 134.468 441.769 Q134.468 434.64 132.64 431.098 Q130.834 427.533 127.2 427.533 M127.2 423.83 Q133.01 423.83 136.066 428.436 Q139.144 433.019 139.144 441.769 Q139.144 450.496 136.066 455.103 Q133.01 459.686 127.2 459.686 Q121.39 459.686 118.311 455.103 Q115.256 450.496 115.256 441.769 Q115.256 433.019 118.311 428.436 Q121.39 423.83 127.2 423.83 Z" fill="#000000" fill-rule="evenodd" fill-opacity="1" /><path clip-path="url(#clip400)" d="M 0 0 M147.362 453.135 L152.246 453.135 L152.246 459.015 L147.362 459.015 L147.362 453.135 Z" fill="#000000" fill-rule="evenodd" fill-opacity="1" /><path clip-path="url(#clip400)" d="M 0 0 M172.431 427.533 Q168.82 427.533 166.991 431.098 Q165.186 434.64 165.186 441.769 Q165.186 448.876 166.991 452.441 Q168.82 455.982 172.431 455.982 Q176.065 455.982 177.871 452.441 Q179.7 448.876 179.7 441.769 Q179.7 434.64 177.871 431.098 Q176.065 427.533 172.431 427.533 M172.431 423.83 Q178.241 423.83 181.297 428.436 Q184.376 433.019 184.376 441.769 Q184.376 450.496 181.297 455.103 Q178.241 459.686 172.431 459.686 Q166.621 459.686 163.542 455.103 Q160.487 450.496 160.487 441.769 Q160.487 433.019 163.542 428.436 Q166.621 423.83 172.431 423.83 Z" fill="#000000" fill-rule="evenodd" fill-opacity="1" /><path clip-path="url(#clip400)" d="M 0 0 M191.413 424.455 L213.635 424.455 L213.635 426.445 L201.088 459.015 L196.204 459.015 L208.01 428.39 L191.413 428.39 L191.413 424.455 Z" fill="#000000" fill-rule="evenodd" fill-opacity="1" /><path clip-path="url(#clip400)" d="M 0 0 M222.801 424.455 L241.158 424.455 L241.158 428.39 L227.084 428.39 L227.084 436.862 Q228.102 436.515 229.121 436.353 Q230.139 436.167 231.158 436.167 Q236.945 436.167 240.324 439.339 Q243.704 442.51 243.704 447.927 Q243.704 453.505 240.232 456.607 Q236.76 459.686 230.44 459.686 Q228.264 459.686 225.996 459.316 Q223.75 458.945 221.343 458.204 L221.343 453.505 Q223.426 454.64 225.648 455.195 Q227.871 455.751 230.347 455.751 Q234.352 455.751 236.69 453.644 Q239.028 451.538 239.028 447.927 Q239.028 444.316 236.69 442.209 Q234.352 440.103 230.347 440.103 Q228.473 440.103 226.598 440.519 Q224.746 440.936 222.801 441.816 L222.801 424.455 Z" fill="#000000" fill-rule="evenodd" fill-opacity="1" /><path clip-path="url(#clip400)" d="M 0 0 M126.205 113.365 Q122.593 113.365 120.765 116.93 Q118.959 120.472 118.959 127.601 Q118.959 134.708 120.765 138.273 Q122.593 141.814 126.205 141.814 Q129.839 141.814 131.644 138.273 Q133.473 134.708 133.473 127.601 Q133.473 120.472 131.644 116.93 Q129.839 113.365 126.205 113.365 M126.205 109.662 Q132.015 109.662 135.07 114.268 Q138.149 118.851 138.149 127.601 Q138.149 136.328 135.07 140.935 Q132.015 145.518 126.205 145.518 Q120.394 145.518 117.316 140.935 Q114.26 136.328 114.26 127.601 Q114.26 118.851 117.316 114.268 Q120.394 109.662 126.205 109.662 Z" fill="#000000" fill-rule="evenodd" fill-opacity="1" /><path clip-path="url(#clip400)" d="M 0 0 M146.366 138.967 L151.251 138.967 L151.251 144.847 L146.366 144.847 L146.366 138.967 Z" fill="#000000" fill-rule="evenodd" fill-opacity="1" /><path clip-path="url(#clip400)" d="M 0 0 M162.246 140.912 L169.885 140.912 L169.885 114.546 L161.575 116.213 L161.575 111.953 L169.839 110.287 L174.514 110.287 L174.514 140.912 L182.153 140.912 L182.153 144.847 L162.246 144.847 L162.246 140.912 Z" fill="#000000" fill-rule="evenodd" fill-opacity="1" /><path clip-path="url(#clip400)" d="M 0 0 M201.598 113.365 Q197.987 113.365 196.158 116.93 Q194.352 120.472 194.352 127.601 Q194.352 134.708 196.158 138.273 Q197.987 141.814 201.598 141.814 Q205.232 141.814 207.037 138.273 Q208.866 134.708 208.866 127.601 Q208.866 120.472 207.037 116.93 Q205.232 113.365 201.598 113.365 M201.598 109.662 Q207.408 109.662 210.463 114.268 Q213.542 118.851 213.542 127.601 Q213.542 136.328 210.463 140.935 Q207.408 145.518 201.598 145.518 Q195.787 145.518 192.709 140.935 Q189.653 136.328 189.653 127.601 Q189.653 118.851 192.709 114.268 Q195.787 109.662 201.598 109.662 Z" fill="#000000" fill-rule="evenodd" fill-opacity="1" /><path clip-path="url(#clip400)" d="M 0 0 M231.76 113.365 Q228.148 113.365 226.32 116.93 Q224.514 120.472 224.514 127.601 Q224.514 134.708 226.32 138.273 Q228.148 141.814 231.76 141.814 Q235.394 141.814 237.199 138.273 Q239.028 134.708 239.028 127.601 Q239.028 120.472 237.199 116.93 Q235.394 113.365 231.76 113.365 M231.76 109.662 Q237.57 109.662 240.625 114.268 Q243.704 118.851 243.704 127.601 Q243.704 136.328 240.625 140.935 Q237.57 145.518 231.76 145.518 Q225.949 145.518 222.871 140.935 Q219.815 136.328 219.815 127.601 Q219.815 118.851 222.871 114.268 Q225.949 109.662 231.76 109.662 Z" fill="#000000" fill-rule="evenodd" fill-opacity="1" /><path clip-path="url(#clip400)" d="M 0 0 M21.7677 781.268 L39.6235 781.268 L39.6235 773.183 Q39.6235 768.696 37.3 766.245 Q34.9765 763.794 30.6797 763.794 Q26.4147 763.794 24.0912 766.245 Q21.7677 768.696 21.7677 773.183 L21.7677 781.268 M16.4842 787.697 L16.4842 773.183 Q16.4842 765.194 20.1126 761.12 Q23.7092 757.015 30.6797 757.015 Q37.7138 757.015 41.3104 761.12 Q44.907 765.194 44.907 773.183 L44.907 781.268 L64.0042 781.268 L64.0042 787.697 L16.4842 787.697 Z" fill="#000000" fill-rule="evenodd" fill-opacity="1" /><path clip-path="url(#clip400)" d="M 0 0 M14.5426 734.575 Q21.8632 738.84 29.0246 740.909 Q36.186 742.978 43.5384 742.978 Q50.8908 742.978 58.1159 740.909 Q65.3091 738.809 72.5979 734.575 L72.5979 739.668 Q65.1182 744.442 57.8931 746.829 Q50.668 749.185 43.5384 749.185 Q36.4406 749.185 29.2474 746.829 Q22.0542 744.474 14.5426 739.668 L14.5426 734.575 Z" fill="#000000" fill-rule="evenodd" fill-opacity="1" /><path clip-path="url(#clip400)" d="M 0 0 M33.8307 702.556 Q33.2578 703.543 33.0032 704.72 Q32.7167 705.866 32.7167 707.267 Q32.7167 712.232 35.9632 714.905 Q39.1779 717.547 45.2253 717.547 L64.0042 717.547 L64.0042 723.435 L28.3562 723.435 L28.3562 717.547 L33.8944 717.547 Q30.6479 715.701 29.0883 712.741 Q27.4968 709.781 27.4968 705.548 Q27.4968 704.943 27.5923 704.211 Q27.656 703.479 27.8151 702.588 L33.8307 702.556 Z" fill="#000000" fill-rule="evenodd" fill-opacity="1" /><path clip-path="url(#clip400)" d="M 0 0 M14.5426 697.336 L14.5426 692.243 Q22.0542 687.469 29.2474 685.114 Q36.4406 682.727 43.5384 682.727 Q50.668 682.727 57.8931 685.114 Q65.1182 687.469 72.5979 692.243 L72.5979 697.336 Q65.3091 693.103 58.1159 691.034 Q50.8908 688.933 43.5384 688.933 Q36.186 688.933 29.0246 691.034 Q21.8632 693.103 14.5426 697.336 Z" fill="#000000" fill-rule="evenodd" fill-opacity="1" /><path clip-path="url(#clip402)" d="
M394.269 1384.11 L394.269 1384.24 L450.162 1384.24 L450.162 1384.11 L394.269 1384.11 L394.269 1384.11  Z
  " fill="#009af9" fill-rule="evenodd" fill-opacity="1"/>
<polyline clip-path="url(#clip402)" style="stroke:#009af9; stroke-width:4; stroke-opacity:1; fill:none" points="
  394.269,1384.11 394.269,1384.24 450.162,1384.24 450.162,1384.11 394.269,1384.11 
  "/>
<path clip-path="url(#clip402)" d="
M450.162 1384.11 L450.162 1384.24 L506.055 1384.24 L506.055 1384.11 L450.162 1384.11 L450.162 1384.11  Z
  " fill="#009af9" fill-rule="evenodd" fill-opacity="1"/>
<polyline clip-path="url(#clip402)" style="stroke:#009af9; stroke-width:4; stroke-opacity:1; fill:none" points="
  450.162,1384.11 450.162,1384.24 506.055,1384.24 506.055,1384.11 450.162,1384.11 
  "/>
<path clip-path="url(#clip402)" d="
M506.055 1382.1 L506.055 1384.24 L561.949 1384.24 L561.949 1382.1 L506.055 1382.1 L506.055 1382.1  Z
  " fill="#009af9" fill-rule="evenodd" fill-opacity="1"/>
<polyline clip-path="url(#clip402)" style="stroke:#009af9; stroke-width:4; stroke-opacity:1; fill:none" points="
  506.055,1382.1 506.055,1384.24 561.949,1384.24 561.949,1382.1 506.055,1382.1 
  "/>
<path clip-path="url(#clip402)" d="
M561.949 1376.69 L561.949 1384.24 L617.842 1384.24 L617.842 1376.69 L561.949 1376.69 L561.949 1376.69  Z
  " fill="#009af9" fill-rule="evenodd" fill-opacity="1"/>
<polyline clip-path="url(#clip402)" style="stroke:#009af9; stroke-width:4; stroke-opacity:1; fill:none" points="
  561.949,1376.69 561.949,1384.24 617.842,1384.24 617.842,1376.69 561.949,1376.69 
  "/>
<path clip-path="url(#clip402)" d="
M617.842 1359.71 L617.842 1384.24 L673.735 1384.24 L673.735 1359.71 L617.842 1359.71 L617.842 1359.71  Z
  " fill="#009af9" fill-rule="evenodd" fill-opacity="1"/>
<polyline clip-path="url(#clip402)" style="stroke:#009af9; stroke-width:4; stroke-opacity:1; fill:none" points="
  617.842,1359.71 617.842,1384.24 673.735,1384.24 673.735,1359.71 617.842,1359.71 
  "/>
<path clip-path="url(#clip402)" d="
M673.735 1320.71 L673.735 1384.24 L729.629 1384.24 L729.629 1320.71 L673.735 1320.71 L673.735 1320.71  Z
  " fill="#009af9" fill-rule="evenodd" fill-opacity="1"/>
<polyline clip-path="url(#clip402)" style="stroke:#009af9; stroke-width:4; stroke-opacity:1; fill:none" points="
  673.735,1320.71 673.735,1384.24 729.629,1384.24 729.629,1320.71 673.735,1320.71 
  "/>
<path clip-path="url(#clip402)" d="
M729.629 1252.78 L729.629 1384.24 L785.522 1384.24 L785.522 1252.78 L729.629 1252.78 L729.629 1252.78  Z
  " fill="#009af9" fill-rule="evenodd" fill-opacity="1"/>
<polyline clip-path="url(#clip402)" style="stroke:#009af9; stroke-width:4; stroke-opacity:1; fill:none" points="
  729.629,1252.78 729.629,1384.24 785.522,1384.24 785.522,1252.78 729.629,1252.78 
  "/>
<path clip-path="url(#clip402)" d="
M785.522 1136.8 L785.522 1384.24 L841.416 1384.24 L841.416 1136.8 L785.522 1136.8 L785.522 1136.8  Z
  " fill="#009af9" fill-rule="evenodd" fill-opacity="1"/>
<polyline clip-path="url(#clip402)" style="stroke:#009af9; stroke-width:4; stroke-opacity:1; fill:none" points="
  785.522,1136.8 785.522,1384.24 841.416,1384.24 841.416,1136.8 785.522,1136.8 
  "/>
<path clip-path="url(#clip402)" d="
M841.416 969.243 L841.416 1384.24 L897.309 1384.24 L897.309 969.243 L841.416 969.243 L841.416 969.243  Z
  " fill="#009af9" fill-rule="evenodd" fill-opacity="1"/>
<polyline clip-path="url(#clip402)" style="stroke:#009af9; stroke-width:4; stroke-opacity:1; fill:none" points="
  841.416,969.243 841.416,1384.24 897.309,1384.24 897.309,969.243 841.416,969.243 
  "/>
<path clip-path="url(#clip402)" d="
M897.309 786.338 L897.309 1384.24 L953.202 1384.24 L953.202 786.338 L897.309 786.338 L897.309 786.338  Z
  " fill="#009af9" fill-rule="evenodd" fill-opacity="1"/>
<polyline clip-path="url(#clip402)" style="stroke:#009af9; stroke-width:4; stroke-opacity:1; fill:none" points="
  897.309,786.338 897.309,1384.24 953.202,1384.24 953.202,786.338 897.309,786.338 
  "/>
<path clip-path="url(#clip402)" d="
M953.202 525.944 L953.202 1384.24 L1009.1 1384.24 L1009.1 525.944 L953.202 525.944 L953.202 525.944  Z
  " fill="#009af9" fill-rule="evenodd" fill-opacity="1"/>
<polyline clip-path="url(#clip402)" style="stroke:#009af9; stroke-width:4; stroke-opacity:1; fill:none" points="
  953.202,525.944 953.202,1384.24 1009.1,1384.24 1009.1,525.944 953.202,525.944 
  "/>
<path clip-path="url(#clip402)" d="
M1009.1 331.089 L1009.1 1384.24 L1064.99 1384.24 L1064.99 331.089 L1009.1 331.089 L1009.1 331.089  Z
  " fill="#009af9" fill-rule="evenodd" fill-opacity="1"/>
<polyline clip-path="url(#clip402)" style="stroke:#009af9; stroke-width:4; stroke-opacity:1; fill:none" points="
  1009.1,331.089 1009.1,1384.24 1064.99,1384.24 1064.99,331.089 1009.1,331.089 
  "/>
<path clip-path="url(#clip402)" d="
M1064.99 185.923 L1064.99 1384.24 L1120.88 1384.24 L1120.88 185.923 L1064.99 185.923 L1064.99 185.923  Z
  " fill="#009af9" fill-rule="evenodd" fill-opacity="1"/>
<polyline clip-path="url(#clip402)" style="stroke:#009af9; stroke-width:4; stroke-opacity:1; fill:none" points="
  1064.99,185.923 1064.99,1384.24 1120.88,1384.24 1120.88,185.923 1064.99,185.923 
  "/>
<path clip-path="url(#clip402)" d="
M1120.88 107.301 L1120.88 1384.24 L1176.78 1384.24 L1176.78 107.301 L1120.88 107.301 L1120.88 107.301  Z
  " fill="#009af9" fill-rule="evenodd" fill-opacity="1"/>
<polyline clip-path="url(#clip402)" style="stroke:#009af9; stroke-width:4; stroke-opacity:1; fill:none" points="
  1120.88,107.301 1120.88,1384.24 1176.78,1384.24 1176.78,107.301 1120.88,107.301 
  "/>
<path clip-path="url(#clip402)" d="
M1176.78 135.102 L1176.78 1384.24 L1232.67 1384.24 L1232.67 135.102 L1176.78 135.102 L1176.78 135.102  Z
  " fill="#009af9" fill-rule="evenodd" fill-opacity="1"/>
<polyline clip-path="url(#clip402)" style="stroke:#009af9; stroke-width:4; stroke-opacity:1; fill:none" points="
  1176.78,135.102 1176.78,1384.24 1232.67,1384.24 1232.67,135.102 1176.78,135.102 
  "/>
<path clip-path="url(#clip402)" d="
M1232.67 172.211 L1232.67 1384.24 L1288.56 1384.24 L1288.56 172.211 L1232.67 172.211 L1232.67 172.211  Z
  " fill="#009af9" fill-rule="evenodd" fill-opacity="1"/>
<polyline clip-path="url(#clip402)" style="stroke:#009af9; stroke-width:4; stroke-opacity:1; fill:none" points="
  1232.67,172.211 1232.67,1384.24 1288.56,1384.24 1288.56,172.211 1232.67,172.211 
  "/>
<path clip-path="url(#clip402)" d="
M1288.56 315.742 L1288.56 1384.24 L1344.46 1384.24 L1344.46 315.742 L1288.56 315.742 L1288.56 315.742  Z
  " fill="#009af9" fill-rule="evenodd" fill-opacity="1"/>
<polyline clip-path="url(#clip402)" style="stroke:#009af9; stroke-width:4; stroke-opacity:1; fill:none" points="
  1288.56,315.742 1288.56,1384.24 1344.46,1384.24 1344.46,315.742 1288.56,315.742 
  "/>
<path clip-path="url(#clip402)" d="
M1344.46 501.918 L1344.46 1384.24 L1400.35 1384.24 L1400.35 501.918 L1344.46 501.918 L1344.46 501.918  Z
  " fill="#009af9" fill-rule="evenodd" fill-opacity="1"/>
<polyline clip-path="url(#clip402)" style="stroke:#009af9; stroke-width:4; stroke-opacity:1; fill:none" points="
  1344.46,501.918 1344.46,1384.24 1400.35,1384.24 1400.35,501.918 1344.46,501.918 
  "/>
<path clip-path="url(#clip402)" d="
M1400.35 686.584 L1400.35 1384.24 L1456.24 1384.24 L1456.24 686.584 L1400.35 686.584 L1400.35 686.584  Z
  " fill="#009af9" fill-rule="evenodd" fill-opacity="1"/>
<polyline clip-path="url(#clip402)" style="stroke:#009af9; stroke-width:4; stroke-opacity:1; fill:none" points="
  1400.35,686.584 1400.35,1384.24 1456.24,1384.24 1456.24,686.584 1400.35,686.584 
  "/>
<path clip-path="url(#clip402)" d="
M1456.24 864.457 L1456.24 1384.24 L1512.14 1384.24 L1512.14 864.457 L1456.24 864.457 L1456.24 864.457  Z
  " fill="#009af9" fill-rule="evenodd" fill-opacity="1"/>
<polyline clip-path="url(#clip402)" style="stroke:#009af9; stroke-width:4; stroke-opacity:1; fill:none" points="
  1456.24,864.457 1456.24,1384.24 1512.14,1384.24 1512.14,864.457 1456.24,864.457 
  "/>
<path clip-path="url(#clip402)" d="
M1512.14 998.427 L1512.14 1384.24 L1568.03 1384.24 L1568.03 998.427 L1512.14 998.427 L1512.14 998.427  Z
  " fill="#009af9" fill-rule="evenodd" fill-opacity="1"/>
<polyline clip-path="url(#clip402)" style="stroke:#009af9; stroke-width:4; stroke-opacity:1; fill:none" points="
  1512.14,998.427 1512.14,1384.24 1568.03,1384.24 1568.03,998.427 1512.14,998.427 
  "/>
<path clip-path="url(#clip402)" d="
M1568.03 1119.69 L1568.03 1384.24 L1623.92 1384.24 L1623.92 1119.69 L1568.03 1119.69 L1568.03 1119.69  Z
  " fill="#009af9" fill-rule="evenodd" fill-opacity="1"/>
<polyline clip-path="url(#clip402)" style="stroke:#009af9; stroke-width:4; stroke-opacity:1; fill:none" points="
  1568.03,1119.69 1568.03,1384.24 1623.92,1384.24 1623.92,1119.69 1568.03,1119.69 
  "/>
<path clip-path="url(#clip402)" d="
M1623.92 1215.8 L1623.92 1384.24 L1679.82 1384.24 L1679.82 1215.8 L1623.92 1215.8 L1623.92 1215.8  Z
  " fill="#009af9" fill-rule="evenodd" fill-opacity="1"/>
<polyline clip-path="url(#clip402)" style="stroke:#009af9; stroke-width:4; stroke-opacity:1; fill:none" points="
  1623.92,1215.8 1623.92,1384.24 1679.82,1384.24 1679.82,1215.8 1623.92,1215.8 
  "/>
<path clip-path="url(#clip402)" d="
M1679.82 1280.08 L1679.82 1384.24 L1735.71 1384.24 L1735.71 1280.08 L1679.82 1280.08 L1679.82 1280.08  Z
  " fill="#009af9" fill-rule="evenodd" fill-opacity="1"/>
<polyline clip-path="url(#clip402)" style="stroke:#009af9; stroke-width:4; stroke-opacity:1; fill:none" points="
  1679.82,1280.08 1679.82,1384.24 1735.71,1384.24 1735.71,1280.08 1679.82,1280.08 
  "/>
<path clip-path="url(#clip402)" d="
M1735.71 1325.62 L1735.71 1384.24 L1791.6 1384.24 L1791.6 1325.62 L1735.71 1325.62 L1735.71 1325.62  Z
  " fill="#009af9" fill-rule="evenodd" fill-opacity="1"/>
<polyline clip-path="url(#clip402)" style="stroke:#009af9; stroke-width:4; stroke-opacity:1; fill:none" points="
  1735.71,1325.62 1735.71,1384.24 1791.6,1384.24 1791.6,1325.62 1735.71,1325.62 
  "/>
<path clip-path="url(#clip402)" d="
M1791.6 1347.38 L1791.6 1384.24 L1847.5 1384.24 L1847.5 1347.38 L1791.6 1347.38 L1791.6 1347.38  Z
  " fill="#009af9" fill-rule="evenodd" fill-opacity="1"/>
<polyline clip-path="url(#clip402)" style="stroke:#009af9; stroke-width:4; stroke-opacity:1; fill:none" points="
  1791.6,1347.38 1791.6,1384.24 1847.5,1384.24 1847.5,1347.38 1791.6,1347.38 
  "/>
<path clip-path="url(#clip402)" d="
M1847.5 1364.49 L1847.5 1384.24 L1903.39 1384.24 L1903.39 1364.49 L1847.5 1364.49 L1847.5 1364.49  Z
  " fill="#009af9" fill-rule="evenodd" fill-opacity="1"/>
<polyline clip-path="url(#clip402)" style="stroke:#009af9; stroke-width:4; stroke-opacity:1; fill:none" points="
  1847.5,1364.49 1847.5,1384.24 1903.39,1384.24 1903.39,1364.49 1847.5,1364.49 
  "/>
<path clip-path="url(#clip402)" d="
M1903.39 1372.54 L1903.39 1384.24 L1959.28 1384.24 L1959.28 1372.54 L1903.39 1372.54 L1903.39 1372.54  Z
  " fill="#009af9" fill-rule="evenodd" fill-opacity="1"/>
<polyline clip-path="url(#clip402)" style="stroke:#009af9; stroke-width:4; stroke-opacity:1; fill:none" points="
  1903.39,1372.54 1903.39,1384.24 1959.28,1384.24 1959.28,1372.54 1903.39,1372.54 
  "/>
<path clip-path="url(#clip402)" d="
M1959.28 1378.83 L1959.28 1384.24 L2015.18 1384.24 L2015.18 1378.83 L1959.28 1378.83 L1959.28 1378.83  Z
  " fill="#009af9" fill-rule="evenodd" fill-opacity="1"/>
<polyline clip-path="url(#clip402)" style="stroke:#009af9; stroke-width:4; stroke-opacity:1; fill:none" points="
  1959.28,1378.83 1959.28,1384.24 2015.18,1384.24 2015.18,1378.83 1959.28,1378.83 
  "/>
<path clip-path="url(#clip402)" d="
M2015.18 1381.6 L2015.18 1384.24 L2071.07 1384.24 L2071.07 1381.6 L2015.18 1381.6 L2015.18 1381.6  Z
  " fill="#009af9" fill-rule="evenodd" fill-opacity="1"/>
<polyline clip-path="url(#clip402)" style="stroke:#009af9; stroke-width:4; stroke-opacity:1; fill:none" points="
  2015.18,1381.6 2015.18,1384.24 2071.07,1384.24 2071.07,1381.6 2015.18,1381.6 
  "/>
<path clip-path="url(#clip402)" d="
M2071.07 1382.73 L2071.07 1384.24 L2126.96 1384.24 L2126.96 1382.73 L2071.07 1382.73 L2071.07 1382.73  Z
  " fill="#009af9" fill-rule="evenodd" fill-opacity="1"/>
<polyline clip-path="url(#clip402)" style="stroke:#009af9; stroke-width:4; stroke-opacity:1; fill:none" points="
  2071.07,1382.73 2071.07,1384.24 2126.96,1384.24 2126.96,1382.73 2071.07,1382.73 
  "/>
<path clip-path="url(#clip402)" d="
M2126.96 1383.11 L2126.96 1384.24 L2182.86 1384.24 L2182.86 1383.11 L2126.96 1383.11 L2126.96 1383.11  Z
  " fill="#009af9" fill-rule="evenodd" fill-opacity="1"/>
<polyline clip-path="url(#clip402)" style="stroke:#009af9; stroke-width:4; stroke-opacity:1; fill:none" points="
  2126.96,1383.11 2126.96,1384.24 2182.86,1384.24 2182.86,1383.11 2126.96,1383.11 
  "/>
<path clip-path="url(#clip402)" d="
M2182.86 1383.99 L2182.86 1384.24 L2238.75 1384.24 L2238.75 1383.99 L2182.86 1383.99 L2182.86 1383.99  Z
  " fill="#009af9" fill-rule="evenodd" fill-opacity="1"/>
<polyline clip-path="url(#clip402)" style="stroke:#009af9; stroke-width:4; stroke-opacity:1; fill:none" points="
  2182.86,1383.99 2182.86,1384.24 2238.75,1384.24 2238.75,1383.99 2182.86,1383.99 
  "/>
<polyline clip-path="url(#clip402)" style="stroke:#e26f46; stroke-width:12; stroke-opacity:1; fill:none" points="
  338.375,1383.52 343.965,1383.45 349.554,1383.36 355.143,1383.27 360.733,1383.18 366.322,1383.07 371.911,1382.95 377.501,1382.82 383.09,1382.68 388.679,1382.52 
  394.269,1382.36 399.858,1382.17 405.447,1381.97 411.037,1381.76 416.626,1381.52 422.215,1381.26 427.805,1380.98 433.394,1380.68 438.983,1380.35 444.573,1379.99 
  450.162,1379.61 455.751,1379.19 461.341,1378.74 466.93,1378.25 472.519,1377.72 478.109,1377.16 483.698,1376.54 489.287,1375.88 494.877,1375.17 500.466,1374.41 
  506.055,1373.59 511.645,1372.7 517.234,1371.75 522.823,1370.74 528.413,1369.65 534.002,1368.48 539.591,1367.23 545.181,1365.89 550.77,1364.46 556.359,1362.94 
  561.949,1361.31 567.538,1359.57 573.127,1357.72 578.717,1355.75 584.306,1353.65 589.895,1351.42 595.485,1349.06 601.074,1346.54 606.663,1343.88 612.253,1341.05 
  617.842,1338.06 623.431,1334.89 629.021,1331.54 634.61,1328 640.199,1324.27 645.789,1320.33 651.378,1316.17 656.967,1311.79 662.557,1307.18 668.146,1302.34 
  673.735,1297.24 679.325,1291.9 684.914,1286.28 690.503,1280.4 696.093,1274.24 701.682,1267.78 707.272,1261.03 712.861,1253.98 718.45,1246.62 724.04,1238.93 
  729.629,1230.92 735.218,1222.58 740.808,1213.89 746.397,1204.86 751.986,1195.47 757.576,1185.73 763.165,1175.62 768.754,1165.14 774.344,1154.29 779.933,1143.07 
  785.522,1131.46 791.112,1119.47 796.701,1107.1 802.29,1094.35 807.88,1081.2 813.469,1067.68 819.058,1053.77 824.648,1039.48 830.237,1024.81 835.826,1009.77 
  841.416,994.357 847.005,978.58 852.594,962.447 858.184,945.965 863.773,929.142 869.362,911.988 874.952,894.514 880.541,876.732 886.13,858.654 891.72,840.296 
  897.309,821.671 902.898,802.797 908.488,783.69 914.077,764.368 919.666,744.851 925.256,725.159 930.845,705.314 936.434,685.337 942.024,665.251 947.613,645.082 
  953.202,624.852 958.792,604.59 964.381,584.32 969.97,564.07 975.56,543.867 981.149,523.741 986.738,503.721 992.328,483.834 997.917,464.113 1003.51,444.586 
  1009.1,425.284 1014.69,406.238 1020.27,387.478 1025.86,369.036 1031.45,350.941 1037.04,333.225 1042.63,315.917 1048.22,299.049 1053.81,282.648 1059.4,266.745 
  1064.99,251.368 1070.58,236.544 1076.17,222.302 1081.76,208.666 1087.35,195.664 1092.94,183.318 1098.53,171.653 1104.11,160.69 1109.7,150.452 1115.29,140.956 
  1120.88,132.223 1126.47,124.268 1132.06,117.108 1137.65,110.756 1143.24,105.226 1148.83,100.528 1154.42,96.6708 1160.01,93.663 1165.6,91.5102 1171.19,90.2169 
  1176.78,89.7854 1182.37,90.2169 1187.95,91.5102 1193.54,93.663 1199.13,96.6708 1204.72,100.528 1210.31,105.226 1215.9,110.756 1221.49,117.108 1227.08,124.268 
  1232.67,132.223 1238.26,140.956 1243.85,150.452 1249.44,160.69 1255.03,171.653 1260.62,183.318 1266.21,195.664 1271.79,208.666 1277.38,222.302 1282.97,236.544 
  1288.56,251.368 1294.15,266.745 1299.74,282.648 1305.33,299.049 1310.92,315.917 1316.51,333.225 1322.1,350.941 1327.69,369.036 1333.28,387.478 1338.87,406.238 
  1344.46,425.284 1350.05,444.586 1355.63,464.113 1361.22,483.834 1366.81,503.721 1372.4,523.741 1377.99,543.867 1383.58,564.07 1389.17,584.32 1394.76,604.59 
  1400.35,624.852 1405.94,645.082 1411.53,665.251 1417.12,685.337 1422.71,705.314 1428.3,725.159 1433.89,744.851 1439.47,764.368 1445.06,783.69 1450.65,802.797 
  1456.24,821.671 1461.83,840.296 1467.42,858.654 1473.01,876.732 1478.6,894.514 1484.19,911.988 1489.78,929.142 1495.37,945.965 1500.96,962.447 1506.55,978.58 
  1512.14,994.357 1517.73,1009.77 1523.31,1024.81 1528.9,1039.48 1534.49,1053.77 1540.08,1067.68 1545.67,1081.2 1551.26,1094.35 1556.85,1107.1 1562.44,1119.47 
  1568.03,1131.46 1573.62,1143.07 1579.21,1154.29 1584.8,1165.14 1590.39,1175.62 1595.98,1185.73 1601.57,1195.47 1607.15,1204.86 1612.74,1213.89 1618.33,1222.58 
  1623.92,1230.92 1629.51,1238.93 1635.1,1246.62 1640.69,1253.98 1646.28,1261.03 1651.87,1267.78 1657.46,1274.24 1663.05,1280.4 1668.64,1286.28 1674.23,1291.9 
  1679.82,1297.24 1685.41,1302.34 1691,1307.18 1696.58,1311.79 1702.17,1316.17 1707.76,1320.33 1713.35,1324.27 1718.94,1328 1724.53,1331.54 1730.12,1334.89 
  1735.71,1338.06 1741.3,1341.05 1746.89,1343.88 1752.48,1346.54 1758.07,1349.06 1763.66,1351.42 1769.25,1353.65 1774.84,1355.75 1780.42,1357.72 1786.01,1359.57 
  1791.6,1361.31 1797.19,1362.94 1802.78,1364.46 1808.37,1365.89 1813.96,1367.23 1819.55,1368.48 1825.14,1369.65 1830.73,1370.74 1836.32,1371.75 1841.91,1372.7 
  1847.5,1373.59 1853.09,1374.41 1858.68,1375.17 1864.26,1375.88 1869.85,1376.54 1875.44,1377.16 1881.03,1377.72 1886.62,1378.25 1892.21,1378.74 1897.8,1379.19 
  1903.39,1379.61 1908.98,1379.99 1914.57,1380.35 1920.16,1380.68 1925.75,1380.98 1931.34,1381.26 1936.93,1381.52 1942.52,1381.76 1948.1,1381.97 1953.69,1382.17 
  1959.28,1382.36 1964.87,1382.52 1970.46,1382.68 1976.05,1382.82 1981.64,1382.95 1987.23,1383.07 1992.82,1383.18 1998.41,1383.27 2004,1383.36 2009.59,1383.45 
  2015.18,1383.52 2020.77,1383.59 2026.36,1383.65 2031.94,1383.71 2037.53,1383.76 2043.12,1383.81 2048.71,1383.85 2054.3,1383.89 2059.89,1383.92 2065.48,1383.95 
  2071.07,1383.98 2076.66,1384.01 2082.25,1384.03 2087.84,1384.05 2093.43,1384.07 2099.02,1384.09 2104.61,1384.11 2110.2,1384.12 2115.78,1384.13 2121.37,1384.14 
  2126.96,1384.15 2132.55,1384.16 2138.14,1384.17 2143.73,1384.18 2149.32,1384.18 2154.91,1384.19 2160.5,1384.2 2166.09,1384.2 2171.68,1384.2 2177.27,1384.21 
  2182.86,1384.21 
  "/>
<polyline clip-path="url(#clip402)" style="stroke:#3da44d; stroke-width:12; stroke-opacity:1; fill:none" points="
  338.375,1384.23 343.965,1384.23 349.554,1384.23 355.143,1384.23 360.733,1384.23 366.322,1384.22 371.911,1384.22 377.501,1384.21 383.09,1384.2 388.679,1384.19 
  394.269,1384.18 399.858,1384.17 405.447,1384.15 411.037,1384.13 416.626,1384.1 422.215,1384.07 427.805,1384.03 433.394,1383.99 438.983,1383.94 444.573,1383.88 
  450.162,1383.81 455.751,1383.72 461.341,1383.62 466.93,1383.51 472.519,1383.38 478.109,1383.23 483.698,1383.06 489.287,1382.86 494.877,1382.63 500.466,1382.37 
  506.055,1382.08 511.645,1381.74 517.234,1381.36 522.823,1380.94 528.413,1380.46 534.002,1379.92 539.591,1379.32 545.181,1378.64 550.77,1377.89 556.359,1377.06 
  561.949,1376.13 567.538,1375.1 573.127,1373.97 578.717,1372.72 584.306,1371.35 589.895,1369.84 595.485,1368.18 601.074,1366.38 606.663,1364.4 612.253,1362.25 
  617.842,1359.91 623.431,1357.37 629.021,1354.62 634.61,1351.64 640.199,1348.43 645.789,1344.97 651.378,1341.24 656.967,1337.23 662.557,1332.94 668.146,1328.34 
  673.735,1323.42 679.325,1318.17 684.914,1312.58 690.503,1306.63 696.093,1300.31 701.682,1293.61 707.272,1286.51 712.861,1279 718.45,1271.08 724.04,1262.72 
  729.629,1253.92 735.218,1244.67 740.808,1234.96 746.397,1224.78 751.986,1214.12 757.576,1202.98 763.165,1191.35 768.754,1179.23 774.344,1166.62 779.933,1153.5 
  785.522,1139.89 791.112,1125.77 796.701,1111.16 802.29,1096.05 807.88,1080.46 813.469,1064.37 819.058,1047.81 824.648,1030.78 830.237,1013.29 835.826,995.357 
  841.416,976.987 847.005,958.197 852.594,939.003 858.184,919.424 863.773,899.479 869.362,879.188 874.952,858.572 880.541,837.657 886.13,816.465 891.72,795.024 
  897.309,773.361 902.898,751.503 908.488,729.481 914.077,707.325 919.666,685.066 925.256,662.737 930.845,640.372 936.434,618.003 942.024,595.665 947.613,573.393 
  953.202,551.224 958.792,529.191 964.381,507.331 969.97,485.681 975.56,464.275 981.149,443.15 986.738,422.342 992.328,401.885 997.917,381.814 1003.51,362.165 
  1009.1,342.97 1014.69,324.262 1020.27,306.074 1025.86,288.436 1031.45,271.379 1037.04,254.933 1042.63,239.123 1048.22,223.978 1053.81,209.523 1059.4,195.781 
  1064.99,182.775 1070.58,170.525 1076.17,159.051 1081.76,148.371 1087.35,138.501 1092.94,129.454 1098.53,121.244 1104.11,113.881 1109.7,107.374 1115.29,101.73 
  1120.88,96.9558 1126.47,93.054 1132.06,90.0268 1137.65,87.8744 1143.24,86.5951 1148.83,86.1857 1154.42,86.6412 1160.01,87.955 1165.6,90.1188 1171.19,93.1229 
  1176.78,96.9558 1182.37,101.605 1187.95,107.056 1193.54,113.293 1199.13,120.3 1204.72,128.058 1210.31,136.549 1215.9,145.751 1221.49,155.644 1227.08,166.205 
  1232.67,177.411 1238.26,189.238 1243.85,201.662 1249.44,214.657 1255.03,228.197 1260.62,242.257 1266.21,256.808 1271.79,271.825 1277.38,287.279 1282.97,303.144 
  1288.56,319.391 1294.15,335.993 1299.74,352.922 1305.33,370.15 1310.92,387.651 1316.51,405.397 1322.1,423.36 1327.69,441.515 1333.28,459.834 1338.87,478.293 
  1344.46,496.865 1350.05,515.526 1355.63,534.252 1361.22,553.019 1366.81,571.803 1372.4,590.583 1377.99,609.337 1383.58,628.043 1389.17,646.682 1394.76,665.234 
  1400.35,683.681 1405.94,702.004 1411.53,720.187 1417.12,738.213 1422.71,756.067 1428.3,773.734 1433.89,791.201 1439.47,808.455 1445.06,825.483 1450.65,842.275 
  1456.24,858.82 1461.83,875.108 1467.42,891.131 1473.01,906.879 1478.6,922.347 1484.19,937.528 1489.78,952.415 1495.37,967.004 1500.96,981.29 1506.55,995.27 
  1512.14,1008.94 1517.73,1022.3 1523.31,1035.34 1528.9,1048.07 1534.49,1060.48 1540.08,1072.58 1545.67,1084.36 1551.26,1095.83 1556.85,1106.98 1562.44,1117.82 
  1568.03,1128.35 1573.62,1138.58 1579.21,1148.5 1584.8,1158.12 1590.39,1167.44 1595.98,1176.47 1601.57,1185.2 1607.15,1193.66 1612.74,1201.83 1618.33,1209.73 
  1623.92,1217.36 1629.51,1224.72 1635.1,1231.82 1640.69,1238.67 1646.28,1245.26 1651.87,1251.62 1657.46,1257.73 1663.05,1263.62 1668.64,1269.28 1674.23,1274.71 
  1679.82,1279.94 1685.41,1284.95 1691,1289.76 1696.58,1294.38 1702.17,1298.8 1707.76,1303.04 1713.35,1307.1 1718.94,1310.99 1724.53,1314.7 1730.12,1318.26 
  1735.71,1321.66 1741.3,1324.9 1746.89,1328 1752.48,1330.96 1758.07,1333.78 1763.66,1336.48 1769.25,1339.04 1774.84,1341.48 1780.42,1343.81 1786.01,1346.03 
  1791.6,1348.13 1797.19,1350.14 1802.78,1352.04 1808.37,1353.85 1813.96,1355.57 1819.55,1357.2 1825.14,1358.75 1830.73,1360.22 1836.32,1361.61 1841.91,1362.93 
  1847.5,1364.18 1853.09,1365.36 1858.68,1366.48 1864.26,1367.54 1869.85,1368.54 1875.44,1369.49 1881.03,1370.39 1886.62,1371.23 1892.21,1372.03 1897.8,1372.78 
  1903.39,1373.49 1908.98,1374.16 1914.57,1374.79 1920.16,1375.39 1925.75,1375.95 1931.34,1376.48 1936.93,1376.97 1942.52,1377.44 1948.1,1377.88 1953.69,1378.29 
  1959.28,1378.68 1964.87,1379.04 1970.46,1379.39 1976.05,1379.71 1981.64,1380.01 1987.23,1380.29 1992.82,1380.56 1998.41,1380.8 2004,1381.04 2009.59,1381.26 
  2015.18,1381.46 2020.77,1381.65 2026.36,1381.83 2031.94,1382 2037.53,1382.15 2043.12,1382.3 2048.71,1382.43 2054.3,1382.56 2059.89,1382.68 2065.48,1382.79 
  2071.07,1382.89 2076.66,1382.99 2082.25,1383.08 2087.84,1383.16 2093.43,1383.24 2099.02,1383.31 2104.61,1383.38 2110.2,1383.44 2115.78,1383.5 2121.37,1383.56 
  2126.96,1383.61 2132.55,1383.65 2138.14,1383.7 2143.73,1383.74 2149.32,1383.78 2154.91,1383.81 2160.5,1383.84 2166.09,1383.87 2171.68,1383.9 2177.27,1383.93 
  2182.86,1383.95 
  "/>
<path clip-path="url(#clip400)" d="
M1782.69 335.029 L2283.65 335.029 L2283.65 93.1086 L1782.69 93.1086  Z
  " fill="#ffffff" fill-rule="evenodd" fill-opacity="1"/>
<polyline clip-path="url(#clip400)" style="stroke:#000000; stroke-width:4; stroke-opacity:1; fill:none" points="
  1782.69,335.029 2283.65,335.029 2283.65,93.1086 1782.69,93.1086 1782.69,335.029 
  "/>
<path clip-path="url(#clip400)" d="
M1805.73 177.781 L1943.93 177.781 L1943.93 129.397 L1805.73 129.397 L1805.73 177.781  Z
  " fill="#009af9" fill-rule="evenodd" fill-opacity="1"/>
<polyline clip-path="url(#clip400)" style="stroke:#009af9; stroke-width:4; stroke-opacity:1; fill:none" points="
  1805.73,177.781 1943.93,177.781 1943.93,129.397 1805.73,129.397 1805.73,177.781 
  "/>
<path clip-path="url(#clip400)" d="M 0 0 M1980.81 173.276 Q1979 177.906 1977.29 179.318 Q1975.57 180.73 1972.7 180.73 L1969.3 180.73 L1969.3 177.165 L1971.8 177.165 Q1973.56 177.165 1974.53 176.332 Q1975.5 175.498 1976.68 172.396 L1977.45 170.452 L1966.96 144.943 L1971.48 144.943 L1979.58 165.221 L1987.68 144.943 L1992.19 144.943 L1980.81 173.276 Z" fill="#000000" fill-rule="evenodd" fill-opacity="1" /><path clip-path="url(#clip400)" d="M 0 0 M1999.49 166.933 L2007.12 166.933 L2007.12 140.568 L1998.81 142.235 L1998.81 137.975 L2007.08 136.309 L2011.75 136.309 L2011.75 166.933 L2019.39 166.933 L2019.39 170.869 L1999.49 170.869 L1999.49 166.933 Z" fill="#000000" fill-rule="evenodd" fill-opacity="1" /><polyline clip-path="url(#clip400)" style="stroke:#e26f46; stroke-width:4; stroke-opacity:1; fill:none" points="
  1805.73,214.069 1943.93,214.069 
  "/>
<path clip-path="url(#clip400)" d="M 0 0 M1985.87 218.085 Q1985.87 213.455 1983.95 210.909 Q1982.06 208.363 1978.61 208.363 Q1975.18 208.363 1973.26 210.909 Q1971.36 213.455 1971.36 218.085 Q1971.36 222.691 1973.26 225.238 Q1975.18 227.784 1978.61 227.784 Q1982.06 227.784 1983.95 225.238 Q1985.87 222.691 1985.87 218.085 M1990.13 228.131 Q1990.13 234.751 1987.19 237.969 Q1984.25 241.21 1978.19 241.21 Q1975.94 241.21 1973.95 240.862 Q1971.96 240.538 1970.09 239.844 L1970.09 235.7 Q1971.96 236.719 1973.79 237.205 Q1975.62 237.691 1977.52 237.691 Q1981.71 237.691 1983.79 235.492 Q1985.87 233.316 1985.87 228.895 L1985.87 226.788 Q1984.56 229.08 1982.5 230.214 Q1980.43 231.349 1977.56 231.349 Q1972.8 231.349 1969.88 227.714 Q1966.96 224.08 1966.96 218.085 Q1966.96 212.066 1969.88 208.432 Q1972.8 204.798 1977.56 204.798 Q1980.43 204.798 1982.5 205.932 Q1984.56 207.066 1985.87 209.358 L1985.87 205.423 L1990.13 205.423 L1990.13 228.131 Z" fill="#000000" fill-rule="evenodd" fill-opacity="1" /><path clip-path="url(#clip400)" d="M 0 0 M2010.69 218.316 Q2005.53 218.316 2003.54 219.497 Q2001.55 220.677 2001.55 223.525 Q2001.55 225.793 2003.03 227.136 Q2004.53 228.455 2007.1 228.455 Q2010.64 228.455 2012.77 225.955 Q2014.93 223.432 2014.93 219.265 L2014.93 218.316 L2010.69 218.316 M2019.18 216.557 L2019.18 231.349 L2014.93 231.349 L2014.93 227.413 Q2013.47 229.775 2011.29 230.909 Q2009.12 232.02 2005.97 232.02 Q2001.99 232.02 1999.62 229.798 Q1997.29 227.552 1997.29 223.802 Q1997.29 219.427 2000.2 217.205 Q2003.14 214.983 2008.95 214.983 L2014.93 214.983 L2014.93 214.566 Q2014.93 211.627 2012.98 210.029 Q2011.06 208.409 2007.56 208.409 Q2005.34 208.409 2003.24 208.941 Q2001.13 209.474 1999.18 210.539 L1999.18 206.603 Q2001.52 205.701 2003.72 205.261 Q2005.92 204.798 2008 204.798 Q2013.63 204.798 2016.41 207.714 Q2019.18 210.631 2019.18 216.557 Z" fill="#000000" fill-rule="evenodd" fill-opacity="1" /><path clip-path="url(#clip400)" d="M 0 0 M2027.52 221.117 L2027.52 205.423 L2031.78 205.423 L2031.78 220.955 Q2031.78 224.636 2033.21 226.488 Q2034.65 228.316 2037.52 228.316 Q2040.97 228.316 2042.96 226.117 Q2044.97 223.918 2044.97 220.122 L2044.97 205.423 L2049.23 205.423 L2049.23 231.349 L2044.97 231.349 L2044.97 227.367 Q2043.42 229.728 2041.36 230.886 Q2039.32 232.02 2036.62 232.02 Q2032.15 232.02 2029.83 229.242 Q2027.52 226.464 2027.52 221.117 M2038.24 204.798 L2038.24 204.798 Z" fill="#000000" fill-rule="evenodd" fill-opacity="1" /><path clip-path="url(#clip400)" d="M 0 0 M2074.53 206.187 L2074.53 210.214 Q2072.73 209.289 2070.78 208.826 Q2068.84 208.363 2066.75 208.363 Q2063.58 208.363 2061.99 209.335 Q2060.41 210.307 2060.41 212.251 Q2060.41 213.733 2061.55 214.589 Q2062.68 215.423 2066.11 216.187 L2067.56 216.511 Q2072.1 217.483 2074 219.265 Q2075.92 221.025 2075.92 224.196 Q2075.92 227.807 2073.05 229.913 Q2070.2 232.02 2065.2 232.02 Q2063.12 232.02 2060.85 231.603 Q2058.61 231.21 2056.11 230.4 L2056.11 226.001 Q2058.47 227.228 2060.76 227.853 Q2063.05 228.455 2065.3 228.455 Q2068.3 228.455 2069.93 227.437 Q2071.55 226.395 2071.55 224.52 Q2071.55 222.784 2070.37 221.858 Q2069.21 220.932 2065.25 220.076 L2063.77 219.728 Q2059.81 218.895 2058.05 217.182 Q2056.29 215.446 2056.29 212.437 Q2056.29 208.779 2058.88 206.789 Q2061.48 204.798 2066.24 204.798 Q2068.61 204.798 2070.69 205.145 Q2072.77 205.492 2074.53 206.187 Z" fill="#000000" fill-rule="evenodd" fill-opacity="1" /><path clip-path="url(#clip400)" d="M 0 0 M2099.23 206.187 L2099.23 210.214 Q2097.43 209.289 2095.48 208.826 Q2093.54 208.363 2091.45 208.363 Q2088.28 208.363 2086.68 209.335 Q2085.11 210.307 2085.11 212.251 Q2085.11 213.733 2086.24 214.589 Q2087.38 215.423 2090.8 216.187 L2092.26 216.511 Q2096.8 217.483 2098.7 219.265 Q2100.62 221.025 2100.62 224.196 Q2100.62 227.807 2097.75 229.913 Q2094.9 232.02 2089.9 232.02 Q2087.82 232.02 2085.55 231.603 Q2083.3 231.21 2080.8 230.4 L2080.8 226.001 Q2083.17 227.228 2085.46 227.853 Q2087.75 228.455 2089.99 228.455 Q2093 228.455 2094.62 227.437 Q2096.24 226.395 2096.24 224.52 Q2096.24 222.784 2095.06 221.858 Q2093.91 220.932 2089.95 220.076 L2088.47 219.728 Q2084.51 218.895 2082.75 217.182 Q2080.99 215.446 2080.99 212.437 Q2080.99 208.779 2083.58 206.789 Q2086.18 204.798 2090.94 204.798 Q2093.3 204.798 2095.39 205.145 Q2097.47 205.492 2099.23 206.187 Z" fill="#000000" fill-rule="evenodd" fill-opacity="1" /><path clip-path="url(#clip400)" d="M 0 0 M2107.4 205.423 L2111.66 205.423 L2111.66 231.349 L2107.4 231.349 L2107.4 205.423 M2107.4 195.33 L2111.66 195.33 L2111.66 200.724 L2107.4 200.724 L2107.4 195.33 Z" fill="#000000" fill-rule="evenodd" fill-opacity="1" /><path clip-path="url(#clip400)" d="M 0 0 M2132.36 218.316 Q2127.19 218.316 2125.2 219.497 Q2123.21 220.677 2123.21 223.525 Q2123.21 225.793 2124.69 227.136 Q2126.2 228.455 2128.77 228.455 Q2132.31 228.455 2134.44 225.955 Q2136.59 223.432 2136.59 219.265 L2136.59 218.316 L2132.36 218.316 M2140.85 216.557 L2140.85 231.349 L2136.59 231.349 L2136.59 227.413 Q2135.13 229.775 2132.96 230.909 Q2130.78 232.02 2127.63 232.02 Q2123.65 232.02 2121.29 229.798 Q2118.95 227.552 2118.95 223.802 Q2118.95 219.427 2121.87 217.205 Q2124.81 214.983 2130.62 214.983 L2136.59 214.983 L2136.59 214.566 Q2136.59 211.627 2134.65 210.029 Q2132.73 208.409 2129.23 208.409 Q2127.01 208.409 2124.9 208.941 Q2122.8 209.474 2120.85 210.539 L2120.85 206.603 Q2123.19 205.701 2125.39 205.261 Q2127.59 204.798 2129.67 204.798 Q2135.3 204.798 2138.07 207.714 Q2140.85 210.631 2140.85 216.557 Z" fill="#000000" fill-rule="evenodd" fill-opacity="1" /><path clip-path="url(#clip400)" d="M 0 0 M2171.17 215.701 L2171.17 231.349 L2166.92 231.349 L2166.92 215.839 Q2166.92 212.159 2165.48 210.33 Q2164.05 208.502 2161.17 208.502 Q2157.73 208.502 2155.73 210.701 Q2153.74 212.9 2153.74 216.696 L2153.74 231.349 L2149.46 231.349 L2149.46 205.423 L2153.74 205.423 L2153.74 209.451 Q2155.27 207.113 2157.33 205.955 Q2159.42 204.798 2162.12 204.798 Q2166.59 204.798 2168.88 207.576 Q2171.17 210.33 2171.17 215.701 Z" fill="#000000" fill-rule="evenodd" fill-opacity="1" /><path clip-path="url(#clip400)" d="M 0 0 M2207.86 195.33 L2207.86 198.872 L2203.79 198.872 Q2201.5 198.872 2200.6 199.798 Q2199.72 200.724 2199.72 203.131 L2199.72 205.423 L2206.73 205.423 L2206.73 208.733 L2199.72 208.733 L2199.72 231.349 L2195.43 231.349 L2195.43 208.733 L2191.36 208.733 L2191.36 205.423 L2195.43 205.423 L2195.43 203.617 Q2195.43 199.289 2197.45 197.321 Q2199.46 195.33 2203.84 195.33 L2207.86 195.33 Z" fill="#000000" fill-rule="evenodd" fill-opacity="1" /><path clip-path="url(#clip400)" d="M 0 0 M2211.43 205.423 L2215.69 205.423 L2215.69 231.349 L2211.43 231.349 L2211.43 205.423 M2211.43 195.33 L2215.69 195.33 L2215.69 200.724 L2211.43 200.724 L2211.43 195.33 Z" fill="#000000" fill-rule="evenodd" fill-opacity="1" /><path clip-path="url(#clip400)" d="M 0 0 M2228.81 198.062 L2228.81 205.423 L2237.59 205.423 L2237.59 208.733 L2228.81 208.733 L2228.81 222.807 Q2228.81 225.978 2229.67 226.881 Q2230.55 227.784 2233.21 227.784 L2237.59 227.784 L2237.59 231.349 L2233.21 231.349 Q2228.28 231.349 2226.41 229.52 Q2224.53 227.668 2224.53 222.807 L2224.53 208.733 L2221.41 208.733 L2221.41 205.423 L2224.53 205.423 L2224.53 198.062 L2228.81 198.062 Z" fill="#000000" fill-rule="evenodd" fill-opacity="1" /><polyline clip-path="url(#clip400)" style="stroke:#3da44d; stroke-width:4; stroke-opacity:1; fill:none" points="
  1805.73,274.549 1943.93,274.549 
  "/>
<path clip-path="url(#clip400)" d="M 0 0 M1971.25 287.94 L1971.25 301.69 L1966.96 301.69 L1966.96 265.903 L1971.25 265.903 L1971.25 269.838 Q1972.59 267.523 1974.62 266.412 Q1976.68 265.278 1979.53 265.278 Q1984.25 265.278 1987.19 269.028 Q1990.16 272.778 1990.16 278.889 Q1990.16 285 1987.19 288.75 Q1984.25 292.5 1979.53 292.5 Q1976.68 292.5 1974.62 291.389 Q1972.59 290.255 1971.25 287.94 M1985.74 278.889 Q1985.74 274.19 1983.79 271.528 Q1981.87 268.843 1978.49 268.843 Q1975.11 268.843 1973.17 271.528 Q1971.25 274.19 1971.25 278.889 Q1971.25 283.588 1973.17 286.273 Q1975.11 288.935 1978.49 288.935 Q1981.87 288.935 1983.79 286.273 Q1985.74 283.588 1985.74 278.889 Z" fill="#000000" fill-rule="evenodd" fill-opacity="1" /><path clip-path="url(#clip400)" d="M 0 0 M2007.26 268.889 Q2003.84 268.889 2001.85 271.574 Q1999.86 274.236 1999.86 278.889 Q1999.86 283.542 2001.82 286.227 Q2003.81 288.889 2007.26 288.889 Q2010.67 288.889 2012.66 286.204 Q2014.65 283.518 2014.65 278.889 Q2014.65 274.282 2012.66 271.597 Q2010.67 268.889 2007.26 268.889 M2007.26 265.278 Q2012.82 265.278 2015.99 268.889 Q2019.16 272.5 2019.16 278.889 Q2019.16 285.255 2015.99 288.889 Q2012.82 292.5 2007.26 292.5 Q2001.68 292.5 1998.51 288.889 Q1995.37 285.255 1995.37 278.889 Q1995.37 272.5 1998.51 268.889 Q2001.68 265.278 2007.26 265.278 Z" fill="#000000" fill-rule="evenodd" fill-opacity="1" /><path clip-path="url(#clip400)" d="M 0 0 M2026.22 265.903 L2030.48 265.903 L2030.48 291.829 L2026.22 291.829 L2026.22 265.903 M2026.22 255.81 L2030.48 255.81 L2030.48 261.204 L2026.22 261.204 L2026.22 255.81 Z" fill="#000000" fill-rule="evenodd" fill-opacity="1" /><path clip-path="url(#clip400)" d="M 0 0 M2055.92 266.667 L2055.92 270.694 Q2054.12 269.769 2052.17 269.306 Q2050.23 268.843 2048.14 268.843 Q2044.97 268.843 2043.37 269.815 Q2041.8 270.787 2041.8 272.731 Q2041.8 274.213 2042.93 275.069 Q2044.07 275.903 2047.49 276.667 L2048.95 276.991 Q2053.49 277.963 2055.39 279.745 Q2057.31 281.505 2057.31 284.676 Q2057.31 288.287 2054.44 290.393 Q2051.59 292.5 2046.59 292.5 Q2044.51 292.5 2042.24 292.083 Q2039.99 291.69 2037.49 290.88 L2037.49 286.481 Q2039.86 287.708 2042.15 288.333 Q2044.44 288.935 2046.68 288.935 Q2049.69 288.935 2051.31 287.917 Q2052.93 286.875 2052.93 285 Q2052.93 283.264 2051.75 282.338 Q2050.6 281.412 2046.64 280.556 L2045.16 280.208 Q2041.2 279.375 2039.44 277.662 Q2037.68 275.926 2037.68 272.917 Q2037.68 269.259 2040.27 267.269 Q2042.87 265.278 2047.63 265.278 Q2049.99 265.278 2052.08 265.625 Q2054.16 265.972 2055.92 266.667 Z" fill="#000000" fill-rule="evenodd" fill-opacity="1" /><path clip-path="url(#clip400)" d="M 0 0 M2080.62 266.667 L2080.62 270.694 Q2078.81 269.769 2076.87 269.306 Q2074.93 268.843 2072.84 268.843 Q2069.67 268.843 2068.07 269.815 Q2066.5 270.787 2066.5 272.731 Q2066.5 274.213 2067.63 275.069 Q2068.77 275.903 2072.19 276.667 L2073.65 276.991 Q2078.19 277.963 2080.09 279.745 Q2082.01 281.505 2082.01 284.676 Q2082.01 288.287 2079.14 290.393 Q2076.29 292.5 2071.29 292.5 Q2069.21 292.5 2066.94 292.083 Q2064.69 291.69 2062.19 290.88 L2062.19 286.481 Q2064.55 287.708 2066.85 288.333 Q2069.14 288.935 2071.38 288.935 Q2074.39 288.935 2076.01 287.917 Q2077.63 286.875 2077.63 285 Q2077.63 283.264 2076.45 282.338 Q2075.3 281.412 2071.34 280.556 L2069.86 280.208 Q2065.9 279.375 2064.14 277.662 Q2062.38 275.926 2062.38 272.917 Q2062.38 269.259 2064.97 267.269 Q2067.56 265.278 2072.33 265.278 Q2074.69 265.278 2076.78 265.625 Q2078.86 265.972 2080.62 266.667 Z" fill="#000000" fill-rule="evenodd" fill-opacity="1" /><path clip-path="url(#clip400)" d="M 0 0 M2098.84 268.889 Q2095.41 268.889 2093.42 271.574 Q2091.43 274.236 2091.43 278.889 Q2091.43 283.542 2093.4 286.227 Q2095.39 288.889 2098.84 288.889 Q2102.24 288.889 2104.23 286.204 Q2106.22 283.518 2106.22 278.889 Q2106.22 274.282 2104.23 271.597 Q2102.24 268.889 2098.84 268.889 M2098.84 265.278 Q2104.39 265.278 2107.56 268.889 Q2110.74 272.5 2110.74 278.889 Q2110.74 285.255 2107.56 288.889 Q2104.39 292.5 2098.84 292.5 Q2093.26 292.5 2090.09 288.889 Q2086.94 285.255 2086.94 278.889 Q2086.94 272.5 2090.09 268.889 Q2093.26 265.278 2098.84 265.278 Z" fill="#000000" fill-rule="evenodd" fill-opacity="1" /><path clip-path="url(#clip400)" d="M 0 0 M2139.35 276.181 L2139.35 291.829 L2135.09 291.829 L2135.09 276.319 Q2135.09 272.639 2133.65 270.81 Q2132.22 268.982 2129.35 268.982 Q2125.9 268.982 2123.91 271.181 Q2121.92 273.38 2121.92 277.176 L2121.92 291.829 L2117.63 291.829 L2117.63 265.903 L2121.92 265.903 L2121.92 269.931 Q2123.44 267.593 2125.5 266.435 Q2127.59 265.278 2130.3 265.278 Q2134.76 265.278 2137.05 268.056 Q2139.35 270.81 2139.35 276.181 Z" fill="#000000" fill-rule="evenodd" fill-opacity="1" /><path clip-path="url(#clip400)" d="M 0 0 M2176.04 255.81 L2176.04 259.352 L2171.96 259.352 Q2169.67 259.352 2168.77 260.278 Q2167.89 261.204 2167.89 263.611 L2167.89 265.903 L2174.9 265.903 L2174.9 269.213 L2167.89 269.213 L2167.89 291.829 L2163.61 291.829 L2163.61 269.213 L2159.53 269.213 L2159.53 265.903 L2163.61 265.903 L2163.61 264.097 Q2163.61 259.769 2165.62 257.801 Q2167.63 255.81 2172.01 255.81 L2176.04 255.81 Z" fill="#000000" fill-rule="evenodd" fill-opacity="1" /><path clip-path="url(#clip400)" d="M 0 0 M2179.6 265.903 L2183.86 265.903 L2183.86 291.829 L2179.6 291.829 L2179.6 265.903 M2179.6 255.81 L2183.86 255.81 L2183.86 261.204 L2179.6 261.204 L2179.6 255.81 Z" fill="#000000" fill-rule="evenodd" fill-opacity="1" /><path clip-path="url(#clip400)" d="M 0 0 M2196.98 258.542 L2196.98 265.903 L2205.76 265.903 L2205.76 269.213 L2196.98 269.213 L2196.98 283.287 Q2196.98 286.458 2197.84 287.361 Q2198.72 288.264 2201.38 288.264 L2205.76 288.264 L2205.76 291.829 L2201.38 291.829 Q2196.45 291.829 2194.58 290 Q2192.7 288.148 2192.7 283.287 L2192.7 269.213 L2189.58 269.213 L2189.58 265.903 L2192.7 265.903 L2192.7 258.542 L2196.98 258.542 Z" fill="#000000" fill-rule="evenodd" fill-opacity="1" /></svg>
