<?xml version="1.0" encoding="utf-8"?>
<svg xmlns="http://www.w3.org/2000/svg" xmlns:xlink="http://www.w3.org/1999/xlink" width="600" height="400" viewBox="0 0 2400 1600">
<defs>
  <clipPath id="clip430">
    <rect x="0" y="0" width="2400" height="1600"/>
  </clipPath>
</defs>
<path clip-path="url(#clip430)" d="
M0 1600 L2400 1600 L2400 0 L0 0  Z
  " fill="#ffffff" fill-rule="evenodd" fill-opacity="1"/>
<defs>
  <clipPath id="clip431">
    <rect x="480" y="0" width="1681" height="1600"/>
  </clipPath>
</defs>
<path clip-path="url(#clip430)" d="
M249.542 1423.18 L2352.76 1423.18 L2352.76 47.2441 L249.542 47.2441  Z
  " fill="#ffffff" fill-rule="evenodd" fill-opacity="1"/>
<defs>
  <clipPath id="clip432">
    <rect x="249" y="47" width="2104" height="1377"/>
  </clipPath>
</defs>
<polyline clip-path="url(#clip432)" style="stroke:#000000; stroke-width:2; stroke-opacity:0.1; fill:none" points="
  365.223,1423.18 365.223,47.2441 
  "/>
<polyline clip-path="url(#clip432)" style="stroke:#000000; stroke-width:2; stroke-opacity:0.1; fill:none" points="
  739.593,1423.18 739.593,47.2441 
  "/>
<polyline clip-path="url(#clip432)" style="stroke:#000000; stroke-width:2; stroke-opacity:0.1; fill:none" points="
  1113.96,1423.18 1113.96,47.2441 
  "/>
<polyline clip-path="url(#clip432)" style="stroke:#000000; stroke-width:2; stroke-opacity:0.1; fill:none" points="
  1488.33,1423.18 1488.33,47.2441 
  "/>
<polyline clip-path="url(#clip432)" style="stroke:#000000; stroke-width:2; stroke-opacity:0.1; fill:none" points="
  1862.7,1423.18 1862.7,47.2441 
  "/>
<polyline clip-path="url(#clip432)" style="stroke:#000000; stroke-width:2; stroke-opacity:0.1; fill:none" points="
  2237.08,1423.18 2237.08,47.2441 
  "/>
<polyline clip-path="url(#clip430)" style="stroke:#000000; stroke-width:4; stroke-opacity:1; fill:none" points="
  249.542,1423.18 2352.76,1423.18 
  "/>
<polyline clip-path="url(#clip430)" style="stroke:#000000; stroke-width:4; stroke-opacity:1; fill:none" points="
  365.223,1423.18 365.223,1406.67 
  "/>
<polyline clip-path="url(#clip430)" style="stroke:#000000; stroke-width:4; stroke-opacity:1; fill:none" points="
  739.593,1423.18 739.593,1406.67 
  "/>
<polyline clip-path="url(#clip430)" style="stroke:#000000; stroke-width:4; stroke-opacity:1; fill:none" points="
  1113.96,1423.18 1113.96,1406.67 
  "/>
<polyline clip-path="url(#clip430)" style="stroke:#000000; stroke-width:4; stroke-opacity:1; fill:none" points="
  1488.33,1423.18 1488.33,1406.67 
  "/>
<polyline clip-path="url(#clip430)" style="stroke:#000000; stroke-width:4; stroke-opacity:1; fill:none" points="
  1862.7,1423.18 1862.7,1406.67 
  "/>
<polyline clip-path="url(#clip430)" style="stroke:#000000; stroke-width:4; stroke-opacity:1; fill:none" points="
  2237.08,1423.18 2237.08,1406.67 
  "/>
<path clip-path="url(#clip430)" d="M 0 0 M365.223 1452.37 Q361.611 1452.37 359.783 1455.94 Q357.977 1459.48 357.977 1466.61 Q357.977 1473.71 359.783 1477.28 Q361.611 1480.82 365.223 1480.82 Q368.857 1480.82 370.662 1477.28 Q372.491 1473.71 372.491 1466.61 Q372.491 1459.48 370.662 1455.94 Q368.857 1452.37 365.223 1452.37 M365.223 1448.67 Q371.033 1448.67 374.088 1453.27 Q377.167 1457.86 377.167 1466.61 Q377.167 1475.33 374.088 1479.94 Q371.033 1484.52 365.223 1484.52 Q359.412 1484.52 356.334 1479.94 Q353.278 1475.33 353.278 1466.61 Q353.278 1457.86 356.334 1453.27 Q359.412 1448.67 365.223 1448.67 Z" fill="#000000" fill-rule="evenodd" fill-opacity="1" /><path clip-path="url(#clip430)" d="M 0 0 M729.871 1449.29 L748.227 1449.29 L748.227 1453.23 L734.153 1453.23 L734.153 1461.7 Q735.172 1461.35 736.19 1461.19 Q737.209 1461 738.227 1461 Q744.014 1461 747.394 1464.18 Q750.774 1467.35 750.774 1472.76 Q750.774 1478.34 747.301 1481.44 Q743.829 1484.52 737.51 1484.52 Q735.334 1484.52 733.065 1484.15 Q730.82 1483.78 728.413 1483.04 L728.413 1478.34 Q730.496 1479.48 732.718 1480.03 Q734.94 1480.59 737.417 1480.59 Q741.422 1480.59 743.76 1478.48 Q746.098 1476.38 746.098 1472.76 Q746.098 1469.15 743.76 1467.05 Q741.422 1464.94 737.417 1464.94 Q735.542 1464.94 733.667 1465.36 Q731.815 1465.77 729.871 1466.65 L729.871 1449.29 Z" fill="#000000" fill-rule="evenodd" fill-opacity="1" /><path clip-path="url(#clip430)" d="M 0 0 M1088.65 1479.92 L1096.29 1479.92 L1096.29 1453.55 L1087.98 1455.22 L1087.98 1450.96 L1096.24 1449.29 L1100.92 1449.29 L1100.92 1479.92 L1108.56 1479.92 L1108.56 1483.85 L1088.65 1483.85 L1088.65 1479.92 Z" fill="#000000" fill-rule="evenodd" fill-opacity="1" /><path clip-path="url(#clip430)" d="M 0 0 M1128 1452.37 Q1124.39 1452.37 1122.56 1455.94 Q1120.76 1459.48 1120.76 1466.61 Q1120.76 1473.71 1122.56 1477.28 Q1124.39 1480.82 1128 1480.82 Q1131.64 1480.82 1133.44 1477.28 Q1135.27 1473.71 1135.27 1466.61 Q1135.27 1459.48 1133.44 1455.94 Q1131.64 1452.37 1128 1452.37 M1128 1448.67 Q1133.81 1448.67 1136.87 1453.27 Q1139.95 1457.86 1139.95 1466.61 Q1139.95 1475.33 1136.87 1479.94 Q1133.81 1484.52 1128 1484.52 Q1122.19 1484.52 1119.11 1479.94 Q1116.06 1475.33 1116.06 1466.61 Q1116.06 1457.86 1119.11 1453.27 Q1122.19 1448.67 1128 1448.67 Z" fill="#000000" fill-rule="evenodd" fill-opacity="1" /><path clip-path="url(#clip430)" d="M 0 0 M1463.52 1479.92 L1471.16 1479.92 L1471.16 1453.55 L1462.85 1455.22 L1462.85 1450.96 L1471.11 1449.29 L1475.79 1449.29 L1475.79 1479.92 L1483.43 1479.92 L1483.43 1483.85 L1463.52 1483.85 L1463.52 1479.92 Z" fill="#000000" fill-rule="evenodd" fill-opacity="1" /><path clip-path="url(#clip430)" d="M 0 0 M1492.92 1449.29 L1511.27 1449.29 L1511.27 1453.23 L1497.2 1453.23 L1497.2 1461.7 Q1498.22 1461.35 1499.24 1461.19 Q1500.26 1461 1501.27 1461 Q1507.06 1461 1510.44 1464.18 Q1513.82 1467.35 1513.82 1472.76 Q1513.82 1478.34 1510.35 1481.44 Q1506.88 1484.52 1500.56 1484.52 Q1498.38 1484.52 1496.11 1484.15 Q1493.87 1483.78 1491.46 1483.04 L1491.46 1478.34 Q1493.54 1479.48 1495.76 1480.03 Q1497.99 1480.59 1500.46 1480.59 Q1504.47 1480.59 1506.81 1478.48 Q1509.14 1476.38 1509.14 1472.76 Q1509.14 1469.15 1506.81 1467.05 Q1504.47 1464.94 1500.46 1464.94 Q1498.59 1464.94 1496.71 1465.36 Q1494.86 1465.77 1492.92 1466.65 L1492.92 1449.29 Z" fill="#000000" fill-rule="evenodd" fill-opacity="1" /><path clip-path="url(#clip430)" d="M 0 0 M1841.48 1479.92 L1857.8 1479.92 L1857.8 1483.85 L1835.85 1483.85 L1835.85 1479.92 Q1838.52 1477.16 1843.1 1472.53 Q1847.7 1467.88 1848.89 1466.54 Q1851.13 1464.01 1852.01 1462.28 Q1852.91 1460.52 1852.91 1458.83 Q1852.91 1456.07 1850.97 1454.34 Q1849.05 1452.6 1845.95 1452.6 Q1843.75 1452.6 1841.29 1453.37 Q1838.86 1454.13 1836.08 1455.68 L1836.08 1450.96 Q1838.91 1449.82 1841.36 1449.25 Q1843.82 1448.67 1845.85 1448.67 Q1851.22 1448.67 1854.42 1451.35 Q1857.61 1454.04 1857.61 1458.53 Q1857.61 1460.66 1856.8 1462.58 Q1856.02 1464.48 1853.91 1467.07 Q1853.33 1467.74 1850.23 1470.96 Q1847.13 1474.15 1841.48 1479.92 Z" fill="#000000" fill-rule="evenodd" fill-opacity="1" /><path clip-path="url(#clip430)" d="M 0 0 M1877.61 1452.37 Q1874 1452.37 1872.17 1455.94 Q1870.37 1459.48 1870.37 1466.61 Q1870.37 1473.71 1872.17 1477.28 Q1874 1480.82 1877.61 1480.82 Q1881.25 1480.82 1883.05 1477.28 Q1884.88 1473.71 1884.88 1466.61 Q1884.88 1459.48 1883.05 1455.94 Q1881.25 1452.37 1877.61 1452.37 M1877.61 1448.67 Q1883.42 1448.67 1886.48 1453.27 Q1889.56 1457.86 1889.56 1466.61 Q1889.56 1475.33 1886.48 1479.94 Q1883.42 1484.52 1877.61 1484.52 Q1871.8 1484.52 1868.72 1479.94 Q1865.67 1475.33 1865.67 1466.61 Q1865.67 1457.86 1868.72 1453.27 Q1871.8 1448.67 1877.61 1448.67 Z" fill="#000000" fill-rule="evenodd" fill-opacity="1" /><path clip-path="url(#clip430)" d="M 0 0 M2216.35 1479.92 L2232.67 1479.92 L2232.67 1483.85 L2210.72 1483.85 L2210.72 1479.92 Q2213.38 1477.16 2217.97 1472.53 Q2222.57 1467.88 2223.75 1466.54 Q2226 1464.01 2226.88 1462.28 Q2227.78 1460.52 2227.78 1458.83 Q2227.78 1456.07 2225.84 1454.34 Q2223.92 1452.6 2220.81 1452.6 Q2218.61 1452.6 2216.16 1453.37 Q2213.73 1454.13 2210.95 1455.68 L2210.95 1450.96 Q2213.78 1449.82 2216.23 1449.25 Q2218.68 1448.67 2220.72 1448.67 Q2226.09 1448.67 2229.29 1451.35 Q2232.48 1454.04 2232.48 1458.53 Q2232.48 1460.66 2231.67 1462.58 Q2230.88 1464.48 2228.78 1467.07 Q2228.2 1467.74 2225.1 1470.96 Q2221.99 1474.15 2216.35 1479.92 Z" fill="#000000" fill-rule="evenodd" fill-opacity="1" /><path clip-path="url(#clip430)" d="M 0 0 M2242.53 1449.29 L2260.88 1449.29 L2260.88 1453.23 L2246.81 1453.23 L2246.81 1461.7 Q2247.83 1461.35 2248.85 1461.19 Q2249.86 1461 2250.88 1461 Q2256.67 1461 2260.05 1464.18 Q2263.43 1467.35 2263.43 1472.76 Q2263.43 1478.34 2259.96 1481.44 Q2256.49 1484.52 2250.17 1484.52 Q2247.99 1484.52 2245.72 1484.15 Q2243.48 1483.78 2241.07 1483.04 L2241.07 1478.34 Q2243.15 1479.48 2245.37 1480.03 Q2247.6 1480.59 2250.07 1480.59 Q2254.08 1480.59 2256.42 1478.48 Q2258.75 1476.38 2258.75 1472.76 Q2258.75 1469.15 2256.42 1467.05 Q2254.08 1464.94 2250.07 1464.94 Q2248.2 1464.94 2246.32 1465.36 Q2244.47 1465.77 2242.53 1466.65 L2242.53 1449.29 Z" fill="#000000" fill-rule="evenodd" fill-opacity="1" /><path clip-path="url(#clip430)" d="M 0 0 M1311.59 1537.87 Q1310.6 1537.3 1309.42 1537.04 Q1308.28 1536.76 1306.88 1536.76 Q1301.91 1536.76 1299.24 1540 Q1296.6 1543.22 1296.6 1549.27 L1296.6 1568.04 L1290.71 1568.04 L1290.71 1532.4 L1296.6 1532.4 L1296.6 1537.93 Q1298.44 1534.69 1301.4 1533.13 Q1304.36 1531.54 1308.6 1531.54 Q1309.2 1531.54 1309.93 1531.63 Q1310.67 1531.7 1311.56 1531.85 L1311.59 1537.87 Z" fill="#000000" fill-rule="evenodd" fill-opacity="1" /><polyline clip-path="url(#clip432)" style="stroke:#000000; stroke-width:2; stroke-opacity:0.1; fill:none" points="
  249.542,1384.24 2352.76,1384.24 
  "/>
<polyline clip-path="url(#clip432)" style="stroke:#000000; stroke-width:2; stroke-opacity:0.1; fill:none" points="
  249.542,941.168 2352.76,941.168 
  "/>
<polyline clip-path="url(#clip432)" style="stroke:#000000; stroke-width:2; stroke-opacity:0.1; fill:none" points="
  249.542,498.098 2352.76,498.098 
  "/>
<polyline clip-path="url(#clip432)" style="stroke:#000000; stroke-width:2; stroke-opacity:0.1; fill:none" points="
  249.542,55.0275 2352.76,55.0275 
  "/>
<polyline clip-path="url(#clip430)" style="stroke:#000000; stroke-width:4; stroke-opacity:1; fill:none" points="
  249.542,1423.18 249.542,47.2441 
  "/>
<polyline clip-path="url(#clip430)" style="stroke:#000000; stroke-width:4; stroke-opacity:1; fill:none" points="
  249.542,1384.24 274.781,1384.24 
  "/>
<polyline clip-path="url(#clip430)" style="stroke:#000000; stroke-width:4; stroke-opacity:1; fill:none" points="
  249.542,941.168 274.781,941.168 
  "/>
<polyline clip-path="url(#clip430)" style="stroke:#000000; stroke-width:4; stroke-opacity:1; fill:none" points="
  249.542,498.098 274.781,498.098 
  "/>
<polyline clip-path="url(#clip430)" style="stroke:#000000; stroke-width:4; stroke-opacity:1; fill:none" points="
  249.542,55.0275 274.781,55.0275 
  "/>
<path clip-path="url(#clip430)" d="M 0 0 M126.205 1370.04 Q122.593 1370.04 120.765 1373.6 Q118.959 1377.14 118.959 1384.27 Q118.959 1391.38 120.765 1394.94 Q122.593 1398.49 126.205 1398.49 Q129.839 1398.49 131.644 1394.94 Q133.473 1391.38 133.473 1384.27 Q133.473 1377.14 131.644 1373.6 Q129.839 1370.04 126.205 1370.04 M126.205 1366.33 Q132.015 1366.33 135.07 1370.94 Q138.149 1375.52 138.149 1384.27 Q138.149 1393 135.07 1397.61 Q132.015 1402.19 126.205 1402.19 Q120.394 1402.19 117.316 1397.61 Q114.26 1393 114.26 1384.27 Q114.26 1375.52 117.316 1370.94 Q120.394 1366.33 126.205 1366.33 Z" fill="#000000" fill-rule="evenodd" fill-opacity="1" /><path clip-path="url(#clip430)" d="M 0 0 M146.366 1395.64 L151.251 1395.64 L151.251 1401.52 L146.366 1401.52 L146.366 1395.64 Z" fill="#000000" fill-rule="evenodd" fill-opacity="1" /><path clip-path="url(#clip430)" d="M 0 0 M171.436 1370.04 Q167.825 1370.04 165.996 1373.6 Q164.19 1377.14 164.19 1384.27 Q164.19 1391.38 165.996 1394.94 Q167.825 1398.49 171.436 1398.49 Q175.07 1398.49 176.876 1394.94 Q178.704 1391.38 178.704 1384.27 Q178.704 1377.14 176.876 1373.6 Q175.07 1370.04 171.436 1370.04 M171.436 1366.33 Q177.246 1366.33 180.301 1370.94 Q183.38 1375.52 183.38 1384.27 Q183.38 1393 180.301 1397.61 Q177.246 1402.19 171.436 1402.19 Q165.626 1402.19 162.547 1397.61 Q159.491 1393 159.491 1384.27 Q159.491 1375.52 162.547 1370.94 Q165.626 1366.33 171.436 1366.33 Z" fill="#000000" fill-rule="evenodd" fill-opacity="1" /><path clip-path="url(#clip430)" d="M 0 0 M201.598 1370.04 Q197.987 1370.04 196.158 1373.6 Q194.352 1377.14 194.352 1384.27 Q194.352 1391.38 196.158 1394.94 Q197.987 1398.49 201.598 1398.49 Q205.232 1398.49 207.037 1394.94 Q208.866 1391.38 208.866 1384.27 Q208.866 1377.14 207.037 1373.6 Q205.232 1370.04 201.598 1370.04 M201.598 1366.33 Q207.408 1366.33 210.463 1370.94 Q213.542 1375.52 213.542 1384.27 Q213.542 1393 210.463 1397.61 Q207.408 1402.19 201.598 1402.19 Q195.787 1402.19 192.709 1397.61 Q189.653 1393 189.653 1384.27 Q189.653 1375.52 192.709 1370.94 Q195.787 1366.33 201.598 1366.33 Z" fill="#000000" fill-rule="evenodd" fill-opacity="1" /><path clip-path="url(#clip430)" d="M 0 0 M127.2 926.967 Q123.589 926.967 121.76 930.531 Q119.955 934.073 119.955 941.203 Q119.955 948.309 121.76 951.874 Q123.589 955.416 127.2 955.416 Q130.834 955.416 132.64 951.874 Q134.468 948.309 134.468 941.203 Q134.468 934.073 132.64 930.531 Q130.834 926.967 127.2 926.967 M127.2 923.263 Q133.01 923.263 136.066 927.869 Q139.144 932.453 139.144 941.203 Q139.144 949.93 136.066 954.536 Q133.01 959.119 127.2 959.119 Q121.39 959.119 118.311 954.536 Q115.256 949.93 115.256 941.203 Q115.256 932.453 118.311 927.869 Q121.39 923.263 127.2 923.263 Z" fill="#000000" fill-rule="evenodd" fill-opacity="1" /><path clip-path="url(#clip430)" d="M 0 0 M147.362 952.568 L152.246 952.568 L152.246 958.448 L147.362 958.448 L147.362 952.568 Z" fill="#000000" fill-rule="evenodd" fill-opacity="1" /><path clip-path="url(#clip430)" d="M 0 0 M172.431 926.967 Q168.82 926.967 166.991 930.531 Q165.186 934.073 165.186 941.203 Q165.186 948.309 166.991 951.874 Q168.82 955.416 172.431 955.416 Q176.065 955.416 177.871 951.874 Q179.7 948.309 179.7 941.203 Q179.7 934.073 177.871 930.531 Q176.065 926.967 172.431 926.967 M172.431 923.263 Q178.241 923.263 181.297 927.869 Q184.376 932.453 184.376 941.203 Q184.376 949.93 181.297 954.536 Q178.241 959.119 172.431 959.119 Q166.621 959.119 163.542 954.536 Q160.487 949.93 160.487 941.203 Q160.487 932.453 163.542 927.869 Q166.621 923.263 172.431 923.263 Z" fill="#000000" fill-rule="evenodd" fill-opacity="1" /><path clip-path="url(#clip430)" d="M 0 0 M192.639 923.888 L210.996 923.888 L210.996 927.823 L196.922 927.823 L196.922 936.295 Q197.94 935.948 198.959 935.786 Q199.977 935.601 200.996 935.601 Q206.783 935.601 210.162 938.772 Q213.542 941.943 213.542 947.36 Q213.542 952.939 210.07 956.041 Q206.598 959.119 200.278 959.119 Q198.102 959.119 195.834 958.749 Q193.588 958.379 191.181 957.638 L191.181 952.939 Q193.264 954.073 195.487 954.629 Q197.709 955.184 200.186 955.184 Q204.19 955.184 206.528 953.078 Q208.866 950.971 208.866 947.36 Q208.866 943.749 206.528 941.643 Q204.19 939.536 200.186 939.536 Q198.311 939.536 196.436 939.953 Q194.584 940.369 192.639 941.249 L192.639 923.888 Z" fill="#000000" fill-rule="evenodd" fill-opacity="1" /><path clip-path="url(#clip430)" d="M 0 0 M126.205 483.896 Q122.593 483.896 120.765 487.461 Q118.959 491.003 118.959 498.132 Q118.959 505.239 120.765 508.804 Q122.593 512.345 126.205 512.345 Q129.839 512.345 131.644 508.804 Q133.473 505.239 133.473 498.132 Q133.473 491.003 131.644 487.461 Q129.839 483.896 126.205 483.896 M126.205 480.193 Q132.015 480.193 135.07 484.799 Q138.149 489.383 138.149 498.132 Q138.149 506.859 135.07 511.466 Q132.015 516.049 126.205 516.049 Q120.394 516.049 117.316 511.466 Q114.26 506.859 114.26 498.132 Q114.26 489.383 117.316 484.799 Q120.394 480.193 126.205 480.193 Z" fill="#000000" fill-rule="evenodd" fill-opacity="1" /><path clip-path="url(#clip430)" d="M 0 0 M146.366 509.498 L151.251 509.498 L151.251 515.378 L146.366 515.378 L146.366 509.498 Z" fill="#000000" fill-rule="evenodd" fill-opacity="1" /><path clip-path="url(#clip430)" d="M 0 0 M162.246 511.443 L169.885 511.443 L169.885 485.077 L161.575 486.744 L161.575 482.484 L169.839 480.818 L174.514 480.818 L174.514 511.443 L182.153 511.443 L182.153 515.378 L162.246 515.378 L162.246 511.443 Z" fill="#000000" fill-rule="evenodd" fill-opacity="1" /><path clip-path="url(#clip430)" d="M 0 0 M201.598 483.896 Q197.987 483.896 196.158 487.461 Q194.352 491.003 194.352 498.132 Q194.352 505.239 196.158 508.804 Q197.987 512.345 201.598 512.345 Q205.232 512.345 207.037 508.804 Q208.866 505.239 208.866 498.132 Q208.866 491.003 207.037 487.461 Q205.232 483.896 201.598 483.896 M201.598 480.193 Q207.408 480.193 210.463 484.799 Q213.542 489.383 213.542 498.132 Q213.542 506.859 210.463 511.466 Q207.408 516.049 201.598 516.049 Q195.787 516.049 192.709 511.466 Q189.653 506.859 189.653 498.132 Q189.653 489.383 192.709 484.799 Q195.787 480.193 201.598 480.193 Z" fill="#000000" fill-rule="evenodd" fill-opacity="1" /><path clip-path="url(#clip430)" d="M 0 0 M127.2 40.8262 Q123.589 40.8262 121.76 44.391 Q119.955 47.9326 119.955 55.0622 Q119.955 62.1686 121.76 65.7334 Q123.589 69.2751 127.2 69.2751 Q130.834 69.2751 132.64 65.7334 Q134.468 62.1686 134.468 55.0622 Q134.468 47.9326 132.64 44.391 Q130.834 40.8262 127.2 40.8262 M127.2 37.1225 Q133.01 37.1225 136.066 41.7289 Q139.144 46.3123 139.144 55.0622 Q139.144 63.789 136.066 68.3955 Q133.01 72.9788 127.2 72.9788 Q121.39 72.9788 118.311 68.3955 Q115.256 63.789 115.256 55.0622 Q115.256 46.3123 118.311 41.7289 Q121.39 37.1225 127.2 37.1225 Z" fill="#000000" fill-rule="evenodd" fill-opacity="1" /><path clip-path="url(#clip430)" d="M 0 0 M147.362 66.4279 L152.246 66.4279 L152.246 72.3075 L147.362 72.3075 L147.362 66.4279 Z" fill="#000000" fill-rule="evenodd" fill-opacity="1" /><path clip-path="url(#clip430)" d="M 0 0 M163.241 68.3723 L170.88 68.3723 L170.88 42.0067 L162.57 43.6734 L162.57 39.4141 L170.834 37.7475 L175.51 37.7475 L175.51 68.3723 L183.149 68.3723 L183.149 72.3075 L163.241 72.3075 L163.241 68.3723 Z" fill="#000000" fill-rule="evenodd" fill-opacity="1" /><path clip-path="url(#clip430)" d="M 0 0 M192.639 37.7475 L210.996 37.7475 L210.996 41.6826 L196.922 41.6826 L196.922 50.1548 Q197.94 49.8076 198.959 49.6456 Q199.977 49.4604 200.996 49.4604 Q206.783 49.4604 210.162 52.6317 Q213.542 55.8029 213.542 61.2196 Q213.542 66.7983 210.07 69.9001 Q206.598 72.9788 200.278 72.9788 Q198.102 72.9788 195.834 72.6084 Q193.588 72.238 191.181 71.4973 L191.181 66.7983 Q193.264 67.9325 195.487 68.4881 Q197.709 69.0436 200.186 69.0436 Q204.19 69.0436 206.528 66.9371 Q208.866 64.8307 208.866 61.2196 Q208.866 57.6085 206.528 55.502 Q204.19 53.3955 200.186 53.3955 Q198.311 53.3955 196.436 53.8122 Q194.584 54.2289 192.639 55.1085 L192.639 37.7475 Z" fill="#000000" fill-rule="evenodd" fill-opacity="1" /><path clip-path="url(#clip430)" d="M 0 0 M21.7677 781.268 L39.6235 781.268 L39.6235 773.183 Q39.6235 768.696 37.3 766.245 Q34.9765 763.794 30.6797 763.794 Q26.4147 763.794 24.0912 766.245 Q21.7677 768.696 21.7677 773.183 L21.7677 781.268 M16.4842 787.697 L16.4842 773.183 Q16.4842 765.194 20.1126 761.12 Q23.7092 757.015 30.6797 757.015 Q37.7138 757.015 41.3104 761.12 Q44.907 765.194 44.907 773.183 L44.907 781.268 L64.0042 781.268 L64.0042 787.697 L16.4842 787.697 Z" fill="#000000" fill-rule="evenodd" fill-opacity="1" /><path clip-path="url(#clip430)" d="M 0 0 M14.5426 734.575 Q21.8632 738.84 29.0246 740.909 Q36.186 742.978 43.5384 742.978 Q50.8908 742.978 58.1159 740.909 Q65.3091 738.809 72.5979 734.575 L72.5979 739.668 Q65.1182 744.442 57.8931 746.829 Q50.668 749.185 43.5384 749.185 Q36.4406 749.185 29.2474 746.829 Q22.0542 744.474 14.5426 739.668 L14.5426 734.575 Z" fill="#000000" fill-rule="evenodd" fill-opacity="1" /><path clip-path="url(#clip430)" d="M 0 0 M33.8307 702.556 Q33.2578 703.543 33.0032 704.72 Q32.7167 705.866 32.7167 707.267 Q32.7167 712.232 35.9632 714.905 Q39.1779 717.547 45.2253 717.547 L64.0042 717.547 L64.0042 723.435 L28.3562 723.435 L28.3562 717.547 L33.8944 717.547 Q30.6479 715.701 29.0883 712.741 Q27.4968 709.781 27.4968 705.548 Q27.4968 704.943 27.5923 704.211 Q27.656 703.479 27.8151 702.588 L33.8307 702.556 Z" fill="#000000" fill-rule="evenodd" fill-opacity="1" /><path clip-path="url(#clip430)" d="M 0 0 M14.5426 697.336 L14.5426 692.243 Q22.0542 687.469 29.2474 685.114 Q36.4406 682.727 43.5384 682.727 Q50.668 682.727 57.8931 685.114 Q65.1182 687.469 72.5979 692.243 L72.5979 697.336 Q65.3091 693.103 58.1159 691.034 Q50.8908 688.933 43.5384 688.933 Q36.186 688.933 29.0246 691.034 Q21.8632 693.103 14.5426 697.336 Z" fill="#000000" fill-rule="evenodd" fill-opacity="1" /><path clip-path="url(#clip432)" d="
M365.223 1378.38 L365.223 1384.24 L440.097 1384.24 L440.097 1378.38 L365.223 1378.38 L365.223 1378.38  Z
  " fill="#009af9" fill-rule="evenodd" fill-opacity="1"/>
<polyline clip-path="url(#clip432)" style="stroke:#009af9; stroke-width:4; stroke-opacity:1; fill:none" points="
  365.223,1378.38 365.223,1384.24 440.097,1384.24 440.097,1378.38 365.223,1378.38 
  "/>
<path clip-path="url(#clip432)" d="
M440.097 1348.31 L440.097 1384.24 L514.971 1384.24 L514.971 1348.31 L440.097 1348.31 L440.097 1348.31  Z
  " fill="#009af9" fill-rule="evenodd" fill-opacity="1"/>
<polyline clip-path="url(#clip432)" style="stroke:#009af9; stroke-width:4; stroke-opacity:1; fill:none" points="
  440.097,1348.31 440.097,1384.24 514.971,1384.24 514.971,1348.31 440.097,1348.31 
  "/>
<path clip-path="url(#clip432)" d="
M514.971 1245.95 L514.971 1384.24 L589.845 1384.24 L589.845 1245.95 L514.971 1245.95 L514.971 1245.95  Z
  " fill="#009af9" fill-rule="evenodd" fill-opacity="1"/>
<polyline clip-path="url(#clip432)" style="stroke:#009af9; stroke-width:4; stroke-opacity:1; fill:none" points="
  514.971,1245.95 514.971,1384.24 589.845,1384.24 589.845,1245.95 514.971,1245.95 
  "/>
<path clip-path="url(#clip432)" d="
M589.845 1041.04 L589.845 1384.24 L664.719 1384.24 L664.719 1041.04 L589.845 1041.04 L589.845 1041.04  Z
  " fill="#009af9" fill-rule="evenodd" fill-opacity="1"/>
<polyline clip-path="url(#clip432)" style="stroke:#009af9; stroke-width:4; stroke-opacity:1; fill:none" points="
  589.845,1041.04 589.845,1384.24 664.719,1384.24 664.719,1041.04 589.845,1041.04 
  "/>
<path clip-path="url(#clip432)" d="
M664.719 721.533 L664.719 1384.24 L739.593 1384.24 L739.593 721.533 L664.719 721.533 L664.719 721.533  Z
  " fill="#009af9" fill-rule="evenodd" fill-opacity="1"/>
<polyline clip-path="url(#clip432)" style="stroke:#009af9; stroke-width:4; stroke-opacity:1; fill:none" points="
  664.719,721.533 664.719,1384.24 739.593,1384.24 739.593,721.533 664.719,721.533 
  "/>
<path clip-path="url(#clip432)" d="
M739.593 405.837 L739.593 1384.24 L814.467 1384.24 L814.467 405.837 L739.593 405.837 L739.593 405.837  Z
  " fill="#009af9" fill-rule="evenodd" fill-opacity="1"/>
<polyline clip-path="url(#clip432)" style="stroke:#009af9; stroke-width:4; stroke-opacity:1; fill:none" points="
  739.593,405.837 739.593,1384.24 814.467,1384.24 814.467,405.837 739.593,405.837 
  "/>
<path clip-path="url(#clip432)" d="
M814.467 165.539 L814.467 1384.24 L889.341 1384.24 L889.341 165.539 L814.467 165.539 L814.467 165.539  Z
  " fill="#009af9" fill-rule="evenodd" fill-opacity="1"/>
<polyline clip-path="url(#clip432)" style="stroke:#009af9; stroke-width:4; stroke-opacity:1; fill:none" points="
  814.467,165.539 814.467,1384.24 889.341,1384.24 889.341,165.539 814.467,165.539 
  "/>
<path clip-path="url(#clip432)" d="
M889.341 101.85 L889.341 1384.24 L964.215 1384.24 L964.215 101.85 L889.341 101.85 L889.341 101.85  Z
  " fill="#009af9" fill-rule="evenodd" fill-opacity="1"/>
<polyline clip-path="url(#clip432)" style="stroke:#009af9; stroke-width:4; stroke-opacity:1; fill:none" points="
  889.341,101.85 889.341,1384.24 964.215,1384.24 964.215,101.85 889.341,101.85 
  "/>
<path clip-path="url(#clip432)" d="
M964.215 178.667 L964.215 1384.24 L1039.09 1384.24 L1039.09 178.667 L964.215 178.667 L964.215 178.667  Z
  " fill="#009af9" fill-rule="evenodd" fill-opacity="1"/>
<polyline clip-path="url(#clip432)" style="stroke:#009af9; stroke-width:4; stroke-opacity:1; fill:none" points="
  964.215,178.667 964.215,1384.24 1039.09,1384.24 1039.09,178.667 964.215,178.667 
  "/>
<path clip-path="url(#clip432)" d="
M1039.09 376.033 L1039.09 1384.24 L1113.96 1384.24 L1113.96 376.033 L1039.09 376.033 L1039.09 376.033  Z
  " fill="#009af9" fill-rule="evenodd" fill-opacity="1"/>
<polyline clip-path="url(#clip432)" style="stroke:#009af9; stroke-width:4; stroke-opacity:1; fill:none" points="
  1039.09,376.033 1039.09,1384.24 1113.96,1384.24 1113.96,376.033 1039.09,376.033 
  "/>
<path clip-path="url(#clip432)" d="
M1113.96 640.547 L1113.96 1384.24 L1188.84 1384.24 L1188.84 640.547 L1113.96 640.547 L1113.96 640.547  Z
  " fill="#009af9" fill-rule="evenodd" fill-opacity="1"/>
<polyline clip-path="url(#clip432)" style="stroke:#009af9; stroke-width:4; stroke-opacity:1; fill:none" points="
  1113.96,640.547 1113.96,1384.24 1188.84,1384.24 1188.84,640.547 1113.96,640.547 
  "/>
<path clip-path="url(#clip432)" d="
M1188.84 861.242 L1188.84 1384.24 L1263.71 1384.24 L1263.71 861.242 L1188.84 861.242 L1188.84 861.242  Z
  " fill="#009af9" fill-rule="evenodd" fill-opacity="1"/>
<polyline clip-path="url(#clip432)" style="stroke:#009af9; stroke-width:4; stroke-opacity:1; fill:none" points="
  1188.84,861.242 1188.84,1384.24 1263.71,1384.24 1263.71,861.242 1188.84,861.242 
  "/>
<path clip-path="url(#clip432)" d="
M1263.71 1058.61 L1263.71 1384.24 L1338.59 1384.24 L1338.59 1058.61 L1263.71 1058.61 L1263.71 1058.61  Z
  " fill="#009af9" fill-rule="evenodd" fill-opacity="1"/>
<polyline clip-path="url(#clip432)" style="stroke:#009af9; stroke-width:4; stroke-opacity:1; fill:none" points="
  1263.71,1058.61 1263.71,1384.24 1338.59,1384.24 1338.59,1058.61 1263.71,1058.61 
  "/>
<path clip-path="url(#clip432)" d="
M1338.59 1190.07 L1338.59 1384.24 L1413.46 1384.24 L1413.46 1190.07 L1338.59 1190.07 L1338.59 1190.07  Z
  " fill="#009af9" fill-rule="evenodd" fill-opacity="1"/>
<polyline clip-path="url(#clip432)" style="stroke:#009af9; stroke-width:4; stroke-opacity:1; fill:none" points="
  1338.59,1190.07 1338.59,1384.24 1413.46,1384.24 1413.46,1190.07 1338.59,1190.07 
  "/>
<path clip-path="url(#clip432)" d="
M1413.46 1283.56 L1413.46 1384.24 L1488.33 1384.24 L1488.33 1283.56 L1413.46 1283.56 L1413.46 1283.56  Z
  " fill="#009af9" fill-rule="evenodd" fill-opacity="1"/>
<polyline clip-path="url(#clip432)" style="stroke:#009af9; stroke-width:4; stroke-opacity:1; fill:none" points="
  1413.46,1283.56 1413.46,1384.24 1488.33,1384.24 1488.33,1283.56 1413.46,1283.56 
  "/>
<path clip-path="url(#clip432)" d="
M1488.33 1331.28 L1488.33 1384.24 L1563.21 1384.24 L1563.21 1331.28 L1488.33 1331.28 L1488.33 1331.28  Z
  " fill="#009af9" fill-rule="evenodd" fill-opacity="1"/>
<polyline clip-path="url(#clip432)" style="stroke:#009af9; stroke-width:4; stroke-opacity:1; fill:none" points="
  1488.33,1331.28 1488.33,1384.24 1563.21,1384.24 1563.21,1331.28 1488.33,1331.28 
  "/>
<path clip-path="url(#clip432)" d="
M1563.21 1360.29 L1563.21 1384.24 L1638.08 1384.24 L1638.08 1360.29 L1563.21 1360.29 L1563.21 1360.29  Z
  " fill="#009af9" fill-rule="evenodd" fill-opacity="1"/>
<polyline clip-path="url(#clip432)" style="stroke:#009af9; stroke-width:4; stroke-opacity:1; fill:none" points="
  1563.21,1360.29 1563.21,1384.24 1638.08,1384.24 1638.08,1360.29 1563.21,1360.29 
  "/>
<path clip-path="url(#clip432)" d="
M1638.08 1372.53 L1638.08 1384.24 L1712.96 1384.24 L1712.96 1372.53 L1638.08 1372.53 L1638.08 1372.53  Z
  " fill="#009af9" fill-rule="evenodd" fill-opacity="1"/>
<polyline clip-path="url(#clip432)" style="stroke:#009af9; stroke-width:4; stroke-opacity:1; fill:none" points="
  1638.08,1372.53 1638.08,1384.24 1712.96,1384.24 1712.96,1372.53 1638.08,1372.53 
  "/>
<path clip-path="url(#clip432)" d="
M1712.96 1379.89 L1712.96 1384.24 L1787.83 1384.24 L1787.83 1379.89 L1712.96 1379.89 L1712.96 1379.89  Z
  " fill="#009af9" fill-rule="evenodd" fill-opacity="1"/>
<polyline clip-path="url(#clip432)" style="stroke:#009af9; stroke-width:4; stroke-opacity:1; fill:none" points="
  1712.96,1379.89 1712.96,1384.24 1787.83,1384.24 1787.83,1379.89 1712.96,1379.89 
  "/>
<path clip-path="url(#clip432)" d="
M1787.83 1382.73 L1787.83 1384.24 L1862.7 1384.24 L1862.7 1382.73 L1787.83 1382.73 L1787.83 1382.73  Z
  " fill="#009af9" fill-rule="evenodd" fill-opacity="1"/>
<polyline clip-path="url(#clip432)" style="stroke:#009af9; stroke-width:4; stroke-opacity:1; fill:none" points="
  1787.83,1382.73 1787.83,1384.24 1862.7,1384.24 1862.7,1382.73 1787.83,1382.73 
  "/>
<path clip-path="url(#clip432)" d="
M1862.7 1384.06 L1862.7 1384.24 L1937.58 1384.24 L1937.58 1384.06 L1862.7 1384.06 L1862.7 1384.06  Z
  " fill="#009af9" fill-rule="evenodd" fill-opacity="1"/>
<polyline clip-path="url(#clip432)" style="stroke:#009af9; stroke-width:4; stroke-opacity:1; fill:none" points="
  1862.7,1384.06 1862.7,1384.24 1937.58,1384.24 1937.58,1384.06 1862.7,1384.06 
  "/>
<path clip-path="url(#clip432)" d="
M1937.58 1384.06 L1937.58 1384.24 L2012.45 1384.24 L2012.45 1384.06 L1937.58 1384.06 L1937.58 1384.06  Z
  " fill="#009af9" fill-rule="evenodd" fill-opacity="1"/>
<polyline clip-path="url(#clip432)" style="stroke:#009af9; stroke-width:4; stroke-opacity:1; fill:none" points="
  1937.58,1384.06 1937.58,1384.24 2012.45,1384.24 2012.45,1384.06 1937.58,1384.06 
  "/>
<path clip-path="url(#clip432)" d="
M2012.45 1384.15 L2012.45 1384.24 L2087.33 1384.24 L2087.33 1384.15 L2012.45 1384.15 L2012.45 1384.15  Z
  " fill="#009af9" fill-rule="evenodd" fill-opacity="1"/>
<polyline clip-path="url(#clip432)" style="stroke:#009af9; stroke-width:4; stroke-opacity:1; fill:none" points="
  2012.45,1384.15 2012.45,1384.24 2087.33,1384.24 2087.33,1384.15 2012.45,1384.15 
  "/>
<path clip-path="url(#clip432)" d="
M2087.33 1384.24 L2087.33 1384.24 L2162.2 1384.24 L2162.2 1384.24 L2087.33 1384.24 L2087.33 1384.24  Z
  " fill="#009af9" fill-rule="evenodd" fill-opacity="1"/>
<polyline clip-path="url(#clip432)" style="stroke:#009af9; stroke-width:4; stroke-opacity:1; fill:none" points="
  2087.33,1384.24 2087.33,1384.24 2162.2,1384.24 2087.33,1384.24 
  "/>
<path clip-path="url(#clip432)" d="
M2162.2 1384.15 L2162.2 1384.24 L2237.08 1384.24 L2237.08 1384.15 L2162.2 1384.15 L2162.2 1384.15  Z
  " fill="#009af9" fill-rule="evenodd" fill-opacity="1"/>
<polyline clip-path="url(#clip432)" style="stroke:#009af9; stroke-width:4; stroke-opacity:1; fill:none" points="
  2162.2,1384.15 2162.2,1384.24 2237.08,1384.24 2237.08,1384.15 2162.2,1384.15 
  "/>
<polyline clip-path="url(#clip432)" style="stroke:#e26f46; stroke-width:12; stroke-opacity:1; fill:none" points="
  365.223,1353.88 372.71,1350.71 380.197,1347.26 387.685,1343.5 395.172,1339.43 402.66,1335.01 410.147,1330.23 417.634,1325.07 425.122,1319.5 432.609,1313.49 
  440.097,1307.04 447.584,1300.1 455.071,1292.67 462.559,1284.71 470.046,1276.21 477.534,1267.13 485.021,1257.46 492.509,1247.18 499.996,1236.26 507.483,1224.68 
  514.971,1212.43 522.458,1199.48 529.946,1185.81 537.433,1171.43 544.92,1156.3 552.408,1140.42 559.895,1123.79 567.383,1106.39 574.87,1088.23 582.357,1069.29 
  589.845,1049.59 597.332,1029.14 604.82,1007.93 612.307,985.992 619.795,963.335 627.282,939.981 634.769,915.956 642.257,891.29 649.744,866.016 657.232,840.172 
  664.719,813.801 672.206,786.948 679.694,759.664 687.181,732.004 694.669,704.027 702.156,675.795 709.643,647.374 717.131,618.834 724.618,590.248 732.106,561.693 
  739.593,533.245 747.081,504.987 754.568,477.001 762.055,449.372 769.543,422.184 777.03,395.525 784.518,369.482 792.005,344.14 799.492,319.586 806.98,295.904 
  814.467,273.177 821.955,251.488 829.442,230.914 836.929,211.531 844.417,193.411 851.904,176.622 859.392,161.228 866.879,147.288 874.367,134.857 881.854,123.982 
  889.341,114.706 896.829,107.066 904.316,101.092 911.804,96.8074 919.291,94.23 926.778,93.3697 934.266,94.23 941.753,96.8074 949.241,101.092 956.728,107.066 
  964.215,114.706 971.703,123.982 979.19,134.857 986.678,147.288 994.165,161.228 1001.65,176.622 1009.14,193.411 1016.63,211.531 1024.11,230.914 1031.6,251.488 
  1039.09,273.177 1046.58,295.904 1054.06,319.586 1061.55,344.14 1069.04,369.482 1076.53,395.525 1084.01,422.184 1091.5,449.372 1098.99,477.001 1106.48,504.987 
  1113.96,533.245 1121.45,561.693 1128.94,590.248 1136.43,618.834 1143.91,647.374 1151.4,675.795 1158.89,704.027 1166.38,732.004 1173.86,759.664 1181.35,786.948 
  1188.84,813.801 1196.33,840.172 1203.81,866.016 1211.3,891.29 1218.79,915.956 1226.27,939.981 1233.76,963.335 1241.25,985.992 1248.74,1007.93 1256.22,1029.14 
  1263.71,1049.59 1271.2,1069.29 1278.69,1088.23 1286.17,1106.39 1293.66,1123.79 1301.15,1140.42 1308.64,1156.3 1316.12,1171.43 1323.61,1185.81 1331.1,1199.48 
  1338.59,1212.43 1346.07,1224.68 1353.56,1236.26 1361.05,1247.18 1368.54,1257.46 1376.02,1267.13 1383.51,1276.21 1391,1284.71 1398.49,1292.67 1405.97,1300.1 
  1413.46,1307.04 1420.95,1313.49 1428.43,1319.5 1435.92,1325.07 1443.41,1330.23 1450.9,1335.01 1458.38,1339.43 1465.87,1343.5 1473.36,1347.26 1480.85,1350.71 
  1488.33,1353.88 1495.82,1356.79 1503.31,1359.45 1510.8,1361.88 1518.28,1364.1 1525.77,1366.13 1533.26,1367.97 1540.75,1369.65 1548.23,1371.17 1555.72,1372.54 
  1563.21,1373.79 1570.7,1374.92 1578.18,1375.93 1585.67,1376.85 1593.16,1377.67 1600.65,1378.41 1608.13,1379.07 1615.62,1379.66 1623.11,1380.19 1630.6,1380.67 
  1638.08,1381.09 1645.57,1381.47 1653.06,1381.8 1660.54,1382.1 1668.03,1382.36 1675.52,1382.6 1683.01,1382.8 1690.49,1382.98 1697.98,1383.14 1705.47,1383.28 
  1712.96,1383.41 1720.44,1383.52 1727.93,1383.61 1735.42,1383.7 1742.91,1383.77 1750.39,1383.83 1757.88,1383.89 1765.37,1383.94 1772.86,1383.98 1780.34,1384.02 
  1787.83,1384.05 1795.32,1384.07 1802.81,1384.1 1810.29,1384.12 1817.78,1384.14 1825.27,1384.15 1832.76,1384.16 1840.24,1384.17 1847.73,1384.18 1855.22,1384.19 
  1862.7,1384.2 1870.19,1384.21 1877.68,1384.21 1885.17,1384.21 1892.65,1384.22 1900.14,1384.22 1907.63,1384.22 1915.12,1384.23 1922.6,1384.23 1930.09,1384.23 
  1937.58,1384.23 1945.07,1384.23 1952.55,1384.23 1960.04,1384.23 1967.53,1384.23 1975.02,1384.24 1982.5,1384.24 1989.99,1384.24 1997.48,1384.24 2004.97,1384.24 
  2012.45,1384.24 2019.94,1384.24 2027.43,1384.24 2034.92,1384.24 2042.4,1384.24 2049.89,1384.24 2057.38,1384.24 2064.86,1384.24 2072.35,1384.24 2079.84,1384.24 
  2087.33,1384.24 2094.81,1384.24 2102.3,1384.24 2109.79,1384.24 2117.28,1384.24 2124.76,1384.24 2132.25,1384.24 2139.74,1384.24 2147.23,1384.24 2154.71,1384.24 
  2162.2,1384.24 
  "/>
<polyline clip-path="url(#clip432)" style="stroke:#3da44d; stroke-width:12; stroke-opacity:1; fill:none" points="
  365.223,1379.34 372.71,1377.94 380.197,1376.25 387.685,1374.24 395.172,1371.87 402.66,1369.09 410.147,1365.86 417.634,1362.14 425.122,1357.86 432.609,1352.99 
  440.097,1347.48 447.584,1341.27 455.071,1334.32 462.559,1326.57 470.046,1317.99 477.534,1308.51 485.021,1298.11 492.509,1286.73 499.996,1274.34 507.483,1260.9 
  514.971,1246.39 522.458,1230.79 529.946,1214.06 537.433,1196.2 544.92,1177.2 552.408,1157.06 559.895,1135.78 567.383,1113.37 574.87,1089.86 582.357,1065.27 
  589.845,1039.63 597.332,1012.99 604.82,985.385 612.307,956.881 619.795,927.538 627.282,897.423 634.769,866.612 642.257,835.184 649.744,803.228 657.232,770.833 
  664.719,738.097 672.206,705.118 679.694,672 687.181,638.848 694.669,605.772 702.156,572.88 709.643,540.282 717.131,508.088 724.618,476.409 732.106,445.353 
  739.593,415.026 747.081,385.531 754.568,356.971 762.055,329.441 769.543,303.035 777.03,277.84 784.518,253.939 792.005,231.409 799.492,210.322 806.98,190.74 
  814.467,172.723 821.955,156.32 829.442,141.576 836.929,128.527 844.417,117.203 851.904,107.625 859.392,99.8076 866.879,93.7583 874.367,89.4772 881.854,86.9575 
  889.341,86.1857 896.829,87.1415 904.316,89.7985 911.804,94.1243 919.291,100.081 926.778,107.625 934.266,116.708 941.753,127.277 949.241,139.276 956.728,152.643 
  964.215,167.314 971.703,183.223 979.19,200.299 986.678,218.473 994.165,237.669 1001.65,257.815 1009.14,278.834 1016.63,300.651 1024.11,323.191 1031.6,346.377 
  1039.09,370.135 1046.58,394.39 1054.06,419.071 1061.55,444.105 1069.04,469.423 1076.53,494.957 1084.01,520.641 1091.5,546.413 1098.99,572.212 1106.48,597.98 
  1113.96,623.661 1121.45,649.203 1128.94,674.556 1136.43,699.675 1143.91,724.515 1151.4,749.037 1158.89,773.203 1166.38,796.978 1173.86,820.331 1181.35,843.235 
  1188.84,865.663 1196.33,887.593 1203.81,909.005 1211.3,929.882 1218.79,950.21 1226.27,969.977 1233.76,989.172 1241.25,1007.79 1248.74,1025.82 1256.22,1043.27 
  1263.71,1060.13 1271.2,1076.4 1278.69,1092.09 1286.17,1107.19 1293.66,1121.72 1301.15,1135.68 1308.64,1149.08 1316.12,1161.93 1323.61,1174.23 1331.1,1186 
  1338.59,1197.25 1346.07,1207.99 1353.56,1218.24 1361.05,1228.01 1368.54,1237.31 1376.02,1246.15 1383.51,1254.56 1391,1262.53 1398.49,1270.1 1405.97,1277.28 
  1413.46,1284.07 1420.95,1290.49 1428.43,1296.56 1435.92,1302.3 1443.41,1307.71 1450.9,1312.81 1458.38,1317.62 1465.87,1322.14 1473.36,1326.4 1480.85,1330.4 
  1488.33,1334.15 1495.82,1337.68 1503.31,1340.98 1510.8,1344.07 1518.28,1346.97 1525.77,1349.68 1533.26,1352.21 1540.75,1354.58 1548.23,1356.78 1555.72,1358.84 
  1563.21,1360.76 1570.7,1362.55 1578.18,1364.21 1585.67,1365.76 1593.16,1367.19 1600.65,1368.53 1608.13,1369.77 1615.62,1370.92 1623.11,1371.98 1630.6,1372.97 
  1638.08,1373.88 1645.57,1374.72 1653.06,1375.51 1660.54,1376.23 1668.03,1376.89 1675.52,1377.51 1683.01,1378.07 1690.49,1378.59 1697.98,1379.07 1705.47,1379.52 
  1712.96,1379.92 1720.44,1380.3 1727.93,1380.64 1735.42,1380.95 1742.91,1381.24 1750.39,1381.51 1757.88,1381.75 1765.37,1381.97 1772.86,1382.18 1780.34,1382.36 
  1787.83,1382.53 1795.32,1382.69 1802.81,1382.83 1810.29,1382.96 1817.78,1383.08 1825.27,1383.19 1832.76,1383.29 1840.24,1383.38 1847.73,1383.46 1855.22,1383.53 
  1862.7,1383.6 1870.19,1383.66 1877.68,1383.72 1885.17,1383.77 1892.65,1383.81 1900.14,1383.85 1907.63,1383.89 1915.12,1383.93 1922.6,1383.96 1930.09,1383.98 
  1937.58,1384.01 1945.07,1384.03 1952.55,1384.05 1960.04,1384.07 1967.53,1384.09 1975.02,1384.1 1982.5,1384.12 1989.99,1384.13 1997.48,1384.14 2004.97,1384.15 
  2012.45,1384.16 2019.94,1384.17 2027.43,1384.18 2034.92,1384.18 2042.4,1384.19 2049.89,1384.19 2057.38,1384.2 2064.86,1384.2 2072.35,1384.21 2079.84,1384.21 
  2087.33,1384.21 2094.81,1384.22 2102.3,1384.22 2109.79,1384.22 2117.28,1384.22 2124.76,1384.22 2132.25,1384.23 2139.74,1384.23 2147.23,1384.23 2154.71,1384.23 
  2162.2,1384.23 
  "/>
<path clip-path="url(#clip430)" d="
M1778.33 335.029 L2282.65 335.029 L2282.65 93.1086 L1778.33 93.1086  Z
  " fill="#ffffff" fill-rule="evenodd" fill-opacity="1"/>
<polyline clip-path="url(#clip430)" style="stroke:#000000; stroke-width:4; stroke-opacity:1; fill:none" points="
  1778.33,335.029 2282.65,335.029 2282.65,93.1086 1778.33,93.1086 1778.33,335.029 
  "/>
<path clip-path="url(#clip430)" d="
M1801.7 177.781 L1941.92 177.781 L1941.92 129.397 L1801.7 129.397 L1801.7 177.781  Z
  " fill="#009af9" fill-rule="evenodd" fill-opacity="1"/>
<polyline clip-path="url(#clip430)" style="stroke:#009af9; stroke-width:4; stroke-opacity:1; fill:none" points="
  1801.7,177.781 1941.92,177.781 1941.92,129.397 1801.7,129.397 1801.7,177.781 
  "/>
<path clip-path="url(#clip430)" d="M 0 0 M1979.13 173.276 Q1977.32 177.906 1975.61 179.318 Q1973.9 180.73 1971.03 180.73 L1967.63 180.73 L1967.63 177.165 L1970.13 177.165 Q1971.88 177.165 1972.86 176.332 Q1973.83 175.498 1975.01 172.396 L1975.77 170.452 L1965.29 144.943 L1969.8 144.943 L1977.9 165.221 L1986 144.943 L1990.52 144.943 L1979.13 173.276 Z" fill="#000000" fill-rule="evenodd" fill-opacity="1" /><path clip-path="url(#clip430)" d="M 0 0 M1997.81 166.933 L2005.45 166.933 L2005.45 140.568 L1997.14 142.235 L1997.14 137.975 L2005.4 136.309 L2010.08 136.309 L2010.08 166.933 L2017.72 166.933 L2017.72 170.869 L1997.81 170.869 L1997.81 166.933 Z" fill="#000000" fill-rule="evenodd" fill-opacity="1" /><polyline clip-path="url(#clip430)" style="stroke:#e26f46; stroke-width:4; stroke-opacity:1; fill:none" points="
  1801.7,214.069 1941.92,214.069 
  "/>
<path clip-path="url(#clip430)" d="M 0 0 M1984.2 218.085 Q1984.2 213.455 1982.28 210.909 Q1980.38 208.363 1976.93 208.363 Q1973.5 208.363 1971.58 210.909 Q1969.69 213.455 1969.69 218.085 Q1969.69 222.691 1971.58 225.238 Q1973.5 227.784 1976.93 227.784 Q1980.38 227.784 1982.28 225.238 Q1984.2 222.691 1984.2 218.085 M1988.46 228.131 Q1988.46 234.751 1985.52 237.969 Q1982.58 241.21 1976.51 241.21 Q1974.27 241.21 1972.28 240.862 Q1970.29 240.538 1968.41 239.844 L1968.41 235.7 Q1970.29 236.719 1972.12 237.205 Q1973.94 237.691 1975.84 237.691 Q1980.03 237.691 1982.12 235.492 Q1984.2 233.316 1984.2 228.895 L1984.2 226.788 Q1982.88 229.08 1980.82 230.214 Q1978.76 231.349 1975.89 231.349 Q1971.12 231.349 1968.2 227.714 Q1965.29 224.08 1965.29 218.085 Q1965.29 212.066 1968.2 208.432 Q1971.12 204.798 1975.89 204.798 Q1978.76 204.798 1980.82 205.932 Q1982.88 207.066 1984.2 209.358 L1984.2 205.423 L1988.46 205.423 L1988.46 228.131 Z" fill="#000000" fill-rule="evenodd" fill-opacity="1" /><path clip-path="url(#clip430)" d="M 0 0 M2009.01 218.316 Q2003.85 218.316 2001.86 219.497 Q1999.87 220.677 1999.87 223.525 Q1999.87 225.793 2001.35 227.136 Q2002.86 228.455 2005.43 228.455 Q2008.97 228.455 2011.1 225.955 Q2013.25 223.432 2013.25 219.265 L2013.25 218.316 L2009.01 218.316 M2017.51 216.557 L2017.51 231.349 L2013.25 231.349 L2013.25 227.413 Q2011.79 229.775 2009.62 230.909 Q2007.44 232.02 2004.29 232.02 Q2000.31 232.02 1997.95 229.798 Q1995.61 227.552 1995.61 223.802 Q1995.61 219.427 1998.53 217.205 Q2001.47 214.983 2007.28 214.983 L2013.25 214.983 L2013.25 214.566 Q2013.25 211.627 2011.31 210.029 Q2009.38 208.409 2005.89 208.409 Q2003.67 208.409 2001.56 208.941 Q1999.45 209.474 1997.51 210.539 L1997.51 206.603 Q1999.85 205.701 2002.05 205.261 Q2004.25 204.798 2006.33 204.798 Q2011.95 204.798 2014.73 207.714 Q2017.51 210.631 2017.51 216.557 Z" fill="#000000" fill-rule="evenodd" fill-opacity="1" /><path clip-path="url(#clip430)" d="M 0 0 M2025.84 221.117 L2025.84 205.423 L2030.1 205.423 L2030.1 220.955 Q2030.1 224.636 2031.54 226.488 Q2032.97 228.316 2035.84 228.316 Q2039.29 228.316 2041.28 226.117 Q2043.3 223.918 2043.3 220.122 L2043.3 205.423 L2047.56 205.423 L2047.56 231.349 L2043.3 231.349 L2043.3 227.367 Q2041.75 229.728 2039.68 230.886 Q2037.65 232.02 2034.94 232.02 Q2030.47 232.02 2028.16 229.242 Q2025.84 226.464 2025.84 221.117 M2036.56 204.798 L2036.56 204.798 Z" fill="#000000" fill-rule="evenodd" fill-opacity="1" /><path clip-path="url(#clip430)" d="M 0 0 M2072.86 206.187 L2072.86 210.214 Q2071.05 209.289 2069.11 208.826 Q2067.16 208.363 2065.08 208.363 Q2061.91 208.363 2060.31 209.335 Q2058.74 210.307 2058.74 212.251 Q2058.74 213.733 2059.87 214.589 Q2061 215.423 2064.43 216.187 L2065.89 216.511 Q2070.43 217.483 2072.32 219.265 Q2074.24 221.025 2074.24 224.196 Q2074.24 227.807 2071.37 229.913 Q2068.53 232.02 2063.53 232.02 Q2061.44 232.02 2059.18 231.603 Q2056.93 231.21 2054.43 230.4 L2054.43 226.001 Q2056.79 227.228 2059.08 227.853 Q2061.37 228.455 2063.62 228.455 Q2066.63 228.455 2068.25 227.437 Q2069.87 226.395 2069.87 224.52 Q2069.87 222.784 2068.69 221.858 Q2067.53 220.932 2063.57 220.076 L2062.09 219.728 Q2058.13 218.895 2056.37 217.182 Q2054.62 215.446 2054.62 212.437 Q2054.62 208.779 2057.21 206.789 Q2059.8 204.798 2064.57 204.798 Q2066.93 204.798 2069.01 205.145 Q2071.1 205.492 2072.86 206.187 Z" fill="#000000" fill-rule="evenodd" fill-opacity="1" /><path clip-path="url(#clip430)" d="M 0 0 M2097.55 206.187 L2097.55 210.214 Q2095.75 209.289 2093.8 208.826 Q2091.86 208.363 2089.78 208.363 Q2086.61 208.363 2085.01 209.335 Q2083.43 210.307 2083.43 212.251 Q2083.43 213.733 2084.57 214.589 Q2085.7 215.423 2089.13 216.187 L2090.59 216.511 Q2095.12 217.483 2097.02 219.265 Q2098.94 221.025 2098.94 224.196 Q2098.94 227.807 2096.07 229.913 Q2093.23 232.02 2088.23 232.02 Q2086.14 232.02 2083.87 231.603 Q2081.63 231.21 2079.13 230.4 L2079.13 226.001 Q2081.49 227.228 2083.78 227.853 Q2086.07 228.455 2088.32 228.455 Q2091.33 228.455 2092.95 227.437 Q2094.57 226.395 2094.57 224.52 Q2094.57 222.784 2093.39 221.858 Q2092.23 220.932 2088.27 220.076 L2086.79 219.728 Q2082.83 218.895 2081.07 217.182 Q2079.31 215.446 2079.31 212.437 Q2079.31 208.779 2081.91 206.789 Q2084.5 204.798 2089.27 204.798 Q2091.63 204.798 2093.71 205.145 Q2095.8 205.492 2097.55 206.187 Z" fill="#000000" fill-rule="evenodd" fill-opacity="1" /><path clip-path="url(#clip430)" d="M 0 0 M2105.73 205.423 L2109.99 205.423 L2109.99 231.349 L2105.73 231.349 L2105.73 205.423 M2105.73 195.33 L2109.99 195.33 L2109.99 200.724 L2105.73 200.724 L2105.73 195.33 Z" fill="#000000" fill-rule="evenodd" fill-opacity="1" /><path clip-path="url(#clip430)" d="M 0 0 M2130.68 218.316 Q2125.52 218.316 2123.53 219.497 Q2121.54 220.677 2121.54 223.525 Q2121.54 225.793 2123.02 227.136 Q2124.52 228.455 2127.09 228.455 Q2130.63 228.455 2132.76 225.955 Q2134.92 223.432 2134.92 219.265 L2134.92 218.316 L2130.68 218.316 M2139.18 216.557 L2139.18 231.349 L2134.92 231.349 L2134.92 227.413 Q2133.46 229.775 2131.28 230.909 Q2129.11 232.02 2125.96 232.02 Q2121.98 232.02 2119.62 229.798 Q2117.28 227.552 2117.28 223.802 Q2117.28 219.427 2120.19 217.205 Q2123.13 214.983 2128.94 214.983 L2134.92 214.983 L2134.92 214.566 Q2134.92 211.627 2132.97 210.029 Q2131.05 208.409 2127.55 208.409 Q2125.33 208.409 2123.23 208.941 Q2121.12 209.474 2119.18 210.539 L2119.18 206.603 Q2121.51 205.701 2123.71 205.261 Q2125.91 204.798 2127.99 204.798 Q2133.62 204.798 2136.4 207.714 Q2139.18 210.631 2139.18 216.557 Z" fill="#000000" fill-rule="evenodd" fill-opacity="1" /><path clip-path="url(#clip430)" d="M 0 0 M2169.5 215.701 L2169.5 231.349 L2165.24 231.349 L2165.24 215.839 Q2165.24 212.159 2163.8 210.33 Q2162.37 208.502 2159.5 208.502 Q2156.05 208.502 2154.06 210.701 Q2152.07 212.9 2152.07 216.696 L2152.07 231.349 L2147.79 231.349 L2147.79 205.423 L2152.07 205.423 L2152.07 209.451 Q2153.6 207.113 2155.66 205.955 Q2157.74 204.798 2160.45 204.798 Q2164.92 204.798 2167.21 207.576 Q2169.5 210.33 2169.5 215.701 Z" fill="#000000" fill-rule="evenodd" fill-opacity="1" /><path clip-path="url(#clip430)" d="M 0 0 M2206.19 195.33 L2206.19 198.872 L2202.11 198.872 Q2199.82 198.872 2198.92 199.798 Q2198.04 200.724 2198.04 203.131 L2198.04 205.423 L2205.05 205.423 L2205.05 208.733 L2198.04 208.733 L2198.04 231.349 L2193.76 231.349 L2193.76 208.733 L2189.68 208.733 L2189.68 205.423 L2193.76 205.423 L2193.76 203.617 Q2193.76 199.289 2195.77 197.321 Q2197.79 195.33 2202.16 195.33 L2206.19 195.33 Z" fill="#000000" fill-rule="evenodd" fill-opacity="1" /><path clip-path="url(#clip430)" d="M 0 0 M2209.75 205.423 L2214.01 205.423 L2214.01 231.349 L2209.75 231.349 L2209.75 205.423 M2209.75 195.33 L2214.01 195.33 L2214.01 200.724 L2209.75 200.724 L2209.75 195.33 Z" fill="#000000" fill-rule="evenodd" fill-opacity="1" /><path clip-path="url(#clip430)" d="M 0 0 M2227.14 198.062 L2227.14 205.423 L2235.91 205.423 L2235.91 208.733 L2227.14 208.733 L2227.14 222.807 Q2227.14 225.978 2227.99 226.881 Q2228.87 227.784 2231.54 227.784 L2235.91 227.784 L2235.91 231.349 L2231.54 231.349 Q2226.61 231.349 2224.73 229.52 Q2222.86 227.668 2222.86 222.807 L2222.86 208.733 L2219.73 208.733 L2219.73 205.423 L2222.86 205.423 L2222.86 198.062 L2227.14 198.062 Z" fill="#000000" fill-rule="evenodd" fill-opacity="1" /><polyline clip-path="url(#clip430)" style="stroke:#3da44d; stroke-width:4; stroke-opacity:1; fill:none" points="
  1801.7,274.549 1941.92,274.549 
  "/>
<path clip-path="url(#clip430)" d="M 0 0 M1969.57 287.94 L1969.57 301.69 L1965.29 301.69 L1965.29 265.903 L1969.57 265.903 L1969.57 269.838 Q1970.91 267.523 1972.95 266.412 Q1975.01 265.278 1977.86 265.278 Q1982.58 265.278 1985.52 269.028 Q1988.48 272.778 1988.48 278.889 Q1988.48 285 1985.52 288.75 Q1982.58 292.5 1977.86 292.5 Q1975.01 292.5 1972.95 291.389 Q1970.91 290.255 1969.57 287.94 M1984.06 278.889 Q1984.06 274.19 1982.12 271.528 Q1980.19 268.843 1976.81 268.843 Q1973.44 268.843 1971.49 271.528 Q1969.57 274.19 1969.57 278.889 Q1969.57 283.588 1971.49 286.273 Q1973.44 288.935 1976.81 288.935 Q1980.19 288.935 1982.12 286.273 Q1984.06 283.588 1984.06 278.889 Z" fill="#000000" fill-rule="evenodd" fill-opacity="1" /><path clip-path="url(#clip430)" d="M 0 0 M2005.59 268.889 Q2002.16 268.889 2000.17 271.574 Q1998.18 274.236 1998.18 278.889 Q1998.18 283.542 2000.15 286.227 Q2002.14 288.889 2005.59 288.889 Q2008.99 288.889 2010.98 286.204 Q2012.97 283.518 2012.97 278.889 Q2012.97 274.282 2010.98 271.597 Q2008.99 268.889 2005.59 268.889 M2005.59 265.278 Q2011.14 265.278 2014.31 268.889 Q2017.49 272.5 2017.49 278.889 Q2017.49 285.255 2014.31 288.889 Q2011.14 292.5 2005.59 292.5 Q2000.01 292.5 1996.84 288.889 Q1993.69 285.255 1993.69 278.889 Q1993.69 272.5 1996.84 268.889 Q2000.01 265.278 2005.59 265.278 Z" fill="#000000" fill-rule="evenodd" fill-opacity="1" /><path clip-path="url(#clip430)" d="M 0 0 M2024.55 265.903 L2028.81 265.903 L2028.81 291.829 L2024.55 291.829 L2024.55 265.903 M2024.55 255.81 L2028.81 255.81 L2028.81 261.204 L2024.55 261.204 L2024.55 255.81 Z" fill="#000000" fill-rule="evenodd" fill-opacity="1" /><path clip-path="url(#clip430)" d="M 0 0 M2054.24 266.667 L2054.24 270.694 Q2052.44 269.769 2050.5 269.306 Q2048.55 268.843 2046.47 268.843 Q2043.3 268.843 2041.7 269.815 Q2040.12 270.787 2040.12 272.731 Q2040.12 274.213 2041.26 275.069 Q2042.39 275.903 2045.82 276.667 L2047.28 276.991 Q2051.81 277.963 2053.71 279.745 Q2055.63 281.505 2055.63 284.676 Q2055.63 288.287 2052.76 290.393 Q2049.92 292.5 2044.92 292.5 Q2042.83 292.5 2040.56 292.083 Q2038.32 291.69 2035.82 290.88 L2035.82 286.481 Q2038.18 287.708 2040.47 288.333 Q2042.76 288.935 2045.01 288.935 Q2048.02 288.935 2049.64 287.917 Q2051.26 286.875 2051.26 285 Q2051.26 283.264 2050.08 282.338 Q2048.92 281.412 2044.96 280.556 L2043.48 280.208 Q2039.52 279.375 2037.76 277.662 Q2036 275.926 2036 272.917 Q2036 269.259 2038.6 267.269 Q2041.19 265.278 2045.96 265.278 Q2048.32 265.278 2050.4 265.625 Q2052.49 265.972 2054.24 266.667 Z" fill="#000000" fill-rule="evenodd" fill-opacity="1" /><path clip-path="url(#clip430)" d="M 0 0 M2078.94 266.667 L2078.94 270.694 Q2077.14 269.769 2075.19 269.306 Q2073.25 268.843 2071.17 268.843 Q2067.99 268.843 2066.4 269.815 Q2064.82 270.787 2064.82 272.731 Q2064.82 274.213 2065.96 275.069 Q2067.09 275.903 2070.52 276.667 L2071.98 276.991 Q2076.51 277.963 2078.41 279.745 Q2080.33 281.505 2080.33 284.676 Q2080.33 288.287 2077.46 290.393 Q2074.62 292.5 2069.62 292.5 Q2067.53 292.5 2065.26 292.083 Q2063.02 291.69 2060.52 290.88 L2060.52 286.481 Q2062.88 287.708 2065.17 288.333 Q2067.46 288.935 2069.71 288.935 Q2072.72 288.935 2074.34 287.917 Q2075.96 286.875 2075.96 285 Q2075.96 283.264 2074.78 282.338 Q2073.62 281.412 2069.66 280.556 L2068.18 280.208 Q2064.22 279.375 2062.46 277.662 Q2060.7 275.926 2060.7 272.917 Q2060.7 269.259 2063.3 267.269 Q2065.89 265.278 2070.66 265.278 Q2073.02 265.278 2075.1 265.625 Q2077.18 265.972 2078.94 266.667 Z" fill="#000000" fill-rule="evenodd" fill-opacity="1" /><path clip-path="url(#clip430)" d="M 0 0 M2097.16 268.889 Q2093.74 268.889 2091.74 271.574 Q2089.75 274.236 2089.75 278.889 Q2089.75 283.542 2091.72 286.227 Q2093.71 288.889 2097.16 288.889 Q2100.56 288.889 2102.55 286.204 Q2104.55 283.518 2104.55 278.889 Q2104.55 274.282 2102.55 271.597 Q2100.56 268.889 2097.16 268.889 M2097.16 265.278 Q2102.72 265.278 2105.89 268.889 Q2109.06 272.5 2109.06 278.889 Q2109.06 285.255 2105.89 288.889 Q2102.72 292.5 2097.16 292.5 Q2091.58 292.5 2088.41 288.889 Q2085.26 285.255 2085.26 278.889 Q2085.26 272.5 2088.41 268.889 Q2091.58 265.278 2097.16 265.278 Z" fill="#000000" fill-rule="evenodd" fill-opacity="1" /><path clip-path="url(#clip430)" d="M 0 0 M2137.67 276.181 L2137.67 291.829 L2133.41 291.829 L2133.41 276.319 Q2133.41 272.639 2131.98 270.81 Q2130.54 268.982 2127.67 268.982 Q2124.22 268.982 2122.23 271.181 Q2120.24 273.38 2120.24 277.176 L2120.24 291.829 L2115.96 291.829 L2115.96 265.903 L2120.24 265.903 L2120.24 269.931 Q2121.77 267.593 2123.83 266.435 Q2125.91 265.278 2128.62 265.278 Q2133.09 265.278 2135.38 268.056 Q2137.67 270.81 2137.67 276.181 Z" fill="#000000" fill-rule="evenodd" fill-opacity="1" /><path clip-path="url(#clip430)" d="M 0 0 M2174.36 255.81 L2174.36 259.352 L2170.29 259.352 Q2167.99 259.352 2167.09 260.278 Q2166.21 261.204 2166.21 263.611 L2166.21 265.903 L2173.23 265.903 L2173.23 269.213 L2166.21 269.213 L2166.21 291.829 L2161.93 291.829 L2161.93 269.213 L2157.86 269.213 L2157.86 265.903 L2161.93 265.903 L2161.93 264.097 Q2161.93 259.769 2163.94 257.801 Q2165.96 255.81 2170.33 255.81 L2174.36 255.81 Z" fill="#000000" fill-rule="evenodd" fill-opacity="1" /><path clip-path="url(#clip430)" d="M 0 0 M2177.92 265.903 L2182.18 265.903 L2182.18 291.829 L2177.92 291.829 L2177.92 265.903 M2177.92 255.81 L2182.18 255.81 L2182.18 261.204 L2177.92 261.204 L2177.92 255.81 Z" fill="#000000" fill-rule="evenodd" fill-opacity="1" /><path clip-path="url(#clip430)" d="M 0 0 M2195.31 258.542 L2195.31 265.903 L2204.08 265.903 L2204.08 269.213 L2195.31 269.213 L2195.31 283.287 Q2195.31 286.458 2196.17 287.361 Q2197.05 288.264 2199.71 288.264 L2204.08 288.264 L2204.08 291.829 L2199.71 291.829 Q2194.78 291.829 2192.9 290 Q2191.03 288.148 2191.03 283.287 L2191.03 269.213 L2187.9 269.213 L2187.9 265.903 L2191.03 265.903 L2191.03 258.542 L2195.31 258.542 Z" fill="#000000" fill-rule="evenodd" fill-opacity="1" /></svg>
