<?xml version="1.0" encoding="utf-8"?>
<svg xmlns="http://www.w3.org/2000/svg" xmlns:xlink="http://www.w3.org/1999/xlink" width="600" height="400" viewBox="0 0 2400 1600">
<defs>
  <clipPath id="clip680">
    <rect x="0" y="0" width="2400" height="1600"/>
  </clipPath>
</defs>
<path clip-path="url(#clip680)" d="
M0 1600 L2400 1600 L2400 0 L0 0  Z
  " fill="#ffffff" fill-rule="evenodd" fill-opacity="1"/>
<defs>
  <clipPath id="clip681">
    <rect x="480" y="0" width="1681" height="1600"/>
  </clipPath>
</defs>
<defs>
  <clipPath id="clip682">
    <rect x="346" y="47" width="2007" height="1381"/>
  </clipPath>
</defs>
<path clip-path="url(#clip680)" d="
M375.472 1427.11 L2352.76 1427.11 L2352.76 47.2441 L375.472 47.2441  Z
  " fill="#ffffff" fill-rule="evenodd" fill-opacity="1"/>
<defs>
  <clipPath id="clip683">
    <rect x="375" y="47" width="1978" height="1381"/>
  </clipPath>
</defs>
<polyline clip-path="url(#clip683)" style="stroke:#000000; stroke-linecap:butt; stroke-linejoin:round; stroke-width:2; stroke-opacity:0.1; fill:none" points="
  431.433,1427.11 431.433,47.2441 
  "/>
<polyline clip-path="url(#clip683)" style="stroke:#000000; stroke-linecap:butt; stroke-linejoin:round; stroke-width:2; stroke-opacity:0.1; fill:none" points="
  897.773,1427.11 897.773,47.2441 
  "/>
<polyline clip-path="url(#clip683)" style="stroke:#000000; stroke-linecap:butt; stroke-linejoin:round; stroke-width:2; stroke-opacity:0.1; fill:none" points="
  1364.11,1427.11 1364.11,47.2441 
  "/>
<polyline clip-path="url(#clip683)" style="stroke:#000000; stroke-linecap:butt; stroke-linejoin:round; stroke-width:2; stroke-opacity:0.1; fill:none" points="
  1830.45,1427.11 1830.45,47.2441 
  "/>
<polyline clip-path="url(#clip683)" style="stroke:#000000; stroke-linecap:butt; stroke-linejoin:round; stroke-width:2; stroke-opacity:0.1; fill:none" points="
  2296.8,1427.11 2296.8,47.2441 
  "/>
<polyline clip-path="url(#clip680)" style="stroke:#000000; stroke-linecap:butt; stroke-linejoin:round; stroke-width:4; stroke-opacity:1; fill:none" points="
  375.472,1427.11 2352.76,1427.11 
  "/>
<polyline clip-path="url(#clip680)" style="stroke:#000000; stroke-linecap:butt; stroke-linejoin:round; stroke-width:4; stroke-opacity:1; fill:none" points="
  431.433,1427.11 431.433,1408.21 
  "/>
<polyline clip-path="url(#clip680)" style="stroke:#000000; stroke-linecap:butt; stroke-linejoin:round; stroke-width:4; stroke-opacity:1; fill:none" points="
  897.773,1427.11 897.773,1408.21 
  "/>
<polyline clip-path="url(#clip680)" style="stroke:#000000; stroke-linecap:butt; stroke-linejoin:round; stroke-width:4; stroke-opacity:1; fill:none" points="
  1364.11,1427.11 1364.11,1408.21 
  "/>
<polyline clip-path="url(#clip680)" style="stroke:#000000; stroke-linecap:butt; stroke-linejoin:round; stroke-width:4; stroke-opacity:1; fill:none" points="
  1830.45,1427.11 1830.45,1408.21 
  "/>
<polyline clip-path="url(#clip680)" style="stroke:#000000; stroke-linecap:butt; stroke-linejoin:round; stroke-width:4; stroke-opacity:1; fill:none" points="
  2296.8,1427.11 2296.8,1408.21 
  "/>
<path clip-path="url(#clip680)" d="M393.736 1456.3 Q390.125 1456.3 388.296 1459.86 Q386.491 1463.41 386.491 1470.54 Q386.491 1477.64 388.296 1481.21 Q390.125 1484.75 393.736 1484.75 Q397.371 1484.75 399.176 1481.21 Q401.005 1477.64 401.005 1470.54 Q401.005 1463.41 399.176 1459.86 Q397.371 1456.3 393.736 1456.3 M393.736 1452.6 Q399.546 1452.6 402.602 1457.2 Q405.681 1461.79 405.681 1470.54 Q405.681 1479.26 402.602 1483.87 Q399.546 1488.45 393.736 1488.45 Q387.926 1488.45 384.847 1483.87 Q381.792 1479.26 381.792 1470.54 Q381.792 1461.79 384.847 1457.2 Q387.926 1452.6 393.736 1452.6 Z" fill="#000000" fill-rule="evenodd" fill-opacity="1" /><path clip-path="url(#clip680)" d="M413.898 1481.9 L418.782 1481.9 L418.782 1487.78 L413.898 1487.78 L413.898 1481.9 Z" fill="#000000" fill-rule="evenodd" fill-opacity="1" /><path clip-path="url(#clip680)" d="M438.968 1456.3 Q435.356 1456.3 433.528 1459.86 Q431.722 1463.41 431.722 1470.54 Q431.722 1477.64 433.528 1481.21 Q435.356 1484.75 438.968 1484.75 Q442.602 1484.75 444.407 1481.21 Q446.236 1477.64 446.236 1470.54 Q446.236 1463.41 444.407 1459.86 Q442.602 1456.3 438.968 1456.3 M438.968 1452.6 Q444.778 1452.6 447.833 1457.2 Q450.912 1461.79 450.912 1470.54 Q450.912 1479.26 447.833 1483.87 Q444.778 1488.45 438.968 1488.45 Q433.157 1488.45 430.079 1483.87 Q427.023 1479.26 427.023 1470.54 Q427.023 1461.79 430.079 1457.2 Q433.157 1452.6 438.968 1452.6 Z" fill="#000000" fill-rule="evenodd" fill-opacity="1" /><path clip-path="url(#clip680)" d="M469.129 1456.3 Q465.518 1456.3 463.69 1459.86 Q461.884 1463.41 461.884 1470.54 Q461.884 1477.64 463.69 1481.21 Q465.518 1484.75 469.129 1484.75 Q472.764 1484.75 474.569 1481.21 Q476.398 1477.64 476.398 1470.54 Q476.398 1463.41 474.569 1459.86 Q472.764 1456.3 469.129 1456.3 M469.129 1452.6 Q474.94 1452.6 477.995 1457.2 Q481.074 1461.79 481.074 1470.54 Q481.074 1479.26 477.995 1483.87 Q474.94 1488.45 469.129 1488.45 Q463.319 1488.45 460.241 1483.87 Q457.185 1479.26 457.185 1470.54 Q457.185 1461.79 460.241 1457.2 Q463.319 1452.6 469.129 1452.6 Z" fill="#000000" fill-rule="evenodd" fill-opacity="1" /><path clip-path="url(#clip680)" d="M860.575 1456.3 Q856.963 1456.3 855.135 1459.86 Q853.329 1463.41 853.329 1470.54 Q853.329 1477.64 855.135 1481.21 Q856.963 1484.75 860.575 1484.75 Q864.209 1484.75 866.014 1481.21 Q867.843 1477.64 867.843 1470.54 Q867.843 1463.41 866.014 1459.86 Q864.209 1456.3 860.575 1456.3 M860.575 1452.6 Q866.385 1452.6 869.44 1457.2 Q872.519 1461.79 872.519 1470.54 Q872.519 1479.26 869.44 1483.87 Q866.385 1488.45 860.575 1488.45 Q854.764 1488.45 851.686 1483.87 Q848.63 1479.26 848.63 1470.54 Q848.63 1461.79 851.686 1457.2 Q854.764 1452.6 860.575 1452.6 Z" fill="#000000" fill-rule="evenodd" fill-opacity="1" /><path clip-path="url(#clip680)" d="M880.736 1481.9 L885.621 1481.9 L885.621 1487.78 L880.736 1487.78 L880.736 1481.9 Z" fill="#000000" fill-rule="evenodd" fill-opacity="1" /><path clip-path="url(#clip680)" d="M899.834 1483.85 L916.153 1483.85 L916.153 1487.78 L894.209 1487.78 L894.209 1483.85 Q896.871 1481.09 901.454 1476.46 Q906.06 1471.81 907.241 1470.47 Q909.486 1467.94 910.366 1466.21 Q911.269 1464.45 911.269 1462.76 Q911.269 1460 909.324 1458.27 Q907.403 1456.53 904.301 1456.53 Q902.102 1456.53 899.648 1457.3 Q897.218 1458.06 894.44 1459.61 L894.44 1454.89 Q897.264 1453.75 899.718 1453.17 Q902.172 1452.6 904.209 1452.6 Q909.579 1452.6 912.773 1455.28 Q915.968 1457.97 915.968 1462.46 Q915.968 1464.59 915.158 1466.51 Q914.371 1468.41 912.264 1471 Q911.685 1471.67 908.584 1474.89 Q905.482 1478.08 899.834 1483.85 Z" fill="#000000" fill-rule="evenodd" fill-opacity="1" /><path clip-path="url(#clip680)" d="M926.014 1453.22 L944.37 1453.22 L944.37 1457.16 L930.296 1457.16 L930.296 1465.63 Q931.315 1465.28 932.333 1465.12 Q933.352 1464.93 934.37 1464.93 Q940.157 1464.93 943.537 1468.11 Q946.917 1471.28 946.917 1476.69 Q946.917 1482.27 943.444 1485.37 Q939.972 1488.45 933.653 1488.45 Q931.477 1488.45 929.208 1488.08 Q926.963 1487.71 924.556 1486.97 L924.556 1482.27 Q926.639 1483.41 928.861 1483.96 Q931.083 1484.52 933.56 1484.52 Q937.565 1484.52 939.903 1482.41 Q942.241 1480.3 942.241 1476.69 Q942.241 1473.08 939.903 1470.98 Q937.565 1468.87 933.56 1468.87 Q931.685 1468.87 929.81 1469.29 Q927.958 1469.7 926.014 1470.58 L926.014 1453.22 Z" fill="#000000" fill-rule="evenodd" fill-opacity="1" /><path clip-path="url(#clip680)" d="M1326.42 1456.3 Q1322.81 1456.3 1320.98 1459.86 Q1319.17 1463.41 1319.17 1470.54 Q1319.17 1477.64 1320.98 1481.21 Q1322.81 1484.75 1326.42 1484.75 Q1330.05 1484.75 1331.86 1481.21 Q1333.69 1477.64 1333.69 1470.54 Q1333.69 1463.41 1331.86 1459.86 Q1330.05 1456.3 1326.42 1456.3 M1326.42 1452.6 Q1332.23 1452.6 1335.28 1457.2 Q1338.36 1461.79 1338.36 1470.54 Q1338.36 1479.26 1335.28 1483.87 Q1332.23 1488.45 1326.42 1488.45 Q1320.61 1488.45 1317.53 1483.87 Q1314.47 1479.26 1314.47 1470.54 Q1314.47 1461.79 1317.53 1457.2 Q1320.61 1452.6 1326.42 1452.6 Z" fill="#000000" fill-rule="evenodd" fill-opacity="1" /><path clip-path="url(#clip680)" d="M1346.58 1481.9 L1351.46 1481.9 L1351.46 1487.78 L1346.58 1487.78 L1346.58 1481.9 Z" fill="#000000" fill-rule="evenodd" fill-opacity="1" /><path clip-path="url(#clip680)" d="M1361.69 1453.22 L1380.05 1453.22 L1380.05 1457.16 L1365.98 1457.16 L1365.98 1465.63 Q1367 1465.28 1368.01 1465.12 Q1369.03 1464.93 1370.05 1464.93 Q1375.84 1464.93 1379.22 1468.11 Q1382.6 1471.28 1382.6 1476.69 Q1382.6 1482.27 1379.13 1485.37 Q1375.65 1488.45 1369.33 1488.45 Q1367.16 1488.45 1364.89 1488.08 Q1362.64 1487.71 1360.24 1486.97 L1360.24 1482.27 Q1362.32 1483.41 1364.54 1483.96 Q1366.76 1484.52 1369.24 1484.52 Q1373.25 1484.52 1375.58 1482.41 Q1377.92 1480.3 1377.92 1476.69 Q1377.92 1473.08 1375.58 1470.98 Q1373.25 1468.87 1369.24 1468.87 Q1367.37 1468.87 1365.49 1469.29 Q1363.64 1469.7 1361.69 1470.58 L1361.69 1453.22 Z" fill="#000000" fill-rule="evenodd" fill-opacity="1" /><path clip-path="url(#clip680)" d="M1401.81 1456.3 Q1398.2 1456.3 1396.37 1459.86 Q1394.57 1463.41 1394.57 1470.54 Q1394.57 1477.64 1396.37 1481.21 Q1398.2 1484.75 1401.81 1484.75 Q1405.44 1484.75 1407.25 1481.21 Q1409.08 1477.64 1409.08 1470.54 Q1409.08 1463.41 1407.25 1459.86 Q1405.44 1456.3 1401.81 1456.3 M1401.81 1452.6 Q1407.62 1452.6 1410.68 1457.2 Q1413.75 1461.79 1413.75 1470.54 Q1413.75 1479.26 1410.68 1483.87 Q1407.62 1488.45 1401.81 1488.45 Q1396 1488.45 1392.92 1483.87 Q1389.87 1479.26 1389.87 1470.54 Q1389.87 1461.79 1392.92 1457.2 Q1396 1452.6 1401.81 1452.6 Z" fill="#000000" fill-rule="evenodd" fill-opacity="1" /><path clip-path="url(#clip680)" d="M1793.26 1456.3 Q1789.64 1456.3 1787.82 1459.86 Q1786.01 1463.41 1786.01 1470.54 Q1786.01 1477.64 1787.82 1481.21 Q1789.64 1484.75 1793.26 1484.75 Q1796.89 1484.75 1798.7 1481.21 Q1800.52 1477.64 1800.52 1470.54 Q1800.52 1463.41 1798.7 1459.86 Q1796.89 1456.3 1793.26 1456.3 M1793.26 1452.6 Q1799.07 1452.6 1802.12 1457.2 Q1805.2 1461.79 1805.2 1470.54 Q1805.2 1479.26 1802.12 1483.87 Q1799.07 1488.45 1793.26 1488.45 Q1787.45 1488.45 1784.37 1483.87 Q1781.31 1479.26 1781.31 1470.54 Q1781.31 1461.79 1784.37 1457.2 Q1787.45 1452.6 1793.26 1452.6 Z" fill="#000000" fill-rule="evenodd" fill-opacity="1" /><path clip-path="url(#clip680)" d="M1813.42 1481.9 L1818.3 1481.9 L1818.3 1487.78 L1813.42 1487.78 L1813.42 1481.9 Z" fill="#000000" fill-rule="evenodd" fill-opacity="1" /><path clip-path="url(#clip680)" d="M1827.31 1453.22 L1849.53 1453.22 L1849.53 1455.21 L1836.98 1487.78 L1832.1 1487.78 L1843.9 1457.16 L1827.31 1457.16 L1827.31 1453.22 Z" fill="#000000" fill-rule="evenodd" fill-opacity="1" /><path clip-path="url(#clip680)" d="M1858.7 1453.22 L1877.05 1453.22 L1877.05 1457.16 L1862.98 1457.16 L1862.98 1465.63 Q1864 1465.28 1865.01 1465.12 Q1866.03 1464.93 1867.05 1464.93 Q1872.84 1464.93 1876.22 1468.11 Q1879.6 1471.28 1879.6 1476.69 Q1879.6 1482.27 1876.13 1485.37 Q1872.65 1488.45 1866.33 1488.45 Q1864.16 1488.45 1861.89 1488.08 Q1859.64 1487.71 1857.24 1486.97 L1857.24 1482.27 Q1859.32 1483.41 1861.54 1483.96 Q1863.76 1484.52 1866.24 1484.52 Q1870.25 1484.52 1872.58 1482.41 Q1874.92 1480.3 1874.92 1476.69 Q1874.92 1473.08 1872.58 1470.98 Q1870.25 1468.87 1866.24 1468.87 Q1864.37 1468.87 1862.49 1469.29 Q1860.64 1469.7 1858.7 1470.58 L1858.7 1453.22 Z" fill="#000000" fill-rule="evenodd" fill-opacity="1" /><path clip-path="url(#clip680)" d="M2248.87 1483.85 L2256.51 1483.85 L2256.51 1457.48 L2248.2 1459.15 L2248.2 1454.89 L2256.46 1453.22 L2261.14 1453.22 L2261.14 1483.85 L2268.77 1483.85 L2268.77 1487.78 L2248.87 1487.78 L2248.87 1483.85 Z" fill="#000000" fill-rule="evenodd" fill-opacity="1" /><path clip-path="url(#clip680)" d="M2278.22 1481.9 L2283.1 1481.9 L2283.1 1487.78 L2278.22 1487.78 L2278.22 1481.9 Z" fill="#000000" fill-rule="evenodd" fill-opacity="1" /><path clip-path="url(#clip680)" d="M2303.29 1456.3 Q2299.68 1456.3 2297.85 1459.86 Q2296.04 1463.41 2296.04 1470.54 Q2296.04 1477.64 2297.85 1481.21 Q2299.68 1484.75 2303.29 1484.75 Q2306.92 1484.75 2308.73 1481.21 Q2310.56 1477.64 2310.56 1470.54 Q2310.56 1463.41 2308.73 1459.86 Q2306.92 1456.3 2303.29 1456.3 M2303.29 1452.6 Q2309.1 1452.6 2312.15 1457.2 Q2315.23 1461.79 2315.23 1470.54 Q2315.23 1479.26 2312.15 1483.87 Q2309.1 1488.45 2303.29 1488.45 Q2297.48 1488.45 2294.4 1483.87 Q2291.34 1479.26 2291.34 1470.54 Q2291.34 1461.79 2294.4 1457.2 Q2297.48 1452.6 2303.29 1452.6 Z" fill="#000000" fill-rule="evenodd" fill-opacity="1" /><path clip-path="url(#clip680)" d="M2333.45 1456.3 Q2329.84 1456.3 2328.01 1459.86 Q2326.2 1463.41 2326.2 1470.54 Q2326.2 1477.64 2328.01 1481.21 Q2329.84 1484.75 2333.45 1484.75 Q2337.08 1484.75 2338.89 1481.21 Q2340.72 1477.64 2340.72 1470.54 Q2340.72 1463.41 2338.89 1459.86 Q2337.08 1456.3 2333.45 1456.3 M2333.45 1452.6 Q2339.26 1452.6 2342.32 1457.2 Q2345.39 1461.79 2345.39 1470.54 Q2345.39 1479.26 2342.32 1483.87 Q2339.26 1488.45 2333.45 1488.45 Q2327.64 1488.45 2324.56 1483.87 Q2321.51 1479.26 2321.51 1470.54 Q2321.51 1461.79 2324.56 1457.2 Q2327.64 1452.6 2333.45 1452.6 Z" fill="#000000" fill-rule="evenodd" fill-opacity="1" /><path clip-path="url(#clip680)" d="M1352.91 1529.79 Q1352.91 1531.63 1351.78 1532.72 Q1350.69 1533.82 1349.3 1533.82 Q1348.08 1533.82 1347.44 1533.11 Q1346.79 1532.4 1346.79 1531.5 Q1346.79 1531.11 1346.95 1530.63 Q1347.11 1530.12 1347.47 1529.5 Q1347.85 1528.89 1348.66 1528.44 Q1349.46 1527.99 1350.56 1527.93 Q1350.33 1527.7 1350.27 1527.67 Q1349.79 1527.28 1348.89 1527.15 Q1348.76 1527.09 1348.31 1527.09 Q1346.08 1527.09 1343.83 1528.73 Q1341.61 1530.34 1338.87 1533.4 Q1335.42 1536.98 1333.2 1538.3 Q1342.96 1539.58 1342.96 1545.22 Q1342.96 1546.15 1342.7 1547.28 Q1342.19 1549.41 1342.19 1550.95 Q1342.19 1554.04 1344.28 1554.04 Q1346.31 1554.04 1347.6 1551.98 Q1348.92 1549.92 1350.01 1545.9 Q1350.17 1545.16 1350.33 1544.93 Q1350.5 1544.71 1350.95 1544.71 Q1351.75 1544.71 1351.75 1545.35 Q1351.01 1549.12 1349.37 1552.02 Q1347.27 1555.53 1344.15 1555.53 Q1341.54 1555.53 1339.8 1553.72 Q1338.1 1551.89 1338.1 1548.99 Q1338.1 1548.28 1338.35 1546.67 Q1338.55 1546.03 1338.55 1545.28 Q1338.55 1543.77 1337.71 1542.64 Q1336.87 1541.48 1335.52 1540.9 Q1334.17 1540.33 1333.04 1540.07 Q1331.94 1539.78 1330.88 1539.68 Q1327.66 1553.3 1327.21 1554.14 Q1326.92 1554.72 1326.28 1555.11 Q1325.63 1555.53 1324.96 1555.53 Q1324.31 1555.53 1323.67 1555.08 Q1323.06 1554.66 1323.06 1553.66 Q1323.06 1553.14 1323.31 1552.21 L1332.88 1514.21 L1333.07 1512.92 Q1333.07 1512.53 1332.91 1512.34 Q1332.78 1512.11 1332.01 1511.95 Q1331.27 1511.79 1329.79 1511.79 Q1329.18 1511.79 1328.89 1511.76 Q1328.63 1511.73 1328.4 1511.57 Q1328.18 1511.37 1328.18 1510.99 Q1328.18 1510.44 1328.4 1510.15 Q1328.66 1509.83 1328.85 1509.76 Q1329.05 1509.7 1329.43 1509.67 Q1329.98 1509.63 1331.82 1509.47 Q1333.65 1509.28 1335.23 1509.15 Q1336.81 1509.02 1337.48 1509.02 Q1337.87 1509.02 1338.06 1509.21 Q1338.29 1509.38 1338.32 1509.57 L1338.35 1509.73 L1331.49 1537.56 Q1334.33 1536.43 1338.8 1531.44 Q1343.99 1525.64 1348.43 1525.64 Q1350.53 1525.64 1351.72 1526.93 Q1352.91 1528.18 1352.91 1529.79 Z" fill="#000000" fill-rule="evenodd" fill-opacity="1" /><path clip-path="url(#clip680)" d="M1359.66 1547.44 L1359.66 1546 Q1365.2 1546 1368.07 1543.05 Q1368.86 1543.05 1368.99 1543.23 Q1369.13 1543.41 1369.13 1544.24 L1369.13 1570.14 Q1369.13 1571.52 1369.8 1571.95 Q1370.48 1572.38 1373.43 1572.38 L1374.9 1572.38 L1374.9 1573.8 Q1373.28 1573.66 1367.41 1573.66 Q1361.55 1573.66 1359.95 1573.8 L1359.95 1572.38 L1361.42 1572.38 Q1364.33 1572.38 1365.02 1571.97 Q1365.72 1571.54 1365.72 1570.14 L1365.72 1546.23 Q1363.31 1547.44 1359.66 1547.44 Z" fill="#000000" fill-rule="evenodd" fill-opacity="1" /><path clip-path="url(#clip680)" d="M1387.02 1510.99 Q1387.02 1509.34 1388.02 1508.67 Q1389.02 1507.96 1390.08 1507.96 Q1391.4 1507.96 1392.24 1508.76 Q1393.11 1509.54 1393.11 1510.99 Q1393.11 1511.63 1393.04 1511.98 L1390.85 1531.89 L1389.34 1531.89 L1387.09 1511.98 Q1387.02 1511.63 1387.02 1510.99 Z" fill="#000000" fill-rule="evenodd" fill-opacity="1" /><polyline clip-path="url(#clip683)" style="stroke:#000000; stroke-linecap:butt; stroke-linejoin:round; stroke-width:2; stroke-opacity:0.1; fill:none" points="
  375.472,1404.14 2352.76,1404.14 
  "/>
<polyline clip-path="url(#clip683)" style="stroke:#000000; stroke-linecap:butt; stroke-linejoin:round; stroke-width:2; stroke-opacity:0.1; fill:none" points="
  375.472,1167.24 2352.76,1167.24 
  "/>
<polyline clip-path="url(#clip683)" style="stroke:#000000; stroke-linecap:butt; stroke-linejoin:round; stroke-width:2; stroke-opacity:0.1; fill:none" points="
  375.472,930.343 2352.76,930.343 
  "/>
<polyline clip-path="url(#clip683)" style="stroke:#000000; stroke-linecap:butt; stroke-linejoin:round; stroke-width:2; stroke-opacity:0.1; fill:none" points="
  375.472,693.446 2352.76,693.446 
  "/>
<polyline clip-path="url(#clip683)" style="stroke:#000000; stroke-linecap:butt; stroke-linejoin:round; stroke-width:2; stroke-opacity:0.1; fill:none" points="
  375.472,456.55 2352.76,456.55 
  "/>
<polyline clip-path="url(#clip683)" style="stroke:#000000; stroke-linecap:butt; stroke-linejoin:round; stroke-width:2; stroke-opacity:0.1; fill:none" points="
  375.472,219.653 2352.76,219.653 
  "/>
<polyline clip-path="url(#clip680)" style="stroke:#000000; stroke-linecap:butt; stroke-linejoin:round; stroke-width:4; stroke-opacity:1; fill:none" points="
  375.472,1427.11 375.472,47.2441 
  "/>
<polyline clip-path="url(#clip680)" style="stroke:#000000; stroke-linecap:butt; stroke-linejoin:round; stroke-width:4; stroke-opacity:1; fill:none" points="
  375.472,1404.14 394.37,1404.14 
  "/>
<polyline clip-path="url(#clip680)" style="stroke:#000000; stroke-linecap:butt; stroke-linejoin:round; stroke-width:4; stroke-opacity:1; fill:none" points="
  375.472,1167.24 394.37,1167.24 
  "/>
<polyline clip-path="url(#clip680)" style="stroke:#000000; stroke-linecap:butt; stroke-linejoin:round; stroke-width:4; stroke-opacity:1; fill:none" points="
  375.472,930.343 394.37,930.343 
  "/>
<polyline clip-path="url(#clip680)" style="stroke:#000000; stroke-linecap:butt; stroke-linejoin:round; stroke-width:4; stroke-opacity:1; fill:none" points="
  375.472,693.446 394.37,693.446 
  "/>
<polyline clip-path="url(#clip680)" style="stroke:#000000; stroke-linecap:butt; stroke-linejoin:round; stroke-width:4; stroke-opacity:1; fill:none" points="
  375.472,456.55 394.37,456.55 
  "/>
<polyline clip-path="url(#clip680)" style="stroke:#000000; stroke-linecap:butt; stroke-linejoin:round; stroke-width:4; stroke-opacity:1; fill:none" points="
  375.472,219.653 394.37,219.653 
  "/>
<path clip-path="url(#clip680)" d="M327.528 1389.93 Q323.916 1389.93 322.088 1393.5 Q320.282 1397.04 320.282 1404.17 Q320.282 1411.28 322.088 1414.84 Q323.916 1418.38 327.528 1418.38 Q331.162 1418.38 332.967 1414.84 Q334.796 1411.28 334.796 1404.17 Q334.796 1397.04 332.967 1393.5 Q331.162 1389.93 327.528 1389.93 M327.528 1386.23 Q333.338 1386.23 336.393 1390.84 Q339.472 1395.42 339.472 1404.17 Q339.472 1412.9 336.393 1417.5 Q333.338 1422.09 327.528 1422.09 Q321.717 1422.09 318.639 1417.5 Q315.583 1412.9 315.583 1404.17 Q315.583 1395.42 318.639 1390.84 Q321.717 1386.23 327.528 1386.23 Z" fill="#000000" fill-rule="evenodd" fill-opacity="1" /><path clip-path="url(#clip680)" d="M123.647 1156.41 L142.003 1156.41 L142.003 1160.34 L127.929 1160.34 L127.929 1168.81 Q128.948 1168.47 129.966 1168.31 Q130.985 1168.12 132.003 1168.12 Q137.79 1168.12 141.17 1171.29 Q144.55 1174.46 144.55 1179.88 Q144.55 1185.46 141.077 1188.56 Q137.605 1191.64 131.286 1191.64 Q129.11 1191.64 126.841 1191.27 Q124.596 1190.9 122.189 1190.16 L122.189 1185.46 Q124.272 1186.59 126.494 1187.15 Q128.716 1187.7 131.193 1187.7 Q135.198 1187.7 137.536 1185.6 Q139.874 1183.49 139.874 1179.88 Q139.874 1176.27 137.536 1174.16 Q135.198 1172.06 131.193 1172.06 Q129.318 1172.06 127.443 1172.47 Q125.591 1172.89 123.647 1173.77 L123.647 1156.41 Z" fill="#000000" fill-rule="evenodd" fill-opacity="1" /><path clip-path="url(#clip680)" d="M153.763 1185.09 L158.647 1185.09 L158.647 1190.97 L153.763 1190.97 L153.763 1185.09 Z" fill="#000000" fill-rule="evenodd" fill-opacity="1" /><path clip-path="url(#clip680)" d="M178.832 1159.49 Q175.221 1159.49 173.392 1163.05 Q171.587 1166.59 171.587 1173.72 Q171.587 1180.83 173.392 1184.39 Q175.221 1187.93 178.832 1187.93 Q182.466 1187.93 184.272 1184.39 Q186.1 1180.83 186.1 1173.72 Q186.1 1166.59 184.272 1163.05 Q182.466 1159.49 178.832 1159.49 M178.832 1155.78 Q184.642 1155.78 187.698 1160.39 Q190.776 1164.97 190.776 1173.72 Q190.776 1182.45 187.698 1187.06 Q184.642 1191.64 178.832 1191.64 Q173.022 1191.64 169.943 1187.06 Q166.888 1182.45 166.888 1173.72 Q166.888 1164.97 169.943 1160.39 Q173.022 1155.78 178.832 1155.78 Z" fill="#000000" fill-rule="evenodd" fill-opacity="1" /><path clip-path="url(#clip680)" d="M208.994 1159.49 Q205.383 1159.49 203.554 1163.05 Q201.748 1166.59 201.748 1173.72 Q201.748 1180.83 203.554 1184.39 Q205.383 1187.93 208.994 1187.93 Q212.628 1187.93 214.434 1184.39 Q216.262 1180.83 216.262 1173.72 Q216.262 1166.59 214.434 1163.05 Q212.628 1159.49 208.994 1159.49 M208.994 1155.78 Q214.804 1155.78 217.859 1160.39 Q220.938 1164.97 220.938 1173.72 Q220.938 1182.45 217.859 1187.06 Q214.804 1191.64 208.994 1191.64 Q203.184 1191.64 200.105 1187.06 Q197.049 1182.45 197.049 1173.72 Q197.049 1164.97 200.105 1160.39 Q203.184 1155.78 208.994 1155.78 Z" fill="#000000" fill-rule="evenodd" fill-opacity="1" /><path clip-path="url(#clip680)" d="M257.327 1165.5 L246.748 1176.13 L257.327 1186.71 L254.572 1189.51 L243.947 1178.88 L233.322 1189.51 L230.591 1186.71 L241.146 1176.13 L230.591 1165.5 L233.322 1162.7 L243.947 1173.33 L254.572 1162.7 L257.327 1165.5 Z" fill="#000000" fill-rule="evenodd" fill-opacity="1" /><path clip-path="url(#clip680)" d="M269.688 1187.03 L277.327 1187.03 L277.327 1160.67 L269.017 1162.33 L269.017 1158.07 L277.28 1156.41 L281.956 1156.41 L281.956 1187.03 L289.595 1187.03 L289.595 1190.97 L269.688 1190.97 L269.688 1187.03 Z" fill="#000000" fill-rule="evenodd" fill-opacity="1" /><path clip-path="url(#clip680)" d="M309.04 1159.49 Q305.428 1159.49 303.6 1163.05 Q301.794 1166.59 301.794 1173.72 Q301.794 1180.83 303.6 1184.39 Q305.428 1187.93 309.04 1187.93 Q312.674 1187.93 314.479 1184.39 Q316.308 1180.83 316.308 1173.72 Q316.308 1166.59 314.479 1163.05 Q312.674 1159.49 309.04 1159.49 M309.04 1155.78 Q314.85 1155.78 317.905 1160.39 Q320.984 1164.97 320.984 1173.72 Q320.984 1182.45 317.905 1187.06 Q314.85 1191.64 309.04 1191.64 Q303.229 1191.64 300.151 1187.06 Q297.095 1182.45 297.095 1173.72 Q297.095 1164.97 300.151 1160.39 Q303.229 1155.78 309.04 1155.78 Z" fill="#000000" fill-rule="evenodd" fill-opacity="1" /><path clip-path="url(#clip680)" d="M333.679 1148.42 Q336.406 1149 337.93 1150.84 Q339.472 1152.69 339.472 1155.39 Q339.472 1159.55 336.613 1161.83 Q333.754 1164.1 328.488 1164.1 Q326.72 1164.1 324.84 1163.74 Q322.978 1163.41 320.984 1162.71 L320.984 1159.04 Q322.564 1159.96 324.445 1160.43 Q326.325 1160.9 328.375 1160.9 Q331.949 1160.9 333.811 1159.49 Q335.692 1158.08 335.692 1155.39 Q335.692 1152.91 333.942 1151.52 Q332.212 1150.11 329.109 1150.11 L325.836 1150.11 L325.836 1146.99 L329.259 1146.99 Q332.062 1146.99 333.548 1145.88 Q335.033 1144.75 335.033 1142.64 Q335.033 1140.48 333.491 1139.33 Q331.968 1138.17 329.109 1138.17 Q327.548 1138.17 325.761 1138.5 Q323.974 1138.84 321.83 1139.56 L321.83 1136.17 Q323.993 1135.57 325.874 1135.27 Q327.774 1134.97 329.447 1134.97 Q333.773 1134.97 336.293 1136.94 Q338.814 1138.9 338.814 1142.25 Q338.814 1144.58 337.478 1146.2 Q336.143 1147.8 333.679 1148.42 Z" fill="#000000" fill-rule="evenodd" fill-opacity="1" /><path clip-path="url(#clip680)" d="M122.436 950.135 L130.075 950.135 L130.075 923.77 L121.765 925.437 L121.765 921.177 L130.029 919.511 L134.705 919.511 L134.705 950.135 L142.343 950.135 L142.343 954.071 L122.436 954.071 L122.436 950.135 Z" fill="#000000" fill-rule="evenodd" fill-opacity="1" /><path clip-path="url(#clip680)" d="M151.788 948.191 L156.672 948.191 L156.672 954.071 L151.788 954.071 L151.788 948.191 Z" fill="#000000" fill-rule="evenodd" fill-opacity="1" /><path clip-path="url(#clip680)" d="M176.857 922.589 Q173.246 922.589 171.417 926.154 Q169.612 929.696 169.612 936.825 Q169.612 943.932 171.417 947.497 Q173.246 951.038 176.857 951.038 Q180.491 951.038 182.297 947.497 Q184.126 943.932 184.126 936.825 Q184.126 929.696 182.297 926.154 Q180.491 922.589 176.857 922.589 M176.857 918.886 Q182.667 918.886 185.723 923.492 Q188.801 928.075 188.801 936.825 Q188.801 945.552 185.723 950.159 Q182.667 954.742 176.857 954.742 Q171.047 954.742 167.968 950.159 Q164.913 945.552 164.913 936.825 Q164.913 928.075 167.968 923.492 Q171.047 918.886 176.857 918.886 Z" fill="#000000" fill-rule="evenodd" fill-opacity="1" /><path clip-path="url(#clip680)" d="M207.019 922.589 Q203.408 922.589 201.579 926.154 Q199.774 929.696 199.774 936.825 Q199.774 943.932 201.579 947.497 Q203.408 951.038 207.019 951.038 Q210.653 951.038 212.459 947.497 Q214.287 943.932 214.287 936.825 Q214.287 929.696 212.459 926.154 Q210.653 922.589 207.019 922.589 M207.019 918.886 Q212.829 918.886 215.885 923.492 Q218.963 928.075 218.963 936.825 Q218.963 945.552 215.885 950.159 Q212.829 954.742 207.019 954.742 Q201.209 954.742 198.13 950.159 Q195.075 945.552 195.075 936.825 Q195.075 928.075 198.13 923.492 Q201.209 918.886 207.019 918.886 Z" fill="#000000" fill-rule="evenodd" fill-opacity="1" /><path clip-path="url(#clip680)" d="M255.352 928.608 L244.773 939.233 L255.352 949.811 L252.597 952.612 L241.972 941.987 L231.348 952.612 L228.616 949.811 L239.172 939.233 L228.616 928.608 L231.348 925.807 L241.972 936.432 L252.597 925.807 L255.352 928.608 Z" fill="#000000" fill-rule="evenodd" fill-opacity="1" /><path clip-path="url(#clip680)" d="M267.713 950.135 L275.352 950.135 L275.352 923.77 L267.042 925.437 L267.042 921.177 L275.306 919.511 L279.982 919.511 L279.982 950.135 L287.62 950.135 L287.62 954.071 L267.713 954.071 L267.713 950.135 Z" fill="#000000" fill-rule="evenodd" fill-opacity="1" /><path clip-path="url(#clip680)" d="M307.065 922.589 Q303.454 922.589 301.625 926.154 Q299.819 929.696 299.819 936.825 Q299.819 943.932 301.625 947.497 Q303.454 951.038 307.065 951.038 Q310.699 951.038 312.505 947.497 Q314.333 943.932 314.333 936.825 Q314.333 929.696 312.505 926.154 Q310.699 922.589 307.065 922.589 M307.065 918.886 Q312.875 918.886 315.93 923.492 Q319.009 928.075 319.009 936.825 Q319.009 945.552 315.93 950.159 Q312.875 954.742 307.065 954.742 Q301.255 954.742 298.176 950.159 Q295.12 945.552 295.12 936.825 Q295.12 928.075 298.176 923.492 Q301.255 918.886 307.065 918.886 Z" fill="#000000" fill-rule="evenodd" fill-opacity="1" /><path clip-path="url(#clip680)" d="M331.686 901.89 L322.094 916.88 L331.686 916.88 L331.686 901.89 M330.689 898.58 L335.466 898.58 L335.466 916.88 L339.472 916.88 L339.472 920.04 L335.466 920.04 L335.466 926.66 L331.686 926.66 L331.686 920.04 L319.009 920.04 L319.009 916.372 L330.689 898.58 Z" fill="#000000" fill-rule="evenodd" fill-opacity="1" /><path clip-path="url(#clip680)" d="M122.436 713.239 L130.075 713.239 L130.075 686.873 L121.765 688.54 L121.765 684.281 L130.029 682.614 L134.705 682.614 L134.705 713.239 L142.343 713.239 L142.343 717.174 L122.436 717.174 L122.436 713.239 Z" fill="#000000" fill-rule="evenodd" fill-opacity="1" /><path clip-path="url(#clip680)" d="M151.788 711.294 L156.672 711.294 L156.672 717.174 L151.788 717.174 L151.788 711.294 Z" fill="#000000" fill-rule="evenodd" fill-opacity="1" /><path clip-path="url(#clip680)" d="M166.903 682.614 L185.26 682.614 L185.26 686.549 L171.186 686.549 L171.186 695.021 Q172.204 694.674 173.223 694.512 Q174.241 694.327 175.26 694.327 Q181.047 694.327 184.427 697.498 Q187.806 700.669 187.806 706.086 Q187.806 711.665 184.334 714.767 Q180.862 717.845 174.542 717.845 Q172.366 717.845 170.098 717.475 Q167.853 717.105 165.445 716.364 L165.445 711.665 Q167.528 712.799 169.751 713.355 Q171.973 713.91 174.45 713.91 Q178.454 713.91 180.792 711.804 Q183.13 709.697 183.13 706.086 Q183.13 702.475 180.792 700.369 Q178.454 698.262 174.45 698.262 Q172.575 698.262 170.7 698.679 Q168.848 699.095 166.903 699.975 L166.903 682.614 Z" fill="#000000" fill-rule="evenodd" fill-opacity="1" /><path clip-path="url(#clip680)" d="M207.019 685.693 Q203.408 685.693 201.579 689.258 Q199.774 692.799 199.774 699.929 Q199.774 707.035 201.579 710.6 Q203.408 714.142 207.019 714.142 Q210.653 714.142 212.459 710.6 Q214.287 707.035 214.287 699.929 Q214.287 692.799 212.459 689.258 Q210.653 685.693 207.019 685.693 M207.019 681.989 Q212.829 681.989 215.885 686.595 Q218.963 691.179 218.963 699.929 Q218.963 708.656 215.885 713.262 Q212.829 717.845 207.019 717.845 Q201.209 717.845 198.13 713.262 Q195.075 708.656 195.075 699.929 Q195.075 691.179 198.13 686.595 Q201.209 681.989 207.019 681.989 Z" fill="#000000" fill-rule="evenodd" fill-opacity="1" /><path clip-path="url(#clip680)" d="M255.352 691.711 L244.773 702.336 L255.352 712.915 L252.597 715.716 L241.972 705.091 L231.348 715.716 L228.616 712.915 L239.172 702.336 L228.616 691.711 L231.348 688.91 L241.972 699.535 L252.597 688.91 L255.352 691.711 Z" fill="#000000" fill-rule="evenodd" fill-opacity="1" /><path clip-path="url(#clip680)" d="M267.713 713.239 L275.352 713.239 L275.352 686.873 L267.042 688.54 L267.042 684.281 L275.306 682.614 L279.982 682.614 L279.982 713.239 L287.62 713.239 L287.62 717.174 L267.713 717.174 L267.713 713.239 Z" fill="#000000" fill-rule="evenodd" fill-opacity="1" /><path clip-path="url(#clip680)" d="M307.065 685.693 Q303.454 685.693 301.625 689.258 Q299.819 692.799 299.819 699.929 Q299.819 707.035 301.625 710.6 Q303.454 714.142 307.065 714.142 Q310.699 714.142 312.505 710.6 Q314.333 707.035 314.333 699.929 Q314.333 692.799 312.505 689.258 Q310.699 685.693 307.065 685.693 M307.065 681.989 Q312.875 681.989 315.93 686.595 Q319.009 691.179 319.009 699.929 Q319.009 708.656 315.93 713.262 Q312.875 717.845 307.065 717.845 Q301.255 717.845 298.176 713.262 Q295.12 708.656 295.12 699.929 Q295.12 691.179 298.176 686.595 Q301.255 681.989 307.065 681.989 Z" fill="#000000" fill-rule="evenodd" fill-opacity="1" /><path clip-path="url(#clip680)" d="M331.686 664.994 L322.094 679.984 L331.686 679.984 L331.686 664.994 M330.689 661.684 L335.466 661.684 L335.466 679.984 L339.472 679.984 L339.472 683.143 L335.466 683.143 L335.466 689.764 L331.686 689.764 L331.686 683.143 L319.009 683.143 L319.009 679.476 L330.689 661.684 Z" fill="#000000" fill-rule="evenodd" fill-opacity="1" /><path clip-path="url(#clip680)" d="M125.654 476.342 L141.973 476.342 L141.973 480.277 L120.029 480.277 L120.029 476.342 Q122.691 473.588 127.274 468.958 Q131.88 464.305 133.061 462.963 Q135.306 460.44 136.186 458.703 Q137.089 456.944 137.089 455.254 Q137.089 452.5 135.144 450.764 Q133.223 449.028 130.121 449.028 Q127.922 449.028 125.468 449.791 Q123.038 450.555 120.26 452.106 L120.26 447.384 Q123.084 446.25 125.538 445.671 Q127.992 445.092 130.029 445.092 Q135.399 445.092 138.593 447.778 Q141.788 450.463 141.788 454.953 Q141.788 457.083 140.978 459.004 Q140.191 460.903 138.084 463.495 Q137.505 464.166 134.404 467.384 Q131.302 470.578 125.654 476.342 Z" fill="#000000" fill-rule="evenodd" fill-opacity="1" /><path clip-path="url(#clip680)" d="M151.788 474.398 L156.672 474.398 L156.672 480.277 L151.788 480.277 L151.788 474.398 Z" fill="#000000" fill-rule="evenodd" fill-opacity="1" /><path clip-path="url(#clip680)" d="M176.857 448.796 Q173.246 448.796 171.417 452.361 Q169.612 455.903 169.612 463.032 Q169.612 470.139 171.417 473.703 Q173.246 477.245 176.857 477.245 Q180.491 477.245 182.297 473.703 Q184.126 470.139 184.126 463.032 Q184.126 455.903 182.297 452.361 Q180.491 448.796 176.857 448.796 M176.857 445.092 Q182.667 445.092 185.723 449.699 Q188.801 454.282 188.801 463.032 Q188.801 471.759 185.723 476.365 Q182.667 480.949 176.857 480.949 Q171.047 480.949 167.968 476.365 Q164.913 471.759 164.913 463.032 Q164.913 454.282 167.968 449.699 Q171.047 445.092 176.857 445.092 Z" fill="#000000" fill-rule="evenodd" fill-opacity="1" /><path clip-path="url(#clip680)" d="M207.019 448.796 Q203.408 448.796 201.579 452.361 Q199.774 455.903 199.774 463.032 Q199.774 470.139 201.579 473.703 Q203.408 477.245 207.019 477.245 Q210.653 477.245 212.459 473.703 Q214.287 470.139 214.287 463.032 Q214.287 455.903 212.459 452.361 Q210.653 448.796 207.019 448.796 M207.019 445.092 Q212.829 445.092 215.885 449.699 Q218.963 454.282 218.963 463.032 Q218.963 471.759 215.885 476.365 Q212.829 480.949 207.019 480.949 Q201.209 480.949 198.13 476.365 Q195.075 471.759 195.075 463.032 Q195.075 454.282 198.13 449.699 Q201.209 445.092 207.019 445.092 Z" fill="#000000" fill-rule="evenodd" fill-opacity="1" /><path clip-path="url(#clip680)" d="M255.352 454.815 L244.773 465.44 L255.352 476.018 L252.597 478.819 L241.972 468.194 L231.348 478.819 L228.616 476.018 L239.172 465.44 L228.616 454.815 L231.348 452.014 L241.972 462.639 L252.597 452.014 L255.352 454.815 Z" fill="#000000" fill-rule="evenodd" fill-opacity="1" /><path clip-path="url(#clip680)" d="M267.713 476.342 L275.352 476.342 L275.352 449.977 L267.042 451.643 L267.042 447.384 L275.306 445.717 L279.982 445.717 L279.982 476.342 L287.62 476.342 L287.62 480.277 L267.713 480.277 L267.713 476.342 Z" fill="#000000" fill-rule="evenodd" fill-opacity="1" /><path clip-path="url(#clip680)" d="M307.065 448.796 Q303.454 448.796 301.625 452.361 Q299.819 455.903 299.819 463.032 Q299.819 470.139 301.625 473.703 Q303.454 477.245 307.065 477.245 Q310.699 477.245 312.505 473.703 Q314.333 470.139 314.333 463.032 Q314.333 455.903 312.505 452.361 Q310.699 448.796 307.065 448.796 M307.065 445.092 Q312.875 445.092 315.93 449.699 Q319.009 454.282 319.009 463.032 Q319.009 471.759 315.93 476.365 Q312.875 480.949 307.065 480.949 Q301.255 480.949 298.176 476.365 Q295.12 471.759 295.12 463.032 Q295.12 454.282 298.176 449.699 Q301.255 445.092 307.065 445.092 Z" fill="#000000" fill-rule="evenodd" fill-opacity="1" /><path clip-path="url(#clip680)" d="M331.686 428.097 L322.094 443.087 L331.686 443.087 L331.686 428.097 M330.689 424.787 L335.466 424.787 L335.466 443.087 L339.472 443.087 L339.472 446.247 L335.466 446.247 L335.466 452.867 L331.686 452.867 L331.686 446.247 L319.009 446.247 L319.009 442.579 L330.689 424.787 Z" fill="#000000" fill-rule="evenodd" fill-opacity="1" /><path clip-path="url(#clip680)" d="M125.654 239.446 L141.973 239.446 L141.973 243.381 L120.029 243.381 L120.029 239.446 Q122.691 236.691 127.274 232.061 Q131.88 227.409 133.061 226.066 Q135.306 223.543 136.186 221.807 Q137.089 220.048 137.089 218.358 Q137.089 215.603 135.144 213.867 Q133.223 212.131 130.121 212.131 Q127.922 212.131 125.468 212.895 Q123.038 213.659 120.26 215.21 L120.26 210.487 Q123.084 209.353 125.538 208.775 Q127.992 208.196 130.029 208.196 Q135.399 208.196 138.593 210.881 Q141.788 213.566 141.788 218.057 Q141.788 220.187 140.978 222.108 Q140.191 224.006 138.084 226.599 Q137.505 227.27 134.404 230.487 Q131.302 233.682 125.654 239.446 Z" fill="#000000" fill-rule="evenodd" fill-opacity="1" /><path clip-path="url(#clip680)" d="M151.788 237.501 L156.672 237.501 L156.672 243.381 L151.788 243.381 L151.788 237.501 Z" fill="#000000" fill-rule="evenodd" fill-opacity="1" /><path clip-path="url(#clip680)" d="M166.903 208.821 L185.26 208.821 L185.26 212.756 L171.186 212.756 L171.186 221.228 Q172.204 220.881 173.223 220.719 Q174.241 220.534 175.26 220.534 Q181.047 220.534 184.427 223.705 Q187.806 226.876 187.806 232.293 Q187.806 237.872 184.334 240.973 Q180.862 244.052 174.542 244.052 Q172.366 244.052 170.098 243.682 Q167.853 243.311 165.445 242.571 L165.445 237.872 Q167.528 239.006 169.751 239.561 Q171.973 240.117 174.45 240.117 Q178.454 240.117 180.792 238.01 Q183.13 235.904 183.13 232.293 Q183.13 228.682 180.792 226.575 Q178.454 224.469 174.45 224.469 Q172.575 224.469 170.7 224.886 Q168.848 225.302 166.903 226.182 L166.903 208.821 Z" fill="#000000" fill-rule="evenodd" fill-opacity="1" /><path clip-path="url(#clip680)" d="M207.019 211.9 Q203.408 211.9 201.579 215.464 Q199.774 219.006 199.774 226.136 Q199.774 233.242 201.579 236.807 Q203.408 240.348 207.019 240.348 Q210.653 240.348 212.459 236.807 Q214.287 233.242 214.287 226.136 Q214.287 219.006 212.459 215.464 Q210.653 211.9 207.019 211.9 M207.019 208.196 Q212.829 208.196 215.885 212.802 Q218.963 217.386 218.963 226.136 Q218.963 234.862 215.885 239.469 Q212.829 244.052 207.019 244.052 Q201.209 244.052 198.13 239.469 Q195.075 234.862 195.075 226.136 Q195.075 217.386 198.13 212.802 Q201.209 208.196 207.019 208.196 Z" fill="#000000" fill-rule="evenodd" fill-opacity="1" /><path clip-path="url(#clip680)" d="M255.352 217.918 L244.773 228.543 L255.352 239.122 L252.597 241.923 L241.972 231.298 L231.348 241.923 L228.616 239.122 L239.172 228.543 L228.616 217.918 L231.348 215.117 L241.972 225.742 L252.597 215.117 L255.352 217.918 Z" fill="#000000" fill-rule="evenodd" fill-opacity="1" /><path clip-path="url(#clip680)" d="M267.713 239.446 L275.352 239.446 L275.352 213.08 L267.042 214.747 L267.042 210.487 L275.306 208.821 L279.982 208.821 L279.982 239.446 L287.62 239.446 L287.62 243.381 L267.713 243.381 L267.713 239.446 Z" fill="#000000" fill-rule="evenodd" fill-opacity="1" /><path clip-path="url(#clip680)" d="M307.065 211.9 Q303.454 211.9 301.625 215.464 Q299.819 219.006 299.819 226.136 Q299.819 233.242 301.625 236.807 Q303.454 240.348 307.065 240.348 Q310.699 240.348 312.505 236.807 Q314.333 233.242 314.333 226.136 Q314.333 219.006 312.505 215.464 Q310.699 211.9 307.065 211.9 M307.065 208.196 Q312.875 208.196 315.93 212.802 Q319.009 217.386 319.009 226.136 Q319.009 234.862 315.93 239.469 Q312.875 244.052 307.065 244.052 Q301.255 244.052 298.176 239.469 Q295.12 234.862 295.12 226.136 Q295.12 217.386 298.176 212.802 Q301.255 208.196 307.065 208.196 Z" fill="#000000" fill-rule="evenodd" fill-opacity="1" /><path clip-path="url(#clip680)" d="M331.686 191.201 L322.094 206.19 L331.686 206.19 L331.686 191.201 M330.689 187.89 L335.466 187.89 L335.466 206.19 L339.472 206.19 L339.472 209.35 L335.466 209.35 L335.466 215.97 L331.686 215.97 L331.686 209.35 L319.009 209.35 L319.009 205.683 L330.689 187.89 Z" fill="#000000" fill-rule="evenodd" fill-opacity="1" /><path clip-path="url(#clip680)" d="M36.5483 812.845 Q37.3857 812.845 39.0282 813.07 Q40.6707 813.296 43.0539 813.843 Q45.4371 814.391 47.9492 815.196 Q50.4612 815.969 52.9733 817.192 Q55.4531 818.416 57.4177 819.866 Q59.3823 821.315 60.6061 823.344 Q61.8299 825.373 61.8299 827.659 Q61.8299 828.722 61.6689 829.753 Q61.5078 830.783 60.9926 832.072 Q60.4773 833.36 59.6399 834.294 Q58.7703 835.228 57.2245 835.872 Q55.6786 836.516 53.6496 836.516 Q51.5562 836.516 48.7543 835.743 Q45.9202 834.938 40.1232 832.748 Q37.128 831.621 35.4855 831.621 Q34.7448 831.621 34.2939 831.782 Q33.8108 831.943 33.6498 832.265 Q33.4565 832.587 33.4243 832.78 Q33.3921 832.941 33.3921 833.263 Q33.3921 835.034 35.2279 836.838 Q37.0636 838.642 41.5724 839.93 Q42.3776 840.187 42.5708 840.348 Q42.764 840.509 42.764 840.993 Q42.7318 841.798 42.0877 841.798 Q41.8945 841.798 41.1537 841.572 Q40.3808 841.347 39.2214 840.928 Q38.0298 840.509 36.8059 839.769 Q35.5499 839.028 34.4549 838.126 Q33.3599 837.192 32.6514 835.872 Q31.9429 834.551 31.9429 833.07 Q31.9429 830.654 33.521 829.173 Q35.0668 827.659 37.3534 827.659 Q38.6095 827.659 40.6384 828.464 Q44.3099 829.817 46.0812 830.429 Q47.8526 831.041 50.3646 831.685 Q52.8767 832.297 54.6158 832.297 Q57.2567 832.297 58.8026 831.073 Q60.3484 829.849 60.3484 827.402 Q60.3484 825.212 58.7703 823.247 Q57.1601 821.25 54.8734 819.93 Q52.5546 818.61 49.9781 817.611 Q47.3695 816.613 45.4049 816.162 Q43.4082 815.679 42.4742 815.679 Q39.2214 815.679 37.0958 817.901 Q36.4839 818.513 36.0974 818.738 Q35.7109 818.964 35.099 818.964 Q33.9718 818.964 32.9735 817.965 Q31.9429 816.935 31.9429 815.743 Q31.9429 814.648 33.0379 813.746 Q34.1329 812.845 36.5483 812.845 Z" fill="#000000" fill-rule="evenodd" fill-opacity="1" /><path clip-path="url(#clip680)" d="M51.6529 780.288 Q55.8074 781.158 58.1906 782.285 Q61.8299 784.089 61.8299 787.148 Q61.8299 789.467 60.4128 791.11 Q58.9958 792.752 56.8702 793.139 Q61.8299 797.358 61.8299 801.738 Q61.8299 805.602 58.8992 808.05 Q55.9362 810.498 51.2664 810.498 Q46.5643 810.498 42.0555 808.179 Q37.5467 805.828 34.7448 802.124 Q31.9429 798.42 31.9429 794.62 Q31.9429 790.594 36.1618 788.533 Q35.0024 788.372 34.1329 787.631 Q33.2633 786.891 33.2633 785.763 Q33.2633 784.894 33.7464 784.379 Q34.1973 783.863 35.0346 783.863 Q35.4533 783.863 37.289 784.314 L46.4999 786.697 L52.458 788.147 Q54.648 788.694 55.4531 788.855 Q56.2583 788.984 57.3211 788.984 Q60.3484 788.984 60.3484 787.019 Q60.3484 786.053 59.7365 785.28 Q59.1246 784.507 57.8364 783.895 Q56.5481 783.284 55.3565 782.897 Q54.1327 782.511 52.2004 781.995 Q51.4274 781.834 51.2342 781.705 Q51.0087 781.544 51.0087 781.094 Q51.0087 780.288 51.6529 780.288 M39.1892 789.338 Q38.8993 789.338 38.0942 789.564 Q37.289 789.789 36.1618 790.304 Q35.0346 790.82 34.2295 791.947 Q33.3921 793.042 33.3921 794.523 Q33.3921 796.52 35.099 798.614 Q36.8059 800.675 39.7045 802.188 Q42.0233 803.348 46.8864 804.604 Q51.7495 805.828 54.1649 805.828 Q55.6464 805.828 56.9668 805.506 Q58.2551 805.151 59.3178 804.153 Q60.3484 803.155 60.3484 801.609 Q60.3484 797.841 55.6786 794.137 Q54.8734 793.428 54.5514 793.267 Q54.1971 793.074 53.2309 792.817 L40.3164 789.532 Q39.3502 789.338 39.1892 789.338 Z" fill="#000000" fill-rule="evenodd" fill-opacity="1" /><path clip-path="url(#clip680)" d="M36.2262 749.092 Q37.9332 749.092 39.0282 750.219 Q40.1232 751.314 40.1232 752.731 Q40.1232 753.955 39.4146 754.599 Q38.7061 755.243 37.8043 755.243 Q36.5161 755.243 35.4533 754.245 Q34.3905 753.246 34.1651 751.797 Q33.3921 752.86 33.3921 754.567 Q33.3921 757.369 35.5499 759.849 Q36.5483 760.944 38.384 762.135 Q40.1876 763.327 40.9605 763.552 L49.5595 765.646 Q50.5256 765.839 55.1633 767.03 Q59.7687 768.19 59.962 768.286 Q60.8637 768.609 61.3468 769.317 Q61.8299 770.026 61.8299 770.734 Q61.8299 771.539 61.3468 772.087 Q60.8637 772.634 60.0264 772.634 Q59.8976 772.634 59.4145 772.538 Q58.9314 772.441 58.2551 772.28 Q57.5787 772.119 57.1923 772.055 L41.9589 768.222 Q39.1892 767.514 38.3196 767.352 Q37.4179 767.159 36.4195 767.159 Q34.6804 767.159 34.0362 767.707 Q33.3921 768.254 33.3921 769.22 Q33.3921 770.895 35.3889 771.99 Q37.3857 773.085 41.2504 774.019 Q42.3132 774.309 42.5386 774.502 Q42.764 774.663 42.764 775.146 Q42.7318 775.951 42.0877 775.951 Q41.9267 775.951 40.8961 775.694 Q39.8333 775.436 38.2874 774.953 Q36.7093 774.438 35.7109 773.89 Q35.0346 773.568 34.5837 773.278 Q34.1329 772.989 33.4243 772.409 Q32.7158 771.829 32.3293 770.96 Q31.9429 770.09 31.9429 769.027 Q31.9429 766.708 33.3599 765.066 Q34.777 763.391 36.9992 763.005 Q35.8398 762.2 34.8414 761.201 Q33.8108 760.203 32.8768 758.367 Q31.9429 756.531 31.9429 754.567 Q31.9429 752.119 33.1989 750.605 Q34.4227 749.092 36.2262 749.092 Z" fill="#000000" fill-rule="evenodd" fill-opacity="1" /><path clip-path="url(#clip680)" d="M44.5998 746.509 Q33.4565 746.509 24.4711 742.355 Q20.703 740.583 17.5468 738.103 Q14.3907 735.624 13.0058 733.981 Q11.621 732.339 11.621 731.888 Q11.621 731.244 12.2651 731.211 Q12.5871 731.211 13.3923 732.081 Q24.2135 742.709 44.5998 742.677 Q65.0505 742.677 75.453 732.339 Q76.5802 731.211 76.9345 731.211 Q77.5786 731.211 77.5786 731.888 Q77.5786 732.339 76.2581 733.917 Q74.9377 735.495 71.9103 737.942 Q68.883 740.39 65.1793 742.161 Q56.1939 746.509 44.5998 746.509 Z" fill="#000000" fill-rule="evenodd" fill-opacity="1" /><path clip-path="url(#clip680)" d="M42.4742 686.721 Q47.1762 686.721 51.7173 689.105 Q56.2583 691.456 59.0602 695.159 Q61.8299 698.863 61.8299 702.631 Q61.8299 704.886 60.6061 706.399 Q59.3501 707.881 57.5787 708.686 Q59.7687 709.298 65.0183 710.618 Q70.2678 711.939 70.7831 711.939 Q71.073 711.939 71.2018 711.874 Q71.3306 711.81 71.4917 711.52 Q71.6849 711.23 71.7493 710.522 Q71.8459 709.813 71.8459 708.621 Q71.8459 708.01 71.8459 707.784 Q71.8781 707.526 72.0392 707.301 Q72.2002 707.043 72.5545 707.043 Q73.8749 707.043 73.8749 708.235 Q73.8749 709.298 73.7783 711.488 Q73.6817 713.678 73.6817 714.773 Q73.6817 715.707 73.7783 717.575 Q73.8749 719.443 73.8749 720.312 Q73.8749 721.182 73.102 721.182 Q72.6511 721.182 72.3612 721.053 Q72.1036 720.956 71.9747 720.699 Q71.8781 720.441 71.8459 720.216 Q71.8459 720.022 71.8459 719.636 Q71.8459 718.154 71.5883 717.51 Q71.3628 716.866 70.8797 716.641 Q70.4289 716.383 69.1406 716.093 L39.7689 708.686 Q37.8043 708.235 36.4195 708.235 Q34.6804 708.235 34.0362 708.782 Q33.3921 709.33 33.3921 710.296 Q33.3921 711.971 35.3889 713.066 Q37.3857 714.161 41.2504 715.095 Q42.3132 715.385 42.5386 715.578 Q42.764 715.739 42.764 716.222 Q42.7318 717.027 42.0877 717.027 Q41.9267 717.027 40.8961 716.77 Q39.8333 716.512 38.2874 716.029 Q36.7093 715.514 35.7109 714.966 Q35.0346 714.644 34.5837 714.354 Q34.1329 714.064 33.4243 713.485 Q32.7158 712.873 32.3293 712.003 Q31.9429 711.134 31.9429 710.071 Q31.9429 708.01 33.1667 706.303 Q34.3905 704.596 36.8704 704.145 Q34.7126 702.309 33.3277 700.055 Q31.9429 697.8 31.9429 695.514 Q31.9429 691.713 34.9058 689.234 Q37.8365 686.721 42.4742 686.721 M39.5757 691.488 Q36.6449 691.488 35.0346 692.615 Q33.3921 693.71 33.3921 695.707 Q33.3921 698.187 35.9042 701.053 Q38.2874 703.887 40.5096 704.467 L53.4242 707.72 L54.487 707.913 Q54.6802 707.913 55.2599 707.816 Q55.8074 707.687 56.7092 707.333 Q57.6109 706.947 58.4161 706.431 Q59.189 705.884 59.7687 704.918 Q60.3484 703.919 60.3484 702.696 Q60.3484 700.731 58.6093 698.605 Q56.8702 696.448 53.5852 694.837 Q51.4596 693.839 46.8864 692.68 Q42.2809 691.488 39.5757 691.488 Z" fill="#000000" fill-rule="evenodd" fill-opacity="1" /><path clip-path="url(#clip680)" d="M65.6679 680.017 L64.2251 680.017 Q64.2251 674.471 61.2718 671.608 Q61.2718 670.819 61.4522 670.683 Q61.6325 670.548 62.4667 670.548 L88.3698 670.548 Q89.745 670.548 90.1734 669.872 Q90.6017 669.196 90.6017 666.242 L90.6017 664.777 L92.022 664.777 Q91.8867 666.4 91.8867 672.262 Q91.8867 678.123 92.022 679.724 L90.6017 679.724 L90.6017 678.258 Q90.6017 675.35 90.1959 674.651 Q89.7676 673.952 88.3698 673.952 L64.4505 673.952 Q65.6679 676.365 65.6679 680.017 Z" fill="#000000" fill-rule="evenodd" fill-opacity="1" /><path clip-path="url(#clip680)" d="M76.9345 657.883 Q76.6124 657.883 75.8072 657.046 Q64.9861 646.418 44.5998 646.418 Q24.149 646.418 13.811 656.627 Q12.6193 657.883 12.2651 657.883 Q11.621 657.883 11.621 657.239 Q11.621 656.788 12.9414 655.21 Q14.2618 653.6 17.2892 651.184 Q20.3165 648.737 24.0202 646.933 Q33.0057 642.585 44.5998 642.585 Q55.743 642.585 64.7284 646.74 Q68.4965 648.511 71.6527 650.991 Q74.8089 653.471 76.1937 655.113 Q77.5786 656.756 77.5786 657.239 Q77.5786 657.883 76.9345 657.883 Z" fill="#000000" fill-rule="evenodd" fill-opacity="1" /><circle clip-path="url(#clip683)" cx="617.969" cy="649.221" r="14" fill="#009af9" fill-rule="evenodd" fill-opacity="1" stroke="#000000" stroke-opacity="1" stroke-width="3.2"/>
<circle clip-path="url(#clip683)" cx="804.505" cy="494.906" r="14" fill="#009af9" fill-rule="evenodd" fill-opacity="1" stroke="#000000" stroke-opacity="1" stroke-width="3.2"/>
<circle clip-path="url(#clip683)" cx="991.041" cy="524.055" r="14" fill="#009af9" fill-rule="evenodd" fill-opacity="1" stroke="#000000" stroke-opacity="1" stroke-width="3.2"/>
<circle clip-path="url(#clip683)" cx="1177.58" cy="423.054" r="14" fill="#009af9" fill-rule="evenodd" fill-opacity="1" stroke="#000000" stroke-opacity="1" stroke-width="3.2"/>
<circle clip-path="url(#clip683)" cx="1364.11" cy="359.067" r="14" fill="#009af9" fill-rule="evenodd" fill-opacity="1" stroke="#000000" stroke-opacity="1" stroke-width="3.2"/>
<circle clip-path="url(#clip683)" cx="1550.65" cy="403.551" r="14" fill="#009af9" fill-rule="evenodd" fill-opacity="1" stroke="#000000" stroke-opacity="1" stroke-width="3.2"/>
<circle clip-path="url(#clip683)" cx="1737.19" cy="283.946" r="14" fill="#009af9" fill-rule="evenodd" fill-opacity="1" stroke="#000000" stroke-opacity="1" stroke-width="3.2"/>
<circle clip-path="url(#clip683)" cx="1923.72" cy="219.633" r="14" fill="#009af9" fill-rule="evenodd" fill-opacity="1" stroke="#000000" stroke-opacity="1" stroke-width="3.2"/>
<circle clip-path="url(#clip683)" cx="2110.26" cy="171.371" r="14" fill="#009af9" fill-rule="evenodd" fill-opacity="1" stroke="#000000" stroke-opacity="1" stroke-width="3.2"/>
<circle clip-path="url(#clip683)" cx="2296.8" cy="86.2969" r="14" fill="#009af9" fill-rule="evenodd" fill-opacity="1" stroke="#000000" stroke-opacity="1" stroke-width="3.2"/>
<polyline clip-path="url(#clip683)" style="stroke:#e26f46; stroke-linecap:butt; stroke-linejoin:round; stroke-width:12; stroke-opacity:1; fill:none" points="
  431.433,1388.05 450.086,1388.05 468.74,1388.05 487.394,1388.05 506.047,1388.05 524.701,1388.05 543.355,1388.05 562.008,1388.05 580.662,1388.05 599.315,1388.05 
  617.969,1388.05 636.623,1388.05 655.276,1388.05 673.93,1388.05 692.584,1388.05 711.237,1388.05 729.891,1388.05 748.544,1388.05 767.198,1388.05 785.852,1388.05 
  804.505,1388.05 823.159,1388.05 841.813,1388.05 860.466,1388.05 879.12,1388.05 897.773,1388.05 916.427,1388.05 935.081,1388.05 953.734,1388.05 972.388,1388.05 
  991.041,1388.05 1009.7,1388.05 1028.35,1388.05 1047,1388.05 1065.66,1388.05 1084.31,1388.05 1102.96,1388.05 1121.62,1388.05 1140.27,1388.05 1158.92,1388.05 
  1177.58,1388.05 1196.23,1388.05 1214.88,1388.05 1233.54,1388.05 1252.19,1388.05 1270.85,1388.05 1289.5,1388.05 1308.15,1388.05 1326.81,1388.05 1345.46,1388.05 
  1364.11,1388.05 1382.77,1388.05 1401.42,1388.05 1420.07,1388.05 1438.73,1388.05 1457.38,1388.05 1476.04,1388.05 1494.69,1388.05 1513.34,1388.05 1532,1388.05 
  1550.65,1388.05 1569.3,1388.05 1587.96,1388.05 1606.61,1388.05 1625.26,1388.05 1643.92,1388.05 1662.57,1388.05 1681.23,1388.05 1699.88,1388.05 1718.53,1388.05 
  1737.19,1388.05 1755.84,1388.05 1774.49,1388.05 1793.15,1388.05 1811.8,1388.05 1830.45,1388.05 1849.11,1388.05 1867.76,1388.05 1886.42,1388.05 1905.07,1388.05 
  1923.72,1388.05 1942.38,1388.05 1961.03,1388.05 1979.68,1388.06 1998.34,1388.06 2016.99,1388.06 2035.64,1388.06 2054.3,1388.06 2072.95,1388.06 2091.61,1388.06 
  2110.26,1388.06 2128.91,1388.06 2147.57,1388.06 2166.22,1388.06 2184.87,1388.06 2203.53,1388.06 2222.18,1388.06 2240.83,1388.06 2259.49,1388.06 2278.14,1388.06 
  2296.8,1388.06 
  "/>
</svg>
