<?xml version="1.0" encoding="utf-8"?>
<svg xmlns="http://www.w3.org/2000/svg" xmlns:xlink="http://www.w3.org/1999/xlink" width="600" height="400" viewBox="0 0 2400 1600">
<defs>
  <clipPath id="clip760">
    <rect x="0" y="0" width="2400" height="1600"/>
  </clipPath>
</defs>
<path clip-path="url(#clip760)" d="
M0 1600 L2400 1600 L2400 0 L0 0  Z
  " fill="#ffffff" fill-rule="evenodd" fill-opacity="1"/>
<defs>
  <clipPath id="clip761">
    <rect x="480" y="0" width="1681" height="1600"/>
  </clipPath>
</defs>
<defs>
  <clipPath id="clip762">
    <rect x="373" y="47" width="1980" height="1381"/>
  </clipPath>
</defs>
<path clip-path="url(#clip760)" d="
M270.056 1426.44 L2352.76 1426.44 L2352.76 47.2441 L270.056 47.2441  Z
  " fill="#ffffff" fill-rule="evenodd" fill-opacity="1"/>
<defs>
  <clipPath id="clip763">
    <rect x="270" y="47" width="2084" height="1380"/>
  </clipPath>
</defs>
<polyline clip-path="url(#clip763)" style="stroke:#000000; stroke-linecap:butt; stroke-linejoin:round; stroke-width:2; stroke-opacity:0.1; fill:none" points="
  329,1426.44 329,47.2441 
  "/>
<polyline clip-path="url(#clip763)" style="stroke:#000000; stroke-linecap:butt; stroke-linejoin:round; stroke-width:2; stroke-opacity:0.1; fill:none" points="
  820.203,1426.44 820.203,47.2441 
  "/>
<polyline clip-path="url(#clip763)" style="stroke:#000000; stroke-linecap:butt; stroke-linejoin:round; stroke-width:2; stroke-opacity:0.1; fill:none" points="
  1311.41,1426.44 1311.41,47.2441 
  "/>
<polyline clip-path="url(#clip763)" style="stroke:#000000; stroke-linecap:butt; stroke-linejoin:round; stroke-width:2; stroke-opacity:0.1; fill:none" points="
  1802.61,1426.44 1802.61,47.2441 
  "/>
<polyline clip-path="url(#clip763)" style="stroke:#000000; stroke-linecap:butt; stroke-linejoin:round; stroke-width:2; stroke-opacity:0.1; fill:none" points="
  2293.81,1426.44 2293.81,47.2441 
  "/>
<polyline clip-path="url(#clip760)" style="stroke:#000000; stroke-linecap:butt; stroke-linejoin:round; stroke-width:4; stroke-opacity:1; fill:none" points="
  270.056,1426.44 2352.76,1426.44 
  "/>
<polyline clip-path="url(#clip760)" style="stroke:#000000; stroke-linecap:butt; stroke-linejoin:round; stroke-width:4; stroke-opacity:1; fill:none" points="
  329,1426.44 329,1407.54 
  "/>
<polyline clip-path="url(#clip760)" style="stroke:#000000; stroke-linecap:butt; stroke-linejoin:round; stroke-width:4; stroke-opacity:1; fill:none" points="
  820.203,1426.44 820.203,1407.54 
  "/>
<polyline clip-path="url(#clip760)" style="stroke:#000000; stroke-linecap:butt; stroke-linejoin:round; stroke-width:4; stroke-opacity:1; fill:none" points="
  1311.41,1426.44 1311.41,1407.54 
  "/>
<polyline clip-path="url(#clip760)" style="stroke:#000000; stroke-linecap:butt; stroke-linejoin:round; stroke-width:4; stroke-opacity:1; fill:none" points="
  1802.61,1426.44 1802.61,1407.54 
  "/>
<polyline clip-path="url(#clip760)" style="stroke:#000000; stroke-linecap:butt; stroke-linejoin:round; stroke-width:4; stroke-opacity:1; fill:none" points="
  2293.81,1426.44 2293.81,1407.54 
  "/>
<path clip-path="url(#clip760)" d="M291.304 1455.63 Q287.693 1455.63 285.864 1459.19 Q284.058 1462.74 284.058 1469.87 Q284.058 1476.97 285.864 1480.54 Q287.693 1484.08 291.304 1484.08 Q294.938 1484.08 296.743 1480.54 Q298.572 1476.97 298.572 1469.87 Q298.572 1462.74 296.743 1459.19 Q294.938 1455.63 291.304 1455.63 M291.304 1451.93 Q297.114 1451.93 300.169 1456.53 Q303.248 1461.12 303.248 1469.87 Q303.248 1478.59 300.169 1483.2 Q297.114 1487.78 291.304 1487.78 Q285.493 1487.78 282.415 1483.2 Q279.359 1478.59 279.359 1469.87 Q279.359 1461.12 282.415 1456.53 Q285.493 1451.93 291.304 1451.93 Z" fill="#000000" fill-rule="evenodd" fill-opacity="1" /><path clip-path="url(#clip760)" d="M311.466 1481.23 L316.35 1481.23 L316.35 1487.11 L311.466 1487.11 L311.466 1481.23 Z" fill="#000000" fill-rule="evenodd" fill-opacity="1" /><path clip-path="url(#clip760)" d="M336.535 1455.63 Q332.924 1455.63 331.095 1459.19 Q329.29 1462.74 329.29 1469.87 Q329.29 1476.97 331.095 1480.54 Q332.924 1484.08 336.535 1484.08 Q340.169 1484.08 341.975 1480.54 Q343.803 1476.97 343.803 1469.87 Q343.803 1462.74 341.975 1459.19 Q340.169 1455.63 336.535 1455.63 M336.535 1451.93 Q342.345 1451.93 345.401 1456.53 Q348.479 1461.12 348.479 1469.87 Q348.479 1478.59 345.401 1483.2 Q342.345 1487.78 336.535 1487.78 Q330.725 1487.78 327.646 1483.2 Q324.591 1478.59 324.591 1469.87 Q324.591 1461.12 327.646 1456.53 Q330.725 1451.93 336.535 1451.93 Z" fill="#000000" fill-rule="evenodd" fill-opacity="1" /><path clip-path="url(#clip760)" d="M366.697 1455.63 Q363.086 1455.63 361.257 1459.19 Q359.451 1462.74 359.451 1469.87 Q359.451 1476.97 361.257 1480.54 Q363.086 1484.08 366.697 1484.08 Q370.331 1484.08 372.137 1480.54 Q373.965 1476.97 373.965 1469.87 Q373.965 1462.74 372.137 1459.19 Q370.331 1455.63 366.697 1455.63 M366.697 1451.93 Q372.507 1451.93 375.562 1456.53 Q378.641 1461.12 378.641 1469.87 Q378.641 1478.59 375.562 1483.2 Q372.507 1487.78 366.697 1487.78 Q360.887 1487.78 357.808 1483.2 Q354.752 1478.59 354.752 1469.87 Q354.752 1461.12 357.808 1456.53 Q360.887 1451.93 366.697 1451.93 Z" fill="#000000" fill-rule="evenodd" fill-opacity="1" /><path clip-path="url(#clip760)" d="M783.004 1455.63 Q779.393 1455.63 777.564 1459.19 Q775.759 1462.74 775.759 1469.87 Q775.759 1476.97 777.564 1480.54 Q779.393 1484.08 783.004 1484.08 Q786.638 1484.08 788.444 1480.54 Q790.273 1476.97 790.273 1469.87 Q790.273 1462.74 788.444 1459.19 Q786.638 1455.63 783.004 1455.63 M783.004 1451.93 Q788.814 1451.93 791.87 1456.53 Q794.949 1461.12 794.949 1469.87 Q794.949 1478.59 791.87 1483.2 Q788.814 1487.78 783.004 1487.78 Q777.194 1487.78 774.115 1483.2 Q771.06 1478.59 771.06 1469.87 Q771.06 1461.12 774.115 1456.53 Q777.194 1451.93 783.004 1451.93 Z" fill="#000000" fill-rule="evenodd" fill-opacity="1" /><path clip-path="url(#clip760)" d="M803.166 1481.23 L808.05 1481.23 L808.05 1487.11 L803.166 1487.11 L803.166 1481.23 Z" fill="#000000" fill-rule="evenodd" fill-opacity="1" /><path clip-path="url(#clip760)" d="M822.263 1483.18 L838.583 1483.18 L838.583 1487.11 L816.638 1487.11 L816.638 1483.18 Q819.3 1480.42 823.884 1475.79 Q828.49 1471.14 829.671 1469.8 Q831.916 1467.27 832.796 1465.54 Q833.698 1463.78 833.698 1462.09 Q833.698 1459.33 831.754 1457.6 Q829.833 1455.86 826.731 1455.86 Q824.532 1455.86 822.078 1456.62 Q819.647 1457.39 816.87 1458.94 L816.87 1454.22 Q819.694 1453.08 822.147 1452.5 Q824.601 1451.93 826.638 1451.93 Q832.009 1451.93 835.203 1454.61 Q838.397 1457.3 838.397 1461.79 Q838.397 1463.92 837.587 1465.84 Q836.8 1467.74 834.694 1470.33 Q834.115 1471 831.013 1474.22 Q827.911 1477.41 822.263 1483.18 Z" fill="#000000" fill-rule="evenodd" fill-opacity="1" /><path clip-path="url(#clip760)" d="M848.444 1452.55 L866.8 1452.55 L866.8 1456.49 L852.726 1456.49 L852.726 1464.96 Q853.745 1464.61 854.763 1464.45 Q855.782 1464.26 856.8 1464.26 Q862.587 1464.26 865.967 1467.43 Q869.346 1470.61 869.346 1476.02 Q869.346 1481.6 865.874 1484.7 Q862.402 1487.78 856.082 1487.78 Q853.907 1487.78 851.638 1487.41 Q849.393 1487.04 846.985 1486.3 L846.985 1481.6 Q849.069 1482.74 851.291 1483.29 Q853.513 1483.85 855.99 1483.85 Q859.994 1483.85 862.332 1481.74 Q864.67 1479.63 864.67 1476.02 Q864.67 1472.41 862.332 1470.3 Q859.994 1468.2 855.99 1468.2 Q854.115 1468.2 852.24 1468.62 Q850.388 1469.03 848.444 1469.91 L848.444 1452.55 Z" fill="#000000" fill-rule="evenodd" fill-opacity="1" /><path clip-path="url(#clip760)" d="M1273.71 1455.63 Q1270.1 1455.63 1268.27 1459.19 Q1266.46 1462.74 1266.46 1469.87 Q1266.46 1476.97 1268.27 1480.54 Q1270.1 1484.08 1273.71 1484.08 Q1277.34 1484.08 1279.15 1480.54 Q1280.98 1476.97 1280.98 1469.87 Q1280.98 1462.74 1279.15 1459.19 Q1277.34 1455.63 1273.71 1455.63 M1273.71 1451.93 Q1279.52 1451.93 1282.58 1456.53 Q1285.65 1461.12 1285.65 1469.87 Q1285.65 1478.59 1282.58 1483.2 Q1279.52 1487.78 1273.71 1487.78 Q1267.9 1487.78 1264.82 1483.2 Q1261.76 1478.59 1261.76 1469.87 Q1261.76 1461.12 1264.82 1456.53 Q1267.9 1451.93 1273.71 1451.93 Z" fill="#000000" fill-rule="evenodd" fill-opacity="1" /><path clip-path="url(#clip760)" d="M1293.87 1481.23 L1298.76 1481.23 L1298.76 1487.11 L1293.87 1487.11 L1293.87 1481.23 Z" fill="#000000" fill-rule="evenodd" fill-opacity="1" /><path clip-path="url(#clip760)" d="M1308.99 1452.55 L1327.34 1452.55 L1327.34 1456.49 L1313.27 1456.49 L1313.27 1464.96 Q1314.29 1464.61 1315.31 1464.45 Q1316.32 1464.26 1317.34 1464.26 Q1323.13 1464.26 1326.51 1467.43 Q1329.89 1470.61 1329.89 1476.02 Q1329.89 1481.6 1326.42 1484.7 Q1322.95 1487.78 1316.63 1487.78 Q1314.45 1487.78 1312.18 1487.41 Q1309.94 1487.04 1307.53 1486.3 L1307.53 1481.6 Q1309.61 1482.74 1311.83 1483.29 Q1314.06 1483.85 1316.53 1483.85 Q1320.54 1483.85 1322.88 1481.74 Q1325.21 1479.63 1325.21 1476.02 Q1325.21 1472.41 1322.88 1470.3 Q1320.54 1468.2 1316.53 1468.2 Q1314.66 1468.2 1312.78 1468.62 Q1310.93 1469.03 1308.99 1469.91 L1308.99 1452.55 Z" fill="#000000" fill-rule="evenodd" fill-opacity="1" /><path clip-path="url(#clip760)" d="M1349.1 1455.63 Q1345.49 1455.63 1343.66 1459.19 Q1341.86 1462.74 1341.86 1469.87 Q1341.86 1476.97 1343.66 1480.54 Q1345.49 1484.08 1349.1 1484.08 Q1352.74 1484.08 1354.54 1480.54 Q1356.37 1476.97 1356.37 1469.87 Q1356.37 1462.74 1354.54 1459.19 Q1352.74 1455.63 1349.1 1455.63 M1349.1 1451.93 Q1354.91 1451.93 1357.97 1456.53 Q1361.05 1461.12 1361.05 1469.87 Q1361.05 1478.59 1357.97 1483.2 Q1354.91 1487.78 1349.1 1487.78 Q1343.29 1487.78 1340.21 1483.2 Q1337.16 1478.59 1337.16 1469.87 Q1337.16 1461.12 1340.21 1456.53 Q1343.29 1451.93 1349.1 1451.93 Z" fill="#000000" fill-rule="evenodd" fill-opacity="1" /><path clip-path="url(#clip760)" d="M1765.41 1455.63 Q1761.8 1455.63 1759.97 1459.19 Q1758.16 1462.74 1758.16 1469.87 Q1758.16 1476.97 1759.97 1480.54 Q1761.8 1484.08 1765.41 1484.08 Q1769.04 1484.08 1770.85 1480.54 Q1772.68 1476.97 1772.68 1469.87 Q1772.68 1462.74 1770.85 1459.19 Q1769.04 1455.63 1765.41 1455.63 M1765.41 1451.93 Q1771.22 1451.93 1774.28 1456.53 Q1777.35 1461.12 1777.35 1469.87 Q1777.35 1478.59 1774.28 1483.2 Q1771.22 1487.78 1765.41 1487.78 Q1759.6 1487.78 1756.52 1483.2 Q1753.47 1478.59 1753.47 1469.87 Q1753.47 1461.12 1756.52 1456.53 Q1759.6 1451.93 1765.41 1451.93 Z" fill="#000000" fill-rule="evenodd" fill-opacity="1" /><path clip-path="url(#clip760)" d="M1785.57 1481.23 L1790.46 1481.23 L1790.46 1487.11 L1785.57 1487.11 L1785.57 1481.23 Z" fill="#000000" fill-rule="evenodd" fill-opacity="1" /><path clip-path="url(#clip760)" d="M1799.46 1452.55 L1821.68 1452.55 L1821.68 1454.54 L1809.14 1487.11 L1804.25 1487.11 L1816.06 1456.49 L1799.46 1456.49 L1799.46 1452.55 Z" fill="#000000" fill-rule="evenodd" fill-opacity="1" /><path clip-path="url(#clip760)" d="M1830.85 1452.55 L1849.21 1452.55 L1849.21 1456.49 L1835.13 1456.49 L1835.13 1464.96 Q1836.15 1464.61 1837.17 1464.45 Q1838.19 1464.26 1839.21 1464.26 Q1844.99 1464.26 1848.37 1467.43 Q1851.75 1470.61 1851.75 1476.02 Q1851.75 1481.6 1848.28 1484.7 Q1844.81 1487.78 1838.49 1487.78 Q1836.31 1487.78 1834.04 1487.41 Q1831.8 1487.04 1829.39 1486.3 L1829.39 1481.6 Q1831.47 1482.74 1833.7 1483.29 Q1835.92 1483.85 1838.4 1483.85 Q1842.4 1483.85 1844.74 1481.74 Q1847.08 1479.63 1847.08 1476.02 Q1847.08 1472.41 1844.74 1470.3 Q1842.4 1468.2 1838.4 1468.2 Q1836.52 1468.2 1834.65 1468.62 Q1832.79 1469.03 1830.85 1469.91 L1830.85 1452.55 Z" fill="#000000" fill-rule="evenodd" fill-opacity="1" /><path clip-path="url(#clip760)" d="M2245.88 1483.18 L2253.52 1483.18 L2253.52 1456.81 L2245.21 1458.48 L2245.21 1454.22 L2253.48 1452.55 L2258.15 1452.55 L2258.15 1483.18 L2265.79 1483.18 L2265.79 1487.11 L2245.88 1487.11 L2245.88 1483.18 Z" fill="#000000" fill-rule="evenodd" fill-opacity="1" /><path clip-path="url(#clip760)" d="M2275.24 1481.23 L2280.12 1481.23 L2280.12 1487.11 L2275.24 1487.11 L2275.24 1481.23 Z" fill="#000000" fill-rule="evenodd" fill-opacity="1" /><path clip-path="url(#clip760)" d="M2300.3 1455.63 Q2296.69 1455.63 2294.86 1459.19 Q2293.06 1462.74 2293.06 1469.87 Q2293.06 1476.97 2294.86 1480.54 Q2296.69 1484.08 2300.3 1484.08 Q2303.94 1484.08 2305.74 1480.54 Q2307.57 1476.97 2307.57 1469.87 Q2307.57 1462.74 2305.74 1459.19 Q2303.94 1455.63 2300.3 1455.63 M2300.3 1451.93 Q2306.11 1451.93 2309.17 1456.53 Q2312.25 1461.12 2312.25 1469.87 Q2312.25 1478.59 2309.17 1483.2 Q2306.11 1487.78 2300.3 1487.78 Q2294.49 1487.78 2291.42 1483.2 Q2288.36 1478.59 2288.36 1469.87 Q2288.36 1461.12 2291.42 1456.53 Q2294.49 1451.93 2300.3 1451.93 Z" fill="#000000" fill-rule="evenodd" fill-opacity="1" /><path clip-path="url(#clip760)" d="M2330.47 1455.63 Q2326.86 1455.63 2325.03 1459.19 Q2323.22 1462.74 2323.22 1469.87 Q2323.22 1476.97 2325.03 1480.54 Q2326.86 1484.08 2330.47 1484.08 Q2334.1 1484.08 2335.91 1480.54 Q2337.73 1476.97 2337.73 1469.87 Q2337.73 1462.74 2335.91 1459.19 Q2334.1 1455.63 2330.47 1455.63 M2330.47 1451.93 Q2336.28 1451.93 2339.33 1456.53 Q2342.41 1461.12 2342.41 1469.87 Q2342.41 1478.59 2339.33 1483.2 Q2336.28 1487.78 2330.47 1487.78 Q2324.66 1487.78 2321.58 1483.2 Q2318.52 1478.59 2318.52 1469.87 Q2318.52 1461.12 2321.58 1456.53 Q2324.66 1451.93 2330.47 1451.93 Z" fill="#000000" fill-rule="evenodd" fill-opacity="1" /><path clip-path="url(#clip760)" d="M1298.26 1529.02 Q1298.26 1530.86 1297.13 1531.95 Q1296.04 1533.05 1294.65 1533.05 Q1293.43 1533.05 1292.79 1532.34 Q1292.14 1531.63 1292.14 1530.73 Q1292.14 1530.34 1292.3 1529.86 Q1292.46 1529.34 1292.82 1528.73 Q1293.21 1528.12 1294.01 1527.67 Q1294.82 1527.22 1295.91 1527.15 Q1295.68 1526.93 1295.62 1526.9 Q1295.14 1526.51 1294.24 1526.38 Q1294.11 1526.32 1293.66 1526.32 Q1291.43 1526.32 1289.18 1527.96 Q1286.96 1529.57 1284.22 1532.63 Q1280.77 1536.2 1278.55 1537.52 Q1288.31 1538.81 1288.31 1544.45 Q1288.31 1545.38 1288.05 1546.51 Q1287.54 1548.64 1287.54 1550.18 Q1287.54 1553.27 1289.63 1553.27 Q1291.66 1553.27 1292.95 1551.21 Q1294.27 1549.15 1295.36 1545.13 Q1295.52 1544.38 1295.68 1544.16 Q1295.85 1543.93 1296.3 1543.93 Q1297.1 1543.93 1297.1 1544.58 Q1296.36 1548.35 1294.72 1551.24 Q1292.63 1554.75 1289.5 1554.75 Q1286.89 1554.75 1285.15 1552.95 Q1283.45 1551.12 1283.45 1548.22 Q1283.45 1547.51 1283.7 1545.9 Q1283.9 1545.25 1283.9 1544.51 Q1283.9 1543 1283.06 1541.87 Q1282.22 1540.71 1280.87 1540.13 Q1279.52 1539.55 1278.39 1539.3 Q1277.3 1539.01 1276.23 1538.91 Q1273.01 1552.53 1272.56 1553.37 Q1272.27 1553.95 1271.63 1554.34 Q1270.98 1554.75 1270.31 1554.75 Q1269.66 1554.75 1269.02 1554.3 Q1268.41 1553.89 1268.41 1552.89 Q1268.41 1552.37 1268.66 1551.44 L1278.23 1513.43 L1278.42 1512.15 Q1278.42 1511.76 1278.26 1511.57 Q1278.13 1511.34 1277.36 1511.18 Q1276.62 1511.02 1275.14 1511.02 Q1274.53 1511.02 1274.24 1510.99 Q1273.98 1510.95 1273.75 1510.79 Q1273.53 1510.6 1273.53 1510.21 Q1273.53 1509.67 1273.75 1509.38 Q1274.01 1509.05 1274.2 1508.99 Q1274.4 1508.93 1274.78 1508.89 Q1275.33 1508.86 1277.17 1508.7 Q1279 1508.51 1280.58 1508.38 Q1282.16 1508.25 1282.83 1508.25 Q1283.22 1508.25 1283.41 1508.44 Q1283.64 1508.6 1283.67 1508.8 L1283.7 1508.96 L1276.84 1536.78 Q1279.68 1535.66 1284.16 1530.66 Q1289.34 1524.87 1293.78 1524.87 Q1295.88 1524.87 1297.07 1526.16 Q1298.26 1527.41 1298.26 1529.02 Z" fill="#000000" fill-rule="evenodd" fill-opacity="1" /><path clip-path="url(#clip760)" d="M1305.01 1566.8 Q1305.01 1565.43 1305.8 1564.77 Q1306.59 1564.12 1307.6 1564.12 Q1308.66 1564.12 1309.41 1564.82 Q1310.17 1565.5 1310.17 1566.69 Q1310.17 1567.98 1309.27 1568.7 Q1308.39 1569.42 1307.13 1569.24 Q1308.23 1571.09 1310.26 1571.92 Q1312.31 1572.75 1314.21 1572.75 Q1316.19 1572.75 1317.79 1571.04 Q1319.41 1569.33 1319.41 1565.13 Q1319.41 1561.57 1318.02 1559.52 Q1316.64 1557.47 1313.91 1557.47 L1311.89 1557.47 Q1311.19 1557.47 1310.98 1557.4 Q1310.78 1557.33 1310.78 1556.95 Q1310.78 1556.5 1311.48 1556.41 Q1312.18 1556.41 1313.28 1556.27 Q1315.97 1556.18 1317.39 1553.86 Q1318.67 1551.7 1318.67 1548.61 Q1318.67 1545.79 1317.32 1544.62 Q1315.99 1543.42 1314.25 1543.42 Q1312.63 1543.42 1310.85 1544.1 Q1309.07 1544.78 1308.1 1546.29 Q1310.96 1546.29 1310.96 1548.61 Q1310.96 1549.62 1310.31 1550.3 Q1309.68 1550.95 1308.62 1550.95 Q1307.6 1550.95 1306.93 1550.32 Q1306.25 1549.67 1306.25 1548.56 Q1306.25 1545.93 1308.59 1544.1 Q1310.96 1542.27 1314.43 1542.27 Q1317.86 1542.27 1320.38 1544.08 Q1322.93 1545.88 1322.93 1548.65 Q1322.93 1551.38 1321.13 1553.61 Q1319.32 1555.85 1316.46 1556.77 Q1319.98 1557.47 1322.07 1559.86 Q1324.17 1562.23 1324.17 1565.13 Q1324.17 1568.74 1321.33 1571.4 Q1318.49 1574.04 1314.34 1574.04 Q1310.51 1574.04 1307.76 1571.97 Q1305.01 1569.89 1305.01 1566.8 Z" fill="#000000" fill-rule="evenodd" fill-opacity="1" /><path clip-path="url(#clip760)" d="M1336.25 1510.21 Q1336.25 1508.57 1337.25 1507.9 Q1338.25 1507.19 1339.31 1507.19 Q1340.63 1507.19 1341.47 1507.99 Q1342.34 1508.76 1342.34 1510.21 Q1342.34 1510.86 1342.28 1511.21 L1340.09 1531.12 L1338.57 1531.12 L1336.32 1511.21 Q1336.25 1510.86 1336.25 1510.21 Z" fill="#000000" fill-rule="evenodd" fill-opacity="1" /><polyline clip-path="url(#clip763)" style="stroke:#000000; stroke-linecap:butt; stroke-linejoin:round; stroke-width:2; stroke-opacity:0.1; fill:none" points="
  270.056,1387.4 2352.76,1387.4 
  "/>
<polyline clip-path="url(#clip763)" style="stroke:#000000; stroke-linecap:butt; stroke-linejoin:round; stroke-width:2; stroke-opacity:0.1; fill:none" points="
  270.056,1094.55 2352.76,1094.55 
  "/>
<polyline clip-path="url(#clip763)" style="stroke:#000000; stroke-linecap:butt; stroke-linejoin:round; stroke-width:2; stroke-opacity:0.1; fill:none" points="
  270.056,801.7 2352.76,801.7 
  "/>
<polyline clip-path="url(#clip763)" style="stroke:#000000; stroke-linecap:butt; stroke-linejoin:round; stroke-width:2; stroke-opacity:0.1; fill:none" points="
  270.056,508.848 2352.76,508.848 
  "/>
<polyline clip-path="url(#clip763)" style="stroke:#000000; stroke-linecap:butt; stroke-linejoin:round; stroke-width:2; stroke-opacity:0.1; fill:none" points="
  270.056,215.996 2352.76,215.996 
  "/>
<polyline clip-path="url(#clip760)" style="stroke:#000000; stroke-linecap:butt; stroke-linejoin:round; stroke-width:4; stroke-opacity:1; fill:none" points="
  270.056,1426.44 270.056,47.2441 
  "/>
<polyline clip-path="url(#clip760)" style="stroke:#000000; stroke-linecap:butt; stroke-linejoin:round; stroke-width:4; stroke-opacity:1; fill:none" points="
  270.056,1387.4 288.954,1387.4 
  "/>
<polyline clip-path="url(#clip760)" style="stroke:#000000; stroke-linecap:butt; stroke-linejoin:round; stroke-width:4; stroke-opacity:1; fill:none" points="
  270.056,1094.55 288.954,1094.55 
  "/>
<polyline clip-path="url(#clip760)" style="stroke:#000000; stroke-linecap:butt; stroke-linejoin:round; stroke-width:4; stroke-opacity:1; fill:none" points="
  270.056,801.7 288.954,801.7 
  "/>
<polyline clip-path="url(#clip760)" style="stroke:#000000; stroke-linecap:butt; stroke-linejoin:round; stroke-width:4; stroke-opacity:1; fill:none" points="
  270.056,508.848 288.954,508.848 
  "/>
<polyline clip-path="url(#clip760)" style="stroke:#000000; stroke-linecap:butt; stroke-linejoin:round; stroke-width:4; stroke-opacity:1; fill:none" points="
  270.056,215.996 288.954,215.996 
  "/>
<path clip-path="url(#clip760)" d="M222.111 1373.2 Q218.5 1373.2 216.672 1376.77 Q214.866 1380.31 214.866 1387.44 Q214.866 1394.55 216.672 1398.11 Q218.5 1401.65 222.111 1401.65 Q225.746 1401.65 227.551 1398.11 Q229.38 1394.55 229.38 1387.44 Q229.38 1380.31 227.551 1376.77 Q225.746 1373.2 222.111 1373.2 M222.111 1369.5 Q227.922 1369.5 230.977 1374.11 Q234.056 1378.69 234.056 1387.44 Q234.056 1396.17 230.977 1400.77 Q227.922 1405.36 222.111 1405.36 Q216.301 1405.36 213.223 1400.77 Q210.167 1396.17 210.167 1387.44 Q210.167 1378.69 213.223 1374.11 Q216.301 1369.5 222.111 1369.5 Z" fill="#000000" fill-rule="evenodd" fill-opacity="1" /><path clip-path="url(#clip760)" d="M151.834 1077.27 L170.19 1077.27 L170.19 1081.21 L156.116 1081.21 L156.116 1089.68 Q157.135 1089.33 158.153 1089.17 Q159.172 1088.99 160.191 1088.99 Q165.978 1088.99 169.357 1092.16 Q172.737 1095.33 172.737 1100.74 Q172.737 1106.32 169.265 1109.43 Q165.792 1112.5 159.473 1112.5 Q157.297 1112.5 155.029 1112.13 Q152.783 1111.76 150.376 1111.02 L150.376 1106.32 Q152.459 1107.46 154.681 1108.01 Q156.904 1108.57 159.38 1108.57 Q163.385 1108.57 165.723 1106.46 Q168.061 1104.36 168.061 1100.74 Q168.061 1097.13 165.723 1095.03 Q163.385 1092.92 159.38 1092.92 Q157.505 1092.92 155.63 1093.34 Q153.779 1093.75 151.834 1094.63 L151.834 1077.27 Z" fill="#000000" fill-rule="evenodd" fill-opacity="1" /><path clip-path="url(#clip760)" d="M191.95 1080.35 Q188.339 1080.35 186.51 1083.92 Q184.704 1087.46 184.704 1094.59 Q184.704 1101.69 186.51 1105.26 Q188.339 1108.8 191.95 1108.8 Q195.584 1108.8 197.389 1105.26 Q199.218 1101.69 199.218 1094.59 Q199.218 1087.46 197.389 1083.92 Q195.584 1080.35 191.95 1080.35 M191.95 1076.65 Q197.76 1076.65 200.815 1081.25 Q203.894 1085.84 203.894 1094.59 Q203.894 1103.31 200.815 1107.92 Q197.76 1112.5 191.95 1112.5 Q186.139 1112.5 183.061 1107.92 Q180.005 1103.31 180.005 1094.59 Q180.005 1085.84 183.061 1081.25 Q186.139 1076.65 191.95 1076.65 Z" fill="#000000" fill-rule="evenodd" fill-opacity="1" /><path clip-path="url(#clip760)" d="M222.111 1080.35 Q218.5 1080.35 216.672 1083.92 Q214.866 1087.46 214.866 1094.59 Q214.866 1101.69 216.672 1105.26 Q218.5 1108.8 222.111 1108.8 Q225.746 1108.8 227.551 1105.26 Q229.38 1101.69 229.38 1094.59 Q229.38 1087.46 227.551 1083.92 Q225.746 1080.35 222.111 1080.35 M222.111 1076.65 Q227.922 1076.65 230.977 1081.25 Q234.056 1085.84 234.056 1094.59 Q234.056 1103.31 230.977 1107.92 Q227.922 1112.5 222.111 1112.5 Q216.301 1112.5 213.223 1107.92 Q210.167 1103.31 210.167 1094.59 Q210.167 1085.84 213.223 1081.25 Q216.301 1076.65 222.111 1076.65 Z" fill="#000000" fill-rule="evenodd" fill-opacity="1" /><path clip-path="url(#clip760)" d="M122.436 815.045 L130.075 815.045 L130.075 788.68 L121.765 790.346 L121.765 786.087 L130.029 784.42 L134.705 784.42 L134.705 815.045 L142.343 815.045 L142.343 818.98 L122.436 818.98 L122.436 815.045 Z" fill="#000000" fill-rule="evenodd" fill-opacity="1" /><path clip-path="url(#clip760)" d="M161.788 787.499 Q158.177 787.499 156.348 791.064 Q154.542 794.606 154.542 801.735 Q154.542 808.842 156.348 812.406 Q158.177 815.948 161.788 815.948 Q165.422 815.948 167.228 812.406 Q169.056 808.842 169.056 801.735 Q169.056 794.606 167.228 791.064 Q165.422 787.499 161.788 787.499 M161.788 783.795 Q167.598 783.795 170.653 788.402 Q173.732 792.985 173.732 801.735 Q173.732 810.462 170.653 815.068 Q167.598 819.652 161.788 819.652 Q155.978 819.652 152.899 815.068 Q149.843 810.462 149.843 801.735 Q149.843 792.985 152.899 788.402 Q155.978 783.795 161.788 783.795 Z" fill="#000000" fill-rule="evenodd" fill-opacity="1" /><path clip-path="url(#clip760)" d="M191.95 787.499 Q188.339 787.499 186.51 791.064 Q184.704 794.606 184.704 801.735 Q184.704 808.842 186.51 812.406 Q188.339 815.948 191.95 815.948 Q195.584 815.948 197.389 812.406 Q199.218 808.842 199.218 801.735 Q199.218 794.606 197.389 791.064 Q195.584 787.499 191.95 787.499 M191.95 783.795 Q197.76 783.795 200.815 788.402 Q203.894 792.985 203.894 801.735 Q203.894 810.462 200.815 815.068 Q197.76 819.652 191.95 819.652 Q186.139 819.652 183.061 815.068 Q180.005 810.462 180.005 801.735 Q180.005 792.985 183.061 788.402 Q186.139 783.795 191.95 783.795 Z" fill="#000000" fill-rule="evenodd" fill-opacity="1" /><path clip-path="url(#clip760)" d="M222.111 787.499 Q218.5 787.499 216.672 791.064 Q214.866 794.606 214.866 801.735 Q214.866 808.842 216.672 812.406 Q218.5 815.948 222.111 815.948 Q225.746 815.948 227.551 812.406 Q229.38 808.842 229.38 801.735 Q229.38 794.606 227.551 791.064 Q225.746 787.499 222.111 787.499 M222.111 783.795 Q227.922 783.795 230.977 788.402 Q234.056 792.985 234.056 801.735 Q234.056 810.462 230.977 815.068 Q227.922 819.652 222.111 819.652 Q216.301 819.652 213.223 815.068 Q210.167 810.462 210.167 801.735 Q210.167 792.985 213.223 788.402 Q216.301 783.795 222.111 783.795 Z" fill="#000000" fill-rule="evenodd" fill-opacity="1" /><path clip-path="url(#clip760)" d="M122.436 522.193 L130.075 522.193 L130.075 495.828 L121.765 497.494 L121.765 493.235 L130.029 491.568 L134.705 491.568 L134.705 522.193 L142.343 522.193 L142.343 526.128 L122.436 526.128 L122.436 522.193 Z" fill="#000000" fill-rule="evenodd" fill-opacity="1" /><path clip-path="url(#clip760)" d="M151.834 491.568 L170.19 491.568 L170.19 495.504 L156.116 495.504 L156.116 503.976 Q157.135 503.628 158.153 503.466 Q159.172 503.281 160.191 503.281 Q165.978 503.281 169.357 506.453 Q172.737 509.624 172.737 515.04 Q172.737 520.619 169.265 523.721 Q165.792 526.8 159.473 526.8 Q157.297 526.8 155.029 526.429 Q152.783 526.059 150.376 525.318 L150.376 520.619 Q152.459 521.753 154.681 522.309 Q156.904 522.864 159.38 522.864 Q163.385 522.864 165.723 520.758 Q168.061 518.652 168.061 515.04 Q168.061 511.429 165.723 509.323 Q163.385 507.216 159.38 507.216 Q157.505 507.216 155.63 507.633 Q153.779 508.05 151.834 508.929 L151.834 491.568 Z" fill="#000000" fill-rule="evenodd" fill-opacity="1" /><path clip-path="url(#clip760)" d="M191.95 494.647 Q188.339 494.647 186.51 498.212 Q184.704 501.753 184.704 508.883 Q184.704 515.99 186.51 519.554 Q188.339 523.096 191.95 523.096 Q195.584 523.096 197.389 519.554 Q199.218 515.99 199.218 508.883 Q199.218 501.753 197.389 498.212 Q195.584 494.647 191.95 494.647 M191.95 490.943 Q197.76 490.943 200.815 495.55 Q203.894 500.133 203.894 508.883 Q203.894 517.61 200.815 522.216 Q197.76 526.8 191.95 526.8 Q186.139 526.8 183.061 522.216 Q180.005 517.61 180.005 508.883 Q180.005 500.133 183.061 495.55 Q186.139 490.943 191.95 490.943 Z" fill="#000000" fill-rule="evenodd" fill-opacity="1" /><path clip-path="url(#clip760)" d="M222.111 494.647 Q218.5 494.647 216.672 498.212 Q214.866 501.753 214.866 508.883 Q214.866 515.99 216.672 519.554 Q218.5 523.096 222.111 523.096 Q225.746 523.096 227.551 519.554 Q229.38 515.99 229.38 508.883 Q229.38 501.753 227.551 498.212 Q225.746 494.647 222.111 494.647 M222.111 490.943 Q227.922 490.943 230.977 495.55 Q234.056 500.133 234.056 508.883 Q234.056 517.61 230.977 522.216 Q227.922 526.8 222.111 526.8 Q216.301 526.8 213.223 522.216 Q210.167 517.61 210.167 508.883 Q210.167 500.133 213.223 495.55 Q216.301 490.943 222.111 490.943 Z" fill="#000000" fill-rule="evenodd" fill-opacity="1" /><path clip-path="url(#clip760)" d="M125.654 229.341 L141.973 229.341 L141.973 233.276 L120.029 233.276 L120.029 229.341 Q122.691 226.586 127.274 221.957 Q131.88 217.304 133.061 215.962 Q135.306 213.438 136.186 211.702 Q137.089 209.943 137.089 208.253 Q137.089 205.499 135.144 203.763 Q133.223 202.026 130.121 202.026 Q127.922 202.026 125.468 202.79 Q123.038 203.554 120.26 205.105 L120.26 200.383 Q123.084 199.249 125.538 198.67 Q127.992 198.091 130.029 198.091 Q135.399 198.091 138.593 200.776 Q141.788 203.462 141.788 207.952 Q141.788 210.082 140.978 212.003 Q140.191 213.901 138.084 216.494 Q137.505 217.165 134.404 220.383 Q131.302 223.577 125.654 229.341 Z" fill="#000000" fill-rule="evenodd" fill-opacity="1" /><path clip-path="url(#clip760)" d="M161.788 201.795 Q158.177 201.795 156.348 205.36 Q154.542 208.901 154.542 216.031 Q154.542 223.137 156.348 226.702 Q158.177 230.244 161.788 230.244 Q165.422 230.244 167.228 226.702 Q169.056 223.137 169.056 216.031 Q169.056 208.901 167.228 205.36 Q165.422 201.795 161.788 201.795 M161.788 198.091 Q167.598 198.091 170.653 202.698 Q173.732 207.281 173.732 216.031 Q173.732 224.758 170.653 229.364 Q167.598 233.948 161.788 233.948 Q155.978 233.948 152.899 229.364 Q149.843 224.758 149.843 216.031 Q149.843 207.281 152.899 202.698 Q155.978 198.091 161.788 198.091 Z" fill="#000000" fill-rule="evenodd" fill-opacity="1" /><path clip-path="url(#clip760)" d="M191.95 201.795 Q188.339 201.795 186.51 205.36 Q184.704 208.901 184.704 216.031 Q184.704 223.137 186.51 226.702 Q188.339 230.244 191.95 230.244 Q195.584 230.244 197.389 226.702 Q199.218 223.137 199.218 216.031 Q199.218 208.901 197.389 205.36 Q195.584 201.795 191.95 201.795 M191.95 198.091 Q197.76 198.091 200.815 202.698 Q203.894 207.281 203.894 216.031 Q203.894 224.758 200.815 229.364 Q197.76 233.948 191.95 233.948 Q186.139 233.948 183.061 229.364 Q180.005 224.758 180.005 216.031 Q180.005 207.281 183.061 202.698 Q186.139 198.091 191.95 198.091 Z" fill="#000000" fill-rule="evenodd" fill-opacity="1" /><path clip-path="url(#clip760)" d="M222.111 201.795 Q218.5 201.795 216.672 205.36 Q214.866 208.901 214.866 216.031 Q214.866 223.137 216.672 226.702 Q218.5 230.244 222.111 230.244 Q225.746 230.244 227.551 226.702 Q229.38 223.137 229.38 216.031 Q229.38 208.901 227.551 205.36 Q225.746 201.795 222.111 201.795 M222.111 198.091 Q227.922 198.091 230.977 202.698 Q234.056 207.281 234.056 216.031 Q234.056 224.758 230.977 229.364 Q227.922 233.948 222.111 233.948 Q216.301 233.948 213.223 229.364 Q210.167 224.758 210.167 216.031 Q210.167 207.281 213.223 202.698 Q216.301 198.091 222.111 198.091 Z" fill="#000000" fill-rule="evenodd" fill-opacity="1" /><path clip-path="url(#clip760)" d="M36.5483 812.509 Q37.3857 812.509 39.0282 812.735 Q40.6707 812.96 43.0539 813.508 Q45.4371 814.055 47.9492 814.86 Q50.4612 815.633 52.9733 816.857 Q55.4531 818.081 57.4177 819.53 Q59.3823 820.979 60.6061 823.008 Q61.8299 825.037 61.8299 827.324 Q61.8299 828.387 61.6689 829.417 Q61.5078 830.448 60.9926 831.736 Q60.4773 833.024 59.6399 833.958 Q58.7703 834.892 57.2245 835.536 Q55.6786 836.181 53.6496 836.181 Q51.5562 836.181 48.7543 835.408 Q45.9202 834.602 40.1232 832.412 Q37.128 831.285 35.4855 831.285 Q34.7448 831.285 34.2939 831.446 Q33.8108 831.607 33.6498 831.929 Q33.4565 832.251 33.4243 832.445 Q33.3921 832.606 33.3921 832.928 Q33.3921 834.699 35.2279 836.503 Q37.0636 838.306 41.5724 839.594 Q42.3776 839.852 42.5708 840.013 Q42.764 840.174 42.764 840.657 Q42.7318 841.462 42.0877 841.462 Q41.8945 841.462 41.1537 841.237 Q40.3808 841.011 39.2214 840.593 Q38.0298 840.174 36.8059 839.433 Q35.5499 838.693 34.4549 837.791 Q33.3599 836.857 32.6514 835.536 Q31.9429 834.216 31.9429 832.735 Q31.9429 830.319 33.521 828.838 Q35.0668 827.324 37.3534 827.324 Q38.6095 827.324 40.6384 828.129 Q44.3099 829.482 46.0812 830.094 Q47.8526 830.706 50.3646 831.35 Q52.8767 831.962 54.6158 831.962 Q57.2567 831.962 58.8026 830.738 Q60.3484 829.514 60.3484 827.066 Q60.3484 824.876 58.7703 822.912 Q57.1601 820.915 54.8734 819.595 Q52.5546 818.274 49.9781 817.276 Q47.3695 816.277 45.4049 815.826 Q43.4082 815.343 42.4742 815.343 Q39.2214 815.343 37.0958 817.566 Q36.4839 818.177 36.0974 818.403 Q35.7109 818.628 35.099 818.628 Q33.9718 818.628 32.9735 817.63 Q31.9429 816.599 31.9429 815.408 Q31.9429 814.313 33.0379 813.411 Q34.1329 812.509 36.5483 812.509 Z" fill="#000000" fill-rule="evenodd" fill-opacity="1" /><path clip-path="url(#clip760)" d="M51.6529 779.953 Q55.8074 780.823 58.1906 781.95 Q61.8299 783.753 61.8299 786.813 Q61.8299 789.132 60.4128 790.774 Q58.9958 792.417 56.8702 792.803 Q61.8299 797.022 61.8299 801.402 Q61.8299 805.267 58.8992 807.714 Q55.9362 810.162 51.2664 810.162 Q46.5643 810.162 42.0555 807.843 Q37.5467 805.492 34.7448 801.789 Q31.9429 798.085 31.9429 794.285 Q31.9429 790.259 36.1618 788.198 Q35.0024 788.037 34.1329 787.296 Q33.2633 786.555 33.2633 785.428 Q33.2633 784.558 33.7464 784.043 Q34.1973 783.528 35.0346 783.528 Q35.4533 783.528 37.289 783.979 L46.4999 786.362 L52.458 787.811 Q54.648 788.359 55.4531 788.52 Q56.2583 788.649 57.3211 788.649 Q60.3484 788.649 60.3484 786.684 Q60.3484 785.718 59.7365 784.945 Q59.1246 784.172 57.8364 783.56 Q56.5481 782.948 55.3565 782.562 Q54.1327 782.175 52.2004 781.66 Q51.4274 781.499 51.2342 781.37 Q51.0087 781.209 51.0087 780.758 Q51.0087 779.953 51.6529 779.953 M39.1892 789.003 Q38.8993 789.003 38.0942 789.228 Q37.289 789.454 36.1618 789.969 Q35.0346 790.484 34.2295 791.612 Q33.3921 792.707 33.3921 794.188 Q33.3921 796.185 35.099 798.278 Q36.8059 800.339 39.7045 801.853 Q42.0233 803.012 46.8864 804.268 Q51.7495 805.492 54.1649 805.492 Q55.6464 805.492 56.9668 805.17 Q58.2551 804.816 59.3178 803.818 Q60.3484 802.819 60.3484 801.273 Q60.3484 797.505 55.6786 793.802 Q54.8734 793.093 54.5514 792.932 Q54.1971 792.739 53.2309 792.481 L40.3164 789.196 Q39.3502 789.003 39.1892 789.003 Z" fill="#000000" fill-rule="evenodd" fill-opacity="1" /><path clip-path="url(#clip760)" d="M36.2262 748.756 Q37.9332 748.756 39.0282 749.884 Q40.1232 750.979 40.1232 752.396 Q40.1232 753.619 39.4146 754.264 Q38.7061 754.908 37.8043 754.908 Q36.5161 754.908 35.4533 753.909 Q34.3905 752.911 34.1651 751.462 Q33.3921 752.524 33.3921 754.231 Q33.3921 757.033 35.5499 759.513 Q36.5483 760.608 38.384 761.8 Q40.1876 762.991 40.9605 763.217 L49.5595 765.31 Q50.5256 765.503 55.1633 766.695 Q59.7687 767.854 59.962 767.951 Q60.8637 768.273 61.3468 768.982 Q61.8299 769.69 61.8299 770.399 Q61.8299 771.204 61.3468 771.751 Q60.8637 772.299 60.0264 772.299 Q59.8976 772.299 59.4145 772.202 Q58.9314 772.106 58.2551 771.945 Q57.5787 771.784 57.1923 771.719 L41.9589 767.887 Q39.1892 767.178 38.3196 767.017 Q37.4179 766.824 36.4195 766.824 Q34.6804 766.824 34.0362 767.371 Q33.3921 767.919 33.3921 768.885 Q33.3921 770.56 35.3889 771.655 Q37.3857 772.75 41.2504 773.684 Q42.3132 773.974 42.5386 774.167 Q42.764 774.328 42.764 774.811 Q42.7318 775.616 42.0877 775.616 Q41.9267 775.616 40.8961 775.358 Q39.8333 775.101 38.2874 774.618 Q36.7093 774.102 35.7109 773.555 Q35.0346 773.233 34.5837 772.943 Q34.1329 772.653 33.4243 772.073 Q32.7158 771.494 32.3293 770.624 Q31.9429 769.755 31.9429 768.692 Q31.9429 766.373 33.3599 764.73 Q34.777 763.056 36.9992 762.669 Q35.8398 761.864 34.8414 760.866 Q33.8108 759.867 32.8768 758.032 Q31.9429 756.196 31.9429 754.231 Q31.9429 751.784 33.1989 750.27 Q34.4227 748.756 36.2262 748.756 Z" fill="#000000" fill-rule="evenodd" fill-opacity="1" /><path clip-path="url(#clip760)" d="M44.5998 746.174 Q33.4565 746.174 24.4711 742.019 Q20.703 740.248 17.5468 737.768 Q14.3907 735.288 13.0058 733.646 Q11.621 732.003 11.621 731.552 Q11.621 730.908 12.2651 730.876 Q12.5871 730.876 13.3923 731.746 Q24.2135 742.373 44.5998 742.341 Q65.0505 742.341 75.453 732.003 Q76.5802 730.876 76.9345 730.876 Q77.5786 730.876 77.5786 731.552 Q77.5786 732.003 76.2581 733.581 Q74.9377 735.159 71.9103 737.607 Q68.883 740.055 65.1793 741.826 Q56.1939 746.174 44.5998 746.174 Z" fill="#000000" fill-rule="evenodd" fill-opacity="1" /><path clip-path="url(#clip760)" d="M42.4742 686.386 Q47.1762 686.386 51.7173 688.769 Q56.2583 691.12 59.0602 694.824 Q61.8299 698.528 61.8299 702.296 Q61.8299 704.55 60.6061 706.064 Q59.3501 707.545 57.5787 708.35 Q59.7687 708.962 65.0183 710.283 Q70.2678 711.603 70.7831 711.603 Q71.073 711.603 71.2018 711.539 Q71.3306 711.474 71.4917 711.185 Q71.6849 710.895 71.7493 710.186 Q71.8459 709.478 71.8459 708.286 Q71.8459 707.674 71.8459 707.449 Q71.8781 707.191 72.0392 706.966 Q72.2002 706.708 72.5545 706.708 Q73.8749 706.708 73.8749 707.9 Q73.8749 708.962 73.7783 711.152 Q73.6817 713.342 73.6817 714.437 Q73.6817 715.371 73.7783 717.239 Q73.8749 719.107 73.8749 719.977 Q73.8749 720.846 73.102 720.846 Q72.6511 720.846 72.3612 720.718 Q72.1036 720.621 71.9747 720.363 Q71.8781 720.106 71.8459 719.88 Q71.8459 719.687 71.8459 719.3 Q71.8459 717.819 71.5883 717.175 Q71.3628 716.531 70.8797 716.305 Q70.4289 716.048 69.1406 715.758 L39.7689 708.35 Q37.8043 707.9 36.4195 707.9 Q34.6804 707.9 34.0362 708.447 Q33.3921 708.995 33.3921 709.961 Q33.3921 711.635 35.3889 712.73 Q37.3857 713.825 41.2504 714.759 Q42.3132 715.049 42.5386 715.243 Q42.764 715.404 42.764 715.887 Q42.7318 716.692 42.0877 716.692 Q41.9267 716.692 40.8961 716.434 Q39.8333 716.176 38.2874 715.693 Q36.7093 715.178 35.7109 714.631 Q35.0346 714.309 34.5837 714.019 Q34.1329 713.729 33.4243 713.149 Q32.7158 712.537 32.3293 711.668 Q31.9429 710.798 31.9429 709.735 Q31.9429 707.674 33.1667 705.967 Q34.3905 704.26 36.8704 703.809 Q34.7126 701.974 33.3277 699.719 Q31.9429 697.465 31.9429 695.178 Q31.9429 691.378 34.9058 688.898 Q37.8365 686.386 42.4742 686.386 M39.5757 691.153 Q36.6449 691.153 35.0346 692.28 Q33.3921 693.375 33.3921 695.371 Q33.3921 697.851 35.9042 700.718 Q38.2874 703.552 40.5096 704.131 L53.4242 707.384 L54.487 707.578 Q54.6802 707.578 55.2599 707.481 Q55.8074 707.352 56.7092 706.998 Q57.6109 706.611 58.4161 706.096 Q59.189 705.549 59.7687 704.582 Q60.3484 703.584 60.3484 702.36 Q60.3484 700.396 58.6093 698.27 Q56.8702 696.112 53.5852 694.502 Q51.4596 693.504 46.8864 692.344 Q42.2809 691.153 39.5757 691.153 Z" fill="#000000" fill-rule="evenodd" fill-opacity="1" /><path clip-path="url(#clip760)" d="M65.6679 679.681 L64.2251 679.681 Q64.2251 674.135 61.2718 671.272 Q61.2718 670.483 61.4522 670.348 Q61.6325 670.213 62.4667 670.213 L88.3698 670.213 Q89.745 670.213 90.1734 669.536 Q90.6017 668.86 90.6017 665.907 L90.6017 664.442 L92.022 664.442 Q91.8867 666.065 91.8867 671.926 Q91.8867 677.788 92.022 679.388 L90.6017 679.388 L90.6017 677.923 Q90.6017 675.015 90.1959 674.316 Q89.7676 673.617 88.3698 673.617 L64.4505 673.617 Q65.6679 676.029 65.6679 679.681 Z" fill="#000000" fill-rule="evenodd" fill-opacity="1" /><path clip-path="url(#clip760)" d="M76.9345 657.548 Q76.6124 657.548 75.8072 656.71 Q64.9861 646.082 44.5998 646.082 Q24.149 646.082 13.811 656.292 Q12.6193 657.548 12.2651 657.548 Q11.621 657.548 11.621 656.903 Q11.621 656.453 12.9414 654.874 Q14.2618 653.264 17.2892 650.849 Q20.3165 648.401 24.0202 646.598 Q33.0057 642.25 44.5998 642.25 Q55.743 642.25 64.7284 646.404 Q68.4965 648.176 71.6527 650.656 Q74.8089 653.135 76.1937 654.778 Q77.5786 656.42 77.5786 656.903 Q77.5786 657.548 76.9345 657.548 Z" fill="#000000" fill-rule="evenodd" fill-opacity="1" /><polyline clip-path="url(#clip763)" style="stroke:#009af9; stroke-linecap:butt; stroke-linejoin:round; stroke-width:12; stroke-opacity:1; fill:none" points="
  329,1387.4 525.481,1273.89 721.962,1160.63 918.444,1047.42 1114.92,934.215 1311.41,821.018 1507.89,707.824 1704.37,594.632 1900.85,481.441 2097.33,368.251 
  2293.81,255.062 
  "/>
<circle clip-path="url(#clip763)" cx="525.481" cy="238.617" r="14" fill="#e26f46" fill-rule="evenodd" fill-opacity="1" stroke="#000000" stroke-opacity="1" stroke-width="3.2"/>
<circle clip-path="url(#clip763)" cx="721.962" cy="173.75" r="14" fill="#e26f46" fill-rule="evenodd" fill-opacity="1" stroke="#000000" stroke-opacity="1" stroke-width="3.2"/>
<circle clip-path="url(#clip763)" cx="918.444" cy="266.383" r="14" fill="#e26f46" fill-rule="evenodd" fill-opacity="1" stroke="#000000" stroke-opacity="1" stroke-width="3.2"/>
<circle clip-path="url(#clip763)" cx="1114.92" cy="207.551" r="14" fill="#e26f46" fill-rule="evenodd" fill-opacity="1" stroke="#000000" stroke-opacity="1" stroke-width="3.2"/>
<circle clip-path="url(#clip763)" cx="1311.41" cy="86.2779" r="14" fill="#e26f46" fill-rule="evenodd" fill-opacity="1" stroke="#000000" stroke-opacity="1" stroke-width="3.2"/>
<circle clip-path="url(#clip763)" cx="1507.89" cy="125.474" r="14" fill="#e26f46" fill-rule="evenodd" fill-opacity="1" stroke="#000000" stroke-opacity="1" stroke-width="3.2"/>
<circle clip-path="url(#clip763)" cx="1704.37" cy="149.642" r="14" fill="#e26f46" fill-rule="evenodd" fill-opacity="1" stroke="#000000" stroke-opacity="1" stroke-width="3.2"/>
<circle clip-path="url(#clip763)" cx="1900.85" cy="120.575" r="14" fill="#e26f46" fill-rule="evenodd" fill-opacity="1" stroke="#000000" stroke-opacity="1" stroke-width="3.2"/>
<circle clip-path="url(#clip763)" cx="2097.33" cy="204.914" r="14" fill="#e26f46" fill-rule="evenodd" fill-opacity="1" stroke="#000000" stroke-opacity="1" stroke-width="3.2"/>
<circle clip-path="url(#clip763)" cx="2293.81" cy="209.231" r="14" fill="#e26f46" fill-rule="evenodd" fill-opacity="1" stroke="#000000" stroke-opacity="1" stroke-width="3.2"/>
</svg>
