<?xml version="1.0" encoding="utf-8"?>
<svg xmlns="http://www.w3.org/2000/svg" xmlns:xlink="http://www.w3.org/1999/xlink" width="600" height="400" viewBox="0 0 2400 1600">
<defs>
  <clipPath id="clip930">
    <rect x="0" y="0" width="2400" height="1600"/>
  </clipPath>
</defs>
<path clip-path="url(#clip930)" d="
M0 1600 L2400 1600 L2400 0 L0 0  Z
  " fill="#ffffff" fill-rule="evenodd" fill-opacity="1"/>
<defs>
  <clipPath id="clip931">
    <rect x="480" y="0" width="1681" height="1600"/>
  </clipPath>
</defs>
<path clip-path="url(#clip930)" d="
M249.542 1423.18 L2352.76 1423.18 L2352.76 47.2441 L249.542 47.2441  Z
  " fill="#ffffff" fill-rule="evenodd" fill-opacity="1"/>
<defs>
  <clipPath id="clip932">
    <rect x="249" y="47" width="2104" height="1377"/>
  </clipPath>
</defs>
<polyline clip-path="url(#clip932)" style="stroke:#000000; stroke-linecap:butt; stroke-linejoin:round; stroke-width:2; stroke-opacity:0.1; fill:none" points="
  365.223,1423.18 365.223,47.2441 
  "/>
<polyline clip-path="url(#clip932)" style="stroke:#000000; stroke-linecap:butt; stroke-linejoin:round; stroke-width:2; stroke-opacity:0.1; fill:none" points="
  857.815,1423.18 857.815,47.2441 
  "/>
<polyline clip-path="url(#clip932)" style="stroke:#000000; stroke-linecap:butt; stroke-linejoin:round; stroke-width:2; stroke-opacity:0.1; fill:none" points="
  1350.41,1423.18 1350.41,47.2441 
  "/>
<polyline clip-path="url(#clip932)" style="stroke:#000000; stroke-linecap:butt; stroke-linejoin:round; stroke-width:2; stroke-opacity:0.1; fill:none" points="
  1843,1423.18 1843,47.2441 
  "/>
<polyline clip-path="url(#clip932)" style="stroke:#000000; stroke-linecap:butt; stroke-linejoin:round; stroke-width:2; stroke-opacity:0.1; fill:none" points="
  2335.59,1423.18 2335.59,47.2441 
  "/>
<polyline clip-path="url(#clip930)" style="stroke:#000000; stroke-linecap:butt; stroke-linejoin:round; stroke-width:4; stroke-opacity:1; fill:none" points="
  249.542,1423.18 2352.76,1423.18 
  "/>
<polyline clip-path="url(#clip930)" style="stroke:#000000; stroke-linecap:butt; stroke-linejoin:round; stroke-width:4; stroke-opacity:1; fill:none" points="
  365.223,1423.18 365.223,1406.67 
  "/>
<polyline clip-path="url(#clip930)" style="stroke:#000000; stroke-linecap:butt; stroke-linejoin:round; stroke-width:4; stroke-opacity:1; fill:none" points="
  857.815,1423.18 857.815,1406.67 
  "/>
<polyline clip-path="url(#clip930)" style="stroke:#000000; stroke-linecap:butt; stroke-linejoin:round; stroke-width:4; stroke-opacity:1; fill:none" points="
  1350.41,1423.18 1350.41,1406.67 
  "/>
<polyline clip-path="url(#clip930)" style="stroke:#000000; stroke-linecap:butt; stroke-linejoin:round; stroke-width:4; stroke-opacity:1; fill:none" points="
  1843,1423.18 1843,1406.67 
  "/>
<polyline clip-path="url(#clip930)" style="stroke:#000000; stroke-linecap:butt; stroke-linejoin:round; stroke-width:4; stroke-opacity:1; fill:none" points="
  2335.59,1423.18 2335.59,1406.67 
  "/>
<path clip-path="url(#clip930)" d="M365.223 1452.37 Q361.611 1452.37 359.783 1455.94 Q357.977 1459.48 357.977 1466.61 Q357.977 1473.71 359.783 1477.28 Q361.611 1480.82 365.223 1480.82 Q368.857 1480.82 370.662 1477.28 Q372.491 1473.71 372.491 1466.61 Q372.491 1459.48 370.662 1455.94 Q368.857 1452.37 365.223 1452.37 M365.223 1448.67 Q371.033 1448.67 374.088 1453.27 Q377.167 1457.86 377.167 1466.61 Q377.167 1475.33 374.088 1479.94 Q371.033 1484.52 365.223 1484.52 Q359.412 1484.52 356.334 1479.94 Q353.278 1475.33 353.278 1466.61 Q353.278 1457.86 356.334 1453.27 Q359.412 1448.67 365.223 1448.67 Z" fill="#000000" fill-rule="evenodd" fill-opacity="1" /><path clip-path="url(#clip930)" d="M848.093 1449.29 L866.45 1449.29 L866.45 1453.23 L852.376 1453.23 L852.376 1461.7 Q853.394 1461.35 854.413 1461.19 Q855.431 1461 856.45 1461 Q862.237 1461 865.616 1464.18 Q868.996 1467.35 868.996 1472.76 Q868.996 1478.34 865.524 1481.44 Q862.051 1484.52 855.732 1484.52 Q853.556 1484.52 851.288 1484.15 Q849.042 1483.78 846.635 1483.04 L846.635 1478.34 Q848.718 1479.48 850.94 1480.03 Q853.163 1480.59 855.639 1480.59 Q859.644 1480.59 861.982 1478.48 Q864.32 1476.38 864.32 1472.76 Q864.32 1469.15 861.982 1467.05 Q859.644 1464.94 855.639 1464.94 Q853.764 1464.94 851.89 1465.36 Q850.038 1465.77 848.093 1466.65 L848.093 1449.29 Z" fill="#000000" fill-rule="evenodd" fill-opacity="1" /><path clip-path="url(#clip930)" d="M1325.1 1479.92 L1332.73 1479.92 L1332.73 1453.55 L1324.42 1455.22 L1324.42 1450.96 L1332.69 1449.29 L1337.36 1449.29 L1337.36 1479.92 L1345 1479.92 L1345 1483.85 L1325.1 1483.85 L1325.1 1479.92 Z" fill="#000000" fill-rule="evenodd" fill-opacity="1" /><path clip-path="url(#clip930)" d="M1364.45 1452.37 Q1360.84 1452.37 1359.01 1455.94 Q1357.2 1459.48 1357.2 1466.61 Q1357.2 1473.71 1359.01 1477.28 Q1360.84 1480.82 1364.45 1480.82 Q1368.08 1480.82 1369.89 1477.28 Q1371.72 1473.71 1371.72 1466.61 Q1371.72 1459.48 1369.89 1455.94 Q1368.08 1452.37 1364.45 1452.37 M1364.45 1448.67 Q1370.26 1448.67 1373.31 1453.27 Q1376.39 1457.86 1376.39 1466.61 Q1376.39 1475.33 1373.31 1479.94 Q1370.26 1484.52 1364.45 1484.52 Q1358.64 1484.52 1355.56 1479.94 Q1352.5 1475.33 1352.5 1466.61 Q1352.5 1457.86 1355.56 1453.27 Q1358.64 1448.67 1364.45 1448.67 Z" fill="#000000" fill-rule="evenodd" fill-opacity="1" /><path clip-path="url(#clip930)" d="M1818.19 1479.92 L1825.83 1479.92 L1825.83 1453.55 L1817.52 1455.22 L1817.52 1450.96 L1825.78 1449.29 L1830.45 1449.29 L1830.45 1479.92 L1838.09 1479.92 L1838.09 1483.85 L1818.19 1483.85 L1818.19 1479.92 Z" fill="#000000" fill-rule="evenodd" fill-opacity="1" /><path clip-path="url(#clip930)" d="M1847.58 1449.29 L1865.94 1449.29 L1865.94 1453.23 L1851.87 1453.23 L1851.87 1461.7 Q1852.89 1461.35 1853.9 1461.19 Q1854.92 1461 1855.94 1461 Q1861.73 1461 1865.11 1464.18 Q1868.49 1467.35 1868.49 1472.76 Q1868.49 1478.34 1865.01 1481.44 Q1861.54 1484.52 1855.22 1484.52 Q1853.05 1484.52 1850.78 1484.15 Q1848.53 1483.78 1846.13 1483.04 L1846.13 1478.34 Q1848.21 1479.48 1850.43 1480.03 Q1852.65 1480.59 1855.13 1480.59 Q1859.14 1480.59 1861.47 1478.48 Q1863.81 1476.38 1863.81 1472.76 Q1863.81 1469.15 1861.47 1467.05 Q1859.14 1464.94 1855.13 1464.94 Q1853.26 1464.94 1851.38 1465.36 Q1849.53 1465.77 1847.58 1466.65 L1847.58 1449.29 Z" fill="#000000" fill-rule="evenodd" fill-opacity="1" /><path clip-path="url(#clip930)" d="M2314.37 1479.92 L2330.69 1479.92 L2330.69 1483.85 L2308.74 1483.85 L2308.74 1479.92 Q2311.4 1477.16 2315.99 1472.53 Q2320.59 1467.88 2321.77 1466.54 Q2324.02 1464.01 2324.9 1462.28 Q2325.8 1460.52 2325.8 1458.83 Q2325.8 1456.07 2323.86 1454.34 Q2321.94 1452.6 2318.83 1452.6 Q2316.64 1452.6 2314.18 1453.37 Q2311.75 1454.13 2308.97 1455.68 L2308.97 1450.96 Q2311.8 1449.82 2314.25 1449.25 Q2316.71 1448.67 2318.74 1448.67 Q2324.11 1448.67 2327.31 1451.35 Q2330.5 1454.04 2330.5 1458.53 Q2330.5 1460.66 2329.69 1462.58 Q2328.9 1464.48 2326.8 1467.07 Q2326.22 1467.74 2323.12 1470.96 Q2320.02 1474.15 2314.37 1479.92 Z" fill="#000000" fill-rule="evenodd" fill-opacity="1" /><path clip-path="url(#clip930)" d="M2350.5 1452.37 Q2346.89 1452.37 2345.06 1455.94 Q2343.26 1459.48 2343.26 1466.61 Q2343.26 1473.71 2345.06 1477.28 Q2346.89 1480.82 2350.5 1480.82 Q2354.14 1480.82 2355.94 1477.28 Q2357.77 1473.71 2357.77 1466.61 Q2357.77 1459.48 2355.94 1455.94 Q2354.14 1452.37 2350.5 1452.37 M2350.5 1448.67 Q2356.31 1448.67 2359.37 1453.27 Q2362.45 1457.86 2362.45 1466.61 Q2362.45 1475.33 2359.37 1479.94 Q2356.31 1484.52 2350.5 1484.52 Q2344.69 1484.52 2341.61 1479.94 Q2338.56 1475.33 2338.56 1466.61 Q2338.56 1457.86 2341.61 1453.27 Q2344.69 1448.67 2350.5 1448.67 Z" fill="#000000" fill-rule="evenodd" fill-opacity="1" /><path clip-path="url(#clip930)" d="M1303.11 1539.24 Q1305.3 1535.29 1308.36 1533.41 Q1311.41 1531.54 1315.55 1531.54 Q1321.12 1531.54 1324.15 1535.45 Q1327.17 1539.33 1327.17 1546.53 L1327.17 1568.04 L1321.28 1568.04 L1321.28 1546.72 Q1321.28 1541.59 1319.47 1539.11 Q1317.65 1536.63 1313.93 1536.63 Q1309.38 1536.63 1306.73 1539.65 Q1304.09 1542.68 1304.09 1547.9 L1304.09 1568.04 L1298.2 1568.04 L1298.2 1546.72 Q1298.2 1541.56 1296.39 1539.11 Q1294.58 1536.63 1290.79 1536.63 Q1286.3 1536.63 1283.66 1539.68 Q1281.02 1542.71 1281.02 1547.9 L1281.02 1568.04 L1275.13 1568.04 L1275.13 1532.4 L1281.02 1532.4 L1281.02 1537.93 Q1283.02 1534.66 1285.82 1533.1 Q1288.62 1531.54 1292.48 1531.54 Q1296.36 1531.54 1299.06 1533.51 Q1301.8 1535.48 1303.11 1539.24 Z" fill="#000000" fill-rule="evenodd" fill-opacity="1" /><polyline clip-path="url(#clip932)" style="stroke:#000000; stroke-linecap:butt; stroke-linejoin:round; stroke-width:2; stroke-opacity:0.1; fill:none" points="
  249.542,1384.24 2352.76,1384.24 
  "/>
<polyline clip-path="url(#clip932)" style="stroke:#000000; stroke-linecap:butt; stroke-linejoin:round; stroke-width:2; stroke-opacity:0.1; fill:none" points="
  249.542,1062.22 2352.76,1062.22 
  "/>
<polyline clip-path="url(#clip932)" style="stroke:#000000; stroke-linecap:butt; stroke-linejoin:round; stroke-width:2; stroke-opacity:0.1; fill:none" points="
  249.542,740.211 2352.76,740.211 
  "/>
<polyline clip-path="url(#clip932)" style="stroke:#000000; stroke-linecap:butt; stroke-linejoin:round; stroke-width:2; stroke-opacity:0.1; fill:none" points="
  249.542,418.197 2352.76,418.197 
  "/>
<polyline clip-path="url(#clip932)" style="stroke:#000000; stroke-linecap:butt; stroke-linejoin:round; stroke-width:2; stroke-opacity:0.1; fill:none" points="
  249.542,96.183 2352.76,96.183 
  "/>
<polyline clip-path="url(#clip930)" style="stroke:#000000; stroke-linecap:butt; stroke-linejoin:round; stroke-width:4; stroke-opacity:1; fill:none" points="
  249.542,1423.18 249.542,47.2441 
  "/>
<polyline clip-path="url(#clip930)" style="stroke:#000000; stroke-linecap:butt; stroke-linejoin:round; stroke-width:4; stroke-opacity:1; fill:none" points="
  249.542,1384.24 274.781,1384.24 
  "/>
<polyline clip-path="url(#clip930)" style="stroke:#000000; stroke-linecap:butt; stroke-linejoin:round; stroke-width:4; stroke-opacity:1; fill:none" points="
  249.542,1062.22 274.781,1062.22 
  "/>
<polyline clip-path="url(#clip930)" style="stroke:#000000; stroke-linecap:butt; stroke-linejoin:round; stroke-width:4; stroke-opacity:1; fill:none" points="
  249.542,740.211 274.781,740.211 
  "/>
<polyline clip-path="url(#clip930)" style="stroke:#000000; stroke-linecap:butt; stroke-linejoin:round; stroke-width:4; stroke-opacity:1; fill:none" points="
  249.542,418.197 274.781,418.197 
  "/>
<polyline clip-path="url(#clip930)" style="stroke:#000000; stroke-linecap:butt; stroke-linejoin:round; stroke-width:4; stroke-opacity:1; fill:none" points="
  249.542,96.183 274.781,96.183 
  "/>
<path clip-path="url(#clip930)" d="M126.205 1370.04 Q122.593 1370.04 120.765 1373.6 Q118.959 1377.14 118.959 1384.27 Q118.959 1391.38 120.765 1394.94 Q122.593 1398.49 126.205 1398.49 Q129.839 1398.49 131.644 1394.94 Q133.473 1391.38 133.473 1384.27 Q133.473 1377.14 131.644 1373.6 Q129.839 1370.04 126.205 1370.04 M126.205 1366.33 Q132.015 1366.33 135.07 1370.94 Q138.149 1375.52 138.149 1384.27 Q138.149 1393 135.07 1397.61 Q132.015 1402.19 126.205 1402.19 Q120.394 1402.19 117.316 1397.61 Q114.26 1393 114.26 1384.27 Q114.26 1375.52 117.316 1370.94 Q120.394 1366.33 126.205 1366.33 Z" fill="#000000" fill-rule="evenodd" fill-opacity="1" /><path clip-path="url(#clip930)" d="M146.366 1395.64 L151.251 1395.64 L151.251 1401.52 L146.366 1401.52 L146.366 1395.64 Z" fill="#000000" fill-rule="evenodd" fill-opacity="1" /><path clip-path="url(#clip930)" d="M171.436 1370.04 Q167.825 1370.04 165.996 1373.6 Q164.19 1377.14 164.19 1384.27 Q164.19 1391.38 165.996 1394.94 Q167.825 1398.49 171.436 1398.49 Q175.07 1398.49 176.876 1394.94 Q178.704 1391.38 178.704 1384.27 Q178.704 1377.14 176.876 1373.6 Q175.07 1370.04 171.436 1370.04 M171.436 1366.33 Q177.246 1366.33 180.301 1370.94 Q183.38 1375.52 183.38 1384.27 Q183.38 1393 180.301 1397.61 Q177.246 1402.19 171.436 1402.19 Q165.626 1402.19 162.547 1397.61 Q159.491 1393 159.491 1384.27 Q159.491 1375.52 162.547 1370.94 Q165.626 1366.33 171.436 1366.33 Z" fill="#000000" fill-rule="evenodd" fill-opacity="1" /><path clip-path="url(#clip930)" d="M201.598 1370.04 Q197.987 1370.04 196.158 1373.6 Q194.352 1377.14 194.352 1384.27 Q194.352 1391.38 196.158 1394.94 Q197.987 1398.49 201.598 1398.49 Q205.232 1398.49 207.037 1394.94 Q208.866 1391.38 208.866 1384.27 Q208.866 1377.14 207.037 1373.6 Q205.232 1370.04 201.598 1370.04 M201.598 1366.33 Q207.408 1366.33 210.463 1370.94 Q213.542 1375.52 213.542 1384.27 Q213.542 1393 210.463 1397.61 Q207.408 1402.19 201.598 1402.19 Q195.787 1402.19 192.709 1397.61 Q189.653 1393 189.653 1384.27 Q189.653 1375.52 192.709 1370.94 Q195.787 1366.33 201.598 1366.33 Z" fill="#000000" fill-rule="evenodd" fill-opacity="1" /><path clip-path="url(#clip930)" d="M127.2 1048.02 Q123.589 1048.02 121.76 1051.59 Q119.955 1055.13 119.955 1062.26 Q119.955 1069.37 121.76 1072.93 Q123.589 1076.47 127.2 1076.47 Q130.834 1076.47 132.64 1072.93 Q134.468 1069.37 134.468 1062.26 Q134.468 1055.13 132.64 1051.59 Q130.834 1048.02 127.2 1048.02 M127.2 1044.32 Q133.01 1044.32 136.066 1048.93 Q139.144 1053.51 139.144 1062.26 Q139.144 1070.99 136.066 1075.59 Q133.01 1080.18 127.2 1080.18 Q121.39 1080.18 118.311 1075.59 Q115.256 1070.99 115.256 1062.26 Q115.256 1053.51 118.311 1048.93 Q121.39 1044.32 127.2 1044.32 Z" fill="#000000" fill-rule="evenodd" fill-opacity="1" /><path clip-path="url(#clip930)" d="M147.362 1073.62 L152.246 1073.62 L152.246 1079.5 L147.362 1079.5 L147.362 1073.62 Z" fill="#000000" fill-rule="evenodd" fill-opacity="1" /><path clip-path="url(#clip930)" d="M172.431 1048.02 Q168.82 1048.02 166.991 1051.59 Q165.186 1055.13 165.186 1062.26 Q165.186 1069.37 166.991 1072.93 Q168.82 1076.47 172.431 1076.47 Q176.065 1076.47 177.871 1072.93 Q179.7 1069.37 179.7 1062.26 Q179.7 1055.13 177.871 1051.59 Q176.065 1048.02 172.431 1048.02 M172.431 1044.32 Q178.241 1044.32 181.297 1048.93 Q184.376 1053.51 184.376 1062.26 Q184.376 1070.99 181.297 1075.59 Q178.241 1080.18 172.431 1080.18 Q166.621 1080.18 163.542 1075.59 Q160.487 1070.99 160.487 1062.26 Q160.487 1053.51 163.542 1048.93 Q166.621 1044.32 172.431 1044.32 Z" fill="#000000" fill-rule="evenodd" fill-opacity="1" /><path clip-path="url(#clip930)" d="M192.639 1044.94 L210.996 1044.94 L210.996 1048.88 L196.922 1048.88 L196.922 1057.35 Q197.94 1057 198.959 1056.84 Q199.977 1056.66 200.996 1056.66 Q206.783 1056.66 210.162 1059.83 Q213.542 1063 213.542 1068.42 Q213.542 1074 210.07 1077.1 Q206.598 1080.18 200.278 1080.18 Q198.102 1080.18 195.834 1079.81 Q193.588 1079.44 191.181 1078.69 L191.181 1074 Q193.264 1075.13 195.487 1075.69 Q197.709 1076.24 200.186 1076.24 Q204.19 1076.24 206.528 1074.13 Q208.866 1072.03 208.866 1068.42 Q208.866 1064.81 206.528 1062.7 Q204.19 1060.59 200.186 1060.59 Q198.311 1060.59 196.436 1061.01 Q194.584 1061.43 192.639 1062.31 L192.639 1044.94 Z" fill="#000000" fill-rule="evenodd" fill-opacity="1" /><path clip-path="url(#clip930)" d="M126.205 726.009 Q122.593 726.009 120.765 729.574 Q118.959 733.116 118.959 740.245 Q118.959 747.352 120.765 750.917 Q122.593 754.458 126.205 754.458 Q129.839 754.458 131.644 750.917 Q133.473 747.352 133.473 740.245 Q133.473 733.116 131.644 729.574 Q129.839 726.009 126.205 726.009 M126.205 722.306 Q132.015 722.306 135.07 726.912 Q138.149 731.495 138.149 740.245 Q138.149 748.972 135.07 753.579 Q132.015 758.162 126.205 758.162 Q120.394 758.162 117.316 753.579 Q114.26 748.972 114.26 740.245 Q114.26 731.495 117.316 726.912 Q120.394 722.306 126.205 722.306 Z" fill="#000000" fill-rule="evenodd" fill-opacity="1" /><path clip-path="url(#clip930)" d="M146.366 751.611 L151.251 751.611 L151.251 757.491 L146.366 757.491 L146.366 751.611 Z" fill="#000000" fill-rule="evenodd" fill-opacity="1" /><path clip-path="url(#clip930)" d="M162.246 753.555 L169.885 753.555 L169.885 727.19 L161.575 728.857 L161.575 724.597 L169.839 722.931 L174.514 722.931 L174.514 753.555 L182.153 753.555 L182.153 757.491 L162.246 757.491 L162.246 753.555 Z" fill="#000000" fill-rule="evenodd" fill-opacity="1" /><path clip-path="url(#clip930)" d="M201.598 726.009 Q197.987 726.009 196.158 729.574 Q194.352 733.116 194.352 740.245 Q194.352 747.352 196.158 750.917 Q197.987 754.458 201.598 754.458 Q205.232 754.458 207.037 750.917 Q208.866 747.352 208.866 740.245 Q208.866 733.116 207.037 729.574 Q205.232 726.009 201.598 726.009 M201.598 722.306 Q207.408 722.306 210.463 726.912 Q213.542 731.495 213.542 740.245 Q213.542 748.972 210.463 753.579 Q207.408 758.162 201.598 758.162 Q195.787 758.162 192.709 753.579 Q189.653 748.972 189.653 740.245 Q189.653 731.495 192.709 726.912 Q195.787 722.306 201.598 722.306 Z" fill="#000000" fill-rule="evenodd" fill-opacity="1" /><path clip-path="url(#clip930)" d="M127.2 403.996 Q123.589 403.996 121.76 407.56 Q119.955 411.102 119.955 418.232 Q119.955 425.338 121.76 428.903 Q123.589 432.444 127.2 432.444 Q130.834 432.444 132.64 428.903 Q134.468 425.338 134.468 418.232 Q134.468 411.102 132.64 407.56 Q130.834 403.996 127.2 403.996 M127.2 400.292 Q133.01 400.292 136.066 404.898 Q139.144 409.482 139.144 418.232 Q139.144 426.958 136.066 431.565 Q133.01 436.148 127.2 436.148 Q121.39 436.148 118.311 431.565 Q115.256 426.958 115.256 418.232 Q115.256 409.482 118.311 404.898 Q121.39 400.292 127.2 400.292 Z" fill="#000000" fill-rule="evenodd" fill-opacity="1" /><path clip-path="url(#clip930)" d="M147.362 429.597 L152.246 429.597 L152.246 435.477 L147.362 435.477 L147.362 429.597 Z" fill="#000000" fill-rule="evenodd" fill-opacity="1" /><path clip-path="url(#clip930)" d="M163.241 431.542 L170.88 431.542 L170.88 405.176 L162.57 406.843 L162.57 402.583 L170.834 400.917 L175.51 400.917 L175.51 431.542 L183.149 431.542 L183.149 435.477 L163.241 435.477 L163.241 431.542 Z" fill="#000000" fill-rule="evenodd" fill-opacity="1" /><path clip-path="url(#clip930)" d="M192.639 400.917 L210.996 400.917 L210.996 404.852 L196.922 404.852 L196.922 413.324 Q197.94 412.977 198.959 412.815 Q199.977 412.63 200.996 412.63 Q206.783 412.63 210.162 415.801 Q213.542 418.972 213.542 424.389 Q213.542 429.968 210.07 433.069 Q206.598 436.148 200.278 436.148 Q198.102 436.148 195.834 435.778 Q193.588 435.407 191.181 434.667 L191.181 429.968 Q193.264 431.102 195.487 431.657 Q197.709 432.213 200.186 432.213 Q204.19 432.213 206.528 430.106 Q208.866 428 208.866 424.389 Q208.866 420.778 206.528 418.671 Q204.19 416.565 200.186 416.565 Q198.311 416.565 196.436 416.982 Q194.584 417.398 192.639 418.278 L192.639 400.917 Z" fill="#000000" fill-rule="evenodd" fill-opacity="1" /><path clip-path="url(#clip930)" d="M126.205 81.9817 Q122.593 81.9817 120.765 85.5465 Q118.959 89.0881 118.959 96.2177 Q118.959 103.324 120.765 106.889 Q122.593 110.431 126.205 110.431 Q129.839 110.431 131.644 106.889 Q133.473 103.324 133.473 96.2177 Q133.473 89.0881 131.644 85.5465 Q129.839 81.9817 126.205 81.9817 M126.205 78.278 Q132.015 78.278 135.07 82.8845 Q138.149 87.4678 138.149 96.2177 Q138.149 104.945 135.07 109.551 Q132.015 114.134 126.205 114.134 Q120.394 114.134 117.316 109.551 Q114.26 104.945 114.26 96.2177 Q114.26 87.4678 117.316 82.8845 Q120.394 78.278 126.205 78.278 Z" fill="#000000" fill-rule="evenodd" fill-opacity="1" /><path clip-path="url(#clip930)" d="M146.366 107.583 L151.251 107.583 L151.251 113.463 L146.366 113.463 L146.366 107.583 Z" fill="#000000" fill-rule="evenodd" fill-opacity="1" /><path clip-path="url(#clip930)" d="M165.464 109.528 L181.783 109.528 L181.783 113.463 L159.839 113.463 L159.839 109.528 Q162.501 106.773 167.084 102.144 Q171.69 97.4909 172.871 96.1483 Q175.116 93.6251 175.996 91.889 Q176.899 90.1298 176.899 88.44 Q176.899 85.6854 174.954 83.9493 Q173.033 82.2132 169.931 82.2132 Q167.732 82.2132 165.278 82.9771 Q162.848 83.7409 160.07 85.2919 L160.07 80.5697 Q162.894 79.4354 165.348 78.8567 Q167.802 78.278 169.839 78.278 Q175.209 78.278 178.403 80.9632 Q181.598 83.6484 181.598 88.1391 Q181.598 90.2687 180.788 92.19 Q180.001 94.0881 177.894 96.6807 Q177.315 97.352 174.214 100.57 Q171.112 103.764 165.464 109.528 Z" fill="#000000" fill-rule="evenodd" fill-opacity="1" /><path clip-path="url(#clip930)" d="M201.598 81.9817 Q197.987 81.9817 196.158 85.5465 Q194.352 89.0881 194.352 96.2177 Q194.352 103.324 196.158 106.889 Q197.987 110.431 201.598 110.431 Q205.232 110.431 207.037 106.889 Q208.866 103.324 208.866 96.2177 Q208.866 89.0881 207.037 85.5465 Q205.232 81.9817 201.598 81.9817 M201.598 78.278 Q207.408 78.278 210.463 82.8845 Q213.542 87.4678 213.542 96.2177 Q213.542 104.945 210.463 109.551 Q207.408 114.134 201.598 114.134 Q195.787 114.134 192.709 109.551 Q189.653 104.945 189.653 96.2177 Q189.653 87.4678 192.709 82.8845 Q195.787 78.278 201.598 78.278 Z" fill="#000000" fill-rule="evenodd" fill-opacity="1" /><path clip-path="url(#clip930)" d="M21.7677 799.617 L39.6235 799.617 L39.6235 791.533 Q39.6235 787.045 37.3 784.594 Q34.9765 782.143 30.6797 782.143 Q26.4147 782.143 24.0912 784.594 Q21.7677 787.045 21.7677 791.533 L21.7677 799.617 M16.4842 806.046 L16.4842 791.533 Q16.4842 783.544 20.1126 779.47 Q23.7092 775.364 30.6797 775.364 Q37.7138 775.364 41.3104 779.47 Q44.907 783.544 44.907 791.533 L44.907 799.617 L64.0042 799.617 L64.0042 806.046 L16.4842 806.046 Z" fill="#000000" fill-rule="evenodd" fill-opacity="1" /><path clip-path="url(#clip930)" d="M14.5426 752.925 Q21.8632 757.19 29.0246 759.258 Q36.186 761.327 43.5384 761.327 Q50.8908 761.327 58.1159 759.258 Q65.3091 757.158 72.5979 752.925 L72.5979 758.017 Q65.1182 762.791 57.8931 765.179 Q50.668 767.534 43.5384 767.534 Q36.4406 767.534 29.2474 765.179 Q22.0542 762.823 14.5426 758.017 L14.5426 752.925 Z" fill="#000000" fill-rule="evenodd" fill-opacity="1" /><path clip-path="url(#clip930)" d="M35.1993 713.807 Q31.2526 711.611 29.3747 708.556 Q27.4968 705.5 27.4968 701.362 Q27.4968 695.792 31.4117 692.769 Q35.2948 689.745 42.4881 689.745 L64.0042 689.745 L64.0042 695.633 L42.679 695.633 Q37.5546 695.633 35.072 697.447 Q32.5894 699.262 32.5894 702.986 Q32.5894 707.537 35.6131 710.179 Q38.6368 712.821 43.8567 712.821 L64.0042 712.821 L64.0042 718.709 L42.679 718.709 Q37.5228 718.709 35.072 720.523 Q32.5894 722.337 32.5894 726.125 Q32.5894 730.613 35.6449 733.255 Q38.6686 735.896 43.8567 735.896 L64.0042 735.896 L64.0042 741.785 L28.3562 741.785 L28.3562 735.896 L33.8944 735.896 Q30.616 733.891 29.0564 731.09 Q27.4968 728.289 27.4968 724.438 Q27.4968 720.555 29.4702 717.85 Q31.4436 715.112 35.1993 713.807 Z" fill="#000000" fill-rule="evenodd" fill-opacity="1" /><path clip-path="url(#clip930)" d="M14.5426 678.987 L14.5426 673.894 Q22.0542 669.12 29.2474 666.765 Q36.4406 664.378 43.5384 664.378 Q50.668 664.378 57.8931 666.765 Q65.1182 669.12 72.5979 673.894 L72.5979 678.987 Q65.3091 674.754 58.1159 672.685 Q50.8908 670.584 43.5384 670.584 Q36.186 670.584 29.0246 672.685 Q21.8632 674.754 14.5426 678.987 Z" fill="#000000" fill-rule="evenodd" fill-opacity="1" /><path clip-path="url(#clip932)" d="
M365.223 1263.74 L365.223 1384.24 L463.741 1384.24 L463.741 1263.74 L365.223 1263.74 L365.223 1263.74  Z
  " fill="#009af9" fill-rule="evenodd" fill-opacity="1"/>
<polyline clip-path="url(#clip932)" style="stroke:#000000; stroke-linecap:butt; stroke-linejoin:round; stroke-width:4; stroke-opacity:1; fill:none" points="
  365.223,1263.74 365.223,1384.24 463.741,1384.24 463.741,1263.74 365.223,1263.74 
  "/>
<path clip-path="url(#clip932)" d="
M463.741 915.901 L463.741 1384.24 L562.26 1384.24 L562.26 915.901 L463.741 915.901 L463.741 915.901  Z
  " fill="#009af9" fill-rule="evenodd" fill-opacity="1"/>
<polyline clip-path="url(#clip932)" style="stroke:#000000; stroke-linecap:butt; stroke-linejoin:round; stroke-width:4; stroke-opacity:1; fill:none" points="
  463.741,915.901 463.741,1384.24 562.26,1384.24 562.26,915.901 463.741,915.901 
  "/>
<path clip-path="url(#clip932)" d="
M562.26 436.68 L562.26 1384.24 L660.778 1384.24 L660.778 436.68 L562.26 436.68 L562.26 436.68  Z
  " fill="#009af9" fill-rule="evenodd" fill-opacity="1"/>
<polyline clip-path="url(#clip932)" style="stroke:#000000; stroke-linecap:butt; stroke-linejoin:round; stroke-width:4; stroke-opacity:1; fill:none" points="
  562.26,436.68 562.26,1384.24 660.778,1384.24 660.778,436.68 562.26,436.68 
  "/>
<path clip-path="url(#clip932)" d="
M660.778 124.134 L660.778 1384.24 L759.297 1384.24 L759.297 124.134 L660.778 124.134 L660.778 124.134  Z
  " fill="#009af9" fill-rule="evenodd" fill-opacity="1"/>
<polyline clip-path="url(#clip932)" style="stroke:#000000; stroke-linecap:butt; stroke-linejoin:round; stroke-width:4; stroke-opacity:1; fill:none" points="
  660.778,124.134 660.778,1384.24 759.297,1384.24 759.297,124.134 660.778,124.134 
  "/>
<path clip-path="url(#clip932)" d="
M759.297 131.862 L759.297 1384.24 L857.815 1384.24 L857.815 131.862 L759.297 131.862 L759.297 131.862  Z
  " fill="#009af9" fill-rule="evenodd" fill-opacity="1"/>
<polyline clip-path="url(#clip932)" style="stroke:#000000; stroke-linecap:butt; stroke-linejoin:round; stroke-width:4; stroke-opacity:1; fill:none" points="
  759.297,131.862 759.297,1384.24 857.815,1384.24 857.815,131.862 759.297,131.862 
  "/>
<path clip-path="url(#clip932)" d="
M857.815 373.695 L857.815 1384.24 L956.334 1384.24 L956.334 373.695 L857.815 373.695 L857.815 373.695  Z
  " fill="#009af9" fill-rule="evenodd" fill-opacity="1"/>
<polyline clip-path="url(#clip932)" style="stroke:#000000; stroke-linecap:butt; stroke-linejoin:round; stroke-width:4; stroke-opacity:1; fill:none" points="
  857.815,373.695 857.815,1384.24 956.334,1384.24 956.334,373.695 857.815,373.695 
  "/>
<path clip-path="url(#clip932)" d="
M956.334 714.514 L956.334 1384.24 L1054.85 1384.24 L1054.85 714.514 L956.334 714.514 L956.334 714.514  Z
  " fill="#009af9" fill-rule="evenodd" fill-opacity="1"/>
<polyline clip-path="url(#clip932)" style="stroke:#000000; stroke-linecap:butt; stroke-linejoin:round; stroke-width:4; stroke-opacity:1; fill:none" points="
  956.334,714.514 956.334,1384.24 1054.85,1384.24 1054.85,714.514 956.334,714.514 
  "/>
<path clip-path="url(#clip932)" d="
M1054.85 999.625 L1054.85 1384.24 L1153.37 1384.24 L1153.37 999.625 L1054.85 999.625 L1054.85 999.625  Z
  " fill="#009af9" fill-rule="evenodd" fill-opacity="1"/>
<polyline clip-path="url(#clip932)" style="stroke:#000000; stroke-linecap:butt; stroke-linejoin:round; stroke-width:4; stroke-opacity:1; fill:none" points="
  1054.85,999.625 1054.85,1384.24 1153.37,1384.24 1153.37,999.625 1054.85,999.625 
  "/>
<path clip-path="url(#clip932)" d="
M1153.37 1198.11 L1153.37 1384.24 L1251.89 1384.24 L1251.89 1198.11 L1153.37 1198.11 L1153.37 1198.11  Z
  " fill="#009af9" fill-rule="evenodd" fill-opacity="1"/>
<polyline clip-path="url(#clip932)" style="stroke:#000000; stroke-linecap:butt; stroke-linejoin:round; stroke-width:4; stroke-opacity:1; fill:none" points="
  1153.37,1198.11 1153.37,1384.24 1251.89,1384.24 1251.89,1198.11 1153.37,1198.11 
  "/>
<path clip-path="url(#clip932)" d="
M1251.89 1300.84 L1251.89 1384.24 L1350.41 1384.24 L1350.41 1300.84 L1251.89 1300.84 L1251.89 1300.84  Z
  " fill="#009af9" fill-rule="evenodd" fill-opacity="1"/>
<polyline clip-path="url(#clip932)" style="stroke:#000000; stroke-linecap:butt; stroke-linejoin:round; stroke-width:4; stroke-opacity:1; fill:none" points="
  1251.89,1300.84 1251.89,1384.24 1350.41,1384.24 1350.41,1300.84 1251.89,1300.84 
  "/>
<path clip-path="url(#clip932)" d="
M1350.41 1347.21 L1350.41 1384.24 L1448.93 1384.24 L1448.93 1347.21 L1350.41 1347.21 L1350.41 1347.21  Z
  " fill="#009af9" fill-rule="evenodd" fill-opacity="1"/>
<polyline clip-path="url(#clip932)" style="stroke:#000000; stroke-linecap:butt; stroke-linejoin:round; stroke-width:4; stroke-opacity:1; fill:none" points="
  1350.41,1347.21 1350.41,1384.24 1448.93,1384.24 1448.93,1347.21 1350.41,1347.21 
  "/>
<path clip-path="url(#clip932)" d="
M1448.93 1370.65 L1448.93 1384.24 L1547.45 1384.24 L1547.45 1370.65 L1448.93 1370.65 L1448.93 1370.65  Z
  " fill="#009af9" fill-rule="evenodd" fill-opacity="1"/>
<polyline clip-path="url(#clip932)" style="stroke:#000000; stroke-linecap:butt; stroke-linejoin:round; stroke-width:4; stroke-opacity:1; fill:none" points="
  1448.93,1370.65 1448.93,1384.24 1547.45,1384.24 1547.45,1370.65 1448.93,1370.65 
  "/>
<path clip-path="url(#clip932)" d="
M1547.45 1379.47 L1547.45 1384.24 L1645.96 1384.24 L1645.96 1379.47 L1547.45 1379.47 L1547.45 1379.47  Z
  " fill="#009af9" fill-rule="evenodd" fill-opacity="1"/>
<polyline clip-path="url(#clip932)" style="stroke:#000000; stroke-linecap:butt; stroke-linejoin:round; stroke-width:4; stroke-opacity:1; fill:none" points="
  1547.45,1379.47 1547.45,1384.24 1645.96,1384.24 1645.96,1379.47 1547.45,1379.47 
  "/>
<path clip-path="url(#clip932)" d="
M1645.96 1383.27 L1645.96 1384.24 L1744.48 1384.24 L1744.48 1383.27 L1645.96 1383.27 L1645.96 1383.27  Z
  " fill="#009af9" fill-rule="evenodd" fill-opacity="1"/>
<polyline clip-path="url(#clip932)" style="stroke:#000000; stroke-linecap:butt; stroke-linejoin:round; stroke-width:4; stroke-opacity:1; fill:none" points="
  1645.96,1383.27 1645.96,1384.24 1744.48,1384.24 1744.48,1383.27 1645.96,1383.27 
  "/>
<path clip-path="url(#clip932)" d="
M1744.48 1383.79 L1744.48 1384.24 L1843 1384.24 L1843 1383.79 L1744.48 1383.79 L1744.48 1383.79  Z
  " fill="#009af9" fill-rule="evenodd" fill-opacity="1"/>
<polyline clip-path="url(#clip932)" style="stroke:#000000; stroke-linecap:butt; stroke-linejoin:round; stroke-width:4; stroke-opacity:1; fill:none" points="
  1744.48,1383.79 1744.48,1384.24 1843,1384.24 1843,1383.79 1744.48,1383.79 
  "/>
<path clip-path="url(#clip932)" d="
M1843 1384.17 L1843 1384.24 L1941.52 1384.24 L1941.52 1384.17 L1843 1384.17 L1843 1384.17  Z
  " fill="#009af9" fill-rule="evenodd" fill-opacity="1"/>
<polyline clip-path="url(#clip932)" style="stroke:#000000; stroke-linecap:butt; stroke-linejoin:round; stroke-width:4; stroke-opacity:1; fill:none" points="
  1843,1384.17 1843,1384.24 1941.52,1384.24 1941.52,1384.17 1843,1384.17 
  "/>
<path clip-path="url(#clip932)" d="
M1941.52 1384.17 L1941.52 1384.24 L2040.04 1384.24 L2040.04 1384.17 L1941.52 1384.17 L1941.52 1384.17  Z
  " fill="#009af9" fill-rule="evenodd" fill-opacity="1"/>
<polyline clip-path="url(#clip932)" style="stroke:#000000; stroke-linecap:butt; stroke-linejoin:round; stroke-width:4; stroke-opacity:1; fill:none" points="
  1941.52,1384.17 1941.52,1384.24 2040.04,1384.24 2040.04,1384.17 1941.52,1384.17 
  "/>
<path clip-path="url(#clip932)" d="
M2040.04 1384.24 L2040.04 1384.24 L2138.56 1384.24 L2138.56 1384.24 L2040.04 1384.24 L2040.04 1384.24  Z
  " fill="#009af9" fill-rule="evenodd" fill-opacity="1"/>
<polyline clip-path="url(#clip932)" style="stroke:#000000; stroke-linecap:butt; stroke-linejoin:round; stroke-width:4; stroke-opacity:1; fill:none" points="
  2040.04,1384.24 2040.04,1384.24 2138.56,1384.24 2040.04,1384.24 
  "/>
<path clip-path="url(#clip932)" d="
M2138.56 1384.17 L2138.56 1384.24 L2237.08 1384.24 L2237.08 1384.17 L2138.56 1384.17 L2138.56 1384.17  Z
  " fill="#009af9" fill-rule="evenodd" fill-opacity="1"/>
<polyline clip-path="url(#clip932)" style="stroke:#000000; stroke-linecap:butt; stroke-linejoin:round; stroke-width:4; stroke-opacity:1; fill:none" points="
  2138.56,1384.17 2138.56,1384.24 2237.08,1384.24 2237.08,1384.17 2138.56,1384.17 
  "/>
<polyline clip-path="url(#clip932)" style="stroke:#e26f46; stroke-linecap:butt; stroke-linejoin:round; stroke-width:8; stroke-opacity:1; fill:none" points="
  365.223,1210.38 375.074,1192.34 384.926,1172.95 394.778,1152.18 404.63,1130.01 414.482,1106.41 424.334,1081.39 434.186,1054.93 444.037,1027.06 453.889,997.793 
  463.741,967.174 473.593,935.253 483.445,902.095 493.297,867.782 503.149,832.408 513,796.083 522.852,758.932 532.704,721.095 542.556,682.724 552.408,643.986 
  562.26,605.059 572.112,566.133 581.963,527.407 591.815,489.089 601.667,451.391 611.519,414.534 621.371,378.737 631.223,344.223 641.075,311.209 650.926,279.912 
  660.778,250.539 670.63,223.292 680.482,198.358 690.334,175.913 700.186,156.117 710.038,139.114 719.889,125.027 729.741,113.96 739.593,105.996 749.445,101.194 
  759.297,99.589 769.149,101.194 779.001,105.996 788.852,113.96 798.704,125.027 808.556,139.114 818.408,156.117 828.26,175.913 838.112,198.358 847.964,223.292 
  857.815,250.539 867.667,279.912 877.519,311.209 887.371,344.223 897.223,378.737 907.075,414.534 916.927,451.391 926.778,489.089 936.63,527.407 946.482,566.133 
  956.334,605.059 966.186,643.986 976.038,682.724 985.89,721.095 995.741,758.932 1005.59,796.083 1015.45,832.408 1025.3,867.782 1035.15,902.095 1045,935.253 
  1054.85,967.174 1064.7,997.793 1074.56,1027.06 1084.41,1054.93 1094.26,1081.39 1104.11,1106.41 1113.96,1130.01 1123.82,1152.18 1133.67,1172.95 1143.52,1192.34 
  1153.37,1210.38 1163.22,1227.12 1173.07,1242.61 1182.93,1256.88 1192.78,1270.01 1202.63,1282.03 1212.48,1293.02 1222.33,1303.03 1232.19,1312.12 1242.04,1320.36 
  1251.89,1327.79 1261.74,1334.49 1271.59,1340.5 1281.45,1345.88 1291.3,1350.68 1301.15,1354.96 1311,1358.75 1320.85,1362.11 1330.7,1365.07 1340.56,1367.68 
  1350.41,1369.97 1360.26,1371.97 1370.11,1373.72 1379.96,1375.24 1389.82,1376.56 1399.67,1377.7 1409.52,1378.69 1419.37,1379.54 1429.22,1380.27 1439.07,1380.89 
  1448.93,1381.43 1458.78,1381.88 1468.63,1382.27 1478.48,1382.59 1488.33,1382.87 1498.19,1383.1 1508.04,1383.3 1517.89,1383.46 1527.74,1383.6 1537.59,1383.71 
  1547.45,1383.81 1557.3,1383.89 1567.15,1383.95 1577,1384 1586.85,1384.05 1596.7,1384.08 1606.56,1384.11 1616.41,1384.14 1626.26,1384.16 1636.11,1384.17 
  1645.96,1384.19 1655.82,1384.2 1665.67,1384.21 1675.52,1384.21 1685.37,1384.22 1695.22,1384.22 1705.08,1384.23 1714.93,1384.23 1724.78,1384.23 1734.63,1384.23 
  1744.48,1384.23 1754.33,1384.23 1764.19,1384.24 1774.04,1384.24 1783.89,1384.24 1793.74,1384.24 1803.59,1384.24 1813.45,1384.24 1823.3,1384.24 1833.15,1384.24 
  1843,1384.24 1852.85,1384.24 1862.7,1384.24 1872.56,1384.24 1882.41,1384.24 1892.26,1384.24 1902.11,1384.24 1911.96,1384.24 1921.82,1384.24 1931.67,1384.24 
  1941.52,1384.24 1951.37,1384.24 1961.22,1384.24 1971.08,1384.24 1980.93,1384.24 1990.78,1384.24 2000.63,1384.24 2010.48,1384.24 2020.33,1384.24 2030.19,1384.24 
  2040.04,1384.24 2049.89,1384.24 2059.74,1384.24 2069.59,1384.24 2079.45,1384.24 2089.3,1384.24 2099.15,1384.24 2109,1384.24 2118.85,1384.24 2128.7,1384.24 
  2138.56,1384.24 
  "/>
<polyline clip-path="url(#clip932)" style="stroke:#3da44d; stroke-linecap:butt; stroke-linejoin:round; stroke-width:12; stroke-opacity:1; fill:none" points="
  365.223,1266.28 375.074,1241.81 384.926,1214.72 394.778,1185.02 404.63,1152.77 414.482,1118.04 424.334,1080.95 434.186,1041.65 444.037,1000.31 453.889,957.156 
  463.741,912.407 473.593,866.322 483.445,819.178 493.297,771.266 503.149,722.891 513,674.366 522.852,626.009 532.704,578.139 542.556,531.073 552.408,485.118 
  562.26,440.576 572.112,397.732 581.963,356.856 591.815,318.199 601.667,281.992 611.519,248.442 621.371,217.732 631.223,190.018 641.075,165.43 650.926,144.073 
  660.778,126.022 670.63,111.327 680.482,100.01 690.334,92.0698 700.186,87.4784 710.038,86.1857 719.889,88.1198 729.741,93.1888 739.593,101.282 749.445,112.274 
  759.297,126.022 769.149,142.373 779.001,161.164 788.852,182.221 798.704,205.366 808.556,230.414 818.408,257.179 828.26,285.473 838.112,315.108 847.964,345.9 
  857.815,377.665 867.667,410.227 877.519,443.412 887.371,477.055 897.223,510.999 907.075,545.093 916.927,579.196 926.778,613.175 936.63,646.907 946.482,680.28 
  956.334,713.19 966.186,745.542 976.038,777.254 985.89,808.249 995.741,838.464 1005.59,867.841 1015.45,896.334 1025.3,923.902 1035.15,950.514 1045,976.147 
  1054.85,1000.78 1064.7,1024.41 1074.56,1047.02 1084.41,1068.63 1094.26,1089.23 1104.11,1108.83 1113.96,1127.45 1123.82,1145.1 1133.67,1161.82 1143.52,1177.61 
  1153.37,1192.51 1163.22,1206.55 1173.07,1219.74 1182.93,1232.14 1192.78,1243.76 1202.63,1254.63 1212.48,1264.8 1222.33,1274.29 1232.19,1283.14 1242.04,1291.37 
  1251.89,1299.03 1261.74,1306.13 1271.59,1312.72 1281.45,1318.82 1291.3,1324.46 1301.15,1329.67 1311,1334.47 1320.85,1338.9 1330.7,1342.97 1340.56,1346.72 
  1350.41,1350.15 1360.26,1353.3 1370.11,1356.19 1379.96,1358.83 1389.82,1361.25 1399.67,1363.45 1409.52,1365.46 1419.37,1367.29 1429.22,1368.95 1439.07,1370.47 
  1448.93,1371.84 1458.78,1373.09 1468.63,1374.22 1478.48,1375.25 1488.33,1376.17 1498.19,1377.01 1508.04,1377.76 1517.89,1378.44 1527.74,1379.06 1537.59,1379.61 
  1547.45,1380.11 1557.3,1380.55 1567.15,1380.95 1577,1381.31 1586.85,1381.64 1596.7,1381.92 1606.56,1382.18 1616.41,1382.41 1626.26,1382.62 1636.11,1382.8 
  1645.96,1382.97 1655.82,1383.11 1665.67,1383.24 1675.52,1383.36 1685.37,1383.46 1695.22,1383.55 1705.08,1383.63 1714.93,1383.71 1724.78,1383.77 1734.63,1383.83 
  1744.48,1383.88 1754.33,1383.92 1764.19,1383.96 1774.04,1383.99 1783.89,1384.02 1793.74,1384.05 1803.59,1384.07 1813.45,1384.09 1823.3,1384.11 1833.15,1384.13 
  1843,1384.14 1852.85,1384.15 1862.7,1384.16 1872.56,1384.17 1882.41,1384.18 1892.26,1384.19 1902.11,1384.2 1911.96,1384.2 1921.82,1384.21 1931.67,1384.21 
  1941.52,1384.21 1951.37,1384.22 1961.22,1384.22 1971.08,1384.22 1980.93,1384.22 1990.78,1384.23 2000.63,1384.23 2010.48,1384.23 2020.33,1384.23 2030.19,1384.23 
  2040.04,1384.23 2049.89,1384.23 2059.74,1384.23 2069.59,1384.23 2079.45,1384.24 2089.3,1384.24 2099.15,1384.24 2109,1384.24 2118.85,1384.24 2128.7,1384.24 
  2138.56,1384.24 
  "/>
<path clip-path="url(#clip930)" d="
M1778.33 335.029 L2282.65 335.029 L2282.65 93.1086 L1778.33 93.1086  Z
  " fill="#ffffff" fill-rule="evenodd" fill-opacity="1"/>
<polyline clip-path="url(#clip930)" style="stroke:#000000; stroke-linecap:butt; stroke-linejoin:round; stroke-width:4; stroke-opacity:1; fill:none" points="
  1778.33,335.029 2282.65,335.029 2282.65,93.1086 1778.33,93.1086 1778.33,335.029 
  "/>
<path clip-path="url(#clip930)" d="
M1801.7 177.781 L1941.92 177.781 L1941.92 129.397 L1801.7 129.397 L1801.7 177.781  Z
  " fill="#009af9" fill-rule="evenodd" fill-opacity="1"/>
<polyline clip-path="url(#clip930)" style="stroke:#000000; stroke-linecap:butt; stroke-linejoin:round; stroke-width:4; stroke-opacity:1; fill:none" points="
  1801.7,177.781 1941.92,177.781 1941.92,129.397 1801.7,129.397 1801.7,177.781 
  "/>
<path clip-path="url(#clip930)" d="M1979.13 173.276 Q1977.32 177.906 1975.61 179.318 Q1973.9 180.73 1971.03 180.73 L1967.63 180.73 L1967.63 177.165 L1970.13 177.165 Q1971.88 177.165 1972.86 176.332 Q1973.83 175.498 1975.01 172.396 L1975.77 170.452 L1965.29 144.943 L1969.8 144.943 L1977.9 165.221 L1986 144.943 L1990.52 144.943 L1979.13 173.276 Z" fill="#000000" fill-rule="evenodd" fill-opacity="1" /><path clip-path="url(#clip930)" d="M1997.81 166.933 L2005.45 166.933 L2005.45 140.568 L1997.14 142.235 L1997.14 137.975 L2005.4 136.309 L2010.08 136.309 L2010.08 166.933 L2017.72 166.933 L2017.72 170.869 L1997.81 170.869 L1997.81 166.933 Z" fill="#000000" fill-rule="evenodd" fill-opacity="1" /><polyline clip-path="url(#clip930)" style="stroke:#e26f46; stroke-linecap:butt; stroke-linejoin:round; stroke-width:4; stroke-opacity:1; fill:none" points="
  1801.7,214.069 1941.92,214.069 
  "/>
<path clip-path="url(#clip930)" d="M1984.2 218.085 Q1984.2 213.455 1982.28 210.909 Q1980.38 208.363 1976.93 208.363 Q1973.5 208.363 1971.58 210.909 Q1969.69 213.455 1969.69 218.085 Q1969.69 222.691 1971.58 225.238 Q1973.5 227.784 1976.93 227.784 Q1980.38 227.784 1982.28 225.238 Q1984.2 222.691 1984.2 218.085 M1988.46 228.131 Q1988.46 234.751 1985.52 237.969 Q1982.58 241.21 1976.51 241.21 Q1974.27 241.21 1972.28 240.862 Q1970.29 240.538 1968.41 239.844 L1968.41 235.7 Q1970.29 236.719 1972.12 237.205 Q1973.94 237.691 1975.84 237.691 Q1980.03 237.691 1982.12 235.492 Q1984.2 233.316 1984.2 228.895 L1984.2 226.788 Q1982.88 229.08 1980.82 230.214 Q1978.76 231.349 1975.89 231.349 Q1971.12 231.349 1968.2 227.714 Q1965.29 224.08 1965.29 218.085 Q1965.29 212.066 1968.2 208.432 Q1971.12 204.798 1975.89 204.798 Q1978.76 204.798 1980.82 205.932 Q1982.88 207.066 1984.2 209.358 L1984.2 205.423 L1988.46 205.423 L1988.46 228.131 Z" fill="#000000" fill-rule="evenodd" fill-opacity="1" /><path clip-path="url(#clip930)" d="M2009.01 218.316 Q2003.85 218.316 2001.86 219.497 Q1999.87 220.677 1999.87 223.525 Q1999.87 225.793 2001.35 227.136 Q2002.86 228.455 2005.43 228.455 Q2008.97 228.455 2011.1 225.955 Q2013.25 223.432 2013.25 219.265 L2013.25 218.316 L2009.01 218.316 M2017.51 216.557 L2017.51 231.349 L2013.25 231.349 L2013.25 227.413 Q2011.79 229.775 2009.62 230.909 Q2007.44 232.02 2004.29 232.02 Q2000.31 232.02 1997.95 229.798 Q1995.61 227.552 1995.61 223.802 Q1995.61 219.427 1998.53 217.205 Q2001.47 214.983 2007.28 214.983 L2013.25 214.983 L2013.25 214.566 Q2013.25 211.627 2011.31 210.029 Q2009.38 208.409 2005.89 208.409 Q2003.67 208.409 2001.56 208.941 Q1999.45 209.474 1997.51 210.539 L1997.51 206.603 Q1999.85 205.701 2002.05 205.261 Q2004.25 204.798 2006.33 204.798 Q2011.95 204.798 2014.73 207.714 Q2017.51 210.631 2017.51 216.557 Z" fill="#000000" fill-rule="evenodd" fill-opacity="1" /><path clip-path="url(#clip930)" d="M2025.84 221.117 L2025.84 205.423 L2030.1 205.423 L2030.1 220.955 Q2030.1 224.636 2031.54 226.488 Q2032.97 228.316 2035.84 228.316 Q2039.29 228.316 2041.28 226.117 Q2043.3 223.918 2043.3 220.122 L2043.3 205.423 L2047.56 205.423 L2047.56 231.349 L2043.3 231.349 L2043.3 227.367 Q2041.75 229.728 2039.68 230.886 Q2037.65 232.02 2034.94 232.02 Q2030.47 232.02 2028.16 229.242 Q2025.84 226.464 2025.84 221.117 M2036.56 204.798 L2036.56 204.798 Z" fill="#000000" fill-rule="evenodd" fill-opacity="1" /><path clip-path="url(#clip930)" d="M2072.86 206.187 L2072.86 210.214 Q2071.05 209.289 2069.11 208.826 Q2067.16 208.363 2065.08 208.363 Q2061.91 208.363 2060.31 209.335 Q2058.74 210.307 2058.74 212.251 Q2058.74 213.733 2059.87 214.589 Q2061 215.423 2064.43 216.187 L2065.89 216.511 Q2070.43 217.483 2072.32 219.265 Q2074.24 221.025 2074.24 224.196 Q2074.24 227.807 2071.37 229.913 Q2068.53 232.02 2063.53 232.02 Q2061.44 232.02 2059.18 231.603 Q2056.93 231.21 2054.43 230.4 L2054.43 226.001 Q2056.79 227.228 2059.08 227.853 Q2061.37 228.455 2063.62 228.455 Q2066.63 228.455 2068.25 227.437 Q2069.87 226.395 2069.87 224.52 Q2069.87 222.784 2068.69 221.858 Q2067.53 220.932 2063.57 220.076 L2062.09 219.728 Q2058.13 218.895 2056.37 217.182 Q2054.62 215.446 2054.62 212.437 Q2054.62 208.779 2057.21 206.789 Q2059.8 204.798 2064.57 204.798 Q2066.93 204.798 2069.01 205.145 Q2071.1 205.492 2072.86 206.187 Z" fill="#000000" fill-rule="evenodd" fill-opacity="1" /><path clip-path="url(#clip930)" d="M2097.55 206.187 L2097.55 210.214 Q2095.75 209.289 2093.8 208.826 Q2091.86 208.363 2089.78 208.363 Q2086.61 208.363 2085.01 209.335 Q2083.43 210.307 2083.43 212.251 Q2083.43 213.733 2084.57 214.589 Q2085.7 215.423 2089.13 216.187 L2090.59 216.511 Q2095.12 217.483 2097.02 219.265 Q2098.94 221.025 2098.94 224.196 Q2098.94 227.807 2096.07 229.913 Q2093.23 232.02 2088.23 232.02 Q2086.14 232.02 2083.87 231.603 Q2081.63 231.21 2079.13 230.4 L2079.13 226.001 Q2081.49 227.228 2083.78 227.853 Q2086.07 228.455 2088.32 228.455 Q2091.33 228.455 2092.95 227.437 Q2094.57 226.395 2094.57 224.52 Q2094.57 222.784 2093.39 221.858 Q2092.23 220.932 2088.27 220.076 L2086.79 219.728 Q2082.83 218.895 2081.07 217.182 Q2079.31 215.446 2079.31 212.437 Q2079.31 208.779 2081.91 206.789 Q2084.5 204.798 2089.27 204.798 Q2091.63 204.798 2093.71 205.145 Q2095.8 205.492 2097.55 206.187 Z" fill="#000000" fill-rule="evenodd" fill-opacity="1" /><path clip-path="url(#clip930)" d="M2105.73 205.423 L2109.99 205.423 L2109.99 231.349 L2105.73 231.349 L2105.73 205.423 M2105.73 195.33 L2109.99 195.33 L2109.99 200.724 L2105.73 200.724 L2105.73 195.33 Z" fill="#000000" fill-rule="evenodd" fill-opacity="1" /><path clip-path="url(#clip930)" d="M2130.68 218.316 Q2125.52 218.316 2123.53 219.497 Q2121.54 220.677 2121.54 223.525 Q2121.54 225.793 2123.02 227.136 Q2124.52 228.455 2127.09 228.455 Q2130.63 228.455 2132.76 225.955 Q2134.92 223.432 2134.92 219.265 L2134.92 218.316 L2130.68 218.316 M2139.18 216.557 L2139.18 231.349 L2134.92 231.349 L2134.92 227.413 Q2133.46 229.775 2131.28 230.909 Q2129.11 232.02 2125.96 232.02 Q2121.98 232.02 2119.62 229.798 Q2117.28 227.552 2117.28 223.802 Q2117.28 219.427 2120.19 217.205 Q2123.13 214.983 2128.94 214.983 L2134.92 214.983 L2134.92 214.566 Q2134.92 211.627 2132.97 210.029 Q2131.05 208.409 2127.55 208.409 Q2125.33 208.409 2123.23 208.941 Q2121.12 209.474 2119.18 210.539 L2119.18 206.603 Q2121.51 205.701 2123.71 205.261 Q2125.91 204.798 2127.99 204.798 Q2133.62 204.798 2136.4 207.714 Q2139.18 210.631 2139.18 216.557 Z" fill="#000000" fill-rule="evenodd" fill-opacity="1" /><path clip-path="url(#clip930)" d="M2169.5 215.701 L2169.5 231.349 L2165.24 231.349 L2165.24 215.839 Q2165.24 212.159 2163.8 210.33 Q2162.37 208.502 2159.5 208.502 Q2156.05 208.502 2154.06 210.701 Q2152.07 212.9 2152.07 216.696 L2152.07 231.349 L2147.79 231.349 L2147.79 205.423 L2152.07 205.423 L2152.07 209.451 Q2153.6 207.113 2155.66 205.955 Q2157.74 204.798 2160.45 204.798 Q2164.92 204.798 2167.21 207.576 Q2169.5 210.33 2169.5 215.701 Z" fill="#000000" fill-rule="evenodd" fill-opacity="1" /><path clip-path="url(#clip930)" d="M2206.19 195.33 L2206.19 198.872 L2202.11 198.872 Q2199.82 198.872 2198.92 199.798 Q2198.04 200.724 2198.04 203.131 L2198.04 205.423 L2205.05 205.423 L2205.05 208.733 L2198.04 208.733 L2198.04 231.349 L2193.76 231.349 L2193.76 208.733 L2189.68 208.733 L2189.68 205.423 L2193.76 205.423 L2193.76 203.617 Q2193.76 199.289 2195.77 197.321 Q2197.79 195.33 2202.16 195.33 L2206.19 195.33 Z" fill="#000000" fill-rule="evenodd" fill-opacity="1" /><path clip-path="url(#clip930)" d="M2209.75 205.423 L2214.01 205.423 L2214.01 231.349 L2209.75 231.349 L2209.75 205.423 M2209.75 195.33 L2214.01 195.33 L2214.01 200.724 L2209.75 200.724 L2209.75 195.33 Z" fill="#000000" fill-rule="evenodd" fill-opacity="1" /><path clip-path="url(#clip930)" d="M2227.14 198.062 L2227.14 205.423 L2235.91 205.423 L2235.91 208.733 L2227.14 208.733 L2227.14 222.807 Q2227.14 225.978 2227.99 226.881 Q2228.87 227.784 2231.54 227.784 L2235.91 227.784 L2235.91 231.349 L2231.54 231.349 Q2226.61 231.349 2224.73 229.52 Q2222.86 227.668 2222.86 222.807 L2222.86 208.733 L2219.73 208.733 L2219.73 205.423 L2222.86 205.423 L2222.86 198.062 L2227.14 198.062 Z" fill="#000000" fill-rule="evenodd" fill-opacity="1" /><polyline clip-path="url(#clip930)" style="stroke:#3da44d; stroke-linecap:butt; stroke-linejoin:round; stroke-width:4; stroke-opacity:1; fill:none" points="
  1801.7,274.549 1941.92,274.549 
  "/>
<path clip-path="url(#clip930)" d="M1969.57 287.94 L1969.57 301.69 L1965.29 301.69 L1965.29 265.903 L1969.57 265.903 L1969.57 269.838 Q1970.91 267.523 1972.95 266.412 Q1975.01 265.278 1977.86 265.278 Q1982.58 265.278 1985.52 269.028 Q1988.48 272.778 1988.48 278.889 Q1988.48 285 1985.52 288.75 Q1982.58 292.5 1977.86 292.5 Q1975.01 292.5 1972.95 291.389 Q1970.91 290.255 1969.57 287.94 M1984.06 278.889 Q1984.06 274.19 1982.12 271.528 Q1980.19 268.843 1976.81 268.843 Q1973.44 268.843 1971.49 271.528 Q1969.57 274.19 1969.57 278.889 Q1969.57 283.588 1971.49 286.273 Q1973.44 288.935 1976.81 288.935 Q1980.19 288.935 1982.12 286.273 Q1984.06 283.588 1984.06 278.889 Z" fill="#000000" fill-rule="evenodd" fill-opacity="1" /><path clip-path="url(#clip930)" d="M2005.59 268.889 Q2002.16 268.889 2000.17 271.574 Q1998.18 274.236 1998.18 278.889 Q1998.18 283.542 2000.15 286.227 Q2002.14 288.889 2005.59 288.889 Q2008.99 288.889 2010.98 286.204 Q2012.97 283.518 2012.97 278.889 Q2012.97 274.282 2010.98 271.597 Q2008.99 268.889 2005.59 268.889 M2005.59 265.278 Q2011.14 265.278 2014.31 268.889 Q2017.49 272.5 2017.49 278.889 Q2017.49 285.255 2014.31 288.889 Q2011.14 292.5 2005.59 292.5 Q2000.01 292.5 1996.84 288.889 Q1993.69 285.255 1993.69 278.889 Q1993.69 272.5 1996.84 268.889 Q2000.01 265.278 2005.59 265.278 Z" fill="#000000" fill-rule="evenodd" fill-opacity="1" /><path clip-path="url(#clip930)" d="M2024.55 265.903 L2028.81 265.903 L2028.81 291.829 L2024.55 291.829 L2024.55 265.903 M2024.55 255.81 L2028.81 255.81 L2028.81 261.204 L2024.55 261.204 L2024.55 255.81 Z" fill="#000000" fill-rule="evenodd" fill-opacity="1" /><path clip-path="url(#clip930)" d="M2054.24 266.667 L2054.24 270.694 Q2052.44 269.769 2050.5 269.306 Q2048.55 268.843 2046.47 268.843 Q2043.3 268.843 2041.7 269.815 Q2040.12 270.787 2040.12 272.731 Q2040.12 274.213 2041.26 275.069 Q2042.39 275.903 2045.82 276.667 L2047.28 276.991 Q2051.81 277.963 2053.71 279.745 Q2055.63 281.505 2055.63 284.676 Q2055.63 288.287 2052.76 290.393 Q2049.92 292.5 2044.92 292.5 Q2042.83 292.5 2040.56 292.083 Q2038.32 291.69 2035.82 290.88 L2035.82 286.481 Q2038.18 287.708 2040.47 288.333 Q2042.76 288.935 2045.01 288.935 Q2048.02 288.935 2049.64 287.917 Q2051.26 286.875 2051.26 285 Q2051.26 283.264 2050.08 282.338 Q2048.92 281.412 2044.96 280.556 L2043.48 280.208 Q2039.52 279.375 2037.76 277.662 Q2036 275.926 2036 272.917 Q2036 269.259 2038.6 267.269 Q2041.19 265.278 2045.96 265.278 Q2048.32 265.278 2050.4 265.625 Q2052.49 265.972 2054.24 266.667 Z" fill="#000000" fill-rule="evenodd" fill-opacity="1" /><path clip-path="url(#clip930)" d="M2078.94 266.667 L2078.94 270.694 Q2077.14 269.769 2075.19 269.306 Q2073.25 268.843 2071.17 268.843 Q2067.99 268.843 2066.4 269.815 Q2064.82 270.787 2064.82 272.731 Q2064.82 274.213 2065.96 275.069 Q2067.09 275.903 2070.52 276.667 L2071.98 276.991 Q2076.51 277.963 2078.41 279.745 Q2080.33 281.505 2080.33 284.676 Q2080.33 288.287 2077.46 290.393 Q2074.62 292.5 2069.62 292.5 Q2067.53 292.5 2065.26 292.083 Q2063.02 291.69 2060.52 290.88 L2060.52 286.481 Q2062.88 287.708 2065.17 288.333 Q2067.46 288.935 2069.71 288.935 Q2072.72 288.935 2074.34 287.917 Q2075.96 286.875 2075.96 285 Q2075.96 283.264 2074.78 282.338 Q2073.62 281.412 2069.66 280.556 L2068.18 280.208 Q2064.22 279.375 2062.46 277.662 Q2060.7 275.926 2060.7 272.917 Q2060.7 269.259 2063.3 267.269 Q2065.89 265.278 2070.66 265.278 Q2073.02 265.278 2075.1 265.625 Q2077.18 265.972 2078.94 266.667 Z" fill="#000000" fill-rule="evenodd" fill-opacity="1" /><path clip-path="url(#clip930)" d="M2097.16 268.889 Q2093.74 268.889 2091.74 271.574 Q2089.75 274.236 2089.75 278.889 Q2089.75 283.542 2091.72 286.227 Q2093.71 288.889 2097.16 288.889 Q2100.56 288.889 2102.55 286.204 Q2104.55 283.518 2104.55 278.889 Q2104.55 274.282 2102.55 271.597 Q2100.56 268.889 2097.16 268.889 M2097.16 265.278 Q2102.72 265.278 2105.89 268.889 Q2109.06 272.5 2109.06 278.889 Q2109.06 285.255 2105.89 288.889 Q2102.72 292.5 2097.16 292.5 Q2091.58 292.5 2088.41 288.889 Q2085.26 285.255 2085.26 278.889 Q2085.26 272.5 2088.41 268.889 Q2091.58 265.278 2097.16 265.278 Z" fill="#000000" fill-rule="evenodd" fill-opacity="1" /><path clip-path="url(#clip930)" d="M2137.67 276.181 L2137.67 291.829 L2133.41 291.829 L2133.41 276.319 Q2133.41 272.639 2131.98 270.81 Q2130.54 268.982 2127.67 268.982 Q2124.22 268.982 2122.23 271.181 Q2120.24 273.38 2120.24 277.176 L2120.24 291.829 L2115.96 291.829 L2115.96 265.903 L2120.24 265.903 L2120.24 269.931 Q2121.77 267.593 2123.83 266.435 Q2125.91 265.278 2128.62 265.278 Q2133.09 265.278 2135.38 268.056 Q2137.67 270.81 2137.67 276.181 Z" fill="#000000" fill-rule="evenodd" fill-opacity="1" /><path clip-path="url(#clip930)" d="M2174.36 255.81 L2174.36 259.352 L2170.29 259.352 Q2167.99 259.352 2167.09 260.278 Q2166.21 261.204 2166.21 263.611 L2166.21 265.903 L2173.23 265.903 L2173.23 269.213 L2166.21 269.213 L2166.21 291.829 L2161.93 291.829 L2161.93 269.213 L2157.86 269.213 L2157.86 265.903 L2161.93 265.903 L2161.93 264.097 Q2161.93 259.769 2163.94 257.801 Q2165.96 255.81 2170.33 255.81 L2174.36 255.81 Z" fill="#000000" fill-rule="evenodd" fill-opacity="1" /><path clip-path="url(#clip930)" d="M2177.92 265.903 L2182.18 265.903 L2182.18 291.829 L2177.92 291.829 L2177.92 265.903 M2177.92 255.81 L2182.18 255.81 L2182.18 261.204 L2177.92 261.204 L2177.92 255.81 Z" fill="#000000" fill-rule="evenodd" fill-opacity="1" /><path clip-path="url(#clip930)" d="M2195.31 258.542 L2195.31 265.903 L2204.08 265.903 L2204.08 269.213 L2195.31 269.213 L2195.31 283.287 Q2195.31 286.458 2196.17 287.361 Q2197.05 288.264 2199.71 288.264 L2204.08 288.264 L2204.08 291.829 L2199.71 291.829 Q2194.78 291.829 2192.9 290 Q2191.03 288.148 2191.03 283.287 L2191.03 269.213 L2187.9 269.213 L2187.9 265.903 L2191.03 265.903 L2191.03 258.542 L2195.31 258.542 Z" fill="#000000" fill-rule="evenodd" fill-opacity="1" /></svg>
