<?xml version="1.0" encoding="utf-8"?>
<svg xmlns="http://www.w3.org/2000/svg" xmlns:xlink="http://www.w3.org/1999/xlink" width="600" height="400" viewBox="0 0 2400 1600">
<defs>
  <clipPath id="clip890">
    <rect x="0" y="0" width="2400" height="1600"/>
  </clipPath>
</defs>
<path clip-path="url(#clip890)" d="
M0 1600 L2400 1600 L2400 0 L0 0  Z
  " fill="#ffffff" fill-rule="evenodd" fill-opacity="1"/>
<defs>
  <clipPath id="clip891">
    <rect x="480" y="0" width="1681" height="1600"/>
  </clipPath>
</defs>
<defs>
  <clipPath id="clip892">
    <rect x="235" y="47" width="2118" height="1379"/>
  </clipPath>
</defs>
<path clip-path="url(#clip890)" d="
M235.283 1425.53 L2352.76 1425.53 L2352.76 47.2441 L235.283 47.2441  Z
  " fill="#ffffff" fill-rule="evenodd" fill-opacity="1"/>
<polyline clip-path="url(#clip892)" style="stroke:#000000; stroke-linecap:butt; stroke-linejoin:round; stroke-width:2; stroke-opacity:0.1; fill:none" points="
  462.603,1425.53 462.603,47.2441 
  "/>
<polyline clip-path="url(#clip892)" style="stroke:#000000; stroke-linecap:butt; stroke-linejoin:round; stroke-width:2; stroke-opacity:0.1; fill:none" points="
  906.025,1425.53 906.025,47.2441 
  "/>
<polyline clip-path="url(#clip892)" style="stroke:#000000; stroke-linecap:butt; stroke-linejoin:round; stroke-width:2; stroke-opacity:0.1; fill:none" points="
  1349.45,1425.53 1349.45,47.2441 
  "/>
<polyline clip-path="url(#clip892)" style="stroke:#000000; stroke-linecap:butt; stroke-linejoin:round; stroke-width:2; stroke-opacity:0.1; fill:none" points="
  1792.87,1425.53 1792.87,47.2441 
  "/>
<polyline clip-path="url(#clip892)" style="stroke:#000000; stroke-linecap:butt; stroke-linejoin:round; stroke-width:2; stroke-opacity:0.1; fill:none" points="
  2236.29,1425.53 2236.29,47.2441 
  "/>
<polyline clip-path="url(#clip890)" style="stroke:#000000; stroke-linecap:butt; stroke-linejoin:round; stroke-width:4; stroke-opacity:1; fill:none" points="
  235.283,1425.53 2352.76,1425.53 
  "/>
<polyline clip-path="url(#clip890)" style="stroke:#000000; stroke-linecap:butt; stroke-linejoin:round; stroke-width:4; stroke-opacity:1; fill:none" points="
  462.603,1425.53 462.603,1406.63 
  "/>
<polyline clip-path="url(#clip890)" style="stroke:#000000; stroke-linecap:butt; stroke-linejoin:round; stroke-width:4; stroke-opacity:1; fill:none" points="
  906.025,1425.53 906.025,1406.63 
  "/>
<polyline clip-path="url(#clip890)" style="stroke:#000000; stroke-linecap:butt; stroke-linejoin:round; stroke-width:4; stroke-opacity:1; fill:none" points="
  1349.45,1425.53 1349.45,1406.63 
  "/>
<polyline clip-path="url(#clip890)" style="stroke:#000000; stroke-linecap:butt; stroke-linejoin:round; stroke-width:4; stroke-opacity:1; fill:none" points="
  1792.87,1425.53 1792.87,1406.63 
  "/>
<polyline clip-path="url(#clip890)" style="stroke:#000000; stroke-linecap:butt; stroke-linejoin:round; stroke-width:4; stroke-opacity:1; fill:none" points="
  2236.29,1425.53 2236.29,1406.63 
  "/>
<path clip-path="url(#clip890)" d="M394.849 1469.37 L424.525 1469.37 L424.525 1473.31 L394.849 1473.31 L394.849 1469.37 Z" fill="#000000" fill-rule="evenodd" fill-opacity="1" /><path clip-path="url(#clip890)" d="M444.617 1454.72 Q441.006 1454.72 439.177 1458.29 Q437.372 1461.83 437.372 1468.96 Q437.372 1476.06 439.177 1479.63 Q441.006 1483.17 444.617 1483.17 Q448.251 1483.17 450.057 1479.63 Q451.886 1476.06 451.886 1468.96 Q451.886 1461.83 450.057 1458.29 Q448.251 1454.72 444.617 1454.72 M444.617 1451.02 Q450.427 1451.02 453.483 1455.62 Q456.562 1460.21 456.562 1468.96 Q456.562 1477.69 453.483 1482.29 Q450.427 1486.87 444.617 1486.87 Q438.807 1486.87 435.728 1482.29 Q432.673 1477.69 432.673 1468.96 Q432.673 1460.21 435.728 1455.62 Q438.807 1451.02 444.617 1451.02 Z" fill="#000000" fill-rule="evenodd" fill-opacity="1" /><path clip-path="url(#clip890)" d="M464.779 1480.32 L469.663 1480.32 L469.663 1486.2 L464.779 1486.2 L464.779 1480.32 Z" fill="#000000" fill-rule="evenodd" fill-opacity="1" /><path clip-path="url(#clip890)" d="M489.848 1454.72 Q486.237 1454.72 484.409 1458.29 Q482.603 1461.83 482.603 1468.96 Q482.603 1476.06 484.409 1479.63 Q486.237 1483.17 489.848 1483.17 Q493.483 1483.17 495.288 1479.63 Q497.117 1476.06 497.117 1468.96 Q497.117 1461.83 495.288 1458.29 Q493.483 1454.72 489.848 1454.72 M489.848 1451.02 Q495.659 1451.02 498.714 1455.62 Q501.793 1460.21 501.793 1468.96 Q501.793 1477.69 498.714 1482.29 Q495.659 1486.87 489.848 1486.87 Q484.038 1486.87 480.96 1482.29 Q477.904 1477.69 477.904 1468.96 Q477.904 1460.21 480.96 1455.62 Q484.038 1451.02 489.848 1451.02 Z" fill="#000000" fill-rule="evenodd" fill-opacity="1" /><path clip-path="url(#clip890)" d="M514.038 1482.27 L530.357 1482.27 L530.357 1486.2 L508.413 1486.2 L508.413 1482.27 Q511.075 1479.51 515.658 1474.88 Q520.265 1470.23 521.445 1468.89 Q523.691 1466.37 524.57 1464.63 Q525.473 1462.87 525.473 1461.18 Q525.473 1458.43 523.529 1456.69 Q521.607 1454.95 518.506 1454.95 Q516.307 1454.95 513.853 1455.72 Q511.422 1456.48 508.645 1458.03 L508.645 1453.31 Q511.469 1452.18 513.922 1451.6 Q516.376 1451.02 518.413 1451.02 Q523.783 1451.02 526.978 1453.7 Q530.172 1456.39 530.172 1460.88 Q530.172 1463.01 529.362 1464.93 Q528.575 1466.83 526.469 1469.42 Q525.89 1470.09 522.788 1473.31 Q519.686 1476.5 514.038 1482.27 Z" fill="#000000" fill-rule="evenodd" fill-opacity="1" /><path clip-path="url(#clip890)" d="M868.329 1454.72 Q864.717 1454.72 862.889 1458.29 Q861.083 1461.83 861.083 1468.96 Q861.083 1476.06 862.889 1479.63 Q864.717 1483.17 868.329 1483.17 Q871.963 1483.17 873.768 1479.63 Q875.597 1476.06 875.597 1468.96 Q875.597 1461.83 873.768 1458.29 Q871.963 1454.72 868.329 1454.72 M868.329 1451.02 Q874.139 1451.02 877.194 1455.62 Q880.273 1460.21 880.273 1468.96 Q880.273 1477.69 877.194 1482.29 Q874.139 1486.87 868.329 1486.87 Q862.518 1486.87 859.44 1482.29 Q856.384 1477.69 856.384 1468.96 Q856.384 1460.21 859.44 1455.62 Q862.518 1451.02 868.329 1451.02 Z" fill="#000000" fill-rule="evenodd" fill-opacity="1" /><path clip-path="url(#clip890)" d="M888.491 1480.32 L893.375 1480.32 L893.375 1486.2 L888.491 1486.2 L888.491 1480.32 Z" fill="#000000" fill-rule="evenodd" fill-opacity="1" /><path clip-path="url(#clip890)" d="M913.56 1454.72 Q909.949 1454.72 908.12 1458.29 Q906.314 1461.83 906.314 1468.96 Q906.314 1476.06 908.12 1479.63 Q909.949 1483.17 913.56 1483.17 Q917.194 1483.17 919 1479.63 Q920.828 1476.06 920.828 1468.96 Q920.828 1461.83 919 1458.29 Q917.194 1454.72 913.56 1454.72 M913.56 1451.02 Q919.37 1451.02 922.426 1455.62 Q925.504 1460.21 925.504 1468.96 Q925.504 1477.69 922.426 1482.29 Q919.37 1486.87 913.56 1486.87 Q907.75 1486.87 904.671 1482.29 Q901.615 1477.69 901.615 1468.96 Q901.615 1460.21 904.671 1455.62 Q907.75 1451.02 913.56 1451.02 Z" fill="#000000" fill-rule="evenodd" fill-opacity="1" /><path clip-path="url(#clip890)" d="M943.722 1454.72 Q940.111 1454.72 938.282 1458.29 Q936.476 1461.83 936.476 1468.96 Q936.476 1476.06 938.282 1479.63 Q940.111 1483.17 943.722 1483.17 Q947.356 1483.17 949.161 1479.63 Q950.99 1476.06 950.99 1468.96 Q950.99 1461.83 949.161 1458.29 Q947.356 1454.72 943.722 1454.72 M943.722 1451.02 Q949.532 1451.02 952.587 1455.62 Q955.666 1460.21 955.666 1468.96 Q955.666 1477.69 952.587 1482.29 Q949.532 1486.87 943.722 1486.87 Q937.912 1486.87 934.833 1482.29 Q931.777 1477.69 931.777 1468.96 Q931.777 1460.21 934.833 1455.62 Q937.912 1451.02 943.722 1451.02 Z" fill="#000000" fill-rule="evenodd" fill-opacity="1" /><path clip-path="url(#clip890)" d="M1312.55 1454.72 Q1308.94 1454.72 1307.11 1458.29 Q1305.3 1461.83 1305.3 1468.96 Q1305.3 1476.06 1307.11 1479.63 Q1308.94 1483.17 1312.55 1483.17 Q1316.18 1483.17 1317.99 1479.63 Q1319.82 1476.06 1319.82 1468.96 Q1319.82 1461.83 1317.99 1458.29 Q1316.18 1454.72 1312.55 1454.72 M1312.55 1451.02 Q1318.36 1451.02 1321.41 1455.62 Q1324.49 1460.21 1324.49 1468.96 Q1324.49 1477.69 1321.41 1482.29 Q1318.36 1486.87 1312.55 1486.87 Q1306.74 1486.87 1303.66 1482.29 Q1300.6 1477.69 1300.6 1468.96 Q1300.6 1460.21 1303.66 1455.62 Q1306.74 1451.02 1312.55 1451.02 Z" fill="#000000" fill-rule="evenodd" fill-opacity="1" /><path clip-path="url(#clip890)" d="M1332.71 1480.32 L1337.6 1480.32 L1337.6 1486.2 L1332.71 1486.2 L1332.71 1480.32 Z" fill="#000000" fill-rule="evenodd" fill-opacity="1" /><path clip-path="url(#clip890)" d="M1357.78 1454.72 Q1354.17 1454.72 1352.34 1458.29 Q1350.54 1461.83 1350.54 1468.96 Q1350.54 1476.06 1352.34 1479.63 Q1354.17 1483.17 1357.78 1483.17 Q1361.41 1483.17 1363.22 1479.63 Q1365.05 1476.06 1365.05 1468.96 Q1365.05 1461.83 1363.22 1458.29 Q1361.41 1454.72 1357.78 1454.72 M1357.78 1451.02 Q1363.59 1451.02 1366.65 1455.62 Q1369.72 1460.21 1369.72 1468.96 Q1369.72 1477.69 1366.65 1482.29 Q1363.59 1486.87 1357.78 1486.87 Q1351.97 1486.87 1348.89 1482.29 Q1345.84 1477.69 1345.84 1468.96 Q1345.84 1460.21 1348.89 1455.62 Q1351.97 1451.02 1357.78 1451.02 Z" fill="#000000" fill-rule="evenodd" fill-opacity="1" /><path clip-path="url(#clip890)" d="M1381.97 1482.27 L1398.29 1482.27 L1398.29 1486.2 L1376.35 1486.2 L1376.35 1482.27 Q1379.01 1479.51 1383.59 1474.88 Q1388.2 1470.23 1389.38 1468.89 Q1391.62 1466.37 1392.5 1464.63 Q1393.41 1462.87 1393.41 1461.18 Q1393.41 1458.43 1391.46 1456.69 Q1389.54 1454.95 1386.44 1454.95 Q1384.24 1454.95 1381.78 1455.72 Q1379.35 1456.48 1376.58 1458.03 L1376.58 1453.31 Q1379.4 1452.18 1381.85 1451.6 Q1384.31 1451.02 1386.35 1451.02 Q1391.72 1451.02 1394.91 1453.7 Q1398.1 1456.39 1398.1 1460.88 Q1398.1 1463.01 1397.29 1464.93 Q1396.51 1466.83 1394.4 1469.42 Q1393.82 1470.09 1390.72 1473.31 Q1387.62 1476.5 1381.97 1482.27 Z" fill="#000000" fill-rule="evenodd" fill-opacity="1" /><path clip-path="url(#clip890)" d="M1754.93 1454.72 Q1751.32 1454.72 1749.49 1458.29 Q1747.68 1461.83 1747.68 1468.96 Q1747.68 1476.06 1749.49 1479.63 Q1751.32 1483.17 1754.93 1483.17 Q1758.56 1483.17 1760.37 1479.63 Q1762.2 1476.06 1762.2 1468.96 Q1762.2 1461.83 1760.37 1458.29 Q1758.56 1454.72 1754.93 1454.72 M1754.93 1451.02 Q1760.74 1451.02 1763.8 1455.62 Q1766.87 1460.21 1766.87 1468.96 Q1766.87 1477.69 1763.8 1482.29 Q1760.74 1486.87 1754.93 1486.87 Q1749.12 1486.87 1746.04 1482.29 Q1742.99 1477.69 1742.99 1468.96 Q1742.99 1460.21 1746.04 1455.62 Q1749.12 1451.02 1754.93 1451.02 Z" fill="#000000" fill-rule="evenodd" fill-opacity="1" /><path clip-path="url(#clip890)" d="M1775.09 1480.32 L1779.98 1480.32 L1779.98 1486.2 L1775.09 1486.2 L1775.09 1480.32 Z" fill="#000000" fill-rule="evenodd" fill-opacity="1" /><path clip-path="url(#clip890)" d="M1800.16 1454.72 Q1796.55 1454.72 1794.72 1458.29 Q1792.92 1461.83 1792.92 1468.96 Q1792.92 1476.06 1794.72 1479.63 Q1796.55 1483.17 1800.16 1483.17 Q1803.79 1483.17 1805.6 1479.63 Q1807.43 1476.06 1807.43 1468.96 Q1807.43 1461.83 1805.6 1458.29 Q1803.79 1454.72 1800.16 1454.72 M1800.16 1451.02 Q1805.97 1451.02 1809.03 1455.62 Q1812.11 1460.21 1812.11 1468.96 Q1812.11 1477.69 1809.03 1482.29 Q1805.97 1486.87 1800.16 1486.87 Q1794.35 1486.87 1791.27 1482.29 Q1788.22 1477.69 1788.22 1468.96 Q1788.22 1460.21 1791.27 1455.62 Q1794.35 1451.02 1800.16 1451.02 Z" fill="#000000" fill-rule="evenodd" fill-opacity="1" /><path clip-path="url(#clip890)" d="M1833.17 1455.72 L1821.36 1474.17 L1833.17 1474.17 L1833.17 1455.72 M1831.94 1451.64 L1837.82 1451.64 L1837.82 1474.17 L1842.75 1474.17 L1842.75 1478.06 L1837.82 1478.06 L1837.82 1486.2 L1833.17 1486.2 L1833.17 1478.06 L1817.57 1478.06 L1817.57 1473.54 L1831.94 1451.64 Z" fill="#000000" fill-rule="evenodd" fill-opacity="1" /><path clip-path="url(#clip890)" d="M2198.51 1454.72 Q2194.9 1454.72 2193.07 1458.29 Q2191.27 1461.83 2191.27 1468.96 Q2191.27 1476.06 2193.07 1479.63 Q2194.9 1483.17 2198.51 1483.17 Q2202.15 1483.17 2203.95 1479.63 Q2205.78 1476.06 2205.78 1468.96 Q2205.78 1461.83 2203.95 1458.29 Q2202.15 1454.72 2198.51 1454.72 M2198.51 1451.02 Q2204.32 1451.02 2207.38 1455.62 Q2210.46 1460.21 2210.46 1468.96 Q2210.46 1477.69 2207.38 1482.29 Q2204.32 1486.87 2198.51 1486.87 Q2192.7 1486.87 2189.62 1482.29 Q2186.57 1477.69 2186.57 1468.96 Q2186.57 1460.21 2189.62 1455.62 Q2192.7 1451.02 2198.51 1451.02 Z" fill="#000000" fill-rule="evenodd" fill-opacity="1" /><path clip-path="url(#clip890)" d="M2218.68 1480.32 L2223.56 1480.32 L2223.56 1486.2 L2218.68 1486.2 L2218.68 1480.32 Z" fill="#000000" fill-rule="evenodd" fill-opacity="1" /><path clip-path="url(#clip890)" d="M2243.74 1454.72 Q2240.13 1454.72 2238.3 1458.29 Q2236.5 1461.83 2236.5 1468.96 Q2236.5 1476.06 2238.3 1479.63 Q2240.13 1483.17 2243.74 1483.17 Q2247.38 1483.17 2249.18 1479.63 Q2251.01 1476.06 2251.01 1468.96 Q2251.01 1461.83 2249.18 1458.29 Q2247.38 1454.72 2243.74 1454.72 M2243.74 1451.02 Q2249.55 1451.02 2252.61 1455.62 Q2255.69 1460.21 2255.69 1468.96 Q2255.69 1477.69 2252.61 1482.29 Q2249.55 1486.87 2243.74 1486.87 Q2237.93 1486.87 2234.86 1482.29 Q2231.8 1477.69 2231.8 1468.96 Q2231.8 1460.21 2234.86 1455.62 Q2237.93 1451.02 2243.74 1451.02 Z" fill="#000000" fill-rule="evenodd" fill-opacity="1" /><path clip-path="url(#clip890)" d="M2274.49 1467.06 Q2271.34 1467.06 2269.49 1469.21 Q2267.66 1471.37 2267.66 1475.12 Q2267.66 1478.84 2269.49 1481.02 Q2271.34 1483.17 2274.49 1483.17 Q2277.63 1483.17 2279.46 1481.02 Q2281.31 1478.84 2281.31 1475.12 Q2281.31 1471.37 2279.46 1469.21 Q2277.63 1467.06 2274.49 1467.06 M2283.77 1452.41 L2283.77 1456.67 Q2282.01 1455.83 2280.2 1455.39 Q2278.42 1454.95 2276.66 1454.95 Q2272.03 1454.95 2269.58 1458.08 Q2267.15 1461.2 2266.8 1467.52 Q2268.17 1465.51 2270.23 1464.44 Q2272.29 1463.36 2274.76 1463.36 Q2279.97 1463.36 2282.98 1466.53 Q2286.01 1469.68 2286.01 1475.12 Q2286.01 1480.44 2282.86 1483.66 Q2279.72 1486.87 2274.49 1486.87 Q2268.49 1486.87 2265.32 1482.29 Q2262.15 1477.69 2262.15 1468.96 Q2262.15 1460.76 2266.04 1455.9 Q2269.93 1451.02 2276.48 1451.02 Q2278.24 1451.02 2280.02 1451.37 Q2281.82 1451.71 2283.77 1452.41 Z" fill="#000000" fill-rule="evenodd" fill-opacity="1" /><path clip-path="url(#clip890)" d="M1200.57 1552.72 Q1200.57 1552.46 1201.44 1550.79 Q1202.31 1549.08 1205.36 1542.99 Q1208.42 1536.87 1211.58 1530.46 L1222.95 1507.6 Q1223.75 1506.15 1224.78 1506.15 Q1225.72 1506.15 1226.14 1506.73 Q1226.56 1507.31 1228.49 1511.2 Q1229.49 1513.1 1230.07 1514.33 L1248.71 1551.65 Q1249.04 1552.46 1249.07 1552.72 Q1249.07 1553.36 1247.94 1553.36 L1202.31 1553.36 Q1200.57 1553.36 1200.57 1552.72 M1204.91 1548.34 L1240.4 1548.34 L1222.66 1512.72 L1204.91 1548.34 Z" fill="#000000" fill-rule="evenodd" fill-opacity="1" /><path clip-path="url(#clip890)" d="M1283.91 1528.82 Q1283.91 1529.66 1283.68 1531.3 Q1283.46 1532.94 1282.91 1535.33 Q1282.36 1537.71 1281.56 1540.22 Q1280.78 1542.73 1279.56 1545.25 Q1278.33 1547.73 1276.89 1549.69 Q1275.44 1551.65 1273.41 1552.88 Q1271.38 1554.1 1269.09 1554.1 Q1268.03 1554.1 1267 1553.94 Q1265.97 1553.78 1264.68 1553.27 Q1263.39 1552.75 1262.46 1551.91 Q1261.52 1551.04 1260.88 1549.5 Q1260.23 1547.95 1260.23 1545.92 Q1260.23 1543.83 1261.01 1541.03 Q1261.81 1538.19 1264 1532.4 Q1265.13 1529.4 1265.13 1527.76 Q1265.13 1527.02 1264.97 1526.57 Q1264.81 1526.08 1264.49 1525.92 Q1264.16 1525.73 1263.97 1525.7 Q1263.81 1525.66 1263.49 1525.66 Q1261.72 1525.66 1259.91 1527.5 Q1258.11 1529.34 1256.82 1533.85 Q1256.56 1534.65 1256.4 1534.84 Q1256.24 1535.04 1255.76 1535.04 Q1254.95 1535 1254.95 1534.36 Q1254.95 1534.17 1255.18 1533.43 Q1255.4 1532.65 1255.82 1531.49 Q1256.24 1530.3 1256.98 1529.08 Q1257.72 1527.82 1258.62 1526.73 Q1259.56 1525.63 1260.88 1524.92 Q1262.2 1524.22 1263.68 1524.22 Q1266.1 1524.22 1267.58 1525.79 Q1269.09 1527.34 1269.09 1529.63 Q1269.09 1530.88 1268.29 1532.91 Q1266.93 1536.58 1266.32 1538.35 Q1265.71 1540.13 1265.07 1542.64 Q1264.45 1545.15 1264.45 1546.89 Q1264.45 1549.53 1265.68 1551.08 Q1266.9 1552.62 1269.35 1552.62 Q1271.54 1552.62 1273.5 1551.04 Q1275.5 1549.43 1276.82 1547.15 Q1278.14 1544.83 1279.14 1542.25 Q1280.14 1539.64 1280.59 1537.68 Q1281.07 1535.68 1281.07 1534.75 Q1281.07 1531.49 1278.85 1529.37 Q1278.24 1528.76 1278.01 1528.37 Q1277.79 1527.98 1277.79 1527.37 Q1277.79 1526.24 1278.79 1525.25 Q1279.82 1524.22 1281.01 1524.22 Q1282.1 1524.22 1283 1525.31 Q1283.91 1526.41 1283.91 1528.82 Z" fill="#000000" fill-rule="evenodd" fill-opacity="1" /><path clip-path="url(#clip890)" d="M1320.16 1543.93 Q1319.29 1548.08 1318.16 1550.46 Q1316.36 1554.1 1313.3 1554.1 Q1310.98 1554.1 1309.34 1552.69 Q1307.69 1551.27 1307.31 1549.14 Q1303.09 1554.1 1298.71 1554.1 Q1294.84 1554.1 1292.4 1551.17 Q1289.95 1548.21 1289.95 1543.54 Q1289.95 1538.84 1292.27 1534.33 Q1294.62 1529.82 1298.32 1527.02 Q1302.03 1524.22 1305.83 1524.22 Q1309.85 1524.22 1311.91 1528.43 Q1312.07 1527.28 1312.82 1526.41 Q1313.56 1525.54 1314.68 1525.54 Q1315.55 1525.54 1316.07 1526.02 Q1316.58 1526.47 1316.58 1527.31 Q1316.58 1527.73 1316.13 1529.56 L1313.75 1538.77 L1312.3 1544.73 Q1311.75 1546.92 1311.59 1547.73 Q1311.46 1548.53 1311.46 1549.59 Q1311.46 1552.62 1313.43 1552.62 Q1314.39 1552.62 1315.17 1552.01 Q1315.94 1551.4 1316.55 1550.11 Q1317.16 1548.82 1317.55 1547.63 Q1317.94 1546.41 1318.45 1544.47 Q1318.61 1543.7 1318.74 1543.51 Q1318.9 1543.28 1319.35 1543.28 Q1320.16 1543.28 1320.16 1543.93 M1311.11 1531.46 Q1311.11 1531.17 1310.88 1530.37 Q1310.66 1529.56 1310.14 1528.43 Q1309.63 1527.31 1308.5 1526.5 Q1307.4 1525.66 1305.92 1525.66 Q1303.93 1525.66 1301.83 1527.37 Q1299.77 1529.08 1298.26 1531.98 Q1297.1 1534.3 1295.84 1539.16 Q1294.62 1544.02 1294.62 1546.44 Q1294.62 1547.92 1294.94 1549.24 Q1295.3 1550.53 1296.29 1551.59 Q1297.29 1552.62 1298.84 1552.62 Q1302.61 1552.62 1306.31 1547.95 Q1307.02 1547.15 1307.18 1546.82 Q1307.37 1546.47 1307.63 1545.5 L1310.92 1532.59 Q1311.11 1531.62 1311.11 1531.46 Z" fill="#000000" fill-rule="evenodd" fill-opacity="1" /><path clip-path="url(#clip890)" d="M1349.77 1528.5 Q1349.77 1530.21 1348.64 1531.3 Q1347.55 1532.4 1346.13 1532.4 Q1344.91 1532.4 1344.26 1531.69 Q1343.62 1530.98 1343.62 1530.08 Q1343.62 1528.79 1344.62 1527.73 Q1345.62 1526.66 1347.07 1526.44 Q1346 1525.66 1344.3 1525.66 Q1341.49 1525.66 1339.01 1527.82 Q1337.92 1528.82 1336.73 1530.66 Q1335.54 1532.46 1335.31 1533.23 L1333.22 1541.83 Q1333.02 1542.8 1331.83 1547.44 Q1330.67 1552.04 1330.58 1552.23 Q1330.25 1553.14 1329.55 1553.62 Q1328.84 1554.1 1328.13 1554.1 Q1327.32 1554.1 1326.78 1553.62 Q1326.23 1553.14 1326.23 1552.3 Q1326.23 1552.17 1326.33 1551.69 Q1326.42 1551.2 1326.58 1550.53 Q1326.74 1549.85 1326.81 1549.46 L1330.64 1534.23 Q1331.35 1531.46 1331.51 1530.59 Q1331.7 1529.69 1331.7 1528.69 Q1331.7 1526.95 1331.16 1526.31 Q1330.61 1525.66 1329.64 1525.66 Q1327.97 1525.66 1326.87 1527.66 Q1325.78 1529.66 1324.84 1533.52 Q1324.55 1534.59 1324.36 1534.81 Q1324.2 1535.04 1323.72 1535.04 Q1322.91 1535 1322.91 1534.36 Q1322.91 1534.2 1323.17 1533.17 Q1323.43 1532.11 1323.91 1530.56 Q1324.43 1528.98 1324.97 1527.98 Q1325.29 1527.31 1325.58 1526.86 Q1325.87 1526.41 1326.45 1525.7 Q1327.03 1524.99 1327.9 1524.6 Q1328.77 1524.22 1329.84 1524.22 Q1332.15 1524.22 1333.8 1525.63 Q1335.47 1527.05 1335.86 1529.27 Q1336.66 1528.11 1337.66 1527.11 Q1338.66 1526.08 1340.5 1525.15 Q1342.33 1524.22 1344.3 1524.22 Q1346.74 1524.22 1348.26 1525.47 Q1349.77 1526.7 1349.77 1528.5 Z" fill="#000000" fill-rule="evenodd" fill-opacity="1" /><path clip-path="url(#clip890)" d="M1380.67 1552.46 Q1380.67 1555.75 1379 1558.93 Q1377.35 1562.11 1374.76 1564.07 Q1372.17 1566.01 1369.53 1566.01 Q1367.95 1566.01 1366.89 1565.15 Q1365.86 1564.27 1365.29 1563.03 Q1364.86 1564.57 1363.94 1568.24 Q1363.02 1571.91 1363.02 1572.28 Q1363.02 1572.48 1363.06 1572.57 Q1363.11 1572.66 1363.31 1572.77 Q1363.51 1572.91 1364.01 1572.95 Q1364.5 1573.02 1365.34 1573.02 Q1365.77 1573.02 1365.92 1573.02 Q1366.1 1573.04 1366.26 1573.15 Q1366.44 1573.27 1366.44 1573.52 Q1366.44 1574.44 1365.61 1574.44 Q1364.86 1574.44 1363.33 1574.37 Q1361.8 1574.3 1361.03 1574.3 Q1360.38 1574.3 1359.07 1574.37 Q1357.76 1574.44 1357.15 1574.44 Q1356.55 1574.44 1356.55 1573.9 Q1356.55 1573.58 1356.64 1573.38 Q1356.7 1573.2 1356.88 1573.11 Q1357.06 1573.04 1357.22 1573.02 Q1357.36 1573.02 1357.63 1573.02 Q1358.66 1573.02 1359.12 1572.84 Q1359.57 1572.68 1359.72 1572.34 Q1359.9 1572.03 1360.11 1571.13 L1365.29 1550.57 Q1365.61 1549.19 1365.61 1548.22 Q1365.61 1547 1365.22 1546.55 Q1364.84 1546.1 1364.17 1546.1 Q1362.99 1546.1 1362.23 1547.5 Q1361.46 1548.9 1360.81 1551.6 Q1360.6 1552.35 1360.47 1552.5 Q1360.36 1552.66 1360.02 1552.66 Q1359.45 1552.64 1359.45 1552.19 Q1359.45 1552.08 1359.63 1551.35 Q1359.81 1550.61 1360.15 1549.53 Q1360.51 1548.42 1360.9 1547.72 Q1361.12 1547.25 1361.32 1546.94 Q1361.53 1546.62 1361.93 1546.12 Q1362.36 1545.63 1362.97 1545.36 Q1363.58 1545.09 1364.32 1545.09 Q1365.77 1545.09 1366.96 1545.94 Q1368.16 1546.8 1368.47 1548.54 Q1369.76 1547.03 1371.33 1546.06 Q1372.91 1545.09 1374.51 1545.09 Q1377.17 1545.09 1378.91 1547.16 Q1380.67 1549.21 1380.67 1552.46 M1377.33 1550.43 Q1377.33 1548.38 1376.54 1547.25 Q1375.78 1546.1 1374.38 1546.1 Q1372.64 1546.1 1370.64 1547.86 Q1368.65 1549.53 1368.25 1551.08 L1365.97 1560.12 L1365.83 1560.87 Q1365.83 1561 1365.9 1561.41 Q1365.99 1561.79 1366.24 1562.42 Q1366.51 1563.05 1366.87 1563.62 Q1367.25 1564.16 1367.93 1564.57 Q1368.63 1564.97 1369.49 1564.97 Q1370.86 1564.97 1372.35 1563.75 Q1373.86 1562.54 1374.99 1560.24 Q1375.69 1558.75 1376.5 1555.55 Q1377.33 1552.32 1377.33 1550.43 Z" fill="#000000" fill-rule="evenodd" fill-opacity="1" /><polyline clip-path="url(#clip892)" style="stroke:#000000; stroke-linecap:butt; stroke-linejoin:round; stroke-width:2; stroke-opacity:0.1; fill:none" points="
  235.283,1386.52 2352.76,1386.52 
  "/>
<polyline clip-path="url(#clip892)" style="stroke:#000000; stroke-linecap:butt; stroke-linejoin:round; stroke-width:2; stroke-opacity:0.1; fill:none" points="
  235.283,1161.56 2352.76,1161.56 
  "/>
<polyline clip-path="url(#clip892)" style="stroke:#000000; stroke-linecap:butt; stroke-linejoin:round; stroke-width:2; stroke-opacity:0.1; fill:none" points="
  235.283,936.603 2352.76,936.603 
  "/>
<polyline clip-path="url(#clip892)" style="stroke:#000000; stroke-linecap:butt; stroke-linejoin:round; stroke-width:2; stroke-opacity:0.1; fill:none" points="
  235.283,711.642 2352.76,711.642 
  "/>
<polyline clip-path="url(#clip892)" style="stroke:#000000; stroke-linecap:butt; stroke-linejoin:round; stroke-width:2; stroke-opacity:0.1; fill:none" points="
  235.283,486.682 2352.76,486.682 
  "/>
<polyline clip-path="url(#clip892)" style="stroke:#000000; stroke-linecap:butt; stroke-linejoin:round; stroke-width:2; stroke-opacity:0.1; fill:none" points="
  235.283,261.721 2352.76,261.721 
  "/>
<polyline clip-path="url(#clip890)" style="stroke:#000000; stroke-linecap:butt; stroke-linejoin:round; stroke-width:4; stroke-opacity:1; fill:none" points="
  235.283,1425.53 235.283,47.2441 
  "/>
<polyline clip-path="url(#clip890)" style="stroke:#000000; stroke-linecap:butt; stroke-linejoin:round; stroke-width:4; stroke-opacity:1; fill:none" points="
  235.283,1386.52 254.18,1386.52 
  "/>
<polyline clip-path="url(#clip890)" style="stroke:#000000; stroke-linecap:butt; stroke-linejoin:round; stroke-width:4; stroke-opacity:1; fill:none" points="
  235.283,1161.56 254.18,1161.56 
  "/>
<polyline clip-path="url(#clip890)" style="stroke:#000000; stroke-linecap:butt; stroke-linejoin:round; stroke-width:4; stroke-opacity:1; fill:none" points="
  235.283,936.603 254.18,936.603 
  "/>
<polyline clip-path="url(#clip890)" style="stroke:#000000; stroke-linecap:butt; stroke-linejoin:round; stroke-width:4; stroke-opacity:1; fill:none" points="
  235.283,711.642 254.18,711.642 
  "/>
<polyline clip-path="url(#clip890)" style="stroke:#000000; stroke-linecap:butt; stroke-linejoin:round; stroke-width:4; stroke-opacity:1; fill:none" points="
  235.283,486.682 254.18,486.682 
  "/>
<polyline clip-path="url(#clip890)" style="stroke:#000000; stroke-linecap:butt; stroke-linejoin:round; stroke-width:4; stroke-opacity:1; fill:none" points="
  235.283,261.721 254.18,261.721 
  "/>
<path clip-path="url(#clip890)" d="M187.338 1372.32 Q183.727 1372.32 181.899 1375.89 Q180.093 1379.43 180.093 1386.56 Q180.093 1393.66 181.899 1397.23 Q183.727 1400.77 187.338 1400.77 Q190.973 1400.77 192.778 1397.23 Q194.607 1393.66 194.607 1386.56 Q194.607 1379.43 192.778 1375.89 Q190.973 1372.32 187.338 1372.32 M187.338 1368.62 Q193.149 1368.62 196.204 1373.22 Q199.283 1377.81 199.283 1386.56 Q199.283 1395.28 196.204 1399.89 Q193.149 1404.47 187.338 1404.47 Q181.528 1404.47 178.45 1399.89 Q175.394 1395.28 175.394 1386.56 Q175.394 1377.81 178.45 1373.22 Q181.528 1368.62 187.338 1368.62 Z" fill="#000000" fill-rule="evenodd" fill-opacity="1" /><path clip-path="url(#clip890)" d="M117.825 1174.91 L125.464 1174.91 L125.464 1148.54 L117.154 1150.21 L117.154 1145.95 L125.418 1144.28 L130.093 1144.28 L130.093 1174.91 L137.732 1174.91 L137.732 1178.84 L117.825 1178.84 L117.825 1174.91 Z" fill="#000000" fill-rule="evenodd" fill-opacity="1" /><path clip-path="url(#clip890)" d="M157.177 1147.36 Q153.566 1147.36 151.737 1150.93 Q149.931 1154.47 149.931 1161.6 Q149.931 1168.7 151.737 1172.27 Q153.566 1175.81 157.177 1175.81 Q160.811 1175.81 162.616 1172.27 Q164.445 1168.7 164.445 1161.6 Q164.445 1154.47 162.616 1150.93 Q160.811 1147.36 157.177 1147.36 M157.177 1143.66 Q162.987 1143.66 166.042 1148.26 Q169.121 1152.85 169.121 1161.6 Q169.121 1170.32 166.042 1174.93 Q162.987 1179.51 157.177 1179.51 Q151.366 1179.51 148.288 1174.93 Q145.232 1170.32 145.232 1161.6 Q145.232 1152.85 148.288 1148.26 Q151.366 1143.66 157.177 1143.66 Z" fill="#000000" fill-rule="evenodd" fill-opacity="1" /><path clip-path="url(#clip890)" d="M187.338 1147.36 Q183.727 1147.36 181.899 1150.93 Q180.093 1154.47 180.093 1161.6 Q180.093 1168.7 181.899 1172.27 Q183.727 1175.81 187.338 1175.81 Q190.973 1175.81 192.778 1172.27 Q194.607 1168.7 194.607 1161.6 Q194.607 1154.47 192.778 1150.93 Q190.973 1147.36 187.338 1147.36 M187.338 1143.66 Q193.149 1143.66 196.204 1148.26 Q199.283 1152.85 199.283 1161.6 Q199.283 1170.32 196.204 1174.93 Q193.149 1179.51 187.338 1179.51 Q181.528 1179.51 178.45 1174.93 Q175.394 1170.32 175.394 1161.6 Q175.394 1152.85 178.45 1148.26 Q181.528 1143.66 187.338 1143.66 Z" fill="#000000" fill-rule="evenodd" fill-opacity="1" /><path clip-path="url(#clip890)" d="M121.043 949.947 L137.362 949.947 L137.362 953.883 L115.418 953.883 L115.418 949.947 Q118.08 947.193 122.663 942.563 Q127.269 937.91 128.45 936.568 Q130.695 934.045 131.575 932.309 Q132.478 930.549 132.478 928.86 Q132.478 926.105 130.533 924.369 Q128.612 922.633 125.51 922.633 Q123.311 922.633 120.857 923.397 Q118.427 924.161 115.649 925.711 L115.649 920.989 Q118.473 919.855 120.927 919.276 Q123.38 918.698 125.418 918.698 Q130.788 918.698 133.982 921.383 Q137.177 924.068 137.177 928.559 Q137.177 930.688 136.367 932.61 Q135.579 934.508 133.473 937.1 Q132.894 937.772 129.792 940.989 Q126.691 944.184 121.043 949.947 Z" fill="#000000" fill-rule="evenodd" fill-opacity="1" /><path clip-path="url(#clip890)" d="M157.177 922.401 Q153.566 922.401 151.737 925.966 Q149.931 929.508 149.931 936.637 Q149.931 943.744 151.737 947.309 Q153.566 950.85 157.177 950.85 Q160.811 950.85 162.616 947.309 Q164.445 943.744 164.445 936.637 Q164.445 929.508 162.616 925.966 Q160.811 922.401 157.177 922.401 M157.177 918.698 Q162.987 918.698 166.042 923.304 Q169.121 927.887 169.121 936.637 Q169.121 945.364 166.042 949.971 Q162.987 954.554 157.177 954.554 Q151.366 954.554 148.288 949.971 Q145.232 945.364 145.232 936.637 Q145.232 927.887 148.288 923.304 Q151.366 918.698 157.177 918.698 Z" fill="#000000" fill-rule="evenodd" fill-opacity="1" /><path clip-path="url(#clip890)" d="M187.338 922.401 Q183.727 922.401 181.899 925.966 Q180.093 929.508 180.093 936.637 Q180.093 943.744 181.899 947.309 Q183.727 950.85 187.338 950.85 Q190.973 950.85 192.778 947.309 Q194.607 943.744 194.607 936.637 Q194.607 929.508 192.778 925.966 Q190.973 922.401 187.338 922.401 M187.338 918.698 Q193.149 918.698 196.204 923.304 Q199.283 927.887 199.283 936.637 Q199.283 945.364 196.204 949.971 Q193.149 954.554 187.338 954.554 Q181.528 954.554 178.45 949.971 Q175.394 945.364 175.394 936.637 Q175.394 927.887 178.45 923.304 Q181.528 918.698 187.338 918.698 Z" fill="#000000" fill-rule="evenodd" fill-opacity="1" /><path clip-path="url(#clip890)" d="M131.181 710.288 Q134.538 711.006 136.413 713.274 Q138.311 715.543 138.311 718.876 Q138.311 723.992 134.792 726.793 Q131.274 729.593 124.793 729.593 Q122.617 729.593 120.302 729.154 Q118.01 728.737 115.556 727.88 L115.556 723.367 Q117.501 724.501 119.816 725.08 Q122.13 725.658 124.654 725.658 Q129.052 725.658 131.343 723.922 Q133.658 722.186 133.658 718.876 Q133.658 715.82 131.505 714.107 Q129.376 712.371 125.556 712.371 L121.529 712.371 L121.529 708.529 L125.742 708.529 Q129.191 708.529 131.019 707.163 Q132.848 705.774 132.848 703.182 Q132.848 700.52 130.95 699.108 Q129.075 697.672 125.556 697.672 Q123.635 697.672 121.436 698.089 Q119.237 698.506 116.598 699.385 L116.598 695.219 Q119.26 694.478 121.575 694.108 Q123.913 693.737 125.973 693.737 Q131.297 693.737 134.399 696.168 Q137.501 698.575 137.501 702.695 Q137.501 705.566 135.857 707.557 Q134.214 709.524 131.181 710.288 Z" fill="#000000" fill-rule="evenodd" fill-opacity="1" /><path clip-path="url(#clip890)" d="M157.177 697.441 Q153.566 697.441 151.737 701.006 Q149.931 704.547 149.931 711.677 Q149.931 718.783 151.737 722.348 Q153.566 725.89 157.177 725.89 Q160.811 725.89 162.616 722.348 Q164.445 718.783 164.445 711.677 Q164.445 704.547 162.616 701.006 Q160.811 697.441 157.177 697.441 M157.177 693.737 Q162.987 693.737 166.042 698.344 Q169.121 702.927 169.121 711.677 Q169.121 720.404 166.042 725.01 Q162.987 729.593 157.177 729.593 Q151.366 729.593 148.288 725.01 Q145.232 720.404 145.232 711.677 Q145.232 702.927 148.288 698.344 Q151.366 693.737 157.177 693.737 Z" fill="#000000" fill-rule="evenodd" fill-opacity="1" /><path clip-path="url(#clip890)" d="M187.338 697.441 Q183.727 697.441 181.899 701.006 Q180.093 704.547 180.093 711.677 Q180.093 718.783 181.899 722.348 Q183.727 725.89 187.338 725.89 Q190.973 725.89 192.778 722.348 Q194.607 718.783 194.607 711.677 Q194.607 704.547 192.778 701.006 Q190.973 697.441 187.338 697.441 M187.338 693.737 Q193.149 693.737 196.204 698.344 Q199.283 702.927 199.283 711.677 Q199.283 720.404 196.204 725.01 Q193.149 729.593 187.338 729.593 Q181.528 729.593 178.45 725.01 Q175.394 720.404 175.394 711.677 Q175.394 702.927 178.45 698.344 Q181.528 693.737 187.338 693.737 Z" fill="#000000" fill-rule="evenodd" fill-opacity="1" /><path clip-path="url(#clip890)" d="M129.862 473.476 L118.056 491.925 L129.862 491.925 L129.862 473.476 M128.635 469.402 L134.515 469.402 L134.515 491.925 L139.445 491.925 L139.445 495.814 L134.515 495.814 L134.515 503.962 L129.862 503.962 L129.862 495.814 L114.26 495.814 L114.26 491.3 L128.635 469.402 Z" fill="#000000" fill-rule="evenodd" fill-opacity="1" /><path clip-path="url(#clip890)" d="M157.177 472.48 Q153.566 472.48 151.737 476.045 Q149.931 479.587 149.931 486.716 Q149.931 493.823 151.737 497.388 Q153.566 500.929 157.177 500.929 Q160.811 500.929 162.616 497.388 Q164.445 493.823 164.445 486.716 Q164.445 479.587 162.616 476.045 Q160.811 472.48 157.177 472.48 M157.177 468.777 Q162.987 468.777 166.042 473.383 Q169.121 477.967 169.121 486.716 Q169.121 495.443 166.042 500.05 Q162.987 504.633 157.177 504.633 Q151.366 504.633 148.288 500.05 Q145.232 495.443 145.232 486.716 Q145.232 477.967 148.288 473.383 Q151.366 468.777 157.177 468.777 Z" fill="#000000" fill-rule="evenodd" fill-opacity="1" /><path clip-path="url(#clip890)" d="M187.338 472.48 Q183.727 472.48 181.899 476.045 Q180.093 479.587 180.093 486.716 Q180.093 493.823 181.899 497.388 Q183.727 500.929 187.338 500.929 Q190.973 500.929 192.778 497.388 Q194.607 493.823 194.607 486.716 Q194.607 479.587 192.778 476.045 Q190.973 472.48 187.338 472.48 M187.338 468.777 Q193.149 468.777 196.204 473.383 Q199.283 477.967 199.283 486.716 Q199.283 495.443 196.204 500.05 Q193.149 504.633 187.338 504.633 Q181.528 504.633 178.45 500.05 Q175.394 495.443 175.394 486.716 Q175.394 477.967 178.45 473.383 Q181.528 468.777 187.338 468.777 Z" fill="#000000" fill-rule="evenodd" fill-opacity="1" /><path clip-path="url(#clip890)" d="M117.061 244.441 L135.417 244.441 L135.417 248.377 L121.343 248.377 L121.343 256.849 Q122.362 256.501 123.38 256.339 Q124.399 256.154 125.418 256.154 Q131.205 256.154 134.584 259.326 Q137.964 262.497 137.964 267.913 Q137.964 273.492 134.492 276.594 Q131.019 279.673 124.7 279.673 Q122.524 279.673 120.255 279.302 Q118.01 278.932 115.603 278.191 L115.603 273.492 Q117.686 274.626 119.908 275.182 Q122.13 275.737 124.607 275.737 Q128.612 275.737 130.95 273.631 Q133.288 271.525 133.288 267.913 Q133.288 264.302 130.95 262.196 Q128.612 260.089 124.607 260.089 Q122.732 260.089 120.857 260.506 Q119.006 260.923 117.061 261.802 L117.061 244.441 Z" fill="#000000" fill-rule="evenodd" fill-opacity="1" /><path clip-path="url(#clip890)" d="M157.177 247.52 Q153.566 247.52 151.737 251.085 Q149.931 254.626 149.931 261.756 Q149.931 268.863 151.737 272.427 Q153.566 275.969 157.177 275.969 Q160.811 275.969 162.616 272.427 Q164.445 268.863 164.445 261.756 Q164.445 254.626 162.616 251.085 Q160.811 247.52 157.177 247.52 M157.177 243.816 Q162.987 243.816 166.042 248.423 Q169.121 253.006 169.121 261.756 Q169.121 270.483 166.042 275.089 Q162.987 279.673 157.177 279.673 Q151.366 279.673 148.288 275.089 Q145.232 270.483 145.232 261.756 Q145.232 253.006 148.288 248.423 Q151.366 243.816 157.177 243.816 Z" fill="#000000" fill-rule="evenodd" fill-opacity="1" /><path clip-path="url(#clip890)" d="M187.338 247.52 Q183.727 247.52 181.899 251.085 Q180.093 254.626 180.093 261.756 Q180.093 268.863 181.899 272.427 Q183.727 275.969 187.338 275.969 Q190.973 275.969 192.778 272.427 Q194.607 268.863 194.607 261.756 Q194.607 254.626 192.778 251.085 Q190.973 247.52 187.338 247.52 M187.338 243.816 Q193.149 243.816 196.204 248.423 Q199.283 253.006 199.283 261.756 Q199.283 270.483 196.204 275.089 Q193.149 279.673 187.338 279.673 Q181.528 279.673 178.45 275.089 Q175.394 270.483 175.394 261.756 Q175.394 253.006 178.45 248.423 Q181.528 243.816 187.338 243.816 Z" fill="#000000" fill-rule="evenodd" fill-opacity="1" /><path clip-path="url(#clip890)" d="M29.7248 797.562 L35.1993 797.562 Q33.8307 800.045 33.1623 802.559 Q32.4621 805.042 32.4621 807.588 Q32.4621 813.286 36.0905 816.437 Q39.6872 819.588 46.212 819.588 Q52.7369 819.588 56.3653 816.437 Q59.9619 813.286 59.9619 807.588 Q59.9619 805.042 59.2935 802.559 Q58.5933 800.045 57.2247 797.562 L62.6355 797.562 Q63.7814 800.013 64.3543 802.655 Q64.9272 805.265 64.9272 808.225 Q64.9272 816.277 59.8664 821.02 Q54.8057 825.762 46.212 825.762 Q37.491 825.762 32.4939 820.988 Q27.4968 816.182 27.4968 807.843 Q27.4968 805.137 28.0697 802.559 Q28.6108 799.981 29.7248 797.562 Z" fill="#000000" fill-rule="evenodd" fill-opacity="1" /><path clip-path="url(#clip890)" d="M32.4621 773.564 Q32.4621 778.274 36.1542 781.011 Q39.8145 783.749 46.212 783.749 Q52.6095 783.749 56.3017 781.043 Q59.9619 778.306 59.9619 773.564 Q59.9619 768.885 56.2698 766.147 Q52.5777 763.41 46.212 763.41 Q39.8781 763.41 36.186 766.147 Q32.4621 768.885 32.4621 773.564 M27.4968 773.564 Q27.4968 765.925 32.4621 761.564 Q37.4273 757.204 46.212 757.204 Q54.9649 757.204 59.9619 761.564 Q64.9272 765.925 64.9272 773.564 Q64.9272 781.234 59.9619 785.595 Q54.9649 789.923 46.212 789.923 Q37.4273 789.923 32.4621 785.595 Q27.4968 781.234 27.4968 773.564 Z" fill="#000000" fill-rule="evenodd" fill-opacity="1" /><path clip-path="url(#clip890)" d="M49.9359 748.101 L28.3562 748.101 L28.3562 742.244 L49.7131 742.244 Q54.7739 742.244 57.3202 740.271 Q59.8346 738.298 59.8346 734.351 Q59.8346 729.608 56.8109 726.871 Q53.7872 724.102 48.5673 724.102 L28.3562 724.102 L28.3562 718.246 L64.0042 718.246 L64.0042 724.102 L58.5296 724.102 Q61.7762 726.234 63.3676 729.067 Q64.9272 731.868 64.9272 735.592 Q64.9272 741.735 61.1078 744.918 Q57.2883 748.101 49.9359 748.101 M27.4968 733.364 L27.4968 733.364 Z" fill="#000000" fill-rule="evenodd" fill-opacity="1" /><path clip-path="url(#clip890)" d="M42.4881 676.55 L64.0042 676.55 L64.0042 682.407 L42.679 682.407 Q37.6183 682.407 35.1038 684.38 Q32.5894 686.353 32.5894 690.3 Q32.5894 695.043 35.6131 697.78 Q38.6368 700.517 43.8567 700.517 L64.0042 700.517 L64.0042 706.405 L28.3562 706.405 L28.3562 700.517 L33.8944 700.517 Q30.6797 698.416 29.0883 695.584 Q27.4968 692.719 27.4968 688.995 Q27.4968 682.852 31.3163 679.701 Q35.1038 676.55 42.4881 676.55 Z" fill="#000000" fill-rule="evenodd" fill-opacity="1" /><path clip-path="url(#clip890)" d="M18.2347 659.076 L28.3562 659.076 L28.3562 647.013 L32.9077 647.013 L32.9077 659.076 L52.2594 659.076 Q56.6199 659.076 57.8613 657.899 Q59.1026 656.689 59.1026 653.029 L59.1026 647.013 L64.0042 647.013 L64.0042 653.029 Q64.0042 659.808 61.4897 662.386 Q58.9434 664.965 52.2594 664.965 L32.9077 664.965 L32.9077 669.261 L28.3562 669.261 L28.3562 664.965 L18.2347 664.965 L18.2347 659.076 Z" fill="#000000" fill-rule="evenodd" fill-opacity="1" /><path clip-path="url(#clip892)" d="
M351.748 1379.77 L351.748 1386.52 L462.603 1386.52 L462.603 1379.77 L351.748 1379.77 L351.748 1379.77  Z
  " fill="#009fe3" fill-rule="evenodd" fill-opacity="0.996078"/>
<polyline clip-path="url(#clip892)" style="stroke:#009fe3; stroke-linecap:butt; stroke-linejoin:round; stroke-width:4; stroke-opacity:0.996078; fill:none" points="
  351.748,1379.77 351.748,1386.52 462.603,1386.52 462.603,1379.77 351.748,1379.77 
  "/>
<path clip-path="url(#clip892)" d="
M462.603 1361.78 L462.603 1386.52 L573.459 1386.52 L573.459 1361.78 L462.603 1361.78 L462.603 1361.78  Z
  " fill="#009fe3" fill-rule="evenodd" fill-opacity="0.996078"/>
<polyline clip-path="url(#clip892)" style="stroke:#009fe3; stroke-linecap:butt; stroke-linejoin:round; stroke-width:4; stroke-opacity:0.996078; fill:none" points="
  462.603,1361.78 462.603,1386.52 573.459,1386.52 573.459,1361.78 462.603,1361.78 
  "/>
<path clip-path="url(#clip892)" d="
M573.459 1334.78 L573.459 1386.52 L684.314 1386.52 L684.314 1334.78 L573.459 1334.78 L573.459 1334.78  Z
  " fill="#009fe3" fill-rule="evenodd" fill-opacity="0.996078"/>
<polyline clip-path="url(#clip892)" style="stroke:#009fe3; stroke-linecap:butt; stroke-linejoin:round; stroke-width:4; stroke-opacity:0.996078; fill:none" points="
  573.459,1334.78 573.459,1386.52 684.314,1386.52 684.314,1334.78 573.459,1334.78 
  "/>
<path clip-path="url(#clip892)" d="
M684.314 1262.8 L684.314 1386.52 L795.17 1386.52 L795.17 1262.8 L684.314 1262.8 L684.314 1262.8  Z
  " fill="#009fe3" fill-rule="evenodd" fill-opacity="0.996078"/>
<polyline clip-path="url(#clip892)" style="stroke:#009fe3; stroke-linecap:butt; stroke-linejoin:round; stroke-width:4; stroke-opacity:0.996078; fill:none" points="
  684.314,1262.8 684.314,1386.52 795.17,1386.52 795.17,1262.8 684.314,1262.8 
  "/>
<path clip-path="url(#clip892)" d="
M795.17 1190.81 L795.17 1386.52 L906.025 1386.52 L906.025 1190.81 L795.17 1190.81 L795.17 1190.81  Z
  " fill="#009fe3" fill-rule="evenodd" fill-opacity="0.996078"/>
<polyline clip-path="url(#clip892)" style="stroke:#009fe3; stroke-linecap:butt; stroke-linejoin:round; stroke-width:4; stroke-opacity:0.996078; fill:none" points="
  795.17,1190.81 795.17,1386.52 906.025,1386.52 906.025,1190.81 795.17,1190.81 
  "/>
<path clip-path="url(#clip892)" d="
M906.025 1130.07 L906.025 1386.52 L1016.88 1386.52 L1016.88 1130.07 L906.025 1130.07 L906.025 1130.07  Z
  " fill="#009fe3" fill-rule="evenodd" fill-opacity="0.996078"/>
<polyline clip-path="url(#clip892)" style="stroke:#009fe3; stroke-linecap:butt; stroke-linejoin:round; stroke-width:4; stroke-opacity:0.996078; fill:none" points="
  906.025,1130.07 906.025,1386.52 1016.88,1386.52 1016.88,1130.07 906.025,1130.07 
  "/>
<path clip-path="url(#clip892)" d="
M1016.88 977.095 L1016.88 1386.52 L1127.74 1386.52 L1127.74 977.095 L1016.88 977.095 L1016.88 977.095  Z
  " fill="#009fe3" fill-rule="evenodd" fill-opacity="0.996078"/>
<polyline clip-path="url(#clip892)" style="stroke:#009fe3; stroke-linecap:butt; stroke-linejoin:round; stroke-width:4; stroke-opacity:0.996078; fill:none" points="
  1016.88,977.095 1016.88,1386.52 1127.74,1386.52 1127.74,977.095 1016.88,977.095 
  "/>
<path clip-path="url(#clip892)" d="
M1127.74 873.614 L1127.74 1386.52 L1238.59 1386.52 L1238.59 873.614 L1127.74 873.614 L1127.74 873.614  Z
  " fill="#009fe3" fill-rule="evenodd" fill-opacity="0.996078"/>
<polyline clip-path="url(#clip892)" style="stroke:#009fe3; stroke-linecap:butt; stroke-linejoin:round; stroke-width:4; stroke-opacity:0.996078; fill:none" points="
  1127.74,873.614 1127.74,1386.52 1238.59,1386.52 1238.59,873.614 1127.74,873.614 
  "/>
<path clip-path="url(#clip892)" d="
M1238.59 594.663 L1238.59 1386.52 L1349.45 1386.52 L1349.45 594.663 L1238.59 594.663 L1238.59 594.663  Z
  " fill="#009fe3" fill-rule="evenodd" fill-opacity="0.996078"/>
<polyline clip-path="url(#clip892)" style="stroke:#009fe3; stroke-linecap:butt; stroke-linejoin:round; stroke-width:4; stroke-opacity:0.996078; fill:none" points="
  1238.59,594.663 1238.59,1386.52 1349.45,1386.52 1349.45,594.663 1238.59,594.663 
  "/>
<path clip-path="url(#clip892)" d="
M1349.45 416.944 L1349.45 1386.52 L1460.3 1386.52 L1460.3 416.944 L1349.45 416.944 L1349.45 416.944  Z
  " fill="#009fe3" fill-rule="evenodd" fill-opacity="0.996078"/>
<polyline clip-path="url(#clip892)" style="stroke:#009fe3; stroke-linecap:butt; stroke-linejoin:round; stroke-width:4; stroke-opacity:0.996078; fill:none" points="
  1349.45,416.944 1349.45,1386.52 1460.3,1386.52 1460.3,416.944 1349.45,416.944 
  "/>
<path clip-path="url(#clip892)" d="
M1460.3 182.985 L1460.3 1386.52 L1571.16 1386.52 L1571.16 182.985 L1460.3 182.985 L1460.3 182.985  Z
  " fill="#009fe3" fill-rule="evenodd" fill-opacity="0.996078"/>
<polyline clip-path="url(#clip892)" style="stroke:#009fe3; stroke-linecap:butt; stroke-linejoin:round; stroke-width:4; stroke-opacity:0.996078; fill:none" points="
  1460.3,182.985 1460.3,1386.52 1571.16,1386.52 1571.16,182.985 1460.3,182.985 
  "/>
<path clip-path="url(#clip892)" d="
M1571.16 144.742 L1571.16 1386.52 L1682.01 1386.52 L1682.01 144.742 L1571.16 144.742 L1571.16 144.742  Z
  " fill="#009fe3" fill-rule="evenodd" fill-opacity="0.996078"/>
<polyline clip-path="url(#clip892)" style="stroke:#009fe3; stroke-linecap:butt; stroke-linejoin:round; stroke-width:4; stroke-opacity:0.996078; fill:none" points="
  1571.16,144.742 1571.16,1386.52 1682.01,1386.52 1682.01,144.742 1571.16,144.742 
  "/>
<path clip-path="url(#clip892)" d="
M1682.01 86.2522 L1682.01 1386.52 L1792.87 1386.52 L1792.87 86.2522 L1682.01 86.2522 L1682.01 86.2522  Z
  " fill="#009fe3" fill-rule="evenodd" fill-opacity="0.996078"/>
<polyline clip-path="url(#clip892)" style="stroke:#009fe3; stroke-linecap:butt; stroke-linejoin:round; stroke-width:4; stroke-opacity:0.996078; fill:none" points="
  1682.01,86.2522 1682.01,1386.52 1792.87,1386.52 1792.87,86.2522 1682.01,86.2522 
  "/>
<path clip-path="url(#clip892)" d="
M1792.87 331.459 L1792.87 1386.52 L1903.72 1386.52 L1903.72 331.459 L1792.87 331.459 L1792.87 331.459  Z
  " fill="#009fe3" fill-rule="evenodd" fill-opacity="0.996078"/>
<polyline clip-path="url(#clip892)" style="stroke:#009fe3; stroke-linecap:butt; stroke-linejoin:round; stroke-width:4; stroke-opacity:0.996078; fill:none" points="
  1792.87,331.459 1792.87,1386.52 1903.72,1386.52 1903.72,331.459 1792.87,331.459 
  "/>
<path clip-path="url(#clip892)" d="
M1903.72 565.418 L1903.72 1386.52 L2014.58 1386.52 L2014.58 565.418 L1903.72 565.418 L1903.72 565.418  Z
  " fill="#009fe3" fill-rule="evenodd" fill-opacity="0.996078"/>
<polyline clip-path="url(#clip892)" style="stroke:#009fe3; stroke-linecap:butt; stroke-linejoin:round; stroke-width:4; stroke-opacity:0.996078; fill:none" points="
  1903.72,565.418 1903.72,1386.52 2014.58,1386.52 2014.58,565.418 1903.72,565.418 
  "/>
<path clip-path="url(#clip892)" d="
M2014.58 911.857 L2014.58 1386.52 L2125.44 1386.52 L2125.44 911.857 L2014.58 911.857 L2014.58 911.857  Z
  " fill="#009fe3" fill-rule="evenodd" fill-opacity="0.996078"/>
<polyline clip-path="url(#clip892)" style="stroke:#009fe3; stroke-linecap:butt; stroke-linejoin:round; stroke-width:4; stroke-opacity:0.996078; fill:none" points="
  2014.58,911.857 2014.58,1386.52 2125.44,1386.52 2125.44,911.857 2014.58,911.857 
  "/>
<path clip-path="url(#clip892)" d="
M2125.44 1271.79 L2125.44 1386.52 L2236.29 1386.52 L2236.29 1271.79 L2125.44 1271.79 L2125.44 1271.79  Z
  " fill="#009fe3" fill-rule="evenodd" fill-opacity="0.996078"/>
<polyline clip-path="url(#clip892)" style="stroke:#009fe3; stroke-linecap:butt; stroke-linejoin:round; stroke-width:4; stroke-opacity:0.996078; fill:none" points="
  2125.44,1271.79 2125.44,1386.52 2236.29,1386.52 2236.29,1271.79 2125.44,1271.79 
  "/>
<circle clip-path="url(#clip892)" style="fill:#009fe3; stroke:none; fill-opacity:0" cx="407.175" cy="1379.77" r="2"/>
<circle clip-path="url(#clip892)" style="fill:#009fe3; stroke:none; fill-opacity:0" cx="518.031" cy="1361.78" r="2"/>
<circle clip-path="url(#clip892)" style="fill:#009fe3; stroke:none; fill-opacity:0" cx="628.886" cy="1334.78" r="2"/>
<circle clip-path="url(#clip892)" style="fill:#009fe3; stroke:none; fill-opacity:0" cx="739.742" cy="1262.8" r="2"/>
<circle clip-path="url(#clip892)" style="fill:#009fe3; stroke:none; fill-opacity:0" cx="850.597" cy="1190.81" r="2"/>
<circle clip-path="url(#clip892)" style="fill:#009fe3; stroke:none; fill-opacity:0" cx="961.453" cy="1130.07" r="2"/>
<circle clip-path="url(#clip892)" style="fill:#009fe3; stroke:none; fill-opacity:0" cx="1072.31" cy="977.095" r="2"/>
<circle clip-path="url(#clip892)" style="fill:#009fe3; stroke:none; fill-opacity:0" cx="1183.16" cy="873.614" r="2"/>
<circle clip-path="url(#clip892)" style="fill:#009fe3; stroke:none; fill-opacity:0" cx="1294.02" cy="594.663" r="2"/>
<circle clip-path="url(#clip892)" style="fill:#009fe3; stroke:none; fill-opacity:0" cx="1404.87" cy="416.944" r="2"/>
<circle clip-path="url(#clip892)" style="fill:#009fe3; stroke:none; fill-opacity:0" cx="1515.73" cy="182.985" r="2"/>
<circle clip-path="url(#clip892)" style="fill:#009fe3; stroke:none; fill-opacity:0" cx="1626.59" cy="144.742" r="2"/>
<circle clip-path="url(#clip892)" style="fill:#009fe3; stroke:none; fill-opacity:0" cx="1737.44" cy="86.2522" r="2"/>
<circle clip-path="url(#clip892)" style="fill:#009fe3; stroke:none; fill-opacity:0" cx="1848.3" cy="331.459" r="2"/>
<circle clip-path="url(#clip892)" style="fill:#009fe3; stroke:none; fill-opacity:0" cx="1959.15" cy="565.418" r="2"/>
<circle clip-path="url(#clip892)" style="fill:#009fe3; stroke:none; fill-opacity:0" cx="2070.01" cy="911.857" r="2"/>
<circle clip-path="url(#clip892)" style="fill:#009fe3; stroke:none; fill-opacity:0" cx="2180.86" cy="1271.79" r="2"/>
</svg>
