<?xml version="1.0" encoding="utf-8"?>
<svg xmlns="http://www.w3.org/2000/svg" xmlns:xlink="http://www.w3.org/1999/xlink" width="600" height="400" viewBox="0 0 2400 1600">
<defs>
  <clipPath id="clip730">
    <rect x="0" y="0" width="2400" height="1600"/>
  </clipPath>
</defs>
<path clip-path="url(#clip730)" d="
M0 1600 L2400 1600 L2400 0 L0 0  Z
  " fill="#ffffff" fill-rule="evenodd" fill-opacity="1"/>
<defs>
  <clipPath id="clip731">
    <rect x="480" y="0" width="1681" height="1600"/>
  </clipPath>
</defs>
<path clip-path="url(#clip730)" d="
M249.542 1423.18 L2352.76 1423.18 L2352.76 47.2441 L249.542 47.2441  Z
  " fill="#ffffff" fill-rule="evenodd" fill-opacity="1"/>
<defs>
  <clipPath id="clip732">
    <rect x="249" y="47" width="2104" height="1377"/>
  </clipPath>
</defs>
<polyline clip-path="url(#clip732)" style="stroke:#000000; stroke-linecap:butt; stroke-linejoin:round; stroke-width:2; stroke-opacity:0.1; fill:none" points="
  365.223,1423.18 365.223,47.2441 
  "/>
<polyline clip-path="url(#clip732)" style="stroke:#000000; stroke-linecap:butt; stroke-linejoin:round; stroke-width:2; stroke-opacity:0.1; fill:none" points="
  950.177,1423.18 950.177,47.2441 
  "/>
<polyline clip-path="url(#clip732)" style="stroke:#000000; stroke-linecap:butt; stroke-linejoin:round; stroke-width:2; stroke-opacity:0.1; fill:none" points="
  1535.13,1423.18 1535.13,47.2441 
  "/>
<polyline clip-path="url(#clip732)" style="stroke:#000000; stroke-linecap:butt; stroke-linejoin:round; stroke-width:2; stroke-opacity:0.1; fill:none" points="
  2120.08,1423.18 2120.08,47.2441 
  "/>
<polyline clip-path="url(#clip730)" style="stroke:#000000; stroke-linecap:butt; stroke-linejoin:round; stroke-width:4; stroke-opacity:1; fill:none" points="
  249.542,1423.18 2352.76,1423.18 
  "/>
<polyline clip-path="url(#clip730)" style="stroke:#000000; stroke-linecap:butt; stroke-linejoin:round; stroke-width:4; stroke-opacity:1; fill:none" points="
  365.223,1423.18 365.223,1406.67 
  "/>
<polyline clip-path="url(#clip730)" style="stroke:#000000; stroke-linecap:butt; stroke-linejoin:round; stroke-width:4; stroke-opacity:1; fill:none" points="
  950.177,1423.18 950.177,1406.67 
  "/>
<polyline clip-path="url(#clip730)" style="stroke:#000000; stroke-linecap:butt; stroke-linejoin:round; stroke-width:4; stroke-opacity:1; fill:none" points="
  1535.13,1423.18 1535.13,1406.67 
  "/>
<polyline clip-path="url(#clip730)" style="stroke:#000000; stroke-linecap:butt; stroke-linejoin:round; stroke-width:4; stroke-opacity:1; fill:none" points="
  2120.08,1423.18 2120.08,1406.67 
  "/>
<path clip-path="url(#clip730)" d="M365.223 1452.37 Q361.611 1452.37 359.783 1455.94 Q357.977 1459.48 357.977 1466.61 Q357.977 1473.71 359.783 1477.28 Q361.611 1480.82 365.223 1480.82 Q368.857 1480.82 370.662 1477.28 Q372.491 1473.71 372.491 1466.61 Q372.491 1459.48 370.662 1455.94 Q368.857 1452.37 365.223 1452.37 M365.223 1448.67 Q371.033 1448.67 374.088 1453.27 Q377.167 1457.86 377.167 1466.61 Q377.167 1475.33 374.088 1479.94 Q371.033 1484.52 365.223 1484.52 Q359.412 1484.52 356.334 1479.94 Q353.278 1475.33 353.278 1466.61 Q353.278 1457.86 356.334 1453.27 Q359.412 1448.67 365.223 1448.67 Z" fill="#000000" fill-rule="evenodd" fill-opacity="1" /><path clip-path="url(#clip730)" d="M940.454 1449.29 L958.811 1449.29 L958.811 1453.23 L944.737 1453.23 L944.737 1461.7 Q945.755 1461.35 946.774 1461.19 Q947.792 1461 948.811 1461 Q954.598 1461 957.977 1464.18 Q961.357 1467.35 961.357 1472.76 Q961.357 1478.34 957.885 1481.44 Q954.413 1484.52 948.093 1484.52 Q945.917 1484.52 943.649 1484.15 Q941.403 1483.78 938.996 1483.04 L938.996 1478.34 Q941.079 1479.48 943.302 1480.03 Q945.524 1480.59 948.001 1480.59 Q952.005 1480.59 954.343 1478.48 Q956.681 1476.38 956.681 1472.76 Q956.681 1469.15 954.343 1467.05 Q952.005 1464.94 948.001 1464.94 Q946.126 1464.94 944.251 1465.36 Q942.399 1465.77 940.454 1466.65 L940.454 1449.29 Z" fill="#000000" fill-rule="evenodd" fill-opacity="1" /><path clip-path="url(#clip730)" d="M1509.82 1479.92 L1517.46 1479.92 L1517.46 1453.55 L1509.15 1455.22 L1509.15 1450.96 L1517.41 1449.29 L1522.09 1449.29 L1522.09 1479.92 L1529.73 1479.92 L1529.73 1483.85 L1509.82 1483.85 L1509.82 1479.92 Z" fill="#000000" fill-rule="evenodd" fill-opacity="1" /><path clip-path="url(#clip730)" d="M1549.17 1452.37 Q1545.56 1452.37 1543.73 1455.94 Q1541.92 1459.48 1541.92 1466.61 Q1541.92 1473.71 1543.73 1477.28 Q1545.56 1480.82 1549.17 1480.82 Q1552.8 1480.82 1554.61 1477.28 Q1556.44 1473.71 1556.44 1466.61 Q1556.44 1459.48 1554.61 1455.94 Q1552.8 1452.37 1549.17 1452.37 M1549.17 1448.67 Q1554.98 1448.67 1558.04 1453.27 Q1561.11 1457.86 1561.11 1466.61 Q1561.11 1475.33 1558.04 1479.94 Q1554.98 1484.52 1549.17 1484.52 Q1543.36 1484.52 1540.28 1479.94 Q1537.23 1475.33 1537.23 1466.61 Q1537.23 1457.86 1540.28 1453.27 Q1543.36 1448.67 1549.17 1448.67 Z" fill="#000000" fill-rule="evenodd" fill-opacity="1" /><path clip-path="url(#clip730)" d="M2095.27 1479.92 L2102.91 1479.92 L2102.91 1453.55 L2094.6 1455.22 L2094.6 1450.96 L2102.86 1449.29 L2107.54 1449.29 L2107.54 1479.92 L2115.18 1479.92 L2115.18 1483.85 L2095.27 1483.85 L2095.27 1479.92 Z" fill="#000000" fill-rule="evenodd" fill-opacity="1" /><path clip-path="url(#clip730)" d="M2124.67 1449.29 L2143.02 1449.29 L2143.02 1453.23 L2128.95 1453.23 L2128.95 1461.7 Q2129.97 1461.35 2130.99 1461.19 Q2132.01 1461 2133.02 1461 Q2138.81 1461 2142.19 1464.18 Q2145.57 1467.35 2145.57 1472.76 Q2145.57 1478.34 2142.1 1481.44 Q2138.63 1484.52 2132.31 1484.52 Q2130.13 1484.52 2127.86 1484.15 Q2125.62 1483.78 2123.21 1483.04 L2123.21 1478.34 Q2125.29 1479.48 2127.52 1480.03 Q2129.74 1480.59 2132.21 1480.59 Q2136.22 1480.59 2138.56 1478.48 Q2140.89 1476.38 2140.89 1472.76 Q2140.89 1469.15 2138.56 1467.05 Q2136.22 1464.94 2132.21 1464.94 Q2130.34 1464.94 2128.46 1465.36 Q2126.61 1465.77 2124.67 1466.65 L2124.67 1449.29 Z" fill="#000000" fill-rule="evenodd" fill-opacity="1" /><path clip-path="url(#clip730)" d="M1291.09 1562.7 L1291.09 1581.6 L1285.2 1581.6 L1285.2 1532.4 L1291.09 1532.4 L1291.09 1537.81 Q1292.94 1534.62 1295.74 1533.1 Q1298.57 1531.54 1302.49 1531.54 Q1308.98 1531.54 1313.02 1536.69 Q1317.1 1541.85 1317.1 1550.25 Q1317.1 1558.65 1313.02 1563.81 Q1308.98 1568.97 1302.49 1568.97 Q1298.57 1568.97 1295.74 1567.44 Q1292.94 1565.88 1291.09 1562.7 M1311.02 1550.25 Q1311.02 1543.79 1308.34 1540.13 Q1305.7 1536.44 1301.05 1536.44 Q1296.41 1536.44 1293.73 1540.13 Q1291.09 1543.79 1291.09 1550.25 Q1291.09 1556.71 1293.73 1560.4 Q1296.41 1564.07 1301.05 1564.07 Q1305.7 1564.07 1308.34 1560.4 Q1311.02 1556.71 1311.02 1550.25 Z" fill="#000000" fill-rule="evenodd" fill-opacity="1" /><polyline clip-path="url(#clip732)" style="stroke:#000000; stroke-linecap:butt; stroke-linejoin:round; stroke-width:2; stroke-opacity:0.1; fill:none" points="
  249.542,1384.24 2352.76,1384.24 
  "/>
<polyline clip-path="url(#clip732)" style="stroke:#000000; stroke-linecap:butt; stroke-linejoin:round; stroke-width:2; stroke-opacity:0.1; fill:none" points="
  249.542,1042.12 2352.76,1042.12 
  "/>
<polyline clip-path="url(#clip732)" style="stroke:#000000; stroke-linecap:butt; stroke-linejoin:round; stroke-width:2; stroke-opacity:0.1; fill:none" points="
  249.542,700.006 2352.76,700.006 
  "/>
<polyline clip-path="url(#clip732)" style="stroke:#000000; stroke-linecap:butt; stroke-linejoin:round; stroke-width:2; stroke-opacity:0.1; fill:none" points="
  249.542,357.89 2352.76,357.89 
  "/>
<polyline clip-path="url(#clip730)" style="stroke:#000000; stroke-linecap:butt; stroke-linejoin:round; stroke-width:4; stroke-opacity:1; fill:none" points="
  249.542,1423.18 249.542,47.2441 
  "/>
<polyline clip-path="url(#clip730)" style="stroke:#000000; stroke-linecap:butt; stroke-linejoin:round; stroke-width:4; stroke-opacity:1; fill:none" points="
  249.542,1384.24 274.781,1384.24 
  "/>
<polyline clip-path="url(#clip730)" style="stroke:#000000; stroke-linecap:butt; stroke-linejoin:round; stroke-width:4; stroke-opacity:1; fill:none" points="
  249.542,1042.12 274.781,1042.12 
  "/>
<polyline clip-path="url(#clip730)" style="stroke:#000000; stroke-linecap:butt; stroke-linejoin:round; stroke-width:4; stroke-opacity:1; fill:none" points="
  249.542,700.006 274.781,700.006 
  "/>
<polyline clip-path="url(#clip730)" style="stroke:#000000; stroke-linecap:butt; stroke-linejoin:round; stroke-width:4; stroke-opacity:1; fill:none" points="
  249.542,357.89 274.781,357.89 
  "/>
<path clip-path="url(#clip730)" d="M126.205 1370.04 Q122.593 1370.04 120.765 1373.6 Q118.959 1377.14 118.959 1384.27 Q118.959 1391.38 120.765 1394.94 Q122.593 1398.49 126.205 1398.49 Q129.839 1398.49 131.644 1394.94 Q133.473 1391.38 133.473 1384.27 Q133.473 1377.14 131.644 1373.6 Q129.839 1370.04 126.205 1370.04 M126.205 1366.33 Q132.015 1366.33 135.07 1370.94 Q138.149 1375.52 138.149 1384.27 Q138.149 1393 135.07 1397.61 Q132.015 1402.19 126.205 1402.19 Q120.394 1402.19 117.316 1397.61 Q114.26 1393 114.26 1384.27 Q114.26 1375.52 117.316 1370.94 Q120.394 1366.33 126.205 1366.33 Z" fill="#000000" fill-rule="evenodd" fill-opacity="1" /><path clip-path="url(#clip730)" d="M146.366 1395.64 L151.251 1395.64 L151.251 1401.52 L146.366 1401.52 L146.366 1395.64 Z" fill="#000000" fill-rule="evenodd" fill-opacity="1" /><path clip-path="url(#clip730)" d="M171.436 1370.04 Q167.825 1370.04 165.996 1373.6 Q164.19 1377.14 164.19 1384.27 Q164.19 1391.38 165.996 1394.94 Q167.825 1398.49 171.436 1398.49 Q175.07 1398.49 176.876 1394.94 Q178.704 1391.38 178.704 1384.27 Q178.704 1377.14 176.876 1373.6 Q175.07 1370.04 171.436 1370.04 M171.436 1366.33 Q177.246 1366.33 180.301 1370.94 Q183.38 1375.52 183.38 1384.27 Q183.38 1393 180.301 1397.61 Q177.246 1402.19 171.436 1402.19 Q165.626 1402.19 162.547 1397.61 Q159.491 1393 159.491 1384.27 Q159.491 1375.52 162.547 1370.94 Q165.626 1366.33 171.436 1366.33 Z" fill="#000000" fill-rule="evenodd" fill-opacity="1" /><path clip-path="url(#clip730)" d="M201.598 1370.04 Q197.987 1370.04 196.158 1373.6 Q194.352 1377.14 194.352 1384.27 Q194.352 1391.38 196.158 1394.94 Q197.987 1398.49 201.598 1398.49 Q205.232 1398.49 207.037 1394.94 Q208.866 1391.38 208.866 1384.27 Q208.866 1377.14 207.037 1373.6 Q205.232 1370.04 201.598 1370.04 M201.598 1366.33 Q207.408 1366.33 210.463 1370.94 Q213.542 1375.52 213.542 1384.27 Q213.542 1393 210.463 1397.61 Q207.408 1402.19 201.598 1402.19 Q195.787 1402.19 192.709 1397.61 Q189.653 1393 189.653 1384.27 Q189.653 1375.52 192.709 1370.94 Q195.787 1366.33 201.598 1366.33 Z" fill="#000000" fill-rule="evenodd" fill-opacity="1" /><path clip-path="url(#clip730)" d="M127.2 1027.92 Q123.589 1027.92 121.76 1031.49 Q119.955 1035.03 119.955 1042.16 Q119.955 1049.26 121.76 1052.83 Q123.589 1056.37 127.2 1056.37 Q130.834 1056.37 132.64 1052.83 Q134.468 1049.26 134.468 1042.16 Q134.468 1035.03 132.64 1031.49 Q130.834 1027.92 127.2 1027.92 M127.2 1024.22 Q133.01 1024.22 136.066 1028.82 Q139.144 1033.41 139.144 1042.16 Q139.144 1050.88 136.066 1055.49 Q133.01 1060.07 127.2 1060.07 Q121.39 1060.07 118.311 1055.49 Q115.256 1050.88 115.256 1042.16 Q115.256 1033.41 118.311 1028.82 Q121.39 1024.22 127.2 1024.22 Z" fill="#000000" fill-rule="evenodd" fill-opacity="1" /><path clip-path="url(#clip730)" d="M147.362 1053.52 L152.246 1053.52 L152.246 1059.4 L147.362 1059.4 L147.362 1053.52 Z" fill="#000000" fill-rule="evenodd" fill-opacity="1" /><path clip-path="url(#clip730)" d="M172.431 1027.92 Q168.82 1027.92 166.991 1031.49 Q165.186 1035.03 165.186 1042.16 Q165.186 1049.26 166.991 1052.83 Q168.82 1056.37 172.431 1056.37 Q176.065 1056.37 177.871 1052.83 Q179.7 1049.26 179.7 1042.16 Q179.7 1035.03 177.871 1031.49 Q176.065 1027.92 172.431 1027.92 M172.431 1024.22 Q178.241 1024.22 181.297 1028.82 Q184.376 1033.41 184.376 1042.16 Q184.376 1050.88 181.297 1055.49 Q178.241 1060.07 172.431 1060.07 Q166.621 1060.07 163.542 1055.49 Q160.487 1050.88 160.487 1042.16 Q160.487 1033.41 163.542 1028.82 Q166.621 1024.22 172.431 1024.22 Z" fill="#000000" fill-rule="evenodd" fill-opacity="1" /><path clip-path="url(#clip730)" d="M192.639 1024.84 L210.996 1024.84 L210.996 1028.78 L196.922 1028.78 L196.922 1037.25 Q197.94 1036.9 198.959 1036.74 Q199.977 1036.56 200.996 1036.56 Q206.783 1036.56 210.162 1039.73 Q213.542 1042.9 213.542 1048.31 Q213.542 1053.89 210.07 1056.99 Q206.598 1060.07 200.278 1060.07 Q198.102 1060.07 195.834 1059.7 Q193.588 1059.33 191.181 1058.59 L191.181 1053.89 Q193.264 1055.03 195.487 1055.58 Q197.709 1056.14 200.186 1056.14 Q204.19 1056.14 206.528 1054.03 Q208.866 1051.93 208.866 1048.31 Q208.866 1044.7 206.528 1042.6 Q204.19 1040.49 200.186 1040.49 Q198.311 1040.49 196.436 1040.91 Q194.584 1041.32 192.639 1042.2 L192.639 1024.84 Z" fill="#000000" fill-rule="evenodd" fill-opacity="1" /><path clip-path="url(#clip730)" d="M126.205 685.805 Q122.593 685.805 120.765 689.37 Q118.959 692.911 118.959 700.041 Q118.959 707.147 120.765 710.712 Q122.593 714.254 126.205 714.254 Q129.839 714.254 131.644 710.712 Q133.473 707.147 133.473 700.041 Q133.473 692.911 131.644 689.37 Q129.839 685.805 126.205 685.805 M126.205 682.101 Q132.015 682.101 135.07 686.708 Q138.149 691.291 138.149 700.041 Q138.149 708.768 135.07 713.374 Q132.015 717.957 126.205 717.957 Q120.394 717.957 117.316 713.374 Q114.26 708.768 114.26 700.041 Q114.26 691.291 117.316 686.708 Q120.394 682.101 126.205 682.101 Z" fill="#000000" fill-rule="evenodd" fill-opacity="1" /><path clip-path="url(#clip730)" d="M146.366 711.407 L151.251 711.407 L151.251 717.286 L146.366 717.286 L146.366 711.407 Z" fill="#000000" fill-rule="evenodd" fill-opacity="1" /><path clip-path="url(#clip730)" d="M162.246 713.351 L169.885 713.351 L169.885 686.985 L161.575 688.652 L161.575 684.393 L169.839 682.726 L174.514 682.726 L174.514 713.351 L182.153 713.351 L182.153 717.286 L162.246 717.286 L162.246 713.351 Z" fill="#000000" fill-rule="evenodd" fill-opacity="1" /><path clip-path="url(#clip730)" d="M201.598 685.805 Q197.987 685.805 196.158 689.37 Q194.352 692.911 194.352 700.041 Q194.352 707.147 196.158 710.712 Q197.987 714.254 201.598 714.254 Q205.232 714.254 207.037 710.712 Q208.866 707.147 208.866 700.041 Q208.866 692.911 207.037 689.37 Q205.232 685.805 201.598 685.805 M201.598 682.101 Q207.408 682.101 210.463 686.708 Q213.542 691.291 213.542 700.041 Q213.542 708.768 210.463 713.374 Q207.408 717.957 201.598 717.957 Q195.787 717.957 192.709 713.374 Q189.653 708.768 189.653 700.041 Q189.653 691.291 192.709 686.708 Q195.787 682.101 201.598 682.101 Z" fill="#000000" fill-rule="evenodd" fill-opacity="1" /><path clip-path="url(#clip730)" d="M127.2 343.689 Q123.589 343.689 121.76 347.254 Q119.955 350.795 119.955 357.925 Q119.955 365.031 121.76 368.596 Q123.589 372.138 127.2 372.138 Q130.834 372.138 132.64 368.596 Q134.468 365.031 134.468 357.925 Q134.468 350.795 132.64 347.254 Q130.834 343.689 127.2 343.689 M127.2 339.985 Q133.01 339.985 136.066 344.592 Q139.144 349.175 139.144 357.925 Q139.144 366.652 136.066 371.258 Q133.01 375.841 127.2 375.841 Q121.39 375.841 118.311 371.258 Q115.256 366.652 115.256 357.925 Q115.256 349.175 118.311 344.592 Q121.39 339.985 127.2 339.985 Z" fill="#000000" fill-rule="evenodd" fill-opacity="1" /><path clip-path="url(#clip730)" d="M147.362 369.29 L152.246 369.29 L152.246 375.17 L147.362 375.17 L147.362 369.29 Z" fill="#000000" fill-rule="evenodd" fill-opacity="1" /><path clip-path="url(#clip730)" d="M163.241 371.235 L170.88 371.235 L170.88 344.869 L162.57 346.536 L162.57 342.277 L170.834 340.61 L175.51 340.61 L175.51 371.235 L183.149 371.235 L183.149 375.17 L163.241 375.17 L163.241 371.235 Z" fill="#000000" fill-rule="evenodd" fill-opacity="1" /><path clip-path="url(#clip730)" d="M192.639 340.61 L210.996 340.61 L210.996 344.545 L196.922 344.545 L196.922 353.017 Q197.94 352.67 198.959 352.508 Q199.977 352.323 200.996 352.323 Q206.783 352.323 210.162 355.494 Q213.542 358.666 213.542 364.082 Q213.542 369.661 210.07 372.763 Q206.598 375.841 200.278 375.841 Q198.102 375.841 195.834 375.471 Q193.588 375.101 191.181 374.36 L191.181 369.661 Q193.264 370.795 195.487 371.351 Q197.709 371.906 200.186 371.906 Q204.19 371.906 206.528 369.8 Q208.866 367.693 208.866 364.082 Q208.866 360.471 206.528 358.365 Q204.19 356.258 200.186 356.258 Q198.311 356.258 196.436 356.675 Q194.584 357.091 192.639 357.971 L192.639 340.61 Z" fill="#000000" fill-rule="evenodd" fill-opacity="1" /><path clip-path="url(#clip730)" d="M21.7677 788.557 L39.6235 788.557 L39.6235 780.472 Q39.6235 775.984 37.3 773.534 Q34.9765 771.083 30.6797 771.083 Q26.4147 771.083 24.0912 773.534 Q21.7677 775.984 21.7677 780.472 L21.7677 788.557 M16.4842 794.986 L16.4842 780.472 Q16.4842 772.483 20.1126 768.409 Q23.7092 764.303 30.6797 764.303 Q37.7138 764.303 41.3104 768.409 Q44.907 772.483 44.907 780.472 L44.907 788.557 L64.0042 788.557 L64.0042 794.986 L16.4842 794.986 Z" fill="#000000" fill-rule="evenodd" fill-opacity="1" /><path clip-path="url(#clip730)" d="M14.5426 741.864 Q21.8632 746.129 29.0246 748.198 Q36.186 750.267 43.5384 750.267 Q50.8908 750.267 58.1159 748.198 Q65.3091 746.097 72.5979 741.864 L72.5979 746.957 Q65.1182 751.731 57.8931 754.118 Q50.668 756.473 43.5384 756.473 Q36.4406 756.473 29.2474 754.118 Q22.0542 751.763 14.5426 746.957 L14.5426 741.864 Z" fill="#000000" fill-rule="evenodd" fill-opacity="1" /><path clip-path="url(#clip730)" d="M58.657 724.836 L77.5631 724.836 L77.5631 730.724 L28.3562 730.724 L28.3562 724.836 L33.7671 724.836 Q30.5842 722.99 29.0564 720.189 Q27.4968 717.356 27.4968 713.441 Q27.4968 706.948 32.6531 702.906 Q37.8093 698.832 46.212 698.832 Q54.6147 698.832 59.771 702.906 Q64.9272 706.948 64.9272 713.441 Q64.9272 717.356 63.3994 720.189 Q61.8398 722.99 58.657 724.836 M46.212 704.911 Q39.7508 704.911 36.0905 707.585 Q32.3984 710.227 32.3984 714.874 Q32.3984 719.521 36.0905 722.194 Q39.7508 724.836 46.212 724.836 Q52.6732 724.836 56.3653 722.194 Q60.0256 719.521 60.0256 714.874 Q60.0256 710.227 56.3653 707.585 Q52.6732 704.911 46.212 704.911 Z" fill="#000000" fill-rule="evenodd" fill-opacity="1" /><path clip-path="url(#clip730)" d="M14.5426 690.047 L14.5426 684.955 Q22.0542 680.18 29.2474 677.825 Q36.4406 675.438 43.5384 675.438 Q50.668 675.438 57.8931 677.825 Q65.1182 680.18 72.5979 684.955 L72.5979 690.047 Q65.3091 685.814 58.1159 683.745 Q50.8908 681.645 43.5384 681.645 Q36.186 681.645 29.0246 683.745 Q21.8632 685.814 14.5426 690.047 Z" fill="#000000" fill-rule="evenodd" fill-opacity="1" /><path clip-path="url(#clip732)" d="
M365.223 1200.86 L365.223 1384.24 L482.213 1384.24 L482.213 1200.86 L365.223 1200.86 L365.223 1200.86  Z
  " fill="#009af9" fill-rule="evenodd" fill-opacity="1"/>
<polyline clip-path="url(#clip732)" style="stroke:#000000; stroke-linecap:butt; stroke-linejoin:round; stroke-width:4; stroke-opacity:1; fill:none" points="
  365.223,1200.86 365.223,1384.24 482.213,1384.24 482.213,1200.86 365.223,1200.86 
  "/>
<path clip-path="url(#clip732)" d="
M482.213 786.219 L482.213 1384.24 L599.204 1384.24 L599.204 786.219 L482.213 786.219 L482.213 786.219  Z
  " fill="#009af9" fill-rule="evenodd" fill-opacity="1"/>
<polyline clip-path="url(#clip732)" style="stroke:#000000; stroke-linecap:butt; stroke-linejoin:round; stroke-width:4; stroke-opacity:1; fill:none" points="
  482.213,786.219 482.213,1384.24 599.204,1384.24 599.204,786.219 482.213,786.219 
  "/>
<path clip-path="url(#clip732)" d="
M599.204 285.361 L599.204 1384.24 L716.195 1384.24 L716.195 285.361 L599.204 285.361 L599.204 285.361  Z
  " fill="#009af9" fill-rule="evenodd" fill-opacity="1"/>
<polyline clip-path="url(#clip732)" style="stroke:#000000; stroke-linecap:butt; stroke-linejoin:round; stroke-width:4; stroke-opacity:1; fill:none" points="
  599.204,285.361 599.204,1384.24 716.195,1384.24 716.195,285.361 599.204,285.361 
  "/>
<path clip-path="url(#clip732)" d="
M716.195 142.357 L716.195 1384.24 L833.186 1384.24 L833.186 142.357 L716.195 142.357 L716.195 142.357  Z
  " fill="#009af9" fill-rule="evenodd" fill-opacity="1"/>
<polyline clip-path="url(#clip732)" style="stroke:#000000; stroke-linecap:butt; stroke-linejoin:round; stroke-width:4; stroke-opacity:1; fill:none" points="
  716.195,142.357 716.195,1384.24 833.186,1384.24 833.186,142.357 716.195,142.357 
  "/>
<path clip-path="url(#clip732)" d="
M833.186 153.305 L833.186 1384.24 L950.177 1384.24 L950.177 153.305 L833.186 153.305 L833.186 153.305  Z
  " fill="#009af9" fill-rule="evenodd" fill-opacity="1"/>
<polyline clip-path="url(#clip732)" style="stroke:#000000; stroke-linecap:butt; stroke-linejoin:round; stroke-width:4; stroke-opacity:1; fill:none" points="
  833.186,153.305 833.186,1384.24 950.177,1384.24 950.177,153.305 833.186,153.305 
  "/>
<path clip-path="url(#clip732)" d="
M950.177 407.155 L950.177 1384.24 L1067.17 1384.24 L1067.17 407.155 L950.177 407.155 L950.177 407.155  Z
  " fill="#009af9" fill-rule="evenodd" fill-opacity="1"/>
<polyline clip-path="url(#clip732)" style="stroke:#000000; stroke-linecap:butt; stroke-linejoin:round; stroke-width:4; stroke-opacity:1; fill:none" points="
  950.177,407.155 950.177,1384.24 1067.17,1384.24 1067.17,407.155 950.177,407.155 
  "/>
<path clip-path="url(#clip732)" d="
M1067.17 739.007 L1067.17 1384.24 L1184.16 1384.24 L1184.16 739.007 L1067.17 739.007 L1067.17 739.007  Z
  " fill="#009af9" fill-rule="evenodd" fill-opacity="1"/>
<polyline clip-path="url(#clip732)" style="stroke:#000000; stroke-linecap:butt; stroke-linejoin:round; stroke-width:4; stroke-opacity:1; fill:none" points="
  1067.17,739.007 1067.17,1384.24 1184.16,1384.24 1184.16,739.007 1067.17,739.007 
  "/>
<path clip-path="url(#clip732)" d="
M1184.16 959.33 L1184.16 1384.24 L1301.15 1384.24 L1301.15 959.33 L1184.16 959.33 L1184.16 959.33  Z
  " fill="#009af9" fill-rule="evenodd" fill-opacity="1"/>
<polyline clip-path="url(#clip732)" style="stroke:#000000; stroke-linecap:butt; stroke-linejoin:round; stroke-width:4; stroke-opacity:1; fill:none" points="
  1184.16,959.33 1184.16,1384.24 1301.15,1384.24 1301.15,959.33 1184.16,959.33 
  "/>
<path clip-path="url(#clip732)" d="
M1301.15 1153.65 L1301.15 1384.24 L1418.14 1384.24 L1418.14 1153.65 L1301.15 1153.65 L1301.15 1153.65  Z
  " fill="#009af9" fill-rule="evenodd" fill-opacity="1"/>
<polyline clip-path="url(#clip732)" style="stroke:#000000; stroke-linecap:butt; stroke-linejoin:round; stroke-width:4; stroke-opacity:1; fill:none" points="
  1301.15,1153.65 1301.15,1384.24 1418.14,1384.24 1418.14,1153.65 1301.15,1153.65 
  "/>
<path clip-path="url(#clip732)" d="
M1418.14 1265.87 L1418.14 1384.24 L1535.13 1384.24 L1535.13 1265.87 L1418.14 1265.87 L1418.14 1265.87  Z
  " fill="#009af9" fill-rule="evenodd" fill-opacity="1"/>
<polyline clip-path="url(#clip732)" style="stroke:#000000; stroke-linecap:butt; stroke-linejoin:round; stroke-width:4; stroke-opacity:1; fill:none" points="
  1418.14,1265.87 1418.14,1384.24 1535.13,1384.24 1535.13,1265.87 1418.14,1265.87 
  "/>
<path clip-path="url(#clip732)" d="
M1535.13 1329.5 L1535.13 1384.24 L1652.12 1384.24 L1652.12 1329.5 L1535.13 1329.5 L1535.13 1329.5  Z
  " fill="#009af9" fill-rule="evenodd" fill-opacity="1"/>
<polyline clip-path="url(#clip732)" style="stroke:#000000; stroke-linecap:butt; stroke-linejoin:round; stroke-width:4; stroke-opacity:1; fill:none" points="
  1535.13,1329.5 1535.13,1384.24 1652.12,1384.24 1652.12,1329.5 1535.13,1329.5 
  "/>
<path clip-path="url(#clip732)" d="
M1652.12 1359.61 L1652.12 1384.24 L1769.11 1384.24 L1769.11 1359.61 L1652.12 1359.61 L1652.12 1359.61  Z
  " fill="#009af9" fill-rule="evenodd" fill-opacity="1"/>
<polyline clip-path="url(#clip732)" style="stroke:#000000; stroke-linecap:butt; stroke-linejoin:round; stroke-width:4; stroke-opacity:1; fill:none" points="
  1652.12,1359.61 1652.12,1384.24 1769.11,1384.24 1769.11,1359.61 1652.12,1359.61 
  "/>
<path clip-path="url(#clip732)" d="
M1769.11 1375.34 L1769.11 1384.24 L1886.1 1384.24 L1886.1 1375.34 L1769.11 1375.34 L1769.11 1375.34  Z
  " fill="#009af9" fill-rule="evenodd" fill-opacity="1"/>
<polyline clip-path="url(#clip732)" style="stroke:#000000; stroke-linecap:butt; stroke-linejoin:round; stroke-width:4; stroke-opacity:1; fill:none" points="
  1769.11,1375.34 1769.11,1384.24 1886.1,1384.24 1886.1,1375.34 1769.11,1375.34 
  "/>
<path clip-path="url(#clip732)" d="
M1886.1 1381.5 L1886.1 1384.24 L2003.09 1384.24 L2003.09 1381.5 L1886.1 1381.5 L1886.1 1381.5  Z
  " fill="#009af9" fill-rule="evenodd" fill-opacity="1"/>
<polyline clip-path="url(#clip732)" style="stroke:#000000; stroke-linecap:butt; stroke-linejoin:round; stroke-width:4; stroke-opacity:1; fill:none" points="
  1886.1,1381.5 1886.1,1384.24 2003.09,1384.24 2003.09,1381.5 1886.1,1381.5 
  "/>
<path clip-path="url(#clip732)" d="
M2003.09 1383.55 L2003.09 1384.24 L2120.08 1384.24 L2120.08 1383.55 L2003.09 1383.55 L2003.09 1383.55  Z
  " fill="#009af9" fill-rule="evenodd" fill-opacity="1"/>
<polyline clip-path="url(#clip732)" style="stroke:#000000; stroke-linecap:butt; stroke-linejoin:round; stroke-width:4; stroke-opacity:1; fill:none" points="
  2003.09,1383.55 2003.09,1384.24 2120.08,1384.24 2120.08,1383.55 2003.09,1383.55 
  "/>
<path clip-path="url(#clip732)" d="
M2120.08 1382.87 L2120.08 1384.24 L2237.08 1384.24 L2237.08 1382.87 L2120.08 1382.87 L2120.08 1382.87  Z
  " fill="#009af9" fill-rule="evenodd" fill-opacity="1"/>
<polyline clip-path="url(#clip732)" style="stroke:#000000; stroke-linecap:butt; stroke-linejoin:round; stroke-width:4; stroke-opacity:1; fill:none" points="
  2120.08,1382.87 2120.08,1384.24 2237.08,1384.24 2237.08,1382.87 2120.08,1382.87 
  "/>
<polyline clip-path="url(#clip732)" style="stroke:#e26f46; stroke-linecap:butt; stroke-linejoin:round; stroke-width:12; stroke-opacity:1; fill:none" points="
  365.223,1156.67 376.922,1136.57 388.621,1115.27 400.32,1092.77 412.019,1069.06 423.718,1044.14 435.417,1018.05 447.116,990.796 458.815,962.418 470.514,932.963 
  482.213,902.483 493.912,871.046 505.612,838.728 517.311,805.616 529.01,771.808 540.709,737.412 552.408,702.546 564.107,667.339 575.806,631.927 587.505,596.456 
  599.204,561.079 610.903,525.954 622.602,491.246 634.301,457.123 646,423.756 657.7,391.319 669.399,359.983 681.098,329.92 692.797,301.298 704.496,274.279 
  716.195,249.022 727.894,225.675 739.593,204.38 751.292,185.265 762.991,168.448 774.69,154.034 786.389,142.114 798.089,132.763 809.788,126.041 821.487,121.99 
  833.186,120.637 844.885,121.99 856.584,126.041 868.283,132.763 879.982,142.114 891.681,154.034 903.38,168.448 915.079,185.265 926.778,204.38 938.477,225.675 
  950.177,249.022 961.876,274.279 973.575,301.298 985.274,329.92 996.973,359.983 1008.67,391.319 1020.37,423.756 1032.07,457.123 1043.77,491.246 1055.47,525.954 
  1067.17,561.079 1078.87,596.456 1090.57,631.927 1102.26,667.339 1113.96,702.546 1125.66,737.412 1137.36,771.808 1149.06,805.616 1160.76,838.728 1172.46,871.046 
  1184.16,902.483 1195.86,932.963 1207.56,962.418 1219.26,990.796 1230.95,1018.05 1242.65,1044.14 1254.35,1069.06 1266.05,1092.77 1277.75,1115.27 1289.45,1136.57 
  1301.15,1156.67 1312.85,1175.59 1324.55,1193.34 1336.25,1209.96 1347.95,1225.47 1359.64,1239.91 1371.34,1253.32 1383.04,1265.74 1394.74,1277.2 1406.44,1287.77 
  1418.14,1297.48 1429.84,1306.38 1441.54,1314.51 1453.24,1321.93 1464.94,1328.68 1476.64,1334.8 1488.33,1340.35 1500.03,1345.35 1511.73,1349.86 1523.43,1353.91 
  1535.13,1357.54 1546.83,1360.79 1558.53,1363.68 1570.23,1366.26 1581.93,1368.55 1593.63,1370.57 1605.33,1372.36 1617.02,1373.94 1628.72,1375.33 1640.42,1376.54 
  1652.12,1377.61 1663.82,1378.54 1675.52,1379.35 1687.22,1380.05 1698.92,1380.66 1710.62,1381.19 1722.32,1381.64 1734.01,1382.04 1745.71,1382.37 1757.41,1382.66 
  1769.11,1382.91 1780.81,1383.12 1792.51,1383.3 1804.21,1383.45 1815.91,1383.58 1827.61,1383.69 1839.31,1383.78 1851.01,1383.86 1862.7,1383.92 1874.4,1383.98 
  1886.1,1384.02 1897.8,1384.06 1909.5,1384.09 1921.2,1384.12 1932.9,1384.14 1944.6,1384.16 1956.3,1384.17 1968,1384.19 1979.7,1384.2 1991.39,1384.2 
  2003.09,1384.21 2014.79,1384.22 2026.49,1384.22 2038.19,1384.22 2049.89,1384.23 2061.59,1384.23 2073.29,1384.23 2084.99,1384.23 2096.69,1384.23 2108.39,1384.23 
  2120.08,1384.24 
  "/>
<polyline clip-path="url(#clip732)" style="stroke:#3da44d; stroke-linecap:butt; stroke-linejoin:round; stroke-width:12; stroke-opacity:1; fill:none" points="
  365.223,1215.01 376.922,1183.41 388.621,1149.21 400.32,1112.54 412.019,1073.57 423.718,1032.49 435.417,989.528 447.116,944.925 458.815,898.949 470.514,851.881 
  482.213,804.017 493.912,755.661 505.612,707.122 517.311,658.711 529.01,610.734 540.709,563.495 552.408,517.286 564.107,472.387 575.806,429.065 587.505,387.569 
  599.204,348.129 610.903,310.953 622.602,276.23 634.301,244.124 646,214.774 657.7,188.299 669.399,164.789 681.098,144.314 692.797,126.919 704.496,112.626 
  716.195,101.436 727.894,93.3287 739.593,88.2645 751.292,86.1857 762.991,87.0177 774.69,90.6708 786.389,97.0417 798.089,106.015 809.788,117.465 821.487,131.258 
  833.186,147.25 844.885,165.296 856.584,185.242 868.283,206.935 879.982,230.217 891.681,254.933 903.38,280.927 915.079,308.044 926.778,336.134 938.477,365.05 
  950.177,394.648 961.876,424.791 973.575,455.346 985.274,486.187 996.973,517.196 1008.67,548.259 1020.37,579.271 1032.07,610.134 1043.77,640.756 1055.47,671.053 
  1067.17,700.95 1078.87,730.376 1090.57,759.269 1102.26,787.574 1113.96,815.242 1125.66,842.23 1137.36,868.502 1149.06,894.027 1160.76,918.781 1172.46,942.743 
  1184.16,965.898 1195.86,988.237 1207.56,1009.75 1219.26,1030.44 1230.95,1050.31 1242.65,1069.36 1254.35,1087.59 1266.05,1105.03 1277.75,1121.67 1289.45,1137.54 
  1301.15,1152.66 1312.85,1167.03 1324.55,1180.69 1336.25,1193.64 1347.95,1205.92 1359.64,1217.54 1371.34,1228.52 1383.04,1238.9 1394.74,1248.69 1406.44,1257.92 
  1418.14,1266.61 1429.84,1274.78 1441.54,1282.46 1453.24,1289.67 1464.94,1296.43 1476.64,1302.77 1488.33,1308.7 1500.03,1314.25 1511.73,1319.43 1523.43,1324.27 
  1535.13,1328.78 1546.83,1332.99 1558.53,1336.91 1570.23,1340.56 1581.93,1343.95 1593.63,1347.11 1605.33,1350.03 1617.02,1352.75 1628.72,1355.26 1640.42,1357.59 
  1652.12,1359.75 1663.82,1361.75 1675.52,1363.59 1687.22,1365.3 1698.92,1366.87 1710.62,1368.32 1722.32,1369.66 1734.01,1370.9 1745.71,1372.03 1757.41,1373.08 
  1769.11,1374.04 1780.81,1374.92 1792.51,1375.73 1804.21,1376.47 1815.91,1377.16 1827.61,1377.78 1839.31,1378.36 1851.01,1378.88 1862.7,1379.36 1874.4,1379.8 
  1886.1,1380.2 1897.8,1380.57 1909.5,1380.9 1921.2,1381.21 1932.9,1381.49 1944.6,1381.74 1956.3,1381.98 1968,1382.19 1979.7,1382.38 1991.39,1382.56 
  2003.09,1382.71 2014.79,1382.86 2026.49,1382.99 2038.19,1383.11 2049.89,1383.22 2061.59,1383.32 2073.29,1383.41 2084.99,1383.49 2096.69,1383.56 2108.39,1383.63 
  2120.08,1383.69 
  "/>
<path clip-path="url(#clip730)" d="
M1778.33 335.029 L2282.65 335.029 L2282.65 93.1086 L1778.33 93.1086  Z
  " fill="#ffffff" fill-rule="evenodd" fill-opacity="1"/>
<polyline clip-path="url(#clip730)" style="stroke:#000000; stroke-linecap:butt; stroke-linejoin:round; stroke-width:4; stroke-opacity:1; fill:none" points="
  1778.33,335.029 2282.65,335.029 2282.65,93.1086 1778.33,93.1086 1778.33,335.029 
  "/>
<path clip-path="url(#clip730)" d="
M1801.7 177.781 L1941.92 177.781 L1941.92 129.397 L1801.7 129.397 L1801.7 177.781  Z
  " fill="#009af9" fill-rule="evenodd" fill-opacity="1"/>
<polyline clip-path="url(#clip730)" style="stroke:#000000; stroke-linecap:butt; stroke-linejoin:round; stroke-width:4; stroke-opacity:1; fill:none" points="
  1801.7,177.781 1941.92,177.781 1941.92,129.397 1801.7,129.397 1801.7,177.781 
  "/>
<path clip-path="url(#clip730)" d="M1979.13 173.276 Q1977.32 177.906 1975.61 179.318 Q1973.9 180.73 1971.03 180.73 L1967.63 180.73 L1967.63 177.165 L1970.13 177.165 Q1971.88 177.165 1972.86 176.332 Q1973.83 175.498 1975.01 172.396 L1975.77 170.452 L1965.29 144.943 L1969.8 144.943 L1977.9 165.221 L1986 144.943 L1990.52 144.943 L1979.13 173.276 Z" fill="#000000" fill-rule="evenodd" fill-opacity="1" /><path clip-path="url(#clip730)" d="M1997.81 166.933 L2005.45 166.933 L2005.45 140.568 L1997.14 142.235 L1997.14 137.975 L2005.4 136.309 L2010.08 136.309 L2010.08 166.933 L2017.72 166.933 L2017.72 170.869 L1997.81 170.869 L1997.81 166.933 Z" fill="#000000" fill-rule="evenodd" fill-opacity="1" /><polyline clip-path="url(#clip730)" style="stroke:#e26f46; stroke-linecap:butt; stroke-linejoin:round; stroke-width:4; stroke-opacity:1; fill:none" points="
  1801.7,214.069 1941.92,214.069 
  "/>
<path clip-path="url(#clip730)" d="M1984.2 218.085 Q1984.2 213.455 1982.28 210.909 Q1980.38 208.363 1976.93 208.363 Q1973.5 208.363 1971.58 210.909 Q1969.69 213.455 1969.69 218.085 Q1969.69 222.691 1971.58 225.238 Q1973.5 227.784 1976.93 227.784 Q1980.38 227.784 1982.28 225.238 Q1984.2 222.691 1984.2 218.085 M1988.46 228.131 Q1988.46 234.751 1985.52 237.969 Q1982.58 241.21 1976.51 241.21 Q1974.27 241.21 1972.28 240.862 Q1970.29 240.538 1968.41 239.844 L1968.41 235.7 Q1970.29 236.719 1972.12 237.205 Q1973.94 237.691 1975.84 237.691 Q1980.03 237.691 1982.12 235.492 Q1984.2 233.316 1984.2 228.895 L1984.2 226.788 Q1982.88 229.08 1980.82 230.214 Q1978.76 231.349 1975.89 231.349 Q1971.12 231.349 1968.2 227.714 Q1965.29 224.08 1965.29 218.085 Q1965.29 212.066 1968.2 208.432 Q1971.12 204.798 1975.89 204.798 Q1978.76 204.798 1980.82 205.932 Q1982.88 207.066 1984.2 209.358 L1984.2 205.423 L1988.46 205.423 L1988.46 228.131 Z" fill="#000000" fill-rule="evenodd" fill-opacity="1" /><path clip-path="url(#clip730)" d="M2009.01 218.316 Q2003.85 218.316 2001.86 219.497 Q1999.87 220.677 1999.87 223.525 Q1999.87 225.793 2001.35 227.136 Q2002.86 228.455 2005.43 228.455 Q2008.97 228.455 2011.1 225.955 Q2013.25 223.432 2013.25 219.265 L2013.25 218.316 L2009.01 218.316 M2017.51 216.557 L2017.51 231.349 L2013.25 231.349 L2013.25 227.413 Q2011.79 229.775 2009.62 230.909 Q2007.44 232.02 2004.29 232.02 Q2000.31 232.02 1997.95 229.798 Q1995.61 227.552 1995.61 223.802 Q1995.61 219.427 1998.53 217.205 Q2001.47 214.983 2007.28 214.983 L2013.25 214.983 L2013.25 214.566 Q2013.25 211.627 2011.31 210.029 Q2009.38 208.409 2005.89 208.409 Q2003.67 208.409 2001.56 208.941 Q1999.45 209.474 1997.51 210.539 L1997.51 206.603 Q1999.85 205.701 2002.05 205.261 Q2004.25 204.798 2006.33 204.798 Q2011.95 204.798 2014.73 207.714 Q2017.51 210.631 2017.51 216.557 Z" fill="#000000" fill-rule="evenodd" fill-opacity="1" /><path clip-path="url(#clip730)" d="M2025.84 221.117 L2025.84 205.423 L2030.1 205.423 L2030.1 220.955 Q2030.1 224.636 2031.54 226.488 Q2032.97 228.316 2035.84 228.316 Q2039.29 228.316 2041.28 226.117 Q2043.3 223.918 2043.3 220.122 L2043.3 205.423 L2047.56 205.423 L2047.56 231.349 L2043.3 231.349 L2043.3 227.367 Q2041.75 229.728 2039.68 230.886 Q2037.65 232.02 2034.94 232.02 Q2030.47 232.02 2028.16 229.242 Q2025.84 226.464 2025.84 221.117 M2036.56 204.798 L2036.56 204.798 Z" fill="#000000" fill-rule="evenodd" fill-opacity="1" /><path clip-path="url(#clip730)" d="M2072.86 206.187 L2072.86 210.214 Q2071.05 209.289 2069.11 208.826 Q2067.16 208.363 2065.08 208.363 Q2061.91 208.363 2060.31 209.335 Q2058.74 210.307 2058.74 212.251 Q2058.74 213.733 2059.87 214.589 Q2061 215.423 2064.43 216.187 L2065.89 216.511 Q2070.43 217.483 2072.32 219.265 Q2074.24 221.025 2074.24 224.196 Q2074.24 227.807 2071.37 229.913 Q2068.53 232.02 2063.53 232.02 Q2061.44 232.02 2059.18 231.603 Q2056.93 231.21 2054.43 230.4 L2054.43 226.001 Q2056.79 227.228 2059.08 227.853 Q2061.37 228.455 2063.62 228.455 Q2066.63 228.455 2068.25 227.437 Q2069.87 226.395 2069.87 224.52 Q2069.87 222.784 2068.69 221.858 Q2067.53 220.932 2063.57 220.076 L2062.09 219.728 Q2058.13 218.895 2056.37 217.182 Q2054.62 215.446 2054.62 212.437 Q2054.62 208.779 2057.21 206.789 Q2059.8 204.798 2064.57 204.798 Q2066.93 204.798 2069.01 205.145 Q2071.1 205.492 2072.86 206.187 Z" fill="#000000" fill-rule="evenodd" fill-opacity="1" /><path clip-path="url(#clip730)" d="M2097.55 206.187 L2097.55 210.214 Q2095.75 209.289 2093.8 208.826 Q2091.86 208.363 2089.78 208.363 Q2086.61 208.363 2085.01 209.335 Q2083.43 210.307 2083.43 212.251 Q2083.43 213.733 2084.57 214.589 Q2085.7 215.423 2089.13 216.187 L2090.59 216.511 Q2095.12 217.483 2097.02 219.265 Q2098.94 221.025 2098.94 224.196 Q2098.94 227.807 2096.07 229.913 Q2093.23 232.02 2088.23 232.02 Q2086.14 232.02 2083.87 231.603 Q2081.63 231.21 2079.13 230.4 L2079.13 226.001 Q2081.49 227.228 2083.78 227.853 Q2086.07 228.455 2088.32 228.455 Q2091.33 228.455 2092.95 227.437 Q2094.57 226.395 2094.57 224.52 Q2094.57 222.784 2093.39 221.858 Q2092.23 220.932 2088.27 220.076 L2086.79 219.728 Q2082.83 218.895 2081.07 217.182 Q2079.31 215.446 2079.31 212.437 Q2079.31 208.779 2081.91 206.789 Q2084.5 204.798 2089.27 204.798 Q2091.63 204.798 2093.71 205.145 Q2095.8 205.492 2097.55 206.187 Z" fill="#000000" fill-rule="evenodd" fill-opacity="1" /><path clip-path="url(#clip730)" d="M2105.73 205.423 L2109.99 205.423 L2109.99 231.349 L2105.73 231.349 L2105.73 205.423 M2105.73 195.33 L2109.99 195.33 L2109.99 200.724 L2105.73 200.724 L2105.73 195.33 Z" fill="#000000" fill-rule="evenodd" fill-opacity="1" /><path clip-path="url(#clip730)" d="M2130.68 218.316 Q2125.52 218.316 2123.53 219.497 Q2121.54 220.677 2121.54 223.525 Q2121.54 225.793 2123.02 227.136 Q2124.52 228.455 2127.09 228.455 Q2130.63 228.455 2132.76 225.955 Q2134.92 223.432 2134.92 219.265 L2134.92 218.316 L2130.68 218.316 M2139.18 216.557 L2139.18 231.349 L2134.92 231.349 L2134.92 227.413 Q2133.46 229.775 2131.28 230.909 Q2129.11 232.02 2125.96 232.02 Q2121.98 232.02 2119.62 229.798 Q2117.28 227.552 2117.28 223.802 Q2117.28 219.427 2120.19 217.205 Q2123.13 214.983 2128.94 214.983 L2134.92 214.983 L2134.92 214.566 Q2134.92 211.627 2132.97 210.029 Q2131.05 208.409 2127.55 208.409 Q2125.33 208.409 2123.23 208.941 Q2121.12 209.474 2119.18 210.539 L2119.18 206.603 Q2121.51 205.701 2123.71 205.261 Q2125.91 204.798 2127.99 204.798 Q2133.62 204.798 2136.4 207.714 Q2139.18 210.631 2139.18 216.557 Z" fill="#000000" fill-rule="evenodd" fill-opacity="1" /><path clip-path="url(#clip730)" d="M2169.5 215.701 L2169.5 231.349 L2165.24 231.349 L2165.24 215.839 Q2165.24 212.159 2163.8 210.33 Q2162.37 208.502 2159.5 208.502 Q2156.05 208.502 2154.06 210.701 Q2152.07 212.9 2152.07 216.696 L2152.07 231.349 L2147.79 231.349 L2147.79 205.423 L2152.07 205.423 L2152.07 209.451 Q2153.6 207.113 2155.66 205.955 Q2157.74 204.798 2160.45 204.798 Q2164.92 204.798 2167.21 207.576 Q2169.5 210.33 2169.5 215.701 Z" fill="#000000" fill-rule="evenodd" fill-opacity="1" /><path clip-path="url(#clip730)" d="M2206.19 195.33 L2206.19 198.872 L2202.11 198.872 Q2199.82 198.872 2198.92 199.798 Q2198.04 200.724 2198.04 203.131 L2198.04 205.423 L2205.05 205.423 L2205.05 208.733 L2198.04 208.733 L2198.04 231.349 L2193.76 231.349 L2193.76 208.733 L2189.68 208.733 L2189.68 205.423 L2193.76 205.423 L2193.76 203.617 Q2193.76 199.289 2195.77 197.321 Q2197.79 195.33 2202.16 195.33 L2206.19 195.33 Z" fill="#000000" fill-rule="evenodd" fill-opacity="1" /><path clip-path="url(#clip730)" d="M2209.75 205.423 L2214.01 205.423 L2214.01 231.349 L2209.75 231.349 L2209.75 205.423 M2209.75 195.33 L2214.01 195.33 L2214.01 200.724 L2209.75 200.724 L2209.75 195.33 Z" fill="#000000" fill-rule="evenodd" fill-opacity="1" /><path clip-path="url(#clip730)" d="M2227.14 198.062 L2227.14 205.423 L2235.91 205.423 L2235.91 208.733 L2227.14 208.733 L2227.14 222.807 Q2227.14 225.978 2227.99 226.881 Q2228.87 227.784 2231.54 227.784 L2235.91 227.784 L2235.91 231.349 L2231.54 231.349 Q2226.61 231.349 2224.73 229.52 Q2222.86 227.668 2222.86 222.807 L2222.86 208.733 L2219.73 208.733 L2219.73 205.423 L2222.86 205.423 L2222.86 198.062 L2227.14 198.062 Z" fill="#000000" fill-rule="evenodd" fill-opacity="1" /><polyline clip-path="url(#clip730)" style="stroke:#3da44d; stroke-linecap:butt; stroke-linejoin:round; stroke-width:4; stroke-opacity:1; fill:none" points="
  1801.7,274.549 1941.92,274.549 
  "/>
<path clip-path="url(#clip730)" d="M1969.57 287.94 L1969.57 301.69 L1965.29 301.69 L1965.29 265.903 L1969.57 265.903 L1969.57 269.838 Q1970.91 267.523 1972.95 266.412 Q1975.01 265.278 1977.86 265.278 Q1982.58 265.278 1985.52 269.028 Q1988.48 272.778 1988.48 278.889 Q1988.48 285 1985.52 288.75 Q1982.58 292.5 1977.86 292.5 Q1975.01 292.5 1972.95 291.389 Q1970.91 290.255 1969.57 287.94 M1984.06 278.889 Q1984.06 274.19 1982.12 271.528 Q1980.19 268.843 1976.81 268.843 Q1973.44 268.843 1971.49 271.528 Q1969.57 274.19 1969.57 278.889 Q1969.57 283.588 1971.49 286.273 Q1973.44 288.935 1976.81 288.935 Q1980.19 288.935 1982.12 286.273 Q1984.06 283.588 1984.06 278.889 Z" fill="#000000" fill-rule="evenodd" fill-opacity="1" /><path clip-path="url(#clip730)" d="M2005.59 268.889 Q2002.16 268.889 2000.17 271.574 Q1998.18 274.236 1998.18 278.889 Q1998.18 283.542 2000.15 286.227 Q2002.14 288.889 2005.59 288.889 Q2008.99 288.889 2010.98 286.204 Q2012.97 283.518 2012.97 278.889 Q2012.97 274.282 2010.98 271.597 Q2008.99 268.889 2005.59 268.889 M2005.59 265.278 Q2011.14 265.278 2014.31 268.889 Q2017.49 272.5 2017.49 278.889 Q2017.49 285.255 2014.31 288.889 Q2011.14 292.5 2005.59 292.5 Q2000.01 292.5 1996.84 288.889 Q1993.69 285.255 1993.69 278.889 Q1993.69 272.5 1996.84 268.889 Q2000.01 265.278 2005.59 265.278 Z" fill="#000000" fill-rule="evenodd" fill-opacity="1" /><path clip-path="url(#clip730)" d="M2024.55 265.903 L2028.81 265.903 L2028.81 291.829 L2024.55 291.829 L2024.55 265.903 M2024.55 255.81 L2028.81 255.81 L2028.81 261.204 L2024.55 261.204 L2024.55 255.81 Z" fill="#000000" fill-rule="evenodd" fill-opacity="1" /><path clip-path="url(#clip730)" d="M2054.24 266.667 L2054.24 270.694 Q2052.44 269.769 2050.5 269.306 Q2048.55 268.843 2046.47 268.843 Q2043.3 268.843 2041.7 269.815 Q2040.12 270.787 2040.12 272.731 Q2040.12 274.213 2041.26 275.069 Q2042.39 275.903 2045.82 276.667 L2047.28 276.991 Q2051.81 277.963 2053.71 279.745 Q2055.63 281.505 2055.63 284.676 Q2055.63 288.287 2052.76 290.393 Q2049.92 292.5 2044.92 292.5 Q2042.83 292.5 2040.56 292.083 Q2038.32 291.69 2035.82 290.88 L2035.82 286.481 Q2038.18 287.708 2040.47 288.333 Q2042.76 288.935 2045.01 288.935 Q2048.02 288.935 2049.64 287.917 Q2051.26 286.875 2051.26 285 Q2051.26 283.264 2050.08 282.338 Q2048.92 281.412 2044.96 280.556 L2043.48 280.208 Q2039.52 279.375 2037.76 277.662 Q2036 275.926 2036 272.917 Q2036 269.259 2038.6 267.269 Q2041.19 265.278 2045.96 265.278 Q2048.32 265.278 2050.4 265.625 Q2052.49 265.972 2054.24 266.667 Z" fill="#000000" fill-rule="evenodd" fill-opacity="1" /><path clip-path="url(#clip730)" d="M2078.94 266.667 L2078.94 270.694 Q2077.14 269.769 2075.19 269.306 Q2073.25 268.843 2071.17 268.843 Q2067.99 268.843 2066.4 269.815 Q2064.82 270.787 2064.82 272.731 Q2064.82 274.213 2065.96 275.069 Q2067.09 275.903 2070.52 276.667 L2071.98 276.991 Q2076.51 277.963 2078.41 279.745 Q2080.33 281.505 2080.33 284.676 Q2080.33 288.287 2077.46 290.393 Q2074.62 292.5 2069.62 292.5 Q2067.53 292.5 2065.26 292.083 Q2063.02 291.69 2060.52 290.88 L2060.52 286.481 Q2062.88 287.708 2065.17 288.333 Q2067.46 288.935 2069.71 288.935 Q2072.72 288.935 2074.34 287.917 Q2075.96 286.875 2075.96 285 Q2075.96 283.264 2074.78 282.338 Q2073.62 281.412 2069.66 280.556 L2068.18 280.208 Q2064.22 279.375 2062.46 277.662 Q2060.7 275.926 2060.7 272.917 Q2060.7 269.259 2063.3 267.269 Q2065.89 265.278 2070.66 265.278 Q2073.02 265.278 2075.1 265.625 Q2077.18 265.972 2078.94 266.667 Z" fill="#000000" fill-rule="evenodd" fill-opacity="1" /><path clip-path="url(#clip730)" d="M2097.16 268.889 Q2093.74 268.889 2091.74 271.574 Q2089.75 274.236 2089.75 278.889 Q2089.75 283.542 2091.72 286.227 Q2093.71 288.889 2097.16 288.889 Q2100.56 288.889 2102.55 286.204 Q2104.55 283.518 2104.55 278.889 Q2104.55 274.282 2102.55 271.597 Q2100.56 268.889 2097.16 268.889 M2097.16 265.278 Q2102.72 265.278 2105.89 268.889 Q2109.06 272.5 2109.06 278.889 Q2109.06 285.255 2105.89 288.889 Q2102.72 292.5 2097.16 292.5 Q2091.58 292.5 2088.41 288.889 Q2085.26 285.255 2085.26 278.889 Q2085.26 272.5 2088.41 268.889 Q2091.58 265.278 2097.16 265.278 Z" fill="#000000" fill-rule="evenodd" fill-opacity="1" /><path clip-path="url(#clip730)" d="M2137.67 276.181 L2137.67 291.829 L2133.41 291.829 L2133.41 276.319 Q2133.41 272.639 2131.98 270.81 Q2130.54 268.982 2127.67 268.982 Q2124.22 268.982 2122.23 271.181 Q2120.24 273.38 2120.24 277.176 L2120.24 291.829 L2115.96 291.829 L2115.96 265.903 L2120.24 265.903 L2120.24 269.931 Q2121.77 267.593 2123.83 266.435 Q2125.91 265.278 2128.62 265.278 Q2133.09 265.278 2135.38 268.056 Q2137.67 270.81 2137.67 276.181 Z" fill="#000000" fill-rule="evenodd" fill-opacity="1" /><path clip-path="url(#clip730)" d="M2174.36 255.81 L2174.36 259.352 L2170.29 259.352 Q2167.99 259.352 2167.09 260.278 Q2166.21 261.204 2166.21 263.611 L2166.21 265.903 L2173.23 265.903 L2173.23 269.213 L2166.21 269.213 L2166.21 291.829 L2161.93 291.829 L2161.93 269.213 L2157.86 269.213 L2157.86 265.903 L2161.93 265.903 L2161.93 264.097 Q2161.93 259.769 2163.94 257.801 Q2165.96 255.81 2170.33 255.81 L2174.36 255.81 Z" fill="#000000" fill-rule="evenodd" fill-opacity="1" /><path clip-path="url(#clip730)" d="M2177.92 265.903 L2182.18 265.903 L2182.18 291.829 L2177.92 291.829 L2177.92 265.903 M2177.92 255.81 L2182.18 255.81 L2182.18 261.204 L2177.92 261.204 L2177.92 255.81 Z" fill="#000000" fill-rule="evenodd" fill-opacity="1" /><path clip-path="url(#clip730)" d="M2195.31 258.542 L2195.31 265.903 L2204.08 265.903 L2204.08 269.213 L2195.31 269.213 L2195.31 283.287 Q2195.31 286.458 2196.17 287.361 Q2197.05 288.264 2199.71 288.264 L2204.08 288.264 L2204.08 291.829 L2199.71 291.829 Q2194.78 291.829 2192.9 290 Q2191.03 288.148 2191.03 283.287 L2191.03 269.213 L2187.9 269.213 L2187.9 265.903 L2191.03 265.903 L2191.03 258.542 L2195.31 258.542 Z" fill="#000000" fill-rule="evenodd" fill-opacity="1" /></svg>
