<?xml version="1.0" encoding="utf-8"?>
<svg xmlns="http://www.w3.org/2000/svg" xmlns:xlink="http://www.w3.org/1999/xlink" width="600" height="400" viewBox="0 0 2400 1600">
<defs>
  <clipPath id="clip830">
    <rect x="0" y="0" width="2400" height="1600"/>
  </clipPath>
</defs>
<path clip-path="url(#clip830)" d="
M0 1600 L2400 1600 L2400 0 L0 0  Z
  " fill="#ffffff" fill-rule="evenodd" fill-opacity="1"/>
<defs>
  <clipPath id="clip831">
    <rect x="480" y="0" width="1681" height="1600"/>
  </clipPath>
</defs>
<path clip-path="url(#clip830)" d="
M102.74 1505.26 L2352.76 1505.26 L2352.76 47.2441 L102.74 47.2441  Z
  " fill="#ffffff" fill-rule="evenodd" fill-opacity="1"/>
<defs>
  <clipPath id="clip832">
    <rect x="102" y="47" width="2251" height="1459"/>
  </clipPath>
</defs>
<polyline clip-path="url(#clip832)" style="stroke:#000000; stroke-linecap:butt; stroke-linejoin:round; stroke-width:2; stroke-opacity:0.1; fill:none" points="
  181.594,1505.26 181.594,47.2441 
  "/>
<polyline clip-path="url(#clip832)" style="stroke:#000000; stroke-linecap:butt; stroke-linejoin:round; stroke-width:2; stroke-opacity:0.1; fill:none" points="
  603.09,1505.26 603.09,47.2441 
  "/>
<polyline clip-path="url(#clip832)" style="stroke:#000000; stroke-linecap:butt; stroke-linejoin:round; stroke-width:2; stroke-opacity:0.1; fill:none" points="
  1024.59,1505.26 1024.59,47.2441 
  "/>
<polyline clip-path="url(#clip832)" style="stroke:#000000; stroke-linecap:butt; stroke-linejoin:round; stroke-width:2; stroke-opacity:0.1; fill:none" points="
  1446.08,1505.26 1446.08,47.2441 
  "/>
<polyline clip-path="url(#clip832)" style="stroke:#000000; stroke-linecap:butt; stroke-linejoin:round; stroke-width:2; stroke-opacity:0.1; fill:none" points="
  1867.58,1505.26 1867.58,47.2441 
  "/>
<polyline clip-path="url(#clip832)" style="stroke:#000000; stroke-linecap:butt; stroke-linejoin:round; stroke-width:2; stroke-opacity:0.1; fill:none" points="
  2289.08,1505.26 2289.08,47.2441 
  "/>
<polyline clip-path="url(#clip830)" style="stroke:#000000; stroke-linecap:butt; stroke-linejoin:round; stroke-width:4; stroke-opacity:1; fill:none" points="
  102.74,1505.26 2352.76,1505.26 
  "/>
<polyline clip-path="url(#clip830)" style="stroke:#000000; stroke-linecap:butt; stroke-linejoin:round; stroke-width:4; stroke-opacity:1; fill:none" points="
  181.594,1505.26 181.594,1487.76 
  "/>
<polyline clip-path="url(#clip830)" style="stroke:#000000; stroke-linecap:butt; stroke-linejoin:round; stroke-width:4; stroke-opacity:1; fill:none" points="
  603.09,1505.26 603.09,1487.76 
  "/>
<polyline clip-path="url(#clip830)" style="stroke:#000000; stroke-linecap:butt; stroke-linejoin:round; stroke-width:4; stroke-opacity:1; fill:none" points="
  1024.59,1505.26 1024.59,1487.76 
  "/>
<polyline clip-path="url(#clip830)" style="stroke:#000000; stroke-linecap:butt; stroke-linejoin:round; stroke-width:4; stroke-opacity:1; fill:none" points="
  1446.08,1505.26 1446.08,1487.76 
  "/>
<polyline clip-path="url(#clip830)" style="stroke:#000000; stroke-linecap:butt; stroke-linejoin:round; stroke-width:4; stroke-opacity:1; fill:none" points="
  1867.58,1505.26 1867.58,1487.76 
  "/>
<polyline clip-path="url(#clip830)" style="stroke:#000000; stroke-linecap:butt; stroke-linejoin:round; stroke-width:4; stroke-opacity:1; fill:none" points="
  2289.08,1505.26 2289.08,1487.76 
  "/>
<path clip-path="url(#clip830)" d="M181.594 1534.45 Q177.983 1534.45 176.154 1538.02 Q174.348 1541.56 174.348 1548.69 Q174.348 1555.79 176.154 1559.36 Q177.983 1562.9 181.594 1562.9 Q185.228 1562.9 187.034 1559.36 Q188.862 1555.79 188.862 1548.69 Q188.862 1541.56 187.034 1538.02 Q185.228 1534.45 181.594 1534.45 M181.594 1530.75 Q187.404 1530.75 190.459 1535.35 Q193.538 1539.94 193.538 1548.69 Q193.538 1557.41 190.459 1562.02 Q187.404 1566.6 181.594 1566.6 Q175.784 1566.6 172.705 1562.02 Q169.649 1557.41 169.649 1548.69 Q169.649 1539.94 172.705 1535.35 Q175.784 1530.75 181.594 1530.75 Z" fill="#000000" fill-rule="evenodd" fill-opacity="1" /><path clip-path="url(#clip830)" d="M577.778 1562 L585.417 1562 L585.417 1535.63 L577.107 1537.3 L577.107 1533.04 L585.37 1531.37 L590.046 1531.37 L590.046 1562 L597.685 1562 L597.685 1565.93 L577.778 1565.93 L577.778 1562 Z" fill="#000000" fill-rule="evenodd" fill-opacity="1" /><path clip-path="url(#clip830)" d="M617.129 1534.45 Q613.518 1534.45 611.69 1538.02 Q609.884 1541.56 609.884 1548.69 Q609.884 1555.79 611.69 1559.36 Q613.518 1562.9 617.129 1562.9 Q620.764 1562.9 622.569 1559.36 Q624.398 1555.79 624.398 1548.69 Q624.398 1541.56 622.569 1538.02 Q620.764 1534.45 617.129 1534.45 M617.129 1530.75 Q622.94 1530.75 625.995 1535.35 Q629.074 1539.94 629.074 1548.69 Q629.074 1557.41 625.995 1562.02 Q622.94 1566.6 617.129 1566.6 Q611.319 1566.6 608.241 1562.02 Q605.185 1557.41 605.185 1548.69 Q605.185 1539.94 608.241 1535.35 Q611.319 1530.75 617.129 1530.75 Z" fill="#000000" fill-rule="evenodd" fill-opacity="1" /><path clip-path="url(#clip830)" d="M1003.36 1562 L1019.68 1562 L1019.68 1565.93 L997.735 1565.93 L997.735 1562 Q1000.4 1559.24 1004.98 1554.61 Q1009.59 1549.96 1010.77 1548.62 Q1013.01 1546.09 1013.89 1544.36 Q1014.8 1542.6 1014.8 1540.91 Q1014.8 1538.15 1012.85 1536.42 Q1010.93 1534.68 1007.83 1534.68 Q1005.63 1534.68 1003.17 1535.45 Q1000.74 1536.21 997.966 1537.76 L997.966 1533.04 Q1000.79 1531.9 1003.24 1531.33 Q1005.7 1530.75 1007.73 1530.75 Q1013.11 1530.75 1016.3 1533.43 Q1019.49 1536.12 1019.49 1540.61 Q1019.49 1542.74 1018.68 1544.66 Q1017.9 1546.56 1015.79 1549.15 Q1015.21 1549.82 1012.11 1553.04 Q1009.01 1556.23 1003.36 1562 Z" fill="#000000" fill-rule="evenodd" fill-opacity="1" /><path clip-path="url(#clip830)" d="M1039.49 1534.45 Q1035.88 1534.45 1034.05 1538.02 Q1032.25 1541.56 1032.25 1548.69 Q1032.25 1555.79 1034.05 1559.36 Q1035.88 1562.9 1039.49 1562.9 Q1043.13 1562.9 1044.93 1559.36 Q1046.76 1555.79 1046.76 1548.69 Q1046.76 1541.56 1044.93 1538.02 Q1043.13 1534.45 1039.49 1534.45 M1039.49 1530.75 Q1045.3 1530.75 1048.36 1535.35 Q1051.44 1539.94 1051.44 1548.69 Q1051.44 1557.41 1048.36 1562.02 Q1045.3 1566.6 1039.49 1566.6 Q1033.68 1566.6 1030.61 1562.02 Q1027.55 1557.41 1027.55 1548.69 Q1027.55 1539.94 1030.61 1535.35 Q1033.68 1530.75 1039.49 1530.75 Z" fill="#000000" fill-rule="evenodd" fill-opacity="1" /><path clip-path="url(#clip830)" d="M1434.93 1547.3 Q1438.28 1548.02 1440.16 1550.28 Q1442.06 1552.55 1442.06 1555.89 Q1442.06 1561 1438.54 1563.8 Q1435.02 1566.6 1428.54 1566.6 Q1426.36 1566.6 1424.05 1566.16 Q1421.75 1565.75 1419.3 1564.89 L1419.3 1560.38 Q1421.25 1561.51 1423.56 1562.09 Q1425.87 1562.67 1428.4 1562.67 Q1432.8 1562.67 1435.09 1560.93 Q1437.4 1559.2 1437.4 1555.89 Q1437.4 1552.83 1435.25 1551.12 Q1433.12 1549.38 1429.3 1549.38 L1425.27 1549.38 L1425.27 1545.54 L1429.49 1545.54 Q1432.94 1545.54 1434.76 1544.17 Q1436.59 1542.78 1436.59 1540.19 Q1436.59 1537.53 1434.69 1536.12 Q1432.82 1534.68 1429.3 1534.68 Q1427.38 1534.68 1425.18 1535.1 Q1422.98 1535.52 1420.34 1536.39 L1420.34 1532.23 Q1423 1531.49 1425.32 1531.12 Q1427.66 1530.75 1429.72 1530.75 Q1435.04 1530.75 1438.14 1533.18 Q1441.25 1535.58 1441.25 1539.71 Q1441.25 1542.58 1439.6 1544.57 Q1437.96 1546.53 1434.93 1547.3 Z" fill="#000000" fill-rule="evenodd" fill-opacity="1" /><path clip-path="url(#clip830)" d="M1460.92 1534.45 Q1457.31 1534.45 1455.48 1538.02 Q1453.68 1541.56 1453.68 1548.69 Q1453.68 1555.79 1455.48 1559.36 Q1457.31 1562.9 1460.92 1562.9 Q1464.56 1562.9 1466.36 1559.36 Q1468.19 1555.79 1468.19 1548.69 Q1468.19 1541.56 1466.36 1538.02 Q1464.56 1534.45 1460.92 1534.45 M1460.92 1530.75 Q1466.73 1530.75 1469.79 1535.35 Q1472.87 1539.94 1472.87 1548.69 Q1472.87 1557.41 1469.79 1562.02 Q1466.73 1566.6 1460.92 1566.6 Q1455.11 1566.6 1452.03 1562.02 Q1448.98 1557.41 1448.98 1548.69 Q1448.98 1539.94 1452.03 1535.35 Q1455.11 1530.75 1460.92 1530.75 Z" fill="#000000" fill-rule="evenodd" fill-opacity="1" /><path clip-path="url(#clip830)" d="M1855.75 1535.45 L1843.95 1553.89 L1855.75 1553.89 L1855.75 1535.45 M1854.52 1531.37 L1860.4 1531.37 L1860.4 1553.89 L1865.33 1553.89 L1865.33 1557.78 L1860.4 1557.78 L1860.4 1565.93 L1855.75 1565.93 L1855.75 1557.78 L1840.15 1557.78 L1840.15 1553.27 L1854.52 1531.37 Z" fill="#000000" fill-rule="evenodd" fill-opacity="1" /><path clip-path="url(#clip830)" d="M1883.07 1534.45 Q1879.45 1534.45 1877.63 1538.02 Q1875.82 1541.56 1875.82 1548.69 Q1875.82 1555.79 1877.63 1559.36 Q1879.45 1562.9 1883.07 1562.9 Q1886.7 1562.9 1888.51 1559.36 Q1890.33 1555.79 1890.33 1548.69 Q1890.33 1541.56 1888.51 1538.02 Q1886.7 1534.45 1883.07 1534.45 M1883.07 1530.75 Q1888.88 1530.75 1891.93 1535.35 Q1895.01 1539.94 1895.01 1548.69 Q1895.01 1557.41 1891.93 1562.02 Q1888.88 1566.6 1883.07 1566.6 Q1877.26 1566.6 1874.18 1562.02 Q1871.12 1557.41 1871.12 1548.69 Q1871.12 1539.94 1874.18 1535.35 Q1877.26 1530.75 1883.07 1530.75 Z" fill="#000000" fill-rule="evenodd" fill-opacity="1" /><path clip-path="url(#clip830)" d="M2263.78 1531.37 L2282.13 1531.37 L2282.13 1535.31 L2268.06 1535.31 L2268.06 1543.78 Q2269.08 1543.43 2270.09 1543.27 Q2271.11 1543.08 2272.13 1543.08 Q2277.92 1543.08 2281.3 1546.26 Q2284.68 1549.43 2284.68 1554.84 Q2284.68 1560.42 2281.21 1563.52 Q2277.73 1566.6 2271.41 1566.6 Q2269.24 1566.6 2266.97 1566.23 Q2264.72 1565.86 2262.32 1565.12 L2262.32 1560.42 Q2264.4 1561.56 2266.62 1562.11 Q2268.84 1562.67 2271.32 1562.67 Q2275.33 1562.67 2277.66 1560.56 Q2280 1558.46 2280 1554.84 Q2280 1551.23 2277.66 1549.13 Q2275.33 1547.02 2271.32 1547.02 Q2269.45 1547.02 2267.57 1547.44 Q2265.72 1547.85 2263.78 1548.73 L2263.78 1531.37 Z" fill="#000000" fill-rule="evenodd" fill-opacity="1" /><path clip-path="url(#clip830)" d="M2303.89 1534.45 Q2300.28 1534.45 2298.45 1538.02 Q2296.65 1541.56 2296.65 1548.69 Q2296.65 1555.79 2298.45 1559.36 Q2300.28 1562.9 2303.89 1562.9 Q2307.53 1562.9 2309.33 1559.36 Q2311.16 1555.79 2311.16 1548.69 Q2311.16 1541.56 2309.33 1538.02 Q2307.53 1534.45 2303.89 1534.45 M2303.89 1530.75 Q2309.7 1530.75 2312.76 1535.35 Q2315.84 1539.94 2315.84 1548.69 Q2315.84 1557.41 2312.76 1562.02 Q2309.7 1566.6 2303.89 1566.6 Q2298.08 1566.6 2295 1562.02 Q2291.95 1557.41 2291.95 1548.69 Q2291.95 1539.94 2295 1535.35 Q2298.08 1530.75 2303.89 1530.75 Z" fill="#000000" fill-rule="evenodd" fill-opacity="1" /><path clip-path="url(#clip830)" d="M1229.71 1621.32 Q1231.9 1617.37 1234.96 1615.49 Q1238.01 1613.62 1242.15 1613.62 Q1247.72 1613.62 1250.74 1617.53 Q1253.77 1621.41 1253.77 1628.61 L1253.77 1650.12 L1247.88 1650.12 L1247.88 1628.8 Q1247.88 1623.67 1246.07 1621.19 Q1244.25 1618.71 1240.53 1618.71 Q1235.98 1618.71 1233.33 1621.73 Q1230.69 1624.76 1230.69 1629.98 L1230.69 1650.12 L1224.8 1650.12 L1224.8 1628.8 Q1224.8 1623.64 1222.99 1621.19 Q1221.18 1618.71 1217.39 1618.71 Q1212.9 1618.71 1210.26 1621.76 Q1207.62 1624.79 1207.62 1629.98 L1207.62 1650.12 L1201.73 1650.12 L1201.73 1614.48 L1207.62 1614.48 L1207.62 1620.01 Q1209.62 1616.74 1212.42 1615.18 Q1215.22 1613.62 1219.07 1613.62 Q1222.96 1613.62 1225.66 1615.59 Q1228.4 1617.56 1229.71 1621.32 Z" fill="#000000" fill-rule="evenodd" fill-opacity="1" /><polyline clip-path="url(#clip832)" style="stroke:#000000; stroke-linecap:butt; stroke-linejoin:round; stroke-width:2; stroke-opacity:0.1; fill:none" points="
  102.74,1464 2352.76,1464 
  "/>
<polyline clip-path="url(#clip832)" style="stroke:#000000; stroke-linecap:butt; stroke-linejoin:round; stroke-width:2; stroke-opacity:0.1; fill:none" points="
  102.74,1220.2 2352.76,1220.2 
  "/>
<polyline clip-path="url(#clip832)" style="stroke:#000000; stroke-linecap:butt; stroke-linejoin:round; stroke-width:2; stroke-opacity:0.1; fill:none" points="
  102.74,976.398 2352.76,976.398 
  "/>
<polyline clip-path="url(#clip832)" style="stroke:#000000; stroke-linecap:butt; stroke-linejoin:round; stroke-width:2; stroke-opacity:0.1; fill:none" points="
  102.74,732.599 2352.76,732.599 
  "/>
<polyline clip-path="url(#clip832)" style="stroke:#000000; stroke-linecap:butt; stroke-linejoin:round; stroke-width:2; stroke-opacity:0.1; fill:none" points="
  102.74,488.801 2352.76,488.801 
  "/>
<polyline clip-path="url(#clip832)" style="stroke:#000000; stroke-linecap:butt; stroke-linejoin:round; stroke-width:2; stroke-opacity:0.1; fill:none" points="
  102.74,245.002 2352.76,245.002 
  "/>
<polyline clip-path="url(#clip830)" style="stroke:#000000; stroke-linecap:butt; stroke-linejoin:round; stroke-width:4; stroke-opacity:1; fill:none" points="
  102.74,1505.26 102.74,47.2441 
  "/>
<polyline clip-path="url(#clip830)" style="stroke:#000000; stroke-linecap:butt; stroke-linejoin:round; stroke-width:4; stroke-opacity:1; fill:none" points="
  102.74,1464 129.74,1464 
  "/>
<polyline clip-path="url(#clip830)" style="stroke:#000000; stroke-linecap:butt; stroke-linejoin:round; stroke-width:4; stroke-opacity:1; fill:none" points="
  102.74,1220.2 129.74,1220.2 
  "/>
<polyline clip-path="url(#clip830)" style="stroke:#000000; stroke-linecap:butt; stroke-linejoin:round; stroke-width:4; stroke-opacity:1; fill:none" points="
  102.74,976.398 129.74,976.398 
  "/>
<polyline clip-path="url(#clip830)" style="stroke:#000000; stroke-linecap:butt; stroke-linejoin:round; stroke-width:4; stroke-opacity:1; fill:none" points="
  102.74,732.599 129.74,732.599 
  "/>
<polyline clip-path="url(#clip830)" style="stroke:#000000; stroke-linecap:butt; stroke-linejoin:round; stroke-width:4; stroke-opacity:1; fill:none" points="
  102.74,488.801 129.74,488.801 
  "/>
<polyline clip-path="url(#clip830)" style="stroke:#000000; stroke-linecap:butt; stroke-linejoin:round; stroke-width:4; stroke-opacity:1; fill:none" points="
  102.74,245.002 129.74,245.002 
  "/>
<path clip-path="url(#clip830)" d="M-20.5973 1449.79 Q-24.2084 1449.79 -26.0371 1453.36 Q-27.8427 1456.9 -27.8427 1464.03 Q-27.8427 1471.14 -26.0371 1474.7 Q-24.2084 1478.24 -20.5973 1478.24 Q-16.9631 1478.24 -15.1576 1474.7 Q-13.3289 1471.14 -13.3289 1464.03 Q-13.3289 1456.9 -15.1576 1453.36 Q-16.9631 1449.79 -20.5973 1449.79 M-20.5973 1446.09 Q-14.7872 1446.09 -11.7316 1450.7 Q-8.65296 1455.28 -8.65296 1464.03 Q-8.65296 1472.76 -11.7316 1477.36 Q-14.7872 1481.95 -20.5973 1481.95 Q-26.4075 1481.95 -29.4862 1477.36 Q-32.5417 1472.76 -32.5417 1464.03 Q-32.5417 1455.28 -29.4862 1450.7 Q-26.4075 1446.09 -20.5973 1446.09 Z" fill="#000000" fill-rule="evenodd" fill-opacity="1" /><path clip-path="url(#clip830)" d="M-0.435408 1475.4 L4.44882 1475.4 L4.44882 1481.28 L-0.435408 1481.28 L-0.435408 1475.4 Z" fill="#000000" fill-rule="evenodd" fill-opacity="1" /><path clip-path="url(#clip830)" d="M24.6339 1449.79 Q21.0228 1449.79 19.1941 1453.36 Q17.3886 1456.9 17.3886 1464.03 Q17.3886 1471.14 19.1941 1474.7 Q21.0228 1478.24 24.6339 1478.24 Q28.2681 1478.24 30.0737 1474.7 Q31.9024 1471.14 31.9024 1464.03 Q31.9024 1456.9 30.0737 1453.36 Q28.2681 1449.79 24.6339 1449.79 M24.6339 1446.09 Q30.4441 1446.09 33.4996 1450.7 Q36.5783 1455.28 36.5783 1464.03 Q36.5783 1472.76 33.4996 1477.36 Q30.4441 1481.95 24.6339 1481.95 Q18.8237 1481.95 15.7451 1477.36 Q12.6895 1472.76 12.6895 1464.03 Q12.6895 1455.28 15.7451 1450.7 Q18.8237 1446.09 24.6339 1446.09 Z" fill="#000000" fill-rule="evenodd" fill-opacity="1" /><path clip-path="url(#clip830)" d="M54.7958 1449.79 Q51.1847 1449.79 49.356 1453.36 Q47.5504 1456.9 47.5504 1464.03 Q47.5504 1471.14 49.356 1474.7 Q51.1847 1478.24 54.7958 1478.24 Q58.43 1478.24 60.2356 1474.7 Q62.0643 1471.14 62.0643 1464.03 Q62.0643 1456.9 60.2356 1453.36 Q58.43 1449.79 54.7958 1449.79 M54.7958 1446.09 Q60.6059 1446.09 63.6615 1450.7 Q66.7402 1455.28 66.7402 1464.03 Q66.7402 1472.76 63.6615 1477.36 Q60.6059 1481.95 54.7958 1481.95 Q48.9856 1481.95 45.9069 1477.36 Q42.8514 1472.76 42.8514 1464.03 Q42.8514 1455.28 45.9069 1450.7 Q48.9856 1446.09 54.7958 1446.09 Z" fill="#000000" fill-rule="evenodd" fill-opacity="1" /><path clip-path="url(#clip830)" d="M-19.602 1206 Q-23.2131 1206 -25.0418 1209.56 Q-26.8473 1213.1 -26.8473 1220.23 Q-26.8473 1227.34 -25.0418 1230.9 Q-23.2131 1234.44 -19.602 1234.44 Q-15.9677 1234.44 -14.1622 1230.9 Q-12.3335 1227.34 -12.3335 1220.23 Q-12.3335 1213.1 -14.1622 1209.56 Q-15.9677 1206 -19.602 1206 M-19.602 1202.29 Q-13.7918 1202.29 -10.7363 1206.9 Q-7.65759 1211.48 -7.65759 1220.23 Q-7.65759 1228.96 -10.7363 1233.56 Q-13.7918 1238.15 -19.602 1238.15 Q-25.4121 1238.15 -28.4908 1233.56 Q-31.5464 1228.96 -31.5464 1220.23 Q-31.5464 1211.48 -28.4908 1206.9 Q-25.4121 1202.29 -19.602 1202.29 Z" fill="#000000" fill-rule="evenodd" fill-opacity="1" /><path clip-path="url(#clip830)" d="M0.559957 1231.6 L5.44419 1231.6 L5.44419 1237.48 L0.559957 1237.48 L0.559957 1231.6 Z" fill="#000000" fill-rule="evenodd" fill-opacity="1" /><path clip-path="url(#clip830)" d="M25.6293 1206 Q22.0182 1206 20.1895 1209.56 Q18.3839 1213.1 18.3839 1220.23 Q18.3839 1227.34 20.1895 1230.9 Q22.0182 1234.44 25.6293 1234.44 Q29.2635 1234.44 31.0691 1230.9 Q32.8977 1227.34 32.8977 1220.23 Q32.8977 1213.1 31.0691 1209.56 Q29.2635 1206 25.6293 1206 M25.6293 1202.29 Q31.4394 1202.29 34.495 1206.9 Q37.5736 1211.48 37.5736 1220.23 Q37.5736 1228.96 34.495 1233.56 Q31.4394 1238.15 25.6293 1238.15 Q19.8191 1238.15 16.7404 1233.56 Q13.6849 1228.96 13.6849 1220.23 Q13.6849 1211.48 16.7404 1206.9 Q19.8191 1202.29 25.6293 1202.29 Z" fill="#000000" fill-rule="evenodd" fill-opacity="1" /><path clip-path="url(#clip830)" d="M45.8375 1202.92 L64.1939 1202.92 L64.1939 1206.85 L50.1199 1206.85 L50.1199 1215.32 Q51.1384 1214.98 52.1569 1214.81 Q53.1754 1214.63 54.1939 1214.63 Q59.9809 1214.63 63.3605 1217.8 Q66.7402 1220.97 66.7402 1226.39 Q66.7402 1231.97 63.268 1235.07 Q59.7958 1238.15 53.4763 1238.15 Q51.3004 1238.15 49.0319 1237.78 Q46.7866 1237.41 44.3792 1236.67 L44.3792 1231.97 Q46.4625 1233.1 48.6847 1233.66 Q50.9069 1234.21 53.3837 1234.21 Q57.3884 1234.21 59.7263 1232.11 Q62.0643 1230 62.0643 1226.39 Q62.0643 1222.78 59.7263 1220.67 Q57.3884 1218.56 53.3837 1218.56 Q51.5088 1218.56 49.6338 1218.98 Q47.7819 1219.4 45.8375 1220.28 L45.8375 1202.92 Z" fill="#000000" fill-rule="evenodd" fill-opacity="1" /><path clip-path="url(#clip830)" d="M-20.5973 962.197 Q-24.2084 962.197 -26.0371 965.761 Q-27.8427 969.303 -27.8427 976.433 Q-27.8427 983.539 -26.0371 987.104 Q-24.2084 990.646 -20.5973 990.646 Q-16.9631 990.646 -15.1576 987.104 Q-13.3289 983.539 -13.3289 976.433 Q-13.3289 969.303 -15.1576 965.761 Q-16.9631 962.197 -20.5973 962.197 M-20.5973 958.493 Q-14.7872 958.493 -11.7316 963.099 Q-8.65296 967.683 -8.65296 976.433 Q-8.65296 985.159 -11.7316 989.766 Q-14.7872 994.349 -20.5973 994.349 Q-26.4075 994.349 -29.4862 989.766 Q-32.5417 985.159 -32.5417 976.433 Q-32.5417 967.683 -29.4862 963.099 Q-26.4075 958.493 -20.5973 958.493 Z" fill="#000000" fill-rule="evenodd" fill-opacity="1" /><path clip-path="url(#clip830)" d="M-0.435408 987.798 L4.44882 987.798 L4.44882 993.678 L-0.435408 993.678 L-0.435408 987.798 Z" fill="#000000" fill-rule="evenodd" fill-opacity="1" /><path clip-path="url(#clip830)" d="M15.4441 989.743 L23.083 989.743 L23.083 963.377 L14.7728 965.044 L14.7728 960.785 L23.0367 959.118 L27.7126 959.118 L27.7126 989.743 L35.3514 989.743 L35.3514 993.678 L15.4441 993.678 L15.4441 989.743 Z" fill="#000000" fill-rule="evenodd" fill-opacity="1" /><path clip-path="url(#clip830)" d="M54.7958 962.197 Q51.1847 962.197 49.356 965.761 Q47.5504 969.303 47.5504 976.433 Q47.5504 983.539 49.356 987.104 Q51.1847 990.646 54.7958 990.646 Q58.43 990.646 60.2356 987.104 Q62.0643 983.539 62.0643 976.433 Q62.0643 969.303 60.2356 965.761 Q58.43 962.197 54.7958 962.197 M54.7958 958.493 Q60.6059 958.493 63.6615 963.099 Q66.7402 967.683 66.7402 976.433 Q66.7402 985.159 63.6615 989.766 Q60.6059 994.349 54.7958 994.349 Q48.9856 994.349 45.9069 989.766 Q42.8514 985.159 42.8514 976.433 Q42.8514 967.683 45.9069 963.099 Q48.9856 958.493 54.7958 958.493 Z" fill="#000000" fill-rule="evenodd" fill-opacity="1" /><path clip-path="url(#clip830)" d="M-19.602 718.398 Q-23.2131 718.398 -25.0418 721.963 Q-26.8473 725.504 -26.8473 732.634 Q-26.8473 739.74 -25.0418 743.305 Q-23.2131 746.847 -19.602 746.847 Q-15.9677 746.847 -14.1622 743.305 Q-12.3335 739.74 -12.3335 732.634 Q-12.3335 725.504 -14.1622 721.963 Q-15.9677 718.398 -19.602 718.398 M-19.602 714.694 Q-13.7918 714.694 -10.7363 719.301 Q-7.65759 723.884 -7.65759 732.634 Q-7.65759 741.361 -10.7363 745.967 Q-13.7918 750.551 -19.602 750.551 Q-25.4121 750.551 -28.4908 745.967 Q-31.5464 741.361 -31.5464 732.634 Q-31.5464 723.884 -28.4908 719.301 Q-25.4121 714.694 -19.602 714.694 Z" fill="#000000" fill-rule="evenodd" fill-opacity="1" /><path clip-path="url(#clip830)" d="M0.559957 744 L5.44419 744 L5.44419 749.879 L0.559957 749.879 L0.559957 744 Z" fill="#000000" fill-rule="evenodd" fill-opacity="1" /><path clip-path="url(#clip830)" d="M16.4395 745.944 L24.0783 745.944 L24.0783 719.579 L15.7682 721.245 L15.7682 716.986 L24.0321 715.319 L28.708 715.319 L28.708 745.944 L36.3468 745.944 L36.3468 749.879 L16.4395 749.879 L16.4395 745.944 Z" fill="#000000" fill-rule="evenodd" fill-opacity="1" /><path clip-path="url(#clip830)" d="M45.8375 715.319 L64.1939 715.319 L64.1939 719.254 L50.1199 719.254 L50.1199 727.727 Q51.1384 727.379 52.1569 727.217 Q53.1754 727.032 54.1939 727.032 Q59.9809 727.032 63.3605 730.203 Q66.7402 733.375 66.7402 738.791 Q66.7402 744.37 63.268 747.472 Q59.7958 750.551 53.4763 750.551 Q51.3004 750.551 49.0319 750.18 Q46.7866 749.81 44.3792 749.069 L44.3792 744.37 Q46.4625 745.504 48.6847 746.06 Q50.9069 746.615 53.3837 746.615 Q57.3884 746.615 59.7263 744.509 Q62.0643 742.403 62.0643 738.791 Q62.0643 735.18 59.7263 733.074 Q57.3884 730.967 53.3837 730.967 Q51.5088 730.967 49.6338 731.384 Q47.7819 731.801 45.8375 732.68 L45.8375 715.319 Z" fill="#000000" fill-rule="evenodd" fill-opacity="1" /><path clip-path="url(#clip830)" d="M-20.5973 474.599 Q-24.2084 474.599 -26.0371 478.164 Q-27.8427 481.706 -27.8427 488.835 Q-27.8427 495.942 -26.0371 499.507 Q-24.2084 503.048 -20.5973 503.048 Q-16.9631 503.048 -15.1576 499.507 Q-13.3289 495.942 -13.3289 488.835 Q-13.3289 481.706 -15.1576 478.164 Q-16.9631 474.599 -20.5973 474.599 M-20.5973 470.896 Q-14.7872 470.896 -11.7316 475.502 Q-8.65296 480.085 -8.65296 488.835 Q-8.65296 497.562 -11.7316 502.169 Q-14.7872 506.752 -20.5973 506.752 Q-26.4075 506.752 -29.4862 502.169 Q-32.5417 497.562 -32.5417 488.835 Q-32.5417 480.085 -29.4862 475.502 Q-26.4075 470.896 -20.5973 470.896 Z" fill="#000000" fill-rule="evenodd" fill-opacity="1" /><path clip-path="url(#clip830)" d="M-0.435408 500.201 L4.44882 500.201 L4.44882 506.081 L-0.435408 506.081 L-0.435408 500.201 Z" fill="#000000" fill-rule="evenodd" fill-opacity="1" /><path clip-path="url(#clip830)" d="M18.6617 502.146 L34.9811 502.146 L34.9811 506.081 L13.0367 506.081 L13.0367 502.146 Q15.6988 499.391 20.2821 494.761 Q24.8885 490.109 26.0691 488.766 Q28.3144 486.243 29.1941 484.507 Q30.0968 482.747 30.0968 481.058 Q30.0968 478.303 28.1524 476.567 Q26.2311 474.831 23.1293 474.831 Q20.9302 474.831 18.4765 475.595 Q16.046 476.359 13.2682 477.91 L13.2682 473.187 Q16.0923 472.053 18.546 471.474 Q20.9997 470.896 23.0367 470.896 Q28.407 470.896 31.6015 473.581 Q34.7959 476.266 34.7959 480.757 Q34.7959 482.886 33.9857 484.808 Q33.1987 486.706 31.0922 489.298 Q30.5135 489.97 27.4117 493.187 Q24.3098 496.382 18.6617 502.146 Z" fill="#000000" fill-rule="evenodd" fill-opacity="1" /><path clip-path="url(#clip830)" d="M54.7958 474.599 Q51.1847 474.599 49.356 478.164 Q47.5504 481.706 47.5504 488.835 Q47.5504 495.942 49.356 499.507 Q51.1847 503.048 54.7958 503.048 Q58.43 503.048 60.2356 499.507 Q62.0643 495.942 62.0643 488.835 Q62.0643 481.706 60.2356 478.164 Q58.43 474.599 54.7958 474.599 M54.7958 470.896 Q60.6059 470.896 63.6615 475.502 Q66.7402 480.085 66.7402 488.835 Q66.7402 497.562 63.6615 502.169 Q60.6059 506.752 54.7958 506.752 Q48.9856 506.752 45.9069 502.169 Q42.8514 497.562 42.8514 488.835 Q42.8514 480.085 45.9069 475.502 Q48.9856 470.896 54.7958 470.896 Z" fill="#000000" fill-rule="evenodd" fill-opacity="1" /><path clip-path="url(#clip830)" d="M-19.602 230.801 Q-23.2131 230.801 -25.0418 234.366 Q-26.8473 237.907 -26.8473 245.037 Q-26.8473 252.143 -25.0418 255.708 Q-23.2131 259.25 -19.602 259.25 Q-15.9677 259.25 -14.1622 255.708 Q-12.3335 252.143 -12.3335 245.037 Q-12.3335 237.907 -14.1622 234.366 Q-15.9677 230.801 -19.602 230.801 M-19.602 227.097 Q-13.7918 227.097 -10.7363 231.703 Q-7.65759 236.287 -7.65759 245.037 Q-7.65759 253.764 -10.7363 258.37 Q-13.7918 262.953 -19.602 262.953 Q-25.4121 262.953 -28.4908 258.37 Q-31.5464 253.764 -31.5464 245.037 Q-31.5464 236.287 -28.4908 231.703 Q-25.4121 227.097 -19.602 227.097 Z" fill="#000000" fill-rule="evenodd" fill-opacity="1" /><path clip-path="url(#clip830)" d="M0.559957 256.402 L5.44419 256.402 L5.44419 262.282 L0.559957 262.282 L0.559957 256.402 Z" fill="#000000" fill-rule="evenodd" fill-opacity="1" /><path clip-path="url(#clip830)" d="M19.6571 258.347 L35.9764 258.347 L35.9764 262.282 L14.0321 262.282 L14.0321 258.347 Q16.6941 255.592 21.2774 250.963 Q25.8839 246.31 27.0644 244.967 Q29.3098 242.444 30.1894 240.708 Q31.0922 238.949 31.0922 237.259 Q31.0922 234.504 29.1478 232.768 Q27.2265 231.032 24.1246 231.032 Q21.9256 231.032 19.4719 231.796 Q17.0413 232.56 14.2636 234.111 L14.2636 229.389 Q17.0876 228.254 19.5413 227.676 Q21.995 227.097 24.0321 227.097 Q29.4024 227.097 32.5968 229.782 Q35.7912 232.467 35.7912 236.958 Q35.7912 239.088 34.9811 241.009 Q34.194 242.907 32.0876 245.5 Q31.5089 246.171 28.407 249.389 Q25.3052 252.583 19.6571 258.347 Z" fill="#000000" fill-rule="evenodd" fill-opacity="1" /><path clip-path="url(#clip830)" d="M45.8375 227.722 L64.1939 227.722 L64.1939 231.657 L50.1199 231.657 L50.1199 240.129 Q51.1384 239.782 52.1569 239.62 Q53.1754 239.435 54.1939 239.435 Q59.9809 239.435 63.3605 242.606 Q66.7402 245.777 66.7402 251.194 Q66.7402 256.773 63.268 259.875 Q59.7958 262.953 53.4763 262.953 Q51.3004 262.953 49.0319 262.583 Q46.7866 262.213 44.3792 261.472 L44.3792 256.773 Q46.4625 257.907 48.6847 258.463 Q50.9069 259.018 53.3837 259.018 Q57.3884 259.018 59.7263 256.912 Q62.0643 254.805 62.0643 251.194 Q62.0643 247.583 59.7263 245.477 Q57.3884 243.37 53.3837 243.37 Q51.5088 243.37 49.6338 243.787 Q47.7819 244.203 45.8375 245.083 L45.8375 227.722 Z" fill="#000000" fill-rule="evenodd" fill-opacity="1" /><path clip-path="url(#clip830)" d="M-125.034 840.657 L-107.178 840.657 L-107.178 832.573 Q-107.178 828.085 -109.502 825.634 Q-111.825 823.183 -116.122 823.183 Q-120.387 823.183 -122.711 825.634 Q-125.034 828.085 -125.034 832.573 L-125.034 840.657 M-130.318 847.086 L-130.318 832.573 Q-130.318 824.584 -126.689 820.51 Q-123.093 816.404 -116.122 816.404 Q-109.088 816.404 -105.491 820.51 Q-101.895 824.584 -101.895 832.573 L-101.895 840.657 L-82.7977 840.657 L-82.7977 847.086 L-130.318 847.086 Z" fill="#000000" fill-rule="evenodd" fill-opacity="1" /><path clip-path="url(#clip830)" d="M-132.259 793.965 Q-124.939 798.23 -117.777 800.298 Q-110.616 802.367 -103.263 802.367 Q-95.9111 802.367 -88.686 800.298 Q-81.4927 798.198 -74.204 793.965 L-74.204 799.057 Q-81.6837 803.831 -88.9088 806.219 Q-96.1339 808.574 -103.263 808.574 Q-110.361 808.574 -117.554 806.219 Q-124.748 803.863 -132.259 799.057 L-132.259 793.965 Z" fill="#000000" fill-rule="evenodd" fill-opacity="1" /><path clip-path="url(#clip830)" d="M-111.603 754.847 Q-115.549 752.651 -117.427 749.596 Q-119.305 746.54 -119.305 742.402 Q-119.305 736.832 -115.39 733.809 Q-111.507 730.785 -104.314 730.785 L-82.7977 730.785 L-82.7977 736.673 L-104.123 736.673 Q-109.247 736.673 -111.73 738.487 Q-114.212 740.302 -114.212 744.026 Q-114.212 748.577 -111.189 751.219 Q-108.165 753.861 -102.945 753.861 L-82.7977 753.861 L-82.7977 759.749 L-104.123 759.749 Q-109.279 759.749 -111.73 761.563 Q-114.212 763.377 -114.212 767.165 Q-114.212 771.653 -111.157 774.295 Q-108.133 776.936 -102.945 776.936 L-82.7977 776.936 L-82.7977 782.825 L-118.446 782.825 L-118.446 776.936 L-112.908 776.936 Q-116.186 774.931 -117.745 772.13 Q-119.305 769.329 -119.305 765.478 Q-119.305 761.595 -117.332 758.89 Q-115.358 756.152 -111.603 754.847 Z" fill="#000000" fill-rule="evenodd" fill-opacity="1" /><path clip-path="url(#clip830)" d="M-132.259 720.027 L-132.259 714.934 Q-124.748 710.16 -117.554 707.805 Q-110.361 705.418 -103.263 705.418 Q-96.1339 705.418 -88.9088 707.805 Q-81.6837 710.16 -74.204 714.934 L-74.204 720.027 Q-81.4927 715.794 -88.686 713.725 Q-95.9111 711.624 -103.263 711.624 Q-110.616 711.624 -117.777 713.725 Q-124.939 715.794 -132.259 720.027 Z" fill="#000000" fill-rule="evenodd" fill-opacity="1" /><path clip-path="url(#clip832)" d="
M181.594 813.54 L181.594 1464 L223.743 1464 L223.743 813.54 L181.594 813.54 L181.594 813.54  Z
  " fill="#009af9" fill-rule="evenodd" fill-opacity="1"/>
<polyline clip-path="url(#clip832)" style="stroke:#000000; stroke-linecap:butt; stroke-linejoin:round; stroke-width:4; stroke-opacity:1; fill:none" points="
  181.594,813.54 181.594,1464 223.743,1464 223.743,813.54 181.594,813.54 
  "/>
<path clip-path="url(#clip832)" d="
M223.743 141.729 L223.743 1464 L265.893 1464 L265.893 141.729 L223.743 141.729 L223.743 141.729  Z
  " fill="#009af9" fill-rule="evenodd" fill-opacity="1"/>
<polyline clip-path="url(#clip832)" style="stroke:#000000; stroke-linecap:butt; stroke-linejoin:round; stroke-width:4; stroke-opacity:1; fill:none" points="
  223.743,141.729 223.743,1464 265.893,1464 265.893,141.729 223.743,141.729 
  "/>
<path clip-path="url(#clip832)" d="
M265.893 133.44 L265.893 1464 L308.043 1464 L308.043 133.44 L265.893 133.44 L265.893 133.44  Z
  " fill="#009af9" fill-rule="evenodd" fill-opacity="1"/>
<polyline clip-path="url(#clip832)" style="stroke:#000000; stroke-linecap:butt; stroke-linejoin:round; stroke-width:4; stroke-opacity:1; fill:none" points="
  265.893,133.44 265.893,1464 308.043,1464 308.043,133.44 265.893,133.44 
  "/>
<path clip-path="url(#clip832)" d="
M308.043 587.685 L308.043 1464 L350.192 1464 L350.192 587.685 L308.043 587.685 L308.043 587.685  Z
  " fill="#009af9" fill-rule="evenodd" fill-opacity="1"/>
<polyline clip-path="url(#clip832)" style="stroke:#000000; stroke-linecap:butt; stroke-linejoin:round; stroke-width:4; stroke-opacity:1; fill:none" points="
  308.043,587.685 308.043,1464 350.192,1464 350.192,587.685 308.043,587.685 
  "/>
<path clip-path="url(#clip832)" d="
M350.192 1024.43 L350.192 1464 L392.342 1464 L392.342 1024.43 L350.192 1024.43 L350.192 1024.43  Z
  " fill="#009af9" fill-rule="evenodd" fill-opacity="1"/>
<polyline clip-path="url(#clip832)" style="stroke:#000000; stroke-linecap:butt; stroke-linejoin:round; stroke-width:4; stroke-opacity:1; fill:none" points="
  350.192,1024.43 350.192,1464 392.342,1464 392.342,1024.43 350.192,1024.43 
  "/>
<path clip-path="url(#clip832)" d="
M392.342 1288.36 L392.342 1464 L434.492 1464 L434.492 1288.36 L392.342 1288.36 L392.342 1288.36  Z
  " fill="#009af9" fill-rule="evenodd" fill-opacity="1"/>
<polyline clip-path="url(#clip832)" style="stroke:#000000; stroke-linecap:butt; stroke-linejoin:round; stroke-width:4; stroke-opacity:1; fill:none" points="
  392.342,1288.36 392.342,1464 434.492,1464 434.492,1288.36 392.342,1288.36 
  "/>
<path clip-path="url(#clip832)" d="
M434.492 1404.31 L434.492 1464 L476.641 1464 L476.641 1404.31 L434.492 1404.31 L434.492 1404.31  Z
  " fill="#009af9" fill-rule="evenodd" fill-opacity="1"/>
<polyline clip-path="url(#clip832)" style="stroke:#000000; stroke-linecap:butt; stroke-linejoin:round; stroke-width:4; stroke-opacity:1; fill:none" points="
  434.492,1404.31 434.492,1464 476.641,1464 476.641,1404.31 434.492,1404.31 
  "/>
<path clip-path="url(#clip832)" d="
M476.641 1447.76 L476.641 1464 L518.791 1464 L518.791 1447.76 L476.641 1447.76 L476.641 1447.76  Z
  " fill="#009af9" fill-rule="evenodd" fill-opacity="1"/>
<polyline clip-path="url(#clip832)" style="stroke:#000000; stroke-linecap:butt; stroke-linejoin:round; stroke-width:4; stroke-opacity:1; fill:none" points="
  476.641,1447.76 476.641,1464 518.791,1464 518.791,1447.76 476.641,1447.76 
  "/>
<path clip-path="url(#clip832)" d="
M518.791 1459.9 L518.791 1464 L560.941 1464 L560.941 1459.9 L518.791 1459.9 L518.791 1459.9  Z
  " fill="#009af9" fill-rule="evenodd" fill-opacity="1"/>
<polyline clip-path="url(#clip832)" style="stroke:#000000; stroke-linecap:butt; stroke-linejoin:round; stroke-width:4; stroke-opacity:1; fill:none" points="
  518.791,1459.9 518.791,1464 560.941,1464 560.941,1459.9 518.791,1459.9 
  "/>
<path clip-path="url(#clip832)" d="
M560.941 1463.26 L560.941 1464 L603.09 1464 L603.09 1463.26 L560.941 1463.26 L560.941 1463.26  Z
  " fill="#009af9" fill-rule="evenodd" fill-opacity="1"/>
<polyline clip-path="url(#clip832)" style="stroke:#000000; stroke-linecap:butt; stroke-linejoin:round; stroke-width:4; stroke-opacity:1; fill:none" points="
  560.941,1463.26 560.941,1464 603.09,1464 603.09,1463.26 560.941,1463.26 
  "/>
<path clip-path="url(#clip832)" d="
M603.09 1463.61 L603.09 1464 L645.24 1464 L645.24 1463.61 L603.09 1463.61 L603.09 1463.61  Z
  " fill="#009af9" fill-rule="evenodd" fill-opacity="1"/>
<polyline clip-path="url(#clip832)" style="stroke:#000000; stroke-linecap:butt; stroke-linejoin:round; stroke-width:4; stroke-opacity:1; fill:none" points="
  603.09,1463.61 603.09,1464 645.24,1464 645.24,1463.61 603.09,1463.61 
  "/>
<path clip-path="url(#clip832)" d="
M645.24 1463.95 L645.24 1464 L687.39 1464 L687.39 1463.95 L645.24 1463.95 L645.24 1463.95  Z
  " fill="#009af9" fill-rule="evenodd" fill-opacity="1"/>
<polyline clip-path="url(#clip832)" style="stroke:#000000; stroke-linecap:butt; stroke-linejoin:round; stroke-width:4; stroke-opacity:1; fill:none" points="
  645.24,1463.95 645.24,1464 687.39,1464 687.39,1463.95 645.24,1463.95 
  "/>
<polyline clip-path="url(#clip832)" style="stroke:#e26f46; stroke-linecap:butt; stroke-linejoin:round; stroke-width:4; stroke-opacity:1; fill:none" points="
  265.893,2963.28 265.893,-1410.77 
  "/>
<polyline clip-path="url(#clip832)" style="stroke:#3da44d; stroke-linecap:butt; stroke-linejoin:round; stroke-width:4; stroke-opacity:1; fill:none" points="
  266,2963.28 266,-1410.77 
  "/>
<polyline clip-path="url(#clip832)" style="stroke:#c271d2; stroke-linecap:butt; stroke-linejoin:round; stroke-width:12; stroke-opacity:1; fill:none" points="
  181.594,957.982 185.809,906.16 190.024,852.099 194.239,796.146 198.454,738.712 202.669,680.267 206.884,621.336 211.098,562.493 215.313,504.351 219.528,447.554 
  223.743,392.765 227.958,340.654 232.173,291.883 236.388,247.094 240.603,206.895 244.818,171.845 249.033,142.442 253.248,119.112 257.463,102.195 261.678,91.9431 
  265.893,88.5087 270.108,91.9431 274.323,102.195 278.538,119.112 282.753,142.442 286.968,171.845 291.183,206.895 295.398,247.094 299.613,291.883 303.828,340.654 
  308.043,392.765 312.258,447.554 316.473,504.351 320.688,562.493 324.903,621.336 329.117,680.267 333.332,738.712 337.547,796.146 341.762,852.099 345.977,906.16 
  350.192,957.982 354.407,1007.28 358.622,1053.83 362.837,1097.47 367.052,1138.1 371.267,1175.68 375.482,1210.19 379.697,1241.69 383.912,1270.25 388.127,1295.98 
  392.342,1319.02 396.557,1339.53 400.772,1357.66 404.987,1373.61 409.202,1387.55 413.417,1399.66 417.632,1410.13 421.847,1419.11 426.062,1426.79 430.277,1433.3 
  434.492,1438.8 438.707,1443.42 442.922,1447.28 447.137,1450.48 451.351,1453.12 455.566,1455.29 459.781,1457.06 463.996,1458.5 468.211,1459.66 472.426,1460.59 
  476.641,1461.34 480.856,1461.93 485.071,1462.4 489.286,1462.77 493.501,1463.06 497.716,1463.28 501.931,1463.45 506.146,1463.59 510.361,1463.69 514.576,1463.77 
  518.791,1463.83 523.006,1463.87 527.221,1463.9 531.436,1463.93 535.651,1463.95 539.866,1463.96 544.081,1463.97 548.296,1463.98 552.511,1463.98 556.726,1463.99 
  560.941,1463.99 565.156,1463.99 569.371,1463.99 573.585,1463.99 577.8,1463.99 582.015,1463.99 586.23,1463.99 590.445,1463.99 594.66,1463.99 598.875,1464 
  603.09,1464 607.305,1464 611.52,1464 615.735,1464 619.95,1464 624.165,1464 628.38,1464 632.595,1464 636.81,1464 641.025,1464 
  645.24,1464 649.455,1464 653.67,1464 657.885,1464 662.1,1464 666.315,1464 670.53,1464 674.745,1464 678.96,1464 683.175,1464 
  687.39,1464 691.604,1464 695.819,1464 700.034,1464 704.249,1464 708.464,1464 712.679,1464 716.894,1464 721.109,1464 725.324,1464 
  729.539,1464 733.754,1464 737.969,1464 742.184,1464 746.399,1464 750.614,1464 754.829,1464 759.044,1464 763.259,1464 767.474,1464 
  771.689,1464 775.904,1464 780.119,1464 784.334,1464 788.549,1464 792.764,1464 796.979,1464 801.194,1464 805.409,1464 809.624,1464 
  813.838,1464 818.053,1464 822.268,1464 826.483,1464 830.698,1464 834.913,1464 839.128,1464 843.343,1464 847.558,1464 851.773,1464 
  855.988,1464 860.203,1464 864.418,1464 868.633,1464 872.848,1464 877.063,1464 881.278,1464 885.493,1464 889.708,1464 893.923,1464 
  898.138,1464 902.353,1464 906.568,1464 910.783,1464 914.998,1464 919.213,1464 923.428,1464 927.643,1464 931.857,1464 936.072,1464 
  940.287,1464 944.502,1464 948.717,1464 952.932,1464 957.147,1464 961.362,1464 965.577,1464 969.792,1464 974.007,1464 978.222,1464 
  982.437,1464 986.652,1464 990.867,1464 995.082,1464 999.297,1464 1003.51,1464 1007.73,1464 1011.94,1464 1016.16,1464 1020.37,1464 
  1024.59,1464 1028.8,1464 1033.02,1464 1037.23,1464 1041.45,1464 1045.66,1464 1049.88,1464 1054.09,1464 1058.31,1464 1062.52,1464 
  1066.74,1464 1070.95,1464 1075.17,1464 1079.38,1464 1083.6,1464 1087.81,1464 1092.03,1464 1096.24,1464 1100.46,1464 1104.67,1464 
  1108.89,1464 1113.1,1464 1117.32,1464 1121.53,1464 1125.75,1464 1129.96,1464 1134.18,1464 1138.39,1464 1142.61,1464 1146.82,1464 
  1151.04,1464 1155.25,1464 1159.47,1464 1163.68,1464 1167.9,1464 1172.11,1464 1176.33,1464 1180.54,1464 1184.76,1464 1188.97,1464 
  1193.19,1464 1197.4,1464 1201.62,1464 1205.83,1464 1210.05,1464 1214.26,1464 1218.48,1464 1222.69,1464 1226.91,1464 1231.12,1464 
  1235.33,1464 1239.55,1464 1243.76,1464 1247.98,1464 1252.19,1464 1256.41,1464 1260.62,1464 1264.84,1464 1269.05,1464 1273.27,1464 
  1277.48,1464 1281.7,1464 1285.91,1464 1290.13,1464 1294.34,1464 1298.56,1464 1302.77,1464 1306.99,1464 1311.2,1464 1315.42,1464 
  1319.63,1464 1323.85,1464 1328.06,1464 1332.28,1464 1336.49,1464 1340.71,1464 1344.92,1464 1349.14,1464 1353.35,1464 1357.57,1464 
  1361.78,1464 1366,1464 1370.21,1464 1374.43,1464 1378.64,1464 1382.86,1464 1387.07,1464 1391.29,1464 1395.5,1464 1399.72,1464 
  1403.93,1464 1408.15,1464 1412.36,1464 1416.58,1464 1420.79,1464 1425.01,1464 1429.22,1464 1433.44,1464 1437.65,1464 1441.87,1464 
  1446.08,1464 1450.3,1464 1454.51,1464 1458.73,1464 1462.94,1464 1467.16,1464 1471.37,1464 1475.59,1464 1479.8,1464 1484.02,1464 
  1488.23,1464 1492.45,1464 1496.66,1464 1500.88,1464 1505.09,1464 1509.31,1464 1513.52,1464 1517.74,1464 1521.95,1464 1526.17,1464 
  1530.38,1464 1534.6,1464 1538.81,1464 1543.03,1464 1547.24,1464 1551.46,1464 1555.67,1464 1559.89,1464 1564.1,1464 1568.32,1464 
  1572.53,1464 1576.75,1464 1580.96,1464 1585.18,1464 1589.39,1464 1593.61,1464 1597.82,1464 1602.04,1464 1606.25,1464 1610.47,1464 
  1614.68,1464 1618.9,1464 1623.11,1464 1627.33,1464 1631.54,1464 1635.76,1464 1639.97,1464 1644.19,1464 1648.4,1464 1652.62,1464 
  1656.83,1464 1661.05,1464 1665.26,1464 1669.48,1464 1673.69,1464 1677.91,1464 1682.12,1464 1686.34,1464 1690.55,1464 1694.77,1464 
  1698.98,1464 1703.2,1464 1707.41,1464 1711.63,1464 1715.84,1464 1720.06,1464 1724.27,1464 1728.49,1464 1732.7,1464 1736.92,1464 
  1741.13,1464 1745.35,1464 1749.56,1464 1753.78,1464 1757.99,1464 1762.21,1464 1766.42,1464 1770.64,1464 1774.85,1464 1779.07,1464 
  1783.28,1464 1787.5,1464 1791.71,1464 1795.93,1464 1800.14,1464 1804.36,1464 1808.57,1464 1812.79,1464 1817,1464 1821.22,1464 
  1825.43,1464 1829.65,1464 1833.86,1464 1838.07,1464 1842.29,1464 1846.5,1464 1850.72,1464 1854.93,1464 1859.15,1464 1863.36,1464 
  1867.58,1464 1871.79,1464 1876.01,1464 1880.22,1464 1884.44,1464 1888.65,1464 1892.87,1464 1897.08,1464 1901.3,1464 1905.51,1464 
  1909.73,1464 1913.94,1464 1918.16,1464 1922.37,1464 1926.59,1464 1930.8,1464 1935.02,1464 1939.23,1464 1943.45,1464 1947.66,1464 
  1951.88,1464 1956.09,1464 1960.31,1464 1964.52,1464 1968.74,1464 1972.95,1464 1977.17,1464 1981.38,1464 1985.6,1464 1989.81,1464 
  1994.03,1464 1998.24,1464 2002.46,1464 2006.67,1464 2010.89,1464 2015.1,1464 2019.32,1464 2023.53,1464 2027.75,1464 2031.96,1464 
  2036.18,1464 2040.39,1464 2044.61,1464 2048.82,1464 2053.04,1464 2057.25,1464 2061.47,1464 2065.68,1464 2069.9,1464 2074.11,1464 
  2078.33,1464 2082.54,1464 2086.76,1464 2090.97,1464 2095.19,1464 2099.4,1464 2103.62,1464 2107.83,1464 2112.05,1464 2116.26,1464 
  2120.48,1464 2124.69,1464 2128.91,1464 2133.12,1464 2137.34,1464 2141.55,1464 2145.77,1464 2149.98,1464 2154.2,1464 2158.41,1464 
  2162.63,1464 2166.84,1464 2171.06,1464 2175.27,1464 2179.49,1464 2183.7,1464 2187.92,1464 2192.13,1464 2196.35,1464 2200.56,1464 
  2204.78,1464 2208.99,1464 2213.21,1464 2217.42,1464 2221.64,1464 2225.85,1464 2230.07,1464 2234.28,1464 2238.5,1464 2242.71,1464 
  2246.93,1464 2251.14,1464 2255.36,1464 2259.57,1464 2263.79,1464 2268,1464 2272.22,1464 2276.43,1464 2280.65,1464 2284.86,1464 
  2289.08,1464 
  "/>
<polyline clip-path="url(#clip832)" style="stroke:#ac8d18; stroke-linecap:butt; stroke-linejoin:round; stroke-width:12; stroke-opacity:1; fill:none" points="
  181.594,1463.77 185.809,1463.7 190.024,1463.61 194.239,1463.5 198.454,1463.37 202.669,1463.21 206.884,1463.01 211.098,1462.77 215.313,1462.5 219.528,1462.17 
  223.743,1461.78 227.958,1461.33 232.173,1460.81 236.388,1460.21 240.603,1459.52 244.818,1458.73 249.033,1457.83 253.248,1456.81 257.463,1455.66 261.678,1454.37 
  265.893,1452.93 270.108,1451.31 274.323,1449.52 278.538,1447.54 282.753,1445.34 286.968,1442.93 291.183,1440.29 295.398,1437.39 299.613,1434.24 303.828,1430.81 
  308.043,1427.1 312.258,1423.09 316.473,1418.76 320.688,1414.12 324.903,1409.14 329.117,1403.81 333.332,1398.14 337.547,1392.1 341.762,1385.69 345.977,1378.91 
  350.192,1371.76 354.407,1364.22 358.622,1356.3 362.837,1348 367.052,1339.32 371.267,1330.26 375.482,1320.82 379.697,1311.02 383.912,1300.87 388.127,1290.36 
  392.342,1279.52 396.557,1268.36 400.772,1256.89 404.987,1245.14 409.202,1233.11 413.417,1220.83 417.632,1208.33 421.847,1195.62 426.062,1182.74 430.277,1169.7 
  434.492,1156.54 438.707,1143.28 442.922,1129.96 447.137,1116.6 451.351,1103.23 455.566,1089.9 459.781,1076.62 463.996,1063.44 468.211,1050.38 472.426,1037.48 
  476.641,1024.77 480.856,1012.29 485.071,1000.05 489.286,988.109 493.501,976.481 497.716,965.2 501.931,954.295 506.146,943.793 510.361,933.721 514.576,924.104 
  518.791,914.965 523.006,906.328 527.221,898.213 531.436,890.638 535.651,883.621 539.866,877.177 544.081,871.32 548.296,866.061 552.511,861.41 556.726,857.375 
  560.941,853.962 565.156,851.174 569.371,849.014 573.585,847.482 577.8,846.576 582.015,846.292 586.23,846.625 590.445,847.568 594.66,849.113 598.875,851.248 
  603.09,853.962 607.305,857.242 611.52,861.073 615.735,865.439 619.95,870.323 624.165,875.706 628.38,881.571 632.595,887.895 636.81,894.66 641.025,901.842 
  645.24,909.42 649.455,917.371 653.67,925.672 657.885,934.299 662.1,943.23 666.315,952.44 670.53,961.905 674.745,971.602 678.96,981.507 683.175,991.597 
  687.39,1001.85 691.604,1012.24 695.819,1022.75 700.034,1033.35 704.249,1044.02 708.464,1054.75 712.679,1065.51 716.894,1076.28 721.109,1087.05 725.324,1097.8 
  729.539,1108.5 733.754,1119.14 737.969,1129.72 742.184,1140.2 746.399,1150.58 750.614,1160.85 754.829,1170.99 759.044,1180.99 763.259,1190.85 767.474,1200.54 
  771.689,1210.07 775.904,1219.42 780.119,1228.59 784.334,1237.57 788.549,1246.35 792.764,1254.93 796.979,1263.31 801.194,1271.48 805.409,1279.44 809.624,1287.18 
  813.838,1294.71 818.053,1302.02 822.268,1309.12 826.483,1316 830.698,1322.67 834.913,1329.11 839.128,1335.35 843.343,1341.37 847.558,1347.19 851.773,1352.79 
  855.988,1358.19 860.203,1363.39 864.418,1368.39 868.633,1373.2 872.848,1377.82 877.063,1382.25 881.278,1386.5 885.493,1390.57 889.708,1394.47 893.923,1398.19 
  898.138,1401.76 902.353,1405.16 906.568,1408.41 910.783,1411.51 914.998,1414.47 919.213,1417.28 923.428,1419.96 927.643,1422.51 931.857,1424.93 936.072,1427.23 
  940.287,1429.42 944.502,1431.49 948.717,1433.46 952.932,1435.32 957.147,1437.08 961.362,1438.75 965.577,1440.32 969.792,1441.81 974.007,1443.22 978.222,1444.55 
  982.437,1445.8 986.652,1446.98 990.867,1448.09 995.082,1449.14 999.297,1450.12 1003.51,1451.05 1007.73,1451.92 1011.94,1452.73 1016.16,1453.5 1020.37,1454.22 
  1024.59,1454.9 1028.8,1455.53 1033.02,1456.12 1037.23,1456.68 1041.45,1457.19 1045.66,1457.68 1049.88,1458.13 1054.09,1458.56 1058.31,1458.95 1062.52,1459.32 
  1066.74,1459.66 1070.95,1459.98 1075.17,1460.28 1079.38,1460.56 1083.6,1460.82 1087.81,1461.06 1092.03,1461.28 1096.24,1461.49 1100.46,1461.68 1104.67,1461.86 
  1108.89,1462.03 1113.1,1462.18 1117.32,1462.32 1121.53,1462.45 1125.75,1462.58 1129.96,1462.69 1134.18,1462.79 1138.39,1462.89 1142.61,1462.98 1146.82,1463.06 
  1151.04,1463.14 1155.25,1463.21 1159.47,1463.27 1163.68,1463.33 1167.9,1463.39 1172.11,1463.44 1176.33,1463.49 1180.54,1463.53 1184.76,1463.57 1188.97,1463.61 
  1193.19,1463.64 1197.4,1463.67 1201.62,1463.7 1205.83,1463.72 1210.05,1463.75 1214.26,1463.77 1218.48,1463.79 1222.69,1463.81 1226.91,1463.82 1231.12,1463.84 
  1235.33,1463.85 1239.55,1463.87 1243.76,1463.88 1247.98,1463.89 1252.19,1463.9 1256.41,1463.91 1260.62,1463.91 1264.84,1463.92 1269.05,1463.93 1273.27,1463.93 
  1277.48,1463.94 1281.7,1463.95 1285.91,1463.95 1290.13,1463.95 1294.34,1463.96 1298.56,1463.96 1302.77,1463.96 1306.99,1463.97 1311.2,1463.97 1315.42,1463.97 
  1319.63,1463.97 1323.85,1463.98 1328.06,1463.98 1332.28,1463.98 1336.49,1463.98 1340.71,1463.98 1344.92,1463.98 1349.14,1463.99 1353.35,1463.99 1357.57,1463.99 
  1361.78,1463.99 1366,1463.99 1370.21,1463.99 1374.43,1463.99 1378.64,1463.99 1382.86,1463.99 1387.07,1463.99 1391.29,1463.99 1395.5,1463.99 1399.72,1463.99 
  1403.93,1463.99 1408.15,1463.99 1412.36,1463.99 1416.58,1463.99 1420.79,1463.99 1425.01,1463.99 1429.22,1463.99 1433.44,1463.99 1437.65,1463.99 1441.87,1463.99 
  1446.08,1463.99 1450.3,1463.99 1454.51,1463.99 1458.73,1463.99 1462.94,1463.99 1467.16,1463.99 1471.37,1463.99 1475.59,1463.99 1479.8,1463.99 1484.02,1463.99 
  1488.23,1463.99 1492.45,1464 1496.66,1464 1500.88,1464 1505.09,1464 1509.31,1464 1513.52,1464 1517.74,1464 1521.95,1464 1526.17,1464 
  1530.38,1464 1534.6,1464 1538.81,1464 1543.03,1464 1547.24,1464 1551.46,1464 1555.67,1464 1559.89,1464 1564.1,1464 1568.32,1464 
  1572.53,1464 1576.75,1464 1580.96,1464 1585.18,1464 1589.39,1464 1593.61,1464 1597.82,1464 1602.04,1464 1606.25,1464 1610.47,1464 
  1614.68,1464 1618.9,1464 1623.11,1464 1627.33,1464 1631.54,1464 1635.76,1464 1639.97,1464 1644.19,1464 1648.4,1464 1652.62,1464 
  1656.83,1464 1661.05,1464 1665.26,1464 1669.48,1464 1673.69,1464 1677.91,1464 1682.12,1464 1686.34,1464 1690.55,1464 1694.77,1464 
  1698.98,1464 1703.2,1464 1707.41,1464 1711.63,1464 1715.84,1464 1720.06,1464 1724.27,1464 1728.49,1464 1732.7,1464 1736.92,1464 
  1741.13,1464 1745.35,1464 1749.56,1464 1753.78,1464 1757.99,1464 1762.21,1464 1766.42,1464 1770.64,1464 1774.85,1464 1779.07,1464 
  1783.28,1464 1787.5,1464 1791.71,1464 1795.93,1464 1800.14,1464 1804.36,1464 1808.57,1464 1812.79,1464 1817,1464 1821.22,1464 
  1825.43,1464 1829.65,1464 1833.86,1464 1838.07,1464 1842.29,1464 1846.5,1464 1850.72,1464 1854.93,1464 1859.15,1464 1863.36,1464 
  1867.58,1464 1871.79,1464 1876.01,1464 1880.22,1464 1884.44,1464 1888.65,1464 1892.87,1464 1897.08,1464 1901.3,1464 1905.51,1464 
  1909.73,1464 1913.94,1464 1918.16,1464 1922.37,1464 1926.59,1464 1930.8,1464 1935.02,1464 1939.23,1464 1943.45,1464 1947.66,1464 
  1951.88,1464 1956.09,1464 1960.31,1464 1964.52,1464 1968.74,1464 1972.95,1464 1977.17,1464 1981.38,1464 1985.6,1464 1989.81,1464 
  1994.03,1464 1998.24,1464 2002.46,1464 2006.67,1464 2010.89,1464 2015.1,1464 2019.32,1464 2023.53,1464 2027.75,1464 2031.96,1464 
  2036.18,1464 2040.39,1464 2044.61,1464 2048.82,1464 2053.04,1464 2057.25,1464 2061.47,1464 2065.68,1464 2069.9,1464 2074.11,1464 
  2078.33,1464 2082.54,1464 2086.76,1464 2090.97,1464 2095.19,1464 2099.4,1464 2103.62,1464 2107.83,1464 2112.05,1464 2116.26,1464 
  2120.48,1464 2124.69,1464 2128.91,1464 2133.12,1464 2137.34,1464 2141.55,1464 2145.77,1464 2149.98,1464 2154.2,1464 2158.41,1464 
  2162.63,1464 2166.84,1464 2171.06,1464 2175.27,1464 2179.49,1464 2183.7,1464 2187.92,1464 2192.13,1464 2196.35,1464 2200.56,1464 
  2204.78,1464 2208.99,1464 2213.21,1464 2217.42,1464 2221.64,1464 2225.85,1464 2230.07,1464 2234.28,1464 2238.5,1464 2242.71,1464 
  2246.93,1464 2251.14,1464 2255.36,1464 2259.57,1464 2263.79,1464 2268,1464 2272.22,1464 2276.43,1464 2280.65,1464 2284.86,1464 
  2289.08,1464 
  "/>
<path clip-path="url(#clip830)" d="
M1629.08 458.725 L2277.76 458.725 L2277.76 95.8446 L1629.08 95.8446  Z
  " fill="#ffffff" fill-rule="evenodd" fill-opacity="1"/>
<polyline clip-path="url(#clip830)" style="stroke:#000000; stroke-linecap:butt; stroke-linejoin:round; stroke-width:4; stroke-opacity:1; fill:none" points="
  1629.08,458.725 2277.76,458.725 2277.76,95.8446 1629.08,95.8446 1629.08,458.725 
  "/>
<path clip-path="url(#clip830)" d="
M1654.08 180.517 L1804.08 180.517 L1804.08 132.133 L1654.08 132.133 L1654.08 180.517  Z
  " fill="#009af9" fill-rule="evenodd" fill-opacity="1"/>
<polyline clip-path="url(#clip830)" style="stroke:#000000; stroke-linecap:butt; stroke-linejoin:round; stroke-width:4; stroke-opacity:1; fill:none" points="
  1654.08,180.517 1804.08,180.517 1804.08,132.133 1654.08,132.133 1654.08,180.517 
  "/>
<path clip-path="url(#clip830)" d="M1842.92 176.012 Q1841.11 180.642 1839.4 182.054 Q1837.69 183.466 1834.82 183.466 L1831.41 183.466 L1831.41 179.901 L1833.91 179.901 Q1835.67 179.901 1836.65 179.068 Q1837.62 178.234 1838.8 175.132 L1839.56 173.188 L1829.08 147.679 L1833.59 147.679 L1841.69 167.957 L1849.79 147.679 L1854.31 147.679 L1842.92 176.012 Z" fill="#000000" fill-rule="evenodd" fill-opacity="1" /><path clip-path="url(#clip830)" d="M1861.6 169.669 L1869.24 169.669 L1869.24 143.304 L1860.93 144.971 L1860.93 140.711 L1869.19 139.045 L1873.87 139.045 L1873.87 169.669 L1881.51 169.669 L1881.51 173.605 L1861.6 173.605 L1861.6 169.669 Z" fill="#000000" fill-rule="evenodd" fill-opacity="1" /><polyline clip-path="url(#clip830)" style="stroke:#e26f46; stroke-linecap:butt; stroke-linejoin:round; stroke-width:4; stroke-opacity:1; fill:none" points="
  1654.08,216.805 1804.08,216.805 
  "/>
<path clip-path="url(#clip830)" d="M1836.48 200.798 L1836.48 208.159 L1845.26 208.159 L1845.26 211.469 L1836.48 211.469 L1836.48 225.543 Q1836.48 228.714 1837.34 229.617 Q1838.22 230.52 1840.88 230.52 L1845.26 230.52 L1845.26 234.085 L1840.88 234.085 Q1835.95 234.085 1834.08 232.256 Q1832.2 230.404 1832.2 225.543 L1832.2 211.469 L1829.08 211.469 L1829.08 208.159 L1832.2 208.159 L1832.2 200.798 L1836.48 200.798 Z" fill="#000000" fill-rule="evenodd" fill-opacity="1" /><path clip-path="url(#clip830)" d="M1872.41 218.437 L1872.41 234.085 L1868.15 234.085 L1868.15 218.575 Q1868.15 214.895 1866.72 213.066 Q1865.28 211.238 1862.41 211.238 Q1858.96 211.238 1856.97 213.437 Q1854.98 215.636 1854.98 219.432 L1854.98 234.085 L1850.7 234.085 L1850.7 198.066 L1854.98 198.066 L1854.98 212.187 Q1856.51 209.849 1858.57 208.691 Q1860.65 207.534 1863.36 207.534 Q1867.83 207.534 1870.12 210.312 Q1872.41 213.066 1872.41 218.437 Z" fill="#000000" fill-rule="evenodd" fill-opacity="1" /><path clip-path="url(#clip830)" d="M1903.08 220.057 L1903.08 222.14 L1883.5 222.14 Q1883.78 226.538 1886.14 228.853 Q1888.52 231.145 1892.76 231.145 Q1895.21 231.145 1897.5 230.543 Q1899.82 229.941 1902.09 228.737 L1902.09 232.765 Q1899.79 233.737 1897.39 234.247 Q1894.98 234.756 1892.5 234.756 Q1886.3 234.756 1882.66 231.145 Q1879.05 227.534 1879.05 221.376 Q1879.05 215.011 1882.48 211.284 Q1885.93 207.534 1891.76 207.534 Q1896.99 207.534 1900.03 210.913 Q1903.08 214.27 1903.08 220.057 M1898.82 218.807 Q1898.78 215.312 1896.85 213.228 Q1894.96 211.145 1891.81 211.145 Q1888.24 211.145 1886.09 213.159 Q1883.96 215.173 1883.64 218.83 L1898.82 218.807 Z" fill="#000000" fill-rule="evenodd" fill-opacity="1" /><path clip-path="url(#clip830)" d="M1920.12 211.145 Q1916.69 211.145 1914.7 213.83 Q1912.71 216.492 1912.71 221.145 Q1912.71 225.798 1914.68 228.483 Q1916.67 231.145 1920.12 231.145 Q1923.52 231.145 1925.51 228.46 Q1927.5 225.774 1927.5 221.145 Q1927.5 216.538 1925.51 213.853 Q1923.52 211.145 1920.12 211.145 M1920.12 207.534 Q1925.67 207.534 1928.84 211.145 Q1932.02 214.756 1932.02 221.145 Q1932.02 227.511 1928.84 231.145 Q1925.67 234.756 1920.12 234.756 Q1914.54 234.756 1911.37 231.145 Q1908.22 227.511 1908.22 221.145 Q1908.22 214.756 1911.37 211.145 Q1914.54 207.534 1920.12 207.534 Z" fill="#000000" fill-rule="evenodd" fill-opacity="1" /><path clip-path="url(#clip830)" d="M1954.1 212.14 Q1953.38 211.724 1952.53 211.538 Q1951.69 211.33 1950.67 211.33 Q1947.06 211.33 1945.12 213.691 Q1943.2 216.029 1943.2 220.427 L1943.2 234.085 L1938.91 234.085 L1938.91 208.159 L1943.2 208.159 L1943.2 212.187 Q1944.54 209.825 1946.69 208.691 Q1948.84 207.534 1951.92 207.534 Q1952.36 207.534 1952.9 207.603 Q1953.43 207.65 1954.08 207.765 L1954.1 212.14 Z" fill="#000000" fill-rule="evenodd" fill-opacity="1" /><path clip-path="url(#clip830)" d="M1979.7 220.057 L1979.7 222.14 L1960.12 222.14 Q1960.4 226.538 1962.76 228.853 Q1965.14 231.145 1969.38 231.145 Q1971.83 231.145 1974.12 230.543 Q1976.44 229.941 1978.71 228.737 L1978.71 232.765 Q1976.41 233.737 1974.01 234.247 Q1971.6 234.756 1969.12 234.756 Q1962.92 234.756 1959.28 231.145 Q1955.67 227.534 1955.67 221.376 Q1955.67 215.011 1959.1 211.284 Q1962.55 207.534 1968.38 207.534 Q1973.61 207.534 1976.65 210.913 Q1979.7 214.27 1979.7 220.057 M1975.44 218.807 Q1975.4 215.312 1973.47 213.228 Q1971.58 211.145 1968.43 211.145 Q1964.86 211.145 1962.71 213.159 Q1960.58 215.173 1960.26 218.83 L1975.44 218.807 Z" fill="#000000" fill-rule="evenodd" fill-opacity="1" /><path clip-path="url(#clip830)" d="M1990.9 200.798 L1990.9 208.159 L1999.68 208.159 L1999.68 211.469 L1990.9 211.469 L1990.9 225.543 Q1990.9 228.714 1991.76 229.617 Q1992.64 230.52 1995.3 230.52 L1999.68 230.52 L1999.68 234.085 L1995.3 234.085 Q1990.37 234.085 1988.5 232.256 Q1986.62 230.404 1986.62 225.543 L1986.62 211.469 L1983.5 211.469 L1983.5 208.159 L1986.62 208.159 L1986.62 200.798 L1990.9 200.798 Z" fill="#000000" fill-rule="evenodd" fill-opacity="1" /><path clip-path="url(#clip830)" d="M2005.28 208.159 L2009.54 208.159 L2009.54 234.085 L2005.28 234.085 L2005.28 208.159 M2005.28 198.066 L2009.54 198.066 L2009.54 203.46 L2005.28 203.46 L2005.28 198.066 Z" fill="#000000" fill-rule="evenodd" fill-opacity="1" /><path clip-path="url(#clip830)" d="M2037.11 209.154 L2037.11 213.136 Q2035.3 212.14 2033.47 211.654 Q2031.67 211.145 2029.82 211.145 Q2025.67 211.145 2023.38 213.784 Q2021.09 216.4 2021.09 221.145 Q2021.09 225.89 2023.38 228.529 Q2025.67 231.145 2029.82 231.145 Q2031.67 231.145 2033.47 230.659 Q2035.3 230.149 2037.11 229.154 L2037.11 233.089 Q2035.33 233.923 2033.4 234.339 Q2031.51 234.756 2029.35 234.756 Q2023.5 234.756 2020.05 231.075 Q2016.6 227.395 2016.6 221.145 Q2016.6 214.802 2020.07 211.168 Q2023.57 207.534 2029.63 207.534 Q2031.6 207.534 2033.47 207.951 Q2035.35 208.344 2037.11 209.154 Z" fill="#000000" fill-rule="evenodd" fill-opacity="1" /><path clip-path="url(#clip830)" d="M2056.3 221.052 Q2051.14 221.052 2049.14 222.233 Q2047.15 223.413 2047.15 226.261 Q2047.15 228.529 2048.64 229.872 Q2050.14 231.191 2052.71 231.191 Q2056.25 231.191 2058.38 228.691 Q2060.53 226.168 2060.53 222.001 L2060.53 221.052 L2056.3 221.052 M2064.79 219.293 L2064.79 234.085 L2060.53 234.085 L2060.53 230.149 Q2059.08 232.511 2056.9 233.645 Q2054.72 234.756 2051.58 234.756 Q2047.59 234.756 2045.23 232.534 Q2042.89 230.288 2042.89 226.538 Q2042.89 222.163 2045.81 219.941 Q2048.75 217.719 2054.56 217.719 L2060.53 217.719 L2060.53 217.302 Q2060.53 214.363 2058.59 212.765 Q2056.67 211.145 2053.17 211.145 Q2050.95 211.145 2048.84 211.677 Q2046.74 212.21 2044.79 213.275 L2044.79 209.339 Q2047.13 208.437 2049.33 207.997 Q2051.53 207.534 2053.61 207.534 Q2059.24 207.534 2062.02 210.45 Q2064.79 213.367 2064.79 219.293 Z" fill="#000000" fill-rule="evenodd" fill-opacity="1" /><path clip-path="url(#clip830)" d="M2073.57 198.066 L2077.83 198.066 L2077.83 234.085 L2073.57 234.085 L2073.57 198.066 Z" fill="#000000" fill-rule="evenodd" fill-opacity="1" /><path clip-path="url(#clip830)" d="M2121.99 213.136 Q2123.59 210.265 2125.81 208.9 Q2128.03 207.534 2131.04 207.534 Q2135.09 207.534 2137.29 210.381 Q2139.49 213.205 2139.49 218.437 L2139.49 234.085 L2135.21 234.085 L2135.21 218.575 Q2135.21 214.849 2133.89 213.043 Q2132.57 211.238 2129.86 211.238 Q2126.55 211.238 2124.63 213.437 Q2122.71 215.636 2122.71 219.432 L2122.71 234.085 L2118.43 234.085 L2118.43 218.575 Q2118.43 214.825 2117.11 213.043 Q2115.79 211.238 2113.03 211.238 Q2109.77 211.238 2107.85 213.46 Q2105.93 215.659 2105.93 219.432 L2105.93 234.085 L2101.64 234.085 L2101.64 208.159 L2105.93 208.159 L2105.93 212.187 Q2107.39 209.802 2109.42 208.668 Q2111.46 207.534 2114.26 207.534 Q2117.08 207.534 2119.05 208.969 Q2121.04 210.404 2121.99 213.136 Z" fill="#000000" fill-rule="evenodd" fill-opacity="1" /><path clip-path="url(#clip830)" d="M2170.16 220.057 L2170.16 222.14 L2150.58 222.14 Q2150.86 226.538 2153.22 228.853 Q2155.6 231.145 2159.84 231.145 Q2162.29 231.145 2164.58 230.543 Q2166.9 229.941 2169.17 228.737 L2169.17 232.765 Q2166.88 233.737 2164.47 234.247 Q2162.06 234.756 2159.58 234.756 Q2153.38 234.756 2149.75 231.145 Q2146.14 227.534 2146.14 221.376 Q2146.14 215.011 2149.56 211.284 Q2153.01 207.534 2158.84 207.534 Q2164.07 207.534 2167.11 210.913 Q2170.16 214.27 2170.16 220.057 M2165.9 218.807 Q2165.86 215.312 2163.94 213.228 Q2162.04 211.145 2158.89 211.145 Q2155.32 211.145 2153.17 213.159 Q2151.04 215.173 2150.72 218.83 L2165.9 218.807 Z" fill="#000000" fill-rule="evenodd" fill-opacity="1" /><path clip-path="url(#clip830)" d="M2188.94 221.052 Q2183.77 221.052 2181.78 222.233 Q2179.79 223.413 2179.79 226.261 Q2179.79 228.529 2181.27 229.872 Q2182.78 231.191 2185.35 231.191 Q2188.89 231.191 2191.02 228.691 Q2193.17 226.168 2193.17 222.001 L2193.17 221.052 L2188.94 221.052 M2197.43 219.293 L2197.43 234.085 L2193.17 234.085 L2193.17 230.149 Q2191.71 232.511 2189.54 233.645 Q2187.36 234.756 2184.21 234.756 Q2180.23 234.756 2177.87 232.534 Q2175.53 230.288 2175.53 226.538 Q2175.53 222.163 2178.45 219.941 Q2181.39 217.719 2187.2 217.719 L2193.17 217.719 L2193.17 217.302 Q2193.17 214.363 2191.23 212.765 Q2189.31 211.145 2185.81 211.145 Q2183.59 211.145 2181.48 211.677 Q2179.38 212.21 2177.43 213.275 L2177.43 209.339 Q2179.77 208.437 2181.97 207.997 Q2184.17 207.534 2186.25 207.534 Q2191.88 207.534 2194.65 210.45 Q2197.43 213.367 2197.43 219.293 Z" fill="#000000" fill-rule="evenodd" fill-opacity="1" /><path clip-path="url(#clip830)" d="M2227.76 218.437 L2227.76 234.085 L2223.5 234.085 L2223.5 218.575 Q2223.5 214.895 2222.06 213.066 Q2220.63 211.238 2217.76 211.238 Q2214.31 211.238 2212.32 213.437 Q2210.32 215.636 2210.32 219.432 L2210.32 234.085 L2206.04 234.085 L2206.04 208.159 L2210.32 208.159 L2210.32 212.187 Q2211.85 209.849 2213.91 208.691 Q2216 207.534 2218.7 207.534 Q2223.17 207.534 2225.46 210.312 Q2227.76 213.066 2227.76 218.437 Z" fill="#000000" fill-rule="evenodd" fill-opacity="1" /><polyline clip-path="url(#clip830)" style="stroke:#3da44d; stroke-linecap:butt; stroke-linejoin:round; stroke-width:4; stroke-opacity:1; fill:none" points="
  1654.08,277.285 1804.08,277.285 
  "/>
<path clip-path="url(#clip830)" d="M1847.5 269.403 L1847.5 273.43 Q1845.7 272.505 1843.75 272.042 Q1841.81 271.579 1839.72 271.579 Q1836.55 271.579 1834.96 272.551 Q1833.38 273.523 1833.38 275.467 Q1833.38 276.949 1834.52 277.805 Q1835.65 278.639 1839.08 279.403 L1840.53 279.727 Q1845.07 280.699 1846.97 282.481 Q1848.89 284.241 1848.89 287.412 Q1848.89 291.023 1846.02 293.129 Q1843.17 295.236 1838.17 295.236 Q1836.09 295.236 1833.82 294.819 Q1831.58 294.426 1829.08 293.616 L1829.08 289.217 Q1831.44 290.444 1833.73 291.069 Q1836.02 291.671 1838.27 291.671 Q1841.28 291.671 1842.9 290.653 Q1844.52 289.611 1844.52 287.736 Q1844.52 286 1843.34 285.074 Q1842.18 284.148 1838.22 283.292 L1836.74 282.944 Q1832.78 282.111 1831.02 280.398 Q1829.26 278.662 1829.26 275.653 Q1829.26 271.995 1831.85 270.005 Q1834.45 268.014 1839.22 268.014 Q1841.58 268.014 1843.66 268.361 Q1845.74 268.708 1847.5 269.403 Z" fill="#000000" fill-rule="evenodd" fill-opacity="1" /><path clip-path="url(#clip830)" d="M1859.89 261.278 L1859.89 268.639 L1868.66 268.639 L1868.66 271.949 L1859.89 271.949 L1859.89 286.023 Q1859.89 289.194 1860.74 290.097 Q1861.62 291 1864.28 291 L1868.66 291 L1868.66 294.565 L1864.28 294.565 Q1859.35 294.565 1857.48 292.736 Q1855.6 290.884 1855.6 286.023 L1855.6 271.949 L1852.48 271.949 L1852.48 268.639 L1855.6 268.639 L1855.6 261.278 L1859.89 261.278 Z" fill="#000000" fill-rule="evenodd" fill-opacity="1" /><path clip-path="url(#clip830)" d="M1886.04 281.532 Q1880.88 281.532 1878.89 282.713 Q1876.9 283.893 1876.9 286.741 Q1876.9 289.009 1878.38 290.352 Q1879.89 291.671 1882.46 291.671 Q1886 291.671 1888.13 289.171 Q1890.28 286.648 1890.28 282.481 L1890.28 281.532 L1886.04 281.532 M1894.54 279.773 L1894.54 294.565 L1890.28 294.565 L1890.28 290.629 Q1888.82 292.991 1886.65 294.125 Q1884.47 295.236 1881.32 295.236 Q1877.34 295.236 1874.98 293.014 Q1872.64 290.768 1872.64 287.018 Q1872.64 282.643 1875.56 280.421 Q1878.5 278.199 1884.31 278.199 L1890.28 278.199 L1890.28 277.782 Q1890.28 274.843 1888.34 273.245 Q1886.41 271.625 1882.92 271.625 Q1880.7 271.625 1878.59 272.157 Q1876.48 272.69 1874.54 273.755 L1874.54 269.819 Q1876.88 268.917 1879.08 268.477 Q1881.28 268.014 1883.36 268.014 Q1888.98 268.014 1891.76 270.93 Q1894.54 273.847 1894.54 279.773 Z" fill="#000000" fill-rule="evenodd" fill-opacity="1" /><path clip-path="url(#clip830)" d="M1907.53 261.278 L1907.53 268.639 L1916.3 268.639 L1916.3 271.949 L1907.53 271.949 L1907.53 286.023 Q1907.53 289.194 1908.38 290.097 Q1909.26 291 1911.92 291 L1916.3 291 L1916.3 294.565 L1911.92 294.565 Q1906.99 294.565 1905.12 292.736 Q1903.24 290.884 1903.24 286.023 L1903.24 271.949 L1900.12 271.949 L1900.12 268.639 L1903.24 268.639 L1903.24 261.278 L1907.53 261.278 Z" fill="#000000" fill-rule="evenodd" fill-opacity="1" /><path clip-path="url(#clip830)" d="M1921.9 268.639 L1926.16 268.639 L1926.16 294.565 L1921.9 294.565 L1921.9 268.639 M1921.9 258.546 L1926.16 258.546 L1926.16 263.94 L1921.9 263.94 L1921.9 258.546 Z" fill="#000000" fill-rule="evenodd" fill-opacity="1" /><path clip-path="url(#clip830)" d="M1951.6 269.403 L1951.6 273.43 Q1949.79 272.505 1947.85 272.042 Q1945.9 271.579 1943.82 271.579 Q1940.65 271.579 1939.05 272.551 Q1937.48 273.523 1937.48 275.467 Q1937.48 276.949 1938.61 277.805 Q1939.75 278.639 1943.17 279.403 L1944.63 279.727 Q1949.17 280.699 1951.07 282.481 Q1952.99 284.241 1952.99 287.412 Q1952.99 291.023 1950.12 293.129 Q1947.27 295.236 1942.27 295.236 Q1940.19 295.236 1937.92 294.819 Q1935.67 294.426 1933.17 293.616 L1933.17 289.217 Q1935.53 290.444 1937.83 291.069 Q1940.12 291.671 1942.36 291.671 Q1945.37 291.671 1946.99 290.653 Q1948.61 289.611 1948.61 287.736 Q1948.61 286 1947.43 285.074 Q1946.28 284.148 1942.32 283.292 L1940.84 282.944 Q1936.88 282.111 1935.12 280.398 Q1933.36 278.662 1933.36 275.653 Q1933.36 271.995 1935.95 270.005 Q1938.54 268.014 1943.31 268.014 Q1945.67 268.014 1947.76 268.361 Q1949.84 268.708 1951.6 269.403 Z" fill="#000000" fill-rule="evenodd" fill-opacity="1" /><path clip-path="url(#clip830)" d="M1963.98 261.278 L1963.98 268.639 L1972.76 268.639 L1972.76 271.949 L1963.98 271.949 L1963.98 286.023 Q1963.98 289.194 1964.84 290.097 Q1965.72 291 1968.38 291 L1972.76 291 L1972.76 294.565 L1968.38 294.565 Q1963.45 294.565 1961.58 292.736 Q1959.7 290.884 1959.7 286.023 L1959.7 271.949 L1956.58 271.949 L1956.58 268.639 L1959.7 268.639 L1959.7 261.278 L1963.98 261.278 Z" fill="#000000" fill-rule="evenodd" fill-opacity="1" /><path clip-path="url(#clip830)" d="M1978.36 268.639 L1982.62 268.639 L1982.62 294.565 L1978.36 294.565 L1978.36 268.639 M1978.36 258.546 L1982.62 258.546 L1982.62 263.94 L1978.36 263.94 L1978.36 258.546 Z" fill="#000000" fill-rule="evenodd" fill-opacity="1" /><path clip-path="url(#clip830)" d="M2010.19 269.634 L2010.19 273.616 Q2008.38 272.62 2006.55 272.134 Q2004.75 271.625 2002.9 271.625 Q1998.75 271.625 1996.46 274.264 Q1994.17 276.88 1994.17 281.625 Q1994.17 286.37 1996.46 289.009 Q1998.75 291.625 2002.9 291.625 Q2004.75 291.625 2006.55 291.139 Q2008.38 290.629 2010.19 289.634 L2010.19 293.569 Q2008.4 294.403 2006.48 294.819 Q2004.58 295.236 2002.43 295.236 Q1996.58 295.236 1993.13 291.555 Q1989.68 287.875 1989.68 281.625 Q1989.68 275.282 1993.15 271.648 Q1996.65 268.014 2002.71 268.014 Q2004.68 268.014 2006.55 268.431 Q2008.43 268.824 2010.19 269.634 Z" fill="#000000" fill-rule="evenodd" fill-opacity="1" /><path clip-path="url(#clip830)" d="M2029.38 281.532 Q2024.21 281.532 2022.22 282.713 Q2020.23 283.893 2020.23 286.741 Q2020.23 289.009 2021.71 290.352 Q2023.22 291.671 2025.79 291.671 Q2029.33 291.671 2031.46 289.171 Q2033.61 286.648 2033.61 282.481 L2033.61 281.532 L2029.38 281.532 M2037.87 279.773 L2037.87 294.565 L2033.61 294.565 L2033.61 290.629 Q2032.15 292.991 2029.98 294.125 Q2027.8 295.236 2024.65 295.236 Q2020.67 295.236 2018.31 293.014 Q2015.97 290.768 2015.97 287.018 Q2015.97 282.643 2018.89 280.421 Q2021.83 278.199 2027.64 278.199 L2033.61 278.199 L2033.61 277.782 Q2033.61 274.843 2031.67 273.245 Q2029.75 271.625 2026.25 271.625 Q2024.03 271.625 2021.92 272.157 Q2019.82 272.69 2017.87 273.755 L2017.87 269.819 Q2020.21 268.917 2022.41 268.477 Q2024.61 268.014 2026.69 268.014 Q2032.32 268.014 2035.09 270.93 Q2037.87 273.847 2037.87 279.773 Z" fill="#000000" fill-rule="evenodd" fill-opacity="1" /><path clip-path="url(#clip830)" d="M2046.64 258.546 L2050.9 258.546 L2050.9 294.565 L2046.64 294.565 L2046.64 258.546 Z" fill="#000000" fill-rule="evenodd" fill-opacity="1" /><path clip-path="url(#clip830)" d="M2095.07 273.616 Q2096.67 270.745 2098.89 269.38 Q2101.11 268.014 2104.12 268.014 Q2108.17 268.014 2110.37 270.861 Q2112.57 273.685 2112.57 278.917 L2112.57 294.565 L2108.29 294.565 L2108.29 279.055 Q2108.29 275.329 2106.97 273.523 Q2105.65 271.718 2102.94 271.718 Q2099.63 271.718 2097.71 273.917 Q2095.79 276.116 2095.79 279.912 L2095.79 294.565 L2091.51 294.565 L2091.51 279.055 Q2091.51 275.305 2090.19 273.523 Q2088.87 271.718 2086.11 271.718 Q2082.85 271.718 2080.93 273.94 Q2079.01 276.139 2079.01 279.912 L2079.01 294.565 L2074.72 294.565 L2074.72 268.639 L2079.01 268.639 L2079.01 272.667 Q2080.46 270.282 2082.5 269.148 Q2084.54 268.014 2087.34 268.014 Q2090.16 268.014 2092.13 269.449 Q2094.12 270.884 2095.07 273.616 Z" fill="#000000" fill-rule="evenodd" fill-opacity="1" /><path clip-path="url(#clip830)" d="M2143.24 280.537 L2143.24 282.62 L2123.66 282.62 Q2123.94 287.018 2126.3 289.333 Q2128.68 291.625 2132.92 291.625 Q2135.37 291.625 2137.66 291.023 Q2139.98 290.421 2142.25 289.217 L2142.25 293.245 Q2139.95 294.217 2137.55 294.727 Q2135.14 295.236 2132.66 295.236 Q2126.46 295.236 2122.83 291.625 Q2119.21 288.014 2119.21 281.856 Q2119.21 275.491 2122.64 271.764 Q2126.09 268.014 2131.92 268.014 Q2137.15 268.014 2140.19 271.393 Q2143.24 274.75 2143.24 280.537 M2138.98 279.287 Q2138.94 275.792 2137.01 273.708 Q2135.12 271.625 2131.97 271.625 Q2128.4 271.625 2126.25 273.639 Q2124.12 275.653 2123.8 279.31 L2138.98 279.287 Z" fill="#000000" fill-rule="evenodd" fill-opacity="1" /><path clip-path="url(#clip830)" d="M2162.01 281.532 Q2156.85 281.532 2154.86 282.713 Q2152.87 283.893 2152.87 286.741 Q2152.87 289.009 2154.35 290.352 Q2155.86 291.671 2158.43 291.671 Q2161.97 291.671 2164.1 289.171 Q2166.25 286.648 2166.25 282.481 L2166.25 281.532 L2162.01 281.532 M2170.51 279.773 L2170.51 294.565 L2166.25 294.565 L2166.25 290.629 Q2164.79 292.991 2162.62 294.125 Q2160.44 295.236 2157.29 295.236 Q2153.31 295.236 2150.95 293.014 Q2148.61 290.768 2148.61 287.018 Q2148.61 282.643 2151.53 280.421 Q2154.47 278.199 2160.28 278.199 L2166.25 278.199 L2166.25 277.782 Q2166.25 274.843 2164.31 273.245 Q2162.39 271.625 2158.89 271.625 Q2156.67 271.625 2154.56 272.157 Q2152.45 272.69 2150.51 273.755 L2150.51 269.819 Q2152.85 268.917 2155.05 268.477 Q2157.25 268.014 2159.33 268.014 Q2164.95 268.014 2167.73 270.93 Q2170.51 273.847 2170.51 279.773 Z" fill="#000000" fill-rule="evenodd" fill-opacity="1" /><path clip-path="url(#clip830)" d="M2200.83 278.917 L2200.83 294.565 L2196.57 294.565 L2196.57 279.055 Q2196.57 275.375 2195.14 273.546 Q2193.7 271.718 2190.83 271.718 Q2187.38 271.718 2185.39 273.917 Q2183.4 276.116 2183.4 279.912 L2183.4 294.565 L2179.12 294.565 L2179.12 268.639 L2183.4 268.639 L2183.4 272.667 Q2184.93 270.329 2186.99 269.171 Q2189.07 268.014 2191.78 268.014 Q2196.25 268.014 2198.54 270.792 Q2200.83 273.546 2200.83 278.917 Z" fill="#000000" fill-rule="evenodd" fill-opacity="1" /><polyline clip-path="url(#clip830)" style="stroke:#c271d2; stroke-linecap:butt; stroke-linejoin:round; stroke-width:4; stroke-opacity:1; fill:none" points="
  1654.08,337.765 1804.08,337.765 
  "/>
<path clip-path="url(#clip830)" d="M1847.99 341.781 Q1847.99 337.151 1846.07 334.605 Q1844.17 332.059 1840.72 332.059 Q1837.29 332.059 1835.37 334.605 Q1833.47 337.151 1833.47 341.781 Q1833.47 346.387 1835.37 348.934 Q1837.29 351.48 1840.72 351.48 Q1844.17 351.48 1846.07 348.934 Q1847.99 346.387 1847.99 341.781 M1852.25 351.827 Q1852.25 358.447 1849.31 361.665 Q1846.37 364.906 1840.3 364.906 Q1838.06 364.906 1836.07 364.558 Q1834.08 364.234 1832.2 363.54 L1832.2 359.396 Q1834.08 360.415 1835.91 360.901 Q1837.73 361.387 1839.63 361.387 Q1843.82 361.387 1845.91 359.188 Q1847.99 357.012 1847.99 352.591 L1847.99 350.484 Q1846.67 352.776 1844.61 353.91 Q1842.55 355.045 1839.68 355.045 Q1834.91 355.045 1831.99 351.41 Q1829.08 347.776 1829.08 341.781 Q1829.08 335.762 1831.99 332.128 Q1834.91 328.494 1839.68 328.494 Q1842.55 328.494 1844.61 329.628 Q1846.67 330.762 1847.99 333.054 L1847.99 329.119 L1852.25 329.119 L1852.25 351.827 Z" fill="#000000" fill-rule="evenodd" fill-opacity="1" /><path clip-path="url(#clip830)" d="M1872.8 342.012 Q1867.64 342.012 1865.65 343.193 Q1863.66 344.373 1863.66 347.221 Q1863.66 349.489 1865.14 350.832 Q1866.65 352.151 1869.22 352.151 Q1872.76 352.151 1874.89 349.651 Q1877.04 347.128 1877.04 342.961 L1877.04 342.012 L1872.8 342.012 M1881.3 340.253 L1881.3 355.045 L1877.04 355.045 L1877.04 351.109 Q1875.58 353.471 1873.41 354.605 Q1871.23 355.716 1868.08 355.716 Q1864.1 355.716 1861.74 353.494 Q1859.4 351.248 1859.4 347.498 Q1859.4 343.123 1862.32 340.901 Q1865.26 338.679 1871.07 338.679 L1877.04 338.679 L1877.04 338.262 Q1877.04 335.323 1875.09 333.725 Q1873.17 332.105 1869.68 332.105 Q1867.46 332.105 1865.35 332.637 Q1863.24 333.17 1861.3 334.235 L1861.3 330.299 Q1863.64 329.397 1865.84 328.957 Q1868.03 328.494 1870.12 328.494 Q1875.74 328.494 1878.52 331.41 Q1881.3 334.327 1881.3 340.253 Z" fill="#000000" fill-rule="evenodd" fill-opacity="1" /><path clip-path="url(#clip830)" d="M1889.63 344.813 L1889.63 329.119 L1893.89 329.119 L1893.89 344.651 Q1893.89 348.332 1895.33 350.184 Q1896.76 352.012 1899.63 352.012 Q1903.08 352.012 1905.07 349.813 Q1907.09 347.614 1907.09 343.818 L1907.09 329.119 L1911.34 329.119 L1911.34 355.045 L1907.09 355.045 L1907.09 351.063 Q1905.53 353.424 1903.47 354.582 Q1901.44 355.716 1898.73 355.716 Q1894.26 355.716 1891.95 352.938 Q1889.63 350.16 1889.63 344.813 M1900.35 328.494 L1900.35 328.494 Z" fill="#000000" fill-rule="evenodd" fill-opacity="1" /><path clip-path="url(#clip830)" d="M1936.65 329.883 L1936.65 333.91 Q1934.84 332.985 1932.9 332.522 Q1930.95 332.059 1928.87 332.059 Q1925.7 332.059 1924.1 333.031 Q1922.53 334.003 1922.53 335.947 Q1922.53 337.429 1923.66 338.285 Q1924.79 339.119 1928.22 339.883 L1929.68 340.207 Q1934.21 341.179 1936.11 342.961 Q1938.03 344.721 1938.03 347.892 Q1938.03 351.503 1935.16 353.609 Q1932.32 355.716 1927.32 355.716 Q1925.23 355.716 1922.96 355.299 Q1920.72 354.906 1918.22 354.096 L1918.22 349.697 Q1920.58 350.924 1922.87 351.549 Q1925.16 352.151 1927.41 352.151 Q1930.42 352.151 1932.04 351.133 Q1933.66 350.091 1933.66 348.216 Q1933.66 346.48 1932.48 345.554 Q1931.32 344.628 1927.36 343.772 L1925.88 343.424 Q1921.92 342.591 1920.16 340.878 Q1918.4 339.142 1918.4 336.133 Q1918.4 332.475 1921 330.485 Q1923.59 328.494 1928.36 328.494 Q1930.72 328.494 1932.8 328.841 Q1934.89 329.188 1936.65 329.883 Z" fill="#000000" fill-rule="evenodd" fill-opacity="1" /><path clip-path="url(#clip830)" d="M1961.34 329.883 L1961.34 333.91 Q1959.54 332.985 1957.59 332.522 Q1955.65 332.059 1953.57 332.059 Q1950.4 332.059 1948.8 333.031 Q1947.22 334.003 1947.22 335.947 Q1947.22 337.429 1948.36 338.285 Q1949.49 339.119 1952.92 339.883 L1954.38 340.207 Q1958.91 341.179 1960.81 342.961 Q1962.73 344.721 1962.73 347.892 Q1962.73 351.503 1959.86 353.609 Q1957.02 355.716 1952.02 355.716 Q1949.93 355.716 1947.66 355.299 Q1945.42 354.906 1942.92 354.096 L1942.92 349.697 Q1945.28 350.924 1947.57 351.549 Q1949.86 352.151 1952.11 352.151 Q1955.12 352.151 1956.74 351.133 Q1958.36 350.091 1958.36 348.216 Q1958.36 346.48 1957.18 345.554 Q1956.02 344.628 1952.06 343.772 L1950.58 343.424 Q1946.62 342.591 1944.86 340.878 Q1943.1 339.142 1943.1 336.133 Q1943.1 332.475 1945.7 330.485 Q1948.29 328.494 1953.06 328.494 Q1955.42 328.494 1957.5 328.841 Q1959.59 329.188 1961.34 329.883 Z" fill="#000000" fill-rule="evenodd" fill-opacity="1" /><path clip-path="url(#clip830)" d="M1969.52 329.119 L1973.77 329.119 L1973.77 355.045 L1969.52 355.045 L1969.52 329.119 M1969.52 319.026 L1973.77 319.026 L1973.77 324.42 L1969.52 324.42 L1969.52 319.026 Z" fill="#000000" fill-rule="evenodd" fill-opacity="1" /><path clip-path="url(#clip830)" d="M1994.47 342.012 Q1989.31 342.012 1987.32 343.193 Q1985.33 344.373 1985.33 347.221 Q1985.33 349.489 1986.81 350.832 Q1988.31 352.151 1990.88 352.151 Q1994.42 352.151 1996.55 349.651 Q1998.71 347.128 1998.71 342.961 L1998.71 342.012 L1994.47 342.012 M2002.96 340.253 L2002.96 355.045 L1998.71 355.045 L1998.71 351.109 Q1997.25 353.471 1995.07 354.605 Q1992.9 355.716 1989.75 355.716 Q1985.77 355.716 1983.4 353.494 Q1981.07 351.248 1981.07 347.498 Q1981.07 343.123 1983.98 340.901 Q1986.92 338.679 1992.73 338.679 L1998.71 338.679 L1998.71 338.262 Q1998.71 335.323 1996.76 333.725 Q1994.84 332.105 1991.34 332.105 Q1989.12 332.105 1987.02 332.637 Q1984.91 333.17 1982.96 334.235 L1982.96 330.299 Q1985.3 329.397 1987.5 328.957 Q1989.7 328.494 1991.78 328.494 Q1997.41 328.494 2000.19 331.41 Q2002.96 334.327 2002.96 340.253 Z" fill="#000000" fill-rule="evenodd" fill-opacity="1" /><path clip-path="url(#clip830)" d="M2033.29 339.397 L2033.29 355.045 L2029.03 355.045 L2029.03 339.535 Q2029.03 335.855 2027.59 334.026 Q2026.16 332.198 2023.29 332.198 Q2019.84 332.198 2017.85 334.397 Q2015.86 336.596 2015.86 340.392 L2015.86 355.045 L2011.58 355.045 L2011.58 329.119 L2015.86 329.119 L2015.86 333.147 Q2017.39 330.809 2019.45 329.651 Q2021.53 328.494 2024.24 328.494 Q2028.71 328.494 2031 331.272 Q2033.29 334.026 2033.29 339.397 Z" fill="#000000" fill-rule="evenodd" fill-opacity="1" /><path clip-path="url(#clip830)" d="M2069.98 319.026 L2069.98 322.568 L2065.9 322.568 Q2063.61 322.568 2062.71 323.494 Q2061.83 324.42 2061.83 326.827 L2061.83 329.119 L2068.84 329.119 L2068.84 332.429 L2061.83 332.429 L2061.83 355.045 L2057.55 355.045 L2057.55 332.429 L2053.47 332.429 L2053.47 329.119 L2057.55 329.119 L2057.55 327.313 Q2057.55 322.985 2059.56 321.017 Q2061.58 319.026 2065.95 319.026 L2069.98 319.026 Z" fill="#000000" fill-rule="evenodd" fill-opacity="1" /><path clip-path="url(#clip830)" d="M2073.54 329.119 L2077.8 329.119 L2077.8 355.045 L2073.54 355.045 L2073.54 329.119 M2073.54 319.026 L2077.8 319.026 L2077.8 324.42 L2073.54 324.42 L2073.54 319.026 Z" fill="#000000" fill-rule="evenodd" fill-opacity="1" /><path clip-path="url(#clip830)" d="M2090.93 321.758 L2090.93 329.119 L2099.7 329.119 L2099.7 332.429 L2090.93 332.429 L2090.93 346.503 Q2090.93 349.674 2091.78 350.577 Q2092.66 351.48 2095.33 351.48 L2099.7 351.48 L2099.7 355.045 L2095.33 355.045 Q2090.39 355.045 2088.52 353.216 Q2086.64 351.364 2086.64 346.503 L2086.64 332.429 L2083.52 332.429 L2083.52 329.119 L2086.64 329.119 L2086.64 321.758 L2090.93 321.758 Z" fill="#000000" fill-rule="evenodd" fill-opacity="1" /><polyline clip-path="url(#clip830)" style="stroke:#ac8d18; stroke-linecap:butt; stroke-linejoin:round; stroke-width:4; stroke-opacity:1; fill:none" points="
  1654.08,398.245 1804.08,398.245 
  "/>
<path clip-path="url(#clip830)" d="M1833.36 411.636 L1833.36 425.386 L1829.08 425.386 L1829.08 389.599 L1833.36 389.599 L1833.36 393.534 Q1834.7 391.219 1836.74 390.108 Q1838.8 388.974 1841.65 388.974 Q1846.37 388.974 1849.31 392.724 Q1852.27 396.474 1852.27 402.585 Q1852.27 408.696 1849.31 412.446 Q1846.37 416.196 1841.65 416.196 Q1838.8 416.196 1836.74 415.085 Q1834.7 413.951 1833.36 411.636 M1847.85 402.585 Q1847.85 397.886 1845.91 395.224 Q1843.98 392.539 1840.6 392.539 Q1837.22 392.539 1835.28 395.224 Q1833.36 397.886 1833.36 402.585 Q1833.36 407.284 1835.28 409.969 Q1837.22 412.631 1840.6 412.631 Q1843.98 412.631 1845.91 409.969 Q1847.85 407.284 1847.85 402.585 Z" fill="#000000" fill-rule="evenodd" fill-opacity="1" /><path clip-path="url(#clip830)" d="M1869.38 392.585 Q1865.95 392.585 1863.96 395.27 Q1861.97 397.932 1861.97 402.585 Q1861.97 407.238 1863.94 409.923 Q1865.93 412.585 1869.38 412.585 Q1872.78 412.585 1874.77 409.9 Q1876.76 407.214 1876.76 402.585 Q1876.76 397.978 1874.77 395.293 Q1872.78 392.585 1869.38 392.585 M1869.38 388.974 Q1874.93 388.974 1878.1 392.585 Q1881.28 396.196 1881.28 402.585 Q1881.28 408.951 1878.1 412.585 Q1874.93 416.196 1869.38 416.196 Q1863.8 416.196 1860.63 412.585 Q1857.48 408.951 1857.48 402.585 Q1857.48 396.196 1860.63 392.585 Q1863.8 388.974 1869.38 388.974 Z" fill="#000000" fill-rule="evenodd" fill-opacity="1" /><path clip-path="url(#clip830)" d="M1888.34 389.599 L1892.59 389.599 L1892.59 415.525 L1888.34 415.525 L1888.34 389.599 M1888.34 379.506 L1892.59 379.506 L1892.59 384.9 L1888.34 384.9 L1888.34 379.506 Z" fill="#000000" fill-rule="evenodd" fill-opacity="1" /><path clip-path="url(#clip830)" d="M1918.03 390.363 L1918.03 394.39 Q1916.23 393.465 1914.28 393.002 Q1912.34 392.539 1910.26 392.539 Q1907.09 392.539 1905.49 393.511 Q1903.91 394.483 1903.91 396.427 Q1903.91 397.909 1905.05 398.765 Q1906.18 399.599 1909.61 400.363 L1911.07 400.687 Q1915.6 401.659 1917.5 403.441 Q1919.42 405.201 1919.42 408.372 Q1919.42 411.983 1916.55 414.089 Q1913.71 416.196 1908.71 416.196 Q1906.62 416.196 1904.35 415.779 Q1902.11 415.386 1899.61 414.576 L1899.61 410.177 Q1901.97 411.404 1904.26 412.029 Q1906.55 412.631 1908.8 412.631 Q1911.81 412.631 1913.43 411.613 Q1915.05 410.571 1915.05 408.696 Q1915.05 406.96 1913.87 406.034 Q1912.71 405.108 1908.75 404.252 L1907.27 403.904 Q1903.31 403.071 1901.55 401.358 Q1899.79 399.622 1899.79 396.613 Q1899.79 392.955 1902.39 390.965 Q1904.98 388.974 1909.75 388.974 Q1912.11 388.974 1914.19 389.321 Q1916.28 389.668 1918.03 390.363 Z" fill="#000000" fill-rule="evenodd" fill-opacity="1" /><path clip-path="url(#clip830)" d="M1942.73 390.363 L1942.73 394.39 Q1940.93 393.465 1938.98 393.002 Q1937.04 392.539 1934.96 392.539 Q1931.78 392.539 1930.19 393.511 Q1928.61 394.483 1928.61 396.427 Q1928.61 397.909 1929.75 398.765 Q1930.88 399.599 1934.31 400.363 L1935.77 400.687 Q1940.3 401.659 1942.2 403.441 Q1944.12 405.201 1944.12 408.372 Q1944.12 411.983 1941.25 414.089 Q1938.4 416.196 1933.4 416.196 Q1931.32 416.196 1929.05 415.779 Q1926.81 415.386 1924.31 414.576 L1924.31 410.177 Q1926.67 411.404 1928.96 412.029 Q1931.25 412.631 1933.5 412.631 Q1936.51 412.631 1938.13 411.613 Q1939.75 410.571 1939.75 408.696 Q1939.75 406.96 1938.57 406.034 Q1937.41 405.108 1933.45 404.252 L1931.97 403.904 Q1928.01 403.071 1926.25 401.358 Q1924.49 399.622 1924.49 396.613 Q1924.49 392.955 1927.09 390.965 Q1929.68 388.974 1934.45 388.974 Q1936.81 388.974 1938.89 389.321 Q1940.97 389.668 1942.73 390.363 Z" fill="#000000" fill-rule="evenodd" fill-opacity="1" /><path clip-path="url(#clip830)" d="M1960.95 392.585 Q1957.52 392.585 1955.53 395.27 Q1953.54 397.932 1953.54 402.585 Q1953.54 407.238 1955.51 409.923 Q1957.5 412.585 1960.95 412.585 Q1964.35 412.585 1966.34 409.9 Q1968.34 407.214 1968.34 402.585 Q1968.34 397.978 1966.34 395.293 Q1964.35 392.585 1960.95 392.585 M1960.95 388.974 Q1966.51 388.974 1969.68 392.585 Q1972.85 396.196 1972.85 402.585 Q1972.85 408.951 1969.68 412.585 Q1966.51 416.196 1960.95 416.196 Q1955.37 416.196 1952.2 412.585 Q1949.05 408.951 1949.05 402.585 Q1949.05 396.196 1952.2 392.585 Q1955.37 388.974 1960.95 388.974 Z" fill="#000000" fill-rule="evenodd" fill-opacity="1" /><path clip-path="url(#clip830)" d="M2001.46 399.877 L2001.46 415.525 L1997.2 415.525 L1997.2 400.015 Q1997.2 396.335 1995.77 394.506 Q1994.33 392.678 1991.46 392.678 Q1988.01 392.678 1986.02 394.877 Q1984.03 397.076 1984.03 400.872 L1984.03 415.525 L1979.75 415.525 L1979.75 389.599 L1984.03 389.599 L1984.03 393.627 Q1985.56 391.289 1987.62 390.131 Q1989.7 388.974 1992.41 388.974 Q1996.88 388.974 1999.17 391.752 Q2001.46 394.506 2001.46 399.877 Z" fill="#000000" fill-rule="evenodd" fill-opacity="1" /><path clip-path="url(#clip830)" d="M2038.15 379.506 L2038.15 383.048 L2034.08 383.048 Q2031.78 383.048 2030.88 383.974 Q2030 384.9 2030 387.307 L2030 389.599 L2037.02 389.599 L2037.02 392.909 L2030 392.909 L2030 415.525 L2025.72 415.525 L2025.72 392.909 L2021.65 392.909 L2021.65 389.599 L2025.72 389.599 L2025.72 387.793 Q2025.72 383.465 2027.73 381.497 Q2029.75 379.506 2034.12 379.506 L2038.15 379.506 Z" fill="#000000" fill-rule="evenodd" fill-opacity="1" /><path clip-path="url(#clip830)" d="M2041.71 389.599 L2045.97 389.599 L2045.97 415.525 L2041.71 415.525 L2041.71 389.599 M2041.71 379.506 L2045.97 379.506 L2045.97 384.9 L2041.71 384.9 L2041.71 379.506 Z" fill="#000000" fill-rule="evenodd" fill-opacity="1" /><path clip-path="url(#clip830)" d="M2059.1 382.238 L2059.1 389.599 L2067.87 389.599 L2067.87 392.909 L2059.1 392.909 L2059.1 406.983 Q2059.1 410.154 2059.96 411.057 Q2060.83 411.96 2063.5 411.96 L2067.87 411.96 L2067.87 415.525 L2063.5 415.525 Q2058.57 415.525 2056.69 413.696 Q2054.82 411.844 2054.82 406.983 L2054.82 392.909 L2051.69 392.909 L2051.69 389.599 L2054.82 389.599 L2054.82 382.238 L2059.1 382.238 Z" fill="#000000" fill-rule="evenodd" fill-opacity="1" /></svg>
