<?xml version="1.0" encoding="utf-8"?>
<svg xmlns="http://www.w3.org/2000/svg" xmlns:xlink="http://www.w3.org/1999/xlink" width="600" height="400" viewBox="0 0 2400 1600">
<defs>
  <clipPath id="clip610">
    <rect x="0" y="0" width="2400" height="1600"/>
  </clipPath>
</defs>
<path clip-path="url(#clip610)" d="
M0 1600 L2400 1600 L2400 0 L0 0  Z
  " fill="#ffffff" fill-rule="evenodd" fill-opacity="1"/>
<defs>
  <clipPath id="clip611">
    <rect x="480" y="0" width="1681" height="1600"/>
  </clipPath>
</defs>
<path clip-path="url(#clip610)" d="
M249.542 1423.18 L2352.76 1423.18 L2352.76 47.2441 L249.542 47.2441  Z
  " fill="#ffffff" fill-rule="evenodd" fill-opacity="1"/>
<defs>
  <clipPath id="clip612">
    <rect x="249" y="47" width="2104" height="1377"/>
  </clipPath>
</defs>
<polyline clip-path="url(#clip612)" style="stroke:#000000; stroke-linecap:butt; stroke-linejoin:round; stroke-width:2; stroke-opacity:0.1; fill:none" points="
  365.223,1423.18 365.223,47.2441 
  "/>
<polyline clip-path="url(#clip612)" style="stroke:#000000; stroke-linecap:butt; stroke-linejoin:round; stroke-width:2; stroke-opacity:0.1; fill:none" points="
  790.644,1423.18 790.644,47.2441 
  "/>
<polyline clip-path="url(#clip612)" style="stroke:#000000; stroke-linecap:butt; stroke-linejoin:round; stroke-width:2; stroke-opacity:0.1; fill:none" points="
  1216.06,1423.18 1216.06,47.2441 
  "/>
<polyline clip-path="url(#clip612)" style="stroke:#000000; stroke-linecap:butt; stroke-linejoin:round; stroke-width:2; stroke-opacity:0.1; fill:none" points="
  1641.49,1423.18 1641.49,47.2441 
  "/>
<polyline clip-path="url(#clip612)" style="stroke:#000000; stroke-linecap:butt; stroke-linejoin:round; stroke-width:2; stroke-opacity:0.1; fill:none" points="
  2066.91,1423.18 2066.91,47.2441 
  "/>
<polyline clip-path="url(#clip610)" style="stroke:#000000; stroke-linecap:butt; stroke-linejoin:round; stroke-width:4; stroke-opacity:1; fill:none" points="
  249.542,1423.18 2352.76,1423.18 
  "/>
<polyline clip-path="url(#clip610)" style="stroke:#000000; stroke-linecap:butt; stroke-linejoin:round; stroke-width:4; stroke-opacity:1; fill:none" points="
  365.223,1423.18 365.223,1406.67 
  "/>
<polyline clip-path="url(#clip610)" style="stroke:#000000; stroke-linecap:butt; stroke-linejoin:round; stroke-width:4; stroke-opacity:1; fill:none" points="
  790.644,1423.18 790.644,1406.67 
  "/>
<polyline clip-path="url(#clip610)" style="stroke:#000000; stroke-linecap:butt; stroke-linejoin:round; stroke-width:4; stroke-opacity:1; fill:none" points="
  1216.06,1423.18 1216.06,1406.67 
  "/>
<polyline clip-path="url(#clip610)" style="stroke:#000000; stroke-linecap:butt; stroke-linejoin:round; stroke-width:4; stroke-opacity:1; fill:none" points="
  1641.49,1423.18 1641.49,1406.67 
  "/>
<polyline clip-path="url(#clip610)" style="stroke:#000000; stroke-linecap:butt; stroke-linejoin:round; stroke-width:4; stroke-opacity:1; fill:none" points="
  2066.91,1423.18 2066.91,1406.67 
  "/>
<path clip-path="url(#clip610)" d="M342.607 1452.37 Q338.996 1452.37 337.167 1455.94 Q335.362 1459.48 335.362 1466.61 Q335.362 1473.71 337.167 1477.28 Q338.996 1480.82 342.607 1480.82 Q346.241 1480.82 348.047 1477.28 Q349.875 1473.71 349.875 1466.61 Q349.875 1459.48 348.047 1455.94 Q346.241 1452.37 342.607 1452.37 M342.607 1448.67 Q348.417 1448.67 351.473 1453.27 Q354.551 1457.86 354.551 1466.61 Q354.551 1475.33 351.473 1479.94 Q348.417 1484.52 342.607 1484.52 Q336.797 1484.52 333.718 1479.94 Q330.663 1475.33 330.663 1466.61 Q330.663 1457.86 333.718 1453.27 Q336.797 1448.67 342.607 1448.67 Z" fill="#000000" fill-rule="evenodd" fill-opacity="1" /><path clip-path="url(#clip610)" d="M362.769 1477.97 L367.653 1477.97 L367.653 1483.85 L362.769 1483.85 L362.769 1477.97 Z" fill="#000000" fill-rule="evenodd" fill-opacity="1" /><path clip-path="url(#clip610)" d="M387.838 1452.37 Q384.227 1452.37 382.398 1455.94 Q380.593 1459.48 380.593 1466.61 Q380.593 1473.71 382.398 1477.28 Q384.227 1480.82 387.838 1480.82 Q391.472 1480.82 393.278 1477.28 Q395.107 1473.71 395.107 1466.61 Q395.107 1459.48 393.278 1455.94 Q391.472 1452.37 387.838 1452.37 M387.838 1448.67 Q393.648 1448.67 396.704 1453.27 Q399.783 1457.86 399.783 1466.61 Q399.783 1475.33 396.704 1479.94 Q393.648 1484.52 387.838 1484.52 Q382.028 1484.52 378.949 1479.94 Q375.894 1475.33 375.894 1466.61 Q375.894 1457.86 378.949 1453.27 Q382.028 1448.67 387.838 1448.67 Z" fill="#000000" fill-rule="evenodd" fill-opacity="1" /><path clip-path="url(#clip610)" d="M762.38 1479.92 L778.699 1479.92 L778.699 1483.85 L756.755 1483.85 L756.755 1479.92 Q759.417 1477.16 764 1472.53 Q768.607 1467.88 769.787 1466.54 Q772.033 1464.01 772.912 1462.28 Q773.815 1460.52 773.815 1458.83 Q773.815 1456.07 771.871 1454.34 Q769.949 1452.6 766.847 1452.6 Q764.648 1452.6 762.195 1453.37 Q759.764 1454.13 756.986 1455.68 L756.986 1450.96 Q759.81 1449.82 762.264 1449.25 Q764.718 1448.67 766.755 1448.67 Q772.125 1448.67 775.32 1451.35 Q778.514 1454.04 778.514 1458.53 Q778.514 1460.66 777.704 1462.58 Q776.917 1464.48 774.81 1467.07 Q774.232 1467.74 771.13 1470.96 Q768.028 1474.15 762.38 1479.92 Z" fill="#000000" fill-rule="evenodd" fill-opacity="1" /><path clip-path="url(#clip610)" d="M788.514 1477.97 L793.398 1477.97 L793.398 1483.85 L788.514 1483.85 L788.514 1477.97 Z" fill="#000000" fill-rule="evenodd" fill-opacity="1" /><path clip-path="url(#clip610)" d="M803.63 1449.29 L821.986 1449.29 L821.986 1453.23 L807.912 1453.23 L807.912 1461.7 Q808.931 1461.35 809.949 1461.19 Q810.968 1461 811.986 1461 Q817.773 1461 821.153 1464.18 Q824.532 1467.35 824.532 1472.76 Q824.532 1478.34 821.06 1481.44 Q817.588 1484.52 811.269 1484.52 Q809.093 1484.52 806.824 1484.15 Q804.579 1483.78 802.171 1483.04 L802.171 1478.34 Q804.255 1479.48 806.477 1480.03 Q808.699 1480.59 811.176 1480.59 Q815.181 1480.59 817.518 1478.48 Q819.856 1476.38 819.856 1472.76 Q819.856 1469.15 817.518 1467.05 Q815.181 1464.94 811.176 1464.94 Q809.301 1464.94 807.426 1465.36 Q805.574 1465.77 803.63 1466.65 L803.63 1449.29 Z" fill="#000000" fill-rule="evenodd" fill-opacity="1" /><path clip-path="url(#clip610)" d="M1183.23 1449.29 L1201.59 1449.29 L1201.59 1453.23 L1187.51 1453.23 L1187.51 1461.7 Q1188.53 1461.35 1189.55 1461.19 Q1190.57 1461 1191.59 1461 Q1197.37 1461 1200.75 1464.18 Q1204.13 1467.35 1204.13 1472.76 Q1204.13 1478.34 1200.66 1481.44 Q1197.19 1484.52 1190.87 1484.52 Q1188.69 1484.52 1186.42 1484.15 Q1184.18 1483.78 1181.77 1483.04 L1181.77 1478.34 Q1183.85 1479.48 1186.08 1480.03 Q1188.3 1480.59 1190.78 1480.59 Q1194.78 1480.59 1197.12 1478.48 Q1199.46 1476.38 1199.46 1472.76 Q1199.46 1469.15 1197.12 1467.05 Q1194.78 1464.94 1190.78 1464.94 Q1188.9 1464.94 1187.03 1465.36 Q1185.17 1465.77 1183.23 1466.65 L1183.23 1449.29 Z" fill="#000000" fill-rule="evenodd" fill-opacity="1" /><path clip-path="url(#clip610)" d="M1213.34 1477.97 L1218.23 1477.97 L1218.23 1483.85 L1213.34 1483.85 L1213.34 1477.97 Z" fill="#000000" fill-rule="evenodd" fill-opacity="1" /><path clip-path="url(#clip610)" d="M1238.41 1452.37 Q1234.8 1452.37 1232.97 1455.94 Q1231.17 1459.48 1231.17 1466.61 Q1231.17 1473.71 1232.97 1477.28 Q1234.8 1480.82 1238.41 1480.82 Q1242.05 1480.82 1243.85 1477.28 Q1245.68 1473.71 1245.68 1466.61 Q1245.68 1459.48 1243.85 1455.94 Q1242.05 1452.37 1238.41 1452.37 M1238.41 1448.67 Q1244.22 1448.67 1247.28 1453.27 Q1250.36 1457.86 1250.36 1466.61 Q1250.36 1475.33 1247.28 1479.94 Q1244.22 1484.52 1238.41 1484.52 Q1232.6 1484.52 1229.53 1479.94 Q1226.47 1475.33 1226.47 1466.61 Q1226.47 1457.86 1229.53 1453.27 Q1232.6 1448.67 1238.41 1448.67 Z" fill="#000000" fill-rule="evenodd" fill-opacity="1" /><path clip-path="url(#clip610)" d="M1607.81 1449.29 L1630.03 1449.29 L1630.03 1451.28 L1617.48 1483.85 L1612.6 1483.85 L1624.4 1453.23 L1607.81 1453.23 L1607.81 1449.29 Z" fill="#000000" fill-rule="evenodd" fill-opacity="1" /><path clip-path="url(#clip610)" d="M1639.15 1477.97 L1644.03 1477.97 L1644.03 1483.85 L1639.15 1483.85 L1639.15 1477.97 Z" fill="#000000" fill-rule="evenodd" fill-opacity="1" /><path clip-path="url(#clip610)" d="M1654.26 1449.29 L1672.62 1449.29 L1672.62 1453.23 L1658.55 1453.23 L1658.55 1461.7 Q1659.56 1461.35 1660.58 1461.19 Q1661.6 1461 1662.62 1461 Q1668.41 1461 1671.79 1464.18 Q1675.17 1467.35 1675.17 1472.76 Q1675.17 1478.34 1671.69 1481.44 Q1668.22 1484.52 1661.9 1484.52 Q1659.73 1484.52 1657.46 1484.15 Q1655.21 1483.78 1652.81 1483.04 L1652.81 1478.34 Q1654.89 1479.48 1657.11 1480.03 Q1659.33 1480.59 1661.81 1480.59 Q1665.81 1480.59 1668.15 1478.48 Q1670.49 1476.38 1670.49 1472.76 Q1670.49 1469.15 1668.15 1467.05 Q1665.81 1464.94 1661.81 1464.94 Q1659.93 1464.94 1658.06 1465.36 Q1656.21 1465.77 1654.26 1466.65 L1654.26 1449.29 Z" fill="#000000" fill-rule="evenodd" fill-opacity="1" /><path clip-path="url(#clip610)" d="M2018.98 1479.92 L2026.62 1479.92 L2026.62 1453.55 L2018.31 1455.22 L2018.31 1450.96 L2026.57 1449.29 L2031.25 1449.29 L2031.25 1479.92 L2038.89 1479.92 L2038.89 1483.85 L2018.98 1483.85 L2018.98 1479.92 Z" fill="#000000" fill-rule="evenodd" fill-opacity="1" /><path clip-path="url(#clip610)" d="M2058.33 1452.37 Q2054.72 1452.37 2052.89 1455.94 Q2051.09 1459.48 2051.09 1466.61 Q2051.09 1473.71 2052.89 1477.28 Q2054.72 1480.82 2058.33 1480.82 Q2061.96 1480.82 2063.77 1477.28 Q2065.6 1473.71 2065.6 1466.61 Q2065.6 1459.48 2063.77 1455.94 Q2061.96 1452.37 2058.33 1452.37 M2058.33 1448.67 Q2064.14 1448.67 2067.2 1453.27 Q2070.27 1457.86 2070.27 1466.61 Q2070.27 1475.33 2067.2 1479.94 Q2064.14 1484.52 2058.33 1484.52 Q2052.52 1484.52 2049.44 1479.94 Q2046.39 1475.33 2046.39 1466.61 Q2046.39 1457.86 2049.44 1453.27 Q2052.52 1448.67 2058.33 1448.67 Z" fill="#000000" fill-rule="evenodd" fill-opacity="1" /><path clip-path="url(#clip610)" d="M2078.49 1477.97 L2083.38 1477.97 L2083.38 1483.85 L2078.49 1483.85 L2078.49 1477.97 Z" fill="#000000" fill-rule="evenodd" fill-opacity="1" /><path clip-path="url(#clip610)" d="M2103.56 1452.37 Q2099.95 1452.37 2098.12 1455.94 Q2096.32 1459.48 2096.32 1466.61 Q2096.32 1473.71 2098.12 1477.28 Q2099.95 1480.82 2103.56 1480.82 Q2107.2 1480.82 2109 1477.28 Q2110.83 1473.71 2110.83 1466.61 Q2110.83 1459.48 2109 1455.94 Q2107.2 1452.37 2103.56 1452.37 M2103.56 1448.67 Q2109.37 1448.67 2112.43 1453.27 Q2115.51 1457.86 2115.51 1466.61 Q2115.51 1475.33 2112.43 1479.94 Q2109.37 1484.52 2103.56 1484.52 Q2097.75 1484.52 2094.67 1479.94 Q2091.62 1475.33 2091.62 1466.61 Q2091.62 1457.86 2094.67 1453.27 Q2097.75 1448.67 2103.56 1448.67 Z" fill="#000000" fill-rule="evenodd" fill-opacity="1" /><path clip-path="url(#clip610)" d="M1303.11 1539.24 Q1305.3 1535.29 1308.36 1533.41 Q1311.41 1531.54 1315.55 1531.54 Q1321.12 1531.54 1324.15 1535.45 Q1327.17 1539.33 1327.17 1546.53 L1327.17 1568.04 L1321.28 1568.04 L1321.28 1546.72 Q1321.28 1541.59 1319.47 1539.11 Q1317.65 1536.63 1313.93 1536.63 Q1309.38 1536.63 1306.73 1539.65 Q1304.09 1542.68 1304.09 1547.9 L1304.09 1568.04 L1298.2 1568.04 L1298.2 1546.72 Q1298.2 1541.56 1296.39 1539.11 Q1294.58 1536.63 1290.79 1536.63 Q1286.3 1536.63 1283.66 1539.68 Q1281.02 1542.71 1281.02 1547.9 L1281.02 1568.04 L1275.13 1568.04 L1275.13 1532.4 L1281.02 1532.4 L1281.02 1537.93 Q1283.02 1534.66 1285.82 1533.1 Q1288.62 1531.54 1292.48 1531.54 Q1296.36 1531.54 1299.06 1533.51 Q1301.8 1535.48 1303.11 1539.24 Z" fill="#000000" fill-rule="evenodd" fill-opacity="1" /><polyline clip-path="url(#clip612)" style="stroke:#000000; stroke-linecap:butt; stroke-linejoin:round; stroke-width:2; stroke-opacity:0.1; fill:none" points="
  249.542,1384.24 2352.76,1384.24 
  "/>
<polyline clip-path="url(#clip612)" style="stroke:#000000; stroke-linecap:butt; stroke-linejoin:round; stroke-width:2; stroke-opacity:0.1; fill:none" points="
  249.542,1158.84 2352.76,1158.84 
  "/>
<polyline clip-path="url(#clip612)" style="stroke:#000000; stroke-linecap:butt; stroke-linejoin:round; stroke-width:2; stroke-opacity:0.1; fill:none" points="
  249.542,933.45 2352.76,933.45 
  "/>
<polyline clip-path="url(#clip612)" style="stroke:#000000; stroke-linecap:butt; stroke-linejoin:round; stroke-width:2; stroke-opacity:0.1; fill:none" points="
  249.542,708.056 2352.76,708.056 
  "/>
<polyline clip-path="url(#clip612)" style="stroke:#000000; stroke-linecap:butt; stroke-linejoin:round; stroke-width:2; stroke-opacity:0.1; fill:none" points="
  249.542,482.662 2352.76,482.662 
  "/>
<polyline clip-path="url(#clip612)" style="stroke:#000000; stroke-linecap:butt; stroke-linejoin:round; stroke-width:2; stroke-opacity:0.1; fill:none" points="
  249.542,257.268 2352.76,257.268 
  "/>
<polyline clip-path="url(#clip610)" style="stroke:#000000; stroke-linecap:butt; stroke-linejoin:round; stroke-width:4; stroke-opacity:1; fill:none" points="
  249.542,1423.18 249.542,47.2441 
  "/>
<polyline clip-path="url(#clip610)" style="stroke:#000000; stroke-linecap:butt; stroke-linejoin:round; stroke-width:4; stroke-opacity:1; fill:none" points="
  249.542,1384.24 274.781,1384.24 
  "/>
<polyline clip-path="url(#clip610)" style="stroke:#000000; stroke-linecap:butt; stroke-linejoin:round; stroke-width:4; stroke-opacity:1; fill:none" points="
  249.542,1158.84 274.781,1158.84 
  "/>
<polyline clip-path="url(#clip610)" style="stroke:#000000; stroke-linecap:butt; stroke-linejoin:round; stroke-width:4; stroke-opacity:1; fill:none" points="
  249.542,933.45 274.781,933.45 
  "/>
<polyline clip-path="url(#clip610)" style="stroke:#000000; stroke-linecap:butt; stroke-linejoin:round; stroke-width:4; stroke-opacity:1; fill:none" points="
  249.542,708.056 274.781,708.056 
  "/>
<polyline clip-path="url(#clip610)" style="stroke:#000000; stroke-linecap:butt; stroke-linejoin:round; stroke-width:4; stroke-opacity:1; fill:none" points="
  249.542,482.662 274.781,482.662 
  "/>
<polyline clip-path="url(#clip610)" style="stroke:#000000; stroke-linecap:butt; stroke-linejoin:round; stroke-width:4; stroke-opacity:1; fill:none" points="
  249.542,257.268 274.781,257.268 
  "/>
<path clip-path="url(#clip610)" d="M126.205 1370.04 Q122.593 1370.04 120.765 1373.6 Q118.959 1377.14 118.959 1384.27 Q118.959 1391.38 120.765 1394.94 Q122.593 1398.49 126.205 1398.49 Q129.839 1398.49 131.644 1394.94 Q133.473 1391.38 133.473 1384.27 Q133.473 1377.14 131.644 1373.6 Q129.839 1370.04 126.205 1370.04 M126.205 1366.33 Q132.015 1366.33 135.07 1370.94 Q138.149 1375.52 138.149 1384.27 Q138.149 1393 135.07 1397.61 Q132.015 1402.19 126.205 1402.19 Q120.394 1402.19 117.316 1397.61 Q114.26 1393 114.26 1384.27 Q114.26 1375.52 117.316 1370.94 Q120.394 1366.33 126.205 1366.33 Z" fill="#000000" fill-rule="evenodd" fill-opacity="1" /><path clip-path="url(#clip610)" d="M146.366 1395.64 L151.251 1395.64 L151.251 1401.52 L146.366 1401.52 L146.366 1395.64 Z" fill="#000000" fill-rule="evenodd" fill-opacity="1" /><path clip-path="url(#clip610)" d="M171.436 1370.04 Q167.825 1370.04 165.996 1373.6 Q164.19 1377.14 164.19 1384.27 Q164.19 1391.38 165.996 1394.94 Q167.825 1398.49 171.436 1398.49 Q175.07 1398.49 176.876 1394.94 Q178.704 1391.38 178.704 1384.27 Q178.704 1377.14 176.876 1373.6 Q175.07 1370.04 171.436 1370.04 M171.436 1366.33 Q177.246 1366.33 180.301 1370.94 Q183.38 1375.52 183.38 1384.27 Q183.38 1393 180.301 1397.61 Q177.246 1402.19 171.436 1402.19 Q165.626 1402.19 162.547 1397.61 Q159.491 1393 159.491 1384.27 Q159.491 1375.52 162.547 1370.94 Q165.626 1366.33 171.436 1366.33 Z" fill="#000000" fill-rule="evenodd" fill-opacity="1" /><path clip-path="url(#clip610)" d="M201.598 1370.04 Q197.987 1370.04 196.158 1373.6 Q194.352 1377.14 194.352 1384.27 Q194.352 1391.38 196.158 1394.94 Q197.987 1398.49 201.598 1398.49 Q205.232 1398.49 207.037 1394.94 Q208.866 1391.38 208.866 1384.27 Q208.866 1377.14 207.037 1373.6 Q205.232 1370.04 201.598 1370.04 M201.598 1366.33 Q207.408 1366.33 210.463 1370.94 Q213.542 1375.52 213.542 1384.27 Q213.542 1393 210.463 1397.61 Q207.408 1402.19 201.598 1402.19 Q195.787 1402.19 192.709 1397.61 Q189.653 1393 189.653 1384.27 Q189.653 1375.52 192.709 1370.94 Q195.787 1366.33 201.598 1366.33 Z" fill="#000000" fill-rule="evenodd" fill-opacity="1" /><path clip-path="url(#clip610)" d="M127.2 1144.64 Q123.589 1144.64 121.76 1148.21 Q119.955 1151.75 119.955 1158.88 Q119.955 1165.99 121.76 1169.55 Q123.589 1173.09 127.2 1173.09 Q130.834 1173.09 132.64 1169.55 Q134.468 1165.99 134.468 1158.88 Q134.468 1151.75 132.64 1148.21 Q130.834 1144.64 127.2 1144.64 M127.2 1140.94 Q133.01 1140.94 136.066 1145.55 Q139.144 1150.13 139.144 1158.88 Q139.144 1167.61 136.066 1172.21 Q133.01 1176.8 127.2 1176.8 Q121.39 1176.8 118.311 1172.21 Q115.256 1167.61 115.256 1158.88 Q115.256 1150.13 118.311 1145.55 Q121.39 1140.94 127.2 1140.94 Z" fill="#000000" fill-rule="evenodd" fill-opacity="1" /><path clip-path="url(#clip610)" d="M147.362 1170.24 L152.246 1170.24 L152.246 1176.12 L147.362 1176.12 L147.362 1170.24 Z" fill="#000000" fill-rule="evenodd" fill-opacity="1" /><path clip-path="url(#clip610)" d="M172.431 1144.64 Q168.82 1144.64 166.991 1148.21 Q165.186 1151.75 165.186 1158.88 Q165.186 1165.99 166.991 1169.55 Q168.82 1173.09 172.431 1173.09 Q176.065 1173.09 177.871 1169.55 Q179.7 1165.99 179.7 1158.88 Q179.7 1151.75 177.871 1148.21 Q176.065 1144.64 172.431 1144.64 M172.431 1140.94 Q178.241 1140.94 181.297 1145.55 Q184.376 1150.13 184.376 1158.88 Q184.376 1167.61 181.297 1172.21 Q178.241 1176.8 172.431 1176.8 Q166.621 1176.8 163.542 1172.21 Q160.487 1167.61 160.487 1158.88 Q160.487 1150.13 163.542 1145.55 Q166.621 1140.94 172.431 1140.94 Z" fill="#000000" fill-rule="evenodd" fill-opacity="1" /><path clip-path="url(#clip610)" d="M192.639 1141.56 L210.996 1141.56 L210.996 1145.5 L196.922 1145.5 L196.922 1153.97 Q197.94 1153.62 198.959 1153.46 Q199.977 1153.28 200.996 1153.28 Q206.783 1153.28 210.162 1156.45 Q213.542 1159.62 213.542 1165.04 Q213.542 1170.61 210.07 1173.72 Q206.598 1176.8 200.278 1176.8 Q198.102 1176.8 195.834 1176.43 Q193.588 1176.05 191.181 1175.31 L191.181 1170.61 Q193.264 1171.75 195.487 1172.3 Q197.709 1172.86 200.186 1172.86 Q204.19 1172.86 206.528 1170.75 Q208.866 1168.65 208.866 1165.04 Q208.866 1161.43 206.528 1159.32 Q204.19 1157.21 200.186 1157.21 Q198.311 1157.21 196.436 1157.63 Q194.584 1158.05 192.639 1158.93 L192.639 1141.56 Z" fill="#000000" fill-rule="evenodd" fill-opacity="1" /><path clip-path="url(#clip610)" d="M126.205 919.249 Q122.593 919.249 120.765 922.814 Q118.959 926.355 118.959 933.485 Q118.959 940.591 120.765 944.156 Q122.593 947.698 126.205 947.698 Q129.839 947.698 131.644 944.156 Q133.473 940.591 133.473 933.485 Q133.473 926.355 131.644 922.814 Q129.839 919.249 126.205 919.249 M126.205 915.545 Q132.015 915.545 135.07 920.152 Q138.149 924.735 138.149 933.485 Q138.149 942.212 135.07 946.818 Q132.015 951.401 126.205 951.401 Q120.394 951.401 117.316 946.818 Q114.26 942.212 114.26 933.485 Q114.26 924.735 117.316 920.152 Q120.394 915.545 126.205 915.545 Z" fill="#000000" fill-rule="evenodd" fill-opacity="1" /><path clip-path="url(#clip610)" d="M146.366 944.851 L151.251 944.851 L151.251 950.73 L146.366 950.73 L146.366 944.851 Z" fill="#000000" fill-rule="evenodd" fill-opacity="1" /><path clip-path="url(#clip610)" d="M162.246 946.795 L169.885 946.795 L169.885 920.429 L161.575 922.096 L161.575 917.837 L169.839 916.17 L174.514 916.17 L174.514 946.795 L182.153 946.795 L182.153 950.73 L162.246 950.73 L162.246 946.795 Z" fill="#000000" fill-rule="evenodd" fill-opacity="1" /><path clip-path="url(#clip610)" d="M201.598 919.249 Q197.987 919.249 196.158 922.814 Q194.352 926.355 194.352 933.485 Q194.352 940.591 196.158 944.156 Q197.987 947.698 201.598 947.698 Q205.232 947.698 207.037 944.156 Q208.866 940.591 208.866 933.485 Q208.866 926.355 207.037 922.814 Q205.232 919.249 201.598 919.249 M201.598 915.545 Q207.408 915.545 210.463 920.152 Q213.542 924.735 213.542 933.485 Q213.542 942.212 210.463 946.818 Q207.408 951.401 201.598 951.401 Q195.787 951.401 192.709 946.818 Q189.653 942.212 189.653 933.485 Q189.653 924.735 192.709 920.152 Q195.787 915.545 201.598 915.545 Z" fill="#000000" fill-rule="evenodd" fill-opacity="1" /><path clip-path="url(#clip610)" d="M127.2 693.855 Q123.589 693.855 121.76 697.42 Q119.955 700.961 119.955 708.091 Q119.955 715.197 121.76 718.762 Q123.589 722.304 127.2 722.304 Q130.834 722.304 132.64 718.762 Q134.468 715.197 134.468 708.091 Q134.468 700.961 132.64 697.42 Q130.834 693.855 127.2 693.855 M127.2 690.151 Q133.01 690.151 136.066 694.758 Q139.144 699.341 139.144 708.091 Q139.144 716.818 136.066 721.424 Q133.01 726.007 127.2 726.007 Q121.39 726.007 118.311 721.424 Q115.256 716.818 115.256 708.091 Q115.256 699.341 118.311 694.758 Q121.39 690.151 127.2 690.151 Z" fill="#000000" fill-rule="evenodd" fill-opacity="1" /><path clip-path="url(#clip610)" d="M147.362 719.456 L152.246 719.456 L152.246 725.336 L147.362 725.336 L147.362 719.456 Z" fill="#000000" fill-rule="evenodd" fill-opacity="1" /><path clip-path="url(#clip610)" d="M163.241 721.401 L170.88 721.401 L170.88 695.035 L162.57 696.702 L162.57 692.443 L170.834 690.776 L175.51 690.776 L175.51 721.401 L183.149 721.401 L183.149 725.336 L163.241 725.336 L163.241 721.401 Z" fill="#000000" fill-rule="evenodd" fill-opacity="1" /><path clip-path="url(#clip610)" d="M192.639 690.776 L210.996 690.776 L210.996 694.711 L196.922 694.711 L196.922 703.183 Q197.94 702.836 198.959 702.674 Q199.977 702.489 200.996 702.489 Q206.783 702.489 210.162 705.66 Q213.542 708.832 213.542 714.248 Q213.542 719.827 210.07 722.929 Q206.598 726.007 200.278 726.007 Q198.102 726.007 195.834 725.637 Q193.588 725.267 191.181 724.526 L191.181 719.827 Q193.264 720.961 195.487 721.517 Q197.709 722.072 200.186 722.072 Q204.19 722.072 206.528 719.966 Q208.866 717.859 208.866 714.248 Q208.866 710.637 206.528 708.531 Q204.19 706.424 200.186 706.424 Q198.311 706.424 196.436 706.841 Q194.584 707.257 192.639 708.137 L192.639 690.776 Z" fill="#000000" fill-rule="evenodd" fill-opacity="1" /><path clip-path="url(#clip610)" d="M126.205 468.461 Q122.593 468.461 120.765 472.026 Q118.959 475.567 118.959 482.697 Q118.959 489.803 120.765 493.368 Q122.593 496.91 126.205 496.91 Q129.839 496.91 131.644 493.368 Q133.473 489.803 133.473 482.697 Q133.473 475.567 131.644 472.026 Q129.839 468.461 126.205 468.461 M126.205 464.757 Q132.015 464.757 135.07 469.363 Q138.149 473.947 138.149 482.697 Q138.149 491.424 135.07 496.03 Q132.015 500.613 126.205 500.613 Q120.394 500.613 117.316 496.03 Q114.26 491.424 114.26 482.697 Q114.26 473.947 117.316 469.363 Q120.394 464.757 126.205 464.757 Z" fill="#000000" fill-rule="evenodd" fill-opacity="1" /><path clip-path="url(#clip610)" d="M146.366 494.062 L151.251 494.062 L151.251 499.942 L146.366 499.942 L146.366 494.062 Z" fill="#000000" fill-rule="evenodd" fill-opacity="1" /><path clip-path="url(#clip610)" d="M165.464 496.007 L181.783 496.007 L181.783 499.942 L159.839 499.942 L159.839 496.007 Q162.501 493.252 167.084 488.623 Q171.69 483.97 172.871 482.627 Q175.116 480.104 175.996 478.368 Q176.899 476.609 176.899 474.919 Q176.899 472.164 174.954 470.428 Q173.033 468.692 169.931 468.692 Q167.732 468.692 165.278 469.456 Q162.848 470.22 160.07 471.771 L160.07 467.049 Q162.894 465.914 165.348 465.336 Q167.802 464.757 169.839 464.757 Q175.209 464.757 178.403 467.442 Q181.598 470.127 181.598 474.618 Q181.598 476.748 180.788 478.669 Q180.001 480.567 177.894 483.16 Q177.315 483.831 174.214 487.049 Q171.112 490.243 165.464 496.007 Z" fill="#000000" fill-rule="evenodd" fill-opacity="1" /><path clip-path="url(#clip610)" d="M201.598 468.461 Q197.987 468.461 196.158 472.026 Q194.352 475.567 194.352 482.697 Q194.352 489.803 196.158 493.368 Q197.987 496.91 201.598 496.91 Q205.232 496.91 207.037 493.368 Q208.866 489.803 208.866 482.697 Q208.866 475.567 207.037 472.026 Q205.232 468.461 201.598 468.461 M201.598 464.757 Q207.408 464.757 210.463 469.363 Q213.542 473.947 213.542 482.697 Q213.542 491.424 210.463 496.03 Q207.408 500.613 201.598 500.613 Q195.787 500.613 192.709 496.03 Q189.653 491.424 189.653 482.697 Q189.653 473.947 192.709 469.363 Q195.787 464.757 201.598 464.757 Z" fill="#000000" fill-rule="evenodd" fill-opacity="1" /><path clip-path="url(#clip610)" d="M127.2 243.067 Q123.589 243.067 121.76 246.631 Q119.955 250.173 119.955 257.303 Q119.955 264.409 121.76 267.974 Q123.589 271.516 127.2 271.516 Q130.834 271.516 132.64 267.974 Q134.468 264.409 134.468 257.303 Q134.468 250.173 132.64 246.631 Q130.834 243.067 127.2 243.067 M127.2 239.363 Q133.01 239.363 136.066 243.969 Q139.144 248.553 139.144 257.303 Q139.144 266.03 136.066 270.636 Q133.01 275.219 127.2 275.219 Q121.39 275.219 118.311 270.636 Q115.256 266.03 115.256 257.303 Q115.256 248.553 118.311 243.969 Q121.39 239.363 127.2 239.363 Z" fill="#000000" fill-rule="evenodd" fill-opacity="1" /><path clip-path="url(#clip610)" d="M147.362 268.668 L152.246 268.668 L152.246 274.548 L147.362 274.548 L147.362 268.668 Z" fill="#000000" fill-rule="evenodd" fill-opacity="1" /><path clip-path="url(#clip610)" d="M166.459 270.613 L182.778 270.613 L182.778 274.548 L160.834 274.548 L160.834 270.613 Q163.496 267.858 168.079 263.229 Q172.686 258.576 173.866 257.233 Q176.112 254.71 176.991 252.974 Q177.894 251.215 177.894 249.525 Q177.894 246.77 175.95 245.034 Q174.028 243.298 170.927 243.298 Q168.727 243.298 166.274 244.062 Q163.843 244.826 161.065 246.377 L161.065 241.655 Q163.89 240.52 166.343 239.942 Q168.797 239.363 170.834 239.363 Q176.204 239.363 179.399 242.048 Q182.593 244.733 182.593 249.224 Q182.593 251.354 181.783 253.275 Q180.996 255.173 178.889 257.766 Q178.311 258.437 175.209 261.655 Q172.107 264.849 166.459 270.613 Z" fill="#000000" fill-rule="evenodd" fill-opacity="1" /><path clip-path="url(#clip610)" d="M192.639 239.988 L210.996 239.988 L210.996 243.923 L196.922 243.923 L196.922 252.395 Q197.94 252.048 198.959 251.886 Q199.977 251.701 200.996 251.701 Q206.783 251.701 210.162 254.872 Q213.542 258.043 213.542 263.46 Q213.542 269.039 210.07 272.141 Q206.598 275.219 200.278 275.219 Q198.102 275.219 195.834 274.849 Q193.588 274.479 191.181 273.738 L191.181 269.039 Q193.264 270.173 195.487 270.729 Q197.709 271.284 200.186 271.284 Q204.19 271.284 206.528 269.178 Q208.866 267.071 208.866 263.46 Q208.866 259.849 206.528 257.743 Q204.19 255.636 200.186 255.636 Q198.311 255.636 196.436 256.053 Q194.584 256.469 192.639 257.349 L192.639 239.988 Z" fill="#000000" fill-rule="evenodd" fill-opacity="1" /><path clip-path="url(#clip610)" d="M14.479 773.709 L19.3487 773.709 L19.3487 779.31 Q19.3487 782.461 20.6219 783.703 Q21.895 784.912 25.2052 784.912 L28.3562 784.912 L28.3562 775.268 L32.9077 775.268 L32.9077 784.912 L64.0042 784.912 L64.0042 790.801 L32.9077 790.801 L32.9077 796.402 L28.3562 796.402 L28.3562 790.801 L25.8736 790.801 Q19.9216 790.801 17.2162 788.031 Q14.479 785.262 14.479 779.247 L14.479 773.709 Z" fill="#000000" fill-rule="evenodd" fill-opacity="1" /><path clip-path="url(#clip610)" d="M33.8307 748.15 Q33.2578 749.137 33.0032 750.315 Q32.7167 751.46 32.7167 752.861 Q32.7167 757.826 35.9632 760.5 Q39.1779 763.142 45.2253 763.142 L64.0042 763.142 L64.0042 769.03 L28.3562 769.03 L28.3562 763.142 L33.8944 763.142 Q30.6479 761.295 29.0883 758.335 Q27.4968 755.375 27.4968 751.142 Q27.4968 750.537 27.5923 749.805 Q27.656 749.073 27.8151 748.182 L33.8307 748.15 Z" fill="#000000" fill-rule="evenodd" fill-opacity="1" /><path clip-path="url(#clip610)" d="M44.7161 712.948 L47.5806 712.948 L47.5806 739.875 Q53.6281 739.493 56.8109 736.246 Q59.9619 732.968 59.9619 727.143 Q59.9619 723.77 59.1344 720.619 Q58.3069 717.436 56.6518 714.317 L62.1899 714.317 Q63.5267 717.468 64.227 720.778 Q64.9272 724.088 64.9272 727.494 Q64.9272 736.024 59.9619 741.021 Q54.9967 745.986 46.5303 745.986 Q37.7774 745.986 32.6531 741.275 Q27.4968 736.533 27.4968 728.512 Q27.4968 721.319 32.1438 717.149 Q36.7589 712.948 44.7161 712.948 M42.9973 718.804 Q38.1912 718.868 35.3266 721.51 Q32.4621 724.12 32.4621 728.448 Q32.4621 733.35 35.2312 736.31 Q38.0002 739.238 43.0292 739.684 L42.9973 718.804 Z" fill="#000000" fill-rule="evenodd" fill-opacity="1" /><path clip-path="url(#clip610)" d="M46.212 699.835 Q52.6732 699.835 56.3653 697.193 Q60.0256 694.519 60.0256 689.872 Q60.0256 685.225 56.3653 682.552 Q52.6732 679.878 46.212 679.878 Q39.7508 679.878 36.0905 682.552 Q32.3984 685.225 32.3984 689.872 Q32.3984 694.519 36.0905 697.193 Q39.7508 699.835 46.212 699.835 M58.657 679.878 Q61.8398 681.724 63.3994 684.557 Q64.9272 687.358 64.9272 691.305 Q64.9272 697.766 59.771 701.84 Q54.6147 705.882 46.212 705.882 Q37.8093 705.882 32.6531 701.84 Q27.4968 697.766 27.4968 691.305 Q27.4968 687.358 29.0564 684.557 Q30.5842 681.724 33.7671 679.878 L28.3562 679.878 L28.3562 674.022 L77.5631 674.022 L77.5631 679.878 L58.657 679.878 Z" fill="#000000" fill-rule="evenodd" fill-opacity="1" /><path clip-path="url(#clip612)" d="
M365.223 765.538 L365.223 1384.24 L535.391 1384.24 L535.391 765.538 L365.223 765.538 L365.223 765.538  Z
  " fill="#009af9" fill-rule="evenodd" fill-opacity="1"/>
<polyline clip-path="url(#clip612)" style="stroke:#009af9; stroke-linecap:butt; stroke-linejoin:round; stroke-width:4; stroke-opacity:1; fill:none" points="
  365.223,765.538 365.223,1384.24 535.391,1384.24 535.391,765.538 365.223,765.538 
  "/>
<path clip-path="url(#clip612)" d="
M535.391 168.768 L535.391 1384.24 L705.559 1384.24 L705.559 168.768 L535.391 168.768 L535.391 168.768  Z
  " fill="#009af9" fill-rule="evenodd" fill-opacity="1"/>
<polyline clip-path="url(#clip612)" style="stroke:#009af9; stroke-linecap:butt; stroke-linejoin:round; stroke-width:4; stroke-opacity:1; fill:none" points="
  535.391,168.768 535.391,1384.24 705.559,1384.24 705.559,168.768 535.391,168.768 
  "/>
<path clip-path="url(#clip612)" d="
M705.559 170.212 L705.559 1384.24 L875.728 1384.24 L875.728 170.212 L705.559 170.212 L705.559 170.212  Z
  " fill="#009af9" fill-rule="evenodd" fill-opacity="1"/>
<polyline clip-path="url(#clip612)" style="stroke:#009af9; stroke-linecap:butt; stroke-linejoin:round; stroke-width:4; stroke-opacity:1; fill:none" points="
  705.559,170.212 705.559,1384.24 875.728,1384.24 875.728,170.212 705.559,170.212 
  "/>
<path clip-path="url(#clip612)" d="
M875.728 560.222 L875.728 1384.24 L1045.9 1384.24 L1045.9 560.222 L875.728 560.222 L875.728 560.222  Z
  " fill="#009af9" fill-rule="evenodd" fill-opacity="1"/>
<polyline clip-path="url(#clip612)" style="stroke:#009af9; stroke-linecap:butt; stroke-linejoin:round; stroke-width:4; stroke-opacity:1; fill:none" points="
  875.728,560.222 875.728,1384.24 1045.9,1384.24 1045.9,560.222 875.728,560.222 
  "/>
<path clip-path="url(#clip612)" d="
M1045.9 983.398 L1045.9 1384.24 L1216.06 1384.24 L1216.06 983.398 L1045.9 983.398 L1045.9 983.398  Z
  " fill="#009af9" fill-rule="evenodd" fill-opacity="1"/>
<polyline clip-path="url(#clip612)" style="stroke:#009af9; stroke-linecap:butt; stroke-linejoin:round; stroke-width:4; stroke-opacity:1; fill:none" points="
  1045.9,983.398 1045.9,1384.24 1216.06,1384.24 1216.06,983.398 1045.9,983.398 
  "/>
<path clip-path="url(#clip612)" d="
M1216.06 1224.86 L1216.06 1384.24 L1386.23 1384.24 L1386.23 1224.86 L1216.06 1224.86 L1216.06 1224.86  Z
  " fill="#009af9" fill-rule="evenodd" fill-opacity="1"/>
<polyline clip-path="url(#clip612)" style="stroke:#009af9; stroke-linecap:butt; stroke-linejoin:round; stroke-width:4; stroke-opacity:1; fill:none" points="
  1216.06,1224.86 1216.06,1384.24 1386.23,1384.24 1386.23,1224.86 1216.06,1224.86 
  "/>
<path clip-path="url(#clip612)" d="
M1386.23 1330.31 L1386.23 1384.24 L1556.4 1384.24 L1556.4 1330.31 L1386.23 1330.31 L1386.23 1330.31  Z
  " fill="#009af9" fill-rule="evenodd" fill-opacity="1"/>
<polyline clip-path="url(#clip612)" style="stroke:#009af9; stroke-linecap:butt; stroke-linejoin:round; stroke-width:4; stroke-opacity:1; fill:none" points="
  1386.23,1330.31 1386.23,1384.24 1556.4,1384.24 1556.4,1330.31 1386.23,1330.31 
  "/>
<path clip-path="url(#clip612)" d="
M1556.4 1368.26 L1556.4 1384.24 L1726.57 1384.24 L1726.57 1368.26 L1556.4 1368.26 L1556.4 1368.26  Z
  " fill="#009af9" fill-rule="evenodd" fill-opacity="1"/>
<polyline clip-path="url(#clip612)" style="stroke:#009af9; stroke-linecap:butt; stroke-linejoin:round; stroke-width:4; stroke-opacity:1; fill:none" points="
  1556.4,1368.26 1556.4,1384.24 1726.57,1384.24 1726.57,1368.26 1556.4,1368.26 
  "/>
<path clip-path="url(#clip612)" d="
M1726.57 1379.86 L1726.57 1384.24 L1896.74 1384.24 L1896.74 1379.86 L1726.57 1379.86 L1726.57 1379.86  Z
  " fill="#009af9" fill-rule="evenodd" fill-opacity="1"/>
<polyline clip-path="url(#clip612)" style="stroke:#009af9; stroke-linecap:butt; stroke-linejoin:round; stroke-width:4; stroke-opacity:1; fill:none" points="
  1726.57,1379.86 1726.57,1384.24 1896.74,1384.24 1896.74,1379.86 1726.57,1379.86 
  "/>
<path clip-path="url(#clip612)" d="
M1896.74 1383.25 L1896.74 1384.24 L2066.91 1384.24 L2066.91 1383.25 L1896.74 1383.25 L1896.74 1383.25  Z
  " fill="#009af9" fill-rule="evenodd" fill-opacity="1"/>
<polyline clip-path="url(#clip612)" style="stroke:#009af9; stroke-linecap:butt; stroke-linejoin:round; stroke-width:4; stroke-opacity:1; fill:none" points="
  1896.74,1383.25 1896.74,1384.24 2066.91,1384.24 2066.91,1383.25 1896.74,1383.25 
  "/>
<path clip-path="url(#clip612)" d="
M2066.91 1384.06 L2066.91 1384.24 L2237.08 1384.24 L2237.08 1384.06 L2066.91 1384.06 L2066.91 1384.06  Z
  " fill="#009af9" fill-rule="evenodd" fill-opacity="1"/>
<polyline clip-path="url(#clip612)" style="stroke:#009af9; stroke-linecap:butt; stroke-linejoin:round; stroke-width:4; stroke-opacity:1; fill:none" points="
  2066.91,1384.06 2066.91,1384.24 2237.08,1384.24 2237.08,1384.06 2066.91,1384.06 
  "/>
<polyline clip-path="url(#clip612)" style="stroke:#e26f46; stroke-linecap:butt; stroke-linejoin:round; stroke-width:12; stroke-opacity:1; fill:none" points="
  365.223,916.424 382.239,868.515 399.256,818.535 416.273,766.805 433.29,713.707 450.307,659.674 467.324,605.192 484.34,550.791 501.357,497.038 518.374,444.529 
  535.391,393.876 552.408,345.699 569.425,300.61 586.442,259.202 603.458,222.038 620.475,189.634 637.492,162.451 654.509,140.881 671.526,125.242 688.543,115.764 
  705.559,112.588 722.576,115.764 739.593,125.242 756.61,140.881 773.627,162.451 790.644,189.634 807.66,222.038 824.677,259.202 841.694,300.61 858.711,345.699 
  875.728,393.876 892.745,444.529 909.762,497.038 926.778,550.791 943.795,605.192 960.812,659.674 977.829,713.707 994.846,766.805 1011.86,818.535 1028.88,868.515 
  1045.9,916.424 1062.91,962 1079.93,1005.04 1096.95,1045.38 1113.96,1082.95 1130.98,1117.69 1148,1149.59 1165.01,1178.71 1182.03,1205.12 1199.05,1228.91 
  1216.06,1250.21 1233.08,1269.16 1250.1,1285.93 1267.12,1300.68 1284.13,1313.56 1301.15,1324.76 1318.17,1334.44 1335.18,1342.74 1352.2,1349.84 1369.22,1355.86 
  1386.23,1360.95 1403.25,1365.22 1420.27,1368.78 1437.28,1371.74 1454.3,1374.18 1471.32,1376.19 1488.33,1377.83 1505.35,1379.16 1522.37,1380.23 1539.38,1381.09 
  1556.4,1381.78 1573.42,1382.33 1590.44,1382.76 1607.45,1383.1 1624.47,1383.37 1641.49,1383.58 1658.5,1383.74 1675.52,1383.86 1692.54,1383.96 1709.55,1384.03 
  1726.57,1384.08 1743.59,1384.12 1760.6,1384.15 1777.62,1384.18 1794.64,1384.19 1811.65,1384.21 1828.67,1384.21 1845.69,1384.22 1862.7,1384.23 1879.72,1384.23 
  1896.74,1384.23 1913.76,1384.23 1930.77,1384.24 1947.79,1384.24 1964.81,1384.24 1981.82,1384.24 1998.84,1384.24 2015.86,1384.24 2032.87,1384.24 2049.89,1384.24 
  2066.91,1384.24 
  "/>
<polyline clip-path="url(#clip612)" style="stroke:#3da44d; stroke-linecap:butt; stroke-linejoin:round; stroke-width:12; stroke-opacity:1; fill:none" points="
  365.223,774.163 382.239,696.939 399.256,620.988 416.273,547.341 433.29,476.955 450.307,410.699 467.324,349.336 484.34,293.518 501.357,243.782 518.374,200.54 
  535.391,164.088 552.408,134.603 569.425,112.154 586.442,96.7038 603.458,88.1198 620.475,86.1857 637.492,90.61 654.509,101.038 671.526,117.064 688.543,138.24 
  705.559,164.088 722.576,194.11 739.593,227.798 756.61,264.643 773.627,304.14 790.644,345.796 807.66,389.14 824.677,433.72 841.694,479.114 858.711,524.929 
  875.728,570.804 892.745,616.413 909.762,661.463 926.778,705.696 943.795,748.886 960.812,790.843 977.829,831.406 994.846,870.445 1011.86,907.857 1028.88,943.567 
  1045.9,977.521 1062.91,1009.69 1079.93,1040.06 1096.95,1068.64 1113.96,1095.44 1130.98,1120.51 1148,1143.88 1165.01,1165.6 1182.03,1185.75 1199.05,1204.37 
  1216.06,1221.55 1233.08,1237.36 1250.1,1251.86 1267.12,1265.14 1284.13,1277.28 1301.15,1288.34 1318.17,1298.39 1335.18,1307.52 1352.2,1315.79 1369.22,1323.27 
  1386.23,1330.01 1403.25,1336.08 1420.27,1341.54 1437.28,1346.43 1454.3,1350.81 1471.32,1354.73 1488.33,1358.23 1505.35,1361.34 1522.37,1364.11 1539.38,1366.57 
  1556.4,1368.74 1573.42,1370.67 1590.44,1372.38 1607.45,1373.88 1624.47,1375.2 1641.49,1376.37 1658.5,1377.39 1675.52,1378.29 1692.54,1379.08 1709.55,1379.76 
  1726.57,1380.36 1743.59,1380.89 1760.6,1381.35 1777.62,1381.74 1794.64,1382.09 1811.65,1382.39 1828.67,1382.65 1845.69,1382.87 1862.7,1383.07 1879.72,1383.23 
  1896.74,1383.38 1913.76,1383.5 1930.77,1383.61 1947.79,1383.7 1964.81,1383.78 1981.82,1383.85 1998.84,1383.91 2015.86,1383.96 2032.87,1384 2049.89,1384.04 
  2066.91,1384.07 
  "/>
<path clip-path="url(#clip610)" d="
M1778.33 335.029 L2282.65 335.029 L2282.65 93.1086 L1778.33 93.1086  Z
  " fill="#ffffff" fill-rule="evenodd" fill-opacity="1"/>
<polyline clip-path="url(#clip610)" style="stroke:#000000; stroke-linecap:butt; stroke-linejoin:round; stroke-width:4; stroke-opacity:1; fill:none" points="
  1778.33,335.029 2282.65,335.029 2282.65,93.1086 1778.33,93.1086 1778.33,335.029 
  "/>
<path clip-path="url(#clip610)" d="
M1801.7 177.781 L1941.92 177.781 L1941.92 129.397 L1801.7 129.397 L1801.7 177.781  Z
  " fill="#009af9" fill-rule="evenodd" fill-opacity="1"/>
<polyline clip-path="url(#clip610)" style="stroke:#009af9; stroke-linecap:butt; stroke-linejoin:round; stroke-width:4; stroke-opacity:1; fill:none" points="
  1801.7,177.781 1941.92,177.781 1941.92,129.397 1801.7,129.397 1801.7,177.781 
  "/>
<path clip-path="url(#clip610)" d="M1987.53 137.443 L1987.53 142.003 Q1984.87 140.73 1982.51 140.105 Q1980.15 139.48 1977.95 139.48 Q1974.13 139.48 1972.05 140.961 Q1969.99 142.443 1969.99 145.174 Q1969.99 147.466 1971.35 148.647 Q1972.74 149.804 1976.58 150.522 L1979.41 151.1 Q1984.64 152.096 1987.12 154.619 Q1989.62 157.119 1989.62 161.332 Q1989.62 166.355 1986.24 168.947 Q1982.88 171.54 1976.38 171.54 Q1973.92 171.54 1971.14 170.984 Q1968.39 170.429 1965.43 169.341 L1965.43 164.526 Q1968.27 166.123 1971 166.933 Q1973.74 167.744 1976.38 167.744 Q1980.38 167.744 1982.56 166.17 Q1984.73 164.596 1984.73 161.679 Q1984.73 159.133 1983.16 157.697 Q1981.61 156.262 1978.04 155.545 L1975.19 154.989 Q1969.96 153.947 1967.63 151.725 Q1965.29 149.503 1965.29 145.545 Q1965.29 140.961 1968.5 138.322 Q1971.75 135.684 1977.42 135.684 Q1979.85 135.684 1982.37 136.123 Q1984.89 136.563 1987.53 137.443 Z" fill="#000000" fill-rule="evenodd" fill-opacity="1" /><path clip-path="url(#clip610)" d="M2017.62 137.443 L2017.62 142.003 Q2014.96 140.73 2012.6 140.105 Q2010.24 139.48 2008.04 139.48 Q2004.22 139.48 2002.14 140.961 Q2000.08 142.443 2000.08 145.174 Q2000.08 147.466 2001.44 148.647 Q2002.83 149.804 2006.68 150.522 L2009.5 151.1 Q2014.73 152.096 2017.21 154.619 Q2019.71 157.119 2019.71 161.332 Q2019.71 166.355 2016.33 168.947 Q2012.97 171.54 2006.47 171.54 Q2004.01 171.54 2001.24 170.984 Q1998.48 170.429 1995.52 169.341 L1995.52 164.526 Q1998.37 166.123 2001.1 166.933 Q2003.83 167.744 2006.47 167.744 Q2010.47 167.744 2012.65 166.17 Q2014.82 164.596 2014.82 161.679 Q2014.82 159.133 2013.25 157.697 Q2011.7 156.262 2008.13 155.545 L2005.29 154.989 Q2000.06 153.947 1997.72 151.725 Q1995.38 149.503 1995.38 145.545 Q1995.38 140.961 1998.6 138.322 Q2001.84 135.684 2007.51 135.684 Q2009.94 135.684 2012.46 136.123 Q2014.99 136.563 2017.62 137.443 Z" fill="#000000" fill-rule="evenodd" fill-opacity="1" /><path clip-path="url(#clip610)" d="M2039.43 140.915 L2033.09 158.114 L2045.8 158.114 L2039.43 140.915 M2036.79 136.309 L2042.09 136.309 L2055.26 170.869 L2050.4 170.869 L2047.25 162.003 L2031.68 162.003 L2028.53 170.869 L2023.6 170.869 L2036.79 136.309 Z" fill="#000000" fill-rule="evenodd" fill-opacity="1" /><polyline clip-path="url(#clip610)" style="stroke:#e26f46; stroke-linecap:butt; stroke-linejoin:round; stroke-width:4; stroke-opacity:1; fill:none" points="
  1801.7,214.069 1941.92,214.069 
  "/>
<path clip-path="url(#clip610)" d="M1984.2 218.085 Q1984.2 213.455 1982.28 210.909 Q1980.38 208.363 1976.93 208.363 Q1973.5 208.363 1971.58 210.909 Q1969.69 213.455 1969.69 218.085 Q1969.69 222.691 1971.58 225.238 Q1973.5 227.784 1976.93 227.784 Q1980.38 227.784 1982.28 225.238 Q1984.2 222.691 1984.2 218.085 M1988.46 228.131 Q1988.46 234.751 1985.52 237.969 Q1982.58 241.21 1976.51 241.21 Q1974.27 241.21 1972.28 240.862 Q1970.29 240.538 1968.41 239.844 L1968.41 235.7 Q1970.29 236.719 1972.12 237.205 Q1973.94 237.691 1975.84 237.691 Q1980.03 237.691 1982.12 235.492 Q1984.2 233.316 1984.2 228.895 L1984.2 226.788 Q1982.88 229.08 1980.82 230.214 Q1978.76 231.349 1975.89 231.349 Q1971.12 231.349 1968.2 227.714 Q1965.29 224.08 1965.29 218.085 Q1965.29 212.066 1968.2 208.432 Q1971.12 204.798 1975.89 204.798 Q1978.76 204.798 1980.82 205.932 Q1982.88 207.066 1984.2 209.358 L1984.2 205.423 L1988.46 205.423 L1988.46 228.131 Z" fill="#000000" fill-rule="evenodd" fill-opacity="1" /><path clip-path="url(#clip610)" d="M2009.01 218.316 Q2003.85 218.316 2001.86 219.497 Q1999.87 220.677 1999.87 223.525 Q1999.87 225.793 2001.35 227.136 Q2002.86 228.455 2005.43 228.455 Q2008.97 228.455 2011.1 225.955 Q2013.25 223.432 2013.25 219.265 L2013.25 218.316 L2009.01 218.316 M2017.51 216.557 L2017.51 231.349 L2013.25 231.349 L2013.25 227.413 Q2011.79 229.775 2009.62 230.909 Q2007.44 232.02 2004.29 232.02 Q2000.31 232.02 1997.95 229.798 Q1995.61 227.552 1995.61 223.802 Q1995.61 219.427 1998.53 217.205 Q2001.47 214.983 2007.28 214.983 L2013.25 214.983 L2013.25 214.566 Q2013.25 211.627 2011.31 210.029 Q2009.38 208.409 2005.89 208.409 Q2003.67 208.409 2001.56 208.941 Q1999.45 209.474 1997.51 210.539 L1997.51 206.603 Q1999.85 205.701 2002.05 205.261 Q2004.25 204.798 2006.33 204.798 Q2011.95 204.798 2014.73 207.714 Q2017.51 210.631 2017.51 216.557 Z" fill="#000000" fill-rule="evenodd" fill-opacity="1" /><path clip-path="url(#clip610)" d="M2025.84 221.117 L2025.84 205.423 L2030.1 205.423 L2030.1 220.955 Q2030.1 224.636 2031.54 226.488 Q2032.97 228.316 2035.84 228.316 Q2039.29 228.316 2041.28 226.117 Q2043.3 223.918 2043.3 220.122 L2043.3 205.423 L2047.56 205.423 L2047.56 231.349 L2043.3 231.349 L2043.3 227.367 Q2041.75 229.728 2039.68 230.886 Q2037.65 232.02 2034.94 232.02 Q2030.47 232.02 2028.16 229.242 Q2025.84 226.464 2025.84 221.117 M2036.56 204.798 L2036.56 204.798 Z" fill="#000000" fill-rule="evenodd" fill-opacity="1" /><path clip-path="url(#clip610)" d="M2072.86 206.187 L2072.86 210.214 Q2071.05 209.289 2069.11 208.826 Q2067.16 208.363 2065.08 208.363 Q2061.91 208.363 2060.31 209.335 Q2058.74 210.307 2058.74 212.251 Q2058.74 213.733 2059.87 214.589 Q2061 215.423 2064.43 216.187 L2065.89 216.511 Q2070.43 217.483 2072.32 219.265 Q2074.24 221.025 2074.24 224.196 Q2074.24 227.807 2071.37 229.913 Q2068.53 232.02 2063.53 232.02 Q2061.44 232.02 2059.18 231.603 Q2056.93 231.21 2054.43 230.4 L2054.43 226.001 Q2056.79 227.228 2059.08 227.853 Q2061.37 228.455 2063.62 228.455 Q2066.63 228.455 2068.25 227.437 Q2069.87 226.395 2069.87 224.52 Q2069.87 222.784 2068.69 221.858 Q2067.53 220.932 2063.57 220.076 L2062.09 219.728 Q2058.13 218.895 2056.37 217.182 Q2054.62 215.446 2054.62 212.437 Q2054.62 208.779 2057.21 206.789 Q2059.8 204.798 2064.57 204.798 Q2066.93 204.798 2069.01 205.145 Q2071.1 205.492 2072.86 206.187 Z" fill="#000000" fill-rule="evenodd" fill-opacity="1" /><path clip-path="url(#clip610)" d="M2097.55 206.187 L2097.55 210.214 Q2095.75 209.289 2093.8 208.826 Q2091.86 208.363 2089.78 208.363 Q2086.61 208.363 2085.01 209.335 Q2083.43 210.307 2083.43 212.251 Q2083.43 213.733 2084.57 214.589 Q2085.7 215.423 2089.13 216.187 L2090.59 216.511 Q2095.12 217.483 2097.02 219.265 Q2098.94 221.025 2098.94 224.196 Q2098.94 227.807 2096.07 229.913 Q2093.23 232.02 2088.23 232.02 Q2086.14 232.02 2083.87 231.603 Q2081.63 231.21 2079.13 230.4 L2079.13 226.001 Q2081.49 227.228 2083.78 227.853 Q2086.07 228.455 2088.32 228.455 Q2091.33 228.455 2092.95 227.437 Q2094.57 226.395 2094.57 224.52 Q2094.57 222.784 2093.39 221.858 Q2092.23 220.932 2088.27 220.076 L2086.79 219.728 Q2082.83 218.895 2081.07 217.182 Q2079.31 215.446 2079.31 212.437 Q2079.31 208.779 2081.91 206.789 Q2084.5 204.798 2089.27 204.798 Q2091.63 204.798 2093.71 205.145 Q2095.8 205.492 2097.55 206.187 Z" fill="#000000" fill-rule="evenodd" fill-opacity="1" /><path clip-path="url(#clip610)" d="M2105.73 205.423 L2109.99 205.423 L2109.99 231.349 L2105.73 231.349 L2105.73 205.423 M2105.73 195.33 L2109.99 195.33 L2109.99 200.724 L2105.73 200.724 L2105.73 195.33 Z" fill="#000000" fill-rule="evenodd" fill-opacity="1" /><path clip-path="url(#clip610)" d="M2130.68 218.316 Q2125.52 218.316 2123.53 219.497 Q2121.54 220.677 2121.54 223.525 Q2121.54 225.793 2123.02 227.136 Q2124.52 228.455 2127.09 228.455 Q2130.63 228.455 2132.76 225.955 Q2134.92 223.432 2134.92 219.265 L2134.92 218.316 L2130.68 218.316 M2139.18 216.557 L2139.18 231.349 L2134.92 231.349 L2134.92 227.413 Q2133.46 229.775 2131.28 230.909 Q2129.11 232.02 2125.96 232.02 Q2121.98 232.02 2119.62 229.798 Q2117.28 227.552 2117.28 223.802 Q2117.28 219.427 2120.19 217.205 Q2123.13 214.983 2128.94 214.983 L2134.92 214.983 L2134.92 214.566 Q2134.92 211.627 2132.97 210.029 Q2131.05 208.409 2127.55 208.409 Q2125.33 208.409 2123.23 208.941 Q2121.12 209.474 2119.18 210.539 L2119.18 206.603 Q2121.51 205.701 2123.71 205.261 Q2125.91 204.798 2127.99 204.798 Q2133.62 204.798 2136.4 207.714 Q2139.18 210.631 2139.18 216.557 Z" fill="#000000" fill-rule="evenodd" fill-opacity="1" /><path clip-path="url(#clip610)" d="M2169.5 215.701 L2169.5 231.349 L2165.24 231.349 L2165.24 215.839 Q2165.24 212.159 2163.8 210.33 Q2162.37 208.502 2159.5 208.502 Q2156.05 208.502 2154.06 210.701 Q2152.07 212.9 2152.07 216.696 L2152.07 231.349 L2147.79 231.349 L2147.79 205.423 L2152.07 205.423 L2152.07 209.451 Q2153.6 207.113 2155.66 205.955 Q2157.74 204.798 2160.45 204.798 Q2164.92 204.798 2167.21 207.576 Q2169.5 210.33 2169.5 215.701 Z" fill="#000000" fill-rule="evenodd" fill-opacity="1" /><path clip-path="url(#clip610)" d="M2206.19 195.33 L2206.19 198.872 L2202.11 198.872 Q2199.82 198.872 2198.92 199.798 Q2198.04 200.724 2198.04 203.131 L2198.04 205.423 L2205.05 205.423 L2205.05 208.733 L2198.04 208.733 L2198.04 231.349 L2193.76 231.349 L2193.76 208.733 L2189.68 208.733 L2189.68 205.423 L2193.76 205.423 L2193.76 203.617 Q2193.76 199.289 2195.77 197.321 Q2197.79 195.33 2202.16 195.33 L2206.19 195.33 Z" fill="#000000" fill-rule="evenodd" fill-opacity="1" /><path clip-path="url(#clip610)" d="M2209.75 205.423 L2214.01 205.423 L2214.01 231.349 L2209.75 231.349 L2209.75 205.423 M2209.75 195.33 L2214.01 195.33 L2214.01 200.724 L2209.75 200.724 L2209.75 195.33 Z" fill="#000000" fill-rule="evenodd" fill-opacity="1" /><path clip-path="url(#clip610)" d="M2227.14 198.062 L2227.14 205.423 L2235.91 205.423 L2235.91 208.733 L2227.14 208.733 L2227.14 222.807 Q2227.14 225.978 2227.99 226.881 Q2228.87 227.784 2231.54 227.784 L2235.91 227.784 L2235.91 231.349 L2231.54 231.349 Q2226.61 231.349 2224.73 229.52 Q2222.86 227.668 2222.86 222.807 L2222.86 208.733 L2219.73 208.733 L2219.73 205.423 L2222.86 205.423 L2222.86 198.062 L2227.14 198.062 Z" fill="#000000" fill-rule="evenodd" fill-opacity="1" /><polyline clip-path="url(#clip610)" style="stroke:#3da44d; stroke-linecap:butt; stroke-linejoin:round; stroke-width:4; stroke-opacity:1; fill:none" points="
  1801.7,274.549 1941.92,274.549 
  "/>
<path clip-path="url(#clip610)" d="M1969.57 287.94 L1969.57 301.69 L1965.29 301.69 L1965.29 265.903 L1969.57 265.903 L1969.57 269.838 Q1970.91 267.523 1972.95 266.412 Q1975.01 265.278 1977.86 265.278 Q1982.58 265.278 1985.52 269.028 Q1988.48 272.778 1988.48 278.889 Q1988.48 285 1985.52 288.75 Q1982.58 292.5 1977.86 292.5 Q1975.01 292.5 1972.95 291.389 Q1970.91 290.255 1969.57 287.94 M1984.06 278.889 Q1984.06 274.19 1982.12 271.528 Q1980.19 268.843 1976.81 268.843 Q1973.44 268.843 1971.49 271.528 Q1969.57 274.19 1969.57 278.889 Q1969.57 283.588 1971.49 286.273 Q1973.44 288.935 1976.81 288.935 Q1980.19 288.935 1982.12 286.273 Q1984.06 283.588 1984.06 278.889 Z" fill="#000000" fill-rule="evenodd" fill-opacity="1" /><path clip-path="url(#clip610)" d="M2005.59 268.889 Q2002.16 268.889 2000.17 271.574 Q1998.18 274.236 1998.18 278.889 Q1998.18 283.542 2000.15 286.227 Q2002.14 288.889 2005.59 288.889 Q2008.99 288.889 2010.98 286.204 Q2012.97 283.518 2012.97 278.889 Q2012.97 274.282 2010.98 271.597 Q2008.99 268.889 2005.59 268.889 M2005.59 265.278 Q2011.14 265.278 2014.31 268.889 Q2017.49 272.5 2017.49 278.889 Q2017.49 285.255 2014.31 288.889 Q2011.14 292.5 2005.59 292.5 Q2000.01 292.5 1996.84 288.889 Q1993.69 285.255 1993.69 278.889 Q1993.69 272.5 1996.84 268.889 Q2000.01 265.278 2005.59 265.278 Z" fill="#000000" fill-rule="evenodd" fill-opacity="1" /><path clip-path="url(#clip610)" d="M2024.55 265.903 L2028.81 265.903 L2028.81 291.829 L2024.55 291.829 L2024.55 265.903 M2024.55 255.81 L2028.81 255.81 L2028.81 261.204 L2024.55 261.204 L2024.55 255.81 Z" fill="#000000" fill-rule="evenodd" fill-opacity="1" /><path clip-path="url(#clip610)" d="M2054.24 266.667 L2054.24 270.694 Q2052.44 269.769 2050.5 269.306 Q2048.55 268.843 2046.47 268.843 Q2043.3 268.843 2041.7 269.815 Q2040.12 270.787 2040.12 272.731 Q2040.12 274.213 2041.26 275.069 Q2042.39 275.903 2045.82 276.667 L2047.28 276.991 Q2051.81 277.963 2053.71 279.745 Q2055.63 281.505 2055.63 284.676 Q2055.63 288.287 2052.76 290.393 Q2049.92 292.5 2044.92 292.5 Q2042.83 292.5 2040.56 292.083 Q2038.32 291.69 2035.82 290.88 L2035.82 286.481 Q2038.18 287.708 2040.47 288.333 Q2042.76 288.935 2045.01 288.935 Q2048.02 288.935 2049.64 287.917 Q2051.26 286.875 2051.26 285 Q2051.26 283.264 2050.08 282.338 Q2048.92 281.412 2044.96 280.556 L2043.48 280.208 Q2039.52 279.375 2037.76 277.662 Q2036 275.926 2036 272.917 Q2036 269.259 2038.6 267.269 Q2041.19 265.278 2045.96 265.278 Q2048.32 265.278 2050.4 265.625 Q2052.49 265.972 2054.24 266.667 Z" fill="#000000" fill-rule="evenodd" fill-opacity="1" /><path clip-path="url(#clip610)" d="M2078.94 266.667 L2078.94 270.694 Q2077.14 269.769 2075.19 269.306 Q2073.25 268.843 2071.17 268.843 Q2067.99 268.843 2066.4 269.815 Q2064.82 270.787 2064.82 272.731 Q2064.82 274.213 2065.96 275.069 Q2067.09 275.903 2070.52 276.667 L2071.98 276.991 Q2076.51 277.963 2078.41 279.745 Q2080.33 281.505 2080.33 284.676 Q2080.33 288.287 2077.46 290.393 Q2074.62 292.5 2069.62 292.5 Q2067.53 292.5 2065.26 292.083 Q2063.02 291.69 2060.52 290.88 L2060.52 286.481 Q2062.88 287.708 2065.17 288.333 Q2067.46 288.935 2069.71 288.935 Q2072.72 288.935 2074.34 287.917 Q2075.96 286.875 2075.96 285 Q2075.96 283.264 2074.78 282.338 Q2073.62 281.412 2069.66 280.556 L2068.18 280.208 Q2064.22 279.375 2062.46 277.662 Q2060.7 275.926 2060.7 272.917 Q2060.7 269.259 2063.3 267.269 Q2065.89 265.278 2070.66 265.278 Q2073.02 265.278 2075.1 265.625 Q2077.18 265.972 2078.94 266.667 Z" fill="#000000" fill-rule="evenodd" fill-opacity="1" /><path clip-path="url(#clip610)" d="M2097.16 268.889 Q2093.74 268.889 2091.74 271.574 Q2089.75 274.236 2089.75 278.889 Q2089.75 283.542 2091.72 286.227 Q2093.71 288.889 2097.16 288.889 Q2100.56 288.889 2102.55 286.204 Q2104.55 283.518 2104.55 278.889 Q2104.55 274.282 2102.55 271.597 Q2100.56 268.889 2097.16 268.889 M2097.16 265.278 Q2102.72 265.278 2105.89 268.889 Q2109.06 272.5 2109.06 278.889 Q2109.06 285.255 2105.89 288.889 Q2102.72 292.5 2097.16 292.5 Q2091.58 292.5 2088.41 288.889 Q2085.26 285.255 2085.26 278.889 Q2085.26 272.5 2088.41 268.889 Q2091.58 265.278 2097.16 265.278 Z" fill="#000000" fill-rule="evenodd" fill-opacity="1" /><path clip-path="url(#clip610)" d="M2137.67 276.181 L2137.67 291.829 L2133.41 291.829 L2133.41 276.319 Q2133.41 272.639 2131.98 270.81 Q2130.54 268.982 2127.67 268.982 Q2124.22 268.982 2122.23 271.181 Q2120.24 273.38 2120.24 277.176 L2120.24 291.829 L2115.96 291.829 L2115.96 265.903 L2120.24 265.903 L2120.24 269.931 Q2121.77 267.593 2123.83 266.435 Q2125.91 265.278 2128.62 265.278 Q2133.09 265.278 2135.38 268.056 Q2137.67 270.81 2137.67 276.181 Z" fill="#000000" fill-rule="evenodd" fill-opacity="1" /><path clip-path="url(#clip610)" d="M2174.36 255.81 L2174.36 259.352 L2170.29 259.352 Q2167.99 259.352 2167.09 260.278 Q2166.21 261.204 2166.21 263.611 L2166.21 265.903 L2173.23 265.903 L2173.23 269.213 L2166.21 269.213 L2166.21 291.829 L2161.93 291.829 L2161.93 269.213 L2157.86 269.213 L2157.86 265.903 L2161.93 265.903 L2161.93 264.097 Q2161.93 259.769 2163.94 257.801 Q2165.96 255.81 2170.33 255.81 L2174.36 255.81 Z" fill="#000000" fill-rule="evenodd" fill-opacity="1" /><path clip-path="url(#clip610)" d="M2177.92 265.903 L2182.18 265.903 L2182.18 291.829 L2177.92 291.829 L2177.92 265.903 M2177.92 255.81 L2182.18 255.81 L2182.18 261.204 L2177.92 261.204 L2177.92 255.81 Z" fill="#000000" fill-rule="evenodd" fill-opacity="1" /><path clip-path="url(#clip610)" d="M2195.31 258.542 L2195.31 265.903 L2204.08 265.903 L2204.08 269.213 L2195.31 269.213 L2195.31 283.287 Q2195.31 286.458 2196.17 287.361 Q2197.05 288.264 2199.71 288.264 L2204.08 288.264 L2204.08 291.829 L2199.71 291.829 Q2194.78 291.829 2192.9 290 Q2191.03 288.148 2191.03 283.287 L2191.03 269.213 L2187.9 269.213 L2187.9 265.903 L2191.03 265.903 L2191.03 258.542 L2195.31 258.542 Z" fill="#000000" fill-rule="evenodd" fill-opacity="1" /></svg>
