<?xml version="1.0" encoding="utf-8"?>
<svg xmlns="http://www.w3.org/2000/svg" xmlns:xlink="http://www.w3.org/1999/xlink" width="600" height="400" viewBox="0 0 2400 1600">
<defs>
  <clipPath id="clip640">
    <rect x="0" y="0" width="2400" height="1600"/>
  </clipPath>
</defs>
<path clip-path="url(#clip640)" d="
M0 1600 L2400 1600 L2400 0 L0 0  Z
  " fill="#ffffff" fill-rule="evenodd" fill-opacity="1"/>
<defs>
  <clipPath id="clip641">
    <rect x="480" y="0" width="1681" height="1600"/>
  </clipPath>
</defs>
<path clip-path="url(#clip640)" d="
M279.704 1423.18 L2352.76 1423.18 L2352.76 47.2441 L279.704 47.2441  Z
  " fill="#ffffff" fill-rule="evenodd" fill-opacity="1"/>
<defs>
  <clipPath id="clip642">
    <rect x="279" y="47" width="2074" height="1377"/>
  </clipPath>
</defs>
<polyline clip-path="url(#clip642)" style="stroke:#000000; stroke-linecap:butt; stroke-linejoin:round; stroke-width:2; stroke-opacity:0.1; fill:none" points="
  393.725,1423.18 393.725,47.2441 
  "/>
<polyline clip-path="url(#clip642)" style="stroke:#000000; stroke-linecap:butt; stroke-linejoin:round; stroke-width:2; stroke-opacity:0.1; fill:none" points="
  1008.73,1423.18 1008.73,47.2441 
  "/>
<polyline clip-path="url(#clip642)" style="stroke:#000000; stroke-linecap:butt; stroke-linejoin:round; stroke-width:2; stroke-opacity:0.1; fill:none" points="
  1623.73,1423.18 1623.73,47.2441 
  "/>
<polyline clip-path="url(#clip642)" style="stroke:#000000; stroke-linecap:butt; stroke-linejoin:round; stroke-width:2; stroke-opacity:0.1; fill:none" points="
  2238.73,1423.18 2238.73,47.2441 
  "/>
<polyline clip-path="url(#clip640)" style="stroke:#000000; stroke-linecap:butt; stroke-linejoin:round; stroke-width:4; stroke-opacity:1; fill:none" points="
  279.704,1423.18 2352.76,1423.18 
  "/>
<polyline clip-path="url(#clip640)" style="stroke:#000000; stroke-linecap:butt; stroke-linejoin:round; stroke-width:4; stroke-opacity:1; fill:none" points="
  393.725,1423.18 393.725,1406.67 
  "/>
<polyline clip-path="url(#clip640)" style="stroke:#000000; stroke-linecap:butt; stroke-linejoin:round; stroke-width:4; stroke-opacity:1; fill:none" points="
  1008.73,1423.18 1008.73,1406.67 
  "/>
<polyline clip-path="url(#clip640)" style="stroke:#000000; stroke-linecap:butt; stroke-linejoin:round; stroke-width:4; stroke-opacity:1; fill:none" points="
  1623.73,1423.18 1623.73,1406.67 
  "/>
<polyline clip-path="url(#clip640)" style="stroke:#000000; stroke-linecap:butt; stroke-linejoin:round; stroke-width:4; stroke-opacity:1; fill:none" points="
  2238.73,1423.18 2238.73,1406.67 
  "/>
<path clip-path="url(#clip640)" d="M393.725 1452.37 Q390.114 1452.37 388.286 1455.94 Q386.48 1459.48 386.48 1466.61 Q386.48 1473.71 388.286 1477.28 Q390.114 1480.82 393.725 1480.82 Q397.36 1480.82 399.165 1477.28 Q400.994 1473.71 400.994 1466.61 Q400.994 1459.48 399.165 1455.94 Q397.36 1452.37 393.725 1452.37 M393.725 1448.67 Q399.536 1448.67 402.591 1453.27 Q405.67 1457.86 405.67 1466.61 Q405.67 1475.33 402.591 1479.94 Q399.536 1484.52 393.725 1484.52 Q387.915 1484.52 384.837 1479.94 Q381.781 1475.33 381.781 1466.61 Q381.781 1457.86 384.837 1453.27 Q387.915 1448.67 393.725 1448.67 Z" fill="#000000" fill-rule="evenodd" fill-opacity="1" /><path clip-path="url(#clip640)" d="M983.416 1479.92 L991.055 1479.92 L991.055 1453.55 L982.745 1455.22 L982.745 1450.96 L991.009 1449.29 L995.685 1449.29 L995.685 1479.92 L1003.32 1479.92 L1003.32 1483.85 L983.416 1483.85 L983.416 1479.92 Z" fill="#000000" fill-rule="evenodd" fill-opacity="1" /><path clip-path="url(#clip640)" d="M1022.77 1452.37 Q1019.16 1452.37 1017.33 1455.94 Q1015.52 1459.48 1015.52 1466.61 Q1015.52 1473.71 1017.33 1477.28 Q1019.16 1480.82 1022.77 1480.82 Q1026.4 1480.82 1028.21 1477.28 Q1030.04 1473.71 1030.04 1466.61 Q1030.04 1459.48 1028.21 1455.94 Q1026.4 1452.37 1022.77 1452.37 M1022.77 1448.67 Q1028.58 1448.67 1031.63 1453.27 Q1034.71 1457.86 1034.71 1466.61 Q1034.71 1475.33 1031.63 1479.94 Q1028.58 1484.52 1022.77 1484.52 Q1016.96 1484.52 1013.88 1479.94 Q1010.82 1475.33 1010.82 1466.61 Q1010.82 1457.86 1013.88 1453.27 Q1016.96 1448.67 1022.77 1448.67 Z" fill="#000000" fill-rule="evenodd" fill-opacity="1" /><path clip-path="url(#clip640)" d="M1602.5 1479.92 L1618.82 1479.92 L1618.82 1483.85 L1596.88 1483.85 L1596.88 1479.92 Q1599.54 1477.16 1604.13 1472.53 Q1608.73 1467.88 1609.91 1466.54 Q1612.16 1464.01 1613.04 1462.28 Q1613.94 1460.52 1613.94 1458.83 Q1613.94 1456.07 1612 1454.34 Q1610.07 1452.6 1606.97 1452.6 Q1604.77 1452.6 1602.32 1453.37 Q1599.89 1454.13 1597.11 1455.68 L1597.11 1450.96 Q1599.94 1449.82 1602.39 1449.25 Q1604.84 1448.67 1606.88 1448.67 Q1612.25 1448.67 1615.44 1451.35 Q1618.64 1454.04 1618.64 1458.53 Q1618.64 1460.66 1617.83 1462.58 Q1617.04 1464.48 1614.94 1467.07 Q1614.36 1467.74 1611.25 1470.96 Q1608.15 1474.15 1602.5 1479.92 Z" fill="#000000" fill-rule="evenodd" fill-opacity="1" /><path clip-path="url(#clip640)" d="M1638.64 1452.37 Q1635.03 1452.37 1633.2 1455.94 Q1631.39 1459.48 1631.39 1466.61 Q1631.39 1473.71 1633.2 1477.28 Q1635.03 1480.82 1638.64 1480.82 Q1642.27 1480.82 1644.08 1477.28 Q1645.91 1473.71 1645.91 1466.61 Q1645.91 1459.48 1644.08 1455.94 Q1642.27 1452.37 1638.64 1452.37 M1638.64 1448.67 Q1644.45 1448.67 1647.5 1453.27 Q1650.58 1457.86 1650.58 1466.61 Q1650.58 1475.33 1647.5 1479.94 Q1644.45 1484.52 1638.64 1484.52 Q1632.83 1484.52 1629.75 1479.94 Q1626.69 1475.33 1626.69 1466.61 Q1626.69 1457.86 1629.75 1453.27 Q1632.83 1448.67 1638.64 1448.67 Z" fill="#000000" fill-rule="evenodd" fill-opacity="1" /><path clip-path="url(#clip640)" d="M2227.58 1465.22 Q2230.93 1465.94 2232.81 1468.2 Q2234.71 1470.47 2234.71 1473.81 Q2234.71 1478.92 2231.19 1481.72 Q2227.67 1484.52 2221.19 1484.52 Q2219.01 1484.52 2216.7 1484.08 Q2214.41 1483.67 2211.95 1482.81 L2211.95 1478.3 Q2213.9 1479.43 2216.21 1480.01 Q2218.53 1480.59 2221.05 1480.59 Q2225.45 1480.59 2227.74 1478.85 Q2230.05 1477.12 2230.05 1473.81 Q2230.05 1470.75 2227.9 1469.04 Q2225.77 1467.3 2221.95 1467.3 L2217.92 1467.3 L2217.92 1463.46 L2222.14 1463.46 Q2225.59 1463.46 2227.41 1462.09 Q2229.24 1460.7 2229.24 1458.11 Q2229.24 1455.45 2227.35 1454.04 Q2225.47 1452.6 2221.95 1452.6 Q2220.03 1452.6 2217.83 1453.02 Q2215.63 1453.44 2212.99 1454.31 L2212.99 1450.15 Q2215.66 1449.41 2217.97 1449.04 Q2220.31 1448.67 2222.37 1448.67 Q2227.69 1448.67 2230.79 1451.1 Q2233.9 1453.5 2233.9 1457.63 Q2233.9 1460.5 2232.25 1462.49 Q2230.61 1464.45 2227.58 1465.22 Z" fill="#000000" fill-rule="evenodd" fill-opacity="1" /><path clip-path="url(#clip640)" d="M2253.57 1452.37 Q2249.96 1452.37 2248.13 1455.94 Q2246.33 1459.48 2246.33 1466.61 Q2246.33 1473.71 2248.13 1477.28 Q2249.96 1480.82 2253.57 1480.82 Q2257.21 1480.82 2259.01 1477.28 Q2260.84 1473.71 2260.84 1466.61 Q2260.84 1459.48 2259.01 1455.94 Q2257.21 1452.37 2253.57 1452.37 M2253.57 1448.67 Q2259.38 1448.67 2262.44 1453.27 Q2265.52 1457.86 2265.52 1466.61 Q2265.52 1475.33 2262.44 1479.94 Q2259.38 1484.52 2253.57 1484.52 Q2247.76 1484.52 2244.68 1479.94 Q2241.63 1475.33 2241.63 1466.61 Q2241.63 1457.86 2244.68 1453.27 Q2247.76 1448.67 2253.57 1448.67 Z" fill="#000000" fill-rule="evenodd" fill-opacity="1" /><path clip-path="url(#clip640)" d="M1306.17 1562.7 L1306.17 1581.6 L1300.28 1581.6 L1300.28 1532.4 L1306.17 1532.4 L1306.17 1537.81 Q1308.02 1534.62 1310.82 1533.1 Q1313.65 1531.54 1317.57 1531.54 Q1324.06 1531.54 1328.1 1536.69 Q1332.18 1541.85 1332.18 1550.25 Q1332.18 1558.65 1328.1 1563.81 Q1324.06 1568.97 1317.57 1568.97 Q1313.65 1568.97 1310.82 1567.44 Q1308.02 1565.88 1306.17 1562.7 M1326.1 1550.25 Q1326.1 1543.79 1323.42 1540.13 Q1320.78 1536.44 1316.13 1536.44 Q1311.49 1536.44 1308.81 1540.13 Q1306.17 1543.79 1306.17 1550.25 Q1306.17 1556.71 1308.81 1560.4 Q1311.49 1564.07 1316.13 1564.07 Q1320.78 1564.07 1323.42 1560.4 Q1326.1 1556.71 1326.1 1550.25 Z" fill="#000000" fill-rule="evenodd" fill-opacity="1" /><polyline clip-path="url(#clip642)" style="stroke:#000000; stroke-linecap:butt; stroke-linejoin:round; stroke-width:2; stroke-opacity:0.1; fill:none" points="
  279.704,1384.24 2352.76,1384.24 
  "/>
<polyline clip-path="url(#clip642)" style="stroke:#000000; stroke-linecap:butt; stroke-linejoin:round; stroke-width:2; stroke-opacity:0.1; fill:none" points="
  279.704,1102.68 2352.76,1102.68 
  "/>
<polyline clip-path="url(#clip642)" style="stroke:#000000; stroke-linecap:butt; stroke-linejoin:round; stroke-width:2; stroke-opacity:0.1; fill:none" points="
  279.704,821.123 2352.76,821.123 
  "/>
<polyline clip-path="url(#clip642)" style="stroke:#000000; stroke-linecap:butt; stroke-linejoin:round; stroke-width:2; stroke-opacity:0.1; fill:none" points="
  279.704,539.566 2352.76,539.566 
  "/>
<polyline clip-path="url(#clip642)" style="stroke:#000000; stroke-linecap:butt; stroke-linejoin:round; stroke-width:2; stroke-opacity:0.1; fill:none" points="
  279.704,258.008 2352.76,258.008 
  "/>
<polyline clip-path="url(#clip640)" style="stroke:#000000; stroke-linecap:butt; stroke-linejoin:round; stroke-width:4; stroke-opacity:1; fill:none" points="
  279.704,1423.18 279.704,47.2441 
  "/>
<polyline clip-path="url(#clip640)" style="stroke:#000000; stroke-linecap:butt; stroke-linejoin:round; stroke-width:4; stroke-opacity:1; fill:none" points="
  279.704,1384.24 304.581,1384.24 
  "/>
<polyline clip-path="url(#clip640)" style="stroke:#000000; stroke-linecap:butt; stroke-linejoin:round; stroke-width:4; stroke-opacity:1; fill:none" points="
  279.704,1102.68 304.581,1102.68 
  "/>
<polyline clip-path="url(#clip640)" style="stroke:#000000; stroke-linecap:butt; stroke-linejoin:round; stroke-width:4; stroke-opacity:1; fill:none" points="
  279.704,821.123 304.581,821.123 
  "/>
<polyline clip-path="url(#clip640)" style="stroke:#000000; stroke-linecap:butt; stroke-linejoin:round; stroke-width:4; stroke-opacity:1; fill:none" points="
  279.704,539.566 304.581,539.566 
  "/>
<polyline clip-path="url(#clip640)" style="stroke:#000000; stroke-linecap:butt; stroke-linejoin:round; stroke-width:4; stroke-opacity:1; fill:none" points="
  279.704,258.008 304.581,258.008 
  "/>
<path clip-path="url(#clip640)" d="M126.205 1370.04 Q122.593 1370.04 120.765 1373.6 Q118.959 1377.14 118.959 1384.27 Q118.959 1391.38 120.765 1394.94 Q122.593 1398.49 126.205 1398.49 Q129.839 1398.49 131.644 1394.94 Q133.473 1391.38 133.473 1384.27 Q133.473 1377.14 131.644 1373.6 Q129.839 1370.04 126.205 1370.04 M126.205 1366.33 Q132.015 1366.33 135.07 1370.94 Q138.149 1375.52 138.149 1384.27 Q138.149 1393 135.07 1397.61 Q132.015 1402.19 126.205 1402.19 Q120.394 1402.19 117.316 1397.61 Q114.26 1393 114.26 1384.27 Q114.26 1375.52 117.316 1370.94 Q120.394 1366.33 126.205 1366.33 Z" fill="#000000" fill-rule="evenodd" fill-opacity="1" /><path clip-path="url(#clip640)" d="M146.366 1395.64 L151.251 1395.64 L151.251 1401.52 L146.366 1401.52 L146.366 1395.64 Z" fill="#000000" fill-rule="evenodd" fill-opacity="1" /><path clip-path="url(#clip640)" d="M171.436 1370.04 Q167.825 1370.04 165.996 1373.6 Q164.19 1377.14 164.19 1384.27 Q164.19 1391.38 165.996 1394.94 Q167.825 1398.49 171.436 1398.49 Q175.07 1398.49 176.876 1394.94 Q178.704 1391.38 178.704 1384.27 Q178.704 1377.14 176.876 1373.6 Q175.07 1370.04 171.436 1370.04 M171.436 1366.33 Q177.246 1366.33 180.301 1370.94 Q183.38 1375.52 183.38 1384.27 Q183.38 1393 180.301 1397.61 Q177.246 1402.19 171.436 1402.19 Q165.626 1402.19 162.547 1397.61 Q159.491 1393 159.491 1384.27 Q159.491 1375.52 162.547 1370.94 Q165.626 1366.33 171.436 1366.33 Z" fill="#000000" fill-rule="evenodd" fill-opacity="1" /><path clip-path="url(#clip640)" d="M201.598 1370.04 Q197.987 1370.04 196.158 1373.6 Q194.352 1377.14 194.352 1384.27 Q194.352 1391.38 196.158 1394.94 Q197.987 1398.49 201.598 1398.49 Q205.232 1398.49 207.037 1394.94 Q208.866 1391.38 208.866 1384.27 Q208.866 1377.14 207.037 1373.6 Q205.232 1370.04 201.598 1370.04 M201.598 1366.33 Q207.408 1366.33 210.463 1370.94 Q213.542 1375.52 213.542 1384.27 Q213.542 1393 210.463 1397.61 Q207.408 1402.19 201.598 1402.19 Q195.787 1402.19 192.709 1397.61 Q189.653 1393 189.653 1384.27 Q189.653 1375.52 192.709 1370.94 Q195.787 1366.33 201.598 1366.33 Z" fill="#000000" fill-rule="evenodd" fill-opacity="1" /><path clip-path="url(#clip640)" d="M231.76 1370.04 Q228.148 1370.04 226.32 1373.6 Q224.514 1377.14 224.514 1384.27 Q224.514 1391.38 226.32 1394.94 Q228.148 1398.49 231.76 1398.49 Q235.394 1398.49 237.199 1394.94 Q239.028 1391.38 239.028 1384.27 Q239.028 1377.14 237.199 1373.6 Q235.394 1370.04 231.76 1370.04 M231.76 1366.33 Q237.57 1366.33 240.625 1370.94 Q243.704 1375.52 243.704 1384.27 Q243.704 1393 240.625 1397.61 Q237.57 1402.19 231.76 1402.19 Q225.949 1402.19 222.871 1397.61 Q219.815 1393 219.815 1384.27 Q219.815 1375.52 222.871 1370.94 Q225.949 1366.33 231.76 1366.33 Z" fill="#000000" fill-rule="evenodd" fill-opacity="1" /><path clip-path="url(#clip640)" d="M127.2 1088.48 Q123.589 1088.48 121.76 1092.04 Q119.955 1095.59 119.955 1102.72 Q119.955 1109.82 121.76 1113.39 Q123.589 1116.93 127.2 1116.93 Q130.834 1116.93 132.64 1113.39 Q134.468 1109.82 134.468 1102.72 Q134.468 1095.59 132.64 1092.04 Q130.834 1088.48 127.2 1088.48 M127.2 1084.78 Q133.01 1084.78 136.066 1089.38 Q139.144 1093.97 139.144 1102.72 Q139.144 1111.44 136.066 1116.05 Q133.01 1120.63 127.2 1120.63 Q121.39 1120.63 118.311 1116.05 Q115.256 1111.44 115.256 1102.72 Q115.256 1093.97 118.311 1089.38 Q121.39 1084.78 127.2 1084.78 Z" fill="#000000" fill-rule="evenodd" fill-opacity="1" /><path clip-path="url(#clip640)" d="M147.362 1114.08 L152.246 1114.08 L152.246 1119.96 L147.362 1119.96 L147.362 1114.08 Z" fill="#000000" fill-rule="evenodd" fill-opacity="1" /><path clip-path="url(#clip640)" d="M172.431 1088.48 Q168.82 1088.48 166.991 1092.04 Q165.186 1095.59 165.186 1102.72 Q165.186 1109.82 166.991 1113.39 Q168.82 1116.93 172.431 1116.93 Q176.065 1116.93 177.871 1113.39 Q179.7 1109.82 179.7 1102.72 Q179.7 1095.59 177.871 1092.04 Q176.065 1088.48 172.431 1088.48 M172.431 1084.78 Q178.241 1084.78 181.297 1089.38 Q184.376 1093.97 184.376 1102.72 Q184.376 1111.44 181.297 1116.05 Q178.241 1120.63 172.431 1120.63 Q166.621 1120.63 163.542 1116.05 Q160.487 1111.44 160.487 1102.72 Q160.487 1093.97 163.542 1089.38 Q166.621 1084.78 172.431 1084.78 Z" fill="#000000" fill-rule="evenodd" fill-opacity="1" /><path clip-path="url(#clip640)" d="M196.621 1116.03 L212.94 1116.03 L212.94 1119.96 L190.996 1119.96 L190.996 1116.03 Q193.658 1113.27 198.241 1108.64 Q202.848 1103.99 204.028 1102.65 Q206.274 1100.12 207.153 1098.39 Q208.056 1096.63 208.056 1094.94 Q208.056 1092.18 206.112 1090.45 Q204.19 1088.71 201.088 1088.71 Q198.889 1088.71 196.436 1089.47 Q194.005 1090.24 191.227 1091.79 L191.227 1087.07 Q194.051 1085.93 196.505 1085.35 Q198.959 1084.78 200.996 1084.78 Q206.366 1084.78 209.561 1087.46 Q212.755 1090.15 212.755 1094.64 Q212.755 1096.77 211.945 1098.69 Q211.158 1100.59 209.051 1103.18 Q208.473 1103.85 205.371 1107.07 Q202.269 1110.26 196.621 1116.03 Z" fill="#000000" fill-rule="evenodd" fill-opacity="1" /><path clip-path="url(#clip640)" d="M222.801 1085.4 L241.158 1085.4 L241.158 1089.34 L227.084 1089.34 L227.084 1097.81 Q228.102 1097.46 229.121 1097.3 Q230.139 1097.11 231.158 1097.11 Q236.945 1097.11 240.324 1100.28 Q243.704 1103.46 243.704 1108.87 Q243.704 1114.45 240.232 1117.55 Q236.76 1120.63 230.44 1120.63 Q228.264 1120.63 225.996 1120.26 Q223.75 1119.89 221.343 1119.15 L221.343 1114.45 Q223.426 1115.59 225.648 1116.14 Q227.871 1116.7 230.347 1116.7 Q234.352 1116.7 236.69 1114.59 Q239.028 1112.48 239.028 1108.87 Q239.028 1105.26 236.69 1103.16 Q234.352 1101.05 230.347 1101.05 Q228.473 1101.05 226.598 1101.47 Q224.746 1101.88 222.801 1102.76 L222.801 1085.4 Z" fill="#000000" fill-rule="evenodd" fill-opacity="1" /><path clip-path="url(#clip640)" d="M126.205 806.922 Q122.593 806.922 120.765 810.487 Q118.959 814.028 118.959 821.158 Q118.959 828.264 120.765 831.829 Q122.593 835.371 126.205 835.371 Q129.839 835.371 131.644 831.829 Q133.473 828.264 133.473 821.158 Q133.473 814.028 131.644 810.487 Q129.839 806.922 126.205 806.922 M126.205 803.218 Q132.015 803.218 135.07 807.825 Q138.149 812.408 138.149 821.158 Q138.149 829.885 135.07 834.491 Q132.015 839.074 126.205 839.074 Q120.394 839.074 117.316 834.491 Q114.26 829.885 114.26 821.158 Q114.26 812.408 117.316 807.825 Q120.394 803.218 126.205 803.218 Z" fill="#000000" fill-rule="evenodd" fill-opacity="1" /><path clip-path="url(#clip640)" d="M146.366 832.524 L151.251 832.524 L151.251 838.403 L146.366 838.403 L146.366 832.524 Z" fill="#000000" fill-rule="evenodd" fill-opacity="1" /><path clip-path="url(#clip640)" d="M171.436 806.922 Q167.825 806.922 165.996 810.487 Q164.19 814.028 164.19 821.158 Q164.19 828.264 165.996 831.829 Q167.825 835.371 171.436 835.371 Q175.07 835.371 176.876 831.829 Q178.704 828.264 178.704 821.158 Q178.704 814.028 176.876 810.487 Q175.07 806.922 171.436 806.922 M171.436 803.218 Q177.246 803.218 180.301 807.825 Q183.38 812.408 183.38 821.158 Q183.38 829.885 180.301 834.491 Q177.246 839.074 171.436 839.074 Q165.626 839.074 162.547 834.491 Q159.491 829.885 159.491 821.158 Q159.491 812.408 162.547 807.825 Q165.626 803.218 171.436 803.218 Z" fill="#000000" fill-rule="evenodd" fill-opacity="1" /><path clip-path="url(#clip640)" d="M191.644 803.843 L210 803.843 L210 807.778 L195.926 807.778 L195.926 816.25 Q196.945 815.903 197.963 815.741 Q198.982 815.556 200 815.556 Q205.787 815.556 209.167 818.727 Q212.547 821.899 212.547 827.315 Q212.547 832.894 209.074 835.996 Q205.602 839.074 199.283 839.074 Q197.107 839.074 194.838 838.704 Q192.593 838.334 190.186 837.593 L190.186 832.894 Q192.269 834.028 194.491 834.584 Q196.713 835.139 199.19 835.139 Q203.195 835.139 205.533 833.033 Q207.871 830.926 207.871 827.315 Q207.871 823.704 205.533 821.598 Q203.195 819.491 199.19 819.491 Q197.315 819.491 195.44 819.908 Q193.588 820.325 191.644 821.204 L191.644 803.843 Z" fill="#000000" fill-rule="evenodd" fill-opacity="1" /><path clip-path="url(#clip640)" d="M231.76 806.922 Q228.148 806.922 226.32 810.487 Q224.514 814.028 224.514 821.158 Q224.514 828.264 226.32 831.829 Q228.148 835.371 231.76 835.371 Q235.394 835.371 237.199 831.829 Q239.028 828.264 239.028 821.158 Q239.028 814.028 237.199 810.487 Q235.394 806.922 231.76 806.922 M231.76 803.218 Q237.57 803.218 240.625 807.825 Q243.704 812.408 243.704 821.158 Q243.704 829.885 240.625 834.491 Q237.57 839.074 231.76 839.074 Q225.949 839.074 222.871 834.491 Q219.815 829.885 219.815 821.158 Q219.815 812.408 222.871 807.825 Q225.949 803.218 231.76 803.218 Z" fill="#000000" fill-rule="evenodd" fill-opacity="1" /><path clip-path="url(#clip640)" d="M127.2 525.364 Q123.589 525.364 121.76 528.929 Q119.955 532.471 119.955 539.6 Q119.955 546.707 121.76 550.272 Q123.589 553.813 127.2 553.813 Q130.834 553.813 132.64 550.272 Q134.468 546.707 134.468 539.6 Q134.468 532.471 132.64 528.929 Q130.834 525.364 127.2 525.364 M127.2 521.661 Q133.01 521.661 136.066 526.267 Q139.144 530.85 139.144 539.6 Q139.144 548.327 136.066 552.934 Q133.01 557.517 127.2 557.517 Q121.39 557.517 118.311 552.934 Q115.256 548.327 115.256 539.6 Q115.256 530.85 118.311 526.267 Q121.39 521.661 127.2 521.661 Z" fill="#000000" fill-rule="evenodd" fill-opacity="1" /><path clip-path="url(#clip640)" d="M147.362 550.966 L152.246 550.966 L152.246 556.846 L147.362 556.846 L147.362 550.966 Z" fill="#000000" fill-rule="evenodd" fill-opacity="1" /><path clip-path="url(#clip640)" d="M172.431 525.364 Q168.82 525.364 166.991 528.929 Q165.186 532.471 165.186 539.6 Q165.186 546.707 166.991 550.272 Q168.82 553.813 172.431 553.813 Q176.065 553.813 177.871 550.272 Q179.7 546.707 179.7 539.6 Q179.7 532.471 177.871 528.929 Q176.065 525.364 172.431 525.364 M172.431 521.661 Q178.241 521.661 181.297 526.267 Q184.376 530.85 184.376 539.6 Q184.376 548.327 181.297 552.934 Q178.241 557.517 172.431 557.517 Q166.621 557.517 163.542 552.934 Q160.487 548.327 160.487 539.6 Q160.487 530.85 163.542 526.267 Q166.621 521.661 172.431 521.661 Z" fill="#000000" fill-rule="evenodd" fill-opacity="1" /><path clip-path="url(#clip640)" d="M191.413 522.286 L213.635 522.286 L213.635 524.276 L201.088 556.846 L196.204 556.846 L208.01 526.221 L191.413 526.221 L191.413 522.286 Z" fill="#000000" fill-rule="evenodd" fill-opacity="1" /><path clip-path="url(#clip640)" d="M222.801 522.286 L241.158 522.286 L241.158 526.221 L227.084 526.221 L227.084 534.693 Q228.102 534.346 229.121 534.184 Q230.139 533.998 231.158 533.998 Q236.945 533.998 240.324 537.17 Q243.704 540.341 243.704 545.758 Q243.704 551.336 240.232 554.438 Q236.76 557.517 230.44 557.517 Q228.264 557.517 225.996 557.146 Q223.75 556.776 221.343 556.035 L221.343 551.336 Q223.426 552.471 225.648 553.026 Q227.871 553.582 230.347 553.582 Q234.352 553.582 236.69 551.475 Q239.028 549.369 239.028 545.758 Q239.028 542.147 236.69 540.04 Q234.352 537.934 230.347 537.934 Q228.473 537.934 226.598 538.35 Q224.746 538.767 222.801 539.647 L222.801 522.286 Z" fill="#000000" fill-rule="evenodd" fill-opacity="1" /><path clip-path="url(#clip640)" d="M126.205 243.807 Q122.593 243.807 120.765 247.371 Q118.959 250.913 118.959 258.043 Q118.959 265.149 120.765 268.714 Q122.593 272.256 126.205 272.256 Q129.839 272.256 131.644 268.714 Q133.473 265.149 133.473 258.043 Q133.473 250.913 131.644 247.371 Q129.839 243.807 126.205 243.807 M126.205 240.103 Q132.015 240.103 135.07 244.709 Q138.149 249.293 138.149 258.043 Q138.149 266.769 135.07 271.376 Q132.015 275.959 126.205 275.959 Q120.394 275.959 117.316 271.376 Q114.26 266.769 114.26 258.043 Q114.26 249.293 117.316 244.709 Q120.394 240.103 126.205 240.103 Z" fill="#000000" fill-rule="evenodd" fill-opacity="1" /><path clip-path="url(#clip640)" d="M146.366 269.408 L151.251 269.408 L151.251 275.288 L146.366 275.288 L146.366 269.408 Z" fill="#000000" fill-rule="evenodd" fill-opacity="1" /><path clip-path="url(#clip640)" d="M162.246 271.353 L169.885 271.353 L169.885 244.987 L161.575 246.654 L161.575 242.395 L169.839 240.728 L174.514 240.728 L174.514 271.353 L182.153 271.353 L182.153 275.288 L162.246 275.288 L162.246 271.353 Z" fill="#000000" fill-rule="evenodd" fill-opacity="1" /><path clip-path="url(#clip640)" d="M201.598 243.807 Q197.987 243.807 196.158 247.371 Q194.352 250.913 194.352 258.043 Q194.352 265.149 196.158 268.714 Q197.987 272.256 201.598 272.256 Q205.232 272.256 207.037 268.714 Q208.866 265.149 208.866 258.043 Q208.866 250.913 207.037 247.371 Q205.232 243.807 201.598 243.807 M201.598 240.103 Q207.408 240.103 210.463 244.709 Q213.542 249.293 213.542 258.043 Q213.542 266.769 210.463 271.376 Q207.408 275.959 201.598 275.959 Q195.787 275.959 192.709 271.376 Q189.653 266.769 189.653 258.043 Q189.653 249.293 192.709 244.709 Q195.787 240.103 201.598 240.103 Z" fill="#000000" fill-rule="evenodd" fill-opacity="1" /><path clip-path="url(#clip640)" d="M231.76 243.807 Q228.148 243.807 226.32 247.371 Q224.514 250.913 224.514 258.043 Q224.514 265.149 226.32 268.714 Q228.148 272.256 231.76 272.256 Q235.394 272.256 237.199 268.714 Q239.028 265.149 239.028 258.043 Q239.028 250.913 237.199 247.371 Q235.394 243.807 231.76 243.807 M231.76 240.103 Q237.57 240.103 240.625 244.709 Q243.704 249.293 243.704 258.043 Q243.704 266.769 240.625 271.376 Q237.57 275.959 231.76 275.959 Q225.949 275.959 222.871 271.376 Q219.815 266.769 219.815 258.043 Q219.815 249.293 222.871 244.709 Q225.949 240.103 231.76 240.103 Z" fill="#000000" fill-rule="evenodd" fill-opacity="1" /><path clip-path="url(#clip640)" d="M14.479 773.709 L19.3487 773.709 L19.3487 779.31 Q19.3487 782.461 20.6219 783.703 Q21.895 784.912 25.2052 784.912 L28.3562 784.912 L28.3562 775.268 L32.9077 775.268 L32.9077 784.912 L64.0042 784.912 L64.0042 790.801 L32.9077 790.801 L32.9077 796.402 L28.3562 796.402 L28.3562 790.801 L25.8736 790.801 Q19.9216 790.801 17.2162 788.031 Q14.479 785.262 14.479 779.247 L14.479 773.709 Z" fill="#000000" fill-rule="evenodd" fill-opacity="1" /><path clip-path="url(#clip640)" d="M33.8307 748.15 Q33.2578 749.137 33.0032 750.315 Q32.7167 751.46 32.7167 752.861 Q32.7167 757.826 35.9632 760.5 Q39.1779 763.142 45.2253 763.142 L64.0042 763.142 L64.0042 769.03 L28.3562 769.03 L28.3562 763.142 L33.8944 763.142 Q30.6479 761.295 29.0883 758.335 Q27.4968 755.375 27.4968 751.142 Q27.4968 750.537 27.5923 749.805 Q27.656 749.073 27.8151 748.182 L33.8307 748.15 Z" fill="#000000" fill-rule="evenodd" fill-opacity="1" /><path clip-path="url(#clip640)" d="M44.7161 712.948 L47.5806 712.948 L47.5806 739.875 Q53.6281 739.493 56.8109 736.246 Q59.9619 732.968 59.9619 727.143 Q59.9619 723.77 59.1344 720.619 Q58.3069 717.436 56.6518 714.317 L62.1899 714.317 Q63.5267 717.468 64.227 720.778 Q64.9272 724.088 64.9272 727.494 Q64.9272 736.024 59.9619 741.021 Q54.9967 745.986 46.5303 745.986 Q37.7774 745.986 32.6531 741.275 Q27.4968 736.533 27.4968 728.512 Q27.4968 721.319 32.1438 717.149 Q36.7589 712.948 44.7161 712.948 M42.9973 718.804 Q38.1912 718.868 35.3266 721.51 Q32.4621 724.12 32.4621 728.448 Q32.4621 733.35 35.2312 736.31 Q38.0002 739.238 43.0292 739.684 L42.9973 718.804 Z" fill="#000000" fill-rule="evenodd" fill-opacity="1" /><path clip-path="url(#clip640)" d="M46.212 699.835 Q52.6732 699.835 56.3653 697.193 Q60.0256 694.519 60.0256 689.872 Q60.0256 685.225 56.3653 682.552 Q52.6732 679.878 46.212 679.878 Q39.7508 679.878 36.0905 682.552 Q32.3984 685.225 32.3984 689.872 Q32.3984 694.519 36.0905 697.193 Q39.7508 699.835 46.212 699.835 M58.657 679.878 Q61.8398 681.724 63.3994 684.557 Q64.9272 687.358 64.9272 691.305 Q64.9272 697.766 59.771 701.84 Q54.6147 705.882 46.212 705.882 Q37.8093 705.882 32.6531 701.84 Q27.4968 697.766 27.4968 691.305 Q27.4968 687.358 29.0564 684.557 Q30.5842 681.724 33.7671 679.878 L28.3562 679.878 L28.3562 674.022 L77.5631 674.022 L77.5631 679.878 L58.657 679.878 Z" fill="#000000" fill-rule="evenodd" fill-opacity="1" /><path clip-path="url(#clip642)" d="
M393.725 1383.56 L393.725 1384.24 L455.226 1384.24 L455.226 1383.56 L393.725 1383.56 L393.725 1383.56  Z
  " fill="#009af9" fill-rule="evenodd" fill-opacity="1"/>
<polyline clip-path="url(#clip642)" style="stroke:#009af9; stroke-linecap:butt; stroke-linejoin:round; stroke-width:4; stroke-opacity:1; fill:none" points="
  393.725,1383.56 393.725,1384.24 455.226,1384.24 455.226,1383.56 393.725,1383.56 
  "/>
<path clip-path="url(#clip642)" d="
M455.226 1379.5 L455.226 1384.24 L516.726 1384.24 L516.726 1379.5 L455.226 1379.5 L455.226 1379.5  Z
  " fill="#009af9" fill-rule="evenodd" fill-opacity="1"/>
<polyline clip-path="url(#clip642)" style="stroke:#009af9; stroke-linecap:butt; stroke-linejoin:round; stroke-width:4; stroke-opacity:1; fill:none" points="
  455.226,1379.5 455.226,1384.24 516.726,1384.24 516.726,1379.5 455.226,1379.5 
  "/>
<path clip-path="url(#clip642)" d="
M516.726 1363.83 L516.726 1384.24 L578.226 1384.24 L578.226 1363.83 L516.726 1363.83 L516.726 1363.83  Z
  " fill="#009af9" fill-rule="evenodd" fill-opacity="1"/>
<polyline clip-path="url(#clip642)" style="stroke:#009af9; stroke-linecap:butt; stroke-linejoin:round; stroke-width:4; stroke-opacity:1; fill:none" points="
  516.726,1363.83 516.726,1384.24 578.226,1384.24 578.226,1363.83 516.726,1363.83 
  "/>
<path clip-path="url(#clip642)" d="
M578.226 1313.78 L578.226 1384.24 L639.727 1384.24 L639.727 1313.78 L578.226 1313.78 L578.226 1313.78  Z
  " fill="#009af9" fill-rule="evenodd" fill-opacity="1"/>
<polyline clip-path="url(#clip642)" style="stroke:#009af9; stroke-linecap:butt; stroke-linejoin:round; stroke-width:4; stroke-opacity:1; fill:none" points="
  578.226,1313.78 578.226,1384.24 639.727,1384.24 639.727,1313.78 578.226,1313.78 
  "/>
<path clip-path="url(#clip642)" d="
M639.727 1226.07 L639.727 1384.24 L701.227 1384.24 L701.227 1226.07 L639.727 1226.07 L639.727 1226.07  Z
  " fill="#009af9" fill-rule="evenodd" fill-opacity="1"/>
<polyline clip-path="url(#clip642)" style="stroke:#009af9; stroke-linecap:butt; stroke-linejoin:round; stroke-width:4; stroke-opacity:1; fill:none" points="
  639.727,1226.07 639.727,1384.24 701.227,1384.24 701.227,1226.07 639.727,1226.07 
  "/>
<path clip-path="url(#clip642)" d="
M701.227 1054.37 L701.227 1384.24 L762.727 1384.24 L762.727 1054.37 L701.227 1054.37 L701.227 1054.37  Z
  " fill="#009af9" fill-rule="evenodd" fill-opacity="1"/>
<polyline clip-path="url(#clip642)" style="stroke:#009af9; stroke-linecap:butt; stroke-linejoin:round; stroke-width:4; stroke-opacity:1; fill:none" points="
  701.227,1054.37 701.227,1384.24 762.727,1384.24 762.727,1054.37 701.227,1054.37 
  "/>
<path clip-path="url(#clip642)" d="
M762.727 832.391 L762.727 1384.24 L824.228 1384.24 L824.228 832.391 L762.727 832.391 L762.727 832.391  Z
  " fill="#009af9" fill-rule="evenodd" fill-opacity="1"/>
<polyline clip-path="url(#clip642)" style="stroke:#009af9; stroke-linecap:butt; stroke-linejoin:round; stroke-width:4; stroke-opacity:1; fill:none" points="
  762.727,832.391 762.727,1384.24 824.228,1384.24 824.228,832.391 762.727,832.391 
  "/>
<path clip-path="url(#clip642)" d="
M824.228 575.126 L824.228 1384.24 L885.728 1384.24 L885.728 575.126 L824.228 575.126 L824.228 575.126  Z
  " fill="#009af9" fill-rule="evenodd" fill-opacity="1"/>
<polyline clip-path="url(#clip642)" style="stroke:#009af9; stroke-linecap:butt; stroke-linejoin:round; stroke-width:4; stroke-opacity:1; fill:none" points="
  824.228,575.126 824.228,1384.24 885.728,1384.24 885.728,575.126 824.228,575.126 
  "/>
<path clip-path="url(#clip642)" d="
M885.728 333.418 L885.728 1384.24 L947.228 1384.24 L947.228 333.418 L885.728 333.418 L885.728 333.418  Z
  " fill="#009af9" fill-rule="evenodd" fill-opacity="1"/>
<polyline clip-path="url(#clip642)" style="stroke:#009af9; stroke-linecap:butt; stroke-linejoin:round; stroke-width:4; stroke-opacity:1; fill:none" points="
  885.728,333.418 885.728,1384.24 947.228,1384.24 947.228,333.418 885.728,333.418 
  "/>
<path clip-path="url(#clip642)" d="
M947.228 158.225 L947.228 1384.24 L1008.73 1384.24 L1008.73 158.225 L947.228 158.225 L947.228 158.225  Z
  " fill="#009af9" fill-rule="evenodd" fill-opacity="1"/>
<polyline clip-path="url(#clip642)" style="stroke:#009af9; stroke-linecap:butt; stroke-linejoin:round; stroke-width:4; stroke-opacity:1; fill:none" points="
  947.228,158.225 947.228,1384.24 1008.73,1384.24 1008.73,158.225 947.228,158.225 
  "/>
<path clip-path="url(#clip642)" d="
M1008.73 86.1857 L1008.73 1384.24 L1070.23 1384.24 L1070.23 86.1857 L1008.73 86.1857 L1008.73 86.1857  Z
  " fill="#009af9" fill-rule="evenodd" fill-opacity="1"/>
<polyline clip-path="url(#clip642)" style="stroke:#009af9; stroke-linecap:butt; stroke-linejoin:round; stroke-width:4; stroke-opacity:1; fill:none" points="
  1008.73,86.1857 1008.73,1384.24 1070.23,1384.24 1070.23,86.1857 1008.73,86.1857 
  "/>
<path clip-path="url(#clip642)" d="
M1070.23 123.389 L1070.23 1384.24 L1131.73 1384.24 L1131.73 123.389 L1070.23 123.389 L1070.23 123.389  Z
  " fill="#009af9" fill-rule="evenodd" fill-opacity="1"/>
<polyline clip-path="url(#clip642)" style="stroke:#009af9; stroke-linecap:butt; stroke-linejoin:round; stroke-width:4; stroke-opacity:1; fill:none" points="
  1070.23,123.389 1070.23,1384.24 1131.73,1384.24 1131.73,123.389 1070.23,123.389 
  "/>
<path clip-path="url(#clip642)" d="
M1131.73 232.067 L1131.73 1384.24 L1193.23 1384.24 L1193.23 232.067 L1131.73 232.067 L1131.73 232.067  Z
  " fill="#009af9" fill-rule="evenodd" fill-opacity="1"/>
<polyline clip-path="url(#clip642)" style="stroke:#009af9; stroke-linecap:butt; stroke-linejoin:round; stroke-width:4; stroke-opacity:1; fill:none" points="
  1131.73,232.067 1131.73,1384.24 1193.23,1384.24 1193.23,232.067 1131.73,232.067 
  "/>
<path clip-path="url(#clip642)" d="
M1193.23 432.401 L1193.23 1384.24 L1254.73 1384.24 L1254.73 432.401 L1193.23 432.401 L1193.23 432.401  Z
  " fill="#009af9" fill-rule="evenodd" fill-opacity="1"/>
<polyline clip-path="url(#clip642)" style="stroke:#009af9; stroke-linecap:butt; stroke-linejoin:round; stroke-width:4; stroke-opacity:1; fill:none" points="
  1193.23,432.401 1193.23,1384.24 1254.73,1384.24 1254.73,432.401 1193.23,432.401 
  "/>
<path clip-path="url(#clip642)" d="
M1254.73 639.273 L1254.73 1384.24 L1316.23 1384.24 L1316.23 639.273 L1254.73 639.273 L1254.73 639.273  Z
  " fill="#009af9" fill-rule="evenodd" fill-opacity="1"/>
<polyline clip-path="url(#clip642)" style="stroke:#009af9; stroke-linecap:butt; stroke-linejoin:round; stroke-width:4; stroke-opacity:1; fill:none" points="
  1254.73,639.273 1254.73,1384.24 1316.23,1384.24 1316.23,639.273 1254.73,639.273 
  "/>
<path clip-path="url(#clip642)" d="
M1316.23 820.216 L1316.23 1384.24 L1377.73 1384.24 L1377.73 820.216 L1316.23 820.216 L1316.23 820.216  Z
  " fill="#009af9" fill-rule="evenodd" fill-opacity="1"/>
<polyline clip-path="url(#clip642)" style="stroke:#009af9; stroke-linecap:butt; stroke-linejoin:round; stroke-width:4; stroke-opacity:1; fill:none" points="
  1316.23,820.216 1316.23,1384.24 1377.73,1384.24 1377.73,820.216 1316.23,820.216 
  "/>
<path clip-path="url(#clip642)" d="
M1377.73 989.434 L1377.73 1384.24 L1439.23 1384.24 L1439.23 989.434 L1377.73 989.434 L1377.73 989.434  Z
  " fill="#009af9" fill-rule="evenodd" fill-opacity="1"/>
<polyline clip-path="url(#clip642)" style="stroke:#009af9; stroke-linecap:butt; stroke-linejoin:round; stroke-width:4; stroke-opacity:1; fill:none" points="
  1377.73,989.434 1377.73,1384.24 1439.23,1384.24 1439.23,989.434 1377.73,989.434 
  "/>
<path clip-path="url(#clip642)" d="
M1439.23 1123.03 L1439.23 1384.24 L1500.73 1384.24 L1500.73 1123.03 L1439.23 1123.03 L1439.23 1123.03  Z
  " fill="#009af9" fill-rule="evenodd" fill-opacity="1"/>
<polyline clip-path="url(#clip642)" style="stroke:#009af9; stroke-linecap:butt; stroke-linejoin:round; stroke-width:4; stroke-opacity:1; fill:none" points="
  1439.23,1123.03 1439.23,1384.24 1500.73,1384.24 1500.73,1123.03 1439.23,1123.03 
  "/>
<path clip-path="url(#clip642)" d="
M1500.73 1212.99 L1500.73 1384.24 L1562.23 1384.24 L1562.23 1212.99 L1500.73 1212.99 L1500.73 1212.99  Z
  " fill="#009af9" fill-rule="evenodd" fill-opacity="1"/>
<polyline clip-path="url(#clip642)" style="stroke:#009af9; stroke-linecap:butt; stroke-linejoin:round; stroke-width:4; stroke-opacity:1; fill:none" points="
  1500.73,1212.99 1500.73,1384.24 1562.23,1384.24 1562.23,1212.99 1500.73,1212.99 
  "/>
<path clip-path="url(#clip642)" d="
M1562.23 1276.8 L1562.23 1384.24 L1623.73 1384.24 L1623.73 1276.8 L1562.23 1276.8 L1562.23 1276.8  Z
  " fill="#009af9" fill-rule="evenodd" fill-opacity="1"/>
<polyline clip-path="url(#clip642)" style="stroke:#009af9; stroke-linecap:butt; stroke-linejoin:round; stroke-width:4; stroke-opacity:1; fill:none" points="
  1562.23,1276.8 1562.23,1384.24 1623.73,1384.24 1623.73,1276.8 1562.23,1276.8 
  "/>
<path clip-path="url(#clip642)" d="
M1623.73 1323.59 L1623.73 1384.24 L1685.23 1384.24 L1685.23 1323.59 L1623.73 1323.59 L1623.73 1323.59  Z
  " fill="#009af9" fill-rule="evenodd" fill-opacity="1"/>
<polyline clip-path="url(#clip642)" style="stroke:#009af9; stroke-linecap:butt; stroke-linejoin:round; stroke-width:4; stroke-opacity:1; fill:none" points="
  1623.73,1323.59 1623.73,1384.24 1685.23,1384.24 1685.23,1323.59 1623.73,1323.59 
  "/>
<path clip-path="url(#clip642)" d="
M1685.23 1349.29 L1685.23 1384.24 L1746.73 1384.24 L1746.73 1349.29 L1685.23 1349.29 L1685.23 1349.29  Z
  " fill="#009af9" fill-rule="evenodd" fill-opacity="1"/>
<polyline clip-path="url(#clip642)" style="stroke:#009af9; stroke-linecap:butt; stroke-linejoin:round; stroke-width:4; stroke-opacity:1; fill:none" points="
  1685.23,1349.29 1685.23,1384.24 1746.73,1384.24 1746.73,1349.29 1685.23,1349.29 
  "/>
<path clip-path="url(#clip642)" d="
M1746.73 1364.96 L1746.73 1384.24 L1808.23 1384.24 L1808.23 1364.96 L1746.73 1364.96 L1746.73 1364.96  Z
  " fill="#009af9" fill-rule="evenodd" fill-opacity="1"/>
<polyline clip-path="url(#clip642)" style="stroke:#009af9; stroke-linecap:butt; stroke-linejoin:round; stroke-width:4; stroke-opacity:1; fill:none" points="
  1746.73,1364.96 1746.73,1384.24 1808.23,1384.24 1808.23,1364.96 1746.73,1364.96 
  "/>
<path clip-path="url(#clip642)" d="
M1808.23 1374.54 L1808.23 1384.24 L1869.73 1384.24 L1869.73 1374.54 L1808.23 1374.54 L1808.23 1374.54  Z
  " fill="#009af9" fill-rule="evenodd" fill-opacity="1"/>
<polyline clip-path="url(#clip642)" style="stroke:#009af9; stroke-linecap:butt; stroke-linejoin:round; stroke-width:4; stroke-opacity:1; fill:none" points="
  1808.23,1374.54 1808.23,1384.24 1869.73,1384.24 1869.73,1374.54 1808.23,1374.54 
  "/>
<path clip-path="url(#clip642)" d="
M1869.73 1379.84 L1869.73 1384.24 L1931.23 1384.24 L1931.23 1379.84 L1869.73 1379.84 L1869.73 1379.84  Z
  " fill="#009af9" fill-rule="evenodd" fill-opacity="1"/>
<polyline clip-path="url(#clip642)" style="stroke:#009af9; stroke-linecap:butt; stroke-linejoin:round; stroke-width:4; stroke-opacity:1; fill:none" points="
  1869.73,1379.84 1869.73,1384.24 1931.23,1384.24 1931.23,1379.84 1869.73,1379.84 
  "/>
<path clip-path="url(#clip642)" d="
M1931.23 1382.1 L1931.23 1384.24 L1992.73 1384.24 L1992.73 1382.1 L1931.23 1382.1 L1931.23 1382.1  Z
  " fill="#009af9" fill-rule="evenodd" fill-opacity="1"/>
<polyline clip-path="url(#clip642)" style="stroke:#009af9; stroke-linecap:butt; stroke-linejoin:round; stroke-width:4; stroke-opacity:1; fill:none" points="
  1931.23,1382.1 1931.23,1384.24 1992.73,1384.24 1992.73,1382.1 1931.23,1382.1 
  "/>
<path clip-path="url(#clip642)" d="
M1992.73 1382.32 L1992.73 1384.24 L2054.23 1384.24 L2054.23 1382.32 L1992.73 1382.32 L1992.73 1382.32  Z
  " fill="#009af9" fill-rule="evenodd" fill-opacity="1"/>
<polyline clip-path="url(#clip642)" style="stroke:#009af9; stroke-linecap:butt; stroke-linejoin:round; stroke-width:4; stroke-opacity:1; fill:none" points="
  1992.73,1382.32 1992.73,1384.24 2054.23,1384.24 2054.23,1382.32 1992.73,1382.32 
  "/>
<path clip-path="url(#clip642)" d="
M2054.23 1384.01 L2054.23 1384.24 L2115.73 1384.24 L2115.73 1384.01 L2054.23 1384.01 L2054.23 1384.01  Z
  " fill="#009af9" fill-rule="evenodd" fill-opacity="1"/>
<polyline clip-path="url(#clip642)" style="stroke:#009af9; stroke-linecap:butt; stroke-linejoin:round; stroke-width:4; stroke-opacity:1; fill:none" points="
  2054.23,1384.01 2054.23,1384.24 2115.73,1384.24 2115.73,1384.01 2054.23,1384.01 
  "/>
<path clip-path="url(#clip642)" d="
M2115.73 1384.13 L2115.73 1384.24 L2177.23 1384.24 L2177.23 1384.13 L2115.73 1384.13 L2115.73 1384.13  Z
  " fill="#009af9" fill-rule="evenodd" fill-opacity="1"/>
<polyline clip-path="url(#clip642)" style="stroke:#009af9; stroke-linecap:butt; stroke-linejoin:round; stroke-width:4; stroke-opacity:1; fill:none" points="
  2115.73,1384.13 2115.73,1384.24 2177.23,1384.24 2177.23,1384.13 2115.73,1384.13 
  "/>
<path clip-path="url(#clip642)" d="
M2177.23 1384.01 L2177.23 1384.24 L2238.73 1384.24 L2238.73 1384.01 L2177.23 1384.01 L2177.23 1384.01  Z
  " fill="#009af9" fill-rule="evenodd" fill-opacity="1"/>
<polyline clip-path="url(#clip642)" style="stroke:#009af9; stroke-linecap:butt; stroke-linejoin:round; stroke-width:4; stroke-opacity:1; fill:none" points="
  2177.23,1384.01 2177.23,1384.24 2238.73,1384.24 2238.73,1384.01 2177.23,1384.01 
  "/>
<polyline clip-path="url(#clip642)" style="stroke:#e26f46; stroke-linecap:butt; stroke-linejoin:round; stroke-width:12; stroke-opacity:1; fill:none" points="
  393.725,1373.44 399.875,1372.45 406.026,1371.37 412.176,1370.21 418.326,1368.95 424.476,1367.6 430.626,1366.14 436.776,1364.57 442.926,1362.89 449.076,1361.07 
  455.226,1359.12 461.376,1357.03 467.526,1354.79 473.676,1352.4 479.826,1349.83 485.976,1347.09 492.126,1344.17 498.276,1341.04 504.426,1337.72 510.576,1334.18 
  516.726,1330.41 522.876,1326.41 529.026,1322.16 535.176,1317.65 541.326,1312.88 547.476,1307.82 553.626,1302.48 559.776,1296.83 565.926,1290.86 572.076,1284.58 
  578.226,1277.95 584.376,1270.98 590.526,1263.65 596.676,1255.96 602.826,1247.88 608.976,1239.41 615.127,1230.54 621.277,1221.27 627.427,1211.57 633.577,1201.45 
  639.727,1190.89 645.877,1179.89 652.027,1168.45 658.177,1156.54 664.327,1144.18 670.477,1131.36 676.627,1118.06 682.777,1104.3 688.927,1090.07 695.077,1075.37 
  701.227,1060.2 707.377,1044.56 713.527,1028.46 719.677,1011.9 725.827,994.889 731.977,977.435 738.127,959.547 744.277,941.235 750.427,922.513 756.577,903.394 
  762.727,883.893 768.877,864.029 775.027,843.818 781.177,823.283 787.327,802.444 793.477,781.325 799.627,759.952 805.777,738.351 811.927,716.549 818.078,694.578 
  824.228,672.467 830.378,650.249 836.528,627.958 842.678,605.628 848.828,583.296 854.978,560.998 861.128,538.772 867.278,516.659 873.428,494.696 879.578,472.924 
  885.728,451.385 891.878,430.118 898.028,409.167 904.178,388.572 910.328,368.375 916.478,348.617 922.628,329.34 928.778,310.585 934.928,292.392 941.078,274.8 
  947.228,257.848 953.378,241.575 959.528,226.016 965.678,211.207 971.828,197.182 977.978,183.973 984.128,171.612 990.278,160.128 996.428,149.547 1002.58,139.895 
  1008.73,131.195 1014.88,123.468 1021.03,116.733 1027.18,111.006 1033.33,106.301 1039.48,102.63 1045.63,100.001 1051.78,98.4207 1057.93,97.8936 1064.08,98.4207 
  1070.23,100.001 1076.38,102.63 1082.53,106.301 1088.68,111.006 1094.83,116.733 1100.98,123.468 1107.13,131.195 1113.28,139.895 1119.43,149.547 1125.58,160.128 
  1131.73,171.612 1137.88,183.973 1144.03,197.182 1150.18,211.207 1156.33,226.016 1162.48,241.575 1168.63,257.848 1174.78,274.8 1180.93,292.392 1187.08,310.585 
  1193.23,329.34 1199.38,348.617 1205.53,368.375 1211.68,388.572 1217.83,409.167 1223.98,430.118 1230.13,451.385 1236.28,472.924 1242.43,494.696 1248.58,516.659 
  1254.73,538.772 1260.88,560.998 1267.03,583.296 1273.18,605.628 1279.33,627.958 1285.48,650.249 1291.63,672.467 1297.78,694.578 1303.93,716.549 1310.08,738.351 
  1316.23,759.952 1322.38,781.325 1328.53,802.444 1334.68,823.283 1340.83,843.818 1346.98,864.029 1353.13,883.893 1359.28,903.394 1365.43,922.513 1371.58,941.235 
  1377.73,959.547 1383.88,977.435 1390.03,994.889 1396.18,1011.9 1402.33,1028.46 1408.48,1044.56 1414.63,1060.2 1420.78,1075.37 1426.93,1090.07 1433.08,1104.3 
  1439.23,1118.06 1445.38,1131.36 1451.53,1144.18 1457.68,1156.54 1463.83,1168.45 1469.98,1179.89 1476.13,1190.89 1482.28,1201.45 1488.43,1211.57 1494.58,1221.27 
  1500.73,1230.54 1506.88,1239.41 1513.03,1247.88 1519.18,1255.96 1525.33,1263.65 1531.48,1270.98 1537.63,1277.95 1543.78,1284.58 1549.93,1290.86 1556.08,1296.83 
  1562.23,1302.48 1568.38,1307.82 1574.53,1312.88 1580.68,1317.65 1586.83,1322.16 1592.98,1326.41 1599.13,1330.41 1605.28,1334.18 1611.43,1337.72 1617.58,1341.04 
  1623.73,1344.17 1629.88,1347.09 1636.03,1349.83 1642.18,1352.4 1648.33,1354.79 1654.48,1357.03 1660.63,1359.12 1666.78,1361.07 1672.93,1362.89 1679.08,1364.57 
  1685.23,1366.14 1691.38,1367.6 1697.53,1368.95 1703.68,1370.21 1709.83,1371.37 1715.98,1372.45 1722.13,1373.44 1728.28,1374.36 1734.43,1375.21 1740.58,1375.99 
  1746.73,1376.71 1752.88,1377.37 1759.03,1377.98 1765.18,1378.54 1771.33,1379.06 1777.48,1379.53 1783.63,1379.96 1789.78,1380.36 1795.93,1380.72 1802.08,1381.05 
  1808.23,1381.35 1814.38,1381.63 1820.53,1381.88 1826.68,1382.11 1832.83,1382.32 1838.98,1382.51 1845.13,1382.68 1851.28,1382.83 1857.43,1382.98 1863.58,1383.1 
  1869.73,1383.22 1875.88,1383.32 1882.03,1383.42 1888.18,1383.5 1894.33,1383.58 1900.48,1383.65 1906.63,1383.71 1912.78,1383.77 1918.93,1383.82 1925.08,1383.87 
  1931.23,1383.91 1937.38,1383.94 1943.53,1383.98 1949.68,1384.01 1955.83,1384.03 1961.98,1384.05 1968.13,1384.08 1974.28,1384.09 1980.43,1384.11 1986.58,1384.13 
  1992.73,1384.14 1998.88,1384.15 2005.03,1384.16 2011.18,1384.17 2017.33,1384.18 2023.48,1384.19 2029.63,1384.19 2035.78,1384.2 2041.93,1384.2 2048.08,1384.21 
  2054.23,1384.21 2060.38,1384.21 2066.53,1384.22 2072.68,1384.22 2078.83,1384.22 2084.98,1384.22 2091.13,1384.23 2097.28,1384.23 2103.43,1384.23 2109.58,1384.23 
  2115.73,1384.23 2121.88,1384.23 2128.03,1384.23 2134.18,1384.23 2140.33,1384.23 2146.48,1384.23 2152.63,1384.24 2158.78,1384.24 2164.93,1384.24 2171.08,1384.24 
  2177.23,1384.24 
  "/>
<polyline clip-path="url(#clip642)" style="stroke:#3da44d; stroke-linecap:butt; stroke-linejoin:round; stroke-width:12; stroke-opacity:1; fill:none" points="
  393.725,1383.8 399.875,1383.66 406.026,1383.49 412.176,1383.28 418.326,1383.02 424.476,1382.71 430.626,1382.34 436.776,1381.9 442.926,1381.38 449.076,1380.77 
  455.226,1380.05 461.376,1379.22 467.526,1378.26 473.676,1377.16 479.826,1375.9 485.976,1374.46 492.126,1372.83 498.276,1370.98 504.426,1368.91 510.576,1366.58 
  516.726,1363.99 522.876,1361.1 529.026,1357.89 535.176,1354.35 541.326,1350.45 547.476,1346.16 553.626,1341.47 559.776,1336.35 565.926,1330.77 572.076,1324.71 
  578.226,1318.15 584.376,1311.08 590.526,1303.45 596.676,1295.26 602.826,1286.49 608.976,1277.11 615.127,1267.11 621.277,1256.48 627.427,1245.19 633.577,1233.23 
  639.727,1220.6 645.877,1207.29 652.027,1193.28 658.177,1178.58 664.327,1163.18 670.477,1147.08 676.627,1130.29 682.777,1112.8 688.927,1094.64 695.077,1075.81 
  701.227,1056.32 707.377,1036.19 713.527,1015.44 719.677,994.098 725.827,972.179 731.977,949.715 738.127,926.736 744.277,903.274 750.427,879.366 756.577,855.048 
  762.727,830.36 768.877,805.346 775.027,780.047 781.177,754.512 787.327,728.786 793.477,702.919 799.627,676.962 805.777,650.966 811.927,624.982 818.078,599.065 
  824.228,573.268 830.378,547.644 836.528,522.248 842.678,497.134 848.828,472.355 854.978,447.965 861.128,424.015 867.278,400.557 873.428,377.641 879.578,355.318 
  885.728,333.633 891.878,312.632 898.028,292.361 904.178,272.861 910.328,254.172 916.478,236.332 922.628,219.377 928.778,203.339 934.928,188.248 941.078,174.133 
  947.228,161.019 953.378,148.928 959.528,137.88 965.678,127.891 971.828,118.974 977.978,111.142 984.128,104.403 990.278,98.7601 996.428,94.2176 1002.58,90.7747 
  1008.73,88.4284 1014.88,87.1728 1021.03,86.9999 1027.18,87.8986 1033.33,89.8559 1039.48,92.856 1045.63,96.8811 1051.78,101.911 1057.93,107.925 1064.08,114.897 
  1070.23,122.803 1076.38,131.615 1082.53,141.305 1088.68,151.841 1094.83,163.193 1100.98,175.328 1107.13,188.211 1113.28,201.81 1119.43,216.087 1125.58,231.007 
  1131.73,246.534 1137.88,262.631 1144.03,279.26 1150.18,296.385 1156.33,313.967 1162.48,331.971 1168.63,350.358 1174.78,369.093 1180.93,388.138 1187.08,407.458 
  1193.23,427.017 1199.38,446.781 1205.53,466.717 1211.68,486.789 1217.83,506.967 1223.98,527.218 1230.13,547.513 1236.28,567.822 1242.43,588.115 1248.58,608.366 
  1254.73,628.549 1260.88,648.638 1267.03,668.609 1273.18,688.44 1279.33,708.108 1285.48,727.593 1291.63,746.877 1297.78,765.939 1303.93,784.765 1310.08,803.337 
  1316.23,821.642 1322.38,839.666 1328.53,857.396 1334.68,874.821 1340.83,891.931 1346.98,908.718 1353.13,925.172 1359.28,941.287 1365.43,957.056 1371.58,972.475 
  1377.73,987.539 1383.88,1002.24 1390.03,1016.59 1396.18,1030.57 1402.33,1044.19 1408.48,1057.44 1414.63,1070.34 1420.78,1082.86 1426.93,1095.03 1433.08,1106.84 
  1439.23,1118.29 1445.38,1129.39 1451.53,1140.14 1457.68,1150.55 1463.83,1160.62 1469.98,1170.35 1476.13,1179.75 1482.28,1188.82 1488.43,1197.58 1494.58,1206.02 
  1500.73,1214.16 1506.88,1222 1513.03,1229.54 1519.18,1236.8 1525.33,1243.78 1531.48,1250.48 1537.63,1256.92 1543.78,1263.1 1549.93,1269.03 1556.08,1274.72 
  1562.23,1280.17 1568.38,1285.38 1574.53,1290.38 1580.68,1295.16 1586.83,1299.73 1592.98,1304.1 1599.13,1308.27 1605.28,1312.25 1611.43,1316.06 1617.58,1319.68 
  1623.73,1323.14 1629.88,1326.44 1636.03,1329.58 1642.18,1332.57 1648.33,1335.41 1654.48,1338.11 1660.63,1340.69 1666.78,1343.13 1672.93,1345.45 1679.08,1347.65 
  1685.23,1349.75 1691.38,1351.73 1697.53,1353.61 1703.68,1355.39 1709.83,1357.08 1715.98,1358.68 1722.13,1360.19 1728.28,1361.63 1734.43,1362.98 1740.58,1364.26 
  1746.73,1365.47 1752.88,1366.61 1759.03,1367.69 1765.18,1368.71 1771.33,1369.67 1777.48,1370.58 1783.63,1371.43 1789.78,1372.23 1795.93,1372.99 1802.08,1373.71 
  1808.23,1374.38 1814.38,1375.01 1820.53,1375.6 1826.68,1376.16 1832.83,1376.69 1838.98,1377.18 1845.13,1377.64 1851.28,1378.08 1857.43,1378.48 1863.58,1378.87 
  1869.73,1379.23 1875.88,1379.56 1882.03,1379.88 1888.18,1380.17 1894.33,1380.45 1900.48,1380.71 1906.63,1380.95 1912.78,1381.17 1918.93,1381.39 1925.08,1381.58 
  1931.23,1381.77 1937.38,1381.94 1943.53,1382.1 1949.68,1382.25 1955.83,1382.39 1961.98,1382.52 1968.13,1382.65 1974.28,1382.76 1980.43,1382.87 1986.58,1382.97 
  1992.73,1383.06 1998.88,1383.14 2005.03,1383.22 2011.18,1383.3 2017.33,1383.37 2023.48,1383.43 2029.63,1383.49 2035.78,1383.55 2041.93,1383.6 2048.08,1383.65 
  2054.23,1383.69 2060.38,1383.73 2066.53,1383.77 2072.68,1383.8 2078.83,1383.84 2084.98,1383.87 2091.13,1383.9 2097.28,1383.92 2103.43,1383.95 2109.58,1383.97 
  2115.73,1383.99 2121.88,1384.01 2128.03,1384.03 2134.18,1384.04 2140.33,1384.06 2146.48,1384.07 2152.63,1384.09 2158.78,1384.1 2164.93,1384.11 2171.08,1384.12 
  2177.23,1384.13 
  "/>
<path clip-path="url(#clip640)" d="
M1568.94 335.029 L2283.65 335.029 L2283.65 93.1086 L1568.94 93.1086  Z
  " fill="#ffffff" fill-rule="evenodd" fill-opacity="1"/>
<polyline clip-path="url(#clip640)" style="stroke:#000000; stroke-linecap:butt; stroke-linejoin:round; stroke-width:4; stroke-opacity:1; fill:none" points="
  1568.94,335.029 2283.65,335.029 2283.65,93.1086 1568.94,93.1086 1568.94,335.029 
  "/>
<path clip-path="url(#clip640)" d="
M1591.98 177.781 L1730.18 177.781 L1730.18 129.397 L1591.98 129.397 L1591.98 177.781  Z
  " fill="#009af9" fill-rule="evenodd" fill-opacity="1"/>
<polyline clip-path="url(#clip640)" style="stroke:#009af9; stroke-linecap:butt; stroke-linejoin:round; stroke-width:4; stroke-opacity:1; fill:none" points="
  1591.98,177.781 1730.18,177.781 1730.18,129.397 1591.98,129.397 1591.98,177.781 
  "/>
<path clip-path="url(#clip640)" d="M1775.46 137.443 L1775.46 142.003 Q1772.8 140.73 1770.44 140.105 Q1768.07 139.48 1765.88 139.48 Q1762.06 139.48 1759.97 140.961 Q1757.91 142.443 1757.91 145.174 Q1757.91 147.466 1759.28 148.647 Q1760.67 149.804 1764.51 150.522 L1767.33 151.1 Q1772.57 152.096 1775.04 154.619 Q1777.54 157.119 1777.54 161.332 Q1777.54 166.355 1774.16 168.947 Q1770.81 171.54 1764.3 171.54 Q1761.85 171.54 1759.07 170.984 Q1756.32 170.429 1753.35 169.341 L1753.35 164.526 Q1756.2 166.123 1758.93 166.933 Q1761.66 167.744 1764.3 167.744 Q1768.31 167.744 1770.48 166.17 Q1772.66 164.596 1772.66 161.679 Q1772.66 159.133 1771.08 157.697 Q1769.53 156.262 1765.97 155.545 L1763.12 154.989 Q1757.89 153.947 1755.55 151.725 Q1753.21 149.503 1753.21 145.545 Q1753.21 140.961 1756.43 138.322 Q1759.67 135.684 1765.34 135.684 Q1767.77 135.684 1770.3 136.123 Q1772.82 136.563 1775.46 137.443 Z" fill="#000000" fill-rule="evenodd" fill-opacity="1" /><path clip-path="url(#clip640)" d="M1805.55 137.443 L1805.55 142.003 Q1802.89 140.73 1800.53 140.105 Q1798.17 139.48 1795.97 139.48 Q1792.15 139.48 1790.07 140.961 Q1788.01 142.443 1788.01 145.174 Q1788.01 147.466 1789.37 148.647 Q1790.76 149.804 1794.6 150.522 L1797.43 151.1 Q1802.66 152.096 1805.13 154.619 Q1807.63 157.119 1807.63 161.332 Q1807.63 166.355 1804.26 168.947 Q1800.9 171.54 1794.39 171.54 Q1791.94 171.54 1789.16 170.984 Q1786.41 170.429 1783.45 169.341 L1783.45 164.526 Q1786.29 166.123 1789.02 166.933 Q1791.76 167.744 1794.39 167.744 Q1798.4 167.744 1800.57 166.17 Q1802.75 164.596 1802.75 161.679 Q1802.75 159.133 1801.18 157.697 Q1799.63 156.262 1796.06 155.545 L1793.21 154.989 Q1787.98 153.947 1785.64 151.725 Q1783.31 149.503 1783.31 145.545 Q1783.31 140.961 1786.52 138.322 Q1789.76 135.684 1795.44 135.684 Q1797.87 135.684 1800.39 136.123 Q1802.91 136.563 1805.55 137.443 Z" fill="#000000" fill-rule="evenodd" fill-opacity="1" /><path clip-path="url(#clip640)" d="M1827.36 140.915 L1821.01 158.114 L1833.72 158.114 L1827.36 140.915 M1824.72 136.309 L1830.02 136.309 L1843.19 170.869 L1838.33 170.869 L1835.18 162.003 L1819.6 162.003 L1816.45 170.869 L1811.52 170.869 L1824.72 136.309 Z" fill="#000000" fill-rule="evenodd" fill-opacity="1" /><polyline clip-path="url(#clip640)" style="stroke:#e26f46; stroke-linecap:butt; stroke-linejoin:round; stroke-width:4; stroke-opacity:1; fill:none" points="
  1591.98,214.069 1730.18,214.069 
  "/>
<path clip-path="url(#clip640)" d="M1772.13 218.085 Q1772.13 213.455 1770.2 210.909 Q1768.31 208.363 1764.86 208.363 Q1761.43 208.363 1759.51 210.909 Q1757.61 213.455 1757.61 218.085 Q1757.61 222.691 1759.51 225.238 Q1761.43 227.784 1764.86 227.784 Q1768.31 227.784 1770.2 225.238 Q1772.13 222.691 1772.13 218.085 M1776.39 228.131 Q1776.39 234.751 1773.45 237.969 Q1770.51 241.21 1764.44 241.21 Q1762.2 241.21 1760.2 240.862 Q1758.21 240.538 1756.34 239.844 L1756.34 235.7 Q1758.21 236.719 1760.04 237.205 Q1761.87 237.691 1763.77 237.691 Q1767.96 237.691 1770.04 235.492 Q1772.13 233.316 1772.13 228.895 L1772.13 226.788 Q1770.81 229.08 1768.75 230.214 Q1766.69 231.349 1763.82 231.349 Q1759.05 231.349 1756.13 227.714 Q1753.21 224.08 1753.21 218.085 Q1753.21 212.066 1756.13 208.432 Q1759.05 204.798 1763.82 204.798 Q1766.69 204.798 1768.75 205.932 Q1770.81 207.066 1772.13 209.358 L1772.13 205.423 L1776.39 205.423 L1776.39 228.131 Z" fill="#000000" fill-rule="evenodd" fill-opacity="1" /><path clip-path="url(#clip640)" d="M1796.94 218.316 Q1791.78 218.316 1789.79 219.497 Q1787.8 220.677 1787.8 223.525 Q1787.8 225.793 1789.28 227.136 Q1790.78 228.455 1793.35 228.455 Q1796.89 228.455 1799.02 225.955 Q1801.18 223.432 1801.18 219.265 L1801.18 218.316 L1796.94 218.316 M1805.44 216.557 L1805.44 231.349 L1801.18 231.349 L1801.18 227.413 Q1799.72 229.775 1797.54 230.909 Q1795.37 232.02 1792.22 232.02 Q1788.24 232.02 1785.88 229.798 Q1783.54 227.552 1783.54 223.802 Q1783.54 219.427 1786.45 217.205 Q1789.39 214.983 1795.2 214.983 L1801.18 214.983 L1801.18 214.566 Q1801.18 211.627 1799.23 210.029 Q1797.31 208.409 1793.82 208.409 Q1791.59 208.409 1789.49 208.941 Q1787.38 209.474 1785.44 210.539 L1785.44 206.603 Q1787.77 205.701 1789.97 205.261 Q1792.17 204.798 1794.26 204.798 Q1799.88 204.798 1802.66 207.714 Q1805.44 210.631 1805.44 216.557 Z" fill="#000000" fill-rule="evenodd" fill-opacity="1" /><path clip-path="url(#clip640)" d="M1813.77 221.117 L1813.77 205.423 L1818.03 205.423 L1818.03 220.955 Q1818.03 224.636 1819.46 226.488 Q1820.9 228.316 1823.77 228.316 Q1827.22 228.316 1829.21 226.117 Q1831.22 223.918 1831.22 220.122 L1831.22 205.423 L1835.48 205.423 L1835.48 231.349 L1831.22 231.349 L1831.22 227.367 Q1829.67 229.728 1827.61 230.886 Q1825.57 232.02 1822.87 232.02 Q1818.4 232.02 1816.08 229.242 Q1813.77 226.464 1813.77 221.117 M1824.49 204.798 L1824.49 204.798 Z" fill="#000000" fill-rule="evenodd" fill-opacity="1" /><path clip-path="url(#clip640)" d="M1860.78 206.187 L1860.78 210.214 Q1858.98 209.289 1857.03 208.826 Q1855.09 208.363 1853.01 208.363 Q1849.83 208.363 1848.24 209.335 Q1846.66 210.307 1846.66 212.251 Q1846.66 213.733 1847.8 214.589 Q1848.93 215.423 1852.36 216.187 L1853.82 216.511 Q1858.35 217.483 1860.25 219.265 Q1862.17 221.025 1862.17 224.196 Q1862.17 227.807 1859.3 229.913 Q1856.45 232.02 1851.45 232.02 Q1849.37 232.02 1847.1 231.603 Q1844.86 231.21 1842.36 230.4 L1842.36 226.001 Q1844.72 227.228 1847.01 227.853 Q1849.3 228.455 1851.55 228.455 Q1854.56 228.455 1856.18 227.437 Q1857.8 226.395 1857.8 224.52 Q1857.8 222.784 1856.62 221.858 Q1855.46 220.932 1851.5 220.076 L1850.02 219.728 Q1846.06 218.895 1844.3 217.182 Q1842.54 215.446 1842.54 212.437 Q1842.54 208.779 1845.13 206.789 Q1847.73 204.798 1852.5 204.798 Q1854.86 204.798 1856.94 205.145 Q1859.02 205.492 1860.78 206.187 Z" fill="#000000" fill-rule="evenodd" fill-opacity="1" /><path clip-path="url(#clip640)" d="M1885.48 206.187 L1885.48 210.214 Q1883.68 209.289 1881.73 208.826 Q1879.79 208.363 1877.7 208.363 Q1874.53 208.363 1872.94 209.335 Q1871.36 210.307 1871.36 212.251 Q1871.36 213.733 1872.5 214.589 Q1873.63 215.423 1877.06 216.187 L1878.51 216.511 Q1883.05 217.483 1884.95 219.265 Q1886.87 221.025 1886.87 224.196 Q1886.87 227.807 1884 229.913 Q1881.15 232.02 1876.15 232.02 Q1874.07 232.02 1871.8 231.603 Q1869.56 231.21 1867.06 230.4 L1867.06 226.001 Q1869.42 227.228 1871.71 227.853 Q1874 228.455 1876.25 228.455 Q1879.25 228.455 1880.88 227.437 Q1882.5 226.395 1882.5 224.52 Q1882.5 222.784 1881.32 221.858 Q1880.16 220.932 1876.2 220.076 L1874.72 219.728 Q1870.76 218.895 1869 217.182 Q1867.24 215.446 1867.24 212.437 Q1867.24 208.779 1869.83 206.789 Q1872.43 204.798 1877.19 204.798 Q1879.56 204.798 1881.64 205.145 Q1883.72 205.492 1885.48 206.187 Z" fill="#000000" fill-rule="evenodd" fill-opacity="1" /><path clip-path="url(#clip640)" d="M1893.65 205.423 L1897.91 205.423 L1897.91 231.349 L1893.65 231.349 L1893.65 205.423 M1893.65 195.33 L1897.91 195.33 L1897.91 200.724 L1893.65 200.724 L1893.65 195.33 Z" fill="#000000" fill-rule="evenodd" fill-opacity="1" /><path clip-path="url(#clip640)" d="M1918.61 218.316 Q1913.44 218.316 1911.45 219.497 Q1909.46 220.677 1909.46 223.525 Q1909.46 225.793 1910.94 227.136 Q1912.45 228.455 1915.02 228.455 Q1918.56 228.455 1920.69 225.955 Q1922.84 223.432 1922.84 219.265 L1922.84 218.316 L1918.61 218.316 M1927.1 216.557 L1927.1 231.349 L1922.84 231.349 L1922.84 227.413 Q1921.38 229.775 1919.21 230.909 Q1917.03 232.02 1913.88 232.02 Q1909.9 232.02 1907.54 229.798 Q1905.2 227.552 1905.2 223.802 Q1905.2 219.427 1908.12 217.205 Q1911.06 214.983 1916.87 214.983 L1922.84 214.983 L1922.84 214.566 Q1922.84 211.627 1920.9 210.029 Q1918.98 208.409 1915.48 208.409 Q1913.26 208.409 1911.15 208.941 Q1909.05 209.474 1907.1 210.539 L1907.1 206.603 Q1909.44 205.701 1911.64 205.261 Q1913.84 204.798 1915.92 204.798 Q1921.55 204.798 1924.32 207.714 Q1927.1 210.631 1927.1 216.557 Z" fill="#000000" fill-rule="evenodd" fill-opacity="1" /><path clip-path="url(#clip640)" d="M1957.43 215.701 L1957.43 231.349 L1953.17 231.349 L1953.17 215.839 Q1953.17 212.159 1951.73 210.33 Q1950.3 208.502 1947.43 208.502 Q1943.98 208.502 1941.99 210.701 Q1940 212.9 1940 216.696 L1940 231.349 L1935.71 231.349 L1935.71 205.423 L1940 205.423 L1940 209.451 Q1941.52 207.113 1943.58 205.955 Q1945.67 204.798 1948.37 204.798 Q1952.84 204.798 1955.13 207.576 Q1957.43 210.33 1957.43 215.701 Z" fill="#000000" fill-rule="evenodd" fill-opacity="1" /><path clip-path="url(#clip640)" d="M1994.12 195.33 L1994.12 198.872 L1990.04 198.872 Q1987.75 198.872 1986.85 199.798 Q1985.97 200.724 1985.97 203.131 L1985.97 205.423 L1992.98 205.423 L1992.98 208.733 L1985.97 208.733 L1985.97 231.349 L1981.68 231.349 L1981.68 208.733 L1977.61 208.733 L1977.61 205.423 L1981.68 205.423 L1981.68 203.617 Q1981.68 199.289 1983.7 197.321 Q1985.71 195.33 1990.09 195.33 L1994.12 195.33 Z" fill="#000000" fill-rule="evenodd" fill-opacity="1" /><path clip-path="url(#clip640)" d="M1997.68 205.423 L2001.94 205.423 L2001.94 231.349 L1997.68 231.349 L1997.68 205.423 M1997.68 195.33 L2001.94 195.33 L2001.94 200.724 L1997.68 200.724 L1997.68 195.33 Z" fill="#000000" fill-rule="evenodd" fill-opacity="1" /><path clip-path="url(#clip640)" d="M2015.06 198.062 L2015.06 205.423 L2023.84 205.423 L2023.84 208.733 L2015.06 208.733 L2015.06 222.807 Q2015.06 225.978 2015.92 226.881 Q2016.8 227.784 2019.46 227.784 L2023.84 227.784 L2023.84 231.349 L2019.46 231.349 Q2014.53 231.349 2012.66 229.52 Q2010.78 227.668 2010.78 222.807 L2010.78 208.733 L2007.66 208.733 L2007.66 205.423 L2010.78 205.423 L2010.78 198.062 L2015.06 198.062 Z" fill="#000000" fill-rule="evenodd" fill-opacity="1" /><polyline clip-path="url(#clip640)" style="stroke:#3da44d; stroke-linecap:butt; stroke-linejoin:round; stroke-width:4; stroke-opacity:1; fill:none" points="
  1591.98,274.549 1730.18,274.549 
  "/>
<path clip-path="url(#clip640)" d="M1774.93 276.181 L1774.93 291.829 L1770.67 291.829 L1770.67 276.319 Q1770.67 272.639 1769.23 270.81 Q1767.8 268.982 1764.93 268.982 Q1761.48 268.982 1759.49 271.181 Q1757.5 273.38 1757.5 277.176 L1757.5 291.829 L1753.21 291.829 L1753.21 265.903 L1757.5 265.903 L1757.5 269.931 Q1759.02 267.593 1761.08 266.435 Q1763.17 265.278 1765.88 265.278 Q1770.34 265.278 1772.64 268.056 Q1774.93 270.81 1774.93 276.181 Z" fill="#000000" fill-rule="evenodd" fill-opacity="1" /><path clip-path="url(#clip640)" d="M1805.6 277.801 L1805.6 279.884 L1786.01 279.884 Q1786.29 284.282 1788.65 286.597 Q1791.04 288.889 1795.27 288.889 Q1797.73 288.889 1800.02 288.287 Q1802.33 287.685 1804.6 286.481 L1804.6 290.509 Q1802.31 291.481 1799.9 291.991 Q1797.5 292.5 1795.02 292.5 Q1788.82 292.5 1785.18 288.889 Q1781.57 285.278 1781.57 279.12 Q1781.57 272.755 1785 269.028 Q1788.45 265.278 1794.28 265.278 Q1799.51 265.278 1802.54 268.657 Q1805.6 272.014 1805.6 277.801 M1801.34 276.551 Q1801.29 273.056 1799.37 270.972 Q1797.47 268.889 1794.32 268.889 Q1790.76 268.889 1788.61 270.903 Q1786.48 272.917 1786.15 276.574 L1801.34 276.551 Z" fill="#000000" fill-rule="evenodd" fill-opacity="1" /><path clip-path="url(#clip640)" d="M1829.65 278.565 Q1829.65 273.935 1827.73 271.389 Q1825.83 268.843 1822.38 268.843 Q1818.95 268.843 1817.03 271.389 Q1815.13 273.935 1815.13 278.565 Q1815.13 283.171 1817.03 285.718 Q1818.95 288.264 1822.38 288.264 Q1825.83 288.264 1827.73 285.718 Q1829.65 283.171 1829.65 278.565 M1833.91 288.611 Q1833.91 295.231 1830.97 298.449 Q1828.03 301.69 1821.96 301.69 Q1819.72 301.69 1817.73 301.342 Q1815.74 301.018 1813.86 300.324 L1813.86 296.18 Q1815.74 297.199 1817.57 297.685 Q1819.39 298.171 1821.29 298.171 Q1825.48 298.171 1827.57 295.972 Q1829.65 293.796 1829.65 289.375 L1829.65 287.268 Q1828.33 289.56 1826.27 290.694 Q1824.21 291.829 1821.34 291.829 Q1816.57 291.829 1813.65 288.194 Q1810.74 284.56 1810.74 278.565 Q1810.74 272.546 1813.65 268.912 Q1816.57 265.278 1821.34 265.278 Q1824.21 265.278 1826.27 266.412 Q1828.33 267.546 1829.65 269.838 L1829.65 265.903 L1833.91 265.903 L1833.91 288.611 Z" fill="#000000" fill-rule="evenodd" fill-opacity="1" /><path clip-path="url(#clip640)" d="M1854.46 278.796 Q1849.3 278.796 1847.31 279.977 Q1845.32 281.157 1845.32 284.005 Q1845.32 286.273 1846.8 287.616 Q1848.31 288.935 1850.88 288.935 Q1854.42 288.935 1856.55 286.435 Q1858.7 283.912 1858.7 279.745 L1858.7 278.796 L1854.46 278.796 M1862.96 277.037 L1862.96 291.829 L1858.7 291.829 L1858.7 287.893 Q1857.24 290.255 1855.07 291.389 Q1852.89 292.5 1849.74 292.5 Q1845.76 292.5 1843.4 290.278 Q1841.06 288.032 1841.06 284.282 Q1841.06 279.907 1843.98 277.685 Q1846.92 275.463 1852.73 275.463 L1858.7 275.463 L1858.7 275.046 Q1858.7 272.107 1856.76 270.509 Q1854.83 268.889 1851.34 268.889 Q1849.12 268.889 1847.01 269.421 Q1844.9 269.954 1842.96 271.019 L1842.96 267.083 Q1845.3 266.181 1847.5 265.741 Q1849.69 265.278 1851.78 265.278 Q1857.4 265.278 1860.18 268.194 Q1862.96 271.111 1862.96 277.037 Z" fill="#000000" fill-rule="evenodd" fill-opacity="1" /><path clip-path="url(#clip640)" d="M1875.94 258.542 L1875.94 265.903 L1884.72 265.903 L1884.72 269.213 L1875.94 269.213 L1875.94 283.287 Q1875.94 286.458 1876.8 287.361 Q1877.68 288.264 1880.34 288.264 L1884.72 288.264 L1884.72 291.829 L1880.34 291.829 Q1875.41 291.829 1873.54 290 Q1871.66 288.148 1871.66 283.287 L1871.66 269.213 L1868.54 269.213 L1868.54 265.903 L1871.66 265.903 L1871.66 258.542 L1875.94 258.542 Z" fill="#000000" fill-rule="evenodd" fill-opacity="1" /><path clip-path="url(#clip640)" d="M1890.32 265.903 L1894.58 265.903 L1894.58 291.829 L1890.32 291.829 L1890.32 265.903 M1890.32 255.81 L1894.58 255.81 L1894.58 261.204 L1890.32 261.204 L1890.32 255.81 Z" fill="#000000" fill-rule="evenodd" fill-opacity="1" /><path clip-path="url(#clip640)" d="M1900.44 265.903 L1904.95 265.903 L1913.05 287.662 L1921.15 265.903 L1925.67 265.903 L1915.94 291.829 L1910.16 291.829 L1900.44 265.903 Z" fill="#000000" fill-rule="evenodd" fill-opacity="1" /><path clip-path="url(#clip640)" d="M1953.72 277.801 L1953.72 279.884 L1934.14 279.884 Q1934.42 284.282 1936.78 286.597 Q1939.16 288.889 1943.4 288.889 Q1945.85 288.889 1948.14 288.287 Q1950.46 287.685 1952.73 286.481 L1952.73 290.509 Q1950.44 291.481 1948.03 291.991 Q1945.62 292.5 1943.14 292.5 Q1936.94 292.5 1933.31 288.889 Q1929.69 285.278 1929.69 279.12 Q1929.69 272.755 1933.12 269.028 Q1936.57 265.278 1942.4 265.278 Q1947.63 265.278 1950.67 268.657 Q1953.72 272.014 1953.72 277.801 M1949.46 276.551 Q1949.42 273.056 1947.5 270.972 Q1945.6 268.889 1942.45 268.889 Q1938.88 268.889 1936.73 270.903 Q1934.6 272.917 1934.28 276.574 L1949.46 276.551 Z" fill="#000000" fill-rule="evenodd" fill-opacity="1" /><path clip-path="url(#clip640)" d="M1994.39 278.889 Q1994.39 274.19 1992.45 271.528 Q1990.53 268.843 1987.15 268.843 Q1983.77 268.843 1981.82 271.528 Q1979.9 274.19 1979.9 278.889 Q1979.9 283.588 1981.82 286.273 Q1983.77 288.935 1987.15 288.935 Q1990.53 288.935 1992.45 286.273 Q1994.39 283.588 1994.39 278.889 M1979.9 269.838 Q1981.25 267.523 1983.28 266.412 Q1985.34 265.278 1988.19 265.278 Q1992.91 265.278 1995.85 269.028 Q1998.81 272.778 1998.81 278.889 Q1998.81 285 1995.85 288.75 Q1992.91 292.5 1988.19 292.5 Q1985.34 292.5 1983.28 291.389 Q1981.25 290.255 1979.9 287.94 L1979.9 291.829 L1975.62 291.829 L1975.62 255.81 L1979.9 255.81 L1979.9 269.838 Z" fill="#000000" fill-rule="evenodd" fill-opacity="1" /><path clip-path="url(#clip640)" d="M2005.87 265.903 L2010.13 265.903 L2010.13 291.829 L2005.87 291.829 L2005.87 265.903 M2005.87 255.81 L2010.13 255.81 L2010.13 261.204 L2005.87 261.204 L2005.87 255.81 Z" fill="#000000" fill-rule="evenodd" fill-opacity="1" /><path clip-path="url(#clip640)" d="M2040.6 276.181 L2040.6 291.829 L2036.34 291.829 L2036.34 276.319 Q2036.34 272.639 2034.9 270.81 Q2033.47 268.982 2030.6 268.982 Q2027.15 268.982 2025.16 271.181 Q2023.17 273.38 2023.17 277.176 L2023.17 291.829 L2018.88 291.829 L2018.88 265.903 L2023.17 265.903 L2023.17 269.931 Q2024.69 267.593 2026.75 266.435 Q2028.84 265.278 2031.55 265.278 Q2036.01 265.278 2038.31 268.056 Q2040.6 270.81 2040.6 276.181 Z" fill="#000000" fill-rule="evenodd" fill-opacity="1" /><path clip-path="url(#clip640)" d="M2059.14 268.889 Q2055.71 268.889 2053.72 271.574 Q2051.73 274.236 2051.73 278.889 Q2051.73 283.542 2053.7 286.227 Q2055.69 288.889 2059.14 288.889 Q2062.54 288.889 2064.53 286.204 Q2066.52 283.518 2066.52 278.889 Q2066.52 274.282 2064.53 271.597 Q2062.54 268.889 2059.14 268.889 M2059.14 265.278 Q2064.69 265.278 2067.87 268.889 Q2071.04 272.5 2071.04 278.889 Q2071.04 285.255 2067.87 288.889 Q2064.69 292.5 2059.14 292.5 Q2053.56 292.5 2050.39 288.889 Q2047.24 285.255 2047.24 278.889 Q2047.24 272.5 2050.39 268.889 Q2053.56 265.278 2059.14 265.278 Z" fill="#000000" fill-rule="evenodd" fill-opacity="1" /><path clip-path="url(#clip640)" d="M2098.28 270.88 Q2099.88 268.009 2102.1 266.644 Q2104.32 265.278 2107.33 265.278 Q2111.38 265.278 2113.58 268.125 Q2115.78 270.949 2115.78 276.181 L2115.78 291.829 L2111.5 291.829 L2111.5 276.319 Q2111.5 272.593 2110.18 270.787 Q2108.86 268.982 2106.15 268.982 Q2102.84 268.982 2100.92 271.181 Q2099 273.38 2099 277.176 L2099 291.829 L2094.72 291.829 L2094.72 276.319 Q2094.72 272.569 2093.4 270.787 Q2092.08 268.982 2089.32 268.982 Q2086.06 268.982 2084.14 271.204 Q2082.22 273.403 2082.22 277.176 L2082.22 291.829 L2077.93 291.829 L2077.93 265.903 L2082.22 265.903 L2082.22 269.931 Q2083.68 267.546 2085.71 266.412 Q2087.75 265.278 2090.55 265.278 Q2093.37 265.278 2095.34 266.713 Q2097.33 268.148 2098.28 270.88 Z" fill="#000000" fill-rule="evenodd" fill-opacity="1" /><path clip-path="url(#clip640)" d="M2124.28 265.903 L2128.54 265.903 L2128.54 291.829 L2124.28 291.829 L2124.28 265.903 M2124.28 255.81 L2128.54 255.81 L2128.54 261.204 L2124.28 261.204 L2124.28 255.81 Z" fill="#000000" fill-rule="evenodd" fill-opacity="1" /><path clip-path="url(#clip640)" d="M2149.23 278.796 Q2144.07 278.796 2142.08 279.977 Q2140.09 281.157 2140.09 284.005 Q2140.09 286.273 2141.57 287.616 Q2143.07 288.935 2145.64 288.935 Q2149.18 288.935 2151.31 286.435 Q2153.47 283.912 2153.47 279.745 L2153.47 278.796 L2149.23 278.796 M2157.73 277.037 L2157.73 291.829 L2153.47 291.829 L2153.47 287.893 Q2152.01 290.255 2149.83 291.389 Q2147.66 292.5 2144.51 292.5 Q2140.53 292.5 2138.17 290.278 Q2135.83 288.032 2135.83 284.282 Q2135.83 279.907 2138.74 277.685 Q2141.68 275.463 2147.49 275.463 L2153.47 275.463 L2153.47 275.046 Q2153.47 272.107 2151.52 270.509 Q2149.6 268.889 2146.11 268.889 Q2143.88 268.889 2141.78 269.421 Q2139.67 269.954 2137.73 271.019 L2137.73 267.083 Q2140.06 266.181 2142.26 265.741 Q2144.46 265.278 2146.55 265.278 Q2152.17 265.278 2154.95 268.194 Q2157.73 271.111 2157.73 277.037 Z" fill="#000000" fill-rule="evenodd" fill-opacity="1" /><path clip-path="url(#clip640)" d="M2166.5 255.81 L2170.76 255.81 L2170.76 291.829 L2166.5 291.829 L2166.5 255.81 Z" fill="#000000" fill-rule="evenodd" fill-opacity="1" /><path clip-path="url(#clip640)" d="M2207.86 255.81 L2207.86 259.352 L2203.79 259.352 Q2201.5 259.352 2200.6 260.278 Q2199.72 261.204 2199.72 263.611 L2199.72 265.903 L2206.73 265.903 L2206.73 269.213 L2199.72 269.213 L2199.72 291.829 L2195.43 291.829 L2195.43 269.213 L2191.36 269.213 L2191.36 265.903 L2195.43 265.903 L2195.43 264.097 Q2195.43 259.769 2197.45 257.801 Q2199.46 255.81 2203.84 255.81 L2207.86 255.81 Z" fill="#000000" fill-rule="evenodd" fill-opacity="1" /><path clip-path="url(#clip640)" d="M2211.43 265.903 L2215.69 265.903 L2215.69 291.829 L2211.43 291.829 L2211.43 265.903 M2211.43 255.81 L2215.69 255.81 L2215.69 261.204 L2211.43 261.204 L2211.43 255.81 Z" fill="#000000" fill-rule="evenodd" fill-opacity="1" /><path clip-path="url(#clip640)" d="M2228.81 258.542 L2228.81 265.903 L2237.59 265.903 L2237.59 269.213 L2228.81 269.213 L2228.81 283.287 Q2228.81 286.458 2229.67 287.361 Q2230.55 288.264 2233.21 288.264 L2237.59 288.264 L2237.59 291.829 L2233.21 291.829 Q2228.28 291.829 2226.41 290 Q2224.53 288.148 2224.53 283.287 L2224.53 269.213 L2221.41 269.213 L2221.41 265.903 L2224.53 265.903 L2224.53 258.542 L2228.81 258.542 Z" fill="#000000" fill-rule="evenodd" fill-opacity="1" /></svg>
