<?xml version="1.0" encoding="utf-8"?>
<svg xmlns="http://www.w3.org/2000/svg" xmlns:xlink="http://www.w3.org/1999/xlink" width="600" height="400" viewBox="0 0 2400 1600">
<defs>
  <clipPath id="clip830">
    <rect x="0" y="0" width="2400" height="1600"/>
  </clipPath>
</defs>
<path clip-path="url(#clip830)" d="
M0 1600 L2400 1600 L2400 0 L0 0  Z
  " fill="#ffffff" fill-rule="evenodd" fill-opacity="1"/>
<defs>
  <clipPath id="clip831">
    <rect x="480" y="0" width="1681" height="1600"/>
  </clipPath>
</defs>
<path clip-path="url(#clip830)" d="
M102.74 1505.26 L2352.76 1505.26 L2352.76 47.2441 L102.74 47.2441  Z
  " fill="#ffffff" fill-rule="evenodd" fill-opacity="1"/>
<defs>
  <clipPath id="clip832">
    <rect x="102" y="47" width="2251" height="1459"/>
  </clipPath>
</defs>
<polyline clip-path="url(#clip832)" style="stroke:#000000; stroke-linecap:butt; stroke-linejoin:round; stroke-width:2; stroke-opacity:0.1; fill:none" points="
  226.495,1505.26 226.495,47.2441 
  "/>
<polyline clip-path="url(#clip832)" style="stroke:#000000; stroke-linecap:butt; stroke-linejoin:round; stroke-width:2; stroke-opacity:0.1; fill:none" points="
  893.997,1505.26 893.997,47.2441 
  "/>
<polyline clip-path="url(#clip832)" style="stroke:#000000; stroke-linecap:butt; stroke-linejoin:round; stroke-width:2; stroke-opacity:0.1; fill:none" points="
  1561.5,1505.26 1561.5,47.2441 
  "/>
<polyline clip-path="url(#clip832)" style="stroke:#000000; stroke-linecap:butt; stroke-linejoin:round; stroke-width:2; stroke-opacity:0.1; fill:none" points="
  2229,1505.26 2229,47.2441 
  "/>
<polyline clip-path="url(#clip830)" style="stroke:#000000; stroke-linecap:butt; stroke-linejoin:round; stroke-width:4; stroke-opacity:1; fill:none" points="
  102.74,1505.26 2352.76,1505.26 
  "/>
<polyline clip-path="url(#clip830)" style="stroke:#000000; stroke-linecap:butt; stroke-linejoin:round; stroke-width:4; stroke-opacity:1; fill:none" points="
  226.495,1505.26 226.495,1487.76 
  "/>
<polyline clip-path="url(#clip830)" style="stroke:#000000; stroke-linecap:butt; stroke-linejoin:round; stroke-width:4; stroke-opacity:1; fill:none" points="
  893.997,1505.26 893.997,1487.76 
  "/>
<polyline clip-path="url(#clip830)" style="stroke:#000000; stroke-linecap:butt; stroke-linejoin:round; stroke-width:4; stroke-opacity:1; fill:none" points="
  1561.5,1505.26 1561.5,1487.76 
  "/>
<polyline clip-path="url(#clip830)" style="stroke:#000000; stroke-linecap:butt; stroke-linejoin:round; stroke-width:4; stroke-opacity:1; fill:none" points="
  2229,1505.26 2229,1487.76 
  "/>
<path clip-path="url(#clip830)" d="M226.495 1534.45 Q222.884 1534.45 221.055 1538.02 Q219.25 1541.56 219.25 1548.69 Q219.25 1555.79 221.055 1559.36 Q222.884 1562.9 226.495 1562.9 Q230.129 1562.9 231.935 1559.36 Q233.764 1555.79 233.764 1548.69 Q233.764 1541.56 231.935 1538.02 Q230.129 1534.45 226.495 1534.45 M226.495 1530.75 Q232.305 1530.75 235.361 1535.35 Q238.439 1539.94 238.439 1548.69 Q238.439 1557.41 235.361 1562.02 Q232.305 1566.6 226.495 1566.6 Q220.685 1566.6 217.606 1562.02 Q214.551 1557.41 214.551 1548.69 Q214.551 1539.94 217.606 1535.35 Q220.685 1530.75 226.495 1530.75 Z" fill="#000000" fill-rule="evenodd" fill-opacity="1" /><path clip-path="url(#clip830)" d="M868.685 1562 L876.324 1562 L876.324 1535.63 L868.013 1537.3 L868.013 1533.04 L876.277 1531.37 L880.953 1531.37 L880.953 1562 L888.592 1562 L888.592 1565.93 L868.685 1565.93 L868.685 1562 Z" fill="#000000" fill-rule="evenodd" fill-opacity="1" /><path clip-path="url(#clip830)" d="M908.036 1534.45 Q904.425 1534.45 902.597 1538.02 Q900.791 1541.56 900.791 1548.69 Q900.791 1555.79 902.597 1559.36 Q904.425 1562.9 908.036 1562.9 Q911.671 1562.9 913.476 1559.36 Q915.305 1555.79 915.305 1548.69 Q915.305 1541.56 913.476 1538.02 Q911.671 1534.45 908.036 1534.45 M908.036 1530.75 Q913.846 1530.75 916.902 1535.35 Q919.981 1539.94 919.981 1548.69 Q919.981 1557.41 916.902 1562.02 Q913.846 1566.6 908.036 1566.6 Q902.226 1566.6 899.147 1562.02 Q896.092 1557.41 896.092 1548.69 Q896.092 1539.94 899.147 1535.35 Q902.226 1530.75 908.036 1530.75 Z" fill="#000000" fill-rule="evenodd" fill-opacity="1" /><path clip-path="url(#clip830)" d="M1540.27 1562 L1556.59 1562 L1556.59 1565.93 L1534.65 1565.93 L1534.65 1562 Q1537.31 1559.24 1541.89 1554.61 Q1546.5 1549.96 1547.68 1548.62 Q1549.93 1546.09 1550.8 1544.36 Q1551.71 1542.6 1551.71 1540.91 Q1551.71 1538.15 1549.76 1536.42 Q1547.84 1534.68 1544.74 1534.68 Q1542.54 1534.68 1540.09 1535.45 Q1537.66 1536.21 1534.88 1537.76 L1534.88 1533.04 Q1537.7 1531.9 1540.16 1531.33 Q1542.61 1530.75 1544.65 1530.75 Q1550.02 1530.75 1553.21 1533.43 Q1556.41 1536.12 1556.41 1540.61 Q1556.41 1542.74 1555.6 1544.66 Q1554.81 1546.56 1552.7 1549.15 Q1552.12 1549.82 1549.02 1553.04 Q1545.92 1556.23 1540.27 1562 Z" fill="#000000" fill-rule="evenodd" fill-opacity="1" /><path clip-path="url(#clip830)" d="M1576.41 1534.45 Q1572.8 1534.45 1570.97 1538.02 Q1569.16 1541.56 1569.16 1548.69 Q1569.16 1555.79 1570.97 1559.36 Q1572.8 1562.9 1576.41 1562.9 Q1580.04 1562.9 1581.85 1559.36 Q1583.67 1555.79 1583.67 1548.69 Q1583.67 1541.56 1581.85 1538.02 Q1580.04 1534.45 1576.41 1534.45 M1576.41 1530.75 Q1582.22 1530.75 1585.27 1535.35 Q1588.35 1539.94 1588.35 1548.69 Q1588.35 1557.41 1585.27 1562.02 Q1582.22 1566.6 1576.41 1566.6 Q1570.6 1566.6 1567.52 1562.02 Q1564.46 1557.41 1564.46 1548.69 Q1564.46 1539.94 1567.52 1535.35 Q1570.6 1530.75 1576.41 1530.75 Z" fill="#000000" fill-rule="evenodd" fill-opacity="1" /><path clip-path="url(#clip830)" d="M2217.84 1547.3 Q2221.2 1548.02 2223.08 1550.28 Q2224.97 1552.55 2224.97 1555.89 Q2224.97 1561 2221.45 1563.8 Q2217.94 1566.6 2211.45 1566.6 Q2209.28 1566.6 2206.96 1566.16 Q2204.67 1565.75 2202.22 1564.89 L2202.22 1560.38 Q2204.16 1561.51 2206.48 1562.09 Q2208.79 1562.67 2211.32 1562.67 Q2215.71 1562.67 2218.01 1560.93 Q2220.32 1559.2 2220.32 1555.89 Q2220.32 1552.83 2218.17 1551.12 Q2216.04 1549.38 2212.22 1549.38 L2208.19 1549.38 L2208.19 1545.54 L2212.4 1545.54 Q2215.85 1545.54 2217.68 1544.17 Q2219.51 1542.78 2219.51 1540.19 Q2219.51 1537.53 2217.61 1536.12 Q2215.74 1534.68 2212.22 1534.68 Q2210.3 1534.68 2208.1 1535.1 Q2205.9 1535.52 2203.26 1536.39 L2203.26 1532.23 Q2205.92 1531.49 2208.24 1531.12 Q2210.58 1530.75 2212.64 1530.75 Q2217.96 1530.75 2221.06 1533.18 Q2224.16 1535.58 2224.16 1539.71 Q2224.16 1542.58 2222.52 1544.57 Q2220.88 1546.53 2217.84 1547.3 Z" fill="#000000" fill-rule="evenodd" fill-opacity="1" /><path clip-path="url(#clip830)" d="M2243.84 1534.45 Q2240.23 1534.45 2238.4 1538.02 Q2236.59 1541.56 2236.59 1548.69 Q2236.59 1555.79 2238.4 1559.36 Q2240.23 1562.9 2243.84 1562.9 Q2247.47 1562.9 2249.28 1559.36 Q2251.11 1555.79 2251.11 1548.69 Q2251.11 1541.56 2249.28 1538.02 Q2247.47 1534.45 2243.84 1534.45 M2243.84 1530.75 Q2249.65 1530.75 2252.7 1535.35 Q2255.78 1539.94 2255.78 1548.69 Q2255.78 1557.41 2252.7 1562.02 Q2249.65 1566.6 2243.84 1566.6 Q2238.03 1566.6 2234.95 1562.02 Q2231.89 1557.41 2231.89 1548.69 Q2231.89 1539.94 2234.95 1535.35 Q2238.03 1530.75 2243.84 1530.75 Z" fill="#000000" fill-rule="evenodd" fill-opacity="1" /><path clip-path="url(#clip830)" d="M1217.69 1644.78 L1217.69 1663.68 L1211.8 1663.68 L1211.8 1614.48 L1217.69 1614.48 L1217.69 1619.89 Q1219.54 1616.7 1222.34 1615.18 Q1225.17 1613.62 1229.08 1613.62 Q1235.58 1613.62 1239.62 1618.77 Q1243.69 1623.93 1243.69 1632.33 Q1243.69 1640.73 1239.62 1645.89 Q1235.58 1651.05 1229.08 1651.05 Q1225.17 1651.05 1222.34 1649.52 Q1219.54 1647.96 1217.69 1644.78 M1237.61 1632.33 Q1237.61 1625.87 1234.94 1622.21 Q1232.3 1618.52 1227.65 1618.52 Q1223.01 1618.52 1220.33 1622.21 Q1217.69 1625.87 1217.69 1632.33 Q1217.69 1638.79 1220.33 1642.48 Q1223.01 1646.15 1227.65 1646.15 Q1232.3 1646.15 1234.94 1642.48 Q1237.61 1638.79 1237.61 1632.33 Z" fill="#000000" fill-rule="evenodd" fill-opacity="1" /><polyline clip-path="url(#clip832)" style="stroke:#000000; stroke-linecap:butt; stroke-linejoin:round; stroke-width:2; stroke-opacity:0.1; fill:none" points="
  102.74,1464 2352.76,1464 
  "/>
<polyline clip-path="url(#clip832)" style="stroke:#000000; stroke-linecap:butt; stroke-linejoin:round; stroke-width:2; stroke-opacity:0.1; fill:none" points="
  102.74,1165.9 2352.76,1165.9 
  "/>
<polyline clip-path="url(#clip832)" style="stroke:#000000; stroke-linecap:butt; stroke-linejoin:round; stroke-width:2; stroke-opacity:0.1; fill:none" points="
  102.74,867.806 2352.76,867.806 
  "/>
<polyline clip-path="url(#clip832)" style="stroke:#000000; stroke-linecap:butt; stroke-linejoin:round; stroke-width:2; stroke-opacity:0.1; fill:none" points="
  102.74,569.711 2352.76,569.711 
  "/>
<polyline clip-path="url(#clip832)" style="stroke:#000000; stroke-linecap:butt; stroke-linejoin:round; stroke-width:2; stroke-opacity:0.1; fill:none" points="
  102.74,271.616 2352.76,271.616 
  "/>
<polyline clip-path="url(#clip830)" style="stroke:#000000; stroke-linecap:butt; stroke-linejoin:round; stroke-width:4; stroke-opacity:1; fill:none" points="
  102.74,1505.26 102.74,47.2441 
  "/>
<polyline clip-path="url(#clip830)" style="stroke:#000000; stroke-linecap:butt; stroke-linejoin:round; stroke-width:4; stroke-opacity:1; fill:none" points="
  102.74,1464 129.74,1464 
  "/>
<polyline clip-path="url(#clip830)" style="stroke:#000000; stroke-linecap:butt; stroke-linejoin:round; stroke-width:4; stroke-opacity:1; fill:none" points="
  102.74,1165.9 129.74,1165.9 
  "/>
<polyline clip-path="url(#clip830)" style="stroke:#000000; stroke-linecap:butt; stroke-linejoin:round; stroke-width:4; stroke-opacity:1; fill:none" points="
  102.74,867.806 129.74,867.806 
  "/>
<polyline clip-path="url(#clip830)" style="stroke:#000000; stroke-linecap:butt; stroke-linejoin:round; stroke-width:4; stroke-opacity:1; fill:none" points="
  102.74,569.711 129.74,569.711 
  "/>
<polyline clip-path="url(#clip830)" style="stroke:#000000; stroke-linecap:butt; stroke-linejoin:round; stroke-width:4; stroke-opacity:1; fill:none" points="
  102.74,271.616 129.74,271.616 
  "/>
<path clip-path="url(#clip830)" d="M-50.7592 1449.79 Q-54.3703 1449.79 -56.199 1453.36 Q-58.0045 1456.9 -58.0045 1464.03 Q-58.0045 1471.14 -56.199 1474.7 Q-54.3703 1478.24 -50.7592 1478.24 Q-47.125 1478.24 -45.3194 1474.7 Q-43.4907 1471.14 -43.4907 1464.03 Q-43.4907 1456.9 -45.3194 1453.36 Q-47.125 1449.79 -50.7592 1449.79 M-50.7592 1446.09 Q-44.9491 1446.09 -41.8935 1450.7 Q-38.8148 1455.28 -38.8148 1464.03 Q-38.8148 1472.76 -41.8935 1477.36 Q-44.9491 1481.95 -50.7592 1481.95 Q-56.5694 1481.95 -59.6481 1477.36 Q-62.7036 1472.76 -62.7036 1464.03 Q-62.7036 1455.28 -59.6481 1450.7 Q-56.5694 1446.09 -50.7592 1446.09 Z" fill="#000000" fill-rule="evenodd" fill-opacity="1" /><path clip-path="url(#clip830)" d="M-30.5973 1475.4 L-25.7131 1475.4 L-25.7131 1481.28 L-30.5973 1481.28 L-30.5973 1475.4 Z" fill="#000000" fill-rule="evenodd" fill-opacity="1" /><path clip-path="url(#clip830)" d="M-5.52797 1449.79 Q-9.13907 1449.79 -10.9678 1453.36 Q-12.7733 1456.9 -12.7733 1464.03 Q-12.7733 1471.14 -10.9678 1474.7 Q-9.13907 1478.24 -5.52797 1478.24 Q-1.89373 1478.24 -0.0881881 1474.7 Q1.74051 1471.14 1.74051 1464.03 Q1.74051 1456.9 -0.0881881 1453.36 Q-1.89373 1449.79 -5.52797 1449.79 M-5.52797 1446.09 Q0.28218 1446.09 3.33772 1450.7 Q6.41641 1455.28 6.41641 1464.03 Q6.41641 1472.76 3.33772 1477.36 Q0.28218 1481.95 -5.52797 1481.95 Q-11.3381 1481.95 -14.4168 1477.36 Q-17.4724 1472.76 -17.4724 1464.03 Q-17.4724 1455.28 -14.4168 1450.7 Q-11.3381 1446.09 -5.52797 1446.09 Z" fill="#000000" fill-rule="evenodd" fill-opacity="1" /><path clip-path="url(#clip830)" d="M24.6339 1449.79 Q21.0228 1449.79 19.1941 1453.36 Q17.3886 1456.9 17.3886 1464.03 Q17.3886 1471.14 19.1941 1474.7 Q21.0228 1478.24 24.6339 1478.24 Q28.2681 1478.24 30.0737 1474.7 Q31.9024 1471.14 31.9024 1464.03 Q31.9024 1456.9 30.0737 1453.36 Q28.2681 1449.79 24.6339 1449.79 M24.6339 1446.09 Q30.4441 1446.09 33.4996 1450.7 Q36.5783 1455.28 36.5783 1464.03 Q36.5783 1472.76 33.4996 1477.36 Q30.4441 1481.95 24.6339 1481.95 Q18.8237 1481.95 15.7451 1477.36 Q12.6895 1472.76 12.6895 1464.03 Q12.6895 1455.28 15.7451 1450.7 Q18.8237 1446.09 24.6339 1446.09 Z" fill="#000000" fill-rule="evenodd" fill-opacity="1" /><path clip-path="url(#clip830)" d="M54.7958 1449.79 Q51.1847 1449.79 49.356 1453.36 Q47.5504 1456.9 47.5504 1464.03 Q47.5504 1471.14 49.356 1474.7 Q51.1847 1478.24 54.7958 1478.24 Q58.43 1478.24 60.2356 1474.7 Q62.0643 1471.14 62.0643 1464.03 Q62.0643 1456.9 60.2356 1453.36 Q58.43 1449.79 54.7958 1449.79 M54.7958 1446.09 Q60.6059 1446.09 63.6615 1450.7 Q66.7402 1455.28 66.7402 1464.03 Q66.7402 1472.76 63.6615 1477.36 Q60.6059 1481.95 54.7958 1481.95 Q48.9856 1481.95 45.9069 1477.36 Q42.8514 1472.76 42.8514 1464.03 Q42.8514 1455.28 45.9069 1450.7 Q48.9856 1446.09 54.7958 1446.09 Z" fill="#000000" fill-rule="evenodd" fill-opacity="1" /><path clip-path="url(#clip830)" d="M-49.7638 1151.7 Q-53.3749 1151.7 -55.2036 1155.26 Q-57.0092 1158.81 -57.0092 1165.94 Q-57.0092 1173.04 -55.2036 1176.61 Q-53.3749 1180.15 -49.7638 1180.15 Q-46.1296 1180.15 -44.3241 1176.61 Q-42.4954 1173.04 -42.4954 1165.94 Q-42.4954 1158.81 -44.3241 1155.26 Q-46.1296 1151.7 -49.7638 1151.7 M-49.7638 1148 Q-43.9537 1148 -40.8982 1152.6 Q-37.8195 1157.19 -37.8195 1165.94 Q-37.8195 1174.66 -40.8982 1179.27 Q-43.9537 1183.85 -49.7638 1183.85 Q-55.574 1183.85 -58.6527 1179.27 Q-61.7082 1174.66 -61.7082 1165.94 Q-61.7082 1157.19 -58.6527 1152.6 Q-55.574 1148 -49.7638 1148 Z" fill="#000000" fill-rule="evenodd" fill-opacity="1" /><path clip-path="url(#clip830)" d="M-29.6019 1177.3 L-24.7177 1177.3 L-24.7177 1183.18 L-29.6019 1183.18 L-29.6019 1177.3 Z" fill="#000000" fill-rule="evenodd" fill-opacity="1" /><path clip-path="url(#clip830)" d="M-4.53261 1151.7 Q-8.1437 1151.7 -9.97239 1155.26 Q-11.7779 1158.81 -11.7779 1165.94 Q-11.7779 1173.04 -9.97239 1176.61 Q-8.1437 1180.15 -4.53261 1180.15 Q-0.898369 1180.15 0.907177 1176.61 Q2.73587 1173.04 2.73587 1165.94 Q2.73587 1158.81 0.907177 1155.26 Q-0.898369 1151.7 -4.53261 1151.7 M-4.53261 1148 Q1.27755 1148 4.33308 1152.6 Q7.41177 1157.19 7.41177 1165.94 Q7.41177 1174.66 4.33308 1179.27 Q1.27755 1183.85 -4.53261 1183.85 Q-10.3428 1183.85 -13.4215 1179.27 Q-16.477 1174.66 -16.477 1165.94 Q-16.477 1157.19 -13.4215 1152.6 Q-10.3428 1148 -4.53261 1148 Z" fill="#000000" fill-rule="evenodd" fill-opacity="1" /><path clip-path="url(#clip830)" d="M19.6571 1179.25 L35.9764 1179.25 L35.9764 1183.18 L14.0321 1183.18 L14.0321 1179.25 Q16.6941 1176.49 21.2774 1171.86 Q25.8839 1167.21 27.0644 1165.87 Q29.3098 1163.34 30.1894 1161.61 Q31.0922 1159.85 31.0922 1158.16 Q31.0922 1155.4 29.1478 1153.67 Q27.2265 1151.93 24.1246 1151.93 Q21.9256 1151.93 19.4719 1152.69 Q17.0413 1153.46 14.2636 1155.01 L14.2636 1150.29 Q17.0876 1149.15 19.5413 1148.57 Q21.995 1148 24.0321 1148 Q29.4024 1148 32.5968 1150.68 Q35.7912 1153.37 35.7912 1157.86 Q35.7912 1159.99 34.9811 1161.91 Q34.194 1163.81 32.0876 1166.4 Q31.5089 1167.07 28.407 1170.29 Q25.3052 1173.48 19.6571 1179.25 Z" fill="#000000" fill-rule="evenodd" fill-opacity="1" /><path clip-path="url(#clip830)" d="M45.8375 1148.62 L64.1939 1148.62 L64.1939 1152.56 L50.1199 1152.56 L50.1199 1161.03 Q51.1384 1160.68 52.1569 1160.52 Q53.1754 1160.33 54.1939 1160.33 Q59.9809 1160.33 63.3605 1163.5 Q66.7402 1166.68 66.7402 1172.09 Q66.7402 1177.67 63.268 1180.77 Q59.7958 1183.85 53.4763 1183.85 Q51.3004 1183.85 49.0319 1183.48 Q46.7866 1183.11 44.3792 1182.37 L44.3792 1177.67 Q46.4625 1178.81 48.6847 1179.36 Q50.9069 1179.92 53.3837 1179.92 Q57.3884 1179.92 59.7263 1177.81 Q62.0643 1175.7 62.0643 1172.09 Q62.0643 1168.48 59.7263 1166.38 Q57.3884 1164.27 53.3837 1164.27 Q51.5088 1164.27 49.6338 1164.69 Q47.7819 1165.1 45.8375 1165.98 L45.8375 1148.62 Z" fill="#000000" fill-rule="evenodd" fill-opacity="1" /><path clip-path="url(#clip830)" d="M-50.7592 853.605 Q-54.3703 853.605 -56.199 857.169 Q-58.0045 860.711 -58.0045 867.841 Q-58.0045 874.947 -56.199 878.512 Q-54.3703 882.053 -50.7592 882.053 Q-47.125 882.053 -45.3194 878.512 Q-43.4907 874.947 -43.4907 867.841 Q-43.4907 860.711 -45.3194 857.169 Q-47.125 853.605 -50.7592 853.605 M-50.7592 849.901 Q-44.9491 849.901 -41.8935 854.507 Q-38.8148 859.091 -38.8148 867.841 Q-38.8148 876.567 -41.8935 881.174 Q-44.9491 885.757 -50.7592 885.757 Q-56.5694 885.757 -59.6481 881.174 Q-62.7036 876.567 -62.7036 867.841 Q-62.7036 859.091 -59.6481 854.507 Q-56.5694 849.901 -50.7592 849.901 Z" fill="#000000" fill-rule="evenodd" fill-opacity="1" /><path clip-path="url(#clip830)" d="M-30.5973 879.206 L-25.7131 879.206 L-25.7131 885.086 L-30.5973 885.086 L-30.5973 879.206 Z" fill="#000000" fill-rule="evenodd" fill-opacity="1" /><path clip-path="url(#clip830)" d="M-5.52797 853.605 Q-9.13907 853.605 -10.9678 857.169 Q-12.7733 860.711 -12.7733 867.841 Q-12.7733 874.947 -10.9678 878.512 Q-9.13907 882.053 -5.52797 882.053 Q-1.89373 882.053 -0.0881881 878.512 Q1.74051 874.947 1.74051 867.841 Q1.74051 860.711 -0.0881881 857.169 Q-1.89373 853.605 -5.52797 853.605 M-5.52797 849.901 Q0.28218 849.901 3.33772 854.507 Q6.41641 859.091 6.41641 867.841 Q6.41641 876.567 3.33772 881.174 Q0.28218 885.757 -5.52797 885.757 Q-11.3381 885.757 -14.4168 881.174 Q-17.4724 876.567 -17.4724 867.841 Q-17.4724 859.091 -14.4168 854.507 Q-11.3381 849.901 -5.52797 849.901 Z" fill="#000000" fill-rule="evenodd" fill-opacity="1" /><path clip-path="url(#clip830)" d="M14.6803 850.526 L33.0366 850.526 L33.0366 854.461 L18.9626 854.461 L18.9626 862.933 Q19.9811 862.586 20.9997 862.424 Q22.0182 862.239 23.0367 862.239 Q28.8237 862.239 32.2033 865.41 Q35.5829 868.581 35.5829 873.998 Q35.5829 879.577 32.1107 882.678 Q28.6385 885.757 22.3191 885.757 Q20.1432 885.757 17.8747 885.387 Q15.6293 885.016 13.2219 884.276 L13.2219 879.577 Q15.3052 880.711 17.5275 881.266 Q19.7497 881.822 22.2265 881.822 Q26.2311 881.822 28.5691 879.716 Q30.907 877.609 30.907 873.998 Q30.907 870.387 28.5691 868.28 Q26.2311 866.174 22.2265 866.174 Q20.3515 866.174 18.4765 866.591 Q16.6247 867.007 14.6803 867.887 L14.6803 850.526 Z" fill="#000000" fill-rule="evenodd" fill-opacity="1" /><path clip-path="url(#clip830)" d="M54.7958 853.605 Q51.1847 853.605 49.356 857.169 Q47.5504 860.711 47.5504 867.841 Q47.5504 874.947 49.356 878.512 Q51.1847 882.053 54.7958 882.053 Q58.43 882.053 60.2356 878.512 Q62.0643 874.947 62.0643 867.841 Q62.0643 860.711 60.2356 857.169 Q58.43 853.605 54.7958 853.605 M54.7958 849.901 Q60.6059 849.901 63.6615 854.507 Q66.7402 859.091 66.7402 867.841 Q66.7402 876.567 63.6615 881.174 Q60.6059 885.757 54.7958 885.757 Q48.9856 885.757 45.9069 881.174 Q42.8514 876.567 42.8514 867.841 Q42.8514 859.091 45.9069 854.507 Q48.9856 849.901 54.7958 849.901 Z" fill="#000000" fill-rule="evenodd" fill-opacity="1" /><path clip-path="url(#clip830)" d="M-49.7638 555.51 Q-53.3749 555.51 -55.2036 559.075 Q-57.0092 562.616 -57.0092 569.746 Q-57.0092 576.852 -55.2036 580.417 Q-53.3749 583.959 -49.7638 583.959 Q-46.1296 583.959 -44.3241 580.417 Q-42.4954 576.852 -42.4954 569.746 Q-42.4954 562.616 -44.3241 559.075 Q-46.1296 555.51 -49.7638 555.51 M-49.7638 551.806 Q-43.9537 551.806 -40.8982 556.413 Q-37.8195 560.996 -37.8195 569.746 Q-37.8195 578.473 -40.8982 583.079 Q-43.9537 587.662 -49.7638 587.662 Q-55.574 587.662 -58.6527 583.079 Q-61.7082 578.473 -61.7082 569.746 Q-61.7082 560.996 -58.6527 556.413 Q-55.574 551.806 -49.7638 551.806 Z" fill="#000000" fill-rule="evenodd" fill-opacity="1" /><path clip-path="url(#clip830)" d="M-29.6019 581.112 L-24.7177 581.112 L-24.7177 586.991 L-29.6019 586.991 L-29.6019 581.112 Z" fill="#000000" fill-rule="evenodd" fill-opacity="1" /><path clip-path="url(#clip830)" d="M-4.53261 555.51 Q-8.1437 555.51 -9.97239 559.075 Q-11.7779 562.616 -11.7779 569.746 Q-11.7779 576.852 -9.97239 580.417 Q-8.1437 583.959 -4.53261 583.959 Q-0.898369 583.959 0.907177 580.417 Q2.73587 576.852 2.73587 569.746 Q2.73587 562.616 0.907177 559.075 Q-0.898369 555.51 -4.53261 555.51 M-4.53261 551.806 Q1.27755 551.806 4.33308 556.413 Q7.41177 560.996 7.41177 569.746 Q7.41177 578.473 4.33308 583.079 Q1.27755 587.662 -4.53261 587.662 Q-10.3428 587.662 -13.4215 583.079 Q-16.477 578.473 -16.477 569.746 Q-16.477 560.996 -13.4215 556.413 Q-10.3428 551.806 -4.53261 551.806 Z" fill="#000000" fill-rule="evenodd" fill-opacity="1" /><path clip-path="url(#clip830)" d="M14.4488 552.431 L36.6709 552.431 L36.6709 554.422 L24.1246 586.991 L19.2404 586.991 L31.0459 556.366 L14.4488 556.366 L14.4488 552.431 Z" fill="#000000" fill-rule="evenodd" fill-opacity="1" /><path clip-path="url(#clip830)" d="M45.8375 552.431 L64.1939 552.431 L64.1939 556.366 L50.1199 556.366 L50.1199 564.838 Q51.1384 564.491 52.1569 564.329 Q53.1754 564.144 54.1939 564.144 Q59.9809 564.144 63.3605 567.315 Q66.7402 570.487 66.7402 575.903 Q66.7402 581.482 63.268 584.584 Q59.7958 587.662 53.4763 587.662 Q51.3004 587.662 49.0319 587.292 Q46.7866 586.922 44.3792 586.181 L44.3792 581.482 Q46.4625 582.616 48.6847 583.172 Q50.9069 583.727 53.3837 583.727 Q57.3884 583.727 59.7263 581.621 Q62.0643 579.514 62.0643 575.903 Q62.0643 572.292 59.7263 570.186 Q57.3884 568.079 53.3837 568.079 Q51.5088 568.079 49.6338 568.496 Q47.7819 568.913 45.8375 569.792 L45.8375 552.431 Z" fill="#000000" fill-rule="evenodd" fill-opacity="1" /><path clip-path="url(#clip830)" d="M-50.7592 257.415 Q-54.3703 257.415 -56.199 260.98 Q-58.0045 264.522 -58.0045 271.651 Q-58.0045 278.758 -56.199 282.322 Q-54.3703 285.864 -50.7592 285.864 Q-47.125 285.864 -45.3194 282.322 Q-43.4907 278.758 -43.4907 271.651 Q-43.4907 264.522 -45.3194 260.98 Q-47.125 257.415 -50.7592 257.415 M-50.7592 253.711 Q-44.9491 253.711 -41.8935 258.318 Q-38.8148 262.901 -38.8148 271.651 Q-38.8148 280.378 -41.8935 284.984 Q-44.9491 289.568 -50.7592 289.568 Q-56.5694 289.568 -59.6481 284.984 Q-62.7036 280.378 -62.7036 271.651 Q-62.7036 262.901 -59.6481 258.318 Q-56.5694 253.711 -50.7592 253.711 Z" fill="#000000" fill-rule="evenodd" fill-opacity="1" /><path clip-path="url(#clip830)" d="M-30.5973 283.017 L-25.7131 283.017 L-25.7131 288.896 L-30.5973 288.896 L-30.5973 283.017 Z" fill="#000000" fill-rule="evenodd" fill-opacity="1" /><path clip-path="url(#clip830)" d="M-14.7177 284.961 L-7.07889 284.961 L-7.07889 258.596 L-15.389 260.262 L-15.389 256.003 L-7.12519 254.336 L-2.44929 254.336 L-2.44929 284.961 L5.18956 284.961 L5.18956 288.896 L-14.7177 288.896 L-14.7177 284.961 Z" fill="#000000" fill-rule="evenodd" fill-opacity="1" /><path clip-path="url(#clip830)" d="M24.6339 257.415 Q21.0228 257.415 19.1941 260.98 Q17.3886 264.522 17.3886 271.651 Q17.3886 278.758 19.1941 282.322 Q21.0228 285.864 24.6339 285.864 Q28.2681 285.864 30.0737 282.322 Q31.9024 278.758 31.9024 271.651 Q31.9024 264.522 30.0737 260.98 Q28.2681 257.415 24.6339 257.415 M24.6339 253.711 Q30.4441 253.711 33.4996 258.318 Q36.5783 262.901 36.5783 271.651 Q36.5783 280.378 33.4996 284.984 Q30.4441 289.568 24.6339 289.568 Q18.8237 289.568 15.7451 284.984 Q12.6895 280.378 12.6895 271.651 Q12.6895 262.901 15.7451 258.318 Q18.8237 253.711 24.6339 253.711 Z" fill="#000000" fill-rule="evenodd" fill-opacity="1" /><path clip-path="url(#clip830)" d="M54.7958 257.415 Q51.1847 257.415 49.356 260.98 Q47.5504 264.522 47.5504 271.651 Q47.5504 278.758 49.356 282.322 Q51.1847 285.864 54.7958 285.864 Q58.43 285.864 60.2356 282.322 Q62.0643 278.758 62.0643 271.651 Q62.0643 264.522 60.2356 260.98 Q58.43 257.415 54.7958 257.415 M54.7958 253.711 Q60.6059 253.711 63.6615 258.318 Q66.7402 262.901 66.7402 271.651 Q66.7402 280.378 63.6615 284.984 Q60.6059 289.568 54.7958 289.568 Q48.9856 289.568 45.9069 284.984 Q42.8514 280.378 42.8514 271.651 Q42.8514 262.901 45.9069 258.318 Q48.9856 253.711 54.7958 253.711 Z" fill="#000000" fill-rule="evenodd" fill-opacity="1" /><path clip-path="url(#clip830)" d="M-162.485 814.749 L-157.615 814.749 L-157.615 820.35 Q-157.615 823.501 -156.342 824.743 Q-155.069 825.952 -151.759 825.952 L-148.608 825.952 L-148.608 816.308 L-144.056 816.308 L-144.056 825.952 L-112.96 825.952 L-112.96 831.841 L-144.056 831.841 L-144.056 837.442 L-148.608 837.442 L-148.608 831.841 L-151.09 831.841 Q-157.042 831.841 -159.748 829.071 Q-162.485 826.302 -162.485 820.287 L-162.485 814.749 Z" fill="#000000" fill-rule="evenodd" fill-opacity="1" /><path clip-path="url(#clip830)" d="M-143.133 789.19 Q-143.706 790.177 -143.961 791.355 Q-144.247 792.5 -144.247 793.901 Q-144.247 798.866 -141.001 801.54 Q-137.786 804.182 -131.738 804.182 L-112.96 804.182 L-112.96 810.07 L-148.608 810.07 L-148.608 804.182 L-143.069 804.182 Q-146.316 802.335 -147.875 799.375 Q-149.467 796.415 -149.467 792.182 Q-149.467 791.577 -149.371 790.845 Q-149.308 790.113 -149.149 789.222 L-143.133 789.19 Z" fill="#000000" fill-rule="evenodd" fill-opacity="1" /><path clip-path="url(#clip830)" d="M-132.248 753.988 L-129.383 753.988 L-129.383 780.915 Q-123.336 780.533 -120.153 777.286 Q-117.002 774.008 -117.002 768.183 Q-117.002 764.81 -117.829 761.659 Q-118.657 758.476 -120.312 755.357 L-114.774 755.357 Q-113.437 758.508 -112.737 761.818 Q-112.037 765.128 -112.037 768.534 Q-112.037 777.064 -117.002 782.061 Q-121.967 787.026 -130.433 787.026 Q-139.186 787.026 -144.311 782.315 Q-149.467 777.573 -149.467 769.552 Q-149.467 762.359 -144.82 758.189 Q-140.205 753.988 -132.248 753.988 M-133.966 759.844 Q-138.773 759.908 -141.637 762.55 Q-144.502 765.16 -144.502 769.488 Q-144.502 774.39 -141.733 777.35 Q-138.964 780.278 -133.935 780.724 L-133.966 759.844 Z" fill="#000000" fill-rule="evenodd" fill-opacity="1" /><path clip-path="url(#clip830)" d="M-130.752 740.875 Q-124.291 740.875 -120.598 738.233 Q-116.938 735.559 -116.938 730.912 Q-116.938 726.265 -120.598 723.592 Q-124.291 720.918 -130.752 720.918 Q-137.213 720.918 -140.873 723.592 Q-144.565 726.265 -144.565 730.912 Q-144.565 735.559 -140.873 738.233 Q-137.213 740.875 -130.752 740.875 M-118.307 720.918 Q-115.124 722.764 -113.564 725.597 Q-112.037 728.398 -112.037 732.345 Q-112.037 738.806 -117.193 742.88 Q-122.349 746.922 -130.752 746.922 Q-139.154 746.922 -144.311 742.88 Q-149.467 738.806 -149.467 732.345 Q-149.467 728.398 -147.907 725.597 Q-146.38 722.764 -143.197 720.918 L-148.608 720.918 L-148.608 715.062 L-99.4006 715.062 L-99.4006 720.918 L-118.307 720.918 Z" fill="#000000" fill-rule="evenodd" fill-opacity="1" /><path clip-path="url(#clip832)" d="
M226.495 1463.64 L226.495 1464 L293.245 1464 L293.245 1463.64 L226.495 1463.64 L226.495 1463.64  Z
  " fill="#009af9" fill-rule="evenodd" fill-opacity="1"/>
<polyline clip-path="url(#clip832)" style="stroke:#009af9; stroke-linecap:butt; stroke-linejoin:round; stroke-width:4; stroke-opacity:1; fill:none" points="
  226.495,1463.64 226.495,1464 293.245,1464 293.245,1463.64 226.495,1463.64 
  "/>
<path clip-path="url(#clip832)" d="
M293.245 1460.3 L293.245 1464 L359.995 1464 L359.995 1460.3 L293.245 1460.3 L293.245 1460.3  Z
  " fill="#009af9" fill-rule="evenodd" fill-opacity="1"/>
<polyline clip-path="url(#clip832)" style="stroke:#009af9; stroke-linecap:butt; stroke-linejoin:round; stroke-width:4; stroke-opacity:1; fill:none" points="
  293.245,1460.3 293.245,1464 359.995,1464 359.995,1460.3 293.245,1460.3 
  "/>
<path clip-path="url(#clip832)" d="
M359.995 1442.99 L359.995 1464 L426.746 1464 L426.746 1442.99 L359.995 1442.99 L359.995 1442.99  Z
  " fill="#009af9" fill-rule="evenodd" fill-opacity="1"/>
<polyline clip-path="url(#clip832)" style="stroke:#009af9; stroke-linecap:butt; stroke-linejoin:round; stroke-width:4; stroke-opacity:1; fill:none" points="
  359.995,1442.99 359.995,1464 426.746,1464 426.746,1442.99 359.995,1442.99 
  "/>
<path clip-path="url(#clip832)" d="
M426.746 1393.34 L426.746 1464 L493.496 1464 L493.496 1393.34 L426.746 1393.34 L426.746 1393.34  Z
  " fill="#009af9" fill-rule="evenodd" fill-opacity="1"/>
<polyline clip-path="url(#clip832)" style="stroke:#009af9; stroke-linecap:butt; stroke-linejoin:round; stroke-width:4; stroke-opacity:1; fill:none" points="
  426.746,1393.34 426.746,1464 493.496,1464 493.496,1393.34 426.746,1393.34 
  "/>
<path clip-path="url(#clip832)" d="
M493.496 1291.28 L493.496 1464 L560.246 1464 L560.246 1291.28 L493.496 1291.28 L493.496 1291.28  Z
  " fill="#009af9" fill-rule="evenodd" fill-opacity="1"/>
<polyline clip-path="url(#clip832)" style="stroke:#009af9; stroke-linecap:butt; stroke-linejoin:round; stroke-width:4; stroke-opacity:1; fill:none" points="
  493.496,1291.28 493.496,1464 560.246,1464 560.246,1291.28 493.496,1291.28 
  "/>
<path clip-path="url(#clip832)" d="
M560.246 1125.97 L560.246 1464 L626.996 1464 L626.996 1125.97 L560.246 1125.97 L560.246 1125.97  Z
  " fill="#009af9" fill-rule="evenodd" fill-opacity="1"/>
<polyline clip-path="url(#clip832)" style="stroke:#009af9; stroke-linecap:butt; stroke-linejoin:round; stroke-width:4; stroke-opacity:1; fill:none" points="
  560.246,1125.97 560.246,1464 626.996,1464 626.996,1125.97 560.246,1125.97 
  "/>
<path clip-path="url(#clip832)" d="
M626.996 880.929 L626.996 1464 L693.746 1464 L693.746 880.929 L626.996 880.929 L626.996 880.929  Z
  " fill="#009af9" fill-rule="evenodd" fill-opacity="1"/>
<polyline clip-path="url(#clip832)" style="stroke:#009af9; stroke-linecap:butt; stroke-linejoin:round; stroke-width:4; stroke-opacity:1; fill:none" points="
  626.996,880.929 626.996,1464 693.746,1464 693.746,880.929 626.996,880.929 
  "/>
<path clip-path="url(#clip832)" d="
M693.746 622.638 L693.746 1464 L760.497 1464 L760.497 622.638 L693.746 622.638 L693.746 622.638  Z
  " fill="#009af9" fill-rule="evenodd" fill-opacity="1"/>
<polyline clip-path="url(#clip832)" style="stroke:#009af9; stroke-linecap:butt; stroke-linejoin:round; stroke-width:4; stroke-opacity:1; fill:none" points="
  693.746,622.638 693.746,1464 760.497,1464 760.497,622.638 693.746,622.638 
  "/>
<path clip-path="url(#clip832)" d="
M760.497 368.285 L760.497 1464 L827.247 1464 L827.247 368.285 L760.497 368.285 L760.497 368.285  Z
  " fill="#009af9" fill-rule="evenodd" fill-opacity="1"/>
<polyline clip-path="url(#clip832)" style="stroke:#009af9; stroke-linecap:butt; stroke-linejoin:round; stroke-width:4; stroke-opacity:1; fill:none" points="
  760.497,368.285 760.497,1464 827.247,1464 827.247,368.285 760.497,368.285 
  "/>
<path clip-path="url(#clip832)" d="
M827.247 173.731 L827.247 1464 L893.997 1464 L893.997 173.731 L827.247 173.731 L827.247 173.731  Z
  " fill="#009af9" fill-rule="evenodd" fill-opacity="1"/>
<polyline clip-path="url(#clip832)" style="stroke:#009af9; stroke-linecap:butt; stroke-linejoin:round; stroke-width:4; stroke-opacity:1; fill:none" points="
  827.247,173.731 827.247,1464 893.997,1464 893.997,173.731 827.247,173.731 
  "/>
<path clip-path="url(#clip832)" d="
M893.997 88.5087 L893.997 1464 L960.747 1464 L960.747 88.5087 L893.997 88.5087 L893.997 88.5087  Z
  " fill="#009af9" fill-rule="evenodd" fill-opacity="1"/>
<polyline clip-path="url(#clip832)" style="stroke:#009af9; stroke-linecap:butt; stroke-linejoin:round; stroke-width:4; stroke-opacity:1; fill:none" points="
  893.997,88.5087 893.997,1464 960.747,1464 960.747,88.5087 893.997,88.5087 
  "/>
<path clip-path="url(#clip832)" d="
M960.747 140.43 L960.747 1464 L1027.5 1464 L1027.5 140.43 L960.747 140.43 L960.747 140.43  Z
  " fill="#009af9" fill-rule="evenodd" fill-opacity="1"/>
<polyline clip-path="url(#clip832)" style="stroke:#009af9; stroke-linecap:butt; stroke-linejoin:round; stroke-width:4; stroke-opacity:1; fill:none" points="
  960.747,140.43 960.747,1464 1027.5,1464 1027.5,140.43 960.747,140.43 
  "/>
<path clip-path="url(#clip832)" d="
M1027.5 257.64 L1027.5 1464 L1094.25 1464 L1094.25 257.64 L1027.5 257.64 L1027.5 257.64  Z
  " fill="#009af9" fill-rule="evenodd" fill-opacity="1"/>
<polyline clip-path="url(#clip832)" style="stroke:#009af9; stroke-linecap:butt; stroke-linejoin:round; stroke-width:4; stroke-opacity:1; fill:none" points="
  1027.5,257.64 1027.5,1464 1094.25,1464 1094.25,257.64 1027.5,257.64 
  "/>
<path clip-path="url(#clip832)" d="
M1094.25 441.332 L1094.25 1464 L1161 1464 L1161 441.332 L1094.25 441.332 L1094.25 441.332  Z
  " fill="#009af9" fill-rule="evenodd" fill-opacity="1"/>
<polyline clip-path="url(#clip832)" style="stroke:#009af9; stroke-linecap:butt; stroke-linejoin:round; stroke-width:4; stroke-opacity:1; fill:none" points="
  1094.25,441.332 1094.25,1464 1161,1464 1161,441.332 1094.25,441.332 
  "/>
<path clip-path="url(#clip832)" d="
M1161 668.949 L1161 1464 L1227.75 1464 L1227.75 668.949 L1161 668.949 L1161 668.949  Z
  " fill="#009af9" fill-rule="evenodd" fill-opacity="1"/>
<polyline clip-path="url(#clip832)" style="stroke:#009af9; stroke-linecap:butt; stroke-linejoin:round; stroke-width:4; stroke-opacity:1; fill:none" points="
  1161,668.949 1161,1464 1227.75,1464 1227.75,668.949 1161,668.949 
  "/>
<path clip-path="url(#clip832)" d="
M1227.75 868.277 L1227.75 1464 L1294.5 1464 L1294.5 868.277 L1227.75 868.277 L1227.75 868.277  Z
  " fill="#009af9" fill-rule="evenodd" fill-opacity="1"/>
<polyline clip-path="url(#clip832)" style="stroke:#009af9; stroke-linecap:butt; stroke-linejoin:round; stroke-width:4; stroke-opacity:1; fill:none" points="
  1227.75,868.277 1227.75,1464 1294.5,1464 1294.5,868.277 1227.75,868.277 
  "/>
<path clip-path="url(#clip832)" d="
M1294.5 1018.55 L1294.5 1464 L1361.25 1464 L1361.25 1018.55 L1294.5 1018.55 L1294.5 1018.55  Z
  " fill="#009af9" fill-rule="evenodd" fill-opacity="1"/>
<polyline clip-path="url(#clip832)" style="stroke:#009af9; stroke-linecap:butt; stroke-linejoin:round; stroke-width:4; stroke-opacity:1; fill:none" points="
  1294.5,1018.55 1294.5,1464 1361.25,1464 1361.25,1018.55 1294.5,1018.55 
  "/>
<path clip-path="url(#clip832)" d="
M1361.25 1167.27 L1361.25 1464 L1428 1464 L1428 1167.27 L1361.25 1167.27 L1361.25 1167.27  Z
  " fill="#009af9" fill-rule="evenodd" fill-opacity="1"/>
<polyline clip-path="url(#clip832)" style="stroke:#009af9; stroke-linecap:butt; stroke-linejoin:round; stroke-width:4; stroke-opacity:1; fill:none" points="
  1361.25,1167.27 1361.25,1464 1428,1464 1428,1167.27 1361.25,1167.27 
  "/>
<path clip-path="url(#clip832)" d="
M1428 1276.36 L1428 1464 L1494.75 1464 L1494.75 1276.36 L1428 1276.36 L1428 1276.36  Z
  " fill="#009af9" fill-rule="evenodd" fill-opacity="1"/>
<polyline clip-path="url(#clip832)" style="stroke:#009af9; stroke-linecap:butt; stroke-linejoin:round; stroke-width:4; stroke-opacity:1; fill:none" points="
  1428,1276.36 1428,1464 1494.75,1464 1494.75,1276.36 1428,1276.36 
  "/>
<path clip-path="url(#clip832)" d="
M1494.75 1346.19 L1494.75 1464 L1561.5 1464 L1561.5 1346.19 L1494.75 1346.19 L1494.75 1346.19  Z
  " fill="#009af9" fill-rule="evenodd" fill-opacity="1"/>
<polyline clip-path="url(#clip832)" style="stroke:#009af9; stroke-linecap:butt; stroke-linejoin:round; stroke-width:4; stroke-opacity:1; fill:none" points="
  1494.75,1346.19 1494.75,1464 1561.5,1464 1561.5,1346.19 1494.75,1346.19 
  "/>
<path clip-path="url(#clip832)" d="
M1561.5 1399.18 L1561.5 1464 L1628.25 1464 L1628.25 1399.18 L1561.5 1399.18 L1561.5 1399.18  Z
  " fill="#009af9" fill-rule="evenodd" fill-opacity="1"/>
<polyline clip-path="url(#clip832)" style="stroke:#009af9; stroke-linecap:butt; stroke-linejoin:round; stroke-width:4; stroke-opacity:1; fill:none" points="
  1561.5,1399.18 1561.5,1464 1628.25,1464 1628.25,1399.18 1561.5,1399.18 
  "/>
<path clip-path="url(#clip832)" d="
M1628.25 1427.95 L1628.25 1464 L1695 1464 L1695 1427.95 L1628.25 1427.95 L1628.25 1427.95  Z
  " fill="#009af9" fill-rule="evenodd" fill-opacity="1"/>
<polyline clip-path="url(#clip832)" style="stroke:#009af9; stroke-linecap:butt; stroke-linejoin:round; stroke-width:4; stroke-opacity:1; fill:none" points="
  1628.25,1427.95 1628.25,1464 1695,1464 1695,1427.95 1628.25,1427.95 
  "/>
<path clip-path="url(#clip832)" d="
M1695 1444.9 L1695 1464 L1761.75 1464 L1761.75 1444.9 L1695 1444.9 L1695 1444.9  Z
  " fill="#009af9" fill-rule="evenodd" fill-opacity="1"/>
<polyline clip-path="url(#clip832)" style="stroke:#009af9; stroke-linecap:butt; stroke-linejoin:round; stroke-width:4; stroke-opacity:1; fill:none" points="
  1695,1444.9 1695,1464 1761.75,1464 1761.75,1444.9 1695,1444.9 
  "/>
<path clip-path="url(#clip832)" d="
M1761.75 1453.49 L1761.75 1464 L1828.5 1464 L1828.5 1453.49 L1761.75 1453.49 L1761.75 1453.49  Z
  " fill="#009af9" fill-rule="evenodd" fill-opacity="1"/>
<polyline clip-path="url(#clip832)" style="stroke:#009af9; stroke-linecap:butt; stroke-linejoin:round; stroke-width:4; stroke-opacity:1; fill:none" points="
  1761.75,1453.49 1761.75,1464 1828.5,1464 1828.5,1453.49 1761.75,1453.49 
  "/>
<path clip-path="url(#clip832)" d="
M1828.5 1458.03 L1828.5 1464 L1895.25 1464 L1895.25 1458.03 L1828.5 1458.03 L1828.5 1458.03  Z
  " fill="#009af9" fill-rule="evenodd" fill-opacity="1"/>
<polyline clip-path="url(#clip832)" style="stroke:#009af9; stroke-linecap:butt; stroke-linejoin:round; stroke-width:4; stroke-opacity:1; fill:none" points="
  1828.5,1458.03 1828.5,1464 1895.25,1464 1895.25,1458.03 1828.5,1458.03 
  "/>
<path clip-path="url(#clip832)" d="
M1895.25 1462.09 L1895.25 1464 L1962 1464 L1962 1462.09 L1895.25 1462.09 L1895.25 1462.09  Z
  " fill="#009af9" fill-rule="evenodd" fill-opacity="1"/>
<polyline clip-path="url(#clip832)" style="stroke:#009af9; stroke-linecap:butt; stroke-linejoin:round; stroke-width:4; stroke-opacity:1; fill:none" points="
  1895.25,1462.09 1895.25,1464 1962,1464 1962,1462.09 1895.25,1462.09 
  "/>
<path clip-path="url(#clip832)" d="
M1962 1462.8 L1962 1464 L2028.75 1464 L2028.75 1462.8 L1962 1462.8 L1962 1462.8  Z
  " fill="#009af9" fill-rule="evenodd" fill-opacity="1"/>
<polyline clip-path="url(#clip832)" style="stroke:#009af9; stroke-linecap:butt; stroke-linejoin:round; stroke-width:4; stroke-opacity:1; fill:none" points="
  1962,1462.8 1962,1464 2028.75,1464 2028.75,1462.8 1962,1462.8 
  "/>
<path clip-path="url(#clip832)" d="
M2028.75 1463.52 L2028.75 1464 L2095.5 1464 L2095.5 1463.52 L2028.75 1463.52 L2028.75 1463.52  Z
  " fill="#009af9" fill-rule="evenodd" fill-opacity="1"/>
<polyline clip-path="url(#clip832)" style="stroke:#009af9; stroke-linecap:butt; stroke-linejoin:round; stroke-width:4; stroke-opacity:1; fill:none" points="
  2028.75,1463.52 2028.75,1464 2095.5,1464 2095.5,1463.52 2028.75,1463.52 
  "/>
<path clip-path="url(#clip832)" d="
M2095.5 1463.64 L2095.5 1464 L2162.25 1464 L2162.25 1463.64 L2095.5 1463.64 L2095.5 1463.64  Z
  " fill="#009af9" fill-rule="evenodd" fill-opacity="1"/>
<polyline clip-path="url(#clip832)" style="stroke:#009af9; stroke-linecap:butt; stroke-linejoin:round; stroke-width:4; stroke-opacity:1; fill:none" points="
  2095.5,1463.64 2095.5,1464 2162.25,1464 2162.25,1463.64 2095.5,1463.64 
  "/>
<path clip-path="url(#clip832)" d="
M2162.25 1463.88 L2162.25 1464 L2229 1464 L2229 1463.88 L2162.25 1463.88 L2162.25 1463.88  Z
  " fill="#009af9" fill-rule="evenodd" fill-opacity="1"/>
<polyline clip-path="url(#clip832)" style="stroke:#009af9; stroke-linecap:butt; stroke-linejoin:round; stroke-width:4; stroke-opacity:1; fill:none" points="
  2162.25,1463.88 2162.25,1464 2229,1464 2229,1463.88 2162.25,1463.88 
  "/>
<polyline clip-path="url(#clip832)" style="stroke:#e26f46; stroke-linecap:butt; stroke-linejoin:round; stroke-width:12; stroke-opacity:1; fill:none" points="
  226.495,1452.56 233.17,1451.51 239.845,1450.37 246.52,1449.14 253.195,1447.81 259.87,1446.38 266.545,1444.84 273.22,1443.18 279.895,1441.39 286.57,1439.47 
  293.245,1437.4 299.92,1435.19 306.595,1432.82 313.27,1430.28 319.945,1427.57 326.62,1424.67 333.295,1421.57 339.97,1418.26 346.645,1414.74 353.32,1410.99 
  359.995,1407.01 366.67,1402.77 373.345,1398.27 380.02,1393.5 386.696,1388.44 393.371,1383.09 400.046,1377.43 406.721,1371.45 413.396,1365.14 420.071,1358.48 
  426.746,1351.47 433.421,1344.09 440.096,1336.33 446.771,1328.18 453.446,1319.63 460.121,1310.66 466.796,1301.27 473.471,1291.45 480.146,1281.19 486.821,1270.47 
  493.496,1259.29 500.171,1247.65 506.846,1235.53 513.521,1222.93 520.196,1209.84 526.871,1196.26 533.546,1182.19 540.221,1167.62 546.896,1152.55 553.571,1136.98 
  560.246,1120.92 566.921,1104.36 573.596,1087.32 580.271,1069.79 586.946,1051.78 593.621,1033.3 600.296,1014.36 606.971,994.973 613.646,975.151 620.321,954.909 
  626.996,934.263 633.671,913.231 640.346,891.834 647.021,870.092 653.696,848.029 660.371,825.67 667.046,803.042 673.721,780.172 680.396,757.09 687.071,733.828 
  693.746,710.418 700.421,686.896 707.096,663.295 713.771,639.654 720.447,616.01 727.122,592.402 733.797,568.871 740.472,545.459 747.147,522.206 753.822,499.155 
  760.497,476.351 767.172,453.836 773.847,431.654 780.522,409.849 787.197,388.466 793.872,367.548 800.547,347.139 807.222,327.282 813.897,308.02 820.572,289.395 
  827.247,271.447 833.922,254.218 840.597,237.745 847.272,222.066 853.947,207.218 860.622,193.233 867.297,180.146 873.972,167.987 880.647,156.785 887.322,146.566 
  893.997,137.355 900.672,129.175 907.347,122.044 914.022,115.98 920.697,110.999 927.372,107.112 934.047,104.329 940.722,102.656 947.397,102.098 954.072,102.656 
  960.747,104.329 967.422,107.112 974.097,110.999 980.772,115.98 987.447,122.044 994.122,129.175 1000.8,137.355 1007.47,146.566 1014.15,156.785 1020.82,167.987 
  1027.5,180.146 1034.17,193.233 1040.85,207.218 1047.52,222.066 1054.2,237.745 1060.87,254.218 1067.55,271.447 1074.22,289.395 1080.9,308.02 1087.57,327.282 
  1094.25,347.139 1100.92,367.548 1107.6,388.466 1114.27,409.849 1120.95,431.654 1127.62,453.836 1134.3,476.351 1140.97,499.155 1147.65,522.206 1154.32,545.459 
  1161,568.871 1167.67,592.402 1174.35,616.01 1181.02,639.654 1187.7,663.295 1194.37,686.896 1201.05,710.418 1207.72,733.828 1214.4,757.09 1221.07,780.172 
  1227.75,803.042 1234.42,825.67 1241.1,848.029 1247.77,870.092 1254.45,891.834 1261.12,913.231 1267.8,934.263 1274.47,954.909 1281.15,975.151 1287.82,994.973 
  1294.5,1014.36 1301.17,1033.3 1307.85,1051.78 1314.52,1069.79 1321.2,1087.32 1327.87,1104.36 1334.55,1120.92 1341.22,1136.98 1347.9,1152.55 1354.57,1167.62 
  1361.25,1182.19 1367.92,1196.26 1374.6,1209.84 1381.27,1222.93 1387.95,1235.53 1394.62,1247.65 1401.3,1259.29 1407.97,1270.47 1414.65,1281.19 1421.32,1291.45 
  1428,1301.27 1434.67,1310.66 1441.35,1319.63 1448.02,1328.18 1454.7,1336.33 1461.37,1344.09 1468.05,1351.47 1474.72,1358.48 1481.4,1365.14 1488.07,1371.45 
  1494.75,1377.43 1501.42,1383.09 1508.1,1388.44 1514.77,1393.5 1521.45,1398.27 1528.12,1402.77 1534.8,1407.01 1541.47,1410.99 1548.15,1414.74 1554.82,1418.26 
  1561.5,1421.57 1568.17,1424.67 1574.85,1427.57 1581.52,1430.28 1588.2,1432.82 1594.87,1435.19 1601.55,1437.4 1608.22,1439.47 1614.9,1441.39 1621.57,1443.18 
  1628.25,1444.84 1634.92,1446.38 1641.6,1447.81 1648.27,1449.14 1654.95,1450.37 1661.62,1451.51 1668.3,1452.56 1674.97,1453.54 1681.65,1454.43 1688.32,1455.26 
  1695,1456.03 1701.67,1456.73 1708.35,1457.37 1715.02,1457.97 1721.7,1458.51 1728.37,1459.01 1735.05,1459.47 1741.72,1459.89 1748.4,1460.27 1755.07,1460.62 
  1761.75,1460.94 1768.42,1461.23 1775.1,1461.5 1781.77,1461.74 1788.45,1461.96 1795.12,1462.16 1801.8,1462.34 1808.47,1462.51 1815.15,1462.66 1821.82,1462.79 
  1828.5,1462.92 1835.17,1463.03 1841.85,1463.13 1848.52,1463.22 1855.2,1463.3 1861.87,1463.37 1868.55,1463.44 1875.22,1463.5 1881.9,1463.55 1888.58,1463.6 
  1895.25,1463.64 1901.93,1463.68 1908.6,1463.72 1915.28,1463.75 1921.95,1463.78 1928.63,1463.8 1935.3,1463.82 1941.98,1463.84 1948.65,1463.86 1955.33,1463.88 
  1962,1463.89 1968.68,1463.9 1975.35,1463.91 1982.03,1463.92 1988.7,1463.93 1995.38,1463.94 2002.05,1463.95 2008.73,1463.95 2015.4,1463.96 2022.08,1463.96 
  2028.75,1463.97 2035.43,1463.97 2042.1,1463.97 2048.78,1463.98 2055.45,1463.98 2062.13,1463.98 2068.8,1463.98 2075.48,1463.98 2082.15,1463.99 2088.83,1463.99 
  2095.5,1463.99 2102.18,1463.99 2108.85,1463.99 2115.53,1463.99 2122.2,1463.99 2128.88,1463.99 2135.55,1463.99 2142.23,1463.99 2148.9,1463.99 2155.58,1463.99 
  2162.25,1463.99 
  "/>
<polyline clip-path="url(#clip832)" style="stroke:#3da44d; stroke-linecap:butt; stroke-linejoin:round; stroke-width:12; stroke-opacity:1; fill:none" points="
  226.495,1463.53 233.17,1463.38 239.845,1463.2 246.52,1462.98 253.195,1462.71 259.87,1462.38 266.545,1461.99 273.22,1461.52 279.895,1460.97 286.57,1460.32 
  293.245,1459.56 299.92,1458.68 306.595,1457.67 313.27,1456.5 319.945,1455.16 326.62,1453.64 333.295,1451.91 339.97,1449.96 346.645,1447.77 353.32,1445.3 
  359.995,1442.56 366.67,1439.5 373.345,1436.1 380.02,1432.35 386.696,1428.22 393.371,1423.68 400.046,1418.72 406.721,1413.29 413.396,1407.38 420.071,1400.97 
  426.746,1394.03 433.421,1386.54 440.096,1378.46 446.771,1369.8 453.446,1360.51 460.121,1350.58 466.796,1339.99 473.471,1328.73 480.146,1316.78 486.821,1304.12 
  493.496,1290.75 500.171,1276.65 506.846,1261.82 513.521,1246.25 520.196,1229.95 526.871,1212.91 533.546,1195.13 540.221,1176.62 546.896,1157.39 553.571,1137.45 
  560.246,1116.82 566.921,1095.51 573.596,1073.54 580.271,1050.94 586.946,1027.73 593.621,1003.95 600.296,979.622 606.971,954.782 613.646,929.469 620.321,903.723 
  626.996,877.586 633.671,851.102 640.346,824.318 647.021,797.282 653.696,770.045 660.371,742.659 667.046,715.178 673.721,687.654 680.396,660.145 687.071,632.705 
  693.746,605.393 700.421,578.264 707.096,551.377 713.771,524.788 720.447,498.553 727.122,472.73 733.797,447.374 740.472,422.538 747.147,398.277 753.822,374.641 
  760.497,351.683 767.172,329.449 773.847,307.988 780.522,287.342 787.197,267.556 793.872,248.668 800.547,230.716 807.222,213.736 813.897,197.759 820.572,182.816 
  827.247,168.931 833.922,156.13 840.597,144.433 847.272,133.857 853.947,124.417 860.622,116.125 867.297,108.989 873.972,103.015 880.647,98.206 887.322,94.5609 
  893.997,92.0767 900.672,90.7474 907.347,90.5643 914.022,91.5158 920.697,93.588 927.372,96.7643 934.047,101.026 940.722,106.352 947.397,112.718 954.072,120.1 
  960.747,128.47 967.422,137.8 974.097,148.059 980.772,159.214 987.447,171.233 994.122,184.08 1000.8,197.72 1007.47,212.117 1014.15,227.233 1020.82,243.03 
  1027.5,259.469 1034.17,276.511 1040.85,294.117 1047.52,312.247 1054.2,330.862 1060.87,349.923 1067.55,369.391 1074.22,389.226 1080.9,409.389 1087.57,429.844 
  1094.25,450.552 1100.92,471.477 1107.6,492.583 1114.27,513.835 1120.95,535.198 1127.62,556.639 1134.3,578.126 1140.97,599.627 1147.65,621.112 1154.32,642.553 
  1161,663.921 1167.67,685.19 1174.35,706.334 1181.02,727.33 1187.7,748.153 1194.37,768.783 1201.05,789.199 1207.72,809.381 1214.4,829.312 1221.07,848.976 
  1227.75,868.355 1234.42,887.438 1241.1,906.209 1247.77,924.658 1254.45,942.773 1261.12,960.545 1267.8,977.966 1274.47,995.027 1281.15,1011.72 1287.82,1028.05 
  1294.5,1044 1301.17,1059.57 1307.85,1074.75 1314.52,1089.56 1321.2,1103.97 1327.87,1118.01 1334.55,1131.66 1341.22,1144.92 1347.9,1157.8 1354.57,1170.3 
  1361.25,1182.43 1367.92,1194.18 1374.6,1205.56 1381.27,1216.58 1387.95,1227.24 1394.62,1237.54 1401.3,1247.49 1407.97,1257.1 1414.65,1266.37 1421.32,1275.31 
  1428,1283.93 1434.67,1292.22 1441.35,1300.21 1448.02,1307.9 1454.7,1315.28 1461.37,1322.38 1468.05,1329.2 1474.72,1335.74 1481.4,1342.02 1488.07,1348.04 
  1494.75,1353.81 1501.42,1359.33 1508.1,1364.62 1514.77,1369.68 1521.45,1374.52 1528.12,1379.15 1534.8,1383.56 1541.47,1387.78 1548.15,1391.81 1554.82,1395.65 
  1561.5,1399.31 1568.17,1402.8 1574.85,1406.12 1581.52,1409.29 1588.2,1412.3 1594.87,1415.16 1601.55,1417.89 1608.22,1420.47 1614.9,1422.93 1621.57,1425.26 
  1628.25,1427.48 1634.92,1429.58 1641.6,1431.57 1648.27,1433.46 1654.95,1435.24 1661.62,1436.94 1668.3,1438.54 1674.97,1440.06 1681.65,1441.49 1688.32,1442.84 
  1695,1444.13 1701.67,1445.33 1708.35,1446.48 1715.02,1447.55 1721.7,1448.57 1728.37,1449.53 1735.05,1450.43 1741.72,1451.29 1748.4,1452.09 1755.07,1452.84 
  1761.75,1453.55 1768.42,1454.22 1775.1,1454.85 1781.77,1455.44 1788.45,1456 1795.12,1456.52 1801.8,1457.01 1808.47,1457.47 1815.15,1457.9 1821.82,1458.31 
  1828.5,1458.69 1835.17,1459.04 1841.85,1459.38 1848.52,1459.69 1855.2,1459.98 1861.87,1460.26 1868.55,1460.51 1875.22,1460.75 1881.9,1460.98 1888.58,1461.19 
  1895.25,1461.38 1901.93,1461.56 1908.6,1461.73 1915.28,1461.89 1921.95,1462.04 1928.63,1462.18 1935.3,1462.31 1941.98,1462.43 1948.65,1462.54 1955.33,1462.65 
  1962,1462.75 1968.68,1462.84 1975.35,1462.92 1982.03,1463 1988.7,1463.07 1995.38,1463.14 2002.05,1463.2 2008.73,1463.26 2015.4,1463.32 2022.08,1463.37 
  2028.75,1463.41 2035.43,1463.46 2042.1,1463.5 2048.78,1463.54 2055.45,1463.57 2062.13,1463.6 2068.8,1463.63 2075.48,1463.66 2082.15,1463.69 2088.83,1463.71 
  2095.5,1463.73 2102.18,1463.75 2108.85,1463.77 2115.53,1463.79 2122.2,1463.81 2128.88,1463.82 2135.55,1463.83 2142.23,1463.85 2148.9,1463.86 2155.58,1463.87 
  2162.25,1463.88 
  "/>
<path clip-path="url(#clip830)" d="
M1543.38 337.765 L2277.76 337.765 L2277.76 95.8446 L1543.38 95.8446  Z
  " fill="#ffffff" fill-rule="evenodd" fill-opacity="1"/>
<polyline clip-path="url(#clip830)" style="stroke:#000000; stroke-linecap:butt; stroke-linejoin:round; stroke-width:4; stroke-opacity:1; fill:none" points="
  1543.38,337.765 2277.76,337.765 2277.76,95.8446 1543.38,95.8446 1543.38,337.765 
  "/>
<path clip-path="url(#clip830)" d="
M1568.38 180.517 L1718.38 180.517 L1718.38 132.133 L1568.38 132.133 L1568.38 180.517  Z
  " fill="#009af9" fill-rule="evenodd" fill-opacity="1"/>
<polyline clip-path="url(#clip830)" style="stroke:#009af9; stroke-linecap:butt; stroke-linejoin:round; stroke-width:4; stroke-opacity:1; fill:none" points="
  1568.38,180.517 1718.38,180.517 1718.38,132.133 1568.38,132.133 1568.38,180.517 
  "/>
<path clip-path="url(#clip830)" d="M1765.63 140.179 L1765.63 144.739 Q1762.97 143.466 1760.6 142.841 Q1758.24 142.216 1756.04 142.216 Q1752.23 142.216 1750.14 143.697 Q1748.08 145.179 1748.08 147.91 Q1748.08 150.202 1749.45 151.383 Q1750.84 152.54 1754.68 153.258 L1757.5 153.836 Q1762.73 154.832 1765.21 157.355 Q1767.71 159.855 1767.71 164.068 Q1767.71 169.091 1764.33 171.683 Q1760.98 174.276 1754.47 174.276 Q1752.02 174.276 1749.24 173.72 Q1746.48 173.165 1743.52 172.077 L1743.52 167.262 Q1746.37 168.859 1749.1 169.669 Q1751.83 170.48 1754.47 170.48 Q1758.48 170.48 1760.65 168.906 Q1762.83 167.332 1762.83 164.415 Q1762.83 161.869 1761.25 160.433 Q1759.7 158.998 1756.14 158.281 L1753.29 157.725 Q1748.06 156.683 1745.72 154.461 Q1743.38 152.239 1743.38 148.281 Q1743.38 143.697 1746.6 141.058 Q1749.84 138.42 1755.51 138.42 Q1757.94 138.42 1760.47 138.859 Q1762.99 139.299 1765.63 140.179 Z" fill="#000000" fill-rule="evenodd" fill-opacity="1" /><path clip-path="url(#clip830)" d="M1795.72 140.179 L1795.72 144.739 Q1793.06 143.466 1790.7 142.841 Q1788.34 142.216 1786.14 142.216 Q1782.32 142.216 1780.23 143.697 Q1778.17 145.179 1778.17 147.91 Q1778.17 150.202 1779.54 151.383 Q1780.93 152.54 1784.77 153.258 L1787.6 153.836 Q1792.83 154.832 1795.3 157.355 Q1797.8 159.855 1797.8 164.068 Q1797.8 169.091 1794.42 171.683 Q1791.07 174.276 1784.56 174.276 Q1782.11 174.276 1779.33 173.72 Q1776.58 173.165 1773.61 172.077 L1773.61 167.262 Q1776.46 168.859 1779.19 169.669 Q1781.92 170.48 1784.56 170.48 Q1788.57 170.48 1790.74 168.906 Q1792.92 167.332 1792.92 164.415 Q1792.92 161.869 1791.35 160.433 Q1789.79 158.998 1786.23 158.281 L1783.38 157.725 Q1778.15 156.683 1775.81 154.461 Q1773.48 152.239 1773.48 148.281 Q1773.48 143.697 1776.69 141.058 Q1779.93 138.42 1785.6 138.42 Q1788.04 138.42 1790.56 138.859 Q1793.08 139.299 1795.72 140.179 Z" fill="#000000" fill-rule="evenodd" fill-opacity="1" /><path clip-path="url(#clip830)" d="M1817.53 143.651 L1811.18 160.85 L1823.89 160.85 L1817.53 143.651 M1814.89 139.045 L1820.19 139.045 L1833.36 173.605 L1828.5 173.605 L1825.35 164.739 L1809.77 164.739 L1806.62 173.605 L1801.69 173.605 L1814.89 139.045 Z" fill="#000000" fill-rule="evenodd" fill-opacity="1" /><polyline clip-path="url(#clip830)" style="stroke:#e26f46; stroke-linecap:butt; stroke-linejoin:round; stroke-width:4; stroke-opacity:1; fill:none" points="
  1568.38,216.805 1718.38,216.805 
  "/>
<path clip-path="url(#clip830)" d="M1762.29 220.821 Q1762.29 216.191 1760.37 213.645 Q1758.48 211.099 1755.03 211.099 Q1751.6 211.099 1749.68 213.645 Q1747.78 216.191 1747.78 220.821 Q1747.78 225.427 1749.68 227.974 Q1751.6 230.52 1755.03 230.52 Q1758.48 230.52 1760.37 227.974 Q1762.29 225.427 1762.29 220.821 M1766.55 230.867 Q1766.55 237.487 1763.61 240.705 Q1760.67 243.946 1754.61 243.946 Q1752.36 243.946 1750.37 243.598 Q1748.38 243.274 1746.51 242.58 L1746.51 238.436 Q1748.38 239.455 1750.21 239.941 Q1752.04 240.427 1753.94 240.427 Q1758.13 240.427 1760.21 238.228 Q1762.29 236.052 1762.29 231.631 L1762.29 229.524 Q1760.98 231.816 1758.91 232.95 Q1756.85 234.085 1753.98 234.085 Q1749.22 234.085 1746.3 230.45 Q1743.38 226.816 1743.38 220.821 Q1743.38 214.802 1746.3 211.168 Q1749.22 207.534 1753.98 207.534 Q1756.85 207.534 1758.91 208.668 Q1760.98 209.802 1762.29 212.094 L1762.29 208.159 L1766.55 208.159 L1766.55 230.867 Z" fill="#000000" fill-rule="evenodd" fill-opacity="1" /><path clip-path="url(#clip830)" d="M1787.11 221.052 Q1781.95 221.052 1779.96 222.233 Q1777.97 223.413 1777.97 226.261 Q1777.97 228.529 1779.45 229.872 Q1780.95 231.191 1783.52 231.191 Q1787.06 231.191 1789.19 228.691 Q1791.35 226.168 1791.35 222.001 L1791.35 221.052 L1787.11 221.052 M1795.6 219.293 L1795.6 234.085 L1791.35 234.085 L1791.35 230.149 Q1789.89 232.511 1787.71 233.645 Q1785.54 234.756 1782.39 234.756 Q1778.41 234.756 1776.04 232.534 Q1773.71 230.288 1773.71 226.538 Q1773.71 222.163 1776.62 219.941 Q1779.56 217.719 1785.37 217.719 L1791.35 217.719 L1791.35 217.302 Q1791.35 214.363 1789.4 212.765 Q1787.48 211.145 1783.98 211.145 Q1781.76 211.145 1779.66 211.677 Q1777.55 212.21 1775.6 213.275 L1775.6 209.339 Q1777.94 208.437 1780.14 207.997 Q1782.34 207.534 1784.42 207.534 Q1790.05 207.534 1792.83 210.45 Q1795.6 213.367 1795.6 219.293 Z" fill="#000000" fill-rule="evenodd" fill-opacity="1" /><path clip-path="url(#clip830)" d="M1803.94 223.853 L1803.94 208.159 L1808.2 208.159 L1808.2 223.691 Q1808.2 227.372 1809.63 229.224 Q1811.07 231.052 1813.94 231.052 Q1817.39 231.052 1819.38 228.853 Q1821.39 226.654 1821.39 222.858 L1821.39 208.159 L1825.65 208.159 L1825.65 234.085 L1821.39 234.085 L1821.39 230.103 Q1819.84 232.464 1817.78 233.622 Q1815.74 234.756 1813.04 234.756 Q1808.57 234.756 1806.25 231.978 Q1803.94 229.2 1803.94 223.853 M1814.66 207.534 L1814.66 207.534 Z" fill="#000000" fill-rule="evenodd" fill-opacity="1" /><path clip-path="url(#clip830)" d="M1850.95 208.923 L1850.95 212.95 Q1849.15 212.025 1847.2 211.562 Q1845.26 211.099 1843.17 211.099 Q1840 211.099 1838.41 212.071 Q1836.83 213.043 1836.83 214.987 Q1836.83 216.469 1837.97 217.325 Q1839.1 218.159 1842.53 218.923 L1843.98 219.247 Q1848.52 220.219 1850.42 222.001 Q1852.34 223.761 1852.34 226.932 Q1852.34 230.543 1849.47 232.649 Q1846.62 234.756 1841.62 234.756 Q1839.54 234.756 1837.27 234.339 Q1835.03 233.946 1832.53 233.136 L1832.53 228.737 Q1834.89 229.964 1837.18 230.589 Q1839.47 231.191 1841.72 231.191 Q1844.72 231.191 1846.35 230.173 Q1847.97 229.131 1847.97 227.256 Q1847.97 225.52 1846.78 224.594 Q1845.63 223.668 1841.67 222.812 L1840.19 222.464 Q1836.23 221.631 1834.47 219.918 Q1832.71 218.182 1832.71 215.173 Q1832.71 211.515 1835.3 209.525 Q1837.9 207.534 1842.66 207.534 Q1845.03 207.534 1847.11 207.881 Q1849.19 208.228 1850.95 208.923 Z" fill="#000000" fill-rule="evenodd" fill-opacity="1" /><path clip-path="url(#clip830)" d="M1875.65 208.923 L1875.65 212.95 Q1873.84 212.025 1871.9 211.562 Q1869.96 211.099 1867.87 211.099 Q1864.7 211.099 1863.1 212.071 Q1861.53 213.043 1861.53 214.987 Q1861.53 216.469 1862.66 217.325 Q1863.8 218.159 1867.22 218.923 L1868.68 219.247 Q1873.22 220.219 1875.12 222.001 Q1877.04 223.761 1877.04 226.932 Q1877.04 230.543 1874.17 232.649 Q1871.32 234.756 1866.32 234.756 Q1864.24 234.756 1861.97 234.339 Q1859.72 233.946 1857.22 233.136 L1857.22 228.737 Q1859.59 229.964 1861.88 230.589 Q1864.17 231.191 1866.41 231.191 Q1869.42 231.191 1871.04 230.173 Q1872.66 229.131 1872.66 227.256 Q1872.66 225.52 1871.48 224.594 Q1870.33 223.668 1866.37 222.812 L1864.89 222.464 Q1860.93 221.631 1859.17 219.918 Q1857.41 218.182 1857.41 215.173 Q1857.41 211.515 1860 209.525 Q1862.59 207.534 1867.36 207.534 Q1869.72 207.534 1871.81 207.881 Q1873.89 208.228 1875.65 208.923 Z" fill="#000000" fill-rule="evenodd" fill-opacity="1" /><path clip-path="url(#clip830)" d="M1883.82 208.159 L1888.08 208.159 L1888.08 234.085 L1883.82 234.085 L1883.82 208.159 M1883.82 198.066 L1888.08 198.066 L1888.08 203.46 L1883.82 203.46 L1883.82 198.066 Z" fill="#000000" fill-rule="evenodd" fill-opacity="1" /><path clip-path="url(#clip830)" d="M1908.78 221.052 Q1903.61 221.052 1901.62 222.233 Q1899.63 223.413 1899.63 226.261 Q1899.63 228.529 1901.11 229.872 Q1902.62 231.191 1905.19 231.191 Q1908.73 231.191 1910.86 228.691 Q1913.01 226.168 1913.01 222.001 L1913.01 221.052 L1908.78 221.052 M1917.27 219.293 L1917.27 234.085 L1913.01 234.085 L1913.01 230.149 Q1911.55 232.511 1909.38 233.645 Q1907.2 234.756 1904.05 234.756 Q1900.07 234.756 1897.71 232.534 Q1895.37 230.288 1895.37 226.538 Q1895.37 222.163 1898.29 219.941 Q1901.23 217.719 1907.04 217.719 L1913.01 217.719 L1913.01 217.302 Q1913.01 214.363 1911.07 212.765 Q1909.15 211.145 1905.65 211.145 Q1903.43 211.145 1901.32 211.677 Q1899.22 212.21 1897.27 213.275 L1897.27 209.339 Q1899.61 208.437 1901.81 207.997 Q1904.01 207.534 1906.09 207.534 Q1911.72 207.534 1914.49 210.45 Q1917.27 213.367 1917.27 219.293 Z" fill="#000000" fill-rule="evenodd" fill-opacity="1" /><path clip-path="url(#clip830)" d="M1947.59 218.437 L1947.59 234.085 L1943.34 234.085 L1943.34 218.575 Q1943.34 214.895 1941.9 213.066 Q1940.46 211.238 1937.59 211.238 Q1934.15 211.238 1932.15 213.437 Q1930.16 215.636 1930.16 219.432 L1930.16 234.085 L1925.88 234.085 L1925.88 208.159 L1930.16 208.159 L1930.16 212.187 Q1931.69 209.849 1933.75 208.691 Q1935.84 207.534 1938.54 207.534 Q1943.01 207.534 1945.3 210.312 Q1947.59 213.066 1947.59 218.437 Z" fill="#000000" fill-rule="evenodd" fill-opacity="1" /><path clip-path="url(#clip830)" d="M1984.28 198.066 L1984.28 201.608 L1980.21 201.608 Q1977.92 201.608 1977.02 202.534 Q1976.14 203.46 1976.14 205.867 L1976.14 208.159 L1983.15 208.159 L1983.15 211.469 L1976.14 211.469 L1976.14 234.085 L1971.85 234.085 L1971.85 211.469 L1967.78 211.469 L1967.78 208.159 L1971.85 208.159 L1971.85 206.353 Q1971.85 202.025 1973.87 200.057 Q1975.88 198.066 1980.26 198.066 L1984.28 198.066 Z" fill="#000000" fill-rule="evenodd" fill-opacity="1" /><path clip-path="url(#clip830)" d="M1987.85 208.159 L1992.11 208.159 L1992.11 234.085 L1987.85 234.085 L1987.85 208.159 M1987.85 198.066 L1992.11 198.066 L1992.11 203.46 L1987.85 203.46 L1987.85 198.066 Z" fill="#000000" fill-rule="evenodd" fill-opacity="1" /><path clip-path="url(#clip830)" d="M2005.23 200.798 L2005.23 208.159 L2014.01 208.159 L2014.01 211.469 L2005.23 211.469 L2005.23 225.543 Q2005.23 228.714 2006.09 229.617 Q2006.97 230.52 2009.63 230.52 L2014.01 230.52 L2014.01 234.085 L2009.63 234.085 Q2004.7 234.085 2002.83 232.256 Q2000.95 230.404 2000.95 225.543 L2000.95 211.469 L1997.83 211.469 L1997.83 208.159 L2000.95 208.159 L2000.95 200.798 L2005.23 200.798 Z" fill="#000000" fill-rule="evenodd" fill-opacity="1" /><polyline clip-path="url(#clip830)" style="stroke:#3da44d; stroke-linecap:butt; stroke-linejoin:round; stroke-width:4; stroke-opacity:1; fill:none" points="
  1568.38,277.285 1718.38,277.285 
  "/>
<path clip-path="url(#clip830)" d="M1765.1 278.917 L1765.1 294.565 L1760.84 294.565 L1760.84 279.055 Q1760.84 275.375 1759.4 273.546 Q1757.97 271.718 1755.1 271.718 Q1751.65 271.718 1749.66 273.917 Q1747.67 276.116 1747.67 279.912 L1747.67 294.565 L1743.38 294.565 L1743.38 268.639 L1747.67 268.639 L1747.67 272.667 Q1749.19 270.329 1751.25 269.171 Q1753.34 268.014 1756.04 268.014 Q1760.51 268.014 1762.8 270.792 Q1765.1 273.546 1765.1 278.917 Z" fill="#000000" fill-rule="evenodd" fill-opacity="1" /><path clip-path="url(#clip830)" d="M1795.77 280.537 L1795.77 282.62 L1776.18 282.62 Q1776.46 287.018 1778.82 289.333 Q1781.21 291.625 1785.44 291.625 Q1787.9 291.625 1790.19 291.023 Q1792.5 290.421 1794.77 289.217 L1794.77 293.245 Q1792.48 294.217 1790.07 294.727 Q1787.66 295.236 1785.19 295.236 Q1778.98 295.236 1775.35 291.625 Q1771.74 288.014 1771.74 281.856 Q1771.74 275.491 1775.16 271.764 Q1778.61 268.014 1784.45 268.014 Q1789.68 268.014 1792.71 271.393 Q1795.77 274.75 1795.77 280.537 M1791.51 279.287 Q1791.46 275.792 1789.54 273.708 Q1787.64 271.625 1784.49 271.625 Q1780.93 271.625 1778.78 273.639 Q1776.65 275.653 1776.32 279.31 L1791.51 279.287 Z" fill="#000000" fill-rule="evenodd" fill-opacity="1" /><path clip-path="url(#clip830)" d="M1819.82 281.301 Q1819.82 276.671 1817.9 274.125 Q1816 271.579 1812.55 271.579 Q1809.12 271.579 1807.2 274.125 Q1805.3 276.671 1805.3 281.301 Q1805.3 285.907 1807.2 288.454 Q1809.12 291 1812.55 291 Q1816 291 1817.9 288.454 Q1819.82 285.907 1819.82 281.301 M1824.08 291.347 Q1824.08 297.967 1821.14 301.185 Q1818.2 304.426 1812.13 304.426 Q1809.89 304.426 1807.9 304.078 Q1805.91 303.754 1804.03 303.06 L1804.03 298.916 Q1805.91 299.935 1807.73 300.421 Q1809.56 300.907 1811.46 300.907 Q1815.65 300.907 1817.73 298.708 Q1819.82 296.532 1819.82 292.111 L1819.82 290.004 Q1818.5 292.296 1816.44 293.43 Q1814.38 294.565 1811.51 294.565 Q1806.74 294.565 1803.82 290.93 Q1800.91 287.296 1800.91 281.301 Q1800.91 275.282 1803.82 271.648 Q1806.74 268.014 1811.51 268.014 Q1814.38 268.014 1816.44 269.148 Q1818.5 270.282 1819.82 272.574 L1819.82 268.639 L1824.08 268.639 L1824.08 291.347 Z" fill="#000000" fill-rule="evenodd" fill-opacity="1" /><path clip-path="url(#clip830)" d="M1844.63 281.532 Q1839.47 281.532 1837.48 282.713 Q1835.49 283.893 1835.49 286.741 Q1835.49 289.009 1836.97 290.352 Q1838.47 291.671 1841.04 291.671 Q1844.59 291.671 1846.72 289.171 Q1848.87 286.648 1848.87 282.481 L1848.87 281.532 L1844.63 281.532 M1853.13 279.773 L1853.13 294.565 L1848.87 294.565 L1848.87 290.629 Q1847.41 292.991 1845.23 294.125 Q1843.06 295.236 1839.91 295.236 Q1835.93 295.236 1833.57 293.014 Q1831.23 290.768 1831.23 287.018 Q1831.23 282.643 1834.15 280.421 Q1837.09 278.199 1842.9 278.199 L1848.87 278.199 L1848.87 277.782 Q1848.87 274.843 1846.92 273.245 Q1845 271.625 1841.51 271.625 Q1839.28 271.625 1837.18 272.157 Q1835.07 272.69 1833.13 273.755 L1833.13 269.819 Q1835.47 268.917 1837.66 268.477 Q1839.86 268.014 1841.95 268.014 Q1847.57 268.014 1850.35 270.93 Q1853.13 273.847 1853.13 279.773 Z" fill="#000000" fill-rule="evenodd" fill-opacity="1" /><path clip-path="url(#clip830)" d="M1866.11 261.278 L1866.11 268.639 L1874.89 268.639 L1874.89 271.949 L1866.11 271.949 L1866.11 286.023 Q1866.11 289.194 1866.97 290.097 Q1867.85 291 1870.51 291 L1874.89 291 L1874.89 294.565 L1870.51 294.565 Q1865.58 294.565 1863.71 292.736 Q1861.83 290.884 1861.83 286.023 L1861.83 271.949 L1858.71 271.949 L1858.71 268.639 L1861.83 268.639 L1861.83 261.278 L1866.11 261.278 Z" fill="#000000" fill-rule="evenodd" fill-opacity="1" /><path clip-path="url(#clip830)" d="M1880.49 268.639 L1884.75 268.639 L1884.75 294.565 L1880.49 294.565 L1880.49 268.639 M1880.49 258.546 L1884.75 258.546 L1884.75 263.94 L1880.49 263.94 L1880.49 258.546 Z" fill="#000000" fill-rule="evenodd" fill-opacity="1" /><path clip-path="url(#clip830)" d="M1890.6 268.639 L1895.12 268.639 L1903.22 290.398 L1911.32 268.639 L1915.84 268.639 L1906.11 294.565 L1900.33 294.565 L1890.6 268.639 Z" fill="#000000" fill-rule="evenodd" fill-opacity="1" /><path clip-path="url(#clip830)" d="M1943.89 280.537 L1943.89 282.62 L1924.31 282.62 Q1924.59 287.018 1926.95 289.333 Q1929.33 291.625 1933.57 291.625 Q1936.02 291.625 1938.31 291.023 Q1940.63 290.421 1942.9 289.217 L1942.9 293.245 Q1940.6 294.217 1938.2 294.727 Q1935.79 295.236 1933.31 295.236 Q1927.11 295.236 1923.47 291.625 Q1919.86 288.014 1919.86 281.856 Q1919.86 275.491 1923.29 271.764 Q1926.74 268.014 1932.57 268.014 Q1937.8 268.014 1940.84 271.393 Q1943.89 274.75 1943.89 280.537 M1939.63 279.287 Q1939.59 275.792 1937.66 273.708 Q1935.77 271.625 1932.62 271.625 Q1929.05 271.625 1926.9 273.639 Q1924.77 275.653 1924.45 279.31 L1939.63 279.287 Z" fill="#000000" fill-rule="evenodd" fill-opacity="1" /><path clip-path="url(#clip830)" d="M1984.56 281.625 Q1984.56 276.926 1982.62 274.264 Q1980.7 271.579 1977.32 271.579 Q1973.94 271.579 1971.99 274.264 Q1970.07 276.926 1970.07 281.625 Q1970.07 286.324 1971.99 289.009 Q1973.94 291.671 1977.32 291.671 Q1980.7 291.671 1982.62 289.009 Q1984.56 286.324 1984.56 281.625 M1970.07 272.574 Q1971.41 270.259 1973.45 269.148 Q1975.51 268.014 1978.36 268.014 Q1983.08 268.014 1986.02 271.764 Q1988.98 275.514 1988.98 281.625 Q1988.98 287.736 1986.02 291.486 Q1983.08 295.236 1978.36 295.236 Q1975.51 295.236 1973.45 294.125 Q1971.41 292.991 1970.07 290.676 L1970.07 294.565 L1965.79 294.565 L1965.79 258.546 L1970.07 258.546 L1970.07 272.574 Z" fill="#000000" fill-rule="evenodd" fill-opacity="1" /><path clip-path="url(#clip830)" d="M1996.04 268.639 L2000.3 268.639 L2000.3 294.565 L1996.04 294.565 L1996.04 268.639 M1996.04 258.546 L2000.3 258.546 L2000.3 263.94 L1996.04 263.94 L1996.04 258.546 Z" fill="#000000" fill-rule="evenodd" fill-opacity="1" /><path clip-path="url(#clip830)" d="M2030.77 278.917 L2030.77 294.565 L2026.51 294.565 L2026.51 279.055 Q2026.51 275.375 2025.07 273.546 Q2023.64 271.718 2020.77 271.718 Q2017.32 271.718 2015.33 273.917 Q2013.33 276.116 2013.33 279.912 L2013.33 294.565 L2009.05 294.565 L2009.05 268.639 L2013.33 268.639 L2013.33 272.667 Q2014.86 270.329 2016.92 269.171 Q2019.01 268.014 2021.71 268.014 Q2026.18 268.014 2028.47 270.792 Q2030.77 273.546 2030.77 278.917 Z" fill="#000000" fill-rule="evenodd" fill-opacity="1" /><path clip-path="url(#clip830)" d="M2049.31 271.625 Q2045.88 271.625 2043.89 274.31 Q2041.9 276.972 2041.9 281.625 Q2041.9 286.278 2043.87 288.963 Q2045.86 291.625 2049.31 291.625 Q2052.71 291.625 2054.7 288.94 Q2056.69 286.254 2056.69 281.625 Q2056.69 277.018 2054.7 274.333 Q2052.71 271.625 2049.31 271.625 M2049.31 268.014 Q2054.86 268.014 2058.03 271.625 Q2061.2 275.236 2061.2 281.625 Q2061.2 287.991 2058.03 291.625 Q2054.86 295.236 2049.31 295.236 Q2043.73 295.236 2040.56 291.625 Q2037.41 287.991 2037.41 281.625 Q2037.41 275.236 2040.56 271.625 Q2043.73 268.014 2049.31 268.014 Z" fill="#000000" fill-rule="evenodd" fill-opacity="1" /><path clip-path="url(#clip830)" d="M2088.45 273.616 Q2090.05 270.745 2092.27 269.38 Q2094.49 268.014 2097.5 268.014 Q2101.55 268.014 2103.75 270.861 Q2105.95 273.685 2105.95 278.917 L2105.95 294.565 L2101.67 294.565 L2101.67 279.055 Q2101.67 275.329 2100.35 273.523 Q2099.03 271.718 2096.32 271.718 Q2093.01 271.718 2091.09 273.917 Q2089.17 276.116 2089.17 279.912 L2089.17 294.565 L2084.89 294.565 L2084.89 279.055 Q2084.89 275.305 2083.57 273.523 Q2082.25 271.718 2079.49 271.718 Q2076.23 271.718 2074.31 273.94 Q2072.39 276.139 2072.39 279.912 L2072.39 294.565 L2068.1 294.565 L2068.1 268.639 L2072.39 268.639 L2072.39 272.667 Q2073.84 270.282 2075.88 269.148 Q2077.92 268.014 2080.72 268.014 Q2083.54 268.014 2085.51 269.449 Q2087.5 270.884 2088.45 273.616 Z" fill="#000000" fill-rule="evenodd" fill-opacity="1" /><path clip-path="url(#clip830)" d="M2114.45 268.639 L2118.7 268.639 L2118.7 294.565 L2114.45 294.565 L2114.45 268.639 M2114.45 258.546 L2118.7 258.546 L2118.7 263.94 L2114.45 263.94 L2114.45 258.546 Z" fill="#000000" fill-rule="evenodd" fill-opacity="1" /><path clip-path="url(#clip830)" d="M2139.4 281.532 Q2134.24 281.532 2132.25 282.713 Q2130.26 283.893 2130.26 286.741 Q2130.26 289.009 2131.74 290.352 Q2133.24 291.671 2135.81 291.671 Q2139.35 291.671 2141.48 289.171 Q2143.64 286.648 2143.64 282.481 L2143.64 281.532 L2139.4 281.532 M2147.89 279.773 L2147.89 294.565 L2143.64 294.565 L2143.64 290.629 Q2142.18 292.991 2140 294.125 Q2137.82 295.236 2134.68 295.236 Q2130.7 295.236 2128.33 293.014 Q2126 290.768 2126 287.018 Q2126 282.643 2128.91 280.421 Q2131.85 278.199 2137.66 278.199 L2143.64 278.199 L2143.64 277.782 Q2143.64 274.843 2141.69 273.245 Q2139.77 271.625 2136.27 271.625 Q2134.05 271.625 2131.95 272.157 Q2129.84 272.69 2127.89 273.755 L2127.89 269.819 Q2130.23 268.917 2132.43 268.477 Q2134.63 268.014 2136.71 268.014 Q2142.34 268.014 2145.12 270.93 Q2147.89 273.847 2147.89 279.773 Z" fill="#000000" fill-rule="evenodd" fill-opacity="1" /><path clip-path="url(#clip830)" d="M2156.67 258.546 L2160.93 258.546 L2160.93 294.565 L2156.67 294.565 L2156.67 258.546 Z" fill="#000000" fill-rule="evenodd" fill-opacity="1" /><path clip-path="url(#clip830)" d="M2198.03 258.546 L2198.03 262.088 L2193.96 262.088 Q2191.67 262.088 2190.76 263.014 Q2189.88 263.94 2189.88 266.347 L2189.88 268.639 L2196.9 268.639 L2196.9 271.949 L2189.88 271.949 L2189.88 294.565 L2185.6 294.565 L2185.6 271.949 L2181.53 271.949 L2181.53 268.639 L2185.6 268.639 L2185.6 266.833 Q2185.6 262.505 2187.62 260.537 Q2189.63 258.546 2194.01 258.546 L2198.03 258.546 Z" fill="#000000" fill-rule="evenodd" fill-opacity="1" /><path clip-path="url(#clip830)" d="M2201.6 268.639 L2205.86 268.639 L2205.86 294.565 L2201.6 294.565 L2201.6 268.639 M2201.6 258.546 L2205.86 258.546 L2205.86 263.94 L2201.6 263.94 L2201.6 258.546 Z" fill="#000000" fill-rule="evenodd" fill-opacity="1" /><path clip-path="url(#clip830)" d="M2218.98 261.278 L2218.98 268.639 L2227.76 268.639 L2227.76 271.949 L2218.98 271.949 L2218.98 286.023 Q2218.98 289.194 2219.84 290.097 Q2220.72 291 2223.38 291 L2227.76 291 L2227.76 294.565 L2223.38 294.565 Q2218.45 294.565 2216.57 292.736 Q2214.7 290.884 2214.7 286.023 L2214.7 271.949 L2211.57 271.949 L2211.57 268.639 L2214.7 268.639 L2214.7 261.278 L2218.98 261.278 Z" fill="#000000" fill-rule="evenodd" fill-opacity="1" /></svg>
