<?xml version="1.0" encoding="utf-8"?>
<svg xmlns="http://www.w3.org/2000/svg" xmlns:xlink="http://www.w3.org/1999/xlink" width="600" height="400" viewBox="0 0 2400 1600">
<defs>
  <clipPath id="clip790">
    <rect x="0" y="0" width="2400" height="1600"/>
  </clipPath>
</defs>
<path clip-path="url(#clip790)" d="
M0 1600 L2400 1600 L2400 0 L0 0  Z
  " fill="#ffffff" fill-rule="evenodd" fill-opacity="1"/>
<defs>
  <clipPath id="clip791">
    <rect x="480" y="0" width="1681" height="1600"/>
  </clipPath>
</defs>
<path clip-path="url(#clip790)" d="
M238.13 1423.18 L2352.76 1423.18 L2352.76 47.2441 L238.13 47.2441  Z
  " fill="#ffffff" fill-rule="evenodd" fill-opacity="1"/>
<defs>
  <clipPath id="clip792">
    <rect x="238" y="47" width="2116" height="1377"/>
  </clipPath>
</defs>
<polyline clip-path="url(#clip792)" style="stroke:#000000; stroke-width:2; stroke-opacity:0.1; fill:none" points="
  354.438,1423.18 354.438,47.2441 
  "/>
<polyline clip-path="url(#clip792)" style="stroke:#000000; stroke-width:2; stroke-opacity:0.1; fill:none" points="
  668.106,1423.18 668.106,47.2441 
  "/>
<polyline clip-path="url(#clip792)" style="stroke:#000000; stroke-width:2; stroke-opacity:0.1; fill:none" points="
  981.775,1423.18 981.775,47.2441 
  "/>
<polyline clip-path="url(#clip792)" style="stroke:#000000; stroke-width:2; stroke-opacity:0.1; fill:none" points="
  1295.44,1423.18 1295.44,47.2441 
  "/>
<polyline clip-path="url(#clip792)" style="stroke:#000000; stroke-width:2; stroke-opacity:0.1; fill:none" points="
  1609.11,1423.18 1609.11,47.2441 
  "/>
<polyline clip-path="url(#clip792)" style="stroke:#000000; stroke-width:2; stroke-opacity:0.1; fill:none" points="
  1922.78,1423.18 1922.78,47.2441 
  "/>
<polyline clip-path="url(#clip792)" style="stroke:#000000; stroke-width:2; stroke-opacity:0.1; fill:none" points="
  2236.45,1423.18 2236.45,47.2441 
  "/>
<polyline clip-path="url(#clip790)" style="stroke:#000000; stroke-width:4; stroke-opacity:1; fill:none" points="
  238.13,1423.18 2352.76,1423.18 
  "/>
<polyline clip-path="url(#clip790)" style="stroke:#000000; stroke-width:4; stroke-opacity:1; fill:none" points="
  354.438,1423.18 354.438,1406.67 
  "/>
<polyline clip-path="url(#clip790)" style="stroke:#000000; stroke-width:4; stroke-opacity:1; fill:none" points="
  668.106,1423.18 668.106,1406.67 
  "/>
<polyline clip-path="url(#clip790)" style="stroke:#000000; stroke-width:4; stroke-opacity:1; fill:none" points="
  981.775,1423.18 981.775,1406.67 
  "/>
<polyline clip-path="url(#clip790)" style="stroke:#000000; stroke-width:4; stroke-opacity:1; fill:none" points="
  1295.44,1423.18 1295.44,1406.67 
  "/>
<polyline clip-path="url(#clip790)" style="stroke:#000000; stroke-width:4; stroke-opacity:1; fill:none" points="
  1609.11,1423.18 1609.11,1406.67 
  "/>
<polyline clip-path="url(#clip790)" style="stroke:#000000; stroke-width:4; stroke-opacity:1; fill:none" points="
  1922.78,1423.18 1922.78,1406.67 
  "/>
<polyline clip-path="url(#clip790)" style="stroke:#000000; stroke-width:4; stroke-opacity:1; fill:none" points="
  2236.45,1423.18 2236.45,1406.67 
  "/>
<path clip-path="url(#clip790)" d="M 0 0 M354.438 1452.37 Q350.827 1452.37 348.998 1455.94 Q347.193 1459.48 347.193 1466.61 Q347.193 1473.71 348.998 1477.28 Q350.827 1480.82 354.438 1480.82 Q358.072 1480.82 359.878 1477.28 Q361.707 1473.71 361.707 1466.61 Q361.707 1459.48 359.878 1455.94 Q358.072 1452.37 354.438 1452.37 M354.438 1448.67 Q360.248 1448.67 363.304 1453.27 Q366.383 1457.86 366.383 1466.61 Q366.383 1475.33 363.304 1479.94 Q360.248 1484.52 354.438 1484.52 Q348.628 1484.52 345.549 1479.94 Q342.494 1475.33 342.494 1466.61 Q342.494 1457.86 345.549 1453.27 Q348.628 1448.67 354.438 1448.67 Z" fill="#000000" fill-rule="evenodd" fill-opacity="1" /><path clip-path="url(#clip790)" d="M 0 0 M662.759 1479.92 L679.079 1479.92 L679.079 1483.85 L657.134 1483.85 L657.134 1479.92 Q659.796 1477.16 664.38 1472.53 Q668.986 1467.88 670.167 1466.54 Q672.412 1464.01 673.292 1462.28 Q674.194 1460.52 674.194 1458.83 Q674.194 1456.07 672.25 1454.34 Q670.329 1452.6 667.227 1452.6 Q665.028 1452.6 662.574 1453.37 Q660.144 1454.13 657.366 1455.68 L657.366 1450.96 Q660.19 1449.82 662.644 1449.25 Q665.097 1448.67 667.134 1448.67 Q672.505 1448.67 675.699 1451.35 Q678.893 1454.04 678.893 1458.53 Q678.893 1460.66 678.083 1462.58 Q677.296 1464.48 675.19 1467.07 Q674.611 1467.74 671.509 1470.96 Q668.407 1474.15 662.759 1479.92 Z" fill="#000000" fill-rule="evenodd" fill-opacity="1" /><path clip-path="url(#clip790)" d="M 0 0 M984.784 1453.37 L972.978 1471.81 L984.784 1471.81 L984.784 1453.37 M983.557 1449.29 L989.437 1449.29 L989.437 1471.81 L994.367 1471.81 L994.367 1475.7 L989.437 1475.7 L989.437 1483.85 L984.784 1483.85 L984.784 1475.7 L969.182 1475.7 L969.182 1471.19 L983.557 1449.29 Z" fill="#000000" fill-rule="evenodd" fill-opacity="1" /><path clip-path="url(#clip790)" d="M 0 0 M1295.85 1464.71 Q1292.7 1464.71 1290.85 1466.86 Q1289.02 1469.01 1289.02 1472.76 Q1289.02 1476.49 1290.85 1478.67 Q1292.7 1480.82 1295.85 1480.82 Q1299 1480.82 1300.82 1478.67 Q1302.68 1476.49 1302.68 1472.76 Q1302.68 1469.01 1300.82 1466.86 Q1299 1464.71 1295.85 1464.71 M1305.13 1450.06 L1305.13 1454.31 Q1303.37 1453.48 1301.57 1453.04 Q1299.78 1452.6 1298.02 1452.6 Q1293.39 1452.6 1290.94 1455.73 Q1288.51 1458.85 1288.16 1465.17 Q1289.53 1463.16 1291.59 1462.09 Q1293.65 1461 1296.13 1461 Q1301.33 1461 1304.34 1464.18 Q1307.38 1467.32 1307.38 1472.76 Q1307.38 1478.09 1304.23 1481.31 Q1301.08 1484.52 1295.85 1484.52 Q1289.85 1484.52 1286.68 1479.94 Q1283.51 1475.33 1283.51 1466.61 Q1283.51 1458.41 1287.4 1453.55 Q1291.29 1448.67 1297.84 1448.67 Q1299.6 1448.67 1301.38 1449.01 Q1303.19 1449.36 1305.13 1450.06 Z" fill="#000000" fill-rule="evenodd" fill-opacity="1" /><path clip-path="url(#clip790)" d="M 0 0 M1609.11 1467.44 Q1605.78 1467.44 1603.86 1469.22 Q1601.96 1471 1601.96 1474.13 Q1601.96 1477.25 1603.86 1479.04 Q1605.78 1480.82 1609.11 1480.82 Q1612.44 1480.82 1614.37 1479.04 Q1616.29 1477.23 1616.29 1474.13 Q1616.29 1471 1614.37 1469.22 Q1612.47 1467.44 1609.11 1467.44 M1604.44 1465.45 Q1601.43 1464.71 1599.74 1462.65 Q1598.07 1460.59 1598.07 1457.63 Q1598.07 1453.48 1601.01 1451.07 Q1603.97 1448.67 1609.11 1448.67 Q1614.27 1448.67 1617.21 1451.07 Q1620.15 1453.48 1620.15 1457.63 Q1620.15 1460.59 1618.46 1462.65 Q1616.8 1464.71 1613.81 1465.45 Q1617.19 1466.24 1619.06 1468.53 Q1620.96 1470.82 1620.96 1474.13 Q1620.96 1479.15 1617.88 1481.84 Q1614.83 1484.52 1609.11 1484.52 Q1603.39 1484.52 1600.31 1481.84 Q1597.26 1479.15 1597.26 1474.13 Q1597.26 1470.82 1599.16 1468.53 Q1601.06 1466.24 1604.44 1465.45 M1602.72 1458.06 Q1602.72 1460.75 1604.39 1462.25 Q1606.08 1463.76 1609.11 1463.76 Q1612.12 1463.76 1613.81 1462.25 Q1615.52 1460.75 1615.52 1458.06 Q1615.52 1455.38 1613.81 1453.88 Q1612.12 1452.37 1609.11 1452.37 Q1606.08 1452.37 1604.39 1453.88 Q1602.72 1455.38 1602.72 1458.06 Z" fill="#000000" fill-rule="evenodd" fill-opacity="1" /><path clip-path="url(#clip790)" d="M 0 0 M1899.65 1479.92 L1907.29 1479.92 L1907.29 1453.55 L1898.98 1455.22 L1898.98 1450.96 L1907.25 1449.29 L1911.92 1449.29 L1911.92 1479.92 L1919.56 1479.92 L1919.56 1483.85 L1899.65 1483.85 L1899.65 1479.92 Z" fill="#000000" fill-rule="evenodd" fill-opacity="1" /><path clip-path="url(#clip790)" d="M 0 0 M1934.63 1452.37 Q1931.02 1452.37 1929.19 1455.94 Q1927.39 1459.48 1927.39 1466.61 Q1927.39 1473.71 1929.19 1477.28 Q1931.02 1480.82 1934.63 1480.82 Q1938.27 1480.82 1940.07 1477.28 Q1941.9 1473.71 1941.9 1466.61 Q1941.9 1459.48 1940.07 1455.94 Q1938.27 1452.37 1934.63 1452.37 M1934.63 1448.67 Q1940.44 1448.67 1943.5 1453.27 Q1946.58 1457.86 1946.58 1466.61 Q1946.58 1475.33 1943.5 1479.94 Q1940.44 1484.52 1934.63 1484.52 Q1928.82 1484.52 1925.74 1479.94 Q1922.69 1475.33 1922.69 1466.61 Q1922.69 1457.86 1925.74 1453.27 Q1928.82 1448.67 1934.63 1448.67 Z" fill="#000000" fill-rule="evenodd" fill-opacity="1" /><path clip-path="url(#clip790)" d="M 0 0 M2214.12 1479.92 L2221.76 1479.92 L2221.76 1453.55 L2213.45 1455.22 L2213.45 1450.96 L2221.71 1449.29 L2226.39 1449.29 L2226.39 1479.92 L2234.03 1479.92 L2234.03 1483.85 L2214.12 1483.85 L2214.12 1479.92 Z" fill="#000000" fill-rule="evenodd" fill-opacity="1" /><path clip-path="url(#clip790)" d="M 0 0 M2243.13 1479.92 L2259.45 1479.92 L2259.45 1483.85 L2237.5 1483.85 L2237.5 1479.92 Q2240.16 1477.16 2244.75 1472.53 Q2249.35 1467.88 2250.53 1466.54 Q2252.78 1464.01 2253.66 1462.28 Q2254.56 1460.52 2254.56 1458.83 Q2254.56 1456.07 2252.62 1454.34 Q2250.7 1452.6 2247.59 1452.6 Q2245.39 1452.6 2242.94 1453.37 Q2240.51 1454.13 2237.73 1455.68 L2237.73 1450.96 Q2240.56 1449.82 2243.01 1449.25 Q2245.46 1448.67 2247.5 1448.67 Q2252.87 1448.67 2256.07 1451.35 Q2259.26 1454.04 2259.26 1458.53 Q2259.26 1460.66 2258.45 1462.58 Q2257.66 1464.48 2255.56 1467.07 Q2254.98 1467.74 2251.88 1470.96 Q2248.77 1474.15 2243.13 1479.92 Z" fill="#000000" fill-rule="evenodd" fill-opacity="1" /><path clip-path="url(#clip790)" d="M 0 0 M1297.4 1539.24 Q1299.6 1535.29 1302.65 1533.41 Q1305.71 1531.54 1309.85 1531.54 Q1315.42 1531.54 1318.44 1535.45 Q1321.46 1539.33 1321.46 1546.53 L1321.46 1568.04 L1315.57 1568.04 L1315.57 1546.72 Q1315.57 1541.59 1313.76 1539.11 Q1311.95 1536.63 1308.22 1536.63 Q1303.67 1536.63 1301.03 1539.65 Q1298.39 1542.68 1298.39 1547.9 L1298.39 1568.04 L1292.5 1568.04 L1292.5 1546.72 Q1292.5 1541.56 1290.68 1539.11 Q1288.87 1536.63 1285.08 1536.63 Q1280.59 1536.63 1277.95 1539.68 Q1275.31 1542.71 1275.31 1547.9 L1275.31 1568.04 L1269.42 1568.04 L1269.42 1532.4 L1275.31 1532.4 L1275.31 1537.93 Q1277.32 1534.66 1280.12 1533.1 Q1282.92 1531.54 1286.77 1531.54 Q1290.65 1531.54 1293.36 1533.51 Q1296.1 1535.48 1297.4 1539.24 Z" fill="#000000" fill-rule="evenodd" fill-opacity="1" /><polyline clip-path="url(#clip792)" style="stroke:#000000; stroke-width:2; stroke-opacity:0.1; fill:none" points="
  238.13,1384.24 2352.76,1384.24 
  "/>
<polyline clip-path="url(#clip792)" style="stroke:#000000; stroke-width:2; stroke-opacity:0.1; fill:none" points="
  238.13,1144.78 2352.76,1144.78 
  "/>
<polyline clip-path="url(#clip792)" style="stroke:#000000; stroke-width:2; stroke-opacity:0.1; fill:none" points="
  238.13,905.33 2352.76,905.33 
  "/>
<polyline clip-path="url(#clip792)" style="stroke:#000000; stroke-width:2; stroke-opacity:0.1; fill:none" points="
  238.13,665.876 2352.76,665.876 
  "/>
<polyline clip-path="url(#clip792)" style="stroke:#000000; stroke-width:2; stroke-opacity:0.1; fill:none" points="
  238.13,426.421 2352.76,426.421 
  "/>
<polyline clip-path="url(#clip792)" style="stroke:#000000; stroke-width:2; stroke-opacity:0.1; fill:none" points="
  238.13,186.967 2352.76,186.967 
  "/>
<polyline clip-path="url(#clip790)" style="stroke:#000000; stroke-width:4; stroke-opacity:1; fill:none" points="
  238.13,1423.18 238.13,47.2441 
  "/>
<polyline clip-path="url(#clip790)" style="stroke:#000000; stroke-width:4; stroke-opacity:1; fill:none" points="
  238.13,1384.24 263.506,1384.24 
  "/>
<polyline clip-path="url(#clip790)" style="stroke:#000000; stroke-width:4; stroke-opacity:1; fill:none" points="
  238.13,1144.78 263.506,1144.78 
  "/>
<polyline clip-path="url(#clip790)" style="stroke:#000000; stroke-width:4; stroke-opacity:1; fill:none" points="
  238.13,905.33 263.506,905.33 
  "/>
<polyline clip-path="url(#clip790)" style="stroke:#000000; stroke-width:4; stroke-opacity:1; fill:none" points="
  238.13,665.876 263.506,665.876 
  "/>
<polyline clip-path="url(#clip790)" style="stroke:#000000; stroke-width:4; stroke-opacity:1; fill:none" points="
  238.13,426.421 263.506,426.421 
  "/>
<polyline clip-path="url(#clip790)" style="stroke:#000000; stroke-width:4; stroke-opacity:1; fill:none" points="
  238.13,186.967 263.506,186.967 
  "/>
<path clip-path="url(#clip790)" d="M 0 0 M126.205 1370.04 Q122.593 1370.04 120.765 1373.6 Q118.959 1377.14 118.959 1384.27 Q118.959 1391.38 120.765 1394.94 Q122.593 1398.49 126.205 1398.49 Q129.839 1398.49 131.644 1394.94 Q133.473 1391.38 133.473 1384.27 Q133.473 1377.14 131.644 1373.6 Q129.839 1370.04 126.205 1370.04 M126.205 1366.33 Q132.015 1366.33 135.07 1370.94 Q138.149 1375.52 138.149 1384.27 Q138.149 1393 135.07 1397.61 Q132.015 1402.19 126.205 1402.19 Q120.394 1402.19 117.316 1397.61 Q114.26 1393 114.26 1384.27 Q114.26 1375.52 117.316 1370.94 Q120.394 1366.33 126.205 1366.33 Z" fill="#000000" fill-rule="evenodd" fill-opacity="1" /><path clip-path="url(#clip790)" d="M 0 0 M143.218 1395.64 L148.103 1395.64 L148.103 1401.52 L143.218 1401.52 L143.218 1395.64 Z" fill="#000000" fill-rule="evenodd" fill-opacity="1" /><path clip-path="url(#clip790)" d="M 0 0 M163.172 1370.04 Q159.561 1370.04 157.732 1373.6 Q155.927 1377.14 155.927 1384.27 Q155.927 1391.38 157.732 1394.94 Q159.561 1398.49 163.172 1398.49 Q166.806 1398.49 168.612 1394.94 Q170.44 1391.38 170.44 1384.27 Q170.44 1377.14 168.612 1373.6 Q166.806 1370.04 163.172 1370.04 M163.172 1366.33 Q168.982 1366.33 172.038 1370.94 Q175.116 1375.52 175.116 1384.27 Q175.116 1393 172.038 1397.61 Q168.982 1402.19 163.172 1402.19 Q157.362 1402.19 154.283 1397.61 Q151.228 1393 151.228 1384.27 Q151.228 1375.52 154.283 1370.94 Q157.362 1366.33 163.172 1366.33 Z" fill="#000000" fill-rule="evenodd" fill-opacity="1" /><path clip-path="url(#clip790)" d="M 0 0 M190.186 1370.04 Q186.575 1370.04 184.746 1373.6 Q182.94 1377.14 182.94 1384.27 Q182.94 1391.38 184.746 1394.94 Q186.575 1398.49 190.186 1398.49 Q193.82 1398.49 195.625 1394.94 Q197.454 1391.38 197.454 1384.27 Q197.454 1377.14 195.625 1373.6 Q193.82 1370.04 190.186 1370.04 M190.186 1366.33 Q195.996 1366.33 199.051 1370.94 Q202.13 1375.52 202.13 1384.27 Q202.13 1393 199.051 1397.61 Q195.996 1402.19 190.186 1402.19 Q184.376 1402.19 181.297 1397.61 Q178.241 1393 178.241 1384.27 Q178.241 1375.52 181.297 1370.94 Q184.376 1366.33 190.186 1366.33 Z" fill="#000000" fill-rule="evenodd" fill-opacity="1" /><path clip-path="url(#clip790)" d="M 0 0 M127.2 1130.58 Q123.589 1130.58 121.76 1134.15 Q119.955 1137.69 119.955 1144.82 Q119.955 1151.93 121.76 1155.49 Q123.589 1159.03 127.2 1159.03 Q130.834 1159.03 132.64 1155.49 Q134.468 1151.93 134.468 1144.82 Q134.468 1137.69 132.64 1134.15 Q130.834 1130.58 127.2 1130.58 M127.2 1126.88 Q133.01 1126.88 136.066 1131.49 Q139.144 1136.07 139.144 1144.82 Q139.144 1153.55 136.066 1158.15 Q133.01 1162.74 127.2 1162.74 Q121.39 1162.74 118.311 1158.15 Q115.256 1153.55 115.256 1144.82 Q115.256 1136.07 118.311 1131.49 Q121.39 1126.88 127.2 1126.88 Z" fill="#000000" fill-rule="evenodd" fill-opacity="1" /><path clip-path="url(#clip790)" d="M 0 0 M144.214 1156.18 L149.098 1156.18 L149.098 1162.06 L144.214 1162.06 L144.214 1156.18 Z" fill="#000000" fill-rule="evenodd" fill-opacity="1" /><path clip-path="url(#clip790)" d="M 0 0 M164.167 1130.58 Q160.556 1130.58 158.728 1134.15 Q156.922 1137.69 156.922 1144.82 Q156.922 1151.93 158.728 1155.49 Q160.556 1159.03 164.167 1159.03 Q167.802 1159.03 169.607 1155.49 Q171.436 1151.93 171.436 1144.82 Q171.436 1137.69 169.607 1134.15 Q167.802 1130.58 164.167 1130.58 M164.167 1126.88 Q169.977 1126.88 173.033 1131.49 Q176.112 1136.07 176.112 1144.82 Q176.112 1153.55 173.033 1158.15 Q169.977 1162.74 164.167 1162.74 Q158.357 1162.74 155.278 1158.15 Q152.223 1153.55 152.223 1144.82 Q152.223 1136.07 155.278 1131.49 Q158.357 1126.88 164.167 1126.88 Z" fill="#000000" fill-rule="evenodd" fill-opacity="1" /><path clip-path="url(#clip790)" d="M 0 0 M181.227 1127.5 L199.584 1127.5 L199.584 1131.44 L185.51 1131.44 L185.51 1139.91 Q186.528 1139.56 187.547 1139.4 Q188.565 1139.22 189.584 1139.22 Q195.371 1139.22 198.75 1142.39 Q202.13 1145.56 202.13 1150.98 Q202.13 1156.55 198.658 1159.66 Q195.186 1162.74 188.866 1162.74 Q186.69 1162.74 184.422 1162.36 Q182.176 1161.99 179.769 1161.25 L179.769 1156.55 Q181.852 1157.69 184.075 1158.24 Q186.297 1158.8 188.774 1158.8 Q192.778 1158.8 195.116 1156.69 Q197.454 1154.59 197.454 1150.98 Q197.454 1147.37 195.116 1145.26 Q192.778 1143.15 188.774 1143.15 Q186.899 1143.15 185.024 1143.57 Q183.172 1143.99 181.227 1144.87 L181.227 1127.5 Z" fill="#000000" fill-rule="evenodd" fill-opacity="1" /><path clip-path="url(#clip790)" d="M 0 0 M127.431 891.129 Q123.82 891.129 121.992 894.693 Q120.186 898.235 120.186 905.365 Q120.186 912.471 121.992 916.036 Q123.82 919.577 127.431 919.577 Q131.066 919.577 132.871 916.036 Q134.7 912.471 134.7 905.365 Q134.7 898.235 132.871 894.693 Q131.066 891.129 127.431 891.129 M127.431 887.425 Q133.242 887.425 136.297 892.031 Q139.376 896.615 139.376 905.365 Q139.376 914.091 136.297 918.698 Q133.242 923.281 127.431 923.281 Q121.621 923.281 118.543 918.698 Q115.487 914.091 115.487 905.365 Q115.487 896.615 118.543 892.031 Q121.621 887.425 127.431 887.425 Z" fill="#000000" fill-rule="evenodd" fill-opacity="1" /><path clip-path="url(#clip790)" d="M 0 0 M144.445 916.73 L149.329 916.73 L149.329 922.61 L144.445 922.61 L144.445 916.73 Z" fill="#000000" fill-rule="evenodd" fill-opacity="1" /><path clip-path="url(#clip790)" d="M 0 0 M155.209 918.675 L162.848 918.675 L162.848 892.309 L154.538 893.976 L154.538 889.716 L162.802 888.05 L167.477 888.05 L167.477 918.675 L175.116 918.675 L175.116 922.61 L155.209 922.61 L155.209 918.675 Z" fill="#000000" fill-rule="evenodd" fill-opacity="1" /><path clip-path="url(#clip790)" d="M 0 0 M190.186 891.129 Q186.575 891.129 184.746 894.693 Q182.94 898.235 182.94 905.365 Q182.94 912.471 184.746 916.036 Q186.575 919.577 190.186 919.577 Q193.82 919.577 195.625 916.036 Q197.454 912.471 197.454 905.365 Q197.454 898.235 195.625 894.693 Q193.82 891.129 190.186 891.129 M190.186 887.425 Q195.996 887.425 199.051 892.031 Q202.13 896.615 202.13 905.365 Q202.13 914.091 199.051 918.698 Q195.996 923.281 190.186 923.281 Q184.376 923.281 181.297 918.698 Q178.241 914.091 178.241 905.365 Q178.241 896.615 181.297 892.031 Q184.376 887.425 190.186 887.425 Z" fill="#000000" fill-rule="evenodd" fill-opacity="1" /><path clip-path="url(#clip790)" d="M 0 0 M128.427 651.674 Q124.816 651.674 122.987 655.239 Q121.181 658.781 121.181 665.91 Q121.181 673.017 122.987 676.582 Q124.816 680.123 128.427 680.123 Q132.061 680.123 133.867 676.582 Q135.695 673.017 135.695 665.91 Q135.695 658.781 133.867 655.239 Q132.061 651.674 128.427 651.674 M128.427 647.971 Q134.237 647.971 137.292 652.577 Q140.371 657.16 140.371 665.91 Q140.371 674.637 137.292 679.244 Q134.237 683.827 128.427 683.827 Q122.617 683.827 119.538 679.244 Q116.482 674.637 116.482 665.91 Q116.482 657.16 119.538 652.577 Q122.617 647.971 128.427 647.971 Z" fill="#000000" fill-rule="evenodd" fill-opacity="1" /><path clip-path="url(#clip790)" d="M 0 0 M145.441 677.276 L150.325 677.276 L150.325 683.156 L145.441 683.156 L145.441 677.276 Z" fill="#000000" fill-rule="evenodd" fill-opacity="1" /><path clip-path="url(#clip790)" d="M 0 0 M156.204 679.22 L163.843 679.22 L163.843 652.855 L155.533 654.521 L155.533 650.262 L163.797 648.596 L168.473 648.596 L168.473 679.22 L176.112 679.22 L176.112 683.156 L156.204 683.156 L156.204 679.22 Z" fill="#000000" fill-rule="evenodd" fill-opacity="1" /><path clip-path="url(#clip790)" d="M 0 0 M181.227 648.596 L199.584 648.596 L199.584 652.531 L185.51 652.531 L185.51 661.003 Q186.528 660.656 187.547 660.494 Q188.565 660.309 189.584 660.309 Q195.371 660.309 198.75 663.48 Q202.13 666.651 202.13 672.068 Q202.13 677.646 198.658 680.748 Q195.186 683.827 188.866 683.827 Q186.69 683.827 184.422 683.457 Q182.176 683.086 179.769 682.345 L179.769 677.646 Q181.852 678.781 184.075 679.336 Q186.297 679.892 188.774 679.892 Q192.778 679.892 195.116 677.785 Q197.454 675.679 197.454 672.068 Q197.454 668.457 195.116 666.35 Q192.778 664.244 188.774 664.244 Q186.899 664.244 185.024 664.66 Q183.172 665.077 181.227 665.957 L181.227 648.596 Z" fill="#000000" fill-rule="evenodd" fill-opacity="1" /><path clip-path="url(#clip790)" d="M 0 0 M127.802 412.22 Q124.191 412.22 122.362 415.785 Q120.556 419.327 120.556 426.456 Q120.556 433.563 122.362 437.127 Q124.191 440.669 127.802 440.669 Q131.436 440.669 133.242 437.127 Q135.07 433.563 135.07 426.456 Q135.07 419.327 133.242 415.785 Q131.436 412.22 127.802 412.22 M127.802 408.516 Q133.612 408.516 136.667 413.123 Q139.746 417.706 139.746 426.456 Q139.746 435.183 136.667 439.789 Q133.612 444.373 127.802 444.373 Q121.992 444.373 118.913 439.789 Q115.857 435.183 115.857 426.456 Q115.857 417.706 118.913 413.123 Q121.992 408.516 127.802 408.516 Z" fill="#000000" fill-rule="evenodd" fill-opacity="1" /><path clip-path="url(#clip790)" d="M 0 0 M144.816 437.822 L149.7 437.822 L149.7 443.701 L144.816 443.701 L144.816 437.822 Z" fill="#000000" fill-rule="evenodd" fill-opacity="1" /><path clip-path="url(#clip790)" d="M 0 0 M158.797 439.766 L175.116 439.766 L175.116 443.701 L153.172 443.701 L153.172 439.766 Q155.834 437.012 160.417 432.382 Q165.024 427.729 166.204 426.387 Q168.45 423.864 169.329 422.127 Q170.232 420.368 170.232 418.678 Q170.232 415.924 168.288 414.188 Q166.366 412.452 163.265 412.452 Q161.065 412.452 158.612 413.215 Q156.181 413.979 153.403 415.53 L153.403 410.808 Q156.228 409.674 158.681 409.095 Q161.135 408.516 163.172 408.516 Q168.542 408.516 171.737 411.202 Q174.931 413.887 174.931 418.377 Q174.931 420.507 174.121 422.428 Q173.334 424.326 171.227 426.919 Q170.649 427.59 167.547 430.808 Q164.445 434.002 158.797 439.766 Z" fill="#000000" fill-rule="evenodd" fill-opacity="1" /><path clip-path="url(#clip790)" d="M 0 0 M190.186 412.22 Q186.575 412.22 184.746 415.785 Q182.94 419.327 182.94 426.456 Q182.94 433.563 184.746 437.127 Q186.575 440.669 190.186 440.669 Q193.82 440.669 195.625 437.127 Q197.454 433.563 197.454 426.456 Q197.454 419.327 195.625 415.785 Q193.82 412.22 190.186 412.22 M190.186 408.516 Q195.996 408.516 199.051 413.123 Q202.13 417.706 202.13 426.456 Q202.13 435.183 199.051 439.789 Q195.996 444.373 190.186 444.373 Q184.376 444.373 181.297 439.789 Q178.241 435.183 178.241 426.456 Q178.241 417.706 181.297 413.123 Q184.376 408.516 190.186 408.516 Z" fill="#000000" fill-rule="evenodd" fill-opacity="1" /><path clip-path="url(#clip790)" d="M 0 0 M128.797 172.766 Q125.186 172.766 123.357 176.331 Q121.552 179.872 121.552 187.002 Q121.552 194.108 123.357 197.673 Q125.186 201.215 128.797 201.215 Q132.431 201.215 134.237 197.673 Q136.066 194.108 136.066 187.002 Q136.066 179.872 134.237 176.331 Q132.431 172.766 128.797 172.766 M128.797 169.062 Q134.607 169.062 137.663 173.669 Q140.741 178.252 140.741 187.002 Q140.741 195.729 137.663 200.335 Q134.607 204.918 128.797 204.918 Q122.987 204.918 119.908 200.335 Q116.853 195.729 116.853 187.002 Q116.853 178.252 119.908 173.669 Q122.987 169.062 128.797 169.062 Z" fill="#000000" fill-rule="evenodd" fill-opacity="1" /><path clip-path="url(#clip790)" d="M 0 0 M145.811 198.368 L150.695 198.368 L150.695 204.247 L145.811 204.247 L145.811 198.368 Z" fill="#000000" fill-rule="evenodd" fill-opacity="1" /><path clip-path="url(#clip790)" d="M 0 0 M159.792 200.312 L176.112 200.312 L176.112 204.247 L154.167 204.247 L154.167 200.312 Q156.829 197.557 161.413 192.928 Q166.019 188.275 167.2 186.932 Q169.445 184.409 170.325 182.673 Q171.227 180.914 171.227 179.224 Q171.227 176.47 169.283 174.733 Q167.362 172.997 164.26 172.997 Q162.061 172.997 159.607 173.761 Q157.177 174.525 154.399 176.076 L154.399 171.354 Q157.223 170.22 159.677 169.641 Q162.13 169.062 164.167 169.062 Q169.538 169.062 172.732 171.747 Q175.926 174.433 175.926 178.923 Q175.926 181.053 175.116 182.974 Q174.329 184.872 172.223 187.465 Q171.644 188.136 168.542 191.354 Q165.44 194.548 159.792 200.312 Z" fill="#000000" fill-rule="evenodd" fill-opacity="1" /><path clip-path="url(#clip790)" d="M 0 0 M181.227 169.687 L199.584 169.687 L199.584 173.622 L185.51 173.622 L185.51 182.095 Q186.528 181.747 187.547 181.585 Q188.565 181.4 189.584 181.4 Q195.371 181.4 198.75 184.571 Q202.13 187.743 202.13 193.159 Q202.13 198.738 198.658 201.84 Q195.186 204.918 188.866 204.918 Q186.69 204.918 184.422 204.548 Q182.176 204.178 179.769 203.437 L179.769 198.738 Q181.852 199.872 184.075 200.428 Q186.297 200.983 188.774 200.983 Q192.778 200.983 195.116 198.877 Q197.454 196.77 197.454 193.159 Q197.454 189.548 195.116 187.442 Q192.778 185.335 188.774 185.335 Q186.899 185.335 185.024 185.752 Q183.172 186.169 181.227 187.048 L181.227 169.687 Z" fill="#000000" fill-rule="evenodd" fill-opacity="1" /><path clip-path="url(#clip790)" d="M 0 0 M21.7677 793.124 L39.6235 793.124 L39.6235 785.04 Q39.6235 780.552 37.3 778.101 Q34.9765 775.65 30.6797 775.65 Q26.4147 775.65 24.0912 778.101 Q21.7677 780.552 21.7677 785.04 L21.7677 793.124 M16.4842 799.553 L16.4842 785.04 Q16.4842 777.051 20.1126 772.977 Q23.7092 768.871 30.6797 768.871 Q37.7138 768.871 41.3104 772.977 Q44.907 777.051 44.907 785.04 L44.907 793.124 L64.0042 793.124 L64.0042 799.553 L16.4842 799.553 Z" fill="#000000" fill-rule="evenodd" fill-opacity="1" /><path clip-path="url(#clip790)" d="M 0 0 M14.5426 748.66 Q21.8632 752.925 29.0246 754.993 Q36.186 757.062 43.5384 757.062 Q50.8908 757.062 58.1159 754.993 Q65.3091 752.893 72.5979 748.66 L72.5979 753.752 Q65.1182 758.526 57.8931 760.914 Q50.668 763.269 43.5384 763.269 Q36.4406 763.269 29.2474 760.914 Q22.0542 758.558 14.5426 753.752 L14.5426 748.66 Z" fill="#000000" fill-rule="evenodd" fill-opacity="1" /><path clip-path="url(#clip790)" d="M 0 0 M35.1993 714.762 Q31.2526 712.566 29.3747 709.51 Q27.4968 706.455 27.4968 702.317 Q27.4968 696.747 31.4117 693.723 Q35.2948 690.7 42.4881 690.7 L64.0042 690.7 L64.0042 696.588 L42.679 696.588 Q37.5546 696.588 35.072 698.402 Q32.5894 700.216 32.5894 703.94 Q32.5894 708.492 35.6131 711.134 Q38.6368 713.775 43.8567 713.775 L64.0042 713.775 L64.0042 719.664 L42.679 719.664 Q37.5228 719.664 35.072 721.478 Q32.5894 723.292 32.5894 727.08 Q32.5894 731.568 35.6449 734.209 Q38.6686 736.851 43.8567 736.851 L64.0042 736.851 L64.0042 742.739 L28.3562 742.739 L28.3562 736.851 L33.8944 736.851 Q30.616 734.846 29.0564 732.045 Q27.4968 729.244 27.4968 725.393 Q27.4968 721.51 29.4702 718.804 Q31.4436 716.067 35.1993 714.762 Z" fill="#000000" fill-rule="evenodd" fill-opacity="1" /><path clip-path="url(#clip790)" d="M 0 0 M14.5426 685.48 L14.5426 680.387 Q22.0542 675.613 29.2474 673.258 Q36.4406 670.871 43.5384 670.871 Q50.668 670.871 57.8931 673.258 Q65.1182 675.613 72.5979 680.387 L72.5979 685.48 Q65.3091 681.247 58.1159 679.178 Q50.8908 677.077 43.5384 677.077 Q36.186 677.077 29.0246 679.178 Q21.8632 681.247 14.5426 685.48 Z" fill="#000000" fill-rule="evenodd" fill-opacity="1" /><path clip-path="url(#clip792)" d="
M354.438 732.779 L354.438 1384.24 L511.272 1384.24 L511.272 732.779 L354.438 732.779 L354.438 732.779  Z
  " fill="#009af9" fill-rule="evenodd" fill-opacity="1"/>
<polyline clip-path="url(#clip792)" style="stroke:#000000; stroke-width:4; stroke-opacity:1; fill:none" points="
  354.438,732.779 354.438,1384.24 511.272,1384.24 511.272,732.779 354.438,732.779 
  "/>
<path clip-path="url(#clip792)" d="
M511.272 86.1857 L511.272 1384.24 L668.106 1384.24 L668.106 86.1857 L511.272 86.1857 L511.272 86.1857  Z
  " fill="#009af9" fill-rule="evenodd" fill-opacity="1"/>
<polyline clip-path="url(#clip792)" style="stroke:#000000; stroke-width:4; stroke-opacity:1; fill:none" points="
  511.272,86.1857 511.272,1384.24 668.106,1384.24 668.106,86.1857 511.272,86.1857 
  "/>
<path clip-path="url(#clip792)" d="
M668.106 91.7697 L668.106 1384.24 L824.941 1384.24 L824.941 91.7697 L668.106 91.7697 L668.106 91.7697  Z
  " fill="#009af9" fill-rule="evenodd" fill-opacity="1"/>
<polyline clip-path="url(#clip792)" style="stroke:#000000; stroke-width:4; stroke-opacity:1; fill:none" points="
  668.106,91.7697 668.106,1384.24 824.941,1384.24 824.941,91.7697 668.106,91.7697 
  "/>
<path clip-path="url(#clip792)" d="
M824.941 518.314 L824.941 1384.24 L981.775 1384.24 L981.775 518.314 L824.941 518.314 L824.941 518.314  Z
  " fill="#009af9" fill-rule="evenodd" fill-opacity="1"/>
<polyline clip-path="url(#clip792)" style="stroke:#000000; stroke-width:4; stroke-opacity:1; fill:none" points="
  824.941,518.314 824.941,1384.24 981.775,1384.24 981.775,518.314 824.941,518.314 
  "/>
<path clip-path="url(#clip792)" d="
M981.775 952.694 L981.775 1384.24 L1138.61 1384.24 L1138.61 952.694 L981.775 952.694 L981.775 952.694  Z
  " fill="#009af9" fill-rule="evenodd" fill-opacity="1"/>
<polyline clip-path="url(#clip792)" style="stroke:#000000; stroke-width:4; stroke-opacity:1; fill:none" points="
  981.775,952.694 981.775,1384.24 1138.61,1384.24 1138.61,952.694 981.775,952.694 
  "/>
<path clip-path="url(#clip792)" d="
M1138.61 1213.43 L1138.61 1384.24 L1295.44 1384.24 L1295.44 1213.43 L1138.61 1213.43 L1138.61 1213.43  Z
  " fill="#009af9" fill-rule="evenodd" fill-opacity="1"/>
<polyline clip-path="url(#clip792)" style="stroke:#000000; stroke-width:4; stroke-opacity:1; fill:none" points="
  1138.61,1213.43 1138.61,1384.24 1295.44,1384.24 1295.44,1213.43 1138.61,1213.43 
  "/>
<path clip-path="url(#clip792)" d="
M1295.44 1326.88 L1295.44 1384.24 L1452.28 1384.24 L1452.28 1326.88 L1295.44 1326.88 L1295.44 1326.88  Z
  " fill="#009af9" fill-rule="evenodd" fill-opacity="1"/>
<polyline clip-path="url(#clip792)" style="stroke:#000000; stroke-width:4; stroke-opacity:1; fill:none" points="
  1295.44,1326.88 1295.44,1384.24 1452.28,1384.24 1452.28,1326.88 1295.44,1326.88 
  "/>
<path clip-path="url(#clip792)" d="
M1452.28 1367.92 L1452.28 1384.24 L1609.11 1384.24 L1609.11 1367.92 L1452.28 1367.92 L1452.28 1367.92  Z
  " fill="#009af9" fill-rule="evenodd" fill-opacity="1"/>
<polyline clip-path="url(#clip792)" style="stroke:#000000; stroke-width:4; stroke-opacity:1; fill:none" points="
  1452.28,1367.92 1452.28,1384.24 1609.11,1384.24 1609.11,1367.92 1452.28,1367.92 
  "/>
<path clip-path="url(#clip792)" d="
M1609.11 1380.26 L1609.11 1384.24 L1765.95 1384.24 L1765.95 1380.26 L1609.11 1380.26 L1609.11 1380.26  Z
  " fill="#009af9" fill-rule="evenodd" fill-opacity="1"/>
<polyline clip-path="url(#clip792)" style="stroke:#000000; stroke-width:4; stroke-opacity:1; fill:none" points="
  1609.11,1380.26 1609.11,1384.24 1765.95,1384.24 1765.95,1380.26 1609.11,1380.26 
  "/>
<path clip-path="url(#clip792)" d="
M1765.95 1383.3 L1765.95 1384.24 L1922.78 1384.24 L1922.78 1383.3 L1765.95 1383.3 L1765.95 1383.3  Z
  " fill="#009af9" fill-rule="evenodd" fill-opacity="1"/>
<polyline clip-path="url(#clip792)" style="stroke:#000000; stroke-width:4; stroke-opacity:1; fill:none" points="
  1765.95,1383.3 1765.95,1384.24 1922.78,1384.24 1922.78,1383.3 1765.95,1383.3 
  "/>
<path clip-path="url(#clip792)" d="
M1922.78 1384.01 L1922.78 1384.24 L2079.61 1384.24 L2079.61 1384.01 L1922.78 1384.01 L1922.78 1384.01  Z
  " fill="#009af9" fill-rule="evenodd" fill-opacity="1"/>
<polyline clip-path="url(#clip792)" style="stroke:#000000; stroke-width:4; stroke-opacity:1; fill:none" points="
  1922.78,1384.01 1922.78,1384.24 2079.61,1384.24 2079.61,1384.01 1922.78,1384.01 
  "/>
<path clip-path="url(#clip792)" d="
M2079.61 1384.23 L2079.61 1384.24 L2236.45 1384.24 L2236.45 1384.23 L2079.61 1384.23 L2079.61 1384.23  Z
  " fill="#009af9" fill-rule="evenodd" fill-opacity="1"/>
<polyline clip-path="url(#clip792)" style="stroke:#000000; stroke-width:4; stroke-opacity:1; fill:none" points="
  2079.61,1384.23 2079.61,1384.24 2236.45,1384.24 2236.45,1384.23 2079.61,1384.23 
  "/>
<polyline clip-path="url(#clip792)" style="stroke:#e26f46; stroke-width:4; stroke-opacity:1; fill:none" points="
  668.106,2799.12 668.106,-1328.69 
  "/>
<polyline clip-path="url(#clip792)" style="stroke:#3da44d; stroke-width:4; stroke-opacity:1; fill:none" points="
  667.577,2799.12 667.577,-1328.69 
  "/>
<path clip-path="url(#clip790)" d="
M1689.56 335.029 L2282.27 335.029 L2282.27 93.1086 L1689.56 93.1086  Z
  " fill="#ffffff" fill-rule="evenodd" fill-opacity="1"/>
<polyline clip-path="url(#clip790)" style="stroke:#000000; stroke-width:4; stroke-opacity:1; fill:none" points="
  1689.56,335.029 2282.27,335.029 2282.27,93.1086 1689.56,93.1086 1689.56,335.029 
  "/>
<path clip-path="url(#clip790)" d="
M1713.05 177.781 L1854.03 177.781 L1854.03 129.397 L1713.05 129.397 L1713.05 177.781  Z
  " fill="#009af9" fill-rule="evenodd" fill-opacity="1"/>
<polyline clip-path="url(#clip790)" style="stroke:#000000; stroke-width:4; stroke-opacity:1; fill:none" points="
  1713.05,177.781 1854.03,177.781 1854.03,129.397 1713.05,129.397 1713.05,177.781 
  "/>
<path clip-path="url(#clip790)" d="M 0 0 M1891.37 173.276 Q1889.56 177.906 1887.85 179.318 Q1886.14 180.73 1883.26 180.73 L1879.86 180.73 L1879.86 177.165 L1882.36 177.165 Q1884.12 177.165 1885.09 176.332 Q1886.07 175.498 1887.25 172.396 L1888.01 170.452 L1877.52 144.943 L1882.04 144.943 L1890.14 165.221 L1898.24 144.943 L1902.76 144.943 L1891.37 173.276 Z" fill="#000000" fill-rule="evenodd" fill-opacity="1" /><path clip-path="url(#clip790)" d="M 0 0 M1908.63 166.933 L1916.27 166.933 L1916.27 140.568 L1907.96 142.235 L1907.96 137.975 L1916.23 136.309 L1920.9 136.309 L1920.9 166.933 L1928.54 166.933 L1928.54 170.869 L1908.63 170.869 L1908.63 166.933 Z" fill="#000000" fill-rule="evenodd" fill-opacity="1" /><polyline clip-path="url(#clip790)" style="stroke:#e26f46; stroke-width:4; stroke-opacity:1; fill:none" points="
  1713.05,214.069 1854.03,214.069 
  "/>
<path clip-path="url(#clip790)" d="M 0 0 M1884.93 198.062 L1884.93 205.423 L1893.7 205.423 L1893.7 208.733 L1884.93 208.733 L1884.93 222.807 Q1884.93 225.978 1885.79 226.881 Q1886.67 227.784 1889.33 227.784 L1893.7 227.784 L1893.7 231.349 L1889.33 231.349 Q1884.4 231.349 1882.52 229.52 Q1880.65 227.668 1880.65 222.807 L1880.65 208.733 L1877.52 208.733 L1877.52 205.423 L1880.65 205.423 L1880.65 198.062 L1884.93 198.062 Z" fill="#000000" fill-rule="evenodd" fill-opacity="1" /><path clip-path="url(#clip790)" d="M 0 0 M1919.72 215.701 L1919.72 231.349 L1915.46 231.349 L1915.46 215.839 Q1915.46 212.159 1914.03 210.33 Q1912.59 208.502 1909.72 208.502 Q1906.27 208.502 1904.28 210.701 Q1902.29 212.9 1902.29 216.696 L1902.29 231.349 L1898.01 231.349 L1898.01 195.33 L1902.29 195.33 L1902.29 209.451 Q1903.82 207.113 1905.88 205.955 Q1907.96 204.798 1910.67 204.798 Q1915.14 204.798 1917.43 207.576 Q1919.72 210.33 1919.72 215.701 Z" fill="#000000" fill-rule="evenodd" fill-opacity="1" /><path clip-path="url(#clip790)" d="M 0 0 M1946.37 217.321 L1946.37 219.404 L1926.78 219.404 Q1927.06 223.802 1929.42 226.117 Q1931.81 228.409 1936.04 228.409 Q1938.5 228.409 1940.79 227.807 Q1943.1 227.205 1945.37 226.001 L1945.37 230.029 Q1943.08 231.001 1940.67 231.511 Q1938.26 232.02 1935.79 232.02 Q1929.58 232.02 1925.95 228.409 Q1922.34 224.798 1922.34 218.64 Q1922.34 212.275 1925.76 208.548 Q1929.21 204.798 1935.05 204.798 Q1940.28 204.798 1943.31 208.177 Q1946.37 211.534 1946.37 217.321 M1942.11 216.071 Q1942.06 212.576 1940.14 210.492 Q1938.24 208.409 1935.09 208.409 Q1931.53 208.409 1929.38 210.423 Q1927.25 212.437 1926.92 216.094 L1942.11 216.071 Z" fill="#000000" fill-rule="evenodd" fill-opacity="1" /><path clip-path="url(#clip790)" d="M 0 0 M1960.88 208.409 Q1957.45 208.409 1955.46 211.094 Q1953.47 213.756 1953.47 218.409 Q1953.47 223.062 1955.44 225.747 Q1957.43 228.409 1960.88 228.409 Q1964.28 228.409 1966.27 225.724 Q1968.26 223.038 1968.26 218.409 Q1968.26 213.802 1966.27 211.117 Q1964.28 208.409 1960.88 208.409 M1960.88 204.798 Q1966.44 204.798 1969.61 208.409 Q1972.78 212.02 1972.78 218.409 Q1972.78 224.775 1969.61 228.409 Q1966.44 232.02 1960.88 232.02 Q1955.3 232.02 1952.13 228.409 Q1948.98 224.775 1948.98 218.409 Q1948.98 212.02 1952.13 208.409 Q1955.3 204.798 1960.88 204.798 Z" fill="#000000" fill-rule="evenodd" fill-opacity="1" /><path clip-path="url(#clip790)" d="M 0 0 M1992.27 209.404 Q1991.55 208.988 1990.69 208.802 Q1989.86 208.594 1988.84 208.594 Q1985.23 208.594 1983.29 210.955 Q1981.37 213.293 1981.37 217.691 L1981.37 231.349 L1977.08 231.349 L1977.08 205.423 L1981.37 205.423 L1981.37 209.451 Q1982.71 207.089 1984.86 205.955 Q1987.01 204.798 1990.09 204.798 Q1990.53 204.798 1991.07 204.867 Q1991.6 204.914 1992.25 205.029 L1992.27 209.404 Z" fill="#000000" fill-rule="evenodd" fill-opacity="1" /><path clip-path="url(#clip790)" d="M 0 0 M2017.87 217.321 L2017.87 219.404 L1998.29 219.404 Q1998.56 223.802 2000.93 226.117 Q2003.31 228.409 2007.55 228.409 Q2010 228.409 2012.29 227.807 Q2014.61 227.205 2016.88 226.001 L2016.88 230.029 Q2014.58 231.001 2012.18 231.511 Q2009.77 232.02 2007.29 232.02 Q2001.09 232.02 1997.45 228.409 Q1993.84 224.798 1993.84 218.64 Q1993.84 212.275 1997.27 208.548 Q2000.72 204.798 2006.55 204.798 Q2011.78 204.798 2014.81 208.177 Q2017.87 211.534 2017.87 217.321 M2013.61 216.071 Q2013.56 212.576 2011.64 210.492 Q2009.75 208.409 2006.6 208.409 Q2003.03 208.409 2000.88 210.423 Q1998.75 212.437 1998.43 216.094 L2013.61 216.071 Z" fill="#000000" fill-rule="evenodd" fill-opacity="1" /><path clip-path="url(#clip790)" d="M 0 0 M2026.55 198.062 L2026.55 205.423 L2035.32 205.423 L2035.32 208.733 L2026.55 208.733 L2026.55 222.807 Q2026.55 225.978 2027.41 226.881 Q2028.29 227.784 2030.95 227.784 L2035.32 227.784 L2035.32 231.349 L2030.95 231.349 Q2026.02 231.349 2024.14 229.52 Q2022.27 227.668 2022.27 222.807 L2022.27 208.733 L2019.14 208.733 L2019.14 205.423 L2022.27 205.423 L2022.27 198.062 L2026.55 198.062 Z" fill="#000000" fill-rule="evenodd" fill-opacity="1" /><path clip-path="url(#clip790)" d="M 0 0 M2039.79 205.423 L2044.05 205.423 L2044.05 231.349 L2039.79 231.349 L2039.79 205.423 M2039.79 195.33 L2044.05 195.33 L2044.05 200.724 L2039.79 200.724 L2039.79 195.33 Z" fill="#000000" fill-rule="evenodd" fill-opacity="1" /><path clip-path="url(#clip790)" d="M 0 0 M2067.18 206.418 L2067.18 210.4 Q2065.37 209.404 2063.54 208.918 Q2061.74 208.409 2059.88 208.409 Q2055.74 208.409 2053.45 211.048 Q2051.16 213.664 2051.16 218.409 Q2051.16 223.154 2053.45 225.793 Q2055.74 228.409 2059.88 228.409 Q2061.74 228.409 2063.54 227.923 Q2065.37 227.413 2067.18 226.418 L2067.18 230.353 Q2065.39 231.187 2063.47 231.603 Q2061.57 232.02 2059.42 232.02 Q2053.56 232.02 2050.12 228.339 Q2046.67 224.659 2046.67 218.409 Q2046.67 212.066 2050.14 208.432 Q2053.63 204.798 2059.7 204.798 Q2061.67 204.798 2063.54 205.215 Q2065.42 205.608 2067.18 206.418 Z" fill="#000000" fill-rule="evenodd" fill-opacity="1" /><path clip-path="url(#clip790)" d="M 0 0 M2083.43 218.316 Q2078.26 218.316 2076.27 219.497 Q2074.28 220.677 2074.28 223.525 Q2074.28 225.793 2075.76 227.136 Q2077.27 228.455 2079.84 228.455 Q2083.38 228.455 2085.51 225.955 Q2087.66 223.432 2087.66 219.265 L2087.66 218.316 L2083.43 218.316 M2091.92 216.557 L2091.92 231.349 L2087.66 231.349 L2087.66 227.413 Q2086.2 229.775 2084.03 230.909 Q2081.85 232.02 2078.7 232.02 Q2074.72 232.02 2072.36 229.798 Q2070.02 227.552 2070.02 223.802 Q2070.02 219.427 2072.94 217.205 Q2075.88 214.983 2081.69 214.983 L2087.66 214.983 L2087.66 214.566 Q2087.66 211.627 2085.72 210.029 Q2083.8 208.409 2080.3 208.409 Q2078.08 208.409 2075.97 208.941 Q2073.87 209.474 2071.92 210.539 L2071.92 206.603 Q2074.26 205.701 2076.46 205.261 Q2078.66 204.798 2080.74 204.798 Q2086.37 204.798 2089.14 207.714 Q2091.92 210.631 2091.92 216.557 Z" fill="#000000" fill-rule="evenodd" fill-opacity="1" /><path clip-path="url(#clip790)" d="M 0 0 M2096.39 195.33 L2100.65 195.33 L2100.65 231.349 L2096.39 231.349 L2096.39 195.33 Z" fill="#000000" fill-rule="evenodd" fill-opacity="1" /><path clip-path="url(#clip790)" d="M 0 0 M2140.37 210.4 Q2141.97 207.529 2144.19 206.164 Q2146.41 204.798 2149.42 204.798 Q2153.47 204.798 2155.67 207.645 Q2157.87 210.469 2157.87 215.701 L2157.87 231.349 L2153.59 231.349 L2153.59 215.839 Q2153.59 212.113 2152.27 210.307 Q2150.95 208.502 2148.24 208.502 Q2144.93 208.502 2143.01 210.701 Q2141.09 212.9 2141.09 216.696 L2141.09 231.349 L2136.8 231.349 L2136.8 215.839 Q2136.8 212.089 2135.49 210.307 Q2134.17 208.502 2131.41 208.502 Q2128.15 208.502 2126.23 210.724 Q2124.31 212.923 2124.31 216.696 L2124.31 231.349 L2120.02 231.349 L2120.02 205.423 L2124.31 205.423 L2124.31 209.451 Q2125.76 207.066 2127.8 205.932 Q2129.84 204.798 2132.64 204.798 Q2135.46 204.798 2137.43 206.233 Q2139.42 207.668 2140.37 210.4 Z" fill="#000000" fill-rule="evenodd" fill-opacity="1" /><path clip-path="url(#clip790)" d="M 0 0 M2184.51 217.321 L2184.51 219.404 L2164.93 219.404 Q2165.21 223.802 2167.57 226.117 Q2169.95 228.409 2174.19 228.409 Q2176.64 228.409 2178.93 227.807 Q2181.25 227.205 2183.52 226.001 L2183.52 230.029 Q2181.23 231.001 2178.82 231.511 Q2176.41 232.02 2173.93 232.02 Q2167.73 232.02 2164.1 228.409 Q2160.49 224.798 2160.49 218.64 Q2160.49 212.275 2163.91 208.548 Q2167.36 204.798 2173.19 204.798 Q2178.43 204.798 2181.46 208.177 Q2184.51 211.534 2184.51 217.321 M2180.25 216.071 Q2180.21 212.576 2178.29 210.492 Q2176.39 208.409 2173.24 208.409 Q2169.68 208.409 2167.52 210.423 Q2165.39 212.437 2165.07 216.094 L2180.25 216.071 Z" fill="#000000" fill-rule="evenodd" fill-opacity="1" /><path clip-path="url(#clip790)" d="M 0 0 M2200.76 218.316 Q2195.6 218.316 2193.61 219.497 Q2191.62 220.677 2191.62 223.525 Q2191.62 225.793 2193.1 227.136 Q2194.61 228.455 2197.18 228.455 Q2200.72 228.455 2202.85 225.955 Q2205 223.432 2205 219.265 L2205 218.316 L2200.76 218.316 M2209.26 216.557 L2209.26 231.349 L2205 231.349 L2205 227.413 Q2203.54 229.775 2201.36 230.909 Q2199.19 232.02 2196.04 232.02 Q2192.06 232.02 2189.7 229.798 Q2187.36 227.552 2187.36 223.802 Q2187.36 219.427 2190.28 217.205 Q2193.22 214.983 2199.03 214.983 L2205 214.983 L2205 214.566 Q2205 211.627 2203.05 210.029 Q2201.13 208.409 2197.64 208.409 Q2195.42 208.409 2193.31 208.941 Q2191.2 209.474 2189.26 210.539 L2189.26 206.603 Q2191.6 205.701 2193.8 205.261 Q2195.99 204.798 2198.08 204.798 Q2203.7 204.798 2206.48 207.714 Q2209.26 210.631 2209.26 216.557 Z" fill="#000000" fill-rule="evenodd" fill-opacity="1" /><path clip-path="url(#clip790)" d="M 0 0 M2235.28 215.701 L2235.28 231.349 L2231.02 231.349 L2231.02 215.839 Q2231.02 212.159 2229.58 210.33 Q2228.15 208.502 2225.28 208.502 Q2221.83 208.502 2219.84 210.701 Q2217.85 212.9 2217.85 216.696 L2217.85 231.349 L2213.56 231.349 L2213.56 205.423 L2217.85 205.423 L2217.85 209.451 Q2219.37 207.113 2221.43 205.955 Q2223.52 204.798 2226.23 204.798 Q2230.69 204.798 2232.99 207.576 Q2235.28 210.33 2235.28 215.701 Z" fill="#000000" fill-rule="evenodd" fill-opacity="1" /><polyline clip-path="url(#clip790)" style="stroke:#3da44d; stroke-width:4; stroke-opacity:1; fill:none" points="
  1713.05,274.549 1854.03,274.549 
  "/>
<path clip-path="url(#clip790)" d="M 0 0 M1895.95 266.667 L1895.95 270.694 Q1894.14 269.769 1892.2 269.306 Q1890.26 268.843 1888.17 268.843 Q1885 268.843 1883.4 269.815 Q1881.83 270.787 1881.83 272.731 Q1881.83 274.213 1882.96 275.069 Q1884.1 275.903 1887.52 276.667 L1888.98 276.991 Q1893.52 277.963 1895.42 279.745 Q1897.34 281.505 1897.34 284.676 Q1897.34 288.287 1894.47 290.393 Q1891.62 292.5 1886.62 292.5 Q1884.54 292.5 1882.27 292.083 Q1880.02 291.69 1877.52 290.88 L1877.52 286.481 Q1879.89 287.708 1882.18 288.333 Q1884.47 288.935 1886.71 288.935 Q1889.72 288.935 1891.34 287.917 Q1892.96 286.875 1892.96 285 Q1892.96 283.264 1891.78 282.338 Q1890.63 281.412 1886.67 280.556 L1885.19 280.208 Q1881.23 279.375 1879.47 277.662 Q1877.71 275.926 1877.71 272.917 Q1877.71 269.259 1880.3 267.269 Q1882.89 265.278 1887.66 265.278 Q1890.02 265.278 1892.11 265.625 Q1894.19 265.972 1895.95 266.667 Z" fill="#000000" fill-rule="evenodd" fill-opacity="1" /><path clip-path="url(#clip790)" d="M 0 0 M1906.02 258.542 L1906.02 265.903 L1914.79 265.903 L1914.79 269.213 L1906.02 269.213 L1906.02 283.287 Q1906.02 286.458 1906.88 287.361 Q1907.76 288.264 1910.42 288.264 L1914.79 288.264 L1914.79 291.829 L1910.42 291.829 Q1905.49 291.829 1903.61 290 Q1901.74 288.148 1901.74 283.287 L1901.74 269.213 L1898.61 269.213 L1898.61 265.903 L1901.74 265.903 L1901.74 258.542 L1906.02 258.542 Z" fill="#000000" fill-rule="evenodd" fill-opacity="1" /><path clip-path="url(#clip790)" d="M 0 0 M1931.04 278.796 Q1925.88 278.796 1923.89 279.977 Q1921.9 281.157 1921.9 284.005 Q1921.9 286.273 1923.38 287.616 Q1924.88 288.935 1927.45 288.935 Q1931 288.935 1933.13 286.435 Q1935.28 283.912 1935.28 279.745 L1935.28 278.796 L1931.04 278.796 M1939.54 277.037 L1939.54 291.829 L1935.28 291.829 L1935.28 287.893 Q1933.82 290.255 1931.64 291.389 Q1929.47 292.5 1926.32 292.5 Q1922.34 292.5 1919.98 290.278 Q1917.64 288.032 1917.64 284.282 Q1917.64 279.907 1920.56 277.685 Q1923.5 275.463 1929.31 275.463 L1935.28 275.463 L1935.28 275.046 Q1935.28 272.107 1933.33 270.509 Q1931.41 268.889 1927.92 268.889 Q1925.7 268.889 1923.59 269.421 Q1921.48 269.954 1919.54 271.019 L1919.54 267.083 Q1921.88 266.181 1924.07 265.741 Q1926.27 265.278 1928.36 265.278 Q1933.98 265.278 1936.76 268.194 Q1939.54 271.111 1939.54 277.037 Z" fill="#000000" fill-rule="evenodd" fill-opacity="1" /><path clip-path="url(#clip790)" d="M 0 0 M1948.22 258.542 L1948.22 265.903 L1956.99 265.903 L1956.99 269.213 L1948.22 269.213 L1948.22 283.287 Q1948.22 286.458 1949.07 287.361 Q1949.95 288.264 1952.62 288.264 L1956.99 288.264 L1956.99 291.829 L1952.62 291.829 Q1947.69 291.829 1945.81 290 Q1943.94 288.148 1943.94 283.287 L1943.94 269.213 L1940.81 269.213 L1940.81 265.903 L1943.94 265.903 L1943.94 258.542 L1948.22 258.542 Z" fill="#000000" fill-rule="evenodd" fill-opacity="1" /><path clip-path="url(#clip790)" d="M 0 0 M1961.46 265.903 L1965.72 265.903 L1965.72 291.829 L1961.46 291.829 L1961.46 265.903 M1961.46 255.81 L1965.72 255.81 L1965.72 261.204 L1961.46 261.204 L1961.46 255.81 Z" fill="#000000" fill-rule="evenodd" fill-opacity="1" /><path clip-path="url(#clip790)" d="M 0 0 M1986.71 266.667 L1986.71 270.694 Q1984.91 269.769 1982.96 269.306 Q1981.02 268.843 1978.94 268.843 Q1975.76 268.843 1974.17 269.815 Q1972.59 270.787 1972.59 272.731 Q1972.59 274.213 1973.73 275.069 Q1974.86 275.903 1978.29 276.667 L1979.75 276.991 Q1984.28 277.963 1986.18 279.745 Q1988.1 281.505 1988.1 284.676 Q1988.1 288.287 1985.23 290.393 Q1982.38 292.5 1977.38 292.5 Q1975.3 292.5 1973.03 292.083 Q1970.79 291.69 1968.29 290.88 L1968.29 286.481 Q1970.65 287.708 1972.94 288.333 Q1975.23 288.935 1977.48 288.935 Q1980.49 288.935 1982.11 287.917 Q1983.73 286.875 1983.73 285 Q1983.73 283.264 1982.55 282.338 Q1981.39 281.412 1977.43 280.556 L1975.95 280.208 Q1971.99 279.375 1970.23 277.662 Q1968.47 275.926 1968.47 272.917 Q1968.47 269.259 1971.07 267.269 Q1973.66 265.278 1978.43 265.278 Q1980.79 265.278 1982.87 265.625 Q1984.95 265.972 1986.71 266.667 Z" fill="#000000" fill-rule="evenodd" fill-opacity="1" /><path clip-path="url(#clip790)" d="M 0 0 M1996.78 258.542 L1996.78 265.903 L2005.56 265.903 L2005.56 269.213 L1996.78 269.213 L1996.78 283.287 Q1996.78 286.458 1997.64 287.361 Q1998.52 288.264 2001.18 288.264 L2005.56 288.264 L2005.56 291.829 L2001.18 291.829 Q1996.25 291.829 1994.38 290 Q1992.5 288.148 1992.5 283.287 L1992.5 269.213 L1989.38 269.213 L1989.38 265.903 L1992.5 265.903 L1992.5 258.542 L1996.78 258.542 Z" fill="#000000" fill-rule="evenodd" fill-opacity="1" /><path clip-path="url(#clip790)" d="M 0 0 M2010.02 265.903 L2014.28 265.903 L2014.28 291.829 L2010.02 291.829 L2010.02 265.903 M2010.02 255.81 L2014.28 255.81 L2014.28 261.204 L2010.02 261.204 L2010.02 255.81 Z" fill="#000000" fill-rule="evenodd" fill-opacity="1" /><path clip-path="url(#clip790)" d="M 0 0 M2037.41 266.898 L2037.41 270.88 Q2035.6 269.884 2033.77 269.398 Q2031.97 268.889 2030.12 268.889 Q2025.97 268.889 2023.68 271.528 Q2021.39 274.144 2021.39 278.889 Q2021.39 283.634 2023.68 286.273 Q2025.97 288.889 2030.12 288.889 Q2031.97 288.889 2033.77 288.403 Q2035.6 287.893 2037.41 286.898 L2037.41 290.833 Q2035.62 291.667 2033.7 292.083 Q2031.81 292.5 2029.65 292.5 Q2023.8 292.5 2020.35 288.819 Q2016.9 285.139 2016.9 278.889 Q2016.9 272.546 2020.37 268.912 Q2023.87 265.278 2029.93 265.278 Q2031.9 265.278 2033.77 265.695 Q2035.65 266.088 2037.41 266.898 Z" fill="#000000" fill-rule="evenodd" fill-opacity="1" /><path clip-path="url(#clip790)" d="M 0 0 M2053.66 278.796 Q2048.5 278.796 2046.5 279.977 Q2044.51 281.157 2044.51 284.005 Q2044.51 286.273 2046 287.616 Q2047.5 288.935 2050.07 288.935 Q2053.61 288.935 2055.74 286.435 Q2057.89 283.912 2057.89 279.745 L2057.89 278.796 L2053.66 278.796 M2062.15 277.037 L2062.15 291.829 L2057.89 291.829 L2057.89 287.893 Q2056.44 290.255 2054.26 291.389 Q2052.08 292.5 2048.94 292.5 Q2044.95 292.5 2042.59 290.278 Q2040.25 288.032 2040.25 284.282 Q2040.25 279.907 2043.17 277.685 Q2046.11 275.463 2051.92 275.463 L2057.89 275.463 L2057.89 275.046 Q2057.89 272.107 2055.95 270.509 Q2054.03 268.889 2050.53 268.889 Q2048.31 268.889 2046.2 269.421 Q2044.1 269.954 2042.15 271.019 L2042.15 267.083 Q2044.49 266.181 2046.69 265.741 Q2048.89 265.278 2050.97 265.278 Q2056.6 265.278 2059.37 268.194 Q2062.15 271.111 2062.15 277.037 Z" fill="#000000" fill-rule="evenodd" fill-opacity="1" /><path clip-path="url(#clip790)" d="M 0 0 M2066.62 255.81 L2070.88 255.81 L2070.88 291.829 L2066.62 291.829 L2066.62 255.81 Z" fill="#000000" fill-rule="evenodd" fill-opacity="1" /><path clip-path="url(#clip790)" d="M 0 0 M2110.6 270.88 Q2112.2 268.009 2114.42 266.644 Q2116.64 265.278 2119.65 265.278 Q2123.7 265.278 2125.9 268.125 Q2128.1 270.949 2128.1 276.181 L2128.1 291.829 L2123.82 291.829 L2123.82 276.319 Q2123.82 272.593 2122.5 270.787 Q2121.18 268.982 2118.47 268.982 Q2115.16 268.982 2113.24 271.181 Q2111.32 273.38 2111.32 277.176 L2111.32 291.829 L2107.04 291.829 L2107.04 276.319 Q2107.04 272.569 2105.72 270.787 Q2104.4 268.982 2101.64 268.982 Q2098.38 268.982 2096.46 271.204 Q2094.54 273.403 2094.54 277.176 L2094.54 291.829 L2090.25 291.829 L2090.25 265.903 L2094.54 265.903 L2094.54 269.931 Q2096 267.546 2098.03 266.412 Q2100.07 265.278 2102.87 265.278 Q2105.69 265.278 2107.66 266.713 Q2109.65 268.148 2110.6 270.88 Z" fill="#000000" fill-rule="evenodd" fill-opacity="1" /><path clip-path="url(#clip790)" d="M 0 0 M2154.74 277.801 L2154.74 279.884 L2135.16 279.884 Q2135.44 284.282 2137.8 286.597 Q2140.18 288.889 2144.42 288.889 Q2146.87 288.889 2149.17 288.287 Q2151.48 287.685 2153.75 286.481 L2153.75 290.509 Q2151.46 291.481 2149.05 291.991 Q2146.64 292.5 2144.17 292.5 Q2137.96 292.5 2134.33 288.889 Q2130.72 285.278 2130.72 279.12 Q2130.72 272.755 2134.14 269.028 Q2137.59 265.278 2143.43 265.278 Q2148.66 265.278 2151.69 268.657 Q2154.74 272.014 2154.74 277.801 M2150.49 276.551 Q2150.44 273.056 2148.52 270.972 Q2146.62 268.889 2143.47 268.889 Q2139.91 268.889 2137.75 270.903 Q2135.62 272.917 2135.3 276.574 L2150.49 276.551 Z" fill="#000000" fill-rule="evenodd" fill-opacity="1" /><path clip-path="url(#clip790)" d="M 0 0 M2170.99 278.796 Q2165.83 278.796 2163.84 279.977 Q2161.85 281.157 2161.85 284.005 Q2161.85 286.273 2163.33 287.616 Q2164.84 288.935 2167.41 288.935 Q2170.95 288.935 2173.08 286.435 Q2175.23 283.912 2175.23 279.745 L2175.23 278.796 L2170.99 278.796 M2179.49 277.037 L2179.49 291.829 L2175.23 291.829 L2175.23 287.893 Q2173.77 290.255 2171.6 291.389 Q2169.42 292.5 2166.27 292.5 Q2162.29 292.5 2159.93 290.278 Q2157.59 288.032 2157.59 284.282 Q2157.59 279.907 2160.51 277.685 Q2163.45 275.463 2169.26 275.463 L2175.23 275.463 L2175.23 275.046 Q2175.23 272.107 2173.29 270.509 Q2171.36 268.889 2167.87 268.889 Q2165.65 268.889 2163.54 269.421 Q2161.43 269.954 2159.49 271.019 L2159.49 267.083 Q2161.83 266.181 2164.03 265.741 Q2166.23 265.278 2168.31 265.278 Q2173.93 265.278 2176.71 268.194 Q2179.49 271.111 2179.49 277.037 Z" fill="#000000" fill-rule="evenodd" fill-opacity="1" /><path clip-path="url(#clip790)" d="M 0 0 M2205.51 276.181 L2205.51 291.829 L2201.25 291.829 L2201.25 276.319 Q2201.25 272.639 2199.81 270.81 Q2198.38 268.982 2195.51 268.982 Q2192.06 268.982 2190.07 271.181 Q2188.08 273.38 2188.08 277.176 L2188.08 291.829 L2183.8 291.829 L2183.8 265.903 L2188.08 265.903 L2188.08 269.931 Q2189.61 267.593 2191.67 266.435 Q2193.75 265.278 2196.46 265.278 Q2200.93 265.278 2203.22 268.056 Q2205.51 270.81 2205.51 276.181 Z" fill="#000000" fill-rule="evenodd" fill-opacity="1" /></svg>
