<?xml version="1.0" encoding="utf-8"?>
<svg xmlns="http://www.w3.org/2000/svg" xmlns:xlink="http://www.w3.org/1999/xlink" width="600" height="400" viewBox="0 0 2400 1600">
<defs>
  <clipPath id="clip110">
    <rect x="0" y="0" width="2400" height="1600"/>
  </clipPath>
</defs>
<path clip-path="url(#clip110)" d="
M0 1600 L2400 1600 L2400 0 L0 0  Z
  " fill="#ffffff" fill-rule="evenodd" fill-opacity="1"/>
<defs>
  <clipPath id="clip111">
    <rect x="480" y="0" width="1681" height="1600"/>
  </clipPath>
</defs>
<path clip-path="url(#clip110)" d="
M211.602 1423.18 L2352.76 1423.18 L2352.76 47.2441 L211.602 47.2441  Z
  " fill="#ffffff" fill-rule="evenodd" fill-opacity="1"/>
<defs>
  <clipPath id="clip112">
    <rect x="211" y="47" width="2142" height="1377"/>
  </clipPath>
</defs>
<polyline clip-path="url(#clip112)" style="stroke:#000000; stroke-width:2; stroke-opacity:0.1; fill:none" points="
  329.37,1423.18 329.37,47.2441 
  "/>
<polyline clip-path="url(#clip112)" style="stroke:#000000; stroke-width:2; stroke-opacity:0.1; fill:none" points="
  805.774,1423.18 805.774,47.2441 
  "/>
<polyline clip-path="url(#clip112)" style="stroke:#000000; stroke-width:2; stroke-opacity:0.1; fill:none" points="
  1282.18,1423.18 1282.18,47.2441 
  "/>
<polyline clip-path="url(#clip112)" style="stroke:#000000; stroke-width:2; stroke-opacity:0.1; fill:none" points="
  1758.58,1423.18 1758.58,47.2441 
  "/>
<polyline clip-path="url(#clip112)" style="stroke:#000000; stroke-width:2; stroke-opacity:0.1; fill:none" points="
  2234.99,1423.18 2234.99,47.2441 
  "/>
<polyline clip-path="url(#clip110)" style="stroke:#000000; stroke-width:4; stroke-opacity:1; fill:none" points="
  211.602,1423.18 2352.76,1423.18 
  "/>
<polyline clip-path="url(#clip110)" style="stroke:#000000; stroke-width:4; stroke-opacity:1; fill:none" points="
  329.37,1423.18 329.37,1406.67 
  "/>
<polyline clip-path="url(#clip110)" style="stroke:#000000; stroke-width:4; stroke-opacity:1; fill:none" points="
  805.774,1423.18 805.774,1406.67 
  "/>
<polyline clip-path="url(#clip110)" style="stroke:#000000; stroke-width:4; stroke-opacity:1; fill:none" points="
  1282.18,1423.18 1282.18,1406.67 
  "/>
<polyline clip-path="url(#clip110)" style="stroke:#000000; stroke-width:4; stroke-opacity:1; fill:none" points="
  1758.58,1423.18 1758.58,1406.67 
  "/>
<polyline clip-path="url(#clip110)" style="stroke:#000000; stroke-width:4; stroke-opacity:1; fill:none" points="
  2234.99,1423.18 2234.99,1406.67 
  "/>
<path clip-path="url(#clip110)" d="M 0 0 M329.37 1452.37 Q325.759 1452.37 323.93 1455.94 Q322.124 1459.48 322.124 1466.61 Q322.124 1473.71 323.93 1477.28 Q325.759 1480.82 329.37 1480.82 Q333.004 1480.82 334.809 1477.28 Q336.638 1473.71 336.638 1466.61 Q336.638 1459.48 334.809 1455.94 Q333.004 1452.37 329.37 1452.37 M329.37 1448.67 Q335.18 1448.67 338.235 1453.27 Q341.314 1457.86 341.314 1466.61 Q341.314 1475.33 338.235 1479.94 Q335.18 1484.52 329.37 1484.52 Q323.56 1484.52 320.481 1479.94 Q317.425 1475.33 317.425 1466.61 Q317.425 1457.86 320.481 1453.27 Q323.56 1448.67 329.37 1448.67 Z" fill="#000000" fill-rule="evenodd" fill-opacity="1" /><path clip-path="url(#clip110)" d="M 0 0 M800.427 1479.92 L816.747 1479.92 L816.747 1483.85 L794.802 1483.85 L794.802 1479.92 Q797.464 1477.16 802.048 1472.53 Q806.654 1467.88 807.835 1466.54 Q810.08 1464.01 810.96 1462.28 Q811.862 1460.52 811.862 1458.83 Q811.862 1456.07 809.918 1454.34 Q807.997 1452.6 804.895 1452.6 Q802.696 1452.6 800.242 1453.37 Q797.811 1454.13 795.034 1455.68 L795.034 1450.96 Q797.858 1449.82 800.311 1449.25 Q802.765 1448.67 804.802 1448.67 Q810.173 1448.67 813.367 1451.35 Q816.561 1454.04 816.561 1458.53 Q816.561 1460.66 815.751 1462.58 Q814.964 1464.48 812.858 1467.07 Q812.279 1467.74 809.177 1470.96 Q806.075 1474.15 800.427 1479.92 Z" fill="#000000" fill-rule="evenodd" fill-opacity="1" /><path clip-path="url(#clip110)" d="M 0 0 M1285.19 1453.37 L1273.38 1471.81 L1285.19 1471.81 L1285.19 1453.37 M1283.96 1449.29 L1289.84 1449.29 L1289.84 1471.81 L1294.77 1471.81 L1294.77 1475.7 L1289.84 1475.7 L1289.84 1483.85 L1285.19 1483.85 L1285.19 1475.7 L1269.59 1475.7 L1269.59 1471.19 L1283.96 1449.29 Z" fill="#000000" fill-rule="evenodd" fill-opacity="1" /><path clip-path="url(#clip110)" d="M 0 0 M1758.99 1464.71 Q1755.84 1464.71 1753.99 1466.86 Q1752.16 1469.01 1752.16 1472.76 Q1752.16 1476.49 1753.99 1478.67 Q1755.84 1480.82 1758.99 1480.82 Q1762.14 1480.82 1763.97 1478.67 Q1765.82 1476.49 1765.82 1472.76 Q1765.82 1469.01 1763.97 1466.86 Q1762.14 1464.71 1758.99 1464.71 M1768.27 1450.06 L1768.27 1454.31 Q1766.51 1453.48 1764.71 1453.04 Q1762.92 1452.6 1761.16 1452.6 Q1756.54 1452.6 1754.08 1455.73 Q1751.65 1458.85 1751.3 1465.17 Q1752.67 1463.16 1754.73 1462.09 Q1756.79 1461 1759.27 1461 Q1764.48 1461 1767.48 1464.18 Q1770.52 1467.32 1770.52 1472.76 Q1770.52 1478.09 1767.37 1481.31 Q1764.22 1484.52 1758.99 1484.52 Q1752.99 1484.52 1749.82 1479.94 Q1746.65 1475.33 1746.65 1466.61 Q1746.65 1458.41 1750.54 1453.55 Q1754.43 1448.67 1760.98 1448.67 Q1762.74 1448.67 1764.52 1449.01 Q1766.33 1449.36 1768.27 1450.06 Z" fill="#000000" fill-rule="evenodd" fill-opacity="1" /><path clip-path="url(#clip110)" d="M 0 0 M2234.99 1467.44 Q2231.66 1467.44 2229.73 1469.22 Q2227.84 1471 2227.84 1474.13 Q2227.84 1477.25 2229.73 1479.04 Q2231.66 1480.82 2234.99 1480.82 Q2238.32 1480.82 2240.24 1479.04 Q2242.16 1477.23 2242.16 1474.13 Q2242.16 1471 2240.24 1469.22 Q2238.35 1467.44 2234.99 1467.44 M2230.31 1465.45 Q2227.3 1464.71 2225.61 1462.65 Q2223.95 1460.59 2223.95 1457.63 Q2223.95 1453.48 2226.89 1451.07 Q2229.85 1448.67 2234.99 1448.67 Q2240.15 1448.67 2243.09 1451.07 Q2246.03 1453.48 2246.03 1457.63 Q2246.03 1460.59 2244.34 1462.65 Q2242.67 1464.71 2239.69 1465.45 Q2243.07 1466.24 2244.94 1468.53 Q2246.84 1470.82 2246.84 1474.13 Q2246.84 1479.15 2243.76 1481.84 Q2240.71 1484.52 2234.99 1484.52 Q2229.27 1484.52 2226.19 1481.84 Q2223.14 1479.15 2223.14 1474.13 Q2223.14 1470.82 2225.04 1468.53 Q2226.93 1466.24 2230.31 1465.45 M2228.6 1458.06 Q2228.6 1460.75 2230.27 1462.25 Q2231.96 1463.76 2234.99 1463.76 Q2238 1463.76 2239.69 1462.25 Q2241.4 1460.75 2241.4 1458.06 Q2241.4 1455.38 2239.69 1453.88 Q2238 1452.37 2234.99 1452.37 Q2231.96 1452.37 2230.27 1453.88 Q2228.6 1455.38 2228.6 1458.06 Z" fill="#000000" fill-rule="evenodd" fill-opacity="1" /><path clip-path="url(#clip110)" d="M 0 0 M1284.14 1539.24 Q1286.33 1535.29 1289.39 1533.41 Q1292.44 1531.54 1296.58 1531.54 Q1302.15 1531.54 1305.18 1535.45 Q1308.2 1539.33 1308.2 1546.53 L1308.2 1568.04 L1302.31 1568.04 L1302.31 1546.72 Q1302.31 1541.59 1300.5 1539.11 Q1298.68 1536.63 1294.96 1536.63 Q1290.41 1536.63 1287.77 1539.65 Q1285.12 1542.68 1285.12 1547.9 L1285.12 1568.04 L1279.24 1568.04 L1279.24 1546.72 Q1279.24 1541.56 1277.42 1539.11 Q1275.61 1536.63 1271.82 1536.63 Q1267.33 1536.63 1264.69 1539.68 Q1262.05 1542.71 1262.05 1547.9 L1262.05 1568.04 L1256.16 1568.04 L1256.16 1532.4 L1262.05 1532.4 L1262.05 1537.93 Q1264.05 1534.66 1266.85 1533.1 Q1269.65 1531.54 1273.51 1531.54 Q1277.39 1531.54 1280.09 1533.51 Q1282.83 1535.48 1284.14 1539.24 Z" fill="#000000" fill-rule="evenodd" fill-opacity="1" /><polyline clip-path="url(#clip112)" style="stroke:#000000; stroke-width:2; stroke-opacity:0.1; fill:none" points="
  211.602,1384.24 2352.76,1384.24 
  "/>
<polyline clip-path="url(#clip112)" style="stroke:#000000; stroke-width:2; stroke-opacity:0.1; fill:none" points="
  211.602,1181.81 2352.76,1181.81 
  "/>
<polyline clip-path="url(#clip112)" style="stroke:#000000; stroke-width:2; stroke-opacity:0.1; fill:none" points="
  211.602,979.387 2352.76,979.387 
  "/>
<polyline clip-path="url(#clip112)" style="stroke:#000000; stroke-width:2; stroke-opacity:0.1; fill:none" points="
  211.602,776.962 2352.76,776.962 
  "/>
<polyline clip-path="url(#clip112)" style="stroke:#000000; stroke-width:2; stroke-opacity:0.1; fill:none" points="
  211.602,574.537 2352.76,574.537 
  "/>
<polyline clip-path="url(#clip112)" style="stroke:#000000; stroke-width:2; stroke-opacity:0.1; fill:none" points="
  211.602,372.111 2352.76,372.111 
  "/>
<polyline clip-path="url(#clip112)" style="stroke:#000000; stroke-width:2; stroke-opacity:0.1; fill:none" points="
  211.602,169.686 2352.76,169.686 
  "/>
<polyline clip-path="url(#clip110)" style="stroke:#000000; stroke-width:4; stroke-opacity:1; fill:none" points="
  211.602,1423.18 211.602,47.2441 
  "/>
<polyline clip-path="url(#clip110)" style="stroke:#000000; stroke-width:4; stroke-opacity:1; fill:none" points="
  211.602,1384.24 237.296,1384.24 
  "/>
<polyline clip-path="url(#clip110)" style="stroke:#000000; stroke-width:4; stroke-opacity:1; fill:none" points="
  211.602,1181.81 237.296,1181.81 
  "/>
<polyline clip-path="url(#clip110)" style="stroke:#000000; stroke-width:4; stroke-opacity:1; fill:none" points="
  211.602,979.387 237.296,979.387 
  "/>
<polyline clip-path="url(#clip110)" style="stroke:#000000; stroke-width:4; stroke-opacity:1; fill:none" points="
  211.602,776.962 237.296,776.962 
  "/>
<polyline clip-path="url(#clip110)" style="stroke:#000000; stroke-width:4; stroke-opacity:1; fill:none" points="
  211.602,574.537 237.296,574.537 
  "/>
<polyline clip-path="url(#clip110)" style="stroke:#000000; stroke-width:4; stroke-opacity:1; fill:none" points="
  211.602,372.111 237.296,372.111 
  "/>
<polyline clip-path="url(#clip110)" style="stroke:#000000; stroke-width:4; stroke-opacity:1; fill:none" points="
  211.602,169.686 237.296,169.686 
  "/>
<path clip-path="url(#clip110)" d="M 0 0 M126.691 1370.04 Q123.08 1370.04 121.251 1373.6 Q119.445 1377.14 119.445 1384.27 Q119.445 1391.38 121.251 1394.94 Q123.08 1398.49 126.691 1398.49 Q130.325 1398.49 132.13 1394.94 Q133.959 1391.38 133.959 1384.27 Q133.959 1377.14 132.13 1373.6 Q130.325 1370.04 126.691 1370.04 M126.691 1366.33 Q132.501 1366.33 135.556 1370.94 Q138.635 1375.52 138.635 1384.27 Q138.635 1393 135.556 1397.61 Q132.501 1402.19 126.691 1402.19 Q120.88 1402.19 117.802 1397.61 Q114.746 1393 114.746 1384.27 Q114.746 1375.52 117.802 1370.94 Q120.88 1366.33 126.691 1366.33 Z" fill="#000000" fill-rule="evenodd" fill-opacity="1" /><path clip-path="url(#clip110)" d="M 0 0 M143.704 1395.64 L148.589 1395.64 L148.589 1401.52 L143.704 1401.52 L143.704 1395.64 Z" fill="#000000" fill-rule="evenodd" fill-opacity="1" /><path clip-path="url(#clip110)" d="M 0 0 M163.658 1370.04 Q160.047 1370.04 158.218 1373.6 Q156.413 1377.14 156.413 1384.27 Q156.413 1391.38 158.218 1394.94 Q160.047 1398.49 163.658 1398.49 Q167.292 1398.49 169.098 1394.94 Q170.927 1391.38 170.927 1384.27 Q170.927 1377.14 169.098 1373.6 Q167.292 1370.04 163.658 1370.04 M163.658 1366.33 Q169.468 1366.33 172.524 1370.94 Q175.602 1375.52 175.602 1384.27 Q175.602 1393 172.524 1397.61 Q169.468 1402.19 163.658 1402.19 Q157.848 1402.19 154.769 1397.61 Q151.714 1393 151.714 1384.27 Q151.714 1375.52 154.769 1370.94 Q157.848 1366.33 163.658 1366.33 Z" fill="#000000" fill-rule="evenodd" fill-opacity="1" /><path clip-path="url(#clip110)" d="M 0 0 M127.917 1167.61 Q124.306 1167.61 122.478 1171.18 Q120.672 1174.72 120.672 1181.85 Q120.672 1188.95 122.478 1192.52 Q124.306 1196.06 127.917 1196.06 Q131.552 1196.06 133.357 1192.52 Q135.186 1188.95 135.186 1181.85 Q135.186 1174.72 133.357 1171.18 Q131.552 1167.61 127.917 1167.61 M127.917 1163.91 Q133.728 1163.91 136.783 1168.51 Q139.862 1173.1 139.862 1181.85 Q139.862 1190.57 136.783 1195.18 Q133.728 1199.76 127.917 1199.76 Q122.107 1199.76 119.029 1195.18 Q115.973 1190.57 115.973 1181.85 Q115.973 1173.1 119.029 1168.51 Q122.107 1163.91 127.917 1163.91 Z" fill="#000000" fill-rule="evenodd" fill-opacity="1" /><path clip-path="url(#clip110)" d="M 0 0 M144.931 1193.21 L149.816 1193.21 L149.816 1199.09 L144.931 1199.09 L144.931 1193.21 Z" fill="#000000" fill-rule="evenodd" fill-opacity="1" /><path clip-path="url(#clip110)" d="M 0 0 M155.695 1195.16 L163.334 1195.16 L163.334 1168.79 L155.024 1170.46 L155.024 1166.2 L163.288 1164.53 L167.964 1164.53 L167.964 1195.16 L175.602 1195.16 L175.602 1199.09 L155.695 1199.09 L155.695 1195.16 Z" fill="#000000" fill-rule="evenodd" fill-opacity="1" /><path clip-path="url(#clip110)" d="M 0 0 M128.288 965.186 Q124.677 965.186 122.848 968.751 Q121.043 972.293 121.043 979.422 Q121.043 986.529 122.848 990.093 Q124.677 993.635 128.288 993.635 Q131.922 993.635 133.728 990.093 Q135.556 986.529 135.556 979.422 Q135.556 972.293 133.728 968.751 Q131.922 965.186 128.288 965.186 M128.288 961.482 Q134.098 961.482 137.154 966.089 Q140.232 970.672 140.232 979.422 Q140.232 988.149 137.154 992.755 Q134.098 997.339 128.288 997.339 Q122.478 997.339 119.399 992.755 Q116.343 988.149 116.343 979.422 Q116.343 970.672 119.399 966.089 Q122.478 961.482 128.288 961.482 Z" fill="#000000" fill-rule="evenodd" fill-opacity="1" /><path clip-path="url(#clip110)" d="M 0 0 M145.302 990.788 L150.186 990.788 L150.186 996.667 L145.302 996.667 L145.302 990.788 Z" fill="#000000" fill-rule="evenodd" fill-opacity="1" /><path clip-path="url(#clip110)" d="M 0 0 M159.283 992.732 L175.602 992.732 L175.602 996.667 L153.658 996.667 L153.658 992.732 Q156.32 989.978 160.903 985.348 Q165.51 980.695 166.69 979.353 Q168.936 976.83 169.815 975.094 Q170.718 973.334 170.718 971.644 Q170.718 968.89 168.774 967.154 Q166.852 965.418 163.751 965.418 Q161.552 965.418 159.098 966.182 Q156.667 966.945 153.89 968.496 L153.89 963.774 Q156.714 962.64 159.167 962.061 Q161.621 961.482 163.658 961.482 Q169.028 961.482 172.223 964.168 Q175.417 966.853 175.417 971.344 Q175.417 973.473 174.607 975.394 Q173.82 977.293 171.714 979.885 Q171.135 980.556 168.033 983.774 Q164.931 986.968 159.283 992.732 Z" fill="#000000" fill-rule="evenodd" fill-opacity="1" /><path clip-path="url(#clip110)" d="M 0 0 M127.339 762.761 Q123.728 762.761 121.899 766.326 Q120.093 769.867 120.093 776.997 Q120.093 784.103 121.899 787.668 Q123.728 791.21 127.339 791.21 Q130.973 791.21 132.779 787.668 Q134.607 784.103 134.607 776.997 Q134.607 769.867 132.779 766.326 Q130.973 762.761 127.339 762.761 M127.339 759.057 Q133.149 759.057 136.204 763.664 Q139.283 768.247 139.283 776.997 Q139.283 785.724 136.204 790.33 Q133.149 794.913 127.339 794.913 Q121.529 794.913 118.45 790.33 Q115.394 785.724 115.394 776.997 Q115.394 768.247 118.45 763.664 Q121.529 759.057 127.339 759.057 Z" fill="#000000" fill-rule="evenodd" fill-opacity="1" /><path clip-path="url(#clip110)" d="M 0 0 M144.353 788.362 L149.237 788.362 L149.237 794.242 L144.353 794.242 L144.353 788.362 Z" fill="#000000" fill-rule="evenodd" fill-opacity="1" /><path clip-path="url(#clip110)" d="M 0 0 M168.473 775.608 Q171.829 776.326 173.704 778.594 Q175.602 780.863 175.602 784.196 Q175.602 789.312 172.084 792.112 Q168.565 794.913 162.084 794.913 Q159.908 794.913 157.593 794.474 Q155.302 794.057 152.848 793.2 L152.848 788.687 Q154.792 789.821 157.107 790.4 Q159.422 790.978 161.945 790.978 Q166.343 790.978 168.635 789.242 Q170.95 787.506 170.95 784.196 Q170.95 781.14 168.797 779.427 Q166.667 777.691 162.848 777.691 L158.82 777.691 L158.82 773.849 L163.033 773.849 Q166.482 773.849 168.311 772.483 Q170.139 771.094 170.139 768.501 Q170.139 765.839 168.241 764.427 Q166.366 762.992 162.848 762.992 Q160.927 762.992 158.728 763.409 Q156.528 763.826 153.89 764.705 L153.89 760.539 Q156.552 759.798 158.866 759.427 Q161.204 759.057 163.265 759.057 Q168.589 759.057 171.69 761.488 Q174.792 763.895 174.792 768.015 Q174.792 770.886 173.149 772.876 Q171.505 774.844 168.473 775.608 Z" fill="#000000" fill-rule="evenodd" fill-opacity="1" /><path clip-path="url(#clip110)" d="M 0 0 M126.205 560.335 Q122.593 560.335 120.765 563.9 Q118.959 567.442 118.959 574.571 Q118.959 581.678 120.765 585.243 Q122.593 588.784 126.205 588.784 Q129.839 588.784 131.644 585.243 Q133.473 581.678 133.473 574.571 Q133.473 567.442 131.644 563.9 Q129.839 560.335 126.205 560.335 M126.205 556.632 Q132.015 556.632 135.07 561.238 Q138.149 565.821 138.149 574.571 Q138.149 583.298 135.07 587.905 Q132.015 592.488 126.205 592.488 Q120.394 592.488 117.316 587.905 Q114.26 583.298 114.26 574.571 Q114.26 565.821 117.316 561.238 Q120.394 556.632 126.205 556.632 Z" fill="#000000" fill-rule="evenodd" fill-opacity="1" /><path clip-path="url(#clip110)" d="M 0 0 M143.218 585.937 L148.103 585.937 L148.103 591.817 L143.218 591.817 L143.218 585.937 Z" fill="#000000" fill-rule="evenodd" fill-opacity="1" /><path clip-path="url(#clip110)" d="M 0 0 M166.019 561.331 L154.214 579.78 L166.019 579.78 L166.019 561.331 M164.792 557.257 L170.672 557.257 L170.672 579.78 L175.602 579.78 L175.602 583.669 L170.672 583.669 L170.672 591.817 L166.019 591.817 L166.019 583.669 L150.417 583.669 L150.417 579.155 L164.792 557.257 Z" fill="#000000" fill-rule="evenodd" fill-opacity="1" /><path clip-path="url(#clip110)" d="M 0 0 M127.686 357.91 Q124.075 357.91 122.246 361.475 Q120.441 365.016 120.441 372.146 Q120.441 379.252 122.246 382.817 Q124.075 386.359 127.686 386.359 Q131.32 386.359 133.126 382.817 Q134.954 379.252 134.954 372.146 Q134.954 365.016 133.126 361.475 Q131.32 357.91 127.686 357.91 M127.686 354.206 Q133.496 354.206 136.552 358.813 Q139.63 363.396 139.63 372.146 Q139.63 380.873 136.552 385.479 Q133.496 390.063 127.686 390.063 Q121.876 390.063 118.797 385.479 Q115.742 380.873 115.742 372.146 Q115.742 363.396 118.797 358.813 Q121.876 354.206 127.686 354.206 Z" fill="#000000" fill-rule="evenodd" fill-opacity="1" /><path clip-path="url(#clip110)" d="M 0 0 M144.7 383.512 L149.584 383.512 L149.584 389.391 L144.7 389.391 L144.7 383.512 Z" fill="#000000" fill-rule="evenodd" fill-opacity="1" /><path clip-path="url(#clip110)" d="M 0 0 M154.7 354.831 L173.056 354.831 L173.056 358.766 L158.982 358.766 L158.982 367.239 Q160.001 366.891 161.019 366.729 Q162.038 366.544 163.056 366.544 Q168.843 366.544 172.223 369.715 Q175.602 372.887 175.602 378.303 Q175.602 383.882 172.13 386.984 Q168.658 390.063 162.339 390.063 Q160.163 390.063 157.894 389.692 Q155.649 389.322 153.241 388.581 L153.241 383.882 Q155.325 385.016 157.547 385.572 Q159.769 386.127 162.246 386.127 Q166.251 386.127 168.589 384.021 Q170.927 381.915 170.927 378.303 Q170.927 374.692 168.589 372.586 Q166.251 370.479 162.246 370.479 Q160.371 370.479 158.496 370.896 Q156.644 371.313 154.7 372.192 L154.7 354.831 Z" fill="#000000" fill-rule="evenodd" fill-opacity="1" /><path clip-path="url(#clip110)" d="M 0 0 M126.529 155.485 Q122.918 155.485 121.089 159.049 Q119.283 162.591 119.283 169.721 Q119.283 176.827 121.089 180.392 Q122.918 183.934 126.529 183.934 Q130.163 183.934 131.968 180.392 Q133.797 176.827 133.797 169.721 Q133.797 162.591 131.968 159.049 Q130.163 155.485 126.529 155.485 M126.529 151.781 Q132.339 151.781 135.394 156.387 Q138.473 160.971 138.473 169.721 Q138.473 178.447 135.394 183.054 Q132.339 187.637 126.529 187.637 Q120.718 187.637 117.64 183.054 Q114.584 178.447 114.584 169.721 Q114.584 160.971 117.64 156.387 Q120.718 151.781 126.529 151.781 Z" fill="#000000" fill-rule="evenodd" fill-opacity="1" /><path clip-path="url(#clip110)" d="M 0 0 M143.542 181.086 L148.427 181.086 L148.427 186.966 L143.542 186.966 L143.542 181.086 Z" fill="#000000" fill-rule="evenodd" fill-opacity="1" /><path clip-path="url(#clip110)" d="M 0 0 M164.075 167.823 Q160.927 167.823 159.075 169.975 Q157.246 172.128 157.246 175.878 Q157.246 179.605 159.075 181.781 Q160.927 183.934 164.075 183.934 Q167.223 183.934 169.052 181.781 Q170.903 179.605 170.903 175.878 Q170.903 172.128 169.052 169.975 Q167.223 167.823 164.075 167.823 M173.357 153.17 L173.357 157.429 Q171.598 156.596 169.792 156.156 Q168.01 155.716 166.251 155.716 Q161.621 155.716 159.167 158.841 Q156.737 161.966 156.39 168.285 Q157.755 166.272 159.815 165.207 Q161.876 164.119 164.352 164.119 Q169.561 164.119 172.57 167.29 Q175.602 170.438 175.602 175.878 Q175.602 181.202 172.454 184.42 Q169.306 187.637 164.075 187.637 Q158.079 187.637 154.908 183.054 Q151.737 178.447 151.737 169.721 Q151.737 161.526 155.626 156.665 Q159.515 151.781 166.065 151.781 Q167.825 151.781 169.607 152.128 Q171.413 152.475 173.357 153.17 Z" fill="#000000" fill-rule="evenodd" fill-opacity="1" /><path clip-path="url(#clip110)" d="M 0 0 M21.7677 793.124 L39.6235 793.124 L39.6235 785.04 Q39.6235 780.552 37.3 778.101 Q34.9765 775.65 30.6797 775.65 Q26.4147 775.65 24.0912 778.101 Q21.7677 780.552 21.7677 785.04 L21.7677 793.124 M16.4842 799.553 L16.4842 785.04 Q16.4842 777.051 20.1126 772.977 Q23.7092 768.871 30.6797 768.871 Q37.7138 768.871 41.3104 772.977 Q44.907 777.051 44.907 785.04 L44.907 793.124 L64.0042 793.124 L64.0042 799.553 L16.4842 799.553 Z" fill="#000000" fill-rule="evenodd" fill-opacity="1" /><path clip-path="url(#clip110)" d="M 0 0 M14.5426 748.66 Q21.8632 752.925 29.0246 754.993 Q36.186 757.062 43.5384 757.062 Q50.8908 757.062 58.1159 754.993 Q65.3091 752.893 72.5979 748.66 L72.5979 753.752 Q65.1182 758.526 57.8931 760.914 Q50.668 763.269 43.5384 763.269 Q36.4406 763.269 29.2474 760.914 Q22.0542 758.558 14.5426 753.752 L14.5426 748.66 Z" fill="#000000" fill-rule="evenodd" fill-opacity="1" /><path clip-path="url(#clip110)" d="M 0 0 M35.1993 714.762 Q31.2526 712.566 29.3747 709.51 Q27.4968 706.455 27.4968 702.317 Q27.4968 696.747 31.4117 693.723 Q35.2948 690.7 42.4881 690.7 L64.0042 690.7 L64.0042 696.588 L42.679 696.588 Q37.5546 696.588 35.072 698.402 Q32.5894 700.216 32.5894 703.94 Q32.5894 708.492 35.6131 711.134 Q38.6368 713.775 43.8567 713.775 L64.0042 713.775 L64.0042 719.664 L42.679 719.664 Q37.5228 719.664 35.072 721.478 Q32.5894 723.292 32.5894 727.08 Q32.5894 731.568 35.6449 734.209 Q38.6686 736.851 43.8567 736.851 L64.0042 736.851 L64.0042 742.739 L28.3562 742.739 L28.3562 736.851 L33.8944 736.851 Q30.616 734.846 29.0564 732.045 Q27.4968 729.244 27.4968 725.393 Q27.4968 721.51 29.4702 718.804 Q31.4436 716.067 35.1993 714.762 Z" fill="#000000" fill-rule="evenodd" fill-opacity="1" /><path clip-path="url(#clip110)" d="M 0 0 M14.5426 685.48 L14.5426 680.387 Q22.0542 675.613 29.2474 673.258 Q36.4406 670.871 43.5384 670.871 Q50.668 670.871 57.8931 673.258 Q65.1182 675.613 72.5979 680.387 L72.5979 685.48 Q65.3091 681.247 58.1159 679.178 Q50.8908 677.077 43.5384 677.077 Q36.186 677.077 29.0246 679.178 Q21.8632 681.247 14.5426 685.48 Z" fill="#000000" fill-rule="evenodd" fill-opacity="1" /><path clip-path="url(#clip112)" d="
M329.37 86.1857 L329.37 1384.24 L567.572 1384.24 L567.572 86.1857 L329.37 86.1857 L329.37 86.1857  Z
  " fill="#009af9" fill-rule="evenodd" fill-opacity="1"/>
<polyline clip-path="url(#clip112)" style="stroke:#000000; stroke-width:4; stroke-opacity:1; fill:none" points="
  329.37,86.1857 329.37,1384.24 567.572,1384.24 567.572,86.1857 329.37,86.1857 
  "/>
<path clip-path="url(#clip112)" d="
M567.572 806.411 L567.572 1384.24 L805.774 1384.24 L805.774 806.411 L567.572 806.411 L567.572 806.411  Z
  " fill="#009af9" fill-rule="evenodd" fill-opacity="1"/>
<polyline clip-path="url(#clip112)" style="stroke:#000000; stroke-width:4; stroke-opacity:1; fill:none" points="
  567.572,806.411 567.572,1384.24 805.774,1384.24 805.774,806.411 567.572,806.411 
  "/>
<path clip-path="url(#clip112)" d="
M805.774 1257.22 L805.774 1384.24 L1043.98 1384.24 L1043.98 1257.22 L805.774 1257.22 L805.774 1257.22  Z
  " fill="#009af9" fill-rule="evenodd" fill-opacity="1"/>
<polyline clip-path="url(#clip112)" style="stroke:#000000; stroke-width:4; stroke-opacity:1; fill:none" points="
  805.774,1257.22 805.774,1384.24 1043.98,1384.24 1043.98,1257.22 805.774,1257.22 
  "/>
<path clip-path="url(#clip112)" d="
M1043.98 1365.28 L1043.98 1384.24 L1282.18 1384.24 L1282.18 1365.28 L1043.98 1365.28 L1043.98 1365.28  Z
  " fill="#009af9" fill-rule="evenodd" fill-opacity="1"/>
<polyline clip-path="url(#clip112)" style="stroke:#000000; stroke-width:4; stroke-opacity:1; fill:none" points="
  1043.98,1365.28 1043.98,1384.24 1282.18,1384.24 1282.18,1365.28 1043.98,1365.28 
  "/>
<path clip-path="url(#clip112)" d="
M1282.18 1382.01 L1282.18 1384.24 L1520.38 1384.24 L1520.38 1382.01 L1282.18 1382.01 L1282.18 1382.01  Z
  " fill="#009af9" fill-rule="evenodd" fill-opacity="1"/>
<polyline clip-path="url(#clip112)" style="stroke:#000000; stroke-width:4; stroke-opacity:1; fill:none" points="
  1282.18,1382.01 1282.18,1384.24 1520.38,1384.24 1520.38,1382.01 1282.18,1382.01 
  "/>
<path clip-path="url(#clip112)" d="
M1520.38 1384.08 L1520.38 1384.24 L1758.58 1384.24 L1758.58 1384.08 L1520.38 1384.08 L1520.38 1384.08  Z
  " fill="#009af9" fill-rule="evenodd" fill-opacity="1"/>
<polyline clip-path="url(#clip112)" style="stroke:#000000; stroke-width:4; stroke-opacity:1; fill:none" points="
  1520.38,1384.08 1520.38,1384.24 1758.58,1384.24 1758.58,1384.08 1520.38,1384.08 
  "/>
<path clip-path="url(#clip112)" d="
M1758.58 1384.23 L1758.58 1384.24 L1996.79 1384.24 L1996.79 1384.23 L1758.58 1384.23 L1758.58 1384.23  Z
  " fill="#009af9" fill-rule="evenodd" fill-opacity="1"/>
<polyline clip-path="url(#clip112)" style="stroke:#000000; stroke-width:4; stroke-opacity:1; fill:none" points="
  1758.58,1384.23 1758.58,1384.24 1996.79,1384.24 1996.79,1384.23 1758.58,1384.23 
  "/>
<path clip-path="url(#clip112)" d="
M1996.79 1384.24 L1996.79 1384.24 L2234.99 1384.24 L2234.99 1384.24 L1996.79 1384.24 L1996.79 1384.24  Z
  " fill="#009af9" fill-rule="evenodd" fill-opacity="1"/>
<polyline clip-path="url(#clip112)" style="stroke:#000000; stroke-width:4; stroke-opacity:1; fill:none" points="
  1996.79,1384.24 1996.79,1384.24 2234.99,1384.24 2234.99,1384.24 1996.79,1384.24 
  "/>
<polyline clip-path="url(#clip112)" style="stroke:#e26f46; stroke-width:4; stroke-opacity:1; fill:none" points="
  435.237,2799.12 435.237,-1328.69 
  "/>
<polyline clip-path="url(#clip112)" style="stroke:#3da44d; stroke-width:4; stroke-opacity:1; fill:none" points="
  435.102,2799.12 435.102,-1328.69 
  "/>
<path clip-path="url(#clip110)" d="
M1685.73 335.029 L2281.38 335.029 L2281.38 93.1086 L1685.73 93.1086  Z
  " fill="#ffffff" fill-rule="evenodd" fill-opacity="1"/>
<polyline clip-path="url(#clip110)" style="stroke:#000000; stroke-width:4; stroke-opacity:1; fill:none" points="
  1685.73,335.029 2281.38,335.029 2281.38,93.1086 1685.73,93.1086 1685.73,335.029 
  "/>
<path clip-path="url(#clip110)" d="
M1709.52 177.781 L1852.26 177.781 L1852.26 129.397 L1709.52 129.397 L1709.52 177.781  Z
  " fill="#009af9" fill-rule="evenodd" fill-opacity="1"/>
<polyline clip-path="url(#clip110)" style="stroke:#000000; stroke-width:4; stroke-opacity:1; fill:none" points="
  1709.52,177.781 1852.26,177.781 1852.26,129.397 1709.52,129.397 1709.52,177.781 
  "/>
<path clip-path="url(#clip110)" d="M 0 0 M1889.89 173.276 Q1888.09 177.906 1886.37 179.318 Q1884.66 180.73 1881.79 180.73 L1878.39 180.73 L1878.39 177.165 L1880.89 177.165 Q1882.65 177.165 1883.62 176.332 Q1884.59 175.498 1885.77 172.396 L1886.54 170.452 L1876.05 144.943 L1880.56 144.943 L1888.67 165.221 L1896.77 144.943 L1901.28 144.943 L1889.89 173.276 Z" fill="#000000" fill-rule="evenodd" fill-opacity="1" /><path clip-path="url(#clip110)" d="M 0 0 M1907.16 166.933 L1914.8 166.933 L1914.8 140.568 L1906.49 142.235 L1906.49 137.975 L1914.75 136.309 L1919.43 136.309 L1919.43 166.933 L1927.07 166.933 L1927.07 170.869 L1907.16 170.869 L1907.16 166.933 Z" fill="#000000" fill-rule="evenodd" fill-opacity="1" /><polyline clip-path="url(#clip110)" style="stroke:#e26f46; stroke-width:4; stroke-opacity:1; fill:none" points="
  1709.52,214.069 1852.26,214.069 
  "/>
<path clip-path="url(#clip110)" d="M 0 0 M1883.46 198.062 L1883.46 205.423 L1892.23 205.423 L1892.23 208.733 L1883.46 208.733 L1883.46 222.807 Q1883.46 225.978 1884.31 226.881 Q1885.19 227.784 1887.86 227.784 L1892.23 227.784 L1892.23 231.349 L1887.86 231.349 Q1882.93 231.349 1881.05 229.52 Q1879.18 227.668 1879.18 222.807 L1879.18 208.733 L1876.05 208.733 L1876.05 205.423 L1879.18 205.423 L1879.18 198.062 L1883.46 198.062 Z" fill="#000000" fill-rule="evenodd" fill-opacity="1" /><path clip-path="url(#clip110)" d="M 0 0 M1918.25 215.701 L1918.25 231.349 L1913.99 231.349 L1913.99 215.839 Q1913.99 212.159 1912.55 210.33 Q1911.12 208.502 1908.25 208.502 Q1904.8 208.502 1902.81 210.701 Q1900.82 212.9 1900.82 216.696 L1900.82 231.349 L1896.54 231.349 L1896.54 195.33 L1900.82 195.33 L1900.82 209.451 Q1902.35 207.113 1904.41 205.955 Q1906.49 204.798 1909.2 204.798 Q1913.67 204.798 1915.96 207.576 Q1918.25 210.33 1918.25 215.701 Z" fill="#000000" fill-rule="evenodd" fill-opacity="1" /><path clip-path="url(#clip110)" d="M 0 0 M1944.89 217.321 L1944.89 219.404 L1925.31 219.404 Q1925.59 223.802 1927.95 226.117 Q1930.33 228.409 1934.57 228.409 Q1937.02 228.409 1939.31 227.807 Q1941.63 227.205 1943.9 226.001 L1943.9 230.029 Q1941.61 231.001 1939.2 231.511 Q1936.79 232.02 1934.31 232.02 Q1928.11 232.02 1924.48 228.409 Q1920.86 224.798 1920.86 218.64 Q1920.86 212.275 1924.29 208.548 Q1927.74 204.798 1933.57 204.798 Q1938.8 204.798 1941.84 208.177 Q1944.89 211.534 1944.89 217.321 M1940.63 216.071 Q1940.59 212.576 1938.67 210.492 Q1936.77 208.409 1933.62 208.409 Q1930.05 208.409 1927.9 210.423 Q1925.77 212.437 1925.45 216.094 L1940.63 216.071 Z" fill="#000000" fill-rule="evenodd" fill-opacity="1" /><path clip-path="url(#clip110)" d="M 0 0 M1959.41 208.409 Q1955.98 208.409 1953.99 211.094 Q1952 213.756 1952 218.409 Q1952 223.062 1953.97 225.747 Q1955.96 228.409 1959.41 228.409 Q1962.81 228.409 1964.8 225.724 Q1966.79 223.038 1966.79 218.409 Q1966.79 213.802 1964.8 211.117 Q1962.81 208.409 1959.41 208.409 M1959.41 204.798 Q1964.96 204.798 1968.13 208.409 Q1971.3 212.02 1971.3 218.409 Q1971.3 224.775 1968.13 228.409 Q1964.96 232.02 1959.41 232.02 Q1953.83 232.02 1950.66 228.409 Q1947.51 224.775 1947.51 218.409 Q1947.51 212.02 1950.66 208.409 Q1953.83 204.798 1959.41 204.798 Z" fill="#000000" fill-rule="evenodd" fill-opacity="1" /><path clip-path="url(#clip110)" d="M 0 0 M1990.79 209.404 Q1990.08 208.988 1989.22 208.802 Q1988.39 208.594 1987.37 208.594 Q1983.76 208.594 1981.81 210.955 Q1979.89 213.293 1979.89 217.691 L1979.89 231.349 L1975.61 231.349 L1975.61 205.423 L1979.89 205.423 L1979.89 209.451 Q1981.23 207.089 1983.39 205.955 Q1985.54 204.798 1988.62 204.798 Q1989.06 204.798 1989.59 204.867 Q1990.12 204.914 1990.77 205.029 L1990.79 209.404 Z" fill="#000000" fill-rule="evenodd" fill-opacity="1" /><path clip-path="url(#clip110)" d="M 0 0 M2016.4 217.321 L2016.4 219.404 L1996.81 219.404 Q1997.09 223.802 1999.45 226.117 Q2001.84 228.409 2006.07 228.409 Q2008.53 228.409 2010.82 227.807 Q2013.13 227.205 2015.4 226.001 L2015.4 230.029 Q2013.11 231.001 2010.7 231.511 Q2008.29 232.02 2005.82 232.02 Q1999.61 232.02 1995.98 228.409 Q1992.37 224.798 1992.37 218.64 Q1992.37 212.275 1995.79 208.548 Q1999.24 204.798 2005.08 204.798 Q2010.31 204.798 2013.34 208.177 Q2016.4 211.534 2016.4 217.321 M2012.14 216.071 Q2012.09 212.576 2010.17 210.492 Q2008.27 208.409 2005.12 208.409 Q2001.56 208.409 1999.41 210.423 Q1997.28 212.437 1996.95 216.094 L2012.14 216.071 Z" fill="#000000" fill-rule="evenodd" fill-opacity="1" /><path clip-path="url(#clip110)" d="M 0 0 M2025.08 198.062 L2025.08 205.423 L2033.85 205.423 L2033.85 208.733 L2025.08 208.733 L2025.08 222.807 Q2025.08 225.978 2025.93 226.881 Q2026.81 227.784 2029.48 227.784 L2033.85 227.784 L2033.85 231.349 L2029.48 231.349 Q2024.54 231.349 2022.67 229.52 Q2020.79 227.668 2020.79 222.807 L2020.79 208.733 L2017.67 208.733 L2017.67 205.423 L2020.79 205.423 L2020.79 198.062 L2025.08 198.062 Z" fill="#000000" fill-rule="evenodd" fill-opacity="1" /><path clip-path="url(#clip110)" d="M 0 0 M2038.32 205.423 L2042.58 205.423 L2042.58 231.349 L2038.32 231.349 L2038.32 205.423 M2038.32 195.33 L2042.58 195.33 L2042.58 200.724 L2038.32 200.724 L2038.32 195.33 Z" fill="#000000" fill-rule="evenodd" fill-opacity="1" /><path clip-path="url(#clip110)" d="M 0 0 M2065.7 206.418 L2065.7 210.4 Q2063.9 209.404 2062.07 208.918 Q2060.26 208.409 2058.41 208.409 Q2054.27 208.409 2051.98 211.048 Q2049.68 213.664 2049.68 218.409 Q2049.68 223.154 2051.98 225.793 Q2054.27 228.409 2058.41 228.409 Q2060.26 228.409 2062.07 227.923 Q2063.9 227.413 2065.7 226.418 L2065.7 230.353 Q2063.92 231.187 2062 231.603 Q2060.1 232.02 2057.95 232.02 Q2052.09 232.02 2048.64 228.339 Q2045.19 224.659 2045.19 218.409 Q2045.19 212.066 2048.67 208.432 Q2052.16 204.798 2058.23 204.798 Q2060.19 204.798 2062.07 205.215 Q2063.94 205.608 2065.7 206.418 Z" fill="#000000" fill-rule="evenodd" fill-opacity="1" /><path clip-path="url(#clip110)" d="M 0 0 M2081.95 218.316 Q2076.79 218.316 2074.8 219.497 Q2072.81 220.677 2072.81 223.525 Q2072.81 225.793 2074.29 227.136 Q2075.79 228.455 2078.36 228.455 Q2081.91 228.455 2084.04 225.955 Q2086.19 223.432 2086.19 219.265 L2086.19 218.316 L2081.95 218.316 M2090.45 216.557 L2090.45 231.349 L2086.19 231.349 L2086.19 227.413 Q2084.73 229.775 2082.55 230.909 Q2080.38 232.02 2077.23 232.02 Q2073.25 232.02 2070.89 229.798 Q2068.55 227.552 2068.55 223.802 Q2068.55 219.427 2071.47 217.205 Q2074.41 214.983 2080.22 214.983 L2086.19 214.983 L2086.19 214.566 Q2086.19 211.627 2084.24 210.029 Q2082.32 208.409 2078.83 208.409 Q2076.6 208.409 2074.5 208.941 Q2072.39 209.474 2070.45 210.539 L2070.45 206.603 Q2072.79 205.701 2074.98 205.261 Q2077.18 204.798 2079.27 204.798 Q2084.89 204.798 2087.67 207.714 Q2090.45 210.631 2090.45 216.557 Z" fill="#000000" fill-rule="evenodd" fill-opacity="1" /><path clip-path="url(#clip110)" d="M 0 0 M2094.91 195.33 L2099.17 195.33 L2099.17 231.349 L2094.91 231.349 L2094.91 195.33 Z" fill="#000000" fill-rule="evenodd" fill-opacity="1" /><path clip-path="url(#clip110)" d="M 0 0 M2138.9 210.4 Q2140.49 207.529 2142.72 206.164 Q2144.94 204.798 2147.95 204.798 Q2152 204.798 2154.2 207.645 Q2156.4 210.469 2156.4 215.701 L2156.4 231.349 L2152.11 231.349 L2152.11 215.839 Q2152.11 212.113 2150.79 210.307 Q2149.47 208.502 2146.77 208.502 Q2143.46 208.502 2141.53 210.701 Q2139.61 212.9 2139.61 216.696 L2139.61 231.349 L2135.33 231.349 L2135.33 215.839 Q2135.33 212.089 2134.01 210.307 Q2132.69 208.502 2129.94 208.502 Q2126.67 208.502 2124.75 210.724 Q2122.83 212.923 2122.83 216.696 L2122.83 231.349 L2118.55 231.349 L2118.55 205.423 L2122.83 205.423 L2122.83 209.451 Q2124.29 207.066 2126.33 205.932 Q2128.36 204.798 2131.16 204.798 Q2133.99 204.798 2135.96 206.233 Q2137.95 207.668 2138.9 210.4 Z" fill="#000000" fill-rule="evenodd" fill-opacity="1" /><path clip-path="url(#clip110)" d="M 0 0 M2183.04 217.321 L2183.04 219.404 L2163.46 219.404 Q2163.73 223.802 2166.09 226.117 Q2168.48 228.409 2172.72 228.409 Q2175.17 228.409 2177.46 227.807 Q2179.78 227.205 2182.04 226.001 L2182.04 230.029 Q2179.75 231.001 2177.34 231.511 Q2174.94 232.02 2172.46 232.02 Q2166.26 232.02 2162.62 228.409 Q2159.01 224.798 2159.01 218.64 Q2159.01 212.275 2162.44 208.548 Q2165.89 204.798 2171.72 204.798 Q2176.95 204.798 2179.98 208.177 Q2183.04 211.534 2183.04 217.321 M2178.78 216.071 Q2178.73 212.576 2176.81 210.492 Q2174.91 208.409 2171.77 208.409 Q2168.2 208.409 2166.05 210.423 Q2163.92 212.437 2163.59 216.094 L2178.78 216.071 Z" fill="#000000" fill-rule="evenodd" fill-opacity="1" /><path clip-path="url(#clip110)" d="M 0 0 M2199.29 218.316 Q2194.13 218.316 2192.14 219.497 Q2190.15 220.677 2190.15 223.525 Q2190.15 225.793 2191.63 227.136 Q2193.13 228.455 2195.7 228.455 Q2199.24 228.455 2201.37 225.955 Q2203.53 223.432 2203.53 219.265 L2203.53 218.316 L2199.29 218.316 M2207.78 216.557 L2207.78 231.349 L2203.53 231.349 L2203.53 227.413 Q2202.07 229.775 2199.89 230.909 Q2197.72 232.02 2194.57 232.02 Q2190.59 232.02 2188.22 229.798 Q2185.89 227.552 2185.89 223.802 Q2185.89 219.427 2188.8 217.205 Q2191.74 214.983 2197.55 214.983 L2203.53 214.983 L2203.53 214.566 Q2203.53 211.627 2201.58 210.029 Q2199.66 208.409 2196.16 208.409 Q2193.94 208.409 2191.84 208.941 Q2189.73 209.474 2187.78 210.539 L2187.78 206.603 Q2190.12 205.701 2192.32 205.261 Q2194.52 204.798 2196.6 204.798 Q2202.23 204.798 2205.01 207.714 Q2207.78 210.631 2207.78 216.557 Z" fill="#000000" fill-rule="evenodd" fill-opacity="1" /><path clip-path="url(#clip110)" d="M 0 0 M2233.8 215.701 L2233.8 231.349 L2229.54 231.349 L2229.54 215.839 Q2229.54 212.159 2228.11 210.33 Q2226.67 208.502 2223.8 208.502 Q2220.35 208.502 2218.36 210.701 Q2216.37 212.9 2216.37 216.696 L2216.37 231.349 L2212.09 231.349 L2212.09 205.423 L2216.37 205.423 L2216.37 209.451 Q2217.9 207.113 2219.96 205.955 Q2222.04 204.798 2224.75 204.798 Q2229.22 204.798 2231.51 207.576 Q2233.8 210.33 2233.8 215.701 Z" fill="#000000" fill-rule="evenodd" fill-opacity="1" /><polyline clip-path="url(#clip110)" style="stroke:#3da44d; stroke-width:4; stroke-opacity:1; fill:none" points="
  1709.52,274.549 1852.26,274.549 
  "/>
<path clip-path="url(#clip110)" d="M 0 0 M1894.48 266.667 L1894.48 270.694 Q1892.67 269.769 1890.73 269.306 Q1888.78 268.843 1886.7 268.843 Q1883.53 268.843 1881.93 269.815 Q1880.36 270.787 1880.36 272.731 Q1880.36 274.213 1881.49 275.069 Q1882.62 275.903 1886.05 276.667 L1887.51 276.991 Q1892.05 277.963 1893.94 279.745 Q1895.86 281.505 1895.86 284.676 Q1895.86 288.287 1892.99 290.393 Q1890.15 292.5 1885.15 292.5 Q1883.06 292.5 1880.8 292.083 Q1878.55 291.69 1876.05 290.88 L1876.05 286.481 Q1878.41 287.708 1880.7 288.333 Q1882.99 288.935 1885.24 288.935 Q1888.25 288.935 1889.87 287.917 Q1891.49 286.875 1891.49 285 Q1891.49 283.264 1890.31 282.338 Q1889.15 281.412 1885.19 280.556 L1883.71 280.208 Q1879.75 279.375 1877.99 277.662 Q1876.24 275.926 1876.24 272.917 Q1876.24 269.259 1878.83 267.269 Q1881.42 265.278 1886.19 265.278 Q1888.55 265.278 1890.63 265.625 Q1892.72 265.972 1894.48 266.667 Z" fill="#000000" fill-rule="evenodd" fill-opacity="1" /><path clip-path="url(#clip110)" d="M 0 0 M1904.55 258.542 L1904.55 265.903 L1913.32 265.903 L1913.32 269.213 L1904.55 269.213 L1904.55 283.287 Q1904.55 286.458 1905.4 287.361 Q1906.28 288.264 1908.94 288.264 L1913.32 288.264 L1913.32 291.829 L1908.94 291.829 Q1904.01 291.829 1902.14 290 Q1900.26 288.148 1900.26 283.287 L1900.26 269.213 L1897.14 269.213 L1897.14 265.903 L1900.26 265.903 L1900.26 258.542 L1904.55 258.542 Z" fill="#000000" fill-rule="evenodd" fill-opacity="1" /><path clip-path="url(#clip110)" d="M 0 0 M1929.57 278.796 Q1924.41 278.796 1922.42 279.977 Q1920.42 281.157 1920.42 284.005 Q1920.42 286.273 1921.91 287.616 Q1923.41 288.935 1925.98 288.935 Q1929.52 288.935 1931.65 286.435 Q1933.8 283.912 1933.8 279.745 L1933.8 278.796 L1929.57 278.796 M1938.06 277.037 L1938.06 291.829 L1933.8 291.829 L1933.8 287.893 Q1932.35 290.255 1930.17 291.389 Q1927.99 292.5 1924.85 292.5 Q1920.86 292.5 1918.5 290.278 Q1916.17 288.032 1916.17 284.282 Q1916.17 279.907 1919.08 277.685 Q1922.02 275.463 1927.83 275.463 L1933.8 275.463 L1933.8 275.046 Q1933.8 272.107 1931.86 270.509 Q1929.94 268.889 1926.44 268.889 Q1924.22 268.889 1922.11 269.421 Q1920.01 269.954 1918.06 271.019 L1918.06 267.083 Q1920.4 266.181 1922.6 265.741 Q1924.8 265.278 1926.88 265.278 Q1932.51 265.278 1935.29 268.194 Q1938.06 271.111 1938.06 277.037 Z" fill="#000000" fill-rule="evenodd" fill-opacity="1" /><path clip-path="url(#clip110)" d="M 0 0 M1946.74 258.542 L1946.74 265.903 L1955.52 265.903 L1955.52 269.213 L1946.74 269.213 L1946.74 283.287 Q1946.74 286.458 1947.6 287.361 Q1948.48 288.264 1951.14 288.264 L1955.52 288.264 L1955.52 291.829 L1951.14 291.829 Q1946.21 291.829 1944.34 290 Q1942.46 288.148 1942.46 283.287 L1942.46 269.213 L1939.34 269.213 L1939.34 265.903 L1942.46 265.903 L1942.46 258.542 L1946.74 258.542 Z" fill="#000000" fill-rule="evenodd" fill-opacity="1" /><path clip-path="url(#clip110)" d="M 0 0 M1959.98 265.903 L1964.24 265.903 L1964.24 291.829 L1959.98 291.829 L1959.98 265.903 M1959.98 255.81 L1964.24 255.81 L1964.24 261.204 L1959.98 261.204 L1959.98 255.81 Z" fill="#000000" fill-rule="evenodd" fill-opacity="1" /><path clip-path="url(#clip110)" d="M 0 0 M1985.24 266.667 L1985.24 270.694 Q1983.43 269.769 1981.49 269.306 Q1979.55 268.843 1977.46 268.843 Q1974.29 268.843 1972.69 269.815 Q1971.12 270.787 1971.12 272.731 Q1971.12 274.213 1972.25 275.069 Q1973.39 275.903 1976.81 276.667 L1978.27 276.991 Q1982.81 277.963 1984.71 279.745 Q1986.63 281.505 1986.63 284.676 Q1986.63 288.287 1983.76 290.393 Q1980.91 292.5 1975.91 292.5 Q1973.83 292.5 1971.56 292.083 Q1969.31 291.69 1966.81 290.88 L1966.81 286.481 Q1969.17 287.708 1971.47 288.333 Q1973.76 288.935 1976 288.935 Q1979.01 288.935 1980.63 287.917 Q1982.25 286.875 1982.25 285 Q1982.25 283.264 1981.07 282.338 Q1979.92 281.412 1975.96 280.556 L1974.48 280.208 Q1970.52 279.375 1968.76 277.662 Q1967 275.926 1967 272.917 Q1967 269.259 1969.59 267.269 Q1972.18 265.278 1976.95 265.278 Q1979.31 265.278 1981.4 265.625 Q1983.48 265.972 1985.24 266.667 Z" fill="#000000" fill-rule="evenodd" fill-opacity="1" /><path clip-path="url(#clip110)" d="M 0 0 M1995.31 258.542 L1995.31 265.903 L2004.08 265.903 L2004.08 269.213 L1995.31 269.213 L1995.31 283.287 Q1995.31 286.458 1996.17 287.361 Q1997.04 288.264 1999.71 288.264 L2004.08 288.264 L2004.08 291.829 L1999.71 291.829 Q1994.78 291.829 1992.9 290 Q1991.03 288.148 1991.03 283.287 L1991.03 269.213 L1987.9 269.213 L1987.9 265.903 L1991.03 265.903 L1991.03 258.542 L1995.31 258.542 Z" fill="#000000" fill-rule="evenodd" fill-opacity="1" /><path clip-path="url(#clip110)" d="M 0 0 M2008.55 265.903 L2012.81 265.903 L2012.81 291.829 L2008.55 291.829 L2008.55 265.903 M2008.55 255.81 L2012.81 255.81 L2012.81 261.204 L2008.55 261.204 L2008.55 255.81 Z" fill="#000000" fill-rule="evenodd" fill-opacity="1" /><path clip-path="url(#clip110)" d="M 0 0 M2035.93 266.898 L2035.93 270.88 Q2034.13 269.884 2032.3 269.398 Q2030.49 268.889 2028.64 268.889 Q2024.5 268.889 2022.21 271.528 Q2019.92 274.144 2019.92 278.889 Q2019.92 283.634 2022.21 286.273 Q2024.5 288.889 2028.64 288.889 Q2030.49 288.889 2032.3 288.403 Q2034.13 287.893 2035.93 286.898 L2035.93 290.833 Q2034.15 291.667 2032.23 292.083 Q2030.33 292.5 2028.18 292.5 Q2022.32 292.5 2018.87 288.819 Q2015.42 285.139 2015.42 278.889 Q2015.42 272.546 2018.9 268.912 Q2022.39 265.278 2028.46 265.278 Q2030.42 265.278 2032.3 265.695 Q2034.17 266.088 2035.93 266.898 Z" fill="#000000" fill-rule="evenodd" fill-opacity="1" /><path clip-path="url(#clip110)" d="M 0 0 M2052.18 278.796 Q2047.02 278.796 2045.03 279.977 Q2043.04 281.157 2043.04 284.005 Q2043.04 286.273 2044.52 287.616 Q2046.03 288.935 2048.6 288.935 Q2052.14 288.935 2054.27 286.435 Q2056.42 283.912 2056.42 279.745 L2056.42 278.796 L2052.18 278.796 M2060.68 277.037 L2060.68 291.829 L2056.42 291.829 L2056.42 287.893 Q2054.96 290.255 2052.79 291.389 Q2050.61 292.5 2047.46 292.5 Q2043.48 292.5 2041.12 290.278 Q2038.78 288.032 2038.78 284.282 Q2038.78 279.907 2041.7 277.685 Q2044.64 275.463 2050.45 275.463 L2056.42 275.463 L2056.42 275.046 Q2056.42 272.107 2054.48 270.509 Q2052.55 268.889 2049.06 268.889 Q2046.84 268.889 2044.73 269.421 Q2042.62 269.954 2040.68 271.019 L2040.68 267.083 Q2043.02 266.181 2045.22 265.741 Q2047.42 265.278 2049.5 265.278 Q2055.12 265.278 2057.9 268.194 Q2060.68 271.111 2060.68 277.037 Z" fill="#000000" fill-rule="evenodd" fill-opacity="1" /><path clip-path="url(#clip110)" d="M 0 0 M2065.15 255.81 L2069.41 255.81 L2069.41 291.829 L2065.15 291.829 L2065.15 255.81 Z" fill="#000000" fill-rule="evenodd" fill-opacity="1" /><path clip-path="url(#clip110)" d="M 0 0 M2109.13 270.88 Q2110.72 268.009 2112.95 266.644 Q2115.17 265.278 2118.18 265.278 Q2122.23 265.278 2124.43 268.125 Q2126.63 270.949 2126.63 276.181 L2126.63 291.829 L2122.35 291.829 L2122.35 276.319 Q2122.35 272.593 2121.03 270.787 Q2119.71 268.982 2117 268.982 Q2113.69 268.982 2111.77 271.181 Q2109.85 273.38 2109.85 277.176 L2109.85 291.829 L2105.56 291.829 L2105.56 276.319 Q2105.56 272.569 2104.24 270.787 Q2102.92 268.982 2100.17 268.982 Q2096.91 268.982 2094.98 271.204 Q2093.06 273.403 2093.06 277.176 L2093.06 291.829 L2088.78 291.829 L2088.78 265.903 L2093.06 265.903 L2093.06 269.931 Q2094.52 267.546 2096.56 266.412 Q2098.6 265.278 2101.4 265.278 Q2104.22 265.278 2106.19 266.713 Q2108.18 268.148 2109.13 270.88 Z" fill="#000000" fill-rule="evenodd" fill-opacity="1" /><path clip-path="url(#clip110)" d="M 0 0 M2153.27 277.801 L2153.27 279.884 L2133.69 279.884 Q2133.97 284.282 2136.33 286.597 Q2138.71 288.889 2142.95 288.889 Q2145.4 288.889 2147.69 288.287 Q2150.01 287.685 2152.28 286.481 L2152.28 290.509 Q2149.98 291.481 2147.58 291.991 Q2145.17 292.5 2142.69 292.5 Q2136.49 292.5 2132.85 288.889 Q2129.24 285.278 2129.24 279.12 Q2129.24 272.755 2132.67 269.028 Q2136.12 265.278 2141.95 265.278 Q2147.18 265.278 2150.22 268.657 Q2153.27 272.014 2153.27 277.801 M2149.01 276.551 Q2148.97 273.056 2147.04 270.972 Q2145.15 268.889 2142 268.889 Q2138.43 268.889 2136.28 270.903 Q2134.15 272.917 2133.83 276.574 L2149.01 276.551 Z" fill="#000000" fill-rule="evenodd" fill-opacity="1" /><path clip-path="url(#clip110)" d="M 0 0 M2169.52 278.796 Q2164.36 278.796 2162.37 279.977 Q2160.38 281.157 2160.38 284.005 Q2160.38 286.273 2161.86 287.616 Q2163.36 288.935 2165.93 288.935 Q2169.47 288.935 2171.6 286.435 Q2173.76 283.912 2173.76 279.745 L2173.76 278.796 L2169.52 278.796 M2178.02 277.037 L2178.02 291.829 L2173.76 291.829 L2173.76 287.893 Q2172.3 290.255 2170.12 291.389 Q2167.95 292.5 2164.8 292.5 Q2160.82 292.5 2158.46 290.278 Q2156.12 288.032 2156.12 284.282 Q2156.12 279.907 2159.03 277.685 Q2161.97 275.463 2167.78 275.463 L2173.76 275.463 L2173.76 275.046 Q2173.76 272.107 2171.81 270.509 Q2169.89 268.889 2166.4 268.889 Q2164.17 268.889 2162.07 269.421 Q2159.96 269.954 2158.02 271.019 L2158.02 267.083 Q2160.35 266.181 2162.55 265.741 Q2164.75 265.278 2166.84 265.278 Q2172.46 265.278 2175.24 268.194 Q2178.02 271.111 2178.02 277.037 Z" fill="#000000" fill-rule="evenodd" fill-opacity="1" /><path clip-path="url(#clip110)" d="M 0 0 M2204.03 276.181 L2204.03 291.829 L2199.78 291.829 L2199.78 276.319 Q2199.78 272.639 2198.34 270.81 Q2196.9 268.982 2194.03 268.982 Q2190.59 268.982 2188.59 271.181 Q2186.6 273.38 2186.6 277.176 L2186.6 291.829 L2182.32 291.829 L2182.32 265.903 L2186.6 265.903 L2186.6 269.931 Q2188.13 267.593 2190.19 266.435 Q2192.28 265.278 2194.98 265.278 Q2199.45 265.278 2201.74 268.056 Q2204.03 270.81 2204.03 276.181 Z" fill="#000000" fill-rule="evenodd" fill-opacity="1" /></svg>
