<?xml version="1.0" encoding="utf-8"?>
<svg xmlns="http://www.w3.org/2000/svg" xmlns:xlink="http://www.w3.org/1999/xlink" width="600" height="400" viewBox="0 0 2400 1600">
<defs>
  <clipPath id="clip170">
    <rect x="0" y="0" width="2400" height="1600"/>
  </clipPath>
</defs>
<path clip-path="url(#clip170)" d="
M0 1600 L2400 1600 L2400 0 L0 0  Z
  " fill="#ffffff" fill-rule="evenodd" fill-opacity="1"/>
<defs>
  <clipPath id="clip171">
    <rect x="480" y="0" width="1681" height="1600"/>
  </clipPath>
</defs>
<path clip-path="url(#clip170)" d="
M265.144 1423.18 L2352.76 1423.18 L2352.76 47.2441 L265.144 47.2441  Z
  " fill="#ffffff" fill-rule="evenodd" fill-opacity="1"/>
<defs>
  <clipPath id="clip172">
    <rect x="265" y="47" width="2089" height="1377"/>
  </clipPath>
</defs>
<polyline clip-path="url(#clip172)" style="stroke:#000000; stroke-width:2; stroke-opacity:0.1; fill:none" points="
  379.966,1423.18 379.966,47.2441 
  "/>
<polyline clip-path="url(#clip172)" style="stroke:#000000; stroke-width:2; stroke-opacity:0.1; fill:none" points="
  896.068,1423.18 896.068,47.2441 
  "/>
<polyline clip-path="url(#clip172)" style="stroke:#000000; stroke-width:2; stroke-opacity:0.1; fill:none" points="
  1412.17,1423.18 1412.17,47.2441 
  "/>
<polyline clip-path="url(#clip172)" style="stroke:#000000; stroke-width:2; stroke-opacity:0.1; fill:none" points="
  1928.27,1423.18 1928.27,47.2441 
  "/>
<polyline clip-path="url(#clip170)" style="stroke:#000000; stroke-width:4; stroke-opacity:1; fill:none" points="
  265.144,1423.18 2352.76,1423.18 
  "/>
<polyline clip-path="url(#clip170)" style="stroke:#000000; stroke-width:4; stroke-opacity:1; fill:none" points="
  379.966,1423.18 379.966,1406.67 
  "/>
<polyline clip-path="url(#clip170)" style="stroke:#000000; stroke-width:4; stroke-opacity:1; fill:none" points="
  896.068,1423.18 896.068,1406.67 
  "/>
<polyline clip-path="url(#clip170)" style="stroke:#000000; stroke-width:4; stroke-opacity:1; fill:none" points="
  1412.17,1423.18 1412.17,1406.67 
  "/>
<polyline clip-path="url(#clip170)" style="stroke:#000000; stroke-width:4; stroke-opacity:1; fill:none" points="
  1928.27,1423.18 1928.27,1406.67 
  "/>
<path clip-path="url(#clip170)" d="M 0 0 M379.966 1452.37 Q376.355 1452.37 374.526 1455.94 Q372.721 1459.48 372.721 1466.61 Q372.721 1473.71 374.526 1477.28 Q376.355 1480.82 379.966 1480.82 Q383.6 1480.82 385.406 1477.28 Q387.235 1473.71 387.235 1466.61 Q387.235 1459.48 385.406 1455.94 Q383.6 1452.37 379.966 1452.37 M379.966 1448.67 Q385.776 1448.67 388.832 1453.27 Q391.911 1457.86 391.911 1466.61 Q391.911 1475.33 388.832 1479.94 Q385.776 1484.52 379.966 1484.52 Q374.156 1484.52 371.077 1479.94 Q368.022 1475.33 368.022 1466.61 Q368.022 1457.86 371.077 1453.27 Q374.156 1448.67 379.966 1448.67 Z" fill="#000000" fill-rule="evenodd" fill-opacity="1" /><path clip-path="url(#clip170)" d="M 0 0 M872.943 1479.92 L880.582 1479.92 L880.582 1453.55 L872.272 1455.22 L872.272 1450.96 L880.536 1449.29 L885.212 1449.29 L885.212 1479.92 L892.851 1479.92 L892.851 1483.85 L872.943 1483.85 L872.943 1479.92 Z" fill="#000000" fill-rule="evenodd" fill-opacity="1" /><path clip-path="url(#clip170)" d="M 0 0 M907.92 1452.37 Q904.309 1452.37 902.48 1455.94 Q900.675 1459.48 900.675 1466.61 Q900.675 1473.71 902.48 1477.28 Q904.309 1480.82 907.92 1480.82 Q911.554 1480.82 913.36 1477.28 Q915.188 1473.71 915.188 1466.61 Q915.188 1459.48 913.36 1455.94 Q911.554 1452.37 907.92 1452.37 M907.92 1448.67 Q913.73 1448.67 916.786 1453.27 Q919.864 1457.86 919.864 1466.61 Q919.864 1475.33 916.786 1479.94 Q913.73 1484.52 907.92 1484.52 Q902.11 1484.52 899.031 1479.94 Q895.976 1475.33 895.976 1466.61 Q895.976 1457.86 899.031 1453.27 Q902.11 1448.67 907.92 1448.67 Z" fill="#000000" fill-rule="evenodd" fill-opacity="1" /><path clip-path="url(#clip170)" d="M 0 0 M1393.32 1479.92 L1409.64 1479.92 L1409.64 1483.85 L1387.69 1483.85 L1387.69 1479.92 Q1390.35 1477.16 1394.94 1472.53 Q1399.54 1467.88 1400.72 1466.54 Q1402.97 1464.01 1403.85 1462.28 Q1404.75 1460.52 1404.75 1458.83 Q1404.75 1456.07 1402.81 1454.34 Q1400.89 1452.6 1397.78 1452.6 Q1395.58 1452.6 1393.13 1453.37 Q1390.7 1454.13 1387.92 1455.68 L1387.92 1450.96 Q1390.75 1449.82 1393.2 1449.25 Q1395.65 1448.67 1397.69 1448.67 Q1403.06 1448.67 1406.26 1451.35 Q1409.45 1454.04 1409.45 1458.53 Q1409.45 1460.66 1408.64 1462.58 Q1407.85 1464.48 1405.75 1467.07 Q1405.17 1467.74 1402.07 1470.96 Q1398.96 1474.15 1393.32 1479.92 Z" fill="#000000" fill-rule="evenodd" fill-opacity="1" /><path clip-path="url(#clip170)" d="M 0 0 M1424.7 1452.37 Q1421.09 1452.37 1419.27 1455.94 Q1417.46 1459.48 1417.46 1466.61 Q1417.46 1473.71 1419.27 1477.28 Q1421.09 1480.82 1424.7 1480.82 Q1428.34 1480.82 1430.14 1477.28 Q1431.97 1473.71 1431.97 1466.61 Q1431.97 1459.48 1430.14 1455.94 Q1428.34 1452.37 1424.7 1452.37 M1424.7 1448.67 Q1430.52 1448.67 1433.57 1453.27 Q1436.65 1457.86 1436.65 1466.61 Q1436.65 1475.33 1433.57 1479.94 Q1430.52 1484.52 1424.7 1484.52 Q1418.89 1484.52 1415.82 1479.94 Q1412.76 1475.33 1412.76 1466.61 Q1412.76 1457.86 1415.82 1453.27 Q1418.89 1448.67 1424.7 1448.67 Z" fill="#000000" fill-rule="evenodd" fill-opacity="1" /><path clip-path="url(#clip170)" d="M 0 0 M1919.01 1465.22 Q1922.37 1465.94 1924.24 1468.2 Q1926.14 1470.47 1926.14 1473.81 Q1926.14 1478.92 1922.62 1481.72 Q1919.11 1484.52 1912.62 1484.52 Q1910.45 1484.52 1908.13 1484.08 Q1905.84 1483.67 1903.39 1482.81 L1903.39 1478.3 Q1905.33 1479.43 1907.65 1480.01 Q1909.96 1480.59 1912.49 1480.59 Q1916.88 1480.59 1919.18 1478.85 Q1921.49 1477.12 1921.49 1473.81 Q1921.49 1470.75 1919.34 1469.04 Q1917.21 1467.3 1913.39 1467.3 L1909.36 1467.3 L1909.36 1463.46 L1913.57 1463.46 Q1917.02 1463.46 1918.85 1462.09 Q1920.68 1460.7 1920.68 1458.11 Q1920.68 1455.45 1918.78 1454.04 Q1916.91 1452.6 1913.39 1452.6 Q1911.47 1452.6 1909.27 1453.02 Q1907.07 1453.44 1904.43 1454.31 L1904.43 1450.15 Q1907.09 1449.41 1909.41 1449.04 Q1911.74 1448.67 1913.8 1448.67 Q1919.13 1448.67 1922.23 1451.1 Q1925.33 1453.5 1925.33 1457.63 Q1925.33 1460.5 1923.69 1462.49 Q1922.05 1464.45 1919.01 1465.22 Z" fill="#000000" fill-rule="evenodd" fill-opacity="1" /><path clip-path="url(#clip170)" d="M 0 0 M1941.21 1452.37 Q1937.6 1452.37 1935.77 1455.94 Q1933.97 1459.48 1933.97 1466.61 Q1933.97 1473.71 1935.77 1477.28 Q1937.6 1480.82 1941.21 1480.82 Q1944.85 1480.82 1946.65 1477.28 Q1948.48 1473.71 1948.48 1466.61 Q1948.48 1459.48 1946.65 1455.94 Q1944.85 1452.37 1941.21 1452.37 M1941.21 1448.67 Q1947.02 1448.67 1950.08 1453.27 Q1953.16 1457.86 1953.16 1466.61 Q1953.16 1475.33 1950.08 1479.94 Q1947.02 1484.52 1941.21 1484.52 Q1935.4 1484.52 1932.32 1479.94 Q1929.27 1475.33 1929.27 1466.61 Q1929.27 1457.86 1932.32 1453.27 Q1935.4 1448.67 1941.21 1448.67 Z" fill="#000000" fill-rule="evenodd" fill-opacity="1" /><path clip-path="url(#clip170)" d="M 0 0 M1298.89 1562.7 L1298.89 1581.6 L1293 1581.6 L1293 1532.4 L1298.89 1532.4 L1298.89 1537.81 Q1300.74 1534.62 1303.54 1533.1 Q1306.37 1531.54 1310.29 1531.54 Q1316.78 1531.54 1320.82 1536.69 Q1324.9 1541.85 1324.9 1550.25 Q1324.9 1558.65 1320.82 1563.81 Q1316.78 1568.97 1310.29 1568.97 Q1306.37 1568.97 1303.54 1567.44 Q1300.74 1565.88 1298.89 1562.7 M1318.82 1550.25 Q1318.82 1543.79 1316.14 1540.13 Q1313.5 1536.44 1308.85 1536.44 Q1304.21 1536.44 1301.53 1540.13 Q1298.89 1543.79 1298.89 1550.25 Q1298.89 1556.71 1301.53 1560.4 Q1304.21 1564.07 1308.85 1564.07 Q1313.5 1564.07 1316.14 1560.4 Q1318.82 1556.71 1318.82 1550.25 Z" fill="#000000" fill-rule="evenodd" fill-opacity="1" /><polyline clip-path="url(#clip172)" style="stroke:#000000; stroke-width:2; stroke-opacity:0.1; fill:none" points="
  265.144,1384.24 2352.76,1384.24 
  "/>
<polyline clip-path="url(#clip172)" style="stroke:#000000; stroke-width:2; stroke-opacity:0.1; fill:none" points="
  265.144,1087.35 2352.76,1087.35 
  "/>
<polyline clip-path="url(#clip172)" style="stroke:#000000; stroke-width:2; stroke-opacity:0.1; fill:none" points="
  265.144,790.47 2352.76,790.47 
  "/>
<polyline clip-path="url(#clip172)" style="stroke:#000000; stroke-width:2; stroke-opacity:0.1; fill:none" points="
  265.144,493.587 2352.76,493.587 
  "/>
<polyline clip-path="url(#clip172)" style="stroke:#000000; stroke-width:2; stroke-opacity:0.1; fill:none" points="
  265.144,196.703 2352.76,196.703 
  "/>
<polyline clip-path="url(#clip170)" style="stroke:#000000; stroke-width:4; stroke-opacity:1; fill:none" points="
  265.144,1423.18 265.144,47.2441 
  "/>
<polyline clip-path="url(#clip170)" style="stroke:#000000; stroke-width:4; stroke-opacity:1; fill:none" points="
  265.144,1384.24 290.195,1384.24 
  "/>
<polyline clip-path="url(#clip170)" style="stroke:#000000; stroke-width:4; stroke-opacity:1; fill:none" points="
  265.144,1087.35 290.195,1087.35 
  "/>
<polyline clip-path="url(#clip170)" style="stroke:#000000; stroke-width:4; stroke-opacity:1; fill:none" points="
  265.144,790.47 290.195,790.47 
  "/>
<polyline clip-path="url(#clip170)" style="stroke:#000000; stroke-width:4; stroke-opacity:1; fill:none" points="
  265.144,493.587 290.195,493.587 
  "/>
<polyline clip-path="url(#clip170)" style="stroke:#000000; stroke-width:4; stroke-opacity:1; fill:none" points="
  265.144,196.703 290.195,196.703 
  "/>
<path clip-path="url(#clip170)" d="M 0 0 M126.205 1370.04 Q122.593 1370.04 120.765 1373.6 Q118.959 1377.14 118.959 1384.27 Q118.959 1391.38 120.765 1394.94 Q122.593 1398.49 126.205 1398.49 Q129.839 1398.49 131.644 1394.94 Q133.473 1391.38 133.473 1384.27 Q133.473 1377.14 131.644 1373.6 Q129.839 1370.04 126.205 1370.04 M126.205 1366.33 Q132.015 1366.33 135.07 1370.94 Q138.149 1375.52 138.149 1384.27 Q138.149 1393 135.07 1397.61 Q132.015 1402.19 126.205 1402.19 Q120.394 1402.19 117.316 1397.61 Q114.26 1393 114.26 1384.27 Q114.26 1375.52 117.316 1370.94 Q120.394 1366.33 126.205 1366.33 Z" fill="#000000" fill-rule="evenodd" fill-opacity="1" /><path clip-path="url(#clip170)" d="M 0 0 M143.218 1395.64 L148.103 1395.64 L148.103 1401.52 L143.218 1401.52 L143.218 1395.64 Z" fill="#000000" fill-rule="evenodd" fill-opacity="1" /><path clip-path="url(#clip170)" d="M 0 0 M163.172 1370.04 Q159.561 1370.04 157.732 1373.6 Q155.927 1377.14 155.927 1384.27 Q155.927 1391.38 157.732 1394.94 Q159.561 1398.49 163.172 1398.49 Q166.806 1398.49 168.612 1394.94 Q170.44 1391.38 170.44 1384.27 Q170.44 1377.14 168.612 1373.6 Q166.806 1370.04 163.172 1370.04 M163.172 1366.33 Q168.982 1366.33 172.038 1370.94 Q175.116 1375.52 175.116 1384.27 Q175.116 1393 172.038 1397.61 Q168.982 1402.19 163.172 1402.19 Q157.362 1402.19 154.283 1397.61 Q151.228 1393 151.228 1384.27 Q151.228 1375.52 154.283 1370.94 Q157.362 1366.33 163.172 1366.33 Z" fill="#000000" fill-rule="evenodd" fill-opacity="1" /><path clip-path="url(#clip170)" d="M 0 0 M190.186 1370.04 Q186.575 1370.04 184.746 1373.6 Q182.94 1377.14 182.94 1384.27 Q182.94 1391.38 184.746 1394.94 Q186.575 1398.49 190.186 1398.49 Q193.82 1398.49 195.625 1394.94 Q197.454 1391.38 197.454 1384.27 Q197.454 1377.14 195.625 1373.6 Q193.82 1370.04 190.186 1370.04 M190.186 1366.33 Q195.996 1366.33 199.051 1370.94 Q202.13 1375.52 202.13 1384.27 Q202.13 1393 199.051 1397.61 Q195.996 1402.19 190.186 1402.19 Q184.376 1402.19 181.297 1397.61 Q178.241 1393 178.241 1384.27 Q178.241 1375.52 181.297 1370.94 Q184.376 1366.33 190.186 1366.33 Z" fill="#000000" fill-rule="evenodd" fill-opacity="1" /><path clip-path="url(#clip170)" d="M 0 0 M217.199 1370.04 Q213.588 1370.04 211.76 1373.6 Q209.954 1377.14 209.954 1384.27 Q209.954 1391.38 211.76 1394.94 Q213.588 1398.49 217.199 1398.49 Q220.834 1398.49 222.639 1394.94 Q224.468 1391.38 224.468 1384.27 Q224.468 1377.14 222.639 1373.6 Q220.834 1370.04 217.199 1370.04 M217.199 1366.33 Q223.01 1366.33 226.065 1370.94 Q229.144 1375.52 229.144 1384.27 Q229.144 1393 226.065 1397.61 Q223.01 1402.19 217.199 1402.19 Q211.389 1402.19 208.311 1397.61 Q205.255 1393 205.255 1384.27 Q205.255 1375.52 208.311 1370.94 Q211.389 1366.33 217.199 1366.33 Z" fill="#000000" fill-rule="evenodd" fill-opacity="1" /><path clip-path="url(#clip170)" d="M 0 0 M128.797 1073.15 Q125.186 1073.15 123.357 1076.72 Q121.552 1080.26 121.552 1087.39 Q121.552 1094.5 123.357 1098.06 Q125.186 1101.6 128.797 1101.6 Q132.431 1101.6 134.237 1098.06 Q136.066 1094.5 136.066 1087.39 Q136.066 1080.26 134.237 1076.72 Q132.431 1073.15 128.797 1073.15 M128.797 1069.45 Q134.607 1069.45 137.663 1074.06 Q140.741 1078.64 140.741 1087.39 Q140.741 1096.12 137.663 1100.72 Q134.607 1105.31 128.797 1105.31 Q122.987 1105.31 119.908 1100.72 Q116.853 1096.12 116.853 1087.39 Q116.853 1078.64 119.908 1074.06 Q122.987 1069.45 128.797 1069.45 Z" fill="#000000" fill-rule="evenodd" fill-opacity="1" /><path clip-path="url(#clip170)" d="M 0 0 M145.811 1098.75 L150.695 1098.75 L150.695 1104.63 L145.811 1104.63 L145.811 1098.75 Z" fill="#000000" fill-rule="evenodd" fill-opacity="1" /><path clip-path="url(#clip170)" d="M 0 0 M165.765 1073.15 Q162.153 1073.15 160.325 1076.72 Q158.519 1080.26 158.519 1087.39 Q158.519 1094.5 160.325 1098.06 Q162.153 1101.6 165.765 1101.6 Q169.399 1101.6 171.204 1098.06 Q173.033 1094.5 173.033 1087.39 Q173.033 1080.26 171.204 1076.72 Q169.399 1073.15 165.765 1073.15 M165.765 1069.45 Q171.575 1069.45 174.63 1074.06 Q177.709 1078.64 177.709 1087.39 Q177.709 1096.12 174.63 1100.72 Q171.575 1105.31 165.765 1105.31 Q159.954 1105.31 156.876 1100.72 Q153.82 1096.12 153.82 1087.39 Q153.82 1078.64 156.876 1074.06 Q159.954 1069.45 165.765 1069.45 Z" fill="#000000" fill-rule="evenodd" fill-opacity="1" /><path clip-path="url(#clip170)" d="M 0 0 M186.806 1100.7 L203.125 1100.7 L203.125 1104.63 L181.181 1104.63 L181.181 1100.7 Q183.843 1097.94 188.426 1093.31 Q193.033 1088.66 194.213 1087.32 Q196.459 1084.8 197.338 1083.06 Q198.241 1081.3 198.241 1079.61 Q198.241 1076.86 196.297 1075.12 Q194.375 1073.38 191.274 1073.38 Q189.075 1073.38 186.621 1074.15 Q184.19 1074.91 181.413 1076.46 L181.413 1071.74 Q184.237 1070.61 186.69 1070.03 Q189.144 1069.45 191.181 1069.45 Q196.551 1069.45 199.746 1072.13 Q202.94 1074.82 202.94 1079.31 Q202.94 1081.44 202.13 1083.36 Q201.343 1085.26 199.237 1087.85 Q198.658 1088.52 195.556 1091.74 Q192.454 1094.94 186.806 1100.7 Z" fill="#000000" fill-rule="evenodd" fill-opacity="1" /><path clip-path="url(#clip170)" d="M 0 0 M208.241 1070.07 L226.598 1070.07 L226.598 1074.01 L212.524 1074.01 L212.524 1082.48 Q213.542 1082.13 214.561 1081.97 Q215.579 1081.79 216.598 1081.79 Q222.385 1081.79 225.764 1084.96 Q229.144 1088.13 229.144 1093.55 Q229.144 1099.13 225.672 1102.23 Q222.199 1105.31 215.88 1105.31 Q213.704 1105.31 211.436 1104.94 Q209.19 1104.56 206.783 1103.82 L206.783 1099.13 Q208.866 1100.26 211.088 1100.81 Q213.311 1101.37 215.787 1101.37 Q219.792 1101.37 222.13 1099.26 Q224.468 1097.16 224.468 1093.55 Q224.468 1089.94 222.13 1087.83 Q219.792 1085.72 215.787 1085.72 Q213.912 1085.72 212.037 1086.14 Q210.186 1086.56 208.241 1087.44 L208.241 1070.07 Z" fill="#000000" fill-rule="evenodd" fill-opacity="1" /><path clip-path="url(#clip170)" d="M 0 0 M127.2 776.269 Q123.589 776.269 121.76 779.834 Q119.955 783.376 119.955 790.505 Q119.955 797.612 121.76 801.176 Q123.589 804.718 127.2 804.718 Q130.834 804.718 132.64 801.176 Q134.468 797.612 134.468 790.505 Q134.468 783.376 132.64 779.834 Q130.834 776.269 127.2 776.269 M127.2 772.565 Q133.01 772.565 136.066 777.172 Q139.144 781.755 139.144 790.505 Q139.144 799.232 136.066 803.838 Q133.01 808.422 127.2 808.422 Q121.39 808.422 118.311 803.838 Q115.256 799.232 115.256 790.505 Q115.256 781.755 118.311 777.172 Q121.39 772.565 127.2 772.565 Z" fill="#000000" fill-rule="evenodd" fill-opacity="1" /><path clip-path="url(#clip170)" d="M 0 0 M144.214 801.871 L149.098 801.871 L149.098 807.75 L144.214 807.75 L144.214 801.871 Z" fill="#000000" fill-rule="evenodd" fill-opacity="1" /><path clip-path="url(#clip170)" d="M 0 0 M164.167 776.269 Q160.556 776.269 158.728 779.834 Q156.922 783.376 156.922 790.505 Q156.922 797.612 158.728 801.176 Q160.556 804.718 164.167 804.718 Q167.802 804.718 169.607 801.176 Q171.436 797.612 171.436 790.505 Q171.436 783.376 169.607 779.834 Q167.802 776.269 164.167 776.269 M164.167 772.565 Q169.977 772.565 173.033 777.172 Q176.112 781.755 176.112 790.505 Q176.112 799.232 173.033 803.838 Q169.977 808.422 164.167 808.422 Q158.357 808.422 155.278 803.838 Q152.223 799.232 152.223 790.505 Q152.223 781.755 155.278 777.172 Q158.357 772.565 164.167 772.565 Z" fill="#000000" fill-rule="evenodd" fill-opacity="1" /><path clip-path="url(#clip170)" d="M 0 0 M181.227 773.19 L199.584 773.19 L199.584 777.126 L185.51 777.126 L185.51 785.598 Q186.528 785.251 187.547 785.089 Q188.565 784.903 189.584 784.903 Q195.371 784.903 198.75 788.075 Q202.13 791.246 202.13 796.663 Q202.13 802.241 198.658 805.343 Q195.186 808.422 188.866 808.422 Q186.69 808.422 184.422 808.051 Q182.176 807.681 179.769 806.94 L179.769 802.241 Q181.852 803.375 184.075 803.931 Q186.297 804.487 188.774 804.487 Q192.778 804.487 195.116 802.38 Q197.454 800.274 197.454 796.663 Q197.454 793.051 195.116 790.945 Q192.778 788.839 188.774 788.839 Q186.899 788.839 185.024 789.255 Q183.172 789.672 181.227 790.551 L181.227 773.19 Z" fill="#000000" fill-rule="evenodd" fill-opacity="1" /><path clip-path="url(#clip170)" d="M 0 0 M217.199 776.269 Q213.588 776.269 211.76 779.834 Q209.954 783.376 209.954 790.505 Q209.954 797.612 211.76 801.176 Q213.588 804.718 217.199 804.718 Q220.834 804.718 222.639 801.176 Q224.468 797.612 224.468 790.505 Q224.468 783.376 222.639 779.834 Q220.834 776.269 217.199 776.269 M217.199 772.565 Q223.01 772.565 226.065 777.172 Q229.144 781.755 229.144 790.505 Q229.144 799.232 226.065 803.838 Q223.01 808.422 217.199 808.422 Q211.389 808.422 208.311 803.838 Q205.255 799.232 205.255 790.505 Q205.255 781.755 208.311 777.172 Q211.389 772.565 217.199 772.565 Z" fill="#000000" fill-rule="evenodd" fill-opacity="1" /><path clip-path="url(#clip170)" d="M 0 0 M128.103 479.385 Q124.492 479.385 122.663 482.95 Q120.857 486.492 120.857 493.621 Q120.857 500.728 122.663 504.293 Q124.492 507.834 128.103 507.834 Q131.737 507.834 133.542 504.293 Q135.371 500.728 135.371 493.621 Q135.371 486.492 133.542 482.95 Q131.737 479.385 128.103 479.385 M128.103 475.682 Q133.913 475.682 136.968 480.288 Q140.047 484.871 140.047 493.621 Q140.047 502.348 136.968 506.955 Q133.913 511.538 128.103 511.538 Q122.293 511.538 119.214 506.955 Q116.158 502.348 116.158 493.621 Q116.158 484.871 119.214 480.288 Q122.293 475.682 128.103 475.682 Z" fill="#000000" fill-rule="evenodd" fill-opacity="1" /><path clip-path="url(#clip170)" d="M 0 0 M145.116 504.987 L150.001 504.987 L150.001 510.867 L145.116 510.867 L145.116 504.987 Z" fill="#000000" fill-rule="evenodd" fill-opacity="1" /><path clip-path="url(#clip170)" d="M 0 0 M165.07 479.385 Q161.459 479.385 159.63 482.95 Q157.825 486.492 157.825 493.621 Q157.825 500.728 159.63 504.293 Q161.459 507.834 165.07 507.834 Q168.704 507.834 170.51 504.293 Q172.339 500.728 172.339 493.621 Q172.339 486.492 170.51 482.95 Q168.704 479.385 165.07 479.385 M165.07 475.682 Q170.88 475.682 173.936 480.288 Q177.014 484.871 177.014 493.621 Q177.014 502.348 173.936 506.955 Q170.88 511.538 165.07 511.538 Q159.26 511.538 156.181 506.955 Q153.126 502.348 153.126 493.621 Q153.126 484.871 156.181 480.288 Q159.26 475.682 165.07 475.682 Z" fill="#000000" fill-rule="evenodd" fill-opacity="1" /><path clip-path="url(#clip170)" d="M 0 0 M180.903 476.307 L203.125 476.307 L203.125 478.297 L190.579 510.867 L185.695 510.867 L197.5 480.242 L180.903 480.242 L180.903 476.307 Z" fill="#000000" fill-rule="evenodd" fill-opacity="1" /><path clip-path="url(#clip170)" d="M 0 0 M208.241 476.307 L226.598 476.307 L226.598 480.242 L212.524 480.242 L212.524 488.714 Q213.542 488.367 214.561 488.205 Q215.579 488.019 216.598 488.019 Q222.385 488.019 225.764 491.191 Q229.144 494.362 229.144 499.779 Q229.144 505.357 225.672 508.459 Q222.199 511.538 215.88 511.538 Q213.704 511.538 211.436 511.167 Q209.19 510.797 206.783 510.056 L206.783 505.357 Q208.866 506.492 211.088 507.047 Q213.311 507.603 215.787 507.603 Q219.792 507.603 222.13 505.496 Q224.468 503.39 224.468 499.779 Q224.468 496.168 222.13 494.061 Q219.792 491.955 215.787 491.955 Q213.912 491.955 212.037 492.371 Q210.186 492.788 208.241 493.668 L208.241 476.307 Z" fill="#000000" fill-rule="evenodd" fill-opacity="1" /><path clip-path="url(#clip170)" d="M 0 0 M127.431 182.501 Q123.82 182.501 121.992 186.066 Q120.186 189.608 120.186 196.737 Q120.186 203.844 121.992 207.409 Q123.82 210.95 127.431 210.95 Q131.066 210.95 132.871 207.409 Q134.7 203.844 134.7 196.737 Q134.7 189.608 132.871 186.066 Q131.066 182.501 127.431 182.501 M127.431 178.798 Q133.242 178.798 136.297 183.404 Q139.376 187.987 139.376 196.737 Q139.376 205.464 136.297 210.071 Q133.242 214.654 127.431 214.654 Q121.621 214.654 118.543 210.071 Q115.487 205.464 115.487 196.737 Q115.487 187.987 118.543 183.404 Q121.621 178.798 127.431 178.798 Z" fill="#000000" fill-rule="evenodd" fill-opacity="1" /><path clip-path="url(#clip170)" d="M 0 0 M144.445 208.103 L149.329 208.103 L149.329 213.983 L144.445 213.983 L144.445 208.103 Z" fill="#000000" fill-rule="evenodd" fill-opacity="1" /><path clip-path="url(#clip170)" d="M 0 0 M155.209 210.048 L162.848 210.048 L162.848 183.682 L154.538 185.349 L154.538 181.089 L162.802 179.423 L167.477 179.423 L167.477 210.048 L175.116 210.048 L175.116 213.983 L155.209 213.983 L155.209 210.048 Z" fill="#000000" fill-rule="evenodd" fill-opacity="1" /><path clip-path="url(#clip170)" d="M 0 0 M190.186 182.501 Q186.575 182.501 184.746 186.066 Q182.94 189.608 182.94 196.737 Q182.94 203.844 184.746 207.409 Q186.575 210.95 190.186 210.95 Q193.82 210.95 195.625 207.409 Q197.454 203.844 197.454 196.737 Q197.454 189.608 195.625 186.066 Q193.82 182.501 190.186 182.501 M190.186 178.798 Q195.996 178.798 199.051 183.404 Q202.13 187.987 202.13 196.737 Q202.13 205.464 199.051 210.071 Q195.996 214.654 190.186 214.654 Q184.376 214.654 181.297 210.071 Q178.241 205.464 178.241 196.737 Q178.241 187.987 181.297 183.404 Q184.376 178.798 190.186 178.798 Z" fill="#000000" fill-rule="evenodd" fill-opacity="1" /><path clip-path="url(#clip170)" d="M 0 0 M217.199 182.501 Q213.588 182.501 211.76 186.066 Q209.954 189.608 209.954 196.737 Q209.954 203.844 211.76 207.409 Q213.588 210.95 217.199 210.95 Q220.834 210.95 222.639 207.409 Q224.468 203.844 224.468 196.737 Q224.468 189.608 222.639 186.066 Q220.834 182.501 217.199 182.501 M217.199 178.798 Q223.01 178.798 226.065 183.404 Q229.144 187.987 229.144 196.737 Q229.144 205.464 226.065 210.071 Q223.01 214.654 217.199 214.654 Q211.389 214.654 208.311 210.071 Q205.255 205.464 205.255 196.737 Q205.255 187.987 208.311 183.404 Q211.389 178.798 217.199 178.798 Z" fill="#000000" fill-rule="evenodd" fill-opacity="1" /><path clip-path="url(#clip170)" d="M 0 0 M21.7677 783.05 L39.6235 783.05 L39.6235 774.966 Q39.6235 770.478 37.3 768.027 Q34.9765 765.576 30.6797 765.576 Q26.4147 765.576 24.0912 768.027 Q21.7677 770.478 21.7677 774.966 L21.7677 783.05 M16.4842 789.48 L16.4842 774.966 Q16.4842 766.977 20.1126 762.903 Q23.7092 758.797 30.6797 758.797 Q37.7138 758.797 41.3104 762.903 Q44.907 766.977 44.907 774.966 L44.907 783.05 L64.0042 783.05 L64.0042 789.48 L16.4842 789.48 Z" fill="#000000" fill-rule="evenodd" fill-opacity="1" /><path clip-path="url(#clip170)" d="M 0 0 M14.5426 738.586 Q21.8632 742.851 29.0246 744.92 Q36.186 746.989 43.5384 746.989 Q50.8908 746.989 58.1159 744.92 Q65.3091 742.819 72.5979 738.586 L72.5979 743.678 Q65.1182 748.453 57.8931 750.84 Q50.668 753.195 43.5384 753.195 Q36.4406 753.195 29.2474 750.84 Q22.0542 748.484 14.5426 743.678 L14.5426 738.586 Z" fill="#000000" fill-rule="evenodd" fill-opacity="1" /><path clip-path="url(#clip170)" d="M 0 0 M58.657 726.777 L77.5631 726.777 L77.5631 732.666 L28.3562 732.666 L28.3562 726.777 L33.7671 726.777 Q30.5842 724.931 29.0564 722.13 Q27.4968 719.298 27.4968 715.383 Q27.4968 708.89 32.6531 704.848 Q37.8093 700.773 46.212 700.773 Q54.6147 700.773 59.771 704.848 Q64.9272 708.89 64.9272 715.383 Q64.9272 719.298 63.3994 722.13 Q61.8398 724.931 58.657 726.777 M46.212 706.853 Q39.7508 706.853 36.0905 709.526 Q32.3984 712.168 32.3984 716.815 Q32.3984 721.462 36.0905 724.136 Q39.7508 726.777 46.212 726.777 Q52.6732 726.777 56.3653 724.136 Q60.0256 721.462 60.0256 716.815 Q60.0256 712.168 56.3653 709.526 Q52.6732 706.853 46.212 706.853 Z" fill="#000000" fill-rule="evenodd" fill-opacity="1" /><path clip-path="url(#clip170)" d="M 0 0 M14.5426 695.554 L14.5426 690.461 Q22.0542 685.687 29.2474 683.331 Q36.4406 680.944 43.5384 680.944 Q50.668 680.944 57.8931 683.331 Q65.1182 685.687 72.5979 690.461 L72.5979 695.554 Q65.3091 691.32 58.1159 689.252 Q50.8908 687.151 43.5384 687.151 Q36.186 687.151 29.0246 689.252 Q21.8632 691.32 14.5426 695.554 Z" fill="#000000" fill-rule="evenodd" fill-opacity="1" /><path clip-path="url(#clip172)" d="
M379.966 1378.21 L379.966 1384.24 L431.576 1384.24 L431.576 1378.21 L379.966 1378.21 L379.966 1378.21  Z
  " fill="#009af9" fill-rule="evenodd" fill-opacity="1"/>
<polyline clip-path="url(#clip172)" style="stroke:#000000; stroke-width:4; stroke-opacity:1; fill:none" points="
  379.966,1378.21 379.966,1384.24 431.576,1384.24 431.576,1378.21 379.966,1378.21 
  "/>
<path clip-path="url(#clip172)" d="
M431.576 1345.64 L431.576 1384.24 L483.187 1384.24 L483.187 1345.64 L431.576 1345.64 L431.576 1345.64  Z
  " fill="#009af9" fill-rule="evenodd" fill-opacity="1"/>
<polyline clip-path="url(#clip172)" style="stroke:#000000; stroke-width:4; stroke-opacity:1; fill:none" points="
  431.576,1345.64 431.576,1384.24 483.187,1384.24 483.187,1345.64 431.576,1345.64 
  "/>
<path clip-path="url(#clip172)" d="
M483.187 1259.23 L483.187 1384.24 L534.797 1384.24 L534.797 1259.23 L483.187 1259.23 L483.187 1259.23  Z
  " fill="#009af9" fill-rule="evenodd" fill-opacity="1"/>
<polyline clip-path="url(#clip172)" style="stroke:#000000; stroke-width:4; stroke-opacity:1; fill:none" points="
  483.187,1259.23 483.187,1384.24 534.797,1384.24 534.797,1259.23 483.187,1259.23 
  "/>
<path clip-path="url(#clip172)" d="
M534.797 1097.27 L534.797 1384.24 L586.407 1384.24 L586.407 1097.27 L534.797 1097.27 L534.797 1097.27  Z
  " fill="#009af9" fill-rule="evenodd" fill-opacity="1"/>
<polyline clip-path="url(#clip172)" style="stroke:#000000; stroke-width:4; stroke-opacity:1; fill:none" points="
  534.797,1097.27 534.797,1384.24 586.407,1384.24 586.407,1097.27 534.797,1097.27 
  "/>
<path clip-path="url(#clip172)" d="
M586.407 869.092 L586.407 1384.24 L638.017 1384.24 L638.017 869.092 L586.407 869.092 L586.407 869.092  Z
  " fill="#009af9" fill-rule="evenodd" fill-opacity="1"/>
<polyline clip-path="url(#clip172)" style="stroke:#000000; stroke-width:4; stroke-opacity:1; fill:none" points="
  586.407,869.092 586.407,1384.24 638.017,1384.24 638.017,869.092 586.407,869.092 
  "/>
<path clip-path="url(#clip172)" d="
M638.017 598.705 L638.017 1384.24 L689.627 1384.24 L689.627 598.705 L638.017 598.705 L638.017 598.705  Z
  " fill="#009af9" fill-rule="evenodd" fill-opacity="1"/>
<polyline clip-path="url(#clip172)" style="stroke:#000000; stroke-width:4; stroke-opacity:1; fill:none" points="
  638.017,598.705 638.017,1384.24 689.627,1384.24 689.627,598.705 638.017,598.705 
  "/>
<path clip-path="url(#clip172)" d="
M689.627 350.38 L689.627 1384.24 L741.238 1384.24 L741.238 350.38 L689.627 350.38 L689.627 350.38  Z
  " fill="#009af9" fill-rule="evenodd" fill-opacity="1"/>
<polyline clip-path="url(#clip172)" style="stroke:#000000; stroke-width:4; stroke-opacity:1; fill:none" points="
  689.627,350.38 689.627,1384.24 741.238,1384.24 741.238,350.38 689.627,350.38 
  "/>
<path clip-path="url(#clip172)" d="
M741.238 172.273 L741.238 1384.24 L792.848 1384.24 L792.848 172.273 L741.238 172.273 L741.238 172.273  Z
  " fill="#009af9" fill-rule="evenodd" fill-opacity="1"/>
<polyline clip-path="url(#clip172)" style="stroke:#000000; stroke-width:4; stroke-opacity:1; fill:none" points="
  741.238,172.273 741.238,1384.24 792.848,1384.24 792.848,172.273 741.238,172.273 
  "/>
<path clip-path="url(#clip172)" d="
M792.848 86.1857 L792.848 1384.24 L844.458 1384.24 L844.458 86.1857 L792.848 86.1857 L792.848 86.1857  Z
  " fill="#009af9" fill-rule="evenodd" fill-opacity="1"/>
<polyline clip-path="url(#clip172)" style="stroke:#000000; stroke-width:4; stroke-opacity:1; fill:none" points="
  792.848,86.1857 792.848,1384.24 844.458,1384.24 844.458,86.1857 792.848,86.1857 
  "/>
<path clip-path="url(#clip172)" d="
M844.458 95.3983 L844.458 1384.24 L896.068 1384.24 L896.068 95.3983 L844.458 95.3983 L844.458 95.3983  Z
  " fill="#009af9" fill-rule="evenodd" fill-opacity="1"/>
<polyline clip-path="url(#clip172)" style="stroke:#000000; stroke-width:4; stroke-opacity:1; fill:none" points="
  844.458,95.3983 844.458,1384.24 896.068,1384.24 896.068,95.3983 844.458,95.3983 
  "/>
<path clip-path="url(#clip172)" d="
M896.068 190.58 L896.068 1384.24 L947.678 1384.24 L947.678 190.58 L896.068 190.58 L896.068 190.58  Z
  " fill="#009af9" fill-rule="evenodd" fill-opacity="1"/>
<polyline clip-path="url(#clip172)" style="stroke:#000000; stroke-width:4; stroke-opacity:1; fill:none" points="
  896.068,190.58 896.068,1384.24 947.678,1384.24 947.678,190.58 896.068,190.58 
  "/>
<path clip-path="url(#clip172)" d="
M947.678 358.012 L947.678 1384.24 L999.289 1384.24 L999.289 358.012 L947.678 358.012 L947.678 358.012  Z
  " fill="#009af9" fill-rule="evenodd" fill-opacity="1"/>
<polyline clip-path="url(#clip172)" style="stroke:#000000; stroke-width:4; stroke-opacity:1; fill:none" points="
  947.678,358.012 947.678,1384.24 999.289,1384.24 999.289,358.012 947.678,358.012 
  "/>
<path clip-path="url(#clip172)" d="
M999.289 538.947 L999.289 1384.24 L1050.9 1384.24 L1050.9 538.947 L999.289 538.947 L999.289 538.947  Z
  " fill="#009af9" fill-rule="evenodd" fill-opacity="1"/>
<polyline clip-path="url(#clip172)" style="stroke:#000000; stroke-width:4; stroke-opacity:1; fill:none" points="
  999.289,538.947 999.289,1384.24 1050.9,1384.24 1050.9,538.947 999.289,538.947 
  "/>
<path clip-path="url(#clip172)" d="
M1050.9 724.151 L1050.9 1384.24 L1102.51 1384.24 L1102.51 724.151 L1050.9 724.151 L1050.9 724.151  Z
  " fill="#009af9" fill-rule="evenodd" fill-opacity="1"/>
<polyline clip-path="url(#clip172)" style="stroke:#000000; stroke-width:4; stroke-opacity:1; fill:none" points="
  1050.9,724.151 1050.9,1384.24 1102.51,1384.24 1102.51,724.151 1050.9,724.151 
  "/>
<path clip-path="url(#clip172)" d="
M1102.51 889.574 L1102.51 1384.24 L1154.12 1384.24 L1154.12 889.574 L1102.51 889.574 L1102.51 889.574  Z
  " fill="#009af9" fill-rule="evenodd" fill-opacity="1"/>
<polyline clip-path="url(#clip172)" style="stroke:#000000; stroke-width:4; stroke-opacity:1; fill:none" points="
  1102.51,889.574 1102.51,1384.24 1154.12,1384.24 1154.12,889.574 1102.51,889.574 
  "/>
<path clip-path="url(#clip172)" d="
M1154.12 1026.62 L1154.12 1384.24 L1205.73 1384.24 L1205.73 1026.62 L1154.12 1026.62 L1154.12 1026.62  Z
  " fill="#009af9" fill-rule="evenodd" fill-opacity="1"/>
<polyline clip-path="url(#clip172)" style="stroke:#000000; stroke-width:4; stroke-opacity:1; fill:none" points="
  1154.12,1026.62 1154.12,1384.24 1205.73,1384.24 1205.73,1026.62 1154.12,1026.62 
  "/>
<path clip-path="url(#clip172)" d="
M1205.73 1132.42 L1205.73 1384.24 L1257.34 1384.24 L1257.34 1132.42 L1205.73 1132.42 L1205.73 1132.42  Z
  " fill="#009af9" fill-rule="evenodd" fill-opacity="1"/>
<polyline clip-path="url(#clip172)" style="stroke:#000000; stroke-width:4; stroke-opacity:1; fill:none" points="
  1205.73,1132.42 1205.73,1384.24 1257.34,1384.24 1257.34,1132.42 1205.73,1132.42 
  "/>
<path clip-path="url(#clip172)" d="
M1257.34 1214.07 L1257.34 1384.24 L1308.95 1384.24 L1308.95 1214.07 L1257.34 1214.07 L1257.34 1214.07  Z
  " fill="#009af9" fill-rule="evenodd" fill-opacity="1"/>
<polyline clip-path="url(#clip172)" style="stroke:#000000; stroke-width:4; stroke-opacity:1; fill:none" points="
  1257.34,1214.07 1257.34,1384.24 1308.95,1384.24 1308.95,1214.07 1257.34,1214.07 
  "/>
<path clip-path="url(#clip172)" d="
M1308.95 1273.54 L1308.95 1384.24 L1360.56 1384.24 L1360.56 1273.54 L1308.95 1273.54 L1308.95 1273.54  Z
  " fill="#009af9" fill-rule="evenodd" fill-opacity="1"/>
<polyline clip-path="url(#clip172)" style="stroke:#000000; stroke-width:4; stroke-opacity:1; fill:none" points="
  1308.95,1273.54 1308.95,1384.24 1360.56,1384.24 1360.56,1273.54 1308.95,1273.54 
  "/>
<path clip-path="url(#clip172)" d="
M1360.56 1314.16 L1360.56 1384.24 L1412.17 1384.24 L1412.17 1314.16 L1360.56 1314.16 L1360.56 1314.16  Z
  " fill="#009af9" fill-rule="evenodd" fill-opacity="1"/>
<polyline clip-path="url(#clip172)" style="stroke:#000000; stroke-width:4; stroke-opacity:1; fill:none" points="
  1360.56,1314.16 1360.56,1384.24 1412.17,1384.24 1412.17,1314.16 1360.56,1314.16 
  "/>
<path clip-path="url(#clip172)" d="
M1412.17 1340.81 L1412.17 1384.24 L1463.78 1384.24 L1463.78 1340.81 L1412.17 1340.81 L1412.17 1340.81  Z
  " fill="#009af9" fill-rule="evenodd" fill-opacity="1"/>
<polyline clip-path="url(#clip172)" style="stroke:#000000; stroke-width:4; stroke-opacity:1; fill:none" points="
  1412.17,1340.81 1412.17,1384.24 1463.78,1384.24 1463.78,1340.81 1412.17,1340.81 
  "/>
<path clip-path="url(#clip172)" d="
M1463.78 1357.93 L1463.78 1384.24 L1515.39 1384.24 L1515.39 1357.93 L1463.78 1357.93 L1463.78 1357.93  Z
  " fill="#009af9" fill-rule="evenodd" fill-opacity="1"/>
<polyline clip-path="url(#clip172)" style="stroke:#000000; stroke-width:4; stroke-opacity:1; fill:none" points="
  1463.78,1357.93 1463.78,1384.24 1515.39,1384.24 1515.39,1357.93 1463.78,1357.93 
  "/>
<path clip-path="url(#clip172)" d="
M1515.39 1369 L1515.39 1384.24 L1567 1384.24 L1567 1369 L1515.39 1369 L1515.39 1369  Z
  " fill="#009af9" fill-rule="evenodd" fill-opacity="1"/>
<polyline clip-path="url(#clip172)" style="stroke:#000000; stroke-width:4; stroke-opacity:1; fill:none" points="
  1515.39,1369 1515.39,1384.24 1567,1384.24 1567,1369 1515.39,1369 
  "/>
<path clip-path="url(#clip172)" d="
M1567 1375.14 L1567 1384.24 L1618.61 1384.24 L1618.61 1375.14 L1567 1375.14 L1567 1375.14  Z
  " fill="#009af9" fill-rule="evenodd" fill-opacity="1"/>
<polyline clip-path="url(#clip172)" style="stroke:#000000; stroke-width:4; stroke-opacity:1; fill:none" points="
  1567,1375.14 1567,1384.24 1618.61,1384.24 1618.61,1375.14 1567,1375.14 
  "/>
<path clip-path="url(#clip172)" d="
M1618.61 1379.16 L1618.61 1384.24 L1670.22 1384.24 L1670.22 1379.16 L1618.61 1379.16 L1618.61 1379.16  Z
  " fill="#009af9" fill-rule="evenodd" fill-opacity="1"/>
<polyline clip-path="url(#clip172)" style="stroke:#000000; stroke-width:4; stroke-opacity:1; fill:none" points="
  1618.61,1379.16 1618.61,1384.24 1670.22,1384.24 1670.22,1379.16 1618.61,1379.16 
  "/>
<path clip-path="url(#clip172)" d="
M1670.22 1381.25 L1670.22 1384.24 L1721.83 1384.24 L1721.83 1381.25 L1670.22 1381.25 L1670.22 1381.25  Z
  " fill="#009af9" fill-rule="evenodd" fill-opacity="1"/>
<polyline clip-path="url(#clip172)" style="stroke:#000000; stroke-width:4; stroke-opacity:1; fill:none" points="
  1670.22,1381.25 1670.22,1384.24 1721.83,1384.24 1721.83,1381.25 1670.22,1381.25 
  "/>
<path clip-path="url(#clip172)" d="
M1721.83 1382.81 L1721.83 1384.24 L1773.44 1384.24 L1773.44 1382.81 L1721.83 1382.81 L1721.83 1382.81  Z
  " fill="#009af9" fill-rule="evenodd" fill-opacity="1"/>
<polyline clip-path="url(#clip172)" style="stroke:#000000; stroke-width:4; stroke-opacity:1; fill:none" points="
  1721.83,1382.81 1721.83,1384.24 1773.44,1384.24 1773.44,1382.81 1721.83,1382.81 
  "/>
<path clip-path="url(#clip172)" d="
M1773.44 1383.48 L1773.44 1384.24 L1825.05 1384.24 L1825.05 1383.48 L1773.44 1383.48 L1773.44 1383.48  Z
  " fill="#009af9" fill-rule="evenodd" fill-opacity="1"/>
<polyline clip-path="url(#clip172)" style="stroke:#000000; stroke-width:4; stroke-opacity:1; fill:none" points="
  1773.44,1383.48 1773.44,1384.24 1825.05,1384.24 1825.05,1383.48 1773.44,1383.48 
  "/>
<path clip-path="url(#clip172)" d="
M1825.05 1383.94 L1825.05 1384.24 L1876.66 1384.24 L1876.66 1383.94 L1825.05 1383.94 L1825.05 1383.94  Z
  " fill="#009af9" fill-rule="evenodd" fill-opacity="1"/>
<polyline clip-path="url(#clip172)" style="stroke:#000000; stroke-width:4; stroke-opacity:1; fill:none" points="
  1825.05,1383.94 1825.05,1384.24 1876.66,1384.24 1876.66,1383.94 1825.05,1383.94 
  "/>
<path clip-path="url(#clip172)" d="
M1876.66 1384.05 L1876.66 1384.24 L1928.27 1384.24 L1928.27 1384.05 L1876.66 1384.05 L1876.66 1384.05  Z
  " fill="#009af9" fill-rule="evenodd" fill-opacity="1"/>
<polyline clip-path="url(#clip172)" style="stroke:#000000; stroke-width:4; stroke-opacity:1; fill:none" points="
  1876.66,1384.05 1876.66,1384.24 1928.27,1384.24 1928.27,1384.05 1876.66,1384.05 
  "/>
<path clip-path="url(#clip172)" d="
M1928.27 1384.12 L1928.27 1384.24 L1979.88 1384.24 L1979.88 1384.12 L1928.27 1384.12 L1928.27 1384.12  Z
  " fill="#009af9" fill-rule="evenodd" fill-opacity="1"/>
<polyline clip-path="url(#clip172)" style="stroke:#000000; stroke-width:4; stroke-opacity:1; fill:none" points="
  1928.27,1384.12 1928.27,1384.24 1979.88,1384.24 1979.88,1384.12 1928.27,1384.12 
  "/>
<path clip-path="url(#clip172)" d="
M1979.88 1384.17 L1979.88 1384.24 L2031.49 1384.24 L2031.49 1384.17 L1979.88 1384.17 L1979.88 1384.17  Z
  " fill="#009af9" fill-rule="evenodd" fill-opacity="1"/>
<polyline clip-path="url(#clip172)" style="stroke:#000000; stroke-width:4; stroke-opacity:1; fill:none" points="
  1979.88,1384.17 1979.88,1384.24 2031.49,1384.24 2031.49,1384.17 1979.88,1384.17 
  "/>
<path clip-path="url(#clip172)" d="
M2031.49 1384.2 L2031.49 1384.24 L2083.1 1384.24 L2083.1 1384.2 L2031.49 1384.2 L2031.49 1384.2  Z
  " fill="#009af9" fill-rule="evenodd" fill-opacity="1"/>
<polyline clip-path="url(#clip172)" style="stroke:#000000; stroke-width:4; stroke-opacity:1; fill:none" points="
  2031.49,1384.2 2031.49,1384.24 2083.1,1384.24 2083.1,1384.2 2031.49,1384.2 
  "/>
<path clip-path="url(#clip172)" d="
M2083.1 1384.21 L2083.1 1384.24 L2134.71 1384.24 L2134.71 1384.21 L2083.1 1384.21 L2083.1 1384.21  Z
  " fill="#009af9" fill-rule="evenodd" fill-opacity="1"/>
<polyline clip-path="url(#clip172)" style="stroke:#000000; stroke-width:4; stroke-opacity:1; fill:none" points="
  2083.1,1384.21 2083.1,1384.24 2134.71,1384.24 2134.71,1384.21 2083.1,1384.21 
  "/>
<path clip-path="url(#clip172)" d="
M2134.71 1384.24 L2134.71 1384.24 L2186.32 1384.24 L2186.32 1384.24 L2134.71 1384.24 L2134.71 1384.24  Z
  " fill="#009af9" fill-rule="evenodd" fill-opacity="1"/>
<polyline clip-path="url(#clip172)" style="stroke:#000000; stroke-width:4; stroke-opacity:1; fill:none" points="
  2134.71,1384.24 2134.71,1384.24 2186.32,1384.24 2134.71,1384.24 
  "/>
<path clip-path="url(#clip172)" d="
M2186.32 1384.23 L2186.32 1384.24 L2237.93 1384.24 L2237.93 1384.23 L2186.32 1384.23 L2186.32 1384.23  Z
  " fill="#009af9" fill-rule="evenodd" fill-opacity="1"/>
<polyline clip-path="url(#clip172)" style="stroke:#000000; stroke-width:4; stroke-opacity:1; fill:none" points="
  2186.32,1384.23 2186.32,1384.24 2237.93,1384.24 2237.93,1384.23 2186.32,1384.23 
  "/>
<polyline clip-path="url(#clip172)" style="stroke:#e26f46; stroke-width:4; stroke-opacity:1; fill:none" points="
  860.246,2799.12 860.246,-1328.69 
  "/>
<polyline clip-path="url(#clip172)" style="stroke:#3da44d; stroke-width:4; stroke-opacity:1; fill:none" points="
  860.351,2799.12 860.351,-1328.69 
  "/>
<path clip-path="url(#clip170)" d="
M1693.46 335.029 L2283.17 335.029 L2283.17 93.1086 L1693.46 93.1086  Z
  " fill="#ffffff" fill-rule="evenodd" fill-opacity="1"/>
<polyline clip-path="url(#clip170)" style="stroke:#000000; stroke-width:4; stroke-opacity:1; fill:none" points="
  1693.46,335.029 2283.17,335.029 2283.17,93.1086 1693.46,93.1086 1693.46,335.029 
  "/>
<path clip-path="url(#clip170)" d="
M1716.65 177.781 L1855.83 177.781 L1855.83 129.397 L1716.65 129.397 L1716.65 177.781  Z
  " fill="#009af9" fill-rule="evenodd" fill-opacity="1"/>
<polyline clip-path="url(#clip170)" style="stroke:#000000; stroke-width:4; stroke-opacity:1; fill:none" points="
  1716.65,177.781 1855.83,177.781 1855.83,129.397 1716.65,129.397 1716.65,177.781 
  "/>
<path clip-path="url(#clip170)" d="M 0 0 M1892.87 173.276 Q1891.06 177.906 1889.35 179.318 Q1887.64 180.73 1884.77 180.73 L1881.36 180.73 L1881.36 177.165 L1883.86 177.165 Q1885.62 177.165 1886.59 176.332 Q1887.57 175.498 1888.75 172.396 L1889.51 170.452 L1879.02 144.943 L1883.54 144.943 L1891.64 165.221 L1899.74 144.943 L1904.26 144.943 L1892.87 173.276 Z" fill="#000000" fill-rule="evenodd" fill-opacity="1" /><path clip-path="url(#clip170)" d="M 0 0 M1910.14 166.933 L1917.77 166.933 L1917.77 140.568 L1909.46 142.235 L1909.46 137.975 L1917.73 136.309 L1922.4 136.309 L1922.4 166.933 L1930.04 166.933 L1930.04 170.869 L1910.14 170.869 L1910.14 166.933 Z" fill="#000000" fill-rule="evenodd" fill-opacity="1" /><polyline clip-path="url(#clip170)" style="stroke:#e26f46; stroke-width:4; stroke-opacity:1; fill:none" points="
  1716.65,214.069 1855.83,214.069 
  "/>
<path clip-path="url(#clip170)" d="M 0 0 M1886.43 198.062 L1886.43 205.423 L1895.21 205.423 L1895.21 208.733 L1886.43 208.733 L1886.43 222.807 Q1886.43 225.978 1887.29 226.881 Q1888.17 227.784 1890.83 227.784 L1895.21 227.784 L1895.21 231.349 L1890.83 231.349 Q1885.9 231.349 1884.02 229.52 Q1882.15 227.668 1882.15 222.807 L1882.15 208.733 L1879.02 208.733 L1879.02 205.423 L1882.15 205.423 L1882.15 198.062 L1886.43 198.062 Z" fill="#000000" fill-rule="evenodd" fill-opacity="1" /><path clip-path="url(#clip170)" d="M 0 0 M1921.22 215.701 L1921.22 231.349 L1916.96 231.349 L1916.96 215.839 Q1916.96 212.159 1915.53 210.33 Q1914.09 208.502 1911.22 208.502 Q1907.77 208.502 1905.78 210.701 Q1903.79 212.9 1903.79 216.696 L1903.79 231.349 L1899.51 231.349 L1899.51 195.33 L1903.79 195.33 L1903.79 209.451 Q1905.32 207.113 1907.38 205.955 Q1909.46 204.798 1912.17 204.798 Q1916.64 204.798 1918.93 207.576 Q1921.22 210.33 1921.22 215.701 Z" fill="#000000" fill-rule="evenodd" fill-opacity="1" /><path clip-path="url(#clip170)" d="M 0 0 M1947.87 217.321 L1947.87 219.404 L1928.28 219.404 Q1928.56 223.802 1930.92 226.117 Q1933.31 228.409 1937.54 228.409 Q1940 228.409 1942.29 227.807 Q1944.6 227.205 1946.87 226.001 L1946.87 230.029 Q1944.58 231.001 1942.17 231.511 Q1939.77 232.02 1937.29 232.02 Q1931.08 232.02 1927.45 228.409 Q1923.84 224.798 1923.84 218.64 Q1923.84 212.275 1927.27 208.548 Q1930.71 204.798 1936.55 204.798 Q1941.78 204.798 1944.81 208.177 Q1947.87 211.534 1947.87 217.321 M1943.61 216.071 Q1943.56 212.576 1941.64 210.492 Q1939.74 208.409 1936.59 208.409 Q1933.03 208.409 1930.88 210.423 Q1928.75 212.437 1928.42 216.094 L1943.61 216.071 Z" fill="#000000" fill-rule="evenodd" fill-opacity="1" /><path clip-path="url(#clip170)" d="M 0 0 M1962.38 208.409 Q1958.95 208.409 1956.96 211.094 Q1954.97 213.756 1954.97 218.409 Q1954.97 223.062 1956.94 225.747 Q1958.93 228.409 1962.38 228.409 Q1965.78 228.409 1967.77 225.724 Q1969.76 223.038 1969.76 218.409 Q1969.76 213.802 1967.77 211.117 Q1965.78 208.409 1962.38 208.409 M1962.38 204.798 Q1967.94 204.798 1971.11 208.409 Q1974.28 212.02 1974.28 218.409 Q1974.28 224.775 1971.11 228.409 Q1967.94 232.02 1962.38 232.02 Q1956.8 232.02 1953.63 228.409 Q1950.48 224.775 1950.48 218.409 Q1950.48 212.02 1953.63 208.409 Q1956.8 204.798 1962.38 204.798 Z" fill="#000000" fill-rule="evenodd" fill-opacity="1" /><path clip-path="url(#clip170)" d="M 0 0 M1993.77 209.404 Q1993.05 208.988 1992.2 208.802 Q1991.36 208.594 1990.34 208.594 Q1986.73 208.594 1984.79 210.955 Q1982.87 213.293 1982.87 217.691 L1982.87 231.349 L1978.58 231.349 L1978.58 205.423 L1982.87 205.423 L1982.87 209.451 Q1984.21 207.089 1986.36 205.955 Q1988.51 204.798 1991.59 204.798 Q1992.03 204.798 1992.57 204.867 Q1993.1 204.914 1993.75 205.029 L1993.77 209.404 Z" fill="#000000" fill-rule="evenodd" fill-opacity="1" /><path clip-path="url(#clip170)" d="M 0 0 M2019.37 217.321 L2019.37 219.404 L1999.79 219.404 Q2000.07 223.802 2002.43 226.117 Q2004.81 228.409 2009.05 228.409 Q2011.5 228.409 2013.79 227.807 Q2016.11 227.205 2018.38 226.001 L2018.38 230.029 Q2016.08 231.001 2013.68 231.511 Q2011.27 232.02 2008.79 232.02 Q2002.59 232.02 1998.95 228.409 Q1995.34 224.798 1995.34 218.64 Q1995.34 212.275 1998.77 208.548 Q2002.22 204.798 2008.05 204.798 Q2013.28 204.798 2016.32 208.177 Q2019.37 211.534 2019.37 217.321 M2015.11 216.071 Q2015.07 212.576 2013.14 210.492 Q2011.25 208.409 2008.1 208.409 Q2004.53 208.409 2002.38 210.423 Q2000.25 212.437 1999.93 216.094 L2015.11 216.071 Z" fill="#000000" fill-rule="evenodd" fill-opacity="1" /><path clip-path="url(#clip170)" d="M 0 0 M2028.05 198.062 L2028.05 205.423 L2036.82 205.423 L2036.82 208.733 L2028.05 208.733 L2028.05 222.807 Q2028.05 225.978 2028.91 226.881 Q2029.79 227.784 2032.45 227.784 L2036.82 227.784 L2036.82 231.349 L2032.45 231.349 Q2027.52 231.349 2025.64 229.52 Q2023.77 227.668 2023.77 222.807 L2023.77 208.733 L2020.64 208.733 L2020.64 205.423 L2023.77 205.423 L2023.77 198.062 L2028.05 198.062 Z" fill="#000000" fill-rule="evenodd" fill-opacity="1" /><path clip-path="url(#clip170)" d="M 0 0 M2041.29 205.423 L2045.55 205.423 L2045.55 231.349 L2041.29 231.349 L2041.29 205.423 M2041.29 195.33 L2045.55 195.33 L2045.55 200.724 L2041.29 200.724 L2041.29 195.33 Z" fill="#000000" fill-rule="evenodd" fill-opacity="1" /><path clip-path="url(#clip170)" d="M 0 0 M2068.68 206.418 L2068.68 210.4 Q2066.87 209.404 2065.04 208.918 Q2063.24 208.409 2061.38 208.409 Q2057.24 208.409 2054.95 211.048 Q2052.66 213.664 2052.66 218.409 Q2052.66 223.154 2054.95 225.793 Q2057.24 228.409 2061.38 228.409 Q2063.24 228.409 2065.04 227.923 Q2066.87 227.413 2068.68 226.418 L2068.68 230.353 Q2066.89 231.187 2064.97 231.603 Q2063.07 232.02 2060.92 232.02 Q2055.07 232.02 2051.62 228.339 Q2048.17 224.659 2048.17 218.409 Q2048.17 212.066 2051.64 208.432 Q2055.13 204.798 2061.2 204.798 Q2063.17 204.798 2065.04 205.215 Q2066.92 205.608 2068.68 206.418 Z" fill="#000000" fill-rule="evenodd" fill-opacity="1" /><path clip-path="url(#clip170)" d="M 0 0 M2084.93 218.316 Q2079.76 218.316 2077.77 219.497 Q2075.78 220.677 2075.78 223.525 Q2075.78 225.793 2077.26 227.136 Q2078.77 228.455 2081.34 228.455 Q2084.88 228.455 2087.01 225.955 Q2089.16 223.432 2089.16 219.265 L2089.16 218.316 L2084.93 218.316 M2093.42 216.557 L2093.42 231.349 L2089.16 231.349 L2089.16 227.413 Q2087.7 229.775 2085.53 230.909 Q2083.35 232.02 2080.2 232.02 Q2076.22 232.02 2073.86 229.798 Q2071.52 227.552 2071.52 223.802 Q2071.52 219.427 2074.44 217.205 Q2077.38 214.983 2083.19 214.983 L2089.16 214.983 L2089.16 214.566 Q2089.16 211.627 2087.22 210.029 Q2085.3 208.409 2081.8 208.409 Q2079.58 208.409 2077.47 208.941 Q2075.37 209.474 2073.42 210.539 L2073.42 206.603 Q2075.76 205.701 2077.96 205.261 Q2080.16 204.798 2082.24 204.798 Q2087.87 204.798 2090.64 207.714 Q2093.42 210.631 2093.42 216.557 Z" fill="#000000" fill-rule="evenodd" fill-opacity="1" /><path clip-path="url(#clip170)" d="M 0 0 M2097.89 195.33 L2102.15 195.33 L2102.15 231.349 L2097.89 231.349 L2097.89 195.33 Z" fill="#000000" fill-rule="evenodd" fill-opacity="1" /><path clip-path="url(#clip170)" d="M 0 0 M2141.87 210.4 Q2143.47 207.529 2145.69 206.164 Q2147.91 204.798 2150.92 204.798 Q2154.97 204.798 2157.17 207.645 Q2159.37 210.469 2159.37 215.701 L2159.37 231.349 L2155.09 231.349 L2155.09 215.839 Q2155.09 212.113 2153.77 210.307 Q2152.45 208.502 2149.74 208.502 Q2146.43 208.502 2144.51 210.701 Q2142.59 212.9 2142.59 216.696 L2142.59 231.349 L2138.31 231.349 L2138.31 215.839 Q2138.31 212.089 2136.99 210.307 Q2135.67 208.502 2132.91 208.502 Q2129.65 208.502 2127.73 210.724 Q2125.81 212.923 2125.81 216.696 L2125.81 231.349 L2121.52 231.349 L2121.52 205.423 L2125.81 205.423 L2125.81 209.451 Q2127.26 207.066 2129.3 205.932 Q2131.34 204.798 2134.14 204.798 Q2136.96 204.798 2138.93 206.233 Q2140.92 207.668 2141.87 210.4 Z" fill="#000000" fill-rule="evenodd" fill-opacity="1" /><path clip-path="url(#clip170)" d="M 0 0 M2186.01 217.321 L2186.01 219.404 L2166.43 219.404 Q2166.71 223.802 2169.07 226.117 Q2171.45 228.409 2175.69 228.409 Q2178.14 228.409 2180.44 227.807 Q2182.75 227.205 2185.02 226.001 L2185.02 230.029 Q2182.73 231.001 2180.32 231.511 Q2177.91 232.02 2175.44 232.02 Q2169.23 232.02 2165.6 228.409 Q2161.99 224.798 2161.99 218.64 Q2161.99 212.275 2165.41 208.548 Q2168.86 204.798 2174.69 204.798 Q2179.93 204.798 2182.96 208.177 Q2186.01 211.534 2186.01 217.321 M2181.75 216.071 Q2181.71 212.576 2179.79 210.492 Q2177.89 208.409 2174.74 208.409 Q2171.18 208.409 2169.02 210.423 Q2166.89 212.437 2166.57 216.094 L2181.75 216.071 Z" fill="#000000" fill-rule="evenodd" fill-opacity="1" /><path clip-path="url(#clip170)" d="M 0 0 M2202.26 218.316 Q2197.1 218.316 2195.11 219.497 Q2193.12 220.677 2193.12 223.525 Q2193.12 225.793 2194.6 227.136 Q2196.11 228.455 2198.68 228.455 Q2202.22 228.455 2204.35 225.955 Q2206.5 223.432 2206.5 219.265 L2206.5 218.316 L2202.26 218.316 M2210.76 216.557 L2210.76 231.349 L2206.5 231.349 L2206.5 227.413 Q2205.04 229.775 2202.87 230.909 Q2200.69 232.02 2197.54 232.02 Q2193.56 232.02 2191.2 229.798 Q2188.86 227.552 2188.86 223.802 Q2188.86 219.427 2191.78 217.205 Q2194.72 214.983 2200.53 214.983 L2206.5 214.983 L2206.5 214.566 Q2206.5 211.627 2204.56 210.029 Q2202.63 208.409 2199.14 208.409 Q2196.92 208.409 2194.81 208.941 Q2192.7 209.474 2190.76 210.539 L2190.76 206.603 Q2193.1 205.701 2195.3 205.261 Q2197.5 204.798 2199.58 204.798 Q2205.2 204.798 2207.98 207.714 Q2210.76 210.631 2210.76 216.557 Z" fill="#000000" fill-rule="evenodd" fill-opacity="1" /><path clip-path="url(#clip170)" d="M 0 0 M2236.78 215.701 L2236.78 231.349 L2232.52 231.349 L2232.52 215.839 Q2232.52 212.159 2231.08 210.33 Q2229.65 208.502 2226.78 208.502 Q2223.33 208.502 2221.34 210.701 Q2219.35 212.9 2219.35 216.696 L2219.35 231.349 L2215.06 231.349 L2215.06 205.423 L2219.35 205.423 L2219.35 209.451 Q2220.87 207.113 2222.93 205.955 Q2225.02 204.798 2227.73 204.798 Q2232.19 204.798 2234.49 207.576 Q2236.78 210.33 2236.78 215.701 Z" fill="#000000" fill-rule="evenodd" fill-opacity="1" /><polyline clip-path="url(#clip170)" style="stroke:#3da44d; stroke-width:4; stroke-opacity:1; fill:none" points="
  1716.65,274.549 1855.83,274.549 
  "/>
<path clip-path="url(#clip170)" d="M 0 0 M1897.45 266.667 L1897.45 270.694 Q1895.65 269.769 1893.7 269.306 Q1891.76 268.843 1889.67 268.843 Q1886.5 268.843 1884.9 269.815 Q1883.33 270.787 1883.33 272.731 Q1883.33 274.213 1884.46 275.069 Q1885.6 275.903 1889.02 276.667 L1890.48 276.991 Q1895.02 277.963 1896.92 279.745 Q1898.84 281.505 1898.84 284.676 Q1898.84 288.287 1895.97 290.393 Q1893.12 292.5 1888.12 292.5 Q1886.04 292.5 1883.77 292.083 Q1881.52 291.69 1879.02 290.88 L1879.02 286.481 Q1881.39 287.708 1883.68 288.333 Q1885.97 288.935 1888.21 288.935 Q1891.22 288.935 1892.84 287.917 Q1894.46 286.875 1894.46 285 Q1894.46 283.264 1893.28 282.338 Q1892.13 281.412 1888.17 280.556 L1886.69 280.208 Q1882.73 279.375 1880.97 277.662 Q1879.21 275.926 1879.21 272.917 Q1879.21 269.259 1881.8 267.269 Q1884.4 265.278 1889.16 265.278 Q1891.52 265.278 1893.61 265.625 Q1895.69 265.972 1897.45 266.667 Z" fill="#000000" fill-rule="evenodd" fill-opacity="1" /><path clip-path="url(#clip170)" d="M 0 0 M1907.52 258.542 L1907.52 265.903 L1916.29 265.903 L1916.29 269.213 L1907.52 269.213 L1907.52 283.287 Q1907.52 286.458 1908.38 287.361 Q1909.26 288.264 1911.92 288.264 L1916.29 288.264 L1916.29 291.829 L1911.92 291.829 Q1906.99 291.829 1905.11 290 Q1903.24 288.148 1903.24 283.287 L1903.24 269.213 L1900.11 269.213 L1900.11 265.903 L1903.24 265.903 L1903.24 258.542 L1907.52 258.542 Z" fill="#000000" fill-rule="evenodd" fill-opacity="1" /><path clip-path="url(#clip170)" d="M 0 0 M1932.54 278.796 Q1927.38 278.796 1925.39 279.977 Q1923.4 281.157 1923.4 284.005 Q1923.4 286.273 1924.88 287.616 Q1926.39 288.935 1928.96 288.935 Q1932.5 288.935 1934.63 286.435 Q1936.78 283.912 1936.78 279.745 L1936.78 278.796 L1932.54 278.796 M1941.04 277.037 L1941.04 291.829 L1936.78 291.829 L1936.78 287.893 Q1935.32 290.255 1933.14 291.389 Q1930.97 292.5 1927.82 292.5 Q1923.84 292.5 1921.48 290.278 Q1919.14 288.032 1919.14 284.282 Q1919.14 279.907 1922.06 277.685 Q1925 275.463 1930.81 275.463 L1936.78 275.463 L1936.78 275.046 Q1936.78 272.107 1934.83 270.509 Q1932.91 268.889 1929.42 268.889 Q1927.2 268.889 1925.09 269.421 Q1922.98 269.954 1921.04 271.019 L1921.04 267.083 Q1923.38 266.181 1925.58 265.741 Q1927.77 265.278 1929.86 265.278 Q1935.48 265.278 1938.26 268.194 Q1941.04 271.111 1941.04 277.037 Z" fill="#000000" fill-rule="evenodd" fill-opacity="1" /><path clip-path="url(#clip170)" d="M 0 0 M1949.72 258.542 L1949.72 265.903 L1958.49 265.903 L1958.49 269.213 L1949.72 269.213 L1949.72 283.287 Q1949.72 286.458 1950.58 287.361 Q1951.45 288.264 1954.12 288.264 L1958.49 288.264 L1958.49 291.829 L1954.12 291.829 Q1949.19 291.829 1947.31 290 Q1945.44 288.148 1945.44 283.287 L1945.44 269.213 L1942.31 269.213 L1942.31 265.903 L1945.44 265.903 L1945.44 258.542 L1949.72 258.542 Z" fill="#000000" fill-rule="evenodd" fill-opacity="1" /><path clip-path="url(#clip170)" d="M 0 0 M1962.96 265.903 L1967.22 265.903 L1967.22 291.829 L1962.96 291.829 L1962.96 265.903 M1962.96 255.81 L1967.22 255.81 L1967.22 261.204 L1962.96 261.204 L1962.96 255.81 Z" fill="#000000" fill-rule="evenodd" fill-opacity="1" /><path clip-path="url(#clip170)" d="M 0 0 M1988.21 266.667 L1988.21 270.694 Q1986.41 269.769 1984.46 269.306 Q1982.52 268.843 1980.44 268.843 Q1977.26 268.843 1975.67 269.815 Q1974.09 270.787 1974.09 272.731 Q1974.09 274.213 1975.23 275.069 Q1976.36 275.903 1979.79 276.667 L1981.25 276.991 Q1985.78 277.963 1987.68 279.745 Q1989.6 281.505 1989.6 284.676 Q1989.6 288.287 1986.73 290.393 Q1983.89 292.5 1978.89 292.5 Q1976.8 292.5 1974.53 292.083 Q1972.29 291.69 1969.79 290.88 L1969.79 286.481 Q1972.15 287.708 1974.44 288.333 Q1976.73 288.935 1978.98 288.935 Q1981.99 288.935 1983.61 287.917 Q1985.23 286.875 1985.23 285 Q1985.23 283.264 1984.05 282.338 Q1982.89 281.412 1978.93 280.556 L1977.45 280.208 Q1973.49 279.375 1971.73 277.662 Q1969.97 275.926 1969.97 272.917 Q1969.97 269.259 1972.57 267.269 Q1975.16 265.278 1979.93 265.278 Q1982.29 265.278 1984.37 265.625 Q1986.45 265.972 1988.21 266.667 Z" fill="#000000" fill-rule="evenodd" fill-opacity="1" /><path clip-path="url(#clip170)" d="M 0 0 M1998.28 258.542 L1998.28 265.903 L2007.06 265.903 L2007.06 269.213 L1998.28 269.213 L1998.28 283.287 Q1998.28 286.458 1999.14 287.361 Q2000.02 288.264 2002.68 288.264 L2007.06 288.264 L2007.06 291.829 L2002.68 291.829 Q1997.75 291.829 1995.88 290 Q1994 288.148 1994 283.287 L1994 269.213 L1990.88 269.213 L1990.88 265.903 L1994 265.903 L1994 258.542 L1998.28 258.542 Z" fill="#000000" fill-rule="evenodd" fill-opacity="1" /><path clip-path="url(#clip170)" d="M 0 0 M2011.52 265.903 L2015.78 265.903 L2015.78 291.829 L2011.52 291.829 L2011.52 265.903 M2011.52 255.81 L2015.78 255.81 L2015.78 261.204 L2011.52 261.204 L2011.52 255.81 Z" fill="#000000" fill-rule="evenodd" fill-opacity="1" /><path clip-path="url(#clip170)" d="M 0 0 M2038.91 266.898 L2038.91 270.88 Q2037.1 269.884 2035.27 269.398 Q2033.47 268.889 2031.62 268.889 Q2027.47 268.889 2025.18 271.528 Q2022.89 274.144 2022.89 278.889 Q2022.89 283.634 2025.18 286.273 Q2027.47 288.889 2031.62 288.889 Q2033.47 288.889 2035.27 288.403 Q2037.1 287.893 2038.91 286.898 L2038.91 290.833 Q2037.13 291.667 2035.2 292.083 Q2033.31 292.5 2031.15 292.5 Q2025.3 292.5 2021.85 288.819 Q2018.4 285.139 2018.4 278.889 Q2018.4 272.546 2021.87 268.912 Q2025.37 265.278 2031.43 265.278 Q2033.4 265.278 2035.27 265.695 Q2037.15 266.088 2038.91 266.898 Z" fill="#000000" fill-rule="evenodd" fill-opacity="1" /><path clip-path="url(#clip170)" d="M 0 0 M2055.16 278.796 Q2050 278.796 2048.01 279.977 Q2046.01 281.157 2046.01 284.005 Q2046.01 286.273 2047.5 287.616 Q2049 288.935 2051.57 288.935 Q2055.11 288.935 2057.24 286.435 Q2059.39 283.912 2059.39 279.745 L2059.39 278.796 L2055.16 278.796 M2063.65 277.037 L2063.65 291.829 L2059.39 291.829 L2059.39 287.893 Q2057.94 290.255 2055.76 291.389 Q2053.58 292.5 2050.44 292.5 Q2046.45 292.5 2044.09 290.278 Q2041.76 288.032 2041.76 284.282 Q2041.76 279.907 2044.67 277.685 Q2047.61 275.463 2053.42 275.463 L2059.39 275.463 L2059.39 275.046 Q2059.39 272.107 2057.45 270.509 Q2055.53 268.889 2052.03 268.889 Q2049.81 268.889 2047.7 269.421 Q2045.6 269.954 2043.65 271.019 L2043.65 267.083 Q2045.99 266.181 2048.19 265.741 Q2050.39 265.278 2052.47 265.278 Q2058.1 265.278 2060.88 268.194 Q2063.65 271.111 2063.65 277.037 Z" fill="#000000" fill-rule="evenodd" fill-opacity="1" /><path clip-path="url(#clip170)" d="M 0 0 M2068.12 255.81 L2072.38 255.81 L2072.38 291.829 L2068.12 291.829 L2068.12 255.81 Z" fill="#000000" fill-rule="evenodd" fill-opacity="1" /><path clip-path="url(#clip170)" d="M 0 0 M2112.1 270.88 Q2113.7 268.009 2115.92 266.644 Q2118.14 265.278 2121.15 265.278 Q2125.2 265.278 2127.4 268.125 Q2129.6 270.949 2129.6 276.181 L2129.6 291.829 L2125.32 291.829 L2125.32 276.319 Q2125.32 272.593 2124 270.787 Q2122.68 268.982 2119.97 268.982 Q2116.66 268.982 2114.74 271.181 Q2112.82 273.38 2112.82 277.176 L2112.82 291.829 L2108.54 291.829 L2108.54 276.319 Q2108.54 272.569 2107.22 270.787 Q2105.9 268.982 2103.14 268.982 Q2099.88 268.982 2097.96 271.204 Q2096.04 273.403 2096.04 277.176 L2096.04 291.829 L2091.76 291.829 L2091.76 265.903 L2096.04 265.903 L2096.04 269.931 Q2097.5 267.546 2099.53 266.412 Q2101.57 265.278 2104.37 265.278 Q2107.19 265.278 2109.16 266.713 Q2111.15 268.148 2112.1 270.88 Z" fill="#000000" fill-rule="evenodd" fill-opacity="1" /><path clip-path="url(#clip170)" d="M 0 0 M2156.25 277.801 L2156.25 279.884 L2136.66 279.884 Q2136.94 284.282 2139.3 286.597 Q2141.69 288.889 2145.92 288.889 Q2148.38 288.889 2150.67 288.287 Q2152.98 287.685 2155.25 286.481 L2155.25 290.509 Q2152.96 291.481 2150.55 291.991 Q2148.14 292.5 2145.67 292.5 Q2139.46 292.5 2135.83 288.889 Q2132.22 285.278 2132.22 279.12 Q2132.22 272.755 2135.64 269.028 Q2139.09 265.278 2144.93 265.278 Q2150.16 265.278 2153.19 268.657 Q2156.25 272.014 2156.25 277.801 M2151.99 276.551 Q2151.94 273.056 2150.02 270.972 Q2148.12 268.889 2144.97 268.889 Q2141.41 268.889 2139.25 270.903 Q2137.13 272.917 2136.8 276.574 L2151.99 276.551 Z" fill="#000000" fill-rule="evenodd" fill-opacity="1" /><path clip-path="url(#clip170)" d="M 0 0 M2172.5 278.796 Q2167.33 278.796 2165.34 279.977 Q2163.35 281.157 2163.35 284.005 Q2163.35 286.273 2164.83 287.616 Q2166.34 288.935 2168.91 288.935 Q2172.45 288.935 2174.58 286.435 Q2176.73 283.912 2176.73 279.745 L2176.73 278.796 L2172.5 278.796 M2180.99 277.037 L2180.99 291.829 L2176.73 291.829 L2176.73 287.893 Q2175.27 290.255 2173.1 291.389 Q2170.92 292.5 2167.77 292.5 Q2163.79 292.5 2161.43 290.278 Q2159.09 288.032 2159.09 284.282 Q2159.09 279.907 2162.01 277.685 Q2164.95 275.463 2170.76 275.463 L2176.73 275.463 L2176.73 275.046 Q2176.73 272.107 2174.79 270.509 Q2172.87 268.889 2169.37 268.889 Q2167.15 268.889 2165.04 269.421 Q2162.94 269.954 2160.99 271.019 L2160.99 267.083 Q2163.33 266.181 2165.53 265.741 Q2167.73 265.278 2169.81 265.278 Q2175.44 265.278 2178.21 268.194 Q2180.99 271.111 2180.99 277.037 Z" fill="#000000" fill-rule="evenodd" fill-opacity="1" /><path clip-path="url(#clip170)" d="M 0 0 M2207.01 276.181 L2207.01 291.829 L2202.75 291.829 L2202.75 276.319 Q2202.75 272.639 2201.31 270.81 Q2199.88 268.982 2197.01 268.982 Q2193.56 268.982 2191.57 271.181 Q2189.58 273.38 2189.58 277.176 L2189.58 291.829 L2185.3 291.829 L2185.3 265.903 L2189.58 265.903 L2189.58 269.931 Q2191.11 267.593 2193.17 266.435 Q2195.25 265.278 2197.96 265.278 Q2202.43 265.278 2204.72 268.056 Q2207.01 270.81 2207.01 276.181 Z" fill="#000000" fill-rule="evenodd" fill-opacity="1" /></svg>
