<?xml version="1.0" encoding="utf-8"?>
<svg xmlns="http://www.w3.org/2000/svg" xmlns:xlink="http://www.w3.org/1999/xlink" width="600" height="400" viewBox="0 0 2400 1600">
<defs>
  <clipPath id="clip040">
    <rect x="0" y="0" width="2400" height="1600"/>
  </clipPath>
</defs>
<path clip-path="url(#clip040)" d="
M0 1600 L2400 1600 L2400 0 L0 0  Z
  " fill="#ffffff" fill-rule="evenodd" fill-opacity="1"/>
<defs>
  <clipPath id="clip041">
    <rect x="480" y="0" width="1681" height="1600"/>
  </clipPath>
</defs>
<path clip-path="url(#clip040)" d="
M102.74 1505.26 L2352.76 1505.26 L2352.76 47.2441 L102.74 47.2441  Z
  " fill="#ffffff" fill-rule="evenodd" fill-opacity="1"/>
<defs>
  <clipPath id="clip042">
    <rect x="102" y="47" width="2251" height="1459"/>
  </clipPath>
</defs>
<polyline clip-path="url(#clip042)" style="stroke:#000000; stroke-linecap:butt; stroke-linejoin:round; stroke-width:2; stroke-opacity:0.1; fill:none" points="
  226.495,1505.26 226.495,47.2441 
  "/>
<polyline clip-path="url(#clip042)" style="stroke:#000000; stroke-linecap:butt; stroke-linejoin:round; stroke-width:2; stroke-opacity:0.1; fill:none" points="
  534.573,1505.26 534.573,47.2441 
  "/>
<polyline clip-path="url(#clip042)" style="stroke:#000000; stroke-linecap:butt; stroke-linejoin:round; stroke-width:2; stroke-opacity:0.1; fill:none" points="
  842.651,1505.26 842.651,47.2441 
  "/>
<polyline clip-path="url(#clip042)" style="stroke:#000000; stroke-linecap:butt; stroke-linejoin:round; stroke-width:2; stroke-opacity:0.1; fill:none" points="
  1150.73,1505.26 1150.73,47.2441 
  "/>
<polyline clip-path="url(#clip042)" style="stroke:#000000; stroke-linecap:butt; stroke-linejoin:round; stroke-width:2; stroke-opacity:0.1; fill:none" points="
  1458.81,1505.26 1458.81,47.2441 
  "/>
<polyline clip-path="url(#clip042)" style="stroke:#000000; stroke-linecap:butt; stroke-linejoin:round; stroke-width:2; stroke-opacity:0.1; fill:none" points="
  1766.88,1505.26 1766.88,47.2441 
  "/>
<polyline clip-path="url(#clip042)" style="stroke:#000000; stroke-linecap:butt; stroke-linejoin:round; stroke-width:2; stroke-opacity:0.1; fill:none" points="
  2074.96,1505.26 2074.96,47.2441 
  "/>
<polyline clip-path="url(#clip040)" style="stroke:#000000; stroke-linecap:butt; stroke-linejoin:round; stroke-width:4; stroke-opacity:1; fill:none" points="
  102.74,1505.26 2352.76,1505.26 
  "/>
<polyline clip-path="url(#clip040)" style="stroke:#000000; stroke-linecap:butt; stroke-linejoin:round; stroke-width:4; stroke-opacity:1; fill:none" points="
  226.495,1505.26 226.495,1487.76 
  "/>
<polyline clip-path="url(#clip040)" style="stroke:#000000; stroke-linecap:butt; stroke-linejoin:round; stroke-width:4; stroke-opacity:1; fill:none" points="
  534.573,1505.26 534.573,1487.76 
  "/>
<polyline clip-path="url(#clip040)" style="stroke:#000000; stroke-linecap:butt; stroke-linejoin:round; stroke-width:4; stroke-opacity:1; fill:none" points="
  842.651,1505.26 842.651,1487.76 
  "/>
<polyline clip-path="url(#clip040)" style="stroke:#000000; stroke-linecap:butt; stroke-linejoin:round; stroke-width:4; stroke-opacity:1; fill:none" points="
  1150.73,1505.26 1150.73,1487.76 
  "/>
<polyline clip-path="url(#clip040)" style="stroke:#000000; stroke-linecap:butt; stroke-linejoin:round; stroke-width:4; stroke-opacity:1; fill:none" points="
  1458.81,1505.26 1458.81,1487.76 
  "/>
<polyline clip-path="url(#clip040)" style="stroke:#000000; stroke-linecap:butt; stroke-linejoin:round; stroke-width:4; stroke-opacity:1; fill:none" points="
  1766.88,1505.26 1766.88,1487.76 
  "/>
<polyline clip-path="url(#clip040)" style="stroke:#000000; stroke-linecap:butt; stroke-linejoin:round; stroke-width:4; stroke-opacity:1; fill:none" points="
  2074.96,1505.26 2074.96,1487.76 
  "/>
<path clip-path="url(#clip040)" d="M226.495 1534.45 Q222.884 1534.45 221.055 1538.02 Q219.25 1541.56 219.25 1548.69 Q219.25 1555.79 221.055 1559.36 Q222.884 1562.9 226.495 1562.9 Q230.129 1562.9 231.935 1559.36 Q233.764 1555.79 233.764 1548.69 Q233.764 1541.56 231.935 1538.02 Q230.129 1534.45 226.495 1534.45 M226.495 1530.75 Q232.305 1530.75 235.361 1535.35 Q238.439 1539.94 238.439 1548.69 Q238.439 1557.41 235.361 1562.02 Q232.305 1566.6 226.495 1566.6 Q220.685 1566.6 217.606 1562.02 Q214.551 1557.41 214.551 1548.69 Q214.551 1539.94 217.606 1535.35 Q220.685 1530.75 226.495 1530.75 Z" fill="#000000" fill-rule="evenodd" fill-opacity="1" /><path clip-path="url(#clip040)" d="M529.226 1562 L545.545 1562 L545.545 1565.93 L523.601 1565.93 L523.601 1562 Q526.263 1559.24 530.846 1554.61 Q535.453 1549.96 536.633 1548.62 Q538.878 1546.09 539.758 1544.36 Q540.661 1542.6 540.661 1540.91 Q540.661 1538.15 538.716 1536.42 Q536.795 1534.68 533.693 1534.68 Q531.494 1534.68 529.04 1535.45 Q526.61 1536.21 523.832 1537.76 L523.832 1533.04 Q526.656 1531.9 529.11 1531.33 Q531.564 1530.75 533.601 1530.75 Q538.971 1530.75 542.165 1533.43 Q545.36 1536.12 545.36 1540.61 Q545.36 1542.74 544.55 1544.66 Q543.763 1546.56 541.656 1549.15 Q541.077 1549.82 537.976 1553.04 Q534.874 1556.23 529.226 1562 Z" fill="#000000" fill-rule="evenodd" fill-opacity="1" /><path clip-path="url(#clip040)" d="M845.66 1535.45 L833.854 1553.89 L845.66 1553.89 L845.66 1535.45 M844.433 1531.37 L850.313 1531.37 L850.313 1553.89 L855.243 1553.89 L855.243 1557.78 L850.313 1557.78 L850.313 1565.93 L845.66 1565.93 L845.66 1557.78 L830.058 1557.78 L830.058 1553.27 L844.433 1531.37 Z" fill="#000000" fill-rule="evenodd" fill-opacity="1" /><path clip-path="url(#clip040)" d="M1151.13 1546.79 Q1147.99 1546.79 1146.13 1548.94 Q1144.3 1551.09 1144.3 1554.84 Q1144.3 1558.57 1146.13 1560.75 Q1147.99 1562.9 1151.13 1562.9 Q1154.28 1562.9 1156.11 1560.75 Q1157.96 1558.57 1157.96 1554.84 Q1157.96 1551.09 1156.11 1548.94 Q1154.28 1546.79 1151.13 1546.79 M1160.42 1532.14 L1160.42 1536.39 Q1158.66 1535.56 1156.85 1535.12 Q1155.07 1534.68 1153.31 1534.68 Q1148.68 1534.68 1146.23 1537.81 Q1143.8 1540.93 1143.45 1547.25 Q1144.81 1545.24 1146.87 1544.17 Q1148.93 1543.08 1151.41 1543.08 Q1156.62 1543.08 1159.63 1546.26 Q1162.66 1549.4 1162.66 1554.84 Q1162.66 1560.17 1159.51 1563.39 Q1156.37 1566.6 1151.13 1566.6 Q1145.14 1566.6 1141.97 1562.02 Q1138.8 1557.41 1138.8 1548.69 Q1138.8 1540.49 1142.68 1535.63 Q1146.57 1530.75 1153.12 1530.75 Q1154.88 1530.75 1156.67 1531.09 Q1158.47 1531.44 1160.42 1532.14 Z" fill="#000000" fill-rule="evenodd" fill-opacity="1" /><path clip-path="url(#clip040)" d="M1458.81 1549.52 Q1455.47 1549.52 1453.55 1551.3 Q1451.65 1553.08 1451.65 1556.21 Q1451.65 1559.33 1453.55 1561.12 Q1455.47 1562.9 1458.81 1562.9 Q1462.14 1562.9 1464.06 1561.12 Q1465.98 1559.31 1465.98 1556.21 Q1465.98 1553.08 1464.06 1551.3 Q1462.16 1549.52 1458.81 1549.52 M1454.13 1547.53 Q1451.12 1546.79 1449.43 1544.73 Q1447.76 1542.67 1447.76 1539.71 Q1447.76 1535.56 1450.7 1533.15 Q1453.67 1530.75 1458.81 1530.75 Q1463.97 1530.75 1466.91 1533.15 Q1469.85 1535.56 1469.85 1539.71 Q1469.85 1542.67 1468.16 1544.73 Q1466.49 1546.79 1463.51 1547.53 Q1466.89 1548.32 1468.76 1550.61 Q1470.66 1552.9 1470.66 1556.21 Q1470.66 1561.23 1467.58 1563.92 Q1464.52 1566.6 1458.81 1566.6 Q1453.09 1566.6 1450.01 1563.92 Q1446.95 1561.23 1446.95 1556.21 Q1446.95 1552.9 1448.85 1550.61 Q1450.75 1548.32 1454.13 1547.53 M1452.42 1540.14 Q1452.42 1542.83 1454.08 1544.33 Q1455.77 1545.84 1458.81 1545.84 Q1461.82 1545.84 1463.51 1544.33 Q1465.22 1542.83 1465.22 1540.14 Q1465.22 1537.46 1463.51 1535.96 Q1461.82 1534.45 1458.81 1534.45 Q1455.77 1534.45 1454.08 1535.96 Q1452.42 1537.46 1452.42 1540.14 Z" fill="#000000" fill-rule="evenodd" fill-opacity="1" /><path clip-path="url(#clip040)" d="M1741.57 1562 L1749.21 1562 L1749.21 1535.63 L1740.9 1537.3 L1740.9 1533.04 L1749.16 1531.37 L1753.84 1531.37 L1753.84 1562 L1761.48 1562 L1761.48 1565.93 L1741.57 1565.93 L1741.57 1562 Z" fill="#000000" fill-rule="evenodd" fill-opacity="1" /><path clip-path="url(#clip040)" d="M1780.92 1534.45 Q1777.31 1534.45 1775.48 1538.02 Q1773.68 1541.56 1773.68 1548.69 Q1773.68 1555.79 1775.48 1559.36 Q1777.31 1562.9 1780.92 1562.9 Q1784.56 1562.9 1786.36 1559.36 Q1788.19 1555.79 1788.19 1548.69 Q1788.19 1541.56 1786.36 1538.02 Q1784.56 1534.45 1780.92 1534.45 M1780.92 1530.75 Q1786.73 1530.75 1789.79 1535.35 Q1792.87 1539.94 1792.87 1548.69 Q1792.87 1557.41 1789.79 1562.02 Q1786.73 1566.6 1780.92 1566.6 Q1775.11 1566.6 1772.03 1562.02 Q1768.98 1557.41 1768.98 1548.69 Q1768.98 1539.94 1772.03 1535.35 Q1775.11 1530.75 1780.92 1530.75 Z" fill="#000000" fill-rule="evenodd" fill-opacity="1" /><path clip-path="url(#clip040)" d="M2050.45 1562 L2058.09 1562 L2058.09 1535.63 L2049.78 1537.3 L2049.78 1533.04 L2058.04 1531.37 L2062.72 1531.37 L2062.72 1562 L2070.36 1562 L2070.36 1565.93 L2050.45 1565.93 L2050.45 1562 Z" fill="#000000" fill-rule="evenodd" fill-opacity="1" /><path clip-path="url(#clip040)" d="M2083.83 1562 L2100.15 1562 L2100.15 1565.93 L2078.2 1565.93 L2078.2 1562 Q2080.86 1559.24 2085.45 1554.61 Q2090.05 1549.96 2091.24 1548.62 Q2093.48 1546.09 2094.36 1544.36 Q2095.26 1542.6 2095.26 1540.91 Q2095.26 1538.15 2093.32 1536.42 Q2091.4 1534.68 2088.3 1534.68 Q2086.1 1534.68 2083.64 1535.45 Q2081.21 1536.21 2078.43 1537.76 L2078.43 1533.04 Q2081.26 1531.9 2083.71 1531.33 Q2086.17 1530.75 2088.2 1530.75 Q2093.57 1530.75 2096.77 1533.43 Q2099.96 1536.12 2099.96 1540.61 Q2099.96 1542.74 2099.15 1544.66 Q2098.36 1546.56 2096.26 1549.15 Q2095.68 1549.82 2092.58 1553.04 Q2089.48 1556.23 2083.83 1562 Z" fill="#000000" fill-rule="evenodd" fill-opacity="1" /><path clip-path="url(#clip040)" d="M1229.71 1621.32 Q1231.9 1617.37 1234.96 1615.49 Q1238.01 1613.62 1242.15 1613.62 Q1247.72 1613.62 1250.74 1617.53 Q1253.77 1621.41 1253.77 1628.61 L1253.77 1650.12 L1247.88 1650.12 L1247.88 1628.8 Q1247.88 1623.67 1246.07 1621.19 Q1244.25 1618.71 1240.53 1618.71 Q1235.98 1618.71 1233.33 1621.73 Q1230.69 1624.76 1230.69 1629.98 L1230.69 1650.12 L1224.8 1650.12 L1224.8 1628.8 Q1224.8 1623.64 1222.99 1621.19 Q1221.18 1618.71 1217.39 1618.71 Q1212.9 1618.71 1210.26 1621.76 Q1207.62 1624.79 1207.62 1629.98 L1207.62 1650.12 L1201.73 1650.12 L1201.73 1614.48 L1207.62 1614.48 L1207.62 1620.01 Q1209.62 1616.74 1212.42 1615.18 Q1215.22 1613.62 1219.07 1613.62 Q1222.96 1613.62 1225.66 1615.59 Q1228.4 1617.56 1229.71 1621.32 Z" fill="#000000" fill-rule="evenodd" fill-opacity="1" /><polyline clip-path="url(#clip042)" style="stroke:#000000; stroke-linecap:butt; stroke-linejoin:round; stroke-width:2; stroke-opacity:0.1; fill:none" points="
  102.74,1464 2352.76,1464 
  "/>
<polyline clip-path="url(#clip042)" style="stroke:#000000; stroke-linecap:butt; stroke-linejoin:round; stroke-width:2; stroke-opacity:0.1; fill:none" points="
  102.74,1195.89 2352.76,1195.89 
  "/>
<polyline clip-path="url(#clip042)" style="stroke:#000000; stroke-linecap:butt; stroke-linejoin:round; stroke-width:2; stroke-opacity:0.1; fill:none" points="
  102.74,927.776 2352.76,927.776 
  "/>
<polyline clip-path="url(#clip042)" style="stroke:#000000; stroke-linecap:butt; stroke-linejoin:round; stroke-width:2; stroke-opacity:0.1; fill:none" points="
  102.74,659.666 2352.76,659.666 
  "/>
<polyline clip-path="url(#clip042)" style="stroke:#000000; stroke-linecap:butt; stroke-linejoin:round; stroke-width:2; stroke-opacity:0.1; fill:none" points="
  102.74,391.556 2352.76,391.556 
  "/>
<polyline clip-path="url(#clip042)" style="stroke:#000000; stroke-linecap:butt; stroke-linejoin:round; stroke-width:2; stroke-opacity:0.1; fill:none" points="
  102.74,123.447 2352.76,123.447 
  "/>
<polyline clip-path="url(#clip040)" style="stroke:#000000; stroke-linecap:butt; stroke-linejoin:round; stroke-width:4; stroke-opacity:1; fill:none" points="
  102.74,1505.26 102.74,47.2441 
  "/>
<polyline clip-path="url(#clip040)" style="stroke:#000000; stroke-linecap:butt; stroke-linejoin:round; stroke-width:4; stroke-opacity:1; fill:none" points="
  102.74,1464 129.74,1464 
  "/>
<polyline clip-path="url(#clip040)" style="stroke:#000000; stroke-linecap:butt; stroke-linejoin:round; stroke-width:4; stroke-opacity:1; fill:none" points="
  102.74,1195.89 129.74,1195.89 
  "/>
<polyline clip-path="url(#clip040)" style="stroke:#000000; stroke-linecap:butt; stroke-linejoin:round; stroke-width:4; stroke-opacity:1; fill:none" points="
  102.74,927.776 129.74,927.776 
  "/>
<polyline clip-path="url(#clip040)" style="stroke:#000000; stroke-linecap:butt; stroke-linejoin:round; stroke-width:4; stroke-opacity:1; fill:none" points="
  102.74,659.666 129.74,659.666 
  "/>
<polyline clip-path="url(#clip040)" style="stroke:#000000; stroke-linecap:butt; stroke-linejoin:round; stroke-width:4; stroke-opacity:1; fill:none" points="
  102.74,391.556 129.74,391.556 
  "/>
<polyline clip-path="url(#clip040)" style="stroke:#000000; stroke-linecap:butt; stroke-linejoin:round; stroke-width:4; stroke-opacity:1; fill:none" points="
  102.74,123.447 129.74,123.447 
  "/>
<path clip-path="url(#clip040)" d="M-20.5973 1449.79 Q-24.2084 1449.79 -26.0371 1453.36 Q-27.8427 1456.9 -27.8427 1464.03 Q-27.8427 1471.14 -26.0371 1474.7 Q-24.2084 1478.24 -20.5973 1478.24 Q-16.9631 1478.24 -15.1576 1474.7 Q-13.3289 1471.14 -13.3289 1464.03 Q-13.3289 1456.9 -15.1576 1453.36 Q-16.9631 1449.79 -20.5973 1449.79 M-20.5973 1446.09 Q-14.7872 1446.09 -11.7316 1450.7 Q-8.65296 1455.28 -8.65296 1464.03 Q-8.65296 1472.76 -11.7316 1477.36 Q-14.7872 1481.95 -20.5973 1481.95 Q-26.4075 1481.95 -29.4862 1477.36 Q-32.5417 1472.76 -32.5417 1464.03 Q-32.5417 1455.28 -29.4862 1450.7 Q-26.4075 1446.09 -20.5973 1446.09 Z" fill="#000000" fill-rule="evenodd" fill-opacity="1" /><path clip-path="url(#clip040)" d="M-0.435408 1475.4 L4.44882 1475.4 L4.44882 1481.28 L-0.435408 1481.28 L-0.435408 1475.4 Z" fill="#000000" fill-rule="evenodd" fill-opacity="1" /><path clip-path="url(#clip040)" d="M24.6339 1449.79 Q21.0228 1449.79 19.1941 1453.36 Q17.3886 1456.9 17.3886 1464.03 Q17.3886 1471.14 19.1941 1474.7 Q21.0228 1478.24 24.6339 1478.24 Q28.2681 1478.24 30.0737 1474.7 Q31.9024 1471.14 31.9024 1464.03 Q31.9024 1456.9 30.0737 1453.36 Q28.2681 1449.79 24.6339 1449.79 M24.6339 1446.09 Q30.4441 1446.09 33.4996 1450.7 Q36.5783 1455.28 36.5783 1464.03 Q36.5783 1472.76 33.4996 1477.36 Q30.4441 1481.95 24.6339 1481.95 Q18.8237 1481.95 15.7451 1477.36 Q12.6895 1472.76 12.6895 1464.03 Q12.6895 1455.28 15.7451 1450.7 Q18.8237 1446.09 24.6339 1446.09 Z" fill="#000000" fill-rule="evenodd" fill-opacity="1" /><path clip-path="url(#clip040)" d="M54.7958 1449.79 Q51.1847 1449.79 49.356 1453.36 Q47.5504 1456.9 47.5504 1464.03 Q47.5504 1471.14 49.356 1474.7 Q51.1847 1478.24 54.7958 1478.24 Q58.43 1478.24 60.2356 1474.7 Q62.0643 1471.14 62.0643 1464.03 Q62.0643 1456.9 60.2356 1453.36 Q58.43 1449.79 54.7958 1449.79 M54.7958 1446.09 Q60.6059 1446.09 63.6615 1450.7 Q66.7402 1455.28 66.7402 1464.03 Q66.7402 1472.76 63.6615 1477.36 Q60.6059 1481.95 54.7958 1481.95 Q48.9856 1481.95 45.9069 1477.36 Q42.8514 1472.76 42.8514 1464.03 Q42.8514 1455.28 45.9069 1450.7 Q48.9856 1446.09 54.7958 1446.09 Z" fill="#000000" fill-rule="evenodd" fill-opacity="1" /><path clip-path="url(#clip040)" d="M-19.602 1181.68 Q-23.2131 1181.68 -25.0418 1185.25 Q-26.8473 1188.79 -26.8473 1195.92 Q-26.8473 1203.03 -25.0418 1206.59 Q-23.2131 1210.13 -19.602 1210.13 Q-15.9677 1210.13 -14.1622 1206.59 Q-12.3335 1203.03 -12.3335 1195.92 Q-12.3335 1188.79 -14.1622 1185.25 Q-15.9677 1181.68 -19.602 1181.68 M-19.602 1177.98 Q-13.7918 1177.98 -10.7363 1182.59 Q-7.65759 1187.17 -7.65759 1195.92 Q-7.65759 1204.65 -10.7363 1209.25 Q-13.7918 1213.84 -19.602 1213.84 Q-25.4121 1213.84 -28.4908 1209.25 Q-31.5464 1204.65 -31.5464 1195.92 Q-31.5464 1187.17 -28.4908 1182.59 Q-25.4121 1177.98 -19.602 1177.98 Z" fill="#000000" fill-rule="evenodd" fill-opacity="1" /><path clip-path="url(#clip040)" d="M0.559957 1207.29 L5.44419 1207.29 L5.44419 1213.17 L0.559957 1213.17 L0.559957 1207.29 Z" fill="#000000" fill-rule="evenodd" fill-opacity="1" /><path clip-path="url(#clip040)" d="M25.6293 1181.68 Q22.0182 1181.68 20.1895 1185.25 Q18.3839 1188.79 18.3839 1195.92 Q18.3839 1203.03 20.1895 1206.59 Q22.0182 1210.13 25.6293 1210.13 Q29.2635 1210.13 31.0691 1206.59 Q32.8977 1203.03 32.8977 1195.92 Q32.8977 1188.79 31.0691 1185.25 Q29.2635 1181.68 25.6293 1181.68 M25.6293 1177.98 Q31.4394 1177.98 34.495 1182.59 Q37.5736 1187.17 37.5736 1195.92 Q37.5736 1204.65 34.495 1209.25 Q31.4394 1213.84 25.6293 1213.84 Q19.8191 1213.84 16.7404 1209.25 Q13.6849 1204.65 13.6849 1195.92 Q13.6849 1187.17 16.7404 1182.59 Q19.8191 1177.98 25.6293 1177.98 Z" fill="#000000" fill-rule="evenodd" fill-opacity="1" /><path clip-path="url(#clip040)" d="M45.8375 1178.61 L64.1939 1178.61 L64.1939 1182.54 L50.1199 1182.54 L50.1199 1191.01 Q51.1384 1190.67 52.1569 1190.5 Q53.1754 1190.32 54.1939 1190.32 Q59.9809 1190.32 63.3605 1193.49 Q66.7402 1196.66 66.7402 1202.08 Q66.7402 1207.66 63.268 1210.76 Q59.7958 1213.84 53.4763 1213.84 Q51.3004 1213.84 49.0319 1213.47 Q46.7866 1213.1 44.3792 1212.36 L44.3792 1207.66 Q46.4625 1208.79 48.6847 1209.35 Q50.9069 1209.9 53.3837 1209.9 Q57.3884 1209.9 59.7263 1207.8 Q62.0643 1205.69 62.0643 1202.08 Q62.0643 1198.47 59.7263 1196.36 Q57.3884 1194.25 53.3837 1194.25 Q51.5088 1194.25 49.6338 1194.67 Q47.7819 1195.09 45.8375 1195.97 L45.8375 1178.61 Z" fill="#000000" fill-rule="evenodd" fill-opacity="1" /><path clip-path="url(#clip040)" d="M-20.5973 913.575 Q-24.2084 913.575 -26.0371 917.139 Q-27.8427 920.681 -27.8427 927.811 Q-27.8427 934.917 -26.0371 938.482 Q-24.2084 942.023 -20.5973 942.023 Q-16.9631 942.023 -15.1576 938.482 Q-13.3289 934.917 -13.3289 927.811 Q-13.3289 920.681 -15.1576 917.139 Q-16.9631 913.575 -20.5973 913.575 M-20.5973 909.871 Q-14.7872 909.871 -11.7316 914.477 Q-8.65296 919.061 -8.65296 927.811 Q-8.65296 936.537 -11.7316 941.144 Q-14.7872 945.727 -20.5973 945.727 Q-26.4075 945.727 -29.4862 941.144 Q-32.5417 936.537 -32.5417 927.811 Q-32.5417 919.061 -29.4862 914.477 Q-26.4075 909.871 -20.5973 909.871 Z" fill="#000000" fill-rule="evenodd" fill-opacity="1" /><path clip-path="url(#clip040)" d="M-0.435408 939.176 L4.44882 939.176 L4.44882 945.056 L-0.435408 945.056 L-0.435408 939.176 Z" fill="#000000" fill-rule="evenodd" fill-opacity="1" /><path clip-path="url(#clip040)" d="M15.4441 941.121 L23.083 941.121 L23.083 914.755 L14.7728 916.422 L14.7728 912.162 L23.0367 910.496 L27.7126 910.496 L27.7126 941.121 L35.3514 941.121 L35.3514 945.056 L15.4441 945.056 L15.4441 941.121 Z" fill="#000000" fill-rule="evenodd" fill-opacity="1" /><path clip-path="url(#clip040)" d="M54.7958 913.575 Q51.1847 913.575 49.356 917.139 Q47.5504 920.681 47.5504 927.811 Q47.5504 934.917 49.356 938.482 Q51.1847 942.023 54.7958 942.023 Q58.43 942.023 60.2356 938.482 Q62.0643 934.917 62.0643 927.811 Q62.0643 920.681 60.2356 917.139 Q58.43 913.575 54.7958 913.575 M54.7958 909.871 Q60.6059 909.871 63.6615 914.477 Q66.7402 919.061 66.7402 927.811 Q66.7402 936.537 63.6615 941.144 Q60.6059 945.727 54.7958 945.727 Q48.9856 945.727 45.9069 941.144 Q42.8514 936.537 42.8514 927.811 Q42.8514 919.061 45.9069 914.477 Q48.9856 909.871 54.7958 909.871 Z" fill="#000000" fill-rule="evenodd" fill-opacity="1" /><path clip-path="url(#clip040)" d="M-19.602 645.465 Q-23.2131 645.465 -25.0418 649.03 Q-26.8473 652.571 -26.8473 659.701 Q-26.8473 666.807 -25.0418 670.372 Q-23.2131 673.914 -19.602 673.914 Q-15.9677 673.914 -14.1622 670.372 Q-12.3335 666.807 -12.3335 659.701 Q-12.3335 652.571 -14.1622 649.03 Q-15.9677 645.465 -19.602 645.465 M-19.602 641.761 Q-13.7918 641.761 -10.7363 646.368 Q-7.65759 650.951 -7.65759 659.701 Q-7.65759 668.428 -10.7363 673.034 Q-13.7918 677.617 -19.602 677.617 Q-25.4121 677.617 -28.4908 673.034 Q-31.5464 668.428 -31.5464 659.701 Q-31.5464 650.951 -28.4908 646.368 Q-25.4121 641.761 -19.602 641.761 Z" fill="#000000" fill-rule="evenodd" fill-opacity="1" /><path clip-path="url(#clip040)" d="M0.559957 671.067 L5.44419 671.067 L5.44419 676.946 L0.559957 676.946 L0.559957 671.067 Z" fill="#000000" fill-rule="evenodd" fill-opacity="1" /><path clip-path="url(#clip040)" d="M16.4395 673.011 L24.0783 673.011 L24.0783 646.645 L15.7682 648.312 L15.7682 644.053 L24.0321 642.386 L28.708 642.386 L28.708 673.011 L36.3468 673.011 L36.3468 676.946 L16.4395 676.946 L16.4395 673.011 Z" fill="#000000" fill-rule="evenodd" fill-opacity="1" /><path clip-path="url(#clip040)" d="M45.8375 642.386 L64.1939 642.386 L64.1939 646.321 L50.1199 646.321 L50.1199 654.793 Q51.1384 654.446 52.1569 654.284 Q53.1754 654.099 54.1939 654.099 Q59.9809 654.099 63.3605 657.27 Q66.7402 660.442 66.7402 665.858 Q66.7402 671.437 63.268 674.539 Q59.7958 677.617 53.4763 677.617 Q51.3004 677.617 49.0319 677.247 Q46.7866 676.877 44.3792 676.136 L44.3792 671.437 Q46.4625 672.571 48.6847 673.127 Q50.9069 673.682 53.3837 673.682 Q57.3884 673.682 59.7263 671.576 Q62.0643 669.469 62.0643 665.858 Q62.0643 662.247 59.7263 660.141 Q57.3884 658.034 53.3837 658.034 Q51.5088 658.034 49.6338 658.451 Q47.7819 658.868 45.8375 659.747 L45.8375 642.386 Z" fill="#000000" fill-rule="evenodd" fill-opacity="1" /><path clip-path="url(#clip040)" d="M-20.5973 377.355 Q-24.2084 377.355 -26.0371 380.92 Q-27.8427 384.462 -27.8427 391.591 Q-27.8427 398.698 -26.0371 402.262 Q-24.2084 405.804 -20.5973 405.804 Q-16.9631 405.804 -15.1576 402.262 Q-13.3289 398.698 -13.3289 391.591 Q-13.3289 384.462 -15.1576 380.92 Q-16.9631 377.355 -20.5973 377.355 M-20.5973 373.651 Q-14.7872 373.651 -11.7316 378.258 Q-8.65296 382.841 -8.65296 391.591 Q-8.65296 400.318 -11.7316 404.924 Q-14.7872 409.508 -20.5973 409.508 Q-26.4075 409.508 -29.4862 404.924 Q-32.5417 400.318 -32.5417 391.591 Q-32.5417 382.841 -29.4862 378.258 Q-26.4075 373.651 -20.5973 373.651 Z" fill="#000000" fill-rule="evenodd" fill-opacity="1" /><path clip-path="url(#clip040)" d="M-0.435408 402.957 L4.44882 402.957 L4.44882 408.836 L-0.435408 408.836 L-0.435408 402.957 Z" fill="#000000" fill-rule="evenodd" fill-opacity="1" /><path clip-path="url(#clip040)" d="M18.6617 404.901 L34.9811 404.901 L34.9811 408.836 L13.0367 408.836 L13.0367 404.901 Q15.6988 402.147 20.2821 397.517 Q24.8885 392.864 26.0691 391.522 Q28.3144 388.999 29.1941 387.262 Q30.0968 385.503 30.0968 383.813 Q30.0968 381.059 28.1524 379.323 Q26.2311 377.587 23.1293 377.587 Q20.9302 377.587 18.4765 378.35 Q16.046 379.114 13.2682 380.665 L13.2682 375.943 Q16.0923 374.809 18.546 374.23 Q20.9997 373.651 23.0367 373.651 Q28.407 373.651 31.6015 376.337 Q34.7959 379.022 34.7959 383.512 Q34.7959 385.642 33.9857 387.563 Q33.1987 389.462 31.0922 392.054 Q30.5135 392.725 27.4117 395.943 Q24.3098 399.137 18.6617 404.901 Z" fill="#000000" fill-rule="evenodd" fill-opacity="1" /><path clip-path="url(#clip040)" d="M54.7958 377.355 Q51.1847 377.355 49.356 380.92 Q47.5504 384.462 47.5504 391.591 Q47.5504 398.698 49.356 402.262 Q51.1847 405.804 54.7958 405.804 Q58.43 405.804 60.2356 402.262 Q62.0643 398.698 62.0643 391.591 Q62.0643 384.462 60.2356 380.92 Q58.43 377.355 54.7958 377.355 M54.7958 373.651 Q60.6059 373.651 63.6615 378.258 Q66.7402 382.841 66.7402 391.591 Q66.7402 400.318 63.6615 404.924 Q60.6059 409.508 54.7958 409.508 Q48.9856 409.508 45.9069 404.924 Q42.8514 400.318 42.8514 391.591 Q42.8514 382.841 45.9069 378.258 Q48.9856 373.651 54.7958 373.651 Z" fill="#000000" fill-rule="evenodd" fill-opacity="1" /><path clip-path="url(#clip040)" d="M-19.602 109.245 Q-23.2131 109.245 -25.0418 112.81 Q-26.8473 116.352 -26.8473 123.481 Q-26.8473 130.588 -25.0418 134.153 Q-23.2131 137.694 -19.602 137.694 Q-15.9677 137.694 -14.1622 134.153 Q-12.3335 130.588 -12.3335 123.481 Q-12.3335 116.352 -14.1622 112.81 Q-15.9677 109.245 -19.602 109.245 M-19.602 105.542 Q-13.7918 105.542 -10.7363 110.148 Q-7.65759 114.731 -7.65759 123.481 Q-7.65759 132.208 -10.7363 136.815 Q-13.7918 141.398 -19.602 141.398 Q-25.4121 141.398 -28.4908 136.815 Q-31.5464 132.208 -31.5464 123.481 Q-31.5464 114.731 -28.4908 110.148 Q-25.4121 105.542 -19.602 105.542 Z" fill="#000000" fill-rule="evenodd" fill-opacity="1" /><path clip-path="url(#clip040)" d="M0.559957 134.847 L5.44419 134.847 L5.44419 140.727 L0.559957 140.727 L0.559957 134.847 Z" fill="#000000" fill-rule="evenodd" fill-opacity="1" /><path clip-path="url(#clip040)" d="M19.6571 136.792 L35.9764 136.792 L35.9764 140.727 L14.0321 140.727 L14.0321 136.792 Q16.6941 134.037 21.2774 129.407 Q25.8839 124.755 27.0644 123.412 Q29.3098 120.889 30.1894 119.153 Q31.0922 117.394 31.0922 115.704 Q31.0922 112.949 29.1478 111.213 Q27.2265 109.477 24.1246 109.477 Q21.9256 109.477 19.4719 110.241 Q17.0413 111.005 14.2636 112.556 L14.2636 107.833 Q17.0876 106.699 19.5413 106.12 Q21.995 105.542 24.0321 105.542 Q29.4024 105.542 32.5968 108.227 Q35.7912 110.912 35.7912 115.403 Q35.7912 117.532 34.9811 119.454 Q34.194 121.352 32.0876 123.944 Q31.5089 124.616 28.407 127.833 Q25.3052 131.028 19.6571 136.792 Z" fill="#000000" fill-rule="evenodd" fill-opacity="1" /><path clip-path="url(#clip040)" d="M45.8375 106.167 L64.1939 106.167 L64.1939 110.102 L50.1199 110.102 L50.1199 118.574 Q51.1384 118.227 52.1569 118.065 Q53.1754 117.88 54.1939 117.88 Q59.9809 117.88 63.3605 121.051 Q66.7402 124.222 66.7402 129.639 Q66.7402 135.217 63.268 138.319 Q59.7958 141.398 53.4763 141.398 Q51.3004 141.398 49.0319 141.028 Q46.7866 140.657 44.3792 139.917 L44.3792 135.217 Q46.4625 136.352 48.6847 136.907 Q50.9069 137.463 53.3837 137.463 Q57.3884 137.463 59.7263 135.356 Q62.0643 133.25 62.0643 129.639 Q62.0643 126.028 59.7263 123.921 Q57.3884 121.815 53.3837 121.815 Q51.5088 121.815 49.6338 122.231 Q47.7819 122.648 45.8375 123.528 L45.8375 106.167 Z" fill="#000000" fill-rule="evenodd" fill-opacity="1" /><path clip-path="url(#clip040)" d="M-125.034 840.657 L-107.178 840.657 L-107.178 832.573 Q-107.178 828.085 -109.502 825.634 Q-111.825 823.183 -116.122 823.183 Q-120.387 823.183 -122.711 825.634 Q-125.034 828.085 -125.034 832.573 L-125.034 840.657 M-130.318 847.086 L-130.318 832.573 Q-130.318 824.584 -126.689 820.51 Q-123.093 816.404 -116.122 816.404 Q-109.088 816.404 -105.491 820.51 Q-101.895 824.584 -101.895 832.573 L-101.895 840.657 L-82.7977 840.657 L-82.7977 847.086 L-130.318 847.086 Z" fill="#000000" fill-rule="evenodd" fill-opacity="1" /><path clip-path="url(#clip040)" d="M-132.259 793.965 Q-124.939 798.23 -117.777 800.298 Q-110.616 802.367 -103.263 802.367 Q-95.9111 802.367 -88.686 800.298 Q-81.4927 798.198 -74.204 793.965 L-74.204 799.057 Q-81.6837 803.831 -88.9088 806.219 Q-96.1339 808.574 -103.263 808.574 Q-110.361 808.574 -117.554 806.219 Q-124.748 803.863 -132.259 799.057 L-132.259 793.965 Z" fill="#000000" fill-rule="evenodd" fill-opacity="1" /><path clip-path="url(#clip040)" d="M-111.603 754.847 Q-115.549 752.651 -117.427 749.596 Q-119.305 746.54 -119.305 742.402 Q-119.305 736.832 -115.39 733.809 Q-111.507 730.785 -104.314 730.785 L-82.7977 730.785 L-82.7977 736.673 L-104.123 736.673 Q-109.247 736.673 -111.73 738.487 Q-114.212 740.302 -114.212 744.026 Q-114.212 748.577 -111.189 751.219 Q-108.165 753.861 -102.945 753.861 L-82.7977 753.861 L-82.7977 759.749 L-104.123 759.749 Q-109.279 759.749 -111.73 761.563 Q-114.212 763.377 -114.212 767.165 Q-114.212 771.653 -111.157 774.295 Q-108.133 776.936 -102.945 776.936 L-82.7977 776.936 L-82.7977 782.825 L-118.446 782.825 L-118.446 776.936 L-112.908 776.936 Q-116.186 774.931 -117.745 772.13 Q-119.305 769.329 -119.305 765.478 Q-119.305 761.595 -117.332 758.89 Q-115.358 756.152 -111.603 754.847 Z" fill="#000000" fill-rule="evenodd" fill-opacity="1" /><path clip-path="url(#clip040)" d="M-132.259 720.027 L-132.259 714.934 Q-124.748 710.16 -117.554 707.805 Q-110.361 705.418 -103.263 705.418 Q-96.1339 705.418 -88.9088 707.805 Q-81.6837 710.16 -74.204 714.934 L-74.204 720.027 Q-81.4927 715.794 -88.686 713.725 Q-95.9111 711.624 -103.263 711.624 Q-110.616 711.624 -117.777 713.725 Q-124.939 715.794 -132.259 720.027 Z" fill="#000000" fill-rule="evenodd" fill-opacity="1" /><path clip-path="url(#clip042)" d="
M226.495 1026.32 L226.495 1464 L380.534 1464 L380.534 1026.32 L226.495 1026.32 L226.495 1026.32  Z
  " fill="#009af9" fill-rule="evenodd" fill-opacity="1"/>
<polyline clip-path="url(#clip042)" style="stroke:#009af9; stroke-linecap:butt; stroke-linejoin:round; stroke-width:4; stroke-opacity:1; fill:none" points="
  226.495,1026.32 226.495,1464 380.534,1464 380.534,1026.32 226.495,1026.32 
  "/>
<path clip-path="url(#clip042)" d="
M380.534 359.984 L380.534 1464 L534.573 1464 L534.573 359.984 L380.534 359.984 L380.534 359.984  Z
  " fill="#009af9" fill-rule="evenodd" fill-opacity="1"/>
<polyline clip-path="url(#clip042)" style="stroke:#009af9; stroke-linecap:butt; stroke-linejoin:round; stroke-width:4; stroke-opacity:1; fill:none" points="
  380.534,359.984 380.534,1464 534.573,1464 534.573,359.984 380.534,359.984 
  "/>
<path clip-path="url(#clip042)" d="
M534.573 100.299 L534.573 1464 L688.612 1464 L688.612 100.299 L534.573 100.299 L534.573 100.299  Z
  " fill="#009af9" fill-rule="evenodd" fill-opacity="1"/>
<polyline clip-path="url(#clip042)" style="stroke:#009af9; stroke-linecap:butt; stroke-linejoin:round; stroke-width:4; stroke-opacity:1; fill:none" points="
  534.573,100.299 534.573,1464 688.612,1464 688.612,100.299 534.573,100.299 
  "/>
<path clip-path="url(#clip042)" d="
M688.612 310.656 L688.612 1464 L842.651 1464 L842.651 310.656 L688.612 310.656 L688.612 310.656  Z
  " fill="#009af9" fill-rule="evenodd" fill-opacity="1"/>
<polyline clip-path="url(#clip042)" style="stroke:#009af9; stroke-linecap:butt; stroke-linejoin:round; stroke-width:4; stroke-opacity:1; fill:none" points="
  688.612,310.656 688.612,1464 842.651,1464 842.651,310.656 688.612,310.656 
  "/>
<path clip-path="url(#clip042)" d="
M842.651 748.009 L842.651 1464 L996.69 1464 L996.69 748.009 L842.651 748.009 L842.651 748.009  Z
  " fill="#009af9" fill-rule="evenodd" fill-opacity="1"/>
<polyline clip-path="url(#clip042)" style="stroke:#009af9; stroke-linecap:butt; stroke-linejoin:round; stroke-width:4; stroke-opacity:1; fill:none" points="
  842.651,748.009 842.651,1464 996.69,1464 996.69,748.009 842.651,748.009 
  "/>
<path clip-path="url(#clip042)" d="
M996.69 1100.12 L996.69 1464 L1150.73 1464 L1150.73 1100.12 L996.69 1100.12 L996.69 1100.12  Z
  " fill="#009af9" fill-rule="evenodd" fill-opacity="1"/>
<polyline clip-path="url(#clip042)" style="stroke:#009af9; stroke-linecap:butt; stroke-linejoin:round; stroke-width:4; stroke-opacity:1; fill:none" points="
  996.69,1100.12 996.69,1464 1150.73,1464 1150.73,1100.12 996.69,1100.12 
  "/>
<path clip-path="url(#clip042)" d="
M1150.73 1314.99 L1150.73 1464 L1304.77 1464 L1304.77 1314.99 L1150.73 1314.99 L1150.73 1314.99  Z
  " fill="#009af9" fill-rule="evenodd" fill-opacity="1"/>
<polyline clip-path="url(#clip042)" style="stroke:#009af9; stroke-linecap:butt; stroke-linejoin:round; stroke-width:4; stroke-opacity:1; fill:none" points="
  1150.73,1314.99 1150.73,1464 1304.77,1464 1304.77,1314.99 1150.73,1314.99 
  "/>
<path clip-path="url(#clip042)" d="
M1304.77 1410.37 L1304.77 1464 L1458.81 1464 L1458.81 1410.37 L1304.77 1410.37 L1304.77 1410.37  Z
  " fill="#009af9" fill-rule="evenodd" fill-opacity="1"/>
<polyline clip-path="url(#clip042)" style="stroke:#009af9; stroke-linecap:butt; stroke-linejoin:round; stroke-width:4; stroke-opacity:1; fill:none" points="
  1304.77,1410.37 1304.77,1464 1458.81,1464 1458.81,1410.37 1304.77,1410.37 
  "/>
<path clip-path="url(#clip042)" d="
M1458.81 1448.05 L1458.81 1464 L1612.85 1464 L1612.85 1448.05 L1458.81 1448.05 L1458.81 1448.05  Z
  " fill="#009af9" fill-rule="evenodd" fill-opacity="1"/>
<polyline clip-path="url(#clip042)" style="stroke:#009af9; stroke-linecap:butt; stroke-linejoin:round; stroke-width:4; stroke-opacity:1; fill:none" points="
  1458.81,1448.05 1458.81,1464 1612.85,1464 1612.85,1448.05 1458.81,1448.05 
  "/>
<path clip-path="url(#clip042)" d="
M1612.85 1460.18 L1612.85 1464 L1766.88 1464 L1766.88 1460.18 L1612.85 1460.18 L1612.85 1460.18  Z
  " fill="#009af9" fill-rule="evenodd" fill-opacity="1"/>
<polyline clip-path="url(#clip042)" style="stroke:#009af9; stroke-linecap:butt; stroke-linejoin:round; stroke-width:4; stroke-opacity:1; fill:none" points="
  1612.85,1460.18 1612.85,1464 1766.88,1464 1766.88,1460.18 1612.85,1460.18 
  "/>
<path clip-path="url(#clip042)" d="
M1766.88 1463.19 L1766.88 1464 L1920.92 1464 L1920.92 1463.19 L1766.88 1463.19 L1766.88 1463.19  Z
  " fill="#009af9" fill-rule="evenodd" fill-opacity="1"/>
<polyline clip-path="url(#clip042)" style="stroke:#009af9; stroke-linecap:butt; stroke-linejoin:round; stroke-width:4; stroke-opacity:1; fill:none" points="
  1766.88,1463.19 1766.88,1464 1920.92,1464 1920.92,1463.19 1766.88,1463.19 
  "/>
<path clip-path="url(#clip042)" d="
M1920.92 1463.62 L1920.92 1464 L2074.96 1464 L2074.96 1463.62 L1920.92 1463.62 L1920.92 1463.62  Z
  " fill="#009af9" fill-rule="evenodd" fill-opacity="1"/>
<polyline clip-path="url(#clip042)" style="stroke:#009af9; stroke-linecap:butt; stroke-linejoin:round; stroke-width:4; stroke-opacity:1; fill:none" points="
  1920.92,1463.62 1920.92,1464 2074.96,1464 2074.96,1463.62 1920.92,1463.62 
  "/>
<path clip-path="url(#clip042)" d="
M2074.96 1463.94 L2074.96 1464 L2229 1464 L2229 1463.94 L2074.96 1463.94 L2074.96 1463.94  Z
  " fill="#009af9" fill-rule="evenodd" fill-opacity="1"/>
<polyline clip-path="url(#clip042)" style="stroke:#009af9; stroke-linecap:butt; stroke-linejoin:round; stroke-width:4; stroke-opacity:1; fill:none" points="
  2074.96,1463.94 2074.96,1464 2229,1464 2229,1463.94 2074.96,1463.94 
  "/>
<polyline clip-path="url(#clip042)" style="stroke:#e26f46; stroke-linecap:butt; stroke-linejoin:round; stroke-width:12; stroke-opacity:1; fill:none" points="
  226.495,1076.37 241.899,1036.46 257.303,994.319 272.707,950.087 288.111,903.935 303.514,856.074 318.918,806.758 334.322,756.278 349.726,704.963 365.13,653.176 
  380.534,601.315 395.938,549.8 411.342,499.076 426.746,449.603 442.15,401.851 457.553,356.291 472.957,313.389 488.361,273.595 503.765,237.342 519.169,205.031 
  534.573,177.027 549.977,153.652 565.381,135.178 580.785,121.823 596.188,113.746 611.592,111.043 626.996,113.746 642.4,121.823 657.804,135.178 673.208,153.652 
  688.612,177.027 704.016,205.031 719.42,237.342 734.823,273.595 750.227,313.389 765.631,356.291 781.035,401.851 796.439,449.603 811.843,499.076 827.247,549.8 
  842.651,601.315 858.055,653.176 873.459,704.963 888.862,756.278 904.266,806.758 919.67,856.074 935.074,903.935 950.478,950.087 965.882,994.319 981.286,1036.46 
  996.69,1076.37 1012.09,1113.96 1027.5,1149.16 1042.9,1181.96 1058.31,1212.34 1073.71,1240.35 1089.11,1266.04 1104.52,1289.47 1119.92,1310.75 1135.32,1329.97 
  1150.73,1347.24 1166.13,1362.7 1181.54,1376.46 1196.94,1388.65 1212.34,1399.41 1227.75,1408.85 1243.15,1417.09 1258.56,1424.27 1273.96,1430.48 1289.36,1435.83 
  1304.77,1440.42 1320.17,1444.35 1335.58,1447.68 1350.98,1450.5 1366.38,1452.88 1381.79,1454.88 1397.19,1456.55 1412.59,1457.93 1428,1459.08 1443.4,1460.03 
  1458.81,1460.81 1474.21,1461.44 1489.61,1461.96 1505.02,1462.38 1520.42,1462.71 1535.83,1462.99 1551.23,1463.2 1566.63,1463.38 1582.04,1463.51 1597.44,1463.62 
  1612.85,1463.71 1628.25,1463.77 1643.65,1463.82 1659.06,1463.86 1674.46,1463.9 1689.86,1463.92 1705.27,1463.94 1720.67,1463.95 1736.08,1463.96 1751.48,1463.97 
  1766.88,1463.98 1782.29,1463.98 1797.69,1463.99 1813.1,1463.99 1828.5,1463.99 1843.9,1463.99 1859.31,1463.99 1874.71,1463.99 1890.12,1463.99 1905.52,1463.99 
  1920.92,1463.99 1936.33,1463.99 1951.73,1463.99 1967.13,1463.99 1982.54,1464 1997.94,1464 2013.35,1464 2028.75,1464 2044.15,1464 2059.56,1464 
  2074.96,1464 
  "/>
<polyline clip-path="url(#clip042)" style="stroke:#3da44d; stroke-linecap:butt; stroke-linejoin:round; stroke-width:12; stroke-opacity:1; fill:none" points="
  226.495,1023.84 241.899,956.935 257.303,888.195 272.707,818.389 288.111,748.298 303.514,678.703 318.918,610.368 334.322,544.026 349.726,480.37 365.13,420.037 
  380.534,363.606 395.938,311.585 411.342,264.411 426.746,222.444 442.15,185.964 457.553,155.175 472.957,130.203 488.361,111.1 503.765,97.8491 519.169,90.3664 
  534.573,88.5087 549.977,92.0787 565.381,100.832 580.785,114.483 596.188,132.713 611.592,155.175 626.996,181.502 642.4,211.314 657.804,244.222 673.208,279.832 
  688.612,317.756 704.016,357.611 719.42,399.024 734.823,441.637 750.227,485.111 765.631,529.123 781.035,573.375 796.439,617.589 811.843,661.513 827.247,704.917 
  842.651,747.596 858.055,789.371 873.459,830.084 888.862,869.601 904.266,907.811 919.67,944.622 935.074,979.963 950.478,1013.78 965.882,1046.04 981.286,1076.71 
  996.69,1105.8 1012.09,1133.3 1027.5,1159.23 1042.9,1183.62 1058.31,1206.5 1073.71,1227.92 1089.11,1247.91 1104.52,1266.53 1119.92,1283.84 1135.32,1299.89 
  1150.73,1314.75 1166.13,1328.46 1181.54,1341.11 1196.94,1352.74 1212.34,1363.41 1227.75,1373.2 1243.15,1382.14 1258.56,1390.31 1273.96,1397.76 1289.36,1404.54 
  1304.77,1410.69 1320.17,1416.27 1335.58,1421.33 1350.98,1425.89 1366.38,1430.01 1381.79,1433.73 1397.19,1437.07 1412.59,1440.07 1428,1442.77 1443.4,1445.18 
  1458.81,1447.34 1474.21,1449.27 1489.61,1450.99 1505.02,1452.52 1520.42,1453.88 1535.83,1455.09 1551.23,1456.17 1566.63,1457.12 1582.04,1457.96 1597.44,1458.71 
  1612.85,1459.37 1628.25,1459.95 1643.65,1460.46 1659.06,1460.91 1674.46,1461.31 1689.86,1461.65 1705.27,1461.96 1720.67,1462.22 1736.08,1462.46 1751.48,1462.66 
  1766.88,1462.84 1782.29,1462.99 1797.69,1463.13 1813.1,1463.25 1828.5,1463.35 1843.9,1463.44 1859.31,1463.51 1874.71,1463.58 1890.12,1463.64 1905.52,1463.69 
  1920.92,1463.73 1936.33,1463.77 1951.73,1463.8 1967.13,1463.83 1982.54,1463.85 1997.94,1463.87 2013.35,1463.89 2028.75,1463.91 2044.15,1463.92 2059.56,1463.93 
  2074.96,1463.94 
  "/>
<path clip-path="url(#clip040)" d="
M1757.13 337.765 L2277.76 337.765 L2277.76 95.8446 L1757.13 95.8446  Z
  " fill="#ffffff" fill-rule="evenodd" fill-opacity="1"/>
<polyline clip-path="url(#clip040)" style="stroke:#000000; stroke-linecap:butt; stroke-linejoin:round; stroke-width:4; stroke-opacity:1; fill:none" points="
  1757.13,337.765 2277.76,337.765 2277.76,95.8446 1757.13,95.8446 1757.13,337.765 
  "/>
<path clip-path="url(#clip040)" d="
M1782.13 180.517 L1932.13 180.517 L1932.13 132.133 L1782.13 132.133 L1782.13 180.517  Z
  " fill="#009af9" fill-rule="evenodd" fill-opacity="1"/>
<polyline clip-path="url(#clip040)" style="stroke:#009af9; stroke-linecap:butt; stroke-linejoin:round; stroke-width:4; stroke-opacity:1; fill:none" points="
  1782.13,180.517 1932.13,180.517 1932.13,132.133 1782.13,132.133 1782.13,180.517 
  "/>
<path clip-path="url(#clip040)" d="M1970.97 176.012 Q1969.17 180.642 1967.46 182.054 Q1965.74 183.466 1962.87 183.466 L1959.47 183.466 L1959.47 179.901 L1961.97 179.901 Q1963.73 179.901 1964.7 179.068 Q1965.67 178.234 1966.85 175.132 L1967.62 173.188 L1957.13 147.679 L1961.65 147.679 L1969.75 167.957 L1977.85 147.679 L1982.36 147.679 L1970.97 176.012 Z" fill="#000000" fill-rule="evenodd" fill-opacity="1" /><path clip-path="url(#clip040)" d="M1989.65 169.669 L1997.29 169.669 L1997.29 143.304 L1988.98 144.971 L1988.98 140.711 L1997.25 139.045 L2001.92 139.045 L2001.92 169.669 L2009.56 169.669 L2009.56 173.605 L1989.65 173.605 L1989.65 169.669 Z" fill="#000000" fill-rule="evenodd" fill-opacity="1" /><polyline clip-path="url(#clip040)" style="stroke:#e26f46; stroke-linecap:butt; stroke-linejoin:round; stroke-width:4; stroke-opacity:1; fill:none" points="
  1782.13,216.805 1932.13,216.805 
  "/>
<path clip-path="url(#clip040)" d="M1976.04 220.821 Q1976.04 216.191 1974.12 213.645 Q1972.22 211.099 1968.77 211.099 Q1965.35 211.099 1963.43 213.645 Q1961.53 216.191 1961.53 220.821 Q1961.53 225.427 1963.43 227.974 Q1965.35 230.52 1968.77 230.52 Q1972.22 230.52 1974.12 227.974 Q1976.04 225.427 1976.04 220.821 M1980.3 230.867 Q1980.3 237.487 1977.36 240.705 Q1974.42 243.946 1968.36 243.946 Q1966.11 243.946 1964.12 243.598 Q1962.13 243.274 1960.26 242.58 L1960.26 238.436 Q1962.13 239.455 1963.96 239.941 Q1965.79 240.427 1967.69 240.427 Q1971.88 240.427 1973.96 238.228 Q1976.04 236.052 1976.04 231.631 L1976.04 229.524 Q1974.72 231.816 1972.66 232.95 Q1970.6 234.085 1967.73 234.085 Q1962.96 234.085 1960.05 230.45 Q1957.13 226.816 1957.13 220.821 Q1957.13 214.802 1960.05 211.168 Q1962.96 207.534 1967.73 207.534 Q1970.6 207.534 1972.66 208.668 Q1974.72 209.802 1976.04 212.094 L1976.04 208.159 L1980.3 208.159 L1980.3 230.867 Z" fill="#000000" fill-rule="evenodd" fill-opacity="1" /><path clip-path="url(#clip040)" d="M2000.86 221.052 Q1995.7 221.052 1993.71 222.233 Q1991.71 223.413 1991.71 226.261 Q1991.71 228.529 1993.2 229.872 Q1994.7 231.191 1997.27 231.191 Q2000.81 231.191 2002.94 228.691 Q2005.09 226.168 2005.09 222.001 L2005.09 221.052 L2000.86 221.052 M2009.35 219.293 L2009.35 234.085 L2005.09 234.085 L2005.09 230.149 Q2003.64 232.511 2001.46 233.645 Q1999.28 234.756 1996.14 234.756 Q1992.15 234.756 1989.79 232.534 Q1987.46 230.288 1987.46 226.538 Q1987.46 222.163 1990.37 219.941 Q1993.31 217.719 1999.12 217.719 L2005.09 217.719 L2005.09 217.302 Q2005.09 214.363 2003.15 212.765 Q2001.23 211.145 1997.73 211.145 Q1995.51 211.145 1993.4 211.677 Q1991.3 212.21 1989.35 213.275 L1989.35 209.339 Q1991.69 208.437 1993.89 207.997 Q1996.09 207.534 1998.17 207.534 Q2003.8 207.534 2006.58 210.45 Q2009.35 213.367 2009.35 219.293 Z" fill="#000000" fill-rule="evenodd" fill-opacity="1" /><path clip-path="url(#clip040)" d="M2017.69 223.853 L2017.69 208.159 L2021.95 208.159 L2021.95 223.691 Q2021.95 227.372 2023.38 229.224 Q2024.82 231.052 2027.69 231.052 Q2031.14 231.052 2033.13 228.853 Q2035.14 226.654 2035.14 222.858 L2035.14 208.159 L2039.4 208.159 L2039.4 234.085 L2035.14 234.085 L2035.14 230.103 Q2033.59 232.464 2031.53 233.622 Q2029.49 234.756 2026.78 234.756 Q2022.32 234.756 2020 231.978 Q2017.69 229.2 2017.69 223.853 M2028.4 207.534 L2028.4 207.534 Z" fill="#000000" fill-rule="evenodd" fill-opacity="1" /><path clip-path="url(#clip040)" d="M2064.7 208.923 L2064.7 212.95 Q2062.89 212.025 2060.95 211.562 Q2059.01 211.099 2056.92 211.099 Q2053.75 211.099 2052.15 212.071 Q2050.58 213.043 2050.58 214.987 Q2050.58 216.469 2051.71 217.325 Q2052.85 218.159 2056.27 218.923 L2057.73 219.247 Q2062.27 220.219 2064.17 222.001 Q2066.09 223.761 2066.09 226.932 Q2066.09 230.543 2063.22 232.649 Q2060.37 234.756 2055.37 234.756 Q2053.29 234.756 2051.02 234.339 Q2048.77 233.946 2046.27 233.136 L2046.27 228.737 Q2048.64 229.964 2050.93 230.589 Q2053.22 231.191 2055.46 231.191 Q2058.47 231.191 2060.09 230.173 Q2061.71 229.131 2061.71 227.256 Q2061.71 225.52 2060.53 224.594 Q2059.38 223.668 2055.42 222.812 L2053.94 222.464 Q2049.98 221.631 2048.22 219.918 Q2046.46 218.182 2046.46 215.173 Q2046.46 211.515 2049.05 209.525 Q2051.64 207.534 2056.41 207.534 Q2058.77 207.534 2060.86 207.881 Q2062.94 208.228 2064.7 208.923 Z" fill="#000000" fill-rule="evenodd" fill-opacity="1" /><path clip-path="url(#clip040)" d="M2089.4 208.923 L2089.4 212.95 Q2087.59 212.025 2085.65 211.562 Q2083.7 211.099 2081.62 211.099 Q2078.45 211.099 2076.85 212.071 Q2075.28 213.043 2075.28 214.987 Q2075.28 216.469 2076.41 217.325 Q2077.55 218.159 2080.97 218.923 L2082.43 219.247 Q2086.97 220.219 2088.87 222.001 Q2090.79 223.761 2090.79 226.932 Q2090.79 230.543 2087.92 232.649 Q2085.07 234.756 2080.07 234.756 Q2077.99 234.756 2075.72 234.339 Q2073.47 233.946 2070.97 233.136 L2070.97 228.737 Q2073.33 229.964 2075.63 230.589 Q2077.92 231.191 2080.16 231.191 Q2083.17 231.191 2084.79 230.173 Q2086.41 229.131 2086.41 227.256 Q2086.41 225.52 2085.23 224.594 Q2084.08 223.668 2080.12 222.812 L2078.64 222.464 Q2074.68 221.631 2072.92 219.918 Q2071.16 218.182 2071.16 215.173 Q2071.16 211.515 2073.75 209.525 Q2076.34 207.534 2081.11 207.534 Q2083.47 207.534 2085.56 207.881 Q2087.64 208.228 2089.4 208.923 Z" fill="#000000" fill-rule="evenodd" fill-opacity="1" /><path clip-path="url(#clip040)" d="M2097.57 208.159 L2101.83 208.159 L2101.83 234.085 L2097.57 234.085 L2097.57 208.159 M2097.57 198.066 L2101.83 198.066 L2101.83 203.46 L2097.57 203.46 L2097.57 198.066 Z" fill="#000000" fill-rule="evenodd" fill-opacity="1" /><path clip-path="url(#clip040)" d="M2122.52 221.052 Q2117.36 221.052 2115.37 222.233 Q2113.38 223.413 2113.38 226.261 Q2113.38 228.529 2114.86 229.872 Q2116.37 231.191 2118.94 231.191 Q2122.48 231.191 2124.61 228.691 Q2126.76 226.168 2126.76 222.001 L2126.76 221.052 L2122.52 221.052 M2131.02 219.293 L2131.02 234.085 L2126.76 234.085 L2126.76 230.149 Q2125.3 232.511 2123.13 233.645 Q2120.95 234.756 2117.8 234.756 Q2113.82 234.756 2111.46 232.534 Q2109.12 230.288 2109.12 226.538 Q2109.12 222.163 2112.04 219.941 Q2114.98 217.719 2120.79 217.719 L2126.76 217.719 L2126.76 217.302 Q2126.76 214.363 2124.82 212.765 Q2122.89 211.145 2119.4 211.145 Q2117.18 211.145 2115.07 211.677 Q2112.96 212.21 2111.02 213.275 L2111.02 209.339 Q2113.36 208.437 2115.56 207.997 Q2117.76 207.534 2119.84 207.534 Q2125.46 207.534 2128.24 210.45 Q2131.02 213.367 2131.02 219.293 Z" fill="#000000" fill-rule="evenodd" fill-opacity="1" /><path clip-path="url(#clip040)" d="M2161.34 218.437 L2161.34 234.085 L2157.08 234.085 L2157.08 218.575 Q2157.08 214.895 2155.65 213.066 Q2154.21 211.238 2151.34 211.238 Q2147.89 211.238 2145.9 213.437 Q2143.91 215.636 2143.91 219.432 L2143.91 234.085 L2139.63 234.085 L2139.63 208.159 L2143.91 208.159 L2143.91 212.187 Q2145.44 209.849 2147.5 208.691 Q2149.58 207.534 2152.29 207.534 Q2156.76 207.534 2159.05 210.312 Q2161.34 213.066 2161.34 218.437 Z" fill="#000000" fill-rule="evenodd" fill-opacity="1" /><path clip-path="url(#clip040)" d="M2198.03 198.066 L2198.03 201.608 L2193.96 201.608 Q2191.67 201.608 2190.76 202.534 Q2189.88 203.46 2189.88 205.867 L2189.88 208.159 L2196.9 208.159 L2196.9 211.469 L2189.88 211.469 L2189.88 234.085 L2185.6 234.085 L2185.6 211.469 L2181.53 211.469 L2181.53 208.159 L2185.6 208.159 L2185.6 206.353 Q2185.6 202.025 2187.62 200.057 Q2189.63 198.066 2194.01 198.066 L2198.03 198.066 Z" fill="#000000" fill-rule="evenodd" fill-opacity="1" /><path clip-path="url(#clip040)" d="M2201.6 208.159 L2205.86 208.159 L2205.86 234.085 L2201.6 234.085 L2201.6 208.159 M2201.6 198.066 L2205.86 198.066 L2205.86 203.46 L2201.6 203.46 L2201.6 198.066 Z" fill="#000000" fill-rule="evenodd" fill-opacity="1" /><path clip-path="url(#clip040)" d="M2218.98 200.798 L2218.98 208.159 L2227.76 208.159 L2227.76 211.469 L2218.98 211.469 L2218.98 225.543 Q2218.98 228.714 2219.84 229.617 Q2220.72 230.52 2223.38 230.52 L2227.76 230.52 L2227.76 234.085 L2223.38 234.085 Q2218.45 234.085 2216.57 232.256 Q2214.7 230.404 2214.7 225.543 L2214.7 211.469 L2211.57 211.469 L2211.57 208.159 L2214.7 208.159 L2214.7 200.798 L2218.98 200.798 Z" fill="#000000" fill-rule="evenodd" fill-opacity="1" /><polyline clip-path="url(#clip040)" style="stroke:#3da44d; stroke-linecap:butt; stroke-linejoin:round; stroke-width:4; stroke-opacity:1; fill:none" points="
  1782.13,277.285 1932.13,277.285 
  "/>
<path clip-path="url(#clip040)" d="M1961.41 290.676 L1961.41 304.426 L1957.13 304.426 L1957.13 268.639 L1961.41 268.639 L1961.41 272.574 Q1962.76 270.259 1964.79 269.148 Q1966.85 268.014 1969.7 268.014 Q1974.42 268.014 1977.36 271.764 Q1980.33 275.514 1980.33 281.625 Q1980.33 287.736 1977.36 291.486 Q1974.42 295.236 1969.7 295.236 Q1966.85 295.236 1964.79 294.125 Q1962.76 292.991 1961.41 290.676 M1975.9 281.625 Q1975.9 276.926 1973.96 274.264 Q1972.04 271.579 1968.66 271.579 Q1965.28 271.579 1963.34 274.264 Q1961.41 276.926 1961.41 281.625 Q1961.41 286.324 1963.34 289.009 Q1965.28 291.671 1968.66 291.671 Q1972.04 291.671 1973.96 289.009 Q1975.9 286.324 1975.9 281.625 Z" fill="#000000" fill-rule="evenodd" fill-opacity="1" /><path clip-path="url(#clip040)" d="M1997.43 271.625 Q1994.01 271.625 1992.02 274.31 Q1990.02 276.972 1990.02 281.625 Q1990.02 286.278 1991.99 288.963 Q1993.98 291.625 1997.43 291.625 Q2000.83 291.625 2002.83 288.94 Q2004.82 286.254 2004.82 281.625 Q2004.82 277.018 2002.83 274.333 Q2000.83 271.625 1997.43 271.625 M1997.43 268.014 Q2002.99 268.014 2006.16 271.625 Q2009.33 275.236 2009.33 281.625 Q2009.33 287.991 2006.16 291.625 Q2002.99 295.236 1997.43 295.236 Q1991.85 295.236 1988.68 291.625 Q1985.53 287.991 1985.53 281.625 Q1985.53 275.236 1988.68 271.625 Q1991.85 268.014 1997.43 268.014 Z" fill="#000000" fill-rule="evenodd" fill-opacity="1" /><path clip-path="url(#clip040)" d="M2016.39 268.639 L2020.65 268.639 L2020.65 294.565 L2016.39 294.565 L2016.39 268.639 M2016.39 258.546 L2020.65 258.546 L2020.65 263.94 L2016.39 263.94 L2016.39 258.546 Z" fill="#000000" fill-rule="evenodd" fill-opacity="1" /><path clip-path="url(#clip040)" d="M2046.09 269.403 L2046.09 273.43 Q2044.28 272.505 2042.34 272.042 Q2040.39 271.579 2038.31 271.579 Q2035.14 271.579 2033.54 272.551 Q2031.97 273.523 2031.97 275.467 Q2031.97 276.949 2033.1 277.805 Q2034.24 278.639 2037.66 279.403 L2039.12 279.727 Q2043.66 280.699 2045.56 282.481 Q2047.48 284.241 2047.48 287.412 Q2047.48 291.023 2044.61 293.129 Q2041.76 295.236 2036.76 295.236 Q2034.68 295.236 2032.41 294.819 Q2030.16 294.426 2027.66 293.616 L2027.66 289.217 Q2030.02 290.444 2032.32 291.069 Q2034.61 291.671 2036.85 291.671 Q2039.86 291.671 2041.48 290.653 Q2043.1 289.611 2043.1 287.736 Q2043.1 286 2041.92 285.074 Q2040.77 284.148 2036.81 283.292 L2035.33 282.944 Q2031.37 282.111 2029.61 280.398 Q2027.85 278.662 2027.85 275.653 Q2027.85 271.995 2030.44 270.005 Q2033.03 268.014 2037.8 268.014 Q2040.16 268.014 2042.25 268.361 Q2044.33 268.708 2046.09 269.403 Z" fill="#000000" fill-rule="evenodd" fill-opacity="1" /><path clip-path="url(#clip040)" d="M2070.79 269.403 L2070.79 273.43 Q2068.98 272.505 2067.04 272.042 Q2065.09 271.579 2063.01 271.579 Q2059.84 271.579 2058.24 272.551 Q2056.67 273.523 2056.67 275.467 Q2056.67 276.949 2057.8 277.805 Q2058.94 278.639 2062.36 279.403 L2063.82 279.727 Q2068.36 280.699 2070.26 282.481 Q2072.18 284.241 2072.18 287.412 Q2072.18 291.023 2069.31 293.129 Q2066.46 295.236 2061.46 295.236 Q2059.38 295.236 2057.11 294.819 Q2054.86 294.426 2052.36 293.616 L2052.36 289.217 Q2054.72 290.444 2057.02 291.069 Q2059.31 291.671 2061.55 291.671 Q2064.56 291.671 2066.18 290.653 Q2067.8 289.611 2067.8 287.736 Q2067.8 286 2066.62 285.074 Q2065.46 284.148 2061.51 283.292 L2060.02 282.944 Q2056.07 282.111 2054.31 280.398 Q2052.55 278.662 2052.55 275.653 Q2052.55 271.995 2055.14 270.005 Q2057.73 268.014 2062.5 268.014 Q2064.86 268.014 2066.95 268.361 Q2069.03 268.708 2070.79 269.403 Z" fill="#000000" fill-rule="evenodd" fill-opacity="1" /><path clip-path="url(#clip040)" d="M2089.01 271.625 Q2085.58 271.625 2083.59 274.31 Q2081.6 276.972 2081.6 281.625 Q2081.6 286.278 2083.57 288.963 Q2085.56 291.625 2089.01 291.625 Q2092.41 291.625 2094.4 288.94 Q2096.39 286.254 2096.39 281.625 Q2096.39 277.018 2094.4 274.333 Q2092.41 271.625 2089.01 271.625 M2089.01 268.014 Q2094.56 268.014 2097.73 271.625 Q2100.9 275.236 2100.9 281.625 Q2100.9 287.991 2097.73 291.625 Q2094.56 295.236 2089.01 295.236 Q2083.43 295.236 2080.26 291.625 Q2077.11 287.991 2077.11 281.625 Q2077.11 275.236 2080.26 271.625 Q2083.43 268.014 2089.01 268.014 Z" fill="#000000" fill-rule="evenodd" fill-opacity="1" /><path clip-path="url(#clip040)" d="M2129.51 278.917 L2129.51 294.565 L2125.26 294.565 L2125.26 279.055 Q2125.26 275.375 2123.82 273.546 Q2122.39 271.718 2119.51 271.718 Q2116.07 271.718 2114.08 273.917 Q2112.08 276.116 2112.08 279.912 L2112.08 294.565 L2107.8 294.565 L2107.8 268.639 L2112.08 268.639 L2112.08 272.667 Q2113.61 270.329 2115.67 269.171 Q2117.76 268.014 2120.46 268.014 Q2124.93 268.014 2127.22 270.792 Q2129.51 273.546 2129.51 278.917 Z" fill="#000000" fill-rule="evenodd" fill-opacity="1" /><path clip-path="url(#clip040)" d="M2166.2 258.546 L2166.2 262.088 L2162.13 262.088 Q2159.84 262.088 2158.94 263.014 Q2158.06 263.94 2158.06 266.347 L2158.06 268.639 L2165.07 268.639 L2165.07 271.949 L2158.06 271.949 L2158.06 294.565 L2153.77 294.565 L2153.77 271.949 L2149.7 271.949 L2149.7 268.639 L2153.77 268.639 L2153.77 266.833 Q2153.77 262.505 2155.79 260.537 Q2157.8 258.546 2162.18 258.546 L2166.2 258.546 Z" fill="#000000" fill-rule="evenodd" fill-opacity="1" /><path clip-path="url(#clip040)" d="M2169.77 268.639 L2174.03 268.639 L2174.03 294.565 L2169.77 294.565 L2169.77 268.639 M2169.77 258.546 L2174.03 258.546 L2174.03 263.94 L2169.77 263.94 L2169.77 258.546 Z" fill="#000000" fill-rule="evenodd" fill-opacity="1" /><path clip-path="url(#clip040)" d="M2187.15 261.278 L2187.15 268.639 L2195.93 268.639 L2195.93 271.949 L2187.15 271.949 L2187.15 286.023 Q2187.15 289.194 2188.01 290.097 Q2188.89 291 2191.55 291 L2195.93 291 L2195.93 294.565 L2191.55 294.565 Q2186.62 294.565 2184.75 292.736 Q2182.87 290.884 2182.87 286.023 L2182.87 271.949 L2179.75 271.949 L2179.75 268.639 L2182.87 268.639 L2182.87 261.278 L2187.15 261.278 Z" fill="#000000" fill-rule="evenodd" fill-opacity="1" /></svg>
