<?xml version="1.0" encoding="utf-8"?>
<svg xmlns="http://www.w3.org/2000/svg" xmlns:xlink="http://www.w3.org/1999/xlink" width="600" height="400" viewBox="0 0 2400 1600">
<defs>
  <clipPath id="clip070">
    <rect x="0" y="0" width="2400" height="1600"/>
  </clipPath>
</defs>
<path clip-path="url(#clip070)" d="
M0 1600 L2400 1600 L2400 0 L0 0  Z
  " fill="#ffffff" fill-rule="evenodd" fill-opacity="1"/>
<defs>
  <clipPath id="clip071">
    <rect x="480" y="0" width="1681" height="1600"/>
  </clipPath>
</defs>
<path clip-path="url(#clip070)" d="
M102.74 1505.26 L2352.76 1505.26 L2352.76 47.2441 L102.74 47.2441  Z
  " fill="#ffffff" fill-rule="evenodd" fill-opacity="1"/>
<defs>
  <clipPath id="clip072">
    <rect x="102" y="47" width="2251" height="1459"/>
  </clipPath>
</defs>
<polyline clip-path="url(#clip072)" style="stroke:#000000; stroke-linecap:butt; stroke-linejoin:round; stroke-width:2; stroke-opacity:0.1; fill:none" points="
  226.495,1505.26 226.495,47.2441 
  "/>
<polyline clip-path="url(#clip072)" style="stroke:#000000; stroke-linecap:butt; stroke-linejoin:round; stroke-width:2; stroke-opacity:0.1; fill:none" points="
  671.496,1505.26 671.496,47.2441 
  "/>
<polyline clip-path="url(#clip072)" style="stroke:#000000; stroke-linecap:butt; stroke-linejoin:round; stroke-width:2; stroke-opacity:0.1; fill:none" points="
  1116.5,1505.26 1116.5,47.2441 
  "/>
<polyline clip-path="url(#clip072)" style="stroke:#000000; stroke-linecap:butt; stroke-linejoin:round; stroke-width:2; stroke-opacity:0.1; fill:none" points="
  1561.5,1505.26 1561.5,47.2441 
  "/>
<polyline clip-path="url(#clip072)" style="stroke:#000000; stroke-linecap:butt; stroke-linejoin:round; stroke-width:2; stroke-opacity:0.1; fill:none" points="
  2006.5,1505.26 2006.5,47.2441 
  "/>
<polyline clip-path="url(#clip070)" style="stroke:#000000; stroke-linecap:butt; stroke-linejoin:round; stroke-width:4; stroke-opacity:1; fill:none" points="
  102.74,1505.26 2352.76,1505.26 
  "/>
<polyline clip-path="url(#clip070)" style="stroke:#000000; stroke-linecap:butt; stroke-linejoin:round; stroke-width:4; stroke-opacity:1; fill:none" points="
  226.495,1505.26 226.495,1487.76 
  "/>
<polyline clip-path="url(#clip070)" style="stroke:#000000; stroke-linecap:butt; stroke-linejoin:round; stroke-width:4; stroke-opacity:1; fill:none" points="
  671.496,1505.26 671.496,1487.76 
  "/>
<polyline clip-path="url(#clip070)" style="stroke:#000000; stroke-linecap:butt; stroke-linejoin:round; stroke-width:4; stroke-opacity:1; fill:none" points="
  1116.5,1505.26 1116.5,1487.76 
  "/>
<polyline clip-path="url(#clip070)" style="stroke:#000000; stroke-linecap:butt; stroke-linejoin:round; stroke-width:4; stroke-opacity:1; fill:none" points="
  1561.5,1505.26 1561.5,1487.76 
  "/>
<polyline clip-path="url(#clip070)" style="stroke:#000000; stroke-linecap:butt; stroke-linejoin:round; stroke-width:4; stroke-opacity:1; fill:none" points="
  2006.5,1505.26 2006.5,1487.76 
  "/>
<path clip-path="url(#clip070)" d="M226.495 1534.45 Q222.884 1534.45 221.055 1538.02 Q219.25 1541.56 219.25 1548.69 Q219.25 1555.79 221.055 1559.36 Q222.884 1562.9 226.495 1562.9 Q230.129 1562.9 231.935 1559.36 Q233.764 1555.79 233.764 1548.69 Q233.764 1541.56 231.935 1538.02 Q230.129 1534.45 226.495 1534.45 M226.495 1530.75 Q232.305 1530.75 235.361 1535.35 Q238.439 1539.94 238.439 1548.69 Q238.439 1557.41 235.361 1562.02 Q232.305 1566.6 226.495 1566.6 Q220.685 1566.6 217.606 1562.02 Q214.551 1557.41 214.551 1548.69 Q214.551 1539.94 217.606 1535.35 Q220.685 1530.75 226.495 1530.75 Z" fill="#000000" fill-rule="evenodd" fill-opacity="1" /><path clip-path="url(#clip070)" d="M666.149 1562 L682.469 1562 L682.469 1565.93 L660.524 1565.93 L660.524 1562 Q663.186 1559.24 667.77 1554.61 Q672.376 1549.96 673.557 1548.62 Q675.802 1546.09 676.682 1544.36 Q677.584 1542.6 677.584 1540.91 Q677.584 1538.15 675.64 1536.42 Q673.719 1534.68 670.617 1534.68 Q668.418 1534.68 665.964 1535.45 Q663.533 1536.21 660.756 1537.76 L660.756 1533.04 Q663.58 1531.9 666.033 1531.33 Q668.487 1530.75 670.524 1530.75 Q675.894 1530.75 679.089 1533.43 Q682.283 1536.12 682.283 1540.61 Q682.283 1542.74 681.473 1544.66 Q680.686 1546.56 678.58 1549.15 Q678.001 1549.82 674.899 1553.04 Q671.797 1556.23 666.149 1562 Z" fill="#000000" fill-rule="evenodd" fill-opacity="1" /><path clip-path="url(#clip070)" d="M1119.51 1535.45 L1107.7 1553.89 L1119.51 1553.89 L1119.51 1535.45 M1118.28 1531.37 L1124.16 1531.37 L1124.16 1553.89 L1129.09 1553.89 L1129.09 1557.78 L1124.16 1557.78 L1124.16 1565.93 L1119.51 1565.93 L1119.51 1557.78 L1103.91 1557.78 L1103.91 1553.27 L1118.28 1531.37 Z" fill="#000000" fill-rule="evenodd" fill-opacity="1" /><path clip-path="url(#clip070)" d="M1561.9 1546.79 Q1558.76 1546.79 1556.9 1548.94 Q1555.08 1551.09 1555.08 1554.84 Q1555.08 1558.57 1556.9 1560.75 Q1558.76 1562.9 1561.9 1562.9 Q1565.05 1562.9 1566.88 1560.75 Q1568.73 1558.57 1568.73 1554.84 Q1568.73 1551.09 1566.88 1548.94 Q1565.05 1546.79 1561.9 1546.79 M1571.19 1532.14 L1571.19 1536.39 Q1569.43 1535.56 1567.62 1535.12 Q1565.84 1534.68 1564.08 1534.68 Q1559.45 1534.68 1557 1537.81 Q1554.57 1540.93 1554.22 1547.25 Q1555.58 1545.24 1557.64 1544.17 Q1559.71 1543.08 1562.18 1543.08 Q1567.39 1543.08 1570.4 1546.26 Q1573.43 1549.4 1573.43 1554.84 Q1573.43 1560.17 1570.28 1563.39 Q1567.14 1566.6 1561.9 1566.6 Q1555.91 1566.6 1552.74 1562.02 Q1549.57 1557.41 1549.57 1548.69 Q1549.57 1540.49 1553.46 1535.63 Q1557.34 1530.75 1563.89 1530.75 Q1565.65 1530.75 1567.44 1531.09 Q1569.24 1531.44 1571.19 1532.14 Z" fill="#000000" fill-rule="evenodd" fill-opacity="1" /><path clip-path="url(#clip070)" d="M2006.5 1549.52 Q2003.17 1549.52 2001.25 1551.3 Q1999.35 1553.08 1999.35 1556.21 Q1999.35 1559.33 2001.25 1561.12 Q2003.17 1562.9 2006.5 1562.9 Q2009.83 1562.9 2011.75 1561.12 Q2013.68 1559.31 2013.68 1556.21 Q2013.68 1553.08 2011.75 1551.3 Q2009.86 1549.52 2006.5 1549.52 M2001.82 1547.53 Q1998.82 1546.79 1997.13 1544.73 Q1995.46 1542.67 1995.46 1539.71 Q1995.46 1535.56 1998.4 1533.15 Q2001.36 1530.75 2006.5 1530.75 Q2011.66 1530.75 2014.6 1533.15 Q2017.54 1535.56 2017.54 1539.71 Q2017.54 1542.67 2015.85 1544.73 Q2014.19 1546.79 2011.2 1547.53 Q2014.58 1548.32 2016.45 1550.61 Q2018.35 1552.9 2018.35 1556.21 Q2018.35 1561.23 2015.27 1563.92 Q2012.22 1566.6 2006.5 1566.6 Q2000.78 1566.6 1997.7 1563.92 Q1994.65 1561.23 1994.65 1556.21 Q1994.65 1552.9 1996.55 1550.61 Q1998.44 1548.32 2001.82 1547.53 M2000.11 1540.14 Q2000.11 1542.83 2001.78 1544.33 Q2003.47 1545.84 2006.5 1545.84 Q2009.51 1545.84 2011.2 1544.33 Q2012.91 1542.83 2012.91 1540.14 Q2012.91 1537.46 2011.2 1535.96 Q2009.51 1534.45 2006.5 1534.45 Q2003.47 1534.45 2001.78 1535.96 Q2000.11 1537.46 2000.11 1540.14 Z" fill="#000000" fill-rule="evenodd" fill-opacity="1" /><path clip-path="url(#clip070)" d="M1229.71 1621.32 Q1231.9 1617.37 1234.96 1615.49 Q1238.01 1613.62 1242.15 1613.62 Q1247.72 1613.62 1250.74 1617.53 Q1253.77 1621.41 1253.77 1628.61 L1253.77 1650.12 L1247.88 1650.12 L1247.88 1628.8 Q1247.88 1623.67 1246.07 1621.19 Q1244.25 1618.71 1240.53 1618.71 Q1235.98 1618.71 1233.33 1621.73 Q1230.69 1624.76 1230.69 1629.98 L1230.69 1650.12 L1224.8 1650.12 L1224.8 1628.8 Q1224.8 1623.64 1222.99 1621.19 Q1221.18 1618.71 1217.39 1618.71 Q1212.9 1618.71 1210.26 1621.76 Q1207.62 1624.79 1207.62 1629.98 L1207.62 1650.12 L1201.73 1650.12 L1201.73 1614.48 L1207.62 1614.48 L1207.62 1620.01 Q1209.62 1616.74 1212.42 1615.18 Q1215.22 1613.62 1219.07 1613.62 Q1222.96 1613.62 1225.66 1615.59 Q1228.4 1617.56 1229.71 1621.32 Z" fill="#000000" fill-rule="evenodd" fill-opacity="1" /><polyline clip-path="url(#clip072)" style="stroke:#000000; stroke-linecap:butt; stroke-linejoin:round; stroke-width:2; stroke-opacity:0.1; fill:none" points="
  102.74,1464 2352.76,1464 
  "/>
<polyline clip-path="url(#clip072)" style="stroke:#000000; stroke-linecap:butt; stroke-linejoin:round; stroke-width:2; stroke-opacity:0.1; fill:none" points="
  102.74,1090.85 2352.76,1090.85 
  "/>
<polyline clip-path="url(#clip072)" style="stroke:#000000; stroke-linecap:butt; stroke-linejoin:round; stroke-width:2; stroke-opacity:0.1; fill:none" points="
  102.74,717.703 2352.76,717.703 
  "/>
<polyline clip-path="url(#clip072)" style="stroke:#000000; stroke-linecap:butt; stroke-linejoin:round; stroke-width:2; stroke-opacity:0.1; fill:none" points="
  102.74,344.558 2352.76,344.558 
  "/>
<polyline clip-path="url(#clip070)" style="stroke:#000000; stroke-linecap:butt; stroke-linejoin:round; stroke-width:4; stroke-opacity:1; fill:none" points="
  102.74,1505.26 102.74,47.2441 
  "/>
<polyline clip-path="url(#clip070)" style="stroke:#000000; stroke-linecap:butt; stroke-linejoin:round; stroke-width:4; stroke-opacity:1; fill:none" points="
  102.74,1464 129.74,1464 
  "/>
<polyline clip-path="url(#clip070)" style="stroke:#000000; stroke-linecap:butt; stroke-linejoin:round; stroke-width:4; stroke-opacity:1; fill:none" points="
  102.74,1090.85 129.74,1090.85 
  "/>
<polyline clip-path="url(#clip070)" style="stroke:#000000; stroke-linecap:butt; stroke-linejoin:round; stroke-width:4; stroke-opacity:1; fill:none" points="
  102.74,717.703 129.74,717.703 
  "/>
<polyline clip-path="url(#clip070)" style="stroke:#000000; stroke-linecap:butt; stroke-linejoin:round; stroke-width:4; stroke-opacity:1; fill:none" points="
  102.74,344.558 129.74,344.558 
  "/>
<path clip-path="url(#clip070)" d="M9.56454 1449.79 Q5.95345 1449.79 4.12475 1453.36 Q2.31921 1456.9 2.31921 1464.03 Q2.31921 1471.14 4.12475 1474.7 Q5.95345 1478.24 9.56454 1478.24 Q13.1988 1478.24 15.0043 1474.7 Q16.833 1471.14 16.833 1464.03 Q16.833 1456.9 15.0043 1453.36 Q13.1988 1449.79 9.56454 1449.79 M9.56454 1446.09 Q15.3747 1446.09 18.4302 1450.7 Q21.5089 1455.28 21.5089 1464.03 Q21.5089 1472.76 18.4302 1477.36 Q15.3747 1481.95 9.56454 1481.95 Q3.75438 1481.95 0.675697 1477.36 Q-2.37984 1472.76 -2.37984 1464.03 Q-2.37984 1455.28 0.675697 1450.7 Q3.75438 1446.09 9.56454 1446.09 Z" fill="#000000" fill-rule="evenodd" fill-opacity="1" /><path clip-path="url(#clip070)" d="M29.7265 1475.4 L34.6107 1475.4 L34.6107 1481.28 L29.7265 1481.28 L29.7265 1475.4 Z" fill="#000000" fill-rule="evenodd" fill-opacity="1" /><path clip-path="url(#clip070)" d="M54.7958 1449.79 Q51.1847 1449.79 49.356 1453.36 Q47.5504 1456.9 47.5504 1464.03 Q47.5504 1471.14 49.356 1474.7 Q51.1847 1478.24 54.7958 1478.24 Q58.43 1478.24 60.2356 1474.7 Q62.0643 1471.14 62.0643 1464.03 Q62.0643 1456.9 60.2356 1453.36 Q58.43 1449.79 54.7958 1449.79 M54.7958 1446.09 Q60.6059 1446.09 63.6615 1450.7 Q66.7402 1455.28 66.7402 1464.03 Q66.7402 1472.76 63.6615 1477.36 Q60.6059 1481.95 54.7958 1481.95 Q48.9856 1481.95 45.9069 1477.36 Q42.8514 1472.76 42.8514 1464.03 Q42.8514 1455.28 45.9069 1450.7 Q48.9856 1446.09 54.7958 1446.09 Z" fill="#000000" fill-rule="evenodd" fill-opacity="1" /><path clip-path="url(#clip070)" d="M10.7914 1076.65 Q7.18029 1076.65 5.3516 1080.21 Q3.54605 1083.75 3.54605 1090.88 Q3.54605 1097.99 5.3516 1101.56 Q7.18029 1105.1 10.7914 1105.1 Q14.4256 1105.1 16.2312 1101.56 Q18.0599 1097.99 18.0599 1090.88 Q18.0599 1083.75 16.2312 1080.21 Q14.4256 1076.65 10.7914 1076.65 M10.7914 1072.94 Q16.6015 1072.94 19.6571 1077.55 Q22.7358 1082.13 22.7358 1090.88 Q22.7358 1099.61 19.6571 1104.22 Q16.6015 1108.8 10.7914 1108.8 Q4.98123 1108.8 1.90254 1104.22 Q-1.153 1099.61 -1.153 1090.88 Q-1.153 1082.13 1.90254 1077.55 Q4.98123 1072.94 10.7914 1072.94 Z" fill="#000000" fill-rule="evenodd" fill-opacity="1" /><path clip-path="url(#clip070)" d="M30.9533 1102.25 L35.8375 1102.25 L35.8375 1108.13 L30.9533 1108.13 L30.9533 1102.25 Z" fill="#000000" fill-rule="evenodd" fill-opacity="1" /><path clip-path="url(#clip070)" d="M46.8329 1104.19 L54.4717 1104.19 L54.4717 1077.83 L46.1616 1079.5 L46.1616 1075.24 L54.4254 1073.57 L59.1013 1073.57 L59.1013 1104.19 L66.7402 1104.19 L66.7402 1108.13 L46.8329 1108.13 L46.8329 1104.19 Z" fill="#000000" fill-rule="evenodd" fill-opacity="1" /><path clip-path="url(#clip070)" d="M11.1618 703.502 Q7.55066 703.502 5.72197 707.067 Q3.91642 710.609 3.91642 717.738 Q3.91642 724.845 5.72197 728.409 Q7.55066 731.951 11.1618 731.951 Q14.796 731.951 16.6015 728.409 Q18.4302 724.845 18.4302 717.738 Q18.4302 710.609 16.6015 707.067 Q14.796 703.502 11.1618 703.502 M11.1618 699.798 Q16.9719 699.798 20.0274 704.405 Q23.1061 708.988 23.1061 717.738 Q23.1061 726.465 20.0274 731.071 Q16.9719 735.655 11.1618 735.655 Q5.3516 735.655 2.27291 731.071 Q-0.782629 726.465 -0.782629 717.738 Q-0.782629 708.988 2.27291 704.405 Q5.3516 699.798 11.1618 699.798 Z" fill="#000000" fill-rule="evenodd" fill-opacity="1" /><path clip-path="url(#clip070)" d="M31.3237 729.104 L36.2079 729.104 L36.2079 734.983 L31.3237 734.983 L31.3237 729.104 Z" fill="#000000" fill-rule="evenodd" fill-opacity="1" /><path clip-path="url(#clip070)" d="M50.4208 731.048 L66.7402 731.048 L66.7402 734.983 L44.7958 734.983 L44.7958 731.048 Q47.4579 728.294 52.0412 723.664 Q56.6476 719.011 57.8282 717.669 Q60.0735 715.146 60.9532 713.409 Q61.8559 711.65 61.8559 709.96 Q61.8559 707.206 59.9115 705.47 Q57.9902 703.734 54.8884 703.734 Q52.6893 703.734 50.2356 704.497 Q47.8051 705.261 45.0273 706.812 L45.0273 702.09 Q47.8514 700.956 50.3051 700.377 Q52.7588 699.798 54.7958 699.798 Q60.1661 699.798 63.3605 702.484 Q66.555 705.169 66.555 709.659 Q66.555 711.789 65.7448 713.71 Q64.9578 715.609 62.8513 718.201 Q62.2726 718.872 59.1708 722.09 Q56.0689 725.284 50.4208 731.048 Z" fill="#000000" fill-rule="evenodd" fill-opacity="1" /><path clip-path="url(#clip070)" d="M10.2127 330.356 Q6.60159 330.356 4.7729 333.921 Q2.96735 337.463 2.96735 344.592 Q2.96735 351.699 4.7729 355.263 Q6.60159 358.805 10.2127 358.805 Q13.8469 358.805 15.6525 355.263 Q17.4812 351.699 17.4812 344.592 Q17.4812 337.463 15.6525 333.921 Q13.8469 330.356 10.2127 330.356 M10.2127 326.653 Q16.0228 326.653 19.0784 331.259 Q22.1571 335.842 22.1571 344.592 Q22.1571 353.319 19.0784 357.925 Q16.0228 362.509 10.2127 362.509 Q4.40253 362.509 1.32384 357.925 Q-1.7317 353.319 -1.7317 344.592 Q-1.7317 335.842 1.32384 331.259 Q4.40253 326.653 10.2127 326.653 Z" fill="#000000" fill-rule="evenodd" fill-opacity="1" /><path clip-path="url(#clip070)" d="M30.3746 355.958 L35.2588 355.958 L35.2588 361.838 L30.3746 361.838 L30.3746 355.958 Z" fill="#000000" fill-rule="evenodd" fill-opacity="1" /><path clip-path="url(#clip070)" d="M59.6106 343.203 Q62.967 343.921 64.842 346.189 Q66.7402 348.458 66.7402 351.791 Q66.7402 356.907 63.2217 359.708 Q59.7032 362.509 53.2217 362.509 Q51.0458 362.509 48.731 362.069 Q46.4393 361.652 43.9856 360.796 L43.9856 356.282 Q45.9301 357.416 48.2449 357.995 Q50.5597 358.574 53.0828 358.574 Q57.4809 358.574 59.7726 356.838 Q62.0874 355.101 62.0874 351.791 Q62.0874 348.736 59.9346 347.023 Q57.805 345.287 53.9856 345.287 L49.9578 345.287 L49.9578 341.444 L54.1708 341.444 Q57.6198 341.444 59.4485 340.078 Q61.2772 338.689 61.2772 336.097 Q61.2772 333.435 59.3791 332.023 Q57.5041 330.588 53.9856 330.588 Q52.0643 330.588 49.8652 331.004 Q47.6662 331.421 45.0273 332.301 L45.0273 328.134 Q47.6893 327.393 50.0041 327.023 Q52.3421 326.653 54.4023 326.653 Q59.7263 326.653 62.8281 329.083 Q65.93 331.49 65.93 335.611 Q65.93 338.481 64.2865 340.472 Q62.643 342.439 59.6106 343.203 Z" fill="#000000" fill-rule="evenodd" fill-opacity="1" /><path clip-path="url(#clip070)" d="M-94.8723 840.657 L-77.0165 840.657 L-77.0165 832.573 Q-77.0165 828.085 -79.34 825.634 Q-81.6635 823.183 -85.9603 823.183 Q-90.2253 823.183 -92.5488 825.634 Q-94.8723 828.085 -94.8723 832.573 L-94.8723 840.657 M-100.156 847.086 L-100.156 832.573 Q-100.156 824.584 -96.5274 820.51 Q-92.9308 816.404 -85.9603 816.404 Q-78.9262 816.404 -75.3296 820.51 Q-71.733 824.584 -71.733 832.573 L-71.733 840.657 L-52.6358 840.657 L-52.6358 847.086 L-100.156 847.086 Z" fill="#000000" fill-rule="evenodd" fill-opacity="1" /><path clip-path="url(#clip070)" d="M-102.097 793.965 Q-94.7768 798.23 -87.6154 800.298 Q-80.454 802.367 -73.1016 802.367 Q-65.7492 802.367 -58.5241 800.298 Q-51.3309 798.198 -44.0421 793.965 L-44.0421 799.057 Q-51.5218 803.831 -58.7469 806.219 Q-65.972 808.574 -73.1016 808.574 Q-80.1994 808.574 -87.3926 806.219 Q-94.5858 803.863 -102.097 799.057 L-102.097 793.965 Z" fill="#000000" fill-rule="evenodd" fill-opacity="1" /><path clip-path="url(#clip070)" d="M-81.4407 754.847 Q-85.3874 752.651 -87.2653 749.596 Q-89.1432 746.54 -89.1432 742.402 Q-89.1432 736.832 -85.2283 733.809 Q-81.3452 730.785 -74.1519 730.785 L-52.6358 730.785 L-52.6358 736.673 L-73.961 736.673 Q-79.0854 736.673 -81.568 738.487 Q-84.0506 740.302 -84.0506 744.026 Q-84.0506 748.577 -81.0269 751.219 Q-78.0032 753.861 -72.7833 753.861 L-52.6358 753.861 L-52.6358 759.749 L-73.961 759.749 Q-79.1172 759.749 -81.568 761.563 Q-84.0506 763.377 -84.0506 767.165 Q-84.0506 771.653 -80.9951 774.295 Q-77.9714 776.936 -72.7833 776.936 L-52.6358 776.936 L-52.6358 782.825 L-88.2838 782.825 L-88.2838 776.936 L-82.7456 776.936 Q-86.024 774.931 -87.5836 772.13 Q-89.1432 769.329 -89.1432 765.478 Q-89.1432 761.595 -87.1698 758.89 Q-85.1964 756.152 -81.4407 754.847 Z" fill="#000000" fill-rule="evenodd" fill-opacity="1" /><path clip-path="url(#clip070)" d="M-102.097 720.027 L-102.097 714.934 Q-94.5858 710.16 -87.3926 707.805 Q-80.1994 705.418 -73.1016 705.418 Q-65.972 705.418 -58.7469 707.805 Q-51.5218 710.16 -44.0421 714.934 L-44.0421 720.027 Q-51.3309 715.794 -58.5241 713.725 Q-65.7492 711.624 -73.1016 711.624 Q-80.454 711.624 -87.6154 713.725 Q-94.7768 715.794 -102.097 720.027 Z" fill="#000000" fill-rule="evenodd" fill-opacity="1" /><path clip-path="url(#clip072)" d="
M226.495 395.458 L226.495 1464 L448.996 1464 L448.996 395.458 L226.495 395.458 L226.495 395.458  Z
  " fill="#009af9" fill-rule="evenodd" fill-opacity="1"/>
<polyline clip-path="url(#clip072)" style="stroke:#009af9; stroke-linecap:butt; stroke-linejoin:round; stroke-width:4; stroke-opacity:1; fill:none" points="
  226.495,395.458 226.495,1464 448.996,1464 448.996,395.458 226.495,395.458 
  "/>
<path clip-path="url(#clip072)" d="
M448.996 122.3 L448.996 1464 L671.496 1464 L671.496 122.3 L448.996 122.3 L448.996 122.3  Z
  " fill="#009af9" fill-rule="evenodd" fill-opacity="1"/>
<polyline clip-path="url(#clip072)" style="stroke:#009af9; stroke-linecap:butt; stroke-linejoin:round; stroke-width:4; stroke-opacity:1; fill:none" points="
  448.996,122.3 448.996,1464 671.496,1464 671.496,122.3 448.996,122.3 
  "/>
<path clip-path="url(#clip072)" d="
M671.496 634.064 L671.496 1464 L893.997 1464 L893.997 634.064 L671.496 634.064 L671.496 634.064  Z
  " fill="#009af9" fill-rule="evenodd" fill-opacity="1"/>
<polyline clip-path="url(#clip072)" style="stroke:#009af9; stroke-linecap:butt; stroke-linejoin:round; stroke-width:4; stroke-opacity:1; fill:none" points="
  671.496,634.064 671.496,1464 893.997,1464 893.997,634.064 671.496,634.064 
  "/>
<path clip-path="url(#clip072)" d="
M893.997 1112.17 L893.997 1464 L1116.5 1464 L1116.5 1112.17 L893.997 1112.17 L893.997 1112.17  Z
  " fill="#009af9" fill-rule="evenodd" fill-opacity="1"/>
<polyline clip-path="url(#clip072)" style="stroke:#009af9; stroke-linecap:butt; stroke-linejoin:round; stroke-width:4; stroke-opacity:1; fill:none" points="
  893.997,1112.17 893.997,1464 1116.5,1464 1116.5,1112.17 893.997,1112.17 
  "/>
<path clip-path="url(#clip072)" d="
M1116.5 1358.06 L1116.5 1464 L1339 1464 L1339 1358.06 L1116.5 1358.06 L1116.5 1358.06  Z
  " fill="#009af9" fill-rule="evenodd" fill-opacity="1"/>
<polyline clip-path="url(#clip072)" style="stroke:#009af9; stroke-linecap:butt; stroke-linejoin:round; stroke-width:4; stroke-opacity:1; fill:none" points="
  1116.5,1358.06 1116.5,1464 1339,1464 1339,1358.06 1116.5,1358.06 
  "/>
<path clip-path="url(#clip072)" d="
M1339 1437.33 L1339 1464 L1561.5 1464 L1561.5 1437.33 L1339 1437.33 L1339 1437.33  Z
  " fill="#009af9" fill-rule="evenodd" fill-opacity="1"/>
<polyline clip-path="url(#clip072)" style="stroke:#009af9; stroke-linecap:butt; stroke-linejoin:round; stroke-width:4; stroke-opacity:1; fill:none" points="
  1339,1437.33 1339,1464 1561.5,1464 1561.5,1437.33 1339,1437.33 
  "/>
<path clip-path="url(#clip072)" d="
M1561.5 1458.09 L1561.5 1464 L1784 1464 L1784 1458.09 L1561.5 1458.09 L1561.5 1458.09  Z
  " fill="#009af9" fill-rule="evenodd" fill-opacity="1"/>
<polyline clip-path="url(#clip072)" style="stroke:#009af9; stroke-linecap:butt; stroke-linejoin:round; stroke-width:4; stroke-opacity:1; fill:none" points="
  1561.5,1458.09 1561.5,1464 1784,1464 1784,1458.09 1561.5,1458.09 
  "/>
<path clip-path="url(#clip072)" d="
M1784 1463.1 L1784 1464 L2006.5 1464 L2006.5 1463.1 L1784 1463.1 L1784 1463.1  Z
  " fill="#009af9" fill-rule="evenodd" fill-opacity="1"/>
<polyline clip-path="url(#clip072)" style="stroke:#009af9; stroke-linecap:butt; stroke-linejoin:round; stroke-width:4; stroke-opacity:1; fill:none" points="
  1784,1463.1 1784,1464 2006.5,1464 2006.5,1463.1 1784,1463.1 
  "/>
<path clip-path="url(#clip072)" d="
M2006.5 1463.92 L2006.5 1464 L2229 1464 L2229 1463.92 L2006.5 1463.92 L2006.5 1463.92  Z
  " fill="#009af9" fill-rule="evenodd" fill-opacity="1"/>
<polyline clip-path="url(#clip072)" style="stroke:#009af9; stroke-linecap:butt; stroke-linejoin:round; stroke-width:4; stroke-opacity:1; fill:none" points="
  2006.5,1463.92 2006.5,1464 2229,1464 2229,1463.92 2006.5,1463.92 
  "/>
<polyline clip-path="url(#clip072)" style="stroke:#e26f46; stroke-linecap:butt; stroke-linejoin:round; stroke-width:12; stroke-opacity:1; fill:none" points="
  226.495,751.307 248.745,679.497 270.995,607.332 293.245,535.984 315.495,466.703 337.745,400.789 359.995,339.551 382.245,284.261 404.496,236.115 426.746,196.188 
  448.996,165.392 471.246,144.448 493.496,133.849 515.746,133.849 537.996,144.448 560.246,165.392 582.496,196.188 604.746,236.115 626.996,284.261 649.246,339.551 
  671.496,400.789 693.746,466.703 715.996,535.984 738.247,607.332 760.497,679.497 782.747,751.307 804.997,821.702 827.247,889.757 849.497,954.692 871.747,1015.88 
  893.997,1072.86 916.247,1125.32 938.497,1173.08 960.747,1216.09 982.997,1254.43 1005.25,1288.25 1027.5,1317.79 1049.75,1343.33 1072,1365.2 1094.25,1383.75 
  1116.5,1399.34 1138.75,1412.32 1161,1423.02 1183.25,1431.76 1205.5,1438.84 1227.75,1444.52 1250,1449.04 1272.25,1452.6 1294.5,1455.38 1316.75,1457.54 
  1339,1459.19 1361.25,1460.45 1383.5,1461.4 1405.75,1462.11 1428,1462.64 1450.25,1463.03 1472.5,1463.31 1494.75,1463.51 1517,1463.66 1539.25,1463.76 
  1561.5,1463.83 1583.75,1463.89 1606,1463.92 1628.25,1463.95 1650.5,1463.96 1672.75,1463.97 1695,1463.98 1717.25,1463.99 1739.5,1463.99 1761.75,1463.99 
  1784,1463.99 1806.25,1463.99 1828.5,1463.99 1850.75,1463.99 1873,1463.99 1895.25,1464 1917.5,1464 1939.75,1464 1962,1464 1984.25,1464 
  2006.5,1464 
  "/>
<polyline clip-path="url(#clip072)" style="stroke:#3da44d; stroke-linecap:butt; stroke-linejoin:round; stroke-width:12; stroke-opacity:1; fill:none" points="
  226.495,394.914 248.745,314.887 270.995,246.492 293.245,190.306 315.495,146.583 337.745,115.279 359.995,96.0945 382.245,88.5087 404.496,91.8189 426.746,105.18 
  448.996,127.644 471.246,158.191 493.496,195.763 515.746,239.295 537.996,287.734 560.246,340.065 582.496,395.323 604.746,452.608 626.996,511.095 649.246,570.038 
  671.496,628.776 693.746,686.731 715.996,743.409 738.247,798.397 760.497,851.359 782.747,902.03 804.997,950.21 827.247,995.76 849.497,1038.59 871.747,1078.67 
  893.997,1115.99 916.247,1150.58 938.497,1182.52 960.747,1211.87 982.997,1238.76 1005.25,1263.29 1027.5,1285.6 1049.75,1305.81 1072,1324.06 1094.25,1340.49 
  1116.5,1355.24 1138.75,1368.44 1161,1380.22 1183.25,1390.7 1205.5,1400.01 1227.75,1408.24 1250,1415.52 1272.25,1421.92 1294.5,1427.55 1316.75,1432.49 
  1339,1436.81 1361.25,1440.58 1383.5,1443.86 1405.75,1446.71 1428,1449.18 1450.25,1451.32 1472.5,1453.17 1494.75,1454.77 1517,1456.14 1539.25,1457.32 
  1561.5,1458.33 1583.75,1459.2 1606,1459.94 1628.25,1460.57 1650.5,1461.1 1672.75,1461.56 1695,1461.95 1717.25,1462.27 1739.5,1462.55 1761.75,1462.79 
  1784,1462.98 1806.25,1463.15 1828.5,1463.29 1850.75,1463.41 1873,1463.51 1895.25,1463.59 1917.5,1463.66 1939.75,1463.72 1962,1463.76 1984.25,1463.8 
  2006.5,1463.84 
  "/>
<path clip-path="url(#clip070)" d="
M1757.13 337.765 L2277.76 337.765 L2277.76 95.8446 L1757.13 95.8446  Z
  " fill="#ffffff" fill-rule="evenodd" fill-opacity="1"/>
<polyline clip-path="url(#clip070)" style="stroke:#000000; stroke-linecap:butt; stroke-linejoin:round; stroke-width:4; stroke-opacity:1; fill:none" points="
  1757.13,337.765 2277.76,337.765 2277.76,95.8446 1757.13,95.8446 1757.13,337.765 
  "/>
<path clip-path="url(#clip070)" d="
M1782.13 180.517 L1932.13 180.517 L1932.13 132.133 L1782.13 132.133 L1782.13 180.517  Z
  " fill="#009af9" fill-rule="evenodd" fill-opacity="1"/>
<polyline clip-path="url(#clip070)" style="stroke:#009af9; stroke-linecap:butt; stroke-linejoin:round; stroke-width:4; stroke-opacity:1; fill:none" points="
  1782.13,180.517 1932.13,180.517 1932.13,132.133 1782.13,132.133 1782.13,180.517 
  "/>
<path clip-path="url(#clip070)" d="M1970.97 176.012 Q1969.17 180.642 1967.46 182.054 Q1965.74 183.466 1962.87 183.466 L1959.47 183.466 L1959.47 179.901 L1961.97 179.901 Q1963.73 179.901 1964.7 179.068 Q1965.67 178.234 1966.85 175.132 L1967.62 173.188 L1957.13 147.679 L1961.65 147.679 L1969.75 167.957 L1977.85 147.679 L1982.36 147.679 L1970.97 176.012 Z" fill="#000000" fill-rule="evenodd" fill-opacity="1" /><path clip-path="url(#clip070)" d="M1989.65 169.669 L1997.29 169.669 L1997.29 143.304 L1988.98 144.971 L1988.98 140.711 L1997.25 139.045 L2001.92 139.045 L2001.92 169.669 L2009.56 169.669 L2009.56 173.605 L1989.65 173.605 L1989.65 169.669 Z" fill="#000000" fill-rule="evenodd" fill-opacity="1" /><polyline clip-path="url(#clip070)" style="stroke:#e26f46; stroke-linecap:butt; stroke-linejoin:round; stroke-width:4; stroke-opacity:1; fill:none" points="
  1782.13,216.805 1932.13,216.805 
  "/>
<path clip-path="url(#clip070)" d="M1976.04 220.821 Q1976.04 216.191 1974.12 213.645 Q1972.22 211.099 1968.77 211.099 Q1965.35 211.099 1963.43 213.645 Q1961.53 216.191 1961.53 220.821 Q1961.53 225.427 1963.43 227.974 Q1965.35 230.52 1968.77 230.52 Q1972.22 230.52 1974.12 227.974 Q1976.04 225.427 1976.04 220.821 M1980.3 230.867 Q1980.3 237.487 1977.36 240.705 Q1974.42 243.946 1968.36 243.946 Q1966.11 243.946 1964.12 243.598 Q1962.13 243.274 1960.26 242.58 L1960.26 238.436 Q1962.13 239.455 1963.96 239.941 Q1965.79 240.427 1967.69 240.427 Q1971.88 240.427 1973.96 238.228 Q1976.04 236.052 1976.04 231.631 L1976.04 229.524 Q1974.72 231.816 1972.66 232.95 Q1970.6 234.085 1967.73 234.085 Q1962.96 234.085 1960.05 230.45 Q1957.13 226.816 1957.13 220.821 Q1957.13 214.802 1960.05 211.168 Q1962.96 207.534 1967.73 207.534 Q1970.6 207.534 1972.66 208.668 Q1974.72 209.802 1976.04 212.094 L1976.04 208.159 L1980.3 208.159 L1980.3 230.867 Z" fill="#000000" fill-rule="evenodd" fill-opacity="1" /><path clip-path="url(#clip070)" d="M2000.86 221.052 Q1995.7 221.052 1993.71 222.233 Q1991.71 223.413 1991.71 226.261 Q1991.71 228.529 1993.2 229.872 Q1994.7 231.191 1997.27 231.191 Q2000.81 231.191 2002.94 228.691 Q2005.09 226.168 2005.09 222.001 L2005.09 221.052 L2000.86 221.052 M2009.35 219.293 L2009.35 234.085 L2005.09 234.085 L2005.09 230.149 Q2003.64 232.511 2001.46 233.645 Q1999.28 234.756 1996.14 234.756 Q1992.15 234.756 1989.79 232.534 Q1987.46 230.288 1987.46 226.538 Q1987.46 222.163 1990.37 219.941 Q1993.31 217.719 1999.12 217.719 L2005.09 217.719 L2005.09 217.302 Q2005.09 214.363 2003.15 212.765 Q2001.23 211.145 1997.73 211.145 Q1995.51 211.145 1993.4 211.677 Q1991.3 212.21 1989.35 213.275 L1989.35 209.339 Q1991.69 208.437 1993.89 207.997 Q1996.09 207.534 1998.17 207.534 Q2003.8 207.534 2006.58 210.45 Q2009.35 213.367 2009.35 219.293 Z" fill="#000000" fill-rule="evenodd" fill-opacity="1" /><path clip-path="url(#clip070)" d="M2017.69 223.853 L2017.69 208.159 L2021.95 208.159 L2021.95 223.691 Q2021.95 227.372 2023.38 229.224 Q2024.82 231.052 2027.69 231.052 Q2031.14 231.052 2033.13 228.853 Q2035.14 226.654 2035.14 222.858 L2035.14 208.159 L2039.4 208.159 L2039.4 234.085 L2035.14 234.085 L2035.14 230.103 Q2033.59 232.464 2031.53 233.622 Q2029.49 234.756 2026.78 234.756 Q2022.32 234.756 2020 231.978 Q2017.69 229.2 2017.69 223.853 M2028.4 207.534 L2028.4 207.534 Z" fill="#000000" fill-rule="evenodd" fill-opacity="1" /><path clip-path="url(#clip070)" d="M2064.7 208.923 L2064.7 212.95 Q2062.89 212.025 2060.95 211.562 Q2059.01 211.099 2056.92 211.099 Q2053.75 211.099 2052.15 212.071 Q2050.58 213.043 2050.58 214.987 Q2050.58 216.469 2051.71 217.325 Q2052.85 218.159 2056.27 218.923 L2057.73 219.247 Q2062.27 220.219 2064.17 222.001 Q2066.09 223.761 2066.09 226.932 Q2066.09 230.543 2063.22 232.649 Q2060.37 234.756 2055.37 234.756 Q2053.29 234.756 2051.02 234.339 Q2048.77 233.946 2046.27 233.136 L2046.27 228.737 Q2048.64 229.964 2050.93 230.589 Q2053.22 231.191 2055.46 231.191 Q2058.47 231.191 2060.09 230.173 Q2061.71 229.131 2061.71 227.256 Q2061.71 225.52 2060.53 224.594 Q2059.38 223.668 2055.42 222.812 L2053.94 222.464 Q2049.98 221.631 2048.22 219.918 Q2046.46 218.182 2046.46 215.173 Q2046.46 211.515 2049.05 209.525 Q2051.64 207.534 2056.41 207.534 Q2058.77 207.534 2060.86 207.881 Q2062.94 208.228 2064.7 208.923 Z" fill="#000000" fill-rule="evenodd" fill-opacity="1" /><path clip-path="url(#clip070)" d="M2089.4 208.923 L2089.4 212.95 Q2087.59 212.025 2085.65 211.562 Q2083.7 211.099 2081.62 211.099 Q2078.45 211.099 2076.85 212.071 Q2075.28 213.043 2075.28 214.987 Q2075.28 216.469 2076.41 217.325 Q2077.55 218.159 2080.97 218.923 L2082.43 219.247 Q2086.97 220.219 2088.87 222.001 Q2090.79 223.761 2090.79 226.932 Q2090.79 230.543 2087.92 232.649 Q2085.07 234.756 2080.07 234.756 Q2077.99 234.756 2075.72 234.339 Q2073.47 233.946 2070.97 233.136 L2070.97 228.737 Q2073.33 229.964 2075.63 230.589 Q2077.92 231.191 2080.16 231.191 Q2083.17 231.191 2084.79 230.173 Q2086.41 229.131 2086.41 227.256 Q2086.41 225.52 2085.23 224.594 Q2084.08 223.668 2080.12 222.812 L2078.64 222.464 Q2074.68 221.631 2072.92 219.918 Q2071.16 218.182 2071.16 215.173 Q2071.16 211.515 2073.75 209.525 Q2076.34 207.534 2081.11 207.534 Q2083.47 207.534 2085.56 207.881 Q2087.64 208.228 2089.4 208.923 Z" fill="#000000" fill-rule="evenodd" fill-opacity="1" /><path clip-path="url(#clip070)" d="M2097.57 208.159 L2101.83 208.159 L2101.83 234.085 L2097.57 234.085 L2097.57 208.159 M2097.57 198.066 L2101.83 198.066 L2101.83 203.46 L2097.57 203.46 L2097.57 198.066 Z" fill="#000000" fill-rule="evenodd" fill-opacity="1" /><path clip-path="url(#clip070)" d="M2122.52 221.052 Q2117.36 221.052 2115.37 222.233 Q2113.38 223.413 2113.38 226.261 Q2113.38 228.529 2114.86 229.872 Q2116.37 231.191 2118.94 231.191 Q2122.48 231.191 2124.61 228.691 Q2126.76 226.168 2126.76 222.001 L2126.76 221.052 L2122.52 221.052 M2131.02 219.293 L2131.02 234.085 L2126.76 234.085 L2126.76 230.149 Q2125.3 232.511 2123.13 233.645 Q2120.95 234.756 2117.8 234.756 Q2113.82 234.756 2111.46 232.534 Q2109.12 230.288 2109.12 226.538 Q2109.12 222.163 2112.04 219.941 Q2114.98 217.719 2120.79 217.719 L2126.76 217.719 L2126.76 217.302 Q2126.76 214.363 2124.82 212.765 Q2122.89 211.145 2119.4 211.145 Q2117.18 211.145 2115.07 211.677 Q2112.96 212.21 2111.02 213.275 L2111.02 209.339 Q2113.36 208.437 2115.56 207.997 Q2117.76 207.534 2119.84 207.534 Q2125.46 207.534 2128.24 210.45 Q2131.02 213.367 2131.02 219.293 Z" fill="#000000" fill-rule="evenodd" fill-opacity="1" /><path clip-path="url(#clip070)" d="M2161.34 218.437 L2161.34 234.085 L2157.08 234.085 L2157.08 218.575 Q2157.08 214.895 2155.65 213.066 Q2154.21 211.238 2151.34 211.238 Q2147.89 211.238 2145.9 213.437 Q2143.91 215.636 2143.91 219.432 L2143.91 234.085 L2139.63 234.085 L2139.63 208.159 L2143.91 208.159 L2143.91 212.187 Q2145.44 209.849 2147.5 208.691 Q2149.58 207.534 2152.29 207.534 Q2156.76 207.534 2159.05 210.312 Q2161.34 213.066 2161.34 218.437 Z" fill="#000000" fill-rule="evenodd" fill-opacity="1" /><path clip-path="url(#clip070)" d="M2198.03 198.066 L2198.03 201.608 L2193.96 201.608 Q2191.67 201.608 2190.76 202.534 Q2189.88 203.46 2189.88 205.867 L2189.88 208.159 L2196.9 208.159 L2196.9 211.469 L2189.88 211.469 L2189.88 234.085 L2185.6 234.085 L2185.6 211.469 L2181.53 211.469 L2181.53 208.159 L2185.6 208.159 L2185.6 206.353 Q2185.6 202.025 2187.62 200.057 Q2189.63 198.066 2194.01 198.066 L2198.03 198.066 Z" fill="#000000" fill-rule="evenodd" fill-opacity="1" /><path clip-path="url(#clip070)" d="M2201.6 208.159 L2205.86 208.159 L2205.86 234.085 L2201.6 234.085 L2201.6 208.159 M2201.6 198.066 L2205.86 198.066 L2205.86 203.46 L2201.6 203.46 L2201.6 198.066 Z" fill="#000000" fill-rule="evenodd" fill-opacity="1" /><path clip-path="url(#clip070)" d="M2218.98 200.798 L2218.98 208.159 L2227.76 208.159 L2227.76 211.469 L2218.98 211.469 L2218.98 225.543 Q2218.98 228.714 2219.84 229.617 Q2220.72 230.52 2223.38 230.52 L2227.76 230.52 L2227.76 234.085 L2223.38 234.085 Q2218.45 234.085 2216.57 232.256 Q2214.7 230.404 2214.7 225.543 L2214.7 211.469 L2211.57 211.469 L2211.57 208.159 L2214.7 208.159 L2214.7 200.798 L2218.98 200.798 Z" fill="#000000" fill-rule="evenodd" fill-opacity="1" /><polyline clip-path="url(#clip070)" style="stroke:#3da44d; stroke-linecap:butt; stroke-linejoin:round; stroke-width:4; stroke-opacity:1; fill:none" points="
  1782.13,277.285 1932.13,277.285 
  "/>
<path clip-path="url(#clip070)" d="M1961.41 290.676 L1961.41 304.426 L1957.13 304.426 L1957.13 268.639 L1961.41 268.639 L1961.41 272.574 Q1962.76 270.259 1964.79 269.148 Q1966.85 268.014 1969.7 268.014 Q1974.42 268.014 1977.36 271.764 Q1980.33 275.514 1980.33 281.625 Q1980.33 287.736 1977.36 291.486 Q1974.42 295.236 1969.7 295.236 Q1966.85 295.236 1964.79 294.125 Q1962.76 292.991 1961.41 290.676 M1975.9 281.625 Q1975.9 276.926 1973.96 274.264 Q1972.04 271.579 1968.66 271.579 Q1965.28 271.579 1963.34 274.264 Q1961.41 276.926 1961.41 281.625 Q1961.41 286.324 1963.34 289.009 Q1965.28 291.671 1968.66 291.671 Q1972.04 291.671 1973.96 289.009 Q1975.9 286.324 1975.9 281.625 Z" fill="#000000" fill-rule="evenodd" fill-opacity="1" /><path clip-path="url(#clip070)" d="M1997.43 271.625 Q1994.01 271.625 1992.02 274.31 Q1990.02 276.972 1990.02 281.625 Q1990.02 286.278 1991.99 288.963 Q1993.98 291.625 1997.43 291.625 Q2000.83 291.625 2002.83 288.94 Q2004.82 286.254 2004.82 281.625 Q2004.82 277.018 2002.83 274.333 Q2000.83 271.625 1997.43 271.625 M1997.43 268.014 Q2002.99 268.014 2006.16 271.625 Q2009.33 275.236 2009.33 281.625 Q2009.33 287.991 2006.16 291.625 Q2002.99 295.236 1997.43 295.236 Q1991.85 295.236 1988.68 291.625 Q1985.53 287.991 1985.53 281.625 Q1985.53 275.236 1988.68 271.625 Q1991.85 268.014 1997.43 268.014 Z" fill="#000000" fill-rule="evenodd" fill-opacity="1" /><path clip-path="url(#clip070)" d="M2016.39 268.639 L2020.65 268.639 L2020.65 294.565 L2016.39 294.565 L2016.39 268.639 M2016.39 258.546 L2020.65 258.546 L2020.65 263.94 L2016.39 263.94 L2016.39 258.546 Z" fill="#000000" fill-rule="evenodd" fill-opacity="1" /><path clip-path="url(#clip070)" d="M2046.09 269.403 L2046.09 273.43 Q2044.28 272.505 2042.34 272.042 Q2040.39 271.579 2038.31 271.579 Q2035.14 271.579 2033.54 272.551 Q2031.97 273.523 2031.97 275.467 Q2031.97 276.949 2033.1 277.805 Q2034.24 278.639 2037.66 279.403 L2039.12 279.727 Q2043.66 280.699 2045.56 282.481 Q2047.48 284.241 2047.48 287.412 Q2047.48 291.023 2044.61 293.129 Q2041.76 295.236 2036.76 295.236 Q2034.68 295.236 2032.41 294.819 Q2030.16 294.426 2027.66 293.616 L2027.66 289.217 Q2030.02 290.444 2032.32 291.069 Q2034.61 291.671 2036.85 291.671 Q2039.86 291.671 2041.48 290.653 Q2043.1 289.611 2043.1 287.736 Q2043.1 286 2041.92 285.074 Q2040.77 284.148 2036.81 283.292 L2035.33 282.944 Q2031.37 282.111 2029.61 280.398 Q2027.85 278.662 2027.85 275.653 Q2027.85 271.995 2030.44 270.005 Q2033.03 268.014 2037.8 268.014 Q2040.16 268.014 2042.25 268.361 Q2044.33 268.708 2046.09 269.403 Z" fill="#000000" fill-rule="evenodd" fill-opacity="1" /><path clip-path="url(#clip070)" d="M2070.79 269.403 L2070.79 273.43 Q2068.98 272.505 2067.04 272.042 Q2065.09 271.579 2063.01 271.579 Q2059.84 271.579 2058.24 272.551 Q2056.67 273.523 2056.67 275.467 Q2056.67 276.949 2057.8 277.805 Q2058.94 278.639 2062.36 279.403 L2063.82 279.727 Q2068.36 280.699 2070.26 282.481 Q2072.18 284.241 2072.18 287.412 Q2072.18 291.023 2069.31 293.129 Q2066.46 295.236 2061.46 295.236 Q2059.38 295.236 2057.11 294.819 Q2054.86 294.426 2052.36 293.616 L2052.36 289.217 Q2054.72 290.444 2057.02 291.069 Q2059.31 291.671 2061.55 291.671 Q2064.56 291.671 2066.18 290.653 Q2067.8 289.611 2067.8 287.736 Q2067.8 286 2066.62 285.074 Q2065.46 284.148 2061.51 283.292 L2060.02 282.944 Q2056.07 282.111 2054.31 280.398 Q2052.55 278.662 2052.55 275.653 Q2052.55 271.995 2055.14 270.005 Q2057.73 268.014 2062.5 268.014 Q2064.86 268.014 2066.95 268.361 Q2069.03 268.708 2070.79 269.403 Z" fill="#000000" fill-rule="evenodd" fill-opacity="1" /><path clip-path="url(#clip070)" d="M2089.01 271.625 Q2085.58 271.625 2083.59 274.31 Q2081.6 276.972 2081.6 281.625 Q2081.6 286.278 2083.57 288.963 Q2085.56 291.625 2089.01 291.625 Q2092.41 291.625 2094.4 288.94 Q2096.39 286.254 2096.39 281.625 Q2096.39 277.018 2094.4 274.333 Q2092.41 271.625 2089.01 271.625 M2089.01 268.014 Q2094.56 268.014 2097.73 271.625 Q2100.9 275.236 2100.9 281.625 Q2100.9 287.991 2097.73 291.625 Q2094.56 295.236 2089.01 295.236 Q2083.43 295.236 2080.26 291.625 Q2077.11 287.991 2077.11 281.625 Q2077.11 275.236 2080.26 271.625 Q2083.43 268.014 2089.01 268.014 Z" fill="#000000" fill-rule="evenodd" fill-opacity="1" /><path clip-path="url(#clip070)" d="M2129.51 278.917 L2129.51 294.565 L2125.26 294.565 L2125.26 279.055 Q2125.26 275.375 2123.82 273.546 Q2122.39 271.718 2119.51 271.718 Q2116.07 271.718 2114.08 273.917 Q2112.08 276.116 2112.08 279.912 L2112.08 294.565 L2107.8 294.565 L2107.8 268.639 L2112.08 268.639 L2112.08 272.667 Q2113.61 270.329 2115.67 269.171 Q2117.76 268.014 2120.46 268.014 Q2124.93 268.014 2127.22 270.792 Q2129.51 273.546 2129.51 278.917 Z" fill="#000000" fill-rule="evenodd" fill-opacity="1" /><path clip-path="url(#clip070)" d="M2166.2 258.546 L2166.2 262.088 L2162.13 262.088 Q2159.84 262.088 2158.94 263.014 Q2158.06 263.94 2158.06 266.347 L2158.06 268.639 L2165.07 268.639 L2165.07 271.949 L2158.06 271.949 L2158.06 294.565 L2153.77 294.565 L2153.77 271.949 L2149.7 271.949 L2149.7 268.639 L2153.77 268.639 L2153.77 266.833 Q2153.77 262.505 2155.79 260.537 Q2157.8 258.546 2162.18 258.546 L2166.2 258.546 Z" fill="#000000" fill-rule="evenodd" fill-opacity="1" /><path clip-path="url(#clip070)" d="M2169.77 268.639 L2174.03 268.639 L2174.03 294.565 L2169.77 294.565 L2169.77 268.639 M2169.77 258.546 L2174.03 258.546 L2174.03 263.94 L2169.77 263.94 L2169.77 258.546 Z" fill="#000000" fill-rule="evenodd" fill-opacity="1" /><path clip-path="url(#clip070)" d="M2187.15 261.278 L2187.15 268.639 L2195.93 268.639 L2195.93 271.949 L2187.15 271.949 L2187.15 286.023 Q2187.15 289.194 2188.01 290.097 Q2188.89 291 2191.55 291 L2195.93 291 L2195.93 294.565 L2191.55 294.565 Q2186.62 294.565 2184.75 292.736 Q2182.87 290.884 2182.87 286.023 L2182.87 271.949 L2179.75 271.949 L2179.75 268.639 L2182.87 268.639 L2182.87 261.278 L2187.15 261.278 Z" fill="#000000" fill-rule="evenodd" fill-opacity="1" /></svg>
