<?xml version="1.0" encoding="utf-8"?>
<svg xmlns="http://www.w3.org/2000/svg" xmlns:xlink="http://www.w3.org/1999/xlink" width="600" height="400" viewBox="0 0 2400 1600">
<defs>
  <clipPath id="clip190">
    <rect x="0" y="0" width="2400" height="1600"/>
  </clipPath>
</defs>
<path clip-path="url(#clip190)" d="
M0 1600 L2400 1600 L2400 0 L0 0  Z
  " fill="#ffffff" fill-rule="evenodd" fill-opacity="1"/>
<defs>
  <clipPath id="clip191">
    <rect x="480" y="0" width="1681" height="1600"/>
  </clipPath>
</defs>
<path clip-path="url(#clip190)" d="
M102.74 1505.26 L2352.76 1505.26 L2352.76 47.2441 L102.74 47.2441  Z
  " fill="#ffffff" fill-rule="evenodd" fill-opacity="1"/>
<defs>
  <clipPath id="clip192">
    <rect x="102" y="47" width="2251" height="1459"/>
  </clipPath>
</defs>
<polyline clip-path="url(#clip192)" style="stroke:#000000; stroke-linecap:butt; stroke-linejoin:round; stroke-width:2; stroke-opacity:0.1; fill:none" points="
  166.42,1505.26 166.42,47.2441 
  "/>
<polyline clip-path="url(#clip192)" style="stroke:#000000; stroke-linecap:butt; stroke-linejoin:round; stroke-width:2; stroke-opacity:0.1; fill:none" points="
  623.298,1505.26 623.298,47.2441 
  "/>
<polyline clip-path="url(#clip192)" style="stroke:#000000; stroke-linecap:butt; stroke-linejoin:round; stroke-width:2; stroke-opacity:0.1; fill:none" points="
  1080.18,1505.26 1080.18,47.2441 
  "/>
<polyline clip-path="url(#clip192)" style="stroke:#000000; stroke-linecap:butt; stroke-linejoin:round; stroke-width:2; stroke-opacity:0.1; fill:none" points="
  1537.05,1505.26 1537.05,47.2441 
  "/>
<polyline clip-path="url(#clip192)" style="stroke:#000000; stroke-linecap:butt; stroke-linejoin:round; stroke-width:2; stroke-opacity:0.1; fill:none" points="
  1993.93,1505.26 1993.93,47.2441 
  "/>
<polyline clip-path="url(#clip190)" style="stroke:#000000; stroke-linecap:butt; stroke-linejoin:round; stroke-width:4; stroke-opacity:1; fill:none" points="
  102.74,1505.26 2352.76,1505.26 
  "/>
<polyline clip-path="url(#clip190)" style="stroke:#000000; stroke-linecap:butt; stroke-linejoin:round; stroke-width:4; stroke-opacity:1; fill:none" points="
  166.42,1505.26 166.42,1487.76 
  "/>
<polyline clip-path="url(#clip190)" style="stroke:#000000; stroke-linecap:butt; stroke-linejoin:round; stroke-width:4; stroke-opacity:1; fill:none" points="
  623.298,1505.26 623.298,1487.76 
  "/>
<polyline clip-path="url(#clip190)" style="stroke:#000000; stroke-linecap:butt; stroke-linejoin:round; stroke-width:4; stroke-opacity:1; fill:none" points="
  1080.18,1505.26 1080.18,1487.76 
  "/>
<polyline clip-path="url(#clip190)" style="stroke:#000000; stroke-linecap:butt; stroke-linejoin:round; stroke-width:4; stroke-opacity:1; fill:none" points="
  1537.05,1505.26 1537.05,1487.76 
  "/>
<polyline clip-path="url(#clip190)" style="stroke:#000000; stroke-linecap:butt; stroke-linejoin:round; stroke-width:4; stroke-opacity:1; fill:none" points="
  1993.93,1505.26 1993.93,1487.76 
  "/>
<path clip-path="url(#clip190)" d="M166.42 1534.45 Q162.809 1534.45 160.98 1538.02 Q159.175 1541.56 159.175 1548.69 Q159.175 1555.79 160.98 1559.36 Q162.809 1562.9 166.42 1562.9 Q170.054 1562.9 171.86 1559.36 Q173.688 1555.79 173.688 1548.69 Q173.688 1541.56 171.86 1538.02 Q170.054 1534.45 166.42 1534.45 M166.42 1530.75 Q172.23 1530.75 175.286 1535.35 Q178.364 1539.94 178.364 1548.69 Q178.364 1557.41 175.286 1562.02 Q172.23 1566.6 166.42 1566.6 Q160.61 1566.6 157.531 1562.02 Q154.475 1557.41 154.475 1548.69 Q154.475 1539.94 157.531 1535.35 Q160.61 1530.75 166.42 1530.75 Z" fill="#000000" fill-rule="evenodd" fill-opacity="1" /><path clip-path="url(#clip190)" d="M602.071 1562 L618.391 1562 L618.391 1565.93 L596.446 1565.93 L596.446 1562 Q599.108 1559.24 603.692 1554.61 Q608.298 1549.96 609.479 1548.62 Q611.724 1546.09 612.604 1544.36 Q613.506 1542.6 613.506 1540.91 Q613.506 1538.15 611.562 1536.42 Q609.641 1534.68 606.539 1534.68 Q604.34 1534.68 601.886 1535.45 Q599.456 1536.21 596.678 1537.76 L596.678 1533.04 Q599.502 1531.9 601.956 1531.33 Q604.409 1530.75 606.446 1530.75 Q611.817 1530.75 615.011 1533.43 Q618.206 1536.12 618.206 1540.61 Q618.206 1542.74 617.395 1544.66 Q616.608 1546.56 614.502 1549.15 Q613.923 1549.82 610.821 1553.04 Q607.719 1556.23 602.071 1562 Z" fill="#000000" fill-rule="evenodd" fill-opacity="1" /><path clip-path="url(#clip190)" d="M638.205 1534.45 Q634.594 1534.45 632.766 1538.02 Q630.96 1541.56 630.96 1548.69 Q630.96 1555.79 632.766 1559.36 Q634.594 1562.9 638.205 1562.9 Q641.84 1562.9 643.645 1559.36 Q645.474 1555.79 645.474 1548.69 Q645.474 1541.56 643.645 1538.02 Q641.84 1534.45 638.205 1534.45 M638.205 1530.75 Q644.016 1530.75 647.071 1535.35 Q650.15 1539.94 650.15 1548.69 Q650.15 1557.41 647.071 1562.02 Q644.016 1566.6 638.205 1566.6 Q632.395 1566.6 629.317 1562.02 Q626.261 1557.41 626.261 1548.69 Q626.261 1539.94 629.317 1535.35 Q632.395 1530.75 638.205 1530.75 Z" fill="#000000" fill-rule="evenodd" fill-opacity="1" /><path clip-path="url(#clip190)" d="M1068.35 1535.45 L1056.54 1553.89 L1068.35 1553.89 L1068.35 1535.45 M1067.12 1531.37 L1073 1531.37 L1073 1553.89 L1077.93 1553.89 L1077.93 1557.78 L1073 1557.78 L1073 1565.93 L1068.35 1565.93 L1068.35 1557.78 L1052.75 1557.78 L1052.75 1553.27 L1067.12 1531.37 Z" fill="#000000" fill-rule="evenodd" fill-opacity="1" /><path clip-path="url(#clip190)" d="M1095.66 1534.45 Q1092.05 1534.45 1090.22 1538.02 Q1088.42 1541.56 1088.42 1548.69 Q1088.42 1555.79 1090.22 1559.36 Q1092.05 1562.9 1095.66 1562.9 Q1099.3 1562.9 1101.1 1559.36 Q1102.93 1555.79 1102.93 1548.69 Q1102.93 1541.56 1101.1 1538.02 Q1099.3 1534.45 1095.66 1534.45 M1095.66 1530.75 Q1101.47 1530.75 1104.53 1535.35 Q1107.61 1539.94 1107.61 1548.69 Q1107.61 1557.41 1104.53 1562.02 Q1101.47 1566.6 1095.66 1566.6 Q1089.85 1566.6 1086.77 1562.02 Q1083.72 1557.41 1083.72 1548.69 Q1083.72 1539.94 1086.77 1535.35 Q1089.85 1530.75 1095.66 1530.75 Z" fill="#000000" fill-rule="evenodd" fill-opacity="1" /><path clip-path="url(#clip190)" d="M1522.46 1546.79 Q1519.31 1546.79 1517.46 1548.94 Q1515.63 1551.09 1515.63 1554.84 Q1515.63 1558.57 1517.46 1560.75 Q1519.31 1562.9 1522.46 1562.9 Q1525.61 1562.9 1527.44 1560.75 Q1529.29 1558.57 1529.29 1554.84 Q1529.29 1551.09 1527.44 1548.94 Q1525.61 1546.79 1522.46 1546.79 M1531.74 1532.14 L1531.74 1536.39 Q1529.98 1535.56 1528.18 1535.12 Q1526.39 1534.68 1524.64 1534.68 Q1520.01 1534.68 1517.55 1537.81 Q1515.12 1540.93 1514.77 1547.25 Q1516.14 1545.24 1518.2 1544.17 Q1520.26 1543.08 1522.74 1543.08 Q1527.95 1543.08 1530.96 1546.26 Q1533.99 1549.4 1533.99 1554.84 Q1533.99 1560.17 1530.84 1563.39 Q1527.69 1566.6 1522.46 1566.6 Q1516.46 1566.6 1513.29 1562.02 Q1510.12 1557.41 1510.12 1548.69 Q1510.12 1540.49 1514.01 1535.63 Q1517.9 1530.75 1524.45 1530.75 Q1526.21 1530.75 1527.99 1531.09 Q1529.8 1531.44 1531.74 1532.14 Z" fill="#000000" fill-rule="evenodd" fill-opacity="1" /><path clip-path="url(#clip190)" d="M1552.04 1534.45 Q1548.43 1534.45 1546.6 1538.02 Q1544.8 1541.56 1544.8 1548.69 Q1544.8 1555.79 1546.6 1559.36 Q1548.43 1562.9 1552.04 1562.9 Q1555.68 1562.9 1557.48 1559.36 Q1559.31 1555.79 1559.31 1548.69 Q1559.31 1541.56 1557.48 1538.02 Q1555.68 1534.45 1552.04 1534.45 M1552.04 1530.75 Q1557.85 1530.75 1560.91 1535.35 Q1563.99 1539.94 1563.99 1548.69 Q1563.99 1557.41 1560.91 1562.02 Q1557.85 1566.6 1552.04 1566.6 Q1546.23 1566.6 1543.15 1562.02 Q1540.1 1557.41 1540.1 1548.69 Q1540.1 1539.94 1543.15 1535.35 Q1546.23 1530.75 1552.04 1530.75 Z" fill="#000000" fill-rule="evenodd" fill-opacity="1" /><path clip-path="url(#clip190)" d="M1978.81 1549.52 Q1975.47 1549.52 1973.55 1551.3 Q1971.65 1553.08 1971.65 1556.21 Q1971.65 1559.33 1973.55 1561.12 Q1975.47 1562.9 1978.81 1562.9 Q1982.14 1562.9 1984.06 1561.12 Q1985.98 1559.31 1985.98 1556.21 Q1985.98 1553.08 1984.06 1551.3 Q1982.16 1549.52 1978.81 1549.52 M1974.13 1547.53 Q1971.12 1546.79 1969.43 1544.73 Q1967.76 1542.67 1967.76 1539.71 Q1967.76 1535.56 1970.7 1533.15 Q1973.67 1530.75 1978.81 1530.75 Q1983.97 1530.75 1986.91 1533.15 Q1989.85 1535.56 1989.85 1539.71 Q1989.85 1542.67 1988.16 1544.73 Q1986.49 1546.79 1983.5 1547.53 Q1986.88 1548.32 1988.76 1550.61 Q1990.66 1552.9 1990.66 1556.21 Q1990.66 1561.23 1987.58 1563.92 Q1984.52 1566.6 1978.81 1566.6 Q1973.09 1566.6 1970.01 1563.92 Q1966.95 1561.23 1966.95 1556.21 Q1966.95 1552.9 1968.85 1550.61 Q1970.75 1548.32 1974.13 1547.53 M1972.42 1540.14 Q1972.42 1542.83 1974.08 1544.33 Q1975.77 1545.84 1978.81 1545.84 Q1981.81 1545.84 1983.5 1544.33 Q1985.22 1542.83 1985.22 1540.14 Q1985.22 1537.46 1983.5 1535.96 Q1981.81 1534.45 1978.81 1534.45 Q1975.77 1534.45 1974.08 1535.96 Q1972.42 1537.46 1972.42 1540.14 Z" fill="#000000" fill-rule="evenodd" fill-opacity="1" /><path clip-path="url(#clip190)" d="M2008.97 1534.45 Q2005.36 1534.45 2003.53 1538.02 Q2001.72 1541.56 2001.72 1548.69 Q2001.72 1555.79 2003.53 1559.36 Q2005.36 1562.9 2008.97 1562.9 Q2012.6 1562.9 2014.41 1559.36 Q2016.24 1555.79 2016.24 1548.69 Q2016.24 1541.56 2014.41 1538.02 Q2012.6 1534.45 2008.97 1534.45 M2008.97 1530.75 Q2014.78 1530.75 2017.83 1535.35 Q2020.91 1539.94 2020.91 1548.69 Q2020.91 1557.41 2017.83 1562.02 Q2014.78 1566.6 2008.97 1566.6 Q2003.16 1566.6 2000.08 1562.02 Q1997.02 1557.41 1997.02 1548.69 Q1997.02 1539.94 2000.08 1535.35 Q2003.16 1530.75 2008.97 1530.75 Z" fill="#000000" fill-rule="evenodd" fill-opacity="1" /><path clip-path="url(#clip190)" d="M1238.19 1619.95 Q1237.2 1619.38 1236.02 1619.12 Q1234.88 1618.84 1233.48 1618.84 Q1228.51 1618.84 1225.84 1622.08 Q1223.2 1625.3 1223.2 1631.35 L1223.2 1650.12 L1217.31 1650.12 L1217.31 1614.48 L1223.2 1614.48 L1223.2 1620.01 Q1225.04 1616.77 1228 1615.21 Q1230.96 1613.62 1235.2 1613.62 Q1235.8 1613.62 1236.53 1613.71 Q1237.26 1613.78 1238.16 1613.93 L1238.19 1619.95 Z" fill="#000000" fill-rule="evenodd" fill-opacity="1" /><polyline clip-path="url(#clip192)" style="stroke:#000000; stroke-linecap:butt; stroke-linejoin:round; stroke-width:2; stroke-opacity:0.1; fill:none" points="
  102.74,1464 2352.76,1464 
  "/>
<polyline clip-path="url(#clip192)" style="stroke:#000000; stroke-linecap:butt; stroke-linejoin:round; stroke-width:2; stroke-opacity:0.1; fill:none" points="
  102.74,1213.06 2352.76,1213.06 
  "/>
<polyline clip-path="url(#clip192)" style="stroke:#000000; stroke-linecap:butt; stroke-linejoin:round; stroke-width:2; stroke-opacity:0.1; fill:none" points="
  102.74,962.134 2352.76,962.134 
  "/>
<polyline clip-path="url(#clip192)" style="stroke:#000000; stroke-linecap:butt; stroke-linejoin:round; stroke-width:2; stroke-opacity:0.1; fill:none" points="
  102.74,711.203 2352.76,711.203 
  "/>
<polyline clip-path="url(#clip192)" style="stroke:#000000; stroke-linecap:butt; stroke-linejoin:round; stroke-width:2; stroke-opacity:0.1; fill:none" points="
  102.74,460.272 2352.76,460.272 
  "/>
<polyline clip-path="url(#clip192)" style="stroke:#000000; stroke-linecap:butt; stroke-linejoin:round; stroke-width:2; stroke-opacity:0.1; fill:none" points="
  102.74,209.341 2352.76,209.341 
  "/>
<polyline clip-path="url(#clip190)" style="stroke:#000000; stroke-linecap:butt; stroke-linejoin:round; stroke-width:4; stroke-opacity:1; fill:none" points="
  102.74,1505.26 102.74,47.2441 
  "/>
<polyline clip-path="url(#clip190)" style="stroke:#000000; stroke-linecap:butt; stroke-linejoin:round; stroke-width:4; stroke-opacity:1; fill:none" points="
  102.74,1464 129.74,1464 
  "/>
<polyline clip-path="url(#clip190)" style="stroke:#000000; stroke-linecap:butt; stroke-linejoin:round; stroke-width:4; stroke-opacity:1; fill:none" points="
  102.74,1213.06 129.74,1213.06 
  "/>
<polyline clip-path="url(#clip190)" style="stroke:#000000; stroke-linecap:butt; stroke-linejoin:round; stroke-width:4; stroke-opacity:1; fill:none" points="
  102.74,962.134 129.74,962.134 
  "/>
<polyline clip-path="url(#clip190)" style="stroke:#000000; stroke-linecap:butt; stroke-linejoin:round; stroke-width:4; stroke-opacity:1; fill:none" points="
  102.74,711.203 129.74,711.203 
  "/>
<polyline clip-path="url(#clip190)" style="stroke:#000000; stroke-linecap:butt; stroke-linejoin:round; stroke-width:4; stroke-opacity:1; fill:none" points="
  102.74,460.272 129.74,460.272 
  "/>
<polyline clip-path="url(#clip190)" style="stroke:#000000; stroke-linecap:butt; stroke-linejoin:round; stroke-width:4; stroke-opacity:1; fill:none" points="
  102.74,209.341 129.74,209.341 
  "/>
<path clip-path="url(#clip190)" d="M-20.5973 1449.79 Q-24.2084 1449.79 -26.0371 1453.36 Q-27.8427 1456.9 -27.8427 1464.03 Q-27.8427 1471.14 -26.0371 1474.7 Q-24.2084 1478.24 -20.5973 1478.24 Q-16.9631 1478.24 -15.1576 1474.7 Q-13.3289 1471.14 -13.3289 1464.03 Q-13.3289 1456.9 -15.1576 1453.36 Q-16.9631 1449.79 -20.5973 1449.79 M-20.5973 1446.09 Q-14.7872 1446.09 -11.7316 1450.7 Q-8.65296 1455.28 -8.65296 1464.03 Q-8.65296 1472.76 -11.7316 1477.36 Q-14.7872 1481.95 -20.5973 1481.95 Q-26.4075 1481.95 -29.4862 1477.36 Q-32.5417 1472.76 -32.5417 1464.03 Q-32.5417 1455.28 -29.4862 1450.7 Q-26.4075 1446.09 -20.5973 1446.09 Z" fill="#000000" fill-rule="evenodd" fill-opacity="1" /><path clip-path="url(#clip190)" d="M-0.435408 1475.4 L4.44882 1475.4 L4.44882 1481.28 L-0.435408 1481.28 L-0.435408 1475.4 Z" fill="#000000" fill-rule="evenodd" fill-opacity="1" /><path clip-path="url(#clip190)" d="M24.6339 1449.79 Q21.0228 1449.79 19.1941 1453.36 Q17.3886 1456.9 17.3886 1464.03 Q17.3886 1471.14 19.1941 1474.7 Q21.0228 1478.24 24.6339 1478.24 Q28.2681 1478.24 30.0737 1474.7 Q31.9024 1471.14 31.9024 1464.03 Q31.9024 1456.9 30.0737 1453.36 Q28.2681 1449.79 24.6339 1449.79 M24.6339 1446.09 Q30.4441 1446.09 33.4996 1450.7 Q36.5783 1455.28 36.5783 1464.03 Q36.5783 1472.76 33.4996 1477.36 Q30.4441 1481.95 24.6339 1481.95 Q18.8237 1481.95 15.7451 1477.36 Q12.6895 1472.76 12.6895 1464.03 Q12.6895 1455.28 15.7451 1450.7 Q18.8237 1446.09 24.6339 1446.09 Z" fill="#000000" fill-rule="evenodd" fill-opacity="1" /><path clip-path="url(#clip190)" d="M54.7958 1449.79 Q51.1847 1449.79 49.356 1453.36 Q47.5504 1456.9 47.5504 1464.03 Q47.5504 1471.14 49.356 1474.7 Q51.1847 1478.24 54.7958 1478.24 Q58.43 1478.24 60.2356 1474.7 Q62.0643 1471.14 62.0643 1464.03 Q62.0643 1456.9 60.2356 1453.36 Q58.43 1449.79 54.7958 1449.79 M54.7958 1446.09 Q60.6059 1446.09 63.6615 1450.7 Q66.7402 1455.28 66.7402 1464.03 Q66.7402 1472.76 63.6615 1477.36 Q60.6059 1481.95 54.7958 1481.95 Q48.9856 1481.95 45.9069 1477.36 Q42.8514 1472.76 42.8514 1464.03 Q42.8514 1455.28 45.9069 1450.7 Q48.9856 1446.09 54.7958 1446.09 Z" fill="#000000" fill-rule="evenodd" fill-opacity="1" /><path clip-path="url(#clip190)" d="M-19.3705 1198.86 Q-22.9816 1198.86 -24.8103 1202.43 Q-26.6158 1205.97 -26.6158 1213.1 Q-26.6158 1220.21 -24.8103 1223.77 Q-22.9816 1227.31 -19.3705 1227.31 Q-15.7363 1227.31 -13.9307 1223.77 Q-12.102 1220.21 -12.102 1213.1 Q-12.102 1205.97 -13.9307 1202.43 Q-15.7363 1198.86 -19.3705 1198.86 M-19.3705 1195.16 Q-13.5603 1195.16 -10.5048 1199.77 Q-7.42611 1204.35 -7.42611 1213.1 Q-7.42611 1221.83 -10.5048 1226.43 Q-13.5603 1231.02 -19.3705 1231.02 Q-25.1806 1231.02 -28.2593 1226.43 Q-31.3149 1221.83 -31.3149 1213.1 Q-31.3149 1204.35 -28.2593 1199.77 Q-25.1806 1195.16 -19.3705 1195.16 Z" fill="#000000" fill-rule="evenodd" fill-opacity="1" /><path clip-path="url(#clip190)" d="M0.791437 1224.46 L5.67567 1224.46 L5.67567 1230.34 L0.791437 1230.34 L0.791437 1224.46 Z" fill="#000000" fill-rule="evenodd" fill-opacity="1" /><path clip-path="url(#clip190)" d="M25.8607 1198.86 Q22.2497 1198.86 20.421 1202.43 Q18.6154 1205.97 18.6154 1213.1 Q18.6154 1220.21 20.421 1223.77 Q22.2497 1227.31 25.8607 1227.31 Q29.495 1227.31 31.3005 1223.77 Q33.1292 1220.21 33.1292 1213.1 Q33.1292 1205.97 31.3005 1202.43 Q29.495 1198.86 25.8607 1198.86 M25.8607 1195.16 Q31.6709 1195.16 34.7264 1199.77 Q37.8051 1204.35 37.8051 1213.1 Q37.8051 1221.83 34.7264 1226.43 Q31.6709 1231.02 25.8607 1231.02 Q20.0506 1231.02 16.9719 1226.43 Q13.9164 1221.83 13.9164 1213.1 Q13.9164 1204.35 16.9719 1199.77 Q20.0506 1195.16 25.8607 1195.16 Z" fill="#000000" fill-rule="evenodd" fill-opacity="1" /><path clip-path="url(#clip190)" d="M46.8329 1226.41 L54.4717 1226.41 L54.4717 1200.04 L46.1616 1201.71 L46.1616 1197.45 L54.4254 1195.78 L59.1013 1195.78 L59.1013 1226.41 L66.7402 1226.41 L66.7402 1230.34 L46.8329 1230.34 L46.8329 1226.41 Z" fill="#000000" fill-rule="evenodd" fill-opacity="1" /><path clip-path="url(#clip190)" d="M-19.0001 947.932 Q-22.6112 947.932 -24.4399 951.497 Q-26.2455 955.039 -26.2455 962.168 Q-26.2455 969.275 -24.4399 972.84 Q-22.6112 976.381 -19.0001 976.381 Q-15.3659 976.381 -13.5603 972.84 Q-11.7316 969.275 -11.7316 962.168 Q-11.7316 955.039 -13.5603 951.497 Q-15.3659 947.932 -19.0001 947.932 M-19.0001 944.229 Q-13.19 944.229 -10.1344 948.835 Q-7.05574 953.418 -7.05574 962.168 Q-7.05574 970.895 -10.1344 975.502 Q-13.19 980.085 -19.0001 980.085 Q-24.8103 980.085 -27.889 975.502 Q-30.9445 970.895 -30.9445 962.168 Q-30.9445 953.418 -27.889 948.835 Q-24.8103 944.229 -19.0001 944.229 Z" fill="#000000" fill-rule="evenodd" fill-opacity="1" /><path clip-path="url(#clip190)" d="M1.16181 973.534 L6.04604 973.534 L6.04604 979.414 L1.16181 979.414 L1.16181 973.534 Z" fill="#000000" fill-rule="evenodd" fill-opacity="1" /><path clip-path="url(#clip190)" d="M26.2311 947.932 Q22.62 947.932 20.7913 951.497 Q18.9858 955.039 18.9858 962.168 Q18.9858 969.275 20.7913 972.84 Q22.62 976.381 26.2311 976.381 Q29.8654 976.381 31.6709 972.84 Q33.4996 969.275 33.4996 962.168 Q33.4996 955.039 31.6709 951.497 Q29.8654 947.932 26.2311 947.932 M26.2311 944.229 Q32.0413 944.229 35.0968 948.835 Q38.1755 953.418 38.1755 962.168 Q38.1755 970.895 35.0968 975.502 Q32.0413 980.085 26.2311 980.085 Q20.421 980.085 17.3423 975.502 Q14.2867 970.895 14.2867 962.168 Q14.2867 953.418 17.3423 948.835 Q20.421 944.229 26.2311 944.229 Z" fill="#000000" fill-rule="evenodd" fill-opacity="1" /><path clip-path="url(#clip190)" d="M50.4208 975.478 L66.7402 975.478 L66.7402 979.414 L44.7958 979.414 L44.7958 975.478 Q47.4579 972.724 52.0412 968.094 Q56.6476 963.441 57.8282 962.099 Q60.0735 959.576 60.9532 957.84 Q61.8559 956.08 61.8559 954.391 Q61.8559 951.636 59.9115 949.9 Q57.9902 948.164 54.8884 948.164 Q52.6893 948.164 50.2356 948.928 Q47.8051 949.691 45.0273 951.242 L45.0273 946.52 Q47.8514 945.386 50.3051 944.807 Q52.7588 944.229 54.7958 944.229 Q60.1661 944.229 63.3605 946.914 Q66.555 949.599 66.555 954.09 Q66.555 956.219 65.7448 958.141 Q64.9578 960.039 62.8513 962.631 Q62.2726 963.303 59.1708 966.52 Q56.0689 969.715 50.4208 975.478 Z" fill="#000000" fill-rule="evenodd" fill-opacity="1" /><path clip-path="url(#clip190)" d="M-19.9492 697.001 Q-23.5603 697.001 -25.389 700.566 Q-27.1945 704.108 -27.1945 711.237 Q-27.1945 718.344 -25.389 721.909 Q-23.5603 725.45 -19.9492 725.45 Q-16.315 725.45 -14.5094 721.909 Q-12.6807 718.344 -12.6807 711.237 Q-12.6807 704.108 -14.5094 700.566 Q-16.315 697.001 -19.9492 697.001 M-19.9492 693.298 Q-14.139 693.298 -11.0835 697.904 Q-8.00481 702.487 -8.00481 711.237 Q-8.00481 719.964 -11.0835 724.571 Q-14.139 729.154 -19.9492 729.154 Q-25.7593 729.154 -28.838 724.571 Q-31.8936 719.964 -31.8936 711.237 Q-31.8936 702.487 -28.838 697.904 Q-25.7593 693.298 -19.9492 693.298 Z" fill="#000000" fill-rule="evenodd" fill-opacity="1" /><path clip-path="url(#clip190)" d="M0.212736 722.603 L5.09697 722.603 L5.09697 728.483 L0.212736 728.483 L0.212736 722.603 Z" fill="#000000" fill-rule="evenodd" fill-opacity="1" /><path clip-path="url(#clip190)" d="M25.282 697.001 Q21.671 697.001 19.8423 700.566 Q18.0367 704.108 18.0367 711.237 Q18.0367 718.344 19.8423 721.909 Q21.671 725.45 25.282 725.45 Q28.9163 725.45 30.7218 721.909 Q32.5505 718.344 32.5505 711.237 Q32.5505 704.108 30.7218 700.566 Q28.9163 697.001 25.282 697.001 M25.282 693.298 Q31.0922 693.298 34.1477 697.904 Q37.2264 702.487 37.2264 711.237 Q37.2264 719.964 34.1477 724.571 Q31.0922 729.154 25.282 729.154 Q19.4719 729.154 16.3932 724.571 Q13.3377 719.964 13.3377 711.237 Q13.3377 702.487 16.3932 697.904 Q19.4719 693.298 25.282 693.298 Z" fill="#000000" fill-rule="evenodd" fill-opacity="1" /><path clip-path="url(#clip190)" d="M59.6106 709.849 Q62.967 710.566 64.842 712.835 Q66.7402 715.103 66.7402 718.436 Q66.7402 723.552 63.2217 726.353 Q59.7032 729.154 53.2217 729.154 Q51.0458 729.154 48.731 728.714 Q46.4393 728.298 43.9856 727.441 L43.9856 722.927 Q45.9301 724.061 48.2449 724.64 Q50.5597 725.219 53.0828 725.219 Q57.4809 725.219 59.7726 723.483 Q62.0874 721.747 62.0874 718.436 Q62.0874 715.381 59.9346 713.668 Q57.805 711.932 53.9856 711.932 L49.9578 711.932 L49.9578 708.089 L54.1708 708.089 Q57.6198 708.089 59.4485 706.724 Q61.2772 705.335 61.2772 702.742 Q61.2772 700.08 59.3791 698.668 Q57.5041 697.233 53.9856 697.233 Q52.0643 697.233 49.8652 697.65 Q47.6662 698.066 45.0273 698.946 L45.0273 694.779 Q47.6893 694.038 50.0041 693.668 Q52.3421 693.298 54.4023 693.298 Q59.7263 693.298 62.8281 695.728 Q65.93 698.136 65.93 702.256 Q65.93 705.126 64.2865 707.117 Q62.643 709.085 59.6106 709.849 Z" fill="#000000" fill-rule="evenodd" fill-opacity="1" /><path clip-path="url(#clip190)" d="M-21.0834 446.071 Q-24.6945 446.071 -26.5232 449.635 Q-28.3288 453.177 -28.3288 460.307 Q-28.3288 467.413 -26.5232 470.978 Q-24.6945 474.519 -21.0834 474.519 Q-17.4492 474.519 -15.6437 470.978 Q-13.815 467.413 -13.815 460.307 Q-13.815 453.177 -15.6437 449.635 Q-17.4492 446.071 -21.0834 446.071 M-21.0834 442.367 Q-15.2733 442.367 -12.2178 446.973 Q-9.13907 451.557 -9.13907 460.307 Q-9.13907 469.033 -12.2178 473.64 Q-15.2733 478.223 -21.0834 478.223 Q-26.8936 478.223 -29.9723 473.64 Q-33.0278 469.033 -33.0278 460.307 Q-33.0278 451.557 -29.9723 446.973 Q-26.8936 442.367 -21.0834 442.367 Z" fill="#000000" fill-rule="evenodd" fill-opacity="1" /><path clip-path="url(#clip190)" d="M-0.921517 471.672 L3.96272 471.672 L3.96272 477.552 L-0.921517 477.552 L-0.921517 471.672 Z" fill="#000000" fill-rule="evenodd" fill-opacity="1" /><path clip-path="url(#clip190)" d="M24.1478 446.071 Q20.5367 446.071 18.708 449.635 Q16.9025 453.177 16.9025 460.307 Q16.9025 467.413 18.708 470.978 Q20.5367 474.519 24.1478 474.519 Q27.782 474.519 29.5876 470.978 Q31.4163 467.413 31.4163 460.307 Q31.4163 453.177 29.5876 449.635 Q27.782 446.071 24.1478 446.071 M24.1478 442.367 Q29.9579 442.367 33.0135 446.973 Q36.0922 451.557 36.0922 460.307 Q36.0922 469.033 33.0135 473.64 Q29.9579 478.223 24.1478 478.223 Q18.3376 478.223 15.259 473.64 Q12.2034 469.033 12.2034 460.307 Q12.2034 451.557 15.259 446.973 Q18.3376 442.367 24.1478 442.367 Z" fill="#000000" fill-rule="evenodd" fill-opacity="1" /><path clip-path="url(#clip190)" d="M57.1569 447.066 L45.3514 465.515 L57.1569 465.515 L57.1569 447.066 M55.93 442.992 L61.8096 442.992 L61.8096 465.515 L66.7402 465.515 L66.7402 469.404 L61.8096 469.404 L61.8096 477.552 L57.1569 477.552 L57.1569 469.404 L41.5551 469.404 L41.5551 464.89 L55.93 442.992 Z" fill="#000000" fill-rule="evenodd" fill-opacity="1" /><path clip-path="url(#clip190)" d="M-19.602 195.14 Q-23.2131 195.14 -25.0418 198.704 Q-26.8473 202.246 -26.8473 209.376 Q-26.8473 216.482 -25.0418 220.047 Q-23.2131 223.589 -19.602 223.589 Q-15.9677 223.589 -14.1622 220.047 Q-12.3335 216.482 -12.3335 209.376 Q-12.3335 202.246 -14.1622 198.704 Q-15.9677 195.14 -19.602 195.14 M-19.602 191.436 Q-13.7918 191.436 -10.7363 196.042 Q-7.65759 200.626 -7.65759 209.376 Q-7.65759 218.103 -10.7363 222.709 Q-13.7918 227.292 -19.602 227.292 Q-25.4121 227.292 -28.4908 222.709 Q-31.5464 218.103 -31.5464 209.376 Q-31.5464 200.626 -28.4908 196.042 Q-25.4121 191.436 -19.602 191.436 Z" fill="#000000" fill-rule="evenodd" fill-opacity="1" /><path clip-path="url(#clip190)" d="M0.559957 220.741 L5.44419 220.741 L5.44419 226.621 L0.559957 226.621 L0.559957 220.741 Z" fill="#000000" fill-rule="evenodd" fill-opacity="1" /><path clip-path="url(#clip190)" d="M25.6293 195.14 Q22.0182 195.14 20.1895 198.704 Q18.3839 202.246 18.3839 209.376 Q18.3839 216.482 20.1895 220.047 Q22.0182 223.589 25.6293 223.589 Q29.2635 223.589 31.0691 220.047 Q32.8977 216.482 32.8977 209.376 Q32.8977 202.246 31.0691 198.704 Q29.2635 195.14 25.6293 195.14 M25.6293 191.436 Q31.4394 191.436 34.495 196.042 Q37.5736 200.626 37.5736 209.376 Q37.5736 218.103 34.495 222.709 Q31.4394 227.292 25.6293 227.292 Q19.8191 227.292 16.7404 222.709 Q13.6849 218.103 13.6849 209.376 Q13.6849 200.626 16.7404 196.042 Q19.8191 191.436 25.6293 191.436 Z" fill="#000000" fill-rule="evenodd" fill-opacity="1" /><path clip-path="url(#clip190)" d="M45.8375 192.061 L64.1939 192.061 L64.1939 195.996 L50.1199 195.996 L50.1199 204.468 Q51.1384 204.121 52.1569 203.959 Q53.1754 203.774 54.1939 203.774 Q59.9809 203.774 63.3605 206.945 Q66.7402 210.116 66.7402 215.533 Q66.7402 221.112 63.268 224.214 Q59.7958 227.292 53.4763 227.292 Q51.3004 227.292 49.0319 226.922 Q46.7866 226.552 44.3792 225.811 L44.3792 221.112 Q46.4625 222.246 48.6847 222.802 Q50.9069 223.357 53.3837 223.357 Q57.3884 223.357 59.7263 221.251 Q62.0643 219.144 62.0643 215.533 Q62.0643 211.922 59.7263 209.816 Q57.3884 207.709 53.3837 207.709 Q51.5088 207.709 49.6338 208.126 Q47.7819 208.542 45.8375 209.422 L45.8375 192.061 Z" fill="#000000" fill-rule="evenodd" fill-opacity="1" /><path clip-path="url(#clip190)" d="M-125.52 822.308 L-107.664 822.308 L-107.664 814.223 Q-107.664 809.736 -109.988 807.285 Q-112.311 804.834 -116.608 804.834 Q-120.873 804.834 -123.197 807.285 Q-125.52 809.736 -125.52 814.223 L-125.52 822.308 M-130.804 828.737 L-130.804 814.223 Q-130.804 806.234 -127.175 802.16 Q-123.579 798.055 -116.608 798.055 Q-109.574 798.055 -105.978 802.16 Q-102.381 806.234 -102.381 814.223 L-102.381 822.308 L-83.2838 822.308 L-83.2838 828.737 L-130.804 828.737 Z" fill="#000000" fill-rule="evenodd" fill-opacity="1" /><path clip-path="url(#clip190)" d="M-132.745 775.615 Q-125.425 779.88 -118.263 781.949 Q-111.102 784.018 -103.75 784.018 Q-96.3972 784.018 -89.1721 781.949 Q-81.9789 779.849 -74.6901 775.615 L-74.6901 780.708 Q-82.1698 785.482 -89.3949 787.869 Q-96.62 790.225 -103.75 790.225 Q-110.847 790.225 -118.041 787.869 Q-125.234 785.514 -132.745 780.708 L-132.745 775.615 Z" fill="#000000" fill-rule="evenodd" fill-opacity="1" /><path clip-path="url(#clip190)" d="M-113.457 743.596 Q-114.03 744.583 -114.285 745.76 Q-114.571 746.906 -114.571 748.307 Q-114.571 753.272 -111.325 755.945 Q-108.11 758.587 -102.063 758.587 L-83.2838 758.587 L-83.2838 764.475 L-118.932 764.475 L-118.932 758.587 L-113.394 758.587 Q-116.64 756.741 -118.2 753.781 Q-119.791 750.821 -119.791 746.588 Q-119.791 745.983 -119.696 745.251 Q-119.632 744.519 -119.473 743.628 L-113.457 743.596 Z" fill="#000000" fill-rule="evenodd" fill-opacity="1" /><path clip-path="url(#clip190)" d="M-132.745 738.376 L-132.745 733.283 Q-125.234 728.509 -118.041 726.154 Q-110.847 723.767 -103.75 723.767 Q-96.62 723.767 -89.3949 726.154 Q-82.1698 728.509 -74.6901 733.283 L-74.6901 738.376 Q-81.9789 734.143 -89.1721 732.074 Q-96.3972 729.973 -103.75 729.973 Q-111.102 729.973 -118.263 732.074 Q-125.425 734.143 -132.745 738.376 Z" fill="#000000" fill-rule="evenodd" fill-opacity="1" /><path clip-path="url(#clip192)" d="
M783.205 1463.49 L783.205 1464 L806.049 1464 L806.049 1463.49 L783.205 1463.49 L783.205 1463.49  Z
  " fill="#009af9" fill-rule="evenodd" fill-opacity="1"/>
<polyline clip-path="url(#clip192)" style="stroke:#009af9; stroke-linecap:butt; stroke-linejoin:round; stroke-width:4; stroke-opacity:1; fill:none" points="
  783.205,1463.49 783.205,1464 806.049,1464 806.049,1463.49 783.205,1463.49 
  "/>
<path clip-path="url(#clip192)" d="
M806.049 1462.99 L806.049 1464 L828.893 1464 L828.893 1462.99 L806.049 1462.99 L806.049 1462.99  Z
  " fill="#009af9" fill-rule="evenodd" fill-opacity="1"/>
<polyline clip-path="url(#clip192)" style="stroke:#009af9; stroke-linecap:butt; stroke-linejoin:round; stroke-width:4; stroke-opacity:1; fill:none" points="
  806.049,1462.99 806.049,1464 828.893,1464 828.893,1462.99 806.049,1462.99 
  "/>
<path clip-path="url(#clip192)" d="
M828.893 1462.49 L828.893 1464 L851.737 1464 L851.737 1462.49 L828.893 1462.49 L828.893 1462.49  Z
  " fill="#009af9" fill-rule="evenodd" fill-opacity="1"/>
<polyline clip-path="url(#clip192)" style="stroke:#009af9; stroke-linecap:butt; stroke-linejoin:round; stroke-width:4; stroke-opacity:1; fill:none" points="
  828.893,1462.49 828.893,1464 851.737,1464 851.737,1462.49 828.893,1462.49 
  "/>
<path clip-path="url(#clip192)" d="
M851.737 1460.73 L851.737 1464 L874.581 1464 L874.581 1460.73 L851.737 1460.73 L851.737 1460.73  Z
  " fill="#009af9" fill-rule="evenodd" fill-opacity="1"/>
<polyline clip-path="url(#clip192)" style="stroke:#009af9; stroke-linecap:butt; stroke-linejoin:round; stroke-width:4; stroke-opacity:1; fill:none" points="
  851.737,1460.73 851.737,1464 874.581,1464 874.581,1460.73 851.737,1460.73 
  "/>
<path clip-path="url(#clip192)" d="
M874.581 1458.72 L874.581 1464 L897.425 1464 L897.425 1458.72 L874.581 1458.72 L874.581 1458.72  Z
  " fill="#009af9" fill-rule="evenodd" fill-opacity="1"/>
<polyline clip-path="url(#clip192)" style="stroke:#009af9; stroke-linecap:butt; stroke-linejoin:round; stroke-width:4; stroke-opacity:1; fill:none" points="
  874.581,1458.72 874.581,1464 897.425,1464 897.425,1458.72 874.581,1458.72 
  "/>
<path clip-path="url(#clip192)" d="
M897.425 1459.73 L897.425 1464 L920.269 1464 L920.269 1459.73 L897.425 1459.73 L897.425 1459.73  Z
  " fill="#009af9" fill-rule="evenodd" fill-opacity="1"/>
<polyline clip-path="url(#clip192)" style="stroke:#009af9; stroke-linecap:butt; stroke-linejoin:round; stroke-width:4; stroke-opacity:1; fill:none" points="
  897.425,1459.73 897.425,1464 920.269,1464 920.269,1459.73 897.425,1459.73 
  "/>
<path clip-path="url(#clip192)" d="
M920.269 1455.45 L920.269 1464 L943.113 1464 L943.113 1455.45 L920.269 1455.45 L920.269 1455.45  Z
  " fill="#009af9" fill-rule="evenodd" fill-opacity="1"/>
<polyline clip-path="url(#clip192)" style="stroke:#009af9; stroke-linecap:butt; stroke-linejoin:round; stroke-width:4; stroke-opacity:1; fill:none" points="
  920.269,1455.45 920.269,1464 943.113,1464 943.113,1455.45 920.269,1455.45 
  "/>
<path clip-path="url(#clip192)" d="
M943.113 1444.91 L943.113 1464 L965.957 1464 L965.957 1444.91 L943.113 1444.91 L943.113 1444.91  Z
  " fill="#009af9" fill-rule="evenodd" fill-opacity="1"/>
<polyline clip-path="url(#clip192)" style="stroke:#009af9; stroke-linecap:butt; stroke-linejoin:round; stroke-width:4; stroke-opacity:1; fill:none" points="
  943.113,1444.91 943.113,1464 965.957,1464 965.957,1444.91 943.113,1444.91 
  "/>
<path clip-path="url(#clip192)" d="
M965.957 1434.36 L965.957 1464 L988.801 1464 L988.801 1434.36 L965.957 1434.36 L965.957 1434.36  Z
  " fill="#009af9" fill-rule="evenodd" fill-opacity="1"/>
<polyline clip-path="url(#clip192)" style="stroke:#009af9; stroke-linecap:butt; stroke-linejoin:round; stroke-width:4; stroke-opacity:1; fill:none" points="
  965.957,1434.36 965.957,1464 988.801,1464 988.801,1434.36 965.957,1434.36 
  "/>
<path clip-path="url(#clip192)" d="
M988.801 1420.54 L988.801 1464 L1011.64 1464 L1011.64 1420.54 L988.801 1420.54 L988.801 1420.54  Z
  " fill="#009af9" fill-rule="evenodd" fill-opacity="1"/>
<polyline clip-path="url(#clip192)" style="stroke:#009af9; stroke-linecap:butt; stroke-linejoin:round; stroke-width:4; stroke-opacity:1; fill:none" points="
  988.801,1420.54 988.801,1464 1011.64,1464 1011.64,1420.54 988.801,1420.54 
  "/>
<path clip-path="url(#clip192)" d="
M1011.64 1413.76 L1011.64 1464 L1034.49 1464 L1034.49 1413.76 L1011.64 1413.76 L1011.64 1413.76  Z
  " fill="#009af9" fill-rule="evenodd" fill-opacity="1"/>
<polyline clip-path="url(#clip192)" style="stroke:#009af9; stroke-linecap:butt; stroke-linejoin:round; stroke-width:4; stroke-opacity:1; fill:none" points="
  1011.64,1413.76 1011.64,1464 1034.49,1464 1034.49,1413.76 1011.64,1413.76 
  "/>
<path clip-path="url(#clip192)" d="
M1034.49 1373.07 L1034.49 1464 L1057.33 1464 L1057.33 1373.07 L1034.49 1373.07 L1034.49 1373.07  Z
  " fill="#009af9" fill-rule="evenodd" fill-opacity="1"/>
<polyline clip-path="url(#clip192)" style="stroke:#009af9; stroke-linecap:butt; stroke-linejoin:round; stroke-width:4; stroke-opacity:1; fill:none" points="
  1034.49,1373.07 1034.49,1464 1057.33,1464 1057.33,1373.07 1034.49,1373.07 
  "/>
<path clip-path="url(#clip192)" d="
M1057.33 1341.92 L1057.33 1464 L1080.18 1464 L1080.18 1341.92 L1057.33 1341.92 L1057.33 1341.92  Z
  " fill="#009af9" fill-rule="evenodd" fill-opacity="1"/>
<polyline clip-path="url(#clip192)" style="stroke:#009af9; stroke-linecap:butt; stroke-linejoin:round; stroke-width:4; stroke-opacity:1; fill:none" points="
  1057.33,1341.92 1057.33,1464 1080.18,1464 1080.18,1341.92 1057.33,1341.92 
  "/>
<path clip-path="url(#clip192)" d="
M1080.18 1294.19 L1080.18 1464 L1103.02 1464 L1103.02 1294.19 L1080.18 1294.19 L1080.18 1294.19  Z
  " fill="#009af9" fill-rule="evenodd" fill-opacity="1"/>
<polyline clip-path="url(#clip192)" style="stroke:#009af9; stroke-linecap:butt; stroke-linejoin:round; stroke-width:4; stroke-opacity:1; fill:none" points="
  1080.18,1294.19 1080.18,1464 1103.02,1464 1103.02,1294.19 1080.18,1294.19 
  "/>
<path clip-path="url(#clip192)" d="
M1103.02 1238.68 L1103.02 1464 L1125.86 1464 L1125.86 1238.68 L1103.02 1238.68 L1103.02 1238.68  Z
  " fill="#009af9" fill-rule="evenodd" fill-opacity="1"/>
<polyline clip-path="url(#clip192)" style="stroke:#009af9; stroke-linecap:butt; stroke-linejoin:round; stroke-width:4; stroke-opacity:1; fill:none" points="
  1103.02,1238.68 1103.02,1464 1125.86,1464 1125.86,1238.68 1103.02,1238.68 
  "/>
<path clip-path="url(#clip192)" d="
M1125.86 1165.84 L1125.86 1464 L1148.71 1464 L1148.71 1165.84 L1125.86 1165.84 L1125.86 1165.84  Z
  " fill="#009af9" fill-rule="evenodd" fill-opacity="1"/>
<polyline clip-path="url(#clip192)" style="stroke:#009af9; stroke-linecap:butt; stroke-linejoin:round; stroke-width:4; stroke-opacity:1; fill:none" points="
  1125.86,1165.84 1125.86,1464 1148.71,1464 1148.71,1165.84 1125.86,1165.84 
  "/>
<path clip-path="url(#clip192)" d="
M1148.71 1079.18 L1148.71 1464 L1171.55 1464 L1171.55 1079.18 L1148.71 1079.18 L1148.71 1079.18  Z
  " fill="#009af9" fill-rule="evenodd" fill-opacity="1"/>
<polyline clip-path="url(#clip192)" style="stroke:#009af9; stroke-linecap:butt; stroke-linejoin:round; stroke-width:4; stroke-opacity:1; fill:none" points="
  1148.71,1079.18 1148.71,1464 1171.55,1464 1171.55,1079.18 1148.71,1079.18 
  "/>
<path clip-path="url(#clip192)" d="
M1171.55 1009.85 L1171.55 1464 L1194.4 1464 L1194.4 1009.85 L1171.55 1009.85 L1171.55 1009.85  Z
  " fill="#009af9" fill-rule="evenodd" fill-opacity="1"/>
<polyline clip-path="url(#clip192)" style="stroke:#009af9; stroke-linecap:butt; stroke-linejoin:round; stroke-width:4; stroke-opacity:1; fill:none" points="
  1171.55,1009.85 1171.55,1464 1194.4,1464 1194.4,1009.85 1171.55,1009.85 
  "/>
<path clip-path="url(#clip192)" d="
M1194.4 882.252 L1194.4 1464 L1217.24 1464 L1217.24 882.252 L1194.4 882.252 L1194.4 882.252  Z
  " fill="#009af9" fill-rule="evenodd" fill-opacity="1"/>
<polyline clip-path="url(#clip192)" style="stroke:#009af9; stroke-linecap:butt; stroke-linejoin:round; stroke-width:4; stroke-opacity:1; fill:none" points="
  1194.4,882.252 1194.4,1464 1217.24,1464 1217.24,882.252 1194.4,882.252 
  "/>
<path clip-path="url(#clip192)" d="
M1217.24 791.574 L1217.24 1464 L1240.08 1464 L1240.08 791.574 L1217.24 791.574 L1217.24 791.574  Z
  " fill="#009af9" fill-rule="evenodd" fill-opacity="1"/>
<polyline clip-path="url(#clip192)" style="stroke:#009af9; stroke-linecap:butt; stroke-linejoin:round; stroke-width:4; stroke-opacity:1; fill:none" points="
  1217.24,791.574 1217.24,1464 1240.08,1464 1240.08,791.574 1217.24,791.574 
  "/>
<path clip-path="url(#clip192)" d="
M1240.08 673.769 L1240.08 1464 L1262.93 1464 L1262.93 673.769 L1240.08 673.769 L1240.08 673.769  Z
  " fill="#009af9" fill-rule="evenodd" fill-opacity="1"/>
<polyline clip-path="url(#clip192)" style="stroke:#009af9; stroke-linecap:butt; stroke-linejoin:round; stroke-width:4; stroke-opacity:1; fill:none" points="
  1240.08,673.769 1240.08,1464 1262.93,1464 1262.93,673.769 1240.08,673.769 
  "/>
<path clip-path="url(#clip192)" d="
M1262.93 563.247 L1262.93 1464 L1285.77 1464 L1285.77 563.247 L1262.93 563.247 L1262.93 563.247  Z
  " fill="#009af9" fill-rule="evenodd" fill-opacity="1"/>
<polyline clip-path="url(#clip192)" style="stroke:#009af9; stroke-linecap:butt; stroke-linejoin:round; stroke-width:4; stroke-opacity:1; fill:none" points="
  1262.93,563.247 1262.93,1464 1285.77,1464 1285.77,563.247 1262.93,563.247 
  "/>
<path clip-path="url(#clip192)" d="
M1285.77 441.172 L1285.77 1464 L1308.62 1464 L1308.62 441.172 L1285.77 441.172 L1285.77 441.172  Z
  " fill="#009af9" fill-rule="evenodd" fill-opacity="1"/>
<polyline clip-path="url(#clip192)" style="stroke:#009af9; stroke-linecap:butt; stroke-linejoin:round; stroke-width:4; stroke-opacity:1; fill:none" points="
  1285.77,441.172 1285.77,1464 1308.62,1464 1308.62,441.172 1285.77,441.172 
  "/>
<path clip-path="url(#clip192)" d="
M1308.62 331.655 L1308.62 1464 L1331.46 1464 L1331.46 331.655 L1308.62 331.655 L1308.62 331.655  Z
  " fill="#009af9" fill-rule="evenodd" fill-opacity="1"/>
<polyline clip-path="url(#clip192)" style="stroke:#009af9; stroke-linecap:butt; stroke-linejoin:round; stroke-width:4; stroke-opacity:1; fill:none" points="
  1308.62,331.655 1308.62,1464 1331.46,1464 1331.46,331.655 1308.62,331.655 
  "/>
<path clip-path="url(#clip192)" d="
M1331.46 234.447 L1331.46 1464 L1354.3 1464 L1354.3 234.447 L1331.46 234.447 L1331.46 234.447  Z
  " fill="#009af9" fill-rule="evenodd" fill-opacity="1"/>
<polyline clip-path="url(#clip192)" style="stroke:#009af9; stroke-linecap:butt; stroke-linejoin:round; stroke-width:4; stroke-opacity:1; fill:none" points="
  1331.46,234.447 1331.46,1464 1354.3,1464 1354.3,234.447 1331.46,234.447 
  "/>
<path clip-path="url(#clip192)" d="
M1354.3 208.826 L1354.3 1464 L1377.15 1464 L1377.15 208.826 L1354.3 208.826 L1354.3 208.826  Z
  " fill="#009af9" fill-rule="evenodd" fill-opacity="1"/>
<polyline clip-path="url(#clip192)" style="stroke:#009af9; stroke-linecap:butt; stroke-linejoin:round; stroke-width:4; stroke-opacity:1; fill:none" points="
  1354.3,208.826 1354.3,1464 1377.15,1464 1377.15,208.826 1354.3,208.826 
  "/>
<path clip-path="url(#clip192)" d="
M1377.15 149.044 L1377.15 1464 L1399.99 1464 L1399.99 149.044 L1377.15 149.044 L1377.15 149.044  Z
  " fill="#009af9" fill-rule="evenodd" fill-opacity="1"/>
<polyline clip-path="url(#clip192)" style="stroke:#009af9; stroke-linecap:butt; stroke-linejoin:round; stroke-width:4; stroke-opacity:1; fill:none" points="
  1377.15,149.044 1377.15,1464 1399.99,1464 1399.99,149.044 1377.15,149.044 
  "/>
<path clip-path="url(#clip192)" d="
M1399.99 129.201 L1399.99 1464 L1422.84 1464 L1422.84 129.201 L1399.99 129.201 L1399.99 129.201  Z
  " fill="#009af9" fill-rule="evenodd" fill-opacity="1"/>
<polyline clip-path="url(#clip192)" style="stroke:#009af9; stroke-linecap:butt; stroke-linejoin:round; stroke-width:4; stroke-opacity:1; fill:none" points="
  1399.99,129.201 1399.99,1464 1422.84,1464 1422.84,129.201 1399.99,129.201 
  "/>
<path clip-path="url(#clip192)" d="
M1422.84 88.5087 L1422.84 1464 L1445.68 1464 L1445.68 88.5087 L1422.84 88.5087 L1422.84 88.5087  Z
  " fill="#009af9" fill-rule="evenodd" fill-opacity="1"/>
<polyline clip-path="url(#clip192)" style="stroke:#009af9; stroke-linecap:butt; stroke-linejoin:round; stroke-width:4; stroke-opacity:1; fill:none" points="
  1422.84,88.5087 1422.84,1464 1445.68,1464 1445.68,88.5087 1422.84,88.5087 
  "/>
<path clip-path="url(#clip192)" d="
M1445.68 160.85 L1445.68 1464 L1468.52 1464 L1468.52 160.85 L1445.68 160.85 L1445.68 160.85  Z
  " fill="#009af9" fill-rule="evenodd" fill-opacity="1"/>
<polyline clip-path="url(#clip192)" style="stroke:#009af9; stroke-linecap:butt; stroke-linejoin:round; stroke-width:4; stroke-opacity:1; fill:none" points="
  1445.68,160.85 1445.68,1464 1468.52,1464 1468.52,160.85 1445.68,160.85 
  "/>
<path clip-path="url(#clip192)" d="
M1468.52 168.385 L1468.52 1464 L1491.37 1464 L1491.37 168.385 L1468.52 168.385 L1468.52 168.385  Z
  " fill="#009af9" fill-rule="evenodd" fill-opacity="1"/>
<polyline clip-path="url(#clip192)" style="stroke:#009af9; stroke-linecap:butt; stroke-linejoin:round; stroke-width:4; stroke-opacity:1; fill:none" points="
  1468.52,168.385 1468.52,1464 1491.37,1464 1491.37,168.385 1468.52,168.385 
  "/>
<path clip-path="url(#clip192)" d="
M1491.37 287.698 L1491.37 1464 L1514.21 1464 L1514.21 287.698 L1491.37 287.698 L1491.37 287.698  Z
  " fill="#009af9" fill-rule="evenodd" fill-opacity="1"/>
<polyline clip-path="url(#clip192)" style="stroke:#009af9; stroke-linecap:butt; stroke-linejoin:round; stroke-width:4; stroke-opacity:1; fill:none" points="
  1491.37,287.698 1491.37,1464 1514.21,1464 1514.21,287.698 1491.37,287.698 
  "/>
<path clip-path="url(#clip192)" d="
M1514.21 299.755 L1514.21 1464 L1537.05 1464 L1537.05 299.755 L1514.21 299.755 L1514.21 299.755  Z
  " fill="#009af9" fill-rule="evenodd" fill-opacity="1"/>
<polyline clip-path="url(#clip192)" style="stroke:#009af9; stroke-linecap:butt; stroke-linejoin:round; stroke-width:4; stroke-opacity:1; fill:none" points="
  1514.21,299.755 1514.21,1464 1537.05,1464 1537.05,299.755 1514.21,299.755 
  "/>
<path clip-path="url(#clip192)" d="
M1537.05 391.94 L1537.05 1464 L1559.9 1464 L1559.9 391.94 L1537.05 391.94 L1537.05 391.94  Z
  " fill="#009af9" fill-rule="evenodd" fill-opacity="1"/>
<polyline clip-path="url(#clip192)" style="stroke:#009af9; stroke-linecap:butt; stroke-linejoin:round; stroke-width:4; stroke-opacity:1; fill:none" points="
  1537.05,391.94 1537.05,1464 1559.9,1464 1559.9,391.94 1537.05,391.94 
  "/>
<path clip-path="url(#clip192)" d="
M1559.9 530.342 L1559.9 1464 L1582.74 1464 L1582.74 530.342 L1559.9 530.342 L1559.9 530.342  Z
  " fill="#009af9" fill-rule="evenodd" fill-opacity="1"/>
<polyline clip-path="url(#clip192)" style="stroke:#009af9; stroke-linecap:butt; stroke-linejoin:round; stroke-width:4; stroke-opacity:1; fill:none" points="
  1559.9,530.342 1559.9,1464 1582.74,1464 1582.74,530.342 1559.9,530.342 
  "/>
<path clip-path="url(#clip192)" d="
M1582.74 675.778 L1582.74 1464 L1605.59 1464 L1605.59 675.778 L1582.74 675.778 L1582.74 675.778  Z
  " fill="#009af9" fill-rule="evenodd" fill-opacity="1"/>
<polyline clip-path="url(#clip192)" style="stroke:#009af9; stroke-linecap:butt; stroke-linejoin:round; stroke-width:4; stroke-opacity:1; fill:none" points="
  1582.74,675.778 1582.74,1464 1605.59,1464 1605.59,675.778 1582.74,675.778 
  "/>
<path clip-path="url(#clip192)" d="
M1605.59 758.669 L1605.59 1464 L1628.43 1464 L1628.43 758.669 L1605.59 758.669 L1605.59 758.669  Z
  " fill="#009af9" fill-rule="evenodd" fill-opacity="1"/>
<polyline clip-path="url(#clip192)" style="stroke:#009af9; stroke-linecap:butt; stroke-linejoin:round; stroke-width:4; stroke-opacity:1; fill:none" points="
  1605.59,758.669 1605.59,1464 1628.43,1464 1628.43,758.669 1605.59,758.669 
  "/>
<path clip-path="url(#clip192)" d="
M1628.43 848.844 L1628.43 1464 L1651.27 1464 L1651.27 848.844 L1628.43 848.844 L1628.43 848.844  Z
  " fill="#009af9" fill-rule="evenodd" fill-opacity="1"/>
<polyline clip-path="url(#clip192)" style="stroke:#009af9; stroke-linecap:butt; stroke-linejoin:round; stroke-width:4; stroke-opacity:1; fill:none" points="
  1628.43,848.844 1628.43,1464 1651.27,1464 1651.27,848.844 1628.43,848.844 
  "/>
<path clip-path="url(#clip192)" d="
M1651.27 958.863 L1651.27 1464 L1674.12 1464 L1674.12 958.863 L1651.27 958.863 L1651.27 958.863  Z
  " fill="#009af9" fill-rule="evenodd" fill-opacity="1"/>
<polyline clip-path="url(#clip192)" style="stroke:#009af9; stroke-linecap:butt; stroke-linejoin:round; stroke-width:4; stroke-opacity:1; fill:none" points="
  1651.27,958.863 1651.27,1464 1674.12,1464 1674.12,958.863 1651.27,958.863 
  "/>
<path clip-path="url(#clip192)" d="
M1674.12 1035.47 L1674.12 1464 L1696.96 1464 L1696.96 1035.47 L1674.12 1035.47 L1674.12 1035.47  Z
  " fill="#009af9" fill-rule="evenodd" fill-opacity="1"/>
<polyline clip-path="url(#clip192)" style="stroke:#009af9; stroke-linecap:butt; stroke-linejoin:round; stroke-width:4; stroke-opacity:1; fill:none" points="
  1674.12,1035.47 1674.12,1464 1696.96,1464 1696.96,1035.47 1674.12,1035.47 
  "/>
<path clip-path="url(#clip192)" d="
M1696.96 1092.74 L1696.96 1464 L1719.81 1464 L1719.81 1092.74 L1696.96 1092.74 L1696.96 1092.74  Z
  " fill="#009af9" fill-rule="evenodd" fill-opacity="1"/>
<polyline clip-path="url(#clip192)" style="stroke:#009af9; stroke-linecap:butt; stroke-linejoin:round; stroke-width:4; stroke-opacity:1; fill:none" points="
  1696.96,1092.74 1696.96,1464 1719.81,1464 1719.81,1092.74 1696.96,1092.74 
  "/>
<path clip-path="url(#clip192)" d="
M1719.81 1159.31 L1719.81 1464 L1742.65 1464 L1742.65 1159.31 L1719.81 1159.31 L1719.81 1159.31  Z
  " fill="#009af9" fill-rule="evenodd" fill-opacity="1"/>
<polyline clip-path="url(#clip192)" style="stroke:#009af9; stroke-linecap:butt; stroke-linejoin:round; stroke-width:4; stroke-opacity:1; fill:none" points="
  1719.81,1159.31 1719.81,1464 1742.65,1464 1742.65,1159.31 1719.81,1159.31 
  "/>
<path clip-path="url(#clip192)" d="
M1742.65 1240.94 L1742.65 1464 L1765.49 1464 L1765.49 1240.94 L1742.65 1240.94 L1742.65 1240.94  Z
  " fill="#009af9" fill-rule="evenodd" fill-opacity="1"/>
<polyline clip-path="url(#clip192)" style="stroke:#009af9; stroke-linecap:butt; stroke-linejoin:round; stroke-width:4; stroke-opacity:1; fill:none" points="
  1742.65,1240.94 1742.65,1464 1765.49,1464 1765.49,1240.94 1742.65,1240.94 
  "/>
<path clip-path="url(#clip192)" d="
M1765.49 1283.9 L1765.49 1464 L1788.34 1464 L1788.34 1283.9 L1765.49 1283.9 L1765.49 1283.9  Z
  " fill="#009af9" fill-rule="evenodd" fill-opacity="1"/>
<polyline clip-path="url(#clip192)" style="stroke:#009af9; stroke-linecap:butt; stroke-linejoin:round; stroke-width:4; stroke-opacity:1; fill:none" points="
  1765.49,1283.9 1765.49,1464 1788.34,1464 1788.34,1283.9 1765.49,1283.9 
  "/>
<path clip-path="url(#clip192)" d="
M1788.34 1333.88 L1788.34 1464 L1811.18 1464 L1811.18 1333.88 L1788.34 1333.88 L1788.34 1333.88  Z
  " fill="#009af9" fill-rule="evenodd" fill-opacity="1"/>
<polyline clip-path="url(#clip192)" style="stroke:#009af9; stroke-linecap:butt; stroke-linejoin:round; stroke-width:4; stroke-opacity:1; fill:none" points="
  1788.34,1333.88 1788.34,1464 1811.18,1464 1811.18,1333.88 1788.34,1333.88 
  "/>
<path clip-path="url(#clip192)" d="
M1811.18 1361.26 L1811.18 1464 L1834.03 1464 L1834.03 1361.26 L1811.18 1361.26 L1811.18 1361.26  Z
  " fill="#009af9" fill-rule="evenodd" fill-opacity="1"/>
<polyline clip-path="url(#clip192)" style="stroke:#009af9; stroke-linecap:butt; stroke-linejoin:round; stroke-width:4; stroke-opacity:1; fill:none" points="
  1811.18,1361.26 1811.18,1464 1834.03,1464 1834.03,1361.26 1811.18,1361.26 
  "/>
<path clip-path="url(#clip192)" d="
M1834.03 1389.39 L1834.03 1464 L1856.87 1464 L1856.87 1389.39 L1834.03 1389.39 L1834.03 1389.39  Z
  " fill="#009af9" fill-rule="evenodd" fill-opacity="1"/>
<polyline clip-path="url(#clip192)" style="stroke:#009af9; stroke-linecap:butt; stroke-linejoin:round; stroke-width:4; stroke-opacity:1; fill:none" points="
  1834.03,1389.39 1834.03,1464 1856.87,1464 1856.87,1389.39 1834.03,1389.39 
  "/>
<path clip-path="url(#clip192)" d="
M1856.87 1405.47 L1856.87 1464 L1879.71 1464 L1879.71 1405.47 L1856.87 1405.47 L1856.87 1405.47  Z
  " fill="#009af9" fill-rule="evenodd" fill-opacity="1"/>
<polyline clip-path="url(#clip192)" style="stroke:#009af9; stroke-linecap:butt; stroke-linejoin:round; stroke-width:4; stroke-opacity:1; fill:none" points="
  1856.87,1405.47 1856.87,1464 1879.71,1464 1879.71,1405.47 1856.87,1405.47 
  "/>
<path clip-path="url(#clip192)" d="
M1879.71 1419.79 L1879.71 1464 L1902.56 1464 L1902.56 1419.79 L1879.71 1419.79 L1879.71 1419.79  Z
  " fill="#009af9" fill-rule="evenodd" fill-opacity="1"/>
<polyline clip-path="url(#clip192)" style="stroke:#009af9; stroke-linecap:butt; stroke-linejoin:round; stroke-width:4; stroke-opacity:1; fill:none" points="
  1879.71,1419.79 1879.71,1464 1902.56,1464 1902.56,1419.79 1879.71,1419.79 
  "/>
<path clip-path="url(#clip192)" d="
M1902.56 1434.86 L1902.56 1464 L1925.4 1464 L1925.4 1434.86 L1902.56 1434.86 L1902.56 1434.86  Z
  " fill="#009af9" fill-rule="evenodd" fill-opacity="1"/>
<polyline clip-path="url(#clip192)" style="stroke:#009af9; stroke-linecap:butt; stroke-linejoin:round; stroke-width:4; stroke-opacity:1; fill:none" points="
  1902.56,1434.86 1902.56,1464 1925.4,1464 1925.4,1434.86 1902.56,1434.86 
  "/>
<path clip-path="url(#clip192)" d="
M1925.4 1445.66 L1925.4 1464 L1948.25 1464 L1948.25 1445.66 L1925.4 1445.66 L1925.4 1445.66  Z
  " fill="#009af9" fill-rule="evenodd" fill-opacity="1"/>
<polyline clip-path="url(#clip192)" style="stroke:#009af9; stroke-linecap:butt; stroke-linejoin:round; stroke-width:4; stroke-opacity:1; fill:none" points="
  1925.4,1445.66 1925.4,1464 1948.25,1464 1948.25,1445.66 1925.4,1445.66 
  "/>
<path clip-path="url(#clip192)" d="
M1948.25 1449.18 L1948.25 1464 L1971.09 1464 L1971.09 1449.18 L1948.25 1449.18 L1948.25 1449.18  Z
  " fill="#009af9" fill-rule="evenodd" fill-opacity="1"/>
<polyline clip-path="url(#clip192)" style="stroke:#009af9; stroke-linecap:butt; stroke-linejoin:round; stroke-width:4; stroke-opacity:1; fill:none" points="
  1948.25,1449.18 1948.25,1464 1971.09,1464 1971.09,1449.18 1948.25,1449.18 
  "/>
<path clip-path="url(#clip192)" d="
M1971.09 1454.2 L1971.09 1464 L1993.93 1464 L1993.93 1454.2 L1971.09 1454.2 L1971.09 1454.2  Z
  " fill="#009af9" fill-rule="evenodd" fill-opacity="1"/>
<polyline clip-path="url(#clip192)" style="stroke:#009af9; stroke-linecap:butt; stroke-linejoin:round; stroke-width:4; stroke-opacity:1; fill:none" points="
  1971.09,1454.2 1971.09,1464 1993.93,1464 1993.93,1454.2 1971.09,1454.2 
  "/>
<path clip-path="url(#clip192)" d="
M1993.93 1455.2 L1993.93 1464 L2016.78 1464 L2016.78 1455.2 L1993.93 1455.2 L1993.93 1455.2  Z
  " fill="#009af9" fill-rule="evenodd" fill-opacity="1"/>
<polyline clip-path="url(#clip192)" style="stroke:#009af9; stroke-linecap:butt; stroke-linejoin:round; stroke-width:4; stroke-opacity:1; fill:none" points="
  1993.93,1455.2 1993.93,1464 2016.78,1464 2016.78,1455.2 1993.93,1455.2 
  "/>
<path clip-path="url(#clip192)" d="
M2016.78 1458.22 L2016.78 1464 L2039.62 1464 L2039.62 1458.22 L2016.78 1458.22 L2016.78 1458.22  Z
  " fill="#009af9" fill-rule="evenodd" fill-opacity="1"/>
<polyline clip-path="url(#clip192)" style="stroke:#009af9; stroke-linecap:butt; stroke-linejoin:round; stroke-width:4; stroke-opacity:1; fill:none" points="
  2016.78,1458.22 2016.78,1464 2039.62,1464 2039.62,1458.22 2016.78,1458.22 
  "/>
<path clip-path="url(#clip192)" d="
M2039.62 1461.73 L2039.62 1464 L2062.46 1464 L2062.46 1461.73 L2039.62 1461.73 L2039.62 1461.73  Z
  " fill="#009af9" fill-rule="evenodd" fill-opacity="1"/>
<polyline clip-path="url(#clip192)" style="stroke:#009af9; stroke-linecap:butt; stroke-linejoin:round; stroke-width:4; stroke-opacity:1; fill:none" points="
  2039.62,1461.73 2039.62,1464 2062.46,1464 2062.46,1461.73 2039.62,1461.73 
  "/>
<path clip-path="url(#clip192)" d="
M2062.46 1462.49 L2062.46 1464 L2085.31 1464 L2085.31 1462.49 L2062.46 1462.49 L2062.46 1462.49  Z
  " fill="#009af9" fill-rule="evenodd" fill-opacity="1"/>
<polyline clip-path="url(#clip192)" style="stroke:#009af9; stroke-linecap:butt; stroke-linejoin:round; stroke-width:4; stroke-opacity:1; fill:none" points="
  2062.46,1462.49 2062.46,1464 2085.31,1464 2085.31,1462.49 2062.46,1462.49 
  "/>
<path clip-path="url(#clip192)" d="
M2085.31 1462.74 L2085.31 1464 L2108.15 1464 L2108.15 1462.74 L2085.31 1462.74 L2085.31 1462.74  Z
  " fill="#009af9" fill-rule="evenodd" fill-opacity="1"/>
<polyline clip-path="url(#clip192)" style="stroke:#009af9; stroke-linecap:butt; stroke-linejoin:round; stroke-width:4; stroke-opacity:1; fill:none" points="
  2085.31,1462.74 2085.31,1464 2108.15,1464 2108.15,1462.74 2085.31,1462.74 
  "/>
<path clip-path="url(#clip192)" d="
M2108.15 1464 L2108.15 1464 L2131 1464 L2131 1464 L2108.15 1464 L2108.15 1464  Z
  " fill="#009af9" fill-rule="evenodd" fill-opacity="1"/>
<polyline clip-path="url(#clip192)" style="stroke:#009af9; stroke-linecap:butt; stroke-linejoin:round; stroke-width:4; stroke-opacity:1; fill:none" points="
  2108.15,1464 2108.15,1464 2131,1464 2108.15,1464 
  "/>
<path clip-path="url(#clip192)" d="
M2131 1462.74 L2131 1464 L2153.84 1464 L2153.84 1462.74 L2131 1462.74 L2131 1462.74  Z
  " fill="#009af9" fill-rule="evenodd" fill-opacity="1"/>
<polyline clip-path="url(#clip192)" style="stroke:#009af9; stroke-linecap:butt; stroke-linejoin:round; stroke-width:4; stroke-opacity:1; fill:none" points="
  2131,1462.74 2131,1464 2153.84,1464 2153.84,1462.74 2131,1462.74 
  "/>
<path clip-path="url(#clip192)" d="
M2153.84 1464 L2153.84 1464 L2176.68 1464 L2176.68 1464 L2153.84 1464 L2153.84 1464  Z
  " fill="#009af9" fill-rule="evenodd" fill-opacity="1"/>
<polyline clip-path="url(#clip192)" style="stroke:#009af9; stroke-linecap:butt; stroke-linejoin:round; stroke-width:4; stroke-opacity:1; fill:none" points="
  2153.84,1464 2153.84,1464 2176.68,1464 2153.84,1464 
  "/>
<path clip-path="url(#clip192)" d="
M2176.68 1463.24 L2176.68 1464 L2199.53 1464 L2199.53 1463.24 L2176.68 1463.24 L2176.68 1463.24  Z
  " fill="#009af9" fill-rule="evenodd" fill-opacity="1"/>
<polyline clip-path="url(#clip192)" style="stroke:#009af9; stroke-linecap:butt; stroke-linejoin:round; stroke-width:4; stroke-opacity:1; fill:none" points="
  2176.68,1463.24 2176.68,1464 2199.53,1464 2199.53,1463.24 2176.68,1463.24 
  "/>
<path clip-path="url(#clip192)" d="
M2199.53 1463.74 L2199.53 1464 L2222.37 1464 L2222.37 1463.74 L2199.53 1463.74 L2199.53 1463.74  Z
  " fill="#009af9" fill-rule="evenodd" fill-opacity="1"/>
<polyline clip-path="url(#clip192)" style="stroke:#009af9; stroke-linecap:butt; stroke-linejoin:round; stroke-width:4; stroke-opacity:1; fill:none" points="
  2199.53,1463.74 2199.53,1464 2222.37,1464 2222.37,1463.74 2199.53,1463.74 
  "/>
<path clip-path="url(#clip192)" d="
M2222.37 1463.74 L2222.37 1464 L2245.22 1464 L2245.22 1463.74 L2222.37 1463.74 L2222.37 1463.74  Z
  " fill="#009af9" fill-rule="evenodd" fill-opacity="1"/>
<polyline clip-path="url(#clip192)" style="stroke:#009af9; stroke-linecap:butt; stroke-linejoin:round; stroke-width:4; stroke-opacity:1; fill:none" points="
  2222.37,1463.74 2222.37,1464 2245.22,1464 2245.22,1463.74 2222.37,1463.74 
  "/>
<polyline clip-path="url(#clip192)" style="stroke:#e26f46; stroke-linecap:butt; stroke-linejoin:round; stroke-width:12; stroke-opacity:1; fill:none" points="
  166.42,1464 168.704,1464 170.989,1464 173.273,1464 175.557,1464 177.842,1464 180.126,1464 182.411,1464 184.695,1464 186.979,1464 
  189.264,1464 191.548,1464 193.833,1464 196.117,1464 198.401,1464 200.686,1464 202.97,1464 205.255,1464 207.539,1464 209.823,1464 
  212.108,1464 214.392,1464 216.676,1464 218.961,1464 221.245,1464 223.53,1464 225.814,1464 228.098,1464 230.383,1464 232.667,1464 
  234.952,1464 237.236,1464 239.52,1464 241.805,1464 244.089,1464 246.374,1464 248.658,1464 250.942,1464 253.227,1464 255.511,1464 
  257.795,1464 260.08,1464 262.364,1464 264.649,1464 266.933,1464 269.217,1464 271.502,1464 273.786,1464 276.071,1464 278.355,1464 
  280.639,1464 282.924,1464 285.208,1464 287.493,1464 289.777,1464 292.061,1464 294.346,1464 296.63,1464 298.915,1464 301.199,1464 
  303.483,1464 305.768,1464 308.052,1464 310.336,1464 312.621,1464 314.905,1464 317.19,1464 319.474,1464 321.758,1464 324.043,1464 
  326.327,1464 328.612,1464 330.896,1464 333.18,1464 335.465,1464 337.749,1464 340.034,1464 342.318,1464 344.602,1464 346.887,1464 
  349.171,1464 351.456,1464 353.74,1464 356.024,1464 358.309,1464 360.593,1464 362.877,1464 365.162,1464 367.446,1464 369.731,1464 
  372.015,1464 374.299,1464 376.584,1464 378.868,1464 381.153,1464 383.437,1464 385.721,1464 388.006,1464 390.29,1464 392.575,1464 
  394.859,1464 397.143,1464 399.428,1464 401.712,1464 403.997,1464 406.281,1464 408.565,1464 410.85,1464 413.134,1464 415.418,1464 
  417.703,1464 419.987,1464 422.272,1464 424.556,1464 426.84,1464 429.125,1464 431.409,1464 433.694,1464 435.978,1464 438.262,1464 
  440.547,1464 442.831,1464 445.116,1464 447.4,1464 449.684,1464 451.969,1464 454.253,1464 456.538,1464 458.822,1464 461.106,1464 
  463.391,1464 465.675,1464 467.959,1464 470.244,1464 472.528,1464 474.813,1464 477.097,1464 479.381,1463.99 481.666,1463.99 483.95,1463.99 
  486.235,1463.99 488.519,1463.99 490.803,1463.99 493.088,1463.99 495.372,1463.99 497.657,1463.99 499.941,1463.99 502.225,1463.99 504.51,1463.99 506.794,1463.99 
  509.079,1463.99 511.363,1463.99 513.647,1463.99 515.932,1463.99 518.216,1463.99 520.5,1463.99 522.785,1463.99 525.069,1463.99 527.354,1463.99 529.638,1463.99 
  531.922,1463.99 534.207,1463.99 536.491,1463.99 538.776,1463.99 541.06,1463.99 543.344,1463.99 545.629,1463.99 547.913,1463.99 550.198,1463.99 552.482,1463.99 
  554.766,1463.99 557.051,1463.99 559.335,1463.99 561.62,1463.99 563.904,1463.99 566.188,1463.99 568.473,1463.99 570.757,1463.99 573.041,1463.99 575.326,1463.99 
  577.61,1463.99 579.895,1463.99 582.179,1463.99 584.463,1463.99 586.748,1463.99 589.032,1463.99 591.317,1463.99 593.601,1463.99 595.885,1463.99 598.17,1463.99 
  600.454,1463.98 602.739,1463.98 605.023,1463.98 607.307,1463.98 609.592,1463.98 611.876,1463.98 614.161,1463.98 616.445,1463.98 618.729,1463.98 621.014,1463.98 
  623.298,1463.98 625.582,1463.97 627.867,1463.97 630.151,1463.97 632.436,1463.97 634.72,1463.97 637.004,1463.97 639.289,1463.96 641.573,1463.96 643.858,1463.96 
  646.142,1463.96 648.426,1463.96 650.711,1463.95 652.995,1463.95 655.28,1463.95 657.564,1463.95 659.848,1463.94 662.133,1463.94 664.417,1463.94 666.702,1463.93 
  668.986,1463.93 671.27,1463.92 673.555,1463.92 675.839,1463.91 678.123,1463.91 680.408,1463.9 682.692,1463.9 684.977,1463.89 687.261,1463.89 689.545,1463.88 
  691.83,1463.87 694.114,1463.87 696.399,1463.86 698.683,1463.85 700.967,1463.84 703.252,1463.83 705.536,1463.82 707.821,1463.81 710.105,1463.8 712.389,1463.79 
  714.674,1463.78 716.958,1463.77 719.243,1463.75 721.527,1463.74 723.811,1463.72 726.096,1463.71 728.38,1463.69 730.664,1463.67 732.949,1463.66 735.233,1463.64 
  737.518,1463.62 739.802,1463.6 742.086,1463.57 744.371,1463.55 746.655,1463.53 748.94,1463.5 751.224,1463.47 753.508,1463.44 755.793,1463.41 758.077,1463.38 
  760.362,1463.35 762.646,1463.31 764.93,1463.28 767.215,1463.24 769.499,1463.2 771.784,1463.16 774.068,1463.11 776.352,1463.07 778.637,1463.02 780.921,1462.97 
  783.205,1462.91 785.49,1462.85 787.774,1462.8 790.059,1462.73 792.343,1462.67 794.627,1462.6 796.912,1462.53 799.196,1462.45 801.481,1462.38 803.765,1462.29 
  806.049,1462.21 808.334,1462.12 810.618,1462.02 812.903,1461.93 815.187,1461.82 817.471,1461.72 819.756,1461.6 822.04,1461.49 824.325,1461.36 826.609,1461.24 
  828.893,1461.1 831.178,1460.96 833.462,1460.82 835.746,1460.66 838.031,1460.51 840.315,1460.34 842.6,1460.17 844.884,1459.99 847.168,1459.8 849.453,1459.6 
  851.737,1459.4 854.022,1459.18 856.306,1458.96 858.59,1458.73 860.875,1458.49 863.159,1458.24 865.444,1457.97 867.728,1457.7 870.012,1457.42 872.297,1457.12 
  874.581,1456.81 876.866,1456.5 879.15,1456.16 881.434,1455.82 883.719,1455.46 886.003,1455.08 888.287,1454.7 890.572,1454.29 892.856,1453.87 895.141,1453.44 
  897.425,1452.99 899.709,1452.52 901.994,1452.03 904.278,1451.53 906.563,1451 908.847,1450.46 911.131,1449.89 913.416,1449.31 915.7,1448.7 917.985,1448.07 
  920.269,1447.42 922.553,1446.75 924.838,1446.05 927.122,1445.33 929.407,1444.58 931.691,1443.8 933.975,1443 936.26,1442.17 938.544,1441.31 940.828,1440.42 
  943.113,1439.5 945.397,1438.54 947.682,1437.56 949.966,1436.54 952.25,1435.49 954.535,1434.41 956.819,1433.29 959.104,1432.13 961.388,1430.94 963.672,1429.7 
  965.957,1428.43 968.241,1427.12 970.526,1425.76 972.81,1424.36 975.094,1422.92 977.379,1421.43 979.663,1419.9 981.948,1418.32 984.232,1416.7 986.516,1415.02 
  988.801,1413.3 991.085,1411.52 993.369,1409.69 995.654,1407.81 997.938,1405.87 1000.22,1403.87 1002.51,1401.82 1004.79,1399.71 1007.08,1397.54 1009.36,1395.31 
  1011.64,1393.02 1013.93,1390.67 1016.21,1388.25 1018.5,1385.77 1020.78,1383.21 1023.07,1380.59 1025.35,1377.91 1027.64,1375.15 1029.92,1372.32 1032.2,1369.41 
  1034.49,1366.44 1036.77,1363.38 1039.06,1360.25 1041.34,1357.04 1043.63,1353.76 1045.91,1350.39 1048.19,1346.94 1050.48,1343.41 1052.76,1339.79 1055.05,1336.09 
  1057.33,1332.3 1059.62,1328.43 1061.9,1324.46 1064.19,1320.41 1066.47,1316.27 1068.75,1312.03 1071.04,1307.7 1073.32,1303.28 1075.61,1298.76 1077.89,1294.14 
  1080.18,1289.43 1082.46,1284.62 1084.75,1279.71 1087.03,1274.7 1089.31,1269.59 1091.6,1264.38 1093.88,1259.07 1096.17,1253.65 1098.45,1248.13 1100.74,1242.5 
  1103.02,1236.77 1105.3,1230.94 1107.59,1224.99 1109.87,1218.94 1112.16,1212.79 1114.44,1206.52 1116.73,1200.15 1119.01,1193.66 1121.3,1187.07 1123.58,1180.37 
  1125.86,1173.56 1128.15,1166.64 1130.43,1159.61 1132.72,1152.47 1135,1145.23 1137.29,1137.87 1139.57,1130.4 1141.85,1122.83 1144.14,1115.14 1146.42,1107.35 
  1148.71,1099.45 1150.99,1091.44 1153.28,1083.33 1155.56,1075.11 1157.85,1066.78 1160.13,1058.35 1162.41,1049.82 1164.7,1041.18 1166.98,1032.45 1169.27,1023.61 
  1171.55,1014.67 1173.84,1005.64 1176.12,996.505 1178.41,987.278 1180.69,977.957 1182.97,968.544 1185.26,959.04 1187.54,949.448 1189.83,939.769 1192.11,930.004 
  1194.4,920.157 1196.68,910.229 1198.96,900.222 1201.25,890.139 1203.53,879.982 1205.82,869.752 1208.1,859.454 1210.39,849.089 1212.67,838.66 1214.96,828.17 
  1217.24,817.621 1219.52,807.017 1221.81,796.36 1224.09,785.653 1226.38,774.9 1228.66,764.104 1230.95,753.269 1233.23,742.396 1235.51,731.491 1237.8,720.555 
  1240.08,709.594 1242.37,698.61 1244.65,687.608 1246.94,676.59 1249.22,665.562 1251.51,654.526 1253.79,643.487 1256.07,632.448 1258.36,621.414 1260.64,610.389 
  1262.93,599.377 1265.21,588.382 1267.5,577.409 1269.78,566.461 1272.07,555.543 1274.35,544.659 1276.63,533.815 1278.92,523.013 1281.2,512.259 1283.49,501.557 
  1285.77,490.912 1288.06,480.328 1290.34,469.809 1292.62,459.361 1294.91,448.987 1297.19,438.693 1299.48,428.483 1301.76,418.361 1304.05,408.332 1306.33,398.401 
  1308.62,388.572 1310.9,378.849 1313.18,369.238 1315.47,359.742 1317.75,350.367 1320.04,341.116 1322.32,331.994 1324.61,323.005 1326.89,314.154 1329.18,305.446 
  1331.46,296.883 1333.74,288.471 1336.03,280.213 1338.31,272.114 1340.6,264.178 1342.88,256.409 1345.17,248.81 1347.45,241.386 1349.73,234.14 1352.02,227.076 
  1354.3,220.198 1356.59,213.509 1358.87,207.012 1361.16,200.712 1363.44,194.61 1365.73,188.711 1368.01,183.018 1370.29,177.533 1372.58,172.259 1374.86,167.2 
  1377.15,162.357 1379.43,157.734 1381.72,153.333 1384,149.156 1386.28,145.206 1388.57,141.484 1390.85,137.992 1393.14,134.734 1395.42,131.709 1397.71,128.921 
  1399.99,126.369 1402.28,124.057 1404.56,121.985 1406.84,120.153 1409.13,118.564 1411.41,117.218 1413.7,116.116 1415.98,115.258 1418.27,114.645 1420.55,114.276 
  1422.84,114.154 1425.12,114.276 1427.4,114.645 1429.69,115.258 1431.97,116.116 1434.26,117.218 1436.54,118.564 1438.83,120.153 1441.11,121.985 1443.39,124.057 
  1445.68,126.369 1447.96,128.921 1450.25,131.709 1452.53,134.734 1454.82,137.992 1457.1,141.484 1459.39,145.206 1461.67,149.156 1463.95,153.333 1466.24,157.734 
  1468.52,162.357 1470.81,167.2 1473.09,172.259 1475.38,177.533 1477.66,183.018 1479.94,188.711 1482.23,194.61 1484.51,200.712 1486.8,207.012 1489.08,213.509 
  1491.37,220.198 1493.65,227.076 1495.94,234.14 1498.22,241.386 1500.5,248.81 1502.79,256.409 1505.07,264.178 1507.36,272.114 1509.64,280.213 1511.93,288.471 
  1514.21,296.883 1516.5,305.446 1518.78,314.154 1521.06,323.005 1523.35,331.994 1525.63,341.116 1527.92,350.367 1530.2,359.742 1532.49,369.238 1534.77,378.849 
  1537.05,388.572 1539.34,398.401 1541.62,408.332 1543.91,418.361 1546.19,428.483 1548.48,438.693 1550.76,448.987 1553.05,459.361 1555.33,469.809 1557.61,480.328 
  1559.9,490.912 1562.18,501.557 1564.47,512.259 1566.75,523.013 1569.04,533.815 1571.32,544.659 1573.6,555.543 1575.89,566.461 1578.17,577.409 1580.46,588.382 
  1582.74,599.377 1585.03,610.389 1587.31,621.414 1589.6,632.448 1591.88,643.487 1594.16,654.526 1596.45,665.562 1598.73,676.59 1601.02,687.608 1603.3,698.61 
  1605.59,709.594 1607.87,720.555 1610.16,731.491 1612.44,742.396 1614.72,753.269 1617.01,764.104 1619.29,774.9 1621.58,785.653 1623.86,796.36 1626.15,807.017 
  1628.43,817.621 1630.71,828.17 1633,838.66 1635.28,849.089 1637.57,859.454 1639.85,869.752 1642.14,879.982 1644.42,890.139 1646.71,900.222 1648.99,910.229 
  1651.27,920.157 1653.56,930.004 1655.84,939.769 1658.13,949.448 1660.41,959.04 1662.7,968.544 1664.98,977.957 1667.26,987.278 1669.55,996.505 1671.83,1005.64 
  1674.12,1014.67 1676.4,1023.61 1678.69,1032.45 1680.97,1041.18 1683.26,1049.82 1685.54,1058.35 1687.82,1066.78 1690.11,1075.11 1692.39,1083.33 1694.68,1091.44 
  1696.96,1099.45 1699.25,1107.35 1701.53,1115.14 1703.82,1122.83 1706.1,1130.4 1708.38,1137.87 1710.67,1145.23 1712.95,1152.47 1715.24,1159.61 1717.52,1166.64 
  1719.81,1173.56 1722.09,1180.37 1724.37,1187.07 1726.66,1193.66 1728.94,1200.15 1731.23,1206.52 1733.51,1212.79 1735.8,1218.94 1738.08,1224.99 1740.37,1230.94 
  1742.65,1236.77 1744.93,1242.5 1747.22,1248.13 1749.5,1253.65 1751.79,1259.07 1754.07,1264.38 1756.36,1269.59 1758.64,1274.7 1760.92,1279.71 1763.21,1284.62 
  1765.49,1289.43 1767.78,1294.14 1770.06,1298.76 1772.35,1303.28 1774.63,1307.7 1776.92,1312.03 1779.2,1316.27 1781.48,1320.41 1783.77,1324.46 1786.05,1328.43 
  1788.34,1332.3 1790.62,1336.09 1792.91,1339.79 1795.19,1343.41 1797.48,1346.94 1799.76,1350.39 1802.04,1353.76 1804.33,1357.04 1806.61,1360.25 1808.9,1363.38 
  1811.18,1366.44 1813.47,1369.41 1815.75,1372.32 1818.03,1375.15 1820.32,1377.91 1822.6,1380.59 1824.89,1383.21 1827.17,1385.77 1829.46,1388.25 1831.74,1390.67 
  1834.03,1393.02 1836.31,1395.31 1838.59,1397.54 1840.88,1399.71 1843.16,1401.82 1845.45,1403.87 1847.73,1405.87 1850.02,1407.81 1852.3,1409.69 1854.58,1411.52 
  1856.87,1413.3 1859.15,1415.02 1861.44,1416.7 1863.72,1418.32 1866.01,1419.9 1868.29,1421.43 1870.58,1422.92 1872.86,1424.36 1875.14,1425.76 1877.43,1427.12 
  1879.71,1428.43 1882,1429.7 1884.28,1430.94 1886.57,1432.13 1888.85,1433.29 1891.14,1434.41 1893.42,1435.49 1895.7,1436.54 1897.99,1437.56 1900.27,1438.54 
  1902.56,1439.5 1904.84,1440.42 1907.13,1441.31 1909.41,1442.17 1911.69,1443 1913.98,1443.8 1916.26,1444.58 1918.55,1445.33 1920.83,1446.05 1923.12,1446.75 
  1925.4,1447.42 1927.69,1448.07 1929.97,1448.7 1932.25,1449.31 1934.54,1449.89 1936.82,1450.46 1939.11,1451 1941.39,1451.53 1943.68,1452.03 1945.96,1452.52 
  1948.25,1452.99 1950.53,1453.44 1952.81,1453.87 1955.1,1454.29 1957.38,1454.7 1959.67,1455.08 1961.95,1455.46 1964.24,1455.82 1966.52,1456.16 1968.8,1456.5 
  1971.09,1456.81 1973.37,1457.12 1975.66,1457.42 1977.94,1457.7 1980.23,1457.97 1982.51,1458.24 1984.8,1458.49 1987.08,1458.73 1989.36,1458.96 1991.65,1459.18 
  1993.93,1459.4 1996.22,1459.6 1998.5,1459.8 2000.79,1459.99 2003.07,1460.17 2005.35,1460.34 2007.64,1460.51 2009.92,1460.66 2012.21,1460.82 2014.49,1460.96 
  2016.78,1461.1 2019.06,1461.24 2021.35,1461.36 2023.63,1461.49 2025.91,1461.6 2028.2,1461.72 2030.48,1461.82 2032.77,1461.93 2035.05,1462.02 2037.34,1462.12 
  2039.62,1462.21 2041.91,1462.29 2044.19,1462.38 2046.47,1462.45 2048.76,1462.53 2051.04,1462.6 2053.33,1462.67 2055.61,1462.73 2057.9,1462.8 2060.18,1462.85 
  2062.46,1462.91 2064.75,1462.97 2067.03,1463.02 2069.32,1463.07 2071.6,1463.11 2073.89,1463.16 2076.17,1463.2 2078.46,1463.24 2080.74,1463.28 2083.02,1463.31 
  2085.31,1463.35 2087.59,1463.38 2089.88,1463.41 2092.16,1463.44 2094.45,1463.47 2096.73,1463.5 2099.01,1463.53 2101.3,1463.55 2103.58,1463.57 2105.87,1463.6 
  2108.15,1463.62 2110.44,1463.64 2112.72,1463.66 2115.01,1463.67 2117.29,1463.69 2119.57,1463.71 2121.86,1463.72 2124.14,1463.74 2126.43,1463.75 2128.71,1463.77 
  2131,1463.78 2133.28,1463.79 2135.57,1463.8 2137.85,1463.81 2140.13,1463.82 2142.42,1463.83 2144.7,1463.84 2146.99,1463.85 2149.27,1463.86 2151.56,1463.87 
  2153.84,1463.87 2156.12,1463.88 2158.41,1463.89 2160.69,1463.89 2162.98,1463.9 2165.26,1463.9 2167.55,1463.91 2169.83,1463.91 2172.12,1463.92 2174.4,1463.92 
  2176.68,1463.93 2178.97,1463.93 2181.25,1463.94 2183.54,1463.94 2185.82,1463.94 2188.11,1463.95 2190.39,1463.95 2192.67,1463.95 2194.96,1463.95 2197.24,1463.96 
  2199.53,1463.96 2201.81,1463.96 2204.1,1463.96 2206.38,1463.96 2208.67,1463.97 2210.95,1463.97 2213.23,1463.97 2215.52,1463.97 2217.8,1463.97 2220.09,1463.97 
  2222.37,1463.98 
  "/>
<polyline clip-path="url(#clip192)" style="stroke:#3da44d; stroke-linecap:butt; stroke-linejoin:round; stroke-width:12; stroke-opacity:1; fill:none" points="
  166.42,1464 168.704,1464 170.989,1464 173.273,1464 175.557,1464 177.842,1464 180.126,1464 182.411,1464 184.695,1464 186.979,1464 
  189.264,1464 191.548,1464 193.833,1464 196.117,1464 198.401,1464 200.686,1464 202.97,1464 205.255,1464 207.539,1464 209.823,1464 
  212.108,1464 214.392,1464 216.676,1464 218.961,1464 221.245,1464 223.53,1464 225.814,1464 228.098,1464 230.383,1464 232.667,1464 
  234.952,1464 237.236,1464 239.52,1464 241.805,1464 244.089,1464 246.374,1464 248.658,1464 250.942,1464 253.227,1464 255.511,1464 
  257.795,1464 260.08,1464 262.364,1464 264.649,1464 266.933,1464 269.217,1464 271.502,1464 273.786,1464 276.071,1464 278.355,1464 
  280.639,1464 282.924,1464 285.208,1464 287.493,1464 289.777,1464 292.061,1464 294.346,1464 296.63,1464 298.915,1464 301.199,1464 
  303.483,1464 305.768,1464 308.052,1464 310.336,1464 312.621,1464 314.905,1464 317.19,1464 319.474,1464 321.758,1464 324.043,1464 
  326.327,1464 328.612,1464 330.896,1464 333.18,1464 335.465,1464 337.749,1464 340.034,1464 342.318,1464 344.602,1464 346.887,1464 
  349.171,1464 351.456,1464 353.74,1464 356.024,1464 358.309,1464 360.593,1464 362.877,1464 365.162,1464 367.446,1464 369.731,1464 
  372.015,1464 374.299,1464 376.584,1464 378.868,1464 381.153,1464 383.437,1464 385.721,1464 388.006,1464 390.29,1464 392.575,1464 
  394.859,1464 397.143,1464 399.428,1464 401.712,1464 403.997,1464 406.281,1464 408.565,1464 410.85,1464 413.134,1464 415.418,1464 
  417.703,1464 419.987,1464 422.272,1464 424.556,1464 426.84,1464 429.125,1464 431.409,1464 433.694,1464 435.978,1464 438.262,1464 
  440.547,1464 442.831,1464 445.116,1464 447.4,1464 449.684,1464 451.969,1464 454.253,1464 456.538,1464 458.822,1464 461.106,1464 
  463.391,1464 465.675,1464 467.959,1464 470.244,1464 472.528,1464 474.813,1464 477.097,1464 479.381,1464 481.666,1464 483.95,1464 
  486.235,1464 488.519,1464 490.803,1464 493.088,1464 495.372,1464 497.657,1464 499.941,1464 502.225,1464 504.51,1464 506.794,1464 
  509.079,1464 511.363,1464 513.647,1464 515.932,1464 518.216,1464 520.5,1464 522.785,1464 525.069,1464 527.354,1464 529.638,1464 
  531.922,1464 534.207,1464 536.491,1464 538.776,1464 541.06,1464 543.344,1464 545.629,1464 547.913,1464 550.198,1464 552.482,1464 
  554.766,1464 557.051,1464 559.335,1464 561.62,1464 563.904,1464 566.188,1464 568.473,1464 570.757,1464 573.041,1464 575.326,1464 
  577.61,1464 579.895,1464 582.179,1464 584.463,1464 586.748,1464 589.032,1464 591.317,1464 593.601,1464 595.885,1463.99 598.17,1463.99 
  600.454,1463.99 602.739,1463.99 605.023,1463.99 607.307,1463.99 609.592,1463.99 611.876,1463.99 614.161,1463.99 616.445,1463.99 618.729,1463.99 621.014,1463.99 
  623.298,1463.99 625.582,1463.99 627.867,1463.99 630.151,1463.99 632.436,1463.99 634.72,1463.99 637.004,1463.99 639.289,1463.99 641.573,1463.99 643.858,1463.99 
  646.142,1463.99 648.426,1463.99 650.711,1463.99 652.995,1463.99 655.28,1463.99 657.564,1463.99 659.848,1463.99 662.133,1463.99 664.417,1463.99 666.702,1463.99 
  668.986,1463.99 671.27,1463.99 673.555,1463.99 675.839,1463.99 678.123,1463.99 680.408,1463.99 682.692,1463.99 684.977,1463.98 687.261,1463.98 689.545,1463.98 
  691.83,1463.98 694.114,1463.98 696.399,1463.98 698.683,1463.98 700.967,1463.98 703.252,1463.97 705.536,1463.97 707.821,1463.97 710.105,1463.97 712.389,1463.97 
  714.674,1463.96 716.958,1463.96 719.243,1463.96 721.527,1463.96 723.811,1463.95 726.096,1463.95 728.38,1463.95 730.664,1463.94 732.949,1463.94 735.233,1463.93 
  737.518,1463.93 739.802,1463.92 742.086,1463.92 744.371,1463.91 746.655,1463.9 748.94,1463.9 751.224,1463.89 753.508,1463.88 755.793,1463.87 758.077,1463.86 
  760.362,1463.85 762.646,1463.84 764.93,1463.83 767.215,1463.82 769.499,1463.8 771.784,1463.79 774.068,1463.77 776.352,1463.76 778.637,1463.74 780.921,1463.72 
  783.205,1463.7 785.49,1463.68 787.774,1463.66 790.059,1463.64 792.343,1463.61 794.627,1463.58 796.912,1463.55 799.196,1463.52 801.481,1463.49 803.765,1463.46 
  806.049,1463.42 808.334,1463.38 810.618,1463.34 812.903,1463.3 815.187,1463.25 817.471,1463.2 819.756,1463.15 822.04,1463.09 824.325,1463.03 826.609,1462.97 
  828.893,1462.91 831.178,1462.84 833.462,1462.76 835.746,1462.68 838.031,1462.6 840.315,1462.51 842.6,1462.42 844.884,1462.32 847.168,1462.22 849.453,1462.11 
  851.737,1462 854.022,1461.88 856.306,1461.75 858.59,1461.61 860.875,1461.47 863.159,1461.32 865.444,1461.17 867.728,1461 870.012,1460.83 872.297,1460.64 
  874.581,1460.45 876.866,1460.25 879.15,1460.04 881.434,1459.81 883.719,1459.58 886.003,1459.33 888.287,1459.07 890.572,1458.8 892.856,1458.51 895.141,1458.22 
  897.425,1457.9 899.709,1457.57 901.994,1457.23 904.278,1456.87 906.563,1456.49 908.847,1456.1 911.131,1455.69 913.416,1455.26 915.7,1454.81 917.985,1454.33 
  920.269,1453.84 922.553,1453.33 924.838,1452.79 927.122,1452.23 929.407,1451.64 931.691,1451.03 933.975,1450.4 936.26,1449.73 938.544,1449.04 940.828,1448.32 
  943.113,1447.57 945.397,1446.79 947.682,1445.97 949.966,1445.13 952.25,1444.25 954.535,1443.33 956.819,1442.38 959.104,1441.39 961.388,1440.36 963.672,1439.29 
  965.957,1438.18 968.241,1437.03 970.526,1435.84 972.81,1434.6 975.094,1433.31 977.379,1431.98 979.663,1430.6 981.948,1429.17 984.232,1427.68 986.516,1426.15 
  988.801,1424.56 991.085,1422.92 993.369,1421.21 995.654,1419.45 997.938,1417.63 1000.22,1415.75 1002.51,1413.81 1004.79,1411.8 1007.08,1409.73 1009.36,1407.59 
  1011.64,1405.38 1013.93,1403.1 1016.21,1400.74 1018.5,1398.32 1020.78,1395.82 1023.07,1393.24 1025.35,1390.58 1027.64,1387.85 1029.92,1385.03 1032.2,1382.13 
  1034.49,1379.15 1036.77,1376.08 1039.06,1372.93 1041.34,1369.68 1043.63,1366.34 1045.91,1362.92 1048.19,1359.39 1050.48,1355.78 1052.76,1352.07 1055.05,1348.25 
  1057.33,1344.34 1059.62,1340.33 1061.9,1336.22 1064.19,1332 1066.47,1327.68 1068.75,1323.25 1071.04,1318.72 1073.32,1314.07 1075.61,1309.32 1077.89,1304.45 
  1080.18,1299.47 1082.46,1294.38 1084.75,1289.18 1087.03,1283.86 1089.31,1278.42 1091.6,1272.86 1093.88,1267.19 1096.17,1261.4 1098.45,1255.48 1100.74,1249.45 
  1103.02,1243.3 1105.3,1237.02 1107.59,1230.62 1109.87,1224.1 1112.16,1217.46 1114.44,1210.69 1116.73,1203.8 1119.01,1196.78 1121.3,1189.64 1123.58,1182.37 
  1125.86,1174.99 1128.15,1167.47 1130.43,1159.84 1132.72,1152.08 1135,1144.19 1137.29,1136.19 1139.57,1128.06 1141.85,1119.81 1144.14,1111.43 1146.42,1102.94 
  1148.71,1094.33 1150.99,1085.6 1153.28,1076.76 1155.56,1067.79 1157.85,1058.71 1160.13,1049.52 1162.41,1040.22 1164.7,1030.81 1166.98,1021.28 1169.27,1011.65 
  1171.55,1001.92 1173.84,992.077 1176.12,982.136 1178.41,972.096 1180.69,961.958 1182.97,951.726 1185.26,941.402 1187.54,930.988 1189.83,920.486 1192.11,909.9 
  1194.4,899.232 1196.68,888.485 1198.96,877.662 1201.25,866.766 1203.53,855.801 1205.82,844.769 1208.1,833.674 1210.39,822.52 1212.67,811.309 1214.96,800.046 
  1217.24,788.734 1219.52,777.377 1221.81,765.979 1224.09,754.544 1226.38,743.075 1228.66,731.577 1230.95,720.054 1233.23,708.51 1235.51,696.95 1237.8,685.377 
  1240.08,673.796 1242.37,662.212 1244.65,650.629 1246.94,639.052 1249.22,627.485 1251.51,615.932 1253.79,604.4 1256.07,592.891 1258.36,581.412 1260.64,569.966 
  1262.93,558.559 1265.21,547.196 1267.5,535.881 1269.78,524.619 1272.07,513.415 1274.35,502.274 1276.63,491.202 1278.92,480.202 1281.2,469.28 1283.49,458.441 
  1285.77,447.689 1288.06,437.03 1290.34,426.469 1292.62,416.009 1294.91,405.657 1297.19,395.417 1299.48,385.293 1301.76,375.29 1304.05,365.414 1306.33,355.669 
  1308.62,346.059 1310.9,336.589 1313.18,327.263 1315.47,318.086 1317.75,309.063 1320.04,300.197 1322.32,291.493 1324.61,282.955 1326.89,274.587 1329.18,266.393 
  1331.46,258.377 1333.74,250.544 1336.03,242.896 1338.31,235.438 1340.6,228.172 1342.88,221.104 1345.17,214.235 1347.45,207.569 1349.73,201.11 1352.02,194.86 
  1354.3,188.823 1356.59,183 1358.87,177.396 1361.16,172.013 1363.44,166.853 1365.73,161.918 1368.01,157.211 1370.29,152.734 1372.58,148.489 1374.86,144.478 
  1377.15,140.703 1379.43,137.165 1381.72,133.865 1384,130.805 1386.28,127.987 1388.57,125.411 1390.85,123.079 1393.14,120.991 1395.42,119.147 1397.71,117.549 
  1399.99,116.197 1402.28,115.092 1404.56,114.232 1406.84,113.619 1409.13,113.252 1411.41,113.131 1413.7,113.255 1415.98,113.625 1418.27,114.239 1420.55,115.097 
  1422.84,116.197 1425.12,117.54 1427.4,119.122 1429.69,120.945 1431.97,123.004 1434.26,125.301 1436.54,127.832 1438.83,130.596 1441.11,133.59 1443.39,136.814 
  1445.68,140.265 1447.96,143.941 1450.25,147.839 1452.53,151.956 1454.82,156.291 1457.1,160.841 1459.39,165.603 1461.67,170.574 1463.95,175.751 1466.24,181.132 
  1468.52,186.712 1470.81,192.489 1473.09,198.46 1475.38,204.621 1477.66,210.969 1479.94,217.5 1482.23,224.211 1484.51,231.098 1486.8,238.157 1489.08,245.385 
  1491.37,252.778 1493.65,260.332 1495.94,268.043 1498.22,275.906 1500.5,283.919 1502.79,292.077 1505.07,300.375 1507.36,308.811 1509.64,317.378 1511.93,326.074 
  1514.21,334.895 1516.5,343.835 1518.78,352.891 1521.06,362.058 1523.35,371.332 1525.63,380.709 1527.92,390.185 1530.2,399.755 1532.49,409.414 1534.77,419.16 
  1537.05,428.986 1539.34,438.89 1541.62,448.866 1543.91,458.911 1546.19,469.021 1548.48,479.19 1550.76,489.415 1553.05,499.692 1555.33,510.016 1557.61,520.384 
  1559.9,530.791 1562.18,541.233 1564.47,551.706 1566.75,562.207 1569.04,572.731 1571.32,583.275 1573.6,593.834 1575.89,604.405 1578.17,614.984 1580.46,625.568 
  1582.74,636.152 1585.03,646.734 1587.31,657.309 1589.6,667.874 1591.88,678.426 1594.16,688.961 1596.45,699.477 1598.73,709.969 1601.02,720.435 1603.3,730.871 
  1605.59,741.275 1607.87,751.644 1610.16,761.974 1612.44,772.263 1614.72,782.508 1617.01,792.706 1619.29,802.855 1621.58,812.952 1623.86,822.995 1626.15,832.981 
  1628.43,842.908 1630.71,852.773 1633,862.575 1635.28,872.311 1637.57,881.98 1639.85,891.578 1642.14,901.105 1644.42,910.558 1646.71,919.936 1648.99,929.237 
  1651.27,938.46 1653.56,947.602 1655.84,956.662 1658.13,965.64 1660.41,974.533 1662.7,983.34 1664.98,992.06 1667.26,1000.69 1669.55,1009.23 1671.83,1017.69 
  1674.12,1026.05 1676.4,1034.32 1678.69,1042.5 1680.97,1050.58 1683.26,1058.57 1685.54,1066.46 1687.82,1074.26 1690.11,1081.96 1692.39,1089.57 1694.68,1097.08 
  1696.96,1104.49 1699.25,1111.8 1701.53,1119.02 1703.82,1126.14 1706.1,1133.16 1708.38,1140.08 1710.67,1146.9 1712.95,1153.63 1715.24,1160.26 1717.52,1166.78 
  1719.81,1173.22 1722.09,1179.55 1724.37,1185.79 1726.66,1191.93 1728.94,1197.97 1731.23,1203.92 1733.51,1209.77 1735.8,1215.52 1738.08,1221.18 1740.37,1226.74 
  1742.65,1232.22 1744.93,1237.59 1747.22,1242.88 1749.5,1248.07 1751.79,1253.17 1754.07,1258.18 1756.36,1263.1 1758.64,1267.92 1760.92,1272.67 1763.21,1277.32 
  1765.49,1281.88 1767.78,1286.36 1770.06,1290.75 1772.35,1295.06 1774.63,1299.29 1776.92,1303.43 1779.2,1307.49 1781.48,1311.47 1783.77,1315.36 1786.05,1319.18 
  1788.34,1322.92 1790.62,1326.58 1792.91,1330.17 1795.19,1333.68 1797.48,1337.12 1799.76,1340.48 1802.04,1343.77 1804.33,1346.99 1806.61,1350.14 1808.9,1353.22 
  1811.18,1356.23 1813.47,1359.17 1815.75,1362.05 1818.03,1364.86 1820.32,1367.61 1822.6,1370.3 1824.89,1372.92 1827.17,1375.48 1829.46,1377.98 1831.74,1380.42 
  1834.03,1382.8 1836.31,1385.13 1838.59,1387.4 1840.88,1389.61 1843.16,1391.77 1845.45,1393.88 1847.73,1395.93 1850.02,1397.94 1852.3,1399.89 1854.58,1401.79 
  1856.87,1403.65 1859.15,1405.46 1861.44,1407.22 1863.72,1408.93 1866.01,1410.61 1868.29,1412.23 1870.58,1413.82 1872.86,1415.36 1875.14,1416.86 1877.43,1418.32 
  1879.71,1419.74 1882,1421.12 1884.28,1422.47 1886.57,1423.78 1888.85,1425.05 1891.14,1426.29 1893.42,1427.49 1895.7,1428.66 1897.99,1429.79 1900.27,1430.9 
  1902.56,1431.97 1904.84,1433.01 1907.13,1434.02 1909.41,1435.01 1911.69,1435.96 1913.98,1436.88 1916.26,1437.78 1918.55,1438.66 1920.83,1439.5 1923.12,1440.32 
  1925.4,1441.12 1927.69,1441.89 1929.97,1442.64 1932.25,1443.37 1934.54,1444.07 1936.82,1444.76 1939.11,1445.42 1941.39,1446.06 1943.68,1446.68 1945.96,1447.28 
  1948.25,1447.87 1950.53,1448.43 1952.81,1448.98 1955.1,1449.51 1957.38,1450.02 1959.67,1450.52 1961.95,1451 1964.24,1451.46 1966.52,1451.91 1968.8,1452.34 
  1971.09,1452.77 1973.37,1453.17 1975.66,1453.57 1977.94,1453.95 1980.23,1454.31 1982.51,1454.67 1984.8,1455.01 1987.08,1455.34 1989.36,1455.67 1991.65,1455.98 
  1993.93,1456.27 1996.22,1456.56 1998.5,1456.84 2000.79,1457.11 2003.07,1457.37 2005.35,1457.62 2007.64,1457.87 2009.92,1458.1 2012.21,1458.33 2014.49,1458.54 
  2016.78,1458.75 2019.06,1458.96 2021.35,1459.15 2023.63,1459.34 2025.91,1459.52 2028.2,1459.7 2030.48,1459.86 2032.77,1460.03 2035.05,1460.18 2037.34,1460.33 
  2039.62,1460.48 2041.91,1460.62 2044.19,1460.75 2046.47,1460.88 2048.76,1461.01 2051.04,1461.13 2053.33,1461.24 2055.61,1461.36 2057.9,1461.46 2060.18,1461.57 
  2062.46,1461.67 2064.75,1461.76 2067.03,1461.85 2069.32,1461.94 2071.6,1462.03 2073.89,1462.11 2076.17,1462.19 2078.46,1462.26 2080.74,1462.33 2083.02,1462.4 
  2085.31,1462.47 2087.59,1462.53 2089.88,1462.6 2092.16,1462.65 2094.45,1462.71 2096.73,1462.77 2099.01,1462.82 2101.3,1462.87 2103.58,1462.92 2105.87,1462.96 
  2108.15,1463.01 2110.44,1463.05 2112.72,1463.09 2115.01,1463.13 2117.29,1463.17 2119.57,1463.2 2121.86,1463.24 2124.14,1463.27 2126.43,1463.3 2128.71,1463.33 
  2131,1463.36 2133.28,1463.39 2135.57,1463.42 2137.85,1463.44 2140.13,1463.47 2142.42,1463.49 2144.7,1463.52 2146.99,1463.54 2149.27,1463.56 2151.56,1463.58 
  2153.84,1463.6 2156.12,1463.61 2158.41,1463.63 2160.69,1463.65 2162.98,1463.66 2165.26,1463.68 2167.55,1463.69 2169.83,1463.71 2172.12,1463.72 2174.4,1463.73 
  2176.68,1463.75 2178.97,1463.76 2181.25,1463.77 2183.54,1463.78 2185.82,1463.79 2188.11,1463.8 2190.39,1463.81 2192.67,1463.82 2194.96,1463.83 2197.24,1463.83 
  2199.53,1463.84 2201.81,1463.85 2204.1,1463.86 2206.38,1463.86 2208.67,1463.87 2210.95,1463.87 2213.23,1463.88 2215.52,1463.89 2217.8,1463.89 2220.09,1463.9 
  2222.37,1463.9 
  "/>
<path clip-path="url(#clip190)" d="
M1757.13 337.765 L2277.76 337.765 L2277.76 95.8446 L1757.13 95.8446  Z
  " fill="#ffffff" fill-rule="evenodd" fill-opacity="1"/>
<polyline clip-path="url(#clip190)" style="stroke:#000000; stroke-linecap:butt; stroke-linejoin:round; stroke-width:4; stroke-opacity:1; fill:none" points="
  1757.13,337.765 2277.76,337.765 2277.76,95.8446 1757.13,95.8446 1757.13,337.765 
  "/>
<path clip-path="url(#clip190)" d="
M1782.13 180.517 L1932.13 180.517 L1932.13 132.133 L1782.13 132.133 L1782.13 180.517  Z
  " fill="#009af9" fill-rule="evenodd" fill-opacity="1"/>
<polyline clip-path="url(#clip190)" style="stroke:#009af9; stroke-linecap:butt; stroke-linejoin:round; stroke-width:4; stroke-opacity:1; fill:none" points="
  1782.13,180.517 1932.13,180.517 1932.13,132.133 1782.13,132.133 1782.13,180.517 
  "/>
<path clip-path="url(#clip190)" d="M1970.97 176.012 Q1969.17 180.642 1967.46 182.054 Q1965.74 183.466 1962.87 183.466 L1959.47 183.466 L1959.47 179.901 L1961.97 179.901 Q1963.73 179.901 1964.7 179.068 Q1965.67 178.234 1966.85 175.132 L1967.62 173.188 L1957.13 147.679 L1961.65 147.679 L1969.75 167.957 L1977.85 147.679 L1982.36 147.679 L1970.97 176.012 Z" fill="#000000" fill-rule="evenodd" fill-opacity="1" /><path clip-path="url(#clip190)" d="M1989.65 169.669 L1997.29 169.669 L1997.29 143.304 L1988.98 144.971 L1988.98 140.711 L1997.25 139.045 L2001.92 139.045 L2001.92 169.669 L2009.56 169.669 L2009.56 173.605 L1989.65 173.605 L1989.65 169.669 Z" fill="#000000" fill-rule="evenodd" fill-opacity="1" /><polyline clip-path="url(#clip190)" style="stroke:#e26f46; stroke-linecap:butt; stroke-linejoin:round; stroke-width:4; stroke-opacity:1; fill:none" points="
  1782.13,216.805 1932.13,216.805 
  "/>
<path clip-path="url(#clip190)" d="M1976.04 220.821 Q1976.04 216.191 1974.12 213.645 Q1972.22 211.099 1968.77 211.099 Q1965.35 211.099 1963.43 213.645 Q1961.53 216.191 1961.53 220.821 Q1961.53 225.427 1963.43 227.974 Q1965.35 230.52 1968.77 230.52 Q1972.22 230.52 1974.12 227.974 Q1976.04 225.427 1976.04 220.821 M1980.3 230.867 Q1980.3 237.487 1977.36 240.705 Q1974.42 243.946 1968.36 243.946 Q1966.11 243.946 1964.12 243.598 Q1962.13 243.274 1960.26 242.58 L1960.26 238.436 Q1962.13 239.455 1963.96 239.941 Q1965.79 240.427 1967.69 240.427 Q1971.88 240.427 1973.96 238.228 Q1976.04 236.052 1976.04 231.631 L1976.04 229.524 Q1974.72 231.816 1972.66 232.95 Q1970.6 234.085 1967.73 234.085 Q1962.96 234.085 1960.05 230.45 Q1957.13 226.816 1957.13 220.821 Q1957.13 214.802 1960.05 211.168 Q1962.96 207.534 1967.73 207.534 Q1970.6 207.534 1972.66 208.668 Q1974.72 209.802 1976.04 212.094 L1976.04 208.159 L1980.3 208.159 L1980.3 230.867 Z" fill="#000000" fill-rule="evenodd" fill-opacity="1" /><path clip-path="url(#clip190)" d="M2000.86 221.052 Q1995.7 221.052 1993.71 222.233 Q1991.71 223.413 1991.71 226.261 Q1991.71 228.529 1993.2 229.872 Q1994.7 231.191 1997.27 231.191 Q2000.81 231.191 2002.94 228.691 Q2005.09 226.168 2005.09 222.001 L2005.09 221.052 L2000.86 221.052 M2009.35 219.293 L2009.35 234.085 L2005.09 234.085 L2005.09 230.149 Q2003.64 232.511 2001.46 233.645 Q1999.28 234.756 1996.14 234.756 Q1992.15 234.756 1989.79 232.534 Q1987.46 230.288 1987.46 226.538 Q1987.46 222.163 1990.37 219.941 Q1993.31 217.719 1999.12 217.719 L2005.09 217.719 L2005.09 217.302 Q2005.09 214.363 2003.15 212.765 Q2001.23 211.145 1997.73 211.145 Q1995.51 211.145 1993.4 211.677 Q1991.3 212.21 1989.35 213.275 L1989.35 209.339 Q1991.69 208.437 1993.89 207.997 Q1996.09 207.534 1998.17 207.534 Q2003.8 207.534 2006.58 210.45 Q2009.35 213.367 2009.35 219.293 Z" fill="#000000" fill-rule="evenodd" fill-opacity="1" /><path clip-path="url(#clip190)" d="M2017.69 223.853 L2017.69 208.159 L2021.95 208.159 L2021.95 223.691 Q2021.95 227.372 2023.38 229.224 Q2024.82 231.052 2027.69 231.052 Q2031.14 231.052 2033.13 228.853 Q2035.14 226.654 2035.14 222.858 L2035.14 208.159 L2039.4 208.159 L2039.4 234.085 L2035.14 234.085 L2035.14 230.103 Q2033.59 232.464 2031.53 233.622 Q2029.49 234.756 2026.78 234.756 Q2022.32 234.756 2020 231.978 Q2017.69 229.2 2017.69 223.853 M2028.4 207.534 L2028.4 207.534 Z" fill="#000000" fill-rule="evenodd" fill-opacity="1" /><path clip-path="url(#clip190)" d="M2064.7 208.923 L2064.7 212.95 Q2062.89 212.025 2060.95 211.562 Q2059.01 211.099 2056.92 211.099 Q2053.75 211.099 2052.15 212.071 Q2050.58 213.043 2050.58 214.987 Q2050.58 216.469 2051.71 217.325 Q2052.85 218.159 2056.27 218.923 L2057.73 219.247 Q2062.27 220.219 2064.17 222.001 Q2066.09 223.761 2066.09 226.932 Q2066.09 230.543 2063.22 232.649 Q2060.37 234.756 2055.37 234.756 Q2053.29 234.756 2051.02 234.339 Q2048.77 233.946 2046.27 233.136 L2046.27 228.737 Q2048.64 229.964 2050.93 230.589 Q2053.22 231.191 2055.46 231.191 Q2058.47 231.191 2060.09 230.173 Q2061.71 229.131 2061.71 227.256 Q2061.71 225.52 2060.53 224.594 Q2059.38 223.668 2055.42 222.812 L2053.94 222.464 Q2049.98 221.631 2048.22 219.918 Q2046.46 218.182 2046.46 215.173 Q2046.46 211.515 2049.05 209.525 Q2051.64 207.534 2056.41 207.534 Q2058.77 207.534 2060.86 207.881 Q2062.94 208.228 2064.7 208.923 Z" fill="#000000" fill-rule="evenodd" fill-opacity="1" /><path clip-path="url(#clip190)" d="M2089.4 208.923 L2089.4 212.95 Q2087.59 212.025 2085.65 211.562 Q2083.7 211.099 2081.62 211.099 Q2078.45 211.099 2076.85 212.071 Q2075.28 213.043 2075.28 214.987 Q2075.28 216.469 2076.41 217.325 Q2077.55 218.159 2080.97 218.923 L2082.43 219.247 Q2086.97 220.219 2088.87 222.001 Q2090.79 223.761 2090.79 226.932 Q2090.79 230.543 2087.92 232.649 Q2085.07 234.756 2080.07 234.756 Q2077.99 234.756 2075.72 234.339 Q2073.47 233.946 2070.97 233.136 L2070.97 228.737 Q2073.33 229.964 2075.63 230.589 Q2077.92 231.191 2080.16 231.191 Q2083.17 231.191 2084.79 230.173 Q2086.41 229.131 2086.41 227.256 Q2086.41 225.52 2085.23 224.594 Q2084.08 223.668 2080.12 222.812 L2078.64 222.464 Q2074.68 221.631 2072.92 219.918 Q2071.16 218.182 2071.16 215.173 Q2071.16 211.515 2073.75 209.525 Q2076.34 207.534 2081.11 207.534 Q2083.47 207.534 2085.56 207.881 Q2087.64 208.228 2089.4 208.923 Z" fill="#000000" fill-rule="evenodd" fill-opacity="1" /><path clip-path="url(#clip190)" d="M2097.57 208.159 L2101.83 208.159 L2101.83 234.085 L2097.57 234.085 L2097.57 208.159 M2097.57 198.066 L2101.83 198.066 L2101.83 203.46 L2097.57 203.46 L2097.57 198.066 Z" fill="#000000" fill-rule="evenodd" fill-opacity="1" /><path clip-path="url(#clip190)" d="M2122.52 221.052 Q2117.36 221.052 2115.37 222.233 Q2113.38 223.413 2113.38 226.261 Q2113.38 228.529 2114.86 229.872 Q2116.37 231.191 2118.94 231.191 Q2122.48 231.191 2124.61 228.691 Q2126.76 226.168 2126.76 222.001 L2126.76 221.052 L2122.52 221.052 M2131.02 219.293 L2131.02 234.085 L2126.76 234.085 L2126.76 230.149 Q2125.3 232.511 2123.13 233.645 Q2120.95 234.756 2117.8 234.756 Q2113.82 234.756 2111.46 232.534 Q2109.12 230.288 2109.12 226.538 Q2109.12 222.163 2112.04 219.941 Q2114.98 217.719 2120.79 217.719 L2126.76 217.719 L2126.76 217.302 Q2126.76 214.363 2124.82 212.765 Q2122.89 211.145 2119.4 211.145 Q2117.18 211.145 2115.07 211.677 Q2112.96 212.21 2111.02 213.275 L2111.02 209.339 Q2113.36 208.437 2115.56 207.997 Q2117.76 207.534 2119.84 207.534 Q2125.46 207.534 2128.24 210.45 Q2131.02 213.367 2131.02 219.293 Z" fill="#000000" fill-rule="evenodd" fill-opacity="1" /><path clip-path="url(#clip190)" d="M2161.34 218.437 L2161.34 234.085 L2157.08 234.085 L2157.08 218.575 Q2157.08 214.895 2155.65 213.066 Q2154.21 211.238 2151.34 211.238 Q2147.89 211.238 2145.9 213.437 Q2143.91 215.636 2143.91 219.432 L2143.91 234.085 L2139.63 234.085 L2139.63 208.159 L2143.91 208.159 L2143.91 212.187 Q2145.44 209.849 2147.5 208.691 Q2149.58 207.534 2152.29 207.534 Q2156.76 207.534 2159.05 210.312 Q2161.34 213.066 2161.34 218.437 Z" fill="#000000" fill-rule="evenodd" fill-opacity="1" /><path clip-path="url(#clip190)" d="M2198.03 198.066 L2198.03 201.608 L2193.96 201.608 Q2191.67 201.608 2190.76 202.534 Q2189.88 203.46 2189.88 205.867 L2189.88 208.159 L2196.9 208.159 L2196.9 211.469 L2189.88 211.469 L2189.88 234.085 L2185.6 234.085 L2185.6 211.469 L2181.53 211.469 L2181.53 208.159 L2185.6 208.159 L2185.6 206.353 Q2185.6 202.025 2187.62 200.057 Q2189.63 198.066 2194.01 198.066 L2198.03 198.066 Z" fill="#000000" fill-rule="evenodd" fill-opacity="1" /><path clip-path="url(#clip190)" d="M2201.6 208.159 L2205.86 208.159 L2205.86 234.085 L2201.6 234.085 L2201.6 208.159 M2201.6 198.066 L2205.86 198.066 L2205.86 203.46 L2201.6 203.46 L2201.6 198.066 Z" fill="#000000" fill-rule="evenodd" fill-opacity="1" /><path clip-path="url(#clip190)" d="M2218.98 200.798 L2218.98 208.159 L2227.76 208.159 L2227.76 211.469 L2218.98 211.469 L2218.98 225.543 Q2218.98 228.714 2219.84 229.617 Q2220.72 230.52 2223.38 230.52 L2227.76 230.52 L2227.76 234.085 L2223.38 234.085 Q2218.45 234.085 2216.57 232.256 Q2214.7 230.404 2214.7 225.543 L2214.7 211.469 L2211.57 211.469 L2211.57 208.159 L2214.7 208.159 L2214.7 200.798 L2218.98 200.798 Z" fill="#000000" fill-rule="evenodd" fill-opacity="1" /><polyline clip-path="url(#clip190)" style="stroke:#3da44d; stroke-linecap:butt; stroke-linejoin:round; stroke-width:4; stroke-opacity:1; fill:none" points="
  1782.13,277.285 1932.13,277.285 
  "/>
<path clip-path="url(#clip190)" d="M1961.41 290.676 L1961.41 304.426 L1957.13 304.426 L1957.13 268.639 L1961.41 268.639 L1961.41 272.574 Q1962.76 270.259 1964.79 269.148 Q1966.85 268.014 1969.7 268.014 Q1974.42 268.014 1977.36 271.764 Q1980.33 275.514 1980.33 281.625 Q1980.33 287.736 1977.36 291.486 Q1974.42 295.236 1969.7 295.236 Q1966.85 295.236 1964.79 294.125 Q1962.76 292.991 1961.41 290.676 M1975.9 281.625 Q1975.9 276.926 1973.96 274.264 Q1972.04 271.579 1968.66 271.579 Q1965.28 271.579 1963.34 274.264 Q1961.41 276.926 1961.41 281.625 Q1961.41 286.324 1963.34 289.009 Q1965.28 291.671 1968.66 291.671 Q1972.04 291.671 1973.96 289.009 Q1975.9 286.324 1975.9 281.625 Z" fill="#000000" fill-rule="evenodd" fill-opacity="1" /><path clip-path="url(#clip190)" d="M1997.43 271.625 Q1994.01 271.625 1992.02 274.31 Q1990.02 276.972 1990.02 281.625 Q1990.02 286.278 1991.99 288.963 Q1993.98 291.625 1997.43 291.625 Q2000.83 291.625 2002.83 288.94 Q2004.82 286.254 2004.82 281.625 Q2004.82 277.018 2002.83 274.333 Q2000.83 271.625 1997.43 271.625 M1997.43 268.014 Q2002.99 268.014 2006.16 271.625 Q2009.33 275.236 2009.33 281.625 Q2009.33 287.991 2006.16 291.625 Q2002.99 295.236 1997.43 295.236 Q1991.85 295.236 1988.68 291.625 Q1985.53 287.991 1985.53 281.625 Q1985.53 275.236 1988.68 271.625 Q1991.85 268.014 1997.43 268.014 Z" fill="#000000" fill-rule="evenodd" fill-opacity="1" /><path clip-path="url(#clip190)" d="M2016.39 268.639 L2020.65 268.639 L2020.65 294.565 L2016.39 294.565 L2016.39 268.639 M2016.39 258.546 L2020.65 258.546 L2020.65 263.94 L2016.39 263.94 L2016.39 258.546 Z" fill="#000000" fill-rule="evenodd" fill-opacity="1" /><path clip-path="url(#clip190)" d="M2046.09 269.403 L2046.09 273.43 Q2044.28 272.505 2042.34 272.042 Q2040.39 271.579 2038.31 271.579 Q2035.14 271.579 2033.54 272.551 Q2031.97 273.523 2031.97 275.467 Q2031.97 276.949 2033.1 277.805 Q2034.24 278.639 2037.66 279.403 L2039.12 279.727 Q2043.66 280.699 2045.56 282.481 Q2047.48 284.241 2047.48 287.412 Q2047.48 291.023 2044.61 293.129 Q2041.76 295.236 2036.76 295.236 Q2034.68 295.236 2032.41 294.819 Q2030.16 294.426 2027.66 293.616 L2027.66 289.217 Q2030.02 290.444 2032.32 291.069 Q2034.61 291.671 2036.85 291.671 Q2039.86 291.671 2041.48 290.653 Q2043.1 289.611 2043.1 287.736 Q2043.1 286 2041.92 285.074 Q2040.77 284.148 2036.81 283.292 L2035.33 282.944 Q2031.37 282.111 2029.61 280.398 Q2027.85 278.662 2027.85 275.653 Q2027.85 271.995 2030.44 270.005 Q2033.03 268.014 2037.8 268.014 Q2040.16 268.014 2042.25 268.361 Q2044.33 268.708 2046.09 269.403 Z" fill="#000000" fill-rule="evenodd" fill-opacity="1" /><path clip-path="url(#clip190)" d="M2070.79 269.403 L2070.79 273.43 Q2068.98 272.505 2067.04 272.042 Q2065.09 271.579 2063.01 271.579 Q2059.84 271.579 2058.24 272.551 Q2056.67 273.523 2056.67 275.467 Q2056.67 276.949 2057.8 277.805 Q2058.94 278.639 2062.36 279.403 L2063.82 279.727 Q2068.36 280.699 2070.26 282.481 Q2072.18 284.241 2072.18 287.412 Q2072.18 291.023 2069.31 293.129 Q2066.46 295.236 2061.46 295.236 Q2059.38 295.236 2057.11 294.819 Q2054.86 294.426 2052.36 293.616 L2052.36 289.217 Q2054.72 290.444 2057.02 291.069 Q2059.31 291.671 2061.55 291.671 Q2064.56 291.671 2066.18 290.653 Q2067.8 289.611 2067.8 287.736 Q2067.8 286 2066.62 285.074 Q2065.46 284.148 2061.51 283.292 L2060.02 282.944 Q2056.07 282.111 2054.31 280.398 Q2052.55 278.662 2052.55 275.653 Q2052.55 271.995 2055.14 270.005 Q2057.73 268.014 2062.5 268.014 Q2064.86 268.014 2066.95 268.361 Q2069.03 268.708 2070.79 269.403 Z" fill="#000000" fill-rule="evenodd" fill-opacity="1" /><path clip-path="url(#clip190)" d="M2089.01 271.625 Q2085.58 271.625 2083.59 274.31 Q2081.6 276.972 2081.6 281.625 Q2081.6 286.278 2083.57 288.963 Q2085.56 291.625 2089.01 291.625 Q2092.41 291.625 2094.4 288.94 Q2096.39 286.254 2096.39 281.625 Q2096.39 277.018 2094.4 274.333 Q2092.41 271.625 2089.01 271.625 M2089.01 268.014 Q2094.56 268.014 2097.73 271.625 Q2100.9 275.236 2100.9 281.625 Q2100.9 287.991 2097.73 291.625 Q2094.56 295.236 2089.01 295.236 Q2083.43 295.236 2080.26 291.625 Q2077.11 287.991 2077.11 281.625 Q2077.11 275.236 2080.26 271.625 Q2083.43 268.014 2089.01 268.014 Z" fill="#000000" fill-rule="evenodd" fill-opacity="1" /><path clip-path="url(#clip190)" d="M2129.51 278.917 L2129.51 294.565 L2125.26 294.565 L2125.26 279.055 Q2125.26 275.375 2123.82 273.546 Q2122.39 271.718 2119.51 271.718 Q2116.07 271.718 2114.08 273.917 Q2112.08 276.116 2112.08 279.912 L2112.08 294.565 L2107.8 294.565 L2107.8 268.639 L2112.08 268.639 L2112.08 272.667 Q2113.61 270.329 2115.67 269.171 Q2117.76 268.014 2120.46 268.014 Q2124.93 268.014 2127.22 270.792 Q2129.51 273.546 2129.51 278.917 Z" fill="#000000" fill-rule="evenodd" fill-opacity="1" /><path clip-path="url(#clip190)" d="M2166.2 258.546 L2166.2 262.088 L2162.13 262.088 Q2159.84 262.088 2158.94 263.014 Q2158.06 263.94 2158.06 266.347 L2158.06 268.639 L2165.07 268.639 L2165.07 271.949 L2158.06 271.949 L2158.06 294.565 L2153.77 294.565 L2153.77 271.949 L2149.7 271.949 L2149.7 268.639 L2153.77 268.639 L2153.77 266.833 Q2153.77 262.505 2155.79 260.537 Q2157.8 258.546 2162.18 258.546 L2166.2 258.546 Z" fill="#000000" fill-rule="evenodd" fill-opacity="1" /><path clip-path="url(#clip190)" d="M2169.77 268.639 L2174.03 268.639 L2174.03 294.565 L2169.77 294.565 L2169.77 268.639 M2169.77 258.546 L2174.03 258.546 L2174.03 263.94 L2169.77 263.94 L2169.77 258.546 Z" fill="#000000" fill-rule="evenodd" fill-opacity="1" /><path clip-path="url(#clip190)" d="M2187.15 261.278 L2187.15 268.639 L2195.93 268.639 L2195.93 271.949 L2187.15 271.949 L2187.15 286.023 Q2187.15 289.194 2188.01 290.097 Q2188.89 291 2191.55 291 L2195.93 291 L2195.93 294.565 L2191.55 294.565 Q2186.62 294.565 2184.75 292.736 Q2182.87 290.884 2182.87 286.023 L2182.87 271.949 L2179.75 271.949 L2179.75 268.639 L2182.87 268.639 L2182.87 261.278 L2187.15 261.278 Z" fill="#000000" fill-rule="evenodd" fill-opacity="1" /></svg>
