<?xml version="1.0" encoding="utf-8"?>
<svg xmlns="http://www.w3.org/2000/svg" xmlns:xlink="http://www.w3.org/1999/xlink" width="600" height="400" viewBox="0 0 2400 1600">
<defs>
  <clipPath id="clip740">
    <rect x="0" y="0" width="2400" height="1600"/>
  </clipPath>
</defs>
<path clip-path="url(#clip740)" d="
M0 1600 L2400 1600 L2400 0 L0 0  Z
  " fill="#ffffff" fill-rule="evenodd" fill-opacity="1"/>
<defs>
  <clipPath id="clip741">
    <rect x="480" y="0" width="1681" height="1600"/>
  </clipPath>
</defs>
<path clip-path="url(#clip740)" d="
M238.13 1423.18 L2352.76 1423.18 L2352.76 47.2441 L238.13 47.2441  Z
  " fill="#ffffff" fill-rule="evenodd" fill-opacity="1"/>
<defs>
  <clipPath id="clip742">
    <rect x="238" y="47" width="2116" height="1377"/>
  </clipPath>
</defs>
<polyline clip-path="url(#clip742)" style="stroke:#000000; stroke-width:2; stroke-opacity:0.1; fill:none" points="
  354.438,1423.18 354.438,47.2441 
  "/>
<polyline clip-path="url(#clip742)" style="stroke:#000000; stroke-width:2; stroke-opacity:0.1; fill:none" points="
  981.775,1423.18 981.775,47.2441 
  "/>
<polyline clip-path="url(#clip742)" style="stroke:#000000; stroke-width:2; stroke-opacity:0.1; fill:none" points="
  1609.11,1423.18 1609.11,47.2441 
  "/>
<polyline clip-path="url(#clip742)" style="stroke:#000000; stroke-width:2; stroke-opacity:0.1; fill:none" points="
  2236.45,1423.18 2236.45,47.2441 
  "/>
<polyline clip-path="url(#clip740)" style="stroke:#000000; stroke-width:4; stroke-opacity:1; fill:none" points="
  238.13,1423.18 2352.76,1423.18 
  "/>
<polyline clip-path="url(#clip740)" style="stroke:#000000; stroke-width:4; stroke-opacity:1; fill:none" points="
  354.438,1423.18 354.438,1406.67 
  "/>
<polyline clip-path="url(#clip740)" style="stroke:#000000; stroke-width:4; stroke-opacity:1; fill:none" points="
  981.775,1423.18 981.775,1406.67 
  "/>
<polyline clip-path="url(#clip740)" style="stroke:#000000; stroke-width:4; stroke-opacity:1; fill:none" points="
  1609.11,1423.18 1609.11,1406.67 
  "/>
<polyline clip-path="url(#clip740)" style="stroke:#000000; stroke-width:4; stroke-opacity:1; fill:none" points="
  2236.45,1423.18 2236.45,1406.67 
  "/>
<path clip-path="url(#clip740)" d="M 0 0 M354.438 1452.37 Q350.827 1452.37 348.998 1455.94 Q347.193 1459.48 347.193 1466.61 Q347.193 1473.71 348.998 1477.28 Q350.827 1480.82 354.438 1480.82 Q358.072 1480.82 359.878 1477.28 Q361.707 1473.71 361.707 1466.61 Q361.707 1459.48 359.878 1455.94 Q358.072 1452.37 354.438 1452.37 M354.438 1448.67 Q360.248 1448.67 363.304 1453.27 Q366.383 1457.86 366.383 1466.61 Q366.383 1475.33 363.304 1479.94 Q360.248 1484.52 354.438 1484.52 Q348.628 1484.52 345.549 1479.94 Q342.494 1475.33 342.494 1466.61 Q342.494 1457.86 345.549 1453.27 Q348.628 1448.67 354.438 1448.67 Z" fill="#000000" fill-rule="evenodd" fill-opacity="1" /><path clip-path="url(#clip740)" d="M 0 0 M972.053 1449.29 L990.409 1449.29 L990.409 1453.23 L976.335 1453.23 L976.335 1461.7 Q977.353 1461.35 978.372 1461.19 Q979.39 1461 980.409 1461 Q986.196 1461 989.576 1464.18 Q992.955 1467.35 992.955 1472.76 Q992.955 1478.34 989.483 1481.44 Q986.011 1484.52 979.691 1484.52 Q977.515 1484.52 975.247 1484.15 Q973.002 1483.78 970.594 1483.04 L970.594 1478.34 Q972.678 1479.48 974.9 1480.03 Q977.122 1480.59 979.599 1480.59 Q983.603 1480.59 985.941 1478.48 Q988.279 1476.38 988.279 1472.76 Q988.279 1469.15 985.941 1467.05 Q983.603 1464.94 979.599 1464.94 Q977.724 1464.94 975.849 1465.36 Q973.997 1465.77 972.053 1466.65 L972.053 1449.29 Z" fill="#000000" fill-rule="evenodd" fill-opacity="1" /><path clip-path="url(#clip740)" d="M 0 0 M1585.99 1479.92 L1593.63 1479.92 L1593.63 1453.55 L1585.32 1455.22 L1585.32 1450.96 L1593.58 1449.29 L1598.25 1449.29 L1598.25 1479.92 L1605.89 1479.92 L1605.89 1483.85 L1585.99 1483.85 L1585.99 1479.92 Z" fill="#000000" fill-rule="evenodd" fill-opacity="1" /><path clip-path="url(#clip740)" d="M 0 0 M1620.96 1452.37 Q1617.35 1452.37 1615.52 1455.94 Q1613.72 1459.48 1613.72 1466.61 Q1613.72 1473.71 1615.52 1477.28 Q1617.35 1480.82 1620.96 1480.82 Q1624.6 1480.82 1626.4 1477.28 Q1628.23 1473.71 1628.23 1466.61 Q1628.23 1459.48 1626.4 1455.94 Q1624.6 1452.37 1620.96 1452.37 M1620.96 1448.67 Q1626.77 1448.67 1629.83 1453.27 Q1632.91 1457.86 1632.91 1466.61 Q1632.91 1475.33 1629.83 1479.94 Q1626.77 1484.52 1620.96 1484.52 Q1615.15 1484.52 1612.07 1479.94 Q1609.02 1475.33 1609.02 1466.61 Q1609.02 1457.86 1612.07 1453.27 Q1615.15 1448.67 1620.96 1448.67 Z" fill="#000000" fill-rule="evenodd" fill-opacity="1" /><path clip-path="url(#clip740)" d="M 0 0 M2213.82 1479.92 L2221.46 1479.92 L2221.46 1453.55 L2213.15 1455.22 L2213.15 1450.96 L2221.41 1449.29 L2226.09 1449.29 L2226.09 1479.92 L2233.73 1479.92 L2233.73 1483.85 L2213.82 1483.85 L2213.82 1479.92 Z" fill="#000000" fill-rule="evenodd" fill-opacity="1" /><path clip-path="url(#clip740)" d="M 0 0 M2238.84 1449.29 L2257.2 1449.29 L2257.2 1453.23 L2243.13 1453.23 L2243.13 1461.7 Q2244.14 1461.35 2245.16 1461.19 Q2246.18 1461 2247.2 1461 Q2252.99 1461 2256.37 1464.18 Q2259.75 1467.35 2259.75 1472.76 Q2259.75 1478.34 2256.27 1481.44 Q2252.8 1484.52 2246.48 1484.52 Q2244.31 1484.52 2242.04 1484.15 Q2239.79 1483.78 2237.39 1483.04 L2237.39 1478.34 Q2239.47 1479.48 2241.69 1480.03 Q2243.91 1480.59 2246.39 1480.59 Q2250.39 1480.59 2252.73 1478.48 Q2255.07 1476.38 2255.07 1472.76 Q2255.07 1469.15 2252.73 1467.05 Q2250.39 1464.94 2246.39 1464.94 Q2244.51 1464.94 2242.64 1465.36 Q2240.79 1465.77 2238.84 1466.65 L2238.84 1449.29 Z" fill="#000000" fill-rule="evenodd" fill-opacity="1" /><path clip-path="url(#clip740)" d="M 0 0 M1297.4 1539.24 Q1299.6 1535.29 1302.65 1533.41 Q1305.71 1531.54 1309.85 1531.54 Q1315.42 1531.54 1318.44 1535.45 Q1321.46 1539.33 1321.46 1546.53 L1321.46 1568.04 L1315.57 1568.04 L1315.57 1546.72 Q1315.57 1541.59 1313.76 1539.11 Q1311.95 1536.63 1308.22 1536.63 Q1303.67 1536.63 1301.03 1539.65 Q1298.39 1542.68 1298.39 1547.9 L1298.39 1568.04 L1292.5 1568.04 L1292.5 1546.72 Q1292.5 1541.56 1290.68 1539.11 Q1288.87 1536.63 1285.08 1536.63 Q1280.59 1536.63 1277.95 1539.68 Q1275.31 1542.71 1275.31 1547.9 L1275.31 1568.04 L1269.42 1568.04 L1269.42 1532.4 L1275.31 1532.4 L1275.31 1537.93 Q1277.32 1534.66 1280.12 1533.1 Q1282.92 1531.54 1286.77 1531.54 Q1290.65 1531.54 1293.36 1533.51 Q1296.1 1535.48 1297.4 1539.24 Z" fill="#000000" fill-rule="evenodd" fill-opacity="1" /><polyline clip-path="url(#clip742)" style="stroke:#000000; stroke-width:2; stroke-opacity:0.1; fill:none" points="
  238.13,1384.24 2352.76,1384.24 
  "/>
<polyline clip-path="url(#clip742)" style="stroke:#000000; stroke-width:2; stroke-opacity:0.1; fill:none" points="
  238.13,1083.97 2352.76,1083.97 
  "/>
<polyline clip-path="url(#clip742)" style="stroke:#000000; stroke-width:2; stroke-opacity:0.1; fill:none" points="
  238.13,783.696 2352.76,783.696 
  "/>
<polyline clip-path="url(#clip742)" style="stroke:#000000; stroke-width:2; stroke-opacity:0.1; fill:none" points="
  238.13,483.425 2352.76,483.425 
  "/>
<polyline clip-path="url(#clip742)" style="stroke:#000000; stroke-width:2; stroke-opacity:0.1; fill:none" points="
  238.13,183.154 2352.76,183.154 
  "/>
<polyline clip-path="url(#clip740)" style="stroke:#000000; stroke-width:4; stroke-opacity:1; fill:none" points="
  238.13,1423.18 238.13,47.2441 
  "/>
<polyline clip-path="url(#clip740)" style="stroke:#000000; stroke-width:4; stroke-opacity:1; fill:none" points="
  238.13,1384.24 263.506,1384.24 
  "/>
<polyline clip-path="url(#clip740)" style="stroke:#000000; stroke-width:4; stroke-opacity:1; fill:none" points="
  238.13,1083.97 263.506,1083.97 
  "/>
<polyline clip-path="url(#clip740)" style="stroke:#000000; stroke-width:4; stroke-opacity:1; fill:none" points="
  238.13,783.696 263.506,783.696 
  "/>
<polyline clip-path="url(#clip740)" style="stroke:#000000; stroke-width:4; stroke-opacity:1; fill:none" points="
  238.13,483.425 263.506,483.425 
  "/>
<polyline clip-path="url(#clip740)" style="stroke:#000000; stroke-width:4; stroke-opacity:1; fill:none" points="
  238.13,183.154 263.506,183.154 
  "/>
<path clip-path="url(#clip740)" d="M 0 0 M126.205 1370.04 Q122.593 1370.04 120.765 1373.6 Q118.959 1377.14 118.959 1384.27 Q118.959 1391.38 120.765 1394.94 Q122.593 1398.49 126.205 1398.49 Q129.839 1398.49 131.644 1394.94 Q133.473 1391.38 133.473 1384.27 Q133.473 1377.14 131.644 1373.6 Q129.839 1370.04 126.205 1370.04 M126.205 1366.33 Q132.015 1366.33 135.07 1370.94 Q138.149 1375.52 138.149 1384.27 Q138.149 1393 135.07 1397.61 Q132.015 1402.19 126.205 1402.19 Q120.394 1402.19 117.316 1397.61 Q114.26 1393 114.26 1384.27 Q114.26 1375.52 117.316 1370.94 Q120.394 1366.33 126.205 1366.33 Z" fill="#000000" fill-rule="evenodd" fill-opacity="1" /><path clip-path="url(#clip740)" d="M 0 0 M143.218 1395.64 L148.103 1395.64 L148.103 1401.52 L143.218 1401.52 L143.218 1395.64 Z" fill="#000000" fill-rule="evenodd" fill-opacity="1" /><path clip-path="url(#clip740)" d="M 0 0 M163.172 1370.04 Q159.561 1370.04 157.732 1373.6 Q155.927 1377.14 155.927 1384.27 Q155.927 1391.38 157.732 1394.94 Q159.561 1398.49 163.172 1398.49 Q166.806 1398.49 168.612 1394.94 Q170.44 1391.38 170.44 1384.27 Q170.44 1377.14 168.612 1373.6 Q166.806 1370.04 163.172 1370.04 M163.172 1366.33 Q168.982 1366.33 172.038 1370.94 Q175.116 1375.52 175.116 1384.27 Q175.116 1393 172.038 1397.61 Q168.982 1402.19 163.172 1402.19 Q157.362 1402.19 154.283 1397.61 Q151.228 1393 151.228 1384.27 Q151.228 1375.52 154.283 1370.94 Q157.362 1366.33 163.172 1366.33 Z" fill="#000000" fill-rule="evenodd" fill-opacity="1" /><path clip-path="url(#clip740)" d="M 0 0 M190.186 1370.04 Q186.575 1370.04 184.746 1373.6 Q182.94 1377.14 182.94 1384.27 Q182.94 1391.38 184.746 1394.94 Q186.575 1398.49 190.186 1398.49 Q193.82 1398.49 195.625 1394.94 Q197.454 1391.38 197.454 1384.27 Q197.454 1377.14 195.625 1373.6 Q193.82 1370.04 190.186 1370.04 M190.186 1366.33 Q195.996 1366.33 199.051 1370.94 Q202.13 1375.52 202.13 1384.27 Q202.13 1393 199.051 1397.61 Q195.996 1402.19 190.186 1402.19 Q184.376 1402.19 181.297 1397.61 Q178.241 1393 178.241 1384.27 Q178.241 1375.52 181.297 1370.94 Q184.376 1366.33 190.186 1366.33 Z" fill="#000000" fill-rule="evenodd" fill-opacity="1" /><path clip-path="url(#clip740)" d="M 0 0 M127.2 1069.77 Q123.589 1069.77 121.76 1073.33 Q119.955 1076.87 119.955 1084 Q119.955 1091.11 121.76 1094.67 Q123.589 1098.21 127.2 1098.21 Q130.834 1098.21 132.64 1094.67 Q134.468 1091.11 134.468 1084 Q134.468 1076.87 132.64 1073.33 Q130.834 1069.77 127.2 1069.77 M127.2 1066.06 Q133.01 1066.06 136.066 1070.67 Q139.144 1075.25 139.144 1084 Q139.144 1092.73 136.066 1097.34 Q133.01 1101.92 127.2 1101.92 Q121.39 1101.92 118.311 1097.34 Q115.256 1092.73 115.256 1084 Q115.256 1075.25 118.311 1070.67 Q121.39 1066.06 127.2 1066.06 Z" fill="#000000" fill-rule="evenodd" fill-opacity="1" /><path clip-path="url(#clip740)" d="M 0 0 M144.214 1095.37 L149.098 1095.37 L149.098 1101.25 L144.214 1101.25 L144.214 1095.37 Z" fill="#000000" fill-rule="evenodd" fill-opacity="1" /><path clip-path="url(#clip740)" d="M 0 0 M164.167 1069.77 Q160.556 1069.77 158.728 1073.33 Q156.922 1076.87 156.922 1084 Q156.922 1091.11 158.728 1094.67 Q160.556 1098.21 164.167 1098.21 Q167.802 1098.21 169.607 1094.67 Q171.436 1091.11 171.436 1084 Q171.436 1076.87 169.607 1073.33 Q167.802 1069.77 164.167 1069.77 M164.167 1066.06 Q169.977 1066.06 173.033 1070.67 Q176.112 1075.25 176.112 1084 Q176.112 1092.73 173.033 1097.34 Q169.977 1101.92 164.167 1101.92 Q158.357 1101.92 155.278 1097.34 Q152.223 1092.73 152.223 1084 Q152.223 1075.25 155.278 1070.67 Q158.357 1066.06 164.167 1066.06 Z" fill="#000000" fill-rule="evenodd" fill-opacity="1" /><path clip-path="url(#clip740)" d="M 0 0 M181.227 1066.69 L199.584 1066.69 L199.584 1070.62 L185.51 1070.62 L185.51 1079.09 Q186.528 1078.75 187.547 1078.59 Q188.565 1078.4 189.584 1078.4 Q195.371 1078.4 198.75 1081.57 Q202.13 1084.74 202.13 1090.16 Q202.13 1095.74 198.658 1098.84 Q195.186 1101.92 188.866 1101.92 Q186.69 1101.92 184.422 1101.55 Q182.176 1101.18 179.769 1100.44 L179.769 1095.74 Q181.852 1096.87 184.075 1097.43 Q186.297 1097.98 188.774 1097.98 Q192.778 1097.98 195.116 1095.88 Q197.454 1093.77 197.454 1090.16 Q197.454 1086.55 195.116 1084.44 Q192.778 1082.34 188.774 1082.34 Q186.899 1082.34 185.024 1082.75 Q183.172 1083.17 181.227 1084.05 L181.227 1066.69 Z" fill="#000000" fill-rule="evenodd" fill-opacity="1" /><path clip-path="url(#clip740)" d="M 0 0 M127.431 769.495 Q123.82 769.495 121.992 773.06 Q120.186 776.601 120.186 783.731 Q120.186 790.837 121.992 794.402 Q123.82 797.944 127.431 797.944 Q131.066 797.944 132.871 794.402 Q134.7 790.837 134.7 783.731 Q134.7 776.601 132.871 773.06 Q131.066 769.495 127.431 769.495 M127.431 765.791 Q133.242 765.791 136.297 770.398 Q139.376 774.981 139.376 783.731 Q139.376 792.458 136.297 797.064 Q133.242 801.647 127.431 801.647 Q121.621 801.647 118.543 797.064 Q115.487 792.458 115.487 783.731 Q115.487 774.981 118.543 770.398 Q121.621 765.791 127.431 765.791 Z" fill="#000000" fill-rule="evenodd" fill-opacity="1" /><path clip-path="url(#clip740)" d="M 0 0 M144.445 795.096 L149.329 795.096 L149.329 800.976 L144.445 800.976 L144.445 795.096 Z" fill="#000000" fill-rule="evenodd" fill-opacity="1" /><path clip-path="url(#clip740)" d="M 0 0 M155.209 797.041 L162.848 797.041 L162.848 770.675 L154.538 772.342 L154.538 768.083 L162.802 766.416 L167.477 766.416 L167.477 797.041 L175.116 797.041 L175.116 800.976 L155.209 800.976 L155.209 797.041 Z" fill="#000000" fill-rule="evenodd" fill-opacity="1" /><path clip-path="url(#clip740)" d="M 0 0 M190.186 769.495 Q186.575 769.495 184.746 773.06 Q182.94 776.601 182.94 783.731 Q182.94 790.837 184.746 794.402 Q186.575 797.944 190.186 797.944 Q193.82 797.944 195.625 794.402 Q197.454 790.837 197.454 783.731 Q197.454 776.601 195.625 773.06 Q193.82 769.495 190.186 769.495 M190.186 765.791 Q195.996 765.791 199.051 770.398 Q202.13 774.981 202.13 783.731 Q202.13 792.458 199.051 797.064 Q195.996 801.647 190.186 801.647 Q184.376 801.647 181.297 797.064 Q178.241 792.458 178.241 783.731 Q178.241 774.981 181.297 770.398 Q184.376 765.791 190.186 765.791 Z" fill="#000000" fill-rule="evenodd" fill-opacity="1" /><path clip-path="url(#clip740)" d="M 0 0 M128.427 469.224 Q124.816 469.224 122.987 472.788 Q121.181 476.33 121.181 483.46 Q121.181 490.566 122.987 494.131 Q124.816 497.673 128.427 497.673 Q132.061 497.673 133.867 494.131 Q135.695 490.566 135.695 483.46 Q135.695 476.33 133.867 472.788 Q132.061 469.224 128.427 469.224 M128.427 465.52 Q134.237 465.52 137.292 470.126 Q140.371 474.71 140.371 483.46 Q140.371 492.187 137.292 496.793 Q134.237 501.376 128.427 501.376 Q122.617 501.376 119.538 496.793 Q116.482 492.187 116.482 483.46 Q116.482 474.71 119.538 470.126 Q122.617 465.52 128.427 465.52 Z" fill="#000000" fill-rule="evenodd" fill-opacity="1" /><path clip-path="url(#clip740)" d="M 0 0 M145.441 494.825 L150.325 494.825 L150.325 500.705 L145.441 500.705 L145.441 494.825 Z" fill="#000000" fill-rule="evenodd" fill-opacity="1" /><path clip-path="url(#clip740)" d="M 0 0 M156.204 496.77 L163.843 496.77 L163.843 470.404 L155.533 472.071 L155.533 467.812 L163.797 466.145 L168.473 466.145 L168.473 496.77 L176.112 496.77 L176.112 500.705 L156.204 500.705 L156.204 496.77 Z" fill="#000000" fill-rule="evenodd" fill-opacity="1" /><path clip-path="url(#clip740)" d="M 0 0 M181.227 466.145 L199.584 466.145 L199.584 470.08 L185.51 470.08 L185.51 478.552 Q186.528 478.205 187.547 478.043 Q188.565 477.858 189.584 477.858 Q195.371 477.858 198.75 481.029 Q202.13 484.2 202.13 489.617 Q202.13 495.196 198.658 498.298 Q195.186 501.376 188.866 501.376 Q186.69 501.376 184.422 501.006 Q182.176 500.636 179.769 499.895 L179.769 495.196 Q181.852 496.33 184.075 496.886 Q186.297 497.441 188.774 497.441 Q192.778 497.441 195.116 495.335 Q197.454 493.228 197.454 489.617 Q197.454 486.006 195.116 483.9 Q192.778 481.793 188.774 481.793 Q186.899 481.793 185.024 482.21 Q183.172 482.626 181.227 483.506 L181.227 466.145 Z" fill="#000000" fill-rule="evenodd" fill-opacity="1" /><path clip-path="url(#clip740)" d="M 0 0 M127.802 168.953 Q124.191 168.953 122.362 172.517 Q120.556 176.059 120.556 183.189 Q120.556 190.295 122.362 193.86 Q124.191 197.402 127.802 197.402 Q131.436 197.402 133.242 193.86 Q135.07 190.295 135.07 183.189 Q135.07 176.059 133.242 172.517 Q131.436 168.953 127.802 168.953 M127.802 165.249 Q133.612 165.249 136.667 169.855 Q139.746 174.439 139.746 183.189 Q139.746 191.915 136.667 196.522 Q133.612 201.105 127.802 201.105 Q121.992 201.105 118.913 196.522 Q115.857 191.915 115.857 183.189 Q115.857 174.439 118.913 169.855 Q121.992 165.249 127.802 165.249 Z" fill="#000000" fill-rule="evenodd" fill-opacity="1" /><path clip-path="url(#clip740)" d="M 0 0 M144.816 194.554 L149.7 194.554 L149.7 200.434 L144.816 200.434 L144.816 194.554 Z" fill="#000000" fill-rule="evenodd" fill-opacity="1" /><path clip-path="url(#clip740)" d="M 0 0 M158.797 196.499 L175.116 196.499 L175.116 200.434 L153.172 200.434 L153.172 196.499 Q155.834 193.744 160.417 189.115 Q165.024 184.462 166.204 183.119 Q168.45 180.596 169.329 178.86 Q170.232 177.101 170.232 175.411 Q170.232 172.656 168.288 170.92 Q166.366 169.184 163.265 169.184 Q161.065 169.184 158.612 169.948 Q156.181 170.712 153.403 172.263 L153.403 167.541 Q156.228 166.406 158.681 165.828 Q161.135 165.249 163.172 165.249 Q168.542 165.249 171.737 167.934 Q174.931 170.619 174.931 175.11 Q174.931 177.24 174.121 179.161 Q173.334 181.059 171.227 183.652 Q170.649 184.323 167.547 187.54 Q164.445 190.735 158.797 196.499 Z" fill="#000000" fill-rule="evenodd" fill-opacity="1" /><path clip-path="url(#clip740)" d="M 0 0 M190.186 168.953 Q186.575 168.953 184.746 172.517 Q182.94 176.059 182.94 183.189 Q182.94 190.295 184.746 193.86 Q186.575 197.402 190.186 197.402 Q193.82 197.402 195.625 193.86 Q197.454 190.295 197.454 183.189 Q197.454 176.059 195.625 172.517 Q193.82 168.953 190.186 168.953 M190.186 165.249 Q195.996 165.249 199.051 169.855 Q202.13 174.439 202.13 183.189 Q202.13 191.915 199.051 196.522 Q195.996 201.105 190.186 201.105 Q184.376 201.105 181.297 196.522 Q178.241 191.915 178.241 183.189 Q178.241 174.439 181.297 169.855 Q184.376 165.249 190.186 165.249 Z" fill="#000000" fill-rule="evenodd" fill-opacity="1" /><path clip-path="url(#clip740)" d="M 0 0 M21.7677 793.124 L39.6235 793.124 L39.6235 785.04 Q39.6235 780.552 37.3 778.101 Q34.9765 775.65 30.6797 775.65 Q26.4147 775.65 24.0912 778.101 Q21.7677 780.552 21.7677 785.04 L21.7677 793.124 M16.4842 799.553 L16.4842 785.04 Q16.4842 777.051 20.1126 772.977 Q23.7092 768.871 30.6797 768.871 Q37.7138 768.871 41.3104 772.977 Q44.907 777.051 44.907 785.04 L44.907 793.124 L64.0042 793.124 L64.0042 799.553 L16.4842 799.553 Z" fill="#000000" fill-rule="evenodd" fill-opacity="1" /><path clip-path="url(#clip740)" d="M 0 0 M14.5426 748.66 Q21.8632 752.925 29.0246 754.993 Q36.186 757.062 43.5384 757.062 Q50.8908 757.062 58.1159 754.993 Q65.3091 752.893 72.5979 748.66 L72.5979 753.752 Q65.1182 758.526 57.8931 760.914 Q50.668 763.269 43.5384 763.269 Q36.4406 763.269 29.2474 760.914 Q22.0542 758.558 14.5426 753.752 L14.5426 748.66 Z" fill="#000000" fill-rule="evenodd" fill-opacity="1" /><path clip-path="url(#clip740)" d="M 0 0 M35.1993 714.762 Q31.2526 712.566 29.3747 709.51 Q27.4968 706.455 27.4968 702.317 Q27.4968 696.747 31.4117 693.723 Q35.2948 690.7 42.4881 690.7 L64.0042 690.7 L64.0042 696.588 L42.679 696.588 Q37.5546 696.588 35.072 698.402 Q32.5894 700.216 32.5894 703.94 Q32.5894 708.492 35.6131 711.134 Q38.6368 713.775 43.8567 713.775 L64.0042 713.775 L64.0042 719.664 L42.679 719.664 Q37.5228 719.664 35.072 721.478 Q32.5894 723.292 32.5894 727.08 Q32.5894 731.568 35.6449 734.209 Q38.6686 736.851 43.8567 736.851 L64.0042 736.851 L64.0042 742.739 L28.3562 742.739 L28.3562 736.851 L33.8944 736.851 Q30.616 734.846 29.0564 732.045 Q27.4968 729.244 27.4968 725.393 Q27.4968 721.51 29.4702 718.804 Q31.4436 716.067 35.1993 714.762 Z" fill="#000000" fill-rule="evenodd" fill-opacity="1" /><path clip-path="url(#clip740)" d="M 0 0 M14.5426 685.48 L14.5426 680.387 Q22.0542 675.613 29.2474 673.258 Q36.4406 670.871 43.5384 670.871 Q50.668 670.871 57.8931 673.258 Q65.1182 675.613 72.5979 680.387 L72.5979 685.48 Q65.3091 681.247 58.1159 679.178 Q50.8908 677.077 43.5384 677.077 Q36.186 677.077 29.0246 679.178 Q21.8632 681.247 14.5426 685.48 Z" fill="#000000" fill-rule="evenodd" fill-opacity="1" /><path clip-path="url(#clip742)" d="
M354.438 1206.36 L354.438 1384.24 L479.906 1384.24 L479.906 1206.36 L354.438 1206.36 L354.438 1206.36  Z
  " fill="#009af9" fill-rule="evenodd" fill-opacity="1"/>
<polyline clip-path="url(#clip742)" style="stroke:#009af9; stroke-width:4; stroke-opacity:1; fill:none" points="
  354.438,1206.36 354.438,1384.24 479.906,1384.24 479.906,1206.36 354.438,1206.36 
  "/>
<path clip-path="url(#clip742)" d="
M479.906 741.369 L479.906 1384.24 L605.373 1384.24 L605.373 741.369 L479.906 741.369 L479.906 741.369  Z
  " fill="#009af9" fill-rule="evenodd" fill-opacity="1"/>
<polyline clip-path="url(#clip742)" style="stroke:#009af9; stroke-width:4; stroke-opacity:1; fill:none" points="
  479.906,741.369 479.906,1384.24 605.373,1384.24 605.373,741.369 479.906,741.369 
  "/>
<path clip-path="url(#clip742)" d="
M605.373 265.199 L605.373 1384.24 L730.84 1384.24 L730.84 265.199 L605.373 265.199 L605.373 265.199  Z
  " fill="#009af9" fill-rule="evenodd" fill-opacity="1"/>
<polyline clip-path="url(#clip742)" style="stroke:#009af9; stroke-width:4; stroke-opacity:1; fill:none" points="
  605.373,265.199 605.373,1384.24 730.84,1384.24 730.84,265.199 605.373,265.199 
  "/>
<path clip-path="url(#clip742)" d="
M730.84 87.4389 L730.84 1384.24 L856.307 1384.24 L856.307 87.4389 L730.84 87.4389 L730.84 87.4389  Z
  " fill="#009af9" fill-rule="evenodd" fill-opacity="1"/>
<polyline clip-path="url(#clip742)" style="stroke:#009af9; stroke-width:4; stroke-opacity:1; fill:none" points="
  730.84,87.4389 730.84,1384.24 856.307,1384.24 856.307,87.4389 730.84,87.4389 
  "/>
<path clip-path="url(#clip742)" d="
M856.307 251.072 L856.307 1384.24 L981.775 1384.24 L981.775 251.072 L856.307 251.072 L856.307 251.072  Z
  " fill="#009af9" fill-rule="evenodd" fill-opacity="1"/>
<polyline clip-path="url(#clip742)" style="stroke:#009af9; stroke-width:4; stroke-opacity:1; fill:none" points="
  856.307,251.072 856.307,1384.24 981.775,1384.24 981.775,251.072 856.307,251.072 
  "/>
<path clip-path="url(#clip742)" d="
M981.775 602.083 L981.775 1384.24 L1107.24 1384.24 L1107.24 602.083 L981.775 602.083 L981.775 602.083  Z
  " fill="#009af9" fill-rule="evenodd" fill-opacity="1"/>
<polyline clip-path="url(#clip742)" style="stroke:#009af9; stroke-width:4; stroke-opacity:1; fill:none" points="
  981.775,602.083 981.775,1384.24 1107.24,1384.24 1107.24,602.083 981.775,602.083 
  "/>
<path clip-path="url(#clip742)" d="
M1107.24 914.079 L1107.24 1384.24 L1232.71 1384.24 L1232.71 914.079 L1107.24 914.079 L1107.24 914.079  Z
  " fill="#009af9" fill-rule="evenodd" fill-opacity="1"/>
<polyline clip-path="url(#clip742)" style="stroke:#009af9; stroke-width:4; stroke-opacity:1; fill:none" points="
  1107.24,914.079 1107.24,1384.24 1232.71,1384.24 1232.71,914.079 1107.24,914.079 
  "/>
<path clip-path="url(#clip742)" d="
M1232.71 1154.96 L1232.71 1384.24 L1358.18 1384.24 L1358.18 1154.96 L1232.71 1154.96 L1232.71 1154.96  Z
  " fill="#009af9" fill-rule="evenodd" fill-opacity="1"/>
<polyline clip-path="url(#clip742)" style="stroke:#009af9; stroke-width:4; stroke-opacity:1; fill:none" points="
  1232.71,1154.96 1232.71,1384.24 1358.18,1384.24 1358.18,1154.96 1232.71,1154.96 
  "/>
<path clip-path="url(#clip742)" d="
M1358.18 1285.53 L1358.18 1384.24 L1483.64 1384.24 L1483.64 1285.53 L1358.18 1285.53 L1358.18 1285.53  Z
  " fill="#009af9" fill-rule="evenodd" fill-opacity="1"/>
<polyline clip-path="url(#clip742)" style="stroke:#009af9; stroke-width:4; stroke-opacity:1; fill:none" points="
  1358.18,1285.53 1358.18,1384.24 1483.64,1384.24 1483.64,1285.53 1358.18,1285.53 
  "/>
<path clip-path="url(#clip742)" d="
M1483.64 1347.99 L1483.64 1384.24 L1609.11 1384.24 L1609.11 1347.99 L1483.64 1347.99 L1483.64 1347.99  Z
  " fill="#009af9" fill-rule="evenodd" fill-opacity="1"/>
<polyline clip-path="url(#clip742)" style="stroke:#009af9; stroke-width:4; stroke-opacity:1; fill:none" points="
  1483.64,1347.99 1483.64,1384.24 1609.11,1384.24 1609.11,1347.99 1483.64,1347.99 
  "/>
<path clip-path="url(#clip742)" d="
M1609.11 1370.95 L1609.11 1384.24 L1734.58 1384.24 L1734.58 1370.95 L1609.11 1370.95 L1609.11 1370.95  Z
  " fill="#009af9" fill-rule="evenodd" fill-opacity="1"/>
<polyline clip-path="url(#clip742)" style="stroke:#009af9; stroke-width:4; stroke-opacity:1; fill:none" points="
  1609.11,1370.95 1609.11,1384.24 1734.58,1384.24 1734.58,1370.95 1609.11,1370.95 
  "/>
<path clip-path="url(#clip742)" d="
M1734.58 1380.03 L1734.58 1384.24 L1860.05 1384.24 L1860.05 1380.03 L1734.58 1380.03 L1734.58 1380.03  Z
  " fill="#009af9" fill-rule="evenodd" fill-opacity="1"/>
<polyline clip-path="url(#clip742)" style="stroke:#009af9; stroke-width:4; stroke-opacity:1; fill:none" points="
  1734.58,1380.03 1734.58,1384.24 1860.05,1384.24 1860.05,1380.03 1734.58,1380.03 
  "/>
<path clip-path="url(#clip742)" d="
M1860.05 1382.98 L1860.05 1384.24 L1985.51 1384.24 L1985.51 1382.98 L1860.05 1382.98 L1860.05 1382.98  Z
  " fill="#009af9" fill-rule="evenodd" fill-opacity="1"/>
<polyline clip-path="url(#clip742)" style="stroke:#009af9; stroke-width:4; stroke-opacity:1; fill:none" points="
  1860.05,1382.98 1860.05,1384.24 1985.51,1384.24 1985.51,1382.98 1860.05,1382.98 
  "/>
<path clip-path="url(#clip742)" d="
M1985.51 1383.94 L1985.51 1384.24 L2110.98 1384.24 L2110.98 1383.94 L1985.51 1383.94 L1985.51 1383.94  Z
  " fill="#009af9" fill-rule="evenodd" fill-opacity="1"/>
<polyline clip-path="url(#clip742)" style="stroke:#009af9; stroke-width:4; stroke-opacity:1; fill:none" points="
  1985.51,1383.94 1985.51,1384.24 2110.98,1384.24 2110.98,1383.94 1985.51,1383.94 
  "/>
<path clip-path="url(#clip742)" d="
M2110.98 1384.18 L2110.98 1384.24 L2236.45 1384.24 L2236.45 1384.18 L2110.98 1384.18 L2110.98 1384.18  Z
  " fill="#009af9" fill-rule="evenodd" fill-opacity="1"/>
<polyline clip-path="url(#clip742)" style="stroke:#009af9; stroke-width:4; stroke-opacity:1; fill:none" points="
  2110.98,1384.18 2110.98,1384.24 2236.45,1384.24 2236.45,1384.18 2110.98,1384.18 
  "/>
<polyline clip-path="url(#clip742)" style="stroke:#e26f46; stroke-width:12; stroke-opacity:1; fill:none" points="
  354.438,1160 366.985,1136.77 379.532,1111.92 392.078,1085.43 404.625,1057.3 417.172,1027.55 429.719,996.2 442.265,963.307 454.812,928.933 467.359,893.162 
  479.906,856.096 492.452,817.859 504.999,778.593 517.546,738.458 530.092,697.635 542.639,656.321 555.186,614.73 567.733,573.091 580.279,531.648 592.826,490.652 
  605.373,450.366 617.92,411.058 630.466,372.998 643.013,336.458 655.56,301.706 668.106,269.003 680.653,238.6 693.2,210.739 705.747,185.64 718.293,163.51 
  730.84,144.53 743.387,128.859 755.934,116.629 768.48,107.945 781.027,102.879 793.574,101.476 806.121,103.748 818.667,109.675 831.214,119.206 843.761,132.261 
  856.307,148.728 868.854,168.468 881.401,191.318 893.948,217.09 906.494,245.574 919.041,276.542 931.588,309.754 944.135,344.953 956.681,381.877 969.228,420.256 
  981.775,459.82 994.321,500.298 1006.87,541.423 1019.41,582.936 1031.96,624.584 1044.51,666.13 1057.06,707.347 1069.6,748.024 1082.15,787.969 1094.7,827.006 
  1107.24,864.978 1119.79,901.747 1132.34,937.196 1144.88,971.227 1157.43,1003.76 1169.98,1034.73 1182.52,1064.1 1195.07,1091.85 1207.62,1117.95 1220.16,1142.41 
  1232.71,1165.26 1245.26,1186.52 1257.8,1206.22 1270.35,1224.42 1282.9,1241.17 1295.44,1256.53 1307.99,1270.57 1320.54,1283.35 1333.08,1294.96 1345.63,1305.45 
  1358.18,1314.91 1370.72,1323.41 1383.27,1331.02 1395.82,1337.81 1408.36,1343.85 1420.91,1349.21 1433.46,1353.94 1446,1358.11 1458.55,1361.77 1471.1,1364.97 
  1483.64,1367.76 1496.19,1370.19 1508.74,1372.29 1521.28,1374.11 1533.83,1375.68 1546.38,1377.02 1558.92,1378.17 1571.47,1379.16 1584.02,1379.99 1596.56,1380.7 
  1609.11,1381.3 1621.66,1381.8 1634.2,1382.23 1646.75,1382.58 1659.3,1382.88 1671.84,1383.12 1684.39,1383.33 1696.94,1383.5 1709.49,1383.64 1722.03,1383.75 
  1734.58,1383.84 1747.13,1383.92 1759.67,1383.98 1772.22,1384.03 1784.77,1384.08 1797.31,1384.11 1809.86,1384.14 1822.41,1384.16 1834.95,1384.17 1847.5,1384.19 
  1860.05,1384.2 1872.59,1384.21 1885.14,1384.21 1897.69,1384.22 1910.23,1384.22 1922.78,1384.23 1935.33,1384.23 1947.87,1384.23 1960.42,1384.23 1972.97,1384.23 
  1985.51,1384.24 1998.06,1384.24 2010.61,1384.24 2023.15,1384.24 2035.7,1384.24 2048.25,1384.24 2060.79,1384.24 2073.34,1384.24 2085.89,1384.24 2098.43,1384.24 
  2110.98,1384.24 
  "/>
<polyline clip-path="url(#clip742)" style="stroke:#3da44d; stroke-width:12; stroke-opacity:1; fill:none" points="
  354.438,1200.73 366.985,1165.68 379.532,1127.64 392.078,1086.79 404.625,1043.33 417.172,997.511 429.719,949.62 442.265,899.979 454.812,848.934 467.359,796.858 
  479.906,744.137 492.452,691.172 504.999,638.366 517.546,586.126 530.092,534.849 542.639,484.925 555.186,436.726 567.733,390.604 580.279,346.888 592.826,305.879 
  605.373,267.848 617.92,233.032 630.466,201.635 643.013,173.825 655.56,149.733 668.106,129.455 680.653,113.052 693.2,100.548 705.747,91.9338 718.293,87.17 
  730.84,86.1857 743.387,88.8829 755.934,95.1382 768.48,104.806 781.027,117.72 793.574,133.697 806.121,152.54 818.667,174.041 831.214,197.981 843.761,224.137 
  856.307,252.282 868.854,282.185 881.401,313.62 893.948,346.36 906.494,380.186 919.041,414.883 931.588,450.245 944.135,486.074 956.681,522.183 969.228,558.396 
  981.775,594.547 994.321,630.484 1006.87,666.065 1019.41,701.164 1031.96,735.663 1044.51,769.461 1057.06,802.466 1069.6,834.598 1082.15,865.791 1094.7,895.988 
  1107.24,925.142 1119.79,953.218 1132.34,980.189 1144.88,1006.04 1157.43,1030.75 1169.98,1054.32 1182.52,1076.77 1195.07,1098.08 1207.62,1118.29 1220.16,1137.41 
  1232.71,1155.47 1245.26,1172.48 1257.8,1188.49 1270.35,1203.52 1282.9,1217.61 1295.44,1230.8 1307.99,1243.12 1320.54,1254.61 1333.08,1265.31 1345.63,1275.25 
  1358.18,1284.49 1370.72,1293.05 1383.27,1300.97 1395.82,1308.29 1408.36,1315.05 1420.91,1321.27 1433.46,1327 1446,1332.26 1458.55,1337.1 1471.1,1341.52 
  1483.64,1345.58 1496.19,1349.28 1508.74,1352.67 1521.28,1355.75 1533.83,1358.56 1546.38,1361.12 1558.92,1363.44 1571.47,1365.55 1584.02,1367.46 1596.56,1369.19 
  1609.11,1370.75 1621.66,1372.17 1634.2,1373.44 1646.75,1374.59 1659.3,1375.63 1671.84,1376.56 1684.39,1377.39 1696.94,1378.15 1709.49,1378.82 1722.03,1379.42 
  1734.58,1379.96 1747.13,1380.44 1759.67,1380.88 1772.22,1381.26 1784.77,1381.6 1797.31,1381.91 1809.86,1382.18 1822.41,1382.42 1834.95,1382.64 1847.5,1382.83 
  1860.05,1383 1872.59,1383.14 1885.14,1383.28 1897.69,1383.39 1910.23,1383.5 1922.78,1383.59 1935.33,1383.67 1947.87,1383.74 1960.42,1383.8 1972.97,1383.86 
  1985.51,1383.9 1998.06,1383.95 2010.61,1383.98 2023.15,1384.02 2035.7,1384.05 2048.25,1384.07 2060.79,1384.09 2073.34,1384.11 2085.89,1384.13 2098.43,1384.14 
  2110.98,1384.16 
  "/>
<path clip-path="url(#clip740)" d="
M1810.55 335.029 L2282.27 335.029 L2282.27 93.1086 L1810.55 93.1086  Z
  " fill="#ffffff" fill-rule="evenodd" fill-opacity="1"/>
<polyline clip-path="url(#clip740)" style="stroke:#000000; stroke-width:4; stroke-opacity:1; fill:none" points="
  1810.55,335.029 2282.27,335.029 2282.27,93.1086 1810.55,93.1086 1810.55,335.029 
  "/>
<path clip-path="url(#clip740)" d="
M1834.05 177.781 L1975.02 177.781 L1975.02 129.397 L1834.05 129.397 L1834.05 177.781  Z
  " fill="#009af9" fill-rule="evenodd" fill-opacity="1"/>
<polyline clip-path="url(#clip740)" style="stroke:#009af9; stroke-width:4; stroke-opacity:1; fill:none" points="
  1834.05,177.781 1975.02,177.781 1975.02,129.397 1834.05,129.397 1834.05,177.781 
  "/>
<path clip-path="url(#clip740)" d="M 0 0 M2012.36 173.276 Q2010.56 177.906 2008.84 179.318 Q2007.13 180.73 2004.26 180.73 L2000.86 180.73 L2000.86 177.165 L2003.36 177.165 Q2005.12 177.165 2006.09 176.332 Q2007.06 175.498 2008.24 172.396 L2009 170.452 L1998.52 144.943 L2003.03 144.943 L2011.13 165.221 L2019.24 144.943 L2023.75 144.943 L2012.36 173.276 Z" fill="#000000" fill-rule="evenodd" fill-opacity="1" /><path clip-path="url(#clip740)" d="M 0 0 M2029.63 166.933 L2037.27 166.933 L2037.27 140.568 L2028.96 142.235 L2028.96 137.975 L2037.22 136.309 L2041.9 136.309 L2041.9 166.933 L2049.54 166.933 L2049.54 170.869 L2029.63 170.869 L2029.63 166.933 Z" fill="#000000" fill-rule="evenodd" fill-opacity="1" /><polyline clip-path="url(#clip740)" style="stroke:#e26f46; stroke-width:4; stroke-opacity:1; fill:none" points="
  1834.05,214.069 1975.02,214.069 
  "/>
<path clip-path="url(#clip740)" d="M 0 0 M2017.43 218.085 Q2017.43 213.455 2015.51 210.909 Q2013.61 208.363 2010.16 208.363 Q2006.74 208.363 2004.81 210.909 Q2002.92 213.455 2002.92 218.085 Q2002.92 222.691 2004.81 225.238 Q2006.74 227.784 2010.16 227.784 Q2013.61 227.784 2015.51 225.238 Q2017.43 222.691 2017.43 218.085 M2021.69 228.131 Q2021.69 234.751 2018.75 237.969 Q2015.81 241.21 2009.75 241.21 Q2007.5 241.21 2005.51 240.862 Q2003.52 240.538 2001.64 239.844 L2001.64 235.7 Q2003.52 236.719 2005.35 237.205 Q2007.18 237.691 2009.07 237.691 Q2013.26 237.691 2015.35 235.492 Q2017.43 233.316 2017.43 228.895 L2017.43 226.788 Q2016.11 229.08 2014.05 230.214 Q2011.99 231.349 2009.12 231.349 Q2004.35 231.349 2001.44 227.714 Q1998.52 224.08 1998.52 218.085 Q1998.52 212.066 2001.44 208.432 Q2004.35 204.798 2009.12 204.798 Q2011.99 204.798 2014.05 205.932 Q2016.11 207.066 2017.43 209.358 L2017.43 205.423 L2021.69 205.423 L2021.69 228.131 Z" fill="#000000" fill-rule="evenodd" fill-opacity="1" /><path clip-path="url(#clip740)" d="M 0 0 M2037.94 218.316 Q2032.78 218.316 2030.79 219.497 Q2028.8 220.677 2028.8 223.525 Q2028.8 225.793 2030.28 227.136 Q2031.78 228.455 2034.35 228.455 Q2037.89 228.455 2040.02 225.955 Q2042.18 223.432 2042.18 219.265 L2042.18 218.316 L2037.94 218.316 M2046.44 216.557 L2046.44 231.349 L2042.18 231.349 L2042.18 227.413 Q2040.72 229.775 2038.54 230.909 Q2036.37 232.02 2033.22 232.02 Q2029.24 232.02 2026.88 229.798 Q2024.54 227.552 2024.54 223.802 Q2024.54 219.427 2027.45 217.205 Q2030.39 214.983 2036.2 214.983 L2042.18 214.983 L2042.18 214.566 Q2042.18 211.627 2040.23 210.029 Q2038.31 208.409 2034.81 208.409 Q2032.59 208.409 2030.49 208.941 Q2028.38 209.474 2026.44 210.539 L2026.44 206.603 Q2028.77 205.701 2030.97 205.261 Q2033.17 204.798 2035.25 204.798 Q2040.88 204.798 2043.66 207.714 Q2046.44 210.631 2046.44 216.557 Z" fill="#000000" fill-rule="evenodd" fill-opacity="1" /><path clip-path="url(#clip740)" d="M 0 0 M2050.46 221.117 L2050.46 205.423 L2054.72 205.423 L2054.72 220.955 Q2054.72 224.636 2056.16 226.488 Q2057.59 228.316 2060.46 228.316 Q2063.91 228.316 2065.9 226.117 Q2067.92 223.918 2067.92 220.122 L2067.92 205.423 L2072.18 205.423 L2072.18 231.349 L2067.92 231.349 L2067.92 227.367 Q2066.37 229.728 2064.31 230.886 Q2062.27 232.02 2059.56 232.02 Q2055.09 232.02 2052.78 229.242 Q2050.46 226.464 2050.46 221.117 M2061.18 204.798 L2061.18 204.798 Z" fill="#000000" fill-rule="evenodd" fill-opacity="1" /><path clip-path="url(#clip740)" d="M 0 0 M2093.17 206.187 L2093.17 210.214 Q2091.37 209.289 2089.42 208.826 Q2087.48 208.363 2085.39 208.363 Q2082.22 208.363 2080.62 209.335 Q2079.05 210.307 2079.05 212.251 Q2079.05 213.733 2080.18 214.589 Q2081.32 215.423 2084.75 216.187 L2086.2 216.511 Q2090.74 217.483 2092.64 219.265 Q2094.56 221.025 2094.56 224.196 Q2094.56 227.807 2091.69 229.913 Q2088.84 232.02 2083.84 232.02 Q2081.76 232.02 2079.49 231.603 Q2077.25 231.21 2074.75 230.4 L2074.75 226.001 Q2077.11 227.228 2079.4 227.853 Q2081.69 228.455 2083.93 228.455 Q2086.94 228.455 2088.56 227.437 Q2090.18 226.395 2090.18 224.52 Q2090.18 222.784 2089 221.858 Q2087.85 220.932 2083.89 220.076 L2082.41 219.728 Q2078.45 218.895 2076.69 217.182 Q2074.93 215.446 2074.93 212.437 Q2074.93 208.779 2077.52 206.789 Q2080.12 204.798 2084.88 204.798 Q2087.25 204.798 2089.33 205.145 Q2091.41 205.492 2093.17 206.187 Z" fill="#000000" fill-rule="evenodd" fill-opacity="1" /><path clip-path="url(#clip740)" d="M 0 0 M2115.56 206.187 L2115.56 210.214 Q2113.75 209.289 2111.81 208.826 Q2109.86 208.363 2107.78 208.363 Q2104.61 208.363 2103.01 209.335 Q2101.43 210.307 2101.43 212.251 Q2101.43 213.733 2102.57 214.589 Q2103.7 215.423 2107.13 216.187 L2108.59 216.511 Q2113.12 217.483 2115.02 219.265 Q2116.94 221.025 2116.94 224.196 Q2116.94 227.807 2114.07 229.913 Q2111.23 232.02 2106.23 232.02 Q2104.14 232.02 2101.87 231.603 Q2099.63 231.21 2097.13 230.4 L2097.13 226.001 Q2099.49 227.228 2101.78 227.853 Q2104.07 228.455 2106.32 228.455 Q2109.33 228.455 2110.95 227.437 Q2112.57 226.395 2112.57 224.52 Q2112.57 222.784 2111.39 221.858 Q2110.23 220.932 2106.27 220.076 L2104.79 219.728 Q2100.83 218.895 2099.07 217.182 Q2097.31 215.446 2097.31 212.437 Q2097.31 208.779 2099.91 206.789 Q2102.5 204.798 2107.27 204.798 Q2109.63 204.798 2111.71 205.145 Q2113.8 205.492 2115.56 206.187 Z" fill="#000000" fill-rule="evenodd" fill-opacity="1" /><path clip-path="url(#clip740)" d="M 0 0 M2121.41 205.423 L2125.67 205.423 L2125.67 231.349 L2121.41 231.349 L2121.41 205.423 M2121.41 195.33 L2125.67 195.33 L2125.67 200.724 L2121.41 200.724 L2121.41 195.33 Z" fill="#000000" fill-rule="evenodd" fill-opacity="1" /><path clip-path="url(#clip740)" d="M 0 0 M2141.92 218.316 Q2136.76 218.316 2134.77 219.497 Q2132.78 220.677 2132.78 223.525 Q2132.78 225.793 2134.26 227.136 Q2135.76 228.455 2138.33 228.455 Q2141.87 228.455 2144 225.955 Q2146.16 223.432 2146.16 219.265 L2146.16 218.316 L2141.92 218.316 M2150.42 216.557 L2150.42 231.349 L2146.16 231.349 L2146.16 227.413 Q2144.7 229.775 2142.52 230.909 Q2140.35 232.02 2137.2 232.02 Q2133.22 232.02 2130.86 229.798 Q2128.52 227.552 2128.52 223.802 Q2128.52 219.427 2131.43 217.205 Q2134.37 214.983 2140.18 214.983 L2146.16 214.983 L2146.16 214.566 Q2146.16 211.627 2144.21 210.029 Q2142.29 208.409 2138.8 208.409 Q2136.57 208.409 2134.47 208.941 Q2132.36 209.474 2130.42 210.539 L2130.42 206.603 Q2132.75 205.701 2134.95 205.261 Q2137.15 204.798 2139.24 204.798 Q2144.86 204.798 2147.64 207.714 Q2150.42 210.631 2150.42 216.557 Z" fill="#000000" fill-rule="evenodd" fill-opacity="1" /><path clip-path="url(#clip740)" d="M 0 0 M2176.43 215.701 L2176.43 231.349 L2172.18 231.349 L2172.18 215.839 Q2172.18 212.159 2170.74 210.33 Q2169.3 208.502 2166.43 208.502 Q2162.99 208.502 2160.99 210.701 Q2159 212.9 2159 216.696 L2159 231.349 L2154.72 231.349 L2154.72 205.423 L2159 205.423 L2159 209.451 Q2160.53 207.113 2162.59 205.955 Q2164.68 204.798 2167.38 204.798 Q2171.85 204.798 2174.14 207.576 Q2176.43 210.33 2176.43 215.701 Z" fill="#000000" fill-rule="evenodd" fill-opacity="1" /><path clip-path="url(#clip740)" d="M 0 0 M2209.1 195.33 L2209.1 198.872 L2205.02 198.872 Q2202.73 198.872 2201.83 199.798 Q2200.95 200.724 2200.95 203.131 L2200.95 205.423 L2207.96 205.423 L2207.96 208.733 L2200.95 208.733 L2200.95 231.349 L2196.67 231.349 L2196.67 208.733 L2192.59 208.733 L2192.59 205.423 L2196.67 205.423 L2196.67 203.617 Q2196.67 199.289 2198.68 197.321 Q2200.69 195.33 2205.07 195.33 L2209.1 195.33 Z" fill="#000000" fill-rule="evenodd" fill-opacity="1" /><path clip-path="url(#clip740)" d="M 0 0 M2213.56 205.423 L2217.82 205.423 L2217.82 231.349 L2213.56 231.349 L2213.56 205.423 M2213.56 195.33 L2217.82 195.33 L2217.82 200.724 L2213.56 200.724 L2213.56 195.33 Z" fill="#000000" fill-rule="evenodd" fill-opacity="1" /><path clip-path="url(#clip740)" d="M 0 0 M2226.5 198.062 L2226.5 205.423 L2235.28 205.423 L2235.28 208.733 L2226.5 208.733 L2226.5 222.807 Q2226.5 225.978 2227.36 226.881 Q2228.24 227.784 2230.9 227.784 L2235.28 227.784 L2235.28 231.349 L2230.9 231.349 Q2225.97 231.349 2224.1 229.52 Q2222.22 227.668 2222.22 222.807 L2222.22 208.733 L2219.1 208.733 L2219.1 205.423 L2222.22 205.423 L2222.22 198.062 L2226.5 198.062 Z" fill="#000000" fill-rule="evenodd" fill-opacity="1" /><polyline clip-path="url(#clip740)" style="stroke:#3da44d; stroke-width:4; stroke-opacity:1; fill:none" points="
  1834.05,274.549 1975.02,274.549 
  "/>
<path clip-path="url(#clip740)" d="M 0 0 M2002.8 287.94 L2002.8 301.69 L1998.52 301.69 L1998.52 265.903 L2002.8 265.903 L2002.8 269.838 Q2004.14 267.523 2006.18 266.412 Q2008.24 265.278 2011.09 265.278 Q2015.81 265.278 2018.75 269.028 Q2021.71 272.778 2021.71 278.889 Q2021.71 285 2018.75 288.75 Q2015.81 292.5 2011.09 292.5 Q2008.24 292.5 2006.18 291.389 Q2004.14 290.255 2002.8 287.94 M2017.29 278.889 Q2017.29 274.19 2015.35 271.528 Q2013.43 268.843 2010.05 268.843 Q2006.67 268.843 2004.72 271.528 Q2002.8 274.19 2002.8 278.889 Q2002.8 283.588 2004.72 286.273 Q2006.67 288.935 2010.05 288.935 Q2013.43 288.935 2015.35 286.273 Q2017.29 283.588 2017.29 278.889 Z" fill="#000000" fill-rule="evenodd" fill-opacity="1" /><path clip-path="url(#clip740)" d="M 0 0 M2036.23 268.889 Q2032.8 268.889 2030.81 271.574 Q2028.82 274.236 2028.82 278.889 Q2028.82 283.542 2030.79 286.227 Q2032.78 288.889 2036.23 288.889 Q2039.63 288.889 2041.62 286.204 Q2043.61 283.518 2043.61 278.889 Q2043.61 274.282 2041.62 271.597 Q2039.63 268.889 2036.23 268.889 M2036.23 265.278 Q2041.78 265.278 2044.95 268.889 Q2048.12 272.5 2048.12 278.889 Q2048.12 285.255 2044.95 288.889 Q2041.78 292.5 2036.23 292.5 Q2030.65 292.5 2027.48 288.889 Q2024.33 285.255 2024.33 278.889 Q2024.33 272.5 2027.48 268.889 Q2030.65 265.278 2036.23 265.278 Z" fill="#000000" fill-rule="evenodd" fill-opacity="1" /><path clip-path="url(#clip740)" d="M 0 0 M2052.59 265.903 L2056.85 265.903 L2056.85 291.829 L2052.59 291.829 L2052.59 265.903 M2052.59 255.81 L2056.85 255.81 L2056.85 261.204 L2052.59 261.204 L2052.59 255.81 Z" fill="#000000" fill-rule="evenodd" fill-opacity="1" /><path clip-path="url(#clip740)" d="M 0 0 M2077.85 266.667 L2077.85 270.694 Q2076.04 269.769 2074.1 269.306 Q2072.15 268.843 2070.07 268.843 Q2066.9 268.843 2065.3 269.815 Q2063.73 270.787 2063.73 272.731 Q2063.73 274.213 2064.86 275.069 Q2066 275.903 2069.42 276.667 L2070.88 276.991 Q2075.42 277.963 2077.31 279.745 Q2079.24 281.505 2079.24 284.676 Q2079.24 288.287 2076.37 290.393 Q2073.52 292.5 2068.52 292.5 Q2066.44 292.5 2064.17 292.083 Q2061.92 291.69 2059.42 290.88 L2059.42 286.481 Q2061.78 287.708 2064.07 288.333 Q2066.37 288.935 2068.61 288.935 Q2071.62 288.935 2073.24 287.917 Q2074.86 286.875 2074.86 285 Q2074.86 283.264 2073.68 282.338 Q2072.52 281.412 2068.56 280.556 L2067.08 280.208 Q2063.12 279.375 2061.37 277.662 Q2059.61 275.926 2059.61 272.917 Q2059.61 269.259 2062.2 267.269 Q2064.79 265.278 2069.56 265.278 Q2071.92 265.278 2074 265.625 Q2076.09 265.972 2077.85 266.667 Z" fill="#000000" fill-rule="evenodd" fill-opacity="1" /><path clip-path="url(#clip740)" d="M 0 0 M2100.23 266.667 L2100.23 270.694 Q2098.43 269.769 2096.48 269.306 Q2094.54 268.843 2092.45 268.843 Q2089.28 268.843 2087.68 269.815 Q2086.11 270.787 2086.11 272.731 Q2086.11 274.213 2087.25 275.069 Q2088.38 275.903 2091.81 276.667 L2093.26 276.991 Q2097.8 277.963 2099.7 279.745 Q2101.62 281.505 2101.62 284.676 Q2101.62 288.287 2098.75 290.393 Q2095.9 292.5 2090.9 292.5 Q2088.82 292.5 2086.55 292.083 Q2084.31 291.69 2081.81 290.88 L2081.81 286.481 Q2084.17 287.708 2086.46 288.333 Q2088.75 288.935 2091 288.935 Q2094 288.935 2095.62 287.917 Q2097.25 286.875 2097.25 285 Q2097.25 283.264 2096.06 282.338 Q2094.91 281.412 2090.95 280.556 L2089.47 280.208 Q2085.51 279.375 2083.75 277.662 Q2081.99 275.926 2081.99 272.917 Q2081.99 269.259 2084.58 267.269 Q2087.18 265.278 2091.94 265.278 Q2094.31 265.278 2096.39 265.625 Q2098.47 265.972 2100.23 266.667 Z" fill="#000000" fill-rule="evenodd" fill-opacity="1" /><path clip-path="url(#clip740)" d="M 0 0 M2116.13 268.889 Q2112.71 268.889 2110.72 271.574 Q2108.73 274.236 2108.73 278.889 Q2108.73 283.542 2110.69 286.227 Q2112.68 288.889 2116.13 288.889 Q2119.54 288.889 2121.53 286.204 Q2123.52 283.518 2123.52 278.889 Q2123.52 274.282 2121.53 271.597 Q2119.54 268.889 2116.13 268.889 M2116.13 265.278 Q2121.69 265.278 2124.86 268.889 Q2128.03 272.5 2128.03 278.889 Q2128.03 285.255 2124.86 288.889 Q2121.69 292.5 2116.13 292.5 Q2110.56 292.5 2107.38 288.889 Q2104.24 285.255 2104.24 278.889 Q2104.24 272.5 2107.38 268.889 Q2110.56 265.278 2116.13 265.278 Z" fill="#000000" fill-rule="evenodd" fill-opacity="1" /><path clip-path="url(#clip740)" d="M 0 0 M2154.05 276.181 L2154.05 291.829 L2149.79 291.829 L2149.79 276.319 Q2149.79 272.639 2148.36 270.81 Q2146.92 268.982 2144.05 268.982 Q2140.6 268.982 2138.61 271.181 Q2136.62 273.38 2136.62 277.176 L2136.62 291.829 L2132.34 291.829 L2132.34 265.903 L2136.62 265.903 L2136.62 269.931 Q2138.15 267.593 2140.21 266.435 Q2142.29 265.278 2145 265.278 Q2149.47 265.278 2151.76 268.056 Q2154.05 270.81 2154.05 276.181 Z" fill="#000000" fill-rule="evenodd" fill-opacity="1" /><path clip-path="url(#clip740)" d="M 0 0 M2186.71 255.81 L2186.71 259.352 L2182.64 259.352 Q2180.35 259.352 2179.44 260.278 Q2178.56 261.204 2178.56 263.611 L2178.56 265.903 L2185.58 265.903 L2185.58 269.213 L2178.56 269.213 L2178.56 291.829 L2174.28 291.829 L2174.28 269.213 L2170.21 269.213 L2170.21 265.903 L2174.28 265.903 L2174.28 264.097 Q2174.28 259.769 2176.3 257.801 Q2178.31 255.81 2182.68 255.81 L2186.71 255.81 Z" fill="#000000" fill-rule="evenodd" fill-opacity="1" /><path clip-path="url(#clip740)" d="M 0 0 M2191.18 265.903 L2195.44 265.903 L2195.44 291.829 L2191.18 291.829 L2191.18 265.903 M2191.18 255.81 L2195.44 255.81 L2195.44 261.204 L2191.18 261.204 L2191.18 255.81 Z" fill="#000000" fill-rule="evenodd" fill-opacity="1" /><path clip-path="url(#clip740)" d="M 0 0 M2204.12 258.542 L2204.12 265.903 L2212.89 265.903 L2212.89 269.213 L2204.12 269.213 L2204.12 283.287 Q2204.12 286.458 2204.98 287.361 Q2205.86 288.264 2208.52 288.264 L2212.89 288.264 L2212.89 291.829 L2208.52 291.829 Q2203.59 291.829 2201.71 290 Q2199.84 288.148 2199.84 283.287 L2199.84 269.213 L2196.71 269.213 L2196.71 265.903 L2199.84 265.903 L2199.84 258.542 L2204.12 258.542 Z" fill="#000000" fill-rule="evenodd" fill-opacity="1" /></svg>
