<?xml version="1.0" encoding="utf-8"?>
<svg xmlns="http://www.w3.org/2000/svg" xmlns:xlink="http://www.w3.org/1999/xlink" width="600" height="400" viewBox="0 0 2400 1600">
<defs>
  <clipPath id="clip710">
    <rect x="0" y="0" width="2400" height="1600"/>
  </clipPath>
</defs>
<path clip-path="url(#clip710)" d="
M0 1600 L2400 1600 L2400 0 L0 0  Z
  " fill="#ffffff" fill-rule="evenodd" fill-opacity="1"/>
<defs>
  <clipPath id="clip711">
    <rect x="480" y="0" width="1681" height="1600"/>
  </clipPath>
</defs>
<path clip-path="url(#clip710)" d="
M238.13 1423.18 L2352.76 1423.18 L2352.76 47.2441 L238.13 47.2441  Z
  " fill="#ffffff" fill-rule="evenodd" fill-opacity="1"/>
<defs>
  <clipPath id="clip712">
    <rect x="238" y="47" width="2116" height="1377"/>
  </clipPath>
</defs>
<polyline clip-path="url(#clip712)" style="stroke:#000000; stroke-width:2; stroke-opacity:0.1; fill:none" points="
  354.438,1423.18 354.438,47.2441 
  "/>
<polyline clip-path="url(#clip712)" style="stroke:#000000; stroke-width:2; stroke-opacity:0.1; fill:none" points="
  782.168,1423.18 782.168,47.2441 
  "/>
<polyline clip-path="url(#clip712)" style="stroke:#000000; stroke-width:2; stroke-opacity:0.1; fill:none" points="
  1209.9,1423.18 1209.9,47.2441 
  "/>
<polyline clip-path="url(#clip712)" style="stroke:#000000; stroke-width:2; stroke-opacity:0.1; fill:none" points="
  1637.63,1423.18 1637.63,47.2441 
  "/>
<polyline clip-path="url(#clip712)" style="stroke:#000000; stroke-width:2; stroke-opacity:0.1; fill:none" points="
  2065.36,1423.18 2065.36,47.2441 
  "/>
<polyline clip-path="url(#clip710)" style="stroke:#000000; stroke-width:4; stroke-opacity:1; fill:none" points="
  238.13,1423.18 2352.76,1423.18 
  "/>
<polyline clip-path="url(#clip710)" style="stroke:#000000; stroke-width:4; stroke-opacity:1; fill:none" points="
  354.438,1423.18 354.438,1406.67 
  "/>
<polyline clip-path="url(#clip710)" style="stroke:#000000; stroke-width:4; stroke-opacity:1; fill:none" points="
  782.168,1423.18 782.168,1406.67 
  "/>
<polyline clip-path="url(#clip710)" style="stroke:#000000; stroke-width:4; stroke-opacity:1; fill:none" points="
  1209.9,1423.18 1209.9,1406.67 
  "/>
<polyline clip-path="url(#clip710)" style="stroke:#000000; stroke-width:4; stroke-opacity:1; fill:none" points="
  1637.63,1423.18 1637.63,1406.67 
  "/>
<polyline clip-path="url(#clip710)" style="stroke:#000000; stroke-width:4; stroke-opacity:1; fill:none" points="
  2065.36,1423.18 2065.36,1406.67 
  "/>
<path clip-path="url(#clip710)" d="M 0 0 M354.438 1452.37 Q350.827 1452.37 348.998 1455.94 Q347.193 1459.48 347.193 1466.61 Q347.193 1473.71 348.998 1477.28 Q350.827 1480.82 354.438 1480.82 Q358.072 1480.82 359.878 1477.28 Q361.707 1473.71 361.707 1466.61 Q361.707 1459.48 359.878 1455.94 Q358.072 1452.37 354.438 1452.37 M354.438 1448.67 Q360.248 1448.67 363.304 1453.27 Q366.383 1457.86 366.383 1466.61 Q366.383 1475.33 363.304 1479.94 Q360.248 1484.52 354.438 1484.52 Q348.628 1484.52 345.549 1479.94 Q342.494 1475.33 342.494 1466.61 Q342.494 1457.86 345.549 1453.27 Q348.628 1448.67 354.438 1448.67 Z" fill="#000000" fill-rule="evenodd" fill-opacity="1" /><path clip-path="url(#clip710)" d="M 0 0 M772.445 1449.29 L790.802 1449.29 L790.802 1453.23 L776.728 1453.23 L776.728 1461.7 Q777.746 1461.35 778.765 1461.19 Q779.783 1461 780.802 1461 Q786.589 1461 789.969 1464.18 Q793.348 1467.35 793.348 1472.76 Q793.348 1478.34 789.876 1481.44 Q786.404 1484.52 780.084 1484.52 Q777.908 1484.52 775.64 1484.15 Q773.395 1483.78 770.987 1483.04 L770.987 1478.34 Q773.07 1479.48 775.293 1480.03 Q777.515 1480.59 779.992 1480.59 Q783.996 1480.59 786.334 1478.48 Q788.672 1476.38 788.672 1472.76 Q788.672 1469.15 786.334 1467.05 Q783.996 1464.94 779.992 1464.94 Q778.117 1464.94 776.242 1465.36 Q774.39 1465.77 772.445 1466.65 L772.445 1449.29 Z" fill="#000000" fill-rule="evenodd" fill-opacity="1" /><path clip-path="url(#clip710)" d="M 0 0 M1186.77 1479.92 L1194.41 1479.92 L1194.41 1453.55 L1186.1 1455.22 L1186.1 1450.96 L1194.36 1449.29 L1199.04 1449.29 L1199.04 1479.92 L1206.68 1479.92 L1206.68 1483.85 L1186.77 1483.85 L1186.77 1479.92 Z" fill="#000000" fill-rule="evenodd" fill-opacity="1" /><path clip-path="url(#clip710)" d="M 0 0 M1221.75 1452.37 Q1218.14 1452.37 1216.31 1455.94 Q1214.5 1459.48 1214.5 1466.61 Q1214.5 1473.71 1216.31 1477.28 Q1218.14 1480.82 1221.75 1480.82 Q1225.38 1480.82 1227.19 1477.28 Q1229.02 1473.71 1229.02 1466.61 Q1229.02 1459.48 1227.19 1455.94 Q1225.38 1452.37 1221.75 1452.37 M1221.75 1448.67 Q1227.56 1448.67 1230.61 1453.27 Q1233.69 1457.86 1233.69 1466.61 Q1233.69 1475.33 1230.61 1479.94 Q1227.56 1484.52 1221.75 1484.52 Q1215.94 1484.52 1212.86 1479.94 Q1209.8 1475.33 1209.8 1466.61 Q1209.8 1457.86 1212.86 1453.27 Q1215.94 1448.67 1221.75 1448.67 Z" fill="#000000" fill-rule="evenodd" fill-opacity="1" /><path clip-path="url(#clip710)" d="M 0 0 M1615 1479.92 L1622.64 1479.92 L1622.64 1453.55 L1614.33 1455.22 L1614.33 1450.96 L1622.59 1449.29 L1627.27 1449.29 L1627.27 1479.92 L1634.91 1479.92 L1634.91 1483.85 L1615 1483.85 L1615 1479.92 Z" fill="#000000" fill-rule="evenodd" fill-opacity="1" /><path clip-path="url(#clip710)" d="M 0 0 M1640.02 1449.29 L1658.38 1449.29 L1658.38 1453.23 L1644.3 1453.23 L1644.3 1461.7 Q1645.32 1461.35 1646.34 1461.19 Q1647.36 1461 1648.38 1461 Q1654.17 1461 1657.55 1464.18 Q1660.93 1467.35 1660.93 1472.76 Q1660.93 1478.34 1657.45 1481.44 Q1653.98 1484.52 1647.66 1484.52 Q1645.49 1484.52 1643.22 1484.15 Q1640.97 1483.78 1638.56 1483.04 L1638.56 1478.34 Q1640.65 1479.48 1642.87 1480.03 Q1645.09 1480.59 1647.57 1480.59 Q1651.57 1480.59 1653.91 1478.48 Q1656.25 1476.38 1656.25 1472.76 Q1656.25 1469.15 1653.91 1467.05 Q1651.57 1464.94 1647.57 1464.94 Q1645.69 1464.94 1643.82 1465.36 Q1641.97 1465.77 1640.02 1466.65 L1640.02 1449.29 Z" fill="#000000" fill-rule="evenodd" fill-opacity="1" /><path clip-path="url(#clip710)" d="M 0 0 M2046.5 1479.92 L2062.82 1479.92 L2062.82 1483.85 L2040.88 1483.85 L2040.88 1479.92 Q2043.54 1477.16 2048.12 1472.53 Q2052.73 1467.88 2053.91 1466.54 Q2056.15 1464.01 2057.03 1462.28 Q2057.94 1460.52 2057.94 1458.83 Q2057.94 1456.07 2055.99 1454.34 Q2054.07 1452.6 2050.97 1452.6 Q2048.77 1452.6 2046.32 1453.37 Q2043.89 1454.13 2041.11 1455.68 L2041.11 1450.96 Q2043.93 1449.82 2046.39 1449.25 Q2048.84 1448.67 2050.88 1448.67 Q2056.25 1448.67 2059.44 1451.35 Q2062.64 1454.04 2062.64 1458.53 Q2062.64 1460.66 2061.83 1462.58 Q2061.04 1464.48 2058.93 1467.07 Q2058.35 1467.74 2055.25 1470.96 Q2052.15 1474.15 2046.5 1479.92 Z" fill="#000000" fill-rule="evenodd" fill-opacity="1" /><path clip-path="url(#clip710)" d="M 0 0 M2077.89 1452.37 Q2074.28 1452.37 2072.45 1455.94 Q2070.65 1459.48 2070.65 1466.61 Q2070.65 1473.71 2072.45 1477.28 Q2074.28 1480.82 2077.89 1480.82 Q2081.52 1480.82 2083.33 1477.28 Q2085.16 1473.71 2085.16 1466.61 Q2085.16 1459.48 2083.33 1455.94 Q2081.52 1452.37 2077.89 1452.37 M2077.89 1448.67 Q2083.7 1448.67 2086.76 1453.27 Q2089.83 1457.86 2089.83 1466.61 Q2089.83 1475.33 2086.76 1479.94 Q2083.7 1484.52 2077.89 1484.52 Q2072.08 1484.52 2069 1479.94 Q2065.95 1475.33 2065.95 1466.61 Q2065.95 1457.86 2069 1453.27 Q2072.08 1448.67 2077.89 1448.67 Z" fill="#000000" fill-rule="evenodd" fill-opacity="1" /><path clip-path="url(#clip710)" d="M 0 0 M1297.4 1539.24 Q1299.6 1535.29 1302.65 1533.41 Q1305.71 1531.54 1309.85 1531.54 Q1315.42 1531.54 1318.44 1535.45 Q1321.46 1539.33 1321.46 1546.53 L1321.46 1568.04 L1315.57 1568.04 L1315.57 1546.72 Q1315.57 1541.59 1313.76 1539.11 Q1311.95 1536.63 1308.22 1536.63 Q1303.67 1536.63 1301.03 1539.65 Q1298.39 1542.68 1298.39 1547.9 L1298.39 1568.04 L1292.5 1568.04 L1292.5 1546.72 Q1292.5 1541.56 1290.68 1539.11 Q1288.87 1536.63 1285.08 1536.63 Q1280.59 1536.63 1277.95 1539.68 Q1275.31 1542.71 1275.31 1547.9 L1275.31 1568.04 L1269.42 1568.04 L1269.42 1532.4 L1275.31 1532.4 L1275.31 1537.93 Q1277.32 1534.66 1280.12 1533.1 Q1282.92 1531.54 1286.77 1531.54 Q1290.65 1531.54 1293.36 1533.51 Q1296.1 1535.48 1297.4 1539.24 Z" fill="#000000" fill-rule="evenodd" fill-opacity="1" /><polyline clip-path="url(#clip712)" style="stroke:#000000; stroke-width:2; stroke-opacity:0.1; fill:none" points="
  238.13,1384.24 2352.76,1384.24 
  "/>
<polyline clip-path="url(#clip712)" style="stroke:#000000; stroke-width:2; stroke-opacity:0.1; fill:none" points="
  238.13,957.068 2352.76,957.068 
  "/>
<polyline clip-path="url(#clip712)" style="stroke:#000000; stroke-width:2; stroke-opacity:0.1; fill:none" points="
  238.13,529.897 2352.76,529.897 
  "/>
<polyline clip-path="url(#clip712)" style="stroke:#000000; stroke-width:2; stroke-opacity:0.1; fill:none" points="
  238.13,102.726 2352.76,102.726 
  "/>
<polyline clip-path="url(#clip710)" style="stroke:#000000; stroke-width:4; stroke-opacity:1; fill:none" points="
  238.13,1423.18 238.13,47.2441 
  "/>
<polyline clip-path="url(#clip710)" style="stroke:#000000; stroke-width:4; stroke-opacity:1; fill:none" points="
  238.13,1384.24 263.506,1384.24 
  "/>
<polyline clip-path="url(#clip710)" style="stroke:#000000; stroke-width:4; stroke-opacity:1; fill:none" points="
  238.13,957.068 263.506,957.068 
  "/>
<polyline clip-path="url(#clip710)" style="stroke:#000000; stroke-width:4; stroke-opacity:1; fill:none" points="
  238.13,529.897 263.506,529.897 
  "/>
<polyline clip-path="url(#clip710)" style="stroke:#000000; stroke-width:4; stroke-opacity:1; fill:none" points="
  238.13,102.726 263.506,102.726 
  "/>
<path clip-path="url(#clip710)" d="M 0 0 M126.205 1370.04 Q122.593 1370.04 120.765 1373.6 Q118.959 1377.14 118.959 1384.27 Q118.959 1391.38 120.765 1394.94 Q122.593 1398.49 126.205 1398.49 Q129.839 1398.49 131.644 1394.94 Q133.473 1391.38 133.473 1384.27 Q133.473 1377.14 131.644 1373.6 Q129.839 1370.04 126.205 1370.04 M126.205 1366.33 Q132.015 1366.33 135.07 1370.94 Q138.149 1375.52 138.149 1384.27 Q138.149 1393 135.07 1397.61 Q132.015 1402.19 126.205 1402.19 Q120.394 1402.19 117.316 1397.61 Q114.26 1393 114.26 1384.27 Q114.26 1375.52 117.316 1370.94 Q120.394 1366.33 126.205 1366.33 Z" fill="#000000" fill-rule="evenodd" fill-opacity="1" /><path clip-path="url(#clip710)" d="M 0 0 M143.218 1395.64 L148.103 1395.64 L148.103 1401.52 L143.218 1401.52 L143.218 1395.64 Z" fill="#000000" fill-rule="evenodd" fill-opacity="1" /><path clip-path="url(#clip710)" d="M 0 0 M163.172 1370.04 Q159.561 1370.04 157.732 1373.6 Q155.927 1377.14 155.927 1384.27 Q155.927 1391.38 157.732 1394.94 Q159.561 1398.49 163.172 1398.49 Q166.806 1398.49 168.612 1394.94 Q170.44 1391.38 170.44 1384.27 Q170.44 1377.14 168.612 1373.6 Q166.806 1370.04 163.172 1370.04 M163.172 1366.33 Q168.982 1366.33 172.038 1370.94 Q175.116 1375.52 175.116 1384.27 Q175.116 1393 172.038 1397.61 Q168.982 1402.19 163.172 1402.19 Q157.362 1402.19 154.283 1397.61 Q151.228 1393 151.228 1384.27 Q151.228 1375.52 154.283 1370.94 Q157.362 1366.33 163.172 1366.33 Z" fill="#000000" fill-rule="evenodd" fill-opacity="1" /><path clip-path="url(#clip710)" d="M 0 0 M190.186 1370.04 Q186.575 1370.04 184.746 1373.6 Q182.94 1377.14 182.94 1384.27 Q182.94 1391.38 184.746 1394.94 Q186.575 1398.49 190.186 1398.49 Q193.82 1398.49 195.625 1394.94 Q197.454 1391.38 197.454 1384.27 Q197.454 1377.14 195.625 1373.6 Q193.82 1370.04 190.186 1370.04 M190.186 1366.33 Q195.996 1366.33 199.051 1370.94 Q202.13 1375.52 202.13 1384.27 Q202.13 1393 199.051 1397.61 Q195.996 1402.19 190.186 1402.19 Q184.376 1402.19 181.297 1397.61 Q178.241 1393 178.241 1384.27 Q178.241 1375.52 181.297 1370.94 Q184.376 1366.33 190.186 1366.33 Z" fill="#000000" fill-rule="evenodd" fill-opacity="1" /><path clip-path="url(#clip710)" d="M 0 0 M127.2 942.866 Q123.589 942.866 121.76 946.431 Q119.955 949.973 119.955 957.102 Q119.955 964.209 121.76 967.774 Q123.589 971.315 127.2 971.315 Q130.834 971.315 132.64 967.774 Q134.468 964.209 134.468 957.102 Q134.468 949.973 132.64 946.431 Q130.834 942.866 127.2 942.866 M127.2 939.163 Q133.01 939.163 136.066 943.769 Q139.144 948.352 139.144 957.102 Q139.144 965.829 136.066 970.436 Q133.01 975.019 127.2 975.019 Q121.39 975.019 118.311 970.436 Q115.256 965.829 115.256 957.102 Q115.256 948.352 118.311 943.769 Q121.39 939.163 127.2 939.163 Z" fill="#000000" fill-rule="evenodd" fill-opacity="1" /><path clip-path="url(#clip710)" d="M 0 0 M144.214 968.468 L149.098 968.468 L149.098 974.348 L144.214 974.348 L144.214 968.468 Z" fill="#000000" fill-rule="evenodd" fill-opacity="1" /><path clip-path="url(#clip710)" d="M 0 0 M164.167 942.866 Q160.556 942.866 158.728 946.431 Q156.922 949.973 156.922 957.102 Q156.922 964.209 158.728 967.774 Q160.556 971.315 164.167 971.315 Q167.802 971.315 169.607 967.774 Q171.436 964.209 171.436 957.102 Q171.436 949.973 169.607 946.431 Q167.802 942.866 164.167 942.866 M164.167 939.163 Q169.977 939.163 173.033 943.769 Q176.112 948.352 176.112 957.102 Q176.112 965.829 173.033 970.436 Q169.977 975.019 164.167 975.019 Q158.357 975.019 155.278 970.436 Q152.223 965.829 152.223 957.102 Q152.223 948.352 155.278 943.769 Q158.357 939.163 164.167 939.163 Z" fill="#000000" fill-rule="evenodd" fill-opacity="1" /><path clip-path="url(#clip710)" d="M 0 0 M181.227 939.788 L199.584 939.788 L199.584 943.723 L185.51 943.723 L185.51 952.195 Q186.528 951.848 187.547 951.686 Q188.565 951.501 189.584 951.501 Q195.371 951.501 198.75 954.672 Q202.13 957.843 202.13 963.26 Q202.13 968.838 198.658 971.94 Q195.186 975.019 188.866 975.019 Q186.69 975.019 184.422 974.649 Q182.176 974.278 179.769 973.537 L179.769 968.838 Q181.852 969.973 184.075 970.528 Q186.297 971.084 188.774 971.084 Q192.778 971.084 195.116 968.977 Q197.454 966.871 197.454 963.26 Q197.454 959.649 195.116 957.542 Q192.778 955.436 188.774 955.436 Q186.899 955.436 185.024 955.852 Q183.172 956.269 181.227 957.149 L181.227 939.788 Z" fill="#000000" fill-rule="evenodd" fill-opacity="1" /><path clip-path="url(#clip710)" d="M 0 0 M127.431 515.696 Q123.82 515.696 121.992 519.261 Q120.186 522.802 120.186 529.932 Q120.186 537.038 121.992 540.603 Q123.82 544.145 127.431 544.145 Q131.066 544.145 132.871 540.603 Q134.7 537.038 134.7 529.932 Q134.7 522.802 132.871 519.261 Q131.066 515.696 127.431 515.696 M127.431 511.992 Q133.242 511.992 136.297 516.599 Q139.376 521.182 139.376 529.932 Q139.376 538.659 136.297 543.265 Q133.242 547.848 127.431 547.848 Q121.621 547.848 118.543 543.265 Q115.487 538.659 115.487 529.932 Q115.487 521.182 118.543 516.599 Q121.621 511.992 127.431 511.992 Z" fill="#000000" fill-rule="evenodd" fill-opacity="1" /><path clip-path="url(#clip710)" d="M 0 0 M144.445 541.297 L149.329 541.297 L149.329 547.177 L144.445 547.177 L144.445 541.297 Z" fill="#000000" fill-rule="evenodd" fill-opacity="1" /><path clip-path="url(#clip710)" d="M 0 0 M155.209 543.242 L162.848 543.242 L162.848 516.876 L154.538 518.543 L154.538 514.284 L162.802 512.617 L167.477 512.617 L167.477 543.242 L175.116 543.242 L175.116 547.177 L155.209 547.177 L155.209 543.242 Z" fill="#000000" fill-rule="evenodd" fill-opacity="1" /><path clip-path="url(#clip710)" d="M 0 0 M190.186 515.696 Q186.575 515.696 184.746 519.261 Q182.94 522.802 182.94 529.932 Q182.94 537.038 184.746 540.603 Q186.575 544.145 190.186 544.145 Q193.82 544.145 195.625 540.603 Q197.454 537.038 197.454 529.932 Q197.454 522.802 195.625 519.261 Q193.82 515.696 190.186 515.696 M190.186 511.992 Q195.996 511.992 199.051 516.599 Q202.13 521.182 202.13 529.932 Q202.13 538.659 199.051 543.265 Q195.996 547.848 190.186 547.848 Q184.376 547.848 181.297 543.265 Q178.241 538.659 178.241 529.932 Q178.241 521.182 181.297 516.599 Q184.376 511.992 190.186 511.992 Z" fill="#000000" fill-rule="evenodd" fill-opacity="1" /><path clip-path="url(#clip710)" d="M 0 0 M128.427 88.5252 Q124.816 88.5252 122.987 92.09 Q121.181 95.6316 121.181 102.761 Q121.181 109.868 122.987 113.432 Q124.816 116.974 128.427 116.974 Q132.061 116.974 133.867 113.432 Q135.695 109.868 135.695 102.761 Q135.695 95.6316 133.867 92.09 Q132.061 88.5252 128.427 88.5252 M128.427 84.8215 Q134.237 84.8215 137.292 89.4279 Q140.371 94.0113 140.371 102.761 Q140.371 111.488 137.292 116.094 Q134.237 120.678 128.427 120.678 Q122.617 120.678 119.538 116.094 Q116.482 111.488 116.482 102.761 Q116.482 94.0113 119.538 89.4279 Q122.617 84.8215 128.427 84.8215 Z" fill="#000000" fill-rule="evenodd" fill-opacity="1" /><path clip-path="url(#clip710)" d="M 0 0 M145.441 114.127 L150.325 114.127 L150.325 120.006 L145.441 120.006 L145.441 114.127 Z" fill="#000000" fill-rule="evenodd" fill-opacity="1" /><path clip-path="url(#clip710)" d="M 0 0 M156.204 116.071 L163.843 116.071 L163.843 89.7057 L155.533 91.3724 L155.533 87.1131 L163.797 85.4465 L168.473 85.4465 L168.473 116.071 L176.112 116.071 L176.112 120.006 L156.204 120.006 L156.204 116.071 Z" fill="#000000" fill-rule="evenodd" fill-opacity="1" /><path clip-path="url(#clip710)" d="M 0 0 M181.227 85.4465 L199.584 85.4465 L199.584 89.3816 L185.51 89.3816 L185.51 97.8538 Q186.528 97.5066 187.547 97.3446 Q188.565 97.1594 189.584 97.1594 Q195.371 97.1594 198.75 100.331 Q202.13 103.502 202.13 108.919 Q202.13 114.497 198.658 117.599 Q195.186 120.678 188.866 120.678 Q186.69 120.678 184.422 120.307 Q182.176 119.937 179.769 119.196 L179.769 114.497 Q181.852 115.632 184.075 116.187 Q186.297 116.743 188.774 116.743 Q192.778 116.743 195.116 114.636 Q197.454 112.53 197.454 108.919 Q197.454 105.307 195.116 103.201 Q192.778 101.095 188.774 101.095 Q186.899 101.095 185.024 101.511 Q183.172 101.928 181.227 102.808 L181.227 85.4465 Z" fill="#000000" fill-rule="evenodd" fill-opacity="1" /><path clip-path="url(#clip710)" d="M 0 0 M21.7677 793.124 L39.6235 793.124 L39.6235 785.04 Q39.6235 780.552 37.3 778.101 Q34.9765 775.65 30.6797 775.65 Q26.4147 775.65 24.0912 778.101 Q21.7677 780.552 21.7677 785.04 L21.7677 793.124 M16.4842 799.553 L16.4842 785.04 Q16.4842 777.051 20.1126 772.977 Q23.7092 768.871 30.6797 768.871 Q37.7138 768.871 41.3104 772.977 Q44.907 777.051 44.907 785.04 L44.907 793.124 L64.0042 793.124 L64.0042 799.553 L16.4842 799.553 Z" fill="#000000" fill-rule="evenodd" fill-opacity="1" /><path clip-path="url(#clip710)" d="M 0 0 M14.5426 748.66 Q21.8632 752.925 29.0246 754.993 Q36.186 757.062 43.5384 757.062 Q50.8908 757.062 58.1159 754.993 Q65.3091 752.893 72.5979 748.66 L72.5979 753.752 Q65.1182 758.526 57.8931 760.914 Q50.668 763.269 43.5384 763.269 Q36.4406 763.269 29.2474 760.914 Q22.0542 758.558 14.5426 753.752 L14.5426 748.66 Z" fill="#000000" fill-rule="evenodd" fill-opacity="1" /><path clip-path="url(#clip710)" d="M 0 0 M35.1993 714.762 Q31.2526 712.566 29.3747 709.51 Q27.4968 706.455 27.4968 702.317 Q27.4968 696.747 31.4117 693.723 Q35.2948 690.7 42.4881 690.7 L64.0042 690.7 L64.0042 696.588 L42.679 696.588 Q37.5546 696.588 35.072 698.402 Q32.5894 700.216 32.5894 703.94 Q32.5894 708.492 35.6131 711.134 Q38.6368 713.775 43.8567 713.775 L64.0042 713.775 L64.0042 719.664 L42.679 719.664 Q37.5228 719.664 35.072 721.478 Q32.5894 723.292 32.5894 727.08 Q32.5894 731.568 35.6449 734.209 Q38.6686 736.851 43.8567 736.851 L64.0042 736.851 L64.0042 742.739 L28.3562 742.739 L28.3562 736.851 L33.8944 736.851 Q30.616 734.846 29.0564 732.045 Q27.4968 729.244 27.4968 725.393 Q27.4968 721.51 29.4702 718.804 Q31.4436 716.067 35.1993 714.762 Z" fill="#000000" fill-rule="evenodd" fill-opacity="1" /><path clip-path="url(#clip710)" d="M 0 0 M14.5426 685.48 L14.5426 680.387 Q22.0542 675.613 29.2474 673.258 Q36.4406 670.871 43.5384 670.871 Q50.668 670.871 57.8931 673.258 Q65.1182 675.613 72.5979 680.387 L72.5979 685.48 Q65.3091 681.247 58.1159 679.178 Q50.8908 677.077 43.5384 677.077 Q36.186 677.077 29.0246 679.178 Q21.8632 681.247 14.5426 685.48 Z" fill="#000000" fill-rule="evenodd" fill-opacity="1" /><path clip-path="url(#clip712)" d="
M354.438 1374.4 L354.438 1384.24 L439.984 1384.24 L439.984 1374.4 L354.438 1374.4 L354.438 1374.4  Z
  " fill="#009af9" fill-rule="evenodd" fill-opacity="1"/>
<polyline clip-path="url(#clip712)" style="stroke:#009af9; stroke-width:4; stroke-opacity:1; fill:none" points="
  354.438,1374.4 354.438,1384.24 439.984,1384.24 439.984,1374.4 354.438,1374.4 
  "/>
<path clip-path="url(#clip712)" d="
M439.984 1331.39 L439.984 1384.24 L525.53 1384.24 L525.53 1331.39 L439.984 1331.39 L439.984 1331.39  Z
  " fill="#009af9" fill-rule="evenodd" fill-opacity="1"/>
<polyline clip-path="url(#clip712)" style="stroke:#009af9; stroke-width:4; stroke-opacity:1; fill:none" points="
  439.984,1331.39 439.984,1384.24 525.53,1384.24 525.53,1331.39 439.984,1331.39 
  "/>
<path clip-path="url(#clip712)" d="
M525.53 1194.9 L525.53 1384.24 L611.076 1384.24 L611.076 1194.9 L525.53 1194.9 L525.53 1194.9  Z
  " fill="#009af9" fill-rule="evenodd" fill-opacity="1"/>
<polyline clip-path="url(#clip712)" style="stroke:#009af9; stroke-width:4; stroke-opacity:1; fill:none" points="
  525.53,1194.9 525.53,1384.24 611.076,1384.24 611.076,1194.9 525.53,1194.9 
  "/>
<path clip-path="url(#clip712)" d="
M611.076 939.19 L611.076 1384.24 L696.622 1384.24 L696.622 939.19 L611.076 939.19 L611.076 939.19  Z
  " fill="#009af9" fill-rule="evenodd" fill-opacity="1"/>
<polyline clip-path="url(#clip712)" style="stroke:#009af9; stroke-width:4; stroke-opacity:1; fill:none" points="
  611.076,939.19 611.076,1384.24 696.622,1384.24 696.622,939.19 611.076,939.19 
  "/>
<path clip-path="url(#clip712)" d="
M696.622 592.917 L696.622 1384.24 L782.168 1384.24 L782.168 592.917 L696.622 592.917 L696.622 592.917  Z
  " fill="#009af9" fill-rule="evenodd" fill-opacity="1"/>
<polyline clip-path="url(#clip712)" style="stroke:#009af9; stroke-width:4; stroke-opacity:1; fill:none" points="
  696.622,592.917 696.622,1384.24 782.168,1384.24 782.168,592.917 696.622,592.917 
  "/>
<path clip-path="url(#clip712)" d="
M782.168 280.083 L782.168 1384.24 L867.714 1384.24 L867.714 280.083 L782.168 280.083 L782.168 280.083  Z
  " fill="#009af9" fill-rule="evenodd" fill-opacity="1"/>
<polyline clip-path="url(#clip712)" style="stroke:#009af9; stroke-width:4; stroke-opacity:1; fill:none" points="
  782.168,280.083 782.168,1384.24 867.714,1384.24 867.714,280.083 782.168,280.083 
  "/>
<path clip-path="url(#clip712)" d="
M867.714 107.93 L867.714 1384.24 L953.259 1384.24 L953.259 107.93 L867.714 107.93 L867.714 107.93  Z
  " fill="#009af9" fill-rule="evenodd" fill-opacity="1"/>
<polyline clip-path="url(#clip712)" style="stroke:#009af9; stroke-width:4; stroke-opacity:1; fill:none" points="
  867.714,107.93 867.714,1384.24 953.259,1384.24 953.259,107.93 867.714,107.93 
  "/>
<path clip-path="url(#clip712)" d="
M953.259 98.7797 L953.259 1384.24 L1038.81 1384.24 L1038.81 98.7797 L953.259 98.7797 L953.259 98.7797  Z
  " fill="#009af9" fill-rule="evenodd" fill-opacity="1"/>
<polyline clip-path="url(#clip712)" style="stroke:#009af9; stroke-width:4; stroke-opacity:1; fill:none" points="
  953.259,98.7797 953.259,1384.24 1038.81,1384.24 1038.81,98.7797 953.259,98.7797 
  "/>
<path clip-path="url(#clip712)" d="
M1038.81 264.604 L1038.81 1384.24 L1124.35 1384.24 L1124.35 264.604 L1038.81 264.604 L1038.81 264.604  Z
  " fill="#009af9" fill-rule="evenodd" fill-opacity="1"/>
<polyline clip-path="url(#clip712)" style="stroke:#009af9; stroke-width:4; stroke-opacity:1; fill:none" points="
  1038.81,264.604 1038.81,1384.24 1124.35,1384.24 1124.35,264.604 1038.81,264.604 
  "/>
<path clip-path="url(#clip712)" d="
M1124.35 531.941 L1124.35 1384.24 L1209.9 1384.24 L1209.9 531.941 L1124.35 531.941 L1124.35 531.941  Z
  " fill="#009af9" fill-rule="evenodd" fill-opacity="1"/>
<polyline clip-path="url(#clip712)" style="stroke:#009af9; stroke-width:4; stroke-opacity:1; fill:none" points="
  1124.35,531.941 1124.35,1384.24 1209.9,1384.24 1209.9,531.941 1124.35,531.941 
  "/>
<path clip-path="url(#clip712)" d="
M1209.9 783.371 L1209.9 1384.24 L1295.44 1384.24 L1295.44 783.371 L1209.9 783.371 L1209.9 783.371  Z
  " fill="#009af9" fill-rule="evenodd" fill-opacity="1"/>
<polyline clip-path="url(#clip712)" style="stroke:#009af9; stroke-width:4; stroke-opacity:1; fill:none" points="
  1209.9,783.371 1209.9,1384.24 1295.44,1384.24 1295.44,783.371 1209.9,783.371 
  "/>
<path clip-path="url(#clip712)" d="
M1295.44 1006.41 L1295.44 1384.24 L1380.99 1384.24 L1380.99 1006.41 L1295.44 1006.41 L1295.44 1006.41  Z
  " fill="#009af9" fill-rule="evenodd" fill-opacity="1"/>
<polyline clip-path="url(#clip712)" style="stroke:#009af9; stroke-width:4; stroke-opacity:1; fill:none" points="
  1295.44,1006.41 1295.44,1384.24 1380.99,1384.24 1380.99,1006.41 1295.44,1006.41 
  "/>
<path clip-path="url(#clip712)" d="
M1380.99 1170.95 L1380.99 1384.24 L1466.53 1384.24 L1466.53 1170.95 L1380.99 1170.95 L1380.99 1170.95  Z
  " fill="#009af9" fill-rule="evenodd" fill-opacity="1"/>
<polyline clip-path="url(#clip712)" style="stroke:#009af9; stroke-width:4; stroke-opacity:1; fill:none" points="
  1380.99,1170.95 1380.99,1384.24 1466.53,1384.24 1466.53,1170.95 1380.99,1170.95 
  "/>
<path clip-path="url(#clip712)" d="
M1466.53 1266.56 L1466.53 1384.24 L1552.08 1384.24 L1552.08 1266.56 L1466.53 1266.56 L1466.53 1266.56  Z
  " fill="#009af9" fill-rule="evenodd" fill-opacity="1"/>
<polyline clip-path="url(#clip712)" style="stroke:#009af9; stroke-width:4; stroke-opacity:1; fill:none" points="
  1466.53,1266.56 1466.53,1384.24 1552.08,1384.24 1552.08,1266.56 1466.53,1266.56 
  "/>
<path clip-path="url(#clip712)" d="
M1552.08 1326.85 L1552.08 1384.24 L1637.63 1384.24 L1637.63 1326.85 L1552.08 1326.85 L1552.08 1326.85  Z
  " fill="#009af9" fill-rule="evenodd" fill-opacity="1"/>
<polyline clip-path="url(#clip712)" style="stroke:#009af9; stroke-width:4; stroke-opacity:1; fill:none" points="
  1552.08,1326.85 1552.08,1384.24 1637.63,1384.24 1637.63,1326.85 1552.08,1326.85 
  "/>
<path clip-path="url(#clip712)" d="
M1637.63 1356.53 L1637.63 1384.24 L1723.17 1384.24 L1723.17 1356.53 L1637.63 1356.53 L1637.63 1356.53  Z
  " fill="#009af9" fill-rule="evenodd" fill-opacity="1"/>
<polyline clip-path="url(#clip712)" style="stroke:#009af9; stroke-width:4; stroke-opacity:1; fill:none" points="
  1637.63,1356.53 1637.63,1384.24 1723.17,1384.24 1723.17,1356.53 1637.63,1356.53 
  "/>
<path clip-path="url(#clip712)" d="
M1723.17 1370.64 L1723.17 1384.24 L1808.72 1384.24 L1808.72 1370.64 L1723.17 1370.64 L1723.17 1370.64  Z
  " fill="#009af9" fill-rule="evenodd" fill-opacity="1"/>
<polyline clip-path="url(#clip712)" style="stroke:#009af9; stroke-width:4; stroke-opacity:1; fill:none" points="
  1723.17,1370.64 1723.17,1384.24 1808.72,1384.24 1808.72,1370.64 1723.17,1370.64 
  "/>
<path clip-path="url(#clip712)" d="
M1808.72 1378.85 L1808.72 1384.24 L1894.26 1384.24 L1894.26 1378.85 L1808.72 1378.85 L1808.72 1378.85  Z
  " fill="#009af9" fill-rule="evenodd" fill-opacity="1"/>
<polyline clip-path="url(#clip712)" style="stroke:#009af9; stroke-width:4; stroke-opacity:1; fill:none" points="
  1808.72,1378.85 1808.72,1384.24 1894.26,1384.24 1894.26,1378.85 1808.72,1378.85 
  "/>
<path clip-path="url(#clip712)" d="
M1894.26 1382.1 L1894.26 1384.24 L1979.81 1384.24 L1979.81 1382.1 L1894.26 1382.1 L1894.26 1382.1  Z
  " fill="#009af9" fill-rule="evenodd" fill-opacity="1"/>
<polyline clip-path="url(#clip712)" style="stroke:#009af9; stroke-width:4; stroke-opacity:1; fill:none" points="
  1894.26,1382.1 1894.26,1384.24 1979.81,1384.24 1979.81,1382.1 1894.26,1382.1 
  "/>
<path clip-path="url(#clip712)" d="
M1979.81 1383.3 L1979.81 1384.24 L2065.36 1384.24 L2065.36 1383.3 L1979.81 1383.3 L1979.81 1383.3  Z
  " fill="#009af9" fill-rule="evenodd" fill-opacity="1"/>
<polyline clip-path="url(#clip712)" style="stroke:#009af9; stroke-width:4; stroke-opacity:1; fill:none" points="
  1979.81,1383.3 1979.81,1384.24 2065.36,1384.24 2065.36,1383.3 1979.81,1383.3 
  "/>
<path clip-path="url(#clip712)" d="
M2065.36 1383.98 L2065.36 1384.24 L2150.9 1384.24 L2150.9 1383.98 L2065.36 1383.98 L2065.36 1383.98  Z
  " fill="#009af9" fill-rule="evenodd" fill-opacity="1"/>
<polyline clip-path="url(#clip712)" style="stroke:#009af9; stroke-width:4; stroke-opacity:1; fill:none" points="
  2065.36,1383.98 2065.36,1384.24 2150.9,1384.24 2150.9,1383.98 2065.36,1383.98 
  "/>
<path clip-path="url(#clip712)" d="
M2150.9 1384.15 L2150.9 1384.24 L2236.45 1384.24 L2236.45 1384.15 L2150.9 1384.15 L2150.9 1384.15  Z
  " fill="#009af9" fill-rule="evenodd" fill-opacity="1"/>
<polyline clip-path="url(#clip712)" style="stroke:#009af9; stroke-width:4; stroke-opacity:1; fill:none" points="
  2150.9,1384.15 2150.9,1384.24 2236.45,1384.24 2236.45,1384.15 2150.9,1384.15 
  "/>
<polyline clip-path="url(#clip712)" style="stroke:#e26f46; stroke-width:12; stroke-opacity:1; fill:none" points="
  354.438,1344.81 362.993,1340.69 371.547,1336.22 380.102,1331.35 388.657,1326.09 397.211,1320.38 405.766,1314.22 414.32,1307.57 422.875,1300.42 431.43,1292.72 
  439.984,1284.47 448.539,1275.62 457.093,1266.16 465.648,1256.06 474.202,1245.29 482.757,1233.84 491.312,1221.67 499.866,1208.78 508.421,1195.13 516.975,1180.71 
  525.53,1165.5 534.085,1149.5 542.639,1132.68 551.194,1115.05 559.748,1096.59 568.303,1077.31 576.858,1057.21 585.412,1036.29 593.967,1014.55 602.521,992.029 
  611.076,968.727 619.63,944.672 628.185,919.889 636.74,894.412 645.294,868.277 653.849,841.526 662.403,814.206 670.958,786.369 679.513,758.07 688.067,729.371 
  696.622,700.337 705.176,671.04 713.731,641.553 722.286,611.954 730.84,582.326 739.395,552.754 747.949,523.327 756.504,494.135 765.058,465.271 773.613,436.831 
  782.168,408.909 790.722,381.602 799.277,355.008 807.831,329.221 816.386,304.337 824.941,280.45 833.495,257.65 842.05,236.027 850.604,215.665 859.159,196.645 
  867.714,179.044 876.268,162.934 884.823,148.382 893.377,135.448 901.932,124.186 910.486,114.643 919.041,106.861 927.596,100.871 936.15,96.701 944.705,94.3673 
  953.259,93.8802 961.814,95.242 970.369,98.4467 978.923,103.481 987.478,110.322 996.032,118.942 1004.59,129.304 1013.14,141.364 1021.7,155.071 1030.25,170.368 
  1038.81,187.192 1047.36,205.474 1055.91,225.139 1064.47,246.108 1073.02,268.299 1081.58,291.625 1090.13,315.995 1098.69,341.318 1107.24,367.499 1115.8,394.442 
  1124.35,422.052 1132.91,450.231 1141.46,478.884 1150.01,507.915 1158.57,537.23 1167.12,566.737 1175.68,596.346 1184.23,625.97 1192.79,655.526 1201.34,684.933 
  1209.9,714.115 1218.45,742.998 1227.01,771.516 1235.56,799.604 1244.12,827.203 1252.67,854.26 1261.22,880.725 1269.78,906.553 1278.33,931.706 1286.89,956.148 
  1295.44,979.851 1304,1002.79 1312.55,1024.94 1321.11,1046.29 1329.66,1066.83 1338.22,1086.54 1346.77,1105.43 1355.33,1123.5 1363.88,1140.74 1372.43,1157.17 
  1380.99,1172.8 1389.54,1187.63 1398.1,1201.68 1406.65,1214.97 1415.21,1227.52 1423.76,1239.35 1432.32,1250.47 1440.87,1260.92 1449.43,1270.72 1457.98,1279.88 
  1466.53,1288.45 1475.09,1296.43 1483.64,1303.87 1492.2,1310.78 1500.75,1317.2 1509.31,1323.14 1517.86,1328.63 1526.42,1333.7 1534.97,1338.38 1543.53,1342.68 
  1552.08,1346.64 1560.64,1350.26 1569.19,1353.58 1577.74,1356.62 1586.3,1359.39 1594.85,1361.91 1603.41,1364.21 1611.96,1366.3 1620.52,1368.19 1629.07,1369.9 
  1637.63,1371.45 1646.18,1372.85 1654.74,1374.11 1663.29,1375.24 1671.84,1376.26 1680.4,1377.17 1688.95,1377.99 1697.51,1378.72 1706.06,1379.37 1714.62,1379.95 
  1723.17,1380.47 1731.73,1380.93 1740.28,1381.34 1748.84,1381.7 1757.39,1382.02 1765.95,1382.3 1774.5,1382.55 1783.05,1382.77 1791.61,1382.96 1800.16,1383.13 
  1808.72,1383.28 1817.27,1383.41 1825.83,1383.52 1834.38,1383.62 1842.94,1383.7 1851.49,1383.78 1860.05,1383.84 1868.6,1383.9 1877.16,1383.95 1885.71,1383.99 
  1894.26,1384.03 1902.82,1384.06 1911.37,1384.08 1919.93,1384.11 1928.48,1384.13 1937.04,1384.14 1945.59,1384.16 1954.15,1384.17 1962.7,1384.18 1971.26,1384.19 
  1979.81,1384.2 1988.36,1384.2 1996.92,1384.21 2005.47,1384.21 2014.03,1384.22 2022.58,1384.22 2031.14,1384.22 2039.69,1384.23 2048.25,1384.23 2056.8,1384.23 
  2065.36,1384.23 2073.91,1384.23 2082.47,1384.23 2091.02,1384.23 2099.57,1384.24 2108.13,1384.24 2116.68,1384.24 2125.24,1384.24 2133.79,1384.24 2142.35,1384.24 
  2150.9,1384.24 
  "/>
<polyline clip-path="url(#clip712)" style="stroke:#3da44d; stroke-width:12; stroke-opacity:1; fill:none" points="
  354.438,1376.26 362.993,1374.06 371.547,1371.43 380.102,1368.32 388.657,1364.68 397.211,1360.46 405.766,1355.6 414.32,1350.04 422.875,1343.72 431.43,1336.59 
  439.984,1328.59 448.539,1319.66 457.093,1309.75 465.648,1298.81 474.202,1286.8 482.757,1273.66 491.312,1259.38 499.866,1243.9 508.421,1227.21 516.975,1209.29 
  525.53,1190.12 534.085,1169.7 542.639,1148.03 551.194,1125.12 559.748,1100.99 568.303,1075.68 576.858,1049.21 585.412,1021.63 593.967,992.997 602.521,963.371 
  611.076,932.822 619.63,901.427 628.185,869.273 636.74,836.451 645.294,803.061 653.849,769.205 662.403,734.995 670.958,700.543 679.513,665.968 688.067,631.389 
  696.622,596.929 705.176,562.713 713.731,528.864 722.286,495.506 730.84,462.763 739.395,430.754 747.949,399.599 756.504,369.411 765.058,340.301 773.613,312.375 
  782.168,285.732 790.722,260.466 799.277,236.665 807.831,214.409 816.386,193.771 824.941,174.815 833.495,157.6 842.05,142.172 850.604,128.573 859.159,116.835 
  867.714,106.98 876.268,99.0229 884.823,92.971 893.377,88.8221 901.932,86.5661 910.486,86.1857 919.041,87.6556 927.596,90.9438 936.15,96.0112 944.705,102.813 
  953.259,111.297 961.814,121.408 970.369,133.083 978.923,146.257 987.478,160.86 996.032,176.818 1004.59,194.054 1013.14,212.49 1021.7,232.045 1030.25,252.636 
  1038.81,274.18 1047.36,296.592 1055.91,319.79 1064.47,343.687 1073.02,368.203 1081.58,393.253 1090.13,418.759 1098.69,444.64 1107.24,470.819 1115.8,497.223 
  1124.35,523.778 1132.91,550.416 1141.46,577.069 1150.01,603.675 1158.57,630.174 1167.12,656.507 1175.68,682.622 1184.23,708.469 1192.79,734.002 1201.34,759.176 
  1209.9,783.952 1218.45,808.295 1227.01,832.171 1235.56,855.552 1244.12,878.41 1252.67,900.724 1261.22,922.473 1269.78,943.641 1278.33,964.213 1286.89,984.179 
  1295.44,1003.53 1304,1022.26 1312.55,1040.36 1321.11,1057.84 1329.66,1074.69 1338.22,1090.92 1346.77,1106.53 1355.33,1121.52 1363.88,1135.91 1372.43,1149.7 
  1380.99,1162.91 1389.54,1175.54 1398.1,1187.6 1406.65,1199.11 1415.21,1210.09 1423.76,1220.54 1432.32,1230.48 1440.87,1239.92 1449.43,1248.89 1457.98,1257.4 
  1466.53,1265.46 1475.09,1273.1 1483.64,1280.31 1492.2,1287.13 1500.75,1293.57 1509.31,1299.64 1517.86,1305.36 1526.42,1310.75 1534.97,1315.82 1543.53,1320.58 
  1552.08,1325.05 1560.64,1329.25 1569.19,1333.18 1577.74,1336.86 1586.3,1340.31 1594.85,1343.54 1603.41,1346.55 1611.96,1349.36 1620.52,1351.99 1629.07,1354.43 
  1637.63,1356.71 1646.18,1358.83 1654.74,1360.8 1663.29,1362.64 1671.84,1364.34 1680.4,1365.92 1688.95,1367.38 1697.51,1368.74 1706.06,1370 1714.62,1371.16 
  1723.17,1372.24 1731.73,1373.23 1740.28,1374.15 1748.84,1374.99 1757.39,1375.77 1765.95,1376.49 1774.5,1377.16 1783.05,1377.76 1791.61,1378.32 1800.16,1378.84 
  1808.72,1379.31 1817.27,1379.75 1825.83,1380.15 1834.38,1380.51 1842.94,1380.84 1851.49,1381.15 1860.05,1381.43 1868.6,1381.69 1877.16,1381.92 1885.71,1382.13 
  1894.26,1382.33 1902.82,1382.51 1911.37,1382.67 1919.93,1382.82 1928.48,1382.95 1937.04,1383.07 1945.59,1383.19 1954.15,1383.29 1962.7,1383.38 1971.26,1383.46 
  1979.81,1383.54 1988.36,1383.61 1996.92,1383.67 2005.47,1383.72 2014.03,1383.78 2022.58,1383.82 2031.14,1383.86 2039.69,1383.9 2048.25,1383.94 2056.8,1383.97 
  2065.36,1383.99 2073.91,1384.02 2082.47,1384.04 2091.02,1384.06 2099.57,1384.08 2108.13,1384.1 2116.68,1384.11 2125.24,1384.12 2133.79,1384.14 2142.35,1384.15 
  2150.9,1384.16 
  "/>
<path clip-path="url(#clip710)" d="
M1810.55 335.029 L2282.27 335.029 L2282.27 93.1086 L1810.55 93.1086  Z
  " fill="#ffffff" fill-rule="evenodd" fill-opacity="1"/>
<polyline clip-path="url(#clip710)" style="stroke:#000000; stroke-width:4; stroke-opacity:1; fill:none" points="
  1810.55,335.029 2282.27,335.029 2282.27,93.1086 1810.55,93.1086 1810.55,335.029 
  "/>
<path clip-path="url(#clip710)" d="
M1834.05 177.781 L1975.02 177.781 L1975.02 129.397 L1834.05 129.397 L1834.05 177.781  Z
  " fill="#009af9" fill-rule="evenodd" fill-opacity="1"/>
<polyline clip-path="url(#clip710)" style="stroke:#009af9; stroke-width:4; stroke-opacity:1; fill:none" points="
  1834.05,177.781 1975.02,177.781 1975.02,129.397 1834.05,129.397 1834.05,177.781 
  "/>
<path clip-path="url(#clip710)" d="M 0 0 M2012.36 173.276 Q2010.56 177.906 2008.84 179.318 Q2007.13 180.73 2004.26 180.73 L2000.86 180.73 L2000.86 177.165 L2003.36 177.165 Q2005.12 177.165 2006.09 176.332 Q2007.06 175.498 2008.24 172.396 L2009 170.452 L1998.52 144.943 L2003.03 144.943 L2011.13 165.221 L2019.24 144.943 L2023.75 144.943 L2012.36 173.276 Z" fill="#000000" fill-rule="evenodd" fill-opacity="1" /><path clip-path="url(#clip710)" d="M 0 0 M2029.63 166.933 L2037.27 166.933 L2037.27 140.568 L2028.96 142.235 L2028.96 137.975 L2037.22 136.309 L2041.9 136.309 L2041.9 166.933 L2049.54 166.933 L2049.54 170.869 L2029.63 170.869 L2029.63 166.933 Z" fill="#000000" fill-rule="evenodd" fill-opacity="1" /><polyline clip-path="url(#clip710)" style="stroke:#e26f46; stroke-width:4; stroke-opacity:1; fill:none" points="
  1834.05,214.069 1975.02,214.069 
  "/>
<path clip-path="url(#clip710)" d="M 0 0 M2017.43 218.085 Q2017.43 213.455 2015.51 210.909 Q2013.61 208.363 2010.16 208.363 Q2006.74 208.363 2004.81 210.909 Q2002.92 213.455 2002.92 218.085 Q2002.92 222.691 2004.81 225.238 Q2006.74 227.784 2010.16 227.784 Q2013.61 227.784 2015.51 225.238 Q2017.43 222.691 2017.43 218.085 M2021.69 228.131 Q2021.69 234.751 2018.75 237.969 Q2015.81 241.21 2009.75 241.21 Q2007.5 241.21 2005.51 240.862 Q2003.52 240.538 2001.64 239.844 L2001.64 235.7 Q2003.52 236.719 2005.35 237.205 Q2007.18 237.691 2009.07 237.691 Q2013.26 237.691 2015.35 235.492 Q2017.43 233.316 2017.43 228.895 L2017.43 226.788 Q2016.11 229.08 2014.05 230.214 Q2011.99 231.349 2009.12 231.349 Q2004.35 231.349 2001.44 227.714 Q1998.52 224.08 1998.52 218.085 Q1998.52 212.066 2001.44 208.432 Q2004.35 204.798 2009.12 204.798 Q2011.99 204.798 2014.05 205.932 Q2016.11 207.066 2017.43 209.358 L2017.43 205.423 L2021.69 205.423 L2021.69 228.131 Z" fill="#000000" fill-rule="evenodd" fill-opacity="1" /><path clip-path="url(#clip710)" d="M 0 0 M2037.94 218.316 Q2032.78 218.316 2030.79 219.497 Q2028.8 220.677 2028.8 223.525 Q2028.8 225.793 2030.28 227.136 Q2031.78 228.455 2034.35 228.455 Q2037.89 228.455 2040.02 225.955 Q2042.18 223.432 2042.18 219.265 L2042.18 218.316 L2037.94 218.316 M2046.44 216.557 L2046.44 231.349 L2042.18 231.349 L2042.18 227.413 Q2040.72 229.775 2038.54 230.909 Q2036.37 232.02 2033.22 232.02 Q2029.24 232.02 2026.88 229.798 Q2024.54 227.552 2024.54 223.802 Q2024.54 219.427 2027.45 217.205 Q2030.39 214.983 2036.2 214.983 L2042.18 214.983 L2042.18 214.566 Q2042.18 211.627 2040.23 210.029 Q2038.31 208.409 2034.81 208.409 Q2032.59 208.409 2030.49 208.941 Q2028.38 209.474 2026.44 210.539 L2026.44 206.603 Q2028.77 205.701 2030.97 205.261 Q2033.17 204.798 2035.25 204.798 Q2040.88 204.798 2043.66 207.714 Q2046.44 210.631 2046.44 216.557 Z" fill="#000000" fill-rule="evenodd" fill-opacity="1" /><path clip-path="url(#clip710)" d="M 0 0 M2050.46 221.117 L2050.46 205.423 L2054.72 205.423 L2054.72 220.955 Q2054.72 224.636 2056.16 226.488 Q2057.59 228.316 2060.46 228.316 Q2063.91 228.316 2065.9 226.117 Q2067.92 223.918 2067.92 220.122 L2067.92 205.423 L2072.18 205.423 L2072.18 231.349 L2067.92 231.349 L2067.92 227.367 Q2066.37 229.728 2064.31 230.886 Q2062.27 232.02 2059.56 232.02 Q2055.09 232.02 2052.78 229.242 Q2050.46 226.464 2050.46 221.117 M2061.18 204.798 L2061.18 204.798 Z" fill="#000000" fill-rule="evenodd" fill-opacity="1" /><path clip-path="url(#clip710)" d="M 0 0 M2093.17 206.187 L2093.17 210.214 Q2091.37 209.289 2089.42 208.826 Q2087.48 208.363 2085.39 208.363 Q2082.22 208.363 2080.62 209.335 Q2079.05 210.307 2079.05 212.251 Q2079.05 213.733 2080.18 214.589 Q2081.32 215.423 2084.75 216.187 L2086.2 216.511 Q2090.74 217.483 2092.64 219.265 Q2094.56 221.025 2094.56 224.196 Q2094.56 227.807 2091.69 229.913 Q2088.84 232.02 2083.84 232.02 Q2081.76 232.02 2079.49 231.603 Q2077.25 231.21 2074.75 230.4 L2074.75 226.001 Q2077.11 227.228 2079.4 227.853 Q2081.69 228.455 2083.93 228.455 Q2086.94 228.455 2088.56 227.437 Q2090.18 226.395 2090.18 224.52 Q2090.18 222.784 2089 221.858 Q2087.85 220.932 2083.89 220.076 L2082.41 219.728 Q2078.45 218.895 2076.69 217.182 Q2074.93 215.446 2074.93 212.437 Q2074.93 208.779 2077.52 206.789 Q2080.12 204.798 2084.88 204.798 Q2087.25 204.798 2089.33 205.145 Q2091.41 205.492 2093.17 206.187 Z" fill="#000000" fill-rule="evenodd" fill-opacity="1" /><path clip-path="url(#clip710)" d="M 0 0 M2115.56 206.187 L2115.56 210.214 Q2113.75 209.289 2111.81 208.826 Q2109.86 208.363 2107.78 208.363 Q2104.61 208.363 2103.01 209.335 Q2101.43 210.307 2101.43 212.251 Q2101.43 213.733 2102.57 214.589 Q2103.7 215.423 2107.13 216.187 L2108.59 216.511 Q2113.12 217.483 2115.02 219.265 Q2116.94 221.025 2116.94 224.196 Q2116.94 227.807 2114.07 229.913 Q2111.23 232.02 2106.23 232.02 Q2104.14 232.02 2101.87 231.603 Q2099.63 231.21 2097.13 230.4 L2097.13 226.001 Q2099.49 227.228 2101.78 227.853 Q2104.07 228.455 2106.32 228.455 Q2109.33 228.455 2110.95 227.437 Q2112.57 226.395 2112.57 224.52 Q2112.57 222.784 2111.39 221.858 Q2110.23 220.932 2106.27 220.076 L2104.79 219.728 Q2100.83 218.895 2099.07 217.182 Q2097.31 215.446 2097.31 212.437 Q2097.31 208.779 2099.91 206.789 Q2102.5 204.798 2107.27 204.798 Q2109.63 204.798 2111.71 205.145 Q2113.8 205.492 2115.56 206.187 Z" fill="#000000" fill-rule="evenodd" fill-opacity="1" /><path clip-path="url(#clip710)" d="M 0 0 M2121.41 205.423 L2125.67 205.423 L2125.67 231.349 L2121.41 231.349 L2121.41 205.423 M2121.41 195.33 L2125.67 195.33 L2125.67 200.724 L2121.41 200.724 L2121.41 195.33 Z" fill="#000000" fill-rule="evenodd" fill-opacity="1" /><path clip-path="url(#clip710)" d="M 0 0 M2141.92 218.316 Q2136.76 218.316 2134.77 219.497 Q2132.78 220.677 2132.78 223.525 Q2132.78 225.793 2134.26 227.136 Q2135.76 228.455 2138.33 228.455 Q2141.87 228.455 2144 225.955 Q2146.16 223.432 2146.16 219.265 L2146.16 218.316 L2141.92 218.316 M2150.42 216.557 L2150.42 231.349 L2146.16 231.349 L2146.16 227.413 Q2144.7 229.775 2142.52 230.909 Q2140.35 232.02 2137.2 232.02 Q2133.22 232.02 2130.86 229.798 Q2128.52 227.552 2128.52 223.802 Q2128.52 219.427 2131.43 217.205 Q2134.37 214.983 2140.18 214.983 L2146.16 214.983 L2146.16 214.566 Q2146.16 211.627 2144.21 210.029 Q2142.29 208.409 2138.8 208.409 Q2136.57 208.409 2134.47 208.941 Q2132.36 209.474 2130.42 210.539 L2130.42 206.603 Q2132.75 205.701 2134.95 205.261 Q2137.15 204.798 2139.24 204.798 Q2144.86 204.798 2147.64 207.714 Q2150.42 210.631 2150.42 216.557 Z" fill="#000000" fill-rule="evenodd" fill-opacity="1" /><path clip-path="url(#clip710)" d="M 0 0 M2176.43 215.701 L2176.43 231.349 L2172.18 231.349 L2172.18 215.839 Q2172.18 212.159 2170.74 210.33 Q2169.3 208.502 2166.43 208.502 Q2162.99 208.502 2160.99 210.701 Q2159 212.9 2159 216.696 L2159 231.349 L2154.72 231.349 L2154.72 205.423 L2159 205.423 L2159 209.451 Q2160.53 207.113 2162.59 205.955 Q2164.68 204.798 2167.38 204.798 Q2171.85 204.798 2174.14 207.576 Q2176.43 210.33 2176.43 215.701 Z" fill="#000000" fill-rule="evenodd" fill-opacity="1" /><path clip-path="url(#clip710)" d="M 0 0 M2209.1 195.33 L2209.1 198.872 L2205.02 198.872 Q2202.73 198.872 2201.83 199.798 Q2200.95 200.724 2200.95 203.131 L2200.95 205.423 L2207.96 205.423 L2207.96 208.733 L2200.95 208.733 L2200.95 231.349 L2196.67 231.349 L2196.67 208.733 L2192.59 208.733 L2192.59 205.423 L2196.67 205.423 L2196.67 203.617 Q2196.67 199.289 2198.68 197.321 Q2200.69 195.33 2205.07 195.33 L2209.1 195.33 Z" fill="#000000" fill-rule="evenodd" fill-opacity="1" /><path clip-path="url(#clip710)" d="M 0 0 M2213.56 205.423 L2217.82 205.423 L2217.82 231.349 L2213.56 231.349 L2213.56 205.423 M2213.56 195.33 L2217.82 195.33 L2217.82 200.724 L2213.56 200.724 L2213.56 195.33 Z" fill="#000000" fill-rule="evenodd" fill-opacity="1" /><path clip-path="url(#clip710)" d="M 0 0 M2226.5 198.062 L2226.5 205.423 L2235.28 205.423 L2235.28 208.733 L2226.5 208.733 L2226.5 222.807 Q2226.5 225.978 2227.36 226.881 Q2228.24 227.784 2230.9 227.784 L2235.28 227.784 L2235.28 231.349 L2230.9 231.349 Q2225.97 231.349 2224.1 229.52 Q2222.22 227.668 2222.22 222.807 L2222.22 208.733 L2219.1 208.733 L2219.1 205.423 L2222.22 205.423 L2222.22 198.062 L2226.5 198.062 Z" fill="#000000" fill-rule="evenodd" fill-opacity="1" /><polyline clip-path="url(#clip710)" style="stroke:#3da44d; stroke-width:4; stroke-opacity:1; fill:none" points="
  1834.05,274.549 1975.02,274.549 
  "/>
<path clip-path="url(#clip710)" d="M 0 0 M2002.8 287.94 L2002.8 301.69 L1998.52 301.69 L1998.52 265.903 L2002.8 265.903 L2002.8 269.838 Q2004.14 267.523 2006.18 266.412 Q2008.24 265.278 2011.09 265.278 Q2015.81 265.278 2018.75 269.028 Q2021.71 272.778 2021.71 278.889 Q2021.71 285 2018.75 288.75 Q2015.81 292.5 2011.09 292.5 Q2008.24 292.5 2006.18 291.389 Q2004.14 290.255 2002.8 287.94 M2017.29 278.889 Q2017.29 274.19 2015.35 271.528 Q2013.43 268.843 2010.05 268.843 Q2006.67 268.843 2004.72 271.528 Q2002.8 274.19 2002.8 278.889 Q2002.8 283.588 2004.72 286.273 Q2006.67 288.935 2010.05 288.935 Q2013.43 288.935 2015.35 286.273 Q2017.29 283.588 2017.29 278.889 Z" fill="#000000" fill-rule="evenodd" fill-opacity="1" /><path clip-path="url(#clip710)" d="M 0 0 M2036.23 268.889 Q2032.8 268.889 2030.81 271.574 Q2028.82 274.236 2028.82 278.889 Q2028.82 283.542 2030.79 286.227 Q2032.78 288.889 2036.23 288.889 Q2039.63 288.889 2041.62 286.204 Q2043.61 283.518 2043.61 278.889 Q2043.61 274.282 2041.62 271.597 Q2039.63 268.889 2036.23 268.889 M2036.23 265.278 Q2041.78 265.278 2044.95 268.889 Q2048.12 272.5 2048.12 278.889 Q2048.12 285.255 2044.95 288.889 Q2041.78 292.5 2036.23 292.5 Q2030.65 292.5 2027.48 288.889 Q2024.33 285.255 2024.33 278.889 Q2024.33 272.5 2027.48 268.889 Q2030.65 265.278 2036.23 265.278 Z" fill="#000000" fill-rule="evenodd" fill-opacity="1" /><path clip-path="url(#clip710)" d="M 0 0 M2052.59 265.903 L2056.85 265.903 L2056.85 291.829 L2052.59 291.829 L2052.59 265.903 M2052.59 255.81 L2056.85 255.81 L2056.85 261.204 L2052.59 261.204 L2052.59 255.81 Z" fill="#000000" fill-rule="evenodd" fill-opacity="1" /><path clip-path="url(#clip710)" d="M 0 0 M2077.85 266.667 L2077.85 270.694 Q2076.04 269.769 2074.1 269.306 Q2072.15 268.843 2070.07 268.843 Q2066.9 268.843 2065.3 269.815 Q2063.73 270.787 2063.73 272.731 Q2063.73 274.213 2064.86 275.069 Q2066 275.903 2069.42 276.667 L2070.88 276.991 Q2075.42 277.963 2077.31 279.745 Q2079.24 281.505 2079.24 284.676 Q2079.24 288.287 2076.37 290.393 Q2073.52 292.5 2068.52 292.5 Q2066.44 292.5 2064.17 292.083 Q2061.92 291.69 2059.42 290.88 L2059.42 286.481 Q2061.78 287.708 2064.07 288.333 Q2066.37 288.935 2068.61 288.935 Q2071.62 288.935 2073.24 287.917 Q2074.86 286.875 2074.86 285 Q2074.86 283.264 2073.68 282.338 Q2072.52 281.412 2068.56 280.556 L2067.08 280.208 Q2063.12 279.375 2061.37 277.662 Q2059.61 275.926 2059.61 272.917 Q2059.61 269.259 2062.2 267.269 Q2064.79 265.278 2069.56 265.278 Q2071.92 265.278 2074 265.625 Q2076.09 265.972 2077.85 266.667 Z" fill="#000000" fill-rule="evenodd" fill-opacity="1" /><path clip-path="url(#clip710)" d="M 0 0 M2100.23 266.667 L2100.23 270.694 Q2098.43 269.769 2096.48 269.306 Q2094.54 268.843 2092.45 268.843 Q2089.28 268.843 2087.68 269.815 Q2086.11 270.787 2086.11 272.731 Q2086.11 274.213 2087.25 275.069 Q2088.38 275.903 2091.81 276.667 L2093.26 276.991 Q2097.8 277.963 2099.7 279.745 Q2101.62 281.505 2101.62 284.676 Q2101.62 288.287 2098.75 290.393 Q2095.9 292.5 2090.9 292.5 Q2088.82 292.5 2086.55 292.083 Q2084.31 291.69 2081.81 290.88 L2081.81 286.481 Q2084.17 287.708 2086.46 288.333 Q2088.75 288.935 2091 288.935 Q2094 288.935 2095.62 287.917 Q2097.25 286.875 2097.25 285 Q2097.25 283.264 2096.06 282.338 Q2094.91 281.412 2090.95 280.556 L2089.47 280.208 Q2085.51 279.375 2083.75 277.662 Q2081.99 275.926 2081.99 272.917 Q2081.99 269.259 2084.58 267.269 Q2087.18 265.278 2091.94 265.278 Q2094.31 265.278 2096.39 265.625 Q2098.47 265.972 2100.23 266.667 Z" fill="#000000" fill-rule="evenodd" fill-opacity="1" /><path clip-path="url(#clip710)" d="M 0 0 M2116.13 268.889 Q2112.71 268.889 2110.72 271.574 Q2108.73 274.236 2108.73 278.889 Q2108.73 283.542 2110.69 286.227 Q2112.68 288.889 2116.13 288.889 Q2119.54 288.889 2121.53 286.204 Q2123.52 283.518 2123.52 278.889 Q2123.52 274.282 2121.53 271.597 Q2119.54 268.889 2116.13 268.889 M2116.13 265.278 Q2121.69 265.278 2124.86 268.889 Q2128.03 272.5 2128.03 278.889 Q2128.03 285.255 2124.86 288.889 Q2121.69 292.5 2116.13 292.5 Q2110.56 292.5 2107.38 288.889 Q2104.24 285.255 2104.24 278.889 Q2104.24 272.5 2107.38 268.889 Q2110.56 265.278 2116.13 265.278 Z" fill="#000000" fill-rule="evenodd" fill-opacity="1" /><path clip-path="url(#clip710)" d="M 0 0 M2154.05 276.181 L2154.05 291.829 L2149.79 291.829 L2149.79 276.319 Q2149.79 272.639 2148.36 270.81 Q2146.92 268.982 2144.05 268.982 Q2140.6 268.982 2138.61 271.181 Q2136.62 273.38 2136.62 277.176 L2136.62 291.829 L2132.34 291.829 L2132.34 265.903 L2136.62 265.903 L2136.62 269.931 Q2138.15 267.593 2140.21 266.435 Q2142.29 265.278 2145 265.278 Q2149.47 265.278 2151.76 268.056 Q2154.05 270.81 2154.05 276.181 Z" fill="#000000" fill-rule="evenodd" fill-opacity="1" /><path clip-path="url(#clip710)" d="M 0 0 M2186.71 255.81 L2186.71 259.352 L2182.64 259.352 Q2180.35 259.352 2179.44 260.278 Q2178.56 261.204 2178.56 263.611 L2178.56 265.903 L2185.58 265.903 L2185.58 269.213 L2178.56 269.213 L2178.56 291.829 L2174.28 291.829 L2174.28 269.213 L2170.21 269.213 L2170.21 265.903 L2174.28 265.903 L2174.28 264.097 Q2174.28 259.769 2176.3 257.801 Q2178.31 255.81 2182.68 255.81 L2186.71 255.81 Z" fill="#000000" fill-rule="evenodd" fill-opacity="1" /><path clip-path="url(#clip710)" d="M 0 0 M2191.18 265.903 L2195.44 265.903 L2195.44 291.829 L2191.18 291.829 L2191.18 265.903 M2191.18 255.81 L2195.44 255.81 L2195.44 261.204 L2191.18 261.204 L2191.18 255.81 Z" fill="#000000" fill-rule="evenodd" fill-opacity="1" /><path clip-path="url(#clip710)" d="M 0 0 M2204.12 258.542 L2204.12 265.903 L2212.89 265.903 L2212.89 269.213 L2204.12 269.213 L2204.12 283.287 Q2204.12 286.458 2204.98 287.361 Q2205.86 288.264 2208.52 288.264 L2212.89 288.264 L2212.89 291.829 L2208.52 291.829 Q2203.59 291.829 2201.71 290 Q2199.84 288.148 2199.84 283.287 L2199.84 269.213 L2196.71 269.213 L2196.71 265.903 L2199.84 265.903 L2199.84 258.542 L2204.12 258.542 Z" fill="#000000" fill-rule="evenodd" fill-opacity="1" /></svg>
