<?xml version="1.0" encoding="utf-8"?>
<svg xmlns="http://www.w3.org/2000/svg" xmlns:xlink="http://www.w3.org/1999/xlink" width="600" height="400" viewBox="0 0 2400 1600">
<defs>
  <clipPath id="clip860">
    <rect x="0" y="0" width="2400" height="1600"/>
  </clipPath>
</defs>
<path clip-path="url(#clip860)" d="
M0 1600 L2400 1600 L2400 0 L0 0  Z
  " fill="#ffffff" fill-rule="evenodd" fill-opacity="1"/>
<defs>
  <clipPath id="clip861">
    <rect x="480" y="0" width="1681" height="1600"/>
  </clipPath>
</defs>
<path clip-path="url(#clip860)" d="
M238.616 1423.18 L2352.76 1423.18 L2352.76 47.2441 L238.616 47.2441  Z
  " fill="#ffffff" fill-rule="evenodd" fill-opacity="1"/>
<defs>
  <clipPath id="clip862">
    <rect x="238" y="47" width="2115" height="1377"/>
  </clipPath>
</defs>
<polyline clip-path="url(#clip862)" style="stroke:#000000; stroke-width:2; stroke-opacity:0.1; fill:none" points="
  298.45,1423.18 298.45,47.2441 
  "/>
<polyline clip-path="url(#clip862)" style="stroke:#000000; stroke-width:2; stroke-opacity:0.1; fill:none" points="
  679.875,1423.18 679.875,47.2441 
  "/>
<polyline clip-path="url(#clip862)" style="stroke:#000000; stroke-width:2; stroke-opacity:0.1; fill:none" points="
  1061.3,1423.18 1061.3,47.2441 
  "/>
<polyline clip-path="url(#clip862)" style="stroke:#000000; stroke-width:2; stroke-opacity:0.1; fill:none" points="
  1442.73,1423.18 1442.73,47.2441 
  "/>
<polyline clip-path="url(#clip862)" style="stroke:#000000; stroke-width:2; stroke-opacity:0.1; fill:none" points="
  1824.15,1423.18 1824.15,47.2441 
  "/>
<polyline clip-path="url(#clip862)" style="stroke:#000000; stroke-width:2; stroke-opacity:0.1; fill:none" points="
  2205.58,1423.18 2205.58,47.2441 
  "/>
<polyline clip-path="url(#clip860)" style="stroke:#000000; stroke-width:4; stroke-opacity:1; fill:none" points="
  238.616,1423.18 2352.76,1423.18 
  "/>
<polyline clip-path="url(#clip860)" style="stroke:#000000; stroke-width:4; stroke-opacity:1; fill:none" points="
  298.45,1423.18 298.45,1406.67 
  "/>
<polyline clip-path="url(#clip860)" style="stroke:#000000; stroke-width:4; stroke-opacity:1; fill:none" points="
  679.875,1423.18 679.875,1406.67 
  "/>
<polyline clip-path="url(#clip860)" style="stroke:#000000; stroke-width:4; stroke-opacity:1; fill:none" points="
  1061.3,1423.18 1061.3,1406.67 
  "/>
<polyline clip-path="url(#clip860)" style="stroke:#000000; stroke-width:4; stroke-opacity:1; fill:none" points="
  1442.73,1423.18 1442.73,1406.67 
  "/>
<polyline clip-path="url(#clip860)" style="stroke:#000000; stroke-width:4; stroke-opacity:1; fill:none" points="
  1824.15,1423.18 1824.15,1406.67 
  "/>
<polyline clip-path="url(#clip860)" style="stroke:#000000; stroke-width:4; stroke-opacity:1; fill:none" points="
  2205.58,1423.18 2205.58,1406.67 
  "/>
<path clip-path="url(#clip860)" d="M 0 0 M298.45 1452.37 Q294.839 1452.37 293.011 1455.94 Q291.205 1459.48 291.205 1466.61 Q291.205 1473.71 293.011 1477.28 Q294.839 1480.82 298.45 1480.82 Q302.085 1480.82 303.89 1477.28 Q305.719 1473.71 305.719 1466.61 Q305.719 1459.48 303.89 1455.94 Q302.085 1452.37 298.45 1452.37 M298.45 1448.67 Q304.26 1448.67 307.316 1453.27 Q310.395 1457.86 310.395 1466.61 Q310.395 1475.33 307.316 1479.94 Q304.26 1484.52 298.45 1484.52 Q292.64 1484.52 289.561 1479.94 Q286.506 1475.33 286.506 1466.61 Q286.506 1457.86 289.561 1453.27 Q292.64 1448.67 298.45 1448.67 Z" fill="#000000" fill-rule="evenodd" fill-opacity="1" /><path clip-path="url(#clip860)" d="M 0 0 M656.75 1479.92 L664.389 1479.92 L664.389 1453.55 L656.079 1455.22 L656.079 1450.96 L664.343 1449.29 L669.019 1449.29 L669.019 1479.92 L676.658 1479.92 L676.658 1483.85 L656.75 1483.85 L656.75 1479.92 Z" fill="#000000" fill-rule="evenodd" fill-opacity="1" /><path clip-path="url(#clip860)" d="M 0 0 M691.727 1452.37 Q688.116 1452.37 686.287 1455.94 Q684.482 1459.48 684.482 1466.61 Q684.482 1473.71 686.287 1477.28 Q688.116 1480.82 691.727 1480.82 Q695.361 1480.82 697.167 1477.28 Q698.996 1473.71 698.996 1466.61 Q698.996 1459.48 697.167 1455.94 Q695.361 1452.37 691.727 1452.37 M691.727 1448.67 Q697.537 1448.67 700.593 1453.27 Q703.672 1457.86 703.672 1466.61 Q703.672 1475.33 700.593 1479.94 Q697.537 1484.52 691.727 1484.52 Q685.917 1484.52 682.838 1479.94 Q679.783 1475.33 679.783 1466.61 Q679.783 1457.86 682.838 1453.27 Q685.917 1448.67 691.727 1448.67 Z" fill="#000000" fill-rule="evenodd" fill-opacity="1" /><path clip-path="url(#clip860)" d="M 0 0 M1042.45 1479.92 L1058.77 1479.92 L1058.77 1483.85 L1036.82 1483.85 L1036.82 1479.92 Q1039.48 1477.16 1044.07 1472.53 Q1048.67 1467.88 1049.85 1466.54 Q1052.1 1464.01 1052.98 1462.28 Q1053.88 1460.52 1053.88 1458.83 Q1053.88 1456.07 1051.94 1454.34 Q1050.02 1452.6 1046.91 1452.6 Q1044.71 1452.6 1042.26 1453.37 Q1039.83 1454.13 1037.05 1455.68 L1037.05 1450.96 Q1039.88 1449.82 1042.33 1449.25 Q1044.78 1448.67 1046.82 1448.67 Q1052.19 1448.67 1055.39 1451.35 Q1058.58 1454.04 1058.58 1458.53 Q1058.58 1460.66 1057.77 1462.58 Q1056.98 1464.48 1054.88 1467.07 Q1054.3 1467.74 1051.2 1470.96 Q1048.09 1474.15 1042.45 1479.92 Z" fill="#000000" fill-rule="evenodd" fill-opacity="1" /><path clip-path="url(#clip860)" d="M 0 0 M1073.84 1452.37 Q1070.22 1452.37 1068.4 1455.94 Q1066.59 1459.48 1066.59 1466.61 Q1066.59 1473.71 1068.4 1477.28 Q1070.22 1480.82 1073.84 1480.82 Q1077.47 1480.82 1079.27 1477.28 Q1081.1 1473.71 1081.1 1466.61 Q1081.1 1459.48 1079.27 1455.94 Q1077.47 1452.37 1073.84 1452.37 M1073.84 1448.67 Q1079.65 1448.67 1082.7 1453.27 Q1085.78 1457.86 1085.78 1466.61 Q1085.78 1475.33 1082.7 1479.94 Q1079.65 1484.52 1073.84 1484.52 Q1068.02 1484.52 1064.95 1479.94 Q1061.89 1475.33 1061.89 1466.61 Q1061.89 1457.86 1064.95 1453.27 Q1068.02 1448.67 1073.84 1448.67 Z" fill="#000000" fill-rule="evenodd" fill-opacity="1" /><path clip-path="url(#clip860)" d="M 0 0 M1433.47 1465.22 Q1436.82 1465.94 1438.7 1468.2 Q1440.6 1470.47 1440.6 1473.81 Q1440.6 1478.92 1437.08 1481.72 Q1433.56 1484.52 1427.08 1484.52 Q1424.9 1484.52 1422.59 1484.08 Q1420.29 1483.67 1417.84 1482.81 L1417.84 1478.3 Q1419.79 1479.43 1422.1 1480.01 Q1424.42 1480.59 1426.94 1480.59 Q1431.34 1480.59 1433.63 1478.85 Q1435.94 1477.12 1435.94 1473.81 Q1435.94 1470.75 1433.79 1469.04 Q1431.66 1467.3 1427.84 1467.3 L1423.81 1467.3 L1423.81 1463.46 L1428.03 1463.46 Q1431.48 1463.46 1433.3 1462.09 Q1435.13 1460.7 1435.13 1458.11 Q1435.13 1455.45 1433.23 1454.04 Q1431.36 1452.6 1427.84 1452.6 Q1425.92 1452.6 1423.72 1453.02 Q1421.52 1453.44 1418.88 1454.31 L1418.88 1450.15 Q1421.54 1449.41 1423.86 1449.04 Q1426.2 1448.67 1428.26 1448.67 Q1433.58 1448.67 1436.68 1451.1 Q1439.79 1453.5 1439.79 1457.63 Q1439.79 1460.5 1438.14 1462.49 Q1436.5 1464.45 1433.47 1465.22 Z" fill="#000000" fill-rule="evenodd" fill-opacity="1" /><path clip-path="url(#clip860)" d="M 0 0 M1455.67 1452.37 Q1452.05 1452.37 1450.23 1455.94 Q1448.42 1459.48 1448.42 1466.61 Q1448.42 1473.71 1450.23 1477.28 Q1452.05 1480.82 1455.67 1480.82 Q1459.3 1480.82 1461.1 1477.28 Q1462.93 1473.71 1462.93 1466.61 Q1462.93 1459.48 1461.1 1455.94 Q1459.3 1452.37 1455.67 1452.37 M1455.67 1448.67 Q1461.48 1448.67 1464.53 1453.27 Q1467.61 1457.86 1467.61 1466.61 Q1467.61 1475.33 1464.53 1479.94 Q1461.48 1484.52 1455.67 1484.52 Q1449.85 1484.52 1446.78 1479.94 Q1443.72 1475.33 1443.72 1466.61 Q1443.72 1457.86 1446.78 1453.27 Q1449.85 1448.67 1455.67 1448.67 Z" fill="#000000" fill-rule="evenodd" fill-opacity="1" /><path clip-path="url(#clip860)" d="M 0 0 M1813.65 1453.37 L1801.85 1471.81 L1813.65 1471.81 L1813.65 1453.37 M1812.43 1449.29 L1818.31 1449.29 L1818.31 1471.81 L1823.24 1471.81 L1823.24 1475.7 L1818.31 1475.7 L1818.31 1483.85 L1813.65 1483.85 L1813.65 1475.7 L1798.05 1475.7 L1798.05 1471.19 L1812.43 1449.29 Z" fill="#000000" fill-rule="evenodd" fill-opacity="1" /><path clip-path="url(#clip860)" d="M 0 0 M1838.31 1452.37 Q1834.69 1452.37 1832.87 1455.94 Q1831.06 1459.48 1831.06 1466.61 Q1831.06 1473.71 1832.87 1477.28 Q1834.69 1480.82 1838.31 1480.82 Q1841.94 1480.82 1843.75 1477.28 Q1845.57 1473.71 1845.57 1466.61 Q1845.57 1459.48 1843.75 1455.94 Q1841.94 1452.37 1838.31 1452.37 M1838.31 1448.67 Q1844.12 1448.67 1847.17 1453.27 Q1850.25 1457.86 1850.25 1466.61 Q1850.25 1475.33 1847.17 1479.94 Q1844.12 1484.52 1838.31 1484.52 Q1832.5 1484.52 1829.42 1479.94 Q1826.36 1475.33 1826.36 1466.61 Q1826.36 1457.86 1829.42 1453.27 Q1832.5 1448.67 1838.31 1448.67 Z" fill="#000000" fill-rule="evenodd" fill-opacity="1" /><path clip-path="url(#clip860)" d="M 0 0 M2182.35 1449.29 L2200.7 1449.29 L2200.7 1453.23 L2186.63 1453.23 L2186.63 1461.7 Q2187.65 1461.35 2188.67 1461.19 Q2189.68 1461 2190.7 1461 Q2196.49 1461 2199.87 1464.18 Q2203.25 1467.35 2203.25 1472.76 Q2203.25 1478.34 2199.78 1481.44 Q2196.3 1484.52 2189.99 1484.52 Q2187.81 1484.52 2185.54 1484.15 Q2183.3 1483.78 2180.89 1483.04 L2180.89 1478.34 Q2182.97 1479.48 2185.19 1480.03 Q2187.42 1480.59 2189.89 1480.59 Q2193.9 1480.59 2196.24 1478.48 Q2198.57 1476.38 2198.57 1472.76 Q2198.57 1469.15 2196.24 1467.05 Q2193.9 1464.94 2189.89 1464.94 Q2188.02 1464.94 2186.14 1465.36 Q2184.29 1465.77 2182.35 1466.65 L2182.35 1449.29 Z" fill="#000000" fill-rule="evenodd" fill-opacity="1" /><path clip-path="url(#clip860)" d="M 0 0 M2218.32 1452.37 Q2214.71 1452.37 2212.88 1455.94 Q2211.07 1459.48 2211.07 1466.61 Q2211.07 1473.71 2212.88 1477.28 Q2214.71 1480.82 2218.32 1480.82 Q2221.95 1480.82 2223.76 1477.28 Q2225.59 1473.71 2225.59 1466.61 Q2225.59 1459.48 2223.76 1455.94 Q2221.95 1452.37 2218.32 1452.37 M2218.32 1448.67 Q2224.13 1448.67 2227.18 1453.27 Q2230.26 1457.86 2230.26 1466.61 Q2230.26 1475.33 2227.18 1479.94 Q2224.13 1484.52 2218.32 1484.52 Q2212.51 1484.52 2209.43 1479.94 Q2206.37 1475.33 2206.37 1466.61 Q2206.37 1457.86 2209.43 1453.27 Q2212.51 1448.67 2218.32 1448.67 Z" fill="#000000" fill-rule="evenodd" fill-opacity="1" /><path clip-path="url(#clip860)" d="M 0 0 M1306.13 1537.87 Q1305.14 1537.3 1303.96 1537.04 Q1302.82 1536.76 1301.42 1536.76 Q1296.45 1536.76 1293.78 1540 Q1291.13 1543.22 1291.13 1549.27 L1291.13 1568.04 L1285.25 1568.04 L1285.25 1532.4 L1291.13 1532.4 L1291.13 1537.93 Q1292.98 1534.69 1295.94 1533.13 Q1298.9 1531.54 1303.13 1531.54 Q1303.74 1531.54 1304.47 1531.63 Q1305.2 1531.7 1306.09 1531.85 L1306.13 1537.87 Z" fill="#000000" fill-rule="evenodd" fill-opacity="1" /><polyline clip-path="url(#clip862)" style="stroke:#000000; stroke-width:2; stroke-opacity:0.1; fill:none" points="
  238.616,1384.24 2352.76,1384.24 
  "/>
<polyline clip-path="url(#clip862)" style="stroke:#000000; stroke-width:2; stroke-opacity:0.1; fill:none" points="
  238.616,1060.26 2352.76,1060.26 
  "/>
<polyline clip-path="url(#clip862)" style="stroke:#000000; stroke-width:2; stroke-opacity:0.1; fill:none" points="
  238.616,736.272 2352.76,736.272 
  "/>
<polyline clip-path="url(#clip862)" style="stroke:#000000; stroke-width:2; stroke-opacity:0.1; fill:none" points="
  238.616,412.29 2352.76,412.29 
  "/>
<polyline clip-path="url(#clip862)" style="stroke:#000000; stroke-width:2; stroke-opacity:0.1; fill:none" points="
  238.616,88.3067 2352.76,88.3067 
  "/>
<polyline clip-path="url(#clip860)" style="stroke:#000000; stroke-width:4; stroke-opacity:1; fill:none" points="
  238.616,1423.18 238.616,47.2441 
  "/>
<polyline clip-path="url(#clip860)" style="stroke:#000000; stroke-width:4; stroke-opacity:1; fill:none" points="
  238.616,1384.24 263.986,1384.24 
  "/>
<polyline clip-path="url(#clip860)" style="stroke:#000000; stroke-width:4; stroke-opacity:1; fill:none" points="
  238.616,1060.26 263.986,1060.26 
  "/>
<polyline clip-path="url(#clip860)" style="stroke:#000000; stroke-width:4; stroke-opacity:1; fill:none" points="
  238.616,736.272 263.986,736.272 
  "/>
<polyline clip-path="url(#clip860)" style="stroke:#000000; stroke-width:4; stroke-opacity:1; fill:none" points="
  238.616,412.29 263.986,412.29 
  "/>
<polyline clip-path="url(#clip860)" style="stroke:#000000; stroke-width:4; stroke-opacity:1; fill:none" points="
  238.616,88.3067 263.986,88.3067 
  "/>
<path clip-path="url(#clip860)" d="M 0 0 M126.691 1370.04 Q123.08 1370.04 121.251 1373.6 Q119.445 1377.14 119.445 1384.27 Q119.445 1391.38 121.251 1394.94 Q123.08 1398.49 126.691 1398.49 Q130.325 1398.49 132.13 1394.94 Q133.959 1391.38 133.959 1384.27 Q133.959 1377.14 132.13 1373.6 Q130.325 1370.04 126.691 1370.04 M126.691 1366.33 Q132.501 1366.33 135.556 1370.94 Q138.635 1375.52 138.635 1384.27 Q138.635 1393 135.556 1397.61 Q132.501 1402.19 126.691 1402.19 Q120.88 1402.19 117.802 1397.61 Q114.746 1393 114.746 1384.27 Q114.746 1375.52 117.802 1370.94 Q120.88 1366.33 126.691 1366.33 Z" fill="#000000" fill-rule="evenodd" fill-opacity="1" /><path clip-path="url(#clip860)" d="M 0 0 M143.704 1395.64 L148.589 1395.64 L148.589 1401.52 L143.704 1401.52 L143.704 1395.64 Z" fill="#000000" fill-rule="evenodd" fill-opacity="1" /><path clip-path="url(#clip860)" d="M 0 0 M163.658 1370.04 Q160.047 1370.04 158.218 1373.6 Q156.413 1377.14 156.413 1384.27 Q156.413 1391.38 158.218 1394.94 Q160.047 1398.49 163.658 1398.49 Q167.292 1398.49 169.098 1394.94 Q170.927 1391.38 170.927 1384.27 Q170.927 1377.14 169.098 1373.6 Q167.292 1370.04 163.658 1370.04 M163.658 1366.33 Q169.468 1366.33 172.524 1370.94 Q175.602 1375.52 175.602 1384.27 Q175.602 1393 172.524 1397.61 Q169.468 1402.19 163.658 1402.19 Q157.848 1402.19 154.769 1397.61 Q151.714 1393 151.714 1384.27 Q151.714 1375.52 154.769 1370.94 Q157.848 1366.33 163.658 1366.33 Z" fill="#000000" fill-rule="evenodd" fill-opacity="1" /><path clip-path="url(#clip860)" d="M 0 0 M190.672 1370.04 Q187.061 1370.04 185.232 1373.6 Q183.426 1377.14 183.426 1384.27 Q183.426 1391.38 185.232 1394.94 Q187.061 1398.49 190.672 1398.49 Q194.306 1398.49 196.112 1394.94 Q197.94 1391.38 197.94 1384.27 Q197.94 1377.14 196.112 1373.6 Q194.306 1370.04 190.672 1370.04 M190.672 1366.33 Q196.482 1366.33 199.537 1370.94 Q202.616 1375.52 202.616 1384.27 Q202.616 1393 199.537 1397.61 Q196.482 1402.19 190.672 1402.19 Q184.862 1402.19 181.783 1397.61 Q178.727 1393 178.727 1384.27 Q178.727 1375.52 181.783 1370.94 Q184.862 1366.33 190.672 1366.33 Z" fill="#000000" fill-rule="evenodd" fill-opacity="1" /><path clip-path="url(#clip860)" d="M 0 0 M128.288 1046.05 Q124.677 1046.05 122.848 1049.62 Q121.043 1053.16 121.043 1060.29 Q121.043 1067.4 122.848 1070.96 Q124.677 1074.5 128.288 1074.5 Q131.922 1074.5 133.728 1070.96 Q135.556 1067.4 135.556 1060.29 Q135.556 1053.16 133.728 1049.62 Q131.922 1046.05 128.288 1046.05 M128.288 1042.35 Q134.098 1042.35 137.154 1046.96 Q140.232 1051.54 140.232 1060.29 Q140.232 1069.02 137.154 1073.62 Q134.098 1078.21 128.288 1078.21 Q122.478 1078.21 119.399 1073.62 Q116.343 1069.02 116.343 1060.29 Q116.343 1051.54 119.399 1046.96 Q122.478 1042.35 128.288 1042.35 Z" fill="#000000" fill-rule="evenodd" fill-opacity="1" /><path clip-path="url(#clip860)" d="M 0 0 M145.302 1071.66 L150.186 1071.66 L150.186 1077.54 L145.302 1077.54 L145.302 1071.66 Z" fill="#000000" fill-rule="evenodd" fill-opacity="1" /><path clip-path="url(#clip860)" d="M 0 0 M165.255 1046.05 Q161.644 1046.05 159.815 1049.62 Q158.01 1053.16 158.01 1060.29 Q158.01 1067.4 159.815 1070.96 Q161.644 1074.5 165.255 1074.5 Q168.889 1074.5 170.695 1070.96 Q172.524 1067.4 172.524 1060.29 Q172.524 1053.16 170.695 1049.62 Q168.889 1046.05 165.255 1046.05 M165.255 1042.35 Q171.065 1042.35 174.121 1046.96 Q177.2 1051.54 177.2 1060.29 Q177.2 1069.02 174.121 1073.62 Q171.065 1078.21 165.255 1078.21 Q159.445 1078.21 156.366 1073.62 Q153.311 1069.02 153.311 1060.29 Q153.311 1051.54 156.366 1046.96 Q159.445 1042.35 165.255 1042.35 Z" fill="#000000" fill-rule="evenodd" fill-opacity="1" /><path clip-path="url(#clip860)" d="M 0 0 M186.297 1073.6 L202.616 1073.6 L202.616 1077.54 L180.672 1077.54 L180.672 1073.6 Q183.334 1070.85 187.917 1066.22 Q192.524 1061.56 193.704 1060.22 Q195.95 1057.7 196.829 1055.96 Q197.732 1054.2 197.732 1052.51 Q197.732 1049.76 195.787 1048.02 Q193.866 1046.29 190.764 1046.29 Q188.565 1046.29 186.112 1047.05 Q183.681 1047.81 180.903 1049.36 L180.903 1044.64 Q183.727 1043.51 186.181 1042.93 Q188.635 1042.35 190.672 1042.35 Q196.042 1042.35 199.237 1045.04 Q202.431 1047.72 202.431 1052.21 Q202.431 1054.34 201.621 1056.26 Q200.834 1058.16 198.727 1060.75 Q198.149 1061.42 195.047 1064.64 Q191.945 1067.84 186.297 1073.6 Z" fill="#000000" fill-rule="evenodd" fill-opacity="1" /><path clip-path="url(#clip860)" d="M 0 0 M126.205 722.071 Q122.593 722.071 120.765 725.636 Q118.959 729.178 118.959 736.307 Q118.959 743.414 120.765 746.978 Q122.593 750.52 126.205 750.52 Q129.839 750.52 131.644 746.978 Q133.473 743.414 133.473 736.307 Q133.473 729.178 131.644 725.636 Q129.839 722.071 126.205 722.071 M126.205 718.367 Q132.015 718.367 135.07 722.974 Q138.149 727.557 138.149 736.307 Q138.149 745.034 135.07 749.64 Q132.015 754.224 126.205 754.224 Q120.394 754.224 117.316 749.64 Q114.26 745.034 114.26 736.307 Q114.26 727.557 117.316 722.974 Q120.394 718.367 126.205 718.367 Z" fill="#000000" fill-rule="evenodd" fill-opacity="1" /><path clip-path="url(#clip860)" d="M 0 0 M143.218 747.673 L148.103 747.673 L148.103 753.552 L143.218 753.552 L143.218 747.673 Z" fill="#000000" fill-rule="evenodd" fill-opacity="1" /><path clip-path="url(#clip860)" d="M 0 0 M163.172 722.071 Q159.561 722.071 157.732 725.636 Q155.927 729.178 155.927 736.307 Q155.927 743.414 157.732 746.978 Q159.561 750.52 163.172 750.52 Q166.806 750.52 168.612 746.978 Q170.44 743.414 170.44 736.307 Q170.44 729.178 168.612 725.636 Q166.806 722.071 163.172 722.071 M163.172 718.367 Q168.982 718.367 172.038 722.974 Q175.116 727.557 175.116 736.307 Q175.116 745.034 172.038 749.64 Q168.982 754.224 163.172 754.224 Q157.362 754.224 154.283 749.64 Q151.228 745.034 151.228 736.307 Q151.228 727.557 154.283 722.974 Q157.362 718.367 163.172 718.367 Z" fill="#000000" fill-rule="evenodd" fill-opacity="1" /><path clip-path="url(#clip860)" d="M 0 0 M193.033 723.067 L181.227 741.515 L193.033 741.515 L193.033 723.067 M191.806 718.992 L197.686 718.992 L197.686 741.515 L202.616 741.515 L202.616 745.404 L197.686 745.404 L197.686 753.552 L193.033 753.552 L193.033 745.404 L177.431 745.404 L177.431 740.89 L191.806 718.992 Z" fill="#000000" fill-rule="evenodd" fill-opacity="1" /><path clip-path="url(#clip860)" d="M 0 0 M126.529 398.088 Q122.918 398.088 121.089 401.653 Q119.283 405.195 119.283 412.324 Q119.283 419.431 121.089 422.996 Q122.918 426.537 126.529 426.537 Q130.163 426.537 131.968 422.996 Q133.797 419.431 133.797 412.324 Q133.797 405.195 131.968 401.653 Q130.163 398.088 126.529 398.088 M126.529 394.385 Q132.339 394.385 135.394 398.991 Q138.473 403.574 138.473 412.324 Q138.473 421.051 135.394 425.658 Q132.339 430.241 126.529 430.241 Q120.718 430.241 117.64 425.658 Q114.584 421.051 114.584 412.324 Q114.584 403.574 117.64 398.991 Q120.718 394.385 126.529 394.385 Z" fill="#000000" fill-rule="evenodd" fill-opacity="1" /><path clip-path="url(#clip860)" d="M 0 0 M143.542 423.69 L148.427 423.69 L148.427 429.57 L143.542 429.57 L143.542 423.69 Z" fill="#000000" fill-rule="evenodd" fill-opacity="1" /><path clip-path="url(#clip860)" d="M 0 0 M163.496 398.088 Q159.885 398.088 158.056 401.653 Q156.251 405.195 156.251 412.324 Q156.251 419.431 158.056 422.996 Q159.885 426.537 163.496 426.537 Q167.13 426.537 168.936 422.996 Q170.764 419.431 170.764 412.324 Q170.764 405.195 168.936 401.653 Q167.13 398.088 163.496 398.088 M163.496 394.385 Q169.306 394.385 172.362 398.991 Q175.44 403.574 175.44 412.324 Q175.44 421.051 172.362 425.658 Q169.306 430.241 163.496 430.241 Q157.686 430.241 154.607 425.658 Q151.552 421.051 151.552 412.324 Q151.552 403.574 154.607 398.991 Q157.686 394.385 163.496 394.385 Z" fill="#000000" fill-rule="evenodd" fill-opacity="1" /><path clip-path="url(#clip860)" d="M 0 0 M191.088 410.426 Q187.94 410.426 186.088 412.579 Q184.26 414.732 184.26 418.482 Q184.26 422.208 186.088 424.384 Q187.94 426.537 191.088 426.537 Q194.237 426.537 196.065 424.384 Q197.917 422.208 197.917 418.482 Q197.917 414.732 196.065 412.579 Q194.237 410.426 191.088 410.426 M200.371 395.773 L200.371 400.033 Q198.612 399.199 196.806 398.76 Q195.024 398.32 193.264 398.32 Q188.635 398.32 186.181 401.445 Q183.751 404.57 183.403 410.889 Q184.769 408.875 186.829 407.81 Q188.889 406.722 191.366 406.722 Q196.575 406.722 199.584 409.894 Q202.616 413.042 202.616 418.482 Q202.616 423.806 199.468 427.023 Q196.32 430.241 191.088 430.241 Q185.093 430.241 181.922 425.658 Q178.751 421.051 178.751 412.324 Q178.751 404.13 182.639 399.269 Q186.528 394.385 193.079 394.385 Q194.838 394.385 196.621 394.732 Q198.426 395.079 200.371 395.773 Z" fill="#000000" fill-rule="evenodd" fill-opacity="1" /><path clip-path="url(#clip860)" d="M 0 0 M126.783 74.1053 Q123.172 74.1053 121.343 77.6701 Q119.538 81.2118 119.538 88.3414 Q119.538 95.4478 121.343 99.0126 Q123.172 102.554 126.783 102.554 Q130.417 102.554 132.223 99.0126 Q134.052 95.4478 134.052 88.3414 Q134.052 81.2118 132.223 77.6701 Q130.417 74.1053 126.783 74.1053 M126.783 70.4017 Q132.593 70.4017 135.649 75.0081 Q138.728 79.5914 138.728 88.3414 Q138.728 97.0682 135.649 101.675 Q132.593 106.258 126.783 106.258 Q120.973 106.258 117.894 101.675 Q114.839 97.0682 114.839 88.3414 Q114.839 79.5914 117.894 75.0081 Q120.973 70.4017 126.783 70.4017 Z" fill="#000000" fill-rule="evenodd" fill-opacity="1" /><path clip-path="url(#clip860)" d="M 0 0 M143.797 99.7071 L148.681 99.7071 L148.681 105.587 L143.797 105.587 L143.797 99.7071 Z" fill="#000000" fill-rule="evenodd" fill-opacity="1" /><path clip-path="url(#clip860)" d="M 0 0 M163.751 74.1053 Q160.14 74.1053 158.311 77.6701 Q156.505 81.2118 156.505 88.3414 Q156.505 95.4478 158.311 99.0126 Q160.14 102.554 163.751 102.554 Q167.385 102.554 169.19 99.0126 Q171.019 95.4478 171.019 88.3414 Q171.019 81.2118 169.19 77.6701 Q167.385 74.1053 163.751 74.1053 M163.751 70.4017 Q169.561 70.4017 172.616 75.0081 Q175.695 79.5914 175.695 88.3414 Q175.695 97.0682 172.616 101.675 Q169.561 106.258 163.751 106.258 Q157.94 106.258 154.862 101.675 Q151.806 97.0682 151.806 88.3414 Q151.806 79.5914 154.862 75.0081 Q157.94 70.4017 163.751 70.4017 Z" fill="#000000" fill-rule="evenodd" fill-opacity="1" /><path clip-path="url(#clip860)" d="M 0 0 M190.764 89.1747 Q187.431 89.1747 185.51 90.9571 Q183.612 92.7395 183.612 95.8645 Q183.612 98.9895 185.51 100.772 Q187.431 102.554 190.764 102.554 Q194.098 102.554 196.019 100.772 Q197.94 98.9663 197.94 95.8645 Q197.94 92.7395 196.019 90.9571 Q194.121 89.1747 190.764 89.1747 M186.088 87.184 Q183.079 86.4432 181.389 84.3831 Q179.723 82.3229 179.723 79.36 Q179.723 75.2165 182.663 72.8091 Q185.626 70.4017 190.764 70.4017 Q195.926 70.4017 198.866 72.8091 Q201.806 75.2165 201.806 79.36 Q201.806 82.3229 200.116 84.3831 Q198.45 86.4432 195.463 87.184 Q198.843 87.971 200.718 90.2627 Q202.616 92.5543 202.616 95.8645 Q202.616 100.888 199.537 103.573 Q196.482 106.258 190.764 106.258 Q185.047 106.258 181.968 103.573 Q178.913 100.888 178.913 95.8645 Q178.913 92.5543 180.811 90.2627 Q182.709 87.971 186.088 87.184 M184.376 79.7998 Q184.376 82.4849 186.042 83.9896 Q187.732 85.4942 190.764 85.4942 Q193.774 85.4942 195.463 83.9896 Q197.176 82.4849 197.176 79.7998 Q197.176 77.1146 195.463 75.61 Q193.774 74.1053 190.764 74.1053 Q187.732 74.1053 186.042 75.61 Q184.376 77.1146 184.376 79.7998 Z" fill="#000000" fill-rule="evenodd" fill-opacity="1" /><path clip-path="url(#clip860)" d="M 0 0 M21.7677 777.544 L39.6235 777.544 L39.6235 769.459 Q39.6235 764.972 37.3 762.521 Q34.9765 760.07 30.6797 760.07 Q26.4147 760.07 24.0912 762.521 Q21.7677 764.972 21.7677 769.459 L21.7677 777.544 M16.4842 783.973 L16.4842 769.459 Q16.4842 761.471 20.1126 757.396 Q23.7092 753.291 30.6797 753.291 Q37.7138 753.291 41.3104 757.396 Q44.907 761.471 44.907 769.459 L44.907 777.544 L64.0042 777.544 L64.0042 783.973 L16.4842 783.973 Z" fill="#000000" fill-rule="evenodd" fill-opacity="1" /><path clip-path="url(#clip860)" d="M 0 0 M14.5426 733.079 Q21.8632 737.344 29.0246 739.413 Q36.186 741.482 43.5384 741.482 Q50.8908 741.482 58.1159 739.413 Q65.3091 737.313 72.5979 733.079 L72.5979 738.172 Q65.1182 742.946 57.8931 745.333 Q50.668 747.689 43.5384 747.689 Q36.4406 747.689 29.2474 745.333 Q22.0542 742.978 14.5426 738.172 L14.5426 733.079 Z" fill="#000000" fill-rule="evenodd" fill-opacity="1" /><path clip-path="url(#clip860)" d="M 0 0 M33.8307 706.28 Q33.2578 707.267 33.0032 708.444 Q32.7167 709.59 32.7167 710.99 Q32.7167 715.956 35.9632 718.629 Q39.1779 721.271 45.2253 721.271 L64.0042 721.271 L64.0042 727.159 L28.3562 727.159 L28.3562 721.271 L33.8944 721.271 Q30.6479 719.425 29.0883 716.465 Q27.4968 713.505 27.4968 709.272 Q27.4968 708.667 27.5923 707.935 Q27.656 707.203 27.8151 706.312 L33.8307 706.28 Z" fill="#000000" fill-rule="evenodd" fill-opacity="1" /><path clip-path="url(#clip860)" d="M 0 0 M14.5426 701.06 L14.5426 695.967 Q22.0542 691.193 29.2474 688.838 Q36.4406 686.451 43.5384 686.451 Q50.668 686.451 57.8931 688.838 Q65.1182 691.193 72.5979 695.967 L72.5979 701.06 Q65.3091 696.827 58.1159 694.758 Q50.8908 692.657 43.5384 692.657 Q36.186 692.657 29.0246 694.758 Q21.8632 696.827 14.5426 701.06 Z" fill="#000000" fill-rule="evenodd" fill-opacity="1" /><path clip-path="url(#clip862)" d="
M603.59 1383.27 L603.59 1384.24 L641.733 1384.24 L641.733 1383.27 L603.59 1383.27 L603.59 1383.27  Z
  " fill="#009af9" fill-rule="evenodd" fill-opacity="1"/>
<polyline clip-path="url(#clip862)" style="stroke:#009af9; stroke-width:4; stroke-opacity:1; fill:none" points="
  603.59,1383.27 603.59,1384.24 641.733,1384.24 641.733,1383.27 603.59,1383.27 
  "/>
<path clip-path="url(#clip862)" d="
M641.733 1382.78 L641.733 1384.24 L679.875 1384.24 L679.875 1382.78 L641.733 1382.78 L641.733 1382.78  Z
  " fill="#009af9" fill-rule="evenodd" fill-opacity="1"/>
<polyline clip-path="url(#clip862)" style="stroke:#009af9; stroke-width:4; stroke-opacity:1; fill:none" points="
  641.733,1382.78 641.733,1384.24 679.875,1384.24 679.875,1382.78 641.733,1382.78 
  "/>
<path clip-path="url(#clip862)" d="
M679.875 1378.56 L679.875 1384.24 L718.018 1384.24 L718.018 1378.56 L679.875 1378.56 L679.875 1378.56  Z
  " fill="#009af9" fill-rule="evenodd" fill-opacity="1"/>
<polyline clip-path="url(#clip862)" style="stroke:#009af9; stroke-width:4; stroke-opacity:1; fill:none" points="
  679.875,1378.56 679.875,1384.24 718.018,1384.24 718.018,1378.56 679.875,1378.56 
  "/>
<path clip-path="url(#clip862)" d="
M718.018 1369.97 L718.018 1384.24 L756.16 1384.24 L756.16 1369.97 L718.018 1369.97 L718.018 1369.97  Z
  " fill="#009af9" fill-rule="evenodd" fill-opacity="1"/>
<polyline clip-path="url(#clip862)" style="stroke:#009af9; stroke-width:4; stroke-opacity:1; fill:none" points="
  718.018,1369.97 718.018,1384.24 756.16,1384.24 756.16,1369.97 718.018,1369.97 
  "/>
<path clip-path="url(#clip862)" d="
M756.16 1355.37 L756.16 1384.24 L794.303 1384.24 L794.303 1355.37 L756.16 1355.37 L756.16 1355.37  Z
  " fill="#009af9" fill-rule="evenodd" fill-opacity="1"/>
<polyline clip-path="url(#clip862)" style="stroke:#009af9; stroke-width:4; stroke-opacity:1; fill:none" points="
  756.16,1355.37 756.16,1384.24 794.303,1384.24 794.303,1355.37 756.16,1355.37 
  "/>
<path clip-path="url(#clip862)" d="
M794.303 1334.13 L794.303 1384.24 L832.445 1384.24 L832.445 1334.13 L794.303 1334.13 L794.303 1334.13  Z
  " fill="#009af9" fill-rule="evenodd" fill-opacity="1"/>
<polyline clip-path="url(#clip862)" style="stroke:#009af9; stroke-width:4; stroke-opacity:1; fill:none" points="
  794.303,1334.13 794.303,1384.24 832.445,1384.24 832.445,1334.13 794.303,1334.13 
  "/>
<path clip-path="url(#clip862)" d="
M832.445 1283.54 L832.445 1384.24 L870.588 1384.24 L870.588 1283.54 L832.445 1283.54 L832.445 1283.54  Z
  " fill="#009af9" fill-rule="evenodd" fill-opacity="1"/>
<polyline clip-path="url(#clip862)" style="stroke:#009af9; stroke-width:4; stroke-opacity:1; fill:none" points="
  832.445,1283.54 832.445,1384.24 870.588,1384.24 870.588,1283.54 832.445,1283.54 
  "/>
<path clip-path="url(#clip862)" d="
M870.588 1221.76 L870.588 1384.24 L908.73 1384.24 L908.73 1221.76 L870.588 1221.76 L870.588 1221.76  Z
  " fill="#009af9" fill-rule="evenodd" fill-opacity="1"/>
<polyline clip-path="url(#clip862)" style="stroke:#009af9; stroke-width:4; stroke-opacity:1; fill:none" points="
  870.588,1221.76 870.588,1384.24 908.73,1384.24 908.73,1221.76 870.588,1221.76 
  "/>
<path clip-path="url(#clip862)" d="
M908.73 1137.11 L908.73 1384.24 L946.873 1384.24 L946.873 1137.11 L908.73 1137.11 L908.73 1137.11  Z
  " fill="#009af9" fill-rule="evenodd" fill-opacity="1"/>
<polyline clip-path="url(#clip862)" style="stroke:#009af9; stroke-width:4; stroke-opacity:1; fill:none" points="
  908.73,1137.11 908.73,1384.24 946.873,1384.24 946.873,1137.11 908.73,1137.11 
  "/>
<path clip-path="url(#clip862)" d="
M946.873 1012.09 L946.873 1384.24 L985.015 1384.24 L985.015 1012.09 L946.873 1012.09 L946.873 1012.09  Z
  " fill="#009af9" fill-rule="evenodd" fill-opacity="1"/>
<polyline clip-path="url(#clip862)" style="stroke:#009af9; stroke-width:4; stroke-opacity:1; fill:none" points="
  946.873,1012.09 946.873,1384.24 985.015,1384.24 985.015,1012.09 946.873,1012.09 
  "/>
<path clip-path="url(#clip862)" d="
M985.015 887.395 L985.015 1384.24 L1023.16 1384.24 L1023.16 887.395 L985.015 887.395 L985.015 887.395  Z
  " fill="#009af9" fill-rule="evenodd" fill-opacity="1"/>
<polyline clip-path="url(#clip862)" style="stroke:#009af9; stroke-width:4; stroke-opacity:1; fill:none" points="
  985.015,887.395 985.015,1384.24 1023.16,1384.24 1023.16,887.395 985.015,887.395 
  "/>
<path clip-path="url(#clip862)" d="
M1023.16 711.943 L1023.16 1384.24 L1061.3 1384.24 L1061.3 711.943 L1023.16 711.943 L1023.16 711.943  Z
  " fill="#009af9" fill-rule="evenodd" fill-opacity="1"/>
<polyline clip-path="url(#clip862)" style="stroke:#009af9; stroke-width:4; stroke-opacity:1; fill:none" points="
  1023.16,711.943 1023.16,1384.24 1061.3,1384.24 1061.3,711.943 1023.16,711.943 
  "/>
<path clip-path="url(#clip862)" d="
M1061.3 537.464 L1061.3 1384.24 L1099.44 1384.24 L1099.44 537.464 L1061.3 537.464 L1061.3 537.464  Z
  " fill="#009af9" fill-rule="evenodd" fill-opacity="1"/>
<polyline clip-path="url(#clip862)" style="stroke:#009af9; stroke-width:4; stroke-opacity:1; fill:none" points="
  1061.3,537.464 1061.3,1384.24 1099.44,1384.24 1099.44,537.464 1061.3,537.464 
  "/>
<path clip-path="url(#clip862)" d="
M1099.44 400.929 L1099.44 1384.24 L1137.59 1384.24 L1137.59 400.929 L1099.44 400.929 L1099.44 400.929  Z
  " fill="#009af9" fill-rule="evenodd" fill-opacity="1"/>
<polyline clip-path="url(#clip862)" style="stroke:#009af9; stroke-width:4; stroke-opacity:1; fill:none" points="
  1099.44,400.929 1099.44,1384.24 1137.59,1384.24 1137.59,400.929 1099.44,400.929 
  "/>
<path clip-path="url(#clip862)" d="
M1137.59 238.612 L1137.59 1384.24 L1175.73 1384.24 L1175.73 238.612 L1137.59 238.612 L1137.59 238.612  Z
  " fill="#009af9" fill-rule="evenodd" fill-opacity="1"/>
<polyline clip-path="url(#clip862)" style="stroke:#009af9; stroke-width:4; stroke-opacity:1; fill:none" points="
  1137.59,238.612 1137.59,1384.24 1175.73,1384.24 1175.73,238.612 1137.59,238.612 
  "/>
<path clip-path="url(#clip862)" d="
M1175.73 162.399 L1175.73 1384.24 L1213.87 1384.24 L1213.87 162.399 L1175.73 162.399 L1175.73 162.399  Z
  " fill="#009af9" fill-rule="evenodd" fill-opacity="1"/>
<polyline clip-path="url(#clip862)" style="stroke:#009af9; stroke-width:4; stroke-opacity:1; fill:none" points="
  1175.73,162.399 1175.73,1384.24 1213.87,1384.24 1213.87,162.399 1175.73,162.399 
  "/>
<path clip-path="url(#clip862)" d="
M1213.87 86.1857 L1213.87 1384.24 L1252.01 1384.24 L1252.01 86.1857 L1213.87 86.1857 L1213.87 86.1857  Z
  " fill="#009af9" fill-rule="evenodd" fill-opacity="1"/>
<polyline clip-path="url(#clip862)" style="stroke:#009af9; stroke-width:4; stroke-opacity:1; fill:none" points="
  1213.87,86.1857 1213.87,1384.24 1252.01,1384.24 1252.01,86.1857 1213.87,86.1857 
  "/>
<path clip-path="url(#clip862)" d="
M1252.01 123.319 L1252.01 1384.24 L1290.16 1384.24 L1290.16 123.319 L1252.01 123.319 L1252.01 123.319  Z
  " fill="#009af9" fill-rule="evenodd" fill-opacity="1"/>
<polyline clip-path="url(#clip862)" style="stroke:#009af9; stroke-width:4; stroke-opacity:1; fill:none" points="
  1252.01,123.319 1252.01,1384.24 1290.16,1384.24 1290.16,123.319 1252.01,123.319 
  "/>
<path clip-path="url(#clip862)" d="
M1290.16 131.751 L1290.16 1384.24 L1328.3 1384.24 L1328.3 131.751 L1290.16 131.751 L1290.16 131.751  Z
  " fill="#009af9" fill-rule="evenodd" fill-opacity="1"/>
<polyline clip-path="url(#clip862)" style="stroke:#009af9; stroke-width:4; stroke-opacity:1; fill:none" points="
  1290.16,131.751 1290.16,1384.24 1328.3,1384.24 1328.3,131.751 1290.16,131.751 
  "/>
<path clip-path="url(#clip862)" d="
M1328.3 218.18 L1328.3 1384.24 L1366.44 1384.24 L1366.44 218.18 L1328.3 218.18 L1328.3 218.18  Z
  " fill="#009af9" fill-rule="evenodd" fill-opacity="1"/>
<polyline clip-path="url(#clip862)" style="stroke:#009af9; stroke-width:4; stroke-opacity:1; fill:none" points="
  1328.3,218.18 1328.3,1384.24 1366.44,1384.24 1366.44,218.18 1328.3,218.18 
  "/>
<path clip-path="url(#clip862)" d="
M1366.44 371.903 L1366.44 1384.24 L1404.58 1384.24 L1404.58 371.903 L1366.44 371.903 L1366.44 371.903  Z
  " fill="#009af9" fill-rule="evenodd" fill-opacity="1"/>
<polyline clip-path="url(#clip862)" style="stroke:#009af9; stroke-width:4; stroke-opacity:1; fill:none" points="
  1366.44,371.903 1366.44,1384.24 1404.58,1384.24 1404.58,371.903 1366.44,371.903 
  "/>
<path clip-path="url(#clip862)" d="
M1404.58 483.628 L1404.58 1384.24 L1442.73 1384.24 L1442.73 483.628 L1404.58 483.628 L1404.58 483.628  Z
  " fill="#009af9" fill-rule="evenodd" fill-opacity="1"/>
<polyline clip-path="url(#clip862)" style="stroke:#009af9; stroke-width:4; stroke-opacity:1; fill:none" points="
  1404.58,483.628 1404.58,1384.24 1442.73,1384.24 1442.73,483.628 1404.58,483.628 
  "/>
<path clip-path="url(#clip862)" d="
M1442.73 638.486 L1442.73 1384.24 L1480.87 1384.24 L1480.87 638.486 L1442.73 638.486 L1442.73 638.486  Z
  " fill="#009af9" fill-rule="evenodd" fill-opacity="1"/>
<polyline clip-path="url(#clip862)" style="stroke:#009af9; stroke-width:4; stroke-opacity:1; fill:none" points="
  1442.73,638.486 1442.73,1384.24 1480.87,1384.24 1480.87,638.486 1442.73,638.486 
  "/>
<path clip-path="url(#clip862)" d="
M1480.87 789.615 L1480.87 1384.24 L1519.01 1384.24 L1519.01 789.615 L1480.87 789.615 L1480.87 789.615  Z
  " fill="#009af9" fill-rule="evenodd" fill-opacity="1"/>
<polyline clip-path="url(#clip862)" style="stroke:#009af9; stroke-width:4; stroke-opacity:1; fill:none" points="
  1480.87,789.615 1480.87,1384.24 1519.01,1384.24 1519.01,789.615 1480.87,789.615 
  "/>
<path clip-path="url(#clip862)" d="
M1519.01 916.42 L1519.01 1384.24 L1557.15 1384.24 L1557.15 916.42 L1519.01 916.42 L1519.01 916.42  Z
  " fill="#009af9" fill-rule="evenodd" fill-opacity="1"/>
<polyline clip-path="url(#clip862)" style="stroke:#009af9; stroke-width:4; stroke-opacity:1; fill:none" points="
  1519.01,916.42 1519.01,1384.24 1557.15,1384.24 1557.15,916.42 1519.01,916.42 
  "/>
<path clip-path="url(#clip862)" d="
M1557.15 1027.17 L1557.15 1384.24 L1595.3 1384.24 L1595.3 1027.17 L1557.15 1027.17 L1557.15 1027.17  Z
  " fill="#009af9" fill-rule="evenodd" fill-opacity="1"/>
<polyline clip-path="url(#clip862)" style="stroke:#009af9; stroke-width:4; stroke-opacity:1; fill:none" points="
  1557.15,1027.17 1557.15,1384.24 1595.3,1384.24 1595.3,1027.17 1557.15,1027.17 
  "/>
<path clip-path="url(#clip862)" d="
M1595.3 1134.19 L1595.3 1384.24 L1633.44 1384.24 L1633.44 1134.19 L1595.3 1134.19 L1595.3 1134.19  Z
  " fill="#009af9" fill-rule="evenodd" fill-opacity="1"/>
<polyline clip-path="url(#clip862)" style="stroke:#009af9; stroke-width:4; stroke-opacity:1; fill:none" points="
  1595.3,1134.19 1595.3,1384.24 1633.44,1384.24 1633.44,1134.19 1595.3,1134.19 
  "/>
<path clip-path="url(#clip862)" d="
M1633.44 1193.71 L1633.44 1384.24 L1671.58 1384.24 L1671.58 1193.71 L1633.44 1193.71 L1633.44 1193.71  Z
  " fill="#009af9" fill-rule="evenodd" fill-opacity="1"/>
<polyline clip-path="url(#clip862)" style="stroke:#009af9; stroke-width:4; stroke-opacity:1; fill:none" points="
  1633.44,1193.71 1633.44,1384.24 1671.58,1384.24 1671.58,1193.71 1633.44,1193.71 
  "/>
<path clip-path="url(#clip862)" d="
M1671.58 1253.38 L1671.58 1384.24 L1709.72 1384.24 L1709.72 1253.38 L1671.58 1253.38 L1671.58 1253.38  Z
  " fill="#009af9" fill-rule="evenodd" fill-opacity="1"/>
<polyline clip-path="url(#clip862)" style="stroke:#009af9; stroke-width:4; stroke-opacity:1; fill:none" points="
  1671.58,1253.38 1671.58,1384.24 1709.72,1384.24 1709.72,1253.38 1671.58,1253.38 
  "/>
<path clip-path="url(#clip862)" d="
M1709.72 1302.67 L1709.72 1384.24 L1747.87 1384.24 L1747.87 1302.67 L1709.72 1302.67 L1709.72 1302.67  Z
  " fill="#009af9" fill-rule="evenodd" fill-opacity="1"/>
<polyline clip-path="url(#clip862)" style="stroke:#009af9; stroke-width:4; stroke-opacity:1; fill:none" points="
  1709.72,1302.67 1709.72,1384.24 1747.87,1384.24 1747.87,1302.67 1709.72,1302.67 
  "/>
<path clip-path="url(#clip862)" d="
M1747.87 1331.21 L1747.87 1384.24 L1786.01 1384.24 L1786.01 1331.21 L1747.87 1331.21 L1747.87 1331.21  Z
  " fill="#009af9" fill-rule="evenodd" fill-opacity="1"/>
<polyline clip-path="url(#clip862)" style="stroke:#009af9; stroke-width:4; stroke-opacity:1; fill:none" points="
  1747.87,1331.21 1747.87,1384.24 1786.01,1384.24 1786.01,1331.21 1747.87,1331.21 
  "/>
<path clip-path="url(#clip862)" d="
M1786.01 1348.89 L1786.01 1384.24 L1824.15 1384.24 L1824.15 1348.89 L1786.01 1348.89 L1786.01 1348.89  Z
  " fill="#009af9" fill-rule="evenodd" fill-opacity="1"/>
<polyline clip-path="url(#clip862)" style="stroke:#009af9; stroke-width:4; stroke-opacity:1; fill:none" points="
  1786.01,1348.89 1786.01,1384.24 1824.15,1384.24 1824.15,1348.89 1786.01,1348.89 
  "/>
<path clip-path="url(#clip862)" d="
M1824.15 1365.59 L1824.15 1384.24 L1862.29 1384.24 L1862.29 1365.59 L1824.15 1365.59 L1824.15 1365.59  Z
  " fill="#009af9" fill-rule="evenodd" fill-opacity="1"/>
<polyline clip-path="url(#clip862)" style="stroke:#009af9; stroke-width:4; stroke-opacity:1; fill:none" points="
  1824.15,1365.59 1824.15,1384.24 1862.29,1384.24 1862.29,1365.59 1824.15,1365.59 
  "/>
<path clip-path="url(#clip862)" d="
M1862.29 1368.35 L1862.29 1384.24 L1900.44 1384.24 L1900.44 1368.35 L1862.29 1368.35 L1862.29 1368.35  Z
  " fill="#009af9" fill-rule="evenodd" fill-opacity="1"/>
<polyline clip-path="url(#clip862)" style="stroke:#009af9; stroke-width:4; stroke-opacity:1; fill:none" points="
  1862.29,1368.35 1862.29,1384.24 1900.44,1384.24 1900.44,1368.35 1862.29,1368.35 
  "/>
<path clip-path="url(#clip862)" d="
M1900.44 1375.81 L1900.44 1384.24 L1938.58 1384.24 L1938.58 1375.81 L1900.44 1375.81 L1900.44 1375.81  Z
  " fill="#009af9" fill-rule="evenodd" fill-opacity="1"/>
<polyline clip-path="url(#clip862)" style="stroke:#009af9; stroke-width:4; stroke-opacity:1; fill:none" points="
  1900.44,1375.81 1900.44,1384.24 1938.58,1384.24 1938.58,1375.81 1900.44,1375.81 
  "/>
<path clip-path="url(#clip862)" d="
M1938.58 1380.51 L1938.58 1384.24 L1976.72 1384.24 L1976.72 1380.51 L1938.58 1380.51 L1938.58 1380.51  Z
  " fill="#009af9" fill-rule="evenodd" fill-opacity="1"/>
<polyline clip-path="url(#clip862)" style="stroke:#009af9; stroke-width:4; stroke-opacity:1; fill:none" points="
  1938.58,1380.51 1938.58,1384.24 1976.72,1384.24 1976.72,1380.51 1938.58,1380.51 
  "/>
<path clip-path="url(#clip862)" d="
M1976.72 1382.78 L1976.72 1384.24 L2014.86 1384.24 L2014.86 1382.78 L1976.72 1382.78 L1976.72 1382.78  Z
  " fill="#009af9" fill-rule="evenodd" fill-opacity="1"/>
<polyline clip-path="url(#clip862)" style="stroke:#009af9; stroke-width:4; stroke-opacity:1; fill:none" points="
  1976.72,1382.78 1976.72,1384.24 2014.86,1384.24 2014.86,1382.78 1976.72,1382.78 
  "/>
<path clip-path="url(#clip862)" d="
M2014.86 1382.94 L2014.86 1384.24 L2053.01 1384.24 L2053.01 1382.94 L2014.86 1382.94 L2014.86 1382.94  Z
  " fill="#009af9" fill-rule="evenodd" fill-opacity="1"/>
<polyline clip-path="url(#clip862)" style="stroke:#009af9; stroke-width:4; stroke-opacity:1; fill:none" points="
  2014.86,1382.94 2014.86,1384.24 2053.01,1384.24 2053.01,1382.94 2014.86,1382.94 
  "/>
<path clip-path="url(#clip862)" d="
M2053.01 1382.94 L2053.01 1384.24 L2091.15 1384.24 L2091.15 1382.94 L2053.01 1382.94 L2053.01 1382.94  Z
  " fill="#009af9" fill-rule="evenodd" fill-opacity="1"/>
<polyline clip-path="url(#clip862)" style="stroke:#009af9; stroke-width:4; stroke-opacity:1; fill:none" points="
  2053.01,1382.94 2053.01,1384.24 2091.15,1384.24 2091.15,1382.94 2053.01,1382.94 
  "/>
<path clip-path="url(#clip862)" d="
M2091.15 1383.59 L2091.15 1384.24 L2129.29 1384.24 L2129.29 1383.59 L2091.15 1383.59 L2091.15 1383.59  Z
  " fill="#009af9" fill-rule="evenodd" fill-opacity="1"/>
<polyline clip-path="url(#clip862)" style="stroke:#009af9; stroke-width:4; stroke-opacity:1; fill:none" points="
  2091.15,1383.59 2091.15,1384.24 2129.29,1384.24 2129.29,1383.59 2091.15,1383.59 
  "/>
<path clip-path="url(#clip862)" d="
M2129.29 1384.24 L2129.29 1384.24 L2167.43 1384.24 L2167.43 1384.24 L2129.29 1384.24 L2129.29 1384.24  Z
  " fill="#009af9" fill-rule="evenodd" fill-opacity="1"/>
<polyline clip-path="url(#clip862)" style="stroke:#009af9; stroke-width:4; stroke-opacity:1; fill:none" points="
  2129.29,1384.24 2129.29,1384.24 2167.43,1384.24 2129.29,1384.24 
  "/>
<path clip-path="url(#clip862)" d="
M2167.43 1384.24 L2167.43 1384.24 L2205.58 1384.24 L2205.58 1384.24 L2167.43 1384.24 L2167.43 1384.24  Z
  " fill="#009af9" fill-rule="evenodd" fill-opacity="1"/>
<polyline clip-path="url(#clip862)" style="stroke:#009af9; stroke-width:4; stroke-opacity:1; fill:none" points="
  2167.43,1384.24 2167.43,1384.24 2205.58,1384.24 2167.43,1384.24 
  "/>
<path clip-path="url(#clip862)" d="
M2205.58 1384.08 L2205.58 1384.24 L2243.72 1384.24 L2243.72 1384.08 L2205.58 1384.08 L2205.58 1384.08  Z
  " fill="#009af9" fill-rule="evenodd" fill-opacity="1"/>
<polyline clip-path="url(#clip862)" style="stroke:#009af9; stroke-width:4; stroke-opacity:1; fill:none" points="
  2205.58,1384.08 2205.58,1384.24 2243.72,1384.24 2243.72,1384.08 2205.58,1384.08 
  "/>
<polyline clip-path="url(#clip862)" style="stroke:#e26f46; stroke-width:12; stroke-opacity:1; fill:none" points="
  298.45,1384.23 302.265,1384.23 306.079,1384.23 309.893,1384.23 313.707,1384.23 317.522,1384.23 321.336,1384.23 325.15,1384.23 328.964,1384.23 332.779,1384.23 
  336.593,1384.23 340.407,1384.22 344.221,1384.22 348.036,1384.22 351.85,1384.22 355.664,1384.22 359.478,1384.22 363.293,1384.21 367.107,1384.21 370.921,1384.21 
  374.735,1384.21 378.55,1384.2 382.364,1384.2 386.178,1384.2 389.992,1384.19 393.807,1384.19 397.621,1384.18 401.435,1384.18 405.249,1384.17 409.064,1384.16 
  412.878,1384.16 416.692,1384.15 420.506,1384.14 424.321,1384.13 428.135,1384.12 431.949,1384.11 435.763,1384.1 439.578,1384.09 443.392,1384.08 447.206,1384.06 
  451.02,1384.05 454.835,1384.03 458.649,1384.01 462.463,1383.99 466.277,1383.97 470.092,1383.95 473.906,1383.92 477.72,1383.9 481.534,1383.87 485.349,1383.84 
  489.163,1383.8 492.977,1383.77 496.791,1383.73 500.606,1383.69 504.42,1383.64 508.234,1383.59 512.048,1383.54 515.863,1383.49 519.677,1383.43 523.491,1383.36 
  527.305,1383.29 531.12,1383.22 534.934,1383.14 538.748,1383.05 542.562,1382.96 546.377,1382.86 550.191,1382.76 554.005,1382.64 557.819,1382.52 561.634,1382.39 
  565.448,1382.26 569.262,1382.11 573.076,1381.95 576.891,1381.78 580.705,1381.6 584.519,1381.41 588.333,1381.21 592.148,1380.99 595.962,1380.76 599.776,1380.51 
  603.59,1380.25 607.405,1379.97 611.219,1379.67 615.033,1379.35 618.847,1379.01 622.662,1378.66 626.476,1378.28 630.29,1377.88 634.104,1377.45 637.919,1376.99 
  641.733,1376.51 645.547,1376.01 649.361,1375.47 653.176,1374.9 656.99,1374.29 660.804,1373.65 664.618,1372.98 668.433,1372.27 672.247,1371.51 676.061,1370.72 
  679.875,1369.88 683.69,1369 687.504,1368.06 691.318,1367.08 695.132,1366.04 698.947,1364.95 702.761,1363.81 706.575,1362.6 710.389,1361.33 714.204,1360 
  718.018,1358.59 721.832,1357.12 725.646,1355.58 729.461,1353.96 733.275,1352.26 737.089,1350.48 740.903,1348.61 744.718,1346.66 748.532,1344.61 752.346,1342.47 
  756.16,1340.23 759.975,1337.89 763.789,1335.45 767.603,1332.89 771.417,1330.23 775.232,1327.45 779.046,1324.55 782.86,1321.53 786.674,1318.38 790.489,1315.1 
  794.303,1311.68 798.117,1308.13 801.931,1304.44 805.746,1300.6 809.56,1296.61 813.374,1292.46 817.188,1288.16 821.003,1283.7 824.817,1279.07 828.631,1274.28 
  832.445,1269.31 836.26,1264.16 840.074,1258.83 843.888,1253.32 847.702,1247.63 851.517,1241.74 855.331,1235.66 859.145,1229.38 862.959,1222.89 866.774,1216.21 
  870.588,1209.32 874.402,1202.21 878.216,1194.9 882.031,1187.37 885.845,1179.62 889.659,1171.65 893.473,1163.46 897.288,1155.05 901.102,1146.41 904.916,1137.55 
  908.73,1128.45 912.545,1119.13 916.359,1109.58 920.173,1099.79 923.987,1089.78 927.802,1079.54 931.616,1069.06 935.43,1058.36 939.244,1047.42 943.059,1036.26 
  946.873,1024.87 950.687,1013.26 954.501,1001.43 958.316,989.376 962.13,977.106 965.944,964.623 969.758,951.931 973.573,939.032 977.387,925.932 981.201,912.635 
  985.015,899.147 988.83,885.472 992.644,871.617 996.458,857.588 1000.27,843.391 1004.09,829.033 1007.9,814.523 1011.72,799.867 1015.53,785.073 1019.34,770.151 
  1023.16,755.109 1026.97,739.956 1030.79,724.702 1034.6,709.357 1038.41,693.931 1042.23,678.434 1046.04,662.879 1049.86,647.276 1053.67,631.636 1057.49,615.971 
  1061.3,600.294 1065.11,584.618 1068.93,568.954 1072.74,553.315 1076.56,537.715 1080.37,522.168 1084.19,506.685 1088,491.282 1091.81,475.972 1095.63,460.769 
  1099.44,445.687 1103.26,430.74 1107.07,415.943 1110.89,401.309 1114.7,386.853 1118.51,372.589 1122.33,358.531 1126.14,344.694 1129.96,331.092 1133.77,317.739 
  1137.59,304.648 1141.4,291.833 1145.21,279.308 1149.03,267.087 1152.84,255.182 1156.66,243.607 1160.47,232.374 1164.29,221.495 1168.1,210.983 1171.91,200.85 
  1175.73,191.106 1179.54,181.763 1183.36,172.832 1187.17,164.322 1190.98,156.244 1194.8,148.607 1198.61,141.419 1202.43,134.69 1206.24,128.427 1210.06,122.637 
  1213.87,117.327 1217.68,112.503 1221.5,108.172 1225.31,104.338 1229.13,101.006 1232.94,98.1799 1236.76,95.8629 1240.57,94.0579 1244.38,92.7671 1248.2,91.992 
  1252.01,91.7335 1255.83,91.992 1259.64,92.7671 1263.46,94.0579 1267.27,95.8629 1271.08,98.1799 1274.9,101.006 1278.71,104.338 1282.53,108.172 1286.34,112.503 
  1290.16,117.327 1293.97,122.637 1297.78,128.427 1301.6,134.69 1305.41,141.419 1309.23,148.607 1313.04,156.244 1316.86,164.322 1320.67,172.832 1324.48,181.763 
  1328.3,191.106 1332.11,200.85 1335.93,210.983 1339.74,221.495 1343.55,232.374 1347.37,243.607 1351.18,255.182 1355,267.087 1358.81,279.308 1362.63,291.833 
  1366.44,304.648 1370.25,317.739 1374.07,331.092 1377.88,344.694 1381.7,358.531 1385.51,372.589 1389.33,386.853 1393.14,401.309 1396.95,415.943 1400.77,430.74 
  1404.58,445.687 1408.4,460.769 1412.21,475.972 1416.03,491.282 1419.84,506.685 1423.65,522.168 1427.47,537.715 1431.28,553.315 1435.1,568.954 1438.91,584.618 
  1442.73,600.294 1446.54,615.971 1450.35,631.636 1454.17,647.276 1457.98,662.879 1461.8,678.434 1465.61,693.931 1469.43,709.357 1473.24,724.702 1477.05,739.956 
  1480.87,755.109 1484.68,770.151 1488.5,785.073 1492.31,799.867 1496.12,814.523 1499.94,829.033 1503.75,843.391 1507.57,857.588 1511.38,871.617 1515.2,885.472 
  1519.01,899.147 1522.82,912.635 1526.64,925.932 1530.45,939.032 1534.27,951.931 1538.08,964.623 1541.9,977.106 1545.71,989.376 1549.52,1001.43 1553.34,1013.26 
  1557.15,1024.87 1560.97,1036.26 1564.78,1047.42 1568.6,1058.36 1572.41,1069.06 1576.22,1079.54 1580.04,1089.78 1583.85,1099.79 1587.67,1109.58 1591.48,1119.13 
  1595.3,1128.45 1599.11,1137.55 1602.92,1146.41 1606.74,1155.05 1610.55,1163.46 1614.37,1171.65 1618.18,1179.62 1622,1187.37 1625.81,1194.9 1629.62,1202.21 
  1633.44,1209.32 1637.25,1216.21 1641.07,1222.89 1644.88,1229.38 1648.69,1235.66 1652.51,1241.74 1656.32,1247.63 1660.14,1253.32 1663.95,1258.83 1667.77,1264.16 
  1671.58,1269.31 1675.39,1274.28 1679.21,1279.07 1683.02,1283.7 1686.84,1288.16 1690.65,1292.46 1694.47,1296.61 1698.28,1300.6 1702.09,1304.44 1705.91,1308.13 
  1709.72,1311.68 1713.54,1315.1 1717.35,1318.38 1721.17,1321.53 1724.98,1324.55 1728.79,1327.45 1732.61,1330.23 1736.42,1332.89 1740.24,1335.45 1744.05,1337.89 
  1747.87,1340.23 1751.68,1342.47 1755.49,1344.61 1759.31,1346.66 1763.12,1348.61 1766.94,1350.48 1770.75,1352.26 1774.57,1353.96 1778.38,1355.58 1782.19,1357.12 
  1786.01,1358.59 1789.82,1360 1793.64,1361.33 1797.45,1362.6 1801.26,1363.81 1805.08,1364.95 1808.89,1366.04 1812.71,1367.08 1816.52,1368.06 1820.34,1369 
  1824.15,1369.88 1827.96,1370.72 1831.78,1371.51 1835.59,1372.27 1839.41,1372.98 1843.22,1373.65 1847.04,1374.29 1850.85,1374.9 1854.66,1375.47 1858.48,1376.01 
  1862.29,1376.51 1866.11,1376.99 1869.92,1377.45 1873.74,1377.88 1877.55,1378.28 1881.36,1378.66 1885.18,1379.01 1888.99,1379.35 1892.81,1379.67 1896.62,1379.97 
  1900.44,1380.25 1904.25,1380.51 1908.06,1380.76 1911.88,1380.99 1915.69,1381.21 1919.51,1381.41 1923.32,1381.6 1927.14,1381.78 1930.95,1381.95 1934.76,1382.11 
  1938.58,1382.26 1942.39,1382.39 1946.21,1382.52 1950.02,1382.64 1953.83,1382.76 1957.65,1382.86 1961.46,1382.96 1965.28,1383.05 1969.09,1383.14 1972.91,1383.22 
  1976.72,1383.29 1980.53,1383.36 1984.35,1383.43 1988.16,1383.49 1991.98,1383.54 1995.79,1383.59 1999.61,1383.64 2003.42,1383.69 2007.23,1383.73 2011.05,1383.77 
  2014.86,1383.8 2018.68,1383.84 2022.49,1383.87 2026.31,1383.9 2030.12,1383.92 2033.93,1383.95 2037.75,1383.97 2041.56,1383.99 2045.38,1384.01 2049.19,1384.03 
  2053.01,1384.05 2056.82,1384.06 2060.63,1384.08 2064.45,1384.09 2068.26,1384.1 2072.08,1384.11 2075.89,1384.12 2079.71,1384.13 2083.52,1384.14 2087.33,1384.15 
  2091.15,1384.16 2094.96,1384.16 2098.78,1384.17 2102.59,1384.18 2106.4,1384.18 2110.22,1384.19 2114.03,1384.19 2117.85,1384.2 2121.66,1384.2 2125.48,1384.2 
  2129.29,1384.21 2133.1,1384.21 2136.92,1384.21 2140.73,1384.21 2144.55,1384.22 2148.36,1384.22 2152.18,1384.22 2155.99,1384.22 2159.8,1384.22 2163.62,1384.22 
  2167.43,1384.23 2171.25,1384.23 2175.06,1384.23 2178.88,1384.23 2182.69,1384.23 2186.5,1384.23 2190.32,1384.23 2194.13,1384.23 2197.95,1384.23 2201.76,1384.23 
  2205.58,1384.23 
  "/>
<polyline clip-path="url(#clip862)" style="stroke:#3da44d; stroke-width:12; stroke-opacity:1; fill:none" points="
  298.45,1384.24 302.265,1384.24 306.079,1384.24 309.893,1384.24 313.707,1384.24 317.522,1384.24 321.336,1384.24 325.15,1384.24 328.964,1384.24 332.779,1384.24 
  336.593,1384.24 340.407,1384.24 344.221,1384.24 348.036,1384.24 351.85,1384.24 355.664,1384.24 359.478,1384.24 363.293,1384.24 367.107,1384.24 370.921,1384.24 
  374.735,1384.24 378.55,1384.24 382.364,1384.24 386.178,1384.24 389.992,1384.24 393.807,1384.24 397.621,1384.24 401.435,1384.24 405.249,1384.24 409.064,1384.24 
  412.878,1384.24 416.692,1384.24 420.506,1384.24 424.321,1384.24 428.135,1384.24 431.949,1384.24 435.763,1384.24 439.578,1384.24 443.392,1384.24 447.206,1384.24 
  451.02,1384.23 454.835,1384.23 458.649,1384.23 462.463,1384.23 466.277,1384.23 470.092,1384.23 473.906,1384.23 477.72,1384.23 481.534,1384.22 485.349,1384.22 
  489.163,1384.22 492.977,1384.22 496.791,1384.21 500.606,1384.21 504.42,1384.21 508.234,1384.2 512.048,1384.19 515.863,1384.19 519.677,1384.18 523.491,1384.17 
  527.305,1384.16 531.12,1384.15 534.934,1384.14 538.748,1384.12 542.562,1384.11 546.377,1384.09 550.191,1384.07 554.005,1384.05 557.819,1384.02 561.634,1384 
  565.448,1383.97 569.262,1383.93 573.076,1383.89 576.891,1383.85 580.705,1383.8 584.519,1383.75 588.333,1383.69 592.148,1383.63 595.962,1383.55 599.776,1383.47 
  603.59,1383.39 607.405,1383.29 611.219,1383.18 615.033,1383.07 618.847,1382.94 622.662,1382.8 626.476,1382.65 630.29,1382.48 634.104,1382.29 637.919,1382.09 
  641.733,1381.87 645.547,1381.63 649.361,1381.37 653.176,1381.09 656.99,1380.78 660.804,1380.45 664.618,1380.09 668.433,1379.7 672.247,1379.28 676.061,1378.82 
  679.875,1378.33 683.69,1377.79 687.504,1377.22 691.318,1376.6 695.132,1375.94 698.947,1375.22 702.761,1374.46 706.575,1373.63 710.389,1372.75 714.204,1371.81 
  718.018,1370.8 721.832,1369.72 725.646,1368.57 729.461,1367.34 733.275,1366.03 737.089,1364.64 740.903,1363.16 744.718,1361.58 748.532,1359.91 752.346,1358.13 
  756.16,1356.24 759.975,1354.25 763.789,1352.13 767.603,1349.9 771.417,1347.54 775.232,1345.04 779.046,1342.41 782.86,1339.64 786.674,1336.71 790.489,1333.64 
  794.303,1330.4 798.117,1327 801.931,1323.43 805.746,1319.69 809.56,1315.76 813.374,1311.65 817.188,1307.35 821.003,1302.85 824.817,1298.14 828.631,1293.23 
  832.445,1288.1 836.26,1282.76 840.074,1277.19 843.888,1271.39 847.702,1265.36 851.517,1259.09 855.331,1252.58 859.145,1245.82 862.959,1238.81 866.774,1231.54 
  870.588,1224.01 874.402,1216.22 878.216,1208.17 882.031,1199.85 885.845,1191.25 889.659,1182.39 893.473,1173.24 897.288,1163.82 901.102,1154.12 904.916,1144.15 
  908.73,1133.89 912.545,1123.35 916.359,1112.53 920.173,1101.43 923.987,1090.05 927.802,1078.4 931.616,1066.47 935.43,1054.27 939.244,1041.81 943.059,1029.07 
  946.873,1016.07 950.687,1002.82 954.501,989.312 958.316,975.557 962.13,961.561 965.944,947.329 969.758,932.869 973.573,918.188 977.387,903.294 981.201,888.194 
  985.015,872.899 988.83,857.417 992.644,841.757 996.458,825.931 1000.27,809.948 1004.09,793.821 1007.9,777.559 1011.72,761.177 1015.53,744.684 1019.34,728.096 
  1023.16,711.423 1026.97,694.681 1030.79,677.883 1034.6,661.042 1038.41,644.174 1042.23,627.293 1046.04,610.413 1049.86,593.551 1053.67,576.721 1057.49,559.938 
  1061.3,543.22 1065.11,526.58 1068.93,510.036 1072.74,493.603 1076.56,477.297 1080.37,461.134 1084.19,445.13 1088,429.302 1091.81,413.664 1095.63,398.234 
  1099.44,383.026 1103.26,368.056 1107.07,353.339 1110.89,338.891 1114.7,324.727 1118.51,310.861 1122.33,297.308 1126.14,284.081 1129.96,271.195 1133.77,258.662 
  1137.59,246.497 1141.4,234.71 1145.21,223.316 1149.03,212.325 1152.84,201.748 1156.66,191.597 1160.47,181.881 1164.29,172.611 1168.1,163.796 1171.91,155.443 
  1175.73,147.563 1179.54,140.161 1183.36,133.244 1187.17,126.82 1190.98,120.894 1194.8,115.471 1198.61,110.555 1202.43,106.151 1206.24,102.261 1210.06,98.8881 
  1213.87,96.0344 1217.68,93.7013 1221.5,91.8892 1225.31,90.5984 1229.13,89.8283 1232.94,89.5777 1236.76,89.8449 1240.57,90.6274 1244.38,91.9223 1248.2,93.726 
  1252.01,96.0344 1255.83,98.8428 1259.64,102.146 1263.46,105.938 1267.27,110.213 1271.08,114.963 1274.9,120.182 1278.71,125.862 1282.53,131.994 1286.34,138.57 
  1290.16,145.581 1293.97,153.017 1297.78,160.868 1301.6,169.124 1305.41,177.775 1309.23,186.809 1313.04,196.216 1316.86,205.983 1320.67,216.1 1324.48,226.554 
  1328.3,237.333 1332.11,248.425 1335.93,259.817 1339.74,271.496 1343.55,283.45 1347.37,295.666 1351.18,308.131 1355,320.831 1358.81,333.754 1362.63,346.887 
  1366.44,360.216 1370.25,373.728 1374.07,387.411 1377.88,401.251 1381.7,415.235 1385.51,429.35 1389.33,443.585 1393.14,457.926 1396.95,472.36 1400.77,486.875 
  1404.58,501.46 1408.4,516.102 1412.21,530.79 1416.03,545.512 1419.84,560.256 1423.65,575.011 1427.47,589.768 1431.28,604.514 1435.1,619.24 1438.91,633.935 
  1442.73,648.59 1446.54,663.195 1450.35,677.741 1454.17,692.22 1457.98,706.621 1461.8,720.937 1465.61,735.161 1469.43,749.283 1473.24,763.298 1477.05,777.197 
  1480.87,790.974 1484.68,804.622 1488.5,818.135 1492.31,831.508 1496.12,844.734 1499.94,857.809 1503.75,870.728 1507.57,883.485 1511.38,896.077 1515.2,908.5 
  1519.01,920.75 1522.82,932.823 1526.64,944.717 1530.45,956.428 1534.27,967.954 1538.08,979.293 1541.9,990.442 1545.71,1001.4 1549.52,1012.16 1553.34,1022.74 
  1557.15,1033.11 1560.97,1043.29 1564.78,1053.27 1568.6,1063.06 1572.41,1072.65 1576.22,1082.04 1580.04,1091.23 1583.85,1100.23 1587.67,1109.04 1591.48,1117.64 
  1595.3,1126.06 1599.11,1134.28 1602.92,1142.3 1606.74,1150.14 1610.55,1157.79 1614.37,1165.25 1618.18,1172.53 1622,1179.62 1625.81,1186.54 1629.62,1193.27 
  1633.44,1199.82 1637.25,1206.2 1641.07,1212.41 1644.88,1218.45 1648.69,1224.32 1652.51,1230.02 1656.32,1235.57 1660.14,1240.95 1663.95,1246.18 1667.77,1251.25 
  1671.58,1256.17 1675.39,1260.95 1679.21,1265.57 1683.02,1270.06 1686.84,1274.4 1690.65,1278.61 1694.47,1282.69 1698.28,1286.63 1702.09,1290.45 1705.91,1294.14 
  1709.72,1297.71 1713.54,1301.16 1717.35,1304.49 1721.17,1307.71 1724.98,1310.82 1728.79,1313.82 1732.61,1316.72 1736.42,1319.51 1740.24,1322.21 1744.05,1324.81 
  1747.87,1327.31 1751.68,1329.72 1755.49,1332.05 1759.31,1334.29 1763.12,1336.44 1766.94,1338.51 1770.75,1340.51 1774.57,1342.43 1778.38,1344.27 1782.19,1346.04 
  1786.01,1347.75 1789.82,1349.38 1793.64,1350.95 1797.45,1352.46 1801.26,1353.91 1805.08,1355.3 1808.89,1356.63 1812.71,1357.91 1816.52,1359.13 1820.34,1360.31 
  1824.15,1361.43 1827.96,1362.51 1831.78,1363.54 1835.59,1364.53 1839.41,1365.47 1843.22,1366.37 1847.04,1367.24 1850.85,1368.06 1854.66,1368.85 1858.48,1369.61 
  1862.29,1370.33 1866.11,1371.02 1869.92,1371.68 1873.74,1372.31 1877.55,1372.9 1881.36,1373.48 1885.18,1374.02 1888.99,1374.54 1892.81,1375.04 1896.62,1375.51 
  1900.44,1375.96 1904.25,1376.39 1908.06,1376.8 1911.88,1377.19 1915.69,1377.56 1919.51,1377.91 1923.32,1378.24 1927.14,1378.56 1930.95,1378.86 1934.76,1379.15 
  1938.58,1379.43 1942.39,1379.69 1946.21,1379.93 1950.02,1380.17 1953.83,1380.39 1957.65,1380.6 1961.46,1380.8 1965.28,1380.99 1969.09,1381.17 1972.91,1381.34 
  1976.72,1381.5 1980.53,1381.66 1984.35,1381.8 1988.16,1381.94 1991.98,1382.07 1995.79,1382.19 1999.61,1382.31 2003.42,1382.42 2007.23,1382.53 2011.05,1382.63 
  2014.86,1382.72 2018.68,1382.81 2022.49,1382.89 2026.31,1382.97 2030.12,1383.04 2033.93,1383.12 2037.75,1383.18 2041.56,1383.24 2045.38,1383.3 2049.19,1383.36 
  2053.01,1383.41 2056.82,1383.46 2060.63,1383.51 2064.45,1383.55 2068.26,1383.6 2072.08,1383.63 2075.89,1383.67 2079.71,1383.71 2083.52,1383.74 2087.33,1383.77 
  2091.15,1383.8 2094.96,1383.83 2098.78,1383.85 2102.59,1383.88 2106.4,1383.9 2110.22,1383.92 2114.03,1383.94 2117.85,1383.96 2121.66,1383.98 2125.48,1383.99 
  2129.29,1384.01 2133.1,1384.02 2136.92,1384.04 2140.73,1384.05 2144.55,1384.06 2148.36,1384.07 2152.18,1384.09 2155.99,1384.1 2159.8,1384.1 2163.62,1384.11 
  2167.43,1384.12 2171.25,1384.13 2175.06,1384.14 2178.88,1384.14 2182.69,1384.15 2186.5,1384.16 2190.32,1384.16 2194.13,1384.17 2197.95,1384.17 2201.76,1384.18 
  2205.58,1384.18 
  "/>
<path clip-path="url(#clip860)" d="
M1810.62 335.029 L2282.28 335.029 L2282.28 93.1086 L1810.62 93.1086  Z
  " fill="#ffffff" fill-rule="evenodd" fill-opacity="1"/>
<polyline clip-path="url(#clip860)" style="stroke:#000000; stroke-width:4; stroke-opacity:1; fill:none" points="
  1810.62,335.029 2282.28,335.029 2282.28,93.1086 1810.62,93.1086 1810.62,335.029 
  "/>
<path clip-path="url(#clip860)" d="
M1834.11 177.781 L1975.06 177.781 L1975.06 129.397 L1834.11 129.397 L1834.11 177.781  Z
  " fill="#009af9" fill-rule="evenodd" fill-opacity="1"/>
<polyline clip-path="url(#clip860)" style="stroke:#009af9; stroke-width:4; stroke-opacity:1; fill:none" points="
  1834.11,177.781 1975.06,177.781 1975.06,129.397 1834.11,129.397 1834.11,177.781 
  "/>
<path clip-path="url(#clip860)" d="M 0 0 M2012.39 173.276 Q2010.58 177.906 2008.87 179.318 Q2007.16 180.73 2004.29 180.73 L2000.88 180.73 L2000.88 177.165 L2003.38 177.165 Q2005.14 177.165 2006.12 176.332 Q2007.09 175.498 2008.27 172.396 L2009.03 170.452 L1998.55 144.943 L2003.06 144.943 L2011.16 165.221 L2019.26 144.943 L2023.78 144.943 L2012.39 173.276 Z" fill="#000000" fill-rule="evenodd" fill-opacity="1" /><path clip-path="url(#clip860)" d="M 0 0 M2029.66 166.933 L2037.3 166.933 L2037.3 140.568 L2028.99 142.235 L2028.99 137.975 L2037.25 136.309 L2041.93 136.309 L2041.93 166.933 L2049.56 166.933 L2049.56 170.869 L2029.66 170.869 L2029.66 166.933 Z" fill="#000000" fill-rule="evenodd" fill-opacity="1" /><polyline clip-path="url(#clip860)" style="stroke:#e26f46; stroke-width:4; stroke-opacity:1; fill:none" points="
  1834.11,214.069 1975.06,214.069 
  "/>
<path clip-path="url(#clip860)" d="M 0 0 M2017.46 218.085 Q2017.46 213.455 2015.54 210.909 Q2013.64 208.363 2010.19 208.363 Q2006.76 208.363 2004.84 210.909 Q2002.94 213.455 2002.94 218.085 Q2002.94 222.691 2004.84 225.238 Q2006.76 227.784 2010.19 227.784 Q2013.64 227.784 2015.54 225.238 Q2017.46 222.691 2017.46 218.085 M2021.72 228.131 Q2021.72 234.751 2018.78 237.969 Q2015.84 241.21 2009.77 241.21 Q2007.53 241.21 2005.54 240.862 Q2003.55 240.538 2001.67 239.844 L2001.67 235.7 Q2003.55 236.719 2005.37 237.205 Q2007.2 237.691 2009.1 237.691 Q2013.29 237.691 2015.37 235.492 Q2017.46 233.316 2017.46 228.895 L2017.46 226.788 Q2016.14 229.08 2014.08 230.214 Q2012.02 231.349 2009.15 231.349 Q2004.38 231.349 2001.46 227.714 Q1998.55 224.08 1998.55 218.085 Q1998.55 212.066 2001.46 208.432 Q2004.38 204.798 2009.15 204.798 Q2012.02 204.798 2014.08 205.932 Q2016.14 207.066 2017.46 209.358 L2017.46 205.423 L2021.72 205.423 L2021.72 228.131 Z" fill="#000000" fill-rule="evenodd" fill-opacity="1" /><path clip-path="url(#clip860)" d="M 0 0 M2037.97 218.316 Q2032.8 218.316 2030.81 219.497 Q2028.82 220.677 2028.82 223.525 Q2028.82 225.793 2030.3 227.136 Q2031.81 228.455 2034.38 228.455 Q2037.92 228.455 2040.05 225.955 Q2042.2 223.432 2042.2 219.265 L2042.2 218.316 L2037.97 218.316 M2046.46 216.557 L2046.46 231.349 L2042.2 231.349 L2042.2 227.413 Q2040.74 229.775 2038.57 230.909 Q2036.39 232.02 2033.24 232.02 Q2029.26 232.02 2026.9 229.798 Q2024.56 227.552 2024.56 223.802 Q2024.56 219.427 2027.48 217.205 Q2030.42 214.983 2036.23 214.983 L2042.2 214.983 L2042.2 214.566 Q2042.2 211.627 2040.26 210.029 Q2038.34 208.409 2034.84 208.409 Q2032.62 208.409 2030.51 208.941 Q2028.41 209.474 2026.46 210.539 L2026.46 206.603 Q2028.8 205.701 2031 205.261 Q2033.2 204.798 2035.28 204.798 Q2040.91 204.798 2043.68 207.714 Q2046.46 210.631 2046.46 216.557 Z" fill="#000000" fill-rule="evenodd" fill-opacity="1" /><path clip-path="url(#clip860)" d="M 0 0 M2050.49 221.117 L2050.49 205.423 L2054.75 205.423 L2054.75 220.955 Q2054.75 224.636 2056.18 226.488 Q2057.62 228.316 2060.49 228.316 Q2063.94 228.316 2065.93 226.117 Q2067.94 223.918 2067.94 220.122 L2067.94 205.423 L2072.2 205.423 L2072.2 231.349 L2067.94 231.349 L2067.94 227.367 Q2066.39 229.728 2064.33 230.886 Q2062.3 232.02 2059.59 232.02 Q2055.12 232.02 2052.8 229.242 Q2050.49 226.464 2050.49 221.117 M2061.21 204.798 L2061.21 204.798 Z" fill="#000000" fill-rule="evenodd" fill-opacity="1" /><path clip-path="url(#clip860)" d="M 0 0 M2093.2 206.187 L2093.2 210.214 Q2091.39 209.289 2089.45 208.826 Q2087.5 208.363 2085.42 208.363 Q2082.25 208.363 2080.65 209.335 Q2079.08 210.307 2079.08 212.251 Q2079.08 213.733 2080.21 214.589 Q2081.35 215.423 2084.77 216.187 L2086.23 216.511 Q2090.77 217.483 2092.67 219.265 Q2094.59 221.025 2094.59 224.196 Q2094.59 227.807 2091.72 229.913 Q2088.87 232.02 2083.87 232.02 Q2081.79 232.02 2079.52 231.603 Q2077.27 231.21 2074.77 230.4 L2074.77 226.001 Q2077.13 227.228 2079.42 227.853 Q2081.72 228.455 2083.96 228.455 Q2086.97 228.455 2088.59 227.437 Q2090.21 226.395 2090.21 224.52 Q2090.21 222.784 2089.03 221.858 Q2087.87 220.932 2083.92 220.076 L2082.43 219.728 Q2078.48 218.895 2076.72 217.182 Q2074.96 215.446 2074.96 212.437 Q2074.96 208.779 2077.55 206.789 Q2080.14 204.798 2084.91 204.798 Q2087.27 204.798 2089.36 205.145 Q2091.44 205.492 2093.2 206.187 Z" fill="#000000" fill-rule="evenodd" fill-opacity="1" /><path clip-path="url(#clip860)" d="M 0 0 M2115.58 206.187 L2115.58 210.214 Q2113.78 209.289 2111.83 208.826 Q2109.89 208.363 2107.8 208.363 Q2104.63 208.363 2103.04 209.335 Q2101.46 210.307 2101.46 212.251 Q2101.46 213.733 2102.6 214.589 Q2103.73 215.423 2107.16 216.187 L2108.61 216.511 Q2113.15 217.483 2115.05 219.265 Q2116.97 221.025 2116.97 224.196 Q2116.97 227.807 2114.1 229.913 Q2111.25 232.02 2106.25 232.02 Q2104.17 232.02 2101.9 231.603 Q2099.66 231.21 2097.16 230.4 L2097.16 226.001 Q2099.52 227.228 2101.81 227.853 Q2104.1 228.455 2106.35 228.455 Q2109.36 228.455 2110.98 227.437 Q2112.6 226.395 2112.6 224.52 Q2112.6 222.784 2111.42 221.858 Q2110.26 220.932 2106.3 220.076 L2104.82 219.728 Q2100.86 218.895 2099.1 217.182 Q2097.34 215.446 2097.34 212.437 Q2097.34 208.779 2099.93 206.789 Q2102.53 204.798 2107.3 204.798 Q2109.66 204.798 2111.74 205.145 Q2113.82 205.492 2115.58 206.187 Z" fill="#000000" fill-rule="evenodd" fill-opacity="1" /><path clip-path="url(#clip860)" d="M 0 0 M2121.44 205.423 L2125.7 205.423 L2125.7 231.349 L2121.44 231.349 L2121.44 205.423 M2121.44 195.33 L2125.7 195.33 L2125.7 200.724 L2121.44 200.724 L2121.44 195.33 Z" fill="#000000" fill-rule="evenodd" fill-opacity="1" /><path clip-path="url(#clip860)" d="M 0 0 M2141.95 218.316 Q2136.79 218.316 2134.79 219.497 Q2132.8 220.677 2132.8 223.525 Q2132.8 225.793 2134.29 227.136 Q2135.79 228.455 2138.36 228.455 Q2141.9 228.455 2144.03 225.955 Q2146.18 223.432 2146.18 219.265 L2146.18 218.316 L2141.95 218.316 M2150.44 216.557 L2150.44 231.349 L2146.18 231.349 L2146.18 227.413 Q2144.73 229.775 2142.55 230.909 Q2140.37 232.02 2137.23 232.02 Q2133.24 232.02 2130.88 229.798 Q2128.55 227.552 2128.55 223.802 Q2128.55 219.427 2131.46 217.205 Q2134.4 214.983 2140.21 214.983 L2146.18 214.983 L2146.18 214.566 Q2146.18 211.627 2144.24 210.029 Q2142.32 208.409 2138.82 208.409 Q2136.6 208.409 2134.49 208.941 Q2132.39 209.474 2130.44 210.539 L2130.44 206.603 Q2132.78 205.701 2134.98 205.261 Q2137.18 204.798 2139.26 204.798 Q2144.89 204.798 2147.67 207.714 Q2150.44 210.631 2150.44 216.557 Z" fill="#000000" fill-rule="evenodd" fill-opacity="1" /><path clip-path="url(#clip860)" d="M 0 0 M2176.46 215.701 L2176.46 231.349 L2172.2 231.349 L2172.2 215.839 Q2172.2 212.159 2170.77 210.33 Q2169.33 208.502 2166.46 208.502 Q2163.01 208.502 2161.02 210.701 Q2159.03 212.9 2159.03 216.696 L2159.03 231.349 L2154.75 231.349 L2154.75 205.423 L2159.03 205.423 L2159.03 209.451 Q2160.56 207.113 2162.62 205.955 Q2164.7 204.798 2167.41 204.798 Q2171.88 204.798 2174.17 207.576 Q2176.46 210.33 2176.46 215.701 Z" fill="#000000" fill-rule="evenodd" fill-opacity="1" /><path clip-path="url(#clip860)" d="M 0 0 M2209.12 195.33 L2209.12 198.872 L2205.05 198.872 Q2202.76 198.872 2201.85 199.798 Q2200.98 200.724 2200.98 203.131 L2200.98 205.423 L2207.99 205.423 L2207.99 208.733 L2200.98 208.733 L2200.98 231.349 L2196.69 231.349 L2196.69 208.733 L2192.62 208.733 L2192.62 205.423 L2196.69 205.423 L2196.69 203.617 Q2196.69 199.289 2198.71 197.321 Q2200.72 195.33 2205.1 195.33 L2209.12 195.33 Z" fill="#000000" fill-rule="evenodd" fill-opacity="1" /><path clip-path="url(#clip860)" d="M 0 0 M2213.59 205.423 L2217.85 205.423 L2217.85 231.349 L2213.59 231.349 L2213.59 205.423 M2213.59 195.33 L2217.85 195.33 L2217.85 200.724 L2213.59 200.724 L2213.59 195.33 Z" fill="#000000" fill-rule="evenodd" fill-opacity="1" /><path clip-path="url(#clip860)" d="M 0 0 M2226.53 198.062 L2226.53 205.423 L2235.3 205.423 L2235.3 208.733 L2226.53 208.733 L2226.53 222.807 Q2226.53 225.978 2227.39 226.881 Q2228.27 227.784 2230.93 227.784 L2235.3 227.784 L2235.3 231.349 L2230.93 231.349 Q2226 231.349 2224.12 229.52 Q2222.25 227.668 2222.25 222.807 L2222.25 208.733 L2219.12 208.733 L2219.12 205.423 L2222.25 205.423 L2222.25 198.062 L2226.53 198.062 Z" fill="#000000" fill-rule="evenodd" fill-opacity="1" /><polyline clip-path="url(#clip860)" style="stroke:#3da44d; stroke-width:4; stroke-opacity:1; fill:none" points="
  1834.11,274.549 1975.06,274.549 
  "/>
<path clip-path="url(#clip860)" d="M 0 0 M2002.83 287.94 L2002.83 301.69 L1998.55 301.69 L1998.55 265.903 L2002.83 265.903 L2002.83 269.838 Q2004.17 267.523 2006.21 266.412 Q2008.27 265.278 2011.12 265.278 Q2015.84 265.278 2018.78 269.028 Q2021.74 272.778 2021.74 278.889 Q2021.74 285 2018.78 288.75 Q2015.84 292.5 2011.12 292.5 Q2008.27 292.5 2006.21 291.389 Q2004.17 290.255 2002.83 287.94 M2017.32 278.889 Q2017.32 274.19 2015.37 271.528 Q2013.45 268.843 2010.07 268.843 Q2006.69 268.843 2004.75 271.528 Q2002.83 274.19 2002.83 278.889 Q2002.83 283.588 2004.75 286.273 Q2006.69 288.935 2010.07 288.935 Q2013.45 288.935 2015.37 286.273 Q2017.32 283.588 2017.32 278.889 Z" fill="#000000" fill-rule="evenodd" fill-opacity="1" /><path clip-path="url(#clip860)" d="M 0 0 M2036.25 268.889 Q2032.83 268.889 2030.84 271.574 Q2028.85 274.236 2028.85 278.889 Q2028.85 283.542 2030.81 286.227 Q2032.8 288.889 2036.25 288.889 Q2039.66 288.889 2041.65 286.204 Q2043.64 283.518 2043.64 278.889 Q2043.64 274.282 2041.65 271.597 Q2039.66 268.889 2036.25 268.889 M2036.25 265.278 Q2041.81 265.278 2044.98 268.889 Q2048.15 272.5 2048.15 278.889 Q2048.15 285.255 2044.98 288.889 Q2041.81 292.5 2036.25 292.5 Q2030.68 292.5 2027.5 288.889 Q2024.36 285.255 2024.36 278.889 Q2024.36 272.5 2027.5 268.889 Q2030.68 265.278 2036.25 265.278 Z" fill="#000000" fill-rule="evenodd" fill-opacity="1" /><path clip-path="url(#clip860)" d="M 0 0 M2052.62 265.903 L2056.88 265.903 L2056.88 291.829 L2052.62 291.829 L2052.62 265.903 M2052.62 255.81 L2056.88 255.81 L2056.88 261.204 L2052.62 261.204 L2052.62 255.81 Z" fill="#000000" fill-rule="evenodd" fill-opacity="1" /><path clip-path="url(#clip860)" d="M 0 0 M2077.87 266.667 L2077.87 270.694 Q2076.07 269.769 2074.12 269.306 Q2072.18 268.843 2070.1 268.843 Q2066.92 268.843 2065.33 269.815 Q2063.75 270.787 2063.75 272.731 Q2063.75 274.213 2064.89 275.069 Q2066.02 275.903 2069.45 276.667 L2070.91 276.991 Q2075.44 277.963 2077.34 279.745 Q2079.26 281.505 2079.26 284.676 Q2079.26 288.287 2076.39 290.393 Q2073.55 292.5 2068.55 292.5 Q2066.46 292.5 2064.19 292.083 Q2061.95 291.69 2059.45 290.88 L2059.45 286.481 Q2061.81 287.708 2064.1 288.333 Q2066.39 288.935 2068.64 288.935 Q2071.65 288.935 2073.27 287.917 Q2074.89 286.875 2074.89 285 Q2074.89 283.264 2073.71 282.338 Q2072.55 281.412 2068.59 280.556 L2067.11 280.208 Q2063.15 279.375 2061.39 277.662 Q2059.63 275.926 2059.63 272.917 Q2059.63 269.259 2062.23 267.269 Q2064.82 265.278 2069.59 265.278 Q2071.95 265.278 2074.03 265.625 Q2076.11 265.972 2077.87 266.667 Z" fill="#000000" fill-rule="evenodd" fill-opacity="1" /><path clip-path="url(#clip860)" d="M 0 0 M2100.26 266.667 L2100.26 270.694 Q2098.45 269.769 2096.51 269.306 Q2094.56 268.843 2092.48 268.843 Q2089.31 268.843 2087.71 269.815 Q2086.14 270.787 2086.14 272.731 Q2086.14 274.213 2087.27 275.069 Q2088.41 275.903 2091.83 276.667 L2093.29 276.991 Q2097.83 277.963 2099.73 279.745 Q2101.65 281.505 2101.65 284.676 Q2101.65 288.287 2098.78 290.393 Q2095.93 292.5 2090.93 292.5 Q2088.85 292.5 2086.58 292.083 Q2084.33 291.69 2081.83 290.88 L2081.83 286.481 Q2084.19 287.708 2086.49 288.333 Q2088.78 288.935 2091.02 288.935 Q2094.03 288.935 2095.65 287.917 Q2097.27 286.875 2097.27 285 Q2097.27 283.264 2096.09 282.338 Q2094.93 281.412 2090.98 280.556 L2089.49 280.208 Q2085.54 279.375 2083.78 277.662 Q2082.02 275.926 2082.02 272.917 Q2082.02 269.259 2084.61 267.269 Q2087.2 265.278 2091.97 265.278 Q2094.33 265.278 2096.42 265.625 Q2098.5 265.972 2100.26 266.667 Z" fill="#000000" fill-rule="evenodd" fill-opacity="1" /><path clip-path="url(#clip860)" d="M 0 0 M2116.16 268.889 Q2112.73 268.889 2110.74 271.574 Q2108.75 274.236 2108.75 278.889 Q2108.75 283.542 2110.72 286.227 Q2112.71 288.889 2116.16 288.889 Q2119.56 288.889 2121.55 286.204 Q2123.55 283.518 2123.55 278.889 Q2123.55 274.282 2121.55 271.597 Q2119.56 268.889 2116.16 268.889 M2116.16 265.278 Q2121.72 265.278 2124.89 268.889 Q2128.06 272.5 2128.06 278.889 Q2128.06 285.255 2124.89 288.889 Q2121.72 292.5 2116.16 292.5 Q2110.58 292.5 2107.41 288.889 Q2104.26 285.255 2104.26 278.889 Q2104.26 272.5 2107.41 268.889 Q2110.58 265.278 2116.16 265.278 Z" fill="#000000" fill-rule="evenodd" fill-opacity="1" /><path clip-path="url(#clip860)" d="M 0 0 M2154.08 276.181 L2154.08 291.829 L2149.82 291.829 L2149.82 276.319 Q2149.82 272.639 2148.38 270.81 Q2146.95 268.982 2144.08 268.982 Q2140.63 268.982 2138.64 271.181 Q2136.65 273.38 2136.65 277.176 L2136.65 291.829 L2132.36 291.829 L2132.36 265.903 L2136.65 265.903 L2136.65 269.931 Q2138.17 267.593 2140.23 266.435 Q2142.32 265.278 2145.03 265.278 Q2149.49 265.278 2151.79 268.056 Q2154.08 270.81 2154.08 276.181 Z" fill="#000000" fill-rule="evenodd" fill-opacity="1" /><path clip-path="url(#clip860)" d="M 0 0 M2186.74 255.81 L2186.74 259.352 L2182.67 259.352 Q2180.37 259.352 2179.47 260.278 Q2178.59 261.204 2178.59 263.611 L2178.59 265.903 L2185.6 265.903 L2185.6 269.213 L2178.59 269.213 L2178.59 291.829 L2174.31 291.829 L2174.31 269.213 L2170.23 269.213 L2170.23 265.903 L2174.31 265.903 L2174.31 264.097 Q2174.31 259.769 2176.32 257.801 Q2178.34 255.81 2182.71 255.81 L2186.74 255.81 Z" fill="#000000" fill-rule="evenodd" fill-opacity="1" /><path clip-path="url(#clip860)" d="M 0 0 M2191.21 265.903 L2195.47 265.903 L2195.47 291.829 L2191.21 291.829 L2191.21 265.903 M2191.21 255.81 L2195.47 255.81 L2195.47 261.204 L2191.21 261.204 L2191.21 255.81 Z" fill="#000000" fill-rule="evenodd" fill-opacity="1" /><path clip-path="url(#clip860)" d="M 0 0 M2204.15 258.542 L2204.15 265.903 L2212.92 265.903 L2212.92 269.213 L2204.15 269.213 L2204.15 283.287 Q2204.15 286.458 2205 287.361 Q2205.88 288.264 2208.54 288.264 L2212.92 288.264 L2212.92 291.829 L2208.54 291.829 Q2203.61 291.829 2201.74 290 Q2199.86 288.148 2199.86 283.287 L2199.86 269.213 L2196.74 269.213 L2196.74 265.903 L2199.86 265.903 L2199.86 258.542 L2204.15 258.542 Z" fill="#000000" fill-rule="evenodd" fill-opacity="1" /></svg>
