<?xml version="1.0" encoding="utf-8"?>
<svg xmlns="http://www.w3.org/2000/svg" xmlns:xlink="http://www.w3.org/1999/xlink" width="600" height="400" viewBox="0 0 2400 1600">
<defs>
  <clipPath id="clip830">
    <rect x="0" y="0" width="2400" height="1600"/>
  </clipPath>
</defs>
<path clip-path="url(#clip830)" d="
M0 1600 L2400 1600 L2400 0 L0 0  Z
  " fill="#ffffff" fill-rule="evenodd" fill-opacity="1"/>
<defs>
  <clipPath id="clip831">
    <rect x="480" y="0" width="1681" height="1600"/>
  </clipPath>
</defs>
<path clip-path="url(#clip830)" d="
M238.616 1423.18 L2352.76 1423.18 L2352.76 47.2441 L238.616 47.2441  Z
  " fill="#ffffff" fill-rule="evenodd" fill-opacity="1"/>
<defs>
  <clipPath id="clip832">
    <rect x="238" y="47" width="2115" height="1377"/>
  </clipPath>
</defs>
<polyline clip-path="url(#clip832)" style="stroke:#000000; stroke-width:2; stroke-opacity:0.1; fill:none" points="
  298.45,1423.18 298.45,47.2441 
  "/>
<polyline clip-path="url(#clip832)" style="stroke:#000000; stroke-width:2; stroke-opacity:0.1; fill:none" points="
  757.847,1423.18 757.847,47.2441 
  "/>
<polyline clip-path="url(#clip832)" style="stroke:#000000; stroke-width:2; stroke-opacity:0.1; fill:none" points="
  1217.24,1423.18 1217.24,47.2441 
  "/>
<polyline clip-path="url(#clip832)" style="stroke:#000000; stroke-width:2; stroke-opacity:0.1; fill:none" points="
  1676.64,1423.18 1676.64,47.2441 
  "/>
<polyline clip-path="url(#clip832)" style="stroke:#000000; stroke-width:2; stroke-opacity:0.1; fill:none" points="
  2136.04,1423.18 2136.04,47.2441 
  "/>
<polyline clip-path="url(#clip830)" style="stroke:#000000; stroke-width:4; stroke-opacity:1; fill:none" points="
  238.616,1423.18 2352.76,1423.18 
  "/>
<polyline clip-path="url(#clip830)" style="stroke:#000000; stroke-width:4; stroke-opacity:1; fill:none" points="
  298.45,1423.18 298.45,1406.67 
  "/>
<polyline clip-path="url(#clip830)" style="stroke:#000000; stroke-width:4; stroke-opacity:1; fill:none" points="
  757.847,1423.18 757.847,1406.67 
  "/>
<polyline clip-path="url(#clip830)" style="stroke:#000000; stroke-width:4; stroke-opacity:1; fill:none" points="
  1217.24,1423.18 1217.24,1406.67 
  "/>
<polyline clip-path="url(#clip830)" style="stroke:#000000; stroke-width:4; stroke-opacity:1; fill:none" points="
  1676.64,1423.18 1676.64,1406.67 
  "/>
<polyline clip-path="url(#clip830)" style="stroke:#000000; stroke-width:4; stroke-opacity:1; fill:none" points="
  2136.04,1423.18 2136.04,1406.67 
  "/>
<path clip-path="url(#clip830)" d="M 0 0 M298.45 1452.37 Q294.839 1452.37 293.011 1455.94 Q291.205 1459.48 291.205 1466.61 Q291.205 1473.71 293.011 1477.28 Q294.839 1480.82 298.45 1480.82 Q302.085 1480.82 303.89 1477.28 Q305.719 1473.71 305.719 1466.61 Q305.719 1459.48 303.89 1455.94 Q302.085 1452.37 298.45 1452.37 M298.45 1448.67 Q304.26 1448.67 307.316 1453.27 Q310.395 1457.86 310.395 1466.61 Q310.395 1475.33 307.316 1479.94 Q304.26 1484.52 298.45 1484.52 Q292.64 1484.52 289.561 1479.94 Q286.506 1475.33 286.506 1466.61 Q286.506 1457.86 289.561 1453.27 Q292.64 1448.67 298.45 1448.67 Z" fill="#000000" fill-rule="evenodd" fill-opacity="1" /><path clip-path="url(#clip830)" d="M 0 0 M738.993 1479.92 L755.312 1479.92 L755.312 1483.85 L733.368 1483.85 L733.368 1479.92 Q736.03 1477.16 740.613 1472.53 Q745.22 1467.88 746.4 1466.54 Q748.646 1464.01 749.525 1462.28 Q750.428 1460.52 750.428 1458.83 Q750.428 1456.07 748.484 1454.34 Q746.563 1452.6 743.461 1452.6 Q741.262 1452.6 738.808 1453.37 Q736.377 1454.13 733.6 1455.68 L733.6 1450.96 Q736.424 1449.82 738.877 1449.25 Q741.331 1448.67 743.368 1448.67 Q748.738 1448.67 751.933 1451.35 Q755.127 1454.04 755.127 1458.53 Q755.127 1460.66 754.317 1462.58 Q753.53 1464.48 751.424 1467.07 Q750.845 1467.74 747.743 1470.96 Q744.641 1474.15 738.993 1479.92 Z" fill="#000000" fill-rule="evenodd" fill-opacity="1" /><path clip-path="url(#clip830)" d="M 0 0 M770.382 1452.37 Q766.771 1452.37 764.942 1455.94 Q763.136 1459.48 763.136 1466.61 Q763.136 1473.71 764.942 1477.28 Q766.771 1480.82 770.382 1480.82 Q774.016 1480.82 775.822 1477.28 Q777.65 1473.71 777.65 1466.61 Q777.65 1459.48 775.822 1455.94 Q774.016 1452.37 770.382 1452.37 M770.382 1448.67 Q776.192 1448.67 779.248 1453.27 Q782.326 1457.86 782.326 1466.61 Q782.326 1475.33 779.248 1479.94 Q776.192 1484.52 770.382 1484.52 Q764.572 1484.52 761.493 1479.94 Q758.437 1475.33 758.437 1466.61 Q758.437 1457.86 761.493 1453.27 Q764.572 1448.67 770.382 1448.67 Z" fill="#000000" fill-rule="evenodd" fill-opacity="1" /><path clip-path="url(#clip830)" d="M 0 0 M1206.75 1453.37 L1194.94 1471.81 L1206.75 1471.81 L1206.75 1453.37 M1205.52 1449.29 L1211.4 1449.29 L1211.4 1471.81 L1216.33 1471.81 L1216.33 1475.7 L1211.4 1475.7 L1211.4 1483.85 L1206.75 1483.85 L1206.75 1475.7 L1191.14 1475.7 L1191.14 1471.19 L1205.52 1449.29 Z" fill="#000000" fill-rule="evenodd" fill-opacity="1" /><path clip-path="url(#clip830)" d="M 0 0 M1231.4 1452.37 Q1227.79 1452.37 1225.96 1455.94 Q1224.15 1459.48 1224.15 1466.61 Q1224.15 1473.71 1225.96 1477.28 Q1227.79 1480.82 1231.4 1480.82 Q1235.03 1480.82 1236.84 1477.28 Q1238.67 1473.71 1238.67 1466.61 Q1238.67 1459.48 1236.84 1455.94 Q1235.03 1452.37 1231.4 1452.37 M1231.4 1448.67 Q1237.21 1448.67 1240.26 1453.27 Q1243.34 1457.86 1243.34 1466.61 Q1243.34 1475.33 1240.26 1479.94 Q1237.21 1484.52 1231.4 1484.52 Q1225.59 1484.52 1222.51 1479.94 Q1219.45 1475.33 1219.45 1466.61 Q1219.45 1457.86 1222.51 1453.27 Q1225.59 1448.67 1231.4 1448.67 Z" fill="#000000" fill-rule="evenodd" fill-opacity="1" /><path clip-path="url(#clip830)" d="M 0 0 M1663.54 1464.71 Q1660.39 1464.71 1658.54 1466.86 Q1656.71 1469.01 1656.71 1472.76 Q1656.71 1476.49 1658.54 1478.67 Q1660.39 1480.82 1663.54 1480.82 Q1666.69 1480.82 1668.52 1478.67 Q1670.37 1476.49 1670.37 1472.76 Q1670.37 1469.01 1668.52 1466.86 Q1666.69 1464.71 1663.54 1464.71 M1672.82 1450.06 L1672.82 1454.31 Q1671.06 1453.48 1669.26 1453.04 Q1667.47 1452.6 1665.72 1452.6 Q1661.09 1452.6 1658.63 1455.73 Q1656.2 1458.85 1655.85 1465.17 Q1657.22 1463.16 1659.28 1462.09 Q1661.34 1461 1663.82 1461 Q1669.03 1461 1672.03 1464.18 Q1675.07 1467.32 1675.07 1472.76 Q1675.07 1478.09 1671.92 1481.31 Q1668.77 1484.52 1663.54 1484.52 Q1657.54 1484.52 1654.37 1479.94 Q1651.2 1475.33 1651.2 1466.61 Q1651.2 1458.41 1655.09 1453.55 Q1658.98 1448.67 1665.53 1448.67 Q1667.29 1448.67 1669.07 1449.01 Q1670.88 1449.36 1672.82 1450.06 Z" fill="#000000" fill-rule="evenodd" fill-opacity="1" /><path clip-path="url(#clip830)" d="M 0 0 M1690.14 1452.37 Q1686.53 1452.37 1684.7 1455.94 Q1682.89 1459.48 1682.89 1466.61 Q1682.89 1473.71 1684.7 1477.28 Q1686.53 1480.82 1690.14 1480.82 Q1693.77 1480.82 1695.58 1477.28 Q1697.4 1473.71 1697.4 1466.61 Q1697.4 1459.48 1695.58 1455.94 Q1693.77 1452.37 1690.14 1452.37 M1690.14 1448.67 Q1695.95 1448.67 1699 1453.27 Q1702.08 1457.86 1702.08 1466.61 Q1702.08 1475.33 1699 1479.94 Q1695.95 1484.52 1690.14 1484.52 Q1684.33 1484.52 1681.25 1479.94 Q1678.19 1475.33 1678.19 1466.61 Q1678.19 1457.86 1681.25 1453.27 Q1684.33 1448.67 1690.14 1448.67 Z" fill="#000000" fill-rule="evenodd" fill-opacity="1" /><path clip-path="url(#clip830)" d="M 0 0 M2122.53 1467.44 Q2119.2 1467.44 2117.28 1469.22 Q2115.38 1471 2115.38 1474.13 Q2115.38 1477.25 2117.28 1479.04 Q2119.2 1480.82 2122.53 1480.82 Q2125.86 1480.82 2127.79 1479.04 Q2129.71 1477.23 2129.71 1474.13 Q2129.71 1471 2127.79 1469.22 Q2125.89 1467.44 2122.53 1467.44 M2117.85 1465.45 Q2114.85 1464.71 2113.16 1462.65 Q2111.49 1460.59 2111.49 1457.63 Q2111.49 1453.48 2114.43 1451.07 Q2117.39 1448.67 2122.53 1448.67 Q2127.69 1448.67 2130.63 1451.07 Q2133.57 1453.48 2133.57 1457.63 Q2133.57 1460.59 2131.88 1462.65 Q2130.22 1464.71 2127.23 1465.45 Q2130.61 1466.24 2132.48 1468.53 Q2134.38 1470.82 2134.38 1474.13 Q2134.38 1479.15 2131.3 1481.84 Q2128.25 1484.52 2122.53 1484.52 Q2116.81 1484.52 2113.73 1481.84 Q2110.68 1479.15 2110.68 1474.13 Q2110.68 1470.82 2112.58 1468.53 Q2114.48 1466.24 2117.85 1465.45 M2116.14 1458.06 Q2116.14 1460.75 2117.81 1462.25 Q2119.5 1463.76 2122.53 1463.76 Q2125.54 1463.76 2127.23 1462.25 Q2128.94 1460.75 2128.94 1458.06 Q2128.94 1455.38 2127.23 1453.88 Q2125.54 1452.37 2122.53 1452.37 Q2119.5 1452.37 2117.81 1453.88 Q2116.14 1455.38 2116.14 1458.06 Z" fill="#000000" fill-rule="evenodd" fill-opacity="1" /><path clip-path="url(#clip830)" d="M 0 0 M2149.45 1452.37 Q2145.84 1452.37 2144.01 1455.94 Q2142.21 1459.48 2142.21 1466.61 Q2142.21 1473.71 2144.01 1477.28 Q2145.84 1480.82 2149.45 1480.82 Q2153.09 1480.82 2154.89 1477.28 Q2156.72 1473.71 2156.72 1466.61 Q2156.72 1459.48 2154.89 1455.94 Q2153.09 1452.37 2149.45 1452.37 M2149.45 1448.67 Q2155.26 1448.67 2158.32 1453.27 Q2161.4 1457.86 2161.4 1466.61 Q2161.4 1475.33 2158.32 1479.94 Q2155.26 1484.52 2149.45 1484.52 Q2143.64 1484.52 2140.56 1479.94 Q2137.51 1475.33 2137.51 1466.61 Q2137.51 1457.86 2140.56 1453.27 Q2143.64 1448.67 2149.45 1448.67 Z" fill="#000000" fill-rule="evenodd" fill-opacity="1" /><path clip-path="url(#clip830)" d="M 0 0 M1306.13 1537.87 Q1305.14 1537.3 1303.96 1537.04 Q1302.82 1536.76 1301.42 1536.76 Q1296.45 1536.76 1293.78 1540 Q1291.13 1543.22 1291.13 1549.27 L1291.13 1568.04 L1285.25 1568.04 L1285.25 1532.4 L1291.13 1532.4 L1291.13 1537.93 Q1292.98 1534.69 1295.94 1533.13 Q1298.9 1531.54 1303.13 1531.54 Q1303.74 1531.54 1304.47 1531.63 Q1305.2 1531.7 1306.09 1531.85 L1306.13 1537.87 Z" fill="#000000" fill-rule="evenodd" fill-opacity="1" /><polyline clip-path="url(#clip832)" style="stroke:#000000; stroke-width:2; stroke-opacity:0.1; fill:none" points="
  238.616,1384.24 2352.76,1384.24 
  "/>
<polyline clip-path="url(#clip832)" style="stroke:#000000; stroke-width:2; stroke-opacity:0.1; fill:none" points="
  238.616,1157.85 2352.76,1157.85 
  "/>
<polyline clip-path="url(#clip832)" style="stroke:#000000; stroke-width:2; stroke-opacity:0.1; fill:none" points="
  238.616,931.465 2352.76,931.465 
  "/>
<polyline clip-path="url(#clip832)" style="stroke:#000000; stroke-width:2; stroke-opacity:0.1; fill:none" points="
  238.616,705.079 2352.76,705.079 
  "/>
<polyline clip-path="url(#clip832)" style="stroke:#000000; stroke-width:2; stroke-opacity:0.1; fill:none" points="
  238.616,478.692 2352.76,478.692 
  "/>
<polyline clip-path="url(#clip832)" style="stroke:#000000; stroke-width:2; stroke-opacity:0.1; fill:none" points="
  238.616,252.306 2352.76,252.306 
  "/>
<polyline clip-path="url(#clip830)" style="stroke:#000000; stroke-width:4; stroke-opacity:1; fill:none" points="
  238.616,1423.18 238.616,47.2441 
  "/>
<polyline clip-path="url(#clip830)" style="stroke:#000000; stroke-width:4; stroke-opacity:1; fill:none" points="
  238.616,1384.24 263.986,1384.24 
  "/>
<polyline clip-path="url(#clip830)" style="stroke:#000000; stroke-width:4; stroke-opacity:1; fill:none" points="
  238.616,1157.85 263.986,1157.85 
  "/>
<polyline clip-path="url(#clip830)" style="stroke:#000000; stroke-width:4; stroke-opacity:1; fill:none" points="
  238.616,931.465 263.986,931.465 
  "/>
<polyline clip-path="url(#clip830)" style="stroke:#000000; stroke-width:4; stroke-opacity:1; fill:none" points="
  238.616,705.079 263.986,705.079 
  "/>
<polyline clip-path="url(#clip830)" style="stroke:#000000; stroke-width:4; stroke-opacity:1; fill:none" points="
  238.616,478.692 263.986,478.692 
  "/>
<polyline clip-path="url(#clip830)" style="stroke:#000000; stroke-width:4; stroke-opacity:1; fill:none" points="
  238.616,252.306 263.986,252.306 
  "/>
<path clip-path="url(#clip830)" d="M 0 0 M126.691 1370.04 Q123.08 1370.04 121.251 1373.6 Q119.445 1377.14 119.445 1384.27 Q119.445 1391.38 121.251 1394.94 Q123.08 1398.49 126.691 1398.49 Q130.325 1398.49 132.13 1394.94 Q133.959 1391.38 133.959 1384.27 Q133.959 1377.14 132.13 1373.6 Q130.325 1370.04 126.691 1370.04 M126.691 1366.33 Q132.501 1366.33 135.556 1370.94 Q138.635 1375.52 138.635 1384.27 Q138.635 1393 135.556 1397.61 Q132.501 1402.19 126.691 1402.19 Q120.88 1402.19 117.802 1397.61 Q114.746 1393 114.746 1384.27 Q114.746 1375.52 117.802 1370.94 Q120.88 1366.33 126.691 1366.33 Z" fill="#000000" fill-rule="evenodd" fill-opacity="1" /><path clip-path="url(#clip830)" d="M 0 0 M143.704 1395.64 L148.589 1395.64 L148.589 1401.52 L143.704 1401.52 L143.704 1395.64 Z" fill="#000000" fill-rule="evenodd" fill-opacity="1" /><path clip-path="url(#clip830)" d="M 0 0 M163.658 1370.04 Q160.047 1370.04 158.218 1373.6 Q156.413 1377.14 156.413 1384.27 Q156.413 1391.38 158.218 1394.94 Q160.047 1398.49 163.658 1398.49 Q167.292 1398.49 169.098 1394.94 Q170.927 1391.38 170.927 1384.27 Q170.927 1377.14 169.098 1373.6 Q167.292 1370.04 163.658 1370.04 M163.658 1366.33 Q169.468 1366.33 172.524 1370.94 Q175.602 1375.52 175.602 1384.27 Q175.602 1393 172.524 1397.61 Q169.468 1402.19 163.658 1402.19 Q157.848 1402.19 154.769 1397.61 Q151.714 1393 151.714 1384.27 Q151.714 1375.52 154.769 1370.94 Q157.848 1366.33 163.658 1366.33 Z" fill="#000000" fill-rule="evenodd" fill-opacity="1" /><path clip-path="url(#clip830)" d="M 0 0 M190.672 1370.04 Q187.061 1370.04 185.232 1373.6 Q183.426 1377.14 183.426 1384.27 Q183.426 1391.38 185.232 1394.94 Q187.061 1398.49 190.672 1398.49 Q194.306 1398.49 196.112 1394.94 Q197.94 1391.38 197.94 1384.27 Q197.94 1377.14 196.112 1373.6 Q194.306 1370.04 190.672 1370.04 M190.672 1366.33 Q196.482 1366.33 199.537 1370.94 Q202.616 1375.52 202.616 1384.27 Q202.616 1393 199.537 1397.61 Q196.482 1402.19 190.672 1402.19 Q184.862 1402.19 181.783 1397.61 Q178.727 1393 178.727 1384.27 Q178.727 1375.52 181.783 1370.94 Q184.862 1366.33 190.672 1366.33 Z" fill="#000000" fill-rule="evenodd" fill-opacity="1" /><path clip-path="url(#clip830)" d="M 0 0 M127.917 1143.65 Q124.306 1143.65 122.478 1147.22 Q120.672 1150.76 120.672 1157.89 Q120.672 1164.99 122.478 1168.56 Q124.306 1172.1 127.917 1172.1 Q131.552 1172.1 133.357 1168.56 Q135.186 1164.99 135.186 1157.89 Q135.186 1150.76 133.357 1147.22 Q131.552 1143.65 127.917 1143.65 M127.917 1139.95 Q133.728 1139.95 136.783 1144.55 Q139.862 1149.14 139.862 1157.89 Q139.862 1166.61 136.783 1171.22 Q133.728 1175.8 127.917 1175.8 Q122.107 1175.8 119.029 1171.22 Q115.973 1166.61 115.973 1157.89 Q115.973 1149.14 119.029 1144.55 Q122.107 1139.95 127.917 1139.95 Z" fill="#000000" fill-rule="evenodd" fill-opacity="1" /><path clip-path="url(#clip830)" d="M 0 0 M144.931 1169.25 L149.816 1169.25 L149.816 1175.13 L144.931 1175.13 L144.931 1169.25 Z" fill="#000000" fill-rule="evenodd" fill-opacity="1" /><path clip-path="url(#clip830)" d="M 0 0 M164.885 1143.65 Q161.274 1143.65 159.445 1147.22 Q157.64 1150.76 157.64 1157.89 Q157.64 1164.99 159.445 1168.56 Q161.274 1172.1 164.885 1172.1 Q168.519 1172.1 170.325 1168.56 Q172.153 1164.99 172.153 1157.89 Q172.153 1150.76 170.325 1147.22 Q168.519 1143.65 164.885 1143.65 M164.885 1139.95 Q170.695 1139.95 173.751 1144.55 Q176.829 1149.14 176.829 1157.89 Q176.829 1166.61 173.751 1171.22 Q170.695 1175.8 164.885 1175.8 Q159.075 1175.8 155.996 1171.22 Q152.941 1166.61 152.941 1157.89 Q152.941 1149.14 155.996 1144.55 Q159.075 1139.95 164.885 1139.95 Z" fill="#000000" fill-rule="evenodd" fill-opacity="1" /><path clip-path="url(#clip830)" d="M 0 0 M182.709 1171.2 L190.348 1171.2 L190.348 1144.83 L182.038 1146.5 L182.038 1142.24 L190.301 1140.57 L194.977 1140.57 L194.977 1171.2 L202.616 1171.2 L202.616 1175.13 L182.709 1175.13 L182.709 1171.2 Z" fill="#000000" fill-rule="evenodd" fill-opacity="1" /><path clip-path="url(#clip830)" d="M 0 0 M128.288 917.264 Q124.677 917.264 122.848 920.829 Q121.043 924.371 121.043 931.5 Q121.043 938.607 122.848 942.171 Q124.677 945.713 128.288 945.713 Q131.922 945.713 133.728 942.171 Q135.556 938.607 135.556 931.5 Q135.556 924.371 133.728 920.829 Q131.922 917.264 128.288 917.264 M128.288 913.56 Q134.098 913.56 137.154 918.167 Q140.232 922.75 140.232 931.5 Q140.232 940.227 137.154 944.833 Q134.098 949.417 128.288 949.417 Q122.478 949.417 119.399 944.833 Q116.343 940.227 116.343 931.5 Q116.343 922.75 119.399 918.167 Q122.478 913.56 128.288 913.56 Z" fill="#000000" fill-rule="evenodd" fill-opacity="1" /><path clip-path="url(#clip830)" d="M 0 0 M145.302 942.866 L150.186 942.866 L150.186 948.745 L145.302 948.745 L145.302 942.866 Z" fill="#000000" fill-rule="evenodd" fill-opacity="1" /><path clip-path="url(#clip830)" d="M 0 0 M165.255 917.264 Q161.644 917.264 159.815 920.829 Q158.01 924.371 158.01 931.5 Q158.01 938.607 159.815 942.171 Q161.644 945.713 165.255 945.713 Q168.889 945.713 170.695 942.171 Q172.524 938.607 172.524 931.5 Q172.524 924.371 170.695 920.829 Q168.889 917.264 165.255 917.264 M165.255 913.56 Q171.065 913.56 174.121 918.167 Q177.2 922.75 177.2 931.5 Q177.2 940.227 174.121 944.833 Q171.065 949.417 165.255 949.417 Q159.445 949.417 156.366 944.833 Q153.311 940.227 153.311 931.5 Q153.311 922.75 156.366 918.167 Q159.445 913.56 165.255 913.56 Z" fill="#000000" fill-rule="evenodd" fill-opacity="1" /><path clip-path="url(#clip830)" d="M 0 0 M186.297 944.81 L202.616 944.81 L202.616 948.745 L180.672 948.745 L180.672 944.81 Q183.334 942.056 187.917 937.426 Q192.524 932.773 193.704 931.431 Q195.95 928.908 196.829 927.171 Q197.732 925.412 197.732 923.722 Q197.732 920.968 195.787 919.232 Q193.866 917.496 190.764 917.496 Q188.565 917.496 186.112 918.259 Q183.681 919.023 180.903 920.574 L180.903 915.852 Q183.727 914.718 186.181 914.139 Q188.635 913.56 190.672 913.56 Q196.042 913.56 199.237 916.246 Q202.431 918.931 202.431 923.421 Q202.431 925.551 201.621 927.472 Q200.834 929.37 198.727 931.963 Q198.149 932.634 195.047 935.852 Q191.945 939.046 186.297 944.81 Z" fill="#000000" fill-rule="evenodd" fill-opacity="1" /><path clip-path="url(#clip830)" d="M 0 0 M127.339 690.878 Q123.728 690.878 121.899 694.442 Q120.093 697.984 120.093 705.114 Q120.093 712.22 121.899 715.785 Q123.728 719.327 127.339 719.327 Q130.973 719.327 132.779 715.785 Q134.607 712.22 134.607 705.114 Q134.607 697.984 132.779 694.442 Q130.973 690.878 127.339 690.878 M127.339 687.174 Q133.149 687.174 136.204 691.78 Q139.283 696.364 139.283 705.114 Q139.283 713.84 136.204 718.447 Q133.149 723.03 127.339 723.03 Q121.529 723.03 118.45 718.447 Q115.394 713.84 115.394 705.114 Q115.394 696.364 118.45 691.78 Q121.529 687.174 127.339 687.174 Z" fill="#000000" fill-rule="evenodd" fill-opacity="1" /><path clip-path="url(#clip830)" d="M 0 0 M144.353 716.479 L149.237 716.479 L149.237 722.359 L144.353 722.359 L144.353 716.479 Z" fill="#000000" fill-rule="evenodd" fill-opacity="1" /><path clip-path="url(#clip830)" d="M 0 0 M164.306 690.878 Q160.695 690.878 158.866 694.442 Q157.061 697.984 157.061 705.114 Q157.061 712.22 158.866 715.785 Q160.695 719.327 164.306 719.327 Q167.94 719.327 169.746 715.785 Q171.575 712.22 171.575 705.114 Q171.575 697.984 169.746 694.442 Q167.94 690.878 164.306 690.878 M164.306 687.174 Q170.116 687.174 173.172 691.78 Q176.251 696.364 176.251 705.114 Q176.251 713.84 173.172 718.447 Q170.116 723.03 164.306 723.03 Q158.496 723.03 155.417 718.447 Q152.362 713.84 152.362 705.114 Q152.362 696.364 155.417 691.78 Q158.496 687.174 164.306 687.174 Z" fill="#000000" fill-rule="evenodd" fill-opacity="1" /><path clip-path="url(#clip830)" d="M 0 0 M195.487 703.725 Q198.843 704.442 200.718 706.711 Q202.616 708.979 202.616 712.313 Q202.616 717.428 199.098 720.229 Q195.579 723.03 189.098 723.03 Q186.922 723.03 184.607 722.59 Q182.315 722.174 179.862 721.317 L179.862 716.803 Q181.806 717.938 184.121 718.516 Q186.436 719.095 188.959 719.095 Q193.357 719.095 195.649 717.359 Q197.963 715.623 197.963 712.313 Q197.963 709.257 195.811 707.544 Q193.681 705.808 189.862 705.808 L185.834 705.808 L185.834 701.966 L190.047 701.966 Q193.496 701.966 195.325 700.6 Q197.153 699.211 197.153 696.618 Q197.153 693.956 195.255 692.544 Q193.38 691.109 189.862 691.109 Q187.94 691.109 185.741 691.526 Q183.542 691.942 180.903 692.822 L180.903 688.655 Q183.565 687.915 185.88 687.544 Q188.218 687.174 190.278 687.174 Q195.602 687.174 198.704 689.604 Q201.806 692.012 201.806 696.132 Q201.806 699.003 200.162 700.993 Q198.519 702.961 195.487 703.725 Z" fill="#000000" fill-rule="evenodd" fill-opacity="1" /><path clip-path="url(#clip830)" d="M 0 0 M126.205 464.491 Q122.593 464.491 120.765 468.056 Q118.959 471.598 118.959 478.727 Q118.959 485.834 120.765 489.398 Q122.593 492.94 126.205 492.94 Q129.839 492.94 131.644 489.398 Q133.473 485.834 133.473 478.727 Q133.473 471.598 131.644 468.056 Q129.839 464.491 126.205 464.491 M126.205 460.787 Q132.015 460.787 135.07 465.394 Q138.149 469.977 138.149 478.727 Q138.149 487.454 135.07 492.06 Q132.015 496.644 126.205 496.644 Q120.394 496.644 117.316 492.06 Q114.26 487.454 114.26 478.727 Q114.26 469.977 117.316 465.394 Q120.394 460.787 126.205 460.787 Z" fill="#000000" fill-rule="evenodd" fill-opacity="1" /><path clip-path="url(#clip830)" d="M 0 0 M143.218 490.093 L148.103 490.093 L148.103 495.972 L143.218 495.972 L143.218 490.093 Z" fill="#000000" fill-rule="evenodd" fill-opacity="1" /><path clip-path="url(#clip830)" d="M 0 0 M163.172 464.491 Q159.561 464.491 157.732 468.056 Q155.927 471.598 155.927 478.727 Q155.927 485.834 157.732 489.398 Q159.561 492.94 163.172 492.94 Q166.806 492.94 168.612 489.398 Q170.44 485.834 170.44 478.727 Q170.44 471.598 168.612 468.056 Q166.806 464.491 163.172 464.491 M163.172 460.787 Q168.982 460.787 172.038 465.394 Q175.116 469.977 175.116 478.727 Q175.116 487.454 172.038 492.06 Q168.982 496.644 163.172 496.644 Q157.362 496.644 154.283 492.06 Q151.228 487.454 151.228 478.727 Q151.228 469.977 154.283 465.394 Q157.362 460.787 163.172 460.787 Z" fill="#000000" fill-rule="evenodd" fill-opacity="1" /><path clip-path="url(#clip830)" d="M 0 0 M193.033 465.487 L181.227 483.936 L193.033 483.936 L193.033 465.487 M191.806 461.412 L197.686 461.412 L197.686 483.936 L202.616 483.936 L202.616 487.824 L197.686 487.824 L197.686 495.972 L193.033 495.972 L193.033 487.824 L177.431 487.824 L177.431 483.311 L191.806 461.412 Z" fill="#000000" fill-rule="evenodd" fill-opacity="1" /><path clip-path="url(#clip830)" d="M 0 0 M127.686 238.105 Q124.075 238.105 122.246 241.67 Q120.441 245.211 120.441 252.341 Q120.441 259.447 122.246 263.012 Q124.075 266.554 127.686 266.554 Q131.32 266.554 133.126 263.012 Q134.954 259.447 134.954 252.341 Q134.954 245.211 133.126 241.67 Q131.32 238.105 127.686 238.105 M127.686 234.401 Q133.496 234.401 136.552 239.007 Q139.63 243.591 139.63 252.341 Q139.63 261.068 136.552 265.674 Q133.496 270.257 127.686 270.257 Q121.876 270.257 118.797 265.674 Q115.742 261.068 115.742 252.341 Q115.742 243.591 118.797 239.007 Q121.876 234.401 127.686 234.401 Z" fill="#000000" fill-rule="evenodd" fill-opacity="1" /><path clip-path="url(#clip830)" d="M 0 0 M144.7 263.706 L149.584 263.706 L149.584 269.586 L144.7 269.586 L144.7 263.706 Z" fill="#000000" fill-rule="evenodd" fill-opacity="1" /><path clip-path="url(#clip830)" d="M 0 0 M164.653 238.105 Q161.042 238.105 159.214 241.67 Q157.408 245.211 157.408 252.341 Q157.408 259.447 159.214 263.012 Q161.042 266.554 164.653 266.554 Q168.288 266.554 170.093 263.012 Q171.922 259.447 171.922 252.341 Q171.922 245.211 170.093 241.67 Q168.288 238.105 164.653 238.105 M164.653 234.401 Q170.464 234.401 173.519 239.007 Q176.598 243.591 176.598 252.341 Q176.598 261.068 173.519 265.674 Q170.464 270.257 164.653 270.257 Q158.843 270.257 155.765 265.674 Q152.709 261.068 152.709 252.341 Q152.709 243.591 155.765 239.007 Q158.843 234.401 164.653 234.401 Z" fill="#000000" fill-rule="evenodd" fill-opacity="1" /><path clip-path="url(#clip830)" d="M 0 0 M181.713 235.026 L200.07 235.026 L200.07 238.961 L185.996 238.961 L185.996 247.433 Q187.014 247.086 188.033 246.924 Q189.051 246.739 190.07 246.739 Q195.857 246.739 199.237 249.91 Q202.616 253.081 202.616 258.498 Q202.616 264.077 199.144 267.179 Q195.672 270.257 189.352 270.257 Q187.176 270.257 184.908 269.887 Q182.663 269.517 180.255 268.776 L180.255 264.077 Q182.338 265.211 184.561 265.767 Q186.783 266.322 189.26 266.322 Q193.264 266.322 195.602 264.216 Q197.94 262.109 197.94 258.498 Q197.94 254.887 195.602 252.781 Q193.264 250.674 189.26 250.674 Q187.385 250.674 185.51 251.091 Q183.658 251.507 181.713 252.387 L181.713 235.026 Z" fill="#000000" fill-rule="evenodd" fill-opacity="1" /><path clip-path="url(#clip830)" d="M 0 0 M21.7677 777.544 L39.6235 777.544 L39.6235 769.459 Q39.6235 764.972 37.3 762.521 Q34.9765 760.07 30.6797 760.07 Q26.4147 760.07 24.0912 762.521 Q21.7677 764.972 21.7677 769.459 L21.7677 777.544 M16.4842 783.973 L16.4842 769.459 Q16.4842 761.471 20.1126 757.396 Q23.7092 753.291 30.6797 753.291 Q37.7138 753.291 41.3104 757.396 Q44.907 761.471 44.907 769.459 L44.907 777.544 L64.0042 777.544 L64.0042 783.973 L16.4842 783.973 Z" fill="#000000" fill-rule="evenodd" fill-opacity="1" /><path clip-path="url(#clip830)" d="M 0 0 M14.5426 733.079 Q21.8632 737.344 29.0246 739.413 Q36.186 741.482 43.5384 741.482 Q50.8908 741.482 58.1159 739.413 Q65.3091 737.313 72.5979 733.079 L72.5979 738.172 Q65.1182 742.946 57.8931 745.333 Q50.668 747.689 43.5384 747.689 Q36.4406 747.689 29.2474 745.333 Q22.0542 742.978 14.5426 738.172 L14.5426 733.079 Z" fill="#000000" fill-rule="evenodd" fill-opacity="1" /><path clip-path="url(#clip830)" d="M 0 0 M33.8307 706.28 Q33.2578 707.267 33.0032 708.444 Q32.7167 709.59 32.7167 710.99 Q32.7167 715.956 35.9632 718.629 Q39.1779 721.271 45.2253 721.271 L64.0042 721.271 L64.0042 727.159 L28.3562 727.159 L28.3562 721.271 L33.8944 721.271 Q30.6479 719.425 29.0883 716.465 Q27.4968 713.505 27.4968 709.272 Q27.4968 708.667 27.5923 707.935 Q27.656 707.203 27.8151 706.312 L33.8307 706.28 Z" fill="#000000" fill-rule="evenodd" fill-opacity="1" /><path clip-path="url(#clip830)" d="M 0 0 M14.5426 701.06 L14.5426 695.967 Q22.0542 691.193 29.2474 688.838 Q36.4406 686.451 43.5384 686.451 Q50.668 686.451 57.8931 688.838 Q65.1182 691.193 72.5979 695.967 L72.5979 701.06 Q65.3091 696.827 58.1159 694.758 Q50.8908 692.657 43.5384 692.657 Q36.186 692.657 29.0246 694.758 Q21.8632 696.827 14.5426 701.06 Z" fill="#000000" fill-rule="evenodd" fill-opacity="1" /><path clip-path="url(#clip832)" d="
M849.727 1384.01 L849.727 1384.24 L872.696 1384.24 L872.696 1384.01 L849.727 1384.01 L849.727 1384.01  Z
  " fill="#009af9" fill-rule="evenodd" fill-opacity="1"/>
<polyline clip-path="url(#clip832)" style="stroke:#009af9; stroke-width:4; stroke-opacity:1; fill:none" points="
  849.727,1384.01 849.727,1384.24 872.696,1384.24 872.696,1384.01 849.727,1384.01 
  "/>
<path clip-path="url(#clip832)" d="
M872.696 1383.33 L872.696 1384.24 L895.666 1384.24 L895.666 1383.33 L872.696 1383.33 L872.696 1383.33  Z
  " fill="#009af9" fill-rule="evenodd" fill-opacity="1"/>
<polyline clip-path="url(#clip832)" style="stroke:#009af9; stroke-width:4; stroke-opacity:1; fill:none" points="
  872.696,1383.33 872.696,1384.24 895.666,1384.24 895.666,1383.33 872.696,1383.33 
  "/>
<path clip-path="url(#clip832)" d="
M895.666 1382.2 L895.666 1384.24 L918.636 1384.24 L918.636 1382.2 L895.666 1382.2 L895.666 1382.2  Z
  " fill="#009af9" fill-rule="evenodd" fill-opacity="1"/>
<polyline clip-path="url(#clip832)" style="stroke:#009af9; stroke-width:4; stroke-opacity:1; fill:none" points="
  895.666,1382.2 895.666,1384.24 918.636,1384.24 918.636,1382.2 895.666,1382.2 
  "/>
<path clip-path="url(#clip832)" d="
M918.636 1380.39 L918.636 1384.24 L941.606 1384.24 L941.606 1380.39 L918.636 1380.39 L918.636 1380.39  Z
  " fill="#009af9" fill-rule="evenodd" fill-opacity="1"/>
<polyline clip-path="url(#clip832)" style="stroke:#009af9; stroke-width:4; stroke-opacity:1; fill:none" points="
  918.636,1380.39 918.636,1384.24 941.606,1384.24 941.606,1380.39 918.636,1380.39 
  "/>
<path clip-path="url(#clip832)" d="
M941.606 1378.57 L941.606 1384.24 L964.576 1384.24 L964.576 1378.57 L941.606 1378.57 L941.606 1378.57  Z
  " fill="#009af9" fill-rule="evenodd" fill-opacity="1"/>
<polyline clip-path="url(#clip832)" style="stroke:#009af9; stroke-width:4; stroke-opacity:1; fill:none" points="
  941.606,1378.57 941.606,1384.24 964.576,1384.24 964.576,1378.57 941.606,1378.57 
  "/>
<path clip-path="url(#clip832)" d="
M964.576 1373.13 L964.576 1384.24 L987.546 1384.24 L987.546 1373.13 L964.576 1373.13 L964.576 1373.13  Z
  " fill="#009af9" fill-rule="evenodd" fill-opacity="1"/>
<polyline clip-path="url(#clip832)" style="stroke:#009af9; stroke-width:4; stroke-opacity:1; fill:none" points="
  964.576,1373.13 964.576,1384.24 987.546,1384.24 987.546,1373.13 964.576,1373.13 
  "/>
<path clip-path="url(#clip832)" d="
M987.546 1370.87 L987.546 1384.24 L1010.52 1384.24 L1010.52 1370.87 L987.546 1370.87 L987.546 1370.87  Z
  " fill="#009af9" fill-rule="evenodd" fill-opacity="1"/>
<polyline clip-path="url(#clip832)" style="stroke:#009af9; stroke-width:4; stroke-opacity:1; fill:none" points="
  987.546,1370.87 987.546,1384.24 1010.52,1384.24 1010.52,1370.87 987.546,1370.87 
  "/>
<path clip-path="url(#clip832)" d="
M1010.52 1358.86 L1010.52 1384.24 L1033.49 1384.24 L1033.49 1358.86 L1010.52 1358.86 L1010.52 1358.86  Z
  " fill="#009af9" fill-rule="evenodd" fill-opacity="1"/>
<polyline clip-path="url(#clip832)" style="stroke:#009af9; stroke-width:4; stroke-opacity:1; fill:none" points="
  1010.52,1358.86 1010.52,1384.24 1033.49,1384.24 1033.49,1358.86 1010.52,1358.86 
  "/>
<path clip-path="url(#clip832)" d="
M1033.49 1347.75 L1033.49 1384.24 L1056.46 1384.24 L1056.46 1347.75 L1033.49 1347.75 L1033.49 1347.75  Z
  " fill="#009af9" fill-rule="evenodd" fill-opacity="1"/>
<polyline clip-path="url(#clip832)" style="stroke:#009af9; stroke-width:4; stroke-opacity:1; fill:none" points="
  1033.49,1347.75 1033.49,1384.24 1056.46,1384.24 1056.46,1347.75 1033.49,1347.75 
  "/>
<path clip-path="url(#clip832)" d="
M1056.46 1330.3 L1056.46 1384.24 L1079.42 1384.24 L1079.42 1330.3 L1056.46 1330.3 L1056.46 1330.3  Z
  " fill="#009af9" fill-rule="evenodd" fill-opacity="1"/>
<polyline clip-path="url(#clip832)" style="stroke:#009af9; stroke-width:4; stroke-opacity:1; fill:none" points="
  1056.46,1330.3 1056.46,1384.24 1079.42,1384.24 1079.42,1330.3 1056.46,1330.3 
  "/>
<path clip-path="url(#clip832)" d="
M1079.42 1297.67 L1079.42 1384.24 L1102.39 1384.24 L1102.39 1297.67 L1079.42 1297.67 L1079.42 1297.67  Z
  " fill="#009af9" fill-rule="evenodd" fill-opacity="1"/>
<polyline clip-path="url(#clip832)" style="stroke:#009af9; stroke-width:4; stroke-opacity:1; fill:none" points="
  1079.42,1297.67 1079.42,1384.24 1102.39,1384.24 1102.39,1297.67 1079.42,1297.67 
  "/>
<path clip-path="url(#clip832)" d="
M1102.39 1259.15 L1102.39 1384.24 L1125.36 1384.24 L1125.36 1259.15 L1102.39 1259.15 L1102.39 1259.15  Z
  " fill="#009af9" fill-rule="evenodd" fill-opacity="1"/>
<polyline clip-path="url(#clip832)" style="stroke:#009af9; stroke-width:4; stroke-opacity:1; fill:none" points="
  1102.39,1259.15 1102.39,1384.24 1125.36,1384.24 1125.36,1259.15 1102.39,1259.15 
  "/>
<path clip-path="url(#clip832)" d="
M1125.36 1208.16 L1125.36 1384.24 L1148.33 1384.24 L1148.33 1208.16 L1125.36 1208.16 L1125.36 1208.16  Z
  " fill="#009af9" fill-rule="evenodd" fill-opacity="1"/>
<polyline clip-path="url(#clip832)" style="stroke:#009af9; stroke-width:4; stroke-opacity:1; fill:none" points="
  1125.36,1208.16 1125.36,1384.24 1148.33,1384.24 1148.33,1208.16 1125.36,1208.16 
  "/>
<path clip-path="url(#clip832)" d="
M1148.33 1157.4 L1148.33 1384.24 L1171.3 1384.24 L1171.3 1157.4 L1148.33 1157.4 L1148.33 1157.4  Z
  " fill="#009af9" fill-rule="evenodd" fill-opacity="1"/>
<polyline clip-path="url(#clip832)" style="stroke:#009af9; stroke-width:4; stroke-opacity:1; fill:none" points="
  1148.33,1157.4 1148.33,1384.24 1171.3,1384.24 1171.3,1157.4 1148.33,1157.4 
  "/>
<path clip-path="url(#clip832)" d="
M1171.3 1079.67 L1171.3 1384.24 L1194.27 1384.24 L1194.27 1079.67 L1171.3 1079.67 L1171.3 1079.67  Z
  " fill="#009af9" fill-rule="evenodd" fill-opacity="1"/>
<polyline clip-path="url(#clip832)" style="stroke:#009af9; stroke-width:4; stroke-opacity:1; fill:none" points="
  1171.3,1079.67 1171.3,1384.24 1194.27,1384.24 1194.27,1079.67 1171.3,1079.67 
  "/>
<path clip-path="url(#clip832)" d="
M1194.27 1005.56 L1194.27 1384.24 L1217.24 1384.24 L1217.24 1005.56 L1194.27 1005.56 L1194.27 1005.56  Z
  " fill="#009af9" fill-rule="evenodd" fill-opacity="1"/>
<polyline clip-path="url(#clip832)" style="stroke:#009af9; stroke-width:4; stroke-opacity:1; fill:none" points="
  1194.27,1005.56 1194.27,1384.24 1217.24,1384.24 1217.24,1005.56 1194.27,1005.56 
  "/>
<path clip-path="url(#clip832)" d="
M1217.24 902.907 L1217.24 1384.24 L1240.21 1384.24 L1240.21 902.907 L1217.24 902.907 L1217.24 902.907  Z
  " fill="#009af9" fill-rule="evenodd" fill-opacity="1"/>
<polyline clip-path="url(#clip832)" style="stroke:#009af9; stroke-width:4; stroke-opacity:1; fill:none" points="
  1217.24,902.907 1217.24,1384.24 1240.21,1384.24 1240.21,902.907 1217.24,902.907 
  "/>
<path clip-path="url(#clip832)" d="
M1240.21 806.143 L1240.21 1384.24 L1263.18 1384.24 L1263.18 806.143 L1240.21 806.143 L1240.21 806.143  Z
  " fill="#009af9" fill-rule="evenodd" fill-opacity="1"/>
<polyline clip-path="url(#clip832)" style="stroke:#009af9; stroke-width:4; stroke-opacity:1; fill:none" points="
  1240.21,806.143 1240.21,1384.24 1263.18,1384.24 1263.18,806.143 1240.21,806.143 
  "/>
<path clip-path="url(#clip832)" d="
M1263.18 694.195 L1263.18 1384.24 L1286.15 1384.24 L1286.15 694.195 L1263.18 694.195 L1263.18 694.195  Z
  " fill="#009af9" fill-rule="evenodd" fill-opacity="1"/>
<polyline clip-path="url(#clip832)" style="stroke:#009af9; stroke-width:4; stroke-opacity:1; fill:none" points="
  1263.18,694.195 1263.18,1384.24 1286.15,1384.24 1286.15,694.195 1263.18,694.195 
  "/>
<path clip-path="url(#clip832)" d="
M1286.15 546.441 L1286.15 1384.24 L1309.12 1384.24 L1309.12 546.441 L1286.15 546.441 L1286.15 546.441  Z
  " fill="#009af9" fill-rule="evenodd" fill-opacity="1"/>
<polyline clip-path="url(#clip832)" style="stroke:#009af9; stroke-width:4; stroke-opacity:1; fill:none" points="
  1286.15,546.441 1286.15,1384.24 1309.12,1384.24 1309.12,546.441 1286.15,546.441 
  "/>
<path clip-path="url(#clip832)" d="
M1309.12 465.313 L1309.12 1384.24 L1332.09 1384.24 L1332.09 465.313 L1309.12 465.313 L1309.12 465.313  Z
  " fill="#009af9" fill-rule="evenodd" fill-opacity="1"/>
<polyline clip-path="url(#clip832)" style="stroke:#009af9; stroke-width:4; stroke-opacity:1; fill:none" points="
  1309.12,465.313 1309.12,1384.24 1332.09,1384.24 1332.09,465.313 1309.12,465.313 
  "/>
<path clip-path="url(#clip832)" d="
M1332.09 348.606 L1332.09 1384.24 L1355.06 1384.24 L1355.06 348.606 L1332.09 348.606 L1332.09 348.606  Z
  " fill="#009af9" fill-rule="evenodd" fill-opacity="1"/>
<polyline clip-path="url(#clip832)" style="stroke:#009af9; stroke-width:4; stroke-opacity:1; fill:none" points="
  1332.09,348.606 1332.09,1384.24 1355.06,1384.24 1355.06,348.606 1332.09,348.606 
  "/>
<path clip-path="url(#clip832)" d="
M1355.06 263.172 L1355.06 1384.24 L1378.03 1384.24 L1378.03 263.172 L1355.06 263.172 L1355.06 263.172  Z
  " fill="#009af9" fill-rule="evenodd" fill-opacity="1"/>
<polyline clip-path="url(#clip832)" style="stroke:#009af9; stroke-width:4; stroke-opacity:1; fill:none" points="
  1355.06,263.172 1355.06,1384.24 1378.03,1384.24 1378.03,263.172 1355.06,263.172 
  "/>
<path clip-path="url(#clip832)" d="
M1378.03 176.152 L1378.03 1384.24 L1401 1384.24 L1401 176.152 L1378.03 176.152 L1378.03 176.152  Z
  " fill="#009af9" fill-rule="evenodd" fill-opacity="1"/>
<polyline clip-path="url(#clip832)" style="stroke:#009af9; stroke-width:4; stroke-opacity:1; fill:none" points="
  1378.03,176.152 1378.03,1384.24 1401,1384.24 1401,176.152 1378.03,176.152 
  "/>
<path clip-path="url(#clip832)" d="
M1401 134.002 L1401 1384.24 L1423.97 1384.24 L1423.97 134.002 L1401 134.002 L1401 134.002  Z
  " fill="#009af9" fill-rule="evenodd" fill-opacity="1"/>
<polyline clip-path="url(#clip832)" style="stroke:#009af9; stroke-width:4; stroke-opacity:1; fill:none" points="
  1401,134.002 1401,1384.24 1423.97,1384.24 1423.97,134.002 1401,134.002 
  "/>
<path clip-path="url(#clip832)" d="
M1423.97 86.1857 L1423.97 1384.24 L1446.94 1384.24 L1446.94 86.1857 L1423.97 86.1857 L1423.97 86.1857  Z
  " fill="#009af9" fill-rule="evenodd" fill-opacity="1"/>
<polyline clip-path="url(#clip832)" style="stroke:#009af9; stroke-width:4; stroke-opacity:1; fill:none" points="
  1423.97,86.1857 1423.97,1384.24 1446.94,1384.24 1446.94,86.1857 1423.97,86.1857 
  "/>
<path clip-path="url(#clip832)" d="
M1446.94 100.916 L1446.94 1384.24 L1469.91 1384.24 L1469.91 100.916 L1446.94 100.916 L1446.94 100.916  Z
  " fill="#009af9" fill-rule="evenodd" fill-opacity="1"/>
<polyline clip-path="url(#clip832)" style="stroke:#009af9; stroke-width:4; stroke-opacity:1; fill:none" points="
  1446.94,100.916 1446.94,1384.24 1469.91,1384.24 1469.91,100.916 1446.94,100.916 
  "/>
<path clip-path="url(#clip832)" d="
M1469.91 116.552 L1469.91 1384.24 L1492.88 1384.24 L1492.88 116.552 L1469.91 116.552 L1469.91 116.552  Z
  " fill="#009af9" fill-rule="evenodd" fill-opacity="1"/>
<polyline clip-path="url(#clip832)" style="stroke:#009af9; stroke-width:4; stroke-opacity:1; fill:none" points="
  1469.91,116.552 1469.91,1384.24 1492.88,1384.24 1492.88,116.552 1469.91,116.552 
  "/>
<path clip-path="url(#clip832)" d="
M1492.88 197.907 L1492.88 1384.24 L1515.85 1384.24 L1515.85 197.907 L1492.88 197.907 L1492.88 197.907  Z
  " fill="#009af9" fill-rule="evenodd" fill-opacity="1"/>
<polyline clip-path="url(#clip832)" style="stroke:#009af9; stroke-width:4; stroke-opacity:1; fill:none" points="
  1492.88,197.907 1492.88,1384.24 1515.85,1384.24 1515.85,197.907 1492.88,197.907 
  "/>
<path clip-path="url(#clip832)" d="
M1515.85 231.219 L1515.85 1384.24 L1538.82 1384.24 L1538.82 231.219 L1515.85 231.219 L1515.85 231.219  Z
  " fill="#009af9" fill-rule="evenodd" fill-opacity="1"/>
<polyline clip-path="url(#clip832)" style="stroke:#009af9; stroke-width:4; stroke-opacity:1; fill:none" points="
  1515.85,231.219 1515.85,1384.24 1538.82,1384.24 1538.82,231.219 1515.85,231.219 
  "/>
<path clip-path="url(#clip832)" d="
M1538.82 326.398 L1538.82 1384.24 L1561.79 1384.24 L1561.79 326.398 L1538.82 326.398 L1538.82 326.398  Z
  " fill="#009af9" fill-rule="evenodd" fill-opacity="1"/>
<polyline clip-path="url(#clip832)" style="stroke:#009af9; stroke-width:4; stroke-opacity:1; fill:none" points="
  1538.82,326.398 1538.82,1384.24 1561.79,1384.24 1561.79,326.398 1538.82,326.398 
  "/>
<path clip-path="url(#clip832)" d="
M1561.79 418.177 L1561.79 1384.24 L1584.76 1384.24 L1584.76 418.177 L1561.79 418.177 L1561.79 418.177  Z
  " fill="#009af9" fill-rule="evenodd" fill-opacity="1"/>
<polyline clip-path="url(#clip832)" style="stroke:#009af9; stroke-width:4; stroke-opacity:1; fill:none" points="
  1561.79,418.177 1561.79,1384.24 1584.76,1384.24 1584.76,418.177 1561.79,418.177 
  "/>
<path clip-path="url(#clip832)" d="
M1584.76 559.585 L1584.76 1384.24 L1607.73 1384.24 L1607.73 559.585 L1584.76 559.585 L1584.76 559.585  Z
  " fill="#009af9" fill-rule="evenodd" fill-opacity="1"/>
<polyline clip-path="url(#clip832)" style="stroke:#009af9; stroke-width:4; stroke-opacity:1; fill:none" points="
  1584.76,559.585 1584.76,1384.24 1607.73,1384.24 1607.73,559.585 1584.76,559.585 
  "/>
<path clip-path="url(#clip832)" d="
M1607.73 640.94 L1607.73 1384.24 L1630.7 1384.24 L1630.7 640.94 L1607.73 640.94 L1607.73 640.94  Z
  " fill="#009af9" fill-rule="evenodd" fill-opacity="1"/>
<polyline clip-path="url(#clip832)" style="stroke:#009af9; stroke-width:4; stroke-opacity:1; fill:none" points="
  1607.73,640.94 1607.73,1384.24 1630.7,1384.24 1630.7,640.94 1607.73,640.94 
  "/>
<path clip-path="url(#clip832)" d="
M1630.7 744.277 L1630.7 1384.24 L1653.67 1384.24 L1653.67 744.277 L1630.7 744.277 L1630.7 744.277  Z
  " fill="#009af9" fill-rule="evenodd" fill-opacity="1"/>
<polyline clip-path="url(#clip832)" style="stroke:#009af9; stroke-width:4; stroke-opacity:1; fill:none" points="
  1630.7,744.277 1630.7,1384.24 1653.67,1384.24 1653.67,744.277 1630.7,744.277 
  "/>
<path clip-path="url(#clip832)" d="
M1653.67 832.43 L1653.67 1384.24 L1676.64 1384.24 L1676.64 832.43 L1653.67 832.43 L1653.67 832.43  Z
  " fill="#009af9" fill-rule="evenodd" fill-opacity="1"/>
<polyline clip-path="url(#clip832)" style="stroke:#009af9; stroke-width:4; stroke-opacity:1; fill:none" points="
  1653.67,832.43 1653.67,1384.24 1676.64,1384.24 1676.64,832.43 1653.67,832.43 
  "/>
<path clip-path="url(#clip832)" d="
M1676.64 935.54 L1676.64 1384.24 L1699.61 1384.24 L1699.61 935.54 L1676.64 935.54 L1676.64 935.54  Z
  " fill="#009af9" fill-rule="evenodd" fill-opacity="1"/>
<polyline clip-path="url(#clip832)" style="stroke:#009af9; stroke-width:4; stroke-opacity:1; fill:none" points="
  1676.64,935.54 1676.64,1384.24 1699.61,1384.24 1699.61,935.54 1676.64,935.54 
  "/>
<path clip-path="url(#clip832)" d="
M1699.61 1006.92 L1699.61 1384.24 L1722.58 1384.24 L1722.58 1006.92 L1699.61 1006.92 L1699.61 1006.92  Z
  " fill="#009af9" fill-rule="evenodd" fill-opacity="1"/>
<polyline clip-path="url(#clip832)" style="stroke:#009af9; stroke-width:4; stroke-opacity:1; fill:none" points="
  1699.61,1006.92 1699.61,1384.24 1722.58,1384.24 1722.58,1006.92 1699.61,1006.92 
  "/>
<path clip-path="url(#clip832)" d="
M1722.58 1069.47 L1722.58 1384.24 L1745.55 1384.24 L1745.55 1069.47 L1722.58 1069.47 L1722.58 1069.47  Z
  " fill="#009af9" fill-rule="evenodd" fill-opacity="1"/>
<polyline clip-path="url(#clip832)" style="stroke:#009af9; stroke-width:4; stroke-opacity:1; fill:none" points="
  1722.58,1069.47 1722.58,1384.24 1745.55,1384.24 1745.55,1069.47 1722.58,1069.47 
  "/>
<path clip-path="url(#clip832)" d="
M1745.55 1131.56 L1745.55 1384.24 L1768.52 1384.24 L1768.52 1131.56 L1745.55 1131.56 L1745.55 1131.56  Z
  " fill="#009af9" fill-rule="evenodd" fill-opacity="1"/>
<polyline clip-path="url(#clip832)" style="stroke:#009af9; stroke-width:4; stroke-opacity:1; fill:none" points="
  1745.55,1131.56 1745.55,1384.24 1768.52,1384.24 1768.52,1131.56 1745.55,1131.56 
  "/>
<path clip-path="url(#clip832)" d="
M1768.52 1198.87 L1768.52 1384.24 L1791.49 1384.24 L1791.49 1198.87 L1768.52 1198.87 L1768.52 1198.87  Z
  " fill="#009af9" fill-rule="evenodd" fill-opacity="1"/>
<polyline clip-path="url(#clip832)" style="stroke:#009af9; stroke-width:4; stroke-opacity:1; fill:none" points="
  1768.52,1198.87 1768.52,1384.24 1791.49,1384.24 1791.49,1198.87 1768.52,1198.87 
  "/>
<path clip-path="url(#clip832)" d="
M1791.49 1236.94 L1791.49 1384.24 L1814.46 1384.24 L1814.46 1236.94 L1791.49 1236.94 L1791.49 1236.94  Z
  " fill="#009af9" fill-rule="evenodd" fill-opacity="1"/>
<polyline clip-path="url(#clip832)" style="stroke:#009af9; stroke-width:4; stroke-opacity:1; fill:none" points="
  1791.49,1236.94 1791.49,1384.24 1814.46,1384.24 1814.46,1236.94 1791.49,1236.94 
  "/>
<path clip-path="url(#clip832)" d="
M1814.46 1279.77 L1814.46 1384.24 L1837.43 1384.24 L1837.43 1279.77 L1814.46 1279.77 L1814.46 1279.77  Z
  " fill="#009af9" fill-rule="evenodd" fill-opacity="1"/>
<polyline clip-path="url(#clip832)" style="stroke:#009af9; stroke-width:4; stroke-opacity:1; fill:none" points="
  1814.46,1279.77 1814.46,1384.24 1837.43,1384.24 1837.43,1279.77 1814.46,1279.77 
  "/>
<path clip-path="url(#clip832)" d="
M1837.43 1309.68 L1837.43 1384.24 L1860.4 1384.24 L1860.4 1309.68 L1837.43 1309.68 L1837.43 1309.68  Z
  " fill="#009af9" fill-rule="evenodd" fill-opacity="1"/>
<polyline clip-path="url(#clip832)" style="stroke:#009af9; stroke-width:4; stroke-opacity:1; fill:none" points="
  1837.43,1309.68 1837.43,1384.24 1860.4,1384.24 1860.4,1309.68 1837.43,1309.68 
  "/>
<path clip-path="url(#clip832)" d="
M1860.4 1326.45 L1860.4 1384.24 L1883.37 1384.24 L1883.37 1326.45 L1860.4 1326.45 L1860.4 1326.45  Z
  " fill="#009af9" fill-rule="evenodd" fill-opacity="1"/>
<polyline clip-path="url(#clip832)" style="stroke:#009af9; stroke-width:4; stroke-opacity:1; fill:none" points="
  1860.4,1326.45 1860.4,1384.24 1883.37,1384.24 1883.37,1326.45 1860.4,1326.45 
  "/>
<path clip-path="url(#clip832)" d="
M1883.37 1345.71 L1883.37 1384.24 L1906.34 1384.24 L1906.34 1345.71 L1883.37 1345.71 L1883.37 1345.71  Z
  " fill="#009af9" fill-rule="evenodd" fill-opacity="1"/>
<polyline clip-path="url(#clip832)" style="stroke:#009af9; stroke-width:4; stroke-opacity:1; fill:none" points="
  1883.37,1345.71 1883.37,1384.24 1906.34,1384.24 1906.34,1345.71 1883.37,1345.71 
  "/>
<path clip-path="url(#clip832)" d="
M1906.34 1356.14 L1906.34 1384.24 L1929.31 1384.24 L1929.31 1356.14 L1906.34 1356.14 L1906.34 1356.14  Z
  " fill="#009af9" fill-rule="evenodd" fill-opacity="1"/>
<polyline clip-path="url(#clip832)" style="stroke:#009af9; stroke-width:4; stroke-opacity:1; fill:none" points="
  1906.34,1356.14 1906.34,1384.24 1929.31,1384.24 1929.31,1356.14 1906.34,1356.14 
  "/>
<path clip-path="url(#clip832)" d="
M1929.31 1362.71 L1929.31 1384.24 L1952.28 1384.24 L1952.28 1362.71 L1929.31 1362.71 L1929.31 1362.71  Z
  " fill="#009af9" fill-rule="evenodd" fill-opacity="1"/>
<polyline clip-path="url(#clip832)" style="stroke:#009af9; stroke-width:4; stroke-opacity:1; fill:none" points="
  1929.31,1362.71 1929.31,1384.24 1952.28,1384.24 1952.28,1362.71 1929.31,1362.71 
  "/>
<path clip-path="url(#clip832)" d="
M1952.28 1369.28 L1952.28 1384.24 L1975.25 1384.24 L1975.25 1369.28 L1952.28 1369.28 L1952.28 1369.28  Z
  " fill="#009af9" fill-rule="evenodd" fill-opacity="1"/>
<polyline clip-path="url(#clip832)" style="stroke:#009af9; stroke-width:4; stroke-opacity:1; fill:none" points="
  1952.28,1369.28 1952.28,1384.24 1975.25,1384.24 1975.25,1369.28 1952.28,1369.28 
  "/>
<path clip-path="url(#clip832)" d="
M1975.25 1375.17 L1975.25 1384.24 L1998.22 1384.24 L1998.22 1375.17 L1975.25 1375.17 L1975.25 1375.17  Z
  " fill="#009af9" fill-rule="evenodd" fill-opacity="1"/>
<polyline clip-path="url(#clip832)" style="stroke:#009af9; stroke-width:4; stroke-opacity:1; fill:none" points="
  1975.25,1375.17 1975.25,1384.24 1998.22,1384.24 1998.22,1375.17 1975.25,1375.17 
  "/>
<path clip-path="url(#clip832)" d="
M1998.22 1377.89 L1998.22 1384.24 L2021.19 1384.24 L2021.19 1377.89 L1998.22 1377.89 L1998.22 1377.89  Z
  " fill="#009af9" fill-rule="evenodd" fill-opacity="1"/>
<polyline clip-path="url(#clip832)" style="stroke:#009af9; stroke-width:4; stroke-opacity:1; fill:none" points="
  1998.22,1377.89 1998.22,1384.24 2021.19,1384.24 2021.19,1377.89 1998.22,1377.89 
  "/>
<path clip-path="url(#clip832)" d="
M2021.19 1379.71 L2021.19 1384.24 L2044.16 1384.24 L2044.16 1379.71 L2021.19 1379.71 L2021.19 1379.71  Z
  " fill="#009af9" fill-rule="evenodd" fill-opacity="1"/>
<polyline clip-path="url(#clip832)" style="stroke:#009af9; stroke-width:4; stroke-opacity:1; fill:none" points="
  2021.19,1379.71 2021.19,1384.24 2044.16,1384.24 2044.16,1379.71 2021.19,1379.71 
  "/>
<path clip-path="url(#clip832)" d="
M2044.16 1381.07 L2044.16 1384.24 L2067.13 1384.24 L2067.13 1381.07 L2044.16 1381.07 L2044.16 1381.07  Z
  " fill="#009af9" fill-rule="evenodd" fill-opacity="1"/>
<polyline clip-path="url(#clip832)" style="stroke:#009af9; stroke-width:4; stroke-opacity:1; fill:none" points="
  2044.16,1381.07 2044.16,1384.24 2067.13,1384.24 2067.13,1381.07 2044.16,1381.07 
  "/>
<path clip-path="url(#clip832)" d="
M2067.13 1381.97 L2067.13 1384.24 L2090.1 1384.24 L2090.1 1381.97 L2067.13 1381.97 L2067.13 1381.97  Z
  " fill="#009af9" fill-rule="evenodd" fill-opacity="1"/>
<polyline clip-path="url(#clip832)" style="stroke:#009af9; stroke-width:4; stroke-opacity:1; fill:none" points="
  2067.13,1381.97 2067.13,1384.24 2090.1,1384.24 2090.1,1381.97 2067.13,1381.97 
  "/>
<path clip-path="url(#clip832)" d="
M2090.1 1383.33 L2090.1 1384.24 L2113.07 1384.24 L2113.07 1383.33 L2090.1 1383.33 L2090.1 1383.33  Z
  " fill="#009af9" fill-rule="evenodd" fill-opacity="1"/>
<polyline clip-path="url(#clip832)" style="stroke:#009af9; stroke-width:4; stroke-opacity:1; fill:none" points="
  2090.1,1383.33 2090.1,1384.24 2113.07,1384.24 2113.07,1383.33 2090.1,1383.33 
  "/>
<path clip-path="url(#clip832)" d="
M2113.07 1382.88 L2113.07 1384.24 L2136.04 1384.24 L2136.04 1382.88 L2113.07 1382.88 L2113.07 1382.88  Z
  " fill="#009af9" fill-rule="evenodd" fill-opacity="1"/>
<polyline clip-path="url(#clip832)" style="stroke:#009af9; stroke-width:4; stroke-opacity:1; fill:none" points="
  2113.07,1382.88 2113.07,1384.24 2136.04,1384.24 2136.04,1382.88 2113.07,1382.88 
  "/>
<path clip-path="url(#clip832)" d="
M2136.04 1384.01 L2136.04 1384.24 L2159.01 1384.24 L2159.01 1384.01 L2136.04 1384.01 L2136.04 1384.01  Z
  " fill="#009af9" fill-rule="evenodd" fill-opacity="1"/>
<polyline clip-path="url(#clip832)" style="stroke:#009af9; stroke-width:4; stroke-opacity:1; fill:none" points="
  2136.04,1384.01 2136.04,1384.24 2159.01,1384.24 2159.01,1384.01 2136.04,1384.01 
  "/>
<path clip-path="url(#clip832)" d="
M2159.01 1384.01 L2159.01 1384.24 L2181.98 1384.24 L2181.98 1384.01 L2159.01 1384.01 L2159.01 1384.01  Z
  " fill="#009af9" fill-rule="evenodd" fill-opacity="1"/>
<polyline clip-path="url(#clip832)" style="stroke:#009af9; stroke-width:4; stroke-opacity:1; fill:none" points="
  2159.01,1384.01 2159.01,1384.24 2181.98,1384.24 2181.98,1384.01 2159.01,1384.01 
  "/>
<path clip-path="url(#clip832)" d="
M2181.98 1384.01 L2181.98 1384.24 L2204.95 1384.24 L2204.95 1384.01 L2181.98 1384.01 L2181.98 1384.01  Z
  " fill="#009af9" fill-rule="evenodd" fill-opacity="1"/>
<polyline clip-path="url(#clip832)" style="stroke:#009af9; stroke-width:4; stroke-opacity:1; fill:none" points="
  2181.98,1384.01 2181.98,1384.24 2204.95,1384.24 2204.95,1384.01 2181.98,1384.01 
  "/>
<path clip-path="url(#clip832)" d="
M2204.95 1384.24 L2204.95 1384.24 L2227.92 1384.24 L2227.92 1384.24 L2204.95 1384.24 L2204.95 1384.24  Z
  " fill="#009af9" fill-rule="evenodd" fill-opacity="1"/>
<polyline clip-path="url(#clip832)" style="stroke:#009af9; stroke-width:4; stroke-opacity:1; fill:none" points="
  2204.95,1384.24 2204.95,1384.24 2227.92,1384.24 2204.95,1384.24 
  "/>
<path clip-path="url(#clip832)" d="
M2227.92 1384.01 L2227.92 1384.24 L2250.89 1384.24 L2250.89 1384.01 L2227.92 1384.01 L2227.92 1384.01  Z
  " fill="#009af9" fill-rule="evenodd" fill-opacity="1"/>
<polyline clip-path="url(#clip832)" style="stroke:#009af9; stroke-width:4; stroke-opacity:1; fill:none" points="
  2227.92,1384.01 2227.92,1384.24 2250.89,1384.24 2250.89,1384.01 2227.92,1384.01 
  "/>
<polyline clip-path="url(#clip832)" style="stroke:#e26f46; stroke-width:12; stroke-opacity:1; fill:none" points="
  298.45,1384.24 300.747,1384.24 303.044,1384.24 305.341,1384.24 307.638,1384.24 309.935,1384.24 312.232,1384.24 314.529,1384.24 316.826,1384.24 319.123,1384.24 
  321.42,1384.24 323.717,1384.24 326.014,1384.24 328.311,1384.24 330.608,1384.24 332.905,1384.24 335.202,1384.24 337.499,1384.24 339.796,1384.24 342.093,1384.24 
  344.39,1384.24 346.687,1384.24 348.984,1384.24 351.281,1384.24 353.578,1384.24 355.875,1384.24 358.172,1384.24 360.469,1384.24 362.766,1384.24 365.063,1384.24 
  367.36,1384.24 369.657,1384.24 371.954,1384.24 374.251,1384.24 376.548,1384.24 378.845,1384.24 381.142,1384.24 383.439,1384.24 385.736,1384.24 388.033,1384.24 
  390.33,1384.24 392.627,1384.24 394.924,1384.24 397.221,1384.24 399.518,1384.24 401.815,1384.24 404.112,1384.24 406.409,1384.24 408.706,1384.24 411.003,1384.24 
  413.3,1384.24 415.597,1384.24 417.893,1384.24 420.19,1384.24 422.487,1384.24 424.784,1384.24 427.081,1384.24 429.378,1384.24 431.675,1384.24 433.972,1384.24 
  436.269,1384.24 438.566,1384.24 440.863,1384.24 443.16,1384.24 445.457,1384.24 447.754,1384.24 450.051,1384.24 452.348,1384.24 454.645,1384.24 456.942,1384.24 
  459.239,1384.24 461.536,1384.24 463.833,1384.24 466.13,1384.24 468.427,1384.24 470.724,1384.24 473.021,1384.24 475.318,1384.24 477.615,1384.24 479.912,1384.24 
  482.209,1384.24 484.506,1384.24 486.803,1384.24 489.1,1384.24 491.397,1384.24 493.694,1384.24 495.991,1384.24 498.288,1384.24 500.585,1384.24 502.882,1384.24 
  505.179,1384.24 507.476,1384.24 509.773,1384.24 512.07,1384.24 514.367,1384.24 516.664,1384.24 518.961,1384.24 521.258,1384.24 523.555,1384.24 525.852,1384.24 
  528.149,1384.24 530.446,1384.24 532.743,1384.24 535.04,1384.24 537.337,1384.24 539.634,1384.24 541.931,1384.24 544.228,1384.24 546.525,1384.24 548.822,1384.24 
  551.119,1384.24 553.416,1384.24 555.713,1384.24 558.01,1384.24 560.307,1384.24 562.604,1384.24 564.9,1384.24 567.197,1384.24 569.494,1384.24 571.791,1384.24 
  574.088,1384.24 576.385,1384.24 578.682,1384.24 580.979,1384.24 583.276,1384.24 585.573,1384.24 587.87,1384.24 590.167,1384.24 592.464,1384.24 594.761,1384.24 
  597.058,1384.24 599.355,1384.24 601.652,1384.24 603.949,1384.24 606.246,1384.24 608.543,1384.24 610.84,1384.24 613.137,1384.24 615.434,1384.24 617.731,1384.24 
  620.028,1384.24 622.325,1384.24 624.622,1384.23 626.919,1384.23 629.216,1384.23 631.513,1384.23 633.81,1384.23 636.107,1384.23 638.404,1384.23 640.701,1384.23 
  642.998,1384.23 645.295,1384.23 647.592,1384.23 649.889,1384.23 652.186,1384.23 654.483,1384.23 656.78,1384.23 659.077,1384.23 661.374,1384.23 663.671,1384.23 
  665.968,1384.23 668.265,1384.23 670.562,1384.22 672.859,1384.22 675.156,1384.22 677.453,1384.22 679.75,1384.22 682.047,1384.22 684.344,1384.22 686.641,1384.22 
  688.938,1384.21 691.235,1384.21 693.532,1384.21 695.829,1384.21 698.126,1384.21 700.423,1384.21 702.72,1384.2 705.017,1384.2 707.314,1384.2 709.61,1384.2 
  711.907,1384.19 714.204,1384.19 716.501,1384.19 718.798,1384.18 721.095,1384.18 723.392,1384.18 725.689,1384.17 727.986,1384.17 730.283,1384.16 732.58,1384.16 
  734.877,1384.15 737.174,1384.15 739.471,1384.14 741.768,1384.14 744.065,1384.13 746.362,1384.12 748.659,1384.11 750.956,1384.11 753.253,1384.1 755.55,1384.09 
  757.847,1384.08 760.144,1384.07 762.441,1384.06 764.738,1384.05 767.035,1384.04 769.332,1384.03 771.629,1384.01 773.926,1384 776.223,1383.99 778.52,1383.97 
  780.817,1383.95 783.114,1383.94 785.411,1383.92 787.708,1383.9 790.005,1383.88 792.302,1383.86 794.599,1383.84 796.896,1383.81 799.193,1383.79 801.49,1383.76 
  803.787,1383.74 806.084,1383.71 808.381,1383.68 810.678,1383.64 812.975,1383.61 815.272,1383.57 817.569,1383.54 819.866,1383.5 822.163,1383.46 824.46,1383.41 
  826.757,1383.37 829.054,1383.32 831.351,1383.27 833.648,1383.21 835.945,1383.16 838.242,1383.1 840.539,1383.04 842.836,1382.97 845.133,1382.9 847.43,1382.83 
  849.727,1382.76 852.024,1382.68 854.321,1382.6 856.617,1382.51 858.914,1382.42 861.211,1382.32 863.508,1382.22 865.805,1382.12 868.102,1382.01 870.399,1381.89 
  872.696,1381.77 874.993,1381.65 877.29,1381.51 879.587,1381.38 881.884,1381.23 884.181,1381.08 886.478,1380.92 888.775,1380.76 891.072,1380.58 893.369,1380.4 
  895.666,1380.21 897.963,1380.02 900.26,1379.81 902.557,1379.59 904.854,1379.37 907.151,1379.13 909.448,1378.89 911.745,1378.63 914.042,1378.37 916.339,1378.09 
  918.636,1377.8 920.933,1377.5 923.23,1377.18 925.527,1376.85 927.824,1376.51 930.121,1376.15 932.418,1375.78 934.715,1375.4 937.012,1374.99 939.309,1374.57 
  941.606,1374.14 943.903,1373.69 946.2,1373.21 948.497,1372.72 950.794,1372.21 953.091,1371.69 955.388,1371.13 957.685,1370.56 959.982,1369.97 962.279,1369.35 
  964.576,1368.71 966.873,1368.05 969.17,1367.36 971.467,1366.64 973.764,1365.9 976.061,1365.13 978.358,1364.34 980.655,1363.51 982.952,1362.65 985.249,1361.76 
  987.546,1360.84 989.843,1359.89 992.14,1358.91 994.437,1357.89 996.734,1356.83 999.031,1355.74 1001.33,1354.61 1003.62,1353.44 1005.92,1352.23 1008.22,1350.98 
  1010.52,1349.69 1012.81,1348.35 1015.11,1346.97 1017.41,1345.55 1019.7,1344.08 1022,1342.56 1024.3,1340.99 1026.59,1339.38 1028.89,1337.71 1031.19,1335.99 
  1033.49,1334.22 1035.78,1332.39 1038.08,1330.5 1040.38,1328.56 1042.67,1326.56 1044.97,1324.5 1047.27,1322.38 1049.56,1320.19 1051.86,1317.95 1054.16,1315.63 
  1056.46,1313.25 1058.75,1310.81 1061.05,1308.29 1063.35,1305.7 1065.64,1303.04 1067.94,1300.31 1070.24,1297.5 1072.53,1294.62 1074.83,1291.66 1077.13,1288.62 
  1079.42,1285.5 1081.72,1282.3 1084.02,1279.02 1086.32,1275.65 1088.61,1272.2 1090.91,1268.66 1093.21,1265.03 1095.5,1261.31 1097.8,1257.51 1100.1,1253.61 
  1102.39,1249.62 1104.69,1245.53 1106.99,1241.35 1109.29,1237.07 1111.58,1232.7 1113.88,1228.22 1116.18,1223.65 1118.47,1218.97 1120.77,1214.19 1123.07,1209.31 
  1125.36,1204.33 1127.66,1199.24 1129.96,1194.04 1132.26,1188.74 1134.55,1183.33 1136.85,1177.81 1139.15,1172.18 1141.44,1166.44 1143.74,1160.59 1146.04,1154.63 
  1148.33,1148.56 1150.63,1142.38 1152.93,1136.08 1155.23,1129.67 1157.52,1123.15 1159.82,1116.51 1162.12,1109.76 1164.41,1102.9 1166.71,1095.92 1169.01,1088.83 
  1171.3,1081.62 1173.6,1074.3 1175.9,1066.87 1178.2,1059.32 1180.49,1051.66 1182.79,1043.89 1185.09,1036.01 1187.38,1028.01 1189.68,1019.91 1191.98,1011.69 
  1194.27,1003.37 1196.57,994.933 1198.87,986.393 1201.17,977.747 1203.46,968.995 1205.76,960.141 1208.06,951.184 1210.35,942.126 1212.65,932.969 1214.95,923.715 
  1217.24,914.365 1219.54,904.921 1221.84,895.384 1224.13,885.758 1226.43,876.044 1228.73,866.244 1231.03,856.361 1233.32,846.397 1235.62,836.354 1237.92,826.236 
  1240.21,816.044 1242.51,805.782 1244.81,795.452 1247.1,785.057 1249.4,774.601 1251.7,764.087 1254,753.517 1256.29,742.896 1258.59,732.226 1260.89,721.511 
  1263.18,710.755 1265.48,699.961 1267.78,689.133 1270.07,678.275 1272.37,667.39 1274.67,656.484 1276.97,645.559 1279.26,634.62 1281.56,623.672 1283.86,612.717 
  1286.15,601.762 1288.45,590.81 1290.75,579.865 1293.04,568.932 1295.34,558.016 1297.64,547.121 1299.94,536.253 1302.23,525.415 1304.53,514.612 1306.83,503.849 
  1309.12,493.132 1311.42,482.465 1313.72,471.852 1316.01,461.299 1318.31,450.81 1320.61,440.392 1322.91,430.047 1325.2,419.783 1327.5,409.603 1329.8,399.512 
  1332.09,389.516 1334.39,379.619 1336.69,369.827 1338.98,360.144 1341.28,350.576 1343.58,341.126 1345.88,331.801 1348.17,322.605 1350.47,313.543 1352.77,304.619 
  1355.06,295.839 1357.36,287.206 1359.66,278.727 1361.95,270.404 1364.25,262.243 1366.55,254.249 1368.84,246.425 1371.14,238.776 1373.44,231.306 1375.74,224.02 
  1378.03,216.921 1380.33,210.013 1382.63,203.301 1384.92,196.788 1387.22,190.478 1389.52,184.374 1391.81,178.48 1394.11,172.8 1396.41,167.336 1398.71,162.092 
  1401,157.071 1403.3,152.276 1405.6,147.709 1407.89,143.374 1410.19,139.272 1412.49,135.407 1414.78,131.78 1417.08,128.394 1419.38,125.25 1421.68,122.351 
  1423.97,119.698 1426.27,117.293 1428.57,115.138 1430.86,113.233 1433.16,111.579 1435.46,110.179 1437.75,109.031 1440.05,108.139 1442.35,107.5 1444.65,107.117 
  1446.94,106.99 1449.24,107.117 1451.54,107.5 1453.83,108.139 1456.13,109.031 1458.43,110.179 1460.72,111.579 1463.02,113.233 1465.32,115.138 1467.62,117.293 
  1469.91,119.698 1472.21,122.351 1474.51,125.25 1476.8,128.394 1479.1,131.78 1481.4,135.407 1483.69,139.272 1485.99,143.374 1488.29,147.709 1490.59,152.276 
  1492.88,157.071 1495.18,162.092 1497.48,167.336 1499.77,172.8 1502.07,178.48 1504.37,184.374 1506.66,190.478 1508.96,196.788 1511.26,203.301 1513.55,210.013 
  1515.85,216.921 1518.15,224.02 1520.45,231.306 1522.74,238.776 1525.04,246.425 1527.34,254.249 1529.63,262.243 1531.93,270.404 1534.23,278.727 1536.52,287.206 
  1538.82,295.839 1541.12,304.619 1543.42,313.543 1545.71,322.605 1548.01,331.801 1550.31,341.126 1552.6,350.576 1554.9,360.144 1557.2,369.827 1559.49,379.619 
  1561.79,389.516 1564.09,399.512 1566.39,409.603 1568.68,419.783 1570.98,430.047 1573.28,440.392 1575.57,450.81 1577.87,461.299 1580.17,471.852 1582.46,482.465 
  1584.76,493.132 1587.06,503.849 1589.36,514.612 1591.65,525.415 1593.95,536.253 1596.25,547.121 1598.54,558.016 1600.84,568.932 1603.14,579.865 1605.43,590.81 
  1607.73,601.762 1610.03,612.717 1612.33,623.672 1614.62,634.62 1616.92,645.559 1619.22,656.484 1621.51,667.39 1623.81,678.275 1626.11,689.133 1628.4,699.961 
  1630.7,710.755 1633,721.511 1635.3,732.226 1637.59,742.896 1639.89,753.517 1642.19,764.087 1644.48,774.601 1646.78,785.057 1649.08,795.452 1651.37,805.782 
  1653.67,816.044 1655.97,826.236 1658.27,836.354 1660.56,846.397 1662.86,856.361 1665.16,866.244 1667.45,876.044 1669.75,885.758 1672.05,895.384 1674.34,904.921 
  1676.64,914.365 1678.94,923.715 1681.23,932.969 1683.53,942.126 1685.83,951.184 1688.13,960.141 1690.42,968.995 1692.72,977.747 1695.02,986.393 1697.31,994.933 
  1699.61,1003.37 1701.91,1011.69 1704.2,1019.91 1706.5,1028.01 1708.8,1036.01 1711.1,1043.89 1713.39,1051.66 1715.69,1059.32 1717.99,1066.87 1720.28,1074.3 
  1722.58,1081.62 1724.88,1088.83 1727.17,1095.92 1729.47,1102.9 1731.77,1109.76 1734.07,1116.51 1736.36,1123.15 1738.66,1129.67 1740.96,1136.08 1743.25,1142.38 
  1745.55,1148.56 1747.85,1154.63 1750.14,1160.59 1752.44,1166.44 1754.74,1172.18 1757.04,1177.81 1759.33,1183.33 1761.63,1188.74 1763.93,1194.04 1766.22,1199.24 
  1768.52,1204.33 1770.82,1209.31 1773.11,1214.19 1775.41,1218.97 1777.71,1223.65 1780.01,1228.22 1782.3,1232.7 1784.6,1237.07 1786.9,1241.35 1789.19,1245.53 
  1791.49,1249.62 1793.79,1253.61 1796.08,1257.51 1798.38,1261.31 1800.68,1265.03 1802.98,1268.66 1805.27,1272.2 1807.57,1275.65 1809.87,1279.02 1812.16,1282.3 
  1814.46,1285.5 1816.76,1288.62 1819.05,1291.66 1821.35,1294.62 1823.65,1297.5 1825.94,1300.31 1828.24,1303.04 1830.54,1305.7 1832.84,1308.29 1835.13,1310.81 
  1837.43,1313.25 1839.73,1315.63 1842.02,1317.95 1844.32,1320.19 1846.62,1322.38 1848.91,1324.5 1851.21,1326.56 1853.51,1328.56 1855.81,1330.5 1858.1,1332.39 
  1860.4,1334.22 1862.7,1335.99 1864.99,1337.71 1867.29,1339.38 1869.59,1340.99 1871.88,1342.56 1874.18,1344.08 1876.48,1345.55 1878.78,1346.97 1881.07,1348.35 
  1883.37,1349.69 1885.67,1350.98 1887.96,1352.23 1890.26,1353.44 1892.56,1354.61 1894.85,1355.74 1897.15,1356.83 1899.45,1357.89 1901.75,1358.91 1904.04,1359.89 
  1906.34,1360.84 1908.64,1361.76 1910.93,1362.65 1913.23,1363.51 1915.53,1364.34 1917.82,1365.13 1920.12,1365.9 1922.42,1366.64 1924.72,1367.36 1927.01,1368.05 
  1929.31,1368.71 1931.61,1369.35 1933.9,1369.97 1936.2,1370.56 1938.5,1371.13 1940.79,1371.69 1943.09,1372.21 1945.39,1372.72 1947.69,1373.21 1949.98,1373.69 
  1952.28,1374.14 1954.58,1374.57 1956.87,1374.99 1959.17,1375.4 1961.47,1375.78 1963.76,1376.15 1966.06,1376.51 1968.36,1376.85 1970.65,1377.18 1972.95,1377.5 
  1975.25,1377.8 1977.55,1378.09 1979.84,1378.37 1982.14,1378.63 1984.44,1378.89 1986.73,1379.13 1989.03,1379.37 1991.33,1379.59 1993.62,1379.81 1995.92,1380.02 
  1998.22,1380.21 2000.52,1380.4 2002.81,1380.58 2005.11,1380.76 2007.41,1380.92 2009.7,1381.08 2012,1381.23 2014.3,1381.38 2016.59,1381.51 2018.89,1381.65 
  2021.19,1381.77 2023.49,1381.89 2025.78,1382.01 2028.08,1382.12 2030.38,1382.22 2032.67,1382.32 2034.97,1382.42 2037.27,1382.51 2039.56,1382.6 2041.86,1382.68 
  2044.16,1382.76 2046.46,1382.83 2048.75,1382.9 2051.05,1382.97 2053.35,1383.04 2055.64,1383.1 2057.94,1383.16 2060.24,1383.21 2062.53,1383.27 2064.83,1383.32 
  2067.13,1383.37 2069.43,1383.41 2071.72,1383.46 2074.02,1383.5 2076.32,1383.54 2078.61,1383.57 2080.91,1383.61 2083.21,1383.64 2085.5,1383.68 2087.8,1383.71 
  2090.1,1383.74 2092.4,1383.76 2094.69,1383.79 2096.99,1383.81 2099.29,1383.84 2101.58,1383.86 2103.88,1383.88 2106.18,1383.9 2108.47,1383.92 2110.77,1383.94 
  2113.07,1383.95 2115.36,1383.97 2117.66,1383.99 2119.96,1384 2122.26,1384.01 2124.55,1384.03 2126.85,1384.04 2129.15,1384.05 2131.44,1384.06 2133.74,1384.07 
  2136.04,1384.08 2138.33,1384.09 2140.63,1384.1 2142.93,1384.11 2145.23,1384.11 2147.52,1384.12 2149.82,1384.13 2152.12,1384.14 2154.41,1384.14 2156.71,1384.15 
  2159.01,1384.15 2161.3,1384.16 2163.6,1384.16 2165.9,1384.17 2168.2,1384.17 2170.49,1384.18 2172.79,1384.18 2175.09,1384.18 2177.38,1384.19 2179.68,1384.19 
  2181.98,1384.19 2184.27,1384.2 2186.57,1384.2 2188.87,1384.2 2191.17,1384.2 2193.46,1384.21 2195.76,1384.21 2198.06,1384.21 2200.35,1384.21 2202.65,1384.21 
  2204.95,1384.21 2207.24,1384.22 2209.54,1384.22 2211.84,1384.22 2214.14,1384.22 2216.43,1384.22 2218.73,1384.22 2221.03,1384.22 2223.32,1384.22 2225.62,1384.23 
  2227.92,1384.23 
  "/>
<polyline clip-path="url(#clip832)" style="stroke:#3da44d; stroke-width:12; stroke-opacity:1; fill:none" points="
  298.45,1384.24 300.747,1384.24 303.044,1384.24 305.341,1384.24 307.638,1384.24 309.935,1384.24 312.232,1384.24 314.529,1384.24 316.826,1384.24 319.123,1384.24 
  321.42,1384.24 323.717,1384.24 326.014,1384.24 328.311,1384.24 330.608,1384.24 332.905,1384.24 335.202,1384.24 337.499,1384.24 339.796,1384.24 342.093,1384.24 
  344.39,1384.24 346.687,1384.24 348.984,1384.24 351.281,1384.24 353.578,1384.24 355.875,1384.24 358.172,1384.24 360.469,1384.24 362.766,1384.24 365.063,1384.24 
  367.36,1384.24 369.657,1384.24 371.954,1384.24 374.251,1384.24 376.548,1384.24 378.845,1384.24 381.142,1384.24 383.439,1384.24 385.736,1384.24 388.033,1384.24 
  390.33,1384.24 392.627,1384.24 394.924,1384.24 397.221,1384.24 399.518,1384.24 401.815,1384.24 404.112,1384.24 406.409,1384.24 408.706,1384.24 411.003,1384.24 
  413.3,1384.24 415.597,1384.24 417.893,1384.24 420.19,1384.24 422.487,1384.24 424.784,1384.24 427.081,1384.24 429.378,1384.24 431.675,1384.24 433.972,1384.24 
  436.269,1384.24 438.566,1384.24 440.863,1384.24 443.16,1384.24 445.457,1384.24 447.754,1384.24 450.051,1384.24 452.348,1384.24 454.645,1384.24 456.942,1384.24 
  459.239,1384.24 461.536,1384.24 463.833,1384.24 466.13,1384.24 468.427,1384.24 470.724,1384.24 473.021,1384.24 475.318,1384.24 477.615,1384.24 479.912,1384.24 
  482.209,1384.24 484.506,1384.24 486.803,1384.24 489.1,1384.24 491.397,1384.24 493.694,1384.24 495.991,1384.24 498.288,1384.24 500.585,1384.24 502.882,1384.24 
  505.179,1384.24 507.476,1384.24 509.773,1384.24 512.07,1384.24 514.367,1384.24 516.664,1384.24 518.961,1384.24 521.258,1384.24 523.555,1384.24 525.852,1384.24 
  528.149,1384.24 530.446,1384.24 532.743,1384.24 535.04,1384.24 537.337,1384.24 539.634,1384.24 541.931,1384.24 544.228,1384.24 546.525,1384.24 548.822,1384.24 
  551.119,1384.24 553.416,1384.24 555.713,1384.24 558.01,1384.24 560.307,1384.24 562.604,1384.24 564.9,1384.24 567.197,1384.24 569.494,1384.24 571.791,1384.24 
  574.088,1384.24 576.385,1384.24 578.682,1384.24 580.979,1384.24 583.276,1384.24 585.573,1384.24 587.87,1384.24 590.167,1384.24 592.464,1384.24 594.761,1384.24 
  597.058,1384.24 599.355,1384.24 601.652,1384.24 603.949,1384.24 606.246,1384.24 608.543,1384.24 610.84,1384.24 613.137,1384.24 615.434,1384.24 617.731,1384.24 
  620.028,1384.24 622.325,1384.24 624.622,1384.24 626.919,1384.24 629.216,1384.24 631.513,1384.24 633.81,1384.24 636.107,1384.24 638.404,1384.24 640.701,1384.24 
  642.998,1384.24 645.295,1384.24 647.592,1384.24 649.889,1384.24 652.186,1384.24 654.483,1384.24 656.78,1384.24 659.077,1384.24 661.374,1384.24 663.671,1384.24 
  665.968,1384.24 668.265,1384.24 670.562,1384.24 672.859,1384.24 675.156,1384.24 677.453,1384.24 679.75,1384.24 682.047,1384.24 684.344,1384.24 686.641,1384.24 
  688.938,1384.24 691.235,1384.24 693.532,1384.24 695.829,1384.24 698.126,1384.24 700.423,1384.24 702.72,1384.24 705.017,1384.24 707.314,1384.24 709.61,1384.24 
  711.907,1384.24 714.204,1384.24 716.501,1384.24 718.798,1384.23 721.095,1384.23 723.392,1384.23 725.689,1384.23 727.986,1384.23 730.283,1384.23 732.58,1384.23 
  734.877,1384.23 737.174,1384.23 739.471,1384.23 741.768,1384.23 744.065,1384.23 746.362,1384.23 748.659,1384.23 750.956,1384.23 753.253,1384.22 755.55,1384.22 
  757.847,1384.22 760.144,1384.22 762.441,1384.22 764.738,1384.22 767.035,1384.21 769.332,1384.21 771.629,1384.21 773.926,1384.21 776.223,1384.2 778.52,1384.2 
  780.817,1384.2 783.114,1384.19 785.411,1384.19 787.708,1384.19 790.005,1384.18 792.302,1384.18 794.599,1384.17 796.896,1384.17 799.193,1384.16 801.49,1384.15 
  803.787,1384.15 806.084,1384.14 808.381,1384.13 810.678,1384.12 812.975,1384.11 815.272,1384.1 817.569,1384.09 819.866,1384.08 822.163,1384.07 824.46,1384.05 
  826.757,1384.04 829.054,1384.02 831.351,1384 833.648,1383.99 835.945,1383.97 838.242,1383.95 840.539,1383.92 842.836,1383.9 845.133,1383.87 847.43,1383.85 
  849.727,1383.82 852.024,1383.79 854.321,1383.75 856.617,1383.72 858.914,1383.68 861.211,1383.64 863.508,1383.6 865.805,1383.55 868.102,1383.51 870.399,1383.45 
  872.696,1383.4 874.993,1383.34 877.29,1383.28 879.587,1383.21 881.884,1383.14 884.181,1383.07 886.478,1382.99 888.775,1382.91 891.072,1382.82 893.369,1382.72 
  895.666,1382.62 897.963,1382.52 900.26,1382.41 902.557,1382.29 904.854,1382.16 907.151,1382.03 909.448,1381.89 911.745,1381.75 914.042,1381.59 916.339,1381.42 
  918.636,1381.25 920.933,1381.07 923.23,1380.87 925.527,1380.67 927.824,1380.45 930.121,1380.23 932.418,1379.99 934.715,1379.74 937.012,1379.47 939.309,1379.2 
  941.606,1378.9 943.903,1378.6 946.2,1378.27 948.497,1377.93 950.794,1377.58 953.091,1377.2 955.388,1376.81 957.685,1376.4 959.982,1375.97 962.279,1375.51 
  964.576,1375.04 966.873,1374.54 969.17,1374.02 971.467,1373.48 973.764,1372.91 976.061,1372.31 978.358,1371.69 980.655,1371.04 982.952,1370.36 985.249,1369.65 
  987.546,1368.91 989.843,1368.13 992.14,1367.33 994.437,1366.48 996.734,1365.6 999.031,1364.69 1001.33,1363.74 1003.62,1362.74 1005.92,1361.71 1008.22,1360.63 
  1010.52,1359.51 1012.81,1358.35 1015.11,1357.13 1017.41,1355.88 1019.7,1354.57 1022,1353.21 1024.3,1351.8 1026.59,1350.33 1028.89,1348.81 1031.19,1347.24 
  1033.49,1345.6 1035.78,1343.91 1038.08,1342.15 1040.38,1340.33 1042.67,1338.45 1044.97,1336.5 1047.27,1334.48 1049.56,1332.39 1051.86,1330.24 1054.16,1328 
  1056.46,1325.7 1058.75,1323.32 1061.05,1320.86 1063.35,1318.31 1065.64,1315.69 1067.94,1312.99 1070.24,1310.2 1072.53,1307.32 1074.83,1304.35 1077.13,1301.3 
  1079.42,1298.15 1081.72,1294.91 1084.02,1291.57 1086.32,1288.14 1088.61,1284.61 1090.91,1280.98 1093.21,1277.24 1095.5,1273.4 1097.8,1269.46 1100.1,1265.41 
  1102.39,1261.26 1104.69,1256.99 1106.99,1252.61 1109.29,1248.12 1111.58,1243.52 1113.88,1238.8 1116.18,1233.96 1118.47,1229.01 1120.77,1223.94 1123.07,1218.74 
  1125.36,1213.43 1127.66,1207.99 1129.96,1202.43 1132.26,1196.75 1134.55,1190.94 1136.85,1185 1139.15,1178.94 1141.44,1172.75 1143.74,1166.44 1146.04,1159.99 
  1148.33,1153.41 1150.63,1146.71 1152.93,1139.88 1155.23,1132.91 1157.52,1125.82 1159.82,1118.59 1162.12,1111.24 1164.41,1103.75 1166.71,1096.14 1169.01,1088.4 
  1171.3,1080.52 1173.6,1072.52 1175.9,1064.39 1178.2,1056.14 1180.49,1047.75 1182.79,1039.24 1185.09,1030.61 1187.38,1021.86 1189.68,1012.98 1191.98,1003.98 
  1194.27,994.86 1196.57,985.624 1198.87,976.272 1201.17,966.806 1203.46,957.227 1205.76,947.538 1208.06,937.741 1210.35,927.837 1212.65,917.83 1214.95,907.722 
  1217.24,897.516 1219.54,887.213 1221.84,876.818 1224.13,866.332 1226.43,855.759 1228.73,845.102 1231.03,834.364 1233.32,823.549 1235.62,812.66 1237.92,801.701 
  1240.21,790.674 1242.51,779.585 1244.81,768.437 1247.1,757.233 1249.4,745.978 1251.7,734.677 1254,723.332 1256.29,711.949 1258.59,700.532 1260.89,689.086 
  1263.18,677.614 1265.48,666.123 1267.78,654.615 1270.07,643.097 1272.37,631.573 1274.67,620.048 1276.97,608.527 1279.26,597.014 1281.56,585.516 1283.86,574.037 
  1286.15,562.583 1288.45,551.158 1290.75,539.767 1293.04,528.417 1295.34,517.113 1297.64,505.859 1299.94,494.661 1302.23,483.525 1304.53,472.455 1306.83,461.458 
  1309.12,450.539 1311.42,439.702 1313.72,428.954 1316.01,418.3 1318.31,407.745 1320.61,397.295 1322.91,386.954 1325.2,376.729 1327.5,366.623 1329.8,356.643 
  1332.09,346.794 1334.39,337.081 1336.69,327.508 1338.98,318.082 1341.28,308.805 1343.58,299.685 1345.88,290.725 1348.17,281.93 1350.47,273.305 1352.77,264.854 
  1355.06,256.582 1357.36,248.493 1359.66,240.591 1361.95,232.881 1364.25,225.367 1366.55,218.052 1368.84,210.941 1371.14,204.037 1373.44,197.344 1375.74,190.865 
  1378.03,184.604 1380.33,178.564 1382.63,172.748 1384.92,167.159 1387.22,161.8 1389.52,156.674 1391.81,151.783 1394.11,147.13 1396.41,142.717 1398.71,138.546 
  1401,134.619 1403.3,130.938 1405.6,127.505 1407.89,124.322 1410.19,121.389 1412.49,118.708 1414.78,116.28 1417.08,114.106 1419.38,112.187 1421.68,110.524 
  1423.97,109.116 1426.27,107.965 1428.57,107.071 1430.86,106.432 1433.16,106.051 1435.46,105.925 1437.75,106.055 1440.05,106.44 1442.35,107.079 1444.65,107.971 
  1446.94,109.116 1449.24,110.513 1451.54,112.159 1453.83,114.053 1456.13,116.195 1458.43,118.581 1460.72,121.211 1463.02,124.082 1465.32,127.191 1467.62,130.538 
  1469.91,134.119 1472.21,137.931 1474.51,141.973 1476.8,146.241 1479.1,150.733 1481.4,155.445 1483.69,160.375 1485.99,165.518 1488.29,170.873 1490.59,176.435 
  1492.88,182.2 1495.18,188.166 1497.48,194.329 1499.77,200.685 1502.07,207.229 1504.37,213.959 1506.66,220.87 1508.96,227.957 1511.26,235.218 1513.55,242.647 
  1515.85,250.24 1518.15,257.994 1520.45,265.903 1522.74,273.963 1525.04,282.17 1527.34,290.519 1529.63,299.006 1531.93,307.627 1534.23,316.375 1536.52,325.248 
  1538.82,334.24 1541.12,343.347 1543.42,352.563 1545.71,361.885 1548.01,371.308 1550.31,380.826 1552.6,390.436 1554.9,400.133 1557.2,409.911 1559.49,419.766 
  1561.79,429.694 1564.09,439.691 1566.39,449.75 1568.68,459.869 1570.98,470.041 1573.28,480.264 1575.57,490.531 1577.87,500.84 1580.17,511.185 1582.46,521.562 
  1584.76,531.967 1587.06,542.395 1589.36,552.843 1591.65,563.306 1593.95,573.78 1596.25,584.261 1598.54,594.745 1600.84,605.227 1603.14,615.705 1605.43,626.175 
  1607.73,636.632 1610.03,647.073 1612.33,657.494 1614.62,667.892 1616.92,678.264 1619.22,688.606 1621.51,698.914 1623.81,709.186 1626.11,719.417 1628.4,729.607 
  1630.7,739.75 1633,749.845 1635.3,759.888 1637.59,769.877 1639.89,779.808 1642.19,789.68 1644.48,799.49 1646.78,809.236 1649.08,818.914 1651.37,828.524 
  1653.67,838.062 1655.97,847.526 1658.27,856.915 1660.56,866.227 1662.86,875.459 1665.16,884.61 1667.45,893.678 1669.75,902.662 1672.05,911.56 1674.34,920.37 
  1676.64,929.091 1678.94,937.722 1681.23,946.262 1683.53,954.71 1685.83,963.063 1688.13,971.322 1690.42,979.486 1692.72,987.553 1695.02,995.522 1697.31,1003.39 
  1699.61,1011.17 1701.91,1018.84 1704.2,1026.41 1706.5,1033.89 1708.8,1041.26 1711.1,1048.53 1713.39,1055.71 1715.69,1062.77 1717.99,1069.74 1720.28,1076.61 
  1722.58,1083.37 1724.88,1090.04 1727.17,1096.6 1729.47,1103.06 1731.77,1109.42 1734.07,1115.67 1736.36,1121.83 1738.66,1127.89 1740.96,1133.84 1743.25,1139.7 
  1745.55,1145.46 1747.85,1151.12 1750.14,1156.68 1752.44,1162.14 1754.74,1167.5 1757.04,1172.77 1759.33,1177.94 1761.63,1183.02 1763.93,1188 1766.22,1192.89 
  1768.52,1197.69 1770.82,1202.4 1773.11,1207.01 1775.41,1211.53 1777.71,1215.97 1780.01,1220.31 1782.3,1224.57 1784.6,1228.74 1786.9,1232.82 1789.19,1236.82 
  1791.49,1240.74 1793.79,1244.57 1796.08,1248.33 1798.38,1252 1800.68,1255.59 1802.98,1259.1 1805.27,1262.54 1807.57,1265.9 1809.87,1269.18 1812.16,1272.39 
  1814.46,1275.53 1816.76,1278.59 1819.05,1281.59 1821.35,1284.51 1823.65,1287.36 1825.94,1290.15 1828.24,1292.87 1830.54,1295.53 1832.84,1298.12 1835.13,1300.65 
  1837.43,1303.11 1839.73,1305.52 1842.02,1307.86 1844.32,1310.15 1846.62,1312.37 1848.91,1314.54 1851.21,1316.66 1853.51,1318.72 1855.81,1320.73 1858.1,1322.68 
  1860.4,1324.59 1862.7,1326.44 1864.99,1328.24 1867.29,1330 1869.59,1331.71 1871.88,1333.37 1874.18,1334.98 1876.48,1336.55 1878.78,1338.08 1881.07,1339.57 
  1883.37,1341.01 1885.67,1342.42 1887.96,1343.78 1890.26,1345.1 1892.56,1346.39 1894.85,1347.64 1897.15,1348.85 1899.45,1350.03 1901.75,1351.18 1904.04,1352.29 
  1906.34,1353.36 1908.64,1354.41 1910.93,1355.42 1913.23,1356.4 1915.53,1357.36 1917.82,1358.28 1920.12,1359.18 1922.42,1360.05 1924.72,1360.89 1927.01,1361.7 
  1929.31,1362.49 1931.61,1363.26 1933.9,1364 1936.2,1364.72 1938.5,1365.41 1940.79,1366.09 1943.09,1366.74 1945.39,1367.37 1947.69,1367.98 1949.98,1368.57 
  1952.28,1369.14 1954.58,1369.69 1956.87,1370.22 1959.17,1370.74 1961.47,1371.24 1963.76,1371.72 1966.06,1372.19 1968.36,1372.64 1970.65,1373.07 1972.95,1373.49 
  1975.25,1373.9 1977.55,1374.29 1979.84,1374.67 1982.14,1375.03 1984.44,1375.38 1986.73,1375.72 1989.03,1376.05 1991.33,1376.37 1993.62,1376.67 1995.92,1376.97 
  1998.22,1377.25 2000.52,1377.52 2002.81,1377.79 2005.11,1378.04 2007.41,1378.29 2009.7,1378.52 2012,1378.75 2014.3,1378.97 2016.59,1379.18 2018.89,1379.38 
  2021.19,1379.58 2023.49,1379.77 2025.78,1379.95 2028.08,1380.12 2030.38,1380.29 2032.67,1380.45 2034.97,1380.61 2037.27,1380.76 2039.56,1380.9 2041.86,1381.04 
  2044.16,1381.17 2046.46,1381.3 2048.75,1381.42 2051.05,1381.54 2053.35,1381.66 2055.64,1381.76 2057.94,1381.87 2060.24,1381.97 2062.53,1382.07 2064.83,1382.16 
  2067.13,1382.25 2069.43,1382.33 2071.72,1382.42 2074.02,1382.49 2076.32,1382.57 2078.61,1382.64 2080.91,1382.71 2083.21,1382.78 2085.5,1382.84 2087.8,1382.9 
  2090.1,1382.96 2092.4,1383.02 2094.69,1383.07 2096.99,1383.12 2099.29,1383.17 2101.58,1383.22 2103.88,1383.27 2106.18,1383.31 2108.47,1383.35 2110.77,1383.39 
  2113.07,1383.43 2115.36,1383.47 2117.66,1383.5 2119.96,1383.54 2122.26,1383.57 2124.55,1383.6 2126.85,1383.63 2129.15,1383.66 2131.44,1383.68 2133.74,1383.71 
  2136.04,1383.73 2138.33,1383.76 2140.63,1383.78 2142.93,1383.8 2145.23,1383.82 2147.52,1383.84 2149.82,1383.86 2152.12,1383.88 2154.41,1383.89 2156.71,1383.91 
  2159.01,1383.93 2161.3,1383.94 2163.6,1383.96 2165.9,1383.97 2168.2,1383.98 2170.49,1383.99 2172.79,1384.01 2175.09,1384.02 2177.38,1384.03 2179.68,1384.04 
  2181.98,1384.05 2184.27,1384.06 2186.57,1384.07 2188.87,1384.07 2191.17,1384.08 2193.46,1384.09 2195.76,1384.1 2198.06,1384.1 2200.35,1384.11 2202.65,1384.12 
  2204.95,1384.12 2207.24,1384.13 2209.54,1384.14 2211.84,1384.14 2214.14,1384.15 2216.43,1384.15 2218.73,1384.15 2221.03,1384.16 2223.32,1384.16 2225.62,1384.17 
  2227.92,1384.17 
  "/>
<path clip-path="url(#clip830)" d="
M1810.62 335.029 L2282.28 335.029 L2282.28 93.1086 L1810.62 93.1086  Z
  " fill="#ffffff" fill-rule="evenodd" fill-opacity="1"/>
<polyline clip-path="url(#clip830)" style="stroke:#000000; stroke-width:4; stroke-opacity:1; fill:none" points="
  1810.62,335.029 2282.28,335.029 2282.28,93.1086 1810.62,93.1086 1810.62,335.029 
  "/>
<path clip-path="url(#clip830)" d="
M1834.11 177.781 L1975.06 177.781 L1975.06 129.397 L1834.11 129.397 L1834.11 177.781  Z
  " fill="#009af9" fill-rule="evenodd" fill-opacity="1"/>
<polyline clip-path="url(#clip830)" style="stroke:#009af9; stroke-width:4; stroke-opacity:1; fill:none" points="
  1834.11,177.781 1975.06,177.781 1975.06,129.397 1834.11,129.397 1834.11,177.781 
  "/>
<path clip-path="url(#clip830)" d="M 0 0 M2012.39 173.276 Q2010.58 177.906 2008.87 179.318 Q2007.16 180.73 2004.29 180.73 L2000.88 180.73 L2000.88 177.165 L2003.38 177.165 Q2005.14 177.165 2006.12 176.332 Q2007.09 175.498 2008.27 172.396 L2009.03 170.452 L1998.55 144.943 L2003.06 144.943 L2011.16 165.221 L2019.26 144.943 L2023.78 144.943 L2012.39 173.276 Z" fill="#000000" fill-rule="evenodd" fill-opacity="1" /><path clip-path="url(#clip830)" d="M 0 0 M2029.66 166.933 L2037.3 166.933 L2037.3 140.568 L2028.99 142.235 L2028.99 137.975 L2037.25 136.309 L2041.93 136.309 L2041.93 166.933 L2049.56 166.933 L2049.56 170.869 L2029.66 170.869 L2029.66 166.933 Z" fill="#000000" fill-rule="evenodd" fill-opacity="1" /><polyline clip-path="url(#clip830)" style="stroke:#e26f46; stroke-width:4; stroke-opacity:1; fill:none" points="
  1834.11,214.069 1975.06,214.069 
  "/>
<path clip-path="url(#clip830)" d="M 0 0 M2017.46 218.085 Q2017.46 213.455 2015.54 210.909 Q2013.64 208.363 2010.19 208.363 Q2006.76 208.363 2004.84 210.909 Q2002.94 213.455 2002.94 218.085 Q2002.94 222.691 2004.84 225.238 Q2006.76 227.784 2010.19 227.784 Q2013.64 227.784 2015.54 225.238 Q2017.46 222.691 2017.46 218.085 M2021.72 228.131 Q2021.72 234.751 2018.78 237.969 Q2015.84 241.21 2009.77 241.21 Q2007.53 241.21 2005.54 240.862 Q2003.55 240.538 2001.67 239.844 L2001.67 235.7 Q2003.55 236.719 2005.37 237.205 Q2007.2 237.691 2009.1 237.691 Q2013.29 237.691 2015.37 235.492 Q2017.46 233.316 2017.46 228.895 L2017.46 226.788 Q2016.14 229.08 2014.08 230.214 Q2012.02 231.349 2009.15 231.349 Q2004.38 231.349 2001.46 227.714 Q1998.55 224.08 1998.55 218.085 Q1998.55 212.066 2001.46 208.432 Q2004.38 204.798 2009.15 204.798 Q2012.02 204.798 2014.08 205.932 Q2016.14 207.066 2017.46 209.358 L2017.46 205.423 L2021.72 205.423 L2021.72 228.131 Z" fill="#000000" fill-rule="evenodd" fill-opacity="1" /><path clip-path="url(#clip830)" d="M 0 0 M2037.97 218.316 Q2032.8 218.316 2030.81 219.497 Q2028.82 220.677 2028.82 223.525 Q2028.82 225.793 2030.3 227.136 Q2031.81 228.455 2034.38 228.455 Q2037.92 228.455 2040.05 225.955 Q2042.2 223.432 2042.2 219.265 L2042.2 218.316 L2037.97 218.316 M2046.46 216.557 L2046.46 231.349 L2042.2 231.349 L2042.2 227.413 Q2040.74 229.775 2038.57 230.909 Q2036.39 232.02 2033.24 232.02 Q2029.26 232.02 2026.9 229.798 Q2024.56 227.552 2024.56 223.802 Q2024.56 219.427 2027.48 217.205 Q2030.42 214.983 2036.23 214.983 L2042.2 214.983 L2042.2 214.566 Q2042.2 211.627 2040.26 210.029 Q2038.34 208.409 2034.84 208.409 Q2032.62 208.409 2030.51 208.941 Q2028.41 209.474 2026.46 210.539 L2026.46 206.603 Q2028.8 205.701 2031 205.261 Q2033.2 204.798 2035.28 204.798 Q2040.91 204.798 2043.68 207.714 Q2046.46 210.631 2046.46 216.557 Z" fill="#000000" fill-rule="evenodd" fill-opacity="1" /><path clip-path="url(#clip830)" d="M 0 0 M2050.49 221.117 L2050.49 205.423 L2054.75 205.423 L2054.75 220.955 Q2054.75 224.636 2056.18 226.488 Q2057.62 228.316 2060.49 228.316 Q2063.94 228.316 2065.93 226.117 Q2067.94 223.918 2067.94 220.122 L2067.94 205.423 L2072.2 205.423 L2072.2 231.349 L2067.94 231.349 L2067.94 227.367 Q2066.39 229.728 2064.33 230.886 Q2062.3 232.02 2059.59 232.02 Q2055.12 232.02 2052.8 229.242 Q2050.49 226.464 2050.49 221.117 M2061.21 204.798 L2061.21 204.798 Z" fill="#000000" fill-rule="evenodd" fill-opacity="1" /><path clip-path="url(#clip830)" d="M 0 0 M2093.2 206.187 L2093.2 210.214 Q2091.39 209.289 2089.45 208.826 Q2087.5 208.363 2085.42 208.363 Q2082.25 208.363 2080.65 209.335 Q2079.08 210.307 2079.08 212.251 Q2079.08 213.733 2080.21 214.589 Q2081.35 215.423 2084.77 216.187 L2086.23 216.511 Q2090.77 217.483 2092.67 219.265 Q2094.59 221.025 2094.59 224.196 Q2094.59 227.807 2091.72 229.913 Q2088.87 232.02 2083.87 232.02 Q2081.79 232.02 2079.52 231.603 Q2077.27 231.21 2074.77 230.4 L2074.77 226.001 Q2077.13 227.228 2079.42 227.853 Q2081.72 228.455 2083.96 228.455 Q2086.97 228.455 2088.59 227.437 Q2090.21 226.395 2090.21 224.52 Q2090.21 222.784 2089.03 221.858 Q2087.87 220.932 2083.92 220.076 L2082.43 219.728 Q2078.48 218.895 2076.72 217.182 Q2074.96 215.446 2074.96 212.437 Q2074.96 208.779 2077.55 206.789 Q2080.14 204.798 2084.91 204.798 Q2087.27 204.798 2089.36 205.145 Q2091.44 205.492 2093.2 206.187 Z" fill="#000000" fill-rule="evenodd" fill-opacity="1" /><path clip-path="url(#clip830)" d="M 0 0 M2115.58 206.187 L2115.58 210.214 Q2113.78 209.289 2111.83 208.826 Q2109.89 208.363 2107.8 208.363 Q2104.63 208.363 2103.04 209.335 Q2101.46 210.307 2101.46 212.251 Q2101.46 213.733 2102.6 214.589 Q2103.73 215.423 2107.16 216.187 L2108.61 216.511 Q2113.15 217.483 2115.05 219.265 Q2116.97 221.025 2116.97 224.196 Q2116.97 227.807 2114.1 229.913 Q2111.25 232.02 2106.25 232.02 Q2104.17 232.02 2101.9 231.603 Q2099.66 231.21 2097.16 230.4 L2097.16 226.001 Q2099.52 227.228 2101.81 227.853 Q2104.1 228.455 2106.35 228.455 Q2109.36 228.455 2110.98 227.437 Q2112.6 226.395 2112.6 224.52 Q2112.6 222.784 2111.42 221.858 Q2110.26 220.932 2106.3 220.076 L2104.82 219.728 Q2100.86 218.895 2099.1 217.182 Q2097.34 215.446 2097.34 212.437 Q2097.34 208.779 2099.93 206.789 Q2102.53 204.798 2107.3 204.798 Q2109.66 204.798 2111.74 205.145 Q2113.82 205.492 2115.58 206.187 Z" fill="#000000" fill-rule="evenodd" fill-opacity="1" /><path clip-path="url(#clip830)" d="M 0 0 M2121.44 205.423 L2125.7 205.423 L2125.7 231.349 L2121.44 231.349 L2121.44 205.423 M2121.44 195.33 L2125.7 195.33 L2125.7 200.724 L2121.44 200.724 L2121.44 195.33 Z" fill="#000000" fill-rule="evenodd" fill-opacity="1" /><path clip-path="url(#clip830)" d="M 0 0 M2141.95 218.316 Q2136.79 218.316 2134.79 219.497 Q2132.8 220.677 2132.8 223.525 Q2132.8 225.793 2134.29 227.136 Q2135.79 228.455 2138.36 228.455 Q2141.9 228.455 2144.03 225.955 Q2146.18 223.432 2146.18 219.265 L2146.18 218.316 L2141.95 218.316 M2150.44 216.557 L2150.44 231.349 L2146.18 231.349 L2146.18 227.413 Q2144.73 229.775 2142.55 230.909 Q2140.37 232.02 2137.23 232.02 Q2133.24 232.02 2130.88 229.798 Q2128.55 227.552 2128.55 223.802 Q2128.55 219.427 2131.46 217.205 Q2134.4 214.983 2140.21 214.983 L2146.18 214.983 L2146.18 214.566 Q2146.18 211.627 2144.24 210.029 Q2142.32 208.409 2138.82 208.409 Q2136.6 208.409 2134.49 208.941 Q2132.39 209.474 2130.44 210.539 L2130.44 206.603 Q2132.78 205.701 2134.98 205.261 Q2137.18 204.798 2139.26 204.798 Q2144.89 204.798 2147.67 207.714 Q2150.44 210.631 2150.44 216.557 Z" fill="#000000" fill-rule="evenodd" fill-opacity="1" /><path clip-path="url(#clip830)" d="M 0 0 M2176.46 215.701 L2176.46 231.349 L2172.2 231.349 L2172.2 215.839 Q2172.2 212.159 2170.77 210.33 Q2169.33 208.502 2166.46 208.502 Q2163.01 208.502 2161.02 210.701 Q2159.03 212.9 2159.03 216.696 L2159.03 231.349 L2154.75 231.349 L2154.75 205.423 L2159.03 205.423 L2159.03 209.451 Q2160.56 207.113 2162.62 205.955 Q2164.7 204.798 2167.41 204.798 Q2171.88 204.798 2174.17 207.576 Q2176.46 210.33 2176.46 215.701 Z" fill="#000000" fill-rule="evenodd" fill-opacity="1" /><path clip-path="url(#clip830)" d="M 0 0 M2209.12 195.33 L2209.12 198.872 L2205.05 198.872 Q2202.76 198.872 2201.85 199.798 Q2200.98 200.724 2200.98 203.131 L2200.98 205.423 L2207.99 205.423 L2207.99 208.733 L2200.98 208.733 L2200.98 231.349 L2196.69 231.349 L2196.69 208.733 L2192.62 208.733 L2192.62 205.423 L2196.69 205.423 L2196.69 203.617 Q2196.69 199.289 2198.71 197.321 Q2200.72 195.33 2205.1 195.33 L2209.12 195.33 Z" fill="#000000" fill-rule="evenodd" fill-opacity="1" /><path clip-path="url(#clip830)" d="M 0 0 M2213.59 205.423 L2217.85 205.423 L2217.85 231.349 L2213.59 231.349 L2213.59 205.423 M2213.59 195.33 L2217.85 195.33 L2217.85 200.724 L2213.59 200.724 L2213.59 195.33 Z" fill="#000000" fill-rule="evenodd" fill-opacity="1" /><path clip-path="url(#clip830)" d="M 0 0 M2226.53 198.062 L2226.53 205.423 L2235.3 205.423 L2235.3 208.733 L2226.53 208.733 L2226.53 222.807 Q2226.53 225.978 2227.39 226.881 Q2228.27 227.784 2230.93 227.784 L2235.3 227.784 L2235.3 231.349 L2230.93 231.349 Q2226 231.349 2224.12 229.52 Q2222.25 227.668 2222.25 222.807 L2222.25 208.733 L2219.12 208.733 L2219.12 205.423 L2222.25 205.423 L2222.25 198.062 L2226.53 198.062 Z" fill="#000000" fill-rule="evenodd" fill-opacity="1" /><polyline clip-path="url(#clip830)" style="stroke:#3da44d; stroke-width:4; stroke-opacity:1; fill:none" points="
  1834.11,274.549 1975.06,274.549 
  "/>
<path clip-path="url(#clip830)" d="M 0 0 M2002.83 287.94 L2002.83 301.69 L1998.55 301.69 L1998.55 265.903 L2002.83 265.903 L2002.83 269.838 Q2004.17 267.523 2006.21 266.412 Q2008.27 265.278 2011.12 265.278 Q2015.84 265.278 2018.78 269.028 Q2021.74 272.778 2021.74 278.889 Q2021.74 285 2018.78 288.75 Q2015.84 292.5 2011.12 292.5 Q2008.27 292.5 2006.21 291.389 Q2004.17 290.255 2002.83 287.94 M2017.32 278.889 Q2017.32 274.19 2015.37 271.528 Q2013.45 268.843 2010.07 268.843 Q2006.69 268.843 2004.75 271.528 Q2002.83 274.19 2002.83 278.889 Q2002.83 283.588 2004.75 286.273 Q2006.69 288.935 2010.07 288.935 Q2013.45 288.935 2015.37 286.273 Q2017.32 283.588 2017.32 278.889 Z" fill="#000000" fill-rule="evenodd" fill-opacity="1" /><path clip-path="url(#clip830)" d="M 0 0 M2036.25 268.889 Q2032.83 268.889 2030.84 271.574 Q2028.85 274.236 2028.85 278.889 Q2028.85 283.542 2030.81 286.227 Q2032.8 288.889 2036.25 288.889 Q2039.66 288.889 2041.65 286.204 Q2043.64 283.518 2043.64 278.889 Q2043.64 274.282 2041.65 271.597 Q2039.66 268.889 2036.25 268.889 M2036.25 265.278 Q2041.81 265.278 2044.98 268.889 Q2048.15 272.5 2048.15 278.889 Q2048.15 285.255 2044.98 288.889 Q2041.81 292.5 2036.25 292.5 Q2030.68 292.5 2027.5 288.889 Q2024.36 285.255 2024.36 278.889 Q2024.36 272.5 2027.5 268.889 Q2030.68 265.278 2036.25 265.278 Z" fill="#000000" fill-rule="evenodd" fill-opacity="1" /><path clip-path="url(#clip830)" d="M 0 0 M2052.62 265.903 L2056.88 265.903 L2056.88 291.829 L2052.62 291.829 L2052.62 265.903 M2052.62 255.81 L2056.88 255.81 L2056.88 261.204 L2052.62 261.204 L2052.62 255.81 Z" fill="#000000" fill-rule="evenodd" fill-opacity="1" /><path clip-path="url(#clip830)" d="M 0 0 M2077.87 266.667 L2077.87 270.694 Q2076.07 269.769 2074.12 269.306 Q2072.18 268.843 2070.1 268.843 Q2066.92 268.843 2065.33 269.815 Q2063.75 270.787 2063.75 272.731 Q2063.75 274.213 2064.89 275.069 Q2066.02 275.903 2069.45 276.667 L2070.91 276.991 Q2075.44 277.963 2077.34 279.745 Q2079.26 281.505 2079.26 284.676 Q2079.26 288.287 2076.39 290.393 Q2073.55 292.5 2068.55 292.5 Q2066.46 292.5 2064.19 292.083 Q2061.95 291.69 2059.45 290.88 L2059.45 286.481 Q2061.81 287.708 2064.1 288.333 Q2066.39 288.935 2068.64 288.935 Q2071.65 288.935 2073.27 287.917 Q2074.89 286.875 2074.89 285 Q2074.89 283.264 2073.71 282.338 Q2072.55 281.412 2068.59 280.556 L2067.11 280.208 Q2063.15 279.375 2061.39 277.662 Q2059.63 275.926 2059.63 272.917 Q2059.63 269.259 2062.23 267.269 Q2064.82 265.278 2069.59 265.278 Q2071.95 265.278 2074.03 265.625 Q2076.11 265.972 2077.87 266.667 Z" fill="#000000" fill-rule="evenodd" fill-opacity="1" /><path clip-path="url(#clip830)" d="M 0 0 M2100.26 266.667 L2100.26 270.694 Q2098.45 269.769 2096.51 269.306 Q2094.56 268.843 2092.48 268.843 Q2089.31 268.843 2087.71 269.815 Q2086.14 270.787 2086.14 272.731 Q2086.14 274.213 2087.27 275.069 Q2088.41 275.903 2091.83 276.667 L2093.29 276.991 Q2097.83 277.963 2099.73 279.745 Q2101.65 281.505 2101.65 284.676 Q2101.65 288.287 2098.78 290.393 Q2095.93 292.5 2090.93 292.5 Q2088.85 292.5 2086.58 292.083 Q2084.33 291.69 2081.83 290.88 L2081.83 286.481 Q2084.19 287.708 2086.49 288.333 Q2088.78 288.935 2091.02 288.935 Q2094.03 288.935 2095.65 287.917 Q2097.27 286.875 2097.27 285 Q2097.27 283.264 2096.09 282.338 Q2094.93 281.412 2090.98 280.556 L2089.49 280.208 Q2085.54 279.375 2083.78 277.662 Q2082.02 275.926 2082.02 272.917 Q2082.02 269.259 2084.61 267.269 Q2087.2 265.278 2091.97 265.278 Q2094.33 265.278 2096.42 265.625 Q2098.5 265.972 2100.26 266.667 Z" fill="#000000" fill-rule="evenodd" fill-opacity="1" /><path clip-path="url(#clip830)" d="M 0 0 M2116.16 268.889 Q2112.73 268.889 2110.74 271.574 Q2108.75 274.236 2108.75 278.889 Q2108.75 283.542 2110.72 286.227 Q2112.71 288.889 2116.16 288.889 Q2119.56 288.889 2121.55 286.204 Q2123.55 283.518 2123.55 278.889 Q2123.55 274.282 2121.55 271.597 Q2119.56 268.889 2116.16 268.889 M2116.16 265.278 Q2121.72 265.278 2124.89 268.889 Q2128.06 272.5 2128.06 278.889 Q2128.06 285.255 2124.89 288.889 Q2121.72 292.5 2116.16 292.5 Q2110.58 292.5 2107.41 288.889 Q2104.26 285.255 2104.26 278.889 Q2104.26 272.5 2107.41 268.889 Q2110.58 265.278 2116.16 265.278 Z" fill="#000000" fill-rule="evenodd" fill-opacity="1" /><path clip-path="url(#clip830)" d="M 0 0 M2154.08 276.181 L2154.08 291.829 L2149.82 291.829 L2149.82 276.319 Q2149.82 272.639 2148.38 270.81 Q2146.95 268.982 2144.08 268.982 Q2140.63 268.982 2138.64 271.181 Q2136.65 273.38 2136.65 277.176 L2136.65 291.829 L2132.36 291.829 L2132.36 265.903 L2136.65 265.903 L2136.65 269.931 Q2138.17 267.593 2140.23 266.435 Q2142.32 265.278 2145.03 265.278 Q2149.49 265.278 2151.79 268.056 Q2154.08 270.81 2154.08 276.181 Z" fill="#000000" fill-rule="evenodd" fill-opacity="1" /><path clip-path="url(#clip830)" d="M 0 0 M2186.74 255.81 L2186.74 259.352 L2182.67 259.352 Q2180.37 259.352 2179.47 260.278 Q2178.59 261.204 2178.59 263.611 L2178.59 265.903 L2185.6 265.903 L2185.6 269.213 L2178.59 269.213 L2178.59 291.829 L2174.31 291.829 L2174.31 269.213 L2170.23 269.213 L2170.23 265.903 L2174.31 265.903 L2174.31 264.097 Q2174.31 259.769 2176.32 257.801 Q2178.34 255.81 2182.71 255.81 L2186.74 255.81 Z" fill="#000000" fill-rule="evenodd" fill-opacity="1" /><path clip-path="url(#clip830)" d="M 0 0 M2191.21 265.903 L2195.47 265.903 L2195.47 291.829 L2191.21 291.829 L2191.21 265.903 M2191.21 255.81 L2195.47 255.81 L2195.47 261.204 L2191.21 261.204 L2191.21 255.81 Z" fill="#000000" fill-rule="evenodd" fill-opacity="1" /><path clip-path="url(#clip830)" d="M 0 0 M2204.15 258.542 L2204.15 265.903 L2212.92 265.903 L2212.92 269.213 L2204.15 269.213 L2204.15 283.287 Q2204.15 286.458 2205 287.361 Q2205.88 288.264 2208.54 288.264 L2212.92 288.264 L2212.92 291.829 L2208.54 291.829 Q2203.61 291.829 2201.74 290 Q2199.86 288.148 2199.86 283.287 L2199.86 269.213 L2196.74 269.213 L2196.74 265.903 L2199.86 265.903 L2199.86 258.542 L2204.15 258.542 Z" fill="#000000" fill-rule="evenodd" fill-opacity="1" /></svg>
