<?xml version="1.0" encoding="utf-8"?>
<svg xmlns="http://www.w3.org/2000/svg" xmlns:xlink="http://www.w3.org/1999/xlink" width="600" height="400" viewBox="0 0 2400 1600">
<defs>
  <clipPath id="clip650">
    <rect x="0" y="0" width="2400" height="1600"/>
  </clipPath>
</defs>
<path clip-path="url(#clip650)" d="
M0 1600 L2400 1600 L2400 0 L0 0  Z
  " fill="#ffffff" fill-rule="evenodd" fill-opacity="1"/>
<defs>
  <clipPath id="clip651">
    <rect x="480" y="0" width="1681" height="1600"/>
  </clipPath>
</defs>
<path clip-path="url(#clip650)" d="
M265.144 1423.18 L2352.76 1423.18 L2352.76 47.2441 L265.144 47.2441  Z
  " fill="#ffffff" fill-rule="evenodd" fill-opacity="1"/>
<defs>
  <clipPath id="clip652">
    <rect x="265" y="47" width="2089" height="1377"/>
  </clipPath>
</defs>
<polyline clip-path="url(#clip652)" style="stroke:#000000; stroke-width:2; stroke-opacity:0.1; fill:none" points="
  379.966,1423.18 379.966,47.2441 
  "/>
<polyline clip-path="url(#clip652)" style="stroke:#000000; stroke-width:2; stroke-opacity:0.1; fill:none" points="
  960.581,1423.18 960.581,47.2441 
  "/>
<polyline clip-path="url(#clip652)" style="stroke:#000000; stroke-width:2; stroke-opacity:0.1; fill:none" points="
  1541.2,1423.18 1541.2,47.2441 
  "/>
<polyline clip-path="url(#clip652)" style="stroke:#000000; stroke-width:2; stroke-opacity:0.1; fill:none" points="
  2121.81,1423.18 2121.81,47.2441 
  "/>
<polyline clip-path="url(#clip650)" style="stroke:#000000; stroke-width:4; stroke-opacity:1; fill:none" points="
  265.144,1423.18 2352.76,1423.18 
  "/>
<polyline clip-path="url(#clip650)" style="stroke:#000000; stroke-width:4; stroke-opacity:1; fill:none" points="
  379.966,1423.18 379.966,1406.67 
  "/>
<polyline clip-path="url(#clip650)" style="stroke:#000000; stroke-width:4; stroke-opacity:1; fill:none" points="
  960.581,1423.18 960.581,1406.67 
  "/>
<polyline clip-path="url(#clip650)" style="stroke:#000000; stroke-width:4; stroke-opacity:1; fill:none" points="
  1541.2,1423.18 1541.2,1406.67 
  "/>
<polyline clip-path="url(#clip650)" style="stroke:#000000; stroke-width:4; stroke-opacity:1; fill:none" points="
  2121.81,1423.18 2121.81,1406.67 
  "/>
<path clip-path="url(#clip650)" d="M 0 0 M379.966 1452.37 Q376.355 1452.37 374.526 1455.94 Q372.721 1459.48 372.721 1466.61 Q372.721 1473.71 374.526 1477.28 Q376.355 1480.82 379.966 1480.82 Q383.6 1480.82 385.406 1477.28 Q387.235 1473.71 387.235 1466.61 Q387.235 1459.48 385.406 1455.94 Q383.6 1452.37 379.966 1452.37 M379.966 1448.67 Q385.776 1448.67 388.832 1453.27 Q391.911 1457.86 391.911 1466.61 Q391.911 1475.33 388.832 1479.94 Q385.776 1484.52 379.966 1484.52 Q374.156 1484.52 371.077 1479.94 Q368.022 1475.33 368.022 1466.61 Q368.022 1457.86 371.077 1453.27 Q374.156 1448.67 379.966 1448.67 Z" fill="#000000" fill-rule="evenodd" fill-opacity="1" /><path clip-path="url(#clip650)" d="M 0 0 M937.456 1479.92 L945.095 1479.92 L945.095 1453.55 L936.785 1455.22 L936.785 1450.96 L945.049 1449.29 L949.725 1449.29 L949.725 1479.92 L957.363 1479.92 L957.363 1483.85 L937.456 1483.85 L937.456 1479.92 Z" fill="#000000" fill-rule="evenodd" fill-opacity="1" /><path clip-path="url(#clip650)" d="M 0 0 M972.433 1452.37 Q968.822 1452.37 966.993 1455.94 Q965.187 1459.48 965.187 1466.61 Q965.187 1473.71 966.993 1477.28 Q968.822 1480.82 972.433 1480.82 Q976.067 1480.82 977.873 1477.28 Q979.701 1473.71 979.701 1466.61 Q979.701 1459.48 977.873 1455.94 Q976.067 1452.37 972.433 1452.37 M972.433 1448.67 Q978.243 1448.67 981.298 1453.27 Q984.377 1457.86 984.377 1466.61 Q984.377 1475.33 981.298 1479.94 Q978.243 1484.52 972.433 1484.52 Q966.623 1484.52 963.544 1479.94 Q960.488 1475.33 960.488 1466.61 Q960.488 1457.86 963.544 1453.27 Q966.623 1448.67 972.433 1448.67 Z" fill="#000000" fill-rule="evenodd" fill-opacity="1" /><path clip-path="url(#clip650)" d="M 0 0 M1522.34 1479.92 L1538.66 1479.92 L1538.66 1483.85 L1516.72 1483.85 L1516.72 1479.92 Q1519.38 1477.16 1523.96 1472.53 Q1528.57 1467.88 1529.75 1466.54 Q1531.99 1464.01 1532.87 1462.28 Q1533.78 1460.52 1533.78 1458.83 Q1533.78 1456.07 1531.83 1454.34 Q1529.91 1452.6 1526.81 1452.6 Q1524.61 1452.6 1522.16 1453.37 Q1519.73 1454.13 1516.95 1455.68 L1516.95 1450.96 Q1519.77 1449.82 1522.23 1449.25 Q1524.68 1448.67 1526.72 1448.67 Q1532.09 1448.67 1535.28 1451.35 Q1538.48 1454.04 1538.48 1458.53 Q1538.48 1460.66 1537.67 1462.58 Q1536.88 1464.48 1534.77 1467.07 Q1534.19 1467.74 1531.09 1470.96 Q1527.99 1474.15 1522.34 1479.92 Z" fill="#000000" fill-rule="evenodd" fill-opacity="1" /><path clip-path="url(#clip650)" d="M 0 0 M1553.73 1452.37 Q1550.12 1452.37 1548.29 1455.94 Q1546.49 1459.48 1546.49 1466.61 Q1546.49 1473.71 1548.29 1477.28 Q1550.12 1480.82 1553.73 1480.82 Q1557.36 1480.82 1559.17 1477.28 Q1561 1473.71 1561 1466.61 Q1561 1459.48 1559.17 1455.94 Q1557.36 1452.37 1553.73 1452.37 M1553.73 1448.67 Q1559.54 1448.67 1562.6 1453.27 Q1565.67 1457.86 1565.67 1466.61 Q1565.67 1475.33 1562.6 1479.94 Q1559.54 1484.52 1553.73 1484.52 Q1547.92 1484.52 1544.84 1479.94 Q1541.79 1475.33 1541.79 1466.61 Q1541.79 1457.86 1544.84 1453.27 Q1547.92 1448.67 1553.73 1448.67 Z" fill="#000000" fill-rule="evenodd" fill-opacity="1" /><path clip-path="url(#clip650)" d="M 0 0 M2112.55 1465.22 Q2115.91 1465.94 2117.78 1468.2 Q2119.68 1470.47 2119.68 1473.81 Q2119.68 1478.92 2116.16 1481.72 Q2112.64 1484.52 2106.16 1484.52 Q2103.99 1484.52 2101.67 1484.08 Q2099.38 1483.67 2096.93 1482.81 L2096.93 1478.3 Q2098.87 1479.43 2101.19 1480.01 Q2103.5 1480.59 2106.02 1480.59 Q2110.42 1480.59 2112.71 1478.85 Q2115.03 1477.12 2115.03 1473.81 Q2115.03 1470.75 2112.88 1469.04 Q2110.75 1467.3 2106.93 1467.3 L2102.9 1467.3 L2102.9 1463.46 L2107.11 1463.46 Q2110.56 1463.46 2112.39 1462.09 Q2114.22 1460.7 2114.22 1458.11 Q2114.22 1455.45 2112.32 1454.04 Q2110.44 1452.6 2106.93 1452.6 Q2105.01 1452.6 2102.81 1453.02 Q2100.61 1453.44 2097.97 1454.31 L2097.97 1450.15 Q2100.63 1449.41 2102.94 1449.04 Q2105.28 1448.67 2107.34 1448.67 Q2112.67 1448.67 2115.77 1451.1 Q2118.87 1453.5 2118.87 1457.63 Q2118.87 1460.5 2117.23 1462.49 Q2115.58 1464.45 2112.55 1465.22 Z" fill="#000000" fill-rule="evenodd" fill-opacity="1" /><path clip-path="url(#clip650)" d="M 0 0 M2134.75 1452.37 Q2131.14 1452.37 2129.31 1455.94 Q2127.5 1459.48 2127.5 1466.61 Q2127.5 1473.71 2129.31 1477.28 Q2131.14 1480.82 2134.75 1480.82 Q2138.38 1480.82 2140.19 1477.28 Q2142.02 1473.71 2142.02 1466.61 Q2142.02 1459.48 2140.19 1455.94 Q2138.38 1452.37 2134.75 1452.37 M2134.75 1448.67 Q2140.56 1448.67 2143.62 1453.27 Q2146.69 1457.86 2146.69 1466.61 Q2146.69 1475.33 2143.62 1479.94 Q2140.56 1484.52 2134.75 1484.52 Q2128.94 1484.52 2125.86 1479.94 Q2122.81 1475.33 2122.81 1466.61 Q2122.81 1457.86 2125.86 1453.27 Q2128.94 1448.67 2134.75 1448.67 Z" fill="#000000" fill-rule="evenodd" fill-opacity="1" /><path clip-path="url(#clip650)" d="M 0 0 M1298.89 1562.7 L1298.89 1581.6 L1293 1581.6 L1293 1532.4 L1298.89 1532.4 L1298.89 1537.81 Q1300.74 1534.62 1303.54 1533.1 Q1306.37 1531.54 1310.29 1531.54 Q1316.78 1531.54 1320.82 1536.69 Q1324.9 1541.85 1324.9 1550.25 Q1324.9 1558.65 1320.82 1563.81 Q1316.78 1568.97 1310.29 1568.97 Q1306.37 1568.97 1303.54 1567.44 Q1300.74 1565.88 1298.89 1562.7 M1318.82 1550.25 Q1318.82 1543.79 1316.14 1540.13 Q1313.5 1536.44 1308.85 1536.44 Q1304.21 1536.44 1301.53 1540.13 Q1298.89 1543.79 1298.89 1550.25 Q1298.89 1556.71 1301.53 1560.4 Q1304.21 1564.07 1308.85 1564.07 Q1313.5 1564.07 1316.14 1560.4 Q1318.82 1556.71 1318.82 1550.25 Z" fill="#000000" fill-rule="evenodd" fill-opacity="1" /><polyline clip-path="url(#clip652)" style="stroke:#000000; stroke-width:2; stroke-opacity:0.1; fill:none" points="
  265.144,1384.24 2352.76,1384.24 
  "/>
<polyline clip-path="url(#clip652)" style="stroke:#000000; stroke-width:2; stroke-opacity:0.1; fill:none" points="
  265.144,1114.63 2352.76,1114.63 
  "/>
<polyline clip-path="url(#clip652)" style="stroke:#000000; stroke-width:2; stroke-opacity:0.1; fill:none" points="
  265.144,845.028 2352.76,845.028 
  "/>
<polyline clip-path="url(#clip652)" style="stroke:#000000; stroke-width:2; stroke-opacity:0.1; fill:none" points="
  265.144,575.422 2352.76,575.422 
  "/>
<polyline clip-path="url(#clip652)" style="stroke:#000000; stroke-width:2; stroke-opacity:0.1; fill:none" points="
  265.144,305.817 2352.76,305.817 
  "/>
<polyline clip-path="url(#clip650)" style="stroke:#000000; stroke-width:4; stroke-opacity:1; fill:none" points="
  265.144,1423.18 265.144,47.2441 
  "/>
<polyline clip-path="url(#clip650)" style="stroke:#000000; stroke-width:4; stroke-opacity:1; fill:none" points="
  265.144,1384.24 290.195,1384.24 
  "/>
<polyline clip-path="url(#clip650)" style="stroke:#000000; stroke-width:4; stroke-opacity:1; fill:none" points="
  265.144,1114.63 290.195,1114.63 
  "/>
<polyline clip-path="url(#clip650)" style="stroke:#000000; stroke-width:4; stroke-opacity:1; fill:none" points="
  265.144,845.028 290.195,845.028 
  "/>
<polyline clip-path="url(#clip650)" style="stroke:#000000; stroke-width:4; stroke-opacity:1; fill:none" points="
  265.144,575.422 290.195,575.422 
  "/>
<polyline clip-path="url(#clip650)" style="stroke:#000000; stroke-width:4; stroke-opacity:1; fill:none" points="
  265.144,305.817 290.195,305.817 
  "/>
<path clip-path="url(#clip650)" d="M 0 0 M126.205 1370.04 Q122.593 1370.04 120.765 1373.6 Q118.959 1377.14 118.959 1384.27 Q118.959 1391.38 120.765 1394.94 Q122.593 1398.49 126.205 1398.49 Q129.839 1398.49 131.644 1394.94 Q133.473 1391.38 133.473 1384.27 Q133.473 1377.14 131.644 1373.6 Q129.839 1370.04 126.205 1370.04 M126.205 1366.33 Q132.015 1366.33 135.07 1370.94 Q138.149 1375.52 138.149 1384.27 Q138.149 1393 135.07 1397.61 Q132.015 1402.19 126.205 1402.19 Q120.394 1402.19 117.316 1397.61 Q114.26 1393 114.26 1384.27 Q114.26 1375.52 117.316 1370.94 Q120.394 1366.33 126.205 1366.33 Z" fill="#000000" fill-rule="evenodd" fill-opacity="1" /><path clip-path="url(#clip650)" d="M 0 0 M143.218 1395.64 L148.103 1395.64 L148.103 1401.52 L143.218 1401.52 L143.218 1395.64 Z" fill="#000000" fill-rule="evenodd" fill-opacity="1" /><path clip-path="url(#clip650)" d="M 0 0 M163.172 1370.04 Q159.561 1370.04 157.732 1373.6 Q155.927 1377.14 155.927 1384.27 Q155.927 1391.38 157.732 1394.94 Q159.561 1398.49 163.172 1398.49 Q166.806 1398.49 168.612 1394.94 Q170.44 1391.38 170.44 1384.27 Q170.44 1377.14 168.612 1373.6 Q166.806 1370.04 163.172 1370.04 M163.172 1366.33 Q168.982 1366.33 172.038 1370.94 Q175.116 1375.52 175.116 1384.27 Q175.116 1393 172.038 1397.61 Q168.982 1402.19 163.172 1402.19 Q157.362 1402.19 154.283 1397.61 Q151.228 1393 151.228 1384.27 Q151.228 1375.52 154.283 1370.94 Q157.362 1366.33 163.172 1366.33 Z" fill="#000000" fill-rule="evenodd" fill-opacity="1" /><path clip-path="url(#clip650)" d="M 0 0 M190.186 1370.04 Q186.575 1370.04 184.746 1373.6 Q182.94 1377.14 182.94 1384.27 Q182.94 1391.38 184.746 1394.94 Q186.575 1398.49 190.186 1398.49 Q193.82 1398.49 195.625 1394.94 Q197.454 1391.38 197.454 1384.27 Q197.454 1377.14 195.625 1373.6 Q193.82 1370.04 190.186 1370.04 M190.186 1366.33 Q195.996 1366.33 199.051 1370.94 Q202.13 1375.52 202.13 1384.27 Q202.13 1393 199.051 1397.61 Q195.996 1402.19 190.186 1402.19 Q184.376 1402.19 181.297 1397.61 Q178.241 1393 178.241 1384.27 Q178.241 1375.52 181.297 1370.94 Q184.376 1366.33 190.186 1366.33 Z" fill="#000000" fill-rule="evenodd" fill-opacity="1" /><path clip-path="url(#clip650)" d="M 0 0 M217.199 1370.04 Q213.588 1370.04 211.76 1373.6 Q209.954 1377.14 209.954 1384.27 Q209.954 1391.38 211.76 1394.94 Q213.588 1398.49 217.199 1398.49 Q220.834 1398.49 222.639 1394.94 Q224.468 1391.38 224.468 1384.27 Q224.468 1377.14 222.639 1373.6 Q220.834 1370.04 217.199 1370.04 M217.199 1366.33 Q223.01 1366.33 226.065 1370.94 Q229.144 1375.52 229.144 1384.27 Q229.144 1393 226.065 1397.61 Q223.01 1402.19 217.199 1402.19 Q211.389 1402.19 208.311 1397.61 Q205.255 1393 205.255 1384.27 Q205.255 1375.52 208.311 1370.94 Q211.389 1366.33 217.199 1366.33 Z" fill="#000000" fill-rule="evenodd" fill-opacity="1" /><path clip-path="url(#clip650)" d="M 0 0 M128.797 1100.43 Q125.186 1100.43 123.357 1104 Q121.552 1107.54 121.552 1114.67 Q121.552 1121.77 123.357 1125.34 Q125.186 1128.88 128.797 1128.88 Q132.431 1128.88 134.237 1125.34 Q136.066 1121.77 136.066 1114.67 Q136.066 1107.54 134.237 1104 Q132.431 1100.43 128.797 1100.43 M128.797 1096.73 Q134.607 1096.73 137.663 1101.33 Q140.741 1105.92 140.741 1114.67 Q140.741 1123.39 137.663 1128 Q134.607 1132.58 128.797 1132.58 Q122.987 1132.58 119.908 1128 Q116.853 1123.39 116.853 1114.67 Q116.853 1105.92 119.908 1101.33 Q122.987 1096.73 128.797 1096.73 Z" fill="#000000" fill-rule="evenodd" fill-opacity="1" /><path clip-path="url(#clip650)" d="M 0 0 M145.811 1126.03 L150.695 1126.03 L150.695 1131.91 L145.811 1131.91 L145.811 1126.03 Z" fill="#000000" fill-rule="evenodd" fill-opacity="1" /><path clip-path="url(#clip650)" d="M 0 0 M165.765 1100.43 Q162.153 1100.43 160.325 1104 Q158.519 1107.54 158.519 1114.67 Q158.519 1121.77 160.325 1125.34 Q162.153 1128.88 165.765 1128.88 Q169.399 1128.88 171.204 1125.34 Q173.033 1121.77 173.033 1114.67 Q173.033 1107.54 171.204 1104 Q169.399 1100.43 165.765 1100.43 M165.765 1096.73 Q171.575 1096.73 174.63 1101.33 Q177.709 1105.92 177.709 1114.67 Q177.709 1123.39 174.63 1128 Q171.575 1132.58 165.765 1132.58 Q159.954 1132.58 156.876 1128 Q153.82 1123.39 153.82 1114.67 Q153.82 1105.92 156.876 1101.33 Q159.954 1096.73 165.765 1096.73 Z" fill="#000000" fill-rule="evenodd" fill-opacity="1" /><path clip-path="url(#clip650)" d="M 0 0 M186.806 1127.98 L203.125 1127.98 L203.125 1131.91 L181.181 1131.91 L181.181 1127.98 Q183.843 1125.22 188.426 1120.59 Q193.033 1115.94 194.213 1114.6 Q196.459 1112.08 197.338 1110.34 Q198.241 1108.58 198.241 1106.89 Q198.241 1104.14 196.297 1102.4 Q194.375 1100.66 191.274 1100.66 Q189.075 1100.66 186.621 1101.43 Q184.19 1102.19 181.413 1103.74 L181.413 1099.02 Q184.237 1097.89 186.69 1097.31 Q189.144 1096.73 191.181 1096.73 Q196.551 1096.73 199.746 1099.41 Q202.94 1102.1 202.94 1106.59 Q202.94 1108.72 202.13 1110.64 Q201.343 1112.54 199.237 1115.13 Q198.658 1115.8 195.556 1119.02 Q192.454 1122.21 186.806 1127.98 Z" fill="#000000" fill-rule="evenodd" fill-opacity="1" /><path clip-path="url(#clip650)" d="M 0 0 M208.241 1097.35 L226.598 1097.35 L226.598 1101.29 L212.524 1101.29 L212.524 1109.76 Q213.542 1109.41 214.561 1109.25 Q215.579 1109.07 216.598 1109.07 Q222.385 1109.07 225.764 1112.24 Q229.144 1115.41 229.144 1120.83 Q229.144 1126.4 225.672 1129.51 Q222.199 1132.58 215.88 1132.58 Q213.704 1132.58 211.436 1132.21 Q209.19 1131.84 206.783 1131.1 L206.783 1126.4 Q208.866 1127.54 211.088 1128.09 Q213.311 1128.65 215.787 1128.65 Q219.792 1128.65 222.13 1126.54 Q224.468 1124.44 224.468 1120.83 Q224.468 1117.21 222.13 1115.11 Q219.792 1113 215.787 1113 Q213.912 1113 212.037 1113.42 Q210.186 1113.83 208.241 1114.71 L208.241 1097.35 Z" fill="#000000" fill-rule="evenodd" fill-opacity="1" /><path clip-path="url(#clip650)" d="M 0 0 M127.2 830.826 Q123.589 830.826 121.76 834.391 Q119.955 837.933 119.955 845.062 Q119.955 852.169 121.76 855.734 Q123.589 859.275 127.2 859.275 Q130.834 859.275 132.64 855.734 Q134.468 852.169 134.468 845.062 Q134.468 837.933 132.64 834.391 Q130.834 830.826 127.2 830.826 M127.2 827.123 Q133.01 827.123 136.066 831.729 Q139.144 836.312 139.144 845.062 Q139.144 853.789 136.066 858.396 Q133.01 862.979 127.2 862.979 Q121.39 862.979 118.311 858.396 Q115.256 853.789 115.256 845.062 Q115.256 836.312 118.311 831.729 Q121.39 827.123 127.2 827.123 Z" fill="#000000" fill-rule="evenodd" fill-opacity="1" /><path clip-path="url(#clip650)" d="M 0 0 M144.214 856.428 L149.098 856.428 L149.098 862.308 L144.214 862.308 L144.214 856.428 Z" fill="#000000" fill-rule="evenodd" fill-opacity="1" /><path clip-path="url(#clip650)" d="M 0 0 M164.167 830.826 Q160.556 830.826 158.728 834.391 Q156.922 837.933 156.922 845.062 Q156.922 852.169 158.728 855.734 Q160.556 859.275 164.167 859.275 Q167.802 859.275 169.607 855.734 Q171.436 852.169 171.436 845.062 Q171.436 837.933 169.607 834.391 Q167.802 830.826 164.167 830.826 M164.167 827.123 Q169.977 827.123 173.033 831.729 Q176.112 836.312 176.112 845.062 Q176.112 853.789 173.033 858.396 Q169.977 862.979 164.167 862.979 Q158.357 862.979 155.278 858.396 Q152.223 853.789 152.223 845.062 Q152.223 836.312 155.278 831.729 Q158.357 827.123 164.167 827.123 Z" fill="#000000" fill-rule="evenodd" fill-opacity="1" /><path clip-path="url(#clip650)" d="M 0 0 M181.227 827.748 L199.584 827.748 L199.584 831.683 L185.51 831.683 L185.51 840.155 Q186.528 839.808 187.547 839.646 Q188.565 839.461 189.584 839.461 Q195.371 839.461 198.75 842.632 Q202.13 845.803 202.13 851.22 Q202.13 856.798 198.658 859.9 Q195.186 862.979 188.866 862.979 Q186.69 862.979 184.422 862.609 Q182.176 862.238 179.769 861.497 L179.769 856.798 Q181.852 857.933 184.075 858.488 Q186.297 859.044 188.774 859.044 Q192.778 859.044 195.116 856.937 Q197.454 854.831 197.454 851.22 Q197.454 847.609 195.116 845.502 Q192.778 843.396 188.774 843.396 Q186.899 843.396 185.024 843.812 Q183.172 844.229 181.227 845.109 L181.227 827.748 Z" fill="#000000" fill-rule="evenodd" fill-opacity="1" /><path clip-path="url(#clip650)" d="M 0 0 M217.199 830.826 Q213.588 830.826 211.76 834.391 Q209.954 837.933 209.954 845.062 Q209.954 852.169 211.76 855.734 Q213.588 859.275 217.199 859.275 Q220.834 859.275 222.639 855.734 Q224.468 852.169 224.468 845.062 Q224.468 837.933 222.639 834.391 Q220.834 830.826 217.199 830.826 M217.199 827.123 Q223.01 827.123 226.065 831.729 Q229.144 836.312 229.144 845.062 Q229.144 853.789 226.065 858.396 Q223.01 862.979 217.199 862.979 Q211.389 862.979 208.311 858.396 Q205.255 853.789 205.255 845.062 Q205.255 836.312 208.311 831.729 Q211.389 827.123 217.199 827.123 Z" fill="#000000" fill-rule="evenodd" fill-opacity="1" /><path clip-path="url(#clip650)" d="M 0 0 M128.103 561.221 Q124.492 561.221 122.663 564.786 Q120.857 568.327 120.857 575.457 Q120.857 582.563 122.663 586.128 Q124.492 589.67 128.103 589.67 Q131.737 589.67 133.542 586.128 Q135.371 582.563 135.371 575.457 Q135.371 568.327 133.542 564.786 Q131.737 561.221 128.103 561.221 M128.103 557.517 Q133.913 557.517 136.968 562.124 Q140.047 566.707 140.047 575.457 Q140.047 584.184 136.968 588.79 Q133.913 593.374 128.103 593.374 Q122.293 593.374 119.214 588.79 Q116.158 584.184 116.158 575.457 Q116.158 566.707 119.214 562.124 Q122.293 557.517 128.103 557.517 Z" fill="#000000" fill-rule="evenodd" fill-opacity="1" /><path clip-path="url(#clip650)" d="M 0 0 M145.116 586.823 L150.001 586.823 L150.001 592.702 L145.116 592.702 L145.116 586.823 Z" fill="#000000" fill-rule="evenodd" fill-opacity="1" /><path clip-path="url(#clip650)" d="M 0 0 M165.07 561.221 Q161.459 561.221 159.63 564.786 Q157.825 568.327 157.825 575.457 Q157.825 582.563 159.63 586.128 Q161.459 589.67 165.07 589.67 Q168.704 589.67 170.51 586.128 Q172.339 582.563 172.339 575.457 Q172.339 568.327 170.51 564.786 Q168.704 561.221 165.07 561.221 M165.07 557.517 Q170.88 557.517 173.936 562.124 Q177.014 566.707 177.014 575.457 Q177.014 584.184 173.936 588.79 Q170.88 593.374 165.07 593.374 Q159.26 593.374 156.181 588.79 Q153.126 584.184 153.126 575.457 Q153.126 566.707 156.181 562.124 Q159.26 557.517 165.07 557.517 Z" fill="#000000" fill-rule="evenodd" fill-opacity="1" /><path clip-path="url(#clip650)" d="M 0 0 M180.903 558.142 L203.125 558.142 L203.125 560.133 L190.579 592.702 L185.695 592.702 L197.5 562.077 L180.903 562.077 L180.903 558.142 Z" fill="#000000" fill-rule="evenodd" fill-opacity="1" /><path clip-path="url(#clip650)" d="M 0 0 M208.241 558.142 L226.598 558.142 L226.598 562.077 L212.524 562.077 L212.524 570.55 Q213.542 570.202 214.561 570.04 Q215.579 569.855 216.598 569.855 Q222.385 569.855 225.764 573.026 Q229.144 576.198 229.144 581.614 Q229.144 587.193 225.672 590.295 Q222.199 593.374 215.88 593.374 Q213.704 593.374 211.436 593.003 Q209.19 592.633 206.783 591.892 L206.783 587.193 Q208.866 588.327 211.088 588.883 Q213.311 589.438 215.787 589.438 Q219.792 589.438 222.13 587.332 Q224.468 585.225 224.468 581.614 Q224.468 578.003 222.13 575.897 Q219.792 573.79 215.787 573.79 Q213.912 573.79 212.037 574.207 Q210.186 574.624 208.241 575.503 L208.241 558.142 Z" fill="#000000" fill-rule="evenodd" fill-opacity="1" /><path clip-path="url(#clip650)" d="M 0 0 M127.431 291.616 Q123.82 291.616 121.992 295.18 Q120.186 298.722 120.186 305.852 Q120.186 312.958 121.992 316.523 Q123.82 320.065 127.431 320.065 Q131.066 320.065 132.871 316.523 Q134.7 312.958 134.7 305.852 Q134.7 298.722 132.871 295.18 Q131.066 291.616 127.431 291.616 M127.431 287.912 Q133.242 287.912 136.297 292.518 Q139.376 297.102 139.376 305.852 Q139.376 314.578 136.297 319.185 Q133.242 323.768 127.431 323.768 Q121.621 323.768 118.543 319.185 Q115.487 314.578 115.487 305.852 Q115.487 297.102 118.543 292.518 Q121.621 287.912 127.431 287.912 Z" fill="#000000" fill-rule="evenodd" fill-opacity="1" /><path clip-path="url(#clip650)" d="M 0 0 M144.445 317.217 L149.329 317.217 L149.329 323.097 L144.445 323.097 L144.445 317.217 Z" fill="#000000" fill-rule="evenodd" fill-opacity="1" /><path clip-path="url(#clip650)" d="M 0 0 M155.209 319.162 L162.848 319.162 L162.848 292.796 L154.538 294.463 L154.538 290.204 L162.802 288.537 L167.477 288.537 L167.477 319.162 L175.116 319.162 L175.116 323.097 L155.209 323.097 L155.209 319.162 Z" fill="#000000" fill-rule="evenodd" fill-opacity="1" /><path clip-path="url(#clip650)" d="M 0 0 M190.186 291.616 Q186.575 291.616 184.746 295.18 Q182.94 298.722 182.94 305.852 Q182.94 312.958 184.746 316.523 Q186.575 320.065 190.186 320.065 Q193.82 320.065 195.625 316.523 Q197.454 312.958 197.454 305.852 Q197.454 298.722 195.625 295.18 Q193.82 291.616 190.186 291.616 M190.186 287.912 Q195.996 287.912 199.051 292.518 Q202.13 297.102 202.13 305.852 Q202.13 314.578 199.051 319.185 Q195.996 323.768 190.186 323.768 Q184.376 323.768 181.297 319.185 Q178.241 314.578 178.241 305.852 Q178.241 297.102 181.297 292.518 Q184.376 287.912 190.186 287.912 Z" fill="#000000" fill-rule="evenodd" fill-opacity="1" /><path clip-path="url(#clip650)" d="M 0 0 M217.199 291.616 Q213.588 291.616 211.76 295.18 Q209.954 298.722 209.954 305.852 Q209.954 312.958 211.76 316.523 Q213.588 320.065 217.199 320.065 Q220.834 320.065 222.639 316.523 Q224.468 312.958 224.468 305.852 Q224.468 298.722 222.639 295.18 Q220.834 291.616 217.199 291.616 M217.199 287.912 Q223.01 287.912 226.065 292.518 Q229.144 297.102 229.144 305.852 Q229.144 314.578 226.065 319.185 Q223.01 323.768 217.199 323.768 Q211.389 323.768 208.311 319.185 Q205.255 314.578 205.255 305.852 Q205.255 297.102 208.311 292.518 Q211.389 287.912 217.199 287.912 Z" fill="#000000" fill-rule="evenodd" fill-opacity="1" /><path clip-path="url(#clip650)" d="M 0 0 M21.7677 783.05 L39.6235 783.05 L39.6235 774.966 Q39.6235 770.478 37.3 768.027 Q34.9765 765.576 30.6797 765.576 Q26.4147 765.576 24.0912 768.027 Q21.7677 770.478 21.7677 774.966 L21.7677 783.05 M16.4842 789.48 L16.4842 774.966 Q16.4842 766.977 20.1126 762.903 Q23.7092 758.797 30.6797 758.797 Q37.7138 758.797 41.3104 762.903 Q44.907 766.977 44.907 774.966 L44.907 783.05 L64.0042 783.05 L64.0042 789.48 L16.4842 789.48 Z" fill="#000000" fill-rule="evenodd" fill-opacity="1" /><path clip-path="url(#clip650)" d="M 0 0 M14.5426 738.586 Q21.8632 742.851 29.0246 744.92 Q36.186 746.989 43.5384 746.989 Q50.8908 746.989 58.1159 744.92 Q65.3091 742.819 72.5979 738.586 L72.5979 743.678 Q65.1182 748.453 57.8931 750.84 Q50.668 753.195 43.5384 753.195 Q36.4406 753.195 29.2474 750.84 Q22.0542 748.484 14.5426 743.678 L14.5426 738.586 Z" fill="#000000" fill-rule="evenodd" fill-opacity="1" /><path clip-path="url(#clip650)" d="M 0 0 M58.657 726.777 L77.5631 726.777 L77.5631 732.666 L28.3562 732.666 L28.3562 726.777 L33.7671 726.777 Q30.5842 724.931 29.0564 722.13 Q27.4968 719.298 27.4968 715.383 Q27.4968 708.89 32.6531 704.848 Q37.8093 700.773 46.212 700.773 Q54.6147 700.773 59.771 704.848 Q64.9272 708.89 64.9272 715.383 Q64.9272 719.298 63.3994 722.13 Q61.8398 724.931 58.657 726.777 M46.212 706.853 Q39.7508 706.853 36.0905 709.526 Q32.3984 712.168 32.3984 716.815 Q32.3984 721.462 36.0905 724.136 Q39.7508 726.777 46.212 726.777 Q52.6732 726.777 56.3653 724.136 Q60.0256 721.462 60.0256 716.815 Q60.0256 712.168 56.3653 709.526 Q52.6732 706.853 46.212 706.853 Z" fill="#000000" fill-rule="evenodd" fill-opacity="1" /><path clip-path="url(#clip650)" d="M 0 0 M14.5426 695.554 L14.5426 690.461 Q22.0542 685.687 29.2474 683.331 Q36.4406 680.944 43.5384 680.944 Q50.668 680.944 57.8931 683.331 Q65.1182 685.687 72.5979 690.461 L72.5979 695.554 Q65.3091 691.32 58.1159 689.252 Q50.8908 687.151 43.5384 687.151 Q36.186 687.151 29.0246 689.252 Q21.8632 691.32 14.5426 695.554 Z" fill="#000000" fill-rule="evenodd" fill-opacity="1" /><path clip-path="url(#clip652)" d="
M379.966 166.161 L379.966 1384.24 L438.028 1384.24 L438.028 166.161 L379.966 166.161 L379.966 166.161  Z
  " fill="#009af9" fill-rule="evenodd" fill-opacity="1"/>
<polyline clip-path="url(#clip652)" style="stroke:#000000; stroke-width:4; stroke-opacity:1; fill:none" points="
  379.966,166.161 379.966,1384.24 438.028,1384.24 438.028,166.161 379.966,166.161 
  "/>
<path clip-path="url(#clip652)" d="
M438.028 244.412 L438.028 1384.24 L496.089 1384.24 L496.089 244.412 L438.028 244.412 L438.028 244.412  Z
  " fill="#009af9" fill-rule="evenodd" fill-opacity="1"/>
<polyline clip-path="url(#clip652)" style="stroke:#000000; stroke-width:4; stroke-opacity:1; fill:none" points="
  438.028,244.412 438.028,1384.24 496.089,1384.24 496.089,244.412 438.028,244.412 
  "/>
<path clip-path="url(#clip652)" d="
M496.089 107.064 L496.089 1384.24 L554.151 1384.24 L554.151 107.064 L496.089 107.064 L496.089 107.064  Z
  " fill="#009af9" fill-rule="evenodd" fill-opacity="1"/>
<polyline clip-path="url(#clip652)" style="stroke:#000000; stroke-width:4; stroke-opacity:1; fill:none" points="
  496.089,107.064 496.089,1384.24 554.151,1384.24 554.151,107.064 496.089,107.064 
  "/>
<path clip-path="url(#clip652)" d="
M554.151 86.1857 L554.151 1384.24 L612.212 1384.24 L612.212 86.1857 L554.151 86.1857 L554.151 86.1857  Z
  " fill="#009af9" fill-rule="evenodd" fill-opacity="1"/>
<polyline clip-path="url(#clip652)" style="stroke:#000000; stroke-width:4; stroke-opacity:1; fill:none" points="
  554.151,86.1857 554.151,1384.24 612.212,1384.24 612.212,86.1857 554.151,86.1857 
  "/>
<path clip-path="url(#clip652)" d="
M612.212 178.52 L612.212 1384.24 L670.274 1384.24 L670.274 178.52 L612.212 178.52 L612.212 178.52  Z
  " fill="#009af9" fill-rule="evenodd" fill-opacity="1"/>
<polyline clip-path="url(#clip652)" style="stroke:#000000; stroke-width:4; stroke-opacity:1; fill:none" points="
  612.212,178.52 612.212,1384.24 670.274,1384.24 670.274,178.52 612.212,178.52 
  "/>
<path clip-path="url(#clip652)" d="
M670.274 332.907 L670.274 1384.24 L728.335 1384.24 L728.335 332.907 L670.274 332.907 L670.274 332.907  Z
  " fill="#009af9" fill-rule="evenodd" fill-opacity="1"/>
<polyline clip-path="url(#clip652)" style="stroke:#000000; stroke-width:4; stroke-opacity:1; fill:none" points="
  670.274,332.907 670.274,1384.24 728.335,1384.24 728.335,332.907 670.274,332.907 
  "/>
<path clip-path="url(#clip652)" d="
M728.335 503.901 L728.335 1384.24 L786.397 1384.24 L786.397 503.901 L728.335 503.901 L728.335 503.901  Z
  " fill="#009af9" fill-rule="evenodd" fill-opacity="1"/>
<polyline clip-path="url(#clip652)" style="stroke:#000000; stroke-width:4; stroke-opacity:1; fill:none" points="
  728.335,503.901 728.335,1384.24 786.397,1384.24 786.397,503.901 728.335,503.901 
  "/>
<path clip-path="url(#clip652)" d="
M786.397 671.531 L786.397 1384.24 L844.458 1384.24 L844.458 671.531 L786.397 671.531 L786.397 671.531  Z
  " fill="#009af9" fill-rule="evenodd" fill-opacity="1"/>
<polyline clip-path="url(#clip652)" style="stroke:#000000; stroke-width:4; stroke-opacity:1; fill:none" points="
  786.397,671.531 786.397,1384.24 844.458,1384.24 844.458,671.531 786.397,671.531 
  "/>
<path clip-path="url(#clip652)" d="
M844.458 820.806 L844.458 1384.24 L902.519 1384.24 L902.519 820.806 L844.458 820.806 L844.458 820.806  Z
  " fill="#009af9" fill-rule="evenodd" fill-opacity="1"/>
<polyline clip-path="url(#clip652)" style="stroke:#000000; stroke-width:4; stroke-opacity:1; fill:none" points="
  844.458,820.806 844.458,1384.24 902.519,1384.24 902.519,820.806 844.458,820.806 
  "/>
<path clip-path="url(#clip652)" d="
M902.519 968.679 L902.519 1384.24 L960.581 1384.24 L960.581 968.679 L902.519 968.679 L902.519 968.679  Z
  " fill="#009af9" fill-rule="evenodd" fill-opacity="1"/>
<polyline clip-path="url(#clip652)" style="stroke:#000000; stroke-width:4; stroke-opacity:1; fill:none" points="
  902.519,968.679 902.519,1384.24 960.581,1384.24 960.581,968.679 902.519,968.679 
  "/>
<path clip-path="url(#clip652)" d="
M960.581 1074.17 L960.581 1384.24 L1018.64 1384.24 L1018.64 1074.17 L960.581 1074.17 L960.581 1074.17  Z
  " fill="#009af9" fill-rule="evenodd" fill-opacity="1"/>
<polyline clip-path="url(#clip652)" style="stroke:#000000; stroke-width:4; stroke-opacity:1; fill:none" points="
  960.581,1074.17 960.581,1384.24 1018.64,1384.24 1018.64,1074.17 960.581,1074.17 
  "/>
<path clip-path="url(#clip652)" d="
M1018.64 1157.01 L1018.64 1384.24 L1076.7 1384.24 L1076.7 1157.01 L1018.64 1157.01 L1018.64 1157.01  Z
  " fill="#009af9" fill-rule="evenodd" fill-opacity="1"/>
<polyline clip-path="url(#clip652)" style="stroke:#000000; stroke-width:4; stroke-opacity:1; fill:none" points="
  1018.64,1157.01 1018.64,1384.24 1076.7,1384.24 1076.7,1157.01 1018.64,1157.01 
  "/>
<path clip-path="url(#clip652)" d="
M1076.7 1224.24 L1076.7 1384.24 L1134.77 1384.24 L1134.77 1224.24 L1076.7 1224.24 L1076.7 1224.24  Z
  " fill="#009af9" fill-rule="evenodd" fill-opacity="1"/>
<polyline clip-path="url(#clip652)" style="stroke:#000000; stroke-width:4; stroke-opacity:1; fill:none" points="
  1076.7,1224.24 1076.7,1384.24 1134.77,1384.24 1134.77,1224.24 1076.7,1224.24 
  "/>
<path clip-path="url(#clip652)" d="
M1134.77 1274.37 L1134.77 1384.24 L1192.83 1384.24 L1192.83 1274.37 L1134.77 1274.37 L1134.77 1274.37  Z
  " fill="#009af9" fill-rule="evenodd" fill-opacity="1"/>
<polyline clip-path="url(#clip652)" style="stroke:#000000; stroke-width:4; stroke-opacity:1; fill:none" points="
  1134.77,1274.37 1134.77,1384.24 1192.83,1384.24 1192.83,1274.37 1134.77,1274.37 
  "/>
<path clip-path="url(#clip652)" d="
M1192.83 1310.41 L1192.83 1384.24 L1250.89 1384.24 L1250.89 1310.41 L1192.83 1310.41 L1192.83 1310.41  Z
  " fill="#009af9" fill-rule="evenodd" fill-opacity="1"/>
<polyline clip-path="url(#clip652)" style="stroke:#000000; stroke-width:4; stroke-opacity:1; fill:none" points="
  1192.83,1310.41 1192.83,1384.24 1250.89,1384.24 1250.89,1310.41 1192.83,1310.41 
  "/>
<path clip-path="url(#clip652)" d="
M1250.89 1334.42 L1250.89 1384.24 L1308.95 1384.24 L1308.95 1334.42 L1250.89 1334.42 L1250.89 1334.42  Z
  " fill="#009af9" fill-rule="evenodd" fill-opacity="1"/>
<polyline clip-path="url(#clip652)" style="stroke:#000000; stroke-width:4; stroke-opacity:1; fill:none" points="
  1250.89,1334.42 1250.89,1384.24 1308.95,1384.24 1308.95,1334.42 1250.89,1334.42 
  "/>
<path clip-path="url(#clip652)" d="
M1308.95 1350.66 L1308.95 1384.24 L1367.01 1384.24 L1367.01 1350.66 L1308.95 1350.66 L1308.95 1350.66  Z
  " fill="#009af9" fill-rule="evenodd" fill-opacity="1"/>
<polyline clip-path="url(#clip652)" style="stroke:#000000; stroke-width:4; stroke-opacity:1; fill:none" points="
  1308.95,1350.66 1308.95,1384.24 1367.01,1384.24 1367.01,1350.66 1308.95,1350.66 
  "/>
<path clip-path="url(#clip652)" d="
M1367.01 1363.36 L1367.01 1384.24 L1425.07 1384.24 L1425.07 1363.36 L1367.01 1363.36 L1367.01 1363.36  Z
  " fill="#009af9" fill-rule="evenodd" fill-opacity="1"/>
<polyline clip-path="url(#clip652)" style="stroke:#000000; stroke-width:4; stroke-opacity:1; fill:none" points="
  1367.01,1363.36 1367.01,1384.24 1425.07,1384.24 1425.07,1363.36 1367.01,1363.36 
  "/>
<path clip-path="url(#clip652)" d="
M1425.07 1370.15 L1425.07 1384.24 L1483.13 1384.24 L1483.13 1370.15 L1425.07 1370.15 L1425.07 1370.15  Z
  " fill="#009af9" fill-rule="evenodd" fill-opacity="1"/>
<polyline clip-path="url(#clip652)" style="stroke:#000000; stroke-width:4; stroke-opacity:1; fill:none" points="
  1425.07,1370.15 1425.07,1384.24 1483.13,1384.24 1483.13,1370.15 1425.07,1370.15 
  "/>
<path clip-path="url(#clip652)" d="
M1483.13 1375.85 L1483.13 1384.24 L1541.2 1384.24 L1541.2 1375.85 L1483.13 1375.85 L1483.13 1375.85  Z
  " fill="#009af9" fill-rule="evenodd" fill-opacity="1"/>
<polyline clip-path="url(#clip652)" style="stroke:#000000; stroke-width:4; stroke-opacity:1; fill:none" points="
  1483.13,1375.85 1483.13,1384.24 1541.2,1384.24 1541.2,1375.85 1483.13,1375.85 
  "/>
<path clip-path="url(#clip652)" d="
M1541.2 1378.78 L1541.2 1384.24 L1599.26 1384.24 L1599.26 1378.78 L1541.2 1378.78 L1541.2 1378.78  Z
  " fill="#009af9" fill-rule="evenodd" fill-opacity="1"/>
<polyline clip-path="url(#clip652)" style="stroke:#000000; stroke-width:4; stroke-opacity:1; fill:none" points="
  1541.2,1378.78 1541.2,1384.24 1599.26,1384.24 1599.26,1378.78 1541.2,1378.78 
  "/>
<path clip-path="url(#clip652)" d="
M1599.26 1381.28 L1599.26 1384.24 L1657.32 1384.24 L1657.32 1381.28 L1599.26 1381.28 L1599.26 1381.28  Z
  " fill="#009af9" fill-rule="evenodd" fill-opacity="1"/>
<polyline clip-path="url(#clip652)" style="stroke:#000000; stroke-width:4; stroke-opacity:1; fill:none" points="
  1599.26,1381.28 1599.26,1384.24 1657.32,1384.24 1657.32,1381.28 1599.26,1381.28 
  "/>
<path clip-path="url(#clip652)" d="
M1657.32 1382.19 L1657.32 1384.24 L1715.38 1384.24 L1715.38 1382.19 L1657.32 1382.19 L1657.32 1382.19  Z
  " fill="#009af9" fill-rule="evenodd" fill-opacity="1"/>
<polyline clip-path="url(#clip652)" style="stroke:#000000; stroke-width:4; stroke-opacity:1; fill:none" points="
  1657.32,1382.19 1657.32,1384.24 1715.38,1384.24 1715.38,1382.19 1657.32,1382.19 
  "/>
<path clip-path="url(#clip652)" d="
M1715.38 1382.62 L1715.38 1384.24 L1773.44 1384.24 L1773.44 1382.62 L1715.38 1382.62 L1715.38 1382.62  Z
  " fill="#009af9" fill-rule="evenodd" fill-opacity="1"/>
<polyline clip-path="url(#clip652)" style="stroke:#000000; stroke-width:4; stroke-opacity:1; fill:none" points="
  1715.38,1382.62 1715.38,1384.24 1773.44,1384.24 1773.44,1382.62 1715.38,1382.62 
  "/>
<path clip-path="url(#clip652)" d="
M1773.44 1383.4 L1773.44 1384.24 L1831.5 1384.24 L1831.5 1383.4 L1773.44 1383.4 L1773.44 1383.4  Z
  " fill="#009af9" fill-rule="evenodd" fill-opacity="1"/>
<polyline clip-path="url(#clip652)" style="stroke:#000000; stroke-width:4; stroke-opacity:1; fill:none" points="
  1773.44,1383.4 1773.44,1384.24 1831.5,1384.24 1831.5,1383.4 1773.44,1383.4 
  "/>
<path clip-path="url(#clip652)" d="
M1831.5 1383.7 L1831.5 1384.24 L1889.56 1384.24 L1889.56 1383.7 L1831.5 1383.7 L1831.5 1383.7  Z
  " fill="#009af9" fill-rule="evenodd" fill-opacity="1"/>
<polyline clip-path="url(#clip652)" style="stroke:#000000; stroke-width:4; stroke-opacity:1; fill:none" points="
  1831.5,1383.7 1831.5,1384.24 1889.56,1384.24 1889.56,1383.7 1831.5,1383.7 
  "/>
<path clip-path="url(#clip652)" d="
M1889.56 1383.85 L1889.56 1384.24 L1947.63 1384.24 L1947.63 1383.85 L1889.56 1383.85 L1889.56 1383.85  Z
  " fill="#009af9" fill-rule="evenodd" fill-opacity="1"/>
<polyline clip-path="url(#clip652)" style="stroke:#000000; stroke-width:4; stroke-opacity:1; fill:none" points="
  1889.56,1383.85 1889.56,1384.24 1947.63,1384.24 1947.63,1383.85 1889.56,1383.85 
  "/>
<path clip-path="url(#clip652)" d="
M1947.63 1384.04 L1947.63 1384.24 L2005.69 1384.24 L2005.69 1384.04 L1947.63 1384.04 L1947.63 1384.04  Z
  " fill="#009af9" fill-rule="evenodd" fill-opacity="1"/>
<polyline clip-path="url(#clip652)" style="stroke:#000000; stroke-width:4; stroke-opacity:1; fill:none" points="
  1947.63,1384.04 1947.63,1384.24 2005.69,1384.24 2005.69,1384.04 1947.63,1384.04 
  "/>
<path clip-path="url(#clip652)" d="
M2005.69 1384.13 L2005.69 1384.24 L2063.75 1384.24 L2063.75 1384.13 L2005.69 1384.13 L2005.69 1384.13  Z
  " fill="#009af9" fill-rule="evenodd" fill-opacity="1"/>
<polyline clip-path="url(#clip652)" style="stroke:#000000; stroke-width:4; stroke-opacity:1; fill:none" points="
  2005.69,1384.13 2005.69,1384.24 2063.75,1384.24 2063.75,1384.13 2005.69,1384.13 
  "/>
<path clip-path="url(#clip652)" d="
M2063.75 1384.22 L2063.75 1384.24 L2121.81 1384.24 L2121.81 1384.22 L2063.75 1384.22 L2063.75 1384.22  Z
  " fill="#009af9" fill-rule="evenodd" fill-opacity="1"/>
<polyline clip-path="url(#clip652)" style="stroke:#000000; stroke-width:4; stroke-opacity:1; fill:none" points="
  2063.75,1384.22 2063.75,1384.24 2121.81,1384.24 2121.81,1384.22 2063.75,1384.22 
  "/>
<path clip-path="url(#clip652)" d="
M2121.81 1384.17 L2121.81 1384.24 L2179.87 1384.24 L2179.87 1384.17 L2121.81 1384.17 L2121.81 1384.17  Z
  " fill="#009af9" fill-rule="evenodd" fill-opacity="1"/>
<polyline clip-path="url(#clip652)" style="stroke:#000000; stroke-width:4; stroke-opacity:1; fill:none" points="
  2121.81,1384.17 2121.81,1384.24 2179.87,1384.24 2179.87,1384.17 2121.81,1384.17 
  "/>
<path clip-path="url(#clip652)" d="
M2179.87 1384.22 L2179.87 1384.24 L2237.93 1384.24 L2237.93 1384.22 L2179.87 1384.22 L2179.87 1384.22  Z
  " fill="#009af9" fill-rule="evenodd" fill-opacity="1"/>
<polyline clip-path="url(#clip652)" style="stroke:#000000; stroke-width:4; stroke-opacity:1; fill:none" points="
  2179.87,1384.22 2179.87,1384.24 2237.93,1384.24 2237.93,1384.22 2179.87,1384.22 
  "/>
<polyline clip-path="url(#clip652)" style="stroke:#e26f46; stroke-width:4; stroke-opacity:1; fill:none" points="
  641.243,2799.12 641.243,-1328.69 
  "/>
<polyline clip-path="url(#clip652)" style="stroke:#3da44d; stroke-width:4; stroke-opacity:1; fill:none" points="
  641.246,2799.12 641.246,-1328.69 
  "/>
<path clip-path="url(#clip650)" d="
M1693.46 335.029 L2283.17 335.029 L2283.17 93.1086 L1693.46 93.1086  Z
  " fill="#ffffff" fill-rule="evenodd" fill-opacity="1"/>
<polyline clip-path="url(#clip650)" style="stroke:#000000; stroke-width:4; stroke-opacity:1; fill:none" points="
  1693.46,335.029 2283.17,335.029 2283.17,93.1086 1693.46,93.1086 1693.46,335.029 
  "/>
<path clip-path="url(#clip650)" d="
M1716.65 177.781 L1855.83 177.781 L1855.83 129.397 L1716.65 129.397 L1716.65 177.781  Z
  " fill="#009af9" fill-rule="evenodd" fill-opacity="1"/>
<polyline clip-path="url(#clip650)" style="stroke:#000000; stroke-width:4; stroke-opacity:1; fill:none" points="
  1716.65,177.781 1855.83,177.781 1855.83,129.397 1716.65,129.397 1716.65,177.781 
  "/>
<path clip-path="url(#clip650)" d="M 0 0 M1892.87 173.276 Q1891.06 177.906 1889.35 179.318 Q1887.64 180.73 1884.77 180.73 L1881.36 180.73 L1881.36 177.165 L1883.86 177.165 Q1885.62 177.165 1886.59 176.332 Q1887.57 175.498 1888.75 172.396 L1889.51 170.452 L1879.02 144.943 L1883.54 144.943 L1891.64 165.221 L1899.74 144.943 L1904.26 144.943 L1892.87 173.276 Z" fill="#000000" fill-rule="evenodd" fill-opacity="1" /><path clip-path="url(#clip650)" d="M 0 0 M1910.14 166.933 L1917.77 166.933 L1917.77 140.568 L1909.46 142.235 L1909.46 137.975 L1917.73 136.309 L1922.4 136.309 L1922.4 166.933 L1930.04 166.933 L1930.04 170.869 L1910.14 170.869 L1910.14 166.933 Z" fill="#000000" fill-rule="evenodd" fill-opacity="1" /><polyline clip-path="url(#clip650)" style="stroke:#e26f46; stroke-width:4; stroke-opacity:1; fill:none" points="
  1716.65,214.069 1855.83,214.069 
  "/>
<path clip-path="url(#clip650)" d="M 0 0 M1886.43 198.062 L1886.43 205.423 L1895.21 205.423 L1895.21 208.733 L1886.43 208.733 L1886.43 222.807 Q1886.43 225.978 1887.29 226.881 Q1888.17 227.784 1890.83 227.784 L1895.21 227.784 L1895.21 231.349 L1890.83 231.349 Q1885.9 231.349 1884.02 229.52 Q1882.15 227.668 1882.15 222.807 L1882.15 208.733 L1879.02 208.733 L1879.02 205.423 L1882.15 205.423 L1882.15 198.062 L1886.43 198.062 Z" fill="#000000" fill-rule="evenodd" fill-opacity="1" /><path clip-path="url(#clip650)" d="M 0 0 M1921.22 215.701 L1921.22 231.349 L1916.96 231.349 L1916.96 215.839 Q1916.96 212.159 1915.53 210.33 Q1914.09 208.502 1911.22 208.502 Q1907.77 208.502 1905.78 210.701 Q1903.79 212.9 1903.79 216.696 L1903.79 231.349 L1899.51 231.349 L1899.51 195.33 L1903.79 195.33 L1903.79 209.451 Q1905.32 207.113 1907.38 205.955 Q1909.46 204.798 1912.17 204.798 Q1916.64 204.798 1918.93 207.576 Q1921.22 210.33 1921.22 215.701 Z" fill="#000000" fill-rule="evenodd" fill-opacity="1" /><path clip-path="url(#clip650)" d="M 0 0 M1947.87 217.321 L1947.87 219.404 L1928.28 219.404 Q1928.56 223.802 1930.92 226.117 Q1933.31 228.409 1937.54 228.409 Q1940 228.409 1942.29 227.807 Q1944.6 227.205 1946.87 226.001 L1946.87 230.029 Q1944.58 231.001 1942.17 231.511 Q1939.77 232.02 1937.29 232.02 Q1931.08 232.02 1927.45 228.409 Q1923.84 224.798 1923.84 218.64 Q1923.84 212.275 1927.27 208.548 Q1930.71 204.798 1936.55 204.798 Q1941.78 204.798 1944.81 208.177 Q1947.87 211.534 1947.87 217.321 M1943.61 216.071 Q1943.56 212.576 1941.64 210.492 Q1939.74 208.409 1936.59 208.409 Q1933.03 208.409 1930.88 210.423 Q1928.75 212.437 1928.42 216.094 L1943.61 216.071 Z" fill="#000000" fill-rule="evenodd" fill-opacity="1" /><path clip-path="url(#clip650)" d="M 0 0 M1962.38 208.409 Q1958.95 208.409 1956.96 211.094 Q1954.97 213.756 1954.97 218.409 Q1954.97 223.062 1956.94 225.747 Q1958.93 228.409 1962.38 228.409 Q1965.78 228.409 1967.77 225.724 Q1969.76 223.038 1969.76 218.409 Q1969.76 213.802 1967.77 211.117 Q1965.78 208.409 1962.38 208.409 M1962.38 204.798 Q1967.94 204.798 1971.11 208.409 Q1974.28 212.02 1974.28 218.409 Q1974.28 224.775 1971.11 228.409 Q1967.94 232.02 1962.38 232.02 Q1956.8 232.02 1953.63 228.409 Q1950.48 224.775 1950.48 218.409 Q1950.48 212.02 1953.63 208.409 Q1956.8 204.798 1962.38 204.798 Z" fill="#000000" fill-rule="evenodd" fill-opacity="1" /><path clip-path="url(#clip650)" d="M 0 0 M1993.77 209.404 Q1993.05 208.988 1992.2 208.802 Q1991.36 208.594 1990.34 208.594 Q1986.73 208.594 1984.79 210.955 Q1982.87 213.293 1982.87 217.691 L1982.87 231.349 L1978.58 231.349 L1978.58 205.423 L1982.87 205.423 L1982.87 209.451 Q1984.21 207.089 1986.36 205.955 Q1988.51 204.798 1991.59 204.798 Q1992.03 204.798 1992.57 204.867 Q1993.1 204.914 1993.75 205.029 L1993.77 209.404 Z" fill="#000000" fill-rule="evenodd" fill-opacity="1" /><path clip-path="url(#clip650)" d="M 0 0 M2019.37 217.321 L2019.37 219.404 L1999.79 219.404 Q2000.07 223.802 2002.43 226.117 Q2004.81 228.409 2009.05 228.409 Q2011.5 228.409 2013.79 227.807 Q2016.11 227.205 2018.38 226.001 L2018.38 230.029 Q2016.08 231.001 2013.68 231.511 Q2011.27 232.02 2008.79 232.02 Q2002.59 232.02 1998.95 228.409 Q1995.34 224.798 1995.34 218.64 Q1995.34 212.275 1998.77 208.548 Q2002.22 204.798 2008.05 204.798 Q2013.28 204.798 2016.32 208.177 Q2019.37 211.534 2019.37 217.321 M2015.11 216.071 Q2015.07 212.576 2013.14 210.492 Q2011.25 208.409 2008.1 208.409 Q2004.53 208.409 2002.38 210.423 Q2000.25 212.437 1999.93 216.094 L2015.11 216.071 Z" fill="#000000" fill-rule="evenodd" fill-opacity="1" /><path clip-path="url(#clip650)" d="M 0 0 M2028.05 198.062 L2028.05 205.423 L2036.82 205.423 L2036.82 208.733 L2028.05 208.733 L2028.05 222.807 Q2028.05 225.978 2028.91 226.881 Q2029.79 227.784 2032.45 227.784 L2036.82 227.784 L2036.82 231.349 L2032.45 231.349 Q2027.52 231.349 2025.64 229.52 Q2023.77 227.668 2023.77 222.807 L2023.77 208.733 L2020.64 208.733 L2020.64 205.423 L2023.77 205.423 L2023.77 198.062 L2028.05 198.062 Z" fill="#000000" fill-rule="evenodd" fill-opacity="1" /><path clip-path="url(#clip650)" d="M 0 0 M2041.29 205.423 L2045.55 205.423 L2045.55 231.349 L2041.29 231.349 L2041.29 205.423 M2041.29 195.33 L2045.55 195.33 L2045.55 200.724 L2041.29 200.724 L2041.29 195.33 Z" fill="#000000" fill-rule="evenodd" fill-opacity="1" /><path clip-path="url(#clip650)" d="M 0 0 M2068.68 206.418 L2068.68 210.4 Q2066.87 209.404 2065.04 208.918 Q2063.24 208.409 2061.38 208.409 Q2057.24 208.409 2054.95 211.048 Q2052.66 213.664 2052.66 218.409 Q2052.66 223.154 2054.95 225.793 Q2057.24 228.409 2061.38 228.409 Q2063.24 228.409 2065.04 227.923 Q2066.87 227.413 2068.68 226.418 L2068.68 230.353 Q2066.89 231.187 2064.97 231.603 Q2063.07 232.02 2060.92 232.02 Q2055.07 232.02 2051.62 228.339 Q2048.17 224.659 2048.17 218.409 Q2048.17 212.066 2051.64 208.432 Q2055.13 204.798 2061.2 204.798 Q2063.17 204.798 2065.04 205.215 Q2066.92 205.608 2068.68 206.418 Z" fill="#000000" fill-rule="evenodd" fill-opacity="1" /><path clip-path="url(#clip650)" d="M 0 0 M2084.93 218.316 Q2079.76 218.316 2077.77 219.497 Q2075.78 220.677 2075.78 223.525 Q2075.78 225.793 2077.26 227.136 Q2078.77 228.455 2081.34 228.455 Q2084.88 228.455 2087.01 225.955 Q2089.16 223.432 2089.16 219.265 L2089.16 218.316 L2084.93 218.316 M2093.42 216.557 L2093.42 231.349 L2089.16 231.349 L2089.16 227.413 Q2087.7 229.775 2085.53 230.909 Q2083.35 232.02 2080.2 232.02 Q2076.22 232.02 2073.86 229.798 Q2071.52 227.552 2071.52 223.802 Q2071.52 219.427 2074.44 217.205 Q2077.38 214.983 2083.19 214.983 L2089.16 214.983 L2089.16 214.566 Q2089.16 211.627 2087.22 210.029 Q2085.3 208.409 2081.8 208.409 Q2079.58 208.409 2077.47 208.941 Q2075.37 209.474 2073.42 210.539 L2073.42 206.603 Q2075.76 205.701 2077.96 205.261 Q2080.16 204.798 2082.24 204.798 Q2087.87 204.798 2090.64 207.714 Q2093.42 210.631 2093.42 216.557 Z" fill="#000000" fill-rule="evenodd" fill-opacity="1" /><path clip-path="url(#clip650)" d="M 0 0 M2097.89 195.33 L2102.15 195.33 L2102.15 231.349 L2097.89 231.349 L2097.89 195.33 Z" fill="#000000" fill-rule="evenodd" fill-opacity="1" /><path clip-path="url(#clip650)" d="M 0 0 M2141.87 210.4 Q2143.47 207.529 2145.69 206.164 Q2147.91 204.798 2150.92 204.798 Q2154.97 204.798 2157.17 207.645 Q2159.37 210.469 2159.37 215.701 L2159.37 231.349 L2155.09 231.349 L2155.09 215.839 Q2155.09 212.113 2153.77 210.307 Q2152.45 208.502 2149.74 208.502 Q2146.43 208.502 2144.51 210.701 Q2142.59 212.9 2142.59 216.696 L2142.59 231.349 L2138.31 231.349 L2138.31 215.839 Q2138.31 212.089 2136.99 210.307 Q2135.67 208.502 2132.91 208.502 Q2129.65 208.502 2127.73 210.724 Q2125.81 212.923 2125.81 216.696 L2125.81 231.349 L2121.52 231.349 L2121.52 205.423 L2125.81 205.423 L2125.81 209.451 Q2127.26 207.066 2129.3 205.932 Q2131.34 204.798 2134.14 204.798 Q2136.96 204.798 2138.93 206.233 Q2140.92 207.668 2141.87 210.4 Z" fill="#000000" fill-rule="evenodd" fill-opacity="1" /><path clip-path="url(#clip650)" d="M 0 0 M2186.01 217.321 L2186.01 219.404 L2166.43 219.404 Q2166.71 223.802 2169.07 226.117 Q2171.45 228.409 2175.69 228.409 Q2178.14 228.409 2180.44 227.807 Q2182.75 227.205 2185.02 226.001 L2185.02 230.029 Q2182.73 231.001 2180.32 231.511 Q2177.91 232.02 2175.44 232.02 Q2169.23 232.02 2165.6 228.409 Q2161.99 224.798 2161.99 218.64 Q2161.99 212.275 2165.41 208.548 Q2168.86 204.798 2174.69 204.798 Q2179.93 204.798 2182.96 208.177 Q2186.01 211.534 2186.01 217.321 M2181.75 216.071 Q2181.71 212.576 2179.79 210.492 Q2177.89 208.409 2174.74 208.409 Q2171.18 208.409 2169.02 210.423 Q2166.89 212.437 2166.57 216.094 L2181.75 216.071 Z" fill="#000000" fill-rule="evenodd" fill-opacity="1" /><path clip-path="url(#clip650)" d="M 0 0 M2202.26 218.316 Q2197.1 218.316 2195.11 219.497 Q2193.12 220.677 2193.12 223.525 Q2193.12 225.793 2194.6 227.136 Q2196.11 228.455 2198.68 228.455 Q2202.22 228.455 2204.35 225.955 Q2206.5 223.432 2206.5 219.265 L2206.5 218.316 L2202.26 218.316 M2210.76 216.557 L2210.76 231.349 L2206.5 231.349 L2206.5 227.413 Q2205.04 229.775 2202.87 230.909 Q2200.69 232.02 2197.54 232.02 Q2193.56 232.02 2191.2 229.798 Q2188.86 227.552 2188.86 223.802 Q2188.86 219.427 2191.78 217.205 Q2194.72 214.983 2200.53 214.983 L2206.5 214.983 L2206.5 214.566 Q2206.5 211.627 2204.56 210.029 Q2202.63 208.409 2199.14 208.409 Q2196.92 208.409 2194.81 208.941 Q2192.7 209.474 2190.76 210.539 L2190.76 206.603 Q2193.1 205.701 2195.3 205.261 Q2197.5 204.798 2199.58 204.798 Q2205.2 204.798 2207.98 207.714 Q2210.76 210.631 2210.76 216.557 Z" fill="#000000" fill-rule="evenodd" fill-opacity="1" /><path clip-path="url(#clip650)" d="M 0 0 M2236.78 215.701 L2236.78 231.349 L2232.52 231.349 L2232.52 215.839 Q2232.52 212.159 2231.08 210.33 Q2229.65 208.502 2226.78 208.502 Q2223.33 208.502 2221.34 210.701 Q2219.35 212.9 2219.35 216.696 L2219.35 231.349 L2215.06 231.349 L2215.06 205.423 L2219.35 205.423 L2219.35 209.451 Q2220.87 207.113 2222.93 205.955 Q2225.02 204.798 2227.73 204.798 Q2232.19 204.798 2234.49 207.576 Q2236.78 210.33 2236.78 215.701 Z" fill="#000000" fill-rule="evenodd" fill-opacity="1" /><polyline clip-path="url(#clip650)" style="stroke:#3da44d; stroke-width:4; stroke-opacity:1; fill:none" points="
  1716.65,274.549 1855.83,274.549 
  "/>
<path clip-path="url(#clip650)" d="M 0 0 M1897.45 266.667 L1897.45 270.694 Q1895.65 269.769 1893.7 269.306 Q1891.76 268.843 1889.67 268.843 Q1886.5 268.843 1884.9 269.815 Q1883.33 270.787 1883.33 272.731 Q1883.33 274.213 1884.46 275.069 Q1885.6 275.903 1889.02 276.667 L1890.48 276.991 Q1895.02 277.963 1896.92 279.745 Q1898.84 281.505 1898.84 284.676 Q1898.84 288.287 1895.97 290.393 Q1893.12 292.5 1888.12 292.5 Q1886.04 292.5 1883.77 292.083 Q1881.52 291.69 1879.02 290.88 L1879.02 286.481 Q1881.39 287.708 1883.68 288.333 Q1885.97 288.935 1888.21 288.935 Q1891.22 288.935 1892.84 287.917 Q1894.46 286.875 1894.46 285 Q1894.46 283.264 1893.28 282.338 Q1892.13 281.412 1888.17 280.556 L1886.69 280.208 Q1882.73 279.375 1880.97 277.662 Q1879.21 275.926 1879.21 272.917 Q1879.21 269.259 1881.8 267.269 Q1884.4 265.278 1889.16 265.278 Q1891.52 265.278 1893.61 265.625 Q1895.69 265.972 1897.45 266.667 Z" fill="#000000" fill-rule="evenodd" fill-opacity="1" /><path clip-path="url(#clip650)" d="M 0 0 M1907.52 258.542 L1907.52 265.903 L1916.29 265.903 L1916.29 269.213 L1907.52 269.213 L1907.52 283.287 Q1907.52 286.458 1908.38 287.361 Q1909.26 288.264 1911.92 288.264 L1916.29 288.264 L1916.29 291.829 L1911.92 291.829 Q1906.99 291.829 1905.11 290 Q1903.24 288.148 1903.24 283.287 L1903.24 269.213 L1900.11 269.213 L1900.11 265.903 L1903.24 265.903 L1903.24 258.542 L1907.52 258.542 Z" fill="#000000" fill-rule="evenodd" fill-opacity="1" /><path clip-path="url(#clip650)" d="M 0 0 M1932.54 278.796 Q1927.38 278.796 1925.39 279.977 Q1923.4 281.157 1923.4 284.005 Q1923.4 286.273 1924.88 287.616 Q1926.39 288.935 1928.96 288.935 Q1932.5 288.935 1934.63 286.435 Q1936.78 283.912 1936.78 279.745 L1936.78 278.796 L1932.54 278.796 M1941.04 277.037 L1941.04 291.829 L1936.78 291.829 L1936.78 287.893 Q1935.32 290.255 1933.14 291.389 Q1930.97 292.5 1927.82 292.5 Q1923.84 292.5 1921.48 290.278 Q1919.14 288.032 1919.14 284.282 Q1919.14 279.907 1922.06 277.685 Q1925 275.463 1930.81 275.463 L1936.78 275.463 L1936.78 275.046 Q1936.78 272.107 1934.83 270.509 Q1932.91 268.889 1929.42 268.889 Q1927.2 268.889 1925.09 269.421 Q1922.98 269.954 1921.04 271.019 L1921.04 267.083 Q1923.38 266.181 1925.58 265.741 Q1927.77 265.278 1929.86 265.278 Q1935.48 265.278 1938.26 268.194 Q1941.04 271.111 1941.04 277.037 Z" fill="#000000" fill-rule="evenodd" fill-opacity="1" /><path clip-path="url(#clip650)" d="M 0 0 M1949.72 258.542 L1949.72 265.903 L1958.49 265.903 L1958.49 269.213 L1949.72 269.213 L1949.72 283.287 Q1949.72 286.458 1950.58 287.361 Q1951.45 288.264 1954.12 288.264 L1958.49 288.264 L1958.49 291.829 L1954.12 291.829 Q1949.19 291.829 1947.31 290 Q1945.44 288.148 1945.44 283.287 L1945.44 269.213 L1942.31 269.213 L1942.31 265.903 L1945.44 265.903 L1945.44 258.542 L1949.72 258.542 Z" fill="#000000" fill-rule="evenodd" fill-opacity="1" /><path clip-path="url(#clip650)" d="M 0 0 M1962.96 265.903 L1967.22 265.903 L1967.22 291.829 L1962.96 291.829 L1962.96 265.903 M1962.96 255.81 L1967.22 255.81 L1967.22 261.204 L1962.96 261.204 L1962.96 255.81 Z" fill="#000000" fill-rule="evenodd" fill-opacity="1" /><path clip-path="url(#clip650)" d="M 0 0 M1988.21 266.667 L1988.21 270.694 Q1986.41 269.769 1984.46 269.306 Q1982.52 268.843 1980.44 268.843 Q1977.26 268.843 1975.67 269.815 Q1974.09 270.787 1974.09 272.731 Q1974.09 274.213 1975.23 275.069 Q1976.36 275.903 1979.79 276.667 L1981.25 276.991 Q1985.78 277.963 1987.68 279.745 Q1989.6 281.505 1989.6 284.676 Q1989.6 288.287 1986.73 290.393 Q1983.89 292.5 1978.89 292.5 Q1976.8 292.5 1974.53 292.083 Q1972.29 291.69 1969.79 290.88 L1969.79 286.481 Q1972.15 287.708 1974.44 288.333 Q1976.73 288.935 1978.98 288.935 Q1981.99 288.935 1983.61 287.917 Q1985.23 286.875 1985.23 285 Q1985.23 283.264 1984.05 282.338 Q1982.89 281.412 1978.93 280.556 L1977.45 280.208 Q1973.49 279.375 1971.73 277.662 Q1969.97 275.926 1969.97 272.917 Q1969.97 269.259 1972.57 267.269 Q1975.16 265.278 1979.93 265.278 Q1982.29 265.278 1984.37 265.625 Q1986.45 265.972 1988.21 266.667 Z" fill="#000000" fill-rule="evenodd" fill-opacity="1" /><path clip-path="url(#clip650)" d="M 0 0 M1998.28 258.542 L1998.28 265.903 L2007.06 265.903 L2007.06 269.213 L1998.28 269.213 L1998.28 283.287 Q1998.28 286.458 1999.14 287.361 Q2000.02 288.264 2002.68 288.264 L2007.06 288.264 L2007.06 291.829 L2002.68 291.829 Q1997.75 291.829 1995.88 290 Q1994 288.148 1994 283.287 L1994 269.213 L1990.88 269.213 L1990.88 265.903 L1994 265.903 L1994 258.542 L1998.28 258.542 Z" fill="#000000" fill-rule="evenodd" fill-opacity="1" /><path clip-path="url(#clip650)" d="M 0 0 M2011.52 265.903 L2015.78 265.903 L2015.78 291.829 L2011.52 291.829 L2011.52 265.903 M2011.52 255.81 L2015.78 255.81 L2015.78 261.204 L2011.52 261.204 L2011.52 255.81 Z" fill="#000000" fill-rule="evenodd" fill-opacity="1" /><path clip-path="url(#clip650)" d="M 0 0 M2038.91 266.898 L2038.91 270.88 Q2037.1 269.884 2035.27 269.398 Q2033.47 268.889 2031.62 268.889 Q2027.47 268.889 2025.18 271.528 Q2022.89 274.144 2022.89 278.889 Q2022.89 283.634 2025.18 286.273 Q2027.47 288.889 2031.62 288.889 Q2033.47 288.889 2035.27 288.403 Q2037.1 287.893 2038.91 286.898 L2038.91 290.833 Q2037.13 291.667 2035.2 292.083 Q2033.31 292.5 2031.15 292.5 Q2025.3 292.5 2021.85 288.819 Q2018.4 285.139 2018.4 278.889 Q2018.4 272.546 2021.87 268.912 Q2025.37 265.278 2031.43 265.278 Q2033.4 265.278 2035.27 265.695 Q2037.15 266.088 2038.91 266.898 Z" fill="#000000" fill-rule="evenodd" fill-opacity="1" /><path clip-path="url(#clip650)" d="M 0 0 M2055.16 278.796 Q2050 278.796 2048.01 279.977 Q2046.01 281.157 2046.01 284.005 Q2046.01 286.273 2047.5 287.616 Q2049 288.935 2051.57 288.935 Q2055.11 288.935 2057.24 286.435 Q2059.39 283.912 2059.39 279.745 L2059.39 278.796 L2055.16 278.796 M2063.65 277.037 L2063.65 291.829 L2059.39 291.829 L2059.39 287.893 Q2057.94 290.255 2055.76 291.389 Q2053.58 292.5 2050.44 292.5 Q2046.45 292.5 2044.09 290.278 Q2041.76 288.032 2041.76 284.282 Q2041.76 279.907 2044.67 277.685 Q2047.61 275.463 2053.42 275.463 L2059.39 275.463 L2059.39 275.046 Q2059.39 272.107 2057.45 270.509 Q2055.53 268.889 2052.03 268.889 Q2049.81 268.889 2047.7 269.421 Q2045.6 269.954 2043.65 271.019 L2043.65 267.083 Q2045.99 266.181 2048.19 265.741 Q2050.39 265.278 2052.47 265.278 Q2058.1 265.278 2060.88 268.194 Q2063.65 271.111 2063.65 277.037 Z" fill="#000000" fill-rule="evenodd" fill-opacity="1" /><path clip-path="url(#clip650)" d="M 0 0 M2068.12 255.81 L2072.38 255.81 L2072.38 291.829 L2068.12 291.829 L2068.12 255.81 Z" fill="#000000" fill-rule="evenodd" fill-opacity="1" /><path clip-path="url(#clip650)" d="M 0 0 M2112.1 270.88 Q2113.7 268.009 2115.92 266.644 Q2118.14 265.278 2121.15 265.278 Q2125.2 265.278 2127.4 268.125 Q2129.6 270.949 2129.6 276.181 L2129.6 291.829 L2125.32 291.829 L2125.32 276.319 Q2125.32 272.593 2124 270.787 Q2122.68 268.982 2119.97 268.982 Q2116.66 268.982 2114.74 271.181 Q2112.82 273.38 2112.82 277.176 L2112.82 291.829 L2108.54 291.829 L2108.54 276.319 Q2108.54 272.569 2107.22 270.787 Q2105.9 268.982 2103.14 268.982 Q2099.88 268.982 2097.96 271.204 Q2096.04 273.403 2096.04 277.176 L2096.04 291.829 L2091.76 291.829 L2091.76 265.903 L2096.04 265.903 L2096.04 269.931 Q2097.5 267.546 2099.53 266.412 Q2101.57 265.278 2104.37 265.278 Q2107.19 265.278 2109.16 266.713 Q2111.15 268.148 2112.1 270.88 Z" fill="#000000" fill-rule="evenodd" fill-opacity="1" /><path clip-path="url(#clip650)" d="M 0 0 M2156.25 277.801 L2156.25 279.884 L2136.66 279.884 Q2136.94 284.282 2139.3 286.597 Q2141.69 288.889 2145.92 288.889 Q2148.38 288.889 2150.67 288.287 Q2152.98 287.685 2155.25 286.481 L2155.25 290.509 Q2152.96 291.481 2150.55 291.991 Q2148.14 292.5 2145.67 292.5 Q2139.46 292.5 2135.83 288.889 Q2132.22 285.278 2132.22 279.12 Q2132.22 272.755 2135.64 269.028 Q2139.09 265.278 2144.93 265.278 Q2150.16 265.278 2153.19 268.657 Q2156.25 272.014 2156.25 277.801 M2151.99 276.551 Q2151.94 273.056 2150.02 270.972 Q2148.12 268.889 2144.97 268.889 Q2141.41 268.889 2139.25 270.903 Q2137.13 272.917 2136.8 276.574 L2151.99 276.551 Z" fill="#000000" fill-rule="evenodd" fill-opacity="1" /><path clip-path="url(#clip650)" d="M 0 0 M2172.5 278.796 Q2167.33 278.796 2165.34 279.977 Q2163.35 281.157 2163.35 284.005 Q2163.35 286.273 2164.83 287.616 Q2166.34 288.935 2168.91 288.935 Q2172.45 288.935 2174.58 286.435 Q2176.73 283.912 2176.73 279.745 L2176.73 278.796 L2172.5 278.796 M2180.99 277.037 L2180.99 291.829 L2176.73 291.829 L2176.73 287.893 Q2175.27 290.255 2173.1 291.389 Q2170.92 292.5 2167.77 292.5 Q2163.79 292.5 2161.43 290.278 Q2159.09 288.032 2159.09 284.282 Q2159.09 279.907 2162.01 277.685 Q2164.95 275.463 2170.76 275.463 L2176.73 275.463 L2176.73 275.046 Q2176.73 272.107 2174.79 270.509 Q2172.87 268.889 2169.37 268.889 Q2167.15 268.889 2165.04 269.421 Q2162.94 269.954 2160.99 271.019 L2160.99 267.083 Q2163.33 266.181 2165.53 265.741 Q2167.73 265.278 2169.81 265.278 Q2175.44 265.278 2178.21 268.194 Q2180.99 271.111 2180.99 277.037 Z" fill="#000000" fill-rule="evenodd" fill-opacity="1" /><path clip-path="url(#clip650)" d="M 0 0 M2207.01 276.181 L2207.01 291.829 L2202.75 291.829 L2202.75 276.319 Q2202.75 272.639 2201.31 270.81 Q2199.88 268.982 2197.01 268.982 Q2193.56 268.982 2191.57 271.181 Q2189.58 273.38 2189.58 277.176 L2189.58 291.829 L2185.3 291.829 L2185.3 265.903 L2189.58 265.903 L2189.58 269.931 Q2191.11 267.593 2193.17 266.435 Q2195.25 265.278 2197.96 265.278 Q2202.43 265.278 2204.72 268.056 Q2207.01 270.81 2207.01 276.181 Z" fill="#000000" fill-rule="evenodd" fill-opacity="1" /></svg>
