<?xml version="1.0" encoding="utf-8"?>
<svg xmlns="http://www.w3.org/2000/svg" xmlns:xlink="http://www.w3.org/1999/xlink" width="600" height="400" viewBox="0 0 2400 1600">
<defs>
  <clipPath id="clip440">
    <rect x="0" y="0" width="2400" height="1600"/>
  </clipPath>
</defs>
<path clip-path="url(#clip440)" d="
M0 1600 L2400 1600 L2400 0 L0 0  Z
  " fill="#ffffff" fill-rule="evenodd" fill-opacity="1"/>
<defs>
  <clipPath id="clip441">
    <rect x="480" y="0" width="1681" height="1600"/>
  </clipPath>
</defs>
<path clip-path="url(#clip440)" d="
M211.116 1423.18 L2352.76 1423.18 L2352.76 47.2441 L211.116 47.2441  Z
  " fill="#ffffff" fill-rule="evenodd" fill-opacity="1"/>
<defs>
  <clipPath id="clip442">
    <rect x="211" y="47" width="2143" height="1377"/>
  </clipPath>
</defs>
<polyline clip-path="url(#clip442)" style="stroke:#000000; stroke-width:2; stroke-opacity:0.1; fill:none" points="
  328.91,1423.18 328.91,47.2441 
  "/>
<polyline clip-path="url(#clip442)" style="stroke:#000000; stroke-width:2; stroke-opacity:0.1; fill:none" points="
  964.261,1423.18 964.261,47.2441 
  "/>
<polyline clip-path="url(#clip442)" style="stroke:#000000; stroke-width:2; stroke-opacity:0.1; fill:none" points="
  1599.61,1423.18 1599.61,47.2441 
  "/>
<polyline clip-path="url(#clip442)" style="stroke:#000000; stroke-width:2; stroke-opacity:0.1; fill:none" points="
  2234.96,1423.18 2234.96,47.2441 
  "/>
<polyline clip-path="url(#clip440)" style="stroke:#000000; stroke-width:4; stroke-opacity:1; fill:none" points="
  211.116,1423.18 2352.76,1423.18 
  "/>
<polyline clip-path="url(#clip440)" style="stroke:#000000; stroke-width:4; stroke-opacity:1; fill:none" points="
  328.91,1423.18 328.91,1406.67 
  "/>
<polyline clip-path="url(#clip440)" style="stroke:#000000; stroke-width:4; stroke-opacity:1; fill:none" points="
  964.261,1423.18 964.261,1406.67 
  "/>
<polyline clip-path="url(#clip440)" style="stroke:#000000; stroke-width:4; stroke-opacity:1; fill:none" points="
  1599.61,1423.18 1599.61,1406.67 
  "/>
<polyline clip-path="url(#clip440)" style="stroke:#000000; stroke-width:4; stroke-opacity:1; fill:none" points="
  2234.96,1423.18 2234.96,1406.67 
  "/>
<path clip-path="url(#clip440)" d="M 0 0 M328.91 1452.37 Q325.299 1452.37 323.471 1455.94 Q321.665 1459.48 321.665 1466.61 Q321.665 1473.71 323.471 1477.28 Q325.299 1480.82 328.91 1480.82 Q332.545 1480.82 334.35 1477.28 Q336.179 1473.71 336.179 1466.61 Q336.179 1459.48 334.35 1455.94 Q332.545 1452.37 328.91 1452.37 M328.91 1448.67 Q334.72 1448.67 337.776 1453.27 Q340.855 1457.86 340.855 1466.61 Q340.855 1475.33 337.776 1479.94 Q334.72 1484.52 328.91 1484.52 Q323.1 1484.52 320.021 1479.94 Q316.966 1475.33 316.966 1466.61 Q316.966 1457.86 320.021 1453.27 Q323.1 1448.67 328.91 1448.67 Z" fill="#000000" fill-rule="evenodd" fill-opacity="1" /><path clip-path="url(#clip440)" d="M 0 0 M954.539 1449.29 L972.895 1449.29 L972.895 1453.23 L958.821 1453.23 L958.821 1461.7 Q959.84 1461.35 960.858 1461.19 Q961.877 1461 962.895 1461 Q968.682 1461 972.062 1464.18 Q975.441 1467.35 975.441 1472.76 Q975.441 1478.34 971.969 1481.44 Q968.497 1484.52 962.178 1484.52 Q960.002 1484.52 957.733 1484.15 Q955.488 1483.78 953.08 1483.04 L953.08 1478.34 Q955.164 1479.48 957.386 1480.03 Q959.608 1480.59 962.085 1480.59 Q966.09 1480.59 968.427 1478.48 Q970.765 1476.38 970.765 1472.76 Q970.765 1469.15 968.427 1467.05 Q966.09 1464.94 962.085 1464.94 Q960.21 1464.94 958.335 1465.36 Q956.483 1465.77 954.539 1466.65 L954.539 1449.29 Z" fill="#000000" fill-rule="evenodd" fill-opacity="1" /><path clip-path="url(#clip440)" d="M 0 0 M1576.49 1479.92 L1584.13 1479.92 L1584.13 1453.55 L1575.82 1455.22 L1575.82 1450.96 L1584.08 1449.29 L1588.75 1449.29 L1588.75 1479.92 L1596.39 1479.92 L1596.39 1483.85 L1576.49 1483.85 L1576.49 1479.92 Z" fill="#000000" fill-rule="evenodd" fill-opacity="1" /><path clip-path="url(#clip440)" d="M 0 0 M1611.46 1452.37 Q1607.85 1452.37 1606.02 1455.94 Q1604.22 1459.48 1604.22 1466.61 Q1604.22 1473.71 1606.02 1477.28 Q1607.85 1480.82 1611.46 1480.82 Q1615.1 1480.82 1616.9 1477.28 Q1618.73 1473.71 1618.73 1466.61 Q1618.73 1459.48 1616.9 1455.94 Q1615.1 1452.37 1611.46 1452.37 M1611.46 1448.67 Q1617.27 1448.67 1620.33 1453.27 Q1623.41 1457.86 1623.41 1466.61 Q1623.41 1475.33 1620.33 1479.94 Q1617.27 1484.52 1611.46 1484.52 Q1605.65 1484.52 1602.57 1479.94 Q1599.52 1475.33 1599.52 1466.61 Q1599.52 1457.86 1602.57 1453.27 Q1605.65 1448.67 1611.46 1448.67 Z" fill="#000000" fill-rule="evenodd" fill-opacity="1" /><path clip-path="url(#clip440)" d="M 0 0 M2212.33 1479.92 L2219.97 1479.92 L2219.97 1453.55 L2211.66 1455.22 L2211.66 1450.96 L2219.93 1449.29 L2224.6 1449.29 L2224.6 1479.92 L2232.24 1479.92 L2232.24 1483.85 L2212.33 1483.85 L2212.33 1479.92 Z" fill="#000000" fill-rule="evenodd" fill-opacity="1" /><path clip-path="url(#clip440)" d="M 0 0 M2237.36 1449.29 L2255.71 1449.29 L2255.71 1453.23 L2241.64 1453.23 L2241.64 1461.7 Q2242.66 1461.35 2243.68 1461.19 Q2244.7 1461 2245.71 1461 Q2251.5 1461 2254.88 1464.18 Q2258.26 1467.35 2258.26 1472.76 Q2258.26 1478.34 2254.79 1481.44 Q2251.32 1484.52 2245 1484.52 Q2242.82 1484.52 2240.55 1484.15 Q2238.31 1483.78 2235.9 1483.04 L2235.9 1478.34 Q2237.98 1479.48 2240.2 1480.03 Q2242.43 1480.59 2244.9 1480.59 Q2248.91 1480.59 2251.25 1478.48 Q2253.58 1476.38 2253.58 1472.76 Q2253.58 1469.15 2251.25 1467.05 Q2248.91 1464.94 2244.9 1464.94 Q2243.03 1464.94 2241.15 1465.36 Q2239.3 1465.77 2237.36 1466.65 L2237.36 1449.29 Z" fill="#000000" fill-rule="evenodd" fill-opacity="1" /><path clip-path="url(#clip440)" d="M 0 0 M1271.88 1562.7 L1271.88 1581.6 L1265.99 1581.6 L1265.99 1532.4 L1271.88 1532.4 L1271.88 1537.81 Q1273.72 1534.62 1276.53 1533.1 Q1279.36 1531.54 1283.27 1531.54 Q1289.77 1531.54 1293.81 1536.69 Q1297.88 1541.85 1297.88 1550.25 Q1297.88 1558.65 1293.81 1563.81 Q1289.77 1568.97 1283.27 1568.97 Q1279.36 1568.97 1276.53 1567.44 Q1273.72 1565.88 1271.88 1562.7 M1291.8 1550.25 Q1291.8 1543.79 1289.13 1540.13 Q1286.49 1536.44 1281.84 1536.44 Q1277.19 1536.44 1274.52 1540.13 Q1271.88 1543.79 1271.88 1550.25 Q1271.88 1556.71 1274.52 1560.4 Q1277.19 1564.07 1281.84 1564.07 Q1286.49 1564.07 1289.13 1560.4 Q1291.8 1556.71 1291.8 1550.25 Z" fill="#000000" fill-rule="evenodd" fill-opacity="1" /><polyline clip-path="url(#clip442)" style="stroke:#000000; stroke-width:2; stroke-opacity:0.1; fill:none" points="
  211.116,1384.24 2352.76,1384.24 
  "/>
<polyline clip-path="url(#clip442)" style="stroke:#000000; stroke-width:2; stroke-opacity:0.1; fill:none" points="
  211.116,958.003 2352.76,958.003 
  "/>
<polyline clip-path="url(#clip442)" style="stroke:#000000; stroke-width:2; stroke-opacity:0.1; fill:none" points="
  211.116,531.767 2352.76,531.767 
  "/>
<polyline clip-path="url(#clip442)" style="stroke:#000000; stroke-width:2; stroke-opacity:0.1; fill:none" points="
  211.116,105.532 2352.76,105.532 
  "/>
<polyline clip-path="url(#clip440)" style="stroke:#000000; stroke-width:4; stroke-opacity:1; fill:none" points="
  211.116,1423.18 211.116,47.2441 
  "/>
<polyline clip-path="url(#clip440)" style="stroke:#000000; stroke-width:4; stroke-opacity:1; fill:none" points="
  211.116,1384.24 236.816,1384.24 
  "/>
<polyline clip-path="url(#clip440)" style="stroke:#000000; stroke-width:4; stroke-opacity:1; fill:none" points="
  211.116,958.003 236.816,958.003 
  "/>
<polyline clip-path="url(#clip440)" style="stroke:#000000; stroke-width:4; stroke-opacity:1; fill:none" points="
  211.116,531.767 236.816,531.767 
  "/>
<polyline clip-path="url(#clip440)" style="stroke:#000000; stroke-width:4; stroke-opacity:1; fill:none" points="
  211.116,105.532 236.816,105.532 
  "/>
<path clip-path="url(#clip440)" d="M 0 0 M126.205 1370.04 Q122.593 1370.04 120.765 1373.6 Q118.959 1377.14 118.959 1384.27 Q118.959 1391.38 120.765 1394.94 Q122.593 1398.49 126.205 1398.49 Q129.839 1398.49 131.644 1394.94 Q133.473 1391.38 133.473 1384.27 Q133.473 1377.14 131.644 1373.6 Q129.839 1370.04 126.205 1370.04 M126.205 1366.33 Q132.015 1366.33 135.07 1370.94 Q138.149 1375.52 138.149 1384.27 Q138.149 1393 135.07 1397.61 Q132.015 1402.19 126.205 1402.19 Q120.394 1402.19 117.316 1397.61 Q114.26 1393 114.26 1384.27 Q114.26 1375.52 117.316 1370.94 Q120.394 1366.33 126.205 1366.33 Z" fill="#000000" fill-rule="evenodd" fill-opacity="1" /><path clip-path="url(#clip440)" d="M 0 0 M143.218 1395.64 L148.103 1395.64 L148.103 1401.52 L143.218 1401.52 L143.218 1395.64 Z" fill="#000000" fill-rule="evenodd" fill-opacity="1" /><path clip-path="url(#clip440)" d="M 0 0 M163.172 1370.04 Q159.561 1370.04 157.732 1373.6 Q155.927 1377.14 155.927 1384.27 Q155.927 1391.38 157.732 1394.94 Q159.561 1398.49 163.172 1398.49 Q166.806 1398.49 168.612 1394.94 Q170.44 1391.38 170.44 1384.27 Q170.44 1377.14 168.612 1373.6 Q166.806 1370.04 163.172 1370.04 M163.172 1366.33 Q168.982 1366.33 172.038 1370.94 Q175.116 1375.52 175.116 1384.27 Q175.116 1393 172.038 1397.61 Q168.982 1402.19 163.172 1402.19 Q157.362 1402.19 154.283 1397.61 Q151.228 1393 151.228 1384.27 Q151.228 1375.52 154.283 1370.94 Q157.362 1366.33 163.172 1366.33 Z" fill="#000000" fill-rule="evenodd" fill-opacity="1" /><path clip-path="url(#clip440)" d="M 0 0 M127.431 943.801 Q123.82 943.801 121.992 947.366 Q120.186 950.908 120.186 958.038 Q120.186 965.144 121.992 968.709 Q123.82 972.25 127.431 972.25 Q131.066 972.25 132.871 968.709 Q134.7 965.144 134.7 958.038 Q134.7 950.908 132.871 947.366 Q131.066 943.801 127.431 943.801 M127.431 940.098 Q133.242 940.098 136.297 944.704 Q139.376 949.288 139.376 958.038 Q139.376 966.764 136.297 971.371 Q133.242 975.954 127.431 975.954 Q121.621 975.954 118.543 971.371 Q115.487 966.764 115.487 958.038 Q115.487 949.288 118.543 944.704 Q121.621 940.098 127.431 940.098 Z" fill="#000000" fill-rule="evenodd" fill-opacity="1" /><path clip-path="url(#clip440)" d="M 0 0 M144.445 969.403 L149.329 969.403 L149.329 975.283 L144.445 975.283 L144.445 969.403 Z" fill="#000000" fill-rule="evenodd" fill-opacity="1" /><path clip-path="url(#clip440)" d="M 0 0 M155.209 971.348 L162.848 971.348 L162.848 944.982 L154.538 946.649 L154.538 942.389 L162.802 940.723 L167.477 940.723 L167.477 971.348 L175.116 971.348 L175.116 975.283 L155.209 975.283 L155.209 971.348 Z" fill="#000000" fill-rule="evenodd" fill-opacity="1" /><path clip-path="url(#clip440)" d="M 0 0 M127.802 517.566 Q124.191 517.566 122.362 521.131 Q120.556 524.672 120.556 531.802 Q120.556 538.908 122.362 542.473 Q124.191 546.015 127.802 546.015 Q131.436 546.015 133.242 542.473 Q135.07 538.908 135.07 531.802 Q135.07 524.672 133.242 521.131 Q131.436 517.566 127.802 517.566 M127.802 513.862 Q133.612 513.862 136.667 518.469 Q139.746 523.052 139.746 531.802 Q139.746 540.529 136.667 545.135 Q133.612 549.719 127.802 549.719 Q121.992 549.719 118.913 545.135 Q115.857 540.529 115.857 531.802 Q115.857 523.052 118.913 518.469 Q121.992 513.862 127.802 513.862 Z" fill="#000000" fill-rule="evenodd" fill-opacity="1" /><path clip-path="url(#clip440)" d="M 0 0 M144.816 543.168 L149.7 543.168 L149.7 549.047 L144.816 549.047 L144.816 543.168 Z" fill="#000000" fill-rule="evenodd" fill-opacity="1" /><path clip-path="url(#clip440)" d="M 0 0 M158.797 545.112 L175.116 545.112 L175.116 549.047 L153.172 549.047 L153.172 545.112 Q155.834 542.358 160.417 537.728 Q165.024 533.075 166.204 531.733 Q168.45 529.209 169.329 527.473 Q170.232 525.714 170.232 524.024 Q170.232 521.27 168.288 519.534 Q166.366 517.797 163.265 517.797 Q161.065 517.797 158.612 518.561 Q156.181 519.325 153.403 520.876 L153.403 516.154 Q156.228 515.02 158.681 514.441 Q161.135 513.862 163.172 513.862 Q168.542 513.862 171.737 516.547 Q174.931 519.233 174.931 523.723 Q174.931 525.853 174.121 527.774 Q173.334 529.672 171.227 532.265 Q170.649 532.936 167.547 536.154 Q164.445 539.348 158.797 545.112 Z" fill="#000000" fill-rule="evenodd" fill-opacity="1" /><path clip-path="url(#clip440)" d="M 0 0 M126.853 91.3305 Q123.242 91.3305 121.413 94.8953 Q119.607 98.437 119.607 105.567 Q119.607 112.673 121.413 116.238 Q123.242 119.779 126.853 119.779 Q130.487 119.779 132.292 116.238 Q134.121 112.673 134.121 105.567 Q134.121 98.437 132.292 94.8953 Q130.487 91.3305 126.853 91.3305 M126.853 87.6268 Q132.663 87.6268 135.718 92.2333 Q138.797 96.8166 138.797 105.567 Q138.797 114.293 135.718 118.9 Q132.663 123.483 126.853 123.483 Q121.043 123.483 117.964 118.9 Q114.908 114.293 114.908 105.567 Q114.908 96.8166 117.964 92.2333 Q121.043 87.6268 126.853 87.6268 Z" fill="#000000" fill-rule="evenodd" fill-opacity="1" /><path clip-path="url(#clip440)" d="M 0 0 M143.866 116.932 L148.751 116.932 L148.751 122.812 L143.866 122.812 L143.866 116.932 Z" fill="#000000" fill-rule="evenodd" fill-opacity="1" /><path clip-path="url(#clip440)" d="M 0 0 M167.987 104.178 Q171.343 104.895 173.218 107.164 Q175.116 109.432 175.116 112.766 Q175.116 117.881 171.598 120.682 Q168.079 123.483 161.598 123.483 Q159.422 123.483 157.107 123.043 Q154.815 122.627 152.362 121.77 L152.362 117.256 Q154.306 118.391 156.621 118.969 Q158.936 119.548 161.459 119.548 Q165.857 119.548 168.149 117.812 Q170.464 116.076 170.464 112.766 Q170.464 109.71 168.311 107.997 Q166.181 106.261 162.362 106.261 L158.334 106.261 L158.334 102.418 L162.547 102.418 Q165.996 102.418 167.825 101.053 Q169.653 99.6638 169.653 97.0712 Q169.653 94.4092 167.755 92.9972 Q165.88 91.562 162.362 91.562 Q160.44 91.562 158.241 91.9787 Q156.042 92.3953 153.403 93.275 L153.403 89.1083 Q156.065 88.3676 158.38 87.9972 Q160.718 87.6268 162.778 87.6268 Q168.102 87.6268 171.204 90.0574 Q174.306 92.4648 174.306 96.5851 Q174.306 99.4555 172.663 101.446 Q171.019 103.414 167.987 104.178 Z" fill="#000000" fill-rule="evenodd" fill-opacity="1" /><path clip-path="url(#clip440)" d="M 0 0 M21.7677 783.05 L39.6235 783.05 L39.6235 774.966 Q39.6235 770.478 37.3 768.027 Q34.9765 765.576 30.6797 765.576 Q26.4147 765.576 24.0912 768.027 Q21.7677 770.478 21.7677 774.966 L21.7677 783.05 M16.4842 789.48 L16.4842 774.966 Q16.4842 766.977 20.1126 762.903 Q23.7092 758.797 30.6797 758.797 Q37.7138 758.797 41.3104 762.903 Q44.907 766.977 44.907 774.966 L44.907 783.05 L64.0042 783.05 L64.0042 789.48 L16.4842 789.48 Z" fill="#000000" fill-rule="evenodd" fill-opacity="1" /><path clip-path="url(#clip440)" d="M 0 0 M14.5426 738.586 Q21.8632 742.851 29.0246 744.92 Q36.186 746.989 43.5384 746.989 Q50.8908 746.989 58.1159 744.92 Q65.3091 742.819 72.5979 738.586 L72.5979 743.678 Q65.1182 748.453 57.8931 750.84 Q50.668 753.195 43.5384 753.195 Q36.4406 753.195 29.2474 750.84 Q22.0542 748.484 14.5426 743.678 L14.5426 738.586 Z" fill="#000000" fill-rule="evenodd" fill-opacity="1" /><path clip-path="url(#clip440)" d="M 0 0 M58.657 726.777 L77.5631 726.777 L77.5631 732.666 L28.3562 732.666 L28.3562 726.777 L33.7671 726.777 Q30.5842 724.931 29.0564 722.13 Q27.4968 719.298 27.4968 715.383 Q27.4968 708.89 32.6531 704.848 Q37.8093 700.773 46.212 700.773 Q54.6147 700.773 59.771 704.848 Q64.9272 708.89 64.9272 715.383 Q64.9272 719.298 63.3994 722.13 Q61.8398 724.931 58.657 726.777 M46.212 706.853 Q39.7508 706.853 36.0905 709.526 Q32.3984 712.168 32.3984 716.815 Q32.3984 721.462 36.0905 724.136 Q39.7508 726.777 46.212 726.777 Q52.6732 726.777 56.3653 724.136 Q60.0256 721.462 60.0256 716.815 Q60.0256 712.168 56.3653 709.526 Q52.6732 706.853 46.212 706.853 Z" fill="#000000" fill-rule="evenodd" fill-opacity="1" /><path clip-path="url(#clip440)" d="M 0 0 M14.5426 695.554 L14.5426 690.461 Q22.0542 685.687 29.2474 683.331 Q36.4406 680.944 43.5384 680.944 Q50.668 680.944 57.8931 683.331 Q65.1182 685.687 72.5979 690.461 L72.5979 695.554 Q65.3091 691.32 58.1159 689.252 Q50.8908 687.151 43.5384 687.151 Q36.186 687.151 29.0246 689.252 Q21.8632 691.32 14.5426 695.554 Z" fill="#000000" fill-rule="evenodd" fill-opacity="1" /><path clip-path="url(#clip442)" d="
M328.91 253.766 L328.91 1384.24 L455.98 1384.24 L455.98 253.766 L328.91 253.766 L328.91 253.766  Z
  " fill="#009af9" fill-rule="evenodd" fill-opacity="1"/>
<polyline clip-path="url(#clip442)" style="stroke:#000000; stroke-width:4; stroke-opacity:1; fill:none" points="
  328.91,253.766 328.91,1384.24 455.98,1384.24 455.98,253.766 328.91,253.766 
  "/>
<path clip-path="url(#clip442)" d="
M455.98 86.1857 L455.98 1384.24 L583.051 1384.24 L583.051 86.1857 L455.98 86.1857 L455.98 86.1857  Z
  " fill="#009af9" fill-rule="evenodd" fill-opacity="1"/>
<polyline clip-path="url(#clip442)" style="stroke:#000000; stroke-width:4; stroke-opacity:1; fill:none" points="
  455.98,86.1857 455.98,1384.24 583.051,1384.24 583.051,86.1857 455.98,86.1857 
  "/>
<path clip-path="url(#clip442)" d="
M583.051 465.996 L583.051 1384.24 L710.121 1384.24 L710.121 465.996 L583.051 465.996 L583.051 465.996  Z
  " fill="#009af9" fill-rule="evenodd" fill-opacity="1"/>
<polyline clip-path="url(#clip442)" style="stroke:#000000; stroke-width:4; stroke-opacity:1; fill:none" points="
  583.051,465.996 583.051,1384.24 710.121,1384.24 710.121,465.996 583.051,465.996 
  "/>
<path clip-path="url(#clip442)" d="
M710.121 876.36 L710.121 1384.24 L837.191 1384.24 L837.191 876.36 L710.121 876.36 L710.121 876.36  Z
  " fill="#009af9" fill-rule="evenodd" fill-opacity="1"/>
<polyline clip-path="url(#clip442)" style="stroke:#000000; stroke-width:4; stroke-opacity:1; fill:none" points="
  710.121,876.36 710.121,1384.24 837.191,1384.24 837.191,876.36 710.121,876.36 
  "/>
<path clip-path="url(#clip442)" d="
M837.191 1142.74 L837.191 1384.24 L964.261 1384.24 L964.261 1142.74 L837.191 1142.74 L837.191 1142.74  Z
  " fill="#009af9" fill-rule="evenodd" fill-opacity="1"/>
<polyline clip-path="url(#clip442)" style="stroke:#000000; stroke-width:4; stroke-opacity:1; fill:none" points="
  837.191,1142.74 837.191,1384.24 964.261,1384.24 964.261,1142.74 837.191,1142.74 
  "/>
<path clip-path="url(#clip442)" d="
M964.261 1280.93 L964.261 1384.24 L1091.33 1384.24 L1091.33 1280.93 L964.261 1280.93 L964.261 1280.93  Z
  " fill="#009af9" fill-rule="evenodd" fill-opacity="1"/>
<polyline clip-path="url(#clip442)" style="stroke:#000000; stroke-width:4; stroke-opacity:1; fill:none" points="
  964.261,1280.93 964.261,1384.24 1091.33,1384.24 1091.33,1280.93 964.261,1280.93 
  "/>
<path clip-path="url(#clip442)" d="
M1091.33 1343.66 L1091.33 1384.24 L1218.4 1384.24 L1218.4 1343.66 L1091.33 1343.66 L1091.33 1343.66  Z
  " fill="#009af9" fill-rule="evenodd" fill-opacity="1"/>
<polyline clip-path="url(#clip442)" style="stroke:#000000; stroke-width:4; stroke-opacity:1; fill:none" points="
  1091.33,1343.66 1091.33,1384.24 1218.4,1384.24 1218.4,1343.66 1091.33,1343.66 
  "/>
<path clip-path="url(#clip442)" d="
M1218.4 1369.48 L1218.4 1384.24 L1345.47 1384.24 L1345.47 1369.48 L1218.4 1369.48 L1218.4 1369.48  Z
  " fill="#009af9" fill-rule="evenodd" fill-opacity="1"/>
<polyline clip-path="url(#clip442)" style="stroke:#000000; stroke-width:4; stroke-opacity:1; fill:none" points="
  1218.4,1369.48 1218.4,1384.24 1345.47,1384.24 1345.47,1369.48 1218.4,1369.48 
  "/>
<path clip-path="url(#clip442)" d="
M1345.47 1379.19 L1345.47 1384.24 L1472.54 1384.24 L1472.54 1379.19 L1345.47 1379.19 L1345.47 1379.19  Z
  " fill="#009af9" fill-rule="evenodd" fill-opacity="1"/>
<polyline clip-path="url(#clip442)" style="stroke:#000000; stroke-width:4; stroke-opacity:1; fill:none" points="
  1345.47,1379.19 1345.47,1384.24 1472.54,1384.24 1472.54,1379.19 1345.47,1379.19 
  "/>
<path clip-path="url(#clip442)" d="
M1472.54 1382.63 L1472.54 1384.24 L1599.61 1384.24 L1599.61 1382.63 L1472.54 1382.63 L1472.54 1382.63  Z
  " fill="#009af9" fill-rule="evenodd" fill-opacity="1"/>
<polyline clip-path="url(#clip442)" style="stroke:#000000; stroke-width:4; stroke-opacity:1; fill:none" points="
  1472.54,1382.63 1472.54,1384.24 1599.61,1384.24 1599.61,1382.63 1472.54,1382.63 
  "/>
<path clip-path="url(#clip442)" d="
M1599.61 1383.59 L1599.61 1384.24 L1726.68 1384.24 L1726.68 1383.59 L1599.61 1383.59 L1599.61 1383.59  Z
  " fill="#009af9" fill-rule="evenodd" fill-opacity="1"/>
<polyline clip-path="url(#clip442)" style="stroke:#000000; stroke-width:4; stroke-opacity:1; fill:none" points="
  1599.61,1383.59 1599.61,1384.24 1726.68,1384.24 1726.68,1383.59 1599.61,1383.59 
  "/>
<path clip-path="url(#clip442)" d="
M1726.68 1384.04 L1726.68 1384.24 L1853.75 1384.24 L1853.75 1384.04 L1726.68 1384.04 L1726.68 1384.04  Z
  " fill="#009af9" fill-rule="evenodd" fill-opacity="1"/>
<polyline clip-path="url(#clip442)" style="stroke:#000000; stroke-width:4; stroke-opacity:1; fill:none" points="
  1726.68,1384.04 1726.68,1384.24 1853.75,1384.24 1853.75,1384.04 1726.68,1384.04 
  "/>
<path clip-path="url(#clip442)" d="
M1853.75 1384.2 L1853.75 1384.24 L1980.82 1384.24 L1980.82 1384.2 L1853.75 1384.2 L1853.75 1384.2  Z
  " fill="#009af9" fill-rule="evenodd" fill-opacity="1"/>
<polyline clip-path="url(#clip442)" style="stroke:#000000; stroke-width:4; stroke-opacity:1; fill:none" points="
  1853.75,1384.2 1853.75,1384.24 1980.82,1384.24 1980.82,1384.2 1853.75,1384.2 
  "/>
<path clip-path="url(#clip442)" d="
M1980.82 1384.22 L1980.82 1384.24 L2107.89 1384.24 L2107.89 1384.22 L1980.82 1384.22 L1980.82 1384.22  Z
  " fill="#009af9" fill-rule="evenodd" fill-opacity="1"/>
<polyline clip-path="url(#clip442)" style="stroke:#000000; stroke-width:4; stroke-opacity:1; fill:none" points="
  1980.82,1384.22 1980.82,1384.24 2107.89,1384.24 2107.89,1384.22 1980.82,1384.22 
  "/>
<path clip-path="url(#clip442)" d="
M2107.89 1384.23 L2107.89 1384.24 L2234.96 1384.24 L2234.96 1384.23 L2107.89 1384.23 L2107.89 1384.23  Z
  " fill="#009af9" fill-rule="evenodd" fill-opacity="1"/>
<polyline clip-path="url(#clip442)" style="stroke:#000000; stroke-width:4; stroke-opacity:1; fill:none" points="
  2107.89,1384.23 2107.89,1384.24 2234.96,1384.24 2234.96,1384.23 2107.89,1384.23 
  "/>
<polyline clip-path="url(#clip442)" style="stroke:#e26f46; stroke-width:4; stroke-opacity:1; fill:none" points="
  524.226,2799.12 524.226,-1328.69 
  "/>
<polyline clip-path="url(#clip442)" style="stroke:#3da44d; stroke-width:4; stroke-opacity:1; fill:none" points="
  524.234,2799.12 524.234,-1328.69 
  "/>
<path clip-path="url(#clip440)" d="
M1685.66 335.029 L2281.37 335.029 L2281.37 93.1086 L1685.66 93.1086  Z
  " fill="#ffffff" fill-rule="evenodd" fill-opacity="1"/>
<polyline clip-path="url(#clip440)" style="stroke:#000000; stroke-width:4; stroke-opacity:1; fill:none" points="
  1685.66,335.029 2281.37,335.029 2281.37,93.1086 1685.66,93.1086 1685.66,335.029 
  "/>
<path clip-path="url(#clip440)" d="
M1709.45 177.781 L1852.23 177.781 L1852.23 129.397 L1709.45 129.397 L1709.45 177.781  Z
  " fill="#009af9" fill-rule="evenodd" fill-opacity="1"/>
<polyline clip-path="url(#clip440)" style="stroke:#000000; stroke-width:4; stroke-opacity:1; fill:none" points="
  1709.45,177.781 1852.23,177.781 1852.23,129.397 1709.45,129.397 1709.45,177.781 
  "/>
<path clip-path="url(#clip440)" d="M 0 0 M1889.87 173.276 Q1888.06 177.906 1886.35 179.318 Q1884.63 180.73 1881.76 180.73 L1878.36 180.73 L1878.36 177.165 L1880.86 177.165 Q1882.62 177.165 1883.59 176.332 Q1884.56 175.498 1885.75 172.396 L1886.51 170.452 L1876.02 144.943 L1880.54 144.943 L1888.64 165.221 L1896.74 144.943 L1901.25 144.943 L1889.87 173.276 Z" fill="#000000" fill-rule="evenodd" fill-opacity="1" /><path clip-path="url(#clip440)" d="M 0 0 M1907.13 166.933 L1914.77 166.933 L1914.77 140.568 L1906.46 142.235 L1906.46 137.975 L1914.73 136.309 L1919.4 136.309 L1919.4 166.933 L1927.04 166.933 L1927.04 170.869 L1907.13 170.869 L1907.13 166.933 Z" fill="#000000" fill-rule="evenodd" fill-opacity="1" /><polyline clip-path="url(#clip440)" style="stroke:#e26f46; stroke-width:4; stroke-opacity:1; fill:none" points="
  1709.45,214.069 1852.23,214.069 
  "/>
<path clip-path="url(#clip440)" d="M 0 0 M1883.43 198.062 L1883.43 205.423 L1892.2 205.423 L1892.2 208.733 L1883.43 208.733 L1883.43 222.807 Q1883.43 225.978 1884.29 226.881 Q1885.17 227.784 1887.83 227.784 L1892.2 227.784 L1892.2 231.349 L1887.83 231.349 Q1882.9 231.349 1881.02 229.52 Q1879.15 227.668 1879.15 222.807 L1879.15 208.733 L1876.02 208.733 L1876.02 205.423 L1879.15 205.423 L1879.15 198.062 L1883.43 198.062 Z" fill="#000000" fill-rule="evenodd" fill-opacity="1" /><path clip-path="url(#clip440)" d="M 0 0 M1918.22 215.701 L1918.22 231.349 L1913.96 231.349 L1913.96 215.839 Q1913.96 212.159 1912.53 210.33 Q1911.09 208.502 1908.22 208.502 Q1904.77 208.502 1902.78 210.701 Q1900.79 212.9 1900.79 216.696 L1900.79 231.349 L1896.51 231.349 L1896.51 195.33 L1900.79 195.33 L1900.79 209.451 Q1902.32 207.113 1904.38 205.955 Q1906.46 204.798 1909.17 204.798 Q1913.64 204.798 1915.93 207.576 Q1918.22 210.33 1918.22 215.701 Z" fill="#000000" fill-rule="evenodd" fill-opacity="1" /><path clip-path="url(#clip440)" d="M 0 0 M1944.87 217.321 L1944.87 219.404 L1925.28 219.404 Q1925.56 223.802 1927.92 226.117 Q1930.31 228.409 1934.54 228.409 Q1937 228.409 1939.29 227.807 Q1941.6 227.205 1943.87 226.001 L1943.87 230.029 Q1941.58 231.001 1939.17 231.511 Q1936.76 232.02 1934.29 232.02 Q1928.08 232.02 1924.45 228.409 Q1920.84 224.798 1920.84 218.64 Q1920.84 212.275 1924.26 208.548 Q1927.71 204.798 1933.55 204.798 Q1938.78 204.798 1941.81 208.177 Q1944.87 211.534 1944.87 217.321 M1940.61 216.071 Q1940.56 212.576 1938.64 210.492 Q1936.74 208.409 1933.59 208.409 Q1930.03 208.409 1927.87 210.423 Q1925.75 212.437 1925.42 216.094 L1940.61 216.071 Z" fill="#000000" fill-rule="evenodd" fill-opacity="1" /><path clip-path="url(#clip440)" d="M 0 0 M1959.38 208.409 Q1955.95 208.409 1953.96 211.094 Q1951.97 213.756 1951.97 218.409 Q1951.97 223.062 1953.94 225.747 Q1955.93 228.409 1959.38 228.409 Q1962.78 228.409 1964.77 225.724 Q1966.76 223.038 1966.76 218.409 Q1966.76 213.802 1964.77 211.117 Q1962.78 208.409 1959.38 208.409 M1959.38 204.798 Q1964.93 204.798 1968.11 208.409 Q1971.28 212.02 1971.28 218.409 Q1971.28 224.775 1968.11 228.409 Q1964.93 232.02 1959.38 232.02 Q1953.8 232.02 1950.63 228.409 Q1947.48 224.775 1947.48 218.409 Q1947.48 212.02 1950.63 208.409 Q1953.8 204.798 1959.38 204.798 Z" fill="#000000" fill-rule="evenodd" fill-opacity="1" /><path clip-path="url(#clip440)" d="M 0 0 M1990.77 209.404 Q1990.05 208.988 1989.19 208.802 Q1988.36 208.594 1987.34 208.594 Q1983.73 208.594 1981.79 210.955 Q1979.87 213.293 1979.87 217.691 L1979.87 231.349 L1975.58 231.349 L1975.58 205.423 L1979.87 205.423 L1979.87 209.451 Q1981.21 207.089 1983.36 205.955 Q1985.51 204.798 1988.59 204.798 Q1989.03 204.798 1989.56 204.867 Q1990.1 204.914 1990.74 205.029 L1990.77 209.404 Z" fill="#000000" fill-rule="evenodd" fill-opacity="1" /><path clip-path="url(#clip440)" d="M 0 0 M2016.37 217.321 L2016.37 219.404 L1996.79 219.404 Q1997.06 223.802 1999.43 226.117 Q2001.81 228.409 2006.05 228.409 Q2008.5 228.409 2010.79 227.807 Q2013.11 227.205 2015.37 226.001 L2015.37 230.029 Q2013.08 231.001 2010.68 231.511 Q2008.27 232.02 2005.79 232.02 Q1999.59 232.02 1995.95 228.409 Q1992.34 224.798 1992.34 218.64 Q1992.34 212.275 1995.77 208.548 Q1999.22 204.798 2005.05 204.798 Q2010.28 204.798 2013.31 208.177 Q2016.37 211.534 2016.37 217.321 M2012.11 216.071 Q2012.06 212.576 2010.14 210.492 Q2008.24 208.409 2005.1 208.409 Q2001.53 208.409 1999.38 210.423 Q1997.25 212.437 1996.93 216.094 L2012.11 216.071 Z" fill="#000000" fill-rule="evenodd" fill-opacity="1" /><path clip-path="url(#clip440)" d="M 0 0 M2025.05 198.062 L2025.05 205.423 L2033.82 205.423 L2033.82 208.733 L2025.05 208.733 L2025.05 222.807 Q2025.05 225.978 2025.91 226.881 Q2026.79 227.784 2029.45 227.784 L2033.82 227.784 L2033.82 231.349 L2029.45 231.349 Q2024.52 231.349 2022.64 229.52 Q2020.77 227.668 2020.77 222.807 L2020.77 208.733 L2017.64 208.733 L2017.64 205.423 L2020.77 205.423 L2020.77 198.062 L2025.05 198.062 Z" fill="#000000" fill-rule="evenodd" fill-opacity="1" /><path clip-path="url(#clip440)" d="M 0 0 M2038.29 205.423 L2042.55 205.423 L2042.55 231.349 L2038.29 231.349 L2038.29 205.423 M2038.29 195.33 L2042.55 195.33 L2042.55 200.724 L2038.29 200.724 L2038.29 195.33 Z" fill="#000000" fill-rule="evenodd" fill-opacity="1" /><path clip-path="url(#clip440)" d="M 0 0 M2065.67 206.418 L2065.67 210.4 Q2063.87 209.404 2062.04 208.918 Q2060.24 208.409 2058.38 208.409 Q2054.24 208.409 2051.95 211.048 Q2049.66 213.664 2049.66 218.409 Q2049.66 223.154 2051.95 225.793 Q2054.24 228.409 2058.38 228.409 Q2060.24 228.409 2062.04 227.923 Q2063.87 227.413 2065.67 226.418 L2065.67 230.353 Q2063.89 231.187 2061.97 231.603 Q2060.07 232.02 2057.92 232.02 Q2052.06 232.02 2048.61 228.339 Q2045.17 224.659 2045.17 218.409 Q2045.17 212.066 2048.64 208.432 Q2052.13 204.798 2058.2 204.798 Q2060.17 204.798 2062.04 205.215 Q2063.92 205.608 2065.67 206.418 Z" fill="#000000" fill-rule="evenodd" fill-opacity="1" /><path clip-path="url(#clip440)" d="M 0 0 M2081.92 218.316 Q2076.76 218.316 2074.77 219.497 Q2072.78 220.677 2072.78 223.525 Q2072.78 225.793 2074.26 227.136 Q2075.77 228.455 2078.34 228.455 Q2081.88 228.455 2084.01 225.955 Q2086.16 223.432 2086.16 219.265 L2086.16 218.316 L2081.92 218.316 M2090.42 216.557 L2090.42 231.349 L2086.16 231.349 L2086.16 227.413 Q2084.7 229.775 2082.53 230.909 Q2080.35 232.02 2077.2 232.02 Q2073.22 232.02 2070.86 229.798 Q2068.52 227.552 2068.52 223.802 Q2068.52 219.427 2071.44 217.205 Q2074.38 214.983 2080.19 214.983 L2086.16 214.983 L2086.16 214.566 Q2086.16 211.627 2084.22 210.029 Q2082.3 208.409 2078.8 208.409 Q2076.58 208.409 2074.47 208.941 Q2072.36 209.474 2070.42 210.539 L2070.42 206.603 Q2072.76 205.701 2074.96 205.261 Q2077.16 204.798 2079.24 204.798 Q2084.86 204.798 2087.64 207.714 Q2090.42 210.631 2090.42 216.557 Z" fill="#000000" fill-rule="evenodd" fill-opacity="1" /><path clip-path="url(#clip440)" d="M 0 0 M2094.89 195.33 L2099.15 195.33 L2099.15 231.349 L2094.89 231.349 L2094.89 195.33 Z" fill="#000000" fill-rule="evenodd" fill-opacity="1" /><path clip-path="url(#clip440)" d="M 0 0 M2138.87 210.4 Q2140.47 207.529 2142.69 206.164 Q2144.91 204.798 2147.92 204.798 Q2151.97 204.798 2154.17 207.645 Q2156.37 210.469 2156.37 215.701 L2156.37 231.349 L2152.09 231.349 L2152.09 215.839 Q2152.09 212.113 2150.77 210.307 Q2149.45 208.502 2146.74 208.502 Q2143.43 208.502 2141.51 210.701 Q2139.59 212.9 2139.59 216.696 L2139.59 231.349 L2135.3 231.349 L2135.3 215.839 Q2135.3 212.089 2133.98 210.307 Q2132.67 208.502 2129.91 208.502 Q2126.65 208.502 2124.73 210.724 Q2122.8 212.923 2122.8 216.696 L2122.8 231.349 L2118.52 231.349 L2118.52 205.423 L2122.8 205.423 L2122.8 209.451 Q2124.26 207.066 2126.3 205.932 Q2128.34 204.798 2131.14 204.798 Q2133.96 204.798 2135.93 206.233 Q2137.92 207.668 2138.87 210.4 Z" fill="#000000" fill-rule="evenodd" fill-opacity="1" /><path clip-path="url(#clip440)" d="M 0 0 M2183.01 217.321 L2183.01 219.404 L2163.43 219.404 Q2163.71 223.802 2166.07 226.117 Q2168.45 228.409 2172.69 228.409 Q2175.14 228.409 2177.43 227.807 Q2179.75 227.205 2182.02 226.001 L2182.02 230.029 Q2179.73 231.001 2177.32 231.511 Q2174.91 232.02 2172.43 232.02 Q2166.23 232.02 2162.6 228.409 Q2158.98 224.798 2158.98 218.64 Q2158.98 212.275 2162.41 208.548 Q2165.86 204.798 2171.69 204.798 Q2176.92 204.798 2179.96 208.177 Q2183.01 211.534 2183.01 217.321 M2178.75 216.071 Q2178.71 212.576 2176.79 210.492 Q2174.89 208.409 2171.74 208.409 Q2168.17 208.409 2166.02 210.423 Q2163.89 212.437 2163.57 216.094 L2178.75 216.071 Z" fill="#000000" fill-rule="evenodd" fill-opacity="1" /><path clip-path="url(#clip440)" d="M 0 0 M2199.26 218.316 Q2194.1 218.316 2192.11 219.497 Q2190.12 220.677 2190.12 223.525 Q2190.12 225.793 2191.6 227.136 Q2193.1 228.455 2195.67 228.455 Q2199.22 228.455 2201.35 225.955 Q2203.5 223.432 2203.5 219.265 L2203.5 218.316 L2199.26 218.316 M2207.76 216.557 L2207.76 231.349 L2203.5 231.349 L2203.5 227.413 Q2202.04 229.775 2199.86 230.909 Q2197.69 232.02 2194.54 232.02 Q2190.56 232.02 2188.2 229.798 Q2185.86 227.552 2185.86 223.802 Q2185.86 219.427 2188.78 217.205 Q2191.72 214.983 2197.53 214.983 L2203.5 214.983 L2203.5 214.566 Q2203.5 211.627 2201.55 210.029 Q2199.63 208.409 2196.14 208.409 Q2193.92 208.409 2191.81 208.941 Q2189.7 209.474 2187.76 210.539 L2187.76 206.603 Q2190.1 205.701 2192.29 205.261 Q2194.49 204.798 2196.58 204.798 Q2202.2 204.798 2204.98 207.714 Q2207.76 210.631 2207.76 216.557 Z" fill="#000000" fill-rule="evenodd" fill-opacity="1" /><path clip-path="url(#clip440)" d="M 0 0 M2233.78 215.701 L2233.78 231.349 L2229.52 231.349 L2229.52 215.839 Q2229.52 212.159 2228.08 210.33 Q2226.65 208.502 2223.78 208.502 Q2220.33 208.502 2218.34 210.701 Q2216.35 212.9 2216.35 216.696 L2216.35 231.349 L2212.06 231.349 L2212.06 205.423 L2216.35 205.423 L2216.35 209.451 Q2217.87 207.113 2219.93 205.955 Q2222.02 204.798 2224.73 204.798 Q2229.19 204.798 2231.48 207.576 Q2233.78 210.33 2233.78 215.701 Z" fill="#000000" fill-rule="evenodd" fill-opacity="1" /><polyline clip-path="url(#clip440)" style="stroke:#3da44d; stroke-width:4; stroke-opacity:1; fill:none" points="
  1709.45,274.549 1852.23,274.549 
  "/>
<path clip-path="url(#clip440)" d="M 0 0 M1894.45 266.667 L1894.45 270.694 Q1892.64 269.769 1890.7 269.306 Q1888.75 268.843 1886.67 268.843 Q1883.5 268.843 1881.9 269.815 Q1880.33 270.787 1880.33 272.731 Q1880.33 274.213 1881.46 275.069 Q1882.6 275.903 1886.02 276.667 L1887.48 276.991 Q1892.02 277.963 1893.92 279.745 Q1895.84 281.505 1895.84 284.676 Q1895.84 288.287 1892.97 290.393 Q1890.12 292.5 1885.12 292.5 Q1883.04 292.5 1880.77 292.083 Q1878.52 291.69 1876.02 290.88 L1876.02 286.481 Q1878.38 287.708 1880.68 288.333 Q1882.97 288.935 1885.21 288.935 Q1888.22 288.935 1889.84 287.917 Q1891.46 286.875 1891.46 285 Q1891.46 283.264 1890.28 282.338 Q1889.12 281.412 1885.17 280.556 L1883.69 280.208 Q1879.73 279.375 1877.97 277.662 Q1876.21 275.926 1876.21 272.917 Q1876.21 269.259 1878.8 267.269 Q1881.39 265.278 1886.16 265.278 Q1888.52 265.278 1890.61 265.625 Q1892.69 265.972 1894.45 266.667 Z" fill="#000000" fill-rule="evenodd" fill-opacity="1" /><path clip-path="url(#clip440)" d="M 0 0 M1904.52 258.542 L1904.52 265.903 L1913.29 265.903 L1913.29 269.213 L1904.52 269.213 L1904.52 283.287 Q1904.52 286.458 1905.37 287.361 Q1906.25 288.264 1908.92 288.264 L1913.29 288.264 L1913.29 291.829 L1908.92 291.829 Q1903.99 291.829 1902.11 290 Q1900.24 288.148 1900.24 283.287 L1900.24 269.213 L1897.11 269.213 L1897.11 265.903 L1900.24 265.903 L1900.24 258.542 L1904.52 258.542 Z" fill="#000000" fill-rule="evenodd" fill-opacity="1" /><path clip-path="url(#clip440)" d="M 0 0 M1929.54 278.796 Q1924.38 278.796 1922.39 279.977 Q1920.4 281.157 1920.4 284.005 Q1920.4 286.273 1921.88 287.616 Q1923.38 288.935 1925.95 288.935 Q1929.5 288.935 1931.62 286.435 Q1933.78 283.912 1933.78 279.745 L1933.78 278.796 L1929.54 278.796 M1938.04 277.037 L1938.04 291.829 L1933.78 291.829 L1933.78 287.893 Q1932.32 290.255 1930.14 291.389 Q1927.97 292.5 1924.82 292.5 Q1920.84 292.5 1918.48 290.278 Q1916.14 288.032 1916.14 284.282 Q1916.14 279.907 1919.06 277.685 Q1922 275.463 1927.81 275.463 L1933.78 275.463 L1933.78 275.046 Q1933.78 272.107 1931.83 270.509 Q1929.91 268.889 1926.42 268.889 Q1924.19 268.889 1922.09 269.421 Q1919.98 269.954 1918.04 271.019 L1918.04 267.083 Q1920.37 266.181 1922.57 265.741 Q1924.77 265.278 1926.86 265.278 Q1932.48 265.278 1935.26 268.194 Q1938.04 271.111 1938.04 277.037 Z" fill="#000000" fill-rule="evenodd" fill-opacity="1" /><path clip-path="url(#clip440)" d="M 0 0 M1946.72 258.542 L1946.72 265.903 L1955.49 265.903 L1955.49 269.213 L1946.72 269.213 L1946.72 283.287 Q1946.72 286.458 1947.57 287.361 Q1948.45 288.264 1951.12 288.264 L1955.49 288.264 L1955.49 291.829 L1951.12 291.829 Q1946.18 291.829 1944.31 290 Q1942.43 288.148 1942.43 283.287 L1942.43 269.213 L1939.31 269.213 L1939.31 265.903 L1942.43 265.903 L1942.43 258.542 L1946.72 258.542 Z" fill="#000000" fill-rule="evenodd" fill-opacity="1" /><path clip-path="url(#clip440)" d="M 0 0 M1959.96 265.903 L1964.22 265.903 L1964.22 291.829 L1959.96 291.829 L1959.96 265.903 M1959.96 255.81 L1964.22 255.81 L1964.22 261.204 L1959.96 261.204 L1959.96 255.81 Z" fill="#000000" fill-rule="evenodd" fill-opacity="1" /><path clip-path="url(#clip440)" d="M 0 0 M1985.21 266.667 L1985.21 270.694 Q1983.41 269.769 1981.46 269.306 Q1979.52 268.843 1977.43 268.843 Q1974.26 268.843 1972.67 269.815 Q1971.09 270.787 1971.09 272.731 Q1971.09 274.213 1972.23 275.069 Q1973.36 275.903 1976.79 276.667 L1978.24 276.991 Q1982.78 277.963 1984.68 279.745 Q1986.6 281.505 1986.6 284.676 Q1986.6 288.287 1983.73 290.393 Q1980.88 292.5 1975.88 292.5 Q1973.8 292.5 1971.53 292.083 Q1969.29 291.69 1966.79 290.88 L1966.79 286.481 Q1969.15 287.708 1971.44 288.333 Q1973.73 288.935 1975.98 288.935 Q1978.99 288.935 1980.61 287.917 Q1982.23 286.875 1982.23 285 Q1982.23 283.264 1981.05 282.338 Q1979.89 281.412 1975.93 280.556 L1974.45 280.208 Q1970.49 279.375 1968.73 277.662 Q1966.97 275.926 1966.97 272.917 Q1966.97 269.259 1969.56 267.269 Q1972.16 265.278 1976.93 265.278 Q1979.29 265.278 1981.37 265.625 Q1983.45 265.972 1985.21 266.667 Z" fill="#000000" fill-rule="evenodd" fill-opacity="1" /><path clip-path="url(#clip440)" d="M 0 0 M1995.28 258.542 L1995.28 265.903 L2004.05 265.903 L2004.05 269.213 L1995.28 269.213 L1995.28 283.287 Q1995.28 286.458 1996.14 287.361 Q1997.02 288.264 1999.68 288.264 L2004.05 288.264 L2004.05 291.829 L1999.68 291.829 Q1994.75 291.829 1992.87 290 Q1991 288.148 1991 283.287 L1991 269.213 L1987.87 269.213 L1987.87 265.903 L1991 265.903 L1991 258.542 L1995.28 258.542 Z" fill="#000000" fill-rule="evenodd" fill-opacity="1" /><path clip-path="url(#clip440)" d="M 0 0 M2008.52 265.903 L2012.78 265.903 L2012.78 291.829 L2008.52 291.829 L2008.52 265.903 M2008.52 255.81 L2012.78 255.81 L2012.78 261.204 L2008.52 261.204 L2008.52 255.81 Z" fill="#000000" fill-rule="evenodd" fill-opacity="1" /><path clip-path="url(#clip440)" d="M 0 0 M2035.91 266.898 L2035.91 270.88 Q2034.1 269.884 2032.27 269.398 Q2030.47 268.889 2028.61 268.889 Q2024.47 268.889 2022.18 271.528 Q2019.89 274.144 2019.89 278.889 Q2019.89 283.634 2022.18 286.273 Q2024.47 288.889 2028.61 288.889 Q2030.47 288.889 2032.27 288.403 Q2034.1 287.893 2035.91 286.898 L2035.91 290.833 Q2034.12 291.667 2032.2 292.083 Q2030.3 292.5 2028.15 292.5 Q2022.3 292.5 2018.85 288.819 Q2015.4 285.139 2015.4 278.889 Q2015.4 272.546 2018.87 268.912 Q2022.37 265.278 2028.43 265.278 Q2030.4 265.278 2032.27 265.695 Q2034.15 266.088 2035.91 266.898 Z" fill="#000000" fill-rule="evenodd" fill-opacity="1" /><path clip-path="url(#clip440)" d="M 0 0 M2052.16 278.796 Q2046.99 278.796 2045 279.977 Q2043.01 281.157 2043.01 284.005 Q2043.01 286.273 2044.49 287.616 Q2046 288.935 2048.57 288.935 Q2052.11 288.935 2054.24 286.435 Q2056.39 283.912 2056.39 279.745 L2056.39 278.796 L2052.16 278.796 M2060.65 277.037 L2060.65 291.829 L2056.39 291.829 L2056.39 287.893 Q2054.93 290.255 2052.76 291.389 Q2050.58 292.5 2047.43 292.5 Q2043.45 292.5 2041.09 290.278 Q2038.75 288.032 2038.75 284.282 Q2038.75 279.907 2041.67 277.685 Q2044.61 275.463 2050.42 275.463 L2056.39 275.463 L2056.39 275.046 Q2056.39 272.107 2054.45 270.509 Q2052.53 268.889 2049.03 268.889 Q2046.81 268.889 2044.7 269.421 Q2042.6 269.954 2040.65 271.019 L2040.65 267.083 Q2042.99 266.181 2045.19 265.741 Q2047.39 265.278 2049.47 265.278 Q2055.1 265.278 2057.87 268.194 Q2060.65 271.111 2060.65 277.037 Z" fill="#000000" fill-rule="evenodd" fill-opacity="1" /><path clip-path="url(#clip440)" d="M 0 0 M2065.12 255.81 L2069.38 255.81 L2069.38 291.829 L2065.12 291.829 L2065.12 255.81 Z" fill="#000000" fill-rule="evenodd" fill-opacity="1" /><path clip-path="url(#clip440)" d="M 0 0 M2109.1 270.88 Q2110.7 268.009 2112.92 266.644 Q2115.14 265.278 2118.15 265.278 Q2122.2 265.278 2124.4 268.125 Q2126.6 270.949 2126.6 276.181 L2126.6 291.829 L2122.32 291.829 L2122.32 276.319 Q2122.32 272.593 2121 270.787 Q2119.68 268.982 2116.97 268.982 Q2113.66 268.982 2111.74 271.181 Q2109.82 273.38 2109.82 277.176 L2109.82 291.829 L2105.54 291.829 L2105.54 276.319 Q2105.54 272.569 2104.22 270.787 Q2102.9 268.982 2100.14 268.982 Q2096.88 268.982 2094.96 271.204 Q2093.04 273.403 2093.04 277.176 L2093.04 291.829 L2088.75 291.829 L2088.75 265.903 L2093.04 265.903 L2093.04 269.931 Q2094.49 267.546 2096.53 266.412 Q2098.57 265.278 2101.37 265.278 Q2104.19 265.278 2106.16 266.713 Q2108.15 268.148 2109.1 270.88 Z" fill="#000000" fill-rule="evenodd" fill-opacity="1" /><path clip-path="url(#clip440)" d="M 0 0 M2153.24 277.801 L2153.24 279.884 L2133.66 279.884 Q2133.94 284.282 2136.3 286.597 Q2138.68 288.889 2142.92 288.889 Q2145.37 288.889 2147.67 288.287 Q2149.98 287.685 2152.25 286.481 L2152.25 290.509 Q2149.96 291.481 2147.55 291.991 Q2145.14 292.5 2142.67 292.5 Q2136.46 292.5 2132.83 288.889 Q2129.22 285.278 2129.22 279.12 Q2129.22 272.755 2132.64 269.028 Q2136.09 265.278 2141.92 265.278 Q2147.16 265.278 2150.19 268.657 Q2153.24 272.014 2153.24 277.801 M2148.98 276.551 Q2148.94 273.056 2147.02 270.972 Q2145.12 268.889 2141.97 268.889 Q2138.41 268.889 2136.25 270.903 Q2134.12 272.917 2133.8 276.574 L2148.98 276.551 Z" fill="#000000" fill-rule="evenodd" fill-opacity="1" /><path clip-path="url(#clip440)" d="M 0 0 M2169.49 278.796 Q2164.33 278.796 2162.34 279.977 Q2160.35 281.157 2160.35 284.005 Q2160.35 286.273 2161.83 287.616 Q2163.34 288.935 2165.91 288.935 Q2169.45 288.935 2171.58 286.435 Q2173.73 283.912 2173.73 279.745 L2173.73 278.796 L2169.49 278.796 M2177.99 277.037 L2177.99 291.829 L2173.73 291.829 L2173.73 287.893 Q2172.27 290.255 2170.1 291.389 Q2167.92 292.5 2164.77 292.5 Q2160.79 292.5 2158.43 290.278 Q2156.09 288.032 2156.09 284.282 Q2156.09 279.907 2159.01 277.685 Q2161.95 275.463 2167.76 275.463 L2173.73 275.463 L2173.73 275.046 Q2173.73 272.107 2171.79 270.509 Q2169.86 268.889 2166.37 268.889 Q2164.15 268.889 2162.04 269.421 Q2159.93 269.954 2157.99 271.019 L2157.99 267.083 Q2160.33 266.181 2162.53 265.741 Q2164.73 265.278 2166.81 265.278 Q2172.43 265.278 2175.21 268.194 Q2177.99 271.111 2177.99 277.037 Z" fill="#000000" fill-rule="evenodd" fill-opacity="1" /><path clip-path="url(#clip440)" d="M 0 0 M2204.01 276.181 L2204.01 291.829 L2199.75 291.829 L2199.75 276.319 Q2199.75 272.639 2198.31 270.81 Q2196.88 268.982 2194.01 268.982 Q2190.56 268.982 2188.57 271.181 Q2186.58 273.38 2186.58 277.176 L2186.58 291.829 L2182.29 291.829 L2182.29 265.903 L2186.58 265.903 L2186.58 269.931 Q2188.1 267.593 2190.17 266.435 Q2192.25 265.278 2194.96 265.278 Q2199.42 265.278 2201.72 268.056 Q2204.01 270.81 2204.01 276.181 Z" fill="#000000" fill-rule="evenodd" fill-opacity="1" /></svg>
