<?xml version="1.0" encoding="utf-8" standalone="no"?>
<!DOCTYPE svg PUBLIC "-//W3C//DTD SVG 1.1//EN"
  "http://www.w3.org/Graphics/SVG/1.1/DTD/svg11.dtd">
<svg height="345.6pt" version="1.1" viewBox="0 0 460.8 345.6" width="460.8pt" xmlns="http://www.w3.org/2000/svg" xmlns:xlink="http://www.w3.org/1999/xlink">
 <metadata>
  <rdf:RDF xmlns:cc="http://creativecommons.org/ns#" xmlns:dc="http://purl.org/dc/elements/1.1/" xmlns:rdf="http://www.w3.org/1999/02/22-rdf-syntax-ns#">
   <cc:Work>
    <dc:type rdf:resource="http://purl.org/dc/dcmitype/StillImage"/>
    <dc:date>2021-09-13T16:29:36.559471</dc:date>
    <dc:format>image/svg+xml</dc:format>
    <dc:creator>
     <cc:Agent>
      <dc:title>Matplotlib v3.4.3, https://matplotlib.org/</dc:title>
     </cc:Agent>
    </dc:creator>
   </cc:Work>
  </rdf:RDF>
 </metadata>
 <defs>
  <style type="text/css">*{stroke-linecap:butt;stroke-linejoin:round;}</style>
 </defs>
 <g id="figure_1">
  <g id="patch_1">
   <path d="M 0 345.6 
L 460.8 345.6 
L 460.8 0 
L 0 0 
z
" style="fill:#ffffff;"/>
  </g>
  <g id="axes_1">
   <g id="patch_2">
    <path d="M 57.6 307.584 
L 414.72 307.584 
L 414.72 41.472 
L 57.6 41.472 
z
" style="fill:#ffffff;"/>
   </g>
   <g id="patch_3">
    <path clip-path="url(#p4a137b646f)" d="M 57.6 307.584 
L 111.351916 307.584 
L 111.351916 307.523853 
L 57.6 307.523853 
z
" style="fill:#1f77b4;"/>
   </g>
   <g id="patch_4">
    <path clip-path="url(#p4a137b646f)" d="M 111.351916 307.584 
L 142.794771 307.584 
L 142.794771 307.453093 
L 111.351916 307.453093 
z
" style="fill:#1f77b4;"/>
   </g>
   <g id="patch_5">
    <path clip-path="url(#p4a137b646f)" d="M 142.794771 307.584 
L 165.103832 307.584 
L 165.103832 307.272653 
L 142.794771 307.272653 
z
" style="fill:#1f77b4;"/>
   </g>
   <g id="patch_6">
    <path clip-path="url(#p4a137b646f)" d="M 165.103832 307.584 
L 182.408084 307.584 
L 182.408084 306.79148 
L 165.103832 306.79148 
z
" style="fill:#1f77b4;"/>
   </g>
   <g id="patch_7">
    <path clip-path="url(#p4a137b646f)" d="M 182.408084 307.584 
L 196.546687 307.584 
L 196.546687 306.16171 
L 182.408084 306.16171 
z
" style="fill:#1f77b4;"/>
   </g>
   <g id="patch_8">
    <path clip-path="url(#p4a137b646f)" d="M 196.546687 307.584 
L 208.500706 307.584 
L 208.500706 304.371465 
L 196.546687 304.371465 
z
" style="fill:#1f77b4;"/>
   </g>
   <g id="patch_9">
    <path clip-path="url(#p4a137b646f)" d="M 208.500706 307.584 
L 218.855748 307.584 
L 218.855748 301.371212 
L 208.500706 301.371212 
z
" style="fill:#1f77b4;"/>
   </g>
   <g id="patch_10">
    <path clip-path="url(#p4a137b646f)" d="M 218.855748 307.584 
L 227.989542 307.584 
L 227.989542 297.111419 
L 218.855748 297.111419 
z
" style="fill:#1f77b4;"/>
   </g>
   <g id="patch_11">
    <path clip-path="url(#p4a137b646f)" d="M 227.989542 307.584 
L 236.16 307.584 
L 236.16 291.531939 
L 227.989542 291.531939 
z
" style="fill:#1f77b4;"/>
   </g>
   <g id="patch_12">
    <path clip-path="url(#p4a137b646f)" d="M 236.16 307.584 
L 243.551078 307.584 
L 243.551078 284.462947 
L 236.16 284.462947 
z
" style="fill:#1f77b4;"/>
   </g>
   <g id="patch_13">
    <path clip-path="url(#p4a137b646f)" d="M 243.551078 307.584 
L 250.298603 307.584 
L 250.298603 274.485691 
L 243.551078 274.485691 
z
" style="fill:#1f77b4;"/>
   </g>
   <g id="patch_14">
    <path clip-path="url(#p4a137b646f)" d="M 250.298603 307.584 
L 256.505725 307.584 
L 256.505725 264.409369 
L 250.298603 264.409369 
z
" style="fill:#1f77b4;"/>
   </g>
   <g id="patch_15">
    <path clip-path="url(#p4a137b646f)" d="M 256.505725 307.584 
L 262.252622 307.584 
L 262.252622 251.177122 
L 256.505725 251.177122 
z
" style="fill:#1f77b4;"/>
   </g>
   <g id="patch_16">
    <path clip-path="url(#p4a137b646f)" d="M 262.252622 307.584 
L 267.602855 307.584 
L 267.602855 236.876388 
L 262.252622 236.876388 
z
" style="fill:#1f77b4;"/>
   </g>
   <g id="patch_17">
    <path clip-path="url(#p4a137b646f)" d="M 267.602855 307.584 
L 272.607664 307.584 
L 272.607664 219.465722 
L 267.602855 219.465722 
z
" style="fill:#1f77b4;"/>
   </g>
   <g id="patch_18">
    <path clip-path="url(#p4a137b646f)" d="M 272.607664 307.584 
L 277.308959 307.584 
L 277.308959 202.734358 
L 272.607664 202.734358 
z
" style="fill:#1f77b4;"/>
   </g>
   <g id="patch_19">
    <path clip-path="url(#p4a137b646f)" d="M 277.308959 307.584 
L 281.741459 307.584 
L 281.741459 185.960538 
L 277.308959 185.960538 
z
" style="fill:#1f77b4;"/>
   </g>
   <g id="patch_20">
    <path clip-path="url(#p4a137b646f)" d="M 281.741459 307.584 
L 285.934243 307.584 
L 285.934243 168.065161 
L 281.741459 168.065161 
z
" style="fill:#1f77b4;"/>
   </g>
   <g id="patch_21">
    <path clip-path="url(#p4a137b646f)" d="M 285.934243 307.584 
L 289.911916 307.584 
L 289.911916 150.979995 
L 285.934243 150.979995 
z
" style="fill:#1f77b4;"/>
   </g>
   <g id="patch_22">
    <path clip-path="url(#p4a137b646f)" d="M 289.911916 307.584 
L 293.695477 307.584 
L 293.695477 133.848833 
L 289.911916 133.848833 
z
" style="fill:#1f77b4;"/>
   </g>
   <g id="patch_23">
    <path clip-path="url(#p4a137b646f)" d="M 293.695477 307.584 
L 297.302994 307.584 
L 297.302994 120.078804 
L 293.695477 120.078804 
z
" style="fill:#1f77b4;"/>
   </g>
   <g id="patch_24">
    <path clip-path="url(#p4a137b646f)" d="M 297.302994 307.584 
L 300.750122 307.584 
L 300.750122 104.401775 
L 297.302994 104.401775 
z
" style="fill:#1f77b4;"/>
   </g>
   <g id="patch_25">
    <path clip-path="url(#p4a137b646f)" d="M 300.750122 307.584 
L 304.050519 307.584 
L 304.050519 91.293359 
L 300.750122 91.293359 
z
" style="fill:#1f77b4;"/>
   </g>
   <g id="patch_26">
    <path clip-path="url(#p4a137b646f)" d="M 304.050519 307.584 
L 307.216168 307.584 
L 307.216168 81.029521 
L 304.050519 81.029521 
z
" style="fill:#1f77b4;"/>
   </g>
   <g id="patch_27">
    <path clip-path="url(#p4a137b646f)" d="M 307.216168 307.584 
L 310.257641 307.584 
L 310.257641 72.495783 
L 307.216168 72.495783 
z
" style="fill:#1f77b4;"/>
   </g>
   <g id="patch_28">
    <path clip-path="url(#p4a137b646f)" d="M 310.257641 307.584 
L 313.184314 307.584 
L 313.184314 64.177865 
L 310.257641 64.177865 
z
" style="fill:#1f77b4;"/>
   </g>
   <g id="patch_29">
    <path clip-path="url(#p4a137b646f)" d="M 313.184314 307.584 
L 316.004538 307.584 
L 316.004538 60.841499 
L 313.184314 60.841499 
z
" style="fill:#1f77b4;"/>
   </g>
   <g id="patch_30">
    <path clip-path="url(#p4a137b646f)" d="M 316.004538 307.584 
L 318.725787 307.584 
L 318.725787 56.065153 
L 316.004538 56.065153 
z
" style="fill:#1f77b4;"/>
   </g>
   <g id="patch_31">
    <path clip-path="url(#p4a137b646f)" d="M 318.725787 307.584 
L 321.354771 307.584 
L 321.354771 55.562752 
L 318.725787 55.562752 
z
" style="fill:#1f77b4;"/>
   </g>
   <g id="patch_32">
    <path clip-path="url(#p4a137b646f)" d="M 321.354771 307.584 
L 323.897544 307.584 
L 323.897544 54.144 
L 321.354771 54.144 
z
" style="fill:#1f77b4;"/>
   </g>
   <g id="patch_33">
    <path clip-path="url(#p4a137b646f)" d="M 323.897544 307.584 
L 326.35958 307.584 
L 326.35958 57.303464 
L 323.897544 57.303464 
z
" style="fill:#1f77b4;"/>
   </g>
   <g id="patch_34">
    <path clip-path="url(#p4a137b646f)" d="M 326.35958 307.584 
L 328.745849 307.584 
L 328.745849 59.34491 
L 326.35958 59.34491 
z
" style="fill:#1f77b4;"/>
   </g>
   <g id="patch_35">
    <path clip-path="url(#p4a137b646f)" d="M 328.745849 307.584 
L 331.060875 307.584 
L 331.060875 63.151835 
L 328.745849 63.151835 
z
" style="fill:#1f77b4;"/>
   </g>
   <g id="patch_36">
    <path clip-path="url(#p4a137b646f)" d="M 331.060875 307.584 
L 333.30879 307.584 
L 333.30879 67.967099 
L 331.060875 67.967099 
z
" style="fill:#1f77b4;"/>
   </g>
   <g id="patch_37">
    <path clip-path="url(#p4a137b646f)" d="M 333.30879 307.584 
L 335.493375 307.584 
L 335.493375 73.843774 
L 333.30879 73.843774 
z
" style="fill:#1f77b4;"/>
   </g>
   <g id="patch_38">
    <path clip-path="url(#p4a137b646f)" d="M 335.493375 307.584 
L 337.6181 307.584 
L 337.6181 80.629724 
L 335.493375 80.629724 
z
" style="fill:#1f77b4;"/>
   </g>
   <g id="patch_39">
    <path clip-path="url(#p4a137b646f)" d="M 337.6181 307.584 
L 339.686159 307.584 
L 339.686159 89.198842 
L 337.6181 89.198842 
z
" style="fill:#1f77b4;"/>
   </g>
   <g id="patch_40">
    <path clip-path="url(#p4a137b646f)" d="M 339.686159 307.584 
L 341.700496 307.584 
L 341.700496 95.011832 
L 339.686159 95.011832 
z
" style="fill:#1f77b4;"/>
   </g>
   <g id="patch_41">
    <path clip-path="url(#p4a137b646f)" d="M 341.700496 307.584 
L 343.663832 307.584 
L 343.663832 102.958257 
L 341.700496 102.958257 
z
" style="fill:#1f77b4;"/>
   </g>
   <g id="patch_42">
    <path clip-path="url(#p4a137b646f)" d="M 343.663832 307.584 
L 345.578685 307.584 
L 345.578685 113.593588 
L 343.663832 113.593588 
z
" style="fill:#1f77b4;"/>
   </g>
   <g id="patch_43">
    <path clip-path="url(#p4a137b646f)" d="M 345.578685 307.584 
L 347.447393 307.584 
L 347.447393 119.410116 
L 345.578685 119.410116 
z
" style="fill:#1f77b4;"/>
   </g>
   <g id="patch_44">
    <path clip-path="url(#p4a137b646f)" d="M 347.447393 307.584 
L 349.272127 307.584 
L 349.272127 126.733847 
L 347.447393 126.733847 
z
" style="fill:#1f77b4;"/>
   </g>
   <g id="patch_45">
    <path clip-path="url(#p4a137b646f)" d="M 349.272127 307.584 
L 351.05491 307.584 
L 351.05491 137.457628 
L 349.272127 137.457628 
z
" style="fill:#1f77b4;"/>
   </g>
   <g id="patch_46">
    <path clip-path="url(#p4a137b646f)" d="M 351.05491 307.584 
L 352.797626 307.584 
L 352.797626 144.24004 
L 351.05491 144.24004 
z
" style="fill:#1f77b4;"/>
   </g>
   <g id="patch_47">
    <path clip-path="url(#p4a137b646f)" d="M 352.797626 307.584 
L 354.502038 307.584 
L 354.502038 152.929451 
L 352.797626 152.929451 
z
" style="fill:#1f77b4;"/>
   </g>
   <g id="patch_48">
    <path clip-path="url(#p4a137b646f)" d="M 354.502038 307.584 
L 356.169794 307.584 
L 356.169794 160.001982 
L 354.502038 160.001982 
z
" style="fill:#1f77b4;"/>
   </g>
   <g id="patch_49">
    <path clip-path="url(#p4a137b646f)" d="M 356.169794 307.584 
L 357.802435 307.584 
L 357.802435 166.87992 
L 356.169794 166.87992 
z
" style="fill:#1f77b4;"/>
   </g>
   <g id="patch_50">
    <path clip-path="url(#p4a137b646f)" d="M 357.802435 307.584 
L 359.401412 307.584 
L 359.401412 177.055306 
L 357.802435 177.055306 
z
" style="fill:#1f77b4;"/>
   </g>
   <g id="patch_51">
    <path clip-path="url(#p4a137b646f)" d="M 359.401412 307.584 
L 360.968084 307.584 
L 360.968084 182.84353 
L 359.401412 182.84353 
z
" style="fill:#1f77b4;"/>
   </g>
   <g id="patch_52">
    <path clip-path="url(#p4a137b646f)" d="M 360.968084 307.584 
L 362.503731 307.584 
L 362.503731 190.804107 
L 360.968084 190.804107 
z
" style="fill:#1f77b4;"/>
   </g>
   <g id="patch_53">
    <path clip-path="url(#p4a137b646f)" d="M 362.503731 307.584 
L 364.009557 307.584 
L 364.009557 197.958012 
L 362.503731 197.958012 
z
" style="fill:#1f77b4;"/>
   </g>
   <g id="patch_54">
    <path clip-path="url(#p4a137b646f)" d="M 364.009557 307.584 
L 365.486699 307.584 
L 365.486699 204.432614 
L 364.009557 204.432614 
z
" style="fill:#1f77b4;"/>
   </g>
   <g id="patch_55">
    <path clip-path="url(#p4a137b646f)" d="M 365.486699 307.584 
L 366.93623 307.584 
L 366.93623 210.500343 
L 365.486699 210.500343 
z
" style="fill:#1f77b4;"/>
   </g>
   <g id="patch_56">
    <path clip-path="url(#p4a137b646f)" d="M 366.93623 307.584 
L 368.359162 307.584 
L 368.359162 217.969133 
L 366.93623 217.969133 
z
" style="fill:#1f77b4;"/>
   </g>
   <g id="patch_57">
    <path clip-path="url(#p4a137b646f)" d="M 368.359162 307.584 
L 369.756454 307.584 
L 369.756454 223.042674 
L 368.359162 223.042674 
z
" style="fill:#1f77b4;"/>
   </g>
   <g id="patch_58">
    <path clip-path="url(#p4a137b646f)" d="M 369.756454 307.584 
L 371.129014 307.584 
L 371.129014 228.424024 
L 369.756454 228.424024 
z
" style="fill:#1f77b4;"/>
   </g>
   <g id="patch_59">
    <path clip-path="url(#p4a137b646f)" d="M 371.129014 307.584 
L 372.477703 307.584 
L 372.477703 232.797034 
L 371.129014 232.797034 
z
" style="fill:#1f77b4;"/>
   </g>
   <g id="patch_60">
    <path clip-path="url(#p4a137b646f)" d="M 372.477703 307.584 
L 373.803335 307.584 
L 373.803335 238.54634 
L 372.477703 238.54634 
z
" style="fill:#1f77b4;"/>
   </g>
   <g id="patch_61">
    <path clip-path="url(#p4a137b646f)" d="M 373.803335 307.584 
L 375.106687 307.584 
L 375.106687 243.53143 
L 373.803335 243.53143 
z
" style="fill:#1f77b4;"/>
   </g>
   <g id="patch_62">
    <path clip-path="url(#p4a137b646f)" d="M 375.106687 307.584 
L 376.388495 307.584 
L 376.388495 247.996429 
L 375.106687 247.996429 
z
" style="fill:#1f77b4;"/>
   </g>
   <g id="patch_63">
    <path clip-path="url(#p4a137b646f)" d="M 376.388495 307.584 
L 377.64946 307.584 
L 377.64946 251.874114 
L 376.388495 251.874114 
z
" style="fill:#1f77b4;"/>
   </g>
   <g id="patch_64">
    <path clip-path="url(#p4a137b646f)" d="M 377.64946 307.584 
L 378.890249 307.584 
L 378.890249 255.376768 
L 377.64946 255.376768 
z
" style="fill:#1f77b4;"/>
   </g>
   <g id="patch_65">
    <path clip-path="url(#p4a137b646f)" d="M 378.890249 307.584 
L 380.111496 307.584 
L 380.111496 260.549374 
L 378.890249 260.549374 
z
" style="fill:#1f77b4;"/>
   </g>
   <g id="patch_66">
    <path clip-path="url(#p4a137b646f)" d="M 380.111496 307.584 
L 381.313809 307.584 
L 381.313809 263.715915 
L 380.111496 263.715915 
z
" style="fill:#1f77b4;"/>
   </g>
   <g id="patch_67">
    <path clip-path="url(#p4a137b646f)" d="M 381.313809 307.584 
L 382.497765 307.584 
L 382.497765 266.726782 
L 381.313809 266.726782 
z
" style="fill:#1f77b4;"/>
   </g>
   <g id="patch_68">
    <path clip-path="url(#p4a137b646f)" d="M 382.497765 307.584 
L 383.663917 307.584 
L 383.663917 270.363881 
L 382.497765 270.363881 
z
" style="fill:#1f77b4;"/>
   </g>
   <g id="patch_69">
    <path clip-path="url(#p4a137b646f)" d="M 383.663917 307.584 
L 384.812791 307.584 
L 384.812791 272.960798 
L 383.663917 272.960798 
z
" style="fill:#1f77b4;"/>
   </g>
   <g id="patch_70">
    <path clip-path="url(#p4a137b646f)" d="M 384.812791 307.584 
L 385.944894 307.584 
L 385.944894 276.198099 
L 384.812791 276.198099 
z
" style="fill:#1f77b4;"/>
   </g>
   <g id="patch_71">
    <path clip-path="url(#p4a137b646f)" d="M 385.944894 307.584 
L 387.060706 307.584 
L 387.060706 278.462441 
L 385.944894 278.462441 
z
" style="fill:#1f77b4;"/>
   </g>
   <g id="patch_72">
    <path clip-path="url(#p4a137b646f)" d="M 387.060706 307.584 
L 388.160691 307.584 
L 388.160691 280.794005 
L 387.060706 280.794005 
z
" style="fill:#1f77b4;"/>
   </g>
   <g id="patch_73">
    <path clip-path="url(#p4a137b646f)" d="M 388.160691 307.584 
L 389.245291 307.584 
L 389.245291 283.185717 
L 388.160691 283.185717 
z
" style="fill:#1f77b4;"/>
   </g>
   <g id="patch_74">
    <path clip-path="url(#p4a137b646f)" d="M 389.245291 307.584 
L 390.31493 307.584 
L 390.31493 285.874622 
L 389.245291 285.874622 
z
" style="fill:#1f77b4;"/>
   </g>
   <g id="patch_75">
    <path clip-path="url(#p4a137b646f)" d="M 390.31493 307.584 
L 391.370016 307.584 
L 391.370016 287.211999 
L 390.31493 287.211999 
z
" style="fill:#1f77b4;"/>
   </g>
   <g id="patch_76">
    <path clip-path="url(#p4a137b646f)" d="M 391.370016 307.584 
L 392.410939 307.584 
L 392.410939 288.312328 
L 391.370016 288.312328 
z
" style="fill:#1f77b4;"/>
   </g>
   <g id="patch_77">
    <path clip-path="url(#p4a137b646f)" d="M 392.410939 307.584 
L 393.438075 307.584 
L 393.438075 290.863251 
L 392.410939 290.863251 
z
" style="fill:#1f77b4;"/>
   </g>
   <g id="patch_78">
    <path clip-path="url(#p4a137b646f)" d="M 393.438075 307.584 
L 394.451784 307.584 
L 394.451784 291.967117 
L 393.438075 291.967117 
z
" style="fill:#1f77b4;"/>
   </g>
   <g id="patch_79">
    <path clip-path="url(#p4a137b646f)" d="M 394.451784 307.584 
L 395.452412 307.584 
L 395.452412 292.841012 
L 394.451784 292.841012 
z
" style="fill:#1f77b4;"/>
   </g>
   <g id="patch_80">
    <path clip-path="url(#p4a137b646f)" d="M 395.452412 307.584 
L 396.440293 307.584 
L 396.440293 294.040405 
L 395.452412 294.040405 
z
" style="fill:#1f77b4;"/>
   </g>
   <g id="patch_81">
    <path clip-path="url(#p4a137b646f)" d="M 396.440293 307.584 
L 397.415748 307.584 
L 397.415748 295.445005 
L 396.440293 295.445005 
z
" style="fill:#1f77b4;"/>
   </g>
   <g id="patch_82">
    <path clip-path="url(#p4a137b646f)" d="M 397.415748 307.584 
L 398.379085 307.584 
L 398.379085 296.711621 
L 397.415748 296.711621 
z
" style="fill:#1f77b4;"/>
   </g>
   <g id="patch_83">
    <path clip-path="url(#p4a137b646f)" d="M 398.379085 307.584 
L 399.330601 307.584 
L 399.330601 297.564287 
L 398.379085 297.564287 
z
" style="fill:#1f77b4;"/>
   </g>
   <g id="patch_84">
    <path clip-path="url(#p4a137b646f)" d="M 399.330601 307.584 
L 400.270584 307.584 
L 400.270584 298.448796 
L 399.330601 298.448796 
z
" style="fill:#1f77b4;"/>
   </g>
   <g id="patch_85">
    <path clip-path="url(#p4a137b646f)" d="M 400.270584 307.584 
L 401.199309 307.584 
L 401.199309 299.66588 
L 400.270584 299.66588 
z
" style="fill:#1f77b4;"/>
   </g>
   <g id="patch_86">
    <path clip-path="url(#p4a137b646f)" d="M 401.199309 307.584 
L 402.117043 307.584 
L 402.117043 300.019683 
L 401.199309 300.019683 
z
" style="fill:#1f77b4;"/>
   </g>
   <g id="patch_87">
    <path clip-path="url(#p4a137b646f)" d="M 402.117043 307.584 
L 403.024043 307.584 
L 403.024043 300.861735 
L 402.117043 300.861735 
z
" style="fill:#1f77b4;"/>
   </g>
   <g id="patch_88">
    <path clip-path="url(#p4a137b646f)" d="M 403.024043 307.584 
L 403.920558 307.584 
L 403.920558 301.37475 
L 403.024043 301.37475 
z
" style="fill:#1f77b4;"/>
   </g>
   <g id="patch_89">
    <path clip-path="url(#p4a137b646f)" d="M 403.920558 307.584 
L 404.806826 307.584 
L 404.806826 302.068205 
L 403.920558 302.068205 
z
" style="fill:#1f77b4;"/>
   </g>
   <g id="patch_90">
    <path clip-path="url(#p4a137b646f)" d="M 404.806826 307.584 
L 405.68308 307.584 
L 405.68308 302.446774 
L 404.806826 302.446774 
z
" style="fill:#1f77b4;"/>
   </g>
   <g id="patch_91">
    <path clip-path="url(#p4a137b646f)" d="M 405.68308 307.584 
L 406.549542 307.584 
L 406.549542 303.21099 
L 405.68308 303.21099 
z
" style="fill:#1f77b4;"/>
   </g>
   <g id="patch_92">
    <path clip-path="url(#p4a137b646f)" d="M 406.549542 307.584 
L 407.406431 307.584 
L 407.406431 303.540027 
L 406.549542 303.540027 
z
" style="fill:#1f77b4;"/>
   </g>
   <g id="patch_93">
    <path clip-path="url(#p4a137b646f)" d="M 407.406431 307.584 
L 408.253954 307.584 
L 408.253954 303.869064 
L 407.406431 303.869064 
z
" style="fill:#1f77b4;"/>
   </g>
   <g id="patch_94">
    <path clip-path="url(#p4a137b646f)" d="M 408.253954 307.584 
L 409.092315 307.584 
L 409.092315 304.084884 
L 408.253954 304.084884 
z
" style="fill:#1f77b4;"/>
   </g>
   <g id="patch_95">
    <path clip-path="url(#p4a137b646f)" d="M 409.092315 307.584 
L 409.92171 307.584 
L 409.92171 304.587285 
L 409.092315 304.587285 
z
" style="fill:#1f77b4;"/>
   </g>
   <g id="patch_96">
    <path clip-path="url(#p4a137b646f)" d="M 409.92171 307.584 
L 410.742327 307.584 
L 410.742327 304.834947 
L 409.92171 304.834947 
z
" style="fill:#1f77b4;"/>
   </g>
   <g id="patch_97">
    <path clip-path="url(#p4a137b646f)" d="M 410.742327 307.584 
L 411.554351 307.584 
L 411.554351 305.050768 
L 410.742327 305.050768 
z
" style="fill:#1f77b4;"/>
   </g>
   <g id="patch_98">
    <path clip-path="url(#p4a137b646f)" d="M 411.554351 307.584 
L 412.357961 307.584 
L 412.357961 305.340886 
L 411.554351 305.340886 
z
" style="fill:#1f77b4;"/>
   </g>
   <g id="patch_99">
    <path clip-path="url(#p4a137b646f)" d="M 412.357961 307.584 
L 413.153328 307.584 
L 413.153328 305.631005 
L 412.357961 305.631005 
z
" style="fill:#1f77b4;"/>
   </g>
   <g id="patch_100">
    <path clip-path="url(#p4a137b646f)" d="M 413.153328 307.584 
L 413.94062 307.584 
L 413.94062 305.825597 
L 413.153328 305.825597 
z
" style="fill:#1f77b4;"/>
   </g>
   <g id="patch_101">
    <path clip-path="url(#p4a137b646f)" d="M 413.94062 307.584 
L 414.72 307.584 
L 414.72 306.048493 
L 413.94062 306.048493 
z
" style="fill:#1f77b4;"/>
   </g>
   <g id="patch_102">
    <path clip-path="url(#p4a137b646f)" d="M 414.72 307.584 
L 415.491625 307.584 
L 415.491625 306.182938 
L 414.72 306.182938 
z
" style="fill:#1f77b4;"/>
   </g>
   <g id="patch_103">
    <path clip-path="url(#p4a137b646f)" d="M 415.491625 307.584 
L 416.255647 307.584 
L 416.255647 306.349226 
L 415.491625 306.349226 
z
" style="fill:#1f77b4;"/>
   </g>
   <g id="patch_104">
    <path clip-path="url(#p4a137b646f)" d="M 416.255647 307.584 
L 417.012215 307.584 
L 417.012215 306.34215 
L 416.255647 306.34215 
z
" style="fill:#1f77b4;"/>
   </g>
   <g id="patch_105">
    <path clip-path="url(#p4a137b646f)" d="M 417.012215 307.584 
L 417.761473 307.584 
L 417.761473 306.458905 
L 417.012215 306.458905 
z
" style="fill:#1f77b4;"/>
   </g>
   <g id="patch_106">
    <path clip-path="url(#p4a137b646f)" d="M 417.761473 307.584 
L 418.503561 307.584 
L 418.503561 306.710106 
L 417.761473 306.710106 
z
" style="fill:#1f77b4;"/>
   </g>
   <g id="patch_107">
    <path clip-path="url(#p4a137b646f)" d="M 418.503561 307.584 
L 419.238615 307.584 
L 419.238615 306.798556 
L 418.503561 306.798556 
z
" style="fill:#1f77b4;"/>
   </g>
   <g id="patch_108">
    <path clip-path="url(#p4a137b646f)" d="M 419.238615 307.584 
L 419.966767 307.584 
L 419.966767 306.894083 
L 419.238615 306.894083 
z
" style="fill:#1f77b4;"/>
   </g>
   <g id="patch_109">
    <path clip-path="url(#p4a137b646f)" d="M 419.966767 307.584 
L 420.688146 307.584 
L 420.688146 306.961306 
L 419.966767 306.961306 
z
" style="fill:#1f77b4;"/>
   </g>
   <g id="patch_110">
    <path clip-path="url(#p4a137b646f)" d="M 420.688146 307.584 
L 421.402875 307.584 
L 421.402875 306.975458 
L 420.688146 306.975458 
z
" style="fill:#1f77b4;"/>
   </g>
   <g id="patch_111">
    <path clip-path="url(#p4a137b646f)" d="M 421.402875 307.584 
L 422.111078 307.584 
L 422.111078 307.053295 
L 421.402875 307.053295 
z
" style="fill:#1f77b4;"/>
   </g>
   <g id="patch_112">
    <path clip-path="url(#p4a137b646f)" d="M 422.111078 307.584 
L 422.812871 307.584 
L 422.812871 307.155898 
L 422.111078 307.155898 
z
" style="fill:#1f77b4;"/>
   </g>
   <g id="patch_113">
    <path clip-path="url(#p4a137b646f)" d="M 422.812871 307.584 
L 423.50837 307.584 
L 423.50837 307.180664 
L 422.812871 307.180664 
z
" style="fill:#1f77b4;"/>
   </g>
   <g id="patch_114">
    <path clip-path="url(#p4a137b646f)" d="M 423.50837 307.584 
L 424.197687 307.584 
L 424.197687 307.20543 
L 423.50837 307.20543 
z
" style="fill:#1f77b4;"/>
   </g>
   <g id="patch_115">
    <path clip-path="url(#p4a137b646f)" d="M 424.197687 307.584 
L 424.88093 307.584 
L 424.88093 307.15236 
L 424.197687 307.15236 
z
" style="fill:#1f77b4;"/>
   </g>
   <g id="patch_116">
    <path clip-path="url(#p4a137b646f)" d="M 424.88093 307.584 
L 425.558206 307.584 
L 425.558206 307.297419 
L 424.88093 307.297419 
z
" style="fill:#1f77b4;"/>
   </g>
   <g id="patch_117">
    <path clip-path="url(#p4a137b646f)" d="M 425.558206 307.584 
L 426.229619 307.584 
L 426.229619 307.3328 
L 425.558206 307.3328 
z
" style="fill:#1f77b4;"/>
   </g>
   <g id="patch_118">
    <path clip-path="url(#p4a137b646f)" d="M 426.229619 307.584 
L 426.895267 307.584 
L 426.895267 307.36818 
L 426.229619 307.36818 
z
" style="fill:#1f77b4;"/>
   </g>
   <g id="patch_119">
    <path clip-path="url(#p4a137b646f)" d="M 426.895267 307.584 
L 427.555251 307.584 
L 427.555251 307.3328 
L 426.895267 307.3328 
z
" style="fill:#1f77b4;"/>
   </g>
   <g id="patch_120">
    <path clip-path="url(#p4a137b646f)" d="M 427.555251 307.584 
L 428.209665 307.584 
L 428.209665 307.42125 
L 427.555251 307.42125 
z
" style="fill:#1f77b4;"/>
   </g>
   <g id="patch_121">
    <path clip-path="url(#p4a137b646f)" d="M 428.209665 307.584 
L 428.858603 307.584 
L 428.858603 307.410636 
L 428.209665 307.410636 
z
" style="fill:#1f77b4;"/>
   </g>
   <g id="patch_122">
    <path clip-path="url(#p4a137b646f)" d="M 428.858603 307.584 
L 429.502156 307.584 
L 429.502156 307.410636 
L 428.858603 307.410636 
z
" style="fill:#1f77b4;"/>
   </g>
   <g id="patch_123">
    <path clip-path="url(#p4a137b646f)" d="M 429.502156 307.584 
L 430.140411 307.584 
L 430.140411 307.463707 
L 429.502156 307.463707 
z
" style="fill:#1f77b4;"/>
   </g>
   <g id="patch_124">
    <path clip-path="url(#p4a137b646f)" d="M 430.140411 307.584 
L 430.773457 307.584 
L 430.773457 307.474321 
L 430.140411 307.474321 
z
" style="fill:#1f77b4;"/>
   </g>
   <g id="patch_125">
    <path clip-path="url(#p4a137b646f)" d="M 430.773457 307.584 
L 431.401376 307.584 
L 431.401376 307.477859 
L 430.773457 307.477859 
z
" style="fill:#1f77b4;"/>
   </g>
   <g id="patch_126">
    <path clip-path="url(#p4a137b646f)" d="M 431.401376 307.584 
L 432.024252 307.584 
L 432.024252 307.470783 
L 431.401376 307.470783 
z
" style="fill:#1f77b4;"/>
   </g>
   <g id="patch_127">
    <path clip-path="url(#p4a137b646f)" d="M 432.024252 307.584 
L 432.642165 307.584 
L 432.642165 307.509701 
L 432.024252 307.509701 
z
" style="fill:#1f77b4;"/>
   </g>
   <g id="patch_128">
    <path clip-path="url(#p4a137b646f)" d="M 432.642165 307.584 
L 433.255192 307.584 
L 433.255192 307.523853 
L 432.642165 307.523853 
z
" style="fill:#1f77b4;"/>
   </g>
   <g id="patch_129">
    <path clip-path="url(#p4a137b646f)" d="M 433.255192 307.584 
L 433.863412 307.584 
L 433.863412 307.545082 
L 433.255192 307.545082 
z
" style="fill:#1f77b4;"/>
   </g>
   <g id="patch_130">
    <path clip-path="url(#p4a137b646f)" d="M 433.863412 307.584 
L 434.466899 307.584 
L 434.466899 307.541544 
L 433.863412 307.541544 
z
" style="fill:#1f77b4;"/>
   </g>
   <g id="patch_131">
    <path clip-path="url(#p4a137b646f)" d="M 434.466899 307.584 
L 435.065725 307.584 
L 435.065725 307.527391 
L 434.466899 307.527391 
z
" style="fill:#1f77b4;"/>
   </g>
   <g id="patch_132">
    <path clip-path="url(#p4a137b646f)" d="M 435.065725 307.584 
L 435.659963 307.584 
L 435.659963 307.555696 
L 435.065725 307.555696 
z
" style="fill:#1f77b4;"/>
   </g>
   <g id="patch_133">
    <path clip-path="url(#p4a137b646f)" d="M 435.659963 307.584 
L 436.249681 307.584 
L 436.249681 307.562772 
L 435.659963 307.562772 
z
" style="fill:#1f77b4;"/>
   </g>
   <g id="patch_134">
    <path clip-path="url(#p4a137b646f)" d="M 436.249681 307.584 
L 436.834949 307.584 
L 436.834949 307.54862 
L 436.249681 307.54862 
z
" style="fill:#1f77b4;"/>
   </g>
   <g id="patch_135">
    <path clip-path="url(#p4a137b646f)" d="M 436.834949 307.584 
L 437.415833 307.584 
L 437.415833 307.538006 
L 436.834949 307.538006 
z
" style="fill:#1f77b4;"/>
   </g>
   <g id="patch_136">
    <path clip-path="url(#p4a137b646f)" d="M 437.415833 307.584 
L 437.992398 307.584 
L 437.992398 307.552158 
L 437.415833 307.552158 
z
" style="fill:#1f77b4;"/>
   </g>
   <g id="patch_137">
    <path clip-path="url(#p4a137b646f)" d="M 437.992398 307.584 
L 438.564707 307.584 
L 438.564707 307.576924 
L 437.992398 307.576924 
z
" style="fill:#1f77b4;"/>
   </g>
   <g id="patch_138">
    <path clip-path="url(#p4a137b646f)" d="M 438.564707 307.584 
L 439.132824 307.584 
L 439.132824 307.569848 
L 438.564707 307.569848 
z
" style="fill:#1f77b4;"/>
   </g>
   <g id="patch_139">
    <path clip-path="url(#p4a137b646f)" d="M 439.132824 307.584 
L 439.69681 307.584 
L 439.69681 307.545082 
L 439.132824 307.545082 
z
" style="fill:#1f77b4;"/>
   </g>
   <g id="patch_140">
    <path clip-path="url(#p4a137b646f)" d="M 439.69681 307.584 
L 440.256723 307.584 
L 440.256723 307.584 
L 439.69681 307.584 
z
" style="fill:#1f77b4;"/>
   </g>
   <g id="patch_141">
    <path clip-path="url(#p4a137b646f)" d="M 440.256723 307.584 
L 440.812622 307.584 
L 440.812622 307.569848 
L 440.256723 307.569848 
z
" style="fill:#1f77b4;"/>
   </g>
   <g id="patch_142">
    <path clip-path="url(#p4a137b646f)" d="M 440.812622 307.584 
L 441.364565 307.584 
L 441.364565 307.576924 
L 440.812622 307.576924 
z
" style="fill:#1f77b4;"/>
   </g>
   <g id="patch_143">
    <path clip-path="url(#p4a137b646f)" d="M 441.364565 307.584 
L 441.912607 307.584 
L 441.912607 307.580462 
L 441.364565 307.580462 
z
" style="fill:#1f77b4;"/>
   </g>
   <g id="patch_144">
    <path clip-path="url(#p4a137b646f)" d="M 441.912607 307.584 
L 442.456803 307.584 
L 442.456803 307.562772 
L 441.912607 307.562772 
z
" style="fill:#1f77b4;"/>
   </g>
   <g id="patch_145">
    <path clip-path="url(#p4a137b646f)" d="M 442.456803 307.584 
L 442.997207 307.584 
L 442.997207 307.576924 
L 442.456803 307.576924 
z
" style="fill:#1f77b4;"/>
   </g>
   <g id="patch_146">
    <path clip-path="url(#p4a137b646f)" d="M 442.997207 307.584 
L 443.53387 307.584 
L 443.53387 307.573386 
L 442.997207 307.573386 
z
" style="fill:#1f77b4;"/>
   </g>
   <g id="patch_147">
    <path clip-path="url(#p4a137b646f)" d="M 443.53387 307.584 
L 444.066846 307.584 
L 444.066846 307.580462 
L 443.53387 307.580462 
z
" style="fill:#1f77b4;"/>
   </g>
   <g id="patch_148">
    <path clip-path="url(#p4a137b646f)" d="M 444.066846 307.584 
L 444.596183 307.584 
L 444.596183 307.576924 
L 444.066846 307.576924 
z
" style="fill:#1f77b4;"/>
   </g>
   <g id="patch_149">
    <path clip-path="url(#p4a137b646f)" d="M 444.596183 307.584 
L 445.121932 307.584 
L 445.121932 307.580462 
L 444.596183 307.580462 
z
" style="fill:#1f77b4;"/>
   </g>
   <g id="patch_150">
    <path clip-path="url(#p4a137b646f)" d="M 445.121932 307.584 
L 445.64414 307.584 
L 445.64414 307.580462 
L 445.121932 307.580462 
z
" style="fill:#1f77b4;"/>
   </g>
   <g id="patch_151">
    <path clip-path="url(#p4a137b646f)" d="M 445.64414 307.584 
L 446.162855 307.584 
L 446.162855 307.580462 
L 445.64414 307.580462 
z
" style="fill:#1f77b4;"/>
   </g>
   <g id="patch_152">
    <path clip-path="url(#p4a137b646f)" d="M 446.162855 307.584 
L 446.678124 307.584 
L 446.678124 307.580462 
L 446.162855 307.580462 
z
" style="fill:#1f77b4;"/>
   </g>
   <g id="matplotlib.axis_1">
    <g id="xtick_1">
     <g id="line2d_1">
      <defs>
       <path d="M 0 0 
L 0 3.5 
" id="m073861c227" style="stroke:#000000;stroke-width:0.8;"/>
      </defs>
      <g>
       <use style="stroke:#000000;stroke-width:0.8;" x="57.6" xlink:href="#m073861c227" y="307.584"/>
      </g>
     </g>
     <g id="text_1">
      <!-- $\mathdefault{10^{0}}$ -->
      <g transform="translate(48.8 322.182437)scale(0.1 -0.1)">
       <defs>
        <path d="M 794 531 
L 1825 531 
L 1825 4091 
L 703 3866 
L 703 4441 
L 1819 4666 
L 2450 4666 
L 2450 531 
L 3481 531 
L 3481 0 
L 794 0 
L 794 531 
z
" id="DejaVuSans-31" transform="scale(0.015625)"/>
        <path d="M 2034 4250 
Q 1547 4250 1301 3770 
Q 1056 3291 1056 2328 
Q 1056 1369 1301 889 
Q 1547 409 2034 409 
Q 2525 409 2770 889 
Q 3016 1369 3016 2328 
Q 3016 3291 2770 3770 
Q 2525 4250 2034 4250 
z
M 2034 4750 
Q 2819 4750 3233 4129 
Q 3647 3509 3647 2328 
Q 3647 1150 3233 529 
Q 2819 -91 2034 -91 
Q 1250 -91 836 529 
Q 422 1150 422 2328 
Q 422 3509 836 4129 
Q 1250 4750 2034 4750 
z
" id="DejaVuSans-30" transform="scale(0.015625)"/>
       </defs>
       <use transform="translate(0 0.765625)" xlink:href="#DejaVuSans-31"/>
       <use transform="translate(63.623047 0.765625)" xlink:href="#DejaVuSans-30"/>
       <use transform="translate(128.203125 39.046875)scale(0.7)" xlink:href="#DejaVuSans-30"/>
      </g>
     </g>
    </g>
    <g id="xtick_2">
     <g id="line2d_2">
      <g>
       <use style="stroke:#000000;stroke-width:0.8;" x="236.16" xlink:href="#m073861c227" y="307.584"/>
      </g>
     </g>
     <g id="text_2">
      <!-- $\mathdefault{10^{1}}$ -->
      <g transform="translate(227.36 322.182437)scale(0.1 -0.1)">
       <use transform="translate(0 0.684375)" xlink:href="#DejaVuSans-31"/>
       <use transform="translate(63.623047 0.684375)" xlink:href="#DejaVuSans-30"/>
       <use transform="translate(128.203125 38.965625)scale(0.7)" xlink:href="#DejaVuSans-31"/>
      </g>
     </g>
    </g>
    <g id="xtick_3">
     <g id="line2d_3">
      <g>
       <use style="stroke:#000000;stroke-width:0.8;" x="414.72" xlink:href="#m073861c227" y="307.584"/>
      </g>
     </g>
     <g id="text_3">
      <!-- $\mathdefault{10^{2}}$ -->
      <g transform="translate(405.92 322.182437)scale(0.1 -0.1)">
       <defs>
        <path d="M 1228 531 
L 3431 531 
L 3431 0 
L 469 0 
L 469 531 
Q 828 903 1448 1529 
Q 2069 2156 2228 2338 
Q 2531 2678 2651 2914 
Q 2772 3150 2772 3378 
Q 2772 3750 2511 3984 
Q 2250 4219 1831 4219 
Q 1534 4219 1204 4116 
Q 875 4013 500 3803 
L 500 4441 
Q 881 4594 1212 4672 
Q 1544 4750 1819 4750 
Q 2544 4750 2975 4387 
Q 3406 4025 3406 3419 
Q 3406 3131 3298 2873 
Q 3191 2616 2906 2266 
Q 2828 2175 2409 1742 
Q 1991 1309 1228 531 
z
" id="DejaVuSans-32" transform="scale(0.015625)"/>
       </defs>
       <use transform="translate(0 0.765625)" xlink:href="#DejaVuSans-31"/>
       <use transform="translate(63.623047 0.765625)" xlink:href="#DejaVuSans-30"/>
       <use transform="translate(128.203125 39.046875)scale(0.7)" xlink:href="#DejaVuSans-32"/>
      </g>
     </g>
    </g>
    <g id="xtick_4">
     <g id="line2d_4">
      <defs>
       <path d="M 0 0 
L 0 2 
" id="m752fefcba3" style="stroke:#000000;stroke-width:0.6;"/>
      </defs>
      <g>
       <use style="stroke:#000000;stroke-width:0.6;" x="111.351916" xlink:href="#m752fefcba3" y="307.584"/>
      </g>
     </g>
    </g>
    <g id="xtick_5">
     <g id="line2d_5">
      <g>
       <use style="stroke:#000000;stroke-width:0.6;" x="142.794771" xlink:href="#m752fefcba3" y="307.584"/>
      </g>
     </g>
    </g>
    <g id="xtick_6">
     <g id="line2d_6">
      <g>
       <use style="stroke:#000000;stroke-width:0.6;" x="165.103832" xlink:href="#m752fefcba3" y="307.584"/>
      </g>
     </g>
    </g>
    <g id="xtick_7">
     <g id="line2d_7">
      <g>
       <use style="stroke:#000000;stroke-width:0.6;" x="182.408084" xlink:href="#m752fefcba3" y="307.584"/>
      </g>
     </g>
    </g>
    <g id="xtick_8">
     <g id="line2d_8">
      <g>
       <use style="stroke:#000000;stroke-width:0.6;" x="196.546687" xlink:href="#m752fefcba3" y="307.584"/>
      </g>
     </g>
    </g>
    <g id="xtick_9">
     <g id="line2d_9">
      <g>
       <use style="stroke:#000000;stroke-width:0.6;" x="208.500706" xlink:href="#m752fefcba3" y="307.584"/>
      </g>
     </g>
    </g>
    <g id="xtick_10">
     <g id="line2d_10">
      <g>
       <use style="stroke:#000000;stroke-width:0.6;" x="218.855748" xlink:href="#m752fefcba3" y="307.584"/>
      </g>
     </g>
    </g>
    <g id="xtick_11">
     <g id="line2d_11">
      <g>
       <use style="stroke:#000000;stroke-width:0.6;" x="227.989542" xlink:href="#m752fefcba3" y="307.584"/>
      </g>
     </g>
    </g>
    <g id="xtick_12">
     <g id="line2d_12">
      <g>
       <use style="stroke:#000000;stroke-width:0.6;" x="289.911916" xlink:href="#m752fefcba3" y="307.584"/>
      </g>
     </g>
    </g>
    <g id="xtick_13">
     <g id="line2d_13">
      <g>
       <use style="stroke:#000000;stroke-width:0.6;" x="321.354771" xlink:href="#m752fefcba3" y="307.584"/>
      </g>
     </g>
    </g>
    <g id="xtick_14">
     <g id="line2d_14">
      <g>
       <use style="stroke:#000000;stroke-width:0.6;" x="343.663832" xlink:href="#m752fefcba3" y="307.584"/>
      </g>
     </g>
    </g>
    <g id="xtick_15">
     <g id="line2d_15">
      <g>
       <use style="stroke:#000000;stroke-width:0.6;" x="360.968084" xlink:href="#m752fefcba3" y="307.584"/>
      </g>
     </g>
    </g>
    <g id="xtick_16">
     <g id="line2d_16">
      <g>
       <use style="stroke:#000000;stroke-width:0.6;" x="375.106687" xlink:href="#m752fefcba3" y="307.584"/>
      </g>
     </g>
    </g>
    <g id="xtick_17">
     <g id="line2d_17">
      <g>
       <use style="stroke:#000000;stroke-width:0.6;" x="387.060706" xlink:href="#m752fefcba3" y="307.584"/>
      </g>
     </g>
    </g>
    <g id="xtick_18">
     <g id="line2d_18">
      <g>
       <use style="stroke:#000000;stroke-width:0.6;" x="397.415748" xlink:href="#m752fefcba3" y="307.584"/>
      </g>
     </g>
    </g>
    <g id="xtick_19">
     <g id="line2d_19">
      <g>
       <use style="stroke:#000000;stroke-width:0.6;" x="406.549542" xlink:href="#m752fefcba3" y="307.584"/>
      </g>
     </g>
    </g>
   </g>
   <g id="matplotlib.axis_2">
    <g id="ytick_1">
     <g id="line2d_20">
      <defs>
       <path d="M 0 0 
L -3.5 0 
" id="mb937f55c78" style="stroke:#000000;stroke-width:0.8;"/>
      </defs>
      <g>
       <use style="stroke:#000000;stroke-width:0.8;" x="57.6" xlink:href="#mb937f55c78" y="307.584"/>
      </g>
     </g>
     <g id="text_4">
      <!-- 0.000 -->
      <g transform="translate(21.971875 311.383219)scale(0.1 -0.1)">
       <defs>
        <path d="M 684 794 
L 1344 794 
L 1344 0 
L 684 0 
L 684 794 
z
" id="DejaVuSans-2e" transform="scale(0.015625)"/>
       </defs>
       <use xlink:href="#DejaVuSans-30"/>
       <use x="63.623047" xlink:href="#DejaVuSans-2e"/>
       <use x="95.410156" xlink:href="#DejaVuSans-30"/>
       <use x="159.033203" xlink:href="#DejaVuSans-30"/>
       <use x="222.65625" xlink:href="#DejaVuSans-30"/>
      </g>
     </g>
    </g>
    <g id="ytick_2">
     <g id="line2d_21">
      <g>
       <use style="stroke:#000000;stroke-width:0.8;" x="57.6" xlink:href="#mb937f55c78" y="264.296665"/>
      </g>
     </g>
     <g id="text_5">
      <!-- 0.005 -->
      <g transform="translate(21.971875 268.095884)scale(0.1 -0.1)">
       <defs>
        <path d="M 691 4666 
L 3169 4666 
L 3169 4134 
L 1269 4134 
L 1269 2991 
Q 1406 3038 1543 3061 
Q 1681 3084 1819 3084 
Q 2600 3084 3056 2656 
Q 3513 2228 3513 1497 
Q 3513 744 3044 326 
Q 2575 -91 1722 -91 
Q 1428 -91 1123 -41 
Q 819 9 494 109 
L 494 744 
Q 775 591 1075 516 
Q 1375 441 1709 441 
Q 2250 441 2565 725 
Q 2881 1009 2881 1497 
Q 2881 1984 2565 2268 
Q 2250 2553 1709 2553 
Q 1456 2553 1204 2497 
Q 953 2441 691 2322 
L 691 4666 
z
" id="DejaVuSans-35" transform="scale(0.015625)"/>
       </defs>
       <use xlink:href="#DejaVuSans-30"/>
       <use x="63.623047" xlink:href="#DejaVuSans-2e"/>
       <use x="95.410156" xlink:href="#DejaVuSans-30"/>
       <use x="159.033203" xlink:href="#DejaVuSans-30"/>
       <use x="222.65625" xlink:href="#DejaVuSans-35"/>
      </g>
     </g>
    </g>
    <g id="ytick_3">
     <g id="line2d_22">
      <g>
       <use style="stroke:#000000;stroke-width:0.8;" x="57.6" xlink:href="#mb937f55c78" y="221.00933"/>
      </g>
     </g>
     <g id="text_6">
      <!-- 0.010 -->
      <g transform="translate(21.971875 224.808549)scale(0.1 -0.1)">
       <use xlink:href="#DejaVuSans-30"/>
       <use x="63.623047" xlink:href="#DejaVuSans-2e"/>
       <use x="95.410156" xlink:href="#DejaVuSans-30"/>
       <use x="159.033203" xlink:href="#DejaVuSans-31"/>
       <use x="222.65625" xlink:href="#DejaVuSans-30"/>
      </g>
     </g>
    </g>
    <g id="ytick_4">
     <g id="line2d_23">
      <g>
       <use style="stroke:#000000;stroke-width:0.8;" x="57.6" xlink:href="#mb937f55c78" y="177.721996"/>
      </g>
     </g>
     <g id="text_7">
      <!-- 0.015 -->
      <g transform="translate(21.971875 181.521214)scale(0.1 -0.1)">
       <use xlink:href="#DejaVuSans-30"/>
       <use x="63.623047" xlink:href="#DejaVuSans-2e"/>
       <use x="95.410156" xlink:href="#DejaVuSans-30"/>
       <use x="159.033203" xlink:href="#DejaVuSans-31"/>
       <use x="222.65625" xlink:href="#DejaVuSans-35"/>
      </g>
     </g>
    </g>
    <g id="ytick_5">
     <g id="line2d_24">
      <g>
       <use style="stroke:#000000;stroke-width:0.8;" x="57.6" xlink:href="#mb937f55c78" y="134.434661"/>
      </g>
     </g>
     <g id="text_8">
      <!-- 0.020 -->
      <g transform="translate(21.971875 138.23388)scale(0.1 -0.1)">
       <use xlink:href="#DejaVuSans-30"/>
       <use x="63.623047" xlink:href="#DejaVuSans-2e"/>
       <use x="95.410156" xlink:href="#DejaVuSans-30"/>
       <use x="159.033203" xlink:href="#DejaVuSans-32"/>
       <use x="222.65625" xlink:href="#DejaVuSans-30"/>
      </g>
     </g>
    </g>
    <g id="ytick_6">
     <g id="line2d_25">
      <g>
       <use style="stroke:#000000;stroke-width:0.8;" x="57.6" xlink:href="#mb937f55c78" y="91.147326"/>
      </g>
     </g>
     <g id="text_9">
      <!-- 0.025 -->
      <g transform="translate(21.971875 94.946545)scale(0.1 -0.1)">
       <use xlink:href="#DejaVuSans-30"/>
       <use x="63.623047" xlink:href="#DejaVuSans-2e"/>
       <use x="95.410156" xlink:href="#DejaVuSans-30"/>
       <use x="159.033203" xlink:href="#DejaVuSans-32"/>
       <use x="222.65625" xlink:href="#DejaVuSans-35"/>
      </g>
     </g>
    </g>
    <g id="ytick_7">
     <g id="line2d_26">
      <g>
       <use style="stroke:#000000;stroke-width:0.8;" x="57.6" xlink:href="#mb937f55c78" y="47.859991"/>
      </g>
     </g>
     <g id="text_10">
      <!-- 0.030 -->
      <g transform="translate(21.971875 51.65921)scale(0.1 -0.1)">
       <defs>
        <path d="M 2597 2516 
Q 3050 2419 3304 2112 
Q 3559 1806 3559 1356 
Q 3559 666 3084 287 
Q 2609 -91 1734 -91 
Q 1441 -91 1130 -33 
Q 819 25 488 141 
L 488 750 
Q 750 597 1062 519 
Q 1375 441 1716 441 
Q 2309 441 2620 675 
Q 2931 909 2931 1356 
Q 2931 1769 2642 2001 
Q 2353 2234 1838 2234 
L 1294 2234 
L 1294 2753 
L 1863 2753 
Q 2328 2753 2575 2939 
Q 2822 3125 2822 3475 
Q 2822 3834 2567 4026 
Q 2313 4219 1838 4219 
Q 1578 4219 1281 4162 
Q 984 4106 628 3988 
L 628 4550 
Q 988 4650 1302 4700 
Q 1616 4750 1894 4750 
Q 2613 4750 3031 4423 
Q 3450 4097 3450 3541 
Q 3450 3153 3228 2886 
Q 3006 2619 2597 2516 
z
" id="DejaVuSans-33" transform="scale(0.015625)"/>
       </defs>
       <use xlink:href="#DejaVuSans-30"/>
       <use x="63.623047" xlink:href="#DejaVuSans-2e"/>
       <use x="95.410156" xlink:href="#DejaVuSans-30"/>
       <use x="159.033203" xlink:href="#DejaVuSans-33"/>
       <use x="222.65625" xlink:href="#DejaVuSans-30"/>
      </g>
     </g>
    </g>
   </g>
   <g id="line2d_27">
    <path clip-path="url(#p4a137b646f)" d="M 57.6 307.495725 
L 111.351916 307.270194 
L 142.794771 306.753787 
L 165.103832 305.765012 
L 182.408084 304.094797 
L 196.546687 301.52549 
L 208.500706 297.851218 
L 218.855748 292.896805 
L 227.989542 286.533253 
L 236.16 278.688592 
L 243.551078 269.353681 
L 250.298603 258.583106 
L 256.505725 246.49179 
L 262.252622 233.248136 
L 267.602855 219.064667 
L 272.607664 204.187136 
L 277.308959 188.882978 
L 281.741459 173.429874 
L 285.934243 158.105026 
L 289.911916 143.175604 
L 293.695477 128.89066 
L 297.302994 115.474656 
L 300.750122 103.122675 
L 304.050519 91.997251 
L 307.216168 82.226702 
L 310.257641 73.904809 
L 313.184314 67.091638 
L 316.004538 61.8153 
L 318.725787 58.074442 
L 321.354771 55.841259 
L 323.897544 55.064863 
L 326.35958 55.674817 
L 328.745849 57.584725 
L 331.060875 60.695739 
L 333.30879 64.899901 
L 335.493375 70.083249 
L 337.6181 76.128637 
L 339.686159 82.918239 
L 341.700496 90.335716 
L 343.663832 98.268052 
L 345.578685 106.60706 
L 347.447393 115.250574 
L 349.272127 124.103353 
L 351.05491 133.077718 
L 352.797626 142.093955 
L 354.502038 151.080504 
L 356.169794 159.97398 
L 357.802435 168.719031 
L 359.401412 177.268092 
L 360.968084 185.581022 
L 362.503731 193.624683 
L 364.009557 201.372457 
L 365.486699 208.803729 
L 366.93623 215.903356 
L 368.359162 222.661119 
L 369.756454 229.071191 
L 371.129014 235.131614 
L 372.477703 240.843792 
L 373.803335 246.21202 
L 375.106687 251.243039 
L 376.388495 255.945617 
L 377.64946 260.330176 
L 378.890249 264.408448 
L 380.111496 268.193161 
L 381.313809 271.697769 
L 382.497765 274.936208 
L 383.663917 277.922684 
L 384.812791 280.671487 
L 385.944894 283.196843 
L 387.060706 285.512776 
L 388.160691 287.633003 
L 389.245291 289.570847 
L 390.31493 291.339165 
L 391.370016 292.950296 
L 392.410939 294.416023 
L 393.438075 295.747545 
L 394.451784 296.95546 
L 395.452412 298.049761 
L 396.440293 299.039836 
L 397.415748 299.934473 
L 398.379085 300.741875 
L 399.330601 301.469676 
L 400.270584 302.124962 
L 401.199309 302.71429 
L 402.117043 303.243719 
L 403.024043 303.718829 
L 403.920558 304.144748 
L 404.806826 304.526185 
L 405.68308 304.867448 
L 406.549542 305.172474 
L 407.406431 305.444858 
L 408.253954 305.687869 
L 409.092315 305.904483 
L 409.92171 306.097399 
L 410.742327 306.269064 
L 411.554351 306.421693 
L 412.357961 306.557286 
L 413.153328 306.677651 
L 413.94062 306.784415 
L 414.72 306.879043 
L 415.491625 306.962852 
L 416.255647 307.037027 
L 417.012215 307.102629 
L 417.761473 307.160607 
L 418.503561 307.211814 
L 419.238615 307.25701 
L 419.966767 307.296875 
L 420.688146 307.332016 
L 421.402875 307.362972 
L 422.111078 307.390226 
L 422.812871 307.414206 
L 423.50837 307.435293 
L 424.197687 307.453825 
L 424.88093 307.470103 
L 425.558206 307.484393 
L 426.229619 307.496931 
L 426.895267 307.507925 
L 427.555251 307.517561 
L 428.209665 307.526003 
L 428.858603 307.533394 
L 429.502156 307.539862 
L 430.140411 307.54552 
L 430.773457 307.550466 
L 431.401376 307.554789 
L 432.024252 307.558565 
" style="fill:none;stroke:#ff7f0e;stroke-linecap:square;stroke-width:1.5;"/>
   </g>
   <g id="patch_153">
    <path d="M 57.6 307.584 
L 57.6 41.472 
" style="fill:none;stroke:#000000;stroke-linecap:square;stroke-linejoin:miter;stroke-width:0.8;"/>
   </g>
   <g id="patch_154">
    <path d="M 414.72 307.584 
L 414.72 41.472 
" style="fill:none;stroke:#000000;stroke-linecap:square;stroke-linejoin:miter;stroke-width:0.8;"/>
   </g>
   <g id="patch_155">
    <path d="M 57.6 307.584 
L 414.72 307.584 
" style="fill:none;stroke:#000000;stroke-linecap:square;stroke-linejoin:miter;stroke-width:0.8;"/>
   </g>
   <g id="patch_156">
    <path d="M 57.6 41.472 
L 414.72 41.472 
" style="fill:none;stroke:#000000;stroke-linecap:square;stroke-linejoin:miter;stroke-width:0.8;"/>
   </g>
  </g>
 </g>
 <defs>
  <clipPath id="p4a137b646f">
   <rect height="266.112" width="357.12" x="57.6" y="41.472"/>
  </clipPath>
 </defs>
</svg>
