<?xml version="1.0" encoding="utf-8" standalone="no"?>
<!DOCTYPE svg PUBLIC "-//W3C//DTD SVG 1.1//EN"
  "http://www.w3.org/Graphics/SVG/1.1/DTD/svg11.dtd">
<svg height="345.6pt" version="1.1" viewBox="0 0 460.8 345.6" width="460.8pt" xmlns="http://www.w3.org/2000/svg" xmlns:xlink="http://www.w3.org/1999/xlink">
 <metadata>
  <rdf:RDF xmlns:cc="http://creativecommons.org/ns#" xmlns:dc="http://purl.org/dc/elements/1.1/" xmlns:rdf="http://www.w3.org/1999/02/22-rdf-syntax-ns#">
   <cc:Work>
    <dc:type rdf:resource="http://purl.org/dc/dcmitype/StillImage"/>
    <dc:date>2021-09-10T11:30:04.464280</dc:date>
    <dc:format>image/svg+xml</dc:format>
    <dc:creator>
     <cc:Agent>
      <dc:title>Matplotlib v3.4.2, https://matplotlib.org/</dc:title>
     </cc:Agent>
    </dc:creator>
   </cc:Work>
  </rdf:RDF>
 </metadata>
 <defs>
  <style type="text/css">*{stroke-linecap:butt;stroke-linejoin:round;}</style>
 </defs>
 <g id="figure_1">
  <g id="patch_1">
   <path d="M 0 345.6 
L 460.8 345.6 
L 460.8 0 
L 0 0 
z
" style="fill:#ffffff;"/>
  </g>
  <g id="axes_1">
   <g id="patch_2">
    <path d="M 57.6 307.584 
L 414.72 307.584 
L 414.72 41.472 
L 57.6 41.472 
z
" style="fill:#ffffff;"/>
   </g>
   <g id="patch_3">
    <path clip-path="url(#p28573d1c52)" d="M 57.6 307.584 
L 111.351916 307.584 
L 111.351916 307.550841 
L 57.6 307.550841 
z
" style="fill:#1f77b4;"/>
   </g>
   <g id="patch_4">
    <path clip-path="url(#p28573d1c52)" d="M 111.351916 307.584 
L 142.794771 307.584 
L 142.794771 307.572157 
L 111.351916 307.572157 
z
" style="fill:#1f77b4;"/>
   </g>
   <g id="patch_5">
    <path clip-path="url(#p28573d1c52)" d="M 142.794771 307.584 
L 165.103832 307.584 
L 165.103832 307.437151 
L 142.794771 307.437151 
z
" style="fill:#1f77b4;"/>
   </g>
   <g id="patch_6">
    <path clip-path="url(#p28573d1c52)" d="M 165.103832 307.584 
L 182.408084 307.584 
L 182.408084 307.311619 
L 165.103832 307.311619 
z
" style="fill:#1f77b4;"/>
   </g>
   <g id="patch_7">
    <path clip-path="url(#p28573d1c52)" d="M 182.408084 307.584 
L 196.546687 307.584 
L 196.546687 306.672115 
L 182.408084 306.672115 
z
" style="fill:#1f77b4;"/>
   </g>
   <g id="patch_8">
    <path clip-path="url(#p28573d1c52)" d="M 196.546687 307.584 
L 208.500706 307.584 
L 208.500706 306.06814 
L 196.546687 306.06814 
z
" style="fill:#1f77b4;"/>
   </g>
   <g id="patch_9">
    <path clip-path="url(#p28573d1c52)" d="M 208.500706 307.584 
L 218.855748 307.584 
L 218.855748 305.004669 
L 208.500706 305.004669 
z
" style="fill:#1f77b4;"/>
   </g>
   <g id="patch_10">
    <path clip-path="url(#p28573d1c52)" d="M 218.855748 307.584 
L 227.989542 307.584 
L 227.989542 302.903781 
L 218.855748 302.903781 
z
" style="fill:#1f77b4;"/>
   </g>
   <g id="patch_11">
    <path clip-path="url(#p28573d1c52)" d="M 227.989542 307.584 
L 236.16 307.584 
L 236.16 299.258611 
L 227.989542 299.258611 
z
" style="fill:#1f77b4;"/>
   </g>
   <g id="patch_12">
    <path clip-path="url(#p28573d1c52)" d="M 236.16 307.584 
L 243.551078 307.584 
L 243.551078 293.827568 
L 236.16 293.827568 
z
" style="fill:#1f77b4;"/>
   </g>
   <g id="patch_13">
    <path clip-path="url(#p28573d1c52)" d="M 243.551078 307.584 
L 250.298603 307.584 
L 250.298603 287.299894 
L 243.551078 287.299894 
z
" style="fill:#1f77b4;"/>
   </g>
   <g id="patch_14">
    <path clip-path="url(#p28573d1c52)" d="M 250.298603 307.584 
L 256.505725 307.584 
L 256.505725 279.211358 
L 250.298603 279.211358 
z
" style="fill:#1f77b4;"/>
   </g>
   <g id="patch_15">
    <path clip-path="url(#p28573d1c52)" d="M 256.505725 307.584 
L 262.252622 307.584 
L 262.252622 269.694598 
L 256.505725 269.694598 
z
" style="fill:#1f77b4;"/>
   </g>
   <g id="patch_16">
    <path clip-path="url(#p28573d1c52)" d="M 262.252622 307.584 
L 267.602855 307.584 
L 267.602855 257.522713 
L 262.252622 257.522713 
z
" style="fill:#1f77b4;"/>
   </g>
   <g id="patch_17">
    <path clip-path="url(#p28573d1c52)" d="M 267.602855 307.584 
L 272.607664 307.584 
L 272.607664 241.985145 
L 267.602855 241.985145 
z
" style="fill:#1f77b4;"/>
   </g>
   <g id="patch_18">
    <path clip-path="url(#p28573d1c52)" d="M 272.607664 307.584 
L 277.308959 307.584 
L 277.308959 229.109807 
L 272.607664 229.109807 
z
" style="fill:#1f77b4;"/>
   </g>
   <g id="patch_19">
    <path clip-path="url(#p28573d1c52)" d="M 277.308959 307.584 
L 281.741459 307.584 
L 281.741459 212.224544 
L 277.308959 212.224544 
z
" style="fill:#1f77b4;"/>
   </g>
   <g id="patch_20">
    <path clip-path="url(#p28573d1c52)" d="M 281.741459 307.584 
L 285.934243 307.584 
L 285.934243 192.319404 
L 281.741459 192.319404 
z
" style="fill:#1f77b4;"/>
   </g>
   <g id="patch_21">
    <path clip-path="url(#p28573d1c52)" d="M 285.934243 307.584 
L 289.911916 307.584 
L 289.911916 177.132378 
L 285.934243 177.132378 
z
" style="fill:#1f77b4;"/>
   </g>
   <g id="patch_22">
    <path clip-path="url(#p28573d1c52)" d="M 289.911916 307.584 
L 293.695477 307.584 
L 293.695477 159.060481 
L 289.911916 159.060481 
z
" style="fill:#1f77b4;"/>
   </g>
   <g id="patch_23">
    <path clip-path="url(#p28573d1c52)" d="M 293.695477 307.584 
L 297.302994 307.584 
L 297.302994 143.070524 
L 293.695477 143.070524 
z
" style="fill:#1f77b4;"/>
   </g>
   <g id="patch_24">
    <path clip-path="url(#p28573d1c52)" d="M 297.302994 307.584 
L 300.750122 307.584 
L 300.750122 125.635762 
L 297.302994 125.635762 
z
" style="fill:#1f77b4;"/>
   </g>
   <g id="patch_25">
    <path clip-path="url(#p28573d1c52)" d="M 300.750122 307.584 
L 304.050519 307.584 
L 304.050519 110.408471 
L 300.750122 110.408471 
z
" style="fill:#1f77b4;"/>
   </g>
   <g id="patch_26">
    <path clip-path="url(#p28573d1c52)" d="M 304.050519 307.584 
L 307.216168 307.584 
L 307.216168 96.040958 
L 304.050519 96.040958 
z
" style="fill:#1f77b4;"/>
   </g>
   <g id="patch_27">
    <path clip-path="url(#p28573d1c52)" d="M 307.216168 307.584 
L 310.257641 307.584 
L 310.257641 87.710832 
L 307.216168 87.710832 
z
" style="fill:#1f77b4;"/>
   </g>
   <g id="patch_28">
    <path clip-path="url(#p28573d1c52)" d="M 310.257641 307.584 
L 313.184314 307.584 
L 313.184314 74.899443 
L 310.257641 74.899443 
z
" style="fill:#1f77b4;"/>
   </g>
   <g id="patch_29">
    <path clip-path="url(#p28573d1c52)" d="M 313.184314 307.584 
L 316.004538 307.584 
L 316.004538 65.899023 
L 313.184314 65.899023 
z
" style="fill:#1f77b4;"/>
   </g>
   <g id="patch_30">
    <path clip-path="url(#p28573d1c52)" d="M 316.004538 307.584 
L 318.725787 307.584 
L 318.725787 61.263806 
L 316.004538 61.263806 
z
" style="fill:#1f77b4;"/>
   </g>
   <g id="patch_31">
    <path clip-path="url(#p28573d1c52)" d="M 318.725787 307.584 
L 321.354771 307.584 
L 321.354771 59.205552 
L 318.725787 59.205552 
z
" style="fill:#1f77b4;"/>
   </g>
   <g id="patch_32">
    <path clip-path="url(#p28573d1c52)" d="M 321.354771 307.584 
L 323.897544 307.584 
L 323.897544 57.242039 
L 321.354771 57.242039 
z
" style="fill:#1f77b4;"/>
   </g>
   <g id="patch_33">
    <path clip-path="url(#p28573d1c52)" d="M 323.897544 307.584 
L 326.35958 307.584 
L 326.35958 54.144 
L 323.897544 54.144 
z
" style="fill:#1f77b4;"/>
   </g>
   <g id="patch_34">
    <path clip-path="url(#p28573d1c52)" d="M 326.35958 307.584 
L 328.745849 307.584 
L 328.745849 59.828476 
L 326.35958 59.828476 
z
" style="fill:#1f77b4;"/>
   </g>
   <g id="patch_35">
    <path clip-path="url(#p28573d1c52)" d="M 328.745849 307.584 
L 331.060875 307.584 
L 331.060875 62.1449 
L 328.745849 62.1449 
z
" style="fill:#1f77b4;"/>
   </g>
   <g id="patch_36">
    <path clip-path="url(#p28573d1c52)" d="M 331.060875 307.584 
L 333.30879 307.584 
L 333.30879 65.332944 
L 331.060875 65.332944 
z
" style="fill:#1f77b4;"/>
   </g>
   <g id="patch_37">
    <path clip-path="url(#p28573d1c52)" d="M 333.30879 307.584 
L 335.493375 307.584 
L 335.493375 72.448013 
L 333.30879 72.448013 
z
" style="fill:#1f77b4;"/>
   </g>
   <g id="patch_38">
    <path clip-path="url(#p28573d1c52)" d="M 335.493375 307.584 
L 337.6181 307.584 
L 337.6181 79.584399 
L 335.493375 79.584399 
z
" style="fill:#1f77b4;"/>
   </g>
   <g id="patch_39">
    <path clip-path="url(#p28573d1c52)" d="M 337.6181 307.584 
L 339.686159 307.584 
L 339.686159 85.392039 
L 337.6181 85.392039 
z
" style="fill:#1f77b4;"/>
   </g>
   <g id="patch_40">
    <path clip-path="url(#p28573d1c52)" d="M 339.686159 307.584 
L 341.700496 307.584 
L 341.700496 94.176923 
L 339.686159 94.176923 
z
" style="fill:#1f77b4;"/>
   </g>
   <g id="patch_41">
    <path clip-path="url(#p28573d1c52)" d="M 341.700496 307.584 
L 343.663832 307.584 
L 343.663832 101.192514 
L 341.700496 101.192514 
z
" style="fill:#1f77b4;"/>
   </g>
   <g id="patch_42">
    <path clip-path="url(#p28573d1c52)" d="M 343.663832 307.584 
L 345.578685 307.584 
L 345.578685 110.337415 
L 343.663832 110.337415 
z
" style="fill:#1f77b4;"/>
   </g>
   <g id="patch_43">
    <path clip-path="url(#p28573d1c52)" d="M 345.578685 307.584 
L 347.447393 307.584 
L 347.447393 119.825753 
L 345.578685 119.825753 
z
" style="fill:#1f77b4;"/>
   </g>
   <g id="patch_44">
    <path clip-path="url(#p28573d1c52)" d="M 347.447393 307.584 
L 349.272127 307.584 
L 349.272127 127.165833 
L 347.447393 127.165833 
z
" style="fill:#1f77b4;"/>
   </g>
   <g id="patch_45">
    <path clip-path="url(#p28573d1c52)" d="M 349.272127 307.584 
L 351.05491 307.584 
L 351.05491 138.965858 
L 349.272127 138.965858 
z
" style="fill:#1f77b4;"/>
   </g>
   <g id="patch_46">
    <path clip-path="url(#p28573d1c52)" d="M 351.05491 307.584 
L 352.797626 307.584 
L 352.797626 145.389316 
L 351.05491 145.389316 
z
" style="fill:#1f77b4;"/>
   </g>
   <g id="patch_47">
    <path clip-path="url(#p28573d1c52)" d="M 352.797626 307.584 
L 354.502038 307.584 
L 354.502038 156.590103 
L 352.797626 156.590103 
z
" style="fill:#1f77b4;"/>
   </g>
   <g id="patch_48">
    <path clip-path="url(#p28573d1c52)" d="M 354.502038 307.584 
L 356.169794 307.584 
L 356.169794 166.478723 
L 354.502038 166.478723 
z
" style="fill:#1f77b4;"/>
   </g>
   <g id="patch_49">
    <path clip-path="url(#p28573d1c52)" d="M 356.169794 307.584 
L 357.802435 307.584 
L 357.802435 175.3394 
L 356.169794 175.3394 
z
" style="fill:#1f77b4;"/>
   </g>
   <g id="patch_50">
    <path clip-path="url(#p28573d1c52)" d="M 357.802435 307.584 
L 359.401412 307.584 
L 359.401412 184.410876 
L 357.802435 184.410876 
z
" style="fill:#1f77b4;"/>
   </g>
   <g id="patch_51">
    <path clip-path="url(#p28573d1c52)" d="M 359.401412 307.584 
L 360.968084 307.584 
L 360.968084 194.263968 
L 359.401412 194.263968 
z
" style="fill:#1f77b4;"/>
   </g>
   <g id="patch_52">
    <path clip-path="url(#p28573d1c52)" d="M 360.968084 307.584 
L 362.503731 307.584 
L 362.503731 200.597422 
L 360.968084 200.597422 
z
" style="fill:#1f77b4;"/>
   </g>
   <g id="patch_53">
    <path clip-path="url(#p28573d1c52)" d="M 362.503731 307.584 
L 364.009557 307.584 
L 364.009557 208.804384 
L 362.503731 208.804384 
z
" style="fill:#1f77b4;"/>
   </g>
   <g id="patch_54">
    <path clip-path="url(#p28573d1c52)" d="M 364.009557 307.584 
L 365.486699 307.584 
L 365.486699 217.013715 
L 364.009557 217.013715 
z
" style="fill:#1f77b4;"/>
   </g>
   <g id="patch_55">
    <path clip-path="url(#p28573d1c52)" d="M 365.486699 307.584 
L 366.93623 307.584 
L 366.93623 223.889563 
L 365.486699 223.889563 
z
" style="fill:#1f77b4;"/>
   </g>
   <g id="patch_56">
    <path clip-path="url(#p28573d1c52)" d="M 366.93623 307.584 
L 368.359162 307.584 
L 368.359162 230.668301 
L 366.93623 230.668301 
z
" style="fill:#1f77b4;"/>
   </g>
   <g id="patch_57">
    <path clip-path="url(#p28573d1c52)" d="M 368.359162 307.584 
L 369.756454 307.584 
L 369.756454 236.390673 
L 368.359162 236.390673 
z
" style="fill:#1f77b4;"/>
   </g>
   <g id="patch_58">
    <path clip-path="url(#p28573d1c52)" d="M 369.756454 307.584 
L 371.129014 307.584 
L 371.129014 243.174148 
L 369.756454 243.174148 
z
" style="fill:#1f77b4;"/>
   </g>
   <g id="patch_59">
    <path clip-path="url(#p28573d1c52)" d="M 371.129014 307.584 
L 372.477703 307.584 
L 372.477703 248.602823 
L 371.129014 248.602823 
z
" style="fill:#1f77b4;"/>
   </g>
   <g id="patch_60">
    <path clip-path="url(#p28573d1c52)" d="M 372.477703 307.584 
L 373.803335 307.584 
L 373.803335 253.981759 
L 372.477703 253.981759 
z
" style="fill:#1f77b4;"/>
   </g>
   <g id="patch_61">
    <path clip-path="url(#p28573d1c52)" d="M 373.803335 307.584 
L 375.106687 307.584 
L 375.106687 258.65724 
L 373.803335 258.65724 
z
" style="fill:#1f77b4;"/>
   </g>
   <g id="patch_62">
    <path clip-path="url(#p28573d1c52)" d="M 375.106687 307.584 
L 376.388495 307.584 
L 376.388495 263.434569 
L 375.106687 263.434569 
z
" style="fill:#1f77b4;"/>
   </g>
   <g id="patch_63">
    <path clip-path="url(#p28573d1c52)" d="M 376.388495 307.584 
L 377.64946 307.584 
L 377.64946 268.06268 
L 376.388495 268.06268 
z
" style="fill:#1f77b4;"/>
   </g>
   <g id="patch_64">
    <path clip-path="url(#p28573d1c52)" d="M 377.64946 307.584 
L 378.890249 307.584 
L 378.890249 271.028081 
L 377.64946 271.028081 
z
" style="fill:#1f77b4;"/>
   </g>
   <g id="patch_65">
    <path clip-path="url(#p28573d1c52)" d="M 378.890249 307.584 
L 380.111496 307.584 
L 380.111496 275.888308 
L 378.890249 275.888308 
z
" style="fill:#1f77b4;"/>
   </g>
   <g id="patch_66">
    <path clip-path="url(#p28573d1c52)" d="M 380.111496 307.584 
L 381.313809 307.584 
L 381.313809 278.922398 
L 380.111496 278.922398 
z
" style="fill:#1f77b4;"/>
   </g>
   <g id="patch_67">
    <path clip-path="url(#p28573d1c52)" d="M 381.313809 307.584 
L 382.497765 307.584 
L 382.497765 281.004337 
L 381.313809 281.004337 
z
" style="fill:#1f77b4;"/>
   </g>
   <g id="patch_68">
    <path clip-path="url(#p28573d1c52)" d="M 382.497765 307.584 
L 383.663917 307.584 
L 383.663917 284.14501 
L 382.497765 284.14501 
z
" style="fill:#1f77b4;"/>
   </g>
   <g id="patch_69">
    <path clip-path="url(#p28573d1c52)" d="M 383.663917 307.584 
L 384.812791 307.584 
L 384.812791 287.224101 
L 383.663917 287.224101 
z
" style="fill:#1f77b4;"/>
   </g>
   <g id="patch_70">
    <path clip-path="url(#p28573d1c52)" d="M 384.812791 307.584 
L 385.944894 307.584 
L 385.944894 288.879705 
L 384.812791 288.879705 
z
" style="fill:#1f77b4;"/>
   </g>
   <g id="patch_71">
    <path clip-path="url(#p28573d1c52)" d="M 385.944894 307.584 
L 387.060706 307.584 
L 387.060706 290.502149 
L 385.944894 290.502149 
z
" style="fill:#1f77b4;"/>
   </g>
   <g id="patch_72">
    <path clip-path="url(#p28573d1c52)" d="M 387.060706 307.584 
L 388.160691 307.584 
L 388.160691 292.378026 
L 387.060706 292.378026 
z
" style="fill:#1f77b4;"/>
   </g>
   <g id="patch_73">
    <path clip-path="url(#p28573d1c52)" d="M 388.160691 307.584 
L 389.245291 307.584 
L 389.245291 294.2918 
L 388.160691 294.2918 
z
" style="fill:#1f77b4;"/>
   </g>
   <g id="patch_74">
    <path clip-path="url(#p28573d1c52)" d="M 389.245291 307.584 
L 390.31493 307.584 
L 390.31493 295.883453 
L 389.245291 295.883453 
z
" style="fill:#1f77b4;"/>
   </g>
   <g id="patch_75">
    <path clip-path="url(#p28573d1c52)" d="M 390.31493 307.584 
L 391.370016 307.584 
L 391.370016 297.498792 
L 390.31493 297.498792 
z
" style="fill:#1f77b4;"/>
   </g>
   <g id="patch_76">
    <path clip-path="url(#p28573d1c52)" d="M 391.370016 307.584 
L 392.410939 307.584 
L 392.410939 298.325409 
L 391.370016 298.325409 
z
" style="fill:#1f77b4;"/>
   </g>
   <g id="patch_77">
    <path clip-path="url(#p28573d1c52)" d="M 392.410939 307.584 
L 393.438075 307.584 
L 393.438075 299.9218 
L 392.410939 299.9218 
z
" style="fill:#1f77b4;"/>
   </g>
   <g id="patch_78">
    <path clip-path="url(#p28573d1c52)" d="M 393.438075 307.584 
L 394.451784 307.584 
L 394.451784 300.511564 
L 393.438075 300.511564 
z
" style="fill:#1f77b4;"/>
   </g>
   <g id="patch_79">
    <path clip-path="url(#p28573d1c52)" d="M 394.451784 307.584 
L 395.452412 307.584 
L 395.452412 301.21265 
L 394.451784 301.21265 
z
" style="fill:#1f77b4;"/>
   </g>
   <g id="patch_80">
    <path clip-path="url(#p28573d1c52)" d="M 395.452412 307.584 
L 396.440293 307.584 
L 396.440293 302.046373 
L 395.452412 302.046373 
z
" style="fill:#1f77b4;"/>
   </g>
   <g id="patch_81">
    <path clip-path="url(#p28573d1c52)" d="M 396.440293 307.584 
L 397.415748 307.584 
L 397.415748 303.086158 
L 396.440293 303.086158 
z
" style="fill:#1f77b4;"/>
   </g>
   <g id="patch_82">
    <path clip-path="url(#p28573d1c52)" d="M 397.415748 307.584 
L 398.379085 307.584 
L 398.379085 303.396436 
L 397.415748 303.396436 
z
" style="fill:#1f77b4;"/>
   </g>
   <g id="patch_83">
    <path clip-path="url(#p28573d1c52)" d="M 398.379085 307.584 
L 399.330601 307.584 
L 399.330601 304.137786 
L 398.379085 304.137786 
z
" style="fill:#1f77b4;"/>
   </g>
   <g id="patch_84">
    <path clip-path="url(#p28573d1c52)" d="M 399.330601 307.584 
L 400.270584 307.584 
L 400.270584 304.715708 
L 399.330601 304.715708 
z
" style="fill:#1f77b4;"/>
   </g>
   <g id="patch_85">
    <path clip-path="url(#p28573d1c52)" d="M 400.270584 307.584 
L 401.199309 307.584 
L 401.199309 304.692023 
L 400.270584 304.692023 
z
" style="fill:#1f77b4;"/>
   </g>
   <g id="patch_86">
    <path clip-path="url(#p28573d1c52)" d="M 401.199309 307.584 
L 402.117043 307.584 
L 402.117043 305.288893 
L 401.199309 305.288893 
z
" style="fill:#1f77b4;"/>
   </g>
   <g id="patch_87">
    <path clip-path="url(#p28573d1c52)" d="M 402.117043 307.584 
L 403.024043 307.584 
L 403.024043 305.786284 
L 402.117043 305.786284 
z
" style="fill:#1f77b4;"/>
   </g>
   <g id="patch_88">
    <path clip-path="url(#p28573d1c52)" d="M 403.024043 307.584 
L 403.920558 307.584 
L 403.920558 305.881026 
L 403.024043 305.881026 
z
" style="fill:#1f77b4;"/>
   </g>
   <g id="patch_89">
    <path clip-path="url(#p28573d1c52)" d="M 403.920558 307.584 
L 404.806826 307.584 
L 404.806826 306.198409 
L 403.920558 306.198409 
z
" style="fill:#1f77b4;"/>
   </g>
   <g id="patch_90">
    <path clip-path="url(#p28573d1c52)" d="M 404.806826 307.584 
L 405.68308 307.584 
L 405.68308 306.501581 
L 404.806826 306.501581 
z
" style="fill:#1f77b4;"/>
   </g>
   <g id="patch_91">
    <path clip-path="url(#p28573d1c52)" d="M 405.68308 307.584 
L 406.549542 307.584 
L 406.549542 306.603428 
L 405.68308 306.603428 
z
" style="fill:#1f77b4;"/>
   </g>
   <g id="patch_92">
    <path clip-path="url(#p28573d1c52)" d="M 406.549542 307.584 
L 407.406431 307.584 
L 407.406431 306.662641 
L 406.549542 306.662641 
z
" style="fill:#1f77b4;"/>
   </g>
   <g id="patch_93">
    <path clip-path="url(#p28573d1c52)" d="M 407.406431 307.584 
L 408.253954 307.584 
L 408.253954 306.852124 
L 407.406431 306.852124 
z
" style="fill:#1f77b4;"/>
   </g>
   <g id="patch_94">
    <path clip-path="url(#p28573d1c52)" d="M 408.253954 307.584 
L 409.092315 307.584 
L 409.092315 306.935022 
L 408.253954 306.935022 
z
" style="fill:#1f77b4;"/>
   </g>
   <g id="patch_95">
    <path clip-path="url(#p28573d1c52)" d="M 409.092315 307.584 
L 409.92171 307.584 
L 409.92171 306.989499 
L 409.092315 306.989499 
z
" style="fill:#1f77b4;"/>
   </g>
   <g id="patch_96">
    <path clip-path="url(#p28573d1c52)" d="M 409.92171 307.584 
L 410.742327 307.584 
L 410.742327 307.105557 
L 409.92171 307.105557 
z
" style="fill:#1f77b4;"/>
   </g>
   <g id="patch_97">
    <path clip-path="url(#p28573d1c52)" d="M 410.742327 307.584 
L 411.554351 307.584 
L 411.554351 307.091345 
L 410.742327 307.091345 
z
" style="fill:#1f77b4;"/>
   </g>
   <g id="patch_98">
    <path clip-path="url(#p28573d1c52)" d="M 411.554351 307.584 
L 412.357961 307.584 
L 412.357961 307.162401 
L 411.554351 307.162401 
z
" style="fill:#1f77b4;"/>
   </g>
   <g id="patch_99">
    <path clip-path="url(#p28573d1c52)" d="M 412.357961 307.584 
L 413.153328 307.584 
L 413.153328 307.287934 
L 412.357961 307.287934 
z
" style="fill:#1f77b4;"/>
   </g>
   <g id="patch_100">
    <path clip-path="url(#p28573d1c52)" d="M 413.153328 307.584 
L 413.94062 307.584 
L 413.94062 307.259511 
L 413.153328 307.259511 
z
" style="fill:#1f77b4;"/>
   </g>
   <g id="patch_101">
    <path clip-path="url(#p28573d1c52)" d="M 413.94062 307.584 
L 414.72 307.584 
L 414.72 307.34241 
L 413.94062 307.34241 
z
" style="fill:#1f77b4;"/>
   </g>
   <g id="patch_102">
    <path clip-path="url(#p28573d1c52)" d="M 414.72 307.584 
L 415.491625 307.584 
L 415.491625 307.420571 
L 414.72 307.420571 
z
" style="fill:#1f77b4;"/>
   </g>
   <g id="patch_103">
    <path clip-path="url(#p28573d1c52)" d="M 415.491625 307.584 
L 416.255647 307.584 
L 416.255647 307.458468 
L 415.491625 307.458468 
z
" style="fill:#1f77b4;"/>
   </g>
   <g id="patch_104">
    <path clip-path="url(#p28573d1c52)" d="M 416.255647 307.584 
L 417.012215 307.584 
L 417.012215 307.498733 
L 416.255647 307.498733 
z
" style="fill:#1f77b4;"/>
   </g>
   <g id="patch_105">
    <path clip-path="url(#p28573d1c52)" d="M 417.012215 307.584 
L 417.761473 307.584 
L 417.761473 307.536629 
L 417.012215 307.536629 
z
" style="fill:#1f77b4;"/>
   </g>
   <g id="patch_106">
    <path clip-path="url(#p28573d1c52)" d="M 417.761473 307.584 
L 418.503561 307.584 
L 418.503561 307.527155 
L 417.761473 307.527155 
z
" style="fill:#1f77b4;"/>
   </g>
   <g id="patch_107">
    <path clip-path="url(#p28573d1c52)" d="M 418.503561 307.584 
L 419.238615 307.584 
L 419.238615 307.522418 
L 418.503561 307.522418 
z
" style="fill:#1f77b4;"/>
   </g>
   <g id="patch_108">
    <path clip-path="url(#p28573d1c52)" d="M 419.238615 307.584 
L 419.966767 307.584 
L 419.966767 307.557946 
L 419.238615 307.557946 
z
" style="fill:#1f77b4;"/>
   </g>
   <g id="patch_109">
    <path clip-path="url(#p28573d1c52)" d="M 419.966767 307.584 
L 420.688146 307.584 
L 420.688146 307.555578 
L 419.966767 307.555578 
z
" style="fill:#1f77b4;"/>
   </g>
   <g id="patch_110">
    <path clip-path="url(#p28573d1c52)" d="M 420.688146 307.584 
L 421.402875 307.584 
L 421.402875 307.562683 
L 420.688146 307.562683 
z
" style="fill:#1f77b4;"/>
   </g>
   <g id="patch_111">
    <path clip-path="url(#p28573d1c52)" d="M 421.402875 307.584 
L 422.111078 307.584 
L 422.111078 307.550841 
L 421.402875 307.550841 
z
" style="fill:#1f77b4;"/>
   </g>
   <g id="patch_112">
    <path clip-path="url(#p28573d1c52)" d="M 422.111078 307.584 
L 422.812871 307.584 
L 422.812871 307.543735 
L 422.111078 307.543735 
z
" style="fill:#1f77b4;"/>
   </g>
   <g id="patch_113">
    <path clip-path="url(#p28573d1c52)" d="M 422.812871 307.584 
L 423.50837 307.584 
L 423.50837 307.557946 
L 422.812871 307.557946 
z
" style="fill:#1f77b4;"/>
   </g>
   <g id="patch_114">
    <path clip-path="url(#p28573d1c52)" d="M 423.50837 307.584 
L 424.197687 307.584 
L 424.197687 307.56742 
L 423.50837 307.56742 
z
" style="fill:#1f77b4;"/>
   </g>
   <g id="patch_115">
    <path clip-path="url(#p28573d1c52)" d="M 424.197687 307.584 
L 424.88093 307.584 
L 424.88093 307.581631 
L 424.197687 307.581631 
z
" style="fill:#1f77b4;"/>
   </g>
   <g id="patch_116">
    <path clip-path="url(#p28573d1c52)" d="M 424.88093 307.584 
L 425.558206 307.584 
L 425.558206 307.576894 
L 424.88093 307.576894 
z
" style="fill:#1f77b4;"/>
   </g>
   <g id="patch_117">
    <path clip-path="url(#p28573d1c52)" d="M 425.558206 307.584 
L 426.229619 307.584 
L 426.229619 307.579263 
L 425.558206 307.579263 
z
" style="fill:#1f77b4;"/>
   </g>
   <g id="patch_118">
    <path clip-path="url(#p28573d1c52)" d="M 426.229619 307.584 
L 426.895267 307.584 
L 426.895267 307.579263 
L 426.229619 307.579263 
z
" style="fill:#1f77b4;"/>
   </g>
   <g id="patch_119">
    <path clip-path="url(#p28573d1c52)" d="M 426.895267 307.584 
L 427.555251 307.584 
L 427.555251 307.581631 
L 426.895267 307.581631 
z
" style="fill:#1f77b4;"/>
   </g>
   <g id="patch_120">
    <path clip-path="url(#p28573d1c52)" d="M 427.555251 307.584 
L 428.209665 307.584 
L 428.209665 307.581631 
L 427.555251 307.581631 
z
" style="fill:#1f77b4;"/>
   </g>
   <g id="patch_121">
    <path clip-path="url(#p28573d1c52)" d="M 428.209665 307.584 
L 428.858603 307.584 
L 428.858603 307.569789 
L 428.209665 307.569789 
z
" style="fill:#1f77b4;"/>
   </g>
   <g id="patch_122">
    <path clip-path="url(#p28573d1c52)" d="M 428.858603 307.584 
L 429.502156 307.584 
L 429.502156 307.576894 
L 428.858603 307.576894 
z
" style="fill:#1f77b4;"/>
   </g>
   <g id="patch_123">
    <path clip-path="url(#p28573d1c52)" d="M 429.502156 307.584 
L 430.140411 307.584 
L 430.140411 307.576894 
L 429.502156 307.576894 
z
" style="fill:#1f77b4;"/>
   </g>
   <g id="patch_124">
    <path clip-path="url(#p28573d1c52)" d="M 430.140411 307.584 
L 430.773457 307.584 
L 430.773457 307.581631 
L 430.140411 307.581631 
z
" style="fill:#1f77b4;"/>
   </g>
   <g id="patch_125">
    <path clip-path="url(#p28573d1c52)" d="M 430.773457 307.584 
L 431.401376 307.584 
L 431.401376 307.569789 
L 430.773457 307.569789 
z
" style="fill:#1f77b4;"/>
   </g>
   <g id="matplotlib.axis_1">
    <g id="xtick_1">
     <g id="line2d_1">
      <defs>
       <path d="M 0 0 
L 0 3.5 
" id="me705a66d3d" style="stroke:#000000;stroke-width:0.8;"/>
      </defs>
      <g>
       <use style="stroke:#000000;stroke-width:0.8;" x="57.6" xlink:href="#me705a66d3d" y="307.584"/>
      </g>
     </g>
     <g id="text_1">
      <!-- $\mathdefault{10^{0}}$ -->
      <g transform="translate(48.8 322.182437)scale(0.1 -0.1)">
       <defs>
        <path d="M 794 531 
L 1825 531 
L 1825 4091 
L 703 3866 
L 703 4441 
L 1819 4666 
L 2450 4666 
L 2450 531 
L 3481 531 
L 3481 0 
L 794 0 
L 794 531 
z
" id="DejaVuSans-31" transform="scale(0.015625)"/>
        <path d="M 2034 4250 
Q 1547 4250 1301 3770 
Q 1056 3291 1056 2328 
Q 1056 1369 1301 889 
Q 1547 409 2034 409 
Q 2525 409 2770 889 
Q 3016 1369 3016 2328 
Q 3016 3291 2770 3770 
Q 2525 4250 2034 4250 
z
M 2034 4750 
Q 2819 4750 3233 4129 
Q 3647 3509 3647 2328 
Q 3647 1150 3233 529 
Q 2819 -91 2034 -91 
Q 1250 -91 836 529 
Q 422 1150 422 2328 
Q 422 3509 836 4129 
Q 1250 4750 2034 4750 
z
" id="DejaVuSans-30" transform="scale(0.015625)"/>
       </defs>
       <use transform="translate(0 0.765625)" xlink:href="#DejaVuSans-31"/>
       <use transform="translate(63.623047 0.765625)" xlink:href="#DejaVuSans-30"/>
       <use transform="translate(128.203125 39.046875)scale(0.7)" xlink:href="#DejaVuSans-30"/>
      </g>
     </g>
    </g>
    <g id="xtick_2">
     <g id="line2d_2">
      <g>
       <use style="stroke:#000000;stroke-width:0.8;" x="236.16" xlink:href="#me705a66d3d" y="307.584"/>
      </g>
     </g>
     <g id="text_2">
      <!-- $\mathdefault{10^{1}}$ -->
      <g transform="translate(227.36 322.182437)scale(0.1 -0.1)">
       <use transform="translate(0 0.684375)" xlink:href="#DejaVuSans-31"/>
       <use transform="translate(63.623047 0.684375)" xlink:href="#DejaVuSans-30"/>
       <use transform="translate(128.203125 38.965625)scale(0.7)" xlink:href="#DejaVuSans-31"/>
      </g>
     </g>
    </g>
    <g id="xtick_3">
     <g id="line2d_3">
      <g>
       <use style="stroke:#000000;stroke-width:0.8;" x="414.72" xlink:href="#me705a66d3d" y="307.584"/>
      </g>
     </g>
     <g id="text_3">
      <!-- $\mathdefault{10^{2}}$ -->
      <g transform="translate(405.92 322.182437)scale(0.1 -0.1)">
       <defs>
        <path d="M 1228 531 
L 3431 531 
L 3431 0 
L 469 0 
L 469 531 
Q 828 903 1448 1529 
Q 2069 2156 2228 2338 
Q 2531 2678 2651 2914 
Q 2772 3150 2772 3378 
Q 2772 3750 2511 3984 
Q 2250 4219 1831 4219 
Q 1534 4219 1204 4116 
Q 875 4013 500 3803 
L 500 4441 
Q 881 4594 1212 4672 
Q 1544 4750 1819 4750 
Q 2544 4750 2975 4387 
Q 3406 4025 3406 3419 
Q 3406 3131 3298 2873 
Q 3191 2616 2906 2266 
Q 2828 2175 2409 1742 
Q 1991 1309 1228 531 
z
" id="DejaVuSans-32" transform="scale(0.015625)"/>
       </defs>
       <use transform="translate(0 0.765625)" xlink:href="#DejaVuSans-31"/>
       <use transform="translate(63.623047 0.765625)" xlink:href="#DejaVuSans-30"/>
       <use transform="translate(128.203125 39.046875)scale(0.7)" xlink:href="#DejaVuSans-32"/>
      </g>
     </g>
    </g>
    <g id="xtick_4">
     <g id="line2d_4">
      <defs>
       <path d="M 0 0 
L 0 2 
" id="mb6a149c418" style="stroke:#000000;stroke-width:0.6;"/>
      </defs>
      <g>
       <use style="stroke:#000000;stroke-width:0.6;" x="111.351916" xlink:href="#mb6a149c418" y="307.584"/>
      </g>
     </g>
    </g>
    <g id="xtick_5">
     <g id="line2d_5">
      <g>
       <use style="stroke:#000000;stroke-width:0.6;" x="142.794771" xlink:href="#mb6a149c418" y="307.584"/>
      </g>
     </g>
    </g>
    <g id="xtick_6">
     <g id="line2d_6">
      <g>
       <use style="stroke:#000000;stroke-width:0.6;" x="165.103832" xlink:href="#mb6a149c418" y="307.584"/>
      </g>
     </g>
    </g>
    <g id="xtick_7">
     <g id="line2d_7">
      <g>
       <use style="stroke:#000000;stroke-width:0.6;" x="182.408084" xlink:href="#mb6a149c418" y="307.584"/>
      </g>
     </g>
    </g>
    <g id="xtick_8">
     <g id="line2d_8">
      <g>
       <use style="stroke:#000000;stroke-width:0.6;" x="196.546687" xlink:href="#mb6a149c418" y="307.584"/>
      </g>
     </g>
    </g>
    <g id="xtick_9">
     <g id="line2d_9">
      <g>
       <use style="stroke:#000000;stroke-width:0.6;" x="208.500706" xlink:href="#mb6a149c418" y="307.584"/>
      </g>
     </g>
    </g>
    <g id="xtick_10">
     <g id="line2d_10">
      <g>
       <use style="stroke:#000000;stroke-width:0.6;" x="218.855748" xlink:href="#mb6a149c418" y="307.584"/>
      </g>
     </g>
    </g>
    <g id="xtick_11">
     <g id="line2d_11">
      <g>
       <use style="stroke:#000000;stroke-width:0.6;" x="227.989542" xlink:href="#mb6a149c418" y="307.584"/>
      </g>
     </g>
    </g>
    <g id="xtick_12">
     <g id="line2d_12">
      <g>
       <use style="stroke:#000000;stroke-width:0.6;" x="289.911916" xlink:href="#mb6a149c418" y="307.584"/>
      </g>
     </g>
    </g>
    <g id="xtick_13">
     <g id="line2d_13">
      <g>
       <use style="stroke:#000000;stroke-width:0.6;" x="321.354771" xlink:href="#mb6a149c418" y="307.584"/>
      </g>
     </g>
    </g>
    <g id="xtick_14">
     <g id="line2d_14">
      <g>
       <use style="stroke:#000000;stroke-width:0.6;" x="343.663832" xlink:href="#mb6a149c418" y="307.584"/>
      </g>
     </g>
    </g>
    <g id="xtick_15">
     <g id="line2d_15">
      <g>
       <use style="stroke:#000000;stroke-width:0.6;" x="360.968084" xlink:href="#mb6a149c418" y="307.584"/>
      </g>
     </g>
    </g>
    <g id="xtick_16">
     <g id="line2d_16">
      <g>
       <use style="stroke:#000000;stroke-width:0.6;" x="375.106687" xlink:href="#mb6a149c418" y="307.584"/>
      </g>
     </g>
    </g>
    <g id="xtick_17">
     <g id="line2d_17">
      <g>
       <use style="stroke:#000000;stroke-width:0.6;" x="387.060706" xlink:href="#mb6a149c418" y="307.584"/>
      </g>
     </g>
    </g>
    <g id="xtick_18">
     <g id="line2d_18">
      <g>
       <use style="stroke:#000000;stroke-width:0.6;" x="397.415748" xlink:href="#mb6a149c418" y="307.584"/>
      </g>
     </g>
    </g>
    <g id="xtick_19">
     <g id="line2d_19">
      <g>
       <use style="stroke:#000000;stroke-width:0.6;" x="406.549542" xlink:href="#mb6a149c418" y="307.584"/>
      </g>
     </g>
    </g>
   </g>
   <g id="matplotlib.axis_2">
    <g id="ytick_1">
     <g id="line2d_20">
      <defs>
       <path d="M 0 0 
L -3.5 0 
" id="m7a4908817b" style="stroke:#000000;stroke-width:0.8;"/>
      </defs>
      <g>
       <use style="stroke:#000000;stroke-width:0.8;" x="57.6" xlink:href="#m7a4908817b" y="307.584"/>
      </g>
     </g>
     <g id="text_4">
      <!-- 0.000 -->
      <g transform="translate(21.971875 311.383219)scale(0.1 -0.1)">
       <defs>
        <path d="M 684 794 
L 1344 794 
L 1344 0 
L 684 0 
L 684 794 
z
" id="DejaVuSans-2e" transform="scale(0.015625)"/>
       </defs>
       <use xlink:href="#DejaVuSans-30"/>
       <use x="63.623047" xlink:href="#DejaVuSans-2e"/>
       <use x="95.410156" xlink:href="#DejaVuSans-30"/>
       <use x="159.033203" xlink:href="#DejaVuSans-30"/>
       <use x="222.65625" xlink:href="#DejaVuSans-30"/>
      </g>
     </g>
    </g>
    <g id="ytick_2">
     <g id="line2d_21">
      <g>
       <use style="stroke:#000000;stroke-width:0.8;" x="57.6" xlink:href="#m7a4908817b" y="268.543278"/>
      </g>
     </g>
     <g id="text_5">
      <!-- 0.005 -->
      <g transform="translate(21.971875 272.342497)scale(0.1 -0.1)">
       <defs>
        <path d="M 691 4666 
L 3169 4666 
L 3169 4134 
L 1269 4134 
L 1269 2991 
Q 1406 3038 1543 3061 
Q 1681 3084 1819 3084 
Q 2600 3084 3056 2656 
Q 3513 2228 3513 1497 
Q 3513 744 3044 326 
Q 2575 -91 1722 -91 
Q 1428 -91 1123 -41 
Q 819 9 494 109 
L 494 744 
Q 775 591 1075 516 
Q 1375 441 1709 441 
Q 2250 441 2565 725 
Q 2881 1009 2881 1497 
Q 2881 1984 2565 2268 
Q 2250 2553 1709 2553 
Q 1456 2553 1204 2497 
Q 953 2441 691 2322 
L 691 4666 
z
" id="DejaVuSans-35" transform="scale(0.015625)"/>
       </defs>
       <use xlink:href="#DejaVuSans-30"/>
       <use x="63.623047" xlink:href="#DejaVuSans-2e"/>
       <use x="95.410156" xlink:href="#DejaVuSans-30"/>
       <use x="159.033203" xlink:href="#DejaVuSans-30"/>
       <use x="222.65625" xlink:href="#DejaVuSans-35"/>
      </g>
     </g>
    </g>
    <g id="ytick_3">
     <g id="line2d_22">
      <g>
       <use style="stroke:#000000;stroke-width:0.8;" x="57.6" xlink:href="#m7a4908817b" y="229.502557"/>
      </g>
     </g>
     <g id="text_6">
      <!-- 0.010 -->
      <g transform="translate(21.971875 233.301776)scale(0.1 -0.1)">
       <use xlink:href="#DejaVuSans-30"/>
       <use x="63.623047" xlink:href="#DejaVuSans-2e"/>
       <use x="95.410156" xlink:href="#DejaVuSans-30"/>
       <use x="159.033203" xlink:href="#DejaVuSans-31"/>
       <use x="222.65625" xlink:href="#DejaVuSans-30"/>
      </g>
     </g>
    </g>
    <g id="ytick_4">
     <g id="line2d_23">
      <g>
       <use style="stroke:#000000;stroke-width:0.8;" x="57.6" xlink:href="#m7a4908817b" y="190.461835"/>
      </g>
     </g>
     <g id="text_7">
      <!-- 0.015 -->
      <g transform="translate(21.971875 194.261054)scale(0.1 -0.1)">
       <use xlink:href="#DejaVuSans-30"/>
       <use x="63.623047" xlink:href="#DejaVuSans-2e"/>
       <use x="95.410156" xlink:href="#DejaVuSans-30"/>
       <use x="159.033203" xlink:href="#DejaVuSans-31"/>
       <use x="222.65625" xlink:href="#DejaVuSans-35"/>
      </g>
     </g>
    </g>
    <g id="ytick_5">
     <g id="line2d_24">
      <g>
       <use style="stroke:#000000;stroke-width:0.8;" x="57.6" xlink:href="#m7a4908817b" y="151.421114"/>
      </g>
     </g>
     <g id="text_8">
      <!-- 0.020 -->
      <g transform="translate(21.971875 155.220332)scale(0.1 -0.1)">
       <use xlink:href="#DejaVuSans-30"/>
       <use x="63.623047" xlink:href="#DejaVuSans-2e"/>
       <use x="95.410156" xlink:href="#DejaVuSans-30"/>
       <use x="159.033203" xlink:href="#DejaVuSans-32"/>
       <use x="222.65625" xlink:href="#DejaVuSans-30"/>
      </g>
     </g>
    </g>
    <g id="ytick_6">
     <g id="line2d_25">
      <g>
       <use style="stroke:#000000;stroke-width:0.8;" x="57.6" xlink:href="#m7a4908817b" y="112.380392"/>
      </g>
     </g>
     <g id="text_9">
      <!-- 0.025 -->
      <g transform="translate(21.971875 116.179611)scale(0.1 -0.1)">
       <use xlink:href="#DejaVuSans-30"/>
       <use x="63.623047" xlink:href="#DejaVuSans-2e"/>
       <use x="95.410156" xlink:href="#DejaVuSans-30"/>
       <use x="159.033203" xlink:href="#DejaVuSans-32"/>
       <use x="222.65625" xlink:href="#DejaVuSans-35"/>
      </g>
     </g>
    </g>
    <g id="ytick_7">
     <g id="line2d_26">
      <g>
       <use style="stroke:#000000;stroke-width:0.8;" x="57.6" xlink:href="#m7a4908817b" y="73.339671"/>
      </g>
     </g>
     <g id="text_10">
      <!-- 0.030 -->
      <g transform="translate(21.971875 77.138889)scale(0.1 -0.1)">
       <defs>
        <path d="M 2597 2516 
Q 3050 2419 3304 2112 
Q 3559 1806 3559 1356 
Q 3559 666 3084 287 
Q 2609 -91 1734 -91 
Q 1441 -91 1130 -33 
Q 819 25 488 141 
L 488 750 
Q 750 597 1062 519 
Q 1375 441 1716 441 
Q 2309 441 2620 675 
Q 2931 909 2931 1356 
Q 2931 1769 2642 2001 
Q 2353 2234 1838 2234 
L 1294 2234 
L 1294 2753 
L 1863 2753 
Q 2328 2753 2575 2939 
Q 2822 3125 2822 3475 
Q 2822 3834 2567 4026 
Q 2313 4219 1838 4219 
Q 1578 4219 1281 4162 
Q 984 4106 628 3988 
L 628 4550 
Q 988 4650 1302 4700 
Q 1616 4750 1894 4750 
Q 2613 4750 3031 4423 
Q 3450 4097 3450 3541 
Q 3450 3153 3228 2886 
Q 3006 2619 2597 2516 
z
" id="DejaVuSans-33" transform="scale(0.015625)"/>
       </defs>
       <use xlink:href="#DejaVuSans-30"/>
       <use x="63.623047" xlink:href="#DejaVuSans-2e"/>
       <use x="95.410156" xlink:href="#DejaVuSans-30"/>
       <use x="159.033203" xlink:href="#DejaVuSans-33"/>
       <use x="222.65625" xlink:href="#DejaVuSans-30"/>
      </g>
     </g>
    </g>
   </g>
   <g id="patch_126">
    <path d="M 57.6 307.584 
L 57.6 41.472 
" style="fill:none;stroke:#000000;stroke-linecap:square;stroke-linejoin:miter;stroke-width:0.8;"/>
   </g>
   <g id="patch_127">
    <path d="M 414.72 307.584 
L 414.72 41.472 
" style="fill:none;stroke:#000000;stroke-linecap:square;stroke-linejoin:miter;stroke-width:0.8;"/>
   </g>
   <g id="patch_128">
    <path d="M 57.6 307.584 
L 414.72 307.584 
" style="fill:none;stroke:#000000;stroke-linecap:square;stroke-linejoin:miter;stroke-width:0.8;"/>
   </g>
   <g id="patch_129">
    <path d="M 57.6 41.472 
L 414.72 41.472 
" style="fill:none;stroke:#000000;stroke-linecap:square;stroke-linejoin:miter;stroke-width:0.8;"/>
   </g>
  </g>
 </g>
 <defs>
  <clipPath id="p28573d1c52">
   <rect height="266.112" width="357.12" x="57.6" y="41.472"/>
  </clipPath>
 </defs>
</svg>
