<?xml version="1.0" encoding="utf-8" standalone="no"?>
<!DOCTYPE svg PUBLIC "-//W3C//DTD SVG 1.1//EN"
  "http://www.w3.org/Graphics/SVG/1.1/DTD/svg11.dtd">
<svg height="345.6pt" version="1.1" viewBox="0 0 460.8 345.6" width="460.8pt" xmlns="http://www.w3.org/2000/svg" xmlns:xlink="http://www.w3.org/1999/xlink">
 <metadata>
  <rdf:RDF xmlns:cc="http://creativecommons.org/ns#" xmlns:dc="http://purl.org/dc/elements/1.1/" xmlns:rdf="http://www.w3.org/1999/02/22-rdf-syntax-ns#">
   <cc:Work>
    <dc:type rdf:resource="http://purl.org/dc/dcmitype/StillImage"/>
    <dc:date>2021-09-13T16:35:43.176023</dc:date>
    <dc:format>image/svg+xml</dc:format>
    <dc:creator>
     <cc:Agent>
      <dc:title>Matplotlib v3.4.3, https://matplotlib.org/</dc:title>
     </cc:Agent>
    </dc:creator>
   </cc:Work>
  </rdf:RDF>
 </metadata>
 <defs>
  <style type="text/css">*{stroke-linecap:butt;stroke-linejoin:round;}</style>
 </defs>
 <g id="figure_1">
  <g id="patch_1">
   <path d="M 0 345.6 
L 460.8 345.6 
L 460.8 0 
L 0 0 
z
" style="fill:#ffffff;"/>
  </g>
  <g id="axes_1">
   <g id="patch_2">
    <path d="M 57.6 307.584 
L 414.72 307.584 
L 414.72 41.472 
L 57.6 41.472 
z
" style="fill:#ffffff;"/>
   </g>
   <g id="patch_3">
    <path clip-path="url(#pe9e50f36c9)" d="M -178502.4 307.584 
L 57.6 307.584 
L 57.6 307.556286 
L -178502.4 307.556286 
z
" style="fill:#1f77b4;"/>
   </g>
   <g id="patch_4">
    <path clip-path="url(#pe9e50f36c9)" d="M 57.6 307.584 
L 111.351916 307.584 
L 111.351916 306.943818 
L 57.6 306.943818 
z
" style="fill:#1f77b4;"/>
   </g>
   <g id="patch_5">
    <path clip-path="url(#pe9e50f36c9)" d="M 111.351916 307.584 
L 142.794771 307.584 
L 142.794771 305.918418 
L 111.351916 305.918418 
z
" style="fill:#1f77b4;"/>
   </g>
   <g id="patch_6">
    <path clip-path="url(#pe9e50f36c9)" d="M 142.794771 307.584 
L 165.103832 307.584 
L 165.103832 304.305492 
L 142.794771 304.305492 
z
" style="fill:#1f77b4;"/>
   </g>
   <g id="patch_7">
    <path clip-path="url(#pe9e50f36c9)" d="M 165.103832 307.584 
L 182.408084 307.584 
L 182.408084 299.782648 
L 165.103832 299.782648 
z
" style="fill:#1f77b4;"/>
   </g>
   <g id="patch_8">
    <path clip-path="url(#pe9e50f36c9)" d="M 182.408084 307.584 
L 196.546687 307.584 
L 196.546687 295.653336 
L 182.408084 295.653336 
z
" style="fill:#1f77b4;"/>
   </g>
   <g id="patch_9">
    <path clip-path="url(#pe9e50f36c9)" d="M 196.546687 307.584 
L 208.500706 307.584 
L 208.500706 287.089863 
L 196.546687 287.089863 
z
" style="fill:#1f77b4;"/>
   </g>
   <g id="patch_10">
    <path clip-path="url(#pe9e50f36c9)" d="M 208.500706 307.584 
L 218.855748 307.584 
L 218.855748 279.914837 
L 208.500706 279.914837 
z
" style="fill:#1f77b4;"/>
   </g>
   <g id="patch_11">
    <path clip-path="url(#pe9e50f36c9)" d="M 218.855748 307.584 
L 227.989542 307.584 
L 227.989542 266.68441 
L 218.855748 266.68441 
z
" style="fill:#1f77b4;"/>
   </g>
   <g id="patch_12">
    <path clip-path="url(#pe9e50f36c9)" d="M 227.989542 307.584 
L 236.16 307.584 
L 236.16 252.38147 
L 227.989542 252.38147 
z
" style="fill:#1f77b4;"/>
   </g>
   <g id="patch_13">
    <path clip-path="url(#pe9e50f36c9)" d="M 236.16 307.584 
L 243.551078 307.584 
L 243.551078 237.85128 
L 236.16 237.85128 
z
" style="fill:#1f77b4;"/>
   </g>
   <g id="patch_14">
    <path clip-path="url(#pe9e50f36c9)" d="M 243.551078 307.584 
L 250.298603 307.584 
L 250.298603 220.544196 
L 243.551078 220.544196 
z
" style="fill:#1f77b4;"/>
   </g>
   <g id="patch_15">
    <path clip-path="url(#pe9e50f36c9)" d="M 250.298603 307.584 
L 256.505725 307.584 
L 256.505725 199.495789 
L 250.298603 199.495789 
z
" style="fill:#1f77b4;"/>
   </g>
   <g id="patch_16">
    <path clip-path="url(#pe9e50f36c9)" d="M 256.505725 307.584 
L 262.252622 307.584 
L 262.252622 183.940199 
L 256.505725 183.940199 
z
" style="fill:#1f77b4;"/>
   </g>
   <g id="patch_17">
    <path clip-path="url(#pe9e50f36c9)" d="M 262.252622 307.584 
L 267.602855 307.584 
L 267.602855 168.625716 
L 262.252622 168.625716 
z
" style="fill:#1f77b4;"/>
   </g>
   <g id="patch_18">
    <path clip-path="url(#pe9e50f36c9)" d="M 267.602855 307.584 
L 272.607664 307.584 
L 272.607664 156.847477 
L 267.602855 156.847477 
z
" style="fill:#1f77b4;"/>
   </g>
   <g id="patch_19">
    <path clip-path="url(#pe9e50f36c9)" d="M 272.607664 307.584 
L 277.308959 307.584 
L 277.308959 137.786128 
L 272.607664 137.786128 
z
" style="fill:#1f77b4;"/>
   </g>
   <g id="patch_20">
    <path clip-path="url(#pe9e50f36c9)" d="M 277.308959 307.584 
L 281.741459 307.584 
L 281.741459 119.21808 
L 277.308959 119.21808 
z
" style="fill:#1f77b4;"/>
   </g>
   <g id="patch_21">
    <path clip-path="url(#pe9e50f36c9)" d="M 281.741459 307.584 
L 285.934243 307.584 
L 285.934243 108.160392 
L 281.741459 108.160392 
z
" style="fill:#1f77b4;"/>
   </g>
   <g id="patch_22">
    <path clip-path="url(#pe9e50f36c9)" d="M 285.934243 307.584 
L 289.911916 307.584 
L 289.911916 97.180301 
L 285.934243 97.180301 
z
" style="fill:#1f77b4;"/>
   </g>
   <g id="patch_23">
    <path clip-path="url(#pe9e50f36c9)" d="M 289.911916 307.584 
L 293.695477 307.584 
L 293.695477 84.767423 
L 289.911916 84.767423 
z
" style="fill:#1f77b4;"/>
   </g>
   <g id="patch_24">
    <path clip-path="url(#pe9e50f36c9)" d="M 293.695477 307.584 
L 297.302994 307.584 
L 297.302994 77.060297 
L 293.695477 77.060297 
z
" style="fill:#1f77b4;"/>
   </g>
   <g id="patch_25">
    <path clip-path="url(#pe9e50f36c9)" d="M 297.302994 307.584 
L 300.750122 307.584 
L 300.750122 72.179949 
L 297.302994 72.179949 
z
" style="fill:#1f77b4;"/>
   </g>
   <g id="patch_26">
    <path clip-path="url(#pe9e50f36c9)" d="M 300.750122 307.584 
L 304.050519 307.584 
L 304.050519 63.566592 
L 300.750122 63.566592 
z
" style="fill:#1f77b4;"/>
   </g>
   <g id="patch_27">
    <path clip-path="url(#pe9e50f36c9)" d="M 304.050519 307.584 
L 307.216168 307.584 
L 307.216168 60.121803 
L 304.050519 60.121803 
z
" style="fill:#1f77b4;"/>
   </g>
   <g id="patch_28">
    <path clip-path="url(#pe9e50f36c9)" d="M 307.216168 307.584 
L 310.257641 307.584 
L 310.257641 56.591102 
L 307.216168 56.591102 
z
" style="fill:#1f77b4;"/>
   </g>
   <g id="patch_29">
    <path clip-path="url(#pe9e50f36c9)" d="M 310.257641 307.584 
L 313.184314 307.584 
L 313.184314 59.010491 
L 310.257641 59.010491 
z
" style="fill:#1f77b4;"/>
   </g>
   <g id="patch_30">
    <path clip-path="url(#pe9e50f36c9)" d="M 313.184314 307.584 
L 316.004538 307.584 
L 316.004538 54.144 
L 313.184314 54.144 
z
" style="fill:#1f77b4;"/>
   </g>
   <g id="patch_31">
    <path clip-path="url(#pe9e50f36c9)" d="M 316.004538 307.584 
L 318.725787 307.584 
L 318.725787 61.144431 
L 316.004538 61.144431 
z
" style="fill:#1f77b4;"/>
   </g>
   <g id="patch_32">
    <path clip-path="url(#pe9e50f36c9)" d="M 318.725787 307.584 
L 321.354771 307.584 
L 321.354771 63.400311 
L 318.725787 63.400311 
z
" style="fill:#1f77b4;"/>
   </g>
   <g id="patch_33">
    <path clip-path="url(#pe9e50f36c9)" d="M 321.354771 307.584 
L 323.897544 307.584 
L 323.897544 63.954581 
L 321.354771 63.954581 
z
" style="fill:#1f77b4;"/>
   </g>
   <g id="patch_34">
    <path clip-path="url(#pe9e50f36c9)" d="M 323.897544 307.584 
L 326.35958 307.584 
L 326.35958 66.731474 
L 323.897544 66.731474 
z
" style="fill:#1f77b4;"/>
   </g>
   <g id="patch_35">
    <path clip-path="url(#pe9e50f36c9)" d="M 326.35958 307.584 
L 328.745849 307.584 
L 328.745849 72.969784 
L 326.35958 72.969784 
z
" style="fill:#1f77b4;"/>
   </g>
   <g id="patch_36">
    <path clip-path="url(#pe9e50f36c9)" d="M 328.745849 307.584 
L 331.060875 307.584 
L 331.060875 78.033041 
L 328.745849 78.033041 
z
" style="fill:#1f77b4;"/>
   </g>
   <g id="patch_37">
    <path clip-path="url(#pe9e50f36c9)" d="M 331.060875 307.584 
L 333.30879 307.584 
L 333.30879 84.060728 
L 331.060875 84.060728 
z
" style="fill:#1f77b4;"/>
   </g>
   <g id="patch_38">
    <path clip-path="url(#pe9e50f36c9)" d="M 333.30879 307.584 
L 335.493375 307.584 
L 335.493375 90.6316 
L 333.30879 90.6316 
z
" style="fill:#1f77b4;"/>
   </g>
   <g id="patch_39">
    <path clip-path="url(#pe9e50f36c9)" d="M 335.493375 307.584 
L 337.6181 307.584 
L 337.6181 99.563663 
L 335.493375 99.563663 
z
" style="fill:#1f77b4;"/>
   </g>
   <g id="patch_40">
    <path clip-path="url(#pe9e50f36c9)" d="M 337.6181 307.584 
L 339.686159 307.584 
L 339.686159 105.810287 
L 337.6181 105.810287 
z
" style="fill:#1f77b4;"/>
   </g>
   <g id="patch_41">
    <path clip-path="url(#pe9e50f36c9)" d="M 339.686159 307.584 
L 341.700496 307.584 
L 341.700496 112.131737 
L 339.686159 112.131737 
z
" style="fill:#1f77b4;"/>
   </g>
   <g id="patch_42">
    <path clip-path="url(#pe9e50f36c9)" d="M 341.700496 307.584 
L 343.663832 307.584 
L 343.663832 121.213453 
L 341.700496 121.213453 
z
" style="fill:#1f77b4;"/>
   </g>
   <g id="patch_43">
    <path clip-path="url(#pe9e50f36c9)" d="M 343.663832 307.584 
L 345.578685 307.584 
L 345.578685 124.644384 
L 343.663832 124.644384 
z
" style="fill:#1f77b4;"/>
   </g>
   <g id="patch_44">
    <path clip-path="url(#pe9e50f36c9)" d="M 345.578685 307.584 
L 347.447393 307.584 
L 347.447393 134.291455 
L 345.578685 134.291455 
z
" style="fill:#1f77b4;"/>
   </g>
   <g id="patch_45">
    <path clip-path="url(#pe9e50f36c9)" d="M 347.447393 307.584 
L 349.272127 307.584 
L 349.272127 142.217518 
L 347.447393 142.217518 
z
" style="fill:#1f77b4;"/>
   </g>
   <g id="patch_46">
    <path clip-path="url(#pe9e50f36c9)" d="M 349.272127 307.584 
L 351.05491 307.584 
L 351.05491 147.956985 
L 349.272127 147.956985 
z
" style="fill:#1f77b4;"/>
   </g>
   <g id="patch_47">
    <path clip-path="url(#pe9e50f36c9)" d="M 351.05491 307.584 
L 352.797626 307.584 
L 352.797626 155.586512 
L 351.05491 155.586512 
z
" style="fill:#1f77b4;"/>
   </g>
   <g id="patch_48">
    <path clip-path="url(#pe9e50f36c9)" d="M 352.797626 307.584 
L 354.502038 307.584 
L 354.502038 162.631285 
L 352.797626 162.631285 
z
" style="fill:#1f77b4;"/>
   </g>
   <g id="patch_49">
    <path clip-path="url(#pe9e50f36c9)" d="M 354.502038 307.584 
L 356.169794 307.584 
L 356.169794 168.010477 
L 354.502038 168.010477 
z
" style="fill:#1f77b4;"/>
   </g>
   <g id="patch_50">
    <path clip-path="url(#pe9e50f36c9)" d="M 356.169794 307.584 
L 357.802435 307.584 
L 357.802435 176.324528 
L 356.169794 176.324528 
z
" style="fill:#1f77b4;"/>
   </g>
   <g id="patch_51">
    <path clip-path="url(#pe9e50f36c9)" d="M 357.802435 307.584 
L 359.401412 307.584 
L 359.401412 182.354987 
L 357.802435 182.354987 
z
" style="fill:#1f77b4;"/>
   </g>
   <g id="patch_52">
    <path clip-path="url(#pe9e50f36c9)" d="M 359.401412 307.584 
L 360.968084 307.584 
L 360.968084 188.792834 
L 359.401412 188.792834 
z
" style="fill:#1f77b4;"/>
   </g>
   <g id="patch_53">
    <path clip-path="url(#pe9e50f36c9)" d="M 360.968084 307.584 
L 362.503731 307.584 
L 362.503731 194.177568 
L 360.968084 194.177568 
z
" style="fill:#1f77b4;"/>
   </g>
   <g id="patch_54">
    <path clip-path="url(#pe9e50f36c9)" d="M 362.503731 307.584 
L 364.009557 307.584 
L 364.009557 199.1272 
L 362.503731 199.1272 
z
" style="fill:#1f77b4;"/>
   </g>
   <g id="patch_55">
    <path clip-path="url(#pe9e50f36c9)" d="M 364.009557 307.584 
L 365.486699 307.584 
L 365.486699 205.008005 
L 364.009557 205.008005 
z
" style="fill:#1f77b4;"/>
   </g>
   <g id="patch_56">
    <path clip-path="url(#pe9e50f36c9)" d="M 365.486699 307.584 
L 366.93623 307.584 
L 366.93623 210.074034 
L 365.486699 210.074034 
z
" style="fill:#1f77b4;"/>
   </g>
   <g id="patch_57">
    <path clip-path="url(#pe9e50f36c9)" d="M 366.93623 307.584 
L 368.359162 307.584 
L 368.359162 216.087864 
L 366.93623 216.087864 
z
" style="fill:#1f77b4;"/>
   </g>
   <g id="patch_58">
    <path clip-path="url(#pe9e50f36c9)" d="M 368.359162 307.584 
L 369.756454 307.584 
L 369.756454 220.524797 
L 368.359162 220.524797 
z
" style="fill:#1f77b4;"/>
   </g>
   <g id="patch_59">
    <path clip-path="url(#pe9e50f36c9)" d="M 369.756454 307.584 
L 371.129014 307.584 
L 371.129014 225.003299 
L 369.756454 225.003299 
z
" style="fill:#1f77b4;"/>
   </g>
   <g id="patch_60">
    <path clip-path="url(#pe9e50f36c9)" d="M 371.129014 307.584 
L 372.477703 307.584 
L 372.477703 232.812964 
L 371.129014 232.812964 
z
" style="fill:#1f77b4;"/>
   </g>
   <g id="patch_61">
    <path clip-path="url(#pe9e50f36c9)" d="M 372.477703 307.584 
L 373.803335 307.584 
L 373.803335 235.659141 
L 372.477703 235.659141 
z
" style="fill:#1f77b4;"/>
   </g>
   <g id="patch_62">
    <path clip-path="url(#pe9e50f36c9)" d="M 373.803335 307.584 
L 375.106687 307.584 
L 375.106687 238.361208 
L 373.803335 238.361208 
z
" style="fill:#1f77b4;"/>
   </g>
   <g id="patch_63">
    <path clip-path="url(#pe9e50f36c9)" d="M 375.106687 307.584 
L 376.388495 307.584 
L 376.388495 240.791682 
L 375.106687 240.791682 
z
" style="fill:#1f77b4;"/>
   </g>
   <g id="patch_64">
    <path clip-path="url(#pe9e50f36c9)" d="M 376.388495 307.584 
L 377.64946 307.584 
L 377.64946 246.237386 
L 376.388495 246.237386 
z
" style="fill:#1f77b4;"/>
   </g>
   <g id="patch_65">
    <path clip-path="url(#pe9e50f36c9)" d="M 377.64946 307.584 
L 378.890249 307.584 
L 378.890249 249.407811 
L 377.64946 249.407811 
z
" style="fill:#1f77b4;"/>
   </g>
   <g id="patch_66">
    <path clip-path="url(#pe9e50f36c9)" d="M 378.890249 307.584 
L 380.111496 307.584 
L 380.111496 253.077079 
L 378.890249 253.077079 
z
" style="fill:#1f77b4;"/>
   </g>
   <g id="patch_67">
    <path clip-path="url(#pe9e50f36c9)" d="M 380.111496 307.584 
L 381.313809 307.584 
L 381.313809 256.668749 
L 380.111496 256.668749 
z
" style="fill:#1f77b4;"/>
   </g>
   <g id="patch_68">
    <path clip-path="url(#pe9e50f36c9)" d="M 381.313809 307.584 
L 382.497765 307.584 
L 382.497765 258.536639 
L 381.313809 258.536639 
z
" style="fill:#1f77b4;"/>
   </g>
   <g id="patch_69">
    <path clip-path="url(#pe9e50f36c9)" d="M 382.497765 307.584 
L 383.663917 307.584 
L 383.663917 261.693208 
L 382.497765 261.693208 
z
" style="fill:#1f77b4;"/>
   </g>
   <g id="patch_70">
    <path clip-path="url(#pe9e50f36c9)" d="M 383.663917 307.584 
L 384.812791 307.584 
L 384.812791 264.428531 
L 383.663917 264.428531 
z
" style="fill:#1f77b4;"/>
   </g>
   <g id="patch_71">
    <path clip-path="url(#pe9e50f36c9)" d="M 384.812791 307.584 
L 385.944894 307.584 
L 385.944894 266.867319 
L 384.812791 266.867319 
z
" style="fill:#1f77b4;"/>
   </g>
   <g id="patch_72">
    <path clip-path="url(#pe9e50f36c9)" d="M 385.944894 307.584 
L 387.060706 307.584 
L 387.060706 268.516272 
L 385.944894 268.516272 
z
" style="fill:#1f77b4;"/>
   </g>
   <g id="patch_73">
    <path clip-path="url(#pe9e50f36c9)" d="M 387.060706 307.584 
L 388.160691 307.584 
L 388.160691 271.115799 
L 387.060706 271.115799 
z
" style="fill:#1f77b4;"/>
   </g>
   <g id="patch_74">
    <path clip-path="url(#pe9e50f36c9)" d="M 388.160691 307.584 
L 389.245291 307.584 
L 389.245291 273.141656 
L 388.160691 273.141656 
z
" style="fill:#1f77b4;"/>
   </g>
   <g id="patch_75">
    <path clip-path="url(#pe9e50f36c9)" d="M 389.245291 307.584 
L 390.31493 307.584 
L 390.31493 275.979519 
L 389.245291 275.979519 
z
" style="fill:#1f77b4;"/>
   </g>
   <g id="patch_76">
    <path clip-path="url(#pe9e50f36c9)" d="M 390.31493 307.584 
L 391.370016 307.584 
L 391.370016 277.941635 
L 390.31493 277.941635 
z
" style="fill:#1f77b4;"/>
   </g>
   <g id="patch_77">
    <path clip-path="url(#pe9e50f36c9)" d="M 391.370016 307.584 
L 392.410939 307.584 
L 392.410939 279.479735 
L 391.370016 279.479735 
z
" style="fill:#1f77b4;"/>
   </g>
   <g id="patch_78">
    <path clip-path="url(#pe9e50f36c9)" d="M 392.410939 307.584 
L 393.438075 307.584 
L 393.438075 281.599818 
L 392.410939 281.599818 
z
" style="fill:#1f77b4;"/>
   </g>
   <g id="patch_79">
    <path clip-path="url(#pe9e50f36c9)" d="M 393.438075 307.584 
L 394.451784 307.584 
L 394.451784 283.234915 
L 393.438075 283.234915 
z
" style="fill:#1f77b4;"/>
   </g>
   <g id="patch_80">
    <path clip-path="url(#pe9e50f36c9)" d="M 394.451784 307.584 
L 395.452412 307.584 
L 395.452412 284.55962 
L 394.451784 284.55962 
z
" style="fill:#1f77b4;"/>
   </g>
   <g id="patch_81">
    <path clip-path="url(#pe9e50f36c9)" d="M 395.452412 307.584 
L 396.440293 307.584 
L 396.440293 285.354998 
L 395.452412 285.354998 
z
" style="fill:#1f77b4;"/>
   </g>
   <g id="patch_82">
    <path clip-path="url(#pe9e50f36c9)" d="M 396.440293 307.584 
L 397.415748 307.584 
L 397.415748 287.552679 
L 396.440293 287.552679 
z
" style="fill:#1f77b4;"/>
   </g>
   <g id="patch_83">
    <path clip-path="url(#pe9e50f36c9)" d="M 397.415748 307.584 
L 398.379085 307.584 
L 398.379085 288.267687 
L 397.415748 288.267687 
z
" style="fill:#1f77b4;"/>
   </g>
   <g id="patch_84">
    <path clip-path="url(#pe9e50f36c9)" d="M 398.379085 307.584 
L 399.330601 307.584 
L 399.330601 289.645048 
L 398.379085 289.645048 
z
" style="fill:#1f77b4;"/>
   </g>
   <g id="patch_85">
    <path clip-path="url(#pe9e50f36c9)" d="M 399.330601 307.584 
L 400.270584 307.584 
L 400.270584 290.451511 
L 399.330601 290.451511 
z
" style="fill:#1f77b4;"/>
   </g>
   <g id="patch_86">
    <path clip-path="url(#pe9e50f36c9)" d="M 400.270584 307.584 
L 401.199309 307.584 
L 401.199309 291.795616 
L 400.270584 291.795616 
z
" style="fill:#1f77b4;"/>
   </g>
   <g id="patch_87">
    <path clip-path="url(#pe9e50f36c9)" d="M 401.199309 307.584 
L 402.117043 307.584 
L 402.117043 293.028867 
L 401.199309 293.028867 
z
" style="fill:#1f77b4;"/>
   </g>
   <g id="patch_88">
    <path clip-path="url(#pe9e50f36c9)" d="M 402.117043 307.584 
L 403.024043 307.584 
L 403.024043 293.730019 
L 402.117043 293.730019 
z
" style="fill:#1f77b4;"/>
   </g>
   <g id="patch_89">
    <path clip-path="url(#pe9e50f36c9)" d="M 403.024043 307.584 
L 403.920558 307.584 
L 403.920558 294.481055 
L 403.024043 294.481055 
z
" style="fill:#1f77b4;"/>
   </g>
   <g id="patch_90">
    <path clip-path="url(#pe9e50f36c9)" d="M 403.920558 307.584 
L 404.806826 307.584 
L 404.806826 295.365116 
L 403.920558 295.365116 
z
" style="fill:#1f77b4;"/>
   </g>
   <g id="patch_91">
    <path clip-path="url(#pe9e50f36c9)" d="M 404.806826 307.584 
L 405.68308 307.584 
L 405.68308 296.609452 
L 404.806826 296.609452 
z
" style="fill:#1f77b4;"/>
   </g>
   <g id="patch_92">
    <path clip-path="url(#pe9e50f36c9)" d="M 405.68308 307.584 
L 406.549542 307.584 
L 406.549542 296.997441 
L 405.68308 296.997441 
z
" style="fill:#1f77b4;"/>
   </g>
   <g id="patch_93">
    <path clip-path="url(#pe9e50f36c9)" d="M 406.549542 307.584 
L 407.406431 307.584 
L 407.406431 297.504598 
L 406.549542 297.504598 
z
" style="fill:#1f77b4;"/>
   </g>
   <g id="patch_94">
    <path clip-path="url(#pe9e50f36c9)" d="M 407.406431 307.584 
L 408.253954 307.584 
L 408.253954 298.100439 
L 407.406431 298.100439 
z
" style="fill:#1f77b4;"/>
   </g>
   <g id="patch_95">
    <path clip-path="url(#pe9e50f36c9)" d="M 408.253954 307.584 
L 409.092315 307.584 
L 409.092315 299.23115 
L 408.253954 299.23115 
z
" style="fill:#1f77b4;"/>
   </g>
   <g id="patch_96">
    <path clip-path="url(#pe9e50f36c9)" d="M 409.092315 307.584 
L 409.92171 307.584 
L 409.92171 298.973414 
L 409.092315 298.973414 
z
" style="fill:#1f77b4;"/>
   </g>
   <g id="patch_97">
    <path clip-path="url(#pe9e50f36c9)" d="M 409.92171 307.584 
L 410.742327 307.584 
L 410.742327 299.821447 
L 409.92171 299.821447 
z
" style="fill:#1f77b4;"/>
   </g>
   <g id="patch_98">
    <path clip-path="url(#pe9e50f36c9)" d="M 410.742327 307.584 
L 411.554351 307.584 
L 411.554351 300.309205 
L 410.742327 300.309205 
z
" style="fill:#1f77b4;"/>
   </g>
   <g id="patch_99">
    <path clip-path="url(#pe9e50f36c9)" d="M 411.554351 307.584 
L 412.357961 307.584 
L 412.357961 300.713822 
L 411.554351 300.713822 
z
" style="fill:#1f77b4;"/>
   </g>
   <g id="patch_100">
    <path clip-path="url(#pe9e50f36c9)" d="M 412.357961 307.584 
L 413.153328 307.584 
L 413.153328 301.051927 
L 412.357961 301.051927 
z
" style="fill:#1f77b4;"/>
   </g>
   <g id="patch_101">
    <path clip-path="url(#pe9e50f36c9)" d="M 413.153328 307.584 
L 413.94062 307.584 
L 413.94062 301.276406 
L 413.153328 301.276406 
z
" style="fill:#1f77b4;"/>
   </g>
   <g id="patch_102">
    <path clip-path="url(#pe9e50f36c9)" d="M 413.94062 307.584 
L 414.72 307.584 
L 414.72 301.94153 
L 413.94062 301.94153 
z
" style="fill:#1f77b4;"/>
   </g>
   <g id="patch_103">
    <path clip-path="url(#pe9e50f36c9)" d="M 414.72 307.584 
L 415.491625 307.584 
L 415.491625 302.179867 
L 414.72 302.179867 
z
" style="fill:#1f77b4;"/>
   </g>
   <g id="patch_104">
    <path clip-path="url(#pe9e50f36c9)" d="M 415.491625 307.584 
L 416.255647 307.584 
L 416.255647 302.420974 
L 415.491625 302.420974 
z
" style="fill:#1f77b4;"/>
   </g>
   <g id="patch_105">
    <path clip-path="url(#pe9e50f36c9)" d="M 416.255647 307.584 
L 417.012215 307.584 
L 417.012215 302.753536 
L 416.255647 302.753536 
z
" style="fill:#1f77b4;"/>
   </g>
   <g id="patch_106">
    <path clip-path="url(#pe9e50f36c9)" d="M 417.012215 307.584 
L 417.761473 307.584 
L 417.761473 303.305035 
L 417.012215 303.305035 
z
" style="fill:#1f77b4;"/>
   </g>
   <g id="patch_107">
    <path clip-path="url(#pe9e50f36c9)" d="M 417.761473 307.584 
L 418.503561 307.584 
L 418.503561 303.313349 
L 417.761473 303.313349 
z
" style="fill:#1f77b4;"/>
   </g>
   <g id="patch_108">
    <path clip-path="url(#pe9e50f36c9)" d="M 418.503561 307.584 
L 419.238615 307.584 
L 419.238615 303.474087 
L 418.503561 303.474087 
z
" style="fill:#1f77b4;"/>
   </g>
   <g id="patch_109">
    <path clip-path="url(#pe9e50f36c9)" d="M 419.238615 307.584 
L 419.966767 307.584 
L 419.966767 303.834363 
L 419.238615 303.834363 
z
" style="fill:#1f77b4;"/>
   </g>
   <g id="patch_110">
    <path clip-path="url(#pe9e50f36c9)" d="M 419.966767 307.584 
L 420.688146 307.584 
L 420.688146 303.961845 
L 419.966767 303.961845 
z
" style="fill:#1f77b4;"/>
   </g>
   <g id="patch_111">
    <path clip-path="url(#pe9e50f36c9)" d="M 420.688146 307.584 
L 421.402875 307.584 
L 421.402875 304.360919 
L 420.688146 304.360919 
z
" style="fill:#1f77b4;"/>
   </g>
   <g id="patch_112">
    <path clip-path="url(#pe9e50f36c9)" d="M 421.402875 307.584 
L 422.111078 307.584 
L 422.111078 304.635283 
L 421.402875 304.635283 
z
" style="fill:#1f77b4;"/>
   </g>
   <g id="patch_113">
    <path clip-path="url(#pe9e50f36c9)" d="M 422.111078 307.584 
L 422.812871 307.584 
L 422.812871 304.890247 
L 422.111078 304.890247 
z
" style="fill:#1f77b4;"/>
   </g>
   <g id="patch_114">
    <path clip-path="url(#pe9e50f36c9)" d="M 422.812871 307.584 
L 423.50837 307.584 
L 423.50837 304.923504 
L 422.812871 304.923504 
z
" style="fill:#1f77b4;"/>
   </g>
   <g id="patch_115">
    <path clip-path="url(#pe9e50f36c9)" d="M 423.50837 307.584 
L 424.197687 307.584 
L 424.197687 305.053757 
L 423.50837 305.053757 
z
" style="fill:#1f77b4;"/>
   </g>
   <g id="patch_116">
    <path clip-path="url(#pe9e50f36c9)" d="M 424.197687 307.584 
L 424.88093 307.584 
L 424.88093 305.170154 
L 424.197687 305.170154 
z
" style="fill:#1f77b4;"/>
   </g>
   <g id="patch_117">
    <path clip-path="url(#pe9e50f36c9)" d="M 424.88093 307.584 
L 425.558206 307.584 
L 425.558206 305.549829 
L 424.88093 305.549829 
z
" style="fill:#1f77b4;"/>
   </g>
   <g id="patch_118">
    <path clip-path="url(#pe9e50f36c9)" d="M 425.558206 307.584 
L 426.229619 307.584 
L 426.229619 305.702253 
L 425.558206 305.702253 
z
" style="fill:#1f77b4;"/>
   </g>
   <g id="patch_119">
    <path clip-path="url(#pe9e50f36c9)" d="M 426.229619 307.584 
L 426.895267 307.584 
L 426.895267 305.666225 
L 426.229619 305.666225 
z
" style="fill:#1f77b4;"/>
   </g>
   <g id="patch_120">
    <path clip-path="url(#pe9e50f36c9)" d="M 426.895267 307.584 
L 427.555251 307.584 
L 427.555251 305.75768 
L 426.895267 305.75768 
z
" style="fill:#1f77b4;"/>
   </g>
   <g id="patch_121">
    <path clip-path="url(#pe9e50f36c9)" d="M 427.555251 307.584 
L 428.209665 307.584 
L 428.209665 306.029272 
L 427.555251 306.029272 
z
" style="fill:#1f77b4;"/>
   </g>
   <g id="patch_122">
    <path clip-path="url(#pe9e50f36c9)" d="M 428.209665 307.584 
L 428.858603 307.584 
L 428.858603 306.20941 
L 428.209665 306.20941 
z
" style="fill:#1f77b4;"/>
   </g>
   <g id="patch_123">
    <path clip-path="url(#pe9e50f36c9)" d="M 428.858603 307.584 
L 429.502156 307.584 
L 429.502156 306.12627 
L 428.858603 306.12627 
z
" style="fill:#1f77b4;"/>
   </g>
   <g id="patch_124">
    <path clip-path="url(#pe9e50f36c9)" d="M 429.502156 307.584 
L 430.140411 307.584 
L 430.140411 306.292551 
L 429.502156 306.292551 
z
" style="fill:#1f77b4;"/>
   </g>
   <g id="patch_125">
    <path clip-path="url(#pe9e50f36c9)" d="M 430.140411 307.584 
L 430.773457 307.584 
L 430.773457 306.339664 
L 430.140411 306.339664 
z
" style="fill:#1f77b4;"/>
   </g>
   <g id="patch_126">
    <path clip-path="url(#pe9e50f36c9)" d="M 430.773457 307.584 
L 431.401376 307.584 
L 431.401376 306.439432 
L 430.773457 306.439432 
z
" style="fill:#1f77b4;"/>
   </g>
   <g id="patch_127">
    <path clip-path="url(#pe9e50f36c9)" d="M 431.401376 307.584 
L 432.024252 307.584 
L 432.024252 306.47546 
L 431.401376 306.47546 
z
" style="fill:#1f77b4;"/>
   </g>
   <g id="patch_128">
    <path clip-path="url(#pe9e50f36c9)" d="M 432.024252 307.584 
L 432.642165 307.584 
L 432.642165 306.589085 
L 432.024252 306.589085 
z
" style="fill:#1f77b4;"/>
   </g>
   <g id="patch_129">
    <path clip-path="url(#pe9e50f36c9)" d="M 432.642165 307.584 
L 433.255192 307.584 
L 433.255192 306.61957 
L 432.642165 306.61957 
z
" style="fill:#1f77b4;"/>
   </g>
   <g id="patch_130">
    <path clip-path="url(#pe9e50f36c9)" d="M 433.255192 307.584 
L 433.863412 307.584 
L 433.863412 306.744281 
L 433.255192 306.744281 
z
" style="fill:#1f77b4;"/>
   </g>
   <g id="patch_131">
    <path clip-path="url(#pe9e50f36c9)" d="M 433.863412 307.584 
L 434.466899 307.584 
L 434.466899 306.650055 
L 433.863412 306.650055 
z
" style="fill:#1f77b4;"/>
   </g>
   <g id="patch_132">
    <path clip-path="url(#pe9e50f36c9)" d="M 434.466899 307.584 
L 435.065725 307.584 
L 435.065725 306.780308 
L 434.466899 306.780308 
z
" style="fill:#1f77b4;"/>
   </g>
   <g id="patch_133">
    <path clip-path="url(#pe9e50f36c9)" d="M 435.065725 307.584 
L 435.659963 307.584 
L 435.659963 306.821879 
L 435.065725 306.821879 
z
" style="fill:#1f77b4;"/>
   </g>
   <g id="patch_134">
    <path clip-path="url(#pe9e50f36c9)" d="M 435.659963 307.584 
L 436.249681 307.584 
L 436.249681 306.819107 
L 435.659963 306.819107 
z
" style="fill:#1f77b4;"/>
   </g>
   <g id="patch_135">
    <path clip-path="url(#pe9e50f36c9)" d="M 436.249681 307.584 
L 436.834949 307.584 
L 436.834949 306.863449 
L 436.249681 306.863449 
z
" style="fill:#1f77b4;"/>
   </g>
   <g id="patch_136">
    <path clip-path="url(#pe9e50f36c9)" d="M 436.834949 307.584 
L 437.415833 307.584 
L 437.415833 306.929961 
L 436.834949 306.929961 
z
" style="fill:#1f77b4;"/>
   </g>
   <g id="patch_137">
    <path clip-path="url(#pe9e50f36c9)" d="M 437.415833 307.584 
L 437.992398 307.584 
L 437.992398 306.96876 
L 437.415833 306.96876 
z
" style="fill:#1f77b4;"/>
   </g>
   <g id="patch_138">
    <path clip-path="url(#pe9e50f36c9)" d="M 437.992398 307.584 
L 438.564707 307.584 
L 438.564707 307.0907 
L 437.992398 307.0907 
z
" style="fill:#1f77b4;"/>
   </g>
   <g id="patch_139">
    <path clip-path="url(#pe9e50f36c9)" d="M 438.564707 307.584 
L 439.132824 307.584 
L 439.132824 307.099014 
L 438.564707 307.099014 
z
" style="fill:#1f77b4;"/>
   </g>
   <g id="patch_140">
    <path clip-path="url(#pe9e50f36c9)" d="M 439.132824 307.584 
L 439.69681 307.584 
L 439.69681 307.184926 
L 439.132824 307.184926 
z
" style="fill:#1f77b4;"/>
   </g>
   <g id="patch_141">
    <path clip-path="url(#pe9e50f36c9)" d="M 439.69681 307.584 
L 440.256723 307.584 
L 440.256723 307.065757 
L 439.69681 307.065757 
z
" style="fill:#1f77b4;"/>
   </g>
   <g id="patch_142">
    <path clip-path="url(#pe9e50f36c9)" d="M 440.256723 307.584 
L 440.812622 307.584 
L 440.812622 307.107328 
L 440.256723 307.107328 
z
" style="fill:#1f77b4;"/>
   </g>
   <g id="patch_143">
    <path clip-path="url(#pe9e50f36c9)" d="M 440.812622 307.584 
L 441.364565 307.584 
L 441.364565 307.137813 
L 440.812622 307.137813 
z
" style="fill:#1f77b4;"/>
   </g>
   <g id="patch_144">
    <path clip-path="url(#pe9e50f36c9)" d="M 441.364565 307.584 
L 441.912607 307.584 
L 441.912607 307.176611 
L 441.364565 307.176611 
z
" style="fill:#1f77b4;"/>
   </g>
   <g id="patch_145">
    <path clip-path="url(#pe9e50f36c9)" d="M 441.912607 307.584 
L 442.456803 307.584 
L 442.456803 307.19324 
L 441.912607 307.19324 
z
" style="fill:#1f77b4;"/>
   </g>
   <g id="patch_146">
    <path clip-path="url(#pe9e50f36c9)" d="M 442.456803 307.584 
L 442.997207 307.584 
L 442.997207 307.212639 
L 442.456803 307.212639 
z
" style="fill:#1f77b4;"/>
   </g>
   <g id="patch_147">
    <path clip-path="url(#pe9e50f36c9)" d="M 442.997207 307.584 
L 443.53387 307.584 
L 443.53387 307.17384 
L 442.997207 307.17384 
z
" style="fill:#1f77b4;"/>
   </g>
   <g id="patch_148">
    <path clip-path="url(#pe9e50f36c9)" d="M 443.53387 307.584 
L 444.066846 307.584 
L 444.066846 307.251438 
L 443.53387 307.251438 
z
" style="fill:#1f77b4;"/>
   </g>
   <g id="patch_149">
    <path clip-path="url(#pe9e50f36c9)" d="M 444.066846 307.584 
L 444.596183 307.584 
L 444.596183 307.259752 
L 444.066846 307.259752 
z
" style="fill:#1f77b4;"/>
   </g>
   <g id="patch_150">
    <path clip-path="url(#pe9e50f36c9)" d="M 444.596183 307.584 
L 445.121932 307.584 
L 445.121932 307.33735 
L 444.596183 307.33735 
z
" style="fill:#1f77b4;"/>
   </g>
   <g id="patch_151">
    <path clip-path="url(#pe9e50f36c9)" d="M 445.121932 307.584 
L 445.64414 307.584 
L 445.64414 307.270837 
L 445.121932 307.270837 
z
" style="fill:#1f77b4;"/>
   </g>
   <g id="patch_152">
    <path clip-path="url(#pe9e50f36c9)" d="M 445.64414 307.584 
L 446.162855 307.584 
L 446.162855 307.384463 
L 445.64414 307.384463 
z
" style="fill:#1f77b4;"/>
   </g>
   <g id="patch_153">
    <path clip-path="url(#pe9e50f36c9)" d="M 446.162855 307.584 
L 446.678124 307.584 
L 446.678124 307.356749 
L 446.162855 307.356749 
z
" style="fill:#1f77b4;"/>
   </g>
   <g id="patch_154">
    <path clip-path="url(#pe9e50f36c9)" d="M 446.678124 307.584 
L 447.189991 307.584 
L 447.189991 307.329036 
L 446.678124 307.329036 
z
" style="fill:#1f77b4;"/>
   </g>
   <g id="patch_155">
    <path clip-path="url(#pe9e50f36c9)" d="M 447.189991 307.584 
L 447.698502 307.584 
L 447.698502 307.403862 
L 447.189991 307.403862 
z
" style="fill:#1f77b4;"/>
   </g>
   <g id="patch_156">
    <path clip-path="url(#pe9e50f36c9)" d="M 447.698502 307.584 
L 448.2037 307.584 
L 448.2037 307.401091 
L 447.698502 307.401091 
z
" style="fill:#1f77b4;"/>
   </g>
   <g id="patch_157">
    <path clip-path="url(#pe9e50f36c9)" d="M 448.2037 307.584 
L 448.705628 307.584 
L 448.705628 307.417719 
L 448.2037 307.417719 
z
" style="fill:#1f77b4;"/>
   </g>
   <g id="patch_158">
    <path clip-path="url(#pe9e50f36c9)" d="M 448.705628 307.584 
L 449.204328 307.584 
L 449.204328 307.445432 
L 448.705628 307.445432 
z
" style="fill:#1f77b4;"/>
   </g>
   <g id="patch_159">
    <path clip-path="url(#pe9e50f36c9)" d="M 449.204328 307.584 
L 449.699842 307.584 
L 449.699842 307.356749 
L 449.204328 307.356749 
z
" style="fill:#1f77b4;"/>
   </g>
   <g id="patch_160">
    <path clip-path="url(#pe9e50f36c9)" d="M 449.699842 307.584 
L 450.192209 307.584 
L 450.192209 307.409405 
L 449.699842 307.409405 
z
" style="fill:#1f77b4;"/>
   </g>
   <g id="patch_161">
    <path clip-path="url(#pe9e50f36c9)" d="M 450.192209 307.584 
L 450.681471 307.584 
L 450.681471 307.437118 
L 450.192209 307.437118 
z
" style="fill:#1f77b4;"/>
   </g>
   <g id="patch_162">
    <path clip-path="url(#pe9e50f36c9)" d="M 450.681471 307.584 
L 451.167664 307.584 
L 451.167664 307.487003 
L 450.681471 307.487003 
z
" style="fill:#1f77b4;"/>
   </g>
   <g id="patch_163">
    <path clip-path="url(#pe9e50f36c9)" d="M 451.167664 307.584 
L 451.650828 307.584 
L 451.650828 307.437118 
L 451.167664 307.437118 
z
" style="fill:#1f77b4;"/>
   </g>
   <g id="patch_164">
    <path clip-path="url(#pe9e50f36c9)" d="M 451.650828 307.584 
L 452.131001 307.584 
L 452.131001 307.459289 
L 451.650828 307.459289 
z
" style="fill:#1f77b4;"/>
   </g>
   <g id="patch_165">
    <path clip-path="url(#pe9e50f36c9)" d="M 452.131001 307.584 
L 452.608219 307.584 
L 452.608219 307.462061 
L 452.131001 307.462061 
z
" style="fill:#1f77b4;"/>
   </g>
   <g id="patch_166">
    <path clip-path="url(#pe9e50f36c9)" d="M 452.608219 307.584 
L 453.082518 307.584 
L 453.082518 307.489774 
L 452.608219 307.489774 
z
" style="fill:#1f77b4;"/>
   </g>
   <g id="patch_167">
    <path clip-path="url(#pe9e50f36c9)" d="M 453.082518 307.584 
L 453.553933 307.584 
L 453.553933 307.500859 
L 453.082518 307.500859 
z
" style="fill:#1f77b4;"/>
   </g>
   <g id="patch_168">
    <path clip-path="url(#pe9e50f36c9)" d="M 453.553933 307.584 
L 454.0225 307.584 
L 454.0225 307.509174 
L 453.553933 307.509174 
z
" style="fill:#1f77b4;"/>
   </g>
   <g id="patch_169">
    <path clip-path="url(#pe9e50f36c9)" d="M 454.0225 307.584 
L 454.488253 307.584 
L 454.488253 307.528573 
L 454.0225 307.528573 
z
" style="fill:#1f77b4;"/>
   </g>
   <g id="patch_170">
    <path clip-path="url(#pe9e50f36c9)" d="M 454.488253 307.584 
L 454.951225 307.584 
L 454.951225 307.509174 
L 454.488253 307.509174 
z
" style="fill:#1f77b4;"/>
   </g>
   <g id="patch_171">
    <path clip-path="url(#pe9e50f36c9)" d="M 454.951225 307.584 
L 455.41145 307.584 
L 455.41145 307.536887 
L 454.951225 307.536887 
z
" style="fill:#1f77b4;"/>
   </g>
   <g id="patch_172">
    <path clip-path="url(#pe9e50f36c9)" d="M 455.41145 307.584 
L 455.868959 307.584 
L 455.868959 307.509174 
L 455.41145 307.509174 
z
" style="fill:#1f77b4;"/>
   </g>
   <g id="patch_173">
    <path clip-path="url(#pe9e50f36c9)" d="M 455.868959 307.584 
L 456.323785 307.584 
L 456.323785 307.52303 
L 455.868959 307.52303 
z
" style="fill:#1f77b4;"/>
   </g>
   <g id="patch_174">
    <path clip-path="url(#pe9e50f36c9)" d="M 456.323785 307.584 
L 456.775959 307.584 
L 456.775959 307.539658 
L 456.323785 307.539658 
z
" style="fill:#1f77b4;"/>
   </g>
   <g id="patch_175">
    <path clip-path="url(#pe9e50f36c9)" d="M 456.775959 307.584 
L 457.225512 307.584 
L 457.225512 307.536887 
L 456.775959 307.536887 
z
" style="fill:#1f77b4;"/>
   </g>
   <g id="patch_176">
    <path clip-path="url(#pe9e50f36c9)" d="M 457.225512 307.584 
L 457.672474 307.584 
L 457.672474 307.525802 
L 457.225512 307.525802 
z
" style="fill:#1f77b4;"/>
   </g>
   <g id="patch_177">
    <path clip-path="url(#pe9e50f36c9)" d="M 457.672474 307.584 
L 458.116874 307.584 
L 458.116874 307.545201 
L 457.672474 307.545201 
z
" style="fill:#1f77b4;"/>
   </g>
   <g id="patch_178">
    <path clip-path="url(#pe9e50f36c9)" d="M 458.116874 307.584 
L 458.558742 307.584 
L 458.558742 307.559058 
L 458.116874 307.559058 
z
" style="fill:#1f77b4;"/>
   </g>
   <g id="patch_179">
    <path clip-path="url(#pe9e50f36c9)" d="M 458.558742 307.584 
L 458.998106 307.584 
L 458.998106 307.556286 
L 458.558742 307.556286 
z
" style="fill:#1f77b4;"/>
   </g>
   <g id="patch_180">
    <path clip-path="url(#pe9e50f36c9)" d="M 458.998106 307.584 
L 459.434996 307.584 
L 459.434996 307.559058 
L 458.998106 307.559058 
z
" style="fill:#1f77b4;"/>
   </g>
   <g id="patch_181">
    <path clip-path="url(#pe9e50f36c9)" d="M 459.434996 307.584 
L 459.869437 307.584 
L 459.869437 307.564601 
L 459.434996 307.564601 
z
" style="fill:#1f77b4;"/>
   </g>
   <g id="patch_182">
    <path clip-path="url(#pe9e50f36c9)" d="M 459.869437 307.584 
L 460.301459 307.584 
L 460.301459 307.559058 
L 459.869437 307.559058 
z
" style="fill:#1f77b4;"/>
   </g>
   <g id="patch_183">
    <path clip-path="url(#pe9e50f36c9)" d="M 460.301459 307.584 
L 460.731086 307.584 
L 460.731086 307.561829 
L 460.301459 307.561829 
z
" style="fill:#1f77b4;"/>
   </g>
   <g id="patch_184">
    <path clip-path="url(#pe9e50f36c9)" d="M 460.731086 307.584 
L 461.158347 307.584 
L 461.158347 307.561829 
L 460.731086 307.561829 
z
" style="fill:#1f77b4;"/>
   </g>
   <g id="patch_185">
    <path clip-path="url(#pe9e50f36c9)" d="M 461.158347 307.584 
L 461.583267 307.584 
L 461.583267 307.567372 
L 461.158347 307.567372 
z
" style="fill:#1f77b4;"/>
   </g>
   <g id="patch_186">
    <path clip-path="url(#pe9e50f36c9)" d="M 461.583267 307.584 
L 462.00587 307.584 
L 462.00587 307.545201 
L 461.583267 307.545201 
z
" style="fill:#1f77b4;"/>
   </g>
   <g id="patch_187">
    <path clip-path="url(#pe9e50f36c9)" d="M 462.00587 307.584 
L 462.426184 307.584 
L 462.426184 307.556286 
L 462.00587 307.556286 
z
" style="fill:#1f77b4;"/>
   </g>
   <g id="patch_188">
    <path clip-path="url(#pe9e50f36c9)" d="M 462.426184 307.584 
L 462.844231 307.584 
L 462.844231 307.567372 
L 462.426184 307.567372 
z
" style="fill:#1f77b4;"/>
   </g>
   <g id="patch_189">
    <path clip-path="url(#pe9e50f36c9)" d="M 462.844231 307.584 
L 463.260037 307.584 
L 463.260037 307.564601 
L 462.844231 307.564601 
z
" style="fill:#1f77b4;"/>
   </g>
   <g id="patch_190">
    <path clip-path="url(#pe9e50f36c9)" d="M 463.260037 307.584 
L 463.673626 307.584 
L 463.673626 307.564601 
L 463.260037 307.564601 
z
" style="fill:#1f77b4;"/>
   </g>
   <g id="patch_191">
    <path clip-path="url(#pe9e50f36c9)" d="M 463.673626 307.584 
L 464.08502 307.584 
L 464.08502 307.550744 
L 463.673626 307.550744 
z
" style="fill:#1f77b4;"/>
   </g>
   <g id="patch_192">
    <path clip-path="url(#pe9e50f36c9)" d="M 464.08502 307.584 
L 464.494243 307.584 
L 464.494243 307.567372 
L 464.08502 307.567372 
z
" style="fill:#1f77b4;"/>
   </g>
   <g id="patch_193">
    <path clip-path="url(#pe9e50f36c9)" d="M 464.494243 307.584 
L 464.901318 307.584 
L 464.901318 307.556286 
L 464.494243 307.556286 
z
" style="fill:#1f77b4;"/>
   </g>
   <g id="patch_194">
    <path clip-path="url(#pe9e50f36c9)" d="M 464.901318 307.584 
L 465.306267 307.584 
L 465.306267 307.570143 
L 464.901318 307.570143 
z
" style="fill:#1f77b4;"/>
   </g>
   <g id="patch_195">
    <path clip-path="url(#pe9e50f36c9)" d="M 465.306267 307.584 
L 465.709113 307.584 
L 465.709113 307.564601 
L 465.306267 307.564601 
z
" style="fill:#1f77b4;"/>
   </g>
   <g id="patch_196">
    <path clip-path="url(#pe9e50f36c9)" d="M 465.709113 307.584 
L 466.109877 307.584 
L 466.109877 307.556286 
L 465.709113 307.556286 
z
" style="fill:#1f77b4;"/>
   </g>
   <g id="patch_197">
    <path clip-path="url(#pe9e50f36c9)" d="M 466.109877 307.584 
L 466.50858 307.584 
L 466.50858 307.564601 
L 466.109877 307.564601 
z
" style="fill:#1f77b4;"/>
   </g>
   <g id="patch_198">
    <path clip-path="url(#pe9e50f36c9)" d="M 466.50858 307.584 
L 466.905244 307.584 
L 466.905244 307.553515 
L 466.50858 307.553515 
z
" style="fill:#1f77b4;"/>
   </g>
   <g id="patch_199">
    <path clip-path="url(#pe9e50f36c9)" d="M 466.905244 307.584 
L 467.299889 307.584 
L 467.299889 307.553515 
L 466.905244 307.553515 
z
" style="fill:#1f77b4;"/>
   </g>
   <g id="patch_200">
    <path clip-path="url(#pe9e50f36c9)" d="M 467.299889 307.584 
L 467.692536 307.584 
L 467.692536 307.553515 
L 467.299889 307.553515 
z
" style="fill:#1f77b4;"/>
   </g>
   <g id="patch_201">
    <path clip-path="url(#pe9e50f36c9)" d="M 467.692536 307.584 
L 468.083205 307.584 
L 468.083205 307.570143 
L 467.692536 307.570143 
z
" style="fill:#1f77b4;"/>
   </g>
   <g id="patch_202">
    <path clip-path="url(#pe9e50f36c9)" d="M 468.083205 307.584 
L 468.471916 307.584 
L 468.471916 307.550744 
L 468.083205 307.550744 
z
" style="fill:#1f77b4;"/>
   </g>
   <g id="patch_203">
    <path clip-path="url(#pe9e50f36c9)" d="M 468.471916 307.584 
L 468.858688 307.584 
L 468.858688 307.559058 
L 468.471916 307.559058 
z
" style="fill:#1f77b4;"/>
   </g>
   <g id="patch_204">
    <path clip-path="url(#pe9e50f36c9)" d="M 468.858688 307.584 
L 469.243541 307.584 
L 469.243541 307.570143 
L 468.858688 307.570143 
z
" style="fill:#1f77b4;"/>
   </g>
   <g id="patch_205">
    <path clip-path="url(#pe9e50f36c9)" d="M 469.243541 307.584 
L 469.626493 307.584 
L 469.626493 307.553515 
L 469.243541 307.553515 
z
" style="fill:#1f77b4;"/>
   </g>
   <g id="patch_206">
    <path clip-path="url(#pe9e50f36c9)" d="M 469.626493 307.584 
L 470.007563 307.584 
L 470.007563 307.547972 
L 469.626493 307.547972 
z
" style="fill:#1f77b4;"/>
   </g>
   <g id="patch_207">
    <path clip-path="url(#pe9e50f36c9)" d="M 470.007563 307.584 
L 470.386769 307.584 
L 470.386769 307.572915 
L 470.007563 307.572915 
z
" style="fill:#1f77b4;"/>
   </g>
   <g id="patch_208">
    <path clip-path="url(#pe9e50f36c9)" d="M 470.386769 307.584 
L 470.764131 307.584 
L 470.764131 307.572915 
L 470.386769 307.572915 
z
" style="fill:#1f77b4;"/>
   </g>
   <g id="patch_209">
    <path clip-path="url(#pe9e50f36c9)" d="M 470.764131 307.584 
L 471.139665 307.584 
L 471.139665 307.564601 
L 470.764131 307.564601 
z
" style="fill:#1f77b4;"/>
   </g>
   <g id="patch_210">
    <path clip-path="url(#pe9e50f36c9)" d="M 471.139665 307.584 
L 471.513389 307.584 
L 471.513389 307.570143 
L 471.139665 307.570143 
z
" style="fill:#1f77b4;"/>
   </g>
   <g id="patch_211">
    <path clip-path="url(#pe9e50f36c9)" d="M 471.513389 307.584 
L 471.885321 307.584 
L 471.885321 307.570143 
L 471.513389 307.570143 
z
" style="fill:#1f77b4;"/>
   </g>
   <g id="patch_212">
    <path clip-path="url(#pe9e50f36c9)" d="M 471.885321 307.584 
L 472.255477 307.584 
L 472.255477 307.567372 
L 471.885321 307.567372 
z
" style="fill:#1f77b4;"/>
   </g>
   <g id="patch_213">
    <path clip-path="url(#pe9e50f36c9)" d="M 472.255477 307.584 
L 472.623875 307.584 
L 472.623875 307.570143 
L 472.255477 307.570143 
z
" style="fill:#1f77b4;"/>
   </g>
   <g id="patch_214">
    <path clip-path="url(#pe9e50f36c9)" d="M 472.623875 307.584 
L 472.990531 307.584 
L 472.990531 307.575686 
L 472.623875 307.575686 
z
" style="fill:#1f77b4;"/>
   </g>
   <g id="patch_215">
    <path clip-path="url(#pe9e50f36c9)" d="M 472.990531 307.584 
L 473.355462 307.584 
L 473.355462 307.567372 
L 472.990531 307.567372 
z
" style="fill:#1f77b4;"/>
   </g>
   <g id="patch_216">
    <path clip-path="url(#pe9e50f36c9)" d="M 473.355462 307.584 
L 473.718683 307.584 
L 473.718683 307.570143 
L 473.355462 307.570143 
z
" style="fill:#1f77b4;"/>
   </g>
   <g id="patch_217">
    <path clip-path="url(#pe9e50f36c9)" d="M 473.718683 307.584 
L 474.080211 307.584 
L 474.080211 307.570143 
L 473.718683 307.570143 
z
" style="fill:#1f77b4;"/>
   </g>
   <g id="patch_218">
    <path clip-path="url(#pe9e50f36c9)" d="M 474.080211 307.584 
L 474.440062 307.584 
L 474.440062 307.572915 
L 474.080211 307.572915 
z
" style="fill:#1f77b4;"/>
   </g>
   <g id="patch_219">
    <path clip-path="url(#pe9e50f36c9)" d="M 474.440062 307.584 
L 474.79825 307.584 
L 474.79825 307.578457 
L 474.440062 307.578457 
z
" style="fill:#1f77b4;"/>
   </g>
   <g id="patch_220">
    <path clip-path="url(#pe9e50f36c9)" d="M 474.79825 307.584 
L 475.154791 307.584 
L 475.154791 307.578457 
L 474.79825 307.578457 
z
" style="fill:#1f77b4;"/>
   </g>
   <g id="patch_221">
    <path clip-path="url(#pe9e50f36c9)" d="M 475.154791 307.584 
L 475.509701 307.584 
L 475.509701 307.570143 
L 475.154791 307.570143 
z
" style="fill:#1f77b4;"/>
   </g>
   <g id="patch_222">
    <path clip-path="url(#pe9e50f36c9)" d="M 475.509701 307.584 
L 475.862994 307.584 
L 475.862994 307.578457 
L 475.509701 307.578457 
z
" style="fill:#1f77b4;"/>
   </g>
   <g id="patch_223">
    <path clip-path="url(#pe9e50f36c9)" d="M 475.862994 307.584 
L 476.214684 307.584 
L 476.214684 307.581229 
L 475.862994 307.581229 
z
" style="fill:#1f77b4;"/>
   </g>
   <g id="patch_224">
    <path clip-path="url(#pe9e50f36c9)" d="M 476.214684 307.584 
L 476.564787 307.584 
L 476.564787 307.581229 
L 476.214684 307.581229 
z
" style="fill:#1f77b4;"/>
   </g>
   <g id="patch_225">
    <path clip-path="url(#pe9e50f36c9)" d="M 476.564787 307.584 
L 476.913316 307.584 
L 476.913316 307.575686 
L 476.564787 307.575686 
z
" style="fill:#1f77b4;"/>
   </g>
   <g id="patch_226">
    <path clip-path="url(#pe9e50f36c9)" d="M 476.913316 307.584 
L 477.260286 307.584 
L 477.260286 307.570143 
L 476.913316 307.570143 
z
" style="fill:#1f77b4;"/>
   </g>
   <g id="patch_227">
    <path clip-path="url(#pe9e50f36c9)" d="M 477.260286 307.584 
L 477.60571 307.584 
L 477.60571 307.578457 
L 477.260286 307.578457 
z
" style="fill:#1f77b4;"/>
   </g>
   <g id="patch_228">
    <path clip-path="url(#pe9e50f36c9)" d="M 477.60571 307.584 
L 477.949603 307.584 
L 477.949603 307.581229 
L 477.60571 307.581229 
z
" style="fill:#1f77b4;"/>
   </g>
   <g id="patch_229">
    <path clip-path="url(#pe9e50f36c9)" d="M 477.949603 307.584 
L 478.291977 307.584 
L 478.291977 307.575686 
L 477.949603 307.575686 
z
" style="fill:#1f77b4;"/>
   </g>
   <g id="patch_230">
    <path clip-path="url(#pe9e50f36c9)" d="M 478.291977 307.584 
L 478.632846 307.584 
L 478.632846 307.581229 
L 478.291977 307.581229 
z
" style="fill:#1f77b4;"/>
   </g>
   <g id="patch_231">
    <path clip-path="url(#pe9e50f36c9)" d="M 478.632846 307.584 
L 478.972224 307.584 
L 478.972224 307.581229 
L 478.632846 307.581229 
z
" style="fill:#1f77b4;"/>
   </g>
   <g id="patch_232">
    <path clip-path="url(#pe9e50f36c9)" d="M 478.972224 307.584 
L 479.310122 307.584 
L 479.310122 307.581229 
L 478.972224 307.581229 
z
" style="fill:#1f77b4;"/>
   </g>
   <g id="patch_233">
    <path clip-path="url(#pe9e50f36c9)" d="M 479.310122 307.584 
L 479.646555 307.584 
L 479.646555 307.581229 
L 479.310122 307.581229 
z
" style="fill:#1f77b4;"/>
   </g>
   <g id="patch_234">
    <path clip-path="url(#pe9e50f36c9)" d="M 479.646555 307.584 
L 479.981535 307.584 
L 479.981535 307.581229 
L 479.646555 307.581229 
z
" style="fill:#1f77b4;"/>
   </g>
   <g id="patch_235">
    <path clip-path="url(#pe9e50f36c9)" d="M 479.981535 307.584 
L 480.315073 307.584 
L 480.315073 307.581229 
L 479.981535 307.581229 
z
" style="fill:#1f77b4;"/>
   </g>
   <g id="patch_236">
    <path clip-path="url(#pe9e50f36c9)" d="M 480.315073 307.584 
L 480.647183 307.584 
L 480.647183 307.581229 
L 480.315073 307.581229 
z
" style="fill:#1f77b4;"/>
   </g>
   <g id="patch_237">
    <path clip-path="url(#pe9e50f36c9)" d="M 480.647183 307.584 
L 480.977877 307.584 
L 480.977877 307.567372 
L 480.647183 307.567372 
z
" style="fill:#1f77b4;"/>
   </g>
   <g id="patch_238">
    <path clip-path="url(#pe9e50f36c9)" d="M 480.977877 307.584 
L 481.307167 307.584 
L 481.307167 307.564601 
L 480.977877 307.564601 
z
" style="fill:#1f77b4;"/>
   </g>
   <g id="matplotlib.axis_1">
    <g id="xtick_1">
     <g id="line2d_1">
      <defs>
       <path d="M 0 0 
L 0 3.5 
" id="mc321210777" style="stroke:#000000;stroke-width:0.8;"/>
      </defs>
      <g>
       <use style="stroke:#000000;stroke-width:0.8;" x="57.6" xlink:href="#mc321210777" y="307.584"/>
      </g>
     </g>
     <g id="text_1">
      <!-- $\mathdefault{10^{0}}$ -->
      <g transform="translate(48.8 322.182437)scale(0.1 -0.1)">
       <defs>
        <path d="M 794 531 
L 1825 531 
L 1825 4091 
L 703 3866 
L 703 4441 
L 1819 4666 
L 2450 4666 
L 2450 531 
L 3481 531 
L 3481 0 
L 794 0 
L 794 531 
z
" id="DejaVuSans-31" transform="scale(0.015625)"/>
        <path d="M 2034 4250 
Q 1547 4250 1301 3770 
Q 1056 3291 1056 2328 
Q 1056 1369 1301 889 
Q 1547 409 2034 409 
Q 2525 409 2770 889 
Q 3016 1369 3016 2328 
Q 3016 3291 2770 3770 
Q 2525 4250 2034 4250 
z
M 2034 4750 
Q 2819 4750 3233 4129 
Q 3647 3509 3647 2328 
Q 3647 1150 3233 529 
Q 2819 -91 2034 -91 
Q 1250 -91 836 529 
Q 422 1150 422 2328 
Q 422 3509 836 4129 
Q 1250 4750 2034 4750 
z
" id="DejaVuSans-30" transform="scale(0.015625)"/>
       </defs>
       <use transform="translate(0 0.765625)" xlink:href="#DejaVuSans-31"/>
       <use transform="translate(63.623047 0.765625)" xlink:href="#DejaVuSans-30"/>
       <use transform="translate(128.203125 39.046875)scale(0.7)" xlink:href="#DejaVuSans-30"/>
      </g>
     </g>
    </g>
    <g id="xtick_2">
     <g id="line2d_2">
      <g>
       <use style="stroke:#000000;stroke-width:0.8;" x="236.16" xlink:href="#mc321210777" y="307.584"/>
      </g>
     </g>
     <g id="text_2">
      <!-- $\mathdefault{10^{1}}$ -->
      <g transform="translate(227.36 322.182437)scale(0.1 -0.1)">
       <use transform="translate(0 0.684375)" xlink:href="#DejaVuSans-31"/>
       <use transform="translate(63.623047 0.684375)" xlink:href="#DejaVuSans-30"/>
       <use transform="translate(128.203125 38.965625)scale(0.7)" xlink:href="#DejaVuSans-31"/>
      </g>
     </g>
    </g>
    <g id="xtick_3">
     <g id="line2d_3">
      <g>
       <use style="stroke:#000000;stroke-width:0.8;" x="414.72" xlink:href="#mc321210777" y="307.584"/>
      </g>
     </g>
     <g id="text_3">
      <!-- $\mathdefault{10^{2}}$ -->
      <g transform="translate(405.92 322.182437)scale(0.1 -0.1)">
       <defs>
        <path d="M 1228 531 
L 3431 531 
L 3431 0 
L 469 0 
L 469 531 
Q 828 903 1448 1529 
Q 2069 2156 2228 2338 
Q 2531 2678 2651 2914 
Q 2772 3150 2772 3378 
Q 2772 3750 2511 3984 
Q 2250 4219 1831 4219 
Q 1534 4219 1204 4116 
Q 875 4013 500 3803 
L 500 4441 
Q 881 4594 1212 4672 
Q 1544 4750 1819 4750 
Q 2544 4750 2975 4387 
Q 3406 4025 3406 3419 
Q 3406 3131 3298 2873 
Q 3191 2616 2906 2266 
Q 2828 2175 2409 1742 
Q 1991 1309 1228 531 
z
" id="DejaVuSans-32" transform="scale(0.015625)"/>
       </defs>
       <use transform="translate(0 0.765625)" xlink:href="#DejaVuSans-31"/>
       <use transform="translate(63.623047 0.765625)" xlink:href="#DejaVuSans-30"/>
       <use transform="translate(128.203125 39.046875)scale(0.7)" xlink:href="#DejaVuSans-32"/>
      </g>
     </g>
    </g>
    <g id="xtick_4">
     <g id="line2d_4">
      <defs>
       <path d="M 0 0 
L 0 2 
" id="me03db0bcbd" style="stroke:#000000;stroke-width:0.6;"/>
      </defs>
      <g>
       <use style="stroke:#000000;stroke-width:0.6;" x="111.351916" xlink:href="#me03db0bcbd" y="307.584"/>
      </g>
     </g>
    </g>
    <g id="xtick_5">
     <g id="line2d_5">
      <g>
       <use style="stroke:#000000;stroke-width:0.6;" x="142.794771" xlink:href="#me03db0bcbd" y="307.584"/>
      </g>
     </g>
    </g>
    <g id="xtick_6">
     <g id="line2d_6">
      <g>
       <use style="stroke:#000000;stroke-width:0.6;" x="165.103832" xlink:href="#me03db0bcbd" y="307.584"/>
      </g>
     </g>
    </g>
    <g id="xtick_7">
     <g id="line2d_7">
      <g>
       <use style="stroke:#000000;stroke-width:0.6;" x="182.408084" xlink:href="#me03db0bcbd" y="307.584"/>
      </g>
     </g>
    </g>
    <g id="xtick_8">
     <g id="line2d_8">
      <g>
       <use style="stroke:#000000;stroke-width:0.6;" x="196.546687" xlink:href="#me03db0bcbd" y="307.584"/>
      </g>
     </g>
    </g>
    <g id="xtick_9">
     <g id="line2d_9">
      <g>
       <use style="stroke:#000000;stroke-width:0.6;" x="208.500706" xlink:href="#me03db0bcbd" y="307.584"/>
      </g>
     </g>
    </g>
    <g id="xtick_10">
     <g id="line2d_10">
      <g>
       <use style="stroke:#000000;stroke-width:0.6;" x="218.855748" xlink:href="#me03db0bcbd" y="307.584"/>
      </g>
     </g>
    </g>
    <g id="xtick_11">
     <g id="line2d_11">
      <g>
       <use style="stroke:#000000;stroke-width:0.6;" x="227.989542" xlink:href="#me03db0bcbd" y="307.584"/>
      </g>
     </g>
    </g>
    <g id="xtick_12">
     <g id="line2d_12">
      <g>
       <use style="stroke:#000000;stroke-width:0.6;" x="289.911916" xlink:href="#me03db0bcbd" y="307.584"/>
      </g>
     </g>
    </g>
    <g id="xtick_13">
     <g id="line2d_13">
      <g>
       <use style="stroke:#000000;stroke-width:0.6;" x="321.354771" xlink:href="#me03db0bcbd" y="307.584"/>
      </g>
     </g>
    </g>
    <g id="xtick_14">
     <g id="line2d_14">
      <g>
       <use style="stroke:#000000;stroke-width:0.6;" x="343.663832" xlink:href="#me03db0bcbd" y="307.584"/>
      </g>
     </g>
    </g>
    <g id="xtick_15">
     <g id="line2d_15">
      <g>
       <use style="stroke:#000000;stroke-width:0.6;" x="360.968084" xlink:href="#me03db0bcbd" y="307.584"/>
      </g>
     </g>
    </g>
    <g id="xtick_16">
     <g id="line2d_16">
      <g>
       <use style="stroke:#000000;stroke-width:0.6;" x="375.106687" xlink:href="#me03db0bcbd" y="307.584"/>
      </g>
     </g>
    </g>
    <g id="xtick_17">
     <g id="line2d_17">
      <g>
       <use style="stroke:#000000;stroke-width:0.6;" x="387.060706" xlink:href="#me03db0bcbd" y="307.584"/>
      </g>
     </g>
    </g>
    <g id="xtick_18">
     <g id="line2d_18">
      <g>
       <use style="stroke:#000000;stroke-width:0.6;" x="397.415748" xlink:href="#me03db0bcbd" y="307.584"/>
      </g>
     </g>
    </g>
    <g id="xtick_19">
     <g id="line2d_19">
      <g>
       <use style="stroke:#000000;stroke-width:0.6;" x="406.549542" xlink:href="#me03db0bcbd" y="307.584"/>
      </g>
     </g>
    </g>
   </g>
   <g id="matplotlib.axis_2">
    <g id="ytick_1">
     <g id="line2d_20">
      <defs>
       <path d="M 0 0 
L -3.5 0 
" id="m19847012ab" style="stroke:#000000;stroke-width:0.8;"/>
      </defs>
      <g>
       <use style="stroke:#000000;stroke-width:0.8;" x="57.6" xlink:href="#m19847012ab" y="307.584"/>
      </g>
     </g>
     <g id="text_4">
      <!-- 0.000 -->
      <g transform="translate(21.971875 311.383219)scale(0.1 -0.1)">
       <defs>
        <path d="M 684 794 
L 1344 794 
L 1344 0 
L 684 0 
L 684 794 
z
" id="DejaVuSans-2e" transform="scale(0.015625)"/>
       </defs>
       <use xlink:href="#DejaVuSans-30"/>
       <use x="63.623047" xlink:href="#DejaVuSans-2e"/>
       <use x="95.410156" xlink:href="#DejaVuSans-30"/>
       <use x="159.033203" xlink:href="#DejaVuSans-30"/>
       <use x="222.65625" xlink:href="#DejaVuSans-30"/>
      </g>
     </g>
    </g>
    <g id="ytick_2">
     <g id="line2d_21">
      <g>
       <use style="stroke:#000000;stroke-width:0.8;" x="57.6" xlink:href="#m19847012ab" y="259.049741"/>
      </g>
     </g>
     <g id="text_5">
      <!-- 0.005 -->
      <g transform="translate(21.971875 262.84896)scale(0.1 -0.1)">
       <defs>
        <path d="M 691 4666 
L 3169 4666 
L 3169 4134 
L 1269 4134 
L 1269 2991 
Q 1406 3038 1543 3061 
Q 1681 3084 1819 3084 
Q 2600 3084 3056 2656 
Q 3513 2228 3513 1497 
Q 3513 744 3044 326 
Q 2575 -91 1722 -91 
Q 1428 -91 1123 -41 
Q 819 9 494 109 
L 494 744 
Q 775 591 1075 516 
Q 1375 441 1709 441 
Q 2250 441 2565 725 
Q 2881 1009 2881 1497 
Q 2881 1984 2565 2268 
Q 2250 2553 1709 2553 
Q 1456 2553 1204 2497 
Q 953 2441 691 2322 
L 691 4666 
z
" id="DejaVuSans-35" transform="scale(0.015625)"/>
       </defs>
       <use xlink:href="#DejaVuSans-30"/>
       <use x="63.623047" xlink:href="#DejaVuSans-2e"/>
       <use x="95.410156" xlink:href="#DejaVuSans-30"/>
       <use x="159.033203" xlink:href="#DejaVuSans-30"/>
       <use x="222.65625" xlink:href="#DejaVuSans-35"/>
      </g>
     </g>
    </g>
    <g id="ytick_3">
     <g id="line2d_22">
      <g>
       <use style="stroke:#000000;stroke-width:0.8;" x="57.6" xlink:href="#m19847012ab" y="210.515482"/>
      </g>
     </g>
     <g id="text_6">
      <!-- 0.010 -->
      <g transform="translate(21.971875 214.314701)scale(0.1 -0.1)">
       <use xlink:href="#DejaVuSans-30"/>
       <use x="63.623047" xlink:href="#DejaVuSans-2e"/>
       <use x="95.410156" xlink:href="#DejaVuSans-30"/>
       <use x="159.033203" xlink:href="#DejaVuSans-31"/>
       <use x="222.65625" xlink:href="#DejaVuSans-30"/>
      </g>
     </g>
    </g>
    <g id="ytick_4">
     <g id="line2d_23">
      <g>
       <use style="stroke:#000000;stroke-width:0.8;" x="57.6" xlink:href="#m19847012ab" y="161.981223"/>
      </g>
     </g>
     <g id="text_7">
      <!-- 0.015 -->
      <g transform="translate(21.971875 165.780442)scale(0.1 -0.1)">
       <use xlink:href="#DejaVuSans-30"/>
       <use x="63.623047" xlink:href="#DejaVuSans-2e"/>
       <use x="95.410156" xlink:href="#DejaVuSans-30"/>
       <use x="159.033203" xlink:href="#DejaVuSans-31"/>
       <use x="222.65625" xlink:href="#DejaVuSans-35"/>
      </g>
     </g>
    </g>
    <g id="ytick_5">
     <g id="line2d_24">
      <g>
       <use style="stroke:#000000;stroke-width:0.8;" x="57.6" xlink:href="#m19847012ab" y="113.446965"/>
      </g>
     </g>
     <g id="text_8">
      <!-- 0.020 -->
      <g transform="translate(21.971875 117.246183)scale(0.1 -0.1)">
       <use xlink:href="#DejaVuSans-30"/>
       <use x="63.623047" xlink:href="#DejaVuSans-2e"/>
       <use x="95.410156" xlink:href="#DejaVuSans-30"/>
       <use x="159.033203" xlink:href="#DejaVuSans-32"/>
       <use x="222.65625" xlink:href="#DejaVuSans-30"/>
      </g>
     </g>
    </g>
    <g id="ytick_6">
     <g id="line2d_25">
      <g>
       <use style="stroke:#000000;stroke-width:0.8;" x="57.6" xlink:href="#m19847012ab" y="64.912706"/>
      </g>
     </g>
     <g id="text_9">
      <!-- 0.025 -->
      <g transform="translate(21.971875 68.711925)scale(0.1 -0.1)">
       <use xlink:href="#DejaVuSans-30"/>
       <use x="63.623047" xlink:href="#DejaVuSans-2e"/>
       <use x="95.410156" xlink:href="#DejaVuSans-30"/>
       <use x="159.033203" xlink:href="#DejaVuSans-32"/>
       <use x="222.65625" xlink:href="#DejaVuSans-35"/>
      </g>
     </g>
    </g>
   </g>
   <g id="patch_239">
    <path d="M 57.6 307.584 
L 57.6 41.472 
" style="fill:none;stroke:#000000;stroke-linecap:square;stroke-linejoin:miter;stroke-width:0.8;"/>
   </g>
   <g id="patch_240">
    <path d="M 414.72 307.584 
L 414.72 41.472 
" style="fill:none;stroke:#000000;stroke-linecap:square;stroke-linejoin:miter;stroke-width:0.8;"/>
   </g>
   <g id="patch_241">
    <path d="M 57.6 307.584 
L 414.72 307.584 
" style="fill:none;stroke:#000000;stroke-linecap:square;stroke-linejoin:miter;stroke-width:0.8;"/>
   </g>
   <g id="patch_242">
    <path d="M 57.6 41.472 
L 414.72 41.472 
" style="fill:none;stroke:#000000;stroke-linecap:square;stroke-linejoin:miter;stroke-width:0.8;"/>
   </g>
  </g>
 </g>
 <defs>
  <clipPath id="pe9e50f36c9">
   <rect height="266.112" width="357.12" x="57.6" y="41.472"/>
  </clipPath>
 </defs>
</svg>
