<?xml version="1.0" encoding="utf-8" standalone="no"?>
<!DOCTYPE svg PUBLIC "-//W3C//DTD SVG 1.1//EN"
  "http://www.w3.org/Graphics/SVG/1.1/DTD/svg11.dtd">
<svg height="345.6pt" version="1.1" viewBox="0 0 460.8 345.6" width="460.8pt" xmlns="http://www.w3.org/2000/svg" xmlns:xlink="http://www.w3.org/1999/xlink">
 <metadata>
  <rdf:RDF xmlns:cc="http://creativecommons.org/ns#" xmlns:dc="http://purl.org/dc/elements/1.1/" xmlns:rdf="http://www.w3.org/1999/02/22-rdf-syntax-ns#">
   <cc:Work>
    <dc:type rdf:resource="http://purl.org/dc/dcmitype/StillImage"/>
    <dc:date>2021-09-13T16:28:11.927323</dc:date>
    <dc:format>image/svg+xml</dc:format>
    <dc:creator>
     <cc:Agent>
      <dc:title>Matplotlib v3.4.3, https://matplotlib.org/</dc:title>
     </cc:Agent>
    </dc:creator>
   </cc:Work>
  </rdf:RDF>
 </metadata>
 <defs>
  <style type="text/css">*{stroke-linecap:butt;stroke-linejoin:round;}</style>
 </defs>
 <g id="figure_1">
  <g id="patch_1">
   <path d="M 0 345.6 
L 460.8 345.6 
L 460.8 0 
L 0 0 
z
" style="fill:#ffffff;"/>
  </g>
  <g id="axes_1">
   <g id="patch_2">
    <path d="M 57.6 307.584 
L 414.72 307.584 
L 414.72 41.472 
L 57.6 41.472 
z
" style="fill:#ffffff;"/>
   </g>
   <g id="patch_3">
    <path clip-path="url(#pf8233622e6)" d="M 208.500706 307.584 
L 218.855748 307.584 
L 218.855748 307.582703 
L 208.500706 307.582703 
z
" style="fill:#1f77b4;"/>
   </g>
   <g id="patch_4">
    <path clip-path="url(#pf8233622e6)" d="M 218.855748 307.584 
L 227.989542 307.584 
L 227.989542 307.57319 
L 218.855748 307.57319 
z
" style="fill:#1f77b4;"/>
   </g>
   <g id="patch_5">
    <path clip-path="url(#pf8233622e6)" d="M 227.989542 307.584 
L 236.16 307.584 
L 236.16 307.55903 
L 227.989542 307.55903 
z
" style="fill:#1f77b4;"/>
   </g>
   <g id="patch_6">
    <path clip-path="url(#pf8233622e6)" d="M 236.16 307.584 
L 243.551078 307.584 
L 243.551078 307.527142 
L 236.16 307.527142 
z
" style="fill:#1f77b4;"/>
   </g>
   <g id="patch_7">
    <path clip-path="url(#pf8233622e6)" d="M 243.551078 307.584 
L 250.298603 307.584 
L 250.298603 307.453853 
L 243.551078 307.453853 
z
" style="fill:#1f77b4;"/>
   </g>
   <g id="patch_8">
    <path clip-path="url(#pf8233622e6)" d="M 250.298603 307.584 
L 256.505725 307.584 
L 256.505725 307.300249 
L 250.298603 307.300249 
z
" style="fill:#1f77b4;"/>
   </g>
   <g id="patch_9">
    <path clip-path="url(#pf8233622e6)" d="M 256.505725 307.584 
L 262.252622 307.584 
L 262.252622 306.9778 
L 256.505725 306.9778 
z
" style="fill:#1f77b4;"/>
   </g>
   <g id="patch_10">
    <path clip-path="url(#pf8233622e6)" d="M 262.252622 307.584 
L 267.602855 307.584 
L 267.602855 306.467805 
L 262.252622 306.467805 
z
" style="fill:#1f77b4;"/>
   </g>
   <g id="patch_11">
    <path clip-path="url(#pf8233622e6)" d="M 267.602855 307.584 
L 272.607664 307.584 
L 272.607664 305.526942 
L 267.602855 305.526942 
z
" style="fill:#1f77b4;"/>
   </g>
   <g id="patch_12">
    <path clip-path="url(#pf8233622e6)" d="M 272.607664 307.584 
L 277.308959 307.584 
L 277.308959 304.04787 
L 272.607664 304.04787 
z
" style="fill:#1f77b4;"/>
   </g>
   <g id="patch_13">
    <path clip-path="url(#pf8233622e6)" d="M 277.308959 307.584 
L 281.741459 307.584 
L 281.741459 301.599938 
L 277.308959 301.599938 
z
" style="fill:#1f77b4;"/>
   </g>
   <g id="patch_14">
    <path clip-path="url(#pf8233622e6)" d="M 281.741459 307.584 
L 285.934243 307.584 
L 285.934243 298.408742 
L 281.741459 298.408742 
z
" style="fill:#1f77b4;"/>
   </g>
   <g id="patch_15">
    <path clip-path="url(#pf8233622e6)" d="M 285.934243 307.584 
L 289.911916 307.584 
L 289.911916 293.618811 
L 285.934243 293.618811 
z
" style="fill:#1f77b4;"/>
   </g>
   <g id="patch_16">
    <path clip-path="url(#pf8233622e6)" d="M 289.911916 307.584 
L 293.695477 307.584 
L 293.695477 287.216096 
L 289.911916 287.216096 
z
" style="fill:#1f77b4;"/>
   </g>
   <g id="patch_17">
    <path clip-path="url(#pf8233622e6)" d="M 293.695477 307.584 
L 297.302994 307.584 
L 297.302994 279.028398 
L 293.695477 279.028398 
z
" style="fill:#1f77b4;"/>
   </g>
   <g id="patch_18">
    <path clip-path="url(#pf8233622e6)" d="M 297.302994 307.584 
L 300.750122 307.584 
L 300.750122 268.461518 
L 297.302994 268.461518 
z
" style="fill:#1f77b4;"/>
   </g>
   <g id="patch_19">
    <path clip-path="url(#pf8233622e6)" d="M 300.750122 307.584 
L 304.050519 307.584 
L 304.050519 255.408872 
L 300.750122 255.408872 
z
" style="fill:#1f77b4;"/>
   </g>
   <g id="patch_20">
    <path clip-path="url(#pf8233622e6)" d="M 304.050519 307.584 
L 307.216168 307.584 
L 307.216168 240.137457 
L 304.050519 240.137457 
z
" style="fill:#1f77b4;"/>
   </g>
   <g id="patch_21">
    <path clip-path="url(#pf8233622e6)" d="M 307.216168 307.584 
L 310.257641 307.584 
L 310.257641 222.790174 
L 307.216168 222.790174 
z
" style="fill:#1f77b4;"/>
   </g>
   <g id="patch_22">
    <path clip-path="url(#pf8233622e6)" d="M 310.257641 307.584 
L 313.184314 307.584 
L 313.184314 203.331786 
L 310.257641 203.331786 
z
" style="fill:#1f77b4;"/>
   </g>
   <g id="patch_23">
    <path clip-path="url(#pf8233622e6)" d="M 313.184314 307.584 
L 316.004538 307.584 
L 316.004538 183.332704 
L 313.184314 183.332704 
z
" style="fill:#1f77b4;"/>
   </g>
   <g id="patch_24">
    <path clip-path="url(#pf8233622e6)" d="M 316.004538 307.584 
L 318.725787 307.584 
L 318.725787 162.387245 
L 316.004538 162.387245 
z
" style="fill:#1f77b4;"/>
   </g>
   <g id="patch_25">
    <path clip-path="url(#pf8233622e6)" d="M 318.725787 307.584 
L 321.354771 307.584 
L 321.354771 141.317152 
L 318.725787 141.317152 
z
" style="fill:#1f77b4;"/>
   </g>
   <g id="patch_26">
    <path clip-path="url(#pf8233622e6)" d="M 321.354771 307.584 
L 323.897544 307.584 
L 323.897544 121.59166 
L 321.354771 121.59166 
z
" style="fill:#1f77b4;"/>
   </g>
   <g id="patch_27">
    <path clip-path="url(#pf8233622e6)" d="M 323.897544 307.584 
L 326.35958 307.584 
L 326.35958 102.681965 
L 323.897544 102.681965 
z
" style="fill:#1f77b4;"/>
   </g>
   <g id="patch_28">
    <path clip-path="url(#pf8233622e6)" d="M 326.35958 307.584 
L 328.745849 307.584 
L 328.745849 86.933848 
L 326.35958 86.933848 
z
" style="fill:#1f77b4;"/>
   </g>
   <g id="patch_29">
    <path clip-path="url(#pf8233622e6)" d="M 328.745849 307.584 
L 331.060875 307.584 
L 331.060875 74.241701 
L 328.745849 74.241701 
z
" style="fill:#1f77b4;"/>
   </g>
   <g id="patch_30">
    <path clip-path="url(#pf8233622e6)" d="M 331.060875 307.584 
L 333.30879 307.584 
L 333.30879 64.822579 
L 331.060875 64.822579 
z
" style="fill:#1f77b4;"/>
   </g>
   <g id="patch_31">
    <path clip-path="url(#pf8233622e6)" d="M 333.30879 307.584 
L 335.493375 307.584 
L 335.493375 58.940019 
L 333.30879 58.940019 
z
" style="fill:#1f77b4;"/>
   </g>
   <g id="patch_32">
    <path clip-path="url(#pf8233622e6)" d="M 335.493375 307.584 
L 337.6181 307.584 
L 337.6181 56.790214 
L 335.493375 56.790214 
z
" style="fill:#1f77b4;"/>
   </g>
   <g id="patch_33">
    <path clip-path="url(#pf8233622e6)" d="M 337.6181 307.584 
L 339.686159 307.584 
L 339.686159 58.844679 
L 337.6181 58.844679 
z
" style="fill:#1f77b4;"/>
   </g>
   <g id="patch_34">
    <path clip-path="url(#pf8233622e6)" d="M 339.686159 307.584 
L 341.700496 307.584 
L 341.700496 63.92625 
L 339.686159 63.92625 
z
" style="fill:#1f77b4;"/>
   </g>
   <g id="patch_35">
    <path clip-path="url(#pf8233622e6)" d="M 341.700496 307.584 
L 343.663832 307.584 
L 343.663832 73.175879 
L 341.700496 73.175879 
z
" style="fill:#1f77b4;"/>
   </g>
   <g id="patch_36">
    <path clip-path="url(#pf8233622e6)" d="M 343.663832 307.584 
L 345.578685 307.584 
L 345.578685 84.253619 
L 343.663832 84.253619 
z
" style="fill:#1f77b4;"/>
   </g>
   <g id="patch_37">
    <path clip-path="url(#pf8233622e6)" d="M 345.578685 307.584 
L 347.447393 307.584 
L 347.447393 98.465481 
L 345.578685 98.465481 
z
" style="fill:#1f77b4;"/>
   </g>
   <g id="patch_38">
    <path clip-path="url(#pf8233622e6)" d="M 347.447393 307.584 
L 349.272127 307.584 
L 349.272127 114.249918 
L 347.447393 114.249918 
z
" style="fill:#1f77b4;"/>
   </g>
   <g id="patch_39">
    <path clip-path="url(#pf8233622e6)" d="M 349.272127 307.584 
L 351.05491 307.584 
L 351.05491 130.418526 
L 349.272127 130.418526 
z
" style="fill:#1f77b4;"/>
   </g>
   <g id="patch_40">
    <path clip-path="url(#pf8233622e6)" d="M 351.05491 307.584 
L 352.797626 307.584 
L 352.797626 147.044271 
L 351.05491 147.044271 
z
" style="fill:#1f77b4;"/>
   </g>
   <g id="patch_41">
    <path clip-path="url(#pf8233622e6)" d="M 352.797626 307.584 
L 354.502038 307.584 
L 354.502038 164.639956 
L 352.797626 164.639956 
z
" style="fill:#1f77b4;"/>
   </g>
   <g id="patch_42">
    <path clip-path="url(#pf8233622e6)" d="M 354.502038 307.584 
L 356.169794 307.584 
L 356.169794 182.037179 
L 354.502038 182.037179 
z
" style="fill:#1f77b4;"/>
   </g>
   <g id="patch_43">
    <path clip-path="url(#pf8233622e6)" d="M 356.169794 307.584 
L 357.802435 307.584 
L 357.802435 198.253673 
L 356.169794 198.253673 
z
" style="fill:#1f77b4;"/>
   </g>
   <g id="patch_44">
    <path clip-path="url(#pf8233622e6)" d="M 357.802435 307.584 
L 359.401412 307.584 
L 359.401412 213.186641 
L 357.802435 213.186641 
z
" style="fill:#1f77b4;"/>
   </g>
   <g id="patch_45">
    <path clip-path="url(#pf8233622e6)" d="M 359.401412 307.584 
L 360.968084 307.584 
L 360.968084 226.922559 
L 359.401412 226.922559 
z
" style="fill:#1f77b4;"/>
   </g>
   <g id="patch_46">
    <path clip-path="url(#pf8233622e6)" d="M 360.968084 307.584 
L 362.503731 307.584 
L 362.503731 239.378626 
L 360.968084 239.378626 
z
" style="fill:#1f77b4;"/>
   </g>
   <g id="patch_47">
    <path clip-path="url(#pf8233622e6)" d="M 362.503731 307.584 
L 364.009557 307.584 
L 364.009557 250.611807 
L 362.503731 250.611807 
z
" style="fill:#1f77b4;"/>
   </g>
   <g id="patch_48">
    <path clip-path="url(#pf8233622e6)" d="M 364.009557 307.584 
L 365.486699 307.584 
L 365.486699 260.41121 
L 364.009557 260.41121 
z
" style="fill:#1f77b4;"/>
   </g>
   <g id="patch_49">
    <path clip-path="url(#pf8233622e6)" d="M 365.486699 307.584 
L 366.93623 307.584 
L 366.93623 268.686032 
L 365.486699 268.686032 
z
" style="fill:#1f77b4;"/>
   </g>
   <g id="patch_50">
    <path clip-path="url(#pf8233622e6)" d="M 366.93623 307.584 
L 368.359162 307.584 
L 368.359162 275.779803 
L 366.93623 275.779803 
z
" style="fill:#1f77b4;"/>
   </g>
   <g id="patch_51">
    <path clip-path="url(#pf8233622e6)" d="M 368.359162 307.584 
L 369.756454 307.584 
L 369.756454 281.73403 
L 368.359162 281.73403 
z
" style="fill:#1f77b4;"/>
   </g>
   <g id="patch_52">
    <path clip-path="url(#pf8233622e6)" d="M 369.756454 307.584 
L 371.129014 307.584 
L 371.129014 286.749123 
L 369.756454 286.749123 
z
" style="fill:#1f77b4;"/>
   </g>
   <g id="patch_53">
    <path clip-path="url(#pf8233622e6)" d="M 371.129014 307.584 
L 372.477703 307.584 
L 372.477703 290.922908 
L 371.129014 290.922908 
z
" style="fill:#1f77b4;"/>
   </g>
   <g id="patch_54">
    <path clip-path="url(#pf8233622e6)" d="M 372.477703 307.584 
L 373.803335 307.584 
L 373.803335 294.390614 
L 372.477703 294.390614 
z
" style="fill:#1f77b4;"/>
   </g>
   <g id="patch_55">
    <path clip-path="url(#pf8233622e6)" d="M 373.803335 307.584 
L 375.106687 307.584 
L 375.106687 297.17829 
L 373.803335 297.17829 
z
" style="fill:#1f77b4;"/>
   </g>
   <g id="patch_56">
    <path clip-path="url(#pf8233622e6)" d="M 375.106687 307.584 
L 376.388495 307.584 
L 376.388495 299.512938 
L 375.106687 299.512938 
z
" style="fill:#1f77b4;"/>
   </g>
   <g id="patch_57">
    <path clip-path="url(#pf8233622e6)" d="M 376.388495 307.584 
L 377.64946 307.584 
L 377.64946 301.31943 
L 376.388495 301.31943 
z
" style="fill:#1f77b4;"/>
   </g>
   <g id="patch_58">
    <path clip-path="url(#pf8233622e6)" d="M 377.64946 307.584 
L 378.890249 307.584 
L 378.890249 302.789098 
L 377.64946 302.789098 
z
" style="fill:#1f77b4;"/>
   </g>
   <g id="patch_59">
    <path clip-path="url(#pf8233622e6)" d="M 378.890249 307.584 
L 380.111496 307.584 
L 380.111496 304.033061 
L 378.890249 304.033061 
z
" style="fill:#1f77b4;"/>
   </g>
   <g id="patch_60">
    <path clip-path="url(#pf8233622e6)" d="M 380.111496 307.584 
L 381.313809 307.584 
L 381.313809 304.907014 
L 380.111496 304.907014 
z
" style="fill:#1f77b4;"/>
   </g>
   <g id="patch_61">
    <path clip-path="url(#pf8233622e6)" d="M 381.313809 307.584 
L 382.497765 307.584 
L 382.497765 305.522726 
L 381.313809 305.522726 
z
" style="fill:#1f77b4;"/>
   </g>
   <g id="patch_62">
    <path clip-path="url(#pf8233622e6)" d="M 382.497765 307.584 
L 383.663917 307.584 
L 383.663917 306.040612 
L 382.497765 306.040612 
z
" style="fill:#1f77b4;"/>
   </g>
   <g id="patch_63">
    <path clip-path="url(#pf8233622e6)" d="M 383.663917 307.584 
L 384.812791 307.584 
L 384.812791 306.452348 
L 383.663917 306.452348 
z
" style="fill:#1f77b4;"/>
   </g>
   <g id="patch_64">
    <path clip-path="url(#pf8233622e6)" d="M 384.812791 307.584 
L 385.944894 307.584 
L 385.944894 306.742044 
L 384.812791 306.742044 
z
" style="fill:#1f77b4;"/>
   </g>
   <g id="patch_65">
    <path clip-path="url(#pf8233622e6)" d="M 385.944894 307.584 
L 387.060706 307.584 
L 387.060706 306.972936 
L 385.944894 306.972936 
z
" style="fill:#1f77b4;"/>
   </g>
   <g id="patch_66">
    <path clip-path="url(#pf8233622e6)" d="M 387.060706 307.584 
L 388.160691 307.584 
L 388.160691 307.131512 
L 387.060706 307.131512 
z
" style="fill:#1f77b4;"/>
   </g>
   <g id="patch_67">
    <path clip-path="url(#pf8233622e6)" d="M 388.160691 307.584 
L 389.245291 307.584 
L 389.245291 307.280684 
L 388.160691 307.280684 
z
" style="fill:#1f77b4;"/>
   </g>
   <g id="patch_68">
    <path clip-path="url(#pf8233622e6)" d="M 389.245291 307.584 
L 390.31493 307.584 
L 390.31493 307.329867 
L 389.245291 307.329867 
z
" style="fill:#1f77b4;"/>
   </g>
   <g id="patch_69">
    <path clip-path="url(#pf8233622e6)" d="M 390.31493 307.584 
L 391.370016 307.584 
L 391.370016 307.398832 
L 390.31493 307.398832 
z
" style="fill:#1f77b4;"/>
   </g>
   <g id="patch_70">
    <path clip-path="url(#pf8233622e6)" d="M 391.370016 307.584 
L 392.410939 307.584 
L 392.410939 307.449637 
L 391.370016 307.449637 
z
" style="fill:#1f77b4;"/>
   </g>
   <g id="patch_71">
    <path clip-path="url(#pf8233622e6)" d="M 392.410939 307.584 
L 393.438075 307.584 
L 393.438075 307.492984 
L 392.410939 307.492984 
z
" style="fill:#1f77b4;"/>
   </g>
   <g id="patch_72">
    <path clip-path="url(#pf8233622e6)" d="M 393.438075 307.584 
L 394.451784 307.584 
L 394.451784 307.527574 
L 393.438075 307.527574 
z
" style="fill:#1f77b4;"/>
   </g>
   <g id="patch_73">
    <path clip-path="url(#pf8233622e6)" d="M 394.451784 307.584 
L 395.452412 307.584 
L 395.452412 307.547139 
L 394.451784 307.547139 
z
" style="fill:#1f77b4;"/>
   </g>
   <g id="patch_74">
    <path clip-path="url(#pf8233622e6)" d="M 395.452412 307.584 
L 396.440293 307.584 
L 396.440293 307.560219 
L 395.452412 307.560219 
z
" style="fill:#1f77b4;"/>
   </g>
   <g id="patch_75">
    <path clip-path="url(#pf8233622e6)" d="M 396.440293 307.584 
L 397.415748 307.584 
L 397.415748 307.569299 
L 396.440293 307.569299 
z
" style="fill:#1f77b4;"/>
   </g>
   <g id="patch_76">
    <path clip-path="url(#pf8233622e6)" d="M 397.415748 307.584 
L 398.379085 307.584 
L 398.379085 307.57319 
L 397.415748 307.57319 
z
" style="fill:#1f77b4;"/>
   </g>
   <g id="patch_77">
    <path clip-path="url(#pf8233622e6)" d="M 398.379085 307.584 
L 399.330601 307.584 
L 399.330601 307.574379 
L 398.379085 307.574379 
z
" style="fill:#1f77b4;"/>
   </g>
   <g id="patch_78">
    <path clip-path="url(#pf8233622e6)" d="M 399.330601 307.584 
L 400.270584 307.584 
L 400.270584 307.57665 
L 399.330601 307.57665 
z
" style="fill:#1f77b4;"/>
   </g>
   <g id="patch_79">
    <path clip-path="url(#pf8233622e6)" d="M 400.270584 307.584 
L 401.199309 307.584 
L 401.199309 307.58 
L 400.270584 307.58 
z
" style="fill:#1f77b4;"/>
   </g>
   <g id="patch_80">
    <path clip-path="url(#pf8233622e6)" d="M 401.199309 307.584 
L 402.117043 307.584 
L 402.117043 307.580325 
L 401.199309 307.580325 
z
" style="fill:#1f77b4;"/>
   </g>
   <g id="patch_81">
    <path clip-path="url(#pf8233622e6)" d="M 402.117043 307.584 
L 403.024043 307.584 
L 403.024043 307.58173 
L 402.117043 307.58173 
z
" style="fill:#1f77b4;"/>
   </g>
   <g id="patch_82">
    <path clip-path="url(#pf8233622e6)" d="M 403.024043 307.584 
L 403.920558 307.584 
L 403.920558 307.580433 
L 403.024043 307.580433 
z
" style="fill:#1f77b4;"/>
   </g>
   <g id="patch_83">
    <path clip-path="url(#pf8233622e6)" d="M 403.920558 307.584 
L 404.806826 307.584 
L 404.806826 307.57946 
L 403.920558 307.57946 
z
" style="fill:#1f77b4;"/>
   </g>
   <g id="patch_84">
    <path clip-path="url(#pf8233622e6)" d="M 404.806826 307.584 
L 405.68308 307.584 
L 405.68308 307.579784 
L 404.806826 307.579784 
z
" style="fill:#1f77b4;"/>
   </g>
   <g id="patch_85">
    <path clip-path="url(#pf8233622e6)" d="M 405.68308 307.584 
L 406.549542 307.584 
L 406.549542 307.580649 
L 405.68308 307.580649 
z
" style="fill:#1f77b4;"/>
   </g>
   <g id="patch_86">
    <path clip-path="url(#pf8233622e6)" d="M 406.549542 307.584 
L 407.406431 307.584 
L 407.406431 307.579784 
L 406.549542 307.579784 
z
" style="fill:#1f77b4;"/>
   </g>
   <g id="matplotlib.axis_1">
    <g id="xtick_1">
     <g id="line2d_1">
      <defs>
       <path d="M 0 0 
L 0 3.5 
" id="m6a45e8f682" style="stroke:#000000;stroke-width:0.8;"/>
      </defs>
      <g>
       <use style="stroke:#000000;stroke-width:0.8;" x="57.6" xlink:href="#m6a45e8f682" y="307.584"/>
      </g>
     </g>
     <g id="text_1">
      <!-- $\mathdefault{10^{0}}$ -->
      <g transform="translate(48.8 322.182437)scale(0.1 -0.1)">
       <defs>
        <path d="M 794 531 
L 1825 531 
L 1825 4091 
L 703 3866 
L 703 4441 
L 1819 4666 
L 2450 4666 
L 2450 531 
L 3481 531 
L 3481 0 
L 794 0 
L 794 531 
z
" id="DejaVuSans-31" transform="scale(0.015625)"/>
        <path d="M 2034 4250 
Q 1547 4250 1301 3770 
Q 1056 3291 1056 2328 
Q 1056 1369 1301 889 
Q 1547 409 2034 409 
Q 2525 409 2770 889 
Q 3016 1369 3016 2328 
Q 3016 3291 2770 3770 
Q 2525 4250 2034 4250 
z
M 2034 4750 
Q 2819 4750 3233 4129 
Q 3647 3509 3647 2328 
Q 3647 1150 3233 529 
Q 2819 -91 2034 -91 
Q 1250 -91 836 529 
Q 422 1150 422 2328 
Q 422 3509 836 4129 
Q 1250 4750 2034 4750 
z
" id="DejaVuSans-30" transform="scale(0.015625)"/>
       </defs>
       <use transform="translate(0 0.765625)" xlink:href="#DejaVuSans-31"/>
       <use transform="translate(63.623047 0.765625)" xlink:href="#DejaVuSans-30"/>
       <use transform="translate(128.203125 39.046875)scale(0.7)" xlink:href="#DejaVuSans-30"/>
      </g>
     </g>
    </g>
    <g id="xtick_2">
     <g id="line2d_2">
      <g>
       <use style="stroke:#000000;stroke-width:0.8;" x="236.16" xlink:href="#m6a45e8f682" y="307.584"/>
      </g>
     </g>
     <g id="text_2">
      <!-- $\mathdefault{10^{1}}$ -->
      <g transform="translate(227.36 322.182437)scale(0.1 -0.1)">
       <use transform="translate(0 0.684375)" xlink:href="#DejaVuSans-31"/>
       <use transform="translate(63.623047 0.684375)" xlink:href="#DejaVuSans-30"/>
       <use transform="translate(128.203125 38.965625)scale(0.7)" xlink:href="#DejaVuSans-31"/>
      </g>
     </g>
    </g>
    <g id="xtick_3">
     <g id="line2d_3">
      <g>
       <use style="stroke:#000000;stroke-width:0.8;" x="414.72" xlink:href="#m6a45e8f682" y="307.584"/>
      </g>
     </g>
     <g id="text_3">
      <!-- $\mathdefault{10^{2}}$ -->
      <g transform="translate(405.92 322.182437)scale(0.1 -0.1)">
       <defs>
        <path d="M 1228 531 
L 3431 531 
L 3431 0 
L 469 0 
L 469 531 
Q 828 903 1448 1529 
Q 2069 2156 2228 2338 
Q 2531 2678 2651 2914 
Q 2772 3150 2772 3378 
Q 2772 3750 2511 3984 
Q 2250 4219 1831 4219 
Q 1534 4219 1204 4116 
Q 875 4013 500 3803 
L 500 4441 
Q 881 4594 1212 4672 
Q 1544 4750 1819 4750 
Q 2544 4750 2975 4387 
Q 3406 4025 3406 3419 
Q 3406 3131 3298 2873 
Q 3191 2616 2906 2266 
Q 2828 2175 2409 1742 
Q 1991 1309 1228 531 
z
" id="DejaVuSans-32" transform="scale(0.015625)"/>
       </defs>
       <use transform="translate(0 0.765625)" xlink:href="#DejaVuSans-31"/>
       <use transform="translate(63.623047 0.765625)" xlink:href="#DejaVuSans-30"/>
       <use transform="translate(128.203125 39.046875)scale(0.7)" xlink:href="#DejaVuSans-32"/>
      </g>
     </g>
    </g>
    <g id="xtick_4">
     <g id="line2d_4">
      <defs>
       <path d="M 0 0 
L 0 2 
" id="mafe06f846b" style="stroke:#000000;stroke-width:0.6;"/>
      </defs>
      <g>
       <use style="stroke:#000000;stroke-width:0.6;" x="111.351916" xlink:href="#mafe06f846b" y="307.584"/>
      </g>
     </g>
    </g>
    <g id="xtick_5">
     <g id="line2d_5">
      <g>
       <use style="stroke:#000000;stroke-width:0.6;" x="142.794771" xlink:href="#mafe06f846b" y="307.584"/>
      </g>
     </g>
    </g>
    <g id="xtick_6">
     <g id="line2d_6">
      <g>
       <use style="stroke:#000000;stroke-width:0.6;" x="165.103832" xlink:href="#mafe06f846b" y="307.584"/>
      </g>
     </g>
    </g>
    <g id="xtick_7">
     <g id="line2d_7">
      <g>
       <use style="stroke:#000000;stroke-width:0.6;" x="182.408084" xlink:href="#mafe06f846b" y="307.584"/>
      </g>
     </g>
    </g>
    <g id="xtick_8">
     <g id="line2d_8">
      <g>
       <use style="stroke:#000000;stroke-width:0.6;" x="196.546687" xlink:href="#mafe06f846b" y="307.584"/>
      </g>
     </g>
    </g>
    <g id="xtick_9">
     <g id="line2d_9">
      <g>
       <use style="stroke:#000000;stroke-width:0.6;" x="208.500706" xlink:href="#mafe06f846b" y="307.584"/>
      </g>
     </g>
    </g>
    <g id="xtick_10">
     <g id="line2d_10">
      <g>
       <use style="stroke:#000000;stroke-width:0.6;" x="218.855748" xlink:href="#mafe06f846b" y="307.584"/>
      </g>
     </g>
    </g>
    <g id="xtick_11">
     <g id="line2d_11">
      <g>
       <use style="stroke:#000000;stroke-width:0.6;" x="227.989542" xlink:href="#mafe06f846b" y="307.584"/>
      </g>
     </g>
    </g>
    <g id="xtick_12">
     <g id="line2d_12">
      <g>
       <use style="stroke:#000000;stroke-width:0.6;" x="289.911916" xlink:href="#mafe06f846b" y="307.584"/>
      </g>
     </g>
    </g>
    <g id="xtick_13">
     <g id="line2d_13">
      <g>
       <use style="stroke:#000000;stroke-width:0.6;" x="321.354771" xlink:href="#mafe06f846b" y="307.584"/>
      </g>
     </g>
    </g>
    <g id="xtick_14">
     <g id="line2d_14">
      <g>
       <use style="stroke:#000000;stroke-width:0.6;" x="343.663832" xlink:href="#mafe06f846b" y="307.584"/>
      </g>
     </g>
    </g>
    <g id="xtick_15">
     <g id="line2d_15">
      <g>
       <use style="stroke:#000000;stroke-width:0.6;" x="360.968084" xlink:href="#mafe06f846b" y="307.584"/>
      </g>
     </g>
    </g>
    <g id="xtick_16">
     <g id="line2d_16">
      <g>
       <use style="stroke:#000000;stroke-width:0.6;" x="375.106687" xlink:href="#mafe06f846b" y="307.584"/>
      </g>
     </g>
    </g>
    <g id="xtick_17">
     <g id="line2d_17">
      <g>
       <use style="stroke:#000000;stroke-width:0.6;" x="387.060706" xlink:href="#mafe06f846b" y="307.584"/>
      </g>
     </g>
    </g>
    <g id="xtick_18">
     <g id="line2d_18">
      <g>
       <use style="stroke:#000000;stroke-width:0.6;" x="397.415748" xlink:href="#mafe06f846b" y="307.584"/>
      </g>
     </g>
    </g>
    <g id="xtick_19">
     <g id="line2d_19">
      <g>
       <use style="stroke:#000000;stroke-width:0.6;" x="406.549542" xlink:href="#mafe06f846b" y="307.584"/>
      </g>
     </g>
    </g>
   </g>
   <g id="matplotlib.axis_2">
    <g id="ytick_1">
     <g id="line2d_20">
      <defs>
       <path d="M 0 0 
L -3.5 0 
" id="m4c32ec6d20" style="stroke:#000000;stroke-width:0.8;"/>
      </defs>
      <g>
       <use style="stroke:#000000;stroke-width:0.8;" x="57.6" xlink:href="#m4c32ec6d20" y="307.584"/>
      </g>
     </g>
     <g id="text_4">
      <!-- 0.00 -->
      <g transform="translate(28.334375 311.383219)scale(0.1 -0.1)">
       <defs>
        <path d="M 684 794 
L 1344 794 
L 1344 0 
L 684 0 
L 684 794 
z
" id="DejaVuSans-2e" transform="scale(0.015625)"/>
       </defs>
       <use xlink:href="#DejaVuSans-30"/>
       <use x="63.623047" xlink:href="#DejaVuSans-2e"/>
       <use x="95.410156" xlink:href="#DejaVuSans-30"/>
       <use x="159.033203" xlink:href="#DejaVuSans-30"/>
      </g>
     </g>
    </g>
    <g id="ytick_2">
     <g id="line2d_21">
      <g>
       <use style="stroke:#000000;stroke-width:0.8;" x="57.6" xlink:href="#m4c32ec6d20" y="256.956089"/>
      </g>
     </g>
     <g id="text_5">
      <!-- 0.01 -->
      <g transform="translate(28.334375 260.755307)scale(0.1 -0.1)">
       <use xlink:href="#DejaVuSans-30"/>
       <use x="63.623047" xlink:href="#DejaVuSans-2e"/>
       <use x="95.410156" xlink:href="#DejaVuSans-30"/>
       <use x="159.033203" xlink:href="#DejaVuSans-31"/>
      </g>
     </g>
    </g>
    <g id="ytick_3">
     <g id="line2d_22">
      <g>
       <use style="stroke:#000000;stroke-width:0.8;" x="57.6" xlink:href="#m4c32ec6d20" y="206.328177"/>
      </g>
     </g>
     <g id="text_6">
      <!-- 0.02 -->
      <g transform="translate(28.334375 210.127396)scale(0.1 -0.1)">
       <use xlink:href="#DejaVuSans-30"/>
       <use x="63.623047" xlink:href="#DejaVuSans-2e"/>
       <use x="95.410156" xlink:href="#DejaVuSans-30"/>
       <use x="159.033203" xlink:href="#DejaVuSans-32"/>
      </g>
     </g>
    </g>
    <g id="ytick_4">
     <g id="line2d_23">
      <g>
       <use style="stroke:#000000;stroke-width:0.8;" x="57.6" xlink:href="#m4c32ec6d20" y="155.700266"/>
      </g>
     </g>
     <g id="text_7">
      <!-- 0.03 -->
      <g transform="translate(28.334375 159.499485)scale(0.1 -0.1)">
       <defs>
        <path d="M 2597 2516 
Q 3050 2419 3304 2112 
Q 3559 1806 3559 1356 
Q 3559 666 3084 287 
Q 2609 -91 1734 -91 
Q 1441 -91 1130 -33 
Q 819 25 488 141 
L 488 750 
Q 750 597 1062 519 
Q 1375 441 1716 441 
Q 2309 441 2620 675 
Q 2931 909 2931 1356 
Q 2931 1769 2642 2001 
Q 2353 2234 1838 2234 
L 1294 2234 
L 1294 2753 
L 1863 2753 
Q 2328 2753 2575 2939 
Q 2822 3125 2822 3475 
Q 2822 3834 2567 4026 
Q 2313 4219 1838 4219 
Q 1578 4219 1281 4162 
Q 984 4106 628 3988 
L 628 4550 
Q 988 4650 1302 4700 
Q 1616 4750 1894 4750 
Q 2613 4750 3031 4423 
Q 3450 4097 3450 3541 
Q 3450 3153 3228 2886 
Q 3006 2619 2597 2516 
z
" id="DejaVuSans-33" transform="scale(0.015625)"/>
       </defs>
       <use xlink:href="#DejaVuSans-30"/>
       <use x="63.623047" xlink:href="#DejaVuSans-2e"/>
       <use x="95.410156" xlink:href="#DejaVuSans-30"/>
       <use x="159.033203" xlink:href="#DejaVuSans-33"/>
      </g>
     </g>
    </g>
    <g id="ytick_5">
     <g id="line2d_24">
      <g>
       <use style="stroke:#000000;stroke-width:0.8;" x="57.6" xlink:href="#m4c32ec6d20" y="105.072355"/>
      </g>
     </g>
     <g id="text_8">
      <!-- 0.04 -->
      <g transform="translate(28.334375 108.871574)scale(0.1 -0.1)">
       <defs>
        <path d="M 2419 4116 
L 825 1625 
L 2419 1625 
L 2419 4116 
z
M 2253 4666 
L 3047 4666 
L 3047 1625 
L 3713 1625 
L 3713 1100 
L 3047 1100 
L 3047 0 
L 2419 0 
L 2419 1100 
L 313 1100 
L 313 1709 
L 2253 4666 
z
" id="DejaVuSans-34" transform="scale(0.015625)"/>
       </defs>
       <use xlink:href="#DejaVuSans-30"/>
       <use x="63.623047" xlink:href="#DejaVuSans-2e"/>
       <use x="95.410156" xlink:href="#DejaVuSans-30"/>
       <use x="159.033203" xlink:href="#DejaVuSans-34"/>
      </g>
     </g>
    </g>
    <g id="ytick_6">
     <g id="line2d_25">
      <g>
       <use style="stroke:#000000;stroke-width:0.8;" x="57.6" xlink:href="#m4c32ec6d20" y="54.444444"/>
      </g>
     </g>
     <g id="text_9">
      <!-- 0.05 -->
      <g transform="translate(28.334375 58.243662)scale(0.1 -0.1)">
       <defs>
        <path d="M 691 4666 
L 3169 4666 
L 3169 4134 
L 1269 4134 
L 1269 2991 
Q 1406 3038 1543 3061 
Q 1681 3084 1819 3084 
Q 2600 3084 3056 2656 
Q 3513 2228 3513 1497 
Q 3513 744 3044 326 
Q 2575 -91 1722 -91 
Q 1428 -91 1123 -41 
Q 819 9 494 109 
L 494 744 
Q 775 591 1075 516 
Q 1375 441 1709 441 
Q 2250 441 2565 725 
Q 2881 1009 2881 1497 
Q 2881 1984 2565 2268 
Q 2250 2553 1709 2553 
Q 1456 2553 1204 2497 
Q 953 2441 691 2322 
L 691 4666 
z
" id="DejaVuSans-35" transform="scale(0.015625)"/>
       </defs>
       <use xlink:href="#DejaVuSans-30"/>
       <use x="63.623047" xlink:href="#DejaVuSans-2e"/>
       <use x="95.410156" xlink:href="#DejaVuSans-30"/>
       <use x="159.033203" xlink:href="#DejaVuSans-35"/>
      </g>
     </g>
    </g>
   </g>
   <g id="line2d_26">
    <path clip-path="url(#pf8233622e6)" d="M -1 307.584 
L 58.456889 307.584 
L 112.208805 307.583998 
L 143.65166 307.583987 
L 165.960721 307.583925 
L 183.264973 307.583662 
L 197.403576 307.582702 
L 209.357595 307.579657 
L 219.712637 307.571065 
L 228.846431 307.549164 
L 237.016889 307.498123 
L 244.407966 307.388292 
L 251.155492 307.168354 
L 257.362614 306.755752 
L 263.109511 306.0266 
L 268.459744 304.807036 
L 273.464553 302.868686 
L 278.165848 299.931077 
L 282.598347 295.673403 
L 286.791132 289.756894 
L 290.768805 281.857265 
L 294.552366 271.704656 
L 298.159882 259.126569 
L 301.607011 244.08798 
L 304.907408 226.722394 
L 308.073056 207.348365 
L 311.11453 186.467692 
L 314.041202 164.744005 
L 316.861427 142.963186 
L 319.582675 121.979611 
L 322.21166 102.65414 
L 324.754433 85.790699 
L 327.216469 72.07832 
L 329.602738 62.044455 
L 331.917764 56.023704 
L 334.165679 54.144 
L 336.350263 56.33016 
L 338.474988 62.322848 
L 340.543048 71.709596 
L 342.557385 83.963729 
L 344.520721 98.486824 
L 346.435574 114.650661 
L 348.304282 131.835312 
L 350.129016 149.460951 
L 351.911798 167.011965 
L 353.654515 184.052911 
L 355.358927 200.236652 
L 357.026682 215.305609 
L 358.659324 229.087438 
L 360.258301 241.486605 
L 361.824973 252.473338 
L 363.360619 262.071287 
L 364.866446 270.345 
L 366.343588 277.38807 
L 367.793118 283.312556 
L 369.21605 288.239988 
L 370.613343 292.29414 
L 371.985903 295.59551 
L 373.334591 298.257398 
L 374.660224 300.38337 
L 375.963576 302.065868 
L 377.245384 303.38572 
L 378.506349 304.412329 
L 379.747137 305.204318 
L 380.968385 305.810473 
L 382.170697 306.270845 
L 383.354654 306.617902 
L 384.520805 306.87765 
L 385.66968 307.070694 
L 386.801782 307.213191 
L 387.917595 307.317681 
L 389.017579 307.39381 
L 390.102179 307.448928 
L 391.171818 307.488592 
L 392.226904 307.516966 
L 393.267828 307.537145 
L 394.294964 307.551416 
L 395.308672 307.561453 
L 396.309301 307.568474 
L 397.297182 307.573359 
L 398.272637 307.576742 
L 399.235973 307.579071 
L 400.18749 307.580668 
L 401.127473 307.581758 
L 402.056198 307.582497 
L 402.973932 307.582997 
L 403.880932 307.583334 
L 404.777446 307.583559 
L 405.663714 307.583709 
L 406.539968 307.583809 
L 407.406431 307.583875 
" style="fill:none;stroke:#ff7f0e;stroke-linecap:square;stroke-width:1.5;"/>
   </g>
   <g id="patch_87">
    <path d="M 57.6 307.584 
L 57.6 41.472 
" style="fill:none;stroke:#000000;stroke-linecap:square;stroke-linejoin:miter;stroke-width:0.8;"/>
   </g>
   <g id="patch_88">
    <path d="M 414.72 307.584 
L 414.72 41.472 
" style="fill:none;stroke:#000000;stroke-linecap:square;stroke-linejoin:miter;stroke-width:0.8;"/>
   </g>
   <g id="patch_89">
    <path d="M 57.6 307.584 
L 414.72 307.584 
" style="fill:none;stroke:#000000;stroke-linecap:square;stroke-linejoin:miter;stroke-width:0.8;"/>
   </g>
   <g id="patch_90">
    <path d="M 57.6 41.472 
L 414.72 41.472 
" style="fill:none;stroke:#000000;stroke-linecap:square;stroke-linejoin:miter;stroke-width:0.8;"/>
   </g>
  </g>
 </g>
 <defs>
  <clipPath id="pf8233622e6">
   <rect height="266.112" width="357.12" x="57.6" y="41.472"/>
  </clipPath>
 </defs>
</svg>
