<?xml version="1.0" encoding="utf-8" standalone="no"?>
<!DOCTYPE svg PUBLIC "-//W3C//DTD SVG 1.1//EN"
  "http://www.w3.org/Graphics/SVG/1.1/DTD/svg11.dtd">
<svg height="345.6pt" version="1.1" viewBox="0 0 460.8 345.6" width="460.8pt" xmlns="http://www.w3.org/2000/svg" xmlns:xlink="http://www.w3.org/1999/xlink">
 <metadata>
  <rdf:RDF xmlns:cc="http://creativecommons.org/ns#" xmlns:dc="http://purl.org/dc/elements/1.1/" xmlns:rdf="http://www.w3.org/1999/02/22-rdf-syntax-ns#">
   <cc:Work>
    <dc:type rdf:resource="http://purl.org/dc/dcmitype/StillImage"/>
    <dc:date>2021-10-05T12:47:45.648412</dc:date>
    <dc:format>image/svg+xml</dc:format>
    <dc:creator>
     <cc:Agent>
      <dc:title>Matplotlib v3.4.2, https://matplotlib.org/</dc:title>
     </cc:Agent>
    </dc:creator>
   </cc:Work>
  </rdf:RDF>
 </metadata>
 <defs>
  <style type="text/css">*{stroke-linecap:butt;stroke-linejoin:round;}</style>
 </defs>
 <g id="figure_1">
  <g id="patch_1">
   <path d="M 0 345.6 
L 460.8 345.6 
L 460.8 0 
L 0 0 
z
" style="fill:#ffffff;"/>
  </g>
  <g id="axes_1">
   <g id="patch_2">
    <path d="M 57.6 307.584 
L 414.72 307.584 
L 414.72 41.472 
L 57.6 41.472 
z
" style="fill:#ffffff;"/>
   </g>
   <g id="patch_3">
    <path clip-path="url(#p50b4c1e6de)" d="M 111.351916 307.584 
L 142.794771 307.584 
L 142.794771 307.583418 
L 111.351916 307.583418 
z
" style="fill:#1f77b4;"/>
   </g>
   <g id="patch_4">
    <path clip-path="url(#p50b4c1e6de)" d="M 142.794771 307.584 
L 165.103832 307.584 
L 165.103832 307.577599 
L 142.794771 307.577599 
z
" style="fill:#1f77b4;"/>
   </g>
   <g id="patch_5">
    <path clip-path="url(#p50b4c1e6de)" d="M 165.103832 307.584 
L 182.408084 307.584 
L 182.408084 307.580218 
L 165.103832 307.580218 
z
" style="fill:#1f77b4;"/>
   </g>
   <g id="patch_6">
    <path clip-path="url(#p50b4c1e6de)" d="M 182.408084 307.584 
L 196.546687 307.584 
L 196.546687 307.555487 
L 182.408084 307.555487 
z
" style="fill:#1f77b4;"/>
   </g>
   <g id="patch_7">
    <path clip-path="url(#p50b4c1e6de)" d="M 196.546687 307.584 
L 208.500706 307.584 
L 208.500706 307.518537 
L 196.546687 307.518537 
z
" style="fill:#1f77b4;"/>
   </g>
   <g id="patch_8">
    <path clip-path="url(#p50b4c1e6de)" d="M 208.500706 307.584 
L 218.855748 307.584 
L 218.855748 307.391103 
L 208.500706 307.391103 
z
" style="fill:#1f77b4;"/>
   </g>
   <g id="patch_9">
    <path clip-path="url(#p50b4c1e6de)" d="M 218.855748 307.584 
L 227.989542 307.584 
L 227.989542 307.14409 
L 218.855748 307.14409 
z
" style="fill:#1f77b4;"/>
   </g>
   <g id="patch_10">
    <path clip-path="url(#p50b4c1e6de)" d="M 227.989542 307.584 
L 236.16 307.584 
L 236.16 306.558707 
L 227.989542 306.558707 
z
" style="fill:#1f77b4;"/>
   </g>
   <g id="patch_11">
    <path clip-path="url(#p50b4c1e6de)" d="M 236.16 307.584 
L 243.551078 307.584 
L 243.551078 305.454859 
L 236.16 305.454859 
z
" style="fill:#1f77b4;"/>
   </g>
   <g id="patch_12">
    <path clip-path="url(#p50b4c1e6de)" d="M 243.551078 307.584 
L 250.298603 307.584 
L 250.298603 303.776102 
L 243.551078 303.776102 
z
" style="fill:#1f77b4;"/>
   </g>
   <g id="patch_13">
    <path clip-path="url(#p50b4c1e6de)" d="M 250.298603 307.584 
L 256.505725 307.584 
L 256.505725 301.04965 
L 250.298603 301.04965 
z
" style="fill:#1f77b4;"/>
   </g>
   <g id="patch_14">
    <path clip-path="url(#p50b4c1e6de)" d="M 256.505725 307.584 
L 262.252622 307.584 
L 262.252622 296.786423 
L 256.505725 296.786423 
z
" style="fill:#1f77b4;"/>
   </g>
   <g id="patch_15">
    <path clip-path="url(#p50b4c1e6de)" d="M 262.252622 307.584 
L 267.602855 307.584 
L 267.602855 291.078359 
L 262.252622 291.078359 
z
" style="fill:#1f77b4;"/>
   </g>
   <g id="patch_16">
    <path clip-path="url(#p50b4c1e6de)" d="M 267.602855 307.584 
L 272.607664 307.584 
L 272.607664 282.79077 
L 267.602855 282.79077 
z
" style="fill:#1f77b4;"/>
   </g>
   <g id="patch_17">
    <path clip-path="url(#p50b4c1e6de)" d="M 272.607664 307.584 
L 277.308959 307.584 
L 277.308959 272.83839 
L 272.607664 272.83839 
z
" style="fill:#1f77b4;"/>
   </g>
   <g id="patch_18">
    <path clip-path="url(#p50b4c1e6de)" d="M 277.308959 307.584 
L 281.741459 307.584 
L 281.741459 260.582592 
L 277.308959 260.582592 
z
" style="fill:#1f77b4;"/>
   </g>
   <g id="patch_19">
    <path clip-path="url(#p50b4c1e6de)" d="M 281.741459 307.584 
L 285.934243 307.584 
L 285.934243 245.434795 
L 281.741459 245.434795 
z
" style="fill:#1f77b4;"/>
   </g>
   <g id="patch_20">
    <path clip-path="url(#p50b4c1e6de)" d="M 285.934243 307.584 
L 289.911916 307.584 
L 289.911916 229.024874 
L 285.934243 229.024874 
z
" style="fill:#1f77b4;"/>
   </g>
   <g id="patch_21">
    <path clip-path="url(#p50b4c1e6de)" d="M 289.911916 307.584 
L 293.695477 307.584 
L 293.695477 211.481721 
L 289.911916 211.481721 
z
" style="fill:#1f77b4;"/>
   </g>
   <g id="patch_22">
    <path clip-path="url(#p50b4c1e6de)" d="M 293.695477 307.584 
L 297.302994 307.584 
L 297.302994 192.420994 
L 293.695477 192.420994 
z
" style="fill:#1f77b4;"/>
   </g>
   <g id="patch_23">
    <path clip-path="url(#p50b4c1e6de)" d="M 297.302994 307.584 
L 300.750122 307.584 
L 300.750122 173.194137 
L 297.302994 173.194137 
z
" style="fill:#1f77b4;"/>
   </g>
   <g id="patch_24">
    <path clip-path="url(#p50b4c1e6de)" d="M 300.750122 307.584 
L 304.050519 307.584 
L 304.050519 155.351018 
L 300.750122 155.351018 
z
" style="fill:#1f77b4;"/>
   </g>
   <g id="patch_25">
    <path clip-path="url(#p50b4c1e6de)" d="M 304.050519 307.584 
L 307.216168 307.584 
L 307.216168 136.881202 
L 304.050519 136.881202 
z
" style="fill:#1f77b4;"/>
   </g>
   <g id="patch_26">
    <path clip-path="url(#p50b4c1e6de)" d="M 307.216168 307.584 
L 310.257641 307.584 
L 310.257641 120.726441 
L 307.216168 120.726441 
z
" style="fill:#1f77b4;"/>
   </g>
   <g id="patch_27">
    <path clip-path="url(#p50b4c1e6de)" d="M 310.257641 307.584 
L 313.184314 307.584 
L 313.184314 107.517797 
L 310.257641 107.517797 
z
" style="fill:#1f77b4;"/>
   </g>
   <g id="patch_28">
    <path clip-path="url(#p50b4c1e6de)" d="M 313.184314 307.584 
L 316.004538 307.584 
L 316.004538 95.482536 
L 313.184314 95.482536 
z
" style="fill:#1f77b4;"/>
   </g>
   <g id="patch_29">
    <path clip-path="url(#p50b4c1e6de)" d="M 316.004538 307.584 
L 318.725787 307.584 
L 318.725787 85.842341 
L 316.004538 85.842341 
z
" style="fill:#1f77b4;"/>
   </g>
   <g id="patch_30">
    <path clip-path="url(#p50b4c1e6de)" d="M 318.725787 307.584 
L 321.354771 307.584 
L 321.354771 77.324905 
L 318.725787 77.324905 
z
" style="fill:#1f77b4;"/>
   </g>
   <g id="patch_31">
    <path clip-path="url(#p50b4c1e6de)" d="M 321.354771 307.584 
L 323.897544 307.584 
L 323.897544 72.210952 
L 321.354771 72.210952 
z
" style="fill:#1f77b4;"/>
   </g>
   <g id="patch_32">
    <path clip-path="url(#p50b4c1e6de)" d="M 323.897544 307.584 
L 326.35958 307.584 
L 326.35958 69.554618 
L 323.897544 69.554618 
z
" style="fill:#1f77b4;"/>
   </g>
   <g id="patch_33">
    <path clip-path="url(#p50b4c1e6de)" d="M 326.35958 307.584 
L 328.745849 307.584 
L 328.745849 68.501976 
L 326.35958 68.501976 
z
" style="fill:#1f77b4;"/>
   </g>
   <g id="patch_34">
    <path clip-path="url(#p50b4c1e6de)" d="M 328.745849 307.584 
L 331.060875 307.584 
L 331.060875 69.041972 
L 328.745849 69.041972 
z
" style="fill:#1f77b4;"/>
   </g>
   <g id="patch_35">
    <path clip-path="url(#p50b4c1e6de)" d="M 331.060875 307.584 
L 333.30879 307.584 
L 333.30879 71.247049 
L 331.060875 71.247049 
z
" style="fill:#1f77b4;"/>
   </g>
   <g id="patch_36">
    <path clip-path="url(#p50b4c1e6de)" d="M 333.30879 307.584 
L 335.493375 307.584 
L 335.493375 74.935659 
L 333.30879 74.935659 
z
" style="fill:#1f77b4;"/>
   </g>
   <g id="patch_37">
    <path clip-path="url(#p50b4c1e6de)" d="M 335.493375 307.584 
L 337.6181 307.584 
L 337.6181 78.483742 
L 335.493375 78.483742 
z
" style="fill:#1f77b4;"/>
   </g>
   <g id="patch_38">
    <path clip-path="url(#p50b4c1e6de)" d="M 337.6181 307.584 
L 339.686159 307.584 
L 339.686159 84.289564 
L 337.6181 84.289564 
z
" style="fill:#1f77b4;"/>
   </g>
   <g id="patch_39">
    <path clip-path="url(#p50b4c1e6de)" d="M 339.686159 307.584 
L 341.700496 307.584 
L 341.700496 91.03514 
L 339.686159 91.03514 
z
" style="fill:#1f77b4;"/>
   </g>
   <g id="patch_40">
    <path clip-path="url(#p50b4c1e6de)" d="M 341.700496 307.584 
L 343.663832 307.584 
L 343.663832 98.550559 
L 341.700496 98.550559 
z
" style="fill:#1f77b4;"/>
   </g>
   <g id="patch_41">
    <path clip-path="url(#p50b4c1e6de)" d="M 343.663832 307.584 
L 345.578685 307.584 
L 345.578685 105.478558 
L 343.663832 105.478558 
z
" style="fill:#1f77b4;"/>
   </g>
   <g id="patch_42">
    <path clip-path="url(#p50b4c1e6de)" d="M 345.578685 307.584 
L 347.447393 307.584 
L 347.447393 113.741999 
L 345.578685 113.741999 
z
" style="fill:#1f77b4;"/>
   </g>
   <g id="patch_43">
    <path clip-path="url(#p50b4c1e6de)" d="M 347.447393 307.584 
L 349.272127 307.584 
L 349.272127 122.058682 
L 347.447393 122.058682 
z
" style="fill:#1f77b4;"/>
   </g>
   <g id="patch_44">
    <path clip-path="url(#p50b4c1e6de)" d="M 349.272127 307.584 
L 351.05491 307.584 
L 351.05491 131.478631 
L 349.272127 131.478631 
z
" style="fill:#1f77b4;"/>
   </g>
   <g id="patch_45">
    <path clip-path="url(#p50b4c1e6de)" d="M 351.05491 307.584 
L 352.797626 307.584 
L 352.797626 140.348984 
L 351.05491 140.348984 
z
" style="fill:#1f77b4;"/>
   </g>
   <g id="patch_46">
    <path clip-path="url(#p50b4c1e6de)" d="M 352.797626 307.584 
L 354.502038 307.584 
L 354.502038 150.461676 
L 352.797626 150.461676 
z
" style="fill:#1f77b4;"/>
   </g>
   <g id="patch_47">
    <path clip-path="url(#p50b4c1e6de)" d="M 354.502038 307.584 
L 356.169794 307.584 
L 356.169794 159.642177 
L 354.502038 159.642177 
z
" style="fill:#1f77b4;"/>
   </g>
   <g id="patch_48">
    <path clip-path="url(#p50b4c1e6de)" d="M 356.169794 307.584 
L 357.802435 307.584 
L 357.802435 169.136608 
L 356.169794 169.136608 
z
" style="fill:#1f77b4;"/>
   </g>
   <g id="patch_49">
    <path clip-path="url(#p50b4c1e6de)" d="M 357.802435 307.584 
L 359.401412 307.584 
L 359.401412 179.358404 
L 357.802435 179.358404 
z
" style="fill:#1f77b4;"/>
   </g>
   <g id="patch_50">
    <path clip-path="url(#p50b4c1e6de)" d="M 359.401412 307.584 
L 360.968084 307.584 
L 360.968084 188.863601 
L 359.401412 188.863601 
z
" style="fill:#1f77b4;"/>
   </g>
   <g id="patch_51">
    <path clip-path="url(#p50b4c1e6de)" d="M 360.968084 307.584 
L 362.503731 307.584 
L 362.503731 198.355705 
L 360.968084 198.355705 
z
" style="fill:#1f77b4;"/>
   </g>
   <g id="patch_52">
    <path clip-path="url(#p50b4c1e6de)" d="M 362.503731 307.584 
L 364.009557 307.584 
L 364.009557 207.362511 
L 362.503731 207.362511 
z
" style="fill:#1f77b4;"/>
   </g>
   <g id="patch_53">
    <path clip-path="url(#p50b4c1e6de)" d="M 364.009557 307.584 
L 365.486699 307.584 
L 365.486699 216.496461 
L 364.009557 216.496461 
z
" style="fill:#1f77b4;"/>
   </g>
   <g id="patch_54">
    <path clip-path="url(#p50b4c1e6de)" d="M 365.486699 307.584 
L 366.93623 307.584 
L 366.93623 224.579515 
L 365.486699 224.579515 
z
" style="fill:#1f77b4;"/>
   </g>
   <g id="patch_55">
    <path clip-path="url(#p50b4c1e6de)" d="M 366.93623 307.584 
L 368.359162 307.584 
L 368.359162 233.194999 
L 366.93623 233.194999 
z
" style="fill:#1f77b4;"/>
   </g>
   <g id="patch_56">
    <path clip-path="url(#p50b4c1e6de)" d="M 368.359162 307.584 
L 369.756454 307.584 
L 369.756454 240.399397 
L 368.359162 240.399397 
z
" style="fill:#1f77b4;"/>
   </g>
   <g id="patch_57">
    <path clip-path="url(#p50b4c1e6de)" d="M 369.756454 307.584 
L 371.129014 307.584 
L 371.129014 247.361146 
L 369.756454 247.361146 
z
" style="fill:#1f77b4;"/>
   </g>
   <g id="patch_58">
    <path clip-path="url(#p50b4c1e6de)" d="M 371.129014 307.584 
L 372.477703 307.584 
L 372.477703 254.400287 
L 371.129014 254.400287 
z
" style="fill:#1f77b4;"/>
   </g>
   <g id="patch_59">
    <path clip-path="url(#p50b4c1e6de)" d="M 372.477703 307.584 
L 373.803335 307.584 
L 373.803335 260.785382 
L 372.477703 260.785382 
z
" style="fill:#1f77b4;"/>
   </g>
   <g id="patch_60">
    <path clip-path="url(#p50b4c1e6de)" d="M 373.803335 307.584 
L 375.106687 307.584 
L 375.106687 266.226066 
L 373.803335 266.226066 
z
" style="fill:#1f77b4;"/>
   </g>
   <g id="patch_61">
    <path clip-path="url(#p50b4c1e6de)" d="M 375.106687 307.584 
L 376.388495 307.584 
L 376.388495 271.568994 
L 375.106687 271.568994 
z
" style="fill:#1f77b4;"/>
   </g>
   <g id="patch_62">
    <path clip-path="url(#p50b4c1e6de)" d="M 376.388495 307.584 
L 377.64946 307.584 
L 377.64946 276.213651 
L 376.388495 276.213651 
z
" style="fill:#1f77b4;"/>
   </g>
   <g id="patch_63">
    <path clip-path="url(#p50b4c1e6de)" d="M 377.64946 307.584 
L 378.890249 307.584 
L 378.890249 280.45884 
L 377.64946 280.45884 
z
" style="fill:#1f77b4;"/>
   </g>
   <g id="patch_64">
    <path clip-path="url(#p50b4c1e6de)" d="M 378.890249 307.584 
L 380.111496 307.584 
L 380.111496 284.310379 
L 378.890249 284.310379 
z
" style="fill:#1f77b4;"/>
   </g>
   <g id="patch_65">
    <path clip-path="url(#p50b4c1e6de)" d="M 380.111496 307.584 
L 381.313809 307.584 
L 381.313809 287.690878 
L 380.111496 287.690878 
z
" style="fill:#1f77b4;"/>
   </g>
   <g id="patch_66">
    <path clip-path="url(#p50b4c1e6de)" d="M 381.313809 307.584 
L 382.497765 307.584 
L 382.497765 290.536036 
L 381.313809 290.536036 
z
" style="fill:#1f77b4;"/>
   </g>
   <g id="patch_67">
    <path clip-path="url(#p50b4c1e6de)" d="M 382.497765 307.584 
L 383.663917 307.584 
L 383.663917 292.967178 
L 382.497765 292.967178 
z
" style="fill:#1f77b4;"/>
   </g>
   <g id="patch_68">
    <path clip-path="url(#p50b4c1e6de)" d="M 383.663917 307.584 
L 384.812791 307.584 
L 384.812791 295.245283 
L 383.663917 295.245283 
z
" style="fill:#1f77b4;"/>
   </g>
   <g id="patch_69">
    <path clip-path="url(#p50b4c1e6de)" d="M 384.812791 307.584 
L 385.944894 307.584 
L 385.944894 297.266774 
L 384.812791 297.266774 
z
" style="fill:#1f77b4;"/>
   </g>
   <g id="patch_70">
    <path clip-path="url(#p50b4c1e6de)" d="M 385.944894 307.584 
L 387.060706 307.584 
L 387.060706 298.887633 
L 385.944894 298.887633 
z
" style="fill:#1f77b4;"/>
   </g>
   <g id="patch_71">
    <path clip-path="url(#p50b4c1e6de)" d="M 387.060706 307.584 
L 388.160691 307.584 
L 388.160691 300.285336 
L 387.060706 300.285336 
z
" style="fill:#1f77b4;"/>
   </g>
   <g id="patch_72">
    <path clip-path="url(#p50b4c1e6de)" d="M 388.160691 307.584 
L 389.245291 307.584 
L 389.245291 301.485196 
L 388.160691 301.485196 
z
" style="fill:#1f77b4;"/>
   </g>
   <g id="patch_73">
    <path clip-path="url(#p50b4c1e6de)" d="M 389.245291 307.584 
L 390.31493 307.584 
L 390.31493 302.573042 
L 389.245291 302.573042 
z
" style="fill:#1f77b4;"/>
   </g>
   <g id="patch_74">
    <path clip-path="url(#p50b4c1e6de)" d="M 390.31493 307.584 
L 391.370016 307.584 
L 391.370016 303.543055 
L 390.31493 303.543055 
z
" style="fill:#1f77b4;"/>
   </g>
   <g id="patch_75">
    <path clip-path="url(#p50b4c1e6de)" d="M 391.370016 307.584 
L 392.410939 307.584 
L 392.410939 304.231142 
L 391.370016 304.231142 
z
" style="fill:#1f77b4;"/>
   </g>
   <g id="patch_76">
    <path clip-path="url(#p50b4c1e6de)" d="M 392.410939 307.584 
L 393.438075 307.584 
L 393.438075 304.850274 
L 392.410939 304.850274 
z
" style="fill:#1f77b4;"/>
   </g>
   <g id="patch_77">
    <path clip-path="url(#p50b4c1e6de)" d="M 393.438075 307.584 
L 394.451784 307.584 
L 394.451784 305.364084 
L 393.438075 305.364084 
z
" style="fill:#1f77b4;"/>
   </g>
   <g id="patch_78">
    <path clip-path="url(#p50b4c1e6de)" d="M 394.451784 307.584 
L 395.452412 307.584 
L 395.452412 305.799048 
L 394.451784 305.799048 
z
" style="fill:#1f77b4;"/>
   </g>
   <g id="patch_79">
    <path clip-path="url(#p50b4c1e6de)" d="M 395.452412 307.584 
L 396.440293 307.584 
L 396.440293 306.154002 
L 395.452412 306.154002 
z
" style="fill:#1f77b4;"/>
   </g>
   <g id="patch_80">
    <path clip-path="url(#p50b4c1e6de)" d="M 396.440293 307.584 
L 397.415748 307.584 
L 397.415748 306.438256 
L 396.440293 306.438256 
z
" style="fill:#1f77b4;"/>
   </g>
   <g id="patch_81">
    <path clip-path="url(#p50b4c1e6de)" d="M 397.415748 307.584 
L 398.379085 307.584 
L 398.379085 306.654137 
L 397.415748 306.654137 
z
" style="fill:#1f77b4;"/>
   </g>
   <g id="patch_82">
    <path clip-path="url(#p50b4c1e6de)" d="M 398.379085 307.584 
L 399.330601 307.584 
L 399.330601 306.83016 
L 398.379085 306.83016 
z
" style="fill:#1f77b4;"/>
   </g>
   <g id="patch_83">
    <path clip-path="url(#p50b4c1e6de)" d="M 399.330601 307.584 
L 400.270584 307.584 
L 400.270584 306.983197 
L 399.330601 306.983197 
z
" style="fill:#1f77b4;"/>
   </g>
   <g id="patch_84">
    <path clip-path="url(#p50b4c1e6de)" d="M 400.270584 307.584 
L 401.199309 307.584 
L 401.199309 307.089974 
L 400.270584 307.089974 
z
" style="fill:#1f77b4;"/>
   </g>
   <g id="patch_85">
    <path clip-path="url(#p50b4c1e6de)" d="M 401.199309 307.584 
L 402.117043 307.584 
L 402.117043 307.22701 
L 401.199309 307.22701 
z
" style="fill:#1f77b4;"/>
   </g>
   <g id="patch_86">
    <path clip-path="url(#p50b4c1e6de)" d="M 402.117043 307.584 
L 403.024043 307.584 
L 403.024043 307.275888 
L 402.117043 307.275888 
z
" style="fill:#1f77b4;"/>
   </g>
   <g id="patch_87">
    <path clip-path="url(#p50b4c1e6de)" d="M 403.024043 307.584 
L 403.920558 307.584 
L 403.920558 307.360263 
L 403.024043 307.360263 
z
" style="fill:#1f77b4;"/>
   </g>
   <g id="patch_88">
    <path clip-path="url(#p50b4c1e6de)" d="M 403.920558 307.584 
L 404.806826 307.584 
L 404.806826 307.401577 
L 403.920558 307.401577 
z
" style="fill:#1f77b4;"/>
   </g>
   <g id="patch_89">
    <path clip-path="url(#p50b4c1e6de)" d="M 404.806826 307.584 
L 405.68308 307.584 
L 405.68308 307.43329 
L 404.806826 307.43329 
z
" style="fill:#1f77b4;"/>
   </g>
   <g id="patch_90">
    <path clip-path="url(#p50b4c1e6de)" d="M 405.68308 307.584 
L 406.549542 307.584 
L 406.549542 307.475186 
L 405.68308 307.475186 
z
" style="fill:#1f77b4;"/>
   </g>
   <g id="patch_91">
    <path clip-path="url(#p50b4c1e6de)" d="M 406.549542 307.584 
L 407.406431 307.584 
L 407.406431 307.499626 
L 406.549542 307.499626 
z
" style="fill:#1f77b4;"/>
   </g>
   <g id="patch_92">
    <path clip-path="url(#p50b4c1e6de)" d="M 407.406431 307.584 
L 408.253954 307.584 
L 408.253954 307.509227 
L 407.406431 307.509227 
z
" style="fill:#1f77b4;"/>
   </g>
   <g id="patch_93">
    <path clip-path="url(#p50b4c1e6de)" d="M 408.253954 307.584 
L 409.092315 307.584 
L 409.092315 307.534248 
L 408.253954 307.534248 
z
" style="fill:#1f77b4;"/>
   </g>
   <g id="patch_94">
    <path clip-path="url(#p50b4c1e6de)" d="M 409.092315 307.584 
L 409.92171 307.584 
L 409.92171 307.543268 
L 409.092315 307.543268 
z
" style="fill:#1f77b4;"/>
   </g>
   <g id="patch_95">
    <path clip-path="url(#p50b4c1e6de)" d="M 409.92171 307.584 
L 410.742327 307.584 
L 410.742327 307.552869 
L 409.92171 307.552869 
z
" style="fill:#1f77b4;"/>
   </g>
   <g id="patch_96">
    <path clip-path="url(#p50b4c1e6de)" d="M 410.742327 307.584 
L 411.554351 307.584 
L 411.554351 307.557524 
L 410.742327 307.557524 
z
" style="fill:#1f77b4;"/>
   </g>
   <g id="patch_97">
    <path clip-path="url(#p50b4c1e6de)" d="M 411.554351 307.584 
L 412.357961 307.584 
L 412.357961 307.568289 
L 411.554351 307.568289 
z
" style="fill:#1f77b4;"/>
   </g>
   <g id="patch_98">
    <path clip-path="url(#p50b4c1e6de)" d="M 412.357961 307.584 
L 413.153328 307.584 
L 413.153328 307.566834 
L 412.357961 307.566834 
z
" style="fill:#1f77b4;"/>
   </g>
   <g id="patch_99">
    <path clip-path="url(#p50b4c1e6de)" d="M 413.153328 307.584 
L 413.94062 307.584 
L 413.94062 307.567416 
L 413.153328 307.567416 
z
" style="fill:#1f77b4;"/>
   </g>
   <g id="patch_100">
    <path clip-path="url(#p50b4c1e6de)" d="M 413.94062 307.584 
L 414.72 307.584 
L 414.72 307.571489 
L 413.94062 307.571489 
z
" style="fill:#1f77b4;"/>
   </g>
   <g id="patch_101">
    <path clip-path="url(#p50b4c1e6de)" d="M 414.72 307.584 
L 415.491625 307.584 
L 415.491625 307.579345 
L 414.72 307.579345 
z
" style="fill:#1f77b4;"/>
   </g>
   <g id="patch_102">
    <path clip-path="url(#p50b4c1e6de)" d="M 415.491625 307.584 
L 416.255647 307.584 
L 416.255647 307.579927 
L 415.491625 307.579927 
z
" style="fill:#1f77b4;"/>
   </g>
   <g id="patch_103">
    <path clip-path="url(#p50b4c1e6de)" d="M 416.255647 307.584 
L 417.012215 307.584 
L 417.012215 307.581963 
L 416.255647 307.581963 
z
" style="fill:#1f77b4;"/>
   </g>
   <g id="patch_104">
    <path clip-path="url(#p50b4c1e6de)" d="M 417.012215 307.584 
L 417.761473 307.584 
L 417.761473 307.581091 
L 417.012215 307.581091 
z
" style="fill:#1f77b4;"/>
   </g>
   <g id="patch_105">
    <path clip-path="url(#p50b4c1e6de)" d="M 417.761473 307.584 
L 418.503561 307.584 
L 418.503561 307.580509 
L 417.761473 307.580509 
z
" style="fill:#1f77b4;"/>
   </g>
   <g id="patch_106">
    <path clip-path="url(#p50b4c1e6de)" d="M 418.503561 307.584 
L 419.238615 307.584 
L 419.238615 307.582836 
L 418.503561 307.582836 
z
" style="fill:#1f77b4;"/>
   </g>
   <g id="patch_107">
    <path clip-path="url(#p50b4c1e6de)" d="M 419.238615 307.584 
L 419.966767 307.584 
L 419.966767 307.583127 
L 419.238615 307.583127 
z
" style="fill:#1f77b4;"/>
   </g>
   <g id="patch_108">
    <path clip-path="url(#p50b4c1e6de)" d="M 419.966767 307.584 
L 420.688146 307.584 
L 420.688146 307.582836 
L 419.966767 307.582836 
z
" style="fill:#1f77b4;"/>
   </g>
   <g id="patch_109">
    <path clip-path="url(#p50b4c1e6de)" d="M 420.688146 307.584 
L 421.402875 307.584 
L 421.402875 307.582836 
L 420.688146 307.582836 
z
" style="fill:#1f77b4;"/>
   </g>
   <g id="patch_110">
    <path clip-path="url(#p50b4c1e6de)" d="M 421.402875 307.584 
L 422.111078 307.584 
L 422.111078 307.583418 
L 421.402875 307.583418 
z
" style="fill:#1f77b4;"/>
   </g>
   <g id="patch_111">
    <path clip-path="url(#p50b4c1e6de)" d="M 422.111078 307.584 
L 422.812871 307.584 
L 422.812871 307.582836 
L 422.111078 307.582836 
z
" style="fill:#1f77b4;"/>
   </g>
   <g id="patch_112">
    <path clip-path="url(#p50b4c1e6de)" d="M 422.812871 307.584 
L 423.50837 307.584 
L 423.50837 307.583418 
L 422.812871 307.583418 
z
" style="fill:#1f77b4;"/>
   </g>
   <g id="matplotlib.axis_1">
    <g id="xtick_1">
     <g id="line2d_1">
      <defs>
       <path d="M 0 0 
L 0 3.5 
" id="mefdb247a55" style="stroke:#000000;stroke-width:0.8;"/>
      </defs>
      <g>
       <use style="stroke:#000000;stroke-width:0.8;" x="57.6" xlink:href="#mefdb247a55" y="307.584"/>
      </g>
     </g>
     <g id="text_1">
      <!-- $\mathdefault{10^{0}}$ -->
      <g transform="translate(48.8 322.182437)scale(0.1 -0.1)">
       <defs>
        <path d="M 794 531 
L 1825 531 
L 1825 4091 
L 703 3866 
L 703 4441 
L 1819 4666 
L 2450 4666 
L 2450 531 
L 3481 531 
L 3481 0 
L 794 0 
L 794 531 
z
" id="DejaVuSans-31" transform="scale(0.015625)"/>
        <path d="M 2034 4250 
Q 1547 4250 1301 3770 
Q 1056 3291 1056 2328 
Q 1056 1369 1301 889 
Q 1547 409 2034 409 
Q 2525 409 2770 889 
Q 3016 1369 3016 2328 
Q 3016 3291 2770 3770 
Q 2525 4250 2034 4250 
z
M 2034 4750 
Q 2819 4750 3233 4129 
Q 3647 3509 3647 2328 
Q 3647 1150 3233 529 
Q 2819 -91 2034 -91 
Q 1250 -91 836 529 
Q 422 1150 422 2328 
Q 422 3509 836 4129 
Q 1250 4750 2034 4750 
z
" id="DejaVuSans-30" transform="scale(0.015625)"/>
       </defs>
       <use transform="translate(0 0.765625)" xlink:href="#DejaVuSans-31"/>
       <use transform="translate(63.623047 0.765625)" xlink:href="#DejaVuSans-30"/>
       <use transform="translate(128.203125 39.046875)scale(0.7)" xlink:href="#DejaVuSans-30"/>
      </g>
     </g>
    </g>
    <g id="xtick_2">
     <g id="line2d_2">
      <g>
       <use style="stroke:#000000;stroke-width:0.8;" x="236.16" xlink:href="#mefdb247a55" y="307.584"/>
      </g>
     </g>
     <g id="text_2">
      <!-- $\mathdefault{10^{1}}$ -->
      <g transform="translate(227.36 322.182437)scale(0.1 -0.1)">
       <use transform="translate(0 0.684375)" xlink:href="#DejaVuSans-31"/>
       <use transform="translate(63.623047 0.684375)" xlink:href="#DejaVuSans-30"/>
       <use transform="translate(128.203125 38.965625)scale(0.7)" xlink:href="#DejaVuSans-31"/>
      </g>
     </g>
    </g>
    <g id="xtick_3">
     <g id="line2d_3">
      <g>
       <use style="stroke:#000000;stroke-width:0.8;" x="414.72" xlink:href="#mefdb247a55" y="307.584"/>
      </g>
     </g>
     <g id="text_3">
      <!-- $\mathdefault{10^{2}}$ -->
      <g transform="translate(405.92 322.182437)scale(0.1 -0.1)">
       <defs>
        <path d="M 1228 531 
L 3431 531 
L 3431 0 
L 469 0 
L 469 531 
Q 828 903 1448 1529 
Q 2069 2156 2228 2338 
Q 2531 2678 2651 2914 
Q 2772 3150 2772 3378 
Q 2772 3750 2511 3984 
Q 2250 4219 1831 4219 
Q 1534 4219 1204 4116 
Q 875 4013 500 3803 
L 500 4441 
Q 881 4594 1212 4672 
Q 1544 4750 1819 4750 
Q 2544 4750 2975 4387 
Q 3406 4025 3406 3419 
Q 3406 3131 3298 2873 
Q 3191 2616 2906 2266 
Q 2828 2175 2409 1742 
Q 1991 1309 1228 531 
z
" id="DejaVuSans-32" transform="scale(0.015625)"/>
       </defs>
       <use transform="translate(0 0.765625)" xlink:href="#DejaVuSans-31"/>
       <use transform="translate(63.623047 0.765625)" xlink:href="#DejaVuSans-30"/>
       <use transform="translate(128.203125 39.046875)scale(0.7)" xlink:href="#DejaVuSans-32"/>
      </g>
     </g>
    </g>
    <g id="xtick_4">
     <g id="line2d_4">
      <defs>
       <path d="M 0 0 
L 0 2 
" id="mec9d978322" style="stroke:#000000;stroke-width:0.6;"/>
      </defs>
      <g>
       <use style="stroke:#000000;stroke-width:0.6;" x="111.351916" xlink:href="#mec9d978322" y="307.584"/>
      </g>
     </g>
    </g>
    <g id="xtick_5">
     <g id="line2d_5">
      <g>
       <use style="stroke:#000000;stroke-width:0.6;" x="142.794771" xlink:href="#mec9d978322" y="307.584"/>
      </g>
     </g>
    </g>
    <g id="xtick_6">
     <g id="line2d_6">
      <g>
       <use style="stroke:#000000;stroke-width:0.6;" x="165.103832" xlink:href="#mec9d978322" y="307.584"/>
      </g>
     </g>
    </g>
    <g id="xtick_7">
     <g id="line2d_7">
      <g>
       <use style="stroke:#000000;stroke-width:0.6;" x="182.408084" xlink:href="#mec9d978322" y="307.584"/>
      </g>
     </g>
    </g>
    <g id="xtick_8">
     <g id="line2d_8">
      <g>
       <use style="stroke:#000000;stroke-width:0.6;" x="196.546687" xlink:href="#mec9d978322" y="307.584"/>
      </g>
     </g>
    </g>
    <g id="xtick_9">
     <g id="line2d_9">
      <g>
       <use style="stroke:#000000;stroke-width:0.6;" x="208.500706" xlink:href="#mec9d978322" y="307.584"/>
      </g>
     </g>
    </g>
    <g id="xtick_10">
     <g id="line2d_10">
      <g>
       <use style="stroke:#000000;stroke-width:0.6;" x="218.855748" xlink:href="#mec9d978322" y="307.584"/>
      </g>
     </g>
    </g>
    <g id="xtick_11">
     <g id="line2d_11">
      <g>
       <use style="stroke:#000000;stroke-width:0.6;" x="227.989542" xlink:href="#mec9d978322" y="307.584"/>
      </g>
     </g>
    </g>
    <g id="xtick_12">
     <g id="line2d_12">
      <g>
       <use style="stroke:#000000;stroke-width:0.6;" x="289.911916" xlink:href="#mec9d978322" y="307.584"/>
      </g>
     </g>
    </g>
    <g id="xtick_13">
     <g id="line2d_13">
      <g>
       <use style="stroke:#000000;stroke-width:0.6;" x="321.354771" xlink:href="#mec9d978322" y="307.584"/>
      </g>
     </g>
    </g>
    <g id="xtick_14">
     <g id="line2d_14">
      <g>
       <use style="stroke:#000000;stroke-width:0.6;" x="343.663832" xlink:href="#mec9d978322" y="307.584"/>
      </g>
     </g>
    </g>
    <g id="xtick_15">
     <g id="line2d_15">
      <g>
       <use style="stroke:#000000;stroke-width:0.6;" x="360.968084" xlink:href="#mec9d978322" y="307.584"/>
      </g>
     </g>
    </g>
    <g id="xtick_16">
     <g id="line2d_16">
      <g>
       <use style="stroke:#000000;stroke-width:0.6;" x="375.106687" xlink:href="#mec9d978322" y="307.584"/>
      </g>
     </g>
    </g>
    <g id="xtick_17">
     <g id="line2d_17">
      <g>
       <use style="stroke:#000000;stroke-width:0.6;" x="387.060706" xlink:href="#mec9d978322" y="307.584"/>
      </g>
     </g>
    </g>
    <g id="xtick_18">
     <g id="line2d_18">
      <g>
       <use style="stroke:#000000;stroke-width:0.6;" x="397.415748" xlink:href="#mec9d978322" y="307.584"/>
      </g>
     </g>
    </g>
    <g id="xtick_19">
     <g id="line2d_19">
      <g>
       <use style="stroke:#000000;stroke-width:0.6;" x="406.549542" xlink:href="#mec9d978322" y="307.584"/>
      </g>
     </g>
    </g>
   </g>
   <g id="matplotlib.axis_2">
    <g id="ytick_1">
     <g id="line2d_20">
      <defs>
       <path d="M 0 0 
L -3.5 0 
" id="m811d7f967b" style="stroke:#000000;stroke-width:0.8;"/>
      </defs>
      <g>
       <use style="stroke:#000000;stroke-width:0.8;" x="57.6" xlink:href="#m811d7f967b" y="307.584"/>
      </g>
     </g>
     <g id="text_4">
      <!-- 0.000 -->
      <g transform="translate(21.971875 311.383219)scale(0.1 -0.1)">
       <defs>
        <path d="M 684 794 
L 1344 794 
L 1344 0 
L 684 0 
L 684 794 
z
" id="DejaVuSans-2e" transform="scale(0.015625)"/>
       </defs>
       <use xlink:href="#DejaVuSans-30"/>
       <use x="63.623047" xlink:href="#DejaVuSans-2e"/>
       <use x="95.410156" xlink:href="#DejaVuSans-30"/>
       <use x="159.033203" xlink:href="#DejaVuSans-30"/>
       <use x="222.65625" xlink:href="#DejaVuSans-30"/>
      </g>
     </g>
    </g>
    <g id="ytick_2">
     <g id="line2d_21">
      <g>
       <use style="stroke:#000000;stroke-width:0.8;" x="57.6" xlink:href="#m811d7f967b" y="273.140729"/>
      </g>
     </g>
     <g id="text_5">
      <!-- 0.005 -->
      <g transform="translate(21.971875 276.939948)scale(0.1 -0.1)">
       <defs>
        <path d="M 691 4666 
L 3169 4666 
L 3169 4134 
L 1269 4134 
L 1269 2991 
Q 1406 3038 1543 3061 
Q 1681 3084 1819 3084 
Q 2600 3084 3056 2656 
Q 3513 2228 3513 1497 
Q 3513 744 3044 326 
Q 2575 -91 1722 -91 
Q 1428 -91 1123 -41 
Q 819 9 494 109 
L 494 744 
Q 775 591 1075 516 
Q 1375 441 1709 441 
Q 2250 441 2565 725 
Q 2881 1009 2881 1497 
Q 2881 1984 2565 2268 
Q 2250 2553 1709 2553 
Q 1456 2553 1204 2497 
Q 953 2441 691 2322 
L 691 4666 
z
" id="DejaVuSans-35" transform="scale(0.015625)"/>
       </defs>
       <use xlink:href="#DejaVuSans-30"/>
       <use x="63.623047" xlink:href="#DejaVuSans-2e"/>
       <use x="95.410156" xlink:href="#DejaVuSans-30"/>
       <use x="159.033203" xlink:href="#DejaVuSans-30"/>
       <use x="222.65625" xlink:href="#DejaVuSans-35"/>
      </g>
     </g>
    </g>
    <g id="ytick_3">
     <g id="line2d_22">
      <g>
       <use style="stroke:#000000;stroke-width:0.8;" x="57.6" xlink:href="#m811d7f967b" y="238.697458"/>
      </g>
     </g>
     <g id="text_6">
      <!-- 0.010 -->
      <g transform="translate(21.971875 242.496677)scale(0.1 -0.1)">
       <use xlink:href="#DejaVuSans-30"/>
       <use x="63.623047" xlink:href="#DejaVuSans-2e"/>
       <use x="95.410156" xlink:href="#DejaVuSans-30"/>
       <use x="159.033203" xlink:href="#DejaVuSans-31"/>
       <use x="222.65625" xlink:href="#DejaVuSans-30"/>
      </g>
     </g>
    </g>
    <g id="ytick_4">
     <g id="line2d_23">
      <g>
       <use style="stroke:#000000;stroke-width:0.8;" x="57.6" xlink:href="#m811d7f967b" y="204.254187"/>
      </g>
     </g>
     <g id="text_7">
      <!-- 0.015 -->
      <g transform="translate(21.971875 208.053405)scale(0.1 -0.1)">
       <use xlink:href="#DejaVuSans-30"/>
       <use x="63.623047" xlink:href="#DejaVuSans-2e"/>
       <use x="95.410156" xlink:href="#DejaVuSans-30"/>
       <use x="159.033203" xlink:href="#DejaVuSans-31"/>
       <use x="222.65625" xlink:href="#DejaVuSans-35"/>
      </g>
     </g>
    </g>
    <g id="ytick_5">
     <g id="line2d_24">
      <g>
       <use style="stroke:#000000;stroke-width:0.8;" x="57.6" xlink:href="#m811d7f967b" y="169.810916"/>
      </g>
     </g>
     <g id="text_8">
      <!-- 0.020 -->
      <g transform="translate(21.971875 173.610134)scale(0.1 -0.1)">
       <use xlink:href="#DejaVuSans-30"/>
       <use x="63.623047" xlink:href="#DejaVuSans-2e"/>
       <use x="95.410156" xlink:href="#DejaVuSans-30"/>
       <use x="159.033203" xlink:href="#DejaVuSans-32"/>
       <use x="222.65625" xlink:href="#DejaVuSans-30"/>
      </g>
     </g>
    </g>
    <g id="ytick_6">
     <g id="line2d_25">
      <g>
       <use style="stroke:#000000;stroke-width:0.8;" x="57.6" xlink:href="#m811d7f967b" y="135.367645"/>
      </g>
     </g>
     <g id="text_9">
      <!-- 0.025 -->
      <g transform="translate(21.971875 139.166863)scale(0.1 -0.1)">
       <use xlink:href="#DejaVuSans-30"/>
       <use x="63.623047" xlink:href="#DejaVuSans-2e"/>
       <use x="95.410156" xlink:href="#DejaVuSans-30"/>
       <use x="159.033203" xlink:href="#DejaVuSans-32"/>
       <use x="222.65625" xlink:href="#DejaVuSans-35"/>
      </g>
     </g>
    </g>
    <g id="ytick_7">
     <g id="line2d_26">
      <g>
       <use style="stroke:#000000;stroke-width:0.8;" x="57.6" xlink:href="#m811d7f967b" y="100.924373"/>
      </g>
     </g>
     <g id="text_10">
      <!-- 0.030 -->
      <g transform="translate(21.971875 104.723592)scale(0.1 -0.1)">
       <defs>
        <path d="M 2597 2516 
Q 3050 2419 3304 2112 
Q 3559 1806 3559 1356 
Q 3559 666 3084 287 
Q 2609 -91 1734 -91 
Q 1441 -91 1130 -33 
Q 819 25 488 141 
L 488 750 
Q 750 597 1062 519 
Q 1375 441 1716 441 
Q 2309 441 2620 675 
Q 2931 909 2931 1356 
Q 2931 1769 2642 2001 
Q 2353 2234 1838 2234 
L 1294 2234 
L 1294 2753 
L 1863 2753 
Q 2328 2753 2575 2939 
Q 2822 3125 2822 3475 
Q 2822 3834 2567 4026 
Q 2313 4219 1838 4219 
Q 1578 4219 1281 4162 
Q 984 4106 628 3988 
L 628 4550 
Q 988 4650 1302 4700 
Q 1616 4750 1894 4750 
Q 2613 4750 3031 4423 
Q 3450 4097 3450 3541 
Q 3450 3153 3228 2886 
Q 3006 2619 2597 2516 
z
" id="DejaVuSans-33" transform="scale(0.015625)"/>
       </defs>
       <use xlink:href="#DejaVuSans-30"/>
       <use x="63.623047" xlink:href="#DejaVuSans-2e"/>
       <use x="95.410156" xlink:href="#DejaVuSans-30"/>
       <use x="159.033203" xlink:href="#DejaVuSans-33"/>
       <use x="222.65625" xlink:href="#DejaVuSans-30"/>
      </g>
     </g>
    </g>
    <g id="ytick_8">
     <g id="line2d_27">
      <g>
       <use style="stroke:#000000;stroke-width:0.8;" x="57.6" xlink:href="#m811d7f967b" y="66.481102"/>
      </g>
     </g>
     <g id="text_11">
      <!-- 0.035 -->
      <g transform="translate(21.971875 70.280321)scale(0.1 -0.1)">
       <use xlink:href="#DejaVuSans-30"/>
       <use x="63.623047" xlink:href="#DejaVuSans-2e"/>
       <use x="95.410156" xlink:href="#DejaVuSans-30"/>
       <use x="159.033203" xlink:href="#DejaVuSans-33"/>
       <use x="222.65625" xlink:href="#DejaVuSans-35"/>
      </g>
     </g>
    </g>
   </g>
   <g id="line2d_28">
    <path clip-path="url(#p50b4c1e6de)" d="M 57.6 307.583465 
L 111.351916 307.580915 
L 142.794771 307.571411 
L 165.103832 307.543254 
L 182.408084 307.47275 
L 196.546687 307.317808 
L 208.500706 307.011254 
L 218.855748 306.455244 
L 227.989542 305.518237 
L 236.16 304.035848 
L 243.551078 301.81636 
L 250.298603 298.65101 
L 256.505725 294.328391 
L 262.252622 288.651681 
L 267.602855 281.456929 
L 272.607664 272.630472 
L 277.308959 262.123595 
L 281.741459 249.962933 
L 285.934243 236.255554 
L 289.911916 221.188296 
L 293.695477 205.021476 
L 297.302994 188.077647 
L 300.750122 170.726448 
L 304.050519 153.366866 
L 307.216168 136.408308 
L 310.257641 120.251872 
L 313.184314 105.273008 
L 316.004538 91.806569 
L 318.725787 80.134929 
L 321.354771 70.479576 
L 323.897544 62.996293 
L 326.35958 57.773801 
L 328.745849 54.835521 
L 331.060875 54.144 
L 333.30879 55.607431 
L 335.493375 59.087669 
L 337.6181 64.409162 
L 339.686159 71.368252 
L 341.700496 79.742366 
L 343.663832 89.298713 
L 345.578685 99.802181 
L 347.447393 111.022225 
L 349.272127 122.738624 
L 351.05491 134.746062 
L 352.797626 146.857528 
L 354.502038 158.906629 
L 356.169794 170.748885 
L 357.802435 182.262153 
L 359.401412 193.346307 
L 360.968084 203.922326 
L 362.503731 213.930916 
L 364.009557 223.330805 
L 365.486699 232.096832 
L 366.93623 240.21792 
L 368.359162 247.69503 
L 369.756454 254.539158 
L 371.129014 260.769431 
L 372.477703 266.411347 
L 373.803335 271.495169 
L 375.106687 276.054505 
L 376.388495 280.125073 
L 377.64946 283.743644 
L 378.890249 286.947168 
L 380.111496 289.772055 
L 381.313809 292.253617 
L 382.497765 294.425637 
L 383.663917 296.32006 
L 384.812791 297.966778 
L 385.944894 299.393514 
L 387.060706 300.625764 
L 388.160691 301.686802 
L 389.245291 302.597728 
L 390.31493 303.377553 
L 391.370016 304.043304 
L 392.410939 304.610148 
L 393.438075 305.091527 
L 394.451784 305.499299 
L 395.452412 305.843874 
L 396.440293 306.134354 
L 397.415748 306.378668 
L 398.379085 306.58369 
L 399.330601 306.755364 
L 400.270584 306.898808 
L 401.199309 307.018416 
L 402.117043 307.117948 
L 403.024043 307.200609 
L 403.920558 307.269128 
L 404.806826 307.325818 
L 405.68308 307.372635 
L 406.549542 307.41123 
L 407.406431 307.442992 
L 408.253954 307.469084 
L 409.092315 307.490485 
L 409.92171 307.508009 
L 410.742327 307.522335 
L 411.554351 307.534028 
L 412.357961 307.543559 
L 413.153328 307.551315 
L 413.94062 307.557617 
L 414.72 307.562732 
L 415.491625 307.566876 
L 416.255647 307.570229 
L 417.012215 307.57294 
L 417.761473 307.575127 
L 418.503561 307.57689 
L 419.238615 307.578309 
L 419.966767 307.57945 
L 420.688146 307.580366 
L 421.402875 307.581101 
L 422.111078 307.581689 
L 422.812871 307.582161 
L 423.50837 307.582537 
L 424.197687 307.582838 
L 424.88093 307.583077 
L 425.558206 307.583269 
L 426.229619 307.583421 
L 426.895267 307.583541 
L 427.555251 307.583637 
L 428.209665 307.583714 
L 428.858603 307.583774 
L 429.502156 307.583822 
L 430.140411 307.58386 
L 430.773457 307.583889 
L 431.401376 307.583913 
L 432.024252 307.583932 
" style="fill:none;stroke:#ff7f0e;stroke-linecap:square;stroke-width:1.5;"/>
   </g>
   <g id="patch_113">
    <path d="M 57.6 307.584 
L 57.6 41.472 
" style="fill:none;stroke:#000000;stroke-linecap:square;stroke-linejoin:miter;stroke-width:0.8;"/>
   </g>
   <g id="patch_114">
    <path d="M 414.72 307.584 
L 414.72 41.472 
" style="fill:none;stroke:#000000;stroke-linecap:square;stroke-linejoin:miter;stroke-width:0.8;"/>
   </g>
   <g id="patch_115">
    <path d="M 57.6 307.584 
L 414.72 307.584 
" style="fill:none;stroke:#000000;stroke-linecap:square;stroke-linejoin:miter;stroke-width:0.8;"/>
   </g>
   <g id="patch_116">
    <path d="M 57.6 41.472 
L 414.72 41.472 
" style="fill:none;stroke:#000000;stroke-linecap:square;stroke-linejoin:miter;stroke-width:0.8;"/>
   </g>
  </g>
 </g>
 <defs>
  <clipPath id="p50b4c1e6de">
   <rect height="266.112" width="357.12" x="57.6" y="41.472"/>
  </clipPath>
 </defs>
</svg>
