<?xml version="1.0" encoding="utf-8" standalone="no"?>
<!DOCTYPE svg PUBLIC "-//W3C//DTD SVG 1.1//EN"
  "http://www.w3.org/Graphics/SVG/1.1/DTD/svg11.dtd">
<svg height="345.6pt" version="1.1" viewBox="0 0 460.8 345.6" width="460.8pt" xmlns="http://www.w3.org/2000/svg" xmlns:xlink="http://www.w3.org/1999/xlink">
 <metadata>
  <rdf:RDF xmlns:cc="http://creativecommons.org/ns#" xmlns:dc="http://purl.org/dc/elements/1.1/" xmlns:rdf="http://www.w3.org/1999/02/22-rdf-syntax-ns#">
   <cc:Work>
    <dc:type rdf:resource="http://purl.org/dc/dcmitype/StillImage"/>
    <dc:date>2021-09-16T21:31:12.075218</dc:date>
    <dc:format>image/svg+xml</dc:format>
    <dc:creator>
     <cc:Agent>
      <dc:title>Matplotlib v3.4.3, https://matplotlib.org/</dc:title>
     </cc:Agent>
    </dc:creator>
   </cc:Work>
  </rdf:RDF>
 </metadata>
 <defs>
  <style type="text/css">*{stroke-linecap:butt;stroke-linejoin:round;}</style>
 </defs>
 <g id="figure_1">
  <g id="patch_1">
   <path d="M 0 345.6 
L 460.8 345.6 
L 460.8 0 
L 0 0 
z
" style="fill:#ffffff;"/>
  </g>
  <g id="axes_1">
   <g id="patch_2">
    <path d="M 57.6 307.584 
L 414.72 307.584 
L 414.72 41.472 
L 57.6 41.472 
z
" style="fill:#ffffff;"/>
   </g>
   <g id="patch_3">
    <path clip-path="url(#pc382342215)" d="M 111.351916 307.584 
L 142.794771 307.584 
L 142.794771 307.581564 
L 111.351916 307.581564 
z
" style="fill:#1f77b4;"/>
   </g>
   <g id="patch_4">
    <path clip-path="url(#pc382342215)" d="M 142.794771 307.584 
L 165.103832 307.584 
L 165.103832 307.535282 
L 142.794771 307.535282 
z
" style="fill:#1f77b4;"/>
   </g>
   <g id="patch_5">
    <path clip-path="url(#pc382342215)" d="M 165.103832 307.584 
L 182.408084 307.584 
L 182.408084 307.403744 
L 165.103832 307.403744 
z
" style="fill:#1f77b4;"/>
   </g>
   <g id="patch_6">
    <path clip-path="url(#pc382342215)" d="M 182.408084 307.584 
L 196.546687 307.584 
L 196.546687 307.167462 
L 182.408084 307.167462 
z
" style="fill:#1f77b4;"/>
   </g>
   <g id="patch_7">
    <path clip-path="url(#pc382342215)" d="M 196.546687 307.584 
L 208.500706 307.584 
L 208.500706 306.668104 
L 196.546687 306.668104 
z
" style="fill:#1f77b4;"/>
   </g>
   <g id="patch_8">
    <path clip-path="url(#pc382342215)" d="M 208.500706 307.584 
L 218.855748 307.584 
L 218.855748 305.252851 
L 208.500706 305.252851 
z
" style="fill:#1f77b4;"/>
   </g>
   <g id="patch_9">
    <path clip-path="url(#pc382342215)" d="M 218.855748 307.584 
L 227.989542 307.584 
L 227.989542 303.360162 
L 218.855748 303.360162 
z
" style="fill:#1f77b4;"/>
   </g>
   <g id="patch_10">
    <path clip-path="url(#pc382342215)" d="M 227.989542 307.584 
L 236.16 307.584 
L 236.16 300.344527 
L 227.989542 300.344527 
z
" style="fill:#1f77b4;"/>
   </g>
   <g id="patch_11">
    <path clip-path="url(#pc382342215)" d="M 236.16 307.584 
L 243.551078 307.584 
L 243.551078 296.235177 
L 236.16 296.235177 
z
" style="fill:#1f77b4;"/>
   </g>
   <g id="patch_12">
    <path clip-path="url(#pc382342215)" d="M 243.551078 307.584 
L 250.298603 307.584 
L 250.298603 289.346473 
L 243.551078 289.346473 
z
" style="fill:#1f77b4;"/>
   </g>
   <g id="patch_13">
    <path clip-path="url(#pc382342215)" d="M 250.298603 307.584 
L 256.505725 307.584 
L 256.505725 281.948667 
L 250.298603 281.948667 
z
" style="fill:#1f77b4;"/>
   </g>
   <g id="patch_14">
    <path clip-path="url(#pc382342215)" d="M 256.505725 307.584 
L 262.252622 307.584 
L 262.252622 272.3342 
L 256.505725 272.3342 
z
" style="fill:#1f77b4;"/>
   </g>
   <g id="patch_15">
    <path clip-path="url(#pc382342215)" d="M 262.252622 307.584 
L 267.602855 307.584 
L 267.602855 261.462811 
L 262.252622 261.462811 
z
" style="fill:#1f77b4;"/>
   </g>
   <g id="patch_16">
    <path clip-path="url(#pc382342215)" d="M 267.602855 307.584 
L 272.607664 307.584 
L 272.607664 246.779251 
L 267.602855 246.779251 
z
" style="fill:#1f77b4;"/>
   </g>
   <g id="patch_17">
    <path clip-path="url(#pc382342215)" d="M 272.607664 307.584 
L 277.308959 307.584 
L 277.308959 233.342868 
L 272.607664 233.342868 
z
" style="fill:#1f77b4;"/>
   </g>
   <g id="patch_18">
    <path clip-path="url(#pc382342215)" d="M 277.308959 307.584 
L 281.741459 307.584 
L 281.741459 214.40624 
L 277.308959 214.40624 
z
" style="fill:#1f77b4;"/>
   </g>
   <g id="patch_19">
    <path clip-path="url(#pc382342215)" d="M 281.741459 307.584 
L 285.934243 307.584 
L 285.934243 199.661782 
L 281.741459 199.661782 
z
" style="fill:#1f77b4;"/>
   </g>
   <g id="patch_20">
    <path clip-path="url(#pc382342215)" d="M 285.934243 307.584 
L 289.911916 307.584 
L 289.911916 181.979639 
L 285.934243 181.979639 
z
" style="fill:#1f77b4;"/>
   </g>
   <g id="patch_21">
    <path clip-path="url(#pc382342215)" d="M 289.911916 307.584 
L 293.695477 307.584 
L 293.695477 163.822496 
L 289.911916 163.822496 
z
" style="fill:#1f77b4;"/>
   </g>
   <g id="patch_22">
    <path clip-path="url(#pc382342215)" d="M 293.695477 307.584 
L 297.302994 307.584 
L 297.302994 146.24266 
L 293.695477 146.24266 
z
" style="fill:#1f77b4;"/>
   </g>
   <g id="patch_23">
    <path clip-path="url(#pc382342215)" d="M 297.302994 307.584 
L 300.750122 307.584 
L 300.750122 133.617429 
L 297.302994 133.617429 
z
" style="fill:#1f77b4;"/>
   </g>
   <g id="patch_24">
    <path clip-path="url(#pc382342215)" d="M 300.750122 307.584 
L 304.050519 307.584 
L 304.050519 116.892591 
L 300.750122 116.892591 
z
" style="fill:#1f77b4;"/>
   </g>
   <g id="patch_25">
    <path clip-path="url(#pc382342215)" d="M 304.050519 307.584 
L 307.216168 307.584 
L 307.216168 101.963006 
L 304.050519 101.963006 
z
" style="fill:#1f77b4;"/>
   </g>
   <g id="patch_26">
    <path clip-path="url(#pc382342215)" d="M 307.216168 307.584 
L 310.257641 307.584 
L 310.257641 90.765208 
L 307.216168 90.765208 
z
" style="fill:#1f77b4;"/>
   </g>
   <g id="patch_27">
    <path clip-path="url(#pc382342215)" d="M 310.257641 307.584 
L 313.184314 307.584 
L 313.184314 79.657538 
L 310.257641 79.657538 
z
" style="fill:#1f77b4;"/>
   </g>
   <g id="patch_28">
    <path clip-path="url(#pc382342215)" d="M 313.184314 307.584 
L 316.004538 307.584 
L 316.004538 64.837568 
L 313.184314 64.837568 
z
" style="fill:#1f77b4;"/>
   </g>
   <g id="patch_29">
    <path clip-path="url(#pc382342215)" d="M 316.004538 307.584 
L 318.725787 307.584 
L 318.725787 61.149627 
L 316.004538 61.149627 
z
" style="fill:#1f77b4;"/>
   </g>
   <g id="patch_30">
    <path clip-path="url(#pc382342215)" d="M 318.725787 307.584 
L 321.354771 307.584 
L 321.354771 57.649249 
L 318.725787 57.649249 
z
" style="fill:#1f77b4;"/>
   </g>
   <g id="patch_31">
    <path clip-path="url(#pc382342215)" d="M 321.354771 307.584 
L 323.897544 307.584 
L 323.897544 56.806431 
L 321.354771 56.806431 
z
" style="fill:#1f77b4;"/>
   </g>
   <g id="patch_32">
    <path clip-path="url(#pc382342215)" d="M 323.897544 307.584 
L 326.35958 307.584 
L 326.35958 54.144 
L 323.897544 54.144 
z
" style="fill:#1f77b4;"/>
   </g>
   <g id="patch_33">
    <path clip-path="url(#pc382342215)" d="M 326.35958 307.584 
L 328.745849 307.584 
L 328.745849 56.467841 
L 326.35958 56.467841 
z
" style="fill:#1f77b4;"/>
   </g>
   <g id="patch_34">
    <path clip-path="url(#pc382342215)" d="M 328.745849 307.584 
L 331.060875 307.584 
L 331.060875 55.866176 
L 328.745849 55.866176 
z
" style="fill:#1f77b4;"/>
   </g>
   <g id="patch_35">
    <path clip-path="url(#pc382342215)" d="M 331.060875 307.584 
L 333.30879 307.584 
L 333.30879 57.788095 
L 331.060875 57.788095 
z
" style="fill:#1f77b4;"/>
   </g>
   <g id="patch_36">
    <path clip-path="url(#pc382342215)" d="M 333.30879 307.584 
L 335.493375 307.584 
L 335.493375 60.72091 
L 333.30879 60.72091 
z
" style="fill:#1f77b4;"/>
   </g>
   <g id="patch_37">
    <path clip-path="url(#pc382342215)" d="M 335.493375 307.584 
L 337.6181 307.584 
L 337.6181 71.224478 
L 335.493375 71.224478 
z
" style="fill:#1f77b4;"/>
   </g>
   <g id="patch_38">
    <path clip-path="url(#pc382342215)" d="M 337.6181 307.584 
L 339.686159 307.584 
L 339.686159 76.507929 
L 337.6181 76.507929 
z
" style="fill:#1f77b4;"/>
   </g>
   <g id="patch_39">
    <path clip-path="url(#pc382342215)" d="M 339.686159 307.584 
L 341.700496 307.584 
L 341.700496 86.521883 
L 339.686159 86.521883 
z
" style="fill:#1f77b4;"/>
   </g>
   <g id="patch_40">
    <path clip-path="url(#pc382342215)" d="M 341.700496 307.584 
L 343.663832 307.584 
L 343.663832 92.275461 
L 341.700496 92.275461 
z
" style="fill:#1f77b4;"/>
   </g>
   <g id="patch_41">
    <path clip-path="url(#pc382342215)" d="M 343.663832 307.584 
L 345.578685 307.584 
L 345.578685 101.529417 
L 343.663832 101.529417 
z
" style="fill:#1f77b4;"/>
   </g>
   <g id="patch_42">
    <path clip-path="url(#pc382342215)" d="M 345.578685 307.584 
L 347.447393 307.584 
L 347.447393 110.059912 
L 345.578685 110.059912 
z
" style="fill:#1f77b4;"/>
   </g>
   <g id="patch_43">
    <path clip-path="url(#pc382342215)" d="M 347.447393 307.584 
L 349.272127 307.584 
L 349.272127 117.197078 
L 347.447393 117.197078 
z
" style="fill:#1f77b4;"/>
   </g>
   <g id="patch_44">
    <path clip-path="url(#pc382342215)" d="M 349.272127 307.584 
L 351.05491 307.584 
L 351.05491 127.873594 
L 349.272127 127.873594 
z
" style="fill:#1f77b4;"/>
   </g>
   <g id="patch_45">
    <path clip-path="url(#pc382342215)" d="M 351.05491 307.584 
L 352.797626 307.584 
L 352.797626 137.373575 
L 351.05491 137.373575 
z
" style="fill:#1f77b4;"/>
   </g>
   <g id="patch_46">
    <path clip-path="url(#pc382342215)" d="M 352.797626 307.584 
L 354.502038 307.584 
L 354.502038 147.06112 
L 352.797626 147.06112 
z
" style="fill:#1f77b4;"/>
   </g>
   <g id="patch_47">
    <path clip-path="url(#pc382342215)" d="M 354.502038 307.584 
L 356.169794 307.584 
L 356.169794 155.435718 
L 354.502038 155.435718 
z
" style="fill:#1f77b4;"/>
   </g>
   <g id="patch_48">
    <path clip-path="url(#pc382342215)" d="M 356.169794 307.584 
L 357.802435 307.584 
L 357.802435 164.180572 
L 356.169794 164.180572 
z
" style="fill:#1f77b4;"/>
   </g>
   <g id="patch_49">
    <path clip-path="url(#pc382342215)" d="M 357.802435 307.584 
L 359.401412 307.584 
L 359.401412 173.19581 
L 357.802435 173.19581 
z
" style="fill:#1f77b4;"/>
   </g>
   <g id="patch_50">
    <path clip-path="url(#pc382342215)" d="M 359.401412 307.584 
L 360.968084 307.584 
L 360.968084 183.411944 
L 359.401412 183.411944 
z
" style="fill:#1f77b4;"/>
   </g>
   <g id="patch_51">
    <path clip-path="url(#pc382342215)" d="M 360.968084 307.584 
L 362.503731 307.584 
L 362.503731 190.605134 
L 360.968084 190.605134 
z
" style="fill:#1f77b4;"/>
   </g>
   <g id="patch_52">
    <path clip-path="url(#pc382342215)" d="M 362.503731 307.584 
L 364.009557 307.584 
L 364.009557 198.833579 
L 362.503731 198.833579 
z
" style="fill:#1f77b4;"/>
   </g>
   <g id="patch_53">
    <path clip-path="url(#pc382342215)" d="M 364.009557 307.584 
L 365.486699 307.584 
L 365.486699 206.684461 
L 364.009557 206.684461 
z
" style="fill:#1f77b4;"/>
   </g>
   <g id="patch_54">
    <path clip-path="url(#pc382342215)" d="M 365.486699 307.584 
L 366.93623 307.584 
L 366.93623 214.467137 
L 365.486699 214.467137 
z
" style="fill:#1f77b4;"/>
   </g>
   <g id="patch_55">
    <path clip-path="url(#pc382342215)" d="M 366.93623 307.584 
L 368.359162 307.584 
L 368.359162 221.24379 
L 366.93623 221.24379 
z
" style="fill:#1f77b4;"/>
   </g>
   <g id="patch_56">
    <path clip-path="url(#pc382342215)" d="M 368.359162 307.584 
L 369.756454 307.584 
L 369.756454 229.693901 
L 368.359162 229.693901 
z
" style="fill:#1f77b4;"/>
   </g>
   <g id="patch_57">
    <path clip-path="url(#pc382342215)" d="M 369.756454 307.584 
L 371.129014 307.584 
L 371.129014 235.099147 
L 369.756454 235.099147 
z
" style="fill:#1f77b4;"/>
   </g>
   <g id="patch_58">
    <path clip-path="url(#pc382342215)" d="M 371.129014 307.584 
L 372.477703 307.584 
L 372.477703 241.578621 
L 371.129014 241.578621 
z
" style="fill:#1f77b4;"/>
   </g>
   <g id="patch_59">
    <path clip-path="url(#pc382342215)" d="M 372.477703 307.584 
L 373.803335 307.584 
L 373.803335 246.236047 
L 372.477703 246.236047 
z
" style="fill:#1f77b4;"/>
   </g>
   <g id="patch_60">
    <path clip-path="url(#pc382342215)" d="M 373.803335 307.584 
L 375.106687 307.584 
L 375.106687 251.37578 
L 373.803335 251.37578 
z
" style="fill:#1f77b4;"/>
   </g>
   <g id="patch_61">
    <path clip-path="url(#pc382342215)" d="M 375.106687 307.584 
L 376.388495 307.584 
L 376.388495 256.267053 
L 375.106687 256.267053 
z
" style="fill:#1f77b4;"/>
   </g>
   <g id="patch_62">
    <path clip-path="url(#pc382342215)" d="M 376.388495 307.584 
L 377.64946 307.584 
L 377.64946 262.130246 
L 376.388495 262.130246 
z
" style="fill:#1f77b4;"/>
   </g>
   <g id="patch_63">
    <path clip-path="url(#pc382342215)" d="M 377.64946 307.584 
L 378.890249 307.584 
L 378.890249 265.401649 
L 377.64946 265.401649 
z
" style="fill:#1f77b4;"/>
   </g>
   <g id="patch_64">
    <path clip-path="url(#pc382342215)" d="M 378.890249 307.584 
L 380.111496 307.584 
L 380.111496 268.729079 
L 378.890249 268.729079 
z
" style="fill:#1f77b4;"/>
   </g>
   <g id="patch_65">
    <path clip-path="url(#pc382342215)" d="M 380.111496 307.584 
L 381.313809 307.584 
L 381.313809 273.5083 
L 380.111496 273.5083 
z
" style="fill:#1f77b4;"/>
   </g>
   <g id="patch_66">
    <path clip-path="url(#pc382342215)" d="M 381.313809 307.584 
L 382.497765 307.584 
L 382.497765 276.514191 
L 381.313809 276.514191 
z
" style="fill:#1f77b4;"/>
   </g>
   <g id="patch_67">
    <path clip-path="url(#pc382342215)" d="M 382.497765 307.584 
L 383.663917 307.584 
L 383.663917 280.280081 
L 382.497765 280.280081 
z
" style="fill:#1f77b4;"/>
   </g>
   <g id="patch_68">
    <path clip-path="url(#pc382342215)" d="M 383.663917 307.584 
L 384.812791 307.584 
L 384.812791 282.216615 
L 383.663917 282.216615 
z
" style="fill:#1f77b4;"/>
   </g>
   <g id="patch_69">
    <path clip-path="url(#pc382342215)" d="M 384.812791 307.584 
L 385.944894 307.584 
L 385.944894 285.278532 
L 384.812791 285.278532 
z
" style="fill:#1f77b4;"/>
   </g>
   <g id="patch_70">
    <path clip-path="url(#pc382342215)" d="M 385.944894 307.584 
L 387.060706 307.584 
L 387.060706 287.599938 
L 385.944894 287.599938 
z
" style="fill:#1f77b4;"/>
   </g>
   <g id="patch_71">
    <path clip-path="url(#pc382342215)" d="M 387.060706 307.584 
L 388.160691 307.584 
L 388.160691 289.843395 
L 387.060706 289.843395 
z
" style="fill:#1f77b4;"/>
   </g>
   <g id="patch_72">
    <path clip-path="url(#pc382342215)" d="M 388.160691 307.584 
L 389.245291 307.584 
L 389.245291 292.138006 
L 388.160691 292.138006 
z
" style="fill:#1f77b4;"/>
   </g>
   <g id="patch_73">
    <path clip-path="url(#pc382342215)" d="M 389.245291 307.584 
L 390.31493 307.584 
L 390.31493 293.202491 
L 389.245291 293.202491 
z
" style="fill:#1f77b4;"/>
   </g>
   <g id="patch_74">
    <path clip-path="url(#pc382342215)" d="M 390.31493 307.584 
L 391.370016 307.584 
L 391.370016 294.676206 
L 390.31493 294.676206 
z
" style="fill:#1f77b4;"/>
   </g>
   <g id="patch_75">
    <path clip-path="url(#pc382342215)" d="M 391.370016 307.584 
L 392.410939 307.584 
L 392.410939 295.933126 
L 391.370016 295.933126 
z
" style="fill:#1f77b4;"/>
   </g>
   <g id="patch_76">
    <path clip-path="url(#pc382342215)" d="M 392.410939 307.584 
L 393.438075 307.584 
L 393.438075 298.010942 
L 392.410939 298.010942 
z
" style="fill:#1f77b4;"/>
   </g>
   <g id="patch_77">
    <path clip-path="url(#pc382342215)" d="M 393.438075 307.584 
L 394.451784 307.584 
L 394.451784 299.070556 
L 393.438075 299.070556 
z
" style="fill:#1f77b4;"/>
   </g>
   <g id="patch_78">
    <path clip-path="url(#pc382342215)" d="M 394.451784 307.584 
L 395.452412 307.584 
L 395.452412 299.70876 
L 394.451784 299.70876 
z
" style="fill:#1f77b4;"/>
   </g>
   <g id="patch_79">
    <path clip-path="url(#pc382342215)" d="M 395.452412 307.584 
L 396.440293 307.584 
L 396.440293 300.741578 
L 395.452412 300.741578 
z
" style="fill:#1f77b4;"/>
   </g>
   <g id="patch_80">
    <path clip-path="url(#pc382342215)" d="M 396.440293 307.584 
L 397.415748 307.584 
L 397.415748 301.599012 
L 396.440293 301.599012 
z
" style="fill:#1f77b4;"/>
   </g>
   <g id="patch_81">
    <path clip-path="url(#pc382342215)" d="M 397.415748 307.584 
L 398.379085 307.584 
L 398.379085 302.653754 
L 397.415748 302.653754 
z
" style="fill:#1f77b4;"/>
   </g>
   <g id="patch_82">
    <path clip-path="url(#pc382342215)" d="M 398.379085 307.584 
L 399.330601 307.584 
L 399.330601 303.128753 
L 398.379085 303.128753 
z
" style="fill:#1f77b4;"/>
   </g>
   <g id="patch_83">
    <path clip-path="url(#pc382342215)" d="M 399.330601 307.584 
L 400.270584 307.584 
L 400.270584 303.689008 
L 399.330601 303.689008 
z
" style="fill:#1f77b4;"/>
   </g>
   <g id="patch_84">
    <path clip-path="url(#pc382342215)" d="M 400.270584 307.584 
L 401.199309 307.584 
L 401.199309 304.066571 
L 400.270584 304.066571 
z
" style="fill:#1f77b4;"/>
   </g>
   <g id="patch_85">
    <path clip-path="url(#pc382342215)" d="M 401.199309 307.584 
L 402.117043 307.584 
L 402.117043 304.658493 
L 401.199309 304.658493 
z
" style="fill:#1f77b4;"/>
   </g>
   <g id="patch_86">
    <path clip-path="url(#pc382342215)" d="M 402.117043 307.584 
L 403.024043 307.584 
L 403.024043 305.094518 
L 402.117043 305.094518 
z
" style="fill:#1f77b4;"/>
   </g>
   <g id="patch_87">
    <path clip-path="url(#pc382342215)" d="M 403.024043 307.584 
L 403.920558 307.584 
L 403.920558 305.233364 
L 403.024043 305.233364 
z
" style="fill:#1f77b4;"/>
   </g>
   <g id="patch_88">
    <path clip-path="url(#pc382342215)" d="M 403.920558 307.584 
L 404.806826 307.584 
L 404.806826 305.50862 
L 403.920558 305.50862 
z
" style="fill:#1f77b4;"/>
   </g>
   <g id="patch_89">
    <path clip-path="url(#pc382342215)" d="M 404.806826 307.584 
L 405.68308 307.584 
L 405.68308 305.883747 
L 404.806826 305.883747 
z
" style="fill:#1f77b4;"/>
   </g>
   <g id="patch_90">
    <path clip-path="url(#pc382342215)" d="M 405.68308 307.584 
L 406.549542 307.584 
L 406.549542 306.239387 
L 405.68308 306.239387 
z
" style="fill:#1f77b4;"/>
   </g>
   <g id="patch_91">
    <path clip-path="url(#pc382342215)" d="M 406.549542 307.584 
L 407.406431 307.584 
L 407.406431 306.280798 
L 406.549542 306.280798 
z
" style="fill:#1f77b4;"/>
   </g>
   <g id="patch_92">
    <path clip-path="url(#pc382342215)" d="M 407.406431 307.584 
L 408.253954 307.584 
L 408.253954 306.463489 
L 407.406431 306.463489 
z
" style="fill:#1f77b4;"/>
   </g>
   <g id="patch_93">
    <path clip-path="url(#pc382342215)" d="M 408.253954 307.584 
L 409.092315 307.584 
L 409.092315 306.626694 
L 408.253954 306.626694 
z
" style="fill:#1f77b4;"/>
   </g>
   <g id="patch_94">
    <path clip-path="url(#pc382342215)" d="M 409.092315 307.584 
L 409.92171 307.584 
L 409.92171 306.845925 
L 409.092315 306.845925 
z
" style="fill:#1f77b4;"/>
   </g>
   <g id="patch_95">
    <path clip-path="url(#pc382342215)" d="M 409.92171 307.584 
L 410.742327 307.584 
L 410.742327 306.95554 
L 409.92171 306.95554 
z
" style="fill:#1f77b4;"/>
   </g>
   <g id="patch_96">
    <path clip-path="url(#pc382342215)" d="M 410.742327 307.584 
L 411.554351 307.584 
L 411.554351 307.031052 
L 410.742327 307.031052 
z
" style="fill:#1f77b4;"/>
   </g>
   <g id="patch_97">
    <path clip-path="url(#pc382342215)" d="M 411.554351 307.584 
L 412.357961 307.584 
L 412.357961 307.040796 
L 411.554351 307.040796 
z
" style="fill:#1f77b4;"/>
   </g>
   <g id="patch_98">
    <path clip-path="url(#pc382342215)" d="M 412.357961 307.584 
L 413.153328 307.584 
L 413.153328 307.014001 
L 412.357961 307.014001 
z
" style="fill:#1f77b4;"/>
   </g>
   <g id="patch_99">
    <path clip-path="url(#pc382342215)" d="M 413.153328 307.584 
L 413.94062 307.584 
L 413.94062 307.155283 
L 413.153328 307.155283 
z
" style="fill:#1f77b4;"/>
   </g>
   <g id="patch_100">
    <path clip-path="url(#pc382342215)" d="M 413.94062 307.584 
L 414.72 307.584 
L 414.72 307.18695 
L 413.94062 307.18695 
z
" style="fill:#1f77b4;"/>
   </g>
   <g id="patch_101">
    <path clip-path="url(#pc382342215)" d="M 414.72 307.584 
L 415.491625 307.584 
L 415.491625 307.264898 
L 414.72 307.264898 
z
" style="fill:#1f77b4;"/>
   </g>
   <g id="patch_102">
    <path clip-path="url(#pc382342215)" d="M 415.491625 307.584 
L 416.255647 307.584 
L 416.255647 307.330667 
L 415.491625 307.330667 
z
" style="fill:#1f77b4;"/>
   </g>
   <g id="patch_103">
    <path clip-path="url(#pc382342215)" d="M 416.255647 307.584 
L 417.012215 307.584 
L 417.012215 307.359898 
L 416.255647 307.359898 
z
" style="fill:#1f77b4;"/>
   </g>
   <g id="patch_104">
    <path clip-path="url(#pc382342215)" d="M 417.012215 307.584 
L 417.761473 307.584 
L 417.761473 307.381821 
L 417.012215 307.381821 
z
" style="fill:#1f77b4;"/>
   </g>
   <g id="patch_105">
    <path clip-path="url(#pc382342215)" d="M 417.761473 307.584 
L 418.503561 307.584 
L 418.503561 307.428103 
L 417.761473 307.428103 
z
" style="fill:#1f77b4;"/>
   </g>
   <g id="patch_106">
    <path clip-path="url(#pc382342215)" d="M 418.503561 307.584 
L 419.238615 307.584 
L 419.238615 307.471949 
L 418.503561 307.471949 
z
" style="fill:#1f77b4;"/>
   </g>
   <g id="patch_107">
    <path clip-path="url(#pc382342215)" d="M 419.238615 307.584 
L 419.966767 307.584 
L 419.966767 307.493872 
L 419.238615 307.493872 
z
" style="fill:#1f77b4;"/>
   </g>
   <g id="patch_108">
    <path clip-path="url(#pc382342215)" d="M 419.966767 307.584 
L 420.688146 307.584 
L 420.688146 307.498744 
L 419.966767 307.498744 
z
" style="fill:#1f77b4;"/>
   </g>
   <g id="patch_109">
    <path clip-path="url(#pc382342215)" d="M 420.688146 307.584 
L 421.402875 307.584 
L 421.402875 307.557205 
L 420.688146 307.557205 
z
" style="fill:#1f77b4;"/>
   </g>
   <g id="patch_110">
    <path clip-path="url(#pc382342215)" d="M 421.402875 307.584 
L 422.111078 307.584 
L 422.111078 307.53041 
L 421.402875 307.53041 
z
" style="fill:#1f77b4;"/>
   </g>
   <g id="patch_111">
    <path clip-path="url(#pc382342215)" d="M 422.111078 307.584 
L 422.812871 307.584 
L 422.812871 307.518231 
L 422.111078 307.518231 
z
" style="fill:#1f77b4;"/>
   </g>
   <g id="patch_112">
    <path clip-path="url(#pc382342215)" d="M 422.812871 307.584 
L 423.50837 307.584 
L 423.50837 307.54259 
L 422.812871 307.54259 
z
" style="fill:#1f77b4;"/>
   </g>
   <g id="patch_113">
    <path clip-path="url(#pc382342215)" d="M 423.50837 307.584 
L 424.197687 307.584 
L 424.197687 307.559641 
L 423.50837 307.559641 
z
" style="fill:#1f77b4;"/>
   </g>
   <g id="patch_114">
    <path clip-path="url(#pc382342215)" d="M 424.197687 307.584 
L 424.88093 307.584 
L 424.88093 307.554769 
L 424.197687 307.554769 
z
" style="fill:#1f77b4;"/>
   </g>
   <g id="patch_115">
    <path clip-path="url(#pc382342215)" d="M 424.88093 307.584 
L 425.558206 307.584 
L 425.558206 307.518231 
L 424.88093 307.518231 
z
" style="fill:#1f77b4;"/>
   </g>
   <g id="patch_116">
    <path clip-path="url(#pc382342215)" d="M 425.558206 307.584 
L 426.229619 307.584 
L 426.229619 307.552333 
L 425.558206 307.552333 
z
" style="fill:#1f77b4;"/>
   </g>
   <g id="patch_117">
    <path clip-path="url(#pc382342215)" d="M 426.229619 307.584 
L 426.895267 307.584 
L 426.895267 307.576692 
L 426.229619 307.576692 
z
" style="fill:#1f77b4;"/>
   </g>
   <g id="patch_118">
    <path clip-path="url(#pc382342215)" d="M 426.895267 307.584 
L 427.555251 307.584 
L 427.555251 307.54259 
L 426.895267 307.54259 
z
" style="fill:#1f77b4;"/>
   </g>
   <g id="patch_119">
    <path clip-path="url(#pc382342215)" d="M 427.555251 307.584 
L 428.209665 307.584 
L 428.209665 307.562077 
L 427.555251 307.562077 
z
" style="fill:#1f77b4;"/>
   </g>
   <g id="patch_120">
    <path clip-path="url(#pc382342215)" d="M 428.209665 307.584 
L 428.858603 307.584 
L 428.858603 307.562077 
L 428.209665 307.562077 
z
" style="fill:#1f77b4;"/>
   </g>
   <g id="patch_121">
    <path clip-path="url(#pc382342215)" d="M 428.858603 307.584 
L 429.502156 307.584 
L 429.502156 307.576692 
L 428.858603 307.576692 
z
" style="fill:#1f77b4;"/>
   </g>
   <g id="patch_122">
    <path clip-path="url(#pc382342215)" d="M 429.502156 307.584 
L 430.140411 307.584 
L 430.140411 307.571821 
L 429.502156 307.571821 
z
" style="fill:#1f77b4;"/>
   </g>
   <g id="patch_123">
    <path clip-path="url(#pc382342215)" d="M 430.140411 307.584 
L 430.773457 307.584 
L 430.773457 307.579128 
L 430.140411 307.579128 
z
" style="fill:#1f77b4;"/>
   </g>
   <g id="patch_124">
    <path clip-path="url(#pc382342215)" d="M 430.773457 307.584 
L 431.401376 307.584 
L 431.401376 307.576692 
L 430.773457 307.576692 
z
" style="fill:#1f77b4;"/>
   </g>
   <g id="patch_125">
    <path clip-path="url(#pc382342215)" d="M 431.401376 307.584 
L 432.024252 307.584 
L 432.024252 307.535282 
L 431.401376 307.535282 
z
" style="fill:#1f77b4;"/>
   </g>
   <g id="matplotlib.axis_1">
    <g id="xtick_1">
     <g id="line2d_1">
      <defs>
       <path d="M 0 0 
L 0 3.5 
" id="m7af2ccb348" style="stroke:#000000;stroke-width:0.8;"/>
      </defs>
      <g>
       <use style="stroke:#000000;stroke-width:0.8;" x="57.6" xlink:href="#m7af2ccb348" y="307.584"/>
      </g>
     </g>
     <g id="text_1">
      <!-- $\mathdefault{10^{0}}$ -->
      <g transform="translate(48.8 322.182437)scale(0.1 -0.1)">
       <defs>
        <path d="M 794 531 
L 1825 531 
L 1825 4091 
L 703 3866 
L 703 4441 
L 1819 4666 
L 2450 4666 
L 2450 531 
L 3481 531 
L 3481 0 
L 794 0 
L 794 531 
z
" id="DejaVuSans-31" transform="scale(0.015625)"/>
        <path d="M 2034 4250 
Q 1547 4250 1301 3770 
Q 1056 3291 1056 2328 
Q 1056 1369 1301 889 
Q 1547 409 2034 409 
Q 2525 409 2770 889 
Q 3016 1369 3016 2328 
Q 3016 3291 2770 3770 
Q 2525 4250 2034 4250 
z
M 2034 4750 
Q 2819 4750 3233 4129 
Q 3647 3509 3647 2328 
Q 3647 1150 3233 529 
Q 2819 -91 2034 -91 
Q 1250 -91 836 529 
Q 422 1150 422 2328 
Q 422 3509 836 4129 
Q 1250 4750 2034 4750 
z
" id="DejaVuSans-30" transform="scale(0.015625)"/>
       </defs>
       <use transform="translate(0 0.765625)" xlink:href="#DejaVuSans-31"/>
       <use transform="translate(63.623047 0.765625)" xlink:href="#DejaVuSans-30"/>
       <use transform="translate(128.203125 39.046875)scale(0.7)" xlink:href="#DejaVuSans-30"/>
      </g>
     </g>
    </g>
    <g id="xtick_2">
     <g id="line2d_2">
      <g>
       <use style="stroke:#000000;stroke-width:0.8;" x="236.16" xlink:href="#m7af2ccb348" y="307.584"/>
      </g>
     </g>
     <g id="text_2">
      <!-- $\mathdefault{10^{1}}$ -->
      <g transform="translate(227.36 322.182437)scale(0.1 -0.1)">
       <use transform="translate(0 0.684375)" xlink:href="#DejaVuSans-31"/>
       <use transform="translate(63.623047 0.684375)" xlink:href="#DejaVuSans-30"/>
       <use transform="translate(128.203125 38.965625)scale(0.7)" xlink:href="#DejaVuSans-31"/>
      </g>
     </g>
    </g>
    <g id="xtick_3">
     <g id="line2d_3">
      <g>
       <use style="stroke:#000000;stroke-width:0.8;" x="414.72" xlink:href="#m7af2ccb348" y="307.584"/>
      </g>
     </g>
     <g id="text_3">
      <!-- $\mathdefault{10^{2}}$ -->
      <g transform="translate(405.92 322.182437)scale(0.1 -0.1)">
       <defs>
        <path d="M 1228 531 
L 3431 531 
L 3431 0 
L 469 0 
L 469 531 
Q 828 903 1448 1529 
Q 2069 2156 2228 2338 
Q 2531 2678 2651 2914 
Q 2772 3150 2772 3378 
Q 2772 3750 2511 3984 
Q 2250 4219 1831 4219 
Q 1534 4219 1204 4116 
Q 875 4013 500 3803 
L 500 4441 
Q 881 4594 1212 4672 
Q 1544 4750 1819 4750 
Q 2544 4750 2975 4387 
Q 3406 4025 3406 3419 
Q 3406 3131 3298 2873 
Q 3191 2616 2906 2266 
Q 2828 2175 2409 1742 
Q 1991 1309 1228 531 
z
" id="DejaVuSans-32" transform="scale(0.015625)"/>
       </defs>
       <use transform="translate(0 0.765625)" xlink:href="#DejaVuSans-31"/>
       <use transform="translate(63.623047 0.765625)" xlink:href="#DejaVuSans-30"/>
       <use transform="translate(128.203125 39.046875)scale(0.7)" xlink:href="#DejaVuSans-32"/>
      </g>
     </g>
    </g>
    <g id="xtick_4">
     <g id="line2d_4">
      <defs>
       <path d="M 0 0 
L 0 2 
" id="m6669c5eb1e" style="stroke:#000000;stroke-width:0.6;"/>
      </defs>
      <g>
       <use style="stroke:#000000;stroke-width:0.6;" x="111.351916" xlink:href="#m6669c5eb1e" y="307.584"/>
      </g>
     </g>
    </g>
    <g id="xtick_5">
     <g id="line2d_5">
      <g>
       <use style="stroke:#000000;stroke-width:0.6;" x="142.794771" xlink:href="#m6669c5eb1e" y="307.584"/>
      </g>
     </g>
    </g>
    <g id="xtick_6">
     <g id="line2d_6">
      <g>
       <use style="stroke:#000000;stroke-width:0.6;" x="165.103832" xlink:href="#m6669c5eb1e" y="307.584"/>
      </g>
     </g>
    </g>
    <g id="xtick_7">
     <g id="line2d_7">
      <g>
       <use style="stroke:#000000;stroke-width:0.6;" x="182.408084" xlink:href="#m6669c5eb1e" y="307.584"/>
      </g>
     </g>
    </g>
    <g id="xtick_8">
     <g id="line2d_8">
      <g>
       <use style="stroke:#000000;stroke-width:0.6;" x="196.546687" xlink:href="#m6669c5eb1e" y="307.584"/>
      </g>
     </g>
    </g>
    <g id="xtick_9">
     <g id="line2d_9">
      <g>
       <use style="stroke:#000000;stroke-width:0.6;" x="208.500706" xlink:href="#m6669c5eb1e" y="307.584"/>
      </g>
     </g>
    </g>
    <g id="xtick_10">
     <g id="line2d_10">
      <g>
       <use style="stroke:#000000;stroke-width:0.6;" x="218.855748" xlink:href="#m6669c5eb1e" y="307.584"/>
      </g>
     </g>
    </g>
    <g id="xtick_11">
     <g id="line2d_11">
      <g>
       <use style="stroke:#000000;stroke-width:0.6;" x="227.989542" xlink:href="#m6669c5eb1e" y="307.584"/>
      </g>
     </g>
    </g>
    <g id="xtick_12">
     <g id="line2d_12">
      <g>
       <use style="stroke:#000000;stroke-width:0.6;" x="289.911916" xlink:href="#m6669c5eb1e" y="307.584"/>
      </g>
     </g>
    </g>
    <g id="xtick_13">
     <g id="line2d_13">
      <g>
       <use style="stroke:#000000;stroke-width:0.6;" x="321.354771" xlink:href="#m6669c5eb1e" y="307.584"/>
      </g>
     </g>
    </g>
    <g id="xtick_14">
     <g id="line2d_14">
      <g>
       <use style="stroke:#000000;stroke-width:0.6;" x="343.663832" xlink:href="#m6669c5eb1e" y="307.584"/>
      </g>
     </g>
    </g>
    <g id="xtick_15">
     <g id="line2d_15">
      <g>
       <use style="stroke:#000000;stroke-width:0.6;" x="360.968084" xlink:href="#m6669c5eb1e" y="307.584"/>
      </g>
     </g>
    </g>
    <g id="xtick_16">
     <g id="line2d_16">
      <g>
       <use style="stroke:#000000;stroke-width:0.6;" x="375.106687" xlink:href="#m6669c5eb1e" y="307.584"/>
      </g>
     </g>
    </g>
    <g id="xtick_17">
     <g id="line2d_17">
      <g>
       <use style="stroke:#000000;stroke-width:0.6;" x="387.060706" xlink:href="#m6669c5eb1e" y="307.584"/>
      </g>
     </g>
    </g>
    <g id="xtick_18">
     <g id="line2d_18">
      <g>
       <use style="stroke:#000000;stroke-width:0.6;" x="397.415748" xlink:href="#m6669c5eb1e" y="307.584"/>
      </g>
     </g>
    </g>
    <g id="xtick_19">
     <g id="line2d_19">
      <g>
       <use style="stroke:#000000;stroke-width:0.6;" x="406.549542" xlink:href="#m6669c5eb1e" y="307.584"/>
      </g>
     </g>
    </g>
   </g>
   <g id="matplotlib.axis_2">
    <g id="ytick_1">
     <g id="line2d_20">
      <defs>
       <path d="M 0 0 
L -3.5 0 
" id="m976fd426a0" style="stroke:#000000;stroke-width:0.8;"/>
      </defs>
      <g>
       <use style="stroke:#000000;stroke-width:0.8;" x="57.6" xlink:href="#m976fd426a0" y="307.584"/>
      </g>
     </g>
     <g id="text_4">
      <!-- 0.000 -->
      <g transform="translate(21.971875 311.383219)scale(0.1 -0.1)">
       <defs>
        <path d="M 684 794 
L 1344 794 
L 1344 0 
L 684 0 
L 684 794 
z
" id="DejaVuSans-2e" transform="scale(0.015625)"/>
       </defs>
       <use xlink:href="#DejaVuSans-30"/>
       <use x="63.623047" xlink:href="#DejaVuSans-2e"/>
       <use x="95.410156" xlink:href="#DejaVuSans-30"/>
       <use x="159.033203" xlink:href="#DejaVuSans-30"/>
       <use x="222.65625" xlink:href="#DejaVuSans-30"/>
      </g>
     </g>
    </g>
    <g id="ytick_2">
     <g id="line2d_21">
      <g>
       <use style="stroke:#000000;stroke-width:0.8;" x="57.6" xlink:href="#m976fd426a0" y="267.250443"/>
      </g>
     </g>
     <g id="text_5">
      <!-- 0.005 -->
      <g transform="translate(21.971875 271.049662)scale(0.1 -0.1)">
       <defs>
        <path d="M 691 4666 
L 3169 4666 
L 3169 4134 
L 1269 4134 
L 1269 2991 
Q 1406 3038 1543 3061 
Q 1681 3084 1819 3084 
Q 2600 3084 3056 2656 
Q 3513 2228 3513 1497 
Q 3513 744 3044 326 
Q 2575 -91 1722 -91 
Q 1428 -91 1123 -41 
Q 819 9 494 109 
L 494 744 
Q 775 591 1075 516 
Q 1375 441 1709 441 
Q 2250 441 2565 725 
Q 2881 1009 2881 1497 
Q 2881 1984 2565 2268 
Q 2250 2553 1709 2553 
Q 1456 2553 1204 2497 
Q 953 2441 691 2322 
L 691 4666 
z
" id="DejaVuSans-35" transform="scale(0.015625)"/>
       </defs>
       <use xlink:href="#DejaVuSans-30"/>
       <use x="63.623047" xlink:href="#DejaVuSans-2e"/>
       <use x="95.410156" xlink:href="#DejaVuSans-30"/>
       <use x="159.033203" xlink:href="#DejaVuSans-30"/>
       <use x="222.65625" xlink:href="#DejaVuSans-35"/>
      </g>
     </g>
    </g>
    <g id="ytick_3">
     <g id="line2d_22">
      <g>
       <use style="stroke:#000000;stroke-width:0.8;" x="57.6" xlink:href="#m976fd426a0" y="226.916886"/>
      </g>
     </g>
     <g id="text_6">
      <!-- 0.010 -->
      <g transform="translate(21.971875 230.716105)scale(0.1 -0.1)">
       <use xlink:href="#DejaVuSans-30"/>
       <use x="63.623047" xlink:href="#DejaVuSans-2e"/>
       <use x="95.410156" xlink:href="#DejaVuSans-30"/>
       <use x="159.033203" xlink:href="#DejaVuSans-31"/>
       <use x="222.65625" xlink:href="#DejaVuSans-30"/>
      </g>
     </g>
    </g>
    <g id="ytick_4">
     <g id="line2d_23">
      <g>
       <use style="stroke:#000000;stroke-width:0.8;" x="57.6" xlink:href="#m976fd426a0" y="186.583329"/>
      </g>
     </g>
     <g id="text_7">
      <!-- 0.015 -->
      <g transform="translate(21.971875 190.382548)scale(0.1 -0.1)">
       <use xlink:href="#DejaVuSans-30"/>
       <use x="63.623047" xlink:href="#DejaVuSans-2e"/>
       <use x="95.410156" xlink:href="#DejaVuSans-30"/>
       <use x="159.033203" xlink:href="#DejaVuSans-31"/>
       <use x="222.65625" xlink:href="#DejaVuSans-35"/>
      </g>
     </g>
    </g>
    <g id="ytick_5">
     <g id="line2d_24">
      <g>
       <use style="stroke:#000000;stroke-width:0.8;" x="57.6" xlink:href="#m976fd426a0" y="146.249773"/>
      </g>
     </g>
     <g id="text_8">
      <!-- 0.020 -->
      <g transform="translate(21.971875 150.048991)scale(0.1 -0.1)">
       <use xlink:href="#DejaVuSans-30"/>
       <use x="63.623047" xlink:href="#DejaVuSans-2e"/>
       <use x="95.410156" xlink:href="#DejaVuSans-30"/>
       <use x="159.033203" xlink:href="#DejaVuSans-32"/>
       <use x="222.65625" xlink:href="#DejaVuSans-30"/>
      </g>
     </g>
    </g>
    <g id="ytick_6">
     <g id="line2d_25">
      <g>
       <use style="stroke:#000000;stroke-width:0.8;" x="57.6" xlink:href="#m976fd426a0" y="105.916216"/>
      </g>
     </g>
     <g id="text_9">
      <!-- 0.025 -->
      <g transform="translate(21.971875 109.715435)scale(0.1 -0.1)">
       <use xlink:href="#DejaVuSans-30"/>
       <use x="63.623047" xlink:href="#DejaVuSans-2e"/>
       <use x="95.410156" xlink:href="#DejaVuSans-30"/>
       <use x="159.033203" xlink:href="#DejaVuSans-32"/>
       <use x="222.65625" xlink:href="#DejaVuSans-35"/>
      </g>
     </g>
    </g>
    <g id="ytick_7">
     <g id="line2d_26">
      <g>
       <use style="stroke:#000000;stroke-width:0.8;" x="57.6" xlink:href="#m976fd426a0" y="65.582659"/>
      </g>
     </g>
     <g id="text_10">
      <!-- 0.030 -->
      <g transform="translate(21.971875 69.381878)scale(0.1 -0.1)">
       <defs>
        <path d="M 2597 2516 
Q 3050 2419 3304 2112 
Q 3559 1806 3559 1356 
Q 3559 666 3084 287 
Q 2609 -91 1734 -91 
Q 1441 -91 1130 -33 
Q 819 25 488 141 
L 488 750 
Q 750 597 1062 519 
Q 1375 441 1716 441 
Q 2309 441 2620 675 
Q 2931 909 2931 1356 
Q 2931 1769 2642 2001 
Q 2353 2234 1838 2234 
L 1294 2234 
L 1294 2753 
L 1863 2753 
Q 2328 2753 2575 2939 
Q 2822 3125 2822 3475 
Q 2822 3834 2567 4026 
Q 2313 4219 1838 4219 
Q 1578 4219 1281 4162 
Q 984 4106 628 3988 
L 628 4550 
Q 988 4650 1302 4700 
Q 1616 4750 1894 4750 
Q 2613 4750 3031 4423 
Q 3450 4097 3450 3541 
Q 3450 3153 3228 2886 
Q 3006 2619 2597 2516 
z
" id="DejaVuSans-33" transform="scale(0.015625)"/>
       </defs>
       <use xlink:href="#DejaVuSans-30"/>
       <use x="63.623047" xlink:href="#DejaVuSans-2e"/>
       <use x="95.410156" xlink:href="#DejaVuSans-30"/>
       <use x="159.033203" xlink:href="#DejaVuSans-33"/>
       <use x="222.65625" xlink:href="#DejaVuSans-30"/>
      </g>
     </g>
    </g>
   </g>
   <g id="patch_126">
    <path d="M 57.6 307.584 
L 57.6 41.472 
" style="fill:none;stroke:#000000;stroke-linecap:square;stroke-linejoin:miter;stroke-width:0.8;"/>
   </g>
   <g id="patch_127">
    <path d="M 414.72 307.584 
L 414.72 41.472 
" style="fill:none;stroke:#000000;stroke-linecap:square;stroke-linejoin:miter;stroke-width:0.8;"/>
   </g>
   <g id="patch_128">
    <path d="M 57.6 307.584 
L 414.72 307.584 
" style="fill:none;stroke:#000000;stroke-linecap:square;stroke-linejoin:miter;stroke-width:0.8;"/>
   </g>
   <g id="patch_129">
    <path d="M 57.6 41.472 
L 414.72 41.472 
" style="fill:none;stroke:#000000;stroke-linecap:square;stroke-linejoin:miter;stroke-width:0.8;"/>
   </g>
  </g>
 </g>
 <defs>
  <clipPath id="pc382342215">
   <rect height="266.112" width="357.12" x="57.6" y="41.472"/>
  </clipPath>
 </defs>
</svg>
