<?xml version="1.0" encoding="utf-8" standalone="no"?>
<!DOCTYPE svg PUBLIC "-//W3C//DTD SVG 1.1//EN"
  "http://www.w3.org/Graphics/SVG/1.1/DTD/svg11.dtd">
<svg height="345.6pt" version="1.1" viewBox="0 0 460.8 345.6" width="460.8pt" xmlns="http://www.w3.org/2000/svg" xmlns:xlink="http://www.w3.org/1999/xlink">
 <metadata>
  <rdf:RDF xmlns:cc="http://creativecommons.org/ns#" xmlns:dc="http://purl.org/dc/elements/1.1/" xmlns:rdf="http://www.w3.org/1999/02/22-rdf-syntax-ns#">
   <cc:Work>
    <dc:type rdf:resource="http://purl.org/dc/dcmitype/StillImage"/>
    <dc:date>2021-09-16T21:31:01.832025</dc:date>
    <dc:format>image/svg+xml</dc:format>
    <dc:creator>
     <cc:Agent>
      <dc:title>Matplotlib v3.4.3, https://matplotlib.org/</dc:title>
     </cc:Agent>
    </dc:creator>
   </cc:Work>
  </rdf:RDF>
 </metadata>
 <defs>
  <style type="text/css">*{stroke-linecap:butt;stroke-linejoin:round;}</style>
 </defs>
 <g id="figure_1">
  <g id="patch_1">
   <path d="M 0 345.6 
L 460.8 345.6 
L 460.8 0 
L 0 0 
z
" style="fill:#ffffff;"/>
  </g>
  <g id="axes_1">
   <g id="patch_2">
    <path d="M 57.6 307.584 
L 414.72 307.584 
L 414.72 41.472 
L 57.6 41.472 
z
" style="fill:#ffffff;"/>
   </g>
   <g id="patch_3">
    <path clip-path="url(#pb466909544)" d="M 165.103832 307.584 
L 182.408084 307.584 
L 182.408084 307.560089 
L 165.103832 307.560089 
z
" style="fill:#1f77b4;"/>
   </g>
   <g id="patch_4">
    <path clip-path="url(#pb466909544)" d="M 182.408084 307.584 
L 196.546687 307.584 
L 196.546687 307.5302 
L 182.408084 307.5302 
z
" style="fill:#1f77b4;"/>
   </g>
   <g id="patch_5">
    <path clip-path="url(#pb466909544)" d="M 196.546687 307.584 
L 208.500706 307.584 
L 208.500706 307.349374 
L 196.546687 307.349374 
z
" style="fill:#1f77b4;"/>
   </g>
   <g id="patch_6">
    <path clip-path="url(#pb466909544)" d="M 208.500706 307.584 
L 218.855748 307.584 
L 218.855748 307.086354 
L 208.500706 307.086354 
z
" style="fill:#1f77b4;"/>
   </g>
   <g id="patch_7">
    <path clip-path="url(#pb466909544)" d="M 218.855748 307.584 
L 227.989542 307.584 
L 227.989542 306.584225 
L 218.855748 306.584225 
z
" style="fill:#1f77b4;"/>
   </g>
   <g id="patch_8">
    <path clip-path="url(#pb466909544)" d="M 227.989542 307.584 
L 236.16 307.584 
L 236.16 305.414084 
L 227.989542 305.414084 
z
" style="fill:#1f77b4;"/>
   </g>
   <g id="patch_9">
    <path clip-path="url(#pb466909544)" d="M 236.16 307.584 
L 243.551078 307.584 
L 243.551078 303.42649 
L 236.16 303.42649 
z
" style="fill:#1f77b4;"/>
   </g>
   <g id="patch_10">
    <path clip-path="url(#pb466909544)" d="M 243.551078 307.584 
L 250.298603 307.584 
L 250.298603 300.678229 
L 243.551078 300.678229 
z
" style="fill:#1f77b4;"/>
   </g>
   <g id="patch_11">
    <path clip-path="url(#pb466909544)" d="M 250.298603 307.584 
L 256.505725 307.584 
L 256.505725 296.223326 
L 250.298603 296.223326 
z
" style="fill:#1f77b4;"/>
   </g>
   <g id="patch_12">
    <path clip-path="url(#pb466909544)" d="M 256.505725 307.584 
L 262.252622 307.584 
L 262.252622 289.540225 
L 256.505725 289.540225 
z
" style="fill:#1f77b4;"/>
   </g>
   <g id="patch_13">
    <path clip-path="url(#pb466909544)" d="M 262.252622 307.584 
L 267.602855 307.584 
L 267.602855 281.739289 
L 262.252622 281.739289 
z
" style="fill:#1f77b4;"/>
   </g>
   <g id="patch_14">
    <path clip-path="url(#pb466909544)" d="M 267.602855 307.584 
L 272.607664 307.584 
L 272.607664 270.825451 
L 267.602855 270.825451 
z
" style="fill:#1f77b4;"/>
   </g>
   <g id="patch_15">
    <path clip-path="url(#pb466909544)" d="M 272.607664 307.584 
L 277.308959 307.584 
L 277.308959 258.781822 
L 272.607664 258.781822 
z
" style="fill:#1f77b4;"/>
   </g>
   <g id="patch_16">
    <path clip-path="url(#pb466909544)" d="M 277.308959 307.584 
L 281.741459 307.584 
L 281.741459 243.827038 
L 277.308959 243.827038 
z
" style="fill:#1f77b4;"/>
   </g>
   <g id="patch_17">
    <path clip-path="url(#pb466909544)" d="M 281.741459 307.584 
L 285.934243 307.584 
L 285.934243 226.7666 
L 281.741459 226.7666 
z
" style="fill:#1f77b4;"/>
   </g>
   <g id="patch_18">
    <path clip-path="url(#pb466909544)" d="M 285.934243 307.584 
L 289.911916 307.584 
L 289.911916 208.196785 
L 285.934243 208.196785 
z
" style="fill:#1f77b4;"/>
   </g>
   <g id="patch_19">
    <path clip-path="url(#pb466909544)" d="M 289.911916 307.584 
L 293.695477 307.584 
L 293.695477 189.462583 
L 289.911916 189.462583 
z
" style="fill:#1f77b4;"/>
   </g>
   <g id="patch_20">
    <path clip-path="url(#pb466909544)" d="M 293.695477 307.584 
L 297.302994 307.584 
L 297.302994 169.525363 
L 293.695477 169.525363 
z
" style="fill:#1f77b4;"/>
   </g>
   <g id="patch_21">
    <path clip-path="url(#pb466909544)" d="M 297.302994 307.584 
L 300.750122 307.584 
L 300.750122 150.891288 
L 297.302994 150.891288 
z
" style="fill:#1f77b4;"/>
   </g>
   <g id="patch_22">
    <path clip-path="url(#pb466909544)" d="M 300.750122 307.584 
L 304.050519 307.584 
L 304.050519 132.683126 
L 300.750122 132.683126 
z
" style="fill:#1f77b4;"/>
   </g>
   <g id="patch_23">
    <path clip-path="url(#pb466909544)" d="M 304.050519 307.584 
L 307.216168 307.584 
L 307.216168 116.694195 
L 304.050519 116.694195 
z
" style="fill:#1f77b4;"/>
   </g>
   <g id="patch_24">
    <path clip-path="url(#pb466909544)" d="M 307.216168 307.584 
L 310.257641 307.584 
L 310.257641 102.254991 
L 307.216168 102.254991 
z
" style="fill:#1f77b4;"/>
   </g>
   <g id="patch_25">
    <path clip-path="url(#pb466909544)" d="M 310.257641 307.584 
L 313.184314 307.584 
L 313.184314 90.540137 
L 310.257641 90.540137 
z
" style="fill:#1f77b4;"/>
   </g>
   <g id="patch_26">
    <path clip-path="url(#pb466909544)" d="M 313.184314 307.584 
L 316.004538 307.584 
L 316.004538 80.192688 
L 313.184314 80.192688 
z
" style="fill:#1f77b4;"/>
   </g>
   <g id="patch_27">
    <path clip-path="url(#pb466909544)" d="M 316.004538 307.584 
L 318.725787 307.584 
L 318.725787 73.303356 
L 316.004538 73.303356 
z
" style="fill:#1f77b4;"/>
   </g>
   <g id="patch_28">
    <path clip-path="url(#pb466909544)" d="M 318.725787 307.584 
L 321.354771 307.584 
L 321.354771 67.10744 
L 318.725787 67.10744 
z
" style="fill:#1f77b4;"/>
   </g>
   <g id="patch_29">
    <path clip-path="url(#pb466909544)" d="M 321.354771 307.584 
L 323.897544 307.584 
L 323.897544 65.938794 
L 321.354771 65.938794 
z
" style="fill:#1f77b4;"/>
   </g>
   <g id="patch_30">
    <path clip-path="url(#pb466909544)" d="M 323.897544 307.584 
L 326.35958 307.584 
L 326.35958 65.867061 
L 323.897544 65.867061 
z
" style="fill:#1f77b4;"/>
   </g>
   <g id="patch_31">
    <path clip-path="url(#pb466909544)" d="M 326.35958 307.584 
L 328.745849 307.584 
L 328.745849 65.683246 
L 326.35958 65.683246 
z
" style="fill:#1f77b4;"/>
   </g>
   <g id="patch_32">
    <path clip-path="url(#pb466909544)" d="M 328.745849 307.584 
L 331.060875 307.584 
L 331.060875 69.731663 
L 328.745849 69.731663 
z
" style="fill:#1f77b4;"/>
   </g>
   <g id="patch_33">
    <path clip-path="url(#pb466909544)" d="M 331.060875 307.584 
L 333.30879 307.584 
L 333.30879 74.186565 
L 331.060875 74.186565 
z
" style="fill:#1f77b4;"/>
   </g>
   <g id="patch_34">
    <path clip-path="url(#pb466909544)" d="M 333.30879 307.584 
L 335.493375 307.584 
L 335.493375 78.35902 
L 333.30879 78.35902 
z
" style="fill:#1f77b4;"/>
   </g>
   <g id="patch_35">
    <path clip-path="url(#pb466909544)" d="M 335.493375 307.584 
L 337.6181 307.584 
L 337.6181 84.943488 
L 335.493375 84.943488 
z
" style="fill:#1f77b4;"/>
   </g>
   <g id="patch_36">
    <path clip-path="url(#pb466909544)" d="M 337.6181 307.584 
L 339.686159 307.584 
L 339.686159 91.779021 
L 337.6181 91.779021 
z
" style="fill:#1f77b4;"/>
   </g>
   <g id="patch_37">
    <path clip-path="url(#pb466909544)" d="M 339.686159 307.584 
L 341.700496 307.584 
L 341.700496 98.215541 
L 339.686159 98.215541 
z
" style="fill:#1f77b4;"/>
   </g>
   <g id="patch_38">
    <path clip-path="url(#pb466909544)" d="M 341.700496 307.584 
L 343.663832 307.584 
L 343.663832 106.984869 
L 341.700496 106.984869 
z
" style="fill:#1f77b4;"/>
   </g>
   <g id="patch_39">
    <path clip-path="url(#pb466909544)" d="M 343.663832 307.584 
L 345.578685 307.584 
L 345.578685 115.405995 
L 343.663832 115.405995 
z
" style="fill:#1f77b4;"/>
   </g>
   <g id="patch_40">
    <path clip-path="url(#pb466909544)" d="M 345.578685 307.584 
L 347.447393 307.584 
L 347.447393 123.580539 
L 345.578685 123.580539 
z
" style="fill:#1f77b4;"/>
   </g>
   <g id="patch_41">
    <path clip-path="url(#pb466909544)" d="M 347.447393 307.584 
L 349.272127 307.584 
L 349.272127 131.713239 
L 347.447393 131.713239 
z
" style="fill:#1f77b4;"/>
   </g>
   <g id="patch_42">
    <path clip-path="url(#pb466909544)" d="M 349.272127 307.584 
L 351.05491 307.584 
L 351.05491 140.007338 
L 349.272127 140.007338 
z
" style="fill:#1f77b4;"/>
   </g>
   <g id="patch_43">
    <path clip-path="url(#pb466909544)" d="M 351.05491 307.584 
L 352.797626 307.584 
L 352.797626 148.797588 
L 351.05491 148.797588 
z
" style="fill:#1f77b4;"/>
   </g>
   <g id="patch_44">
    <path clip-path="url(#pb466909544)" d="M 352.797626 307.584 
L 354.502038 307.584 
L 354.502038 156.709112 
L 352.797626 156.709112 
z
" style="fill:#1f77b4;"/>
   </g>
   <g id="patch_45">
    <path clip-path="url(#pb466909544)" d="M 354.502038 307.584 
L 356.169794 307.584 
L 356.169794 165.789282 
L 354.502038 165.789282 
z
" style="fill:#1f77b4;"/>
   </g>
   <g id="patch_46">
    <path clip-path="url(#pb466909544)" d="M 356.169794 307.584 
L 357.802435 307.584 
L 357.802435 173.805417 
L 356.169794 173.805417 
z
" style="fill:#1f77b4;"/>
   </g>
   <g id="patch_47">
    <path clip-path="url(#pb466909544)" d="M 357.802435 307.584 
L 359.401412 307.584 
L 359.401412 181.89179 
L 357.802435 181.89179 
z
" style="fill:#1f77b4;"/>
   </g>
   <g id="patch_48">
    <path clip-path="url(#pb466909544)" d="M 359.401412 307.584 
L 360.968084 307.584 
L 360.968084 189.898957 
L 359.401412 189.898957 
z
" style="fill:#1f77b4;"/>
   </g>
   <g id="patch_49">
    <path clip-path="url(#pb466909544)" d="M 360.968084 307.584 
L 362.503731 307.584 
L 362.503731 197.989813 
L 360.968084 197.989813 
z
" style="fill:#1f77b4;"/>
   </g>
   <g id="patch_50">
    <path clip-path="url(#pb466909544)" d="M 362.503731 307.584 
L 364.009557 307.584 
L 364.009557 205.878921 
L 362.503731 205.878921 
z
" style="fill:#1f77b4;"/>
   </g>
   <g id="patch_51">
    <path clip-path="url(#pb466909544)" d="M 364.009557 307.584 
L 365.486699 307.584 
L 365.486699 212.880336 
L 364.009557 212.880336 
z
" style="fill:#1f77b4;"/>
   </g>
   <g id="patch_52">
    <path clip-path="url(#pb466909544)" d="M 365.486699 307.584 
L 366.93623 307.584 
L 366.93623 219.579876 
L 365.486699 219.579876 
z
" style="fill:#1f77b4;"/>
   </g>
   <g id="patch_53">
    <path clip-path="url(#pb466909544)" d="M 366.93623 307.584 
L 368.359162 307.584 
L 368.359162 227.268729 
L 366.93623 227.268729 
z
" style="fill:#1f77b4;"/>
   </g>
   <g id="patch_54">
    <path clip-path="url(#pb466909544)" d="M 368.359162 307.584 
L 369.756454 307.584 
L 369.756454 233.518445 
L 368.359162 233.518445 
z
" style="fill:#1f77b4;"/>
   </g>
   <g id="patch_55">
    <path clip-path="url(#pb466909544)" d="M 369.756454 307.584 
L 371.129014 307.584 
L 371.129014 239.088194 
L 369.756454 239.088194 
z
" style="fill:#1f77b4;"/>
   </g>
   <g id="patch_56">
    <path clip-path="url(#pb466909544)" d="M 371.129014 307.584 
L 372.477703 307.584 
L 372.477703 245.116733 
L 371.129014 245.116733 
z
" style="fill:#1f77b4;"/>
   </g>
   <g id="patch_57">
    <path clip-path="url(#pb466909544)" d="M 372.477703 307.584 
L 373.803335 307.584 
L 373.803335 251.252872 
L 372.477703 251.252872 
z
" style="fill:#1f77b4;"/>
   </g>
   <g id="patch_58">
    <path clip-path="url(#pb466909544)" d="M 373.803335 307.584 
L 375.106687 307.584 
L 375.106687 256.435563 
L 373.803335 256.435563 
z
" style="fill:#1f77b4;"/>
   </g>
   <g id="patch_59">
    <path clip-path="url(#pb466909544)" d="M 375.106687 307.584 
L 376.388495 307.584 
L 376.388495 260.953232 
L 375.106687 260.953232 
z
" style="fill:#1f77b4;"/>
   </g>
   <g id="patch_60">
    <path clip-path="url(#pb466909544)" d="M 376.388495 307.584 
L 377.64946 307.584 
L 377.64946 265.756337 
L 376.388495 265.756337 
z
" style="fill:#1f77b4;"/>
   </g>
   <g id="patch_61">
    <path clip-path="url(#pb466909544)" d="M 377.64946 307.584 
L 378.890249 307.584 
L 378.890249 270.010985 
L 377.64946 270.010985 
z
" style="fill:#1f77b4;"/>
   </g>
   <g id="patch_62">
    <path clip-path="url(#pb466909544)" d="M 378.890249 307.584 
L 380.111496 307.584 
L 380.111496 274.2746 
L 378.890249 274.2746 
z
" style="fill:#1f77b4;"/>
   </g>
   <g id="patch_63">
    <path clip-path="url(#pb466909544)" d="M 380.111496 307.584 
L 381.313809 307.584 
L 381.313809 277.813416 
L 380.111496 277.813416 
z
" style="fill:#1f77b4;"/>
   </g>
   <g id="patch_64">
    <path clip-path="url(#pb466909544)" d="M 381.313809 307.584 
L 382.497765 307.584 
L 382.497765 280.909879 
L 381.313809 280.909879 
z
" style="fill:#1f77b4;"/>
   </g>
   <g id="patch_65">
    <path clip-path="url(#pb466909544)" d="M 382.497765 307.584 
L 383.663917 307.584 
L 383.663917 283.695501 
L 382.497765 283.695501 
z
" style="fill:#1f77b4;"/>
   </g>
   <g id="patch_66">
    <path clip-path="url(#pb466909544)" d="M 383.663917 307.584 
L 384.812791 307.584 
L 384.812791 286.386973 
L 383.663917 286.386973 
z
" style="fill:#1f77b4;"/>
   </g>
   <g id="patch_67">
    <path clip-path="url(#pb466909544)" d="M 384.812791 307.584 
L 385.944894 307.584 
L 385.944894 288.769098 
L 384.812791 288.769098 
z
" style="fill:#1f77b4;"/>
   </g>
   <g id="patch_68">
    <path clip-path="url(#pb466909544)" d="M 385.944894 307.584 
L 387.060706 307.584 
L 387.060706 291.296183 
L 385.944894 291.296183 
z
" style="fill:#1f77b4;"/>
   </g>
   <g id="patch_69">
    <path clip-path="url(#pb466909544)" d="M 387.060706 307.584 
L 388.160691 307.584 
L 388.160691 293.034208 
L 387.060706 293.034208 
z
" style="fill:#1f77b4;"/>
   </g>
   <g id="patch_70">
    <path clip-path="url(#pb466909544)" d="M 388.160691 307.584 
L 389.245291 307.584 
L 389.245291 294.959037 
L 388.160691 294.959037 
z
" style="fill:#1f77b4;"/>
   </g>
   <g id="patch_71">
    <path clip-path="url(#pb466909544)" d="M 389.245291 307.584 
L 390.31493 307.584 
L 390.31493 296.49083 
L 389.245291 296.49083 
z
" style="fill:#1f77b4;"/>
   </g>
   <g id="patch_72">
    <path clip-path="url(#pb466909544)" d="M 390.31493 307.584 
L 391.370016 307.584 
L 391.370016 298.019634 
L 390.31493 298.019634 
z
" style="fill:#1f77b4;"/>
   </g>
   <g id="patch_73">
    <path clip-path="url(#pb466909544)" d="M 391.370016 307.584 
L 392.410939 307.584 
L 392.410939 299.342206 
L 391.370016 299.342206 
z
" style="fill:#1f77b4;"/>
   </g>
   <g id="patch_74">
    <path clip-path="url(#pb466909544)" d="M 392.410939 307.584 
L 393.438075 307.584 
L 393.438075 300.338993 
L 392.410939 300.338993 
z
" style="fill:#1f77b4;"/>
   </g>
   <g id="patch_75">
    <path clip-path="url(#pb466909544)" d="M 393.438075 307.584 
L 394.451784 307.584 
L 394.451784 301.503155 
L 393.438075 301.503155 
z
" style="fill:#1f77b4;"/>
   </g>
   <g id="patch_76">
    <path clip-path="url(#pb466909544)" d="M 394.451784 307.584 
L 395.452412 307.584 
L 395.452412 302.068051 
L 394.451784 302.068051 
z
" style="fill:#1f77b4;"/>
   </g>
   <g id="patch_77">
    <path clip-path="url(#pb466909544)" d="M 395.452412 307.584 
L 396.440293 307.584 
L 396.440293 302.92436 
L 395.452412 302.92436 
z
" style="fill:#1f77b4;"/>
   </g>
   <g id="patch_78">
    <path clip-path="url(#pb466909544)" d="M 396.440293 307.584 
L 397.415748 307.584 
L 397.415748 303.664104 
L 396.440293 303.664104 
z
" style="fill:#1f77b4;"/>
   </g>
   <g id="patch_79">
    <path clip-path="url(#pb466909544)" d="M 397.415748 307.584 
L 398.379085 307.584 
L 398.379085 304.251416 
L 397.415748 304.251416 
z
" style="fill:#1f77b4;"/>
   </g>
   <g id="patch_80">
    <path clip-path="url(#pb466909544)" d="M 398.379085 307.584 
L 399.330601 307.584 
L 399.330601 304.720668 
L 398.379085 304.720668 
z
" style="fill:#1f77b4;"/>
   </g>
   <g id="patch_81">
    <path clip-path="url(#pb466909544)" d="M 399.330601 307.584 
L 400.270584 307.584 
L 400.270584 305.086804 
L 399.330601 305.086804 
z
" style="fill:#1f77b4;"/>
   </g>
   <g id="patch_82">
    <path clip-path="url(#pb466909544)" d="M 400.270584 307.584 
L 401.199309 307.584 
L 401.199309 305.409601 
L 400.270584 305.409601 
z
" style="fill:#1f77b4;"/>
   </g>
   <g id="patch_83">
    <path clip-path="url(#pb466909544)" d="M 401.199309 307.584 
L 402.117043 307.584 
L 402.117043 305.826548 
L 401.199309 305.826548 
z
" style="fill:#1f77b4;"/>
   </g>
   <g id="patch_84">
    <path clip-path="url(#pb466909544)" d="M 402.117043 307.584 
L 403.024043 307.584 
L 403.024043 306.106007 
L 402.117043 306.106007 
z
" style="fill:#1f77b4;"/>
   </g>
   <g id="patch_85">
    <path clip-path="url(#pb466909544)" d="M 403.024043 307.584 
L 403.920558 307.584 
L 403.920558 306.265911 
L 403.024043 306.265911 
z
" style="fill:#1f77b4;"/>
   </g>
   <g id="patch_86">
    <path clip-path="url(#pb466909544)" d="M 403.920558 307.584 
L 404.806826 307.584 
L 404.806826 306.488581 
L 403.920558 306.488581 
z
" style="fill:#1f77b4;"/>
   </g>
   <g id="patch_87">
    <path clip-path="url(#pb466909544)" d="M 404.806826 307.584 
L 405.68308 307.584 
L 405.68308 306.703779 
L 404.806826 306.703779 
z
" style="fill:#1f77b4;"/>
   </g>
   <g id="patch_88">
    <path clip-path="url(#pb466909544)" d="M 405.68308 307.584 
L 406.549542 307.584 
L 406.549542 306.762062 
L 405.68308 306.762062 
z
" style="fill:#1f77b4;"/>
   </g>
   <g id="patch_89">
    <path clip-path="url(#pb466909544)" d="M 406.549542 307.584 
L 407.406431 307.584 
L 407.406431 306.951855 
L 406.549542 306.951855 
z
" style="fill:#1f77b4;"/>
   </g>
   <g id="patch_90">
    <path clip-path="url(#pb466909544)" d="M 407.406431 307.584 
L 408.253954 307.584 
L 408.253954 307.113254 
L 407.406431 307.113254 
z
" style="fill:#1f77b4;"/>
   </g>
   <g id="patch_91">
    <path clip-path="url(#pb466909544)" d="M 408.253954 307.584 
L 409.092315 307.584 
L 409.092315 307.14912 
L 408.253954 307.14912 
z
" style="fill:#1f77b4;"/>
   </g>
   <g id="patch_92">
    <path clip-path="url(#pb466909544)" d="M 409.092315 307.584 
L 409.92171 307.584 
L 409.92171 307.223842 
L 409.092315 307.223842 
z
" style="fill:#1f77b4;"/>
   </g>
   <g id="patch_93">
    <path clip-path="url(#pb466909544)" d="M 409.92171 307.584 
L 410.742327 307.584 
L 410.742327 307.252236 
L 409.92171 307.252236 
z
" style="fill:#1f77b4;"/>
   </g>
   <g id="patch_94">
    <path clip-path="url(#pb466909544)" d="M 410.742327 307.584 
L 411.554351 307.584 
L 411.554351 307.291091 
L 410.742327 307.291091 
z
" style="fill:#1f77b4;"/>
   </g>
   <g id="patch_95">
    <path clip-path="url(#pb466909544)" d="M 411.554351 307.584 
L 412.357961 307.584 
L 412.357961 307.356846 
L 411.554351 307.356846 
z
" style="fill:#1f77b4;"/>
   </g>
   <g id="patch_96">
    <path clip-path="url(#pb466909544)" d="M 412.357961 307.584 
L 413.153328 307.584 
L 413.153328 307.415129 
L 412.357961 307.415129 
z
" style="fill:#1f77b4;"/>
   </g>
   <g id="patch_97">
    <path clip-path="url(#pb466909544)" d="M 413.153328 307.584 
L 413.94062 307.584 
L 413.94062 307.446512 
L 413.153328 307.446512 
z
" style="fill:#1f77b4;"/>
   </g>
   <g id="patch_98">
    <path clip-path="url(#pb466909544)" d="M 413.94062 307.584 
L 414.72 307.584 
L 414.72 307.467434 
L 413.94062 307.467434 
z
" style="fill:#1f77b4;"/>
   </g>
   <g id="patch_99">
    <path clip-path="url(#pb466909544)" d="M 414.72 307.584 
L 415.491625 307.584 
L 415.491625 307.480884 
L 414.72 307.480884 
z
" style="fill:#1f77b4;"/>
   </g>
   <g id="patch_100">
    <path clip-path="url(#pb466909544)" d="M 415.491625 307.584 
L 416.255647 307.584 
L 416.255647 307.500312 
L 415.491625 307.500312 
z
" style="fill:#1f77b4;"/>
   </g>
   <g id="patch_101">
    <path clip-path="url(#pb466909544)" d="M 416.255647 307.584 
L 417.012215 307.584 
L 417.012215 307.515256 
L 416.255647 307.515256 
z
" style="fill:#1f77b4;"/>
   </g>
   <g id="patch_102">
    <path clip-path="url(#pb466909544)" d="M 417.012215 307.584 
L 417.761473 307.584 
L 417.761473 307.518245 
L 417.012215 307.518245 
z
" style="fill:#1f77b4;"/>
   </g>
   <g id="patch_103">
    <path clip-path="url(#pb466909544)" d="M 417.761473 307.584 
L 418.503561 307.584 
L 418.503561 307.534684 
L 417.761473 307.534684 
z
" style="fill:#1f77b4;"/>
   </g>
   <g id="patch_104">
    <path clip-path="url(#pb466909544)" d="M 418.503561 307.584 
L 419.238615 307.584 
L 419.238615 307.552617 
L 418.503561 307.552617 
z
" style="fill:#1f77b4;"/>
   </g>
   <g id="patch_105">
    <path clip-path="url(#pb466909544)" d="M 419.238615 307.584 
L 419.966767 307.584 
L 419.966767 307.540661 
L 419.238615 307.540661 
z
" style="fill:#1f77b4;"/>
   </g>
   <g id="patch_106">
    <path clip-path="url(#pb466909544)" d="M 419.966767 307.584 
L 420.688146 307.584 
L 420.688146 307.564572 
L 419.966767 307.564572 
z
" style="fill:#1f77b4;"/>
   </g>
   <g id="patch_107">
    <path clip-path="url(#pb466909544)" d="M 420.688146 307.584 
L 421.402875 307.584 
L 421.402875 307.567561 
L 420.688146 307.567561 
z
" style="fill:#1f77b4;"/>
   </g>
   <g id="patch_108">
    <path clip-path="url(#pb466909544)" d="M 421.402875 307.584 
L 422.111078 307.584 
L 422.111078 307.560089 
L 421.402875 307.560089 
z
" style="fill:#1f77b4;"/>
   </g>
   <g id="patch_109">
    <path clip-path="url(#pb466909544)" d="M 422.111078 307.584 
L 422.812871 307.584 
L 422.812871 307.563078 
L 422.111078 307.563078 
z
" style="fill:#1f77b4;"/>
   </g>
   <g id="patch_110">
    <path clip-path="url(#pb466909544)" d="M 422.812871 307.584 
L 423.50837 307.584 
L 423.50837 307.567561 
L 422.812871 307.567561 
z
" style="fill:#1f77b4;"/>
   </g>
   <g id="patch_111">
    <path clip-path="url(#pb466909544)" d="M 423.50837 307.584 
L 424.197687 307.584 
L 424.197687 307.576528 
L 423.50837 307.576528 
z
" style="fill:#1f77b4;"/>
   </g>
   <g id="patch_112">
    <path clip-path="url(#pb466909544)" d="M 424.197687 307.584 
L 424.88093 307.584 
L 424.88093 307.582506 
L 424.197687 307.582506 
z
" style="fill:#1f77b4;"/>
   </g>
   <g id="patch_113">
    <path clip-path="url(#pb466909544)" d="M 424.88093 307.584 
L 425.558206 307.584 
L 425.558206 307.578022 
L 424.88093 307.578022 
z
" style="fill:#1f77b4;"/>
   </g>
   <g id="patch_114">
    <path clip-path="url(#pb466909544)" d="M 425.558206 307.584 
L 426.229619 307.584 
L 426.229619 307.579517 
L 425.558206 307.579517 
z
" style="fill:#1f77b4;"/>
   </g>
   <g id="patch_115">
    <path clip-path="url(#pb466909544)" d="M 426.229619 307.584 
L 426.895267 307.584 
L 426.895267 307.582506 
L 426.229619 307.582506 
z
" style="fill:#1f77b4;"/>
   </g>
   <g id="patch_116">
    <path clip-path="url(#pb466909544)" d="M 426.895267 307.584 
L 427.555251 307.584 
L 427.555251 307.579517 
L 426.895267 307.579517 
z
" style="fill:#1f77b4;"/>
   </g>
   <g id="patch_117">
    <path clip-path="url(#pb466909544)" d="M 427.555251 307.584 
L 428.209665 307.584 
L 428.209665 307.582506 
L 427.555251 307.582506 
z
" style="fill:#1f77b4;"/>
   </g>
   <g id="patch_118">
    <path clip-path="url(#pb466909544)" d="M 428.209665 307.584 
L 428.858603 307.584 
L 428.858603 307.579517 
L 428.209665 307.579517 
z
" style="fill:#1f77b4;"/>
   </g>
   <g id="patch_119">
    <path clip-path="url(#pb466909544)" d="M 428.858603 307.584 
L 429.502156 307.584 
L 429.502156 307.584 
L 428.858603 307.584 
z
" style="fill:#1f77b4;"/>
   </g>
   <g id="patch_120">
    <path clip-path="url(#pb466909544)" d="M 429.502156 307.584 
L 430.140411 307.584 
L 430.140411 307.584 
L 429.502156 307.584 
z
" style="fill:#1f77b4;"/>
   </g>
   <g id="patch_121">
    <path clip-path="url(#pb466909544)" d="M 430.140411 307.584 
L 430.773457 307.584 
L 430.773457 307.584 
L 430.140411 307.584 
z
" style="fill:#1f77b4;"/>
   </g>
   <g id="patch_122">
    <path clip-path="url(#pb466909544)" d="M 430.773457 307.584 
L 431.401376 307.584 
L 431.401376 307.584 
L 430.773457 307.584 
z
" style="fill:#1f77b4;"/>
   </g>
   <g id="patch_123">
    <path clip-path="url(#pb466909544)" d="M 431.401376 307.584 
L 432.024252 307.584 
L 432.024252 307.584 
L 431.401376 307.584 
z
" style="fill:#1f77b4;"/>
   </g>
   <g id="patch_124">
    <path clip-path="url(#pb466909544)" d="M 432.024252 307.584 
L 432.642165 307.584 
L 432.642165 307.581011 
L 432.024252 307.581011 
z
" style="fill:#1f77b4;"/>
   </g>
   <g id="patch_125">
    <path clip-path="url(#pb466909544)" d="M 432.642165 307.584 
L 433.255192 307.584 
L 433.255192 307.584 
L 432.642165 307.584 
z
" style="fill:#1f77b4;"/>
   </g>
   <g id="patch_126">
    <path clip-path="url(#pb466909544)" d="M 433.255192 307.584 
L 433.863412 307.584 
L 433.863412 307.581011 
L 433.255192 307.581011 
z
" style="fill:#1f77b4;"/>
   </g>
   <g id="matplotlib.axis_1">
    <g id="xtick_1">
     <g id="line2d_1">
      <defs>
       <path d="M 0 0 
L 0 3.5 
" id="mec467a86a0" style="stroke:#000000;stroke-width:0.8;"/>
      </defs>
      <g>
       <use style="stroke:#000000;stroke-width:0.8;" x="57.6" xlink:href="#mec467a86a0" y="307.584"/>
      </g>
     </g>
     <g id="text_1">
      <!-- $\mathdefault{10^{0}}$ -->
      <g transform="translate(48.8 322.182437)scale(0.1 -0.1)">
       <defs>
        <path d="M 794 531 
L 1825 531 
L 1825 4091 
L 703 3866 
L 703 4441 
L 1819 4666 
L 2450 4666 
L 2450 531 
L 3481 531 
L 3481 0 
L 794 0 
L 794 531 
z
" id="DejaVuSans-31" transform="scale(0.015625)"/>
        <path d="M 2034 4250 
Q 1547 4250 1301 3770 
Q 1056 3291 1056 2328 
Q 1056 1369 1301 889 
Q 1547 409 2034 409 
Q 2525 409 2770 889 
Q 3016 1369 3016 2328 
Q 3016 3291 2770 3770 
Q 2525 4250 2034 4250 
z
M 2034 4750 
Q 2819 4750 3233 4129 
Q 3647 3509 3647 2328 
Q 3647 1150 3233 529 
Q 2819 -91 2034 -91 
Q 1250 -91 836 529 
Q 422 1150 422 2328 
Q 422 3509 836 4129 
Q 1250 4750 2034 4750 
z
" id="DejaVuSans-30" transform="scale(0.015625)"/>
       </defs>
       <use transform="translate(0 0.765625)" xlink:href="#DejaVuSans-31"/>
       <use transform="translate(63.623047 0.765625)" xlink:href="#DejaVuSans-30"/>
       <use transform="translate(128.203125 39.046875)scale(0.7)" xlink:href="#DejaVuSans-30"/>
      </g>
     </g>
    </g>
    <g id="xtick_2">
     <g id="line2d_2">
      <g>
       <use style="stroke:#000000;stroke-width:0.8;" x="236.16" xlink:href="#mec467a86a0" y="307.584"/>
      </g>
     </g>
     <g id="text_2">
      <!-- $\mathdefault{10^{1}}$ -->
      <g transform="translate(227.36 322.182437)scale(0.1 -0.1)">
       <use transform="translate(0 0.684375)" xlink:href="#DejaVuSans-31"/>
       <use transform="translate(63.623047 0.684375)" xlink:href="#DejaVuSans-30"/>
       <use transform="translate(128.203125 38.965625)scale(0.7)" xlink:href="#DejaVuSans-31"/>
      </g>
     </g>
    </g>
    <g id="xtick_3">
     <g id="line2d_3">
      <g>
       <use style="stroke:#000000;stroke-width:0.8;" x="414.72" xlink:href="#mec467a86a0" y="307.584"/>
      </g>
     </g>
     <g id="text_3">
      <!-- $\mathdefault{10^{2}}$ -->
      <g transform="translate(405.92 322.182437)scale(0.1 -0.1)">
       <defs>
        <path d="M 1228 531 
L 3431 531 
L 3431 0 
L 469 0 
L 469 531 
Q 828 903 1448 1529 
Q 2069 2156 2228 2338 
Q 2531 2678 2651 2914 
Q 2772 3150 2772 3378 
Q 2772 3750 2511 3984 
Q 2250 4219 1831 4219 
Q 1534 4219 1204 4116 
Q 875 4013 500 3803 
L 500 4441 
Q 881 4594 1212 4672 
Q 1544 4750 1819 4750 
Q 2544 4750 2975 4387 
Q 3406 4025 3406 3419 
Q 3406 3131 3298 2873 
Q 3191 2616 2906 2266 
Q 2828 2175 2409 1742 
Q 1991 1309 1228 531 
z
" id="DejaVuSans-32" transform="scale(0.015625)"/>
       </defs>
       <use transform="translate(0 0.765625)" xlink:href="#DejaVuSans-31"/>
       <use transform="translate(63.623047 0.765625)" xlink:href="#DejaVuSans-30"/>
       <use transform="translate(128.203125 39.046875)scale(0.7)" xlink:href="#DejaVuSans-32"/>
      </g>
     </g>
    </g>
    <g id="xtick_4">
     <g id="line2d_4">
      <defs>
       <path d="M 0 0 
L 0 2 
" id="ma47f81f2ee" style="stroke:#000000;stroke-width:0.6;"/>
      </defs>
      <g>
       <use style="stroke:#000000;stroke-width:0.6;" x="111.351916" xlink:href="#ma47f81f2ee" y="307.584"/>
      </g>
     </g>
    </g>
    <g id="xtick_5">
     <g id="line2d_5">
      <g>
       <use style="stroke:#000000;stroke-width:0.6;" x="142.794771" xlink:href="#ma47f81f2ee" y="307.584"/>
      </g>
     </g>
    </g>
    <g id="xtick_6">
     <g id="line2d_6">
      <g>
       <use style="stroke:#000000;stroke-width:0.6;" x="165.103832" xlink:href="#ma47f81f2ee" y="307.584"/>
      </g>
     </g>
    </g>
    <g id="xtick_7">
     <g id="line2d_7">
      <g>
       <use style="stroke:#000000;stroke-width:0.6;" x="182.408084" xlink:href="#ma47f81f2ee" y="307.584"/>
      </g>
     </g>
    </g>
    <g id="xtick_8">
     <g id="line2d_8">
      <g>
       <use style="stroke:#000000;stroke-width:0.6;" x="196.546687" xlink:href="#ma47f81f2ee" y="307.584"/>
      </g>
     </g>
    </g>
    <g id="xtick_9">
     <g id="line2d_9">
      <g>
       <use style="stroke:#000000;stroke-width:0.6;" x="208.500706" xlink:href="#ma47f81f2ee" y="307.584"/>
      </g>
     </g>
    </g>
    <g id="xtick_10">
     <g id="line2d_10">
      <g>
       <use style="stroke:#000000;stroke-width:0.6;" x="218.855748" xlink:href="#ma47f81f2ee" y="307.584"/>
      </g>
     </g>
    </g>
    <g id="xtick_11">
     <g id="line2d_11">
      <g>
       <use style="stroke:#000000;stroke-width:0.6;" x="227.989542" xlink:href="#ma47f81f2ee" y="307.584"/>
      </g>
     </g>
    </g>
    <g id="xtick_12">
     <g id="line2d_12">
      <g>
       <use style="stroke:#000000;stroke-width:0.6;" x="289.911916" xlink:href="#ma47f81f2ee" y="307.584"/>
      </g>
     </g>
    </g>
    <g id="xtick_13">
     <g id="line2d_13">
      <g>
       <use style="stroke:#000000;stroke-width:0.6;" x="321.354771" xlink:href="#ma47f81f2ee" y="307.584"/>
      </g>
     </g>
    </g>
    <g id="xtick_14">
     <g id="line2d_14">
      <g>
       <use style="stroke:#000000;stroke-width:0.6;" x="343.663832" xlink:href="#ma47f81f2ee" y="307.584"/>
      </g>
     </g>
    </g>
    <g id="xtick_15">
     <g id="line2d_15">
      <g>
       <use style="stroke:#000000;stroke-width:0.6;" x="360.968084" xlink:href="#ma47f81f2ee" y="307.584"/>
      </g>
     </g>
    </g>
    <g id="xtick_16">
     <g id="line2d_16">
      <g>
       <use style="stroke:#000000;stroke-width:0.6;" x="375.106687" xlink:href="#ma47f81f2ee" y="307.584"/>
      </g>
     </g>
    </g>
    <g id="xtick_17">
     <g id="line2d_17">
      <g>
       <use style="stroke:#000000;stroke-width:0.6;" x="387.060706" xlink:href="#ma47f81f2ee" y="307.584"/>
      </g>
     </g>
    </g>
    <g id="xtick_18">
     <g id="line2d_18">
      <g>
       <use style="stroke:#000000;stroke-width:0.6;" x="397.415748" xlink:href="#ma47f81f2ee" y="307.584"/>
      </g>
     </g>
    </g>
    <g id="xtick_19">
     <g id="line2d_19">
      <g>
       <use style="stroke:#000000;stroke-width:0.6;" x="406.549542" xlink:href="#ma47f81f2ee" y="307.584"/>
      </g>
     </g>
    </g>
   </g>
   <g id="matplotlib.axis_2">
    <g id="ytick_1">
     <g id="line2d_20">
      <defs>
       <path d="M 0 0 
L -3.5 0 
" id="m507446a039" style="stroke:#000000;stroke-width:0.8;"/>
      </defs>
      <g>
       <use style="stroke:#000000;stroke-width:0.8;" x="57.6" xlink:href="#m507446a039" y="307.584"/>
      </g>
     </g>
     <g id="text_4">
      <!-- 0.000 -->
      <g transform="translate(21.971875 311.383219)scale(0.1 -0.1)">
       <defs>
        <path d="M 684 794 
L 1344 794 
L 1344 0 
L 684 0 
L 684 794 
z
" id="DejaVuSans-2e" transform="scale(0.015625)"/>
       </defs>
       <use xlink:href="#DejaVuSans-30"/>
       <use x="63.623047" xlink:href="#DejaVuSans-2e"/>
       <use x="95.410156" xlink:href="#DejaVuSans-30"/>
       <use x="159.033203" xlink:href="#DejaVuSans-30"/>
       <use x="222.65625" xlink:href="#DejaVuSans-30"/>
      </g>
     </g>
    </g>
    <g id="ytick_2">
     <g id="line2d_21">
      <g>
       <use style="stroke:#000000;stroke-width:0.8;" x="57.6" xlink:href="#m507446a039" y="271.015692"/>
      </g>
     </g>
     <g id="text_5">
      <!-- 0.005 -->
      <g transform="translate(21.971875 274.814911)scale(0.1 -0.1)">
       <defs>
        <path d="M 691 4666 
L 3169 4666 
L 3169 4134 
L 1269 4134 
L 1269 2991 
Q 1406 3038 1543 3061 
Q 1681 3084 1819 3084 
Q 2600 3084 3056 2656 
Q 3513 2228 3513 1497 
Q 3513 744 3044 326 
Q 2575 -91 1722 -91 
Q 1428 -91 1123 -41 
Q 819 9 494 109 
L 494 744 
Q 775 591 1075 516 
Q 1375 441 1709 441 
Q 2250 441 2565 725 
Q 2881 1009 2881 1497 
Q 2881 1984 2565 2268 
Q 2250 2553 1709 2553 
Q 1456 2553 1204 2497 
Q 953 2441 691 2322 
L 691 4666 
z
" id="DejaVuSans-35" transform="scale(0.015625)"/>
       </defs>
       <use xlink:href="#DejaVuSans-30"/>
       <use x="63.623047" xlink:href="#DejaVuSans-2e"/>
       <use x="95.410156" xlink:href="#DejaVuSans-30"/>
       <use x="159.033203" xlink:href="#DejaVuSans-30"/>
       <use x="222.65625" xlink:href="#DejaVuSans-35"/>
      </g>
     </g>
    </g>
    <g id="ytick_3">
     <g id="line2d_22">
      <g>
       <use style="stroke:#000000;stroke-width:0.8;" x="57.6" xlink:href="#m507446a039" y="234.447384"/>
      </g>
     </g>
     <g id="text_6">
      <!-- 0.010 -->
      <g transform="translate(21.971875 238.246603)scale(0.1 -0.1)">
       <use xlink:href="#DejaVuSans-30"/>
       <use x="63.623047" xlink:href="#DejaVuSans-2e"/>
       <use x="95.410156" xlink:href="#DejaVuSans-30"/>
       <use x="159.033203" xlink:href="#DejaVuSans-31"/>
       <use x="222.65625" xlink:href="#DejaVuSans-30"/>
      </g>
     </g>
    </g>
    <g id="ytick_4">
     <g id="line2d_23">
      <g>
       <use style="stroke:#000000;stroke-width:0.8;" x="57.6" xlink:href="#m507446a039" y="197.879076"/>
      </g>
     </g>
     <g id="text_7">
      <!-- 0.015 -->
      <g transform="translate(21.971875 201.678295)scale(0.1 -0.1)">
       <use xlink:href="#DejaVuSans-30"/>
       <use x="63.623047" xlink:href="#DejaVuSans-2e"/>
       <use x="95.410156" xlink:href="#DejaVuSans-30"/>
       <use x="159.033203" xlink:href="#DejaVuSans-31"/>
       <use x="222.65625" xlink:href="#DejaVuSans-35"/>
      </g>
     </g>
    </g>
    <g id="ytick_5">
     <g id="line2d_24">
      <g>
       <use style="stroke:#000000;stroke-width:0.8;" x="57.6" xlink:href="#m507446a039" y="161.310768"/>
      </g>
     </g>
     <g id="text_8">
      <!-- 0.020 -->
      <g transform="translate(21.971875 165.109987)scale(0.1 -0.1)">
       <use xlink:href="#DejaVuSans-30"/>
       <use x="63.623047" xlink:href="#DejaVuSans-2e"/>
       <use x="95.410156" xlink:href="#DejaVuSans-30"/>
       <use x="159.033203" xlink:href="#DejaVuSans-32"/>
       <use x="222.65625" xlink:href="#DejaVuSans-30"/>
      </g>
     </g>
    </g>
    <g id="ytick_6">
     <g id="line2d_25">
      <g>
       <use style="stroke:#000000;stroke-width:0.8;" x="57.6" xlink:href="#m507446a039" y="124.74246"/>
      </g>
     </g>
     <g id="text_9">
      <!-- 0.025 -->
      <g transform="translate(21.971875 128.541679)scale(0.1 -0.1)">
       <use xlink:href="#DejaVuSans-30"/>
       <use x="63.623047" xlink:href="#DejaVuSans-2e"/>
       <use x="95.410156" xlink:href="#DejaVuSans-30"/>
       <use x="159.033203" xlink:href="#DejaVuSans-32"/>
       <use x="222.65625" xlink:href="#DejaVuSans-35"/>
      </g>
     </g>
    </g>
    <g id="ytick_7">
     <g id="line2d_26">
      <g>
       <use style="stroke:#000000;stroke-width:0.8;" x="57.6" xlink:href="#m507446a039" y="88.174152"/>
      </g>
     </g>
     <g id="text_10">
      <!-- 0.030 -->
      <g transform="translate(21.971875 91.973371)scale(0.1 -0.1)">
       <defs>
        <path d="M 2597 2516 
Q 3050 2419 3304 2112 
Q 3559 1806 3559 1356 
Q 3559 666 3084 287 
Q 2609 -91 1734 -91 
Q 1441 -91 1130 -33 
Q 819 25 488 141 
L 488 750 
Q 750 597 1062 519 
Q 1375 441 1716 441 
Q 2309 441 2620 675 
Q 2931 909 2931 1356 
Q 2931 1769 2642 2001 
Q 2353 2234 1838 2234 
L 1294 2234 
L 1294 2753 
L 1863 2753 
Q 2328 2753 2575 2939 
Q 2822 3125 2822 3475 
Q 2822 3834 2567 4026 
Q 2313 4219 1838 4219 
Q 1578 4219 1281 4162 
Q 984 4106 628 3988 
L 628 4550 
Q 988 4650 1302 4700 
Q 1616 4750 1894 4750 
Q 2613 4750 3031 4423 
Q 3450 4097 3450 3541 
Q 3450 3153 3228 2886 
Q 3006 2619 2597 2516 
z
" id="DejaVuSans-33" transform="scale(0.015625)"/>
       </defs>
       <use xlink:href="#DejaVuSans-30"/>
       <use x="63.623047" xlink:href="#DejaVuSans-2e"/>
       <use x="95.410156" xlink:href="#DejaVuSans-30"/>
       <use x="159.033203" xlink:href="#DejaVuSans-33"/>
       <use x="222.65625" xlink:href="#DejaVuSans-30"/>
      </g>
     </g>
    </g>
    <g id="ytick_8">
     <g id="line2d_27">
      <g>
       <use style="stroke:#000000;stroke-width:0.8;" x="57.6" xlink:href="#m507446a039" y="51.605844"/>
      </g>
     </g>
     <g id="text_11">
      <!-- 0.035 -->
      <g transform="translate(21.971875 55.405063)scale(0.1 -0.1)">
       <use xlink:href="#DejaVuSans-30"/>
       <use x="63.623047" xlink:href="#DejaVuSans-2e"/>
       <use x="95.410156" xlink:href="#DejaVuSans-30"/>
       <use x="159.033203" xlink:href="#DejaVuSans-33"/>
       <use x="222.65625" xlink:href="#DejaVuSans-35"/>
      </g>
     </g>
    </g>
   </g>
   <g id="line2d_28">
    <path clip-path="url(#pb466909544)" d="M 57.6 307.581257 
L 111.351916 307.570235 
L 142.794771 307.534533 
L 165.103832 307.441468 
L 182.408084 307.234237 
L 196.546687 306.825371 
L 208.500706 306.092953 
L 218.855748 304.881028 
L 227.989542 303.004963 
L 236.16 300.261691 
L 243.551078 296.44397 
L 250.298603 291.357184 
L 256.505725 284.836835 
L 262.252622 276.764847 
L 267.602855 267.082989 
L 272.607664 255.80213 
L 277.308959 243.006559 
L 281.741459 228.853146 
L 285.934243 213.565613 
L 289.911916 197.424622 
L 293.695477 180.754643 
L 297.302994 163.908761 
L 300.750122 147.252586 
L 304.050519 131.14837 
L 307.216168 115.940301 
L 310.257641 101.941704 
L 313.184314 89.424699 
L 316.004538 78.612596 
L 318.725787 69.675127 
L 321.354771 62.726403 
L 323.897544 57.825387 
L 326.35958 54.978501 
L 328.745849 54.144 
L 331.060875 55.237652 
L 333.30879 58.139299 
L 335.493375 62.699905 
L 337.6181 68.748706 
L 339.686159 76.100186 
L 341.700496 84.5606 
L 343.663832 93.933894 
L 345.578685 104.026868 
L 347.447393 114.653536 
L 349.272127 125.638633 
L 351.05491 136.820311 
L 352.797626 148.052048 
L 354.502038 159.203838 
L 356.169794 170.16276 
L 357.802435 180.832996 
L 359.401412 191.135404 
L 360.968084 201.006725 
L 362.503731 210.398533 
L 364.009557 219.275977 
L 365.486699 227.616413 
L 366.93623 235.407968 
L 368.359162 242.6481 
L 369.756454 249.342183 
L 371.129014 255.502163 
L 372.477703 261.145297 
L 373.803335 266.292995 
L 375.106687 270.969784 
L 376.388495 275.202376 
L 377.64946 279.018872 
L 378.890249 282.448072 
L 380.111496 285.518892 
L 381.313809 288.259896 
L 382.497765 290.698908 
L 383.663917 292.862719 
L 384.812791 294.77686 
L 385.944894 296.465448 
L 387.060706 297.951077 
L 388.160691 299.25477 
L 389.245291 300.395952 
L 390.31493 301.392473 
L 391.370016 302.260637 
L 392.410939 303.015269 
L 393.438075 303.669777 
L 394.451784 304.236239 
L 395.452412 304.725488 
L 396.440293 305.147202 
L 397.415748 305.509998 
L 398.379085 305.821515 
L 399.330601 306.088511 
L 400.270584 306.316938 
L 401.199309 306.512028 
L 402.117043 306.678363 
L 403.024043 306.819948 
L 403.920558 306.94027 
L 404.806826 307.042363 
L 405.68308 307.128856 
L 406.549542 307.202022 
L 407.406431 307.263826 
L 408.253954 307.315956 
L 409.092315 307.359867 
L 409.92171 307.396803 
L 410.742327 307.427832 
L 411.554351 307.453864 
L 412.357961 307.475676 
L 413.153328 307.493929 
L 413.94062 307.509186 
L 414.72 307.521923 
L 415.491625 307.532545 
L 416.255647 307.541391 
L 417.012215 307.548752 
L 417.761473 307.554869 
L 418.503561 307.559947 
L 419.238615 307.564158 
L 419.966767 307.567647 
L 420.688146 307.570535 
L 421.402875 307.572923 
L 422.111078 307.574895 
L 422.812871 307.576522 
L 423.50837 307.577864 
L 424.197687 307.578969 
L 424.88093 307.579878 
L 425.558206 307.580626 
L 426.229619 307.58124 
L 426.895267 307.581744 
L 427.555251 307.582158 
L 428.209665 307.582497 
L 428.858603 307.582774 
L 429.502156 307.583001 
L 430.140411 307.583186 
L 430.773457 307.583338 
L 431.401376 307.583462 
L 432.024252 307.583562 
" style="fill:none;stroke:#ff7f0e;stroke-linecap:square;stroke-width:1.5;"/>
   </g>
   <g id="patch_127">
    <path d="M 57.6 307.584 
L 57.6 41.472 
" style="fill:none;stroke:#000000;stroke-linecap:square;stroke-linejoin:miter;stroke-width:0.8;"/>
   </g>
   <g id="patch_128">
    <path d="M 414.72 307.584 
L 414.72 41.472 
" style="fill:none;stroke:#000000;stroke-linecap:square;stroke-linejoin:miter;stroke-width:0.8;"/>
   </g>
   <g id="patch_129">
    <path d="M 57.6 307.584 
L 414.72 307.584 
" style="fill:none;stroke:#000000;stroke-linecap:square;stroke-linejoin:miter;stroke-width:0.8;"/>
   </g>
   <g id="patch_130">
    <path d="M 57.6 41.472 
L 414.72 41.472 
" style="fill:none;stroke:#000000;stroke-linecap:square;stroke-linejoin:miter;stroke-width:0.8;"/>
   </g>
  </g>
 </g>
 <defs>
  <clipPath id="pb466909544">
   <rect height="266.112" width="357.12" x="57.6" y="41.472"/>
  </clipPath>
 </defs>
</svg>
