<?xml version="1.0" encoding="utf-8" standalone="no"?>
<!DOCTYPE svg PUBLIC "-//W3C//DTD SVG 1.1//EN"
  "http://www.w3.org/Graphics/SVG/1.1/DTD/svg11.dtd">
<svg height="345.6pt" version="1.1" viewBox="0 0 460.8 345.6" width="460.8pt" xmlns="http://www.w3.org/2000/svg" xmlns:xlink="http://www.w3.org/1999/xlink">
 <metadata>
  <rdf:RDF xmlns:cc="http://creativecommons.org/ns#" xmlns:dc="http://purl.org/dc/elements/1.1/" xmlns:rdf="http://www.w3.org/1999/02/22-rdf-syntax-ns#">
   <cc:Work>
    <dc:type rdf:resource="http://purl.org/dc/dcmitype/StillImage"/>
    <dc:date>2021-10-07T16:03:35.024809</dc:date>
    <dc:format>image/svg+xml</dc:format>
    <dc:creator>
     <cc:Agent>
      <dc:title>Matplotlib v3.4.3, https://matplotlib.org/</dc:title>
     </cc:Agent>
    </dc:creator>
   </cc:Work>
  </rdf:RDF>
 </metadata>
 <defs>
  <style type="text/css">*{stroke-linecap:butt;stroke-linejoin:round;}</style>
 </defs>
 <g id="figure_1">
  <g id="patch_1">
   <path d="M 0 345.6 
L 460.8 345.6 
L 460.8 0 
L 0 0 
z
" style="fill:#ffffff;"/>
  </g>
  <g id="axes_1">
   <g id="patch_2">
    <path d="M 57.6 307.584 
L 414.72 307.584 
L 414.72 41.472 
L 57.6 41.472 
z
" style="fill:#ffffff;"/>
   </g>
   <g id="patch_3">
    <path clip-path="url(#p0d862feecc)" d="M -178502.4 307.584 
L 57.6 307.584 
L 57.6 307.58223 
L -178502.4 307.58223 
z
" style="fill:#1f77b4;"/>
   </g>
   <g id="patch_4">
    <path clip-path="url(#p0d862feecc)" d="M 57.6 307.584 
L 111.351916 307.584 
L 111.351916 307.545274 
L 57.6 307.545274 
z
" style="fill:#1f77b4;"/>
   </g>
   <g id="patch_5">
    <path clip-path="url(#p0d862feecc)" d="M 111.351916 307.584 
L 142.794771 307.584 
L 142.794771 307.339915 
L 111.351916 307.339915 
z
" style="fill:#1f77b4;"/>
   </g>
   <g id="patch_6">
    <path clip-path="url(#p0d862feecc)" d="M 142.794771 307.584 
L 165.103832 307.584 
L 165.103832 306.725166 
L 142.794771 306.725166 
z
" style="fill:#1f77b4;"/>
   </g>
   <g id="patch_7">
    <path clip-path="url(#p0d862feecc)" d="M 165.103832 307.584 
L 182.408084 307.584 
L 182.408084 305.433265 
L 165.103832 305.433265 
z
" style="fill:#1f77b4;"/>
   </g>
   <g id="patch_8">
    <path clip-path="url(#p0d862feecc)" d="M 182.408084 307.584 
L 196.546687 307.584 
L 196.546687 302.98976 
L 182.408084 302.98976 
z
" style="fill:#1f77b4;"/>
   </g>
   <g id="patch_9">
    <path clip-path="url(#p0d862feecc)" d="M 196.546687 307.584 
L 208.500706 307.584 
L 208.500706 299.163625 
L 196.546687 299.163625 
z
" style="fill:#1f77b4;"/>
   </g>
   <g id="patch_10">
    <path clip-path="url(#p0d862feecc)" d="M 208.500706 307.584 
L 218.855748 307.584 
L 218.855748 293.214194 
L 208.500706 293.214194 
z
" style="fill:#1f77b4;"/>
   </g>
   <g id="patch_11">
    <path clip-path="url(#p0d862feecc)" d="M 218.855748 307.584 
L 227.989542 307.584 
L 227.989542 285.607287 
L 218.855748 285.607287 
z
" style="fill:#1f77b4;"/>
   </g>
   <g id="patch_12">
    <path clip-path="url(#p0d862feecc)" d="M 227.989542 307.584 
L 236.16 307.584 
L 236.16 275.151912 
L 227.989542 275.151912 
z
" style="fill:#1f77b4;"/>
   </g>
   <g id="patch_13">
    <path clip-path="url(#p0d862feecc)" d="M 236.16 307.584 
L 243.551078 307.584 
L 243.551078 262.801172 
L 236.16 262.801172 
z
" style="fill:#1f77b4;"/>
   </g>
   <g id="patch_14">
    <path clip-path="url(#p0d862feecc)" d="M 243.551078 307.584 
L 250.298603 307.584 
L 250.298603 248.156964 
L 243.551078 248.156964 
z
" style="fill:#1f77b4;"/>
   </g>
   <g id="patch_15">
    <path clip-path="url(#p0d862feecc)" d="M 250.298603 307.584 
L 256.505725 307.584 
L 256.505725 232.832284 
L 250.298603 232.832284 
z
" style="fill:#1f77b4;"/>
   </g>
   <g id="patch_16">
    <path clip-path="url(#p0d862feecc)" d="M 256.505725 307.584 
L 262.252622 307.584 
L 262.252622 215.49252 
L 256.505725 215.49252 
z
" style="fill:#1f77b4;"/>
   </g>
   <g id="patch_17">
    <path clip-path="url(#p0d862feecc)" d="M 262.252622 307.584 
L 267.602855 307.584 
L 267.602855 197.767708 
L 262.252622 197.767708 
z
" style="fill:#1f77b4;"/>
   </g>
   <g id="patch_18">
    <path clip-path="url(#p0d862feecc)" d="M 267.602855 307.584 
L 272.607664 307.584 
L 272.607664 179.722024 
L 267.602855 179.722024 
z
" style="fill:#1f77b4;"/>
   </g>
   <g id="patch_19">
    <path clip-path="url(#p0d862feecc)" d="M 272.607664 307.584 
L 277.308959 307.584 
L 277.308959 161.202332 
L 272.607664 161.202332 
z
" style="fill:#1f77b4;"/>
   </g>
   <g id="patch_20">
    <path clip-path="url(#p0d862feecc)" d="M 277.308959 307.584 
L 281.741459 307.584 
L 281.741459 143.644595 
L 277.308959 143.644595 
z
" style="fill:#1f77b4;"/>
   </g>
   <g id="patch_21">
    <path clip-path="url(#p0d862feecc)" d="M 281.741459 307.584 
L 285.934243 307.584 
L 285.934243 128.290704 
L 281.741459 128.290704 
z
" style="fill:#1f77b4;"/>
   </g>
   <g id="patch_22">
    <path clip-path="url(#p0d862feecc)" d="M 285.934243 307.584 
L 289.911916 307.584 
L 289.911916 113.938159 
L 285.934243 113.938159 
z
" style="fill:#1f77b4;"/>
   </g>
   <g id="patch_23">
    <path clip-path="url(#p0d862feecc)" d="M 289.911916 307.584 
L 293.695477 307.584 
L 293.695477 101.160326 
L 289.911916 101.160326 
z
" style="fill:#1f77b4;"/>
   </g>
   <g id="patch_24">
    <path clip-path="url(#p0d862feecc)" d="M 293.695477 307.584 
L 297.302994 307.584 
L 297.302994 87.860023 
L 293.695477 87.860023 
z
" style="fill:#1f77b4;"/>
   </g>
   <g id="patch_25">
    <path clip-path="url(#p0d862feecc)" d="M 297.302994 307.584 
L 300.750122 307.584 
L 300.750122 78.410862 
L 297.302994 78.410862 
z
" style="fill:#1f77b4;"/>
   </g>
   <g id="patch_26">
    <path clip-path="url(#p0d862feecc)" d="M 300.750122 307.584 
L 304.050519 307.584 
L 304.050519 69.281468 
L 300.750122 69.281468 
z
" style="fill:#1f77b4;"/>
   </g>
   <g id="patch_27">
    <path clip-path="url(#p0d862feecc)" d="M 304.050519 307.584 
L 307.216168 307.584 
L 307.216168 62.955177 
L 304.050519 62.955177 
z
" style="fill:#1f77b4;"/>
   </g>
   <g id="patch_28">
    <path clip-path="url(#p0d862feecc)" d="M 307.216168 307.584 
L 310.257641 307.584 
L 310.257641 59.006445 
L 307.216168 59.006445 
z
" style="fill:#1f77b4;"/>
   </g>
   <g id="patch_29">
    <path clip-path="url(#p0d862feecc)" d="M 310.257641 307.584 
L 313.184314 307.584 
L 313.184314 55.865872 
L 310.257641 55.865872 
z
" style="fill:#1f77b4;"/>
   </g>
   <g id="patch_30">
    <path clip-path="url(#p0d862feecc)" d="M 313.184314 307.584 
L 316.004538 307.584 
L 316.004538 55.122774 
L 313.184314 55.122774 
z
" style="fill:#1f77b4;"/>
   </g>
   <g id="patch_31">
    <path clip-path="url(#p0d862feecc)" d="M 316.004538 307.584 
L 318.725787 307.584 
L 318.725787 54.144 
L 316.004538 54.144 
z
" style="fill:#1f77b4;"/>
   </g>
   <g id="patch_32">
    <path clip-path="url(#p0d862feecc)" d="M 318.725787 307.584 
L 321.354771 307.584 
L 321.354771 57.746188 
L 318.725787 57.746188 
z
" style="fill:#1f77b4;"/>
   </g>
   <g id="patch_33">
    <path clip-path="url(#p0d862feecc)" d="M 321.354771 307.584 
L 323.897544 307.584 
L 323.897544 60.528269 
L 321.354771 60.528269 
z
" style="fill:#1f77b4;"/>
   </g>
   <g id="patch_34">
    <path clip-path="url(#p0d862feecc)" d="M 323.897544 307.584 
L 326.35958 307.584 
L 326.35958 63.916247 
L 323.897544 63.916247 
z
" style="fill:#1f77b4;"/>
   </g>
   <g id="patch_35">
    <path clip-path="url(#p0d862feecc)" d="M 326.35958 307.584 
L 328.745849 307.584 
L 328.745849 68.998657 
L 326.35958 68.998657 
z
" style="fill:#1f77b4;"/>
   </g>
   <g id="patch_36">
    <path clip-path="url(#p0d862feecc)" d="M 328.745849 307.584 
L 331.060875 307.584 
L 331.060875 74.236856 
L 328.745849 74.236856 
z
" style="fill:#1f77b4;"/>
   </g>
   <g id="patch_37">
    <path clip-path="url(#p0d862feecc)" d="M 331.060875 307.584 
L 333.30879 307.584 
L 333.30879 82.229031 
L 331.060875 82.229031 
z
" style="fill:#1f77b4;"/>
   </g>
   <g id="patch_38">
    <path clip-path="url(#p0d862feecc)" d="M 333.30879 307.584 
L 335.493375 307.584 
L 335.493375 89.105454 
L 333.30879 89.105454 
z
" style="fill:#1f77b4;"/>
   </g>
   <g id="patch_39">
    <path clip-path="url(#p0d862feecc)" d="M 335.493375 307.584 
L 337.6181 307.584 
L 337.6181 95.459185 
L 335.493375 95.459185 
z
" style="fill:#1f77b4;"/>
   </g>
   <g id="patch_40">
    <path clip-path="url(#p0d862feecc)" d="M 337.6181 307.584 
L 339.686159 307.584 
L 339.686159 102.42346 
L 337.6181 102.42346 
z
" style="fill:#1f77b4;"/>
   </g>
   <g id="patch_41">
    <path clip-path="url(#p0d862feecc)" d="M 339.686159 307.584 
L 341.700496 307.584 
L 341.700496 110.963554 
L 339.686159 110.963554 
z
" style="fill:#1f77b4;"/>
   </g>
   <g id="patch_42">
    <path clip-path="url(#p0d862feecc)" d="M 341.700496 307.584 
L 343.663832 307.584 
L 343.663832 118.979851 
L 341.700496 118.979851 
z
" style="fill:#1f77b4;"/>
   </g>
   <g id="patch_43">
    <path clip-path="url(#p0d862feecc)" d="M 343.663832 307.584 
L 345.578685 307.584 
L 345.578685 127.801649 
L 343.663832 127.801649 
z
" style="fill:#1f77b4;"/>
   </g>
   <g id="patch_44">
    <path clip-path="url(#p0d862feecc)" d="M 345.578685 307.584 
L 347.447393 307.584 
L 347.447393 135.841624 
L 345.578685 135.841624 
z
" style="fill:#1f77b4;"/>
   </g>
   <g id="patch_45">
    <path clip-path="url(#p0d862feecc)" d="M 347.447393 307.584 
L 349.272127 307.584 
L 349.272127 144.315552 
L 347.447393 144.315552 
z
" style="fill:#1f77b4;"/>
   </g>
   <g id="patch_46">
    <path clip-path="url(#p0d862feecc)" d="M 349.272127 307.584 
L 351.05491 307.584 
L 351.05491 152.149725 
L 349.272127 152.149725 
z
" style="fill:#1f77b4;"/>
   </g>
   <g id="patch_47">
    <path clip-path="url(#p0d862feecc)" d="M 351.05491 307.584 
L 352.797626 307.584 
L 352.797626 159.99275 
L 351.05491 159.99275 
z
" style="fill:#1f77b4;"/>
   </g>
   <g id="patch_48">
    <path clip-path="url(#p0d862feecc)" d="M 352.797626 307.584 
L 354.502038 307.584 
L 354.502038 167.532384 
L 352.797626 167.532384 
z
" style="fill:#1f77b4;"/>
   </g>
   <g id="patch_49">
    <path clip-path="url(#p0d862feecc)" d="M 354.502038 307.584 
L 356.169794 307.584 
L 356.169794 176.22517 
L 354.502038 176.22517 
z
" style="fill:#1f77b4;"/>
   </g>
   <g id="patch_50">
    <path clip-path="url(#p0d862feecc)" d="M 356.169794 307.584 
L 357.802435 307.584 
L 357.802435 183.017944 
L 356.169794 183.017944 
z
" style="fill:#1f77b4;"/>
   </g>
   <g id="patch_51">
    <path clip-path="url(#p0d862feecc)" d="M 357.802435 307.584 
L 359.401412 307.584 
L 359.401412 189.61067 
L 357.802435 189.61067 
z
" style="fill:#1f77b4;"/>
   </g>
   <g id="patch_52">
    <path clip-path="url(#p0d862feecc)" d="M 359.401412 307.584 
L 360.968084 307.584 
L 360.968084 196.642439 
L 359.401412 196.642439 
z
" style="fill:#1f77b4;"/>
   </g>
   <g id="patch_53">
    <path clip-path="url(#p0d862feecc)" d="M 360.968084 307.584 
L 362.503731 307.584 
L 362.503731 203.1108 
L 360.968084 203.1108 
z
" style="fill:#1f77b4;"/>
   </g>
   <g id="patch_54">
    <path clip-path="url(#p0d862feecc)" d="M 362.503731 307.584 
L 364.009557 307.584 
L 364.009557 209.3634 
L 362.503731 209.3634 
z
" style="fill:#1f77b4;"/>
   </g>
   <g id="patch_55">
    <path clip-path="url(#p0d862feecc)" d="M 364.009557 307.584 
L 365.486699 307.584 
L 365.486699 214.635457 
L 364.009557 214.635457 
z
" style="fill:#1f77b4;"/>
   </g>
   <g id="patch_56">
    <path clip-path="url(#p0d862feecc)" d="M 365.486699 307.584 
L 366.93623 307.584 
L 366.93623 220.593297 
L 365.486699 220.593297 
z
" style="fill:#1f77b4;"/>
   </g>
   <g id="patch_57">
    <path clip-path="url(#p0d862feecc)" d="M 366.93623 307.584 
L 368.359162 307.584 
L 368.359162 226.240664 
L 366.93623 226.240664 
z
" style="fill:#1f77b4;"/>
   </g>
   <g id="patch_58">
    <path clip-path="url(#p0d862feecc)" d="M 368.359162 307.584 
L 369.756454 307.584 
L 369.756454 231.204019 
L 368.359162 231.204019 
z
" style="fill:#1f77b4;"/>
   </g>
   <g id="patch_59">
    <path clip-path="url(#p0d862feecc)" d="M 369.756454 307.584 
L 371.129014 307.584 
L 371.129014 235.863097 
L 369.756454 235.863097 
z
" style="fill:#1f77b4;"/>
   </g>
   <g id="patch_60">
    <path clip-path="url(#p0d862feecc)" d="M 371.129014 307.584 
L 372.477703 307.584 
L 372.477703 240.99928 
L 371.129014 240.99928 
z
" style="fill:#1f77b4;"/>
   </g>
   <g id="patch_61">
    <path clip-path="url(#p0d862feecc)" d="M 372.477703 307.584 
L 373.803335 307.584 
L 373.803335 244.888484 
L 372.477703 244.888484 
z
" style="fill:#1f77b4;"/>
   </g>
   <g id="patch_62">
    <path clip-path="url(#p0d862feecc)" d="M 373.803335 307.584 
L 375.106687 307.584 
L 375.106687 249.619482 
L 373.803335 249.619482 
z
" style="fill:#1f77b4;"/>
   </g>
   <g id="patch_63">
    <path clip-path="url(#p0d862feecc)" d="M 375.106687 307.584 
L 376.388495 307.584 
L 376.388495 253.33807 
L 375.106687 253.33807 
z
" style="fill:#1f77b4;"/>
   </g>
   <g id="patch_64">
    <path clip-path="url(#p0d862feecc)" d="M 376.388495 307.584 
L 377.64946 307.584 
L 377.64946 257.169517 
L 376.388495 257.169517 
z
" style="fill:#1f77b4;"/>
   </g>
   <g id="patch_65">
    <path clip-path="url(#p0d862feecc)" d="M 377.64946 307.584 
L 378.890249 307.584 
L 378.890249 260.721029 
L 377.64946 260.721029 
z
" style="fill:#1f77b4;"/>
   </g>
   <g id="patch_66">
    <path clip-path="url(#p0d862feecc)" d="M 378.890249 307.584 
L 380.111496 307.584 
L 380.111496 263.841687 
L 378.890249 263.841687 
z
" style="fill:#1f77b4;"/>
   </g>
   <g id="patch_67">
    <path clip-path="url(#p0d862feecc)" d="M 380.111496 307.584 
L 381.313809 307.584 
L 381.313809 266.650765 
L 380.111496 266.650765 
z
" style="fill:#1f77b4;"/>
   </g>
   <g id="patch_68">
    <path clip-path="url(#p0d862feecc)" d="M 381.313809 307.584 
L 382.497765 307.584 
L 382.497765 269.656793 
L 381.313809 269.656793 
z
" style="fill:#1f77b4;"/>
   </g>
   <g id="patch_69">
    <path clip-path="url(#p0d862feecc)" d="M 382.497765 307.584 
L 383.663917 307.584 
L 383.663917 272.07153 
L 382.497765 272.07153 
z
" style="fill:#1f77b4;"/>
   </g>
   <g id="patch_70">
    <path clip-path="url(#p0d862feecc)" d="M 383.663917 307.584 
L 384.812791 307.584 
L 384.812791 274.35836 
L 383.663917 274.35836 
z
" style="fill:#1f77b4;"/>
   </g>
   <g id="patch_71">
    <path clip-path="url(#p0d862feecc)" d="M 384.812791 307.584 
L 385.944894 307.584 
L 385.944894 276.882414 
L 384.812791 276.882414 
z
" style="fill:#1f77b4;"/>
   </g>
   <g id="patch_72">
    <path clip-path="url(#p0d862feecc)" d="M 385.944894 307.584 
L 387.060706 307.584 
L 387.060706 279.28852 
L 385.944894 279.28852 
z
" style="fill:#1f77b4;"/>
   </g>
   <g id="patch_73">
    <path clip-path="url(#p0d862feecc)" d="M 387.060706 307.584 
L 388.160691 307.584 
L 388.160691 280.722713 
L 387.060706 280.722713 
z
" style="fill:#1f77b4;"/>
   </g>
   <g id="patch_74">
    <path clip-path="url(#p0d862feecc)" d="M 388.160691 307.584 
L 389.245291 307.584 
L 389.245291 282.920583 
L 388.160691 282.920583 
z
" style="fill:#1f77b4;"/>
   </g>
   <g id="patch_75">
    <path clip-path="url(#p0d862feecc)" d="M 389.245291 307.584 
L 390.31493 307.584 
L 390.31493 284.845158 
L 389.245291 284.845158 
z
" style="fill:#1f77b4;"/>
   </g>
   <g id="patch_76">
    <path clip-path="url(#p0d862feecc)" d="M 390.31493 307.584 
L 391.370016 307.584 
L 391.370016 286.51569 
L 390.31493 286.51569 
z
" style="fill:#1f77b4;"/>
   </g>
   <g id="patch_77">
    <path clip-path="url(#p0d862feecc)" d="M 391.370016 307.584 
L 392.410939 307.584 
L 392.410939 288.139751 
L 391.370016 288.139751 
z
" style="fill:#1f77b4;"/>
   </g>
   <g id="patch_78">
    <path clip-path="url(#p0d862feecc)" d="M 392.410939 307.584 
L 393.438075 307.584 
L 393.438075 289.283387 
L 392.410939 289.283387 
z
" style="fill:#1f77b4;"/>
   </g>
   <g id="patch_79">
    <path clip-path="url(#p0d862feecc)" d="M 393.438075 307.584 
L 394.451784 307.584 
L 394.451784 290.718243 
L 393.438075 290.718243 
z
" style="fill:#1f77b4;"/>
   </g>
   <g id="patch_80">
    <path clip-path="url(#p0d862feecc)" d="M 394.451784 307.584 
L 395.452412 307.584 
L 395.452412 291.848823 
L 394.451784 291.848823 
z
" style="fill:#1f77b4;"/>
   </g>
   <g id="patch_81">
    <path clip-path="url(#p0d862feecc)" d="M 395.452412 307.584 
L 396.440293 307.584 
L 396.440293 293.176795 
L 395.452412 293.176795 
z
" style="fill:#1f77b4;"/>
   </g>
   <g id="patch_82">
    <path clip-path="url(#p0d862feecc)" d="M 396.440293 307.584 
L 397.415748 307.584 
L 397.415748 294.105779 
L 396.440293 294.105779 
z
" style="fill:#1f77b4;"/>
   </g>
   <g id="patch_83">
    <path clip-path="url(#p0d862feecc)" d="M 397.415748 307.584 
L 398.379085 307.584 
L 398.379085 295.219319 
L 397.415748 295.219319 
z
" style="fill:#1f77b4;"/>
   </g>
   <g id="patch_84">
    <path clip-path="url(#p0d862feecc)" d="M 398.379085 307.584 
L 399.330601 307.584 
L 399.330601 296.052925 
L 398.379085 296.052925 
z
" style="fill:#1f77b4;"/>
   </g>
   <g id="patch_85">
    <path clip-path="url(#p0d862feecc)" d="M 399.330601 307.584 
L 400.270584 307.584 
L 400.270584 297.068434 
L 399.330601 297.068434 
z
" style="fill:#1f77b4;"/>
   </g>
   <g id="patch_86">
    <path clip-path="url(#p0d862feecc)" d="M 400.270584 307.584 
L 401.199309 307.584 
L 401.199309 297.930365 
L 400.270584 297.930365 
z
" style="fill:#1f77b4;"/>
   </g>
   <g id="patch_87">
    <path clip-path="url(#p0d862feecc)" d="M 401.199309 307.584 
L 402.117043 307.584 
L 402.117043 298.6146 
L 401.199309 298.6146 
z
" style="fill:#1f77b4;"/>
   </g>
   <g id="patch_88">
    <path clip-path="url(#p0d862feecc)" d="M 402.117043 307.584 
L 403.024043 307.584 
L 403.024043 299.218062 
L 402.117043 299.218062 
z
" style="fill:#1f77b4;"/>
   </g>
   <g id="patch_89">
    <path clip-path="url(#p0d862feecc)" d="M 403.024043 307.584 
L 403.920558 307.584 
L 403.920558 299.817542 
L 403.024043 299.817542 
z
" style="fill:#1f77b4;"/>
   </g>
   <g id="patch_90">
    <path clip-path="url(#p0d862feecc)" d="M 403.920558 307.584 
L 404.806826 307.584 
L 404.806826 300.421447 
L 403.920558 300.421447 
z
" style="fill:#1f77b4;"/>
   </g>
   <g id="patch_91">
    <path clip-path="url(#p0d862feecc)" d="M 404.806826 307.584 
L 405.68308 307.584 
L 405.68308 300.873325 
L 404.806826 300.873325 
z
" style="fill:#1f77b4;"/>
   </g>
   <g id="patch_92">
    <path clip-path="url(#p0d862feecc)" d="M 405.68308 307.584 
L 406.549542 307.584 
L 406.549542 301.487189 
L 405.68308 301.487189 
z
" style="fill:#1f77b4;"/>
   </g>
   <g id="patch_93">
    <path clip-path="url(#p0d862feecc)" d="M 406.549542 307.584 
L 407.406431 307.584 
L 407.406431 301.912733 
L 406.549542 301.912733 
z
" style="fill:#1f77b4;"/>
   </g>
   <g id="patch_94">
    <path clip-path="url(#p0d862feecc)" d="M 407.406431 307.584 
L 408.253954 307.584 
L 408.253954 302.398469 
L 407.406431 302.398469 
z
" style="fill:#1f77b4;"/>
   </g>
   <g id="patch_95">
    <path clip-path="url(#p0d862feecc)" d="M 408.253954 307.584 
L 409.092315 307.584 
L 409.092315 302.709605 
L 408.253954 302.709605 
z
" style="fill:#1f77b4;"/>
   </g>
   <g id="patch_96">
    <path clip-path="url(#p0d862feecc)" d="M 409.092315 307.584 
L 409.92171 307.584 
L 409.92171 303.11125 
L 409.092315 303.11125 
z
" style="fill:#1f77b4;"/>
   </g>
   <g id="patch_97">
    <path clip-path="url(#p0d862feecc)" d="M 409.92171 307.584 
L 410.742327 307.584 
L 410.742327 303.496961 
L 409.92171 303.496961 
z
" style="fill:#1f77b4;"/>
   </g>
   <g id="patch_98">
    <path clip-path="url(#p0d862feecc)" d="M 410.742327 307.584 
L 411.554351 307.584 
L 411.554351 303.700771 
L 410.742327 303.700771 
z
" style="fill:#1f77b4;"/>
   </g>
   <g id="patch_99">
    <path clip-path="url(#p0d862feecc)" d="M 411.554351 307.584 
L 412.357961 307.584 
L 412.357961 304.021423 
L 411.554351 304.021423 
z
" style="fill:#1f77b4;"/>
   </g>
   <g id="patch_100">
    <path clip-path="url(#p0d862feecc)" d="M 412.357961 307.584 
L 413.153328 307.584 
L 413.153328 304.310873 
L 412.357961 304.310873 
z
" style="fill:#1f77b4;"/>
   </g>
   <g id="patch_101">
    <path clip-path="url(#p0d862feecc)" d="M 413.153328 307.584 
L 413.94062 307.584 
L 413.94062 304.581512 
L 413.153328 304.581512 
z
" style="fill:#1f77b4;"/>
   </g>
   <g id="patch_102">
    <path clip-path="url(#p0d862feecc)" d="M 413.94062 307.584 
L 414.72 307.584 
L 414.72 304.764078 
L 413.94062 304.764078 
z
" style="fill:#1f77b4;"/>
   </g>
   <g id="patch_103">
    <path clip-path="url(#p0d862feecc)" d="M 414.72 307.584 
L 415.491625 307.584 
L 415.491625 305.016793 
L 414.72 305.016793 
z
" style="fill:#1f77b4;"/>
   </g>
   <g id="patch_104">
    <path clip-path="url(#p0d862feecc)" d="M 415.491625 307.584 
L 416.255647 307.584 
L 416.255647 305.225472 
L 415.491625 305.225472 
z
" style="fill:#1f77b4;"/>
   </g>
   <g id="patch_105">
    <path clip-path="url(#p0d862feecc)" d="M 416.255647 307.584 
L 417.012215 307.584 
L 417.012215 305.398522 
L 416.255647 305.398522 
z
" style="fill:#1f77b4;"/>
   </g>
   <g id="patch_106">
    <path clip-path="url(#p0d862feecc)" d="M 417.012215 307.584 
L 417.761473 307.584 
L 417.761473 305.541476 
L 417.012215 305.541476 
z
" style="fill:#1f77b4;"/>
   </g>
   <g id="patch_107">
    <path clip-path="url(#p0d862feecc)" d="M 417.761473 307.584 
L 418.503561 307.584 
L 418.503561 305.748606 
L 417.761473 305.748606 
z
" style="fill:#1f77b4;"/>
   </g>
   <g id="patch_108">
    <path clip-path="url(#p0d862feecc)" d="M 418.503561 307.584 
L 419.238615 307.584 
L 419.238615 305.844425 
L 418.503561 305.844425 
z
" style="fill:#1f77b4;"/>
   </g>
   <g id="patch_109">
    <path clip-path="url(#p0d862feecc)" d="M 419.238615 307.584 
L 419.966767 307.584 
L 419.966767 306.00287 
L 419.238615 306.00287 
z
" style="fill:#1f77b4;"/>
   </g>
   <g id="patch_110">
    <path clip-path="url(#p0d862feecc)" d="M 419.966767 307.584 
L 420.688146 307.584 
L 420.688146 306.096255 
L 419.966767 306.096255 
z
" style="fill:#1f77b4;"/>
   </g>
   <g id="patch_111">
    <path clip-path="url(#p0d862feecc)" d="M 420.688146 307.584 
L 421.402875 307.584 
L 421.402875 306.198271 
L 420.688146 306.198271 
z
" style="fill:#1f77b4;"/>
   </g>
   <g id="patch_112">
    <path clip-path="url(#p0d862feecc)" d="M 421.402875 307.584 
L 422.111078 307.584 
L 422.111078 306.30095 
L 421.402875 306.30095 
z
" style="fill:#1f77b4;"/>
   </g>
   <g id="patch_113">
    <path clip-path="url(#p0d862feecc)" d="M 422.111078 307.584 
L 422.812871 307.584 
L 422.812871 306.358265 
L 422.111078 306.358265 
z
" style="fill:#1f77b4;"/>
   </g>
   <g id="patch_114">
    <path clip-path="url(#p0d862feecc)" d="M 422.812871 307.584 
L 423.50837 307.584 
L 423.50837 306.548133 
L 422.812871 306.548133 
z
" style="fill:#1f77b4;"/>
   </g>
   <g id="patch_115">
    <path clip-path="url(#p0d862feecc)" d="M 423.50837 307.584 
L 424.197687 307.584 
L 424.197687 306.568049 
L 423.50837 306.568049 
z
" style="fill:#1f77b4;"/>
   </g>
   <g id="patch_116">
    <path clip-path="url(#p0d862feecc)" d="M 424.197687 307.584 
L 424.88093 307.584 
L 424.88093 306.614078 
L 424.197687 306.614078 
z
" style="fill:#1f77b4;"/>
   </g>
   <g id="patch_117">
    <path clip-path="url(#p0d862feecc)" d="M 424.88093 307.584 
L 425.558206 307.584 
L 425.558206 306.715208 
L 424.88093 306.715208 
z
" style="fill:#1f77b4;"/>
   </g>
   <g id="patch_118">
    <path clip-path="url(#p0d862feecc)" d="M 425.558206 307.584 
L 426.229619 307.584 
L 426.229619 306.764556 
L 425.558206 306.764556 
z
" style="fill:#1f77b4;"/>
   </g>
   <g id="patch_119">
    <path clip-path="url(#p0d862feecc)" d="M 426.229619 307.584 
L 426.895267 307.584 
L 426.895267 306.84909 
L 426.229619 306.84909 
z
" style="fill:#1f77b4;"/>
   </g>
   <g id="patch_120">
    <path clip-path="url(#p0d862feecc)" d="M 426.895267 307.584 
L 427.555251 307.584 
L 427.555251 306.897331 
L 426.895267 306.897331 
z
" style="fill:#1f77b4;"/>
   </g>
   <g id="patch_121">
    <path clip-path="url(#p0d862feecc)" d="M 427.555251 307.584 
L 428.209665 307.584 
L 428.209665 306.92101 
L 427.555251 306.92101 
z
" style="fill:#1f77b4;"/>
   </g>
   <g id="patch_122">
    <path clip-path="url(#p0d862feecc)" d="M 428.209665 307.584 
L 428.858603 307.584 
L 428.858603 307.019485 
L 428.209665 307.019485 
z
" style="fill:#1f77b4;"/>
   </g>
   <g id="patch_123">
    <path clip-path="url(#p0d862feecc)" d="M 428.858603 307.584 
L 429.502156 307.584 
L 429.502156 307.07016 
L 428.858603 307.07016 
z
" style="fill:#1f77b4;"/>
   </g>
   <g id="patch_124">
    <path clip-path="url(#p0d862feecc)" d="M 429.502156 307.584 
L 430.140411 307.584 
L 430.140411 307.089855 
L 429.502156 307.089855 
z
" style="fill:#1f77b4;"/>
   </g>
   <g id="patch_125">
    <path clip-path="url(#p0d862feecc)" d="M 430.140411 307.584 
L 430.773457 307.584 
L 430.773457 307.127032 
L 430.140411 307.127032 
z
" style="fill:#1f77b4;"/>
   </g>
   <g id="patch_126">
    <path clip-path="url(#p0d862feecc)" d="M 430.773457 307.584 
L 431.401376 307.584 
L 431.401376 307.15912 
L 430.773457 307.15912 
z
" style="fill:#1f77b4;"/>
   </g>
   <g id="patch_127">
    <path clip-path="url(#p0d862feecc)" d="M 431.401376 307.584 
L 432.024252 307.584 
L 432.024252 307.205148 
L 431.401376 307.205148 
z
" style="fill:#1f77b4;"/>
   </g>
   <g id="patch_128">
    <path clip-path="url(#p0d862feecc)" d="M 432.024252 307.584 
L 432.642165 307.584 
L 432.642165 307.21909 
L 432.024252 307.21909 
z
" style="fill:#1f77b4;"/>
   </g>
   <g id="patch_129">
    <path clip-path="url(#p0d862feecc)" d="M 432.642165 307.584 
L 433.255192 307.584 
L 433.255192 307.259586 
L 432.642165 307.259586 
z
" style="fill:#1f77b4;"/>
   </g>
   <g id="patch_130">
    <path clip-path="url(#p0d862feecc)" d="M 433.255192 307.584 
L 433.863412 307.584 
L 433.863412 307.315794 
L 433.255192 307.315794 
z
" style="fill:#1f77b4;"/>
   </g>
   <g id="patch_131">
    <path clip-path="url(#p0d862feecc)" d="M 433.863412 307.584 
L 434.466899 307.584 
L 434.466899 307.328408 
L 433.863412 307.328408 
z
" style="fill:#1f77b4;"/>
   </g>
   <g id="patch_132">
    <path clip-path="url(#p0d862feecc)" d="M 434.466899 307.584 
L 435.065725 307.584 
L 435.065725 307.337481 
L 434.466899 307.337481 
z
" style="fill:#1f77b4;"/>
   </g>
   <g id="patch_133">
    <path clip-path="url(#p0d862feecc)" d="M 435.065725 307.584 
L 435.659963 307.584 
L 435.659963 307.363372 
L 435.065725 307.363372 
z
" style="fill:#1f77b4;"/>
   </g>
   <g id="patch_134">
    <path clip-path="url(#p0d862feecc)" d="M 435.659963 307.584 
L 436.249681 307.584 
L 436.249681 307.358504 
L 435.659963 307.358504 
z
" style="fill:#1f77b4;"/>
   </g>
   <g id="patch_135">
    <path clip-path="url(#p0d862feecc)" d="M 436.249681 307.584 
L 436.834949 307.584 
L 436.834949 307.392361 
L 436.249681 307.392361 
z
" style="fill:#1f77b4;"/>
   </g>
   <g id="patch_136">
    <path clip-path="url(#p0d862feecc)" d="M 436.834949 307.584 
L 437.415833 307.584 
L 437.415833 307.412941 
L 436.834949 307.412941 
z
" style="fill:#1f77b4;"/>
   </g>
   <g id="patch_137">
    <path clip-path="url(#p0d862feecc)" d="M 437.415833 307.584 
L 437.992398 307.584 
L 437.992398 307.411614 
L 437.415833 307.411614 
z
" style="fill:#1f77b4;"/>
   </g>
   <g id="patch_138">
    <path clip-path="url(#p0d862feecc)" d="M 437.992398 307.584 
L 438.564707 307.584 
L 438.564707 307.421129 
L 437.992398 307.421129 
z
" style="fill:#1f77b4;"/>
   </g>
   <g id="patch_139">
    <path clip-path="url(#p0d862feecc)" d="M 438.564707 307.584 
L 439.132824 307.584 
L 439.132824 307.448569 
L 438.564707 307.448569 
z
" style="fill:#1f77b4;"/>
   </g>
   <g id="patch_140">
    <path clip-path="url(#p0d862feecc)" d="M 439.132824 307.584 
L 439.69681 307.584 
L 439.69681 307.448348 
L 439.132824 307.448348 
z
" style="fill:#1f77b4;"/>
   </g>
   <g id="patch_141">
    <path clip-path="url(#p0d862feecc)" d="M 439.69681 307.584 
L 440.256723 307.584 
L 440.256723 307.478223 
L 439.69681 307.478223 
z
" style="fill:#1f77b4;"/>
   </g>
   <g id="patch_142">
    <path clip-path="url(#p0d862feecc)" d="M 440.256723 307.584 
L 440.812622 307.584 
L 440.812622 307.467158 
L 440.256723 307.467158 
z
" style="fill:#1f77b4;"/>
   </g>
   <g id="patch_143">
    <path clip-path="url(#p0d862feecc)" d="M 440.812622 307.584 
L 441.364565 307.584 
L 441.364565 307.472912 
L 440.812622 307.472912 
z
" style="fill:#1f77b4;"/>
   </g>
   <g id="patch_144">
    <path clip-path="url(#p0d862feecc)" d="M 441.364565 307.584 
L 441.912607 307.584 
L 441.912607 307.499467 
L 441.364565 307.499467 
z
" style="fill:#1f77b4;"/>
   </g>
   <g id="patch_145">
    <path clip-path="url(#p0d862feecc)" d="M 441.912607 307.584 
L 442.456803 307.584 
L 442.456803 307.490172 
L 441.912607 307.490172 
z
" style="fill:#1f77b4;"/>
   </g>
   <g id="patch_146">
    <path clip-path="url(#p0d862feecc)" d="M 442.456803 307.584 
L 442.997207 307.584 
L 442.997207 307.507876 
L 442.456803 307.507876 
z
" style="fill:#1f77b4;"/>
   </g>
   <g id="patch_147">
    <path clip-path="url(#p0d862feecc)" d="M 442.997207 307.584 
L 443.53387 307.584 
L 443.53387 307.514957 
L 442.997207 307.514957 
z
" style="fill:#1f77b4;"/>
   </g>
   <g id="patch_148">
    <path clip-path="url(#p0d862feecc)" d="M 443.53387 307.584 
L 444.066846 307.584 
L 444.066846 307.522702 
L 443.53387 307.522702 
z
" style="fill:#1f77b4;"/>
   </g>
   <g id="patch_149">
    <path clip-path="url(#p0d862feecc)" d="M 444.066846 307.584 
L 444.596183 307.584 
L 444.596183 307.520268 
L 444.066846 307.520268 
z
" style="fill:#1f77b4;"/>
   </g>
   <g id="patch_150">
    <path clip-path="url(#p0d862feecc)" d="M 444.596183 307.584 
L 445.121932 307.584 
L 445.121932 307.521817 
L 444.596183 307.521817 
z
" style="fill:#1f77b4;"/>
   </g>
   <g id="patch_151">
    <path clip-path="url(#p0d862feecc)" d="M 445.121932 307.584 
L 445.64414 307.584 
L 445.64414 307.52226 
L 445.121932 307.52226 
z
" style="fill:#1f77b4;"/>
   </g>
   <g id="patch_152">
    <path clip-path="url(#p0d862feecc)" d="M 445.64414 307.584 
L 446.162855 307.584 
L 446.162855 307.535095 
L 445.64414 307.535095 
z
" style="fill:#1f77b4;"/>
   </g>
   <g id="patch_153">
    <path clip-path="url(#p0d862feecc)" d="M 446.162855 307.584 
L 446.678124 307.584 
L 446.678124 307.534652 
L 446.162855 307.534652 
z
" style="fill:#1f77b4;"/>
   </g>
   <g id="patch_154">
    <path clip-path="url(#p0d862feecc)" d="M 446.678124 307.584 
L 447.189991 307.584 
L 447.189991 307.534431 
L 446.678124 307.534431 
z
" style="fill:#1f77b4;"/>
   </g>
   <g id="patch_155">
    <path clip-path="url(#p0d862feecc)" d="M 447.189991 307.584 
L 447.698502 307.584 
L 447.698502 307.53266 
L 447.189991 307.53266 
z
" style="fill:#1f77b4;"/>
   </g>
   <g id="patch_156">
    <path clip-path="url(#p0d862feecc)" d="M 447.698502 307.584 
L 448.2037 307.584 
L 448.2037 307.545717 
L 447.698502 307.545717 
z
" style="fill:#1f77b4;"/>
   </g>
   <g id="patch_157">
    <path clip-path="url(#p0d862feecc)" d="M 448.2037 307.584 
L 448.705628 307.584 
L 448.705628 307.551028 
L 448.2037 307.551028 
z
" style="fill:#1f77b4;"/>
   </g>
   <g id="patch_158">
    <path clip-path="url(#p0d862feecc)" d="M 448.705628 307.584 
L 449.204328 307.584 
L 449.204328 307.55147 
L 448.705628 307.55147 
z
" style="fill:#1f77b4;"/>
   </g>
   <g id="patch_159">
    <path clip-path="url(#p0d862feecc)" d="M 449.204328 307.584 
L 449.699842 307.584 
L 449.699842 307.551691 
L 449.204328 307.551691 
z
" style="fill:#1f77b4;"/>
   </g>
   <g id="patch_160">
    <path clip-path="url(#p0d862feecc)" d="M 449.699842 307.584 
L 450.192209 307.584 
L 450.192209 307.553019 
L 449.699842 307.553019 
z
" style="fill:#1f77b4;"/>
   </g>
   <g id="patch_161">
    <path clip-path="url(#p0d862feecc)" d="M 450.192209 307.584 
L 450.681471 307.584 
L 450.681471 307.55656 
L 450.192209 307.55656 
z
" style="fill:#1f77b4;"/>
   </g>
   <g id="patch_162">
    <path clip-path="url(#p0d862feecc)" d="M 450.681471 307.584 
L 451.167664 307.584 
L 451.167664 307.552798 
L 450.681471 307.552798 
z
" style="fill:#1f77b4;"/>
   </g>
   <g id="patch_163">
    <path clip-path="url(#p0d862feecc)" d="M 451.167664 307.584 
L 451.650828 307.584 
L 451.650828 307.558994 
L 451.167664 307.558994 
z
" style="fill:#1f77b4;"/>
   </g>
   <g id="patch_164">
    <path clip-path="url(#p0d862feecc)" d="M 451.650828 307.584 
L 452.131001 307.584 
L 452.131001 307.560986 
L 451.650828 307.560986 
z
" style="fill:#1f77b4;"/>
   </g>
   <g id="patch_165">
    <path clip-path="url(#p0d862feecc)" d="M 452.131001 307.584 
L 452.608219 307.584 
L 452.608219 307.568952 
L 452.131001 307.568952 
z
" style="fill:#1f77b4;"/>
   </g>
   <g id="patch_166">
    <path clip-path="url(#p0d862feecc)" d="M 452.608219 307.584 
L 453.082518 307.584 
L 453.082518 307.566075 
L 452.608219 307.566075 
z
" style="fill:#1f77b4;"/>
   </g>
   <g id="patch_167">
    <path clip-path="url(#p0d862feecc)" d="M 453.082518 307.584 
L 453.553933 307.584 
L 453.553933 307.566961 
L 453.082518 307.566961 
z
" style="fill:#1f77b4;"/>
   </g>
   <g id="patch_168">
    <path clip-path="url(#p0d862feecc)" d="M 453.553933 307.584 
L 454.0225 307.584 
L 454.0225 307.567403 
L 453.553933 307.567403 
z
" style="fill:#1f77b4;"/>
   </g>
   <g id="patch_169">
    <path clip-path="url(#p0d862feecc)" d="M 454.0225 307.584 
L 454.488253 307.584 
L 454.488253 307.568952 
L 454.0225 307.568952 
z
" style="fill:#1f77b4;"/>
   </g>
   <g id="patch_170">
    <path clip-path="url(#p0d862feecc)" d="M 454.488253 307.584 
L 454.951225 307.584 
L 454.951225 307.573378 
L 454.488253 307.573378 
z
" style="fill:#1f77b4;"/>
   </g>
   <g id="patch_171">
    <path clip-path="url(#p0d862feecc)" d="M 454.951225 307.584 
L 455.41145 307.584 
L 455.41145 307.573378 
L 454.951225 307.573378 
z
" style="fill:#1f77b4;"/>
   </g>
   <g id="patch_172">
    <path clip-path="url(#p0d862feecc)" d="M 455.41145 307.584 
L 455.868959 307.584 
L 455.868959 307.569837 
L 455.41145 307.569837 
z
" style="fill:#1f77b4;"/>
   </g>
   <g id="patch_173">
    <path clip-path="url(#p0d862feecc)" d="M 455.868959 307.584 
L 456.323785 307.584 
L 456.323785 307.573157 
L 455.868959 307.573157 
z
" style="fill:#1f77b4;"/>
   </g>
   <g id="patch_174">
    <path clip-path="url(#p0d862feecc)" d="M 456.323785 307.584 
L 456.775959 307.584 
L 456.775959 307.573378 
L 456.323785 307.573378 
z
" style="fill:#1f77b4;"/>
   </g>
   <g id="patch_175">
    <path clip-path="url(#p0d862feecc)" d="M 456.775959 307.584 
L 457.225512 307.584 
L 457.225512 307.575148 
L 456.775959 307.575148 
z
" style="fill:#1f77b4;"/>
   </g>
   <g id="patch_176">
    <path clip-path="url(#p0d862feecc)" d="M 457.225512 307.584 
L 457.672474 307.584 
L 457.672474 307.576033 
L 457.225512 307.576033 
z
" style="fill:#1f77b4;"/>
   </g>
   <g id="patch_177">
    <path clip-path="url(#p0d862feecc)" d="M 457.672474 307.584 
L 458.116874 307.584 
L 458.116874 307.57891 
L 457.672474 307.57891 
z
" style="fill:#1f77b4;"/>
   </g>
   <g id="patch_178">
    <path clip-path="url(#p0d862feecc)" d="M 458.116874 307.584 
L 458.558742 307.584 
L 458.558742 307.577361 
L 458.116874 307.577361 
z
" style="fill:#1f77b4;"/>
   </g>
   <g id="patch_179">
    <path clip-path="url(#p0d862feecc)" d="M 458.558742 307.584 
L 458.998106 307.584 
L 458.998106 307.578689 
L 458.558742 307.578689 
z
" style="fill:#1f77b4;"/>
   </g>
   <g id="patch_180">
    <path clip-path="url(#p0d862feecc)" d="M 458.998106 307.584 
L 459.434996 307.584 
L 459.434996 307.57891 
L 458.998106 307.57891 
z
" style="fill:#1f77b4;"/>
   </g>
   <g id="patch_181">
    <path clip-path="url(#p0d862feecc)" d="M 459.434996 307.584 
L 459.869437 307.584 
L 459.869437 307.580238 
L 459.434996 307.580238 
z
" style="fill:#1f77b4;"/>
   </g>
   <g id="patch_182">
    <path clip-path="url(#p0d862feecc)" d="M 459.869437 307.584 
L 460.301459 307.584 
L 460.301459 307.57714 
L 459.869437 307.57714 
z
" style="fill:#1f77b4;"/>
   </g>
   <g id="patch_183">
    <path clip-path="url(#p0d862feecc)" d="M 460.301459 307.584 
L 460.731086 307.584 
L 460.731086 307.579795 
L 460.301459 307.579795 
z
" style="fill:#1f77b4;"/>
   </g>
   <g id="patch_184">
    <path clip-path="url(#p0d862feecc)" d="M 460.731086 307.584 
L 461.158347 307.584 
L 461.158347 307.580017 
L 460.731086 307.580017 
z
" style="fill:#1f77b4;"/>
   </g>
   <g id="patch_185">
    <path clip-path="url(#p0d862feecc)" d="M 461.158347 307.584 
L 461.583267 307.584 
L 461.583267 307.580459 
L 461.158347 307.580459 
z
" style="fill:#1f77b4;"/>
   </g>
   <g id="patch_186">
    <path clip-path="url(#p0d862feecc)" d="M 461.583267 307.584 
L 462.00587 307.584 
L 462.00587 307.582451 
L 461.583267 307.582451 
z
" style="fill:#1f77b4;"/>
   </g>
   <g id="patch_187">
    <path clip-path="url(#p0d862feecc)" d="M 462.00587 307.584 
L 462.426184 307.584 
L 462.426184 307.582008 
L 462.00587 307.582008 
z
" style="fill:#1f77b4;"/>
   </g>
   <g id="patch_188">
    <path clip-path="url(#p0d862feecc)" d="M 462.426184 307.584 
L 462.844231 307.584 
L 462.844231 307.58223 
L 462.426184 307.58223 
z
" style="fill:#1f77b4;"/>
   </g>
   <g id="patch_189">
    <path clip-path="url(#p0d862feecc)" d="M 462.844231 307.584 
L 463.260037 307.584 
L 463.260037 307.580459 
L 462.844231 307.580459 
z
" style="fill:#1f77b4;"/>
   </g>
   <g id="patch_190">
    <path clip-path="url(#p0d862feecc)" d="M 463.260037 307.584 
L 463.673626 307.584 
L 463.673626 307.582672 
L 463.260037 307.582672 
z
" style="fill:#1f77b4;"/>
   </g>
   <g id="patch_191">
    <path clip-path="url(#p0d862feecc)" d="M 463.673626 307.584 
L 464.08502 307.584 
L 464.08502 307.582451 
L 463.673626 307.582451 
z
" style="fill:#1f77b4;"/>
   </g>
   <g id="patch_192">
    <path clip-path="url(#p0d862feecc)" d="M 464.08502 307.584 
L 464.494243 307.584 
L 464.494243 307.582008 
L 464.08502 307.582008 
z
" style="fill:#1f77b4;"/>
   </g>
   <g id="patch_193">
    <path clip-path="url(#p0d862feecc)" d="M 464.494243 307.584 
L 464.901318 307.584 
L 464.901318 307.579574 
L 464.494243 307.579574 
z
" style="fill:#1f77b4;"/>
   </g>
   <g id="patch_194">
    <path clip-path="url(#p0d862feecc)" d="M 464.901318 307.584 
L 465.306267 307.584 
L 465.306267 307.583336 
L 464.901318 307.583336 
z
" style="fill:#1f77b4;"/>
   </g>
   <g id="patch_195">
    <path clip-path="url(#p0d862feecc)" d="M 465.306267 307.584 
L 465.709113 307.584 
L 465.709113 307.582451 
L 465.306267 307.582451 
z
" style="fill:#1f77b4;"/>
   </g>
   <g id="patch_196">
    <path clip-path="url(#p0d862feecc)" d="M 465.709113 307.584 
L 466.109877 307.584 
L 466.109877 307.581787 
L 465.709113 307.581787 
z
" style="fill:#1f77b4;"/>
   </g>
   <g id="patch_197">
    <path clip-path="url(#p0d862feecc)" d="M 466.109877 307.584 
L 466.50858 307.584 
L 466.50858 307.582451 
L 466.109877 307.582451 
z
" style="fill:#1f77b4;"/>
   </g>
   <g id="patch_198">
    <path clip-path="url(#p0d862feecc)" d="M 466.50858 307.584 
L 466.905244 307.584 
L 466.905244 307.582894 
L 466.50858 307.582894 
z
" style="fill:#1f77b4;"/>
   </g>
   <g id="patch_199">
    <path clip-path="url(#p0d862feecc)" d="M 466.905244 307.584 
L 467.299889 307.584 
L 467.299889 307.582894 
L 466.905244 307.582894 
z
" style="fill:#1f77b4;"/>
   </g>
   <g id="patch_200">
    <path clip-path="url(#p0d862feecc)" d="M 467.299889 307.584 
L 467.692536 307.584 
L 467.692536 307.582451 
L 467.299889 307.582451 
z
" style="fill:#1f77b4;"/>
   </g>
   <g id="patch_201">
    <path clip-path="url(#p0d862feecc)" d="M 467.692536 307.584 
L 468.083205 307.584 
L 468.083205 307.583779 
L 467.692536 307.583779 
z
" style="fill:#1f77b4;"/>
   </g>
   <g id="patch_202">
    <path clip-path="url(#p0d862feecc)" d="M 468.083205 307.584 
L 468.471916 307.584 
L 468.471916 307.583557 
L 468.083205 307.583557 
z
" style="fill:#1f77b4;"/>
   </g>
   <g id="patch_203">
    <path clip-path="url(#p0d862feecc)" d="M 468.471916 307.584 
L 468.858688 307.584 
L 468.858688 307.583779 
L 468.471916 307.583779 
z
" style="fill:#1f77b4;"/>
   </g>
   <g id="patch_204">
    <path clip-path="url(#p0d862feecc)" d="M 468.858688 307.584 
L 469.243541 307.584 
L 469.243541 307.583779 
L 468.858688 307.583779 
z
" style="fill:#1f77b4;"/>
   </g>
   <g id="patch_205">
    <path clip-path="url(#p0d862feecc)" d="M 469.243541 307.584 
L 469.626493 307.584 
L 469.626493 307.583779 
L 469.243541 307.583779 
z
" style="fill:#1f77b4;"/>
   </g>
   <g id="patch_206">
    <path clip-path="url(#p0d862feecc)" d="M 469.626493 307.584 
L 470.007563 307.584 
L 470.007563 307.583557 
L 469.626493 307.583557 
z
" style="fill:#1f77b4;"/>
   </g>
   <g id="patch_207">
    <path clip-path="url(#p0d862feecc)" d="M 470.007563 307.584 
L 470.386769 307.584 
L 470.386769 307.583115 
L 470.007563 307.583115 
z
" style="fill:#1f77b4;"/>
   </g>
   <g id="patch_208">
    <path clip-path="url(#p0d862feecc)" d="M 470.386769 307.584 
L 470.764131 307.584 
L 470.764131 307.583557 
L 470.386769 307.583557 
z
" style="fill:#1f77b4;"/>
   </g>
   <g id="patch_209">
    <path clip-path="url(#p0d862feecc)" d="M 470.764131 307.584 
L 471.139665 307.584 
L 471.139665 307.583779 
L 470.764131 307.583779 
z
" style="fill:#1f77b4;"/>
   </g>
   <g id="patch_210">
    <path clip-path="url(#p0d862feecc)" d="M 471.139665 307.584 
L 471.513389 307.584 
L 471.513389 307.582672 
L 471.139665 307.582672 
z
" style="fill:#1f77b4;"/>
   </g>
   <g id="patch_211">
    <path clip-path="url(#p0d862feecc)" d="M 471.513389 307.584 
L 471.885321 307.584 
L 471.885321 307.583336 
L 471.513389 307.583336 
z
" style="fill:#1f77b4;"/>
   </g>
   <g id="patch_212">
    <path clip-path="url(#p0d862feecc)" d="M 471.885321 307.584 
L 472.255477 307.584 
L 472.255477 307.583557 
L 471.885321 307.583557 
z
" style="fill:#1f77b4;"/>
   </g>
   <g id="patch_213">
    <path clip-path="url(#p0d862feecc)" d="M 472.255477 307.584 
L 472.623875 307.584 
L 472.623875 307.583779 
L 472.255477 307.583779 
z
" style="fill:#1f77b4;"/>
   </g>
   <g id="patch_214">
    <path clip-path="url(#p0d862feecc)" d="M 472.623875 307.584 
L 472.990531 307.584 
L 472.990531 307.583779 
L 472.623875 307.583779 
z
" style="fill:#1f77b4;"/>
   </g>
   <g id="patch_215">
    <path clip-path="url(#p0d862feecc)" d="M 472.990531 307.584 
L 473.355462 307.584 
L 473.355462 307.583557 
L 472.990531 307.583557 
z
" style="fill:#1f77b4;"/>
   </g>
   <g id="patch_216">
    <path clip-path="url(#p0d862feecc)" d="M 473.355462 307.584 
L 473.718683 307.584 
L 473.718683 307.583557 
L 473.355462 307.583557 
z
" style="fill:#1f77b4;"/>
   </g>
   <g id="patch_217">
    <path clip-path="url(#p0d862feecc)" d="M 473.718683 307.584 
L 474.080211 307.584 
L 474.080211 307.582894 
L 473.718683 307.582894 
z
" style="fill:#1f77b4;"/>
   </g>
   <g id="patch_218">
    <path clip-path="url(#p0d862feecc)" d="M 474.080211 307.584 
L 474.440062 307.584 
L 474.440062 307.583557 
L 474.080211 307.583557 
z
" style="fill:#1f77b4;"/>
   </g>
   <g id="patch_219">
    <path clip-path="url(#p0d862feecc)" d="M 474.440062 307.584 
L 474.79825 307.584 
L 474.79825 307.583336 
L 474.440062 307.583336 
z
" style="fill:#1f77b4;"/>
   </g>
   <g id="patch_220">
    <path clip-path="url(#p0d862feecc)" d="M 474.79825 307.584 
L 475.154791 307.584 
L 475.154791 307.583336 
L 474.79825 307.583336 
z
" style="fill:#1f77b4;"/>
   </g>
   <g id="patch_221">
    <path clip-path="url(#p0d862feecc)" d="M 475.154791 307.584 
L 475.509701 307.584 
L 475.509701 307.583779 
L 475.154791 307.583779 
z
" style="fill:#1f77b4;"/>
   </g>
   <g id="patch_222">
    <path clip-path="url(#p0d862feecc)" d="M 475.509701 307.584 
L 475.862994 307.584 
L 475.862994 307.58223 
L 475.509701 307.58223 
z
" style="fill:#1f77b4;"/>
   </g>
   <g id="patch_223">
    <path clip-path="url(#p0d862feecc)" d="M 475.862994 307.584 
L 476.214684 307.584 
L 476.214684 307.583779 
L 475.862994 307.583779 
z
" style="fill:#1f77b4;"/>
   </g>
   <g id="patch_224">
    <path clip-path="url(#p0d862feecc)" d="M 476.214684 307.584 
L 476.564787 307.584 
L 476.564787 307.583779 
L 476.214684 307.583779 
z
" style="fill:#1f77b4;"/>
   </g>
   <g id="patch_225">
    <path clip-path="url(#p0d862feecc)" d="M 476.564787 307.584 
L 476.913316 307.584 
L 476.913316 307.582894 
L 476.564787 307.582894 
z
" style="fill:#1f77b4;"/>
   </g>
   <g id="patch_226">
    <path clip-path="url(#p0d862feecc)" d="M 476.913316 307.584 
L 477.260286 307.584 
L 477.260286 307.583779 
L 476.913316 307.583779 
z
" style="fill:#1f77b4;"/>
   </g>
   <g id="patch_227">
    <path clip-path="url(#p0d862feecc)" d="M 477.260286 307.584 
L 477.60571 307.584 
L 477.60571 307.583336 
L 477.260286 307.583336 
z
" style="fill:#1f77b4;"/>
   </g>
   <g id="patch_228">
    <path clip-path="url(#p0d862feecc)" d="M 477.60571 307.584 
L 477.949603 307.584 
L 477.949603 307.582894 
L 477.60571 307.582894 
z
" style="fill:#1f77b4;"/>
   </g>
   <g id="patch_229">
    <path clip-path="url(#p0d862feecc)" d="M 477.949603 307.584 
L 478.291977 307.584 
L 478.291977 307.582894 
L 477.949603 307.582894 
z
" style="fill:#1f77b4;"/>
   </g>
   <g id="patch_230">
    <path clip-path="url(#p0d862feecc)" d="M 478.291977 307.584 
L 478.632846 307.584 
L 478.632846 307.583557 
L 478.291977 307.583557 
z
" style="fill:#1f77b4;"/>
   </g>
   <g id="patch_231">
    <path clip-path="url(#p0d862feecc)" d="M 478.632846 307.584 
L 478.972224 307.584 
L 478.972224 307.583779 
L 478.632846 307.583779 
z
" style="fill:#1f77b4;"/>
   </g>
   <g id="patch_232">
    <path clip-path="url(#p0d862feecc)" d="M 478.972224 307.584 
L 479.310122 307.584 
L 479.310122 307.583336 
L 478.972224 307.583336 
z
" style="fill:#1f77b4;"/>
   </g>
   <g id="patch_233">
    <path clip-path="url(#p0d862feecc)" d="M 479.310122 307.584 
L 479.646555 307.584 
L 479.646555 307.583779 
L 479.310122 307.583779 
z
" style="fill:#1f77b4;"/>
   </g>
   <g id="patch_234">
    <path clip-path="url(#p0d862feecc)" d="M 479.646555 307.584 
L 479.981535 307.584 
L 479.981535 307.583779 
L 479.646555 307.583779 
z
" style="fill:#1f77b4;"/>
   </g>
   <g id="patch_235">
    <path clip-path="url(#p0d862feecc)" d="M 479.981535 307.584 
L 480.315073 307.584 
L 480.315073 307.583336 
L 479.981535 307.583336 
z
" style="fill:#1f77b4;"/>
   </g>
   <g id="matplotlib.axis_1">
    <g id="xtick_1">
     <g id="line2d_1">
      <defs>
       <path d="M 0 0 
L 0 3.5 
" id="m35fd32b799" style="stroke:#000000;stroke-width:0.8;"/>
      </defs>
      <g>
       <use style="stroke:#000000;stroke-width:0.8;" x="57.6" xlink:href="#m35fd32b799" y="307.584"/>
      </g>
     </g>
     <g id="text_1">
      <!-- $\mathdefault{10^{0}}$ -->
      <g transform="translate(48.8 322.182437)scale(0.1 -0.1)">
       <defs>
        <path d="M 794 531 
L 1825 531 
L 1825 4091 
L 703 3866 
L 703 4441 
L 1819 4666 
L 2450 4666 
L 2450 531 
L 3481 531 
L 3481 0 
L 794 0 
L 794 531 
z
" id="DejaVuSans-31" transform="scale(0.015625)"/>
        <path d="M 2034 4250 
Q 1547 4250 1301 3770 
Q 1056 3291 1056 2328 
Q 1056 1369 1301 889 
Q 1547 409 2034 409 
Q 2525 409 2770 889 
Q 3016 1369 3016 2328 
Q 3016 3291 2770 3770 
Q 2525 4250 2034 4250 
z
M 2034 4750 
Q 2819 4750 3233 4129 
Q 3647 3509 3647 2328 
Q 3647 1150 3233 529 
Q 2819 -91 2034 -91 
Q 1250 -91 836 529 
Q 422 1150 422 2328 
Q 422 3509 836 4129 
Q 1250 4750 2034 4750 
z
" id="DejaVuSans-30" transform="scale(0.015625)"/>
       </defs>
       <use transform="translate(0 0.765625)" xlink:href="#DejaVuSans-31"/>
       <use transform="translate(63.623047 0.765625)" xlink:href="#DejaVuSans-30"/>
       <use transform="translate(128.203125 39.046875)scale(0.7)" xlink:href="#DejaVuSans-30"/>
      </g>
     </g>
    </g>
    <g id="xtick_2">
     <g id="line2d_2">
      <g>
       <use style="stroke:#000000;stroke-width:0.8;" x="236.16" xlink:href="#m35fd32b799" y="307.584"/>
      </g>
     </g>
     <g id="text_2">
      <!-- $\mathdefault{10^{1}}$ -->
      <g transform="translate(227.36 322.182437)scale(0.1 -0.1)">
       <use transform="translate(0 0.684375)" xlink:href="#DejaVuSans-31"/>
       <use transform="translate(63.623047 0.684375)" xlink:href="#DejaVuSans-30"/>
       <use transform="translate(128.203125 38.965625)scale(0.7)" xlink:href="#DejaVuSans-31"/>
      </g>
     </g>
    </g>
    <g id="xtick_3">
     <g id="line2d_3">
      <g>
       <use style="stroke:#000000;stroke-width:0.8;" x="414.72" xlink:href="#m35fd32b799" y="307.584"/>
      </g>
     </g>
     <g id="text_3">
      <!-- $\mathdefault{10^{2}}$ -->
      <g transform="translate(405.92 322.182437)scale(0.1 -0.1)">
       <defs>
        <path d="M 1228 531 
L 3431 531 
L 3431 0 
L 469 0 
L 469 531 
Q 828 903 1448 1529 
Q 2069 2156 2228 2338 
Q 2531 2678 2651 2914 
Q 2772 3150 2772 3378 
Q 2772 3750 2511 3984 
Q 2250 4219 1831 4219 
Q 1534 4219 1204 4116 
Q 875 4013 500 3803 
L 500 4441 
Q 881 4594 1212 4672 
Q 1544 4750 1819 4750 
Q 2544 4750 2975 4387 
Q 3406 4025 3406 3419 
Q 3406 3131 3298 2873 
Q 3191 2616 2906 2266 
Q 2828 2175 2409 1742 
Q 1991 1309 1228 531 
z
" id="DejaVuSans-32" transform="scale(0.015625)"/>
       </defs>
       <use transform="translate(0 0.765625)" xlink:href="#DejaVuSans-31"/>
       <use transform="translate(63.623047 0.765625)" xlink:href="#DejaVuSans-30"/>
       <use transform="translate(128.203125 39.046875)scale(0.7)" xlink:href="#DejaVuSans-32"/>
      </g>
     </g>
    </g>
    <g id="xtick_4">
     <g id="line2d_4">
      <defs>
       <path d="M 0 0 
L 0 2 
" id="m750eeb008d" style="stroke:#000000;stroke-width:0.6;"/>
      </defs>
      <g>
       <use style="stroke:#000000;stroke-width:0.6;" x="111.351916" xlink:href="#m750eeb008d" y="307.584"/>
      </g>
     </g>
    </g>
    <g id="xtick_5">
     <g id="line2d_5">
      <g>
       <use style="stroke:#000000;stroke-width:0.6;" x="142.794771" xlink:href="#m750eeb008d" y="307.584"/>
      </g>
     </g>
    </g>
    <g id="xtick_6">
     <g id="line2d_6">
      <g>
       <use style="stroke:#000000;stroke-width:0.6;" x="165.103832" xlink:href="#m750eeb008d" y="307.584"/>
      </g>
     </g>
    </g>
    <g id="xtick_7">
     <g id="line2d_7">
      <g>
       <use style="stroke:#000000;stroke-width:0.6;" x="182.408084" xlink:href="#m750eeb008d" y="307.584"/>
      </g>
     </g>
    </g>
    <g id="xtick_8">
     <g id="line2d_8">
      <g>
       <use style="stroke:#000000;stroke-width:0.6;" x="196.546687" xlink:href="#m750eeb008d" y="307.584"/>
      </g>
     </g>
    </g>
    <g id="xtick_9">
     <g id="line2d_9">
      <g>
       <use style="stroke:#000000;stroke-width:0.6;" x="208.500706" xlink:href="#m750eeb008d" y="307.584"/>
      </g>
     </g>
    </g>
    <g id="xtick_10">
     <g id="line2d_10">
      <g>
       <use style="stroke:#000000;stroke-width:0.6;" x="218.855748" xlink:href="#m750eeb008d" y="307.584"/>
      </g>
     </g>
    </g>
    <g id="xtick_11">
     <g id="line2d_11">
      <g>
       <use style="stroke:#000000;stroke-width:0.6;" x="227.989542" xlink:href="#m750eeb008d" y="307.584"/>
      </g>
     </g>
    </g>
    <g id="xtick_12">
     <g id="line2d_12">
      <g>
       <use style="stroke:#000000;stroke-width:0.6;" x="289.911916" xlink:href="#m750eeb008d" y="307.584"/>
      </g>
     </g>
    </g>
    <g id="xtick_13">
     <g id="line2d_13">
      <g>
       <use style="stroke:#000000;stroke-width:0.6;" x="321.354771" xlink:href="#m750eeb008d" y="307.584"/>
      </g>
     </g>
    </g>
    <g id="xtick_14">
     <g id="line2d_14">
      <g>
       <use style="stroke:#000000;stroke-width:0.6;" x="343.663832" xlink:href="#m750eeb008d" y="307.584"/>
      </g>
     </g>
    </g>
    <g id="xtick_15">
     <g id="line2d_15">
      <g>
       <use style="stroke:#000000;stroke-width:0.6;" x="360.968084" xlink:href="#m750eeb008d" y="307.584"/>
      </g>
     </g>
    </g>
    <g id="xtick_16">
     <g id="line2d_16">
      <g>
       <use style="stroke:#000000;stroke-width:0.6;" x="375.106687" xlink:href="#m750eeb008d" y="307.584"/>
      </g>
     </g>
    </g>
    <g id="xtick_17">
     <g id="line2d_17">
      <g>
       <use style="stroke:#000000;stroke-width:0.6;" x="387.060706" xlink:href="#m750eeb008d" y="307.584"/>
      </g>
     </g>
    </g>
    <g id="xtick_18">
     <g id="line2d_18">
      <g>
       <use style="stroke:#000000;stroke-width:0.6;" x="397.415748" xlink:href="#m750eeb008d" y="307.584"/>
      </g>
     </g>
    </g>
    <g id="xtick_19">
     <g id="line2d_19">
      <g>
       <use style="stroke:#000000;stroke-width:0.6;" x="406.549542" xlink:href="#m750eeb008d" y="307.584"/>
      </g>
     </g>
    </g>
   </g>
   <g id="matplotlib.axis_2">
    <g id="ytick_1">
     <g id="line2d_20">
      <defs>
       <path d="M 0 0 
L -3.5 0 
" id="m13d7024e42" style="stroke:#000000;stroke-width:0.8;"/>
      </defs>
      <g>
       <use style="stroke:#000000;stroke-width:0.8;" x="57.6" xlink:href="#m13d7024e42" y="307.584"/>
      </g>
     </g>
     <g id="text_4">
      <!-- 0.000 -->
      <g transform="translate(21.971875 311.383219)scale(0.1 -0.1)">
       <defs>
        <path d="M 684 794 
L 1344 794 
L 1344 0 
L 684 0 
L 684 794 
z
" id="DejaVuSans-2e" transform="scale(0.015625)"/>
       </defs>
       <use xlink:href="#DejaVuSans-30"/>
       <use x="63.623047" xlink:href="#DejaVuSans-2e"/>
       <use x="95.410156" xlink:href="#DejaVuSans-30"/>
       <use x="159.033203" xlink:href="#DejaVuSans-30"/>
       <use x="222.65625" xlink:href="#DejaVuSans-30"/>
      </g>
     </g>
    </g>
    <g id="ytick_2">
     <g id="line2d_21">
      <g>
       <use style="stroke:#000000;stroke-width:0.8;" x="57.6" xlink:href="#m13d7024e42" y="263.175943"/>
      </g>
     </g>
     <g id="text_5">
      <!-- 0.005 -->
      <g transform="translate(21.971875 266.975162)scale(0.1 -0.1)">
       <defs>
        <path d="M 691 4666 
L 3169 4666 
L 3169 4134 
L 1269 4134 
L 1269 2991 
Q 1406 3038 1543 3061 
Q 1681 3084 1819 3084 
Q 2600 3084 3056 2656 
Q 3513 2228 3513 1497 
Q 3513 744 3044 326 
Q 2575 -91 1722 -91 
Q 1428 -91 1123 -41 
Q 819 9 494 109 
L 494 744 
Q 775 591 1075 516 
Q 1375 441 1709 441 
Q 2250 441 2565 725 
Q 2881 1009 2881 1497 
Q 2881 1984 2565 2268 
Q 2250 2553 1709 2553 
Q 1456 2553 1204 2497 
Q 953 2441 691 2322 
L 691 4666 
z
" id="DejaVuSans-35" transform="scale(0.015625)"/>
       </defs>
       <use xlink:href="#DejaVuSans-30"/>
       <use x="63.623047" xlink:href="#DejaVuSans-2e"/>
       <use x="95.410156" xlink:href="#DejaVuSans-30"/>
       <use x="159.033203" xlink:href="#DejaVuSans-30"/>
       <use x="222.65625" xlink:href="#DejaVuSans-35"/>
      </g>
     </g>
    </g>
    <g id="ytick_3">
     <g id="line2d_22">
      <g>
       <use style="stroke:#000000;stroke-width:0.8;" x="57.6" xlink:href="#m13d7024e42" y="218.767887"/>
      </g>
     </g>
     <g id="text_6">
      <!-- 0.010 -->
      <g transform="translate(21.971875 222.567106)scale(0.1 -0.1)">
       <use xlink:href="#DejaVuSans-30"/>
       <use x="63.623047" xlink:href="#DejaVuSans-2e"/>
       <use x="95.410156" xlink:href="#DejaVuSans-30"/>
       <use x="159.033203" xlink:href="#DejaVuSans-31"/>
       <use x="222.65625" xlink:href="#DejaVuSans-30"/>
      </g>
     </g>
    </g>
    <g id="ytick_4">
     <g id="line2d_23">
      <g>
       <use style="stroke:#000000;stroke-width:0.8;" x="57.6" xlink:href="#m13d7024e42" y="174.35983"/>
      </g>
     </g>
     <g id="text_7">
      <!-- 0.015 -->
      <g transform="translate(21.971875 178.159049)scale(0.1 -0.1)">
       <use xlink:href="#DejaVuSans-30"/>
       <use x="63.623047" xlink:href="#DejaVuSans-2e"/>
       <use x="95.410156" xlink:href="#DejaVuSans-30"/>
       <use x="159.033203" xlink:href="#DejaVuSans-31"/>
       <use x="222.65625" xlink:href="#DejaVuSans-35"/>
      </g>
     </g>
    </g>
    <g id="ytick_5">
     <g id="line2d_24">
      <g>
       <use style="stroke:#000000;stroke-width:0.8;" x="57.6" xlink:href="#m13d7024e42" y="129.951774"/>
      </g>
     </g>
     <g id="text_8">
      <!-- 0.020 -->
      <g transform="translate(21.971875 133.750993)scale(0.1 -0.1)">
       <use xlink:href="#DejaVuSans-30"/>
       <use x="63.623047" xlink:href="#DejaVuSans-2e"/>
       <use x="95.410156" xlink:href="#DejaVuSans-30"/>
       <use x="159.033203" xlink:href="#DejaVuSans-32"/>
       <use x="222.65625" xlink:href="#DejaVuSans-30"/>
      </g>
     </g>
    </g>
    <g id="ytick_6">
     <g id="line2d_25">
      <g>
       <use style="stroke:#000000;stroke-width:0.8;" x="57.6" xlink:href="#m13d7024e42" y="85.543717"/>
      </g>
     </g>
     <g id="text_9">
      <!-- 0.025 -->
      <g transform="translate(21.971875 89.342936)scale(0.1 -0.1)">
       <use xlink:href="#DejaVuSans-30"/>
       <use x="63.623047" xlink:href="#DejaVuSans-2e"/>
       <use x="95.410156" xlink:href="#DejaVuSans-30"/>
       <use x="159.033203" xlink:href="#DejaVuSans-32"/>
       <use x="222.65625" xlink:href="#DejaVuSans-35"/>
      </g>
     </g>
    </g>
   </g>
   <g id="patch_236">
    <path d="M 57.6 307.584 
L 57.6 41.472 
" style="fill:none;stroke:#000000;stroke-linecap:square;stroke-linejoin:miter;stroke-width:0.8;"/>
   </g>
   <g id="patch_237">
    <path d="M 414.72 307.584 
L 414.72 41.472 
" style="fill:none;stroke:#000000;stroke-linecap:square;stroke-linejoin:miter;stroke-width:0.8;"/>
   </g>
   <g id="patch_238">
    <path d="M 57.6 307.584 
L 414.72 307.584 
" style="fill:none;stroke:#000000;stroke-linecap:square;stroke-linejoin:miter;stroke-width:0.8;"/>
   </g>
   <g id="patch_239">
    <path d="M 57.6 41.472 
L 414.72 41.472 
" style="fill:none;stroke:#000000;stroke-linecap:square;stroke-linejoin:miter;stroke-width:0.8;"/>
   </g>
  </g>
 </g>
 <defs>
  <clipPath id="p0d862feecc">
   <rect height="266.112" width="357.12" x="57.6" y="41.472"/>
  </clipPath>
 </defs>
</svg>
