<?xml version="1.0" encoding="utf-8" standalone="no"?>
<!DOCTYPE svg PUBLIC "-//W3C//DTD SVG 1.1//EN"
  "http://www.w3.org/Graphics/SVG/1.1/DTD/svg11.dtd">
<svg height="345.6pt" version="1.1" viewBox="0 0 460.8 345.6" width="460.8pt" xmlns="http://www.w3.org/2000/svg" xmlns:xlink="http://www.w3.org/1999/xlink">
 <metadata>
  <rdf:RDF xmlns:cc="http://creativecommons.org/ns#" xmlns:dc="http://purl.org/dc/elements/1.1/" xmlns:rdf="http://www.w3.org/1999/02/22-rdf-syntax-ns#">
   <cc:Work>
    <dc:type rdf:resource="http://purl.org/dc/dcmitype/StillImage"/>
    <dc:date>2021-09-20T00:07:31.123838</dc:date>
    <dc:format>image/svg+xml</dc:format>
    <dc:creator>
     <cc:Agent>
      <dc:title>Matplotlib v3.4.3, https://matplotlib.org/</dc:title>
     </cc:Agent>
    </dc:creator>
   </cc:Work>
  </rdf:RDF>
 </metadata>
 <defs>
  <style type="text/css">*{stroke-linecap:butt;stroke-linejoin:round;}</style>
 </defs>
 <g id="figure_1">
  <g id="patch_1">
   <path d="M 0 345.6 
L 460.8 345.6 
L 460.8 0 
L 0 0 
z
" style="fill:#ffffff;"/>
  </g>
  <g id="axes_1">
   <g id="patch_2">
    <path d="M 57.6 307.584 
L 414.72 307.584 
L 414.72 41.472 
L 57.6 41.472 
z
" style="fill:#ffffff;"/>
   </g>
   <g id="patch_3">
    <path clip-path="url(#pac7173c40f)" d="M 196.546687 307.584 
L 208.500706 307.584 
L 208.500706 307.581762 
L 196.546687 307.581762 
z
" style="fill:#1f77b4;"/>
   </g>
   <g id="patch_4">
    <path clip-path="url(#pac7173c40f)" d="M 208.500706 307.584 
L 218.855748 307.584 
L 218.855748 307.580062 
L 208.500706 307.580062 
z
" style="fill:#1f77b4;"/>
   </g>
   <g id="patch_5">
    <path clip-path="url(#pac7173c40f)" d="M 218.855748 307.584 
L 227.989542 307.584 
L 227.989542 307.575676 
L 218.855748 307.575676 
z
" style="fill:#1f77b4;"/>
   </g>
   <g id="patch_6">
    <path clip-path="url(#pac7173c40f)" d="M 227.989542 307.584 
L 236.16 307.584 
L 236.16 307.553032 
L 227.989542 307.553032 
z
" style="fill:#1f77b4;"/>
   </g>
   <g id="patch_7">
    <path clip-path="url(#pac7173c40f)" d="M 236.16 307.584 
L 243.551078 307.584 
L 243.551078 307.508101 
L 236.16 307.508101 
z
" style="fill:#1f77b4;"/>
   </g>
   <g id="patch_8">
    <path clip-path="url(#pac7173c40f)" d="M 243.551078 307.584 
L 250.298603 307.584 
L 250.298603 307.375278 
L 243.551078 307.375278 
z
" style="fill:#1f77b4;"/>
   </g>
   <g id="patch_9">
    <path clip-path="url(#pac7173c40f)" d="M 250.298603 307.584 
L 256.505725 307.584 
L 256.505725 307.200478 
L 250.298603 307.200478 
z
" style="fill:#1f77b4;"/>
   </g>
   <g id="patch_10">
    <path clip-path="url(#pac7173c40f)" d="M 256.505725 307.584 
L 262.252622 307.584 
L 262.252622 306.808274 
L 256.505725 306.808274 
z
" style="fill:#1f77b4;"/>
   </g>
   <g id="patch_11">
    <path clip-path="url(#pac7173c40f)" d="M 262.252622 307.584 
L 267.602855 307.584 
L 267.602855 306.102718 
L 262.252622 306.102718 
z
" style="fill:#1f77b4;"/>
   </g>
   <g id="patch_12">
    <path clip-path="url(#pac7173c40f)" d="M 267.602855 307.584 
L 272.607664 307.584 
L 272.607664 305.063583 
L 267.602855 305.063583 
z
" style="fill:#1f77b4;"/>
   </g>
   <g id="patch_13">
    <path clip-path="url(#pac7173c40f)" d="M 272.607664 307.584 
L 277.308959 307.584 
L 277.308959 303.289356 
L 272.607664 303.289356 
z
" style="fill:#1f77b4;"/>
   </g>
   <g id="patch_14">
    <path clip-path="url(#pac7173c40f)" d="M 277.308959 307.584 
L 281.741459 307.584 
L 281.741459 300.492014 
L 277.308959 300.492014 
z
" style="fill:#1f77b4;"/>
   </g>
   <g id="patch_15">
    <path clip-path="url(#pac7173c40f)" d="M 281.741459 307.584 
L 285.934243 307.584 
L 285.934243 296.438582 
L 281.741459 296.438582 
z
" style="fill:#1f77b4;"/>
   </g>
   <g id="patch_16">
    <path clip-path="url(#pac7173c40f)" d="M 285.934243 307.584 
L 289.911916 307.584 
L 289.911916 290.619783 
L 285.934243 290.619783 
z
" style="fill:#1f77b4;"/>
   </g>
   <g id="patch_17">
    <path clip-path="url(#pac7173c40f)" d="M 289.911916 307.584 
L 293.695477 307.584 
L 293.695477 282.895008 
L 289.911916 282.895008 
z
" style="fill:#1f77b4;"/>
   </g>
   <g id="patch_18">
    <path clip-path="url(#pac7173c40f)" d="M 293.695477 307.584 
L 297.302994 307.584 
L 297.302994 273.166877 
L 293.695477 273.166877 
z
" style="fill:#1f77b4;"/>
   </g>
   <g id="patch_19">
    <path clip-path="url(#pac7173c40f)" d="M 297.302994 307.584 
L 300.750122 307.584 
L 300.750122 261.046945 
L 297.302994 261.046945 
z
" style="fill:#1f77b4;"/>
   </g>
   <g id="patch_20">
    <path clip-path="url(#pac7173c40f)" d="M 300.750122 307.584 
L 304.050519 307.584 
L 304.050519 246.974137 
L 300.750122 246.974137 
z
" style="fill:#1f77b4;"/>
   </g>
   <g id="patch_21">
    <path clip-path="url(#pac7173c40f)" d="M 304.050519 307.584 
L 307.216168 307.584 
L 307.216168 230.104346 
L 304.050519 230.104346 
z
" style="fill:#1f77b4;"/>
   </g>
   <g id="patch_22">
    <path clip-path="url(#pac7173c40f)" d="M 307.216168 307.584 
L 310.257641 307.584 
L 310.257641 211.954387 
L 307.216168 211.954387 
z
" style="fill:#1f77b4;"/>
   </g>
   <g id="patch_23">
    <path clip-path="url(#pac7173c40f)" d="M 310.257641 307.584 
L 313.184314 307.584 
L 313.184314 191.418087 
L 310.257641 191.418087 
z
" style="fill:#1f77b4;"/>
   </g>
   <g id="patch_24">
    <path clip-path="url(#pac7173c40f)" d="M 313.184314 307.584 
L 316.004538 307.584 
L 316.004538 170.210063 
L 313.184314 170.210063 
z
" style="fill:#1f77b4;"/>
   </g>
   <g id="patch_25">
    <path clip-path="url(#pac7173c40f)" d="M 316.004538 307.584 
L 318.725787 307.584 
L 318.725787 148.556491 
L 316.004538 148.556491 
z
" style="fill:#1f77b4;"/>
   </g>
   <g id="patch_26">
    <path clip-path="url(#pac7173c40f)" d="M 318.725787 307.584 
L 321.354771 307.584 
L 321.354771 127.369232 
L 318.725787 127.369232 
z
" style="fill:#1f77b4;"/>
   </g>
   <g id="patch_27">
    <path clip-path="url(#pac7173c40f)" d="M 321.354771 307.584 
L 323.897544 307.584 
L 323.897544 107.51826 
L 321.354771 107.51826 
z
" style="fill:#1f77b4;"/>
   </g>
   <g id="patch_28">
    <path clip-path="url(#pac7173c40f)" d="M 323.897544 307.584 
L 326.35958 307.584 
L 326.35958 89.499513 
L 323.897544 89.499513 
z
" style="fill:#1f77b4;"/>
   </g>
   <g id="patch_29">
    <path clip-path="url(#pac7173c40f)" d="M 326.35958 307.584 
L 328.745849 307.584 
L 328.745849 76.337582 
L 326.35958 76.337582 
z
" style="fill:#1f77b4;"/>
   </g>
   <g id="patch_30">
    <path clip-path="url(#pac7173c40f)" d="M 328.745849 307.584 
L 331.060875 307.584 
L 331.060875 66.040567 
L 328.745849 66.040567 
z
" style="fill:#1f77b4;"/>
   </g>
   <g id="patch_31">
    <path clip-path="url(#pac7173c40f)" d="M 331.060875 307.584 
L 333.30879 307.584 
L 333.30879 59.40496 
L 331.060875 59.40496 
z
" style="fill:#1f77b4;"/>
   </g>
   <g id="patch_32">
    <path clip-path="url(#pac7173c40f)" d="M 333.30879 307.584 
L 335.493375 307.584 
L 335.493375 57.161466 
L 333.30879 57.161466 
z
" style="fill:#1f77b4;"/>
   </g>
   <g id="patch_33">
    <path clip-path="url(#pac7173c40f)" d="M 335.493375 307.584 
L 337.6181 307.584 
L 337.6181 59.043187 
L 335.493375 59.043187 
z
" style="fill:#1f77b4;"/>
   </g>
   <g id="patch_34">
    <path clip-path="url(#pac7173c40f)" d="M 337.6181 307.584 
L 339.686159 307.584 
L 339.686159 63.498221 
L 337.6181 63.498221 
z
" style="fill:#1f77b4;"/>
   </g>
   <g id="patch_35">
    <path clip-path="url(#pac7173c40f)" d="M 339.686159 307.584 
L 341.700496 307.584 
L 341.700496 71.645184 
L 339.686159 71.645184 
z
" style="fill:#1f77b4;"/>
   </g>
   <g id="patch_36">
    <path clip-path="url(#pac7173c40f)" d="M 341.700496 307.584 
L 343.663832 307.584 
L 343.663832 82.980797 
L 341.700496 82.980797 
z
" style="fill:#1f77b4;"/>
   </g>
   <g id="patch_37">
    <path clip-path="url(#pac7173c40f)" d="M 343.663832 307.584 
L 345.578685 307.584 
L 345.578685 97.103548 
L 343.663832 97.103548 
z
" style="fill:#1f77b4;"/>
   </g>
   <g id="patch_38">
    <path clip-path="url(#pac7173c40f)" d="M 345.578685 307.584 
L 347.447393 307.584 
L 347.447393 112.507452 
L 345.578685 112.507452 
z
" style="fill:#1f77b4;"/>
   </g>
   <g id="patch_39">
    <path clip-path="url(#pac7173c40f)" d="M 347.447393 307.584 
L 349.272127 307.584 
L 349.272127 129.389147 
L 347.447393 129.389147 
z
" style="fill:#1f77b4;"/>
   </g>
   <g id="patch_40">
    <path clip-path="url(#pac7173c40f)" d="M 349.272127 307.584 
L 351.05491 307.584 
L 351.05491 146.852077 
L 349.272127 146.852077 
z
" style="fill:#1f77b4;"/>
   </g>
   <g id="patch_41">
    <path clip-path="url(#pac7173c40f)" d="M 351.05491 307.584 
L 352.797626 307.584 
L 352.797626 164.544226 
L 351.05491 164.544226 
z
" style="fill:#1f77b4;"/>
   </g>
   <g id="patch_42">
    <path clip-path="url(#pac7173c40f)" d="M 352.797626 307.584 
L 354.502038 307.584 
L 354.502038 181.570469 
L 352.797626 181.570469 
z
" style="fill:#1f77b4;"/>
   </g>
   <g id="patch_43">
    <path clip-path="url(#pac7173c40f)" d="M 354.502038 307.584 
L 356.169794 307.584 
L 356.169794 197.676885 
L 354.502038 197.676885 
z
" style="fill:#1f77b4;"/>
   </g>
   <g id="patch_44">
    <path clip-path="url(#pac7173c40f)" d="M 356.169794 307.584 
L 357.802435 307.584 
L 357.802435 212.748551 
L 356.169794 212.748551 
z
" style="fill:#1f77b4;"/>
   </g>
   <g id="patch_45">
    <path clip-path="url(#pac7173c40f)" d="M 357.802435 307.584 
L 359.401412 307.584 
L 359.401412 226.533516 
L 357.802435 226.533516 
z
" style="fill:#1f77b4;"/>
   </g>
   <g id="patch_46">
    <path clip-path="url(#pac7173c40f)" d="M 359.401412 307.584 
L 360.968084 307.584 
L 360.968084 239.190469 
L 359.401412 239.190469 
z
" style="fill:#1f77b4;"/>
   </g>
   <g id="patch_47">
    <path clip-path="url(#pac7173c40f)" d="M 360.968084 307.584 
L 362.503731 307.584 
L 362.503731 250.393706 
L 360.968084 250.393706 
z
" style="fill:#1f77b4;"/>
   </g>
   <g id="patch_48">
    <path clip-path="url(#pac7173c40f)" d="M 362.503731 307.584 
L 364.009557 307.584 
L 364.009557 260.181536 
L 362.503731 260.181536 
z
" style="fill:#1f77b4;"/>
   </g>
   <g id="patch_49">
    <path clip-path="url(#pac7173c40f)" d="M 364.009557 307.584 
L 365.486699 307.584 
L 365.486699 268.729653 
L 364.009557 268.729653 
z
" style="fill:#1f77b4;"/>
   </g>
   <g id="patch_50">
    <path clip-path="url(#pac7173c40f)" d="M 365.486699 307.584 
L 366.93623 307.584 
L 366.93623 275.968604 
L 365.486699 275.968604 
z
" style="fill:#1f77b4;"/>
   </g>
   <g id="patch_51">
    <path clip-path="url(#pac7173c40f)" d="M 366.93623 307.584 
L 368.359162 307.584 
L 368.359162 282.124473 
L 366.93623 282.124473 
z
" style="fill:#1f77b4;"/>
   </g>
   <g id="patch_52">
    <path clip-path="url(#pac7173c40f)" d="M 368.359162 307.584 
L 369.756454 307.584 
L 369.756454 287.22429 
L 368.359162 287.22429 
z
" style="fill:#1f77b4;"/>
   </g>
   <g id="patch_53">
    <path clip-path="url(#pac7173c40f)" d="M 369.756454 307.584 
L 371.129014 307.584 
L 371.129014 291.545696 
L 369.756454 291.545696 
z
" style="fill:#1f77b4;"/>
   </g>
   <g id="patch_54">
    <path clip-path="url(#pac7173c40f)" d="M 371.129014 307.584 
L 372.477703 307.584 
L 372.477703 295.119301 
L 371.129014 295.119301 
z
" style="fill:#1f77b4;"/>
   </g>
   <g id="patch_55">
    <path clip-path="url(#pac7173c40f)" d="M 372.477703 307.584 
L 373.803335 307.584 
L 373.803335 297.807806 
L 372.477703 297.807806 
z
" style="fill:#1f77b4;"/>
   </g>
   <g id="patch_56">
    <path clip-path="url(#pac7173c40f)" d="M 373.803335 307.584 
L 375.106687 307.584 
L 375.106687 300.051568 
L 373.803335 300.051568 
z
" style="fill:#1f77b4;"/>
   </g>
   <g id="patch_57">
    <path clip-path="url(#pac7173c40f)" d="M 375.106687 307.584 
L 376.388495 307.584 
L 376.388495 301.889253 
L 375.106687 301.889253 
z
" style="fill:#1f77b4;"/>
   </g>
   <g id="patch_58">
    <path clip-path="url(#pac7173c40f)" d="M 376.388495 307.584 
L 377.64946 307.584 
L 377.64946 303.245857 
L 376.388495 303.245857 
z
" style="fill:#1f77b4;"/>
   </g>
   <g id="patch_59">
    <path clip-path="url(#pac7173c40f)" d="M 377.64946 307.584 
L 378.890249 307.584 
L 378.890249 304.24928 
L 377.64946 304.24928 
z
" style="fill:#1f77b4;"/>
   </g>
   <g id="patch_60">
    <path clip-path="url(#pac7173c40f)" d="M 378.890249 307.584 
L 380.111496 307.584 
L 380.111496 305.094461 
L 378.890249 305.094461 
z
" style="fill:#1f77b4;"/>
   </g>
   <g id="patch_61">
    <path clip-path="url(#pac7173c40f)" d="M 380.111496 307.584 
L 381.313809 307.584 
L 381.313809 305.771376 
L 380.111496 305.771376 
z
" style="fill:#1f77b4;"/>
   </g>
   <g id="patch_62">
    <path clip-path="url(#pac7173c40f)" d="M 381.313809 307.584 
L 382.497765 307.584 
L 382.497765 306.250935 
L 381.313809 306.250935 
z
" style="fill:#1f77b4;"/>
   </g>
   <g id="patch_63">
    <path clip-path="url(#pac7173c40f)" d="M 382.497765 307.584 
L 383.663917 307.584 
L 383.663917 306.658534 
L 382.497765 306.658534 
z
" style="fill:#1f77b4;"/>
   </g>
   <g id="patch_64">
    <path clip-path="url(#pac7173c40f)" d="M 383.663917 307.584 
L 384.812791 307.584 
L 384.812791 306.910397 
L 383.663917 306.910397 
z
" style="fill:#1f77b4;"/>
   </g>
   <g id="patch_65">
    <path clip-path="url(#pac7173c40f)" d="M 384.812791 307.584 
L 385.944894 307.584 
L 385.944894 307.092089 
L 384.812791 307.092089 
z
" style="fill:#1f77b4;"/>
   </g>
   <g id="patch_66">
    <path clip-path="url(#pac7173c40f)" d="M 385.944894 307.584 
L 387.060706 307.584 
L 387.060706 307.22348 
L 385.944894 307.22348 
z
" style="fill:#1f77b4;"/>
   </g>
   <g id="patch_67">
    <path clip-path="url(#pac7173c40f)" d="M 387.060706 307.584 
L 388.160691 307.584 
L 388.160691 307.311909 
L 387.060706 307.311909 
z
" style="fill:#1f77b4;"/>
   </g>
   <g id="patch_68">
    <path clip-path="url(#pac7173c40f)" d="M 388.160691 307.584 
L 389.245291 307.584 
L 389.245291 307.417166 
L 388.160691 307.417166 
z
" style="fill:#1f77b4;"/>
   </g>
   <g id="patch_69">
    <path clip-path="url(#pac7173c40f)" d="M 389.245291 307.584 
L 390.31493 307.584 
L 390.31493 307.458874 
L 389.245291 307.458874 
z
" style="fill:#1f77b4;"/>
   </g>
   <g id="patch_70">
    <path clip-path="url(#pac7173c40f)" d="M 390.31493 307.584 
L 391.370016 307.584 
L 391.370016 307.487963 
L 390.31493 307.487963 
z
" style="fill:#1f77b4;"/>
   </g>
   <g id="patch_71">
    <path clip-path="url(#pac7173c40f)" d="M 391.370016 307.584 
L 392.410939 307.584 
L 392.410939 307.511055 
L 391.370016 307.511055 
z
" style="fill:#1f77b4;"/>
   </g>
   <g id="patch_72">
    <path clip-path="url(#pac7173c40f)" d="M 392.410939 307.584 
L 393.438075 307.584 
L 393.438075 307.527702 
L 392.410939 307.527702 
z
" style="fill:#1f77b4;"/>
   </g>
   <g id="patch_73">
    <path clip-path="url(#pac7173c40f)" d="M 393.438075 307.584 
L 394.451784 307.584 
L 394.451784 307.551958 
L 393.438075 307.551958 
z
" style="fill:#1f77b4;"/>
   </g>
   <g id="patch_74">
    <path clip-path="url(#pac7173c40f)" d="M 394.451784 307.584 
L 395.452412 307.584 
L 395.452412 307.561803 
L 394.451784 307.561803 
z
" style="fill:#1f77b4;"/>
   </g>
   <g id="patch_75">
    <path clip-path="url(#pac7173c40f)" d="M 395.452412 307.584 
L 396.440293 307.584 
L 396.440293 307.566368 
L 395.452412 307.566368 
z
" style="fill:#1f77b4;"/>
   </g>
   <g id="patch_76">
    <path clip-path="url(#pac7173c40f)" d="M 396.440293 307.584 
L 397.415748 307.584 
L 397.415748 307.568605 
L 396.440293 307.568605 
z
" style="fill:#1f77b4;"/>
   </g>
   <g id="patch_77">
    <path clip-path="url(#pac7173c40f)" d="M 397.415748 307.584 
L 398.379085 307.584 
L 398.379085 307.577287 
L 397.415748 307.577287 
z
" style="fill:#1f77b4;"/>
   </g>
   <g id="patch_78">
    <path clip-path="url(#pac7173c40f)" d="M 398.379085 307.584 
L 399.330601 307.584 
L 399.330601 307.581494 
L 398.379085 307.581494 
z
" style="fill:#1f77b4;"/>
   </g>
   <g id="patch_79">
    <path clip-path="url(#pac7173c40f)" d="M 399.330601 307.584 
L 400.270584 307.584 
L 400.270584 307.583194 
L 399.330601 307.583194 
z
" style="fill:#1f77b4;"/>
   </g>
   <g id="patch_80">
    <path clip-path="url(#pac7173c40f)" d="M 400.270584 307.584 
L 401.199309 307.584 
L 401.199309 307.583463 
L 400.270584 307.583463 
z
" style="fill:#1f77b4;"/>
   </g>
   <g id="patch_81">
    <path clip-path="url(#pac7173c40f)" d="M 401.199309 307.584 
L 402.117043 307.584 
L 402.117043 307.583552 
L 401.199309 307.583552 
z
" style="fill:#1f77b4;"/>
   </g>
   <g id="patch_82">
    <path clip-path="url(#pac7173c40f)" d="M 402.117043 307.584 
L 403.024043 307.584 
L 403.024043 307.583015 
L 402.117043 307.583015 
z
" style="fill:#1f77b4;"/>
   </g>
   <g id="patch_83">
    <path clip-path="url(#pac7173c40f)" d="M 403.024043 307.584 
L 403.920558 307.584 
L 403.920558 307.583821 
L 403.024043 307.583821 
z
" style="fill:#1f77b4;"/>
   </g>
   <g id="patch_84">
    <path clip-path="url(#pac7173c40f)" d="M 403.920558 307.584 
L 404.806826 307.584 
L 404.806826 307.583552 
L 403.920558 307.583552 
z
" style="fill:#1f77b4;"/>
   </g>
   <g id="patch_85">
    <path clip-path="url(#pac7173c40f)" d="M 404.806826 307.584 
L 405.68308 307.584 
L 405.68308 307.583463 
L 404.806826 307.583463 
z
" style="fill:#1f77b4;"/>
   </g>
   <g id="patch_86">
    <path clip-path="url(#pac7173c40f)" d="M 405.68308 307.584 
L 406.549542 307.584 
L 406.549542 307.583105 
L 405.68308 307.583105 
z
" style="fill:#1f77b4;"/>
   </g>
   <g id="patch_87">
    <path clip-path="url(#pac7173c40f)" d="M 406.549542 307.584 
L 407.406431 307.584 
L 407.406431 307.58221 
L 406.549542 307.58221 
z
" style="fill:#1f77b4;"/>
   </g>
   <g id="patch_88">
    <path clip-path="url(#pac7173c40f)" d="M 407.406431 307.584 
L 408.253954 307.584 
L 408.253954 307.582568 
L 407.406431 307.582568 
z
" style="fill:#1f77b4;"/>
   </g>
   <g id="patch_89">
    <path clip-path="url(#pac7173c40f)" d="M 408.253954 307.584 
L 409.092315 307.584 
L 409.092315 307.582836 
L 408.253954 307.582836 
z
" style="fill:#1f77b4;"/>
   </g>
   <g id="matplotlib.axis_1">
    <g id="xtick_1">
     <g id="line2d_1">
      <defs>
       <path d="M 0 0 
L 0 3.5 
" id="m22b26bb812" style="stroke:#000000;stroke-width:0.8;"/>
      </defs>
      <g>
       <use style="stroke:#000000;stroke-width:0.8;" x="57.6" xlink:href="#m22b26bb812" y="307.584"/>
      </g>
     </g>
     <g id="text_1">
      <!-- $\mathdefault{10^{0}}$ -->
      <g transform="translate(48.8 322.182437)scale(0.1 -0.1)">
       <defs>
        <path d="M 794 531 
L 1825 531 
L 1825 4091 
L 703 3866 
L 703 4441 
L 1819 4666 
L 2450 4666 
L 2450 531 
L 3481 531 
L 3481 0 
L 794 0 
L 794 531 
z
" id="DejaVuSans-31" transform="scale(0.015625)"/>
        <path d="M 2034 4250 
Q 1547 4250 1301 3770 
Q 1056 3291 1056 2328 
Q 1056 1369 1301 889 
Q 1547 409 2034 409 
Q 2525 409 2770 889 
Q 3016 1369 3016 2328 
Q 3016 3291 2770 3770 
Q 2525 4250 2034 4250 
z
M 2034 4750 
Q 2819 4750 3233 4129 
Q 3647 3509 3647 2328 
Q 3647 1150 3233 529 
Q 2819 -91 2034 -91 
Q 1250 -91 836 529 
Q 422 1150 422 2328 
Q 422 3509 836 4129 
Q 1250 4750 2034 4750 
z
" id="DejaVuSans-30" transform="scale(0.015625)"/>
       </defs>
       <use transform="translate(0 0.765625)" xlink:href="#DejaVuSans-31"/>
       <use transform="translate(63.623047 0.765625)" xlink:href="#DejaVuSans-30"/>
       <use transform="translate(128.203125 39.046875)scale(0.7)" xlink:href="#DejaVuSans-30"/>
      </g>
     </g>
    </g>
    <g id="xtick_2">
     <g id="line2d_2">
      <g>
       <use style="stroke:#000000;stroke-width:0.8;" x="236.16" xlink:href="#m22b26bb812" y="307.584"/>
      </g>
     </g>
     <g id="text_2">
      <!-- $\mathdefault{10^{1}}$ -->
      <g transform="translate(227.36 322.182437)scale(0.1 -0.1)">
       <use transform="translate(0 0.684375)" xlink:href="#DejaVuSans-31"/>
       <use transform="translate(63.623047 0.684375)" xlink:href="#DejaVuSans-30"/>
       <use transform="translate(128.203125 38.965625)scale(0.7)" xlink:href="#DejaVuSans-31"/>
      </g>
     </g>
    </g>
    <g id="xtick_3">
     <g id="line2d_3">
      <g>
       <use style="stroke:#000000;stroke-width:0.8;" x="414.72" xlink:href="#m22b26bb812" y="307.584"/>
      </g>
     </g>
     <g id="text_3">
      <!-- $\mathdefault{10^{2}}$ -->
      <g transform="translate(405.92 322.182437)scale(0.1 -0.1)">
       <defs>
        <path d="M 1228 531 
L 3431 531 
L 3431 0 
L 469 0 
L 469 531 
Q 828 903 1448 1529 
Q 2069 2156 2228 2338 
Q 2531 2678 2651 2914 
Q 2772 3150 2772 3378 
Q 2772 3750 2511 3984 
Q 2250 4219 1831 4219 
Q 1534 4219 1204 4116 
Q 875 4013 500 3803 
L 500 4441 
Q 881 4594 1212 4672 
Q 1544 4750 1819 4750 
Q 2544 4750 2975 4387 
Q 3406 4025 3406 3419 
Q 3406 3131 3298 2873 
Q 3191 2616 2906 2266 
Q 2828 2175 2409 1742 
Q 1991 1309 1228 531 
z
" id="DejaVuSans-32" transform="scale(0.015625)"/>
       </defs>
       <use transform="translate(0 0.765625)" xlink:href="#DejaVuSans-31"/>
       <use transform="translate(63.623047 0.765625)" xlink:href="#DejaVuSans-30"/>
       <use transform="translate(128.203125 39.046875)scale(0.7)" xlink:href="#DejaVuSans-32"/>
      </g>
     </g>
    </g>
    <g id="xtick_4">
     <g id="line2d_4">
      <defs>
       <path d="M 0 0 
L 0 2 
" id="ma00c7fa722" style="stroke:#000000;stroke-width:0.6;"/>
      </defs>
      <g>
       <use style="stroke:#000000;stroke-width:0.6;" x="111.351916" xlink:href="#ma00c7fa722" y="307.584"/>
      </g>
     </g>
    </g>
    <g id="xtick_5">
     <g id="line2d_5">
      <g>
       <use style="stroke:#000000;stroke-width:0.6;" x="142.794771" xlink:href="#ma00c7fa722" y="307.584"/>
      </g>
     </g>
    </g>
    <g id="xtick_6">
     <g id="line2d_6">
      <g>
       <use style="stroke:#000000;stroke-width:0.6;" x="165.103832" xlink:href="#ma00c7fa722" y="307.584"/>
      </g>
     </g>
    </g>
    <g id="xtick_7">
     <g id="line2d_7">
      <g>
       <use style="stroke:#000000;stroke-width:0.6;" x="182.408084" xlink:href="#ma00c7fa722" y="307.584"/>
      </g>
     </g>
    </g>
    <g id="xtick_8">
     <g id="line2d_8">
      <g>
       <use style="stroke:#000000;stroke-width:0.6;" x="196.546687" xlink:href="#ma00c7fa722" y="307.584"/>
      </g>
     </g>
    </g>
    <g id="xtick_9">
     <g id="line2d_9">
      <g>
       <use style="stroke:#000000;stroke-width:0.6;" x="208.500706" xlink:href="#ma00c7fa722" y="307.584"/>
      </g>
     </g>
    </g>
    <g id="xtick_10">
     <g id="line2d_10">
      <g>
       <use style="stroke:#000000;stroke-width:0.6;" x="218.855748" xlink:href="#ma00c7fa722" y="307.584"/>
      </g>
     </g>
    </g>
    <g id="xtick_11">
     <g id="line2d_11">
      <g>
       <use style="stroke:#000000;stroke-width:0.6;" x="227.989542" xlink:href="#ma00c7fa722" y="307.584"/>
      </g>
     </g>
    </g>
    <g id="xtick_12">
     <g id="line2d_12">
      <g>
       <use style="stroke:#000000;stroke-width:0.6;" x="289.911916" xlink:href="#ma00c7fa722" y="307.584"/>
      </g>
     </g>
    </g>
    <g id="xtick_13">
     <g id="line2d_13">
      <g>
       <use style="stroke:#000000;stroke-width:0.6;" x="321.354771" xlink:href="#ma00c7fa722" y="307.584"/>
      </g>
     </g>
    </g>
    <g id="xtick_14">
     <g id="line2d_14">
      <g>
       <use style="stroke:#000000;stroke-width:0.6;" x="343.663832" xlink:href="#ma00c7fa722" y="307.584"/>
      </g>
     </g>
    </g>
    <g id="xtick_15">
     <g id="line2d_15">
      <g>
       <use style="stroke:#000000;stroke-width:0.6;" x="360.968084" xlink:href="#ma00c7fa722" y="307.584"/>
      </g>
     </g>
    </g>
    <g id="xtick_16">
     <g id="line2d_16">
      <g>
       <use style="stroke:#000000;stroke-width:0.6;" x="375.106687" xlink:href="#ma00c7fa722" y="307.584"/>
      </g>
     </g>
    </g>
    <g id="xtick_17">
     <g id="line2d_17">
      <g>
       <use style="stroke:#000000;stroke-width:0.6;" x="387.060706" xlink:href="#ma00c7fa722" y="307.584"/>
      </g>
     </g>
    </g>
    <g id="xtick_18">
     <g id="line2d_18">
      <g>
       <use style="stroke:#000000;stroke-width:0.6;" x="397.415748" xlink:href="#ma00c7fa722" y="307.584"/>
      </g>
     </g>
    </g>
    <g id="xtick_19">
     <g id="line2d_19">
      <g>
       <use style="stroke:#000000;stroke-width:0.6;" x="406.549542" xlink:href="#ma00c7fa722" y="307.584"/>
      </g>
     </g>
    </g>
   </g>
   <g id="matplotlib.axis_2">
    <g id="ytick_1">
     <g id="line2d_20">
      <defs>
       <path d="M 0 0 
L -3.5 0 
" id="mcf5c2072ad" style="stroke:#000000;stroke-width:0.8;"/>
      </defs>
      <g>
       <use style="stroke:#000000;stroke-width:0.8;" x="57.6" xlink:href="#mcf5c2072ad" y="307.584"/>
      </g>
     </g>
     <g id="text_4">
      <!-- 0.00 -->
      <g transform="translate(28.334375 311.383219)scale(0.1 -0.1)">
       <defs>
        <path d="M 684 794 
L 1344 794 
L 1344 0 
L 684 0 
L 684 794 
z
" id="DejaVuSans-2e" transform="scale(0.015625)"/>
       </defs>
       <use xlink:href="#DejaVuSans-30"/>
       <use x="63.623047" xlink:href="#DejaVuSans-2e"/>
       <use x="95.410156" xlink:href="#DejaVuSans-30"/>
       <use x="159.033203" xlink:href="#DejaVuSans-30"/>
      </g>
     </g>
    </g>
    <g id="ytick_2">
     <g id="line2d_21">
      <g>
       <use style="stroke:#000000;stroke-width:0.8;" x="57.6" xlink:href="#mcf5c2072ad" y="257.817916"/>
      </g>
     </g>
     <g id="text_5">
      <!-- 0.01 -->
      <g transform="translate(28.334375 261.617135)scale(0.1 -0.1)">
       <use xlink:href="#DejaVuSans-30"/>
       <use x="63.623047" xlink:href="#DejaVuSans-2e"/>
       <use x="95.410156" xlink:href="#DejaVuSans-30"/>
       <use x="159.033203" xlink:href="#DejaVuSans-31"/>
      </g>
     </g>
    </g>
    <g id="ytick_3">
     <g id="line2d_22">
      <g>
       <use style="stroke:#000000;stroke-width:0.8;" x="57.6" xlink:href="#mcf5c2072ad" y="208.051832"/>
      </g>
     </g>
     <g id="text_6">
      <!-- 0.02 -->
      <g transform="translate(28.334375 211.851051)scale(0.1 -0.1)">
       <use xlink:href="#DejaVuSans-30"/>
       <use x="63.623047" xlink:href="#DejaVuSans-2e"/>
       <use x="95.410156" xlink:href="#DejaVuSans-30"/>
       <use x="159.033203" xlink:href="#DejaVuSans-32"/>
      </g>
     </g>
    </g>
    <g id="ytick_4">
     <g id="line2d_23">
      <g>
       <use style="stroke:#000000;stroke-width:0.8;" x="57.6" xlink:href="#mcf5c2072ad" y="158.285748"/>
      </g>
     </g>
     <g id="text_7">
      <!-- 0.03 -->
      <g transform="translate(28.334375 162.084967)scale(0.1 -0.1)">
       <defs>
        <path d="M 2597 2516 
Q 3050 2419 3304 2112 
Q 3559 1806 3559 1356 
Q 3559 666 3084 287 
Q 2609 -91 1734 -91 
Q 1441 -91 1130 -33 
Q 819 25 488 141 
L 488 750 
Q 750 597 1062 519 
Q 1375 441 1716 441 
Q 2309 441 2620 675 
Q 2931 909 2931 1356 
Q 2931 1769 2642 2001 
Q 2353 2234 1838 2234 
L 1294 2234 
L 1294 2753 
L 1863 2753 
Q 2328 2753 2575 2939 
Q 2822 3125 2822 3475 
Q 2822 3834 2567 4026 
Q 2313 4219 1838 4219 
Q 1578 4219 1281 4162 
Q 984 4106 628 3988 
L 628 4550 
Q 988 4650 1302 4700 
Q 1616 4750 1894 4750 
Q 2613 4750 3031 4423 
Q 3450 4097 3450 3541 
Q 3450 3153 3228 2886 
Q 3006 2619 2597 2516 
z
" id="DejaVuSans-33" transform="scale(0.015625)"/>
       </defs>
       <use xlink:href="#DejaVuSans-30"/>
       <use x="63.623047" xlink:href="#DejaVuSans-2e"/>
       <use x="95.410156" xlink:href="#DejaVuSans-30"/>
       <use x="159.033203" xlink:href="#DejaVuSans-33"/>
      </g>
     </g>
    </g>
    <g id="ytick_5">
     <g id="line2d_24">
      <g>
       <use style="stroke:#000000;stroke-width:0.8;" x="57.6" xlink:href="#mcf5c2072ad" y="108.519664"/>
      </g>
     </g>
     <g id="text_8">
      <!-- 0.04 -->
      <g transform="translate(28.334375 112.318883)scale(0.1 -0.1)">
       <defs>
        <path d="M 2419 4116 
L 825 1625 
L 2419 1625 
L 2419 4116 
z
M 2253 4666 
L 3047 4666 
L 3047 1625 
L 3713 1625 
L 3713 1100 
L 3047 1100 
L 3047 0 
L 2419 0 
L 2419 1100 
L 313 1100 
L 313 1709 
L 2253 4666 
z
" id="DejaVuSans-34" transform="scale(0.015625)"/>
       </defs>
       <use xlink:href="#DejaVuSans-30"/>
       <use x="63.623047" xlink:href="#DejaVuSans-2e"/>
       <use x="95.410156" xlink:href="#DejaVuSans-30"/>
       <use x="159.033203" xlink:href="#DejaVuSans-34"/>
      </g>
     </g>
    </g>
    <g id="ytick_6">
     <g id="line2d_25">
      <g>
       <use style="stroke:#000000;stroke-width:0.8;" x="57.6" xlink:href="#mcf5c2072ad" y="58.75358"/>
      </g>
     </g>
     <g id="text_9">
      <!-- 0.05 -->
      <g transform="translate(28.334375 62.552799)scale(0.1 -0.1)">
       <defs>
        <path d="M 691 4666 
L 3169 4666 
L 3169 4134 
L 1269 4134 
L 1269 2991 
Q 1406 3038 1543 3061 
Q 1681 3084 1819 3084 
Q 2600 3084 3056 2656 
Q 3513 2228 3513 1497 
Q 3513 744 3044 326 
Q 2575 -91 1722 -91 
Q 1428 -91 1123 -41 
Q 819 9 494 109 
L 494 744 
Q 775 591 1075 516 
Q 1375 441 1709 441 
Q 2250 441 2565 725 
Q 2881 1009 2881 1497 
Q 2881 1984 2565 2268 
Q 2250 2553 1709 2553 
Q 1456 2553 1204 2497 
Q 953 2441 691 2322 
L 691 4666 
z
" id="DejaVuSans-35" transform="scale(0.015625)"/>
       </defs>
       <use xlink:href="#DejaVuSans-30"/>
       <use x="63.623047" xlink:href="#DejaVuSans-2e"/>
       <use x="95.410156" xlink:href="#DejaVuSans-30"/>
       <use x="159.033203" xlink:href="#DejaVuSans-35"/>
      </g>
     </g>
    </g>
   </g>
   <g id="line2d_26">
    <path clip-path="url(#pac7173c40f)" d="M -1 307.584 
L 58.438361 307.584 
L 112.190277 307.583997 
L 143.633132 307.58398 
L 165.942193 307.583891 
L 183.246445 307.583514 
L 197.385048 307.582157 
L 209.339067 307.577906 
L 219.694109 307.566058 
L 228.827903 307.536239 
L 236.998361 307.467627 
L 244.389439 307.321893 
L 251.136964 307.033869 
L 257.344086 306.500701 
L 263.090983 305.571165 
L 268.441216 304.03772 
L 273.446025 301.634458 
L 278.14732 298.04404 
L 282.579819 292.915841 
L 286.772604 285.895832 
L 290.750277 276.666509 
L 294.533838 264.99281 
L 298.141355 250.768078 
L 301.588483 234.053118 
L 304.88888 215.101638 
L 308.054529 194.366867 
L 311.096002 172.486679 
L 314.022675 150.247618 
L 316.842899 128.531307 
L 319.564147 108.249198 
L 322.193132 90.273193 
L 324.735905 75.36993 
L 327.197941 64.145793 
L 329.58421 57.00789 
L 331.899236 54.144 
L 334.147151 55.521976 
L 336.331735 60.906883 
L 338.456461 69.892387 
L 340.52452 81.941857 
L 342.538857 96.434251 
L 344.502193 112.710147 
L 346.417046 130.113983 
L 348.285754 148.029631 
L 350.110488 165.907582 
L 351.893271 183.283105 
L 353.635987 199.785691 
L 355.340399 215.140787 
L 357.008154 229.165292 
L 358.640796 241.758458 
L 360.239773 252.889872 
L 361.806445 262.586004 
L 363.342091 270.916583 
L 364.847918 277.981748 
L 366.32506 283.900627 
L 367.774591 288.801703 
L 369.197523 292.81513 
L 370.594815 296.066938 
L 371.967375 298.674973 
L 373.316063 300.746346 
L 374.641696 302.376102 
L 375.945048 303.646841 
L 377.226856 304.629038 
L 378.487821 305.381838 
L 379.728609 305.954134 
L 380.949857 306.385787 
L 382.15217 306.708883 
L 383.336126 306.948936 
L 384.502278 307.126012 
L 385.651152 307.255723 
L 386.783254 307.350097 
L 387.899067 307.418308 
L 388.999052 307.467294 
L 390.083651 307.502254 
L 391.153291 307.527052 
L 392.208377 307.544538 
L 393.2493 307.556798 
L 394.276436 307.565344 
L 395.290145 307.571269 
L 396.290773 307.575354 
L 397.278654 307.578157 
L 398.254109 307.580069 
L 399.217446 307.581368 
L 400.168962 307.582246 
L 401.108945 307.582836 
L 402.03767 307.583231 
L 402.955404 307.583494 
L 403.862404 307.583668 
L 404.758919 307.583784 
L 405.645187 307.583859 
L 406.52144 307.583909 
L 407.387903 307.583941 
L 408.244792 307.583962 
L 409.092315 307.583976 
" style="fill:none;stroke:#ff7f0e;stroke-linecap:square;stroke-width:1.5;"/>
   </g>
   <g id="patch_90">
    <path d="M 57.6 307.584 
L 57.6 41.472 
" style="fill:none;stroke:#000000;stroke-linecap:square;stroke-linejoin:miter;stroke-width:0.8;"/>
   </g>
   <g id="patch_91">
    <path d="M 414.72 307.584 
L 414.72 41.472 
" style="fill:none;stroke:#000000;stroke-linecap:square;stroke-linejoin:miter;stroke-width:0.8;"/>
   </g>
   <g id="patch_92">
    <path d="M 57.6 307.584 
L 414.72 307.584 
" style="fill:none;stroke:#000000;stroke-linecap:square;stroke-linejoin:miter;stroke-width:0.8;"/>
   </g>
   <g id="patch_93">
    <path d="M 57.6 41.472 
L 414.72 41.472 
" style="fill:none;stroke:#000000;stroke-linecap:square;stroke-linejoin:miter;stroke-width:0.8;"/>
   </g>
  </g>
 </g>
 <defs>
  <clipPath id="pac7173c40f">
   <rect height="266.112" width="357.12" x="57.6" y="41.472"/>
  </clipPath>
 </defs>
</svg>
