<?xml version="1.0" encoding="utf-8" standalone="no"?>
<!DOCTYPE svg PUBLIC "-//W3C//DTD SVG 1.1//EN"
  "http://www.w3.org/Graphics/SVG/1.1/DTD/svg11.dtd">
<svg height="345.6pt" version="1.1" viewBox="0 0 460.8 345.6" width="460.8pt" xmlns="http://www.w3.org/2000/svg" xmlns:xlink="http://www.w3.org/1999/xlink">
 <metadata>
  <rdf:RDF xmlns:cc="http://creativecommons.org/ns#" xmlns:dc="http://purl.org/dc/elements/1.1/" xmlns:rdf="http://www.w3.org/1999/02/22-rdf-syntax-ns#">
   <cc:Work>
    <dc:type rdf:resource="http://purl.org/dc/dcmitype/StillImage"/>
    <dc:date>2021-09-13T16:54:40.005172</dc:date>
    <dc:format>image/svg+xml</dc:format>
    <dc:creator>
     <cc:Agent>
      <dc:title>Matplotlib v3.4.3, https://matplotlib.org/</dc:title>
     </cc:Agent>
    </dc:creator>
   </cc:Work>
  </rdf:RDF>
 </metadata>
 <defs>
  <style type="text/css">*{stroke-linecap:butt;stroke-linejoin:round;}</style>
 </defs>
 <g id="figure_1">
  <g id="patch_1">
   <path d="M 0 345.6 
L 460.8 345.6 
L 460.8 0 
L 0 0 
z
" style="fill:#ffffff;"/>
  </g>
  <g id="axes_1">
   <g id="patch_2">
    <path d="M 57.6 307.584 
L 414.72 307.584 
L 414.72 41.472 
L 57.6 41.472 
z
" style="fill:#ffffff;"/>
   </g>
   <g id="patch_3">
    <path clip-path="url(#p4034349513)" d="M -178502.4 307.584 
L 57.6 307.584 
L 57.6 307.489644 
L -178502.4 307.489644 
z
" style="fill:#1f77b4;"/>
   </g>
   <g id="patch_4">
    <path clip-path="url(#p4034349513)" d="M 57.6 307.584 
L 111.351916 307.584 
L 111.351916 307.300932 
L 57.6 307.300932 
z
" style="fill:#1f77b4;"/>
   </g>
   <g id="patch_5">
    <path clip-path="url(#p4034349513)" d="M 111.351916 307.584 
L 142.794771 307.584 
L 142.794771 305.885593 
L 111.351916 305.885593 
z
" style="fill:#1f77b4;"/>
   </g>
   <g id="patch_6">
    <path clip-path="url(#p4034349513)" d="M 142.794771 307.584 
L 165.103832 307.584 
L 165.103832 303.715407 
L 142.794771 303.715407 
z
" style="fill:#1f77b4;"/>
   </g>
   <g id="patch_7">
    <path clip-path="url(#p4034349513)" d="M 165.103832 307.584 
L 182.408084 307.584 
L 182.408084 299.752459 
L 165.103832 299.752459 
z
" style="fill:#1f77b4;"/>
   </g>
   <g id="patch_8">
    <path clip-path="url(#p4034349513)" d="M 182.408084 307.584 
L 196.546687 307.584 
L 196.546687 299.186323 
L 182.408084 299.186323 
z
" style="fill:#1f77b4;"/>
   </g>
   <g id="patch_9">
    <path clip-path="url(#p4034349513)" d="M 196.546687 307.584 
L 208.500706 307.584 
L 208.500706 289.656375 
L 196.546687 289.656375 
z
" style="fill:#1f77b4;"/>
   </g>
   <g id="patch_10">
    <path clip-path="url(#p4034349513)" d="M 208.500706 307.584 
L 218.855748 307.584 
L 218.855748 279.277224 
L 208.500706 279.277224 
z
" style="fill:#1f77b4;"/>
   </g>
   <g id="patch_11">
    <path clip-path="url(#p4034349513)" d="M 218.855748 307.584 
L 227.989542 307.584 
L 227.989542 266.539175 
L 218.855748 266.539175 
z
" style="fill:#1f77b4;"/>
   </g>
   <g id="patch_12">
    <path clip-path="url(#p4034349513)" d="M 227.989542 307.584 
L 236.16 307.584 
L 236.16 256.537448 
L 227.989542 256.537448 
z
" style="fill:#1f77b4;"/>
   </g>
   <g id="patch_13">
    <path clip-path="url(#p4034349513)" d="M 236.16 307.584 
L 243.551078 307.584 
L 243.551078 237.854975 
L 236.16 237.854975 
z
" style="fill:#1f77b4;"/>
   </g>
   <g id="patch_14">
    <path clip-path="url(#p4034349513)" d="M 243.551078 307.584 
L 250.298603 307.584 
L 250.298603 226.532265 
L 243.551078 226.532265 
z
" style="fill:#1f77b4;"/>
   </g>
   <g id="patch_15">
    <path clip-path="url(#p4034349513)" d="M 250.298603 307.584 
L 256.505725 307.584 
L 256.505725 207.00059 
L 250.298603 207.00059 
z
" style="fill:#1f77b4;"/>
   </g>
   <g id="patch_16">
    <path clip-path="url(#p4034349513)" d="M 256.505725 307.584 
L 262.252622 307.584 
L 262.252622 187.374558 
L 256.505725 187.374558 
z
" style="fill:#1f77b4;"/>
   </g>
   <g id="patch_17">
    <path clip-path="url(#p4034349513)" d="M 262.252622 307.584 
L 267.602855 307.584 
L 267.602855 174.636509 
L 262.252622 174.636509 
z
" style="fill:#1f77b4;"/>
   </g>
   <g id="patch_18">
    <path clip-path="url(#p4034349513)" d="M 267.602855 307.584 
L 272.607664 307.584 
L 272.607664 154.633054 
L 267.602855 154.633054 
z
" style="fill:#1f77b4;"/>
   </g>
   <g id="patch_19">
    <path clip-path="url(#p4034349513)" d="M 272.607664 307.584 
L 277.308959 307.584 
L 277.308959 147.084581 
L 272.607664 147.084581 
z
" style="fill:#1f77b4;"/>
   </g>
   <g id="patch_20">
    <path clip-path="url(#p4034349513)" d="M 277.308959 307.584 
L 281.741459 307.584 
L 281.741459 132.931193 
L 277.308959 132.931193 
z
" style="fill:#1f77b4;"/>
   </g>
   <g id="patch_21">
    <path clip-path="url(#p4034349513)" d="M 281.741459 307.584 
L 285.934243 307.584 
L 285.934243 101.32196 
L 281.741459 101.32196 
z
" style="fill:#1f77b4;"/>
   </g>
   <g id="patch_22">
    <path clip-path="url(#p4034349513)" d="M 285.934243 307.584 
L 289.911916 307.584 
L 289.911916 106.417179 
L 285.934243 106.417179 
z
" style="fill:#1f77b4;"/>
   </g>
   <g id="patch_23">
    <path clip-path="url(#p4034349513)" d="M 289.911916 307.584 
L 293.695477 307.584 
L 293.695477 94.15091 
L 289.911916 94.15091 
z
" style="fill:#1f77b4;"/>
   </g>
   <g id="patch_24">
    <path clip-path="url(#p4034349513)" d="M 293.695477 307.584 
L 297.302994 307.584 
L 297.302994 81.318505 
L 293.695477 81.318505 
z
" style="fill:#1f77b4;"/>
   </g>
   <g id="patch_25">
    <path clip-path="url(#p4034349513)" d="M 297.302994 307.584 
L 300.750122 307.584 
L 300.750122 75.940217 
L 297.302994 75.940217 
z
" style="fill:#1f77b4;"/>
   </g>
   <g id="patch_26">
    <path clip-path="url(#p4034349513)" d="M 300.750122 307.584 
L 304.050519 307.584 
L 304.050519 67.353829 
L 300.750122 67.353829 
z
" style="fill:#1f77b4;"/>
   </g>
   <g id="patch_27">
    <path clip-path="url(#p4034349513)" d="M 304.050519 307.584 
L 307.216168 307.584 
L 307.216168 64.994931 
L 304.050519 64.994931 
z
" style="fill:#1f77b4;"/>
   </g>
   <g id="patch_28">
    <path clip-path="url(#p4034349513)" d="M 307.216168 307.584 
L 310.257641 307.584 
L 310.257641 56.69161 
L 307.216168 56.69161 
z
" style="fill:#1f77b4;"/>
   </g>
   <g id="patch_29">
    <path clip-path="url(#p4034349513)" d="M 310.257641 307.584 
L 313.184314 307.584 
L 313.184314 64.994931 
L 310.257641 64.994931 
z
" style="fill:#1f77b4;"/>
   </g>
   <g id="patch_30">
    <path clip-path="url(#p4034349513)" d="M 313.184314 307.584 
L 316.004538 307.584 
L 316.004538 54.144 
L 313.184314 54.144 
z
" style="fill:#1f77b4;"/>
   </g>
   <g id="patch_31">
    <path clip-path="url(#p4034349513)" d="M 316.004538 307.584 
L 318.725787 307.584 
L 318.725787 68.769168 
L 316.004538 68.769168 
z
" style="fill:#1f77b4;"/>
   </g>
   <g id="patch_32">
    <path clip-path="url(#p4034349513)" d="M 318.725787 307.584 
L 321.354771 307.584 
L 321.354771 66.693337 
L 318.725787 66.693337 
z
" style="fill:#1f77b4;"/>
   </g>
   <g id="patch_33">
    <path clip-path="url(#p4034349513)" d="M 321.354771 307.584 
L 323.897544 307.584 
L 323.897544 68.297388 
L 321.354771 68.297388 
z
" style="fill:#1f77b4;"/>
   </g>
   <g id="patch_34">
    <path clip-path="url(#p4034349513)" d="M 323.897544 307.584 
L 326.35958 307.584 
L 326.35958 77.921692 
L 323.897544 77.921692 
z
" style="fill:#1f77b4;"/>
   </g>
   <g id="patch_35">
    <path clip-path="url(#p4034349513)" d="M 326.35958 307.584 
L 328.745849 307.584 
L 328.745849 84.243538 
L 326.35958 84.243538 
z
" style="fill:#1f77b4;"/>
   </g>
   <g id="patch_36">
    <path clip-path="url(#p4034349513)" d="M 328.745849 307.584 
L 331.060875 307.584 
L 331.060875 73.581319 
L 328.745849 73.581319 
z
" style="fill:#1f77b4;"/>
   </g>
   <g id="patch_37">
    <path clip-path="url(#p4034349513)" d="M 331.060875 307.584 
L 333.30879 307.584 
L 333.30879 97.075943 
L 331.060875 97.075943 
z
" style="fill:#1f77b4;"/>
   </g>
   <g id="patch_38">
    <path clip-path="url(#p4034349513)" d="M 333.30879 307.584 
L 335.493375 307.584 
L 335.493375 103.020366 
L 333.30879 103.020366 
z
" style="fill:#1f77b4;"/>
   </g>
   <g id="patch_39">
    <path clip-path="url(#p4034349513)" d="M 335.493375 307.584 
L 337.6181 307.584 
L 337.6181 100.567112 
L 335.493375 100.567112 
z
" style="fill:#1f77b4;"/>
   </g>
   <g id="patch_40">
    <path clip-path="url(#p4034349513)" d="M 337.6181 307.584 
L 339.686159 307.584 
L 339.686159 110.191416 
L 337.6181 110.191416 
z
" style="fill:#1f77b4;"/>
   </g>
   <g id="patch_41">
    <path clip-path="url(#p4034349513)" d="M 339.686159 307.584 
L 341.700496 307.584 
L 341.700496 114.248721 
L 339.686159 114.248721 
z
" style="fill:#1f77b4;"/>
   </g>
   <g id="patch_42">
    <path clip-path="url(#p4034349513)" d="M 341.700496 307.584 
L 343.663832 307.584 
L 343.663832 120.570567 
L 341.700496 120.570567 
z
" style="fill:#1f77b4;"/>
   </g>
   <g id="patch_43">
    <path clip-path="url(#p4034349513)" d="M 343.663832 307.584 
L 345.578685 307.584 
L 345.578685 127.552905 
L 343.663832 127.552905 
z
" style="fill:#1f77b4;"/>
   </g>
   <g id="patch_44">
    <path clip-path="url(#p4034349513)" d="M 345.578685 307.584 
L 347.447393 307.584 
L 347.447393 141.32887 
L 345.578685 141.32887 
z
" style="fill:#1f77b4;"/>
   </g>
   <g id="patch_45">
    <path clip-path="url(#p4034349513)" d="M 347.447393 307.584 
L 349.272127 307.584 
L 349.272127 143.121632 
L 347.447393 143.121632 
z
" style="fill:#1f77b4;"/>
   </g>
   <g id="patch_46">
    <path clip-path="url(#p4034349513)" d="M 349.272127 307.584 
L 351.05491 307.584 
L 351.05491 156.991952 
L 349.272127 156.991952 
z
" style="fill:#1f77b4;"/>
   </g>
   <g id="patch_47">
    <path clip-path="url(#p4034349513)" d="M 351.05491 307.584 
L 352.797626 307.584 
L 352.797626 161.143613 
L 351.05491 161.143613 
z
" style="fill:#1f77b4;"/>
   </g>
   <g id="patch_48">
    <path clip-path="url(#p4034349513)" d="M 352.797626 307.584 
L 354.502038 307.584 
L 354.502038 168.409019 
L 352.797626 168.409019 
z
" style="fill:#1f77b4;"/>
   </g>
   <g id="patch_49">
    <path clip-path="url(#p4034349513)" d="M 354.502038 307.584 
L 356.169794 307.584 
L 356.169794 166.804968 
L 354.502038 166.804968 
z
" style="fill:#1f77b4;"/>
   </g>
   <g id="patch_50">
    <path clip-path="url(#p4034349513)" d="M 356.169794 307.584 
L 357.802435 307.584 
L 357.802435 179.165593 
L 356.169794 179.165593 
z
" style="fill:#1f77b4;"/>
   </g>
   <g id="patch_51">
    <path clip-path="url(#p4034349513)" d="M 357.802435 307.584 
L 359.401412 307.584 
L 359.401412 185.770508 
L 357.802435 185.770508 
z
" style="fill:#1f77b4;"/>
   </g>
   <g id="patch_52">
    <path clip-path="url(#p4034349513)" d="M 359.401412 307.584 
L 360.968084 307.584 
L 360.968084 186.053576 
L 359.401412 186.053576 
z
" style="fill:#1f77b4;"/>
   </g>
   <g id="patch_53">
    <path clip-path="url(#p4034349513)" d="M 360.968084 307.584 
L 362.503731 307.584 
L 362.503731 202.848929 
L 360.968084 202.848929 
z
" style="fill:#1f77b4;"/>
   </g>
   <g id="patch_54">
    <path clip-path="url(#p4034349513)" d="M 362.503731 307.584 
L 364.009557 307.584 
L 364.009557 203.603777 
L 362.503731 203.603777 
z
" style="fill:#1f77b4;"/>
   </g>
   <g id="patch_55">
    <path clip-path="url(#p4034349513)" d="M 364.009557 307.584 
L 365.486699 307.584 
L 365.486699 205.302183 
L 364.009557 205.302183 
z
" style="fill:#1f77b4;"/>
   </g>
   <g id="patch_56">
    <path clip-path="url(#p4034349513)" d="M 365.486699 307.584 
L 366.93623 307.584 
L 366.93623 212.473233 
L 365.486699 212.473233 
z
" style="fill:#1f77b4;"/>
   </g>
   <g id="patch_57">
    <path clip-path="url(#p4034349513)" d="M 366.93623 307.584 
L 368.359162 307.584 
L 368.359162 219.078147 
L 366.93623 219.078147 
z
" style="fill:#1f77b4;"/>
   </g>
   <g id="patch_58">
    <path clip-path="url(#p4034349513)" d="M 368.359162 307.584 
L 369.756454 307.584 
L 369.756454 225.683062 
L 368.359162 225.683062 
z
" style="fill:#1f77b4;"/>
   </g>
   <g id="patch_59">
    <path clip-path="url(#p4034349513)" d="M 369.756454 307.584 
L 371.129014 307.584 
L 371.129014 231.155705 
L 369.756454 231.155705 
z
" style="fill:#1f77b4;"/>
   </g>
   <g id="patch_60">
    <path clip-path="url(#p4034349513)" d="M 371.129014 307.584 
L 372.477703 307.584 
L 372.477703 234.080739 
L 371.129014 234.080739 
z
" style="fill:#1f77b4;"/>
   </g>
   <g id="patch_61">
    <path clip-path="url(#p4034349513)" d="M 372.477703 307.584 
L 373.803335 307.584 
L 373.803335 236.156569 
L 372.477703 236.156569 
z
" style="fill:#1f77b4;"/>
   </g>
   <g id="patch_62">
    <path clip-path="url(#p4034349513)" d="M 373.803335 307.584 
L 375.106687 307.584 
L 375.106687 245.214737 
L 373.803335 245.214737 
z
" style="fill:#1f77b4;"/>
   </g>
   <g id="patch_63">
    <path clip-path="url(#p4034349513)" d="M 375.106687 307.584 
L 376.388495 307.584 
L 376.388495 243.327619 
L 375.106687 243.327619 
z
" style="fill:#1f77b4;"/>
   </g>
   <g id="patch_64">
    <path clip-path="url(#p4034349513)" d="M 376.388495 307.584 
L 377.64946 307.584 
L 377.64946 245.875229 
L 376.388495 245.875229 
z
" style="fill:#1f77b4;"/>
   </g>
   <g id="patch_65">
    <path clip-path="url(#p4034349513)" d="M 377.64946 307.584 
L 378.890249 307.584 
L 378.890249 250.970448 
L 377.64946 250.970448 
z
" style="fill:#1f77b4;"/>
   </g>
   <g id="patch_66">
    <path clip-path="url(#p4034349513)" d="M 378.890249 307.584 
L 380.111496 307.584 
L 380.111496 256.348736 
L 378.890249 256.348736 
z
" style="fill:#1f77b4;"/>
   </g>
   <g id="patch_67">
    <path clip-path="url(#p4034349513)" d="M 380.111496 307.584 
L 381.313809 307.584 
L 381.313809 258.518922 
L 380.111496 258.518922 
z
" style="fill:#1f77b4;"/>
   </g>
   <g id="patch_68">
    <path clip-path="url(#p4034349513)" d="M 381.313809 307.584 
L 382.497765 307.584 
L 382.497765 264.274633 
L 381.313809 264.274633 
z
" style="fill:#1f77b4;"/>
   </g>
   <g id="patch_69">
    <path clip-path="url(#p4034349513)" d="M 382.497765 307.584 
L 383.663917 307.584 
L 383.663917 262.859294 
L 382.497765 262.859294 
z
" style="fill:#1f77b4;"/>
   </g>
   <g id="patch_70">
    <path clip-path="url(#p4034349513)" d="M 383.663917 307.584 
L 384.812791 307.584 
L 384.812791 265.595616 
L 383.663917 265.595616 
z
" style="fill:#1f77b4;"/>
   </g>
   <g id="patch_71">
    <path clip-path="url(#p4034349513)" d="M 384.812791 307.584 
L 385.944894 307.584 
L 385.944894 269.086785 
L 384.812791 269.086785 
z
" style="fill:#1f77b4;"/>
   </g>
   <g id="patch_72">
    <path clip-path="url(#p4034349513)" d="M 385.944894 307.584 
L 387.060706 307.584 
L 387.060706 270.030344 
L 385.944894 270.030344 
z
" style="fill:#1f77b4;"/>
   </g>
   <g id="patch_73">
    <path clip-path="url(#p4034349513)" d="M 387.060706 307.584 
L 388.160691 307.584 
L 388.160691 274.087649 
L 387.060706 274.087649 
z
" style="fill:#1f77b4;"/>
   </g>
   <g id="patch_74">
    <path clip-path="url(#p4034349513)" d="M 388.160691 307.584 
L 389.245291 307.584 
L 389.245291 275.408631 
L 388.160691 275.408631 
z
" style="fill:#1f77b4;"/>
   </g>
   <g id="patch_75">
    <path clip-path="url(#p4034349513)" d="M 389.245291 307.584 
L 390.31493 307.584 
L 390.31493 278.711089 
L 389.245291 278.711089 
z
" style="fill:#1f77b4;"/>
   </g>
   <g id="patch_76">
    <path clip-path="url(#p4034349513)" d="M 390.31493 307.584 
L 391.370016 307.584 
L 391.370016 278.522377 
L 390.31493 278.522377 
z
" style="fill:#1f77b4;"/>
   </g>
   <g id="patch_77">
    <path clip-path="url(#p4034349513)" d="M 391.370016 307.584 
L 392.410939 307.584 
L 392.410939 279.84336 
L 391.370016 279.84336 
z
" style="fill:#1f77b4;"/>
   </g>
   <g id="patch_78">
    <path clip-path="url(#p4034349513)" d="M 392.410939 307.584 
L 393.438075 307.584 
L 393.438075 282.674037 
L 392.410939 282.674037 
z
" style="fill:#1f77b4;"/>
   </g>
   <g id="patch_79">
    <path clip-path="url(#p4034349513)" d="M 393.438075 307.584 
L 394.451784 307.584 
L 394.451784 286.07085 
L 393.438075 286.07085 
z
" style="fill:#1f77b4;"/>
   </g>
   <g id="patch_80">
    <path clip-path="url(#p4034349513)" d="M 394.451784 307.584 
L 395.452412 307.584 
L 395.452412 284.561156 
L 394.451784 284.561156 
z
" style="fill:#1f77b4;"/>
   </g>
   <g id="patch_81">
    <path clip-path="url(#p4034349513)" d="M 395.452412 307.584 
L 396.440293 307.584 
L 396.440293 286.636986 
L 395.452412 286.636986 
z
" style="fill:#1f77b4;"/>
   </g>
   <g id="patch_82">
    <path clip-path="url(#p4034349513)" d="M 396.440293 307.584 
L 397.415748 307.584 
L 397.415748 288.524104 
L 396.440293 288.524104 
z
" style="fill:#1f77b4;"/>
   </g>
   <g id="patch_83">
    <path clip-path="url(#p4034349513)" d="M 397.415748 307.584 
L 398.379085 307.584 
L 398.379085 288.712816 
L 397.415748 288.712816 
z
" style="fill:#1f77b4;"/>
   </g>
   <g id="patch_84">
    <path clip-path="url(#p4034349513)" d="M 398.379085 307.584 
L 399.330601 307.584 
L 399.330601 290.128155 
L 398.379085 290.128155 
z
" style="fill:#1f77b4;"/>
   </g>
   <g id="patch_85">
    <path clip-path="url(#p4034349513)" d="M 399.330601 307.584 
L 400.270584 307.584 
L 400.270584 291.63785 
L 399.330601 291.63785 
z
" style="fill:#1f77b4;"/>
   </g>
   <g id="patch_86">
    <path clip-path="url(#p4034349513)" d="M 400.270584 307.584 
L 401.199309 307.584 
L 401.199309 291.732206 
L 400.270584 291.732206 
z
" style="fill:#1f77b4;"/>
   </g>
   <g id="patch_87">
    <path clip-path="url(#p4034349513)" d="M 401.199309 307.584 
L 402.117043 307.584 
L 402.117043 294.562883 
L 401.199309 294.562883 
z
" style="fill:#1f77b4;"/>
   </g>
   <g id="patch_88">
    <path clip-path="url(#p4034349513)" d="M 402.117043 307.584 
L 403.024043 307.584 
L 403.024043 295.223375 
L 402.117043 295.223375 
z
" style="fill:#1f77b4;"/>
   </g>
   <g id="patch_89">
    <path clip-path="url(#p4034349513)" d="M 403.024043 307.584 
L 403.920558 307.584 
L 403.920558 294.562883 
L 403.024043 294.562883 
z
" style="fill:#1f77b4;"/>
   </g>
   <g id="patch_90">
    <path clip-path="url(#p4034349513)" d="M 403.920558 307.584 
L 404.806826 307.584 
L 404.806826 294.562883 
L 403.920558 294.562883 
z
" style="fill:#1f77b4;"/>
   </g>
   <g id="patch_91">
    <path clip-path="url(#p4034349513)" d="M 404.806826 307.584 
L 405.68308 307.584 
L 405.68308 296.733069 
L 404.806826 296.733069 
z
" style="fill:#1f77b4;"/>
   </g>
   <g id="patch_92">
    <path clip-path="url(#p4034349513)" d="M 405.68308 307.584 
L 406.549542 307.584 
L 406.549542 296.638713 
L 405.68308 296.638713 
z
" style="fill:#1f77b4;"/>
   </g>
   <g id="patch_93">
    <path clip-path="url(#p4034349513)" d="M 406.549542 307.584 
L 407.406431 307.584 
L 407.406431 296.450001 
L 406.549542 296.450001 
z
" style="fill:#1f77b4;"/>
   </g>
   <g id="patch_94">
    <path clip-path="url(#p4034349513)" d="M 407.406431 307.584 
L 408.253954 307.584 
L 408.253954 300.41295 
L 407.406431 300.41295 
z
" style="fill:#1f77b4;"/>
   </g>
   <g id="patch_95">
    <path clip-path="url(#p4034349513)" d="M 408.253954 307.584 
L 409.092315 307.584 
L 409.092315 299.469391 
L 408.253954 299.469391 
z
" style="fill:#1f77b4;"/>
   </g>
   <g id="patch_96">
    <path clip-path="url(#p4034349513)" d="M 409.092315 307.584 
L 409.92171 307.584 
L 409.92171 299.186323 
L 409.092315 299.186323 
z
" style="fill:#1f77b4;"/>
   </g>
   <g id="patch_97">
    <path clip-path="url(#p4034349513)" d="M 409.92171 307.584 
L 410.742327 307.584 
L 410.742327 300.035526 
L 409.92171 300.035526 
z
" style="fill:#1f77b4;"/>
   </g>
   <g id="patch_98">
    <path clip-path="url(#p4034349513)" d="M 410.742327 307.584 
L 411.554351 307.584 
L 411.554351 299.280679 
L 410.742327 299.280679 
z
" style="fill:#1f77b4;"/>
   </g>
   <g id="patch_99">
    <path clip-path="url(#p4034349513)" d="M 411.554351 307.584 
L 412.357961 307.584 
L 412.357961 301.545221 
L 411.554351 301.545221 
z
" style="fill:#1f77b4;"/>
   </g>
   <g id="patch_100">
    <path clip-path="url(#p4034349513)" d="M 412.357961 307.584 
L 413.153328 307.584 
L 413.153328 302.111357 
L 412.357961 302.111357 
z
" style="fill:#1f77b4;"/>
   </g>
   <g id="patch_101">
    <path clip-path="url(#p4034349513)" d="M 413.153328 307.584 
L 413.94062 307.584 
L 413.94062 301.922645 
L 413.153328 301.922645 
z
" style="fill:#1f77b4;"/>
   </g>
   <g id="patch_102">
    <path clip-path="url(#p4034349513)" d="M 413.94062 307.584 
L 414.72 307.584 
L 414.72 301.639577 
L 413.94062 301.639577 
z
" style="fill:#1f77b4;"/>
   </g>
   <g id="patch_103">
    <path clip-path="url(#p4034349513)" d="M 414.72 307.584 
L 415.491625 307.584 
L 415.491625 302.96056 
L 414.72 302.96056 
z
" style="fill:#1f77b4;"/>
   </g>
   <g id="patch_104">
    <path clip-path="url(#p4034349513)" d="M 415.491625 307.584 
L 416.255647 307.584 
L 416.255647 302.394424 
L 415.491625 302.394424 
z
" style="fill:#1f77b4;"/>
   </g>
   <g id="patch_105">
    <path clip-path="url(#p4034349513)" d="M 416.255647 307.584 
L 417.012215 307.584 
L 417.012215 303.149272 
L 416.255647 303.149272 
z
" style="fill:#1f77b4;"/>
   </g>
   <g id="patch_106">
    <path clip-path="url(#p4034349513)" d="M 417.012215 307.584 
L 417.761473 307.584 
L 417.761473 303.337984 
L 417.012215 303.337984 
z
" style="fill:#1f77b4;"/>
   </g>
   <g id="patch_107">
    <path clip-path="url(#p4034349513)" d="M 417.761473 307.584 
L 418.503561 307.584 
L 418.503561 303.715407 
L 417.761473 303.715407 
z
" style="fill:#1f77b4;"/>
   </g>
   <g id="patch_108">
    <path clip-path="url(#p4034349513)" d="M 418.503561 307.584 
L 419.238615 307.584 
L 419.238615 303.998475 
L 418.503561 303.998475 
z
" style="fill:#1f77b4;"/>
   </g>
   <g id="patch_109">
    <path clip-path="url(#p4034349513)" d="M 419.238615 307.584 
L 419.966767 307.584 
L 419.966767 303.998475 
L 419.238615 303.998475 
z
" style="fill:#1f77b4;"/>
   </g>
   <g id="patch_110">
    <path clip-path="url(#p4034349513)" d="M 419.966767 307.584 
L 420.688146 307.584 
L 420.688146 304.281543 
L 419.966767 304.281543 
z
" style="fill:#1f77b4;"/>
   </g>
   <g id="patch_111">
    <path clip-path="url(#p4034349513)" d="M 420.688146 307.584 
L 421.402875 307.584 
L 421.402875 304.470255 
L 420.688146 304.470255 
z
" style="fill:#1f77b4;"/>
   </g>
   <g id="patch_112">
    <path clip-path="url(#p4034349513)" d="M 421.402875 307.584 
L 422.111078 307.584 
L 422.111078 305.225102 
L 421.402875 305.225102 
z
" style="fill:#1f77b4;"/>
   </g>
   <g id="patch_113">
    <path clip-path="url(#p4034349513)" d="M 422.111078 307.584 
L 422.812871 307.584 
L 422.812871 305.130746 
L 422.111078 305.130746 
z
" style="fill:#1f77b4;"/>
   </g>
   <g id="patch_114">
    <path clip-path="url(#p4034349513)" d="M 422.812871 307.584 
L 423.50837 307.584 
L 423.50837 304.847678 
L 422.812871 304.847678 
z
" style="fill:#1f77b4;"/>
   </g>
   <g id="patch_115">
    <path clip-path="url(#p4034349513)" d="M 423.50837 307.584 
L 424.197687 307.584 
L 424.197687 304.375899 
L 423.50837 304.375899 
z
" style="fill:#1f77b4;"/>
   </g>
   <g id="patch_116">
    <path clip-path="url(#p4034349513)" d="M 424.197687 307.584 
L 424.88093 307.584 
L 424.88093 304.847678 
L 424.197687 304.847678 
z
" style="fill:#1f77b4;"/>
   </g>
   <g id="patch_117">
    <path clip-path="url(#p4034349513)" d="M 424.88093 307.584 
L 425.558206 307.584 
L 425.558206 305.885593 
L 424.88093 305.885593 
z
" style="fill:#1f77b4;"/>
   </g>
   <g id="patch_118">
    <path clip-path="url(#p4034349513)" d="M 425.558206 307.584 
L 426.229619 307.584 
L 426.229619 304.281543 
L 425.558206 304.281543 
z
" style="fill:#1f77b4;"/>
   </g>
   <g id="patch_119">
    <path clip-path="url(#p4034349513)" d="M 426.229619 307.584 
L 426.895267 307.584 
L 426.895267 306.263017 
L 426.229619 306.263017 
z
" style="fill:#1f77b4;"/>
   </g>
   <g id="patch_120">
    <path clip-path="url(#p4034349513)" d="M 426.895267 307.584 
L 427.555251 307.584 
L 427.555251 306.546085 
L 426.895267 306.546085 
z
" style="fill:#1f77b4;"/>
   </g>
   <g id="patch_121">
    <path clip-path="url(#p4034349513)" d="M 427.555251 307.584 
L 428.209665 307.584 
L 428.209665 306.546085 
L 427.555251 306.546085 
z
" style="fill:#1f77b4;"/>
   </g>
   <g id="patch_122">
    <path clip-path="url(#p4034349513)" d="M 428.209665 307.584 
L 428.858603 307.584 
L 428.858603 306.640441 
L 428.209665 306.640441 
z
" style="fill:#1f77b4;"/>
   </g>
   <g id="patch_123">
    <path clip-path="url(#p4034349513)" d="M 428.858603 307.584 
L 429.502156 307.584 
L 429.502156 305.696882 
L 428.858603 305.696882 
z
" style="fill:#1f77b4;"/>
   </g>
   <g id="patch_124">
    <path clip-path="url(#p4034349513)" d="M 429.502156 307.584 
L 430.140411 307.584 
L 430.140411 306.168661 
L 429.502156 306.168661 
z
" style="fill:#1f77b4;"/>
   </g>
   <g id="patch_125">
    <path clip-path="url(#p4034349513)" d="M 430.140411 307.584 
L 430.773457 307.584 
L 430.773457 306.640441 
L 430.140411 306.640441 
z
" style="fill:#1f77b4;"/>
   </g>
   <g id="patch_126">
    <path clip-path="url(#p4034349513)" d="M 430.773457 307.584 
L 431.401376 307.584 
L 431.401376 306.263017 
L 430.773457 306.263017 
z
" style="fill:#1f77b4;"/>
   </g>
   <g id="patch_127">
    <path clip-path="url(#p4034349513)" d="M 431.401376 307.584 
L 432.024252 307.584 
L 432.024252 306.357373 
L 431.401376 306.357373 
z
" style="fill:#1f77b4;"/>
   </g>
   <g id="patch_128">
    <path clip-path="url(#p4034349513)" d="M 432.024252 307.584 
L 432.642165 307.584 
L 432.642165 306.451729 
L 432.024252 306.451729 
z
" style="fill:#1f77b4;"/>
   </g>
   <g id="patch_129">
    <path clip-path="url(#p4034349513)" d="M 432.642165 307.584 
L 433.255192 307.584 
L 433.255192 306.640441 
L 432.642165 306.640441 
z
" style="fill:#1f77b4;"/>
   </g>
   <g id="patch_130">
    <path clip-path="url(#p4034349513)" d="M 433.255192 307.584 
L 433.863412 307.584 
L 433.863412 306.357373 
L 433.255192 306.357373 
z
" style="fill:#1f77b4;"/>
   </g>
   <g id="patch_131">
    <path clip-path="url(#p4034349513)" d="M 433.863412 307.584 
L 434.466899 307.584 
L 434.466899 307.017864 
L 433.863412 307.017864 
z
" style="fill:#1f77b4;"/>
   </g>
   <g id="patch_132">
    <path clip-path="url(#p4034349513)" d="M 434.466899 307.584 
L 435.065725 307.584 
L 435.065725 306.074305 
L 434.466899 306.074305 
z
" style="fill:#1f77b4;"/>
   </g>
   <g id="patch_133">
    <path clip-path="url(#p4034349513)" d="M 435.065725 307.584 
L 435.659963 307.584 
L 435.659963 306.829153 
L 435.065725 306.829153 
z
" style="fill:#1f77b4;"/>
   </g>
   <g id="patch_134">
    <path clip-path="url(#p4034349513)" d="M 435.659963 307.584 
L 436.249681 307.584 
L 436.249681 307.11222 
L 435.659963 307.11222 
z
" style="fill:#1f77b4;"/>
   </g>
   <g id="patch_135">
    <path clip-path="url(#p4034349513)" d="M 436.249681 307.584 
L 436.834949 307.584 
L 436.834949 306.923509 
L 436.249681 306.923509 
z
" style="fill:#1f77b4;"/>
   </g>
   <g id="patch_136">
    <path clip-path="url(#p4034349513)" d="M 436.834949 307.584 
L 437.415833 307.584 
L 437.415833 306.923509 
L 436.834949 306.923509 
z
" style="fill:#1f77b4;"/>
   </g>
   <g id="patch_137">
    <path clip-path="url(#p4034349513)" d="M 437.415833 307.584 
L 437.992398 307.584 
L 437.992398 306.923509 
L 437.415833 306.923509 
z
" style="fill:#1f77b4;"/>
   </g>
   <g id="patch_138">
    <path clip-path="url(#p4034349513)" d="M 437.992398 307.584 
L 438.564707 307.584 
L 438.564707 307.11222 
L 437.992398 307.11222 
z
" style="fill:#1f77b4;"/>
   </g>
   <g id="patch_139">
    <path clip-path="url(#p4034349513)" d="M 438.564707 307.584 
L 439.132824 307.584 
L 439.132824 306.640441 
L 438.564707 306.640441 
z
" style="fill:#1f77b4;"/>
   </g>
   <g id="patch_140">
    <path clip-path="url(#p4034349513)" d="M 439.132824 307.584 
L 439.69681 307.584 
L 439.69681 307.300932 
L 439.132824 307.300932 
z
" style="fill:#1f77b4;"/>
   </g>
   <g id="patch_141">
    <path clip-path="url(#p4034349513)" d="M 439.69681 307.584 
L 440.256723 307.584 
L 440.256723 307.11222 
L 439.69681 307.11222 
z
" style="fill:#1f77b4;"/>
   </g>
   <g id="patch_142">
    <path clip-path="url(#p4034349513)" d="M 440.256723 307.584 
L 440.812622 307.584 
L 440.812622 306.923509 
L 440.256723 306.923509 
z
" style="fill:#1f77b4;"/>
   </g>
   <g id="patch_143">
    <path clip-path="url(#p4034349513)" d="M 440.812622 307.584 
L 441.364565 307.584 
L 441.364565 306.734797 
L 440.812622 306.734797 
z
" style="fill:#1f77b4;"/>
   </g>
   <g id="patch_144">
    <path clip-path="url(#p4034349513)" d="M 441.364565 307.584 
L 441.912607 307.584 
L 441.912607 307.584 
L 441.364565 307.584 
z
" style="fill:#1f77b4;"/>
   </g>
   <g id="patch_145">
    <path clip-path="url(#p4034349513)" d="M 441.912607 307.584 
L 442.456803 307.584 
L 442.456803 307.395288 
L 441.912607 307.395288 
z
" style="fill:#1f77b4;"/>
   </g>
   <g id="patch_146">
    <path clip-path="url(#p4034349513)" d="M 442.456803 307.584 
L 442.997207 307.584 
L 442.997207 307.300932 
L 442.456803 307.300932 
z
" style="fill:#1f77b4;"/>
   </g>
   <g id="patch_147">
    <path clip-path="url(#p4034349513)" d="M 442.997207 307.584 
L 443.53387 307.584 
L 443.53387 307.206576 
L 442.997207 307.206576 
z
" style="fill:#1f77b4;"/>
   </g>
   <g id="patch_148">
    <path clip-path="url(#p4034349513)" d="M 443.53387 307.584 
L 444.066846 307.584 
L 444.066846 307.206576 
L 443.53387 307.206576 
z
" style="fill:#1f77b4;"/>
   </g>
   <g id="patch_149">
    <path clip-path="url(#p4034349513)" d="M 444.066846 307.584 
L 444.596183 307.584 
L 444.596183 307.206576 
L 444.066846 307.206576 
z
" style="fill:#1f77b4;"/>
   </g>
   <g id="patch_150">
    <path clip-path="url(#p4034349513)" d="M 444.596183 307.584 
L 445.121932 307.584 
L 445.121932 306.923509 
L 444.596183 306.923509 
z
" style="fill:#1f77b4;"/>
   </g>
   <g id="patch_151">
    <path clip-path="url(#p4034349513)" d="M 445.121932 307.584 
L 445.64414 307.584 
L 445.64414 307.300932 
L 445.121932 307.300932 
z
" style="fill:#1f77b4;"/>
   </g>
   <g id="patch_152">
    <path clip-path="url(#p4034349513)" d="M 445.64414 307.584 
L 446.162855 307.584 
L 446.162855 307.584 
L 445.64414 307.584 
z
" style="fill:#1f77b4;"/>
   </g>
   <g id="patch_153">
    <path clip-path="url(#p4034349513)" d="M 446.162855 307.584 
L 446.678124 307.584 
L 446.678124 307.017864 
L 446.162855 307.017864 
z
" style="fill:#1f77b4;"/>
   </g>
   <g id="patch_154">
    <path clip-path="url(#p4034349513)" d="M 446.678124 307.584 
L 447.189991 307.584 
L 447.189991 307.489644 
L 446.678124 307.489644 
z
" style="fill:#1f77b4;"/>
   </g>
   <g id="patch_155">
    <path clip-path="url(#p4034349513)" d="M 447.189991 307.584 
L 447.698502 307.584 
L 447.698502 307.395288 
L 447.189991 307.395288 
z
" style="fill:#1f77b4;"/>
   </g>
   <g id="patch_156">
    <path clip-path="url(#p4034349513)" d="M 447.698502 307.584 
L 448.2037 307.584 
L 448.2037 307.584 
L 447.698502 307.584 
z
" style="fill:#1f77b4;"/>
   </g>
   <g id="patch_157">
    <path clip-path="url(#p4034349513)" d="M 448.2037 307.584 
L 448.705628 307.584 
L 448.705628 307.489644 
L 448.2037 307.489644 
z
" style="fill:#1f77b4;"/>
   </g>
   <g id="patch_158">
    <path clip-path="url(#p4034349513)" d="M 448.705628 307.584 
L 449.204328 307.584 
L 449.204328 307.489644 
L 448.705628 307.489644 
z
" style="fill:#1f77b4;"/>
   </g>
   <g id="patch_159">
    <path clip-path="url(#p4034349513)" d="M 449.204328 307.584 
L 449.699842 307.584 
L 449.699842 307.489644 
L 449.204328 307.489644 
z
" style="fill:#1f77b4;"/>
   </g>
   <g id="patch_160">
    <path clip-path="url(#p4034349513)" d="M 449.699842 307.584 
L 450.192209 307.584 
L 450.192209 307.300932 
L 449.699842 307.300932 
z
" style="fill:#1f77b4;"/>
   </g>
   <g id="patch_161">
    <path clip-path="url(#p4034349513)" d="M 450.192209 307.584 
L 450.681471 307.584 
L 450.681471 307.489644 
L 450.192209 307.489644 
z
" style="fill:#1f77b4;"/>
   </g>
   <g id="patch_162">
    <path clip-path="url(#p4034349513)" d="M 450.681471 307.584 
L 451.167664 307.584 
L 451.167664 307.489644 
L 450.681471 307.489644 
z
" style="fill:#1f77b4;"/>
   </g>
   <g id="patch_163">
    <path clip-path="url(#p4034349513)" d="M 451.167664 307.584 
L 451.650828 307.584 
L 451.650828 307.489644 
L 451.167664 307.489644 
z
" style="fill:#1f77b4;"/>
   </g>
   <g id="patch_164">
    <path clip-path="url(#p4034349513)" d="M 451.650828 307.584 
L 452.131001 307.584 
L 452.131001 307.489644 
L 451.650828 307.489644 
z
" style="fill:#1f77b4;"/>
   </g>
   <g id="patch_165">
    <path clip-path="url(#p4034349513)" d="M 452.131001 307.584 
L 452.608219 307.584 
L 452.608219 307.584 
L 452.131001 307.584 
z
" style="fill:#1f77b4;"/>
   </g>
   <g id="patch_166">
    <path clip-path="url(#p4034349513)" d="M 452.608219 307.584 
L 453.082518 307.584 
L 453.082518 307.489644 
L 452.608219 307.489644 
z
" style="fill:#1f77b4;"/>
   </g>
   <g id="patch_167">
    <path clip-path="url(#p4034349513)" d="M 453.082518 307.584 
L 453.553933 307.584 
L 453.553933 307.584 
L 453.082518 307.584 
z
" style="fill:#1f77b4;"/>
   </g>
   <g id="patch_168">
    <path clip-path="url(#p4034349513)" d="M 453.553933 307.584 
L 454.0225 307.584 
L 454.0225 307.489644 
L 453.553933 307.489644 
z
" style="fill:#1f77b4;"/>
   </g>
   <g id="patch_169">
    <path clip-path="url(#p4034349513)" d="M 454.0225 307.584 
L 454.488253 307.584 
L 454.488253 307.584 
L 454.0225 307.584 
z
" style="fill:#1f77b4;"/>
   </g>
   <g id="patch_170">
    <path clip-path="url(#p4034349513)" d="M 454.488253 307.584 
L 454.951225 307.584 
L 454.951225 307.584 
L 454.488253 307.584 
z
" style="fill:#1f77b4;"/>
   </g>
   <g id="patch_171">
    <path clip-path="url(#p4034349513)" d="M 454.951225 307.584 
L 455.41145 307.584 
L 455.41145 307.395288 
L 454.951225 307.395288 
z
" style="fill:#1f77b4;"/>
   </g>
   <g id="patch_172">
    <path clip-path="url(#p4034349513)" d="M 455.41145 307.584 
L 455.868959 307.584 
L 455.868959 307.584 
L 455.41145 307.584 
z
" style="fill:#1f77b4;"/>
   </g>
   <g id="patch_173">
    <path clip-path="url(#p4034349513)" d="M 455.868959 307.584 
L 456.323785 307.584 
L 456.323785 307.584 
L 455.868959 307.584 
z
" style="fill:#1f77b4;"/>
   </g>
   <g id="patch_174">
    <path clip-path="url(#p4034349513)" d="M 456.323785 307.584 
L 456.775959 307.584 
L 456.775959 307.489644 
L 456.323785 307.489644 
z
" style="fill:#1f77b4;"/>
   </g>
   <g id="patch_175">
    <path clip-path="url(#p4034349513)" d="M 456.775959 307.584 
L 457.225512 307.584 
L 457.225512 307.584 
L 456.775959 307.584 
z
" style="fill:#1f77b4;"/>
   </g>
   <g id="patch_176">
    <path clip-path="url(#p4034349513)" d="M 457.225512 307.584 
L 457.672474 307.584 
L 457.672474 307.584 
L 457.225512 307.584 
z
" style="fill:#1f77b4;"/>
   </g>
   <g id="patch_177">
    <path clip-path="url(#p4034349513)" d="M 457.672474 307.584 
L 458.116874 307.584 
L 458.116874 307.489644 
L 457.672474 307.489644 
z
" style="fill:#1f77b4;"/>
   </g>
   <g id="patch_178">
    <path clip-path="url(#p4034349513)" d="M 458.116874 307.584 
L 458.558742 307.584 
L 458.558742 307.489644 
L 458.116874 307.489644 
z
" style="fill:#1f77b4;"/>
   </g>
   <g id="patch_179">
    <path clip-path="url(#p4034349513)" d="M 458.558742 307.584 
L 458.998106 307.584 
L 458.998106 307.584 
L 458.558742 307.584 
z
" style="fill:#1f77b4;"/>
   </g>
   <g id="patch_180">
    <path clip-path="url(#p4034349513)" d="M 458.998106 307.584 
L 459.434996 307.584 
L 459.434996 307.584 
L 458.998106 307.584 
z
" style="fill:#1f77b4;"/>
   </g>
   <g id="patch_181">
    <path clip-path="url(#p4034349513)" d="M 459.434996 307.584 
L 459.869437 307.584 
L 459.869437 307.584 
L 459.434996 307.584 
z
" style="fill:#1f77b4;"/>
   </g>
   <g id="patch_182">
    <path clip-path="url(#p4034349513)" d="M 459.869437 307.584 
L 460.301459 307.584 
L 460.301459 307.584 
L 459.869437 307.584 
z
" style="fill:#1f77b4;"/>
   </g>
   <g id="patch_183">
    <path clip-path="url(#p4034349513)" d="M 460.301459 307.584 
L 460.731086 307.584 
L 460.731086 307.584 
L 460.301459 307.584 
z
" style="fill:#1f77b4;"/>
   </g>
   <g id="patch_184">
    <path clip-path="url(#p4034349513)" d="M 460.731086 307.584 
L 461.158347 307.584 
L 461.158347 307.395288 
L 460.731086 307.395288 
z
" style="fill:#1f77b4;"/>
   </g>
   <g id="patch_185">
    <path clip-path="url(#p4034349513)" d="M 461.158347 307.584 
L 461.583267 307.584 
L 461.583267 307.489644 
L 461.158347 307.489644 
z
" style="fill:#1f77b4;"/>
   </g>
   <g id="patch_186">
    <path clip-path="url(#p4034349513)" d="M 461.583267 307.584 
L 462.00587 307.584 
L 462.00587 307.584 
L 461.583267 307.584 
z
" style="fill:#1f77b4;"/>
   </g>
   <g id="patch_187">
    <path clip-path="url(#p4034349513)" d="M 462.00587 307.584 
L 462.426184 307.584 
L 462.426184 307.584 
L 462.00587 307.584 
z
" style="fill:#1f77b4;"/>
   </g>
   <g id="patch_188">
    <path clip-path="url(#p4034349513)" d="M 462.426184 307.584 
L 462.844231 307.584 
L 462.844231 307.489644 
L 462.426184 307.489644 
z
" style="fill:#1f77b4;"/>
   </g>
   <g id="patch_189">
    <path clip-path="url(#p4034349513)" d="M 462.844231 307.584 
L 463.260037 307.584 
L 463.260037 307.584 
L 462.844231 307.584 
z
" style="fill:#1f77b4;"/>
   </g>
   <g id="patch_190">
    <path clip-path="url(#p4034349513)" d="M 463.260037 307.584 
L 463.673626 307.584 
L 463.673626 307.489644 
L 463.260037 307.489644 
z
" style="fill:#1f77b4;"/>
   </g>
   <g id="patch_191">
    <path clip-path="url(#p4034349513)" d="M 463.673626 307.584 
L 464.08502 307.584 
L 464.08502 307.489644 
L 463.673626 307.489644 
z
" style="fill:#1f77b4;"/>
   </g>
   <g id="patch_192">
    <path clip-path="url(#p4034349513)" d="M 464.08502 307.584 
L 464.494243 307.584 
L 464.494243 307.584 
L 464.08502 307.584 
z
" style="fill:#1f77b4;"/>
   </g>
   <g id="patch_193">
    <path clip-path="url(#p4034349513)" d="M 464.494243 307.584 
L 464.901318 307.584 
L 464.901318 307.584 
L 464.494243 307.584 
z
" style="fill:#1f77b4;"/>
   </g>
   <g id="patch_194">
    <path clip-path="url(#p4034349513)" d="M 464.901318 307.584 
L 465.306267 307.584 
L 465.306267 307.584 
L 464.901318 307.584 
z
" style="fill:#1f77b4;"/>
   </g>
   <g id="patch_195">
    <path clip-path="url(#p4034349513)" d="M 465.306267 307.584 
L 465.709113 307.584 
L 465.709113 307.584 
L 465.306267 307.584 
z
" style="fill:#1f77b4;"/>
   </g>
   <g id="patch_196">
    <path clip-path="url(#p4034349513)" d="M 465.709113 307.584 
L 466.109877 307.584 
L 466.109877 307.489644 
L 465.709113 307.489644 
z
" style="fill:#1f77b4;"/>
   </g>
   <g id="patch_197">
    <path clip-path="url(#p4034349513)" d="M 466.109877 307.584 
L 466.50858 307.584 
L 466.50858 307.584 
L 466.109877 307.584 
z
" style="fill:#1f77b4;"/>
   </g>
   <g id="patch_198">
    <path clip-path="url(#p4034349513)" d="M 466.50858 307.584 
L 466.905244 307.584 
L 466.905244 307.584 
L 466.50858 307.584 
z
" style="fill:#1f77b4;"/>
   </g>
   <g id="patch_199">
    <path clip-path="url(#p4034349513)" d="M 466.905244 307.584 
L 467.299889 307.584 
L 467.299889 307.584 
L 466.905244 307.584 
z
" style="fill:#1f77b4;"/>
   </g>
   <g id="patch_200">
    <path clip-path="url(#p4034349513)" d="M 467.299889 307.584 
L 467.692536 307.584 
L 467.692536 307.584 
L 467.299889 307.584 
z
" style="fill:#1f77b4;"/>
   </g>
   <g id="patch_201">
    <path clip-path="url(#p4034349513)" d="M 467.692536 307.584 
L 468.083205 307.584 
L 468.083205 307.584 
L 467.692536 307.584 
z
" style="fill:#1f77b4;"/>
   </g>
   <g id="patch_202">
    <path clip-path="url(#p4034349513)" d="M 468.083205 307.584 
L 468.471916 307.584 
L 468.471916 307.584 
L 468.083205 307.584 
z
" style="fill:#1f77b4;"/>
   </g>
   <g id="patch_203">
    <path clip-path="url(#p4034349513)" d="M 468.471916 307.584 
L 468.858688 307.584 
L 468.858688 307.584 
L 468.471916 307.584 
z
" style="fill:#1f77b4;"/>
   </g>
   <g id="patch_204">
    <path clip-path="url(#p4034349513)" d="M 468.858688 307.584 
L 469.243541 307.584 
L 469.243541 307.584 
L 468.858688 307.584 
z
" style="fill:#1f77b4;"/>
   </g>
   <g id="patch_205">
    <path clip-path="url(#p4034349513)" d="M 469.243541 307.584 
L 469.626493 307.584 
L 469.626493 307.584 
L 469.243541 307.584 
z
" style="fill:#1f77b4;"/>
   </g>
   <g id="patch_206">
    <path clip-path="url(#p4034349513)" d="M 469.626493 307.584 
L 470.007563 307.584 
L 470.007563 307.584 
L 469.626493 307.584 
z
" style="fill:#1f77b4;"/>
   </g>
   <g id="patch_207">
    <path clip-path="url(#p4034349513)" d="M 470.007563 307.584 
L 470.386769 307.584 
L 470.386769 307.584 
L 470.007563 307.584 
z
" style="fill:#1f77b4;"/>
   </g>
   <g id="patch_208">
    <path clip-path="url(#p4034349513)" d="M 470.386769 307.584 
L 470.764131 307.584 
L 470.764131 307.584 
L 470.386769 307.584 
z
" style="fill:#1f77b4;"/>
   </g>
   <g id="patch_209">
    <path clip-path="url(#p4034349513)" d="M 470.764131 307.584 
L 471.139665 307.584 
L 471.139665 307.584 
L 470.764131 307.584 
z
" style="fill:#1f77b4;"/>
   </g>
   <g id="patch_210">
    <path clip-path="url(#p4034349513)" d="M 471.139665 307.584 
L 471.513389 307.584 
L 471.513389 307.584 
L 471.139665 307.584 
z
" style="fill:#1f77b4;"/>
   </g>
   <g id="patch_211">
    <path clip-path="url(#p4034349513)" d="M 471.513389 307.584 
L 471.885321 307.584 
L 471.885321 307.584 
L 471.513389 307.584 
z
" style="fill:#1f77b4;"/>
   </g>
   <g id="patch_212">
    <path clip-path="url(#p4034349513)" d="M 471.885321 307.584 
L 472.255477 307.584 
L 472.255477 307.584 
L 471.885321 307.584 
z
" style="fill:#1f77b4;"/>
   </g>
   <g id="patch_213">
    <path clip-path="url(#p4034349513)" d="M 472.255477 307.584 
L 472.623875 307.584 
L 472.623875 307.584 
L 472.255477 307.584 
z
" style="fill:#1f77b4;"/>
   </g>
   <g id="patch_214">
    <path clip-path="url(#p4034349513)" d="M 472.623875 307.584 
L 472.990531 307.584 
L 472.990531 307.584 
L 472.623875 307.584 
z
" style="fill:#1f77b4;"/>
   </g>
   <g id="patch_215">
    <path clip-path="url(#p4034349513)" d="M 472.990531 307.584 
L 473.355462 307.584 
L 473.355462 307.584 
L 472.990531 307.584 
z
" style="fill:#1f77b4;"/>
   </g>
   <g id="patch_216">
    <path clip-path="url(#p4034349513)" d="M 473.355462 307.584 
L 473.718683 307.584 
L 473.718683 307.489644 
L 473.355462 307.489644 
z
" style="fill:#1f77b4;"/>
   </g>
   <g id="matplotlib.axis_1">
    <g id="xtick_1">
     <g id="line2d_1">
      <defs>
       <path d="M 0 0 
L 0 3.5 
" id="mb2ae270703" style="stroke:#000000;stroke-width:0.8;"/>
      </defs>
      <g>
       <use style="stroke:#000000;stroke-width:0.8;" x="57.6" xlink:href="#mb2ae270703" y="307.584"/>
      </g>
     </g>
     <g id="text_1">
      <!-- $\mathdefault{10^{0}}$ -->
      <g transform="translate(48.8 322.182437)scale(0.1 -0.1)">
       <defs>
        <path d="M 794 531 
L 1825 531 
L 1825 4091 
L 703 3866 
L 703 4441 
L 1819 4666 
L 2450 4666 
L 2450 531 
L 3481 531 
L 3481 0 
L 794 0 
L 794 531 
z
" id="DejaVuSans-31" transform="scale(0.015625)"/>
        <path d="M 2034 4250 
Q 1547 4250 1301 3770 
Q 1056 3291 1056 2328 
Q 1056 1369 1301 889 
Q 1547 409 2034 409 
Q 2525 409 2770 889 
Q 3016 1369 3016 2328 
Q 3016 3291 2770 3770 
Q 2525 4250 2034 4250 
z
M 2034 4750 
Q 2819 4750 3233 4129 
Q 3647 3509 3647 2328 
Q 3647 1150 3233 529 
Q 2819 -91 2034 -91 
Q 1250 -91 836 529 
Q 422 1150 422 2328 
Q 422 3509 836 4129 
Q 1250 4750 2034 4750 
z
" id="DejaVuSans-30" transform="scale(0.015625)"/>
       </defs>
       <use transform="translate(0 0.765625)" xlink:href="#DejaVuSans-31"/>
       <use transform="translate(63.623047 0.765625)" xlink:href="#DejaVuSans-30"/>
       <use transform="translate(128.203125 39.046875)scale(0.7)" xlink:href="#DejaVuSans-30"/>
      </g>
     </g>
    </g>
    <g id="xtick_2">
     <g id="line2d_2">
      <g>
       <use style="stroke:#000000;stroke-width:0.8;" x="236.16" xlink:href="#mb2ae270703" y="307.584"/>
      </g>
     </g>
     <g id="text_2">
      <!-- $\mathdefault{10^{1}}$ -->
      <g transform="translate(227.36 322.182437)scale(0.1 -0.1)">
       <use transform="translate(0 0.684375)" xlink:href="#DejaVuSans-31"/>
       <use transform="translate(63.623047 0.684375)" xlink:href="#DejaVuSans-30"/>
       <use transform="translate(128.203125 38.965625)scale(0.7)" xlink:href="#DejaVuSans-31"/>
      </g>
     </g>
    </g>
    <g id="xtick_3">
     <g id="line2d_3">
      <g>
       <use style="stroke:#000000;stroke-width:0.8;" x="414.72" xlink:href="#mb2ae270703" y="307.584"/>
      </g>
     </g>
     <g id="text_3">
      <!-- $\mathdefault{10^{2}}$ -->
      <g transform="translate(405.92 322.182437)scale(0.1 -0.1)">
       <defs>
        <path d="M 1228 531 
L 3431 531 
L 3431 0 
L 469 0 
L 469 531 
Q 828 903 1448 1529 
Q 2069 2156 2228 2338 
Q 2531 2678 2651 2914 
Q 2772 3150 2772 3378 
Q 2772 3750 2511 3984 
Q 2250 4219 1831 4219 
Q 1534 4219 1204 4116 
Q 875 4013 500 3803 
L 500 4441 
Q 881 4594 1212 4672 
Q 1544 4750 1819 4750 
Q 2544 4750 2975 4387 
Q 3406 4025 3406 3419 
Q 3406 3131 3298 2873 
Q 3191 2616 2906 2266 
Q 2828 2175 2409 1742 
Q 1991 1309 1228 531 
z
" id="DejaVuSans-32" transform="scale(0.015625)"/>
       </defs>
       <use transform="translate(0 0.765625)" xlink:href="#DejaVuSans-31"/>
       <use transform="translate(63.623047 0.765625)" xlink:href="#DejaVuSans-30"/>
       <use transform="translate(128.203125 39.046875)scale(0.7)" xlink:href="#DejaVuSans-32"/>
      </g>
     </g>
    </g>
    <g id="xtick_4">
     <g id="line2d_4">
      <defs>
       <path d="M 0 0 
L 0 2 
" id="md86877a948" style="stroke:#000000;stroke-width:0.6;"/>
      </defs>
      <g>
       <use style="stroke:#000000;stroke-width:0.6;" x="111.351916" xlink:href="#md86877a948" y="307.584"/>
      </g>
     </g>
    </g>
    <g id="xtick_5">
     <g id="line2d_5">
      <g>
       <use style="stroke:#000000;stroke-width:0.6;" x="142.794771" xlink:href="#md86877a948" y="307.584"/>
      </g>
     </g>
    </g>
    <g id="xtick_6">
     <g id="line2d_6">
      <g>
       <use style="stroke:#000000;stroke-width:0.6;" x="165.103832" xlink:href="#md86877a948" y="307.584"/>
      </g>
     </g>
    </g>
    <g id="xtick_7">
     <g id="line2d_7">
      <g>
       <use style="stroke:#000000;stroke-width:0.6;" x="182.408084" xlink:href="#md86877a948" y="307.584"/>
      </g>
     </g>
    </g>
    <g id="xtick_8">
     <g id="line2d_8">
      <g>
       <use style="stroke:#000000;stroke-width:0.6;" x="196.546687" xlink:href="#md86877a948" y="307.584"/>
      </g>
     </g>
    </g>
    <g id="xtick_9">
     <g id="line2d_9">
      <g>
       <use style="stroke:#000000;stroke-width:0.6;" x="208.500706" xlink:href="#md86877a948" y="307.584"/>
      </g>
     </g>
    </g>
    <g id="xtick_10">
     <g id="line2d_10">
      <g>
       <use style="stroke:#000000;stroke-width:0.6;" x="218.855748" xlink:href="#md86877a948" y="307.584"/>
      </g>
     </g>
    </g>
    <g id="xtick_11">
     <g id="line2d_11">
      <g>
       <use style="stroke:#000000;stroke-width:0.6;" x="227.989542" xlink:href="#md86877a948" y="307.584"/>
      </g>
     </g>
    </g>
    <g id="xtick_12">
     <g id="line2d_12">
      <g>
       <use style="stroke:#000000;stroke-width:0.6;" x="289.911916" xlink:href="#md86877a948" y="307.584"/>
      </g>
     </g>
    </g>
    <g id="xtick_13">
     <g id="line2d_13">
      <g>
       <use style="stroke:#000000;stroke-width:0.6;" x="321.354771" xlink:href="#md86877a948" y="307.584"/>
      </g>
     </g>
    </g>
    <g id="xtick_14">
     <g id="line2d_14">
      <g>
       <use style="stroke:#000000;stroke-width:0.6;" x="343.663832" xlink:href="#md86877a948" y="307.584"/>
      </g>
     </g>
    </g>
    <g id="xtick_15">
     <g id="line2d_15">
      <g>
       <use style="stroke:#000000;stroke-width:0.6;" x="360.968084" xlink:href="#md86877a948" y="307.584"/>
      </g>
     </g>
    </g>
    <g id="xtick_16">
     <g id="line2d_16">
      <g>
       <use style="stroke:#000000;stroke-width:0.6;" x="375.106687" xlink:href="#md86877a948" y="307.584"/>
      </g>
     </g>
    </g>
    <g id="xtick_17">
     <g id="line2d_17">
      <g>
       <use style="stroke:#000000;stroke-width:0.6;" x="387.060706" xlink:href="#md86877a948" y="307.584"/>
      </g>
     </g>
    </g>
    <g id="xtick_18">
     <g id="line2d_18">
      <g>
       <use style="stroke:#000000;stroke-width:0.6;" x="397.415748" xlink:href="#md86877a948" y="307.584"/>
      </g>
     </g>
    </g>
    <g id="xtick_19">
     <g id="line2d_19">
      <g>
       <use style="stroke:#000000;stroke-width:0.6;" x="406.549542" xlink:href="#md86877a948" y="307.584"/>
      </g>
     </g>
    </g>
   </g>
   <g id="matplotlib.axis_2">
    <g id="ytick_1">
     <g id="line2d_20">
      <defs>
       <path d="M 0 0 
L -3.5 0 
" id="m3bf1b6f838" style="stroke:#000000;stroke-width:0.8;"/>
      </defs>
      <g>
       <use style="stroke:#000000;stroke-width:0.8;" x="57.6" xlink:href="#m3bf1b6f838" y="307.584"/>
      </g>
     </g>
     <g id="text_4">
      <!-- 0.000 -->
      <g transform="translate(21.971875 311.383219)scale(0.1 -0.1)">
       <defs>
        <path d="M 684 794 
L 1344 794 
L 1344 0 
L 684 0 
L 684 794 
z
" id="DejaVuSans-2e" transform="scale(0.015625)"/>
       </defs>
       <use xlink:href="#DejaVuSans-30"/>
       <use x="63.623047" xlink:href="#DejaVuSans-2e"/>
       <use x="95.410156" xlink:href="#DejaVuSans-30"/>
       <use x="159.033203" xlink:href="#DejaVuSans-30"/>
       <use x="222.65625" xlink:href="#DejaVuSans-30"/>
      </g>
     </g>
    </g>
    <g id="ytick_2">
     <g id="line2d_21">
      <g>
       <use style="stroke:#000000;stroke-width:0.8;" x="57.6" xlink:href="#m3bf1b6f838" y="260.405568"/>
      </g>
     </g>
     <g id="text_5">
      <!-- 0.005 -->
      <g transform="translate(21.971875 264.204787)scale(0.1 -0.1)">
       <defs>
        <path d="M 691 4666 
L 3169 4666 
L 3169 4134 
L 1269 4134 
L 1269 2991 
Q 1406 3038 1543 3061 
Q 1681 3084 1819 3084 
Q 2600 3084 3056 2656 
Q 3513 2228 3513 1497 
Q 3513 744 3044 326 
Q 2575 -91 1722 -91 
Q 1428 -91 1123 -41 
Q 819 9 494 109 
L 494 744 
Q 775 591 1075 516 
Q 1375 441 1709 441 
Q 2250 441 2565 725 
Q 2881 1009 2881 1497 
Q 2881 1984 2565 2268 
Q 2250 2553 1709 2553 
Q 1456 2553 1204 2497 
Q 953 2441 691 2322 
L 691 4666 
z
" id="DejaVuSans-35" transform="scale(0.015625)"/>
       </defs>
       <use xlink:href="#DejaVuSans-30"/>
       <use x="63.623047" xlink:href="#DejaVuSans-2e"/>
       <use x="95.410156" xlink:href="#DejaVuSans-30"/>
       <use x="159.033203" xlink:href="#DejaVuSans-30"/>
       <use x="222.65625" xlink:href="#DejaVuSans-35"/>
      </g>
     </g>
    </g>
    <g id="ytick_3">
     <g id="line2d_22">
      <g>
       <use style="stroke:#000000;stroke-width:0.8;" x="57.6" xlink:href="#m3bf1b6f838" y="213.227137"/>
      </g>
     </g>
     <g id="text_6">
      <!-- 0.010 -->
      <g transform="translate(21.971875 217.026356)scale(0.1 -0.1)">
       <use xlink:href="#DejaVuSans-30"/>
       <use x="63.623047" xlink:href="#DejaVuSans-2e"/>
       <use x="95.410156" xlink:href="#DejaVuSans-30"/>
       <use x="159.033203" xlink:href="#DejaVuSans-31"/>
       <use x="222.65625" xlink:href="#DejaVuSans-30"/>
      </g>
     </g>
    </g>
    <g id="ytick_4">
     <g id="line2d_23">
      <g>
       <use style="stroke:#000000;stroke-width:0.8;" x="57.6" xlink:href="#m3bf1b6f838" y="166.048705"/>
      </g>
     </g>
     <g id="text_7">
      <!-- 0.015 -->
      <g transform="translate(21.971875 169.847924)scale(0.1 -0.1)">
       <use xlink:href="#DejaVuSans-30"/>
       <use x="63.623047" xlink:href="#DejaVuSans-2e"/>
       <use x="95.410156" xlink:href="#DejaVuSans-30"/>
       <use x="159.033203" xlink:href="#DejaVuSans-31"/>
       <use x="222.65625" xlink:href="#DejaVuSans-35"/>
      </g>
     </g>
    </g>
    <g id="ytick_5">
     <g id="line2d_24">
      <g>
       <use style="stroke:#000000;stroke-width:0.8;" x="57.6" xlink:href="#m3bf1b6f838" y="118.870274"/>
      </g>
     </g>
     <g id="text_8">
      <!-- 0.020 -->
      <g transform="translate(21.971875 122.669492)scale(0.1 -0.1)">
       <use xlink:href="#DejaVuSans-30"/>
       <use x="63.623047" xlink:href="#DejaVuSans-2e"/>
       <use x="95.410156" xlink:href="#DejaVuSans-30"/>
       <use x="159.033203" xlink:href="#DejaVuSans-32"/>
       <use x="222.65625" xlink:href="#DejaVuSans-30"/>
      </g>
     </g>
    </g>
    <g id="ytick_6">
     <g id="line2d_25">
      <g>
       <use style="stroke:#000000;stroke-width:0.8;" x="57.6" xlink:href="#m3bf1b6f838" y="71.691842"/>
      </g>
     </g>
     <g id="text_9">
      <!-- 0.025 -->
      <g transform="translate(21.971875 75.491061)scale(0.1 -0.1)">
       <use xlink:href="#DejaVuSans-30"/>
       <use x="63.623047" xlink:href="#DejaVuSans-2e"/>
       <use x="95.410156" xlink:href="#DejaVuSans-30"/>
       <use x="159.033203" xlink:href="#DejaVuSans-32"/>
       <use x="222.65625" xlink:href="#DejaVuSans-35"/>
      </g>
     </g>
    </g>
   </g>
   <g id="patch_217">
    <path d="M 57.6 307.584 
L 57.6 41.472 
" style="fill:none;stroke:#000000;stroke-linecap:square;stroke-linejoin:miter;stroke-width:0.8;"/>
   </g>
   <g id="patch_218">
    <path d="M 414.72 307.584 
L 414.72 41.472 
" style="fill:none;stroke:#000000;stroke-linecap:square;stroke-linejoin:miter;stroke-width:0.8;"/>
   </g>
   <g id="patch_219">
    <path d="M 57.6 307.584 
L 414.72 307.584 
" style="fill:none;stroke:#000000;stroke-linecap:square;stroke-linejoin:miter;stroke-width:0.8;"/>
   </g>
   <g id="patch_220">
    <path d="M 57.6 41.472 
L 414.72 41.472 
" style="fill:none;stroke:#000000;stroke-linecap:square;stroke-linejoin:miter;stroke-width:0.8;"/>
   </g>
  </g>
 </g>
 <defs>
  <clipPath id="p4034349513">
   <rect height="266.112" width="357.12" x="57.6" y="41.472"/>
  </clipPath>
 </defs>
</svg>
