<?xml version="1.0" encoding="utf-8"?>
<svg xmlns="http://www.w3.org/2000/svg" xmlns:xlink="http://www.w3.org/1999/xlink" width="600" height="400" viewBox="0 0 2400 1600">
<defs>
  <clipPath id="clip250">
    <rect x="0" y="0" width="2400" height="1600"/>
  </clipPath>
</defs>
<path clip-path="url(#clip250)" d="
M0 1600 L2400 1600 L2400 0 L0 0  Z
  " fill="#ffffff" fill-rule="evenodd" fill-opacity="1"/>
<defs>
  <clipPath id="clip251">
    <rect x="480" y="0" width="1681" height="1600"/>
  </clipPath>
</defs>
<path clip-path="url(#clip250)" d="
M186.274 1486.45 L2352.76 1486.45 L2352.76 47.2441 L186.274 47.2441  Z
  " fill="#ffffff" fill-rule="evenodd" fill-opacity="1"/>
<defs>
  <clipPath id="clip252">
    <rect x="186" y="47" width="2167" height="1440"/>
  </clipPath>
</defs>
<polyline clip-path="url(#clip252)" style="stroke:#000000; stroke-linecap:butt; stroke-linejoin:round; stroke-width:2; stroke-opacity:0.1; fill:none" points="
  247.59,1486.45 247.59,47.2441 
  "/>
<polyline clip-path="url(#clip252)" style="stroke:#000000; stroke-linecap:butt; stroke-linejoin:round; stroke-width:2; stroke-opacity:0.1; fill:none" points="
  656.36,1486.45 656.36,47.2441 
  "/>
<polyline clip-path="url(#clip252)" style="stroke:#000000; stroke-linecap:butt; stroke-linejoin:round; stroke-width:2; stroke-opacity:0.1; fill:none" points="
  1065.13,1486.45 1065.13,47.2441 
  "/>
<polyline clip-path="url(#clip252)" style="stroke:#000000; stroke-linecap:butt; stroke-linejoin:round; stroke-width:2; stroke-opacity:0.1; fill:none" points="
  1473.9,1486.45 1473.9,47.2441 
  "/>
<polyline clip-path="url(#clip252)" style="stroke:#000000; stroke-linecap:butt; stroke-linejoin:round; stroke-width:2; stroke-opacity:0.1; fill:none" points="
  1882.67,1486.45 1882.67,47.2441 
  "/>
<polyline clip-path="url(#clip252)" style="stroke:#000000; stroke-linecap:butt; stroke-linejoin:round; stroke-width:2; stroke-opacity:0.1; fill:none" points="
  2291.44,1486.45 2291.44,47.2441 
  "/>
<polyline clip-path="url(#clip250)" style="stroke:#000000; stroke-linecap:butt; stroke-linejoin:round; stroke-width:4; stroke-opacity:1; fill:none" points="
  186.274,1486.45 2352.76,1486.45 
  "/>
<polyline clip-path="url(#clip250)" style="stroke:#000000; stroke-linecap:butt; stroke-linejoin:round; stroke-width:4; stroke-opacity:1; fill:none" points="
  247.59,1486.45 247.59,1469.18 
  "/>
<polyline clip-path="url(#clip250)" style="stroke:#000000; stroke-linecap:butt; stroke-linejoin:round; stroke-width:4; stroke-opacity:1; fill:none" points="
  656.36,1486.45 656.36,1469.18 
  "/>
<polyline clip-path="url(#clip250)" style="stroke:#000000; stroke-linecap:butt; stroke-linejoin:round; stroke-width:4; stroke-opacity:1; fill:none" points="
  1065.13,1486.45 1065.13,1469.18 
  "/>
<polyline clip-path="url(#clip250)" style="stroke:#000000; stroke-linecap:butt; stroke-linejoin:round; stroke-width:4; stroke-opacity:1; fill:none" points="
  1473.9,1486.45 1473.9,1469.18 
  "/>
<polyline clip-path="url(#clip250)" style="stroke:#000000; stroke-linecap:butt; stroke-linejoin:round; stroke-width:4; stroke-opacity:1; fill:none" points="
  1882.67,1486.45 1882.67,1469.18 
  "/>
<polyline clip-path="url(#clip250)" style="stroke:#000000; stroke-linecap:butt; stroke-linejoin:round; stroke-width:4; stroke-opacity:1; fill:none" points="
  2291.44,1486.45 2291.44,1469.18 
  "/>
<path clip-path="url(#clip250)" d="M247.59 1515.64 Q243.978 1515.64 242.15 1519.2 Q240.344 1522.75 240.344 1529.87 Q240.344 1536.98 242.15 1540.55 Q243.978 1544.09 247.59 1544.09 Q251.224 1544.09 253.029 1540.55 Q254.858 1536.98 254.858 1529.87 Q254.858 1522.75 253.029 1519.2 Q251.224 1515.64 247.59 1515.64 M247.59 1511.93 Q253.4 1511.93 256.455 1516.54 Q259.534 1521.12 259.534 1529.87 Q259.534 1538.6 256.455 1543.21 Q253.4 1547.79 247.59 1547.79 Q241.779 1547.79 238.701 1543.21 Q235.645 1538.6 235.645 1529.87 Q235.645 1521.12 238.701 1516.54 Q241.779 1511.93 247.59 1511.93 Z" fill="#000000" fill-rule="evenodd" fill-opacity="1" /><path clip-path="url(#clip250)" d="M631.059 1512.56 L649.415 1512.56 L649.415 1516.5 L635.341 1516.5 L635.341 1524.97 Q636.36 1524.62 637.378 1524.46 Q638.397 1524.27 639.415 1524.27 Q645.202 1524.27 648.582 1527.44 Q651.962 1530.62 651.962 1536.03 Q651.962 1541.61 648.489 1544.71 Q645.017 1547.79 638.698 1547.79 Q636.522 1547.79 634.253 1547.42 Q632.008 1547.05 629.601 1546.31 L629.601 1541.61 Q631.684 1542.74 633.906 1543.3 Q636.128 1543.86 638.605 1543.86 Q642.61 1543.86 644.948 1541.75 Q647.286 1539.64 647.286 1536.03 Q647.286 1532.42 644.948 1530.31 Q642.61 1528.21 638.605 1528.21 Q636.73 1528.21 634.855 1528.62 Q633.003 1529.04 631.059 1529.92 L631.059 1512.56 Z" fill="#000000" fill-rule="evenodd" fill-opacity="1" /><path clip-path="url(#clip250)" d="M671.174 1515.64 Q667.563 1515.64 665.735 1519.2 Q663.929 1522.75 663.929 1529.87 Q663.929 1536.98 665.735 1540.55 Q667.563 1544.09 671.174 1544.09 Q674.809 1544.09 676.614 1540.55 Q678.443 1536.98 678.443 1529.87 Q678.443 1522.75 676.614 1519.2 Q674.809 1515.64 671.174 1515.64 M671.174 1511.93 Q676.985 1511.93 680.04 1516.54 Q683.119 1521.12 683.119 1529.87 Q683.119 1538.6 680.04 1543.21 Q676.985 1547.79 671.174 1547.79 Q665.364 1547.79 662.286 1543.21 Q659.23 1538.6 659.23 1529.87 Q659.23 1521.12 662.286 1516.54 Q665.364 1511.93 671.174 1511.93 Z" fill="#000000" fill-rule="evenodd" fill-opacity="1" /><path clip-path="url(#clip250)" d="M1024.74 1543.18 L1032.38 1543.18 L1032.38 1516.82 L1024.07 1518.49 L1024.07 1514.23 L1032.33 1512.56 L1037.01 1512.56 L1037.01 1543.18 L1044.64 1543.18 L1044.64 1547.12 L1024.74 1547.12 L1024.74 1543.18 Z" fill="#000000" fill-rule="evenodd" fill-opacity="1" /><path clip-path="url(#clip250)" d="M1064.09 1515.64 Q1060.48 1515.64 1058.65 1519.2 Q1056.84 1522.75 1056.84 1529.87 Q1056.84 1536.98 1058.65 1540.55 Q1060.48 1544.09 1064.09 1544.09 Q1067.72 1544.09 1069.53 1540.55 Q1071.36 1536.98 1071.36 1529.87 Q1071.36 1522.75 1069.53 1519.2 Q1067.72 1515.64 1064.09 1515.64 M1064.09 1511.93 Q1069.9 1511.93 1072.95 1516.54 Q1076.03 1521.12 1076.03 1529.87 Q1076.03 1538.6 1072.95 1543.21 Q1069.9 1547.79 1064.09 1547.79 Q1058.28 1547.79 1055.2 1543.21 Q1052.14 1538.6 1052.14 1529.87 Q1052.14 1521.12 1055.2 1516.54 Q1058.28 1511.93 1064.09 1511.93 Z" fill="#000000" fill-rule="evenodd" fill-opacity="1" /><path clip-path="url(#clip250)" d="M1094.25 1515.64 Q1090.64 1515.64 1088.81 1519.2 Q1087 1522.75 1087 1529.87 Q1087 1536.98 1088.81 1540.55 Q1090.64 1544.09 1094.25 1544.09 Q1097.88 1544.09 1099.69 1540.55 Q1101.52 1536.98 1101.52 1529.87 Q1101.52 1522.75 1099.69 1519.2 Q1097.88 1515.64 1094.25 1515.64 M1094.25 1511.93 Q1100.06 1511.93 1103.12 1516.54 Q1106.19 1521.12 1106.19 1529.87 Q1106.19 1538.6 1103.12 1543.21 Q1100.06 1547.79 1094.25 1547.79 Q1088.44 1547.79 1085.36 1543.21 Q1082.31 1538.6 1082.31 1529.87 Q1082.31 1521.12 1085.36 1516.54 Q1088.44 1511.93 1094.25 1511.93 Z" fill="#000000" fill-rule="evenodd" fill-opacity="1" /><path clip-path="url(#clip250)" d="M1433.51 1543.18 L1441.15 1543.18 L1441.15 1516.82 L1432.84 1518.49 L1432.84 1514.23 L1441.1 1512.56 L1445.78 1512.56 L1445.78 1543.18 L1453.41 1543.18 L1453.41 1547.12 L1433.51 1547.12 L1433.51 1543.18 Z" fill="#000000" fill-rule="evenodd" fill-opacity="1" /><path clip-path="url(#clip250)" d="M1462.9 1512.56 L1481.26 1512.56 L1481.26 1516.5 L1467.19 1516.5 L1467.19 1524.97 Q1468.21 1524.62 1469.22 1524.46 Q1470.24 1524.27 1471.26 1524.27 Q1477.05 1524.27 1480.43 1527.44 Q1483.81 1530.62 1483.81 1536.03 Q1483.81 1541.61 1480.34 1544.71 Q1476.86 1547.79 1470.54 1547.79 Q1468.37 1547.79 1466.1 1547.42 Q1463.85 1547.05 1461.45 1546.31 L1461.45 1541.61 Q1463.53 1542.74 1465.75 1543.3 Q1467.97 1543.86 1470.45 1543.86 Q1474.46 1543.86 1476.79 1541.75 Q1479.13 1539.64 1479.13 1536.03 Q1479.13 1532.42 1476.79 1530.31 Q1474.46 1528.21 1470.45 1528.21 Q1468.58 1528.21 1466.7 1528.62 Q1464.85 1529.04 1462.9 1529.92 L1462.9 1512.56 Z" fill="#000000" fill-rule="evenodd" fill-opacity="1" /><path clip-path="url(#clip250)" d="M1503.02 1515.64 Q1499.41 1515.64 1497.58 1519.2 Q1495.77 1522.75 1495.77 1529.87 Q1495.77 1536.98 1497.58 1540.55 Q1499.41 1544.09 1503.02 1544.09 Q1506.65 1544.09 1508.46 1540.55 Q1510.29 1536.98 1510.29 1529.87 Q1510.29 1522.75 1508.46 1519.2 Q1506.65 1515.64 1503.02 1515.64 M1503.02 1511.93 Q1508.83 1511.93 1511.89 1516.54 Q1514.96 1521.12 1514.96 1529.87 Q1514.96 1538.6 1511.89 1543.21 Q1508.83 1547.79 1503.02 1547.79 Q1497.21 1547.79 1494.13 1543.21 Q1491.08 1538.6 1491.08 1529.87 Q1491.08 1521.12 1494.13 1516.54 Q1497.21 1511.93 1503.02 1511.93 Z" fill="#000000" fill-rule="evenodd" fill-opacity="1" /><path clip-path="url(#clip250)" d="M1846.36 1543.18 L1862.68 1543.18 L1862.68 1547.12 L1840.74 1547.12 L1840.74 1543.18 Q1843.4 1540.43 1847.98 1535.8 Q1852.59 1531.15 1853.77 1529.81 Q1856.02 1527.28 1856.89 1525.55 Q1857.8 1523.79 1857.8 1522.1 Q1857.8 1519.34 1855.85 1517.61 Q1853.93 1515.87 1850.83 1515.87 Q1848.63 1515.87 1846.18 1516.63 Q1843.75 1517.4 1840.97 1518.95 L1840.97 1514.23 Q1843.79 1513.09 1846.25 1512.51 Q1848.7 1511.93 1850.74 1511.93 Q1856.11 1511.93 1859.3 1514.62 Q1862.5 1517.31 1862.5 1521.8 Q1862.5 1523.93 1861.69 1525.85 Q1860.9 1527.74 1858.79 1530.34 Q1858.21 1531.01 1855.11 1534.23 Q1852.01 1537.42 1846.36 1543.18 Z" fill="#000000" fill-rule="evenodd" fill-opacity="1" /><path clip-path="url(#clip250)" d="M1882.5 1515.64 Q1878.89 1515.64 1877.06 1519.2 Q1875.25 1522.75 1875.25 1529.87 Q1875.25 1536.98 1877.06 1540.55 Q1878.89 1544.09 1882.5 1544.09 Q1886.13 1544.09 1887.94 1540.55 Q1889.77 1536.98 1889.77 1529.87 Q1889.77 1522.75 1887.94 1519.2 Q1886.13 1515.64 1882.5 1515.64 M1882.5 1511.93 Q1888.31 1511.93 1891.36 1516.54 Q1894.44 1521.12 1894.44 1529.87 Q1894.44 1538.6 1891.36 1543.21 Q1888.31 1547.79 1882.5 1547.79 Q1876.69 1547.79 1873.61 1543.21 Q1870.55 1538.6 1870.55 1529.87 Q1870.55 1521.12 1873.61 1516.54 Q1876.69 1511.93 1882.5 1511.93 Z" fill="#000000" fill-rule="evenodd" fill-opacity="1" /><path clip-path="url(#clip250)" d="M1912.66 1515.64 Q1909.05 1515.64 1907.22 1519.2 Q1905.41 1522.75 1905.41 1529.87 Q1905.41 1536.98 1907.22 1540.55 Q1909.05 1544.09 1912.66 1544.09 Q1916.29 1544.09 1918.1 1540.55 Q1919.93 1536.98 1919.93 1529.87 Q1919.93 1522.75 1918.1 1519.2 Q1916.29 1515.64 1912.66 1515.64 M1912.66 1511.93 Q1918.47 1511.93 1921.52 1516.54 Q1924.6 1521.12 1924.6 1529.87 Q1924.6 1538.6 1921.52 1543.21 Q1918.47 1547.79 1912.66 1547.79 Q1906.85 1547.79 1903.77 1543.21 Q1900.71 1538.6 1900.71 1529.87 Q1900.71 1521.12 1903.77 1516.54 Q1906.85 1511.93 1912.66 1511.93 Z" fill="#000000" fill-rule="evenodd" fill-opacity="1" /><path clip-path="url(#clip250)" d="M2255.13 1543.18 L2271.45 1543.18 L2271.45 1547.12 L2249.51 1547.12 L2249.51 1543.18 Q2252.17 1540.43 2256.75 1535.8 Q2261.36 1531.15 2262.54 1529.81 Q2264.79 1527.28 2265.67 1525.55 Q2266.57 1523.79 2266.57 1522.1 Q2266.57 1519.34 2264.62 1517.61 Q2262.7 1515.87 2259.6 1515.87 Q2257.4 1515.87 2254.95 1516.63 Q2252.52 1517.4 2249.74 1518.95 L2249.74 1514.23 Q2252.56 1513.09 2255.02 1512.51 Q2257.47 1511.93 2259.51 1511.93 Q2264.88 1511.93 2268.07 1514.62 Q2271.27 1517.31 2271.27 1521.8 Q2271.27 1523.93 2270.46 1525.85 Q2269.67 1527.74 2267.56 1530.34 Q2266.98 1531.01 2263.88 1534.23 Q2260.78 1537.42 2255.13 1543.18 Z" fill="#000000" fill-rule="evenodd" fill-opacity="1" /><path clip-path="url(#clip250)" d="M2281.31 1512.56 L2299.67 1512.56 L2299.67 1516.5 L2285.6 1516.5 L2285.6 1524.97 Q2286.61 1524.62 2287.63 1524.46 Q2288.65 1524.27 2289.67 1524.27 Q2295.46 1524.27 2298.84 1527.44 Q2302.22 1530.62 2302.22 1536.03 Q2302.22 1541.61 2298.74 1544.71 Q2295.27 1547.79 2288.95 1547.79 Q2286.78 1547.79 2284.51 1547.42 Q2282.26 1547.05 2279.85 1546.31 L2279.85 1541.61 Q2281.94 1542.74 2284.16 1543.3 Q2286.38 1543.86 2288.86 1543.86 Q2292.86 1543.86 2295.2 1541.75 Q2297.54 1539.64 2297.54 1536.03 Q2297.54 1532.42 2295.2 1530.31 Q2292.86 1528.21 2288.86 1528.21 Q2286.98 1528.21 2285.11 1528.62 Q2283.26 1529.04 2281.31 1529.92 L2281.31 1512.56 Z" fill="#000000" fill-rule="evenodd" fill-opacity="1" /><path clip-path="url(#clip250)" d="M2321.43 1515.64 Q2317.82 1515.64 2315.99 1519.2 Q2314.18 1522.75 2314.18 1529.87 Q2314.18 1536.98 2315.99 1540.55 Q2317.82 1544.09 2321.43 1544.09 Q2325.06 1544.09 2326.87 1540.55 Q2328.7 1536.98 2328.7 1529.87 Q2328.7 1522.75 2326.87 1519.2 Q2325.06 1515.64 2321.43 1515.64 M2321.43 1511.93 Q2327.24 1511.93 2330.29 1516.54 Q2333.37 1521.12 2333.37 1529.87 Q2333.37 1538.6 2330.29 1543.21 Q2327.24 1547.79 2321.43 1547.79 Q2315.62 1547.79 2312.54 1543.21 Q2309.48 1538.6 2309.48 1529.87 Q2309.48 1521.12 2312.54 1516.54 Q2315.62 1511.93 2321.43 1511.93 Z" fill="#000000" fill-rule="evenodd" fill-opacity="1" /><polyline clip-path="url(#clip252)" style="stroke:#000000; stroke-linecap:butt; stroke-linejoin:round; stroke-width:2; stroke-opacity:0.1; fill:none" points="
  186.274,1445.72 2352.76,1445.72 
  "/>
<polyline clip-path="url(#clip252)" style="stroke:#000000; stroke-linecap:butt; stroke-linejoin:round; stroke-width:2; stroke-opacity:0.1; fill:none" points="
  186.274,1076.67 2352.76,1076.67 
  "/>
<polyline clip-path="url(#clip252)" style="stroke:#000000; stroke-linecap:butt; stroke-linejoin:round; stroke-width:2; stroke-opacity:0.1; fill:none" points="
  186.274,707.632 2352.76,707.632 
  "/>
<polyline clip-path="url(#clip252)" style="stroke:#000000; stroke-linecap:butt; stroke-linejoin:round; stroke-width:2; stroke-opacity:0.1; fill:none" points="
  186.274,338.59 2352.76,338.59 
  "/>
<polyline clip-path="url(#clip250)" style="stroke:#000000; stroke-linecap:butt; stroke-linejoin:round; stroke-width:4; stroke-opacity:1; fill:none" points="
  186.274,1486.45 186.274,47.2441 
  "/>
<polyline clip-path="url(#clip250)" style="stroke:#000000; stroke-linecap:butt; stroke-linejoin:round; stroke-width:4; stroke-opacity:1; fill:none" points="
  186.274,1445.72 212.272,1445.72 
  "/>
<polyline clip-path="url(#clip250)" style="stroke:#000000; stroke-linecap:butt; stroke-linejoin:round; stroke-width:4; stroke-opacity:1; fill:none" points="
  186.274,1076.67 212.272,1076.67 
  "/>
<polyline clip-path="url(#clip250)" style="stroke:#000000; stroke-linecap:butt; stroke-linejoin:round; stroke-width:4; stroke-opacity:1; fill:none" points="
  186.274,707.632 212.272,707.632 
  "/>
<polyline clip-path="url(#clip250)" style="stroke:#000000; stroke-linecap:butt; stroke-linejoin:round; stroke-width:4; stroke-opacity:1; fill:none" points="
  186.274,338.59 212.272,338.59 
  "/>
<path clip-path="url(#clip250)" d="M62.9365 1431.51 Q59.3254 1431.51 57.4967 1435.08 Q55.6912 1438.62 55.6912 1445.75 Q55.6912 1452.86 57.4967 1456.42 Q59.3254 1459.96 62.9365 1459.96 Q66.5707 1459.96 68.3763 1456.42 Q70.205 1452.86 70.205 1445.75 Q70.205 1438.62 68.3763 1435.08 Q66.5707 1431.51 62.9365 1431.51 M62.9365 1427.81 Q68.7467 1427.81 71.8022 1432.42 Q74.8809 1437 74.8809 1445.75 Q74.8809 1454.48 71.8022 1459.08 Q68.7467 1463.67 62.9365 1463.67 Q57.1264 1463.67 54.0477 1459.08 Q50.9921 1454.48 50.9921 1445.75 Q50.9921 1437 54.0477 1432.42 Q57.1264 1427.81 62.9365 1427.81 Z" fill="#000000" fill-rule="evenodd" fill-opacity="1" /><path clip-path="url(#clip250)" d="M83.0984 1457.12 L87.9827 1457.12 L87.9827 1463 L83.0984 1463 L83.0984 1457.12 Z" fill="#000000" fill-rule="evenodd" fill-opacity="1" /><path clip-path="url(#clip250)" d="M108.168 1431.51 Q104.557 1431.51 102.728 1435.08 Q100.922 1438.62 100.922 1445.75 Q100.922 1452.86 102.728 1456.42 Q104.557 1459.96 108.168 1459.96 Q111.802 1459.96 113.608 1456.42 Q115.436 1452.86 115.436 1445.75 Q115.436 1438.62 113.608 1435.08 Q111.802 1431.51 108.168 1431.51 M108.168 1427.81 Q113.978 1427.81 117.033 1432.42 Q120.112 1437 120.112 1445.75 Q120.112 1454.48 117.033 1459.08 Q113.978 1463.67 108.168 1463.67 Q102.358 1463.67 99.2789 1459.08 Q96.2234 1454.48 96.2234 1445.75 Q96.2234 1437 99.2789 1432.42 Q102.358 1427.81 108.168 1427.81 Z" fill="#000000" fill-rule="evenodd" fill-opacity="1" /><path clip-path="url(#clip250)" d="M138.33 1431.51 Q134.719 1431.51 132.89 1435.08 Q131.084 1438.62 131.084 1445.75 Q131.084 1452.86 132.89 1456.42 Q134.719 1459.96 138.33 1459.96 Q141.964 1459.96 143.769 1456.42 Q145.598 1452.86 145.598 1445.75 Q145.598 1438.62 143.769 1435.08 Q141.964 1431.51 138.33 1431.51 M138.33 1427.81 Q144.14 1427.81 147.195 1432.42 Q150.274 1437 150.274 1445.75 Q150.274 1454.48 147.195 1459.08 Q144.14 1463.67 138.33 1463.67 Q132.519 1463.67 129.441 1459.08 Q126.385 1454.48 126.385 1445.75 Q126.385 1437 129.441 1432.42 Q132.519 1427.81 138.33 1427.81 Z" fill="#000000" fill-rule="evenodd" fill-opacity="1" /><path clip-path="url(#clip250)" d="M64.1634 1062.47 Q60.5523 1062.47 58.7236 1066.04 Q56.918 1069.58 56.918 1076.71 Q56.918 1083.81 58.7236 1087.38 Q60.5523 1090.92 64.1634 1090.92 Q67.7976 1090.92 69.6031 1087.38 Q71.4318 1083.81 71.4318 1076.71 Q71.4318 1069.58 69.6031 1066.04 Q67.7976 1062.47 64.1634 1062.47 M64.1634 1058.77 Q69.9735 1058.77 73.029 1063.38 Q76.1077 1067.96 76.1077 1076.71 Q76.1077 1085.44 73.029 1090.04 Q69.9735 1094.63 64.1634 1094.63 Q58.3532 1094.63 55.2745 1090.04 Q52.219 1085.44 52.219 1076.71 Q52.219 1067.96 55.2745 1063.38 Q58.3532 1058.77 64.1634 1058.77 Z" fill="#000000" fill-rule="evenodd" fill-opacity="1" /><path clip-path="url(#clip250)" d="M84.3253 1088.07 L89.2095 1088.07 L89.2095 1093.95 L84.3253 1093.95 L84.3253 1088.07 Z" fill="#000000" fill-rule="evenodd" fill-opacity="1" /><path clip-path="url(#clip250)" d="M109.395 1062.47 Q105.783 1062.47 103.955 1066.04 Q102.149 1069.58 102.149 1076.71 Q102.149 1083.81 103.955 1087.38 Q105.783 1090.92 109.395 1090.92 Q113.029 1090.92 114.834 1087.38 Q116.663 1083.81 116.663 1076.71 Q116.663 1069.58 114.834 1066.04 Q113.029 1062.47 109.395 1062.47 M109.395 1058.77 Q115.205 1058.77 118.26 1063.38 Q121.339 1067.96 121.339 1076.71 Q121.339 1085.44 118.26 1090.04 Q115.205 1094.63 109.395 1094.63 Q103.584 1094.63 100.506 1090.04 Q97.4502 1085.44 97.4502 1076.71 Q97.4502 1067.96 100.506 1063.38 Q103.584 1058.77 109.395 1058.77 Z" fill="#000000" fill-rule="evenodd" fill-opacity="1" /><path clip-path="url(#clip250)" d="M130.367 1090.02 L138.006 1090.02 L138.006 1063.65 L129.695 1065.32 L129.695 1061.06 L137.959 1059.39 L142.635 1059.39 L142.635 1090.02 L150.274 1090.02 L150.274 1093.95 L130.367 1093.95 L130.367 1090.02 Z" fill="#000000" fill-rule="evenodd" fill-opacity="1" /><path clip-path="url(#clip250)" d="M64.5337 693.431 Q60.9226 693.431 59.0939 696.995 Q57.2884 700.537 57.2884 707.667 Q57.2884 714.773 59.0939 718.338 Q60.9226 721.88 64.5337 721.88 Q68.168 721.88 69.9735 718.338 Q71.8022 714.773 71.8022 707.667 Q71.8022 700.537 69.9735 696.995 Q68.168 693.431 64.5337 693.431 M64.5337 689.727 Q70.3439 689.727 73.3994 694.333 Q76.4781 698.917 76.4781 707.667 Q76.4781 716.393 73.3994 721 Q70.3439 725.583 64.5337 725.583 Q58.7236 725.583 55.6449 721 Q52.5893 716.393 52.5893 707.667 Q52.5893 698.917 55.6449 694.333 Q58.7236 689.727 64.5337 689.727 Z" fill="#000000" fill-rule="evenodd" fill-opacity="1" /><path clip-path="url(#clip250)" d="M84.6956 719.032 L89.5799 719.032 L89.5799 724.912 L84.6956 724.912 L84.6956 719.032 Z" fill="#000000" fill-rule="evenodd" fill-opacity="1" /><path clip-path="url(#clip250)" d="M109.765 693.431 Q106.154 693.431 104.325 696.995 Q102.52 700.537 102.52 707.667 Q102.52 714.773 104.325 718.338 Q106.154 721.88 109.765 721.88 Q113.399 721.88 115.205 718.338 Q117.033 714.773 117.033 707.667 Q117.033 700.537 115.205 696.995 Q113.399 693.431 109.765 693.431 M109.765 689.727 Q115.575 689.727 118.631 694.333 Q121.709 698.917 121.709 707.667 Q121.709 716.393 118.631 721 Q115.575 725.583 109.765 725.583 Q103.955 725.583 100.876 721 Q97.8206 716.393 97.8206 707.667 Q97.8206 698.917 100.876 694.333 Q103.955 689.727 109.765 689.727 Z" fill="#000000" fill-rule="evenodd" fill-opacity="1" /><path clip-path="url(#clip250)" d="M133.955 720.977 L150.274 720.977 L150.274 724.912 L128.33 724.912 L128.33 720.977 Q130.992 718.222 135.575 713.593 Q140.181 708.94 141.362 707.597 Q143.607 705.074 144.487 703.338 Q145.39 701.579 145.39 699.889 Q145.39 697.134 143.445 695.398 Q141.524 693.662 138.422 693.662 Q136.223 693.662 133.769 694.426 Q131.339 695.19 128.561 696.741 L128.561 692.019 Q131.385 690.884 133.839 690.306 Q136.293 689.727 138.33 689.727 Q143.7 689.727 146.894 692.412 Q150.089 695.097 150.089 699.588 Q150.089 701.718 149.279 703.639 Q148.492 705.537 146.385 708.13 Q145.806 708.801 142.705 712.018 Q139.603 715.213 133.955 720.977 Z" fill="#000000" fill-rule="evenodd" fill-opacity="1" /><path clip-path="url(#clip250)" d="M63.5847 324.389 Q59.9736 324.389 58.1449 327.954 Q56.3393 331.495 56.3393 338.625 Q56.3393 345.731 58.1449 349.296 Q59.9736 352.838 63.5847 352.838 Q67.2189 352.838 69.0244 349.296 Q70.8531 345.731 70.8531 338.625 Q70.8531 331.495 69.0244 327.954 Q67.2189 324.389 63.5847 324.389 M63.5847 320.685 Q69.3948 320.685 72.4503 325.292 Q75.529 329.875 75.529 338.625 Q75.529 347.352 72.4503 351.958 Q69.3948 356.541 63.5847 356.541 Q57.7745 356.541 54.6958 351.958 Q51.6403 347.352 51.6403 338.625 Q51.6403 329.875 54.6958 325.292 Q57.7745 320.685 63.5847 320.685 Z" fill="#000000" fill-rule="evenodd" fill-opacity="1" /><path clip-path="url(#clip250)" d="M83.7466 349.99 L88.6308 349.99 L88.6308 355.87 L83.7466 355.87 L83.7466 349.99 Z" fill="#000000" fill-rule="evenodd" fill-opacity="1" /><path clip-path="url(#clip250)" d="M108.816 324.389 Q105.205 324.389 103.376 327.954 Q101.571 331.495 101.571 338.625 Q101.571 345.731 103.376 349.296 Q105.205 352.838 108.816 352.838 Q112.45 352.838 114.256 349.296 Q116.084 345.731 116.084 338.625 Q116.084 331.495 114.256 327.954 Q112.45 324.389 108.816 324.389 M108.816 320.685 Q114.626 320.685 117.682 325.292 Q120.76 329.875 120.76 338.625 Q120.76 347.352 117.682 351.958 Q114.626 356.541 108.816 356.541 Q103.006 356.541 99.927 351.958 Q96.8715 347.352 96.8715 338.625 Q96.8715 329.875 99.927 325.292 Q103.006 320.685 108.816 320.685 Z" fill="#000000" fill-rule="evenodd" fill-opacity="1" /><path clip-path="url(#clip250)" d="M143.144 337.236 Q146.501 337.953 148.376 340.222 Q150.274 342.491 150.274 345.824 Q150.274 350.94 146.756 353.74 Q143.237 356.541 136.756 356.541 Q134.58 356.541 132.265 356.102 Q129.973 355.685 127.519 354.828 L127.519 350.315 Q129.464 351.449 131.779 352.027 Q134.094 352.606 136.617 352.606 Q141.015 352.606 143.306 350.87 Q145.621 349.134 145.621 345.824 Q145.621 342.768 143.468 341.055 Q141.339 339.319 137.519 339.319 L133.492 339.319 L133.492 335.477 L137.705 335.477 Q141.154 335.477 142.982 334.111 Q144.811 332.722 144.811 330.129 Q144.811 327.467 142.913 326.055 Q141.038 324.62 137.519 324.62 Q135.598 324.62 133.399 325.037 Q131.2 325.454 128.561 326.333 L128.561 322.167 Q131.223 321.426 133.538 321.055 Q135.876 320.685 137.936 320.685 Q143.26 320.685 146.362 323.116 Q149.464 325.523 149.464 329.643 Q149.464 332.514 147.82 334.504 Q146.177 336.472 143.144 337.236 Z" fill="#000000" fill-rule="evenodd" fill-opacity="1" /><path clip-path="url(#clip252)" d="
M288.467 1445.03 L288.467 1445.72 L296.642 1445.72 L296.642 1445.03 L288.467 1445.03 L288.467 1445.03  Z
  " fill="#009af9" fill-rule="evenodd" fill-opacity="1"/>
<polyline clip-path="url(#clip252)" style="stroke:#009af9; stroke-linecap:butt; stroke-linejoin:round; stroke-width:4; stroke-opacity:1; fill:none" points="
  288.467,1445.03 288.467,1445.72 296.642,1445.72 296.642,1445.03 288.467,1445.03 
  "/>
<path clip-path="url(#clip252)" d="
M296.642 1444.68 L296.642 1445.72 L304.817 1445.72 L304.817 1444.68 L296.642 1444.68 L296.642 1444.68  Z
  " fill="#009af9" fill-rule="evenodd" fill-opacity="1"/>
<polyline clip-path="url(#clip252)" style="stroke:#009af9; stroke-linecap:butt; stroke-linejoin:round; stroke-width:4; stroke-opacity:1; fill:none" points="
  296.642,1444.68 296.642,1445.72 304.817,1445.72 304.817,1444.68 296.642,1444.68 
  "/>
<path clip-path="url(#clip252)" d="
M304.817 1442.96 L304.817 1445.72 L312.993 1445.72 L312.993 1442.96 L304.817 1442.96 L304.817 1442.96  Z
  " fill="#009af9" fill-rule="evenodd" fill-opacity="1"/>
<polyline clip-path="url(#clip252)" style="stroke:#009af9; stroke-linecap:butt; stroke-linejoin:round; stroke-width:4; stroke-opacity:1; fill:none" points="
  304.817,1442.96 304.817,1445.72 312.993,1445.72 312.993,1442.96 304.817,1442.96 
  "/>
<path clip-path="url(#clip252)" d="
M312.993 1443.31 L312.993 1445.72 L321.168 1445.72 L321.168 1443.31 L312.993 1443.31 L312.993 1443.31  Z
  " fill="#009af9" fill-rule="evenodd" fill-opacity="1"/>
<polyline clip-path="url(#clip252)" style="stroke:#009af9; stroke-linecap:butt; stroke-linejoin:round; stroke-width:4; stroke-opacity:1; fill:none" points="
  312.993,1443.31 312.993,1445.72 321.168,1445.72 321.168,1443.31 312.993,1443.31 
  "/>
<path clip-path="url(#clip252)" d="
M321.168 1440.21 L321.168 1445.72 L329.344 1445.72 L329.344 1440.21 L321.168 1440.21 L321.168 1440.21  Z
  " fill="#009af9" fill-rule="evenodd" fill-opacity="1"/>
<polyline clip-path="url(#clip252)" style="stroke:#009af9; stroke-linecap:butt; stroke-linejoin:round; stroke-width:4; stroke-opacity:1; fill:none" points="
  321.168,1440.21 321.168,1445.72 329.344,1445.72 329.344,1440.21 321.168,1440.21 
  "/>
<path clip-path="url(#clip252)" d="
M329.344 1437.46 L329.344 1445.72 L337.519 1445.72 L337.519 1437.46 L329.344 1437.46 L329.344 1437.46  Z
  " fill="#009af9" fill-rule="evenodd" fill-opacity="1"/>
<polyline clip-path="url(#clip252)" style="stroke:#009af9; stroke-linecap:butt; stroke-linejoin:round; stroke-width:4; stroke-opacity:1; fill:none" points="
  329.344,1437.46 329.344,1445.72 337.519,1445.72 337.519,1437.46 329.344,1437.46 
  "/>
<path clip-path="url(#clip252)" d="
M337.519 1417.51 L337.519 1445.72 L345.694 1445.72 L345.694 1417.51 L337.519 1417.51 L337.519 1417.51  Z
  " fill="#009af9" fill-rule="evenodd" fill-opacity="1"/>
<polyline clip-path="url(#clip252)" style="stroke:#009af9; stroke-linecap:butt; stroke-linejoin:round; stroke-width:4; stroke-opacity:1; fill:none" points="
  337.519,1417.51 337.519,1445.72 345.694,1445.72 345.694,1417.51 337.519,1417.51 
  "/>
<path clip-path="url(#clip252)" d="
M345.694 1408.91 L345.694 1445.72 L353.87 1445.72 L353.87 1408.91 L345.694 1408.91 L345.694 1408.91  Z
  " fill="#009af9" fill-rule="evenodd" fill-opacity="1"/>
<polyline clip-path="url(#clip252)" style="stroke:#009af9; stroke-linecap:butt; stroke-linejoin:round; stroke-width:4; stroke-opacity:1; fill:none" points="
  345.694,1408.91 345.694,1445.72 353.87,1445.72 353.87,1408.91 345.694,1408.91 
  "/>
<path clip-path="url(#clip252)" d="
M353.87 1383.45 L353.87 1445.72 L362.045 1445.72 L362.045 1383.45 L353.87 1383.45 L353.87 1383.45  Z
  " fill="#009af9" fill-rule="evenodd" fill-opacity="1"/>
<polyline clip-path="url(#clip252)" style="stroke:#009af9; stroke-linecap:butt; stroke-linejoin:round; stroke-width:4; stroke-opacity:1; fill:none" points="
  353.87,1383.45 353.87,1445.72 362.045,1445.72 362.045,1383.45 353.87,1383.45 
  "/>
<path clip-path="url(#clip252)" d="
M362.045 1346.98 L362.045 1445.72 L370.221 1445.72 L370.221 1346.98 L362.045 1346.98 L362.045 1346.98  Z
  " fill="#009af9" fill-rule="evenodd" fill-opacity="1"/>
<polyline clip-path="url(#clip252)" style="stroke:#009af9; stroke-linecap:butt; stroke-linejoin:round; stroke-width:4; stroke-opacity:1; fill:none" points="
  362.045,1346.98 362.045,1445.72 370.221,1445.72 370.221,1346.98 362.045,1346.98 
  "/>
<path clip-path="url(#clip252)" d="
M370.221 1296.07 L370.221 1445.72 L378.396 1445.72 L378.396 1296.07 L370.221 1296.07 L370.221 1296.07  Z
  " fill="#009af9" fill-rule="evenodd" fill-opacity="1"/>
<polyline clip-path="url(#clip252)" style="stroke:#009af9; stroke-linecap:butt; stroke-linejoin:round; stroke-width:4; stroke-opacity:1; fill:none" points="
  370.221,1296.07 370.221,1445.72 378.396,1445.72 378.396,1296.07 370.221,1296.07 
  "/>
<path clip-path="url(#clip252)" d="
M378.396 1248.59 L378.396 1445.72 L386.571 1445.72 L386.571 1248.59 L378.396 1248.59 L378.396 1248.59  Z
  " fill="#009af9" fill-rule="evenodd" fill-opacity="1"/>
<polyline clip-path="url(#clip252)" style="stroke:#009af9; stroke-linecap:butt; stroke-linejoin:round; stroke-width:4; stroke-opacity:1; fill:none" points="
  378.396,1248.59 378.396,1445.72 386.571,1445.72 386.571,1248.59 378.396,1248.59 
  "/>
<path clip-path="url(#clip252)" d="
M386.571 1183.92 L386.571 1445.72 L394.747 1445.72 L394.747 1183.92 L386.571 1183.92 L386.571 1183.92  Z
  " fill="#009af9" fill-rule="evenodd" fill-opacity="1"/>
<polyline clip-path="url(#clip252)" style="stroke:#009af9; stroke-linecap:butt; stroke-linejoin:round; stroke-width:4; stroke-opacity:1; fill:none" points="
  386.571,1183.92 386.571,1445.72 394.747,1445.72 394.747,1183.92 386.571,1183.92 
  "/>
<path clip-path="url(#clip252)" d="
M394.747 1101.69 L394.747 1445.72 L402.922 1445.72 L402.922 1101.69 L394.747 1101.69 L394.747 1101.69  Z
  " fill="#009af9" fill-rule="evenodd" fill-opacity="1"/>
<polyline clip-path="url(#clip252)" style="stroke:#009af9; stroke-linecap:butt; stroke-linejoin:round; stroke-width:4; stroke-opacity:1; fill:none" points="
  394.747,1101.69 394.747,1445.72 402.922,1445.72 402.922,1101.69 394.747,1101.69 
  "/>
<path clip-path="url(#clip252)" d="
M402.922 976.815 L402.922 1445.72 L411.098 1445.72 L411.098 976.815 L402.922 976.815 L402.922 976.815  Z
  " fill="#009af9" fill-rule="evenodd" fill-opacity="1"/>
<polyline clip-path="url(#clip252)" style="stroke:#009af9; stroke-linecap:butt; stroke-linejoin:round; stroke-width:4; stroke-opacity:1; fill:none" points="
  402.922,976.815 402.922,1445.72 411.098,1445.72 411.098,976.815 402.922,976.815 
  "/>
<path clip-path="url(#clip252)" d="
M411.098 906.29 L411.098 1445.72 L419.273 1445.72 L419.273 906.29 L411.098 906.29 L411.098 906.29  Z
  " fill="#009af9" fill-rule="evenodd" fill-opacity="1"/>
<polyline clip-path="url(#clip252)" style="stroke:#009af9; stroke-linecap:butt; stroke-linejoin:round; stroke-width:4; stroke-opacity:1; fill:none" points="
  411.098,906.29 411.098,1445.72 419.273,1445.72 419.273,906.29 411.098,906.29 
  "/>
<path clip-path="url(#clip252)" d="
M419.273 787.259 L419.273 1445.72 L427.448 1445.72 L427.448 787.259 L419.273 787.259 L419.273 787.259  Z
  " fill="#009af9" fill-rule="evenodd" fill-opacity="1"/>
<polyline clip-path="url(#clip252)" style="stroke:#009af9; stroke-linecap:butt; stroke-linejoin:round; stroke-width:4; stroke-opacity:1; fill:none" points="
  419.273,787.259 419.273,1445.72 427.448,1445.72 427.448,787.259 419.273,787.259 
  "/>
<path clip-path="url(#clip252)" d="
M427.448 738.064 L427.448 1445.72 L435.624 1445.72 L435.624 738.064 L427.448 738.064 L427.448 738.064  Z
  " fill="#009af9" fill-rule="evenodd" fill-opacity="1"/>
<polyline clip-path="url(#clip252)" style="stroke:#009af9; stroke-linecap:butt; stroke-linejoin:round; stroke-width:4; stroke-opacity:1; fill:none" points="
  427.448,738.064 427.448,1445.72 435.624,1445.72 435.624,738.064 427.448,738.064 
  "/>
<path clip-path="url(#clip252)" d="
M435.624 633.482 L435.624 1445.72 L443.799 1445.72 L443.799 633.482 L435.624 633.482 L435.624 633.482  Z
  " fill="#009af9" fill-rule="evenodd" fill-opacity="1"/>
<polyline clip-path="url(#clip252)" style="stroke:#009af9; stroke-linecap:butt; stroke-linejoin:round; stroke-width:4; stroke-opacity:1; fill:none" points="
  435.624,633.482 435.624,1445.72 443.799,1445.72 443.799,633.482 435.624,633.482 
  "/>
<path clip-path="url(#clip252)" d="
M443.799 565.365 L443.799 1445.72 L451.975 1445.72 L451.975 565.365 L443.799 565.365 L443.799 565.365  Z
  " fill="#009af9" fill-rule="evenodd" fill-opacity="1"/>
<polyline clip-path="url(#clip252)" style="stroke:#009af9; stroke-linecap:butt; stroke-linejoin:round; stroke-width:4; stroke-opacity:1; fill:none" points="
  443.799,565.365 443.799,1445.72 451.975,1445.72 451.975,565.365 443.799,565.365 
  "/>
<path clip-path="url(#clip252)" d="
M451.975 469.728 L451.975 1445.72 L460.15 1445.72 L460.15 469.728 L451.975 469.728 L451.975 469.728  Z
  " fill="#009af9" fill-rule="evenodd" fill-opacity="1"/>
<polyline clip-path="url(#clip252)" style="stroke:#009af9; stroke-linecap:butt; stroke-linejoin:round; stroke-width:4; stroke-opacity:1; fill:none" points="
  451.975,469.728 451.975,1445.72 460.15,1445.72 460.15,469.728 451.975,469.728 
  "/>
<path clip-path="url(#clip252)" d="
M460.15 355.856 L460.15 1445.72 L468.325 1445.72 L468.325 355.856 L460.15 355.856 L460.15 355.856  Z
  " fill="#009af9" fill-rule="evenodd" fill-opacity="1"/>
<polyline clip-path="url(#clip252)" style="stroke:#009af9; stroke-linecap:butt; stroke-linejoin:round; stroke-width:4; stroke-opacity:1; fill:none" points="
  460.15,355.856 460.15,1445.72 468.325,1445.72 468.325,355.856 460.15,355.856 
  "/>
<path clip-path="url(#clip252)" d="
M468.325 264.003 L468.325 1445.72 L476.501 1445.72 L476.501 264.003 L468.325 264.003 L468.325 264.003  Z
  " fill="#009af9" fill-rule="evenodd" fill-opacity="1"/>
<polyline clip-path="url(#clip252)" style="stroke:#009af9; stroke-linecap:butt; stroke-linejoin:round; stroke-width:4; stroke-opacity:1; fill:none" points="
  468.325,264.003 468.325,1445.72 476.501,1445.72 476.501,264.003 468.325,264.003 
  "/>
<path clip-path="url(#clip252)" d="
M476.501 164.237 L476.501 1445.72 L484.676 1445.72 L484.676 164.237 L476.501 164.237 L476.501 164.237  Z
  " fill="#009af9" fill-rule="evenodd" fill-opacity="1"/>
<polyline clip-path="url(#clip252)" style="stroke:#009af9; stroke-linecap:butt; stroke-linejoin:round; stroke-width:4; stroke-opacity:1; fill:none" points="
  476.501,164.237 476.501,1445.72 484.676,1445.72 484.676,164.237 476.501,164.237 
  "/>
<path clip-path="url(#clip252)" d="
M484.676 178.686 L484.676 1445.72 L492.852 1445.72 L492.852 178.686 L484.676 178.686 L484.676 178.686  Z
  " fill="#009af9" fill-rule="evenodd" fill-opacity="1"/>
<polyline clip-path="url(#clip252)" style="stroke:#009af9; stroke-linecap:butt; stroke-linejoin:round; stroke-width:4; stroke-opacity:1; fill:none" points="
  484.676,178.686 484.676,1445.72 492.852,1445.72 492.852,178.686 484.676,178.686 
  "/>
<path clip-path="url(#clip252)" d="
M492.852 171.461 L492.852 1445.72 L501.027 1445.72 L501.027 171.461 L492.852 171.461 L492.852 171.461  Z
  " fill="#009af9" fill-rule="evenodd" fill-opacity="1"/>
<polyline clip-path="url(#clip252)" style="stroke:#009af9; stroke-linecap:butt; stroke-linejoin:round; stroke-width:4; stroke-opacity:1; fill:none" points="
  492.852,171.461 492.852,1445.72 501.027,1445.72 501.027,171.461 492.852,171.461 
  "/>
<path clip-path="url(#clip252)" d="
M501.027 194.167 L501.027 1445.72 L509.202 1445.72 L509.202 194.167 L501.027 194.167 L501.027 194.167  Z
  " fill="#009af9" fill-rule="evenodd" fill-opacity="1"/>
<polyline clip-path="url(#clip252)" style="stroke:#009af9; stroke-linecap:butt; stroke-linejoin:round; stroke-width:4; stroke-opacity:1; fill:none" points="
  501.027,194.167 501.027,1445.72 509.202,1445.72 509.202,194.167 501.027,194.167 
  "/>
<path clip-path="url(#clip252)" d="
M509.202 227.881 L509.202 1445.72 L517.378 1445.72 L517.378 227.881 L509.202 227.881 L509.202 227.881  Z
  " fill="#009af9" fill-rule="evenodd" fill-opacity="1"/>
<polyline clip-path="url(#clip252)" style="stroke:#009af9; stroke-linecap:butt; stroke-linejoin:round; stroke-width:4; stroke-opacity:1; fill:none" points="
  509.202,227.881 509.202,1445.72 517.378,1445.72 517.378,227.881 509.202,227.881 
  "/>
<path clip-path="url(#clip252)" d="
M517.378 125.706 L517.378 1445.72 L525.553 1445.72 L525.553 125.706 L517.378 125.706 L517.378 125.706  Z
  " fill="#009af9" fill-rule="evenodd" fill-opacity="1"/>
<polyline clip-path="url(#clip252)" style="stroke:#009af9; stroke-linecap:butt; stroke-linejoin:round; stroke-width:4; stroke-opacity:1; fill:none" points="
  517.378,125.706 517.378,1445.72 525.553,1445.72 525.553,125.706 517.378,125.706 
  "/>
<path clip-path="url(#clip252)" d="
M525.553 130.523 L525.553 1445.72 L533.729 1445.72 L533.729 130.523 L525.553 130.523 L525.553 130.523  Z
  " fill="#009af9" fill-rule="evenodd" fill-opacity="1"/>
<polyline clip-path="url(#clip252)" style="stroke:#009af9; stroke-linecap:butt; stroke-linejoin:round; stroke-width:4; stroke-opacity:1; fill:none" points="
  525.553,130.523 525.553,1445.72 533.729,1445.72 533.729,130.523 525.553,130.523 
  "/>
<path clip-path="url(#clip252)" d="
M533.729 192.446 L533.729 1445.72 L541.904 1445.72 L541.904 192.446 L533.729 192.446 L533.729 192.446  Z
  " fill="#009af9" fill-rule="evenodd" fill-opacity="1"/>
<polyline clip-path="url(#clip252)" style="stroke:#009af9; stroke-linecap:butt; stroke-linejoin:round; stroke-width:4; stroke-opacity:1; fill:none" points="
  533.729,192.446 533.729,1445.72 541.904,1445.72 541.904,192.446 533.729,192.446 
  "/>
<path clip-path="url(#clip252)" d="
M541.904 217.56 L541.904 1445.72 L550.079 1445.72 L550.079 217.56 L541.904 217.56 L541.904 217.56  Z
  " fill="#009af9" fill-rule="evenodd" fill-opacity="1"/>
<polyline clip-path="url(#clip252)" style="stroke:#009af9; stroke-linecap:butt; stroke-linejoin:round; stroke-width:4; stroke-opacity:1; fill:none" points="
  541.904,217.56 541.904,1445.72 550.079,1445.72 550.079,217.56 541.904,217.56 
  "/>
<path clip-path="url(#clip252)" d="
M550.079 236.825 L550.079 1445.72 L558.255 1445.72 L558.255 236.825 L550.079 236.825 L550.079 236.825  Z
  " fill="#009af9" fill-rule="evenodd" fill-opacity="1"/>
<polyline clip-path="url(#clip252)" style="stroke:#009af9; stroke-linecap:butt; stroke-linejoin:round; stroke-width:4; stroke-opacity:1; fill:none" points="
  550.079,236.825 550.079,1445.72 558.255,1445.72 558.255,236.825 550.079,236.825 
  "/>
<path clip-path="url(#clip252)" d="
M558.255 308.726 L558.255 1445.72 L566.43 1445.72 L566.43 308.726 L558.255 308.726 L558.255 308.726  Z
  " fill="#009af9" fill-rule="evenodd" fill-opacity="1"/>
<polyline clip-path="url(#clip252)" style="stroke:#009af9; stroke-linecap:butt; stroke-linejoin:round; stroke-width:4; stroke-opacity:1; fill:none" points="
  558.255,308.726 558.255,1445.72 566.43,1445.72 566.43,308.726 558.255,308.726 
  "/>
<path clip-path="url(#clip252)" d="
M566.43 325.583 L566.43 1445.72 L574.606 1445.72 L574.606 325.583 L566.43 325.583 L566.43 325.583  Z
  " fill="#009af9" fill-rule="evenodd" fill-opacity="1"/>
<polyline clip-path="url(#clip252)" style="stroke:#009af9; stroke-linecap:butt; stroke-linejoin:round; stroke-width:4; stroke-opacity:1; fill:none" points="
  566.43,325.583 566.43,1445.72 574.606,1445.72 574.606,325.583 566.43,325.583 
  "/>
<path clip-path="url(#clip252)" d="
M574.606 405.052 L574.606 1445.72 L582.781 1445.72 L582.781 405.052 L574.606 405.052 L574.606 405.052  Z
  " fill="#009af9" fill-rule="evenodd" fill-opacity="1"/>
<polyline clip-path="url(#clip252)" style="stroke:#009af9; stroke-linecap:butt; stroke-linejoin:round; stroke-width:4; stroke-opacity:1; fill:none" points="
  574.606,405.052 574.606,1445.72 582.781,1445.72 582.781,405.052 574.606,405.052 
  "/>
<path clip-path="url(#clip252)" d="
M582.781 427.413 L582.781 1445.72 L590.956 1445.72 L590.956 427.413 L582.781 427.413 L582.781 427.413  Z
  " fill="#009af9" fill-rule="evenodd" fill-opacity="1"/>
<polyline clip-path="url(#clip252)" style="stroke:#009af9; stroke-linecap:butt; stroke-linejoin:round; stroke-width:4; stroke-opacity:1; fill:none" points="
  582.781,427.413 582.781,1445.72 590.956,1445.72 590.956,427.413 582.781,427.413 
  "/>
<path clip-path="url(#clip252)" d="
M590.956 456.655 L590.956 1445.72 L599.132 1445.72 L599.132 456.655 L590.956 456.655 L590.956 456.655  Z
  " fill="#009af9" fill-rule="evenodd" fill-opacity="1"/>
<polyline clip-path="url(#clip252)" style="stroke:#009af9; stroke-linecap:butt; stroke-linejoin:round; stroke-width:4; stroke-opacity:1; fill:none" points="
  590.956,456.655 590.956,1445.72 599.132,1445.72 599.132,456.655 590.956,456.655 
  "/>
<path clip-path="url(#clip252)" d="
M599.132 501.377 L599.132 1445.72 L607.307 1445.72 L607.307 501.377 L599.132 501.377 L599.132 501.377  Z
  " fill="#009af9" fill-rule="evenodd" fill-opacity="1"/>
<polyline clip-path="url(#clip252)" style="stroke:#009af9; stroke-linecap:butt; stroke-linejoin:round; stroke-width:4; stroke-opacity:1; fill:none" points="
  599.132,501.377 599.132,1445.72 607.307,1445.72 607.307,501.377 599.132,501.377 
  "/>
<path clip-path="url(#clip252)" d="
M607.307 536.812 L607.307 1445.72 L615.483 1445.72 L615.483 536.812 L607.307 536.812 L607.307 536.812  Z
  " fill="#009af9" fill-rule="evenodd" fill-opacity="1"/>
<polyline clip-path="url(#clip252)" style="stroke:#009af9; stroke-linecap:butt; stroke-linejoin:round; stroke-width:4; stroke-opacity:1; fill:none" points="
  607.307,536.812 607.307,1445.72 615.483,1445.72 615.483,536.812 607.307,536.812 
  "/>
<path clip-path="url(#clip252)" d="
M615.483 623.849 L615.483 1445.72 L623.658 1445.72 L623.658 623.849 L615.483 623.849 L615.483 623.849  Z
  " fill="#009af9" fill-rule="evenodd" fill-opacity="1"/>
<polyline clip-path="url(#clip252)" style="stroke:#009af9; stroke-linecap:butt; stroke-linejoin:round; stroke-width:4; stroke-opacity:1; fill:none" points="
  615.483,623.849 615.483,1445.72 623.658,1445.72 623.658,623.849 615.483,623.849 
  "/>
<path clip-path="url(#clip252)" d="
M623.658 650.339 L623.658 1445.72 L631.833 1445.72 L631.833 650.339 L623.658 650.339 L623.658 650.339  Z
  " fill="#009af9" fill-rule="evenodd" fill-opacity="1"/>
<polyline clip-path="url(#clip252)" style="stroke:#009af9; stroke-linecap:butt; stroke-linejoin:round; stroke-width:4; stroke-opacity:1; fill:none" points="
  623.658,650.339 623.658,1445.72 631.833,1445.72 631.833,650.339 623.658,650.339 
  "/>
<path clip-path="url(#clip252)" d="
M631.833 742.536 L631.833 1445.72 L640.009 1445.72 L640.009 742.536 L631.833 742.536 L631.833 742.536  Z
  " fill="#009af9" fill-rule="evenodd" fill-opacity="1"/>
<polyline clip-path="url(#clip252)" style="stroke:#009af9; stroke-linecap:butt; stroke-linejoin:round; stroke-width:4; stroke-opacity:1; fill:none" points="
  631.833,742.536 631.833,1445.72 640.009,1445.72 640.009,742.536 631.833,742.536 
  "/>
<path clip-path="url(#clip252)" d="
M640.009 785.539 L640.009 1445.72 L648.184 1445.72 L648.184 785.539 L640.009 785.539 L640.009 785.539  Z
  " fill="#009af9" fill-rule="evenodd" fill-opacity="1"/>
<polyline clip-path="url(#clip252)" style="stroke:#009af9; stroke-linecap:butt; stroke-linejoin:round; stroke-width:4; stroke-opacity:1; fill:none" points="
  640.009,785.539 640.009,1445.72 648.184,1445.72 648.184,785.539 640.009,785.539 
  "/>
<path clip-path="url(#clip252)" d="
M648.184 834.734 L648.184 1445.72 L656.36 1445.72 L656.36 834.734 L648.184 834.734 L648.184 834.734  Z
  " fill="#009af9" fill-rule="evenodd" fill-opacity="1"/>
<polyline clip-path="url(#clip252)" style="stroke:#009af9; stroke-linecap:butt; stroke-linejoin:round; stroke-width:4; stroke-opacity:1; fill:none" points="
  648.184,834.734 648.184,1445.72 656.36,1445.72 656.36,834.734 648.184,834.734 
  "/>
<path clip-path="url(#clip252)" d="
M656.36 872.576 L656.36 1445.72 L664.535 1445.72 L664.535 872.576 L656.36 872.576 L656.36 872.576  Z
  " fill="#009af9" fill-rule="evenodd" fill-opacity="1"/>
<polyline clip-path="url(#clip252)" style="stroke:#009af9; stroke-linecap:butt; stroke-linejoin:round; stroke-width:4; stroke-opacity:1; fill:none" points="
  656.36,872.576 656.36,1445.72 664.535,1445.72 664.535,872.576 656.36,872.576 
  "/>
<path clip-path="url(#clip252)" d="
M664.535 942.069 L664.535 1445.72 L672.711 1445.72 L672.711 942.069 L664.535 942.069 L664.535 942.069  Z
  " fill="#009af9" fill-rule="evenodd" fill-opacity="1"/>
<polyline clip-path="url(#clip252)" style="stroke:#009af9; stroke-linecap:butt; stroke-linejoin:round; stroke-width:4; stroke-opacity:1; fill:none" points="
  664.535,942.069 664.535,1445.72 672.711,1445.72 672.711,942.069 664.535,942.069 
  "/>
<path clip-path="url(#clip252)" d="
M672.711 959.27 L672.711 1445.72 L680.886 1445.72 L680.886 959.27 L672.711 959.27 L672.711 959.27  Z
  " fill="#009af9" fill-rule="evenodd" fill-opacity="1"/>
<polyline clip-path="url(#clip252)" style="stroke:#009af9; stroke-linecap:butt; stroke-linejoin:round; stroke-width:4; stroke-opacity:1; fill:none" points="
  672.711,959.27 672.711,1445.72 680.886,1445.72 680.886,959.27 672.711,959.27 
  "/>
<path clip-path="url(#clip252)" d="
M680.886 1015 L680.886 1445.72 L689.061 1445.72 L689.061 1015 L680.886 1015 L680.886 1015  Z
  " fill="#009af9" fill-rule="evenodd" fill-opacity="1"/>
<polyline clip-path="url(#clip252)" style="stroke:#009af9; stroke-linecap:butt; stroke-linejoin:round; stroke-width:4; stroke-opacity:1; fill:none" points="
  680.886,1015 680.886,1445.72 689.061,1445.72 689.061,1015 680.886,1015 
  "/>
<path clip-path="url(#clip252)" d="
M689.061 1064.54 L689.061 1445.72 L697.237 1445.72 L697.237 1064.54 L689.061 1064.54 L689.061 1064.54  Z
  " fill="#009af9" fill-rule="evenodd" fill-opacity="1"/>
<polyline clip-path="url(#clip252)" style="stroke:#009af9; stroke-linecap:butt; stroke-linejoin:round; stroke-width:4; stroke-opacity:1; fill:none" points="
  689.061,1064.54 689.061,1445.72 697.237,1445.72 697.237,1064.54 689.061,1064.54 
  "/>
<path clip-path="url(#clip252)" d="
M697.237 1090.69 L697.237 1445.72 L705.412 1445.72 L705.412 1090.69 L697.237 1090.69 L697.237 1090.69  Z
  " fill="#009af9" fill-rule="evenodd" fill-opacity="1"/>
<polyline clip-path="url(#clip252)" style="stroke:#009af9; stroke-linecap:butt; stroke-linejoin:round; stroke-width:4; stroke-opacity:1; fill:none" points="
  697.237,1090.69 697.237,1445.72 705.412,1445.72 705.412,1090.69 697.237,1090.69 
  "/>
<path clip-path="url(#clip252)" d="
M705.412 1131.28 L705.412 1445.72 L713.588 1445.72 L713.588 1131.28 L705.412 1131.28 L705.412 1131.28  Z
  " fill="#009af9" fill-rule="evenodd" fill-opacity="1"/>
<polyline clip-path="url(#clip252)" style="stroke:#009af9; stroke-linecap:butt; stroke-linejoin:round; stroke-width:4; stroke-opacity:1; fill:none" points="
  705.412,1131.28 705.412,1445.72 713.588,1445.72 713.588,1131.28 705.412,1131.28 
  "/>
<path clip-path="url(#clip252)" d="
M713.588 1170.5 L713.588 1445.72 L721.763 1445.72 L721.763 1170.5 L713.588 1170.5 L713.588 1170.5  Z
  " fill="#009af9" fill-rule="evenodd" fill-opacity="1"/>
<polyline clip-path="url(#clip252)" style="stroke:#009af9; stroke-linecap:butt; stroke-linejoin:round; stroke-width:4; stroke-opacity:1; fill:none" points="
  713.588,1170.5 713.588,1445.72 721.763,1445.72 721.763,1170.5 713.588,1170.5 
  "/>
<path clip-path="url(#clip252)" d="
M721.763 1203.18 L721.763 1445.72 L729.938 1445.72 L729.938 1203.18 L721.763 1203.18 L721.763 1203.18  Z
  " fill="#009af9" fill-rule="evenodd" fill-opacity="1"/>
<polyline clip-path="url(#clip252)" style="stroke:#009af9; stroke-linecap:butt; stroke-linejoin:round; stroke-width:4; stroke-opacity:1; fill:none" points="
  721.763,1203.18 721.763,1445.72 729.938,1445.72 729.938,1203.18 721.763,1203.18 
  "/>
<path clip-path="url(#clip252)" d="
M729.938 1214.53 L729.938 1445.72 L738.114 1445.72 L738.114 1214.53 L729.938 1214.53 L729.938 1214.53  Z
  " fill="#009af9" fill-rule="evenodd" fill-opacity="1"/>
<polyline clip-path="url(#clip252)" style="stroke:#009af9; stroke-linecap:butt; stroke-linejoin:round; stroke-width:4; stroke-opacity:1; fill:none" points="
  729.938,1214.53 729.938,1445.72 738.114,1445.72 738.114,1214.53 729.938,1214.53 
  "/>
<path clip-path="url(#clip252)" d="
M738.114 1256.85 L738.114 1445.72 L746.289 1445.72 L746.289 1256.85 L738.114 1256.85 L738.114 1256.85  Z
  " fill="#009af9" fill-rule="evenodd" fill-opacity="1"/>
<polyline clip-path="url(#clip252)" style="stroke:#009af9; stroke-linecap:butt; stroke-linejoin:round; stroke-width:4; stroke-opacity:1; fill:none" points="
  738.114,1256.85 738.114,1445.72 746.289,1445.72 746.289,1256.85 738.114,1256.85 
  "/>
<path clip-path="url(#clip252)" d="
M746.289 1272.67 L746.289 1445.72 L754.465 1445.72 L754.465 1272.67 L746.289 1272.67 L746.289 1272.67  Z
  " fill="#009af9" fill-rule="evenodd" fill-opacity="1"/>
<polyline clip-path="url(#clip252)" style="stroke:#009af9; stroke-linecap:butt; stroke-linejoin:round; stroke-width:4; stroke-opacity:1; fill:none" points="
  746.289,1272.67 746.289,1445.72 754.465,1445.72 754.465,1272.67 746.289,1272.67 
  "/>
<path clip-path="url(#clip252)" d="
M754.465 1306.39 L754.465 1445.72 L762.64 1445.72 L762.64 1306.39 L754.465 1306.39 L754.465 1306.39  Z
  " fill="#009af9" fill-rule="evenodd" fill-opacity="1"/>
<polyline clip-path="url(#clip252)" style="stroke:#009af9; stroke-linecap:butt; stroke-linejoin:round; stroke-width:4; stroke-opacity:1; fill:none" points="
  754.465,1306.39 754.465,1445.72 762.64,1445.72 762.64,1306.39 754.465,1306.39 
  "/>
<path clip-path="url(#clip252)" d="
M762.64 1324.28 L762.64 1445.72 L770.815 1445.72 L770.815 1324.28 L762.64 1324.28 L762.64 1324.28  Z
  " fill="#009af9" fill-rule="evenodd" fill-opacity="1"/>
<polyline clip-path="url(#clip252)" style="stroke:#009af9; stroke-linecap:butt; stroke-linejoin:round; stroke-width:4; stroke-opacity:1; fill:none" points="
  762.64,1324.28 762.64,1445.72 770.815,1445.72 770.815,1324.28 762.64,1324.28 
  "/>
<path clip-path="url(#clip252)" d="
M770.815 1343.54 L770.815 1445.72 L778.991 1445.72 L778.991 1343.54 L770.815 1343.54 L770.815 1343.54  Z
  " fill="#009af9" fill-rule="evenodd" fill-opacity="1"/>
<polyline clip-path="url(#clip252)" style="stroke:#009af9; stroke-linecap:butt; stroke-linejoin:round; stroke-width:4; stroke-opacity:1; fill:none" points="
  770.815,1343.54 770.815,1445.72 778.991,1445.72 778.991,1343.54 770.815,1343.54 
  "/>
<path clip-path="url(#clip252)" d="
M778.991 1363.15 L778.991 1445.72 L787.166 1445.72 L787.166 1363.15 L778.991 1363.15 L778.991 1363.15  Z
  " fill="#009af9" fill-rule="evenodd" fill-opacity="1"/>
<polyline clip-path="url(#clip252)" style="stroke:#009af9; stroke-linecap:butt; stroke-linejoin:round; stroke-width:4; stroke-opacity:1; fill:none" points="
  778.991,1363.15 778.991,1445.72 787.166,1445.72 787.166,1363.15 778.991,1363.15 
  "/>
<path clip-path="url(#clip252)" d="
M787.166 1372.1 L787.166 1445.72 L795.342 1445.72 L795.342 1372.1 L787.166 1372.1 L787.166 1372.1  Z
  " fill="#009af9" fill-rule="evenodd" fill-opacity="1"/>
<polyline clip-path="url(#clip252)" style="stroke:#009af9; stroke-linecap:butt; stroke-linejoin:round; stroke-width:4; stroke-opacity:1; fill:none" points="
  787.166,1372.1 787.166,1445.72 795.342,1445.72 795.342,1372.1 787.166,1372.1 
  "/>
<path clip-path="url(#clip252)" d="
M795.342 1382.42 L795.342 1445.72 L803.517 1445.72 L803.517 1382.42 L795.342 1382.42 L795.342 1382.42  Z
  " fill="#009af9" fill-rule="evenodd" fill-opacity="1"/>
<polyline clip-path="url(#clip252)" style="stroke:#009af9; stroke-linecap:butt; stroke-linejoin:round; stroke-width:4; stroke-opacity:1; fill:none" points="
  795.342,1382.42 795.342,1445.72 803.517,1445.72 803.517,1382.42 795.342,1382.42 
  "/>
<path clip-path="url(#clip252)" d="
M803.517 1389.98 L803.517 1445.72 L811.692 1445.72 L811.692 1389.98 L803.517 1389.98 L803.517 1389.98  Z
  " fill="#009af9" fill-rule="evenodd" fill-opacity="1"/>
<polyline clip-path="url(#clip252)" style="stroke:#009af9; stroke-linecap:butt; stroke-linejoin:round; stroke-width:4; stroke-opacity:1; fill:none" points="
  803.517,1389.98 803.517,1445.72 811.692,1445.72 811.692,1389.98 803.517,1389.98 
  "/>
<path clip-path="url(#clip252)" d="
M811.692 1400.3 L811.692 1445.72 L819.868 1445.72 L819.868 1400.3 L811.692 1400.3 L811.692 1400.3  Z
  " fill="#009af9" fill-rule="evenodd" fill-opacity="1"/>
<polyline clip-path="url(#clip252)" style="stroke:#009af9; stroke-linecap:butt; stroke-linejoin:round; stroke-width:4; stroke-opacity:1; fill:none" points="
  811.692,1400.3 811.692,1445.72 819.868,1445.72 819.868,1400.3 811.692,1400.3 
  "/>
<path clip-path="url(#clip252)" d="
M819.868 1409.59 L819.868 1445.72 L828.043 1445.72 L828.043 1409.59 L819.868 1409.59 L819.868 1409.59  Z
  " fill="#009af9" fill-rule="evenodd" fill-opacity="1"/>
<polyline clip-path="url(#clip252)" style="stroke:#009af9; stroke-linecap:butt; stroke-linejoin:round; stroke-width:4; stroke-opacity:1; fill:none" points="
  819.868,1409.59 819.868,1445.72 828.043,1445.72 828.043,1409.59 819.868,1409.59 
  "/>
<path clip-path="url(#clip252)" d="
M828.043 1410.63 L828.043 1445.72 L836.219 1445.72 L836.219 1410.63 L828.043 1410.63 L828.043 1410.63  Z
  " fill="#009af9" fill-rule="evenodd" fill-opacity="1"/>
<polyline clip-path="url(#clip252)" style="stroke:#009af9; stroke-linecap:butt; stroke-linejoin:round; stroke-width:4; stroke-opacity:1; fill:none" points="
  828.043,1410.63 828.043,1445.72 836.219,1445.72 836.219,1410.63 828.043,1410.63 
  "/>
<path clip-path="url(#clip252)" d="
M836.219 1420.26 L836.219 1445.72 L844.394 1445.72 L844.394 1420.26 L836.219 1420.26 L836.219 1420.26  Z
  " fill="#009af9" fill-rule="evenodd" fill-opacity="1"/>
<polyline clip-path="url(#clip252)" style="stroke:#009af9; stroke-linecap:butt; stroke-linejoin:round; stroke-width:4; stroke-opacity:1; fill:none" points="
  836.219,1420.26 836.219,1445.72 844.394,1445.72 844.394,1420.26 836.219,1420.26 
  "/>
<path clip-path="url(#clip252)" d="
M844.394 1428.86 L844.394 1445.72 L852.569 1445.72 L852.569 1428.86 L844.394 1428.86 L844.394 1428.86  Z
  " fill="#009af9" fill-rule="evenodd" fill-opacity="1"/>
<polyline clip-path="url(#clip252)" style="stroke:#009af9; stroke-linecap:butt; stroke-linejoin:round; stroke-width:4; stroke-opacity:1; fill:none" points="
  844.394,1428.86 844.394,1445.72 852.569,1445.72 852.569,1428.86 844.394,1428.86 
  "/>
<path clip-path="url(#clip252)" d="
M852.569 1431.27 L852.569 1445.72 L860.745 1445.72 L860.745 1431.27 L852.569 1431.27 L852.569 1431.27  Z
  " fill="#009af9" fill-rule="evenodd" fill-opacity="1"/>
<polyline clip-path="url(#clip252)" style="stroke:#009af9; stroke-linecap:butt; stroke-linejoin:round; stroke-width:4; stroke-opacity:1; fill:none" points="
  852.569,1431.27 852.569,1445.72 860.745,1445.72 860.745,1431.27 852.569,1431.27 
  "/>
<path clip-path="url(#clip252)" d="
M860.745 1432.64 L860.745 1445.72 L868.92 1445.72 L868.92 1432.64 L860.745 1432.64 L860.745 1432.64  Z
  " fill="#009af9" fill-rule="evenodd" fill-opacity="1"/>
<polyline clip-path="url(#clip252)" style="stroke:#009af9; stroke-linecap:butt; stroke-linejoin:round; stroke-width:4; stroke-opacity:1; fill:none" points="
  860.745,1432.64 860.745,1445.72 868.92,1445.72 868.92,1432.64 860.745,1432.64 
  "/>
<path clip-path="url(#clip252)" d="
M868.92 1436.08 L868.92 1445.72 L877.096 1445.72 L877.096 1436.08 L868.92 1436.08 L868.92 1436.08  Z
  " fill="#009af9" fill-rule="evenodd" fill-opacity="1"/>
<polyline clip-path="url(#clip252)" style="stroke:#009af9; stroke-linecap:butt; stroke-linejoin:round; stroke-width:4; stroke-opacity:1; fill:none" points="
  868.92,1436.08 868.92,1445.72 877.096,1445.72 877.096,1436.08 868.92,1436.08 
  "/>
<path clip-path="url(#clip252)" d="
M877.096 1436.08 L877.096 1445.72 L885.271 1445.72 L885.271 1436.08 L877.096 1436.08 L877.096 1436.08  Z
  " fill="#009af9" fill-rule="evenodd" fill-opacity="1"/>
<polyline clip-path="url(#clip252)" style="stroke:#009af9; stroke-linecap:butt; stroke-linejoin:round; stroke-width:4; stroke-opacity:1; fill:none" points="
  877.096,1436.08 877.096,1445.72 885.271,1445.72 885.271,1436.08 877.096,1436.08 
  "/>
<path clip-path="url(#clip252)" d="
M885.271 1437.46 L885.271 1445.72 L893.446 1445.72 L893.446 1437.46 L885.271 1437.46 L885.271 1437.46  Z
  " fill="#009af9" fill-rule="evenodd" fill-opacity="1"/>
<polyline clip-path="url(#clip252)" style="stroke:#009af9; stroke-linecap:butt; stroke-linejoin:round; stroke-width:4; stroke-opacity:1; fill:none" points="
  885.271,1437.46 885.271,1445.72 893.446,1445.72 893.446,1437.46 885.271,1437.46 
  "/>
<path clip-path="url(#clip252)" d="
M893.446 1441.59 L893.446 1445.72 L901.622 1445.72 L901.622 1441.59 L893.446 1441.59 L893.446 1441.59  Z
  " fill="#009af9" fill-rule="evenodd" fill-opacity="1"/>
<polyline clip-path="url(#clip252)" style="stroke:#009af9; stroke-linecap:butt; stroke-linejoin:round; stroke-width:4; stroke-opacity:1; fill:none" points="
  893.446,1441.59 893.446,1445.72 901.622,1445.72 901.622,1441.59 893.446,1441.59 
  "/>
<path clip-path="url(#clip252)" d="
M901.622 1442.62 L901.622 1445.72 L909.797 1445.72 L909.797 1442.62 L901.622 1442.62 L901.622 1442.62  Z
  " fill="#009af9" fill-rule="evenodd" fill-opacity="1"/>
<polyline clip-path="url(#clip252)" style="stroke:#009af9; stroke-linecap:butt; stroke-linejoin:round; stroke-width:4; stroke-opacity:1; fill:none" points="
  901.622,1442.62 901.622,1445.72 909.797,1445.72 909.797,1442.62 901.622,1442.62 
  "/>
<path clip-path="url(#clip252)" d="
M909.797 1442.96 L909.797 1445.72 L917.973 1445.72 L917.973 1442.96 L909.797 1442.96 L909.797 1442.96  Z
  " fill="#009af9" fill-rule="evenodd" fill-opacity="1"/>
<polyline clip-path="url(#clip252)" style="stroke:#009af9; stroke-linecap:butt; stroke-linejoin:round; stroke-width:4; stroke-opacity:1; fill:none" points="
  909.797,1442.96 909.797,1445.72 917.973,1445.72 917.973,1442.96 909.797,1442.96 
  "/>
<path clip-path="url(#clip252)" d="
M917.973 1445.72 L917.973 1445.72 L926.148 1445.72 L926.148 1445.72 L917.973 1445.72 L917.973 1445.72  Z
  " fill="#009af9" fill-rule="evenodd" fill-opacity="1"/>
<polyline clip-path="url(#clip252)" style="stroke:#009af9; stroke-linecap:butt; stroke-linejoin:round; stroke-width:4; stroke-opacity:1; fill:none" points="
  917.973,1445.72 917.973,1445.72 926.148,1445.72 917.973,1445.72 
  "/>
<path clip-path="url(#clip252)" d="
M926.148 1442.96 L926.148 1445.72 L934.323 1445.72 L934.323 1442.96 L926.148 1442.96 L926.148 1442.96  Z
  " fill="#009af9" fill-rule="evenodd" fill-opacity="1"/>
<polyline clip-path="url(#clip252)" style="stroke:#009af9; stroke-linecap:butt; stroke-linejoin:round; stroke-width:4; stroke-opacity:1; fill:none" points="
  926.148,1442.96 926.148,1445.72 934.323,1445.72 934.323,1442.96 926.148,1442.96 
  "/>
<path clip-path="url(#clip252)" d="
M934.323 1444.34 L934.323 1445.72 L942.499 1445.72 L942.499 1444.34 L934.323 1444.34 L934.323 1444.34  Z
  " fill="#009af9" fill-rule="evenodd" fill-opacity="1"/>
<polyline clip-path="url(#clip252)" style="stroke:#009af9; stroke-linecap:butt; stroke-linejoin:round; stroke-width:4; stroke-opacity:1; fill:none" points="
  934.323,1444.34 934.323,1445.72 942.499,1445.72 942.499,1444.34 934.323,1444.34 
  "/>
<path clip-path="url(#clip252)" d="
M942.499 1445.03 L942.499 1445.72 L950.674 1445.72 L950.674 1445.03 L942.499 1445.03 L942.499 1445.03  Z
  " fill="#009af9" fill-rule="evenodd" fill-opacity="1"/>
<polyline clip-path="url(#clip252)" style="stroke:#009af9; stroke-linecap:butt; stroke-linejoin:round; stroke-width:4; stroke-opacity:1; fill:none" points="
  942.499,1445.03 942.499,1445.72 950.674,1445.72 950.674,1445.03 942.499,1445.03 
  "/>
<path clip-path="url(#clip252)" d="
M950.674 1445.37 L950.674 1445.72 L958.85 1445.72 L958.85 1445.37 L950.674 1445.37 L950.674 1445.37  Z
  " fill="#009af9" fill-rule="evenodd" fill-opacity="1"/>
<polyline clip-path="url(#clip252)" style="stroke:#009af9; stroke-linecap:butt; stroke-linejoin:round; stroke-width:4; stroke-opacity:1; fill:none" points="
  950.674,1445.37 950.674,1445.72 958.85,1445.72 958.85,1445.37 950.674,1445.37 
  "/>
<polyline clip-path="url(#clip252)" style="stroke:#e26f46; stroke-linecap:butt; stroke-linejoin:round; stroke-width:4; stroke-opacity:1; fill:none" points="
  255.765,1445.71 263.94,1445.7 272.116,1445.65 280.291,1445.5 288.467,1445.12 296.642,1444.29 304.817,1442.65 312.993,1439.67 321.168,1434.65 329.344,1426.71 
  337.519,1414.82 345.694,1397.86 353.87,1374.7 362.045,1344.29 370.221,1305.75 378.396,1258.46 386.571,1202.17 394.747,1137.03 402.922,1063.59 411.098,982.873 
  419.273,896.263 427.448,805.491 435.624,712.537 443.799,619.537 451.975,528.686 460.15,442.132 468.325,361.887 476.501,289.744 484.676,227.216 492.852,175.49 
  501.027,135.4 509.202,107.422 517.378,91.6809 525.553,87.9763 533.729,95.8162 541.904,114.461 550.079,142.969 558.255,180.251 566.43,225.113 574.606,276.309 
  582.781,332.578 590.956,392.687 599.132,455.454 607.307,519.781 615.483,584.665 623.658,649.215 631.833,712.657 640.009,774.336 648.184,833.717 656.36,890.375 
  664.535,943.993 672.711,994.351 680.886,1041.31 689.061,1084.82 697.237,1124.88 705.412,1161.54 713.588,1194.92 721.763,1225.14 729.938,1252.38 738.114,1276.8 
  746.289,1298.61 754.465,1318 762.64,1335.16 770.815,1350.29 778.991,1363.59 787.166,1375.22 795.342,1385.37 803.517,1394.19 811.692,1401.84 819.868,1408.44 
  828.043,1414.12 836.219,1419 844.394,1423.18 852.569,1426.75 860.745,1429.78 868.92,1432.36 877.096,1434.55 885.271,1436.39 893.446,1437.95 901.622,1439.26 
  909.797,1440.36 917.973,1441.28 926.148,1442.04 934.323,1442.69 942.499,1443.22 950.674,1443.66 958.85,1444.03 967.025,1444.33 975.2,1444.58 983.376,1444.79 
  991.551,1444.96 999.727,1445.1 1007.9,1445.21 1016.08,1445.31 1024.25,1445.39 1032.43,1445.45 1040.6,1445.5 1048.78,1445.54 1056.95,1445.57 1065.13,1445.6 
  1073.31,1445.62 1081.48,1445.64 1089.66,1445.66 1097.83,1445.67 1106.01,1445.68 1114.18,1445.69 1122.36,1445.69 1130.53,1445.7 1138.71,1445.7 1146.88,1445.7 
  1155.06,1445.71 1163.23,1445.71 1171.41,1445.71 1179.59,1445.71 1187.76,1445.71 1195.94,1445.71 1204.11,1445.71 1212.29,1445.71 1220.46,1445.71 1228.64,1445.71 
  1236.81,1445.71 1244.99,1445.71 1253.16,1445.72 1261.34,1445.72 1269.51,1445.72 
  "/>
<path clip-path="url(#clip250)" d="
M1987.39 276.658 L2280.54 276.658 L2280.54 95.2176 L1987.39 95.2176  Z
  " fill="#ffffff" fill-rule="evenodd" fill-opacity="1"/>
<polyline clip-path="url(#clip250)" style="stroke:#000000; stroke-linecap:butt; stroke-linejoin:round; stroke-width:4; stroke-opacity:1; fill:none" points="
  1987.39,276.658 2280.54,276.658 2280.54,95.2176 1987.39,95.2176 1987.39,276.658 
  "/>
<path clip-path="url(#clip250)" d="
M2011.46 179.89 L2155.89 179.89 L2155.89 131.506 L2011.46 131.506 L2011.46 179.89  Z
  " fill="#009af9" fill-rule="evenodd" fill-opacity="1"/>
<polyline clip-path="url(#clip250)" style="stroke:#009af9; stroke-linecap:butt; stroke-linejoin:round; stroke-width:4; stroke-opacity:1; fill:none" points="
  2011.46,179.89 2155.89,179.89 2155.89,131.506 2011.46,131.506 2011.46,179.89 
  "/>
<path clip-path="url(#clip250)" d="M2193.81 175.385 Q2192 180.015 2190.29 181.427 Q2188.58 182.839 2185.71 182.839 L2182.3 182.839 L2182.3 179.274 L2184.8 179.274 Q2186.56 179.274 2187.53 178.44 Q2188.51 177.607 2189.69 174.505 L2190.45 172.561 L2179.97 147.052 L2184.48 147.052 L2192.58 167.329 L2200.68 147.052 L2205.2 147.052 L2193.81 175.385 Z" fill="#000000" fill-rule="evenodd" fill-opacity="1" /><path clip-path="url(#clip250)" d="M2212.49 169.042 L2220.13 169.042 L2220.13 142.677 L2211.82 144.343 L2211.82 140.084 L2220.08 138.418 L2224.76 138.418 L2224.76 169.042 L2232.4 169.042 L2232.4 172.978 L2212.49 172.978 L2212.49 169.042 Z" fill="#000000" fill-rule="evenodd" fill-opacity="1" /><polyline clip-path="url(#clip250)" style="stroke:#e26f46; stroke-linecap:butt; stroke-linejoin:round; stroke-width:4; stroke-opacity:1; fill:none" points="
  2011.46,216.178 2155.89,216.178 
  "/>
<path clip-path="url(#clip250)" d="M2193.81 235.865 Q2192 240.495 2190.29 241.907 Q2188.58 243.319 2185.71 243.319 L2182.3 243.319 L2182.3 239.754 L2184.8 239.754 Q2186.56 239.754 2187.53 238.92 Q2188.51 238.087 2189.69 234.985 L2190.45 233.041 L2179.97 207.532 L2184.48 207.532 L2192.58 227.809 L2200.68 207.532 L2205.2 207.532 L2193.81 235.865 Z" fill="#000000" fill-rule="evenodd" fill-opacity="1" /><path clip-path="url(#clip250)" d="M2215.71 229.522 L2232.03 229.522 L2232.03 233.458 L2210.08 233.458 L2210.08 229.522 Q2212.74 226.768 2217.33 222.138 Q2221.93 217.485 2223.11 216.143 Q2225.36 213.62 2226.24 211.884 Q2227.14 210.124 2227.14 208.435 Q2227.14 205.68 2225.2 203.944 Q2223.28 202.208 2220.17 202.208 Q2217.97 202.208 2215.52 202.972 Q2213.09 203.735 2210.31 205.286 L2210.31 200.564 Q2213.14 199.43 2215.59 198.851 Q2218.04 198.273 2220.08 198.273 Q2225.45 198.273 2228.65 200.958 Q2231.84 203.643 2231.84 208.134 Q2231.84 210.263 2231.03 212.185 Q2230.24 214.083 2228.14 216.675 Q2227.56 217.347 2224.46 220.564 Q2221.35 223.759 2215.71 229.522 Z" fill="#000000" fill-rule="evenodd" fill-opacity="1" /></svg>
