<?xml version="1.0" encoding="utf-8" standalone="no"?>
<!DOCTYPE svg PUBLIC "-//W3C//DTD SVG 1.1//EN"
  "http://www.w3.org/Graphics/SVG/1.1/DTD/svg11.dtd">
<svg height="345.6pt" version="1.1" viewBox="0 0 460.8 345.6" width="460.8pt" xmlns="http://www.w3.org/2000/svg" xmlns:xlink="http://www.w3.org/1999/xlink">
 <metadata>
  <rdf:RDF xmlns:cc="http://creativecommons.org/ns#" xmlns:dc="http://purl.org/dc/elements/1.1/" xmlns:rdf="http://www.w3.org/1999/02/22-rdf-syntax-ns#">
   <cc:Work>
    <dc:type rdf:resource="http://purl.org/dc/dcmitype/StillImage"/>
    <dc:date>2021-09-16T21:30:16.474192</dc:date>
    <dc:format>image/svg+xml</dc:format>
    <dc:creator>
     <cc:Agent>
      <dc:title>Matplotlib v3.4.3, https://matplotlib.org/</dc:title>
     </cc:Agent>
    </dc:creator>
   </cc:Work>
  </rdf:RDF>
 </metadata>
 <defs>
  <style type="text/css">*{stroke-linecap:butt;stroke-linejoin:round;}</style>
 </defs>
 <g id="figure_1">
  <g id="patch_1">
   <path d="M 0 345.6 
L 460.8 345.6 
L 460.8 0 
L 0 0 
z
" style="fill:#ffffff;"/>
  </g>
  <g id="axes_1">
   <g id="patch_2">
    <path d="M 57.6 307.584 
L 414.72 307.584 
L 414.72 41.472 
L 57.6 41.472 
z
" style="fill:#ffffff;"/>
   </g>
   <g id="patch_3">
    <path clip-path="url(#p54352f6c27)" d="M 208.500706 307.584 
L 218.855748 307.584 
L 218.855748 307.582865 
L 208.500706 307.582865 
z
" style="fill:#1f77b4;"/>
   </g>
   <g id="patch_4">
    <path clip-path="url(#p54352f6c27)" d="M 218.855748 307.584 
L 227.989542 307.584 
L 227.989542 307.573248 
L 218.855748 307.573248 
z
" style="fill:#1f77b4;"/>
   </g>
   <g id="patch_5">
    <path clip-path="url(#p54352f6c27)" d="M 227.989542 307.584 
L 236.16 307.584 
L 236.16 307.5525 
L 227.989542 307.5525 
z
" style="fill:#1f77b4;"/>
   </g>
   <g id="patch_6">
    <path clip-path="url(#p54352f6c27)" d="M 236.16 307.584 
L 243.551078 307.584 
L 243.551078 307.515921 
L 236.16 307.515921 
z
" style="fill:#1f77b4;"/>
   </g>
   <g id="patch_7">
    <path clip-path="url(#p54352f6c27)" d="M 243.551078 307.584 
L 250.298603 307.584 
L 250.298603 307.445303 
L 243.551078 307.445303 
z
" style="fill:#1f77b4;"/>
   </g>
   <g id="patch_8">
    <path clip-path="url(#p54352f6c27)" d="M 250.298603 307.584 
L 256.505725 307.584 
L 256.505725 307.262787 
L 250.298603 307.262787 
z
" style="fill:#1f77b4;"/>
   </g>
   <g id="patch_9">
    <path clip-path="url(#p54352f6c27)" d="M 256.505725 307.584 
L 262.252622 307.584 
L 262.252622 306.963564 
L 256.505725 306.963564 
z
" style="fill:#1f77b4;"/>
   </g>
   <g id="patch_10">
    <path clip-path="url(#p54352f6c27)" d="M 262.252622 307.584 
L 267.602855 307.584 
L 267.602855 306.436115 
L 262.252622 306.436115 
z
" style="fill:#1f77b4;"/>
   </g>
   <g id="patch_11">
    <path clip-path="url(#p54352f6c27)" d="M 267.602855 307.584 
L 272.607664 307.584 
L 272.607664 305.493979 
L 267.602855 305.493979 
z
" style="fill:#1f77b4;"/>
   </g>
   <g id="patch_12">
    <path clip-path="url(#p54352f6c27)" d="M 272.607664 307.584 
L 277.308959 307.584 
L 277.308959 304.067889 
L 272.607664 304.067889 
z
" style="fill:#1f77b4;"/>
   </g>
   <g id="patch_13">
    <path clip-path="url(#p54352f6c27)" d="M 277.308959 307.584 
L 281.741459 307.584 
L 281.741459 301.941938 
L 277.308959 301.941938 
z
" style="fill:#1f77b4;"/>
   </g>
   <g id="patch_14">
    <path clip-path="url(#p54352f6c27)" d="M 281.741459 307.584 
L 285.934243 307.584 
L 285.934243 298.561715 
L 281.741459 298.561715 
z
" style="fill:#1f77b4;"/>
   </g>
   <g id="patch_15">
    <path clip-path="url(#p54352f6c27)" d="M 285.934243 307.584 
L 289.911916 307.584 
L 289.911916 294.012427 
L 285.934243 294.012427 
z
" style="fill:#1f77b4;"/>
   </g>
   <g id="patch_16">
    <path clip-path="url(#p54352f6c27)" d="M 289.911916 307.584 
L 293.695477 307.584 
L 293.695477 287.77138 
L 289.911916 287.77138 
z
" style="fill:#1f77b4;"/>
   </g>
   <g id="patch_17">
    <path clip-path="url(#p54352f6c27)" d="M 293.695477 307.584 
L 297.302994 307.584 
L 297.302994 279.37488 
L 293.695477 279.37488 
z
" style="fill:#1f77b4;"/>
   </g>
   <g id="patch_18">
    <path clip-path="url(#p54352f6c27)" d="M 297.302994 307.584 
L 300.750122 307.584 
L 300.750122 268.92456 
L 297.302994 268.92456 
z
" style="fill:#1f77b4;"/>
   </g>
   <g id="patch_19">
    <path clip-path="url(#p54352f6c27)" d="M 300.750122 307.584 
L 304.050519 307.584 
L 304.050519 256.120766 
L 300.750122 256.120766 
z
" style="fill:#1f77b4;"/>
   </g>
   <g id="patch_20">
    <path clip-path="url(#p54352f6c27)" d="M 304.050519 307.584 
L 307.216168 307.584 
L 307.216168 241.021255 
L 304.050519 241.021255 
z
" style="fill:#1f77b4;"/>
   </g>
   <g id="patch_21">
    <path clip-path="url(#p54352f6c27)" d="M 307.216168 307.584 
L 310.257641 307.584 
L 310.257641 223.927466 
L 307.216168 223.927466 
z
" style="fill:#1f77b4;"/>
   </g>
   <g id="patch_22">
    <path clip-path="url(#p54352f6c27)" d="M 310.257641 307.584 
L 313.184314 307.584 
L 313.184314 204.8937 
L 310.257641 204.8937 
z
" style="fill:#1f77b4;"/>
   </g>
   <g id="patch_23">
    <path clip-path="url(#p54352f6c27)" d="M 313.184314 307.584 
L 316.004538 307.584 
L 316.004538 184.663314 
L 313.184314 184.663314 
z
" style="fill:#1f77b4;"/>
   </g>
   <g id="patch_24">
    <path clip-path="url(#p54352f6c27)" d="M 316.004538 307.584 
L 318.725787 307.584 
L 318.725787 163.590532 
L 316.004538 163.590532 
z
" style="fill:#1f77b4;"/>
   </g>
   <g id="patch_25">
    <path clip-path="url(#p54352f6c27)" d="M 318.725787 307.584 
L 321.354771 307.584 
L 321.354771 142.47015 
L 318.725787 142.47015 
z
" style="fill:#1f77b4;"/>
   </g>
   <g id="patch_26">
    <path clip-path="url(#p54352f6c27)" d="M 321.354771 307.584 
L 323.897544 307.584 
L 323.897544 121.892885 
L 321.354771 121.892885 
z
" style="fill:#1f77b4;"/>
   </g>
   <g id="patch_27">
    <path clip-path="url(#p54352f6c27)" d="M 323.897544 307.584 
L 326.35958 307.584 
L 326.35958 103.03191 
L 323.897544 103.03191 
z
" style="fill:#1f77b4;"/>
   </g>
   <g id="patch_28">
    <path clip-path="url(#p54352f6c27)" d="M 326.35958 307.584 
L 328.745849 307.584 
L 328.745849 87.031435 
L 326.35958 87.031435 
z
" style="fill:#1f77b4;"/>
   </g>
   <g id="patch_29">
    <path clip-path="url(#p54352f6c27)" d="M 328.745849 307.584 
L 331.060875 307.584 
L 331.060875 73.878385 
L 328.745849 73.878385 
z
" style="fill:#1f77b4;"/>
   </g>
   <g id="patch_30">
    <path clip-path="url(#p54352f6c27)" d="M 331.060875 307.584 
L 333.30879 307.584 
L 333.30879 64.576923 
L 331.060875 64.576923 
z
" style="fill:#1f77b4;"/>
   </g>
   <g id="patch_31">
    <path clip-path="url(#p54352f6c27)" d="M 333.30879 307.584 
L 335.493375 307.584 
L 335.493375 58.613378 
L 333.30879 58.613378 
z
" style="fill:#1f77b4;"/>
   </g>
   <g id="patch_32">
    <path clip-path="url(#p54352f6c27)" d="M 335.493375 307.584 
L 337.6181 307.584 
L 337.6181 56.443121 
L 335.493375 56.443121 
z
" style="fill:#1f77b4;"/>
   </g>
   <g id="patch_33">
    <path clip-path="url(#p54352f6c27)" d="M 337.6181 307.584 
L 339.686159 307.584 
L 339.686159 58.419083 
L 337.6181 58.419083 
z
" style="fill:#1f77b4;"/>
   </g>
   <g id="patch_34">
    <path clip-path="url(#p54352f6c27)" d="M 339.686159 307.584 
L 341.700496 307.584 
L 341.700496 63.905212 
L 339.686159 63.905212 
z
" style="fill:#1f77b4;"/>
   </g>
   <g id="patch_35">
    <path clip-path="url(#p54352f6c27)" d="M 341.700496 307.584 
L 343.663832 307.584 
L 343.663832 72.710724 
L 341.700496 72.710724 
z
" style="fill:#1f77b4;"/>
   </g>
   <g id="patch_36">
    <path clip-path="url(#p54352f6c27)" d="M 343.663832 307.584 
L 345.578685 307.584 
L 345.578685 84.416234 
L 343.663832 84.416234 
z
" style="fill:#1f77b4;"/>
   </g>
   <g id="patch_37">
    <path clip-path="url(#p54352f6c27)" d="M 345.578685 307.584 
L 347.447393 307.584 
L 347.447393 97.896873 
L 345.578685 97.896873 
z
" style="fill:#1f77b4;"/>
   </g>
   <g id="patch_38">
    <path clip-path="url(#p54352f6c27)" d="M 347.447393 307.584 
L 349.272127 307.584 
L 349.272127 113.115198 
L 347.447393 113.115198 
z
" style="fill:#1f77b4;"/>
   </g>
   <g id="patch_39">
    <path clip-path="url(#p54352f6c27)" d="M 349.272127 307.584 
L 351.05491 307.584 
L 351.05491 129.776524 
L 349.272127 129.776524 
z
" style="fill:#1f77b4;"/>
   </g>
   <g id="patch_40">
    <path clip-path="url(#p54352f6c27)" d="M 351.05491 307.584 
L 352.797626 307.584 
L 352.797626 147.193093 
L 351.05491 147.193093 
z
" style="fill:#1f77b4;"/>
   </g>
   <g id="patch_41">
    <path clip-path="url(#p54352f6c27)" d="M 352.797626 307.584 
L 354.502038 307.584 
L 354.502038 164.426335 
L 352.797626 164.426335 
z
" style="fill:#1f77b4;"/>
   </g>
   <g id="patch_42">
    <path clip-path="url(#p54352f6c27)" d="M 354.502038 307.584 
L 356.169794 307.584 
L 356.169794 181.41525 
L 354.502038 181.41525 
z
" style="fill:#1f77b4;"/>
   </g>
   <g id="patch_43">
    <path clip-path="url(#p54352f6c27)" d="M 356.169794 307.584 
L 357.802435 307.584 
L 357.802435 197.701278 
L 356.169794 197.701278 
z
" style="fill:#1f77b4;"/>
   </g>
   <g id="patch_44">
    <path clip-path="url(#p54352f6c27)" d="M 357.802435 307.584 
L 359.401412 307.584 
L 359.401412 212.706883 
L 357.802435 212.706883 
z
" style="fill:#1f77b4;"/>
   </g>
   <g id="patch_45">
    <path clip-path="url(#p54352f6c27)" d="M 359.401412 307.584 
L 360.968084 307.584 
L 360.968084 226.289046 
L 359.401412 226.289046 
z
" style="fill:#1f77b4;"/>
   </g>
   <g id="patch_46">
    <path clip-path="url(#p54352f6c27)" d="M 360.968084 307.584 
L 362.503731 307.584 
L 362.503731 238.571335 
L 360.968084 238.571335 
z
" style="fill:#1f77b4;"/>
   </g>
   <g id="patch_47">
    <path clip-path="url(#p54352f6c27)" d="M 362.503731 307.584 
L 364.009557 307.584 
L 364.009557 249.397871 
L 362.503731 249.397871 
z
" style="fill:#1f77b4;"/>
   </g>
   <g id="patch_48">
    <path clip-path="url(#p54352f6c27)" d="M 364.009557 307.584 
L 365.486699 307.584 
L 365.486699 259.367749 
L 364.009557 259.367749 
z
" style="fill:#1f77b4;"/>
   </g>
   <g id="patch_49">
    <path clip-path="url(#p54352f6c27)" d="M 365.486699 307.584 
L 366.93623 307.584 
L 366.93623 267.836325 
L 365.486699 267.836325 
z
" style="fill:#1f77b4;"/>
   </g>
   <g id="patch_50">
    <path clip-path="url(#p54352f6c27)" d="M 366.93623 307.584 
L 368.359162 307.584 
L 368.359162 275.171065 
L 366.93623 275.171065 
z
" style="fill:#1f77b4;"/>
   </g>
   <g id="patch_51">
    <path clip-path="url(#p54352f6c27)" d="M 368.359162 307.584 
L 369.756454 307.584 
L 369.756454 281.381531 
L 368.359162 281.381531 
z
" style="fill:#1f77b4;"/>
   </g>
   <g id="patch_52">
    <path clip-path="url(#p54352f6c27)" d="M 369.756454 307.584 
L 371.129014 307.584 
L 371.129014 286.588591 
L 369.756454 286.588591 
z
" style="fill:#1f77b4;"/>
   </g>
   <g id="patch_53">
    <path clip-path="url(#p54352f6c27)" d="M 371.129014 307.584 
L 372.477703 307.584 
L 372.477703 290.922296 
L 371.129014 290.922296 
z
" style="fill:#1f77b4;"/>
   </g>
   <g id="patch_54">
    <path clip-path="url(#p54352f6c27)" d="M 372.477703 307.584 
L 373.803335 307.584 
L 373.803335 294.399342 
L 372.477703 294.399342 
z
" style="fill:#1f77b4;"/>
   </g>
   <g id="patch_55">
    <path clip-path="url(#p54352f6c27)" d="M 373.803335 307.584 
L 375.106687 307.584 
L 375.106687 297.322734 
L 373.803335 297.322734 
z
" style="fill:#1f77b4;"/>
   </g>
   <g id="patch_56">
    <path clip-path="url(#p54352f6c27)" d="M 375.106687 307.584 
L 376.388495 307.584 
L 376.388495 299.639306 
L 375.106687 299.639306 
z
" style="fill:#1f77b4;"/>
   </g>
   <g id="patch_57">
    <path clip-path="url(#p54352f6c27)" d="M 376.388495 307.584 
L 377.64946 307.584 
L 377.64946 301.451608 
L 376.388495 301.451608 
z
" style="fill:#1f77b4;"/>
   </g>
   <g id="patch_58">
    <path clip-path="url(#p54352f6c27)" d="M 377.64946 307.584 
L 378.890249 307.584 
L 378.890249 302.871052 
L 377.64946 302.871052 
z
" style="fill:#1f77b4;"/>
   </g>
   <g id="patch_59">
    <path clip-path="url(#p54352f6c27)" d="M 378.890249 307.584 
L 380.111496 307.584 
L 380.111496 304.028231 
L 378.890249 304.028231 
z
" style="fill:#1f77b4;"/>
   </g>
   <g id="patch_60">
    <path clip-path="url(#p54352f6c27)" d="M 380.111496 307.584 
L 381.313809 307.584 
L 381.313809 304.953671 
L 380.111496 304.953671 
z
" style="fill:#1f77b4;"/>
   </g>
   <g id="patch_61">
    <path clip-path="url(#p54352f6c27)" d="M 381.313809 307.584 
L 382.497765 307.584 
L 382.497765 305.595611 
L 381.313809 305.595611 
z
" style="fill:#1f77b4;"/>
   </g>
   <g id="patch_62">
    <path clip-path="url(#p54352f6c27)" d="M 382.497765 307.584 
L 383.663917 307.584 
L 383.663917 306.089129 
L 382.497765 306.089129 
z
" style="fill:#1f77b4;"/>
   </g>
   <g id="patch_63">
    <path clip-path="url(#p54352f6c27)" d="M 383.663917 307.584 
L 384.812791 307.584 
L 384.812791 306.474639 
L 383.663917 306.474639 
z
" style="fill:#1f77b4;"/>
   </g>
   <g id="patch_64">
    <path clip-path="url(#p54352f6c27)" d="M 384.812791 307.584 
L 385.944894 307.584 
L 385.944894 306.7851 
L 384.812791 306.7851 
z
" style="fill:#1f77b4;"/>
   </g>
   <g id="patch_65">
    <path clip-path="url(#p54352f6c27)" d="M 385.944894 307.584 
L 387.060706 307.584 
L 387.060706 306.995604 
L 385.944894 306.995604 
z
" style="fill:#1f77b4;"/>
   </g>
   <g id="patch_66">
    <path clip-path="url(#p54352f6c27)" d="M 387.060706 307.584 
L 388.160691 307.584 
L 388.160691 307.149916 
L 387.060706 307.149916 
z
" style="fill:#1f77b4;"/>
   </g>
   <g id="patch_67">
    <path clip-path="url(#p54352f6c27)" d="M 388.160691 307.584 
L 389.245291 307.584 
L 389.245291 307.256897 
L 388.160691 307.256897 
z
" style="fill:#1f77b4;"/>
   </g>
   <g id="patch_68">
    <path clip-path="url(#p54352f6c27)" d="M 389.245291 307.584 
L 390.31493 307.584 
L 390.31493 307.349614 
L 389.245291 307.349614 
z
" style="fill:#1f77b4;"/>
   </g>
   <g id="patch_69">
    <path clip-path="url(#p54352f6c27)" d="M 390.31493 307.584 
L 391.370016 307.584 
L 391.370016 307.406185 
L 390.31493 307.406185 
z
" style="fill:#1f77b4;"/>
   </g>
   <g id="patch_70">
    <path clip-path="url(#p54352f6c27)" d="M 391.370016 307.584 
L 392.410939 307.584 
L 392.410939 307.454326 
L 391.370016 307.454326 
z
" style="fill:#1f77b4;"/>
   </g>
   <g id="patch_71">
    <path clip-path="url(#p54352f6c27)" d="M 392.410939 307.584 
L 393.438075 307.584 
L 393.438075 307.490527 
L 392.410939 307.490527 
z
" style="fill:#1f77b4;"/>
   </g>
   <g id="patch_72">
    <path clip-path="url(#p54352f6c27)" d="M 393.438075 307.584 
L 394.451784 307.584 
L 394.451784 307.523864 
L 393.438075 307.523864 
z
" style="fill:#1f77b4;"/>
   </g>
   <g id="patch_73">
    <path clip-path="url(#p54352f6c27)" d="M 394.451784 307.584 
L 395.452412 307.584 
L 395.452412 307.540073 
L 394.451784 307.540073 
z
" style="fill:#1f77b4;"/>
   </g>
   <g id="patch_74">
    <path clip-path="url(#p54352f6c27)" d="M 395.452412 307.584 
L 396.440293 307.584 
L 396.440293 307.551311 
L 395.452412 307.551311 
z
" style="fill:#1f77b4;"/>
   </g>
   <g id="patch_75">
    <path clip-path="url(#p54352f6c27)" d="M 396.440293 307.584 
L 397.415748 307.584 
L 397.415748 307.567034 
L 396.440293 307.567034 
z
" style="fill:#1f77b4;"/>
   </g>
   <g id="patch_76">
    <path clip-path="url(#p54352f6c27)" d="M 397.415748 307.584 
L 398.379085 307.584 
L 398.379085 307.572654 
L 397.415748 307.572654 
z
" style="fill:#1f77b4;"/>
   </g>
   <g id="patch_77">
    <path clip-path="url(#p54352f6c27)" d="M 398.379085 307.584 
L 399.330601 307.584 
L 399.330601 307.575301 
L 398.379085 307.575301 
z
" style="fill:#1f77b4;"/>
   </g>
   <g id="patch_78">
    <path clip-path="url(#p54352f6c27)" d="M 399.330601 307.584 
L 400.270584 307.584 
L 400.270584 307.577786 
L 399.330601 307.577786 
z
" style="fill:#1f77b4;"/>
   </g>
   <g id="patch_79">
    <path clip-path="url(#p54352f6c27)" d="M 400.270584 307.584 
L 401.199309 307.584 
L 401.199309 307.582055 
L 400.270584 307.582055 
z
" style="fill:#1f77b4;"/>
   </g>
   <g id="patch_80">
    <path clip-path="url(#p54352f6c27)" d="M 401.199309 307.584 
L 402.117043 307.584 
L 402.117043 307.581893 
L 401.199309 307.581893 
z
" style="fill:#1f77b4;"/>
   </g>
   <g id="matplotlib.axis_1">
    <g id="xtick_1">
     <g id="line2d_1">
      <defs>
       <path d="M 0 0 
L 0 3.5 
" id="m8543ffc8f3" style="stroke:#000000;stroke-width:0.8;"/>
      </defs>
      <g>
       <use style="stroke:#000000;stroke-width:0.8;" x="57.6" xlink:href="#m8543ffc8f3" y="307.584"/>
      </g>
     </g>
     <g id="text_1">
      <!-- $\mathdefault{10^{0}}$ -->
      <g transform="translate(48.8 322.182437)scale(0.1 -0.1)">
       <defs>
        <path d="M 794 531 
L 1825 531 
L 1825 4091 
L 703 3866 
L 703 4441 
L 1819 4666 
L 2450 4666 
L 2450 531 
L 3481 531 
L 3481 0 
L 794 0 
L 794 531 
z
" id="DejaVuSans-31" transform="scale(0.015625)"/>
        <path d="M 2034 4250 
Q 1547 4250 1301 3770 
Q 1056 3291 1056 2328 
Q 1056 1369 1301 889 
Q 1547 409 2034 409 
Q 2525 409 2770 889 
Q 3016 1369 3016 2328 
Q 3016 3291 2770 3770 
Q 2525 4250 2034 4250 
z
M 2034 4750 
Q 2819 4750 3233 4129 
Q 3647 3509 3647 2328 
Q 3647 1150 3233 529 
Q 2819 -91 2034 -91 
Q 1250 -91 836 529 
Q 422 1150 422 2328 
Q 422 3509 836 4129 
Q 1250 4750 2034 4750 
z
" id="DejaVuSans-30" transform="scale(0.015625)"/>
       </defs>
       <use transform="translate(0 0.765625)" xlink:href="#DejaVuSans-31"/>
       <use transform="translate(63.623047 0.765625)" xlink:href="#DejaVuSans-30"/>
       <use transform="translate(128.203125 39.046875)scale(0.7)" xlink:href="#DejaVuSans-30"/>
      </g>
     </g>
    </g>
    <g id="xtick_2">
     <g id="line2d_2">
      <g>
       <use style="stroke:#000000;stroke-width:0.8;" x="236.16" xlink:href="#m8543ffc8f3" y="307.584"/>
      </g>
     </g>
     <g id="text_2">
      <!-- $\mathdefault{10^{1}}$ -->
      <g transform="translate(227.36 322.182437)scale(0.1 -0.1)">
       <use transform="translate(0 0.684375)" xlink:href="#DejaVuSans-31"/>
       <use transform="translate(63.623047 0.684375)" xlink:href="#DejaVuSans-30"/>
       <use transform="translate(128.203125 38.965625)scale(0.7)" xlink:href="#DejaVuSans-31"/>
      </g>
     </g>
    </g>
    <g id="xtick_3">
     <g id="line2d_3">
      <g>
       <use style="stroke:#000000;stroke-width:0.8;" x="414.72" xlink:href="#m8543ffc8f3" y="307.584"/>
      </g>
     </g>
     <g id="text_3">
      <!-- $\mathdefault{10^{2}}$ -->
      <g transform="translate(405.92 322.182437)scale(0.1 -0.1)">
       <defs>
        <path d="M 1228 531 
L 3431 531 
L 3431 0 
L 469 0 
L 469 531 
Q 828 903 1448 1529 
Q 2069 2156 2228 2338 
Q 2531 2678 2651 2914 
Q 2772 3150 2772 3378 
Q 2772 3750 2511 3984 
Q 2250 4219 1831 4219 
Q 1534 4219 1204 4116 
Q 875 4013 500 3803 
L 500 4441 
Q 881 4594 1212 4672 
Q 1544 4750 1819 4750 
Q 2544 4750 2975 4387 
Q 3406 4025 3406 3419 
Q 3406 3131 3298 2873 
Q 3191 2616 2906 2266 
Q 2828 2175 2409 1742 
Q 1991 1309 1228 531 
z
" id="DejaVuSans-32" transform="scale(0.015625)"/>
       </defs>
       <use transform="translate(0 0.765625)" xlink:href="#DejaVuSans-31"/>
       <use transform="translate(63.623047 0.765625)" xlink:href="#DejaVuSans-30"/>
       <use transform="translate(128.203125 39.046875)scale(0.7)" xlink:href="#DejaVuSans-32"/>
      </g>
     </g>
    </g>
    <g id="xtick_4">
     <g id="line2d_4">
      <defs>
       <path d="M 0 0 
L 0 2 
" id="mea76e1d02e" style="stroke:#000000;stroke-width:0.6;"/>
      </defs>
      <g>
       <use style="stroke:#000000;stroke-width:0.6;" x="111.351916" xlink:href="#mea76e1d02e" y="307.584"/>
      </g>
     </g>
    </g>
    <g id="xtick_5">
     <g id="line2d_5">
      <g>
       <use style="stroke:#000000;stroke-width:0.6;" x="142.794771" xlink:href="#mea76e1d02e" y="307.584"/>
      </g>
     </g>
    </g>
    <g id="xtick_6">
     <g id="line2d_6">
      <g>
       <use style="stroke:#000000;stroke-width:0.6;" x="165.103832" xlink:href="#mea76e1d02e" y="307.584"/>
      </g>
     </g>
    </g>
    <g id="xtick_7">
     <g id="line2d_7">
      <g>
       <use style="stroke:#000000;stroke-width:0.6;" x="182.408084" xlink:href="#mea76e1d02e" y="307.584"/>
      </g>
     </g>
    </g>
    <g id="xtick_8">
     <g id="line2d_8">
      <g>
       <use style="stroke:#000000;stroke-width:0.6;" x="196.546687" xlink:href="#mea76e1d02e" y="307.584"/>
      </g>
     </g>
    </g>
    <g id="xtick_9">
     <g id="line2d_9">
      <g>
       <use style="stroke:#000000;stroke-width:0.6;" x="208.500706" xlink:href="#mea76e1d02e" y="307.584"/>
      </g>
     </g>
    </g>
    <g id="xtick_10">
     <g id="line2d_10">
      <g>
       <use style="stroke:#000000;stroke-width:0.6;" x="218.855748" xlink:href="#mea76e1d02e" y="307.584"/>
      </g>
     </g>
    </g>
    <g id="xtick_11">
     <g id="line2d_11">
      <g>
       <use style="stroke:#000000;stroke-width:0.6;" x="227.989542" xlink:href="#mea76e1d02e" y="307.584"/>
      </g>
     </g>
    </g>
    <g id="xtick_12">
     <g id="line2d_12">
      <g>
       <use style="stroke:#000000;stroke-width:0.6;" x="289.911916" xlink:href="#mea76e1d02e" y="307.584"/>
      </g>
     </g>
    </g>
    <g id="xtick_13">
     <g id="line2d_13">
      <g>
       <use style="stroke:#000000;stroke-width:0.6;" x="321.354771" xlink:href="#mea76e1d02e" y="307.584"/>
      </g>
     </g>
    </g>
    <g id="xtick_14">
     <g id="line2d_14">
      <g>
       <use style="stroke:#000000;stroke-width:0.6;" x="343.663832" xlink:href="#mea76e1d02e" y="307.584"/>
      </g>
     </g>
    </g>
    <g id="xtick_15">
     <g id="line2d_15">
      <g>
       <use style="stroke:#000000;stroke-width:0.6;" x="360.968084" xlink:href="#mea76e1d02e" y="307.584"/>
      </g>
     </g>
    </g>
    <g id="xtick_16">
     <g id="line2d_16">
      <g>
       <use style="stroke:#000000;stroke-width:0.6;" x="375.106687" xlink:href="#mea76e1d02e" y="307.584"/>
      </g>
     </g>
    </g>
    <g id="xtick_17">
     <g id="line2d_17">
      <g>
       <use style="stroke:#000000;stroke-width:0.6;" x="387.060706" xlink:href="#mea76e1d02e" y="307.584"/>
      </g>
     </g>
    </g>
    <g id="xtick_18">
     <g id="line2d_18">
      <g>
       <use style="stroke:#000000;stroke-width:0.6;" x="397.415748" xlink:href="#mea76e1d02e" y="307.584"/>
      </g>
     </g>
    </g>
    <g id="xtick_19">
     <g id="line2d_19">
      <g>
       <use style="stroke:#000000;stroke-width:0.6;" x="406.549542" xlink:href="#mea76e1d02e" y="307.584"/>
      </g>
     </g>
    </g>
   </g>
   <g id="matplotlib.axis_2">
    <g id="ytick_1">
     <g id="line2d_20">
      <defs>
       <path d="M 0 0 
L -3.5 0 
" id="m691aa05cde" style="stroke:#000000;stroke-width:0.8;"/>
      </defs>
      <g>
       <use style="stroke:#000000;stroke-width:0.8;" x="57.6" xlink:href="#m691aa05cde" y="307.584"/>
      </g>
     </g>
     <g id="text_4">
      <!-- 0.00 -->
      <g transform="translate(28.334375 311.383219)scale(0.1 -0.1)">
       <defs>
        <path d="M 684 794 
L 1344 794 
L 1344 0 
L 684 0 
L 684 794 
z
" id="DejaVuSans-2e" transform="scale(0.015625)"/>
       </defs>
       <use xlink:href="#DejaVuSans-30"/>
       <use x="63.623047" xlink:href="#DejaVuSans-2e"/>
       <use x="95.410156" xlink:href="#DejaVuSans-30"/>
       <use x="159.033203" xlink:href="#DejaVuSans-30"/>
      </g>
     </g>
    </g>
    <g id="ytick_2">
     <g id="line2d_21">
      <g>
       <use style="stroke:#000000;stroke-width:0.8;" x="57.6" xlink:href="#m691aa05cde" y="256.954783"/>
      </g>
     </g>
     <g id="text_5">
      <!-- 0.01 -->
      <g transform="translate(28.334375 260.754001)scale(0.1 -0.1)">
       <use xlink:href="#DejaVuSans-30"/>
       <use x="63.623047" xlink:href="#DejaVuSans-2e"/>
       <use x="95.410156" xlink:href="#DejaVuSans-30"/>
       <use x="159.033203" xlink:href="#DejaVuSans-31"/>
      </g>
     </g>
    </g>
    <g id="ytick_3">
     <g id="line2d_22">
      <g>
       <use style="stroke:#000000;stroke-width:0.8;" x="57.6" xlink:href="#m691aa05cde" y="206.325565"/>
      </g>
     </g>
     <g id="text_6">
      <!-- 0.02 -->
      <g transform="translate(28.334375 210.124784)scale(0.1 -0.1)">
       <use xlink:href="#DejaVuSans-30"/>
       <use x="63.623047" xlink:href="#DejaVuSans-2e"/>
       <use x="95.410156" xlink:href="#DejaVuSans-30"/>
       <use x="159.033203" xlink:href="#DejaVuSans-32"/>
      </g>
     </g>
    </g>
    <g id="ytick_4">
     <g id="line2d_23">
      <g>
       <use style="stroke:#000000;stroke-width:0.8;" x="57.6" xlink:href="#m691aa05cde" y="155.696348"/>
      </g>
     </g>
     <g id="text_7">
      <!-- 0.03 -->
      <g transform="translate(28.334375 159.495566)scale(0.1 -0.1)">
       <defs>
        <path d="M 2597 2516 
Q 3050 2419 3304 2112 
Q 3559 1806 3559 1356 
Q 3559 666 3084 287 
Q 2609 -91 1734 -91 
Q 1441 -91 1130 -33 
Q 819 25 488 141 
L 488 750 
Q 750 597 1062 519 
Q 1375 441 1716 441 
Q 2309 441 2620 675 
Q 2931 909 2931 1356 
Q 2931 1769 2642 2001 
Q 2353 2234 1838 2234 
L 1294 2234 
L 1294 2753 
L 1863 2753 
Q 2328 2753 2575 2939 
Q 2822 3125 2822 3475 
Q 2822 3834 2567 4026 
Q 2313 4219 1838 4219 
Q 1578 4219 1281 4162 
Q 984 4106 628 3988 
L 628 4550 
Q 988 4650 1302 4700 
Q 1616 4750 1894 4750 
Q 2613 4750 3031 4423 
Q 3450 4097 3450 3541 
Q 3450 3153 3228 2886 
Q 3006 2619 2597 2516 
z
" id="DejaVuSans-33" transform="scale(0.015625)"/>
       </defs>
       <use xlink:href="#DejaVuSans-30"/>
       <use x="63.623047" xlink:href="#DejaVuSans-2e"/>
       <use x="95.410156" xlink:href="#DejaVuSans-30"/>
       <use x="159.033203" xlink:href="#DejaVuSans-33"/>
      </g>
     </g>
    </g>
    <g id="ytick_5">
     <g id="line2d_24">
      <g>
       <use style="stroke:#000000;stroke-width:0.8;" x="57.6" xlink:href="#m691aa05cde" y="105.06713"/>
      </g>
     </g>
     <g id="text_8">
      <!-- 0.04 -->
      <g transform="translate(28.334375 108.866349)scale(0.1 -0.1)">
       <defs>
        <path d="M 2419 4116 
L 825 1625 
L 2419 1625 
L 2419 4116 
z
M 2253 4666 
L 3047 4666 
L 3047 1625 
L 3713 1625 
L 3713 1100 
L 3047 1100 
L 3047 0 
L 2419 0 
L 2419 1100 
L 313 1100 
L 313 1709 
L 2253 4666 
z
" id="DejaVuSans-34" transform="scale(0.015625)"/>
       </defs>
       <use xlink:href="#DejaVuSans-30"/>
       <use x="63.623047" xlink:href="#DejaVuSans-2e"/>
       <use x="95.410156" xlink:href="#DejaVuSans-30"/>
       <use x="159.033203" xlink:href="#DejaVuSans-34"/>
      </g>
     </g>
    </g>
    <g id="ytick_6">
     <g id="line2d_25">
      <g>
       <use style="stroke:#000000;stroke-width:0.8;" x="57.6" xlink:href="#m691aa05cde" y="54.437913"/>
      </g>
     </g>
     <g id="text_9">
      <!-- 0.05 -->
      <g transform="translate(28.334375 58.237131)scale(0.1 -0.1)">
       <defs>
        <path d="M 691 4666 
L 3169 4666 
L 3169 4134 
L 1269 4134 
L 1269 2991 
Q 1406 3038 1543 3061 
Q 1681 3084 1819 3084 
Q 2600 3084 3056 2656 
Q 3513 2228 3513 1497 
Q 3513 744 3044 326 
Q 2575 -91 1722 -91 
Q 1428 -91 1123 -41 
Q 819 9 494 109 
L 494 744 
Q 775 591 1075 516 
Q 1375 441 1709 441 
Q 2250 441 2565 725 
Q 2881 1009 2881 1497 
Q 2881 1984 2565 2268 
Q 2250 2553 1709 2553 
Q 1456 2553 1204 2497 
Q 953 2441 691 2322 
L 691 4666 
z
" id="DejaVuSans-35" transform="scale(0.015625)"/>
       </defs>
       <use xlink:href="#DejaVuSans-30"/>
       <use x="63.623047" xlink:href="#DejaVuSans-2e"/>
       <use x="95.410156" xlink:href="#DejaVuSans-30"/>
       <use x="159.033203" xlink:href="#DejaVuSans-35"/>
      </g>
     </g>
    </g>
   </g>
   <g id="line2d_26">
    <path clip-path="url(#p54352f6c27)" d="M -1 307.584 
L 58.517734 307.584 
L 112.26965 307.583998 
L 143.712505 307.583986 
L 166.021566 307.583925 
L 183.325818 307.58366 
L 197.464421 307.582694 
L 209.41844 307.57963 
L 219.773482 307.57098 
L 228.907277 307.54893 
L 237.077734 307.497538 
L 244.468812 307.386953 
L 251.216337 307.165515 
L 257.423459 306.75014 
L 263.170356 306.01619 
L 268.520589 304.788825 
L 273.525398 302.838503 
L 278.226693 299.883501 
L 282.659193 295.601852 
L 286.851977 289.653945 
L 290.82965 281.715222 
L 294.613211 271.516358 
L 298.220728 258.886368 
L 301.667856 243.792775 
L 304.968253 226.372589 
L 308.133902 206.948586 
L 311.175375 186.027143 
L 314.102048 164.276359 
L 316.922272 142.485993 
L 319.643521 121.513262 
L 322.272505 102.220471 
L 324.815278 85.411409 
L 327.277314 71.773353 
L 329.663583 61.830536 
L 331.978609 55.913163 
L 334.226524 54.144 
L 336.411109 56.442376 
L 338.535834 62.5436 
L 340.603893 72.030379 
L 342.61823 84.372058 
L 344.581566 98.967291 
L 346.49642 115.18608 
L 348.365127 132.407853 
L 350.189861 150.053167 
L 351.972644 167.607649 
L 353.715361 184.637753 
L 355.419772 200.798666 
L 357.087528 215.835349 
L 358.720169 229.578024 
L 360.319146 241.933595 
L 361.885818 252.874488 
L 363.421465 262.426231 
L 364.927291 270.654896 
L 366.404433 277.655243 
L 367.853964 283.540151 
L 369.276896 288.431669 
L 370.674188 292.453824 
L 372.046748 295.727156 
L 373.395437 298.364848 
L 374.721069 300.470231 
L 376.024421 302.135437 
L 377.306229 303.440945 
L 378.567194 304.455791 
L 379.807983 305.238237 
L 381.02923 305.836732 
L 382.231543 306.291017 
L 383.415499 306.63328 
L 384.581651 306.889287 
L 385.730526 307.079439 
L 386.862628 307.219716 
L 387.97844 307.322517 
L 389.078425 307.397371 
L 390.163025 307.451534 
L 391.232664 307.490487 
L 392.28775 307.518335 
L 393.328673 307.538129 
L 394.355809 307.552119 
L 395.369518 307.561952 
L 396.370146 307.568826 
L 397.358027 307.573607 
L 398.333482 307.576915 
L 399.296819 307.579192 
L 400.248336 307.580752 
L 401.188318 307.581815 
L 402.117043 307.582537 
" style="fill:none;stroke:#ff7f0e;stroke-linecap:square;stroke-width:1.5;"/>
   </g>
   <g id="patch_81">
    <path d="M 57.6 307.584 
L 57.6 41.472 
" style="fill:none;stroke:#000000;stroke-linecap:square;stroke-linejoin:miter;stroke-width:0.8;"/>
   </g>
   <g id="patch_82">
    <path d="M 414.72 307.584 
L 414.72 41.472 
" style="fill:none;stroke:#000000;stroke-linecap:square;stroke-linejoin:miter;stroke-width:0.8;"/>
   </g>
   <g id="patch_83">
    <path d="M 57.6 307.584 
L 414.72 307.584 
" style="fill:none;stroke:#000000;stroke-linecap:square;stroke-linejoin:miter;stroke-width:0.8;"/>
   </g>
   <g id="patch_84">
    <path d="M 57.6 41.472 
L 414.72 41.472 
" style="fill:none;stroke:#000000;stroke-linecap:square;stroke-linejoin:miter;stroke-width:0.8;"/>
   </g>
  </g>
 </g>
 <defs>
  <clipPath id="p54352f6c27">
   <rect height="266.112" width="357.12" x="57.6" y="41.472"/>
  </clipPath>
 </defs>
</svg>
