<?xml version="1.0" encoding="utf-8" standalone="no"?>
<!DOCTYPE svg PUBLIC "-//W3C//DTD SVG 1.1//EN"
  "http://www.w3.org/Graphics/SVG/1.1/DTD/svg11.dtd">
<svg height="345.6pt" version="1.1" viewBox="0 0 460.8 345.6" width="460.8pt" xmlns="http://www.w3.org/2000/svg" xmlns:xlink="http://www.w3.org/1999/xlink">
 <metadata>
  <rdf:RDF xmlns:cc="http://creativecommons.org/ns#" xmlns:dc="http://purl.org/dc/elements/1.1/" xmlns:rdf="http://www.w3.org/1999/02/22-rdf-syntax-ns#">
   <cc:Work>
    <dc:type rdf:resource="http://purl.org/dc/dcmitype/StillImage"/>
    <dc:date>2021-09-16T21:31:22.886157</dc:date>
    <dc:format>image/svg+xml</dc:format>
    <dc:creator>
     <cc:Agent>
      <dc:title>Matplotlib v3.4.3, https://matplotlib.org/</dc:title>
     </cc:Agent>
    </dc:creator>
   </cc:Work>
  </rdf:RDF>
 </metadata>
 <defs>
  <style type="text/css">*{stroke-linecap:butt;stroke-linejoin:round;}</style>
 </defs>
 <g id="figure_1">
  <g id="patch_1">
   <path d="M 0 345.6 
L 460.8 345.6 
L 460.8 0 
L 0 0 
z
" style="fill:#ffffff;"/>
  </g>
  <g id="axes_1">
   <g id="patch_2">
    <path d="M 57.6 307.584 
L 414.72 307.584 
L 414.72 41.472 
L 57.6 41.472 
z
" style="fill:#ffffff;"/>
   </g>
   <g id="patch_3">
    <path clip-path="url(#pf8eb8518b2)" d="M 57.6 307.584 
L 111.351916 307.584 
L 111.351916 307.507119 
L 57.6 307.507119 
z
" style="fill:#1f77b4;"/>
   </g>
   <g id="patch_4">
    <path clip-path="url(#pf8eb8518b2)" d="M 111.351916 307.584 
L 142.794771 307.584 
L 142.794771 307.405303 
L 111.351916 307.405303 
z
" style="fill:#1f77b4;"/>
   </g>
   <g id="patch_5">
    <path clip-path="url(#pf8eb8518b2)" d="M 142.794771 307.584 
L 165.103832 307.584 
L 165.103832 307.035442 
L 142.794771 307.035442 
z
" style="fill:#1f77b4;"/>
   </g>
   <g id="patch_6">
    <path clip-path="url(#pf8eb8518b2)" d="M 165.103832 307.584 
L 182.408084 307.584 
L 182.408084 305.659891 
L 165.103832 305.659891 
z
" style="fill:#1f77b4;"/>
   </g>
   <g id="patch_7">
    <path clip-path="url(#pf8eb8518b2)" d="M 182.408084 307.584 
L 196.546687 307.584 
L 196.546687 302.555552 
L 182.408084 302.555552 
z
" style="fill:#1f77b4;"/>
   </g>
   <g id="patch_8">
    <path clip-path="url(#pf8eb8518b2)" d="M 196.546687 307.584 
L 208.500706 307.584 
L 208.500706 299.596664 
L 196.546687 299.596664 
z
" style="fill:#1f77b4;"/>
   </g>
   <g id="patch_9">
    <path clip-path="url(#pf8eb8518b2)" d="M 208.500706 307.584 
L 218.855748 307.584 
L 218.855748 294.337573 
L 208.500706 294.337573 
z
" style="fill:#1f77b4;"/>
   </g>
   <g id="patch_10">
    <path clip-path="url(#pf8eb8518b2)" d="M 218.855748 307.584 
L 227.989542 307.584 
L 227.989542 286.761655 
L 218.855748 286.761655 
z
" style="fill:#1f77b4;"/>
   </g>
   <g id="patch_11">
    <path clip-path="url(#pf8eb8518b2)" d="M 227.989542 307.584 
L 236.16 307.584 
L 236.16 278.173814 
L 227.989542 278.173814 
z
" style="fill:#1f77b4;"/>
   </g>
   <g id="patch_12">
    <path clip-path="url(#pf8eb8518b2)" d="M 236.16 307.584 
L 243.551078 307.584 
L 243.551078 264.696743 
L 236.16 264.696743 
z
" style="fill:#1f77b4;"/>
   </g>
   <g id="patch_13">
    <path clip-path="url(#pf8eb8518b2)" d="M 243.551078 307.584 
L 250.298603 307.584 
L 250.298603 250.750073 
L 243.551078 250.750073 
z
" style="fill:#1f77b4;"/>
   </g>
   <g id="patch_14">
    <path clip-path="url(#pf8eb8518b2)" d="M 250.298603 307.584 
L 256.505725 307.584 
L 256.505725 235.120328 
L 250.298603 235.120328 
z
" style="fill:#1f77b4;"/>
   </g>
   <g id="patch_15">
    <path clip-path="url(#pf8eb8518b2)" d="M 256.505725 307.584 
L 262.252622 307.584 
L 262.252622 218.227237 
L 256.505725 218.227237 
z
" style="fill:#1f77b4;"/>
   </g>
   <g id="patch_16">
    <path clip-path="url(#pf8eb8518b2)" d="M 262.252622 307.584 
L 267.602855 307.584 
L 267.602855 202.046856 
L 262.252622 202.046856 
z
" style="fill:#1f77b4;"/>
   </g>
   <g id="patch_17">
    <path clip-path="url(#pf8eb8518b2)" d="M 267.602855 307.584 
L 272.607664 307.584 
L 272.607664 184.771436 
L 267.602855 184.771436 
z
" style="fill:#1f77b4;"/>
   </g>
   <g id="patch_18">
    <path clip-path="url(#pf8eb8518b2)" d="M 272.607664 307.584 
L 277.308959 307.584 
L 277.308959 164.410379 
L 272.607664 164.410379 
z
" style="fill:#1f77b4;"/>
   </g>
   <g id="patch_19">
    <path clip-path="url(#pf8eb8518b2)" d="M 277.308959 307.584 
L 281.741459 307.584 
L 281.741459 147.862214 
L 277.308959 147.862214 
z
" style="fill:#1f77b4;"/>
   </g>
   <g id="patch_20">
    <path clip-path="url(#pf8eb8518b2)" d="M 281.741459 307.584 
L 285.934243 307.584 
L 285.934243 129.938499 
L 281.741459 129.938499 
z
" style="fill:#1f77b4;"/>
   </g>
   <g id="patch_21">
    <path clip-path="url(#pf8eb8518b2)" d="M 285.934243 307.584 
L 289.911916 307.584 
L 289.911916 111.378956 
L 285.934243 111.378956 
z
" style="fill:#1f77b4;"/>
   </g>
   <g id="patch_22">
    <path clip-path="url(#pf8eb8518b2)" d="M 289.911916 307.584 
L 293.695477 307.584 
L 293.695477 100.123129 
L 289.911916 100.123129 
z
" style="fill:#1f77b4;"/>
   </g>
   <g id="patch_23">
    <path clip-path="url(#pf8eb8518b2)" d="M 293.695477 307.584 
L 297.302994 307.584 
L 297.302994 90.542066 
L 293.695477 90.542066 
z
" style="fill:#1f77b4;"/>
   </g>
   <g id="patch_24">
    <path clip-path="url(#pf8eb8518b2)" d="M 297.302994 307.584 
L 300.750122 307.584 
L 300.750122 76.927855 
L 297.302994 76.927855 
z
" style="fill:#1f77b4;"/>
   </g>
   <g id="patch_25">
    <path clip-path="url(#pf8eb8518b2)" d="M 300.750122 307.584 
L 304.050519 307.584 
L 304.050519 69.061036 
L 300.750122 69.061036 
z
" style="fill:#1f77b4;"/>
   </g>
   <g id="patch_26">
    <path clip-path="url(#pf8eb8518b2)" d="M 304.050519 307.584 
L 307.216168 307.584 
L 307.216168 63.016509 
L 304.050519 63.016509 
z
" style="fill:#1f77b4;"/>
   </g>
   <g id="patch_27">
    <path clip-path="url(#pf8eb8518b2)" d="M 307.216168 307.584 
L 310.257641 307.584 
L 310.257641 56.317453 
L 307.216168 56.317453 
z
" style="fill:#1f77b4;"/>
   </g>
   <g id="patch_28">
    <path clip-path="url(#pf8eb8518b2)" d="M 310.257641 307.584 
L 313.184314 307.584 
L 313.184314 54.144 
L 310.257641 54.144 
z
" style="fill:#1f77b4;"/>
   </g>
   <g id="patch_29">
    <path clip-path="url(#pf8eb8518b2)" d="M 313.184314 307.584 
L 316.004538 307.584 
L 316.004538 54.193869 
L 313.184314 54.193869 
z
" style="fill:#1f77b4;"/>
   </g>
   <g id="patch_30">
    <path clip-path="url(#pf8eb8518b2)" d="M 316.004538 307.584 
L 318.725787 307.584 
L 318.725787 56.001617 
L 316.004538 56.001617 
z
" style="fill:#1f77b4;"/>
   </g>
   <g id="patch_31">
    <path clip-path="url(#pf8eb8518b2)" d="M 318.725787 307.584 
L 321.354771 307.584 
L 321.354771 57.809364 
L 318.725787 57.809364 
z
" style="fill:#1f77b4;"/>
   </g>
   <g id="patch_32">
    <path clip-path="url(#pf8eb8518b2)" d="M 321.354771 307.584 
L 323.897544 307.584 
L 323.897544 59.13089 
L 321.354771 59.13089 
z
" style="fill:#1f77b4;"/>
   </g>
   <g id="patch_33">
    <path clip-path="url(#pf8eb8518b2)" d="M 323.897544 307.584 
L 326.35958 307.584 
L 326.35958 63.535977 
L 323.897544 63.535977 
z
" style="fill:#1f77b4;"/>
   </g>
   <g id="patch_34">
    <path clip-path="url(#pf8eb8518b2)" d="M 326.35958 307.584 
L 328.745849 307.584 
L 328.745849 68.502088 
L 326.35958 68.502088 
z
" style="fill:#1f77b4;"/>
   </g>
   <g id="patch_35">
    <path clip-path="url(#pf8eb8518b2)" d="M 328.745849 307.584 
L 331.060875 307.584 
L 331.060875 72.229789 
L 328.745849 72.229789 
z
" style="fill:#1f77b4;"/>
   </g>
   <g id="patch_36">
    <path clip-path="url(#pf8eb8518b2)" d="M 331.060875 307.584 
L 333.30879 307.584 
L 333.30879 79.990637 
L 331.060875 79.990637 
z
" style="fill:#1f77b4;"/>
   </g>
   <g id="patch_37">
    <path clip-path="url(#pf8eb8518b2)" d="M 333.30879 307.584 
L 335.493375 307.584 
L 335.493375 85.852311 
L 333.30879 85.852311 
z
" style="fill:#1f77b4;"/>
   </g>
   <g id="patch_38">
    <path clip-path="url(#pf8eb8518b2)" d="M 335.493375 307.584 
L 337.6181 307.584 
L 337.6181 90.394537 
L 335.493375 90.394537 
z
" style="fill:#1f77b4;"/>
   </g>
   <g id="patch_39">
    <path clip-path="url(#pf8eb8518b2)" d="M 337.6181 307.584 
L 339.686159 307.584 
L 339.686159 102.128274 
L 337.6181 102.128274 
z
" style="fill:#1f77b4;"/>
   </g>
   <g id="patch_40">
    <path clip-path="url(#pf8eb8518b2)" d="M 339.686159 307.584 
L 341.700496 307.584 
L 341.700496 108.203969 
L 339.686159 108.203969 
z
" style="fill:#1f77b4;"/>
   </g>
   <g id="patch_41">
    <path clip-path="url(#pf8eb8518b2)" d="M 341.700496 307.584 
L 343.663832 307.584 
L 343.663832 117.683216 
L 341.700496 117.683216 
z
" style="fill:#1f77b4;"/>
   </g>
   <g id="patch_42">
    <path clip-path="url(#pf8eb8518b2)" d="M 343.663832 307.584 
L 345.578685 307.584 
L 345.578685 123.721509 
L 343.663832 123.721509 
z
" style="fill:#1f77b4;"/>
   </g>
   <g id="patch_43">
    <path clip-path="url(#pf8eb8518b2)" d="M 345.578685 307.584 
L 347.447393 307.584 
L 347.447393 135.054218 
L 345.578685 135.054218 
z
" style="fill:#1f77b4;"/>
   </g>
   <g id="patch_44">
    <path clip-path="url(#pf8eb8518b2)" d="M 347.447393 307.584 
L 349.272127 307.584 
L 349.272127 143.290898 
L 347.447393 143.290898 
z
" style="fill:#1f77b4;"/>
   </g>
   <g id="patch_45">
    <path clip-path="url(#pf8eb8518b2)" d="M 349.272127 307.584 
L 351.05491 307.584 
L 351.05491 147.664817 
L 349.272127 147.664817 
z
" style="fill:#1f77b4;"/>
   </g>
   <g id="patch_46">
    <path clip-path="url(#pf8eb8518b2)" d="M 351.05491 307.584 
L 352.797626 307.584 
L 352.797626 159.147132 
L 351.05491 159.147132 
z
" style="fill:#1f77b4;"/>
   </g>
   <g id="patch_47">
    <path clip-path="url(#pf8eb8518b2)" d="M 352.797626 307.584 
L 354.502038 307.584 
L 354.502038 163.965714 
L 352.797626 163.965714 
z
" style="fill:#1f77b4;"/>
   </g>
   <g id="patch_48">
    <path clip-path="url(#pf8eb8518b2)" d="M 354.502038 307.584 
L 356.169794 307.584 
L 356.169794 173.206007 
L 354.502038 173.206007 
z
" style="fill:#1f77b4;"/>
   </g>
   <g id="patch_49">
    <path clip-path="url(#pf8eb8518b2)" d="M 356.169794 307.584 
L 357.802435 307.584 
L 357.802435 179.942464 
L 356.169794 179.942464 
z
" style="fill:#1f77b4;"/>
   </g>
   <g id="patch_50">
    <path clip-path="url(#pf8eb8518b2)" d="M 357.802435 307.584 
L 359.401412 307.584 
L 359.401412 189.425867 
L 357.802435 189.425867 
z
" style="fill:#1f77b4;"/>
   </g>
   <g id="patch_51">
    <path clip-path="url(#pf8eb8518b2)" d="M 359.401412 307.584 
L 360.968084 307.584 
L 360.968084 193.675113 
L 359.401412 193.675113 
z
" style="fill:#1f77b4;"/>
   </g>
   <g id="patch_52">
    <path clip-path="url(#pf8eb8518b2)" d="M 360.968084 307.584 
L 362.503731 307.584 
L 362.503731 200.644293 
L 360.968084 200.644293 
z
" style="fill:#1f77b4;"/>
   </g>
   <g id="patch_53">
    <path clip-path="url(#pf8eb8518b2)" d="M 362.503731 307.584 
L 364.009557 307.584 
L 364.009557 206.877906 
L 362.503731 206.877906 
z
" style="fill:#1f77b4;"/>
   </g>
   <g id="patch_54">
    <path clip-path="url(#pf8eb8518b2)" d="M 364.009557 307.584 
L 365.486699 307.584 
L 365.486699 214.549405 
L 364.009557 214.549405 
z
" style="fill:#1f77b4;"/>
   </g>
   <g id="patch_55">
    <path clip-path="url(#pf8eb8518b2)" d="M 365.486699 307.584 
L 366.93623 307.584 
L 366.93623 219.868755 
L 365.486699 219.868755 
z
" style="fill:#1f77b4;"/>
   </g>
   <g id="patch_56">
    <path clip-path="url(#pf8eb8518b2)" d="M 366.93623 307.584 
L 368.359162 307.584 
L 368.359162 224.049431 
L 366.93623 224.049431 
z
" style="fill:#1f77b4;"/>
   </g>
   <g id="patch_57">
    <path clip-path="url(#pf8eb8518b2)" d="M 368.359162 307.584 
L 369.756454 307.584 
L 369.756454 229.084113 
L 368.359162 229.084113 
z
" style="fill:#1f77b4;"/>
   </g>
   <g id="patch_58">
    <path clip-path="url(#pf8eb8518b2)" d="M 369.756454 307.584 
L 371.129014 307.584 
L 371.129014 235.170197 
L 369.756454 235.170197 
z
" style="fill:#1f77b4;"/>
   </g>
   <g id="patch_59">
    <path clip-path="url(#pf8eb8518b2)" d="M 371.129014 307.584 
L 372.477703 307.584 
L 372.477703 240.036571 
L 371.129014 240.036571 
z
" style="fill:#1f77b4;"/>
   </g>
   <g id="patch_60">
    <path clip-path="url(#pf8eb8518b2)" d="M 372.477703 307.584 
L 373.803335 307.584 
L 373.803335 242.978836 
L 372.477703 242.978836 
z
" style="fill:#1f77b4;"/>
   </g>
   <g id="patch_61">
    <path clip-path="url(#pf8eb8518b2)" d="M 373.803335 307.584 
L 375.106687 307.584 
L 375.106687 247.826509 
L 373.803335 247.826509 
z
" style="fill:#1f77b4;"/>
   </g>
   <g id="patch_62">
    <path clip-path="url(#pf8eb8518b2)" d="M 375.106687 307.584 
L 376.388495 307.584 
L 376.388495 251.801476 
L 375.106687 251.801476 
z
" style="fill:#1f77b4;"/>
   </g>
   <g id="patch_63">
    <path clip-path="url(#pf8eb8518b2)" d="M 376.388495 307.584 
L 377.64946 307.584 
L 377.64946 255.529176 
L 376.388495 255.529176 
z
" style="fill:#1f77b4;"/>
   </g>
   <g id="patch_64">
    <path clip-path="url(#pf8eb8518b2)" d="M 377.64946 307.584 
L 378.890249 307.584 
L 378.890249 258.08288 
L 377.64946 258.08288 
z
" style="fill:#1f77b4;"/>
   </g>
   <g id="patch_65">
    <path clip-path="url(#pf8eb8518b2)" d="M 378.890249 307.584 
L 380.111496 307.584 
L 380.111496 262.4942 
L 378.890249 262.4942 
z
" style="fill:#1f77b4;"/>
   </g>
   <g id="patch_66">
    <path clip-path="url(#pf8eb8518b2)" d="M 380.111496 307.584 
L 381.313809 307.584 
L 381.313809 266.207355 
L 380.111496 266.207355 
z
" style="fill:#1f77b4;"/>
   </g>
   <g id="patch_67">
    <path clip-path="url(#pf8eb8518b2)" d="M 381.313809 307.584 
L 382.497765 307.584 
L 382.497765 267.759525 
L 381.313809 267.759525 
z
" style="fill:#1f77b4;"/>
   </g>
   <g id="patch_68">
    <path clip-path="url(#pf8eb8518b2)" d="M 382.497765 307.584 
L 383.663917 307.584 
L 383.663917 271.963058 
L 382.497765 271.963058 
z
" style="fill:#1f77b4;"/>
   </g>
   <g id="patch_69">
    <path clip-path="url(#pf8eb8518b2)" d="M 383.663917 307.584 
L 384.812791 307.584 
L 384.812791 273.633666 
L 383.663917 273.633666 
z
" style="fill:#1f77b4;"/>
   </g>
   <g id="patch_70">
    <path clip-path="url(#pf8eb8518b2)" d="M 384.812791 307.584 
L 385.944894 307.584 
L 385.944894 275.674136 
L 384.812791 275.674136 
z
" style="fill:#1f77b4;"/>
   </g>
   <g id="patch_71">
    <path clip-path="url(#pf8eb8518b2)" d="M 385.944894 307.584 
L 387.060706 307.584 
L 387.060706 277.8559 
L 385.944894 277.8559 
z
" style="fill:#1f77b4;"/>
   </g>
   <g id="patch_72">
    <path clip-path="url(#pf8eb8518b2)" d="M 387.060706 307.584 
L 388.160691 307.584 
L 388.160691 280.378435 
L 387.060706 280.378435 
z
" style="fill:#1f77b4;"/>
   </g>
   <g id="patch_73">
    <path clip-path="url(#pf8eb8518b2)" d="M 388.160691 307.584 
L 389.245291 307.584 
L 389.245291 281.928527 
L 388.160691 281.928527 
z
" style="fill:#1f77b4;"/>
   </g>
   <g id="patch_74">
    <path clip-path="url(#pf8eb8518b2)" d="M 389.245291 307.584 
L 390.31493 307.584 
L 390.31493 283.827701 
L 389.245291 283.827701 
z
" style="fill:#1f77b4;"/>
   </g>
   <g id="patch_75">
    <path clip-path="url(#pf8eb8518b2)" d="M 390.31493 307.584 
L 391.370016 307.584 
L 391.370016 285.882716 
L 390.31493 285.882716 
z
" style="fill:#1f77b4;"/>
   </g>
   <g id="patch_76">
    <path clip-path="url(#pf8eb8518b2)" d="M 391.370016 307.584 
L 392.410939 307.584 
L 392.410939 287.274889 
L 391.370016 287.274889 
z
" style="fill:#1f77b4;"/>
   </g>
   <g id="patch_77">
    <path clip-path="url(#pf8eb8518b2)" d="M 392.410939 307.584 
L 393.438075 307.584 
L 393.438075 289.055625 
L 392.410939 289.055625 
z
" style="fill:#1f77b4;"/>
   </g>
   <g id="patch_78">
    <path clip-path="url(#pf8eb8518b2)" d="M 393.438075 307.584 
L 394.451784 307.584 
L 394.451784 289.895084 
L 393.438075 289.895084 
z
" style="fill:#1f77b4;"/>
   </g>
   <g id="patch_79">
    <path clip-path="url(#pf8eb8518b2)" d="M 394.451784 307.584 
L 395.452412 307.584 
L 395.452412 291.50959 
L 394.451784 291.50959 
z
" style="fill:#1f77b4;"/>
   </g>
   <g id="patch_80">
    <path clip-path="url(#pf8eb8518b2)" d="M 395.452412 307.584 
L 396.440293 307.584 
L 396.440293 292.338661 
L 395.452412 292.338661 
z
" style="fill:#1f77b4;"/>
   </g>
   <g id="patch_81">
    <path clip-path="url(#pf8eb8518b2)" d="M 396.440293 307.584 
L 397.415748 307.584 
L 397.415748 293.672654 
L 396.440293 293.672654 
z
" style="fill:#1f77b4;"/>
   </g>
   <g id="patch_82">
    <path clip-path="url(#pf8eb8518b2)" d="M 397.415748 307.584 
L 398.379085 307.584 
L 398.379085 294.401987 
L 397.415748 294.401987 
z
" style="fill:#1f77b4;"/>
   </g>
   <g id="patch_83">
    <path clip-path="url(#pf8eb8518b2)" d="M 398.379085 307.584 
L 399.330601 307.584 
L 399.330601 295.582217 
L 398.379085 295.582217 
z
" style="fill:#1f77b4;"/>
   </g>
   <g id="patch_84">
    <path clip-path="url(#pf8eb8518b2)" d="M 399.330601 307.584 
L 400.270584 307.584 
L 400.270584 296.128697 
L 399.330601 296.128697 
z
" style="fill:#1f77b4;"/>
   </g>
   <g id="patch_85">
    <path clip-path="url(#pf8eb8518b2)" d="M 400.270584 307.584 
L 401.199309 307.584 
L 401.199309 297.556195 
L 400.270584 297.556195 
z
" style="fill:#1f77b4;"/>
   </g>
   <g id="patch_86">
    <path clip-path="url(#pf8eb8518b2)" d="M 401.199309 307.584 
L 402.117043 307.584 
L 402.117043 298.470458 
L 401.199309 298.470458 
z
" style="fill:#1f77b4;"/>
   </g>
   <g id="patch_87">
    <path clip-path="url(#pf8eb8518b2)" d="M 402.117043 307.584 
L 403.024043 307.584 
L 403.024043 298.632532 
L 402.117043 298.632532 
z
" style="fill:#1f77b4;"/>
   </g>
   <g id="patch_88">
    <path clip-path="url(#pf8eb8518b2)" d="M 403.024043 307.584 
L 403.920558 307.584 
L 403.920558 299.659 
L 403.024043 299.659 
z
" style="fill:#1f77b4;"/>
   </g>
   <g id="patch_89">
    <path clip-path="url(#pf8eb8518b2)" d="M 403.920558 307.584 
L 404.806826 307.584 
L 404.806826 299.949902 
L 403.920558 299.949902 
z
" style="fill:#1f77b4;"/>
   </g>
   <g id="patch_90">
    <path clip-path="url(#pf8eb8518b2)" d="M 404.806826 307.584 
L 405.68308 307.584 
L 405.68308 300.411189 
L 404.806826 300.411189 
z
" style="fill:#1f77b4;"/>
   </g>
   <g id="patch_91">
    <path clip-path="url(#pf8eb8518b2)" d="M 405.68308 307.584 
L 406.549542 307.584 
L 406.549542 300.810141 
L 405.68308 300.810141 
z
" style="fill:#1f77b4;"/>
   </g>
   <g id="patch_92">
    <path clip-path="url(#pf8eb8518b2)" d="M 406.549542 307.584 
L 407.406431 307.584 
L 407.406431 301.475059 
L 406.549542 301.475059 
z
" style="fill:#1f77b4;"/>
   </g>
   <g id="patch_93">
    <path clip-path="url(#pf8eb8518b2)" d="M 407.406431 307.584 
L 408.253954 307.584 
L 408.253954 301.824142 
L 407.406431 301.824142 
z
" style="fill:#1f77b4;"/>
   </g>
   <g id="patch_94">
    <path clip-path="url(#pf8eb8518b2)" d="M 408.253954 307.584 
L 409.092315 307.584 
L 409.092315 302.085953 
L 408.253954 302.085953 
z
" style="fill:#1f77b4;"/>
   </g>
   <g id="patch_95">
    <path clip-path="url(#pf8eb8518b2)" d="M 409.092315 307.584 
L 409.92171 307.584 
L 409.92171 302.730093 
L 409.092315 302.730093 
z
" style="fill:#1f77b4;"/>
   </g>
   <g id="patch_96">
    <path clip-path="url(#pf8eb8518b2)" d="M 409.92171 307.584 
L 410.742327 307.584 
L 410.742327 302.892167 
L 409.92171 302.892167 
z
" style="fill:#1f77b4;"/>
   </g>
   <g id="patch_97">
    <path clip-path="url(#pf8eb8518b2)" d="M 410.742327 307.584 
L 411.554351 307.584 
L 411.554351 303.403324 
L 410.742327 303.403324 
z
" style="fill:#1f77b4;"/>
   </g>
   <g id="patch_98">
    <path clip-path="url(#pf8eb8518b2)" d="M 411.554351 307.584 
L 412.357961 307.584 
L 412.357961 303.706693 
L 411.554351 303.706693 
z
" style="fill:#1f77b4;"/>
   </g>
   <g id="patch_99">
    <path clip-path="url(#pf8eb8518b2)" d="M 412.357961 307.584 
L 413.153328 307.584 
L 413.153328 303.889545 
L 412.357961 303.889545 
z
" style="fill:#1f77b4;"/>
   </g>
   <g id="patch_100">
    <path clip-path="url(#pf8eb8518b2)" d="M 413.153328 307.584 
L 413.94062 307.584 
L 413.94062 304.249017 
L 413.153328 304.249017 
z
" style="fill:#1f77b4;"/>
   </g>
   <g id="patch_101">
    <path clip-path="url(#pf8eb8518b2)" d="M 413.94062 307.584 
L 414.72 307.584 
L 414.72 304.847444 
L 413.94062 304.847444 
z
" style="fill:#1f77b4;"/>
   </g>
   <g id="patch_102">
    <path clip-path="url(#pf8eb8518b2)" d="M 414.72 307.584 
L 415.491625 307.584 
L 415.491625 304.776796 
L 414.72 304.776796 
z
" style="fill:#1f77b4;"/>
   </g>
   <g id="patch_103">
    <path clip-path="url(#pf8eb8518b2)" d="M 415.491625 307.584 
L 416.255647 307.584 
L 416.255647 305.092633 
L 415.491625 305.092633 
z
" style="fill:#1f77b4;"/>
   </g>
   <g id="patch_104">
    <path clip-path="url(#pf8eb8518b2)" d="M 416.255647 307.584 
L 417.012215 307.584 
L 417.012215 305.285875 
L 416.255647 305.285875 
z
" style="fill:#1f77b4;"/>
   </g>
   <g id="patch_105">
    <path clip-path="url(#pf8eb8518b2)" d="M 417.012215 307.584 
L 417.761473 307.584 
L 417.761473 305.489506 
L 417.012215 305.489506 
z
" style="fill:#1f77b4;"/>
   </g>
   <g id="patch_106">
    <path clip-path="url(#pf8eb8518b2)" d="M 417.761473 307.584 
L 418.503561 307.584 
L 418.503561 305.74924 
L 417.761473 305.74924 
z
" style="fill:#1f77b4;"/>
   </g>
   <g id="patch_107">
    <path clip-path="url(#pf8eb8518b2)" d="M 418.503561 307.584 
L 419.238615 307.584 
L 419.238615 305.826121 
L 418.503561 305.826121 
z
" style="fill:#1f77b4;"/>
   </g>
   <g id="patch_108">
    <path clip-path="url(#pf8eb8518b2)" d="M 419.238615 307.584 
L 419.966767 307.584 
L 419.966767 306.052609 
L 419.238615 306.052609 
z
" style="fill:#1f77b4;"/>
   </g>
   <g id="patch_109">
    <path clip-path="url(#pf8eb8518b2)" d="M 419.966767 307.584 
L 420.688146 307.584 
L 420.688146 305.946638 
L 419.966767 305.946638 
z
" style="fill:#1f77b4;"/>
   </g>
   <g id="patch_110">
    <path clip-path="url(#pf8eb8518b2)" d="M 420.688146 307.584 
L 421.402875 307.584 
L 421.402875 306.052609 
L 420.688146 306.052609 
z
" style="fill:#1f77b4;"/>
   </g>
   <g id="patch_111">
    <path clip-path="url(#pf8eb8518b2)" d="M 421.402875 307.584 
L 422.111078 307.584 
L 422.111078 306.314421 
L 421.402875 306.314421 
z
" style="fill:#1f77b4;"/>
   </g>
   <g id="patch_112">
    <path clip-path="url(#pf8eb8518b2)" d="M 422.111078 307.584 
L 422.812871 307.584 
L 422.812871 306.19806 
L 422.111078 306.19806 
z
" style="fill:#1f77b4;"/>
   </g>
   <g id="patch_113">
    <path clip-path="url(#pf8eb8518b2)" d="M 422.812871 307.584 
L 423.50837 307.584 
L 423.50837 306.439093 
L 422.812871 306.439093 
z
" style="fill:#1f77b4;"/>
   </g>
   <g id="patch_114">
    <path clip-path="url(#pf8eb8518b2)" d="M 423.50837 307.584 
L 424.197687 307.584 
L 424.197687 306.486884 
L 423.50837 306.486884 
z
" style="fill:#1f77b4;"/>
   </g>
   <g id="patch_115">
    <path clip-path="url(#pf8eb8518b2)" d="M 424.197687 307.584 
L 424.88093 307.584 
L 424.88093 306.424548 
L 424.197687 306.424548 
z
" style="fill:#1f77b4;"/>
   </g>
   <g id="patch_116">
    <path clip-path="url(#pf8eb8518b2)" d="M 424.88093 307.584 
L 425.558206 307.584 
L 425.558206 306.74454 
L 424.88093 306.74454 
z
" style="fill:#1f77b4;"/>
   </g>
   <g id="patch_117">
    <path clip-path="url(#pf8eb8518b2)" d="M 425.558206 307.584 
L 426.229619 307.584 
L 426.229619 306.690515 
L 425.558206 306.690515 
z
" style="fill:#1f77b4;"/>
   </g>
   <g id="patch_118">
    <path clip-path="url(#pf8eb8518b2)" d="M 426.229619 307.584 
L 426.895267 307.584 
L 426.895267 306.840122 
L 426.229619 306.840122 
z
" style="fill:#1f77b4;"/>
   </g>
   <g id="patch_119">
    <path clip-path="url(#pf8eb8518b2)" d="M 426.895267 307.584 
L 427.555251 307.584 
L 427.555251 306.894147 
L 426.895267 306.894147 
z
" style="fill:#1f77b4;"/>
   </g>
   <g id="patch_120">
    <path clip-path="url(#pf8eb8518b2)" d="M 427.555251 307.584 
L 428.209665 307.584 
L 428.209665 306.97934 
L 427.555251 306.97934 
z
" style="fill:#1f77b4;"/>
   </g>
   <g id="patch_121">
    <path clip-path="url(#pf8eb8518b2)" d="M 428.209665 307.584 
L 428.858603 307.584 
L 428.858603 306.941938 
L 428.209665 306.941938 
z
" style="fill:#1f77b4;"/>
   </g>
   <g id="patch_122">
    <path clip-path="url(#pf8eb8518b2)" d="M 428.858603 307.584 
L 429.502156 307.584 
L 429.502156 306.975184 
L 428.858603 306.975184 
z
" style="fill:#1f77b4;"/>
   </g>
   <g id="patch_123">
    <path clip-path="url(#pf8eb8518b2)" d="M 429.502156 307.584 
L 430.140411 307.584 
L 430.140411 307.114401 
L 429.502156 307.114401 
z
" style="fill:#1f77b4;"/>
   </g>
   <g id="patch_124">
    <path clip-path="url(#pf8eb8518b2)" d="M 430.140411 307.584 
L 430.773457 307.584 
L 430.773457 307.187127 
L 430.140411 307.187127 
z
" style="fill:#1f77b4;"/>
   </g>
   <g id="patch_125">
    <path clip-path="url(#pf8eb8518b2)" d="M 430.773457 307.584 
L 431.401376 307.584 
L 431.401376 307.16427 
L 430.773457 307.16427 
z
" style="fill:#1f77b4;"/>
   </g>
   <g id="patch_126">
    <path clip-path="url(#pf8eb8518b2)" d="M 431.401376 307.584 
L 432.024252 307.584 
L 432.024252 307.172582 
L 431.401376 307.172582 
z
" style="fill:#1f77b4;"/>
   </g>
   <g id="patch_127">
    <path clip-path="url(#pf8eb8518b2)" d="M 432.024252 307.584 
L 432.642165 307.584 
L 432.642165 307.218295 
L 432.024252 307.218295 
z
" style="fill:#1f77b4;"/>
   </g>
   <g id="patch_128">
    <path clip-path="url(#pf8eb8518b2)" d="M 432.642165 307.584 
L 433.255192 307.584 
L 433.255192 307.241151 
L 432.642165 307.241151 
z
" style="fill:#1f77b4;"/>
   </g>
   <g id="patch_129">
    <path clip-path="url(#pf8eb8518b2)" d="M 433.255192 307.584 
L 433.863412 307.584 
L 433.863412 307.293098 
L 433.255192 307.293098 
z
" style="fill:#1f77b4;"/>
   </g>
   <g id="patch_130">
    <path clip-path="url(#pf8eb8518b2)" d="M 433.863412 307.584 
L 434.466899 307.584 
L 434.466899 307.336733 
L 433.863412 307.336733 
z
" style="fill:#1f77b4;"/>
   </g>
   <g id="patch_131">
    <path clip-path="url(#pf8eb8518b2)" d="M 434.466899 307.584 
L 435.065725 307.584 
L 435.065725 307.409459 
L 434.466899 307.409459 
z
" style="fill:#1f77b4;"/>
   </g>
   <g id="patch_132">
    <path clip-path="url(#pf8eb8518b2)" d="M 435.065725 307.584 
L 435.659963 307.584 
L 435.659963 307.413615 
L 435.065725 307.413615 
z
" style="fill:#1f77b4;"/>
   </g>
   <g id="patch_133">
    <path clip-path="url(#pf8eb8518b2)" d="M 435.659963 307.584 
L 436.249681 307.584 
L 436.249681 307.347123 
L 435.659963 307.347123 
z
" style="fill:#1f77b4;"/>
   </g>
   <g id="patch_134">
    <path clip-path="url(#pf8eb8518b2)" d="M 436.249681 307.584 
L 436.834949 307.584 
L 436.834949 307.407381 
L 436.249681 307.407381 
z
" style="fill:#1f77b4;"/>
   </g>
   <g id="patch_135">
    <path clip-path="url(#pf8eb8518b2)" d="M 436.834949 307.584 
L 437.415833 307.584 
L 437.415833 307.471795 
L 436.834949 307.471795 
z
" style="fill:#1f77b4;"/>
   </g>
   <g id="patch_136">
    <path clip-path="url(#pf8eb8518b2)" d="M 437.415833 307.584 
L 437.992398 307.584 
L 437.992398 307.463483 
L 437.415833 307.463483 
z
" style="fill:#1f77b4;"/>
   </g>
   <g id="patch_137">
    <path clip-path="url(#pf8eb8518b2)" d="M 437.992398 307.584 
L 438.564707 307.584 
L 438.564707 307.490496 
L 437.992398 307.490496 
z
" style="fill:#1f77b4;"/>
   </g>
   <g id="patch_138">
    <path clip-path="url(#pf8eb8518b2)" d="M 438.564707 307.584 
L 439.132824 307.584 
L 439.132824 307.463483 
L 438.564707 307.463483 
z
" style="fill:#1f77b4;"/>
   </g>
   <g id="patch_139">
    <path clip-path="url(#pf8eb8518b2)" d="M 439.132824 307.584 
L 439.69681 307.584 
L 439.69681 307.453094 
L 439.132824 307.453094 
z
" style="fill:#1f77b4;"/>
   </g>
   <g id="patch_140">
    <path clip-path="url(#pf8eb8518b2)" d="M 439.69681 307.584 
L 440.256723 307.584 
L 440.256723 307.424004 
L 439.69681 307.424004 
z
" style="fill:#1f77b4;"/>
   </g>
   <g id="patch_141">
    <path clip-path="url(#pf8eb8518b2)" d="M 440.256723 307.584 
L 440.812622 307.584 
L 440.812622 307.494652 
L 440.256723 307.494652 
z
" style="fill:#1f77b4;"/>
   </g>
   <g id="patch_142">
    <path clip-path="url(#pf8eb8518b2)" d="M 440.812622 307.584 
L 441.364565 307.584 
L 441.364565 307.490496 
L 440.812622 307.490496 
z
" style="fill:#1f77b4;"/>
   </g>
   <g id="patch_143">
    <path clip-path="url(#pf8eb8518b2)" d="M 441.364565 307.584 
L 441.912607 307.584 
L 441.912607 307.507119 
L 441.364565 307.507119 
z
" style="fill:#1f77b4;"/>
   </g>
   <g id="patch_144">
    <path clip-path="url(#pf8eb8518b2)" d="M 441.912607 307.584 
L 442.456803 307.584 
L 442.456803 307.500885 
L 441.912607 307.500885 
z
" style="fill:#1f77b4;"/>
   </g>
   <g id="patch_145">
    <path clip-path="url(#pf8eb8518b2)" d="M 442.456803 307.584 
L 442.997207 307.584 
L 442.997207 307.496729 
L 442.456803 307.496729 
z
" style="fill:#1f77b4;"/>
   </g>
   <g id="patch_146">
    <path clip-path="url(#pf8eb8518b2)" d="M 442.997207 307.584 
L 443.53387 307.584 
L 443.53387 307.496729 
L 442.997207 307.496729 
z
" style="fill:#1f77b4;"/>
   </g>
   <g id="patch_147">
    <path clip-path="url(#pf8eb8518b2)" d="M 443.53387 307.584 
L 444.066846 307.584 
L 444.066846 307.494652 
L 443.53387 307.494652 
z
" style="fill:#1f77b4;"/>
   </g>
   <g id="patch_148">
    <path clip-path="url(#pf8eb8518b2)" d="M 444.066846 307.584 
L 444.596183 307.584 
L 444.596183 307.536209 
L 444.066846 307.536209 
z
" style="fill:#1f77b4;"/>
   </g>
   <g id="patch_149">
    <path clip-path="url(#pf8eb8518b2)" d="M 444.596183 307.584 
L 445.121932 307.584 
L 445.121932 307.511275 
L 444.596183 307.511275 
z
" style="fill:#1f77b4;"/>
   </g>
   <g id="patch_150">
    <path clip-path="url(#pf8eb8518b2)" d="M 445.121932 307.584 
L 445.64414 307.584 
L 445.64414 307.505041 
L 445.121932 307.505041 
z
" style="fill:#1f77b4;"/>
   </g>
   <g id="patch_151">
    <path clip-path="url(#pf8eb8518b2)" d="M 445.64414 307.584 
L 446.162855 307.584 
L 446.162855 307.507119 
L 445.64414 307.507119 
z
" style="fill:#1f77b4;"/>
   </g>
   <g id="patch_152">
    <path clip-path="url(#pf8eb8518b2)" d="M 446.162855 307.584 
L 446.678124 307.584 
L 446.678124 307.517508 
L 446.162855 307.517508 
z
" style="fill:#1f77b4;"/>
   </g>
   <g id="patch_153">
    <path clip-path="url(#pf8eb8518b2)" d="M 446.678124 307.584 
L 447.189991 307.584 
L 447.189991 307.536209 
L 446.678124 307.536209 
z
" style="fill:#1f77b4;"/>
   </g>
   <g id="patch_154">
    <path clip-path="url(#pf8eb8518b2)" d="M 447.189991 307.584 
L 447.698502 307.584 
L 447.698502 307.527897 
L 447.189991 307.527897 
z
" style="fill:#1f77b4;"/>
   </g>
   <g id="patch_155">
    <path clip-path="url(#pf8eb8518b2)" d="M 447.698502 307.584 
L 448.2037 307.584 
L 448.2037 307.519586 
L 447.698502 307.519586 
z
" style="fill:#1f77b4;"/>
   </g>
   <g id="patch_156">
    <path clip-path="url(#pf8eb8518b2)" d="M 448.2037 307.584 
L 448.705628 307.584 
L 448.705628 307.556988 
L 448.2037 307.556988 
z
" style="fill:#1f77b4;"/>
   </g>
   <g id="patch_157">
    <path clip-path="url(#pf8eb8518b2)" d="M 448.705628 307.584 
L 449.204328 307.584 
L 449.204328 307.546598 
L 448.705628 307.546598 
z
" style="fill:#1f77b4;"/>
   </g>
   <g id="patch_158">
    <path clip-path="url(#pf8eb8518b2)" d="M 449.204328 307.584 
L 449.699842 307.584 
L 449.699842 307.546598 
L 449.204328 307.546598 
z
" style="fill:#1f77b4;"/>
   </g>
   <g id="patch_159">
    <path clip-path="url(#pf8eb8518b2)" d="M 449.699842 307.584 
L 450.192209 307.584 
L 450.192209 307.552832 
L 449.699842 307.552832 
z
" style="fill:#1f77b4;"/>
   </g>
   <g id="patch_160">
    <path clip-path="url(#pf8eb8518b2)" d="M 450.192209 307.584 
L 450.681471 307.584 
L 450.681471 307.569455 
L 450.192209 307.569455 
z
" style="fill:#1f77b4;"/>
   </g>
   <g id="patch_161">
    <path clip-path="url(#pf8eb8518b2)" d="M 450.681471 307.584 
L 451.167664 307.584 
L 451.167664 307.550754 
L 450.681471 307.550754 
z
" style="fill:#1f77b4;"/>
   </g>
   <g id="patch_162">
    <path clip-path="url(#pf8eb8518b2)" d="M 451.167664 307.584 
L 451.650828 307.584 
L 451.650828 307.565299 
L 451.167664 307.565299 
z
" style="fill:#1f77b4;"/>
   </g>
   <g id="patch_163">
    <path clip-path="url(#pf8eb8518b2)" d="M 451.650828 307.584 
L 452.131001 307.584 
L 452.131001 307.55491 
L 451.650828 307.55491 
z
" style="fill:#1f77b4;"/>
   </g>
   <g id="patch_164">
    <path clip-path="url(#pf8eb8518b2)" d="M 452.131001 307.584 
L 452.608219 307.584 
L 452.608219 307.556988 
L 452.131001 307.556988 
z
" style="fill:#1f77b4;"/>
   </g>
   <g id="patch_165">
    <path clip-path="url(#pf8eb8518b2)" d="M 452.608219 307.584 
L 453.082518 307.584 
L 453.082518 307.563221 
L 452.608219 307.563221 
z
" style="fill:#1f77b4;"/>
   </g>
   <g id="patch_166">
    <path clip-path="url(#pf8eb8518b2)" d="M 453.082518 307.584 
L 453.553933 307.584 
L 453.553933 307.571533 
L 453.082518 307.571533 
z
" style="fill:#1f77b4;"/>
   </g>
   <g id="patch_167">
    <path clip-path="url(#pf8eb8518b2)" d="M 453.553933 307.584 
L 454.0225 307.584 
L 454.0225 307.571533 
L 453.553933 307.571533 
z
" style="fill:#1f77b4;"/>
   </g>
   <g id="patch_168">
    <path clip-path="url(#pf8eb8518b2)" d="M 454.0225 307.584 
L 454.488253 307.584 
L 454.488253 307.569455 
L 454.0225 307.569455 
z
" style="fill:#1f77b4;"/>
   </g>
   <g id="patch_169">
    <path clip-path="url(#pf8eb8518b2)" d="M 454.488253 307.584 
L 454.951225 307.584 
L 454.951225 307.571533 
L 454.488253 307.571533 
z
" style="fill:#1f77b4;"/>
   </g>
   <g id="patch_170">
    <path clip-path="url(#pf8eb8518b2)" d="M 454.951225 307.584 
L 455.41145 307.584 
L 455.41145 307.567377 
L 454.951225 307.567377 
z
" style="fill:#1f77b4;"/>
   </g>
   <g id="patch_171">
    <path clip-path="url(#pf8eb8518b2)" d="M 455.41145 307.584 
L 455.868959 307.584 
L 455.868959 307.571533 
L 455.41145 307.571533 
z
" style="fill:#1f77b4;"/>
   </g>
   <g id="patch_172">
    <path clip-path="url(#pf8eb8518b2)" d="M 455.868959 307.584 
L 456.323785 307.584 
L 456.323785 307.569455 
L 455.868959 307.569455 
z
" style="fill:#1f77b4;"/>
   </g>
   <g id="patch_173">
    <path clip-path="url(#pf8eb8518b2)" d="M 456.323785 307.584 
L 456.775959 307.584 
L 456.775959 307.573611 
L 456.323785 307.573611 
z
" style="fill:#1f77b4;"/>
   </g>
   <g id="patch_174">
    <path clip-path="url(#pf8eb8518b2)" d="M 456.775959 307.584 
L 457.225512 307.584 
L 457.225512 307.563221 
L 456.775959 307.563221 
z
" style="fill:#1f77b4;"/>
   </g>
   <g id="patch_175">
    <path clip-path="url(#pf8eb8518b2)" d="M 457.225512 307.584 
L 457.672474 307.584 
L 457.672474 307.567377 
L 457.225512 307.567377 
z
" style="fill:#1f77b4;"/>
   </g>
   <g id="patch_176">
    <path clip-path="url(#pf8eb8518b2)" d="M 457.672474 307.584 
L 458.116874 307.584 
L 458.116874 307.575689 
L 457.672474 307.575689 
z
" style="fill:#1f77b4;"/>
   </g>
   <g id="patch_177">
    <path clip-path="url(#pf8eb8518b2)" d="M 458.116874 307.584 
L 458.558742 307.584 
L 458.558742 307.573611 
L 458.116874 307.573611 
z
" style="fill:#1f77b4;"/>
   </g>
   <g id="patch_178">
    <path clip-path="url(#pf8eb8518b2)" d="M 458.558742 307.584 
L 458.998106 307.584 
L 458.998106 307.581922 
L 458.558742 307.581922 
z
" style="fill:#1f77b4;"/>
   </g>
   <g id="patch_179">
    <path clip-path="url(#pf8eb8518b2)" d="M 458.998106 307.584 
L 459.434996 307.584 
L 459.434996 307.581922 
L 458.998106 307.581922 
z
" style="fill:#1f77b4;"/>
   </g>
   <g id="patch_180">
    <path clip-path="url(#pf8eb8518b2)" d="M 459.434996 307.584 
L 459.869437 307.584 
L 459.869437 307.577766 
L 459.434996 307.577766 
z
" style="fill:#1f77b4;"/>
   </g>
   <g id="patch_181">
    <path clip-path="url(#pf8eb8518b2)" d="M 459.869437 307.584 
L 460.301459 307.584 
L 460.301459 307.577766 
L 459.869437 307.577766 
z
" style="fill:#1f77b4;"/>
   </g>
   <g id="patch_182">
    <path clip-path="url(#pf8eb8518b2)" d="M 460.301459 307.584 
L 460.731086 307.584 
L 460.731086 307.575689 
L 460.301459 307.575689 
z
" style="fill:#1f77b4;"/>
   </g>
   <g id="patch_183">
    <path clip-path="url(#pf8eb8518b2)" d="M 460.731086 307.584 
L 461.158347 307.584 
L 461.158347 307.581922 
L 460.731086 307.581922 
z
" style="fill:#1f77b4;"/>
   </g>
   <g id="patch_184">
    <path clip-path="url(#pf8eb8518b2)" d="M 461.158347 307.584 
L 461.583267 307.584 
L 461.583267 307.581922 
L 461.158347 307.581922 
z
" style="fill:#1f77b4;"/>
   </g>
   <g id="patch_185">
    <path clip-path="url(#pf8eb8518b2)" d="M 461.583267 307.584 
L 462.00587 307.584 
L 462.00587 307.573611 
L 461.583267 307.573611 
z
" style="fill:#1f77b4;"/>
   </g>
   <g id="patch_186">
    <path clip-path="url(#pf8eb8518b2)" d="M 462.00587 307.584 
L 462.426184 307.584 
L 462.426184 307.581922 
L 462.00587 307.581922 
z
" style="fill:#1f77b4;"/>
   </g>
   <g id="patch_187">
    <path clip-path="url(#pf8eb8518b2)" d="M 462.426184 307.584 
L 462.844231 307.584 
L 462.844231 307.573611 
L 462.426184 307.573611 
z
" style="fill:#1f77b4;"/>
   </g>
   <g id="patch_188">
    <path clip-path="url(#pf8eb8518b2)" d="M 462.844231 307.584 
L 463.260037 307.584 
L 463.260037 307.581922 
L 462.844231 307.581922 
z
" style="fill:#1f77b4;"/>
   </g>
   <g id="patch_189">
    <path clip-path="url(#pf8eb8518b2)" d="M 463.260037 307.584 
L 463.673626 307.584 
L 463.673626 307.571533 
L 463.260037 307.571533 
z
" style="fill:#1f77b4;"/>
   </g>
   <g id="patch_190">
    <path clip-path="url(#pf8eb8518b2)" d="M 463.673626 307.584 
L 464.08502 307.584 
L 464.08502 307.577766 
L 463.673626 307.577766 
z
" style="fill:#1f77b4;"/>
   </g>
   <g id="patch_191">
    <path clip-path="url(#pf8eb8518b2)" d="M 464.08502 307.584 
L 464.494243 307.584 
L 464.494243 307.577766 
L 464.08502 307.577766 
z
" style="fill:#1f77b4;"/>
   </g>
   <g id="patch_192">
    <path clip-path="url(#pf8eb8518b2)" d="M 464.494243 307.584 
L 464.901318 307.584 
L 464.901318 307.571533 
L 464.494243 307.571533 
z
" style="fill:#1f77b4;"/>
   </g>
   <g id="matplotlib.axis_1">
    <g id="xtick_1">
     <g id="line2d_1">
      <defs>
       <path d="M 0 0 
L 0 3.5 
" id="m9c4357b5df" style="stroke:#000000;stroke-width:0.8;"/>
      </defs>
      <g>
       <use style="stroke:#000000;stroke-width:0.8;" x="57.6" xlink:href="#m9c4357b5df" y="307.584"/>
      </g>
     </g>
     <g id="text_1">
      <!-- $\mathdefault{10^{0}}$ -->
      <g transform="translate(48.8 322.182437)scale(0.1 -0.1)">
       <defs>
        <path d="M 794 531 
L 1825 531 
L 1825 4091 
L 703 3866 
L 703 4441 
L 1819 4666 
L 2450 4666 
L 2450 531 
L 3481 531 
L 3481 0 
L 794 0 
L 794 531 
z
" id="DejaVuSans-31" transform="scale(0.015625)"/>
        <path d="M 2034 4250 
Q 1547 4250 1301 3770 
Q 1056 3291 1056 2328 
Q 1056 1369 1301 889 
Q 1547 409 2034 409 
Q 2525 409 2770 889 
Q 3016 1369 3016 2328 
Q 3016 3291 2770 3770 
Q 2525 4250 2034 4250 
z
M 2034 4750 
Q 2819 4750 3233 4129 
Q 3647 3509 3647 2328 
Q 3647 1150 3233 529 
Q 2819 -91 2034 -91 
Q 1250 -91 836 529 
Q 422 1150 422 2328 
Q 422 3509 836 4129 
Q 1250 4750 2034 4750 
z
" id="DejaVuSans-30" transform="scale(0.015625)"/>
       </defs>
       <use transform="translate(0 0.765625)" xlink:href="#DejaVuSans-31"/>
       <use transform="translate(63.623047 0.765625)" xlink:href="#DejaVuSans-30"/>
       <use transform="translate(128.203125 39.046875)scale(0.7)" xlink:href="#DejaVuSans-30"/>
      </g>
     </g>
    </g>
    <g id="xtick_2">
     <g id="line2d_2">
      <g>
       <use style="stroke:#000000;stroke-width:0.8;" x="236.16" xlink:href="#m9c4357b5df" y="307.584"/>
      </g>
     </g>
     <g id="text_2">
      <!-- $\mathdefault{10^{1}}$ -->
      <g transform="translate(227.36 322.182437)scale(0.1 -0.1)">
       <use transform="translate(0 0.684375)" xlink:href="#DejaVuSans-31"/>
       <use transform="translate(63.623047 0.684375)" xlink:href="#DejaVuSans-30"/>
       <use transform="translate(128.203125 38.965625)scale(0.7)" xlink:href="#DejaVuSans-31"/>
      </g>
     </g>
    </g>
    <g id="xtick_3">
     <g id="line2d_3">
      <g>
       <use style="stroke:#000000;stroke-width:0.8;" x="414.72" xlink:href="#m9c4357b5df" y="307.584"/>
      </g>
     </g>
     <g id="text_3">
      <!-- $\mathdefault{10^{2}}$ -->
      <g transform="translate(405.92 322.182437)scale(0.1 -0.1)">
       <defs>
        <path d="M 1228 531 
L 3431 531 
L 3431 0 
L 469 0 
L 469 531 
Q 828 903 1448 1529 
Q 2069 2156 2228 2338 
Q 2531 2678 2651 2914 
Q 2772 3150 2772 3378 
Q 2772 3750 2511 3984 
Q 2250 4219 1831 4219 
Q 1534 4219 1204 4116 
Q 875 4013 500 3803 
L 500 4441 
Q 881 4594 1212 4672 
Q 1544 4750 1819 4750 
Q 2544 4750 2975 4387 
Q 3406 4025 3406 3419 
Q 3406 3131 3298 2873 
Q 3191 2616 2906 2266 
Q 2828 2175 2409 1742 
Q 1991 1309 1228 531 
z
" id="DejaVuSans-32" transform="scale(0.015625)"/>
       </defs>
       <use transform="translate(0 0.765625)" xlink:href="#DejaVuSans-31"/>
       <use transform="translate(63.623047 0.765625)" xlink:href="#DejaVuSans-30"/>
       <use transform="translate(128.203125 39.046875)scale(0.7)" xlink:href="#DejaVuSans-32"/>
      </g>
     </g>
    </g>
    <g id="xtick_4">
     <g id="line2d_4">
      <defs>
       <path d="M 0 0 
L 0 2 
" id="m908bf64fb6" style="stroke:#000000;stroke-width:0.6;"/>
      </defs>
      <g>
       <use style="stroke:#000000;stroke-width:0.6;" x="111.351916" xlink:href="#m908bf64fb6" y="307.584"/>
      </g>
     </g>
    </g>
    <g id="xtick_5">
     <g id="line2d_5">
      <g>
       <use style="stroke:#000000;stroke-width:0.6;" x="142.794771" xlink:href="#m908bf64fb6" y="307.584"/>
      </g>
     </g>
    </g>
    <g id="xtick_6">
     <g id="line2d_6">
      <g>
       <use style="stroke:#000000;stroke-width:0.6;" x="165.103832" xlink:href="#m908bf64fb6" y="307.584"/>
      </g>
     </g>
    </g>
    <g id="xtick_7">
     <g id="line2d_7">
      <g>
       <use style="stroke:#000000;stroke-width:0.6;" x="182.408084" xlink:href="#m908bf64fb6" y="307.584"/>
      </g>
     </g>
    </g>
    <g id="xtick_8">
     <g id="line2d_8">
      <g>
       <use style="stroke:#000000;stroke-width:0.6;" x="196.546687" xlink:href="#m908bf64fb6" y="307.584"/>
      </g>
     </g>
    </g>
    <g id="xtick_9">
     <g id="line2d_9">
      <g>
       <use style="stroke:#000000;stroke-width:0.6;" x="208.500706" xlink:href="#m908bf64fb6" y="307.584"/>
      </g>
     </g>
    </g>
    <g id="xtick_10">
     <g id="line2d_10">
      <g>
       <use style="stroke:#000000;stroke-width:0.6;" x="218.855748" xlink:href="#m908bf64fb6" y="307.584"/>
      </g>
     </g>
    </g>
    <g id="xtick_11">
     <g id="line2d_11">
      <g>
       <use style="stroke:#000000;stroke-width:0.6;" x="227.989542" xlink:href="#m908bf64fb6" y="307.584"/>
      </g>
     </g>
    </g>
    <g id="xtick_12">
     <g id="line2d_12">
      <g>
       <use style="stroke:#000000;stroke-width:0.6;" x="289.911916" xlink:href="#m908bf64fb6" y="307.584"/>
      </g>
     </g>
    </g>
    <g id="xtick_13">
     <g id="line2d_13">
      <g>
       <use style="stroke:#000000;stroke-width:0.6;" x="321.354771" xlink:href="#m908bf64fb6" y="307.584"/>
      </g>
     </g>
    </g>
    <g id="xtick_14">
     <g id="line2d_14">
      <g>
       <use style="stroke:#000000;stroke-width:0.6;" x="343.663832" xlink:href="#m908bf64fb6" y="307.584"/>
      </g>
     </g>
    </g>
    <g id="xtick_15">
     <g id="line2d_15">
      <g>
       <use style="stroke:#000000;stroke-width:0.6;" x="360.968084" xlink:href="#m908bf64fb6" y="307.584"/>
      </g>
     </g>
    </g>
    <g id="xtick_16">
     <g id="line2d_16">
      <g>
       <use style="stroke:#000000;stroke-width:0.6;" x="375.106687" xlink:href="#m908bf64fb6" y="307.584"/>
      </g>
     </g>
    </g>
    <g id="xtick_17">
     <g id="line2d_17">
      <g>
       <use style="stroke:#000000;stroke-width:0.6;" x="387.060706" xlink:href="#m908bf64fb6" y="307.584"/>
      </g>
     </g>
    </g>
    <g id="xtick_18">
     <g id="line2d_18">
      <g>
       <use style="stroke:#000000;stroke-width:0.6;" x="397.415748" xlink:href="#m908bf64fb6" y="307.584"/>
      </g>
     </g>
    </g>
    <g id="xtick_19">
     <g id="line2d_19">
      <g>
       <use style="stroke:#000000;stroke-width:0.6;" x="406.549542" xlink:href="#m908bf64fb6" y="307.584"/>
      </g>
     </g>
    </g>
   </g>
   <g id="matplotlib.axis_2">
    <g id="ytick_1">
     <g id="line2d_20">
      <defs>
       <path d="M 0 0 
L -3.5 0 
" id="m57e7a41c00" style="stroke:#000000;stroke-width:0.8;"/>
      </defs>
      <g>
       <use style="stroke:#000000;stroke-width:0.8;" x="57.6" xlink:href="#m57e7a41c00" y="307.584"/>
      </g>
     </g>
     <g id="text_4">
      <!-- 0.000 -->
      <g transform="translate(21.971875 311.383219)scale(0.1 -0.1)">
       <defs>
        <path d="M 684 794 
L 1344 794 
L 1344 0 
L 684 0 
L 684 794 
z
" id="DejaVuSans-2e" transform="scale(0.015625)"/>
       </defs>
       <use xlink:href="#DejaVuSans-30"/>
       <use x="63.623047" xlink:href="#DejaVuSans-2e"/>
       <use x="95.410156" xlink:href="#DejaVuSans-30"/>
       <use x="159.033203" xlink:href="#DejaVuSans-30"/>
       <use x="222.65625" xlink:href="#DejaVuSans-30"/>
      </g>
     </g>
    </g>
    <g id="ytick_2">
     <g id="line2d_21">
      <g>
       <use style="stroke:#000000;stroke-width:0.8;" x="57.6" xlink:href="#m57e7a41c00" y="262.872539"/>
      </g>
     </g>
     <g id="text_5">
      <!-- 0.005 -->
      <g transform="translate(21.971875 266.671757)scale(0.1 -0.1)">
       <defs>
        <path d="M 691 4666 
L 3169 4666 
L 3169 4134 
L 1269 4134 
L 1269 2991 
Q 1406 3038 1543 3061 
Q 1681 3084 1819 3084 
Q 2600 3084 3056 2656 
Q 3513 2228 3513 1497 
Q 3513 744 3044 326 
Q 2575 -91 1722 -91 
Q 1428 -91 1123 -41 
Q 819 9 494 109 
L 494 744 
Q 775 591 1075 516 
Q 1375 441 1709 441 
Q 2250 441 2565 725 
Q 2881 1009 2881 1497 
Q 2881 1984 2565 2268 
Q 2250 2553 1709 2553 
Q 1456 2553 1204 2497 
Q 953 2441 691 2322 
L 691 4666 
z
" id="DejaVuSans-35" transform="scale(0.015625)"/>
       </defs>
       <use xlink:href="#DejaVuSans-30"/>
       <use x="63.623047" xlink:href="#DejaVuSans-2e"/>
       <use x="95.410156" xlink:href="#DejaVuSans-30"/>
       <use x="159.033203" xlink:href="#DejaVuSans-30"/>
       <use x="222.65625" xlink:href="#DejaVuSans-35"/>
      </g>
     </g>
    </g>
    <g id="ytick_3">
     <g id="line2d_22">
      <g>
       <use style="stroke:#000000;stroke-width:0.8;" x="57.6" xlink:href="#m57e7a41c00" y="218.161077"/>
      </g>
     </g>
     <g id="text_6">
      <!-- 0.010 -->
      <g transform="translate(21.971875 221.960296)scale(0.1 -0.1)">
       <use xlink:href="#DejaVuSans-30"/>
       <use x="63.623047" xlink:href="#DejaVuSans-2e"/>
       <use x="95.410156" xlink:href="#DejaVuSans-30"/>
       <use x="159.033203" xlink:href="#DejaVuSans-31"/>
       <use x="222.65625" xlink:href="#DejaVuSans-30"/>
      </g>
     </g>
    </g>
    <g id="ytick_4">
     <g id="line2d_23">
      <g>
       <use style="stroke:#000000;stroke-width:0.8;" x="57.6" xlink:href="#m57e7a41c00" y="173.449616"/>
      </g>
     </g>
     <g id="text_7">
      <!-- 0.015 -->
      <g transform="translate(21.971875 177.248835)scale(0.1 -0.1)">
       <use xlink:href="#DejaVuSans-30"/>
       <use x="63.623047" xlink:href="#DejaVuSans-2e"/>
       <use x="95.410156" xlink:href="#DejaVuSans-30"/>
       <use x="159.033203" xlink:href="#DejaVuSans-31"/>
       <use x="222.65625" xlink:href="#DejaVuSans-35"/>
      </g>
     </g>
    </g>
    <g id="ytick_5">
     <g id="line2d_24">
      <g>
       <use style="stroke:#000000;stroke-width:0.8;" x="57.6" xlink:href="#m57e7a41c00" y="128.738155"/>
      </g>
     </g>
     <g id="text_8">
      <!-- 0.020 -->
      <g transform="translate(21.971875 132.537374)scale(0.1 -0.1)">
       <use xlink:href="#DejaVuSans-30"/>
       <use x="63.623047" xlink:href="#DejaVuSans-2e"/>
       <use x="95.410156" xlink:href="#DejaVuSans-30"/>
       <use x="159.033203" xlink:href="#DejaVuSans-32"/>
       <use x="222.65625" xlink:href="#DejaVuSans-30"/>
      </g>
     </g>
    </g>
    <g id="ytick_6">
     <g id="line2d_25">
      <g>
       <use style="stroke:#000000;stroke-width:0.8;" x="57.6" xlink:href="#m57e7a41c00" y="84.026694"/>
      </g>
     </g>
     <g id="text_9">
      <!-- 0.025 -->
      <g transform="translate(21.971875 87.825912)scale(0.1 -0.1)">
       <use xlink:href="#DejaVuSans-30"/>
       <use x="63.623047" xlink:href="#DejaVuSans-2e"/>
       <use x="95.410156" xlink:href="#DejaVuSans-30"/>
       <use x="159.033203" xlink:href="#DejaVuSans-32"/>
       <use x="222.65625" xlink:href="#DejaVuSans-35"/>
      </g>
     </g>
    </g>
   </g>
   <g id="patch_193">
    <path d="M 57.6 307.584 
L 57.6 41.472 
" style="fill:none;stroke:#000000;stroke-linecap:square;stroke-linejoin:miter;stroke-width:0.8;"/>
   </g>
   <g id="patch_194">
    <path d="M 414.72 307.584 
L 414.72 41.472 
" style="fill:none;stroke:#000000;stroke-linecap:square;stroke-linejoin:miter;stroke-width:0.8;"/>
   </g>
   <g id="patch_195">
    <path d="M 57.6 307.584 
L 414.72 307.584 
" style="fill:none;stroke:#000000;stroke-linecap:square;stroke-linejoin:miter;stroke-width:0.8;"/>
   </g>
   <g id="patch_196">
    <path d="M 57.6 41.472 
L 414.72 41.472 
" style="fill:none;stroke:#000000;stroke-linecap:square;stroke-linejoin:miter;stroke-width:0.8;"/>
   </g>
  </g>
 </g>
 <defs>
  <clipPath id="pf8eb8518b2">
   <rect height="266.112" width="357.12" x="57.6" y="41.472"/>
  </clipPath>
 </defs>
</svg>
