<?xml version="1.0" encoding="utf-8" standalone="no"?>
<!DOCTYPE svg PUBLIC "-//W3C//DTD SVG 1.1//EN"
  "http://www.w3.org/Graphics/SVG/1.1/DTD/svg11.dtd">
<svg height="345.6pt" version="1.1" viewBox="0 0 460.8 345.6" width="460.8pt" xmlns="http://www.w3.org/2000/svg" xmlns:xlink="http://www.w3.org/1999/xlink">
 <metadata>
  <rdf:RDF xmlns:cc="http://creativecommons.org/ns#" xmlns:dc="http://purl.org/dc/elements/1.1/" xmlns:rdf="http://www.w3.org/1999/02/22-rdf-syntax-ns#">
   <cc:Work>
    <dc:type rdf:resource="http://purl.org/dc/dcmitype/StillImage"/>
    <dc:date>2021-09-10T11:29:54.841085</dc:date>
    <dc:format>image/svg+xml</dc:format>
    <dc:creator>
     <cc:Agent>
      <dc:title>Matplotlib v3.4.2, https://matplotlib.org/</dc:title>
     </cc:Agent>
    </dc:creator>
   </cc:Work>
  </rdf:RDF>
 </metadata>
 <defs>
  <style type="text/css">*{stroke-linecap:butt;stroke-linejoin:round;}</style>
 </defs>
 <g id="figure_1">
  <g id="patch_1">
   <path d="M 0 345.6 
L 460.8 345.6 
L 460.8 0 
L 0 0 
z
" style="fill:#ffffff;"/>
  </g>
  <g id="axes_1">
   <g id="patch_2">
    <path d="M 57.6 307.584 
L 414.72 307.584 
L 414.72 41.472 
L 57.6 41.472 
z
" style="fill:#ffffff;"/>
   </g>
   <g id="patch_3">
    <path clip-path="url(#pe939b920d4)" d="M 57.6 307.584 
L 111.351916 307.584 
L 111.351916 307.566278 
L 57.6 307.566278 
z
" style="fill:#1f77b4;"/>
   </g>
   <g id="patch_4">
    <path clip-path="url(#pe939b920d4)" d="M 111.351916 307.584 
L 142.794771 307.584 
L 142.794771 307.491845 
L 111.351916 307.491845 
z
" style="fill:#1f77b4;"/>
   </g>
   <g id="patch_5">
    <path clip-path="url(#pe939b920d4)" d="M 142.794771 307.584 
L 165.103832 307.584 
L 165.103832 307.236647 
L 142.794771 307.236647 
z
" style="fill:#1f77b4;"/>
   </g>
   <g id="patch_6">
    <path clip-path="url(#pe939b920d4)" d="M 165.103832 307.584 
L 182.408084 307.584 
L 182.408084 306.726251 
L 165.103832 306.726251 
z
" style="fill:#1f77b4;"/>
   </g>
   <g id="patch_7">
    <path clip-path="url(#pe939b920d4)" d="M 182.408084 307.584 
L 196.546687 307.584 
L 196.546687 305.918124 
L 182.408084 305.918124 
z
" style="fill:#1f77b4;"/>
   </g>
   <g id="patch_8">
    <path clip-path="url(#pe939b920d4)" d="M 196.546687 307.584 
L 208.500706 307.584 
L 208.500706 304.23807 
L 196.546687 304.23807 
z
" style="fill:#1f77b4;"/>
   </g>
   <g id="patch_9">
    <path clip-path="url(#pe939b920d4)" d="M 208.500706 307.584 
L 218.855748 307.584 
L 218.855748 301.374181 
L 208.500706 301.374181 
z
" style="fill:#1f77b4;"/>
   </g>
   <g id="patch_10">
    <path clip-path="url(#pe939b920d4)" d="M 218.855748 307.584 
L 227.989542 307.584 
L 227.989542 297.755331 
L 218.855748 297.755331 
z
" style="fill:#1f77b4;"/>
   </g>
   <g id="patch_11">
    <path clip-path="url(#pe939b920d4)" d="M 227.989542 307.584 
L 236.16 307.584 
L 236.16 293.037712 
L 227.989542 293.037712 
z
" style="fill:#1f77b4;"/>
   </g>
   <g id="patch_12">
    <path clip-path="url(#pe939b920d4)" d="M 236.16 307.584 
L 243.551078 307.584 
L 243.551078 285.434938 
L 236.16 285.434938 
z
" style="fill:#1f77b4;"/>
   </g>
   <g id="patch_13">
    <path clip-path="url(#pe939b920d4)" d="M 243.551078 307.584 
L 250.298603 307.584 
L 250.298603 275.691335 
L 243.551078 275.691335 
z
" style="fill:#1f77b4;"/>
   </g>
   <g id="patch_14">
    <path clip-path="url(#pe939b920d4)" d="M 250.298603 307.584 
L 256.505725 307.584 
L 256.505725 264.778075 
L 250.298603 264.778075 
z
" style="fill:#1f77b4;"/>
   </g>
   <g id="patch_15">
    <path clip-path="url(#pe939b920d4)" d="M 256.505725 307.584 
L 262.252622 307.584 
L 262.252622 252.883011 
L 256.505725 252.883011 
z
" style="fill:#1f77b4;"/>
   </g>
   <g id="patch_16">
    <path clip-path="url(#pe939b920d4)" d="M 262.252622 307.584 
L 267.602855 307.584 
L 267.602855 238.620277 
L 262.252622 238.620277 
z
" style="fill:#1f77b4;"/>
   </g>
   <g id="patch_17">
    <path clip-path="url(#pe939b920d4)" d="M 267.602855 307.584 
L 272.607664 307.584 
L 272.607664 222.284058 
L 267.602855 222.284058 
z
" style="fill:#1f77b4;"/>
   </g>
   <g id="patch_18">
    <path clip-path="url(#pe939b920d4)" d="M 272.607664 307.584 
L 277.308959 307.584 
L 277.308959 204.320952 
L 272.607664 204.320952 
z
" style="fill:#1f77b4;"/>
   </g>
   <g id="patch_19">
    <path clip-path="url(#pe939b920d4)" d="M 277.308959 307.584 
L 281.741459 307.584 
L 281.741459 188.782228 
L 277.308959 188.782228 
z
" style="fill:#1f77b4;"/>
   </g>
   <g id="patch_20">
    <path clip-path="url(#pe939b920d4)" d="M 281.741459 307.584 
L 285.934243 307.584 
L 285.934243 169.514776 
L 281.741459 169.514776 
z
" style="fill:#1f77b4;"/>
   </g>
   <g id="patch_21">
    <path clip-path="url(#pe939b920d4)" d="M 285.934243 307.584 
L 289.911916 307.584 
L 289.911916 154.227706 
L 285.934243 154.227706 
z
" style="fill:#1f77b4;"/>
   </g>
   <g id="patch_22">
    <path clip-path="url(#pe939b920d4)" d="M 289.911916 307.584 
L 293.695477 307.584 
L 293.695477 135.286341 
L 289.911916 135.286341 
z
" style="fill:#1f77b4;"/>
   </g>
   <g id="patch_23">
    <path clip-path="url(#pe939b920d4)" d="M 293.695477 307.584 
L 297.302994 307.584 
L 297.302994 119.697994 
L 293.695477 119.697994 
z
" style="fill:#1f77b4;"/>
   </g>
   <g id="patch_24">
    <path clip-path="url(#pe939b920d4)" d="M 297.302994 307.584 
L 300.750122 307.584 
L 300.750122 107.806475 
L 297.302994 107.806475 
z
" style="fill:#1f77b4;"/>
   </g>
   <g id="patch_25">
    <path clip-path="url(#pe939b920d4)" d="M 300.750122 307.584 
L 304.050519 307.584 
L 304.050519 95.815712 
L 300.750122 95.815712 
z
" style="fill:#1f77b4;"/>
   </g>
   <g id="patch_26">
    <path clip-path="url(#pe939b920d4)" d="M 304.050519 307.584 
L 307.216168 307.584 
L 307.216168 83.686716 
L 304.050519 83.686716 
z
" style="fill:#1f77b4;"/>
   </g>
   <g id="patch_27">
    <path clip-path="url(#pe939b920d4)" d="M 307.216168 307.584 
L 310.257641 307.584 
L 310.257641 75.45658 
L 307.216168 75.45658 
z
" style="fill:#1f77b4;"/>
   </g>
   <g id="patch_28">
    <path clip-path="url(#pe939b920d4)" d="M 310.257641 307.584 
L 313.184314 307.584 
L 313.184314 67.800639 
L 310.257641 67.800639 
z
" style="fill:#1f77b4;"/>
   </g>
   <g id="patch_29">
    <path clip-path="url(#pe939b920d4)" d="M 313.184314 307.584 
L 316.004538 307.584 
L 316.004538 60.144698 
L 313.184314 60.144698 
z
" style="fill:#1f77b4;"/>
   </g>
   <g id="patch_30">
    <path clip-path="url(#pe939b920d4)" d="M 316.004538 307.584 
L 318.725787 307.584 
L 318.725787 58.393756 
L 316.004538 58.393756 
z
" style="fill:#1f77b4;"/>
   </g>
   <g id="patch_31">
    <path clip-path="url(#pe939b920d4)" d="M 318.725787 307.584 
L 321.354771 307.584 
L 321.354771 55.505056 
L 318.725787 55.505056 
z
" style="fill:#1f77b4;"/>
   </g>
   <g id="patch_32">
    <path clip-path="url(#pe939b920d4)" d="M 321.354771 307.584 
L 323.897544 307.584 
L 323.897544 54.144 
L 321.354771 54.144 
z
" style="fill:#1f77b4;"/>
   </g>
   <g id="patch_33">
    <path clip-path="url(#pe939b920d4)" d="M 323.897544 307.584 
L 326.35958 307.584 
L 326.35958 54.980482 
L 323.897544 54.980482 
z
" style="fill:#1f77b4;"/>
   </g>
   <g id="patch_34">
    <path clip-path="url(#pe939b920d4)" d="M 326.35958 307.584 
L 328.745849 307.584 
L 328.745849 59.07074 
L 326.35958 59.07074 
z
" style="fill:#1f77b4;"/>
   </g>
   <g id="patch_35">
    <path clip-path="url(#pe939b920d4)" d="M 328.745849 307.584 
L 331.060875 307.584 
L 331.060875 61.89564 
L 328.745849 61.89564 
z
" style="fill:#1f77b4;"/>
   </g>
   <g id="patch_36">
    <path clip-path="url(#pe939b920d4)" d="M 331.060875 307.584 
L 333.30879 307.584 
L 333.30879 68.630033 
L 331.060875 68.630033 
z
" style="fill:#1f77b4;"/>
   </g>
   <g id="patch_37">
    <path clip-path="url(#pe939b920d4)" d="M 333.30879 307.584 
L 335.493375 307.584 
L 335.493375 73.783615 
L 333.30879 73.783615 
z
" style="fill:#1f77b4;"/>
   </g>
   <g id="patch_38">
    <path clip-path="url(#pe939b920d4)" d="M 335.493375 307.584 
L 337.6181 307.584 
L 337.6181 78.554401 
L 335.493375 78.554401 
z
" style="fill:#1f77b4;"/>
   </g>
   <g id="patch_39">
    <path clip-path="url(#pe939b920d4)" d="M 337.6181 307.584 
L 339.686159 307.584 
L 339.686159 86.291863 
L 337.6181 86.291863 
z
" style="fill:#1f77b4;"/>
   </g>
   <g id="patch_40">
    <path clip-path="url(#pe939b920d4)" d="M 339.686159 307.584 
L 341.700496 307.584 
L 341.700496 92.870301 
L 339.686159 92.870301 
z
" style="fill:#1f77b4;"/>
   </g>
   <g id="patch_41">
    <path clip-path="url(#pe939b920d4)" d="M 341.700496 307.584 
L 343.663832 307.584 
L 343.663832 99.881158 
L 341.700496 99.881158 
z
" style="fill:#1f77b4;"/>
   </g>
   <g id="patch_42">
    <path clip-path="url(#pe939b920d4)" d="M 343.663832 307.584 
L 345.578685 307.584 
L 345.578685 109.234875 
L 343.663832 109.234875 
z
" style="fill:#1f77b4;"/>
   </g>
   <g id="patch_43">
    <path clip-path="url(#pe939b920d4)" d="M 345.578685 307.584 
L 347.447393 307.584 
L 347.447393 116.578907 
L 345.578685 116.578907 
z
" style="fill:#1f77b4;"/>
   </g>
   <g id="patch_44">
    <path clip-path="url(#pe939b920d4)" d="M 347.447393 307.584 
L 349.272127 307.584 
L 349.272127 126.159467 
L 347.447393 126.159467 
z
" style="fill:#1f77b4;"/>
   </g>
   <g id="patch_45">
    <path clip-path="url(#pe939b920d4)" d="M 349.272127 307.584 
L 351.05491 307.584 
L 351.05491 134.180482 
L 349.272127 134.180482 
z
" style="fill:#1f77b4;"/>
   </g>
   <g id="patch_46">
    <path clip-path="url(#pe939b920d4)" d="M 351.05491 307.584 
L 352.797626 307.584 
L 352.797626 143.410145 
L 351.05491 143.410145 
z
" style="fill:#1f77b4;"/>
   </g>
   <g id="patch_47">
    <path clip-path="url(#pe939b920d4)" d="M 352.797626 307.584 
L 354.502038 307.584 
L 354.502038 151.211407 
L 352.797626 151.211407 
z
" style="fill:#1f77b4;"/>
   </g>
   <g id="patch_48">
    <path clip-path="url(#pe939b920d4)" d="M 354.502038 307.584 
L 356.169794 307.584 
L 356.169794 158.137198 
L 354.502038 158.137198 
z
" style="fill:#1f77b4;"/>
   </g>
   <g id="patch_49">
    <path clip-path="url(#pe939b920d4)" d="M 356.169794 307.584 
L 357.802435 307.584 
L 357.802435 167.82409 
L 356.169794 167.82409 
z
" style="fill:#1f77b4;"/>
   </g>
   <g id="patch_50">
    <path clip-path="url(#pe939b920d4)" d="M 357.802435 307.584 
L 359.401412 307.584 
L 359.401412 173.619211 
L 357.802435 173.619211 
z
" style="fill:#1f77b4;"/>
   </g>
   <g id="patch_51">
    <path clip-path="url(#pe939b920d4)" d="M 359.401412 307.584 
L 360.968084 307.584 
L 360.968084 181.686305 
L 359.401412 181.686305 
z
" style="fill:#1f77b4;"/>
   </g>
   <g id="patch_52">
    <path clip-path="url(#pe939b920d4)" d="M 360.968084 307.584 
L 362.503731 307.584 
L 362.503731 190.118473 
L 360.968084 190.118473 
z
" style="fill:#1f77b4;"/>
   </g>
   <g id="patch_53">
    <path clip-path="url(#pe939b920d4)" d="M 362.503731 307.584 
L 364.009557 307.584 
L 364.009557 196.753622 
L 362.503731 196.753622 
z
" style="fill:#1f77b4;"/>
   </g>
   <g id="patch_54">
    <path clip-path="url(#pe939b920d4)" d="M 364.009557 307.584 
L 365.486699 307.584 
L 365.486699 202.669254 
L 364.009557 202.669254 
z
" style="fill:#1f77b4;"/>
   </g>
   <g id="patch_55">
    <path clip-path="url(#pe939b920d4)" d="M 365.486699 307.584 
L 366.93623 307.584 
L 366.93623 209.19807 
L 365.486699 209.19807 
z
" style="fill:#1f77b4;"/>
   </g>
   <g id="patch_56">
    <path clip-path="url(#pe939b920d4)" d="M 366.93623 307.584 
L 368.359162 307.584 
L 368.359162 215.212946 
L 366.93623 215.212946 
z
" style="fill:#1f77b4;"/>
   </g>
   <g id="patch_57">
    <path clip-path="url(#pe939b920d4)" d="M 368.359162 307.584 
L 369.756454 307.584 
L 369.756454 222.163548 
L 368.359162 222.163548 
z
" style="fill:#1f77b4;"/>
   </g>
   <g id="patch_58">
    <path clip-path="url(#pe939b920d4)" d="M 369.756454 307.584 
L 371.129014 307.584 
L 371.129014 227.402196 
L 369.756454 227.402196 
z
" style="fill:#1f77b4;"/>
   </g>
   <g id="patch_59">
    <path clip-path="url(#pe939b920d4)" d="M 371.129014 307.584 
L 372.477703 307.584 
L 372.477703 232.740089 
L 371.129014 232.740089 
z
" style="fill:#1f77b4;"/>
   </g>
   <g id="patch_60">
    <path clip-path="url(#pe939b920d4)" d="M 372.477703 307.584 
L 373.803335 307.584 
L 373.803335 237.631384 
L 372.477703 237.631384 
z
" style="fill:#1f77b4;"/>
   </g>
   <g id="patch_61">
    <path clip-path="url(#pe939b920d4)" d="M 373.803335 307.584 
L 375.106687 307.584 
L 375.106687 241.218334 
L 373.803335 241.218334 
z
" style="fill:#1f77b4;"/>
   </g>
   <g id="patch_62">
    <path clip-path="url(#pe939b920d4)" d="M 375.106687 307.584 
L 376.388495 307.584 
L 376.388495 246.939023 
L 375.106687 246.939023 
z
" style="fill:#1f77b4;"/>
   </g>
   <g id="patch_63">
    <path clip-path="url(#pe939b920d4)" d="M 376.388495 307.584 
L 377.64946 307.584 
L 377.64946 251.869308 
L 376.388495 251.869308 
z
" style="fill:#1f77b4;"/>
   </g>
   <g id="patch_64">
    <path clip-path="url(#pe939b920d4)" d="M 377.64946 307.584 
L 378.890249 307.584 
L 378.890249 255.335748 
L 377.64946 255.335748 
z
" style="fill:#1f77b4;"/>
   </g>
   <g id="patch_65">
    <path clip-path="url(#pe939b920d4)" d="M 378.890249 307.584 
L 380.111496 307.584 
L 380.111496 259.60677 
L 378.890249 259.60677 
z
" style="fill:#1f77b4;"/>
   </g>
   <g id="patch_66">
    <path clip-path="url(#pe939b920d4)" d="M 380.111496 307.584 
L 381.313809 307.584 
L 381.313809 262.995233 
L 380.111496 262.995233 
z
" style="fill:#1f77b4;"/>
   </g>
   <g id="patch_67">
    <path clip-path="url(#pe939b920d4)" d="M 381.313809 307.584 
L 382.497765 307.584 
L 382.497765 266.81257 
L 381.313809 266.81257 
z
" style="fill:#1f77b4;"/>
   </g>
   <g id="patch_68">
    <path clip-path="url(#pe939b920d4)" d="M 382.497765 307.584 
L 383.663917 307.584 
L 383.663917 269.325562 
L 382.497765 269.325562 
z
" style="fill:#1f77b4;"/>
   </g>
   <g id="patch_69">
    <path clip-path="url(#pe939b920d4)" d="M 383.663917 307.584 
L 384.812791 307.584 
L 384.812791 272.898334 
L 383.663917 272.898334 
z
" style="fill:#1f77b4;"/>
   </g>
   <g id="patch_70">
    <path clip-path="url(#pe939b920d4)" d="M 384.812791 307.584 
L 385.944894 307.584 
L 385.944894 275.262461 
L 384.812791 275.262461 
z
" style="fill:#1f77b4;"/>
   </g>
   <g id="patch_71">
    <path clip-path="url(#pe939b920d4)" d="M 385.944894 307.584 
L 387.060706 307.584 
L 387.060706 277.474177 
L 385.944894 277.474177 
z
" style="fill:#1f77b4;"/>
   </g>
   <g id="patch_72">
    <path clip-path="url(#pe939b920d4)" d="M 387.060706 307.584 
L 388.160691 307.584 
L 388.160691 280.288444 
L 387.060706 280.288444 
z
" style="fill:#1f77b4;"/>
   </g>
   <g id="patch_73">
    <path clip-path="url(#pe939b920d4)" d="M 388.160691 307.584 
L 389.245291 307.584 
L 389.245291 282.673837 
L 388.160691 282.673837 
z
" style="fill:#1f77b4;"/>
   </g>
   <g id="patch_74">
    <path clip-path="url(#pe939b920d4)" d="M 389.245291 307.584 
L 390.31493 307.584 
L 390.31493 284.431868 
L 389.245291 284.431868 
z
" style="fill:#1f77b4;"/>
   </g>
   <g id="patch_75">
    <path clip-path="url(#pe939b920d4)" d="M 390.31493 307.584 
L 391.370016 307.584 
L 391.370016 286.753461 
L 390.31493 286.753461 
z
" style="fill:#1f77b4;"/>
   </g>
   <g id="patch_76">
    <path clip-path="url(#pe939b920d4)" d="M 391.370016 307.584 
L 392.410939 307.584 
L 392.410939 288.422881 
L 391.370016 288.422881 
z
" style="fill:#1f77b4;"/>
   </g>
   <g id="patch_77">
    <path clip-path="url(#pe939b920d4)" d="M 392.410939 307.584 
L 393.438075 307.584 
L 393.438075 290.106479 
L 392.410939 290.106479 
z
" style="fill:#1f77b4;"/>
   </g>
   <g id="patch_78">
    <path clip-path="url(#pe939b920d4)" d="M 393.438075 307.584 
L 394.451784 307.584 
L 394.451784 291.446269 
L 393.438075 291.446269 
z
" style="fill:#1f77b4;"/>
   </g>
   <g id="patch_79">
    <path clip-path="url(#pe939b920d4)" d="M 394.451784 307.584 
L 395.452412 307.584 
L 395.452412 292.949102 
L 394.451784 292.949102 
z
" style="fill:#1f77b4;"/>
   </g>
   <g id="patch_80">
    <path clip-path="url(#pe939b920d4)" d="M 395.452412 307.584 
L 396.440293 307.584 
L 396.440293 294.150659 
L 395.452412 294.150659 
z
" style="fill:#1f77b4;"/>
   </g>
   <g id="patch_81">
    <path clip-path="url(#pe939b920d4)" d="M 396.440293 307.584 
L 397.415748 307.584 
L 397.415748 295.618048 
L 396.440293 295.618048 
z
" style="fill:#1f77b4;"/>
   </g>
   <g id="patch_82">
    <path clip-path="url(#pe939b920d4)" d="M 397.415748 307.584 
L 398.379085 307.584 
L 398.379085 296.918849 
L 397.415748 296.918849 
z
" style="fill:#1f77b4;"/>
   </g>
   <g id="patch_83">
    <path clip-path="url(#pe939b920d4)" d="M 398.379085 307.584 
L 399.330601 307.584 
L 399.330601 297.656088 
L 398.379085 297.656088 
z
" style="fill:#1f77b4;"/>
   </g>
   <g id="patch_84">
    <path clip-path="url(#pe939b920d4)" d="M 399.330601 307.584 
L 400.270584 307.584 
L 400.270584 298.673335 
L 399.330601 298.673335 
z
" style="fill:#1f77b4;"/>
   </g>
   <g id="patch_85">
    <path clip-path="url(#pe939b920d4)" d="M 400.270584 307.584 
L 401.199309 307.584 
L 401.199309 299.346775 
L 400.270584 299.346775 
z
" style="fill:#1f77b4;"/>
   </g>
   <g id="patch_86">
    <path clip-path="url(#pe939b920d4)" d="M 401.199309 307.584 
L 402.117043 307.584 
L 402.117043 300.080469 
L 401.199309 300.080469 
z
" style="fill:#1f77b4;"/>
   </g>
   <g id="patch_87">
    <path clip-path="url(#pe939b920d4)" d="M 402.117043 307.584 
L 403.024043 307.584 
L 403.024043 300.693653 
L 402.117043 300.693653 
z
" style="fill:#1f77b4;"/>
   </g>
   <g id="patch_88">
    <path clip-path="url(#pe939b920d4)" d="M 403.024043 307.584 
L 403.920558 307.584 
L 403.920558 301.370637 
L 403.024043 301.370637 
z
" style="fill:#1f77b4;"/>
   </g>
   <g id="patch_89">
    <path clip-path="url(#pe939b920d4)" d="M 403.920558 307.584 
L 404.806826 307.584 
L 404.806826 302.040532 
L 403.920558 302.040532 
z
" style="fill:#1f77b4;"/>
   </g>
   <g id="patch_90">
    <path clip-path="url(#pe939b920d4)" d="M 404.806826 307.584 
L 405.68308 307.584 
L 405.68308 302.380796 
L 404.806826 302.380796 
z
" style="fill:#1f77b4;"/>
   </g>
   <g id="patch_91">
    <path clip-path="url(#pe939b920d4)" d="M 405.68308 307.584 
L 406.549542 307.584 
L 406.549542 303.061324 
L 405.68308 303.061324 
z
" style="fill:#1f77b4;"/>
   </g>
   <g id="patch_92">
    <path clip-path="url(#pe939b920d4)" d="M 406.549542 307.584 
L 407.406431 307.584 
L 407.406431 303.589442 
L 406.549542 303.589442 
z
" style="fill:#1f77b4;"/>
   </g>
   <g id="patch_93">
    <path clip-path="url(#pe939b920d4)" d="M 407.406431 307.584 
L 408.253954 307.584 
L 408.253954 303.805651 
L 407.406431 303.805651 
z
" style="fill:#1f77b4;"/>
   </g>
   <g id="patch_94">
    <path clip-path="url(#pe939b920d4)" d="M 408.253954 307.584 
L 409.092315 307.584 
L 409.092315 304.340858 
L 408.253954 304.340858 
z
" style="fill:#1f77b4;"/>
   </g>
   <g id="patch_95">
    <path clip-path="url(#pe939b920d4)" d="M 409.092315 307.584 
L 409.92171 307.584 
L 409.92171 304.535801 
L 409.092315 304.535801 
z
" style="fill:#1f77b4;"/>
   </g>
   <g id="patch_96">
    <path clip-path="url(#pe939b920d4)" d="M 409.92171 307.584 
L 410.742327 307.584 
L 410.742327 304.7591 
L 409.92171 304.7591 
z
" style="fill:#1f77b4;"/>
   </g>
   <g id="patch_97">
    <path clip-path="url(#pe939b920d4)" d="M 410.742327 307.584 
L 411.554351 307.584 
L 411.554351 305.198607 
L 410.742327 305.198607 
z
" style="fill:#1f77b4;"/>
   </g>
   <g id="patch_98">
    <path clip-path="url(#pe939b920d4)" d="M 411.554351 307.584 
L 412.357961 307.584 
L 412.357961 305.262407 
L 411.554351 305.262407 
z
" style="fill:#1f77b4;"/>
   </g>
   <g id="patch_99">
    <path clip-path="url(#pe939b920d4)" d="M 412.357961 307.584 
L 413.153328 307.584 
L 413.153328 305.744448 
L 412.357961 305.744448 
z
" style="fill:#1f77b4;"/>
   </g>
   <g id="patch_100">
    <path clip-path="url(#pe939b920d4)" d="M 413.153328 307.584 
L 413.94062 307.584 
L 413.94062 305.659382 
L 413.153328 305.659382 
z
" style="fill:#1f77b4;"/>
   </g>
   <g id="patch_101">
    <path clip-path="url(#pe939b920d4)" d="M 413.94062 307.584 
L 414.72 307.584 
L 414.72 305.903946 
L 413.94062 305.903946 
z
" style="fill:#1f77b4;"/>
   </g>
   <g id="patch_102">
    <path clip-path="url(#pe939b920d4)" d="M 414.72 307.584 
L 415.491625 307.584 
L 415.491625 306.1556 
L 414.72 306.1556 
z
" style="fill:#1f77b4;"/>
   </g>
   <g id="patch_103">
    <path clip-path="url(#pe939b920d4)" d="M 415.491625 307.584 
L 416.255647 307.584 
L 416.255647 306.290288 
L 415.491625 306.290288 
z
" style="fill:#1f77b4;"/>
   </g>
   <g id="patch_104">
    <path clip-path="url(#pe939b920d4)" d="M 416.255647 307.584 
L 417.012215 307.584 
L 417.012215 306.435609 
L 416.255647 306.435609 
z
" style="fill:#1f77b4;"/>
   </g>
   <g id="patch_105">
    <path clip-path="url(#pe939b920d4)" d="M 417.012215 307.584 
L 417.761473 307.584 
L 417.761473 306.545486 
L 417.012215 306.545486 
z
" style="fill:#1f77b4;"/>
   </g>
   <g id="patch_106">
    <path clip-path="url(#pe939b920d4)" d="M 417.761473 307.584 
L 418.503561 307.584 
L 418.503561 306.630552 
L 417.761473 306.630552 
z
" style="fill:#1f77b4;"/>
   </g>
   <g id="patch_107">
    <path clip-path="url(#pe939b920d4)" d="M 418.503561 307.584 
L 419.238615 307.584 
L 419.238615 306.644729 
L 418.503561 306.644729 
z
" style="fill:#1f77b4;"/>
   </g>
   <g id="patch_108">
    <path clip-path="url(#pe939b920d4)" d="M 419.238615 307.584 
L 419.966767 307.584 
L 419.966767 306.832584 
L 419.238615 306.832584 
z
" style="fill:#1f77b4;"/>
   </g>
   <g id="patch_109">
    <path clip-path="url(#pe939b920d4)" d="M 419.966767 307.584 
L 420.688146 307.584 
L 420.688146 306.984994 
L 419.966767 306.984994 
z
" style="fill:#1f77b4;"/>
   </g>
   <g id="patch_110">
    <path clip-path="url(#pe939b920d4)" d="M 420.688146 307.584 
L 421.402875 307.584 
L 421.402875 307.013349 
L 420.688146 307.013349 
z
" style="fill:#1f77b4;"/>
   </g>
   <g id="patch_111">
    <path clip-path="url(#pe939b920d4)" d="M 421.402875 307.584 
L 422.111078 307.584 
L 422.111078 307.062971 
L 421.402875 307.062971 
z
" style="fill:#1f77b4;"/>
   </g>
   <g id="patch_112">
    <path clip-path="url(#pe939b920d4)" d="M 422.111078 307.584 
L 422.812871 307.584 
L 422.812871 307.112593 
L 422.111078 307.112593 
z
" style="fill:#1f77b4;"/>
   </g>
   <g id="patch_113">
    <path clip-path="url(#pe939b920d4)" d="M 422.812871 307.584 
L 423.50837 307.584 
L 423.50837 307.172848 
L 422.812871 307.172848 
z
" style="fill:#1f77b4;"/>
   </g>
   <g id="patch_114">
    <path clip-path="url(#pe939b920d4)" d="M 423.50837 307.584 
L 424.197687 307.584 
L 424.197687 307.194114 
L 423.50837 307.194114 
z
" style="fill:#1f77b4;"/>
   </g>
   <g id="patch_115">
    <path clip-path="url(#pe939b920d4)" d="M 424.197687 307.584 
L 424.88093 307.584 
L 424.88093 307.275636 
L 424.197687 307.275636 
z
" style="fill:#1f77b4;"/>
   </g>
   <g id="patch_116">
    <path clip-path="url(#pe939b920d4)" d="M 424.88093 307.584 
L 425.558206 307.584 
L 425.558206 307.296902 
L 424.88093 307.296902 
z
" style="fill:#1f77b4;"/>
   </g>
   <g id="patch_117">
    <path clip-path="url(#pe939b920d4)" d="M 425.558206 307.584 
L 426.229619 307.584 
L 426.229619 307.293358 
L 425.558206 307.293358 
z
" style="fill:#1f77b4;"/>
   </g>
   <g id="patch_118">
    <path clip-path="url(#pe939b920d4)" d="M 426.229619 307.584 
L 426.895267 307.584 
L 426.895267 307.353613 
L 426.229619 307.353613 
z
" style="fill:#1f77b4;"/>
   </g>
   <g id="patch_119">
    <path clip-path="url(#pe939b920d4)" d="M 426.895267 307.584 
L 427.555251 307.584 
L 427.555251 307.364246 
L 426.895267 307.364246 
z
" style="fill:#1f77b4;"/>
   </g>
   <g id="patch_120">
    <path clip-path="url(#pe939b920d4)" d="M 427.555251 307.584 
L 428.209665 307.584 
L 428.209665 307.378424 
L 427.555251 307.378424 
z
" style="fill:#1f77b4;"/>
   </g>
   <g id="patch_121">
    <path clip-path="url(#pe939b920d4)" d="M 428.209665 307.584 
L 428.858603 307.584 
L 428.858603 307.424501 
L 428.209665 307.424501 
z
" style="fill:#1f77b4;"/>
   </g>
   <g id="patch_122">
    <path clip-path="url(#pe939b920d4)" d="M 428.858603 307.584 
L 429.502156 307.584 
L 429.502156 307.449312 
L 428.858603 307.449312 
z
" style="fill:#1f77b4;"/>
   </g>
   <g id="patch_123">
    <path clip-path="url(#pe939b920d4)" d="M 429.502156 307.584 
L 430.140411 307.584 
L 430.140411 307.456401 
L 429.502156 307.456401 
z
" style="fill:#1f77b4;"/>
   </g>
   <g id="patch_124">
    <path clip-path="url(#pe939b920d4)" d="M 430.140411 307.584 
L 430.773457 307.584 
L 430.773457 307.477667 
L 430.140411 307.477667 
z
" style="fill:#1f77b4;"/>
   </g>
   <g id="patch_125">
    <path clip-path="url(#pe939b920d4)" d="M 430.773457 307.584 
L 431.401376 307.584 
L 431.401376 307.456401 
L 430.773457 307.456401 
z
" style="fill:#1f77b4;"/>
   </g>
   <g id="patch_126">
    <path clip-path="url(#pe939b920d4)" d="M 431.401376 307.584 
L 432.024252 307.584 
L 432.024252 307.523745 
L 431.401376 307.523745 
z
" style="fill:#1f77b4;"/>
   </g>
   <g id="patch_127">
    <path clip-path="url(#pe939b920d4)" d="M 432.024252 307.584 
L 432.642165 307.584 
L 432.642165 307.502478 
L 432.024252 307.502478 
z
" style="fill:#1f77b4;"/>
   </g>
   <g id="patch_128">
    <path clip-path="url(#pe939b920d4)" d="M 432.642165 307.584 
L 433.255192 307.584 
L 433.255192 307.516656 
L 432.642165 307.516656 
z
" style="fill:#1f77b4;"/>
   </g>
   <g id="patch_129">
    <path clip-path="url(#pe939b920d4)" d="M 433.255192 307.584 
L 433.863412 307.584 
L 433.863412 307.523745 
L 433.255192 307.523745 
z
" style="fill:#1f77b4;"/>
   </g>
   <g id="patch_130">
    <path clip-path="url(#pe939b920d4)" d="M 433.863412 307.584 
L 434.466899 307.584 
L 434.466899 307.534378 
L 433.863412 307.534378 
z
" style="fill:#1f77b4;"/>
   </g>
   <g id="patch_131">
    <path clip-path="url(#pe939b920d4)" d="M 434.466899 307.584 
L 435.065725 307.584 
L 435.065725 307.5202 
L 434.466899 307.5202 
z
" style="fill:#1f77b4;"/>
   </g>
   <g id="patch_132">
    <path clip-path="url(#pe939b920d4)" d="M 435.065725 307.584 
L 435.659963 307.584 
L 435.659963 307.530834 
L 435.065725 307.530834 
z
" style="fill:#1f77b4;"/>
   </g>
   <g id="patch_133">
    <path clip-path="url(#pe939b920d4)" d="M 435.659963 307.584 
L 436.249681 307.584 
L 436.249681 307.562733 
L 435.659963 307.562733 
z
" style="fill:#1f77b4;"/>
   </g>
   <g id="patch_134">
    <path clip-path="url(#pe939b920d4)" d="M 436.249681 307.584 
L 436.834949 307.584 
L 436.834949 307.559189 
L 436.249681 307.559189 
z
" style="fill:#1f77b4;"/>
   </g>
   <g id="patch_135">
    <path clip-path="url(#pe939b920d4)" d="M 436.834949 307.584 
L 437.415833 307.584 
L 437.415833 307.548556 
L 436.834949 307.548556 
z
" style="fill:#1f77b4;"/>
   </g>
   <g id="patch_136">
    <path clip-path="url(#pe939b920d4)" d="M 437.415833 307.584 
L 437.992398 307.584 
L 437.992398 307.566278 
L 437.415833 307.566278 
z
" style="fill:#1f77b4;"/>
   </g>
   <g id="patch_137">
    <path clip-path="url(#pe939b920d4)" d="M 437.992398 307.584 
L 438.564707 307.584 
L 438.564707 307.562733 
L 437.992398 307.562733 
z
" style="fill:#1f77b4;"/>
   </g>
   <g id="patch_138">
    <path clip-path="url(#pe939b920d4)" d="M 438.564707 307.584 
L 439.132824 307.584 
L 439.132824 307.559189 
L 438.564707 307.559189 
z
" style="fill:#1f77b4;"/>
   </g>
   <g id="patch_139">
    <path clip-path="url(#pe939b920d4)" d="M 439.132824 307.584 
L 439.69681 307.584 
L 439.69681 307.580456 
L 439.132824 307.580456 
z
" style="fill:#1f77b4;"/>
   </g>
   <g id="patch_140">
    <path clip-path="url(#pe939b920d4)" d="M 439.69681 307.584 
L 440.256723 307.584 
L 440.256723 307.562733 
L 439.69681 307.562733 
z
" style="fill:#1f77b4;"/>
   </g>
   <g id="patch_141">
    <path clip-path="url(#pe939b920d4)" d="M 440.256723 307.584 
L 440.812622 307.584 
L 440.812622 307.573367 
L 440.256723 307.573367 
z
" style="fill:#1f77b4;"/>
   </g>
   <g id="patch_142">
    <path clip-path="url(#pe939b920d4)" d="M 440.812622 307.584 
L 441.364565 307.584 
L 441.364565 307.566278 
L 440.812622 307.566278 
z
" style="fill:#1f77b4;"/>
   </g>
   <g id="patch_143">
    <path clip-path="url(#pe939b920d4)" d="M 441.364565 307.584 
L 441.912607 307.584 
L 441.912607 307.580456 
L 441.364565 307.580456 
z
" style="fill:#1f77b4;"/>
   </g>
   <g id="patch_144">
    <path clip-path="url(#pe939b920d4)" d="M 441.912607 307.584 
L 442.456803 307.584 
L 442.456803 307.580456 
L 441.912607 307.580456 
z
" style="fill:#1f77b4;"/>
   </g>
   <g id="patch_145">
    <path clip-path="url(#pe939b920d4)" d="M 442.456803 307.584 
L 442.997207 307.584 
L 442.997207 307.584 
L 442.456803 307.584 
z
" style="fill:#1f77b4;"/>
   </g>
   <g id="patch_146">
    <path clip-path="url(#pe939b920d4)" d="M 442.997207 307.584 
L 443.53387 307.584 
L 443.53387 307.584 
L 442.997207 307.584 
z
" style="fill:#1f77b4;"/>
   </g>
   <g id="patch_147">
    <path clip-path="url(#pe939b920d4)" d="M 443.53387 307.584 
L 444.066846 307.584 
L 444.066846 307.584 
L 443.53387 307.584 
z
" style="fill:#1f77b4;"/>
   </g>
   <g id="patch_148">
    <path clip-path="url(#pe939b920d4)" d="M 444.066846 307.584 
L 444.596183 307.584 
L 444.596183 307.584 
L 444.066846 307.584 
z
" style="fill:#1f77b4;"/>
   </g>
   <g id="patch_149">
    <path clip-path="url(#pe939b920d4)" d="M 444.596183 307.584 
L 445.121932 307.584 
L 445.121932 307.580456 
L 444.596183 307.580456 
z
" style="fill:#1f77b4;"/>
   </g>
   <g id="patch_150">
    <path clip-path="url(#pe939b920d4)" d="M 445.121932 307.584 
L 445.64414 307.584 
L 445.64414 307.584 
L 445.121932 307.584 
z
" style="fill:#1f77b4;"/>
   </g>
   <g id="patch_151">
    <path clip-path="url(#pe939b920d4)" d="M 445.64414 307.584 
L 446.162855 307.584 
L 446.162855 307.584 
L 445.64414 307.584 
z
" style="fill:#1f77b4;"/>
   </g>
   <g id="patch_152">
    <path clip-path="url(#pe939b920d4)" d="M 446.162855 307.584 
L 446.678124 307.584 
L 446.678124 307.584 
L 446.162855 307.584 
z
" style="fill:#1f77b4;"/>
   </g>
   <g id="patch_153">
    <path clip-path="url(#pe939b920d4)" d="M 446.678124 307.584 
L 447.189991 307.584 
L 447.189991 307.584 
L 446.678124 307.584 
z
" style="fill:#1f77b4;"/>
   </g>
   <g id="patch_154">
    <path clip-path="url(#pe939b920d4)" d="M 447.189991 307.584 
L 447.698502 307.584 
L 447.698502 307.584 
L 447.189991 307.584 
z
" style="fill:#1f77b4;"/>
   </g>
   <g id="patch_155">
    <path clip-path="url(#pe939b920d4)" d="M 447.698502 307.584 
L 448.2037 307.584 
L 448.2037 307.576911 
L 447.698502 307.576911 
z
" style="fill:#1f77b4;"/>
   </g>
   <g id="patch_156">
    <path clip-path="url(#pe939b920d4)" d="M 448.2037 307.584 
L 448.705628 307.584 
L 448.705628 307.569822 
L 448.2037 307.569822 
z
" style="fill:#1f77b4;"/>
   </g>
   <g id="matplotlib.axis_1">
    <g id="xtick_1">
     <g id="line2d_1">
      <defs>
       <path d="M 0 0 
L 0 3.5 
" id="me9ea18effc" style="stroke:#000000;stroke-width:0.8;"/>
      </defs>
      <g>
       <use style="stroke:#000000;stroke-width:0.8;" x="57.6" xlink:href="#me9ea18effc" y="307.584"/>
      </g>
     </g>
     <g id="text_1">
      <!-- $\mathdefault{10^{0}}$ -->
      <g transform="translate(48.8 322.182437)scale(0.1 -0.1)">
       <defs>
        <path d="M 794 531 
L 1825 531 
L 1825 4091 
L 703 3866 
L 703 4441 
L 1819 4666 
L 2450 4666 
L 2450 531 
L 3481 531 
L 3481 0 
L 794 0 
L 794 531 
z
" id="DejaVuSans-31" transform="scale(0.015625)"/>
        <path d="M 2034 4250 
Q 1547 4250 1301 3770 
Q 1056 3291 1056 2328 
Q 1056 1369 1301 889 
Q 1547 409 2034 409 
Q 2525 409 2770 889 
Q 3016 1369 3016 2328 
Q 3016 3291 2770 3770 
Q 2525 4250 2034 4250 
z
M 2034 4750 
Q 2819 4750 3233 4129 
Q 3647 3509 3647 2328 
Q 3647 1150 3233 529 
Q 2819 -91 2034 -91 
Q 1250 -91 836 529 
Q 422 1150 422 2328 
Q 422 3509 836 4129 
Q 1250 4750 2034 4750 
z
" id="DejaVuSans-30" transform="scale(0.015625)"/>
       </defs>
       <use transform="translate(0 0.765625)" xlink:href="#DejaVuSans-31"/>
       <use transform="translate(63.623047 0.765625)" xlink:href="#DejaVuSans-30"/>
       <use transform="translate(128.203125 39.046875)scale(0.7)" xlink:href="#DejaVuSans-30"/>
      </g>
     </g>
    </g>
    <g id="xtick_2">
     <g id="line2d_2">
      <g>
       <use style="stroke:#000000;stroke-width:0.8;" x="236.16" xlink:href="#me9ea18effc" y="307.584"/>
      </g>
     </g>
     <g id="text_2">
      <!-- $\mathdefault{10^{1}}$ -->
      <g transform="translate(227.36 322.182437)scale(0.1 -0.1)">
       <use transform="translate(0 0.684375)" xlink:href="#DejaVuSans-31"/>
       <use transform="translate(63.623047 0.684375)" xlink:href="#DejaVuSans-30"/>
       <use transform="translate(128.203125 38.965625)scale(0.7)" xlink:href="#DejaVuSans-31"/>
      </g>
     </g>
    </g>
    <g id="xtick_3">
     <g id="line2d_3">
      <g>
       <use style="stroke:#000000;stroke-width:0.8;" x="414.72" xlink:href="#me9ea18effc" y="307.584"/>
      </g>
     </g>
     <g id="text_3">
      <!-- $\mathdefault{10^{2}}$ -->
      <g transform="translate(405.92 322.182437)scale(0.1 -0.1)">
       <defs>
        <path d="M 1228 531 
L 3431 531 
L 3431 0 
L 469 0 
L 469 531 
Q 828 903 1448 1529 
Q 2069 2156 2228 2338 
Q 2531 2678 2651 2914 
Q 2772 3150 2772 3378 
Q 2772 3750 2511 3984 
Q 2250 4219 1831 4219 
Q 1534 4219 1204 4116 
Q 875 4013 500 3803 
L 500 4441 
Q 881 4594 1212 4672 
Q 1544 4750 1819 4750 
Q 2544 4750 2975 4387 
Q 3406 4025 3406 3419 
Q 3406 3131 3298 2873 
Q 3191 2616 2906 2266 
Q 2828 2175 2409 1742 
Q 1991 1309 1228 531 
z
" id="DejaVuSans-32" transform="scale(0.015625)"/>
       </defs>
       <use transform="translate(0 0.765625)" xlink:href="#DejaVuSans-31"/>
       <use transform="translate(63.623047 0.765625)" xlink:href="#DejaVuSans-30"/>
       <use transform="translate(128.203125 39.046875)scale(0.7)" xlink:href="#DejaVuSans-32"/>
      </g>
     </g>
    </g>
    <g id="xtick_4">
     <g id="line2d_4">
      <defs>
       <path d="M 0 0 
L 0 2 
" id="maaa9647e41" style="stroke:#000000;stroke-width:0.6;"/>
      </defs>
      <g>
       <use style="stroke:#000000;stroke-width:0.6;" x="111.351916" xlink:href="#maaa9647e41" y="307.584"/>
      </g>
     </g>
    </g>
    <g id="xtick_5">
     <g id="line2d_5">
      <g>
       <use style="stroke:#000000;stroke-width:0.6;" x="142.794771" xlink:href="#maaa9647e41" y="307.584"/>
      </g>
     </g>
    </g>
    <g id="xtick_6">
     <g id="line2d_6">
      <g>
       <use style="stroke:#000000;stroke-width:0.6;" x="165.103832" xlink:href="#maaa9647e41" y="307.584"/>
      </g>
     </g>
    </g>
    <g id="xtick_7">
     <g id="line2d_7">
      <g>
       <use style="stroke:#000000;stroke-width:0.6;" x="182.408084" xlink:href="#maaa9647e41" y="307.584"/>
      </g>
     </g>
    </g>
    <g id="xtick_8">
     <g id="line2d_8">
      <g>
       <use style="stroke:#000000;stroke-width:0.6;" x="196.546687" xlink:href="#maaa9647e41" y="307.584"/>
      </g>
     </g>
    </g>
    <g id="xtick_9">
     <g id="line2d_9">
      <g>
       <use style="stroke:#000000;stroke-width:0.6;" x="208.500706" xlink:href="#maaa9647e41" y="307.584"/>
      </g>
     </g>
    </g>
    <g id="xtick_10">
     <g id="line2d_10">
      <g>
       <use style="stroke:#000000;stroke-width:0.6;" x="218.855748" xlink:href="#maaa9647e41" y="307.584"/>
      </g>
     </g>
    </g>
    <g id="xtick_11">
     <g id="line2d_11">
      <g>
       <use style="stroke:#000000;stroke-width:0.6;" x="227.989542" xlink:href="#maaa9647e41" y="307.584"/>
      </g>
     </g>
    </g>
    <g id="xtick_12">
     <g id="line2d_12">
      <g>
       <use style="stroke:#000000;stroke-width:0.6;" x="289.911916" xlink:href="#maaa9647e41" y="307.584"/>
      </g>
     </g>
    </g>
    <g id="xtick_13">
     <g id="line2d_13">
      <g>
       <use style="stroke:#000000;stroke-width:0.6;" x="321.354771" xlink:href="#maaa9647e41" y="307.584"/>
      </g>
     </g>
    </g>
    <g id="xtick_14">
     <g id="line2d_14">
      <g>
       <use style="stroke:#000000;stroke-width:0.6;" x="343.663832" xlink:href="#maaa9647e41" y="307.584"/>
      </g>
     </g>
    </g>
    <g id="xtick_15">
     <g id="line2d_15">
      <g>
       <use style="stroke:#000000;stroke-width:0.6;" x="360.968084" xlink:href="#maaa9647e41" y="307.584"/>
      </g>
     </g>
    </g>
    <g id="xtick_16">
     <g id="line2d_16">
      <g>
       <use style="stroke:#000000;stroke-width:0.6;" x="375.106687" xlink:href="#maaa9647e41" y="307.584"/>
      </g>
     </g>
    </g>
    <g id="xtick_17">
     <g id="line2d_17">
      <g>
       <use style="stroke:#000000;stroke-width:0.6;" x="387.060706" xlink:href="#maaa9647e41" y="307.584"/>
      </g>
     </g>
    </g>
    <g id="xtick_18">
     <g id="line2d_18">
      <g>
       <use style="stroke:#000000;stroke-width:0.6;" x="397.415748" xlink:href="#maaa9647e41" y="307.584"/>
      </g>
     </g>
    </g>
    <g id="xtick_19">
     <g id="line2d_19">
      <g>
       <use style="stroke:#000000;stroke-width:0.6;" x="406.549542" xlink:href="#maaa9647e41" y="307.584"/>
      </g>
     </g>
    </g>
   </g>
   <g id="matplotlib.axis_2">
    <g id="ytick_1">
     <g id="line2d_20">
      <defs>
       <path d="M 0 0 
L -3.5 0 
" id="m308612c385" style="stroke:#000000;stroke-width:0.8;"/>
      </defs>
      <g>
       <use style="stroke:#000000;stroke-width:0.8;" x="57.6" xlink:href="#m308612c385" y="307.584"/>
      </g>
     </g>
     <g id="text_4">
      <!-- 0.000 -->
      <g transform="translate(21.971875 311.383219)scale(0.1 -0.1)">
       <defs>
        <path d="M 684 794 
L 1344 794 
L 1344 0 
L 684 0 
L 684 794 
z
" id="DejaVuSans-2e" transform="scale(0.015625)"/>
       </defs>
       <use xlink:href="#DejaVuSans-30"/>
       <use x="63.623047" xlink:href="#DejaVuSans-2e"/>
       <use x="95.410156" xlink:href="#DejaVuSans-30"/>
       <use x="159.033203" xlink:href="#DejaVuSans-30"/>
       <use x="222.65625" xlink:href="#DejaVuSans-30"/>
      </g>
     </g>
    </g>
    <g id="ytick_2">
     <g id="line2d_21">
      <g>
       <use style="stroke:#000000;stroke-width:0.8;" x="57.6" xlink:href="#m308612c385" y="264.218571"/>
      </g>
     </g>
     <g id="text_5">
      <!-- 0.005 -->
      <g transform="translate(21.971875 268.01779)scale(0.1 -0.1)">
       <defs>
        <path d="M 691 4666 
L 3169 4666 
L 3169 4134 
L 1269 4134 
L 1269 2991 
Q 1406 3038 1543 3061 
Q 1681 3084 1819 3084 
Q 2600 3084 3056 2656 
Q 3513 2228 3513 1497 
Q 3513 744 3044 326 
Q 2575 -91 1722 -91 
Q 1428 -91 1123 -41 
Q 819 9 494 109 
L 494 744 
Q 775 591 1075 516 
Q 1375 441 1709 441 
Q 2250 441 2565 725 
Q 2881 1009 2881 1497 
Q 2881 1984 2565 2268 
Q 2250 2553 1709 2553 
Q 1456 2553 1204 2497 
Q 953 2441 691 2322 
L 691 4666 
z
" id="DejaVuSans-35" transform="scale(0.015625)"/>
       </defs>
       <use xlink:href="#DejaVuSans-30"/>
       <use x="63.623047" xlink:href="#DejaVuSans-2e"/>
       <use x="95.410156" xlink:href="#DejaVuSans-30"/>
       <use x="159.033203" xlink:href="#DejaVuSans-30"/>
       <use x="222.65625" xlink:href="#DejaVuSans-35"/>
      </g>
     </g>
    </g>
    <g id="ytick_3">
     <g id="line2d_22">
      <g>
       <use style="stroke:#000000;stroke-width:0.8;" x="57.6" xlink:href="#m308612c385" y="220.853142"/>
      </g>
     </g>
     <g id="text_6">
      <!-- 0.010 -->
      <g transform="translate(21.971875 224.65236)scale(0.1 -0.1)">
       <use xlink:href="#DejaVuSans-30"/>
       <use x="63.623047" xlink:href="#DejaVuSans-2e"/>
       <use x="95.410156" xlink:href="#DejaVuSans-30"/>
       <use x="159.033203" xlink:href="#DejaVuSans-31"/>
       <use x="222.65625" xlink:href="#DejaVuSans-30"/>
      </g>
     </g>
    </g>
    <g id="ytick_4">
     <g id="line2d_23">
      <g>
       <use style="stroke:#000000;stroke-width:0.8;" x="57.6" xlink:href="#m308612c385" y="177.487712"/>
      </g>
     </g>
     <g id="text_7">
      <!-- 0.015 -->
      <g transform="translate(21.971875 181.286931)scale(0.1 -0.1)">
       <use xlink:href="#DejaVuSans-30"/>
       <use x="63.623047" xlink:href="#DejaVuSans-2e"/>
       <use x="95.410156" xlink:href="#DejaVuSans-30"/>
       <use x="159.033203" xlink:href="#DejaVuSans-31"/>
       <use x="222.65625" xlink:href="#DejaVuSans-35"/>
      </g>
     </g>
    </g>
    <g id="ytick_5">
     <g id="line2d_24">
      <g>
       <use style="stroke:#000000;stroke-width:0.8;" x="57.6" xlink:href="#m308612c385" y="134.122283"/>
      </g>
     </g>
     <g id="text_8">
      <!-- 0.020 -->
      <g transform="translate(21.971875 137.921502)scale(0.1 -0.1)">
       <use xlink:href="#DejaVuSans-30"/>
       <use x="63.623047" xlink:href="#DejaVuSans-2e"/>
       <use x="95.410156" xlink:href="#DejaVuSans-30"/>
       <use x="159.033203" xlink:href="#DejaVuSans-32"/>
       <use x="222.65625" xlink:href="#DejaVuSans-30"/>
      </g>
     </g>
    </g>
    <g id="ytick_6">
     <g id="line2d_25">
      <g>
       <use style="stroke:#000000;stroke-width:0.8;" x="57.6" xlink:href="#m308612c385" y="90.756854"/>
      </g>
     </g>
     <g id="text_9">
      <!-- 0.025 -->
      <g transform="translate(21.971875 94.556073)scale(0.1 -0.1)">
       <use xlink:href="#DejaVuSans-30"/>
       <use x="63.623047" xlink:href="#DejaVuSans-2e"/>
       <use x="95.410156" xlink:href="#DejaVuSans-30"/>
       <use x="159.033203" xlink:href="#DejaVuSans-32"/>
       <use x="222.65625" xlink:href="#DejaVuSans-35"/>
      </g>
     </g>
    </g>
    <g id="ytick_7">
     <g id="line2d_26">
      <g>
       <use style="stroke:#000000;stroke-width:0.8;" x="57.6" xlink:href="#m308612c385" y="47.391425"/>
      </g>
     </g>
     <g id="text_10">
      <!-- 0.030 -->
      <g transform="translate(21.971875 51.190643)scale(0.1 -0.1)">
       <defs>
        <path d="M 2597 2516 
Q 3050 2419 3304 2112 
Q 3559 1806 3559 1356 
Q 3559 666 3084 287 
Q 2609 -91 1734 -91 
Q 1441 -91 1130 -33 
Q 819 25 488 141 
L 488 750 
Q 750 597 1062 519 
Q 1375 441 1716 441 
Q 2309 441 2620 675 
Q 2931 909 2931 1356 
Q 2931 1769 2642 2001 
Q 2353 2234 1838 2234 
L 1294 2234 
L 1294 2753 
L 1863 2753 
Q 2328 2753 2575 2939 
Q 2822 3125 2822 3475 
Q 2822 3834 2567 4026 
Q 2313 4219 1838 4219 
Q 1578 4219 1281 4162 
Q 984 4106 628 3988 
L 628 4550 
Q 988 4650 1302 4700 
Q 1616 4750 1894 4750 
Q 2613 4750 3031 4423 
Q 3450 4097 3450 3541 
Q 3450 3153 3228 2886 
Q 3006 2619 2597 2516 
z
" id="DejaVuSans-33" transform="scale(0.015625)"/>
       </defs>
       <use xlink:href="#DejaVuSans-30"/>
       <use x="63.623047" xlink:href="#DejaVuSans-2e"/>
       <use x="95.410156" xlink:href="#DejaVuSans-30"/>
       <use x="159.033203" xlink:href="#DejaVuSans-33"/>
       <use x="222.65625" xlink:href="#DejaVuSans-30"/>
      </g>
     </g>
    </g>
   </g>
   <g id="line2d_27">
    <path clip-path="url(#pe939b920d4)" d="M 57.6 307.495566 
L 111.351916 307.269627 
L 142.794771 306.752289 
L 165.103832 305.761731 
L 182.408084 304.088502 
L 196.546687 301.51456 
L 208.500706 297.833659 
L 218.855748 292.870308 
L 227.989542 286.495275 
L 236.16 278.636462 
L 243.551078 269.284709 
L 250.298603 258.494703 
L 256.505725 246.381574 
L 262.252622 233.114027 
L 267.602855 218.904969 
L 272.607664 204.000598 
L 277.308959 188.66883 
L 281.741459 173.187847 
L 285.934243 157.835351 
L 289.911916 142.878996 
L 293.695477 128.56828 
L 297.302994 115.128072 
L 300.750122 102.753808 
L 304.050519 91.608312 
L 307.216168 81.820136 
L 310.257641 73.48323 
L 313.184314 66.657767 
L 316.004538 61.37191 
L 318.725787 57.624303 
L 321.354771 55.387092 
L 323.897544 54.609295 
L 326.35958 55.220349 
L 328.745849 57.133703 
L 331.060875 60.250329 
L 333.30879 64.462076 
L 335.493375 69.654775 
L 337.6181 75.71107 
L 339.686159 82.512921 
L 341.700496 89.94378 
L 343.663832 97.890427 
L 345.578685 106.244479 
L 347.447393 114.903586 
L 349.272127 123.772336 
L 351.05491 132.762892 
L 352.797626 141.795395 
L 354.502038 150.798157 
L 356.169794 159.707677 
L 357.802435 168.468506 
L 359.401412 177.032989 
L 360.968084 185.360917 
L 362.503731 193.419089 
L 364.009557 201.180841 
L 365.486699 208.62552 
L 366.93623 215.737955 
L 368.359162 222.50791 
L 369.756454 228.929547 
L 371.129014 235.000903 
L 372.477703 240.723386 
L 373.803335 246.1013 
L 375.106687 251.141395 
L 376.388495 255.852456 
L 377.64946 260.244926 
L 378.890249 264.330555 
L 380.111496 268.122096 
L 381.313809 271.633027 
L 382.497765 274.877309 
L 383.663917 277.869172 
L 384.812791 280.622934 
L 385.944894 283.152846 
L 387.060706 285.472957 
L 388.160691 287.59701 
L 389.245291 289.538349 
L 390.31493 291.309857 
L 391.370016 292.923895 
L 392.410939 294.392267 
L 393.438075 295.726191 
L 394.451784 296.936285 
L 395.452412 298.032561 
L 396.440293 299.024421 
L 397.415748 299.920672 
L 398.379085 300.729531 
L 399.330601 301.458645 
L 400.270584 302.115113 
L 401.199309 302.705505 
L 402.117043 303.235889 
L 403.024043 303.711856 
L 403.920558 304.138544 
L 404.806826 304.520668 
L 405.68308 304.862547 
L 406.549542 305.168124 
L 407.406431 305.440999 
L 408.253954 305.684448 
L 409.092315 305.901453 
L 409.92171 306.094717 
L 410.742327 306.266692 
L 411.554351 306.419596 
L 412.357961 306.555434 
L 413.153328 306.676016 
L 413.94062 306.782972 
L 414.72 306.877771 
L 415.491625 306.961732 
L 416.255647 307.036041 
L 417.012215 307.10176 
L 417.761473 307.159843 
L 418.503561 307.211143 
L 419.238615 307.25642 
L 419.966767 307.296357 
L 420.688146 307.331561 
L 421.402875 307.362573 
L 422.111078 307.389877 
L 422.812871 307.4139 
L 423.50837 307.435025 
L 424.197687 307.453591 
L 424.88093 307.469898 
L 425.558206 307.484213 
L 426.229619 307.496774 
L 426.895267 307.507788 
L 427.555251 307.517442 
L 428.209665 307.525898 
L 428.858603 307.533303 
L 429.502156 307.539783 
L 430.140411 307.545451 
L 430.773457 307.550406 
L 431.401376 307.554736 
L 432.024252 307.558519 
" style="fill:none;stroke:#ff7f0e;stroke-linecap:square;stroke-width:1.5;"/>
   </g>
   <g id="patch_157">
    <path d="M 57.6 307.584 
L 57.6 41.472 
" style="fill:none;stroke:#000000;stroke-linecap:square;stroke-linejoin:miter;stroke-width:0.8;"/>
   </g>
   <g id="patch_158">
    <path d="M 414.72 307.584 
L 414.72 41.472 
" style="fill:none;stroke:#000000;stroke-linecap:square;stroke-linejoin:miter;stroke-width:0.8;"/>
   </g>
   <g id="patch_159">
    <path d="M 57.6 307.584 
L 414.72 307.584 
" style="fill:none;stroke:#000000;stroke-linecap:square;stroke-linejoin:miter;stroke-width:0.8;"/>
   </g>
   <g id="patch_160">
    <path d="M 57.6 41.472 
L 414.72 41.472 
" style="fill:none;stroke:#000000;stroke-linecap:square;stroke-linejoin:miter;stroke-width:0.8;"/>
   </g>
  </g>
 </g>
 <defs>
  <clipPath id="pe939b920d4">
   <rect height="266.112" width="357.12" x="57.6" y="41.472"/>
  </clipPath>
 </defs>
</svg>
