<?xml version="1.0" encoding="utf-8"?>
<svg xmlns="http://www.w3.org/2000/svg" xmlns:xlink="http://www.w3.org/1999/xlink" width="600" height="400" viewBox="0 0 2400 1600">
<defs>
  <clipPath id="clip290">
    <rect x="0" y="0" width="2400" height="1600"/>
  </clipPath>
</defs>
<path clip-path="url(#clip290)" d="
M0 1600 L2400 1600 L2400 0 L0 0  Z
  " fill="#ffffff" fill-rule="evenodd" fill-opacity="1"/>
<defs>
  <clipPath id="clip291">
    <rect x="480" y="0" width="1681" height="1600"/>
  </clipPath>
</defs>
<path clip-path="url(#clip290)" d="
M250.028 1423.18 L2352.76 1423.18 L2352.76 47.2441 L250.028 47.2441  Z
  " fill="#ffffff" fill-rule="evenodd" fill-opacity="1"/>
<defs>
  <clipPath id="clip292">
    <rect x="250" y="47" width="2104" height="1377"/>
  </clipPath>
</defs>
<polyline clip-path="url(#clip292)" style="stroke:#000000; stroke-linecap:butt; stroke-linejoin:round; stroke-width:2; stroke-opacity:0.1; fill:none" points="
  309.539,1423.18 309.539,47.2441 
  "/>
<polyline clip-path="url(#clip292)" style="stroke:#000000; stroke-linecap:butt; stroke-linejoin:round; stroke-width:2; stroke-opacity:0.1; fill:none" points="
  731.604,1423.18 731.604,47.2441 
  "/>
<polyline clip-path="url(#clip292)" style="stroke:#000000; stroke-linecap:butt; stroke-linejoin:round; stroke-width:2; stroke-opacity:0.1; fill:none" points="
  1153.67,1423.18 1153.67,47.2441 
  "/>
<polyline clip-path="url(#clip292)" style="stroke:#000000; stroke-linecap:butt; stroke-linejoin:round; stroke-width:2; stroke-opacity:0.1; fill:none" points="
  1575.73,1423.18 1575.73,47.2441 
  "/>
<polyline clip-path="url(#clip292)" style="stroke:#000000; stroke-linecap:butt; stroke-linejoin:round; stroke-width:2; stroke-opacity:0.1; fill:none" points="
  1997.8,1423.18 1997.8,47.2441 
  "/>
<polyline clip-path="url(#clip290)" style="stroke:#000000; stroke-linecap:butt; stroke-linejoin:round; stroke-width:4; stroke-opacity:1; fill:none" points="
  250.028,1423.18 2352.76,1423.18 
  "/>
<polyline clip-path="url(#clip290)" style="stroke:#000000; stroke-linecap:butt; stroke-linejoin:round; stroke-width:4; stroke-opacity:1; fill:none" points="
  309.539,1423.18 309.539,1406.67 
  "/>
<polyline clip-path="url(#clip290)" style="stroke:#000000; stroke-linecap:butt; stroke-linejoin:round; stroke-width:4; stroke-opacity:1; fill:none" points="
  731.604,1423.18 731.604,1406.67 
  "/>
<polyline clip-path="url(#clip290)" style="stroke:#000000; stroke-linecap:butt; stroke-linejoin:round; stroke-width:4; stroke-opacity:1; fill:none" points="
  1153.67,1423.18 1153.67,1406.67 
  "/>
<polyline clip-path="url(#clip290)" style="stroke:#000000; stroke-linecap:butt; stroke-linejoin:round; stroke-width:4; stroke-opacity:1; fill:none" points="
  1575.73,1423.18 1575.73,1406.67 
  "/>
<polyline clip-path="url(#clip290)" style="stroke:#000000; stroke-linecap:butt; stroke-linejoin:round; stroke-width:4; stroke-opacity:1; fill:none" points="
  1997.8,1423.18 1997.8,1406.67 
  "/>
<path clip-path="url(#clip290)" d="M309.539 1452.37 Q305.928 1452.37 304.1 1455.94 Q302.294 1459.48 302.294 1466.61 Q302.294 1473.71 304.1 1477.28 Q305.928 1480.82 309.539 1480.82 Q313.174 1480.82 314.979 1477.28 Q316.808 1473.71 316.808 1466.61 Q316.808 1459.48 314.979 1455.94 Q313.174 1452.37 309.539 1452.37 M309.539 1448.67 Q315.349 1448.67 318.405 1453.27 Q321.484 1457.86 321.484 1466.61 Q321.484 1475.33 318.405 1479.94 Q315.349 1484.52 309.539 1484.52 Q303.729 1484.52 300.65 1479.94 Q297.595 1475.33 297.595 1466.61 Q297.595 1457.86 300.65 1453.27 Q303.729 1448.67 309.539 1448.67 Z" fill="#000000" fill-rule="evenodd" fill-opacity="1" /><path clip-path="url(#clip290)" d="M706.292 1479.92 L713.931 1479.92 L713.931 1453.55 L705.621 1455.22 L705.621 1450.96 L713.884 1449.29 L718.56 1449.29 L718.56 1479.92 L726.199 1479.92 L726.199 1483.85 L706.292 1483.85 L706.292 1479.92 Z" fill="#000000" fill-rule="evenodd" fill-opacity="1" /><path clip-path="url(#clip290)" d="M745.644 1452.37 Q742.032 1452.37 740.204 1455.94 Q738.398 1459.48 738.398 1466.61 Q738.398 1473.71 740.204 1477.28 Q742.032 1480.82 745.644 1480.82 Q749.278 1480.82 751.083 1477.28 Q752.912 1473.71 752.912 1466.61 Q752.912 1459.48 751.083 1455.94 Q749.278 1452.37 745.644 1452.37 M745.644 1448.67 Q751.454 1448.67 754.509 1453.27 Q757.588 1457.86 757.588 1466.61 Q757.588 1475.33 754.509 1479.94 Q751.454 1484.52 745.644 1484.52 Q739.833 1484.52 736.755 1479.94 Q733.699 1475.33 733.699 1466.61 Q733.699 1457.86 736.755 1453.27 Q739.833 1448.67 745.644 1448.67 Z" fill="#000000" fill-rule="evenodd" fill-opacity="1" /><path clip-path="url(#clip290)" d="M1132.44 1479.92 L1148.76 1479.92 L1148.76 1483.85 L1126.82 1483.85 L1126.82 1479.92 Q1129.48 1477.16 1134.06 1472.53 Q1138.67 1467.88 1139.85 1466.54 Q1142.1 1464.01 1142.97 1462.28 Q1143.88 1460.52 1143.88 1458.83 Q1143.88 1456.07 1141.93 1454.34 Q1140.01 1452.6 1136.91 1452.6 Q1134.71 1452.6 1132.26 1453.37 Q1129.83 1454.13 1127.05 1455.68 L1127.05 1450.96 Q1129.87 1449.82 1132.33 1449.25 Q1134.78 1448.67 1136.82 1448.67 Q1142.19 1448.67 1145.38 1451.35 Q1148.58 1454.04 1148.58 1458.53 Q1148.58 1460.66 1147.77 1462.58 Q1146.98 1464.48 1144.87 1467.07 Q1144.29 1467.74 1141.19 1470.96 Q1138.09 1474.15 1132.44 1479.92 Z" fill="#000000" fill-rule="evenodd" fill-opacity="1" /><path clip-path="url(#clip290)" d="M1168.58 1452.37 Q1164.97 1452.37 1163.14 1455.94 Q1161.33 1459.48 1161.33 1466.61 Q1161.33 1473.71 1163.14 1477.28 Q1164.97 1480.82 1168.58 1480.82 Q1172.21 1480.82 1174.02 1477.28 Q1175.85 1473.71 1175.85 1466.61 Q1175.85 1459.48 1174.02 1455.94 Q1172.21 1452.37 1168.58 1452.37 M1168.58 1448.67 Q1174.39 1448.67 1177.44 1453.27 Q1180.52 1457.86 1180.52 1466.61 Q1180.52 1475.33 1177.44 1479.94 Q1174.39 1484.52 1168.58 1484.52 Q1162.77 1484.52 1159.69 1479.94 Q1156.63 1475.33 1156.63 1466.61 Q1156.63 1457.86 1159.69 1453.27 Q1162.77 1448.67 1168.58 1448.67 Z" fill="#000000" fill-rule="evenodd" fill-opacity="1" /><path clip-path="url(#clip290)" d="M1564.58 1465.22 Q1567.93 1465.94 1569.81 1468.2 Q1571.71 1470.47 1571.71 1473.81 Q1571.71 1478.92 1568.19 1481.72 Q1564.67 1484.52 1558.19 1484.52 Q1556.01 1484.52 1553.7 1484.08 Q1551.41 1483.67 1548.95 1482.81 L1548.95 1478.3 Q1550.9 1479.43 1553.21 1480.01 Q1555.53 1480.59 1558.05 1480.59 Q1562.45 1480.59 1564.74 1478.85 Q1567.05 1477.12 1567.05 1473.81 Q1567.05 1470.75 1564.9 1469.04 Q1562.77 1467.3 1558.95 1467.3 L1554.92 1467.3 L1554.92 1463.46 L1559.14 1463.46 Q1562.59 1463.46 1564.41 1462.09 Q1566.24 1460.7 1566.24 1458.11 Q1566.24 1455.45 1564.35 1454.04 Q1562.47 1452.6 1558.95 1452.6 Q1557.03 1452.6 1554.83 1453.02 Q1552.63 1453.44 1549.99 1454.31 L1549.99 1450.15 Q1552.66 1449.41 1554.97 1449.04 Q1557.31 1448.67 1559.37 1448.67 Q1564.69 1448.67 1567.79 1451.1 Q1570.9 1453.5 1570.9 1457.63 Q1570.9 1460.5 1569.25 1462.49 Q1567.61 1464.45 1564.58 1465.22 Z" fill="#000000" fill-rule="evenodd" fill-opacity="1" /><path clip-path="url(#clip290)" d="M1590.57 1452.37 Q1586.96 1452.37 1585.13 1455.94 Q1583.33 1459.48 1583.33 1466.61 Q1583.33 1473.71 1585.13 1477.28 Q1586.96 1480.82 1590.57 1480.82 Q1594.21 1480.82 1596.01 1477.28 Q1597.84 1473.71 1597.84 1466.61 Q1597.84 1459.48 1596.01 1455.94 Q1594.21 1452.37 1590.57 1452.37 M1590.57 1448.67 Q1596.38 1448.67 1599.44 1453.27 Q1602.52 1457.86 1602.52 1466.61 Q1602.52 1475.33 1599.44 1479.94 Q1596.38 1484.52 1590.57 1484.52 Q1584.76 1484.52 1581.68 1479.94 Q1578.63 1475.33 1578.63 1466.61 Q1578.63 1457.86 1581.68 1453.27 Q1584.76 1448.67 1590.57 1448.67 Z" fill="#000000" fill-rule="evenodd" fill-opacity="1" /><path clip-path="url(#clip290)" d="M1985.97 1453.37 L1974.17 1471.81 L1985.97 1471.81 L1985.97 1453.37 M1984.74 1449.29 L1990.62 1449.29 L1990.62 1471.81 L1995.55 1471.81 L1995.55 1475.7 L1990.62 1475.7 L1990.62 1483.85 L1985.97 1483.85 L1985.97 1475.7 L1970.37 1475.7 L1970.37 1471.19 L1984.74 1449.29 Z" fill="#000000" fill-rule="evenodd" fill-opacity="1" /><path clip-path="url(#clip290)" d="M2013.29 1452.37 Q2009.67 1452.37 2007.85 1455.94 Q2006.04 1459.48 2006.04 1466.61 Q2006.04 1473.71 2007.85 1477.28 Q2009.67 1480.82 2013.29 1480.82 Q2016.92 1480.82 2018.73 1477.28 Q2020.55 1473.71 2020.55 1466.61 Q2020.55 1459.48 2018.73 1455.94 Q2016.92 1452.37 2013.29 1452.37 M2013.29 1448.67 Q2019.1 1448.67 2022.15 1453.27 Q2025.23 1457.86 2025.23 1466.61 Q2025.23 1475.33 2022.15 1479.94 Q2019.1 1484.52 2013.29 1484.52 Q2007.48 1484.52 2004.4 1479.94 Q2001.34 1475.33 2001.34 1466.61 Q2001.34 1457.86 2004.4 1453.27 Q2007.48 1448.67 2013.29 1448.67 Z" fill="#000000" fill-rule="evenodd" fill-opacity="1" /><path clip-path="url(#clip290)" d="M1303.35 1539.24 Q1305.55 1535.29 1308.6 1533.41 Q1311.66 1531.54 1315.79 1531.54 Q1321.36 1531.54 1324.39 1535.45 Q1327.41 1539.33 1327.41 1546.53 L1327.41 1568.04 L1321.52 1568.04 L1321.52 1546.72 Q1321.52 1541.59 1319.71 1539.11 Q1317.9 1536.63 1314.17 1536.63 Q1309.62 1536.63 1306.98 1539.65 Q1304.34 1542.68 1304.34 1547.9 L1304.34 1568.04 L1298.45 1568.04 L1298.45 1546.72 Q1298.45 1541.56 1296.63 1539.11 Q1294.82 1536.63 1291.03 1536.63 Q1286.54 1536.63 1283.9 1539.68 Q1281.26 1542.71 1281.26 1547.9 L1281.26 1568.04 L1275.37 1568.04 L1275.37 1532.4 L1281.26 1532.4 L1281.26 1537.93 Q1283.27 1534.66 1286.07 1533.1 Q1288.87 1531.54 1292.72 1531.54 Q1296.6 1531.54 1299.31 1533.51 Q1302.04 1535.48 1303.35 1539.24 Z" fill="#000000" fill-rule="evenodd" fill-opacity="1" /><polyline clip-path="url(#clip292)" style="stroke:#000000; stroke-linecap:butt; stroke-linejoin:round; stroke-width:2; stroke-opacity:0.1; fill:none" points="
  250.028,1384.24 2352.76,1384.24 
  "/>
<polyline clip-path="url(#clip292)" style="stroke:#000000; stroke-linecap:butt; stroke-linejoin:round; stroke-width:2; stroke-opacity:0.1; fill:none" points="
  250.028,1073.1 2352.76,1073.1 
  "/>
<polyline clip-path="url(#clip292)" style="stroke:#000000; stroke-linecap:butt; stroke-linejoin:round; stroke-width:2; stroke-opacity:0.1; fill:none" points="
  250.028,761.959 2352.76,761.959 
  "/>
<polyline clip-path="url(#clip292)" style="stroke:#000000; stroke-linecap:butt; stroke-linejoin:round; stroke-width:2; stroke-opacity:0.1; fill:none" points="
  250.028,450.819 2352.76,450.819 
  "/>
<polyline clip-path="url(#clip292)" style="stroke:#000000; stroke-linecap:butt; stroke-linejoin:round; stroke-width:2; stroke-opacity:0.1; fill:none" points="
  250.028,139.679 2352.76,139.679 
  "/>
<polyline clip-path="url(#clip290)" style="stroke:#000000; stroke-linecap:butt; stroke-linejoin:round; stroke-width:4; stroke-opacity:1; fill:none" points="
  250.028,1423.18 250.028,47.2441 
  "/>
<polyline clip-path="url(#clip290)" style="stroke:#000000; stroke-linecap:butt; stroke-linejoin:round; stroke-width:4; stroke-opacity:1; fill:none" points="
  250.028,1384.24 275.261,1384.24 
  "/>
<polyline clip-path="url(#clip290)" style="stroke:#000000; stroke-linecap:butt; stroke-linejoin:round; stroke-width:4; stroke-opacity:1; fill:none" points="
  250.028,1073.1 275.261,1073.1 
  "/>
<polyline clip-path="url(#clip290)" style="stroke:#000000; stroke-linecap:butt; stroke-linejoin:round; stroke-width:4; stroke-opacity:1; fill:none" points="
  250.028,761.959 275.261,761.959 
  "/>
<polyline clip-path="url(#clip290)" style="stroke:#000000; stroke-linecap:butt; stroke-linejoin:round; stroke-width:4; stroke-opacity:1; fill:none" points="
  250.028,450.819 275.261,450.819 
  "/>
<polyline clip-path="url(#clip290)" style="stroke:#000000; stroke-linecap:butt; stroke-linejoin:round; stroke-width:4; stroke-opacity:1; fill:none" points="
  250.028,139.679 275.261,139.679 
  "/>
<path clip-path="url(#clip290)" d="M126.691 1370.04 Q123.08 1370.04 121.251 1373.6 Q119.445 1377.14 119.445 1384.27 Q119.445 1391.38 121.251 1394.94 Q123.08 1398.49 126.691 1398.49 Q130.325 1398.49 132.13 1394.94 Q133.959 1391.38 133.959 1384.27 Q133.959 1377.14 132.13 1373.6 Q130.325 1370.04 126.691 1370.04 M126.691 1366.33 Q132.501 1366.33 135.556 1370.94 Q138.635 1375.52 138.635 1384.27 Q138.635 1393 135.556 1397.61 Q132.501 1402.19 126.691 1402.19 Q120.88 1402.19 117.802 1397.61 Q114.746 1393 114.746 1384.27 Q114.746 1375.52 117.802 1370.94 Q120.88 1366.33 126.691 1366.33 Z" fill="#000000" fill-rule="evenodd" fill-opacity="1" /><path clip-path="url(#clip290)" d="M146.853 1395.64 L151.737 1395.64 L151.737 1401.52 L146.853 1401.52 L146.853 1395.64 Z" fill="#000000" fill-rule="evenodd" fill-opacity="1" /><path clip-path="url(#clip290)" d="M171.922 1370.04 Q168.311 1370.04 166.482 1373.6 Q164.677 1377.14 164.677 1384.27 Q164.677 1391.38 166.482 1394.94 Q168.311 1398.49 171.922 1398.49 Q175.556 1398.49 177.362 1394.94 Q179.19 1391.38 179.19 1384.27 Q179.19 1377.14 177.362 1373.6 Q175.556 1370.04 171.922 1370.04 M171.922 1366.33 Q177.732 1366.33 180.788 1370.94 Q183.866 1375.52 183.866 1384.27 Q183.866 1393 180.788 1397.61 Q177.732 1402.19 171.922 1402.19 Q166.112 1402.19 163.033 1397.61 Q159.978 1393 159.978 1384.27 Q159.978 1375.52 163.033 1370.94 Q166.112 1366.33 171.922 1366.33 Z" fill="#000000" fill-rule="evenodd" fill-opacity="1" /><path clip-path="url(#clip290)" d="M202.084 1370.04 Q198.473 1370.04 196.644 1373.6 Q194.838 1377.14 194.838 1384.27 Q194.838 1391.38 196.644 1394.94 Q198.473 1398.49 202.084 1398.49 Q205.718 1398.49 207.524 1394.94 Q209.352 1391.38 209.352 1384.27 Q209.352 1377.14 207.524 1373.6 Q205.718 1370.04 202.084 1370.04 M202.084 1366.33 Q207.894 1366.33 210.949 1370.94 Q214.028 1375.52 214.028 1384.27 Q214.028 1393 210.949 1397.61 Q207.894 1402.19 202.084 1402.19 Q196.274 1402.19 193.195 1397.61 Q190.139 1393 190.139 1384.27 Q190.139 1375.52 193.195 1370.94 Q196.274 1366.33 202.084 1366.33 Z" fill="#000000" fill-rule="evenodd" fill-opacity="1" /><path clip-path="url(#clip290)" d="M128.288 1058.9 Q124.677 1058.9 122.848 1062.46 Q121.043 1066 121.043 1073.13 Q121.043 1080.24 122.848 1083.8 Q124.677 1087.35 128.288 1087.35 Q131.922 1087.35 133.728 1083.8 Q135.556 1080.24 135.556 1073.13 Q135.556 1066 133.728 1062.46 Q131.922 1058.9 128.288 1058.9 M128.288 1055.19 Q134.098 1055.19 137.154 1059.8 Q140.232 1064.38 140.232 1073.13 Q140.232 1081.86 137.154 1086.47 Q134.098 1091.05 128.288 1091.05 Q122.478 1091.05 119.399 1086.47 Q116.343 1081.86 116.343 1073.13 Q116.343 1064.38 119.399 1059.8 Q122.478 1055.19 128.288 1055.19 Z" fill="#000000" fill-rule="evenodd" fill-opacity="1" /><path clip-path="url(#clip290)" d="M148.45 1084.5 L153.334 1084.5 L153.334 1090.38 L148.45 1090.38 L148.45 1084.5 Z" fill="#000000" fill-rule="evenodd" fill-opacity="1" /><path clip-path="url(#clip290)" d="M173.519 1058.9 Q169.908 1058.9 168.079 1062.46 Q166.274 1066 166.274 1073.13 Q166.274 1080.24 168.079 1083.8 Q169.908 1087.35 173.519 1087.35 Q177.153 1087.35 178.959 1083.8 Q180.788 1080.24 180.788 1073.13 Q180.788 1066 178.959 1062.46 Q177.153 1058.9 173.519 1058.9 M173.519 1055.19 Q179.329 1055.19 182.385 1059.8 Q185.463 1064.38 185.463 1073.13 Q185.463 1081.86 182.385 1086.47 Q179.329 1091.05 173.519 1091.05 Q167.709 1091.05 164.63 1086.47 Q161.575 1081.86 161.575 1073.13 Q161.575 1064.38 164.63 1059.8 Q167.709 1055.19 173.519 1055.19 Z" fill="#000000" fill-rule="evenodd" fill-opacity="1" /><path clip-path="url(#clip290)" d="M197.709 1086.44 L214.028 1086.44 L214.028 1090.38 L192.084 1090.38 L192.084 1086.44 Q194.746 1083.69 199.329 1079.06 Q203.936 1074.41 205.116 1073.06 Q207.362 1070.54 208.241 1068.8 Q209.144 1067.05 209.144 1065.36 Q209.144 1062.6 207.199 1060.86 Q205.278 1059.13 202.176 1059.13 Q199.977 1059.13 197.524 1059.89 Q195.093 1060.66 192.315 1062.21 L192.315 1057.49 Q195.139 1056.35 197.593 1055.77 Q200.047 1055.19 202.084 1055.19 Q207.454 1055.19 210.649 1057.88 Q213.843 1060.56 213.843 1065.05 Q213.843 1067.18 213.033 1069.11 Q212.246 1071 210.139 1073.6 Q209.561 1074.27 206.459 1077.48 Q203.357 1080.68 197.709 1086.44 Z" fill="#000000" fill-rule="evenodd" fill-opacity="1" /><path clip-path="url(#clip290)" d="M126.205 747.757 Q122.593 747.757 120.765 751.322 Q118.959 754.864 118.959 761.993 Q118.959 769.1 120.765 772.665 Q122.593 776.206 126.205 776.206 Q129.839 776.206 131.644 772.665 Q133.473 769.1 133.473 761.993 Q133.473 754.864 131.644 751.322 Q129.839 747.757 126.205 747.757 M126.205 744.054 Q132.015 744.054 135.07 748.66 Q138.149 753.243 138.149 761.993 Q138.149 770.72 135.07 775.327 Q132.015 779.91 126.205 779.91 Q120.394 779.91 117.316 775.327 Q114.26 770.72 114.26 761.993 Q114.26 753.243 117.316 748.66 Q120.394 744.054 126.205 744.054 Z" fill="#000000" fill-rule="evenodd" fill-opacity="1" /><path clip-path="url(#clip290)" d="M146.366 773.359 L151.251 773.359 L151.251 779.239 L146.366 779.239 L146.366 773.359 Z" fill="#000000" fill-rule="evenodd" fill-opacity="1" /><path clip-path="url(#clip290)" d="M171.436 747.757 Q167.825 747.757 165.996 751.322 Q164.19 754.864 164.19 761.993 Q164.19 769.1 165.996 772.665 Q167.825 776.206 171.436 776.206 Q175.07 776.206 176.876 772.665 Q178.704 769.1 178.704 761.993 Q178.704 754.864 176.876 751.322 Q175.07 747.757 171.436 747.757 M171.436 744.054 Q177.246 744.054 180.301 748.66 Q183.38 753.243 183.38 761.993 Q183.38 770.72 180.301 775.327 Q177.246 779.91 171.436 779.91 Q165.626 779.91 162.547 775.327 Q159.491 770.72 159.491 761.993 Q159.491 753.243 162.547 748.66 Q165.626 744.054 171.436 744.054 Z" fill="#000000" fill-rule="evenodd" fill-opacity="1" /><path clip-path="url(#clip290)" d="M204.445 748.753 L192.639 767.202 L204.445 767.202 L204.445 748.753 M203.218 744.679 L209.098 744.679 L209.098 767.202 L214.028 767.202 L214.028 771.09 L209.098 771.09 L209.098 779.239 L204.445 779.239 L204.445 771.09 L188.843 771.09 L188.843 766.577 L203.218 744.679 Z" fill="#000000" fill-rule="evenodd" fill-opacity="1" /><path clip-path="url(#clip290)" d="M126.529 436.617 Q122.918 436.617 121.089 440.182 Q119.283 443.724 119.283 450.853 Q119.283 457.96 121.089 461.525 Q122.918 465.066 126.529 465.066 Q130.163 465.066 131.968 461.525 Q133.797 457.96 133.797 450.853 Q133.797 443.724 131.968 440.182 Q130.163 436.617 126.529 436.617 M126.529 432.914 Q132.339 432.914 135.394 437.52 Q138.473 442.103 138.473 450.853 Q138.473 459.58 135.394 464.187 Q132.339 468.77 126.529 468.77 Q120.718 468.77 117.64 464.187 Q114.584 459.58 114.584 450.853 Q114.584 442.103 117.64 437.52 Q120.718 432.914 126.529 432.914 Z" fill="#000000" fill-rule="evenodd" fill-opacity="1" /><path clip-path="url(#clip290)" d="M146.691 462.219 L151.575 462.219 L151.575 468.099 L146.691 468.099 L146.691 462.219 Z" fill="#000000" fill-rule="evenodd" fill-opacity="1" /><path clip-path="url(#clip290)" d="M171.76 436.617 Q168.149 436.617 166.32 440.182 Q164.515 443.724 164.515 450.853 Q164.515 457.96 166.32 461.525 Q168.149 465.066 171.76 465.066 Q175.394 465.066 177.2 461.525 Q179.028 457.96 179.028 450.853 Q179.028 443.724 177.2 440.182 Q175.394 436.617 171.76 436.617 M171.76 432.914 Q177.57 432.914 180.626 437.52 Q183.704 442.103 183.704 450.853 Q183.704 459.58 180.626 464.187 Q177.57 468.77 171.76 468.77 Q165.95 468.77 162.871 464.187 Q159.815 459.58 159.815 450.853 Q159.815 442.103 162.871 437.52 Q165.95 432.914 171.76 432.914 Z" fill="#000000" fill-rule="evenodd" fill-opacity="1" /><path clip-path="url(#clip290)" d="M202.5 448.955 Q199.352 448.955 197.5 451.108 Q195.672 453.261 195.672 457.011 Q195.672 460.738 197.5 462.914 Q199.352 465.066 202.5 465.066 Q205.649 465.066 207.477 462.914 Q209.329 460.738 209.329 457.011 Q209.329 453.261 207.477 451.108 Q205.649 448.955 202.5 448.955 M211.783 434.303 L211.783 438.562 Q210.024 437.728 208.218 437.289 Q206.436 436.849 204.676 436.849 Q200.047 436.849 197.593 439.974 Q195.163 443.099 194.815 449.418 Q196.181 447.404 198.241 446.34 Q200.301 445.252 202.778 445.252 Q207.987 445.252 210.996 448.423 Q214.028 451.571 214.028 457.011 Q214.028 462.335 210.88 465.552 Q207.732 468.77 202.5 468.77 Q196.505 468.77 193.334 464.187 Q190.163 459.58 190.163 450.853 Q190.163 442.659 194.051 437.798 Q197.94 432.914 204.491 432.914 Q206.25 432.914 208.033 433.261 Q209.838 433.608 211.783 434.303 Z" fill="#000000" fill-rule="evenodd" fill-opacity="1" /><path clip-path="url(#clip290)" d="M126.783 125.478 Q123.172 125.478 121.343 129.042 Q119.538 132.584 119.538 139.714 Q119.538 146.82 121.343 150.385 Q123.172 153.926 126.783 153.926 Q130.417 153.926 132.223 150.385 Q134.052 146.82 134.052 139.714 Q134.052 132.584 132.223 129.042 Q130.417 125.478 126.783 125.478 M126.783 121.774 Q132.593 121.774 135.649 126.38 Q138.728 130.964 138.728 139.714 Q138.728 148.44 135.649 153.047 Q132.593 157.63 126.783 157.63 Q120.973 157.63 117.894 153.047 Q114.839 148.44 114.839 139.714 Q114.839 130.964 117.894 126.38 Q120.973 121.774 126.783 121.774 Z" fill="#000000" fill-rule="evenodd" fill-opacity="1" /><path clip-path="url(#clip290)" d="M146.945 151.079 L151.829 151.079 L151.829 156.959 L146.945 156.959 L146.945 151.079 Z" fill="#000000" fill-rule="evenodd" fill-opacity="1" /><path clip-path="url(#clip290)" d="M172.014 125.478 Q168.403 125.478 166.575 129.042 Q164.769 132.584 164.769 139.714 Q164.769 146.82 166.575 150.385 Q168.403 153.926 172.014 153.926 Q175.649 153.926 177.454 150.385 Q179.283 146.82 179.283 139.714 Q179.283 132.584 177.454 129.042 Q175.649 125.478 172.014 125.478 M172.014 121.774 Q177.825 121.774 180.88 126.38 Q183.959 130.964 183.959 139.714 Q183.959 148.44 180.88 153.047 Q177.825 157.63 172.014 157.63 Q166.204 157.63 163.126 153.047 Q160.07 148.44 160.07 139.714 Q160.07 130.964 163.126 126.38 Q166.204 121.774 172.014 121.774 Z" fill="#000000" fill-rule="evenodd" fill-opacity="1" /><path clip-path="url(#clip290)" d="M202.176 140.547 Q198.843 140.547 196.922 142.329 Q195.024 144.112 195.024 147.237 Q195.024 150.362 196.922 152.144 Q198.843 153.926 202.176 153.926 Q205.51 153.926 207.431 152.144 Q209.352 150.338 209.352 147.237 Q209.352 144.112 207.431 142.329 Q205.533 140.547 202.176 140.547 M197.5 138.556 Q194.491 137.815 192.801 135.755 Q191.135 133.695 191.135 130.732 Q191.135 126.589 194.075 124.181 Q197.037 121.774 202.176 121.774 Q207.338 121.774 210.278 124.181 Q213.218 126.589 213.218 130.732 Q213.218 133.695 211.528 135.755 Q209.861 137.815 206.875 138.556 Q210.255 139.343 212.13 141.635 Q214.028 143.926 214.028 147.237 Q214.028 152.26 210.949 154.945 Q207.894 157.63 202.176 157.63 Q196.459 157.63 193.38 154.945 Q190.325 152.26 190.325 147.237 Q190.325 143.926 192.223 141.635 Q194.121 139.343 197.5 138.556 M195.787 131.172 Q195.787 133.857 197.454 135.362 Q199.144 136.866 202.176 136.866 Q205.186 136.866 206.875 135.362 Q208.588 133.857 208.588 131.172 Q208.588 128.487 206.875 126.982 Q205.186 125.478 202.176 125.478 Q199.144 125.478 197.454 126.982 Q195.787 128.487 195.787 131.172 Z" fill="#000000" fill-rule="evenodd" fill-opacity="1" /><path clip-path="url(#clip290)" d="M21.7677 799.617 L39.6235 799.617 L39.6235 791.533 Q39.6235 787.045 37.3 784.594 Q34.9765 782.143 30.6797 782.143 Q26.4147 782.143 24.0912 784.594 Q21.7677 787.045 21.7677 791.533 L21.7677 799.617 M16.4842 806.046 L16.4842 791.533 Q16.4842 783.544 20.1126 779.47 Q23.7092 775.364 30.6797 775.364 Q37.7138 775.364 41.3104 779.47 Q44.907 783.544 44.907 791.533 L44.907 799.617 L64.0042 799.617 L64.0042 806.046 L16.4842 806.046 Z" fill="#000000" fill-rule="evenodd" fill-opacity="1" /><path clip-path="url(#clip290)" d="M14.5426 752.925 Q21.8632 757.19 29.0246 759.258 Q36.186 761.327 43.5384 761.327 Q50.8908 761.327 58.1159 759.258 Q65.3091 757.158 72.5979 752.925 L72.5979 758.017 Q65.1182 762.791 57.8931 765.179 Q50.668 767.534 43.5384 767.534 Q36.4406 767.534 29.2474 765.179 Q22.0542 762.823 14.5426 758.017 L14.5426 752.925 Z" fill="#000000" fill-rule="evenodd" fill-opacity="1" /><path clip-path="url(#clip290)" d="M35.1993 713.807 Q31.2526 711.611 29.3747 708.556 Q27.4968 705.5 27.4968 701.362 Q27.4968 695.792 31.4117 692.769 Q35.2948 689.745 42.4881 689.745 L64.0042 689.745 L64.0042 695.633 L42.679 695.633 Q37.5546 695.633 35.072 697.447 Q32.5894 699.262 32.5894 702.986 Q32.5894 707.537 35.6131 710.179 Q38.6368 712.821 43.8567 712.821 L64.0042 712.821 L64.0042 718.709 L42.679 718.709 Q37.5228 718.709 35.072 720.523 Q32.5894 722.337 32.5894 726.125 Q32.5894 730.613 35.6449 733.255 Q38.6686 735.896 43.8567 735.896 L64.0042 735.896 L64.0042 741.785 L28.3562 741.785 L28.3562 735.896 L33.8944 735.896 Q30.616 733.891 29.0564 731.09 Q27.4968 728.289 27.4968 724.438 Q27.4968 720.555 29.4702 717.85 Q31.4436 715.112 35.1993 713.807 Z" fill="#000000" fill-rule="evenodd" fill-opacity="1" /><path clip-path="url(#clip290)" d="M14.5426 678.987 L14.5426 673.894 Q22.0542 669.12 29.2474 666.765 Q36.4406 664.378 43.5384 664.378 Q50.668 664.378 57.8931 666.765 Q65.1182 669.12 72.5979 673.894 L72.5979 678.987 Q65.3091 674.754 58.1159 672.685 Q50.8908 670.584 43.5384 670.584 Q36.186 670.584 29.0246 672.685 Q21.8632 674.754 14.5426 678.987 Z" fill="#000000" fill-rule="evenodd" fill-opacity="1" /><polyline clip-path="url(#clip292)" style="stroke:#009af9; stroke-linecap:butt; stroke-linejoin:round; stroke-width:4; stroke-opacity:1; fill:none" points="
  309.539,1384.24 309.539,1384.22 351.746,1384.22 351.746,1384.05 393.952,1384.05 393.952,1383.14 436.159,1383.14 436.159,1379.95 478.365,1379.95 478.365,1371.56 
  520.572,1371.56 520.572,1352.72 562.778,1352.72 562.778,1318.24 604.985,1318.24 604.985,1263.78 647.191,1263.78 647.191,1185.69 689.398,1185.69 689.398,1081.32 
  731.604,1081.32 731.604,954.115 773.811,954.115 773.811,807.356 816.017,807.356 816.017,651.399 858.224,651.399 858.224,492.603 900.43,492.603 900.43,349.192 
  942.637,349.192 942.637,229.709 984.843,229.709 984.843,151.431 1027.05,151.431 1027.05,118.278 1069.26,118.278 1069.26,136.636 1111.46,136.636 1111.46,206.777 
  1153.67,206.777 1153.67,315.91 1195.88,315.91 1195.88,451.655 1238.08,451.655 1238.08,600.967 1280.29,600.967 1280.29,751.009 1322.5,751.009 1322.5,891.357 
  1364.7,891.357 1364.7,1014.14 1406.91,1014.14 1406.91,1115 1449.11,1115 1449.11,1196.57 1491.32,1196.57 1491.32,1258.03 1533.53,1258.03 1533.53,1301.52 
  1575.73,1301.52 1575.73,1331.71 1617.94,1331.71 1617.94,1351.99 1660.15,1351.99 1660.15,1364.93 1702.35,1364.93 1702.35,1373.22 1744.56,1373.22 1744.56,1378.14 
  1786.77,1378.14 1786.77,1380.9 1828.97,1380.9 1828.97,1382.49 1871.18,1382.49 1871.18,1383.25 1913.39,1383.25 1913.39,1383.78 1955.59,1383.78 1955.59,1384.02 
  1997.8,1384.02 1997.8,1384.13 2040.01,1384.13 2040.01,1384.2 2082.21,1384.2 2082.21,1384.21 2124.42,1384.21 2124.42,1384.22 2166.63,1384.22 2166.63,1384.23 
  2208.83,1384.23 2208.83,1384.23 2251.04,1384.23 2251.04,1384.24 2293.24,1384.24 2293.24,1384.24 
  "/>
<polyline clip-path="url(#clip292)" style="stroke:#e26f46; stroke-linecap:butt; stroke-linejoin:round; stroke-width:12; stroke-opacity:1; fill:none" points="
  309.539,1380.34 313.76,1380.06 317.981,1379.75 322.201,1379.43 326.422,1379.09 330.643,1378.73 334.863,1378.34 339.084,1377.93 343.305,1377.49 347.525,1377.02 
  351.746,1376.53 355.966,1376 360.187,1375.45 364.408,1374.86 368.628,1374.23 372.849,1373.57 377.07,1372.87 381.29,1372.12 385.511,1371.34 389.732,1370.51 
  393.952,1369.63 398.173,1368.7 402.394,1367.72 406.614,1366.69 410.835,1365.6 415.056,1364.45 419.276,1363.23 423.497,1361.96 427.718,1360.61 431.938,1359.2 
  436.159,1357.71 440.379,1356.14 444.6,1354.5 448.821,1352.77 453.041,1350.96 457.262,1349.06 461.483,1347.06 465.703,1344.97 469.924,1342.78 474.145,1340.48 
  478.365,1338.08 482.586,1335.56 486.807,1332.93 491.027,1330.19 495.248,1327.32 499.469,1324.32 503.689,1321.19 507.91,1317.92 512.13,1314.52 516.351,1310.97 
  520.572,1307.28 524.792,1303.43 529.013,1299.43 533.234,1295.26 537.454,1290.94 541.675,1286.44 545.896,1281.77 550.116,1276.92 554.337,1271.9 558.558,1266.68 
  562.778,1261.28 566.999,1255.68 571.22,1249.89 575.44,1243.9 579.661,1237.7 583.882,1231.29 588.102,1224.67 592.323,1217.83 596.543,1210.78 600.764,1203.5 
  604.985,1196 609.205,1188.27 613.426,1180.31 617.647,1172.11 621.867,1163.69 626.088,1155.02 630.309,1146.12 634.529,1136.97 638.75,1127.59 642.971,1117.96 
  647.191,1108.09 651.412,1097.97 655.633,1087.61 659.853,1077.01 664.074,1066.16 668.295,1055.07 672.515,1043.74 676.736,1032.17 680.956,1020.36 685.177,1008.32 
  689.398,996.041 693.618,983.534 697.839,970.8 702.06,957.844 706.28,944.669 710.501,931.28 714.722,917.683 718.942,903.882 723.163,889.884 727.384,875.695 
  731.604,861.322 735.825,846.772 740.046,832.053 744.266,817.172 748.487,802.139 752.708,786.962 756.928,771.651 761.149,756.216 765.369,740.666 769.59,725.012 
  773.811,709.265 778.031,693.437 782.252,677.54 786.473,661.585 790.693,645.585 794.914,629.552 799.135,613.501 803.355,597.444 807.576,581.395 811.797,565.368 
  816.017,549.377 820.238,533.437 824.459,517.562 828.679,501.767 832.9,486.068 837.121,470.48 841.341,455.018 845.562,439.696 849.782,424.532 854.003,409.54 
  858.224,394.736 862.444,380.136 866.665,365.755 870.886,351.608 875.106,337.712 879.327,324.081 883.548,310.73 887.768,297.675 891.989,284.93 896.21,272.51 
  900.43,260.429 904.651,248.701 908.872,237.34 913.092,226.36 917.313,215.773 921.534,205.592 925.754,195.829 929.975,186.497 934.195,177.606 938.416,169.168 
  942.637,161.192 946.857,153.689 951.078,146.668 955.299,140.138 959.519,134.107 963.74,128.582 967.961,123.571 972.181,119.08 976.402,115.114 980.623,111.678 
  984.843,108.778 989.064,106.416 993.285,104.596 997.505,103.319 1001.73,102.588 1005.95,102.404 1010.17,102.767 1014.39,103.675 1018.61,105.129 1022.83,107.126 
  1027.05,109.664 1031.27,112.739 1035.49,116.348 1039.71,120.486 1043.93,125.147 1048.15,130.326 1052.37,136.017 1056.59,142.212 1060.81,148.903 1065.04,156.082 
  1069.26,163.74 1073.48,171.867 1077.7,180.454 1081.92,189.49 1086.14,198.964 1090.36,208.864 1094.58,219.179 1098.8,229.895 1103.02,241.001 1107.24,252.483 
  1111.46,264.327 1115.68,276.52 1119.9,289.048 1124.12,301.896 1128.35,315.049 1132.57,328.493 1136.79,342.212 1141.01,356.192 1145.23,370.416 1149.45,384.871 
  1153.67,399.539 1157.89,414.406 1162.11,429.455 1166.33,444.673 1170.55,460.041 1174.77,475.547 1178.99,491.173 1183.21,506.905 1187.43,522.727 1191.66,538.624 
  1195.88,554.583 1200.1,570.587 1204.32,586.623 1208.54,602.676 1212.76,618.733 1216.98,634.78 1221.2,650.803 1225.42,666.79 1229.64,682.727 1233.86,698.603 
  1238.08,714.406 1242.3,730.124 1246.52,745.745 1250.74,761.259 1254.96,776.655 1259.19,791.923 1263.41,807.054 1267.63,822.038 1271.85,836.867 1276.07,851.532 
  1280.29,866.025 1284.51,880.339 1288.73,894.467 1292.95,908.401 1297.17,922.136 1301.39,935.666 1305.61,948.986 1309.83,962.09 1314.05,974.975 1318.27,987.635 
  1322.5,1000.07 1326.72,1012.27 1330.94,1024.24 1335.16,1035.97 1339.38,1047.46 1343.6,1058.71 1347.82,1069.72 1352.04,1080.49 1356.26,1091.01 1360.48,1101.3 
  1364.7,1111.33 1368.92,1121.12 1373.14,1130.67 1377.36,1139.98 1381.58,1149.05 1385.81,1157.87 1390.03,1166.46 1394.25,1174.81 1398.47,1182.93 1402.69,1190.81 
  1406.91,1198.47 1411.13,1205.9 1415.35,1213.1 1419.57,1220.08 1423.79,1226.85 1428.01,1233.4 1432.23,1239.74 1436.45,1245.87 1440.67,1251.8 1444.89,1257.53 
  1449.11,1263.06 1453.34,1268.4 1457.56,1273.56 1461.78,1278.52 1466,1283.31 1470.22,1287.92 1474.44,1292.37 1478.66,1296.64 1482.88,1300.75 1487.1,1304.7 
  1491.32,1308.5 1495.54,1312.14 1499.76,1315.64 1503.98,1319 1508.2,1322.22 1512.42,1325.31 1516.65,1328.26 1520.87,1331.1 1525.09,1333.8 1529.31,1336.4 
  1533.53,1338.87 1537.75,1341.24 1541.97,1343.5 1546.19,1345.66 1550.41,1347.72 1554.63,1349.69 1558.85,1351.56 1563.07,1353.35 1567.29,1355.04 1571.51,1356.66 
  1575.73,1358.2 1579.95,1359.67 1584.18,1361.06 1588.4,1362.38 1592.62,1363.64 1596.84,1364.83 1601.06,1365.96 1605.28,1367.03 1609.5,1368.05 1613.72,1369.01 
  1617.94,1369.92 1622.16,1370.78 1626.38,1371.6 1630.6,1372.37 1634.82,1373.1 1639.04,1373.79 1643.26,1374.44 1647.49,1375.05 1651.71,1375.63 1655.93,1376.18 
  1660.15,1376.69 1664.37,1377.18 1668.59,1377.63 1672.81,1378.06 1677.03,1378.47 1681.25,1378.85 1685.47,1379.2 1689.69,1379.54 1693.91,1379.85 1698.13,1380.15 
  1702.35,1380.43 1706.57,1380.69 1710.8,1380.93 1715.02,1381.16 1719.24,1381.37 1723.46,1381.57 1727.68,1381.76 1731.9,1381.94 1736.12,1382.1 1740.34,1382.25 
  1744.56,1382.39 1748.78,1382.53 1753,1382.65 1757.22,1382.77 1761.44,1382.88 1765.66,1382.98 1769.88,1383.07 1774.1,1383.16 1778.33,1383.24 1782.55,1383.31 
  1786.77,1383.38 1790.99,1383.45 1795.21,1383.51 1799.43,1383.56 1803.65,1383.62 1807.87,1383.67 1812.09,1383.71 1816.31,1383.75 1820.53,1383.79 1824.75,1383.83 
  1828.97,1383.86 1833.19,1383.89 1837.41,1383.92 1841.64,1383.94 1845.86,1383.97 1850.08,1383.99 1854.3,1384.01 1858.52,1384.03 1862.74,1384.05 1866.96,1384.06 
  1871.18,1384.08 1875.4,1384.09 1879.62,1384.1 1883.84,1384.11 1888.06,1384.12 1892.28,1384.13 1896.5,1384.14 1900.72,1384.15 1904.94,1384.16 1909.17,1384.17 
  1913.39,1384.17 1917.61,1384.18 1921.83,1384.18 1926.05,1384.19 1930.27,1384.19 1934.49,1384.2 1938.71,1384.2 1942.93,1384.2 1947.15,1384.21 1951.37,1384.21 
  1955.59,1384.21 1959.81,1384.21 1964.03,1384.22 1968.25,1384.22 1972.48,1384.22 1976.7,1384.22 1980.92,1384.22 1985.14,1384.23 1989.36,1384.23 1993.58,1384.23 
  1997.8,1384.23 2002.02,1384.23 2006.24,1384.23 2010.46,1384.23 2014.68,1384.23 2018.9,1384.23 2023.12,1384.23 2027.34,1384.23 2031.56,1384.23 2035.79,1384.23 
  2040.01,1384.23 2044.23,1384.24 2048.45,1384.24 2052.67,1384.24 2056.89,1384.24 2061.11,1384.24 2065.33,1384.24 2069.55,1384.24 2073.77,1384.24 2077.99,1384.24 
  2082.21,1384.24 2086.43,1384.24 2090.65,1384.24 2094.87,1384.24 2099.09,1384.24 2103.32,1384.24 2107.54,1384.24 2111.76,1384.24 2115.98,1384.24 2120.2,1384.24 
  2124.42,1384.24 2128.64,1384.24 2132.86,1384.24 2137.08,1384.24 2141.3,1384.24 2145.52,1384.24 2149.74,1384.24 2153.96,1384.24 2158.18,1384.24 2162.4,1384.24 
  2166.63,1384.24 2170.85,1384.24 2175.07,1384.24 2179.29,1384.24 2183.51,1384.24 2187.73,1384.24 2191.95,1384.24 2196.17,1384.24 2200.39,1384.24 2204.61,1384.24 
  2208.83,1384.24 2213.05,1384.24 2217.27,1384.24 2221.49,1384.24 2225.71,1384.24 2229.93,1384.24 2234.16,1384.24 2238.38,1384.24 2242.6,1384.24 2246.82,1384.24 
  2251.04,1384.24 
  "/>
<polyline clip-path="url(#clip292)" style="stroke:#3da44d; stroke-linecap:butt; stroke-linejoin:round; stroke-width:12; stroke-opacity:1; fill:none" points="
  309.539,1384.22 313.76,1384.22 317.981,1384.21 322.201,1384.2 326.422,1384.19 330.643,1384.17 334.863,1384.16 339.084,1384.14 343.305,1384.11 347.525,1384.08 
  351.746,1384.05 355.966,1384 360.187,1383.95 364.408,1383.89 368.628,1383.82 372.849,1383.74 377.07,1383.65 381.29,1383.54 385.511,1383.41 389.732,1383.26 
  393.952,1383.1 398.173,1382.9 402.394,1382.69 406.614,1382.44 410.835,1382.16 415.056,1381.84 419.276,1381.49 423.497,1381.09 427.718,1380.65 431.938,1380.15 
  436.159,1379.6 440.379,1378.98 444.6,1378.3 448.821,1377.55 453.041,1376.72 457.262,1375.8 461.483,1374.8 465.703,1373.7 469.924,1372.5 474.145,1371.18 
  478.365,1369.75 482.586,1368.2 486.807,1366.51 491.027,1364.68 495.248,1362.7 499.469,1360.57 503.689,1358.26 507.91,1355.79 512.13,1353.13 516.351,1350.27 
  520.572,1347.22 524.792,1343.95 529.013,1340.47 533.234,1336.76 537.454,1332.8 541.675,1328.6 545.896,1324.14 550.116,1319.42 554.337,1314.42 558.558,1309.14 
  562.778,1303.57 566.999,1297.7 571.22,1291.52 575.44,1285.02 579.661,1278.2 583.882,1271.05 588.102,1263.57 592.323,1255.74 596.543,1247.56 600.764,1239.03 
  604.985,1230.14 609.205,1220.89 613.426,1211.28 617.647,1201.29 621.867,1190.93 626.088,1180.2 630.309,1169.1 634.529,1157.62 638.75,1145.77 642.971,1133.55 
  647.191,1120.96 651.412,1108 655.633,1094.68 659.853,1080.99 664.074,1066.96 668.295,1052.57 672.515,1037.85 676.736,1022.79 680.956,1007.41 685.177,991.709 
  689.398,975.704 693.618,959.404 697.839,942.821 702.06,925.966 706.28,908.854 710.501,891.497 714.722,873.911 718.942,856.109 723.163,838.109 727.384,819.926 
  731.604,801.578 735.825,783.081 740.046,764.454 744.266,745.716 748.487,726.884 752.708,707.98 756.928,689.022 761.149,670.03 765.369,651.025 769.59,632.027 
  773.811,613.057 778.031,594.136 782.252,575.286 786.473,556.526 790.693,537.878 794.914,519.364 799.135,501.004 803.355,482.819 807.576,464.83 811.797,447.058 
  816.017,429.522 820.238,412.244 824.459,395.242 828.679,378.537 832.9,362.146 837.121,346.089 841.341,330.384 845.562,315.049 849.782,300.099 854.003,285.553 
  858.224,271.425 862.444,257.732 866.665,244.487 870.886,231.704 875.106,219.398 879.327,207.58 883.548,196.262 887.768,185.455 891.989,175.17 896.21,165.416 
  900.43,156.202 904.651,147.536 908.872,139.424 913.092,131.873 917.313,124.89 921.534,118.477 925.754,112.64 929.975,107.381 934.195,102.702 938.416,98.6059 
  942.637,95.0921 946.857,92.1609 951.078,89.8113 955.299,88.0417 959.519,86.8498 963.74,86.2324 967.961,86.1857 972.181,86.7051 976.402,87.7855 980.623,89.421 
  984.843,91.6051 989.064,94.3307 993.285,97.5901 997.505,101.375 1001.73,105.677 1005.95,110.485 1010.17,115.792 1014.39,121.586 1018.61,127.856 1022.83,134.591 
  1027.05,141.78 1031.27,149.412 1035.49,157.472 1039.71,165.95 1043.93,174.832 1048.15,184.105 1052.37,193.756 1056.59,203.771 1060.81,214.137 1065.04,224.839 
  1069.26,235.865 1073.48,247.198 1077.7,258.827 1081.92,270.735 1086.14,282.909 1090.36,295.336 1094.58,307.999 1098.8,320.887 1103.02,333.983 1107.24,347.274 
  1111.46,360.747 1115.68,374.386 1119.9,388.18 1124.12,402.113 1128.35,416.173 1132.57,430.347 1136.79,444.621 1141.01,458.982 1145.23,473.418 1149.45,487.917 
  1153.67,502.467 1157.89,517.055 1162.11,531.67 1166.33,546.302 1170.55,560.938 1174.77,575.568 1178.99,590.181 1183.21,604.768 1187.43,619.319 1191.66,633.824 
  1195.88,648.274 1200.1,662.661 1204.32,676.974 1208.54,691.208 1212.76,705.352 1216.98,719.401 1221.2,733.347 1225.42,747.182 1229.64,760.9 1233.86,774.496 
  1238.08,787.962 1242.3,801.294 1246.52,814.486 1250.74,827.533 1254.96,840.43 1259.19,853.173 1263.41,865.759 1267.63,878.182 1271.85,890.439 1276.07,902.529 
  1280.29,914.446 1284.51,926.189 1288.73,937.755 1292.95,949.142 1297.17,960.349 1301.39,971.373 1305.61,982.212 1309.83,992.867 1314.05,1003.34 1318.27,1013.62 
  1322.5,1023.71 1326.72,1033.62 1330.94,1043.34 1335.16,1052.87 1339.38,1062.21 1343.6,1071.36 1347.82,1080.33 1352.04,1089.11 1356.26,1097.71 1360.48,1106.12 
  1364.7,1114.35 1368.92,1122.4 1373.14,1130.26 1377.36,1137.95 1381.58,1145.46 1385.81,1152.79 1390.03,1159.95 1394.25,1166.94 1398.47,1173.76 1402.69,1180.41 
  1406.91,1186.89 1411.13,1193.21 1415.35,1199.37 1419.57,1205.37 1423.79,1211.21 1428.01,1216.9 1432.23,1222.43 1436.45,1227.82 1440.67,1233.06 1444.89,1238.16 
  1449.11,1243.11 1453.34,1247.92 1457.56,1252.6 1461.78,1257.14 1466,1261.56 1470.22,1265.84 1474.44,1270 1478.66,1274.03 1482.88,1277.95 1487.1,1281.74 
  1491.32,1285.42 1495.54,1288.99 1499.76,1292.44 1503.98,1295.79 1508.2,1299.03 1512.42,1302.17 1516.65,1305.21 1520.87,1308.16 1525.09,1311 1529.31,1313.76 
  1533.53,1316.42 1537.75,1319 1541.97,1321.49 1546.19,1323.89 1550.41,1326.22 1554.63,1328.46 1558.85,1330.63 1563.07,1332.72 1567.29,1334.74 1571.51,1336.69 
  1575.73,1338.58 1579.95,1340.39 1584.18,1342.14 1588.4,1343.83 1592.62,1345.46 1596.84,1347.03 1601.06,1348.54 1605.28,1350 1609.5,1351.4 1613.72,1352.75 
  1617.94,1354.05 1622.16,1355.3 1626.38,1356.5 1630.6,1357.66 1634.82,1358.78 1639.04,1359.85 1643.26,1360.88 1647.49,1361.87 1651.71,1362.83 1655.93,1363.74 
  1660.15,1364.62 1664.37,1365.47 1668.59,1366.28 1672.81,1367.06 1677.03,1367.81 1681.25,1368.52 1685.47,1369.21 1689.69,1369.88 1693.91,1370.51 1698.13,1371.12 
  1702.35,1371.7 1706.57,1372.26 1710.8,1372.8 1715.02,1373.31 1719.24,1373.8 1723.46,1374.28 1727.68,1374.73 1731.9,1375.16 1736.12,1375.58 1740.34,1375.97 
  1744.56,1376.35 1748.78,1376.72 1753,1377.06 1757.22,1377.4 1761.44,1377.72 1765.66,1378.02 1769.88,1378.31 1774.1,1378.59 1778.33,1378.86 1782.55,1379.11 
  1786.77,1379.35 1790.99,1379.59 1795.21,1379.81 1799.43,1380.02 1803.65,1380.22 1807.87,1380.41 1812.09,1380.6 1816.31,1380.77 1820.53,1380.94 1824.75,1381.1 
  1828.97,1381.26 1833.19,1381.4 1837.41,1381.54 1841.64,1381.67 1845.86,1381.8 1850.08,1381.92 1854.3,1382.03 1858.52,1382.14 1862.74,1382.25 1866.96,1382.35 
  1871.18,1382.44 1875.4,1382.53 1879.62,1382.62 1883.84,1382.7 1888.06,1382.78 1892.28,1382.85 1896.5,1382.92 1900.72,1382.99 1904.94,1383.05 1909.17,1383.11 
  1913.39,1383.17 1917.61,1383.23 1921.83,1383.28 1926.05,1383.33 1930.27,1383.38 1934.49,1383.42 1938.71,1383.46 1942.93,1383.5 1947.15,1383.54 1951.37,1383.58 
  1955.59,1383.61 1959.81,1383.65 1964.03,1383.68 1968.25,1383.71 1972.48,1383.73 1976.7,1383.76 1980.92,1383.79 1985.14,1383.81 1989.36,1383.83 1993.58,1383.86 
  1997.8,1383.88 2002.02,1383.9 2006.24,1383.91 2010.46,1383.93 2014.68,1383.95 2018.9,1383.96 2023.12,1383.98 2027.34,1383.99 2031.56,1384.01 2035.79,1384.02 
  2040.01,1384.03 2044.23,1384.04 2048.45,1384.05 2052.67,1384.06 2056.89,1384.07 2061.11,1384.08 2065.33,1384.09 2069.55,1384.1 2073.77,1384.11 2077.99,1384.11 
  2082.21,1384.12 2086.43,1384.13 2090.65,1384.13 2094.87,1384.14 2099.09,1384.15 2103.32,1384.15 2107.54,1384.16 2111.76,1384.16 2115.98,1384.16 2120.2,1384.17 
  2124.42,1384.17 2128.64,1384.18 2132.86,1384.18 2137.08,1384.18 2141.3,1384.19 2145.52,1384.19 2149.74,1384.19 2153.96,1384.19 2158.18,1384.2 2162.4,1384.2 
  2166.63,1384.2 2170.85,1384.2 2175.07,1384.21 2179.29,1384.21 2183.51,1384.21 2187.73,1384.21 2191.95,1384.21 2196.17,1384.21 2200.39,1384.22 2204.61,1384.22 
  2208.83,1384.22 2213.05,1384.22 2217.27,1384.22 2221.49,1384.22 2225.71,1384.22 2229.93,1384.22 2234.16,1384.22 2238.38,1384.23 2242.6,1384.23 2246.82,1384.23 
  2251.04,1384.23 
  "/>
<path clip-path="url(#clip290)" d="
M1564.66 335.029 L2282.66 335.029 L2282.66 93.1086 L1564.66 93.1086  Z
  " fill="#ffffff" fill-rule="evenodd" fill-opacity="1"/>
<polyline clip-path="url(#clip290)" style="stroke:#000000; stroke-linecap:butt; stroke-linejoin:round; stroke-width:4; stroke-opacity:1; fill:none" points="
  1564.66,335.029 2282.66,335.029 2282.66,93.1086 1564.66,93.1086 1564.66,335.029 
  "/>
<polyline clip-path="url(#clip290)" style="stroke:#009af9; stroke-linecap:butt; stroke-linejoin:round; stroke-width:4; stroke-opacity:1; fill:none" points="
  1588.02,153.589 1728.2,153.589 
  "/>
<path clip-path="url(#clip290)" d="M1765.41 173.276 Q1763.6 177.906 1761.89 179.318 Q1760.18 180.73 1757.31 180.73 L1753.9 180.73 L1753.9 177.165 L1756.4 177.165 Q1758.16 177.165 1759.13 176.332 Q1760.11 175.498 1761.29 172.396 L1762.05 170.452 L1751.57 144.943 L1756.08 144.943 L1764.18 165.221 L1772.28 144.943 L1776.8 144.943 L1765.41 173.276 Z" fill="#000000" fill-rule="evenodd" fill-opacity="1" /><path clip-path="url(#clip290)" d="M1784.09 166.933 L1791.73 166.933 L1791.73 140.568 L1783.42 142.235 L1783.42 137.975 L1791.68 136.309 L1796.36 136.309 L1796.36 166.933 L1804 166.933 L1804 170.869 L1784.09 170.869 L1784.09 166.933 Z" fill="#000000" fill-rule="evenodd" fill-opacity="1" /><polyline clip-path="url(#clip290)" style="stroke:#e26f46; stroke-linecap:butt; stroke-linejoin:round; stroke-width:4; stroke-opacity:1; fill:none" points="
  1588.02,214.069 1728.2,214.069 
  "/>
<path clip-path="url(#clip290)" d="M1770.48 218.085 Q1770.48 213.455 1768.56 210.909 Q1766.66 208.363 1763.21 208.363 Q1759.78 208.363 1757.86 210.909 Q1755.96 213.455 1755.96 218.085 Q1755.96 222.691 1757.86 225.238 Q1759.78 227.784 1763.21 227.784 Q1766.66 227.784 1768.56 225.238 Q1770.48 222.691 1770.48 218.085 M1774.74 228.131 Q1774.74 234.751 1771.8 237.969 Q1768.86 241.21 1762.79 241.21 Q1760.55 241.21 1758.56 240.862 Q1756.57 240.538 1754.69 239.844 L1754.69 235.7 Q1756.57 236.719 1758.39 237.205 Q1760.22 237.691 1762.12 237.691 Q1766.31 237.691 1768.39 235.492 Q1770.48 233.316 1770.48 228.895 L1770.48 226.788 Q1769.16 229.08 1767.1 230.214 Q1765.04 231.349 1762.17 231.349 Q1757.4 231.349 1754.48 227.714 Q1751.57 224.08 1751.57 218.085 Q1751.57 212.066 1754.48 208.432 Q1757.4 204.798 1762.17 204.798 Q1765.04 204.798 1767.1 205.932 Q1769.16 207.066 1770.48 209.358 L1770.48 205.423 L1774.74 205.423 L1774.74 228.131 Z" fill="#000000" fill-rule="evenodd" fill-opacity="1" /><path clip-path="url(#clip290)" d="M1795.29 218.316 Q1790.13 218.316 1788.14 219.497 Q1786.15 220.677 1786.15 223.525 Q1786.15 225.793 1787.63 227.136 Q1789.13 228.455 1791.7 228.455 Q1795.25 228.455 1797.38 225.955 Q1799.53 223.432 1799.53 219.265 L1799.53 218.316 L1795.29 218.316 M1803.79 216.557 L1803.79 231.349 L1799.53 231.349 L1799.53 227.413 Q1798.07 229.775 1795.89 230.909 Q1793.72 232.02 1790.57 232.02 Q1786.59 232.02 1784.23 229.798 Q1781.89 227.552 1781.89 223.802 Q1781.89 219.427 1784.81 217.205 Q1787.75 214.983 1793.56 214.983 L1799.53 214.983 L1799.53 214.566 Q1799.53 211.627 1797.58 210.029 Q1795.66 208.409 1792.17 208.409 Q1789.94 208.409 1787.84 208.941 Q1785.73 209.474 1783.79 210.539 L1783.79 206.603 Q1786.13 205.701 1788.32 205.261 Q1790.52 204.798 1792.61 204.798 Q1798.23 204.798 1801.01 207.714 Q1803.79 210.631 1803.79 216.557 Z" fill="#000000" fill-rule="evenodd" fill-opacity="1" /><path clip-path="url(#clip290)" d="M1812.12 221.117 L1812.12 205.423 L1816.38 205.423 L1816.38 220.955 Q1816.38 224.636 1817.81 226.488 Q1819.25 228.316 1822.12 228.316 Q1825.57 228.316 1827.56 226.117 Q1829.57 223.918 1829.57 220.122 L1829.57 205.423 L1833.83 205.423 L1833.83 231.349 L1829.57 231.349 L1829.57 227.367 Q1828.02 229.728 1825.96 230.886 Q1823.93 232.02 1821.22 232.02 Q1816.75 232.02 1814.44 229.242 Q1812.12 226.464 1812.12 221.117 M1822.84 204.798 L1822.84 204.798 Z" fill="#000000" fill-rule="evenodd" fill-opacity="1" /><path clip-path="url(#clip290)" d="M1859.13 206.187 L1859.13 210.214 Q1857.33 209.289 1855.38 208.826 Q1853.44 208.363 1851.36 208.363 Q1848.19 208.363 1846.59 209.335 Q1845.01 210.307 1845.01 212.251 Q1845.01 213.733 1846.15 214.589 Q1847.28 215.423 1850.71 216.187 L1852.17 216.511 Q1856.7 217.483 1858.6 219.265 Q1860.52 221.025 1860.52 224.196 Q1860.52 227.807 1857.65 229.913 Q1854.81 232.02 1849.81 232.02 Q1847.72 232.02 1845.45 231.603 Q1843.21 231.21 1840.71 230.4 L1840.71 226.001 Q1843.07 227.228 1845.36 227.853 Q1847.65 228.455 1849.9 228.455 Q1852.91 228.455 1854.53 227.437 Q1856.15 226.395 1856.15 224.52 Q1856.15 222.784 1854.97 221.858 Q1853.81 220.932 1849.85 220.076 L1848.37 219.728 Q1844.41 218.895 1842.65 217.182 Q1840.89 215.446 1840.89 212.437 Q1840.89 208.779 1843.49 206.789 Q1846.08 204.798 1850.85 204.798 Q1853.21 204.798 1855.29 205.145 Q1857.37 205.492 1859.13 206.187 Z" fill="#000000" fill-rule="evenodd" fill-opacity="1" /><path clip-path="url(#clip290)" d="M1883.83 206.187 L1883.83 210.214 Q1882.03 209.289 1880.08 208.826 Q1878.14 208.363 1876.06 208.363 Q1872.88 208.363 1871.29 209.335 Q1869.71 210.307 1869.71 212.251 Q1869.71 213.733 1870.85 214.589 Q1871.98 215.423 1875.41 216.187 L1876.87 216.511 Q1881.4 217.483 1883.3 219.265 Q1885.22 221.025 1885.22 224.196 Q1885.22 227.807 1882.35 229.913 Q1879.5 232.02 1874.5 232.02 Q1872.42 232.02 1870.15 231.603 Q1867.91 231.21 1865.41 230.4 L1865.41 226.001 Q1867.77 227.228 1870.06 227.853 Q1872.35 228.455 1874.6 228.455 Q1877.61 228.455 1879.23 227.437 Q1880.85 226.395 1880.85 224.52 Q1880.85 222.784 1879.67 221.858 Q1878.51 220.932 1874.55 220.076 L1873.07 219.728 Q1869.11 218.895 1867.35 217.182 Q1865.59 215.446 1865.59 212.437 Q1865.59 208.779 1868.19 206.789 Q1870.78 204.798 1875.55 204.798 Q1877.91 204.798 1879.99 205.145 Q1882.07 205.492 1883.83 206.187 Z" fill="#000000" fill-rule="evenodd" fill-opacity="1" /><path clip-path="url(#clip290)" d="M1892 205.423 L1896.26 205.423 L1896.26 231.349 L1892 231.349 L1892 205.423 M1892 195.33 L1896.26 195.33 L1896.26 200.724 L1892 200.724 L1892 195.33 Z" fill="#000000" fill-rule="evenodd" fill-opacity="1" /><path clip-path="url(#clip290)" d="M1916.96 218.316 Q1911.8 218.316 1909.81 219.497 Q1907.81 220.677 1907.81 223.525 Q1907.81 225.793 1909.3 227.136 Q1910.8 228.455 1913.37 228.455 Q1916.91 228.455 1919.04 225.955 Q1921.19 223.432 1921.19 219.265 L1921.19 218.316 L1916.96 218.316 M1925.45 216.557 L1925.45 231.349 L1921.19 231.349 L1921.19 227.413 Q1919.74 229.775 1917.56 230.909 Q1915.38 232.02 1912.24 232.02 Q1908.25 232.02 1905.89 229.798 Q1903.56 227.552 1903.56 223.802 Q1903.56 219.427 1906.47 217.205 Q1909.41 214.983 1915.22 214.983 L1921.19 214.983 L1921.19 214.566 Q1921.19 211.627 1919.25 210.029 Q1917.33 208.409 1913.83 208.409 Q1911.61 208.409 1909.5 208.941 Q1907.4 209.474 1905.45 210.539 L1905.45 206.603 Q1907.79 205.701 1909.99 205.261 Q1912.19 204.798 1914.27 204.798 Q1919.9 204.798 1922.68 207.714 Q1925.45 210.631 1925.45 216.557 Z" fill="#000000" fill-rule="evenodd" fill-opacity="1" /><path clip-path="url(#clip290)" d="M1955.78 215.701 L1955.78 231.349 L1951.52 231.349 L1951.52 215.839 Q1951.52 212.159 1950.08 210.33 Q1948.65 208.502 1945.78 208.502 Q1942.33 208.502 1940.34 210.701 Q1938.35 212.9 1938.35 216.696 L1938.35 231.349 L1934.06 231.349 L1934.06 205.423 L1938.35 205.423 L1938.35 209.451 Q1939.87 207.113 1941.93 205.955 Q1944.02 204.798 1946.73 204.798 Q1951.19 204.798 1953.49 207.576 Q1955.78 210.33 1955.78 215.701 Z" fill="#000000" fill-rule="evenodd" fill-opacity="1" /><path clip-path="url(#clip290)" d="M1992.47 195.33 L1992.47 198.872 L1988.39 198.872 Q1986.1 198.872 1985.2 199.798 Q1984.32 200.724 1984.32 203.131 L1984.32 205.423 L1991.33 205.423 L1991.33 208.733 L1984.32 208.733 L1984.32 231.349 L1980.04 231.349 L1980.04 208.733 L1975.96 208.733 L1975.96 205.423 L1980.04 205.423 L1980.04 203.617 Q1980.04 199.289 1982.05 197.321 Q1984.06 195.33 1988.44 195.33 L1992.47 195.33 Z" fill="#000000" fill-rule="evenodd" fill-opacity="1" /><path clip-path="url(#clip290)" d="M1996.03 205.423 L2000.29 205.423 L2000.29 231.349 L1996.03 231.349 L1996.03 205.423 M1996.03 195.33 L2000.29 195.33 L2000.29 200.724 L1996.03 200.724 L1996.03 195.33 Z" fill="#000000" fill-rule="evenodd" fill-opacity="1" /><path clip-path="url(#clip290)" d="M2013.42 198.062 L2013.42 205.423 L2022.19 205.423 L2022.19 208.733 L2013.42 208.733 L2013.42 222.807 Q2013.42 225.978 2014.27 226.881 Q2015.15 227.784 2017.81 227.784 L2022.19 227.784 L2022.19 231.349 L2017.81 231.349 Q2012.88 231.349 2011.01 229.52 Q2009.13 227.668 2009.13 222.807 L2009.13 208.733 L2006.01 208.733 L2006.01 205.423 L2009.13 205.423 L2009.13 198.062 L2013.42 198.062 Z" fill="#000000" fill-rule="evenodd" fill-opacity="1" /><polyline clip-path="url(#clip290)" style="stroke:#3da44d; stroke-linecap:butt; stroke-linejoin:round; stroke-width:4; stroke-opacity:1; fill:none" points="
  1588.02,274.549 1728.2,274.549 
  "/>
<path clip-path="url(#clip290)" d="M1773.28 276.181 L1773.28 291.829 L1769.02 291.829 L1769.02 276.319 Q1769.02 272.639 1767.58 270.81 Q1766.15 268.982 1763.28 268.982 Q1759.83 268.982 1757.84 271.181 Q1755.85 273.38 1755.85 277.176 L1755.85 291.829 L1751.57 291.829 L1751.57 265.903 L1755.85 265.903 L1755.85 269.931 Q1757.38 267.593 1759.44 266.435 Q1761.52 265.278 1764.23 265.278 Q1768.69 265.278 1770.99 268.056 Q1773.28 270.81 1773.28 276.181 Z" fill="#000000" fill-rule="evenodd" fill-opacity="1" /><path clip-path="url(#clip290)" d="M1803.95 277.801 L1803.95 279.884 L1784.37 279.884 Q1784.64 284.282 1787 286.597 Q1789.39 288.889 1793.63 288.889 Q1796.08 288.889 1798.37 288.287 Q1800.69 287.685 1802.95 286.481 L1802.95 290.509 Q1800.66 291.481 1798.25 291.991 Q1795.85 292.5 1793.37 292.5 Q1787.17 292.5 1783.53 288.889 Q1779.92 285.278 1779.92 279.12 Q1779.92 272.755 1783.35 269.028 Q1786.8 265.278 1792.63 265.278 Q1797.86 265.278 1800.89 268.657 Q1803.95 272.014 1803.95 277.801 M1799.69 276.551 Q1799.64 273.056 1797.72 270.972 Q1795.82 268.889 1792.68 268.889 Q1789.11 268.889 1786.96 270.903 Q1784.83 272.917 1784.5 276.574 L1799.69 276.551 Z" fill="#000000" fill-rule="evenodd" fill-opacity="1" /><path clip-path="url(#clip290)" d="M1828 278.565 Q1828 273.935 1826.08 271.389 Q1824.18 268.843 1820.73 268.843 Q1817.31 268.843 1815.38 271.389 Q1813.49 273.935 1813.49 278.565 Q1813.49 283.171 1815.38 285.718 Q1817.31 288.264 1820.73 288.264 Q1824.18 288.264 1826.08 285.718 Q1828 283.171 1828 278.565 M1832.26 288.611 Q1832.26 295.231 1829.32 298.449 Q1826.38 301.69 1820.31 301.69 Q1818.07 301.69 1816.08 301.342 Q1814.09 301.018 1812.21 300.324 L1812.21 296.18 Q1814.09 297.199 1815.92 297.685 Q1817.75 298.171 1819.64 298.171 Q1823.83 298.171 1825.92 295.972 Q1828 293.796 1828 289.375 L1828 287.268 Q1826.68 289.56 1824.62 290.694 Q1822.56 291.829 1819.69 291.829 Q1814.92 291.829 1812 288.194 Q1809.09 284.56 1809.09 278.565 Q1809.09 272.546 1812 268.912 Q1814.92 265.278 1819.69 265.278 Q1822.56 265.278 1824.62 266.412 Q1826.68 267.546 1828 269.838 L1828 265.903 L1832.26 265.903 L1832.26 288.611 Z" fill="#000000" fill-rule="evenodd" fill-opacity="1" /><path clip-path="url(#clip290)" d="M1852.81 278.796 Q1847.65 278.796 1845.66 279.977 Q1843.67 281.157 1843.67 284.005 Q1843.67 286.273 1845.15 287.616 Q1846.66 288.935 1849.23 288.935 Q1852.77 288.935 1854.9 286.435 Q1857.05 283.912 1857.05 279.745 L1857.05 278.796 L1852.81 278.796 M1861.31 277.037 L1861.31 291.829 L1857.05 291.829 L1857.05 287.893 Q1855.59 290.255 1853.42 291.389 Q1851.24 292.5 1848.09 292.5 Q1844.11 292.5 1841.75 290.278 Q1839.41 288.032 1839.41 284.282 Q1839.41 279.907 1842.33 277.685 Q1845.27 275.463 1851.08 275.463 L1857.05 275.463 L1857.05 275.046 Q1857.05 272.107 1855.11 270.509 Q1853.19 268.889 1849.69 268.889 Q1847.47 268.889 1845.36 269.421 Q1843.25 269.954 1841.31 271.019 L1841.31 267.083 Q1843.65 266.181 1845.85 265.741 Q1848.05 265.278 1850.13 265.278 Q1855.75 265.278 1858.53 268.194 Q1861.31 271.111 1861.31 277.037 Z" fill="#000000" fill-rule="evenodd" fill-opacity="1" /><path clip-path="url(#clip290)" d="M1874.3 258.542 L1874.3 265.903 L1883.07 265.903 L1883.07 269.213 L1874.3 269.213 L1874.3 283.287 Q1874.3 286.458 1875.15 287.361 Q1876.03 288.264 1878.69 288.264 L1883.07 288.264 L1883.07 291.829 L1878.69 291.829 Q1873.76 291.829 1871.89 290 Q1870.01 288.148 1870.01 283.287 L1870.01 269.213 L1866.89 269.213 L1866.89 265.903 L1870.01 265.903 L1870.01 258.542 L1874.3 258.542 Z" fill="#000000" fill-rule="evenodd" fill-opacity="1" /><path clip-path="url(#clip290)" d="M1888.67 265.903 L1892.93 265.903 L1892.93 291.829 L1888.67 291.829 L1888.67 265.903 M1888.67 255.81 L1892.93 255.81 L1892.93 261.204 L1888.67 261.204 L1888.67 255.81 Z" fill="#000000" fill-rule="evenodd" fill-opacity="1" /><path clip-path="url(#clip290)" d="M1898.79 265.903 L1903.3 265.903 L1911.4 287.662 L1919.5 265.903 L1924.02 265.903 L1914.3 291.829 L1908.51 291.829 L1898.79 265.903 Z" fill="#000000" fill-rule="evenodd" fill-opacity="1" /><path clip-path="url(#clip290)" d="M1952.07 277.801 L1952.07 279.884 L1932.49 279.884 Q1932.77 284.282 1935.13 286.597 Q1937.51 288.889 1941.75 288.889 Q1944.2 288.889 1946.49 288.287 Q1948.81 287.685 1951.08 286.481 L1951.08 290.509 Q1948.79 291.481 1946.38 291.991 Q1943.97 292.5 1941.49 292.5 Q1935.29 292.5 1931.66 288.889 Q1928.05 285.278 1928.05 279.12 Q1928.05 272.755 1931.47 269.028 Q1934.92 265.278 1940.75 265.278 Q1945.99 265.278 1949.02 268.657 Q1952.07 272.014 1952.07 277.801 M1947.81 276.551 Q1947.77 273.056 1945.85 270.972 Q1943.95 268.889 1940.8 268.889 Q1937.24 268.889 1935.08 270.903 Q1932.95 272.917 1932.63 276.574 L1947.81 276.551 Z" fill="#000000" fill-rule="evenodd" fill-opacity="1" /><path clip-path="url(#clip290)" d="M1992.74 278.889 Q1992.74 274.19 1990.8 271.528 Q1988.88 268.843 1985.5 268.843 Q1982.12 268.843 1980.18 271.528 Q1978.25 274.19 1978.25 278.889 Q1978.25 283.588 1980.18 286.273 Q1982.12 288.935 1985.5 288.935 Q1988.88 288.935 1990.8 286.273 Q1992.74 283.588 1992.74 278.889 M1978.25 269.838 Q1979.6 267.523 1981.63 266.412 Q1983.69 265.278 1986.54 265.278 Q1991.26 265.278 1994.2 269.028 Q1997.17 272.778 1997.17 278.889 Q1997.17 285 1994.2 288.75 Q1991.26 292.5 1986.54 292.5 Q1983.69 292.5 1981.63 291.389 Q1979.6 290.255 1978.25 287.94 L1978.25 291.829 L1973.97 291.829 L1973.97 255.81 L1978.25 255.81 L1978.25 269.838 Z" fill="#000000" fill-rule="evenodd" fill-opacity="1" /><path clip-path="url(#clip290)" d="M2004.23 265.903 L2008.49 265.903 L2008.49 291.829 L2004.23 291.829 L2004.23 265.903 M2004.23 255.81 L2008.49 255.81 L2008.49 261.204 L2004.23 261.204 L2004.23 255.81 Z" fill="#000000" fill-rule="evenodd" fill-opacity="1" /><path clip-path="url(#clip290)" d="M2038.95 276.181 L2038.95 291.829 L2034.69 291.829 L2034.69 276.319 Q2034.69 272.639 2033.25 270.81 Q2031.82 268.982 2028.95 268.982 Q2025.5 268.982 2023.51 271.181 Q2021.52 273.38 2021.52 277.176 L2021.52 291.829 L2017.24 291.829 L2017.24 265.903 L2021.52 265.903 L2021.52 269.931 Q2023.05 267.593 2025.11 266.435 Q2027.19 265.278 2029.9 265.278 Q2034.36 265.278 2036.66 268.056 Q2038.95 270.81 2038.95 276.181 Z" fill="#000000" fill-rule="evenodd" fill-opacity="1" /><path clip-path="url(#clip290)" d="M2057.49 268.889 Q2054.06 268.889 2052.07 271.574 Q2050.08 274.236 2050.08 278.889 Q2050.08 283.542 2052.05 286.227 Q2054.04 288.889 2057.49 288.889 Q2060.89 288.889 2062.88 286.204 Q2064.87 283.518 2064.87 278.889 Q2064.87 274.282 2062.88 271.597 Q2060.89 268.889 2057.49 268.889 M2057.49 265.278 Q2063.05 265.278 2066.22 268.889 Q2069.39 272.5 2069.39 278.889 Q2069.39 285.255 2066.22 288.889 Q2063.05 292.5 2057.49 292.5 Q2051.91 292.5 2048.74 288.889 Q2045.59 285.255 2045.59 278.889 Q2045.59 272.5 2048.74 268.889 Q2051.91 265.278 2057.49 265.278 Z" fill="#000000" fill-rule="evenodd" fill-opacity="1" /><path clip-path="url(#clip290)" d="M2096.63 270.88 Q2098.23 268.009 2100.45 266.644 Q2102.67 265.278 2105.68 265.278 Q2109.73 265.278 2111.93 268.125 Q2114.13 270.949 2114.13 276.181 L2114.13 291.829 L2109.85 291.829 L2109.85 276.319 Q2109.85 272.593 2108.53 270.787 Q2107.21 268.982 2104.5 268.982 Q2101.19 268.982 2099.27 271.181 Q2097.35 273.38 2097.35 277.176 L2097.35 291.829 L2093.07 291.829 L2093.07 276.319 Q2093.07 272.569 2091.75 270.787 Q2090.43 268.982 2087.67 268.982 Q2084.41 268.982 2082.49 271.204 Q2080.57 273.403 2080.57 277.176 L2080.57 291.829 L2076.29 291.829 L2076.29 265.903 L2080.57 265.903 L2080.57 269.931 Q2082.03 267.546 2084.06 266.412 Q2086.1 265.278 2088.9 265.278 Q2091.73 265.278 2093.69 266.713 Q2095.68 268.148 2096.63 270.88 Z" fill="#000000" fill-rule="evenodd" fill-opacity="1" /><path clip-path="url(#clip290)" d="M2122.63 265.903 L2126.89 265.903 L2126.89 291.829 L2122.63 291.829 L2122.63 265.903 M2122.63 255.81 L2126.89 255.81 L2126.89 261.204 L2122.63 261.204 L2122.63 255.81 Z" fill="#000000" fill-rule="evenodd" fill-opacity="1" /><path clip-path="url(#clip290)" d="M2147.58 278.796 Q2142.42 278.796 2140.43 279.977 Q2138.44 281.157 2138.44 284.005 Q2138.44 286.273 2139.92 287.616 Q2141.42 288.935 2143.99 288.935 Q2147.54 288.935 2149.67 286.435 Q2151.82 283.912 2151.82 279.745 L2151.82 278.796 L2147.58 278.796 M2156.08 277.037 L2156.08 291.829 L2151.82 291.829 L2151.82 287.893 Q2150.36 290.255 2148.18 291.389 Q2146.01 292.5 2142.86 292.5 Q2138.88 292.5 2136.52 290.278 Q2134.18 288.032 2134.18 284.282 Q2134.18 279.907 2137.1 277.685 Q2140.04 275.463 2145.85 275.463 L2151.82 275.463 L2151.82 275.046 Q2151.82 272.107 2149.87 270.509 Q2147.95 268.889 2144.46 268.889 Q2142.23 268.889 2140.13 269.421 Q2138.02 269.954 2136.08 271.019 L2136.08 267.083 Q2138.42 266.181 2140.61 265.741 Q2142.81 265.278 2144.9 265.278 Q2150.52 265.278 2153.3 268.194 Q2156.08 271.111 2156.08 277.037 Z" fill="#000000" fill-rule="evenodd" fill-opacity="1" /><path clip-path="url(#clip290)" d="M2164.85 255.81 L2169.11 255.81 L2169.11 291.829 L2164.85 291.829 L2164.85 255.81 Z" fill="#000000" fill-rule="evenodd" fill-opacity="1" /><path clip-path="url(#clip290)" d="M2206.22 255.81 L2206.22 259.352 L2202.14 259.352 Q2199.85 259.352 2198.95 260.278 Q2198.07 261.204 2198.07 263.611 L2198.07 265.903 L2205.08 265.903 L2205.08 269.213 L2198.07 269.213 L2198.07 291.829 L2193.79 291.829 L2193.79 269.213 L2189.71 269.213 L2189.71 265.903 L2193.79 265.903 L2193.79 264.097 Q2193.79 259.769 2195.8 257.801 Q2197.81 255.81 2202.19 255.81 L2206.22 255.81 Z" fill="#000000" fill-rule="evenodd" fill-opacity="1" /><path clip-path="url(#clip290)" d="M2209.78 265.903 L2214.04 265.903 L2214.04 291.829 L2209.78 291.829 L2209.78 265.903 M2209.78 255.81 L2214.04 255.81 L2214.04 261.204 L2209.78 261.204 L2209.78 255.81 Z" fill="#000000" fill-rule="evenodd" fill-opacity="1" /><path clip-path="url(#clip290)" d="M2227.16 258.542 L2227.16 265.903 L2235.94 265.903 L2235.94 269.213 L2227.16 269.213 L2227.16 283.287 Q2227.16 286.458 2228.02 287.361 Q2228.9 288.264 2231.56 288.264 L2235.94 288.264 L2235.94 291.829 L2231.56 291.829 Q2226.63 291.829 2224.76 290 Q2222.88 288.148 2222.88 283.287 L2222.88 269.213 L2219.76 269.213 L2219.76 265.903 L2222.88 265.903 L2222.88 258.542 L2227.16 258.542 Z" fill="#000000" fill-rule="evenodd" fill-opacity="1" /></svg>
