<?xml version="1.0" encoding="utf-8"?>
<svg xmlns="http://www.w3.org/2000/svg" xmlns:xlink="http://www.w3.org/1999/xlink" width="600" height="400" viewBox="0 0 2400 1600">
<defs>
  <clipPath id="clip260">
    <rect x="0" y="0" width="2400" height="1600"/>
  </clipPath>
</defs>
<path clip-path="url(#clip260)" d="
M0 1600 L2400 1600 L2400 0 L0 0  Z
  " fill="#ffffff" fill-rule="evenodd" fill-opacity="1"/>
<defs>
  <clipPath id="clip261">
    <rect x="480" y="0" width="1681" height="1600"/>
  </clipPath>
</defs>
<path clip-path="url(#clip260)" d="
M279.704 1423.18 L2352.76 1423.18 L2352.76 47.2441 L279.704 47.2441  Z
  " fill="#ffffff" fill-rule="evenodd" fill-opacity="1"/>
<defs>
  <clipPath id="clip262">
    <rect x="279" y="47" width="2074" height="1377"/>
  </clipPath>
</defs>
<polyline clip-path="url(#clip262)" style="stroke:#000000; stroke-linecap:butt; stroke-linejoin:round; stroke-width:2; stroke-opacity:0.1; fill:none" points="
  338.375,1423.18 338.375,47.2441 
  "/>
<polyline clip-path="url(#clip262)" style="stroke:#000000; stroke-linecap:butt; stroke-linejoin:round; stroke-width:2; stroke-opacity:0.1; fill:none" points="
  985.961,1423.18 985.961,47.2441 
  "/>
<polyline clip-path="url(#clip262)" style="stroke:#000000; stroke-linecap:butt; stroke-linejoin:round; stroke-width:2; stroke-opacity:0.1; fill:none" points="
  1633.55,1423.18 1633.55,47.2441 
  "/>
<polyline clip-path="url(#clip262)" style="stroke:#000000; stroke-linecap:butt; stroke-linejoin:round; stroke-width:2; stroke-opacity:0.1; fill:none" points="
  2281.13,1423.18 2281.13,47.2441 
  "/>
<polyline clip-path="url(#clip260)" style="stroke:#000000; stroke-linecap:butt; stroke-linejoin:round; stroke-width:4; stroke-opacity:1; fill:none" points="
  279.704,1423.18 2352.76,1423.18 
  "/>
<polyline clip-path="url(#clip260)" style="stroke:#000000; stroke-linecap:butt; stroke-linejoin:round; stroke-width:4; stroke-opacity:1; fill:none" points="
  338.375,1423.18 338.375,1406.67 
  "/>
<polyline clip-path="url(#clip260)" style="stroke:#000000; stroke-linecap:butt; stroke-linejoin:round; stroke-width:4; stroke-opacity:1; fill:none" points="
  985.961,1423.18 985.961,1406.67 
  "/>
<polyline clip-path="url(#clip260)" style="stroke:#000000; stroke-linecap:butt; stroke-linejoin:round; stroke-width:4; stroke-opacity:1; fill:none" points="
  1633.55,1423.18 1633.55,1406.67 
  "/>
<polyline clip-path="url(#clip260)" style="stroke:#000000; stroke-linecap:butt; stroke-linejoin:round; stroke-width:4; stroke-opacity:1; fill:none" points="
  2281.13,1423.18 2281.13,1406.67 
  "/>
<path clip-path="url(#clip260)" d="M338.375 1452.37 Q334.764 1452.37 332.935 1455.94 Q331.13 1459.48 331.13 1466.61 Q331.13 1473.71 332.935 1477.28 Q334.764 1480.82 338.375 1480.82 Q342.009 1480.82 343.815 1477.28 Q345.644 1473.71 345.644 1466.61 Q345.644 1459.48 343.815 1455.94 Q342.009 1452.37 338.375 1452.37 M338.375 1448.67 Q344.185 1448.67 347.241 1453.27 Q350.32 1457.86 350.32 1466.61 Q350.32 1475.33 347.241 1479.94 Q344.185 1484.52 338.375 1484.52 Q332.565 1484.52 329.486 1479.94 Q326.431 1475.33 326.431 1466.61 Q326.431 1457.86 329.486 1453.27 Q332.565 1448.67 338.375 1448.67 Z" fill="#000000" fill-rule="evenodd" fill-opacity="1" /><path clip-path="url(#clip260)" d="M960.66 1449.29 L979.017 1449.29 L979.017 1453.23 L964.943 1453.23 L964.943 1461.7 Q965.961 1461.35 966.98 1461.19 Q967.998 1461 969.017 1461 Q974.804 1461 978.183 1464.18 Q981.563 1467.35 981.563 1472.76 Q981.563 1478.34 978.091 1481.44 Q974.619 1484.52 968.299 1484.52 Q966.123 1484.52 963.855 1484.15 Q961.609 1483.78 959.202 1483.04 L959.202 1478.34 Q961.285 1479.48 963.508 1480.03 Q965.73 1480.59 968.207 1480.59 Q972.211 1480.59 974.549 1478.48 Q976.887 1476.38 976.887 1472.76 Q976.887 1469.15 974.549 1467.05 Q972.211 1464.94 968.207 1464.94 Q966.332 1464.94 964.457 1465.36 Q962.605 1465.77 960.66 1466.65 L960.66 1449.29 Z" fill="#000000" fill-rule="evenodd" fill-opacity="1" /><path clip-path="url(#clip260)" d="M1000.78 1452.37 Q997.165 1452.37 995.336 1455.94 Q993.53 1459.48 993.53 1466.61 Q993.53 1473.71 995.336 1477.28 Q997.165 1480.82 1000.78 1480.82 Q1004.41 1480.82 1006.22 1477.28 Q1008.04 1473.71 1008.04 1466.61 Q1008.04 1459.48 1006.22 1455.94 Q1004.41 1452.37 1000.78 1452.37 M1000.78 1448.67 Q1006.59 1448.67 1009.64 1453.27 Q1012.72 1457.86 1012.72 1466.61 Q1012.72 1475.33 1009.64 1479.94 Q1006.59 1484.52 1000.78 1484.52 Q994.966 1484.52 991.887 1479.94 Q988.831 1475.33 988.831 1466.61 Q988.831 1457.86 991.887 1453.27 Q994.966 1448.67 1000.78 1448.67 Z" fill="#000000" fill-rule="evenodd" fill-opacity="1" /><path clip-path="url(#clip260)" d="M1593.15 1479.92 L1600.79 1479.92 L1600.79 1453.55 L1592.48 1455.22 L1592.48 1450.96 L1600.75 1449.29 L1605.42 1449.29 L1605.42 1479.92 L1613.06 1479.92 L1613.06 1483.85 L1593.15 1483.85 L1593.15 1479.92 Z" fill="#000000" fill-rule="evenodd" fill-opacity="1" /><path clip-path="url(#clip260)" d="M1632.51 1452.37 Q1628.89 1452.37 1627.07 1455.94 Q1625.26 1459.48 1625.26 1466.61 Q1625.26 1473.71 1627.07 1477.28 Q1628.89 1480.82 1632.51 1480.82 Q1636.14 1480.82 1637.95 1477.28 Q1639.77 1473.71 1639.77 1466.61 Q1639.77 1459.48 1637.95 1455.94 Q1636.14 1452.37 1632.51 1452.37 M1632.51 1448.67 Q1638.32 1448.67 1641.37 1453.27 Q1644.45 1457.86 1644.45 1466.61 Q1644.45 1475.33 1641.37 1479.94 Q1638.32 1484.52 1632.51 1484.52 Q1626.7 1484.52 1623.62 1479.94 Q1620.56 1475.33 1620.56 1466.61 Q1620.56 1457.86 1623.62 1453.27 Q1626.7 1448.67 1632.51 1448.67 Z" fill="#000000" fill-rule="evenodd" fill-opacity="1" /><path clip-path="url(#clip260)" d="M1662.67 1452.37 Q1659.06 1452.37 1657.23 1455.94 Q1655.42 1459.48 1655.42 1466.61 Q1655.42 1473.71 1657.23 1477.28 Q1659.06 1480.82 1662.67 1480.82 Q1666.3 1480.82 1668.11 1477.28 Q1669.94 1473.71 1669.94 1466.61 Q1669.94 1459.48 1668.11 1455.94 Q1666.3 1452.37 1662.67 1452.37 M1662.67 1448.67 Q1668.48 1448.67 1671.53 1453.27 Q1674.61 1457.86 1674.61 1466.61 Q1674.61 1475.33 1671.53 1479.94 Q1668.48 1484.52 1662.67 1484.52 Q1656.86 1484.52 1653.78 1479.94 Q1650.72 1475.33 1650.72 1466.61 Q1650.72 1457.86 1653.78 1453.27 Q1656.86 1448.67 1662.67 1448.67 Z" fill="#000000" fill-rule="evenodd" fill-opacity="1" /><path clip-path="url(#clip260)" d="M2240.74 1479.92 L2248.38 1479.92 L2248.38 1453.55 L2240.07 1455.22 L2240.07 1450.96 L2248.33 1449.29 L2253.01 1449.29 L2253.01 1479.92 L2260.65 1479.92 L2260.65 1483.85 L2240.74 1483.85 L2240.74 1479.92 Z" fill="#000000" fill-rule="evenodd" fill-opacity="1" /><path clip-path="url(#clip260)" d="M2270.14 1449.29 L2288.49 1449.29 L2288.49 1453.23 L2274.42 1453.23 L2274.42 1461.7 Q2275.44 1461.35 2276.46 1461.19 Q2277.48 1461 2278.49 1461 Q2284.28 1461 2287.66 1464.18 Q2291.04 1467.35 2291.04 1472.76 Q2291.04 1478.34 2287.57 1481.44 Q2284.1 1484.52 2277.78 1484.52 Q2275.6 1484.52 2273.33 1484.15 Q2271.09 1483.78 2268.68 1483.04 L2268.68 1478.34 Q2270.76 1479.48 2272.98 1480.03 Q2275.21 1480.59 2277.68 1480.59 Q2281.69 1480.59 2284.03 1478.48 Q2286.36 1476.38 2286.36 1472.76 Q2286.36 1469.15 2284.03 1467.05 Q2281.69 1464.94 2277.68 1464.94 Q2275.81 1464.94 2273.93 1465.36 Q2272.08 1465.77 2270.14 1466.65 L2270.14 1449.29 Z" fill="#000000" fill-rule="evenodd" fill-opacity="1" /><path clip-path="url(#clip260)" d="M2310.25 1452.37 Q2306.64 1452.37 2304.81 1455.94 Q2303.01 1459.48 2303.01 1466.61 Q2303.01 1473.71 2304.81 1477.28 Q2306.64 1480.82 2310.25 1480.82 Q2313.89 1480.82 2315.69 1477.28 Q2317.52 1473.71 2317.52 1466.61 Q2317.52 1459.48 2315.69 1455.94 Q2313.89 1452.37 2310.25 1452.37 M2310.25 1448.67 Q2316.06 1448.67 2319.12 1453.27 Q2322.2 1457.86 2322.2 1466.61 Q2322.2 1475.33 2319.12 1479.94 Q2316.06 1484.52 2310.25 1484.52 Q2304.44 1484.52 2301.36 1479.94 Q2298.31 1475.33 2298.31 1466.61 Q2298.31 1457.86 2301.36 1453.27 Q2304.44 1448.67 2310.25 1448.67 Z" fill="#000000" fill-rule="evenodd" fill-opacity="1" /><path clip-path="url(#clip260)" d="M1306.17 1562.7 L1306.17 1581.6 L1300.28 1581.6 L1300.28 1532.4 L1306.17 1532.4 L1306.17 1537.81 Q1308.02 1534.62 1310.82 1533.1 Q1313.65 1531.54 1317.57 1531.54 Q1324.06 1531.54 1328.1 1536.69 Q1332.18 1541.85 1332.18 1550.25 Q1332.18 1558.65 1328.1 1563.81 Q1324.06 1568.97 1317.57 1568.97 Q1313.65 1568.97 1310.82 1567.44 Q1308.02 1565.88 1306.17 1562.7 M1326.1 1550.25 Q1326.1 1543.79 1323.42 1540.13 Q1320.78 1536.44 1316.13 1536.44 Q1311.49 1536.44 1308.81 1540.13 Q1306.17 1543.79 1306.17 1550.25 Q1306.17 1556.71 1308.81 1560.4 Q1311.49 1564.07 1316.13 1564.07 Q1320.78 1564.07 1323.42 1560.4 Q1326.1 1556.71 1326.1 1550.25 Z" fill="#000000" fill-rule="evenodd" fill-opacity="1" /><polyline clip-path="url(#clip262)" style="stroke:#000000; stroke-linecap:butt; stroke-linejoin:round; stroke-width:2; stroke-opacity:0.1; fill:none" points="
  279.704,1384.24 2352.76,1384.24 
  "/>
<polyline clip-path="url(#clip262)" style="stroke:#000000; stroke-linecap:butt; stroke-linejoin:round; stroke-width:2; stroke-opacity:0.1; fill:none" points="
  279.704,1111.52 2352.76,1111.52 
  "/>
<polyline clip-path="url(#clip262)" style="stroke:#000000; stroke-linecap:butt; stroke-linejoin:round; stroke-width:2; stroke-opacity:0.1; fill:none" points="
  279.704,838.796 2352.76,838.796 
  "/>
<polyline clip-path="url(#clip262)" style="stroke:#000000; stroke-linecap:butt; stroke-linejoin:round; stroke-width:2; stroke-opacity:0.1; fill:none" points="
  279.704,566.075 2352.76,566.075 
  "/>
<polyline clip-path="url(#clip262)" style="stroke:#000000; stroke-linecap:butt; stroke-linejoin:round; stroke-width:2; stroke-opacity:0.1; fill:none" points="
  279.704,293.354 2352.76,293.354 
  "/>
<polyline clip-path="url(#clip260)" style="stroke:#000000; stroke-linecap:butt; stroke-linejoin:round; stroke-width:4; stroke-opacity:1; fill:none" points="
  279.704,1423.18 279.704,47.2441 
  "/>
<polyline clip-path="url(#clip260)" style="stroke:#000000; stroke-linecap:butt; stroke-linejoin:round; stroke-width:4; stroke-opacity:1; fill:none" points="
  279.704,1384.24 304.581,1384.24 
  "/>
<polyline clip-path="url(#clip260)" style="stroke:#000000; stroke-linecap:butt; stroke-linejoin:round; stroke-width:4; stroke-opacity:1; fill:none" points="
  279.704,1111.52 304.581,1111.52 
  "/>
<polyline clip-path="url(#clip260)" style="stroke:#000000; stroke-linecap:butt; stroke-linejoin:round; stroke-width:4; stroke-opacity:1; fill:none" points="
  279.704,838.796 304.581,838.796 
  "/>
<polyline clip-path="url(#clip260)" style="stroke:#000000; stroke-linecap:butt; stroke-linejoin:round; stroke-width:4; stroke-opacity:1; fill:none" points="
  279.704,566.075 304.581,566.075 
  "/>
<polyline clip-path="url(#clip260)" style="stroke:#000000; stroke-linecap:butt; stroke-linejoin:round; stroke-width:4; stroke-opacity:1; fill:none" points="
  279.704,293.354 304.581,293.354 
  "/>
<path clip-path="url(#clip260)" d="M126.205 1370.04 Q122.593 1370.04 120.765 1373.6 Q118.959 1377.14 118.959 1384.27 Q118.959 1391.38 120.765 1394.94 Q122.593 1398.49 126.205 1398.49 Q129.839 1398.49 131.644 1394.94 Q133.473 1391.38 133.473 1384.27 Q133.473 1377.14 131.644 1373.6 Q129.839 1370.04 126.205 1370.04 M126.205 1366.33 Q132.015 1366.33 135.07 1370.94 Q138.149 1375.52 138.149 1384.27 Q138.149 1393 135.07 1397.61 Q132.015 1402.19 126.205 1402.19 Q120.394 1402.19 117.316 1397.61 Q114.26 1393 114.26 1384.27 Q114.26 1375.52 117.316 1370.94 Q120.394 1366.33 126.205 1366.33 Z" fill="#000000" fill-rule="evenodd" fill-opacity="1" /><path clip-path="url(#clip260)" d="M146.366 1395.64 L151.251 1395.64 L151.251 1401.52 L146.366 1401.52 L146.366 1395.64 Z" fill="#000000" fill-rule="evenodd" fill-opacity="1" /><path clip-path="url(#clip260)" d="M171.436 1370.04 Q167.825 1370.04 165.996 1373.6 Q164.19 1377.14 164.19 1384.27 Q164.19 1391.38 165.996 1394.94 Q167.825 1398.49 171.436 1398.49 Q175.07 1398.49 176.876 1394.94 Q178.704 1391.38 178.704 1384.27 Q178.704 1377.14 176.876 1373.6 Q175.07 1370.04 171.436 1370.04 M171.436 1366.33 Q177.246 1366.33 180.301 1370.94 Q183.38 1375.52 183.38 1384.27 Q183.38 1393 180.301 1397.61 Q177.246 1402.19 171.436 1402.19 Q165.626 1402.19 162.547 1397.61 Q159.491 1393 159.491 1384.27 Q159.491 1375.52 162.547 1370.94 Q165.626 1366.33 171.436 1366.33 Z" fill="#000000" fill-rule="evenodd" fill-opacity="1" /><path clip-path="url(#clip260)" d="M201.598 1370.04 Q197.987 1370.04 196.158 1373.6 Q194.352 1377.14 194.352 1384.27 Q194.352 1391.38 196.158 1394.94 Q197.987 1398.49 201.598 1398.49 Q205.232 1398.49 207.037 1394.94 Q208.866 1391.38 208.866 1384.27 Q208.866 1377.14 207.037 1373.6 Q205.232 1370.04 201.598 1370.04 M201.598 1366.33 Q207.408 1366.33 210.463 1370.94 Q213.542 1375.52 213.542 1384.27 Q213.542 1393 210.463 1397.61 Q207.408 1402.19 201.598 1402.19 Q195.787 1402.19 192.709 1397.61 Q189.653 1393 189.653 1384.27 Q189.653 1375.52 192.709 1370.94 Q195.787 1366.33 201.598 1366.33 Z" fill="#000000" fill-rule="evenodd" fill-opacity="1" /><path clip-path="url(#clip260)" d="M231.76 1370.04 Q228.148 1370.04 226.32 1373.6 Q224.514 1377.14 224.514 1384.27 Q224.514 1391.38 226.32 1394.94 Q228.148 1398.49 231.76 1398.49 Q235.394 1398.49 237.199 1394.94 Q239.028 1391.38 239.028 1384.27 Q239.028 1377.14 237.199 1373.6 Q235.394 1370.04 231.76 1370.04 M231.76 1366.33 Q237.57 1366.33 240.625 1370.94 Q243.704 1375.52 243.704 1384.27 Q243.704 1393 240.625 1397.61 Q237.57 1402.19 231.76 1402.19 Q225.949 1402.19 222.871 1397.61 Q219.815 1393 219.815 1384.27 Q219.815 1375.52 222.871 1370.94 Q225.949 1366.33 231.76 1366.33 Z" fill="#000000" fill-rule="evenodd" fill-opacity="1" /><path clip-path="url(#clip260)" d="M127.2 1097.32 Q123.589 1097.32 121.76 1100.88 Q119.955 1104.42 119.955 1111.55 Q119.955 1118.66 121.76 1122.22 Q123.589 1125.76 127.2 1125.76 Q130.834 1125.76 132.64 1122.22 Q134.468 1118.66 134.468 1111.55 Q134.468 1104.42 132.64 1100.88 Q130.834 1097.32 127.2 1097.32 M127.2 1093.61 Q133.01 1093.61 136.066 1098.22 Q139.144 1102.8 139.144 1111.55 Q139.144 1120.28 136.066 1124.89 Q133.01 1129.47 127.2 1129.47 Q121.39 1129.47 118.311 1124.89 Q115.256 1120.28 115.256 1111.55 Q115.256 1102.8 118.311 1098.22 Q121.39 1093.61 127.2 1093.61 Z" fill="#000000" fill-rule="evenodd" fill-opacity="1" /><path clip-path="url(#clip260)" d="M147.362 1122.92 L152.246 1122.92 L152.246 1128.8 L147.362 1128.8 L147.362 1122.92 Z" fill="#000000" fill-rule="evenodd" fill-opacity="1" /><path clip-path="url(#clip260)" d="M172.431 1097.32 Q168.82 1097.32 166.991 1100.88 Q165.186 1104.42 165.186 1111.55 Q165.186 1118.66 166.991 1122.22 Q168.82 1125.76 172.431 1125.76 Q176.065 1125.76 177.871 1122.22 Q179.7 1118.66 179.7 1111.55 Q179.7 1104.42 177.871 1100.88 Q176.065 1097.32 172.431 1097.32 M172.431 1093.61 Q178.241 1093.61 181.297 1098.22 Q184.376 1102.8 184.376 1111.55 Q184.376 1120.28 181.297 1124.89 Q178.241 1129.47 172.431 1129.47 Q166.621 1129.47 163.542 1124.89 Q160.487 1120.28 160.487 1111.55 Q160.487 1102.8 163.542 1098.22 Q166.621 1093.61 172.431 1093.61 Z" fill="#000000" fill-rule="evenodd" fill-opacity="1" /><path clip-path="url(#clip260)" d="M202.593 1097.32 Q198.982 1097.32 197.153 1100.88 Q195.348 1104.42 195.348 1111.55 Q195.348 1118.66 197.153 1122.22 Q198.982 1125.76 202.593 1125.76 Q206.227 1125.76 208.033 1122.22 Q209.861 1118.66 209.861 1111.55 Q209.861 1104.42 208.033 1100.88 Q206.227 1097.32 202.593 1097.32 M202.593 1093.61 Q208.403 1093.61 211.459 1098.22 Q214.537 1102.8 214.537 1111.55 Q214.537 1120.28 211.459 1124.89 Q208.403 1129.47 202.593 1129.47 Q196.783 1129.47 193.704 1124.89 Q190.649 1120.28 190.649 1111.55 Q190.649 1102.8 193.704 1098.22 Q196.783 1093.61 202.593 1093.61 Z" fill="#000000" fill-rule="evenodd" fill-opacity="1" /><path clip-path="url(#clip260)" d="M222.801 1094.24 L241.158 1094.24 L241.158 1098.17 L227.084 1098.17 L227.084 1106.64 Q228.102 1106.3 229.121 1106.14 Q230.139 1105.95 231.158 1105.95 Q236.945 1105.95 240.324 1109.12 Q243.704 1112.29 243.704 1117.71 Q243.704 1123.29 240.232 1126.39 Q236.76 1129.47 230.44 1129.47 Q228.264 1129.47 225.996 1129.1 Q223.75 1128.73 221.343 1127.99 L221.343 1123.29 Q223.426 1124.42 225.648 1124.98 Q227.871 1125.53 230.347 1125.53 Q234.352 1125.53 236.69 1123.43 Q239.028 1121.32 239.028 1117.71 Q239.028 1114.1 236.69 1111.99 Q234.352 1109.89 230.347 1109.89 Q228.473 1109.89 226.598 1110.3 Q224.746 1110.72 222.801 1111.6 L222.801 1094.24 Z" fill="#000000" fill-rule="evenodd" fill-opacity="1" /><path clip-path="url(#clip260)" d="M126.205 824.595 Q122.593 824.595 120.765 828.16 Q118.959 831.701 118.959 838.831 Q118.959 845.937 120.765 849.502 Q122.593 853.044 126.205 853.044 Q129.839 853.044 131.644 849.502 Q133.473 845.937 133.473 838.831 Q133.473 831.701 131.644 828.16 Q129.839 824.595 126.205 824.595 M126.205 820.891 Q132.015 820.891 135.07 825.498 Q138.149 830.081 138.149 838.831 Q138.149 847.558 135.07 852.164 Q132.015 856.747 126.205 856.747 Q120.394 856.747 117.316 852.164 Q114.26 847.558 114.26 838.831 Q114.26 830.081 117.316 825.498 Q120.394 820.891 126.205 820.891 Z" fill="#000000" fill-rule="evenodd" fill-opacity="1" /><path clip-path="url(#clip260)" d="M146.366 850.197 L151.251 850.197 L151.251 856.076 L146.366 856.076 L146.366 850.197 Z" fill="#000000" fill-rule="evenodd" fill-opacity="1" /><path clip-path="url(#clip260)" d="M171.436 824.595 Q167.825 824.595 165.996 828.16 Q164.19 831.701 164.19 838.831 Q164.19 845.937 165.996 849.502 Q167.825 853.044 171.436 853.044 Q175.07 853.044 176.876 849.502 Q178.704 845.937 178.704 838.831 Q178.704 831.701 176.876 828.16 Q175.07 824.595 171.436 824.595 M171.436 820.891 Q177.246 820.891 180.301 825.498 Q183.38 830.081 183.38 838.831 Q183.38 847.558 180.301 852.164 Q177.246 856.747 171.436 856.747 Q165.626 856.747 162.547 852.164 Q159.491 847.558 159.491 838.831 Q159.491 830.081 162.547 825.498 Q165.626 820.891 171.436 820.891 Z" fill="#000000" fill-rule="evenodd" fill-opacity="1" /><path clip-path="url(#clip260)" d="M192.408 852.141 L200.047 852.141 L200.047 825.775 L191.737 827.442 L191.737 823.183 L200 821.516 L204.676 821.516 L204.676 852.141 L212.315 852.141 L212.315 856.076 L192.408 856.076 L192.408 852.141 Z" fill="#000000" fill-rule="evenodd" fill-opacity="1" /><path clip-path="url(#clip260)" d="M231.76 824.595 Q228.148 824.595 226.32 828.16 Q224.514 831.701 224.514 838.831 Q224.514 845.937 226.32 849.502 Q228.148 853.044 231.76 853.044 Q235.394 853.044 237.199 849.502 Q239.028 845.937 239.028 838.831 Q239.028 831.701 237.199 828.16 Q235.394 824.595 231.76 824.595 M231.76 820.891 Q237.57 820.891 240.625 825.498 Q243.704 830.081 243.704 838.831 Q243.704 847.558 240.625 852.164 Q237.57 856.747 231.76 856.747 Q225.949 856.747 222.871 852.164 Q219.815 847.558 219.815 838.831 Q219.815 830.081 222.871 825.498 Q225.949 820.891 231.76 820.891 Z" fill="#000000" fill-rule="evenodd" fill-opacity="1" /><path clip-path="url(#clip260)" d="M127.2 551.874 Q123.589 551.874 121.76 555.439 Q119.955 558.98 119.955 566.11 Q119.955 573.216 121.76 576.781 Q123.589 580.323 127.2 580.323 Q130.834 580.323 132.64 576.781 Q134.468 573.216 134.468 566.11 Q134.468 558.98 132.64 555.439 Q130.834 551.874 127.2 551.874 M127.2 548.17 Q133.01 548.17 136.066 552.777 Q139.144 557.36 139.144 566.11 Q139.144 574.837 136.066 579.443 Q133.01 584.026 127.2 584.026 Q121.39 584.026 118.311 579.443 Q115.256 574.837 115.256 566.11 Q115.256 557.36 118.311 552.777 Q121.39 548.17 127.2 548.17 Z" fill="#000000" fill-rule="evenodd" fill-opacity="1" /><path clip-path="url(#clip260)" d="M147.362 577.475 L152.246 577.475 L152.246 583.355 L147.362 583.355 L147.362 577.475 Z" fill="#000000" fill-rule="evenodd" fill-opacity="1" /><path clip-path="url(#clip260)" d="M172.431 551.874 Q168.82 551.874 166.991 555.439 Q165.186 558.98 165.186 566.11 Q165.186 573.216 166.991 576.781 Q168.82 580.323 172.431 580.323 Q176.065 580.323 177.871 576.781 Q179.7 573.216 179.7 566.11 Q179.7 558.98 177.871 555.439 Q176.065 551.874 172.431 551.874 M172.431 548.17 Q178.241 548.17 181.297 552.777 Q184.376 557.36 184.376 566.11 Q184.376 574.837 181.297 579.443 Q178.241 584.026 172.431 584.026 Q166.621 584.026 163.542 579.443 Q160.487 574.837 160.487 566.11 Q160.487 557.36 163.542 552.777 Q166.621 548.17 172.431 548.17 Z" fill="#000000" fill-rule="evenodd" fill-opacity="1" /><path clip-path="url(#clip260)" d="M193.403 579.42 L201.042 579.42 L201.042 553.054 L192.732 554.721 L192.732 550.462 L200.996 548.795 L205.672 548.795 L205.672 579.42 L213.311 579.42 L213.311 583.355 L193.403 583.355 L193.403 579.42 Z" fill="#000000" fill-rule="evenodd" fill-opacity="1" /><path clip-path="url(#clip260)" d="M222.801 548.795 L241.158 548.795 L241.158 552.73 L227.084 552.73 L227.084 561.202 Q228.102 560.855 229.121 560.693 Q230.139 560.508 231.158 560.508 Q236.945 560.508 240.324 563.679 Q243.704 566.851 243.704 572.267 Q243.704 577.846 240.232 580.948 Q236.76 584.026 230.44 584.026 Q228.264 584.026 225.996 583.656 Q223.75 583.286 221.343 582.545 L221.343 577.846 Q223.426 578.98 225.648 579.536 Q227.871 580.091 230.347 580.091 Q234.352 580.091 236.69 577.985 Q239.028 575.878 239.028 572.267 Q239.028 568.656 236.69 566.55 Q234.352 564.443 230.347 564.443 Q228.473 564.443 226.598 564.86 Q224.746 565.276 222.801 566.156 L222.801 548.795 Z" fill="#000000" fill-rule="evenodd" fill-opacity="1" /><path clip-path="url(#clip260)" d="M126.205 279.153 Q122.593 279.153 120.765 282.718 Q118.959 286.259 118.959 293.389 Q118.959 300.495 120.765 304.06 Q122.593 307.602 126.205 307.602 Q129.839 307.602 131.644 304.06 Q133.473 300.495 133.473 293.389 Q133.473 286.259 131.644 282.718 Q129.839 279.153 126.205 279.153 M126.205 275.449 Q132.015 275.449 135.07 280.055 Q138.149 284.639 138.149 293.389 Q138.149 302.116 135.07 306.722 Q132.015 311.305 126.205 311.305 Q120.394 311.305 117.316 306.722 Q114.26 302.116 114.26 293.389 Q114.26 284.639 117.316 280.055 Q120.394 275.449 126.205 275.449 Z" fill="#000000" fill-rule="evenodd" fill-opacity="1" /><path clip-path="url(#clip260)" d="M146.366 304.754 L151.251 304.754 L151.251 310.634 L146.366 310.634 L146.366 304.754 Z" fill="#000000" fill-rule="evenodd" fill-opacity="1" /><path clip-path="url(#clip260)" d="M171.436 279.153 Q167.825 279.153 165.996 282.718 Q164.19 286.259 164.19 293.389 Q164.19 300.495 165.996 304.06 Q167.825 307.602 171.436 307.602 Q175.07 307.602 176.876 304.06 Q178.704 300.495 178.704 293.389 Q178.704 286.259 176.876 282.718 Q175.07 279.153 171.436 279.153 M171.436 275.449 Q177.246 275.449 180.301 280.055 Q183.38 284.639 183.38 293.389 Q183.38 302.116 180.301 306.722 Q177.246 311.305 171.436 311.305 Q165.626 311.305 162.547 306.722 Q159.491 302.116 159.491 293.389 Q159.491 284.639 162.547 280.055 Q165.626 275.449 171.436 275.449 Z" fill="#000000" fill-rule="evenodd" fill-opacity="1" /><path clip-path="url(#clip260)" d="M195.625 306.699 L211.945 306.699 L211.945 310.634 L190 310.634 L190 306.699 Q192.663 303.944 197.246 299.315 Q201.852 294.662 203.033 293.319 Q205.278 290.796 206.158 289.06 Q207.061 287.301 207.061 285.611 Q207.061 282.856 205.116 281.12 Q203.195 279.384 200.093 279.384 Q197.894 279.384 195.44 280.148 Q193.01 280.912 190.232 282.463 L190.232 277.741 Q193.056 276.606 195.51 276.028 Q197.963 275.449 200 275.449 Q205.371 275.449 208.565 278.134 Q211.76 280.819 211.76 285.31 Q211.76 287.44 210.949 289.361 Q210.162 291.259 208.056 293.852 Q207.477 294.523 204.375 297.741 Q201.274 300.935 195.625 306.699 Z" fill="#000000" fill-rule="evenodd" fill-opacity="1" /><path clip-path="url(#clip260)" d="M231.76 279.153 Q228.148 279.153 226.32 282.718 Q224.514 286.259 224.514 293.389 Q224.514 300.495 226.32 304.06 Q228.148 307.602 231.76 307.602 Q235.394 307.602 237.199 304.06 Q239.028 300.495 239.028 293.389 Q239.028 286.259 237.199 282.718 Q235.394 279.153 231.76 279.153 M231.76 275.449 Q237.57 275.449 240.625 280.055 Q243.704 284.639 243.704 293.389 Q243.704 302.116 240.625 306.722 Q237.57 311.305 231.76 311.305 Q225.949 311.305 222.871 306.722 Q219.815 302.116 219.815 293.389 Q219.815 284.639 222.871 280.055 Q225.949 275.449 231.76 275.449 Z" fill="#000000" fill-rule="evenodd" fill-opacity="1" /><path clip-path="url(#clip260)" d="M21.7677 788.557 L39.6235 788.557 L39.6235 780.472 Q39.6235 775.984 37.3 773.534 Q34.9765 771.083 30.6797 771.083 Q26.4147 771.083 24.0912 773.534 Q21.7677 775.984 21.7677 780.472 L21.7677 788.557 M16.4842 794.986 L16.4842 780.472 Q16.4842 772.483 20.1126 768.409 Q23.7092 764.303 30.6797 764.303 Q37.7138 764.303 41.3104 768.409 Q44.907 772.483 44.907 780.472 L44.907 788.557 L64.0042 788.557 L64.0042 794.986 L16.4842 794.986 Z" fill="#000000" fill-rule="evenodd" fill-opacity="1" /><path clip-path="url(#clip260)" d="M14.5426 741.864 Q21.8632 746.129 29.0246 748.198 Q36.186 750.267 43.5384 750.267 Q50.8908 750.267 58.1159 748.198 Q65.3091 746.097 72.5979 741.864 L72.5979 746.957 Q65.1182 751.731 57.8931 754.118 Q50.668 756.473 43.5384 756.473 Q36.4406 756.473 29.2474 754.118 Q22.0542 751.763 14.5426 746.957 L14.5426 741.864 Z" fill="#000000" fill-rule="evenodd" fill-opacity="1" /><path clip-path="url(#clip260)" d="M58.657 724.836 L77.5631 724.836 L77.5631 730.724 L28.3562 730.724 L28.3562 724.836 L33.7671 724.836 Q30.5842 722.99 29.0564 720.189 Q27.4968 717.356 27.4968 713.441 Q27.4968 706.948 32.6531 702.906 Q37.8093 698.832 46.212 698.832 Q54.6147 698.832 59.771 702.906 Q64.9272 706.948 64.9272 713.441 Q64.9272 717.356 63.3994 720.189 Q61.8398 722.99 58.657 724.836 M46.212 704.911 Q39.7508 704.911 36.0905 707.585 Q32.3984 710.227 32.3984 714.874 Q32.3984 719.521 36.0905 722.194 Q39.7508 724.836 46.212 724.836 Q52.6732 724.836 56.3653 722.194 Q60.0256 719.521 60.0256 714.874 Q60.0256 710.227 56.3653 707.585 Q52.6732 704.911 46.212 704.911 Z" fill="#000000" fill-rule="evenodd" fill-opacity="1" /><path clip-path="url(#clip260)" d="M14.5426 690.047 L14.5426 684.955 Q22.0542 680.18 29.2474 677.825 Q36.4406 675.438 43.5384 675.438 Q50.668 675.438 57.8931 677.825 Q65.1182 680.18 72.5979 684.955 L72.5979 690.047 Q65.3091 685.814 58.1159 683.745 Q50.8908 681.645 43.5384 681.645 Q36.186 681.645 29.0246 683.745 Q21.8632 685.814 14.5426 690.047 Z" fill="#000000" fill-rule="evenodd" fill-opacity="1" /><polyline clip-path="url(#clip262)" style="stroke:#009af9; stroke-linecap:butt; stroke-linejoin:round; stroke-width:4; stroke-opacity:1; fill:none" points="
  545.603,1384.24 545.603,1384.23 558.554,1384.23 558.554,1384.23 571.506,1384.23 571.506,1384.2 584.458,1384.2 584.458,1384.02 597.41,1384.02 597.41,1383.8 
  610.361,1383.8 610.361,1383.57 623.313,1383.57 623.313,1383.03 636.265,1383.03 636.265,1382.26 649.216,1382.26 649.216,1381.1 662.168,1381.1 662.168,1378.92 
  675.12,1378.92 675.12,1376.02 688.072,1376.02 688.072,1370.79 701.023,1370.79 701.023,1364.2 713.975,1364.2 713.975,1356.28 726.927,1356.28 726.927,1345.59 
  739.878,1345.59 739.878,1330.11 752.83,1330.11 752.83,1312.52 765.782,1312.52 765.782,1287.31 778.734,1287.31 778.734,1260.53 791.685,1260.53 791.685,1227.2 
  804.637,1227.2 804.637,1189.33 817.589,1189.33 817.589,1149.69 830.54,1149.69 830.54,1099.6 843.492,1099.6 843.492,1050.83 856.444,1050.83 856.444,992.612 
  869.396,992.612 869.396,933.491 882.347,933.491 882.347,872.492 895.299,872.492 895.299,815.035 908.251,815.035 908.251,745.139 921.203,745.139 921.203,683.801 
  934.154,683.801 934.154,630.838 947.106,630.838 947.106,569.256 960.058,569.256 960.058,518.911 973.009,518.911 973.009,466.357 985.961,466.357 985.961,424.454 
  998.913,424.454 998.913,391.249 1011.86,391.249 1011.86,351.998 1024.82,351.998 1024.82,324.033 1037.77,324.033 1037.77,303.615 1050.72,303.615 1050.72,275.964 
  1063.67,275.964 1063.67,265.429 1076.62,265.429 1076.62,247.591 1089.57,247.591 1089.57,236.659 1102.53,236.659 1102.53,232.562 1115.48,232.562 1115.48,225.302 
  1128.43,225.302 1128.43,221.709 1141.38,221.709 1141.38,226.652 1154.33,226.652 1154.33,225.864 1167.29,225.864 1167.29,231.261 1180.24,231.261 1180.24,240.372 
  1193.19,240.372 1193.19,243.738 1206.14,243.738 1206.14,253.051 1219.09,253.051 1219.09,257.532 1232.04,257.532 1232.04,278.286 1245,278.286 1245,283.171 
  1257.95,283.171 1257.95,304.3 1270.9,304.3 1270.9,314.737 1283.85,314.737 1283.85,334.292 1296.8,334.292 1296.8,348.974 1309.75,348.974 1309.75,372.767 
  1322.71,372.767 1322.71,391.637 1335.66,391.637 1335.66,414.773 1348.61,414.773 1348.61,444.757 1361.56,444.757 1361.56,467.216 1374.51,467.216 1374.51,493.16 
  1387.46,493.16 1387.46,522.5 1400.42,522.5 1400.42,550.559 1413.37,550.559 1413.37,579.903 1426.32,579.903 1426.32,615.656 1439.27,615.656 1439.27,648.919 
  1452.22,648.919 1452.22,687.315 1465.17,687.315 1465.17,721.02 1478.13,721.02 1478.13,753.61 1491.08,753.61 1491.08,789.648 1504.03,789.648 1504.03,826.896 
  1516.98,826.896 1516.98,860.469 1529.93,860.469 1529.93,894.467 1542.88,894.467 1542.88,925.702 1555.84,925.702 1555.84,961.323 1568.79,961.323 1568.79,990.448 
  1581.74,990.448 1581.74,1020.14 1594.69,1020.14 1594.69,1048.54 1607.64,1048.54 1607.64,1079.18 1620.6,1079.18 1620.6,1106.58 1633.55,1106.58 1633.55,1130.74 
  1646.5,1130.74 1646.5,1155.83 1659.45,1155.83 1659.45,1176.15 1672.4,1176.15 1672.4,1197.91 1685.35,1197.91 1685.35,1215.25 1698.31,1215.25 1698.31,1232.48 
  1711.26,1232.48 1711.26,1250.01 1724.21,1250.01 1724.21,1264.77 1737.16,1264.77 1737.16,1278.64 1750.11,1278.64 1750.11,1289.33 1763.06,1289.33 1763.06,1302.09 
  1776.02,1302.09 1776.02,1310.65 1788.97,1310.65 1788.97,1319.76 1801.92,1319.76 1801.92,1328.69 1814.87,1328.69 1814.87,1335.81 1827.82,1335.81 1827.82,1342.59 
  1840.77,1342.59 1840.77,1347.76 1853.73,1347.76 1853.73,1352.95 1866.68,1352.95 1866.68,1357.25 1879.63,1357.25 1879.63,1361.04 1892.58,1361.04 1892.58,1364.68 
  1905.53,1364.68 1905.53,1366.5 1918.48,1366.5 1918.48,1369.82 1931.44,1369.82 1931.44,1372.31 1944.39,1372.31 1944.39,1373.7 1957.34,1373.7 1957.34,1376.07 
  1970.29,1376.07 1970.29,1377.19 1983.24,1377.19 1983.24,1378.52 1996.2,1378.52 1996.2,1379.63 2009.15,1379.63 2009.15,1380.21 2022.1,1380.21 2022.1,1381.06 
  2035.05,1381.06 2035.05,1381.53 2048,1381.53 2048,1381.88 2060.95,1381.88 2060.95,1382.58 2073.91,1382.58 2073.91,1382.87 2086.86,1382.87 2086.86,1383.23 
  2099.81,1383.23 2099.81,1383.26 2112.76,1383.26 2112.76,1383.46 2125.71,1383.46 2125.71,1383.63 2138.66,1383.63 2138.66,1383.68 2151.62,1383.68 2151.62,1383.9 
  2164.57,1383.9 2164.57,1383.99 2177.52,1383.99 2177.52,1384.08 2190.47,1384.08 2190.47,1384.05 2203.42,1384.05 2203.42,1384.15 2216.37,1384.15 2216.37,1384.14 
  2229.33,1384.14 2229.33,1384.11 2242.28,1384.11 2242.28,1384.18 2255.23,1384.18 2255.23,1384.19 2268.18,1384.19 2268.18,1384.18 2281.13,1384.18 2281.13,1384.18 
  2294.08,1384.18 2294.08,1384.24 
  "/>
<polyline clip-path="url(#clip262)" style="stroke:#e26f46; stroke-linecap:butt; stroke-linejoin:round; stroke-width:12; stroke-opacity:1; fill:none" points="
  338.375,1383.47 339.67,1383.46 340.966,1383.44 342.261,1383.42 343.556,1383.4 344.851,1383.38 346.146,1383.36 347.441,1383.34 348.737,1383.32 350.032,1383.3 
  351.327,1383.28 352.622,1383.26 353.917,1383.24 355.212,1383.22 356.508,1383.19 357.803,1383.17 359.098,1383.15 360.393,1383.12 361.688,1383.1 362.983,1383.07 
  364.279,1383.05 365.574,1383.02 366.869,1383 368.164,1382.97 369.459,1382.94 370.754,1382.91 372.05,1382.88 373.345,1382.85 374.64,1382.82 375.935,1382.79 
  377.23,1382.76 378.526,1382.73 379.821,1382.7 381.116,1382.66 382.411,1382.63 383.706,1382.59 385.001,1382.56 386.297,1382.52 387.592,1382.49 388.887,1382.45 
  390.182,1382.41 391.477,1382.37 392.772,1382.33 394.068,1382.29 395.363,1382.25 396.658,1382.21 397.953,1382.17 399.248,1382.12 400.543,1382.08 401.839,1382.03 
  403.134,1381.99 404.429,1381.94 405.724,1381.89 407.019,1381.84 408.314,1381.79 409.61,1381.74 410.905,1381.69 412.2,1381.63 413.495,1381.58 414.79,1381.53 
  416.085,1381.47 417.381,1381.41 418.676,1381.35 419.971,1381.3 421.266,1381.24 422.561,1381.17 423.857,1381.11 425.152,1381.05 426.447,1380.98 427.742,1380.92 
  429.037,1380.85 430.332,1380.78 431.628,1380.71 432.923,1380.64 434.218,1380.57 435.513,1380.49 436.808,1380.42 438.103,1380.34 439.399,1380.26 440.694,1380.18 
  441.989,1380.1 443.284,1380.02 444.579,1379.94 445.874,1379.85 447.17,1379.76 448.465,1379.67 449.76,1379.58 451.055,1379.49 452.35,1379.4 453.645,1379.3 
  454.941,1379.21 456.236,1379.11 457.531,1379.01 458.826,1378.91 460.121,1378.8 461.417,1378.7 462.712,1378.59 464.007,1378.48 465.302,1378.37 466.597,1378.26 
  467.892,1378.14 469.188,1378.02 470.483,1377.9 471.778,1377.78 473.073,1377.66 474.368,1377.53 475.663,1377.41 476.959,1377.28 478.254,1377.14 479.549,1377.01 
  480.844,1376.87 482.139,1376.73 483.434,1376.59 484.73,1376.45 486.025,1376.3 487.32,1376.15 488.615,1376 489.91,1375.85 491.205,1375.69 492.501,1375.53 
  493.796,1375.37 495.091,1375.21 496.386,1375.04 497.681,1374.87 498.976,1374.7 500.272,1374.52 501.567,1374.34 502.862,1374.16 504.157,1373.98 505.452,1373.79 
  506.748,1373.6 508.043,1373.41 509.338,1373.21 510.633,1373.01 511.928,1372.81 513.223,1372.6 514.519,1372.39 515.814,1372.18 517.109,1371.96 518.404,1371.74 
  519.699,1371.52 520.994,1371.29 522.29,1371.06 523.585,1370.83 524.88,1370.59 526.175,1370.35 527.47,1370.1 528.765,1369.85 530.061,1369.6 531.356,1369.34 
  532.651,1369.08 533.946,1368.82 535.241,1368.55 536.536,1368.28 537.832,1368 539.127,1367.72 540.422,1367.43 541.717,1367.14 543.012,1366.84 544.308,1366.55 
  545.603,1366.24 546.898,1365.93 548.193,1365.62 549.488,1365.3 550.783,1364.98 552.079,1364.65 553.374,1364.32 554.669,1363.98 555.964,1363.64 557.259,1363.29 
  558.554,1362.94 559.85,1362.58 561.145,1362.22 562.44,1361.85 563.735,1361.48 565.03,1361.1 566.325,1360.71 567.621,1360.32 568.916,1359.92 570.211,1359.52 
  571.506,1359.12 572.801,1358.7 574.096,1358.28 575.392,1357.86 576.687,1357.43 577.982,1356.99 579.277,1356.54 580.572,1356.09 581.867,1355.64 583.163,1355.18 
  584.458,1354.71 585.753,1354.23 587.048,1353.75 588.343,1353.26 589.639,1352.76 590.934,1352.26 592.229,1351.75 593.524,1351.23 594.819,1350.71 596.114,1350.18 
  597.41,1349.64 598.705,1349.1 600,1348.54 601.295,1347.98 602.59,1347.42 603.885,1346.84 605.181,1346.26 606.476,1345.67 607.771,1345.07 609.066,1344.46 
  610.361,1343.85 611.656,1343.22 612.952,1342.59 614.247,1341.95 615.542,1341.31 616.837,1340.65 618.132,1339.99 619.427,1339.31 620.723,1338.63 622.018,1337.94 
  623.313,1337.24 624.608,1336.53 625.903,1335.82 627.199,1335.09 628.494,1334.35 629.789,1333.61 631.084,1332.85 632.379,1332.09 633.674,1331.32 634.97,1330.53 
  636.265,1329.74 637.56,1328.94 638.855,1328.13 640.15,1327.3 641.445,1326.47 642.741,1325.63 644.036,1324.78 645.331,1323.91 646.626,1323.04 647.921,1322.15 
  649.216,1321.26 650.512,1320.35 651.807,1319.44 653.102,1318.51 654.397,1317.57 655.692,1316.62 656.987,1315.66 658.283,1314.69 659.578,1313.7 660.873,1312.71 
  662.168,1311.7 663.463,1310.68 664.758,1309.65 666.054,1308.61 667.349,1307.56 668.644,1306.49 669.939,1305.42 671.234,1304.33 672.53,1303.22 673.825,1302.11 
  675.12,1300.98 676.415,1299.84 677.71,1298.69 679.005,1297.52 680.301,1296.34 681.596,1295.15 682.891,1293.95 684.186,1292.73 685.481,1291.5 686.776,1290.26 
  688.072,1289 689.367,1287.73 690.662,1286.44 691.957,1285.14 693.252,1283.83 694.547,1282.51 695.843,1281.17 697.138,1279.81 698.433,1278.44 699.728,1277.06 
  701.023,1275.66 702.318,1274.25 703.614,1272.82 704.909,1271.38 706.204,1269.93 707.499,1268.46 708.794,1266.97 710.09,1265.47 711.385,1263.96 712.68,1262.43 
  713.975,1260.88 715.27,1259.32 716.565,1257.74 717.861,1256.15 719.156,1254.54 720.451,1252.92 721.746,1251.28 723.041,1249.62 724.336,1247.95 725.632,1246.26 
  726.927,1244.56 728.222,1242.84 729.517,1241.1 730.812,1239.35 732.107,1237.58 733.403,1235.8 734.698,1233.99 735.993,1232.17 737.288,1230.34 738.583,1228.49 
  739.878,1226.62 741.174,1224.73 742.469,1222.83 743.764,1220.91 745.059,1218.97 746.354,1217.01 747.649,1215.04 748.945,1213.05 750.24,1211.04 751.535,1209.02 
  752.83,1206.97 754.125,1204.91 755.421,1202.84 756.716,1200.74 758.011,1198.63 759.306,1196.49 760.601,1194.34 761.896,1192.17 763.192,1189.99 764.487,1187.78 
  765.782,1185.56 767.077,1183.32 768.372,1181.06 769.667,1178.78 770.963,1176.49 772.258,1174.17 773.553,1171.84 774.848,1169.49 776.143,1167.12 777.438,1164.73 
  778.734,1162.32 780.029,1159.89 781.324,1157.44 782.619,1154.98 783.914,1152.5 785.209,1149.99 786.505,1147.47 787.8,1144.93 789.095,1142.37 790.39,1139.79 
  791.685,1137.2 792.98,1134.58 794.276,1131.94 795.571,1129.29 796.866,1126.61 798.161,1123.92 799.456,1121.21 800.752,1118.48 802.047,1115.73 803.342,1112.96 
  804.637,1110.17 805.932,1107.36 807.227,1104.53 808.523,1101.68 809.818,1098.82 811.113,1095.93 812.408,1093.02 813.703,1090.1 814.998,1087.16 816.294,1084.19 
  817.589,1081.21 818.884,1078.21 820.179,1075.19 821.474,1072.15 822.769,1069.09 824.065,1066.01 825.36,1062.91 826.655,1059.8 827.95,1056.66 829.245,1053.51 
  830.54,1050.33 831.836,1047.14 833.131,1043.93 834.426,1040.7 835.721,1037.45 837.016,1034.18 838.312,1030.9 839.607,1027.59 840.902,1024.27 842.197,1020.92 
  843.492,1017.56 844.787,1014.18 846.083,1010.78 847.378,1007.37 848.673,1003.93 849.968,1000.48 851.263,997.007 852.558,993.518 853.854,990.01 855.149,986.484 
  856.444,982.941 857.739,979.38 859.034,975.801 860.329,972.204 861.625,968.59 862.92,964.958 864.215,961.309 865.51,957.643 866.805,953.96 868.1,950.26 
  869.396,946.542 870.691,942.808 871.986,939.058 873.281,935.29 874.576,931.506 875.871,927.706 877.167,923.89 878.462,920.057 879.757,916.209 881.052,912.344 
  882.347,908.464 883.643,904.569 884.938,900.657 886.233,896.731 887.528,892.789 888.823,888.833 890.118,884.861 891.414,880.875 892.709,876.875 894.004,872.859 
  895.299,868.83 896.594,864.787 897.889,860.729 899.185,856.658 900.48,852.574 901.775,848.476 903.07,844.364 904.365,840.24 905.66,836.103 906.956,831.953 
  908.251,827.791 909.546,823.616 910.841,819.429 912.136,815.231 913.431,811.021 914.727,806.799 916.022,802.566 917.317,798.321 918.612,794.066 919.907,789.801 
  921.203,785.524 922.498,781.238 923.793,776.941 925.088,772.635 926.383,768.319 927.678,763.994 928.974,759.66 930.269,755.316 931.564,750.965 932.859,746.604 
  934.154,742.236 935.449,737.859 936.745,733.475 938.04,729.084 939.335,724.685 940.63,720.279 941.925,715.867 943.22,711.448 944.516,707.023 945.811,702.592 
  947.106,698.156 948.401,693.714 949.696,689.267 950.991,684.815 952.287,680.358 953.582,675.898 954.877,671.433 956.172,666.964 957.467,662.493 958.762,658.017 
  960.058,653.539 961.353,649.059 962.648,644.576 963.943,640.091 965.238,635.605 966.534,631.116 967.829,626.627 969.124,622.137 970.419,617.647 971.714,613.156 
  973.009,608.665 974.305,604.175 975.6,599.686 976.895,595.197 978.19,590.71 979.485,586.224 980.78,581.74 982.076,577.259 983.371,572.78 984.666,568.304 
  985.961,563.832 987.256,559.363 988.551,554.897 989.847,550.436 991.142,545.98 992.437,541.528 993.732,537.082 995.027,532.641 996.322,528.205 997.618,523.777 
  998.913,519.354 1000.21,514.939 1001.5,510.53 1002.8,506.129 1004.09,501.736 1005.39,497.351 1006.68,492.975 1007.98,488.608 1009.27,484.25 1010.57,479.901 
  1011.86,475.562 1013.16,471.234 1014.45,466.916 1015.75,462.609 1017.05,458.314 1018.34,454.03 1019.64,449.758 1020.93,445.498 1022.23,441.251 1023.52,437.017 
  1024.82,432.796 1026.11,428.589 1027.41,424.396 1028.7,420.218 1030,416.054 1031.29,411.906 1032.59,407.772 1033.88,403.655 1035.18,399.554 1036.47,395.469 
  1037.77,391.401 1039.06,387.351 1040.36,383.317 1041.65,379.302 1042.95,375.305 1044.24,371.326 1045.54,367.367 1046.83,363.427 1048.13,359.506 1049.42,355.605 
  1050.72,351.724 1052.01,347.865 1053.31,344.026 1054.61,340.208 1055.9,336.412 1057.2,332.638 1058.49,328.886 1059.79,325.157 1061.08,321.451 1062.38,317.769 
  1063.67,314.11 1064.97,310.474 1066.26,306.864 1067.56,303.277 1068.85,299.716 1070.15,296.18 1071.44,292.67 1072.74,289.186 1074.03,285.728 1075.33,282.296 
  1076.62,278.892 1077.92,275.514 1079.21,272.164 1080.51,268.842 1081.8,265.548 1083.1,262.283 1084.39,259.046 1085.69,255.839 1086.98,252.66 1088.28,249.512 
  1089.57,246.393 1090.87,243.305 1092.17,240.247 1093.46,237.22 1094.76,234.224 1096.05,231.259 1097.35,228.326 1098.64,225.425 1099.94,222.557 1101.23,219.721 
  1102.53,216.917 1103.82,214.147 1105.12,211.41 1106.41,208.707 1107.71,206.038 1109,203.402 1110.3,200.801 1111.59,198.235 1112.89,195.704 1114.18,193.207 
  1115.48,190.746 1116.77,188.321 1118.07,185.931 1119.36,183.578 1120.66,181.261 1121.95,178.98 1123.25,176.737 1124.54,174.53 1125.84,172.36 1127.13,170.228 
  1128.43,168.133 1129.73,166.077 1131.02,164.058 1132.32,162.077 1133.61,160.135 1134.91,158.232 1136.2,156.367 1137.5,154.542 1138.79,152.756 1140.09,151.008 
  1141.38,149.301 1142.68,147.633 1143.97,146.005 1145.27,144.418 1146.56,142.87 1147.86,141.363 1149.15,139.896 1150.45,138.47 1151.74,137.085 1153.04,135.74 
  1154.33,134.437 1155.63,133.175 1156.92,131.954 1158.22,130.775 1159.51,129.637 1160.81,128.541 1162.1,127.487 1163.4,126.475 1164.69,125.504 1165.99,124.576 
  1167.29,123.69 1168.58,122.847 1169.88,122.045 1171.17,121.287 1172.47,120.57 1173.76,119.897 1175.06,119.266 1176.35,118.677 1177.65,118.132 1178.94,117.63 
  1180.24,117.17 1181.53,116.753 1182.83,116.38 1184.12,116.049 1185.42,115.761 1186.71,115.517 1188.01,115.316 1189.3,115.158 1190.6,115.043 1191.89,114.971 
  1193.19,114.942 1194.48,114.957 1195.78,115.014 1197.07,115.115 1198.37,115.259 1199.66,115.447 1200.96,115.677 1202.25,115.951 1203.55,116.267 1204.85,116.627 
  1206.14,117.029 1207.44,117.475 1208.73,117.964 1210.03,118.495 1211.32,119.069 1212.62,119.686 1213.91,120.346 1215.21,121.048 1216.5,121.793 1217.8,122.581 
  1219.09,123.411 1220.39,124.283 1221.68,125.197 1222.98,126.154 1224.27,127.152 1225.57,128.193 1226.86,129.275 1228.16,130.4 1229.45,131.565 1230.75,132.772 
  1232.04,134.021 1233.34,135.311 1234.63,136.642 1235.93,138.014 1237.22,139.427 1238.52,140.88 1239.81,142.374 1241.11,143.909 1242.41,145.484 1243.7,147.098 
  1245,148.753 1246.29,150.448 1247.59,152.182 1248.88,153.955 1250.18,155.768 1251.47,157.62 1252.77,159.511 1254.06,161.44 1255.36,163.408 1256.65,165.415 
  1257.95,167.459 1259.24,169.541 1260.54,171.661 1261.83,173.819 1263.13,176.013 1264.42,178.245 1265.72,180.514 1267.01,182.819 1268.31,185.161 1269.6,187.538 
  1270.9,189.952 1272.19,192.401 1273.49,194.886 1274.78,197.406 1276.08,199.961 1277.37,202.551 1278.67,205.175 1279.97,207.833 1281.26,210.526 1282.56,213.252 
  1283.85,216.011 1285.15,218.804 1286.44,221.629 1287.74,224.487 1289.03,227.378 1290.33,230.3 1291.62,233.254 1292.92,236.24 1294.21,239.257 1295.51,242.305 
  1296.8,245.383 1298.1,248.492 1299.39,251.631 1300.69,254.8 1301.98,257.998 1303.28,261.225 1304.57,264.481 1305.87,267.766 1307.16,271.079 1308.46,274.42 
  1309.75,277.788 1311.05,281.184 1312.34,284.607 1313.64,288.056 1314.93,291.532 1316.23,295.034 1317.53,298.561 1318.82,302.114 1320.12,305.692 1321.41,309.295 
  1322.71,312.922 1324,316.574 1325.3,320.249 1326.59,323.947 1327.89,327.669 1329.18,331.413 1330.48,335.18 1331.77,338.969 1333.07,342.779 1334.36,346.611 
  1335.66,350.464 1336.95,354.338 1338.25,358.232 1339.54,362.147 1340.84,366.081 1342.13,370.034 1343.43,374.006 1344.72,377.998 1346.02,382.007 1347.31,386.034 
  1348.61,390.079 1349.9,394.142 1351.2,398.221 1352.49,402.317 1353.79,406.429 1355.09,410.557 1356.38,414.701 1357.68,418.859 1358.97,423.033 1360.27,427.221 
  1361.56,431.424 1362.86,435.64 1364.15,439.87 1365.45,444.113 1366.74,448.368 1368.04,452.636 1369.33,456.916 1370.63,461.208 1371.92,465.511 1373.22,469.826 
  1374.51,474.151 1375.81,478.486 1377.1,482.832 1378.4,487.187 1379.69,491.551 1380.99,495.924 1382.28,500.307 1383.58,504.697 1384.87,509.095 1386.17,513.501 
  1387.46,517.914 1388.76,522.335 1390.05,526.762 1391.35,531.195 1392.65,535.634 1393.94,540.079 1395.24,544.529 1396.53,548.984 1397.83,553.443 1399.12,557.907 
  1400.42,562.375 1401.71,566.846 1403.01,571.321 1404.3,575.799 1405.6,580.28 1406.89,584.763 1408.19,589.248 1409.48,593.735 1410.78,598.223 1412.07,602.712 
  1413.37,607.202 1414.66,611.693 1415.96,616.183 1417.25,620.674 1418.55,625.164 1419.84,629.654 1421.14,634.142 1422.43,638.629 1423.73,643.115 1425.02,647.598 
  1426.32,652.08 1427.61,656.559 1428.91,661.035 1430.21,665.508 1431.5,669.977 1432.8,674.443 1434.09,678.905 1435.39,683.363 1436.68,687.817 1437.98,692.265 
  1439.27,696.709 1440.57,701.147 1441.86,705.58 1443.16,710.007 1444.45,714.428 1445.75,718.842 1447.04,723.25 1448.34,727.651 1449.63,732.045 1450.93,736.432 
  1452.22,740.81 1453.52,745.182 1454.81,749.545 1456.11,753.899 1457.4,758.245 1458.7,762.583 1459.99,766.911 1461.29,771.23 1462.58,775.539 1463.88,779.839 
  1465.17,784.129 1466.47,788.408 1467.77,792.677 1469.06,796.936 1470.36,801.184 1471.65,805.421 1472.95,809.646 1474.24,813.86 1475.54,818.063 1476.83,822.253 
  1478.13,826.432 1479.42,830.598 1480.72,834.752 1482.01,838.893 1483.31,843.022 1484.6,847.137 1485.9,851.24 1487.19,855.329 1488.49,859.404 1489.78,863.466 
  1491.08,867.514 1492.37,871.548 1493.67,875.568 1494.96,879.573 1496.26,883.564 1497.55,887.54 1498.85,891.502 1500.14,895.448 1501.44,899.38 1502.73,903.296 
  1504.03,907.196 1505.32,911.082 1506.62,914.951 1507.92,918.805 1509.21,922.643 1510.51,926.464 1511.8,930.27 1513.1,934.059 1514.39,937.832 1515.69,941.588 
  1516.98,945.327 1518.28,949.05 1519.57,952.756 1520.87,956.445 1522.16,960.117 1523.46,963.771 1524.75,967.408 1526.05,971.028 1527.34,974.63 1528.64,978.215 
  1529.93,981.782 1531.23,985.332 1532.52,988.863 1533.82,992.376 1535.11,995.872 1536.41,999.349 1537.7,1002.81 1539,1006.25 1540.29,1009.67 1541.59,1013.08 
  1542.88,1016.46 1544.18,1019.83 1545.48,1023.18 1546.77,1026.51 1548.07,1029.82 1549.36,1033.11 1550.66,1036.39 1551.95,1039.64 1553.25,1042.88 1554.54,1046.1 
  1555.84,1049.3 1557.13,1052.48 1558.43,1055.64 1559.72,1058.78 1561.02,1061.9 1562.31,1065 1563.61,1068.09 1564.9,1071.15 1566.2,1074.2 1567.49,1077.23 
  1568.79,1080.23 1570.08,1083.22 1571.38,1086.19 1572.67,1089.14 1573.97,1092.07 1575.26,1094.98 1576.56,1097.88 1577.85,1100.75 1579.15,1103.6 1580.44,1106.44 
  1581.74,1109.25 1583.04,1112.05 1584.33,1114.83 1585.63,1117.58 1586.92,1120.32 1588.22,1123.04 1589.51,1125.74 1590.81,1128.42 1592.1,1131.08 1593.4,1133.72 
  1594.69,1136.35 1595.99,1138.95 1597.28,1141.53 1598.58,1144.1 1599.87,1146.65 1601.17,1149.17 1602.46,1151.68 1603.76,1154.17 1605.05,1156.64 1606.35,1159.1 
  1607.64,1161.53 1608.94,1163.94 1610.23,1166.34 1611.53,1168.72 1612.82,1171.07 1614.12,1173.41 1615.41,1175.73 1616.71,1178.04 1618,1180.32 1619.3,1182.59 
  1620.6,1184.83 1621.89,1187.06 1623.19,1189.27 1624.48,1191.46 1625.78,1193.64 1627.07,1195.79 1628.37,1197.93 1629.66,1200.05 1630.96,1202.15 1632.25,1204.24 
  1633.55,1206.3 1634.84,1208.35 1636.14,1210.38 1637.43,1212.4 1638.73,1214.39 1640.02,1216.37 1641.32,1218.33 1642.61,1220.28 1643.91,1222.2 1645.2,1224.11 
  1646.5,1226 1647.79,1227.88 1649.09,1229.74 1650.38,1231.58 1651.68,1233.4 1652.97,1235.21 1654.27,1237 1655.56,1238.78 1656.86,1240.53 1658.16,1242.28 
  1659.45,1244 1660.75,1245.71 1662.04,1247.4 1663.34,1249.08 1664.63,1250.74 1665.93,1252.38 1667.22,1254.01 1668.52,1255.63 1669.81,1257.22 1671.11,1258.81 
  1672.4,1260.37 1673.7,1261.92 1674.99,1263.46 1676.29,1264.98 1677.58,1266.48 1678.88,1267.98 1680.17,1269.45 1681.47,1270.91 1682.76,1272.36 1684.06,1273.79 
  1685.35,1275.2 1686.65,1276.61 1687.94,1277.99 1689.24,1279.37 1690.53,1280.73 1691.83,1282.07 1693.12,1283.4 1694.42,1284.72 1695.72,1286.02 1697.01,1287.31 
  1698.31,1288.59 1699.6,1289.85 1700.9,1291.1 1702.19,1292.33 1703.49,1293.55 1704.78,1294.76 1706.08,1295.96 1707.37,1297.14 1708.67,1298.31 1709.96,1299.47 
  1711.26,1300.61 1712.55,1301.74 1713.85,1302.86 1715.14,1303.97 1716.44,1305.06 1717.73,1306.14 1719.03,1307.21 1720.32,1308.27 1721.62,1309.32 1722.91,1310.35 
  1724.21,1311.37 1725.5,1312.38 1726.8,1313.38 1728.09,1314.37 1729.39,1315.34 1730.68,1316.31 1731.98,1317.26 1733.28,1318.2 1734.57,1319.14 1735.87,1320.06 
  1737.16,1320.96 1738.46,1321.86 1739.75,1322.75 1741.05,1323.63 1742.34,1324.5 1743.64,1325.35 1744.93,1326.2 1746.23,1327.03 1747.52,1327.86 1748.82,1328.68 
  1750.11,1329.48 1751.41,1330.28 1752.7,1331.06 1754,1331.84 1755.29,1332.61 1756.59,1333.36 1757.88,1334.11 1759.18,1334.85 1760.47,1335.58 1761.77,1336.3 
  1763.06,1337.01 1764.36,1337.71 1765.65,1338.41 1766.95,1339.09 1768.24,1339.77 1769.54,1340.44 1770.84,1341.09 1772.13,1341.74 1773.43,1342.39 1774.72,1343.02 
  1776.02,1343.65 1777.31,1344.26 1778.61,1344.87 1779.9,1345.47 1781.2,1346.07 1782.49,1346.65 1783.79,1347.23 1785.08,1347.8 1786.38,1348.36 1787.67,1348.92 
  1788.97,1349.47 1790.26,1350.01 1791.56,1350.54 1792.85,1351.07 1794.15,1351.58 1795.44,1352.1 1796.74,1352.6 1798.03,1353.1 1799.33,1353.59 1800.62,1354.07 
  1801.92,1354.55 1803.21,1355.02 1804.51,1355.49 1805.8,1355.95 1807.1,1356.4 1808.4,1356.84 1809.69,1357.28 1810.99,1357.72 1812.28,1358.14 1813.58,1358.57 
  1814.87,1358.98 1816.17,1359.39 1817.46,1359.79 1818.76,1360.19 1820.05,1360.58 1821.35,1360.97 1822.64,1361.35 1823.94,1361.73 1825.23,1362.1 1826.53,1362.46 
  1827.82,1362.82 1829.12,1363.18 1830.41,1363.53 1831.71,1363.87 1833,1364.21 1834.3,1364.54 1835.59,1364.87 1836.89,1365.2 1838.18,1365.52 1839.48,1365.83 
  1840.77,1366.14 1842.07,1366.45 1843.36,1366.75 1844.66,1367.04 1845.96,1367.34 1847.25,1367.62 1848.55,1367.91 1849.84,1368.19 1851.14,1368.46 1852.43,1368.73 
  1853.73,1369 1855.02,1369.26 1856.32,1369.52 1857.61,1369.77 1858.91,1370.02 1860.2,1370.27 1861.5,1370.51 1862.79,1370.75 1864.09,1370.99 1865.38,1371.22 
  1866.68,1371.45 1867.97,1371.67 1869.27,1371.89 1870.56,1372.11 1871.86,1372.32 1873.15,1372.53 1874.45,1372.74 1875.74,1372.95 1877.04,1373.15 1878.33,1373.34 
  1879.63,1373.54 1880.92,1373.73 1882.22,1373.92 1883.52,1374.1 1884.81,1374.29 1886.11,1374.46 1887.4,1374.64 1888.7,1374.81 1889.99,1374.99 1891.29,1375.15 
  1892.58,1375.32 1893.88,1375.48 1895.17,1375.64 1896.47,1375.8 1897.76,1375.95 1899.06,1376.1 1900.35,1376.25 1901.65,1376.4 1902.94,1376.55 1904.24,1376.69 
  1905.53,1376.83 1906.83,1376.97 1908.12,1377.1 1909.42,1377.23 1910.71,1377.36 1912.01,1377.49 1913.3,1377.62 1914.6,1377.74 1915.89,1377.87 1917.19,1377.99 
  1918.48,1378.1 1919.78,1378.22 1921.08,1378.33 1922.37,1378.44 1923.67,1378.55 1924.96,1378.66 1926.26,1378.77 1927.55,1378.87 1928.85,1378.98 1930.14,1379.08 
  1931.44,1379.18 1932.73,1379.27 1934.03,1379.37 1935.32,1379.46 1936.62,1379.55 1937.91,1379.65 1939.21,1379.73 1940.5,1379.82 1941.8,1379.91 1943.09,1379.99 
  1944.39,1380.08 1945.68,1380.16 1946.98,1380.24 1948.27,1380.31 1949.57,1380.39 1950.86,1380.47 1952.16,1380.54 1953.45,1380.62 1954.75,1380.69 1956.04,1380.76 
  1957.34,1380.83 1958.64,1380.89 1959.93,1380.96 1961.23,1381.03 1962.52,1381.09 1963.82,1381.15 1965.11,1381.22 1966.41,1381.28 1967.7,1381.34 1969,1381.39 
  1970.29,1381.45 1971.59,1381.51 1972.88,1381.56 1974.18,1381.62 1975.47,1381.67 1976.77,1381.72 1978.06,1381.77 1979.36,1381.82 1980.65,1381.87 1981.95,1381.92 
  1983.24,1381.97 1984.54,1382.02 1985.83,1382.06 1987.13,1382.11 1988.42,1382.15 1989.72,1382.19 1991.01,1382.24 1992.31,1382.28 1993.6,1382.32 1994.9,1382.36 
  1996.2,1382.4 1997.49,1382.44 1998.79,1382.47 2000.08,1382.51 2001.38,1382.55 2002.67,1382.58 2003.97,1382.62 2005.26,1382.65 2006.56,1382.69 2007.85,1382.72 
  2009.15,1382.75 2010.44,1382.78 2011.74,1382.81 2013.03,1382.84 2014.33,1382.87 2015.62,1382.9 2016.92,1382.93 2018.21,1382.96 2019.51,1382.99 2020.8,1383.01 
  2022.1,1383.04 2023.39,1383.07 2024.69,1383.09 2025.98,1383.12 2027.28,1383.14 2028.57,1383.16 2029.87,1383.19 2031.16,1383.21 2032.46,1383.23 2033.76,1383.25 
  2035.05,1383.28 2036.35,1383.3 2037.64,1383.32 2038.94,1383.34 2040.23,1383.36 2041.53,1383.38 2042.82,1383.4 2044.12,1383.41 2045.41,1383.43 2046.71,1383.45 
  2048,1383.47 2049.3,1383.49 2050.59,1383.5 2051.89,1383.52 2053.18,1383.53 2054.48,1383.55 2055.77,1383.57 2057.07,1383.58 2058.36,1383.6 2059.66,1383.61 
  2060.95,1383.62 2062.25,1383.64 2063.54,1383.65 2064.84,1383.66 2066.13,1383.68 2067.43,1383.69 2068.72,1383.7 2070.02,1383.71 2071.32,1383.73 2072.61,1383.74 
  2073.91,1383.75 2075.2,1383.76 2076.5,1383.77 2077.79,1383.78 2079.09,1383.79 2080.38,1383.8 2081.68,1383.81 2082.97,1383.82 2084.27,1383.83 2085.56,1383.84 
  2086.86,1383.85 2088.15,1383.86 2089.45,1383.87 2090.74,1383.88 2092.04,1383.89 2093.33,1383.89 2094.63,1383.9 2095.92,1383.91 2097.22,1383.92 2098.51,1383.93 
  2099.81,1383.93 2101.1,1383.94 2102.4,1383.95 2103.69,1383.95 2104.99,1383.96 2106.28,1383.97 2107.58,1383.97 2108.88,1383.98 2110.17,1383.99 2111.47,1383.99 
  2112.76,1384 2114.06,1384 2115.35,1384.01 2116.65,1384.01 2117.94,1384.02 2119.24,1384.03 2120.53,1384.03 2121.83,1384.04 2123.12,1384.04 2124.42,1384.05 
  2125.71,1384.05 2127.01,1384.05 2128.3,1384.06 2129.6,1384.06 2130.89,1384.07 2132.19,1384.07 2133.48,1384.08 2134.78,1384.08 2136.07,1384.08 2137.37,1384.09 
  2138.66,1384.09 2139.96,1384.09 2141.25,1384.1 2142.55,1384.1 2143.84,1384.11 2145.14,1384.11 2146.44,1384.11 2147.73,1384.11 2149.03,1384.12 2150.32,1384.12 
  2151.62,1384.12 2152.91,1384.13 2154.21,1384.13 2155.5,1384.13 2156.8,1384.13 2158.09,1384.14 2159.39,1384.14 2160.68,1384.14 2161.98,1384.14 2163.27,1384.15 
  2164.57,1384.15 2165.86,1384.15 2167.16,1384.15 2168.45,1384.16 2169.75,1384.16 2171.04,1384.16 2172.34,1384.16 2173.63,1384.16 2174.93,1384.17 2176.22,1384.17 
  2177.52,1384.17 2178.81,1384.17 2180.11,1384.17 2181.4,1384.17 2182.7,1384.18 2184,1384.18 2185.29,1384.18 2186.59,1384.18 2187.88,1384.18 2189.18,1384.18 
  2190.47,1384.19 2191.77,1384.19 2193.06,1384.19 2194.36,1384.19 2195.65,1384.19 2196.95,1384.19 2198.24,1384.19 2199.54,1384.19 2200.83,1384.2 2202.13,1384.2 
  2203.42,1384.2 2204.72,1384.2 2206.01,1384.2 2207.31,1384.2 2208.6,1384.2 2209.9,1384.2 2211.19,1384.2 2212.49,1384.2 2213.78,1384.21 2215.08,1384.21 
  2216.37,1384.21 2217.67,1384.21 2218.96,1384.21 2220.26,1384.21 2221.56,1384.21 2222.85,1384.21 2224.15,1384.21 2225.44,1384.21 2226.74,1384.21 2228.03,1384.21 
  2229.33,1384.21 2230.62,1384.22 2231.92,1384.22 2233.21,1384.22 2234.51,1384.22 2235.8,1384.22 2237.1,1384.22 2238.39,1384.22 2239.69,1384.22 2240.98,1384.22 
  2242.28,1384.22 2243.57,1384.22 2244.87,1384.22 2246.16,1384.22 2247.46,1384.22 2248.75,1384.22 2250.05,1384.22 2251.34,1384.22 2252.64,1384.22 2253.93,1384.22 
  2255.23,1384.22 2256.52,1384.22 2257.82,1384.23 2259.11,1384.23 2260.41,1384.23 2261.71,1384.23 2263,1384.23 2264.3,1384.23 2265.59,1384.23 2266.89,1384.23 
  2268.18,1384.23 2269.48,1384.23 2270.77,1384.23 2272.07,1384.23 2273.36,1384.23 2274.66,1384.23 2275.95,1384.23 2277.25,1384.23 2278.54,1384.23 2279.84,1384.23 
  2281.13,1384.23 
  "/>
<polyline clip-path="url(#clip262)" style="stroke:#3da44d; stroke-linecap:butt; stroke-linejoin:round; stroke-width:12; stroke-opacity:1; fill:none" points="
  338.375,1384.24 339.67,1384.24 340.966,1384.24 342.261,1384.24 343.556,1384.24 344.851,1384.24 346.146,1384.24 347.441,1384.24 348.737,1384.24 350.032,1384.24 
  351.327,1384.24 352.622,1384.24 353.917,1384.24 355.212,1384.24 356.508,1384.24 357.803,1384.24 359.098,1384.24 360.393,1384.24 361.688,1384.24 362.983,1384.24 
  364.279,1384.24 365.574,1384.24 366.869,1384.24 368.164,1384.24 369.459,1384.24 370.754,1384.24 372.05,1384.24 373.345,1384.24 374.64,1384.24 375.935,1384.24 
  377.23,1384.24 378.526,1384.24 379.821,1384.24 381.116,1384.24 382.411,1384.24 383.706,1384.24 385.001,1384.24 386.297,1384.24 387.592,1384.24 388.887,1384.24 
  390.182,1384.24 391.477,1384.24 392.772,1384.24 394.068,1384.24 395.363,1384.24 396.658,1384.24 397.953,1384.24 399.248,1384.24 400.543,1384.24 401.839,1384.24 
  403.134,1384.24 404.429,1384.24 405.724,1384.24 407.019,1384.24 408.314,1384.24 409.61,1384.24 410.905,1384.24 412.2,1384.24 413.495,1384.24 414.79,1384.24 
  416.085,1384.24 417.381,1384.24 418.676,1384.24 419.971,1384.24 421.266,1384.24 422.561,1384.24 423.857,1384.24 425.152,1384.24 426.447,1384.24 427.742,1384.24 
  429.037,1384.24 430.332,1384.24 431.628,1384.24 432.923,1384.24 434.218,1384.24 435.513,1384.24 436.808,1384.24 438.103,1384.23 439.399,1384.23 440.694,1384.23 
  441.989,1384.23 443.284,1384.23 444.579,1384.23 445.874,1384.23 447.17,1384.23 448.465,1384.23 449.76,1384.23 451.055,1384.23 452.35,1384.23 453.645,1384.23 
  454.941,1384.23 456.236,1384.23 457.531,1384.23 458.826,1384.22 460.121,1384.22 461.417,1384.22 462.712,1384.22 464.007,1384.22 465.302,1384.22 466.597,1384.22 
  467.892,1384.21 469.188,1384.21 470.483,1384.21 471.778,1384.21 473.073,1384.21 474.368,1384.2 475.663,1384.2 476.959,1384.2 478.254,1384.2 479.549,1384.19 
  480.844,1384.19 482.139,1384.19 483.434,1384.18 484.73,1384.18 486.025,1384.18 487.32,1384.17 488.615,1384.17 489.91,1384.16 491.205,1384.16 492.501,1384.15 
  493.796,1384.14 495.091,1384.14 496.386,1384.13 497.681,1384.12 498.976,1384.12 500.272,1384.11 501.567,1384.1 502.862,1384.09 504.157,1384.08 505.452,1384.07 
  506.748,1384.06 508.043,1384.05 509.338,1384.04 510.633,1384.03 511.928,1384.02 513.223,1384.01 514.519,1383.99 515.814,1383.98 517.109,1383.96 518.404,1383.95 
  519.699,1383.93 520.994,1383.91 522.29,1383.89 523.585,1383.87 524.88,1383.85 526.175,1383.83 527.47,1383.81 528.765,1383.79 530.061,1383.76 531.356,1383.74 
  532.651,1383.71 533.946,1383.68 535.241,1383.65 536.536,1383.62 537.832,1383.59 539.127,1383.55 540.422,1383.52 541.717,1383.48 543.012,1383.44 544.308,1383.4 
  545.603,1383.36 546.898,1383.32 548.193,1383.27 549.488,1383.23 550.783,1383.18 552.079,1383.13 553.374,1383.07 554.669,1383.02 555.964,1382.96 557.259,1382.9 
  558.554,1382.83 559.85,1382.77 561.145,1382.7 562.44,1382.63 563.735,1382.56 565.03,1382.48 566.325,1382.4 567.621,1382.32 568.916,1382.23 570.211,1382.15 
  571.506,1382.05 572.801,1381.96 574.096,1381.86 575.392,1381.76 576.687,1381.65 577.982,1381.54 579.277,1381.43 580.572,1381.31 581.867,1381.19 583.163,1381.06 
  584.458,1380.93 585.753,1380.79 587.048,1380.65 588.343,1380.51 589.639,1380.36 590.934,1380.2 592.229,1380.04 593.524,1379.88 594.819,1379.71 596.114,1379.53 
  597.41,1379.35 598.705,1379.16 600,1378.96 601.295,1378.76 602.59,1378.56 603.885,1378.34 605.181,1378.12 606.476,1377.9 607.771,1377.66 609.066,1377.42 
  610.361,1377.17 611.656,1376.92 612.952,1376.65 614.247,1376.38 615.542,1376.1 616.837,1375.81 618.132,1375.52 619.427,1375.21 620.723,1374.9 622.018,1374.58 
  623.313,1374.25 624.608,1373.91 625.903,1373.55 627.199,1373.19 628.494,1372.82 629.789,1372.44 631.084,1372.05 632.379,1371.65 633.674,1371.24 634.97,1370.82 
  636.265,1370.39 637.56,1369.94 638.855,1369.48 640.15,1369.01 641.445,1368.53 642.741,1368.04 644.036,1367.54 645.331,1367.02 646.626,1366.49 647.921,1365.94 
  649.216,1365.39 650.512,1364.81 651.807,1364.23 653.102,1363.63 654.397,1363.02 655.692,1362.39 656.987,1361.75 658.283,1361.09 659.578,1360.41 660.873,1359.73 
  662.168,1359.02 663.463,1358.3 664.758,1357.56 666.054,1356.81 667.349,1356.04 668.644,1355.25 669.939,1354.45 671.234,1353.63 672.53,1352.79 673.825,1351.93 
  675.12,1351.06 676.415,1350.16 677.71,1349.25 679.005,1348.32 680.301,1347.37 681.596,1346.39 682.891,1345.4 684.186,1344.39 685.481,1343.36 686.776,1342.31 
  688.072,1341.24 689.367,1340.14 690.662,1339.03 691.957,1337.89 693.252,1336.74 694.547,1335.56 695.843,1334.35 697.138,1333.13 698.433,1331.88 699.728,1330.61 
  701.023,1329.31 702.318,1328 703.614,1326.65 704.909,1325.29 706.204,1323.9 707.499,1322.48 708.794,1321.05 710.09,1319.58 711.385,1318.09 712.68,1316.58 
  713.975,1315.04 715.27,1313.47 716.565,1311.88 717.861,1310.26 719.156,1308.61 720.451,1306.94 721.746,1305.24 723.041,1303.51 724.336,1301.75 725.632,1299.97 
  726.927,1298.16 728.222,1296.32 729.517,1294.46 730.812,1292.56 732.107,1290.64 733.403,1288.68 734.698,1286.7 735.993,1284.69 737.288,1282.65 738.583,1280.58 
  739.878,1278.47 741.174,1276.34 742.469,1274.18 743.764,1271.99 745.059,1269.77 746.354,1267.52 747.649,1265.23 748.945,1262.92 750.24,1260.57 751.535,1258.19 
  752.83,1255.78 754.125,1253.34 755.421,1250.87 756.716,1248.37 758.011,1245.83 759.306,1243.26 760.601,1240.66 761.896,1238.03 763.192,1235.36 764.487,1232.66 
  765.782,1229.93 767.077,1227.17 768.372,1224.37 769.667,1221.54 770.963,1218.68 772.258,1215.79 773.553,1212.86 774.848,1209.9 776.143,1206.9 777.438,1203.87 
  778.734,1200.81 780.029,1197.72 781.324,1194.59 782.619,1191.43 783.914,1188.23 785.209,1185.01 786.505,1181.74 787.8,1178.45 789.095,1175.12 790.39,1171.76 
  791.685,1168.36 792.98,1164.94 794.276,1161.47 795.571,1157.98 796.866,1154.45 798.161,1150.89 799.456,1147.29 800.752,1143.66 802.047,1140 803.342,1136.31 
  804.637,1132.58 805.932,1128.82 807.227,1125.03 808.523,1121.21 809.818,1117.35 811.113,1113.46 812.408,1109.54 813.703,1105.58 814.998,1101.59 816.294,1097.58 
  817.589,1093.53 818.884,1089.44 820.179,1085.33 821.474,1081.19 822.769,1077.01 824.065,1072.8 825.36,1068.57 826.655,1064.3 827.95,1060 829.245,1055.67 
  830.54,1051.31 831.836,1046.92 833.131,1042.51 834.426,1038.06 835.721,1033.58 837.016,1029.08 838.312,1024.54 839.607,1019.98 840.902,1015.39 842.197,1010.77 
  843.492,1006.13 844.787,1001.45 846.083,996.753 847.378,992.027 848.673,987.273 849.968,982.494 851.263,977.688 852.558,972.857 853.854,968.001 855.149,963.12 
  856.444,958.215 857.739,953.285 859.034,948.331 860.329,943.354 861.625,938.353 862.92,933.33 864.215,928.284 865.51,923.216 866.805,918.126 868.1,913.014 
  869.396,907.882 870.691,902.729 871.986,897.556 873.281,892.363 874.576,887.151 875.871,881.919 877.167,876.669 878.462,871.401 879.757,866.115 881.052,860.811 
  882.347,855.491 883.643,850.154 884.938,844.801 886.233,839.432 887.528,834.048 888.823,828.65 890.118,823.237 891.414,817.81 892.709,812.37 894.004,806.917 
  895.299,801.452 896.594,795.974 897.889,790.486 899.185,784.986 900.48,779.475 901.775,773.955 903.07,768.425 904.365,762.886 905.66,757.338 906.956,751.782 
  908.251,746.219 909.546,740.648 910.841,735.071 912.136,729.488 913.431,723.9 914.727,718.306 916.022,712.708 917.317,707.105 918.612,701.5 919.907,695.891 
  921.203,690.28 922.498,684.667 923.793,679.052 925.088,673.436 926.383,667.821 927.678,662.205 928.974,656.59 930.269,650.976 931.564,645.364 932.859,639.754 
  934.154,634.147 935.449,628.544 936.745,622.944 938.04,617.349 939.335,611.759 940.63,606.174 941.925,600.595 943.22,595.023 944.516,589.457 945.811,583.9 
  947.106,578.351 948.401,572.81 949.696,567.278 950.991,561.757 952.287,556.245 953.582,550.745 954.877,545.256 956.172,539.778 957.467,534.314 958.762,528.862 
  960.058,523.423 961.353,517.999 962.648,512.589 963.943,507.194 965.238,501.815 966.534,496.452 967.829,491.105 969.124,485.776 970.419,480.464 971.714,475.171 
  973.009,469.896 974.305,464.64 975.6,459.404 976.895,454.188 978.19,448.993 979.485,443.819 980.78,438.667 982.076,433.537 983.371,428.43 984.666,423.346 
  985.961,418.285 987.256,413.249 988.551,408.237 989.847,403.25 991.142,398.289 992.437,393.354 993.732,388.445 995.027,383.563 996.322,378.709 997.618,373.882 
  998.913,369.084 1000.21,364.315 1001.5,359.575 1002.8,354.864 1004.09,350.184 1005.39,345.534 1006.68,340.915 1007.98,336.328 1009.27,331.772 1010.57,327.248 
  1011.86,322.757 1013.16,318.299 1014.45,313.875 1015.75,309.484 1017.05,305.128 1018.34,300.806 1019.64,296.519 1020.93,292.267 1022.23,288.052 1023.52,283.872 
  1024.82,279.729 1026.11,275.622 1027.41,271.553 1028.7,267.522 1030,263.528 1031.29,259.572 1032.59,255.655 1033.88,251.777 1035.18,247.938 1036.47,244.139 
  1037.77,240.38 1039.06,236.66 1040.36,232.981 1041.65,229.343 1042.95,225.746 1044.24,222.19 1045.54,218.676 1046.83,215.204 1048.13,211.774 1049.42,208.386 
  1050.72,205.041 1052.01,201.739 1053.31,198.48 1054.61,195.265 1055.9,192.093 1057.2,188.965 1058.49,185.881 1059.79,182.842 1061.08,179.847 1062.38,176.897 
  1063.67,173.991 1064.97,171.131 1066.26,168.317 1067.56,165.548 1068.85,162.824 1070.15,160.147 1071.44,157.515 1072.74,154.93 1074.03,152.391 1075.33,149.898 
  1076.62,147.453 1077.92,145.054 1079.21,142.702 1080.51,140.397 1081.8,138.139 1083.1,135.929 1084.39,133.766 1085.69,131.65 1086.98,129.582 1088.28,127.562 
  1089.57,125.589 1090.87,123.665 1092.17,121.788 1093.46,119.96 1094.76,118.179 1096.05,116.447 1097.35,114.763 1098.64,113.127 1099.94,111.539 1101.23,110 
  1102.53,108.509 1103.82,107.066 1105.12,105.672 1106.41,104.326 1107.71,103.029 1109,101.78 1110.3,100.579 1111.59,99.427 1112.89,98.3233 1114.18,97.2679 
  1115.48,96.2609 1116.77,95.3022 1118.07,94.3917 1119.36,93.5296 1120.66,92.7156 1121.95,91.9498 1123.25,91.2321 1124.54,90.5624 1125.84,89.9407 1127.13,89.3669 
  1128.43,88.8409 1129.73,88.3627 1131.02,87.9322 1132.32,87.5492 1133.61,87.2137 1134.91,86.9256 1136.2,86.6847 1137.5,86.491 1138.79,86.3444 1140.09,86.2447 
  1141.38,86.1919 1142.68,86.1857 1143.97,86.226 1145.27,86.3128 1146.56,86.4459 1147.86,86.6251 1149.15,86.8503 1150.45,87.1213 1151.74,87.4379 1153.04,87.8001 
  1154.33,88.2077 1155.63,88.6604 1156.92,89.1581 1158.22,89.7006 1159.51,90.2878 1160.81,90.9194 1162.1,91.5953 1163.4,92.3153 1164.69,93.0792 1165.99,93.8867 
  1167.29,94.7377 1168.58,95.6319 1169.88,96.5692 1171.17,97.5494 1172.47,98.5722 1173.76,99.6373 1175.06,100.745 1176.35,101.894 1177.65,103.085 1178.94,104.317 
  1180.24,105.591 1181.53,106.906 1182.83,108.261 1184.12,109.657 1185.42,111.093 1186.71,112.57 1188.01,114.086 1189.3,115.641 1190.6,117.236 1191.89,118.869 
  1193.19,120.542 1194.48,122.253 1195.78,124.002 1197.07,125.788 1198.37,127.613 1199.66,129.475 1200.96,131.374 1202.25,133.309 1203.55,135.281 1204.85,137.29 
  1206.14,139.334 1207.44,141.414 1208.73,143.529 1210.03,145.679 1211.32,147.864 1212.62,150.084 1213.91,152.337 1215.21,154.625 1216.5,156.945 1217.8,159.3 
  1219.09,161.687 1220.39,164.106 1221.68,166.558 1222.98,169.042 1224.27,171.558 1225.57,174.105 1226.86,176.683 1228.16,179.292 1229.45,181.931 1230.75,184.601 
  1232.04,187.3 1233.34,190.029 1234.63,192.786 1235.93,195.573 1237.22,198.388 1238.52,201.231 1239.81,204.102 1241.11,207.001 1242.41,209.927 1243.7,212.88 
  1245,215.859 1246.29,218.865 1247.59,221.896 1248.88,224.953 1250.18,228.035 1251.47,231.143 1252.77,234.274 1254.06,237.43 1255.36,240.61 1256.65,243.814 
  1257.95,247.041 1259.24,250.291 1260.54,253.563 1261.83,256.858 1263.13,260.174 1264.42,263.512 1265.72,266.872 1267.01,270.253 1268.31,273.654 1269.6,277.075 
  1270.9,280.517 1272.19,283.978 1273.49,287.458 1274.78,290.957 1276.08,294.476 1277.37,298.012 1278.67,301.566 1279.97,305.139 1281.26,308.728 1282.56,312.335 
  1283.85,315.958 1285.15,319.598 1286.44,323.254 1287.74,326.925 1289.03,330.612 1290.33,334.314 1291.62,338.031 1292.92,341.763 1294.21,345.508 1295.51,349.268 
  1296.8,353.041 1298.1,356.827 1299.39,360.626 1300.69,364.438 1301.98,368.262 1303.28,372.098 1304.57,375.946 1305.87,379.805 1307.16,383.675 1308.46,387.556 
  1309.75,391.447 1311.05,395.349 1312.34,399.26 1313.64,403.181 1314.93,407.112 1316.23,411.051 1317.53,414.999 1318.82,418.955 1320.12,422.919 1321.41,426.891 
  1322.71,430.871 1324,434.858 1325.3,438.852 1326.59,442.853 1327.89,446.859 1329.18,450.872 1330.48,454.891 1331.77,458.916 1333.07,462.945 1334.36,466.98 
  1335.66,471.019 1336.95,475.063 1338.25,479.111 1339.54,483.163 1340.84,487.218 1342.13,491.277 1343.43,495.339 1344.72,499.404 1346.02,503.471 1347.31,507.541 
  1348.61,511.613 1349.9,515.687 1351.2,519.762 1352.49,523.839 1353.79,527.917 1355.09,531.995 1356.38,536.075 1357.68,540.154 1358.97,544.234 1360.27,548.314 
  1361.56,552.393 1362.86,556.472 1364.15,560.55 1365.45,564.626 1366.74,568.702 1368.04,572.776 1369.33,576.849 1370.63,580.919 1371.92,584.987 1373.22,589.053 
  1374.51,593.117 1375.81,597.177 1377.1,601.235 1378.4,605.289 1379.69,609.34 1380.99,613.387 1382.28,617.431 1383.58,621.47 1384.87,625.506 1386.17,629.536 
  1387.46,633.563 1388.76,637.584 1390.05,641.6 1391.35,645.612 1392.65,649.617 1393.94,653.618 1395.24,657.612 1396.53,661.601 1397.83,665.583 1399.12,669.559 
  1400.42,673.529 1401.71,677.492 1403.01,681.449 1404.3,685.398 1405.6,689.34 1406.89,693.275 1408.19,697.203 1409.48,701.123 1410.78,705.035 1412.07,708.939 
  1413.37,712.835 1414.66,716.723 1415.96,720.603 1417.25,724.474 1418.55,728.336 1419.84,732.19 1421.14,736.034 1422.43,739.87 1423.73,743.696 1425.02,747.513 
  1426.32,751.321 1427.61,755.119 1428.91,758.907 1430.21,762.685 1431.5,766.453 1432.8,770.211 1434.09,773.959 1435.39,777.697 1436.68,781.424 1437.98,785.14 
  1439.27,788.846 1440.57,792.541 1441.86,796.225 1443.16,799.898 1444.45,803.56 1445.75,807.211 1447.04,810.85 1448.34,814.478 1449.63,818.094 1450.93,821.698 
  1452.22,825.291 1453.52,828.872 1454.81,832.442 1456.11,835.999 1457.4,839.544 1458.7,843.077 1459.99,846.597 1461.29,850.106 1462.58,853.601 1463.88,857.085 
  1465.17,860.555 1466.47,864.014 1467.77,867.459 1469.06,870.892 1470.36,874.311 1471.65,877.718 1472.95,881.112 1474.24,884.493 1475.54,887.86 1476.83,891.215 
  1478.13,894.556 1479.42,897.884 1480.72,901.199 1482.01,904.5 1483.31,907.787 1484.6,911.062 1485.9,914.322 1487.19,917.569 1488.49,920.802 1489.78,924.022 
  1491.08,927.228 1492.37,930.42 1493.67,933.598 1494.96,936.763 1496.26,939.913 1497.55,943.049 1498.85,946.172 1500.14,949.28 1501.44,952.375 1502.73,955.455 
  1504.03,958.522 1505.32,961.574 1506.62,964.612 1507.92,967.636 1509.21,970.645 1510.51,973.64 1511.8,976.622 1513.1,979.588 1514.39,982.541 1515.69,985.479 
  1516.98,988.403 1518.28,991.313 1519.57,994.208 1520.87,997.089 1522.16,999.955 1523.46,1002.81 1524.75,1005.64 1526.05,1008.47 1527.34,1011.28 1528.64,1014.07 
  1529.93,1016.85 1531.23,1019.62 1532.52,1022.37 1533.82,1025.11 1535.11,1027.83 1536.41,1030.54 1537.7,1033.23 1539,1035.91 1540.29,1038.57 1541.59,1041.22 
  1542.88,1043.86 1544.18,1046.48 1545.48,1049.09 1546.77,1051.68 1548.07,1054.26 1549.36,1056.82 1550.66,1059.37 1551.95,1061.91 1553.25,1064.43 1554.54,1066.94 
  1555.84,1069.43 1557.13,1071.91 1558.43,1074.37 1559.72,1076.82 1561.02,1079.26 1562.31,1081.68 1563.61,1084.08 1564.9,1086.48 1566.2,1088.86 1567.49,1091.22 
  1568.79,1093.57 1570.08,1095.91 1571.38,1098.23 1572.67,1100.54 1573.97,1102.83 1575.26,1105.12 1576.56,1107.38 1577.85,1109.64 1579.15,1111.87 1580.44,1114.1 
  1581.74,1116.31 1583.04,1118.51 1584.33,1120.69 1585.63,1122.86 1586.92,1125.02 1588.22,1127.16 1589.51,1129.29 1590.81,1131.41 1592.1,1133.51 1593.4,1135.6 
  1594.69,1137.68 1595.99,1139.74 1597.28,1141.79 1598.58,1143.82 1599.87,1145.85 1601.17,1147.86 1602.46,1149.85 1603.76,1151.83 1605.05,1153.8 1606.35,1155.76 
  1607.64,1157.7 1608.94,1159.63 1610.23,1161.55 1611.53,1163.46 1612.82,1165.35 1614.12,1167.23 1615.41,1169.09 1616.71,1170.95 1618,1172.79 1619.3,1174.62 
  1620.6,1176.43 1621.89,1178.23 1623.19,1180.02 1624.48,1181.8 1625.78,1183.57 1627.07,1185.32 1628.37,1187.06 1629.66,1188.79 1630.96,1190.51 1632.25,1192.21 
  1633.55,1193.91 1634.84,1195.59 1636.14,1197.25 1637.43,1198.91 1638.73,1200.56 1640.02,1202.19 1641.32,1203.81 1642.61,1205.42 1643.91,1207.02 1645.2,1208.6 
  1646.5,1210.18 1647.79,1211.74 1649.09,1213.29 1650.38,1214.83 1651.68,1216.36 1652.97,1217.87 1654.27,1219.38 1655.56,1220.88 1656.86,1222.36 1658.16,1223.83 
  1659.45,1225.29 1660.75,1226.74 1662.04,1228.18 1663.34,1229.61 1664.63,1231.03 1665.93,1232.43 1667.22,1233.83 1668.52,1235.22 1669.81,1236.59 1671.11,1237.95 
  1672.4,1239.31 1673.7,1240.65 1674.99,1241.98 1676.29,1243.31 1677.58,1244.62 1678.88,1245.92 1680.17,1247.21 1681.47,1248.49 1682.76,1249.77 1684.06,1251.03 
  1685.35,1252.28 1686.65,1253.52 1687.94,1254.75 1689.24,1255.97 1690.53,1257.19 1691.83,1258.39 1693.12,1259.58 1694.42,1260.77 1695.72,1261.94 1697.01,1263.1 
  1698.31,1264.26 1699.6,1265.4 1700.9,1266.54 1702.19,1267.67 1703.49,1268.79 1704.78,1269.89 1706.08,1270.99 1707.37,1272.08 1708.67,1273.17 1709.96,1274.24 
  1711.26,1275.3 1712.55,1276.36 1713.85,1277.4 1715.14,1278.44 1716.44,1279.47 1717.73,1280.49 1719.03,1281.5 1720.32,1282.5 1721.62,1283.5 1722.91,1284.49 
  1724.21,1285.46 1725.5,1286.43 1726.8,1287.4 1728.09,1288.35 1729.39,1289.29 1730.68,1290.23 1731.98,1291.16 1733.28,1292.08 1734.57,1293 1735.87,1293.9 
  1737.16,1294.8 1738.46,1295.69 1739.75,1296.57 1741.05,1297.44 1742.34,1298.31 1743.64,1299.17 1744.93,1300.02 1746.23,1300.87 1747.52,1301.7 1748.82,1302.53 
  1750.11,1303.36 1751.41,1304.17 1752.7,1304.98 1754,1305.78 1755.29,1306.58 1756.59,1307.36 1757.88,1308.14 1759.18,1308.91 1760.47,1309.68 1761.77,1310.44 
  1763.06,1311.19 1764.36,1311.94 1765.65,1312.68 1766.95,1313.41 1768.24,1314.13 1769.54,1314.85 1770.84,1315.57 1772.13,1316.27 1773.43,1316.97 1774.72,1317.66 
  1776.02,1318.35 1777.31,1319.03 1778.61,1319.71 1779.9,1320.38 1781.2,1321.04 1782.49,1321.69 1783.79,1322.34 1785.08,1322.99 1786.38,1323.63 1787.67,1324.26 
  1788.97,1324.88 1790.26,1325.5 1791.56,1326.12 1792.85,1326.73 1794.15,1327.33 1795.44,1327.93 1796.74,1328.52 1798.03,1329.11 1799.33,1329.69 1800.62,1330.26 
  1801.92,1330.83 1803.21,1331.4 1804.51,1331.96 1805.8,1332.51 1807.1,1333.06 1808.4,1333.61 1809.69,1334.14 1810.99,1334.68 1812.28,1335.21 1813.58,1335.73 
  1814.87,1336.25 1816.17,1336.76 1817.46,1337.27 1818.76,1337.77 1820.05,1338.27 1821.35,1338.76 1822.64,1339.25 1823.94,1339.74 1825.23,1340.22 1826.53,1340.69 
  1827.82,1341.16 1829.12,1341.63 1830.41,1342.09 1831.71,1342.55 1833,1343 1834.3,1343.45 1835.59,1343.89 1836.89,1344.33 1838.18,1344.76 1839.48,1345.19 
  1840.77,1345.62 1842.07,1346.04 1843.36,1346.46 1844.66,1346.87 1845.96,1347.28 1847.25,1347.69 1848.55,1348.09 1849.84,1348.49 1851.14,1348.88 1852.43,1349.27 
  1853.73,1349.66 1855.02,1350.04 1856.32,1350.42 1857.61,1350.79 1858.91,1351.16 1860.2,1351.53 1861.5,1351.89 1862.79,1352.25 1864.09,1352.6 1865.38,1352.96 
  1866.68,1353.31 1867.97,1353.65 1869.27,1353.99 1870.56,1354.33 1871.86,1354.66 1873.15,1355 1874.45,1355.32 1875.74,1355.65 1877.04,1355.97 1878.33,1356.29 
  1879.63,1356.6 1880.92,1356.91 1882.22,1357.22 1883.52,1357.52 1884.81,1357.83 1886.11,1358.12 1887.4,1358.42 1888.7,1358.71 1889.99,1359 1891.29,1359.29 
  1892.58,1359.57 1893.88,1359.85 1895.17,1360.13 1896.47,1360.4 1897.76,1360.68 1899.06,1360.94 1900.35,1361.21 1901.65,1361.47 1902.94,1361.73 1904.24,1361.99 
  1905.53,1362.25 1906.83,1362.5 1908.12,1362.75 1909.42,1363 1910.71,1363.24 1912.01,1363.48 1913.3,1363.72 1914.6,1363.96 1915.89,1364.19 1917.19,1364.42 
  1918.48,1364.65 1919.78,1364.88 1921.08,1365.11 1922.37,1365.33 1923.67,1365.55 1924.96,1365.76 1926.26,1365.98 1927.55,1366.19 1928.85,1366.4 1930.14,1366.61 
  1931.44,1366.82 1932.73,1367.02 1934.03,1367.22 1935.32,1367.42 1936.62,1367.62 1937.91,1367.81 1939.21,1368 1940.5,1368.19 1941.8,1368.38 1943.09,1368.57 
  1944.39,1368.75 1945.68,1368.94 1946.98,1369.12 1948.27,1369.3 1949.57,1369.47 1950.86,1369.65 1952.16,1369.82 1953.45,1369.99 1954.75,1370.16 1956.04,1370.33 
  1957.34,1370.49 1958.64,1370.66 1959.93,1370.82 1961.23,1370.98 1962.52,1371.13 1963.82,1371.29 1965.11,1371.45 1966.41,1371.6 1967.7,1371.75 1969,1371.9 
  1970.29,1372.05 1971.59,1372.19 1972.88,1372.34 1974.18,1372.48 1975.47,1372.62 1976.77,1372.76 1978.06,1372.9 1979.36,1373.04 1980.65,1373.17 1981.95,1373.3 
  1983.24,1373.44 1984.54,1373.57 1985.83,1373.7 1987.13,1373.82 1988.42,1373.95 1989.72,1374.07 1991.01,1374.2 1992.31,1374.32 1993.6,1374.44 1994.9,1374.56 
  1996.2,1374.68 1997.49,1374.79 1998.79,1374.91 2000.08,1375.02 2001.38,1375.13 2002.67,1375.25 2003.97,1375.36 2005.26,1375.46 2006.56,1375.57 2007.85,1375.68 
  2009.15,1375.78 2010.44,1375.89 2011.74,1375.99 2013.03,1376.09 2014.33,1376.19 2015.62,1376.29 2016.92,1376.39 2018.21,1376.48 2019.51,1376.58 2020.8,1376.67 
  2022.1,1376.77 2023.39,1376.86 2024.69,1376.95 2025.98,1377.04 2027.28,1377.13 2028.57,1377.22 2029.87,1377.31 2031.16,1377.39 2032.46,1377.48 2033.76,1377.56 
  2035.05,1377.64 2036.35,1377.73 2037.64,1377.81 2038.94,1377.89 2040.23,1377.97 2041.53,1378.05 2042.82,1378.12 2044.12,1378.2 2045.41,1378.28 2046.71,1378.35 
  2048,1378.42 2049.3,1378.5 2050.59,1378.57 2051.89,1378.64 2053.18,1378.71 2054.48,1378.78 2055.77,1378.85 2057.07,1378.92 2058.36,1378.98 2059.66,1379.05 
  2060.95,1379.12 2062.25,1379.18 2063.54,1379.24 2064.84,1379.31 2066.13,1379.37 2067.43,1379.43 2068.72,1379.49 2070.02,1379.55 2071.32,1379.61 2072.61,1379.67 
  2073.91,1379.73 2075.2,1379.79 2076.5,1379.84 2077.79,1379.9 2079.09,1379.95 2080.38,1380.01 2081.68,1380.06 2082.97,1380.12 2084.27,1380.17 2085.56,1380.22 
  2086.86,1380.27 2088.15,1380.32 2089.45,1380.37 2090.74,1380.42 2092.04,1380.47 2093.33,1380.52 2094.63,1380.57 2095.92,1380.62 2097.22,1380.66 2098.51,1380.71 
  2099.81,1380.75 2101.1,1380.8 2102.4,1380.84 2103.69,1380.89 2104.99,1380.93 2106.28,1380.97 2107.58,1381.01 2108.88,1381.06 2110.17,1381.1 2111.47,1381.14 
  2112.76,1381.18 2114.06,1381.22 2115.35,1381.26 2116.65,1381.3 2117.94,1381.33 2119.24,1381.37 2120.53,1381.41 2121.83,1381.45 2123.12,1381.48 2124.42,1381.52 
  2125.71,1381.55 2127.01,1381.59 2128.3,1381.62 2129.6,1381.66 2130.89,1381.69 2132.19,1381.73 2133.48,1381.76 2134.78,1381.79 2136.07,1381.82 2137.37,1381.85 
  2138.66,1381.89 2139.96,1381.92 2141.25,1381.95 2142.55,1381.98 2143.84,1382.01 2145.14,1382.04 2146.44,1382.07 2147.73,1382.09 2149.03,1382.12 2150.32,1382.15 
  2151.62,1382.18 2152.91,1382.21 2154.21,1382.23 2155.5,1382.26 2156.8,1382.29 2158.09,1382.31 2159.39,1382.34 2160.68,1382.36 2161.98,1382.39 2163.27,1382.41 
  2164.57,1382.44 2165.86,1382.46 2167.16,1382.48 2168.45,1382.51 2169.75,1382.53 2171.04,1382.55 2172.34,1382.57 2173.63,1382.6 2174.93,1382.62 2176.22,1382.64 
  2177.52,1382.66 2178.81,1382.68 2180.11,1382.7 2181.4,1382.72 2182.7,1382.74 2184,1382.76 2185.29,1382.78 2186.59,1382.8 2187.88,1382.82 2189.18,1382.84 
  2190.47,1382.86 2191.77,1382.88 2193.06,1382.9 2194.36,1382.92 2195.65,1382.93 2196.95,1382.95 2198.24,1382.97 2199.54,1382.99 2200.83,1383 2202.13,1383.02 
  2203.42,1383.04 2204.72,1383.05 2206.01,1383.07 2207.31,1383.08 2208.6,1383.1 2209.9,1383.12 2211.19,1383.13 2212.49,1383.15 2213.78,1383.16 2215.08,1383.18 
  2216.37,1383.19 2217.67,1383.2 2218.96,1383.22 2220.26,1383.23 2221.56,1383.25 2222.85,1383.26 2224.15,1383.27 2225.44,1383.29 2226.74,1383.3 2228.03,1383.31 
  2229.33,1383.32 2230.62,1383.34 2231.92,1383.35 2233.21,1383.36 2234.51,1383.37 2235.8,1383.39 2237.1,1383.4 2238.39,1383.41 2239.69,1383.42 2240.98,1383.43 
  2242.28,1383.44 2243.57,1383.45 2244.87,1383.46 2246.16,1383.47 2247.46,1383.49 2248.75,1383.5 2250.05,1383.51 2251.34,1383.52 2252.64,1383.53 2253.93,1383.54 
  2255.23,1383.55 2256.52,1383.55 2257.82,1383.56 2259.11,1383.57 2260.41,1383.58 2261.71,1383.59 2263,1383.6 2264.3,1383.61 2265.59,1383.62 2266.89,1383.63 
  2268.18,1383.64 2269.48,1383.64 2270.77,1383.65 2272.07,1383.66 2273.36,1383.67 2274.66,1383.68 2275.95,1383.68 2277.25,1383.69 2278.54,1383.7 2279.84,1383.71 
  2281.13,1383.71 
  "/>
<path clip-path="url(#clip260)" d="
M1568.94 335.029 L2283.65 335.029 L2283.65 93.1086 L1568.94 93.1086  Z
  " fill="#ffffff" fill-rule="evenodd" fill-opacity="1"/>
<polyline clip-path="url(#clip260)" style="stroke:#000000; stroke-linecap:butt; stroke-linejoin:round; stroke-width:4; stroke-opacity:1; fill:none" points="
  1568.94,335.029 2283.65,335.029 2283.65,93.1086 1568.94,93.1086 1568.94,335.029 
  "/>
<polyline clip-path="url(#clip260)" style="stroke:#009af9; stroke-linecap:butt; stroke-linejoin:round; stroke-width:4; stroke-opacity:1; fill:none" points="
  1591.98,153.589 1730.18,153.589 
  "/>
<path clip-path="url(#clip260)" d="M1767.06 173.276 Q1765.25 177.906 1763.54 179.318 Q1761.83 180.73 1758.95 180.73 L1755.55 180.73 L1755.55 177.165 L1758.05 177.165 Q1759.81 177.165 1760.78 176.332 Q1761.76 175.498 1762.94 172.396 L1763.7 170.452 L1753.21 144.943 L1757.73 144.943 L1765.83 165.221 L1773.93 144.943 L1778.45 144.943 L1767.06 173.276 Z" fill="#000000" fill-rule="evenodd" fill-opacity="1" /><path clip-path="url(#clip260)" d="M1785.74 166.933 L1793.38 166.933 L1793.38 140.568 L1785.07 142.235 L1785.07 137.975 L1793.33 136.309 L1798.01 136.309 L1798.01 166.933 L1805.64 166.933 L1805.64 170.869 L1785.74 170.869 L1785.74 166.933 Z" fill="#000000" fill-rule="evenodd" fill-opacity="1" /><polyline clip-path="url(#clip260)" style="stroke:#e26f46; stroke-linecap:butt; stroke-linejoin:round; stroke-width:4; stroke-opacity:1; fill:none" points="
  1591.98,214.069 1730.18,214.069 
  "/>
<path clip-path="url(#clip260)" d="M1772.13 218.085 Q1772.13 213.455 1770.2 210.909 Q1768.31 208.363 1764.86 208.363 Q1761.43 208.363 1759.51 210.909 Q1757.61 213.455 1757.61 218.085 Q1757.61 222.691 1759.51 225.238 Q1761.43 227.784 1764.86 227.784 Q1768.31 227.784 1770.2 225.238 Q1772.13 222.691 1772.13 218.085 M1776.39 228.131 Q1776.39 234.751 1773.45 237.969 Q1770.51 241.21 1764.44 241.21 Q1762.2 241.21 1760.2 240.862 Q1758.21 240.538 1756.34 239.844 L1756.34 235.7 Q1758.21 236.719 1760.04 237.205 Q1761.87 237.691 1763.77 237.691 Q1767.96 237.691 1770.04 235.492 Q1772.13 233.316 1772.13 228.895 L1772.13 226.788 Q1770.81 229.08 1768.75 230.214 Q1766.69 231.349 1763.82 231.349 Q1759.05 231.349 1756.13 227.714 Q1753.21 224.08 1753.21 218.085 Q1753.21 212.066 1756.13 208.432 Q1759.05 204.798 1763.82 204.798 Q1766.69 204.798 1768.75 205.932 Q1770.81 207.066 1772.13 209.358 L1772.13 205.423 L1776.39 205.423 L1776.39 228.131 Z" fill="#000000" fill-rule="evenodd" fill-opacity="1" /><path clip-path="url(#clip260)" d="M1796.94 218.316 Q1791.78 218.316 1789.79 219.497 Q1787.8 220.677 1787.8 223.525 Q1787.8 225.793 1789.28 227.136 Q1790.78 228.455 1793.35 228.455 Q1796.89 228.455 1799.02 225.955 Q1801.18 223.432 1801.18 219.265 L1801.18 218.316 L1796.94 218.316 M1805.44 216.557 L1805.44 231.349 L1801.18 231.349 L1801.18 227.413 Q1799.72 229.775 1797.54 230.909 Q1795.37 232.02 1792.22 232.02 Q1788.24 232.02 1785.88 229.798 Q1783.54 227.552 1783.54 223.802 Q1783.54 219.427 1786.45 217.205 Q1789.39 214.983 1795.2 214.983 L1801.18 214.983 L1801.18 214.566 Q1801.18 211.627 1799.23 210.029 Q1797.31 208.409 1793.82 208.409 Q1791.59 208.409 1789.49 208.941 Q1787.38 209.474 1785.44 210.539 L1785.44 206.603 Q1787.77 205.701 1789.97 205.261 Q1792.17 204.798 1794.26 204.798 Q1799.88 204.798 1802.66 207.714 Q1805.44 210.631 1805.44 216.557 Z" fill="#000000" fill-rule="evenodd" fill-opacity="1" /><path clip-path="url(#clip260)" d="M1813.77 221.117 L1813.77 205.423 L1818.03 205.423 L1818.03 220.955 Q1818.03 224.636 1819.46 226.488 Q1820.9 228.316 1823.77 228.316 Q1827.22 228.316 1829.21 226.117 Q1831.22 223.918 1831.22 220.122 L1831.22 205.423 L1835.48 205.423 L1835.48 231.349 L1831.22 231.349 L1831.22 227.367 Q1829.67 229.728 1827.61 230.886 Q1825.57 232.02 1822.87 232.02 Q1818.4 232.02 1816.08 229.242 Q1813.77 226.464 1813.77 221.117 M1824.49 204.798 L1824.49 204.798 Z" fill="#000000" fill-rule="evenodd" fill-opacity="1" /><path clip-path="url(#clip260)" d="M1860.78 206.187 L1860.78 210.214 Q1858.98 209.289 1857.03 208.826 Q1855.09 208.363 1853.01 208.363 Q1849.83 208.363 1848.24 209.335 Q1846.66 210.307 1846.66 212.251 Q1846.66 213.733 1847.8 214.589 Q1848.93 215.423 1852.36 216.187 L1853.82 216.511 Q1858.35 217.483 1860.25 219.265 Q1862.17 221.025 1862.17 224.196 Q1862.17 227.807 1859.3 229.913 Q1856.45 232.02 1851.45 232.02 Q1849.37 232.02 1847.1 231.603 Q1844.86 231.21 1842.36 230.4 L1842.36 226.001 Q1844.72 227.228 1847.01 227.853 Q1849.3 228.455 1851.55 228.455 Q1854.56 228.455 1856.18 227.437 Q1857.8 226.395 1857.8 224.52 Q1857.8 222.784 1856.62 221.858 Q1855.46 220.932 1851.5 220.076 L1850.02 219.728 Q1846.06 218.895 1844.3 217.182 Q1842.54 215.446 1842.54 212.437 Q1842.54 208.779 1845.13 206.789 Q1847.73 204.798 1852.5 204.798 Q1854.86 204.798 1856.94 205.145 Q1859.02 205.492 1860.78 206.187 Z" fill="#000000" fill-rule="evenodd" fill-opacity="1" /><path clip-path="url(#clip260)" d="M1885.48 206.187 L1885.48 210.214 Q1883.68 209.289 1881.73 208.826 Q1879.79 208.363 1877.7 208.363 Q1874.53 208.363 1872.94 209.335 Q1871.36 210.307 1871.36 212.251 Q1871.36 213.733 1872.5 214.589 Q1873.63 215.423 1877.06 216.187 L1878.51 216.511 Q1883.05 217.483 1884.95 219.265 Q1886.87 221.025 1886.87 224.196 Q1886.87 227.807 1884 229.913 Q1881.15 232.02 1876.15 232.02 Q1874.07 232.02 1871.8 231.603 Q1869.56 231.21 1867.06 230.4 L1867.06 226.001 Q1869.42 227.228 1871.71 227.853 Q1874 228.455 1876.25 228.455 Q1879.25 228.455 1880.88 227.437 Q1882.5 226.395 1882.5 224.52 Q1882.5 222.784 1881.32 221.858 Q1880.16 220.932 1876.2 220.076 L1874.72 219.728 Q1870.76 218.895 1869 217.182 Q1867.24 215.446 1867.24 212.437 Q1867.24 208.779 1869.83 206.789 Q1872.43 204.798 1877.19 204.798 Q1879.56 204.798 1881.64 205.145 Q1883.72 205.492 1885.48 206.187 Z" fill="#000000" fill-rule="evenodd" fill-opacity="1" /><path clip-path="url(#clip260)" d="M1893.65 205.423 L1897.91 205.423 L1897.91 231.349 L1893.65 231.349 L1893.65 205.423 M1893.65 195.33 L1897.91 195.33 L1897.91 200.724 L1893.65 200.724 L1893.65 195.33 Z" fill="#000000" fill-rule="evenodd" fill-opacity="1" /><path clip-path="url(#clip260)" d="M1918.61 218.316 Q1913.44 218.316 1911.45 219.497 Q1909.46 220.677 1909.46 223.525 Q1909.46 225.793 1910.94 227.136 Q1912.45 228.455 1915.02 228.455 Q1918.56 228.455 1920.69 225.955 Q1922.84 223.432 1922.84 219.265 L1922.84 218.316 L1918.61 218.316 M1927.1 216.557 L1927.1 231.349 L1922.84 231.349 L1922.84 227.413 Q1921.38 229.775 1919.21 230.909 Q1917.03 232.02 1913.88 232.02 Q1909.9 232.02 1907.54 229.798 Q1905.2 227.552 1905.2 223.802 Q1905.2 219.427 1908.12 217.205 Q1911.06 214.983 1916.87 214.983 L1922.84 214.983 L1922.84 214.566 Q1922.84 211.627 1920.9 210.029 Q1918.98 208.409 1915.48 208.409 Q1913.26 208.409 1911.15 208.941 Q1909.05 209.474 1907.1 210.539 L1907.1 206.603 Q1909.44 205.701 1911.64 205.261 Q1913.84 204.798 1915.92 204.798 Q1921.55 204.798 1924.32 207.714 Q1927.1 210.631 1927.1 216.557 Z" fill="#000000" fill-rule="evenodd" fill-opacity="1" /><path clip-path="url(#clip260)" d="M1957.43 215.701 L1957.43 231.349 L1953.17 231.349 L1953.17 215.839 Q1953.17 212.159 1951.73 210.33 Q1950.3 208.502 1947.43 208.502 Q1943.98 208.502 1941.99 210.701 Q1940 212.9 1940 216.696 L1940 231.349 L1935.71 231.349 L1935.71 205.423 L1940 205.423 L1940 209.451 Q1941.52 207.113 1943.58 205.955 Q1945.67 204.798 1948.37 204.798 Q1952.84 204.798 1955.13 207.576 Q1957.43 210.33 1957.43 215.701 Z" fill="#000000" fill-rule="evenodd" fill-opacity="1" /><path clip-path="url(#clip260)" d="M1994.12 195.33 L1994.12 198.872 L1990.04 198.872 Q1987.75 198.872 1986.85 199.798 Q1985.97 200.724 1985.97 203.131 L1985.97 205.423 L1992.98 205.423 L1992.98 208.733 L1985.97 208.733 L1985.97 231.349 L1981.68 231.349 L1981.68 208.733 L1977.61 208.733 L1977.61 205.423 L1981.68 205.423 L1981.68 203.617 Q1981.68 199.289 1983.7 197.321 Q1985.71 195.33 1990.09 195.33 L1994.12 195.33 Z" fill="#000000" fill-rule="evenodd" fill-opacity="1" /><path clip-path="url(#clip260)" d="M1997.68 205.423 L2001.94 205.423 L2001.94 231.349 L1997.68 231.349 L1997.68 205.423 M1997.68 195.33 L2001.94 195.33 L2001.94 200.724 L1997.68 200.724 L1997.68 195.33 Z" fill="#000000" fill-rule="evenodd" fill-opacity="1" /><path clip-path="url(#clip260)" d="M2015.06 198.062 L2015.06 205.423 L2023.84 205.423 L2023.84 208.733 L2015.06 208.733 L2015.06 222.807 Q2015.06 225.978 2015.92 226.881 Q2016.8 227.784 2019.46 227.784 L2023.84 227.784 L2023.84 231.349 L2019.46 231.349 Q2014.53 231.349 2012.66 229.52 Q2010.78 227.668 2010.78 222.807 L2010.78 208.733 L2007.66 208.733 L2007.66 205.423 L2010.78 205.423 L2010.78 198.062 L2015.06 198.062 Z" fill="#000000" fill-rule="evenodd" fill-opacity="1" /><polyline clip-path="url(#clip260)" style="stroke:#3da44d; stroke-linecap:butt; stroke-linejoin:round; stroke-width:4; stroke-opacity:1; fill:none" points="
  1591.98,274.549 1730.18,274.549 
  "/>
<path clip-path="url(#clip260)" d="M1774.93 276.181 L1774.93 291.829 L1770.67 291.829 L1770.67 276.319 Q1770.67 272.639 1769.23 270.81 Q1767.8 268.982 1764.93 268.982 Q1761.48 268.982 1759.49 271.181 Q1757.5 273.38 1757.5 277.176 L1757.5 291.829 L1753.21 291.829 L1753.21 265.903 L1757.5 265.903 L1757.5 269.931 Q1759.02 267.593 1761.08 266.435 Q1763.17 265.278 1765.88 265.278 Q1770.34 265.278 1772.64 268.056 Q1774.93 270.81 1774.93 276.181 Z" fill="#000000" fill-rule="evenodd" fill-opacity="1" /><path clip-path="url(#clip260)" d="M1805.6 277.801 L1805.6 279.884 L1786.01 279.884 Q1786.29 284.282 1788.65 286.597 Q1791.04 288.889 1795.27 288.889 Q1797.73 288.889 1800.02 288.287 Q1802.33 287.685 1804.6 286.481 L1804.6 290.509 Q1802.31 291.481 1799.9 291.991 Q1797.5 292.5 1795.02 292.5 Q1788.82 292.5 1785.18 288.889 Q1781.57 285.278 1781.57 279.12 Q1781.57 272.755 1785 269.028 Q1788.45 265.278 1794.28 265.278 Q1799.51 265.278 1802.54 268.657 Q1805.6 272.014 1805.6 277.801 M1801.34 276.551 Q1801.29 273.056 1799.37 270.972 Q1797.47 268.889 1794.32 268.889 Q1790.76 268.889 1788.61 270.903 Q1786.48 272.917 1786.15 276.574 L1801.34 276.551 Z" fill="#000000" fill-rule="evenodd" fill-opacity="1" /><path clip-path="url(#clip260)" d="M1829.65 278.565 Q1829.65 273.935 1827.73 271.389 Q1825.83 268.843 1822.38 268.843 Q1818.95 268.843 1817.03 271.389 Q1815.13 273.935 1815.13 278.565 Q1815.13 283.171 1817.03 285.718 Q1818.95 288.264 1822.38 288.264 Q1825.83 288.264 1827.73 285.718 Q1829.65 283.171 1829.65 278.565 M1833.91 288.611 Q1833.91 295.231 1830.97 298.449 Q1828.03 301.69 1821.96 301.69 Q1819.72 301.69 1817.73 301.342 Q1815.74 301.018 1813.86 300.324 L1813.86 296.18 Q1815.74 297.199 1817.57 297.685 Q1819.39 298.171 1821.29 298.171 Q1825.48 298.171 1827.57 295.972 Q1829.65 293.796 1829.65 289.375 L1829.65 287.268 Q1828.33 289.56 1826.27 290.694 Q1824.21 291.829 1821.34 291.829 Q1816.57 291.829 1813.65 288.194 Q1810.74 284.56 1810.74 278.565 Q1810.74 272.546 1813.65 268.912 Q1816.57 265.278 1821.34 265.278 Q1824.21 265.278 1826.27 266.412 Q1828.33 267.546 1829.65 269.838 L1829.65 265.903 L1833.91 265.903 L1833.91 288.611 Z" fill="#000000" fill-rule="evenodd" fill-opacity="1" /><path clip-path="url(#clip260)" d="M1854.46 278.796 Q1849.3 278.796 1847.31 279.977 Q1845.32 281.157 1845.32 284.005 Q1845.32 286.273 1846.8 287.616 Q1848.31 288.935 1850.88 288.935 Q1854.42 288.935 1856.55 286.435 Q1858.7 283.912 1858.7 279.745 L1858.7 278.796 L1854.46 278.796 M1862.96 277.037 L1862.96 291.829 L1858.7 291.829 L1858.7 287.893 Q1857.24 290.255 1855.07 291.389 Q1852.89 292.5 1849.74 292.5 Q1845.76 292.5 1843.4 290.278 Q1841.06 288.032 1841.06 284.282 Q1841.06 279.907 1843.98 277.685 Q1846.92 275.463 1852.73 275.463 L1858.7 275.463 L1858.7 275.046 Q1858.7 272.107 1856.76 270.509 Q1854.83 268.889 1851.34 268.889 Q1849.12 268.889 1847.01 269.421 Q1844.9 269.954 1842.96 271.019 L1842.96 267.083 Q1845.3 266.181 1847.5 265.741 Q1849.69 265.278 1851.78 265.278 Q1857.4 265.278 1860.18 268.194 Q1862.96 271.111 1862.96 277.037 Z" fill="#000000" fill-rule="evenodd" fill-opacity="1" /><path clip-path="url(#clip260)" d="M1875.94 258.542 L1875.94 265.903 L1884.72 265.903 L1884.72 269.213 L1875.94 269.213 L1875.94 283.287 Q1875.94 286.458 1876.8 287.361 Q1877.68 288.264 1880.34 288.264 L1884.72 288.264 L1884.72 291.829 L1880.34 291.829 Q1875.41 291.829 1873.54 290 Q1871.66 288.148 1871.66 283.287 L1871.66 269.213 L1868.54 269.213 L1868.54 265.903 L1871.66 265.903 L1871.66 258.542 L1875.94 258.542 Z" fill="#000000" fill-rule="evenodd" fill-opacity="1" /><path clip-path="url(#clip260)" d="M1890.32 265.903 L1894.58 265.903 L1894.58 291.829 L1890.32 291.829 L1890.32 265.903 M1890.32 255.81 L1894.58 255.81 L1894.58 261.204 L1890.32 261.204 L1890.32 255.81 Z" fill="#000000" fill-rule="evenodd" fill-opacity="1" /><path clip-path="url(#clip260)" d="M1900.44 265.903 L1904.95 265.903 L1913.05 287.662 L1921.15 265.903 L1925.67 265.903 L1915.94 291.829 L1910.16 291.829 L1900.44 265.903 Z" fill="#000000" fill-rule="evenodd" fill-opacity="1" /><path clip-path="url(#clip260)" d="M1953.72 277.801 L1953.72 279.884 L1934.14 279.884 Q1934.42 284.282 1936.78 286.597 Q1939.16 288.889 1943.4 288.889 Q1945.85 288.889 1948.14 288.287 Q1950.46 287.685 1952.73 286.481 L1952.73 290.509 Q1950.44 291.481 1948.03 291.991 Q1945.62 292.5 1943.14 292.5 Q1936.94 292.5 1933.31 288.889 Q1929.69 285.278 1929.69 279.12 Q1929.69 272.755 1933.12 269.028 Q1936.57 265.278 1942.4 265.278 Q1947.63 265.278 1950.67 268.657 Q1953.72 272.014 1953.72 277.801 M1949.46 276.551 Q1949.42 273.056 1947.5 270.972 Q1945.6 268.889 1942.45 268.889 Q1938.88 268.889 1936.73 270.903 Q1934.6 272.917 1934.28 276.574 L1949.46 276.551 Z" fill="#000000" fill-rule="evenodd" fill-opacity="1" /><path clip-path="url(#clip260)" d="M1994.39 278.889 Q1994.39 274.19 1992.45 271.528 Q1990.53 268.843 1987.15 268.843 Q1983.77 268.843 1981.82 271.528 Q1979.9 274.19 1979.9 278.889 Q1979.9 283.588 1981.82 286.273 Q1983.77 288.935 1987.15 288.935 Q1990.53 288.935 1992.45 286.273 Q1994.39 283.588 1994.39 278.889 M1979.9 269.838 Q1981.25 267.523 1983.28 266.412 Q1985.34 265.278 1988.19 265.278 Q1992.91 265.278 1995.85 269.028 Q1998.81 272.778 1998.81 278.889 Q1998.81 285 1995.85 288.75 Q1992.91 292.5 1988.19 292.5 Q1985.34 292.5 1983.28 291.389 Q1981.25 290.255 1979.9 287.94 L1979.9 291.829 L1975.62 291.829 L1975.62 255.81 L1979.9 255.81 L1979.9 269.838 Z" fill="#000000" fill-rule="evenodd" fill-opacity="1" /><path clip-path="url(#clip260)" d="M2005.87 265.903 L2010.13 265.903 L2010.13 291.829 L2005.87 291.829 L2005.87 265.903 M2005.87 255.81 L2010.13 255.81 L2010.13 261.204 L2005.87 261.204 L2005.87 255.81 Z" fill="#000000" fill-rule="evenodd" fill-opacity="1" /><path clip-path="url(#clip260)" d="M2040.6 276.181 L2040.6 291.829 L2036.34 291.829 L2036.34 276.319 Q2036.34 272.639 2034.9 270.81 Q2033.47 268.982 2030.6 268.982 Q2027.15 268.982 2025.16 271.181 Q2023.17 273.38 2023.17 277.176 L2023.17 291.829 L2018.88 291.829 L2018.88 265.903 L2023.17 265.903 L2023.17 269.931 Q2024.69 267.593 2026.75 266.435 Q2028.84 265.278 2031.55 265.278 Q2036.01 265.278 2038.31 268.056 Q2040.6 270.81 2040.6 276.181 Z" fill="#000000" fill-rule="evenodd" fill-opacity="1" /><path clip-path="url(#clip260)" d="M2059.14 268.889 Q2055.71 268.889 2053.72 271.574 Q2051.73 274.236 2051.73 278.889 Q2051.73 283.542 2053.7 286.227 Q2055.69 288.889 2059.14 288.889 Q2062.54 288.889 2064.53 286.204 Q2066.52 283.518 2066.52 278.889 Q2066.52 274.282 2064.53 271.597 Q2062.54 268.889 2059.14 268.889 M2059.14 265.278 Q2064.69 265.278 2067.87 268.889 Q2071.04 272.5 2071.04 278.889 Q2071.04 285.255 2067.87 288.889 Q2064.69 292.5 2059.14 292.5 Q2053.56 292.5 2050.39 288.889 Q2047.24 285.255 2047.24 278.889 Q2047.24 272.5 2050.39 268.889 Q2053.56 265.278 2059.14 265.278 Z" fill="#000000" fill-rule="evenodd" fill-opacity="1" /><path clip-path="url(#clip260)" d="M2098.28 270.88 Q2099.88 268.009 2102.1 266.644 Q2104.32 265.278 2107.33 265.278 Q2111.38 265.278 2113.58 268.125 Q2115.78 270.949 2115.78 276.181 L2115.78 291.829 L2111.5 291.829 L2111.5 276.319 Q2111.5 272.593 2110.18 270.787 Q2108.86 268.982 2106.15 268.982 Q2102.84 268.982 2100.92 271.181 Q2099 273.38 2099 277.176 L2099 291.829 L2094.72 291.829 L2094.72 276.319 Q2094.72 272.569 2093.4 270.787 Q2092.08 268.982 2089.32 268.982 Q2086.06 268.982 2084.14 271.204 Q2082.22 273.403 2082.22 277.176 L2082.22 291.829 L2077.93 291.829 L2077.93 265.903 L2082.22 265.903 L2082.22 269.931 Q2083.68 267.546 2085.71 266.412 Q2087.75 265.278 2090.55 265.278 Q2093.37 265.278 2095.34 266.713 Q2097.33 268.148 2098.28 270.88 Z" fill="#000000" fill-rule="evenodd" fill-opacity="1" /><path clip-path="url(#clip260)" d="M2124.28 265.903 L2128.54 265.903 L2128.54 291.829 L2124.28 291.829 L2124.28 265.903 M2124.28 255.81 L2128.54 255.81 L2128.54 261.204 L2124.28 261.204 L2124.28 255.81 Z" fill="#000000" fill-rule="evenodd" fill-opacity="1" /><path clip-path="url(#clip260)" d="M2149.23 278.796 Q2144.07 278.796 2142.08 279.977 Q2140.09 281.157 2140.09 284.005 Q2140.09 286.273 2141.57 287.616 Q2143.07 288.935 2145.64 288.935 Q2149.18 288.935 2151.31 286.435 Q2153.47 283.912 2153.47 279.745 L2153.47 278.796 L2149.23 278.796 M2157.73 277.037 L2157.73 291.829 L2153.47 291.829 L2153.47 287.893 Q2152.01 290.255 2149.83 291.389 Q2147.66 292.5 2144.51 292.5 Q2140.53 292.5 2138.17 290.278 Q2135.83 288.032 2135.83 284.282 Q2135.83 279.907 2138.74 277.685 Q2141.68 275.463 2147.49 275.463 L2153.47 275.463 L2153.47 275.046 Q2153.47 272.107 2151.52 270.509 Q2149.6 268.889 2146.11 268.889 Q2143.88 268.889 2141.78 269.421 Q2139.67 269.954 2137.73 271.019 L2137.73 267.083 Q2140.06 266.181 2142.26 265.741 Q2144.46 265.278 2146.55 265.278 Q2152.17 265.278 2154.95 268.194 Q2157.73 271.111 2157.73 277.037 Z" fill="#000000" fill-rule="evenodd" fill-opacity="1" /><path clip-path="url(#clip260)" d="M2166.5 255.81 L2170.76 255.81 L2170.76 291.829 L2166.5 291.829 L2166.5 255.81 Z" fill="#000000" fill-rule="evenodd" fill-opacity="1" /><path clip-path="url(#clip260)" d="M2207.86 255.81 L2207.86 259.352 L2203.79 259.352 Q2201.5 259.352 2200.6 260.278 Q2199.72 261.204 2199.72 263.611 L2199.72 265.903 L2206.73 265.903 L2206.73 269.213 L2199.72 269.213 L2199.72 291.829 L2195.43 291.829 L2195.43 269.213 L2191.36 269.213 L2191.36 265.903 L2195.43 265.903 L2195.43 264.097 Q2195.43 259.769 2197.45 257.801 Q2199.46 255.81 2203.84 255.81 L2207.86 255.81 Z" fill="#000000" fill-rule="evenodd" fill-opacity="1" /><path clip-path="url(#clip260)" d="M2211.43 265.903 L2215.69 265.903 L2215.69 291.829 L2211.43 291.829 L2211.43 265.903 M2211.43 255.81 L2215.69 255.81 L2215.69 261.204 L2211.43 261.204 L2211.43 255.81 Z" fill="#000000" fill-rule="evenodd" fill-opacity="1" /><path clip-path="url(#clip260)" d="M2228.81 258.542 L2228.81 265.903 L2237.59 265.903 L2237.59 269.213 L2228.81 269.213 L2228.81 283.287 Q2228.81 286.458 2229.67 287.361 Q2230.55 288.264 2233.21 288.264 L2237.59 288.264 L2237.59 291.829 L2233.21 291.829 Q2228.28 291.829 2226.41 290 Q2224.53 288.148 2224.53 283.287 L2224.53 269.213 L2221.41 269.213 L2221.41 265.903 L2224.53 265.903 L2224.53 258.542 L2228.81 258.542 Z" fill="#000000" fill-rule="evenodd" fill-opacity="1" /></svg>
