<?xml version="1.0" encoding="utf-8"?>
<svg xmlns="http://www.w3.org/2000/svg" xmlns:xlink="http://www.w3.org/1999/xlink" width="600" height="400" viewBox="0 0 2400 1600">
<defs>
  <clipPath id="clip470">
    <rect x="0" y="0" width="2400" height="1600"/>
  </clipPath>
</defs>
<path clip-path="url(#clip470)" d="
M0 1600 L2400 1600 L2400 0 L0 0  Z
  " fill="#ffffff" fill-rule="evenodd" fill-opacity="1"/>
<defs>
  <clipPath id="clip471">
    <rect x="480" y="0" width="1681" height="1600"/>
  </clipPath>
</defs>
<path clip-path="url(#clip470)" d="
M249.542 1423.18 L2352.76 1423.18 L2352.76 47.2441 L249.542 47.2441  Z
  " fill="#ffffff" fill-rule="evenodd" fill-opacity="1"/>
<defs>
  <clipPath id="clip472">
    <rect x="249" y="47" width="2104" height="1377"/>
  </clipPath>
</defs>
<polyline clip-path="url(#clip472)" style="stroke:#000000; stroke-width:2; stroke-opacity:0.1; fill:none" points="
  365.223,1423.18 365.223,47.2441 
  "/>
<polyline clip-path="url(#clip472)" style="stroke:#000000; stroke-width:2; stroke-opacity:0.1; fill:none" points="
  653.2,1423.18 653.2,47.2441 
  "/>
<polyline clip-path="url(#clip472)" style="stroke:#000000; stroke-width:2; stroke-opacity:0.1; fill:none" points="
  941.177,1423.18 941.177,47.2441 
  "/>
<polyline clip-path="url(#clip472)" style="stroke:#000000; stroke-width:2; stroke-opacity:0.1; fill:none" points="
  1229.15,1423.18 1229.15,47.2441 
  "/>
<polyline clip-path="url(#clip472)" style="stroke:#000000; stroke-width:2; stroke-opacity:0.1; fill:none" points="
  1517.13,1423.18 1517.13,47.2441 
  "/>
<polyline clip-path="url(#clip472)" style="stroke:#000000; stroke-width:2; stroke-opacity:0.1; fill:none" points="
  1805.11,1423.18 1805.11,47.2441 
  "/>
<polyline clip-path="url(#clip472)" style="stroke:#000000; stroke-width:2; stroke-opacity:0.1; fill:none" points="
  2093.09,1423.18 2093.09,47.2441 
  "/>
<polyline clip-path="url(#clip470)" style="stroke:#000000; stroke-width:4; stroke-opacity:1; fill:none" points="
  249.542,1423.18 2352.76,1423.18 
  "/>
<polyline clip-path="url(#clip470)" style="stroke:#000000; stroke-width:4; stroke-opacity:1; fill:none" points="
  365.223,1423.18 365.223,1406.67 
  "/>
<polyline clip-path="url(#clip470)" style="stroke:#000000; stroke-width:4; stroke-opacity:1; fill:none" points="
  653.2,1423.18 653.2,1406.67 
  "/>
<polyline clip-path="url(#clip470)" style="stroke:#000000; stroke-width:4; stroke-opacity:1; fill:none" points="
  941.177,1423.18 941.177,1406.67 
  "/>
<polyline clip-path="url(#clip470)" style="stroke:#000000; stroke-width:4; stroke-opacity:1; fill:none" points="
  1229.15,1423.18 1229.15,1406.67 
  "/>
<polyline clip-path="url(#clip470)" style="stroke:#000000; stroke-width:4; stroke-opacity:1; fill:none" points="
  1517.13,1423.18 1517.13,1406.67 
  "/>
<polyline clip-path="url(#clip470)" style="stroke:#000000; stroke-width:4; stroke-opacity:1; fill:none" points="
  1805.11,1423.18 1805.11,1406.67 
  "/>
<polyline clip-path="url(#clip470)" style="stroke:#000000; stroke-width:4; stroke-opacity:1; fill:none" points="
  2093.09,1423.18 2093.09,1406.67 
  "/>
<path clip-path="url(#clip470)" d="M 0 0 M365.223 1452.37 Q361.611 1452.37 359.783 1455.94 Q357.977 1459.48 357.977 1466.61 Q357.977 1473.71 359.783 1477.28 Q361.611 1480.82 365.223 1480.82 Q368.857 1480.82 370.662 1477.28 Q372.491 1473.71 372.491 1466.61 Q372.491 1459.48 370.662 1455.94 Q368.857 1452.37 365.223 1452.37 M365.223 1448.67 Q371.033 1448.67 374.088 1453.27 Q377.167 1457.86 377.167 1466.61 Q377.167 1475.33 374.088 1479.94 Q371.033 1484.52 365.223 1484.52 Q359.412 1484.52 356.334 1479.94 Q353.278 1475.33 353.278 1466.61 Q353.278 1457.86 356.334 1453.27 Q359.412 1448.67 365.223 1448.67 Z" fill="#000000" fill-rule="evenodd" fill-opacity="1" /><path clip-path="url(#clip470)" d="M 0 0 M647.853 1479.92 L664.172 1479.92 L664.172 1483.85 L642.228 1483.85 L642.228 1479.92 Q644.89 1477.16 649.473 1472.53 Q654.08 1467.88 655.26 1466.54 Q657.505 1464.01 658.385 1462.28 Q659.288 1460.52 659.288 1458.83 Q659.288 1456.07 657.343 1454.34 Q655.422 1452.6 652.32 1452.6 Q650.121 1452.6 647.668 1453.37 Q645.237 1454.13 642.459 1455.68 L642.459 1450.96 Q645.283 1449.82 647.737 1449.25 Q650.191 1448.67 652.228 1448.67 Q657.598 1448.67 660.792 1451.35 Q663.987 1454.04 663.987 1458.53 Q663.987 1460.66 663.177 1462.58 Q662.39 1464.48 660.283 1467.07 Q659.704 1467.74 656.603 1470.96 Q653.501 1474.15 647.853 1479.92 Z" fill="#000000" fill-rule="evenodd" fill-opacity="1" /><path clip-path="url(#clip470)" d="M 0 0 M944.187 1453.37 L932.381 1471.81 L944.187 1471.81 L944.187 1453.37 M942.96 1449.29 L948.839 1449.29 L948.839 1471.81 L953.77 1471.81 L953.77 1475.7 L948.839 1475.7 L948.839 1483.85 L944.187 1483.85 L944.187 1475.7 L928.585 1475.7 L928.585 1471.19 L942.96 1449.29 Z" fill="#000000" fill-rule="evenodd" fill-opacity="1" /><path clip-path="url(#clip470)" d="M 0 0 M1229.56 1464.71 Q1226.41 1464.71 1224.56 1466.86 Q1222.73 1469.01 1222.73 1472.76 Q1222.73 1476.49 1224.56 1478.67 Q1226.41 1480.82 1229.56 1480.82 Q1232.71 1480.82 1234.54 1478.67 Q1236.39 1476.49 1236.39 1472.76 Q1236.39 1469.01 1234.54 1466.86 Q1232.71 1464.71 1229.56 1464.71 M1238.84 1450.06 L1238.84 1454.31 Q1237.08 1453.48 1235.28 1453.04 Q1233.49 1452.6 1231.74 1452.6 Q1227.11 1452.6 1224.65 1455.73 Q1222.22 1458.85 1221.87 1465.17 Q1223.24 1463.16 1225.3 1462.09 Q1227.36 1461 1229.84 1461 Q1235.05 1461 1238.06 1464.18 Q1241.09 1467.32 1241.09 1472.76 Q1241.09 1478.09 1237.94 1481.31 Q1234.79 1484.52 1229.56 1484.52 Q1223.56 1484.52 1220.39 1479.94 Q1217.22 1475.33 1217.22 1466.61 Q1217.22 1458.41 1221.11 1453.55 Q1225 1448.67 1231.55 1448.67 Q1233.31 1448.67 1235.09 1449.01 Q1236.9 1449.36 1238.84 1450.06 Z" fill="#000000" fill-rule="evenodd" fill-opacity="1" /><path clip-path="url(#clip470)" d="M 0 0 M1517.13 1467.44 Q1513.8 1467.44 1511.88 1469.22 Q1509.98 1471 1509.98 1474.13 Q1509.98 1477.25 1511.88 1479.04 Q1513.8 1480.82 1517.13 1480.82 Q1520.47 1480.82 1522.39 1479.04 Q1524.31 1477.23 1524.31 1474.13 Q1524.31 1471 1522.39 1469.22 Q1520.49 1467.44 1517.13 1467.44 M1512.46 1465.45 Q1509.45 1464.71 1507.76 1462.65 Q1506.09 1460.59 1506.09 1457.63 Q1506.09 1453.48 1509.03 1451.07 Q1511.99 1448.67 1517.13 1448.67 Q1522.29 1448.67 1525.23 1451.07 Q1528.17 1453.48 1528.17 1457.63 Q1528.17 1460.59 1526.48 1462.65 Q1524.82 1464.71 1521.83 1465.45 Q1525.21 1466.24 1527.09 1468.53 Q1528.98 1470.82 1528.98 1474.13 Q1528.98 1479.15 1525.91 1481.84 Q1522.85 1484.52 1517.13 1484.52 Q1511.41 1484.52 1508.34 1481.84 Q1505.28 1479.15 1505.28 1474.13 Q1505.28 1470.82 1507.18 1468.53 Q1509.08 1466.24 1512.46 1465.45 M1510.74 1458.06 Q1510.74 1460.75 1512.41 1462.25 Q1514.1 1463.76 1517.13 1463.76 Q1520.14 1463.76 1521.83 1462.25 Q1523.54 1460.75 1523.54 1458.06 Q1523.54 1455.38 1521.83 1453.88 Q1520.14 1452.37 1517.13 1452.37 Q1514.1 1452.37 1512.41 1453.88 Q1510.74 1455.38 1510.74 1458.06 Z" fill="#000000" fill-rule="evenodd" fill-opacity="1" /><path clip-path="url(#clip470)" d="M 0 0 M1779.8 1479.92 L1787.44 1479.92 L1787.44 1453.55 L1779.13 1455.22 L1779.13 1450.96 L1787.39 1449.29 L1792.07 1449.29 L1792.07 1479.92 L1799.7 1479.92 L1799.7 1483.85 L1779.8 1483.85 L1779.8 1479.92 Z" fill="#000000" fill-rule="evenodd" fill-opacity="1" /><path clip-path="url(#clip470)" d="M 0 0 M1819.15 1452.37 Q1815.54 1452.37 1813.71 1455.94 Q1811.9 1459.48 1811.9 1466.61 Q1811.9 1473.71 1813.71 1477.28 Q1815.54 1480.82 1819.15 1480.82 Q1822.78 1480.82 1824.59 1477.28 Q1826.42 1473.71 1826.42 1466.61 Q1826.42 1459.48 1824.59 1455.94 Q1822.78 1452.37 1819.15 1452.37 M1819.15 1448.67 Q1824.96 1448.67 1828.01 1453.27 Q1831.09 1457.86 1831.09 1466.61 Q1831.09 1475.33 1828.01 1479.94 Q1824.96 1484.52 1819.15 1484.52 Q1813.34 1484.52 1810.26 1479.94 Q1807.2 1475.33 1807.2 1466.61 Q1807.2 1457.86 1810.26 1453.27 Q1813.34 1448.67 1819.15 1448.67 Z" fill="#000000" fill-rule="evenodd" fill-opacity="1" /><path clip-path="url(#clip470)" d="M 0 0 M2068.57 1479.92 L2076.21 1479.92 L2076.21 1453.55 L2067.9 1455.22 L2067.9 1450.96 L2076.17 1449.29 L2080.84 1449.29 L2080.84 1479.92 L2088.48 1479.92 L2088.48 1483.85 L2068.57 1483.85 L2068.57 1479.92 Z" fill="#000000" fill-rule="evenodd" fill-opacity="1" /><path clip-path="url(#clip470)" d="M 0 0 M2101.95 1479.92 L2118.27 1479.92 L2118.27 1483.85 L2096.33 1483.85 L2096.33 1479.92 Q2098.99 1477.16 2103.57 1472.53 Q2108.18 1467.88 2109.36 1466.54 Q2111.61 1464.01 2112.48 1462.28 Q2113.39 1460.52 2113.39 1458.83 Q2113.39 1456.07 2111.44 1454.34 Q2109.52 1452.6 2106.42 1452.6 Q2104.22 1452.6 2101.77 1453.37 Q2099.34 1454.13 2096.56 1455.68 L2096.56 1450.96 Q2099.38 1449.82 2101.84 1449.25 Q2104.29 1448.67 2106.33 1448.67 Q2111.7 1448.67 2114.89 1451.35 Q2118.09 1454.04 2118.09 1458.53 Q2118.09 1460.66 2117.28 1462.58 Q2116.49 1464.48 2114.38 1467.07 Q2113.8 1467.74 2110.7 1470.96 Q2107.6 1474.15 2101.95 1479.92 Z" fill="#000000" fill-rule="evenodd" fill-opacity="1" /><path clip-path="url(#clip470)" d="M 0 0 M1303.11 1539.24 Q1305.3 1535.29 1308.36 1533.41 Q1311.41 1531.54 1315.55 1531.54 Q1321.12 1531.54 1324.15 1535.45 Q1327.17 1539.33 1327.17 1546.53 L1327.17 1568.04 L1321.28 1568.04 L1321.28 1546.72 Q1321.28 1541.59 1319.47 1539.11 Q1317.65 1536.63 1313.93 1536.63 Q1309.38 1536.63 1306.73 1539.65 Q1304.09 1542.68 1304.09 1547.9 L1304.09 1568.04 L1298.2 1568.04 L1298.2 1546.72 Q1298.2 1541.56 1296.39 1539.11 Q1294.58 1536.63 1290.79 1536.63 Q1286.3 1536.63 1283.66 1539.68 Q1281.02 1542.71 1281.02 1547.9 L1281.02 1568.04 L1275.13 1568.04 L1275.13 1532.4 L1281.02 1532.4 L1281.02 1537.93 Q1283.02 1534.66 1285.82 1533.1 Q1288.62 1531.54 1292.48 1531.54 Q1296.36 1531.54 1299.06 1533.51 Q1301.8 1535.48 1303.11 1539.24 Z" fill="#000000" fill-rule="evenodd" fill-opacity="1" /><polyline clip-path="url(#clip472)" style="stroke:#000000; stroke-width:2; stroke-opacity:0.1; fill:none" points="
  249.542,1384.24 2352.76,1384.24 
  "/>
<polyline clip-path="url(#clip472)" style="stroke:#000000; stroke-width:2; stroke-opacity:0.1; fill:none" points="
  249.542,1130.44 2352.76,1130.44 
  "/>
<polyline clip-path="url(#clip472)" style="stroke:#000000; stroke-width:2; stroke-opacity:0.1; fill:none" points="
  249.542,876.638 2352.76,876.638 
  "/>
<polyline clip-path="url(#clip472)" style="stroke:#000000; stroke-width:2; stroke-opacity:0.1; fill:none" points="
  249.542,622.838 2352.76,622.838 
  "/>
<polyline clip-path="url(#clip472)" style="stroke:#000000; stroke-width:2; stroke-opacity:0.1; fill:none" points="
  249.542,369.038 2352.76,369.038 
  "/>
<polyline clip-path="url(#clip472)" style="stroke:#000000; stroke-width:2; stroke-opacity:0.1; fill:none" points="
  249.542,115.238 2352.76,115.238 
  "/>
<polyline clip-path="url(#clip470)" style="stroke:#000000; stroke-width:4; stroke-opacity:1; fill:none" points="
  249.542,1423.18 249.542,47.2441 
  "/>
<polyline clip-path="url(#clip470)" style="stroke:#000000; stroke-width:4; stroke-opacity:1; fill:none" points="
  249.542,1384.24 274.781,1384.24 
  "/>
<polyline clip-path="url(#clip470)" style="stroke:#000000; stroke-width:4; stroke-opacity:1; fill:none" points="
  249.542,1130.44 274.781,1130.44 
  "/>
<polyline clip-path="url(#clip470)" style="stroke:#000000; stroke-width:4; stroke-opacity:1; fill:none" points="
  249.542,876.638 274.781,876.638 
  "/>
<polyline clip-path="url(#clip470)" style="stroke:#000000; stroke-width:4; stroke-opacity:1; fill:none" points="
  249.542,622.838 274.781,622.838 
  "/>
<polyline clip-path="url(#clip470)" style="stroke:#000000; stroke-width:4; stroke-opacity:1; fill:none" points="
  249.542,369.038 274.781,369.038 
  "/>
<polyline clip-path="url(#clip470)" style="stroke:#000000; stroke-width:4; stroke-opacity:1; fill:none" points="
  249.542,115.238 274.781,115.238 
  "/>
<path clip-path="url(#clip470)" d="M 0 0 M126.205 1370.04 Q122.593 1370.04 120.765 1373.6 Q118.959 1377.14 118.959 1384.27 Q118.959 1391.38 120.765 1394.94 Q122.593 1398.49 126.205 1398.49 Q129.839 1398.49 131.644 1394.94 Q133.473 1391.38 133.473 1384.27 Q133.473 1377.14 131.644 1373.6 Q129.839 1370.04 126.205 1370.04 M126.205 1366.33 Q132.015 1366.33 135.07 1370.94 Q138.149 1375.52 138.149 1384.27 Q138.149 1393 135.07 1397.61 Q132.015 1402.19 126.205 1402.19 Q120.394 1402.19 117.316 1397.61 Q114.26 1393 114.26 1384.27 Q114.26 1375.52 117.316 1370.94 Q120.394 1366.33 126.205 1366.33 Z" fill="#000000" fill-rule="evenodd" fill-opacity="1" /><path clip-path="url(#clip470)" d="M 0 0 M146.366 1395.64 L151.251 1395.64 L151.251 1401.52 L146.366 1401.52 L146.366 1395.64 Z" fill="#000000" fill-rule="evenodd" fill-opacity="1" /><path clip-path="url(#clip470)" d="M 0 0 M171.436 1370.04 Q167.825 1370.04 165.996 1373.6 Q164.19 1377.14 164.19 1384.27 Q164.19 1391.38 165.996 1394.94 Q167.825 1398.49 171.436 1398.49 Q175.07 1398.49 176.876 1394.94 Q178.704 1391.38 178.704 1384.27 Q178.704 1377.14 176.876 1373.6 Q175.07 1370.04 171.436 1370.04 M171.436 1366.33 Q177.246 1366.33 180.301 1370.94 Q183.38 1375.52 183.38 1384.27 Q183.38 1393 180.301 1397.61 Q177.246 1402.19 171.436 1402.19 Q165.626 1402.19 162.547 1397.61 Q159.491 1393 159.491 1384.27 Q159.491 1375.52 162.547 1370.94 Q165.626 1366.33 171.436 1366.33 Z" fill="#000000" fill-rule="evenodd" fill-opacity="1" /><path clip-path="url(#clip470)" d="M 0 0 M201.598 1370.04 Q197.987 1370.04 196.158 1373.6 Q194.352 1377.14 194.352 1384.27 Q194.352 1391.38 196.158 1394.94 Q197.987 1398.49 201.598 1398.49 Q205.232 1398.49 207.037 1394.94 Q208.866 1391.38 208.866 1384.27 Q208.866 1377.14 207.037 1373.6 Q205.232 1370.04 201.598 1370.04 M201.598 1366.33 Q207.408 1366.33 210.463 1370.94 Q213.542 1375.52 213.542 1384.27 Q213.542 1393 210.463 1397.61 Q207.408 1402.19 201.598 1402.19 Q195.787 1402.19 192.709 1397.61 Q189.653 1393 189.653 1384.27 Q189.653 1375.52 192.709 1370.94 Q195.787 1366.33 201.598 1366.33 Z" fill="#000000" fill-rule="evenodd" fill-opacity="1" /><path clip-path="url(#clip470)" d="M 0 0 M127.2 1116.24 Q123.589 1116.24 121.76 1119.8 Q119.955 1123.34 119.955 1130.47 Q119.955 1137.58 121.76 1141.14 Q123.589 1144.69 127.2 1144.69 Q130.834 1144.69 132.64 1141.14 Q134.468 1137.58 134.468 1130.47 Q134.468 1123.34 132.64 1119.8 Q130.834 1116.24 127.2 1116.24 M127.2 1112.53 Q133.01 1112.53 136.066 1117.14 Q139.144 1121.72 139.144 1130.47 Q139.144 1139.2 136.066 1143.81 Q133.01 1148.39 127.2 1148.39 Q121.39 1148.39 118.311 1143.81 Q115.256 1139.2 115.256 1130.47 Q115.256 1121.72 118.311 1117.14 Q121.39 1112.53 127.2 1112.53 Z" fill="#000000" fill-rule="evenodd" fill-opacity="1" /><path clip-path="url(#clip470)" d="M 0 0 M147.362 1141.84 L152.246 1141.84 L152.246 1147.72 L147.362 1147.72 L147.362 1141.84 Z" fill="#000000" fill-rule="evenodd" fill-opacity="1" /><path clip-path="url(#clip470)" d="M 0 0 M172.431 1116.24 Q168.82 1116.24 166.991 1119.8 Q165.186 1123.34 165.186 1130.47 Q165.186 1137.58 166.991 1141.14 Q168.82 1144.69 172.431 1144.69 Q176.065 1144.69 177.871 1141.14 Q179.7 1137.58 179.7 1130.47 Q179.7 1123.34 177.871 1119.8 Q176.065 1116.24 172.431 1116.24 M172.431 1112.53 Q178.241 1112.53 181.297 1117.14 Q184.376 1121.72 184.376 1130.47 Q184.376 1139.2 181.297 1143.81 Q178.241 1148.39 172.431 1148.39 Q166.621 1148.39 163.542 1143.81 Q160.487 1139.2 160.487 1130.47 Q160.487 1121.72 163.542 1117.14 Q166.621 1112.53 172.431 1112.53 Z" fill="#000000" fill-rule="evenodd" fill-opacity="1" /><path clip-path="url(#clip470)" d="M 0 0 M192.639 1113.16 L210.996 1113.16 L210.996 1117.09 L196.922 1117.09 L196.922 1125.57 Q197.94 1125.22 198.959 1125.06 Q199.977 1124.87 200.996 1124.87 Q206.783 1124.87 210.162 1128.04 Q213.542 1131.21 213.542 1136.63 Q213.542 1142.21 210.07 1145.31 Q206.598 1148.39 200.278 1148.39 Q198.102 1148.39 195.834 1148.02 Q193.588 1147.65 191.181 1146.91 L191.181 1142.21 Q193.264 1143.34 195.487 1143.9 Q197.709 1144.45 200.186 1144.45 Q204.19 1144.45 206.528 1142.35 Q208.866 1140.24 208.866 1136.63 Q208.866 1133.02 206.528 1130.91 Q204.19 1128.81 200.186 1128.81 Q198.311 1128.81 196.436 1129.22 Q194.584 1129.64 192.639 1130.52 L192.639 1113.16 Z" fill="#000000" fill-rule="evenodd" fill-opacity="1" /><path clip-path="url(#clip470)" d="M 0 0 M126.205 862.437 Q122.593 862.437 120.765 866.001 Q118.959 869.543 118.959 876.673 Q118.959 883.779 120.765 887.344 Q122.593 890.886 126.205 890.886 Q129.839 890.886 131.644 887.344 Q133.473 883.779 133.473 876.673 Q133.473 869.543 131.644 866.001 Q129.839 862.437 126.205 862.437 M126.205 858.733 Q132.015 858.733 135.07 863.339 Q138.149 867.923 138.149 876.673 Q138.149 885.4 135.07 890.006 Q132.015 894.589 126.205 894.589 Q120.394 894.589 117.316 890.006 Q114.26 885.4 114.26 876.673 Q114.26 867.923 117.316 863.339 Q120.394 858.733 126.205 858.733 Z" fill="#000000" fill-rule="evenodd" fill-opacity="1" /><path clip-path="url(#clip470)" d="M 0 0 M146.366 888.038 L151.251 888.038 L151.251 893.918 L146.366 893.918 L146.366 888.038 Z" fill="#000000" fill-rule="evenodd" fill-opacity="1" /><path clip-path="url(#clip470)" d="M 0 0 M162.246 889.983 L169.885 889.983 L169.885 863.617 L161.575 865.284 L161.575 861.025 L169.839 859.358 L174.514 859.358 L174.514 889.983 L182.153 889.983 L182.153 893.918 L162.246 893.918 L162.246 889.983 Z" fill="#000000" fill-rule="evenodd" fill-opacity="1" /><path clip-path="url(#clip470)" d="M 0 0 M201.598 862.437 Q197.987 862.437 196.158 866.001 Q194.352 869.543 194.352 876.673 Q194.352 883.779 196.158 887.344 Q197.987 890.886 201.598 890.886 Q205.232 890.886 207.037 887.344 Q208.866 883.779 208.866 876.673 Q208.866 869.543 207.037 866.001 Q205.232 862.437 201.598 862.437 M201.598 858.733 Q207.408 858.733 210.463 863.339 Q213.542 867.923 213.542 876.673 Q213.542 885.4 210.463 890.006 Q207.408 894.589 201.598 894.589 Q195.787 894.589 192.709 890.006 Q189.653 885.4 189.653 876.673 Q189.653 867.923 192.709 863.339 Q195.787 858.733 201.598 858.733 Z" fill="#000000" fill-rule="evenodd" fill-opacity="1" /><path clip-path="url(#clip470)" d="M 0 0 M127.2 608.637 Q123.589 608.637 121.76 612.201 Q119.955 615.743 119.955 622.873 Q119.955 629.979 121.76 633.544 Q123.589 637.085 127.2 637.085 Q130.834 637.085 132.64 633.544 Q134.468 629.979 134.468 622.873 Q134.468 615.743 132.64 612.201 Q130.834 608.637 127.2 608.637 M127.2 604.933 Q133.01 604.933 136.066 609.539 Q139.144 614.123 139.144 622.873 Q139.144 631.599 136.066 636.206 Q133.01 640.789 127.2 640.789 Q121.39 640.789 118.311 636.206 Q115.256 631.599 115.256 622.873 Q115.256 614.123 118.311 609.539 Q121.39 604.933 127.2 604.933 Z" fill="#000000" fill-rule="evenodd" fill-opacity="1" /><path clip-path="url(#clip470)" d="M 0 0 M147.362 634.238 L152.246 634.238 L152.246 640.118 L147.362 640.118 L147.362 634.238 Z" fill="#000000" fill-rule="evenodd" fill-opacity="1" /><path clip-path="url(#clip470)" d="M 0 0 M163.241 636.183 L170.88 636.183 L170.88 609.817 L162.57 611.484 L162.57 607.225 L170.834 605.558 L175.51 605.558 L175.51 636.183 L183.149 636.183 L183.149 640.118 L163.241 640.118 L163.241 636.183 Z" fill="#000000" fill-rule="evenodd" fill-opacity="1" /><path clip-path="url(#clip470)" d="M 0 0 M192.639 605.558 L210.996 605.558 L210.996 609.493 L196.922 609.493 L196.922 617.965 Q197.94 617.618 198.959 617.456 Q199.977 617.271 200.996 617.271 Q206.783 617.271 210.162 620.442 Q213.542 623.613 213.542 629.03 Q213.542 634.609 210.07 637.71 Q206.598 640.789 200.278 640.789 Q198.102 640.789 195.834 640.419 Q193.588 640.048 191.181 639.308 L191.181 634.609 Q193.264 635.743 195.487 636.298 Q197.709 636.854 200.186 636.854 Q204.19 636.854 206.528 634.748 Q208.866 632.641 208.866 629.03 Q208.866 625.419 206.528 623.312 Q204.19 621.206 200.186 621.206 Q198.311 621.206 196.436 621.623 Q194.584 622.039 192.639 622.919 L192.639 605.558 Z" fill="#000000" fill-rule="evenodd" fill-opacity="1" /><path clip-path="url(#clip470)" d="M 0 0 M126.205 354.836 Q122.593 354.836 120.765 358.401 Q118.959 361.943 118.959 369.072 Q118.959 376.179 120.765 379.744 Q122.593 383.285 126.205 383.285 Q129.839 383.285 131.644 379.744 Q133.473 376.179 133.473 369.072 Q133.473 361.943 131.644 358.401 Q129.839 354.836 126.205 354.836 M126.205 351.133 Q132.015 351.133 135.07 355.739 Q138.149 360.323 138.149 369.072 Q138.149 377.799 135.07 382.406 Q132.015 386.989 126.205 386.989 Q120.394 386.989 117.316 382.406 Q114.26 377.799 114.26 369.072 Q114.26 360.323 117.316 355.739 Q120.394 351.133 126.205 351.133 Z" fill="#000000" fill-rule="evenodd" fill-opacity="1" /><path clip-path="url(#clip470)" d="M 0 0 M146.366 380.438 L151.251 380.438 L151.251 386.318 L146.366 386.318 L146.366 380.438 Z" fill="#000000" fill-rule="evenodd" fill-opacity="1" /><path clip-path="url(#clip470)" d="M 0 0 M165.464 382.383 L181.783 382.383 L181.783 386.318 L159.839 386.318 L159.839 382.383 Q162.501 379.628 167.084 374.998 Q171.69 370.346 172.871 369.003 Q175.116 366.48 175.996 364.744 Q176.899 362.985 176.899 361.295 Q176.899 358.54 174.954 356.804 Q173.033 355.068 169.931 355.068 Q167.732 355.068 165.278 355.832 Q162.848 356.596 160.07 358.147 L160.07 353.424 Q162.894 352.29 165.348 351.711 Q167.802 351.133 169.839 351.133 Q175.209 351.133 178.403 353.818 Q181.598 356.503 181.598 360.994 Q181.598 363.123 180.788 365.045 Q180.001 366.943 177.894 369.535 Q177.315 370.207 174.214 373.424 Q171.112 376.619 165.464 382.383 Z" fill="#000000" fill-rule="evenodd" fill-opacity="1" /><path clip-path="url(#clip470)" d="M 0 0 M201.598 354.836 Q197.987 354.836 196.158 358.401 Q194.352 361.943 194.352 369.072 Q194.352 376.179 196.158 379.744 Q197.987 383.285 201.598 383.285 Q205.232 383.285 207.037 379.744 Q208.866 376.179 208.866 369.072 Q208.866 361.943 207.037 358.401 Q205.232 354.836 201.598 354.836 M201.598 351.133 Q207.408 351.133 210.463 355.739 Q213.542 360.323 213.542 369.072 Q213.542 377.799 210.463 382.406 Q207.408 386.989 201.598 386.989 Q195.787 386.989 192.709 382.406 Q189.653 377.799 189.653 369.072 Q189.653 360.323 192.709 355.739 Q195.787 351.133 201.598 351.133 Z" fill="#000000" fill-rule="evenodd" fill-opacity="1" /><path clip-path="url(#clip470)" d="M 0 0 M127.2 101.036 Q123.589 101.036 121.76 104.601 Q119.955 108.143 119.955 115.272 Q119.955 122.379 121.76 125.944 Q123.589 129.485 127.2 129.485 Q130.834 129.485 132.64 125.944 Q134.468 122.379 134.468 115.272 Q134.468 108.143 132.64 104.601 Q130.834 101.036 127.2 101.036 M127.2 97.3326 Q133.01 97.3326 136.066 101.939 Q139.144 106.522 139.144 115.272 Q139.144 123.999 136.066 128.606 Q133.01 133.189 127.2 133.189 Q121.39 133.189 118.311 128.606 Q115.256 123.999 115.256 115.272 Q115.256 106.522 118.311 101.939 Q121.39 97.3326 127.2 97.3326 Z" fill="#000000" fill-rule="evenodd" fill-opacity="1" /><path clip-path="url(#clip470)" d="M 0 0 M147.362 126.638 L152.246 126.638 L152.246 132.518 L147.362 132.518 L147.362 126.638 Z" fill="#000000" fill-rule="evenodd" fill-opacity="1" /><path clip-path="url(#clip470)" d="M 0 0 M166.459 128.582 L182.778 128.582 L182.778 132.518 L160.834 132.518 L160.834 128.582 Q163.496 125.828 168.079 121.198 Q172.686 116.546 173.866 115.203 Q176.112 112.68 176.991 110.944 Q177.894 109.184 177.894 107.495 Q177.894 104.74 175.95 103.004 Q174.028 101.268 170.927 101.268 Q168.727 101.268 166.274 102.032 Q163.843 102.796 161.065 104.346 L161.065 99.6243 Q163.89 98.49 166.343 97.9113 Q168.797 97.3326 170.834 97.3326 Q176.204 97.3326 179.399 100.018 Q182.593 102.703 182.593 107.194 Q182.593 109.323 181.783 111.245 Q180.996 113.143 178.889 115.735 Q178.311 116.407 175.209 119.624 Q172.107 122.819 166.459 128.582 Z" fill="#000000" fill-rule="evenodd" fill-opacity="1" /><path clip-path="url(#clip470)" d="M 0 0 M192.639 97.9576 L210.996 97.9576 L210.996 101.893 L196.922 101.893 L196.922 110.365 Q197.94 110.018 198.959 109.856 Q199.977 109.671 200.996 109.671 Q206.783 109.671 210.162 112.842 Q213.542 116.013 213.542 121.43 Q213.542 127.008 210.07 130.11 Q206.598 133.189 200.278 133.189 Q198.102 133.189 195.834 132.819 Q193.588 132.448 191.181 131.707 L191.181 127.008 Q193.264 128.143 195.487 128.698 Q197.709 129.254 200.186 129.254 Q204.19 129.254 206.528 127.147 Q208.866 125.041 208.866 121.43 Q208.866 117.819 206.528 115.712 Q204.19 113.606 200.186 113.606 Q198.311 113.606 196.436 114.022 Q194.584 114.439 192.639 115.319 L192.639 97.9576 Z" fill="#000000" fill-rule="evenodd" fill-opacity="1" /><path clip-path="url(#clip470)" d="M 0 0 M21.7677 799.617 L39.6235 799.617 L39.6235 791.533 Q39.6235 787.045 37.3 784.594 Q34.9765 782.143 30.6797 782.143 Q26.4147 782.143 24.0912 784.594 Q21.7677 787.045 21.7677 791.533 L21.7677 799.617 M16.4842 806.046 L16.4842 791.533 Q16.4842 783.544 20.1126 779.47 Q23.7092 775.364 30.6797 775.364 Q37.7138 775.364 41.3104 779.47 Q44.907 783.544 44.907 791.533 L44.907 799.617 L64.0042 799.617 L64.0042 806.046 L16.4842 806.046 Z" fill="#000000" fill-rule="evenodd" fill-opacity="1" /><path clip-path="url(#clip470)" d="M 0 0 M14.5426 752.925 Q21.8632 757.19 29.0246 759.258 Q36.186 761.327 43.5384 761.327 Q50.8908 761.327 58.1159 759.258 Q65.3091 757.158 72.5979 752.925 L72.5979 758.017 Q65.1182 762.791 57.8931 765.179 Q50.668 767.534 43.5384 767.534 Q36.4406 767.534 29.2474 765.179 Q22.0542 762.823 14.5426 758.017 L14.5426 752.925 Z" fill="#000000" fill-rule="evenodd" fill-opacity="1" /><path clip-path="url(#clip470)" d="M 0 0 M35.1993 713.807 Q31.2526 711.611 29.3747 708.556 Q27.4968 705.5 27.4968 701.362 Q27.4968 695.792 31.4117 692.769 Q35.2948 689.745 42.4881 689.745 L64.0042 689.745 L64.0042 695.633 L42.679 695.633 Q37.5546 695.633 35.072 697.447 Q32.5894 699.262 32.5894 702.986 Q32.5894 707.537 35.6131 710.179 Q38.6368 712.821 43.8567 712.821 L64.0042 712.821 L64.0042 718.709 L42.679 718.709 Q37.5228 718.709 35.072 720.523 Q32.5894 722.337 32.5894 726.125 Q32.5894 730.613 35.6449 733.255 Q38.6686 735.896 43.8567 735.896 L64.0042 735.896 L64.0042 741.785 L28.3562 741.785 L28.3562 735.896 L33.8944 735.896 Q30.616 733.891 29.0564 731.09 Q27.4968 728.289 27.4968 724.438 Q27.4968 720.555 29.4702 717.85 Q31.4436 715.112 35.1993 713.807 Z" fill="#000000" fill-rule="evenodd" fill-opacity="1" /><path clip-path="url(#clip470)" d="M 0 0 M14.5426 678.987 L14.5426 673.894 Q22.0542 669.12 29.2474 666.765 Q36.4406 664.378 43.5384 664.378 Q50.668 664.378 57.8931 666.765 Q65.1182 669.12 72.5979 673.894 L72.5979 678.987 Q65.3091 674.754 58.1159 672.685 Q50.8908 670.584 43.5384 670.584 Q36.186 670.584 29.0246 672.685 Q21.8632 674.754 14.5426 678.987 Z" fill="#000000" fill-rule="evenodd" fill-opacity="1" /><path clip-path="url(#clip472)" d="
M365.223 979.01 L365.223 1384.24 L509.211 1384.24 L509.211 979.01 L365.223 979.01 L365.223 979.01  Z
  " fill="#009af9" fill-rule="evenodd" fill-opacity="1"/>
<polyline clip-path="url(#clip472)" style="stroke:#009af9; stroke-width:4; stroke-opacity:1; fill:none" points="
  365.223,979.01 365.223,1384.24 509.211,1384.24 509.211,979.01 365.223,979.01 
  "/>
<path clip-path="url(#clip472)" d="
M509.211 367.127 L509.211 1384.24 L653.2 1384.24 L653.2 367.127 L509.211 367.127 L509.211 367.127  Z
  " fill="#009af9" fill-rule="evenodd" fill-opacity="1"/>
<polyline clip-path="url(#clip472)" style="stroke:#009af9; stroke-width:4; stroke-opacity:1; fill:none" points="
  509.211,367.127 509.211,1384.24 653.2,1384.24 653.2,367.127 509.211,367.127 
  "/>
<path clip-path="url(#clip472)" d="
M653.2 86.1857 L653.2 1384.24 L797.189 1384.24 L797.189 86.1857 L653.2 86.1857 L653.2 86.1857  Z
  " fill="#009af9" fill-rule="evenodd" fill-opacity="1"/>
<polyline clip-path="url(#clip472)" style="stroke:#009af9; stroke-width:4; stroke-opacity:1; fill:none" points="
  653.2,86.1857 653.2,1384.24 797.189,1384.24 797.189,86.1857 653.2,86.1857 
  "/>
<path clip-path="url(#clip472)" d="
M797.189 293.043 L797.189 1384.24 L941.177 1384.24 L941.177 293.043 L797.189 293.043 L797.189 293.043  Z
  " fill="#009af9" fill-rule="evenodd" fill-opacity="1"/>
<polyline clip-path="url(#clip472)" style="stroke:#009af9; stroke-width:4; stroke-opacity:1; fill:none" points="
  797.189,293.043 797.189,1384.24 941.177,1384.24 941.177,293.043 797.189,293.043 
  "/>
<path clip-path="url(#clip472)" d="
M941.177 693.292 L941.177 1384.24 L1085.17 1384.24 L1085.17 693.292 L941.177 693.292 L941.177 693.292  Z
  " fill="#009af9" fill-rule="evenodd" fill-opacity="1"/>
<polyline clip-path="url(#clip472)" style="stroke:#009af9; stroke-width:4; stroke-opacity:1; fill:none" points="
  941.177,693.292 941.177,1384.24 1085.17,1384.24 1085.17,693.292 941.177,693.292 
  "/>
<path clip-path="url(#clip472)" d="
M1085.17 1040.14 L1085.17 1384.24 L1229.15 1384.24 L1229.15 1040.14 L1085.17 1040.14 L1085.17 1040.14  Z
  " fill="#009af9" fill-rule="evenodd" fill-opacity="1"/>
<polyline clip-path="url(#clip472)" style="stroke:#009af9; stroke-width:4; stroke-opacity:1; fill:none" points="
  1085.17,1040.14 1085.17,1384.24 1229.15,1384.24 1229.15,1040.14 1085.17,1040.14 
  "/>
<path clip-path="url(#clip472)" d="
M1229.15 1233.48 L1229.15 1384.24 L1373.14 1384.24 L1373.14 1233.48 L1229.15 1233.48 L1229.15 1233.48  Z
  " fill="#009af9" fill-rule="evenodd" fill-opacity="1"/>
<polyline clip-path="url(#clip472)" style="stroke:#009af9; stroke-width:4; stroke-opacity:1; fill:none" points="
  1229.15,1233.48 1229.15,1384.24 1373.14,1384.24 1373.14,1233.48 1229.15,1233.48 
  "/>
<path clip-path="url(#clip472)" d="
M1373.14 1329.82 L1373.14 1384.24 L1517.13 1384.24 L1517.13 1329.82 L1373.14 1329.82 L1373.14 1329.82  Z
  " fill="#009af9" fill-rule="evenodd" fill-opacity="1"/>
<polyline clip-path="url(#clip472)" style="stroke:#009af9; stroke-width:4; stroke-opacity:1; fill:none" points="
  1373.14,1329.82 1373.14,1384.24 1517.13,1384.24 1517.13,1329.82 1373.14,1329.82 
  "/>
<path clip-path="url(#clip472)" d="
M1517.13 1366.25 L1517.13 1384.24 L1661.12 1384.24 L1661.12 1366.25 L1517.13 1366.25 L1517.13 1366.25  Z
  " fill="#009af9" fill-rule="evenodd" fill-opacity="1"/>
<polyline clip-path="url(#clip472)" style="stroke:#009af9; stroke-width:4; stroke-opacity:1; fill:none" points="
  1517.13,1366.25 1517.13,1384.24 1661.12,1384.24 1661.12,1366.25 1517.13,1366.25 
  "/>
<path clip-path="url(#clip472)" d="
M1661.12 1379.46 L1661.12 1384.24 L1805.11 1384.24 L1805.11 1379.46 L1661.12 1379.46 L1661.12 1379.46  Z
  " fill="#009af9" fill-rule="evenodd" fill-opacity="1"/>
<polyline clip-path="url(#clip472)" style="stroke:#009af9; stroke-width:4; stroke-opacity:1; fill:none" points="
  1661.12,1379.46 1661.12,1384.24 1805.11,1384.24 1805.11,1379.46 1661.12,1379.46 
  "/>
<path clip-path="url(#clip472)" d="
M1805.11 1383.12 L1805.11 1384.24 L1949.1 1384.24 L1949.1 1383.12 L1805.11 1383.12 L1805.11 1383.12  Z
  " fill="#009af9" fill-rule="evenodd" fill-opacity="1"/>
<polyline clip-path="url(#clip472)" style="stroke:#009af9; stroke-width:4; stroke-opacity:1; fill:none" points="
  1805.11,1383.12 1805.11,1384.24 1949.1,1384.24 1949.1,1383.12 1805.11,1383.12 
  "/>
<path clip-path="url(#clip472)" d="
M1949.1 1384.04 L1949.1 1384.24 L2093.09 1384.24 L2093.09 1384.04 L1949.1 1384.04 L1949.1 1384.04  Z
  " fill="#009af9" fill-rule="evenodd" fill-opacity="1"/>
<polyline clip-path="url(#clip472)" style="stroke:#009af9; stroke-width:4; stroke-opacity:1; fill:none" points="
  1949.1,1384.04 1949.1,1384.24 2093.09,1384.24 2093.09,1384.04 1949.1,1384.04 
  "/>
<path clip-path="url(#clip472)" d="
M2093.09 1384.14 L2093.09 1384.24 L2237.08 1384.24 L2237.08 1384.14 L2093.09 1384.14 L2093.09 1384.14  Z
  " fill="#009af9" fill-rule="evenodd" fill-opacity="1"/>
<polyline clip-path="url(#clip472)" style="stroke:#009af9; stroke-width:4; stroke-opacity:1; fill:none" points="
  2093.09,1384.14 2093.09,1384.24 2237.08,1384.24 2237.08,1384.14 2093.09,1384.14 
  "/>
<polyline clip-path="url(#clip472)" style="stroke:#e26f46; stroke-width:12; stroke-opacity:1; fill:none" points="
  365.223,1026.38 379.621,989.52 394.02,950.579 408.419,909.673 422.818,866.951 437.217,822.603 451.616,776.853 466.015,729.961 480.413,682.223 494.812,633.966 
  509.211,585.548 523.61,537.351 538.009,489.781 552.408,443.256 566.807,398.207 581.206,355.068 595.604,314.269 610.003,276.231 624.402,241.356 638.801,210.024 
  653.2,182.58 667.599,159.335 681.998,140.554 696.397,126.455 710.795,117.203 725.194,112.906 739.593,113.614 753.992,119.321 768.391,129.957 782.79,145.399 
  797.189,165.467 811.587,189.929 825.986,218.505 840.385,250.876 854.784,286.685 869.183,325.546 883.582,367.05 897.981,410.773 912.38,456.283 926.778,503.147 
  941.177,550.937 955.576,599.236 969.975,647.647 984.374,695.792 998.773,743.322 1013.17,789.92 1027.57,835.298 1041.97,879.208 1056.37,921.433 1070.77,961.798 
  1085.17,1000.16 1099.56,1036.41 1113.96,1070.48 1128.36,1102.33 1142.76,1131.94 1157.16,1159.33 1171.56,1184.53 1185.96,1207.61 1200.36,1228.64 1214.76,1247.7 
  1229.15,1264.9 1243.55,1280.34 1257.95,1294.14 1272.35,1306.42 1286.75,1317.29 1301.15,1326.86 1315.55,1335.26 1329.95,1342.6 1344.35,1348.97 1358.74,1354.49 
  1373.14,1359.24 1387.54,1363.32 1401.94,1366.8 1416.34,1369.76 1430.74,1372.26 1445.14,1374.37 1459.54,1376.14 1473.94,1377.62 1488.33,1378.85 1502.73,1379.87 
  1517.13,1380.71 1531.53,1381.4 1545.93,1381.96 1560.33,1382.42 1574.73,1382.79 1589.13,1383.09 1603.53,1383.34 1617.92,1383.53 1632.32,1383.68 1646.72,1383.81 
  1661.12,1383.9 1675.52,1383.98 1689.92,1384.04 1704.32,1384.08 1718.72,1384.12 1733.12,1384.15 1747.51,1384.17 1761.91,1384.19 1776.31,1384.2 1790.71,1384.21 
  1805.11,1384.22 1819.51,1384.22 1833.91,1384.23 1848.31,1384.23 1862.7,1384.23 1877.1,1384.23 1891.5,1384.23 1905.9,1384.24 1920.3,1384.24 1934.7,1384.24 
  1949.1,1384.24 1963.5,1384.24 1977.9,1384.24 1992.29,1384.24 2006.69,1384.24 2021.09,1384.24 2035.49,1384.24 2049.89,1384.24 2064.29,1384.24 2078.69,1384.24 
  2093.09,1384.24 
  "/>
<polyline clip-path="url(#clip472)" style="stroke:#3da44d; stroke-width:12; stroke-opacity:1; fill:none" points="
  365.223,982.251 379.621,920.488 394.02,856.869 408.419,792.091 422.818,726.869 437.217,661.918 451.616,597.944 466.015,535.627 480.413,475.615 494.812,418.509 
  509.211,364.855 523.61,315.143 538.009,269.793 552.408,229.16 566.807,193.527 581.206,163.103 595.604,138.031 610.003,118.381 624.402,104.161 638.801,95.3152 
  653.2,91.7326 667.599,93.2499 681.998,99.6586 696.397,110.71 710.795,126.123 725.194,145.588 739.593,168.774 753.992,195.336 768.391,224.918 782.79,257.16 
  797.189,291.701 811.587,328.185 825.986,366.265 840.385,405.606 854.784,445.884 869.183,486.797 883.582,528.059 897.981,569.404 912.38,610.588 926.778,651.389 
  941.177,691.608 955.576,731.067 969.975,769.611 984.374,807.105 998.773,843.435 1013.17,878.509 1027.57,912.249 1041.97,944.599 1056.37,975.516 1070.77,1004.97 
  1085.17,1032.96 1099.56,1059.46 1113.96,1084.51 1128.36,1108.1 1142.76,1130.28 1157.16,1151.06 1171.56,1170.51 1185.96,1188.65 1200.36,1205.54 1214.76,1221.23 
  1229.15,1235.77 1243.55,1249.22 1257.95,1261.64 1272.35,1273.09 1286.75,1283.61 1301.15,1293.27 1315.55,1302.12 1329.95,1310.21 1344.35,1317.6 1358.74,1324.33 
  1373.14,1330.45 1387.54,1336.02 1401.94,1341.06 1416.34,1345.63 1430.74,1349.75 1445.14,1353.48 1459.54,1356.84 1473.94,1359.86 1488.33,1362.57 1502.73,1365.01 
  1517.13,1367.19 1531.53,1369.14 1545.93,1370.89 1560.33,1372.44 1574.73,1373.83 1589.13,1375.06 1603.53,1376.16 1617.92,1377.13 1632.32,1377.99 1646.72,1378.76 
  1661.12,1379.43 1675.52,1380.03 1689.92,1380.56 1704.32,1381.02 1718.72,1381.43 1733.12,1381.79 1747.51,1382.1 1761.91,1382.38 1776.31,1382.62 1790.71,1382.83 
  1805.11,1383.02 1819.51,1383.18 1833.91,1383.32 1848.31,1383.45 1862.7,1383.55 1877.1,1383.65 1891.5,1383.73 1905.9,1383.8 1920.3,1383.86 1934.7,1383.91 
  1949.1,1383.96 1963.5,1384 1977.9,1384.03 1992.29,1384.06 2006.69,1384.09 2021.09,1384.11 2035.49,1384.13 2049.89,1384.14 2064.29,1384.16 2078.69,1384.17 
  2093.09,1384.18 
  "/>
<path clip-path="url(#clip470)" d="
M1778.33 335.029 L2282.65 335.029 L2282.65 93.1086 L1778.33 93.1086  Z
  " fill="#ffffff" fill-rule="evenodd" fill-opacity="1"/>
<polyline clip-path="url(#clip470)" style="stroke:#000000; stroke-width:4; stroke-opacity:1; fill:none" points="
  1778.33,335.029 2282.65,335.029 2282.65,93.1086 1778.33,93.1086 1778.33,335.029 
  "/>
<path clip-path="url(#clip470)" d="
M1801.7 177.781 L1941.92 177.781 L1941.92 129.397 L1801.7 129.397 L1801.7 177.781  Z
  " fill="#009af9" fill-rule="evenodd" fill-opacity="1"/>
<polyline clip-path="url(#clip470)" style="stroke:#009af9; stroke-width:4; stroke-opacity:1; fill:none" points="
  1801.7,177.781 1941.92,177.781 1941.92,129.397 1801.7,129.397 1801.7,177.781 
  "/>
<path clip-path="url(#clip470)" d="M 0 0 M1979.13 173.276 Q1977.32 177.906 1975.61 179.318 Q1973.9 180.73 1971.03 180.73 L1967.63 180.73 L1967.63 177.165 L1970.13 177.165 Q1971.88 177.165 1972.86 176.332 Q1973.83 175.498 1975.01 172.396 L1975.77 170.452 L1965.29 144.943 L1969.8 144.943 L1977.9 165.221 L1986 144.943 L1990.52 144.943 L1979.13 173.276 Z" fill="#000000" fill-rule="evenodd" fill-opacity="1" /><path clip-path="url(#clip470)" d="M 0 0 M1997.81 166.933 L2005.45 166.933 L2005.45 140.568 L1997.14 142.235 L1997.14 137.975 L2005.4 136.309 L2010.08 136.309 L2010.08 166.933 L2017.72 166.933 L2017.72 170.869 L1997.81 170.869 L1997.81 166.933 Z" fill="#000000" fill-rule="evenodd" fill-opacity="1" /><polyline clip-path="url(#clip470)" style="stroke:#e26f46; stroke-width:4; stroke-opacity:1; fill:none" points="
  1801.7,214.069 1941.92,214.069 
  "/>
<path clip-path="url(#clip470)" d="M 0 0 M1984.2 218.085 Q1984.2 213.455 1982.28 210.909 Q1980.38 208.363 1976.93 208.363 Q1973.5 208.363 1971.58 210.909 Q1969.69 213.455 1969.69 218.085 Q1969.69 222.691 1971.58 225.238 Q1973.5 227.784 1976.93 227.784 Q1980.38 227.784 1982.28 225.238 Q1984.2 222.691 1984.2 218.085 M1988.46 228.131 Q1988.46 234.751 1985.52 237.969 Q1982.58 241.21 1976.51 241.21 Q1974.27 241.21 1972.28 240.862 Q1970.29 240.538 1968.41 239.844 L1968.41 235.7 Q1970.29 236.719 1972.12 237.205 Q1973.94 237.691 1975.84 237.691 Q1980.03 237.691 1982.12 235.492 Q1984.2 233.316 1984.2 228.895 L1984.2 226.788 Q1982.88 229.08 1980.82 230.214 Q1978.76 231.349 1975.89 231.349 Q1971.12 231.349 1968.2 227.714 Q1965.29 224.08 1965.29 218.085 Q1965.29 212.066 1968.2 208.432 Q1971.12 204.798 1975.89 204.798 Q1978.76 204.798 1980.82 205.932 Q1982.88 207.066 1984.2 209.358 L1984.2 205.423 L1988.46 205.423 L1988.46 228.131 Z" fill="#000000" fill-rule="evenodd" fill-opacity="1" /><path clip-path="url(#clip470)" d="M 0 0 M2009.01 218.316 Q2003.85 218.316 2001.86 219.497 Q1999.87 220.677 1999.87 223.525 Q1999.87 225.793 2001.35 227.136 Q2002.86 228.455 2005.43 228.455 Q2008.97 228.455 2011.1 225.955 Q2013.25 223.432 2013.25 219.265 L2013.25 218.316 L2009.01 218.316 M2017.51 216.557 L2017.51 231.349 L2013.25 231.349 L2013.25 227.413 Q2011.79 229.775 2009.62 230.909 Q2007.44 232.02 2004.29 232.02 Q2000.31 232.02 1997.95 229.798 Q1995.61 227.552 1995.61 223.802 Q1995.61 219.427 1998.53 217.205 Q2001.47 214.983 2007.28 214.983 L2013.25 214.983 L2013.25 214.566 Q2013.25 211.627 2011.31 210.029 Q2009.38 208.409 2005.89 208.409 Q2003.67 208.409 2001.56 208.941 Q1999.45 209.474 1997.51 210.539 L1997.51 206.603 Q1999.85 205.701 2002.05 205.261 Q2004.25 204.798 2006.33 204.798 Q2011.95 204.798 2014.73 207.714 Q2017.51 210.631 2017.51 216.557 Z" fill="#000000" fill-rule="evenodd" fill-opacity="1" /><path clip-path="url(#clip470)" d="M 0 0 M2025.84 221.117 L2025.84 205.423 L2030.1 205.423 L2030.1 220.955 Q2030.1 224.636 2031.54 226.488 Q2032.97 228.316 2035.84 228.316 Q2039.29 228.316 2041.28 226.117 Q2043.3 223.918 2043.3 220.122 L2043.3 205.423 L2047.56 205.423 L2047.56 231.349 L2043.3 231.349 L2043.3 227.367 Q2041.75 229.728 2039.68 230.886 Q2037.65 232.02 2034.94 232.02 Q2030.47 232.02 2028.16 229.242 Q2025.84 226.464 2025.84 221.117 M2036.56 204.798 L2036.56 204.798 Z" fill="#000000" fill-rule="evenodd" fill-opacity="1" /><path clip-path="url(#clip470)" d="M 0 0 M2072.86 206.187 L2072.86 210.214 Q2071.05 209.289 2069.11 208.826 Q2067.16 208.363 2065.08 208.363 Q2061.91 208.363 2060.31 209.335 Q2058.74 210.307 2058.74 212.251 Q2058.74 213.733 2059.87 214.589 Q2061 215.423 2064.43 216.187 L2065.89 216.511 Q2070.43 217.483 2072.32 219.265 Q2074.24 221.025 2074.24 224.196 Q2074.24 227.807 2071.37 229.913 Q2068.53 232.02 2063.53 232.02 Q2061.44 232.02 2059.18 231.603 Q2056.93 231.21 2054.43 230.4 L2054.43 226.001 Q2056.79 227.228 2059.08 227.853 Q2061.37 228.455 2063.62 228.455 Q2066.63 228.455 2068.25 227.437 Q2069.87 226.395 2069.87 224.52 Q2069.87 222.784 2068.69 221.858 Q2067.53 220.932 2063.57 220.076 L2062.09 219.728 Q2058.13 218.895 2056.37 217.182 Q2054.62 215.446 2054.62 212.437 Q2054.62 208.779 2057.21 206.789 Q2059.8 204.798 2064.57 204.798 Q2066.93 204.798 2069.01 205.145 Q2071.1 205.492 2072.86 206.187 Z" fill="#000000" fill-rule="evenodd" fill-opacity="1" /><path clip-path="url(#clip470)" d="M 0 0 M2097.55 206.187 L2097.55 210.214 Q2095.75 209.289 2093.8 208.826 Q2091.86 208.363 2089.78 208.363 Q2086.61 208.363 2085.01 209.335 Q2083.43 210.307 2083.43 212.251 Q2083.43 213.733 2084.57 214.589 Q2085.7 215.423 2089.13 216.187 L2090.59 216.511 Q2095.12 217.483 2097.02 219.265 Q2098.94 221.025 2098.94 224.196 Q2098.94 227.807 2096.07 229.913 Q2093.23 232.02 2088.23 232.02 Q2086.14 232.02 2083.87 231.603 Q2081.63 231.21 2079.13 230.4 L2079.13 226.001 Q2081.49 227.228 2083.78 227.853 Q2086.07 228.455 2088.32 228.455 Q2091.33 228.455 2092.95 227.437 Q2094.57 226.395 2094.57 224.52 Q2094.57 222.784 2093.39 221.858 Q2092.23 220.932 2088.27 220.076 L2086.79 219.728 Q2082.83 218.895 2081.07 217.182 Q2079.31 215.446 2079.31 212.437 Q2079.31 208.779 2081.91 206.789 Q2084.5 204.798 2089.27 204.798 Q2091.63 204.798 2093.71 205.145 Q2095.8 205.492 2097.55 206.187 Z" fill="#000000" fill-rule="evenodd" fill-opacity="1" /><path clip-path="url(#clip470)" d="M 0 0 M2105.73 205.423 L2109.99 205.423 L2109.99 231.349 L2105.73 231.349 L2105.73 205.423 M2105.73 195.33 L2109.99 195.33 L2109.99 200.724 L2105.73 200.724 L2105.73 195.33 Z" fill="#000000" fill-rule="evenodd" fill-opacity="1" /><path clip-path="url(#clip470)" d="M 0 0 M2130.68 218.316 Q2125.52 218.316 2123.53 219.497 Q2121.54 220.677 2121.54 223.525 Q2121.54 225.793 2123.02 227.136 Q2124.52 228.455 2127.09 228.455 Q2130.63 228.455 2132.76 225.955 Q2134.92 223.432 2134.92 219.265 L2134.92 218.316 L2130.68 218.316 M2139.18 216.557 L2139.18 231.349 L2134.92 231.349 L2134.92 227.413 Q2133.46 229.775 2131.28 230.909 Q2129.11 232.02 2125.96 232.02 Q2121.98 232.02 2119.62 229.798 Q2117.28 227.552 2117.28 223.802 Q2117.28 219.427 2120.19 217.205 Q2123.13 214.983 2128.94 214.983 L2134.92 214.983 L2134.92 214.566 Q2134.92 211.627 2132.97 210.029 Q2131.05 208.409 2127.55 208.409 Q2125.33 208.409 2123.23 208.941 Q2121.12 209.474 2119.18 210.539 L2119.18 206.603 Q2121.51 205.701 2123.71 205.261 Q2125.91 204.798 2127.99 204.798 Q2133.62 204.798 2136.4 207.714 Q2139.18 210.631 2139.18 216.557 Z" fill="#000000" fill-rule="evenodd" fill-opacity="1" /><path clip-path="url(#clip470)" d="M 0 0 M2169.5 215.701 L2169.5 231.349 L2165.24 231.349 L2165.24 215.839 Q2165.24 212.159 2163.8 210.33 Q2162.37 208.502 2159.5 208.502 Q2156.05 208.502 2154.06 210.701 Q2152.07 212.9 2152.07 216.696 L2152.07 231.349 L2147.79 231.349 L2147.79 205.423 L2152.07 205.423 L2152.07 209.451 Q2153.6 207.113 2155.66 205.955 Q2157.74 204.798 2160.45 204.798 Q2164.92 204.798 2167.21 207.576 Q2169.5 210.33 2169.5 215.701 Z" fill="#000000" fill-rule="evenodd" fill-opacity="1" /><path clip-path="url(#clip470)" d="M 0 0 M2206.19 195.33 L2206.19 198.872 L2202.11 198.872 Q2199.82 198.872 2198.92 199.798 Q2198.04 200.724 2198.04 203.131 L2198.04 205.423 L2205.05 205.423 L2205.05 208.733 L2198.04 208.733 L2198.04 231.349 L2193.76 231.349 L2193.76 208.733 L2189.68 208.733 L2189.68 205.423 L2193.76 205.423 L2193.76 203.617 Q2193.76 199.289 2195.77 197.321 Q2197.79 195.33 2202.16 195.33 L2206.19 195.33 Z" fill="#000000" fill-rule="evenodd" fill-opacity="1" /><path clip-path="url(#clip470)" d="M 0 0 M2209.75 205.423 L2214.01 205.423 L2214.01 231.349 L2209.75 231.349 L2209.75 205.423 M2209.75 195.33 L2214.01 195.33 L2214.01 200.724 L2209.75 200.724 L2209.75 195.33 Z" fill="#000000" fill-rule="evenodd" fill-opacity="1" /><path clip-path="url(#clip470)" d="M 0 0 M2227.14 198.062 L2227.14 205.423 L2235.91 205.423 L2235.91 208.733 L2227.14 208.733 L2227.14 222.807 Q2227.14 225.978 2227.99 226.881 Q2228.87 227.784 2231.54 227.784 L2235.91 227.784 L2235.91 231.349 L2231.54 231.349 Q2226.61 231.349 2224.73 229.52 Q2222.86 227.668 2222.86 222.807 L2222.86 208.733 L2219.73 208.733 L2219.73 205.423 L2222.86 205.423 L2222.86 198.062 L2227.14 198.062 Z" fill="#000000" fill-rule="evenodd" fill-opacity="1" /><polyline clip-path="url(#clip470)" style="stroke:#3da44d; stroke-width:4; stroke-opacity:1; fill:none" points="
  1801.7,274.549 1941.92,274.549 
  "/>
<path clip-path="url(#clip470)" d="M 0 0 M1969.57 287.94 L1969.57 301.69 L1965.29 301.69 L1965.29 265.903 L1969.57 265.903 L1969.57 269.838 Q1970.91 267.523 1972.95 266.412 Q1975.01 265.278 1977.86 265.278 Q1982.58 265.278 1985.52 269.028 Q1988.48 272.778 1988.48 278.889 Q1988.48 285 1985.52 288.75 Q1982.58 292.5 1977.86 292.5 Q1975.01 292.5 1972.95 291.389 Q1970.91 290.255 1969.57 287.94 M1984.06 278.889 Q1984.06 274.19 1982.12 271.528 Q1980.19 268.843 1976.81 268.843 Q1973.44 268.843 1971.49 271.528 Q1969.57 274.19 1969.57 278.889 Q1969.57 283.588 1971.49 286.273 Q1973.44 288.935 1976.81 288.935 Q1980.19 288.935 1982.12 286.273 Q1984.06 283.588 1984.06 278.889 Z" fill="#000000" fill-rule="evenodd" fill-opacity="1" /><path clip-path="url(#clip470)" d="M 0 0 M2005.59 268.889 Q2002.16 268.889 2000.17 271.574 Q1998.18 274.236 1998.18 278.889 Q1998.18 283.542 2000.15 286.227 Q2002.14 288.889 2005.59 288.889 Q2008.99 288.889 2010.98 286.204 Q2012.97 283.518 2012.97 278.889 Q2012.97 274.282 2010.98 271.597 Q2008.99 268.889 2005.59 268.889 M2005.59 265.278 Q2011.14 265.278 2014.31 268.889 Q2017.49 272.5 2017.49 278.889 Q2017.49 285.255 2014.31 288.889 Q2011.14 292.5 2005.59 292.5 Q2000.01 292.5 1996.84 288.889 Q1993.69 285.255 1993.69 278.889 Q1993.69 272.5 1996.84 268.889 Q2000.01 265.278 2005.59 265.278 Z" fill="#000000" fill-rule="evenodd" fill-opacity="1" /><path clip-path="url(#clip470)" d="M 0 0 M2024.55 265.903 L2028.81 265.903 L2028.81 291.829 L2024.55 291.829 L2024.55 265.903 M2024.55 255.81 L2028.81 255.81 L2028.81 261.204 L2024.55 261.204 L2024.55 255.81 Z" fill="#000000" fill-rule="evenodd" fill-opacity="1" /><path clip-path="url(#clip470)" d="M 0 0 M2054.24 266.667 L2054.24 270.694 Q2052.44 269.769 2050.5 269.306 Q2048.55 268.843 2046.47 268.843 Q2043.3 268.843 2041.7 269.815 Q2040.12 270.787 2040.12 272.731 Q2040.12 274.213 2041.26 275.069 Q2042.39 275.903 2045.82 276.667 L2047.28 276.991 Q2051.81 277.963 2053.71 279.745 Q2055.63 281.505 2055.63 284.676 Q2055.63 288.287 2052.76 290.393 Q2049.92 292.5 2044.92 292.5 Q2042.83 292.5 2040.56 292.083 Q2038.32 291.69 2035.82 290.88 L2035.82 286.481 Q2038.18 287.708 2040.47 288.333 Q2042.76 288.935 2045.01 288.935 Q2048.02 288.935 2049.64 287.917 Q2051.26 286.875 2051.26 285 Q2051.26 283.264 2050.08 282.338 Q2048.92 281.412 2044.96 280.556 L2043.48 280.208 Q2039.52 279.375 2037.76 277.662 Q2036 275.926 2036 272.917 Q2036 269.259 2038.6 267.269 Q2041.19 265.278 2045.96 265.278 Q2048.32 265.278 2050.4 265.625 Q2052.49 265.972 2054.24 266.667 Z" fill="#000000" fill-rule="evenodd" fill-opacity="1" /><path clip-path="url(#clip470)" d="M 0 0 M2078.94 266.667 L2078.94 270.694 Q2077.14 269.769 2075.19 269.306 Q2073.25 268.843 2071.17 268.843 Q2067.99 268.843 2066.4 269.815 Q2064.82 270.787 2064.82 272.731 Q2064.82 274.213 2065.96 275.069 Q2067.09 275.903 2070.52 276.667 L2071.98 276.991 Q2076.51 277.963 2078.41 279.745 Q2080.33 281.505 2080.33 284.676 Q2080.33 288.287 2077.46 290.393 Q2074.62 292.5 2069.62 292.5 Q2067.53 292.5 2065.26 292.083 Q2063.02 291.69 2060.52 290.88 L2060.52 286.481 Q2062.88 287.708 2065.17 288.333 Q2067.46 288.935 2069.71 288.935 Q2072.72 288.935 2074.34 287.917 Q2075.96 286.875 2075.96 285 Q2075.96 283.264 2074.78 282.338 Q2073.62 281.412 2069.66 280.556 L2068.18 280.208 Q2064.22 279.375 2062.46 277.662 Q2060.7 275.926 2060.7 272.917 Q2060.7 269.259 2063.3 267.269 Q2065.89 265.278 2070.66 265.278 Q2073.02 265.278 2075.1 265.625 Q2077.18 265.972 2078.94 266.667 Z" fill="#000000" fill-rule="evenodd" fill-opacity="1" /><path clip-path="url(#clip470)" d="M 0 0 M2097.16 268.889 Q2093.74 268.889 2091.74 271.574 Q2089.75 274.236 2089.75 278.889 Q2089.75 283.542 2091.72 286.227 Q2093.71 288.889 2097.16 288.889 Q2100.56 288.889 2102.55 286.204 Q2104.55 283.518 2104.55 278.889 Q2104.55 274.282 2102.55 271.597 Q2100.56 268.889 2097.16 268.889 M2097.16 265.278 Q2102.72 265.278 2105.89 268.889 Q2109.06 272.5 2109.06 278.889 Q2109.06 285.255 2105.89 288.889 Q2102.72 292.5 2097.16 292.5 Q2091.58 292.5 2088.41 288.889 Q2085.26 285.255 2085.26 278.889 Q2085.26 272.5 2088.41 268.889 Q2091.58 265.278 2097.16 265.278 Z" fill="#000000" fill-rule="evenodd" fill-opacity="1" /><path clip-path="url(#clip470)" d="M 0 0 M2137.67 276.181 L2137.67 291.829 L2133.41 291.829 L2133.41 276.319 Q2133.41 272.639 2131.98 270.81 Q2130.54 268.982 2127.67 268.982 Q2124.22 268.982 2122.23 271.181 Q2120.24 273.38 2120.24 277.176 L2120.24 291.829 L2115.96 291.829 L2115.96 265.903 L2120.24 265.903 L2120.24 269.931 Q2121.77 267.593 2123.83 266.435 Q2125.91 265.278 2128.62 265.278 Q2133.09 265.278 2135.38 268.056 Q2137.67 270.81 2137.67 276.181 Z" fill="#000000" fill-rule="evenodd" fill-opacity="1" /><path clip-path="url(#clip470)" d="M 0 0 M2174.36 255.81 L2174.36 259.352 L2170.29 259.352 Q2167.99 259.352 2167.09 260.278 Q2166.21 261.204 2166.21 263.611 L2166.21 265.903 L2173.23 265.903 L2173.23 269.213 L2166.21 269.213 L2166.21 291.829 L2161.93 291.829 L2161.93 269.213 L2157.86 269.213 L2157.86 265.903 L2161.93 265.903 L2161.93 264.097 Q2161.93 259.769 2163.94 257.801 Q2165.96 255.81 2170.33 255.81 L2174.36 255.81 Z" fill="#000000" fill-rule="evenodd" fill-opacity="1" /><path clip-path="url(#clip470)" d="M 0 0 M2177.92 265.903 L2182.18 265.903 L2182.18 291.829 L2177.92 291.829 L2177.92 265.903 M2177.92 255.81 L2182.18 255.81 L2182.18 261.204 L2177.92 261.204 L2177.92 255.81 Z" fill="#000000" fill-rule="evenodd" fill-opacity="1" /><path clip-path="url(#clip470)" d="M 0 0 M2195.31 258.542 L2195.31 265.903 L2204.08 265.903 L2204.08 269.213 L2195.31 269.213 L2195.31 283.287 Q2195.31 286.458 2196.17 287.361 Q2197.05 288.264 2199.71 288.264 L2204.08 288.264 L2204.08 291.829 L2199.71 291.829 Q2194.78 291.829 2192.9 290 Q2191.03 288.148 2191.03 283.287 L2191.03 269.213 L2187.9 269.213 L2187.9 265.903 L2191.03 265.903 L2191.03 258.542 L2195.31 258.542 Z" fill="#000000" fill-rule="evenodd" fill-opacity="1" /></svg>
