<?xml version="1.0" encoding="utf-8"?>
<svg xmlns="http://www.w3.org/2000/svg" xmlns:xlink="http://www.w3.org/1999/xlink" width="600" height="400" viewBox="0 0 2400 1600">
<defs>
  <clipPath id="clip780">
    <rect x="0" y="0" width="2400" height="1600"/>
  </clipPath>
</defs>
<path clip-path="url(#clip780)" d="
M0 1600 L2400 1600 L2400 0 L0 0  Z
  " fill="#ffffff" fill-rule="evenodd" fill-opacity="1"/>
<defs>
  <clipPath id="clip781">
    <rect x="480" y="0" width="1681" height="1600"/>
  </clipPath>
</defs>
<path clip-path="url(#clip780)" d="
M211.602 1423.18 L2352.76 1423.18 L2352.76 47.2441 L211.602 47.2441  Z
  " fill="#ffffff" fill-rule="evenodd" fill-opacity="1"/>
<defs>
  <clipPath id="clip782">
    <rect x="211" y="47" width="2142" height="1377"/>
  </clipPath>
</defs>
<polyline clip-path="url(#clip782)" style="stroke:#000000; stroke-width:2; stroke-opacity:0.1; fill:none" points="
  329.37,1423.18 329.37,47.2441 
  "/>
<polyline clip-path="url(#clip782)" style="stroke:#000000; stroke-width:2; stroke-opacity:0.1; fill:none" points="
  964.576,1423.18 964.576,47.2441 
  "/>
<polyline clip-path="url(#clip782)" style="stroke:#000000; stroke-width:2; stroke-opacity:0.1; fill:none" points="
  1599.78,1423.18 1599.78,47.2441 
  "/>
<polyline clip-path="url(#clip782)" style="stroke:#000000; stroke-width:2; stroke-opacity:0.1; fill:none" points="
  2234.99,1423.18 2234.99,47.2441 
  "/>
<polyline clip-path="url(#clip780)" style="stroke:#000000; stroke-width:4; stroke-opacity:1; fill:none" points="
  211.602,1423.18 2352.76,1423.18 
  "/>
<polyline clip-path="url(#clip780)" style="stroke:#000000; stroke-width:4; stroke-opacity:1; fill:none" points="
  329.37,1423.18 329.37,1406.67 
  "/>
<polyline clip-path="url(#clip780)" style="stroke:#000000; stroke-width:4; stroke-opacity:1; fill:none" points="
  964.576,1423.18 964.576,1406.67 
  "/>
<polyline clip-path="url(#clip780)" style="stroke:#000000; stroke-width:4; stroke-opacity:1; fill:none" points="
  1599.78,1423.18 1599.78,1406.67 
  "/>
<polyline clip-path="url(#clip780)" style="stroke:#000000; stroke-width:4; stroke-opacity:1; fill:none" points="
  2234.99,1423.18 2234.99,1406.67 
  "/>
<path clip-path="url(#clip780)" d="M 0 0 M329.37 1452.37 Q325.759 1452.37 323.93 1455.94 Q322.124 1459.48 322.124 1466.61 Q322.124 1473.71 323.93 1477.28 Q325.759 1480.82 329.37 1480.82 Q333.004 1480.82 334.809 1477.28 Q336.638 1473.71 336.638 1466.61 Q336.638 1459.48 334.809 1455.94 Q333.004 1452.37 329.37 1452.37 M329.37 1448.67 Q335.18 1448.67 338.235 1453.27 Q341.314 1457.86 341.314 1466.61 Q341.314 1475.33 338.235 1479.94 Q335.18 1484.52 329.37 1484.52 Q323.56 1484.52 320.481 1479.94 Q317.425 1475.33 317.425 1466.61 Q317.425 1457.86 320.481 1453.27 Q323.56 1448.67 329.37 1448.67 Z" fill="#000000" fill-rule="evenodd" fill-opacity="1" /><path clip-path="url(#clip780)" d="M 0 0 M954.854 1449.29 L973.21 1449.29 L973.21 1453.23 L959.136 1453.23 L959.136 1461.7 Q960.155 1461.35 961.173 1461.19 Q962.192 1461 963.21 1461 Q968.997 1461 972.377 1464.18 Q975.756 1467.35 975.756 1472.76 Q975.756 1478.34 972.284 1481.44 Q968.812 1484.52 962.493 1484.52 Q960.317 1484.52 958.048 1484.15 Q955.803 1483.78 953.396 1483.04 L953.396 1478.34 Q955.479 1479.48 957.701 1480.03 Q959.923 1480.59 962.4 1480.59 Q966.405 1480.59 968.743 1478.48 Q971.081 1476.38 971.081 1472.76 Q971.081 1469.15 968.743 1467.05 Q966.405 1464.94 962.4 1464.94 Q960.525 1464.94 958.65 1465.36 Q956.798 1465.77 954.854 1466.65 L954.854 1449.29 Z" fill="#000000" fill-rule="evenodd" fill-opacity="1" /><path clip-path="url(#clip780)" d="M 0 0 M1576.66 1479.92 L1584.3 1479.92 L1584.3 1453.55 L1575.99 1455.22 L1575.99 1450.96 L1584.25 1449.29 L1588.93 1449.29 L1588.93 1479.92 L1596.56 1479.92 L1596.56 1483.85 L1576.66 1483.85 L1576.66 1479.92 Z" fill="#000000" fill-rule="evenodd" fill-opacity="1" /><path clip-path="url(#clip780)" d="M 0 0 M1611.63 1452.37 Q1608.02 1452.37 1606.19 1455.94 Q1604.39 1459.48 1604.39 1466.61 Q1604.39 1473.71 1606.19 1477.28 Q1608.02 1480.82 1611.63 1480.82 Q1615.27 1480.82 1617.07 1477.28 Q1618.9 1473.71 1618.9 1466.61 Q1618.9 1459.48 1617.07 1455.94 Q1615.27 1452.37 1611.63 1452.37 M1611.63 1448.67 Q1617.44 1448.67 1620.5 1453.27 Q1623.58 1457.86 1623.58 1466.61 Q1623.58 1475.33 1620.5 1479.94 Q1617.44 1484.52 1611.63 1484.52 Q1605.82 1484.52 1602.75 1479.94 Q1599.69 1475.33 1599.69 1466.61 Q1599.69 1457.86 1602.75 1453.27 Q1605.82 1448.67 1611.63 1448.67 Z" fill="#000000" fill-rule="evenodd" fill-opacity="1" /><path clip-path="url(#clip780)" d="M 0 0 M2212.36 1479.92 L2220 1479.92 L2220 1453.55 L2211.69 1455.22 L2211.69 1450.96 L2219.95 1449.29 L2224.63 1449.29 L2224.63 1479.92 L2232.27 1479.92 L2232.27 1483.85 L2212.36 1483.85 L2212.36 1479.92 Z" fill="#000000" fill-rule="evenodd" fill-opacity="1" /><path clip-path="url(#clip780)" d="M 0 0 M2237.38 1449.29 L2255.74 1449.29 L2255.74 1453.23 L2241.67 1453.23 L2241.67 1461.7 Q2242.69 1461.35 2243.7 1461.19 Q2244.72 1461 2245.74 1461 Q2251.53 1461 2254.91 1464.18 Q2258.29 1467.35 2258.29 1472.76 Q2258.29 1478.34 2254.81 1481.44 Q2251.34 1484.52 2245.02 1484.52 Q2242.85 1484.52 2240.58 1484.15 Q2238.33 1483.78 2235.93 1483.04 L2235.93 1478.34 Q2238.01 1479.48 2240.23 1480.03 Q2242.45 1480.59 2244.93 1480.59 Q2248.94 1480.59 2251.27 1478.48 Q2253.61 1476.38 2253.61 1472.76 Q2253.61 1469.15 2251.27 1467.05 Q2248.94 1464.94 2244.93 1464.94 Q2243.06 1464.94 2241.18 1465.36 Q2239.33 1465.77 2237.38 1466.65 L2237.38 1449.29 Z" fill="#000000" fill-rule="evenodd" fill-opacity="1" /><path clip-path="url(#clip780)" d="M 0 0 M1272.12 1562.7 L1272.12 1581.6 L1266.23 1581.6 L1266.23 1532.4 L1272.12 1532.4 L1272.12 1537.81 Q1273.97 1534.62 1276.77 1533.1 Q1279.6 1531.54 1283.52 1531.54 Q1290.01 1531.54 1294.05 1536.69 Q1298.13 1541.85 1298.13 1550.25 Q1298.13 1558.65 1294.05 1563.81 Q1290.01 1568.97 1283.52 1568.97 Q1279.6 1568.97 1276.77 1567.44 Q1273.97 1565.88 1272.12 1562.7 M1292.05 1550.25 Q1292.05 1543.79 1289.37 1540.13 Q1286.73 1536.44 1282.08 1536.44 Q1277.44 1536.44 1274.76 1540.13 Q1272.12 1543.79 1272.12 1550.25 Q1272.12 1556.71 1274.76 1560.4 Q1277.44 1564.07 1282.08 1564.07 Q1286.73 1564.07 1289.37 1560.4 Q1292.05 1556.71 1292.05 1550.25 Z" fill="#000000" fill-rule="evenodd" fill-opacity="1" /><polyline clip-path="url(#clip782)" style="stroke:#000000; stroke-width:2; stroke-opacity:0.1; fill:none" points="
  211.602,1384.24 2352.76,1384.24 
  "/>
<polyline clip-path="url(#clip782)" style="stroke:#000000; stroke-width:2; stroke-opacity:0.1; fill:none" points="
  211.602,1097.94 2352.76,1097.94 
  "/>
<polyline clip-path="url(#clip782)" style="stroke:#000000; stroke-width:2; stroke-opacity:0.1; fill:none" points="
  211.602,811.643 2352.76,811.643 
  "/>
<polyline clip-path="url(#clip782)" style="stroke:#000000; stroke-width:2; stroke-opacity:0.1; fill:none" points="
  211.602,525.346 2352.76,525.346 
  "/>
<polyline clip-path="url(#clip782)" style="stroke:#000000; stroke-width:2; stroke-opacity:0.1; fill:none" points="
  211.602,239.048 2352.76,239.048 
  "/>
<polyline clip-path="url(#clip780)" style="stroke:#000000; stroke-width:4; stroke-opacity:1; fill:none" points="
  211.602,1423.18 211.602,47.2441 
  "/>
<polyline clip-path="url(#clip780)" style="stroke:#000000; stroke-width:4; stroke-opacity:1; fill:none" points="
  211.602,1384.24 237.296,1384.24 
  "/>
<polyline clip-path="url(#clip780)" style="stroke:#000000; stroke-width:4; stroke-opacity:1; fill:none" points="
  211.602,1097.94 237.296,1097.94 
  "/>
<polyline clip-path="url(#clip780)" style="stroke:#000000; stroke-width:4; stroke-opacity:1; fill:none" points="
  211.602,811.643 237.296,811.643 
  "/>
<polyline clip-path="url(#clip780)" style="stroke:#000000; stroke-width:4; stroke-opacity:1; fill:none" points="
  211.602,525.346 237.296,525.346 
  "/>
<polyline clip-path="url(#clip780)" style="stroke:#000000; stroke-width:4; stroke-opacity:1; fill:none" points="
  211.602,239.048 237.296,239.048 
  "/>
<path clip-path="url(#clip780)" d="M 0 0 M126.691 1370.04 Q123.08 1370.04 121.251 1373.6 Q119.445 1377.14 119.445 1384.27 Q119.445 1391.38 121.251 1394.94 Q123.08 1398.49 126.691 1398.49 Q130.325 1398.49 132.13 1394.94 Q133.959 1391.38 133.959 1384.27 Q133.959 1377.14 132.13 1373.6 Q130.325 1370.04 126.691 1370.04 M126.691 1366.33 Q132.501 1366.33 135.556 1370.94 Q138.635 1375.52 138.635 1384.27 Q138.635 1393 135.556 1397.61 Q132.501 1402.19 126.691 1402.19 Q120.88 1402.19 117.802 1397.61 Q114.746 1393 114.746 1384.27 Q114.746 1375.52 117.802 1370.94 Q120.88 1366.33 126.691 1366.33 Z" fill="#000000" fill-rule="evenodd" fill-opacity="1" /><path clip-path="url(#clip780)" d="M 0 0 M143.704 1395.64 L148.589 1395.64 L148.589 1401.52 L143.704 1401.52 L143.704 1395.64 Z" fill="#000000" fill-rule="evenodd" fill-opacity="1" /><path clip-path="url(#clip780)" d="M 0 0 M163.658 1370.04 Q160.047 1370.04 158.218 1373.6 Q156.413 1377.14 156.413 1384.27 Q156.413 1391.38 158.218 1394.94 Q160.047 1398.49 163.658 1398.49 Q167.292 1398.49 169.098 1394.94 Q170.927 1391.38 170.927 1384.27 Q170.927 1377.14 169.098 1373.6 Q167.292 1370.04 163.658 1370.04 M163.658 1366.33 Q169.468 1366.33 172.524 1370.94 Q175.602 1375.52 175.602 1384.27 Q175.602 1393 172.524 1397.61 Q169.468 1402.19 163.658 1402.19 Q157.848 1402.19 154.769 1397.61 Q151.714 1393 151.714 1384.27 Q151.714 1375.52 154.769 1370.94 Q157.848 1366.33 163.658 1366.33 Z" fill="#000000" fill-rule="evenodd" fill-opacity="1" /><path clip-path="url(#clip780)" d="M 0 0 M127.917 1083.74 Q124.306 1083.74 122.478 1087.3 Q120.672 1090.85 120.672 1097.98 Q120.672 1105.08 122.478 1108.65 Q124.306 1112.19 127.917 1112.19 Q131.552 1112.19 133.357 1108.65 Q135.186 1105.08 135.186 1097.98 Q135.186 1090.85 133.357 1087.3 Q131.552 1083.74 127.917 1083.74 M127.917 1080.04 Q133.728 1080.04 136.783 1084.64 Q139.862 1089.23 139.862 1097.98 Q139.862 1106.7 136.783 1111.31 Q133.728 1115.89 127.917 1115.89 Q122.107 1115.89 119.029 1111.31 Q115.973 1106.7 115.973 1097.98 Q115.973 1089.23 119.029 1084.64 Q122.107 1080.04 127.917 1080.04 Z" fill="#000000" fill-rule="evenodd" fill-opacity="1" /><path clip-path="url(#clip780)" d="M 0 0 M144.931 1109.34 L149.816 1109.34 L149.816 1115.22 L144.931 1115.22 L144.931 1109.34 Z" fill="#000000" fill-rule="evenodd" fill-opacity="1" /><path clip-path="url(#clip780)" d="M 0 0 M155.695 1111.29 L163.334 1111.29 L163.334 1084.92 L155.024 1086.59 L155.024 1082.33 L163.288 1080.66 L167.964 1080.66 L167.964 1111.29 L175.602 1111.29 L175.602 1115.22 L155.695 1115.22 L155.695 1111.29 Z" fill="#000000" fill-rule="evenodd" fill-opacity="1" /><path clip-path="url(#clip780)" d="M 0 0 M128.288 797.442 Q124.677 797.442 122.848 801.007 Q121.043 804.548 121.043 811.678 Q121.043 818.784 122.848 822.349 Q124.677 825.891 128.288 825.891 Q131.922 825.891 133.728 822.349 Q135.556 818.784 135.556 811.678 Q135.556 804.548 133.728 801.007 Q131.922 797.442 128.288 797.442 M128.288 793.738 Q134.098 793.738 137.154 798.345 Q140.232 802.928 140.232 811.678 Q140.232 820.405 137.154 825.011 Q134.098 829.594 128.288 829.594 Q122.478 829.594 119.399 825.011 Q116.343 820.405 116.343 811.678 Q116.343 802.928 119.399 798.345 Q122.478 793.738 128.288 793.738 Z" fill="#000000" fill-rule="evenodd" fill-opacity="1" /><path clip-path="url(#clip780)" d="M 0 0 M145.302 823.044 L150.186 823.044 L150.186 828.923 L145.302 828.923 L145.302 823.044 Z" fill="#000000" fill-rule="evenodd" fill-opacity="1" /><path clip-path="url(#clip780)" d="M 0 0 M159.283 824.988 L175.602 824.988 L175.602 828.923 L153.658 828.923 L153.658 824.988 Q156.32 822.233 160.903 817.604 Q165.51 812.951 166.69 811.608 Q168.936 809.085 169.815 807.349 Q170.718 805.59 170.718 803.9 Q170.718 801.146 168.774 799.409 Q166.852 797.673 163.751 797.673 Q161.552 797.673 159.098 798.437 Q156.667 799.201 153.89 800.752 L153.89 796.03 Q156.714 794.896 159.167 794.317 Q161.621 793.738 163.658 793.738 Q169.028 793.738 172.223 796.423 Q175.417 799.108 175.417 803.599 Q175.417 805.729 174.607 807.65 Q173.82 809.548 171.714 812.141 Q171.135 812.812 168.033 816.03 Q164.931 819.224 159.283 824.988 Z" fill="#000000" fill-rule="evenodd" fill-opacity="1" /><path clip-path="url(#clip780)" d="M 0 0 M127.339 511.144 Q123.728 511.144 121.899 514.709 Q120.093 518.251 120.093 525.38 Q120.093 532.487 121.899 536.052 Q123.728 539.593 127.339 539.593 Q130.973 539.593 132.779 536.052 Q134.607 532.487 134.607 525.38 Q134.607 518.251 132.779 514.709 Q130.973 511.144 127.339 511.144 M127.339 507.441 Q133.149 507.441 136.204 512.047 Q139.283 516.63 139.283 525.38 Q139.283 534.107 136.204 538.714 Q133.149 543.297 127.339 543.297 Q121.529 543.297 118.45 538.714 Q115.394 534.107 115.394 525.38 Q115.394 516.63 118.45 512.047 Q121.529 507.441 127.339 507.441 Z" fill="#000000" fill-rule="evenodd" fill-opacity="1" /><path clip-path="url(#clip780)" d="M 0 0 M144.353 536.746 L149.237 536.746 L149.237 542.626 L144.353 542.626 L144.353 536.746 Z" fill="#000000" fill-rule="evenodd" fill-opacity="1" /><path clip-path="url(#clip780)" d="M 0 0 M168.473 523.991 Q171.829 524.709 173.704 526.978 Q175.602 529.246 175.602 532.579 Q175.602 537.695 172.084 540.496 Q168.565 543.297 162.084 543.297 Q159.908 543.297 157.593 542.857 Q155.302 542.44 152.848 541.584 L152.848 537.07 Q154.792 538.204 157.107 538.783 Q159.422 539.362 161.945 539.362 Q166.343 539.362 168.635 537.626 Q170.95 535.889 170.95 532.579 Q170.95 529.524 168.797 527.811 Q166.667 526.075 162.848 526.075 L158.82 526.075 L158.82 522.232 L163.033 522.232 Q166.482 522.232 168.311 520.866 Q170.139 519.478 170.139 516.885 Q170.139 514.223 168.241 512.811 Q166.366 511.376 162.848 511.376 Q160.927 511.376 158.728 511.792 Q156.528 512.209 153.89 513.089 L153.89 508.922 Q156.552 508.181 158.866 507.811 Q161.204 507.441 163.265 507.441 Q168.589 507.441 171.69 509.871 Q174.792 512.279 174.792 516.399 Q174.792 519.269 173.149 521.26 Q171.505 523.228 168.473 523.991 Z" fill="#000000" fill-rule="evenodd" fill-opacity="1" /><path clip-path="url(#clip780)" d="M 0 0 M126.205 224.847 Q122.593 224.847 120.765 228.411 Q118.959 231.953 118.959 239.083 Q118.959 246.189 120.765 249.754 Q122.593 253.296 126.205 253.296 Q129.839 253.296 131.644 249.754 Q133.473 246.189 133.473 239.083 Q133.473 231.953 131.644 228.411 Q129.839 224.847 126.205 224.847 M126.205 221.143 Q132.015 221.143 135.07 225.749 Q138.149 230.333 138.149 239.083 Q138.149 247.81 135.07 252.416 Q132.015 256.999 126.205 256.999 Q120.394 256.999 117.316 252.416 Q114.26 247.81 114.26 239.083 Q114.26 230.333 117.316 225.749 Q120.394 221.143 126.205 221.143 Z" fill="#000000" fill-rule="evenodd" fill-opacity="1" /><path clip-path="url(#clip780)" d="M 0 0 M143.218 250.448 L148.103 250.448 L148.103 256.328 L143.218 256.328 L143.218 250.448 Z" fill="#000000" fill-rule="evenodd" fill-opacity="1" /><path clip-path="url(#clip780)" d="M 0 0 M166.019 225.842 L154.214 244.291 L166.019 244.291 L166.019 225.842 M164.792 221.768 L170.672 221.768 L170.672 244.291 L175.602 244.291 L175.602 248.18 L170.672 248.18 L170.672 256.328 L166.019 256.328 L166.019 248.18 L150.417 248.18 L150.417 243.666 L164.792 221.768 Z" fill="#000000" fill-rule="evenodd" fill-opacity="1" /><path clip-path="url(#clip780)" d="M 0 0 M21.7677 783.05 L39.6235 783.05 L39.6235 774.966 Q39.6235 770.478 37.3 768.027 Q34.9765 765.576 30.6797 765.576 Q26.4147 765.576 24.0912 768.027 Q21.7677 770.478 21.7677 774.966 L21.7677 783.05 M16.4842 789.48 L16.4842 774.966 Q16.4842 766.977 20.1126 762.903 Q23.7092 758.797 30.6797 758.797 Q37.7138 758.797 41.3104 762.903 Q44.907 766.977 44.907 774.966 L44.907 783.05 L64.0042 783.05 L64.0042 789.48 L16.4842 789.48 Z" fill="#000000" fill-rule="evenodd" fill-opacity="1" /><path clip-path="url(#clip780)" d="M 0 0 M14.5426 738.586 Q21.8632 742.851 29.0246 744.92 Q36.186 746.989 43.5384 746.989 Q50.8908 746.989 58.1159 744.92 Q65.3091 742.819 72.5979 738.586 L72.5979 743.678 Q65.1182 748.453 57.8931 750.84 Q50.668 753.195 43.5384 753.195 Q36.4406 753.195 29.2474 750.84 Q22.0542 748.484 14.5426 743.678 L14.5426 738.586 Z" fill="#000000" fill-rule="evenodd" fill-opacity="1" /><path clip-path="url(#clip780)" d="M 0 0 M58.657 726.777 L77.5631 726.777 L77.5631 732.666 L28.3562 732.666 L28.3562 726.777 L33.7671 726.777 Q30.5842 724.931 29.0564 722.13 Q27.4968 719.298 27.4968 715.383 Q27.4968 708.89 32.6531 704.848 Q37.8093 700.773 46.212 700.773 Q54.6147 700.773 59.771 704.848 Q64.9272 708.89 64.9272 715.383 Q64.9272 719.298 63.3994 722.13 Q61.8398 724.931 58.657 726.777 M46.212 706.853 Q39.7508 706.853 36.0905 709.526 Q32.3984 712.168 32.3984 716.815 Q32.3984 721.462 36.0905 724.136 Q39.7508 726.777 46.212 726.777 Q52.6732 726.777 56.3653 724.136 Q60.0256 721.462 60.0256 716.815 Q60.0256 712.168 56.3653 709.526 Q52.6732 706.853 46.212 706.853 Z" fill="#000000" fill-rule="evenodd" fill-opacity="1" /><path clip-path="url(#clip780)" d="M 0 0 M14.5426 695.554 L14.5426 690.461 Q22.0542 685.687 29.2474 683.331 Q36.4406 680.944 43.5384 680.944 Q50.668 680.944 57.8931 683.331 Q65.1182 685.687 72.5979 690.461 L72.5979 695.554 Q65.3091 691.32 58.1159 689.252 Q50.8908 687.151 43.5384 687.151 Q36.186 687.151 29.0246 689.252 Q21.8632 691.32 14.5426 695.554 Z" fill="#000000" fill-rule="evenodd" fill-opacity="1" /><path clip-path="url(#clip782)" d="
M329.37 86.1857 L329.37 1384.24 L456.411 1384.24 L456.411 86.1857 L329.37 86.1857 L329.37 86.1857  Z
  " fill="#009af9" fill-rule="evenodd" fill-opacity="1"/>
<polyline clip-path="url(#clip782)" style="stroke:#000000; stroke-width:4; stroke-opacity:1; fill:none" points="
  329.37,86.1857 329.37,1384.24 456.411,1384.24 456.411,86.1857 329.37,86.1857 
  "/>
<path clip-path="url(#clip782)" d="
M456.411 624.041 L456.411 1384.24 L583.452 1384.24 L583.452 624.041 L456.411 624.041 L456.411 624.041  Z
  " fill="#009af9" fill-rule="evenodd" fill-opacity="1"/>
<polyline clip-path="url(#clip782)" style="stroke:#000000; stroke-width:4; stroke-opacity:1; fill:none" points="
  456.411,624.041 456.411,1384.24 583.452,1384.24 583.452,624.041 456.411,624.041 
  "/>
<path clip-path="url(#clip782)" d="
M583.452 959.022 L583.452 1384.24 L710.493 1384.24 L710.493 959.022 L583.452 959.022 L583.452 959.022  Z
  " fill="#009af9" fill-rule="evenodd" fill-opacity="1"/>
<polyline clip-path="url(#clip782)" style="stroke:#000000; stroke-width:4; stroke-opacity:1; fill:none" points="
  583.452,959.022 583.452,1384.24 710.493,1384.24 710.493,959.022 583.452,959.022 
  "/>
<path clip-path="url(#clip782)" d="
M710.493 1171.82 L710.493 1384.24 L837.535 1384.24 L837.535 1171.82 L710.493 1171.82 L710.493 1171.82  Z
  " fill="#009af9" fill-rule="evenodd" fill-opacity="1"/>
<polyline clip-path="url(#clip782)" style="stroke:#000000; stroke-width:4; stroke-opacity:1; fill:none" points="
  710.493,1171.82 710.493,1384.24 837.535,1384.24 837.535,1171.82 710.493,1171.82 
  "/>
<path clip-path="url(#clip782)" d="
M837.535 1286.16 L837.535 1384.24 L964.576 1384.24 L964.576 1286.16 L837.535 1286.16 L837.535 1286.16  Z
  " fill="#009af9" fill-rule="evenodd" fill-opacity="1"/>
<polyline clip-path="url(#clip782)" style="stroke:#000000; stroke-width:4; stroke-opacity:1; fill:none" points="
  837.535,1286.16 837.535,1384.24 964.576,1384.24 964.576,1286.16 837.535,1286.16 
  "/>
<path clip-path="url(#clip782)" d="
M964.576 1342.66 L964.576 1384.24 L1091.62 1384.24 L1091.62 1342.66 L964.576 1342.66 L964.576 1342.66  Z
  " fill="#009af9" fill-rule="evenodd" fill-opacity="1"/>
<polyline clip-path="url(#clip782)" style="stroke:#000000; stroke-width:4; stroke-opacity:1; fill:none" points="
  964.576,1342.66 964.576,1384.24 1091.62,1384.24 1091.62,1342.66 964.576,1342.66 
  "/>
<path clip-path="url(#clip782)" d="
M1091.62 1367.19 L1091.62 1384.24 L1218.66 1384.24 L1218.66 1367.19 L1091.62 1367.19 L1091.62 1367.19  Z
  " fill="#009af9" fill-rule="evenodd" fill-opacity="1"/>
<polyline clip-path="url(#clip782)" style="stroke:#000000; stroke-width:4; stroke-opacity:1; fill:none" points="
  1091.62,1367.19 1091.62,1384.24 1218.66,1384.24 1218.66,1367.19 1091.62,1367.19 
  "/>
<path clip-path="url(#clip782)" d="
M1218.66 1377.55 L1218.66 1384.24 L1345.7 1384.24 L1345.7 1377.55 L1218.66 1377.55 L1218.66 1377.55  Z
  " fill="#009af9" fill-rule="evenodd" fill-opacity="1"/>
<polyline clip-path="url(#clip782)" style="stroke:#000000; stroke-width:4; stroke-opacity:1; fill:none" points="
  1218.66,1377.55 1218.66,1384.24 1345.7,1384.24 1345.7,1377.55 1218.66,1377.55 
  "/>
<path clip-path="url(#clip782)" d="
M1345.7 1381.85 L1345.7 1384.24 L1472.74 1384.24 L1472.74 1381.85 L1345.7 1381.85 L1345.7 1381.85  Z
  " fill="#009af9" fill-rule="evenodd" fill-opacity="1"/>
<polyline clip-path="url(#clip782)" style="stroke:#000000; stroke-width:4; stroke-opacity:1; fill:none" points="
  1345.7,1381.85 1345.7,1384.24 1472.74,1384.24 1472.74,1381.85 1345.7,1381.85 
  "/>
<path clip-path="url(#clip782)" d="
M1472.74 1383.37 L1472.74 1384.24 L1599.78 1384.24 L1599.78 1383.37 L1472.74 1383.37 L1472.74 1383.37  Z
  " fill="#009af9" fill-rule="evenodd" fill-opacity="1"/>
<polyline clip-path="url(#clip782)" style="stroke:#000000; stroke-width:4; stroke-opacity:1; fill:none" points="
  1472.74,1383.37 1472.74,1384.24 1599.78,1384.24 1599.78,1383.37 1472.74,1383.37 
  "/>
<path clip-path="url(#clip782)" d="
M1599.78 1383.97 L1599.78 1384.24 L1726.82 1384.24 L1726.82 1383.97 L1599.78 1383.97 L1599.78 1383.97  Z
  " fill="#009af9" fill-rule="evenodd" fill-opacity="1"/>
<polyline clip-path="url(#clip782)" style="stroke:#000000; stroke-width:4; stroke-opacity:1; fill:none" points="
  1599.78,1383.97 1599.78,1384.24 1726.82,1384.24 1726.82,1383.97 1599.78,1383.97 
  "/>
<path clip-path="url(#clip782)" d="
M1726.82 1384.11 L1726.82 1384.24 L1853.86 1384.24 L1853.86 1384.11 L1726.82 1384.11 L1726.82 1384.11  Z
  " fill="#009af9" fill-rule="evenodd" fill-opacity="1"/>
<polyline clip-path="url(#clip782)" style="stroke:#000000; stroke-width:4; stroke-opacity:1; fill:none" points="
  1726.82,1384.11 1726.82,1384.24 1853.86,1384.24 1853.86,1384.11 1726.82,1384.11 
  "/>
<path clip-path="url(#clip782)" d="
M1853.86 1384.2 L1853.86 1384.24 L1980.91 1384.24 L1980.91 1384.2 L1853.86 1384.2 L1853.86 1384.2  Z
  " fill="#009af9" fill-rule="evenodd" fill-opacity="1"/>
<polyline clip-path="url(#clip782)" style="stroke:#000000; stroke-width:4; stroke-opacity:1; fill:none" points="
  1853.86,1384.2 1853.86,1384.24 1980.91,1384.24 1980.91,1384.2 1853.86,1384.2 
  "/>
<path clip-path="url(#clip782)" d="
M1980.91 1384.23 L1980.91 1384.24 L2107.95 1384.24 L2107.95 1384.23 L1980.91 1384.23 L1980.91 1384.23  Z
  " fill="#009af9" fill-rule="evenodd" fill-opacity="1"/>
<polyline clip-path="url(#clip782)" style="stroke:#000000; stroke-width:4; stroke-opacity:1; fill:none" points="
  1980.91,1384.23 1980.91,1384.24 2107.95,1384.24 2107.95,1384.23 1980.91,1384.23 
  "/>
<path clip-path="url(#clip782)" d="
M2107.95 1384.23 L2107.95 1384.24 L2234.99 1384.24 L2234.99 1384.23 L2107.95 1384.23 L2107.95 1384.23  Z
  " fill="#009af9" fill-rule="evenodd" fill-opacity="1"/>
<polyline clip-path="url(#clip782)" style="stroke:#000000; stroke-width:4; stroke-opacity:1; fill:none" points="
  2107.95,1384.23 2107.95,1384.24 2234.99,1384.24 2234.99,1384.23 2107.95,1384.23 
  "/>
<polyline clip-path="url(#clip782)" style="stroke:#e26f46; stroke-width:4; stroke-opacity:1; fill:none" points="
  463.773,2799.12 463.773,-1328.69 
  "/>
<polyline clip-path="url(#clip782)" style="stroke:#3da44d; stroke-width:4; stroke-opacity:1; fill:none" points="
  463.768,2799.12 463.768,-1328.69 
  "/>
<path clip-path="url(#clip780)" d="
M1685.73 335.029 L2281.38 335.029 L2281.38 93.1086 L1685.73 93.1086  Z
  " fill="#ffffff" fill-rule="evenodd" fill-opacity="1"/>
<polyline clip-path="url(#clip780)" style="stroke:#000000; stroke-width:4; stroke-opacity:1; fill:none" points="
  1685.73,335.029 2281.38,335.029 2281.38,93.1086 1685.73,93.1086 1685.73,335.029 
  "/>
<path clip-path="url(#clip780)" d="
M1709.52 177.781 L1852.26 177.781 L1852.26 129.397 L1709.52 129.397 L1709.52 177.781  Z
  " fill="#009af9" fill-rule="evenodd" fill-opacity="1"/>
<polyline clip-path="url(#clip780)" style="stroke:#000000; stroke-width:4; stroke-opacity:1; fill:none" points="
  1709.52,177.781 1852.26,177.781 1852.26,129.397 1709.52,129.397 1709.52,177.781 
  "/>
<path clip-path="url(#clip780)" d="M 0 0 M1889.89 173.276 Q1888.09 177.906 1886.37 179.318 Q1884.66 180.73 1881.79 180.73 L1878.39 180.73 L1878.39 177.165 L1880.89 177.165 Q1882.65 177.165 1883.62 176.332 Q1884.59 175.498 1885.77 172.396 L1886.54 170.452 L1876.05 144.943 L1880.56 144.943 L1888.67 165.221 L1896.77 144.943 L1901.28 144.943 L1889.89 173.276 Z" fill="#000000" fill-rule="evenodd" fill-opacity="1" /><path clip-path="url(#clip780)" d="M 0 0 M1907.16 166.933 L1914.8 166.933 L1914.8 140.568 L1906.49 142.235 L1906.49 137.975 L1914.75 136.309 L1919.43 136.309 L1919.43 166.933 L1927.07 166.933 L1927.07 170.869 L1907.16 170.869 L1907.16 166.933 Z" fill="#000000" fill-rule="evenodd" fill-opacity="1" /><polyline clip-path="url(#clip780)" style="stroke:#e26f46; stroke-width:4; stroke-opacity:1; fill:none" points="
  1709.52,214.069 1852.26,214.069 
  "/>
<path clip-path="url(#clip780)" d="M 0 0 M1883.46 198.062 L1883.46 205.423 L1892.23 205.423 L1892.23 208.733 L1883.46 208.733 L1883.46 222.807 Q1883.46 225.978 1884.31 226.881 Q1885.19 227.784 1887.86 227.784 L1892.23 227.784 L1892.23 231.349 L1887.86 231.349 Q1882.93 231.349 1881.05 229.52 Q1879.18 227.668 1879.18 222.807 L1879.18 208.733 L1876.05 208.733 L1876.05 205.423 L1879.18 205.423 L1879.18 198.062 L1883.46 198.062 Z" fill="#000000" fill-rule="evenodd" fill-opacity="1" /><path clip-path="url(#clip780)" d="M 0 0 M1918.25 215.701 L1918.25 231.349 L1913.99 231.349 L1913.99 215.839 Q1913.99 212.159 1912.55 210.33 Q1911.12 208.502 1908.25 208.502 Q1904.8 208.502 1902.81 210.701 Q1900.82 212.9 1900.82 216.696 L1900.82 231.349 L1896.54 231.349 L1896.54 195.33 L1900.82 195.33 L1900.82 209.451 Q1902.35 207.113 1904.41 205.955 Q1906.49 204.798 1909.2 204.798 Q1913.67 204.798 1915.96 207.576 Q1918.25 210.33 1918.25 215.701 Z" fill="#000000" fill-rule="evenodd" fill-opacity="1" /><path clip-path="url(#clip780)" d="M 0 0 M1944.89 217.321 L1944.89 219.404 L1925.31 219.404 Q1925.59 223.802 1927.95 226.117 Q1930.33 228.409 1934.57 228.409 Q1937.02 228.409 1939.31 227.807 Q1941.63 227.205 1943.9 226.001 L1943.9 230.029 Q1941.61 231.001 1939.2 231.511 Q1936.79 232.02 1934.31 232.02 Q1928.11 232.02 1924.48 228.409 Q1920.86 224.798 1920.86 218.64 Q1920.86 212.275 1924.29 208.548 Q1927.74 204.798 1933.57 204.798 Q1938.8 204.798 1941.84 208.177 Q1944.89 211.534 1944.89 217.321 M1940.63 216.071 Q1940.59 212.576 1938.67 210.492 Q1936.77 208.409 1933.62 208.409 Q1930.05 208.409 1927.9 210.423 Q1925.77 212.437 1925.45 216.094 L1940.63 216.071 Z" fill="#000000" fill-rule="evenodd" fill-opacity="1" /><path clip-path="url(#clip780)" d="M 0 0 M1959.41 208.409 Q1955.98 208.409 1953.99 211.094 Q1952 213.756 1952 218.409 Q1952 223.062 1953.97 225.747 Q1955.96 228.409 1959.41 228.409 Q1962.81 228.409 1964.8 225.724 Q1966.79 223.038 1966.79 218.409 Q1966.79 213.802 1964.8 211.117 Q1962.81 208.409 1959.41 208.409 M1959.41 204.798 Q1964.96 204.798 1968.13 208.409 Q1971.3 212.02 1971.3 218.409 Q1971.3 224.775 1968.13 228.409 Q1964.96 232.02 1959.41 232.02 Q1953.83 232.02 1950.66 228.409 Q1947.51 224.775 1947.51 218.409 Q1947.51 212.02 1950.66 208.409 Q1953.83 204.798 1959.41 204.798 Z" fill="#000000" fill-rule="evenodd" fill-opacity="1" /><path clip-path="url(#clip780)" d="M 0 0 M1990.79 209.404 Q1990.08 208.988 1989.22 208.802 Q1988.39 208.594 1987.37 208.594 Q1983.76 208.594 1981.81 210.955 Q1979.89 213.293 1979.89 217.691 L1979.89 231.349 L1975.61 231.349 L1975.61 205.423 L1979.89 205.423 L1979.89 209.451 Q1981.23 207.089 1983.39 205.955 Q1985.54 204.798 1988.62 204.798 Q1989.06 204.798 1989.59 204.867 Q1990.12 204.914 1990.77 205.029 L1990.79 209.404 Z" fill="#000000" fill-rule="evenodd" fill-opacity="1" /><path clip-path="url(#clip780)" d="M 0 0 M2016.4 217.321 L2016.4 219.404 L1996.81 219.404 Q1997.09 223.802 1999.45 226.117 Q2001.84 228.409 2006.07 228.409 Q2008.53 228.409 2010.82 227.807 Q2013.13 227.205 2015.4 226.001 L2015.4 230.029 Q2013.11 231.001 2010.7 231.511 Q2008.29 232.02 2005.82 232.02 Q1999.61 232.02 1995.98 228.409 Q1992.37 224.798 1992.37 218.64 Q1992.37 212.275 1995.79 208.548 Q1999.24 204.798 2005.08 204.798 Q2010.31 204.798 2013.34 208.177 Q2016.4 211.534 2016.4 217.321 M2012.14 216.071 Q2012.09 212.576 2010.17 210.492 Q2008.27 208.409 2005.12 208.409 Q2001.56 208.409 1999.41 210.423 Q1997.28 212.437 1996.95 216.094 L2012.14 216.071 Z" fill="#000000" fill-rule="evenodd" fill-opacity="1" /><path clip-path="url(#clip780)" d="M 0 0 M2025.08 198.062 L2025.08 205.423 L2033.85 205.423 L2033.85 208.733 L2025.08 208.733 L2025.08 222.807 Q2025.08 225.978 2025.93 226.881 Q2026.81 227.784 2029.48 227.784 L2033.85 227.784 L2033.85 231.349 L2029.48 231.349 Q2024.54 231.349 2022.67 229.52 Q2020.79 227.668 2020.79 222.807 L2020.79 208.733 L2017.67 208.733 L2017.67 205.423 L2020.79 205.423 L2020.79 198.062 L2025.08 198.062 Z" fill="#000000" fill-rule="evenodd" fill-opacity="1" /><path clip-path="url(#clip780)" d="M 0 0 M2038.32 205.423 L2042.58 205.423 L2042.58 231.349 L2038.32 231.349 L2038.32 205.423 M2038.32 195.33 L2042.58 195.33 L2042.58 200.724 L2038.32 200.724 L2038.32 195.33 Z" fill="#000000" fill-rule="evenodd" fill-opacity="1" /><path clip-path="url(#clip780)" d="M 0 0 M2065.7 206.418 L2065.7 210.4 Q2063.9 209.404 2062.07 208.918 Q2060.26 208.409 2058.41 208.409 Q2054.27 208.409 2051.98 211.048 Q2049.68 213.664 2049.68 218.409 Q2049.68 223.154 2051.98 225.793 Q2054.27 228.409 2058.41 228.409 Q2060.26 228.409 2062.07 227.923 Q2063.9 227.413 2065.7 226.418 L2065.7 230.353 Q2063.92 231.187 2062 231.603 Q2060.1 232.02 2057.95 232.02 Q2052.09 232.02 2048.64 228.339 Q2045.19 224.659 2045.19 218.409 Q2045.19 212.066 2048.67 208.432 Q2052.16 204.798 2058.23 204.798 Q2060.19 204.798 2062.07 205.215 Q2063.94 205.608 2065.7 206.418 Z" fill="#000000" fill-rule="evenodd" fill-opacity="1" /><path clip-path="url(#clip780)" d="M 0 0 M2081.95 218.316 Q2076.79 218.316 2074.8 219.497 Q2072.81 220.677 2072.81 223.525 Q2072.81 225.793 2074.29 227.136 Q2075.79 228.455 2078.36 228.455 Q2081.91 228.455 2084.04 225.955 Q2086.19 223.432 2086.19 219.265 L2086.19 218.316 L2081.95 218.316 M2090.45 216.557 L2090.45 231.349 L2086.19 231.349 L2086.19 227.413 Q2084.73 229.775 2082.55 230.909 Q2080.38 232.02 2077.23 232.02 Q2073.25 232.02 2070.89 229.798 Q2068.55 227.552 2068.55 223.802 Q2068.55 219.427 2071.47 217.205 Q2074.41 214.983 2080.22 214.983 L2086.19 214.983 L2086.19 214.566 Q2086.19 211.627 2084.24 210.029 Q2082.32 208.409 2078.83 208.409 Q2076.6 208.409 2074.5 208.941 Q2072.39 209.474 2070.45 210.539 L2070.45 206.603 Q2072.79 205.701 2074.98 205.261 Q2077.18 204.798 2079.27 204.798 Q2084.89 204.798 2087.67 207.714 Q2090.45 210.631 2090.45 216.557 Z" fill="#000000" fill-rule="evenodd" fill-opacity="1" /><path clip-path="url(#clip780)" d="M 0 0 M2094.91 195.33 L2099.17 195.33 L2099.17 231.349 L2094.91 231.349 L2094.91 195.33 Z" fill="#000000" fill-rule="evenodd" fill-opacity="1" /><path clip-path="url(#clip780)" d="M 0 0 M2138.9 210.4 Q2140.49 207.529 2142.72 206.164 Q2144.94 204.798 2147.95 204.798 Q2152 204.798 2154.2 207.645 Q2156.4 210.469 2156.4 215.701 L2156.4 231.349 L2152.11 231.349 L2152.11 215.839 Q2152.11 212.113 2150.79 210.307 Q2149.47 208.502 2146.77 208.502 Q2143.46 208.502 2141.53 210.701 Q2139.61 212.9 2139.61 216.696 L2139.61 231.349 L2135.33 231.349 L2135.33 215.839 Q2135.33 212.089 2134.01 210.307 Q2132.69 208.502 2129.94 208.502 Q2126.67 208.502 2124.75 210.724 Q2122.83 212.923 2122.83 216.696 L2122.83 231.349 L2118.55 231.349 L2118.55 205.423 L2122.83 205.423 L2122.83 209.451 Q2124.29 207.066 2126.33 205.932 Q2128.36 204.798 2131.16 204.798 Q2133.99 204.798 2135.96 206.233 Q2137.95 207.668 2138.9 210.4 Z" fill="#000000" fill-rule="evenodd" fill-opacity="1" /><path clip-path="url(#clip780)" d="M 0 0 M2183.04 217.321 L2183.04 219.404 L2163.46 219.404 Q2163.73 223.802 2166.09 226.117 Q2168.48 228.409 2172.72 228.409 Q2175.17 228.409 2177.46 227.807 Q2179.78 227.205 2182.04 226.001 L2182.04 230.029 Q2179.75 231.001 2177.34 231.511 Q2174.94 232.02 2172.46 232.02 Q2166.26 232.02 2162.62 228.409 Q2159.01 224.798 2159.01 218.64 Q2159.01 212.275 2162.44 208.548 Q2165.89 204.798 2171.72 204.798 Q2176.95 204.798 2179.98 208.177 Q2183.04 211.534 2183.04 217.321 M2178.78 216.071 Q2178.73 212.576 2176.81 210.492 Q2174.91 208.409 2171.77 208.409 Q2168.2 208.409 2166.05 210.423 Q2163.92 212.437 2163.59 216.094 L2178.78 216.071 Z" fill="#000000" fill-rule="evenodd" fill-opacity="1" /><path clip-path="url(#clip780)" d="M 0 0 M2199.29 218.316 Q2194.13 218.316 2192.14 219.497 Q2190.15 220.677 2190.15 223.525 Q2190.15 225.793 2191.63 227.136 Q2193.13 228.455 2195.7 228.455 Q2199.24 228.455 2201.37 225.955 Q2203.53 223.432 2203.53 219.265 L2203.53 218.316 L2199.29 218.316 M2207.78 216.557 L2207.78 231.349 L2203.53 231.349 L2203.53 227.413 Q2202.07 229.775 2199.89 230.909 Q2197.72 232.02 2194.57 232.02 Q2190.59 232.02 2188.22 229.798 Q2185.89 227.552 2185.89 223.802 Q2185.89 219.427 2188.8 217.205 Q2191.74 214.983 2197.55 214.983 L2203.53 214.983 L2203.53 214.566 Q2203.53 211.627 2201.58 210.029 Q2199.66 208.409 2196.16 208.409 Q2193.94 208.409 2191.84 208.941 Q2189.73 209.474 2187.78 210.539 L2187.78 206.603 Q2190.12 205.701 2192.32 205.261 Q2194.52 204.798 2196.6 204.798 Q2202.23 204.798 2205.01 207.714 Q2207.78 210.631 2207.78 216.557 Z" fill="#000000" fill-rule="evenodd" fill-opacity="1" /><path clip-path="url(#clip780)" d="M 0 0 M2233.8 215.701 L2233.8 231.349 L2229.54 231.349 L2229.54 215.839 Q2229.54 212.159 2228.11 210.33 Q2226.67 208.502 2223.8 208.502 Q2220.35 208.502 2218.36 210.701 Q2216.37 212.9 2216.37 216.696 L2216.37 231.349 L2212.09 231.349 L2212.09 205.423 L2216.37 205.423 L2216.37 209.451 Q2217.9 207.113 2219.96 205.955 Q2222.04 204.798 2224.75 204.798 Q2229.22 204.798 2231.51 207.576 Q2233.8 210.33 2233.8 215.701 Z" fill="#000000" fill-rule="evenodd" fill-opacity="1" /><polyline clip-path="url(#clip780)" style="stroke:#3da44d; stroke-width:4; stroke-opacity:1; fill:none" points="
  1709.52,274.549 1852.26,274.549 
  "/>
<path clip-path="url(#clip780)" d="M 0 0 M1894.48 266.667 L1894.48 270.694 Q1892.67 269.769 1890.73 269.306 Q1888.78 268.843 1886.7 268.843 Q1883.53 268.843 1881.93 269.815 Q1880.36 270.787 1880.36 272.731 Q1880.36 274.213 1881.49 275.069 Q1882.62 275.903 1886.05 276.667 L1887.51 276.991 Q1892.05 277.963 1893.94 279.745 Q1895.86 281.505 1895.86 284.676 Q1895.86 288.287 1892.99 290.393 Q1890.15 292.5 1885.15 292.5 Q1883.06 292.5 1880.8 292.083 Q1878.55 291.69 1876.05 290.88 L1876.05 286.481 Q1878.41 287.708 1880.7 288.333 Q1882.99 288.935 1885.24 288.935 Q1888.25 288.935 1889.87 287.917 Q1891.49 286.875 1891.49 285 Q1891.49 283.264 1890.31 282.338 Q1889.15 281.412 1885.19 280.556 L1883.71 280.208 Q1879.75 279.375 1877.99 277.662 Q1876.24 275.926 1876.24 272.917 Q1876.24 269.259 1878.83 267.269 Q1881.42 265.278 1886.19 265.278 Q1888.55 265.278 1890.63 265.625 Q1892.72 265.972 1894.48 266.667 Z" fill="#000000" fill-rule="evenodd" fill-opacity="1" /><path clip-path="url(#clip780)" d="M 0 0 M1904.55 258.542 L1904.55 265.903 L1913.32 265.903 L1913.32 269.213 L1904.55 269.213 L1904.55 283.287 Q1904.55 286.458 1905.4 287.361 Q1906.28 288.264 1908.94 288.264 L1913.32 288.264 L1913.32 291.829 L1908.94 291.829 Q1904.01 291.829 1902.14 290 Q1900.26 288.148 1900.26 283.287 L1900.26 269.213 L1897.14 269.213 L1897.14 265.903 L1900.26 265.903 L1900.26 258.542 L1904.55 258.542 Z" fill="#000000" fill-rule="evenodd" fill-opacity="1" /><path clip-path="url(#clip780)" d="M 0 0 M1929.57 278.796 Q1924.41 278.796 1922.42 279.977 Q1920.42 281.157 1920.42 284.005 Q1920.42 286.273 1921.91 287.616 Q1923.41 288.935 1925.98 288.935 Q1929.52 288.935 1931.65 286.435 Q1933.8 283.912 1933.8 279.745 L1933.8 278.796 L1929.57 278.796 M1938.06 277.037 L1938.06 291.829 L1933.8 291.829 L1933.8 287.893 Q1932.35 290.255 1930.17 291.389 Q1927.99 292.5 1924.85 292.5 Q1920.86 292.5 1918.5 290.278 Q1916.17 288.032 1916.17 284.282 Q1916.17 279.907 1919.08 277.685 Q1922.02 275.463 1927.83 275.463 L1933.8 275.463 L1933.8 275.046 Q1933.8 272.107 1931.86 270.509 Q1929.94 268.889 1926.44 268.889 Q1924.22 268.889 1922.11 269.421 Q1920.01 269.954 1918.06 271.019 L1918.06 267.083 Q1920.4 266.181 1922.6 265.741 Q1924.8 265.278 1926.88 265.278 Q1932.51 265.278 1935.29 268.194 Q1938.06 271.111 1938.06 277.037 Z" fill="#000000" fill-rule="evenodd" fill-opacity="1" /><path clip-path="url(#clip780)" d="M 0 0 M1946.74 258.542 L1946.74 265.903 L1955.52 265.903 L1955.52 269.213 L1946.74 269.213 L1946.74 283.287 Q1946.74 286.458 1947.6 287.361 Q1948.48 288.264 1951.14 288.264 L1955.52 288.264 L1955.52 291.829 L1951.14 291.829 Q1946.21 291.829 1944.34 290 Q1942.46 288.148 1942.46 283.287 L1942.46 269.213 L1939.34 269.213 L1939.34 265.903 L1942.46 265.903 L1942.46 258.542 L1946.74 258.542 Z" fill="#000000" fill-rule="evenodd" fill-opacity="1" /><path clip-path="url(#clip780)" d="M 0 0 M1959.98 265.903 L1964.24 265.903 L1964.24 291.829 L1959.98 291.829 L1959.98 265.903 M1959.98 255.81 L1964.24 255.81 L1964.24 261.204 L1959.98 261.204 L1959.98 255.81 Z" fill="#000000" fill-rule="evenodd" fill-opacity="1" /><path clip-path="url(#clip780)" d="M 0 0 M1985.24 266.667 L1985.24 270.694 Q1983.43 269.769 1981.49 269.306 Q1979.55 268.843 1977.46 268.843 Q1974.29 268.843 1972.69 269.815 Q1971.12 270.787 1971.12 272.731 Q1971.12 274.213 1972.25 275.069 Q1973.39 275.903 1976.81 276.667 L1978.27 276.991 Q1982.81 277.963 1984.71 279.745 Q1986.63 281.505 1986.63 284.676 Q1986.63 288.287 1983.76 290.393 Q1980.91 292.5 1975.91 292.5 Q1973.83 292.5 1971.56 292.083 Q1969.31 291.69 1966.81 290.88 L1966.81 286.481 Q1969.17 287.708 1971.47 288.333 Q1973.76 288.935 1976 288.935 Q1979.01 288.935 1980.63 287.917 Q1982.25 286.875 1982.25 285 Q1982.25 283.264 1981.07 282.338 Q1979.92 281.412 1975.96 280.556 L1974.48 280.208 Q1970.52 279.375 1968.76 277.662 Q1967 275.926 1967 272.917 Q1967 269.259 1969.59 267.269 Q1972.18 265.278 1976.95 265.278 Q1979.31 265.278 1981.4 265.625 Q1983.48 265.972 1985.24 266.667 Z" fill="#000000" fill-rule="evenodd" fill-opacity="1" /><path clip-path="url(#clip780)" d="M 0 0 M1995.31 258.542 L1995.31 265.903 L2004.08 265.903 L2004.08 269.213 L1995.31 269.213 L1995.31 283.287 Q1995.31 286.458 1996.17 287.361 Q1997.04 288.264 1999.71 288.264 L2004.08 288.264 L2004.08 291.829 L1999.71 291.829 Q1994.78 291.829 1992.9 290 Q1991.03 288.148 1991.03 283.287 L1991.03 269.213 L1987.9 269.213 L1987.9 265.903 L1991.03 265.903 L1991.03 258.542 L1995.31 258.542 Z" fill="#000000" fill-rule="evenodd" fill-opacity="1" /><path clip-path="url(#clip780)" d="M 0 0 M2008.55 265.903 L2012.81 265.903 L2012.81 291.829 L2008.55 291.829 L2008.55 265.903 M2008.55 255.81 L2012.81 255.81 L2012.81 261.204 L2008.55 261.204 L2008.55 255.81 Z" fill="#000000" fill-rule="evenodd" fill-opacity="1" /><path clip-path="url(#clip780)" d="M 0 0 M2035.93 266.898 L2035.93 270.88 Q2034.13 269.884 2032.3 269.398 Q2030.49 268.889 2028.64 268.889 Q2024.5 268.889 2022.21 271.528 Q2019.92 274.144 2019.92 278.889 Q2019.92 283.634 2022.21 286.273 Q2024.5 288.889 2028.64 288.889 Q2030.49 288.889 2032.3 288.403 Q2034.13 287.893 2035.93 286.898 L2035.93 290.833 Q2034.15 291.667 2032.23 292.083 Q2030.33 292.5 2028.18 292.5 Q2022.32 292.5 2018.87 288.819 Q2015.42 285.139 2015.42 278.889 Q2015.42 272.546 2018.9 268.912 Q2022.39 265.278 2028.46 265.278 Q2030.42 265.278 2032.3 265.695 Q2034.17 266.088 2035.93 266.898 Z" fill="#000000" fill-rule="evenodd" fill-opacity="1" /><path clip-path="url(#clip780)" d="M 0 0 M2052.18 278.796 Q2047.02 278.796 2045.03 279.977 Q2043.04 281.157 2043.04 284.005 Q2043.04 286.273 2044.52 287.616 Q2046.03 288.935 2048.6 288.935 Q2052.14 288.935 2054.27 286.435 Q2056.42 283.912 2056.42 279.745 L2056.42 278.796 L2052.18 278.796 M2060.68 277.037 L2060.68 291.829 L2056.42 291.829 L2056.42 287.893 Q2054.96 290.255 2052.79 291.389 Q2050.61 292.5 2047.46 292.5 Q2043.48 292.5 2041.12 290.278 Q2038.78 288.032 2038.78 284.282 Q2038.78 279.907 2041.7 277.685 Q2044.64 275.463 2050.45 275.463 L2056.42 275.463 L2056.42 275.046 Q2056.42 272.107 2054.48 270.509 Q2052.55 268.889 2049.06 268.889 Q2046.84 268.889 2044.73 269.421 Q2042.62 269.954 2040.68 271.019 L2040.68 267.083 Q2043.02 266.181 2045.22 265.741 Q2047.42 265.278 2049.5 265.278 Q2055.12 265.278 2057.9 268.194 Q2060.68 271.111 2060.68 277.037 Z" fill="#000000" fill-rule="evenodd" fill-opacity="1" /><path clip-path="url(#clip780)" d="M 0 0 M2065.15 255.81 L2069.41 255.81 L2069.41 291.829 L2065.15 291.829 L2065.15 255.81 Z" fill="#000000" fill-rule="evenodd" fill-opacity="1" /><path clip-path="url(#clip780)" d="M 0 0 M2109.13 270.88 Q2110.72 268.009 2112.95 266.644 Q2115.17 265.278 2118.18 265.278 Q2122.23 265.278 2124.43 268.125 Q2126.63 270.949 2126.63 276.181 L2126.63 291.829 L2122.35 291.829 L2122.35 276.319 Q2122.35 272.593 2121.03 270.787 Q2119.71 268.982 2117 268.982 Q2113.69 268.982 2111.77 271.181 Q2109.85 273.38 2109.85 277.176 L2109.85 291.829 L2105.56 291.829 L2105.56 276.319 Q2105.56 272.569 2104.24 270.787 Q2102.92 268.982 2100.17 268.982 Q2096.91 268.982 2094.98 271.204 Q2093.06 273.403 2093.06 277.176 L2093.06 291.829 L2088.78 291.829 L2088.78 265.903 L2093.06 265.903 L2093.06 269.931 Q2094.52 267.546 2096.56 266.412 Q2098.6 265.278 2101.4 265.278 Q2104.22 265.278 2106.19 266.713 Q2108.18 268.148 2109.13 270.88 Z" fill="#000000" fill-rule="evenodd" fill-opacity="1" /><path clip-path="url(#clip780)" d="M 0 0 M2153.27 277.801 L2153.27 279.884 L2133.69 279.884 Q2133.97 284.282 2136.33 286.597 Q2138.71 288.889 2142.95 288.889 Q2145.4 288.889 2147.69 288.287 Q2150.01 287.685 2152.28 286.481 L2152.28 290.509 Q2149.98 291.481 2147.58 291.991 Q2145.17 292.5 2142.69 292.5 Q2136.49 292.5 2132.85 288.889 Q2129.24 285.278 2129.24 279.12 Q2129.24 272.755 2132.67 269.028 Q2136.12 265.278 2141.95 265.278 Q2147.18 265.278 2150.22 268.657 Q2153.27 272.014 2153.27 277.801 M2149.01 276.551 Q2148.97 273.056 2147.04 270.972 Q2145.15 268.889 2142 268.889 Q2138.43 268.889 2136.28 270.903 Q2134.15 272.917 2133.83 276.574 L2149.01 276.551 Z" fill="#000000" fill-rule="evenodd" fill-opacity="1" /><path clip-path="url(#clip780)" d="M 0 0 M2169.52 278.796 Q2164.36 278.796 2162.37 279.977 Q2160.38 281.157 2160.38 284.005 Q2160.38 286.273 2161.86 287.616 Q2163.36 288.935 2165.93 288.935 Q2169.47 288.935 2171.6 286.435 Q2173.76 283.912 2173.76 279.745 L2173.76 278.796 L2169.52 278.796 M2178.02 277.037 L2178.02 291.829 L2173.76 291.829 L2173.76 287.893 Q2172.3 290.255 2170.12 291.389 Q2167.95 292.5 2164.8 292.5 Q2160.82 292.5 2158.46 290.278 Q2156.12 288.032 2156.12 284.282 Q2156.12 279.907 2159.03 277.685 Q2161.97 275.463 2167.78 275.463 L2173.76 275.463 L2173.76 275.046 Q2173.76 272.107 2171.81 270.509 Q2169.89 268.889 2166.4 268.889 Q2164.17 268.889 2162.07 269.421 Q2159.96 269.954 2158.02 271.019 L2158.02 267.083 Q2160.35 266.181 2162.55 265.741 Q2164.75 265.278 2166.84 265.278 Q2172.46 265.278 2175.24 268.194 Q2178.02 271.111 2178.02 277.037 Z" fill="#000000" fill-rule="evenodd" fill-opacity="1" /><path clip-path="url(#clip780)" d="M 0 0 M2204.03 276.181 L2204.03 291.829 L2199.78 291.829 L2199.78 276.319 Q2199.78 272.639 2198.34 270.81 Q2196.9 268.982 2194.03 268.982 Q2190.59 268.982 2188.59 271.181 Q2186.6 273.38 2186.6 277.176 L2186.6 291.829 L2182.32 291.829 L2182.32 265.903 L2186.6 265.903 L2186.6 269.931 Q2188.13 267.593 2190.19 266.435 Q2192.28 265.278 2194.98 265.278 Q2199.45 265.278 2201.74 268.056 Q2204.03 270.81 2204.03 276.181 Z" fill="#000000" fill-rule="evenodd" fill-opacity="1" /></svg>
