<?xml version="1.0" encoding="utf-8"?>
<svg xmlns="http://www.w3.org/2000/svg" xmlns:xlink="http://www.w3.org/1999/xlink" width="600" height="400" viewBox="0 0 2400 1600">
<defs>
  <clipPath id="clip840">
    <rect x="0" y="0" width="2400" height="1600"/>
  </clipPath>
</defs>
<path clip-path="url(#clip840)" d="
M0 1600 L2400 1600 L2400 0 L0 0  Z
  " fill="#ffffff" fill-rule="evenodd" fill-opacity="1"/>
<defs>
  <clipPath id="clip841">
    <rect x="480" y="0" width="1681" height="1600"/>
  </clipPath>
</defs>
<defs>
  <clipPath id="clip842">
    <rect x="200" y="47" width="2154" height="1381"/>
  </clipPath>
</defs>
<path clip-path="url(#clip840)" d="
M200.06 1427.14 L2352.76 1427.14 L2352.76 47.2441 L200.06 47.2441  Z
  " fill="#ffffff" fill-rule="evenodd" fill-opacity="1"/>
<polyline clip-path="url(#clip842)" style="stroke:#000000; stroke-linecap:butt; stroke-linejoin:round; stroke-width:2; stroke-opacity:0.1; fill:none" points="
  258.952,1427.14 258.952,47.2441 
  "/>
<polyline clip-path="url(#clip842)" style="stroke:#000000; stroke-linecap:butt; stroke-linejoin:round; stroke-width:2; stroke-opacity:0.1; fill:none" points="
  767.172,1427.14 767.172,47.2441 
  "/>
<polyline clip-path="url(#clip842)" style="stroke:#000000; stroke-linecap:butt; stroke-linejoin:round; stroke-width:2; stroke-opacity:0.1; fill:none" points="
  1275.39,1427.14 1275.39,47.2441 
  "/>
<polyline clip-path="url(#clip842)" style="stroke:#000000; stroke-linecap:butt; stroke-linejoin:round; stroke-width:2; stroke-opacity:0.1; fill:none" points="
  1783.61,1427.14 1783.61,47.2441 
  "/>
<polyline clip-path="url(#clip842)" style="stroke:#000000; stroke-linecap:butt; stroke-linejoin:round; stroke-width:2; stroke-opacity:0.1; fill:none" points="
  2291.83,1427.14 2291.83,47.2441 
  "/>
<polyline clip-path="url(#clip840)" style="stroke:#000000; stroke-linecap:butt; stroke-linejoin:round; stroke-width:4; stroke-opacity:1; fill:none" points="
  200.06,1427.14 2352.76,1427.14 
  "/>
<polyline clip-path="url(#clip840)" style="stroke:#000000; stroke-linecap:butt; stroke-linejoin:round; stroke-width:4; stroke-opacity:1; fill:none" points="
  258.952,1427.14 258.952,1408.24 
  "/>
<polyline clip-path="url(#clip840)" style="stroke:#000000; stroke-linecap:butt; stroke-linejoin:round; stroke-width:4; stroke-opacity:1; fill:none" points="
  767.172,1427.14 767.172,1408.24 
  "/>
<polyline clip-path="url(#clip840)" style="stroke:#000000; stroke-linecap:butt; stroke-linejoin:round; stroke-width:4; stroke-opacity:1; fill:none" points="
  1275.39,1427.14 1275.39,1408.24 
  "/>
<polyline clip-path="url(#clip840)" style="stroke:#000000; stroke-linecap:butt; stroke-linejoin:round; stroke-width:4; stroke-opacity:1; fill:none" points="
  1783.61,1427.14 1783.61,1408.24 
  "/>
<polyline clip-path="url(#clip840)" style="stroke:#000000; stroke-linecap:butt; stroke-linejoin:round; stroke-width:4; stroke-opacity:1; fill:none" points="
  2291.83,1427.14 2291.83,1408.24 
  "/>
<path clip-path="url(#clip840)" d="M191.094 1456.33 Q187.483 1456.33 185.654 1459.89 Q183.849 1463.43 183.849 1470.56 Q183.849 1477.67 185.654 1481.23 Q187.483 1484.78 191.094 1484.78 Q194.728 1484.78 196.534 1481.23 Q198.362 1477.67 198.362 1470.56 Q198.362 1463.43 196.534 1459.89 Q194.728 1456.33 191.094 1456.33 M191.094 1452.62 Q196.904 1452.62 199.96 1457.23 Q203.038 1461.81 203.038 1470.56 Q203.038 1479.29 199.96 1483.9 Q196.904 1488.48 191.094 1488.48 Q185.284 1488.48 182.205 1483.9 Q179.149 1479.29 179.149 1470.56 Q179.149 1461.81 182.205 1457.23 Q185.284 1452.62 191.094 1452.62 Z" fill="#000000" fill-rule="evenodd" fill-opacity="1" /><path clip-path="url(#clip840)" d="M211.256 1481.93 L216.14 1481.93 L216.14 1487.81 L211.256 1487.81 L211.256 1481.93 Z" fill="#000000" fill-rule="evenodd" fill-opacity="1" /><path clip-path="url(#clip840)" d="M236.325 1456.33 Q232.714 1456.33 230.885 1459.89 Q229.08 1463.43 229.08 1470.56 Q229.08 1477.67 230.885 1481.23 Q232.714 1484.78 236.325 1484.78 Q239.959 1484.78 241.765 1481.23 Q243.594 1477.67 243.594 1470.56 Q243.594 1463.43 241.765 1459.89 Q239.959 1456.33 236.325 1456.33 M236.325 1452.62 Q242.135 1452.62 245.191 1457.23 Q248.269 1461.81 248.269 1470.56 Q248.269 1479.29 245.191 1483.9 Q242.135 1488.48 236.325 1488.48 Q230.515 1488.48 227.436 1483.9 Q224.381 1479.29 224.381 1470.56 Q224.381 1461.81 227.436 1457.23 Q230.515 1452.62 236.325 1452.62 Z" fill="#000000" fill-rule="evenodd" fill-opacity="1" /><path clip-path="url(#clip840)" d="M266.487 1456.33 Q262.876 1456.33 261.047 1459.89 Q259.242 1463.43 259.242 1470.56 Q259.242 1477.67 261.047 1481.23 Q262.876 1484.78 266.487 1484.78 Q270.121 1484.78 271.927 1481.23 Q273.755 1477.67 273.755 1470.56 Q273.755 1463.43 271.927 1459.89 Q270.121 1456.33 266.487 1456.33 M266.487 1452.62 Q272.297 1452.62 275.353 1457.23 Q278.431 1461.81 278.431 1470.56 Q278.431 1479.29 275.353 1483.9 Q272.297 1488.48 266.487 1488.48 Q260.677 1488.48 257.598 1483.9 Q254.543 1479.29 254.543 1470.56 Q254.543 1461.81 257.598 1457.23 Q260.677 1452.62 266.487 1452.62 Z" fill="#000000" fill-rule="evenodd" fill-opacity="1" /><path clip-path="url(#clip840)" d="M296.649 1456.33 Q293.038 1456.33 291.209 1459.89 Q289.404 1463.43 289.404 1470.56 Q289.404 1477.67 291.209 1481.23 Q293.038 1484.78 296.649 1484.78 Q300.283 1484.78 302.089 1481.23 Q303.917 1477.67 303.917 1470.56 Q303.917 1463.43 302.089 1459.89 Q300.283 1456.33 296.649 1456.33 M296.649 1452.62 Q302.459 1452.62 305.515 1457.23 Q308.593 1461.81 308.593 1470.56 Q308.593 1479.29 305.515 1483.9 Q302.459 1488.48 296.649 1488.48 Q290.839 1488.48 287.76 1483.9 Q284.704 1479.29 284.704 1470.56 Q284.704 1461.81 287.76 1457.23 Q290.839 1452.62 296.649 1452.62 Z" fill="#000000" fill-rule="evenodd" fill-opacity="1" /><path clip-path="url(#clip840)" d="M326.811 1456.33 Q323.2 1456.33 321.371 1459.89 Q319.565 1463.43 319.565 1470.56 Q319.565 1477.67 321.371 1481.23 Q323.2 1484.78 326.811 1484.78 Q330.445 1484.78 332.251 1481.23 Q334.079 1477.67 334.079 1470.56 Q334.079 1463.43 332.251 1459.89 Q330.445 1456.33 326.811 1456.33 M326.811 1452.62 Q332.621 1452.62 335.676 1457.23 Q338.755 1461.81 338.755 1470.56 Q338.755 1479.29 335.676 1483.9 Q332.621 1488.48 326.811 1488.48 Q321.001 1488.48 317.922 1483.9 Q314.866 1479.29 314.866 1470.56 Q314.866 1461.81 317.922 1457.23 Q321.001 1452.62 326.811 1452.62 Z" fill="#000000" fill-rule="evenodd" fill-opacity="1" /><path clip-path="url(#clip840)" d="M699.811 1456.33 Q696.2 1456.33 694.371 1459.89 Q692.566 1463.43 692.566 1470.56 Q692.566 1477.67 694.371 1481.23 Q696.2 1484.78 699.811 1484.78 Q703.445 1484.78 705.251 1481.23 Q707.08 1477.67 707.08 1470.56 Q707.08 1463.43 705.251 1459.89 Q703.445 1456.33 699.811 1456.33 M699.811 1452.62 Q705.621 1452.62 708.677 1457.23 Q711.755 1461.81 711.755 1470.56 Q711.755 1479.29 708.677 1483.9 Q705.621 1488.48 699.811 1488.48 Q694.001 1488.48 690.922 1483.9 Q687.867 1479.29 687.867 1470.56 Q687.867 1461.81 690.922 1457.23 Q694.001 1452.62 699.811 1452.62 Z" fill="#000000" fill-rule="evenodd" fill-opacity="1" /><path clip-path="url(#clip840)" d="M719.973 1481.93 L724.857 1481.93 L724.857 1487.81 L719.973 1487.81 L719.973 1481.93 Z" fill="#000000" fill-rule="evenodd" fill-opacity="1" /><path clip-path="url(#clip840)" d="M745.042 1456.33 Q741.431 1456.33 739.603 1459.89 Q737.797 1463.43 737.797 1470.56 Q737.797 1477.67 739.603 1481.23 Q741.431 1484.78 745.042 1484.78 Q748.677 1484.78 750.482 1481.23 Q752.311 1477.67 752.311 1470.56 Q752.311 1463.43 750.482 1459.89 Q748.677 1456.33 745.042 1456.33 M745.042 1452.62 Q750.853 1452.62 753.908 1457.23 Q756.987 1461.81 756.987 1470.56 Q756.987 1479.29 753.908 1483.9 Q750.853 1488.48 745.042 1488.48 Q739.232 1488.48 736.154 1483.9 Q733.098 1479.29 733.098 1470.56 Q733.098 1461.81 736.154 1457.23 Q739.232 1452.62 745.042 1452.62 Z" fill="#000000" fill-rule="evenodd" fill-opacity="1" /><path clip-path="url(#clip840)" d="M775.204 1456.33 Q771.593 1456.33 769.764 1459.89 Q767.959 1463.43 767.959 1470.56 Q767.959 1477.67 769.764 1481.23 Q771.593 1484.78 775.204 1484.78 Q778.838 1484.78 780.644 1481.23 Q782.473 1477.67 782.473 1470.56 Q782.473 1463.43 780.644 1459.89 Q778.838 1456.33 775.204 1456.33 M775.204 1452.62 Q781.014 1452.62 784.07 1457.23 Q787.149 1461.81 787.149 1470.56 Q787.149 1479.29 784.07 1483.9 Q781.014 1488.48 775.204 1488.48 Q769.394 1488.48 766.315 1483.9 Q763.26 1479.29 763.26 1470.56 Q763.26 1461.81 766.315 1457.23 Q769.394 1452.62 775.204 1452.62 Z" fill="#000000" fill-rule="evenodd" fill-opacity="1" /><path clip-path="url(#clip840)" d="M799.394 1483.87 L815.713 1483.87 L815.713 1487.81 L793.769 1487.81 L793.769 1483.87 Q796.431 1481.12 801.014 1476.49 Q805.621 1471.84 806.801 1470.49 Q809.047 1467.97 809.926 1466.23 Q810.829 1464.48 810.829 1462.79 Q810.829 1460.03 808.885 1458.29 Q806.963 1456.56 803.861 1456.56 Q801.662 1456.56 799.209 1457.32 Q796.778 1458.09 794 1459.64 L794 1454.91 Q796.824 1453.78 799.278 1453.2 Q801.732 1452.62 803.769 1452.62 Q809.139 1452.62 812.334 1455.31 Q815.528 1457.99 815.528 1462.48 Q815.528 1464.61 814.718 1466.54 Q813.931 1468.43 811.824 1471.03 Q811.246 1471.7 808.144 1474.91 Q805.042 1478.11 799.394 1483.87 Z" fill="#000000" fill-rule="evenodd" fill-opacity="1" /><path clip-path="url(#clip840)" d="M825.574 1453.25 L843.931 1453.25 L843.931 1457.18 L829.857 1457.18 L829.857 1465.66 Q830.875 1465.31 831.894 1465.15 Q832.912 1464.96 833.931 1464.96 Q839.718 1464.96 843.097 1468.13 Q846.477 1471.3 846.477 1476.72 Q846.477 1482.3 843.005 1485.4 Q839.533 1488.48 833.213 1488.48 Q831.037 1488.48 828.769 1488.11 Q826.523 1487.74 824.116 1487 L824.116 1482.3 Q826.199 1483.43 828.422 1483.99 Q830.644 1484.54 833.121 1484.54 Q837.125 1484.54 839.463 1482.44 Q841.801 1480.33 841.801 1476.72 Q841.801 1473.11 839.463 1471 Q837.125 1468.9 833.121 1468.9 Q831.246 1468.9 829.371 1469.31 Q827.519 1469.73 825.574 1470.61 L825.574 1453.25 Z" fill="#000000" fill-rule="evenodd" fill-opacity="1" /><path clip-path="url(#clip840)" d="M1207.53 1456.33 Q1203.92 1456.33 1202.09 1459.89 Q1200.29 1463.43 1200.29 1470.56 Q1200.29 1477.67 1202.09 1481.23 Q1203.92 1484.78 1207.53 1484.78 Q1211.17 1484.78 1212.97 1481.23 Q1214.8 1477.67 1214.8 1470.56 Q1214.8 1463.43 1212.97 1459.89 Q1211.17 1456.33 1207.53 1456.33 M1207.53 1452.62 Q1213.34 1452.62 1216.4 1457.23 Q1219.48 1461.81 1219.48 1470.56 Q1219.48 1479.29 1216.4 1483.9 Q1213.34 1488.48 1207.53 1488.48 Q1201.72 1488.48 1198.64 1483.9 Q1195.59 1479.29 1195.59 1470.56 Q1195.59 1461.81 1198.64 1457.23 Q1201.72 1452.62 1207.53 1452.62 Z" fill="#000000" fill-rule="evenodd" fill-opacity="1" /><path clip-path="url(#clip840)" d="M1227.69 1481.93 L1232.58 1481.93 L1232.58 1487.81 L1227.69 1487.81 L1227.69 1481.93 Z" fill="#000000" fill-rule="evenodd" fill-opacity="1" /><path clip-path="url(#clip840)" d="M1252.76 1456.33 Q1249.15 1456.33 1247.32 1459.89 Q1245.52 1463.43 1245.52 1470.56 Q1245.52 1477.67 1247.32 1481.23 Q1249.15 1484.78 1252.76 1484.78 Q1256.4 1484.78 1258.2 1481.23 Q1260.03 1477.67 1260.03 1470.56 Q1260.03 1463.43 1258.2 1459.89 Q1256.4 1456.33 1252.76 1456.33 M1252.76 1452.62 Q1258.57 1452.62 1261.63 1457.23 Q1264.71 1461.81 1264.71 1470.56 Q1264.71 1479.29 1261.63 1483.9 Q1258.57 1488.48 1252.76 1488.48 Q1246.95 1488.48 1243.88 1483.9 Q1240.82 1479.29 1240.82 1470.56 Q1240.82 1461.81 1243.88 1457.23 Q1246.95 1452.62 1252.76 1452.62 Z" fill="#000000" fill-rule="evenodd" fill-opacity="1" /><path clip-path="url(#clip840)" d="M1282.93 1456.33 Q1279.32 1456.33 1277.49 1459.89 Q1275.68 1463.43 1275.68 1470.56 Q1275.68 1477.67 1277.49 1481.23 Q1279.32 1484.78 1282.93 1484.78 Q1286.56 1484.78 1288.37 1481.23 Q1290.19 1477.67 1290.19 1470.56 Q1290.19 1463.43 1288.37 1459.89 Q1286.56 1456.33 1282.93 1456.33 M1282.93 1452.62 Q1288.74 1452.62 1291.79 1457.23 Q1294.87 1461.81 1294.87 1470.56 Q1294.87 1479.29 1291.79 1483.9 Q1288.74 1488.48 1282.93 1488.48 Q1277.12 1488.48 1274.04 1483.9 Q1270.98 1479.29 1270.98 1470.56 Q1270.98 1461.81 1274.04 1457.23 Q1277.12 1452.62 1282.93 1452.62 Z" fill="#000000" fill-rule="evenodd" fill-opacity="1" /><path clip-path="url(#clip840)" d="M1303.13 1453.25 L1321.49 1453.25 L1321.49 1457.18 L1307.42 1457.18 L1307.42 1465.66 Q1308.44 1465.31 1309.45 1465.15 Q1310.47 1464.96 1311.49 1464.96 Q1317.28 1464.96 1320.66 1468.13 Q1324.04 1471.3 1324.04 1476.72 Q1324.04 1482.3 1320.56 1485.4 Q1317.09 1488.48 1310.77 1488.48 Q1308.6 1488.48 1306.33 1488.11 Q1304.08 1487.74 1301.68 1487 L1301.68 1482.3 Q1303.76 1483.43 1305.98 1483.99 Q1308.2 1484.54 1310.68 1484.54 Q1314.69 1484.54 1317.02 1482.44 Q1319.36 1480.33 1319.36 1476.72 Q1319.36 1473.11 1317.02 1471 Q1314.69 1468.9 1310.68 1468.9 Q1308.81 1468.9 1306.93 1469.31 Q1305.08 1469.73 1303.13 1470.61 L1303.13 1453.25 Z" fill="#000000" fill-rule="evenodd" fill-opacity="1" /><path clip-path="url(#clip840)" d="M1343.25 1456.33 Q1339.64 1456.33 1337.81 1459.89 Q1336 1463.43 1336 1470.56 Q1336 1477.67 1337.81 1481.23 Q1339.64 1484.78 1343.25 1484.78 Q1346.88 1484.78 1348.69 1481.23 Q1350.52 1477.67 1350.52 1470.56 Q1350.52 1463.43 1348.69 1459.89 Q1346.88 1456.33 1343.25 1456.33 M1343.25 1452.62 Q1349.06 1452.62 1352.12 1457.23 Q1355.19 1461.81 1355.19 1470.56 Q1355.19 1479.29 1352.12 1483.9 Q1349.06 1488.48 1343.25 1488.48 Q1337.44 1488.48 1334.36 1483.9 Q1331.31 1479.29 1331.31 1470.56 Q1331.31 1461.81 1334.36 1457.23 Q1337.44 1452.62 1343.25 1452.62 Z" fill="#000000" fill-rule="evenodd" fill-opacity="1" /><path clip-path="url(#clip840)" d="M1716.25 1456.33 Q1712.64 1456.33 1710.81 1459.89 Q1709 1463.43 1709 1470.56 Q1709 1477.67 1710.81 1481.23 Q1712.64 1484.78 1716.25 1484.78 Q1719.88 1484.78 1721.69 1481.23 Q1723.52 1477.67 1723.52 1470.56 Q1723.52 1463.43 1721.69 1459.89 Q1719.88 1456.33 1716.25 1456.33 M1716.25 1452.62 Q1722.06 1452.62 1725.12 1457.23 Q1728.19 1461.81 1728.19 1470.56 Q1728.19 1479.29 1725.12 1483.9 Q1722.06 1488.48 1716.25 1488.48 Q1710.44 1488.48 1707.36 1483.9 Q1704.31 1479.29 1704.31 1470.56 Q1704.31 1461.81 1707.36 1457.23 Q1710.44 1452.62 1716.25 1452.62 Z" fill="#000000" fill-rule="evenodd" fill-opacity="1" /><path clip-path="url(#clip840)" d="M1736.41 1481.93 L1741.3 1481.93 L1741.3 1487.81 L1736.41 1487.81 L1736.41 1481.93 Z" fill="#000000" fill-rule="evenodd" fill-opacity="1" /><path clip-path="url(#clip840)" d="M1761.48 1456.33 Q1757.87 1456.33 1756.04 1459.89 Q1754.24 1463.43 1754.24 1470.56 Q1754.24 1477.67 1756.04 1481.23 Q1757.87 1484.78 1761.48 1484.78 Q1765.12 1484.78 1766.92 1481.23 Q1768.75 1477.67 1768.75 1470.56 Q1768.75 1463.43 1766.92 1459.89 Q1765.12 1456.33 1761.48 1456.33 M1761.48 1452.62 Q1767.29 1452.62 1770.35 1457.23 Q1773.43 1461.81 1773.43 1470.56 Q1773.43 1479.29 1770.35 1483.9 Q1767.29 1488.48 1761.48 1488.48 Q1755.67 1488.48 1752.59 1483.9 Q1749.54 1479.29 1749.54 1470.56 Q1749.54 1461.81 1752.59 1457.23 Q1755.67 1452.62 1761.48 1452.62 Z" fill="#000000" fill-rule="evenodd" fill-opacity="1" /><path clip-path="url(#clip840)" d="M1791.64 1456.33 Q1788.03 1456.33 1786.2 1459.89 Q1784.4 1463.43 1784.4 1470.56 Q1784.4 1477.67 1786.2 1481.23 Q1788.03 1484.78 1791.64 1484.78 Q1795.28 1484.78 1797.08 1481.23 Q1798.91 1477.67 1798.91 1470.56 Q1798.91 1463.43 1797.08 1459.89 Q1795.28 1456.33 1791.64 1456.33 M1791.64 1452.62 Q1797.45 1452.62 1800.51 1457.23 Q1803.59 1461.81 1803.59 1470.56 Q1803.59 1479.29 1800.51 1483.9 Q1797.45 1488.48 1791.64 1488.48 Q1785.83 1488.48 1782.75 1483.9 Q1779.7 1479.29 1779.7 1470.56 Q1779.7 1461.81 1782.75 1457.23 Q1785.83 1452.62 1791.64 1452.62 Z" fill="#000000" fill-rule="evenodd" fill-opacity="1" /><path clip-path="url(#clip840)" d="M1810.62 1453.25 L1832.85 1453.25 L1832.85 1455.24 L1820.3 1487.81 L1815.42 1487.81 L1827.22 1457.18 L1810.62 1457.18 L1810.62 1453.25 Z" fill="#000000" fill-rule="evenodd" fill-opacity="1" /><path clip-path="url(#clip840)" d="M1842.01 1453.25 L1860.37 1453.25 L1860.37 1457.18 L1846.3 1457.18 L1846.3 1465.66 Q1847.31 1465.31 1848.33 1465.15 Q1849.35 1464.96 1850.37 1464.96 Q1856.16 1464.96 1859.54 1468.13 Q1862.92 1471.3 1862.92 1476.72 Q1862.92 1482.3 1859.44 1485.4 Q1855.97 1488.48 1849.65 1488.48 Q1847.48 1488.48 1845.21 1488.11 Q1842.96 1487.74 1840.56 1487 L1840.56 1482.3 Q1842.64 1483.43 1844.86 1483.99 Q1847.08 1484.54 1849.56 1484.54 Q1853.56 1484.54 1855.9 1482.44 Q1858.24 1480.33 1858.24 1476.72 Q1858.24 1473.11 1855.9 1471 Q1853.56 1468.9 1849.56 1468.9 Q1847.68 1468.9 1845.81 1469.31 Q1843.96 1469.73 1842.01 1470.61 L1842.01 1453.25 Z" fill="#000000" fill-rule="evenodd" fill-opacity="1" /><path clip-path="url(#clip840)" d="M2223.97 1456.33 Q2220.36 1456.33 2218.53 1459.89 Q2216.73 1463.43 2216.73 1470.56 Q2216.73 1477.67 2218.53 1481.23 Q2220.36 1484.78 2223.97 1484.78 Q2227.61 1484.78 2229.41 1481.23 Q2231.24 1477.67 2231.24 1470.56 Q2231.24 1463.43 2229.41 1459.89 Q2227.61 1456.33 2223.97 1456.33 M2223.97 1452.62 Q2229.78 1452.62 2232.84 1457.23 Q2235.92 1461.81 2235.92 1470.56 Q2235.92 1479.29 2232.84 1483.9 Q2229.78 1488.48 2223.97 1488.48 Q2218.16 1488.48 2215.08 1483.9 Q2212.03 1479.29 2212.03 1470.56 Q2212.03 1461.81 2215.08 1457.23 Q2218.16 1452.62 2223.97 1452.62 Z" fill="#000000" fill-rule="evenodd" fill-opacity="1" /><path clip-path="url(#clip840)" d="M2244.13 1481.93 L2249.02 1481.93 L2249.02 1487.81 L2244.13 1487.81 L2244.13 1481.93 Z" fill="#000000" fill-rule="evenodd" fill-opacity="1" /><path clip-path="url(#clip840)" d="M2269.2 1456.33 Q2265.59 1456.33 2263.76 1459.89 Q2261.96 1463.43 2261.96 1470.56 Q2261.96 1477.67 2263.76 1481.23 Q2265.59 1484.78 2269.2 1484.78 Q2272.84 1484.78 2274.64 1481.23 Q2276.47 1477.67 2276.47 1470.56 Q2276.47 1463.43 2274.64 1459.89 Q2272.84 1456.33 2269.2 1456.33 M2269.2 1452.62 Q2275.01 1452.62 2278.07 1457.23 Q2281.15 1461.81 2281.15 1470.56 Q2281.15 1479.29 2278.07 1483.9 Q2275.01 1488.48 2269.2 1488.48 Q2263.39 1488.48 2260.31 1483.9 Q2257.26 1479.29 2257.26 1470.56 Q2257.26 1461.81 2260.31 1457.23 Q2263.39 1452.62 2269.2 1452.62 Z" fill="#000000" fill-rule="evenodd" fill-opacity="1" /><path clip-path="url(#clip840)" d="M2290.18 1483.87 L2297.81 1483.87 L2297.81 1457.51 L2289.5 1459.17 L2289.5 1454.91 L2297.77 1453.25 L2302.44 1453.25 L2302.44 1483.87 L2310.08 1483.87 L2310.08 1487.81 L2290.18 1487.81 L2290.18 1483.87 Z" fill="#000000" fill-rule="evenodd" fill-opacity="1" /><path clip-path="url(#clip840)" d="M2329.53 1456.33 Q2325.92 1456.33 2324.09 1459.89 Q2322.28 1463.43 2322.28 1470.56 Q2322.28 1477.67 2324.09 1481.23 Q2325.92 1484.78 2329.53 1484.78 Q2333.16 1484.78 2334.97 1481.23 Q2336.8 1477.67 2336.8 1470.56 Q2336.8 1463.43 2334.97 1459.89 Q2333.16 1456.33 2329.53 1456.33 M2329.53 1452.62 Q2335.34 1452.62 2338.39 1457.23 Q2341.47 1461.81 2341.47 1470.56 Q2341.47 1479.29 2338.39 1483.9 Q2335.34 1488.48 2329.53 1488.48 Q2323.72 1488.48 2320.64 1483.9 Q2317.58 1479.29 2317.58 1470.56 Q2317.58 1461.81 2320.64 1457.23 Q2323.72 1452.62 2329.53 1452.62 Z" fill="#000000" fill-rule="evenodd" fill-opacity="1" /><path clip-path="url(#clip840)" d="M2359.69 1456.33 Q2356.08 1456.33 2354.25 1459.89 Q2352.44 1463.43 2352.44 1470.56 Q2352.44 1477.67 2354.25 1481.23 Q2356.08 1484.78 2359.69 1484.78 Q2363.32 1484.78 2365.13 1481.23 Q2366.96 1477.67 2366.96 1470.56 Q2366.96 1463.43 2365.13 1459.89 Q2363.32 1456.33 2359.69 1456.33 M2359.69 1452.62 Q2365.5 1452.62 2368.55 1457.23 Q2371.63 1461.81 2371.63 1470.56 Q2371.63 1479.29 2368.55 1483.9 Q2365.5 1488.48 2359.69 1488.48 Q2353.88 1488.48 2350.8 1483.9 Q2347.74 1479.29 2347.74 1470.56 Q2347.74 1461.81 2350.8 1457.23 Q2353.88 1452.62 2359.69 1452.62 Z" fill="#000000" fill-rule="evenodd" fill-opacity="1" /><path clip-path="url(#clip840)" d="M1274.95 1528.78 Q1274.95 1530.61 1273.83 1531.71 Q1272.73 1532.8 1271.35 1532.8 Q1270.12 1532.8 1269.48 1532.1 Q1268.83 1531.39 1268.83 1530.49 Q1268.83 1530.1 1269 1529.62 Q1269.16 1529.1 1269.51 1528.49 Q1269.9 1527.88 1270.7 1527.43 Q1271.51 1526.97 1272.6 1526.91 Q1272.38 1526.68 1272.31 1526.65 Q1271.83 1526.27 1270.93 1526.14 Q1270.8 1526.07 1270.35 1526.07 Q1268.13 1526.07 1265.87 1527.72 Q1263.65 1529.33 1260.91 1532.39 Q1257.47 1535.96 1255.24 1537.28 Q1265 1538.57 1265 1544.2 Q1265 1545.14 1264.74 1546.27 Q1264.23 1548.39 1264.23 1549.94 Q1264.23 1553.03 1266.32 1553.03 Q1268.35 1553.03 1269.64 1550.97 Q1270.96 1548.91 1272.05 1544.88 Q1272.22 1544.14 1272.38 1543.91 Q1272.54 1543.69 1272.99 1543.69 Q1273.79 1543.69 1273.79 1544.33 Q1273.05 1548.1 1271.41 1551 Q1269.32 1554.51 1266.19 1554.51 Q1263.58 1554.51 1261.85 1552.71 Q1260.14 1550.87 1260.14 1547.97 Q1260.14 1547.26 1260.4 1545.65 Q1260.59 1545.01 1260.59 1544.27 Q1260.59 1542.76 1259.75 1541.63 Q1258.91 1540.47 1257.56 1539.89 Q1256.21 1539.31 1255.08 1539.05 Q1253.99 1538.76 1252.92 1538.67 Q1249.7 1552.29 1249.25 1553.13 Q1248.96 1553.71 1248.32 1554.09 Q1247.67 1554.51 1247 1554.51 Q1246.35 1554.51 1245.71 1554.06 Q1245.1 1553.64 1245.1 1552.64 Q1245.1 1552.13 1245.36 1551.19 L1254.92 1513.19 L1255.11 1511.9 Q1255.11 1511.52 1254.95 1511.32 Q1254.82 1511.1 1254.05 1510.94 Q1253.31 1510.78 1251.83 1510.78 Q1251.22 1510.78 1250.93 1510.74 Q1250.67 1510.71 1250.44 1510.55 Q1250.22 1510.36 1250.22 1509.97 Q1250.22 1509.42 1250.44 1509.13 Q1250.7 1508.81 1250.9 1508.75 Q1251.09 1508.68 1251.48 1508.65 Q1252.02 1508.62 1253.86 1508.46 Q1255.69 1508.26 1257.27 1508.13 Q1258.85 1508.01 1259.53 1508.01 Q1259.91 1508.01 1260.11 1508.2 Q1260.33 1508.36 1260.36 1508.55 L1260.4 1508.71 L1253.54 1536.54 Q1256.37 1535.41 1260.85 1530.42 Q1266.03 1524.62 1270.48 1524.62 Q1272.57 1524.62 1273.76 1525.91 Q1274.95 1527.17 1274.95 1528.78 Z" fill="#000000" fill-rule="evenodd" fill-opacity="1" /><path clip-path="url(#clip840)" d="M1281.7 1566.56 Q1281.7 1565.18 1282.49 1564.53 Q1283.28 1563.88 1284.29 1563.88 Q1285.35 1563.88 1286.1 1564.57 Q1286.86 1565.25 1286.86 1566.45 Q1286.86 1567.73 1285.96 1568.45 Q1285.08 1569.17 1283.82 1568.99 Q1284.92 1570.84 1286.95 1571.68 Q1289.01 1572.51 1290.9 1572.51 Q1292.88 1572.51 1294.48 1570.8 Q1296.11 1569.08 1296.11 1564.89 Q1296.11 1561.33 1294.71 1559.28 Q1293.33 1557.23 1290.61 1557.23 L1288.58 1557.23 Q1287.88 1557.23 1287.68 1557.16 Q1287.47 1557.09 1287.47 1556.71 Q1287.47 1556.26 1288.17 1556.17 Q1288.87 1556.17 1289.97 1556.03 Q1292.66 1555.94 1294.08 1553.62 Q1295.36 1551.45 1295.36 1548.37 Q1295.36 1545.55 1294.01 1544.38 Q1292.68 1543.18 1290.94 1543.18 Q1289.32 1543.18 1287.54 1543.86 Q1285.76 1544.53 1284.79 1546.04 Q1287.65 1546.04 1287.65 1548.37 Q1287.65 1549.38 1287 1550.06 Q1286.37 1550.71 1285.31 1550.71 Q1284.29 1550.71 1283.62 1550.08 Q1282.94 1549.43 1282.94 1548.32 Q1282.94 1545.68 1285.29 1543.86 Q1287.65 1542.03 1291.12 1542.03 Q1294.55 1542.03 1297.08 1543.83 Q1299.62 1545.64 1299.62 1548.41 Q1299.62 1551.14 1297.82 1553.37 Q1296.02 1555.6 1293.15 1556.53 Q1296.67 1557.23 1298.77 1559.62 Q1300.86 1561.98 1300.86 1564.89 Q1300.86 1568.5 1298.02 1571.16 Q1295.18 1573.8 1291.03 1573.8 Q1287.2 1573.8 1284.45 1571.72 Q1281.7 1569.65 1281.7 1566.56 Z" fill="#000000" fill-rule="evenodd" fill-opacity="1" /><polyline clip-path="url(#clip842)" style="stroke:#000000; stroke-linecap:butt; stroke-linejoin:round; stroke-width:2; stroke-opacity:0.1; fill:none" points="
  200.06,1307.11 2352.76,1307.11 
  "/>
<polyline clip-path="url(#clip842)" style="stroke:#000000; stroke-linecap:butt; stroke-linejoin:round; stroke-width:2; stroke-opacity:0.1; fill:none" points="
  200.06,923.417 2352.76,923.417 
  "/>
<polyline clip-path="url(#clip842)" style="stroke:#000000; stroke-linecap:butt; stroke-linejoin:round; stroke-width:2; stroke-opacity:0.1; fill:none" points="
  200.06,539.726 2352.76,539.726 
  "/>
<polyline clip-path="url(#clip842)" style="stroke:#000000; stroke-linecap:butt; stroke-linejoin:round; stroke-width:2; stroke-opacity:0.1; fill:none" points="
  200.06,156.035 2352.76,156.035 
  "/>
<polyline clip-path="url(#clip840)" style="stroke:#000000; stroke-linecap:butt; stroke-linejoin:round; stroke-width:4; stroke-opacity:1; fill:none" points="
  200.06,1427.14 200.06,47.2441 
  "/>
<polyline clip-path="url(#clip840)" style="stroke:#000000; stroke-linecap:butt; stroke-linejoin:round; stroke-width:4; stroke-opacity:1; fill:none" points="
  200.06,1307.11 218.957,1307.11 
  "/>
<polyline clip-path="url(#clip840)" style="stroke:#000000; stroke-linecap:butt; stroke-linejoin:round; stroke-width:4; stroke-opacity:1; fill:none" points="
  200.06,923.417 218.957,923.417 
  "/>
<polyline clip-path="url(#clip840)" style="stroke:#000000; stroke-linecap:butt; stroke-linejoin:round; stroke-width:4; stroke-opacity:1; fill:none" points="
  200.06,539.726 218.957,539.726 
  "/>
<polyline clip-path="url(#clip840)" style="stroke:#000000; stroke-linecap:butt; stroke-linejoin:round; stroke-width:4; stroke-opacity:1; fill:none" points="
  200.06,156.035 218.957,156.035 
  "/>
<path clip-path="url(#clip840)" d="M143.157 1289.83 L161.514 1289.83 L161.514 1293.76 L147.44 1293.76 L147.44 1302.23 Q148.458 1301.89 149.477 1301.73 Q150.495 1301.54 151.514 1301.54 Q157.301 1301.54 160.68 1304.71 Q164.06 1307.88 164.06 1313.3 Q164.06 1318.88 160.588 1321.98 Q157.115 1325.06 150.796 1325.06 Q148.62 1325.06 146.352 1324.69 Q144.106 1324.32 141.699 1323.58 L141.699 1318.88 Q143.782 1320.01 146.004 1320.57 Q148.227 1321.12 150.703 1321.12 Q154.708 1321.12 157.046 1319.02 Q159.384 1316.91 159.384 1313.3 Q159.384 1309.69 157.046 1307.58 Q154.708 1305.48 150.703 1305.48 Q148.828 1305.48 146.953 1305.89 Q145.102 1306.31 143.157 1307.19 L143.157 1289.83 Z" fill="#000000" fill-rule="evenodd" fill-opacity="1" /><path clip-path="url(#clip840)" d="M112.764 936.762 L120.403 936.762 L120.403 910.396 L112.093 912.063 L112.093 907.803 L120.356 906.137 L125.032 906.137 L125.032 936.762 L132.671 936.762 L132.671 940.697 L112.764 940.697 L112.764 936.762 Z" fill="#000000" fill-rule="evenodd" fill-opacity="1" /><path clip-path="url(#clip840)" d="M152.115 909.216 Q148.504 909.216 146.676 912.78 Q144.87 916.322 144.87 923.452 Q144.87 930.558 146.676 934.123 Q148.504 937.664 152.115 937.664 Q155.75 937.664 157.555 934.123 Q159.384 930.558 159.384 923.452 Q159.384 916.322 157.555 912.78 Q155.75 909.216 152.115 909.216 M152.115 905.512 Q157.926 905.512 160.981 910.118 Q164.06 914.702 164.06 923.452 Q164.06 932.178 160.981 936.785 Q157.926 941.368 152.115 941.368 Q146.305 941.368 143.227 936.785 Q140.171 932.178 140.171 923.452 Q140.171 914.702 143.227 910.118 Q146.305 905.512 152.115 905.512 Z" fill="#000000" fill-rule="evenodd" fill-opacity="1" /><path clip-path="url(#clip840)" d="M113.759 553.071 L121.398 553.071 L121.398 526.705 L113.088 528.372 L113.088 524.113 L121.352 522.446 L126.028 522.446 L126.028 553.071 L133.666 553.071 L133.666 557.006 L113.759 557.006 L113.759 553.071 Z" fill="#000000" fill-rule="evenodd" fill-opacity="1" /><path clip-path="url(#clip840)" d="M143.157 522.446 L161.514 522.446 L161.514 526.381 L147.44 526.381 L147.44 534.853 Q148.458 534.506 149.477 534.344 Q150.495 534.159 151.514 534.159 Q157.301 534.159 160.68 537.33 Q164.06 540.502 164.06 545.918 Q164.06 551.497 160.588 554.599 Q157.115 557.677 150.796 557.677 Q148.62 557.677 146.352 557.307 Q144.106 556.937 141.699 556.196 L141.699 551.497 Q143.782 552.631 146.004 553.187 Q148.227 553.742 150.703 553.742 Q154.708 553.742 157.046 551.636 Q159.384 549.529 159.384 545.918 Q159.384 542.307 157.046 540.201 Q154.708 538.094 150.703 538.094 Q148.828 538.094 146.953 538.511 Q145.102 538.927 143.157 539.807 L143.157 522.446 Z" fill="#000000" fill-rule="evenodd" fill-opacity="1" /><path clip-path="url(#clip840)" d="M115.981 169.38 L132.301 169.38 L132.301 173.315 L110.356 173.315 L110.356 169.38 Q113.018 166.626 117.602 161.996 Q122.208 157.343 123.389 156.001 Q125.634 153.477 126.514 151.741 Q127.417 149.982 127.417 148.292 Q127.417 145.538 125.472 143.802 Q123.551 142.065 120.449 142.065 Q118.25 142.065 115.796 142.829 Q113.366 143.593 110.588 145.144 L110.588 140.422 Q113.412 139.288 115.866 138.709 Q118.319 138.13 120.356 138.13 Q125.727 138.13 128.921 140.815 Q132.116 143.501 132.116 147.991 Q132.116 150.121 131.305 152.042 Q130.518 153.94 128.412 156.533 Q127.833 157.204 124.731 160.422 Q121.629 163.616 115.981 169.38 Z" fill="#000000" fill-rule="evenodd" fill-opacity="1" /><path clip-path="url(#clip840)" d="M152.115 141.834 Q148.504 141.834 146.676 145.399 Q144.87 148.94 144.87 156.07 Q144.87 163.176 146.676 166.741 Q148.504 170.283 152.115 170.283 Q155.75 170.283 157.555 166.741 Q159.384 163.176 159.384 156.07 Q159.384 148.94 157.555 145.399 Q155.75 141.834 152.115 141.834 M152.115 138.13 Q157.926 138.13 160.981 142.737 Q164.06 147.32 164.06 156.07 Q164.06 164.797 160.981 169.403 Q157.926 173.987 152.115 173.987 Q146.305 173.987 143.227 169.403 Q140.171 164.797 140.171 156.07 Q140.171 147.32 143.227 142.737 Q146.305 138.13 152.115 138.13 Z" fill="#000000" fill-rule="evenodd" fill-opacity="1" /><path clip-path="url(#clip840)" d="M16.8527 753.586 L28.2536 754.906 Q29.2842 755.003 29.6063 755.164 Q29.8961 755.325 29.8961 755.84 Q29.8961 756.613 29.1232 756.613 Q28.8011 756.613 27.9315 756.484 Q26.1602 756.291 24.3567 756.291 Q22.3277 756.291 21.0717 756.678 Q19.7835 757.032 18.8495 758.062 Q17.9155 759.093 17.5291 760.993 Q17.1104 762.893 17.1104 765.921 L17.1104 774.616 Q17.1104 776.742 17.4969 777.257 Q17.8833 777.74 19.6868 778.191 L36.4339 782.41 L36.4339 776.42 Q36.4339 772.233 35.2101 770.591 Q33.9863 768.948 30.0893 767.917 Q29.4774 767.756 29.252 767.692 Q28.9943 767.595 28.8655 767.434 Q28.7045 767.241 28.7045 766.919 Q28.7045 766.629 28.8977 766.436 Q29.0588 766.243 29.252 766.178 L29.4452 766.114 Q29.7673 766.114 30.508 766.307 L44.8074 769.946 Q45.7736 770.204 45.999 770.365 Q46.1923 770.494 46.1923 770.945 Q46.1923 771.267 45.9668 771.492 Q45.7414 771.718 45.3871 771.718 Q45.0007 771.653 44.6786 771.525 Q42.714 771.074 41.458 771.074 Q40.6529 771.074 40.1698 771.235 Q39.6867 771.396 39.268 771.943 Q38.8493 772.491 38.6561 773.618 Q38.4629 774.745 38.4629 776.549 L38.4629 782.925 L54.8879 787.016 L56.4015 787.305 Q57.0779 787.305 57.3355 786.951 Q57.5931 786.565 57.722 785.18 Q57.883 783.119 57.883 781.766 Q57.883 780.091 57.9474 779.898 Q58.1406 779.512 58.6559 779.512 Q59.2356 779.512 59.5577 779.769 Q59.8476 780.027 59.8798 780.252 Q59.912 780.478 59.912 780.896 L59.7187 790.719 L59.912 799.415 Q59.912 800.413 59.1068 800.413 Q58.4949 800.413 58.2373 800.156 Q57.9474 799.898 57.9152 799.608 Q57.883 799.318 57.883 798.577 Q57.883 796.967 57.7864 796.001 Q57.6898 795.035 57.5609 794.423 Q57.3999 793.779 56.949 793.457 Q56.4981 793.102 56.1117 792.941 Q55.693 792.78 54.759 792.555 L19.8801 783.859 Q18.6885 783.537 18.302 783.537 Q17.8833 783.537 17.6257 783.827 Q17.368 784.085 17.2714 784.793 Q17.1426 785.502 17.1426 786.082 Q17.1104 786.629 17.1104 787.821 Q17.1104 788.594 17.0782 788.916 Q17.046 789.206 16.8849 789.431 Q16.7239 789.656 16.3696 789.656 Q15.4679 789.656 15.2746 789.27 Q15.0492 788.851 15.0492 787.692 L15.0492 755.357 Q15.0492 754.069 15.3391 753.779 Q15.5967 753.457 16.8527 753.586 Z" fill="#000000" fill-rule="evenodd" fill-opacity="1" /><path clip-path="url(#clip840)" d="M16.8527 711.607 L28.2536 712.928 Q29.2842 713.024 29.6063 713.186 Q29.8961 713.347 29.8961 713.862 Q29.8961 714.635 29.1232 714.635 Q28.8011 714.635 27.9315 714.506 Q26.1602 714.313 24.3567 714.313 Q22.3277 714.313 21.0717 714.699 Q19.7835 715.053 18.8495 716.084 Q17.9155 717.115 17.5291 719.015 Q17.1104 720.915 17.1104 723.942 L17.1104 732.638 Q17.1104 734.763 17.4969 735.279 Q17.8833 735.762 19.6868 736.213 L36.4339 740.432 L36.4339 734.441 Q36.4339 730.255 35.2101 728.612 Q33.9863 726.97 30.0893 725.939 Q29.4774 725.778 29.252 725.714 Q28.9943 725.617 28.8655 725.456 Q28.7045 725.263 28.7045 724.941 Q28.7045 724.651 28.8977 724.458 Q29.0588 724.264 29.252 724.2 L29.4452 724.135 Q29.7673 724.135 30.508 724.329 L44.8074 727.968 Q45.7736 728.226 45.999 728.387 Q46.1923 728.515 46.1923 728.966 Q46.1923 729.288 45.9668 729.514 Q45.7414 729.739 45.3871 729.739 Q45.0007 729.675 44.6786 729.546 Q42.714 729.095 41.458 729.095 Q40.6529 729.095 40.1698 729.256 Q39.6867 729.417 39.268 729.965 Q38.8493 730.512 38.6561 731.639 Q38.4629 732.767 38.4629 734.57 L38.4629 740.947 L54.8879 745.037 L56.4015 745.327 Q57.0779 745.327 57.3355 744.973 Q57.5931 744.586 57.722 743.201 Q57.883 741.14 57.883 739.788 Q57.883 738.113 57.9474 737.92 Q58.1406 737.533 58.6559 737.533 Q59.2356 737.533 59.5577 737.791 Q59.8476 738.048 59.8798 738.274 Q59.912 738.499 59.912 738.918 L59.7187 748.741 L59.912 757.436 Q59.912 758.435 59.1068 758.435 Q58.4949 758.435 58.2373 758.177 Q57.9474 757.919 57.9152 757.63 Q57.883 757.34 57.883 756.599 Q57.883 754.989 57.7864 754.023 Q57.6898 753.056 57.5609 752.444 Q57.3999 751.8 56.949 751.478 Q56.4981 751.124 56.1117 750.963 Q55.693 750.802 54.759 750.577 L19.8801 741.881 Q18.6885 741.559 18.302 741.559 Q17.8833 741.559 17.6257 741.849 Q17.368 742.106 17.2714 742.815 Q17.1426 743.523 17.1426 744.103 Q17.1104 744.651 17.1104 745.842 Q17.1104 746.615 17.0782 746.937 Q17.046 747.227 16.8849 747.453 Q16.7239 747.678 16.3696 747.678 Q15.4679 747.678 15.2746 747.292 Q15.0492 746.873 15.0492 745.713 L15.0492 713.379 Q15.0492 712.091 15.3391 711.801 Q15.5967 711.479 16.8527 711.607 Z" fill="#000000" fill-rule="evenodd" fill-opacity="1" /><path clip-path="url(#clip840)" d="M59.009 680.773 Q62.3004 680.773 65.4791 682.441 Q68.6579 684.087 70.6192 686.679 Q72.558 689.272 72.558 691.909 Q72.558 693.487 71.7013 694.547 Q70.8221 695.584 69.5822 696.148 Q71.1152 696.576 74.7899 697.5 Q78.4645 698.425 78.8252 698.425 Q79.0281 698.425 79.1183 698.379 Q79.2085 698.334 79.3212 698.132 Q79.4565 697.929 79.5016 697.433 Q79.5692 696.937 79.5692 696.103 Q79.5692 695.674 79.5692 695.516 Q79.5917 695.336 79.7045 695.178 Q79.8172 694.998 80.0652 694.998 Q80.9895 694.998 80.9895 695.832 Q80.9895 696.576 80.9218 698.109 Q80.8542 699.642 80.8542 700.408 Q80.8542 701.062 80.9218 702.37 Q80.9895 703.677 80.9895 704.286 Q80.9895 704.895 80.4484 704.895 Q80.1328 704.895 79.9299 704.805 Q79.7496 704.737 79.6594 704.557 Q79.5917 704.376 79.5692 704.218 Q79.5692 704.083 79.5692 703.813 Q79.5692 702.776 79.3888 702.325 Q79.231 701.874 78.8929 701.716 Q78.5773 701.536 77.6755 701.333 L57.1153 696.148 Q55.7401 695.832 54.7707 695.832 Q53.5533 695.832 53.1024 696.215 Q52.6515 696.599 52.6515 697.275 Q52.6515 698.447 54.0493 699.214 Q55.447 699.98 58.1523 700.634 Q58.8963 700.837 59.0541 700.972 Q59.2119 701.085 59.2119 701.423 Q59.1893 701.987 58.7384 701.987 Q58.6257 701.987 57.9043 701.806 Q57.1604 701.626 56.0782 701.288 Q54.9736 700.927 54.2747 700.544 Q53.8013 700.318 53.4857 700.115 Q53.1701 699.912 52.6741 699.507 Q52.1781 699.078 51.9076 698.47 Q51.6371 697.861 51.6371 697.117 Q51.6371 695.674 52.4937 694.479 Q53.3504 693.285 55.0863 692.969 Q53.5758 691.684 52.6065 690.106 Q51.6371 688.528 51.6371 686.927 Q51.6371 684.267 53.7111 682.531 Q55.7626 680.773 59.009 680.773 M56.98 684.109 Q54.9285 684.109 53.8013 684.898 Q52.6515 685.665 52.6515 687.062 Q52.6515 688.798 54.41 690.805 Q56.0782 692.789 57.6338 693.194 L66.674 695.471 L67.4179 695.607 Q67.5532 695.607 67.959 695.539 Q68.3422 695.449 68.9735 695.201 Q69.6047 694.93 70.1683 694.57 Q70.7094 694.186 71.1152 693.51 Q71.521 692.811 71.521 691.954 Q71.521 690.579 70.3036 689.091 Q69.0862 687.581 66.7867 686.454 Q65.2988 685.755 62.0975 684.943 Q58.8737 684.109 56.98 684.109 Z" fill="#000000" fill-rule="evenodd" fill-opacity="1" /><polyline clip-path="url(#clip842)" style="stroke:#009af9; stroke-linecap:butt; stroke-linejoin:round; stroke-width:4; stroke-opacity:1; fill:none" points="
  260.985,1339.18 263.018,1147.8 265.051,1006.9 267.084,898.83 269.117,813.314 271.15,743.958 273.182,686.577 275.215,638.316 277.248,597.161 279.281,561.65 
  281.314,530.697 283.347,503.477 285.38,479.353 287.413,457.825 289.445,438.496 291.478,421.045 293.511,405.211 295.544,390.779 297.577,377.571 299.61,365.438 
  301.643,354.253 303.676,343.91 305.709,334.317 307.741,325.395 309.774,317.076 311.807,309.301 313.84,302.019 315.873,295.183 317.906,288.755 319.939,282.698 
  321.972,276.982 324.004,271.578 326.037,266.462 328.07,261.611 330.103,257.005 332.136,252.626 334.169,248.458 336.202,244.486 338.235,240.695 340.267,237.075 
  342.3,233.614 344.333,230.301 346.366,227.128 348.399,224.085 350.432,221.165 352.465,218.36 354.498,215.664 356.53,213.071 358.563,210.574 360.596,208.169 
  362.629,205.85 364.662,203.614 366.695,201.455 368.728,199.37 370.761,197.354 372.793,195.406 374.826,193.52 376.859,191.695 378.892,189.927 380.925,188.214 
  382.958,186.554 384.991,184.943 387.024,183.379 389.057,181.862 391.089,180.388 393.122,178.956 395.155,177.563 397.188,176.209 399.221,174.892 401.254,173.611 
  403.287,172.363 405.32,171.148 407.352,169.964 409.385,168.81 411.418,167.685 413.451,166.588 415.484,165.518 417.517,164.474 419.55,163.455 421.583,162.46 
  423.615,161.488 425.648,160.539 427.681,159.611 429.714,158.705 431.747,157.818 433.78,156.951 435.813,156.104 437.846,155.274 439.878,154.462 441.911,153.667 
  443.944,152.889 445.977,152.127 448.01,151.381 450.043,150.65 452.076,149.933 454.109,149.231 456.141,148.542 458.174,147.867 460.207,147.205 462.24,146.556 
  464.273,145.919 466.306,145.294 468.339,144.68 470.372,144.078 472.405,143.487 474.437,142.907 476.47,142.337 478.503,141.777 480.536,141.227 482.569,140.686 
  484.602,140.155 486.635,139.633 488.668,139.12 490.7,138.615 492.733,138.119 494.766,137.631 496.799,137.152 498.832,136.68 500.865,136.215 502.898,135.758 
  504.931,135.309 506.963,134.866 508.996,134.431 511.029,134.002 513.062,133.58 515.095,133.164 517.128,132.755 519.161,132.351 521.194,131.954 523.226,131.563 
  525.259,131.177 527.292,130.798 529.325,130.423 531.358,130.054 533.391,129.691 535.424,129.332 537.457,128.979 539.49,128.63 541.522,128.287 543.555,127.948 
  545.588,127.614 547.621,127.284 549.654,126.959 551.687,126.638 553.72,126.322 555.753,126.009 557.785,125.701 559.818,125.397 561.851,125.097 563.884,124.801 
  565.917,124.508 567.95,124.219 569.983,123.934 572.016,123.653 574.048,123.375 576.081,123.1 578.114,122.829 580.147,122.561 582.18,122.297 584.213,122.036 
  586.246,121.778 588.279,121.523 590.311,121.271 592.344,121.022 594.377,120.776 596.41,120.532 598.443,120.292 600.476,120.055 602.509,119.82 604.542,119.588 
  606.574,119.358 608.607,119.131 610.64,118.907 612.673,118.685 614.706,118.466 616.739,118.249 618.772,118.034 620.805,117.822 622.838,117.612 624.87,117.405 
  626.903,117.199 628.936,116.996 630.969,116.795 633.002,116.596 635.035,116.4 637.068,116.205 639.101,116.012 641.133,115.822 643.166,115.633 645.199,115.446 
  647.232,115.261 649.265,115.078 651.298,114.897 653.331,114.718 655.364,114.541 657.396,114.365 659.429,114.191 661.462,114.019 663.495,113.848 665.528,113.679 
  667.561,113.512 669.594,113.346 671.627,113.182 673.659,113.02 675.692,112.859 677.725,112.699 679.758,112.542 681.791,112.385 683.824,112.23 685.857,112.077 
  687.89,111.925 689.922,111.774 691.955,111.625 693.988,111.477 696.021,111.33 698.054,111.185 700.087,111.041 702.12,110.899 704.153,110.757 706.186,110.617 
  708.218,110.478 710.251,110.341 712.284,110.204 714.317,110.069 716.35,109.935 718.383,109.802 720.416,109.67 722.449,109.54 724.481,109.41 726.514,109.282 
  728.547,109.155 730.58,109.028 732.613,108.903 734.646,108.779 736.679,108.656 738.712,108.534 740.744,108.413 742.777,108.293 744.81,108.174 746.843,108.056 
  748.876,107.939 750.909,107.823 752.942,107.707 754.975,107.593 757.007,107.48 759.04,107.367 761.073,107.256 763.106,107.145 765.139,107.035 767.172,106.926 
  769.205,106.818 771.238,106.711 773.271,106.604 775.303,106.499 777.336,106.394 779.369,106.29 781.402,106.187 783.435,106.084 785.468,105.983 787.501,105.882 
  789.534,105.782 791.566,105.682 793.599,105.584 795.632,105.486 797.665,105.389 799.698,105.292 801.731,105.197 803.764,105.102 805.797,105.007 807.829,104.914 
  809.862,104.821 811.895,104.728 813.928,104.637 815.961,104.546 817.994,104.456 820.027,104.366 822.06,104.277 824.092,104.188 826.125,104.101 828.158,104.013 
  830.191,103.927 832.224,103.841 834.257,103.756 836.29,103.671 838.323,103.587 840.355,103.503 842.388,103.42 844.421,103.338 846.454,103.256 848.487,103.174 
  850.52,103.094 852.553,103.013 854.586,102.934 856.619,102.854 858.651,102.776 860.684,102.698 862.717,102.62 864.75,102.543 866.783,102.466 868.816,102.39 
  870.849,102.315 872.882,102.24 874.914,102.165 876.947,102.091 878.98,102.017 881.013,101.944 883.046,101.872 885.079,101.799 887.112,101.728 889.145,101.656 
  891.177,101.585 893.21,101.515 895.243,101.445 897.276,101.375 899.309,101.306 901.342,101.238 903.375,101.169 905.408,101.102 907.44,101.034 909.473,100.967 
  911.506,100.901 913.539,100.835 915.572,100.769 917.605,100.704 919.638,100.639 921.671,100.574 923.703,100.51 925.736,100.446 927.769,100.383 929.802,100.32 
  931.835,100.257 933.868,100.195 935.901,100.133 937.934,100.071 939.967,100.01 941.999,99.9492 944.032,99.8887 946.065,99.8286 948.098,99.7689 950.131,99.7095 
  952.164,99.6504 954.197,99.5917 956.23,99.5333 958.262,99.4752 960.295,99.4175 962.328,99.3601 964.361,99.303 966.394,99.2463 968.427,99.1898 970.46,99.1337 
  972.493,99.0779 974.525,99.0225 976.558,98.9673 978.591,98.9124 980.624,98.8579 982.657,98.8036 984.69,98.7497 986.723,98.696 988.756,98.6427 990.788,98.5896 
  992.821,98.5368 994.854,98.4843 996.887,98.4321 998.92,98.3802 1000.95,98.3286 1002.99,98.2772 1005.02,98.2261 1007.05,98.1753 1009.08,98.1248 1011.12,98.0745 
  1013.15,98.0245 1015.18,97.9748 1017.22,97.9253 1019.25,97.8761 1021.28,97.8272 1023.31,97.7785 1025.35,97.73 1027.38,97.6818 1029.41,97.6339 1031.45,97.5862 
  1033.48,97.5388 1035.51,97.4916 1037.54,97.4446 1039.58,97.3979 1041.61,97.3515 1043.64,97.3052 1045.68,97.2593 1047.71,97.2135 1049.74,97.168 1051.77,97.1227 
  1053.81,97.0776 1055.84,97.0328 1057.87,96.9882 1059.91,96.9438 1061.94,96.8996 1063.97,96.8557 1066,96.8119 1068.04,96.7684 1070.07,96.7251 1072.1,96.682 
  1074.14,96.6392 1076.17,96.5965 1078.2,96.5541 1080.24,96.5118 1082.27,96.4698 1084.3,96.428 1086.33,96.3863 1088.37,96.3449 1090.4,96.3037 1092.43,96.2627 
  1094.47,96.2218 1096.5,96.1812 1098.53,96.1408 1100.56,96.1005 1102.6,96.0605 1104.63,96.0206 1106.66,95.9809 1108.7,95.9415 1110.73,95.9022 1112.76,95.863 
  1114.79,95.8241 1116.83,95.7854 1118.86,95.7468 1120.89,95.7084 1122.93,95.6702 1124.96,95.6322 1126.99,95.5943 1129.02,95.5566 1131.06,95.5191 1133.09,95.4818 
  1135.12,95.4447 1137.16,95.4077 1139.19,95.3708 1141.22,95.3342 1143.25,95.2977 1145.29,95.2614 1147.32,95.2252 1149.35,95.1892 1151.39,95.1534 1153.42,95.1177 
  1155.45,95.0822 1157.48,95.0469 1159.52,95.0117 1161.55,94.9766 1163.58,94.9418 1165.62,94.907 1167.65,94.8725 1169.68,94.8381 1171.71,94.8038 1173.75,94.7697 
  1175.78,94.7357 1177.81,94.7019 1179.85,94.6682 1181.88,94.6347 1183.91,94.6013 1185.94,94.5681 1187.98,94.535 1190.01,94.5021 1192.04,94.4693 1194.08,94.4366 
  1196.11,94.4041 1198.14,94.3717 1200.17,94.3394 1202.21,94.3073 1204.24,94.2754 1206.27,94.2435 1208.31,94.2118 1210.34,94.1803 1212.37,94.1488 1214.41,94.1175 
  1216.44,94.0864 1218.47,94.0553 1220.5,94.0244 1222.54,93.9937 1224.57,93.963 1226.6,93.9325 1228.64,93.9021 1230.67,93.8718 1232.7,93.8417 1234.73,93.8117 
  1236.77,93.7818 1238.8,93.752 1240.83,93.7224 1242.87,93.6928 1244.9,93.6634 1246.93,93.6341 1248.96,93.605 1251,93.5759 1253.03,93.547 1255.06,93.5182 
  1257.1,93.4895 1259.13,93.4609 1261.16,93.4324 1263.19,93.4041 1265.23,93.3758 1267.26,93.3477 1269.29,93.3197 1271.33,93.2918 1273.36,93.264 1275.39,93.2363 
  1277.42,93.2087 1279.46,93.1813 1281.49,93.1539 1283.52,93.1267 1285.56,93.0995 1287.59,93.0725 1289.62,93.0455 1291.65,93.0187 1293.69,92.992 1295.72,92.9654 
  1297.75,92.9389 1299.79,92.9125 1301.82,92.8861 1303.85,92.8599 1305.88,92.8338 1307.92,92.8078 1309.95,92.7819 1311.98,92.7561 1314.02,92.7304 1316.05,92.7048 
  1318.08,92.6793 1320.11,92.6539 1322.15,92.6285 1324.18,92.6033 1326.21,92.5782 1328.25,92.5532 1330.28,92.5282 1332.31,92.5034 1334.34,92.4786 1336.38,92.454 
  1338.41,92.4294 1340.44,92.4049 1342.48,92.3805 1344.51,92.3562 1346.54,92.332 1348.58,92.3079 1350.61,92.2839 1352.64,92.2599 1354.67,92.2361 1356.71,92.2123 
  1358.74,92.1887 1360.77,92.1651 1362.81,92.1416 1364.84,92.1181 1366.87,92.0948 1368.9,92.0716 1370.94,92.0484 1372.97,92.0253 1375,92.0023 1377.04,91.9794 
  1379.07,91.9566 1381.1,91.9338 1383.13,91.9112 1385.17,91.8886 1387.2,91.8661 1389.23,91.8437 1391.27,91.8213 1393.3,91.799 1395.33,91.7769 1397.36,91.7548 
  1399.4,91.7327 1401.43,91.7108 1403.46,91.6889 1405.5,91.6671 1407.53,91.6454 1409.56,91.6237 1411.59,91.6022 1413.63,91.5807 1415.66,91.5593 1417.69,91.5379 
  1419.73,91.5166 1421.76,91.4954 1423.79,91.4743 1425.82,91.4533 1427.86,91.4323 1429.89,91.4114 1431.92,91.3906 1433.96,91.3698 1435.99,91.3491 1438.02,91.3285 
  1440.05,91.3079 1442.09,91.2875 1444.12,91.2671 1446.15,91.2467 1448.19,91.2264 1450.22,91.2062 1452.25,91.1861 1454.28,91.166 1456.32,91.146 1458.35,91.1261 
  1460.38,91.1062 1462.42,91.0864 1464.45,91.0667 1466.48,91.0471 1468.51,91.0275 1470.55,91.0079 1472.58,90.9884 1474.61,90.969 1476.65,90.9497 1478.68,90.9304 
  1480.71,90.9112 1482.75,90.8921 1484.78,90.873 1486.81,90.854 1488.84,90.835 1490.88,90.8161 1492.91,90.7973 1494.94,90.7785 1496.98,90.7598 1499.01,90.7411 
  1501.04,90.7225 1503.07,90.704 1505.11,90.6855 1507.14,90.6671 1509.17,90.6487 1511.21,90.6305 1513.24,90.6122 1515.27,90.594 1517.3,90.5759 1519.34,90.5579 
  1521.37,90.5399 1523.4,90.5219 1525.44,90.504 1527.47,90.4862 1529.5,90.4684 1531.53,90.4507 1533.57,90.433 1535.6,90.4154 1537.63,90.3979 1539.67,90.3804 
  1541.7,90.3629 1543.73,90.3456 1545.76,90.3282 1547.8,90.3109 1549.83,90.2937 1551.86,90.2766 1553.9,90.2594 1555.93,90.2424 1557.96,90.2254 1559.99,90.2084 
  1562.03,90.1915 1564.06,90.1747 1566.09,90.1579 1568.13,90.1411 1570.16,90.1244 1572.19,90.1078 1574.22,90.0912 1576.26,90.0746 1578.29,90.0581 1580.32,90.0417 
  1582.36,90.0253 1584.39,90.009 1586.42,89.9927 1588.45,89.9764 1590.49,89.9602 1592.52,89.9441 1594.55,89.928 1596.59,89.9119 1598.62,89.8959 1600.65,89.88 
  1602.68,89.8641 1604.72,89.8482 1606.75,89.8324 1608.78,89.8167 1610.82,89.801 1612.85,89.7853 1614.88,89.7697 1616.91,89.7541 1618.95,89.7386 1620.98,89.7231 
  1623.01,89.7077 1625.05,89.6923 1627.08,89.6769 1629.11,89.6616 1631.15,89.6464 1633.18,89.6312 1635.21,89.616 1637.24,89.6009 1639.28,89.5858 1641.31,89.5708 
  1643.34,89.5558 1645.38,89.5408 1647.41,89.5259 1649.44,89.5111 1651.47,89.4963 1653.51,89.4815 1655.54,89.4668 1657.57,89.4521 1659.61,89.4374 1661.64,89.4228 
  1663.67,89.4083 1665.7,89.3938 1667.74,89.3793 1669.77,89.3648 1671.8,89.3504 1673.84,89.3361 1675.87,89.3218 1677.9,89.3075 1679.93,89.2933 1681.97,89.2791 
  1684,89.2649 1686.03,89.2508 1688.07,89.2368 1690.1,89.2227 1692.13,89.2087 1694.16,89.1948 1696.2,89.1809 1698.23,89.167 1700.26,89.1532 1702.3,89.1394 
  1704.33,89.1256 1706.36,89.1119 1708.39,89.0982 1710.43,89.0846 1712.46,89.071 1714.49,89.0574 1716.53,89.0439 1718.56,89.0304 1720.59,89.0169 1722.62,89.0035 
  1724.66,88.9901 1726.69,88.9768 1728.72,88.9635 1730.76,88.9502 1732.79,88.937 1734.82,88.9238 1736.85,88.9106 1738.89,88.8975 1740.92,88.8844 1742.95,88.8714 
  1744.99,88.8583 1747.02,88.8454 1749.05,88.8324 1751.08,88.8195 1753.12,88.8066 1755.15,88.7938 1757.18,88.781 1759.22,88.7682 1761.25,88.7555 1763.28,88.7428 
  1765.32,88.7301 1767.35,88.7174 1769.38,88.7048 1771.41,88.6923 1773.45,88.6797 1775.48,88.6672 1777.51,88.6548 1779.55,88.6423 1781.58,88.6299 1783.61,88.6176 
  1785.64,88.6052 1787.68,88.5929 1789.71,88.5806 1791.74,88.5684 1793.78,88.5562 1795.81,88.544 1797.84,88.5319 1799.87,88.5198 1801.91,88.5077 1803.94,88.4956 
  1805.97,88.4836 1808.01,88.4716 1810.04,88.4597 1812.07,88.4477 1814.1,88.4359 1816.14,88.424 1818.17,88.4122 1820.2,88.4004 1822.24,88.3886 1824.27,88.3769 
  1826.3,88.3651 1828.33,88.3535 1830.37,88.3418 1832.4,88.3302 1834.43,88.3186 1836.47,88.307 1838.5,88.2955 1840.53,88.284 1842.56,88.2725 1844.6,88.2611 
  1846.63,88.2497 1848.66,88.2383 1850.7,88.227 1852.73,88.2156 1854.76,88.2043 1856.79,88.1931 1858.83,88.1818 1860.86,88.1706 1862.89,88.1594 1864.93,88.1483 
  1866.96,88.1371 1868.99,88.126 1871.02,88.115 1873.06,88.1039 1875.09,88.0929 1877.12,88.0819 1879.16,88.071 1881.19,88.06 1883.22,88.0491 1885.25,88.0382 
  1887.29,88.0274 1889.32,88.0166 1891.35,88.0058 1893.39,87.995 1895.42,87.9842 1897.45,87.9735 1899.49,87.9628 1901.52,87.9522 1903.55,87.9415 1905.58,87.9309 
  1907.62,87.9203 1909.65,87.9098 1911.68,87.8992 1913.72,87.8887 1915.75,87.8782 1917.78,87.8678 1919.81,87.8573 1921.85,87.8469 1923.88,87.8365 1925.91,87.8262 
  1927.95,87.8159 1929.98,87.8055 1932.01,87.7953 1934.04,87.785 1936.08,87.7748 1938.11,87.7646 1940.14,87.7544 1942.18,87.7442 1944.21,87.7341 1946.24,87.724 
  1948.27,87.7139 1950.31,87.7038 1952.34,87.6938 1954.37,87.6838 1956.41,87.6738 1958.44,87.6638 1960.47,87.6539 1962.5,87.6439 1964.54,87.634 1966.57,87.6242 
  1968.6,87.6143 1970.64,87.6045 1972.67,87.5947 1974.7,87.5849 1976.73,87.5752 1978.77,87.5654 1980.8,87.5557 1982.83,87.546 1984.87,87.5364 1986.9,87.5267 
  1988.93,87.5171 1990.96,87.5075 1993,87.4979 1995.03,87.4884 1997.06,87.4788 1999.1,87.4693 2001.13,87.4598 2003.16,87.4504 2005.19,87.4409 2007.23,87.4315 
  2009.26,87.4221 2011.29,87.4127 2013.33,87.4034 2015.36,87.394 2017.39,87.3847 2019.42,87.3754 2021.46,87.3662 2023.49,87.3569 2025.52,87.3477 2027.56,87.3385 
  2029.59,87.3293 2031.62,87.3201 2033.66,87.311 2035.69,87.3019 2037.72,87.2928 2039.75,87.2837 2041.79,87.2746 2043.82,87.2656 2045.85,87.2566 2047.89,87.2476 
  2049.92,87.2386 2051.95,87.2296 2053.98,87.2207 2056.02,87.2118 2058.05,87.2029 2060.08,87.194 2062.12,87.1851 2064.15,87.1763 2066.18,87.1675 2068.21,87.1587 
  2070.25,87.1499 2072.28,87.1411 2074.31,87.1324 2076.35,87.1237 2078.38,87.115 2080.41,87.1063 2082.44,87.0976 2084.48,87.089 2086.51,87.0803 2088.54,87.0717 
  2090.58,87.0631 2092.61,87.0546 2094.64,87.046 2096.67,87.0375 2098.71,87.029 2100.74,87.0205 2102.77,87.012 2104.81,87.0036 2106.84,86.9951 2108.87,86.9867 
  2110.9,86.9783 2112.94,86.9699 2114.97,86.9616 2117,86.9532 2119.04,86.9449 2121.07,86.9366 2123.1,86.9283 2125.13,86.92 2127.17,86.9118 2129.2,86.9035 
  2131.23,86.8953 2133.27,86.8871 2135.3,86.8789 2137.33,86.8707 2139.36,86.8626 2141.4,86.8545 2143.43,86.8464 2145.46,86.8383 2147.5,86.8302 2149.53,86.8221 
  2151.56,86.8141 2153.59,86.806 2155.63,86.798 2157.66,86.79 2159.69,86.7821 2161.73,86.7741 2163.76,86.7662 2165.79,86.7582 2167.82,86.7503 2169.86,86.7424 
  2171.89,86.7346 2173.92,86.7267 2175.96,86.7189 2177.99,86.711 2180.02,86.7032 2182.06,86.6954 2184.09,86.6876 2186.12,86.6799 2188.15,86.6721 2190.19,86.6644 
  2192.22,86.6567 2194.25,86.649 2196.29,86.6413 2198.32,86.6337 2200.35,86.626 2202.38,86.6184 2204.42,86.6108 2206.45,86.6032 2208.48,86.5956 2210.52,86.588 
  2212.55,86.5805 2214.58,86.5729 2216.61,86.5654 2218.65,86.5579 2220.68,86.5504 2222.71,86.5429 2224.75,86.5355 2226.78,86.528 2228.81,86.5206 2230.84,86.5132 
  2232.88,86.5058 2234.91,86.4984 2236.94,86.491 2238.98,86.4837 2241.01,86.4764 2243.04,86.469 2245.07,86.4617 2247.11,86.4544 2249.14,86.4471 2251.17,86.4399 
  2253.21,86.4326 2255.24,86.4254 2257.27,86.4182 2259.3,86.411 2261.34,86.4038 2263.37,86.3966 2265.4,86.3894 2267.44,86.3823 2269.47,86.3752 2271.5,86.3681 
  2273.53,86.3609 2275.57,86.3539 2277.6,86.3468 2279.63,86.3397 2281.67,86.3327 2283.7,86.3256 2285.73,86.3186 2287.76,86.3116 2289.8,86.3046 2291.83,86.2976 
  
  "/>
<polyline clip-path="url(#clip842)" style="stroke:#e26f46; stroke-linecap:butt; stroke-linejoin:round; stroke-width:4; stroke-opacity:1; fill:none" points="
  260.985,1388.08 263.018,1264.92 265.051,1187.41 267.084,1134.13 269.117,1095.27 271.15,1065.66 273.182,1042.35 275.215,1023.53 277.248,1008.01 279.281,994.996 
  281.314,983.924 283.347,974.391 285.38,966.096 287.413,958.812 289.445,952.366 291.478,946.621 293.511,941.468 295.544,936.821 297.577,932.608 299.61,928.771 
  301.643,925.262 303.676,922.041 305.709,919.073 307.741,916.331 309.774,913.788 311.807,911.425 313.84,909.222 315.873,907.165 317.906,905.238 319.939,903.431 
  321.972,901.731 324.004,900.131 326.037,898.62 328.07,897.193 330.103,895.843 332.136,894.562 334.169,893.347 336.202,892.191 338.235,891.092 340.267,890.044 
  342.3,889.045 344.333,888.091 346.366,887.179 348.399,886.306 350.432,885.47 352.465,884.668 354.498,883.899 356.53,883.16 358.563,882.451 360.596,881.768 
  362.629,881.111 364.662,880.478 366.695,879.868 368.728,879.279 370.761,878.711 372.793,878.162 374.826,877.632 376.859,877.12 378.892,876.624 380.925,876.144 
  382.958,875.679 384.991,875.229 387.024,874.792 389.057,874.369 391.089,873.958 393.122,873.559 395.155,873.172 397.188,872.796 399.221,872.43 401.254,872.074 
  403.287,871.728 405.32,871.391 407.352,871.064 409.385,870.744 411.418,870.433 413.451,870.13 415.484,869.835 417.517,869.547 419.55,869.266 421.583,868.992 
  423.615,868.724 425.648,868.463 427.681,868.208 429.714,867.959 431.747,867.715 433.78,867.477 435.813,867.245 437.846,867.017 439.878,866.795 441.911,866.577 
  443.944,866.364 445.977,866.155 448.01,865.951 450.043,865.751 452.076,865.556 454.109,865.364 456.141,865.176 458.174,864.991 460.207,864.811 462.24,864.634 
  464.273,864.46 466.306,864.29 468.339,864.123 470.372,863.959 472.405,863.798 474.437,863.64 476.47,863.485 478.503,863.333 480.536,863.183 482.569,863.036 
  484.602,862.892 486.635,862.75 488.668,862.611 490.7,862.474 492.733,862.34 494.766,862.207 496.799,862.077 498.832,861.949 500.865,861.824 502.898,861.7 
  504.931,861.578 506.963,861.458 508.996,861.34 511.029,861.224 513.062,861.11 515.095,860.998 517.128,860.887 519.161,860.778 521.194,860.671 523.226,860.565 
  525.259,860.461 527.292,860.359 529.325,860.258 531.358,860.158 533.391,860.06 535.424,859.963 537.457,859.868 539.49,859.774 541.522,859.681 543.555,859.59 
  545.588,859.5 547.621,859.411 549.654,859.324 551.687,859.237 553.72,859.152 555.753,859.068 557.785,858.985 559.818,858.903 561.851,858.822 563.884,858.743 
  565.917,858.664 567.95,858.587 569.983,858.51 572.016,858.434 574.048,858.36 576.081,858.286 578.114,858.213 580.147,858.141 582.18,858.07 584.213,858 
  586.246,857.931 588.279,857.862 590.311,857.795 592.344,857.728 594.377,857.662 596.41,857.597 598.443,857.532 600.476,857.468 602.509,857.405 604.542,857.343 
  606.574,857.282 608.607,857.221 610.64,857.161 612.673,857.101 614.706,857.043 616.739,856.985 618.772,856.927 620.805,856.87 622.838,856.814 624.87,856.759 
  626.903,856.704 628.936,856.649 630.969,856.595 633.002,856.542 635.035,856.49 637.068,856.438 639.101,856.386 641.133,856.335 643.166,856.285 645.199,856.235 
  647.232,856.185 649.265,856.136 651.298,856.088 653.331,856.04 655.364,855.993 657.396,855.946 659.429,855.899 661.462,855.853 663.495,855.808 665.528,855.762 
  667.561,855.718 669.594,855.674 671.627,855.63 673.659,855.586 675.692,855.543 677.725,855.501 679.758,855.459 681.791,855.417 683.824,855.376 685.857,855.335 
  687.89,855.294 689.922,855.254 691.955,855.214 693.988,855.175 696.021,855.136 698.054,855.097 700.087,855.059 702.12,855.021 704.153,854.983 706.186,854.946 
  708.218,854.909 710.251,854.872 712.284,854.836 714.317,854.8 716.35,854.764 718.383,854.728 720.416,854.693 722.449,854.659 724.481,854.624 726.514,854.59 
  728.547,854.556 730.58,854.522 732.613,854.489 734.646,854.456 736.679,854.423 738.712,854.391 740.744,854.359 742.777,854.327 744.81,854.295 746.843,854.263 
  748.876,854.232 750.909,854.201 752.942,854.171 754.975,854.14 757.007,854.11 759.04,854.08 761.073,854.051 763.106,854.021 765.139,853.992 767.172,853.963 
  769.205,853.934 771.238,853.906 773.271,853.877 775.303,853.849 777.336,853.821 779.369,853.794 781.402,853.766 783.435,853.739 785.468,853.712 787.501,853.685 
  789.534,853.659 791.566,853.632 793.599,853.606 795.632,853.58 797.665,853.554 799.698,853.529 801.731,853.503 803.764,853.478 805.797,853.453 807.829,853.428 
  809.862,853.403 811.895,853.379 813.928,853.355 815.961,853.33 817.994,853.306 820.027,853.283 822.06,853.259 824.092,853.236 826.125,853.212 828.158,853.189 
  830.191,853.166 832.224,853.143 834.257,853.121 836.29,853.098 838.323,853.076 840.355,853.054 842.388,853.032 844.421,853.01 846.454,852.988 848.487,852.966 
  850.52,852.945 852.553,852.924 854.586,852.903 856.619,852.882 858.651,852.861 860.684,852.84 862.717,852.819 864.75,852.799 866.783,852.779 868.816,852.759 
  870.849,852.738 872.882,852.719 874.914,852.699 876.947,852.679 878.98,852.66 881.013,852.64 883.046,852.621 885.079,852.602 887.112,852.583 889.145,852.564 
  891.177,852.545 893.21,852.526 895.243,852.508 897.276,852.49 899.309,852.471 901.342,852.453 903.375,852.435 905.408,852.417 907.44,852.399 909.473,852.381 
  911.506,852.364 913.539,852.346 915.572,852.329 917.605,852.311 919.638,852.294 921.671,852.277 923.703,852.26 925.736,852.243 927.769,852.226 929.802,852.21 
  931.835,852.193 933.868,852.177 935.901,852.16 937.934,852.144 939.967,852.128 941.999,852.112 944.032,852.096 946.065,852.08 948.098,852.064 950.131,852.048 
  952.164,852.033 954.197,852.017 956.23,852.002 958.262,851.986 960.295,851.971 962.328,851.956 964.361,851.941 966.394,851.926 968.427,851.911 970.46,851.896 
  972.493,851.881 974.525,851.866 976.558,851.852 978.591,851.837 980.624,851.823 982.657,851.809 984.69,851.794 986.723,851.78 988.756,851.766 990.788,851.752 
  992.821,851.738 994.854,851.724 996.887,851.71 998.92,851.697 1000.95,851.683 1002.99,851.669 1005.02,851.656 1007.05,851.642 1009.08,851.629 1011.12,851.616 
  1013.15,851.602 1015.18,851.589 1017.22,851.576 1019.25,851.563 1021.28,851.55 1023.31,851.537 1025.35,851.525 1027.38,851.512 1029.41,851.499 1031.45,851.487 
  1033.48,851.474 1035.51,851.462 1037.54,851.449 1039.58,851.437 1041.61,851.425 1043.64,851.412 1045.68,851.4 1047.71,851.388 1049.74,851.376 1051.77,851.364 
  1053.81,851.352 1055.84,851.34 1057.87,851.329 1059.91,851.317 1061.94,851.305 1063.97,851.293 1066,851.282 1068.04,851.27 1070.07,851.259 1072.1,851.248 
  1074.14,851.236 1076.17,851.225 1078.2,851.214 1080.24,851.203 1082.27,851.192 1084.3,851.18 1086.33,851.169 1088.37,851.159 1090.4,851.148 1092.43,851.137 
  1094.47,851.126 1096.5,851.115 1098.53,851.105 1100.56,851.094 1102.6,851.083 1104.63,851.073 1106.66,851.062 1108.7,851.052 1110.73,851.042 1112.76,851.031 
  1114.79,851.021 1116.83,851.011 1118.86,851.001 1120.89,850.99 1122.93,850.98 1124.96,850.97 1126.99,850.96 1129.02,850.95 1131.06,850.94 1133.09,850.931 
  1135.12,850.921 1137.16,850.911 1139.19,850.901 1141.22,850.892 1143.25,850.882 1145.29,850.872 1147.32,850.863 1149.35,850.853 1151.39,850.844 1153.42,850.835 
  1155.45,850.825 1157.48,850.816 1159.52,850.807 1161.55,850.797 1163.58,850.788 1165.62,850.779 1167.65,850.77 1169.68,850.761 1171.71,850.752 1173.75,850.743 
  1175.78,850.734 1177.81,850.725 1179.85,850.716 1181.88,850.707 1183.91,850.698 1185.94,850.689 1187.98,850.681 1190.01,850.672 1192.04,850.663 1194.08,850.655 
  1196.11,850.646 1198.14,850.638 1200.17,850.629 1202.21,850.621 1204.24,850.612 1206.27,850.604 1208.31,850.595 1210.34,850.587 1212.37,850.579 1214.41,850.571 
  1216.44,850.562 1218.47,850.554 1220.5,850.546 1222.54,850.538 1224.57,850.53 1226.6,850.522 1228.64,850.514 1230.67,850.506 1232.7,850.498 1234.73,850.49 
  1236.77,850.482 1238.8,850.474 1240.83,850.466 1242.87,850.459 1244.9,850.451 1246.93,850.443 1248.96,850.435 1251,850.428 1253.03,850.42 1255.06,850.413 
  1257.1,850.405 1259.13,850.397 1261.16,850.39 1263.19,850.382 1265.23,850.375 1267.26,850.368 1269.29,850.36 1271.33,850.353 1273.36,850.345 1275.39,850.338 
  1277.42,850.331 1279.46,850.324 1281.49,850.316 1283.52,850.309 1285.56,850.302 1287.59,850.295 1289.62,850.288 1291.65,850.281 1293.69,850.274 1295.72,850.267 
  1297.75,850.26 1299.79,850.253 1301.82,850.246 1303.85,850.239 1305.88,850.232 1307.92,850.225 1309.95,850.218 1311.98,850.212 1314.02,850.205 1316.05,850.198 
  1318.08,850.191 1320.11,850.185 1322.15,850.178 1324.18,850.171 1326.21,850.165 1328.25,850.158 1330.28,850.152 1332.31,850.145 1334.34,850.138 1336.38,850.132 
  1338.41,850.126 1340.44,850.119 1342.48,850.113 1344.51,850.106 1346.54,850.1 1348.58,850.093 1350.61,850.087 1352.64,850.081 1354.67,850.075 1356.71,850.068 
  1358.74,850.062 1360.77,850.056 1362.81,850.05 1364.84,850.043 1366.87,850.037 1368.9,850.031 1370.94,850.025 1372.97,850.019 1375,850.013 1377.04,850.007 
  1379.07,850.001 1381.1,849.995 1383.13,849.989 1385.17,849.983 1387.2,849.977 1389.23,849.971 1391.27,849.965 1393.3,849.959 1395.33,849.954 1397.36,849.948 
  1399.4,849.942 1401.43,849.936 1403.46,849.93 1405.5,849.925 1407.53,849.919 1409.56,849.913 1411.59,849.908 1413.63,849.902 1415.66,849.896 1417.69,849.891 
  1419.73,849.885 1421.76,849.879 1423.79,849.874 1425.82,849.868 1427.86,849.863 1429.89,849.857 1431.92,849.852 1433.96,849.846 1435.99,849.841 1438.02,849.836 
  1440.05,849.83 1442.09,849.825 1444.12,849.819 1446.15,849.814 1448.19,849.809 1450.22,849.803 1452.25,849.798 1454.28,849.793 1456.32,849.787 1458.35,849.782 
  1460.38,849.777 1462.42,849.772 1464.45,849.767 1466.48,849.761 1468.51,849.756 1470.55,849.751 1472.58,849.746 1474.61,849.741 1476.65,849.736 1478.68,849.731 
  1480.71,849.726 1482.75,849.721 1484.78,849.716 1486.81,849.711 1488.84,849.706 1490.88,849.701 1492.91,849.696 1494.94,849.691 1496.98,849.686 1499.01,849.681 
  1501.04,849.676 1503.07,849.671 1505.11,849.666 1507.14,849.661 1509.17,849.657 1511.21,849.652 1513.24,849.647 1515.27,849.642 1517.3,849.637 1519.34,849.633 
  1521.37,849.628 1523.4,849.623 1525.44,849.618 1527.47,849.614 1529.5,849.609 1531.53,849.604 1533.57,849.6 1535.6,849.595 1537.63,849.591 1539.67,849.586 
  1541.7,849.581 1543.73,849.577 1545.76,849.572 1547.8,849.568 1549.83,849.563 1551.86,849.559 1553.9,849.554 1555.93,849.55 1557.96,849.545 1559.99,849.541 
  1562.03,849.536 1564.06,849.532 1566.09,849.527 1568.13,849.523 1570.16,849.519 1572.19,849.514 1574.22,849.51 1576.26,849.505 1578.29,849.501 1580.32,849.497 
  1582.36,849.492 1584.39,849.488 1586.42,849.484 1588.45,849.48 1590.49,849.475 1592.52,849.471 1594.55,849.467 1596.59,849.463 1598.62,849.458 1600.65,849.454 
  1602.68,849.45 1604.72,849.446 1606.75,849.442 1608.78,849.438 1610.82,849.433 1612.85,849.429 1614.88,849.425 1616.91,849.421 1618.95,849.417 1620.98,849.413 
  1623.01,849.409 1625.05,849.405 1627.08,849.401 1629.11,849.397 1631.15,849.393 1633.18,849.389 1635.21,849.385 1637.24,849.381 1639.28,849.377 1641.31,849.373 
  1643.34,849.369 1645.38,849.365 1647.41,849.361 1649.44,849.357 1651.47,849.353 1653.51,849.349 1655.54,849.346 1657.57,849.342 1659.61,849.338 1661.64,849.334 
  1663.67,849.33 1665.7,849.326 1667.74,849.323 1669.77,849.319 1671.8,849.315 1673.84,849.311 1675.87,849.307 1677.9,849.304 1679.93,849.3 1681.97,849.296 
  1684,849.292 1686.03,849.289 1688.07,849.285 1690.1,849.281 1692.13,849.278 1694.16,849.274 1696.2,849.27 1698.23,849.267 1700.26,849.263 1702.3,849.259 
  1704.33,849.256 1706.36,849.252 1708.39,849.249 1710.43,849.245 1712.46,849.241 1714.49,849.238 1716.53,849.234 1718.56,849.231 1720.59,849.227 1722.62,849.224 
  1724.66,849.22 1726.69,849.217 1728.72,849.213 1730.76,849.21 1732.79,849.206 1734.82,849.203 1736.85,849.199 1738.89,849.196 1740.92,849.192 1742.95,849.189 
  1744.99,849.186 1747.02,849.182 1749.05,849.179 1751.08,849.175 1753.12,849.172 1755.15,849.169 1757.18,849.165 1759.22,849.162 1761.25,849.158 1763.28,849.155 
  1765.32,849.152 1767.35,849.148 1769.38,849.145 1771.41,849.142 1773.45,849.139 1775.48,849.135 1777.51,849.132 1779.55,849.129 1781.58,849.125 1783.61,849.122 
  1785.64,849.119 1787.68,849.116 1789.71,849.113 1791.74,849.109 1793.78,849.106 1795.81,849.103 1797.84,849.1 1799.87,849.097 1801.91,849.093 1803.94,849.09 
  1805.97,849.087 1808.01,849.084 1810.04,849.081 1812.07,849.078 1814.1,849.074 1816.14,849.071 1818.17,849.068 1820.2,849.065 1822.24,849.062 1824.27,849.059 
  1826.3,849.056 1828.33,849.053 1830.37,849.05 1832.4,849.047 1834.43,849.044 1836.47,849.041 1838.5,849.038 1840.53,849.035 1842.56,849.032 1844.6,849.029 
  1846.63,849.026 1848.66,849.023 1850.7,849.02 1852.73,849.017 1854.76,849.014 1856.79,849.011 1858.83,849.008 1860.86,849.005 1862.89,849.002 1864.93,848.999 
  1866.96,848.996 1868.99,848.993 1871.02,848.99 1873.06,848.987 1875.09,848.984 1877.12,848.981 1879.16,848.979 1881.19,848.976 1883.22,848.973 1885.25,848.97 
  1887.29,848.967 1889.32,848.964 1891.35,848.961 1893.39,848.959 1895.42,848.956 1897.45,848.953 1899.49,848.95 1901.52,848.947 1903.55,848.945 1905.58,848.942 
  1907.62,848.939 1909.65,848.936 1911.68,848.933 1913.72,848.931 1915.75,848.928 1917.78,848.925 1919.81,848.922 1921.85,848.92 1923.88,848.917 1925.91,848.914 
  1927.95,848.912 1929.98,848.909 1932.01,848.906 1934.04,848.903 1936.08,848.901 1938.11,848.898 1940.14,848.895 1942.18,848.893 1944.21,848.89 1946.24,848.887 
  1948.27,848.885 1950.31,848.882 1952.34,848.879 1954.37,848.877 1956.41,848.874 1958.44,848.872 1960.47,848.869 1962.5,848.866 1964.54,848.864 1966.57,848.861 
  1968.6,848.859 1970.64,848.856 1972.67,848.853 1974.7,848.851 1976.73,848.848 1978.77,848.846 1980.8,848.843 1982.83,848.841 1984.87,848.838 1986.9,848.836 
  1988.93,848.833 1990.96,848.831 1993,848.828 1995.03,848.825 1997.06,848.823 1999.1,848.82 2001.13,848.818 2003.16,848.816 2005.19,848.813 2007.23,848.811 
  2009.26,848.808 2011.29,848.806 2013.33,848.803 2015.36,848.801 2017.39,848.798 2019.42,848.796 2021.46,848.793 2023.49,848.791 2025.52,848.789 2027.56,848.786 
  2029.59,848.784 2031.62,848.781 2033.66,848.779 2035.69,848.776 2037.72,848.774 2039.75,848.772 2041.79,848.769 2043.82,848.767 2045.85,848.765 2047.89,848.762 
  2049.92,848.76 2051.95,848.758 2053.98,848.755 2056.02,848.753 2058.05,848.75 2060.08,848.748 2062.12,848.746 2064.15,848.744 2066.18,848.741 2068.21,848.739 
  2070.25,848.737 2072.28,848.734 2074.31,848.732 2076.35,848.73 2078.38,848.727 2080.41,848.725 2082.44,848.723 2084.48,848.721 2086.51,848.718 2088.54,848.716 
  2090.58,848.714 2092.61,848.712 2094.64,848.709 2096.67,848.707 2098.71,848.705 2100.74,848.703 2102.77,848.7 2104.81,848.698 2106.84,848.696 2108.87,848.694 
  2110.9,848.692 2112.94,848.689 2114.97,848.687 2117,848.685 2119.04,848.683 2121.07,848.681 2123.1,848.678 2125.13,848.676 2127.17,848.674 2129.2,848.672 
  2131.23,848.67 2133.27,848.668 2135.3,848.665 2137.33,848.663 2139.36,848.661 2141.4,848.659 2143.43,848.657 2145.46,848.655 2147.5,848.653 2149.53,848.651 
  2151.56,848.648 2153.59,848.646 2155.63,848.644 2157.66,848.642 2159.69,848.64 2161.73,848.638 2163.76,848.636 2165.79,848.634 2167.82,848.632 2169.86,848.63 
  2171.89,848.628 2173.92,848.625 2175.96,848.623 2177.99,848.621 2180.02,848.619 2182.06,848.617 2184.09,848.615 2186.12,848.613 2188.15,848.611 2190.19,848.609 
  2192.22,848.607 2194.25,848.605 2196.29,848.603 2198.32,848.601 2200.35,848.599 2202.38,848.597 2204.42,848.595 2206.45,848.593 2208.48,848.591 2210.52,848.589 
  2212.55,848.587 2214.58,848.585 2216.61,848.583 2218.65,848.581 2220.68,848.579 2222.71,848.577 2224.75,848.575 2226.78,848.573 2228.81,848.571 2230.84,848.569 
  2232.88,848.567 2234.91,848.566 2236.94,848.564 2238.98,848.562 2241.01,848.56 2243.04,848.558 2245.07,848.556 2247.11,848.554 2249.14,848.552 2251.17,848.55 
  2253.21,848.548 2255.24,848.546 2257.27,848.544 2259.3,848.543 2261.34,848.541 2263.37,848.539 2265.4,848.537 2267.44,848.535 2269.47,848.533 2271.5,848.531 
  2273.53,848.529 2275.57,848.528 2277.6,848.526 2279.63,848.524 2281.67,848.522 2283.7,848.52 2285.73,848.518 2287.76,848.516 2289.8,848.515 2291.83,848.513 
  
  "/>
<path clip-path="url(#clip840)" d="
M1530.22 1381.14 L2281 1381.14 L2281 1225.62 L1530.22 1225.62  Z
  " fill="#ffffff" fill-rule="evenodd" fill-opacity="1"/>
<polyline clip-path="url(#clip840)" style="stroke:#000000; stroke-linecap:butt; stroke-linejoin:round; stroke-width:4; stroke-opacity:1; fill:none" points="
  1530.22,1381.14 2281,1381.14 2281,1225.62 1530.22,1225.62 1530.22,1381.14 
  "/>
<polyline clip-path="url(#clip840)" style="stroke:#009af9; stroke-linecap:butt; stroke-linejoin:round; stroke-width:4; stroke-opacity:1; fill:none" points="
  1554.14,1277.46 1697.65,1277.46 
  "/>
<path clip-path="url(#clip840)" d="M1749.44 1262.84 L1749.44 1267.77 Q1747.08 1265.57 1744.39 1264.49 Q1741.73 1263.4 1738.72 1263.4 Q1732.79 1263.4 1729.65 1267.03 Q1726.5 1270.64 1726.5 1277.49 Q1726.5 1284.32 1729.65 1287.96 Q1732.79 1291.57 1738.72 1291.57 Q1741.73 1291.57 1744.39 1290.48 Q1747.08 1289.39 1749.44 1287.19 L1749.44 1292.08 Q1746.98 1293.74 1744.23 1294.58 Q1741.5 1295.41 1738.44 1295.41 Q1730.59 1295.41 1726.08 1290.62 Q1721.57 1285.8 1721.57 1277.49 Q1721.57 1269.16 1726.08 1264.37 Q1730.59 1259.55 1738.44 1259.55 Q1741.54 1259.55 1744.28 1260.39 Q1747.03 1261.2 1749.44 1262.84 Z" fill="#000000" fill-rule="evenodd" fill-opacity="1" /><path clip-path="url(#clip840)" d="M1768.26 1281.71 Q1763.09 1281.71 1761.1 1282.89 Q1759.11 1284.07 1759.11 1286.92 Q1759.11 1289.18 1760.59 1290.53 Q1762.1 1291.85 1764.67 1291.85 Q1768.21 1291.85 1770.34 1289.35 Q1772.49 1286.82 1772.49 1282.66 L1772.49 1281.71 L1768.26 1281.71 M1776.75 1279.95 L1776.75 1294.74 L1772.49 1294.74 L1772.49 1290.8 Q1771.03 1293.17 1768.86 1294.3 Q1766.68 1295.41 1763.53 1295.41 Q1759.55 1295.41 1757.19 1293.19 Q1754.85 1290.94 1754.85 1287.19 Q1754.85 1282.82 1757.77 1280.6 Q1760.71 1278.37 1766.52 1278.37 L1772.49 1278.37 L1772.49 1277.96 Q1772.49 1275.02 1770.55 1273.42 Q1768.63 1271.8 1765.13 1271.8 Q1762.91 1271.8 1760.8 1272.33 Q1758.7 1272.87 1756.75 1273.93 L1756.75 1269.99 Q1759.09 1269.09 1761.29 1268.65 Q1763.49 1268.19 1765.57 1268.19 Q1771.2 1268.19 1773.97 1271.11 Q1776.75 1274.02 1776.75 1279.95 Z" fill="#000000" fill-rule="evenodd" fill-opacity="1" /><path clip-path="url(#clip840)" d="M1807.08 1279.09 L1807.08 1294.74 L1802.82 1294.74 L1802.82 1279.23 Q1802.82 1275.55 1801.38 1273.72 Q1799.95 1271.89 1797.08 1271.89 Q1793.63 1271.89 1791.64 1274.09 Q1789.65 1276.29 1789.65 1280.09 L1789.65 1294.74 L1785.36 1294.74 L1785.36 1268.81 L1789.65 1268.81 L1789.65 1272.84 Q1791.17 1270.5 1793.23 1269.35 Q1795.32 1268.19 1798.03 1268.19 Q1802.49 1268.19 1804.78 1270.97 Q1807.08 1273.72 1807.08 1279.09 Z" fill="#000000" fill-rule="evenodd" fill-opacity="1" /><path clip-path="url(#clip840)" d="M1825.62 1271.8 Q1822.19 1271.8 1820.2 1274.49 Q1818.21 1277.15 1818.21 1281.8 Q1818.21 1286.45 1820.18 1289.14 Q1822.17 1291.8 1825.62 1291.8 Q1829.02 1291.8 1831.01 1289.11 Q1833 1286.43 1833 1281.8 Q1833 1277.19 1831.01 1274.51 Q1829.02 1271.8 1825.62 1271.8 M1825.62 1268.19 Q1831.17 1268.19 1834.34 1271.8 Q1837.52 1275.41 1837.52 1281.8 Q1837.52 1288.17 1834.34 1291.8 Q1831.17 1295.41 1825.62 1295.41 Q1820.04 1295.41 1816.87 1291.8 Q1813.72 1288.17 1813.72 1281.8 Q1813.72 1275.41 1816.87 1271.8 Q1820.04 1268.19 1825.62 1268.19 Z" fill="#000000" fill-rule="evenodd" fill-opacity="1" /><path clip-path="url(#clip840)" d="M1866.13 1279.09 L1866.13 1294.74 L1861.87 1294.74 L1861.87 1279.23 Q1861.87 1275.55 1860.43 1273.72 Q1859 1271.89 1856.13 1271.89 Q1852.68 1271.89 1850.69 1274.09 Q1848.7 1276.29 1848.7 1280.09 L1848.7 1294.74 L1844.41 1294.74 L1844.41 1268.81 L1848.7 1268.81 L1848.7 1272.84 Q1850.22 1270.5 1852.28 1269.35 Q1854.37 1268.19 1857.08 1268.19 Q1861.54 1268.19 1863.83 1270.97 Q1866.13 1273.72 1866.13 1279.09 Z" fill="#000000" fill-rule="evenodd" fill-opacity="1" /><path clip-path="url(#clip840)" d="M1874.62 1268.81 L1878.88 1268.81 L1878.88 1294.74 L1874.62 1294.74 L1874.62 1268.81 M1874.62 1258.72 L1878.88 1258.72 L1878.88 1264.12 L1874.62 1264.12 L1874.62 1258.72 Z" fill="#000000" fill-rule="evenodd" fill-opacity="1" /><path clip-path="url(#clip840)" d="M1906.45 1269.81 L1906.45 1273.79 Q1904.64 1272.8 1902.82 1272.31 Q1901.01 1271.8 1899.16 1271.8 Q1895.02 1271.8 1892.72 1274.44 Q1890.43 1277.05 1890.43 1281.8 Q1890.43 1286.55 1892.72 1289.18 Q1895.02 1291.8 1899.16 1291.8 Q1901.01 1291.8 1902.82 1291.31 Q1904.64 1290.8 1906.45 1289.81 L1906.45 1293.74 Q1904.67 1294.58 1902.75 1294.99 Q1900.85 1295.41 1898.7 1295.41 Q1892.84 1295.41 1889.39 1291.73 Q1885.94 1288.05 1885.94 1281.8 Q1885.94 1275.46 1889.41 1271.82 Q1892.91 1268.19 1898.97 1268.19 Q1900.94 1268.19 1902.82 1268.61 Q1904.69 1269 1906.45 1269.81 Z" fill="#000000" fill-rule="evenodd" fill-opacity="1" /><path clip-path="url(#clip840)" d="M1925.64 1281.71 Q1920.48 1281.71 1918.49 1282.89 Q1916.5 1284.07 1916.5 1286.92 Q1916.5 1289.18 1917.98 1290.53 Q1919.48 1291.85 1922.05 1291.85 Q1925.59 1291.85 1927.72 1289.35 Q1929.88 1286.82 1929.88 1282.66 L1929.88 1281.71 L1925.64 1281.71 M1934.14 1279.95 L1934.14 1294.74 L1929.88 1294.74 L1929.88 1290.8 Q1928.42 1293.17 1926.24 1294.3 Q1924.07 1295.41 1920.92 1295.41 Q1916.94 1295.41 1914.58 1293.19 Q1912.24 1290.94 1912.24 1287.19 Q1912.24 1282.82 1915.15 1280.6 Q1918.09 1278.37 1923.9 1278.37 L1929.88 1278.37 L1929.88 1277.96 Q1929.88 1275.02 1927.93 1273.42 Q1926.01 1271.8 1922.52 1271.8 Q1920.29 1271.8 1918.19 1272.33 Q1916.08 1272.87 1914.14 1273.93 L1914.14 1269.99 Q1916.47 1269.09 1918.67 1268.65 Q1920.87 1268.19 1922.96 1268.19 Q1928.58 1268.19 1931.36 1271.11 Q1934.14 1274.02 1934.14 1279.95 Z" fill="#000000" fill-rule="evenodd" fill-opacity="1" /><path clip-path="url(#clip840)" d="M1942.91 1258.72 L1947.17 1258.72 L1947.17 1294.74 L1942.91 1294.74 L1942.91 1258.72 Z" fill="#000000" fill-rule="evenodd" fill-opacity="1" /><path clip-path="url(#clip840)" d="M1991.33 1273.79 Q1992.93 1270.92 1995.15 1269.55 Q1997.38 1268.19 2000.39 1268.19 Q2004.44 1268.19 2006.64 1271.04 Q2008.83 1273.86 2008.83 1279.09 L2008.83 1294.74 L2004.55 1294.74 L2004.55 1279.23 Q2004.55 1275.5 2003.23 1273.7 Q2001.91 1271.89 1999.2 1271.89 Q1995.89 1271.89 1993.97 1274.09 Q1992.05 1276.29 1992.05 1280.09 L1992.05 1294.74 L1987.77 1294.74 L1987.77 1279.23 Q1987.77 1275.48 1986.45 1273.7 Q1985.13 1271.89 1982.38 1271.89 Q1979.11 1271.89 1977.19 1274.12 Q1975.27 1276.31 1975.27 1280.09 L1975.27 1294.74 L1970.99 1294.74 L1970.99 1268.81 L1975.27 1268.81 L1975.27 1272.84 Q1976.73 1270.46 1978.76 1269.32 Q1980.8 1268.19 1983.6 1268.19 Q1986.43 1268.19 1988.39 1269.62 Q1990.39 1271.06 1991.33 1273.79 Z" fill="#000000" fill-rule="evenodd" fill-opacity="1" /><path clip-path="url(#clip840)" d="M2027.38 1271.8 Q2023.95 1271.8 2021.96 1274.49 Q2019.97 1277.15 2019.97 1281.8 Q2019.97 1286.45 2021.94 1289.14 Q2023.93 1291.8 2027.38 1291.8 Q2030.78 1291.8 2032.77 1289.11 Q2034.76 1286.43 2034.76 1281.8 Q2034.76 1277.19 2032.77 1274.51 Q2030.78 1271.8 2027.38 1271.8 M2027.38 1268.19 Q2032.93 1268.19 2036.1 1271.8 Q2039.27 1275.41 2039.27 1281.8 Q2039.27 1288.17 2036.1 1291.8 Q2032.93 1295.41 2027.38 1295.41 Q2021.8 1295.41 2018.63 1291.8 Q2015.48 1288.17 2015.48 1281.8 Q2015.48 1275.41 2018.63 1271.8 Q2021.8 1268.19 2027.38 1268.19 Z" fill="#000000" fill-rule="evenodd" fill-opacity="1" /><path clip-path="url(#clip840)" d="M2063.39 1272.75 L2063.39 1258.72 L2067.65 1258.72 L2067.65 1294.74 L2063.39 1294.74 L2063.39 1290.85 Q2062.05 1293.17 2059.99 1294.3 Q2057.95 1295.41 2055.08 1295.41 Q2050.38 1295.41 2047.42 1291.66 Q2044.48 1287.91 2044.48 1281.8 Q2044.48 1275.69 2047.42 1271.94 Q2050.38 1268.19 2055.08 1268.19 Q2057.95 1268.19 2059.99 1269.32 Q2062.05 1270.43 2063.39 1272.75 M2048.88 1281.8 Q2048.88 1286.5 2050.8 1289.18 Q2052.75 1291.85 2056.13 1291.85 Q2059.51 1291.85 2061.45 1289.18 Q2063.39 1286.5 2063.39 1281.8 Q2063.39 1277.1 2061.45 1274.44 Q2059.51 1271.75 2056.13 1271.75 Q2052.75 1271.75 2050.8 1274.44 Q2048.88 1277.1 2048.88 1281.8 Z" fill="#000000" fill-rule="evenodd" fill-opacity="1" /><path clip-path="url(#clip840)" d="M2098.6 1280.71 L2098.6 1282.8 L2079.02 1282.8 Q2079.3 1287.19 2081.66 1289.51 Q2084.04 1291.8 2088.28 1291.8 Q2090.73 1291.8 2093.02 1291.2 Q2095.34 1290.6 2097.61 1289.39 L2097.61 1293.42 Q2095.32 1294.39 2092.91 1294.9 Q2090.5 1295.41 2088.02 1295.41 Q2081.82 1295.41 2078.19 1291.8 Q2074.57 1288.19 2074.57 1282.03 Q2074.57 1275.67 2078 1271.94 Q2081.45 1268.19 2087.28 1268.19 Q2092.51 1268.19 2095.55 1271.57 Q2098.6 1274.93 2098.6 1280.71 M2094.34 1279.46 Q2094.3 1275.97 2092.38 1273.88 Q2090.48 1271.8 2087.33 1271.8 Q2083.76 1271.8 2081.61 1273.81 Q2079.48 1275.83 2079.16 1279.49 L2094.34 1279.46 Z" fill="#000000" fill-rule="evenodd" fill-opacity="1" /><path clip-path="url(#clip840)" d="M2105.59 1258.72 L2109.85 1258.72 L2109.85 1294.74 L2105.59 1294.74 L2105.59 1258.72 Z" fill="#000000" fill-rule="evenodd" fill-opacity="1" /><polyline clip-path="url(#clip840)" style="stroke:#e26f46; stroke-linecap:butt; stroke-linejoin:round; stroke-width:4; stroke-opacity:1; fill:none" points="
  1554.14,1329.3 1697.65,1329.3 
  "/>
<path clip-path="url(#clip840)" d="M1721.57 1312.02 L1728.53 1312.02 L1737.35 1335.54 L1746.22 1312.02 L1753.19 1312.02 L1753.19 1346.58 L1748.63 1346.58 L1748.63 1316.23 L1739.72 1339.94 L1735.02 1339.94 L1726.1 1316.23 L1726.1 1346.58 L1721.57 1346.58 L1721.57 1312.02 Z" fill="#000000" fill-rule="evenodd" fill-opacity="1" /><path clip-path="url(#clip840)" d="M1772.33 1323.64 Q1768.9 1323.64 1766.91 1326.33 Q1764.92 1328.99 1764.92 1333.64 Q1764.92 1338.29 1766.89 1340.98 Q1768.88 1343.64 1772.33 1343.64 Q1775.73 1343.64 1777.72 1340.95 Q1779.72 1338.27 1779.72 1333.64 Q1779.72 1329.03 1777.72 1326.35 Q1775.73 1323.64 1772.33 1323.64 M1772.33 1320.03 Q1777.89 1320.03 1781.06 1323.64 Q1784.23 1327.25 1784.23 1333.64 Q1784.23 1340.01 1781.06 1343.64 Q1777.89 1347.25 1772.33 1347.25 Q1766.75 1347.25 1763.58 1343.64 Q1760.43 1340.01 1760.43 1333.64 Q1760.43 1327.25 1763.58 1323.64 Q1766.75 1320.03 1772.33 1320.03 Z" fill="#000000" fill-rule="evenodd" fill-opacity="1" /><path clip-path="url(#clip840)" d="M1808.35 1324.59 L1808.35 1310.56 L1812.61 1310.56 L1812.61 1346.58 L1808.35 1346.58 L1808.35 1342.69 Q1807.01 1345.01 1804.95 1346.14 Q1802.91 1347.25 1800.04 1347.25 Q1795.34 1347.25 1792.38 1343.5 Q1789.44 1339.75 1789.44 1333.64 Q1789.44 1327.53 1792.38 1323.78 Q1795.34 1320.03 1800.04 1320.03 Q1802.91 1320.03 1804.95 1321.16 Q1807.01 1322.27 1808.35 1324.59 M1793.84 1333.64 Q1793.84 1338.34 1795.76 1341.02 Q1797.7 1343.69 1801.08 1343.69 Q1804.46 1343.69 1806.4 1341.02 Q1808.35 1338.34 1808.35 1333.64 Q1808.35 1328.94 1806.4 1326.28 Q1804.46 1323.59 1801.08 1323.59 Q1797.7 1323.59 1795.76 1326.28 Q1793.84 1328.94 1793.84 1333.64 Z" fill="#000000" fill-rule="evenodd" fill-opacity="1" /><path clip-path="url(#clip840)" d="M1843.56 1332.55 L1843.56 1334.64 L1823.97 1334.64 Q1824.25 1339.03 1826.61 1341.35 Q1829 1343.64 1833.23 1343.64 Q1835.69 1343.64 1837.98 1343.04 Q1840.29 1342.44 1842.56 1341.23 L1842.56 1345.26 Q1840.27 1346.23 1837.86 1346.74 Q1835.46 1347.25 1832.98 1347.25 Q1826.77 1347.25 1823.14 1343.64 Q1819.53 1340.03 1819.53 1333.87 Q1819.53 1327.51 1822.96 1323.78 Q1826.4 1320.03 1832.24 1320.03 Q1837.47 1320.03 1840.5 1323.41 Q1843.56 1326.77 1843.56 1332.55 M1839.3 1331.3 Q1839.25 1327.81 1837.33 1325.72 Q1835.43 1323.64 1832.28 1323.64 Q1828.72 1323.64 1826.57 1325.65 Q1824.44 1327.67 1824.11 1331.33 L1839.3 1331.3 Z" fill="#000000" fill-rule="evenodd" fill-opacity="1" /><path clip-path="url(#clip840)" d="M1850.55 1310.56 L1854.81 1310.56 L1854.81 1346.58 L1850.55 1346.58 L1850.55 1310.56 Z" fill="#000000" fill-rule="evenodd" fill-opacity="1" /><path clip-path="url(#clip840)" d="M1876.31 1320.65 L1880.57 1320.65 L1885.9 1340.89 L1891.2 1320.65 L1896.22 1320.65 L1901.54 1340.89 L1906.84 1320.65 L1911.1 1320.65 L1904.32 1346.58 L1899.3 1346.58 L1893.72 1325.33 L1888.12 1346.58 L1883.09 1346.58 L1876.31 1320.65 Z" fill="#000000" fill-rule="evenodd" fill-opacity="1" /><path clip-path="url(#clip840)" d="M1917.56 1320.65 L1921.82 1320.65 L1921.82 1346.58 L1917.56 1346.58 L1917.56 1320.65 M1917.56 1310.56 L1921.82 1310.56 L1921.82 1315.96 L1917.56 1315.96 L1917.56 1310.56 Z" fill="#000000" fill-rule="evenodd" fill-opacity="1" /><path clip-path="url(#clip840)" d="M1934.95 1313.29 L1934.95 1320.65 L1943.72 1320.65 L1943.72 1323.96 L1934.95 1323.96 L1934.95 1338.04 Q1934.95 1341.21 1935.8 1342.11 Q1936.68 1343.02 1939.34 1343.02 L1943.72 1343.02 L1943.72 1346.58 L1939.34 1346.58 Q1934.41 1346.58 1932.54 1344.75 Q1930.66 1342.9 1930.66 1338.04 L1930.66 1323.96 L1927.54 1323.96 L1927.54 1320.65 L1930.66 1320.65 L1930.66 1313.29 L1934.95 1313.29 Z" fill="#000000" fill-rule="evenodd" fill-opacity="1" /><path clip-path="url(#clip840)" d="M1970.87 1330.93 L1970.87 1346.58 L1966.61 1346.58 L1966.61 1331.07 Q1966.61 1327.39 1965.18 1325.56 Q1963.74 1323.73 1960.87 1323.73 Q1957.42 1323.73 1955.43 1325.93 Q1953.44 1328.13 1953.44 1331.93 L1953.44 1346.58 L1949.16 1346.58 L1949.16 1310.56 L1953.44 1310.56 L1953.44 1324.68 Q1954.97 1322.34 1957.03 1321.19 Q1959.11 1320.03 1961.82 1320.03 Q1966.29 1320.03 1968.58 1322.81 Q1970.87 1325.56 1970.87 1330.93 Z" fill="#000000" fill-rule="evenodd" fill-opacity="1" /><path clip-path="url(#clip840)" d="M2009.46 1324.64 Q2008.74 1324.22 2007.89 1324.03 Q2007.05 1323.83 2006.03 1323.83 Q2002.42 1323.83 2000.48 1326.19 Q1998.56 1328.52 1998.56 1332.92 L1998.56 1346.58 L1994.27 1346.58 L1994.27 1320.65 L1998.56 1320.65 L1998.56 1324.68 Q1999.9 1322.32 2002.05 1321.19 Q2004.2 1320.03 2007.28 1320.03 Q2007.72 1320.03 2008.26 1320.1 Q2008.79 1320.14 2009.44 1320.26 L2009.46 1324.64 Z" fill="#000000" fill-rule="evenodd" fill-opacity="1" /><path clip-path="url(#clip840)" d="M2013.93 1320.65 L2018.19 1320.65 L2018.19 1346.58 L2013.93 1346.58 L2013.93 1320.65 M2013.93 1310.56 L2018.19 1310.56 L2018.19 1315.96 L2013.93 1315.96 L2013.93 1310.56 Z" fill="#000000" fill-rule="evenodd" fill-opacity="1" /><path clip-path="url(#clip840)" d="M2045.71 1333.64 Q2045.71 1328.94 2043.76 1326.28 Q2041.84 1323.59 2038.46 1323.59 Q2035.08 1323.59 2033.14 1326.28 Q2031.22 1328.94 2031.22 1333.64 Q2031.22 1338.34 2033.14 1341.02 Q2035.08 1343.69 2038.46 1343.69 Q2041.84 1343.69 2043.76 1341.02 Q2045.71 1338.34 2045.71 1333.64 M2031.22 1324.59 Q2032.56 1322.27 2034.6 1321.16 Q2036.66 1320.03 2039.51 1320.03 Q2044.23 1320.03 2047.17 1323.78 Q2050.13 1327.53 2050.13 1333.64 Q2050.13 1339.75 2047.17 1343.5 Q2044.23 1347.25 2039.51 1347.25 Q2036.66 1347.25 2034.6 1346.14 Q2032.56 1345.01 2031.22 1342.69 L2031.22 1346.58 L2026.94 1346.58 L2026.94 1310.56 L2031.22 1310.56 L2031.22 1324.59 Z" fill="#000000" fill-rule="evenodd" fill-opacity="1" /><path clip-path="url(#clip840)" d="M2067.24 1323.64 Q2063.81 1323.64 2061.82 1326.33 Q2059.83 1328.99 2059.83 1333.64 Q2059.83 1338.29 2061.8 1340.98 Q2063.79 1343.64 2067.24 1343.64 Q2070.64 1343.64 2072.63 1340.95 Q2074.62 1338.27 2074.62 1333.64 Q2074.62 1329.03 2072.63 1326.35 Q2070.64 1323.64 2067.24 1323.64 M2067.24 1320.03 Q2072.79 1320.03 2075.96 1323.64 Q2079.13 1327.25 2079.13 1333.64 Q2079.13 1340.01 2075.96 1343.64 Q2072.79 1347.25 2067.24 1347.25 Q2061.66 1347.25 2058.49 1343.64 Q2055.34 1340.01 2055.34 1333.64 Q2055.34 1327.25 2058.49 1323.64 Q2061.66 1320.03 2067.24 1320.03 Z" fill="#000000" fill-rule="evenodd" fill-opacity="1" /><path clip-path="url(#clip840)" d="M2102.72 1321.42 L2102.72 1325.45 Q2100.92 1324.52 2098.97 1324.06 Q2097.03 1323.59 2094.94 1323.59 Q2091.77 1323.59 2090.18 1324.57 Q2088.6 1325.54 2088.6 1327.48 Q2088.6 1328.96 2089.74 1329.82 Q2090.87 1330.65 2094.3 1331.42 L2095.76 1331.74 Q2100.29 1332.71 2102.19 1334.5 Q2104.11 1336.26 2104.11 1339.43 Q2104.11 1343.04 2101.24 1345.14 Q2098.39 1347.25 2093.39 1347.25 Q2091.31 1347.25 2089.04 1346.83 Q2086.8 1346.44 2084.3 1345.63 L2084.3 1341.23 Q2086.66 1342.46 2088.95 1343.08 Q2091.24 1343.69 2093.49 1343.69 Q2096.5 1343.69 2098.12 1342.67 Q2099.74 1341.63 2099.74 1339.75 Q2099.74 1338.02 2098.56 1337.09 Q2097.4 1336.16 2093.44 1335.31 L2091.96 1334.96 Q2088 1334.13 2086.24 1332.41 Q2084.48 1330.68 2084.48 1327.67 Q2084.48 1324.01 2087.07 1322.02 Q2089.67 1320.03 2094.44 1320.03 Q2096.8 1320.03 2098.88 1320.38 Q2100.96 1320.72 2102.72 1321.42 Z" fill="#000000" fill-rule="evenodd" fill-opacity="1" /><path clip-path="url(#clip840)" d="M2120.94 1323.64 Q2117.51 1323.64 2115.52 1326.33 Q2113.53 1328.99 2113.53 1333.64 Q2113.53 1338.29 2115.5 1340.98 Q2117.49 1343.64 2120.94 1343.64 Q2124.34 1343.64 2126.33 1340.95 Q2128.32 1338.27 2128.32 1333.64 Q2128.32 1329.03 2126.33 1326.35 Q2124.34 1323.64 2120.94 1323.64 M2120.94 1320.03 Q2126.5 1320.03 2129.67 1323.64 Q2132.84 1327.25 2132.84 1333.64 Q2132.84 1340.01 2129.67 1343.64 Q2126.5 1347.25 2120.94 1347.25 Q2115.36 1347.25 2112.19 1343.64 Q2109.04 1340.01 2109.04 1333.64 Q2109.04 1327.25 2112.19 1323.64 Q2115.36 1320.03 2120.94 1320.03 Z" fill="#000000" fill-rule="evenodd" fill-opacity="1" /><path clip-path="url(#clip840)" d="M2160.08 1325.63 Q2161.68 1322.76 2163.9 1321.39 Q2166.13 1320.03 2169.13 1320.03 Q2173.19 1320.03 2175.38 1322.88 Q2177.58 1325.7 2177.58 1330.93 L2177.58 1346.58 L2173.3 1346.58 L2173.3 1331.07 Q2173.3 1327.34 2171.98 1325.54 Q2170.66 1323.73 2167.95 1323.73 Q2164.64 1323.73 2162.72 1325.93 Q2160.8 1328.13 2160.8 1331.93 L2160.8 1346.58 L2156.52 1346.58 L2156.52 1331.07 Q2156.52 1327.32 2155.2 1325.54 Q2153.88 1323.73 2151.13 1323.73 Q2147.86 1323.73 2145.94 1325.96 Q2144.02 1328.15 2144.02 1331.93 L2144.02 1346.58 L2139.74 1346.58 L2139.74 1320.65 L2144.02 1320.65 L2144.02 1324.68 Q2145.48 1322.3 2147.51 1321.16 Q2149.55 1320.03 2152.35 1320.03 Q2155.18 1320.03 2157.14 1321.46 Q2159.13 1322.9 2160.08 1325.63 Z" fill="#000000" fill-rule="evenodd" fill-opacity="1" /><path clip-path="url(#clip840)" d="M2208.25 1332.55 L2208.25 1334.64 L2188.67 1334.64 Q2188.95 1339.03 2191.31 1341.35 Q2193.69 1343.64 2197.93 1343.64 Q2200.38 1343.64 2202.68 1343.04 Q2204.99 1342.44 2207.26 1341.23 L2207.26 1345.26 Q2204.97 1346.23 2202.56 1346.74 Q2200.15 1347.25 2197.68 1347.25 Q2191.47 1347.25 2187.84 1343.64 Q2184.23 1340.03 2184.23 1333.87 Q2184.23 1327.51 2187.65 1323.78 Q2191.1 1320.03 2196.94 1320.03 Q2202.17 1320.03 2205.2 1323.41 Q2208.25 1326.77 2208.25 1332.55 M2204 1331.3 Q2203.95 1327.81 2202.03 1325.72 Q2200.13 1323.64 2196.98 1323.64 Q2193.42 1323.64 2191.26 1325.65 Q2189.13 1327.67 2188.81 1331.33 L2204 1331.3 Z" fill="#000000" fill-rule="evenodd" fill-opacity="1" /><path clip-path="url(#clip840)" d="M2231.77 1321.42 L2231.77 1325.45 Q2229.97 1324.52 2228.02 1324.06 Q2226.08 1323.59 2224 1323.59 Q2220.82 1323.59 2219.23 1324.57 Q2217.65 1325.54 2217.65 1327.48 Q2217.65 1328.96 2218.79 1329.82 Q2219.92 1330.65 2223.35 1331.42 L2224.81 1331.74 Q2229.34 1332.71 2231.24 1334.5 Q2233.16 1336.26 2233.16 1339.43 Q2233.16 1343.04 2230.29 1345.14 Q2227.44 1347.25 2222.44 1347.25 Q2220.36 1347.25 2218.09 1346.83 Q2215.85 1346.44 2213.35 1345.63 L2213.35 1341.23 Q2215.71 1342.46 2218 1343.08 Q2220.29 1343.69 2222.54 1343.69 Q2225.55 1343.69 2227.17 1342.67 Q2228.79 1341.63 2228.79 1339.75 Q2228.79 1338.02 2227.61 1337.09 Q2226.45 1336.16 2222.49 1335.31 L2221.01 1334.96 Q2217.05 1334.13 2215.29 1332.41 Q2213.53 1330.68 2213.53 1327.67 Q2213.53 1324.01 2216.12 1322.02 Q2218.72 1320.03 2223.49 1320.03 Q2225.85 1320.03 2227.93 1320.38 Q2230.01 1320.72 2231.77 1321.42 Z" fill="#000000" fill-rule="evenodd" fill-opacity="1" /></svg>
