<?xml version="1.0" encoding="utf-8"?>
<svg xmlns="http://www.w3.org/2000/svg" xmlns:xlink="http://www.w3.org/1999/xlink" width="600" height="400" viewBox="0 0 2400 1600">
<defs>
  <clipPath id="clip340">
    <rect x="0" y="0" width="2400" height="1600"/>
  </clipPath>
</defs>
<path clip-path="url(#clip340)" d="
M0 1600 L2400 1600 L2400 0 L0 0  Z
  " fill="#ffffff" fill-rule="evenodd" fill-opacity="1"/>
<defs>
  <clipPath id="clip341">
    <rect x="480" y="0" width="1681" height="1600"/>
  </clipPath>
</defs>
<path clip-path="url(#clip340)" d="
M276.274 1474.16 L2352.76 1474.16 L2352.76 47.2441 L276.274 47.2441  Z
  " fill="#ffffff" fill-rule="evenodd" fill-opacity="1"/>
<defs>
  <clipPath id="clip342">
    <rect x="276" y="47" width="2077" height="1428"/>
  </clipPath>
</defs>
<polyline clip-path="url(#clip342)" style="stroke:#000000; stroke-linecap:butt; stroke-linejoin:round; stroke-width:2; stroke-opacity:0.1; fill:none" points="
  571.693,1474.16 571.693,47.2441 
  "/>
<polyline clip-path="url(#clip342)" style="stroke:#000000; stroke-linecap:butt; stroke-linejoin:round; stroke-width:2; stroke-opacity:0.1; fill:none" points="
  900.375,1474.16 900.375,47.2441 
  "/>
<polyline clip-path="url(#clip342)" style="stroke:#000000; stroke-linecap:butt; stroke-linejoin:round; stroke-width:2; stroke-opacity:0.1; fill:none" points="
  1229.06,1474.16 1229.06,47.2441 
  "/>
<polyline clip-path="url(#clip342)" style="stroke:#000000; stroke-linecap:butt; stroke-linejoin:round; stroke-width:2; stroke-opacity:0.1; fill:none" points="
  1557.74,1474.16 1557.74,47.2441 
  "/>
<polyline clip-path="url(#clip342)" style="stroke:#000000; stroke-linecap:butt; stroke-linejoin:round; stroke-width:2; stroke-opacity:0.1; fill:none" points="
  1886.42,1474.16 1886.42,47.2441 
  "/>
<polyline clip-path="url(#clip342)" style="stroke:#000000; stroke-linecap:butt; stroke-linejoin:round; stroke-width:2; stroke-opacity:0.1; fill:none" points="
  2215.1,1474.16 2215.1,47.2441 
  "/>
<polyline clip-path="url(#clip340)" style="stroke:#000000; stroke-linecap:butt; stroke-linejoin:round; stroke-width:4; stroke-opacity:1; fill:none" points="
  276.274,1474.16 2352.76,1474.16 
  "/>
<polyline clip-path="url(#clip340)" style="stroke:#000000; stroke-linecap:butt; stroke-linejoin:round; stroke-width:4; stroke-opacity:1; fill:none" points="
  571.693,1474.16 571.693,1455.27 
  "/>
<polyline clip-path="url(#clip340)" style="stroke:#000000; stroke-linecap:butt; stroke-linejoin:round; stroke-width:4; stroke-opacity:1; fill:none" points="
  900.375,1474.16 900.375,1455.27 
  "/>
<polyline clip-path="url(#clip340)" style="stroke:#000000; stroke-linecap:butt; stroke-linejoin:round; stroke-width:4; stroke-opacity:1; fill:none" points="
  1229.06,1474.16 1229.06,1455.27 
  "/>
<polyline clip-path="url(#clip340)" style="stroke:#000000; stroke-linecap:butt; stroke-linejoin:round; stroke-width:4; stroke-opacity:1; fill:none" points="
  1557.74,1474.16 1557.74,1455.27 
  "/>
<polyline clip-path="url(#clip340)" style="stroke:#000000; stroke-linecap:butt; stroke-linejoin:round; stroke-width:4; stroke-opacity:1; fill:none" points="
  1886.42,1474.16 1886.42,1455.27 
  "/>
<polyline clip-path="url(#clip340)" style="stroke:#000000; stroke-linecap:butt; stroke-linejoin:round; stroke-width:4; stroke-opacity:1; fill:none" points="
  2215.1,1474.16 2215.1,1455.27 
  "/>
<path clip-path="url(#clip340)" d="M478.592 1552.44 L486.231 1552.44 L486.231 1526.07 L477.92 1527.74 L477.92 1523.48 L486.184 1521.81 L490.86 1521.81 L490.86 1552.44 L498.499 1552.44 L498.499 1556.37 L478.592 1556.37 L478.592 1552.44 Z" fill="#000000" fill-rule="evenodd" fill-opacity="1" /><path clip-path="url(#clip340)" d="M507.943 1550.49 L512.828 1550.49 L512.828 1556.37 L507.943 1556.37 L507.943 1550.49 Z" fill="#000000" fill-rule="evenodd" fill-opacity="1" /><path clip-path="url(#clip340)" d="M533.013 1524.89 Q529.402 1524.89 527.573 1528.46 Q525.767 1532 525.767 1539.13 Q525.767 1546.23 527.573 1549.8 Q529.402 1553.34 533.013 1553.34 Q536.647 1553.34 538.452 1549.8 Q540.281 1546.23 540.281 1539.13 Q540.281 1532 538.452 1528.46 Q536.647 1524.89 533.013 1524.89 M533.013 1521.19 Q538.823 1521.19 541.878 1525.79 Q544.957 1530.38 544.957 1539.13 Q544.957 1547.85 541.878 1552.46 Q538.823 1557.04 533.013 1557.04 Q527.203 1557.04 524.124 1552.46 Q521.068 1547.85 521.068 1539.13 Q521.068 1530.38 524.124 1525.79 Q527.203 1521.19 533.013 1521.19 Z" fill="#000000" fill-rule="evenodd" fill-opacity="1" /><path clip-path="url(#clip340)" d="M581.346 1530.91 L570.767 1541.53 L581.346 1552.11 L578.591 1554.91 L567.966 1544.29 L557.341 1554.91 L554.61 1552.11 L565.165 1541.53 L554.61 1530.91 L557.341 1528.11 L567.966 1538.73 L578.591 1528.11 L581.346 1530.91 Z" fill="#000000" fill-rule="evenodd" fill-opacity="1" /><path clip-path="url(#clip340)" d="M593.707 1552.44 L601.346 1552.44 L601.346 1526.07 L593.036 1527.74 L593.036 1523.48 L601.299 1521.81 L605.975 1521.81 L605.975 1552.44 L613.614 1552.44 L613.614 1556.37 L593.707 1556.37 L593.707 1552.44 Z" fill="#000000" fill-rule="evenodd" fill-opacity="1" /><path clip-path="url(#clip340)" d="M633.058 1524.89 Q629.447 1524.89 627.619 1528.46 Q625.813 1532 625.813 1539.13 Q625.813 1546.23 627.619 1549.8 Q629.447 1553.34 633.058 1553.34 Q636.693 1553.34 638.498 1549.8 Q640.327 1546.23 640.327 1539.13 Q640.327 1532 638.498 1528.46 Q636.693 1524.89 633.058 1524.89 M633.058 1521.19 Q638.869 1521.19 641.924 1525.79 Q645.003 1530.38 645.003 1539.13 Q645.003 1547.85 641.924 1552.46 Q638.869 1557.04 633.058 1557.04 Q627.248 1557.04 624.17 1552.46 Q621.114 1547.85 621.114 1539.13 Q621.114 1530.38 624.17 1525.79 Q627.248 1521.19 633.058 1521.19 Z" fill="#000000" fill-rule="evenodd" fill-opacity="1" /><path clip-path="url(#clip340)" d="M657.679 1504.19 L648.087 1519.18 L657.679 1519.18 L657.679 1504.19 M656.682 1500.88 L661.46 1500.88 L661.46 1519.18 L665.466 1519.18 L665.466 1522.34 L661.46 1522.34 L661.46 1528.96 L657.679 1528.96 L657.679 1522.34 L645.003 1522.34 L645.003 1518.67 L656.682 1500.88 Z" fill="#000000" fill-rule="evenodd" fill-opacity="1" /><path clip-path="url(#clip340)" d="M811.359 1552.44 L827.679 1552.44 L827.679 1556.37 L805.734 1556.37 L805.734 1552.44 Q808.397 1549.68 812.98 1545.05 Q817.586 1540.4 818.767 1539.06 Q821.012 1536.53 821.892 1534.8 Q822.795 1533.04 822.795 1531.35 Q822.795 1528.59 820.85 1526.86 Q818.929 1525.12 815.827 1525.12 Q813.628 1525.12 811.174 1525.89 Q808.744 1526.65 805.966 1528.2 L805.966 1523.48 Q808.79 1522.34 811.244 1521.77 Q813.697 1521.19 815.734 1521.19 Q821.105 1521.19 824.299 1523.87 Q827.494 1526.56 827.494 1531.05 Q827.494 1533.18 826.683 1535.1 Q825.896 1537 823.79 1539.59 Q823.211 1540.26 820.109 1543.48 Q817.008 1546.67 811.359 1552.44 Z" fill="#000000" fill-rule="evenodd" fill-opacity="1" /><path clip-path="url(#clip340)" d="M837.494 1550.49 L842.378 1550.49 L842.378 1556.37 L837.494 1556.37 L837.494 1550.49 Z" fill="#000000" fill-rule="evenodd" fill-opacity="1" /><path clip-path="url(#clip340)" d="M862.563 1524.89 Q858.952 1524.89 857.123 1528.46 Q855.318 1532 855.318 1539.13 Q855.318 1546.23 857.123 1549.8 Q858.952 1553.34 862.563 1553.34 Q866.197 1553.34 868.003 1549.8 Q869.831 1546.23 869.831 1539.13 Q869.831 1532 868.003 1528.46 Q866.197 1524.89 862.563 1524.89 M862.563 1521.19 Q868.373 1521.19 871.429 1525.79 Q874.507 1530.38 874.507 1539.13 Q874.507 1547.85 871.429 1552.46 Q868.373 1557.04 862.563 1557.04 Q856.753 1557.04 853.674 1552.46 Q850.619 1547.85 850.619 1539.13 Q850.619 1530.38 853.674 1525.79 Q856.753 1521.19 862.563 1521.19 Z" fill="#000000" fill-rule="evenodd" fill-opacity="1" /><path clip-path="url(#clip340)" d="M910.896 1530.91 L900.317 1541.53 L910.896 1552.11 L908.141 1554.91 L897.516 1544.29 L886.891 1554.91 L884.16 1552.11 L894.716 1541.53 L884.16 1530.91 L886.891 1528.11 L897.516 1538.73 L908.141 1528.11 L910.896 1530.91 Z" fill="#000000" fill-rule="evenodd" fill-opacity="1" /><path clip-path="url(#clip340)" d="M923.257 1552.44 L930.896 1552.44 L930.896 1526.07 L922.586 1527.74 L922.586 1523.48 L930.85 1521.81 L935.525 1521.81 L935.525 1552.44 L943.164 1552.44 L943.164 1556.37 L923.257 1556.37 L923.257 1552.44 Z" fill="#000000" fill-rule="evenodd" fill-opacity="1" /><path clip-path="url(#clip340)" d="M962.609 1524.89 Q958.998 1524.89 957.169 1528.46 Q955.363 1532 955.363 1539.13 Q955.363 1546.23 957.169 1549.8 Q958.998 1553.34 962.609 1553.34 Q966.243 1553.34 968.048 1549.8 Q969.877 1546.23 969.877 1539.13 Q969.877 1532 968.048 1528.46 Q966.243 1524.89 962.609 1524.89 M962.609 1521.19 Q968.419 1521.19 971.474 1525.79 Q974.553 1530.38 974.553 1539.13 Q974.553 1547.85 971.474 1552.46 Q968.419 1557.04 962.609 1557.04 Q956.799 1557.04 953.72 1552.46 Q950.664 1547.85 950.664 1539.13 Q950.664 1530.38 953.72 1525.79 Q956.799 1521.19 962.609 1521.19 Z" fill="#000000" fill-rule="evenodd" fill-opacity="1" /><path clip-path="url(#clip340)" d="M987.229 1504.19 L977.638 1519.18 L987.229 1519.18 L987.229 1504.19 M986.233 1500.88 L991.01 1500.88 L991.01 1519.18 L995.016 1519.18 L995.016 1522.34 L991.01 1522.34 L991.01 1528.96 L987.229 1528.96 L987.229 1522.34 L974.553 1522.34 L974.553 1518.67 L986.233 1500.88 Z" fill="#000000" fill-rule="evenodd" fill-opacity="1" /><path clip-path="url(#clip340)" d="M1150.11 1537.74 Q1153.47 1538.46 1155.34 1540.72 Q1157.24 1542.99 1157.24 1546.33 Q1157.24 1551.44 1153.72 1554.24 Q1150.2 1557.04 1143.72 1557.04 Q1141.55 1557.04 1139.23 1556.6 Q1136.94 1556.19 1134.49 1555.33 L1134.49 1550.82 Q1136.43 1551.95 1138.75 1552.53 Q1141.06 1553.11 1143.58 1553.11 Q1147.98 1553.11 1150.27 1551.37 Q1152.59 1549.64 1152.59 1546.33 Q1152.59 1543.27 1150.44 1541.56 Q1148.31 1539.82 1144.49 1539.82 L1140.46 1539.82 L1140.46 1535.98 L1144.67 1535.98 Q1148.12 1535.98 1149.95 1534.61 Q1151.78 1533.22 1151.78 1530.63 Q1151.78 1527.97 1149.88 1526.56 Q1148 1525.12 1144.49 1525.12 Q1142.56 1525.12 1140.37 1525.54 Q1138.17 1525.96 1135.53 1526.83 L1135.53 1522.67 Q1138.19 1521.93 1140.5 1521.56 Q1142.84 1521.19 1144.9 1521.19 Q1150.23 1521.19 1153.33 1523.62 Q1156.43 1526.02 1156.43 1530.15 Q1156.43 1533.02 1154.79 1535.01 Q1153.14 1536.97 1150.11 1537.74 Z" fill="#000000" fill-rule="evenodd" fill-opacity="1" /><path clip-path="url(#clip340)" d="M1166.11 1550.49 L1170.99 1550.49 L1170.99 1556.37 L1166.11 1556.37 L1166.11 1550.49 Z" fill="#000000" fill-rule="evenodd" fill-opacity="1" /><path clip-path="url(#clip340)" d="M1191.18 1524.89 Q1187.56 1524.89 1185.74 1528.46 Q1183.93 1532 1183.93 1539.13 Q1183.93 1546.23 1185.74 1549.8 Q1187.56 1553.34 1191.18 1553.34 Q1194.81 1553.34 1196.62 1549.8 Q1198.44 1546.23 1198.44 1539.13 Q1198.44 1532 1196.62 1528.46 Q1194.81 1524.89 1191.18 1524.89 M1191.18 1521.19 Q1196.99 1521.19 1200.04 1525.79 Q1203.12 1530.38 1203.12 1539.13 Q1203.12 1547.85 1200.04 1552.46 Q1196.99 1557.04 1191.18 1557.04 Q1185.37 1557.04 1182.29 1552.46 Q1179.23 1547.85 1179.23 1539.13 Q1179.23 1530.38 1182.29 1525.79 Q1185.37 1521.19 1191.18 1521.19 Z" fill="#000000" fill-rule="evenodd" fill-opacity="1" /><path clip-path="url(#clip340)" d="M1239.51 1530.91 L1228.93 1541.53 L1239.51 1552.11 L1236.75 1554.91 L1226.13 1544.29 L1215.5 1554.91 L1212.77 1552.11 L1223.33 1541.53 L1212.77 1530.91 L1215.5 1528.11 L1226.13 1538.73 L1236.75 1528.11 L1239.51 1530.91 Z" fill="#000000" fill-rule="evenodd" fill-opacity="1" /><path clip-path="url(#clip340)" d="M1251.87 1552.44 L1259.51 1552.44 L1259.51 1526.07 L1251.2 1527.74 L1251.2 1523.48 L1259.46 1521.81 L1264.14 1521.81 L1264.14 1552.44 L1271.78 1552.44 L1271.78 1556.37 L1251.87 1556.37 L1251.87 1552.44 Z" fill="#000000" fill-rule="evenodd" fill-opacity="1" /><path clip-path="url(#clip340)" d="M1291.22 1524.89 Q1287.61 1524.89 1285.78 1528.46 Q1283.98 1532 1283.98 1539.13 Q1283.98 1546.23 1285.78 1549.8 Q1287.61 1553.34 1291.22 1553.34 Q1294.86 1553.34 1296.66 1549.8 Q1298.49 1546.23 1298.49 1539.13 Q1298.49 1532 1296.66 1528.46 Q1294.86 1524.89 1291.22 1524.89 M1291.22 1521.19 Q1297.03 1521.19 1300.09 1525.79 Q1303.17 1530.38 1303.17 1539.13 Q1303.17 1547.85 1300.09 1552.46 Q1297.03 1557.04 1291.22 1557.04 Q1285.41 1557.04 1282.33 1552.46 Q1279.28 1547.85 1279.28 1539.13 Q1279.28 1530.38 1282.33 1525.79 Q1285.41 1521.19 1291.22 1521.19 Z" fill="#000000" fill-rule="evenodd" fill-opacity="1" /><path clip-path="url(#clip340)" d="M1315.84 1504.19 L1306.25 1519.18 L1315.84 1519.18 L1315.84 1504.19 M1314.85 1500.88 L1319.62 1500.88 L1319.62 1519.18 L1323.63 1519.18 L1323.63 1522.34 L1319.62 1522.34 L1319.62 1528.96 L1315.84 1528.96 L1315.84 1522.34 L1303.17 1522.34 L1303.17 1518.67 L1314.85 1500.88 Z" fill="#000000" fill-rule="evenodd" fill-opacity="1" /><path clip-path="url(#clip340)" d="M1478.12 1525.89 L1466.32 1544.33 L1478.12 1544.33 L1478.12 1525.89 M1476.9 1521.81 L1482.77 1521.81 L1482.77 1544.33 L1487.71 1544.33 L1487.71 1548.22 L1482.77 1548.22 L1482.77 1556.37 L1478.12 1556.37 L1478.12 1548.22 L1462.52 1548.22 L1462.52 1543.71 L1476.9 1521.81 Z" fill="#000000" fill-rule="evenodd" fill-opacity="1" /><path clip-path="url(#clip340)" d="M1495.44 1550.49 L1500.32 1550.49 L1500.32 1556.37 L1495.44 1556.37 L1495.44 1550.49 Z" fill="#000000" fill-rule="evenodd" fill-opacity="1" /><path clip-path="url(#clip340)" d="M1520.51 1524.89 Q1516.89 1524.89 1515.07 1528.46 Q1513.26 1532 1513.26 1539.13 Q1513.26 1546.23 1515.07 1549.8 Q1516.89 1553.34 1520.51 1553.34 Q1524.14 1553.34 1525.95 1549.8 Q1527.77 1546.23 1527.77 1539.13 Q1527.77 1532 1525.95 1528.46 Q1524.14 1524.89 1520.51 1524.89 M1520.51 1521.19 Q1526.32 1521.19 1529.37 1525.79 Q1532.45 1530.38 1532.45 1539.13 Q1532.45 1547.85 1529.37 1552.46 Q1526.32 1557.04 1520.51 1557.04 Q1514.7 1557.04 1511.62 1552.46 Q1508.56 1547.85 1508.56 1539.13 Q1508.56 1530.38 1511.62 1525.79 Q1514.7 1521.19 1520.51 1521.19 Z" fill="#000000" fill-rule="evenodd" fill-opacity="1" /><path clip-path="url(#clip340)" d="M1568.84 1530.91 L1558.26 1541.53 L1568.84 1552.11 L1566.08 1554.91 L1555.46 1544.29 L1544.83 1554.91 L1542.1 1552.11 L1552.66 1541.53 L1542.1 1530.91 L1544.83 1528.11 L1555.46 1538.73 L1566.08 1528.11 L1568.84 1530.91 Z" fill="#000000" fill-rule="evenodd" fill-opacity="1" /><path clip-path="url(#clip340)" d="M1581.2 1552.44 L1588.84 1552.44 L1588.84 1526.07 L1580.53 1527.74 L1580.53 1523.48 L1588.79 1521.81 L1593.47 1521.81 L1593.47 1552.44 L1601.11 1552.44 L1601.11 1556.37 L1581.2 1556.37 L1581.2 1552.44 Z" fill="#000000" fill-rule="evenodd" fill-opacity="1" /><path clip-path="url(#clip340)" d="M1620.55 1524.89 Q1616.94 1524.89 1615.11 1528.46 Q1613.31 1532 1613.31 1539.13 Q1613.31 1546.23 1615.11 1549.8 Q1616.94 1553.34 1620.55 1553.34 Q1624.19 1553.34 1625.99 1549.8 Q1627.82 1546.23 1627.82 1539.13 Q1627.82 1532 1625.99 1528.46 Q1624.19 1524.89 1620.55 1524.89 M1620.55 1521.19 Q1626.36 1521.19 1629.42 1525.79 Q1632.5 1530.38 1632.5 1539.13 Q1632.5 1547.85 1629.42 1552.46 Q1626.36 1557.04 1620.55 1557.04 Q1614.74 1557.04 1611.66 1552.46 Q1608.61 1547.85 1608.61 1539.13 Q1608.61 1530.38 1611.66 1525.79 Q1614.74 1521.19 1620.55 1521.19 Z" fill="#000000" fill-rule="evenodd" fill-opacity="1" /><path clip-path="url(#clip340)" d="M1645.17 1504.19 L1635.58 1519.18 L1645.17 1519.18 L1645.17 1504.19 M1644.18 1500.88 L1648.95 1500.88 L1648.95 1519.18 L1652.96 1519.18 L1652.96 1522.34 L1648.95 1522.34 L1648.95 1528.96 L1645.17 1528.96 L1645.17 1522.34 L1632.5 1522.34 L1632.5 1518.67 L1644.18 1500.88 Z" fill="#000000" fill-rule="evenodd" fill-opacity="1" /><path clip-path="url(#clip340)" d="M1793.33 1521.81 L1811.69 1521.81 L1811.69 1525.75 L1797.61 1525.75 L1797.61 1534.22 Q1798.63 1533.87 1799.65 1533.71 Q1800.67 1533.52 1801.69 1533.52 Q1807.48 1533.52 1810.85 1536.7 Q1814.23 1539.87 1814.23 1545.28 Q1814.23 1550.86 1810.76 1553.96 Q1807.29 1557.04 1800.97 1557.04 Q1798.79 1557.04 1796.53 1556.67 Q1794.28 1556.3 1791.87 1555.56 L1791.87 1550.86 Q1793.96 1552 1796.18 1552.55 Q1798.4 1553.11 1800.88 1553.11 Q1804.88 1553.11 1807.22 1551 Q1809.56 1548.9 1809.56 1545.28 Q1809.56 1541.67 1807.22 1539.57 Q1804.88 1537.46 1800.88 1537.46 Q1799 1537.46 1797.13 1537.88 Q1795.28 1538.29 1793.33 1539.17 L1793.33 1521.81 Z" fill="#000000" fill-rule="evenodd" fill-opacity="1" /><path clip-path="url(#clip340)" d="M1823.45 1550.49 L1828.33 1550.49 L1828.33 1556.37 L1823.45 1556.37 L1823.45 1550.49 Z" fill="#000000" fill-rule="evenodd" fill-opacity="1" /><path clip-path="url(#clip340)" d="M1848.52 1524.89 Q1844.91 1524.89 1843.08 1528.46 Q1841.27 1532 1841.27 1539.13 Q1841.27 1546.23 1843.08 1549.8 Q1844.91 1553.34 1848.52 1553.34 Q1852.15 1553.34 1853.96 1549.8 Q1855.79 1546.23 1855.79 1539.13 Q1855.79 1532 1853.96 1528.46 Q1852.15 1524.89 1848.52 1524.89 M1848.52 1521.19 Q1854.33 1521.19 1857.38 1525.79 Q1860.46 1530.38 1860.46 1539.13 Q1860.46 1547.85 1857.38 1552.46 Q1854.33 1557.04 1848.52 1557.04 Q1842.71 1557.04 1839.63 1552.46 Q1836.57 1547.85 1836.57 1539.13 Q1836.57 1530.38 1839.63 1525.79 Q1842.71 1521.19 1848.52 1521.19 Z" fill="#000000" fill-rule="evenodd" fill-opacity="1" /><path clip-path="url(#clip340)" d="M1896.85 1530.91 L1886.27 1541.53 L1896.85 1552.11 L1894.1 1554.91 L1883.47 1544.29 L1872.85 1554.91 L1870.11 1552.11 L1880.67 1541.53 L1870.11 1530.91 L1872.85 1528.11 L1883.47 1538.73 L1894.1 1528.11 L1896.85 1530.91 Z" fill="#000000" fill-rule="evenodd" fill-opacity="1" /><path clip-path="url(#clip340)" d="M1909.21 1552.44 L1916.85 1552.44 L1916.85 1526.07 L1908.54 1527.74 L1908.54 1523.48 L1916.8 1521.81 L1921.48 1521.81 L1921.48 1552.44 L1929.12 1552.44 L1929.12 1556.37 L1909.21 1556.37 L1909.21 1552.44 Z" fill="#000000" fill-rule="evenodd" fill-opacity="1" /><path clip-path="url(#clip340)" d="M1948.56 1524.89 Q1944.95 1524.89 1943.12 1528.46 Q1941.32 1532 1941.32 1539.13 Q1941.32 1546.23 1943.12 1549.8 Q1944.95 1553.34 1948.56 1553.34 Q1952.2 1553.34 1954 1549.8 Q1955.83 1546.23 1955.83 1539.13 Q1955.83 1532 1954 1528.46 Q1952.2 1524.89 1948.56 1524.89 M1948.56 1521.19 Q1954.37 1521.19 1957.43 1525.79 Q1960.51 1530.38 1960.51 1539.13 Q1960.51 1547.85 1957.43 1552.46 Q1954.37 1557.04 1948.56 1557.04 Q1942.75 1557.04 1939.67 1552.46 Q1936.62 1547.85 1936.62 1539.13 Q1936.62 1530.38 1939.67 1525.79 Q1942.75 1521.19 1948.56 1521.19 Z" fill="#000000" fill-rule="evenodd" fill-opacity="1" /><path clip-path="url(#clip340)" d="M1973.18 1504.19 L1963.59 1519.18 L1973.18 1519.18 L1973.18 1504.19 M1972.19 1500.88 L1976.96 1500.88 L1976.96 1519.18 L1980.97 1519.18 L1980.97 1522.34 L1976.96 1522.34 L1976.96 1528.96 L1973.18 1528.96 L1973.18 1522.34 L1960.51 1522.34 L1960.51 1518.67 L1972.19 1500.88 Z" fill="#000000" fill-rule="evenodd" fill-opacity="1" /><path clip-path="url(#clip340)" d="M2132.72 1537.23 Q2129.57 1537.23 2127.72 1539.38 Q2125.89 1541.53 2125.89 1545.28 Q2125.89 1549.01 2127.72 1551.19 Q2129.57 1553.34 2132.72 1553.34 Q2135.87 1553.34 2137.7 1551.19 Q2139.55 1549.01 2139.55 1545.28 Q2139.55 1541.53 2137.7 1539.38 Q2135.87 1537.23 2132.72 1537.23 M2142 1522.58 L2142 1526.83 Q2140.24 1526 2138.44 1525.56 Q2136.66 1525.12 2134.9 1525.12 Q2130.27 1525.12 2127.81 1528.25 Q2125.38 1531.37 2125.03 1537.69 Q2126.4 1535.68 2128.46 1534.61 Q2130.52 1533.52 2133 1533.52 Q2138.21 1533.52 2141.22 1536.7 Q2144.25 1539.84 2144.25 1545.28 Q2144.25 1550.61 2141.1 1553.83 Q2137.95 1557.04 2132.72 1557.04 Q2126.72 1557.04 2123.55 1552.46 Q2120.38 1547.85 2120.38 1539.13 Q2120.38 1530.93 2124.27 1526.07 Q2128.16 1521.19 2134.71 1521.19 Q2136.47 1521.19 2138.25 1521.53 Q2140.06 1521.88 2142 1522.58 Z" fill="#000000" fill-rule="evenodd" fill-opacity="1" /><path clip-path="url(#clip340)" d="M2152.3 1550.49 L2157.19 1550.49 L2157.19 1556.37 L2152.3 1556.37 L2152.3 1550.49 Z" fill="#000000" fill-rule="evenodd" fill-opacity="1" /><path clip-path="url(#clip340)" d="M2177.37 1524.89 Q2173.76 1524.89 2171.93 1528.46 Q2170.13 1532 2170.13 1539.13 Q2170.13 1546.23 2171.93 1549.8 Q2173.76 1553.34 2177.37 1553.34 Q2181.01 1553.34 2182.81 1549.8 Q2184.64 1546.23 2184.64 1539.13 Q2184.64 1532 2182.81 1528.46 Q2181.01 1524.89 2177.37 1524.89 M2177.37 1521.19 Q2183.18 1521.19 2186.24 1525.79 Q2189.32 1530.38 2189.32 1539.13 Q2189.32 1547.85 2186.24 1552.46 Q2183.18 1557.04 2177.37 1557.04 Q2171.56 1557.04 2168.48 1552.46 Q2165.43 1547.85 2165.43 1539.13 Q2165.43 1530.38 2168.48 1525.79 Q2171.56 1521.19 2177.37 1521.19 Z" fill="#000000" fill-rule="evenodd" fill-opacity="1" /><path clip-path="url(#clip340)" d="M2225.71 1530.91 L2215.13 1541.53 L2225.71 1552.11 L2222.95 1554.91 L2212.33 1544.29 L2201.7 1554.91 L2198.97 1552.11 L2209.53 1541.53 L2198.97 1530.91 L2201.7 1528.11 L2212.33 1538.73 L2222.95 1528.11 L2225.71 1530.91 Z" fill="#000000" fill-rule="evenodd" fill-opacity="1" /><path clip-path="url(#clip340)" d="M2238.07 1552.44 L2245.71 1552.44 L2245.71 1526.07 L2237.4 1527.74 L2237.4 1523.48 L2245.66 1521.81 L2250.34 1521.81 L2250.34 1552.44 L2257.97 1552.44 L2257.97 1556.37 L2238.07 1556.37 L2238.07 1552.44 Z" fill="#000000" fill-rule="evenodd" fill-opacity="1" /><path clip-path="url(#clip340)" d="M2277.42 1524.89 Q2273.81 1524.89 2271.98 1528.46 Q2270.17 1532 2270.17 1539.13 Q2270.17 1546.23 2271.98 1549.8 Q2273.81 1553.34 2277.42 1553.34 Q2281.05 1553.34 2282.86 1549.8 Q2284.69 1546.23 2284.69 1539.13 Q2284.69 1532 2282.86 1528.46 Q2281.05 1524.89 2277.42 1524.89 M2277.42 1521.19 Q2283.23 1521.19 2286.28 1525.79 Q2289.36 1530.38 2289.36 1539.13 Q2289.36 1547.85 2286.28 1552.46 Q2283.23 1557.04 2277.42 1557.04 Q2271.61 1557.04 2268.53 1552.46 Q2265.47 1547.85 2265.47 1539.13 Q2265.47 1530.38 2268.53 1525.79 Q2271.61 1521.19 2277.42 1521.19 Z" fill="#000000" fill-rule="evenodd" fill-opacity="1" /><path clip-path="url(#clip340)" d="M2302.04 1504.19 L2292.45 1519.18 L2302.04 1519.18 L2302.04 1504.19 M2301.04 1500.88 L2305.82 1500.88 L2305.82 1519.18 L2309.83 1519.18 L2309.83 1522.34 L2305.82 1522.34 L2305.82 1528.96 L2302.04 1528.96 L2302.04 1522.34 L2289.36 1522.34 L2289.36 1518.67 L2301.04 1500.88 Z" fill="#000000" fill-rule="evenodd" fill-opacity="1" /><polyline clip-path="url(#clip342)" style="stroke:#000000; stroke-linecap:butt; stroke-linejoin:round; stroke-width:2; stroke-opacity:0.1; fill:none" points="
  276.274,1433.78 2352.76,1433.78 
  "/>
<polyline clip-path="url(#clip342)" style="stroke:#000000; stroke-linecap:butt; stroke-linejoin:round; stroke-width:2; stroke-opacity:0.1; fill:none" points="
  276.274,987.562 2352.76,987.562 
  "/>
<polyline clip-path="url(#clip342)" style="stroke:#000000; stroke-linecap:butt; stroke-linejoin:round; stroke-width:2; stroke-opacity:0.1; fill:none" points="
  276.274,541.343 2352.76,541.343 
  "/>
<polyline clip-path="url(#clip342)" style="stroke:#000000; stroke-linecap:butt; stroke-linejoin:round; stroke-width:2; stroke-opacity:0.1; fill:none" points="
  276.274,95.1251 2352.76,95.1251 
  "/>
<polyline clip-path="url(#clip340)" style="stroke:#000000; stroke-linecap:butt; stroke-linejoin:round; stroke-width:4; stroke-opacity:1; fill:none" points="
  276.274,1474.16 276.274,47.2441 
  "/>
<polyline clip-path="url(#clip340)" style="stroke:#000000; stroke-linecap:butt; stroke-linejoin:round; stroke-width:4; stroke-opacity:1; fill:none" points="
  276.274,1433.78 295.171,1433.78 
  "/>
<polyline clip-path="url(#clip340)" style="stroke:#000000; stroke-linecap:butt; stroke-linejoin:round; stroke-width:4; stroke-opacity:1; fill:none" points="
  276.274,987.562 295.171,987.562 
  "/>
<polyline clip-path="url(#clip340)" style="stroke:#000000; stroke-linecap:butt; stroke-linejoin:round; stroke-width:4; stroke-opacity:1; fill:none" points="
  276.274,541.343 295.171,541.343 
  "/>
<polyline clip-path="url(#clip340)" style="stroke:#000000; stroke-linecap:butt; stroke-linejoin:round; stroke-width:4; stroke-opacity:1; fill:none" points="
  276.274,95.1251 295.171,95.1251 
  "/>
<path clip-path="url(#clip340)" d="M228.329 1419.58 Q224.718 1419.58 222.889 1423.14 Q221.084 1426.69 221.084 1433.81 Q221.084 1440.92 222.889 1444.49 Q224.718 1448.03 228.329 1448.03 Q231.963 1448.03 233.769 1444.49 Q235.598 1440.92 235.598 1433.81 Q235.598 1426.69 233.769 1423.14 Q231.963 1419.58 228.329 1419.58 M228.329 1415.88 Q234.139 1415.88 237.195 1420.48 Q240.274 1425.06 240.274 1433.81 Q240.274 1442.54 237.195 1447.15 Q234.139 1451.73 228.329 1451.73 Q222.519 1451.73 219.44 1447.15 Q216.385 1442.54 216.385 1433.81 Q216.385 1425.06 219.44 1420.48 Q222.519 1415.88 228.329 1415.88 Z" fill="#000000" fill-rule="evenodd" fill-opacity="1" /><path clip-path="url(#clip340)" d="M53.3995 1007.35 L61.0384 1007.35 L61.0384 980.989 L52.7282 982.655 L52.7282 978.396 L60.9921 976.729 L65.668 976.729 L65.668 1007.35 L73.3068 1007.35 L73.3068 1011.29 L53.3995 1011.29 L53.3995 1007.35 Z" fill="#000000" fill-rule="evenodd" fill-opacity="1" /><path clip-path="url(#clip340)" d="M82.7512 1005.41 L87.6354 1005.41 L87.6354 1011.29 L82.7512 1011.29 L82.7512 1005.41 Z" fill="#000000" fill-rule="evenodd" fill-opacity="1" /><path clip-path="url(#clip340)" d="M107.821 979.808 Q104.209 979.808 102.381 983.373 Q100.575 986.915 100.575 994.044 Q100.575 1001.15 102.381 1004.72 Q104.209 1008.26 107.821 1008.26 Q111.455 1008.26 113.26 1004.72 Q115.089 1001.15 115.089 994.044 Q115.089 986.915 113.26 983.373 Q111.455 979.808 107.821 979.808 M107.821 976.104 Q113.631 976.104 116.686 980.711 Q119.765 985.294 119.765 994.044 Q119.765 1002.77 116.686 1007.38 Q113.631 1011.96 107.821 1011.96 Q102.01 1011.96 98.9317 1007.38 Q95.8761 1002.77 95.8761 994.044 Q95.8761 985.294 98.9317 980.711 Q102.01 976.104 107.821 976.104 Z" fill="#000000" fill-rule="evenodd" fill-opacity="1" /><path clip-path="url(#clip340)" d="M156.154 985.827 L145.575 996.452 L156.154 1007.03 L153.399 1009.83 L142.774 999.206 L132.149 1009.83 L129.418 1007.03 L139.973 996.452 L129.418 985.827 L132.149 983.026 L142.774 993.651 L153.399 983.026 L156.154 985.827 Z" fill="#000000" fill-rule="evenodd" fill-opacity="1" /><path clip-path="url(#clip340)" d="M168.515 1007.35 L176.153 1007.35 L176.153 980.989 L167.843 982.655 L167.843 978.396 L176.107 976.729 L180.783 976.729 L180.783 1007.35 L188.422 1007.35 L188.422 1011.29 L168.515 1011.29 L168.515 1007.35 Z" fill="#000000" fill-rule="evenodd" fill-opacity="1" /><path clip-path="url(#clip340)" d="M207.866 979.808 Q204.255 979.808 202.426 983.373 Q200.621 986.915 200.621 994.044 Q200.621 1001.15 202.426 1004.72 Q204.255 1008.26 207.866 1008.26 Q211.501 1008.26 213.306 1004.72 Q215.135 1001.15 215.135 994.044 Q215.135 986.915 213.306 983.373 Q211.501 979.808 207.866 979.808 M207.866 976.104 Q213.676 976.104 216.732 980.711 Q219.811 985.294 219.811 994.044 Q219.811 1002.77 216.732 1007.38 Q213.676 1011.96 207.866 1011.96 Q202.056 1011.96 198.977 1007.38 Q195.922 1002.77 195.922 994.044 Q195.922 985.294 198.977 980.711 Q202.056 976.104 207.866 976.104 Z" fill="#000000" fill-rule="evenodd" fill-opacity="1" /><path clip-path="url(#clip340)" d="M232.487 959.109 L222.895 974.099 L232.487 974.099 L232.487 959.109 M231.49 955.799 L236.267 955.799 L236.267 974.099 L240.274 974.099 L240.274 977.259 L236.267 977.259 L236.267 983.879 L232.487 983.879 L232.487 977.259 L219.811 977.259 L219.811 973.591 L231.49 955.799 Z" fill="#000000" fill-rule="evenodd" fill-opacity="1" /><path clip-path="url(#clip340)" d="M56.6171 561.136 L72.9365 561.136 L72.9365 565.071 L50.9921 565.071 L50.9921 561.136 Q53.6541 558.381 58.2375 553.752 Q62.8439 549.099 64.0245 547.756 Q66.2698 545.233 67.1494 543.497 Q68.0522 541.738 68.0522 540.048 Q68.0522 537.293 66.1078 535.557 Q64.1865 533.821 61.0847 533.821 Q58.8856 533.821 56.4319 534.585 Q54.0014 535.349 51.2236 536.9 L51.2236 532.178 Q54.0477 531.043 56.5014 530.465 Q58.955 529.886 60.9921 529.886 Q66.3624 529.886 69.5568 532.571 Q72.7513 535.256 72.7513 539.747 Q72.7513 541.877 71.9411 543.798 Q71.1541 545.696 69.0476 548.289 Q68.4689 548.96 65.367 552.178 Q62.2652 555.372 56.6171 561.136 Z" fill="#000000" fill-rule="evenodd" fill-opacity="1" /><path clip-path="url(#clip340)" d="M82.7512 559.191 L87.6354 559.191 L87.6354 565.071 L82.7512 565.071 L82.7512 559.191 Z" fill="#000000" fill-rule="evenodd" fill-opacity="1" /><path clip-path="url(#clip340)" d="M107.821 533.59 Q104.209 533.59 102.381 537.155 Q100.575 540.696 100.575 547.826 Q100.575 554.932 102.381 558.497 Q104.209 562.039 107.821 562.039 Q111.455 562.039 113.26 558.497 Q115.089 554.932 115.089 547.826 Q115.089 540.696 113.26 537.155 Q111.455 533.59 107.821 533.59 M107.821 529.886 Q113.631 529.886 116.686 534.493 Q119.765 539.076 119.765 547.826 Q119.765 556.553 116.686 561.159 Q113.631 565.742 107.821 565.742 Q102.01 565.742 98.9317 561.159 Q95.8761 556.553 95.8761 547.826 Q95.8761 539.076 98.9317 534.493 Q102.01 529.886 107.821 529.886 Z" fill="#000000" fill-rule="evenodd" fill-opacity="1" /><path clip-path="url(#clip340)" d="M156.154 539.608 L145.575 550.233 L156.154 560.812 L153.399 563.613 L142.774 552.988 L132.149 563.613 L129.418 560.812 L139.973 550.233 L129.418 539.608 L132.149 536.807 L142.774 547.432 L153.399 536.807 L156.154 539.608 Z" fill="#000000" fill-rule="evenodd" fill-opacity="1" /><path clip-path="url(#clip340)" d="M168.515 561.136 L176.153 561.136 L176.153 534.77 L167.843 536.437 L167.843 532.178 L176.107 530.511 L180.783 530.511 L180.783 561.136 L188.422 561.136 L188.422 565.071 L168.515 565.071 L168.515 561.136 Z" fill="#000000" fill-rule="evenodd" fill-opacity="1" /><path clip-path="url(#clip340)" d="M207.866 533.59 Q204.255 533.59 202.426 537.155 Q200.621 540.696 200.621 547.826 Q200.621 554.932 202.426 558.497 Q204.255 562.039 207.866 562.039 Q211.501 562.039 213.306 558.497 Q215.135 554.932 215.135 547.826 Q215.135 540.696 213.306 537.155 Q211.501 533.59 207.866 533.59 M207.866 529.886 Q213.676 529.886 216.732 534.493 Q219.811 539.076 219.811 547.826 Q219.811 556.553 216.732 561.159 Q213.676 565.742 207.866 565.742 Q202.056 565.742 198.977 561.159 Q195.922 556.553 195.922 547.826 Q195.922 539.076 198.977 534.493 Q202.056 529.886 207.866 529.886 Z" fill="#000000" fill-rule="evenodd" fill-opacity="1" /><path clip-path="url(#clip340)" d="M232.487 512.891 L222.895 527.881 L232.487 527.881 L232.487 512.891 M231.49 509.581 L236.267 509.581 L236.267 527.881 L240.274 527.881 L240.274 531.04 L236.267 531.04 L236.267 537.661 L232.487 537.661 L232.487 531.04 L219.811 531.04 L219.811 527.373 L231.49 509.581 Z" fill="#000000" fill-rule="evenodd" fill-opacity="1" /><path clip-path="url(#clip340)" d="M66.7559 100.219 Q70.1124 100.936 71.9874 103.205 Q73.8855 105.473 73.8855 108.806 Q73.8855 113.922 70.367 116.723 Q66.8485 119.524 60.3671 119.524 Q58.1912 119.524 55.8764 119.084 Q53.5847 118.668 51.131 117.811 L51.131 113.297 Q53.0754 114.431 55.3903 115.01 Q57.7051 115.589 60.2282 115.589 Q64.6263 115.589 66.918 113.853 Q69.2328 112.117 69.2328 108.806 Q69.2328 105.751 67.08 104.038 Q64.9504 102.302 61.131 102.302 L57.1032 102.302 L57.1032 98.4593 L61.3161 98.4593 Q64.7652 98.4593 66.5939 97.0936 Q68.4226 95.7047 68.4226 93.1121 Q68.4226 90.4501 66.5245 89.0381 Q64.6495 87.6029 61.131 87.6029 Q59.2097 87.6029 57.0106 88.0195 Q54.8115 88.4362 52.1727 89.3158 L52.1727 85.1492 Q54.8347 84.4084 57.1495 84.0381 Q59.4875 83.6677 61.5476 83.6677 Q66.8717 83.6677 69.9735 86.0983 Q73.0753 88.5056 73.0753 92.626 Q73.0753 95.4964 71.4318 97.4871 Q69.7883 99.4547 66.7559 100.219 Z" fill="#000000" fill-rule="evenodd" fill-opacity="1" /><path clip-path="url(#clip340)" d="M82.7512 112.973 L87.6354 112.973 L87.6354 118.853 L82.7512 118.853 L82.7512 112.973 Z" fill="#000000" fill-rule="evenodd" fill-opacity="1" /><path clip-path="url(#clip340)" d="M107.821 87.3714 Q104.209 87.3714 102.381 90.9362 Q100.575 94.4778 100.575 101.607 Q100.575 108.714 102.381 112.279 Q104.209 115.82 107.821 115.82 Q111.455 115.82 113.26 112.279 Q115.089 108.714 115.089 101.607 Q115.089 94.4778 113.26 90.9362 Q111.455 87.3714 107.821 87.3714 M107.821 83.6677 Q113.631 83.6677 116.686 88.2742 Q119.765 92.8575 119.765 101.607 Q119.765 110.334 116.686 114.941 Q113.631 119.524 107.821 119.524 Q102.01 119.524 98.9317 114.941 Q95.8761 110.334 95.8761 101.607 Q95.8761 92.8575 98.9317 88.2742 Q102.01 83.6677 107.821 83.6677 Z" fill="#000000" fill-rule="evenodd" fill-opacity="1" /><path clip-path="url(#clip340)" d="M156.154 93.3899 L145.575 104.015 L156.154 114.593 L153.399 117.394 L142.774 106.769 L132.149 117.394 L129.418 114.593 L139.973 104.015 L129.418 93.3899 L132.149 90.589 L142.774 101.214 L153.399 90.589 L156.154 93.3899 Z" fill="#000000" fill-rule="evenodd" fill-opacity="1" /><path clip-path="url(#clip340)" d="M168.515 114.918 L176.153 114.918 L176.153 88.5519 L167.843 90.2186 L167.843 85.9594 L176.107 84.2927 L180.783 84.2927 L180.783 114.918 L188.422 114.918 L188.422 118.853 L168.515 118.853 L168.515 114.918 Z" fill="#000000" fill-rule="evenodd" fill-opacity="1" /><path clip-path="url(#clip340)" d="M207.866 87.3714 Q204.255 87.3714 202.426 90.9362 Q200.621 94.4778 200.621 101.607 Q200.621 108.714 202.426 112.279 Q204.255 115.82 207.866 115.82 Q211.501 115.82 213.306 112.279 Q215.135 108.714 215.135 101.607 Q215.135 94.4778 213.306 90.9362 Q211.501 87.3714 207.866 87.3714 M207.866 83.6677 Q213.676 83.6677 216.732 88.2742 Q219.811 92.8575 219.811 101.607 Q219.811 110.334 216.732 114.941 Q213.676 119.524 207.866 119.524 Q202.056 119.524 198.977 114.941 Q195.922 110.334 195.922 101.607 Q195.922 92.8575 198.977 88.2742 Q202.056 83.6677 207.866 83.6677 Z" fill="#000000" fill-rule="evenodd" fill-opacity="1" /><path clip-path="url(#clip340)" d="M232.487 66.6725 L222.895 81.6623 L232.487 81.6623 L232.487 66.6725 M231.49 63.3623 L236.267 63.3623 L236.267 81.6623 L240.274 81.6623 L240.274 84.822 L236.267 84.822 L236.267 91.4423 L232.487 91.4423 L232.487 84.822 L219.811 84.822 L219.811 81.1545 L231.49 63.3623 Z" fill="#000000" fill-rule="evenodd" fill-opacity="1" /><polyline clip-path="url(#clip342)" style="stroke:#009af9; stroke-linecap:butt; stroke-linejoin:round; stroke-width:6; stroke-opacity:1; fill:none" points="
  348.189,1433.78 348.189,1433.6 354.763,1433.6 354.763,1433.74 361.336,1433.74 361.336,1433.6 367.91,1433.6 367.91,1433.65 374.484,1433.65 374.484,1433.42 
  381.057,1433.42 381.057,1433.51 387.631,1433.51 387.631,1433.16 394.205,1433.16 394.205,1432.66 400.778,1432.66 400.778,1432.44 407.352,1432.44 407.352,1431.86 
  413.926,1431.86 413.926,1431.5 420.499,1431.5 420.499,1430.75 427.073,1430.75 427.073,1429.85 433.647,1429.85 433.647,1430.26 440.22,1430.26 440.22,1426.91 
  446.794,1426.91 446.794,1426.28 453.367,1426.28 453.367,1424.14 459.941,1424.14 459.941,1420.93 466.515,1420.93 466.515,1418.97 473.088,1418.97 473.088,1412.67 
  479.662,1412.67 479.662,1410 486.236,1410 486.236,1406.16 492.809,1406.16 492.809,1397.32 499.383,1397.32 499.383,1396.25 505.957,1396.25 505.957,1388.04 
  512.53,1388.04 512.53,1379.56 519.104,1379.56 519.104,1369.26 525.678,1369.26 525.678,1361.67 532.251,1361.67 532.251,1351.14 538.825,1351.14 538.825,1338.74 
  545.398,1338.74 545.398,1329.81 551.972,1329.81 551.972,1315.18 558.546,1315.18 558.546,1300.9 565.119,1300.9 565.119,1281.08 571.693,1281.08 571.693,1264.89 
  578.267,1264.89 578.267,1252.26 584.84,1252.26 584.84,1227.45 591.414,1227.45 591.414,1208.75 597.988,1208.75 597.988,1186.93 604.561,1186.93 604.561,1161.45 
  611.135,1161.45 611.135,1131.33 617.709,1131.33 617.709,1105.59 624.282,1105.59 624.282,1090.24 630.856,1090.24 630.856,1062.12 637.429,1062.12 637.429,1020.58 
  644.003,1020.58 644.003,996.575 650.577,996.575 650.577,958.513 657.15,958.513 657.15,939.683 663.724,939.683 663.724,895.373 670.298,895.373 670.298,875.427 
  676.871,875.427 676.871,840.488 683.445,840.488 683.445,799.124 690.019,799.124 690.019,768.781 696.592,768.781 696.592,730.228 703.166,730.228 703.166,700.153 
  709.74,700.153 709.74,662.358 716.313,662.358 716.313,635.272 722.887,635.272 722.887,604.796 729.46,604.796 729.46,559.995 736.034,559.995 736.034,529.831 
  742.608,529.831 742.608,506.226 749.181,506.226 749.181,463.3 755.755,463.3 755.755,446.834 762.329,446.834 762.329,420.731 768.902,420.731 768.902,377.849 
  775.476,377.849 775.476,350.05 782.05,350.05 782.05,337.913 788.623,337.913 788.623,301.144 795.197,301.144 795.197,287.356 801.771,287.356 801.771,271.292 
  808.344,271.292 808.344,249.517 814.918,249.517 814.918,225.689 821.491,225.689 821.491,218.504 828.065,218.504 828.065,187.849 834.639,187.849 834.639,173.704 
  841.212,173.704 841.212,170.179 847.786,170.179 847.786,161.612 854.36,161.612 854.36,166.52 860.933,166.52 860.933,156.034 867.507,156.034 867.507,162.236 
  874.081,162.236 874.081,153.892 880.654,153.892 880.654,140.595 887.228,140.595 887.228,150.947 893.802,150.947 893.802,153.401 900.375,153.401 900.375,171.25 
  906.949,171.25 906.949,167.859 913.522,167.859 913.522,171.071 920.096,171.071 920.096,180.442 926.67,180.442 926.67,189.054 933.243,189.054 933.243,197.845 
  939.817,197.845 939.817,218.951 946.391,218.951 946.391,240.548 952.964,240.548 952.964,240.414 959.538,240.414 959.538,258.039 966.112,258.039 966.112,286.821 
  972.685,286.821 972.685,306.588 979.259,306.588 979.259,325.597 985.833,325.597 985.833,346.212 992.406,346.212 992.406,357.725 998.98,357.725 998.98,379.098 
  1005.55,379.098 1005.55,402.614 1012.13,402.614 1012.13,422.917 1018.7,422.917 1018.7,444.737 1025.27,444.737 1025.27,469.145 1031.85,469.145 1031.85,492.215 
  1038.42,492.215 1038.42,517.158 1045,517.158 1045,547.591 1051.57,547.591 1051.57,573.65 1058.14,573.65 1058.14,592.525 1064.72,592.525 1064.72,619.03 
  1071.29,619.03 1071.29,643.26 1077.86,643.26 1077.86,664.901 1084.44,664.901 1084.44,694.084 1091.01,694.084 1091.01,705.953 1097.58,705.953 1097.58,732.637 
  1104.16,732.637 1104.16,765.256 1110.73,765.256 1110.73,787.611 1117.31,787.611 1117.31,817.82 1123.88,817.82 1123.88,827.726 1130.45,827.726 1130.45,852.402 
  1137.03,852.402 1137.03,870.831 1143.6,870.831 1143.6,892.964 1150.17,892.964 1150.17,916.97 1156.75,916.97 1156.75,938.255 1163.32,938.255 1163.32,949.098 
  1169.89,949.098 1169.89,968.508 1176.47,968.508 1176.47,990.685 1183.04,990.685 1183.04,1020.4 1189.62,1020.4 1189.62,1031.2 1196.19,1031.2 1196.19,1040.66 
  1202.76,1040.66 1202.76,1068.68 1209.34,1068.68 1209.34,1078.28 1215.91,1078.28 1215.91,1100.9 1222.48,1100.9 1222.48,1112.19 1229.06,1112.19 1229.06,1123.79 
  1235.63,1123.79 1235.63,1139.37 1242.2,1139.37 1242.2,1159.36 1248.78,1159.36 1248.78,1171.09 1255.35,1171.09 1255.35,1181.35 1261.93,1181.35 1261.93,1191.75 
  1268.5,1191.75 1268.5,1198.89 1275.07,1198.89 1275.07,1215.49 1281.65,1215.49 1281.65,1226.42 1288.22,1226.42 1288.22,1236.42 1294.79,1236.42 1294.79,1247.89 
  1301.37,1247.89 1301.37,1249.54 1307.94,1249.54 1307.94,1262.83 1314.51,1262.83 1314.51,1273.5 1321.09,1273.5 1321.09,1283.09 1327.66,1283.09 1327.66,1291.75 
  1334.24,1291.75 1334.24,1300 1340.81,1300 1340.81,1304.51 1347.38,1304.51 1347.38,1315.13 1353.96,1315.13 1353.96,1316.38 1360.53,1316.38 1360.53,1328.03 
  1367.1,1328.03 1367.1,1334.59 1373.68,1334.59 1373.68,1333.78 1380.25,1333.78 1380.25,1348.15 1386.82,1348.15 1386.82,1346.95 1393.4,1346.95 1393.4,1349.98 
  1399.97,1349.98 1399.97,1353.86 1406.55,1353.86 1406.55,1364.88 1413.12,1364.88 1413.12,1367.61 1419.69,1367.61 1419.69,1368.19 1426.27,1368.19 1426.27,1373.01 
  1432.84,1373.01 1432.84,1380.9 1439.41,1380.9 1439.41,1380.95 1445.99,1380.95 1445.99,1388.76 1452.56,1388.76 1452.56,1384.74 1459.13,1384.74 1459.13,1391.48 
  1465.71,1391.48 1465.71,1390.36 1472.28,1390.36 1472.28,1395.45 1478.86,1395.45 1478.86,1398.48 1485.43,1398.48 1485.43,1399.11 1492,1399.11 1492,1400.94 
  1498.58,1400.94 1498.58,1404.46 1505.15,1404.46 1505.15,1405.71 1511.72,1405.71 1511.72,1408.48 1518.3,1408.48 1518.3,1410.53 1524.87,1410.53 1524.87,1411.87 
  1531.44,1411.87 1538.02,1411.87 1538.02,1415.04 1544.59,1415.04 1544.59,1415.44 1551.17,1415.44 1551.17,1417.23 1557.74,1417.23 1557.74,1417.27 
  1564.31,1417.27 1564.31,1418.21 1570.89,1418.21 1570.89,1420.17 1577.46,1420.17 1584.03,1420.17 1584.03,1420.84 1590.61,1420.84 1590.61,1422.36 
  1597.18,1422.36 1597.18,1422.49 1603.76,1422.49 1603.76,1422.94 1610.33,1422.94 1610.33,1424.14 1616.9,1424.14 1616.9,1424.68 1623.48,1424.68 1623.48,1425.53 
  1630.05,1425.53 1630.05,1426.55 1636.62,1426.55 1636.62,1426.42 1643.2,1426.42 1643.2,1427.8 1649.77,1427.8 1656.34,1427.8 1656.34,1427 
  1662.92,1427 1662.92,1428.34 1669.49,1428.34 1669.49,1429.5 1676.07,1429.5 1676.07,1429.63 1682.64,1429.63 1682.64,1429.32 1689.21,1429.32 1689.21,1428.92 
  1695.79,1428.92 1695.79,1429.94 1702.36,1429.94 1702.36,1430.61 1708.93,1430.61 1708.93,1431.01 1715.51,1431.01 1715.51,1430.7 1722.08,1430.7 1722.08,1431.01 
  1728.65,1431.01 1728.65,1431.06 1735.23,1431.06 1735.23,1431.42 1741.8,1431.42 1741.8,1432.35 1748.38,1432.35 1748.38,1431.55 1754.95,1431.55 1754.95,1432.13 
  1761.52,1432.13 1761.52,1431.91 1768.1,1431.91 1768.1,1431.95 1774.67,1431.95 1774.67,1432.66 1781.24,1432.66 1781.24,1431.55 1787.82,1431.55 1787.82,1432.58 
  1794.39,1432.58 1794.39,1432.49 1800.96,1432.49 1800.96,1432.62 1807.54,1432.62 1807.54,1432.66 1814.11,1432.66 1814.11,1433.07 1820.69,1433.07 1820.69,1432.93 
  1827.26,1432.93 1827.26,1433.11 1833.83,1433.11 1833.83,1433.29 1840.41,1433.29 1840.41,1433.07 1846.98,1433.07 1846.98,1433.02 1853.55,1433.02 1853.55,1433.29 
  1860.13,1433.29 1860.13,1433.24 1866.7,1433.24 1866.7,1433.29 1873.27,1433.29 1873.27,1433.42 1879.85,1433.42 1879.85,1433.33 1886.42,1433.33 1886.42,1433.47 
  1893,1433.47 1893,1433.2 1899.57,1433.2 1899.57,1433.38 1906.14,1433.38 1906.14,1433.56 1912.72,1433.56 1912.72,1433.38 1919.29,1433.38 1919.29,1433.6 
  1925.86,1433.6 1925.86,1433.56 1932.44,1433.56 1939.01,1433.56 1939.01,1433.6 1945.58,1433.6 1945.58,1433.42 1952.16,1433.42 1952.16,1433.56 
  1958.73,1433.56 1958.73,1433.51 1965.31,1433.51 1965.31,1433.69 1971.88,1433.69 1971.88,1433.65 1978.45,1433.65 1985.03,1433.65 1985.03,1433.74 
  1991.6,1433.74 1991.6,1433.78 1998.17,1433.78 1998.17,1433.74 2004.75,1433.74 2011.32,1433.74 2011.32,1433.78 2017.89,1433.78 
  2024.47,1433.78 2024.47,1433.74 2031.04,1433.74 2037.62,1433.74 2044.19,1433.74 2050.76,1433.74 
  2057.34,1433.74 2057.34,1433.78 2063.91,1433.78 2063.91,1433.69 2070.48,1433.69 2070.48,1433.74 2077.06,1433.74 2083.63,1433.74 2083.63,1433.78 
  2090.2,1433.78 2096.78,1433.78 2096.78,1433.69 2103.35,1433.69 2103.35,1433.78 2109.93,1433.78 2116.5,1433.78 2116.5,1433.74 
  2123.07,1433.74 2123.07,1433.78 2129.65,1433.78 2129.65,1433.74 2136.22,1433.74 2136.22,1433.78 2142.79,1433.78 2142.79,1433.74 2149.37,1433.74 2149.37,1433.78 
  2155.94,1433.78 2155.94,1433.74 2162.51,1433.74 2162.51,1433.78 2169.09,1433.78 2175.66,1433.78 2182.24,1433.78 
  2188.81,1433.78 2195.38,1433.78 2201.96,1433.78 2208.53,1433.78 2215.1,1433.78 
  2221.68,1433.78 2228.25,1433.78 2234.82,1433.78 2241.4,1433.78 2241.4,1433.74 2247.97,1433.74 2247.97,1433.78 
  2254.55,1433.78 2261.12,1433.78 2267.69,1433.78 2274.27,1433.78 2280.84,1433.78 
  2287.41,1433.78 2287.41,1433.74 2293.99,1433.74 2293.99,1433.78 
  "/>
<polyline clip-path="url(#clip342)" style="stroke:#e26f46; stroke-linecap:butt; stroke-linejoin:round; stroke-width:6; stroke-opacity:1; fill:none" points="
  335.042,1433.78 335.042,1433.74 341.616,1433.74 341.616,1433.78 348.189,1433.78 348.189,1433.69 354.763,1433.69 361.336,1433.69 361.336,1433.56 
  367.91,1433.56 367.91,1433.65 374.484,1433.65 374.484,1433.38 381.057,1433.38 387.631,1433.38 387.631,1433.42 394.205,1433.42 394.205,1433.2 
  400.778,1433.2 400.778,1432.8 407.352,1432.8 407.352,1432.22 413.926,1432.22 413.926,1431.73 420.499,1431.73 420.499,1431.06 427.073,1431.06 427.073,1431.15 
  433.647,1431.15 433.647,1429.59 440.22,1429.59 440.22,1428.51 446.794,1428.51 446.794,1426.69 453.367,1426.69 453.367,1425.66 459.941,1425.66 459.941,1423.43 
  466.515,1423.43 466.515,1421.91 473.088,1421.91 473.088,1418.25 479.662,1418.25 479.662,1415.49 486.236,1415.49 486.236,1410.26 492.809,1410.26 492.809,1405.22 
  499.383,1405.22 499.383,1400.89 505.957,1400.89 505.957,1398.4 512.53,1398.4 512.53,1389.69 519.104,1389.69 519.104,1383.27 525.678,1383.27 525.678,1375.5 
  532.251,1375.5 532.251,1363.1 538.825,1363.1 538.825,1358.1 545.398,1358.1 545.398,1345.56 551.972,1345.56 551.972,1337.49 558.546,1337.49 558.546,1314.46 
  565.119,1314.46 565.119,1308.26 571.693,1308.26 571.693,1290.5 578.267,1290.5 578.267,1274.17 584.84,1274.17 584.84,1253.55 591.414,1253.55 591.414,1237.53 
  597.988,1237.53 597.988,1215.27 604.561,1215.27 604.561,1195.86 611.135,1195.86 611.135,1175.33 617.709,1175.33 617.709,1149.81 624.282,1149.81 624.282,1120.09 
  630.856,1120.09 630.856,1100.32 637.429,1100.32 637.429,1069.44 644.003,1069.44 644.003,1041.11 650.577,1041.11 650.577,1006.97 657.15,1006.97 657.15,982.386 
  663.724,982.386 663.724,944.948 670.298,944.948 670.298,915.765 676.871,915.765 676.871,884.173 683.445,884.173 683.445,851.822 690.019,851.822 690.019,814.384 
  696.592,814.384 696.592,780.873 703.166,780.873 703.166,745.265 709.74,745.265 709.74,718.001 716.313,718.001 716.313,667.98 722.887,667.98 722.887,646.16 
  729.46,646.16 729.46,599.932 736.034,599.932 736.034,579.807 742.608,579.807 742.608,535.453 749.181,535.453 749.181,496.097 755.755,496.097 755.755,466.78 
  762.329,466.78 762.329,432.555 768.902,432.555 768.902,396.947 775.476,396.947 775.476,382.981 782.05,382.981 782.05,357.635 788.623,357.635 788.623,334.477 
  795.197,334.477 795.197,282.671 801.771,282.671 801.771,267.321 808.344,267.321 808.344,228.009 814.918,228.009 814.918,229.214 821.491,229.214 821.491,198.246 
  828.065,198.246 828.065,177.229 834.639,177.229 834.639,158.31 841.212,158.31 841.212,160.898 847.786,160.898 847.786,131.938 854.36,131.938 854.36,123.148 
  860.933,123.148 860.933,100.926 867.507,100.926 867.507,101.372 874.081,101.372 874.081,104.139 880.654,104.139 880.654,87.6286 887.228,87.6286 887.228,95.1697 
  893.802,95.1697 893.802,97.9363 900.375,97.9363 900.375,96.4191 906.949,96.4191 906.949,89.4135 913.522,89.4135 913.522,99.5427 920.096,99.5427 920.096,114.982 
  926.67,114.982 926.67,116.187 933.243,116.187 933.243,141.398 939.817,141.398 939.817,145.146 946.391,145.146 946.391,153.357 952.964,153.357 952.964,188.072 
  959.538,188.072 959.538,193.159 966.112,193.159 966.112,207.795 972.685,207.795 972.685,225.778 979.259,225.778 979.259,251.792 985.833,251.792 985.833,274.46 
  992.406,274.46 992.406,293.96 998.98,293.96 998.98,317.386 1005.55,317.386 1005.55,342.866 1012.13,342.866 1012.13,367.006 1018.7,367.006 1018.7,390.968 
  1025.27,390.968 1025.27,419.794 1031.85,419.794 1031.85,446.433 1038.42,446.433 1038.42,471.6 1045,471.6 1045,491.545 1051.57,491.545 1051.57,513.499 
  1058.14,513.499 1058.14,548.974 1064.72,548.974 1064.72,576.55 1071.29,576.55 1071.29,604.93 1077.86,604.93 1077.86,627.017 1084.44,627.017 1084.44,658.119 
  1091.01,658.119 1091.01,684.133 1097.58,684.133 1097.58,713.494 1104.16,713.494 1104.16,738.349 1110.73,738.349 1110.73,759.321 1117.31,759.321 1117.31,780.383 
  1123.88,780.383 1123.88,806.843 1130.45,806.843 1130.45,837.632 1137.03,837.632 1137.03,859.943 1143.6,859.943 1143.6,880.425 1150.17,880.425 1150.17,904.878 
  1156.75,904.878 1156.75,936.336 1163.32,936.336 1163.32,943.029 1169.89,943.029 1169.89,974.711 1176.47,974.711 1176.47,995.014 1183.04,995.014 1183.04,1022.46 
  1189.62,1022.46 1189.62,1036.33 1196.19,1036.33 1196.19,1050.12 1202.76,1050.12 1202.76,1067.75 1209.34,1067.75 1209.34,1087.56 1215.91,1087.56 1215.91,1105.36 
  1222.48,1105.36 1222.48,1119.15 1229.06,1119.15 1229.06,1137.94 1235.63,1137.94 1235.63,1155.12 1242.2,1155.12 1242.2,1171.58 1248.78,1171.58 1248.78,1183.94 
  1255.35,1183.94 1255.35,1202.01 1261.93,1202.01 1261.93,1212.37 1268.5,1212.37 1268.5,1221.83 1275.07,1221.83 1275.07,1232.13 1281.65,1232.13 1281.65,1242.98 
  1288.22,1242.98 1288.22,1258.82 1294.79,1258.82 1294.79,1267.34 1301.37,1267.34 1301.37,1281.13 1307.94,1281.13 1307.94,1284.03 1314.51,1284.03 1314.51,1290.95 
  1321.09,1290.95 1321.09,1304.06 1327.66,1304.06 1327.66,1311.74 1334.24,1311.74 1334.24,1314.42 1340.81,1314.42 1340.81,1326.91 1347.38,1326.91 1347.38,1333.83 
  1353.96,1333.83 1353.96,1341.06 1360.53,1341.06 1360.53,1347.21 1367.1,1347.21 1367.1,1352.12 1373.68,1352.12 1373.68,1354.35 1380.25,1354.35 1380.25,1364.13 
  1386.82,1364.13 1386.82,1368.19 1393.4,1368.19 1393.4,1372.16 1399.97,1372.16 1399.97,1375.99 1406.55,1375.99 1406.55,1379.92 1413.12,1379.92 1413.12,1383.67 
  1419.69,1383.67 1419.69,1388.62 1426.27,1388.62 1426.27,1392.06 1432.84,1392.06 1432.84,1395.23 1439.41,1395.23 1439.41,1396.92 1445.99,1396.92 1445.99,1399.51 
  1452.56,1399.51 1452.56,1401.92 1459.13,1401.92 1459.13,1402.72 1465.71,1402.72 1465.71,1406.07 1472.28,1406.07 1472.28,1409.37 1478.86,1409.37 1478.86,1411.02 
  1485.43,1411.02 1485.43,1411.51 1492,1411.51 1492,1413.88 1498.58,1413.88 1498.58,1415.49 1505.15,1415.49 1505.15,1417.63 1511.72,1417.63 1511.72,1416.24 
  1518.3,1416.24 1518.3,1420.17 1524.87,1420.17 1524.87,1420.39 1531.44,1420.39 1531.44,1420.71 1538.02,1420.71 1538.02,1423.2 1544.59,1423.2 1544.59,1423.61 
  1551.17,1423.61 1551.17,1425.03 1557.74,1425.03 1557.74,1425.39 1564.31,1425.39 1564.31,1426.37 1570.89,1426.37 1570.89,1425.79 1577.46,1425.79 1577.46,1427.18 
  1584.03,1427.18 1584.03,1427.93 1590.61,1427.93 1590.61,1427.67 1597.18,1427.67 1597.18,1429.81 1603.76,1429.81 1603.76,1428.92 1610.33,1428.92 1610.33,1429.76 
  1616.9,1429.76 1616.9,1430.39 1623.48,1430.39 1623.48,1430.03 1630.05,1430.03 1630.05,1431.06 1636.62,1431.06 1636.62,1430.57 1643.2,1430.57 
  1649.77,1430.57 1649.77,1431.19 1656.34,1431.19 1656.34,1431.91 1662.92,1431.91 1662.92,1431.55 1669.49,1431.55 1669.49,1431.91 1676.07,1431.91 
  1682.64,1431.91 1682.64,1432.44 1689.21,1432.44 1689.21,1432.26 1695.79,1432.26 1695.79,1432.49 1702.36,1432.49 1702.36,1432.75 1708.93,1432.75 1708.93,1432.98 
  1715.51,1432.98 1715.51,1432.93 1722.08,1432.93 1722.08,1432.89 1728.65,1432.89 1728.65,1432.8 1735.23,1432.8 1735.23,1433.16 1741.8,1433.16 1741.8,1433.07 
  1748.38,1433.07 1748.38,1432.98 1754.95,1432.98 1754.95,1433.29 1761.52,1433.29 1761.52,1433.47 1768.1,1433.47 1768.1,1433.33 1774.67,1433.33 1774.67,1432.93 
  1781.24,1432.93 1781.24,1433.56 1787.82,1433.56 1787.82,1433.6 1794.39,1433.6 1794.39,1433.38 1800.96,1433.38 1800.96,1433.51 1807.54,1433.51 1807.54,1433.65 
  1814.11,1433.65 1814.11,1433.56 1820.69,1433.56 1820.69,1433.69 1827.26,1433.69 1827.26,1433.56 1833.83,1433.56 1833.83,1433.51 1840.41,1433.51 1840.41,1433.65 
  1846.98,1433.65 1853.55,1433.65 1860.13,1433.65 1860.13,1433.56 1866.7,1433.56 1866.7,1433.74 1873.27,1433.74 
  1879.85,1433.74 1886.42,1433.74 1886.42,1433.78 1893,1433.78 1893,1433.69 1899.57,1433.69 1899.57,1433.78 1906.14,1433.78 
  1912.72,1433.78 1912.72,1433.74 1919.29,1433.74 1925.86,1433.74 1932.44,1433.74 1932.44,1433.78 1939.01,1433.78 
  1945.58,1433.78 1952.16,1433.78 1958.73,1433.78 1965.31,1433.78 1965.31,1433.74 1971.88,1433.74 1971.88,1433.78 
  
  "/>
<path clip-path="url(#clip340)" d="
M1541.23 250.328 L2283.54 250.328 L2283.54 94.8081 L1541.23 94.8081  Z
  " fill="#ffffff" fill-rule="evenodd" fill-opacity="1"/>
<polyline clip-path="url(#clip340)" style="stroke:#000000; stroke-linecap:butt; stroke-linejoin:round; stroke-width:4; stroke-opacity:1; fill:none" points="
  1541.23,250.328 2283.54,250.328 2283.54,94.8081 1541.23,94.8081 1541.23,250.328 
  "/>
<polyline clip-path="url(#clip340)" style="stroke:#009af9; stroke-linecap:butt; stroke-linejoin:round; stroke-width:4; stroke-opacity:1; fill:none" points="
  1564.3,146.648 1702.73,146.648 
  "/>
<path clip-path="url(#clip340)" d="M1725.8 129.368 L1732.77 129.368 L1741.59 152.887 L1750.45 129.368 L1757.42 129.368 L1757.42 163.928 L1752.86 163.928 L1752.86 133.581 L1743.95 157.285 L1739.25 157.285 L1730.34 133.581 L1730.34 163.928 L1725.8 163.928 L1725.8 129.368 Z" fill="#000000" fill-rule="evenodd" fill-opacity="1" /><path clip-path="url(#clip340)" d="M1776.56 140.988 Q1773.14 140.988 1771.15 143.674 Q1769.16 146.336 1769.16 150.988 Q1769.16 155.641 1771.13 158.326 Q1773.12 160.988 1776.56 160.988 Q1779.97 160.988 1781.96 158.303 Q1783.95 155.618 1783.95 150.988 Q1783.95 146.382 1781.96 143.697 Q1779.97 140.988 1776.56 140.988 M1776.56 137.377 Q1782.12 137.377 1785.29 140.988 Q1788.46 144.6 1788.46 150.988 Q1788.46 157.354 1785.29 160.988 Q1782.12 164.599 1776.56 164.599 Q1770.99 164.599 1767.81 160.988 Q1764.67 157.354 1764.67 150.988 Q1764.67 144.6 1767.81 140.988 Q1770.99 137.377 1776.56 137.377 Z" fill="#000000" fill-rule="evenodd" fill-opacity="1" /><path clip-path="url(#clip340)" d="M1812.58 141.937 L1812.58 127.91 L1816.84 127.91 L1816.84 163.928 L1812.58 163.928 L1812.58 160.039 Q1811.24 162.354 1809.18 163.488 Q1807.14 164.599 1804.27 164.599 Q1799.57 164.599 1796.61 160.849 Q1793.67 157.099 1793.67 150.988 Q1793.67 144.877 1796.61 141.127 Q1799.57 137.377 1804.27 137.377 Q1807.14 137.377 1809.18 138.512 Q1811.24 139.623 1812.58 141.937 M1798.07 150.988 Q1798.07 155.687 1799.99 158.373 Q1801.94 161.035 1805.31 161.035 Q1808.69 161.035 1810.64 158.373 Q1812.58 155.687 1812.58 150.988 Q1812.58 146.289 1810.64 143.627 Q1808.69 140.942 1805.31 140.942 Q1801.94 140.942 1799.99 143.627 Q1798.07 146.289 1798.07 150.988 Z" fill="#000000" fill-rule="evenodd" fill-opacity="1" /><path clip-path="url(#clip340)" d="M1847.79 149.9 L1847.79 151.984 L1828.21 151.984 Q1828.49 156.382 1830.85 158.697 Q1833.23 160.988 1837.47 160.988 Q1839.92 160.988 1842.21 160.386 Q1844.53 159.785 1846.8 158.581 L1846.8 162.609 Q1844.5 163.581 1842.1 164.09 Q1839.69 164.599 1837.21 164.599 Q1831.01 164.599 1827.37 160.988 Q1823.76 157.377 1823.76 151.22 Q1823.76 144.854 1827.19 141.127 Q1830.64 137.377 1836.47 137.377 Q1841.7 137.377 1844.74 140.757 Q1847.79 144.113 1847.79 149.9 M1843.53 148.65 Q1843.49 145.155 1841.56 143.072 Q1839.67 140.988 1836.52 140.988 Q1832.95 140.988 1830.8 143.002 Q1828.67 145.016 1828.35 148.674 L1843.53 148.65 Z" fill="#000000" fill-rule="evenodd" fill-opacity="1" /><path clip-path="url(#clip340)" d="M1854.78 127.91 L1859.04 127.91 L1859.04 163.928 L1854.78 163.928 L1854.78 127.91 Z" fill="#000000" fill-rule="evenodd" fill-opacity="1" /><path clip-path="url(#clip340)" d="M1880.55 138.002 L1884.81 138.002 L1890.13 158.234 L1895.43 138.002 L1900.45 138.002 L1905.78 158.234 L1911.08 138.002 L1915.34 138.002 L1908.55 163.928 L1903.53 163.928 L1897.95 142.678 L1892.35 163.928 L1887.33 163.928 L1880.55 138.002 Z" fill="#000000" fill-rule="evenodd" fill-opacity="1" /><path clip-path="url(#clip340)" d="M1921.8 138.002 L1926.05 138.002 L1926.05 163.928 L1921.8 163.928 L1921.8 138.002 M1921.8 127.91 L1926.05 127.91 L1926.05 133.303 L1921.8 133.303 L1921.8 127.91 Z" fill="#000000" fill-rule="evenodd" fill-opacity="1" /><path clip-path="url(#clip340)" d="M1939.18 130.641 L1939.18 138.002 L1947.95 138.002 L1947.95 141.312 L1939.18 141.312 L1939.18 155.386 Q1939.18 158.558 1940.04 159.461 Q1940.92 160.363 1943.58 160.363 L1947.95 160.363 L1947.95 163.928 L1943.58 163.928 Q1938.65 163.928 1936.77 162.099 Q1934.9 160.248 1934.9 155.386 L1934.9 141.312 L1931.77 141.312 L1931.77 138.002 L1934.9 138.002 L1934.9 130.641 L1939.18 130.641 Z" fill="#000000" fill-rule="evenodd" fill-opacity="1" /><path clip-path="url(#clip340)" d="M1975.11 148.28 L1975.11 163.928 L1970.85 163.928 L1970.85 148.419 Q1970.85 144.738 1969.41 142.91 Q1967.98 141.081 1965.11 141.081 Q1961.66 141.081 1959.67 143.28 Q1957.68 145.479 1957.68 149.275 L1957.68 163.928 L1953.39 163.928 L1953.39 127.91 L1957.68 127.91 L1957.68 142.03 Q1959.2 139.692 1961.26 138.535 Q1963.35 137.377 1966.05 137.377 Q1970.52 137.377 1972.81 140.155 Q1975.11 142.91 1975.11 148.28 Z" fill="#000000" fill-rule="evenodd" fill-opacity="1" /><path clip-path="url(#clip340)" d="M2013.69 141.984 Q2012.98 141.567 2012.12 141.382 Q2011.29 141.174 2010.27 141.174 Q2006.66 141.174 2004.71 143.535 Q2002.79 145.873 2002.79 150.271 L2002.79 163.928 L1998.51 163.928 L1998.51 138.002 L2002.79 138.002 L2002.79 142.03 Q2004.13 139.669 2006.29 138.535 Q2008.44 137.377 2011.52 137.377 Q2011.96 137.377 2012.49 137.447 Q2013.02 137.493 2013.67 137.609 L2013.69 141.984 Z" fill="#000000" fill-rule="evenodd" fill-opacity="1" /><path clip-path="url(#clip340)" d="M2018.16 138.002 L2022.42 138.002 L2022.42 163.928 L2018.16 163.928 L2018.16 138.002 M2018.16 127.91 L2022.42 127.91 L2022.42 133.303 L2018.16 133.303 L2018.16 127.91 Z" fill="#000000" fill-rule="evenodd" fill-opacity="1" /><path clip-path="url(#clip340)" d="M2049.94 150.988 Q2049.94 146.289 2048 143.627 Q2046.08 140.942 2042.7 140.942 Q2039.32 140.942 2037.37 143.627 Q2035.45 146.289 2035.45 150.988 Q2035.45 155.687 2037.37 158.373 Q2039.32 161.035 2042.7 161.035 Q2046.08 161.035 2048 158.373 Q2049.94 155.687 2049.94 150.988 M2035.45 141.937 Q2036.79 139.623 2038.83 138.512 Q2040.89 137.377 2043.74 137.377 Q2048.46 137.377 2051.4 141.127 Q2054.36 144.877 2054.36 150.988 Q2054.36 157.099 2051.4 160.849 Q2048.46 164.599 2043.74 164.599 Q2040.89 164.599 2038.83 163.488 Q2036.79 162.354 2035.45 160.039 L2035.45 163.928 L2031.17 163.928 L2031.17 127.91 L2035.45 127.91 L2035.45 141.937 Z" fill="#000000" fill-rule="evenodd" fill-opacity="1" /><path clip-path="url(#clip340)" d="M2071.47 140.988 Q2068.04 140.988 2066.05 143.674 Q2064.06 146.336 2064.06 150.988 Q2064.06 155.641 2066.03 158.326 Q2068.02 160.988 2071.47 160.988 Q2074.87 160.988 2076.86 158.303 Q2078.85 155.618 2078.85 150.988 Q2078.85 146.382 2076.86 143.697 Q2074.87 140.988 2071.47 140.988 M2071.47 137.377 Q2077.03 137.377 2080.2 140.988 Q2083.37 144.6 2083.37 150.988 Q2083.37 157.354 2080.2 160.988 Q2077.03 164.599 2071.47 164.599 Q2065.89 164.599 2062.72 160.988 Q2059.57 157.354 2059.57 150.988 Q2059.57 144.6 2062.72 140.988 Q2065.89 137.377 2071.47 137.377 Z" fill="#000000" fill-rule="evenodd" fill-opacity="1" /><path clip-path="url(#clip340)" d="M2106.96 138.766 L2106.96 142.794 Q2105.15 141.868 2103.21 141.405 Q2101.26 140.942 2099.18 140.942 Q2096.01 140.942 2094.41 141.914 Q2092.84 142.887 2092.84 144.831 Q2092.84 146.312 2093.97 147.169 Q2095.1 148.002 2098.53 148.766 L2099.99 149.09 Q2104.53 150.062 2106.42 151.845 Q2108.35 153.604 2108.35 156.775 Q2108.35 160.386 2105.48 162.493 Q2102.63 164.599 2097.63 164.599 Q2095.54 164.599 2093.28 164.183 Q2091.03 163.789 2088.53 162.979 L2088.53 158.581 Q2090.89 159.808 2093.18 160.433 Q2095.48 161.035 2097.72 161.035 Q2100.73 161.035 2102.35 160.016 Q2103.97 158.974 2103.97 157.099 Q2103.97 155.363 2102.79 154.437 Q2101.63 153.512 2097.67 152.655 L2096.19 152.308 Q2092.23 151.474 2090.48 149.762 Q2088.72 148.025 2088.72 145.016 Q2088.72 141.359 2091.31 139.368 Q2093.9 137.377 2098.67 137.377 Q2101.03 137.377 2103.11 137.725 Q2105.2 138.072 2106.96 138.766 Z" fill="#000000" fill-rule="evenodd" fill-opacity="1" /><path clip-path="url(#clip340)" d="M2125.17 140.988 Q2121.75 140.988 2119.76 143.674 Q2117.77 146.336 2117.77 150.988 Q2117.77 155.641 2119.73 158.326 Q2121.73 160.988 2125.17 160.988 Q2128.58 160.988 2130.57 158.303 Q2132.56 155.618 2132.56 150.988 Q2132.56 146.382 2130.57 143.697 Q2128.58 140.988 2125.17 140.988 M2125.17 137.377 Q2130.73 137.377 2133.9 140.988 Q2137.07 144.6 2137.07 150.988 Q2137.07 157.354 2133.9 160.988 Q2130.73 164.599 2125.17 164.599 Q2119.6 164.599 2116.42 160.988 Q2113.28 157.354 2113.28 150.988 Q2113.28 144.6 2116.42 140.988 Q2119.6 137.377 2125.17 137.377 Z" fill="#000000" fill-rule="evenodd" fill-opacity="1" /><path clip-path="url(#clip340)" d="M2164.32 142.979 Q2165.91 140.109 2168.14 138.743 Q2170.36 137.377 2173.37 137.377 Q2177.42 137.377 2179.62 140.225 Q2181.82 143.049 2181.82 148.28 L2181.82 163.928 L2177.53 163.928 L2177.53 148.419 Q2177.53 144.692 2176.22 142.887 Q2174.9 141.081 2172.19 141.081 Q2168.88 141.081 2166.96 143.28 Q2165.04 145.479 2165.04 149.275 L2165.04 163.928 L2160.75 163.928 L2160.75 148.419 Q2160.75 144.669 2159.43 142.887 Q2158.11 141.081 2155.36 141.081 Q2152.1 141.081 2150.17 143.303 Q2148.25 145.502 2148.25 149.275 L2148.25 163.928 L2143.97 163.928 L2143.97 138.002 L2148.25 138.002 L2148.25 142.03 Q2149.71 139.646 2151.75 138.512 Q2153.79 137.377 2156.59 137.377 Q2159.41 137.377 2161.38 138.813 Q2163.37 140.248 2164.32 142.979 Z" fill="#000000" fill-rule="evenodd" fill-opacity="1" /><path clip-path="url(#clip340)" d="M2212.49 149.9 L2212.49 151.984 L2192.91 151.984 Q2193.18 156.382 2195.54 158.697 Q2197.93 160.988 2202.16 160.988 Q2204.62 160.988 2206.91 160.386 Q2209.22 159.785 2211.49 158.581 L2211.49 162.609 Q2209.2 163.581 2206.79 164.09 Q2204.39 164.599 2201.91 164.599 Q2195.71 164.599 2192.07 160.988 Q2188.46 157.377 2188.46 151.22 Q2188.46 144.854 2191.89 141.127 Q2195.34 137.377 2201.17 137.377 Q2206.4 137.377 2209.43 140.757 Q2212.49 144.113 2212.49 149.9 M2208.23 148.65 Q2208.18 145.155 2206.26 143.072 Q2204.36 140.988 2201.22 140.988 Q2197.65 140.988 2195.5 143.002 Q2193.37 145.016 2193.04 148.674 L2208.23 148.65 Z" fill="#000000" fill-rule="evenodd" fill-opacity="1" /><path clip-path="url(#clip340)" d="M2236.01 138.766 L2236.01 142.794 Q2234.2 141.868 2232.26 141.405 Q2230.31 140.942 2228.23 140.942 Q2225.06 140.942 2223.46 141.914 Q2221.89 142.887 2221.89 144.831 Q2221.89 146.312 2223.02 147.169 Q2224.16 148.002 2227.58 148.766 L2229.04 149.09 Q2233.58 150.062 2235.47 151.845 Q2237.4 153.604 2237.4 156.775 Q2237.4 160.386 2234.53 162.493 Q2231.68 164.599 2226.68 164.599 Q2224.59 164.599 2222.33 164.183 Q2220.08 163.789 2217.58 162.979 L2217.58 158.581 Q2219.94 159.808 2222.23 160.433 Q2224.53 161.035 2226.77 161.035 Q2229.78 161.035 2231.4 160.016 Q2233.02 158.974 2233.02 157.099 Q2233.02 155.363 2231.84 154.437 Q2230.68 153.512 2226.72 152.655 L2225.24 152.308 Q2221.28 151.474 2219.53 149.762 Q2217.77 148.025 2217.77 145.016 Q2217.77 141.359 2220.36 139.368 Q2222.95 137.377 2227.72 137.377 Q2230.08 137.377 2232.16 137.725 Q2234.25 138.072 2236.01 138.766 Z" fill="#000000" fill-rule="evenodd" fill-opacity="1" /><polyline clip-path="url(#clip340)" style="stroke:#e26f46; stroke-linecap:butt; stroke-linejoin:round; stroke-width:4; stroke-opacity:1; fill:none" points="
  1564.3,198.488 1702.73,198.488 
  "/>
<path clip-path="url(#clip340)" d="M1753.67 183.87 L1753.67 188.801 Q1751.31 186.602 1748.63 185.514 Q1745.96 184.426 1742.95 184.426 Q1737.03 184.426 1733.88 188.06 Q1730.73 191.671 1730.73 198.523 Q1730.73 205.352 1733.88 208.986 Q1737.03 212.597 1742.95 212.597 Q1745.96 212.597 1748.63 211.509 Q1751.31 210.421 1753.67 208.222 L1753.67 213.106 Q1751.22 214.773 1748.46 215.606 Q1745.73 216.439 1742.68 216.439 Q1734.83 216.439 1730.32 211.648 Q1725.8 206.833 1725.8 198.523 Q1725.8 190.19 1730.32 185.398 Q1734.83 180.583 1742.68 180.583 Q1745.78 180.583 1748.51 181.416 Q1751.26 182.227 1753.67 183.87 Z" fill="#000000" fill-rule="evenodd" fill-opacity="1" /><path clip-path="url(#clip340)" d="M1772.49 202.736 Q1767.33 202.736 1765.34 203.916 Q1763.35 205.097 1763.35 207.944 Q1763.35 210.213 1764.83 211.555 Q1766.33 212.875 1768.9 212.875 Q1772.44 212.875 1774.57 210.375 Q1776.73 207.851 1776.73 203.685 L1776.73 202.736 L1772.49 202.736 M1780.99 200.977 L1780.99 215.768 L1776.73 215.768 L1776.73 211.833 Q1775.27 214.194 1773.09 215.328 Q1770.92 216.439 1767.77 216.439 Q1763.79 216.439 1761.43 214.217 Q1759.09 211.972 1759.09 208.222 Q1759.09 203.847 1762 201.625 Q1764.94 199.402 1770.75 199.402 L1776.73 199.402 L1776.73 198.986 Q1776.73 196.046 1774.78 194.449 Q1772.86 192.828 1769.37 192.828 Q1767.14 192.828 1765.04 193.361 Q1762.93 193.893 1760.99 194.958 L1760.99 191.023 Q1763.32 190.12 1765.52 189.68 Q1767.72 189.217 1769.81 189.217 Q1775.43 189.217 1778.21 192.134 Q1780.99 195.051 1780.99 200.977 Z" fill="#000000" fill-rule="evenodd" fill-opacity="1" /><path clip-path="url(#clip340)" d="M1811.31 200.12 L1811.31 215.768 L1807.05 215.768 L1807.05 200.259 Q1807.05 196.578 1805.62 194.75 Q1804.18 192.921 1801.31 192.921 Q1797.86 192.921 1795.87 195.12 Q1793.88 197.319 1793.88 201.115 L1793.88 215.768 L1789.6 215.768 L1789.6 189.842 L1793.88 189.842 L1793.88 193.87 Q1795.41 191.532 1797.47 190.375 Q1799.55 189.217 1802.26 189.217 Q1806.73 189.217 1809.02 191.995 Q1811.31 194.75 1811.31 200.12 Z" fill="#000000" fill-rule="evenodd" fill-opacity="1" /><path clip-path="url(#clip340)" d="M1829.85 192.828 Q1826.43 192.828 1824.44 195.514 Q1822.44 198.176 1822.44 202.828 Q1822.44 207.481 1824.41 210.166 Q1826.4 212.828 1829.85 212.828 Q1833.25 212.828 1835.25 210.143 Q1837.24 207.458 1837.24 202.828 Q1837.24 198.222 1835.25 195.537 Q1833.25 192.828 1829.85 192.828 M1829.85 189.217 Q1835.41 189.217 1838.58 192.828 Q1841.75 196.44 1841.75 202.828 Q1841.75 209.194 1838.58 212.828 Q1835.41 216.439 1829.85 216.439 Q1824.27 216.439 1821.1 212.828 Q1817.95 209.194 1817.95 202.828 Q1817.95 196.44 1821.1 192.828 Q1824.27 189.217 1829.85 189.217 Z" fill="#000000" fill-rule="evenodd" fill-opacity="1" /><path clip-path="url(#clip340)" d="M1870.36 200.12 L1870.36 215.768 L1866.1 215.768 L1866.1 200.259 Q1866.1 196.578 1864.67 194.75 Q1863.23 192.921 1860.36 192.921 Q1856.91 192.921 1854.92 195.12 Q1852.93 197.319 1852.93 201.115 L1852.93 215.768 L1848.65 215.768 L1848.65 189.842 L1852.93 189.842 L1852.93 193.87 Q1854.46 191.532 1856.52 190.375 Q1858.6 189.217 1861.31 189.217 Q1865.78 189.217 1868.07 191.995 Q1870.36 194.75 1870.36 200.12 Z" fill="#000000" fill-rule="evenodd" fill-opacity="1" /><path clip-path="url(#clip340)" d="M1878.86 189.842 L1883.12 189.842 L1883.12 215.768 L1878.86 215.768 L1878.86 189.842 M1878.86 179.75 L1883.12 179.75 L1883.12 185.143 L1878.86 185.143 L1878.86 179.75 Z" fill="#000000" fill-rule="evenodd" fill-opacity="1" /><path clip-path="url(#clip340)" d="M1910.68 190.838 L1910.68 194.819 Q1908.88 193.824 1907.05 193.338 Q1905.24 192.828 1903.39 192.828 Q1899.25 192.828 1896.96 195.467 Q1894.67 198.083 1894.67 202.828 Q1894.67 207.574 1896.96 210.213 Q1899.25 212.828 1903.39 212.828 Q1905.24 212.828 1907.05 212.342 Q1908.88 211.833 1910.68 210.838 L1910.68 214.773 Q1908.9 215.606 1906.98 216.023 Q1905.08 216.439 1902.93 216.439 Q1897.07 216.439 1893.62 212.759 Q1890.18 209.078 1890.18 202.828 Q1890.18 196.486 1893.65 192.852 Q1897.14 189.217 1903.21 189.217 Q1905.18 189.217 1907.05 189.634 Q1908.93 190.028 1910.68 190.838 Z" fill="#000000" fill-rule="evenodd" fill-opacity="1" /><path clip-path="url(#clip340)" d="M1929.87 202.736 Q1924.71 202.736 1922.72 203.916 Q1920.73 205.097 1920.73 207.944 Q1920.73 210.213 1922.21 211.555 Q1923.72 212.875 1926.29 212.875 Q1929.83 212.875 1931.96 210.375 Q1934.11 207.851 1934.11 203.685 L1934.11 202.736 L1929.87 202.736 M1938.37 200.977 L1938.37 215.768 L1934.11 215.768 L1934.11 211.833 Q1932.65 214.194 1930.48 215.328 Q1928.3 216.439 1925.15 216.439 Q1921.17 216.439 1918.81 214.217 Q1916.47 211.972 1916.47 208.222 Q1916.47 203.847 1919.39 201.625 Q1922.33 199.402 1928.14 199.402 L1934.11 199.402 L1934.11 198.986 Q1934.11 196.046 1932.17 194.449 Q1930.24 192.828 1926.75 192.828 Q1924.53 192.828 1922.42 193.361 Q1920.31 193.893 1918.37 194.958 L1918.37 191.023 Q1920.71 190.12 1922.91 189.68 Q1925.11 189.217 1927.19 189.217 Q1932.81 189.217 1935.59 192.134 Q1938.37 195.051 1938.37 200.977 Z" fill="#000000" fill-rule="evenodd" fill-opacity="1" /><path clip-path="url(#clip340)" d="M1947.14 179.75 L1951.4 179.75 L1951.4 215.768 L1947.14 215.768 L1947.14 179.75 Z" fill="#000000" fill-rule="evenodd" fill-opacity="1" /><path clip-path="url(#clip340)" d="M1995.57 194.819 Q1997.17 191.949 1999.39 190.583 Q2001.61 189.217 2004.62 189.217 Q2008.67 189.217 2010.87 192.065 Q2013.07 194.889 2013.07 200.12 L2013.07 215.768 L2008.79 215.768 L2008.79 200.259 Q2008.79 196.532 2007.47 194.727 Q2006.15 192.921 2003.44 192.921 Q2000.13 192.921 1998.21 195.12 Q1996.29 197.319 1996.29 201.115 L1996.29 215.768 L1992 215.768 L1992 200.259 Q1992 196.509 1990.68 194.727 Q1989.36 192.921 1986.61 192.921 Q1983.35 192.921 1981.42 195.143 Q1979.5 197.342 1979.5 201.115 L1979.5 215.768 L1975.22 215.768 L1975.22 189.842 L1979.5 189.842 L1979.5 193.87 Q1980.96 191.486 1983 190.352 Q1985.04 189.217 1987.84 189.217 Q1990.66 189.217 1992.63 190.653 Q1994.62 192.088 1995.57 194.819 Z" fill="#000000" fill-rule="evenodd" fill-opacity="1" /><path clip-path="url(#clip340)" d="M2031.61 192.828 Q2028.18 192.828 2026.19 195.514 Q2024.2 198.176 2024.2 202.828 Q2024.2 207.481 2026.17 210.166 Q2028.16 212.828 2031.61 212.828 Q2035.01 212.828 2037 210.143 Q2038.99 207.458 2038.99 202.828 Q2038.99 198.222 2037 195.537 Q2035.01 192.828 2031.61 192.828 M2031.61 189.217 Q2037.17 189.217 2040.34 192.828 Q2043.51 196.44 2043.51 202.828 Q2043.51 209.194 2040.34 212.828 Q2037.17 216.439 2031.61 216.439 Q2026.03 216.439 2022.86 212.828 Q2019.71 209.194 2019.71 202.828 Q2019.71 196.44 2022.86 192.828 Q2026.03 189.217 2031.61 189.217 Z" fill="#000000" fill-rule="evenodd" fill-opacity="1" /><path clip-path="url(#clip340)" d="M2067.63 193.777 L2067.63 179.75 L2071.89 179.75 L2071.89 215.768 L2067.63 215.768 L2067.63 211.879 Q2066.29 214.194 2064.23 215.328 Q2062.19 216.439 2059.32 216.439 Q2054.62 216.439 2051.66 212.689 Q2048.72 208.939 2048.72 202.828 Q2048.72 196.717 2051.66 192.967 Q2054.62 189.217 2059.32 189.217 Q2062.19 189.217 2064.23 190.352 Q2066.29 191.463 2067.63 193.777 M2053.11 202.828 Q2053.11 207.527 2055.04 210.213 Q2056.98 212.875 2060.36 212.875 Q2063.74 212.875 2065.68 210.213 Q2067.63 207.527 2067.63 202.828 Q2067.63 198.129 2065.68 195.467 Q2063.74 192.782 2060.36 192.782 Q2056.98 192.782 2055.04 195.467 Q2053.11 198.129 2053.11 202.828 Z" fill="#000000" fill-rule="evenodd" fill-opacity="1" /><path clip-path="url(#clip340)" d="M2102.84 201.74 L2102.84 203.824 L2083.25 203.824 Q2083.53 208.222 2085.89 210.537 Q2088.28 212.828 2092.51 212.828 Q2094.97 212.828 2097.26 212.226 Q2099.57 211.625 2101.84 210.421 L2101.84 214.449 Q2099.55 215.421 2097.14 215.93 Q2094.73 216.439 2092.26 216.439 Q2086.05 216.439 2082.42 212.828 Q2078.81 209.217 2078.81 203.06 Q2078.81 196.694 2082.23 192.967 Q2085.68 189.217 2091.52 189.217 Q2096.75 189.217 2099.78 192.597 Q2102.84 195.953 2102.84 201.74 M2098.58 200.49 Q2098.53 196.995 2096.61 194.912 Q2094.71 192.828 2091.56 192.828 Q2088 192.828 2085.85 194.842 Q2083.72 196.856 2083.39 200.514 L2098.58 200.49 Z" fill="#000000" fill-rule="evenodd" fill-opacity="1" /><path clip-path="url(#clip340)" d="M2109.83 179.75 L2114.09 179.75 L2114.09 215.768 L2109.83 215.768 L2109.83 179.75 Z" fill="#000000" fill-rule="evenodd" fill-opacity="1" /></svg>
