<?xml version="1.0" encoding="utf-8"?>
<svg xmlns="http://www.w3.org/2000/svg" xmlns:xlink="http://www.w3.org/1999/xlink" width="600" height="400" viewBox="0 0 2400 1600">
<defs>
  <clipPath id="clip000">
    <rect x="0" y="0" width="2400" height="1600"/>
  </clipPath>
</defs>
<path clip-path="url(#clip000)" d="
M0 1600 L2400 1600 L2400 0 L0 0  Z
  " fill="#ffffff" fill-rule="evenodd" fill-opacity="1"/>
<defs>
  <clipPath id="clip001">
    <rect x="480" y="0" width="1681" height="1600"/>
  </clipPath>
</defs>
<defs>
  <clipPath id="clip002">
    <rect x="217" y="47" width="2136" height="1381"/>
  </clipPath>
</defs>
<path clip-path="url(#clip000)" d="
M217.515 1427.14 L2352.76 1427.14 L2352.76 47.2441 L217.515 47.2441  Z
  " fill="#ffffff" fill-rule="evenodd" fill-opacity="1"/>
<polyline clip-path="url(#clip002)" style="stroke:#000000; stroke-linecap:butt; stroke-linejoin:round; stroke-width:2; stroke-opacity:0.1; fill:none" points="
  275.93,1427.14 275.93,47.2441 
  "/>
<polyline clip-path="url(#clip002)" style="stroke:#000000; stroke-linecap:butt; stroke-linejoin:round; stroke-width:2; stroke-opacity:0.1; fill:none" points="
  780.028,1427.14 780.028,47.2441 
  "/>
<polyline clip-path="url(#clip002)" style="stroke:#000000; stroke-linecap:butt; stroke-linejoin:round; stroke-width:2; stroke-opacity:0.1; fill:none" points="
  1284.13,1427.14 1284.13,47.2441 
  "/>
<polyline clip-path="url(#clip002)" style="stroke:#000000; stroke-linecap:butt; stroke-linejoin:round; stroke-width:2; stroke-opacity:0.1; fill:none" points="
  1788.23,1427.14 1788.23,47.2441 
  "/>
<polyline clip-path="url(#clip002)" style="stroke:#000000; stroke-linecap:butt; stroke-linejoin:round; stroke-width:2; stroke-opacity:0.1; fill:none" points="
  2292.32,1427.14 2292.32,47.2441 
  "/>
<polyline clip-path="url(#clip000)" style="stroke:#000000; stroke-linecap:butt; stroke-linejoin:round; stroke-width:4; stroke-opacity:1; fill:none" points="
  217.515,1427.14 2352.76,1427.14 
  "/>
<polyline clip-path="url(#clip000)" style="stroke:#000000; stroke-linecap:butt; stroke-linejoin:round; stroke-width:4; stroke-opacity:1; fill:none" points="
  275.93,1427.14 275.93,1408.24 
  "/>
<polyline clip-path="url(#clip000)" style="stroke:#000000; stroke-linecap:butt; stroke-linejoin:round; stroke-width:4; stroke-opacity:1; fill:none" points="
  780.028,1427.14 780.028,1408.24 
  "/>
<polyline clip-path="url(#clip000)" style="stroke:#000000; stroke-linecap:butt; stroke-linejoin:round; stroke-width:4; stroke-opacity:1; fill:none" points="
  1284.13,1427.14 1284.13,1408.24 
  "/>
<polyline clip-path="url(#clip000)" style="stroke:#000000; stroke-linecap:butt; stroke-linejoin:round; stroke-width:4; stroke-opacity:1; fill:none" points="
  1788.23,1427.14 1788.23,1408.24 
  "/>
<polyline clip-path="url(#clip000)" style="stroke:#000000; stroke-linecap:butt; stroke-linejoin:round; stroke-width:4; stroke-opacity:1; fill:none" points="
  2292.32,1427.14 2292.32,1408.24 
  "/>
<path clip-path="url(#clip000)" d="M208.071 1456.33 Q204.46 1456.33 202.631 1459.89 Q200.826 1463.43 200.826 1470.56 Q200.826 1477.67 202.631 1481.23 Q204.46 1484.78 208.071 1484.78 Q211.705 1484.78 213.511 1481.23 Q215.34 1477.67 215.34 1470.56 Q215.34 1463.43 213.511 1459.89 Q211.705 1456.33 208.071 1456.33 M208.071 1452.62 Q213.881 1452.62 216.937 1457.23 Q220.016 1461.81 220.016 1470.56 Q220.016 1479.29 216.937 1483.9 Q213.881 1488.48 208.071 1488.48 Q202.261 1488.48 199.182 1483.9 Q196.127 1479.29 196.127 1470.56 Q196.127 1461.81 199.182 1457.23 Q202.261 1452.62 208.071 1452.62 Z" fill="#000000" fill-rule="evenodd" fill-opacity="1" /><path clip-path="url(#clip000)" d="M228.233 1481.93 L233.117 1481.93 L233.117 1487.81 L228.233 1487.81 L228.233 1481.93 Z" fill="#000000" fill-rule="evenodd" fill-opacity="1" /><path clip-path="url(#clip000)" d="M253.302 1456.33 Q249.691 1456.33 247.863 1459.89 Q246.057 1463.43 246.057 1470.56 Q246.057 1477.67 247.863 1481.23 Q249.691 1484.78 253.302 1484.78 Q256.937 1484.78 258.742 1481.23 Q260.571 1477.67 260.571 1470.56 Q260.571 1463.43 258.742 1459.89 Q256.937 1456.33 253.302 1456.33 M253.302 1452.62 Q259.113 1452.62 262.168 1457.23 Q265.247 1461.81 265.247 1470.56 Q265.247 1479.29 262.168 1483.9 Q259.113 1488.48 253.302 1488.48 Q247.492 1488.48 244.414 1483.9 Q241.358 1479.29 241.358 1470.56 Q241.358 1461.81 244.414 1457.23 Q247.492 1452.62 253.302 1452.62 Z" fill="#000000" fill-rule="evenodd" fill-opacity="1" /><path clip-path="url(#clip000)" d="M283.464 1456.33 Q279.853 1456.33 278.024 1459.89 Q276.219 1463.43 276.219 1470.56 Q276.219 1477.67 278.024 1481.23 Q279.853 1484.78 283.464 1484.78 Q287.098 1484.78 288.904 1481.23 Q290.733 1477.67 290.733 1470.56 Q290.733 1463.43 288.904 1459.89 Q287.098 1456.33 283.464 1456.33 M283.464 1452.62 Q289.274 1452.62 292.33 1457.23 Q295.409 1461.81 295.409 1470.56 Q295.409 1479.29 292.33 1483.9 Q289.274 1488.48 283.464 1488.48 Q277.654 1488.48 274.575 1483.9 Q271.52 1479.29 271.52 1470.56 Q271.52 1461.81 274.575 1457.23 Q277.654 1452.62 283.464 1452.62 Z" fill="#000000" fill-rule="evenodd" fill-opacity="1" /><path clip-path="url(#clip000)" d="M313.626 1456.33 Q310.015 1456.33 308.186 1459.89 Q306.381 1463.43 306.381 1470.56 Q306.381 1477.67 308.186 1481.23 Q310.015 1484.78 313.626 1484.78 Q317.26 1484.78 319.066 1481.23 Q320.895 1477.67 320.895 1470.56 Q320.895 1463.43 319.066 1459.89 Q317.26 1456.33 313.626 1456.33 M313.626 1452.62 Q319.436 1452.62 322.492 1457.23 Q325.57 1461.81 325.57 1470.56 Q325.57 1479.29 322.492 1483.9 Q319.436 1488.48 313.626 1488.48 Q307.816 1488.48 304.737 1483.9 Q301.682 1479.29 301.682 1470.56 Q301.682 1461.81 304.737 1457.23 Q307.816 1452.62 313.626 1452.62 Z" fill="#000000" fill-rule="evenodd" fill-opacity="1" /><path clip-path="url(#clip000)" d="M343.788 1456.33 Q340.177 1456.33 338.348 1459.89 Q336.543 1463.43 336.543 1470.56 Q336.543 1477.67 338.348 1481.23 Q340.177 1484.78 343.788 1484.78 Q347.422 1484.78 349.228 1481.23 Q351.056 1477.67 351.056 1470.56 Q351.056 1463.43 349.228 1459.89 Q347.422 1456.33 343.788 1456.33 M343.788 1452.62 Q349.598 1452.62 352.654 1457.23 Q355.732 1461.81 355.732 1470.56 Q355.732 1479.29 352.654 1483.9 Q349.598 1488.48 343.788 1488.48 Q337.978 1488.48 334.899 1483.9 Q331.844 1479.29 331.844 1470.56 Q331.844 1461.81 334.899 1457.23 Q337.978 1452.62 343.788 1452.62 Z" fill="#000000" fill-rule="evenodd" fill-opacity="1" /><path clip-path="url(#clip000)" d="M712.668 1456.33 Q709.056 1456.33 707.228 1459.89 Q705.422 1463.43 705.422 1470.56 Q705.422 1477.67 707.228 1481.23 Q709.056 1484.78 712.668 1484.78 Q716.302 1484.78 718.107 1481.23 Q719.936 1477.67 719.936 1470.56 Q719.936 1463.43 718.107 1459.89 Q716.302 1456.33 712.668 1456.33 M712.668 1452.62 Q718.478 1452.62 721.533 1457.23 Q724.612 1461.81 724.612 1470.56 Q724.612 1479.29 721.533 1483.9 Q718.478 1488.48 712.668 1488.48 Q706.857 1488.48 703.779 1483.9 Q700.723 1479.29 700.723 1470.56 Q700.723 1461.81 703.779 1457.23 Q706.857 1452.62 712.668 1452.62 Z" fill="#000000" fill-rule="evenodd" fill-opacity="1" /><path clip-path="url(#clip000)" d="M732.829 1481.93 L737.714 1481.93 L737.714 1487.81 L732.829 1487.81 L732.829 1481.93 Z" fill="#000000" fill-rule="evenodd" fill-opacity="1" /><path clip-path="url(#clip000)" d="M757.899 1456.33 Q754.288 1456.33 752.459 1459.89 Q750.653 1463.43 750.653 1470.56 Q750.653 1477.67 752.459 1481.23 Q754.288 1484.78 757.899 1484.78 Q761.533 1484.78 763.339 1481.23 Q765.167 1477.67 765.167 1470.56 Q765.167 1463.43 763.339 1459.89 Q761.533 1456.33 757.899 1456.33 M757.899 1452.62 Q763.709 1452.62 766.764 1457.23 Q769.843 1461.81 769.843 1470.56 Q769.843 1479.29 766.764 1483.9 Q763.709 1488.48 757.899 1488.48 Q752.089 1488.48 749.01 1483.9 Q745.954 1479.29 745.954 1470.56 Q745.954 1461.81 749.01 1457.23 Q752.089 1452.62 757.899 1452.62 Z" fill="#000000" fill-rule="evenodd" fill-opacity="1" /><path clip-path="url(#clip000)" d="M788.061 1456.33 Q784.45 1456.33 782.621 1459.89 Q780.815 1463.43 780.815 1470.56 Q780.815 1477.67 782.621 1481.23 Q784.45 1484.78 788.061 1484.78 Q791.695 1484.78 793.5 1481.23 Q795.329 1477.67 795.329 1470.56 Q795.329 1463.43 793.5 1459.89 Q791.695 1456.33 788.061 1456.33 M788.061 1452.62 Q793.871 1452.62 796.926 1457.23 Q800.005 1461.81 800.005 1470.56 Q800.005 1479.29 796.926 1483.9 Q793.871 1488.48 788.061 1488.48 Q782.251 1488.48 779.172 1483.9 Q776.116 1479.29 776.116 1470.56 Q776.116 1461.81 779.172 1457.23 Q782.251 1452.62 788.061 1452.62 Z" fill="#000000" fill-rule="evenodd" fill-opacity="1" /><path clip-path="url(#clip000)" d="M812.25 1483.87 L828.57 1483.87 L828.57 1487.81 L806.625 1487.81 L806.625 1483.87 Q809.287 1481.12 813.871 1476.49 Q818.477 1471.84 819.658 1470.49 Q821.903 1467.97 822.783 1466.23 Q823.685 1464.48 823.685 1462.79 Q823.685 1460.03 821.741 1458.29 Q819.82 1456.56 816.718 1456.56 Q814.519 1456.56 812.065 1457.32 Q809.635 1458.09 806.857 1459.64 L806.857 1454.91 Q809.681 1453.78 812.135 1453.2 Q814.588 1452.62 816.625 1452.62 Q821.996 1452.62 825.19 1455.31 Q828.385 1457.99 828.385 1462.48 Q828.385 1464.61 827.574 1466.54 Q826.787 1468.43 824.681 1471.03 Q824.102 1471.7 821 1474.91 Q817.898 1478.11 812.25 1483.87 Z" fill="#000000" fill-rule="evenodd" fill-opacity="1" /><path clip-path="url(#clip000)" d="M838.431 1453.25 L856.787 1453.25 L856.787 1457.18 L842.713 1457.18 L842.713 1465.66 Q843.732 1465.31 844.75 1465.15 Q845.769 1464.96 846.787 1464.96 Q852.574 1464.96 855.954 1468.13 Q859.333 1471.3 859.333 1476.72 Q859.333 1482.3 855.861 1485.4 Q852.389 1488.48 846.07 1488.48 Q843.894 1488.48 841.625 1488.11 Q839.38 1487.74 836.972 1487 L836.972 1482.3 Q839.056 1483.43 841.278 1483.99 Q843.5 1484.54 845.977 1484.54 Q849.982 1484.54 852.32 1482.44 Q854.658 1480.33 854.658 1476.72 Q854.658 1473.11 852.32 1471 Q849.982 1468.9 845.977 1468.9 Q844.102 1468.9 842.227 1469.31 Q840.375 1469.73 838.431 1470.61 L838.431 1453.25 Z" fill="#000000" fill-rule="evenodd" fill-opacity="1" /><path clip-path="url(#clip000)" d="M1216.27 1456.33 Q1212.66 1456.33 1210.83 1459.89 Q1209.02 1463.43 1209.02 1470.56 Q1209.02 1477.67 1210.83 1481.23 Q1212.66 1484.78 1216.27 1484.78 Q1219.9 1484.78 1221.71 1481.23 Q1223.54 1477.67 1223.54 1470.56 Q1223.54 1463.43 1221.71 1459.89 Q1219.9 1456.33 1216.27 1456.33 M1216.27 1452.62 Q1222.08 1452.62 1225.13 1457.23 Q1228.21 1461.81 1228.21 1470.56 Q1228.21 1479.29 1225.13 1483.9 Q1222.08 1488.48 1216.27 1488.48 Q1210.46 1488.48 1207.38 1483.9 Q1204.32 1479.29 1204.32 1470.56 Q1204.32 1461.81 1207.38 1457.23 Q1210.46 1452.62 1216.27 1452.62 Z" fill="#000000" fill-rule="evenodd" fill-opacity="1" /><path clip-path="url(#clip000)" d="M1236.43 1481.93 L1241.31 1481.93 L1241.31 1487.81 L1236.43 1487.81 L1236.43 1481.93 Z" fill="#000000" fill-rule="evenodd" fill-opacity="1" /><path clip-path="url(#clip000)" d="M1261.5 1456.33 Q1257.89 1456.33 1256.06 1459.89 Q1254.25 1463.43 1254.25 1470.56 Q1254.25 1477.67 1256.06 1481.23 Q1257.89 1484.78 1261.5 1484.78 Q1265.13 1484.78 1266.94 1481.23 Q1268.77 1477.67 1268.77 1470.56 Q1268.77 1463.43 1266.94 1459.89 Q1265.13 1456.33 1261.5 1456.33 M1261.5 1452.62 Q1267.31 1452.62 1270.37 1457.23 Q1273.44 1461.81 1273.44 1470.56 Q1273.44 1479.29 1270.37 1483.9 Q1267.31 1488.48 1261.5 1488.48 Q1255.69 1488.48 1252.61 1483.9 Q1249.56 1479.29 1249.56 1470.56 Q1249.56 1461.81 1252.61 1457.23 Q1255.69 1452.62 1261.5 1452.62 Z" fill="#000000" fill-rule="evenodd" fill-opacity="1" /><path clip-path="url(#clip000)" d="M1291.66 1456.33 Q1288.05 1456.33 1286.22 1459.89 Q1284.42 1463.43 1284.42 1470.56 Q1284.42 1477.67 1286.22 1481.23 Q1288.05 1484.78 1291.66 1484.78 Q1295.3 1484.78 1297.1 1481.23 Q1298.93 1477.67 1298.93 1470.56 Q1298.93 1463.43 1297.1 1459.89 Q1295.3 1456.33 1291.66 1456.33 M1291.66 1452.62 Q1297.47 1452.62 1300.53 1457.23 Q1303.61 1461.81 1303.61 1470.56 Q1303.61 1479.29 1300.53 1483.9 Q1297.47 1488.48 1291.66 1488.48 Q1285.85 1488.48 1282.77 1483.9 Q1279.72 1479.29 1279.72 1470.56 Q1279.72 1461.81 1282.77 1457.23 Q1285.85 1452.62 1291.66 1452.62 Z" fill="#000000" fill-rule="evenodd" fill-opacity="1" /><path clip-path="url(#clip000)" d="M1311.87 1453.25 L1330.23 1453.25 L1330.23 1457.18 L1316.15 1457.18 L1316.15 1465.66 Q1317.17 1465.31 1318.19 1465.15 Q1319.21 1464.96 1320.23 1464.96 Q1326.01 1464.96 1329.39 1468.13 Q1332.77 1471.3 1332.77 1476.72 Q1332.77 1482.3 1329.3 1485.4 Q1325.83 1488.48 1319.51 1488.48 Q1317.33 1488.48 1315.06 1488.11 Q1312.82 1487.74 1310.41 1487 L1310.41 1482.3 Q1312.49 1483.43 1314.72 1483.99 Q1316.94 1484.54 1319.42 1484.54 Q1323.42 1484.54 1325.76 1482.44 Q1328.1 1480.33 1328.1 1476.72 Q1328.1 1473.11 1325.76 1471 Q1323.42 1468.9 1319.42 1468.9 Q1317.54 1468.9 1315.67 1469.31 Q1313.81 1469.73 1311.87 1470.61 L1311.87 1453.25 Z" fill="#000000" fill-rule="evenodd" fill-opacity="1" /><path clip-path="url(#clip000)" d="M1351.99 1456.33 Q1348.37 1456.33 1346.55 1459.89 Q1344.74 1463.43 1344.74 1470.56 Q1344.74 1477.67 1346.55 1481.23 Q1348.37 1484.78 1351.99 1484.78 Q1355.62 1484.78 1357.43 1481.23 Q1359.25 1477.67 1359.25 1470.56 Q1359.25 1463.43 1357.43 1459.89 Q1355.62 1456.33 1351.99 1456.33 M1351.99 1452.62 Q1357.8 1452.62 1360.85 1457.23 Q1363.93 1461.81 1363.93 1470.56 Q1363.93 1479.29 1360.85 1483.9 Q1357.8 1488.48 1351.99 1488.48 Q1346.18 1488.48 1343.1 1483.9 Q1340.04 1479.29 1340.04 1470.56 Q1340.04 1461.81 1343.1 1457.23 Q1346.18 1452.62 1351.99 1452.62 Z" fill="#000000" fill-rule="evenodd" fill-opacity="1" /><path clip-path="url(#clip000)" d="M1720.87 1456.33 Q1717.25 1456.33 1715.43 1459.89 Q1713.62 1463.43 1713.62 1470.56 Q1713.62 1477.67 1715.43 1481.23 Q1717.25 1484.78 1720.87 1484.78 Q1724.5 1484.78 1726.3 1481.23 Q1728.13 1477.67 1728.13 1470.56 Q1728.13 1463.43 1726.3 1459.89 Q1724.5 1456.33 1720.87 1456.33 M1720.87 1452.62 Q1726.68 1452.62 1729.73 1457.23 Q1732.81 1461.81 1732.81 1470.56 Q1732.81 1479.29 1729.73 1483.9 Q1726.68 1488.48 1720.87 1488.48 Q1715.05 1488.48 1711.98 1483.9 Q1708.92 1479.29 1708.92 1470.56 Q1708.92 1461.81 1711.98 1457.23 Q1715.05 1452.62 1720.87 1452.62 Z" fill="#000000" fill-rule="evenodd" fill-opacity="1" /><path clip-path="url(#clip000)" d="M1741.03 1481.93 L1745.91 1481.93 L1745.91 1487.81 L1741.03 1487.81 L1741.03 1481.93 Z" fill="#000000" fill-rule="evenodd" fill-opacity="1" /><path clip-path="url(#clip000)" d="M1766.1 1456.33 Q1762.49 1456.33 1760.66 1459.89 Q1758.85 1463.43 1758.85 1470.56 Q1758.85 1477.67 1760.66 1481.23 Q1762.49 1484.78 1766.1 1484.78 Q1769.73 1484.78 1771.54 1481.23 Q1773.36 1477.67 1773.36 1470.56 Q1773.36 1463.43 1771.54 1459.89 Q1769.73 1456.33 1766.1 1456.33 M1766.1 1452.62 Q1771.91 1452.62 1774.96 1457.23 Q1778.04 1461.81 1778.04 1470.56 Q1778.04 1479.29 1774.96 1483.9 Q1771.91 1488.48 1766.1 1488.48 Q1760.29 1488.48 1757.21 1483.9 Q1754.15 1479.29 1754.15 1470.56 Q1754.15 1461.81 1757.21 1457.23 Q1760.29 1452.62 1766.1 1452.62 Z" fill="#000000" fill-rule="evenodd" fill-opacity="1" /><path clip-path="url(#clip000)" d="M1796.26 1456.33 Q1792.65 1456.33 1790.82 1459.89 Q1789.01 1463.43 1789.01 1470.56 Q1789.01 1477.67 1790.82 1481.23 Q1792.65 1484.78 1796.26 1484.78 Q1799.89 1484.78 1801.7 1481.23 Q1803.53 1477.67 1803.53 1470.56 Q1803.53 1463.43 1801.7 1459.89 Q1799.89 1456.33 1796.26 1456.33 M1796.26 1452.62 Q1802.07 1452.62 1805.12 1457.23 Q1808.2 1461.81 1808.2 1470.56 Q1808.2 1479.29 1805.12 1483.9 Q1802.07 1488.48 1796.26 1488.48 Q1790.45 1488.48 1787.37 1483.9 Q1784.31 1479.29 1784.31 1470.56 Q1784.31 1461.81 1787.37 1457.23 Q1790.45 1452.62 1796.26 1452.62 Z" fill="#000000" fill-rule="evenodd" fill-opacity="1" /><path clip-path="url(#clip000)" d="M1815.24 1453.25 L1837.46 1453.25 L1837.46 1455.24 L1824.92 1487.81 L1820.03 1487.81 L1831.84 1457.18 L1815.24 1457.18 L1815.24 1453.25 Z" fill="#000000" fill-rule="evenodd" fill-opacity="1" /><path clip-path="url(#clip000)" d="M1846.63 1453.25 L1864.98 1453.25 L1864.98 1457.18 L1850.91 1457.18 L1850.91 1465.66 Q1851.93 1465.31 1852.95 1465.15 Q1853.97 1464.96 1854.98 1464.96 Q1860.77 1464.96 1864.15 1468.13 Q1867.53 1471.3 1867.53 1476.72 Q1867.53 1482.3 1864.06 1485.4 Q1860.59 1488.48 1854.27 1488.48 Q1852.09 1488.48 1849.82 1488.11 Q1847.58 1487.74 1845.17 1487 L1845.17 1482.3 Q1847.25 1483.43 1849.48 1483.99 Q1851.7 1484.54 1854.17 1484.54 Q1858.18 1484.54 1860.52 1482.44 Q1862.86 1480.33 1862.86 1476.72 Q1862.86 1473.11 1860.52 1471 Q1858.18 1468.9 1854.17 1468.9 Q1852.3 1468.9 1850.42 1469.31 Q1848.57 1469.73 1846.63 1470.61 L1846.63 1453.25 Z" fill="#000000" fill-rule="evenodd" fill-opacity="1" /><path clip-path="url(#clip000)" d="M2224.47 1456.33 Q2220.86 1456.33 2219.03 1459.89 Q2217.22 1463.43 2217.22 1470.56 Q2217.22 1477.67 2219.03 1481.23 Q2220.86 1484.78 2224.47 1484.78 Q2228.1 1484.78 2229.91 1481.23 Q2231.73 1477.67 2231.73 1470.56 Q2231.73 1463.43 2229.91 1459.89 Q2228.1 1456.33 2224.47 1456.33 M2224.47 1452.62 Q2230.28 1452.62 2233.33 1457.23 Q2236.41 1461.81 2236.41 1470.56 Q2236.41 1479.29 2233.33 1483.9 Q2230.28 1488.48 2224.47 1488.48 Q2218.66 1488.48 2215.58 1483.9 Q2212.52 1479.29 2212.52 1470.56 Q2212.52 1461.81 2215.58 1457.23 Q2218.66 1452.62 2224.47 1452.62 Z" fill="#000000" fill-rule="evenodd" fill-opacity="1" /><path clip-path="url(#clip000)" d="M2244.63 1481.93 L2249.51 1481.93 L2249.51 1487.81 L2244.63 1487.81 L2244.63 1481.93 Z" fill="#000000" fill-rule="evenodd" fill-opacity="1" /><path clip-path="url(#clip000)" d="M2269.7 1456.33 Q2266.09 1456.33 2264.26 1459.89 Q2262.45 1463.43 2262.45 1470.56 Q2262.45 1477.67 2264.26 1481.23 Q2266.09 1484.78 2269.7 1484.78 Q2273.33 1484.78 2275.14 1481.23 Q2276.97 1477.67 2276.97 1470.56 Q2276.97 1463.43 2275.14 1459.89 Q2273.33 1456.33 2269.7 1456.33 M2269.7 1452.62 Q2275.51 1452.62 2278.56 1457.23 Q2281.64 1461.81 2281.64 1470.56 Q2281.64 1479.29 2278.56 1483.9 Q2275.51 1488.48 2269.7 1488.48 Q2263.89 1488.48 2260.81 1483.9 Q2257.75 1479.29 2257.75 1470.56 Q2257.75 1461.81 2260.81 1457.23 Q2263.89 1452.62 2269.7 1452.62 Z" fill="#000000" fill-rule="evenodd" fill-opacity="1" /><path clip-path="url(#clip000)" d="M2290.67 1483.87 L2298.31 1483.87 L2298.31 1457.51 L2290 1459.17 L2290 1454.91 L2298.26 1453.25 L2302.94 1453.25 L2302.94 1483.87 L2310.58 1483.87 L2310.58 1487.81 L2290.67 1487.81 L2290.67 1483.87 Z" fill="#000000" fill-rule="evenodd" fill-opacity="1" /><path clip-path="url(#clip000)" d="M2330.02 1456.33 Q2326.41 1456.33 2324.58 1459.89 Q2322.78 1463.43 2322.78 1470.56 Q2322.78 1477.67 2324.58 1481.23 Q2326.41 1484.78 2330.02 1484.78 Q2333.66 1484.78 2335.46 1481.23 Q2337.29 1477.67 2337.29 1470.56 Q2337.29 1463.43 2335.46 1459.89 Q2333.66 1456.33 2330.02 1456.33 M2330.02 1452.62 Q2335.83 1452.62 2338.89 1457.23 Q2341.97 1461.81 2341.97 1470.56 Q2341.97 1479.29 2338.89 1483.9 Q2335.83 1488.48 2330.02 1488.48 Q2324.21 1488.48 2321.13 1483.9 Q2318.08 1479.29 2318.08 1470.56 Q2318.08 1461.81 2321.13 1457.23 Q2324.21 1452.62 2330.02 1452.62 Z" fill="#000000" fill-rule="evenodd" fill-opacity="1" /><path clip-path="url(#clip000)" d="M2360.18 1456.33 Q2356.57 1456.33 2354.74 1459.89 Q2352.94 1463.43 2352.94 1470.56 Q2352.94 1477.67 2354.74 1481.23 Q2356.57 1484.78 2360.18 1484.78 Q2363.82 1484.78 2365.62 1481.23 Q2367.45 1477.67 2367.45 1470.56 Q2367.45 1463.43 2365.62 1459.89 Q2363.82 1456.33 2360.18 1456.33 M2360.18 1452.62 Q2365.99 1452.62 2369.05 1457.23 Q2372.13 1461.81 2372.13 1470.56 Q2372.13 1479.29 2369.05 1483.9 Q2365.99 1488.48 2360.18 1488.48 Q2354.37 1488.48 2351.29 1483.9 Q2348.24 1479.29 2348.24 1470.56 Q2348.24 1461.81 2351.29 1457.23 Q2354.37 1452.62 2360.18 1452.62 Z" fill="#000000" fill-rule="evenodd" fill-opacity="1" /><path clip-path="url(#clip000)" d="M1283.68 1528.78 Q1283.68 1530.61 1282.55 1531.71 Q1281.46 1532.8 1280.07 1532.8 Q1278.85 1532.8 1278.21 1532.1 Q1277.56 1531.39 1277.56 1530.49 Q1277.56 1530.1 1277.72 1529.62 Q1277.88 1529.1 1278.24 1528.49 Q1278.62 1527.88 1279.43 1527.43 Q1280.23 1526.97 1281.33 1526.91 Q1281.1 1526.68 1281.04 1526.65 Q1280.56 1526.27 1279.65 1526.14 Q1279.53 1526.07 1279.08 1526.07 Q1276.85 1526.07 1274.6 1527.72 Q1272.38 1529.33 1269.64 1532.39 Q1266.19 1535.96 1263.97 1537.28 Q1273.73 1538.57 1273.73 1544.2 Q1273.73 1545.14 1273.47 1546.27 Q1272.96 1548.39 1272.96 1549.94 Q1272.96 1553.03 1275.05 1553.03 Q1277.08 1553.03 1278.37 1550.97 Q1279.69 1548.91 1280.78 1544.88 Q1280.94 1544.14 1281.1 1543.91 Q1281.27 1543.69 1281.72 1543.69 Q1282.52 1543.69 1282.52 1544.33 Q1281.78 1548.1 1280.14 1551 Q1278.04 1554.51 1274.92 1554.51 Q1272.31 1554.51 1270.57 1552.71 Q1268.87 1550.87 1268.87 1547.97 Q1268.87 1547.26 1269.12 1545.65 Q1269.32 1545.01 1269.32 1544.27 Q1269.32 1542.76 1268.48 1541.63 Q1267.64 1540.47 1266.29 1539.89 Q1264.94 1539.31 1263.81 1539.05 Q1262.71 1538.76 1261.65 1538.67 Q1258.43 1552.29 1257.98 1553.13 Q1257.69 1553.71 1257.05 1554.09 Q1256.4 1554.51 1255.73 1554.51 Q1255.08 1554.51 1254.44 1554.06 Q1253.83 1553.64 1253.83 1552.64 Q1253.83 1552.13 1254.08 1551.19 L1263.65 1513.19 L1263.84 1511.9 Q1263.84 1511.52 1263.68 1511.32 Q1263.55 1511.1 1262.78 1510.94 Q1262.04 1510.78 1260.56 1510.78 Q1259.94 1510.78 1259.65 1510.74 Q1259.4 1510.71 1259.17 1510.55 Q1258.95 1510.36 1258.95 1509.97 Q1258.95 1509.42 1259.17 1509.13 Q1259.43 1508.81 1259.62 1508.75 Q1259.82 1508.68 1260.2 1508.65 Q1260.75 1508.62 1262.59 1508.46 Q1264.42 1508.26 1266 1508.13 Q1267.58 1508.01 1268.25 1508.01 Q1268.64 1508.01 1268.83 1508.2 Q1269.06 1508.36 1269.09 1508.55 L1269.12 1508.71 L1262.26 1536.54 Q1265.1 1535.41 1269.57 1530.42 Q1274.76 1524.62 1279.2 1524.62 Q1281.3 1524.62 1282.49 1525.91 Q1283.68 1527.17 1283.68 1528.78 Z" fill="#000000" fill-rule="evenodd" fill-opacity="1" /><path clip-path="url(#clip000)" d="M1290.43 1566.56 Q1290.43 1565.18 1291.22 1564.53 Q1292.01 1563.88 1293.02 1563.88 Q1294.08 1563.88 1294.82 1564.57 Q1295.59 1565.25 1295.59 1566.45 Q1295.59 1567.73 1294.69 1568.45 Q1293.81 1569.17 1292.55 1568.99 Q1293.65 1570.84 1295.68 1571.68 Q1297.73 1572.51 1299.63 1572.51 Q1301.61 1572.51 1303.21 1570.8 Q1304.83 1569.08 1304.83 1564.89 Q1304.83 1561.33 1303.44 1559.28 Q1302.06 1557.23 1299.33 1557.23 L1297.3 1557.23 Q1296.61 1557.23 1296.4 1557.16 Q1296.2 1557.09 1296.2 1556.71 Q1296.2 1556.26 1296.9 1556.17 Q1297.6 1556.17 1298.7 1556.03 Q1301.38 1555.94 1302.8 1553.62 Q1304.09 1551.45 1304.09 1548.37 Q1304.09 1545.55 1302.74 1544.38 Q1301.41 1543.18 1299.67 1543.18 Q1298.05 1543.18 1296.27 1543.86 Q1294.49 1544.53 1293.52 1546.04 Q1296.38 1546.04 1296.38 1548.37 Q1296.38 1549.38 1295.73 1550.06 Q1295.09 1550.71 1294.04 1550.71 Q1293.02 1550.71 1292.34 1550.08 Q1291.67 1549.43 1291.67 1548.32 Q1291.67 1545.68 1294.01 1543.86 Q1296.38 1542.03 1299.85 1542.03 Q1303.28 1542.03 1305.8 1543.83 Q1308.35 1545.64 1308.35 1548.41 Q1308.35 1551.14 1306.55 1553.37 Q1304.74 1555.6 1301.88 1556.53 Q1305.4 1557.23 1307.49 1559.62 Q1309.59 1561.98 1309.59 1564.89 Q1309.59 1568.5 1306.75 1571.16 Q1303.91 1573.8 1299.76 1573.8 Q1295.93 1573.8 1293.18 1571.72 Q1290.43 1569.65 1290.43 1566.56 Z" fill="#000000" fill-rule="evenodd" fill-opacity="1" /><polyline clip-path="url(#clip002)" style="stroke:#000000; stroke-linecap:butt; stroke-linejoin:round; stroke-width:2; stroke-opacity:0.1; fill:none" points="
  217.515,1320.76 2352.76,1320.76 
  "/>
<polyline clip-path="url(#clip002)" style="stroke:#000000; stroke-linecap:butt; stroke-linejoin:round; stroke-width:2; stroke-opacity:0.1; fill:none" points="
  217.515,970.528 2352.76,970.528 
  "/>
<polyline clip-path="url(#clip002)" style="stroke:#000000; stroke-linecap:butt; stroke-linejoin:round; stroke-width:2; stroke-opacity:0.1; fill:none" points="
  217.515,620.294 2352.76,620.294 
  "/>
<polyline clip-path="url(#clip002)" style="stroke:#000000; stroke-linecap:butt; stroke-linejoin:round; stroke-width:2; stroke-opacity:0.1; fill:none" points="
  217.515,270.06 2352.76,270.06 
  "/>
<polyline clip-path="url(#clip000)" style="stroke:#000000; stroke-linecap:butt; stroke-linejoin:round; stroke-width:4; stroke-opacity:1; fill:none" points="
  217.515,1427.14 217.515,47.2441 
  "/>
<polyline clip-path="url(#clip000)" style="stroke:#000000; stroke-linecap:butt; stroke-linejoin:round; stroke-width:4; stroke-opacity:1; fill:none" points="
  217.515,1320.76 236.412,1320.76 
  "/>
<polyline clip-path="url(#clip000)" style="stroke:#000000; stroke-linecap:butt; stroke-linejoin:round; stroke-width:4; stroke-opacity:1; fill:none" points="
  217.515,970.528 236.412,970.528 
  "/>
<polyline clip-path="url(#clip000)" style="stroke:#000000; stroke-linecap:butt; stroke-linejoin:round; stroke-width:4; stroke-opacity:1; fill:none" points="
  217.515,620.294 236.412,620.294 
  "/>
<polyline clip-path="url(#clip000)" style="stroke:#000000; stroke-linecap:butt; stroke-linejoin:round; stroke-width:4; stroke-opacity:1; fill:none" points="
  217.515,270.06 236.412,270.06 
  "/>
<path clip-path="url(#clip000)" d="M125.936 1306.56 Q122.325 1306.56 120.496 1310.13 Q118.691 1313.67 118.691 1320.8 Q118.691 1327.9 120.496 1331.47 Q122.325 1335.01 125.936 1335.01 Q129.57 1335.01 131.376 1331.47 Q133.205 1327.9 133.205 1320.8 Q133.205 1313.67 131.376 1310.13 Q129.57 1306.56 125.936 1306.56 M125.936 1302.86 Q131.746 1302.86 134.802 1307.46 Q137.881 1312.05 137.881 1320.8 Q137.881 1329.52 134.802 1334.13 Q131.746 1338.71 125.936 1338.71 Q120.126 1338.71 117.047 1334.13 Q113.992 1329.52 113.992 1320.8 Q113.992 1312.05 117.047 1307.46 Q120.126 1302.86 125.936 1302.86 Z" fill="#000000" fill-rule="evenodd" fill-opacity="1" /><path clip-path="url(#clip000)" d="M146.098 1332.16 L150.982 1332.16 L150.982 1338.04 L146.098 1338.04 L146.098 1332.16 Z" fill="#000000" fill-rule="evenodd" fill-opacity="1" /><path clip-path="url(#clip000)" d="M165.195 1334.11 L181.515 1334.11 L181.515 1338.04 L159.57 1338.04 L159.57 1334.11 Q162.232 1331.35 166.816 1326.72 Q171.422 1322.07 172.603 1320.73 Q174.848 1318.2 175.728 1316.47 Q176.63 1314.71 176.63 1313.02 Q176.63 1310.26 174.686 1308.53 Q172.765 1306.79 169.663 1306.79 Q167.464 1306.79 165.01 1307.56 Q162.58 1308.32 159.802 1309.87 L159.802 1305.15 Q162.626 1304.01 165.08 1303.44 Q167.533 1302.86 169.57 1302.86 Q174.941 1302.86 178.135 1305.54 Q181.329 1308.23 181.329 1312.72 Q181.329 1314.85 180.519 1316.77 Q179.732 1318.67 177.626 1321.26 Q177.047 1321.93 173.945 1325.15 Q170.843 1328.34 165.195 1334.11 Z" fill="#000000" fill-rule="evenodd" fill-opacity="1" /><path clip-path="url(#clip000)" d="M123.853 956.327 Q120.242 956.327 118.413 959.892 Q116.608 963.433 116.608 970.563 Q116.608 977.669 118.413 981.234 Q120.242 984.776 123.853 984.776 Q127.487 984.776 129.293 981.234 Q131.121 977.669 131.121 970.563 Q131.121 963.433 129.293 959.892 Q127.487 956.327 123.853 956.327 M123.853 952.623 Q129.663 952.623 132.719 957.23 Q135.797 961.813 135.797 970.563 Q135.797 979.29 132.719 983.896 Q129.663 988.48 123.853 988.48 Q118.043 988.48 114.964 983.896 Q111.908 979.29 111.908 970.563 Q111.908 961.813 114.964 957.23 Q118.043 952.623 123.853 952.623 Z" fill="#000000" fill-rule="evenodd" fill-opacity="1" /><path clip-path="url(#clip000)" d="M144.015 981.929 L148.899 981.929 L148.899 987.808 L144.015 987.808 L144.015 981.929 Z" fill="#000000" fill-rule="evenodd" fill-opacity="1" /><path clip-path="url(#clip000)" d="M171.931 957.322 L160.126 975.771 L171.931 975.771 L171.931 957.322 M170.704 953.248 L176.584 953.248 L176.584 975.771 L181.515 975.771 L181.515 979.66 L176.584 979.66 L176.584 987.808 L171.931 987.808 L171.931 979.66 L156.33 979.66 L156.33 975.146 L170.704 953.248 Z" fill="#000000" fill-rule="evenodd" fill-opacity="1" /><path clip-path="url(#clip000)" d="M124.177 606.093 Q120.566 606.093 118.737 609.658 Q116.932 613.199 116.932 620.329 Q116.932 627.435 118.737 631 Q120.566 634.542 124.177 634.542 Q127.811 634.542 129.617 631 Q131.445 627.435 131.445 620.329 Q131.445 613.199 129.617 609.658 Q127.811 606.093 124.177 606.093 M124.177 602.389 Q129.987 602.389 133.043 606.996 Q136.121 611.579 136.121 620.329 Q136.121 629.056 133.043 633.662 Q129.987 638.245 124.177 638.245 Q118.367 638.245 115.288 633.662 Q112.233 629.056 112.233 620.329 Q112.233 611.579 115.288 606.996 Q118.367 602.389 124.177 602.389 Z" fill="#000000" fill-rule="evenodd" fill-opacity="1" /><path clip-path="url(#clip000)" d="M144.339 631.694 L149.223 631.694 L149.223 637.574 L144.339 637.574 L144.339 631.694 Z" fill="#000000" fill-rule="evenodd" fill-opacity="1" /><path clip-path="url(#clip000)" d="M169.987 618.431 Q166.839 618.431 164.987 620.583 Q163.158 622.736 163.158 626.486 Q163.158 630.213 164.987 632.389 Q166.839 634.542 169.987 634.542 Q173.135 634.542 174.964 632.389 Q176.816 630.213 176.816 626.486 Q176.816 622.736 174.964 620.583 Q173.135 618.431 169.987 618.431 M179.269 603.778 L179.269 608.037 Q177.51 607.204 175.704 606.764 Q173.922 606.324 172.163 606.324 Q167.533 606.324 165.08 609.449 Q162.649 612.574 162.302 618.894 Q163.667 616.88 165.728 615.815 Q167.788 614.727 170.265 614.727 Q175.473 614.727 178.482 617.898 Q181.515 621.046 181.515 626.486 Q181.515 631.81 178.366 635.028 Q175.218 638.245 169.987 638.245 Q163.992 638.245 160.82 633.662 Q157.649 629.056 157.649 620.329 Q157.649 612.134 161.538 607.273 Q165.427 602.389 171.978 602.389 Q173.737 602.389 175.519 602.736 Q177.325 603.084 179.269 603.778 Z" fill="#000000" fill-rule="evenodd" fill-opacity="1" /><path clip-path="url(#clip000)" d="M124.432 255.859 Q120.82 255.859 118.992 259.423 Q117.186 262.965 117.186 270.095 Q117.186 277.201 118.992 280.766 Q120.82 284.307 124.432 284.307 Q128.066 284.307 129.871 280.766 Q131.7 277.201 131.7 270.095 Q131.7 262.965 129.871 259.423 Q128.066 255.859 124.432 255.859 M124.432 252.155 Q130.242 252.155 133.297 256.761 Q136.376 261.345 136.376 270.095 Q136.376 278.821 133.297 283.428 Q130.242 288.011 124.432 288.011 Q118.621 288.011 115.543 283.428 Q112.487 278.821 112.487 270.095 Q112.487 261.345 115.543 256.761 Q118.621 252.155 124.432 252.155 Z" fill="#000000" fill-rule="evenodd" fill-opacity="1" /><path clip-path="url(#clip000)" d="M144.594 281.46 L149.478 281.46 L149.478 287.34 L144.594 287.34 L144.594 281.46 Z" fill="#000000" fill-rule="evenodd" fill-opacity="1" /><path clip-path="url(#clip000)" d="M169.663 270.928 Q166.329 270.928 164.408 272.71 Q162.51 274.493 162.51 277.618 Q162.51 280.743 164.408 282.525 Q166.329 284.307 169.663 284.307 Q172.996 284.307 174.917 282.525 Q176.839 280.72 176.839 277.618 Q176.839 274.493 174.917 272.71 Q173.019 270.928 169.663 270.928 M164.987 268.937 Q161.978 268.196 160.288 266.136 Q158.621 264.076 158.621 261.113 Q158.621 256.97 161.561 254.562 Q164.524 252.155 169.663 252.155 Q174.825 252.155 177.765 254.562 Q180.704 256.97 180.704 261.113 Q180.704 264.076 179.015 266.136 Q177.348 268.196 174.362 268.937 Q177.741 269.724 179.616 272.016 Q181.515 274.308 181.515 277.618 Q181.515 282.641 178.436 285.326 Q175.38 288.011 169.663 288.011 Q163.945 288.011 160.867 285.326 Q157.811 282.641 157.811 277.618 Q157.811 274.308 159.709 272.016 Q161.607 269.724 164.987 268.937 M163.274 261.553 Q163.274 264.238 164.941 265.743 Q166.63 267.247 169.663 267.247 Q172.672 267.247 174.362 265.743 Q176.075 264.238 176.075 261.553 Q176.075 258.868 174.362 257.363 Q172.672 255.859 169.663 255.859 Q166.63 255.859 164.941 257.363 Q163.274 258.868 163.274 261.553 Z" fill="#000000" fill-rule="evenodd" fill-opacity="1" /><path clip-path="url(#clip000)" d="M61.0527 827.739 Q60.7951 827.739 59.1204 826.869 Q57.4135 826 51.3266 822.94 Q45.2075 819.88 38.7985 816.724 L15.9323 805.356 Q14.4831 804.55 14.4831 803.52 Q14.4831 802.586 15.0628 802.167 Q15.6425 801.748 19.5394 799.816 Q21.4395 798.818 22.6634 798.238 L59.99 779.591 Q60.7951 779.269 61.0527 779.237 Q61.6969 779.237 61.6969 780.364 L61.6969 826 Q61.6969 827.739 61.0527 827.739 M56.6728 823.391 L56.6728 787.9 L21.0531 805.645 L56.6728 823.391 Z" fill="#000000" fill-rule="evenodd" fill-opacity="1" /><path clip-path="url(#clip000)" d="M18.6376 726.26 L30.0385 727.581 Q31.0691 727.677 31.3912 727.838 Q31.681 727.999 31.681 728.515 Q31.681 729.288 30.9081 729.288 Q30.586 729.288 29.7164 729.159 Q27.9451 728.966 26.1416 728.966 Q24.1126 728.966 22.8566 729.352 Q21.5684 729.706 20.6344 730.737 Q19.7004 731.768 19.314 733.668 Q18.8953 735.568 18.8953 738.595 L18.8953 747.291 Q18.8953 749.416 19.2817 749.932 Q19.6682 750.415 21.4717 750.866 L38.2188 755.085 L38.2188 749.094 Q38.2188 744.908 36.995 743.265 Q35.7711 741.623 31.8742 740.592 Q31.2623 740.431 31.0369 740.367 Q30.7792 740.27 30.6504 740.109 Q30.4894 739.916 30.4894 739.594 Q30.4894 739.304 30.6826 739.111 Q30.8437 738.917 31.0369 738.853 L31.2301 738.788 Q31.5522 738.788 32.2929 738.982 L46.5923 742.621 Q47.5585 742.879 47.7839 743.04 Q47.9772 743.168 47.9772 743.619 Q47.9772 743.941 47.7517 744.167 Q47.5263 744.392 47.172 744.392 Q46.7856 744.328 46.4635 744.199 Q44.4989 743.748 43.2429 743.748 Q42.4378 743.748 41.9547 743.909 Q41.4716 744.07 41.0529 744.618 Q40.6342 745.165 40.441 746.292 Q40.2478 747.42 40.2478 749.223 L40.2478 755.6 L56.6728 759.69 L58.1864 759.98 Q58.8628 759.98 59.1204 759.626 Q59.378 759.239 59.5069 757.854 Q59.6679 755.793 59.6679 754.44 Q59.6679 752.766 59.7323 752.573 Q59.9255 752.186 60.4408 752.186 Q61.0205 752.186 61.3426 752.444 Q61.6325 752.701 61.6647 752.927 Q61.6969 753.152 61.6969 753.571 L61.5036 763.394 L61.6969 772.089 Q61.6969 773.088 60.8917 773.088 Q60.2798 773.088 60.0222 772.83 Q59.7323 772.572 59.7001 772.283 Q59.6679 771.993 59.6679 771.252 Q59.6679 769.642 59.5713 768.675 Q59.4747 767.709 59.3458 767.097 Q59.1848 766.453 58.7339 766.131 Q58.283 765.777 57.8966 765.616 Q57.4779 765.455 56.5439 765.229 L21.665 756.534 Q20.4734 756.212 20.0869 756.212 Q19.6682 756.212 19.4106 756.502 Q19.1529 756.759 19.0563 757.468 Q18.9275 758.176 18.9275 758.756 Q18.8953 759.304 18.8953 760.495 Q18.8953 761.268 18.8631 761.59 Q18.8309 761.88 18.6698 762.105 Q18.5088 762.331 18.1545 762.331 Q17.2528 762.331 17.0595 761.944 Q16.8341 761.526 16.8341 760.366 L16.8341 728.032 Q16.8341 726.743 17.124 726.454 Q17.3816 726.132 18.6376 726.26 Z" fill="#000000" fill-rule="evenodd" fill-opacity="1" /><path clip-path="url(#clip000)" d="M18.6376 684.282 L30.0385 685.602 Q31.0691 685.699 31.3912 685.86 Q31.681 686.021 31.681 686.536 Q31.681 687.309 30.9081 687.309 Q30.586 687.309 29.7164 687.18 Q27.9451 686.987 26.1416 686.987 Q24.1126 686.987 22.8566 687.374 Q21.5684 687.728 20.6344 688.759 Q19.7004 689.789 19.314 691.689 Q18.8953 693.589 18.8953 696.617 L18.8953 705.312 Q18.8953 707.438 19.2817 707.953 Q19.6682 708.436 21.4717 708.887 L38.2188 713.106 L38.2188 707.116 Q38.2188 702.929 36.995 701.287 Q35.7711 699.644 31.8742 698.614 Q31.2623 698.453 31.0369 698.388 Q30.7792 698.291 30.6504 698.13 Q30.4894 697.937 30.4894 697.615 Q30.4894 697.325 30.6826 697.132 Q30.8437 696.939 31.0369 696.874 L31.2301 696.81 Q31.5522 696.81 32.2929 697.003 L46.5923 700.643 Q47.5585 700.9 47.7839 701.061 Q47.9772 701.19 47.9772 701.641 Q47.9772 701.963 47.7517 702.188 Q47.5263 702.414 47.172 702.414 Q46.7856 702.349 46.4635 702.221 Q44.4989 701.77 43.2429 701.77 Q42.4378 701.77 41.9547 701.931 Q41.4716 702.092 41.0529 702.639 Q40.6342 703.187 40.441 704.314 Q40.2478 705.441 40.2478 707.245 L40.2478 713.621 L56.6728 717.712 L58.1864 718.001 Q58.8628 718.001 59.1204 717.647 Q59.378 717.261 59.5069 715.876 Q59.6679 713.815 59.6679 712.462 Q59.6679 710.787 59.7323 710.594 Q59.9255 710.208 60.4408 710.208 Q61.0205 710.208 61.3426 710.465 Q61.6325 710.723 61.6647 710.948 Q61.6969 711.174 61.6969 711.593 L61.5036 721.415 L61.6969 730.111 Q61.6969 731.109 60.8917 731.109 Q60.2798 731.109 60.0222 730.852 Q59.7323 730.594 59.7001 730.304 Q59.6679 730.014 59.6679 729.274 Q59.6679 727.663 59.5713 726.697 Q59.4747 725.731 59.3458 725.119 Q59.1848 724.475 58.7339 724.153 Q58.283 723.799 57.8966 723.638 Q57.4779 723.476 56.5439 723.251 L21.665 714.555 Q20.4734 714.233 20.0869 714.233 Q19.6682 714.233 19.4106 714.523 Q19.1529 714.781 19.0563 715.489 Q18.9275 716.198 18.9275 716.778 Q18.8953 717.325 18.8953 718.517 Q18.8953 719.29 18.8631 719.612 Q18.8309 719.902 18.6698 720.127 Q18.5088 720.353 18.1545 720.353 Q17.2528 720.353 17.0595 719.966 Q16.8341 719.547 16.8341 718.388 L16.8341 686.053 Q16.8341 684.765 17.124 684.475 Q17.3816 684.153 18.6376 684.282 Z" fill="#000000" fill-rule="evenodd" fill-opacity="1" /><path clip-path="url(#clip000)" d="M60.7939 653.447 Q64.0853 653.447 67.264 655.115 Q70.4428 656.761 72.4041 659.354 Q74.3429 661.946 74.3429 664.584 Q74.3429 666.162 73.4862 667.222 Q72.607 668.259 71.3671 668.822 Q72.9001 669.25 76.5747 670.175 Q80.2494 671.099 80.6101 671.099 Q80.813 671.099 80.9032 671.054 Q80.9934 671.009 81.1061 670.806 Q81.2414 670.603 81.2865 670.107 Q81.3541 669.611 81.3541 668.777 Q81.3541 668.349 81.3541 668.191 Q81.3766 668.011 81.4894 667.853 Q81.6021 667.672 81.8501 667.672 Q82.7744 667.672 82.7744 668.507 Q82.7744 669.25 82.7067 670.783 Q82.6391 672.316 82.6391 673.083 Q82.6391 673.737 82.7067 675.044 Q82.7744 676.352 82.7744 676.961 Q82.7744 677.569 82.2333 677.569 Q81.9177 677.569 81.7148 677.479 Q81.5344 677.411 81.4443 677.231 Q81.3766 677.051 81.3541 676.893 Q81.3541 676.758 81.3541 676.487 Q81.3541 675.45 81.1737 674.999 Q81.0159 674.548 80.6778 674.391 Q80.3622 674.21 79.4604 674.007 L58.9002 668.822 Q57.525 668.507 56.5556 668.507 Q55.3382 668.507 54.8873 668.89 Q54.4364 669.273 54.4364 669.949 Q54.4364 671.122 55.8342 671.888 Q57.2319 672.655 59.9372 673.308 Q60.6812 673.511 60.839 673.647 Q60.9968 673.759 60.9968 674.097 Q60.9742 674.661 60.5233 674.661 Q60.4106 674.661 59.6892 674.481 Q58.9453 674.3 57.8631 673.962 Q56.7585 673.602 56.0596 673.218 Q55.5862 672.993 55.2706 672.79 Q54.955 672.587 54.459 672.181 Q53.963 671.753 53.6925 671.144 Q53.422 670.536 53.422 669.792 Q53.422 668.349 54.2786 667.154 Q55.1353 665.959 56.8712 665.643 Q55.3607 664.358 54.3913 662.78 Q53.422 661.202 53.422 659.602 Q53.422 656.941 55.496 655.206 Q57.5475 653.447 60.7939 653.447 M58.7649 656.784 Q56.7134 656.784 55.5862 657.573 Q54.4364 658.339 54.4364 659.737 Q54.4364 661.473 56.1949 663.479 Q57.8631 665.463 59.4187 665.869 L68.4589 668.146 L69.2028 668.281 Q69.3381 668.281 69.7439 668.213 Q70.1271 668.123 70.7584 667.875 Q71.3896 667.605 71.9532 667.244 Q72.4943 666.861 72.9001 666.184 Q73.3059 665.486 73.3059 664.629 Q73.3059 663.254 72.0885 661.766 Q70.8711 660.255 68.5716 659.128 Q67.0837 658.429 63.8824 657.618 Q60.6586 656.784 58.7649 656.784 Z" fill="#000000" fill-rule="evenodd" fill-opacity="1" /><polyline clip-path="url(#clip002)" style="stroke:#009af9; stroke-linecap:butt; stroke-linejoin:round; stroke-width:4; stroke-opacity:1; fill:none" points="
  277.946,1388.08 279.962,1189.42 281.979,1043.06 283.995,930.769 286.012,841.906 288.028,769.832 290.044,710.2 292.061,660.044 294.077,617.272 296.094,580.366 
  298.11,548.196 300.126,519.905 302.143,494.832 304.159,472.458 306.175,452.368 308.192,434.23 310.208,417.773 312.225,402.773 314.241,389.046 316.257,376.435 
  318.274,364.81 320.29,354.059 322.307,344.088 324.323,334.815 326.339,326.168 328.356,318.087 330.372,310.518 332.389,303.413 334.405,296.732 336.421,290.437 
  338.438,284.495 340.454,278.879 342.471,273.561 344.487,268.519 346.503,263.732 348.52,259.18 350.536,254.848 352.553,250.719 354.569,246.779 356.585,243.017 
  358.602,239.419 360.618,235.976 362.635,232.677 364.651,229.514 366.667,226.479 368.684,223.564 370.7,220.762 372.717,218.066 374.733,215.471 376.749,212.972 
  378.766,210.562 380.782,208.237 382.798,205.993 384.815,203.826 386.831,201.731 388.848,199.705 390.864,197.746 392.88,195.849 394.897,194.011 396.913,192.231 
  398.93,190.505 400.946,188.83 402.962,187.205 404.979,185.628 406.995,184.096 409.012,182.607 411.028,181.16 413.044,179.753 415.061,178.384 417.077,177.052 
  419.094,175.755 421.11,174.492 423.126,173.261 425.143,172.062 427.159,170.893 429.176,169.753 431.192,168.64 433.208,167.555 435.225,166.496 437.241,165.462 
  439.258,164.452 441.274,163.465 443.29,162.501 445.307,161.558 447.323,160.637 449.34,159.736 451.356,158.855 453.372,157.992 455.389,157.149 457.405,156.323 
  459.422,155.514 461.438,154.722 463.454,153.946 465.471,153.186 467.487,152.441 469.503,151.711 471.52,150.996 473.536,150.294 475.553,149.606 477.569,148.931 
  479.585,148.269 481.602,147.619 483.618,146.982 485.635,146.356 487.651,145.741 489.667,145.138 491.684,144.545 493.7,143.963 495.717,143.391 497.733,142.83 
  499.749,142.278 501.766,141.735 503.782,141.202 505.799,140.677 507.815,140.162 509.831,139.655 511.848,139.156 513.864,138.665 515.881,138.183 517.897,137.708 
  519.913,137.24 521.93,136.781 523.946,136.328 525.963,135.882 527.979,135.443 529.995,135.011 532.012,134.586 534.028,134.167 536.045,133.754 538.061,133.347 
  540.077,132.946 542.094,132.552 544.11,132.162 546.126,131.779 548.143,131.401 550.159,131.028 552.176,130.661 554.192,130.299 556.208,129.942 558.225,129.59 
  560.241,129.242 562.258,128.9 564.274,128.562 566.29,128.228 568.307,127.899 570.323,127.575 572.34,127.254 574.356,126.938 576.372,126.626 578.389,126.318 
  580.405,126.014 582.422,125.714 584.438,125.418 586.454,125.125 588.471,124.836 590.487,124.551 592.504,124.269 594.52,123.991 596.536,123.716 598.553,123.444 
  600.569,123.176 602.586,122.911 604.602,122.649 606.618,122.39 608.635,122.134 610.651,121.882 612.668,121.632 614.684,121.385 616.7,121.141 618.717,120.9 
  620.733,120.661 622.749,120.425 624.766,120.192 626.782,119.962 628.799,119.734 630.815,119.508 632.831,119.285 634.848,119.065 636.864,118.847 638.881,118.631 
  640.897,118.417 642.913,118.206 644.93,117.997 646.946,117.791 648.963,117.586 650.979,117.384 652.995,117.183 655.012,116.985 657.028,116.789 659.045,116.595 
  661.061,116.403 663.077,116.213 665.094,116.025 667.11,115.838 669.127,115.654 671.143,115.471 673.159,115.29 675.176,115.111 677.192,114.934 679.209,114.758 
  681.225,114.585 683.241,114.412 685.258,114.242 687.274,114.073 689.291,113.906 691.307,113.74 693.323,113.576 695.34,113.413 697.356,113.252 699.373,113.093 
  701.389,112.935 703.405,112.778 705.422,112.623 707.438,112.469 709.454,112.317 711.471,112.166 713.487,112.016 715.504,111.868 717.52,111.721 719.536,111.576 
  721.553,111.431 723.569,111.288 725.586,111.147 727.602,111.006 729.618,110.867 731.635,110.729 733.651,110.592 735.668,110.456 737.684,110.321 739.7,110.188 
  741.717,110.056 743.733,109.924 745.75,109.794 747.766,109.665 749.782,109.537 751.799,109.411 753.815,109.285 755.832,109.16 757.848,109.036 759.864,108.914 
  761.881,108.792 763.897,108.671 765.914,108.551 767.93,108.432 769.946,108.315 771.963,108.198 773.979,108.082 775.996,107.967 778.012,107.853 780.028,107.739 
  782.045,107.627 784.061,107.515 786.077,107.405 788.094,107.295 790.11,107.186 792.127,107.078 794.143,106.971 796.159,106.864 798.176,106.759 800.192,106.654 
  802.209,106.55 804.225,106.446 806.241,106.344 808.258,106.242 810.274,106.141 812.291,106.041 814.307,105.942 816.323,105.843 818.34,105.745 820.356,105.647 
  822.373,105.551 824.389,105.455 826.405,105.36 828.422,105.265 830.438,105.171 832.455,105.078 834.471,104.985 836.487,104.894 838.504,104.802 840.52,104.712 
  842.537,104.622 844.553,104.532 846.569,104.444 848.586,104.356 850.602,104.268 852.619,104.181 854.635,104.095 856.651,104.009 858.668,103.924 860.684,103.84 
  862.701,103.756 864.717,103.672 866.733,103.589 868.75,103.507 870.766,103.425 872.782,103.344 874.799,103.263 876.815,103.183 878.832,103.104 880.848,103.025 
  882.864,102.946 884.881,102.868 886.897,102.791 888.914,102.714 890.93,102.637 892.946,102.561 894.963,102.485 896.979,102.41 898.996,102.336 901.012,102.262 
  903.028,102.188 905.045,102.115 907.061,102.042 909.078,101.97 911.094,101.898 913.11,101.827 915.127,101.756 917.143,101.685 919.16,101.615 921.176,101.546 
  923.192,101.476 925.209,101.408 927.225,101.339 929.242,101.271 931.258,101.204 933.274,101.137 935.291,101.07 937.307,101.004 939.324,100.938 941.34,100.872 
  943.356,100.807 945.373,100.742 947.389,100.678 949.405,100.614 951.422,100.551 953.438,100.487 955.455,100.424 957.471,100.362 959.487,100.3 961.504,100.238 
  963.52,100.177 965.537,100.116 967.553,100.055 969.569,99.9946 971.586,99.9346 973.602,99.875 975.619,99.8156 977.635,99.7566 979.651,99.698 981.668,99.6397 
  983.684,99.5817 985.701,99.524 987.717,99.4667 989.733,99.4097 991.75,99.353 993.766,99.2966 995.783,99.2405 997.799,99.1847 999.815,99.1293 1001.83,99.0741 
  1003.85,99.0192 1005.86,98.9647 1007.88,98.9104 1009.9,98.8565 1011.91,98.8028 1013.93,98.7494 1015.95,98.6963 1017.96,98.6435 1019.98,98.591 1022,98.5387 
  1024.01,98.4867 1026.03,98.435 1028.04,98.3836 1030.06,98.3325 1032.08,98.2816 1034.09,98.231 1036.11,98.1806 1038.13,98.1306 1040.14,98.0807 1042.16,98.0312 
  1044.18,97.9819 1046.19,97.9328 1048.21,97.884 1050.23,97.8355 1052.24,97.7872 1054.26,97.7391 1056.27,97.6913 1058.29,97.6437 1060.31,97.5964 1062.32,97.5493 
  1064.34,97.5025 1066.36,97.4559 1068.37,97.4095 1070.39,97.3634 1072.41,97.3175 1074.42,97.2718 1076.44,97.2264 1078.45,97.1811 1080.47,97.1361 1082.49,97.0913 
  1084.5,97.0468 1086.52,97.0025 1088.54,96.9583 1090.55,96.9144 1092.57,96.8707 1094.59,96.8273 1096.6,96.784 1098.62,96.7409 1100.64,96.6981 1102.65,96.6554 
  1104.67,96.613 1106.68,96.5708 1108.7,96.5287 1110.72,96.4869 1112.73,96.4453 1114.75,96.4038 1116.77,96.3626 1118.78,96.3216 1120.8,96.2807 1122.82,96.2401 
  1124.83,96.1996 1126.85,96.1593 1128.86,96.1192 1130.88,96.0793 1132.9,96.0396 1134.91,96.0001 1136.93,95.9608 1138.95,95.9216 1140.96,95.8826 1142.98,95.8438 
  1145,95.8052 1147.01,95.7667 1149.03,95.7285 1151.04,95.6904 1153.06,95.6524 1155.08,95.6147 1157.09,95.5771 1159.11,95.5397 1161.13,95.5025 1163.14,95.4654 
  1165.16,95.4285 1167.18,95.3917 1169.19,95.3551 1171.21,95.3187 1173.23,95.2825 1175.24,95.2464 1177.26,95.2105 1179.27,95.1747 1181.29,95.1391 1183.31,95.1036 
  1185.32,95.0683 1187.34,95.0331 1189.36,94.9981 1191.37,94.9633 1193.39,94.9286 1195.41,94.8941 1197.42,94.8597 1199.44,94.8254 1201.45,94.7913 1203.47,94.7574 
  1205.49,94.7236 1207.5,94.6899 1209.52,94.6564 1211.54,94.623 1213.55,94.5898 1215.57,94.5567 1217.59,94.5238 1219.6,94.491 1221.62,94.4583 1223.64,94.4258 
  1225.65,94.3934 1227.67,94.3611 1229.68,94.329 1231.7,94.297 1233.72,94.2652 1235.73,94.2334 1237.75,94.2018 1239.77,94.1704 1241.78,94.139 1243.8,94.1078 
  1245.82,94.0768 1247.83,94.0458 1249.85,94.015 1251.86,93.9843 1253.88,93.9538 1255.9,93.9233 1257.91,93.893 1259.93,93.8628 1261.95,93.8327 1263.96,93.8028 
  1265.98,93.7729 1268,93.7432 1270.01,93.7136 1272.03,93.6842 1274.05,93.6548 1276.06,93.6256 1278.08,93.5965 1280.09,93.5675 1282.11,93.5386 1284.13,93.5098 
  1286.14,93.4811 1288.16,93.4526 1290.18,93.4241 1292.19,93.3958 1294.21,93.3676 1296.23,93.3395 1298.24,93.3115 1300.26,93.2836 1302.27,93.2559 1304.29,93.2282 
  1306.31,93.2006 1308.32,93.1732 1310.34,93.1458 1312.36,93.1186 1314.37,93.0915 1316.39,93.0644 1318.41,93.0375 1320.42,93.0107 1322.44,92.984 1324.45,92.9573 
  1326.47,92.9308 1328.49,92.9044 1330.5,92.8781 1332.52,92.8519 1334.54,92.8257 1336.55,92.7997 1338.57,92.7738 1340.59,92.748 1342.6,92.7222 1344.62,92.6966 
  1346.64,92.6711 1348.65,92.6456 1350.67,92.6203 1352.68,92.595 1354.7,92.5699 1356.72,92.5448 1358.73,92.5198 1360.75,92.495 1362.77,92.4702 1364.78,92.4455 
  1366.8,92.4209 1368.82,92.3963 1370.83,92.3719 1372.85,92.3476 1374.86,92.3233 1376.88,92.2992 1378.9,92.2751 1380.91,92.2511 1382.93,92.2272 1384.95,92.2034 
  1386.96,92.1796 1388.98,92.156 1391,92.1324 1393.01,92.109 1395.03,92.0856 1397.05,92.0623 1399.06,92.039 1401.08,92.0159 1403.09,91.9928 1405.11,91.9699 
  1407.13,91.947 1409.14,91.9241 1411.16,91.9014 1413.18,91.8787 1415.19,91.8562 1417.21,91.8337 1419.23,91.8113 1421.24,91.7889 1423.26,91.7666 1425.27,91.7445 
  1427.29,91.7224 1429.31,91.7003 1431.32,91.6784 1433.34,91.6565 1435.36,91.6347 1437.37,91.613 1439.39,91.5913 1441.41,91.5697 1443.42,91.5482 1445.44,91.5268 
  1447.46,91.5054 1449.47,91.4841 1451.49,91.4629 1453.5,91.4418 1455.52,91.4207 1457.54,91.3997 1459.55,91.3788 1461.57,91.3579 1463.59,91.3371 1465.6,91.3164 
  1467.62,91.2958 1469.64,91.2752 1471.65,91.2547 1473.67,91.2343 1475.68,91.2139 1477.7,91.1936 1479.72,91.1733 1481.73,91.1532 1483.75,91.1331 1485.77,91.113 
  1487.78,91.0931 1489.8,91.0732 1491.82,91.0533 1493.83,91.0335 1495.85,91.0138 1497.86,90.9942 1499.88,90.9746 1501.9,90.9551 1503.91,90.9356 1505.93,90.9163 
  1507.95,90.8969 1509.96,90.8777 1511.98,90.8585 1514,90.8393 1516.01,90.8202 1518.03,90.8012 1520.05,90.7823 1522.06,90.7634 1524.08,90.7446 1526.09,90.7258 
  1528.11,90.7071 1530.13,90.6884 1532.14,90.6698 1534.16,90.6513 1536.18,90.6328 1538.19,90.6144 1540.21,90.596 1542.23,90.5777 1544.24,90.5595 1546.26,90.5413 
  1548.27,90.5232 1550.29,90.5051 1552.31,90.4871 1554.32,90.4691 1556.34,90.4512 1558.36,90.4334 1560.37,90.4156 1562.39,90.3979 1564.41,90.3802 1566.42,90.3626 
  1568.44,90.345 1570.46,90.3275 1572.47,90.31 1574.49,90.2926 1576.5,90.2752 1578.52,90.2579 1580.54,90.2407 1582.55,90.2235 1584.57,90.2064 1586.59,90.1893 
  1588.6,90.1722 1590.62,90.1552 1592.64,90.1383 1594.65,90.1214 1596.67,90.1046 1598.68,90.0878 1600.7,90.0711 1602.72,90.0544 1604.73,90.0378 1606.75,90.0212 
  1608.77,90.0047 1610.78,89.9882 1612.8,89.9718 1614.82,89.9554 1616.83,89.939 1618.85,89.9228 1620.87,89.9065 1622.88,89.8903 1624.9,89.8742 1626.91,89.8581 
  1628.93,89.8421 1630.95,89.8261 1632.96,89.8101 1634.98,89.7942 1637,89.7784 1639.01,89.7625 1641.03,89.7468 1643.05,89.7311 1645.06,89.7154 1647.08,89.6998 
  1649.09,89.6842 1651.11,89.6687 1653.13,89.6532 1655.14,89.6377 1657.16,89.6223 1659.18,89.607 1661.19,89.5917 1663.21,89.5764 1665.23,89.5612 1667.24,89.546 
  1669.26,89.5309 1671.27,89.5158 1673.29,89.5007 1675.31,89.4857 1677.32,89.4708 1679.34,89.4559 1681.36,89.441 1683.37,89.4261 1685.39,89.4114 1687.41,89.3966 
  1689.42,89.3819 1691.44,89.3672 1693.46,89.3526 1695.47,89.338 1697.49,89.3235 1699.5,89.309 1701.52,89.2945 1703.54,89.2801 1705.55,89.2657 1707.57,89.2514 
  1709.59,89.2371 1711.6,89.2228 1713.62,89.2086 1715.64,89.1944 1717.65,89.1803 1719.67,89.1662 1721.68,89.1521 1723.7,89.1381 1725.72,89.1241 1727.73,89.1102 
  1729.75,89.0963 1731.77,89.0824 1733.78,89.0686 1735.8,89.0548 1737.82,89.041 1739.83,89.0273 1741.85,89.0136 1743.87,89 1745.88,88.9864 1747.9,88.9728 
  1749.91,88.9593 1751.93,88.9458 1753.95,88.9323 1755.96,88.9189 1757.98,88.9055 1760,88.8922 1762.01,88.8789 1764.03,88.8656 1766.05,88.8523 1768.06,88.8391 
  1770.08,88.826 1772.09,88.8128 1774.11,88.7997 1776.13,88.7867 1778.14,88.7736 1780.16,88.7606 1782.18,88.7477 1784.19,88.7347 1786.21,88.7219 1788.23,88.709 
  1790.24,88.6962 1792.26,88.6834 1794.27,88.6706 1796.29,88.6579 1798.31,88.6452 1800.32,88.6326 1802.34,88.6199 1804.36,88.6073 1806.37,88.5948 1808.39,88.5823 
  1810.41,88.5698 1812.42,88.5573 1814.44,88.5449 1816.46,88.5325 1818.47,88.5201 1820.49,88.5078 1822.5,88.4955 1824.52,88.4832 1826.54,88.471 1828.55,88.4588 
  1830.57,88.4466 1832.59,88.4345 1834.6,88.4224 1836.62,88.4103 1838.64,88.3983 1840.65,88.3863 1842.67,88.3743 1844.68,88.3623 1846.7,88.3504 1848.72,88.3385 
  1850.73,88.3266 1852.75,88.3148 1854.77,88.303 1856.78,88.2912 1858.8,88.2795 1860.82,88.2678 1862.83,88.2561 1864.85,88.2444 1866.87,88.2328 1868.88,88.2212 
  1870.9,88.2096 1872.91,88.1981 1874.93,88.1866 1876.95,88.1751 1878.96,88.1637 1880.98,88.1523 1883,88.1409 1885.01,88.1295 1887.03,88.1182 1889.05,88.1068 
  1891.06,88.0956 1893.08,88.0843 1895.09,88.0731 1897.11,88.0619 1899.13,88.0507 1901.14,88.0396 1903.16,88.0285 1905.18,88.0174 1907.19,88.0063 1909.21,87.9953 
  1911.23,87.9843 1913.24,87.9733 1915.26,87.9624 1917.28,87.9514 1919.29,87.9405 1921.31,87.9297 1923.32,87.9188 1925.34,87.908 1927.36,87.8972 1929.37,87.8864 
  1931.39,87.8757 1933.41,87.865 1935.42,87.8543 1937.44,87.8436 1939.46,87.833 1941.47,87.8224 1943.49,87.8118 1945.5,87.8012 1947.52,87.7907 1949.54,87.7802 
  1951.55,87.7697 1953.57,87.7592 1955.59,87.7488 1957.6,87.7384 1959.62,87.728 1961.64,87.7177 1963.65,87.7073 1965.67,87.697 1967.68,87.6867 1969.7,87.6765 
  1971.72,87.6662 1973.73,87.656 1975.75,87.6458 1977.77,87.6357 1979.78,87.6255 1981.8,87.6154 1983.82,87.6053 1985.83,87.5952 1987.85,87.5852 1989.87,87.5752 
  1991.88,87.5652 1993.9,87.5552 1995.91,87.5452 1997.93,87.5353 1999.95,87.5254 2001.96,87.5155 2003.98,87.5056 2006,87.4958 2008.01,87.486 2010.03,87.4762 
  2012.05,87.4664 2014.06,87.4567 2016.08,87.447 2018.09,87.4373 2020.11,87.4276 2022.13,87.4179 2024.14,87.4083 2026.16,87.3987 2028.18,87.3891 2030.19,87.3795 
  2032.21,87.37 2034.23,87.3604 2036.24,87.3509 2038.26,87.3414 2040.28,87.332 2042.29,87.3225 2044.31,87.3131 2046.32,87.3037 2048.34,87.2943 2050.36,87.285 
  2052.37,87.2757 2054.39,87.2663 2056.41,87.2571 2058.42,87.2478 2060.44,87.2385 2062.46,87.2293 2064.47,87.2201 2066.49,87.2109 2068.5,87.2017 2070.52,87.1926 
  2072.54,87.1835 2074.55,87.1744 2076.57,87.1653 2078.59,87.1562 2080.6,87.1472 2082.62,87.1381 2084.64,87.1291 2086.65,87.1202 2088.67,87.1112 2090.69,87.1022 
  2092.7,87.0933 2094.72,87.0844 2096.73,87.0755 2098.75,87.0667 2100.77,87.0578 2102.78,87.049 2104.8,87.0402 2106.82,87.0314 2108.83,87.0226 2110.85,87.0139 
  2112.87,87.0051 2114.88,86.9964 2116.9,86.9877 2118.91,86.9791 2120.93,86.9704 2122.95,86.9618 2124.96,86.9531 2126.98,86.9445 2129,86.936 2131.01,86.9274 
  2133.03,86.9189 2135.05,86.9103 2137.06,86.9018 2139.08,86.8933 2141.09,86.8849 2143.11,86.8764 2145.13,86.868 2147.14,86.8596 2149.16,86.8512 2151.18,86.8428 
  2153.19,86.8344 2155.21,86.8261 2157.23,86.8178 2159.24,86.8094 2161.26,86.8012 2163.28,86.7929 2165.29,86.7846 2167.31,86.7764 2169.32,86.7682 2171.34,86.76 
  2173.36,86.7518 2175.37,86.7436 2177.39,86.7355 2179.41,86.7273 2181.42,86.7192 2183.44,86.7111 2185.46,86.703 2187.47,86.695 2189.49,86.6869 2191.5,86.6789 
  2193.52,86.6709 2195.54,86.6629 2197.55,86.6549 2199.57,86.6469 2201.59,86.639 2203.6,86.631 2205.62,86.6231 2207.64,86.6152 2209.65,86.6073 2211.67,86.5995 
  2213.69,86.5916 2215.7,86.5838 2217.72,86.576 2219.73,86.5682 2221.75,86.5604 2223.77,86.5526 2225.78,86.5449 2227.8,86.5371 2229.82,86.5294 2231.83,86.5217 
  2233.85,86.514 2235.87,86.5063 2237.88,86.4987 2239.9,86.491 2241.91,86.4834 2243.93,86.4758 2245.95,86.4682 2247.96,86.4606 2249.98,86.453 2252,86.4455 
  2254.01,86.438 2256.03,86.4304 2258.05,86.4229 2260.06,86.4154 2262.08,86.408 2264.1,86.4005 2266.11,86.3931 2268.13,86.3856 2270.14,86.3782 2272.16,86.3708 
  2274.18,86.3634 2276.19,86.3561 2278.21,86.3487 2280.23,86.3414 2282.24,86.3341 2284.26,86.3267 2286.28,86.3194 2288.29,86.3122 2290.31,86.3049 2292.32,86.2976 
  
  "/>
</svg>
