<?xml version="1.0" encoding="utf-8"?>
<svg xmlns="http://www.w3.org/2000/svg" xmlns:xlink="http://www.w3.org/1999/xlink" width="600" height="400" viewBox="0 0 2400 1600">
<defs>
  <clipPath id="clip920">
    <rect x="0" y="0" width="2400" height="1600"/>
  </clipPath>
</defs>
<path clip-path="url(#clip920)" d="
M0 1600 L2400 1600 L2400 0 L0 0  Z
  " fill="#ffffff" fill-rule="evenodd" fill-opacity="1"/>
<defs>
  <clipPath id="clip921">
    <rect x="480" y="0" width="1681" height="1600"/>
  </clipPath>
</defs>
<defs>
  <clipPath id="clip922">
    <rect x="228" y="47" width="2125" height="1381"/>
  </clipPath>
</defs>
<path clip-path="url(#clip920)" d="
M228.421 1427.14 L2352.76 1427.14 L2352.76 47.2441 L228.421 47.2441  Z
  " fill="#ffffff" fill-rule="evenodd" fill-opacity="1"/>
<polyline clip-path="url(#clip922)" style="stroke:#000000; stroke-linecap:butt; stroke-linejoin:round; stroke-width:2; stroke-opacity:0.1; fill:none" points="
  286.538,1427.14 286.538,47.2441 
  "/>
<polyline clip-path="url(#clip922)" style="stroke:#000000; stroke-linecap:butt; stroke-linejoin:round; stroke-width:2; stroke-opacity:0.1; fill:none" points="
  788.062,1427.14 788.062,47.2441 
  "/>
<polyline clip-path="url(#clip922)" style="stroke:#000000; stroke-linecap:butt; stroke-linejoin:round; stroke-width:2; stroke-opacity:0.1; fill:none" points="
  1289.59,1427.14 1289.59,47.2441 
  "/>
<polyline clip-path="url(#clip922)" style="stroke:#000000; stroke-linecap:butt; stroke-linejoin:round; stroke-width:2; stroke-opacity:0.1; fill:none" points="
  1791.11,1427.14 1791.11,47.2441 
  "/>
<polyline clip-path="url(#clip922)" style="stroke:#000000; stroke-linecap:butt; stroke-linejoin:round; stroke-width:2; stroke-opacity:0.1; fill:none" points="
  2292.63,1427.14 2292.63,47.2441 
  "/>
<polyline clip-path="url(#clip920)" style="stroke:#000000; stroke-linecap:butt; stroke-linejoin:round; stroke-width:4; stroke-opacity:1; fill:none" points="
  228.421,1427.14 2352.76,1427.14 
  "/>
<polyline clip-path="url(#clip920)" style="stroke:#000000; stroke-linecap:butt; stroke-linejoin:round; stroke-width:4; stroke-opacity:1; fill:none" points="
  286.538,1427.14 286.538,1408.24 
  "/>
<polyline clip-path="url(#clip920)" style="stroke:#000000; stroke-linecap:butt; stroke-linejoin:round; stroke-width:4; stroke-opacity:1; fill:none" points="
  788.062,1427.14 788.062,1408.24 
  "/>
<polyline clip-path="url(#clip920)" style="stroke:#000000; stroke-linecap:butt; stroke-linejoin:round; stroke-width:4; stroke-opacity:1; fill:none" points="
  1289.59,1427.14 1289.59,1408.24 
  "/>
<polyline clip-path="url(#clip920)" style="stroke:#000000; stroke-linecap:butt; stroke-linejoin:round; stroke-width:4; stroke-opacity:1; fill:none" points="
  1791.11,1427.14 1791.11,1408.24 
  "/>
<polyline clip-path="url(#clip920)" style="stroke:#000000; stroke-linecap:butt; stroke-linejoin:round; stroke-width:4; stroke-opacity:1; fill:none" points="
  2292.63,1427.14 2292.63,1408.24 
  "/>
<path clip-path="url(#clip920)" d="M218.68 1456.33 Q215.068 1456.33 213.24 1459.89 Q211.434 1463.43 211.434 1470.56 Q211.434 1477.67 213.24 1481.23 Q215.068 1484.78 218.68 1484.78 Q222.314 1484.78 224.119 1481.23 Q225.948 1477.67 225.948 1470.56 Q225.948 1463.43 224.119 1459.89 Q222.314 1456.33 218.68 1456.33 M218.68 1452.62 Q224.49 1452.62 227.545 1457.23 Q230.624 1461.81 230.624 1470.56 Q230.624 1479.29 227.545 1483.9 Q224.49 1488.48 218.68 1488.48 Q212.869 1488.48 209.791 1483.9 Q206.735 1479.29 206.735 1470.56 Q206.735 1461.81 209.791 1457.23 Q212.869 1452.62 218.68 1452.62 Z" fill="#000000" fill-rule="evenodd" fill-opacity="1" /><path clip-path="url(#clip920)" d="M238.842 1481.93 L243.726 1481.93 L243.726 1487.81 L238.842 1487.81 L238.842 1481.93 Z" fill="#000000" fill-rule="evenodd" fill-opacity="1" /><path clip-path="url(#clip920)" d="M263.911 1456.33 Q260.3 1456.33 258.471 1459.89 Q256.665 1463.43 256.665 1470.56 Q256.665 1477.67 258.471 1481.23 Q260.3 1484.78 263.911 1484.78 Q267.545 1484.78 269.351 1481.23 Q271.179 1477.67 271.179 1470.56 Q271.179 1463.43 269.351 1459.89 Q267.545 1456.33 263.911 1456.33 M263.911 1452.62 Q269.721 1452.62 272.777 1457.23 Q275.855 1461.81 275.855 1470.56 Q275.855 1479.29 272.777 1483.9 Q269.721 1488.48 263.911 1488.48 Q258.101 1488.48 255.022 1483.9 Q251.966 1479.29 251.966 1470.56 Q251.966 1461.81 255.022 1457.23 Q258.101 1452.62 263.911 1452.62 Z" fill="#000000" fill-rule="evenodd" fill-opacity="1" /><path clip-path="url(#clip920)" d="M294.073 1456.33 Q290.462 1456.33 288.633 1459.89 Q286.827 1463.43 286.827 1470.56 Q286.827 1477.67 288.633 1481.23 Q290.462 1484.78 294.073 1484.78 Q297.707 1484.78 299.512 1481.23 Q301.341 1477.67 301.341 1470.56 Q301.341 1463.43 299.512 1459.89 Q297.707 1456.33 294.073 1456.33 M294.073 1452.62 Q299.883 1452.62 302.938 1457.23 Q306.017 1461.81 306.017 1470.56 Q306.017 1479.29 302.938 1483.9 Q299.883 1488.48 294.073 1488.48 Q288.263 1488.48 285.184 1483.9 Q282.128 1479.29 282.128 1470.56 Q282.128 1461.81 285.184 1457.23 Q288.263 1452.62 294.073 1452.62 Z" fill="#000000" fill-rule="evenodd" fill-opacity="1" /><path clip-path="url(#clip920)" d="M324.235 1456.33 Q320.623 1456.33 318.795 1459.89 Q316.989 1463.43 316.989 1470.56 Q316.989 1477.67 318.795 1481.23 Q320.623 1484.78 324.235 1484.78 Q327.869 1484.78 329.674 1481.23 Q331.503 1477.67 331.503 1470.56 Q331.503 1463.43 329.674 1459.89 Q327.869 1456.33 324.235 1456.33 M324.235 1452.62 Q330.045 1452.62 333.1 1457.23 Q336.179 1461.81 336.179 1470.56 Q336.179 1479.29 333.1 1483.9 Q330.045 1488.48 324.235 1488.48 Q318.424 1488.48 315.346 1483.9 Q312.29 1479.29 312.29 1470.56 Q312.29 1461.81 315.346 1457.23 Q318.424 1452.62 324.235 1452.62 Z" fill="#000000" fill-rule="evenodd" fill-opacity="1" /><path clip-path="url(#clip920)" d="M354.396 1456.33 Q350.785 1456.33 348.957 1459.89 Q347.151 1463.43 347.151 1470.56 Q347.151 1477.67 348.957 1481.23 Q350.785 1484.78 354.396 1484.78 Q358.031 1484.78 359.836 1481.23 Q361.665 1477.67 361.665 1470.56 Q361.665 1463.43 359.836 1459.89 Q358.031 1456.33 354.396 1456.33 M354.396 1452.62 Q360.207 1452.62 363.262 1457.23 Q366.341 1461.81 366.341 1470.56 Q366.341 1479.29 363.262 1483.9 Q360.207 1488.48 354.396 1488.48 Q348.586 1488.48 345.508 1483.9 Q342.452 1479.29 342.452 1470.56 Q342.452 1461.81 345.508 1457.23 Q348.586 1452.62 354.396 1452.62 Z" fill="#000000" fill-rule="evenodd" fill-opacity="1" /><path clip-path="url(#clip920)" d="M720.701 1456.33 Q717.09 1456.33 715.261 1459.89 Q713.456 1463.43 713.456 1470.56 Q713.456 1477.67 715.261 1481.23 Q717.09 1484.78 720.701 1484.78 Q724.335 1484.78 726.141 1481.23 Q727.97 1477.67 727.97 1470.56 Q727.97 1463.43 726.141 1459.89 Q724.335 1456.33 720.701 1456.33 M720.701 1452.62 Q726.511 1452.62 729.567 1457.23 Q732.645 1461.81 732.645 1470.56 Q732.645 1479.29 729.567 1483.9 Q726.511 1488.48 720.701 1488.48 Q714.891 1488.48 711.812 1483.9 Q708.757 1479.29 708.757 1470.56 Q708.757 1461.81 711.812 1457.23 Q714.891 1452.62 720.701 1452.62 Z" fill="#000000" fill-rule="evenodd" fill-opacity="1" /><path clip-path="url(#clip920)" d="M740.863 1481.93 L745.747 1481.93 L745.747 1487.81 L740.863 1487.81 L740.863 1481.93 Z" fill="#000000" fill-rule="evenodd" fill-opacity="1" /><path clip-path="url(#clip920)" d="M765.932 1456.33 Q762.321 1456.33 760.493 1459.89 Q758.687 1463.43 758.687 1470.56 Q758.687 1477.67 760.493 1481.23 Q762.321 1484.78 765.932 1484.78 Q769.567 1484.78 771.372 1481.23 Q773.201 1477.67 773.201 1470.56 Q773.201 1463.43 771.372 1459.89 Q769.567 1456.33 765.932 1456.33 M765.932 1452.62 Q771.742 1452.62 774.798 1457.23 Q777.877 1461.81 777.877 1470.56 Q777.877 1479.29 774.798 1483.9 Q771.742 1488.48 765.932 1488.48 Q760.122 1488.48 757.043 1483.9 Q753.988 1479.29 753.988 1470.56 Q753.988 1461.81 757.043 1457.23 Q760.122 1452.62 765.932 1452.62 Z" fill="#000000" fill-rule="evenodd" fill-opacity="1" /><path clip-path="url(#clip920)" d="M796.094 1456.33 Q792.483 1456.33 790.654 1459.89 Q788.849 1463.43 788.849 1470.56 Q788.849 1477.67 790.654 1481.23 Q792.483 1484.78 796.094 1484.78 Q799.728 1484.78 801.534 1481.23 Q803.363 1477.67 803.363 1470.56 Q803.363 1463.43 801.534 1459.89 Q799.728 1456.33 796.094 1456.33 M796.094 1452.62 Q801.904 1452.62 804.96 1457.23 Q808.039 1461.81 808.039 1470.56 Q808.039 1479.29 804.96 1483.9 Q801.904 1488.48 796.094 1488.48 Q790.284 1488.48 787.205 1483.9 Q784.15 1479.29 784.15 1470.56 Q784.15 1461.81 787.205 1457.23 Q790.284 1452.62 796.094 1452.62 Z" fill="#000000" fill-rule="evenodd" fill-opacity="1" /><path clip-path="url(#clip920)" d="M820.284 1483.87 L836.603 1483.87 L836.603 1487.81 L814.659 1487.81 L814.659 1483.87 Q817.321 1481.12 821.904 1476.49 Q826.511 1471.84 827.691 1470.49 Q829.937 1467.97 830.816 1466.23 Q831.719 1464.48 831.719 1462.79 Q831.719 1460.03 829.775 1458.29 Q827.853 1456.56 824.751 1456.56 Q822.552 1456.56 820.099 1457.32 Q817.668 1458.09 814.89 1459.64 L814.89 1454.91 Q817.714 1453.78 820.168 1453.2 Q822.622 1452.62 824.659 1452.62 Q830.029 1452.62 833.224 1455.31 Q836.418 1457.99 836.418 1462.48 Q836.418 1464.61 835.608 1466.54 Q834.821 1468.43 832.714 1471.03 Q832.136 1471.7 829.034 1474.91 Q825.932 1478.11 820.284 1483.87 Z" fill="#000000" fill-rule="evenodd" fill-opacity="1" /><path clip-path="url(#clip920)" d="M846.464 1453.25 L864.821 1453.25 L864.821 1457.18 L850.747 1457.18 L850.747 1465.66 Q851.765 1465.31 852.784 1465.15 Q853.802 1464.96 854.821 1464.96 Q860.608 1464.96 863.987 1468.13 Q867.367 1471.3 867.367 1476.72 Q867.367 1482.3 863.895 1485.4 Q860.423 1488.48 854.103 1488.48 Q851.927 1488.48 849.659 1488.11 Q847.413 1487.74 845.006 1487 L845.006 1482.3 Q847.089 1483.43 849.311 1483.99 Q851.534 1484.54 854.011 1484.54 Q858.015 1484.54 860.353 1482.44 Q862.691 1480.33 862.691 1476.72 Q862.691 1473.11 860.353 1471 Q858.015 1468.9 854.011 1468.9 Q852.136 1468.9 850.261 1469.31 Q848.409 1469.73 846.464 1470.61 L846.464 1453.25 Z" fill="#000000" fill-rule="evenodd" fill-opacity="1" /><path clip-path="url(#clip920)" d="M1221.73 1456.33 Q1218.12 1456.33 1216.29 1459.89 Q1214.48 1463.43 1214.48 1470.56 Q1214.48 1477.67 1216.29 1481.23 Q1218.12 1484.78 1221.73 1484.78 Q1225.36 1484.78 1227.17 1481.23 Q1229 1477.67 1229 1470.56 Q1229 1463.43 1227.17 1459.89 Q1225.36 1456.33 1221.73 1456.33 M1221.73 1452.62 Q1227.54 1452.62 1230.59 1457.23 Q1233.67 1461.81 1233.67 1470.56 Q1233.67 1479.29 1230.59 1483.9 Q1227.54 1488.48 1221.73 1488.48 Q1215.92 1488.48 1212.84 1483.9 Q1209.78 1479.29 1209.78 1470.56 Q1209.78 1461.81 1212.84 1457.23 Q1215.92 1452.62 1221.73 1452.62 Z" fill="#000000" fill-rule="evenodd" fill-opacity="1" /><path clip-path="url(#clip920)" d="M1241.89 1481.93 L1246.77 1481.93 L1246.77 1487.81 L1241.89 1487.81 L1241.89 1481.93 Z" fill="#000000" fill-rule="evenodd" fill-opacity="1" /><path clip-path="url(#clip920)" d="M1266.96 1456.33 Q1263.35 1456.33 1261.52 1459.89 Q1259.71 1463.43 1259.71 1470.56 Q1259.71 1477.67 1261.52 1481.23 Q1263.35 1484.78 1266.96 1484.78 Q1270.59 1484.78 1272.4 1481.23 Q1274.23 1477.67 1274.23 1470.56 Q1274.23 1463.43 1272.4 1459.89 Q1270.59 1456.33 1266.96 1456.33 M1266.96 1452.62 Q1272.77 1452.62 1275.82 1457.23 Q1278.9 1461.81 1278.9 1470.56 Q1278.9 1479.29 1275.82 1483.9 Q1272.77 1488.48 1266.96 1488.48 Q1261.15 1488.48 1258.07 1483.9 Q1255.01 1479.29 1255.01 1470.56 Q1255.01 1461.81 1258.07 1457.23 Q1261.15 1452.62 1266.96 1452.62 Z" fill="#000000" fill-rule="evenodd" fill-opacity="1" /><path clip-path="url(#clip920)" d="M1297.12 1456.33 Q1293.51 1456.33 1291.68 1459.89 Q1289.87 1463.43 1289.87 1470.56 Q1289.87 1477.67 1291.68 1481.23 Q1293.51 1484.78 1297.12 1484.78 Q1300.75 1484.78 1302.56 1481.23 Q1304.39 1477.67 1304.39 1470.56 Q1304.39 1463.43 1302.56 1459.89 Q1300.75 1456.33 1297.12 1456.33 M1297.12 1452.62 Q1302.93 1452.62 1305.99 1457.23 Q1309.06 1461.81 1309.06 1470.56 Q1309.06 1479.29 1305.99 1483.9 Q1302.93 1488.48 1297.12 1488.48 Q1291.31 1488.48 1288.23 1483.9 Q1285.18 1479.29 1285.18 1470.56 Q1285.18 1461.81 1288.23 1457.23 Q1291.31 1452.62 1297.12 1452.62 Z" fill="#000000" fill-rule="evenodd" fill-opacity="1" /><path clip-path="url(#clip920)" d="M1317.33 1453.25 L1335.68 1453.25 L1335.68 1457.18 L1321.61 1457.18 L1321.61 1465.66 Q1322.63 1465.31 1323.65 1465.15 Q1324.67 1464.96 1325.68 1464.96 Q1331.47 1464.96 1334.85 1468.13 Q1338.23 1471.3 1338.23 1476.72 Q1338.23 1482.3 1334.76 1485.4 Q1331.29 1488.48 1324.97 1488.48 Q1322.79 1488.48 1320.52 1488.11 Q1318.28 1487.74 1315.87 1487 L1315.87 1482.3 Q1317.95 1483.43 1320.18 1483.99 Q1322.4 1484.54 1324.87 1484.54 Q1328.88 1484.54 1331.22 1482.44 Q1333.56 1480.33 1333.56 1476.72 Q1333.56 1473.11 1331.22 1471 Q1328.88 1468.9 1324.87 1468.9 Q1323 1468.9 1321.12 1469.31 Q1319.27 1469.73 1317.33 1470.61 L1317.33 1453.25 Z" fill="#000000" fill-rule="evenodd" fill-opacity="1" /><path clip-path="url(#clip920)" d="M1357.44 1456.33 Q1353.83 1456.33 1352 1459.89 Q1350.2 1463.43 1350.2 1470.56 Q1350.2 1477.67 1352 1481.23 Q1353.83 1484.78 1357.44 1484.78 Q1361.08 1484.78 1362.88 1481.23 Q1364.71 1477.67 1364.71 1470.56 Q1364.71 1463.43 1362.88 1459.89 Q1361.08 1456.33 1357.44 1456.33 M1357.44 1452.62 Q1363.25 1452.62 1366.31 1457.23 Q1369.39 1461.81 1369.39 1470.56 Q1369.39 1479.29 1366.31 1483.9 Q1363.25 1488.48 1357.44 1488.48 Q1351.63 1488.48 1348.56 1483.9 Q1345.5 1479.29 1345.5 1470.56 Q1345.5 1461.81 1348.56 1457.23 Q1351.63 1452.62 1357.44 1452.62 Z" fill="#000000" fill-rule="evenodd" fill-opacity="1" /><path clip-path="url(#clip920)" d="M1723.75 1456.33 Q1720.14 1456.33 1718.31 1459.89 Q1716.5 1463.43 1716.5 1470.56 Q1716.5 1477.67 1718.31 1481.23 Q1720.14 1484.78 1723.75 1484.78 Q1727.38 1484.78 1729.19 1481.23 Q1731.02 1477.67 1731.02 1470.56 Q1731.02 1463.43 1729.19 1459.89 Q1727.38 1456.33 1723.75 1456.33 M1723.75 1452.62 Q1729.56 1452.62 1732.61 1457.23 Q1735.69 1461.81 1735.69 1470.56 Q1735.69 1479.29 1732.61 1483.9 Q1729.56 1488.48 1723.75 1488.48 Q1717.94 1488.48 1714.86 1483.9 Q1711.8 1479.29 1711.8 1470.56 Q1711.8 1461.81 1714.86 1457.23 Q1717.94 1452.62 1723.75 1452.62 Z" fill="#000000" fill-rule="evenodd" fill-opacity="1" /><path clip-path="url(#clip920)" d="M1743.91 1481.93 L1748.79 1481.93 L1748.79 1487.81 L1743.91 1487.81 L1743.91 1481.93 Z" fill="#000000" fill-rule="evenodd" fill-opacity="1" /><path clip-path="url(#clip920)" d="M1768.98 1456.33 Q1765.37 1456.33 1763.54 1459.89 Q1761.73 1463.43 1761.73 1470.56 Q1761.73 1477.67 1763.54 1481.23 Q1765.37 1484.78 1768.98 1484.78 Q1772.61 1484.78 1774.42 1481.23 Q1776.25 1477.67 1776.25 1470.56 Q1776.25 1463.43 1774.42 1459.89 Q1772.61 1456.33 1768.98 1456.33 M1768.98 1452.62 Q1774.79 1452.62 1777.85 1457.23 Q1780.92 1461.81 1780.92 1470.56 Q1780.92 1479.29 1777.85 1483.9 Q1774.79 1488.48 1768.98 1488.48 Q1763.17 1488.48 1760.09 1483.9 Q1757.04 1479.29 1757.04 1470.56 Q1757.04 1461.81 1760.09 1457.23 Q1763.17 1452.62 1768.98 1452.62 Z" fill="#000000" fill-rule="evenodd" fill-opacity="1" /><path clip-path="url(#clip920)" d="M1799.14 1456.33 Q1795.53 1456.33 1793.7 1459.89 Q1791.9 1463.43 1791.9 1470.56 Q1791.9 1477.67 1793.7 1481.23 Q1795.53 1484.78 1799.14 1484.78 Q1802.78 1484.78 1804.58 1481.23 Q1806.41 1477.67 1806.41 1470.56 Q1806.41 1463.43 1804.58 1459.89 Q1802.78 1456.33 1799.14 1456.33 M1799.14 1452.62 Q1804.95 1452.62 1808.01 1457.23 Q1811.09 1461.81 1811.09 1470.56 Q1811.09 1479.29 1808.01 1483.9 Q1804.95 1488.48 1799.14 1488.48 Q1793.33 1488.48 1790.25 1483.9 Q1787.2 1479.29 1787.2 1470.56 Q1787.2 1461.81 1790.25 1457.23 Q1793.33 1452.62 1799.14 1452.62 Z" fill="#000000" fill-rule="evenodd" fill-opacity="1" /><path clip-path="url(#clip920)" d="M1818.12 1453.25 L1840.35 1453.25 L1840.35 1455.24 L1827.8 1487.81 L1822.91 1487.81 L1834.72 1457.18 L1818.12 1457.18 L1818.12 1453.25 Z" fill="#000000" fill-rule="evenodd" fill-opacity="1" /><path clip-path="url(#clip920)" d="M1849.51 1453.25 L1867.87 1453.25 L1867.87 1457.18 L1853.79 1457.18 L1853.79 1465.66 Q1854.81 1465.31 1855.83 1465.15 Q1856.85 1464.96 1857.87 1464.96 Q1863.66 1464.96 1867.03 1468.13 Q1870.41 1471.3 1870.41 1476.72 Q1870.41 1482.3 1866.94 1485.4 Q1863.47 1488.48 1857.15 1488.48 Q1854.97 1488.48 1852.71 1488.11 Q1850.46 1487.74 1848.05 1487 L1848.05 1482.3 Q1850.14 1483.43 1852.36 1483.99 Q1854.58 1484.54 1857.06 1484.54 Q1861.06 1484.54 1863.4 1482.44 Q1865.74 1480.33 1865.74 1476.72 Q1865.74 1473.11 1863.4 1471 Q1861.06 1468.9 1857.06 1468.9 Q1855.18 1468.9 1853.31 1469.31 Q1851.46 1469.73 1849.51 1470.61 L1849.51 1453.25 Z" fill="#000000" fill-rule="evenodd" fill-opacity="1" /><path clip-path="url(#clip920)" d="M2224.77 1456.33 Q2221.16 1456.33 2219.34 1459.89 Q2217.53 1463.43 2217.53 1470.56 Q2217.53 1477.67 2219.34 1481.23 Q2221.16 1484.78 2224.77 1484.78 Q2228.41 1484.78 2230.21 1481.23 Q2232.04 1477.67 2232.04 1470.56 Q2232.04 1463.43 2230.21 1459.89 Q2228.41 1456.33 2224.77 1456.33 M2224.77 1452.62 Q2230.58 1452.62 2233.64 1457.23 Q2236.72 1461.81 2236.72 1470.56 Q2236.72 1479.29 2233.64 1483.9 Q2230.58 1488.48 2224.77 1488.48 Q2218.96 1488.48 2215.89 1483.9 Q2212.83 1479.29 2212.83 1470.56 Q2212.83 1461.81 2215.89 1457.23 Q2218.96 1452.62 2224.77 1452.62 Z" fill="#000000" fill-rule="evenodd" fill-opacity="1" /><path clip-path="url(#clip920)" d="M2244.94 1481.93 L2249.82 1481.93 L2249.82 1487.81 L2244.94 1487.81 L2244.94 1481.93 Z" fill="#000000" fill-rule="evenodd" fill-opacity="1" /><path clip-path="url(#clip920)" d="M2270.01 1456.33 Q2266.39 1456.33 2264.57 1459.89 Q2262.76 1463.43 2262.76 1470.56 Q2262.76 1477.67 2264.57 1481.23 Q2266.39 1484.78 2270.01 1484.78 Q2273.64 1484.78 2275.45 1481.23 Q2277.27 1477.67 2277.27 1470.56 Q2277.27 1463.43 2275.45 1459.89 Q2273.64 1456.33 2270.01 1456.33 M2270.01 1452.62 Q2275.82 1452.62 2278.87 1457.23 Q2281.95 1461.81 2281.95 1470.56 Q2281.95 1479.29 2278.87 1483.9 Q2275.82 1488.48 2270.01 1488.48 Q2264.2 1488.48 2261.12 1483.9 Q2258.06 1479.29 2258.06 1470.56 Q2258.06 1461.81 2261.12 1457.23 Q2264.2 1452.62 2270.01 1452.62 Z" fill="#000000" fill-rule="evenodd" fill-opacity="1" /><path clip-path="url(#clip920)" d="M2290.98 1483.87 L2298.62 1483.87 L2298.62 1457.51 L2290.31 1459.17 L2290.31 1454.91 L2298.57 1453.25 L2303.25 1453.25 L2303.25 1483.87 L2310.89 1483.87 L2310.89 1487.81 L2290.98 1487.81 L2290.98 1483.87 Z" fill="#000000" fill-rule="evenodd" fill-opacity="1" /><path clip-path="url(#clip920)" d="M2330.33 1456.33 Q2326.72 1456.33 2324.89 1459.89 Q2323.08 1463.43 2323.08 1470.56 Q2323.08 1477.67 2324.89 1481.23 Q2326.72 1484.78 2330.33 1484.78 Q2333.96 1484.78 2335.77 1481.23 Q2337.6 1477.67 2337.6 1470.56 Q2337.6 1463.43 2335.77 1459.89 Q2333.96 1456.33 2330.33 1456.33 M2330.33 1452.62 Q2336.14 1452.62 2339.2 1457.23 Q2342.27 1461.81 2342.27 1470.56 Q2342.27 1479.29 2339.2 1483.9 Q2336.14 1488.48 2330.33 1488.48 Q2324.52 1488.48 2321.44 1483.9 Q2318.39 1479.29 2318.39 1470.56 Q2318.39 1461.81 2321.44 1457.23 Q2324.52 1452.62 2330.33 1452.62 Z" fill="#000000" fill-rule="evenodd" fill-opacity="1" /><path clip-path="url(#clip920)" d="M2360.49 1456.33 Q2356.88 1456.33 2355.05 1459.89 Q2353.25 1463.43 2353.25 1470.56 Q2353.25 1477.67 2355.05 1481.23 Q2356.88 1484.78 2360.49 1484.78 Q2364.13 1484.78 2365.93 1481.23 Q2367.76 1477.67 2367.76 1470.56 Q2367.76 1463.43 2365.93 1459.89 Q2364.13 1456.33 2360.49 1456.33 M2360.49 1452.62 Q2366.3 1452.62 2369.36 1457.23 Q2372.44 1461.81 2372.44 1470.56 Q2372.44 1479.29 2369.36 1483.9 Q2366.3 1488.48 2360.49 1488.48 Q2354.68 1488.48 2351.6 1483.9 Q2348.55 1479.29 2348.55 1470.56 Q2348.55 1461.81 2351.6 1457.23 Q2354.68 1452.62 2360.49 1452.62 Z" fill="#000000" fill-rule="evenodd" fill-opacity="1" /><path clip-path="url(#clip920)" d="M1289.13 1528.78 Q1289.13 1530.61 1288.01 1531.71 Q1286.91 1532.8 1285.53 1532.8 Q1284.3 1532.8 1283.66 1532.1 Q1283.01 1531.39 1283.01 1530.49 Q1283.01 1530.1 1283.18 1529.62 Q1283.34 1529.1 1283.69 1528.49 Q1284.08 1527.88 1284.88 1527.43 Q1285.69 1526.97 1286.78 1526.91 Q1286.56 1526.68 1286.49 1526.65 Q1286.01 1526.27 1285.11 1526.14 Q1284.98 1526.07 1284.53 1526.07 Q1282.31 1526.07 1280.05 1527.72 Q1277.83 1529.33 1275.09 1532.39 Q1271.65 1535.96 1269.42 1537.28 Q1279.18 1538.57 1279.18 1544.2 Q1279.18 1545.14 1278.92 1546.27 Q1278.41 1548.39 1278.41 1549.94 Q1278.41 1553.03 1280.5 1553.03 Q1282.53 1553.03 1283.82 1550.97 Q1285.14 1548.91 1286.24 1544.88 Q1286.4 1544.14 1286.56 1543.91 Q1286.72 1543.69 1287.17 1543.69 Q1287.97 1543.69 1287.97 1544.33 Q1287.23 1548.1 1285.59 1551 Q1283.5 1554.51 1280.37 1554.51 Q1277.77 1554.51 1276.03 1552.71 Q1274.32 1550.87 1274.32 1547.97 Q1274.32 1547.26 1274.58 1545.65 Q1274.77 1545.01 1274.77 1544.27 Q1274.77 1542.76 1273.93 1541.63 Q1273.1 1540.47 1271.74 1539.89 Q1270.39 1539.31 1269.26 1539.05 Q1268.17 1538.76 1267.11 1538.67 Q1263.88 1552.29 1263.43 1553.13 Q1263.14 1553.71 1262.5 1554.09 Q1261.86 1554.51 1261.18 1554.51 Q1260.54 1554.51 1259.89 1554.06 Q1259.28 1553.64 1259.28 1552.64 Q1259.28 1552.13 1259.54 1551.19 L1269.1 1513.19 L1269.3 1511.9 Q1269.3 1511.52 1269.13 1511.32 Q1269.01 1511.1 1268.23 1510.94 Q1267.49 1510.78 1266.01 1510.78 Q1265.4 1510.78 1265.11 1510.74 Q1264.85 1510.71 1264.63 1510.55 Q1264.4 1510.36 1264.4 1509.97 Q1264.4 1509.42 1264.63 1509.13 Q1264.88 1508.81 1265.08 1508.75 Q1265.27 1508.68 1265.66 1508.65 Q1266.2 1508.62 1268.04 1508.46 Q1269.87 1508.26 1271.45 1508.13 Q1273.03 1508.01 1273.71 1508.01 Q1274.09 1508.01 1274.29 1508.2 Q1274.51 1508.36 1274.54 1508.55 L1274.58 1508.71 L1267.72 1536.54 Q1270.55 1535.41 1275.03 1530.42 Q1280.21 1524.62 1284.66 1524.62 Q1286.75 1524.62 1287.94 1525.91 Q1289.13 1527.17 1289.13 1528.78 Z" fill="#000000" fill-rule="evenodd" fill-opacity="1" /><path clip-path="url(#clip920)" d="M1295.88 1566.56 Q1295.88 1565.18 1296.67 1564.53 Q1297.46 1563.88 1298.47 1563.88 Q1299.53 1563.88 1300.28 1564.57 Q1301.04 1565.25 1301.04 1566.45 Q1301.04 1567.73 1300.14 1568.45 Q1299.26 1569.17 1298 1568.99 Q1299.11 1570.84 1301.13 1571.68 Q1303.19 1572.51 1305.08 1572.51 Q1307.06 1572.51 1308.66 1570.8 Q1310.29 1569.08 1310.29 1564.89 Q1310.29 1561.33 1308.89 1559.28 Q1307.51 1557.23 1304.79 1557.23 L1302.76 1557.23 Q1302.06 1557.23 1301.86 1557.16 Q1301.65 1557.09 1301.65 1556.71 Q1301.65 1556.26 1302.35 1556.17 Q1303.05 1556.17 1304.16 1556.03 Q1306.84 1555.94 1308.26 1553.62 Q1309.54 1551.45 1309.54 1548.37 Q1309.54 1545.55 1308.19 1544.38 Q1306.86 1543.18 1305.12 1543.18 Q1303.5 1543.18 1301.72 1543.86 Q1299.94 1544.53 1298.97 1546.04 Q1301.83 1546.04 1301.83 1548.37 Q1301.83 1549.38 1301.18 1550.06 Q1300.55 1550.71 1299.49 1550.71 Q1298.47 1550.71 1297.8 1550.08 Q1297.12 1549.43 1297.12 1548.32 Q1297.12 1545.68 1299.47 1543.86 Q1301.83 1542.03 1305.31 1542.03 Q1308.73 1542.03 1311.26 1543.83 Q1313.8 1545.64 1313.8 1548.41 Q1313.8 1551.14 1312 1553.37 Q1310.2 1555.6 1307.33 1556.53 Q1310.85 1557.23 1312.95 1559.62 Q1315.04 1561.98 1315.04 1564.89 Q1315.04 1568.5 1312.2 1571.16 Q1309.36 1573.8 1305.21 1573.8 Q1301.38 1573.8 1298.63 1571.72 Q1295.88 1569.65 1295.88 1566.56 Z" fill="#000000" fill-rule="evenodd" fill-opacity="1" /><polyline clip-path="url(#clip922)" style="stroke:#000000; stroke-linecap:butt; stroke-linejoin:round; stroke-width:2; stroke-opacity:0.1; fill:none" points="
  228.421,1328.69 2352.76,1328.69 
  "/>
<polyline clip-path="url(#clip922)" style="stroke:#000000; stroke-linecap:butt; stroke-linejoin:round; stroke-width:2; stroke-opacity:0.1; fill:none" points="
  228.421,1061.41 2352.76,1061.41 
  "/>
<polyline clip-path="url(#clip922)" style="stroke:#000000; stroke-linecap:butt; stroke-linejoin:round; stroke-width:2; stroke-opacity:0.1; fill:none" points="
  228.421,794.141 2352.76,794.141 
  "/>
<polyline clip-path="url(#clip922)" style="stroke:#000000; stroke-linecap:butt; stroke-linejoin:round; stroke-width:2; stroke-opacity:0.1; fill:none" points="
  228.421,526.867 2352.76,526.867 
  "/>
<polyline clip-path="url(#clip922)" style="stroke:#000000; stroke-linecap:butt; stroke-linejoin:round; stroke-width:2; stroke-opacity:0.1; fill:none" points="
  228.421,259.594 2352.76,259.594 
  "/>
<polyline clip-path="url(#clip920)" style="stroke:#000000; stroke-linecap:butt; stroke-linejoin:round; stroke-width:4; stroke-opacity:1; fill:none" points="
  228.421,1427.14 228.421,47.2441 
  "/>
<polyline clip-path="url(#clip920)" style="stroke:#000000; stroke-linecap:butt; stroke-linejoin:round; stroke-width:4; stroke-opacity:1; fill:none" points="
  228.421,1328.69 247.319,1328.69 
  "/>
<polyline clip-path="url(#clip920)" style="stroke:#000000; stroke-linecap:butt; stroke-linejoin:round; stroke-width:4; stroke-opacity:1; fill:none" points="
  228.421,1061.41 247.319,1061.41 
  "/>
<polyline clip-path="url(#clip920)" style="stroke:#000000; stroke-linecap:butt; stroke-linejoin:round; stroke-width:4; stroke-opacity:1; fill:none" points="
  228.421,794.141 247.319,794.141 
  "/>
<polyline clip-path="url(#clip920)" style="stroke:#000000; stroke-linecap:butt; stroke-linejoin:round; stroke-width:4; stroke-opacity:1; fill:none" points="
  228.421,526.867 247.319,526.867 
  "/>
<polyline clip-path="url(#clip920)" style="stroke:#000000; stroke-linecap:butt; stroke-linejoin:round; stroke-width:4; stroke-opacity:1; fill:none" points="
  228.421,259.594 247.319,259.594 
  "/>
<path clip-path="url(#clip920)" d="M150.894 1326.83 Q147.746 1326.83 145.894 1328.98 Q144.065 1331.13 144.065 1334.88 Q144.065 1338.61 145.894 1340.78 Q147.746 1342.94 150.894 1342.94 Q154.042 1342.94 155.871 1340.78 Q157.723 1338.61 157.723 1334.88 Q157.723 1331.13 155.871 1328.98 Q154.042 1326.83 150.894 1326.83 M160.176 1312.17 L160.176 1316.43 Q158.417 1315.6 156.611 1315.16 Q154.829 1314.72 153.07 1314.72 Q148.44 1314.72 145.986 1317.84 Q143.556 1320.97 143.209 1327.29 Q144.574 1325.27 146.635 1324.21 Q148.695 1323.12 151.172 1323.12 Q156.38 1323.12 159.389 1326.29 Q162.422 1329.44 162.422 1334.88 Q162.422 1340.2 159.273 1343.42 Q156.125 1346.64 150.894 1346.64 Q144.899 1346.64 141.727 1342.06 Q138.556 1337.45 138.556 1328.72 Q138.556 1320.53 142.445 1315.67 Q146.334 1310.78 152.885 1310.78 Q154.644 1310.78 156.426 1311.13 Q158.232 1311.48 160.176 1312.17 Z" fill="#000000" fill-rule="evenodd" fill-opacity="1" /><path clip-path="url(#clip920)" d="M180.477 1314.49 Q176.866 1314.49 175.037 1318.05 Q173.232 1321.59 173.232 1328.72 Q173.232 1335.83 175.037 1339.39 Q176.866 1342.94 180.477 1342.94 Q184.111 1342.94 185.917 1339.39 Q187.746 1335.83 187.746 1328.72 Q187.746 1321.59 185.917 1318.05 Q184.111 1314.49 180.477 1314.49 M180.477 1310.78 Q186.287 1310.78 189.343 1315.39 Q192.421 1319.97 192.421 1328.72 Q192.421 1337.45 189.343 1342.06 Q186.287 1346.64 180.477 1346.64 Q174.667 1346.64 171.588 1342.06 Q168.533 1337.45 168.533 1328.72 Q168.533 1319.97 171.588 1315.39 Q174.667 1310.78 180.477 1310.78 Z" fill="#000000" fill-rule="evenodd" fill-opacity="1" /><path clip-path="url(#clip920)" d="M140.454 1077.98 L140.454 1073.72 Q142.213 1074.55 144.019 1074.99 Q145.824 1075.43 147.561 1075.43 Q152.19 1075.43 154.621 1072.33 Q157.074 1069.2 157.422 1062.86 Q156.079 1064.85 154.019 1065.92 Q151.959 1066.98 149.459 1066.98 Q144.274 1066.98 141.241 1063.86 Q138.232 1060.71 138.232 1055.27 Q138.232 1049.94 141.38 1046.73 Q144.528 1043.51 149.76 1043.51 Q155.755 1043.51 158.903 1048.12 Q162.074 1052.7 162.074 1061.45 Q162.074 1069.62 158.186 1074.5 Q154.32 1079.37 147.769 1079.37 Q146.01 1079.37 144.204 1079.02 Q142.399 1078.67 140.454 1077.98 M149.76 1063.32 Q152.908 1063.32 154.736 1061.17 Q156.588 1059.02 156.588 1055.27 Q156.588 1051.54 154.736 1049.39 Q152.908 1047.21 149.76 1047.21 Q146.611 1047.21 144.76 1049.39 Q142.931 1051.54 142.931 1055.27 Q142.931 1059.02 144.76 1061.17 Q146.611 1063.32 149.76 1063.32 Z" fill="#000000" fill-rule="evenodd" fill-opacity="1" /><path clip-path="url(#clip920)" d="M180.477 1047.21 Q176.866 1047.21 175.037 1050.78 Q173.232 1054.32 173.232 1061.45 Q173.232 1068.56 175.037 1072.12 Q176.866 1075.66 180.477 1075.66 Q184.111 1075.66 185.917 1072.12 Q187.746 1068.56 187.746 1061.45 Q187.746 1054.32 185.917 1050.78 Q184.111 1047.21 180.477 1047.21 M180.477 1043.51 Q186.287 1043.51 189.343 1048.12 Q192.421 1052.7 192.421 1061.45 Q192.421 1070.18 189.343 1074.78 Q186.287 1079.37 180.477 1079.37 Q174.667 1079.37 171.588 1074.78 Q168.533 1070.18 168.533 1061.45 Q168.533 1052.7 171.588 1048.12 Q174.667 1043.51 180.477 1043.51 Z" fill="#000000" fill-rule="evenodd" fill-opacity="1" /><path clip-path="url(#clip920)" d="M110.964 807.486 L118.602 807.486 L118.602 781.12 L110.292 782.787 L110.292 778.528 L118.556 776.861 L123.232 776.861 L123.232 807.486 L130.871 807.486 L130.871 811.421 L110.964 811.421 L110.964 807.486 Z" fill="#000000" fill-rule="evenodd" fill-opacity="1" /><path clip-path="url(#clip920)" d="M144.343 807.486 L160.662 807.486 L160.662 811.421 L138.718 811.421 L138.718 807.486 Q141.38 804.731 145.963 800.102 Q150.57 795.449 151.75 794.106 Q153.996 791.583 154.875 789.847 Q155.778 788.088 155.778 786.398 Q155.778 783.643 153.834 781.907 Q151.912 780.171 148.811 780.171 Q146.611 780.171 144.158 780.935 Q141.727 781.699 138.949 783.25 L138.949 778.528 Q141.774 777.393 144.227 776.815 Q146.681 776.236 148.718 776.236 Q154.088 776.236 157.283 778.921 Q160.477 781.606 160.477 786.097 Q160.477 788.227 159.667 790.148 Q158.88 792.046 156.773 794.639 Q156.195 795.31 153.093 798.528 Q149.991 801.722 144.343 807.486 Z" fill="#000000" fill-rule="evenodd" fill-opacity="1" /><path clip-path="url(#clip920)" d="M180.477 779.94 Q176.866 779.94 175.037 783.504 Q173.232 787.046 173.232 794.176 Q173.232 801.282 175.037 804.847 Q176.866 808.389 180.477 808.389 Q184.111 808.389 185.917 804.847 Q187.746 801.282 187.746 794.176 Q187.746 787.046 185.917 783.504 Q184.111 779.94 180.477 779.94 M180.477 776.236 Q186.287 776.236 189.343 780.842 Q192.421 785.426 192.421 794.176 Q192.421 802.903 189.343 807.509 Q186.287 812.092 180.477 812.092 Q174.667 812.092 171.588 807.509 Q168.533 802.903 168.533 794.176 Q168.533 785.426 171.588 780.842 Q174.667 776.236 180.477 776.236 Z" fill="#000000" fill-rule="evenodd" fill-opacity="1" /><path clip-path="url(#clip920)" d="M110.964 540.212 L118.602 540.212 L118.602 513.847 L110.292 515.513 L110.292 511.254 L118.556 509.587 L123.232 509.587 L123.232 540.212 L130.871 540.212 L130.871 544.147 L110.964 544.147 L110.964 540.212 Z" fill="#000000" fill-rule="evenodd" fill-opacity="1" /><path clip-path="url(#clip920)" d="M140.362 509.587 L158.718 509.587 L158.718 513.522 L144.644 513.522 L144.644 521.995 Q145.662 521.647 146.681 521.485 Q147.699 521.3 148.718 521.3 Q154.505 521.3 157.885 524.471 Q161.264 527.643 161.264 533.059 Q161.264 538.638 157.792 541.74 Q154.32 544.819 148 544.819 Q145.824 544.819 143.556 544.448 Q141.311 544.078 138.903 543.337 L138.903 538.638 Q140.987 539.772 143.209 540.328 Q145.431 540.883 147.908 540.883 Q151.912 540.883 154.25 538.777 Q156.588 536.67 156.588 533.059 Q156.588 529.448 154.25 527.342 Q151.912 525.235 147.908 525.235 Q146.033 525.235 144.158 525.652 Q142.306 526.069 140.362 526.948 L140.362 509.587 Z" fill="#000000" fill-rule="evenodd" fill-opacity="1" /><path clip-path="url(#clip920)" d="M180.477 512.666 Q176.866 512.666 175.037 516.231 Q173.232 519.772 173.232 526.902 Q173.232 534.008 175.037 537.573 Q176.866 541.115 180.477 541.115 Q184.111 541.115 185.917 537.573 Q187.746 534.008 187.746 526.902 Q187.746 519.772 185.917 516.231 Q184.111 512.666 180.477 512.666 M180.477 508.962 Q186.287 508.962 189.343 513.569 Q192.421 518.152 192.421 526.902 Q192.421 535.629 189.343 540.235 Q186.287 544.819 180.477 544.819 Q174.667 544.819 171.588 540.235 Q168.533 535.629 168.533 526.902 Q168.533 518.152 171.588 513.569 Q174.667 508.962 180.477 508.962 Z" fill="#000000" fill-rule="evenodd" fill-opacity="1" /><path clip-path="url(#clip920)" d="M110.964 272.938 L118.602 272.938 L118.602 246.573 L110.292 248.239 L110.292 243.98 L118.556 242.314 L123.232 242.314 L123.232 272.938 L130.871 272.938 L130.871 276.874 L110.964 276.874 L110.964 272.938 Z" fill="#000000" fill-rule="evenodd" fill-opacity="1" /><path clip-path="url(#clip920)" d="M150.315 260.462 Q146.982 260.462 145.061 262.244 Q143.162 264.026 143.162 267.151 Q143.162 270.276 145.061 272.059 Q146.982 273.841 150.315 273.841 Q153.648 273.841 155.57 272.059 Q157.491 270.253 157.491 267.151 Q157.491 264.026 155.57 262.244 Q153.672 260.462 150.315 260.462 M145.639 258.471 Q142.63 257.73 140.94 255.67 Q139.274 253.61 139.274 250.647 Q139.274 246.503 142.213 244.096 Q145.176 241.689 150.315 241.689 Q155.477 241.689 158.417 244.096 Q161.357 246.503 161.357 250.647 Q161.357 253.61 159.667 255.67 Q158 257.73 155.014 258.471 Q158.394 259.258 160.269 261.55 Q162.167 263.841 162.167 267.151 Q162.167 272.174 159.088 274.86 Q156.033 277.545 150.315 277.545 Q144.598 277.545 141.519 274.86 Q138.463 272.174 138.463 267.151 Q138.463 263.841 140.362 261.55 Q142.26 259.258 145.639 258.471 M143.926 251.087 Q143.926 253.772 145.593 255.276 Q147.283 256.781 150.315 256.781 Q153.324 256.781 155.014 255.276 Q156.727 253.772 156.727 251.087 Q156.727 248.401 155.014 246.897 Q153.324 245.392 150.315 245.392 Q147.283 245.392 145.593 246.897 Q143.926 248.401 143.926 251.087 Z" fill="#000000" fill-rule="evenodd" fill-opacity="1" /><path clip-path="url(#clip920)" d="M180.477 245.392 Q176.866 245.392 175.037 248.957 Q173.232 252.499 173.232 259.628 Q173.232 266.735 175.037 270.3 Q176.866 273.841 180.477 273.841 Q184.111 273.841 185.917 270.3 Q187.746 266.735 187.746 259.628 Q187.746 252.499 185.917 248.957 Q184.111 245.392 180.477 245.392 M180.477 241.689 Q186.287 241.689 189.343 246.295 Q192.421 250.878 192.421 259.628 Q192.421 268.355 189.343 272.962 Q186.287 277.545 180.477 277.545 Q174.667 277.545 171.588 272.962 Q168.533 268.355 168.533 259.628 Q168.533 250.878 171.588 246.295 Q174.667 241.689 180.477 241.689 Z" fill="#000000" fill-rule="evenodd" fill-opacity="1" /><path clip-path="url(#clip920)" d="M79.6659 764.098 Q80.2134 764.098 80.5999 764.484 Q80.9863 764.871 80.9863 765.418 Q80.9863 766.352 80.1168 766.674 L48.4584 778.945 Q48.3296 779.009 48.0075 779.009 Q47.6855 779.009 47.5566 778.945 L15.8983 766.674 Q15.0287 766.352 15.0287 765.418 Q15.0287 764.871 15.4152 764.484 Q15.8017 764.098 16.3492 764.098 Q16.6712 764.098 16.8 764.162 L48.0075 776.304 L79.215 764.162 Q79.3438 764.098 79.6659 764.098 Z" fill="#000000" fill-rule="evenodd" fill-opacity="1" /><path clip-path="url(#clip920)" d="M45.8819 719.158 Q50.584 719.158 55.125 721.541 Q59.666 723.892 62.468 727.596 Q65.2377 731.299 65.2377 735.067 Q65.2377 737.322 64.0138 738.835 Q62.7578 740.317 60.9865 741.122 Q63.1765 741.734 68.426 743.054 Q73.6756 744.375 74.1909 744.375 Q74.4807 744.375 74.6096 744.31 Q74.7384 744.246 74.8994 743.956 Q75.0927 743.666 75.1571 742.958 Q75.2537 742.249 75.2537 741.058 Q75.2537 740.446 75.2537 740.22 Q75.2859 739.963 75.4469 739.737 Q75.608 739.48 75.9622 739.48 Q77.2827 739.48 77.2827 740.671 Q77.2827 741.734 77.186 743.924 Q77.0894 746.114 77.0894 747.209 Q77.0894 748.143 77.186 750.011 Q77.2827 751.879 77.2827 752.748 Q77.2827 753.618 76.5097 753.618 Q76.0588 753.618 75.769 753.489 Q75.5113 753.392 75.3825 753.135 Q75.2859 752.877 75.2537 752.652 Q75.2537 752.459 75.2537 752.072 Q75.2537 750.591 74.996 749.946 Q74.7706 749.302 74.2875 749.077 Q73.8366 748.819 72.5484 748.529 L43.1766 741.122 Q41.2121 740.671 39.8272 740.671 Q38.0881 740.671 37.444 741.219 Q36.7999 741.766 36.7999 742.732 Q36.7999 744.407 38.7967 745.502 Q40.7934 746.597 44.6581 747.531 Q45.7209 747.821 45.9464 748.014 Q46.1718 748.175 46.1718 748.658 Q46.1396 749.463 45.4955 749.463 Q45.3344 749.463 44.3039 749.206 Q43.2411 748.948 41.6952 748.465 Q40.1171 747.95 39.1187 747.402 Q38.4424 747.08 37.9915 746.79 Q37.5406 746.5 36.8321 745.921 Q36.1236 745.309 35.7371 744.439 Q35.3506 743.57 35.3506 742.507 Q35.3506 740.446 36.5744 738.739 Q37.7983 737.032 40.2781 736.581 Q38.1203 734.745 36.7355 732.491 Q35.3506 730.236 35.3506 727.95 Q35.3506 724.15 38.3136 721.67 Q41.2443 719.158 45.8819 719.158 M42.9834 723.924 Q40.0527 723.924 38.4424 725.051 Q36.7999 726.146 36.7999 728.143 Q36.7999 730.623 39.3119 733.489 Q41.6952 736.323 43.9174 736.903 L56.8319 740.156 L57.8947 740.349 Q58.088 740.349 58.6677 740.252 Q59.2152 740.124 60.1169 739.769 Q61.0187 739.383 61.8238 738.868 Q62.5968 738.32 63.1765 737.354 Q63.7562 736.356 63.7562 735.132 Q63.7562 733.167 62.0171 731.042 Q60.278 728.884 56.993 727.274 Q54.8674 726.275 50.2941 725.116 Q45.6887 723.924 42.9834 723.924 Z" fill="#000000" fill-rule="evenodd" fill-opacity="1" /><path clip-path="url(#clip920)" d="M47.5566 705.948 Q47.6855 705.883 48.0075 705.883 Q48.3296 705.883 48.4584 705.948 L80.1168 718.218 Q80.9863 718.54 80.9863 719.442 Q80.9863 719.99 80.5999 720.376 Q80.2134 720.762 79.6659 720.762 Q79.3438 720.762 79.215 720.698 L48.0075 708.589 L16.8 720.698 Q16.6712 720.762 16.3492 720.762 Q15.8017 720.762 15.4152 720.376 Q15.0287 719.99 15.0287 719.442 Q15.0287 718.54 15.8983 718.218 L47.5566 705.948 Z" fill="#000000" fill-rule="evenodd" fill-opacity="1" /><polyline clip-path="url(#clip922)" style="stroke:#009af9; stroke-linecap:butt; stroke-linejoin:round; stroke-width:4; stroke-opacity:1; fill:none" points="
  288.544,1388.08 290.55,1112.99 292.556,933.589 294.562,807.34 296.568,713.672 298.575,641.414 300.581,583.977 302.587,537.227 304.593,498.434 306.599,465.727 
  308.605,437.776 310.611,413.616 312.617,392.524 314.623,373.95 316.629,357.469 318.636,342.746 320.642,329.514 322.648,317.557 324.654,306.7 326.66,296.797 
  328.666,287.728 330.672,279.392 332.678,271.703 334.684,264.59 336.69,257.989 338.696,251.847 340.703,246.118 342.709,240.761 344.715,235.743 346.721,231.03 
  348.727,226.597 350.733,222.419 352.739,218.475 354.745,214.745 356.751,211.213 358.757,207.863 360.764,204.682 362.77,201.657 364.776,198.777 366.782,196.032 
  368.788,193.412 370.794,190.909 372.8,188.515 374.806,186.224 376.812,184.029 378.818,181.924 380.824,179.904 382.831,177.963 384.837,176.098 386.843,174.303 
  388.849,172.574 390.855,170.909 392.861,169.304 394.867,167.755 396.873,166.26 398.879,164.816 400.885,163.42 402.892,162.07 404.898,160.764 406.904,159.499 
  408.91,158.274 410.916,157.087 412.922,155.936 414.928,154.82 416.934,153.736 418.94,152.684 420.946,151.662 422.952,150.669 424.959,149.704 426.965,148.765 
  428.971,147.852 430.977,146.963 432.983,146.098 434.989,145.255 436.995,144.434 439.001,143.634 441.007,142.853 443.013,142.092 445.02,141.35 447.026,140.626 
  449.032,139.919 451.038,139.228 453.044,138.554 455.05,137.896 457.056,137.252 459.062,136.623 461.068,136.007 463.074,135.406 465.08,134.817 467.087,134.242 
  469.093,133.678 471.099,133.126 473.105,132.586 475.111,132.057 477.117,131.539 479.123,131.032 481.129,130.534 483.135,130.047 485.141,129.569 487.148,129.1 
  489.154,128.64 491.16,128.189 493.166,127.747 495.172,127.313 497.178,126.887 499.184,126.469 501.19,126.058 503.196,125.655 505.202,125.259 507.208,124.87 
  509.215,124.488 511.221,124.113 513.227,123.744 515.233,123.381 517.239,123.025 519.245,122.674 521.251,122.33 523.257,121.991 525.263,121.658 527.269,121.33 
  529.276,121.007 531.282,120.69 533.288,120.377 535.294,120.07 537.3,119.767 539.306,119.47 541.312,119.176 543.318,118.887 545.324,118.603 547.33,118.323 
  549.336,118.047 551.343,117.775 553.349,117.507 555.355,117.243 557.361,116.983 559.367,116.727 561.373,116.474 563.379,116.225 565.385,115.979 567.391,115.737 
  569.397,115.498 571.404,115.263 573.41,115.03 575.416,114.801 577.422,114.575 579.428,114.352 581.434,114.132 583.44,113.915 585.446,113.701 587.452,113.49 
  589.458,113.281 591.464,113.075 593.471,112.872 595.477,112.671 597.483,112.473 599.489,112.277 601.495,112.084 603.501,111.893 605.507,111.705 607.513,111.519 
  609.519,111.335 611.525,111.153 613.532,110.974 615.538,110.797 617.544,110.621 619.55,110.448 621.556,110.277 623.562,110.108 625.568,109.941 627.574,109.776 
  629.58,109.613 631.586,109.451 633.592,109.292 635.599,109.134 637.605,108.978 639.611,108.824 641.617,108.671 643.623,108.52 645.629,108.371 647.635,108.224 
  649.641,108.078 651.647,107.934 653.653,107.791 655.66,107.649 657.666,107.51 659.672,107.371 661.678,107.235 663.684,107.099 665.69,106.965 667.696,106.833 
  669.702,106.702 671.708,106.572 673.714,106.443 675.72,106.316 677.727,106.19 679.733,106.065 681.739,105.942 683.745,105.82 685.751,105.699 687.757,105.579 
  689.763,105.46 691.769,105.343 693.775,105.226 695.781,105.111 697.788,104.997 699.794,104.884 701.8,104.772 703.806,104.661 705.812,104.552 707.818,104.443 
  709.824,104.335 711.83,104.228 713.836,104.123 715.842,104.018 717.848,103.914 719.855,103.811 721.861,103.709 723.867,103.608 725.873,103.508 727.879,103.409 
  729.885,103.311 731.891,103.213 733.897,103.117 735.903,103.021 737.909,102.926 739.916,102.832 741.922,102.739 743.928,102.646 745.934,102.555 747.94,102.464 
  749.946,102.374 751.952,102.284 753.958,102.196 755.964,102.108 757.97,102.021 759.976,101.935 761.983,101.849 763.989,101.764 765.995,101.68 768.001,101.597 
  770.007,101.514 772.013,101.432 774.019,101.35 776.025,101.269 778.031,101.189 780.037,101.11 782.044,101.031 784.05,100.953 786.056,100.875 788.062,100.798 
  790.068,100.722 792.074,100.646 794.08,100.57 796.086,100.496 798.092,100.422 800.098,100.348 802.104,100.275 804.111,100.203 806.117,100.131 808.123,100.06 
  810.129,99.9894 812.135,99.9192 814.141,99.8495 816.147,99.7804 818.153,99.7118 820.159,99.6437 822.165,99.5761 824.172,99.509 826.178,99.4424 828.184,99.3763 
  830.19,99.3107 832.196,99.2455 834.202,99.1809 836.208,99.1167 838.214,99.0529 840.22,98.9896 842.226,98.9268 844.232,98.8644 846.239,98.8025 848.245,98.7409 
  850.251,98.6799 852.257,98.6192 854.263,98.559 856.269,98.4992 858.275,98.4398 860.281,98.3808 862.287,98.3223 864.293,98.2641 866.3,98.2064 868.306,98.149 
  870.312,98.092 872.318,98.0354 874.324,97.9792 876.33,97.9234 878.336,97.8679 880.342,97.8128 882.348,97.7581 884.354,97.7037 886.36,97.6498 888.367,97.5961 
  890.373,97.5428 892.379,97.4899 894.385,97.4373 896.391,97.3851 898.397,97.3332 900.403,97.2816 902.409,97.2304 904.415,97.1794 906.421,97.1289 908.428,97.0786 
  910.434,97.0287 912.44,96.9791 914.446,96.9297 916.452,96.8808 918.458,96.8321 920.464,96.7837 922.47,96.7356 924.476,96.6878 926.482,96.6404 928.488,96.5932 
  930.495,96.5463 932.501,96.4997 934.507,96.4534 936.513,96.4073 938.519,96.3616 940.525,96.3161 942.531,96.2709 944.537,96.226 946.543,96.1813 948.549,96.1369 
  950.556,96.0928 952.562,96.0489 954.568,96.0053 956.574,95.962 958.58,95.9189 960.586,95.8761 962.592,95.8335 964.598,95.7912 966.604,95.7491 968.61,95.7073 
  970.616,95.6657 972.623,95.6243 974.629,95.5832 976.635,95.5424 978.641,95.5017 980.647,95.4613 982.653,95.4211 984.659,95.3812 986.665,95.3415 988.671,95.302 
  990.677,95.2627 992.684,95.2237 994.69,95.1849 996.696,95.1462 998.702,95.1078 1000.71,95.0697 1002.71,95.0317 1004.72,94.9939 1006.73,94.9564 1008.73,94.9191 
  1010.74,94.8819 1012.74,94.845 1014.75,94.8083 1016.76,94.7717 1018.76,94.7354 1020.77,94.6993 1022.77,94.6633 1024.78,94.6276 1026.79,94.592 1028.79,94.5567 
  1030.8,94.5215 1032.81,94.4865 1034.81,94.4517 1036.82,94.4171 1038.82,94.3827 1040.83,94.3484 1042.84,94.3144 1044.84,94.2805 1046.85,94.2468 1048.85,94.2132 
  1050.86,94.1799 1052.87,94.1467 1054.87,94.1137 1056.88,94.0808 1058.88,94.0481 1060.89,94.0156 1062.9,93.9833 1064.9,93.9511 1066.91,93.9191 1068.92,93.8873 
  1070.92,93.8556 1072.93,93.824 1074.93,93.7927 1076.94,93.7615 1078.95,93.7304 1080.95,93.6995 1082.96,93.6688 1084.96,93.6382 1086.97,93.6078 1088.98,93.5775 
  1090.98,93.5473 1092.99,93.5174 1094.99,93.4875 1097,93.4578 1099.01,93.4283 1101.01,93.3989 1103.02,93.3696 1105.02,93.3405 1107.03,93.3115 1109.04,93.2827 
  1111.04,93.254 1113.05,93.2255 1115.06,93.1971 1117.06,93.1688 1119.07,93.1406 1121.07,93.1126 1123.08,93.0847 1125.09,93.057 1127.09,93.0294 1129.1,93.0019 
  1131.1,92.9745 1133.11,92.9473 1135.12,92.9202 1137.12,92.8933 1139.13,92.8664 1141.13,92.8397 1143.14,92.8131 1145.15,92.7866 1147.15,92.7603 1149.16,92.7341 
  1151.17,92.7079 1153.17,92.682 1155.18,92.6561 1157.18,92.6304 1159.19,92.6047 1161.2,92.5792 1163.2,92.5538 1165.21,92.5285 1167.21,92.5034 1169.22,92.4783 
  1171.23,92.4534 1173.23,92.4285 1175.24,92.4038 1177.24,92.3792 1179.25,92.3547 1181.26,92.3303 1183.26,92.3061 1185.27,92.2819 1187.27,92.2578 1189.28,92.2339 
  1191.29,92.21 1193.29,92.1863 1195.3,92.1626 1197.31,92.1391 1199.31,92.1156 1201.32,92.0923 1203.32,92.0691 1205.33,92.046 1207.34,92.0229 1209.34,92 
  1211.35,91.9772 1213.35,91.9544 1215.36,91.9318 1217.37,91.9092 1219.37,91.8868 1221.38,91.8644 1223.38,91.8422 1225.39,91.82 1227.4,91.798 1229.4,91.776 
  1231.41,91.7541 1233.41,91.7323 1235.42,91.7106 1237.43,91.689 1239.43,91.6675 1241.44,91.6461 1243.45,91.6248 1245.45,91.6035 1247.46,91.5824 1249.46,91.5613 
  1251.47,91.5403 1253.48,91.5194 1255.48,91.4986 1257.49,91.4779 1259.49,91.4572 1261.5,91.4367 1263.51,91.4162 1265.51,91.3958 1267.52,91.3755 1269.52,91.3553 
  1271.53,91.3352 1273.54,91.3151 1275.54,91.2951 1277.55,91.2752 1279.56,91.2554 1281.56,91.2357 1283.57,91.216 1285.57,91.1964 1287.58,91.1769 1289.59,91.1575 
  1291.59,91.1382 1293.6,91.1189 1295.6,91.0997 1297.61,91.0806 1299.62,91.0615 1301.62,91.0426 1303.63,91.0237 1305.63,91.0048 1307.64,90.9861 1309.65,90.9674 
  1311.65,90.9488 1313.66,90.9303 1315.66,90.9118 1317.67,90.8935 1319.68,90.8751 1321.68,90.8569 1323.69,90.8387 1325.7,90.8206 1327.7,90.8026 1329.71,90.7846 
  1331.71,90.7667 1333.72,90.7489 1335.73,90.7311 1337.73,90.7134 1339.74,90.6958 1341.74,90.6782 1343.75,90.6608 1345.76,90.6433 1347.76,90.626 1349.77,90.6087 
  1351.77,90.5914 1353.78,90.5743 1355.79,90.5572 1357.79,90.5401 1359.8,90.5231 1361.81,90.5062 1363.81,90.4894 1365.82,90.4726 1367.82,90.4559 1369.83,90.4392 
  1371.84,90.4226 1373.84,90.4061 1375.85,90.3896 1377.85,90.3732 1379.86,90.3568 1381.87,90.3405 1383.87,90.3242 1385.88,90.3081 1387.88,90.2919 1389.89,90.2759 
  1391.9,90.2599 1393.9,90.2439 1395.91,90.228 1397.91,90.2122 1399.92,90.1964 1401.93,90.1807 1403.93,90.165 1405.94,90.1494 1407.95,90.1338 1409.95,90.1183 
  1411.96,90.1029 1413.96,90.0875 1415.97,90.0722 1417.98,90.0569 1419.98,90.0417 1421.99,90.0265 1423.99,90.0114 1426,89.9963 1428.01,89.9813 1430.01,89.9663 
  1432.02,89.9514 1434.02,89.9366 1436.03,89.9217 1438.04,89.907 1440.04,89.8923 1442.05,89.8776 1444.05,89.863 1446.06,89.8485 1448.07,89.834 1450.07,89.8195 
  1452.08,89.8051 1454.09,89.7908 1456.09,89.7764 1458.1,89.7622 1460.1,89.748 1462.11,89.7338 1464.12,89.7197 1466.12,89.7056 1468.13,89.6916 1470.13,89.6777 
  1472.14,89.6637 1474.15,89.6499 1476.15,89.636 1478.16,89.6222 1480.16,89.6085 1482.17,89.5948 1484.18,89.5812 1486.18,89.5676 1488.19,89.554 1490.2,89.5405 
  1492.2,89.527 1494.21,89.5136 1496.21,89.5002 1498.22,89.4869 1500.23,89.4736 1502.23,89.4604 1504.24,89.4472 1506.24,89.434 1508.25,89.4209 1510.26,89.4078 
  1512.26,89.3948 1514.27,89.3818 1516.27,89.3689 1518.28,89.356 1520.29,89.3431 1522.29,89.3303 1524.3,89.3175 1526.3,89.3048 1528.31,89.2921 1530.32,89.2794 
  1532.32,89.2668 1534.33,89.2542 1536.34,89.2417 1538.34,89.2292 1540.35,89.2168 1542.35,89.2043 1544.36,89.192 1546.37,89.1796 1548.37,89.1673 1550.38,89.1551 
  1552.38,89.1429 1554.39,89.1307 1556.4,89.1185 1558.4,89.1064 1560.41,89.0944 1562.41,89.0823 1564.42,89.0703 1566.43,89.0584 1568.43,89.0465 1570.44,89.0346 
  1572.45,89.0228 1574.45,89.0109 1576.46,88.9992 1578.46,88.9874 1580.47,88.9757 1582.48,88.9641 1584.48,88.9525 1586.49,88.9409 1588.49,88.9293 1590.5,88.9178 
  1592.51,88.9063 1594.51,88.8949 1596.52,88.8835 1598.52,88.8721 1600.53,88.8607 1602.54,88.8494 1604.54,88.8382 1606.55,88.8269 1608.55,88.8157 1610.56,88.8045 
  1612.57,88.7934 1614.57,88.7823 1616.58,88.7712 1618.59,88.7602 1620.59,88.7492 1622.6,88.7382 1624.6,88.7273 1626.61,88.7164 1628.62,88.7055 1630.62,88.6946 
  1632.63,88.6838 1634.63,88.673 1636.64,88.6623 1638.65,88.6516 1640.65,88.6409 1642.66,88.6303 1644.66,88.6196 1646.67,88.609 1648.68,88.5985 1650.68,88.588 
  1652.69,88.5775 1654.69,88.567 1656.7,88.5566 1658.71,88.5462 1660.71,88.5358 1662.72,88.5254 1664.73,88.5151 1666.73,88.5048 1668.74,88.4946 1670.74,88.4844 
  1672.75,88.4742 1674.76,88.464 1676.76,88.4539 1678.77,88.4437 1680.77,88.4337 1682.78,88.4236 1684.79,88.4136 1686.79,88.4036 1688.8,88.3936 1690.8,88.3837 
  1692.81,88.3738 1694.82,88.3639 1696.82,88.3541 1698.83,88.3442 1700.84,88.3344 1702.84,88.3247 1704.85,88.3149 1706.85,88.3052 1708.86,88.2955 1710.87,88.2859 
  1712.87,88.2762 1714.88,88.2666 1716.88,88.2571 1718.89,88.2475 1720.9,88.238 1722.9,88.2285 1724.91,88.219 1726.91,88.2096 1728.92,88.2002 1730.93,88.1908 
  1732.93,88.1814 1734.94,88.172 1736.94,88.1627 1738.95,88.1534 1740.96,88.1442 1742.96,88.1349 1744.97,88.1257 1746.98,88.1165 1748.98,88.1074 1750.99,88.0982 
  1752.99,88.0891 1755,88.08 1757.01,88.071 1759.01,88.0619 1761.02,88.0529 1763.02,88.0439 1765.03,88.035 1767.04,88.026 1769.04,88.0171 1771.05,88.0082 
  1773.05,87.9993 1775.06,87.9905 1777.07,87.9817 1779.07,87.9729 1781.08,87.9641 1783.09,87.9553 1785.09,87.9466 1787.1,87.9379 1789.1,87.9292 1791.11,87.9206 
  1793.12,87.9119 1795.12,87.9033 1797.13,87.8947 1799.13,87.8862 1801.14,87.8776 1803.15,87.8691 1805.15,87.8606 1807.16,87.8521 1809.16,87.8437 1811.17,87.8352 
  1813.18,87.8268 1815.18,87.8184 1817.19,87.81 1819.19,87.8017 1821.2,87.7934 1823.21,87.7851 1825.21,87.7768 1827.22,87.7685 1829.23,87.7603 1831.23,87.7521 
  1833.24,87.7439 1835.24,87.7357 1837.25,87.7276 1839.26,87.7194 1841.26,87.7113 1843.27,87.7032 1845.27,87.6952 1847.28,87.6871 1849.29,87.6791 1851.29,87.6711 
  1853.3,87.6631 1855.3,87.6551 1857.31,87.6472 1859.32,87.6392 1861.32,87.6313 1863.33,87.6235 1865.33,87.6156 1867.34,87.6077 1869.35,87.5999 1871.35,87.5921 
  1873.36,87.5843 1875.37,87.5766 1877.37,87.5688 1879.38,87.5611 1881.38,87.5534 1883.39,87.5457 1885.4,87.538 1887.4,87.5304 1889.41,87.5227 1891.41,87.5151 
  1893.42,87.5075 1895.43,87.4999 1897.43,87.4924 1899.44,87.4848 1901.44,87.4773 1903.45,87.4698 1905.46,87.4623 1907.46,87.4549 1909.47,87.4474 1911.48,87.44 
  1913.48,87.4326 1915.49,87.4252 1917.49,87.4178 1919.5,87.4105 1921.51,87.4031 1923.51,87.3958 1925.52,87.3885 1927.52,87.3812 1929.53,87.374 1931.54,87.3667 
  1933.54,87.3595 1935.55,87.3523 1937.55,87.3451 1939.56,87.3379 1941.57,87.3308 1943.57,87.3236 1945.58,87.3165 1947.58,87.3094 1949.59,87.3023 1951.6,87.2952 
  1953.6,87.2882 1955.61,87.2811 1957.62,87.2741 1959.62,87.2671 1961.63,87.2601 1963.63,87.2531 1965.64,87.2462 1967.65,87.2392 1969.65,87.2323 1971.66,87.2254 
  1973.66,87.2185 1975.67,87.2116 1977.68,87.2048 1979.68,87.1979 1981.69,87.1911 1983.69,87.1843 1985.7,87.1775 1987.71,87.1707 1989.71,87.164 1991.72,87.1572 
  1993.73,87.1505 1995.73,87.1438 1997.74,87.1371 1999.74,87.1304 2001.75,87.1237 2003.76,87.1171 2005.76,87.1104 2007.77,87.1038 2009.77,87.0972 2011.78,87.0906 
  2013.79,87.084 2015.79,87.0775 2017.8,87.0709 2019.8,87.0644 2021.81,87.0579 2023.82,87.0514 2025.82,87.0449 2027.83,87.0384 2029.83,87.032 2031.84,87.0255 
  2033.85,87.0191 2035.85,87.0127 2037.86,87.0063 2039.87,86.9999 2041.87,86.9935 2043.88,86.9872 2045.88,86.9809 2047.89,86.9745 2049.9,86.9682 2051.9,86.9619 
  2053.91,86.9556 2055.91,86.9494 2057.92,86.9431 2059.93,86.9369 2061.93,86.9307 2063.94,86.9245 2065.94,86.9183 2067.95,86.9121 2069.96,86.9059 2071.96,86.8997 
  2073.97,86.8936 2075.97,86.8875 2077.98,86.8814 2079.99,86.8753 2081.99,86.8692 2084,86.8631 2086.01,86.857 2088.01,86.851 2090.02,86.845 2092.02,86.8389 
  2094.03,86.8329 2096.04,86.8269 2098.04,86.821 2100.05,86.815 2102.05,86.8091 2104.06,86.8031 2106.07,86.7972 2108.07,86.7913 2110.08,86.7854 2112.08,86.7795 
  2114.09,86.7736 2116.1,86.7677 2118.1,86.7619 2120.11,86.7561 2122.12,86.7502 2124.12,86.7444 2126.13,86.7386 2128.13,86.7328 2130.14,86.7271 2132.15,86.7213 
  2134.15,86.7156 2136.16,86.7098 2138.16,86.7041 2140.17,86.6984 2142.18,86.6927 2144.18,86.687 2146.19,86.6813 2148.19,86.6757 2150.2,86.67 2152.21,86.6644 
  2154.21,86.6587 2156.22,86.6531 2158.22,86.6475 2160.23,86.6419 2162.24,86.6364 2164.24,86.6308 2166.25,86.6252 2168.26,86.6197 2170.26,86.6142 2172.27,86.6086 
  2174.27,86.6031 2176.28,86.5976 2178.29,86.5922 2180.29,86.5867 2182.3,86.5812 2184.3,86.5758 2186.31,86.5703 2188.32,86.5649 2190.32,86.5595 2192.33,86.5541 
  2194.33,86.5487 2196.34,86.5433 2198.35,86.538 2200.35,86.5326 2202.36,86.5272 2204.37,86.5219 2206.37,86.5166 2208.38,86.5113 2210.38,86.506 2212.39,86.5007 
  2214.4,86.4954 2216.4,86.4901 2218.41,86.4849 2220.41,86.4796 2222.42,86.4744 2224.43,86.4692 2226.43,86.4639 2228.44,86.4587 2230.44,86.4535 2232.45,86.4484 
  2234.46,86.4432 2236.46,86.438 2238.47,86.4329 2240.47,86.4277 2242.48,86.4226 2244.49,86.4175 2246.49,86.4124 2248.5,86.4073 2250.51,86.4022 2252.51,86.3971 
  2254.52,86.392 2256.52,86.387 2258.53,86.3819 2260.54,86.3769 2262.54,86.3719 2264.55,86.3668 2266.55,86.3618 2268.56,86.3568 2270.57,86.3518 2272.57,86.3469 
  2274.58,86.3419 2276.58,86.3369 2278.59,86.332 2280.6,86.3271 2282.6,86.3221 2284.61,86.3172 2286.61,86.3123 2288.62,86.3074 2290.63,86.3025 2292.63,86.2976 
  
  "/>
</svg>
