<?xml version="1.0" encoding="utf-8"?>
<svg xmlns="http://www.w3.org/2000/svg" xmlns:xlink="http://www.w3.org/1999/xlink" width="600" height="400" viewBox="0 0 2400 1600">
<defs>
  <clipPath id="clip640">
    <rect x="0" y="0" width="2400" height="1600"/>
  </clipPath>
</defs>
<path clip-path="url(#clip640)" d="
M0 1600 L2400 1600 L2400 0 L0 0  Z
  " fill="#ffffff" fill-rule="evenodd" fill-opacity="1"/>
<defs>
  <clipPath id="clip641">
    <rect x="480" y="0" width="1681" height="1600"/>
  </clipPath>
</defs>
<defs>
  <clipPath id="clip642">
    <rect x="169" y="47" width="2185" height="1440"/>
  </clipPath>
</defs>
<path clip-path="url(#clip640)" d="
M346.467 1427.11 L2352.76 1427.11 L2352.76 47.2441 L346.467 47.2441  Z
  " fill="#ffffff" fill-rule="evenodd" fill-opacity="1"/>
<defs>
  <clipPath id="clip643">
    <rect x="346" y="47" width="2007" height="1381"/>
  </clipPath>
</defs>
<polyline clip-path="url(#clip643)" style="stroke:#000000; stroke-linecap:butt; stroke-linejoin:round; stroke-width:2; stroke-opacity:0.1; fill:none" points="
  403.249,1427.11 403.249,47.2441 
  "/>
<polyline clip-path="url(#clip643)" style="stroke:#000000; stroke-linecap:butt; stroke-linejoin:round; stroke-width:2; stroke-opacity:0.1; fill:none" points="
  876.43,1427.11 876.43,47.2441 
  "/>
<polyline clip-path="url(#clip643)" style="stroke:#000000; stroke-linecap:butt; stroke-linejoin:round; stroke-width:2; stroke-opacity:0.1; fill:none" points="
  1349.61,1427.11 1349.61,47.2441 
  "/>
<polyline clip-path="url(#clip643)" style="stroke:#000000; stroke-linecap:butt; stroke-linejoin:round; stroke-width:2; stroke-opacity:0.1; fill:none" points="
  1822.79,1427.11 1822.79,47.2441 
  "/>
<polyline clip-path="url(#clip643)" style="stroke:#000000; stroke-linecap:butt; stroke-linejoin:round; stroke-width:2; stroke-opacity:0.1; fill:none" points="
  2295.97,1427.11 2295.97,47.2441 
  "/>
<polyline clip-path="url(#clip640)" style="stroke:#000000; stroke-linecap:butt; stroke-linejoin:round; stroke-width:4; stroke-opacity:1; fill:none" points="
  346.467,1427.11 2352.76,1427.11 
  "/>
<polyline clip-path="url(#clip640)" style="stroke:#000000; stroke-linecap:butt; stroke-linejoin:round; stroke-width:4; stroke-opacity:1; fill:none" points="
  403.249,1427.11 403.249,1408.21 
  "/>
<polyline clip-path="url(#clip640)" style="stroke:#000000; stroke-linecap:butt; stroke-linejoin:round; stroke-width:4; stroke-opacity:1; fill:none" points="
  876.43,1427.11 876.43,1408.21 
  "/>
<polyline clip-path="url(#clip640)" style="stroke:#000000; stroke-linecap:butt; stroke-linejoin:round; stroke-width:4; stroke-opacity:1; fill:none" points="
  1349.61,1427.11 1349.61,1408.21 
  "/>
<polyline clip-path="url(#clip640)" style="stroke:#000000; stroke-linecap:butt; stroke-linejoin:round; stroke-width:4; stroke-opacity:1; fill:none" points="
  1822.79,1427.11 1822.79,1408.21 
  "/>
<polyline clip-path="url(#clip640)" style="stroke:#000000; stroke-linecap:butt; stroke-linejoin:round; stroke-width:4; stroke-opacity:1; fill:none" points="
  2295.97,1427.11 2295.97,1408.21 
  "/>
<path clip-path="url(#clip640)" d="M365.553 1456.3 Q361.942 1456.3 360.113 1459.86 Q358.307 1463.41 358.307 1470.54 Q358.307 1477.64 360.113 1481.21 Q361.942 1484.75 365.553 1484.75 Q369.187 1484.75 370.992 1481.21 Q372.821 1477.64 372.821 1470.54 Q372.821 1463.41 370.992 1459.86 Q369.187 1456.3 365.553 1456.3 M365.553 1452.6 Q371.363 1452.6 374.418 1457.2 Q377.497 1461.79 377.497 1470.54 Q377.497 1479.26 374.418 1483.87 Q371.363 1488.45 365.553 1488.45 Q359.743 1488.45 356.664 1483.87 Q353.608 1479.26 353.608 1470.54 Q353.608 1461.79 356.664 1457.2 Q359.743 1452.6 365.553 1452.6 Z" fill="#000000" fill-rule="evenodd" fill-opacity="1" /><path clip-path="url(#clip640)" d="M385.715 1481.9 L390.599 1481.9 L390.599 1487.78 L385.715 1487.78 L385.715 1481.9 Z" fill="#000000" fill-rule="evenodd" fill-opacity="1" /><path clip-path="url(#clip640)" d="M410.784 1456.3 Q407.173 1456.3 405.344 1459.86 Q403.539 1463.41 403.539 1470.54 Q403.539 1477.64 405.344 1481.21 Q407.173 1484.75 410.784 1484.75 Q414.418 1484.75 416.224 1481.21 Q418.052 1477.64 418.052 1470.54 Q418.052 1463.41 416.224 1459.86 Q414.418 1456.3 410.784 1456.3 M410.784 1452.6 Q416.594 1452.6 419.65 1457.2 Q422.728 1461.79 422.728 1470.54 Q422.728 1479.26 419.65 1483.87 Q416.594 1488.45 410.784 1488.45 Q404.974 1488.45 401.895 1483.87 Q398.84 1479.26 398.84 1470.54 Q398.84 1461.79 401.895 1457.2 Q404.974 1452.6 410.784 1452.6 Z" fill="#000000" fill-rule="evenodd" fill-opacity="1" /><path clip-path="url(#clip640)" d="M440.946 1456.3 Q437.335 1456.3 435.506 1459.86 Q433.7 1463.41 433.7 1470.54 Q433.7 1477.64 435.506 1481.21 Q437.335 1484.75 440.946 1484.75 Q444.58 1484.75 446.386 1481.21 Q448.214 1477.64 448.214 1470.54 Q448.214 1463.41 446.386 1459.86 Q444.58 1456.3 440.946 1456.3 M440.946 1452.6 Q446.756 1452.6 449.811 1457.2 Q452.89 1461.79 452.89 1470.54 Q452.89 1479.26 449.811 1483.87 Q446.756 1488.45 440.946 1488.45 Q435.136 1488.45 432.057 1483.87 Q429.001 1479.26 429.001 1470.54 Q429.001 1461.79 432.057 1457.2 Q435.136 1452.6 440.946 1452.6 Z" fill="#000000" fill-rule="evenodd" fill-opacity="1" /><path clip-path="url(#clip640)" d="M839.232 1456.3 Q835.621 1456.3 833.792 1459.86 Q831.986 1463.41 831.986 1470.54 Q831.986 1477.64 833.792 1481.21 Q835.621 1484.75 839.232 1484.75 Q842.866 1484.75 844.671 1481.21 Q846.5 1477.64 846.5 1470.54 Q846.5 1463.41 844.671 1459.86 Q842.866 1456.3 839.232 1456.3 M839.232 1452.6 Q845.042 1452.6 848.097 1457.2 Q851.176 1461.79 851.176 1470.54 Q851.176 1479.26 848.097 1483.87 Q845.042 1488.45 839.232 1488.45 Q833.421 1488.45 830.343 1483.87 Q827.287 1479.26 827.287 1470.54 Q827.287 1461.79 830.343 1457.2 Q833.421 1452.6 839.232 1452.6 Z" fill="#000000" fill-rule="evenodd" fill-opacity="1" /><path clip-path="url(#clip640)" d="M859.394 1481.9 L864.278 1481.9 L864.278 1487.78 L859.394 1487.78 L859.394 1481.9 Z" fill="#000000" fill-rule="evenodd" fill-opacity="1" /><path clip-path="url(#clip640)" d="M878.491 1483.85 L894.81 1483.85 L894.81 1487.78 L872.866 1487.78 L872.866 1483.85 Q875.528 1481.09 880.111 1476.46 Q884.717 1471.81 885.898 1470.47 Q888.143 1467.94 889.023 1466.21 Q889.926 1464.45 889.926 1462.76 Q889.926 1460 887.981 1458.27 Q886.06 1456.53 882.958 1456.53 Q880.759 1456.53 878.305 1457.3 Q875.875 1458.06 873.097 1459.61 L873.097 1454.89 Q875.921 1453.75 878.375 1453.17 Q880.829 1452.6 882.866 1452.6 Q888.236 1452.6 891.43 1455.28 Q894.625 1457.97 894.625 1462.46 Q894.625 1464.59 893.815 1466.51 Q893.028 1468.41 890.921 1471 Q890.342 1471.67 887.241 1474.89 Q884.139 1478.08 878.491 1483.85 Z" fill="#000000" fill-rule="evenodd" fill-opacity="1" /><path clip-path="url(#clip640)" d="M904.671 1453.22 L923.027 1453.22 L923.027 1457.16 L908.953 1457.16 L908.953 1465.63 Q909.972 1465.28 910.99 1465.12 Q912.009 1464.93 913.027 1464.93 Q918.815 1464.93 922.194 1468.11 Q925.574 1471.28 925.574 1476.69 Q925.574 1482.27 922.102 1485.37 Q918.629 1488.45 912.31 1488.45 Q910.134 1488.45 907.865 1488.08 Q905.62 1487.71 903.213 1486.97 L903.213 1482.27 Q905.296 1483.41 907.518 1483.96 Q909.74 1484.52 912.217 1484.52 Q916.222 1484.52 918.56 1482.41 Q920.898 1480.3 920.898 1476.69 Q920.898 1473.08 918.56 1470.98 Q916.222 1468.87 912.217 1468.87 Q910.342 1468.87 908.467 1469.29 Q906.615 1469.7 904.671 1470.58 L904.671 1453.22 Z" fill="#000000" fill-rule="evenodd" fill-opacity="1" /><path clip-path="url(#clip640)" d="M1311.92 1456.3 Q1308.3 1456.3 1306.48 1459.86 Q1304.67 1463.41 1304.67 1470.54 Q1304.67 1477.64 1306.48 1481.21 Q1308.3 1484.75 1311.92 1484.75 Q1315.55 1484.75 1317.35 1481.21 Q1319.18 1477.64 1319.18 1470.54 Q1319.18 1463.41 1317.35 1459.86 Q1315.55 1456.3 1311.92 1456.3 M1311.92 1452.6 Q1317.73 1452.6 1320.78 1457.2 Q1323.86 1461.79 1323.86 1470.54 Q1323.86 1479.26 1320.78 1483.87 Q1317.73 1488.45 1311.92 1488.45 Q1306.1 1488.45 1303.03 1483.87 Q1299.97 1479.26 1299.97 1470.54 Q1299.97 1461.79 1303.03 1457.2 Q1306.1 1452.6 1311.92 1452.6 Z" fill="#000000" fill-rule="evenodd" fill-opacity="1" /><path clip-path="url(#clip640)" d="M1332.08 1481.9 L1336.96 1481.9 L1336.96 1487.78 L1332.08 1487.78 L1332.08 1481.9 Z" fill="#000000" fill-rule="evenodd" fill-opacity="1" /><path clip-path="url(#clip640)" d="M1347.19 1453.22 L1365.55 1453.22 L1365.55 1457.16 L1351.48 1457.16 L1351.48 1465.63 Q1352.49 1465.28 1353.51 1465.12 Q1354.53 1464.93 1355.55 1464.93 Q1361.34 1464.93 1364.72 1468.11 Q1368.1 1471.28 1368.1 1476.69 Q1368.1 1482.27 1364.62 1485.37 Q1361.15 1488.45 1354.83 1488.45 Q1352.66 1488.45 1350.39 1488.08 Q1348.14 1487.71 1345.73 1486.97 L1345.73 1482.27 Q1347.82 1483.41 1350.04 1483.96 Q1352.26 1484.52 1354.74 1484.52 Q1358.74 1484.52 1361.08 1482.41 Q1363.42 1480.3 1363.42 1476.69 Q1363.42 1473.08 1361.08 1470.98 Q1358.74 1468.87 1354.74 1468.87 Q1352.86 1468.87 1350.99 1469.29 Q1349.14 1469.7 1347.19 1470.58 L1347.19 1453.22 Z" fill="#000000" fill-rule="evenodd" fill-opacity="1" /><path clip-path="url(#clip640)" d="M1387.31 1456.3 Q1383.7 1456.3 1381.87 1459.86 Q1380.06 1463.41 1380.06 1470.54 Q1380.06 1477.64 1381.87 1481.21 Q1383.7 1484.75 1387.31 1484.75 Q1390.94 1484.75 1392.75 1481.21 Q1394.58 1477.64 1394.58 1470.54 Q1394.58 1463.41 1392.75 1459.86 Q1390.94 1456.3 1387.31 1456.3 M1387.31 1452.6 Q1393.12 1452.6 1396.17 1457.2 Q1399.25 1461.79 1399.25 1470.54 Q1399.25 1479.26 1396.17 1483.87 Q1393.12 1488.45 1387.31 1488.45 Q1381.5 1488.45 1378.42 1483.87 Q1375.36 1479.26 1375.36 1470.54 Q1375.36 1461.79 1378.42 1457.2 Q1381.5 1452.6 1387.31 1452.6 Z" fill="#000000" fill-rule="evenodd" fill-opacity="1" /><path clip-path="url(#clip640)" d="M1785.59 1456.3 Q1781.98 1456.3 1780.15 1459.86 Q1778.35 1463.41 1778.35 1470.54 Q1778.35 1477.64 1780.15 1481.21 Q1781.98 1484.75 1785.59 1484.75 Q1789.23 1484.75 1791.03 1481.21 Q1792.86 1477.64 1792.86 1470.54 Q1792.86 1463.41 1791.03 1459.86 Q1789.23 1456.3 1785.59 1456.3 M1785.59 1452.6 Q1791.4 1452.6 1794.46 1457.2 Q1797.54 1461.79 1797.54 1470.54 Q1797.54 1479.26 1794.46 1483.87 Q1791.4 1488.45 1785.59 1488.45 Q1779.78 1488.45 1776.71 1483.87 Q1773.65 1479.26 1773.65 1470.54 Q1773.65 1461.79 1776.71 1457.2 Q1779.78 1452.6 1785.59 1452.6 Z" fill="#000000" fill-rule="evenodd" fill-opacity="1" /><path clip-path="url(#clip640)" d="M1805.76 1481.9 L1810.64 1481.9 L1810.64 1487.78 L1805.76 1487.78 L1805.76 1481.9 Z" fill="#000000" fill-rule="evenodd" fill-opacity="1" /><path clip-path="url(#clip640)" d="M1819.64 1453.22 L1841.87 1453.22 L1841.87 1455.21 L1829.32 1487.78 L1824.44 1487.78 L1836.24 1457.16 L1819.64 1457.16 L1819.64 1453.22 Z" fill="#000000" fill-rule="evenodd" fill-opacity="1" /><path clip-path="url(#clip640)" d="M1851.03 1453.22 L1869.39 1453.22 L1869.39 1457.16 L1855.32 1457.16 L1855.32 1465.63 Q1856.33 1465.28 1857.35 1465.12 Q1858.37 1464.93 1859.39 1464.93 Q1865.18 1464.93 1868.56 1468.11 Q1871.94 1471.28 1871.94 1476.69 Q1871.94 1482.27 1868.46 1485.37 Q1864.99 1488.45 1858.67 1488.45 Q1856.5 1488.45 1854.23 1488.08 Q1851.98 1487.71 1849.58 1486.97 L1849.58 1482.27 Q1851.66 1483.41 1853.88 1483.96 Q1856.1 1484.52 1858.58 1484.52 Q1862.58 1484.52 1864.92 1482.41 Q1867.26 1480.3 1867.26 1476.69 Q1867.26 1473.08 1864.92 1470.98 Q1862.58 1468.87 1858.58 1468.87 Q1856.7 1468.87 1854.83 1469.29 Q1852.98 1469.7 1851.03 1470.58 L1851.03 1453.22 Z" fill="#000000" fill-rule="evenodd" fill-opacity="1" /><path clip-path="url(#clip640)" d="M2248.05 1483.85 L2255.69 1483.85 L2255.69 1457.48 L2247.37 1459.15 L2247.37 1454.89 L2255.64 1453.22 L2260.31 1453.22 L2260.31 1483.85 L2267.95 1483.85 L2267.95 1487.78 L2248.05 1487.78 L2248.05 1483.85 Z" fill="#000000" fill-rule="evenodd" fill-opacity="1" /><path clip-path="url(#clip640)" d="M2277.4 1481.9 L2282.28 1481.9 L2282.28 1487.78 L2277.4 1487.78 L2277.4 1481.9 Z" fill="#000000" fill-rule="evenodd" fill-opacity="1" /><path clip-path="url(#clip640)" d="M2302.47 1456.3 Q2298.86 1456.3 2297.03 1459.86 Q2295.22 1463.41 2295.22 1470.54 Q2295.22 1477.64 2297.03 1481.21 Q2298.86 1484.75 2302.47 1484.75 Q2306.1 1484.75 2307.91 1481.21 Q2309.74 1477.64 2309.74 1470.54 Q2309.74 1463.41 2307.91 1459.86 Q2306.1 1456.3 2302.47 1456.3 M2302.47 1452.6 Q2308.28 1452.6 2311.33 1457.2 Q2314.41 1461.79 2314.41 1470.54 Q2314.41 1479.26 2311.33 1483.87 Q2308.28 1488.45 2302.47 1488.45 Q2296.66 1488.45 2293.58 1483.87 Q2290.52 1479.26 2290.52 1470.54 Q2290.52 1461.79 2293.58 1457.2 Q2296.66 1452.6 2302.47 1452.6 Z" fill="#000000" fill-rule="evenodd" fill-opacity="1" /><path clip-path="url(#clip640)" d="M2332.63 1456.3 Q2329.02 1456.3 2327.19 1459.86 Q2325.38 1463.41 2325.38 1470.54 Q2325.38 1477.64 2327.19 1481.21 Q2329.02 1484.75 2332.63 1484.75 Q2336.26 1484.75 2338.07 1481.21 Q2339.9 1477.64 2339.9 1470.54 Q2339.9 1463.41 2338.07 1459.86 Q2336.26 1456.3 2332.63 1456.3 M2332.63 1452.6 Q2338.44 1452.6 2341.49 1457.2 Q2344.57 1461.79 2344.57 1470.54 Q2344.57 1479.26 2341.49 1483.87 Q2338.44 1488.45 2332.63 1488.45 Q2326.82 1488.45 2323.74 1483.87 Q2320.68 1479.26 2320.68 1470.54 Q2320.68 1461.79 2323.74 1457.2 Q2326.82 1452.6 2332.63 1452.6 Z" fill="#000000" fill-rule="evenodd" fill-opacity="1" /><path clip-path="url(#clip640)" d="M1338.41 1529.79 Q1338.41 1531.63 1337.28 1532.72 Q1336.19 1533.82 1334.8 1533.82 Q1333.58 1533.82 1332.93 1533.11 Q1332.29 1532.4 1332.29 1531.5 Q1332.29 1531.11 1332.45 1530.63 Q1332.61 1530.12 1332.97 1529.5 Q1333.35 1528.89 1334.16 1528.44 Q1334.96 1527.99 1336.06 1527.93 Q1335.83 1527.7 1335.77 1527.67 Q1335.28 1527.28 1334.38 1527.15 Q1334.25 1527.09 1333.8 1527.09 Q1331.58 1527.09 1329.33 1528.73 Q1327.1 1530.34 1324.37 1533.4 Q1320.92 1536.98 1318.7 1538.3 Q1328.46 1539.58 1328.46 1545.22 Q1328.46 1546.15 1328.2 1547.28 Q1327.68 1549.41 1327.68 1550.95 Q1327.68 1554.04 1329.78 1554.04 Q1331.81 1554.04 1333.09 1551.98 Q1334.42 1549.92 1335.51 1545.9 Q1335.67 1545.16 1335.83 1544.93 Q1335.99 1544.71 1336.44 1544.71 Q1337.25 1544.71 1337.25 1545.35 Q1336.51 1549.12 1334.87 1552.02 Q1332.77 1555.53 1329.65 1555.53 Q1327.04 1555.53 1325.3 1553.72 Q1323.59 1551.89 1323.59 1548.99 Q1323.59 1548.28 1323.85 1546.67 Q1324.04 1546.03 1324.04 1545.28 Q1324.04 1543.77 1323.21 1542.64 Q1322.37 1541.48 1321.02 1540.9 Q1319.66 1540.33 1318.54 1540.07 Q1317.44 1539.78 1316.38 1539.68 Q1313.16 1553.3 1312.71 1554.14 Q1312.42 1554.72 1311.77 1555.11 Q1311.13 1555.53 1310.45 1555.53 Q1309.81 1555.53 1309.17 1555.08 Q1308.55 1554.66 1308.55 1553.66 Q1308.55 1553.14 1308.81 1552.21 L1318.38 1514.21 L1318.57 1512.92 Q1318.57 1512.53 1318.41 1512.34 Q1318.28 1512.11 1317.51 1511.95 Q1316.77 1511.79 1315.28 1511.79 Q1314.67 1511.79 1314.38 1511.76 Q1314.13 1511.73 1313.9 1511.57 Q1313.67 1511.37 1313.67 1510.99 Q1313.67 1510.44 1313.9 1510.15 Q1314.16 1509.83 1314.35 1509.76 Q1314.54 1509.7 1314.93 1509.67 Q1315.48 1509.63 1317.31 1509.47 Q1319.15 1509.28 1320.73 1509.15 Q1322.31 1509.02 1322.98 1509.02 Q1323.37 1509.02 1323.56 1509.21 Q1323.79 1509.38 1323.82 1509.57 L1323.85 1509.73 L1316.99 1537.56 Q1319.83 1536.43 1324.3 1531.44 Q1329.49 1525.64 1333.93 1525.64 Q1336.03 1525.64 1337.22 1526.93 Q1338.41 1528.18 1338.41 1529.79 Z" fill="#000000" fill-rule="evenodd" fill-opacity="1" /><path clip-path="url(#clip640)" d="M1345.16 1547.44 L1345.16 1546 Q1350.7 1546 1353.57 1543.05 Q1354.35 1543.05 1354.49 1543.23 Q1354.62 1543.41 1354.62 1544.24 L1354.62 1570.14 Q1354.62 1571.52 1355.3 1571.95 Q1355.98 1572.38 1358.93 1572.38 L1360.4 1572.38 L1360.4 1573.8 Q1358.77 1573.66 1352.91 1573.66 Q1347.05 1573.66 1345.45 1573.8 L1345.45 1572.38 L1346.91 1572.38 Q1349.82 1572.38 1350.52 1571.97 Q1351.22 1571.54 1351.22 1570.14 L1351.22 1546.23 Q1348.81 1547.44 1345.16 1547.44 Z" fill="#000000" fill-rule="evenodd" fill-opacity="1" /><path clip-path="url(#clip640)" d="M1372.52 1510.99 Q1372.52 1509.34 1373.52 1508.67 Q1374.52 1507.96 1375.58 1507.96 Q1376.9 1507.96 1377.74 1508.76 Q1378.61 1509.54 1378.61 1510.99 Q1378.61 1511.63 1378.54 1511.98 L1376.35 1531.89 L1374.84 1531.89 L1372.58 1511.98 Q1372.52 1511.63 1372.52 1510.99 Z" fill="#000000" fill-rule="evenodd" fill-opacity="1" /><polyline clip-path="url(#clip643)" style="stroke:#000000; stroke-linecap:butt; stroke-linejoin:round; stroke-width:2; stroke-opacity:0.1; fill:none" points="
  346.467,1396.35 2352.76,1396.35 
  "/>
<polyline clip-path="url(#clip643)" style="stroke:#000000; stroke-linecap:butt; stroke-linejoin:round; stroke-width:2; stroke-opacity:0.1; fill:none" points="
  346.467,1151.92 2352.76,1151.92 
  "/>
<polyline clip-path="url(#clip643)" style="stroke:#000000; stroke-linecap:butt; stroke-linejoin:round; stroke-width:2; stroke-opacity:0.1; fill:none" points="
  346.467,907.49 2352.76,907.49 
  "/>
<polyline clip-path="url(#clip643)" style="stroke:#000000; stroke-linecap:butt; stroke-linejoin:round; stroke-width:2; stroke-opacity:0.1; fill:none" points="
  346.467,663.058 2352.76,663.058 
  "/>
<polyline clip-path="url(#clip643)" style="stroke:#000000; stroke-linecap:butt; stroke-linejoin:round; stroke-width:2; stroke-opacity:0.1; fill:none" points="
  346.467,418.627 2352.76,418.627 
  "/>
<polyline clip-path="url(#clip643)" style="stroke:#000000; stroke-linecap:butt; stroke-linejoin:round; stroke-width:2; stroke-opacity:0.1; fill:none" points="
  346.467,174.196 2352.76,174.196 
  "/>
<polyline clip-path="url(#clip640)" style="stroke:#000000; stroke-linecap:butt; stroke-linejoin:round; stroke-width:4; stroke-opacity:1; fill:none" points="
  346.467,1427.11 346.467,47.2441 
  "/>
<polyline clip-path="url(#clip640)" style="stroke:#000000; stroke-linecap:butt; stroke-linejoin:round; stroke-width:4; stroke-opacity:1; fill:none" points="
  346.467,1396.35 365.365,1396.35 
  "/>
<polyline clip-path="url(#clip640)" style="stroke:#000000; stroke-linecap:butt; stroke-linejoin:round; stroke-width:4; stroke-opacity:1; fill:none" points="
  346.467,1151.92 365.365,1151.92 
  "/>
<polyline clip-path="url(#clip640)" style="stroke:#000000; stroke-linecap:butt; stroke-linejoin:round; stroke-width:4; stroke-opacity:1; fill:none" points="
  346.467,907.49 365.365,907.49 
  "/>
<polyline clip-path="url(#clip640)" style="stroke:#000000; stroke-linecap:butt; stroke-linejoin:round; stroke-width:4; stroke-opacity:1; fill:none" points="
  346.467,663.058 365.365,663.058 
  "/>
<polyline clip-path="url(#clip640)" style="stroke:#000000; stroke-linecap:butt; stroke-linejoin:round; stroke-width:4; stroke-opacity:1; fill:none" points="
  346.467,418.627 365.365,418.627 
  "/>
<polyline clip-path="url(#clip640)" style="stroke:#000000; stroke-linecap:butt; stroke-linejoin:round; stroke-width:4; stroke-opacity:1; fill:none" points="
  346.467,174.196 365.365,174.196 
  "/>
<path clip-path="url(#clip640)" d="M298.523 1382.15 Q294.912 1382.15 293.083 1385.72 Q291.278 1389.26 291.278 1396.39 Q291.278 1403.49 293.083 1407.06 Q294.912 1410.6 298.523 1410.6 Q302.157 1410.6 303.963 1407.06 Q305.792 1403.49 305.792 1396.39 Q305.792 1389.26 303.963 1385.72 Q302.157 1382.15 298.523 1382.15 M298.523 1378.45 Q304.333 1378.45 307.389 1383.05 Q310.467 1387.64 310.467 1396.39 Q310.467 1405.11 307.389 1409.72 Q304.333 1414.3 298.523 1414.3 Q292.713 1414.3 289.634 1409.72 Q286.579 1405.11 286.579 1396.39 Q286.579 1387.64 289.634 1383.05 Q292.713 1378.45 298.523 1378.45 Z" fill="#000000" fill-rule="evenodd" fill-opacity="1" /><path clip-path="url(#clip640)" d="M123.593 1171.71 L131.232 1171.71 L131.232 1145.35 L122.922 1147.01 L122.922 1142.76 L131.186 1141.09 L135.862 1141.09 L135.862 1171.71 L143.501 1171.71 L143.501 1175.65 L123.593 1175.65 L123.593 1171.71 Z" fill="#000000" fill-rule="evenodd" fill-opacity="1" /><path clip-path="url(#clip640)" d="M152.945 1169.77 L157.829 1169.77 L157.829 1175.65 L152.945 1175.65 L152.945 1169.77 Z" fill="#000000" fill-rule="evenodd" fill-opacity="1" /><path clip-path="url(#clip640)" d="M178.014 1144.17 Q174.403 1144.17 172.575 1147.73 Q170.769 1151.27 170.769 1158.4 Q170.769 1165.51 172.575 1169.07 Q174.403 1172.62 178.014 1172.62 Q181.649 1172.62 183.454 1169.07 Q185.283 1165.51 185.283 1158.4 Q185.283 1151.27 183.454 1147.73 Q181.649 1144.17 178.014 1144.17 M178.014 1140.46 Q183.825 1140.46 186.88 1145.07 Q189.959 1149.65 189.959 1158.4 Q189.959 1167.13 186.88 1171.74 Q183.825 1176.32 178.014 1176.32 Q172.204 1176.32 169.126 1171.74 Q166.07 1167.13 166.07 1158.4 Q166.07 1149.65 169.126 1145.07 Q172.204 1140.46 178.014 1140.46 Z" fill="#000000" fill-rule="evenodd" fill-opacity="1" /><path clip-path="url(#clip640)" d="M226.348 1150.19 L215.769 1160.81 L226.348 1171.39 L223.593 1174.19 L212.968 1163.57 L202.343 1174.19 L199.612 1171.39 L210.167 1160.81 L199.612 1150.19 L202.343 1147.38 L212.968 1158.01 L223.593 1147.38 L226.348 1150.19 Z" fill="#000000" fill-rule="evenodd" fill-opacity="1" /><path clip-path="url(#clip640)" d="M238.709 1171.71 L246.347 1171.71 L246.347 1145.35 L238.037 1147.01 L238.037 1142.76 L246.301 1141.09 L250.977 1141.09 L250.977 1171.71 L258.616 1171.71 L258.616 1175.65 L238.709 1175.65 L238.709 1171.71 Z" fill="#000000" fill-rule="evenodd" fill-opacity="1" /><path clip-path="url(#clip640)" d="M278.06 1144.17 Q274.449 1144.17 272.62 1147.73 Q270.815 1151.27 270.815 1158.4 Q270.815 1165.51 272.62 1169.07 Q274.449 1172.62 278.06 1172.62 Q281.694 1172.62 283.5 1169.07 Q285.329 1165.51 285.329 1158.4 Q285.329 1151.27 283.5 1147.73 Q281.694 1144.17 278.06 1144.17 M278.06 1140.46 Q283.87 1140.46 286.926 1145.07 Q290.005 1149.65 290.005 1158.4 Q290.005 1167.13 286.926 1171.74 Q283.87 1176.32 278.06 1176.32 Q272.25 1176.32 269.171 1171.74 Q266.116 1167.13 266.116 1158.4 Q266.116 1149.65 269.171 1145.07 Q272.25 1140.46 278.06 1140.46 Z" fill="#000000" fill-rule="evenodd" fill-opacity="1" /><path clip-path="url(#clip640)" d="M302.681 1123.47 L293.089 1138.46 L302.681 1138.46 L302.681 1123.47 M301.684 1120.16 L306.461 1120.16 L306.461 1138.46 L310.467 1138.46 L310.467 1141.62 L306.461 1141.62 L306.461 1148.24 L302.681 1148.24 L302.681 1141.62 L290.005 1141.62 L290.005 1137.95 L301.684 1120.16 Z" fill="#000000" fill-rule="evenodd" fill-opacity="1" /><path clip-path="url(#clip640)" d="M126.811 927.282 L143.13 927.282 L143.13 931.217 L121.186 931.217 L121.186 927.282 Q123.848 924.527 128.431 919.898 Q133.038 915.245 134.218 913.902 Q136.464 911.379 137.343 909.643 Q138.246 907.884 138.246 906.194 Q138.246 903.439 136.302 901.703 Q134.38 899.967 131.279 899.967 Q129.08 899.967 126.626 900.731 Q124.195 901.495 121.418 903.046 L121.418 898.324 Q124.242 897.19 126.695 896.611 Q129.149 896.032 131.186 896.032 Q136.556 896.032 139.751 898.717 Q142.945 901.402 142.945 905.893 Q142.945 908.023 142.135 909.944 Q141.348 911.842 139.242 914.435 Q138.663 915.106 135.561 918.324 Q132.459 921.518 126.811 927.282 Z" fill="#000000" fill-rule="evenodd" fill-opacity="1" /><path clip-path="url(#clip640)" d="M152.945 925.338 L157.829 925.338 L157.829 931.217 L152.945 931.217 L152.945 925.338 Z" fill="#000000" fill-rule="evenodd" fill-opacity="1" /><path clip-path="url(#clip640)" d="M178.014 899.736 Q174.403 899.736 172.575 903.301 Q170.769 906.842 170.769 913.972 Q170.769 921.078 172.575 924.643 Q174.403 928.185 178.014 928.185 Q181.649 928.185 183.454 924.643 Q185.283 921.078 185.283 913.972 Q185.283 906.842 183.454 903.301 Q181.649 899.736 178.014 899.736 M178.014 896.032 Q183.825 896.032 186.88 900.639 Q189.959 905.222 189.959 913.972 Q189.959 922.699 186.88 927.305 Q183.825 931.888 178.014 931.888 Q172.204 931.888 169.126 927.305 Q166.07 922.699 166.07 913.972 Q166.07 905.222 169.126 900.639 Q172.204 896.032 178.014 896.032 Z" fill="#000000" fill-rule="evenodd" fill-opacity="1" /><path clip-path="url(#clip640)" d="M226.348 905.754 L215.769 916.379 L226.348 926.958 L223.593 929.759 L212.968 919.134 L202.343 929.759 L199.612 926.958 L210.167 916.379 L199.612 905.754 L202.343 902.953 L212.968 913.578 L223.593 902.953 L226.348 905.754 Z" fill="#000000" fill-rule="evenodd" fill-opacity="1" /><path clip-path="url(#clip640)" d="M238.709 927.282 L246.347 927.282 L246.347 900.916 L238.037 902.583 L238.037 898.324 L246.301 896.657 L250.977 896.657 L250.977 927.282 L258.616 927.282 L258.616 931.217 L238.709 931.217 L238.709 927.282 Z" fill="#000000" fill-rule="evenodd" fill-opacity="1" /><path clip-path="url(#clip640)" d="M278.06 899.736 Q274.449 899.736 272.62 903.301 Q270.815 906.842 270.815 913.972 Q270.815 921.078 272.62 924.643 Q274.449 928.185 278.06 928.185 Q281.694 928.185 283.5 924.643 Q285.329 921.078 285.329 913.972 Q285.329 906.842 283.5 903.301 Q281.694 899.736 278.06 899.736 M278.06 896.032 Q283.87 896.032 286.926 900.639 Q290.005 905.222 290.005 913.972 Q290.005 922.699 286.926 927.305 Q283.87 931.888 278.06 931.888 Q272.25 931.888 269.171 927.305 Q266.116 922.699 266.116 913.972 Q266.116 905.222 269.171 900.639 Q272.25 896.032 278.06 896.032 Z" fill="#000000" fill-rule="evenodd" fill-opacity="1" /><path clip-path="url(#clip640)" d="M302.681 879.037 L293.089 894.027 L302.681 894.027 L302.681 879.037 M301.684 875.727 L306.461 875.727 L306.461 894.027 L310.467 894.027 L310.467 897.186 L306.461 897.186 L306.461 903.807 L302.681 903.807 L302.681 897.186 L290.005 897.186 L290.005 893.519 L301.684 875.727 Z" fill="#000000" fill-rule="evenodd" fill-opacity="1" /><path clip-path="url(#clip640)" d="M136.95 668.152 Q140.306 668.869 142.181 671.138 Q144.079 673.406 144.079 676.74 Q144.079 681.855 140.561 684.656 Q137.042 687.457 130.561 687.457 Q128.385 687.457 126.07 687.017 Q123.779 686.601 121.325 685.744 L121.325 681.23 Q123.269 682.365 125.584 682.943 Q127.899 683.522 130.422 683.522 Q134.82 683.522 137.112 681.786 Q139.427 680.05 139.427 676.74 Q139.427 673.684 137.274 671.971 Q135.144 670.235 131.325 670.235 L127.297 670.235 L127.297 666.392 L131.51 666.392 Q134.959 666.392 136.788 665.027 Q138.617 663.638 138.617 661.045 Q138.617 658.383 136.718 656.971 Q134.843 655.536 131.325 655.536 Q129.404 655.536 127.205 655.953 Q125.006 656.369 122.367 657.249 L122.367 653.082 Q125.029 652.342 127.343 651.971 Q129.681 651.601 131.742 651.601 Q137.066 651.601 140.167 654.031 Q143.269 656.439 143.269 660.559 Q143.269 663.429 141.626 665.42 Q139.982 667.388 136.95 668.152 Z" fill="#000000" fill-rule="evenodd" fill-opacity="1" /><path clip-path="url(#clip640)" d="M152.945 680.906 L157.829 680.906 L157.829 686.786 L152.945 686.786 L152.945 680.906 Z" fill="#000000" fill-rule="evenodd" fill-opacity="1" /><path clip-path="url(#clip640)" d="M178.014 655.305 Q174.403 655.305 172.575 658.869 Q170.769 662.411 170.769 669.541 Q170.769 676.647 172.575 680.212 Q174.403 683.753 178.014 683.753 Q181.649 683.753 183.454 680.212 Q185.283 676.647 185.283 669.541 Q185.283 662.411 183.454 658.869 Q181.649 655.305 178.014 655.305 M178.014 651.601 Q183.825 651.601 186.88 656.207 Q189.959 660.791 189.959 669.541 Q189.959 678.267 186.88 682.874 Q183.825 687.457 178.014 687.457 Q172.204 687.457 169.126 682.874 Q166.07 678.267 166.07 669.541 Q166.07 660.791 169.126 656.207 Q172.204 651.601 178.014 651.601 Z" fill="#000000" fill-rule="evenodd" fill-opacity="1" /><path clip-path="url(#clip640)" d="M226.348 661.323 L215.769 671.948 L226.348 682.527 L223.593 685.328 L212.968 674.703 L202.343 685.328 L199.612 682.527 L210.167 671.948 L199.612 661.323 L202.343 658.522 L212.968 669.147 L223.593 658.522 L226.348 661.323 Z" fill="#000000" fill-rule="evenodd" fill-opacity="1" /><path clip-path="url(#clip640)" d="M238.709 682.851 L246.347 682.851 L246.347 656.485 L238.037 658.152 L238.037 653.892 L246.301 652.226 L250.977 652.226 L250.977 682.851 L258.616 682.851 L258.616 686.786 L238.709 686.786 L238.709 682.851 Z" fill="#000000" fill-rule="evenodd" fill-opacity="1" /><path clip-path="url(#clip640)" d="M278.06 655.305 Q274.449 655.305 272.62 658.869 Q270.815 662.411 270.815 669.541 Q270.815 676.647 272.62 680.212 Q274.449 683.753 278.06 683.753 Q281.694 683.753 283.5 680.212 Q285.329 676.647 285.329 669.541 Q285.329 662.411 283.5 658.869 Q281.694 655.305 278.06 655.305 M278.06 651.601 Q283.87 651.601 286.926 656.207 Q290.005 660.791 290.005 669.541 Q290.005 678.267 286.926 682.874 Q283.87 687.457 278.06 687.457 Q272.25 687.457 269.171 682.874 Q266.116 678.267 266.116 669.541 Q266.116 660.791 269.171 656.207 Q272.25 651.601 278.06 651.601 Z" fill="#000000" fill-rule="evenodd" fill-opacity="1" /><path clip-path="url(#clip640)" d="M302.681 634.606 L293.089 649.595 L302.681 649.595 L302.681 634.606 M301.684 631.295 L306.461 631.295 L306.461 649.595 L310.467 649.595 L310.467 652.755 L306.461 652.755 L306.461 659.375 L302.681 659.375 L302.681 652.755 L290.005 652.755 L290.005 649.088 L301.684 631.295 Z" fill="#000000" fill-rule="evenodd" fill-opacity="1" /><path clip-path="url(#clip640)" d="M135.63 411.869 L123.825 430.318 L135.63 430.318 L135.63 411.869 M134.404 407.795 L140.283 407.795 L140.283 430.318 L145.214 430.318 L145.214 434.206 L140.283 434.206 L140.283 442.355 L135.63 442.355 L135.63 434.206 L120.029 434.206 L120.029 429.693 L134.404 407.795 Z" fill="#000000" fill-rule="evenodd" fill-opacity="1" /><path clip-path="url(#clip640)" d="M152.945 436.475 L157.829 436.475 L157.829 442.355 L152.945 442.355 L152.945 436.475 Z" fill="#000000" fill-rule="evenodd" fill-opacity="1" /><path clip-path="url(#clip640)" d="M178.014 410.873 Q174.403 410.873 172.575 414.438 Q170.769 417.98 170.769 425.109 Q170.769 432.216 172.575 435.781 Q174.403 439.322 178.014 439.322 Q181.649 439.322 183.454 435.781 Q185.283 432.216 185.283 425.109 Q185.283 417.98 183.454 414.438 Q181.649 410.873 178.014 410.873 M178.014 407.17 Q183.825 407.17 186.88 411.776 Q189.959 416.359 189.959 425.109 Q189.959 433.836 186.88 438.443 Q183.825 443.026 178.014 443.026 Q172.204 443.026 169.126 438.443 Q166.07 433.836 166.07 425.109 Q166.07 416.359 169.126 411.776 Q172.204 407.17 178.014 407.17 Z" fill="#000000" fill-rule="evenodd" fill-opacity="1" /><path clip-path="url(#clip640)" d="M226.348 416.892 L215.769 427.517 L226.348 438.095 L223.593 440.896 L212.968 430.271 L202.343 440.896 L199.612 438.095 L210.167 427.517 L199.612 416.892 L202.343 414.091 L212.968 424.716 L223.593 414.091 L226.348 416.892 Z" fill="#000000" fill-rule="evenodd" fill-opacity="1" /><path clip-path="url(#clip640)" d="M238.709 438.419 L246.347 438.419 L246.347 412.054 L238.037 413.72 L238.037 409.461 L246.301 407.795 L250.977 407.795 L250.977 438.419 L258.616 438.419 L258.616 442.355 L238.709 442.355 L238.709 438.419 Z" fill="#000000" fill-rule="evenodd" fill-opacity="1" /><path clip-path="url(#clip640)" d="M278.06 410.873 Q274.449 410.873 272.62 414.438 Q270.815 417.98 270.815 425.109 Q270.815 432.216 272.62 435.781 Q274.449 439.322 278.06 439.322 Q281.694 439.322 283.5 435.781 Q285.329 432.216 285.329 425.109 Q285.329 417.98 283.5 414.438 Q281.694 410.873 278.06 410.873 M278.06 407.17 Q283.87 407.17 286.926 411.776 Q290.005 416.359 290.005 425.109 Q290.005 433.836 286.926 438.443 Q283.87 443.026 278.06 443.026 Q272.25 443.026 269.171 438.443 Q266.116 433.836 266.116 425.109 Q266.116 416.359 269.171 411.776 Q272.25 407.17 278.06 407.17 Z" fill="#000000" fill-rule="evenodd" fill-opacity="1" /><path clip-path="url(#clip640)" d="M302.681 390.174 L293.089 405.164 L302.681 405.164 L302.681 390.174 M301.684 386.864 L306.461 386.864 L306.461 405.164 L310.467 405.164 L310.467 408.324 L306.461 408.324 L306.461 414.944 L302.681 414.944 L302.681 408.324 L290.005 408.324 L290.005 404.656 L301.684 386.864 Z" fill="#000000" fill-rule="evenodd" fill-opacity="1" /><path clip-path="url(#clip640)" d="M122.83 163.363 L141.186 163.363 L141.186 167.298 L127.112 167.298 L127.112 175.771 Q128.131 175.423 129.149 175.261 Q130.168 175.076 131.186 175.076 Q136.973 175.076 140.353 178.247 Q143.732 181.419 143.732 186.835 Q143.732 192.414 140.26 195.516 Q136.788 198.595 130.468 198.595 Q128.293 198.595 126.024 198.224 Q123.779 197.854 121.371 197.113 L121.371 192.414 Q123.455 193.548 125.677 194.104 Q127.899 194.659 130.376 194.659 Q134.38 194.659 136.718 192.553 Q139.056 190.446 139.056 186.835 Q139.056 183.224 136.718 181.118 Q134.38 179.011 130.376 179.011 Q128.501 179.011 126.626 179.428 Q124.774 179.845 122.83 180.724 L122.83 163.363 Z" fill="#000000" fill-rule="evenodd" fill-opacity="1" /><path clip-path="url(#clip640)" d="M152.945 192.044 L157.829 192.044 L157.829 197.923 L152.945 197.923 L152.945 192.044 Z" fill="#000000" fill-rule="evenodd" fill-opacity="1" /><path clip-path="url(#clip640)" d="M178.014 166.442 Q174.403 166.442 172.575 170.007 Q170.769 173.548 170.769 180.678 Q170.769 187.784 172.575 191.349 Q174.403 194.891 178.014 194.891 Q181.649 194.891 183.454 191.349 Q185.283 187.784 185.283 180.678 Q185.283 173.548 183.454 170.007 Q181.649 166.442 178.014 166.442 M178.014 162.738 Q183.825 162.738 186.88 167.345 Q189.959 171.928 189.959 180.678 Q189.959 189.405 186.88 194.011 Q183.825 198.595 178.014 198.595 Q172.204 198.595 169.126 194.011 Q166.07 189.405 166.07 180.678 Q166.07 171.928 169.126 167.345 Q172.204 162.738 178.014 162.738 Z" fill="#000000" fill-rule="evenodd" fill-opacity="1" /><path clip-path="url(#clip640)" d="M226.348 172.46 L215.769 183.085 L226.348 193.664 L223.593 196.465 L212.968 185.84 L202.343 196.465 L199.612 193.664 L210.167 183.085 L199.612 172.46 L202.343 169.66 L212.968 180.285 L223.593 169.66 L226.348 172.46 Z" fill="#000000" fill-rule="evenodd" fill-opacity="1" /><path clip-path="url(#clip640)" d="M238.709 193.988 L246.347 193.988 L246.347 167.623 L238.037 169.289 L238.037 165.03 L246.301 163.363 L250.977 163.363 L250.977 193.988 L258.616 193.988 L258.616 197.923 L238.709 197.923 L238.709 193.988 Z" fill="#000000" fill-rule="evenodd" fill-opacity="1" /><path clip-path="url(#clip640)" d="M278.06 166.442 Q274.449 166.442 272.62 170.007 Q270.815 173.548 270.815 180.678 Q270.815 187.784 272.62 191.349 Q274.449 194.891 278.06 194.891 Q281.694 194.891 283.5 191.349 Q285.329 187.784 285.329 180.678 Q285.329 173.548 283.5 170.007 Q281.694 166.442 278.06 166.442 M278.06 162.738 Q283.87 162.738 286.926 167.345 Q290.005 171.928 290.005 180.678 Q290.005 189.405 286.926 194.011 Q283.87 198.595 278.06 198.595 Q272.25 198.595 269.171 194.011 Q266.116 189.405 266.116 180.678 Q266.116 171.928 269.171 167.345 Q272.25 162.738 278.06 162.738 Z" fill="#000000" fill-rule="evenodd" fill-opacity="1" /><path clip-path="url(#clip640)" d="M302.681 145.743 L293.089 160.733 L302.681 160.733 L302.681 145.743 M301.684 142.433 L306.461 142.433 L306.461 160.733 L310.467 160.733 L310.467 163.893 L306.461 163.893 L306.461 170.513 L302.681 170.513 L302.681 163.893 L290.005 163.893 L290.005 160.225 L301.684 142.433 Z" fill="#000000" fill-rule="evenodd" fill-opacity="1" /><path clip-path="url(#clip640)" d="M36.5483 812.845 Q37.3857 812.845 39.0282 813.07 Q40.6707 813.296 43.0539 813.843 Q45.4371 814.391 47.9492 815.196 Q50.4612 815.969 52.9733 817.192 Q55.4531 818.416 57.4177 819.866 Q59.3823 821.315 60.6061 823.344 Q61.8299 825.373 61.8299 827.659 Q61.8299 828.722 61.6689 829.753 Q61.5078 830.783 60.9926 832.072 Q60.4773 833.36 59.6399 834.294 Q58.7703 835.228 57.2245 835.872 Q55.6786 836.516 53.6496 836.516 Q51.5562 836.516 48.7543 835.743 Q45.9202 834.938 40.1232 832.748 Q37.128 831.621 35.4855 831.621 Q34.7448 831.621 34.2939 831.782 Q33.8108 831.943 33.6498 832.265 Q33.4565 832.587 33.4243 832.78 Q33.3921 832.941 33.3921 833.263 Q33.3921 835.034 35.2279 836.838 Q37.0636 838.642 41.5724 839.93 Q42.3776 840.187 42.5708 840.348 Q42.764 840.509 42.764 840.993 Q42.7318 841.798 42.0877 841.798 Q41.8945 841.798 41.1537 841.572 Q40.3808 841.347 39.2214 840.928 Q38.0298 840.509 36.8059 839.769 Q35.5499 839.028 34.4549 838.126 Q33.3599 837.192 32.6514 835.872 Q31.9429 834.551 31.9429 833.07 Q31.9429 830.654 33.521 829.173 Q35.0668 827.659 37.3534 827.659 Q38.6095 827.659 40.6384 828.464 Q44.3099 829.817 46.0812 830.429 Q47.8526 831.041 50.3646 831.685 Q52.8767 832.297 54.6158 832.297 Q57.2567 832.297 58.8026 831.073 Q60.3484 829.849 60.3484 827.402 Q60.3484 825.212 58.7703 823.247 Q57.1601 821.25 54.8734 819.93 Q52.5546 818.61 49.9781 817.611 Q47.3695 816.613 45.4049 816.162 Q43.4082 815.679 42.4742 815.679 Q39.2214 815.679 37.0958 817.901 Q36.4839 818.513 36.0974 818.738 Q35.7109 818.964 35.099 818.964 Q33.9718 818.964 32.9735 817.965 Q31.9429 816.935 31.9429 815.743 Q31.9429 814.648 33.0379 813.746 Q34.1329 812.845 36.5483 812.845 Z" fill="#000000" fill-rule="evenodd" fill-opacity="1" /><path clip-path="url(#clip640)" d="M51.6529 780.288 Q55.8074 781.158 58.1906 782.285 Q61.8299 784.089 61.8299 787.148 Q61.8299 789.467 60.4128 791.11 Q58.9958 792.752 56.8702 793.139 Q61.8299 797.358 61.8299 801.738 Q61.8299 805.602 58.8992 808.05 Q55.9362 810.498 51.2664 810.498 Q46.5643 810.498 42.0555 808.179 Q37.5467 805.828 34.7448 802.124 Q31.9429 798.42 31.9429 794.62 Q31.9429 790.594 36.1618 788.533 Q35.0024 788.372 34.1329 787.631 Q33.2633 786.891 33.2633 785.763 Q33.2633 784.894 33.7464 784.379 Q34.1973 783.863 35.0346 783.863 Q35.4533 783.863 37.289 784.314 L46.4999 786.697 L52.458 788.147 Q54.648 788.694 55.4531 788.855 Q56.2583 788.984 57.3211 788.984 Q60.3484 788.984 60.3484 787.019 Q60.3484 786.053 59.7365 785.28 Q59.1246 784.507 57.8364 783.895 Q56.5481 783.284 55.3565 782.897 Q54.1327 782.511 52.2004 781.995 Q51.4274 781.834 51.2342 781.705 Q51.0087 781.544 51.0087 781.094 Q51.0087 780.288 51.6529 780.288 M39.1892 789.338 Q38.8993 789.338 38.0942 789.564 Q37.289 789.789 36.1618 790.304 Q35.0346 790.82 34.2295 791.947 Q33.3921 793.042 33.3921 794.523 Q33.3921 796.52 35.099 798.614 Q36.8059 800.675 39.7045 802.188 Q42.0233 803.348 46.8864 804.604 Q51.7495 805.828 54.1649 805.828 Q55.6464 805.828 56.9668 805.506 Q58.2551 805.151 59.3178 804.153 Q60.3484 803.155 60.3484 801.609 Q60.3484 797.841 55.6786 794.137 Q54.8734 793.428 54.5514 793.267 Q54.1971 793.074 53.2309 792.817 L40.3164 789.532 Q39.3502 789.338 39.1892 789.338 Z" fill="#000000" fill-rule="evenodd" fill-opacity="1" /><path clip-path="url(#clip640)" d="M36.2262 749.092 Q37.9332 749.092 39.0282 750.219 Q40.1232 751.314 40.1232 752.731 Q40.1232 753.955 39.4146 754.599 Q38.7061 755.243 37.8043 755.243 Q36.5161 755.243 35.4533 754.245 Q34.3905 753.246 34.1651 751.797 Q33.3921 752.86 33.3921 754.567 Q33.3921 757.369 35.5499 759.849 Q36.5483 760.944 38.384 762.135 Q40.1876 763.327 40.9605 763.552 L49.5595 765.646 Q50.5256 765.839 55.1633 767.03 Q59.7687 768.19 59.962 768.286 Q60.8637 768.609 61.3468 769.317 Q61.8299 770.026 61.8299 770.734 Q61.8299 771.539 61.3468 772.087 Q60.8637 772.634 60.0264 772.634 Q59.8976 772.634 59.4145 772.538 Q58.9314 772.441 58.2551 772.28 Q57.5787 772.119 57.1923 772.055 L41.9589 768.222 Q39.1892 767.514 38.3196 767.352 Q37.4179 767.159 36.4195 767.159 Q34.6804 767.159 34.0362 767.707 Q33.3921 768.254 33.3921 769.22 Q33.3921 770.895 35.3889 771.99 Q37.3857 773.085 41.2504 774.019 Q42.3132 774.309 42.5386 774.502 Q42.764 774.663 42.764 775.146 Q42.7318 775.951 42.0877 775.951 Q41.9267 775.951 40.8961 775.694 Q39.8333 775.436 38.2874 774.953 Q36.7093 774.438 35.7109 773.89 Q35.0346 773.568 34.5837 773.278 Q34.1329 772.989 33.4243 772.409 Q32.7158 771.829 32.3293 770.96 Q31.9429 770.09 31.9429 769.027 Q31.9429 766.708 33.3599 765.066 Q34.777 763.391 36.9992 763.005 Q35.8398 762.2 34.8414 761.201 Q33.8108 760.203 32.8768 758.367 Q31.9429 756.531 31.9429 754.567 Q31.9429 752.119 33.1989 750.605 Q34.4227 749.092 36.2262 749.092 Z" fill="#000000" fill-rule="evenodd" fill-opacity="1" /><path clip-path="url(#clip640)" d="M44.5998 746.509 Q33.4565 746.509 24.4711 742.355 Q20.703 740.583 17.5468 738.103 Q14.3907 735.624 13.0058 733.981 Q11.621 732.339 11.621 731.888 Q11.621 731.244 12.2651 731.211 Q12.5871 731.211 13.3923 732.081 Q24.2135 742.709 44.5998 742.677 Q65.0505 742.677 75.453 732.339 Q76.5802 731.211 76.9345 731.211 Q77.5786 731.211 77.5786 731.888 Q77.5786 732.339 76.2581 733.917 Q74.9377 735.495 71.9103 737.942 Q68.883 740.39 65.1793 742.161 Q56.1939 746.509 44.5998 746.509 Z" fill="#000000" fill-rule="evenodd" fill-opacity="1" /><path clip-path="url(#clip640)" d="M42.4742 686.721 Q47.1762 686.721 51.7173 689.105 Q56.2583 691.456 59.0602 695.159 Q61.8299 698.863 61.8299 702.631 Q61.8299 704.886 60.6061 706.399 Q59.3501 707.881 57.5787 708.686 Q59.7687 709.298 65.0183 710.618 Q70.2678 711.939 70.7831 711.939 Q71.073 711.939 71.2018 711.874 Q71.3306 711.81 71.4917 711.52 Q71.6849 711.23 71.7493 710.522 Q71.8459 709.813 71.8459 708.621 Q71.8459 708.01 71.8459 707.784 Q71.8781 707.526 72.0392 707.301 Q72.2002 707.043 72.5545 707.043 Q73.8749 707.043 73.8749 708.235 Q73.8749 709.298 73.7783 711.488 Q73.6817 713.678 73.6817 714.773 Q73.6817 715.707 73.7783 717.575 Q73.8749 719.443 73.8749 720.312 Q73.8749 721.182 73.102 721.182 Q72.6511 721.182 72.3612 721.053 Q72.1036 720.956 71.9747 720.699 Q71.8781 720.441 71.8459 720.216 Q71.8459 720.022 71.8459 719.636 Q71.8459 718.154 71.5883 717.51 Q71.3628 716.866 70.8797 716.641 Q70.4289 716.383 69.1406 716.093 L39.7689 708.686 Q37.8043 708.235 36.4195 708.235 Q34.6804 708.235 34.0362 708.782 Q33.3921 709.33 33.3921 710.296 Q33.3921 711.971 35.3889 713.066 Q37.3857 714.161 41.2504 715.095 Q42.3132 715.385 42.5386 715.578 Q42.764 715.739 42.764 716.222 Q42.7318 717.027 42.0877 717.027 Q41.9267 717.027 40.8961 716.77 Q39.8333 716.512 38.2874 716.029 Q36.7093 715.514 35.7109 714.966 Q35.0346 714.644 34.5837 714.354 Q34.1329 714.064 33.4243 713.485 Q32.7158 712.873 32.3293 712.003 Q31.9429 711.134 31.9429 710.071 Q31.9429 708.01 33.1667 706.303 Q34.3905 704.596 36.8704 704.145 Q34.7126 702.309 33.3277 700.055 Q31.9429 697.8 31.9429 695.514 Q31.9429 691.713 34.9058 689.234 Q37.8365 686.721 42.4742 686.721 M39.5757 691.488 Q36.6449 691.488 35.0346 692.615 Q33.3921 693.71 33.3921 695.707 Q33.3921 698.187 35.9042 701.053 Q38.2874 703.887 40.5096 704.467 L53.4242 707.72 L54.487 707.913 Q54.6802 707.913 55.2599 707.816 Q55.8074 707.687 56.7092 707.333 Q57.6109 706.947 58.4161 706.431 Q59.189 705.884 59.7687 704.918 Q60.3484 703.919 60.3484 702.696 Q60.3484 700.731 58.6093 698.605 Q56.8702 696.448 53.5852 694.837 Q51.4596 693.839 46.8864 692.68 Q42.2809 691.488 39.5757 691.488 Z" fill="#000000" fill-rule="evenodd" fill-opacity="1" /><path clip-path="url(#clip640)" d="M65.6679 680.017 L64.2251 680.017 Q64.2251 674.471 61.2718 671.608 Q61.2718 670.819 61.4522 670.683 Q61.6325 670.548 62.4667 670.548 L88.3698 670.548 Q89.745 670.548 90.1734 669.872 Q90.6017 669.196 90.6017 666.242 L90.6017 664.777 L92.022 664.777 Q91.8867 666.4 91.8867 672.262 Q91.8867 678.123 92.022 679.724 L90.6017 679.724 L90.6017 678.258 Q90.6017 675.35 90.1959 674.651 Q89.7676 673.952 88.3698 673.952 L64.4505 673.952 Q65.6679 676.365 65.6679 680.017 Z" fill="#000000" fill-rule="evenodd" fill-opacity="1" /><path clip-path="url(#clip640)" d="M76.9345 657.883 Q76.6124 657.883 75.8072 657.046 Q64.9861 646.418 44.5998 646.418 Q24.149 646.418 13.811 656.627 Q12.6193 657.883 12.2651 657.883 Q11.621 657.883 11.621 657.239 Q11.621 656.788 12.9414 655.21 Q14.2618 653.6 17.2892 651.184 Q20.3165 648.737 24.0202 646.933 Q33.0057 642.585 44.5998 642.585 Q55.743 642.585 64.7284 646.74 Q68.4965 648.511 71.6527 650.991 Q74.8089 653.471 76.1937 655.113 Q77.5786 656.756 77.5786 657.239 Q77.5786 657.883 76.9345 657.883 Z" fill="#000000" fill-rule="evenodd" fill-opacity="1" /><circle clip-path="url(#clip643)" cx="592.522" cy="234.021" r="14" fill="#009af9" fill-rule="evenodd" fill-opacity="1" stroke="#000000" stroke-opacity="1" stroke-width="3.2"/>
<circle clip-path="url(#clip643)" cx="781.794" cy="174.734" r="14" fill="#009af9" fill-rule="evenodd" fill-opacity="1" stroke="#000000" stroke-opacity="1" stroke-width="3.2"/>
<circle clip-path="url(#clip643)" cx="971.067" cy="163.845" r="14" fill="#009af9" fill-rule="evenodd" fill-opacity="1" stroke="#000000" stroke-opacity="1" stroke-width="3.2"/>
<circle clip-path="url(#clip643)" cx="1160.34" cy="157.352" r="14" fill="#009af9" fill-rule="evenodd" fill-opacity="1" stroke="#000000" stroke-opacity="1" stroke-width="3.2"/>
<circle clip-path="url(#clip643)" cx="1349.61" cy="202.357" r="14" fill="#009af9" fill-rule="evenodd" fill-opacity="1" stroke="#000000" stroke-opacity="1" stroke-width="3.2"/>
<circle clip-path="url(#clip643)" cx="1538.88" cy="238.784" r="14" fill="#009af9" fill-rule="evenodd" fill-opacity="1" stroke="#000000" stroke-opacity="1" stroke-width="3.2"/>
<circle clip-path="url(#clip643)" cx="1728.16" cy="163.988" r="14" fill="#009af9" fill-rule="evenodd" fill-opacity="1" stroke="#000000" stroke-opacity="1" stroke-width="3.2"/>
<circle clip-path="url(#clip643)" cx="1917.43" cy="173.805" r="14" fill="#009af9" fill-rule="evenodd" fill-opacity="1" stroke="#000000" stroke-opacity="1" stroke-width="3.2"/>
<circle clip-path="url(#clip643)" cx="2106.7" cy="147.299" r="14" fill="#009af9" fill-rule="evenodd" fill-opacity="1" stroke="#000000" stroke-opacity="1" stroke-width="3.2"/>
<circle clip-path="url(#clip643)" cx="2295.97" cy="86.2969" r="14" fill="#009af9" fill-rule="evenodd" fill-opacity="1" stroke="#000000" stroke-opacity="1" stroke-width="3.2"/>
<polyline clip-path="url(#clip643)" style="stroke:#e26f46; stroke-linecap:butt; stroke-linejoin:round; stroke-width:12; stroke-opacity:1; fill:none" points="
  403.249,1388.05 422.176,1388.05 441.104,1388.05 460.031,1388.05 478.958,1388.05 497.885,1388.05 516.813,1388.05 535.74,1388.05 554.667,1388.05 573.594,1388.05 
  592.522,1388.05 611.449,1388.05 630.376,1388.05 649.303,1388.05 668.231,1388.05 687.158,1388.05 706.085,1388.05 725.012,1388.05 743.94,1388.05 762.867,1388.05 
  781.794,1388.05 800.721,1388.05 819.649,1388.05 838.576,1388.05 857.503,1388.05 876.43,1388.05 895.358,1388.05 914.285,1388.05 933.212,1388.05 952.139,1388.05 
  971.067,1388.05 989.994,1388.05 1008.92,1388.05 1027.85,1388.05 1046.78,1388.05 1065.7,1388.05 1084.63,1388.05 1103.56,1388.05 1122.48,1388.05 1141.41,1388.05 
  1160.34,1388.05 1179.27,1388.05 1198.19,1388.05 1217.12,1388.05 1236.05,1388.05 1254.98,1388.05 1273.9,1388.05 1292.83,1388.05 1311.76,1388.05 1330.68,1388.05 
  1349.61,1388.05 1368.54,1388.05 1387.47,1388.05 1406.39,1388.05 1425.32,1388.05 1444.25,1388.05 1463.18,1388.05 1482.1,1388.05 1501.03,1388.05 1519.96,1388.05 
  1538.88,1388.05 1557.81,1388.05 1576.74,1388.05 1595.67,1388.05 1614.59,1388.05 1633.52,1388.05 1652.45,1388.05 1671.37,1388.05 1690.3,1388.05 1709.23,1388.06 
  1728.16,1388.06 1747.08,1388.06 1766.01,1388.06 1784.94,1388.06 1803.87,1388.06 1822.79,1388.06 1841.72,1388.06 1860.65,1388.06 1879.57,1388.06 1898.5,1388.06 
  1917.43,1388.06 1936.36,1388.06 1955.28,1388.06 1974.21,1388.06 1993.14,1388.06 2012.07,1388.06 2030.99,1388.06 2049.92,1388.06 2068.85,1388.06 2087.77,1388.06 
  2106.7,1388.06 2125.63,1388.06 2144.56,1388.06 2163.48,1388.06 2182.41,1388.06 2201.34,1388.06 2220.27,1388.06 2239.19,1388.06 2258.12,1388.06 2277.05,1388.06 
  2295.97,1388.06 
  "/>
</svg>
