<?xml version="1.0" encoding="utf-8"?>
<svg xmlns="http://www.w3.org/2000/svg" xmlns:xlink="http://www.w3.org/1999/xlink" width="600" height="400" viewBox="0 0 2400 1600">
<defs>
  <clipPath id="clip720">
    <rect x="0" y="0" width="2400" height="1600"/>
  </clipPath>
</defs>
<path clip-path="url(#clip720)" d="
M0 1600 L2400 1600 L2400 0 L0 0  Z
  " fill="#ffffff" fill-rule="evenodd" fill-opacity="1"/>
<defs>
  <clipPath id="clip721">
    <rect x="480" y="0" width="1681" height="1600"/>
  </clipPath>
</defs>
<defs>
  <clipPath id="clip722">
    <rect x="375" y="47" width="1978" height="1381"/>
  </clipPath>
</defs>
<path clip-path="url(#clip720)" d="
M373.736 1427.11 L2352.76 1427.11 L2352.76 47.2441 L373.736 47.2441  Z
  " fill="#ffffff" fill-rule="evenodd" fill-opacity="1"/>
<defs>
  <clipPath id="clip723">
    <rect x="373" y="47" width="1980" height="1381"/>
  </clipPath>
</defs>
<polyline clip-path="url(#clip723)" style="stroke:#000000; stroke-linecap:butt; stroke-linejoin:round; stroke-width:2; stroke-opacity:0.1; fill:none" points="
  429.746,1427.11 429.746,47.2441 
  "/>
<polyline clip-path="url(#clip723)" style="stroke:#000000; stroke-linecap:butt; stroke-linejoin:round; stroke-width:2; stroke-opacity:0.1; fill:none" points="
  896.496,1427.11 896.496,47.2441 
  "/>
<polyline clip-path="url(#clip723)" style="stroke:#000000; stroke-linecap:butt; stroke-linejoin:round; stroke-width:2; stroke-opacity:0.1; fill:none" points="
  1363.25,1427.11 1363.25,47.2441 
  "/>
<polyline clip-path="url(#clip723)" style="stroke:#000000; stroke-linecap:butt; stroke-linejoin:round; stroke-width:2; stroke-opacity:0.1; fill:none" points="
  1830,1427.11 1830,47.2441 
  "/>
<polyline clip-path="url(#clip723)" style="stroke:#000000; stroke-linecap:butt; stroke-linejoin:round; stroke-width:2; stroke-opacity:0.1; fill:none" points="
  2296.75,1427.11 2296.75,47.2441 
  "/>
<polyline clip-path="url(#clip720)" style="stroke:#000000; stroke-linecap:butt; stroke-linejoin:round; stroke-width:4; stroke-opacity:1; fill:none" points="
  373.736,1427.11 2352.76,1427.11 
  "/>
<polyline clip-path="url(#clip720)" style="stroke:#000000; stroke-linecap:butt; stroke-linejoin:round; stroke-width:4; stroke-opacity:1; fill:none" points="
  429.746,1427.11 429.746,1408.21 
  "/>
<polyline clip-path="url(#clip720)" style="stroke:#000000; stroke-linecap:butt; stroke-linejoin:round; stroke-width:4; stroke-opacity:1; fill:none" points="
  896.496,1427.11 896.496,1408.21 
  "/>
<polyline clip-path="url(#clip720)" style="stroke:#000000; stroke-linecap:butt; stroke-linejoin:round; stroke-width:4; stroke-opacity:1; fill:none" points="
  1363.25,1427.11 1363.25,1408.21 
  "/>
<polyline clip-path="url(#clip720)" style="stroke:#000000; stroke-linecap:butt; stroke-linejoin:round; stroke-width:4; stroke-opacity:1; fill:none" points="
  1830,1427.11 1830,1408.21 
  "/>
<polyline clip-path="url(#clip720)" style="stroke:#000000; stroke-linecap:butt; stroke-linejoin:round; stroke-width:4; stroke-opacity:1; fill:none" points="
  2296.75,1427.11 2296.75,1408.21 
  "/>
<path clip-path="url(#clip720)" d="M392.049 1456.3 Q388.438 1456.3 386.61 1459.86 Q384.804 1463.41 384.804 1470.54 Q384.804 1477.64 386.61 1481.21 Q388.438 1484.75 392.049 1484.75 Q395.684 1484.75 397.489 1481.21 Q399.318 1477.64 399.318 1470.54 Q399.318 1463.41 397.489 1459.86 Q395.684 1456.3 392.049 1456.3 M392.049 1452.6 Q397.859 1452.6 400.915 1457.2 Q403.994 1461.79 403.994 1470.54 Q403.994 1479.26 400.915 1483.87 Q397.859 1488.45 392.049 1488.45 Q386.239 1488.45 383.16 1483.87 Q380.105 1479.26 380.105 1470.54 Q380.105 1461.79 383.16 1457.2 Q386.239 1452.6 392.049 1452.6 Z" fill="#000000" fill-rule="evenodd" fill-opacity="1" /><path clip-path="url(#clip720)" d="M412.211 1481.9 L417.095 1481.9 L417.095 1487.78 L412.211 1487.78 L412.211 1481.9 Z" fill="#000000" fill-rule="evenodd" fill-opacity="1" /><path clip-path="url(#clip720)" d="M437.281 1456.3 Q433.669 1456.3 431.841 1459.86 Q430.035 1463.41 430.035 1470.54 Q430.035 1477.64 431.841 1481.21 Q433.669 1484.75 437.281 1484.75 Q440.915 1484.75 442.72 1481.21 Q444.549 1477.64 444.549 1470.54 Q444.549 1463.41 442.72 1459.86 Q440.915 1456.3 437.281 1456.3 M437.281 1452.6 Q443.091 1452.6 446.146 1457.2 Q449.225 1461.79 449.225 1470.54 Q449.225 1479.26 446.146 1483.87 Q443.091 1488.45 437.281 1488.45 Q431.47 1488.45 428.392 1483.87 Q425.336 1479.26 425.336 1470.54 Q425.336 1461.79 428.392 1457.2 Q431.47 1452.6 437.281 1452.6 Z" fill="#000000" fill-rule="evenodd" fill-opacity="1" /><path clip-path="url(#clip720)" d="M467.442 1456.3 Q463.831 1456.3 462.003 1459.86 Q460.197 1463.41 460.197 1470.54 Q460.197 1477.64 462.003 1481.21 Q463.831 1484.75 467.442 1484.75 Q471.077 1484.75 472.882 1481.21 Q474.711 1477.64 474.711 1470.54 Q474.711 1463.41 472.882 1459.86 Q471.077 1456.3 467.442 1456.3 M467.442 1452.6 Q473.253 1452.6 476.308 1457.2 Q479.387 1461.79 479.387 1470.54 Q479.387 1479.26 476.308 1483.87 Q473.253 1488.45 467.442 1488.45 Q461.632 1488.45 458.554 1483.87 Q455.498 1479.26 455.498 1470.54 Q455.498 1461.79 458.554 1457.2 Q461.632 1452.6 467.442 1452.6 Z" fill="#000000" fill-rule="evenodd" fill-opacity="1" /><path clip-path="url(#clip720)" d="M859.297 1456.3 Q855.686 1456.3 853.857 1459.86 Q852.052 1463.41 852.052 1470.54 Q852.052 1477.64 853.857 1481.21 Q855.686 1484.75 859.297 1484.75 Q862.931 1484.75 864.737 1481.21 Q866.565 1477.64 866.565 1470.54 Q866.565 1463.41 864.737 1459.86 Q862.931 1456.3 859.297 1456.3 M859.297 1452.6 Q865.107 1452.6 868.163 1457.2 Q871.241 1461.79 871.241 1470.54 Q871.241 1479.26 868.163 1483.87 Q865.107 1488.45 859.297 1488.45 Q853.487 1488.45 850.408 1483.87 Q847.353 1479.26 847.353 1470.54 Q847.353 1461.79 850.408 1457.2 Q853.487 1452.6 859.297 1452.6 Z" fill="#000000" fill-rule="evenodd" fill-opacity="1" /><path clip-path="url(#clip720)" d="M879.459 1481.9 L884.343 1481.9 L884.343 1487.78 L879.459 1487.78 L879.459 1481.9 Z" fill="#000000" fill-rule="evenodd" fill-opacity="1" /><path clip-path="url(#clip720)" d="M898.556 1483.85 L914.875 1483.85 L914.875 1487.78 L892.931 1487.78 L892.931 1483.85 Q895.593 1481.09 900.176 1476.46 Q904.783 1471.81 905.963 1470.47 Q908.209 1467.94 909.088 1466.21 Q909.991 1464.45 909.991 1462.76 Q909.991 1460 908.047 1458.27 Q906.125 1456.53 903.024 1456.53 Q900.825 1456.53 898.371 1457.3 Q895.94 1458.06 893.163 1459.61 L893.163 1454.89 Q895.987 1453.75 898.44 1453.17 Q900.894 1452.6 902.931 1452.6 Q908.301 1452.6 911.496 1455.28 Q914.69 1457.97 914.69 1462.46 Q914.69 1464.59 913.88 1466.51 Q913.093 1468.41 910.987 1471 Q910.408 1471.67 907.306 1474.89 Q904.204 1478.08 898.556 1483.85 Z" fill="#000000" fill-rule="evenodd" fill-opacity="1" /><path clip-path="url(#clip720)" d="M924.736 1453.22 L943.093 1453.22 L943.093 1457.16 L929.019 1457.16 L929.019 1465.63 Q930.037 1465.28 931.056 1465.12 Q932.074 1464.93 933.093 1464.93 Q938.88 1464.93 942.26 1468.11 Q945.639 1471.28 945.639 1476.69 Q945.639 1482.27 942.167 1485.37 Q938.695 1488.45 932.375 1488.45 Q930.199 1488.45 927.931 1488.08 Q925.686 1487.71 923.278 1486.97 L923.278 1482.27 Q925.361 1483.41 927.584 1483.96 Q929.806 1484.52 932.283 1484.52 Q936.287 1484.52 938.625 1482.41 Q940.963 1480.3 940.963 1476.69 Q940.963 1473.08 938.625 1470.98 Q936.287 1468.87 932.283 1468.87 Q930.408 1468.87 928.533 1469.29 Q926.681 1469.7 924.736 1470.58 L924.736 1453.22 Z" fill="#000000" fill-rule="evenodd" fill-opacity="1" /><path clip-path="url(#clip720)" d="M1325.55 1456.3 Q1321.94 1456.3 1320.11 1459.86 Q1318.3 1463.41 1318.3 1470.54 Q1318.3 1477.64 1320.11 1481.21 Q1321.94 1484.75 1325.55 1484.75 Q1329.18 1484.75 1330.99 1481.21 Q1332.82 1477.64 1332.82 1470.54 Q1332.82 1463.41 1330.99 1459.86 Q1329.18 1456.3 1325.55 1456.3 M1325.55 1452.6 Q1331.36 1452.6 1334.42 1457.2 Q1337.49 1461.79 1337.49 1470.54 Q1337.49 1479.26 1334.42 1483.87 Q1331.36 1488.45 1325.55 1488.45 Q1319.74 1488.45 1316.66 1483.87 Q1313.6 1479.26 1313.6 1470.54 Q1313.6 1461.79 1316.66 1457.2 Q1319.74 1452.6 1325.55 1452.6 Z" fill="#000000" fill-rule="evenodd" fill-opacity="1" /><path clip-path="url(#clip720)" d="M1345.71 1481.9 L1350.6 1481.9 L1350.6 1487.78 L1345.71 1487.78 L1345.71 1481.9 Z" fill="#000000" fill-rule="evenodd" fill-opacity="1" /><path clip-path="url(#clip720)" d="M1360.83 1453.22 L1379.18 1453.22 L1379.18 1457.16 L1365.11 1457.16 L1365.11 1465.63 Q1366.13 1465.28 1367.15 1465.12 Q1368.16 1464.93 1369.18 1464.93 Q1374.97 1464.93 1378.35 1468.11 Q1381.73 1471.28 1381.73 1476.69 Q1381.73 1482.27 1378.26 1485.37 Q1374.79 1488.45 1368.47 1488.45 Q1366.29 1488.45 1364.02 1488.08 Q1361.78 1487.71 1359.37 1486.97 L1359.37 1482.27 Q1361.45 1483.41 1363.67 1483.96 Q1365.9 1484.52 1368.37 1484.52 Q1372.38 1484.52 1374.72 1482.41 Q1377.05 1480.3 1377.05 1476.69 Q1377.05 1473.08 1374.72 1470.98 Q1372.38 1468.87 1368.37 1468.87 Q1366.5 1468.87 1364.62 1469.29 Q1362.77 1469.7 1360.83 1470.58 L1360.83 1453.22 Z" fill="#000000" fill-rule="evenodd" fill-opacity="1" /><path clip-path="url(#clip720)" d="M1400.94 1456.3 Q1397.33 1456.3 1395.5 1459.86 Q1393.7 1463.41 1393.7 1470.54 Q1393.7 1477.64 1395.5 1481.21 Q1397.33 1484.75 1400.94 1484.75 Q1404.58 1484.75 1406.38 1481.21 Q1408.21 1477.64 1408.21 1470.54 Q1408.21 1463.41 1406.38 1459.86 Q1404.58 1456.3 1400.94 1456.3 M1400.94 1452.6 Q1406.75 1452.6 1409.81 1457.2 Q1412.89 1461.79 1412.89 1470.54 Q1412.89 1479.26 1409.81 1483.87 Q1406.75 1488.45 1400.94 1488.45 Q1395.13 1488.45 1392.05 1483.87 Q1389 1479.26 1389 1470.54 Q1389 1461.79 1392.05 1457.2 Q1395.13 1452.6 1400.94 1452.6 Z" fill="#000000" fill-rule="evenodd" fill-opacity="1" /><path clip-path="url(#clip720)" d="M1792.8 1456.3 Q1789.19 1456.3 1787.36 1459.86 Q1785.55 1463.41 1785.55 1470.54 Q1785.55 1477.64 1787.36 1481.21 Q1789.19 1484.75 1792.8 1484.75 Q1796.43 1484.75 1798.24 1481.21 Q1800.07 1477.64 1800.07 1470.54 Q1800.07 1463.41 1798.24 1459.86 Q1796.43 1456.3 1792.8 1456.3 M1792.8 1452.6 Q1798.61 1452.6 1801.66 1457.2 Q1804.74 1461.79 1804.74 1470.54 Q1804.74 1479.26 1801.66 1483.87 Q1798.61 1488.45 1792.8 1488.45 Q1786.99 1488.45 1783.91 1483.87 Q1780.85 1479.26 1780.85 1470.54 Q1780.85 1461.79 1783.91 1457.2 Q1786.99 1452.6 1792.8 1452.6 Z" fill="#000000" fill-rule="evenodd" fill-opacity="1" /><path clip-path="url(#clip720)" d="M1812.96 1481.9 L1817.84 1481.9 L1817.84 1487.78 L1812.96 1487.78 L1812.96 1481.9 Z" fill="#000000" fill-rule="evenodd" fill-opacity="1" /><path clip-path="url(#clip720)" d="M1826.85 1453.22 L1849.07 1453.22 L1849.07 1455.21 L1836.52 1487.78 L1831.64 1487.78 L1843.44 1457.16 L1826.85 1457.16 L1826.85 1453.22 Z" fill="#000000" fill-rule="evenodd" fill-opacity="1" /><path clip-path="url(#clip720)" d="M1858.24 1453.22 L1876.59 1453.22 L1876.59 1457.16 L1862.52 1457.16 L1862.52 1465.63 Q1863.54 1465.28 1864.56 1465.12 Q1865.57 1464.93 1866.59 1464.93 Q1872.38 1464.93 1875.76 1468.11 Q1879.14 1471.28 1879.14 1476.69 Q1879.14 1482.27 1875.67 1485.37 Q1872.19 1488.45 1865.88 1488.45 Q1863.7 1488.45 1861.43 1488.08 Q1859.19 1487.71 1856.78 1486.97 L1856.78 1482.27 Q1858.86 1483.41 1861.08 1483.96 Q1863.31 1484.52 1865.78 1484.52 Q1869.79 1484.52 1872.13 1482.41 Q1874.46 1480.3 1874.46 1476.69 Q1874.46 1473.08 1872.13 1470.98 Q1869.79 1468.87 1865.78 1468.87 Q1863.91 1468.87 1862.03 1469.29 Q1860.18 1469.7 1858.24 1470.58 L1858.24 1453.22 Z" fill="#000000" fill-rule="evenodd" fill-opacity="1" /><path clip-path="url(#clip720)" d="M2248.82 1483.85 L2256.46 1483.85 L2256.46 1457.48 L2248.15 1459.15 L2248.15 1454.89 L2256.41 1453.22 L2261.09 1453.22 L2261.09 1483.85 L2268.73 1483.85 L2268.73 1487.78 L2248.82 1487.78 L2248.82 1483.85 Z" fill="#000000" fill-rule="evenodd" fill-opacity="1" /><path clip-path="url(#clip720)" d="M2278.17 1481.9 L2283.05 1481.9 L2283.05 1487.78 L2278.17 1487.78 L2278.17 1481.9 Z" fill="#000000" fill-rule="evenodd" fill-opacity="1" /><path clip-path="url(#clip720)" d="M2303.24 1456.3 Q2299.63 1456.3 2297.8 1459.86 Q2295.99 1463.41 2295.99 1470.54 Q2295.99 1477.64 2297.8 1481.21 Q2299.63 1484.75 2303.24 1484.75 Q2306.87 1484.75 2308.68 1481.21 Q2310.51 1477.64 2310.51 1470.54 Q2310.51 1463.41 2308.68 1459.86 Q2306.87 1456.3 2303.24 1456.3 M2303.24 1452.6 Q2309.05 1452.6 2312.1 1457.2 Q2315.18 1461.79 2315.18 1470.54 Q2315.18 1479.26 2312.1 1483.87 Q2309.05 1488.45 2303.24 1488.45 Q2297.43 1488.45 2294.35 1483.87 Q2291.29 1479.26 2291.29 1470.54 Q2291.29 1461.79 2294.35 1457.2 Q2297.43 1452.6 2303.24 1452.6 Z" fill="#000000" fill-rule="evenodd" fill-opacity="1" /><path clip-path="url(#clip720)" d="M2333.4 1456.3 Q2329.79 1456.3 2327.96 1459.86 Q2326.16 1463.41 2326.16 1470.54 Q2326.16 1477.64 2327.96 1481.21 Q2329.79 1484.75 2333.4 1484.75 Q2337.04 1484.75 2338.84 1481.21 Q2340.67 1477.64 2340.67 1470.54 Q2340.67 1463.41 2338.84 1459.86 Q2337.04 1456.3 2333.4 1456.3 M2333.4 1452.6 Q2339.21 1452.6 2342.27 1457.2 Q2345.35 1461.79 2345.35 1470.54 Q2345.35 1479.26 2342.27 1483.87 Q2339.21 1488.45 2333.4 1488.45 Q2327.59 1488.45 2324.51 1483.87 Q2321.46 1479.26 2321.46 1470.54 Q2321.46 1461.79 2324.51 1457.2 Q2327.59 1452.6 2333.4 1452.6 Z" fill="#000000" fill-rule="evenodd" fill-opacity="1" /><path clip-path="url(#clip720)" d="M1350.46 1529.79 Q1350.46 1531.63 1349.34 1532.72 Q1348.24 1533.82 1346.86 1533.82 Q1345.63 1533.82 1344.99 1533.11 Q1344.34 1532.4 1344.34 1531.5 Q1344.34 1531.11 1344.5 1530.63 Q1344.67 1530.12 1345.02 1529.5 Q1345.41 1528.89 1346.21 1528.44 Q1347.02 1527.99 1348.11 1527.93 Q1347.89 1527.7 1347.82 1527.67 Q1347.34 1527.28 1346.44 1527.15 Q1346.31 1527.09 1345.86 1527.09 Q1343.63 1527.09 1341.38 1528.73 Q1339.16 1530.34 1336.42 1533.4 Q1332.97 1536.98 1330.75 1538.3 Q1340.51 1539.58 1340.51 1545.22 Q1340.51 1546.15 1340.25 1547.28 Q1339.74 1549.41 1339.74 1550.95 Q1339.74 1554.04 1341.83 1554.04 Q1343.86 1554.04 1345.15 1551.98 Q1346.47 1549.92 1347.56 1545.9 Q1347.72 1545.16 1347.89 1544.93 Q1348.05 1544.71 1348.5 1544.71 Q1349.3 1544.71 1349.3 1545.35 Q1348.56 1549.12 1346.92 1552.02 Q1344.83 1555.53 1341.7 1555.53 Q1339.09 1555.53 1337.35 1553.72 Q1335.65 1551.89 1335.65 1548.99 Q1335.65 1548.28 1335.91 1546.67 Q1336.1 1546.03 1336.1 1545.28 Q1336.1 1543.77 1335.26 1542.64 Q1334.42 1541.48 1333.07 1540.9 Q1331.72 1540.33 1330.59 1540.07 Q1329.5 1539.78 1328.43 1539.68 Q1325.21 1553.3 1324.76 1554.14 Q1324.47 1554.72 1323.83 1555.11 Q1323.18 1555.53 1322.51 1555.53 Q1321.86 1555.53 1321.22 1555.08 Q1320.61 1554.66 1320.61 1553.66 Q1320.61 1553.14 1320.87 1552.21 L1330.43 1514.21 L1330.62 1512.92 Q1330.62 1512.53 1330.46 1512.34 Q1330.33 1512.11 1329.56 1511.95 Q1328.82 1511.79 1327.34 1511.79 Q1326.73 1511.79 1326.44 1511.76 Q1326.18 1511.73 1325.95 1511.57 Q1325.73 1511.37 1325.73 1510.99 Q1325.73 1510.44 1325.95 1510.15 Q1326.21 1509.83 1326.4 1509.76 Q1326.6 1509.7 1326.98 1509.67 Q1327.53 1509.63 1329.37 1509.47 Q1331.2 1509.28 1332.78 1509.15 Q1334.36 1509.02 1335.04 1509.02 Q1335.42 1509.02 1335.62 1509.21 Q1335.84 1509.38 1335.87 1509.57 L1335.91 1509.73 L1329.05 1537.56 Q1331.88 1536.43 1336.36 1531.44 Q1341.54 1525.64 1345.99 1525.64 Q1348.08 1525.64 1349.27 1526.93 Q1350.46 1528.18 1350.46 1529.79 Z" fill="#000000" fill-rule="evenodd" fill-opacity="1" /><path clip-path="url(#clip720)" d="M1357.21 1573.8 Q1357.21 1572.96 1357.28 1572.71 Q1357.37 1572.47 1357.73 1572.08 L1366.59 1562.21 Q1371.44 1556.75 1371.44 1552 Q1371.44 1548.91 1369.81 1546.7 Q1368.21 1544.49 1365.26 1544.49 Q1363.23 1544.49 1361.52 1545.73 Q1359.8 1546.97 1359.01 1549.18 Q1359.15 1549.13 1359.62 1549.13 Q1360.77 1549.13 1361.4 1549.85 Q1362.06 1550.58 1362.06 1551.55 Q1362.06 1552.79 1361.25 1553.39 Q1360.46 1553.98 1359.67 1553.98 Q1359.35 1553.98 1358.92 1553.91 Q1358.52 1553.85 1357.86 1553.21 Q1357.21 1552.56 1357.21 1551.41 Q1357.21 1548.19 1359.64 1545.62 Q1362.1 1543.05 1365.84 1543.05 Q1370.08 1543.05 1372.86 1545.57 Q1375.65 1548.07 1375.65 1552 Q1375.65 1553.37 1375.22 1554.63 Q1374.82 1555.87 1374.25 1556.84 Q1373.71 1557.81 1372.22 1559.37 Q1370.74 1560.92 1369.54 1562.03 Q1368.35 1563.13 1365.66 1565.48 L1360.77 1570.23 L1369.09 1570.23 Q1373.15 1570.23 1373.46 1569.87 Q1373.92 1569.22 1374.48 1565.77 L1375.65 1565.77 L1374.34 1573.8 L1357.21 1573.8 Z" fill="#000000" fill-rule="evenodd" fill-opacity="1" /><path clip-path="url(#clip720)" d="M1387.73 1510.99 Q1387.73 1509.34 1388.73 1508.67 Q1389.73 1507.96 1390.79 1507.96 Q1392.11 1507.96 1392.95 1508.76 Q1393.82 1509.54 1393.82 1510.99 Q1393.82 1511.63 1393.76 1511.98 L1391.57 1531.89 L1390.05 1531.89 L1387.8 1511.98 Q1387.73 1511.63 1387.73 1510.99 Z" fill="#000000" fill-rule="evenodd" fill-opacity="1" /><polyline clip-path="url(#clip723)" style="stroke:#000000; stroke-linecap:butt; stroke-linejoin:round; stroke-width:2; stroke-opacity:0.1; fill:none" points="
  373.736,1411.73 2352.76,1411.73 
  "/>
<polyline clip-path="url(#clip723)" style="stroke:#000000; stroke-linecap:butt; stroke-linejoin:round; stroke-width:2; stroke-opacity:0.1; fill:none" points="
  373.736,1062.28 2352.76,1062.28 
  "/>
<polyline clip-path="url(#clip723)" style="stroke:#000000; stroke-linecap:butt; stroke-linejoin:round; stroke-width:2; stroke-opacity:0.1; fill:none" points="
  373.736,712.834 2352.76,712.834 
  "/>
<polyline clip-path="url(#clip723)" style="stroke:#000000; stroke-linecap:butt; stroke-linejoin:round; stroke-width:2; stroke-opacity:0.1; fill:none" points="
  373.736,363.387 2352.76,363.387 
  "/>
<polyline clip-path="url(#clip720)" style="stroke:#000000; stroke-linecap:butt; stroke-linejoin:round; stroke-width:4; stroke-opacity:1; fill:none" points="
  373.736,1427.11 373.736,47.2441 
  "/>
<polyline clip-path="url(#clip720)" style="stroke:#000000; stroke-linecap:butt; stroke-linejoin:round; stroke-width:4; stroke-opacity:1; fill:none" points="
  373.736,1411.73 392.634,1411.73 
  "/>
<polyline clip-path="url(#clip720)" style="stroke:#000000; stroke-linecap:butt; stroke-linejoin:round; stroke-width:4; stroke-opacity:1; fill:none" points="
  373.736,1062.28 392.634,1062.28 
  "/>
<polyline clip-path="url(#clip720)" style="stroke:#000000; stroke-linecap:butt; stroke-linejoin:round; stroke-width:4; stroke-opacity:1; fill:none" points="
  373.736,712.834 392.634,712.834 
  "/>
<polyline clip-path="url(#clip720)" style="stroke:#000000; stroke-linecap:butt; stroke-linejoin:round; stroke-width:4; stroke-opacity:1; fill:none" points="
  373.736,363.387 392.634,363.387 
  "/>
<path clip-path="url(#clip720)" d="M325.791 1397.53 Q322.18 1397.53 320.352 1401.09 Q318.546 1404.64 318.546 1411.76 Q318.546 1418.87 320.352 1422.44 Q322.18 1425.98 325.791 1425.98 Q329.426 1425.98 331.231 1422.44 Q333.06 1418.87 333.06 1411.76 Q333.06 1404.64 331.231 1401.09 Q329.426 1397.53 325.791 1397.53 M325.791 1393.83 Q331.602 1393.83 334.657 1398.43 Q337.736 1403.01 337.736 1411.76 Q337.736 1420.49 334.657 1425.1 Q331.602 1429.68 325.791 1429.68 Q319.981 1429.68 316.903 1425.1 Q313.847 1420.49 313.847 1411.76 Q313.847 1403.01 316.903 1398.43 Q319.981 1393.83 325.791 1393.83 Z" fill="#000000" fill-rule="evenodd" fill-opacity="1" /><path clip-path="url(#clip720)" d="M121.911 1051.45 L140.267 1051.45 L140.267 1055.39 L126.193 1055.39 L126.193 1063.86 Q127.212 1063.51 128.23 1063.35 Q129.249 1063.16 130.267 1063.16 Q136.054 1063.16 139.434 1066.33 Q142.814 1069.51 142.814 1074.92 Q142.814 1080.5 139.341 1083.6 Q135.869 1086.68 129.55 1086.68 Q127.374 1086.68 125.105 1086.31 Q122.86 1085.94 120.453 1085.2 L120.453 1080.5 Q122.536 1081.63 124.758 1082.19 Q126.98 1082.75 129.457 1082.75 Q133.462 1082.75 135.8 1080.64 Q138.138 1078.53 138.138 1074.92 Q138.138 1071.31 135.8 1069.2 Q133.462 1067.1 129.457 1067.1 Q127.582 1067.1 125.707 1067.51 Q123.855 1067.93 121.911 1068.81 L121.911 1051.45 Z" fill="#000000" fill-rule="evenodd" fill-opacity="1" /><path clip-path="url(#clip720)" d="M152.027 1080.13 L156.911 1080.13 L156.911 1086.01 L152.027 1086.01 L152.027 1080.13 Z" fill="#000000" fill-rule="evenodd" fill-opacity="1" /><path clip-path="url(#clip720)" d="M177.096 1054.53 Q173.485 1054.53 171.656 1058.09 Q169.85 1061.64 169.85 1068.76 Q169.85 1075.87 171.656 1079.44 Q173.485 1082.98 177.096 1082.98 Q180.73 1082.98 182.536 1079.44 Q184.364 1075.87 184.364 1068.76 Q184.364 1061.64 182.536 1058.09 Q180.73 1054.53 177.096 1054.53 M177.096 1050.82 Q182.906 1050.82 185.962 1055.43 Q189.04 1060.01 189.04 1068.76 Q189.04 1077.49 185.962 1082.1 Q182.906 1086.68 177.096 1086.68 Q171.286 1086.68 168.207 1082.1 Q165.151 1077.49 165.151 1068.76 Q165.151 1060.01 168.207 1055.43 Q171.286 1050.82 177.096 1050.82 Z" fill="#000000" fill-rule="evenodd" fill-opacity="1" /><path clip-path="url(#clip720)" d="M207.258 1054.53 Q203.647 1054.53 201.818 1058.09 Q200.012 1061.64 200.012 1068.76 Q200.012 1075.87 201.818 1079.44 Q203.647 1082.98 207.258 1082.98 Q210.892 1082.98 212.697 1079.44 Q214.526 1075.87 214.526 1068.76 Q214.526 1061.64 212.697 1058.09 Q210.892 1054.53 207.258 1054.53 M207.258 1050.82 Q213.068 1050.82 216.123 1055.43 Q219.202 1060.01 219.202 1068.76 Q219.202 1077.49 216.123 1082.1 Q213.068 1086.68 207.258 1086.68 Q201.448 1086.68 198.369 1082.1 Q195.313 1077.49 195.313 1068.76 Q195.313 1060.01 198.369 1055.43 Q201.448 1050.82 207.258 1050.82 Z" fill="#000000" fill-rule="evenodd" fill-opacity="1" /><path clip-path="url(#clip720)" d="M255.591 1060.55 L245.012 1071.17 L255.591 1081.75 L252.836 1084.55 L242.211 1073.93 L231.586 1084.55 L228.855 1081.75 L239.41 1071.17 L228.855 1060.55 L231.586 1057.75 L242.211 1068.37 L252.836 1057.75 L255.591 1060.55 Z" fill="#000000" fill-rule="evenodd" fill-opacity="1" /><path clip-path="url(#clip720)" d="M267.952 1082.07 L275.591 1082.07 L275.591 1055.71 L267.281 1057.38 L267.281 1053.12 L275.544 1051.45 L280.22 1051.45 L280.22 1082.07 L287.859 1082.07 L287.859 1086.01 L267.952 1086.01 L267.952 1082.07 Z" fill="#000000" fill-rule="evenodd" fill-opacity="1" /><path clip-path="url(#clip720)" d="M307.303 1054.53 Q303.692 1054.53 301.864 1058.09 Q300.058 1061.64 300.058 1068.76 Q300.058 1075.87 301.864 1079.44 Q303.692 1082.98 307.303 1082.98 Q310.938 1082.98 312.743 1079.44 Q314.572 1075.87 314.572 1068.76 Q314.572 1061.64 312.743 1058.09 Q310.938 1054.53 307.303 1054.53 M307.303 1050.82 Q313.114 1050.82 316.169 1055.43 Q319.248 1060.01 319.248 1068.76 Q319.248 1077.49 316.169 1082.1 Q313.114 1086.68 307.303 1086.68 Q301.493 1086.68 298.415 1082.1 Q295.359 1077.49 295.359 1068.76 Q295.359 1060.01 298.415 1055.43 Q301.493 1050.82 307.303 1050.82 Z" fill="#000000" fill-rule="evenodd" fill-opacity="1" /><path clip-path="url(#clip720)" d="M331.943 1043.46 Q334.67 1044.04 336.194 1045.89 Q337.736 1047.73 337.736 1050.44 Q337.736 1054.59 334.877 1056.87 Q332.018 1059.14 326.752 1059.14 Q324.984 1059.14 323.103 1058.79 Q321.241 1058.45 319.248 1057.75 L319.248 1054.09 Q320.828 1055.01 322.708 1055.48 Q324.589 1055.95 326.639 1055.95 Q330.213 1055.95 332.075 1054.54 Q333.956 1053.13 333.956 1050.44 Q333.956 1047.95 332.206 1046.56 Q330.476 1045.15 327.373 1045.15 L324.1 1045.15 L324.1 1042.03 L327.523 1042.03 Q330.326 1042.03 331.811 1040.92 Q333.297 1039.79 333.297 1037.69 Q333.297 1035.52 331.755 1034.38 Q330.232 1033.21 327.373 1033.21 Q325.812 1033.21 324.025 1033.55 Q322.238 1033.89 320.094 1034.6 L320.094 1031.22 Q322.257 1030.61 324.138 1030.31 Q326.037 1030.01 327.711 1030.01 Q332.037 1030.01 334.557 1031.99 Q337.078 1033.94 337.078 1037.29 Q337.078 1039.62 335.742 1041.24 Q334.407 1042.84 331.943 1043.46 Z" fill="#000000" fill-rule="evenodd" fill-opacity="1" /><path clip-path="url(#clip720)" d="M120.7 732.627 L128.339 732.627 L128.339 706.261 L120.029 707.928 L120.029 703.669 L128.293 702.002 L132.968 702.002 L132.968 732.627 L140.607 732.627 L140.607 736.562 L120.7 736.562 L120.7 732.627 Z" fill="#000000" fill-rule="evenodd" fill-opacity="1" /><path clip-path="url(#clip720)" d="M150.052 730.682 L154.936 730.682 L154.936 736.562 L150.052 736.562 L150.052 730.682 Z" fill="#000000" fill-rule="evenodd" fill-opacity="1" /><path clip-path="url(#clip720)" d="M175.121 705.081 Q171.51 705.081 169.681 708.646 Q167.876 712.187 167.876 719.317 Q167.876 726.423 169.681 729.988 Q171.51 733.53 175.121 733.53 Q178.755 733.53 180.561 729.988 Q182.389 726.423 182.389 719.317 Q182.389 712.187 180.561 708.646 Q178.755 705.081 175.121 705.081 M175.121 701.377 Q180.931 701.377 183.987 705.983 Q187.065 710.567 187.065 719.317 Q187.065 728.044 183.987 732.65 Q180.931 737.233 175.121 737.233 Q169.311 737.233 166.232 732.65 Q163.177 728.044 163.177 719.317 Q163.177 710.567 166.232 705.983 Q169.311 701.377 175.121 701.377 Z" fill="#000000" fill-rule="evenodd" fill-opacity="1" /><path clip-path="url(#clip720)" d="M205.283 705.081 Q201.672 705.081 199.843 708.646 Q198.038 712.187 198.038 719.317 Q198.038 726.423 199.843 729.988 Q201.672 733.53 205.283 733.53 Q208.917 733.53 210.723 729.988 Q212.551 726.423 212.551 719.317 Q212.551 712.187 210.723 708.646 Q208.917 705.081 205.283 705.081 M205.283 701.377 Q211.093 701.377 214.149 705.983 Q217.227 710.567 217.227 719.317 Q217.227 728.044 214.149 732.65 Q211.093 737.233 205.283 737.233 Q199.473 737.233 196.394 732.65 Q193.338 728.044 193.338 719.317 Q193.338 710.567 196.394 705.983 Q199.473 701.377 205.283 701.377 Z" fill="#000000" fill-rule="evenodd" fill-opacity="1" /><path clip-path="url(#clip720)" d="M253.616 711.099 L243.037 721.724 L253.616 732.303 L250.861 735.104 L240.236 724.479 L229.611 735.104 L226.88 732.303 L237.435 721.724 L226.88 711.099 L229.611 708.298 L240.236 718.923 L250.861 708.298 L253.616 711.099 Z" fill="#000000" fill-rule="evenodd" fill-opacity="1" /><path clip-path="url(#clip720)" d="M265.977 732.627 L273.616 732.627 L273.616 706.261 L265.306 707.928 L265.306 703.669 L273.57 702.002 L278.245 702.002 L278.245 732.627 L285.884 732.627 L285.884 736.562 L265.977 736.562 L265.977 732.627 Z" fill="#000000" fill-rule="evenodd" fill-opacity="1" /><path clip-path="url(#clip720)" d="M305.329 705.081 Q301.718 705.081 299.889 708.646 Q298.083 712.187 298.083 719.317 Q298.083 726.423 299.889 729.988 Q301.718 733.53 305.329 733.53 Q308.963 733.53 310.768 729.988 Q312.597 726.423 312.597 719.317 Q312.597 712.187 310.768 708.646 Q308.963 705.081 305.329 705.081 M305.329 701.377 Q311.139 701.377 314.194 705.983 Q317.273 710.567 317.273 719.317 Q317.273 728.044 314.194 732.65 Q311.139 737.233 305.329 737.233 Q299.518 737.233 296.44 732.65 Q293.384 728.044 293.384 719.317 Q293.384 710.567 296.44 705.983 Q299.518 701.377 305.329 701.377 Z" fill="#000000" fill-rule="evenodd" fill-opacity="1" /><path clip-path="url(#clip720)" d="M329.949 684.382 L320.357 699.372 L329.949 699.372 L329.949 684.382 M328.953 681.072 L333.73 681.072 L333.73 699.372 L337.736 699.372 L337.736 702.531 L333.73 702.531 L333.73 709.152 L329.949 709.152 L329.949 702.531 L317.273 702.531 L317.273 698.864 L328.953 681.072 Z" fill="#000000" fill-rule="evenodd" fill-opacity="1" /><path clip-path="url(#clip720)" d="M120.7 383.179 L128.339 383.179 L128.339 356.813 L120.029 358.48 L120.029 354.221 L128.293 352.554 L132.968 352.554 L132.968 383.179 L140.607 383.179 L140.607 387.114 L120.7 387.114 L120.7 383.179 Z" fill="#000000" fill-rule="evenodd" fill-opacity="1" /><path clip-path="url(#clip720)" d="M150.052 381.235 L154.936 381.235 L154.936 387.114 L150.052 387.114 L150.052 381.235 Z" fill="#000000" fill-rule="evenodd" fill-opacity="1" /><path clip-path="url(#clip720)" d="M165.167 352.554 L183.524 352.554 L183.524 356.489 L169.45 356.489 L169.45 364.961 Q170.468 364.614 171.487 364.452 Q172.505 364.267 173.524 364.267 Q179.311 364.267 182.69 367.438 Q186.07 370.61 186.07 376.026 Q186.07 381.605 182.598 384.707 Q179.126 387.785 172.806 387.785 Q170.63 387.785 168.362 387.415 Q166.116 387.045 163.709 386.304 L163.709 381.605 Q165.792 382.739 168.015 383.295 Q170.237 383.85 172.714 383.85 Q176.718 383.85 179.056 381.744 Q181.394 379.637 181.394 376.026 Q181.394 372.415 179.056 370.309 Q176.718 368.202 172.714 368.202 Q170.839 368.202 168.964 368.619 Q167.112 369.036 165.167 369.915 L165.167 352.554 Z" fill="#000000" fill-rule="evenodd" fill-opacity="1" /><path clip-path="url(#clip720)" d="M205.283 355.633 Q201.672 355.633 199.843 359.198 Q198.038 362.739 198.038 369.869 Q198.038 376.975 199.843 380.54 Q201.672 384.082 205.283 384.082 Q208.917 384.082 210.723 380.54 Q212.551 376.975 212.551 369.869 Q212.551 362.739 210.723 359.198 Q208.917 355.633 205.283 355.633 M205.283 351.929 Q211.093 351.929 214.149 356.536 Q217.227 361.119 217.227 369.869 Q217.227 378.596 214.149 383.202 Q211.093 387.785 205.283 387.785 Q199.473 387.785 196.394 383.202 Q193.338 378.596 193.338 369.869 Q193.338 361.119 196.394 356.536 Q199.473 351.929 205.283 351.929 Z" fill="#000000" fill-rule="evenodd" fill-opacity="1" /><path clip-path="url(#clip720)" d="M253.616 361.651 L243.037 372.276 L253.616 382.855 L250.861 385.656 L240.236 375.031 L229.611 385.656 L226.88 382.855 L237.435 372.276 L226.88 361.651 L229.611 358.85 L240.236 369.475 L250.861 358.85 L253.616 361.651 Z" fill="#000000" fill-rule="evenodd" fill-opacity="1" /><path clip-path="url(#clip720)" d="M265.977 383.179 L273.616 383.179 L273.616 356.813 L265.306 358.48 L265.306 354.221 L273.57 352.554 L278.245 352.554 L278.245 383.179 L285.884 383.179 L285.884 387.114 L265.977 387.114 L265.977 383.179 Z" fill="#000000" fill-rule="evenodd" fill-opacity="1" /><path clip-path="url(#clip720)" d="M305.329 355.633 Q301.718 355.633 299.889 359.198 Q298.083 362.739 298.083 369.869 Q298.083 376.975 299.889 380.54 Q301.718 384.082 305.329 384.082 Q308.963 384.082 310.768 380.54 Q312.597 376.975 312.597 369.869 Q312.597 362.739 310.768 359.198 Q308.963 355.633 305.329 355.633 M305.329 351.929 Q311.139 351.929 314.194 356.536 Q317.273 361.119 317.273 369.869 Q317.273 378.596 314.194 383.202 Q311.139 387.785 305.329 387.785 Q299.518 387.785 296.44 383.202 Q293.384 378.596 293.384 369.869 Q293.384 361.119 296.44 356.536 Q299.518 351.929 305.329 351.929 Z" fill="#000000" fill-rule="evenodd" fill-opacity="1" /><path clip-path="url(#clip720)" d="M329.949 334.934 L320.357 349.924 L329.949 349.924 L329.949 334.934 M328.953 331.624 L333.73 331.624 L333.73 349.924 L337.736 349.924 L337.736 353.083 L333.73 353.083 L333.73 359.704 L329.949 359.704 L329.949 353.083 L317.273 353.083 L317.273 349.416 L328.953 331.624 Z" fill="#000000" fill-rule="evenodd" fill-opacity="1" /><path clip-path="url(#clip720)" d="M36.5483 812.845 Q37.3857 812.845 39.0282 813.07 Q40.6707 813.296 43.0539 813.843 Q45.4371 814.391 47.9492 815.196 Q50.4612 815.969 52.9733 817.192 Q55.4531 818.416 57.4177 819.866 Q59.3823 821.315 60.6061 823.344 Q61.8299 825.373 61.8299 827.659 Q61.8299 828.722 61.6689 829.753 Q61.5078 830.783 60.9926 832.072 Q60.4773 833.36 59.6399 834.294 Q58.7703 835.228 57.2245 835.872 Q55.6786 836.516 53.6496 836.516 Q51.5562 836.516 48.7543 835.743 Q45.9202 834.938 40.1232 832.748 Q37.128 831.621 35.4855 831.621 Q34.7448 831.621 34.2939 831.782 Q33.8108 831.943 33.6498 832.265 Q33.4565 832.587 33.4243 832.78 Q33.3921 832.941 33.3921 833.263 Q33.3921 835.034 35.2279 836.838 Q37.0636 838.642 41.5724 839.93 Q42.3776 840.187 42.5708 840.348 Q42.764 840.509 42.764 840.993 Q42.7318 841.798 42.0877 841.798 Q41.8945 841.798 41.1537 841.572 Q40.3808 841.347 39.2214 840.928 Q38.0298 840.509 36.8059 839.769 Q35.5499 839.028 34.4549 838.126 Q33.3599 837.192 32.6514 835.872 Q31.9429 834.551 31.9429 833.07 Q31.9429 830.654 33.521 829.173 Q35.0668 827.659 37.3534 827.659 Q38.6095 827.659 40.6384 828.464 Q44.3099 829.817 46.0812 830.429 Q47.8526 831.041 50.3646 831.685 Q52.8767 832.297 54.6158 832.297 Q57.2567 832.297 58.8026 831.073 Q60.3484 829.849 60.3484 827.402 Q60.3484 825.212 58.7703 823.247 Q57.1601 821.25 54.8734 819.93 Q52.5546 818.61 49.9781 817.611 Q47.3695 816.613 45.4049 816.162 Q43.4082 815.679 42.4742 815.679 Q39.2214 815.679 37.0958 817.901 Q36.4839 818.513 36.0974 818.738 Q35.7109 818.964 35.099 818.964 Q33.9718 818.964 32.9735 817.965 Q31.9429 816.935 31.9429 815.743 Q31.9429 814.648 33.0379 813.746 Q34.1329 812.845 36.5483 812.845 Z" fill="#000000" fill-rule="evenodd" fill-opacity="1" /><path clip-path="url(#clip720)" d="M51.6529 780.288 Q55.8074 781.158 58.1906 782.285 Q61.8299 784.089 61.8299 787.148 Q61.8299 789.467 60.4128 791.11 Q58.9958 792.752 56.8702 793.139 Q61.8299 797.358 61.8299 801.738 Q61.8299 805.602 58.8992 808.05 Q55.9362 810.498 51.2664 810.498 Q46.5643 810.498 42.0555 808.179 Q37.5467 805.828 34.7448 802.124 Q31.9429 798.42 31.9429 794.62 Q31.9429 790.594 36.1618 788.533 Q35.0024 788.372 34.1329 787.631 Q33.2633 786.891 33.2633 785.763 Q33.2633 784.894 33.7464 784.379 Q34.1973 783.863 35.0346 783.863 Q35.4533 783.863 37.289 784.314 L46.4999 786.697 L52.458 788.147 Q54.648 788.694 55.4531 788.855 Q56.2583 788.984 57.3211 788.984 Q60.3484 788.984 60.3484 787.019 Q60.3484 786.053 59.7365 785.28 Q59.1246 784.507 57.8364 783.895 Q56.5481 783.284 55.3565 782.897 Q54.1327 782.511 52.2004 781.995 Q51.4274 781.834 51.2342 781.705 Q51.0087 781.544 51.0087 781.094 Q51.0087 780.288 51.6529 780.288 M39.1892 789.338 Q38.8993 789.338 38.0942 789.564 Q37.289 789.789 36.1618 790.304 Q35.0346 790.82 34.2295 791.947 Q33.3921 793.042 33.3921 794.523 Q33.3921 796.52 35.099 798.614 Q36.8059 800.675 39.7045 802.188 Q42.0233 803.348 46.8864 804.604 Q51.7495 805.828 54.1649 805.828 Q55.6464 805.828 56.9668 805.506 Q58.2551 805.151 59.3178 804.153 Q60.3484 803.155 60.3484 801.609 Q60.3484 797.841 55.6786 794.137 Q54.8734 793.428 54.5514 793.267 Q54.1971 793.074 53.2309 792.817 L40.3164 789.532 Q39.3502 789.338 39.1892 789.338 Z" fill="#000000" fill-rule="evenodd" fill-opacity="1" /><path clip-path="url(#clip720)" d="M36.2262 749.092 Q37.9332 749.092 39.0282 750.219 Q40.1232 751.314 40.1232 752.731 Q40.1232 753.955 39.4146 754.599 Q38.7061 755.243 37.8043 755.243 Q36.5161 755.243 35.4533 754.245 Q34.3905 753.246 34.1651 751.797 Q33.3921 752.86 33.3921 754.567 Q33.3921 757.369 35.5499 759.849 Q36.5483 760.944 38.384 762.135 Q40.1876 763.327 40.9605 763.552 L49.5595 765.646 Q50.5256 765.839 55.1633 767.03 Q59.7687 768.19 59.962 768.286 Q60.8637 768.609 61.3468 769.317 Q61.8299 770.026 61.8299 770.734 Q61.8299 771.539 61.3468 772.087 Q60.8637 772.634 60.0264 772.634 Q59.8976 772.634 59.4145 772.538 Q58.9314 772.441 58.2551 772.28 Q57.5787 772.119 57.1923 772.055 L41.9589 768.222 Q39.1892 767.514 38.3196 767.352 Q37.4179 767.159 36.4195 767.159 Q34.6804 767.159 34.0362 767.707 Q33.3921 768.254 33.3921 769.22 Q33.3921 770.895 35.3889 771.99 Q37.3857 773.085 41.2504 774.019 Q42.3132 774.309 42.5386 774.502 Q42.764 774.663 42.764 775.146 Q42.7318 775.951 42.0877 775.951 Q41.9267 775.951 40.8961 775.694 Q39.8333 775.436 38.2874 774.953 Q36.7093 774.438 35.7109 773.89 Q35.0346 773.568 34.5837 773.278 Q34.1329 772.989 33.4243 772.409 Q32.7158 771.829 32.3293 770.96 Q31.9429 770.09 31.9429 769.027 Q31.9429 766.708 33.3599 765.066 Q34.777 763.391 36.9992 763.005 Q35.8398 762.2 34.8414 761.201 Q33.8108 760.203 32.8768 758.367 Q31.9429 756.531 31.9429 754.567 Q31.9429 752.119 33.1989 750.605 Q34.4227 749.092 36.2262 749.092 Z" fill="#000000" fill-rule="evenodd" fill-opacity="1" /><path clip-path="url(#clip720)" d="M44.5998 746.509 Q33.4565 746.509 24.4711 742.355 Q20.703 740.583 17.5468 738.103 Q14.3907 735.624 13.0058 733.981 Q11.621 732.339 11.621 731.888 Q11.621 731.244 12.2651 731.211 Q12.5871 731.211 13.3923 732.081 Q24.2135 742.709 44.5998 742.677 Q65.0505 742.677 75.453 732.339 Q76.5802 731.211 76.9345 731.211 Q77.5786 731.211 77.5786 731.888 Q77.5786 732.339 76.2581 733.917 Q74.9377 735.495 71.9103 737.942 Q68.883 740.39 65.1793 742.161 Q56.1939 746.509 44.5998 746.509 Z" fill="#000000" fill-rule="evenodd" fill-opacity="1" /><path clip-path="url(#clip720)" d="M42.4742 686.721 Q47.1762 686.721 51.7173 689.105 Q56.2583 691.456 59.0602 695.159 Q61.8299 698.863 61.8299 702.631 Q61.8299 704.886 60.6061 706.399 Q59.3501 707.881 57.5787 708.686 Q59.7687 709.298 65.0183 710.618 Q70.2678 711.939 70.7831 711.939 Q71.073 711.939 71.2018 711.874 Q71.3306 711.81 71.4917 711.52 Q71.6849 711.23 71.7493 710.522 Q71.8459 709.813 71.8459 708.621 Q71.8459 708.01 71.8459 707.784 Q71.8781 707.526 72.0392 707.301 Q72.2002 707.043 72.5545 707.043 Q73.8749 707.043 73.8749 708.235 Q73.8749 709.298 73.7783 711.488 Q73.6817 713.678 73.6817 714.773 Q73.6817 715.707 73.7783 717.575 Q73.8749 719.443 73.8749 720.312 Q73.8749 721.182 73.102 721.182 Q72.6511 721.182 72.3612 721.053 Q72.1036 720.956 71.9747 720.699 Q71.8781 720.441 71.8459 720.216 Q71.8459 720.022 71.8459 719.636 Q71.8459 718.154 71.5883 717.51 Q71.3628 716.866 70.8797 716.641 Q70.4289 716.383 69.1406 716.093 L39.7689 708.686 Q37.8043 708.235 36.4195 708.235 Q34.6804 708.235 34.0362 708.782 Q33.3921 709.33 33.3921 710.296 Q33.3921 711.971 35.3889 713.066 Q37.3857 714.161 41.2504 715.095 Q42.3132 715.385 42.5386 715.578 Q42.764 715.739 42.764 716.222 Q42.7318 717.027 42.0877 717.027 Q41.9267 717.027 40.8961 716.77 Q39.8333 716.512 38.2874 716.029 Q36.7093 715.514 35.7109 714.966 Q35.0346 714.644 34.5837 714.354 Q34.1329 714.064 33.4243 713.485 Q32.7158 712.873 32.3293 712.003 Q31.9429 711.134 31.9429 710.071 Q31.9429 708.01 33.1667 706.303 Q34.3905 704.596 36.8704 704.145 Q34.7126 702.309 33.3277 700.055 Q31.9429 697.8 31.9429 695.514 Q31.9429 691.713 34.9058 689.234 Q37.8365 686.721 42.4742 686.721 M39.5757 691.488 Q36.6449 691.488 35.0346 692.615 Q33.3921 693.71 33.3921 695.707 Q33.3921 698.187 35.9042 701.053 Q38.2874 703.887 40.5096 704.467 L53.4242 707.72 L54.487 707.913 Q54.6802 707.913 55.2599 707.816 Q55.8074 707.687 56.7092 707.333 Q57.6109 706.947 58.4161 706.431 Q59.189 705.884 59.7687 704.918 Q60.3484 703.919 60.3484 702.696 Q60.3484 700.731 58.6093 698.605 Q56.8702 696.448 53.5852 694.837 Q51.4596 693.839 46.8864 692.68 Q42.2809 691.488 39.5757 691.488 Z" fill="#000000" fill-rule="evenodd" fill-opacity="1" /><path clip-path="url(#clip720)" d="M65.6679 680.017 L64.2251 680.017 Q64.2251 674.471 61.2718 671.608 Q61.2718 670.819 61.4522 670.683 Q61.6325 670.548 62.4667 670.548 L88.3698 670.548 Q89.745 670.548 90.1734 669.872 Q90.6017 669.196 90.6017 666.242 L90.6017 664.777 L92.022 664.777 Q91.8867 666.4 91.8867 672.262 Q91.8867 678.123 92.022 679.724 L90.6017 679.724 L90.6017 678.258 Q90.6017 675.35 90.1959 674.651 Q89.7676 673.952 88.3698 673.952 L64.4505 673.952 Q65.6679 676.365 65.6679 680.017 Z" fill="#000000" fill-rule="evenodd" fill-opacity="1" /><path clip-path="url(#clip720)" d="M76.9345 657.883 Q76.6124 657.883 75.8072 657.046 Q64.9861 646.418 44.5998 646.418 Q24.149 646.418 13.811 656.627 Q12.6193 657.883 12.2651 657.883 Q11.621 657.883 11.621 657.239 Q11.621 656.788 12.9414 655.21 Q14.2618 653.6 17.2892 651.184 Q20.3165 648.737 24.0202 646.933 Q33.0057 642.585 44.5998 642.585 Q55.743 642.585 64.7284 646.74 Q68.4965 648.511 71.6527 650.991 Q74.8089 653.471 76.1937 655.113 Q77.5786 656.756 77.5786 657.239 Q77.5786 657.883 76.9345 657.883 Z" fill="#000000" fill-rule="evenodd" fill-opacity="1" /><circle clip-path="url(#clip723)" cx="616.446" cy="90.6083" r="14" fill="#009af9" fill-rule="evenodd" fill-opacity="1" stroke="#000000" stroke-opacity="1" stroke-width="3.2"/>
<circle clip-path="url(#clip723)" cx="803.146" cy="177.883" r="14" fill="#009af9" fill-rule="evenodd" fill-opacity="1" stroke="#000000" stroke-opacity="1" stroke-width="3.2"/>
<circle clip-path="url(#clip723)" cx="989.846" cy="123.395" r="14" fill="#009af9" fill-rule="evenodd" fill-opacity="1" stroke="#000000" stroke-opacity="1" stroke-width="3.2"/>
<circle clip-path="url(#clip723)" cx="1176.55" cy="158.688" r="14" fill="#009af9" fill-rule="evenodd" fill-opacity="1" stroke="#000000" stroke-opacity="1" stroke-width="3.2"/>
<circle clip-path="url(#clip723)" cx="1363.25" cy="242.375" r="14" fill="#009af9" fill-rule="evenodd" fill-opacity="1" stroke="#000000" stroke-opacity="1" stroke-width="3.2"/>
<circle clip-path="url(#clip723)" cx="1549.95" cy="315.315" r="14" fill="#009af9" fill-rule="evenodd" fill-opacity="1" stroke="#000000" stroke-opacity="1" stroke-width="3.2"/>
<circle clip-path="url(#clip723)" cx="1736.65" cy="86.2969" r="14" fill="#009af9" fill-rule="evenodd" fill-opacity="1" stroke="#000000" stroke-opacity="1" stroke-width="3.2"/>
<circle clip-path="url(#clip723)" cx="1923.35" cy="278.42" r="14" fill="#009af9" fill-rule="evenodd" fill-opacity="1" stroke="#000000" stroke-opacity="1" stroke-width="3.2"/>
<circle clip-path="url(#clip723)" cx="2110.05" cy="363.599" r="14" fill="#009af9" fill-rule="evenodd" fill-opacity="1" stroke="#000000" stroke-opacity="1" stroke-width="3.2"/>
<circle clip-path="url(#clip723)" cx="2296.75" cy="324.187" r="14" fill="#009af9" fill-rule="evenodd" fill-opacity="1" stroke="#000000" stroke-opacity="1" stroke-width="3.2"/>
<polyline clip-path="url(#clip723)" style="stroke:#e26f46; stroke-linecap:butt; stroke-linejoin:round; stroke-width:12; stroke-opacity:1; fill:none" points="
  429.746,1388.06 448.416,1388.02 467.086,1388.01 485.756,1388.01 504.426,1388 523.096,1388 541.766,1388 560.436,1388 579.106,1388 597.776,1388 
  616.446,1388 635.116,1388 653.786,1388 672.456,1388 691.126,1388 709.796,1388 728.466,1388 747.136,1388 765.806,1388 784.476,1388 
  803.146,1388 821.816,1388 840.486,1388 859.156,1388 877.826,1388 896.496,1388 915.166,1388 933.836,1388 952.506,1388 971.176,1388 
  989.846,1388 1008.52,1388 1027.19,1388 1045.86,1388 1064.53,1388 1083.2,1388 1101.87,1388 1120.54,1388 1139.21,1388 1157.88,1388 
  1176.55,1388 1195.22,1388 1213.89,1388 1232.56,1388 1251.23,1388 1269.9,1388 1288.57,1388 1307.24,1388 1325.91,1388 1344.58,1388 
  1363.25,1388 1381.92,1388 1400.59,1388 1419.26,1388 1437.93,1388 1456.6,1388 1475.27,1388 1493.94,1388 1512.61,1388 1531.28,1388 
  1549.95,1388 1568.62,1388 1587.29,1388 1605.96,1388 1624.63,1388 1643.3,1388 1661.97,1388 1680.64,1388 1699.31,1388 1717.98,1388 
  1736.65,1388 1755.32,1388 1773.99,1388 1792.66,1388 1811.33,1388 1830,1388 1848.67,1388 1867.34,1388 1886.01,1388 1904.68,1388 
  1923.35,1388 1942.02,1388 1960.69,1388 1979.36,1388 1998.03,1388 2016.7,1388 2035.37,1388 2054.04,1388 2072.71,1388 2091.38,1388 
  2110.05,1388 2128.72,1388 2147.39,1388 2166.06,1388 2184.73,1388 2203.4,1388 2222.07,1388 2240.74,1388 2259.41,1388 2278.08,1388 
  2296.75,1388 
  "/>
</svg>
