<?xml version="1.0" encoding="utf-8"?>
<svg xmlns="http://www.w3.org/2000/svg" xmlns:xlink="http://www.w3.org/1999/xlink" width="600" height="400" viewBox="0 0 2400 1600">
<defs>
  <clipPath id="clip800">
    <rect x="0" y="0" width="2400" height="1600"/>
  </clipPath>
</defs>
<path clip-path="url(#clip800)" d="
M0 1600 L2400 1600 L2400 0 L0 0  Z
  " fill="#ffffff" fill-rule="evenodd" fill-opacity="1"/>
<defs>
  <clipPath id="clip801">
    <rect x="480" y="0" width="1681" height="1600"/>
  </clipPath>
</defs>
<defs>
  <clipPath id="clip802">
    <rect x="270" y="47" width="2084" height="1380"/>
  </clipPath>
</defs>
<path clip-path="url(#clip800)" d="
M270.056 1426.9 L2352.76 1426.9 L2352.76 47.2441 L270.056 47.2441  Z
  " fill="#ffffff" fill-rule="evenodd" fill-opacity="1"/>
<defs>
  <clipPath id="clip803">
    <rect x="270" y="47" width="2084" height="1381"/>
  </clipPath>
</defs>
<polyline clip-path="url(#clip803)" style="stroke:#000000; stroke-linecap:butt; stroke-linejoin:round; stroke-width:2; stroke-opacity:0.1; fill:none" points="
  329,1426.9 329,47.2441 
  "/>
<polyline clip-path="url(#clip803)" style="stroke:#000000; stroke-linecap:butt; stroke-linejoin:round; stroke-width:2; stroke-opacity:0.1; fill:none" points="
  820.203,1426.9 820.203,47.2441 
  "/>
<polyline clip-path="url(#clip803)" style="stroke:#000000; stroke-linecap:butt; stroke-linejoin:round; stroke-width:2; stroke-opacity:0.1; fill:none" points="
  1311.41,1426.9 1311.41,47.2441 
  "/>
<polyline clip-path="url(#clip803)" style="stroke:#000000; stroke-linecap:butt; stroke-linejoin:round; stroke-width:2; stroke-opacity:0.1; fill:none" points="
  1802.61,1426.9 1802.61,47.2441 
  "/>
<polyline clip-path="url(#clip803)" style="stroke:#000000; stroke-linecap:butt; stroke-linejoin:round; stroke-width:2; stroke-opacity:0.1; fill:none" points="
  2293.81,1426.9 2293.81,47.2441 
  "/>
<polyline clip-path="url(#clip800)" style="stroke:#000000; stroke-linecap:butt; stroke-linejoin:round; stroke-width:4; stroke-opacity:1; fill:none" points="
  270.056,1426.9 2352.76,1426.9 
  "/>
<polyline clip-path="url(#clip800)" style="stroke:#000000; stroke-linecap:butt; stroke-linejoin:round; stroke-width:4; stroke-opacity:1; fill:none" points="
  329,1426.9 329,1408.01 
  "/>
<polyline clip-path="url(#clip800)" style="stroke:#000000; stroke-linecap:butt; stroke-linejoin:round; stroke-width:4; stroke-opacity:1; fill:none" points="
  820.203,1426.9 820.203,1408.01 
  "/>
<polyline clip-path="url(#clip800)" style="stroke:#000000; stroke-linecap:butt; stroke-linejoin:round; stroke-width:4; stroke-opacity:1; fill:none" points="
  1311.41,1426.9 1311.41,1408.01 
  "/>
<polyline clip-path="url(#clip800)" style="stroke:#000000; stroke-linecap:butt; stroke-linejoin:round; stroke-width:4; stroke-opacity:1; fill:none" points="
  1802.61,1426.9 1802.61,1408.01 
  "/>
<polyline clip-path="url(#clip800)" style="stroke:#000000; stroke-linecap:butt; stroke-linejoin:round; stroke-width:4; stroke-opacity:1; fill:none" points="
  2293.81,1426.9 2293.81,1408.01 
  "/>
<path clip-path="url(#clip800)" d="M291.304 1456.09 Q287.693 1456.09 285.864 1459.66 Q284.058 1463.2 284.058 1470.33 Q284.058 1477.44 285.864 1481 Q287.693 1484.54 291.304 1484.54 Q294.938 1484.54 296.743 1481 Q298.572 1477.44 298.572 1470.33 Q298.572 1463.2 296.743 1459.66 Q294.938 1456.09 291.304 1456.09 M291.304 1452.39 Q297.114 1452.39 300.169 1457 Q303.248 1461.58 303.248 1470.33 Q303.248 1479.06 300.169 1483.66 Q297.114 1488.25 291.304 1488.25 Q285.493 1488.25 282.415 1483.66 Q279.359 1479.06 279.359 1470.33 Q279.359 1461.58 282.415 1457 Q285.493 1452.39 291.304 1452.39 Z" fill="#000000" fill-rule="evenodd" fill-opacity="1" /><path clip-path="url(#clip800)" d="M311.466 1481.7 L316.35 1481.7 L316.35 1487.58 L311.466 1487.58 L311.466 1481.7 Z" fill="#000000" fill-rule="evenodd" fill-opacity="1" /><path clip-path="url(#clip800)" d="M336.535 1456.09 Q332.924 1456.09 331.095 1459.66 Q329.29 1463.2 329.29 1470.33 Q329.29 1477.44 331.095 1481 Q332.924 1484.54 336.535 1484.54 Q340.169 1484.54 341.975 1481 Q343.803 1477.44 343.803 1470.33 Q343.803 1463.2 341.975 1459.66 Q340.169 1456.09 336.535 1456.09 M336.535 1452.39 Q342.345 1452.39 345.401 1457 Q348.479 1461.58 348.479 1470.33 Q348.479 1479.06 345.401 1483.66 Q342.345 1488.25 336.535 1488.25 Q330.725 1488.25 327.646 1483.66 Q324.591 1479.06 324.591 1470.33 Q324.591 1461.58 327.646 1457 Q330.725 1452.39 336.535 1452.39 Z" fill="#000000" fill-rule="evenodd" fill-opacity="1" /><path clip-path="url(#clip800)" d="M366.697 1456.09 Q363.086 1456.09 361.257 1459.66 Q359.451 1463.2 359.451 1470.33 Q359.451 1477.44 361.257 1481 Q363.086 1484.54 366.697 1484.54 Q370.331 1484.54 372.137 1481 Q373.965 1477.44 373.965 1470.33 Q373.965 1463.2 372.137 1459.66 Q370.331 1456.09 366.697 1456.09 M366.697 1452.39 Q372.507 1452.39 375.562 1457 Q378.641 1461.58 378.641 1470.33 Q378.641 1479.06 375.562 1483.66 Q372.507 1488.25 366.697 1488.25 Q360.887 1488.25 357.808 1483.66 Q354.752 1479.06 354.752 1470.33 Q354.752 1461.58 357.808 1457 Q360.887 1452.39 366.697 1452.39 Z" fill="#000000" fill-rule="evenodd" fill-opacity="1" /><path clip-path="url(#clip800)" d="M783.004 1456.09 Q779.393 1456.09 777.564 1459.66 Q775.759 1463.2 775.759 1470.33 Q775.759 1477.44 777.564 1481 Q779.393 1484.54 783.004 1484.54 Q786.638 1484.54 788.444 1481 Q790.273 1477.44 790.273 1470.33 Q790.273 1463.2 788.444 1459.66 Q786.638 1456.09 783.004 1456.09 M783.004 1452.39 Q788.814 1452.39 791.87 1457 Q794.949 1461.58 794.949 1470.33 Q794.949 1479.06 791.87 1483.66 Q788.814 1488.25 783.004 1488.25 Q777.194 1488.25 774.115 1483.66 Q771.06 1479.06 771.06 1470.33 Q771.06 1461.58 774.115 1457 Q777.194 1452.39 783.004 1452.39 Z" fill="#000000" fill-rule="evenodd" fill-opacity="1" /><path clip-path="url(#clip800)" d="M803.166 1481.7 L808.05 1481.7 L808.05 1487.58 L803.166 1487.58 L803.166 1481.7 Z" fill="#000000" fill-rule="evenodd" fill-opacity="1" /><path clip-path="url(#clip800)" d="M822.263 1483.64 L838.583 1483.64 L838.583 1487.58 L816.638 1487.58 L816.638 1483.64 Q819.3 1480.89 823.884 1476.26 Q828.49 1471.6 829.671 1470.26 Q831.916 1467.74 832.796 1466 Q833.698 1464.24 833.698 1462.55 Q833.698 1459.8 831.754 1458.06 Q829.833 1456.33 826.731 1456.33 Q824.532 1456.33 822.078 1457.09 Q819.647 1457.85 816.87 1459.4 L816.87 1454.68 Q819.694 1453.55 822.147 1452.97 Q824.601 1452.39 826.638 1452.39 Q832.009 1452.39 835.203 1455.08 Q838.397 1457.76 838.397 1462.25 Q838.397 1464.38 837.587 1466.3 Q836.8 1468.2 834.694 1470.79 Q834.115 1471.46 831.013 1474.68 Q827.911 1477.88 822.263 1483.64 Z" fill="#000000" fill-rule="evenodd" fill-opacity="1" /><path clip-path="url(#clip800)" d="M848.444 1453.02 L866.8 1453.02 L866.8 1456.95 L852.726 1456.95 L852.726 1465.42 Q853.745 1465.08 854.763 1464.91 Q855.782 1464.73 856.8 1464.73 Q862.587 1464.73 865.967 1467.9 Q869.346 1471.07 869.346 1476.49 Q869.346 1482.07 865.874 1485.17 Q862.402 1488.25 856.082 1488.25 Q853.907 1488.25 851.638 1487.88 Q849.393 1487.51 846.985 1486.77 L846.985 1482.07 Q849.069 1483.2 851.291 1483.76 Q853.513 1484.31 855.99 1484.31 Q859.994 1484.31 862.332 1482.21 Q864.67 1480.1 864.67 1476.49 Q864.67 1472.88 862.332 1470.77 Q859.994 1468.66 855.99 1468.66 Q854.115 1468.66 852.24 1469.08 Q850.388 1469.5 848.444 1470.38 L848.444 1453.02 Z" fill="#000000" fill-rule="evenodd" fill-opacity="1" /><path clip-path="url(#clip800)" d="M1273.71 1456.09 Q1270.1 1456.09 1268.27 1459.66 Q1266.46 1463.2 1266.46 1470.33 Q1266.46 1477.44 1268.27 1481 Q1270.1 1484.54 1273.71 1484.54 Q1277.34 1484.54 1279.15 1481 Q1280.98 1477.44 1280.98 1470.33 Q1280.98 1463.2 1279.15 1459.66 Q1277.34 1456.09 1273.71 1456.09 M1273.71 1452.39 Q1279.52 1452.39 1282.58 1457 Q1285.65 1461.58 1285.65 1470.33 Q1285.65 1479.06 1282.58 1483.66 Q1279.52 1488.25 1273.71 1488.25 Q1267.9 1488.25 1264.82 1483.66 Q1261.76 1479.06 1261.76 1470.33 Q1261.76 1461.58 1264.82 1457 Q1267.9 1452.39 1273.71 1452.39 Z" fill="#000000" fill-rule="evenodd" fill-opacity="1" /><path clip-path="url(#clip800)" d="M1293.87 1481.7 L1298.76 1481.7 L1298.76 1487.58 L1293.87 1487.58 L1293.87 1481.7 Z" fill="#000000" fill-rule="evenodd" fill-opacity="1" /><path clip-path="url(#clip800)" d="M1308.99 1453.02 L1327.34 1453.02 L1327.34 1456.95 L1313.27 1456.95 L1313.27 1465.42 Q1314.29 1465.08 1315.31 1464.91 Q1316.32 1464.73 1317.34 1464.73 Q1323.13 1464.73 1326.51 1467.9 Q1329.89 1471.07 1329.89 1476.49 Q1329.89 1482.07 1326.42 1485.17 Q1322.95 1488.25 1316.63 1488.25 Q1314.45 1488.25 1312.18 1487.88 Q1309.94 1487.51 1307.53 1486.77 L1307.53 1482.07 Q1309.61 1483.2 1311.83 1483.76 Q1314.06 1484.31 1316.53 1484.31 Q1320.54 1484.31 1322.88 1482.21 Q1325.21 1480.1 1325.21 1476.49 Q1325.21 1472.88 1322.88 1470.77 Q1320.54 1468.66 1316.53 1468.66 Q1314.66 1468.66 1312.78 1469.08 Q1310.93 1469.5 1308.99 1470.38 L1308.99 1453.02 Z" fill="#000000" fill-rule="evenodd" fill-opacity="1" /><path clip-path="url(#clip800)" d="M1349.1 1456.09 Q1345.49 1456.09 1343.66 1459.66 Q1341.86 1463.2 1341.86 1470.33 Q1341.86 1477.44 1343.66 1481 Q1345.49 1484.54 1349.1 1484.54 Q1352.74 1484.54 1354.54 1481 Q1356.37 1477.44 1356.37 1470.33 Q1356.37 1463.2 1354.54 1459.66 Q1352.74 1456.09 1349.1 1456.09 M1349.1 1452.39 Q1354.91 1452.39 1357.97 1457 Q1361.05 1461.58 1361.05 1470.33 Q1361.05 1479.06 1357.97 1483.66 Q1354.91 1488.25 1349.1 1488.25 Q1343.29 1488.25 1340.21 1483.66 Q1337.16 1479.06 1337.16 1470.33 Q1337.16 1461.58 1340.21 1457 Q1343.29 1452.39 1349.1 1452.39 Z" fill="#000000" fill-rule="evenodd" fill-opacity="1" /><path clip-path="url(#clip800)" d="M1765.41 1456.09 Q1761.8 1456.09 1759.97 1459.66 Q1758.16 1463.2 1758.16 1470.33 Q1758.16 1477.44 1759.97 1481 Q1761.8 1484.54 1765.41 1484.54 Q1769.04 1484.54 1770.85 1481 Q1772.68 1477.44 1772.68 1470.33 Q1772.68 1463.2 1770.85 1459.66 Q1769.04 1456.09 1765.41 1456.09 M1765.41 1452.39 Q1771.22 1452.39 1774.28 1457 Q1777.35 1461.58 1777.35 1470.33 Q1777.35 1479.06 1774.28 1483.66 Q1771.22 1488.25 1765.41 1488.25 Q1759.6 1488.25 1756.52 1483.66 Q1753.47 1479.06 1753.47 1470.33 Q1753.47 1461.58 1756.52 1457 Q1759.6 1452.39 1765.41 1452.39 Z" fill="#000000" fill-rule="evenodd" fill-opacity="1" /><path clip-path="url(#clip800)" d="M1785.57 1481.7 L1790.46 1481.7 L1790.46 1487.58 L1785.57 1487.58 L1785.57 1481.7 Z" fill="#000000" fill-rule="evenodd" fill-opacity="1" /><path clip-path="url(#clip800)" d="M1799.46 1453.02 L1821.68 1453.02 L1821.68 1455.01 L1809.14 1487.58 L1804.25 1487.58 L1816.06 1456.95 L1799.46 1456.95 L1799.46 1453.02 Z" fill="#000000" fill-rule="evenodd" fill-opacity="1" /><path clip-path="url(#clip800)" d="M1830.85 1453.02 L1849.21 1453.02 L1849.21 1456.95 L1835.13 1456.95 L1835.13 1465.42 Q1836.15 1465.08 1837.17 1464.91 Q1838.19 1464.73 1839.21 1464.73 Q1844.99 1464.73 1848.37 1467.9 Q1851.75 1471.07 1851.75 1476.49 Q1851.75 1482.07 1848.28 1485.17 Q1844.81 1488.25 1838.49 1488.25 Q1836.31 1488.25 1834.04 1487.88 Q1831.8 1487.51 1829.39 1486.77 L1829.39 1482.07 Q1831.47 1483.2 1833.7 1483.76 Q1835.92 1484.31 1838.4 1484.31 Q1842.4 1484.31 1844.74 1482.21 Q1847.08 1480.1 1847.08 1476.49 Q1847.08 1472.88 1844.74 1470.77 Q1842.4 1468.66 1838.4 1468.66 Q1836.52 1468.66 1834.65 1469.08 Q1832.79 1469.5 1830.85 1470.38 L1830.85 1453.02 Z" fill="#000000" fill-rule="evenodd" fill-opacity="1" /><path clip-path="url(#clip800)" d="M2245.88 1483.64 L2253.52 1483.64 L2253.52 1457.27 L2245.21 1458.94 L2245.21 1454.68 L2253.48 1453.02 L2258.15 1453.02 L2258.15 1483.64 L2265.79 1483.64 L2265.79 1487.58 L2245.88 1487.58 L2245.88 1483.64 Z" fill="#000000" fill-rule="evenodd" fill-opacity="1" /><path clip-path="url(#clip800)" d="M2275.24 1481.7 L2280.12 1481.7 L2280.12 1487.58 L2275.24 1487.58 L2275.24 1481.7 Z" fill="#000000" fill-rule="evenodd" fill-opacity="1" /><path clip-path="url(#clip800)" d="M2300.3 1456.09 Q2296.69 1456.09 2294.86 1459.66 Q2293.06 1463.2 2293.06 1470.33 Q2293.06 1477.44 2294.86 1481 Q2296.69 1484.54 2300.3 1484.54 Q2303.94 1484.54 2305.74 1481 Q2307.57 1477.44 2307.57 1470.33 Q2307.57 1463.2 2305.74 1459.66 Q2303.94 1456.09 2300.3 1456.09 M2300.3 1452.39 Q2306.11 1452.39 2309.17 1457 Q2312.25 1461.58 2312.25 1470.33 Q2312.25 1479.06 2309.17 1483.66 Q2306.11 1488.25 2300.3 1488.25 Q2294.49 1488.25 2291.42 1483.66 Q2288.36 1479.06 2288.36 1470.33 Q2288.36 1461.58 2291.42 1457 Q2294.49 1452.39 2300.3 1452.39 Z" fill="#000000" fill-rule="evenodd" fill-opacity="1" /><path clip-path="url(#clip800)" d="M2330.47 1456.09 Q2326.86 1456.09 2325.03 1459.66 Q2323.22 1463.2 2323.22 1470.33 Q2323.22 1477.44 2325.03 1481 Q2326.86 1484.54 2330.47 1484.54 Q2334.1 1484.54 2335.91 1481 Q2337.73 1477.44 2337.73 1470.33 Q2337.73 1463.2 2335.91 1459.66 Q2334.1 1456.09 2330.47 1456.09 M2330.47 1452.39 Q2336.28 1452.39 2339.33 1457 Q2342.41 1461.58 2342.41 1470.33 Q2342.41 1479.06 2339.33 1483.66 Q2336.28 1488.25 2330.47 1488.25 Q2324.66 1488.25 2321.58 1483.66 Q2318.52 1479.06 2318.52 1470.33 Q2318.52 1461.58 2321.58 1457 Q2324.66 1452.39 2330.47 1452.39 Z" fill="#000000" fill-rule="evenodd" fill-opacity="1" /><path clip-path="url(#clip800)" d="M1297.62 1529.56 Q1297.62 1531.39 1296.49 1532.49 Q1295.39 1533.58 1294.01 1533.58 Q1292.79 1533.58 1292.14 1532.87 Q1291.5 1532.17 1291.5 1531.26 Q1291.5 1530.88 1291.66 1530.39 Q1291.82 1529.88 1292.17 1529.27 Q1292.56 1528.66 1293.36 1528.2 Q1294.17 1527.75 1295.27 1527.69 Q1295.04 1527.46 1294.98 1527.43 Q1294.49 1527.05 1293.59 1526.92 Q1293.46 1526.85 1293.01 1526.85 Q1290.79 1526.85 1288.53 1528.49 Q1286.31 1530.1 1283.57 1533.16 Q1280.13 1536.74 1277.91 1538.06 Q1287.66 1539.35 1287.66 1544.98 Q1287.66 1545.92 1287.41 1547.05 Q1286.89 1549.17 1286.89 1550.72 Q1286.89 1553.81 1288.98 1553.81 Q1291.01 1553.81 1292.3 1551.75 Q1293.62 1549.69 1294.72 1545.66 Q1294.88 1544.92 1295.04 1544.69 Q1295.2 1544.47 1295.65 1544.47 Q1296.46 1544.47 1296.46 1545.11 Q1295.72 1548.88 1294.07 1551.78 Q1291.98 1555.29 1288.86 1555.29 Q1286.25 1555.29 1284.51 1553.49 Q1282.8 1551.65 1282.8 1548.75 Q1282.8 1548.04 1283.06 1546.43 Q1283.25 1545.79 1283.25 1545.05 Q1283.25 1543.53 1282.41 1542.41 Q1281.58 1541.25 1280.22 1540.67 Q1278.87 1540.09 1277.75 1539.83 Q1276.65 1539.54 1275.59 1539.44 Q1272.37 1553.07 1271.92 1553.91 Q1271.63 1554.48 1270.98 1554.87 Q1270.34 1555.29 1269.66 1555.29 Q1269.02 1555.29 1268.37 1554.84 Q1267.76 1554.42 1267.76 1553.42 Q1267.76 1552.91 1268.02 1551.97 L1277.58 1513.97 L1277.78 1512.68 Q1277.78 1512.3 1277.62 1512.1 Q1277.49 1511.88 1276.71 1511.72 Q1275.97 1511.55 1274.49 1511.55 Q1273.88 1511.55 1273.59 1511.52 Q1273.33 1511.49 1273.11 1511.33 Q1272.88 1511.14 1272.88 1510.75 Q1272.88 1510.2 1273.11 1509.91 Q1273.37 1509.59 1273.56 1509.53 Q1273.75 1509.46 1274.14 1509.43 Q1274.69 1509.4 1276.52 1509.24 Q1278.36 1509.04 1279.94 1508.91 Q1281.51 1508.78 1282.19 1508.78 Q1282.58 1508.78 1282.77 1508.98 Q1282.99 1509.14 1283.03 1509.33 L1283.06 1509.49 L1276.2 1537.32 Q1279.03 1536.19 1283.51 1531.2 Q1288.7 1525.4 1293.14 1525.4 Q1295.23 1525.4 1296.42 1526.69 Q1297.62 1527.95 1297.62 1529.56 Z" fill="#000000" fill-rule="evenodd" fill-opacity="1" /><path clip-path="url(#clip800)" d="M1304.36 1566.25 L1304.36 1564.83 L1318.54 1543.16 Q1318.9 1542.6 1319.47 1542.62 Q1319.99 1542.62 1320.1 1542.83 Q1320.21 1543.03 1320.21 1543.82 L1320.21 1564.83 L1324.83 1564.83 L1324.83 1566.25 L1320.21 1566.25 L1320.21 1570.26 Q1320.21 1571.59 1320.75 1572.02 Q1321.32 1572.45 1323.71 1572.45 L1324.68 1572.45 L1324.68 1573.87 Q1322.78 1573.73 1318.41 1573.73 Q1314.06 1573.73 1312.16 1573.87 L1312.16 1572.45 L1313.13 1572.45 Q1315.52 1572.45 1316.09 1572.04 Q1316.65 1571.61 1316.65 1570.26 L1316.65 1566.25 L1304.36 1566.25 M1305.67 1564.83 L1316.92 1564.83 L1316.92 1547.6 L1305.67 1564.83 Z" fill="#000000" fill-rule="evenodd" fill-opacity="1" /><path clip-path="url(#clip800)" d="M1336.9 1510.75 Q1336.9 1509.11 1337.9 1508.43 Q1338.9 1507.72 1339.96 1507.72 Q1341.28 1507.72 1342.12 1508.53 Q1342.99 1509.3 1342.99 1510.75 Q1342.99 1511.39 1342.92 1511.75 L1340.73 1531.65 L1339.22 1531.65 L1336.96 1511.75 Q1336.9 1511.39 1336.9 1510.75 Z" fill="#000000" fill-rule="evenodd" fill-opacity="1" /><polyline clip-path="url(#clip803)" style="stroke:#000000; stroke-linecap:butt; stroke-linejoin:round; stroke-width:2; stroke-opacity:0.1; fill:none" points="
  270.056,1281.88 2352.76,1281.88 
  "/>
<polyline clip-path="url(#clip803)" style="stroke:#000000; stroke-linecap:butt; stroke-linejoin:round; stroke-width:2; stroke-opacity:0.1; fill:none" points="
  270.056,968.237 2352.76,968.237 
  "/>
<polyline clip-path="url(#clip803)" style="stroke:#000000; stroke-linecap:butt; stroke-linejoin:round; stroke-width:2; stroke-opacity:0.1; fill:none" points="
  270.056,654.592 2352.76,654.592 
  "/>
<polyline clip-path="url(#clip803)" style="stroke:#000000; stroke-linecap:butt; stroke-linejoin:round; stroke-width:2; stroke-opacity:0.1; fill:none" points="
  270.056,340.947 2352.76,340.947 
  "/>
<polyline clip-path="url(#clip800)" style="stroke:#000000; stroke-linecap:butt; stroke-linejoin:round; stroke-width:4; stroke-opacity:1; fill:none" points="
  270.056,1426.9 270.056,47.2441 
  "/>
<polyline clip-path="url(#clip800)" style="stroke:#000000; stroke-linecap:butt; stroke-linejoin:round; stroke-width:4; stroke-opacity:1; fill:none" points="
  270.056,1281.88 288.954,1281.88 
  "/>
<polyline clip-path="url(#clip800)" style="stroke:#000000; stroke-linecap:butt; stroke-linejoin:round; stroke-width:4; stroke-opacity:1; fill:none" points="
  270.056,968.237 288.954,968.237 
  "/>
<polyline clip-path="url(#clip800)" style="stroke:#000000; stroke-linecap:butt; stroke-linejoin:round; stroke-width:4; stroke-opacity:1; fill:none" points="
  270.056,654.592 288.954,654.592 
  "/>
<polyline clip-path="url(#clip800)" style="stroke:#000000; stroke-linecap:butt; stroke-linejoin:round; stroke-width:4; stroke-opacity:1; fill:none" points="
  270.056,340.947 288.954,340.947 
  "/>
<path clip-path="url(#clip800)" d="M122.436 1295.23 L130.075 1295.23 L130.075 1268.86 L121.765 1270.53 L121.765 1266.27 L130.029 1264.6 L134.705 1264.6 L134.705 1295.23 L142.343 1295.23 L142.343 1299.16 L122.436 1299.16 L122.436 1295.23 Z" fill="#000000" fill-rule="evenodd" fill-opacity="1" /><path clip-path="url(#clip800)" d="M151.927 1298.44 L151.927 1294.19 Q153.686 1295.02 155.491 1295.46 Q157.297 1295.9 159.033 1295.9 Q163.663 1295.9 166.093 1292.8 Q168.547 1289.67 168.894 1283.33 Q167.552 1285.32 165.491 1286.38 Q163.431 1287.45 160.931 1287.45 Q155.746 1287.45 152.714 1284.32 Q149.704 1281.18 149.704 1275.74 Q149.704 1270.41 152.853 1267.19 Q156.001 1263.98 161.232 1263.98 Q167.228 1263.98 170.376 1268.58 Q173.547 1273.17 173.547 1281.92 Q173.547 1290.09 169.658 1294.97 Q165.792 1299.83 159.241 1299.83 Q157.482 1299.83 155.677 1299.49 Q153.871 1299.14 151.927 1298.44 M161.232 1283.79 Q164.38 1283.79 166.209 1281.64 Q168.061 1279.49 168.061 1275.74 Q168.061 1272.01 166.209 1269.86 Q164.38 1267.68 161.232 1267.68 Q158.084 1267.68 156.232 1269.86 Q154.404 1272.01 154.404 1275.74 Q154.404 1279.49 156.232 1281.64 Q158.084 1283.79 161.232 1283.79 Z" fill="#000000" fill-rule="evenodd" fill-opacity="1" /><path clip-path="url(#clip800)" d="M181.996 1264.6 L200.352 1264.6 L200.352 1268.54 L186.278 1268.54 L186.278 1277.01 Q187.297 1276.66 188.315 1276.5 Q189.334 1276.32 190.352 1276.32 Q196.139 1276.32 199.519 1279.49 Q202.899 1282.66 202.899 1288.07 Q202.899 1293.65 199.426 1296.75 Q195.954 1299.83 189.635 1299.83 Q187.459 1299.83 185.19 1299.46 Q182.945 1299.09 180.538 1298.35 L180.538 1293.65 Q182.621 1294.79 184.843 1295.34 Q187.065 1295.9 189.542 1295.9 Q193.547 1295.9 195.885 1293.79 Q198.223 1291.69 198.223 1288.07 Q198.223 1284.46 195.885 1282.36 Q193.547 1280.25 189.542 1280.25 Q187.667 1280.25 185.792 1280.67 Q183.94 1281.08 181.996 1281.96 L181.996 1264.6 Z" fill="#000000" fill-rule="evenodd" fill-opacity="1" /><path clip-path="url(#clip800)" d="M222.111 1267.68 Q218.5 1267.68 216.672 1271.25 Q214.866 1274.79 214.866 1281.92 Q214.866 1289.02 216.672 1292.59 Q218.5 1296.13 222.111 1296.13 Q225.746 1296.13 227.551 1292.59 Q229.38 1289.02 229.38 1281.92 Q229.38 1274.79 227.551 1271.25 Q225.746 1267.68 222.111 1267.68 M222.111 1263.98 Q227.922 1263.98 230.977 1268.58 Q234.056 1273.17 234.056 1281.92 Q234.056 1290.64 230.977 1295.25 Q227.922 1299.83 222.111 1299.83 Q216.301 1299.83 213.223 1295.25 Q210.167 1290.64 210.167 1281.92 Q210.167 1273.17 213.223 1268.58 Q216.301 1263.98 222.111 1263.98 Z" fill="#000000" fill-rule="evenodd" fill-opacity="1" /><path clip-path="url(#clip800)" d="M125.654 981.582 L141.973 981.582 L141.973 985.517 L120.029 985.517 L120.029 981.582 Q122.691 978.827 127.274 974.198 Q131.88 969.545 133.061 968.203 Q135.306 965.679 136.186 963.943 Q137.089 962.184 137.089 960.494 Q137.089 957.74 135.144 956.004 Q133.223 954.267 130.121 954.267 Q127.922 954.267 125.468 955.031 Q123.038 955.795 120.26 957.346 L120.26 952.624 Q123.084 951.49 125.538 950.911 Q127.992 950.332 130.029 950.332 Q135.399 950.332 138.593 953.017 Q141.788 955.703 141.788 960.193 Q141.788 962.323 140.978 964.244 Q140.191 966.142 138.084 968.735 Q137.505 969.406 134.404 972.624 Q131.302 975.818 125.654 981.582 Z" fill="#000000" fill-rule="evenodd" fill-opacity="1" /><path clip-path="url(#clip800)" d="M161.788 954.036 Q158.177 954.036 156.348 957.601 Q154.542 961.142 154.542 968.272 Q154.542 975.378 156.348 978.943 Q158.177 982.485 161.788 982.485 Q165.422 982.485 167.228 978.943 Q169.056 975.378 169.056 968.272 Q169.056 961.142 167.228 957.601 Q165.422 954.036 161.788 954.036 M161.788 950.332 Q167.598 950.332 170.653 954.939 Q173.732 959.522 173.732 968.272 Q173.732 976.999 170.653 981.605 Q167.598 986.189 161.788 986.189 Q155.978 986.189 152.899 981.605 Q149.843 976.999 149.843 968.272 Q149.843 959.522 152.899 954.939 Q155.978 950.332 161.788 950.332 Z" fill="#000000" fill-rule="evenodd" fill-opacity="1" /><path clip-path="url(#clip800)" d="M191.95 954.036 Q188.339 954.036 186.51 957.601 Q184.704 961.142 184.704 968.272 Q184.704 975.378 186.51 978.943 Q188.339 982.485 191.95 982.485 Q195.584 982.485 197.389 978.943 Q199.218 975.378 199.218 968.272 Q199.218 961.142 197.389 957.601 Q195.584 954.036 191.95 954.036 M191.95 950.332 Q197.76 950.332 200.815 954.939 Q203.894 959.522 203.894 968.272 Q203.894 976.999 200.815 981.605 Q197.76 986.189 191.95 986.189 Q186.139 986.189 183.061 981.605 Q180.005 976.999 180.005 968.272 Q180.005 959.522 183.061 954.939 Q186.139 950.332 191.95 950.332 Z" fill="#000000" fill-rule="evenodd" fill-opacity="1" /><path clip-path="url(#clip800)" d="M222.111 954.036 Q218.5 954.036 216.672 957.601 Q214.866 961.142 214.866 968.272 Q214.866 975.378 216.672 978.943 Q218.5 982.485 222.111 982.485 Q225.746 982.485 227.551 978.943 Q229.38 975.378 229.38 968.272 Q229.38 961.142 227.551 957.601 Q225.746 954.036 222.111 954.036 M222.111 950.332 Q227.922 950.332 230.977 954.939 Q234.056 959.522 234.056 968.272 Q234.056 976.999 230.977 981.605 Q227.922 986.189 222.111 986.189 Q216.301 986.189 213.223 981.605 Q210.167 976.999 210.167 968.272 Q210.167 959.522 213.223 954.939 Q216.301 950.332 222.111 950.332 Z" fill="#000000" fill-rule="evenodd" fill-opacity="1" /><path clip-path="url(#clip800)" d="M125.654 667.937 L141.973 667.937 L141.973 671.872 L120.029 671.872 L120.029 667.937 Q122.691 665.182 127.274 660.553 Q131.88 655.9 133.061 654.557 Q135.306 652.034 136.186 650.298 Q137.089 648.539 137.089 646.849 Q137.089 644.094 135.144 642.358 Q133.223 640.622 130.121 640.622 Q127.922 640.622 125.468 641.386 Q123.038 642.15 120.26 643.701 L120.26 638.979 Q123.084 637.845 125.538 637.266 Q127.992 636.687 130.029 636.687 Q135.399 636.687 138.593 639.372 Q141.788 642.057 141.788 646.548 Q141.788 648.678 140.978 650.599 Q140.191 652.497 138.084 655.09 Q137.505 655.761 134.404 658.979 Q131.302 662.173 125.654 667.937 Z" fill="#000000" fill-rule="evenodd" fill-opacity="1" /><path clip-path="url(#clip800)" d="M161.788 640.391 Q158.177 640.391 156.348 643.956 Q154.542 647.497 154.542 654.627 Q154.542 661.733 156.348 665.298 Q158.177 668.84 161.788 668.84 Q165.422 668.84 167.228 665.298 Q169.056 661.733 169.056 654.627 Q169.056 647.497 167.228 643.956 Q165.422 640.391 161.788 640.391 M161.788 636.687 Q167.598 636.687 170.653 641.294 Q173.732 645.877 173.732 654.627 Q173.732 663.354 170.653 667.96 Q167.598 672.543 161.788 672.543 Q155.978 672.543 152.899 667.96 Q149.843 663.354 149.843 654.627 Q149.843 645.877 152.899 641.294 Q155.978 636.687 161.788 636.687 Z" fill="#000000" fill-rule="evenodd" fill-opacity="1" /><path clip-path="url(#clip800)" d="M181.996 637.312 L200.352 637.312 L200.352 641.247 L186.278 641.247 L186.278 649.719 Q187.297 649.372 188.315 649.21 Q189.334 649.025 190.352 649.025 Q196.139 649.025 199.519 652.196 Q202.899 655.368 202.899 660.784 Q202.899 666.363 199.426 669.465 Q195.954 672.543 189.635 672.543 Q187.459 672.543 185.19 672.173 Q182.945 671.803 180.538 671.062 L180.538 666.363 Q182.621 667.497 184.843 668.053 Q187.065 668.608 189.542 668.608 Q193.547 668.608 195.885 666.502 Q198.223 664.395 198.223 660.784 Q198.223 657.173 195.885 655.067 Q193.547 652.96 189.542 652.96 Q187.667 652.96 185.792 653.377 Q183.94 653.794 181.996 654.673 L181.996 637.312 Z" fill="#000000" fill-rule="evenodd" fill-opacity="1" /><path clip-path="url(#clip800)" d="M222.111 640.391 Q218.5 640.391 216.672 643.956 Q214.866 647.497 214.866 654.627 Q214.866 661.733 216.672 665.298 Q218.5 668.84 222.111 668.84 Q225.746 668.84 227.551 665.298 Q229.38 661.733 229.38 654.627 Q229.38 647.497 227.551 643.956 Q225.746 640.391 222.111 640.391 M222.111 636.687 Q227.922 636.687 230.977 641.294 Q234.056 645.877 234.056 654.627 Q234.056 663.354 230.977 667.96 Q227.922 672.543 222.111 672.543 Q216.301 672.543 213.223 667.96 Q210.167 663.354 210.167 654.627 Q210.167 645.877 213.223 641.294 Q216.301 636.687 222.111 636.687 Z" fill="#000000" fill-rule="evenodd" fill-opacity="1" /><path clip-path="url(#clip800)" d="M125.654 354.292 L141.973 354.292 L141.973 358.227 L120.029 358.227 L120.029 354.292 Q122.691 351.537 127.274 346.908 Q131.88 342.255 133.061 340.912 Q135.306 338.389 136.186 336.653 Q137.089 334.894 137.089 333.204 Q137.089 330.449 135.144 328.713 Q133.223 326.977 130.121 326.977 Q127.922 326.977 125.468 327.741 Q123.038 328.505 120.26 330.056 L120.26 325.334 Q123.084 324.199 125.538 323.621 Q127.992 323.042 130.029 323.042 Q135.399 323.042 138.593 325.727 Q141.788 328.412 141.788 332.903 Q141.788 335.033 140.978 336.954 Q140.191 338.852 138.084 341.445 Q137.505 342.116 134.404 345.334 Q131.302 348.528 125.654 354.292 Z" fill="#000000" fill-rule="evenodd" fill-opacity="1" /><path clip-path="url(#clip800)" d="M152.598 354.292 L160.237 354.292 L160.237 327.926 L151.927 329.593 L151.927 325.334 L160.191 323.667 L164.866 323.667 L164.866 354.292 L172.505 354.292 L172.505 358.227 L152.598 358.227 L152.598 354.292 Z" fill="#000000" fill-rule="evenodd" fill-opacity="1" /><path clip-path="url(#clip800)" d="M191.95 326.746 Q188.339 326.746 186.51 330.31 Q184.704 333.852 184.704 340.982 Q184.704 348.088 186.51 351.653 Q188.339 355.195 191.95 355.195 Q195.584 355.195 197.389 351.653 Q199.218 348.088 199.218 340.982 Q199.218 333.852 197.389 330.31 Q195.584 326.746 191.95 326.746 M191.95 323.042 Q197.76 323.042 200.815 327.648 Q203.894 332.232 203.894 340.982 Q203.894 349.709 200.815 354.315 Q197.76 358.898 191.95 358.898 Q186.139 358.898 183.061 354.315 Q180.005 349.709 180.005 340.982 Q180.005 332.232 183.061 327.648 Q186.139 323.042 191.95 323.042 Z" fill="#000000" fill-rule="evenodd" fill-opacity="1" /><path clip-path="url(#clip800)" d="M222.111 326.746 Q218.5 326.746 216.672 330.31 Q214.866 333.852 214.866 340.982 Q214.866 348.088 216.672 351.653 Q218.5 355.195 222.111 355.195 Q225.746 355.195 227.551 351.653 Q229.38 348.088 229.38 340.982 Q229.38 333.852 227.551 330.31 Q225.746 326.746 222.111 326.746 M222.111 323.042 Q227.922 323.042 230.977 327.648 Q234.056 332.232 234.056 340.982 Q234.056 349.709 230.977 354.315 Q227.922 358.898 222.111 358.898 Q216.301 358.898 213.223 354.315 Q210.167 349.709 210.167 340.982 Q210.167 332.232 213.223 327.648 Q216.301 323.042 222.111 323.042 Z" fill="#000000" fill-rule="evenodd" fill-opacity="1" /><path clip-path="url(#clip800)" d="M36.5483 812.742 Q37.3857 812.742 39.0282 812.967 Q40.6707 813.193 43.0539 813.74 Q45.4371 814.288 47.9492 815.093 Q50.4612 815.866 52.9733 817.09 Q55.4531 818.313 57.4177 819.763 Q59.3823 821.212 60.6061 823.241 Q61.8299 825.27 61.8299 827.557 Q61.8299 828.619 61.6689 829.65 Q61.5078 830.681 60.9926 831.969 Q60.4773 833.257 59.6399 834.191 Q58.7703 835.125 57.2245 835.769 Q55.6786 836.413 53.6496 836.413 Q51.5562 836.413 48.7543 835.64 Q45.9202 834.835 40.1232 832.645 Q37.128 831.518 35.4855 831.518 Q34.7448 831.518 34.2939 831.679 Q33.8108 831.84 33.6498 832.162 Q33.4565 832.484 33.4243 832.677 Q33.3921 832.838 33.3921 833.16 Q33.3921 834.932 35.2279 836.735 Q37.0636 838.539 41.5724 839.827 Q42.3776 840.085 42.5708 840.246 Q42.764 840.407 42.764 840.89 Q42.7318 841.695 42.0877 841.695 Q41.8945 841.695 41.1537 841.469 Q40.3808 841.244 39.2214 840.825 Q38.0298 840.407 36.8059 839.666 Q35.5499 838.925 34.4549 838.023 Q33.3599 837.089 32.6514 835.769 Q31.9429 834.449 31.9429 832.967 Q31.9429 830.552 33.521 829.07 Q35.0668 827.557 37.3534 827.557 Q38.6095 827.557 40.6384 828.362 Q44.3099 829.714 46.0812 830.326 Q47.8526 830.938 50.3646 831.582 Q52.8767 832.194 54.6158 832.194 Q57.2567 832.194 58.8026 830.97 Q60.3484 829.747 60.3484 827.299 Q60.3484 825.109 58.7703 823.144 Q57.1601 821.148 54.8734 819.827 Q52.5546 818.507 49.9781 817.508 Q47.3695 816.51 45.4049 816.059 Q43.4082 815.576 42.4742 815.576 Q39.2214 815.576 37.0958 817.798 Q36.4839 818.41 36.0974 818.636 Q35.7109 818.861 35.099 818.861 Q33.9718 818.861 32.9735 817.863 Q31.9429 816.832 31.9429 815.64 Q31.9429 814.545 33.0379 813.644 Q34.1329 812.742 36.5483 812.742 Z" fill="#000000" fill-rule="evenodd" fill-opacity="1" /><path clip-path="url(#clip800)" d="M51.6529 780.186 Q55.8074 781.055 58.1906 782.182 Q61.8299 783.986 61.8299 787.045 Q61.8299 789.364 60.4128 791.007 Q58.9958 792.649 56.8702 793.036 Q61.8299 797.255 61.8299 801.635 Q61.8299 805.499 58.8992 807.947 Q55.9362 810.395 51.2664 810.395 Q46.5643 810.395 42.0555 808.076 Q37.5467 805.725 34.7448 802.021 Q31.9429 798.318 31.9429 794.517 Q31.9429 790.491 36.1618 788.43 Q35.0024 788.269 34.1329 787.529 Q33.2633 786.788 33.2633 785.661 Q33.2633 784.791 33.7464 784.276 Q34.1973 783.76 35.0346 783.76 Q35.4533 783.76 37.289 784.211 L46.4999 786.595 L52.458 788.044 Q54.648 788.591 55.4531 788.752 Q56.2583 788.881 57.3211 788.881 Q60.3484 788.881 60.3484 786.917 Q60.3484 785.95 59.7365 785.178 Q59.1246 784.405 57.8364 783.793 Q56.5481 783.181 55.3565 782.794 Q54.1327 782.408 52.2004 781.893 Q51.4274 781.731 51.2342 781.603 Q51.0087 781.442 51.0087 780.991 Q51.0087 780.186 51.6529 780.186 M39.1892 789.235 Q38.8993 789.235 38.0942 789.461 Q37.289 789.686 36.1618 790.202 Q35.0346 790.717 34.2295 791.844 Q33.3921 792.939 33.3921 794.421 Q33.3921 796.417 35.099 798.511 Q36.8059 800.572 39.7045 802.086 Q42.0233 803.245 46.8864 804.501 Q51.7495 805.725 54.1649 805.725 Q55.6464 805.725 56.9668 805.403 Q58.2551 805.049 59.3178 804.05 Q60.3484 803.052 60.3484 801.506 Q60.3484 797.738 55.6786 794.034 Q54.8734 793.326 54.5514 793.165 Q54.1971 792.971 53.2309 792.714 L40.3164 789.429 Q39.3502 789.235 39.1892 789.235 Z" fill="#000000" fill-rule="evenodd" fill-opacity="1" /><path clip-path="url(#clip800)" d="M36.2262 748.989 Q37.9332 748.989 39.0282 750.116 Q40.1232 751.211 40.1232 752.628 Q40.1232 753.852 39.4146 754.496 Q38.7061 755.14 37.8043 755.14 Q36.5161 755.14 35.4533 754.142 Q34.3905 753.144 34.1651 751.694 Q33.3921 752.757 33.3921 754.464 Q33.3921 757.266 35.5499 759.746 Q36.5483 760.841 38.384 762.032 Q40.1876 763.224 40.9605 763.449 L49.5595 765.543 Q50.5256 765.736 55.1633 766.928 Q59.7687 768.087 59.962 768.184 Q60.8637 768.506 61.3468 769.214 Q61.8299 769.923 61.8299 770.631 Q61.8299 771.436 61.3468 771.984 Q60.8637 772.531 60.0264 772.531 Q59.8976 772.531 59.4145 772.435 Q58.9314 772.338 58.2551 772.177 Q57.5787 772.016 57.1923 771.952 L41.9589 768.119 Q39.1892 767.411 38.3196 767.25 Q37.4179 767.056 36.4195 767.056 Q34.6804 767.056 34.0362 767.604 Q33.3921 768.151 33.3921 769.118 Q33.3921 770.792 35.3889 771.887 Q37.3857 772.982 41.2504 773.916 Q42.3132 774.206 42.5386 774.399 Q42.764 774.56 42.764 775.043 Q42.7318 775.849 42.0877 775.849 Q41.9267 775.849 40.8961 775.591 Q39.8333 775.333 38.2874 774.85 Q36.7093 774.335 35.7109 773.787 Q35.0346 773.465 34.5837 773.176 Q34.1329 772.886 33.4243 772.306 Q32.7158 771.726 32.3293 770.857 Q31.9429 769.987 31.9429 768.924 Q31.9429 766.606 33.3599 764.963 Q34.777 763.288 36.9992 762.902 Q35.8398 762.097 34.8414 761.098 Q33.8108 760.1 32.8768 758.264 Q31.9429 756.429 31.9429 754.464 Q31.9429 752.016 33.1989 750.503 Q34.4227 748.989 36.2262 748.989 Z" fill="#000000" fill-rule="evenodd" fill-opacity="1" /><path clip-path="url(#clip800)" d="M44.5998 746.406 Q33.4565 746.406 24.4711 742.252 Q20.703 740.48 17.5468 738.001 Q14.3907 735.521 13.0058 733.878 Q11.621 732.236 11.621 731.785 Q11.621 731.141 12.2651 731.109 Q12.5871 731.109 13.3923 731.978 Q24.2135 742.606 44.5998 742.574 Q65.0505 742.574 75.453 732.236 Q76.5802 731.109 76.9345 731.109 Q77.5786 731.109 77.5786 731.785 Q77.5786 732.236 76.2581 733.814 Q74.9377 735.392 71.9103 737.84 Q68.883 740.287 65.1793 742.059 Q56.1939 746.406 44.5998 746.406 Z" fill="#000000" fill-rule="evenodd" fill-opacity="1" /><path clip-path="url(#clip800)" d="M42.4742 686.619 Q47.1762 686.619 51.7173 689.002 Q56.2583 691.353 59.0602 695.057 Q61.8299 698.76 61.8299 702.528 Q61.8299 704.783 60.6061 706.296 Q59.3501 707.778 57.5787 708.583 Q59.7687 709.195 65.0183 710.515 Q70.2678 711.836 70.7831 711.836 Q71.073 711.836 71.2018 711.771 Q71.3306 711.707 71.4917 711.417 Q71.6849 711.127 71.7493 710.419 Q71.8459 709.71 71.8459 708.519 Q71.8459 707.907 71.8459 707.681 Q71.8781 707.424 72.0392 707.198 Q72.2002 706.941 72.5545 706.941 Q73.8749 706.941 73.8749 708.132 Q73.8749 709.195 73.7783 711.385 Q73.6817 713.575 73.6817 714.67 Q73.6817 715.604 73.7783 717.472 Q73.8749 719.34 73.8749 720.209 Q73.8749 721.079 73.102 721.079 Q72.6511 721.079 72.3612 720.95 Q72.1036 720.853 71.9747 720.596 Q71.8781 720.338 71.8459 720.113 Q71.8459 719.92 71.8459 719.533 Q71.8459 718.052 71.5883 717.407 Q71.3628 716.763 70.8797 716.538 Q70.4289 716.28 69.1406 715.99 L39.7689 708.583 Q37.8043 708.132 36.4195 708.132 Q34.6804 708.132 34.0362 708.68 Q33.3921 709.227 33.3921 710.193 Q33.3921 711.868 35.3889 712.963 Q37.3857 714.058 41.2504 714.992 Q42.3132 715.282 42.5386 715.475 Q42.764 715.636 42.764 716.119 Q42.7318 716.924 42.0877 716.924 Q41.9267 716.924 40.8961 716.667 Q39.8333 716.409 38.2874 715.926 Q36.7093 715.411 35.7109 714.863 Q35.0346 714.541 34.5837 714.251 Q34.1329 713.961 33.4243 713.382 Q32.7158 712.77 32.3293 711.9 Q31.9429 711.031 31.9429 709.968 Q31.9429 707.907 33.1667 706.2 Q34.3905 704.493 36.8704 704.042 Q34.7126 702.206 33.3277 699.952 Q31.9429 697.697 31.9429 695.411 Q31.9429 691.611 34.9058 689.131 Q37.8365 686.619 42.4742 686.619 M39.5757 691.385 Q36.6449 691.385 35.0346 692.512 Q33.3921 693.607 33.3921 695.604 Q33.3921 698.084 35.9042 700.95 Q38.2874 703.784 40.5096 704.364 L53.4242 707.617 L54.487 707.81 Q54.6802 707.81 55.2599 707.713 Q55.8074 707.585 56.7092 707.23 Q57.6109 706.844 58.4161 706.329 Q59.189 705.781 59.7687 704.815 Q60.3484 703.817 60.3484 702.593 Q60.3484 700.628 58.6093 698.503 Q56.8702 696.345 53.5852 694.735 Q51.4596 693.736 46.8864 692.577 Q42.2809 691.385 39.5757 691.385 Z" fill="#000000" fill-rule="evenodd" fill-opacity="1" /><path clip-path="url(#clip800)" d="M65.6679 679.914 L64.2251 679.914 Q64.2251 674.368 61.2718 671.505 Q61.2718 670.716 61.4522 670.581 Q61.6325 670.445 62.4667 670.445 L88.3698 670.445 Q89.745 670.445 90.1734 669.769 Q90.6017 669.093 90.6017 666.139 L90.6017 664.674 L92.022 664.674 Q91.8867 666.297 91.8867 672.159 Q91.8867 678.02 92.022 679.621 L90.6017 679.621 L90.6017 678.155 Q90.6017 675.247 90.1959 674.548 Q89.7676 673.85 88.3698 673.85 L64.4505 673.85 Q65.6679 676.262 65.6679 679.914 Z" fill="#000000" fill-rule="evenodd" fill-opacity="1" /><path clip-path="url(#clip800)" d="M76.9345 657.78 Q76.6124 657.78 75.8072 656.943 Q64.9861 646.315 44.5998 646.315 Q24.149 646.315 13.811 656.524 Q12.6193 657.78 12.2651 657.78 Q11.621 657.78 11.621 657.136 Q11.621 656.685 12.9414 655.107 Q14.2618 653.497 17.2892 651.081 Q20.3165 648.634 24.0202 646.83 Q33.0057 642.482 44.5998 642.482 Q55.743 642.482 64.7284 646.637 Q68.4965 648.408 71.6527 650.888 Q74.8089 653.368 76.1937 655.01 Q77.5786 656.653 77.5786 657.136 Q77.5786 657.78 76.9345 657.78 Z" fill="#000000" fill-rule="evenodd" fill-opacity="1" /><polyline clip-path="url(#clip803)" style="stroke:#009af9; stroke-linecap:butt; stroke-linejoin:round; stroke-width:12; stroke-opacity:1; fill:none" points="
  329,1387.86 348.648,1387.73 368.296,1387.61 387.945,1387.49 407.593,1387.36 427.241,1387.24 446.889,1387.12 466.537,1387 486.185,1386.87 505.833,1386.75 
  525.481,1386.63 545.129,1386.51 564.778,1386.39 584.426,1386.27 604.074,1386.15 623.722,1386.03 643.37,1385.91 663.018,1385.79 682.666,1385.67 702.314,1385.56 
  721.962,1385.44 741.611,1385.32 761.259,1385.2 780.907,1385.08 800.555,1384.97 820.203,1384.85 839.851,1384.73 859.499,1384.62 879.147,1384.5 898.796,1384.39 
  918.444,1384.27 938.092,1384.16 957.74,1384.04 977.388,1383.93 997.036,1383.81 1016.68,1383.7 1036.33,1383.59 1055.98,1383.47 1075.63,1383.36 1095.28,1383.25 
  1114.92,1383.13 1134.57,1383.02 1154.22,1382.91 1173.87,1382.8 1193.52,1382.69 1213.17,1382.58 1232.81,1382.47 1252.46,1382.35 1272.11,1382.24 1291.76,1382.13 
  1311.41,1382.02 1331.05,1381.92 1350.7,1381.81 1370.35,1381.7 1390,1381.59 1409.65,1381.48 1429.29,1381.37 1448.94,1381.26 1468.59,1381.16 1488.24,1381.05 
  1507.89,1380.94 1527.54,1380.83 1547.18,1380.73 1566.83,1380.62 1586.48,1380.51 1606.13,1380.41 1625.78,1380.3 1645.42,1380.2 1665.07,1380.09 1684.72,1379.99 
  1704.37,1379.88 1724.02,1379.78 1743.66,1379.67 1763.31,1379.57 1782.96,1379.47 1802.61,1379.36 1822.26,1379.26 1841.9,1379.16 1861.55,1379.05 1881.2,1378.95 
  1900.85,1378.85 1920.5,1378.75 1940.15,1378.64 1959.79,1378.54 1979.44,1378.44 1999.09,1378.34 2018.74,1378.24 2038.39,1378.14 2058.03,1378.04 2077.68,1377.94 
  2097.33,1377.84 2116.98,1377.74 2136.63,1377.64 2156.27,1377.54 2175.92,1377.44 2195.57,1377.34 2215.22,1377.24 2234.87,1377.14 2254.52,1377.04 2274.16,1376.95 
  2293.81,1376.85 
  "/>
<circle clip-path="url(#clip803)" cx="525.481" cy="86.2911" r="14" fill="#e26f46" fill-rule="evenodd" fill-opacity="1" stroke="#000000" stroke-opacity="1" stroke-width="3.2"/>
<circle clip-path="url(#clip803)" cx="721.962" cy="890.242" r="14" fill="#e26f46" fill-rule="evenodd" fill-opacity="1" stroke="#000000" stroke-opacity="1" stroke-width="3.2"/>
<circle clip-path="url(#clip803)" cx="918.444" cy="400.314" r="14" fill="#e26f46" fill-rule="evenodd" fill-opacity="1" stroke="#000000" stroke-opacity="1" stroke-width="3.2"/>
<circle clip-path="url(#clip803)" cx="1114.92" cy="572.687" r="14" fill="#e26f46" fill-rule="evenodd" fill-opacity="1" stroke="#000000" stroke-opacity="1" stroke-width="3.2"/>
<circle clip-path="url(#clip803)" cx="1311.41" cy="843.573" r="14" fill="#e26f46" fill-rule="evenodd" fill-opacity="1" stroke="#000000" stroke-opacity="1" stroke-width="3.2"/>
<circle clip-path="url(#clip803)" cx="1507.89" cy="254.402" r="14" fill="#e26f46" fill-rule="evenodd" fill-opacity="1" stroke="#000000" stroke-opacity="1" stroke-width="3.2"/>
<circle clip-path="url(#clip803)" cx="1704.37" cy="136.104" r="14" fill="#e26f46" fill-rule="evenodd" fill-opacity="1" stroke="#000000" stroke-opacity="1" stroke-width="3.2"/>
<circle clip-path="url(#clip803)" cx="1900.85" cy="611.913" r="14" fill="#e26f46" fill-rule="evenodd" fill-opacity="1" stroke="#000000" stroke-opacity="1" stroke-width="3.2"/>
<circle clip-path="url(#clip803)" cx="2097.33" cy="1181.46" r="14" fill="#e26f46" fill-rule="evenodd" fill-opacity="1" stroke="#000000" stroke-opacity="1" stroke-width="3.2"/>
<circle clip-path="url(#clip803)" cx="2293.81" cy="712.552" r="14" fill="#e26f46" fill-rule="evenodd" fill-opacity="1" stroke="#000000" stroke-opacity="1" stroke-width="3.2"/>
</svg>
