<?xml version="1.0" encoding="utf-8"?>
<svg xmlns="http://www.w3.org/2000/svg" xmlns:xlink="http://www.w3.org/1999/xlink" width="600" height="400" viewBox="0 0 2400 1600">
<defs>
  <clipPath id="clip840">
    <rect x="0" y="0" width="2400" height="1600"/>
  </clipPath>
</defs>
<path clip-path="url(#clip840)" d="
M0 1600 L2400 1600 L2400 0 L0 0  Z
  " fill="#ffffff" fill-rule="evenodd" fill-opacity="1"/>
<defs>
  <clipPath id="clip841">
    <rect x="480" y="0" width="1681" height="1600"/>
  </clipPath>
</defs>
<defs>
  <clipPath id="clip842">
    <rect x="270" y="47" width="2084" height="1381"/>
  </clipPath>
</defs>
<path clip-path="url(#clip840)" d="
M270.056 1426.44 L2352.76 1426.44 L2352.76 47.2441 L270.056 47.2441  Z
  " fill="#ffffff" fill-rule="evenodd" fill-opacity="1"/>
<defs>
  <clipPath id="clip843">
    <rect x="270" y="47" width="2084" height="1380"/>
  </clipPath>
</defs>
<polyline clip-path="url(#clip843)" style="stroke:#000000; stroke-linecap:butt; stroke-linejoin:round; stroke-width:2; stroke-opacity:0.1; fill:none" points="
  329,1426.44 329,47.2441 
  "/>
<polyline clip-path="url(#clip843)" style="stroke:#000000; stroke-linecap:butt; stroke-linejoin:round; stroke-width:2; stroke-opacity:0.1; fill:none" points="
  820.203,1426.44 820.203,47.2441 
  "/>
<polyline clip-path="url(#clip843)" style="stroke:#000000; stroke-linecap:butt; stroke-linejoin:round; stroke-width:2; stroke-opacity:0.1; fill:none" points="
  1311.41,1426.44 1311.41,47.2441 
  "/>
<polyline clip-path="url(#clip843)" style="stroke:#000000; stroke-linecap:butt; stroke-linejoin:round; stroke-width:2; stroke-opacity:0.1; fill:none" points="
  1802.61,1426.44 1802.61,47.2441 
  "/>
<polyline clip-path="url(#clip843)" style="stroke:#000000; stroke-linecap:butt; stroke-linejoin:round; stroke-width:2; stroke-opacity:0.1; fill:none" points="
  2293.81,1426.44 2293.81,47.2441 
  "/>
<polyline clip-path="url(#clip840)" style="stroke:#000000; stroke-linecap:butt; stroke-linejoin:round; stroke-width:4; stroke-opacity:1; fill:none" points="
  270.056,1426.44 2352.76,1426.44 
  "/>
<polyline clip-path="url(#clip840)" style="stroke:#000000; stroke-linecap:butt; stroke-linejoin:round; stroke-width:4; stroke-opacity:1; fill:none" points="
  329,1426.44 329,1407.54 
  "/>
<polyline clip-path="url(#clip840)" style="stroke:#000000; stroke-linecap:butt; stroke-linejoin:round; stroke-width:4; stroke-opacity:1; fill:none" points="
  820.203,1426.44 820.203,1407.54 
  "/>
<polyline clip-path="url(#clip840)" style="stroke:#000000; stroke-linecap:butt; stroke-linejoin:round; stroke-width:4; stroke-opacity:1; fill:none" points="
  1311.41,1426.44 1311.41,1407.54 
  "/>
<polyline clip-path="url(#clip840)" style="stroke:#000000; stroke-linecap:butt; stroke-linejoin:round; stroke-width:4; stroke-opacity:1; fill:none" points="
  1802.61,1426.44 1802.61,1407.54 
  "/>
<polyline clip-path="url(#clip840)" style="stroke:#000000; stroke-linecap:butt; stroke-linejoin:round; stroke-width:4; stroke-opacity:1; fill:none" points="
  2293.81,1426.44 2293.81,1407.54 
  "/>
<path clip-path="url(#clip840)" d="M291.304 1455.63 Q287.693 1455.63 285.864 1459.19 Q284.058 1462.74 284.058 1469.87 Q284.058 1476.97 285.864 1480.54 Q287.693 1484.08 291.304 1484.08 Q294.938 1484.08 296.743 1480.54 Q298.572 1476.97 298.572 1469.87 Q298.572 1462.74 296.743 1459.19 Q294.938 1455.63 291.304 1455.63 M291.304 1451.93 Q297.114 1451.93 300.169 1456.53 Q303.248 1461.12 303.248 1469.87 Q303.248 1478.59 300.169 1483.2 Q297.114 1487.78 291.304 1487.78 Q285.493 1487.78 282.415 1483.2 Q279.359 1478.59 279.359 1469.87 Q279.359 1461.12 282.415 1456.53 Q285.493 1451.93 291.304 1451.93 Z" fill="#000000" fill-rule="evenodd" fill-opacity="1" /><path clip-path="url(#clip840)" d="M311.466 1481.23 L316.35 1481.23 L316.35 1487.11 L311.466 1487.11 L311.466 1481.23 Z" fill="#000000" fill-rule="evenodd" fill-opacity="1" /><path clip-path="url(#clip840)" d="M336.535 1455.63 Q332.924 1455.63 331.095 1459.19 Q329.29 1462.74 329.29 1469.87 Q329.29 1476.97 331.095 1480.54 Q332.924 1484.08 336.535 1484.08 Q340.169 1484.08 341.975 1480.54 Q343.803 1476.97 343.803 1469.87 Q343.803 1462.74 341.975 1459.19 Q340.169 1455.63 336.535 1455.63 M336.535 1451.93 Q342.345 1451.93 345.401 1456.53 Q348.479 1461.12 348.479 1469.87 Q348.479 1478.59 345.401 1483.2 Q342.345 1487.78 336.535 1487.78 Q330.725 1487.78 327.646 1483.2 Q324.591 1478.59 324.591 1469.87 Q324.591 1461.12 327.646 1456.53 Q330.725 1451.93 336.535 1451.93 Z" fill="#000000" fill-rule="evenodd" fill-opacity="1" /><path clip-path="url(#clip840)" d="M366.697 1455.63 Q363.086 1455.63 361.257 1459.19 Q359.451 1462.74 359.451 1469.87 Q359.451 1476.97 361.257 1480.54 Q363.086 1484.08 366.697 1484.08 Q370.331 1484.08 372.137 1480.54 Q373.965 1476.97 373.965 1469.87 Q373.965 1462.74 372.137 1459.19 Q370.331 1455.63 366.697 1455.63 M366.697 1451.93 Q372.507 1451.93 375.562 1456.53 Q378.641 1461.12 378.641 1469.87 Q378.641 1478.59 375.562 1483.2 Q372.507 1487.78 366.697 1487.78 Q360.887 1487.78 357.808 1483.2 Q354.752 1478.59 354.752 1469.87 Q354.752 1461.12 357.808 1456.53 Q360.887 1451.93 366.697 1451.93 Z" fill="#000000" fill-rule="evenodd" fill-opacity="1" /><path clip-path="url(#clip840)" d="M783.004 1455.63 Q779.393 1455.63 777.564 1459.19 Q775.759 1462.74 775.759 1469.87 Q775.759 1476.97 777.564 1480.54 Q779.393 1484.08 783.004 1484.08 Q786.638 1484.08 788.444 1480.54 Q790.273 1476.97 790.273 1469.87 Q790.273 1462.74 788.444 1459.19 Q786.638 1455.63 783.004 1455.63 M783.004 1451.93 Q788.814 1451.93 791.87 1456.53 Q794.949 1461.12 794.949 1469.87 Q794.949 1478.59 791.87 1483.2 Q788.814 1487.78 783.004 1487.78 Q777.194 1487.78 774.115 1483.2 Q771.06 1478.59 771.06 1469.87 Q771.06 1461.12 774.115 1456.53 Q777.194 1451.93 783.004 1451.93 Z" fill="#000000" fill-rule="evenodd" fill-opacity="1" /><path clip-path="url(#clip840)" d="M803.166 1481.23 L808.05 1481.23 L808.05 1487.11 L803.166 1487.11 L803.166 1481.23 Z" fill="#000000" fill-rule="evenodd" fill-opacity="1" /><path clip-path="url(#clip840)" d="M822.263 1483.18 L838.583 1483.18 L838.583 1487.11 L816.638 1487.11 L816.638 1483.18 Q819.3 1480.42 823.884 1475.79 Q828.49 1471.14 829.671 1469.8 Q831.916 1467.27 832.796 1465.54 Q833.698 1463.78 833.698 1462.09 Q833.698 1459.33 831.754 1457.6 Q829.833 1455.86 826.731 1455.86 Q824.532 1455.86 822.078 1456.62 Q819.647 1457.39 816.87 1458.94 L816.87 1454.22 Q819.694 1453.08 822.147 1452.5 Q824.601 1451.93 826.638 1451.93 Q832.009 1451.93 835.203 1454.61 Q838.397 1457.3 838.397 1461.79 Q838.397 1463.92 837.587 1465.84 Q836.8 1467.74 834.694 1470.33 Q834.115 1471 831.013 1474.22 Q827.911 1477.41 822.263 1483.18 Z" fill="#000000" fill-rule="evenodd" fill-opacity="1" /><path clip-path="url(#clip840)" d="M848.444 1452.55 L866.8 1452.55 L866.8 1456.49 L852.726 1456.49 L852.726 1464.96 Q853.745 1464.61 854.763 1464.45 Q855.782 1464.26 856.8 1464.26 Q862.587 1464.26 865.967 1467.43 Q869.346 1470.61 869.346 1476.02 Q869.346 1481.6 865.874 1484.7 Q862.402 1487.78 856.082 1487.78 Q853.907 1487.78 851.638 1487.41 Q849.393 1487.04 846.985 1486.3 L846.985 1481.6 Q849.069 1482.74 851.291 1483.29 Q853.513 1483.85 855.99 1483.85 Q859.994 1483.85 862.332 1481.74 Q864.67 1479.63 864.67 1476.02 Q864.67 1472.41 862.332 1470.3 Q859.994 1468.2 855.99 1468.2 Q854.115 1468.2 852.24 1468.62 Q850.388 1469.03 848.444 1469.91 L848.444 1452.55 Z" fill="#000000" fill-rule="evenodd" fill-opacity="1" /><path clip-path="url(#clip840)" d="M1273.71 1455.63 Q1270.1 1455.63 1268.27 1459.19 Q1266.46 1462.74 1266.46 1469.87 Q1266.46 1476.97 1268.27 1480.54 Q1270.1 1484.08 1273.71 1484.08 Q1277.34 1484.08 1279.15 1480.54 Q1280.98 1476.97 1280.98 1469.87 Q1280.98 1462.74 1279.15 1459.19 Q1277.34 1455.63 1273.71 1455.63 M1273.71 1451.93 Q1279.52 1451.93 1282.58 1456.53 Q1285.65 1461.12 1285.65 1469.87 Q1285.65 1478.59 1282.58 1483.2 Q1279.52 1487.78 1273.71 1487.78 Q1267.9 1487.78 1264.82 1483.2 Q1261.76 1478.59 1261.76 1469.87 Q1261.76 1461.12 1264.82 1456.53 Q1267.9 1451.93 1273.71 1451.93 Z" fill="#000000" fill-rule="evenodd" fill-opacity="1" /><path clip-path="url(#clip840)" d="M1293.87 1481.23 L1298.76 1481.23 L1298.76 1487.11 L1293.87 1487.11 L1293.87 1481.23 Z" fill="#000000" fill-rule="evenodd" fill-opacity="1" /><path clip-path="url(#clip840)" d="M1308.99 1452.55 L1327.34 1452.55 L1327.34 1456.49 L1313.27 1456.49 L1313.27 1464.96 Q1314.29 1464.61 1315.31 1464.45 Q1316.32 1464.26 1317.34 1464.26 Q1323.13 1464.26 1326.51 1467.43 Q1329.89 1470.61 1329.89 1476.02 Q1329.89 1481.6 1326.42 1484.7 Q1322.95 1487.78 1316.63 1487.78 Q1314.45 1487.78 1312.18 1487.41 Q1309.94 1487.04 1307.53 1486.3 L1307.53 1481.6 Q1309.61 1482.74 1311.83 1483.29 Q1314.06 1483.85 1316.53 1483.85 Q1320.54 1483.85 1322.88 1481.74 Q1325.21 1479.63 1325.21 1476.02 Q1325.21 1472.41 1322.88 1470.3 Q1320.54 1468.2 1316.53 1468.2 Q1314.66 1468.2 1312.78 1468.62 Q1310.93 1469.03 1308.99 1469.91 L1308.99 1452.55 Z" fill="#000000" fill-rule="evenodd" fill-opacity="1" /><path clip-path="url(#clip840)" d="M1349.1 1455.63 Q1345.49 1455.63 1343.66 1459.19 Q1341.86 1462.74 1341.86 1469.87 Q1341.86 1476.97 1343.66 1480.54 Q1345.49 1484.08 1349.1 1484.08 Q1352.74 1484.08 1354.54 1480.54 Q1356.37 1476.97 1356.37 1469.87 Q1356.37 1462.74 1354.54 1459.19 Q1352.74 1455.63 1349.1 1455.63 M1349.1 1451.93 Q1354.91 1451.93 1357.97 1456.53 Q1361.05 1461.12 1361.05 1469.87 Q1361.05 1478.59 1357.97 1483.2 Q1354.91 1487.78 1349.1 1487.78 Q1343.29 1487.78 1340.21 1483.2 Q1337.16 1478.59 1337.16 1469.87 Q1337.16 1461.12 1340.21 1456.53 Q1343.29 1451.93 1349.1 1451.93 Z" fill="#000000" fill-rule="evenodd" fill-opacity="1" /><path clip-path="url(#clip840)" d="M1765.41 1455.63 Q1761.8 1455.63 1759.97 1459.19 Q1758.16 1462.74 1758.16 1469.87 Q1758.16 1476.97 1759.97 1480.54 Q1761.8 1484.08 1765.41 1484.08 Q1769.04 1484.08 1770.85 1480.54 Q1772.68 1476.97 1772.68 1469.87 Q1772.68 1462.74 1770.85 1459.19 Q1769.04 1455.63 1765.41 1455.63 M1765.41 1451.93 Q1771.22 1451.93 1774.28 1456.53 Q1777.35 1461.12 1777.35 1469.87 Q1777.35 1478.59 1774.28 1483.2 Q1771.22 1487.78 1765.41 1487.78 Q1759.6 1487.78 1756.52 1483.2 Q1753.47 1478.59 1753.47 1469.87 Q1753.47 1461.12 1756.52 1456.53 Q1759.6 1451.93 1765.41 1451.93 Z" fill="#000000" fill-rule="evenodd" fill-opacity="1" /><path clip-path="url(#clip840)" d="M1785.57 1481.23 L1790.46 1481.23 L1790.46 1487.11 L1785.57 1487.11 L1785.57 1481.23 Z" fill="#000000" fill-rule="evenodd" fill-opacity="1" /><path clip-path="url(#clip840)" d="M1799.46 1452.55 L1821.68 1452.55 L1821.68 1454.54 L1809.14 1487.11 L1804.25 1487.11 L1816.06 1456.49 L1799.46 1456.49 L1799.46 1452.55 Z" fill="#000000" fill-rule="evenodd" fill-opacity="1" /><path clip-path="url(#clip840)" d="M1830.85 1452.55 L1849.21 1452.55 L1849.21 1456.49 L1835.13 1456.49 L1835.13 1464.96 Q1836.15 1464.61 1837.17 1464.45 Q1838.19 1464.26 1839.21 1464.26 Q1844.99 1464.26 1848.37 1467.43 Q1851.75 1470.61 1851.75 1476.02 Q1851.75 1481.6 1848.28 1484.7 Q1844.81 1487.78 1838.49 1487.78 Q1836.31 1487.78 1834.04 1487.41 Q1831.8 1487.04 1829.39 1486.3 L1829.39 1481.6 Q1831.47 1482.74 1833.7 1483.29 Q1835.92 1483.85 1838.4 1483.85 Q1842.4 1483.85 1844.74 1481.74 Q1847.08 1479.63 1847.08 1476.02 Q1847.08 1472.41 1844.74 1470.3 Q1842.4 1468.2 1838.4 1468.2 Q1836.52 1468.2 1834.65 1468.62 Q1832.79 1469.03 1830.85 1469.91 L1830.85 1452.55 Z" fill="#000000" fill-rule="evenodd" fill-opacity="1" /><path clip-path="url(#clip840)" d="M2245.88 1483.18 L2253.52 1483.18 L2253.52 1456.81 L2245.21 1458.48 L2245.21 1454.22 L2253.48 1452.55 L2258.15 1452.55 L2258.15 1483.18 L2265.79 1483.18 L2265.79 1487.11 L2245.88 1487.11 L2245.88 1483.18 Z" fill="#000000" fill-rule="evenodd" fill-opacity="1" /><path clip-path="url(#clip840)" d="M2275.24 1481.23 L2280.12 1481.23 L2280.12 1487.11 L2275.24 1487.11 L2275.24 1481.23 Z" fill="#000000" fill-rule="evenodd" fill-opacity="1" /><path clip-path="url(#clip840)" d="M2300.3 1455.63 Q2296.69 1455.63 2294.86 1459.19 Q2293.06 1462.74 2293.06 1469.87 Q2293.06 1476.97 2294.86 1480.54 Q2296.69 1484.08 2300.3 1484.08 Q2303.94 1484.08 2305.74 1480.54 Q2307.57 1476.97 2307.57 1469.87 Q2307.57 1462.74 2305.74 1459.19 Q2303.94 1455.63 2300.3 1455.63 M2300.3 1451.93 Q2306.11 1451.93 2309.17 1456.53 Q2312.25 1461.12 2312.25 1469.87 Q2312.25 1478.59 2309.17 1483.2 Q2306.11 1487.78 2300.3 1487.78 Q2294.49 1487.78 2291.42 1483.2 Q2288.36 1478.59 2288.36 1469.87 Q2288.36 1461.12 2291.42 1456.53 Q2294.49 1451.93 2300.3 1451.93 Z" fill="#000000" fill-rule="evenodd" fill-opacity="1" /><path clip-path="url(#clip840)" d="M2330.47 1455.63 Q2326.86 1455.63 2325.03 1459.19 Q2323.22 1462.74 2323.22 1469.87 Q2323.22 1476.97 2325.03 1480.54 Q2326.86 1484.08 2330.47 1484.08 Q2334.1 1484.08 2335.91 1480.54 Q2337.73 1476.97 2337.73 1469.87 Q2337.73 1462.74 2335.91 1459.19 Q2334.1 1455.63 2330.47 1455.63 M2330.47 1451.93 Q2336.28 1451.93 2339.33 1456.53 Q2342.41 1461.12 2342.41 1469.87 Q2342.41 1478.59 2339.33 1483.2 Q2336.28 1487.78 2330.47 1487.78 Q2324.66 1487.78 2321.58 1483.2 Q2318.52 1478.59 2318.52 1469.87 Q2318.52 1461.12 2321.58 1456.53 Q2324.66 1451.93 2330.47 1451.93 Z" fill="#000000" fill-rule="evenodd" fill-opacity="1" /><path clip-path="url(#clip840)" d="M1298.62 1529.02 Q1298.62 1530.86 1297.5 1531.95 Q1296.4 1533.05 1295.02 1533.05 Q1293.79 1533.05 1293.15 1532.34 Q1292.5 1531.63 1292.5 1530.73 Q1292.5 1530.34 1292.66 1529.86 Q1292.83 1529.34 1293.18 1528.73 Q1293.57 1528.12 1294.37 1527.67 Q1295.18 1527.22 1296.27 1527.15 Q1296.05 1526.93 1295.98 1526.9 Q1295.5 1526.51 1294.6 1526.38 Q1294.47 1526.32 1294.02 1526.32 Q1291.79 1526.32 1289.54 1527.96 Q1287.32 1529.57 1284.58 1532.63 Q1281.13 1536.2 1278.91 1537.52 Q1288.67 1538.81 1288.67 1544.45 Q1288.67 1545.38 1288.41 1546.51 Q1287.9 1548.64 1287.9 1550.18 Q1287.9 1553.27 1289.99 1553.27 Q1292.02 1553.27 1293.31 1551.21 Q1294.63 1549.15 1295.72 1545.13 Q1295.88 1544.38 1296.05 1544.16 Q1296.21 1543.93 1296.66 1543.93 Q1297.46 1543.93 1297.46 1544.58 Q1296.72 1548.35 1295.08 1551.24 Q1292.99 1554.75 1289.86 1554.75 Q1287.25 1554.75 1285.51 1552.95 Q1283.81 1551.12 1283.81 1548.22 Q1283.81 1547.51 1284.07 1545.9 Q1284.26 1545.25 1284.26 1544.51 Q1284.26 1543 1283.42 1541.87 Q1282.58 1540.71 1281.23 1540.13 Q1279.88 1539.55 1278.75 1539.3 Q1277.66 1539.01 1276.59 1538.91 Q1273.37 1552.53 1272.92 1553.37 Q1272.63 1553.95 1271.99 1554.34 Q1271.34 1554.75 1270.67 1554.75 Q1270.02 1554.75 1269.38 1554.3 Q1268.77 1553.89 1268.77 1552.89 Q1268.77 1552.37 1269.03 1551.44 L1278.59 1513.43 L1278.78 1512.15 Q1278.78 1511.76 1278.62 1511.57 Q1278.49 1511.34 1277.72 1511.18 Q1276.98 1511.02 1275.5 1511.02 Q1274.89 1511.02 1274.6 1510.99 Q1274.34 1510.95 1274.11 1510.79 Q1273.89 1510.6 1273.89 1510.21 Q1273.89 1509.67 1274.11 1509.38 Q1274.37 1509.05 1274.56 1508.99 Q1274.76 1508.93 1275.14 1508.89 Q1275.69 1508.86 1277.53 1508.7 Q1279.36 1508.51 1280.94 1508.38 Q1282.52 1508.25 1283.2 1508.25 Q1283.58 1508.25 1283.78 1508.44 Q1284 1508.6 1284.03 1508.8 L1284.07 1508.96 L1277.21 1536.78 Q1280.04 1535.66 1284.52 1530.66 Q1289.7 1524.87 1294.15 1524.87 Q1296.24 1524.87 1297.43 1526.16 Q1298.62 1527.41 1298.62 1529.02 Z" fill="#000000" fill-rule="evenodd" fill-opacity="1" /><path clip-path="url(#clip840)" d="M1305.37 1565.59 Q1305.37 1564.21 1306.11 1563.69 Q1306.86 1563.15 1307.65 1563.15 Q1308.71 1563.15 1309.32 1563.83 Q1309.95 1564.48 1309.95 1565.41 Q1309.95 1566.33 1309.32 1567.01 Q1308.71 1567.66 1307.65 1567.66 Q1307.13 1567.66 1306.86 1567.57 Q1307.47 1569.69 1309.32 1571.22 Q1311.19 1572.75 1313.64 1572.75 Q1316.73 1572.75 1318.58 1569.76 Q1319.69 1567.82 1319.69 1563.42 Q1319.69 1559.54 1318.85 1557.6 Q1317.57 1554.65 1314.93 1554.65 Q1311.19 1554.65 1308.98 1557.88 Q1308.71 1558.28 1308.39 1558.3 Q1307.94 1558.3 1307.83 1558.06 Q1307.74 1557.79 1307.74 1557.09 L1307.74 1543.42 Q1307.74 1542.32 1308.19 1542.32 Q1308.37 1542.32 1308.75 1542.46 Q1311.66 1543.74 1314.88 1543.76 Q1318.2 1543.76 1321.17 1542.41 Q1321.4 1542.27 1321.53 1542.27 Q1321.99 1542.27 1322.01 1542.79 Q1322.01 1542.97 1321.62 1543.51 Q1321.26 1544.03 1320.47 1544.73 Q1319.69 1545.41 1318.67 1546.06 Q1317.66 1546.72 1316.17 1547.17 Q1314.7 1547.6 1313.08 1547.6 Q1311.14 1547.6 1309.16 1546.99 L1309.16 1555.98 Q1311.55 1553.64 1315.02 1553.64 Q1318.72 1553.64 1321.26 1556.61 Q1323.81 1559.59 1323.81 1563.74 Q1323.81 1568.09 1320.79 1571.06 Q1317.79 1574.04 1313.73 1574.04 Q1310.04 1574.04 1307.69 1571.4 Q1305.37 1568.76 1305.37 1565.59 Z" fill="#000000" fill-rule="evenodd" fill-opacity="1" /><path clip-path="url(#clip840)" d="M1335.89 1510.21 Q1335.89 1508.57 1336.89 1507.9 Q1337.89 1507.19 1338.95 1507.19 Q1340.27 1507.19 1341.11 1507.99 Q1341.98 1508.76 1341.98 1510.21 Q1341.98 1510.86 1341.92 1511.21 L1339.73 1531.12 L1338.21 1531.12 L1335.96 1511.21 Q1335.89 1510.86 1335.89 1510.21 Z" fill="#000000" fill-rule="evenodd" fill-opacity="1" /><polyline clip-path="url(#clip843)" style="stroke:#000000; stroke-linecap:butt; stroke-linejoin:round; stroke-width:2; stroke-opacity:0.1; fill:none" points="
  270.056,1202.2 2352.76,1202.2 
  "/>
<polyline clip-path="url(#clip843)" style="stroke:#000000; stroke-linecap:butt; stroke-linejoin:round; stroke-width:2; stroke-opacity:0.1; fill:none" points="
  270.056,926.169 2352.76,926.169 
  "/>
<polyline clip-path="url(#clip843)" style="stroke:#000000; stroke-linecap:butt; stroke-linejoin:round; stroke-width:2; stroke-opacity:0.1; fill:none" points="
  270.056,650.136 2352.76,650.136 
  "/>
<polyline clip-path="url(#clip843)" style="stroke:#000000; stroke-linecap:butt; stroke-linejoin:round; stroke-width:2; stroke-opacity:0.1; fill:none" points="
  270.056,374.102 2352.76,374.102 
  "/>
<polyline clip-path="url(#clip843)" style="stroke:#000000; stroke-linecap:butt; stroke-linejoin:round; stroke-width:2; stroke-opacity:0.1; fill:none" points="
  270.056,98.0689 2352.76,98.0689 
  "/>
<polyline clip-path="url(#clip840)" style="stroke:#000000; stroke-linecap:butt; stroke-linejoin:round; stroke-width:4; stroke-opacity:1; fill:none" points="
  270.056,1426.44 270.056,47.2441 
  "/>
<polyline clip-path="url(#clip840)" style="stroke:#000000; stroke-linecap:butt; stroke-linejoin:round; stroke-width:4; stroke-opacity:1; fill:none" points="
  270.056,1202.2 288.954,1202.2 
  "/>
<polyline clip-path="url(#clip840)" style="stroke:#000000; stroke-linecap:butt; stroke-linejoin:round; stroke-width:4; stroke-opacity:1; fill:none" points="
  270.056,926.169 288.954,926.169 
  "/>
<polyline clip-path="url(#clip840)" style="stroke:#000000; stroke-linecap:butt; stroke-linejoin:round; stroke-width:4; stroke-opacity:1; fill:none" points="
  270.056,650.136 288.954,650.136 
  "/>
<polyline clip-path="url(#clip840)" style="stroke:#000000; stroke-linecap:butt; stroke-linejoin:round; stroke-width:4; stroke-opacity:1; fill:none" points="
  270.056,374.102 288.954,374.102 
  "/>
<polyline clip-path="url(#clip840)" style="stroke:#000000; stroke-linecap:butt; stroke-linejoin:round; stroke-width:4; stroke-opacity:1; fill:none" points="
  270.056,98.0689 288.954,98.0689 
  "/>
<path clip-path="url(#clip840)" d="M125.654 1215.55 L141.973 1215.55 L141.973 1219.48 L120.029 1219.48 L120.029 1215.55 Q122.691 1212.79 127.274 1208.16 Q131.88 1203.51 133.061 1202.17 Q135.306 1199.64 136.186 1197.91 Q137.089 1196.15 137.089 1194.46 Q137.089 1191.7 135.144 1189.97 Q133.223 1188.23 130.121 1188.23 Q127.922 1188.23 125.468 1189 Q123.038 1189.76 120.26 1191.31 L120.26 1186.59 Q123.084 1185.45 125.538 1184.88 Q127.992 1184.3 130.029 1184.3 Q135.399 1184.3 138.593 1186.98 Q141.788 1189.67 141.788 1194.16 Q141.788 1196.29 140.978 1198.21 Q140.191 1200.11 138.084 1202.7 Q137.505 1203.37 134.404 1206.59 Q131.302 1209.78 125.654 1215.55 Z" fill="#000000" fill-rule="evenodd" fill-opacity="1" /><path clip-path="url(#clip840)" d="M161.788 1188 Q158.177 1188 156.348 1191.57 Q154.542 1195.11 154.542 1202.24 Q154.542 1209.34 156.348 1212.91 Q158.177 1216.45 161.788 1216.45 Q165.422 1216.45 167.228 1212.91 Q169.056 1209.34 169.056 1202.24 Q169.056 1195.11 167.228 1191.57 Q165.422 1188 161.788 1188 M161.788 1184.3 Q167.598 1184.3 170.653 1188.9 Q173.732 1193.49 173.732 1202.24 Q173.732 1210.96 170.653 1215.57 Q167.598 1220.15 161.788 1220.15 Q155.978 1220.15 152.899 1215.57 Q149.843 1210.96 149.843 1202.24 Q149.843 1193.49 152.899 1188.9 Q155.978 1184.3 161.788 1184.3 Z" fill="#000000" fill-rule="evenodd" fill-opacity="1" /><path clip-path="url(#clip840)" d="M191.95 1188 Q188.339 1188 186.51 1191.57 Q184.704 1195.11 184.704 1202.24 Q184.704 1209.34 186.51 1212.91 Q188.339 1216.45 191.95 1216.45 Q195.584 1216.45 197.389 1212.91 Q199.218 1209.34 199.218 1202.24 Q199.218 1195.11 197.389 1191.57 Q195.584 1188 191.95 1188 M191.95 1184.3 Q197.76 1184.3 200.815 1188.9 Q203.894 1193.49 203.894 1202.24 Q203.894 1210.96 200.815 1215.57 Q197.76 1220.15 191.95 1220.15 Q186.139 1220.15 183.061 1215.57 Q180.005 1210.96 180.005 1202.24 Q180.005 1193.49 183.061 1188.9 Q186.139 1184.3 191.95 1184.3 Z" fill="#000000" fill-rule="evenodd" fill-opacity="1" /><path clip-path="url(#clip840)" d="M222.111 1188 Q218.5 1188 216.672 1191.57 Q214.866 1195.11 214.866 1202.24 Q214.866 1209.34 216.672 1212.91 Q218.5 1216.45 222.111 1216.45 Q225.746 1216.45 227.551 1212.91 Q229.38 1209.34 229.38 1202.24 Q229.38 1195.11 227.551 1191.57 Q225.746 1188 222.111 1188 M222.111 1184.3 Q227.922 1184.3 230.977 1188.9 Q234.056 1193.49 234.056 1202.24 Q234.056 1210.96 230.977 1215.57 Q227.922 1220.15 222.111 1220.15 Q216.301 1220.15 213.223 1215.57 Q210.167 1210.96 210.167 1202.24 Q210.167 1193.49 213.223 1188.9 Q216.301 1184.3 222.111 1184.3 Z" fill="#000000" fill-rule="evenodd" fill-opacity="1" /><path clip-path="url(#clip840)" d="M125.654 939.514 L141.973 939.514 L141.973 943.449 L120.029 943.449 L120.029 939.514 Q122.691 936.759 127.274 932.129 Q131.88 927.477 133.061 926.134 Q135.306 923.611 136.186 921.875 Q137.089 920.116 137.089 918.426 Q137.089 915.671 135.144 913.935 Q133.223 912.199 130.121 912.199 Q127.922 912.199 125.468 912.963 Q123.038 913.727 120.26 915.278 L120.26 910.555 Q123.084 909.421 125.538 908.843 Q127.992 908.264 130.029 908.264 Q135.399 908.264 138.593 910.949 Q141.788 913.634 141.788 918.125 Q141.788 920.255 140.978 922.176 Q140.191 924.074 138.084 926.667 Q137.505 927.338 134.404 930.555 Q131.302 933.75 125.654 939.514 Z" fill="#000000" fill-rule="evenodd" fill-opacity="1" /><path clip-path="url(#clip840)" d="M152.598 939.514 L160.237 939.514 L160.237 913.148 L151.927 914.815 L151.927 910.555 L160.191 908.889 L164.866 908.889 L164.866 939.514 L172.505 939.514 L172.505 943.449 L152.598 943.449 L152.598 939.514 Z" fill="#000000" fill-rule="evenodd" fill-opacity="1" /><path clip-path="url(#clip840)" d="M191.95 911.968 Q188.339 911.968 186.51 915.532 Q184.704 919.074 184.704 926.204 Q184.704 933.31 186.51 936.875 Q188.339 940.416 191.95 940.416 Q195.584 940.416 197.389 936.875 Q199.218 933.31 199.218 926.204 Q199.218 919.074 197.389 915.532 Q195.584 911.968 191.95 911.968 M191.95 908.264 Q197.76 908.264 200.815 912.87 Q203.894 917.454 203.894 926.204 Q203.894 934.93 200.815 939.537 Q197.76 944.12 191.95 944.12 Q186.139 944.12 183.061 939.537 Q180.005 934.93 180.005 926.204 Q180.005 917.454 183.061 912.87 Q186.139 908.264 191.95 908.264 Z" fill="#000000" fill-rule="evenodd" fill-opacity="1" /><path clip-path="url(#clip840)" d="M222.111 911.968 Q218.5 911.968 216.672 915.532 Q214.866 919.074 214.866 926.204 Q214.866 933.31 216.672 936.875 Q218.5 940.416 222.111 940.416 Q225.746 940.416 227.551 936.875 Q229.38 933.31 229.38 926.204 Q229.38 919.074 227.551 915.532 Q225.746 911.968 222.111 911.968 M222.111 908.264 Q227.922 908.264 230.977 912.87 Q234.056 917.454 234.056 926.204 Q234.056 934.93 230.977 939.537 Q227.922 944.12 222.111 944.12 Q216.301 944.12 213.223 939.537 Q210.167 934.93 210.167 926.204 Q210.167 917.454 213.223 912.87 Q216.301 908.264 222.111 908.264 Z" fill="#000000" fill-rule="evenodd" fill-opacity="1" /><path clip-path="url(#clip840)" d="M125.654 663.48 L141.973 663.48 L141.973 667.416 L120.029 667.416 L120.029 663.48 Q122.691 660.726 127.274 656.096 Q131.88 651.443 133.061 650.101 Q135.306 647.578 136.186 645.842 Q137.089 644.082 137.089 642.392 Q137.089 639.638 135.144 637.902 Q133.223 636.166 130.121 636.166 Q127.922 636.166 125.468 636.93 Q123.038 637.693 120.26 639.244 L120.26 634.522 Q123.084 633.388 125.538 632.809 Q127.992 632.231 130.029 632.231 Q135.399 632.231 138.593 634.916 Q141.788 637.601 141.788 642.092 Q141.788 644.221 140.978 646.142 Q140.191 648.041 138.084 650.633 Q137.505 651.304 134.404 654.522 Q131.302 657.716 125.654 663.48 Z" fill="#000000" fill-rule="evenodd" fill-opacity="1" /><path clip-path="url(#clip840)" d="M155.816 663.48 L172.135 663.48 L172.135 667.416 L150.191 667.416 L150.191 663.48 Q152.853 660.726 157.436 656.096 Q162.042 651.443 163.223 650.101 Q165.468 647.578 166.348 645.842 Q167.251 644.082 167.251 642.392 Q167.251 639.638 165.306 637.902 Q163.385 636.166 160.283 636.166 Q158.084 636.166 155.63 636.93 Q153.2 637.693 150.422 639.244 L150.422 634.522 Q153.246 633.388 155.7 632.809 Q158.153 632.231 160.191 632.231 Q165.561 632.231 168.755 634.916 Q171.95 637.601 171.95 642.092 Q171.95 644.221 171.14 646.142 Q170.353 648.041 168.246 650.633 Q167.667 651.304 164.565 654.522 Q161.464 657.716 155.816 663.48 Z" fill="#000000" fill-rule="evenodd" fill-opacity="1" /><path clip-path="url(#clip840)" d="M191.95 635.934 Q188.339 635.934 186.51 639.499 Q184.704 643.041 184.704 650.17 Q184.704 657.277 186.51 660.841 Q188.339 664.383 191.95 664.383 Q195.584 664.383 197.389 660.841 Q199.218 657.277 199.218 650.17 Q199.218 643.041 197.389 639.499 Q195.584 635.934 191.95 635.934 M191.95 632.231 Q197.76 632.231 200.815 636.837 Q203.894 641.42 203.894 650.17 Q203.894 658.897 200.815 663.503 Q197.76 668.087 191.95 668.087 Q186.139 668.087 183.061 663.503 Q180.005 658.897 180.005 650.17 Q180.005 641.42 183.061 636.837 Q186.139 632.231 191.95 632.231 Z" fill="#000000" fill-rule="evenodd" fill-opacity="1" /><path clip-path="url(#clip840)" d="M222.111 635.934 Q218.5 635.934 216.672 639.499 Q214.866 643.041 214.866 650.17 Q214.866 657.277 216.672 660.841 Q218.5 664.383 222.111 664.383 Q225.746 664.383 227.551 660.841 Q229.38 657.277 229.38 650.17 Q229.38 643.041 227.551 639.499 Q225.746 635.934 222.111 635.934 M222.111 632.231 Q227.922 632.231 230.977 636.837 Q234.056 641.42 234.056 650.17 Q234.056 658.897 230.977 663.503 Q227.922 668.087 222.111 668.087 Q216.301 668.087 213.223 663.503 Q210.167 658.897 210.167 650.17 Q210.167 641.42 213.223 636.837 Q216.301 632.231 222.111 632.231 Z" fill="#000000" fill-rule="evenodd" fill-opacity="1" /><path clip-path="url(#clip840)" d="M125.654 387.447 L141.973 387.447 L141.973 391.382 L120.029 391.382 L120.029 387.447 Q122.691 384.692 127.274 380.063 Q131.88 375.41 133.061 374.067 Q135.306 371.544 136.186 369.808 Q137.089 368.049 137.089 366.359 Q137.089 363.605 135.144 361.868 Q133.223 360.132 130.121 360.132 Q127.922 360.132 125.468 360.896 Q123.038 361.66 120.26 363.211 L120.26 358.489 Q123.084 357.355 125.538 356.776 Q127.992 356.197 130.029 356.197 Q135.399 356.197 138.593 358.882 Q141.788 361.568 141.788 366.058 Q141.788 368.188 140.978 370.109 Q140.191 372.007 138.084 374.6 Q137.505 375.271 134.404 378.489 Q131.302 381.683 125.654 387.447 Z" fill="#000000" fill-rule="evenodd" fill-opacity="1" /><path clip-path="url(#clip840)" d="M165.954 372.748 Q169.311 373.466 171.186 375.734 Q173.084 378.003 173.084 381.336 Q173.084 386.452 169.565 389.253 Q166.047 392.053 159.566 392.053 Q157.39 392.053 155.075 391.614 Q152.783 391.197 150.329 390.341 L150.329 385.827 Q152.274 386.961 154.589 387.54 Q156.904 388.118 159.427 388.118 Q163.825 388.118 166.116 386.382 Q168.431 384.646 168.431 381.336 Q168.431 378.28 166.278 376.567 Q164.149 374.831 160.329 374.831 L156.302 374.831 L156.302 370.989 L160.515 370.989 Q163.964 370.989 165.792 369.623 Q167.621 368.234 167.621 365.642 Q167.621 362.98 165.723 361.568 Q163.848 360.132 160.329 360.132 Q158.408 360.132 156.209 360.549 Q154.01 360.966 151.371 361.845 L151.371 357.679 Q154.033 356.938 156.348 356.568 Q158.686 356.197 160.746 356.197 Q166.07 356.197 169.172 358.628 Q172.274 361.035 172.274 365.155 Q172.274 368.026 170.63 370.017 Q168.987 371.984 165.954 372.748 Z" fill="#000000" fill-rule="evenodd" fill-opacity="1" /><path clip-path="url(#clip840)" d="M191.95 359.901 Q188.339 359.901 186.51 363.466 Q184.704 367.007 184.704 374.137 Q184.704 381.243 186.51 384.808 Q188.339 388.35 191.95 388.35 Q195.584 388.35 197.389 384.808 Q199.218 381.243 199.218 374.137 Q199.218 367.007 197.389 363.466 Q195.584 359.901 191.95 359.901 M191.95 356.197 Q197.76 356.197 200.815 360.804 Q203.894 365.387 203.894 374.137 Q203.894 382.864 200.815 387.47 Q197.76 392.053 191.95 392.053 Q186.139 392.053 183.061 387.47 Q180.005 382.864 180.005 374.137 Q180.005 365.387 183.061 360.804 Q186.139 356.197 191.95 356.197 Z" fill="#000000" fill-rule="evenodd" fill-opacity="1" /><path clip-path="url(#clip840)" d="M222.111 359.901 Q218.5 359.901 216.672 363.466 Q214.866 367.007 214.866 374.137 Q214.866 381.243 216.672 384.808 Q218.5 388.35 222.111 388.35 Q225.746 388.35 227.551 384.808 Q229.38 381.243 229.38 374.137 Q229.38 367.007 227.551 363.466 Q225.746 359.901 222.111 359.901 M222.111 356.197 Q227.922 356.197 230.977 360.804 Q234.056 365.387 234.056 374.137 Q234.056 382.864 230.977 387.47 Q227.922 392.053 222.111 392.053 Q216.301 392.053 213.223 387.47 Q210.167 382.864 210.167 374.137 Q210.167 365.387 213.223 360.804 Q216.301 356.197 222.111 356.197 Z" fill="#000000" fill-rule="evenodd" fill-opacity="1" /><path clip-path="url(#clip840)" d="M125.654 111.414 L141.973 111.414 L141.973 115.349 L120.029 115.349 L120.029 111.414 Q122.691 108.659 127.274 104.029 Q131.88 99.3767 133.061 98.0341 Q135.306 95.511 136.186 93.7749 Q137.089 92.0157 137.089 90.3258 Q137.089 87.5712 135.144 85.8351 Q133.223 84.099 130.121 84.099 Q127.922 84.099 125.468 84.8629 Q123.038 85.6268 120.26 87.1777 L120.26 82.4555 Q123.084 81.3213 125.538 80.7426 Q127.992 80.1639 130.029 80.1639 Q135.399 80.1639 138.593 82.849 Q141.788 85.5342 141.788 90.0249 Q141.788 92.1545 140.978 94.0758 Q140.191 95.974 138.084 98.5665 Q137.505 99.2378 134.404 102.455 Q131.302 105.65 125.654 111.414 Z" fill="#000000" fill-rule="evenodd" fill-opacity="1" /><path clip-path="url(#clip840)" d="M164.635 84.8629 L152.829 103.312 L164.635 103.312 L164.635 84.8629 M163.408 80.7889 L169.288 80.7889 L169.288 103.312 L174.218 103.312 L174.218 107.201 L169.288 107.201 L169.288 115.349 L164.635 115.349 L164.635 107.201 L149.033 107.201 L149.033 102.687 L163.408 80.7889 Z" fill="#000000" fill-rule="evenodd" fill-opacity="1" /><path clip-path="url(#clip840)" d="M191.95 83.8676 Q188.339 83.8676 186.51 87.4323 Q184.704 90.974 184.704 98.1036 Q184.704 105.21 186.51 108.775 Q188.339 112.316 191.95 112.316 Q195.584 112.316 197.389 108.775 Q199.218 105.21 199.218 98.1036 Q199.218 90.974 197.389 87.4323 Q195.584 83.8676 191.95 83.8676 M191.95 80.1639 Q197.76 80.1639 200.815 84.7703 Q203.894 89.3536 203.894 98.1036 Q203.894 106.83 200.815 111.437 Q197.76 116.02 191.95 116.02 Q186.139 116.02 183.061 111.437 Q180.005 106.83 180.005 98.1036 Q180.005 89.3536 183.061 84.7703 Q186.139 80.1639 191.95 80.1639 Z" fill="#000000" fill-rule="evenodd" fill-opacity="1" /><path clip-path="url(#clip840)" d="M222.111 83.8676 Q218.5 83.8676 216.672 87.4323 Q214.866 90.974 214.866 98.1036 Q214.866 105.21 216.672 108.775 Q218.5 112.316 222.111 112.316 Q225.746 112.316 227.551 108.775 Q229.38 105.21 229.38 98.1036 Q229.38 90.974 227.551 87.4323 Q225.746 83.8676 222.111 83.8676 M222.111 80.1639 Q227.922 80.1639 230.977 84.7703 Q234.056 89.3536 234.056 98.1036 Q234.056 106.83 230.977 111.437 Q227.922 116.02 222.111 116.02 Q216.301 116.02 213.223 111.437 Q210.167 106.83 210.167 98.1036 Q210.167 89.3536 213.223 84.7703 Q216.301 80.1639 222.111 80.1639 Z" fill="#000000" fill-rule="evenodd" fill-opacity="1" /><path clip-path="url(#clip840)" d="M36.5483 812.509 Q37.3857 812.509 39.0282 812.735 Q40.6707 812.96 43.0539 813.508 Q45.4371 814.055 47.9492 814.86 Q50.4612 815.633 52.9733 816.857 Q55.4531 818.081 57.4177 819.53 Q59.3823 820.979 60.6061 823.008 Q61.8299 825.037 61.8299 827.324 Q61.8299 828.387 61.6689 829.417 Q61.5078 830.448 60.9926 831.736 Q60.4773 833.024 59.6399 833.958 Q58.7703 834.892 57.2245 835.536 Q55.6786 836.181 53.6496 836.181 Q51.5562 836.181 48.7543 835.408 Q45.9202 834.602 40.1232 832.412 Q37.128 831.285 35.4855 831.285 Q34.7448 831.285 34.2939 831.446 Q33.8108 831.607 33.6498 831.929 Q33.4565 832.251 33.4243 832.445 Q33.3921 832.606 33.3921 832.928 Q33.3921 834.699 35.2279 836.503 Q37.0636 838.306 41.5724 839.594 Q42.3776 839.852 42.5708 840.013 Q42.764 840.174 42.764 840.657 Q42.7318 841.462 42.0877 841.462 Q41.8945 841.462 41.1537 841.237 Q40.3808 841.011 39.2214 840.593 Q38.0298 840.174 36.8059 839.433 Q35.5499 838.693 34.4549 837.791 Q33.3599 836.857 32.6514 835.536 Q31.9429 834.216 31.9429 832.735 Q31.9429 830.319 33.521 828.838 Q35.0668 827.324 37.3534 827.324 Q38.6095 827.324 40.6384 828.129 Q44.3099 829.482 46.0812 830.094 Q47.8526 830.706 50.3646 831.35 Q52.8767 831.962 54.6158 831.962 Q57.2567 831.962 58.8026 830.738 Q60.3484 829.514 60.3484 827.066 Q60.3484 824.876 58.7703 822.912 Q57.1601 820.915 54.8734 819.595 Q52.5546 818.274 49.9781 817.276 Q47.3695 816.277 45.4049 815.826 Q43.4082 815.343 42.4742 815.343 Q39.2214 815.343 37.0958 817.566 Q36.4839 818.177 36.0974 818.403 Q35.7109 818.628 35.099 818.628 Q33.9718 818.628 32.9735 817.63 Q31.9429 816.599 31.9429 815.408 Q31.9429 814.313 33.0379 813.411 Q34.1329 812.509 36.5483 812.509 Z" fill="#000000" fill-rule="evenodd" fill-opacity="1" /><path clip-path="url(#clip840)" d="M51.6529 779.953 Q55.8074 780.823 58.1906 781.95 Q61.8299 783.753 61.8299 786.813 Q61.8299 789.132 60.4128 790.774 Q58.9958 792.417 56.8702 792.803 Q61.8299 797.022 61.8299 801.402 Q61.8299 805.267 58.8992 807.714 Q55.9362 810.162 51.2664 810.162 Q46.5643 810.162 42.0555 807.843 Q37.5467 805.492 34.7448 801.789 Q31.9429 798.085 31.9429 794.285 Q31.9429 790.259 36.1618 788.198 Q35.0024 788.037 34.1329 787.296 Q33.2633 786.555 33.2633 785.428 Q33.2633 784.558 33.7464 784.043 Q34.1973 783.528 35.0346 783.528 Q35.4533 783.528 37.289 783.979 L46.4999 786.362 L52.458 787.811 Q54.648 788.359 55.4531 788.52 Q56.2583 788.649 57.3211 788.649 Q60.3484 788.649 60.3484 786.684 Q60.3484 785.718 59.7365 784.945 Q59.1246 784.172 57.8364 783.56 Q56.5481 782.948 55.3565 782.562 Q54.1327 782.175 52.2004 781.66 Q51.4274 781.499 51.2342 781.37 Q51.0087 781.209 51.0087 780.758 Q51.0087 779.953 51.6529 779.953 M39.1892 789.003 Q38.8993 789.003 38.0942 789.228 Q37.289 789.454 36.1618 789.969 Q35.0346 790.484 34.2295 791.612 Q33.3921 792.707 33.3921 794.188 Q33.3921 796.185 35.099 798.278 Q36.8059 800.339 39.7045 801.853 Q42.0233 803.012 46.8864 804.268 Q51.7495 805.492 54.1649 805.492 Q55.6464 805.492 56.9668 805.17 Q58.2551 804.816 59.3178 803.818 Q60.3484 802.819 60.3484 801.273 Q60.3484 797.505 55.6786 793.802 Q54.8734 793.093 54.5514 792.932 Q54.1971 792.739 53.2309 792.481 L40.3164 789.196 Q39.3502 789.003 39.1892 789.003 Z" fill="#000000" fill-rule="evenodd" fill-opacity="1" /><path clip-path="url(#clip840)" d="M36.2262 748.756 Q37.9332 748.756 39.0282 749.884 Q40.1232 750.979 40.1232 752.396 Q40.1232 753.619 39.4146 754.264 Q38.7061 754.908 37.8043 754.908 Q36.5161 754.908 35.4533 753.909 Q34.3905 752.911 34.1651 751.462 Q33.3921 752.524 33.3921 754.231 Q33.3921 757.033 35.5499 759.513 Q36.5483 760.608 38.384 761.8 Q40.1876 762.991 40.9605 763.217 L49.5595 765.31 Q50.5256 765.503 55.1633 766.695 Q59.7687 767.854 59.962 767.951 Q60.8637 768.273 61.3468 768.982 Q61.8299 769.69 61.8299 770.399 Q61.8299 771.204 61.3468 771.751 Q60.8637 772.299 60.0264 772.299 Q59.8976 772.299 59.4145 772.202 Q58.9314 772.106 58.2551 771.945 Q57.5787 771.784 57.1923 771.719 L41.9589 767.887 Q39.1892 767.178 38.3196 767.017 Q37.4179 766.824 36.4195 766.824 Q34.6804 766.824 34.0362 767.371 Q33.3921 767.919 33.3921 768.885 Q33.3921 770.56 35.3889 771.655 Q37.3857 772.75 41.2504 773.684 Q42.3132 773.974 42.5386 774.167 Q42.764 774.328 42.764 774.811 Q42.7318 775.616 42.0877 775.616 Q41.9267 775.616 40.8961 775.358 Q39.8333 775.101 38.2874 774.618 Q36.7093 774.102 35.7109 773.555 Q35.0346 773.233 34.5837 772.943 Q34.1329 772.653 33.4243 772.073 Q32.7158 771.494 32.3293 770.624 Q31.9429 769.755 31.9429 768.692 Q31.9429 766.373 33.3599 764.73 Q34.777 763.056 36.9992 762.669 Q35.8398 761.864 34.8414 760.866 Q33.8108 759.867 32.8768 758.032 Q31.9429 756.196 31.9429 754.231 Q31.9429 751.784 33.1989 750.27 Q34.4227 748.756 36.2262 748.756 Z" fill="#000000" fill-rule="evenodd" fill-opacity="1" /><path clip-path="url(#clip840)" d="M44.5998 746.174 Q33.4565 746.174 24.4711 742.019 Q20.703 740.248 17.5468 737.768 Q14.3907 735.288 13.0058 733.646 Q11.621 732.003 11.621 731.552 Q11.621 730.908 12.2651 730.876 Q12.5871 730.876 13.3923 731.746 Q24.2135 742.373 44.5998 742.341 Q65.0505 742.341 75.453 732.003 Q76.5802 730.876 76.9345 730.876 Q77.5786 730.876 77.5786 731.552 Q77.5786 732.003 76.2581 733.581 Q74.9377 735.159 71.9103 737.607 Q68.883 740.055 65.1793 741.826 Q56.1939 746.174 44.5998 746.174 Z" fill="#000000" fill-rule="evenodd" fill-opacity="1" /><path clip-path="url(#clip840)" d="M42.4742 686.386 Q47.1762 686.386 51.7173 688.769 Q56.2583 691.12 59.0602 694.824 Q61.8299 698.528 61.8299 702.296 Q61.8299 704.55 60.6061 706.064 Q59.3501 707.545 57.5787 708.35 Q59.7687 708.962 65.0183 710.283 Q70.2678 711.603 70.7831 711.603 Q71.073 711.603 71.2018 711.539 Q71.3306 711.474 71.4917 711.185 Q71.6849 710.895 71.7493 710.186 Q71.8459 709.478 71.8459 708.286 Q71.8459 707.674 71.8459 707.449 Q71.8781 707.191 72.0392 706.966 Q72.2002 706.708 72.5545 706.708 Q73.8749 706.708 73.8749 707.9 Q73.8749 708.962 73.7783 711.152 Q73.6817 713.342 73.6817 714.437 Q73.6817 715.371 73.7783 717.239 Q73.8749 719.107 73.8749 719.977 Q73.8749 720.846 73.102 720.846 Q72.6511 720.846 72.3612 720.718 Q72.1036 720.621 71.9747 720.363 Q71.8781 720.106 71.8459 719.88 Q71.8459 719.687 71.8459 719.3 Q71.8459 717.819 71.5883 717.175 Q71.3628 716.531 70.8797 716.305 Q70.4289 716.048 69.1406 715.758 L39.7689 708.35 Q37.8043 707.9 36.4195 707.9 Q34.6804 707.9 34.0362 708.447 Q33.3921 708.995 33.3921 709.961 Q33.3921 711.635 35.3889 712.73 Q37.3857 713.825 41.2504 714.759 Q42.3132 715.049 42.5386 715.243 Q42.764 715.404 42.764 715.887 Q42.7318 716.692 42.0877 716.692 Q41.9267 716.692 40.8961 716.434 Q39.8333 716.176 38.2874 715.693 Q36.7093 715.178 35.7109 714.631 Q35.0346 714.309 34.5837 714.019 Q34.1329 713.729 33.4243 713.149 Q32.7158 712.537 32.3293 711.668 Q31.9429 710.798 31.9429 709.735 Q31.9429 707.674 33.1667 705.967 Q34.3905 704.26 36.8704 703.809 Q34.7126 701.974 33.3277 699.719 Q31.9429 697.465 31.9429 695.178 Q31.9429 691.378 34.9058 688.898 Q37.8365 686.386 42.4742 686.386 M39.5757 691.153 Q36.6449 691.153 35.0346 692.28 Q33.3921 693.375 33.3921 695.371 Q33.3921 697.851 35.9042 700.718 Q38.2874 703.552 40.5096 704.131 L53.4242 707.384 L54.487 707.578 Q54.6802 707.578 55.2599 707.481 Q55.8074 707.352 56.7092 706.998 Q57.6109 706.611 58.4161 706.096 Q59.189 705.549 59.7687 704.582 Q60.3484 703.584 60.3484 702.36 Q60.3484 700.396 58.6093 698.27 Q56.8702 696.112 53.5852 694.502 Q51.4596 693.504 46.8864 692.344 Q42.2809 691.153 39.5757 691.153 Z" fill="#000000" fill-rule="evenodd" fill-opacity="1" /><path clip-path="url(#clip840)" d="M65.6679 679.681 L64.2251 679.681 Q64.2251 674.135 61.2718 671.272 Q61.2718 670.483 61.4522 670.348 Q61.6325 670.213 62.4667 670.213 L88.3698 670.213 Q89.745 670.213 90.1734 669.536 Q90.6017 668.86 90.6017 665.907 L90.6017 664.442 L92.022 664.442 Q91.8867 666.065 91.8867 671.926 Q91.8867 677.788 92.022 679.388 L90.6017 679.388 L90.6017 677.923 Q90.6017 675.015 90.1959 674.316 Q89.7676 673.617 88.3698 673.617 L64.4505 673.617 Q65.6679 676.029 65.6679 679.681 Z" fill="#000000" fill-rule="evenodd" fill-opacity="1" /><path clip-path="url(#clip840)" d="M76.9345 657.548 Q76.6124 657.548 75.8072 656.71 Q64.9861 646.082 44.5998 646.082 Q24.149 646.082 13.811 656.292 Q12.6193 657.548 12.2651 657.548 Q11.621 657.548 11.621 656.903 Q11.621 656.453 12.9414 654.874 Q14.2618 653.264 17.2892 650.849 Q20.3165 648.401 24.0202 646.598 Q33.0057 642.25 44.5998 642.25 Q55.743 642.25 64.7284 646.404 Q68.4965 648.176 71.6527 650.656 Q74.8089 653.135 76.1937 654.778 Q77.5786 656.42 77.5786 656.903 Q77.5786 657.548 76.9345 657.548 Z" fill="#000000" fill-rule="evenodd" fill-opacity="1" /><polyline clip-path="url(#clip843)" style="stroke:#009af9; stroke-linecap:butt; stroke-linejoin:round; stroke-width:12; stroke-opacity:1; fill:none" points="
  329,1387.4 348.648,1387.35 368.296,1387.29 387.945,1387.24 407.593,1387.18 427.241,1387.13 446.889,1387.07 466.537,1387.02 486.185,1386.96 505.833,1386.91 
  525.481,1386.85 545.129,1386.8 564.778,1386.74 584.426,1386.69 604.074,1386.63 623.722,1386.58 643.37,1386.53 663.018,1386.47 682.666,1386.42 702.314,1386.37 
  721.962,1386.31 741.611,1386.26 761.259,1386.21 780.907,1386.15 800.555,1386.1 820.203,1386.05 839.851,1386 859.499,1385.94 879.147,1385.89 898.796,1385.84 
  918.444,1385.79 938.092,1385.74 957.74,1385.68 977.388,1385.63 997.036,1385.58 1016.68,1385.53 1036.33,1385.48 1055.98,1385.43 1075.63,1385.38 1095.28,1385.33 
  1114.92,1385.27 1134.57,1385.22 1154.22,1385.17 1173.87,1385.12 1193.52,1385.07 1213.17,1385.02 1232.81,1384.97 1252.46,1384.92 1272.11,1384.87 1291.76,1384.82 
  1311.41,1384.77 1331.05,1384.72 1350.7,1384.68 1370.35,1384.63 1390,1384.58 1409.65,1384.53 1429.29,1384.48 1448.94,1384.43 1468.59,1384.38 1488.24,1384.33 
  1507.89,1384.29 1527.54,1384.24 1547.18,1384.19 1566.83,1384.14 1586.48,1384.09 1606.13,1384.05 1625.78,1384 1645.42,1383.95 1665.07,1383.9 1684.72,1383.86 
  1704.37,1383.81 1724.02,1383.76 1743.66,1383.71 1763.31,1383.67 1782.96,1383.62 1802.61,1383.57 1822.26,1383.53 1841.9,1383.48 1861.55,1383.43 1881.2,1383.39 
  1900.85,1383.34 1920.5,1383.3 1940.15,1383.25 1959.79,1383.2 1979.44,1383.16 1999.09,1383.11 2018.74,1383.07 2038.39,1383.02 2058.03,1382.98 2077.68,1382.93 
  2097.33,1382.89 2116.98,1382.84 2136.63,1382.8 2156.27,1382.75 2175.92,1382.71 2195.57,1382.66 2215.22,1382.62 2234.87,1382.57 2254.52,1382.53 2274.16,1382.49 
  2293.81,1382.44 
  "/>
<circle clip-path="url(#clip843)" cx="525.481" cy="86.2779" r="14" fill="#e26f46" fill-rule="evenodd" fill-opacity="1" stroke="#000000" stroke-opacity="1" stroke-width="3.2"/>
<circle clip-path="url(#clip843)" cx="721.962" cy="815.217" r="14" fill="#e26f46" fill-rule="evenodd" fill-opacity="1" stroke="#000000" stroke-opacity="1" stroke-width="3.2"/>
<circle clip-path="url(#clip843)" cx="918.444" cy="970.57" r="14" fill="#e26f46" fill-rule="evenodd" fill-opacity="1" stroke="#000000" stroke-opacity="1" stroke-width="3.2"/>
<circle clip-path="url(#clip843)" cx="1114.92" cy="701.586" r="14" fill="#e26f46" fill-rule="evenodd" fill-opacity="1" stroke="#000000" stroke-opacity="1" stroke-width="3.2"/>
<circle clip-path="url(#clip843)" cx="1311.41" cy="1106.31" r="14" fill="#e26f46" fill-rule="evenodd" fill-opacity="1" stroke="#000000" stroke-opacity="1" stroke-width="3.2"/>
<circle clip-path="url(#clip843)" cx="1507.89" cy="579.134" r="14" fill="#e26f46" fill-rule="evenodd" fill-opacity="1" stroke="#000000" stroke-opacity="1" stroke-width="3.2"/>
<circle clip-path="url(#clip843)" cx="1704.37" cy="1053.39" r="14" fill="#e26f46" fill-rule="evenodd" fill-opacity="1" stroke="#000000" stroke-opacity="1" stroke-width="3.2"/>
<circle clip-path="url(#clip843)" cx="1900.85" cy="612.867" r="14" fill="#e26f46" fill-rule="evenodd" fill-opacity="1" stroke="#000000" stroke-opacity="1" stroke-width="3.2"/>
<circle clip-path="url(#clip843)" cx="2097.33" cy="1175.44" r="14" fill="#e26f46" fill-rule="evenodd" fill-opacity="1" stroke="#000000" stroke-opacity="1" stroke-width="3.2"/>
<circle clip-path="url(#clip843)" cx="2293.81" cy="1130.33" r="14" fill="#e26f46" fill-rule="evenodd" fill-opacity="1" stroke="#000000" stroke-opacity="1" stroke-width="3.2"/>
</svg>
