<?xml version="1.0" encoding="utf-8"?>
<svg xmlns="http://www.w3.org/2000/svg" xmlns:xlink="http://www.w3.org/1999/xlink" width="600" height="400" viewBox="0 0 2400 1600">
<defs>
  <clipPath id="clip870">
    <rect x="0" y="0" width="2400" height="1600"/>
  </clipPath>
</defs>
<path clip-path="url(#clip870)" d="
M0 1600 L2400 1600 L2400 0 L0 0  Z
  " fill="#ffffff" fill-rule="evenodd" fill-opacity="1"/>
<defs>
  <clipPath id="clip871">
    <rect x="480" y="0" width="1681" height="1600"/>
  </clipPath>
</defs>
<defs>
  <clipPath id="clip872">
    <rect x="203" y="47" width="2150" height="1377"/>
  </clipPath>
</defs>
<path clip-path="url(#clip870)" d="
M203.964 1442.95 L2352.76 1442.95 L2352.76 47.2441 L203.964 47.2441  Z
  " fill="#ffffff" fill-rule="evenodd" fill-opacity="1"/>
<defs>
  <clipPath id="clip873">
    <rect x="203" y="47" width="2150" height="1397"/>
  </clipPath>
</defs>
<polyline clip-path="url(#clip873)" style="stroke:#000000; stroke-linecap:butt; stroke-linejoin:round; stroke-width:2; stroke-opacity:0.1; fill:none" points="
  203.964,1442.95 203.964,47.2441 
  "/>
<polyline clip-path="url(#clip873)" style="stroke:#000000; stroke-linecap:butt; stroke-linejoin:round; stroke-width:2; stroke-opacity:0.1; fill:none" points="
  633.722,1442.95 633.722,47.2441 
  "/>
<polyline clip-path="url(#clip873)" style="stroke:#000000; stroke-linecap:butt; stroke-linejoin:round; stroke-width:2; stroke-opacity:0.1; fill:none" points="
  1063.48,1442.95 1063.48,47.2441 
  "/>
<polyline clip-path="url(#clip873)" style="stroke:#000000; stroke-linecap:butt; stroke-linejoin:round; stroke-width:2; stroke-opacity:0.1; fill:none" points="
  1493.24,1442.95 1493.24,47.2441 
  "/>
<polyline clip-path="url(#clip873)" style="stroke:#000000; stroke-linecap:butt; stroke-linejoin:round; stroke-width:2; stroke-opacity:0.1; fill:none" points="
  1923,1442.95 1923,47.2441 
  "/>
<polyline clip-path="url(#clip873)" style="stroke:#000000; stroke-linecap:butt; stroke-linejoin:round; stroke-width:2; stroke-opacity:0.1; fill:none" points="
  2352.76,1442.95 2352.76,47.2441 
  "/>
<polyline clip-path="url(#clip870)" style="stroke:#000000; stroke-linecap:butt; stroke-linejoin:round; stroke-width:4; stroke-opacity:1; fill:none" points="
  203.964,1442.95 2352.76,1442.95 
  "/>
<polyline clip-path="url(#clip870)" style="stroke:#000000; stroke-linecap:butt; stroke-linejoin:round; stroke-width:4; stroke-opacity:1; fill:none" points="
  203.964,1442.95 203.964,1424.05 
  "/>
<polyline clip-path="url(#clip870)" style="stroke:#000000; stroke-linecap:butt; stroke-linejoin:round; stroke-width:4; stroke-opacity:1; fill:none" points="
  633.722,1442.95 633.722,1424.05 
  "/>
<polyline clip-path="url(#clip870)" style="stroke:#000000; stroke-linecap:butt; stroke-linejoin:round; stroke-width:4; stroke-opacity:1; fill:none" points="
  1063.48,1442.95 1063.48,1424.05 
  "/>
<polyline clip-path="url(#clip870)" style="stroke:#000000; stroke-linecap:butt; stroke-linejoin:round; stroke-width:4; stroke-opacity:1; fill:none" points="
  1493.24,1442.95 1493.24,1424.05 
  "/>
<polyline clip-path="url(#clip870)" style="stroke:#000000; stroke-linecap:butt; stroke-linejoin:round; stroke-width:4; stroke-opacity:1; fill:none" points="
  1923,1442.95 1923,1424.05 
  "/>
<polyline clip-path="url(#clip870)" style="stroke:#000000; stroke-linecap:butt; stroke-linejoin:round; stroke-width:4; stroke-opacity:1; fill:none" points="
  2352.76,1442.95 2352.76,1424.05 
  "/>
<path clip-path="url(#clip870)" d="M203.964 1472.14 Q200.352 1472.14 198.524 1475.71 Q196.718 1479.25 196.718 1486.38 Q196.718 1493.48 198.524 1497.05 Q200.352 1500.59 203.964 1500.59 Q207.598 1500.59 209.403 1497.05 Q211.232 1493.48 211.232 1486.38 Q211.232 1479.25 209.403 1475.71 Q207.598 1472.14 203.964 1472.14 M203.964 1468.44 Q209.774 1468.44 212.829 1473.04 Q215.908 1477.63 215.908 1486.38 Q215.908 1495.1 212.829 1499.71 Q209.774 1504.29 203.964 1504.29 Q198.153 1504.29 195.075 1499.71 Q192.019 1495.1 192.019 1486.38 Q192.019 1477.63 195.075 1473.04 Q198.153 1468.44 203.964 1468.44 Z" fill="#000000" fill-rule="evenodd" fill-opacity="1" /><path clip-path="url(#clip870)" d="M608.41 1499.69 L616.049 1499.69 L616.049 1473.32 L607.738 1474.99 L607.738 1470.73 L616.002 1469.06 L620.678 1469.06 L620.678 1499.69 L628.317 1499.69 L628.317 1503.62 L608.41 1503.62 L608.41 1499.69 Z" fill="#000000" fill-rule="evenodd" fill-opacity="1" /><path clip-path="url(#clip870)" d="M647.761 1472.14 Q644.15 1472.14 642.322 1475.71 Q640.516 1479.25 640.516 1486.38 Q640.516 1493.48 642.322 1497.05 Q644.15 1500.59 647.761 1500.59 Q651.396 1500.59 653.201 1497.05 Q655.03 1493.48 655.03 1486.38 Q655.03 1479.25 653.201 1475.71 Q651.396 1472.14 647.761 1472.14 M647.761 1468.44 Q653.571 1468.44 656.627 1473.04 Q659.706 1477.63 659.706 1486.38 Q659.706 1495.1 656.627 1499.71 Q653.571 1504.29 647.761 1504.29 Q641.951 1504.29 638.872 1499.71 Q635.817 1495.1 635.817 1486.38 Q635.817 1477.63 638.872 1473.04 Q641.951 1468.44 647.761 1468.44 Z" fill="#000000" fill-rule="evenodd" fill-opacity="1" /><path clip-path="url(#clip870)" d="M1042.25 1499.69 L1058.57 1499.69 L1058.57 1503.62 L1036.63 1503.62 L1036.63 1499.69 Q1039.29 1496.93 1043.87 1492.3 Q1048.48 1487.65 1049.66 1486.31 Q1051.91 1483.78 1052.79 1482.05 Q1053.69 1480.29 1053.69 1478.6 Q1053.69 1475.84 1051.74 1474.11 Q1049.82 1472.37 1046.72 1472.37 Q1044.52 1472.37 1042.07 1473.14 Q1039.64 1473.9 1036.86 1475.45 L1036.86 1470.73 Q1039.68 1469.59 1042.14 1469.02 Q1044.59 1468.44 1046.63 1468.44 Q1052 1468.44 1055.19 1471.12 Q1058.39 1473.81 1058.39 1478.3 Q1058.39 1480.43 1057.58 1482.35 Q1056.79 1484.25 1054.68 1486.84 Q1054.11 1487.51 1051 1490.73 Q1047.9 1493.92 1042.25 1499.69 Z" fill="#000000" fill-rule="evenodd" fill-opacity="1" /><path clip-path="url(#clip870)" d="M1078.39 1472.14 Q1074.78 1472.14 1072.95 1475.71 Q1071.14 1479.25 1071.14 1486.38 Q1071.14 1493.48 1072.95 1497.05 Q1074.78 1500.59 1078.39 1500.59 Q1082.02 1500.59 1083.83 1497.05 Q1085.66 1493.48 1085.66 1486.38 Q1085.66 1479.25 1083.83 1475.71 Q1082.02 1472.14 1078.39 1472.14 M1078.39 1468.44 Q1084.2 1468.44 1087.25 1473.04 Q1090.33 1477.63 1090.33 1486.38 Q1090.33 1495.1 1087.25 1499.71 Q1084.2 1504.29 1078.39 1504.29 Q1072.58 1504.29 1069.5 1499.71 Q1066.44 1495.1 1066.44 1486.38 Q1066.44 1477.63 1069.5 1473.04 Q1072.58 1468.44 1078.39 1468.44 Z" fill="#000000" fill-rule="evenodd" fill-opacity="1" /><path clip-path="url(#clip870)" d="M1482.08 1484.99 Q1485.44 1485.71 1487.31 1487.97 Q1489.21 1490.24 1489.21 1493.58 Q1489.21 1498.69 1485.69 1501.49 Q1482.17 1504.29 1475.69 1504.29 Q1473.52 1504.29 1471.2 1503.85 Q1468.91 1503.44 1466.46 1502.58 L1466.46 1498.07 Q1468.4 1499.2 1470.72 1499.78 Q1473.03 1500.36 1475.55 1500.36 Q1479.95 1500.36 1482.24 1498.62 Q1484.56 1496.89 1484.56 1493.58 Q1484.56 1490.52 1482.41 1488.81 Q1480.28 1487.07 1476.46 1487.07 L1472.43 1487.07 L1472.43 1483.23 L1476.64 1483.23 Q1480.09 1483.23 1481.92 1481.86 Q1483.75 1480.47 1483.75 1477.88 Q1483.75 1475.22 1481.85 1473.81 Q1479.98 1472.37 1476.46 1472.37 Q1474.54 1472.37 1472.34 1472.79 Q1470.14 1473.21 1467.5 1474.08 L1467.5 1469.92 Q1470.16 1469.18 1472.48 1468.81 Q1474.81 1468.44 1476.87 1468.44 Q1482.2 1468.44 1485.3 1470.87 Q1488.4 1473.27 1488.4 1477.4 Q1488.4 1480.27 1486.76 1482.26 Q1485.11 1484.22 1482.08 1484.99 Z" fill="#000000" fill-rule="evenodd" fill-opacity="1" /><path clip-path="url(#clip870)" d="M1508.08 1472.14 Q1504.47 1472.14 1502.64 1475.71 Q1500.83 1479.25 1500.83 1486.38 Q1500.83 1493.48 1502.64 1497.05 Q1504.47 1500.59 1508.08 1500.59 Q1511.71 1500.59 1513.52 1497.05 Q1515.35 1493.48 1515.35 1486.38 Q1515.35 1479.25 1513.52 1475.71 Q1511.71 1472.14 1508.08 1472.14 M1508.08 1468.44 Q1513.89 1468.44 1516.94 1473.04 Q1520.02 1477.63 1520.02 1486.38 Q1520.02 1495.1 1516.94 1499.71 Q1513.89 1504.29 1508.08 1504.29 Q1502.27 1504.29 1499.19 1499.71 Q1496.13 1495.1 1496.13 1486.38 Q1496.13 1477.63 1499.19 1473.04 Q1502.27 1468.44 1508.08 1468.44 Z" fill="#000000" fill-rule="evenodd" fill-opacity="1" /><path clip-path="url(#clip870)" d="M1911.17 1473.14 L1899.36 1491.58 L1911.17 1491.58 L1911.17 1473.14 M1909.94 1469.06 L1915.82 1469.06 L1915.82 1491.58 L1920.75 1491.58 L1920.75 1495.47 L1915.82 1495.47 L1915.82 1503.62 L1911.17 1503.62 L1911.17 1495.47 L1895.57 1495.47 L1895.57 1490.96 L1909.94 1469.06 Z" fill="#000000" fill-rule="evenodd" fill-opacity="1" /><path clip-path="url(#clip870)" d="M1938.48 1472.14 Q1934.87 1472.14 1933.04 1475.71 Q1931.24 1479.25 1931.24 1486.38 Q1931.24 1493.48 1933.04 1497.05 Q1934.87 1500.59 1938.48 1500.59 Q1942.12 1500.59 1943.92 1497.05 Q1945.75 1493.48 1945.75 1486.38 Q1945.75 1479.25 1943.92 1475.71 Q1942.12 1472.14 1938.48 1472.14 M1938.48 1468.44 Q1944.29 1468.44 1947.35 1473.04 Q1950.43 1477.63 1950.43 1486.38 Q1950.43 1495.1 1947.35 1499.71 Q1944.29 1504.29 1938.48 1504.29 Q1932.67 1504.29 1929.59 1499.71 Q1926.54 1495.1 1926.54 1486.38 Q1926.54 1477.63 1929.59 1473.04 Q1932.67 1468.44 1938.48 1468.44 Z" fill="#000000" fill-rule="evenodd" fill-opacity="1" /><path clip-path="url(#clip870)" d="M2327.46 1469.06 L2345.81 1469.06 L2345.81 1473 L2331.74 1473 L2331.74 1481.47 Q2332.76 1481.12 2333.77 1480.96 Q2334.79 1480.77 2335.81 1480.77 Q2341.6 1480.77 2344.98 1483.95 Q2348.36 1487.12 2348.36 1492.53 Q2348.36 1498.11 2344.89 1501.21 Q2341.41 1504.29 2335.09 1504.29 Q2332.92 1504.29 2330.65 1503.92 Q2328.4 1503.55 2326 1502.81 L2326 1498.11 Q2328.08 1499.25 2330.3 1499.8 Q2332.52 1500.36 2335 1500.36 Q2339.01 1500.36 2341.34 1498.25 Q2343.68 1496.15 2343.68 1492.53 Q2343.68 1488.92 2341.34 1486.82 Q2339.01 1484.71 2335 1484.71 Q2333.13 1484.71 2331.25 1485.13 Q2329.4 1485.54 2327.46 1486.42 L2327.46 1469.06 Z" fill="#000000" fill-rule="evenodd" fill-opacity="1" /><path clip-path="url(#clip870)" d="M2367.57 1472.14 Q2363.96 1472.14 2362.13 1475.71 Q2360.33 1479.25 2360.33 1486.38 Q2360.33 1493.48 2362.13 1497.05 Q2363.96 1500.59 2367.57 1500.59 Q2371.2 1500.59 2373.01 1497.05 Q2374.84 1493.48 2374.84 1486.38 Q2374.84 1479.25 2373.01 1475.71 Q2371.2 1472.14 2367.57 1472.14 M2367.57 1468.44 Q2373.38 1468.44 2376.44 1473.04 Q2379.52 1477.63 2379.52 1486.38 Q2379.52 1495.1 2376.44 1499.71 Q2373.38 1504.29 2367.57 1504.29 Q2361.76 1504.29 2358.68 1499.71 Q2355.63 1495.1 2355.63 1486.38 Q2355.63 1477.63 2358.68 1473.04 Q2361.76 1468.44 2367.57 1468.44 Z" fill="#000000" fill-rule="evenodd" fill-opacity="1" /><path clip-path="url(#clip870)" d="M1286.83 1539.82 Q1286.83 1540.72 1286.41 1540.95 Q1285.99 1541.14 1284.83 1541.14 L1278.65 1541.14 L1273.76 1560.59 Q1273.37 1562.3 1273.37 1563.75 Q1273.37 1565.36 1273.85 1566.07 Q1274.37 1566.78 1275.43 1566.78 Q1277.52 1566.78 1279.78 1564.88 Q1282.06 1562.98 1284 1558.34 Q1284.25 1557.73 1284.38 1557.6 Q1284.54 1557.44 1284.96 1557.44 Q1285.77 1557.44 1285.77 1558.08 Q1285.77 1558.31 1285.32 1559.34 Q1284.9 1560.37 1283.96 1561.88 Q1283.06 1563.4 1281.87 1564.81 Q1280.71 1566.23 1278.94 1567.26 Q1277.17 1568.26 1275.27 1568.26 Q1272.6 1568.26 1270.89 1566.55 Q1269.21 1564.84 1269.21 1562.17 Q1269.21 1561.3 1269.89 1558.53 Q1270.57 1555.73 1274.24 1541.14 L1268.41 1541.14 Q1267.6 1541.14 1267.28 1541.11 Q1266.99 1541.08 1266.77 1540.92 Q1266.57 1540.72 1266.57 1540.34 Q1266.57 1539.72 1266.83 1539.47 Q1267.09 1539.18 1267.41 1539.14 Q1267.76 1539.08 1268.57 1539.08 L1274.75 1539.08 L1277.33 1528.61 Q1277.59 1527.58 1278.23 1527 Q1278.91 1526.39 1279.29 1526.33 Q1279.68 1526.23 1279.97 1526.23 Q1280.84 1526.23 1281.36 1526.71 Q1281.87 1527.16 1281.87 1528 Q1281.87 1528.45 1279.17 1539.08 L1284.96 1539.08 Q1285.7 1539.08 1285.99 1539.11 Q1286.32 1539.14 1286.57 1539.31 Q1286.83 1539.47 1286.83 1539.82 Z" fill="#000000" fill-rule="evenodd" fill-opacity="1" /><polyline clip-path="url(#clip873)" style="stroke:#000000; stroke-linecap:butt; stroke-linejoin:round; stroke-width:2; stroke-opacity:0.1; fill:none" points="
  203.964,1442.95 2352.76,1442.95 
  "/>
<polyline clip-path="url(#clip873)" style="stroke:#000000; stroke-linecap:butt; stroke-linejoin:round; stroke-width:2; stroke-opacity:0.1; fill:none" points="
  203.964,977.715 2352.76,977.715 
  "/>
<polyline clip-path="url(#clip873)" style="stroke:#000000; stroke-linecap:butt; stroke-linejoin:round; stroke-width:2; stroke-opacity:0.1; fill:none" points="
  203.964,512.479 2352.76,512.479 
  "/>
<polyline clip-path="url(#clip873)" style="stroke:#000000; stroke-linecap:butt; stroke-linejoin:round; stroke-width:2; stroke-opacity:0.1; fill:none" points="
  203.964,47.2441 2352.76,47.2441 
  "/>
<polyline clip-path="url(#clip870)" style="stroke:#000000; stroke-linecap:butt; stroke-linejoin:round; stroke-width:4; stroke-opacity:1; fill:none" points="
  203.964,1442.95 203.964,47.2441 
  "/>
<polyline clip-path="url(#clip870)" style="stroke:#000000; stroke-linecap:butt; stroke-linejoin:round; stroke-width:4; stroke-opacity:1; fill:none" points="
  203.964,1442.95 222.861,1442.95 
  "/>
<polyline clip-path="url(#clip870)" style="stroke:#000000; stroke-linecap:butt; stroke-linejoin:round; stroke-width:4; stroke-opacity:1; fill:none" points="
  203.964,977.715 222.861,977.715 
  "/>
<polyline clip-path="url(#clip870)" style="stroke:#000000; stroke-linecap:butt; stroke-linejoin:round; stroke-width:4; stroke-opacity:1; fill:none" points="
  203.964,512.479 222.861,512.479 
  "/>
<polyline clip-path="url(#clip870)" style="stroke:#000000; stroke-linecap:butt; stroke-linejoin:round; stroke-width:4; stroke-opacity:1; fill:none" points="
  203.964,47.2441 222.861,47.2441 
  "/>
<path clip-path="url(#clip870)" d="M156.019 1428.75 Q152.408 1428.75 150.579 1432.31 Q148.774 1435.85 148.774 1442.98 Q148.774 1450.09 150.579 1453.66 Q152.408 1457.2 156.019 1457.2 Q159.653 1457.2 161.459 1453.66 Q163.288 1450.09 163.288 1442.98 Q163.288 1435.85 161.459 1432.31 Q159.653 1428.75 156.019 1428.75 M156.019 1425.04 Q161.829 1425.04 164.885 1429.65 Q167.964 1434.23 167.964 1442.98 Q167.964 1451.71 164.885 1456.32 Q161.829 1460.9 156.019 1460.9 Q150.209 1460.9 147.13 1456.32 Q144.075 1451.71 144.075 1442.98 Q144.075 1434.23 147.13 1429.65 Q150.209 1425.04 156.019 1425.04 Z" fill="#000000" fill-rule="evenodd" fill-opacity="1" /><path clip-path="url(#clip870)" d="M116.668 991.059 L124.306 991.059 L124.306 964.694 L115.996 966.36 L115.996 962.101 L124.26 960.435 L128.936 960.435 L128.936 991.059 L136.575 991.059 L136.575 994.995 L116.668 994.995 L116.668 991.059 Z" fill="#000000" fill-rule="evenodd" fill-opacity="1" /><path clip-path="url(#clip870)" d="M156.019 963.513 Q152.408 963.513 150.579 967.078 Q148.774 970.62 148.774 977.749 Q148.774 984.856 150.579 988.421 Q152.408 991.962 156.019 991.962 Q159.653 991.962 161.459 988.421 Q163.288 984.856 163.288 977.749 Q163.288 970.62 161.459 967.078 Q159.653 963.513 156.019 963.513 M156.019 959.81 Q161.829 959.81 164.885 964.416 Q167.964 968.999 167.964 977.749 Q167.964 986.476 164.885 991.083 Q161.829 995.666 156.019 995.666 Q150.209 995.666 147.13 991.083 Q144.075 986.476 144.075 977.749 Q144.075 968.999 147.13 964.416 Q150.209 959.81 156.019 959.81 Z" fill="#000000" fill-rule="evenodd" fill-opacity="1" /><path clip-path="url(#clip870)" d="M119.885 525.824 L136.204 525.824 L136.204 529.759 L114.26 529.759 L114.26 525.824 Q116.922 523.07 121.505 518.44 Q126.112 513.787 127.292 512.445 Q129.538 509.921 130.417 508.185 Q131.32 506.426 131.32 504.736 Q131.32 501.982 129.376 500.246 Q127.455 498.51 124.353 498.51 Q122.154 498.51 119.7 499.273 Q117.269 500.037 114.492 501.588 L114.492 496.866 Q117.316 495.732 119.769 495.153 Q122.223 494.574 124.26 494.574 Q129.63 494.574 132.825 497.26 Q136.019 499.945 136.019 504.435 Q136.019 506.565 135.209 508.486 Q134.422 510.384 132.316 512.977 Q131.737 513.648 128.635 516.866 Q125.533 520.06 119.885 525.824 Z" fill="#000000" fill-rule="evenodd" fill-opacity="1" /><path clip-path="url(#clip870)" d="M156.019 498.278 Q152.408 498.278 150.579 501.843 Q148.774 505.384 148.774 512.514 Q148.774 519.621 150.579 523.185 Q152.408 526.727 156.019 526.727 Q159.653 526.727 161.459 523.185 Q163.288 519.621 163.288 512.514 Q163.288 505.384 161.459 501.843 Q159.653 498.278 156.019 498.278 M156.019 494.574 Q161.829 494.574 164.885 499.181 Q167.964 503.764 167.964 512.514 Q167.964 521.241 164.885 525.847 Q161.829 530.431 156.019 530.431 Q150.209 530.431 147.13 525.847 Q144.075 521.241 144.075 512.514 Q144.075 503.764 147.13 499.181 Q150.209 494.574 156.019 494.574 Z" fill="#000000" fill-rule="evenodd" fill-opacity="1" /><path clip-path="url(#clip870)" d="M130.024 45.8899 Q133.38 46.6075 135.255 48.876 Q137.154 51.1445 137.154 54.4779 Q137.154 59.5936 133.635 62.3945 Q130.117 65.1954 123.635 65.1954 Q121.459 65.1954 119.144 64.7556 Q116.853 64.3389 114.399 63.4824 L114.399 58.9686 Q116.343 60.1028 118.658 60.6815 Q120.973 61.2602 123.496 61.2602 Q127.894 61.2602 130.186 59.5241 Q132.501 57.788 132.501 54.4779 Q132.501 51.4223 130.348 49.7094 Q128.218 47.9733 124.399 47.9733 L120.371 47.9733 L120.371 44.1307 L124.584 44.1307 Q128.033 44.1307 129.862 42.765 Q131.691 41.3761 131.691 38.7835 Q131.691 36.1215 129.792 34.7094 Q127.917 33.2743 124.399 33.2743 Q122.478 33.2743 120.279 33.6909 Q118.08 34.1076 115.441 34.9872 L115.441 30.8206 Q118.103 30.0798 120.418 29.7095 Q122.755 29.3391 124.816 29.3391 Q130.14 29.3391 133.242 31.7696 Q136.343 34.177 136.343 38.2974 Q136.343 41.1677 134.7 43.1585 Q133.056 45.1261 130.024 45.8899 Z" fill="#000000" fill-rule="evenodd" fill-opacity="1" /><path clip-path="url(#clip870)" d="M156.019 33.0428 Q152.408 33.0428 150.579 36.6076 Q148.774 40.1492 148.774 47.2788 Q148.774 54.3853 150.579 57.9501 Q152.408 61.4917 156.019 61.4917 Q159.653 61.4917 161.459 57.9501 Q163.288 54.3853 163.288 47.2788 Q163.288 40.1492 161.459 36.6076 Q159.653 33.0428 156.019 33.0428 M156.019 29.3391 Q161.829 29.3391 164.885 33.9456 Q167.964 38.5289 167.964 47.2788 Q167.964 56.0056 164.885 60.6121 Q161.829 65.1954 156.019 65.1954 Q150.209 65.1954 147.13 60.6121 Q144.075 56.0056 144.075 47.2788 Q144.075 38.5289 147.13 33.9456 Q150.209 29.3391 156.019 29.3391 Z" fill="#000000" fill-rule="evenodd" fill-opacity="1" /><path clip-path="url(#clip870)" d="M20.1444 925.183 L26.9239 925.183 Q23.9002 928.429 22.4043 932.121 Q20.9083 935.782 20.9083 939.919 Q20.9083 948.068 25.9054 952.396 Q30.8707 956.725 40.2919 956.725 Q49.6813 956.725 54.6784 952.396 Q59.6436 948.068 59.6436 939.919 Q59.6436 935.782 58.1477 932.121 Q56.6518 928.429 53.6281 925.183 L60.3439 925.183 Q62.6355 928.557 63.7814 932.344 Q64.9272 936.1 64.9272 940.301 Q64.9272 951.091 58.3387 957.298 Q51.7183 963.504 40.2919 963.504 Q28.8336 963.504 22.2451 957.298 Q15.6248 951.091 15.6248 940.301 Q15.6248 936.036 16.7706 932.281 Q17.8846 928.493 20.1444 925.183 Z" fill="#000000" fill-rule="evenodd" fill-opacity="1" /><path clip-path="url(#clip870)" d="M32.4621 901.693 Q32.4621 906.404 36.1542 909.141 Q39.8145 911.878 46.212 911.878 Q52.6095 911.878 56.3017 909.173 Q59.9619 906.436 59.9619 901.693 Q59.9619 897.015 56.2698 894.277 Q52.5777 891.54 46.212 891.54 Q39.8781 891.54 36.186 894.277 Q32.4621 897.015 32.4621 901.693 M27.4968 901.693 Q27.4968 894.055 32.4621 889.694 Q37.4273 885.333 46.212 885.333 Q54.9649 885.333 59.9619 889.694 Q64.9272 894.055 64.9272 901.693 Q64.9272 909.364 59.9619 913.725 Q54.9649 918.053 46.212 918.053 Q37.4273 918.053 32.4621 913.725 Q27.4968 909.364 27.4968 901.693 Z" fill="#000000" fill-rule="evenodd" fill-opacity="1" /><path clip-path="url(#clip870)" d="M58.657 869.96 L77.5631 869.96 L77.5631 875.849 L28.3562 875.849 L28.3562 869.96 L33.7671 869.96 Q30.5842 868.114 29.0564 865.313 Q27.4968 862.481 27.4968 858.566 Q27.4968 852.073 32.6531 848.03 Q37.8093 843.956 46.212 843.956 Q54.6147 843.956 59.771 848.03 Q64.9272 852.073 64.9272 858.566 Q64.9272 862.481 63.3994 865.313 Q61.8398 868.114 58.657 869.96 M46.212 850.036 Q39.7508 850.036 36.0905 852.709 Q32.3984 855.351 32.3984 859.998 Q32.3984 864.645 36.0905 867.319 Q39.7508 869.96 46.212 869.96 Q52.6732 869.96 56.3653 867.319 Q60.0256 864.645 60.0256 859.998 Q60.0256 855.351 56.3653 852.709 Q52.6732 850.036 46.212 850.036 Z" fill="#000000" fill-rule="evenodd" fill-opacity="1" /><path clip-path="url(#clip870)" d="M67.3143 819.417 Q73.68 821.899 75.6216 824.255 Q77.5631 826.61 77.5631 830.557 L77.5631 835.235 L72.6615 835.235 L72.6615 831.798 Q72.6615 829.379 71.5157 828.042 Q70.3699 826.705 66.1048 825.082 L63.4312 824.032 L28.3562 838.45 L28.3562 832.243 L56.238 821.104 L28.3562 809.964 L28.3562 803.757 L67.3143 819.417 Z" fill="#000000" fill-rule="evenodd" fill-opacity="1" /><path clip-path="url(#clip870)" d="M42.4881 745.32 L64.0042 745.32 L64.0042 751.176 L42.679 751.176 Q37.6183 751.176 35.1038 753.15 Q32.5894 755.123 32.5894 759.07 Q32.5894 763.812 35.6131 766.549 Q38.6368 769.287 43.8567 769.287 L64.0042 769.287 L64.0042 775.175 L28.3562 775.175 L28.3562 769.287 L33.8944 769.287 Q30.6797 767.186 29.0883 764.353 Q27.4968 761.489 27.4968 757.765 Q27.4968 751.622 31.3163 748.471 Q35.1038 745.32 42.4881 745.32 Z" fill="#000000" fill-rule="evenodd" fill-opacity="1" /><path clip-path="url(#clip870)" d="M49.9359 734.243 L28.3562 734.243 L28.3562 728.387 L49.7131 728.387 Q54.7739 728.387 57.3202 726.414 Q59.8346 724.44 59.8346 720.494 Q59.8346 715.751 56.8109 713.014 Q53.7872 710.245 48.5673 710.245 L28.3562 710.245 L28.3562 704.388 L64.0042 704.388 L64.0042 710.245 L58.5296 710.245 Q61.7762 712.377 63.3676 715.21 Q64.9272 718.011 64.9272 721.735 Q64.9272 727.878 61.1078 731.061 Q57.2883 734.243 49.9359 734.243 M27.4968 719.507 L27.4968 719.507 Z" fill="#000000" fill-rule="evenodd" fill-opacity="1" /><path clip-path="url(#clip870)" d="M35.1993 664.571 Q31.2526 662.375 29.3747 659.319 Q27.4968 656.264 27.4968 652.126 Q27.4968 646.556 31.4117 643.532 Q35.2948 640.508 42.4881 640.508 L64.0042 640.508 L64.0042 646.397 L42.679 646.397 Q37.5546 646.397 35.072 648.211 Q32.5894 650.025 32.5894 653.749 Q32.5894 658.301 35.6131 660.942 Q38.6368 663.584 43.8567 663.584 L64.0042 663.584 L64.0042 669.472 L42.679 669.472 Q37.5228 669.472 35.072 671.287 Q32.5894 673.101 32.5894 676.888 Q32.5894 681.376 35.6449 684.018 Q38.6686 686.66 43.8567 686.66 L64.0042 686.66 L64.0042 692.548 L28.3562 692.548 L28.3562 686.66 L33.8944 686.66 Q30.616 684.655 29.0564 681.854 Q27.4968 679.053 27.4968 675.202 Q27.4968 671.318 29.4702 668.613 Q31.4436 665.876 35.1993 664.571 Z" fill="#000000" fill-rule="evenodd" fill-opacity="1" /><path clip-path="url(#clip870)" d="M46.212 603.237 Q39.7508 603.237 36.0905 605.911 Q32.3984 608.553 32.3984 613.2 Q32.3984 617.846 36.0905 620.52 Q39.7508 623.162 46.212 623.162 Q52.6732 623.162 56.3653 620.52 Q60.0256 617.846 60.0256 613.2 Q60.0256 608.553 56.3653 605.911 Q52.6732 603.237 46.212 603.237 M33.7671 623.162 Q30.5842 621.316 29.0564 618.515 Q27.4968 615.682 27.4968 611.767 Q27.4968 605.274 32.6531 601.232 Q37.8093 597.158 46.212 597.158 Q54.6147 597.158 59.771 601.232 Q64.9272 605.274 64.9272 611.767 Q64.9272 615.682 63.3994 618.515 Q61.8398 621.316 58.657 623.162 L64.0042 623.162 L64.0042 629.05 L14.479 629.05 L14.479 623.162 L33.7671 623.162 Z" fill="#000000" fill-rule="evenodd" fill-opacity="1" /><path clip-path="url(#clip870)" d="M44.7161 556.959 L47.5806 556.959 L47.5806 583.885 Q53.6281 583.504 56.8109 580.257 Q59.9619 576.979 59.9619 571.154 Q59.9619 567.78 59.1344 564.629 Q58.3069 561.446 56.6518 558.327 L62.1899 558.327 Q63.5267 561.478 64.227 564.788 Q64.9272 568.098 64.9272 571.504 Q64.9272 580.034 59.9619 585.031 Q54.9967 589.997 46.5303 589.997 Q37.7774 589.997 32.6531 585.286 Q27.4968 580.543 27.4968 572.523 Q27.4968 565.329 32.1438 561.16 Q36.7589 556.959 44.7161 556.959 M42.9973 562.815 Q38.1912 562.879 35.3266 565.52 Q32.4621 568.13 32.4621 572.459 Q32.4621 577.361 35.2312 580.321 Q38.0002 583.249 43.0292 583.694 L42.9973 562.815 Z" fill="#000000" fill-rule="evenodd" fill-opacity="1" /><path clip-path="url(#clip870)" d="M33.8307 526.69 Q33.2578 527.676 33.0032 528.854 Q32.7167 530 32.7167 531.4 Q32.7167 536.365 35.9632 539.039 Q39.1779 541.681 45.2253 541.681 L64.0042 541.681 L64.0042 547.569 L28.3562 547.569 L28.3562 541.681 L33.8944 541.681 Q30.6479 539.835 29.0883 536.875 Q27.4968 533.915 27.4968 529.681 Q27.4968 529.077 27.5923 528.345 Q27.656 527.613 27.8151 526.721 L33.8307 526.69 Z" fill="#000000" fill-rule="evenodd" fill-opacity="1" /><polyline clip-path="url(#clip873)" style="stroke:#009af9; stroke-linecap:butt; stroke-linejoin:round; stroke-width:10; stroke-opacity:1; fill:none" points="
  203.964,1442.95 208.261,1438.32 212.559,1433.74 216.856,1429.2 221.154,1424.71 225.451,1420.26 229.749,1415.86 234.047,1411.5 238.344,1407.18 242.642,1402.91 
  246.939,1398.68 251.237,1394.49 255.535,1390.34 259.832,1386.24 264.13,1382.17 268.427,1378.15 272.725,1374.16 277.023,1370.22 281.32,1366.31 285.618,1362.45 
  289.915,1358.62 294.213,1354.83 298.51,1351.07 302.808,1347.36 307.106,1343.68 311.403,1340.04 315.701,1336.43 319.998,1332.87 324.296,1329.33 328.594,1325.83 
  332.891,1322.37 337.189,1318.94 341.486,1315.54 345.784,1312.18 350.081,1308.86 354.379,1305.56 358.677,1302.3 362.974,1299.07 367.272,1295.87 371.569,1292.71 
  375.867,1289.57 380.165,1286.47 384.462,1283.4 388.76,1280.35 393.057,1277.34 397.355,1274.36 401.652,1271.41 405.95,1268.49 410.248,1265.59 414.545,1262.73 
  418.843,1259.89 423.14,1257.09 427.438,1254.31 431.736,1251.55 436.033,1248.83 440.331,1246.13 444.628,1243.46 448.926,1240.82 453.223,1238.2 457.521,1235.61 
  461.819,1233.04 466.116,1230.5 470.414,1227.99 474.711,1225.5 479.009,1223.03 483.307,1220.59 487.604,1218.17 491.902,1215.78 496.199,1213.41 500.497,1211.07 
  504.794,1208.74 509.092,1206.44 513.39,1204.17 517.687,1201.92 521.985,1199.68 526.282,1197.48 530.58,1195.29 534.878,1193.12 539.175,1190.98 543.473,1188.86 
  547.77,1186.76 552.068,1184.68 556.366,1182.62 560.663,1180.58 564.961,1178.56 569.258,1176.56 573.556,1174.58 577.853,1172.63 582.151,1170.69 586.449,1168.77 
  590.746,1166.87 595.044,1164.98 599.341,1163.12 603.639,1161.27 607.937,1159.45 612.234,1157.64 616.532,1155.85 620.829,1154.08 625.127,1152.32 629.424,1150.59 
  633.722,1148.87 638.02,1147.16 642.317,1145.48 646.615,1143.81 650.912,1142.15 655.21,1140.52 659.508,1138.9 663.805,1137.29 668.103,1135.71 672.4,1134.13 
  676.698,1132.58 680.995,1131.04 685.293,1129.51 689.591,1128 693.888,1126.51 698.186,1125.03 702.483,1123.56 706.781,1122.11 711.079,1120.67 715.376,1119.25 
  719.674,1117.84 723.971,1116.45 728.269,1115.07 732.566,1113.7 736.864,1112.35 741.162,1111.01 745.459,1109.68 749.757,1108.37 754.054,1107.07 758.352,1105.78 
  762.65,1104.51 766.947,1103.24 771.245,1102 775.542,1100.76 779.84,1099.53 784.138,1098.32 788.435,1097.12 792.733,1095.93 797.03,1094.76 801.328,1093.59 
  805.625,1092.44 809.923,1091.3 814.221,1090.17 818.518,1089.05 822.816,1087.94 827.113,1086.84 831.411,1085.76 835.709,1084.68 840.006,1083.62 844.304,1082.57 
  848.601,1081.52 852.899,1080.49 857.196,1079.47 861.494,1078.45 865.792,1077.45 870.089,1076.46 874.387,1075.48 878.684,1074.5 882.982,1073.54 887.28,1072.59 
  891.577,1071.64 895.875,1070.71 900.172,1069.78 904.47,1068.87 908.767,1067.96 913.065,1067.06 917.363,1066.17 921.66,1065.29 925.958,1064.42 930.255,1063.56 
  934.553,1062.71 938.851,1061.86 943.148,1061.02 947.446,1060.19 951.743,1059.37 956.041,1058.56 960.338,1057.76 964.636,1056.96 968.934,1056.17 973.231,1055.39 
  977.529,1054.62 981.826,1053.85 986.124,1053.09 990.422,1052.34 994.719,1051.6 999.017,1050.87 1003.31,1050.14 1007.61,1049.42 1011.91,1048.7 1016.21,1048 
  1020.5,1047.3 1024.8,1046.61 1029.1,1045.92 1033.4,1045.24 1037.69,1044.57 1041.99,1043.91 1046.29,1043.25 1050.59,1042.59 1054.89,1041.95 1059.18,1041.31 
  1063.48,1040.68 1067.78,1040.05 1072.08,1039.43 1076.37,1038.82 1080.67,1038.21 1084.97,1037.61 1089.27,1037.01 1093.56,1036.42 1097.86,1035.84 1102.16,1035.26 
  1106.46,1034.69 1110.75,1034.12 1115.05,1033.56 1119.35,1033 1123.65,1032.45 1127.94,1031.91 1132.24,1031.37 1136.54,1030.83 1140.84,1030.31 1145.13,1029.78 
  1149.43,1029.26 1153.73,1028.75 1158.03,1028.24 1162.32,1027.74 1166.62,1027.24 1170.92,1026.75 1175.22,1026.26 1179.52,1025.78 1183.81,1025.3 1188.11,1024.83 
  1192.41,1024.36 1196.71,1023.89 1201,1023.43 1205.3,1022.98 1209.6,1022.53 1213.9,1022.08 1218.19,1021.64 1222.49,1021.21 1226.79,1020.77 1231.09,1020.34 
  1235.38,1019.92 1239.68,1019.5 1243.98,1019.08 1248.28,1018.67 1252.57,1018.26 1256.87,1017.86 1261.17,1017.46 1265.47,1017.07 1269.76,1016.67 1274.06,1016.29 
  1278.36,1015.9 1282.66,1015.52 1286.95,1015.15 1291.25,1014.77 1295.55,1014.41 1299.85,1014.04 1304.15,1013.68 1308.44,1013.32 1312.74,1012.97 1317.04,1012.62 
  1321.34,1012.27 1325.63,1011.93 1329.93,1011.59 1334.23,1011.25 1338.53,1010.91 1342.82,1010.58 1347.12,1010.26 1351.42,1009.93 1355.72,1009.61 1360.01,1009.3 
  1364.31,1008.98 1368.61,1008.67 1372.91,1008.36 1377.2,1008.06 1381.5,1007.75 1385.8,1007.46 1390.1,1007.16 1394.39,1006.87 1398.69,1006.58 1402.99,1006.29 
  1407.29,1006.01 1411.58,1005.72 1415.88,1005.45 1420.18,1005.17 1424.48,1004.9 1428.78,1004.63 1433.07,1004.36 1437.37,1004.09 1441.67,1003.83 1445.97,1003.57 
  1450.26,1003.31 1454.56,1003.06 1458.86,1002.81 1463.16,1002.56 1467.45,1002.31 1471.75,1002.06 1476.05,1001.82 1480.35,1001.58 1484.64,1001.35 1488.94,1001.11 
  1493.24,1000.88 1497.54,1000.65 1501.83,1000.42 1506.13,1000.19 1510.43,999.969 1514.73,999.748 1519.02,999.528 1523.32,999.311 1527.62,999.096 1531.92,998.884 
  1536.21,998.673 1540.51,998.465 1544.81,998.258 1549.11,998.054 1553.41,997.851 1557.7,997.651 1562,997.453 1566.3,997.256 1570.6,997.062 1574.89,996.869 
  1579.19,996.679 1583.49,996.49 1587.79,996.303 1592.08,996.118 1596.38,995.935 1600.68,995.754 1604.98,995.574 1609.27,995.397 1613.57,995.221 1617.87,995.046 
  1622.17,994.874 1626.46,994.703 1630.76,994.534 1635.06,994.367 1639.36,994.201 1643.65,994.037 1647.95,993.875 1652.25,993.714 1656.55,993.555 1660.84,993.397 
  1665.14,993.241 1669.44,993.087 1673.74,992.934 1678.04,992.782 1682.33,992.632 1686.63,992.484 1690.93,992.337 1695.23,992.191 1699.52,992.047 1703.82,991.905 
  1708.12,991.763 1712.42,991.624 1716.71,991.485 1721.01,991.348 1725.31,991.213 1729.61,991.078 1733.9,990.945 1738.2,990.814 1742.5,990.683 1746.8,990.554 
  1751.09,990.427 1755.39,990.3 1759.69,990.175 1763.99,990.051 1768.28,989.928 1772.58,989.807 1776.88,989.686 1781.18,989.567 1785.47,989.449 1789.77,989.332 
  1794.07,989.217 1798.37,989.102 1802.67,988.989 1806.96,988.877 1811.26,988.766 1815.56,988.656 1819.86,988.547 1824.15,988.439 1828.45,988.333 1832.75,988.227 
  1837.05,988.122 1841.34,988.019 1845.64,987.916 1849.94,987.815 1854.24,987.714 1858.53,987.615 1862.83,987.516 1867.13,987.419 1871.43,987.322 1875.72,987.226 
  1880.02,987.132 1884.32,987.038 1888.62,986.945 1892.91,986.854 1897.21,986.763 1901.51,986.673 1905.81,986.583 1910.1,986.495 1914.4,986.408 1918.7,986.321 
  1923,986.236 1927.3,986.151 1931.59,986.067 1935.89,985.984 1940.19,985.902 1944.49,985.82 1948.78,985.739 1953.08,985.66 1957.38,985.581 1961.68,985.502 
  1965.97,985.425 1970.27,985.348 1974.57,985.272 1978.87,985.197 1983.16,985.122 1987.46,985.049 1991.76,984.976 1996.06,984.904 2000.35,984.832 2004.65,984.761 
  2008.95,984.691 2013.25,984.622 2017.54,984.553 2021.84,984.485 2026.14,984.418 2030.44,984.351 2034.73,984.285 2039.03,984.219 2043.33,984.155 2047.63,984.091 
  2051.92,984.027 2056.22,983.964 2060.52,983.902 2064.82,983.841 2069.12,983.78 2073.41,983.719 2077.71,983.66 2082.01,983.6 2086.31,983.542 2090.6,983.484 
  2094.9,983.426 2099.2,983.37 2103.5,983.313 2107.79,983.258 2112.09,983.202 2116.39,983.148 2120.69,983.094 2124.98,983.04 2129.28,982.987 2133.58,982.935 
  2137.88,982.883 2142.17,982.831 2146.47,982.781 2150.77,982.73 2155.07,982.68 2159.36,982.631 2163.66,982.582 2167.96,982.533 2172.26,982.486 2176.55,982.438 
  2180.85,982.391 2185.15,982.345 2189.45,982.298 2193.75,982.253 2198.04,982.208 2202.34,982.163 2206.64,982.119 2210.94,982.075 2215.23,982.032 2219.53,981.989 
  2223.83,981.946 2228.13,981.904 2232.42,981.862 2236.72,981.821 2241.02,981.78 2245.32,981.74 2249.61,981.7 2253.91,981.66 2258.21,981.621 2262.51,981.582 
  2266.8,981.543 2271.1,981.505 2275.4,981.468 2279.7,981.43 2283.99,981.393 2288.29,981.357 2292.59,981.32 2296.89,981.285 2301.18,981.249 2305.48,981.214 
  2309.78,981.179 2314.08,981.145 2318.38,981.11 2322.67,981.077 2326.97,981.043 2331.27,981.01 2335.57,980.977 2339.86,980.945 2344.16,980.913 2348.46,980.881 
  2352.76,980.849 
  "/>
<polyline clip-path="url(#clip873)" style="stroke:#e26f46; stroke-linecap:butt; stroke-linejoin:round; stroke-width:10; stroke-opacity:1; fill:none" points="
  203.964,1442.95 208.261,1442.86 212.559,1442.59 216.856,1442.14 221.154,1441.52 225.451,1440.74 229.749,1439.79 234.047,1438.7 238.344,1437.45 242.642,1436.06 
  246.939,1434.52 251.237,1432.85 255.535,1431.05 259.832,1429.12 264.13,1427.07 268.427,1424.9 272.725,1422.61 277.023,1420.21 281.32,1417.7 285.618,1415.09 
  289.915,1412.38 294.213,1409.57 298.51,1406.66 302.808,1403.67 307.106,1400.59 311.403,1397.42 315.701,1394.18 319.998,1390.85 324.296,1387.46 328.594,1383.98 
  332.891,1380.45 337.189,1376.84 341.486,1373.17 345.784,1369.44 350.081,1365.65 354.379,1361.8 358.677,1357.91 362.974,1353.95 367.272,1349.96 371.569,1345.91 
  375.867,1341.82 380.165,1337.68 384.462,1333.51 388.76,1329.3 393.057,1325.05 397.355,1320.77 401.652,1316.45 405.95,1312.1 410.248,1307.73 414.545,1303.33 
  418.843,1298.9 423.14,1294.44 427.438,1289.97 431.736,1285.47 436.033,1280.96 440.331,1276.42 444.628,1271.87 448.926,1267.31 453.223,1262.73 457.521,1258.14 
  461.819,1253.53 466.116,1248.92 470.414,1244.3 474.711,1239.67 479.009,1235.03 483.307,1230.39 487.604,1225.75 491.902,1221.1 496.199,1216.45 500.497,1211.8 
  504.794,1207.14 509.092,1202.49 513.39,1197.84 517.687,1193.19 521.985,1188.55 526.282,1183.91 530.58,1179.27 534.878,1174.64 539.175,1170.02 543.473,1165.4 
  547.77,1160.8 552.068,1156.2 556.366,1151.6 560.663,1147.02 564.961,1142.45 569.258,1137.89 573.556,1133.34 577.853,1128.81 582.151,1124.28 586.449,1119.77 
  590.746,1115.28 595.044,1110.79 599.341,1106.32 603.639,1101.87 607.937,1097.43 612.234,1093.01 616.532,1088.61 620.829,1084.22 625.127,1079.85 629.424,1075.49 
  633.722,1071.16 638.02,1066.84 642.317,1062.54 646.615,1058.26 650.912,1053.99 655.21,1049.75 659.508,1045.53 663.805,1041.32 668.103,1037.14 672.4,1032.98 
  676.698,1028.83 680.995,1024.71 685.293,1020.61 689.591,1016.53 693.888,1012.47 698.186,1008.43 702.483,1004.42 706.781,1000.42 711.079,996.452 715.376,992.502 
  719.674,988.574 723.971,984.668 728.269,980.785 732.566,976.924 736.864,973.086 741.162,969.27 745.459,965.477 749.757,961.708 754.054,957.961 758.352,954.237 
  762.65,950.536 766.947,946.858 771.245,943.203 775.542,939.571 779.84,935.963 784.138,932.377 788.435,928.815 792.733,925.277 797.03,921.761 801.328,918.269 
  805.625,914.8 809.923,911.354 814.221,907.932 818.518,904.532 822.816,901.156 827.113,897.803 831.411,894.474 835.709,891.167 840.006,887.884 844.304,884.623 
  848.601,881.386 852.899,878.172 857.196,874.98 861.494,871.812 865.792,868.666 870.089,865.543 874.387,862.443 878.684,859.366 882.982,856.311 887.28,853.279 
  891.577,850.269 895.875,847.281 900.172,844.316 904.47,841.373 908.767,838.453 913.065,835.554 917.363,832.678 921.66,829.823 925.958,826.99 930.255,824.179 
  934.553,821.39 938.851,818.622 943.148,815.876 947.446,813.151 951.743,810.447 956.041,807.765 960.338,805.103 964.636,802.463 968.934,799.843 973.231,797.245 
  977.529,794.667 981.826,792.11 986.124,789.573 990.422,787.056 994.719,784.56 999.017,782.084 1003.31,779.628 1007.61,777.192 1011.91,774.776 1016.21,772.379 
  1020.5,770.002 1024.8,767.645 1029.1,765.307 1033.4,762.988 1037.69,760.689 1041.99,758.408 1046.29,756.147 1050.59,753.904 1054.89,751.68 1059.18,749.475 
  1063.48,747.288 1067.78,745.12 1072.08,742.969 1076.37,740.837 1080.67,738.723 1084.97,736.627 1089.27,734.549 1093.56,732.488 1097.86,730.445 1102.16,728.419 
  1106.46,726.411 1110.75,724.419 1115.05,722.445 1119.35,720.488 1123.65,718.548 1127.94,716.624 1132.24,714.717 1136.54,712.827 1140.84,710.953 1145.13,709.095 
  1149.43,707.254 1153.73,705.428 1158.03,703.619 1162.32,701.825 1166.62,700.047 1170.92,698.284 1175.22,696.538 1179.52,694.806 1183.81,693.09 1188.11,691.388 
  1192.41,689.702 1196.71,688.031 1201,686.374 1205.3,684.733 1209.6,683.106 1213.9,681.493 1218.19,679.894 1222.49,678.31 1226.79,676.74 1231.09,675.185 
  1235.38,673.643 1239.68,672.114 1243.98,670.6 1248.28,669.099 1252.57,667.612 1256.87,666.138 1261.17,664.677 1265.47,663.23 1269.76,661.795 1274.06,660.374 
  1278.36,658.965 1282.66,657.569 1286.95,656.186 1291.25,654.816 1295.55,653.458 1299.85,652.112 1304.15,650.778 1308.44,649.457 1312.74,648.148 1317.04,646.851 
  1321.34,645.565 1325.63,644.291 1329.93,643.029 1334.23,641.779 1338.53,640.54 1342.82,639.313 1347.12,638.096 1351.42,636.891 1355.72,635.697 1360.01,634.514 
  1364.31,633.342 1368.61,632.181 1372.91,631.031 1377.2,629.891 1381.5,628.762 1385.8,627.643 1390.1,626.534 1394.39,625.436 1398.69,624.348 1402.99,623.27 
  1407.29,622.203 1411.58,621.145 1415.88,620.097 1420.18,619.058 1424.48,618.03 1428.78,617.011 1433.07,616.001 1437.37,615.001 1441.67,614.011 1445.97,613.029 
  1450.26,612.057 1454.56,611.094 1458.86,610.14 1463.16,609.195 1467.45,608.259 1471.75,607.331 1476.05,606.413 1480.35,605.503 1484.64,604.601 1488.94,603.708 
  1493.24,602.824 1497.54,601.948 1501.83,601.08 1506.13,600.22 1510.43,599.368 1514.73,598.525 1519.02,597.689 1523.32,596.861 1527.62,596.041 1531.92,595.229 
  1536.21,594.425 1540.51,593.628 1544.81,592.839 1549.11,592.057 1553.41,591.283 1557.7,590.516 1562,589.756 1566.3,589.004 1570.6,588.259 1574.89,587.521 
  1579.19,586.789 1583.49,586.065 1587.79,585.348 1592.08,584.638 1596.38,583.934 1600.68,583.237 1604.98,582.547 1609.27,581.863 1613.57,581.186 1617.87,580.515 
  1622.17,579.851 1626.46,579.193 1630.76,578.541 1635.06,577.896 1639.36,577.257 1643.65,576.624 1647.95,575.997 1652.25,575.376 1656.55,574.761 1660.84,574.152 
  1665.14,573.549 1669.44,572.951 1673.74,572.36 1678.04,571.774 1682.33,571.193 1686.63,570.618 1690.93,570.049 1695.23,569.485 1699.52,568.927 1703.82,568.374 
  1708.12,567.826 1712.42,567.284 1716.71,566.747 1721.01,566.215 1725.31,565.688 1729.61,565.166 1733.9,564.65 1738.2,564.138 1742.5,563.631 1746.8,563.129 
  1751.09,562.633 1755.39,562.14 1759.69,561.653 1763.99,561.17 1768.28,560.692 1772.58,560.219 1776.88,559.75 1781.18,559.286 1785.47,558.826 1789.77,558.371 
  1794.07,557.92 1798.37,557.473 1802.67,557.031 1806.96,556.593 1811.26,556.159 1815.56,555.73 1819.86,555.305 1824.15,554.883 1828.45,554.466 1832.75,554.053 
  1837.05,553.644 1841.34,553.239 1845.64,552.838 1849.94,552.441 1854.24,552.048 1858.53,551.658 1862.83,551.273 1867.13,550.891 1871.43,550.513 1875.72,550.138 
  1880.02,549.767 1884.32,549.4 1888.62,549.036 1892.91,548.676 1897.21,548.319 1901.51,547.966 1905.81,547.617 1910.1,547.27 1914.4,546.927 1918.7,546.588 
  1923,546.252 1927.3,545.919 1931.59,545.589 1935.89,545.262 1940.19,544.939 1944.49,544.619 1948.78,544.302 1953.08,543.988 1957.38,543.677 1961.68,543.369 
  1965.97,543.065 1970.27,542.763 1974.57,542.464 1978.87,542.168 1983.16,541.875 1987.46,541.585 1991.76,541.297 1996.06,541.013 2000.35,540.731 2004.65,540.452 
  2008.95,540.176 2013.25,539.902 2017.54,539.632 2021.84,539.363 2026.14,539.098 2030.44,538.835 2034.73,538.575 2039.03,538.317 2043.33,538.061 2047.63,537.809 
  2051.92,537.558 2056.22,537.31 2060.52,537.065 2064.82,536.822 2069.12,536.581 2073.41,536.343 2077.71,536.107 2082.01,535.874 2086.31,535.642 2090.6,535.413 
  2094.9,535.186 2099.2,534.962 2103.5,534.74 2107.79,534.519 2112.09,534.301 2116.39,534.086 2120.69,533.872 2124.98,533.66 2129.28,533.451 2133.58,533.243 
  2137.88,533.038 2142.17,532.834 2146.47,532.633 2150.77,532.433 2155.07,532.236 2159.36,532.04 2163.66,531.847 2167.96,531.655 2172.26,531.465 2176.55,531.277 
  2180.85,531.091 2185.15,530.907 2189.45,530.724 2193.75,530.544 2198.04,530.365 2202.34,530.188 2206.64,530.012 2210.94,529.839 2215.23,529.667 2219.53,529.497 
  2223.83,529.328 2228.13,529.161 2232.42,528.996 2236.72,528.832 2241.02,528.67 2245.32,528.51 2249.61,528.351 2253.91,528.194 2258.21,528.038 2262.51,527.884 
  2266.8,527.731 2271.1,527.58 2275.4,527.431 2279.7,527.282 2283.99,527.136 2288.29,526.99 2292.59,526.847 2296.89,526.704 2301.18,526.563 2305.48,526.424 
  2309.78,526.285 2314.08,526.149 2318.38,526.013 2322.67,525.879 2326.97,525.746 2331.27,525.614 2335.57,525.484 2339.86,525.355 2344.16,525.228 2348.46,525.101 
  2352.76,524.976 
  "/>
<path clip-path="url(#clip870)" d="
M1882.19 249.288 L2281.13 249.288 L2281.13 93.7676 L1882.19 93.7676  Z
  " fill="#ffffff" fill-rule="evenodd" fill-opacity="1"/>
<polyline clip-path="url(#clip870)" style="stroke:#000000; stroke-linecap:butt; stroke-linejoin:round; stroke-width:4; stroke-opacity:1; fill:none" points="
  1882.19,249.288 2281.13,249.288 2281.13,93.7676 1882.19,93.7676 1882.19,249.288 
  "/>
<polyline clip-path="url(#clip870)" style="stroke:#009af9; stroke-linecap:butt; stroke-linejoin:round; stroke-width:4; stroke-opacity:1; fill:none" points="
  1906.07,145.608 2049.32,145.608 
  "/>
<path clip-path="url(#clip870)" d="M2093.54 141.939 Q2095.14 139.068 2097.36 137.703 Q2099.58 136.337 2102.59 136.337 Q2106.64 136.337 2108.84 139.184 Q2111.04 142.008 2111.04 147.24 L2111.04 162.888 L2106.76 162.888 L2106.76 147.378 Q2106.76 143.652 2105.44 141.846 Q2104.12 140.041 2101.41 140.041 Q2098.1 140.041 2096.18 142.24 Q2094.26 144.439 2094.26 148.235 L2094.26 162.888 L2089.98 162.888 L2089.98 147.378 Q2089.98 143.628 2088.66 141.846 Q2087.34 140.041 2084.58 140.041 Q2081.32 140.041 2079.4 142.263 Q2077.48 144.462 2077.48 148.235 L2077.48 162.888 L2073.19 162.888 L2073.19 136.962 L2077.48 136.962 L2077.48 140.99 Q2078.93 138.605 2080.97 137.471 Q2083.01 136.337 2085.81 136.337 Q2088.63 136.337 2090.6 137.772 Q2092.59 139.207 2093.54 141.939 Z" fill="#000000" fill-rule="evenodd" fill-opacity="1" /><path clip-path="url(#clip870)" d="M2136.11 146.684 Q2137.62 147.193 2139.03 148.86 Q2140.46 150.527 2141.9 153.443 L2146.64 162.888 L2141.62 162.888 L2137.2 154.022 Q2135.49 150.55 2133.87 149.415 Q2132.27 148.281 2129.49 148.281 L2124.4 148.281 L2124.4 162.888 L2119.72 162.888 L2119.72 128.328 L2130.28 128.328 Q2136.2 128.328 2139.12 130.804 Q2142.04 133.281 2142.04 138.281 Q2142.04 141.545 2140.51 143.698 Q2139 145.851 2136.11 146.684 M2124.4 132.17 L2124.4 144.439 L2130.28 144.439 Q2133.66 144.439 2135.37 142.888 Q2137.11 141.314 2137.11 138.281 Q2137.11 135.249 2135.37 133.721 Q2133.66 132.17 2130.28 132.17 L2124.4 132.17 Z" fill="#000000" fill-rule="evenodd" fill-opacity="1" /><path clip-path="url(#clip870)" d="M2152.66 128.328 L2158.96 128.328 L2174.28 157.24 L2174.28 128.328 L2178.82 128.328 L2178.82 162.888 L2172.52 162.888 L2157.2 133.976 L2157.2 162.888 L2152.66 162.888 L2152.66 128.328 Z" fill="#000000" fill-rule="evenodd" fill-opacity="1" /><path clip-path="url(#clip870)" d="M2199.68 132.934 L2193.33 150.133 L2206.04 150.133 L2199.68 132.934 M2197.04 128.328 L2202.34 128.328 L2215.51 162.888 L2210.65 162.888 L2207.5 154.022 L2191.92 154.022 L2188.77 162.888 L2183.84 162.888 L2197.04 128.328 Z" fill="#000000" fill-rule="evenodd" fill-opacity="1" /><polyline clip-path="url(#clip870)" style="stroke:#e26f46; stroke-linecap:butt; stroke-linejoin:round; stroke-width:4; stroke-opacity:1; fill:none" points="
  1906.07,197.448 2049.32,197.448 
  "/>
<path clip-path="url(#clip870)" d="M2077.48 210.839 L2077.48 224.589 L2073.19 224.589 L2073.19 188.802 L2077.48 188.802 L2077.48 192.737 Q2078.82 190.422 2080.86 189.311 Q2082.92 188.177 2085.76 188.177 Q2090.49 188.177 2093.43 191.927 Q2096.39 195.677 2096.39 201.788 Q2096.39 207.899 2093.43 211.649 Q2090.49 215.399 2085.76 215.399 Q2082.92 215.399 2080.86 214.288 Q2078.82 213.154 2077.48 210.839 M2091.97 201.788 Q2091.97 197.089 2090.02 194.427 Q2088.1 191.742 2084.72 191.742 Q2081.34 191.742 2079.4 194.427 Q2077.48 197.089 2077.48 201.788 Q2077.48 206.487 2079.4 209.172 Q2081.34 211.834 2084.72 211.834 Q2088.1 211.834 2090.02 209.172 Q2091.97 206.487 2091.97 201.788 Z" fill="#000000" fill-rule="evenodd" fill-opacity="1" /><path clip-path="url(#clip870)" d="M2118.47 192.783 Q2117.75 192.367 2116.9 192.181 Q2116.06 191.973 2115.05 191.973 Q2111.43 191.973 2109.49 194.334 Q2107.57 196.672 2107.57 201.07 L2107.57 214.728 L2103.29 214.728 L2103.29 188.802 L2107.57 188.802 L2107.57 192.83 Q2108.91 190.468 2111.06 189.334 Q2113.22 188.177 2116.3 188.177 Q2116.74 188.177 2117.27 188.246 Q2117.8 188.293 2118.45 188.408 L2118.47 192.783 Z" fill="#000000" fill-rule="evenodd" fill-opacity="1" /><path clip-path="url(#clip870)" d="M2131.94 191.788 Q2128.52 191.788 2126.53 194.473 Q2124.54 197.135 2124.54 201.788 Q2124.54 206.441 2126.5 209.126 Q2128.49 211.788 2131.94 211.788 Q2135.35 211.788 2137.34 209.103 Q2139.33 206.417 2139.33 201.788 Q2139.33 197.181 2137.34 194.496 Q2135.35 191.788 2131.94 191.788 M2131.94 188.177 Q2137.5 188.177 2140.67 191.788 Q2143.84 195.399 2143.84 201.788 Q2143.84 208.154 2140.67 211.788 Q2137.5 215.399 2131.94 215.399 Q2126.37 215.399 2123.19 211.788 Q2120.05 208.154 2120.05 201.788 Q2120.05 195.399 2123.19 191.788 Q2126.37 188.177 2131.94 188.177 Z" fill="#000000" fill-rule="evenodd" fill-opacity="1" /><path clip-path="url(#clip870)" d="M2155.12 181.441 L2155.12 188.802 L2163.89 188.802 L2163.89 192.112 L2155.12 192.112 L2155.12 206.186 Q2155.12 209.357 2155.97 210.26 Q2156.85 211.163 2159.51 211.163 L2163.89 211.163 L2163.89 214.728 L2159.51 214.728 Q2154.58 214.728 2152.71 212.899 Q2150.83 211.047 2150.83 206.186 L2150.83 192.112 L2147.71 192.112 L2147.71 188.802 L2150.83 188.802 L2150.83 181.441 L2155.12 181.441 Z" fill="#000000" fill-rule="evenodd" fill-opacity="1" /><path clip-path="url(#clip870)" d="M2191.67 200.7 L2191.67 202.783 L2172.08 202.783 Q2172.36 207.181 2174.72 209.496 Q2177.11 211.788 2181.34 211.788 Q2183.8 211.788 2186.09 211.186 Q2188.4 210.584 2190.67 209.38 L2190.67 213.408 Q2188.38 214.38 2185.97 214.89 Q2183.56 215.399 2181.09 215.399 Q2174.88 215.399 2171.25 211.788 Q2167.64 208.177 2167.64 202.019 Q2167.64 195.654 2171.06 191.927 Q2174.51 188.177 2180.35 188.177 Q2185.58 188.177 2188.61 191.556 Q2191.67 194.913 2191.67 200.7 M2187.41 199.45 Q2187.36 195.955 2185.44 193.871 Q2183.54 191.788 2180.39 191.788 Q2176.83 191.788 2174.68 193.802 Q2172.55 195.816 2172.22 199.473 L2187.41 199.45 Z" fill="#000000" fill-rule="evenodd" fill-opacity="1" /><path clip-path="url(#clip870)" d="M2198.66 188.802 L2202.92 188.802 L2202.92 214.728 L2198.66 214.728 L2198.66 188.802 M2198.66 178.709 L2202.92 178.709 L2202.92 184.103 L2198.66 184.103 L2198.66 178.709 Z" fill="#000000" fill-rule="evenodd" fill-opacity="1" /><path clip-path="url(#clip870)" d="M2233.38 199.08 L2233.38 214.728 L2229.12 214.728 L2229.12 199.218 Q2229.12 195.538 2227.68 193.709 Q2226.25 191.881 2223.38 191.881 Q2219.93 191.881 2217.94 194.08 Q2215.95 196.279 2215.95 200.075 L2215.95 214.728 L2211.67 214.728 L2211.67 188.802 L2215.95 188.802 L2215.95 192.83 Q2217.48 190.492 2219.54 189.334 Q2221.62 188.177 2224.33 188.177 Q2228.8 188.177 2231.09 190.955 Q2233.38 193.709 2233.38 199.08 Z" fill="#000000" fill-rule="evenodd" fill-opacity="1" /></svg>
