<?xml version="1.0" encoding="utf-8"?>
<svg xmlns="http://www.w3.org/2000/svg" xmlns:xlink="http://www.w3.org/1999/xlink" width="600" height="400" viewBox="0 0 2400 1600">
<defs>
  <clipPath id="clip380">
    <rect x="0" y="0" width="2400" height="1600"/>
  </clipPath>
</defs>
<path clip-path="url(#clip380)" d="
M0 1600 L2400 1600 L2400 0 L0 0  Z
  " fill="#ffffff" fill-rule="evenodd" fill-opacity="1"/>
<defs>
  <clipPath id="clip381">
    <rect x="480" y="0" width="1681" height="1600"/>
  </clipPath>
</defs>
<defs>
  <clipPath id="clip382">
    <rect x="264" y="47" width="2089" height="1369"/>
  </clipPath>
</defs>
<path clip-path="url(#clip380)" d="
M235.283 1419.97 L2352.76 1419.97 L2352.76 47.2441 L235.283 47.2441  Z
  " fill="#ffffff" fill-rule="evenodd" fill-opacity="1"/>
<defs>
  <clipPath id="clip383">
    <rect x="235" y="47" width="2118" height="1374"/>
  </clipPath>
</defs>
<polyline clip-path="url(#clip383)" style="stroke:#000000; stroke-linecap:butt; stroke-linejoin:round; stroke-width:2; stroke-opacity:0.1; fill:none" points="
  304.634,1419.97 304.634,47.2441 
  "/>
<polyline clip-path="url(#clip383)" style="stroke:#000000; stroke-linecap:butt; stroke-linejoin:round; stroke-width:2; stroke-opacity:0.1; fill:none" points="
  775.77,1419.97 775.77,47.2441 
  "/>
<polyline clip-path="url(#clip383)" style="stroke:#000000; stroke-linecap:butt; stroke-linejoin:round; stroke-width:2; stroke-opacity:0.1; fill:none" points="
  1246.91,1419.97 1246.91,47.2441 
  "/>
<polyline clip-path="url(#clip383)" style="stroke:#000000; stroke-linecap:butt; stroke-linejoin:round; stroke-width:2; stroke-opacity:0.1; fill:none" points="
  1718.04,1419.97 1718.04,47.2441 
  "/>
<polyline clip-path="url(#clip383)" style="stroke:#000000; stroke-linecap:butt; stroke-linejoin:round; stroke-width:2; stroke-opacity:0.1; fill:none" points="
  2189.18,1419.97 2189.18,47.2441 
  "/>
<polyline clip-path="url(#clip380)" style="stroke:#000000; stroke-linecap:butt; stroke-linejoin:round; stroke-width:4; stroke-opacity:1; fill:none" points="
  235.283,1419.97 2352.76,1419.97 
  "/>
<polyline clip-path="url(#clip380)" style="stroke:#000000; stroke-linecap:butt; stroke-linejoin:round; stroke-width:4; stroke-opacity:1; fill:none" points="
  304.634,1419.97 304.634,1403.5 
  "/>
<polyline clip-path="url(#clip380)" style="stroke:#000000; stroke-linecap:butt; stroke-linejoin:round; stroke-width:4; stroke-opacity:1; fill:none" points="
  775.77,1419.97 775.77,1403.5 
  "/>
<polyline clip-path="url(#clip380)" style="stroke:#000000; stroke-linecap:butt; stroke-linejoin:round; stroke-width:4; stroke-opacity:1; fill:none" points="
  1246.91,1419.97 1246.91,1403.5 
  "/>
<polyline clip-path="url(#clip380)" style="stroke:#000000; stroke-linecap:butt; stroke-linejoin:round; stroke-width:4; stroke-opacity:1; fill:none" points="
  1718.04,1419.97 1718.04,1403.5 
  "/>
<polyline clip-path="url(#clip380)" style="stroke:#000000; stroke-linecap:butt; stroke-linejoin:round; stroke-width:4; stroke-opacity:1; fill:none" points="
  2189.18,1419.97 2189.18,1403.5 
  "/>
<path clip-path="url(#clip380)" d="M304.634 1449.16 Q301.023 1449.16 299.194 1452.73 Q297.389 1456.27 297.389 1463.4 Q297.389 1470.51 299.194 1474.07 Q301.023 1477.61 304.634 1477.61 Q308.268 1477.61 310.074 1474.07 Q311.903 1470.51 311.903 1463.4 Q311.903 1456.27 310.074 1452.73 Q308.268 1449.16 304.634 1449.16 M304.634 1445.46 Q310.444 1445.46 313.5 1450.07 Q316.578 1454.65 316.578 1463.4 Q316.578 1472.13 313.5 1476.73 Q310.444 1481.32 304.634 1481.32 Q298.824 1481.32 295.745 1476.73 Q292.69 1472.13 292.69 1463.4 Q292.69 1454.65 295.745 1450.07 Q298.824 1445.46 304.634 1445.46 Z" fill="#000000" fill-rule="evenodd" fill-opacity="1" /><path clip-path="url(#clip380)" d="M750.458 1476.71 L758.096 1476.71 L758.096 1450.35 L749.786 1452.01 L749.786 1447.75 L758.05 1446.09 L762.726 1446.09 L762.726 1476.71 L770.365 1476.71 L770.365 1480.65 L750.458 1480.65 L750.458 1476.71 Z" fill="#000000" fill-rule="evenodd" fill-opacity="1" /><path clip-path="url(#clip380)" d="M789.809 1449.16 Q786.198 1449.16 784.369 1452.73 Q782.564 1456.27 782.564 1463.4 Q782.564 1470.51 784.369 1474.07 Q786.198 1477.61 789.809 1477.61 Q793.443 1477.61 795.249 1474.07 Q797.078 1470.51 797.078 1463.4 Q797.078 1456.27 795.249 1452.73 Q793.443 1449.16 789.809 1449.16 M789.809 1445.46 Q795.619 1445.46 798.675 1450.07 Q801.754 1454.65 801.754 1463.4 Q801.754 1472.13 798.675 1476.73 Q795.619 1481.32 789.809 1481.32 Q783.999 1481.32 780.92 1476.73 Q777.865 1472.13 777.865 1463.4 Q777.865 1454.65 780.92 1450.07 Q783.999 1445.46 789.809 1445.46 Z" fill="#000000" fill-rule="evenodd" fill-opacity="1" /><path clip-path="url(#clip380)" d="M1225.68 1476.71 L1242 1476.71 L1242 1480.65 L1220.05 1480.65 L1220.05 1476.71 Q1222.72 1473.96 1227.3 1469.33 Q1231.91 1464.67 1233.09 1463.33 Q1235.33 1460.81 1236.21 1459.07 Q1237.11 1457.31 1237.11 1455.62 Q1237.11 1452.87 1235.17 1451.13 Q1233.25 1449.4 1230.15 1449.4 Q1227.95 1449.4 1225.49 1450.16 Q1223.06 1450.92 1220.29 1452.48 L1220.29 1447.75 Q1223.11 1446.62 1225.56 1446.04 Q1228.02 1445.46 1230.05 1445.46 Q1235.42 1445.46 1238.62 1448.15 Q1241.81 1450.83 1241.81 1455.32 Q1241.81 1457.45 1241 1459.37 Q1240.22 1461.27 1238.11 1463.86 Q1237.53 1464.54 1234.43 1467.75 Q1231.33 1470.95 1225.68 1476.71 Z" fill="#000000" fill-rule="evenodd" fill-opacity="1" /><path clip-path="url(#clip380)" d="M1261.81 1449.16 Q1258.2 1449.16 1256.37 1452.73 Q1254.57 1456.27 1254.57 1463.4 Q1254.57 1470.51 1256.37 1474.07 Q1258.2 1477.61 1261.81 1477.61 Q1265.45 1477.61 1267.25 1474.07 Q1269.08 1470.51 1269.08 1463.4 Q1269.08 1456.27 1267.25 1452.73 Q1265.45 1449.16 1261.81 1449.16 M1261.81 1445.46 Q1267.62 1445.46 1270.68 1450.07 Q1273.76 1454.65 1273.76 1463.4 Q1273.76 1472.13 1270.68 1476.73 Q1267.62 1481.32 1261.81 1481.32 Q1256 1481.32 1252.92 1476.73 Q1249.87 1472.13 1249.87 1463.4 Q1249.87 1454.65 1252.92 1450.07 Q1256 1445.46 1261.81 1445.46 Z" fill="#000000" fill-rule="evenodd" fill-opacity="1" /><path clip-path="url(#clip380)" d="M1706.88 1462.01 Q1710.24 1462.73 1712.12 1465 Q1714.01 1467.27 1714.01 1470.6 Q1714.01 1475.72 1710.5 1478.52 Q1706.98 1481.32 1700.5 1481.32 Q1698.32 1481.32 1696 1480.88 Q1693.71 1480.46 1691.26 1479.6 L1691.26 1475.09 Q1693.2 1476.22 1695.52 1476.8 Q1697.83 1477.38 1700.36 1477.38 Q1704.75 1477.38 1707.05 1475.65 Q1709.36 1473.91 1709.36 1470.6 Q1709.36 1467.54 1707.21 1465.83 Q1705.08 1464.1 1701.26 1464.1 L1697.23 1464.1 L1697.23 1460.25 L1701.44 1460.25 Q1704.89 1460.25 1706.72 1458.89 Q1708.55 1457.5 1708.55 1454.91 Q1708.55 1452.24 1706.65 1450.83 Q1704.78 1449.4 1701.26 1449.4 Q1699.34 1449.4 1697.14 1449.81 Q1694.94 1450.23 1692.3 1451.11 L1692.3 1446.94 Q1694.96 1446.2 1697.28 1445.83 Q1699.62 1445.46 1701.68 1445.46 Q1707 1445.46 1710.1 1447.89 Q1713.2 1450.3 1713.2 1454.42 Q1713.2 1457.29 1711.56 1459.28 Q1709.92 1461.25 1706.88 1462.01 Z" fill="#000000" fill-rule="evenodd" fill-opacity="1" /><path clip-path="url(#clip380)" d="M1732.88 1449.16 Q1729.27 1449.16 1727.44 1452.73 Q1725.63 1456.27 1725.63 1463.4 Q1725.63 1470.51 1727.44 1474.07 Q1729.27 1477.61 1732.88 1477.61 Q1736.51 1477.61 1738.32 1474.07 Q1740.15 1470.51 1740.15 1463.4 Q1740.15 1456.27 1738.32 1452.73 Q1736.51 1449.16 1732.88 1449.16 M1732.88 1445.46 Q1738.69 1445.46 1741.75 1450.07 Q1744.82 1454.65 1744.82 1463.4 Q1744.82 1472.13 1741.75 1476.73 Q1738.69 1481.32 1732.88 1481.32 Q1727.07 1481.32 1723.99 1476.73 Q1720.94 1472.13 1720.94 1463.4 Q1720.94 1454.65 1723.99 1450.07 Q1727.07 1445.46 1732.88 1445.46 Z" fill="#000000" fill-rule="evenodd" fill-opacity="1" /><path clip-path="url(#clip380)" d="M2177.35 1450.16 L2165.54 1468.61 L2177.35 1468.61 L2177.35 1450.16 M2176.12 1446.09 L2182 1446.09 L2182 1468.61 L2186.93 1468.61 L2186.93 1472.5 L2182 1472.5 L2182 1480.65 L2177.35 1480.65 L2177.35 1472.5 L2161.75 1472.5 L2161.75 1467.98 L2176.12 1446.09 Z" fill="#000000" fill-rule="evenodd" fill-opacity="1" /><path clip-path="url(#clip380)" d="M2204.66 1449.16 Q2201.05 1449.16 2199.22 1452.73 Q2197.42 1456.27 2197.42 1463.4 Q2197.42 1470.51 2199.22 1474.07 Q2201.05 1477.61 2204.66 1477.61 Q2208.3 1477.61 2210.1 1474.07 Q2211.93 1470.51 2211.93 1463.4 Q2211.93 1456.27 2210.1 1452.73 Q2208.3 1449.16 2204.66 1449.16 M2204.66 1445.46 Q2210.47 1445.46 2213.53 1450.07 Q2216.61 1454.65 2216.61 1463.4 Q2216.61 1472.13 2213.53 1476.73 Q2210.47 1481.32 2204.66 1481.32 Q2198.85 1481.32 2195.77 1476.73 Q2192.72 1472.13 2192.72 1463.4 Q2192.72 1454.65 2195.77 1450.07 Q2198.85 1445.46 2204.66 1445.46 Z" fill="#000000" fill-rule="evenodd" fill-opacity="1" /><path clip-path="url(#clip380)" d="M1275.33 1500.5 Q1275.33 1501.11 1275.21 1501.62 L1273.4 1513.09 Q1273.3 1513.96 1273.11 1514.28 Q1272.95 1514.6 1272.44 1514.6 Q1271.63 1514.6 1271.63 1513.76 Q1271.63 1513.28 1271.82 1512.51 Q1272.37 1508.87 1272.37 1507.23 Q1272.37 1506.13 1272.15 1505.33 Q1271.95 1504.49 1271.63 1503.91 Q1271.34 1503.33 1270.66 1502.94 Q1269.99 1502.56 1269.34 1502.33 Q1268.7 1502.11 1267.54 1502.01 Q1266.38 1501.88 1265.38 1501.85 Q1264.38 1501.82 1262.74 1501.82 Q1259.17 1501.82 1258.59 1501.94 Q1257.97 1502.11 1257.65 1502.59 Q1257.36 1503.04 1257.04 1504.39 L1248.28 1539.4 L1248.02 1540.78 Q1248.02 1541.56 1248.51 1541.82 Q1248.99 1542.07 1250.47 1542.23 Q1252.6 1542.4 1254.69 1542.4 Q1254.75 1542.4 1254.88 1542.4 Q1255.59 1542.4 1255.88 1542.43 Q1256.17 1542.43 1256.46 1542.49 Q1256.75 1542.56 1256.82 1542.72 Q1256.91 1542.85 1256.91 1543.1 Q1256.91 1543.72 1256.65 1544.04 Q1256.4 1544.33 1256.14 1544.39 Q1255.91 1544.42 1255.46 1544.42 Q1254.56 1544.42 1252.63 1544.36 Q1250.7 1544.3 1249.73 1544.3 L1244.26 1544.23 L1238.65 1544.3 Q1237.78 1544.3 1235.95 1544.36 Q1234.11 1544.42 1233.24 1544.42 Q1232.11 1544.42 1232.11 1543.62 Q1232.11 1542.72 1232.53 1542.56 Q1232.98 1542.4 1234.88 1542.4 Q1237.56 1542.4 1239.01 1542.27 Q1240.45 1542.14 1241.23 1541.69 Q1242.03 1541.24 1242.26 1540.78 Q1242.48 1540.3 1242.74 1539.21 L1251.6 1504.01 Q1251.86 1503.23 1251.86 1502.62 Q1251.86 1502.3 1251.76 1502.17 Q1251.69 1502.04 1251.28 1501.94 Q1250.86 1501.82 1249.99 1501.82 L1247.41 1501.82 Q1244.77 1501.82 1243.13 1501.94 Q1241.52 1502.04 1239.97 1502.52 Q1238.46 1503.01 1237.56 1503.68 Q1236.69 1504.36 1235.72 1505.74 Q1234.75 1507.13 1234.05 1508.8 Q1233.37 1510.48 1232.4 1513.22 Q1232.08 1514.12 1231.89 1514.38 Q1231.73 1514.6 1231.28 1514.6 Q1230.95 1514.6 1230.7 1514.41 Q1230.47 1514.18 1230.47 1513.89 Q1230.79 1512.83 1230.86 1512.7 L1234.82 1501.08 Q1235.14 1500.14 1235.43 1499.98 Q1235.75 1499.79 1236.94 1499.79 L1273.53 1499.79 Q1274.11 1499.79 1274.3 1499.79 Q1274.5 1499.79 1274.82 1499.85 Q1275.14 1499.92 1275.24 1500.08 Q1275.33 1500.24 1275.33 1500.5 Z" fill="#000000" fill-rule="evenodd" fill-opacity="1" /><path clip-path="url(#clip380)" d="M1281.93 1538.6 L1281.93 1537.15 Q1287.48 1537.15 1290.34 1534.2 Q1291.13 1534.2 1291.27 1534.38 Q1291.4 1534.56 1291.4 1535.4 L1291.4 1561.3 Q1291.4 1562.67 1292.08 1563.1 Q1292.75 1563.53 1295.71 1563.53 L1297.17 1563.53 L1297.17 1564.95 Q1295.55 1564.82 1289.69 1564.82 Q1283.83 1564.82 1282.23 1564.95 L1282.23 1563.53 L1283.69 1563.53 Q1286.6 1563.53 1287.3 1563.13 Q1288 1562.7 1288 1561.3 L1288 1537.38 Q1285.59 1538.6 1281.93 1538.6 Z" fill="#000000" fill-rule="evenodd" fill-opacity="1" /><path clip-path="url(#clip380)" d="M1304.8 1575.84 Q1304.8 1575.61 1304.98 1575.12 L1321.28 1531.56 Q1321.28 1531.52 1321.39 1531.27 Q1321.5 1531.02 1321.57 1530.86 Q1321.64 1530.68 1321.77 1530.55 Q1321.93 1530.41 1322.11 1530.41 Q1322.56 1530.41 1322.56 1530.98 Q1322.56 1531.02 1322.43 1531.56 L1306.08 1575.16 Q1305.81 1575.95 1305.63 1576.18 Q1305.47 1576.4 1305.2 1576.4 Q1304.8 1576.4 1304.8 1575.84 Z" fill="#000000" fill-rule="evenodd" fill-opacity="1" /><path clip-path="url(#clip380)" d="M1327.66 1564.95 Q1327.66 1564.12 1327.73 1563.87 Q1327.82 1563.62 1328.18 1563.24 L1337.04 1553.36 Q1341.89 1547.91 1341.89 1543.15 Q1341.89 1540.06 1340.26 1537.85 Q1338.66 1535.64 1335.71 1535.64 Q1333.68 1535.64 1331.97 1536.88 Q1330.26 1538.12 1329.47 1540.33 Q1329.6 1540.29 1330.07 1540.29 Q1331.22 1540.29 1331.86 1541.01 Q1332.51 1541.73 1332.51 1542.7 Q1332.51 1543.94 1331.7 1544.55 Q1330.91 1545.14 1330.12 1545.14 Q1329.8 1545.14 1329.38 1545.07 Q1328.97 1545 1328.32 1544.37 Q1327.66 1543.72 1327.66 1542.57 Q1327.66 1539.34 1330.1 1536.77 Q1332.55 1534.2 1336.3 1534.2 Q1340.54 1534.2 1343.31 1536.73 Q1346.1 1539.23 1346.1 1543.15 Q1346.1 1544.53 1345.68 1545.79 Q1345.27 1547.03 1344.71 1548 Q1344.17 1548.97 1342.68 1550.52 Q1341.19 1552.08 1339.99 1553.18 Q1338.8 1554.29 1336.12 1556.63 L1331.22 1561.39 L1339.54 1561.39 Q1343.6 1561.39 1343.92 1561.03 Q1344.37 1560.38 1344.93 1556.93 L1346.1 1556.93 L1344.8 1564.95 L1327.66 1564.95 Z" fill="#000000" fill-rule="evenodd" fill-opacity="1" /><polyline clip-path="url(#clip383)" style="stroke:#000000; stroke-linecap:butt; stroke-linejoin:round; stroke-width:2; stroke-opacity:0.1; fill:none" points="
  235.283,1381.12 2352.76,1381.12 
  "/>
<polyline clip-path="url(#clip383)" style="stroke:#000000; stroke-linecap:butt; stroke-linejoin:round; stroke-width:2; stroke-opacity:0.1; fill:none" points="
  235.283,1066.8 2352.76,1066.8 
  "/>
<polyline clip-path="url(#clip383)" style="stroke:#000000; stroke-linecap:butt; stroke-linejoin:round; stroke-width:2; stroke-opacity:0.1; fill:none" points="
  235.283,752.469 2352.76,752.469 
  "/>
<polyline clip-path="url(#clip383)" style="stroke:#000000; stroke-linecap:butt; stroke-linejoin:round; stroke-width:2; stroke-opacity:0.1; fill:none" points="
  235.283,438.142 2352.76,438.142 
  "/>
<polyline clip-path="url(#clip383)" style="stroke:#000000; stroke-linecap:butt; stroke-linejoin:round; stroke-width:2; stroke-opacity:0.1; fill:none" points="
  235.283,123.814 2352.76,123.814 
  "/>
<polyline clip-path="url(#clip380)" style="stroke:#000000; stroke-linecap:butt; stroke-linejoin:round; stroke-width:4; stroke-opacity:1; fill:none" points="
  235.283,1419.97 235.283,47.2441 
  "/>
<polyline clip-path="url(#clip380)" style="stroke:#000000; stroke-linecap:butt; stroke-linejoin:round; stroke-width:4; stroke-opacity:1; fill:none" points="
  235.283,1381.12 260.693,1381.12 
  "/>
<polyline clip-path="url(#clip380)" style="stroke:#000000; stroke-linecap:butt; stroke-linejoin:round; stroke-width:4; stroke-opacity:1; fill:none" points="
  235.283,1066.8 260.693,1066.8 
  "/>
<polyline clip-path="url(#clip380)" style="stroke:#000000; stroke-linecap:butt; stroke-linejoin:round; stroke-width:4; stroke-opacity:1; fill:none" points="
  235.283,752.469 260.693,752.469 
  "/>
<polyline clip-path="url(#clip380)" style="stroke:#000000; stroke-linecap:butt; stroke-linejoin:round; stroke-width:4; stroke-opacity:1; fill:none" points="
  235.283,438.142 260.693,438.142 
  "/>
<polyline clip-path="url(#clip380)" style="stroke:#000000; stroke-linecap:butt; stroke-linejoin:round; stroke-width:4; stroke-opacity:1; fill:none" points="
  235.283,123.814 260.693,123.814 
  "/>
<path clip-path="url(#clip380)" d="M187.338 1366.92 Q183.727 1366.92 181.899 1370.49 Q180.093 1374.03 180.093 1381.16 Q180.093 1388.26 181.899 1391.83 Q183.727 1395.37 187.338 1395.37 Q190.973 1395.37 192.778 1391.83 Q194.607 1388.26 194.607 1381.16 Q194.607 1374.03 192.778 1370.49 Q190.973 1366.92 187.338 1366.92 M187.338 1363.22 Q193.149 1363.22 196.204 1367.82 Q199.283 1372.41 199.283 1381.16 Q199.283 1389.88 196.204 1394.49 Q193.149 1399.07 187.338 1399.07 Q181.528 1399.07 178.45 1394.49 Q175.394 1389.88 175.394 1381.16 Q175.394 1372.41 178.45 1367.82 Q181.528 1363.22 187.338 1363.22 Z" fill="#000000" fill-rule="evenodd" fill-opacity="1" /><path clip-path="url(#clip380)" d="M117.825 1080.14 L125.464 1080.14 L125.464 1053.78 L117.154 1055.44 L117.154 1051.18 L125.418 1049.52 L130.093 1049.52 L130.093 1080.14 L137.732 1080.14 L137.732 1084.08 L117.825 1084.08 L117.825 1080.14 Z" fill="#000000" fill-rule="evenodd" fill-opacity="1" /><path clip-path="url(#clip380)" d="M157.177 1052.59 Q153.566 1052.59 151.737 1056.16 Q149.931 1059.7 149.931 1066.83 Q149.931 1073.94 151.737 1077.5 Q153.566 1081.04 157.177 1081.04 Q160.811 1081.04 162.616 1077.5 Q164.445 1073.94 164.445 1066.83 Q164.445 1059.7 162.616 1056.16 Q160.811 1052.59 157.177 1052.59 M157.177 1048.89 Q162.987 1048.89 166.042 1053.5 Q169.121 1058.08 169.121 1066.83 Q169.121 1075.56 166.042 1080.16 Q162.987 1084.75 157.177 1084.75 Q151.366 1084.75 148.288 1080.16 Q145.232 1075.56 145.232 1066.83 Q145.232 1058.08 148.288 1053.5 Q151.366 1048.89 157.177 1048.89 Z" fill="#000000" fill-rule="evenodd" fill-opacity="1" /><path clip-path="url(#clip380)" d="M187.338 1052.59 Q183.727 1052.59 181.899 1056.16 Q180.093 1059.7 180.093 1066.83 Q180.093 1073.94 181.899 1077.5 Q183.727 1081.04 187.338 1081.04 Q190.973 1081.04 192.778 1077.5 Q194.607 1073.94 194.607 1066.83 Q194.607 1059.7 192.778 1056.16 Q190.973 1052.59 187.338 1052.59 M187.338 1048.89 Q193.149 1048.89 196.204 1053.5 Q199.283 1058.08 199.283 1066.83 Q199.283 1075.56 196.204 1080.16 Q193.149 1084.75 187.338 1084.75 Q181.528 1084.75 178.45 1080.16 Q175.394 1075.56 175.394 1066.83 Q175.394 1058.08 178.45 1053.5 Q181.528 1048.89 187.338 1048.89 Z" fill="#000000" fill-rule="evenodd" fill-opacity="1" /><path clip-path="url(#clip380)" d="M121.043 765.814 L137.362 765.814 L137.362 769.749 L115.418 769.749 L115.418 765.814 Q118.08 763.059 122.663 758.429 Q127.269 753.777 128.45 752.434 Q130.695 749.911 131.575 748.175 Q132.478 746.416 132.478 744.726 Q132.478 741.971 130.533 740.235 Q128.612 738.499 125.51 738.499 Q123.311 738.499 120.857 739.263 Q118.427 740.027 115.649 741.578 L115.649 736.855 Q118.473 735.721 120.927 735.142 Q123.38 734.564 125.418 734.564 Q130.788 734.564 133.982 737.249 Q137.177 739.934 137.177 744.425 Q137.177 746.554 136.367 748.476 Q135.579 750.374 133.473 752.966 Q132.894 753.638 129.792 756.855 Q126.691 760.05 121.043 765.814 Z" fill="#000000" fill-rule="evenodd" fill-opacity="1" /><path clip-path="url(#clip380)" d="M157.177 738.267 Q153.566 738.267 151.737 741.832 Q149.931 745.374 149.931 752.504 Q149.931 759.61 151.737 763.175 Q153.566 766.716 157.177 766.716 Q160.811 766.716 162.616 763.175 Q164.445 759.61 164.445 752.504 Q164.445 745.374 162.616 741.832 Q160.811 738.267 157.177 738.267 M157.177 734.564 Q162.987 734.564 166.042 739.17 Q169.121 743.754 169.121 752.504 Q169.121 761.23 166.042 765.837 Q162.987 770.42 157.177 770.42 Q151.366 770.42 148.288 765.837 Q145.232 761.23 145.232 752.504 Q145.232 743.754 148.288 739.17 Q151.366 734.564 157.177 734.564 Z" fill="#000000" fill-rule="evenodd" fill-opacity="1" /><path clip-path="url(#clip380)" d="M187.338 738.267 Q183.727 738.267 181.899 741.832 Q180.093 745.374 180.093 752.504 Q180.093 759.61 181.899 763.175 Q183.727 766.716 187.338 766.716 Q190.973 766.716 192.778 763.175 Q194.607 759.61 194.607 752.504 Q194.607 745.374 192.778 741.832 Q190.973 738.267 187.338 738.267 M187.338 734.564 Q193.149 734.564 196.204 739.17 Q199.283 743.754 199.283 752.504 Q199.283 761.23 196.204 765.837 Q193.149 770.42 187.338 770.42 Q181.528 770.42 178.45 765.837 Q175.394 761.23 175.394 752.504 Q175.394 743.754 178.45 739.17 Q181.528 734.564 187.338 734.564 Z" fill="#000000" fill-rule="evenodd" fill-opacity="1" /><path clip-path="url(#clip380)" d="M131.181 436.787 Q134.538 437.505 136.413 439.773 Q138.311 442.042 138.311 445.375 Q138.311 450.491 134.792 453.292 Q131.274 456.093 124.793 456.093 Q122.617 456.093 120.302 455.653 Q118.01 455.236 115.556 454.38 L115.556 449.866 Q117.501 451 119.816 451.579 Q122.13 452.158 124.654 452.158 Q129.052 452.158 131.343 450.422 Q133.658 448.685 133.658 445.375 Q133.658 442.32 131.505 440.607 Q129.376 438.871 125.556 438.871 L121.529 438.871 L121.529 435.028 L125.742 435.028 Q129.191 435.028 131.019 433.662 Q132.848 432.273 132.848 429.681 Q132.848 427.019 130.95 425.607 Q129.075 424.172 125.556 424.172 Q123.635 424.172 121.436 424.588 Q119.237 425.005 116.598 425.885 L116.598 421.718 Q119.26 420.977 121.575 420.607 Q123.913 420.237 125.973 420.237 Q131.297 420.237 134.399 422.667 Q137.501 425.074 137.501 429.195 Q137.501 432.065 135.857 434.056 Q134.214 436.023 131.181 436.787 Z" fill="#000000" fill-rule="evenodd" fill-opacity="1" /><path clip-path="url(#clip380)" d="M157.177 423.94 Q153.566 423.94 151.737 427.505 Q149.931 431.047 149.931 438.176 Q149.931 445.283 151.737 448.847 Q153.566 452.389 157.177 452.389 Q160.811 452.389 162.616 448.847 Q164.445 445.283 164.445 438.176 Q164.445 431.047 162.616 427.505 Q160.811 423.94 157.177 423.94 M157.177 420.237 Q162.987 420.237 166.042 424.843 Q169.121 429.426 169.121 438.176 Q169.121 446.903 166.042 451.509 Q162.987 456.093 157.177 456.093 Q151.366 456.093 148.288 451.509 Q145.232 446.903 145.232 438.176 Q145.232 429.426 148.288 424.843 Q151.366 420.237 157.177 420.237 Z" fill="#000000" fill-rule="evenodd" fill-opacity="1" /><path clip-path="url(#clip380)" d="M187.338 423.94 Q183.727 423.94 181.899 427.505 Q180.093 431.047 180.093 438.176 Q180.093 445.283 181.899 448.847 Q183.727 452.389 187.338 452.389 Q190.973 452.389 192.778 448.847 Q194.607 445.283 194.607 438.176 Q194.607 431.047 192.778 427.505 Q190.973 423.94 187.338 423.94 M187.338 420.237 Q193.149 420.237 196.204 424.843 Q199.283 429.426 199.283 438.176 Q199.283 446.903 196.204 451.509 Q193.149 456.093 187.338 456.093 Q181.528 456.093 178.45 451.509 Q175.394 446.903 175.394 438.176 Q175.394 429.426 178.45 424.843 Q181.528 420.237 187.338 420.237 Z" fill="#000000" fill-rule="evenodd" fill-opacity="1" /><path clip-path="url(#clip380)" d="M129.862 110.608 L118.056 129.057 L129.862 129.057 L129.862 110.608 M128.635 106.534 L134.515 106.534 L134.515 129.057 L139.445 129.057 L139.445 132.946 L134.515 132.946 L134.515 141.094 L129.862 141.094 L129.862 132.946 L114.26 132.946 L114.26 128.432 L128.635 106.534 Z" fill="#000000" fill-rule="evenodd" fill-opacity="1" /><path clip-path="url(#clip380)" d="M157.177 109.613 Q153.566 109.613 151.737 113.178 Q149.931 116.719 149.931 123.849 Q149.931 130.955 151.737 134.52 Q153.566 138.062 157.177 138.062 Q160.811 138.062 162.616 134.52 Q164.445 130.955 164.445 123.849 Q164.445 116.719 162.616 113.178 Q160.811 109.613 157.177 109.613 M157.177 105.909 Q162.987 105.909 166.042 110.516 Q169.121 115.099 169.121 123.849 Q169.121 132.576 166.042 137.182 Q162.987 141.766 157.177 141.766 Q151.366 141.766 148.288 137.182 Q145.232 132.576 145.232 123.849 Q145.232 115.099 148.288 110.516 Q151.366 105.909 157.177 105.909 Z" fill="#000000" fill-rule="evenodd" fill-opacity="1" /><path clip-path="url(#clip380)" d="M187.338 109.613 Q183.727 109.613 181.899 113.178 Q180.093 116.719 180.093 123.849 Q180.093 130.955 181.899 134.52 Q183.727 138.062 187.338 138.062 Q190.973 138.062 192.778 134.52 Q194.607 130.955 194.607 123.849 Q194.607 116.719 192.778 113.178 Q190.973 109.613 187.338 109.613 M187.338 105.909 Q193.149 105.909 196.204 110.516 Q199.283 115.099 199.283 123.849 Q199.283 132.576 196.204 137.182 Q193.149 141.766 187.338 141.766 Q181.528 141.766 178.45 137.182 Q175.394 132.576 175.394 123.849 Q175.394 115.099 178.45 110.516 Q181.528 105.909 187.338 105.909 Z" fill="#000000" fill-rule="evenodd" fill-opacity="1" /><path clip-path="url(#clip380)" d="M29.7248 794.784 L35.1993 794.784 Q33.8307 797.266 33.1623 799.781 Q32.4621 802.263 32.4621 804.81 Q32.4621 810.507 36.0905 813.658 Q39.6872 816.809 46.212 816.809 Q52.7369 816.809 56.3653 813.658 Q59.9619 810.507 59.9619 804.81 Q59.9619 802.263 59.2935 799.781 Q58.5933 797.266 57.2247 794.784 L62.6355 794.784 Q63.7814 797.234 64.3543 799.876 Q64.9272 802.486 64.9272 805.446 Q64.9272 813.499 59.8664 818.241 Q54.8057 822.984 46.212 822.984 Q37.491 822.984 32.4939 818.209 Q27.4968 813.403 27.4968 805.064 Q27.4968 802.359 28.0697 799.781 Q28.6108 797.203 29.7248 794.784 Z" fill="#000000" fill-rule="evenodd" fill-opacity="1" /><path clip-path="url(#clip380)" d="M32.4621 770.785 Q32.4621 775.496 36.1542 778.233 Q39.8145 780.97 46.212 780.97 Q52.6095 780.97 56.3017 778.265 Q59.9619 775.527 59.9619 770.785 Q59.9619 766.106 56.2698 763.369 Q52.5777 760.632 46.212 760.632 Q39.8781 760.632 36.186 763.369 Q32.4621 766.106 32.4621 770.785 M27.4968 770.785 Q27.4968 763.146 32.4621 758.786 Q37.4273 754.425 46.212 754.425 Q54.9649 754.425 59.9619 758.786 Q64.9272 763.146 64.9272 770.785 Q64.9272 778.456 59.9619 782.816 Q54.9649 787.145 46.212 787.145 Q37.4273 787.145 32.4621 782.816 Q27.4968 778.456 27.4968 770.785 Z" fill="#000000" fill-rule="evenodd" fill-opacity="1" /><path clip-path="url(#clip380)" d="M49.9359 745.322 L28.3562 745.322 L28.3562 739.466 L49.7131 739.466 Q54.7739 739.466 57.3202 737.492 Q59.8346 735.519 59.8346 731.572 Q59.8346 726.83 56.8109 724.092 Q53.7872 721.323 48.5673 721.323 L28.3562 721.323 L28.3562 715.467 L64.0042 715.467 L64.0042 721.323 L58.5296 721.323 Q61.7762 723.456 63.3676 726.289 Q64.9272 729.09 64.9272 732.813 Q64.9272 738.956 61.1078 742.139 Q57.2883 745.322 49.9359 745.322 M27.4968 730.585 L27.4968 730.585 Z" fill="#000000" fill-rule="evenodd" fill-opacity="1" /><path clip-path="url(#clip380)" d="M42.4881 673.772 L64.0042 673.772 L64.0042 679.628 L42.679 679.628 Q37.6183 679.628 35.1038 681.601 Q32.5894 683.575 32.5894 687.521 Q32.5894 692.264 35.6131 695.001 Q38.6368 697.738 43.8567 697.738 L64.0042 697.738 L64.0042 703.627 L28.3562 703.627 L28.3562 697.738 L33.8944 697.738 Q30.6797 695.638 29.0883 692.805 Q27.4968 689.94 27.4968 686.216 Q27.4968 680.074 31.3163 676.923 Q35.1038 673.772 42.4881 673.772 Z" fill="#000000" fill-rule="evenodd" fill-opacity="1" /><path clip-path="url(#clip380)" d="M18.2347 656.298 L28.3562 656.298 L28.3562 644.235 L32.9077 644.235 L32.9077 656.298 L52.2594 656.298 Q56.6199 656.298 57.8613 655.12 Q59.1026 653.911 59.1026 650.25 L59.1026 644.235 L64.0042 644.235 L64.0042 650.25 Q64.0042 657.03 61.4897 659.608 Q58.9434 662.186 52.2594 662.186 L32.9077 662.186 L32.9077 666.483 L28.3562 666.483 L28.3562 662.186 L18.2347 662.186 L18.2347 656.298 Z" fill="#000000" fill-rule="evenodd" fill-opacity="1" /><path clip-path="url(#clip383)" d="
M351.748 1377.98 L351.748 1381.12 L398.861 1381.12 L398.861 1377.98 L351.748 1377.98 L351.748 1377.98  Z
  " fill="#009af9" fill-rule="evenodd" fill-opacity="1"/>
<polyline clip-path="url(#clip383)" style="stroke:#009af9; stroke-linecap:butt; stroke-linejoin:round; stroke-width:4; stroke-opacity:1; fill:none" points="
  351.748,1377.98 351.748,1381.12 398.861,1381.12 398.861,1377.98 351.748,1377.98 
  "/>
<path clip-path="url(#clip383)" d="
M398.861 1315.11 L398.861 1381.12 L445.975 1381.12 L445.975 1315.11 L398.861 1315.11 L398.861 1315.11  Z
  " fill="#009af9" fill-rule="evenodd" fill-opacity="1"/>
<polyline clip-path="url(#clip383)" style="stroke:#009af9; stroke-linecap:butt; stroke-linejoin:round; stroke-width:4; stroke-opacity:1; fill:none" points="
  398.861,1315.11 398.861,1381.12 445.975,1381.12 445.975,1315.11 398.861,1315.11 
  "/>
<path clip-path="url(#clip383)" d="
M445.975 1007.07 L445.975 1381.12 L493.088 1381.12 L493.088 1007.07 L445.975 1007.07 L445.975 1007.07  Z
  " fill="#009af9" fill-rule="evenodd" fill-opacity="1"/>
<polyline clip-path="url(#clip383)" style="stroke:#009af9; stroke-linecap:butt; stroke-linejoin:round; stroke-width:4; stroke-opacity:1; fill:none" points="
  445.975,1007.07 445.975,1381.12 493.088,1381.12 493.088,1007.07 445.975,1007.07 
  "/>
<path clip-path="url(#clip383)" d="
M493.088 714.75 L493.088 1381.12 L540.202 1381.12 L540.202 714.75 L493.088 714.75 L493.088 714.75  Z
  " fill="#009af9" fill-rule="evenodd" fill-opacity="1"/>
<polyline clip-path="url(#clip383)" style="stroke:#009af9; stroke-linecap:butt; stroke-linejoin:round; stroke-width:4; stroke-opacity:1; fill:none" points="
  493.088,714.75 493.088,1381.12 540.202,1381.12 540.202,714.75 493.088,714.75 
  "/>
<path clip-path="url(#clip383)" d="
M540.202 438.142 L540.202 1381.12 L587.316 1381.12 L587.316 438.142 L540.202 438.142 L540.202 438.142  Z
  " fill="#009af9" fill-rule="evenodd" fill-opacity="1"/>
<polyline clip-path="url(#clip383)" style="stroke:#009af9; stroke-linecap:butt; stroke-linejoin:round; stroke-width:4; stroke-opacity:1; fill:none" points="
  540.202,438.142 540.202,1381.12 587.316,1381.12 587.316,438.142 540.202,438.142 
  "/>
<path clip-path="url(#clip383)" d="
M587.316 277.835 L587.316 1381.12 L634.429 1381.12 L634.429 277.835 L587.316 277.835 L587.316 277.835  Z
  " fill="#009af9" fill-rule="evenodd" fill-opacity="1"/>
<polyline clip-path="url(#clip383)" style="stroke:#009af9; stroke-linecap:butt; stroke-linejoin:round; stroke-width:4; stroke-opacity:1; fill:none" points="
  587.316,277.835 587.316,1381.12 634.429,1381.12 634.429,277.835 587.316,277.835 
  "/>
<path clip-path="url(#clip383)" d="
M634.429 284.121 L634.429 1381.12 L681.543 1381.12 L681.543 284.121 L634.429 284.121 L634.429 284.121  Z
  " fill="#009af9" fill-rule="evenodd" fill-opacity="1"/>
<polyline clip-path="url(#clip383)" style="stroke:#009af9; stroke-linecap:butt; stroke-linejoin:round; stroke-width:4; stroke-opacity:1; fill:none" points="
  634.429,284.121 634.429,1381.12 681.543,1381.12 681.543,284.121 634.429,284.121 
  "/>
<path clip-path="url(#clip383)" d="
M681.543 98.668 L681.543 1381.12 L728.656 1381.12 L728.656 98.668 L681.543 98.668 L681.543 98.668  Z
  " fill="#009af9" fill-rule="evenodd" fill-opacity="1"/>
<polyline clip-path="url(#clip383)" style="stroke:#009af9; stroke-linecap:butt; stroke-linejoin:round; stroke-width:4; stroke-opacity:1; fill:none" points="
  681.543,98.668 681.543,1381.12 728.656,1381.12 728.656,98.668 681.543,98.668 
  "/>
<path clip-path="url(#clip383)" d="
M728.656 86.0949 L728.656 1381.12 L775.77 1381.12 L775.77 86.0949 L728.656 86.0949 L728.656 86.0949  Z
  " fill="#009af9" fill-rule="evenodd" fill-opacity="1"/>
<polyline clip-path="url(#clip383)" style="stroke:#009af9; stroke-linecap:butt; stroke-linejoin:round; stroke-width:4; stroke-opacity:1; fill:none" points="
  728.656,86.0949 728.656,1381.12 775.77,1381.12 775.77,86.0949 728.656,86.0949 
  "/>
<path clip-path="url(#clip383)" d="
M775.77 284.121 L775.77 1381.12 L822.884 1381.12 L822.884 284.121 L775.77 284.121 L775.77 284.121  Z
  " fill="#009af9" fill-rule="evenodd" fill-opacity="1"/>
<polyline clip-path="url(#clip383)" style="stroke:#009af9; stroke-linecap:butt; stroke-linejoin:round; stroke-width:4; stroke-opacity:1; fill:none" points="
  775.77,284.121 775.77,1381.12 822.884,1381.12 822.884,284.121 775.77,284.121 
  "/>
<path clip-path="url(#clip383)" d="
M822.884 334.414 L822.884 1381.12 L869.997 1381.12 L869.997 334.414 L822.884 334.414 L822.884 334.414  Z
  " fill="#009af9" fill-rule="evenodd" fill-opacity="1"/>
<polyline clip-path="url(#clip383)" style="stroke:#009af9; stroke-linecap:butt; stroke-linejoin:round; stroke-width:4; stroke-opacity:1; fill:none" points="
  822.884,334.414 822.884,1381.12 869.997,1381.12 869.997,334.414 822.884,334.414 
  "/>
<path clip-path="url(#clip383)" d="
M869.997 488.434 L869.997 1381.12 L917.111 1381.12 L917.111 488.434 L869.997 488.434 L869.997 488.434  Z
  " fill="#009af9" fill-rule="evenodd" fill-opacity="1"/>
<polyline clip-path="url(#clip383)" style="stroke:#009af9; stroke-linecap:butt; stroke-linejoin:round; stroke-width:4; stroke-opacity:1; fill:none" points="
  869.997,488.434 869.997,1381.12 917.111,1381.12 917.111,488.434 869.997,488.434 
  "/>
<path clip-path="url(#clip383)" d="
M917.111 680.174 L917.111 1381.12 L964.224 1381.12 L964.224 680.174 L917.111 680.174 L917.111 680.174  Z
  " fill="#009af9" fill-rule="evenodd" fill-opacity="1"/>
<polyline clip-path="url(#clip383)" style="stroke:#009af9; stroke-linecap:butt; stroke-linejoin:round; stroke-width:4; stroke-opacity:1; fill:none" points="
  917.111,680.174 917.111,1381.12 964.224,1381.12 964.224,680.174 917.111,680.174 
  "/>
<path clip-path="url(#clip383)" d="
M964.224 821.621 L964.224 1381.12 L1011.34 1381.12 L1011.34 821.621 L964.224 821.621 L964.224 821.621  Z
  " fill="#009af9" fill-rule="evenodd" fill-opacity="1"/>
<polyline clip-path="url(#clip383)" style="stroke:#009af9; stroke-linecap:butt; stroke-linejoin:round; stroke-width:4; stroke-opacity:1; fill:none" points="
  964.224,821.621 964.224,1381.12 1011.34,1381.12 1011.34,821.621 964.224,821.621 
  "/>
<path clip-path="url(#clip383)" d="
M1011.34 878.2 L1011.34 1381.12 L1058.45 1381.12 L1058.45 878.2 L1011.34 878.2 L1011.34 878.2  Z
  " fill="#009af9" fill-rule="evenodd" fill-opacity="1"/>
<polyline clip-path="url(#clip383)" style="stroke:#009af9; stroke-linecap:butt; stroke-linejoin:round; stroke-width:4; stroke-opacity:1; fill:none" points="
  1011.34,878.2 1011.34,1381.12 1058.45,1381.12 1058.45,878.2 1011.34,878.2 
  "/>
<path clip-path="url(#clip383)" d="
M1058.45 1007.07 L1058.45 1381.12 L1105.57 1381.12 L1105.57 1007.07 L1058.45 1007.07 L1058.45 1007.07  Z
  " fill="#009af9" fill-rule="evenodd" fill-opacity="1"/>
<polyline clip-path="url(#clip383)" style="stroke:#009af9; stroke-linecap:butt; stroke-linejoin:round; stroke-width:4; stroke-opacity:1; fill:none" points="
  1058.45,1007.07 1058.45,1381.12 1105.57,1381.12 1105.57,1007.07 1058.45,1007.07 
  "/>
<path clip-path="url(#clip383)" d="
M1105.57 1091.94 L1105.57 1381.12 L1152.68 1381.12 L1152.68 1091.94 L1105.57 1091.94 L1105.57 1091.94  Z
  " fill="#009af9" fill-rule="evenodd" fill-opacity="1"/>
<polyline clip-path="url(#clip383)" style="stroke:#009af9; stroke-linecap:butt; stroke-linejoin:round; stroke-width:4; stroke-opacity:1; fill:none" points="
  1105.57,1091.94 1105.57,1381.12 1152.68,1381.12 1152.68,1091.94 1105.57,1091.94 
  "/>
<path clip-path="url(#clip383)" d="
M1152.68 1142.23 L1152.68 1381.12 L1199.79 1381.12 L1199.79 1142.23 L1152.68 1142.23 L1152.68 1142.23  Z
  " fill="#009af9" fill-rule="evenodd" fill-opacity="1"/>
<polyline clip-path="url(#clip383)" style="stroke:#009af9; stroke-linecap:butt; stroke-linejoin:round; stroke-width:4; stroke-opacity:1; fill:none" points="
  1152.68,1142.23 1152.68,1381.12 1199.79,1381.12 1199.79,1142.23 1152.68,1142.23 
  "/>
<path clip-path="url(#clip383)" d="
M1199.79 1205.1 L1199.79 1381.12 L1246.91 1381.12 L1246.91 1205.1 L1199.79 1205.1 L1199.79 1205.1  Z
  " fill="#009af9" fill-rule="evenodd" fill-opacity="1"/>
<polyline clip-path="url(#clip383)" style="stroke:#009af9; stroke-linecap:butt; stroke-linejoin:round; stroke-width:4; stroke-opacity:1; fill:none" points="
  1199.79,1205.1 1199.79,1381.12 1246.91,1381.12 1246.91,1205.1 1199.79,1205.1 
  "/>
<path clip-path="url(#clip383)" d="
M1246.91 1227.1 L1246.91 1381.12 L1294.02 1381.12 L1294.02 1227.1 L1246.91 1227.1 L1246.91 1227.1  Z
  " fill="#009af9" fill-rule="evenodd" fill-opacity="1"/>
<polyline clip-path="url(#clip383)" style="stroke:#009af9; stroke-linecap:butt; stroke-linejoin:round; stroke-width:4; stroke-opacity:1; fill:none" points="
  1246.91,1227.1 1246.91,1381.12 1294.02,1381.12 1294.02,1227.1 1246.91,1227.1 
  "/>
<path clip-path="url(#clip383)" d="
M1294.02 1280.54 L1294.02 1381.12 L1341.13 1381.12 L1341.13 1280.54 L1294.02 1280.54 L1294.02 1280.54  Z
  " fill="#009af9" fill-rule="evenodd" fill-opacity="1"/>
<polyline clip-path="url(#clip383)" style="stroke:#009af9; stroke-linecap:butt; stroke-linejoin:round; stroke-width:4; stroke-opacity:1; fill:none" points="
  1294.02,1280.54 1294.02,1381.12 1341.13,1381.12 1341.13,1280.54 1294.02,1280.54 
  "/>
<path clip-path="url(#clip383)" d="
M1341.13 1289.97 L1341.13 1381.12 L1388.25 1381.12 L1388.25 1289.97 L1341.13 1289.97 L1341.13 1289.97  Z
  " fill="#009af9" fill-rule="evenodd" fill-opacity="1"/>
<polyline clip-path="url(#clip383)" style="stroke:#009af9; stroke-linecap:butt; stroke-linejoin:round; stroke-width:4; stroke-opacity:1; fill:none" points="
  1341.13,1289.97 1341.13,1381.12 1388.25,1381.12 1388.25,1289.97 1341.13,1289.97 
  "/>
<path clip-path="url(#clip383)" d="
M1388.25 1330.83 L1388.25 1381.12 L1435.36 1381.12 L1435.36 1330.83 L1388.25 1330.83 L1388.25 1330.83  Z
  " fill="#009af9" fill-rule="evenodd" fill-opacity="1"/>
<polyline clip-path="url(#clip383)" style="stroke:#009af9; stroke-linecap:butt; stroke-linejoin:round; stroke-width:4; stroke-opacity:1; fill:none" points="
  1388.25,1330.83 1388.25,1381.12 1435.36,1381.12 1435.36,1330.83 1388.25,1330.83 
  "/>
<path clip-path="url(#clip383)" d="
M1435.36 1333.97 L1435.36 1381.12 L1482.47 1381.12 L1482.47 1333.97 L1435.36 1333.97 L1435.36 1333.97  Z
  " fill="#009af9" fill-rule="evenodd" fill-opacity="1"/>
<polyline clip-path="url(#clip383)" style="stroke:#009af9; stroke-linecap:butt; stroke-linejoin:round; stroke-width:4; stroke-opacity:1; fill:none" points="
  1435.36,1333.97 1435.36,1381.12 1482.47,1381.12 1482.47,1333.97 1435.36,1333.97 
  "/>
<path clip-path="url(#clip383)" d="
M1482.47 1340.26 L1482.47 1381.12 L1529.59 1381.12 L1529.59 1340.26 L1482.47 1340.26 L1482.47 1340.26  Z
  " fill="#009af9" fill-rule="evenodd" fill-opacity="1"/>
<polyline clip-path="url(#clip383)" style="stroke:#009af9; stroke-linecap:butt; stroke-linejoin:round; stroke-width:4; stroke-opacity:1; fill:none" points="
  1482.47,1340.26 1482.47,1381.12 1529.59,1381.12 1529.59,1340.26 1482.47,1340.26 
  "/>
<path clip-path="url(#clip383)" d="
M1529.59 1340.26 L1529.59 1381.12 L1576.7 1381.12 L1576.7 1340.26 L1529.59 1340.26 L1529.59 1340.26  Z
  " fill="#009af9" fill-rule="evenodd" fill-opacity="1"/>
<polyline clip-path="url(#clip383)" style="stroke:#009af9; stroke-linecap:butt; stroke-linejoin:round; stroke-width:4; stroke-opacity:1; fill:none" points="
  1529.59,1340.26 1529.59,1381.12 1576.7,1381.12 1576.7,1340.26 1529.59,1340.26 
  "/>
<path clip-path="url(#clip383)" d="
M1576.7 1349.69 L1576.7 1381.12 L1623.81 1381.12 L1623.81 1349.69 L1576.7 1349.69 L1576.7 1349.69  Z
  " fill="#009af9" fill-rule="evenodd" fill-opacity="1"/>
<polyline clip-path="url(#clip383)" style="stroke:#009af9; stroke-linecap:butt; stroke-linejoin:round; stroke-width:4; stroke-opacity:1; fill:none" points="
  1576.7,1349.69 1576.7,1381.12 1623.81,1381.12 1623.81,1349.69 1576.7,1349.69 
  "/>
<path clip-path="url(#clip383)" d="
M1623.81 1368.55 L1623.81 1381.12 L1670.93 1381.12 L1670.93 1368.55 L1623.81 1368.55 L1623.81 1368.55  Z
  " fill="#009af9" fill-rule="evenodd" fill-opacity="1"/>
<polyline clip-path="url(#clip383)" style="stroke:#009af9; stroke-linecap:butt; stroke-linejoin:round; stroke-width:4; stroke-opacity:1; fill:none" points="
  1623.81,1368.55 1623.81,1381.12 1670.93,1381.12 1670.93,1368.55 1623.81,1368.55 
  "/>
<path clip-path="url(#clip383)" d="
M1670.93 1368.55 L1670.93 1381.12 L1718.04 1381.12 L1718.04 1368.55 L1670.93 1368.55 L1670.93 1368.55  Z
  " fill="#009af9" fill-rule="evenodd" fill-opacity="1"/>
<polyline clip-path="url(#clip383)" style="stroke:#009af9; stroke-linecap:butt; stroke-linejoin:round; stroke-width:4; stroke-opacity:1; fill:none" points="
  1670.93,1368.55 1670.93,1381.12 1718.04,1381.12 1718.04,1368.55 1670.93,1368.55 
  "/>
<path clip-path="url(#clip383)" d="
M1718.04 1377.98 L1718.04 1381.12 L1765.16 1381.12 L1765.16 1377.98 L1718.04 1377.98 L1718.04 1377.98  Z
  " fill="#009af9" fill-rule="evenodd" fill-opacity="1"/>
<polyline clip-path="url(#clip383)" style="stroke:#009af9; stroke-linecap:butt; stroke-linejoin:round; stroke-width:4; stroke-opacity:1; fill:none" points="
  1718.04,1377.98 1718.04,1381.12 1765.16,1381.12 1765.16,1377.98 1718.04,1377.98 
  "/>
<path clip-path="url(#clip383)" d="
M1765.16 1368.55 L1765.16 1381.12 L1812.27 1381.12 L1812.27 1368.55 L1765.16 1368.55 L1765.16 1368.55  Z
  " fill="#009af9" fill-rule="evenodd" fill-opacity="1"/>
<polyline clip-path="url(#clip383)" style="stroke:#009af9; stroke-linecap:butt; stroke-linejoin:round; stroke-width:4; stroke-opacity:1; fill:none" points="
  1765.16,1368.55 1765.16,1381.12 1812.27,1381.12 1812.27,1368.55 1765.16,1368.55 
  "/>
<path clip-path="url(#clip383)" d="
M1812.27 1371.69 L1812.27 1381.12 L1859.38 1381.12 L1859.38 1371.69 L1812.27 1371.69 L1812.27 1371.69  Z
  " fill="#009af9" fill-rule="evenodd" fill-opacity="1"/>
<polyline clip-path="url(#clip383)" style="stroke:#009af9; stroke-linecap:butt; stroke-linejoin:round; stroke-width:4; stroke-opacity:1; fill:none" points="
  1812.27,1371.69 1812.27,1381.12 1859.38,1381.12 1859.38,1371.69 1812.27,1371.69 
  "/>
<path clip-path="url(#clip383)" d="
M1859.38 1374.84 L1859.38 1381.12 L1906.5 1381.12 L1906.5 1374.84 L1859.38 1374.84 L1859.38 1374.84  Z
  " fill="#009af9" fill-rule="evenodd" fill-opacity="1"/>
<polyline clip-path="url(#clip383)" style="stroke:#009af9; stroke-linecap:butt; stroke-linejoin:round; stroke-width:4; stroke-opacity:1; fill:none" points="
  1859.38,1374.84 1859.38,1381.12 1906.5,1381.12 1906.5,1374.84 1859.38,1374.84 
  "/>
<path clip-path="url(#clip383)" d="
M1906.5 1374.84 L1906.5 1381.12 L1953.61 1381.12 L1953.61 1374.84 L1906.5 1374.84 L1906.5 1374.84  Z
  " fill="#009af9" fill-rule="evenodd" fill-opacity="1"/>
<polyline clip-path="url(#clip383)" style="stroke:#009af9; stroke-linecap:butt; stroke-linejoin:round; stroke-width:4; stroke-opacity:1; fill:none" points="
  1906.5,1374.84 1906.5,1381.12 1953.61,1381.12 1953.61,1374.84 1906.5,1374.84 
  "/>
<path clip-path="url(#clip383)" d="
M1953.61 1381.12 L1953.61 1381.12 L2000.72 1381.12 L2000.72 1381.12 L1953.61 1381.12 L1953.61 1381.12  Z
  " fill="#009af9" fill-rule="evenodd" fill-opacity="1"/>
<polyline clip-path="url(#clip383)" style="stroke:#009af9; stroke-linecap:butt; stroke-linejoin:round; stroke-width:4; stroke-opacity:1; fill:none" points="
  1953.61,1381.12 1953.61,1381.12 2000.72,1381.12 1953.61,1381.12 
  "/>
<path clip-path="url(#clip383)" d="
M2000.72 1377.98 L2000.72 1381.12 L2047.84 1381.12 L2047.84 1377.98 L2000.72 1377.98 L2000.72 1377.98  Z
  " fill="#009af9" fill-rule="evenodd" fill-opacity="1"/>
<polyline clip-path="url(#clip383)" style="stroke:#009af9; stroke-linecap:butt; stroke-linejoin:round; stroke-width:4; stroke-opacity:1; fill:none" points="
  2000.72,1377.98 2000.72,1381.12 2047.84,1381.12 2047.84,1377.98 2000.72,1377.98 
  "/>
<path clip-path="url(#clip383)" d="
M2047.84 1377.98 L2047.84 1381.12 L2094.95 1381.12 L2094.95 1377.98 L2047.84 1377.98 L2047.84 1377.98  Z
  " fill="#009af9" fill-rule="evenodd" fill-opacity="1"/>
<polyline clip-path="url(#clip383)" style="stroke:#009af9; stroke-linecap:butt; stroke-linejoin:round; stroke-width:4; stroke-opacity:1; fill:none" points="
  2047.84,1377.98 2047.84,1381.12 2094.95,1381.12 2094.95,1377.98 2047.84,1377.98 
  "/>
<path clip-path="url(#clip383)" d="
M2094.95 1374.84 L2094.95 1381.12 L2142.06 1381.12 L2142.06 1374.84 L2094.95 1374.84 L2094.95 1374.84  Z
  " fill="#009af9" fill-rule="evenodd" fill-opacity="1"/>
<polyline clip-path="url(#clip383)" style="stroke:#009af9; stroke-linecap:butt; stroke-linejoin:round; stroke-width:4; stroke-opacity:1; fill:none" points="
  2094.95,1374.84 2094.95,1381.12 2142.06,1381.12 2142.06,1374.84 2094.95,1374.84 
  "/>
<path clip-path="url(#clip383)" d="
M2142.06 1374.84 L2142.06 1381.12 L2189.18 1381.12 L2189.18 1374.84 L2142.06 1374.84 L2142.06 1374.84  Z
  " fill="#009af9" fill-rule="evenodd" fill-opacity="1"/>
<polyline clip-path="url(#clip383)" style="stroke:#009af9; stroke-linecap:butt; stroke-linejoin:round; stroke-width:4; stroke-opacity:1; fill:none" points="
  2142.06,1374.84 2142.06,1381.12 2189.18,1381.12 2189.18,1374.84 2142.06,1374.84 
  "/>
<path clip-path="url(#clip383)" d="
M2189.18 1377.98 L2189.18 1381.12 L2236.29 1381.12 L2236.29 1377.98 L2189.18 1377.98 L2189.18 1377.98  Z
  " fill="#009af9" fill-rule="evenodd" fill-opacity="1"/>
<polyline clip-path="url(#clip383)" style="stroke:#009af9; stroke-linecap:butt; stroke-linejoin:round; stroke-width:4; stroke-opacity:1; fill:none" points="
  2189.18,1377.98 2189.18,1381.12 2236.29,1381.12 2236.29,1377.98 2189.18,1377.98 
  "/>
<polyline clip-path="url(#clip383)" style="stroke:#e26f46; stroke-linecap:butt; stroke-linejoin:round; stroke-width:6; stroke-opacity:1; fill:none" points="
  1600.26,2792.7 1600.26,-1325.49 
  "/>
<path clip-path="url(#clip380)" d="M1585.64 1442.43 L1614.88 1442.43 L1614.88 1446.36 L1602.61 1446.36 L1602.61 1476.99 L1597.91 1476.99 L1597.91 1446.36 L1585.64 1446.36 L1585.64 1442.43 Z" fill="#000000" fill-rule="evenodd" fill-opacity="1" /></svg>
