<?xml version="1.0" encoding="utf-8"?>
<svg xmlns="http://www.w3.org/2000/svg" xmlns:xlink="http://www.w3.org/1999/xlink" width="600" height="400" viewBox="0 0 2400 1600">
<defs>
  <clipPath id="clip790">
    <rect x="0" y="0" width="2400" height="1600"/>
  </clipPath>
</defs>
<path clip-path="url(#clip790)" d="
M0 1600 L2400 1600 L2400 0 L0 0  Z
  " fill="#ffffff" fill-rule="evenodd" fill-opacity="1"/>
<defs>
  <clipPath id="clip791">
    <rect x="480" y="0" width="1681" height="1600"/>
  </clipPath>
</defs>
<path clip-path="url(#clip790)" d="
M235.283 1423.18 L2352.76 1423.18 L2352.76 47.2441 L235.283 47.2441  Z
  " fill="#ffffff" fill-rule="evenodd" fill-opacity="1"/>
<defs>
  <clipPath id="clip792">
    <rect x="235" y="47" width="2118" height="1377"/>
  </clipPath>
</defs>
<polyline clip-path="url(#clip792)" style="stroke:#000000; stroke-linecap:butt; stroke-linejoin:round; stroke-width:2; stroke-opacity:0.1; fill:none" points="
  304.634,1423.18 304.634,47.2441 
  "/>
<polyline clip-path="url(#clip792)" style="stroke:#000000; stroke-linecap:butt; stroke-linejoin:round; stroke-width:2; stroke-opacity:0.1; fill:none" points="
  775.77,1423.18 775.77,47.2441 
  "/>
<polyline clip-path="url(#clip792)" style="stroke:#000000; stroke-linecap:butt; stroke-linejoin:round; stroke-width:2; stroke-opacity:0.1; fill:none" points="
  1246.91,1423.18 1246.91,47.2441 
  "/>
<polyline clip-path="url(#clip792)" style="stroke:#000000; stroke-linecap:butt; stroke-linejoin:round; stroke-width:2; stroke-opacity:0.1; fill:none" points="
  1718.04,1423.18 1718.04,47.2441 
  "/>
<polyline clip-path="url(#clip792)" style="stroke:#000000; stroke-linecap:butt; stroke-linejoin:round; stroke-width:2; stroke-opacity:0.1; fill:none" points="
  2189.18,1423.18 2189.18,47.2441 
  "/>
<polyline clip-path="url(#clip790)" style="stroke:#000000; stroke-linecap:butt; stroke-linejoin:round; stroke-width:4; stroke-opacity:1; fill:none" points="
  235.283,1423.18 2352.76,1423.18 
  "/>
<polyline clip-path="url(#clip790)" style="stroke:#000000; stroke-linecap:butt; stroke-linejoin:round; stroke-width:4; stroke-opacity:1; fill:none" points="
  304.634,1423.18 304.634,1404.28 
  "/>
<polyline clip-path="url(#clip790)" style="stroke:#000000; stroke-linecap:butt; stroke-linejoin:round; stroke-width:4; stroke-opacity:1; fill:none" points="
  775.77,1423.18 775.77,1404.28 
  "/>
<polyline clip-path="url(#clip790)" style="stroke:#000000; stroke-linecap:butt; stroke-linejoin:round; stroke-width:4; stroke-opacity:1; fill:none" points="
  1246.91,1423.18 1246.91,1404.28 
  "/>
<polyline clip-path="url(#clip790)" style="stroke:#000000; stroke-linecap:butt; stroke-linejoin:round; stroke-width:4; stroke-opacity:1; fill:none" points="
  1718.04,1423.18 1718.04,1404.28 
  "/>
<polyline clip-path="url(#clip790)" style="stroke:#000000; stroke-linecap:butt; stroke-linejoin:round; stroke-width:4; stroke-opacity:1; fill:none" points="
  2189.18,1423.18 2189.18,1404.28 
  "/>
<path clip-path="url(#clip790)" d="M304.634 1452.37 Q301.023 1452.37 299.194 1455.94 Q297.389 1459.48 297.389 1466.61 Q297.389 1473.71 299.194 1477.28 Q301.023 1480.82 304.634 1480.82 Q308.268 1480.82 310.074 1477.28 Q311.903 1473.71 311.903 1466.61 Q311.903 1459.48 310.074 1455.94 Q308.268 1452.37 304.634 1452.37 M304.634 1448.67 Q310.444 1448.67 313.5 1453.27 Q316.578 1457.86 316.578 1466.61 Q316.578 1475.33 313.5 1479.94 Q310.444 1484.52 304.634 1484.52 Q298.824 1484.52 295.745 1479.94 Q292.69 1475.33 292.69 1466.61 Q292.69 1457.86 295.745 1453.27 Q298.824 1448.67 304.634 1448.67 Z" fill="#000000" fill-rule="evenodd" fill-opacity="1" /><path clip-path="url(#clip790)" d="M750.458 1479.92 L758.096 1479.92 L758.096 1453.55 L749.786 1455.22 L749.786 1450.96 L758.05 1449.29 L762.726 1449.29 L762.726 1479.92 L770.365 1479.92 L770.365 1483.85 L750.458 1483.85 L750.458 1479.92 Z" fill="#000000" fill-rule="evenodd" fill-opacity="1" /><path clip-path="url(#clip790)" d="M789.809 1452.37 Q786.198 1452.37 784.369 1455.94 Q782.564 1459.48 782.564 1466.61 Q782.564 1473.71 784.369 1477.28 Q786.198 1480.82 789.809 1480.82 Q793.443 1480.82 795.249 1477.28 Q797.078 1473.71 797.078 1466.61 Q797.078 1459.48 795.249 1455.94 Q793.443 1452.37 789.809 1452.37 M789.809 1448.67 Q795.619 1448.67 798.675 1453.27 Q801.754 1457.86 801.754 1466.61 Q801.754 1475.33 798.675 1479.94 Q795.619 1484.52 789.809 1484.52 Q783.999 1484.52 780.92 1479.94 Q777.865 1475.33 777.865 1466.61 Q777.865 1457.86 780.92 1453.27 Q783.999 1448.67 789.809 1448.67 Z" fill="#000000" fill-rule="evenodd" fill-opacity="1" /><path clip-path="url(#clip790)" d="M1225.68 1479.92 L1242 1479.92 L1242 1483.85 L1220.05 1483.85 L1220.05 1479.92 Q1222.72 1477.16 1227.3 1472.53 Q1231.91 1467.88 1233.09 1466.54 Q1235.33 1464.01 1236.21 1462.28 Q1237.11 1460.52 1237.11 1458.83 Q1237.11 1456.07 1235.17 1454.34 Q1233.25 1452.6 1230.15 1452.6 Q1227.95 1452.6 1225.49 1453.37 Q1223.06 1454.13 1220.29 1455.68 L1220.29 1450.96 Q1223.11 1449.82 1225.56 1449.25 Q1228.02 1448.67 1230.05 1448.67 Q1235.42 1448.67 1238.62 1451.35 Q1241.81 1454.04 1241.81 1458.53 Q1241.81 1460.66 1241 1462.58 Q1240.22 1464.48 1238.11 1467.07 Q1237.53 1467.74 1234.43 1470.96 Q1231.33 1474.15 1225.68 1479.92 Z" fill="#000000" fill-rule="evenodd" fill-opacity="1" /><path clip-path="url(#clip790)" d="M1261.81 1452.37 Q1258.2 1452.37 1256.37 1455.94 Q1254.57 1459.48 1254.57 1466.61 Q1254.57 1473.71 1256.37 1477.28 Q1258.2 1480.82 1261.81 1480.82 Q1265.45 1480.82 1267.25 1477.28 Q1269.08 1473.71 1269.08 1466.61 Q1269.08 1459.48 1267.25 1455.94 Q1265.45 1452.37 1261.81 1452.37 M1261.81 1448.67 Q1267.62 1448.67 1270.68 1453.27 Q1273.76 1457.86 1273.76 1466.61 Q1273.76 1475.33 1270.68 1479.94 Q1267.62 1484.52 1261.81 1484.52 Q1256 1484.52 1252.92 1479.94 Q1249.87 1475.33 1249.87 1466.61 Q1249.87 1457.86 1252.92 1453.27 Q1256 1448.67 1261.81 1448.67 Z" fill="#000000" fill-rule="evenodd" fill-opacity="1" /><path clip-path="url(#clip790)" d="M1706.88 1465.22 Q1710.24 1465.94 1712.12 1468.2 Q1714.01 1470.47 1714.01 1473.81 Q1714.01 1478.92 1710.5 1481.72 Q1706.98 1484.52 1700.5 1484.52 Q1698.32 1484.52 1696 1484.08 Q1693.71 1483.67 1691.26 1482.81 L1691.26 1478.3 Q1693.2 1479.43 1695.52 1480.01 Q1697.83 1480.59 1700.36 1480.59 Q1704.75 1480.59 1707.05 1478.85 Q1709.36 1477.12 1709.36 1473.81 Q1709.36 1470.75 1707.21 1469.04 Q1705.08 1467.3 1701.26 1467.3 L1697.23 1467.3 L1697.23 1463.46 L1701.44 1463.46 Q1704.89 1463.46 1706.72 1462.09 Q1708.55 1460.7 1708.55 1458.11 Q1708.55 1455.45 1706.65 1454.04 Q1704.78 1452.6 1701.26 1452.6 Q1699.34 1452.6 1697.14 1453.02 Q1694.94 1453.44 1692.3 1454.31 L1692.3 1450.15 Q1694.96 1449.41 1697.28 1449.04 Q1699.62 1448.67 1701.68 1448.67 Q1707 1448.67 1710.1 1451.1 Q1713.2 1453.5 1713.2 1457.63 Q1713.2 1460.5 1711.56 1462.49 Q1709.92 1464.45 1706.88 1465.22 Z" fill="#000000" fill-rule="evenodd" fill-opacity="1" /><path clip-path="url(#clip790)" d="M1732.88 1452.37 Q1729.27 1452.37 1727.44 1455.94 Q1725.63 1459.48 1725.63 1466.61 Q1725.63 1473.71 1727.44 1477.28 Q1729.27 1480.82 1732.88 1480.82 Q1736.51 1480.82 1738.32 1477.28 Q1740.15 1473.71 1740.15 1466.61 Q1740.15 1459.48 1738.32 1455.94 Q1736.51 1452.37 1732.88 1452.37 M1732.88 1448.67 Q1738.69 1448.67 1741.75 1453.27 Q1744.82 1457.86 1744.82 1466.61 Q1744.82 1475.33 1741.75 1479.94 Q1738.69 1484.52 1732.88 1484.52 Q1727.07 1484.52 1723.99 1479.94 Q1720.94 1475.33 1720.94 1466.61 Q1720.94 1457.86 1723.99 1453.27 Q1727.07 1448.67 1732.88 1448.67 Z" fill="#000000" fill-rule="evenodd" fill-opacity="1" /><path clip-path="url(#clip790)" d="M2177.35 1453.37 L2165.54 1471.81 L2177.35 1471.81 L2177.35 1453.37 M2176.12 1449.29 L2182 1449.29 L2182 1471.81 L2186.93 1471.81 L2186.93 1475.7 L2182 1475.7 L2182 1483.85 L2177.35 1483.85 L2177.35 1475.7 L2161.75 1475.7 L2161.75 1471.19 L2176.12 1449.29 Z" fill="#000000" fill-rule="evenodd" fill-opacity="1" /><path clip-path="url(#clip790)" d="M2204.66 1452.37 Q2201.05 1452.37 2199.22 1455.94 Q2197.42 1459.48 2197.42 1466.61 Q2197.42 1473.71 2199.22 1477.28 Q2201.05 1480.82 2204.66 1480.82 Q2208.3 1480.82 2210.1 1477.28 Q2211.93 1473.71 2211.93 1466.61 Q2211.93 1459.48 2210.1 1455.94 Q2208.3 1452.37 2204.66 1452.37 M2204.66 1448.67 Q2210.47 1448.67 2213.53 1453.27 Q2216.61 1457.86 2216.61 1466.61 Q2216.61 1475.33 2213.53 1479.94 Q2210.47 1484.52 2204.66 1484.52 Q2198.85 1484.52 2195.77 1479.94 Q2192.72 1475.33 2192.72 1466.61 Q2192.72 1457.86 2195.77 1453.27 Q2198.85 1448.67 2204.66 1448.67 Z" fill="#000000" fill-rule="evenodd" fill-opacity="1" /><path clip-path="url(#clip790)" d="M1081.15 1539.24 Q1083.35 1535.29 1086.4 1533.41 Q1089.46 1531.54 1093.6 1531.54 Q1099.17 1531.54 1102.19 1535.45 Q1105.21 1539.33 1105.21 1546.53 L1105.21 1568.04 L1099.32 1568.04 L1099.32 1546.72 Q1099.32 1541.59 1097.51 1539.11 Q1095.7 1536.63 1091.97 1536.63 Q1087.42 1536.63 1084.78 1539.65 Q1082.14 1542.68 1082.14 1547.9 L1082.14 1568.04 L1076.25 1568.04 L1076.25 1546.72 Q1076.25 1541.56 1074.43 1539.11 Q1072.62 1536.63 1068.83 1536.63 Q1064.34 1536.63 1061.7 1539.68 Q1059.06 1542.71 1059.06 1547.9 L1059.06 1568.04 L1053.17 1568.04 L1053.17 1532.4 L1059.06 1532.4 L1059.06 1537.93 Q1061.07 1534.66 1063.87 1533.1 Q1066.67 1531.54 1070.52 1531.54 Q1074.4 1531.54 1077.11 1533.51 Q1079.85 1535.48 1081.15 1539.24 Z" fill="#000000" fill-rule="evenodd" fill-opacity="1" /><path clip-path="url(#clip790)" d="M1139.68 1545.76 Q1141.75 1546.46 1143.69 1548.76 Q1145.67 1551.05 1147.64 1555.06 L1154.16 1568.04 L1147.26 1568.04 L1141.18 1555.85 Q1138.82 1551.08 1136.6 1549.52 Q1134.4 1547.96 1130.58 1547.96 L1123.58 1547.96 L1123.58 1568.04 L1117.15 1568.04 L1117.15 1520.52 L1131.66 1520.52 Q1139.81 1520.52 1143.82 1523.93 Q1147.83 1527.34 1147.83 1534.21 Q1147.83 1538.7 1145.73 1541.66 Q1143.66 1544.62 1139.68 1545.76 M1123.58 1525.81 L1123.58 1542.68 L1131.66 1542.68 Q1136.31 1542.68 1138.66 1540.54 Q1141.05 1538.38 1141.05 1534.21 Q1141.05 1530.04 1138.66 1527.94 Q1136.31 1525.81 1131.66 1525.81 L1123.58 1525.81 Z" fill="#000000" fill-rule="evenodd" fill-opacity="1" /><path clip-path="url(#clip790)" d="M1162.44 1520.52 L1171.1 1520.52 L1192.17 1560.28 L1192.17 1520.52 L1198.41 1520.52 L1198.41 1568.04 L1189.75 1568.04 L1168.68 1528.29 L1168.68 1568.04 L1162.44 1568.04 L1162.44 1520.52 Z" fill="#000000" fill-rule="evenodd" fill-opacity="1" /><path clip-path="url(#clip790)" d="M1227.08 1526.86 L1218.36 1550.51 L1235.84 1550.51 L1227.08 1526.86 M1223.46 1520.52 L1230.74 1520.52 L1248.85 1568.04 L1242.17 1568.04 L1237.84 1555.85 L1216.42 1555.85 L1212.09 1568.04 L1205.31 1568.04 L1223.46 1520.52 Z" fill="#000000" fill-rule="evenodd" fill-opacity="1" /><path clip-path="url(#clip790)" d="M1276.51 1520.52 L1282.94 1520.52 L1282.94 1540 L1306.31 1540 L1306.31 1520.52 L1312.73 1520.52 L1312.73 1568.04 L1306.31 1568.04 L1306.31 1545.41 L1282.94 1545.41 L1282.94 1568.04 L1276.51 1568.04 L1276.51 1520.52 Z" fill="#000000" fill-rule="evenodd" fill-opacity="1" /><path clip-path="url(#clip790)" d="M1341.48 1550.12 Q1334.38 1550.12 1331.64 1551.75 Q1328.9 1553.37 1328.9 1557.29 Q1328.9 1560.4 1330.94 1562.25 Q1333.01 1564.07 1336.54 1564.07 Q1341.41 1564.07 1344.34 1560.63 Q1347.3 1557.16 1347.3 1551.43 L1347.3 1550.12 L1341.48 1550.12 M1353.16 1547.71 L1353.16 1568.04 L1347.3 1568.04 L1347.3 1562.63 Q1345.3 1565.88 1342.3 1567.44 Q1339.31 1568.97 1334.98 1568.97 Q1329.51 1568.97 1326.26 1565.91 Q1323.05 1562.82 1323.05 1557.67 Q1323.05 1551.65 1327.06 1548.6 Q1331.1 1545.54 1339.09 1545.54 L1347.3 1545.54 L1347.3 1544.97 Q1347.3 1540.93 1344.63 1538.73 Q1341.98 1536.5 1337.18 1536.5 Q1334.12 1536.5 1331.23 1537.23 Q1328.33 1537.97 1325.66 1539.43 L1325.66 1534.02 Q1328.87 1532.78 1331.9 1532.17 Q1334.92 1531.54 1337.78 1531.54 Q1345.52 1531.54 1349.34 1535.55 Q1353.16 1539.56 1353.16 1547.71 Z" fill="#000000" fill-rule="evenodd" fill-opacity="1" /><path clip-path="url(#clip790)" d="M1365.22 1518.52 L1371.08 1518.52 L1371.08 1568.04 L1365.22 1568.04 L1365.22 1518.52 Z" fill="#000000" fill-rule="evenodd" fill-opacity="1" /><path clip-path="url(#clip790)" d="M1401.38 1518.52 L1401.38 1523.39 L1395.78 1523.39 Q1392.62 1523.39 1391.38 1524.66 Q1390.17 1525.93 1390.17 1529.24 L1390.17 1532.4 L1399.82 1532.4 L1399.82 1536.95 L1390.17 1536.95 L1390.17 1568.04 L1384.29 1568.04 L1384.29 1536.95 L1378.68 1536.95 L1378.68 1532.4 L1384.29 1532.4 L1384.29 1529.91 Q1384.29 1523.96 1387.05 1521.26 Q1389.82 1518.52 1395.84 1518.52 L1401.38 1518.52 Z" fill="#000000" fill-rule="evenodd" fill-opacity="1" /><path clip-path="url(#clip790)" d="M1427.25 1520.52 L1433.68 1520.52 L1433.68 1562.63 L1456.82 1562.63 L1456.82 1568.04 L1427.25 1568.04 L1427.25 1520.52 Z" fill="#000000" fill-rule="evenodd" fill-opacity="1" /><path clip-path="url(#clip790)" d="M1463.32 1532.4 L1469.17 1532.4 L1469.17 1568.04 L1463.32 1568.04 L1463.32 1532.4 M1463.32 1518.52 L1469.17 1518.52 L1469.17 1525.93 L1463.32 1525.93 L1463.32 1518.52 Z" fill="#000000" fill-rule="evenodd" fill-opacity="1" /><path clip-path="url(#clip790)" d="M1499.47 1518.52 L1499.47 1523.39 L1493.87 1523.39 Q1490.72 1523.39 1489.48 1524.66 Q1488.27 1525.93 1488.27 1529.24 L1488.27 1532.4 L1497.91 1532.4 L1497.91 1536.95 L1488.27 1536.95 L1488.27 1568.04 L1482.38 1568.04 L1482.38 1536.95 L1476.78 1536.95 L1476.78 1532.4 L1482.38 1532.4 L1482.38 1529.91 Q1482.38 1523.96 1485.15 1521.26 Q1487.92 1518.52 1493.93 1518.52 L1499.47 1518.52 Z" fill="#000000" fill-rule="evenodd" fill-opacity="1" /><path clip-path="url(#clip790)" d="M1534.87 1548.76 L1534.87 1551.62 L1507.94 1551.62 Q1508.32 1557.67 1511.57 1560.85 Q1514.85 1564 1520.67 1564 Q1524.04 1564 1527.2 1563.17 Q1530.38 1562.35 1533.5 1560.69 L1533.5 1566.23 Q1530.35 1567.57 1527.04 1568.27 Q1523.73 1568.97 1520.32 1568.97 Q1511.79 1568.97 1506.79 1564 Q1501.83 1559.04 1501.83 1550.57 Q1501.83 1541.82 1506.54 1536.69 Q1511.28 1531.54 1519.3 1531.54 Q1526.49 1531.54 1530.66 1536.18 Q1534.87 1540.8 1534.87 1548.76 M1529.01 1547.04 Q1528.95 1542.23 1526.3 1539.37 Q1523.69 1536.5 1519.37 1536.5 Q1514.46 1536.5 1511.5 1539.27 Q1508.58 1542.04 1508.13 1547.07 L1529.01 1547.04 Z" fill="#000000" fill-rule="evenodd" fill-opacity="1" /><polyline clip-path="url(#clip792)" style="stroke:#000000; stroke-linecap:butt; stroke-linejoin:round; stroke-width:2; stroke-opacity:0.1; fill:none" points="
  235.283,1384.24 2352.76,1384.24 
  "/>
<polyline clip-path="url(#clip792)" style="stroke:#000000; stroke-linecap:butt; stroke-linejoin:round; stroke-width:2; stroke-opacity:0.1; fill:none" points="
  235.283,1069.18 2352.76,1069.18 
  "/>
<polyline clip-path="url(#clip792)" style="stroke:#000000; stroke-linecap:butt; stroke-linejoin:round; stroke-width:2; stroke-opacity:0.1; fill:none" points="
  235.283,754.116 2352.76,754.116 
  "/>
<polyline clip-path="url(#clip792)" style="stroke:#000000; stroke-linecap:butt; stroke-linejoin:round; stroke-width:2; stroke-opacity:0.1; fill:none" points="
  235.283,439.054 2352.76,439.054 
  "/>
<polyline clip-path="url(#clip792)" style="stroke:#000000; stroke-linecap:butt; stroke-linejoin:round; stroke-width:2; stroke-opacity:0.1; fill:none" points="
  235.283,123.993 2352.76,123.993 
  "/>
<polyline clip-path="url(#clip790)" style="stroke:#000000; stroke-linecap:butt; stroke-linejoin:round; stroke-width:4; stroke-opacity:1; fill:none" points="
  235.283,1423.18 235.283,47.2441 
  "/>
<polyline clip-path="url(#clip790)" style="stroke:#000000; stroke-linecap:butt; stroke-linejoin:round; stroke-width:4; stroke-opacity:1; fill:none" points="
  235.283,1384.24 254.18,1384.24 
  "/>
<polyline clip-path="url(#clip790)" style="stroke:#000000; stroke-linecap:butt; stroke-linejoin:round; stroke-width:4; stroke-opacity:1; fill:none" points="
  235.283,1069.18 254.18,1069.18 
  "/>
<polyline clip-path="url(#clip790)" style="stroke:#000000; stroke-linecap:butt; stroke-linejoin:round; stroke-width:4; stroke-opacity:1; fill:none" points="
  235.283,754.116 254.18,754.116 
  "/>
<polyline clip-path="url(#clip790)" style="stroke:#000000; stroke-linecap:butt; stroke-linejoin:round; stroke-width:4; stroke-opacity:1; fill:none" points="
  235.283,439.054 254.18,439.054 
  "/>
<polyline clip-path="url(#clip790)" style="stroke:#000000; stroke-linecap:butt; stroke-linejoin:round; stroke-width:4; stroke-opacity:1; fill:none" points="
  235.283,123.993 254.18,123.993 
  "/>
<path clip-path="url(#clip790)" d="M187.338 1370.04 Q183.727 1370.04 181.899 1373.6 Q180.093 1377.14 180.093 1384.27 Q180.093 1391.38 181.899 1394.94 Q183.727 1398.49 187.338 1398.49 Q190.973 1398.49 192.778 1394.94 Q194.607 1391.38 194.607 1384.27 Q194.607 1377.14 192.778 1373.6 Q190.973 1370.04 187.338 1370.04 M187.338 1366.33 Q193.149 1366.33 196.204 1370.94 Q199.283 1375.52 199.283 1384.27 Q199.283 1393 196.204 1397.61 Q193.149 1402.19 187.338 1402.19 Q181.528 1402.19 178.45 1397.61 Q175.394 1393 175.394 1384.27 Q175.394 1375.52 178.45 1370.94 Q181.528 1366.33 187.338 1366.33 Z" fill="#000000" fill-rule="evenodd" fill-opacity="1" /><path clip-path="url(#clip790)" d="M117.825 1082.52 L125.464 1082.52 L125.464 1056.16 L117.154 1057.82 L117.154 1053.56 L125.418 1051.9 L130.093 1051.9 L130.093 1082.52 L137.732 1082.52 L137.732 1086.46 L117.825 1086.46 L117.825 1082.52 Z" fill="#000000" fill-rule="evenodd" fill-opacity="1" /><path clip-path="url(#clip790)" d="M157.177 1054.98 Q153.566 1054.98 151.737 1058.54 Q149.931 1062.08 149.931 1069.21 Q149.931 1076.32 151.737 1079.88 Q153.566 1083.42 157.177 1083.42 Q160.811 1083.42 162.616 1079.88 Q164.445 1076.32 164.445 1069.21 Q164.445 1062.08 162.616 1058.54 Q160.811 1054.98 157.177 1054.98 M157.177 1051.27 Q162.987 1051.27 166.042 1055.88 Q169.121 1060.46 169.121 1069.21 Q169.121 1077.94 166.042 1082.54 Q162.987 1087.13 157.177 1087.13 Q151.366 1087.13 148.288 1082.54 Q145.232 1077.94 145.232 1069.21 Q145.232 1060.46 148.288 1055.88 Q151.366 1051.27 157.177 1051.27 Z" fill="#000000" fill-rule="evenodd" fill-opacity="1" /><path clip-path="url(#clip790)" d="M187.338 1054.98 Q183.727 1054.98 181.899 1058.54 Q180.093 1062.08 180.093 1069.21 Q180.093 1076.32 181.899 1079.88 Q183.727 1083.42 187.338 1083.42 Q190.973 1083.42 192.778 1079.88 Q194.607 1076.32 194.607 1069.21 Q194.607 1062.08 192.778 1058.54 Q190.973 1054.98 187.338 1054.98 M187.338 1051.27 Q193.149 1051.27 196.204 1055.88 Q199.283 1060.46 199.283 1069.21 Q199.283 1077.94 196.204 1082.54 Q193.149 1087.13 187.338 1087.13 Q181.528 1087.13 178.45 1082.54 Q175.394 1077.94 175.394 1069.21 Q175.394 1060.46 178.45 1055.88 Q181.528 1051.27 187.338 1051.27 Z" fill="#000000" fill-rule="evenodd" fill-opacity="1" /><path clip-path="url(#clip790)" d="M121.043 767.46 L137.362 767.46 L137.362 771.396 L115.418 771.396 L115.418 767.46 Q118.08 764.706 122.663 760.076 Q127.269 755.424 128.45 754.081 Q130.695 751.558 131.575 749.822 Q132.478 748.062 132.478 746.373 Q132.478 743.618 130.533 741.882 Q128.612 740.146 125.51 740.146 Q123.311 740.146 120.857 740.91 Q118.427 741.674 115.649 743.225 L115.649 738.502 Q118.473 737.368 120.927 736.789 Q123.38 736.211 125.418 736.211 Q130.788 736.211 133.982 738.896 Q137.177 741.581 137.177 746.072 Q137.177 748.201 136.367 750.123 Q135.579 752.021 133.473 754.613 Q132.894 755.285 129.792 758.502 Q126.691 761.697 121.043 767.46 Z" fill="#000000" fill-rule="evenodd" fill-opacity="1" /><path clip-path="url(#clip790)" d="M157.177 739.914 Q153.566 739.914 151.737 743.479 Q149.931 747.021 149.931 754.15 Q149.931 761.257 151.737 764.822 Q153.566 768.363 157.177 768.363 Q160.811 768.363 162.616 764.822 Q164.445 761.257 164.445 754.15 Q164.445 747.021 162.616 743.479 Q160.811 739.914 157.177 739.914 M157.177 736.211 Q162.987 736.211 166.042 740.817 Q169.121 745.4 169.121 754.15 Q169.121 762.877 166.042 767.484 Q162.987 772.067 157.177 772.067 Q151.366 772.067 148.288 767.484 Q145.232 762.877 145.232 754.15 Q145.232 745.4 148.288 740.817 Q151.366 736.211 157.177 736.211 Z" fill="#000000" fill-rule="evenodd" fill-opacity="1" /><path clip-path="url(#clip790)" d="M187.338 739.914 Q183.727 739.914 181.899 743.479 Q180.093 747.021 180.093 754.15 Q180.093 761.257 181.899 764.822 Q183.727 768.363 187.338 768.363 Q190.973 768.363 192.778 764.822 Q194.607 761.257 194.607 754.15 Q194.607 747.021 192.778 743.479 Q190.973 739.914 187.338 739.914 M187.338 736.211 Q193.149 736.211 196.204 740.817 Q199.283 745.4 199.283 754.15 Q199.283 762.877 196.204 767.484 Q193.149 772.067 187.338 772.067 Q181.528 772.067 178.45 767.484 Q175.394 762.877 175.394 754.15 Q175.394 745.4 178.45 740.817 Q181.528 736.211 187.338 736.211 Z" fill="#000000" fill-rule="evenodd" fill-opacity="1" /><path clip-path="url(#clip790)" d="M131.181 437.7 Q134.538 438.418 136.413 440.686 Q138.311 442.955 138.311 446.288 Q138.311 451.404 134.792 454.205 Q131.274 457.006 124.793 457.006 Q122.617 457.006 120.302 456.566 Q118.01 456.149 115.556 455.293 L115.556 450.779 Q117.501 451.913 119.816 452.492 Q122.13 453.07 124.654 453.07 Q129.052 453.07 131.343 451.334 Q133.658 449.598 133.658 446.288 Q133.658 443.233 131.505 441.52 Q129.376 439.784 125.556 439.784 L121.529 439.784 L121.529 435.941 L125.742 435.941 Q129.191 435.941 131.019 434.575 Q132.848 433.186 132.848 430.594 Q132.848 427.932 130.95 426.52 Q129.075 425.085 125.556 425.085 Q123.635 425.085 121.436 425.501 Q119.237 425.918 116.598 426.797 L116.598 422.631 Q119.26 421.89 121.575 421.52 Q123.913 421.149 125.973 421.149 Q131.297 421.149 134.399 423.58 Q137.501 425.987 137.501 430.108 Q137.501 432.978 135.857 434.969 Q134.214 436.936 131.181 437.7 Z" fill="#000000" fill-rule="evenodd" fill-opacity="1" /><path clip-path="url(#clip790)" d="M157.177 424.853 Q153.566 424.853 151.737 428.418 Q149.931 431.959 149.931 439.089 Q149.931 446.196 151.737 449.76 Q153.566 453.302 157.177 453.302 Q160.811 453.302 162.616 449.76 Q164.445 446.196 164.445 439.089 Q164.445 431.959 162.616 428.418 Q160.811 424.853 157.177 424.853 M157.177 421.149 Q162.987 421.149 166.042 425.756 Q169.121 430.339 169.121 439.089 Q169.121 447.816 166.042 452.422 Q162.987 457.006 157.177 457.006 Q151.366 457.006 148.288 452.422 Q145.232 447.816 145.232 439.089 Q145.232 430.339 148.288 425.756 Q151.366 421.149 157.177 421.149 Z" fill="#000000" fill-rule="evenodd" fill-opacity="1" /><path clip-path="url(#clip790)" d="M187.338 424.853 Q183.727 424.853 181.899 428.418 Q180.093 431.959 180.093 439.089 Q180.093 446.196 181.899 449.76 Q183.727 453.302 187.338 453.302 Q190.973 453.302 192.778 449.76 Q194.607 446.196 194.607 439.089 Q194.607 431.959 192.778 428.418 Q190.973 424.853 187.338 424.853 M187.338 421.149 Q193.149 421.149 196.204 425.756 Q199.283 430.339 199.283 439.089 Q199.283 447.816 196.204 452.422 Q193.149 457.006 187.338 457.006 Q181.528 457.006 178.45 452.422 Q175.394 447.816 175.394 439.089 Q175.394 430.339 178.45 425.756 Q181.528 421.149 187.338 421.149 Z" fill="#000000" fill-rule="evenodd" fill-opacity="1" /><path clip-path="url(#clip790)" d="M129.862 110.787 L118.056 129.236 L129.862 129.236 L129.862 110.787 M128.635 106.713 L134.515 106.713 L134.515 129.236 L139.445 129.236 L139.445 133.125 L134.515 133.125 L134.515 141.273 L129.862 141.273 L129.862 133.125 L114.26 133.125 L114.26 128.611 L128.635 106.713 Z" fill="#000000" fill-rule="evenodd" fill-opacity="1" /><path clip-path="url(#clip790)" d="M157.177 109.792 Q153.566 109.792 151.737 113.357 Q149.931 116.898 149.931 124.028 Q149.931 131.134 151.737 134.699 Q153.566 138.241 157.177 138.241 Q160.811 138.241 162.616 134.699 Q164.445 131.134 164.445 124.028 Q164.445 116.898 162.616 113.357 Q160.811 109.792 157.177 109.792 M157.177 106.088 Q162.987 106.088 166.042 110.694 Q169.121 115.278 169.121 124.028 Q169.121 132.755 166.042 137.361 Q162.987 141.944 157.177 141.944 Q151.366 141.944 148.288 137.361 Q145.232 132.755 145.232 124.028 Q145.232 115.278 148.288 110.694 Q151.366 106.088 157.177 106.088 Z" fill="#000000" fill-rule="evenodd" fill-opacity="1" /><path clip-path="url(#clip790)" d="M187.338 109.792 Q183.727 109.792 181.899 113.357 Q180.093 116.898 180.093 124.028 Q180.093 131.134 181.899 134.699 Q183.727 138.241 187.338 138.241 Q190.973 138.241 192.778 134.699 Q194.607 131.134 194.607 124.028 Q194.607 116.898 192.778 113.357 Q190.973 109.792 187.338 109.792 M187.338 106.088 Q193.149 106.088 196.204 110.694 Q199.283 115.278 199.283 124.028 Q199.283 132.755 196.204 137.361 Q193.149 141.944 187.338 141.944 Q181.528 141.944 178.45 137.361 Q175.394 132.755 175.394 124.028 Q175.394 115.278 178.45 110.694 Q181.528 106.088 187.338 106.088 Z" fill="#000000" fill-rule="evenodd" fill-opacity="1" /><path clip-path="url(#clip790)" d="M29.7248 796.386 L35.1993 796.386 Q33.8307 798.869 33.1623 801.383 Q32.4621 803.866 32.4621 806.412 Q32.4621 812.11 36.0905 815.261 Q39.6872 818.412 46.212 818.412 Q52.7369 818.412 56.3653 815.261 Q59.9619 812.11 59.9619 806.412 Q59.9619 803.866 59.2935 801.383 Q58.5933 798.869 57.2247 796.386 L62.6355 796.386 Q63.7814 798.837 64.3543 801.479 Q64.9272 804.089 64.9272 807.049 Q64.9272 815.102 59.8664 819.844 Q54.8057 824.586 46.212 824.586 Q37.491 824.586 32.4939 819.812 Q27.4968 815.006 27.4968 806.667 Q27.4968 803.962 28.0697 801.383 Q28.6108 798.805 29.7248 796.386 Z" fill="#000000" fill-rule="evenodd" fill-opacity="1" /><path clip-path="url(#clip790)" d="M32.4621 772.388 Q32.4621 777.098 36.1542 779.836 Q39.8145 782.573 46.212 782.573 Q52.6095 782.573 56.3017 779.867 Q59.9619 777.13 59.9619 772.388 Q59.9619 767.709 56.2698 764.972 Q52.5777 762.234 46.212 762.234 Q39.8781 762.234 36.186 764.972 Q32.4621 767.709 32.4621 772.388 M27.4968 772.388 Q27.4968 764.749 32.4621 760.388 Q37.4273 756.028 46.212 756.028 Q54.9649 756.028 59.9619 760.388 Q64.9272 764.749 64.9272 772.388 Q64.9272 780.058 59.9619 784.419 Q54.9649 788.748 46.212 788.748 Q37.4273 788.748 32.4621 784.419 Q27.4968 780.058 27.4968 772.388 Z" fill="#000000" fill-rule="evenodd" fill-opacity="1" /><path clip-path="url(#clip790)" d="M49.9359 746.925 L28.3562 746.925 L28.3562 741.068 L49.7131 741.068 Q54.7739 741.068 57.3202 739.095 Q59.8346 737.122 59.8346 733.175 Q59.8346 728.432 56.8109 725.695 Q53.7872 722.926 48.5673 722.926 L28.3562 722.926 L28.3562 717.07 L64.0042 717.07 L64.0042 722.926 L58.5296 722.926 Q61.7762 725.059 63.3676 727.891 Q64.9272 730.692 64.9272 734.416 Q64.9272 740.559 61.1078 743.742 Q57.2883 746.925 49.9359 746.925 M27.4968 732.188 L27.4968 732.188 Z" fill="#000000" fill-rule="evenodd" fill-opacity="1" /><path clip-path="url(#clip790)" d="M42.4881 675.374 L64.0042 675.374 L64.0042 681.231 L42.679 681.231 Q37.6183 681.231 35.1038 683.204 Q32.5894 685.178 32.5894 689.124 Q32.5894 693.867 35.6131 696.604 Q38.6368 699.341 43.8567 699.341 L64.0042 699.341 L64.0042 705.229 L28.3562 705.229 L28.3562 699.341 L33.8944 699.341 Q30.6797 697.241 29.0883 694.408 Q27.4968 691.543 27.4968 687.819 Q27.4968 681.676 31.3163 678.525 Q35.1038 675.374 42.4881 675.374 Z" fill="#000000" fill-rule="evenodd" fill-opacity="1" /><path clip-path="url(#clip790)" d="M18.2347 657.9 L28.3562 657.9 L28.3562 645.837 L32.9077 645.837 L32.9077 657.9 L52.2594 657.9 Q56.6199 657.9 57.8613 656.723 Q59.1026 655.513 59.1026 651.853 L59.1026 645.837 L64.0042 645.837 L64.0042 651.853 Q64.0042 658.633 61.4897 661.211 Q58.9434 663.789 52.2594 663.789 L32.9077 663.789 L32.9077 668.086 L28.3562 668.086 L28.3562 663.789 L18.2347 663.789 L18.2347 657.9 Z" fill="#000000" fill-rule="evenodd" fill-opacity="1" /><path clip-path="url(#clip792)" d="
M351.748 1381.09 L351.748 1384.24 L398.861 1384.24 L398.861 1381.09 L351.748 1381.09 L351.748 1381.09  Z
  " fill="#009af9" fill-rule="evenodd" fill-opacity="1"/>
<polyline clip-path="url(#clip792)" style="stroke:#009af9; stroke-linecap:butt; stroke-linejoin:round; stroke-width:4; stroke-opacity:1; fill:none" points="
  351.748,1381.09 351.748,1384.24 398.861,1384.24 398.861,1381.09 351.748,1381.09 
  "/>
<path clip-path="url(#clip792)" d="
M398.861 1318.08 L398.861 1384.24 L445.975 1384.24 L445.975 1318.08 L398.861 1318.08 L398.861 1318.08  Z
  " fill="#009af9" fill-rule="evenodd" fill-opacity="1"/>
<polyline clip-path="url(#clip792)" style="stroke:#009af9; stroke-linecap:butt; stroke-linejoin:round; stroke-width:4; stroke-opacity:1; fill:none" points="
  398.861,1318.08 398.861,1384.24 445.975,1384.24 445.975,1318.08 398.861,1318.08 
  "/>
<path clip-path="url(#clip792)" d="
M445.975 1009.32 L445.975 1384.24 L493.088 1384.24 L493.088 1009.32 L445.975 1009.32 L445.975 1009.32  Z
  " fill="#009af9" fill-rule="evenodd" fill-opacity="1"/>
<polyline clip-path="url(#clip792)" style="stroke:#009af9; stroke-linecap:butt; stroke-linejoin:round; stroke-width:4; stroke-opacity:1; fill:none" points="
  445.975,1009.32 445.975,1384.24 493.088,1384.24 493.088,1009.32 445.975,1009.32 
  "/>
<path clip-path="url(#clip792)" d="
M493.088 716.308 L493.088 1384.24 L540.202 1384.24 L540.202 716.308 L493.088 716.308 L493.088 716.308  Z
  " fill="#009af9" fill-rule="evenodd" fill-opacity="1"/>
<polyline clip-path="url(#clip792)" style="stroke:#009af9; stroke-linecap:butt; stroke-linejoin:round; stroke-width:4; stroke-opacity:1; fill:none" points="
  493.088,716.308 493.088,1384.24 540.202,1384.24 540.202,716.308 493.088,716.308 
  "/>
<path clip-path="url(#clip792)" d="
M540.202 439.054 L540.202 1384.24 L587.316 1384.24 L587.316 439.054 L540.202 439.054 L540.202 439.054  Z
  " fill="#009af9" fill-rule="evenodd" fill-opacity="1"/>
<polyline clip-path="url(#clip792)" style="stroke:#009af9; stroke-linecap:butt; stroke-linejoin:round; stroke-width:4; stroke-opacity:1; fill:none" points="
  540.202,439.054 540.202,1384.24 587.316,1384.24 587.316,439.054 540.202,439.054 
  "/>
<path clip-path="url(#clip792)" d="
M587.316 278.373 L587.316 1384.24 L634.429 1384.24 L634.429 278.373 L587.316 278.373 L587.316 278.373  Z
  " fill="#009af9" fill-rule="evenodd" fill-opacity="1"/>
<polyline clip-path="url(#clip792)" style="stroke:#009af9; stroke-linecap:butt; stroke-linejoin:round; stroke-width:4; stroke-opacity:1; fill:none" points="
  587.316,278.373 587.316,1384.24 634.429,1384.24 634.429,278.373 587.316,278.373 
  "/>
<path clip-path="url(#clip792)" d="
M634.429 284.674 L634.429 1384.24 L681.543 1384.24 L681.543 284.674 L634.429 284.674 L634.429 284.674  Z
  " fill="#009af9" fill-rule="evenodd" fill-opacity="1"/>
<polyline clip-path="url(#clip792)" style="stroke:#009af9; stroke-linecap:butt; stroke-linejoin:round; stroke-width:4; stroke-opacity:1; fill:none" points="
  634.429,284.674 634.429,1384.24 681.543,1384.24 681.543,284.674 634.429,284.674 
  "/>
<path clip-path="url(#clip792)" d="
M681.543 98.7881 L681.543 1384.24 L728.656 1384.24 L728.656 98.7881 L681.543 98.7881 L681.543 98.7881  Z
  " fill="#009af9" fill-rule="evenodd" fill-opacity="1"/>
<polyline clip-path="url(#clip792)" style="stroke:#009af9; stroke-linecap:butt; stroke-linejoin:round; stroke-width:4; stroke-opacity:1; fill:none" points="
  681.543,98.7881 681.543,1384.24 728.656,1384.24 728.656,98.7881 681.543,98.7881 
  "/>
<path clip-path="url(#clip792)" d="
M728.656 86.1857 L728.656 1384.24 L775.77 1384.24 L775.77 86.1857 L728.656 86.1857 L728.656 86.1857  Z
  " fill="#009af9" fill-rule="evenodd" fill-opacity="1"/>
<polyline clip-path="url(#clip792)" style="stroke:#009af9; stroke-linecap:butt; stroke-linejoin:round; stroke-width:4; stroke-opacity:1; fill:none" points="
  728.656,86.1857 728.656,1384.24 775.77,1384.24 775.77,86.1857 728.656,86.1857 
  "/>
<path clip-path="url(#clip792)" d="
M775.77 284.674 L775.77 1384.24 L822.884 1384.24 L822.884 284.674 L775.77 284.674 L775.77 284.674  Z
  " fill="#009af9" fill-rule="evenodd" fill-opacity="1"/>
<polyline clip-path="url(#clip792)" style="stroke:#009af9; stroke-linecap:butt; stroke-linejoin:round; stroke-width:4; stroke-opacity:1; fill:none" points="
  775.77,284.674 775.77,1384.24 822.884,1384.24 822.884,284.674 775.77,284.674 
  "/>
<path clip-path="url(#clip792)" d="
M822.884 335.084 L822.884 1384.24 L869.997 1384.24 L869.997 335.084 L822.884 335.084 L822.884 335.084  Z
  " fill="#009af9" fill-rule="evenodd" fill-opacity="1"/>
<polyline clip-path="url(#clip792)" style="stroke:#009af9; stroke-linecap:butt; stroke-linejoin:round; stroke-width:4; stroke-opacity:1; fill:none" points="
  822.884,335.084 822.884,1384.24 869.997,1384.24 869.997,335.084 822.884,335.084 
  "/>
<path clip-path="url(#clip792)" d="
M869.997 489.464 L869.997 1384.24 L917.111 1384.24 L917.111 489.464 L869.997 489.464 L869.997 489.464  Z
  " fill="#009af9" fill-rule="evenodd" fill-opacity="1"/>
<polyline clip-path="url(#clip792)" style="stroke:#009af9; stroke-linecap:butt; stroke-linejoin:round; stroke-width:4; stroke-opacity:1; fill:none" points="
  869.997,489.464 869.997,1384.24 917.111,1384.24 917.111,489.464 869.997,489.464 
  "/>
<path clip-path="url(#clip792)" d="
M917.111 681.652 L917.111 1384.24 L964.224 1384.24 L964.224 681.652 L917.111 681.652 L917.111 681.652  Z
  " fill="#009af9" fill-rule="evenodd" fill-opacity="1"/>
<polyline clip-path="url(#clip792)" style="stroke:#009af9; stroke-linecap:butt; stroke-linejoin:round; stroke-width:4; stroke-opacity:1; fill:none" points="
  917.111,681.652 917.111,1384.24 964.224,1384.24 964.224,681.652 917.111,681.652 
  "/>
<path clip-path="url(#clip792)" d="
M964.224 823.429 L964.224 1384.24 L1011.34 1384.24 L1011.34 823.429 L964.224 823.429 L964.224 823.429  Z
  " fill="#009af9" fill-rule="evenodd" fill-opacity="1"/>
<polyline clip-path="url(#clip792)" style="stroke:#009af9; stroke-linecap:butt; stroke-linejoin:round; stroke-width:4; stroke-opacity:1; fill:none" points="
  964.224,823.429 964.224,1384.24 1011.34,1384.24 1011.34,823.429 964.224,823.429 
  "/>
<path clip-path="url(#clip792)" d="
M1011.34 880.14 L1011.34 1384.24 L1058.45 1384.24 L1058.45 880.14 L1011.34 880.14 L1011.34 880.14  Z
  " fill="#009af9" fill-rule="evenodd" fill-opacity="1"/>
<polyline clip-path="url(#clip792)" style="stroke:#009af9; stroke-linecap:butt; stroke-linejoin:round; stroke-width:4; stroke-opacity:1; fill:none" points="
  1011.34,880.14 1011.34,1384.24 1058.45,1384.24 1058.45,880.14 1011.34,880.14 
  "/>
<path clip-path="url(#clip792)" d="
M1058.45 1009.32 L1058.45 1384.24 L1105.57 1384.24 L1105.57 1009.32 L1058.45 1009.32 L1058.45 1009.32  Z
  " fill="#009af9" fill-rule="evenodd" fill-opacity="1"/>
<polyline clip-path="url(#clip792)" style="stroke:#009af9; stroke-linecap:butt; stroke-linejoin:round; stroke-width:4; stroke-opacity:1; fill:none" points="
  1058.45,1009.32 1058.45,1384.24 1105.57,1384.24 1105.57,1009.32 1058.45,1009.32 
  "/>
<path clip-path="url(#clip792)" d="
M1105.57 1094.38 L1105.57 1384.24 L1152.68 1384.24 L1152.68 1094.38 L1105.57 1094.38 L1105.57 1094.38  Z
  " fill="#009af9" fill-rule="evenodd" fill-opacity="1"/>
<polyline clip-path="url(#clip792)" style="stroke:#009af9; stroke-linecap:butt; stroke-linejoin:round; stroke-width:4; stroke-opacity:1; fill:none" points="
  1105.57,1094.38 1105.57,1384.24 1152.68,1384.24 1152.68,1094.38 1105.57,1094.38 
  "/>
<path clip-path="url(#clip792)" d="
M1152.68 1144.79 L1152.68 1384.24 L1199.79 1384.24 L1199.79 1144.79 L1152.68 1144.79 L1152.68 1144.79  Z
  " fill="#009af9" fill-rule="evenodd" fill-opacity="1"/>
<polyline clip-path="url(#clip792)" style="stroke:#009af9; stroke-linecap:butt; stroke-linejoin:round; stroke-width:4; stroke-opacity:1; fill:none" points="
  1152.68,1144.79 1152.68,1384.24 1199.79,1384.24 1199.79,1144.79 1152.68,1144.79 
  "/>
<path clip-path="url(#clip792)" d="
M1199.79 1207.8 L1199.79 1384.24 L1246.91 1384.24 L1246.91 1207.8 L1199.79 1207.8 L1199.79 1207.8  Z
  " fill="#009af9" fill-rule="evenodd" fill-opacity="1"/>
<polyline clip-path="url(#clip792)" style="stroke:#009af9; stroke-linecap:butt; stroke-linejoin:round; stroke-width:4; stroke-opacity:1; fill:none" points="
  1199.79,1207.8 1199.79,1384.24 1246.91,1384.24 1246.91,1207.8 1199.79,1207.8 
  "/>
<path clip-path="url(#clip792)" d="
M1246.91 1229.86 L1246.91 1384.24 L1294.02 1384.24 L1294.02 1229.86 L1246.91 1229.86 L1246.91 1229.86  Z
  " fill="#009af9" fill-rule="evenodd" fill-opacity="1"/>
<polyline clip-path="url(#clip792)" style="stroke:#009af9; stroke-linecap:butt; stroke-linejoin:round; stroke-width:4; stroke-opacity:1; fill:none" points="
  1246.91,1229.86 1246.91,1384.24 1294.02,1384.24 1294.02,1229.86 1246.91,1229.86 
  "/>
<path clip-path="url(#clip792)" d="
M1294.02 1283.42 L1294.02 1384.24 L1341.13 1384.24 L1341.13 1283.42 L1294.02 1283.42 L1294.02 1283.42  Z
  " fill="#009af9" fill-rule="evenodd" fill-opacity="1"/>
<polyline clip-path="url(#clip792)" style="stroke:#009af9; stroke-linecap:butt; stroke-linejoin:round; stroke-width:4; stroke-opacity:1; fill:none" points="
  1294.02,1283.42 1294.02,1384.24 1341.13,1384.24 1341.13,1283.42 1294.02,1283.42 
  "/>
<path clip-path="url(#clip792)" d="
M1341.13 1292.87 L1341.13 1384.24 L1388.25 1384.24 L1388.25 1292.87 L1341.13 1292.87 L1341.13 1292.87  Z
  " fill="#009af9" fill-rule="evenodd" fill-opacity="1"/>
<polyline clip-path="url(#clip792)" style="stroke:#009af9; stroke-linecap:butt; stroke-linejoin:round; stroke-width:4; stroke-opacity:1; fill:none" points="
  1341.13,1292.87 1341.13,1384.24 1388.25,1384.24 1388.25,1292.87 1341.13,1292.87 
  "/>
<path clip-path="url(#clip792)" d="
M1388.25 1333.83 L1388.25 1384.24 L1435.36 1384.24 L1435.36 1333.83 L1388.25 1333.83 L1388.25 1333.83  Z
  " fill="#009af9" fill-rule="evenodd" fill-opacity="1"/>
<polyline clip-path="url(#clip792)" style="stroke:#009af9; stroke-linecap:butt; stroke-linejoin:round; stroke-width:4; stroke-opacity:1; fill:none" points="
  1388.25,1333.83 1388.25,1384.24 1435.36,1384.24 1435.36,1333.83 1388.25,1333.83 
  "/>
<path clip-path="url(#clip792)" d="
M1435.36 1336.98 L1435.36 1384.24 L1482.47 1384.24 L1482.47 1336.98 L1435.36 1336.98 L1435.36 1336.98  Z
  " fill="#009af9" fill-rule="evenodd" fill-opacity="1"/>
<polyline clip-path="url(#clip792)" style="stroke:#009af9; stroke-linecap:butt; stroke-linejoin:round; stroke-width:4; stroke-opacity:1; fill:none" points="
  1435.36,1336.98 1435.36,1384.24 1482.47,1384.24 1482.47,1336.98 1435.36,1336.98 
  "/>
<path clip-path="url(#clip792)" d="
M1482.47 1343.28 L1482.47 1384.24 L1529.59 1384.24 L1529.59 1343.28 L1482.47 1343.28 L1482.47 1343.28  Z
  " fill="#009af9" fill-rule="evenodd" fill-opacity="1"/>
<polyline clip-path="url(#clip792)" style="stroke:#009af9; stroke-linecap:butt; stroke-linejoin:round; stroke-width:4; stroke-opacity:1; fill:none" points="
  1482.47,1343.28 1482.47,1384.24 1529.59,1384.24 1529.59,1343.28 1482.47,1343.28 
  "/>
<path clip-path="url(#clip792)" d="
M1529.59 1343.28 L1529.59 1384.24 L1576.7 1384.24 L1576.7 1343.28 L1529.59 1343.28 L1529.59 1343.28  Z
  " fill="#009af9" fill-rule="evenodd" fill-opacity="1"/>
<polyline clip-path="url(#clip792)" style="stroke:#009af9; stroke-linecap:butt; stroke-linejoin:round; stroke-width:4; stroke-opacity:1; fill:none" points="
  1529.59,1343.28 1529.59,1384.24 1576.7,1384.24 1576.7,1343.28 1529.59,1343.28 
  "/>
<path clip-path="url(#clip792)" d="
M1576.7 1352.73 L1576.7 1384.24 L1623.81 1384.24 L1623.81 1352.73 L1576.7 1352.73 L1576.7 1352.73  Z
  " fill="#009af9" fill-rule="evenodd" fill-opacity="1"/>
<polyline clip-path="url(#clip792)" style="stroke:#009af9; stroke-linecap:butt; stroke-linejoin:round; stroke-width:4; stroke-opacity:1; fill:none" points="
  1576.7,1352.73 1576.7,1384.24 1623.81,1384.24 1623.81,1352.73 1576.7,1352.73 
  "/>
<path clip-path="url(#clip792)" d="
M1623.81 1371.64 L1623.81 1384.24 L1670.93 1384.24 L1670.93 1371.64 L1623.81 1371.64 L1623.81 1371.64  Z
  " fill="#009af9" fill-rule="evenodd" fill-opacity="1"/>
<polyline clip-path="url(#clip792)" style="stroke:#009af9; stroke-linecap:butt; stroke-linejoin:round; stroke-width:4; stroke-opacity:1; fill:none" points="
  1623.81,1371.64 1623.81,1384.24 1670.93,1384.24 1670.93,1371.64 1623.81,1371.64 
  "/>
<path clip-path="url(#clip792)" d="
M1670.93 1371.64 L1670.93 1384.24 L1718.04 1384.24 L1718.04 1371.64 L1670.93 1371.64 L1670.93 1371.64  Z
  " fill="#009af9" fill-rule="evenodd" fill-opacity="1"/>
<polyline clip-path="url(#clip792)" style="stroke:#009af9; stroke-linecap:butt; stroke-linejoin:round; stroke-width:4; stroke-opacity:1; fill:none" points="
  1670.93,1371.64 1670.93,1384.24 1718.04,1384.24 1718.04,1371.64 1670.93,1371.64 
  "/>
<path clip-path="url(#clip792)" d="
M1718.04 1381.09 L1718.04 1384.24 L1765.16 1384.24 L1765.16 1381.09 L1718.04 1381.09 L1718.04 1381.09  Z
  " fill="#009af9" fill-rule="evenodd" fill-opacity="1"/>
<polyline clip-path="url(#clip792)" style="stroke:#009af9; stroke-linecap:butt; stroke-linejoin:round; stroke-width:4; stroke-opacity:1; fill:none" points="
  1718.04,1381.09 1718.04,1384.24 1765.16,1384.24 1765.16,1381.09 1718.04,1381.09 
  "/>
<path clip-path="url(#clip792)" d="
M1765.16 1371.64 L1765.16 1384.24 L1812.27 1384.24 L1812.27 1371.64 L1765.16 1371.64 L1765.16 1371.64  Z
  " fill="#009af9" fill-rule="evenodd" fill-opacity="1"/>
<polyline clip-path="url(#clip792)" style="stroke:#009af9; stroke-linecap:butt; stroke-linejoin:round; stroke-width:4; stroke-opacity:1; fill:none" points="
  1765.16,1371.64 1765.16,1384.24 1812.27,1384.24 1812.27,1371.64 1765.16,1371.64 
  "/>
<path clip-path="url(#clip792)" d="
M1812.27 1374.79 L1812.27 1384.24 L1859.38 1384.24 L1859.38 1374.79 L1812.27 1374.79 L1812.27 1374.79  Z
  " fill="#009af9" fill-rule="evenodd" fill-opacity="1"/>
<polyline clip-path="url(#clip792)" style="stroke:#009af9; stroke-linecap:butt; stroke-linejoin:round; stroke-width:4; stroke-opacity:1; fill:none" points="
  1812.27,1374.79 1812.27,1384.24 1859.38,1384.24 1859.38,1374.79 1812.27,1374.79 
  "/>
<path clip-path="url(#clip792)" d="
M1859.38 1377.94 L1859.38 1384.24 L1906.5 1384.24 L1906.5 1377.94 L1859.38 1377.94 L1859.38 1377.94  Z
  " fill="#009af9" fill-rule="evenodd" fill-opacity="1"/>
<polyline clip-path="url(#clip792)" style="stroke:#009af9; stroke-linecap:butt; stroke-linejoin:round; stroke-width:4; stroke-opacity:1; fill:none" points="
  1859.38,1377.94 1859.38,1384.24 1906.5,1384.24 1906.5,1377.94 1859.38,1377.94 
  "/>
<path clip-path="url(#clip792)" d="
M1906.5 1377.94 L1906.5 1384.24 L1953.61 1384.24 L1953.61 1377.94 L1906.5 1377.94 L1906.5 1377.94  Z
  " fill="#009af9" fill-rule="evenodd" fill-opacity="1"/>
<polyline clip-path="url(#clip792)" style="stroke:#009af9; stroke-linecap:butt; stroke-linejoin:round; stroke-width:4; stroke-opacity:1; fill:none" points="
  1906.5,1377.94 1906.5,1384.24 1953.61,1384.24 1953.61,1377.94 1906.5,1377.94 
  "/>
<path clip-path="url(#clip792)" d="
M1953.61 1384.24 L1953.61 1384.24 L2000.72 1384.24 L2000.72 1384.24 L1953.61 1384.24 L1953.61 1384.24  Z
  " fill="#009af9" fill-rule="evenodd" fill-opacity="1"/>
<polyline clip-path="url(#clip792)" style="stroke:#009af9; stroke-linecap:butt; stroke-linejoin:round; stroke-width:4; stroke-opacity:1; fill:none" points="
  1953.61,1384.24 1953.61,1384.24 2000.72,1384.24 1953.61,1384.24 
  "/>
<path clip-path="url(#clip792)" d="
M2000.72 1381.09 L2000.72 1384.24 L2047.84 1384.24 L2047.84 1381.09 L2000.72 1381.09 L2000.72 1381.09  Z
  " fill="#009af9" fill-rule="evenodd" fill-opacity="1"/>
<polyline clip-path="url(#clip792)" style="stroke:#009af9; stroke-linecap:butt; stroke-linejoin:round; stroke-width:4; stroke-opacity:1; fill:none" points="
  2000.72,1381.09 2000.72,1384.24 2047.84,1384.24 2047.84,1381.09 2000.72,1381.09 
  "/>
<path clip-path="url(#clip792)" d="
M2047.84 1381.09 L2047.84 1384.24 L2094.95 1384.24 L2094.95 1381.09 L2047.84 1381.09 L2047.84 1381.09  Z
  " fill="#009af9" fill-rule="evenodd" fill-opacity="1"/>
<polyline clip-path="url(#clip792)" style="stroke:#009af9; stroke-linecap:butt; stroke-linejoin:round; stroke-width:4; stroke-opacity:1; fill:none" points="
  2047.84,1381.09 2047.84,1384.24 2094.95,1384.24 2094.95,1381.09 2047.84,1381.09 
  "/>
<path clip-path="url(#clip792)" d="
M2094.95 1377.94 L2094.95 1384.24 L2142.06 1384.24 L2142.06 1377.94 L2094.95 1377.94 L2094.95 1377.94  Z
  " fill="#009af9" fill-rule="evenodd" fill-opacity="1"/>
<polyline clip-path="url(#clip792)" style="stroke:#009af9; stroke-linecap:butt; stroke-linejoin:round; stroke-width:4; stroke-opacity:1; fill:none" points="
  2094.95,1377.94 2094.95,1384.24 2142.06,1384.24 2142.06,1377.94 2094.95,1377.94 
  "/>
<path clip-path="url(#clip792)" d="
M2142.06 1377.94 L2142.06 1384.24 L2189.18 1384.24 L2189.18 1377.94 L2142.06 1377.94 L2142.06 1377.94  Z
  " fill="#009af9" fill-rule="evenodd" fill-opacity="1"/>
<polyline clip-path="url(#clip792)" style="stroke:#009af9; stroke-linecap:butt; stroke-linejoin:round; stroke-width:4; stroke-opacity:1; fill:none" points="
  2142.06,1377.94 2142.06,1384.24 2189.18,1384.24 2189.18,1377.94 2142.06,1377.94 
  "/>
<path clip-path="url(#clip792)" d="
M2189.18 1381.09 L2189.18 1384.24 L2236.29 1384.24 L2236.29 1381.09 L2189.18 1381.09 L2189.18 1381.09  Z
  " fill="#009af9" fill-rule="evenodd" fill-opacity="1"/>
<polyline clip-path="url(#clip792)" style="stroke:#009af9; stroke-linecap:butt; stroke-linejoin:round; stroke-width:4; stroke-opacity:1; fill:none" points="
  2189.18,1381.09 2189.18,1384.24 2236.29,1384.24 2236.29,1381.09 2189.18,1381.09 
  "/>
<circle clip-path="url(#clip792)" style="fill:#009af9; stroke:none; fill-opacity:0" cx="375.304" cy="1381.09" r="2"/>
<circle clip-path="url(#clip792)" style="fill:#009af9; stroke:none; fill-opacity:0" cx="422.418" cy="1318.08" r="2"/>
<circle clip-path="url(#clip792)" style="fill:#009af9; stroke:none; fill-opacity:0" cx="469.532" cy="1009.32" r="2"/>
<circle clip-path="url(#clip792)" style="fill:#009af9; stroke:none; fill-opacity:0" cx="516.645" cy="716.308" r="2"/>
<circle clip-path="url(#clip792)" style="fill:#009af9; stroke:none; fill-opacity:0" cx="563.759" cy="439.054" r="2"/>
<circle clip-path="url(#clip792)" style="fill:#009af9; stroke:none; fill-opacity:0" cx="610.872" cy="278.373" r="2"/>
<circle clip-path="url(#clip792)" style="fill:#009af9; stroke:none; fill-opacity:0" cx="657.986" cy="284.674" r="2"/>
<circle clip-path="url(#clip792)" style="fill:#009af9; stroke:none; fill-opacity:0" cx="705.1" cy="98.7881" r="2"/>
<circle clip-path="url(#clip792)" style="fill:#009af9; stroke:none; fill-opacity:0" cx="752.213" cy="86.1857" r="2"/>
<circle clip-path="url(#clip792)" style="fill:#009af9; stroke:none; fill-opacity:0" cx="799.327" cy="284.674" r="2"/>
<circle clip-path="url(#clip792)" style="fill:#009af9; stroke:none; fill-opacity:0" cx="846.44" cy="335.084" r="2"/>
<circle clip-path="url(#clip792)" style="fill:#009af9; stroke:none; fill-opacity:0" cx="893.554" cy="489.464" r="2"/>
<circle clip-path="url(#clip792)" style="fill:#009af9; stroke:none; fill-opacity:0" cx="940.667" cy="681.652" r="2"/>
<circle clip-path="url(#clip792)" style="fill:#009af9; stroke:none; fill-opacity:0" cx="987.781" cy="823.429" r="2"/>
<circle clip-path="url(#clip792)" style="fill:#009af9; stroke:none; fill-opacity:0" cx="1034.89" cy="880.14" r="2"/>
<circle clip-path="url(#clip792)" style="fill:#009af9; stroke:none; fill-opacity:0" cx="1082.01" cy="1009.32" r="2"/>
<circle clip-path="url(#clip792)" style="fill:#009af9; stroke:none; fill-opacity:0" cx="1129.12" cy="1094.38" r="2"/>
<circle clip-path="url(#clip792)" style="fill:#009af9; stroke:none; fill-opacity:0" cx="1176.24" cy="1144.79" r="2"/>
<circle clip-path="url(#clip792)" style="fill:#009af9; stroke:none; fill-opacity:0" cx="1223.35" cy="1207.8" r="2"/>
<circle clip-path="url(#clip792)" style="fill:#009af9; stroke:none; fill-opacity:0" cx="1270.46" cy="1229.86" r="2"/>
<circle clip-path="url(#clip792)" style="fill:#009af9; stroke:none; fill-opacity:0" cx="1317.58" cy="1283.42" r="2"/>
<circle clip-path="url(#clip792)" style="fill:#009af9; stroke:none; fill-opacity:0" cx="1364.69" cy="1292.87" r="2"/>
<circle clip-path="url(#clip792)" style="fill:#009af9; stroke:none; fill-opacity:0" cx="1411.8" cy="1333.83" r="2"/>
<circle clip-path="url(#clip792)" style="fill:#009af9; stroke:none; fill-opacity:0" cx="1458.92" cy="1336.98" r="2"/>
<circle clip-path="url(#clip792)" style="fill:#009af9; stroke:none; fill-opacity:0" cx="1506.03" cy="1343.28" r="2"/>
<circle clip-path="url(#clip792)" style="fill:#009af9; stroke:none; fill-opacity:0" cx="1553.14" cy="1343.28" r="2"/>
<circle clip-path="url(#clip792)" style="fill:#009af9; stroke:none; fill-opacity:0" cx="1600.26" cy="1352.73" r="2"/>
<circle clip-path="url(#clip792)" style="fill:#009af9; stroke:none; fill-opacity:0" cx="1647.37" cy="1371.64" r="2"/>
<circle clip-path="url(#clip792)" style="fill:#009af9; stroke:none; fill-opacity:0" cx="1694.48" cy="1371.64" r="2"/>
<circle clip-path="url(#clip792)" style="fill:#009af9; stroke:none; fill-opacity:0" cx="1741.6" cy="1381.09" r="2"/>
<circle clip-path="url(#clip792)" style="fill:#009af9; stroke:none; fill-opacity:0" cx="1788.71" cy="1371.64" r="2"/>
<circle clip-path="url(#clip792)" style="fill:#009af9; stroke:none; fill-opacity:0" cx="1835.83" cy="1374.79" r="2"/>
<circle clip-path="url(#clip792)" style="fill:#009af9; stroke:none; fill-opacity:0" cx="1882.94" cy="1377.94" r="2"/>
<circle clip-path="url(#clip792)" style="fill:#009af9; stroke:none; fill-opacity:0" cx="1930.05" cy="1377.94" r="2"/>
<circle clip-path="url(#clip792)" style="fill:#009af9; stroke:none; fill-opacity:0" cx="1977.17" cy="1384.24" r="2"/>
<circle clip-path="url(#clip792)" style="fill:#009af9; stroke:none; fill-opacity:0" cx="2024.28" cy="1381.09" r="2"/>
<circle clip-path="url(#clip792)" style="fill:#009af9; stroke:none; fill-opacity:0" cx="2071.39" cy="1381.09" r="2"/>
<circle clip-path="url(#clip792)" style="fill:#009af9; stroke:none; fill-opacity:0" cx="2118.51" cy="1377.94" r="2"/>
<circle clip-path="url(#clip792)" style="fill:#009af9; stroke:none; fill-opacity:0" cx="2165.62" cy="1377.94" r="2"/>
<circle clip-path="url(#clip792)" style="fill:#009af9; stroke:none; fill-opacity:0" cx="2212.73" cy="1381.09" r="2"/>
<polyline clip-path="url(#clip792)" style="stroke:#e26f46; stroke-linecap:butt; stroke-linejoin:round; stroke-width:6; stroke-opacity:1; fill:none" points="
  1600.26,2799.12 1600.26,-1328.69 
  "/>
<path clip-path="url(#clip790)" d="M1619.02 1447.13 Q1619.02 1447.57 1618.92 1447.95 L1617.61 1456.28 Q1617.54 1456.92 1617.4 1457.15 Q1617.28 1457.38 1616.91 1457.38 Q1616.32 1457.38 1616.32 1456.78 Q1616.32 1456.42 1616.46 1455.86 Q1616.86 1453.22 1616.86 1452.02 Q1616.86 1451.22 1616.7 1450.64 Q1616.56 1450.03 1616.32 1449.61 Q1616.11 1449.19 1615.62 1448.91 Q1615.13 1448.62 1614.66 1448.46 Q1614.19 1448.3 1613.35 1448.23 Q1612.5 1448.13 1611.78 1448.11 Q1611.05 1448.09 1609.86 1448.09 Q1607.26 1448.09 1606.84 1448.18 Q1606.39 1448.3 1606.16 1448.65 Q1605.95 1448.98 1605.71 1449.96 L1599.34 1475.42 L1599.15 1476.43 Q1599.15 1476.99 1599.5 1477.18 Q1599.86 1477.36 1600.93 1477.48 Q1602.48 1477.6 1604 1477.6 Q1604.05 1477.6 1604.14 1477.6 Q1604.66 1477.6 1604.87 1477.62 Q1605.08 1477.62 1605.29 1477.67 Q1605.5 1477.72 1605.55 1477.83 Q1605.62 1477.93 1605.62 1478.11 Q1605.62 1478.56 1605.43 1478.79 Q1605.24 1479 1605.06 1479.05 Q1604.89 1479.07 1604.56 1479.07 Q1603.91 1479.07 1602.5 1479.03 Q1601.1 1478.98 1600.39 1478.98 L1596.41 1478.93 L1592.34 1478.98 Q1591.7 1478.98 1590.37 1479.03 Q1589.03 1479.07 1588.4 1479.07 Q1587.58 1479.07 1587.58 1478.49 Q1587.58 1477.83 1587.89 1477.72 Q1588.22 1477.6 1589.6 1477.6 Q1591.54 1477.6 1592.6 1477.5 Q1593.65 1477.41 1594.21 1477.08 Q1594.8 1476.76 1594.96 1476.43 Q1595.12 1476.08 1595.31 1475.28 L1601.75 1449.68 Q1601.94 1449.12 1601.94 1448.67 Q1601.94 1448.44 1601.87 1448.34 Q1601.82 1448.25 1601.52 1448.18 Q1601.21 1448.09 1600.58 1448.09 L1598.71 1448.09 Q1596.79 1448.09 1595.59 1448.18 Q1594.42 1448.25 1593.3 1448.6 Q1592.2 1448.95 1591.54 1449.44 Q1590.91 1449.94 1590.21 1450.94 Q1589.5 1451.95 1588.99 1453.17 Q1588.5 1454.39 1587.79 1456.38 Q1587.56 1457.03 1587.42 1457.22 Q1587.3 1457.38 1586.97 1457.38 Q1586.74 1457.38 1586.55 1457.24 Q1586.39 1457.08 1586.39 1456.87 Q1586.62 1456.1 1586.67 1456 L1589.55 1447.55 Q1589.78 1446.87 1590 1446.75 Q1590.23 1446.61 1591.1 1446.61 L1617.7 1446.61 Q1618.13 1446.61 1618.27 1446.61 Q1618.41 1446.61 1618.64 1446.66 Q1618.87 1446.7 1618.95 1446.82 Q1619.02 1446.94 1619.02 1447.13 Z" fill="#000000" fill-rule="evenodd" fill-opacity="1" /></svg>
