<?xml version="1.0" encoding="utf-8"?>
<svg xmlns="http://www.w3.org/2000/svg" xmlns:xlink="http://www.w3.org/1999/xlink" width="600" height="400" viewBox="0 0 2400 1600">
<defs>
  <clipPath id="clip370">
    <rect x="0" y="0" width="2400" height="1600"/>
  </clipPath>
</defs>
<path clip-path="url(#clip370)" d="
M0 1600 L2400 1600 L2400 0 L0 0  Z
  " fill="#ffffff" fill-rule="evenodd" fill-opacity="1"/>
<defs>
  <clipPath id="clip371">
    <rect x="480" y="0" width="1681" height="1600"/>
  </clipPath>
</defs>
<defs>
  <clipPath id="clip372">
    <rect x="235" y="47" width="2118" height="1379"/>
  </clipPath>
</defs>
<path clip-path="url(#clip370)" d="
M235.283 1425.53 L2352.76 1425.53 L2352.76 47.2441 L235.283 47.2441  Z
  " fill="#ffffff" fill-rule="evenodd" fill-opacity="1"/>
<polyline clip-path="url(#clip372)" style="stroke:#000000; stroke-linecap:butt; stroke-linejoin:round; stroke-width:2; stroke-opacity:0.1; fill:none" points="
  252.561,1425.53 252.561,47.2441 
  "/>
<polyline clip-path="url(#clip372)" style="stroke:#000000; stroke-linecap:butt; stroke-linejoin:round; stroke-width:2; stroke-opacity:0.1; fill:none" points="
  748.494,1425.53 748.494,47.2441 
  "/>
<polyline clip-path="url(#clip372)" style="stroke:#000000; stroke-linecap:butt; stroke-linejoin:round; stroke-width:2; stroke-opacity:0.1; fill:none" points="
  1244.43,1425.53 1244.43,47.2441 
  "/>
<polyline clip-path="url(#clip372)" style="stroke:#000000; stroke-linecap:butt; stroke-linejoin:round; stroke-width:2; stroke-opacity:0.1; fill:none" points="
  1740.36,1425.53 1740.36,47.2441 
  "/>
<polyline clip-path="url(#clip372)" style="stroke:#000000; stroke-linecap:butt; stroke-linejoin:round; stroke-width:2; stroke-opacity:0.1; fill:none" points="
  2236.29,1425.53 2236.29,47.2441 
  "/>
<polyline clip-path="url(#clip370)" style="stroke:#000000; stroke-linecap:butt; stroke-linejoin:round; stroke-width:4; stroke-opacity:1; fill:none" points="
  235.283,1425.53 2352.76,1425.53 
  "/>
<polyline clip-path="url(#clip370)" style="stroke:#000000; stroke-linecap:butt; stroke-linejoin:round; stroke-width:4; stroke-opacity:1; fill:none" points="
  252.561,1425.53 252.561,1408.99 
  "/>
<polyline clip-path="url(#clip370)" style="stroke:#000000; stroke-linecap:butt; stroke-linejoin:round; stroke-width:4; stroke-opacity:1; fill:none" points="
  748.494,1425.53 748.494,1408.99 
  "/>
<polyline clip-path="url(#clip370)" style="stroke:#000000; stroke-linecap:butt; stroke-linejoin:round; stroke-width:4; stroke-opacity:1; fill:none" points="
  1244.43,1425.53 1244.43,1408.99 
  "/>
<polyline clip-path="url(#clip370)" style="stroke:#000000; stroke-linecap:butt; stroke-linejoin:round; stroke-width:4; stroke-opacity:1; fill:none" points="
  1740.36,1425.53 1740.36,1408.99 
  "/>
<polyline clip-path="url(#clip370)" style="stroke:#000000; stroke-linecap:butt; stroke-linejoin:round; stroke-width:4; stroke-opacity:1; fill:none" points="
  2236.29,1425.53 2236.29,1408.99 
  "/>
<path clip-path="url(#clip370)" d="M199.089 1469.37 L228.765 1469.37 L228.765 1473.31 L199.089 1473.31 L199.089 1469.37 Z" fill="#000000" fill-rule="evenodd" fill-opacity="1" /><path clip-path="url(#clip370)" d="M239.668 1482.27 L247.307 1482.27 L247.307 1455.9 L238.996 1457.57 L238.996 1453.31 L247.26 1451.64 L251.936 1451.64 L251.936 1482.27 L259.575 1482.27 L259.575 1486.2 L239.668 1486.2 L239.668 1482.27 Z" fill="#000000" fill-rule="evenodd" fill-opacity="1" /><path clip-path="url(#clip370)" d="M269.019 1480.32 L273.904 1480.32 L273.904 1486.2 L269.019 1486.2 L269.019 1480.32 Z" fill="#000000" fill-rule="evenodd" fill-opacity="1" /><path clip-path="url(#clip370)" d="M294.089 1454.72 Q290.478 1454.72 288.649 1458.29 Q286.843 1461.83 286.843 1468.96 Q286.843 1476.06 288.649 1479.63 Q290.478 1483.17 294.089 1483.17 Q297.723 1483.17 299.528 1479.63 Q301.357 1476.06 301.357 1468.96 Q301.357 1461.83 299.528 1458.29 Q297.723 1454.72 294.089 1454.72 M294.089 1451.02 Q299.899 1451.02 302.954 1455.62 Q306.033 1460.21 306.033 1468.96 Q306.033 1477.69 302.954 1482.29 Q299.899 1486.87 294.089 1486.87 Q288.279 1486.87 285.2 1482.29 Q282.144 1477.69 282.144 1468.96 Q282.144 1460.21 285.2 1455.62 Q288.279 1451.02 294.089 1451.02 Z" fill="#000000" fill-rule="evenodd" fill-opacity="1" /><path clip-path="url(#clip370)" d="M695.519 1469.37 L725.195 1469.37 L725.195 1473.31 L695.519 1473.31 L695.519 1469.37 Z" fill="#000000" fill-rule="evenodd" fill-opacity="1" /><path clip-path="url(#clip370)" d="M745.288 1454.72 Q741.677 1454.72 739.848 1458.29 Q738.042 1461.83 738.042 1468.96 Q738.042 1476.06 739.848 1479.63 Q741.677 1483.17 745.288 1483.17 Q748.922 1483.17 750.727 1479.63 Q752.556 1476.06 752.556 1468.96 Q752.556 1461.83 750.727 1458.29 Q748.922 1454.72 745.288 1454.72 M745.288 1451.02 Q751.098 1451.02 754.153 1455.62 Q757.232 1460.21 757.232 1468.96 Q757.232 1477.69 754.153 1482.29 Q751.098 1486.87 745.288 1486.87 Q739.477 1486.87 736.399 1482.29 Q733.343 1477.69 733.343 1468.96 Q733.343 1460.21 736.399 1455.62 Q739.477 1451.02 745.288 1451.02 Z" fill="#000000" fill-rule="evenodd" fill-opacity="1" /><path clip-path="url(#clip370)" d="M765.45 1480.32 L770.334 1480.32 L770.334 1486.2 L765.45 1486.2 L765.45 1480.32 Z" fill="#000000" fill-rule="evenodd" fill-opacity="1" /><path clip-path="url(#clip370)" d="M780.565 1451.64 L798.922 1451.64 L798.922 1455.58 L784.848 1455.58 L784.848 1464.05 Q785.866 1463.7 786.885 1463.54 Q787.903 1463.36 788.922 1463.36 Q794.709 1463.36 798.088 1466.53 Q801.468 1469.7 801.468 1475.12 Q801.468 1480.69 797.996 1483.8 Q794.523 1486.87 788.204 1486.87 Q786.028 1486.87 783.76 1486.5 Q781.514 1486.13 779.107 1485.39 L779.107 1480.69 Q781.19 1481.83 783.412 1482.38 Q785.635 1482.94 788.111 1482.94 Q792.116 1482.94 794.454 1480.83 Q796.792 1478.73 796.792 1475.12 Q796.792 1471.5 794.454 1469.4 Q792.116 1467.29 788.111 1467.29 Q786.236 1467.29 784.361 1467.71 Q782.51 1468.12 780.565 1469 L780.565 1451.64 Z" fill="#000000" fill-rule="evenodd" fill-opacity="1" /><path clip-path="url(#clip370)" d="M1221.81 1454.72 Q1218.2 1454.72 1216.37 1458.29 Q1214.57 1461.83 1214.57 1468.96 Q1214.57 1476.06 1216.37 1479.63 Q1218.2 1483.17 1221.81 1483.17 Q1225.44 1483.17 1227.25 1479.63 Q1229.08 1476.06 1229.08 1468.96 Q1229.08 1461.83 1227.25 1458.29 Q1225.44 1454.72 1221.81 1454.72 M1221.81 1451.02 Q1227.62 1451.02 1230.68 1455.62 Q1233.75 1460.21 1233.75 1468.96 Q1233.75 1477.69 1230.68 1482.29 Q1227.62 1486.87 1221.81 1486.87 Q1216 1486.87 1212.92 1482.29 Q1209.87 1477.69 1209.87 1468.96 Q1209.87 1460.21 1212.92 1455.62 Q1216 1451.02 1221.81 1451.02 Z" fill="#000000" fill-rule="evenodd" fill-opacity="1" /><path clip-path="url(#clip370)" d="M1241.97 1480.32 L1246.86 1480.32 L1246.86 1486.2 L1241.97 1486.2 L1241.97 1480.32 Z" fill="#000000" fill-rule="evenodd" fill-opacity="1" /><path clip-path="url(#clip370)" d="M1267.04 1454.72 Q1263.43 1454.72 1261.6 1458.29 Q1259.8 1461.83 1259.8 1468.96 Q1259.8 1476.06 1261.6 1479.63 Q1263.43 1483.17 1267.04 1483.17 Q1270.68 1483.17 1272.48 1479.63 Q1274.31 1476.06 1274.31 1468.96 Q1274.31 1461.83 1272.48 1458.29 Q1270.68 1454.72 1267.04 1454.72 M1267.04 1451.02 Q1272.85 1451.02 1275.91 1455.62 Q1278.99 1460.21 1278.99 1468.96 Q1278.99 1477.69 1275.91 1482.29 Q1272.85 1486.87 1267.04 1486.87 Q1261.23 1486.87 1258.15 1482.29 Q1255.1 1477.69 1255.1 1468.96 Q1255.1 1460.21 1258.15 1455.62 Q1261.23 1451.02 1267.04 1451.02 Z" fill="#000000" fill-rule="evenodd" fill-opacity="1" /><path clip-path="url(#clip370)" d="M1718.24 1454.72 Q1714.63 1454.72 1712.8 1458.29 Q1711 1461.83 1711 1468.96 Q1711 1476.06 1712.8 1479.63 Q1714.63 1483.17 1718.24 1483.17 Q1721.87 1483.17 1723.68 1479.63 Q1725.51 1476.06 1725.51 1468.96 Q1725.51 1461.83 1723.68 1458.29 Q1721.87 1454.72 1718.24 1454.72 M1718.24 1451.02 Q1724.05 1451.02 1727.11 1455.62 Q1730.19 1460.21 1730.19 1468.96 Q1730.19 1477.69 1727.11 1482.29 Q1724.05 1486.87 1718.24 1486.87 Q1712.43 1486.87 1709.35 1482.29 Q1706.3 1477.69 1706.3 1468.96 Q1706.3 1460.21 1709.35 1455.62 Q1712.43 1451.02 1718.24 1451.02 Z" fill="#000000" fill-rule="evenodd" fill-opacity="1" /><path clip-path="url(#clip370)" d="M1738.4 1480.32 L1743.29 1480.32 L1743.29 1486.2 L1738.4 1486.2 L1738.4 1480.32 Z" fill="#000000" fill-rule="evenodd" fill-opacity="1" /><path clip-path="url(#clip370)" d="M1753.52 1451.64 L1771.87 1451.64 L1771.87 1455.58 L1757.8 1455.58 L1757.8 1464.05 Q1758.82 1463.7 1759.84 1463.54 Q1760.86 1463.36 1761.87 1463.36 Q1767.66 1463.36 1771.04 1466.53 Q1774.42 1469.7 1774.42 1475.12 Q1774.42 1480.69 1770.95 1483.8 Q1767.48 1486.87 1761.16 1486.87 Q1758.98 1486.87 1756.71 1486.5 Q1754.47 1486.13 1752.06 1485.39 L1752.06 1480.69 Q1754.14 1481.83 1756.37 1482.38 Q1758.59 1482.94 1761.06 1482.94 Q1765.07 1482.94 1767.41 1480.83 Q1769.75 1478.73 1769.75 1475.12 Q1769.75 1471.5 1767.41 1469.4 Q1765.07 1467.29 1761.06 1467.29 Q1759.19 1467.29 1757.31 1467.71 Q1755.46 1468.12 1753.52 1469 L1753.52 1451.64 Z" fill="#000000" fill-rule="evenodd" fill-opacity="1" /><path clip-path="url(#clip370)" d="M2203.44 1482.27 L2211.08 1482.27 L2211.08 1455.9 L2202.77 1457.57 L2202.77 1453.31 L2211.04 1451.64 L2215.71 1451.64 L2215.71 1482.27 L2223.35 1482.27 L2223.35 1486.2 L2203.44 1486.2 L2203.44 1482.27 Z" fill="#000000" fill-rule="evenodd" fill-opacity="1" /><path clip-path="url(#clip370)" d="M2232.8 1480.32 L2237.68 1480.32 L2237.68 1486.2 L2232.8 1486.2 L2232.8 1480.32 Z" fill="#000000" fill-rule="evenodd" fill-opacity="1" /><path clip-path="url(#clip370)" d="M2257.87 1454.72 Q2254.25 1454.72 2252.43 1458.29 Q2250.62 1461.83 2250.62 1468.96 Q2250.62 1476.06 2252.43 1479.63 Q2254.25 1483.17 2257.87 1483.17 Q2261.5 1483.17 2263.3 1479.63 Q2265.13 1476.06 2265.13 1468.96 Q2265.13 1461.83 2263.3 1458.29 Q2261.5 1454.72 2257.87 1454.72 M2257.87 1451.02 Q2263.68 1451.02 2266.73 1455.62 Q2269.81 1460.21 2269.81 1468.96 Q2269.81 1477.69 2266.73 1482.29 Q2263.68 1486.87 2257.87 1486.87 Q2252.05 1486.87 2248.98 1482.29 Q2245.92 1477.69 2245.92 1468.96 Q2245.92 1460.21 2248.98 1455.62 Q2252.05 1451.02 2257.87 1451.02 Z" fill="#000000" fill-rule="evenodd" fill-opacity="1" /><path clip-path="url(#clip370)" d="M1201.62 1552.72 Q1201.62 1552.46 1202.49 1550.79 Q1203.36 1549.08 1206.42 1542.99 Q1209.48 1536.87 1212.64 1530.46 L1224.01 1507.6 Q1224.81 1506.15 1225.84 1506.15 Q1226.77 1506.15 1227.19 1506.73 Q1227.61 1507.31 1229.54 1511.2 Q1230.54 1513.1 1231.12 1514.33 L1249.77 1551.65 Q1250.09 1552.46 1250.12 1552.72 Q1250.12 1553.36 1249 1553.36 L1203.36 1553.36 Q1201.62 1553.36 1201.62 1552.72 M1205.97 1548.34 L1241.46 1548.34 L1223.72 1512.72 L1205.97 1548.34 Z" fill="#000000" fill-rule="evenodd" fill-opacity="1" /><path clip-path="url(#clip370)" d="M1284.96 1528.82 Q1284.96 1529.66 1284.74 1531.3 Q1284.51 1532.94 1283.96 1535.33 Q1283.42 1537.71 1282.61 1540.22 Q1281.84 1542.73 1280.61 1545.25 Q1279.39 1547.73 1277.94 1549.69 Q1276.49 1551.65 1274.46 1552.88 Q1272.43 1554.1 1270.15 1554.1 Q1269.08 1554.1 1268.05 1553.94 Q1267.02 1553.78 1265.74 1553.27 Q1264.45 1552.75 1263.51 1551.91 Q1262.58 1551.04 1261.93 1549.5 Q1261.29 1547.95 1261.29 1545.92 Q1261.29 1543.83 1262.06 1541.03 Q1262.87 1538.19 1265.06 1532.4 Q1266.19 1529.4 1266.19 1527.76 Q1266.19 1527.02 1266.03 1526.57 Q1265.86 1526.08 1265.54 1525.92 Q1265.22 1525.73 1265.03 1525.7 Q1264.87 1525.66 1264.54 1525.66 Q1262.77 1525.66 1260.97 1527.5 Q1259.17 1529.34 1257.88 1533.85 Q1257.62 1534.65 1257.46 1534.84 Q1257.3 1535.04 1256.81 1535.04 Q1256.01 1535 1256.01 1534.36 Q1256.01 1534.17 1256.23 1533.43 Q1256.46 1532.65 1256.88 1531.49 Q1257.3 1530.3 1258.04 1529.08 Q1258.78 1527.82 1259.68 1526.73 Q1260.61 1525.63 1261.93 1524.92 Q1263.26 1524.22 1264.74 1524.22 Q1267.15 1524.22 1268.63 1525.79 Q1270.15 1527.34 1270.15 1529.63 Q1270.15 1530.88 1269.34 1532.91 Q1267.99 1536.58 1267.38 1538.35 Q1266.77 1540.13 1266.12 1542.64 Q1265.51 1545.15 1265.51 1546.89 Q1265.51 1549.53 1266.73 1551.08 Q1267.96 1552.62 1270.41 1552.62 Q1272.6 1552.62 1274.56 1551.04 Q1276.56 1549.43 1277.88 1547.15 Q1279.2 1544.83 1280.2 1542.25 Q1281.19 1539.64 1281.64 1537.68 Q1282.13 1535.68 1282.13 1534.75 Q1282.13 1531.49 1279.91 1529.37 Q1279.29 1528.76 1279.07 1528.37 Q1278.84 1527.98 1278.84 1527.37 Q1278.84 1526.24 1279.84 1525.25 Q1280.87 1524.22 1282.06 1524.22 Q1283.16 1524.22 1284.06 1525.31 Q1284.96 1526.41 1284.96 1528.82 Z" fill="#000000" fill-rule="evenodd" fill-opacity="1" /><path clip-path="url(#clip370)" d="M1317.52 1543.93 Q1316.65 1548.08 1315.52 1550.46 Q1313.72 1554.1 1310.66 1554.1 Q1308.34 1554.1 1306.7 1552.69 Q1305.05 1551.27 1304.67 1549.14 Q1300.45 1554.1 1296.07 1554.1 Q1292.2 1554.1 1289.76 1551.17 Q1287.31 1548.21 1287.31 1543.54 Q1287.31 1538.84 1289.63 1534.33 Q1291.98 1529.82 1295.68 1527.02 Q1299.39 1524.22 1303.19 1524.22 Q1307.21 1524.22 1309.27 1528.43 Q1309.43 1527.28 1310.18 1526.41 Q1310.92 1525.54 1312.04 1525.54 Q1312.91 1525.54 1313.43 1526.02 Q1313.94 1526.47 1313.94 1527.31 Q1313.94 1527.73 1313.49 1529.56 L1311.11 1538.77 L1309.66 1544.73 Q1309.11 1546.92 1308.95 1547.73 Q1308.82 1548.53 1308.82 1549.59 Q1308.82 1552.62 1310.79 1552.62 Q1311.75 1552.62 1312.53 1552.01 Q1313.3 1551.4 1313.91 1550.11 Q1314.52 1548.82 1314.91 1547.63 Q1315.3 1546.41 1315.81 1544.47 Q1315.97 1543.7 1316.1 1543.51 Q1316.26 1543.28 1316.71 1543.28 Q1317.52 1543.28 1317.52 1543.93 M1308.47 1531.46 Q1308.47 1531.17 1308.24 1530.37 Q1308.02 1529.56 1307.5 1528.43 Q1306.99 1527.31 1305.86 1526.5 Q1304.76 1525.66 1303.28 1525.66 Q1301.29 1525.66 1299.19 1527.37 Q1297.13 1529.08 1295.62 1531.98 Q1294.46 1534.3 1293.2 1539.16 Q1291.98 1544.02 1291.98 1546.44 Q1291.98 1547.92 1292.3 1549.24 Q1292.66 1550.53 1293.65 1551.59 Q1294.65 1552.62 1296.2 1552.62 Q1299.97 1552.62 1303.67 1547.95 Q1304.38 1547.15 1304.54 1546.82 Q1304.73 1546.47 1304.99 1545.5 L1308.28 1532.59 Q1308.47 1531.62 1308.47 1531.46 Z" fill="#000000" fill-rule="evenodd" fill-opacity="1" /><path clip-path="url(#clip370)" d="M1348.72 1528.5 Q1348.72 1530.21 1347.59 1531.3 Q1346.49 1532.4 1345.08 1532.4 Q1343.85 1532.4 1343.21 1531.69 Q1342.56 1530.98 1342.56 1530.08 Q1342.56 1528.79 1343.56 1527.73 Q1344.56 1526.66 1346.01 1526.44 Q1344.95 1525.66 1343.24 1525.66 Q1340.44 1525.66 1337.96 1527.82 Q1336.86 1528.82 1335.67 1530.66 Q1334.48 1532.46 1334.25 1533.23 L1332.16 1541.83 Q1331.97 1542.8 1330.78 1547.44 Q1329.62 1552.04 1329.52 1552.23 Q1329.2 1553.14 1328.49 1553.62 Q1327.78 1554.1 1327.07 1554.1 Q1326.27 1554.1 1325.72 1553.62 Q1325.17 1553.14 1325.17 1552.3 Q1325.17 1552.17 1325.27 1551.69 Q1325.37 1551.2 1325.53 1550.53 Q1325.69 1549.85 1325.75 1549.46 L1329.58 1534.23 Q1330.29 1531.46 1330.45 1530.59 Q1330.65 1529.69 1330.65 1528.69 Q1330.65 1526.95 1330.1 1526.31 Q1329.55 1525.66 1328.59 1525.66 Q1326.91 1525.66 1325.82 1527.66 Q1324.72 1529.66 1323.79 1533.52 Q1323.5 1534.59 1323.3 1534.81 Q1323.14 1535.04 1322.66 1535.04 Q1321.86 1535 1321.86 1534.36 Q1321.86 1534.2 1322.11 1533.17 Q1322.37 1532.11 1322.85 1530.56 Q1323.37 1528.98 1323.92 1527.98 Q1324.24 1527.31 1324.53 1526.86 Q1324.82 1526.41 1325.4 1525.7 Q1325.98 1524.99 1326.85 1524.6 Q1327.72 1524.22 1328.78 1524.22 Q1331.1 1524.22 1332.74 1525.63 Q1334.42 1527.05 1334.8 1529.27 Q1335.61 1528.11 1336.61 1527.11 Q1337.6 1526.08 1339.44 1525.15 Q1341.28 1524.22 1343.24 1524.22 Q1345.69 1524.22 1347.2 1525.47 Q1348.72 1526.7 1348.72 1528.5 Z" fill="#000000" fill-rule="evenodd" fill-opacity="1" /><path clip-path="url(#clip370)" d="M1379.61 1552.46 Q1379.61 1555.75 1377.94 1558.93 Q1376.3 1562.11 1373.7 1564.07 Q1371.11 1566.01 1368.47 1566.01 Q1366.9 1566.01 1365.84 1565.15 Q1364.8 1564.27 1364.24 1563.03 Q1363.81 1564.57 1362.88 1568.24 Q1361.96 1571.91 1361.96 1572.28 Q1361.96 1572.48 1362 1572.57 Q1362.05 1572.66 1362.25 1572.77 Q1362.46 1572.91 1362.95 1572.95 Q1363.45 1573.02 1364.28 1573.02 Q1364.71 1573.02 1364.87 1573.02 Q1365.05 1573.04 1365.21 1573.15 Q1365.39 1573.27 1365.39 1573.52 Q1365.39 1574.44 1364.55 1574.44 Q1363.81 1574.44 1362.27 1574.37 Q1360.74 1574.3 1359.98 1574.3 Q1359.32 1574.3 1358.01 1574.37 Q1356.71 1574.44 1356.1 1574.44 Q1355.49 1574.44 1355.49 1573.9 Q1355.49 1573.58 1355.58 1573.38 Q1355.65 1573.2 1355.83 1573.11 Q1356.01 1573.04 1356.17 1573.02 Q1356.3 1573.02 1356.57 1573.02 Q1357.61 1573.02 1358.06 1572.84 Q1358.51 1572.68 1358.67 1572.34 Q1358.85 1572.03 1359.05 1571.13 L1364.24 1550.57 Q1364.55 1549.19 1364.55 1548.22 Q1364.55 1547 1364.17 1546.55 Q1363.79 1546.1 1363.11 1546.1 Q1361.94 1546.1 1361.17 1547.5 Q1360.4 1548.9 1359.75 1551.6 Q1359.55 1552.35 1359.41 1552.5 Q1359.3 1552.66 1358.96 1552.66 Q1358.4 1552.64 1358.4 1552.19 Q1358.4 1552.08 1358.58 1551.35 Q1358.76 1550.61 1359.1 1549.53 Q1359.46 1548.42 1359.84 1547.72 Q1360.07 1547.25 1360.27 1546.94 Q1360.47 1546.62 1360.88 1546.12 Q1361.31 1545.63 1361.91 1545.36 Q1362.52 1545.09 1363.27 1545.09 Q1364.71 1545.09 1365.9 1545.94 Q1367.1 1546.8 1367.41 1548.54 Q1368.7 1547.03 1370.28 1546.06 Q1371.86 1545.09 1373.46 1545.09 Q1376.12 1545.09 1377.85 1547.16 Q1379.61 1549.21 1379.61 1552.46 M1376.27 1550.43 Q1376.27 1548.38 1375.49 1547.25 Q1374.72 1546.1 1373.32 1546.1 Q1371.59 1546.1 1369.58 1547.86 Q1367.6 1549.53 1367.19 1551.08 L1364.91 1560.12 L1364.78 1560.87 Q1364.78 1561 1364.84 1561.41 Q1364.94 1561.79 1365.18 1562.42 Q1365.45 1563.05 1365.81 1563.62 Q1366.2 1564.16 1366.87 1564.57 Q1367.57 1564.97 1368.43 1564.97 Q1369.8 1564.97 1371.29 1563.75 Q1372.8 1562.54 1373.93 1560.24 Q1374.63 1558.75 1375.44 1555.55 Q1376.27 1552.32 1376.27 1550.43 Z" fill="#000000" fill-rule="evenodd" fill-opacity="1" /><polyline clip-path="url(#clip372)" style="stroke:#000000; stroke-linecap:butt; stroke-linejoin:round; stroke-width:2; stroke-opacity:0.1; fill:none" points="
  235.283,1386.52 2352.76,1386.52 
  "/>
<polyline clip-path="url(#clip372)" style="stroke:#000000; stroke-linecap:butt; stroke-linejoin:round; stroke-width:2; stroke-opacity:0.1; fill:none" points="
  235.283,1193.32 2352.76,1193.32 
  "/>
<polyline clip-path="url(#clip372)" style="stroke:#000000; stroke-linecap:butt; stroke-linejoin:round; stroke-width:2; stroke-opacity:0.1; fill:none" points="
  235.283,1000.11 2352.76,1000.11 
  "/>
<polyline clip-path="url(#clip372)" style="stroke:#000000; stroke-linecap:butt; stroke-linejoin:round; stroke-width:2; stroke-opacity:0.1; fill:none" points="
  235.283,806.908 2352.76,806.908 
  "/>
<polyline clip-path="url(#clip372)" style="stroke:#000000; stroke-linecap:butt; stroke-linejoin:round; stroke-width:2; stroke-opacity:0.1; fill:none" points="
  235.283,613.702 2352.76,613.702 
  "/>
<polyline clip-path="url(#clip372)" style="stroke:#000000; stroke-linecap:butt; stroke-linejoin:round; stroke-width:2; stroke-opacity:0.1; fill:none" points="
  235.283,420.497 2352.76,420.497 
  "/>
<polyline clip-path="url(#clip372)" style="stroke:#000000; stroke-linecap:butt; stroke-linejoin:round; stroke-width:2; stroke-opacity:0.1; fill:none" points="
  235.283,227.292 2352.76,227.292 
  "/>
<polyline clip-path="url(#clip370)" style="stroke:#000000; stroke-linecap:butt; stroke-linejoin:round; stroke-width:4; stroke-opacity:1; fill:none" points="
  235.283,1425.53 235.283,47.2441 
  "/>
<polyline clip-path="url(#clip370)" style="stroke:#000000; stroke-linecap:butt; stroke-linejoin:round; stroke-width:4; stroke-opacity:1; fill:none" points="
  235.283,1386.52 260.693,1386.52 
  "/>
<polyline clip-path="url(#clip370)" style="stroke:#000000; stroke-linecap:butt; stroke-linejoin:round; stroke-width:4; stroke-opacity:1; fill:none" points="
  235.283,1193.32 260.693,1193.32 
  "/>
<polyline clip-path="url(#clip370)" style="stroke:#000000; stroke-linecap:butt; stroke-linejoin:round; stroke-width:4; stroke-opacity:1; fill:none" points="
  235.283,1000.11 260.693,1000.11 
  "/>
<polyline clip-path="url(#clip370)" style="stroke:#000000; stroke-linecap:butt; stroke-linejoin:round; stroke-width:4; stroke-opacity:1; fill:none" points="
  235.283,806.908 260.693,806.908 
  "/>
<polyline clip-path="url(#clip370)" style="stroke:#000000; stroke-linecap:butt; stroke-linejoin:round; stroke-width:4; stroke-opacity:1; fill:none" points="
  235.283,613.702 260.693,613.702 
  "/>
<polyline clip-path="url(#clip370)" style="stroke:#000000; stroke-linecap:butt; stroke-linejoin:round; stroke-width:4; stroke-opacity:1; fill:none" points="
  235.283,420.497 260.693,420.497 
  "/>
<polyline clip-path="url(#clip370)" style="stroke:#000000; stroke-linecap:butt; stroke-linejoin:round; stroke-width:4; stroke-opacity:1; fill:none" points="
  235.283,227.292 260.693,227.292 
  "/>
<path clip-path="url(#clip370)" d="M187.338 1372.32 Q183.727 1372.32 181.899 1375.89 Q180.093 1379.43 180.093 1386.56 Q180.093 1393.66 181.899 1397.23 Q183.727 1400.77 187.338 1400.77 Q190.973 1400.77 192.778 1397.23 Q194.607 1393.66 194.607 1386.56 Q194.607 1379.43 192.778 1375.89 Q190.973 1372.32 187.338 1372.32 M187.338 1368.62 Q193.149 1368.62 196.204 1373.22 Q199.283 1377.81 199.283 1386.56 Q199.283 1395.28 196.204 1399.89 Q193.149 1404.47 187.338 1404.47 Q181.528 1404.47 178.45 1399.89 Q175.394 1395.28 175.394 1386.56 Q175.394 1377.81 178.45 1373.22 Q181.528 1368.62 187.338 1368.62 Z" fill="#000000" fill-rule="evenodd" fill-opacity="1" /><path clip-path="url(#clip370)" d="M117.825 1206.66 L125.464 1206.66 L125.464 1180.3 L117.154 1181.96 L117.154 1177.7 L125.418 1176.04 L130.093 1176.04 L130.093 1206.66 L137.732 1206.66 L137.732 1210.6 L117.825 1210.6 L117.825 1206.66 Z" fill="#000000" fill-rule="evenodd" fill-opacity="1" /><path clip-path="url(#clip370)" d="M157.177 1179.12 Q153.566 1179.12 151.737 1182.68 Q149.931 1186.22 149.931 1193.35 Q149.931 1200.46 151.737 1204.02 Q153.566 1207.57 157.177 1207.57 Q160.811 1207.57 162.616 1204.02 Q164.445 1200.46 164.445 1193.35 Q164.445 1186.22 162.616 1182.68 Q160.811 1179.12 157.177 1179.12 M157.177 1175.41 Q162.987 1175.41 166.042 1180.02 Q169.121 1184.6 169.121 1193.35 Q169.121 1202.08 166.042 1206.69 Q162.987 1211.27 157.177 1211.27 Q151.366 1211.27 148.288 1206.69 Q145.232 1202.08 145.232 1193.35 Q145.232 1184.6 148.288 1180.02 Q151.366 1175.41 157.177 1175.41 Z" fill="#000000" fill-rule="evenodd" fill-opacity="1" /><path clip-path="url(#clip370)" d="M187.338 1179.12 Q183.727 1179.12 181.899 1182.68 Q180.093 1186.22 180.093 1193.35 Q180.093 1200.46 181.899 1204.02 Q183.727 1207.57 187.338 1207.57 Q190.973 1207.57 192.778 1204.02 Q194.607 1200.46 194.607 1193.35 Q194.607 1186.22 192.778 1182.68 Q190.973 1179.12 187.338 1179.12 M187.338 1175.41 Q193.149 1175.41 196.204 1180.02 Q199.283 1184.6 199.283 1193.35 Q199.283 1202.08 196.204 1206.69 Q193.149 1211.27 187.338 1211.27 Q181.528 1211.27 178.45 1206.69 Q175.394 1202.08 175.394 1193.35 Q175.394 1184.6 178.45 1180.02 Q181.528 1175.41 187.338 1175.41 Z" fill="#000000" fill-rule="evenodd" fill-opacity="1" /><path clip-path="url(#clip370)" d="M121.043 1013.46 L137.362 1013.46 L137.362 1017.39 L115.418 1017.39 L115.418 1013.46 Q118.08 1010.7 122.663 1006.07 Q127.269 1001.42 128.45 1000.08 Q130.695 997.555 131.575 995.819 Q132.478 994.06 132.478 992.37 Q132.478 989.615 130.533 987.879 Q128.612 986.143 125.51 986.143 Q123.311 986.143 120.857 986.907 Q118.427 987.671 115.649 989.222 L115.649 984.5 Q118.473 983.365 120.927 982.787 Q123.38 982.208 125.418 982.208 Q130.788 982.208 133.982 984.893 Q137.177 987.578 137.177 992.069 Q137.177 994.199 136.367 996.12 Q135.579 998.018 133.473 1000.61 Q132.894 1001.28 129.792 1004.5 Q126.691 1007.69 121.043 1013.46 Z" fill="#000000" fill-rule="evenodd" fill-opacity="1" /><path clip-path="url(#clip370)" d="M157.177 985.912 Q153.566 985.912 151.737 989.476 Q149.931 993.018 149.931 1000.15 Q149.931 1007.25 151.737 1010.82 Q153.566 1014.36 157.177 1014.36 Q160.811 1014.36 162.616 1010.82 Q164.445 1007.25 164.445 1000.15 Q164.445 993.018 162.616 989.476 Q160.811 985.912 157.177 985.912 M157.177 982.208 Q162.987 982.208 166.042 986.814 Q169.121 991.398 169.121 1000.15 Q169.121 1008.87 166.042 1013.48 Q162.987 1018.06 157.177 1018.06 Q151.366 1018.06 148.288 1013.48 Q145.232 1008.87 145.232 1000.15 Q145.232 991.398 148.288 986.814 Q151.366 982.208 157.177 982.208 Z" fill="#000000" fill-rule="evenodd" fill-opacity="1" /><path clip-path="url(#clip370)" d="M187.338 985.912 Q183.727 985.912 181.899 989.476 Q180.093 993.018 180.093 1000.15 Q180.093 1007.25 181.899 1010.82 Q183.727 1014.36 187.338 1014.36 Q190.973 1014.36 192.778 1010.82 Q194.607 1007.25 194.607 1000.15 Q194.607 993.018 192.778 989.476 Q190.973 985.912 187.338 985.912 M187.338 982.208 Q193.149 982.208 196.204 986.814 Q199.283 991.398 199.283 1000.15 Q199.283 1008.87 196.204 1013.48 Q193.149 1018.06 187.338 1018.06 Q181.528 1018.06 178.45 1013.48 Q175.394 1008.87 175.394 1000.15 Q175.394 991.398 178.45 986.814 Q181.528 982.208 187.338 982.208 Z" fill="#000000" fill-rule="evenodd" fill-opacity="1" /><path clip-path="url(#clip370)" d="M131.181 805.554 Q134.538 806.271 136.413 808.54 Q138.311 810.808 138.311 814.141 Q138.311 819.257 134.792 822.058 Q131.274 824.859 124.793 824.859 Q122.617 824.859 120.302 824.419 Q118.01 824.003 115.556 823.146 L115.556 818.632 Q117.501 819.766 119.816 820.345 Q122.13 820.924 124.654 820.924 Q129.052 820.924 131.343 819.188 Q133.658 817.452 133.658 814.141 Q133.658 811.086 131.505 809.373 Q129.376 807.637 125.556 807.637 L121.529 807.637 L121.529 803.794 L125.742 803.794 Q129.191 803.794 131.019 802.429 Q132.848 801.04 132.848 798.447 Q132.848 795.785 130.95 794.373 Q129.075 792.938 125.556 792.938 Q123.635 792.938 121.436 793.355 Q119.237 793.771 116.598 794.651 L116.598 790.484 Q119.26 789.743 121.575 789.373 Q123.913 789.003 125.973 789.003 Q131.297 789.003 134.399 791.433 Q137.501 793.841 137.501 797.961 Q137.501 800.831 135.857 802.822 Q134.214 804.79 131.181 805.554 Z" fill="#000000" fill-rule="evenodd" fill-opacity="1" /><path clip-path="url(#clip370)" d="M157.177 792.706 Q153.566 792.706 151.737 796.271 Q149.931 799.813 149.931 806.942 Q149.931 814.049 151.737 817.614 Q153.566 821.155 157.177 821.155 Q160.811 821.155 162.616 817.614 Q164.445 814.049 164.445 806.942 Q164.445 799.813 162.616 796.271 Q160.811 792.706 157.177 792.706 M157.177 789.003 Q162.987 789.003 166.042 793.609 Q169.121 798.192 169.121 806.942 Q169.121 815.669 166.042 820.276 Q162.987 824.859 157.177 824.859 Q151.366 824.859 148.288 820.276 Q145.232 815.669 145.232 806.942 Q145.232 798.192 148.288 793.609 Q151.366 789.003 157.177 789.003 Z" fill="#000000" fill-rule="evenodd" fill-opacity="1" /><path clip-path="url(#clip370)" d="M187.338 792.706 Q183.727 792.706 181.899 796.271 Q180.093 799.813 180.093 806.942 Q180.093 814.049 181.899 817.614 Q183.727 821.155 187.338 821.155 Q190.973 821.155 192.778 817.614 Q194.607 814.049 194.607 806.942 Q194.607 799.813 192.778 796.271 Q190.973 792.706 187.338 792.706 M187.338 789.003 Q193.149 789.003 196.204 793.609 Q199.283 798.192 199.283 806.942 Q199.283 815.669 196.204 820.276 Q193.149 824.859 187.338 824.859 Q181.528 824.859 178.45 820.276 Q175.394 815.669 175.394 806.942 Q175.394 798.192 178.45 793.609 Q181.528 789.003 187.338 789.003 Z" fill="#000000" fill-rule="evenodd" fill-opacity="1" /><path clip-path="url(#clip370)" d="M129.862 600.497 L118.056 618.946 L129.862 618.946 L129.862 600.497 M128.635 596.422 L134.515 596.422 L134.515 618.946 L139.445 618.946 L139.445 622.834 L134.515 622.834 L134.515 630.982 L129.862 630.982 L129.862 622.834 L114.26 622.834 L114.26 618.321 L128.635 596.422 Z" fill="#000000" fill-rule="evenodd" fill-opacity="1" /><path clip-path="url(#clip370)" d="M157.177 599.501 Q153.566 599.501 151.737 603.066 Q149.931 606.608 149.931 613.737 Q149.931 620.844 151.737 624.408 Q153.566 627.95 157.177 627.95 Q160.811 627.95 162.616 624.408 Q164.445 620.844 164.445 613.737 Q164.445 606.608 162.616 603.066 Q160.811 599.501 157.177 599.501 M157.177 595.797 Q162.987 595.797 166.042 600.404 Q169.121 604.987 169.121 613.737 Q169.121 622.464 166.042 627.07 Q162.987 631.654 157.177 631.654 Q151.366 631.654 148.288 627.07 Q145.232 622.464 145.232 613.737 Q145.232 604.987 148.288 600.404 Q151.366 595.797 157.177 595.797 Z" fill="#000000" fill-rule="evenodd" fill-opacity="1" /><path clip-path="url(#clip370)" d="M187.338 599.501 Q183.727 599.501 181.899 603.066 Q180.093 606.608 180.093 613.737 Q180.093 620.844 181.899 624.408 Q183.727 627.95 187.338 627.95 Q190.973 627.95 192.778 624.408 Q194.607 620.844 194.607 613.737 Q194.607 606.608 192.778 603.066 Q190.973 599.501 187.338 599.501 M187.338 595.797 Q193.149 595.797 196.204 600.404 Q199.283 604.987 199.283 613.737 Q199.283 622.464 196.204 627.07 Q193.149 631.654 187.338 631.654 Q181.528 631.654 178.45 627.07 Q175.394 622.464 175.394 613.737 Q175.394 604.987 178.45 600.404 Q181.528 595.797 187.338 595.797 Z" fill="#000000" fill-rule="evenodd" fill-opacity="1" /><path clip-path="url(#clip370)" d="M117.061 403.217 L135.417 403.217 L135.417 407.152 L121.343 407.152 L121.343 415.625 Q122.362 415.277 123.38 415.115 Q124.399 414.93 125.418 414.93 Q131.205 414.93 134.584 418.101 Q137.964 421.273 137.964 426.689 Q137.964 432.268 134.492 435.37 Q131.019 438.449 124.7 438.449 Q122.524 438.449 120.255 438.078 Q118.01 437.708 115.603 436.967 L115.603 432.268 Q117.686 433.402 119.908 433.958 Q122.13 434.513 124.607 434.513 Q128.612 434.513 130.95 432.407 Q133.288 430.3 133.288 426.689 Q133.288 423.078 130.95 420.972 Q128.612 418.865 124.607 418.865 Q122.732 418.865 120.857 419.282 Q119.006 419.699 117.061 420.578 L117.061 403.217 Z" fill="#000000" fill-rule="evenodd" fill-opacity="1" /><path clip-path="url(#clip370)" d="M157.177 406.296 Q153.566 406.296 151.737 409.861 Q149.931 413.402 149.931 420.532 Q149.931 427.638 151.737 431.203 Q153.566 434.745 157.177 434.745 Q160.811 434.745 162.616 431.203 Q164.445 427.638 164.445 420.532 Q164.445 413.402 162.616 409.861 Q160.811 406.296 157.177 406.296 M157.177 402.592 Q162.987 402.592 166.042 407.199 Q169.121 411.782 169.121 420.532 Q169.121 429.259 166.042 433.865 Q162.987 438.449 157.177 438.449 Q151.366 438.449 148.288 433.865 Q145.232 429.259 145.232 420.532 Q145.232 411.782 148.288 407.199 Q151.366 402.592 157.177 402.592 Z" fill="#000000" fill-rule="evenodd" fill-opacity="1" /><path clip-path="url(#clip370)" d="M187.338 406.296 Q183.727 406.296 181.899 409.861 Q180.093 413.402 180.093 420.532 Q180.093 427.638 181.899 431.203 Q183.727 434.745 187.338 434.745 Q190.973 434.745 192.778 431.203 Q194.607 427.638 194.607 420.532 Q194.607 413.402 192.778 409.861 Q190.973 406.296 187.338 406.296 M187.338 402.592 Q193.149 402.592 196.204 407.199 Q199.283 411.782 199.283 420.532 Q199.283 429.259 196.204 433.865 Q193.149 438.449 187.338 438.449 Q181.528 438.449 178.45 433.865 Q175.394 429.259 175.394 420.532 Q175.394 411.782 178.45 407.199 Q181.528 402.592 187.338 402.592 Z" fill="#000000" fill-rule="evenodd" fill-opacity="1" /><path clip-path="url(#clip370)" d="M127.593 225.429 Q124.445 225.429 122.593 227.581 Q120.765 229.734 120.765 233.484 Q120.765 237.211 122.593 239.387 Q124.445 241.54 127.593 241.54 Q130.742 241.54 132.57 239.387 Q134.422 237.211 134.422 233.484 Q134.422 229.734 132.57 227.581 Q130.742 225.429 127.593 225.429 M136.876 210.776 L136.876 215.035 Q135.117 214.202 133.311 213.762 Q131.529 213.322 129.769 213.322 Q125.14 213.322 122.686 216.447 Q120.255 219.572 119.908 225.892 Q121.274 223.878 123.334 222.813 Q125.394 221.725 127.871 221.725 Q133.08 221.725 136.089 224.896 Q139.121 228.044 139.121 233.484 Q139.121 238.808 135.973 242.026 Q132.825 245.243 127.593 245.243 Q121.598 245.243 118.427 240.66 Q115.256 236.054 115.256 227.327 Q115.256 219.132 119.144 214.271 Q123.033 209.387 129.584 209.387 Q131.343 209.387 133.126 209.734 Q134.931 210.081 136.876 210.776 Z" fill="#000000" fill-rule="evenodd" fill-opacity="1" /><path clip-path="url(#clip370)" d="M157.177 213.091 Q153.566 213.091 151.737 216.656 Q149.931 220.197 149.931 227.327 Q149.931 234.433 151.737 237.998 Q153.566 241.54 157.177 241.54 Q160.811 241.54 162.616 237.998 Q164.445 234.433 164.445 227.327 Q164.445 220.197 162.616 216.656 Q160.811 213.091 157.177 213.091 M157.177 209.387 Q162.987 209.387 166.042 213.994 Q169.121 218.577 169.121 227.327 Q169.121 236.054 166.042 240.66 Q162.987 245.243 157.177 245.243 Q151.366 245.243 148.288 240.66 Q145.232 236.054 145.232 227.327 Q145.232 218.577 148.288 213.994 Q151.366 209.387 157.177 209.387 Z" fill="#000000" fill-rule="evenodd" fill-opacity="1" /><path clip-path="url(#clip370)" d="M187.338 213.091 Q183.727 213.091 181.899 216.656 Q180.093 220.197 180.093 227.327 Q180.093 234.433 181.899 237.998 Q183.727 241.54 187.338 241.54 Q190.973 241.54 192.778 237.998 Q194.607 234.433 194.607 227.327 Q194.607 220.197 192.778 216.656 Q190.973 213.091 187.338 213.091 M187.338 209.387 Q193.149 209.387 196.204 213.994 Q199.283 218.577 199.283 227.327 Q199.283 236.054 196.204 240.66 Q193.149 245.243 187.338 245.243 Q181.528 245.243 178.45 240.66 Q175.394 236.054 175.394 227.327 Q175.394 218.577 178.45 213.994 Q181.528 209.387 187.338 209.387 Z" fill="#000000" fill-rule="evenodd" fill-opacity="1" /><path clip-path="url(#clip370)" d="M29.7248 797.562 L35.1993 797.562 Q33.8307 800.045 33.1623 802.559 Q32.4621 805.042 32.4621 807.588 Q32.4621 813.286 36.0905 816.437 Q39.6872 819.588 46.212 819.588 Q52.7369 819.588 56.3653 816.437 Q59.9619 813.286 59.9619 807.588 Q59.9619 805.042 59.2935 802.559 Q58.5933 800.045 57.2247 797.562 L62.6355 797.562 Q63.7814 800.013 64.3543 802.655 Q64.9272 805.265 64.9272 808.225 Q64.9272 816.277 59.8664 821.02 Q54.8057 825.762 46.212 825.762 Q37.491 825.762 32.4939 820.988 Q27.4968 816.182 27.4968 807.843 Q27.4968 805.137 28.0697 802.559 Q28.6108 799.981 29.7248 797.562 Z" fill="#000000" fill-rule="evenodd" fill-opacity="1" /><path clip-path="url(#clip370)" d="M32.4621 773.564 Q32.4621 778.274 36.1542 781.011 Q39.8145 783.749 46.212 783.749 Q52.6095 783.749 56.3017 781.043 Q59.9619 778.306 59.9619 773.564 Q59.9619 768.885 56.2698 766.147 Q52.5777 763.41 46.212 763.41 Q39.8781 763.41 36.186 766.147 Q32.4621 768.885 32.4621 773.564 M27.4968 773.564 Q27.4968 765.925 32.4621 761.564 Q37.4273 757.204 46.212 757.204 Q54.9649 757.204 59.9619 761.564 Q64.9272 765.925 64.9272 773.564 Q64.9272 781.234 59.9619 785.595 Q54.9649 789.923 46.212 789.923 Q37.4273 789.923 32.4621 785.595 Q27.4968 781.234 27.4968 773.564 Z" fill="#000000" fill-rule="evenodd" fill-opacity="1" /><path clip-path="url(#clip370)" d="M49.9359 748.101 L28.3562 748.101 L28.3562 742.244 L49.7131 742.244 Q54.7739 742.244 57.3202 740.271 Q59.8346 738.298 59.8346 734.351 Q59.8346 729.608 56.8109 726.871 Q53.7872 724.102 48.5673 724.102 L28.3562 724.102 L28.3562 718.246 L64.0042 718.246 L64.0042 724.102 L58.5296 724.102 Q61.7762 726.234 63.3676 729.067 Q64.9272 731.868 64.9272 735.592 Q64.9272 741.735 61.1078 744.918 Q57.2883 748.101 49.9359 748.101 M27.4968 733.364 L27.4968 733.364 Z" fill="#000000" fill-rule="evenodd" fill-opacity="1" /><path clip-path="url(#clip370)" d="M42.4881 676.55 L64.0042 676.55 L64.0042 682.407 L42.679 682.407 Q37.6183 682.407 35.1038 684.38 Q32.5894 686.353 32.5894 690.3 Q32.5894 695.043 35.6131 697.78 Q38.6368 700.517 43.8567 700.517 L64.0042 700.517 L64.0042 706.405 L28.3562 706.405 L28.3562 700.517 L33.8944 700.517 Q30.6797 698.416 29.0883 695.584 Q27.4968 692.719 27.4968 688.995 Q27.4968 682.852 31.3163 679.701 Q35.1038 676.55 42.4881 676.55 Z" fill="#000000" fill-rule="evenodd" fill-opacity="1" /><path clip-path="url(#clip370)" d="M18.2347 659.076 L28.3562 659.076 L28.3562 647.013 L32.9077 647.013 L32.9077 659.076 L52.2594 659.076 Q56.6199 659.076 57.8613 657.899 Q59.1026 656.689 59.1026 653.029 L59.1026 647.013 L64.0042 647.013 L64.0042 653.029 Q64.0042 659.808 61.4897 662.386 Q58.9434 664.965 52.2594 664.965 L32.9077 664.965 L32.9077 669.261 L28.3562 669.261 L28.3562 664.965 L18.2347 664.965 L18.2347 659.076 Z" fill="#000000" fill-rule="evenodd" fill-opacity="1" /><path clip-path="url(#clip372)" d="
M351.748 1384.59 L351.748 1386.52 L401.341 1386.52 L401.341 1384.59 L351.748 1384.59 L351.748 1384.59  Z
  " fill="#009af9" fill-rule="evenodd" fill-opacity="1"/>
<polyline clip-path="url(#clip372)" style="stroke:#009af9; stroke-linecap:butt; stroke-linejoin:round; stroke-width:4; stroke-opacity:1; fill:none" points="
  351.748,1384.59 351.748,1386.52 401.341,1386.52 401.341,1384.59 351.748,1384.59 
  "/>
<path clip-path="url(#clip372)" d="
M401.341 1384.59 L401.341 1386.52 L450.934 1386.52 L450.934 1384.59 L401.341 1384.59 L401.341 1384.59  Z
  " fill="#009af9" fill-rule="evenodd" fill-opacity="1"/>
<polyline clip-path="url(#clip372)" style="stroke:#009af9; stroke-linecap:butt; stroke-linejoin:round; stroke-width:4; stroke-opacity:1; fill:none" points="
  401.341,1384.59 401.341,1386.52 450.934,1386.52 450.934,1384.59 401.341,1384.59 
  "/>
<path clip-path="url(#clip372)" d="
M450.934 1384.59 L450.934 1386.52 L500.527 1386.52 L500.527 1384.59 L450.934 1384.59 L450.934 1384.59  Z
  " fill="#009af9" fill-rule="evenodd" fill-opacity="1"/>
<polyline clip-path="url(#clip372)" style="stroke:#009af9; stroke-linecap:butt; stroke-linejoin:round; stroke-width:4; stroke-opacity:1; fill:none" points="
  450.934,1384.59 450.934,1386.52 500.527,1386.52 500.527,1384.59 450.934,1384.59 
  "/>
<path clip-path="url(#clip372)" d="
M500.527 1384.59 L500.527 1386.52 L550.121 1386.52 L550.121 1384.59 L500.527 1384.59 L500.527 1384.59  Z
  " fill="#009af9" fill-rule="evenodd" fill-opacity="1"/>
<polyline clip-path="url(#clip372)" style="stroke:#009af9; stroke-linecap:butt; stroke-linejoin:round; stroke-width:4; stroke-opacity:1; fill:none" points="
  500.527,1384.59 500.527,1386.52 550.121,1386.52 550.121,1384.59 500.527,1384.59 
  "/>
<path clip-path="url(#clip372)" d="
M550.121 1386.52 L550.121 1386.52 L599.714 1386.52 L599.714 1386.52 L550.121 1386.52 L550.121 1386.52  Z
  " fill="#009af9" fill-rule="evenodd" fill-opacity="1"/>
<polyline clip-path="url(#clip372)" style="stroke:#009af9; stroke-linecap:butt; stroke-linejoin:round; stroke-width:4; stroke-opacity:1; fill:none" points="
  550.121,1386.52 550.121,1386.52 599.714,1386.52 550.121,1386.52 
  "/>
<path clip-path="url(#clip372)" d="
M599.714 1384.59 L599.714 1386.52 L649.307 1386.52 L649.307 1384.59 L599.714 1384.59 L599.714 1384.59  Z
  " fill="#009af9" fill-rule="evenodd" fill-opacity="1"/>
<polyline clip-path="url(#clip372)" style="stroke:#009af9; stroke-linecap:butt; stroke-linejoin:round; stroke-width:4; stroke-opacity:1; fill:none" points="
  599.714,1384.59 599.714,1386.52 649.307,1386.52 649.307,1384.59 599.714,1384.59 
  "/>
<path clip-path="url(#clip372)" d="
M649.307 1386.52 L649.307 1386.52 L698.9 1386.52 L698.9 1386.52 L649.307 1386.52 L649.307 1386.52  Z
  " fill="#009af9" fill-rule="evenodd" fill-opacity="1"/>
<polyline clip-path="url(#clip372)" style="stroke:#009af9; stroke-linecap:butt; stroke-linejoin:round; stroke-width:4; stroke-opacity:1; fill:none" points="
  649.307,1386.52 649.307,1386.52 698.9,1386.52 649.307,1386.52 
  "/>
<path clip-path="url(#clip372)" d="
M698.9 1386.52 L698.9 1386.52 L748.494 1386.52 L748.494 1386.52 L698.9 1386.52 L698.9 1386.52  Z
  " fill="#009af9" fill-rule="evenodd" fill-opacity="1"/>
<polyline clip-path="url(#clip372)" style="stroke:#009af9; stroke-linecap:butt; stroke-linejoin:round; stroke-width:4; stroke-opacity:1; fill:none" points="
  698.9,1386.52 698.9,1386.52 748.494,1386.52 698.9,1386.52 
  "/>
<path clip-path="url(#clip372)" d="
M748.494 1380.73 L748.494 1386.52 L798.087 1386.52 L798.087 1380.73 L748.494 1380.73 L748.494 1380.73  Z
  " fill="#009af9" fill-rule="evenodd" fill-opacity="1"/>
<polyline clip-path="url(#clip372)" style="stroke:#009af9; stroke-linecap:butt; stroke-linejoin:round; stroke-width:4; stroke-opacity:1; fill:none" points="
  748.494,1380.73 748.494,1386.52 798.087,1386.52 798.087,1380.73 748.494,1380.73 
  "/>
<path clip-path="url(#clip372)" d="
M798.087 1386.52 L798.087 1386.52 L847.68 1386.52 L847.68 1386.52 L798.087 1386.52 L798.087 1386.52  Z
  " fill="#009af9" fill-rule="evenodd" fill-opacity="1"/>
<polyline clip-path="url(#clip372)" style="stroke:#009af9; stroke-linecap:butt; stroke-linejoin:round; stroke-width:4; stroke-opacity:1; fill:none" points="
  798.087,1386.52 798.087,1386.52 847.68,1386.52 798.087,1386.52 
  "/>
<path clip-path="url(#clip372)" d="
M847.68 1380.73 L847.68 1386.52 L897.273 1386.52 L897.273 1380.73 L847.68 1380.73 L847.68 1380.73  Z
  " fill="#009af9" fill-rule="evenodd" fill-opacity="1"/>
<polyline clip-path="url(#clip372)" style="stroke:#009af9; stroke-linecap:butt; stroke-linejoin:round; stroke-width:4; stroke-opacity:1; fill:none" points="
  847.68,1380.73 847.68,1386.52 897.273,1386.52 897.273,1380.73 847.68,1380.73 
  "/>
<path clip-path="url(#clip372)" d="
M897.273 1382.66 L897.273 1386.52 L946.867 1386.52 L946.867 1382.66 L897.273 1382.66 L897.273 1382.66  Z
  " fill="#009af9" fill-rule="evenodd" fill-opacity="1"/>
<polyline clip-path="url(#clip372)" style="stroke:#009af9; stroke-linecap:butt; stroke-linejoin:round; stroke-width:4; stroke-opacity:1; fill:none" points="
  897.273,1382.66 897.273,1386.52 946.867,1386.52 946.867,1382.66 897.273,1382.66 
  "/>
<path clip-path="url(#clip372)" d="
M946.867 1380.73 L946.867 1386.52 L996.46 1386.52 L996.46 1380.73 L946.867 1380.73 L946.867 1380.73  Z
  " fill="#009af9" fill-rule="evenodd" fill-opacity="1"/>
<polyline clip-path="url(#clip372)" style="stroke:#009af9; stroke-linecap:butt; stroke-linejoin:round; stroke-width:4; stroke-opacity:1; fill:none" points="
  946.867,1380.73 946.867,1386.52 996.46,1386.52 996.46,1380.73 946.867,1380.73 
  "/>
<path clip-path="url(#clip372)" d="
M996.46 1378.8 L996.46 1386.52 L1046.05 1386.52 L1046.05 1378.8 L996.46 1378.8 L996.46 1378.8  Z
  " fill="#009af9" fill-rule="evenodd" fill-opacity="1"/>
<polyline clip-path="url(#clip372)" style="stroke:#009af9; stroke-linecap:butt; stroke-linejoin:round; stroke-width:4; stroke-opacity:1; fill:none" points="
  996.46,1378.8 996.46,1386.52 1046.05,1386.52 1046.05,1378.8 996.46,1378.8 
  "/>
<path clip-path="url(#clip372)" d="
M1046.05 1382.66 L1046.05 1386.52 L1095.65 1386.52 L1095.65 1382.66 L1046.05 1382.66 L1046.05 1382.66  Z
  " fill="#009af9" fill-rule="evenodd" fill-opacity="1"/>
<polyline clip-path="url(#clip372)" style="stroke:#009af9; stroke-linecap:butt; stroke-linejoin:round; stroke-width:4; stroke-opacity:1; fill:none" points="
  1046.05,1382.66 1046.05,1386.52 1095.65,1386.52 1095.65,1382.66 1046.05,1382.66 
  "/>
<path clip-path="url(#clip372)" d="
M1095.65 1369.13 L1095.65 1386.52 L1145.24 1386.52 L1145.24 1369.13 L1095.65 1369.13 L1095.65 1369.13  Z
  " fill="#009af9" fill-rule="evenodd" fill-opacity="1"/>
<polyline clip-path="url(#clip372)" style="stroke:#009af9; stroke-linecap:butt; stroke-linejoin:round; stroke-width:4; stroke-opacity:1; fill:none" points="
  1095.65,1369.13 1095.65,1386.52 1145.24,1386.52 1145.24,1369.13 1095.65,1369.13 
  "/>
<path clip-path="url(#clip372)" d="
M1145.24 1373 L1145.24 1386.52 L1194.83 1386.52 L1194.83 1373 L1145.24 1373 L1145.24 1373  Z
  " fill="#009af9" fill-rule="evenodd" fill-opacity="1"/>
<polyline clip-path="url(#clip372)" style="stroke:#009af9; stroke-linecap:butt; stroke-linejoin:round; stroke-width:4; stroke-opacity:1; fill:none" points="
  1145.24,1373 1145.24,1386.52 1194.83,1386.52 1194.83,1373 1145.24,1373 
  "/>
<path clip-path="url(#clip372)" d="
M1194.83 1373 L1194.83 1386.52 L1244.43 1386.52 L1244.43 1373 L1194.83 1373 L1194.83 1373  Z
  " fill="#009af9" fill-rule="evenodd" fill-opacity="1"/>
<polyline clip-path="url(#clip372)" style="stroke:#009af9; stroke-linecap:butt; stroke-linejoin:round; stroke-width:4; stroke-opacity:1; fill:none" points="
  1194.83,1373 1194.83,1386.52 1244.43,1386.52 1244.43,1373 1194.83,1373 
  "/>
<path clip-path="url(#clip372)" d="
M1244.43 1371.07 L1244.43 1386.52 L1294.02 1386.52 L1294.02 1371.07 L1244.43 1371.07 L1244.43 1371.07  Z
  " fill="#009af9" fill-rule="evenodd" fill-opacity="1"/>
<polyline clip-path="url(#clip372)" style="stroke:#009af9; stroke-linecap:butt; stroke-linejoin:round; stroke-width:4; stroke-opacity:1; fill:none" points="
  1244.43,1371.07 1244.43,1386.52 1294.02,1386.52 1294.02,1371.07 1244.43,1371.07 
  "/>
<path clip-path="url(#clip372)" d="
M1294.02 1355.61 L1294.02 1386.52 L1343.61 1386.52 L1343.61 1355.61 L1294.02 1355.61 L1294.02 1355.61  Z
  " fill="#009af9" fill-rule="evenodd" fill-opacity="1"/>
<polyline clip-path="url(#clip372)" style="stroke:#009af9; stroke-linecap:butt; stroke-linejoin:round; stroke-width:4; stroke-opacity:1; fill:none" points="
  1294.02,1355.61 1294.02,1386.52 1343.61,1386.52 1343.61,1355.61 1294.02,1355.61 
  "/>
<path clip-path="url(#clip372)" d="
M1343.61 1367.2 L1343.61 1386.52 L1393.21 1386.52 L1393.21 1367.2 L1343.61 1367.2 L1343.61 1367.2  Z
  " fill="#009af9" fill-rule="evenodd" fill-opacity="1"/>
<polyline clip-path="url(#clip372)" style="stroke:#009af9; stroke-linecap:butt; stroke-linejoin:round; stroke-width:4; stroke-opacity:1; fill:none" points="
  1343.61,1367.2 1343.61,1386.52 1393.21,1386.52 1393.21,1367.2 1343.61,1367.2 
  "/>
<path clip-path="url(#clip372)" d="
M1393.21 1342.09 L1393.21 1386.52 L1442.8 1386.52 L1442.8 1342.09 L1393.21 1342.09 L1393.21 1342.09  Z
  " fill="#009af9" fill-rule="evenodd" fill-opacity="1"/>
<polyline clip-path="url(#clip372)" style="stroke:#009af9; stroke-linecap:butt; stroke-linejoin:round; stroke-width:4; stroke-opacity:1; fill:none" points="
  1393.21,1342.09 1393.21,1386.52 1442.8,1386.52 1442.8,1342.09 1393.21,1342.09 
  "/>
<path clip-path="url(#clip372)" d="
M1442.8 1301.51 L1442.8 1386.52 L1492.39 1386.52 L1492.39 1301.51 L1442.8 1301.51 L1442.8 1301.51  Z
  " fill="#009af9" fill-rule="evenodd" fill-opacity="1"/>
<polyline clip-path="url(#clip372)" style="stroke:#009af9; stroke-linecap:butt; stroke-linejoin:round; stroke-width:4; stroke-opacity:1; fill:none" points="
  1442.8,1301.51 1442.8,1386.52 1492.39,1386.52 1492.39,1301.51 1442.8,1301.51 
  "/>
<path clip-path="url(#clip372)" d="
M1492.39 1311.17 L1492.39 1386.52 L1541.99 1386.52 L1541.99 1311.17 L1492.39 1311.17 L1492.39 1311.17  Z
  " fill="#009af9" fill-rule="evenodd" fill-opacity="1"/>
<polyline clip-path="url(#clip372)" style="stroke:#009af9; stroke-linecap:butt; stroke-linejoin:round; stroke-width:4; stroke-opacity:1; fill:none" points="
  1492.39,1311.17 1492.39,1386.52 1541.99,1386.52 1541.99,1311.17 1492.39,1311.17 
  "/>
<path clip-path="url(#clip372)" d="
M1541.99 1289.92 L1541.99 1386.52 L1591.58 1386.52 L1591.58 1289.92 L1541.99 1289.92 L1541.99 1289.92  Z
  " fill="#009af9" fill-rule="evenodd" fill-opacity="1"/>
<polyline clip-path="url(#clip372)" style="stroke:#009af9; stroke-linecap:butt; stroke-linejoin:round; stroke-width:4; stroke-opacity:1; fill:none" points="
  1541.99,1289.92 1541.99,1386.52 1591.58,1386.52 1591.58,1289.92 1541.99,1289.92 
  "/>
<path clip-path="url(#clip372)" d="
M1591.58 1251.28 L1591.58 1386.52 L1641.17 1386.52 L1641.17 1251.28 L1591.58 1251.28 L1591.58 1251.28  Z
  " fill="#009af9" fill-rule="evenodd" fill-opacity="1"/>
<polyline clip-path="url(#clip372)" style="stroke:#009af9; stroke-linecap:butt; stroke-linejoin:round; stroke-width:4; stroke-opacity:1; fill:none" points="
  1591.58,1251.28 1591.58,1386.52 1641.17,1386.52 1641.17,1251.28 1591.58,1251.28 
  "/>
<path clip-path="url(#clip372)" d="
M1641.17 1222.3 L1641.17 1386.52 L1690.77 1386.52 L1690.77 1222.3 L1641.17 1222.3 L1641.17 1222.3  Z
  " fill="#009af9" fill-rule="evenodd" fill-opacity="1"/>
<polyline clip-path="url(#clip372)" style="stroke:#009af9; stroke-linecap:butt; stroke-linejoin:round; stroke-width:4; stroke-opacity:1; fill:none" points="
  1641.17,1222.3 1641.17,1386.52 1690.77,1386.52 1690.77,1222.3 1641.17,1222.3 
  "/>
<path clip-path="url(#clip372)" d="
M1690.77 1193.32 L1690.77 1386.52 L1740.36 1386.52 L1740.36 1193.32 L1690.77 1193.32 L1690.77 1193.32  Z
  " fill="#009af9" fill-rule="evenodd" fill-opacity="1"/>
<polyline clip-path="url(#clip372)" style="stroke:#009af9; stroke-linecap:butt; stroke-linejoin:round; stroke-width:4; stroke-opacity:1; fill:none" points="
  1690.77,1193.32 1690.77,1386.52 1740.36,1386.52 1740.36,1193.32 1690.77,1193.32 
  "/>
<path clip-path="url(#clip372)" d="
M1740.36 1187.52 L1740.36 1386.52 L1789.95 1386.52 L1789.95 1187.52 L1740.36 1187.52 L1740.36 1187.52  Z
  " fill="#009af9" fill-rule="evenodd" fill-opacity="1"/>
<polyline clip-path="url(#clip372)" style="stroke:#009af9; stroke-linecap:butt; stroke-linejoin:round; stroke-width:4; stroke-opacity:1; fill:none" points="
  1740.36,1187.52 1740.36,1386.52 1789.95,1386.52 1789.95,1187.52 1740.36,1187.52 
  "/>
<path clip-path="url(#clip372)" d="
M1789.95 1108.31 L1789.95 1386.52 L1839.55 1386.52 L1839.55 1108.31 L1789.95 1108.31 L1789.95 1108.31  Z
  " fill="#009af9" fill-rule="evenodd" fill-opacity="1"/>
<polyline clip-path="url(#clip372)" style="stroke:#009af9; stroke-linecap:butt; stroke-linejoin:round; stroke-width:4; stroke-opacity:1; fill:none" points="
  1789.95,1108.31 1789.95,1386.52 1839.55,1386.52 1839.55,1108.31 1789.95,1108.31 
  "/>
<path clip-path="url(#clip372)" d="
M1839.55 994.317 L1839.55 1386.52 L1889.14 1386.52 L1889.14 994.317 L1839.55 994.317 L1839.55 994.317  Z
  " fill="#009af9" fill-rule="evenodd" fill-opacity="1"/>
<polyline clip-path="url(#clip372)" style="stroke:#009af9; stroke-linecap:butt; stroke-linejoin:round; stroke-width:4; stroke-opacity:1; fill:none" points="
  1839.55,994.317 1839.55,1386.52 1889.14,1386.52 1889.14,994.317 1839.55,994.317 
  "/>
<path clip-path="url(#clip372)" d="
M1889.14 872.597 L1889.14 1386.52 L1938.73 1386.52 L1938.73 872.597 L1889.14 872.597 L1889.14 872.597  Z
  " fill="#009af9" fill-rule="evenodd" fill-opacity="1"/>
<polyline clip-path="url(#clip372)" style="stroke:#009af9; stroke-linecap:butt; stroke-linejoin:round; stroke-width:4; stroke-opacity:1; fill:none" points="
  1889.14,872.597 1889.14,1386.52 1938.73,1386.52 1938.73,872.597 1889.14,872.597 
  "/>
<path clip-path="url(#clip372)" d="
M1938.73 752.81 L1938.73 1386.52 L1988.32 1386.52 L1988.32 752.81 L1938.73 752.81 L1938.73 752.81  Z
  " fill="#009af9" fill-rule="evenodd" fill-opacity="1"/>
<polyline clip-path="url(#clip372)" style="stroke:#009af9; stroke-linecap:butt; stroke-linejoin:round; stroke-width:4; stroke-opacity:1; fill:none" points="
  1938.73,752.81 1938.73,1386.52 1988.32,1386.52 1988.32,752.81 1938.73,752.81 
  "/>
<path clip-path="url(#clip372)" d="
M1988.32 629.159 L1988.32 1386.52 L2037.92 1386.52 L2037.92 629.159 L1988.32 629.159 L1988.32 629.159  Z
  " fill="#009af9" fill-rule="evenodd" fill-opacity="1"/>
<polyline clip-path="url(#clip372)" style="stroke:#009af9; stroke-linecap:butt; stroke-linejoin:round; stroke-width:4; stroke-opacity:1; fill:none" points="
  1988.32,629.159 1988.32,1386.52 2037.92,1386.52 2037.92,629.159 1988.32,629.159 
  "/>
<path clip-path="url(#clip372)" d="
M2037.92 424.361 L2037.92 1386.52 L2087.51 1386.52 L2087.51 424.361 L2037.92 424.361 L2037.92 424.361  Z
  " fill="#009af9" fill-rule="evenodd" fill-opacity="1"/>
<polyline clip-path="url(#clip372)" style="stroke:#009af9; stroke-linecap:butt; stroke-linejoin:round; stroke-width:4; stroke-opacity:1; fill:none" points="
  2037.92,424.361 2037.92,1386.52 2087.51,1386.52 2087.51,424.361 2037.92,424.361 
  "/>
<path clip-path="url(#clip372)" d="
M2087.51 267.865 L2087.51 1386.52 L2137.1 1386.52 L2137.1 267.865 L2087.51 267.865 L2087.51 267.865  Z
  " fill="#009af9" fill-rule="evenodd" fill-opacity="1"/>
<polyline clip-path="url(#clip372)" style="stroke:#009af9; stroke-linecap:butt; stroke-linejoin:round; stroke-width:4; stroke-opacity:1; fill:none" points="
  2087.51,267.865 2087.51,1386.52 2137.1,1386.52 2137.1,267.865 2087.51,267.865 
  "/>
<path clip-path="url(#clip372)" d="
M2137.1 86.2522 L2137.1 1386.52 L2186.7 1386.52 L2186.7 86.2522 L2137.1 86.2522 L2137.1 86.2522  Z
  " fill="#009af9" fill-rule="evenodd" fill-opacity="1"/>
<polyline clip-path="url(#clip372)" style="stroke:#009af9; stroke-linecap:butt; stroke-linejoin:round; stroke-width:4; stroke-opacity:1; fill:none" points="
  2137.1,86.2522 2137.1,1386.52 2186.7,1386.52 2186.7,86.2522 2137.1,86.2522 
  "/>
<path clip-path="url(#clip372)" d="
M2186.7 283.322 L2186.7 1386.52 L2236.29 1386.52 L2236.29 283.322 L2186.7 283.322 L2186.7 283.322  Z
  " fill="#009af9" fill-rule="evenodd" fill-opacity="1"/>
<polyline clip-path="url(#clip372)" style="stroke:#009af9; stroke-linecap:butt; stroke-linejoin:round; stroke-width:4; stroke-opacity:1; fill:none" points="
  2186.7,283.322 2186.7,1386.52 2236.29,1386.52 2236.29,283.322 2186.7,283.322 
  "/>
</svg>
