<?xml version="1.0" encoding="utf-8"?>
<svg xmlns="http://www.w3.org/2000/svg" xmlns:xlink="http://www.w3.org/1999/xlink" width="600" height="400" viewBox="0 0 2400 1600">
<defs>
  <clipPath id="clip710">
    <rect x="0" y="0" width="2400" height="1600"/>
  </clipPath>
</defs>
<path clip-path="url(#clip710)" d="
M0 1600 L2400 1600 L2400 0 L0 0  Z
  " fill="#ffffff" fill-rule="evenodd" fill-opacity="1"/>
<defs>
  <clipPath id="clip711">
    <rect x="480" y="0" width="1681" height="1600"/>
  </clipPath>
</defs>
<defs>
  <clipPath id="clip712">
    <rect x="277" y="47" width="2076" height="1369"/>
  </clipPath>
</defs>
<path clip-path="url(#clip710)" d="
M235.283 1425.53 L2352.76 1425.53 L2352.76 47.2441 L235.283 47.2441  Z
  " fill="#ffffff" fill-rule="evenodd" fill-opacity="1"/>
<defs>
  <clipPath id="clip713">
    <rect x="235" y="47" width="2118" height="1379"/>
  </clipPath>
</defs>
<polyline clip-path="url(#clip713)" style="stroke:#000000; stroke-linecap:butt; stroke-linejoin:round; stroke-width:2; stroke-opacity:0.1; fill:none" points="
  235.283,1425.53 235.283,47.2441 
  "/>
<polyline clip-path="url(#clip713)" style="stroke:#000000; stroke-linecap:butt; stroke-linejoin:round; stroke-width:2; stroke-opacity:0.1; fill:none" points="
  941.107,1425.53 941.107,47.2441 
  "/>
<polyline clip-path="url(#clip713)" style="stroke:#000000; stroke-linecap:butt; stroke-linejoin:round; stroke-width:2; stroke-opacity:0.1; fill:none" points="
  1646.93,1425.53 1646.93,47.2441 
  "/>
<polyline clip-path="url(#clip713)" style="stroke:#000000; stroke-linecap:butt; stroke-linejoin:round; stroke-width:2; stroke-opacity:0.1; fill:none" points="
  2352.76,1425.53 2352.76,47.2441 
  "/>
<polyline clip-path="url(#clip710)" style="stroke:#000000; stroke-linecap:butt; stroke-linejoin:round; stroke-width:4; stroke-opacity:1; fill:none" points="
  235.283,1425.53 2352.76,1425.53 
  "/>
<polyline clip-path="url(#clip710)" style="stroke:#000000; stroke-linecap:butt; stroke-linejoin:round; stroke-width:4; stroke-opacity:1; fill:none" points="
  235.283,1425.53 235.283,1408.99 
  "/>
<polyline clip-path="url(#clip710)" style="stroke:#000000; stroke-linecap:butt; stroke-linejoin:round; stroke-width:4; stroke-opacity:1; fill:none" points="
  941.107,1425.53 941.107,1408.99 
  "/>
<polyline clip-path="url(#clip710)" style="stroke:#000000; stroke-linecap:butt; stroke-linejoin:round; stroke-width:4; stroke-opacity:1; fill:none" points="
  1646.93,1425.53 1646.93,1408.99 
  "/>
<polyline clip-path="url(#clip710)" style="stroke:#000000; stroke-linecap:butt; stroke-linejoin:round; stroke-width:4; stroke-opacity:1; fill:none" points="
  2352.76,1425.53 2352.76,1408.99 
  "/>
<path clip-path="url(#clip710)" d="M167.228 1469.37 L196.903 1469.37 L196.903 1473.31 L167.228 1473.31 L167.228 1469.37 Z" fill="#000000" fill-rule="evenodd" fill-opacity="1" /><path clip-path="url(#clip710)" d="M216.996 1454.72 Q213.385 1454.72 211.556 1458.29 Q209.751 1461.83 209.751 1468.96 Q209.751 1476.06 211.556 1479.63 Q213.385 1483.17 216.996 1483.17 Q220.63 1483.17 222.436 1479.63 Q224.264 1476.06 224.264 1468.96 Q224.264 1461.83 222.436 1458.29 Q220.63 1454.72 216.996 1454.72 M216.996 1451.02 Q222.806 1451.02 225.862 1455.62 Q228.94 1460.21 228.94 1468.96 Q228.94 1477.69 225.862 1482.29 Q222.806 1486.87 216.996 1486.87 Q211.186 1486.87 208.107 1482.29 Q205.052 1477.69 205.052 1468.96 Q205.052 1460.21 208.107 1455.62 Q211.186 1451.02 216.996 1451.02 Z" fill="#000000" fill-rule="evenodd" fill-opacity="1" /><path clip-path="url(#clip710)" d="M237.158 1480.32 L242.042 1480.32 L242.042 1486.2 L237.158 1486.2 L237.158 1480.32 Z" fill="#000000" fill-rule="evenodd" fill-opacity="1" /><path clip-path="url(#clip710)" d="M262.227 1454.72 Q258.616 1454.72 256.787 1458.29 Q254.982 1461.83 254.982 1468.96 Q254.982 1476.06 256.787 1479.63 Q258.616 1483.17 262.227 1483.17 Q265.861 1483.17 267.667 1479.63 Q269.496 1476.06 269.496 1468.96 Q269.496 1461.83 267.667 1458.29 Q265.861 1454.72 262.227 1454.72 M262.227 1451.02 Q268.037 1451.02 271.093 1455.62 Q274.172 1460.21 274.172 1468.96 Q274.172 1477.69 271.093 1482.29 Q268.037 1486.87 262.227 1486.87 Q256.417 1486.87 253.338 1482.29 Q250.283 1477.69 250.283 1468.96 Q250.283 1460.21 253.338 1455.62 Q256.417 1451.02 262.227 1451.02 Z" fill="#000000" fill-rule="evenodd" fill-opacity="1" /><path clip-path="url(#clip710)" d="M282.435 1451.64 L300.792 1451.64 L300.792 1455.58 L286.718 1455.58 L286.718 1464.05 Q287.736 1463.7 288.755 1463.54 Q289.773 1463.36 290.792 1463.36 Q296.579 1463.36 299.958 1466.53 Q303.338 1469.7 303.338 1475.12 Q303.338 1480.69 299.866 1483.8 Q296.394 1486.87 290.074 1486.87 Q287.898 1486.87 285.63 1486.5 Q283.384 1486.13 280.977 1485.39 L280.977 1480.69 Q283.06 1481.83 285.283 1482.38 Q287.505 1482.94 289.982 1482.94 Q293.986 1482.94 296.324 1480.83 Q298.662 1478.73 298.662 1475.12 Q298.662 1471.5 296.324 1469.4 Q293.986 1467.29 289.982 1467.29 Q288.107 1467.29 286.232 1467.71 Q284.38 1468.12 282.435 1469 L282.435 1451.64 Z" fill="#000000" fill-rule="evenodd" fill-opacity="1" /><path clip-path="url(#clip710)" d="M903.411 1454.72 Q899.8 1454.72 897.971 1458.29 Q896.165 1461.83 896.165 1468.96 Q896.165 1476.06 897.971 1479.63 Q899.8 1483.17 903.411 1483.17 Q907.045 1483.17 908.85 1479.63 Q910.679 1476.06 910.679 1468.96 Q910.679 1461.83 908.85 1458.29 Q907.045 1454.72 903.411 1454.72 M903.411 1451.02 Q909.221 1451.02 912.276 1455.62 Q915.355 1460.21 915.355 1468.96 Q915.355 1477.69 912.276 1482.29 Q909.221 1486.87 903.411 1486.87 Q897.6 1486.87 894.522 1482.29 Q891.466 1477.69 891.466 1468.96 Q891.466 1460.21 894.522 1455.62 Q897.6 1451.02 903.411 1451.02 Z" fill="#000000" fill-rule="evenodd" fill-opacity="1" /><path clip-path="url(#clip710)" d="M923.573 1480.32 L928.457 1480.32 L928.457 1486.2 L923.573 1486.2 L923.573 1480.32 Z" fill="#000000" fill-rule="evenodd" fill-opacity="1" /><path clip-path="url(#clip710)" d="M948.642 1454.72 Q945.031 1454.72 943.202 1458.29 Q941.397 1461.83 941.397 1468.96 Q941.397 1476.06 943.202 1479.63 Q945.031 1483.17 948.642 1483.17 Q952.276 1483.17 954.082 1479.63 Q955.91 1476.06 955.91 1468.96 Q955.91 1461.83 954.082 1458.29 Q952.276 1454.72 948.642 1454.72 M948.642 1451.02 Q954.452 1451.02 957.508 1455.62 Q960.586 1460.21 960.586 1468.96 Q960.586 1477.69 957.508 1482.29 Q954.452 1486.87 948.642 1486.87 Q942.832 1486.87 939.753 1482.29 Q936.698 1477.69 936.698 1468.96 Q936.698 1460.21 939.753 1455.62 Q942.832 1451.02 948.642 1451.02 Z" fill="#000000" fill-rule="evenodd" fill-opacity="1" /><path clip-path="url(#clip710)" d="M978.804 1454.72 Q975.193 1454.72 973.364 1458.29 Q971.558 1461.83 971.558 1468.96 Q971.558 1476.06 973.364 1479.63 Q975.193 1483.17 978.804 1483.17 Q982.438 1483.17 984.244 1479.63 Q986.072 1476.06 986.072 1468.96 Q986.072 1461.83 984.244 1458.29 Q982.438 1454.72 978.804 1454.72 M978.804 1451.02 Q984.614 1451.02 987.669 1455.62 Q990.748 1460.21 990.748 1468.96 Q990.748 1477.69 987.669 1482.29 Q984.614 1486.87 978.804 1486.87 Q972.994 1486.87 969.915 1482.29 Q966.859 1477.69 966.859 1468.96 Q966.859 1460.21 969.915 1455.62 Q972.994 1451.02 978.804 1451.02 Z" fill="#000000" fill-rule="evenodd" fill-opacity="1" /><path clip-path="url(#clip710)" d="M1609.73 1454.72 Q1606.12 1454.72 1604.29 1458.29 Q1602.49 1461.83 1602.49 1468.96 Q1602.49 1476.06 1604.29 1479.63 Q1606.12 1483.17 1609.73 1483.17 Q1613.37 1483.17 1615.17 1479.63 Q1617 1476.06 1617 1468.96 Q1617 1461.83 1615.17 1458.29 Q1613.37 1454.72 1609.73 1454.72 M1609.73 1451.02 Q1615.54 1451.02 1618.6 1455.62 Q1621.68 1460.21 1621.68 1468.96 Q1621.68 1477.69 1618.6 1482.29 Q1615.54 1486.87 1609.73 1486.87 Q1603.92 1486.87 1600.84 1482.29 Q1597.79 1477.69 1597.79 1468.96 Q1597.79 1460.21 1600.84 1455.62 Q1603.92 1451.02 1609.73 1451.02 Z" fill="#000000" fill-rule="evenodd" fill-opacity="1" /><path clip-path="url(#clip710)" d="M1629.89 1480.32 L1634.78 1480.32 L1634.78 1486.2 L1629.89 1486.2 L1629.89 1480.32 Z" fill="#000000" fill-rule="evenodd" fill-opacity="1" /><path clip-path="url(#clip710)" d="M1654.96 1454.72 Q1651.35 1454.72 1649.52 1458.29 Q1647.72 1461.83 1647.72 1468.96 Q1647.72 1476.06 1649.52 1479.63 Q1651.35 1483.17 1654.96 1483.17 Q1658.6 1483.17 1660.4 1479.63 Q1662.23 1476.06 1662.23 1468.96 Q1662.23 1461.83 1660.4 1458.29 Q1658.6 1454.72 1654.96 1454.72 M1654.96 1451.02 Q1660.77 1451.02 1663.83 1455.62 Q1666.91 1460.21 1666.91 1468.96 Q1666.91 1477.69 1663.83 1482.29 Q1660.77 1486.87 1654.96 1486.87 Q1649.15 1486.87 1646.08 1482.29 Q1643.02 1477.69 1643.02 1468.96 Q1643.02 1460.21 1646.08 1455.62 Q1649.15 1451.02 1654.96 1451.02 Z" fill="#000000" fill-rule="evenodd" fill-opacity="1" /><path clip-path="url(#clip710)" d="M1675.17 1451.64 L1693.53 1451.64 L1693.53 1455.58 L1679.45 1455.58 L1679.45 1464.05 Q1680.47 1463.7 1681.49 1463.54 Q1682.51 1463.36 1683.53 1463.36 Q1689.32 1463.36 1692.7 1466.53 Q1696.07 1469.7 1696.07 1475.12 Q1696.07 1480.69 1692.6 1483.8 Q1689.13 1486.87 1682.81 1486.87 Q1680.64 1486.87 1678.37 1486.5 Q1676.12 1486.13 1673.71 1485.39 L1673.71 1480.69 Q1675.8 1481.83 1678.02 1482.38 Q1680.24 1482.94 1682.72 1482.94 Q1686.72 1482.94 1689.06 1480.83 Q1691.4 1478.73 1691.4 1475.12 Q1691.4 1471.5 1689.06 1469.4 Q1686.72 1467.29 1682.72 1467.29 Q1680.84 1467.29 1678.97 1467.71 Q1677.12 1468.12 1675.17 1469 L1675.17 1451.64 Z" fill="#000000" fill-rule="evenodd" fill-opacity="1" /><path clip-path="url(#clip710)" d="M2315.06 1454.72 Q2311.45 1454.72 2309.62 1458.29 Q2307.81 1461.83 2307.81 1468.96 Q2307.81 1476.06 2309.62 1479.63 Q2311.45 1483.17 2315.06 1483.17 Q2318.69 1483.17 2320.5 1479.63 Q2322.33 1476.06 2322.33 1468.96 Q2322.33 1461.83 2320.5 1458.29 Q2318.69 1454.72 2315.06 1454.72 M2315.06 1451.02 Q2320.87 1451.02 2323.93 1455.62 Q2327 1460.21 2327 1468.96 Q2327 1477.69 2323.93 1482.29 Q2320.87 1486.87 2315.06 1486.87 Q2309.25 1486.87 2306.17 1482.29 Q2303.11 1477.69 2303.11 1468.96 Q2303.11 1460.21 2306.17 1455.62 Q2309.25 1451.02 2315.06 1451.02 Z" fill="#000000" fill-rule="evenodd" fill-opacity="1" /><path clip-path="url(#clip710)" d="M2335.22 1480.32 L2340.11 1480.32 L2340.11 1486.2 L2335.22 1486.2 L2335.22 1480.32 Z" fill="#000000" fill-rule="evenodd" fill-opacity="1" /><path clip-path="url(#clip710)" d="M2351.1 1482.27 L2358.74 1482.27 L2358.74 1455.9 L2350.43 1457.57 L2350.43 1453.31 L2358.69 1451.64 L2363.37 1451.64 L2363.37 1482.27 L2371.01 1482.27 L2371.01 1486.2 L2351.1 1486.2 L2351.1 1482.27 Z" fill="#000000" fill-rule="evenodd" fill-opacity="1" /><path clip-path="url(#clip710)" d="M2390.45 1454.72 Q2386.84 1454.72 2385.01 1458.29 Q2383.21 1461.83 2383.21 1468.96 Q2383.21 1476.06 2385.01 1479.63 Q2386.84 1483.17 2390.45 1483.17 Q2394.09 1483.17 2395.89 1479.63 Q2397.72 1476.06 2397.72 1468.96 Q2397.72 1461.83 2395.89 1458.29 Q2394.09 1454.72 2390.45 1454.72 M2390.45 1451.02 Q2396.26 1451.02 2399.32 1455.62 Q2402.4 1460.21 2402.4 1468.96 Q2402.4 1477.69 2399.32 1482.29 Q2396.26 1486.87 2390.45 1486.87 Q2384.64 1486.87 2381.56 1482.29 Q2378.51 1477.69 2378.51 1468.96 Q2378.51 1460.21 2381.56 1455.62 Q2384.64 1451.02 2390.45 1451.02 Z" fill="#000000" fill-rule="evenodd" fill-opacity="1" /><path clip-path="url(#clip710)" d="M1201.62 1552.72 Q1201.62 1552.46 1202.49 1550.79 Q1203.36 1549.08 1206.42 1542.99 Q1209.48 1536.87 1212.64 1530.46 L1224.01 1507.6 Q1224.81 1506.15 1225.84 1506.15 Q1226.77 1506.15 1227.19 1506.73 Q1227.61 1507.31 1229.54 1511.2 Q1230.54 1513.1 1231.12 1514.33 L1249.77 1551.65 Q1250.09 1552.46 1250.12 1552.72 Q1250.12 1553.36 1249 1553.36 L1203.36 1553.36 Q1201.62 1553.36 1201.62 1552.72 M1205.97 1548.34 L1241.46 1548.34 L1223.72 1512.72 L1205.97 1548.34 Z" fill="#000000" fill-rule="evenodd" fill-opacity="1" /><path clip-path="url(#clip710)" d="M1284.96 1528.82 Q1284.96 1529.66 1284.74 1531.3 Q1284.51 1532.94 1283.96 1535.33 Q1283.42 1537.71 1282.61 1540.22 Q1281.84 1542.73 1280.61 1545.25 Q1279.39 1547.73 1277.94 1549.69 Q1276.49 1551.65 1274.46 1552.88 Q1272.43 1554.1 1270.15 1554.1 Q1269.08 1554.1 1268.05 1553.94 Q1267.02 1553.78 1265.74 1553.27 Q1264.45 1552.75 1263.51 1551.91 Q1262.58 1551.04 1261.93 1549.5 Q1261.29 1547.95 1261.29 1545.92 Q1261.29 1543.83 1262.06 1541.03 Q1262.87 1538.19 1265.06 1532.4 Q1266.19 1529.4 1266.19 1527.76 Q1266.19 1527.02 1266.03 1526.57 Q1265.86 1526.08 1265.54 1525.92 Q1265.22 1525.73 1265.03 1525.7 Q1264.87 1525.66 1264.54 1525.66 Q1262.77 1525.66 1260.97 1527.5 Q1259.17 1529.34 1257.88 1533.85 Q1257.62 1534.65 1257.46 1534.84 Q1257.3 1535.04 1256.81 1535.04 Q1256.01 1535 1256.01 1534.36 Q1256.01 1534.17 1256.23 1533.43 Q1256.46 1532.65 1256.88 1531.49 Q1257.3 1530.3 1258.04 1529.08 Q1258.78 1527.82 1259.68 1526.73 Q1260.61 1525.63 1261.93 1524.92 Q1263.26 1524.22 1264.74 1524.22 Q1267.15 1524.22 1268.63 1525.79 Q1270.15 1527.34 1270.15 1529.63 Q1270.15 1530.88 1269.34 1532.91 Q1267.99 1536.58 1267.38 1538.35 Q1266.77 1540.13 1266.12 1542.64 Q1265.51 1545.15 1265.51 1546.89 Q1265.51 1549.53 1266.73 1551.08 Q1267.96 1552.62 1270.41 1552.62 Q1272.6 1552.62 1274.56 1551.04 Q1276.56 1549.43 1277.88 1547.15 Q1279.2 1544.83 1280.2 1542.25 Q1281.19 1539.64 1281.64 1537.68 Q1282.13 1535.68 1282.13 1534.75 Q1282.13 1531.49 1279.91 1529.37 Q1279.29 1528.76 1279.07 1528.37 Q1278.84 1527.98 1278.84 1527.37 Q1278.84 1526.24 1279.84 1525.25 Q1280.87 1524.22 1282.06 1524.22 Q1283.16 1524.22 1284.06 1525.31 Q1284.96 1526.41 1284.96 1528.82 Z" fill="#000000" fill-rule="evenodd" fill-opacity="1" /><path clip-path="url(#clip710)" d="M1317.52 1543.93 Q1316.65 1548.08 1315.52 1550.46 Q1313.72 1554.1 1310.66 1554.1 Q1308.34 1554.1 1306.7 1552.69 Q1305.05 1551.27 1304.67 1549.14 Q1300.45 1554.1 1296.07 1554.1 Q1292.2 1554.1 1289.76 1551.17 Q1287.31 1548.21 1287.31 1543.54 Q1287.31 1538.84 1289.63 1534.33 Q1291.98 1529.82 1295.68 1527.02 Q1299.39 1524.22 1303.19 1524.22 Q1307.21 1524.22 1309.27 1528.43 Q1309.43 1527.28 1310.18 1526.41 Q1310.92 1525.54 1312.04 1525.54 Q1312.91 1525.54 1313.43 1526.02 Q1313.94 1526.47 1313.94 1527.31 Q1313.94 1527.73 1313.49 1529.56 L1311.11 1538.77 L1309.66 1544.73 Q1309.11 1546.92 1308.95 1547.73 Q1308.82 1548.53 1308.82 1549.59 Q1308.82 1552.62 1310.79 1552.62 Q1311.75 1552.62 1312.53 1552.01 Q1313.3 1551.4 1313.91 1550.11 Q1314.52 1548.82 1314.91 1547.63 Q1315.3 1546.41 1315.81 1544.47 Q1315.97 1543.7 1316.1 1543.51 Q1316.26 1543.28 1316.71 1543.28 Q1317.52 1543.28 1317.52 1543.93 M1308.47 1531.46 Q1308.47 1531.17 1308.24 1530.37 Q1308.02 1529.56 1307.5 1528.43 Q1306.99 1527.31 1305.86 1526.5 Q1304.76 1525.66 1303.28 1525.66 Q1301.29 1525.66 1299.19 1527.37 Q1297.13 1529.08 1295.62 1531.98 Q1294.46 1534.3 1293.2 1539.16 Q1291.98 1544.02 1291.98 1546.44 Q1291.98 1547.92 1292.3 1549.24 Q1292.66 1550.53 1293.65 1551.59 Q1294.65 1552.62 1296.2 1552.62 Q1299.97 1552.62 1303.67 1547.95 Q1304.38 1547.15 1304.54 1546.82 Q1304.73 1546.47 1304.99 1545.5 L1308.28 1532.59 Q1308.47 1531.62 1308.47 1531.46 Z" fill="#000000" fill-rule="evenodd" fill-opacity="1" /><path clip-path="url(#clip710)" d="M1348.72 1528.5 Q1348.72 1530.21 1347.59 1531.3 Q1346.49 1532.4 1345.08 1532.4 Q1343.85 1532.4 1343.21 1531.69 Q1342.56 1530.98 1342.56 1530.08 Q1342.56 1528.79 1343.56 1527.73 Q1344.56 1526.66 1346.01 1526.44 Q1344.95 1525.66 1343.24 1525.66 Q1340.44 1525.66 1337.96 1527.82 Q1336.86 1528.82 1335.67 1530.66 Q1334.48 1532.46 1334.25 1533.23 L1332.16 1541.83 Q1331.97 1542.8 1330.78 1547.44 Q1329.62 1552.04 1329.52 1552.23 Q1329.2 1553.14 1328.49 1553.62 Q1327.78 1554.1 1327.07 1554.1 Q1326.27 1554.1 1325.72 1553.62 Q1325.17 1553.14 1325.17 1552.3 Q1325.17 1552.17 1325.27 1551.69 Q1325.37 1551.2 1325.53 1550.53 Q1325.69 1549.85 1325.75 1549.46 L1329.58 1534.23 Q1330.29 1531.46 1330.45 1530.59 Q1330.65 1529.69 1330.65 1528.69 Q1330.65 1526.95 1330.1 1526.31 Q1329.55 1525.66 1328.59 1525.66 Q1326.91 1525.66 1325.82 1527.66 Q1324.72 1529.66 1323.79 1533.52 Q1323.5 1534.59 1323.3 1534.81 Q1323.14 1535.04 1322.66 1535.04 Q1321.86 1535 1321.86 1534.36 Q1321.86 1534.2 1322.11 1533.17 Q1322.37 1532.11 1322.85 1530.56 Q1323.37 1528.98 1323.92 1527.98 Q1324.24 1527.31 1324.53 1526.86 Q1324.82 1526.41 1325.4 1525.7 Q1325.98 1524.99 1326.85 1524.6 Q1327.72 1524.22 1328.78 1524.22 Q1331.1 1524.22 1332.74 1525.63 Q1334.42 1527.05 1334.8 1529.27 Q1335.61 1528.11 1336.61 1527.11 Q1337.6 1526.08 1339.44 1525.15 Q1341.28 1524.22 1343.24 1524.22 Q1345.69 1524.22 1347.2 1525.47 Q1348.72 1526.7 1348.72 1528.5 Z" fill="#000000" fill-rule="evenodd" fill-opacity="1" /><path clip-path="url(#clip710)" d="M1379.61 1552.46 Q1379.61 1555.75 1377.94 1558.93 Q1376.3 1562.11 1373.7 1564.07 Q1371.11 1566.01 1368.47 1566.01 Q1366.9 1566.01 1365.84 1565.15 Q1364.8 1564.27 1364.24 1563.03 Q1363.81 1564.57 1362.88 1568.24 Q1361.96 1571.91 1361.96 1572.28 Q1361.96 1572.48 1362 1572.57 Q1362.05 1572.66 1362.25 1572.77 Q1362.46 1572.91 1362.95 1572.95 Q1363.45 1573.02 1364.28 1573.02 Q1364.71 1573.02 1364.87 1573.02 Q1365.05 1573.04 1365.21 1573.15 Q1365.39 1573.27 1365.39 1573.52 Q1365.39 1574.44 1364.55 1574.44 Q1363.81 1574.44 1362.27 1574.37 Q1360.74 1574.3 1359.98 1574.3 Q1359.32 1574.3 1358.01 1574.37 Q1356.71 1574.44 1356.1 1574.44 Q1355.49 1574.44 1355.49 1573.9 Q1355.49 1573.58 1355.58 1573.38 Q1355.65 1573.2 1355.83 1573.11 Q1356.01 1573.04 1356.17 1573.02 Q1356.3 1573.02 1356.57 1573.02 Q1357.61 1573.02 1358.06 1572.84 Q1358.51 1572.68 1358.67 1572.34 Q1358.85 1572.03 1359.05 1571.13 L1364.24 1550.57 Q1364.55 1549.19 1364.55 1548.22 Q1364.55 1547 1364.17 1546.55 Q1363.79 1546.1 1363.11 1546.1 Q1361.94 1546.1 1361.17 1547.5 Q1360.4 1548.9 1359.75 1551.6 Q1359.55 1552.35 1359.41 1552.5 Q1359.3 1552.66 1358.96 1552.66 Q1358.4 1552.64 1358.4 1552.19 Q1358.4 1552.08 1358.58 1551.35 Q1358.76 1550.61 1359.1 1549.53 Q1359.46 1548.42 1359.84 1547.72 Q1360.07 1547.25 1360.27 1546.94 Q1360.47 1546.62 1360.88 1546.12 Q1361.31 1545.63 1361.91 1545.36 Q1362.52 1545.09 1363.27 1545.09 Q1364.71 1545.09 1365.9 1545.94 Q1367.1 1546.8 1367.41 1548.54 Q1368.7 1547.03 1370.28 1546.06 Q1371.86 1545.09 1373.46 1545.09 Q1376.12 1545.09 1377.85 1547.16 Q1379.61 1549.21 1379.61 1552.46 M1376.27 1550.43 Q1376.27 1548.38 1375.49 1547.25 Q1374.72 1546.1 1373.32 1546.1 Q1371.59 1546.1 1369.58 1547.86 Q1367.6 1549.53 1367.19 1551.08 L1364.91 1560.12 L1364.78 1560.87 Q1364.78 1561 1364.84 1561.41 Q1364.94 1561.79 1365.18 1562.42 Q1365.45 1563.05 1365.81 1563.62 Q1366.2 1564.16 1366.87 1564.57 Q1367.57 1564.97 1368.43 1564.97 Q1369.8 1564.97 1371.29 1563.75 Q1372.8 1562.54 1373.93 1560.24 Q1374.63 1558.75 1375.44 1555.55 Q1376.27 1552.32 1376.27 1550.43 Z" fill="#000000" fill-rule="evenodd" fill-opacity="1" /><polyline clip-path="url(#clip713)" style="stroke:#000000; stroke-linecap:butt; stroke-linejoin:round; stroke-width:2; stroke-opacity:0.1; fill:none" points="
  235.283,1386.52 2352.76,1386.52 
  "/>
<polyline clip-path="url(#clip713)" style="stroke:#000000; stroke-linecap:butt; stroke-linejoin:round; stroke-width:2; stroke-opacity:0.1; fill:none" points="
  235.283,1157.6 2352.76,1157.6 
  "/>
<polyline clip-path="url(#clip713)" style="stroke:#000000; stroke-linecap:butt; stroke-linejoin:round; stroke-width:2; stroke-opacity:0.1; fill:none" points="
  235.283,928.681 2352.76,928.681 
  "/>
<polyline clip-path="url(#clip713)" style="stroke:#000000; stroke-linecap:butt; stroke-linejoin:round; stroke-width:2; stroke-opacity:0.1; fill:none" points="
  235.283,699.76 2352.76,699.76 
  "/>
<polyline clip-path="url(#clip713)" style="stroke:#000000; stroke-linecap:butt; stroke-linejoin:round; stroke-width:2; stroke-opacity:0.1; fill:none" points="
  235.283,470.839 2352.76,470.839 
  "/>
<polyline clip-path="url(#clip713)" style="stroke:#000000; stroke-linecap:butt; stroke-linejoin:round; stroke-width:2; stroke-opacity:0.1; fill:none" points="
  235.283,241.918 2352.76,241.918 
  "/>
<polyline clip-path="url(#clip710)" style="stroke:#000000; stroke-linecap:butt; stroke-linejoin:round; stroke-width:4; stroke-opacity:1; fill:none" points="
  235.283,1425.53 235.283,47.2441 
  "/>
<polyline clip-path="url(#clip710)" style="stroke:#000000; stroke-linecap:butt; stroke-linejoin:round; stroke-width:4; stroke-opacity:1; fill:none" points="
  235.283,1386.52 260.693,1386.52 
  "/>
<polyline clip-path="url(#clip710)" style="stroke:#000000; stroke-linecap:butt; stroke-linejoin:round; stroke-width:4; stroke-opacity:1; fill:none" points="
  235.283,1157.6 260.693,1157.6 
  "/>
<polyline clip-path="url(#clip710)" style="stroke:#000000; stroke-linecap:butt; stroke-linejoin:round; stroke-width:4; stroke-opacity:1; fill:none" points="
  235.283,928.681 260.693,928.681 
  "/>
<polyline clip-path="url(#clip710)" style="stroke:#000000; stroke-linecap:butt; stroke-linejoin:round; stroke-width:4; stroke-opacity:1; fill:none" points="
  235.283,699.76 260.693,699.76 
  "/>
<polyline clip-path="url(#clip710)" style="stroke:#000000; stroke-linecap:butt; stroke-linejoin:round; stroke-width:4; stroke-opacity:1; fill:none" points="
  235.283,470.839 260.693,470.839 
  "/>
<polyline clip-path="url(#clip710)" style="stroke:#000000; stroke-linecap:butt; stroke-linejoin:round; stroke-width:4; stroke-opacity:1; fill:none" points="
  235.283,241.918 260.693,241.918 
  "/>
<path clip-path="url(#clip710)" d="M187.338 1372.32 Q183.727 1372.32 181.899 1375.89 Q180.093 1379.43 180.093 1386.56 Q180.093 1393.66 181.899 1397.23 Q183.727 1400.77 187.338 1400.77 Q190.973 1400.77 192.778 1397.23 Q194.607 1393.66 194.607 1386.56 Q194.607 1379.43 192.778 1375.89 Q190.973 1372.32 187.338 1372.32 M187.338 1368.62 Q193.149 1368.62 196.204 1373.22 Q199.283 1377.81 199.283 1386.56 Q199.283 1395.28 196.204 1399.89 Q193.149 1404.47 187.338 1404.47 Q181.528 1404.47 178.45 1399.89 Q175.394 1395.28 175.394 1386.56 Q175.394 1377.81 178.45 1373.22 Q181.528 1368.62 187.338 1368.62 Z" fill="#000000" fill-rule="evenodd" fill-opacity="1" /><path clip-path="url(#clip710)" d="M117.825 1170.95 L125.464 1170.95 L125.464 1144.58 L117.154 1146.25 L117.154 1141.99 L125.418 1140.32 L130.093 1140.32 L130.093 1170.95 L137.732 1170.95 L137.732 1174.88 L117.825 1174.88 L117.825 1170.95 Z" fill="#000000" fill-rule="evenodd" fill-opacity="1" /><path clip-path="url(#clip710)" d="M157.177 1143.4 Q153.566 1143.4 151.737 1146.97 Q149.931 1150.51 149.931 1157.64 Q149.931 1164.74 151.737 1168.31 Q153.566 1171.85 157.177 1171.85 Q160.811 1171.85 162.616 1168.31 Q164.445 1164.74 164.445 1157.64 Q164.445 1150.51 162.616 1146.97 Q160.811 1143.4 157.177 1143.4 M157.177 1139.7 Q162.987 1139.7 166.042 1144.3 Q169.121 1148.89 169.121 1157.64 Q169.121 1166.36 166.042 1170.97 Q162.987 1175.55 157.177 1175.55 Q151.366 1175.55 148.288 1170.97 Q145.232 1166.36 145.232 1157.64 Q145.232 1148.89 148.288 1144.3 Q151.366 1139.7 157.177 1139.7 Z" fill="#000000" fill-rule="evenodd" fill-opacity="1" /><path clip-path="url(#clip710)" d="M187.338 1143.4 Q183.727 1143.4 181.899 1146.97 Q180.093 1150.51 180.093 1157.64 Q180.093 1164.74 181.899 1168.31 Q183.727 1171.85 187.338 1171.85 Q190.973 1171.85 192.778 1168.31 Q194.607 1164.74 194.607 1157.64 Q194.607 1150.51 192.778 1146.97 Q190.973 1143.4 187.338 1143.4 M187.338 1139.7 Q193.149 1139.7 196.204 1144.3 Q199.283 1148.89 199.283 1157.64 Q199.283 1166.36 196.204 1170.97 Q193.149 1175.55 187.338 1175.55 Q181.528 1175.55 178.45 1170.97 Q175.394 1166.36 175.394 1157.64 Q175.394 1148.89 178.45 1144.3 Q181.528 1139.7 187.338 1139.7 Z" fill="#000000" fill-rule="evenodd" fill-opacity="1" /><path clip-path="url(#clip710)" d="M121.043 942.026 L137.362 942.026 L137.362 945.961 L115.418 945.961 L115.418 942.026 Q118.08 939.272 122.663 934.642 Q127.269 929.989 128.45 928.647 Q130.695 926.124 131.575 924.387 Q132.478 922.628 132.478 920.938 Q132.478 918.184 130.533 916.448 Q128.612 914.712 125.51 914.712 Q123.311 914.712 120.857 915.475 Q118.427 916.239 115.649 917.79 L115.649 913.068 Q118.473 911.934 120.927 911.355 Q123.38 910.776 125.418 910.776 Q130.788 910.776 133.982 913.462 Q137.177 916.147 137.177 920.637 Q137.177 922.767 136.367 924.688 Q135.579 926.587 133.473 929.179 Q132.894 929.85 129.792 933.068 Q126.691 936.262 121.043 942.026 Z" fill="#000000" fill-rule="evenodd" fill-opacity="1" /><path clip-path="url(#clip710)" d="M157.177 914.48 Q153.566 914.48 151.737 918.045 Q149.931 921.587 149.931 928.716 Q149.931 935.823 151.737 939.387 Q153.566 942.929 157.177 942.929 Q160.811 942.929 162.616 939.387 Q164.445 935.823 164.445 928.716 Q164.445 921.587 162.616 918.045 Q160.811 914.48 157.177 914.48 M157.177 910.776 Q162.987 910.776 166.042 915.383 Q169.121 919.966 169.121 928.716 Q169.121 937.443 166.042 942.049 Q162.987 946.633 157.177 946.633 Q151.366 946.633 148.288 942.049 Q145.232 937.443 145.232 928.716 Q145.232 919.966 148.288 915.383 Q151.366 910.776 157.177 910.776 Z" fill="#000000" fill-rule="evenodd" fill-opacity="1" /><path clip-path="url(#clip710)" d="M187.338 914.48 Q183.727 914.48 181.899 918.045 Q180.093 921.587 180.093 928.716 Q180.093 935.823 181.899 939.387 Q183.727 942.929 187.338 942.929 Q190.973 942.929 192.778 939.387 Q194.607 935.823 194.607 928.716 Q194.607 921.587 192.778 918.045 Q190.973 914.48 187.338 914.48 M187.338 910.776 Q193.149 910.776 196.204 915.383 Q199.283 919.966 199.283 928.716 Q199.283 937.443 196.204 942.049 Q193.149 946.633 187.338 946.633 Q181.528 946.633 178.45 942.049 Q175.394 937.443 175.394 928.716 Q175.394 919.966 178.45 915.383 Q181.528 910.776 187.338 910.776 Z" fill="#000000" fill-rule="evenodd" fill-opacity="1" /><path clip-path="url(#clip710)" d="M131.181 698.406 Q134.538 699.124 136.413 701.392 Q138.311 703.661 138.311 706.994 Q138.311 712.11 134.792 714.911 Q131.274 717.712 124.793 717.712 Q122.617 717.712 120.302 717.272 Q118.01 716.855 115.556 715.999 L115.556 711.485 Q117.501 712.619 119.816 713.198 Q122.13 713.777 124.654 713.777 Q129.052 713.777 131.343 712.04 Q133.658 710.304 133.658 706.994 Q133.658 703.939 131.505 702.226 Q129.376 700.49 125.556 700.49 L121.529 700.49 L121.529 696.647 L125.742 696.647 Q129.191 696.647 131.019 695.281 Q132.848 693.892 132.848 691.3 Q132.848 688.638 130.95 687.226 Q129.075 685.791 125.556 685.791 Q123.635 685.791 121.436 686.207 Q119.237 686.624 116.598 687.504 L116.598 683.337 Q119.26 682.596 121.575 682.226 Q123.913 681.855 125.973 681.855 Q131.297 681.855 134.399 684.286 Q137.501 686.693 137.501 690.814 Q137.501 693.684 135.857 695.675 Q134.214 697.642 131.181 698.406 Z" fill="#000000" fill-rule="evenodd" fill-opacity="1" /><path clip-path="url(#clip710)" d="M157.177 685.559 Q153.566 685.559 151.737 689.124 Q149.931 692.666 149.931 699.795 Q149.931 706.902 151.737 710.466 Q153.566 714.008 157.177 714.008 Q160.811 714.008 162.616 710.466 Q164.445 706.902 164.445 699.795 Q164.445 692.666 162.616 689.124 Q160.811 685.559 157.177 685.559 M157.177 681.855 Q162.987 681.855 166.042 686.462 Q169.121 691.045 169.121 699.795 Q169.121 708.522 166.042 713.128 Q162.987 717.712 157.177 717.712 Q151.366 717.712 148.288 713.128 Q145.232 708.522 145.232 699.795 Q145.232 691.045 148.288 686.462 Q151.366 681.855 157.177 681.855 Z" fill="#000000" fill-rule="evenodd" fill-opacity="1" /><path clip-path="url(#clip710)" d="M187.338 685.559 Q183.727 685.559 181.899 689.124 Q180.093 692.666 180.093 699.795 Q180.093 706.902 181.899 710.466 Q183.727 714.008 187.338 714.008 Q190.973 714.008 192.778 710.466 Q194.607 706.902 194.607 699.795 Q194.607 692.666 192.778 689.124 Q190.973 685.559 187.338 685.559 M187.338 681.855 Q193.149 681.855 196.204 686.462 Q199.283 691.045 199.283 699.795 Q199.283 708.522 196.204 713.128 Q193.149 717.712 187.338 717.712 Q181.528 717.712 178.45 713.128 Q175.394 708.522 175.394 699.795 Q175.394 691.045 178.45 686.462 Q181.528 681.855 187.338 681.855 Z" fill="#000000" fill-rule="evenodd" fill-opacity="1" /><path clip-path="url(#clip710)" d="M129.862 457.634 L118.056 476.082 L129.862 476.082 L129.862 457.634 M128.635 453.559 L134.515 453.559 L134.515 476.082 L139.445 476.082 L139.445 479.971 L134.515 479.971 L134.515 488.119 L129.862 488.119 L129.862 479.971 L114.26 479.971 L114.26 475.458 L128.635 453.559 Z" fill="#000000" fill-rule="evenodd" fill-opacity="1" /><path clip-path="url(#clip710)" d="M157.177 456.638 Q153.566 456.638 151.737 460.203 Q149.931 463.745 149.931 470.874 Q149.931 477.981 151.737 481.545 Q153.566 485.087 157.177 485.087 Q160.811 485.087 162.616 481.545 Q164.445 477.981 164.445 470.874 Q164.445 463.745 162.616 460.203 Q160.811 456.638 157.177 456.638 M157.177 452.934 Q162.987 452.934 166.042 457.541 Q169.121 462.124 169.121 470.874 Q169.121 479.601 166.042 484.207 Q162.987 488.791 157.177 488.791 Q151.366 488.791 148.288 484.207 Q145.232 479.601 145.232 470.874 Q145.232 462.124 148.288 457.541 Q151.366 452.934 157.177 452.934 Z" fill="#000000" fill-rule="evenodd" fill-opacity="1" /><path clip-path="url(#clip710)" d="M187.338 456.638 Q183.727 456.638 181.899 460.203 Q180.093 463.745 180.093 470.874 Q180.093 477.981 181.899 481.545 Q183.727 485.087 187.338 485.087 Q190.973 485.087 192.778 481.545 Q194.607 477.981 194.607 470.874 Q194.607 463.745 192.778 460.203 Q190.973 456.638 187.338 456.638 M187.338 452.934 Q193.149 452.934 196.204 457.541 Q199.283 462.124 199.283 470.874 Q199.283 479.601 196.204 484.207 Q193.149 488.791 187.338 488.791 Q181.528 488.791 178.45 484.207 Q175.394 479.601 175.394 470.874 Q175.394 462.124 178.45 457.541 Q181.528 452.934 187.338 452.934 Z" fill="#000000" fill-rule="evenodd" fill-opacity="1" /><path clip-path="url(#clip710)" d="M117.061 224.638 L135.417 224.638 L135.417 228.574 L121.343 228.574 L121.343 237.046 Q122.362 236.699 123.38 236.537 Q124.399 236.351 125.418 236.351 Q131.205 236.351 134.584 239.523 Q137.964 242.694 137.964 248.111 Q137.964 253.689 134.492 256.791 Q131.019 259.87 124.7 259.87 Q122.524 259.87 120.255 259.499 Q118.01 259.129 115.603 258.388 L115.603 253.689 Q117.686 254.824 119.908 255.379 Q122.13 255.935 124.607 255.935 Q128.612 255.935 130.95 253.828 Q133.288 251.722 133.288 248.111 Q133.288 244.499 130.95 242.393 Q128.612 240.287 124.607 240.287 Q122.732 240.287 120.857 240.703 Q119.006 241.12 117.061 242 L117.061 224.638 Z" fill="#000000" fill-rule="evenodd" fill-opacity="1" /><path clip-path="url(#clip710)" d="M157.177 227.717 Q153.566 227.717 151.737 231.282 Q149.931 234.824 149.931 241.953 Q149.931 249.06 151.737 252.624 Q153.566 256.166 157.177 256.166 Q160.811 256.166 162.616 252.624 Q164.445 249.06 164.445 241.953 Q164.445 234.824 162.616 231.282 Q160.811 227.717 157.177 227.717 M157.177 224.013 Q162.987 224.013 166.042 228.62 Q169.121 233.203 169.121 241.953 Q169.121 250.68 166.042 255.286 Q162.987 259.87 157.177 259.87 Q151.366 259.87 148.288 255.286 Q145.232 250.68 145.232 241.953 Q145.232 233.203 148.288 228.62 Q151.366 224.013 157.177 224.013 Z" fill="#000000" fill-rule="evenodd" fill-opacity="1" /><path clip-path="url(#clip710)" d="M187.338 227.717 Q183.727 227.717 181.899 231.282 Q180.093 234.824 180.093 241.953 Q180.093 249.06 181.899 252.624 Q183.727 256.166 187.338 256.166 Q190.973 256.166 192.778 252.624 Q194.607 249.06 194.607 241.953 Q194.607 234.824 192.778 231.282 Q190.973 227.717 187.338 227.717 M187.338 224.013 Q193.149 224.013 196.204 228.62 Q199.283 233.203 199.283 241.953 Q199.283 250.68 196.204 255.286 Q193.149 259.87 187.338 259.87 Q181.528 259.87 178.45 255.286 Q175.394 250.68 175.394 241.953 Q175.394 233.203 178.45 228.62 Q181.528 224.013 187.338 224.013 Z" fill="#000000" fill-rule="evenodd" fill-opacity="1" /><path clip-path="url(#clip710)" d="M29.7248 797.562 L35.1993 797.562 Q33.8307 800.045 33.1623 802.559 Q32.4621 805.042 32.4621 807.588 Q32.4621 813.286 36.0905 816.437 Q39.6872 819.588 46.212 819.588 Q52.7369 819.588 56.3653 816.437 Q59.9619 813.286 59.9619 807.588 Q59.9619 805.042 59.2935 802.559 Q58.5933 800.045 57.2247 797.562 L62.6355 797.562 Q63.7814 800.013 64.3543 802.655 Q64.9272 805.265 64.9272 808.225 Q64.9272 816.277 59.8664 821.02 Q54.8057 825.762 46.212 825.762 Q37.491 825.762 32.4939 820.988 Q27.4968 816.182 27.4968 807.843 Q27.4968 805.137 28.0697 802.559 Q28.6108 799.981 29.7248 797.562 Z" fill="#000000" fill-rule="evenodd" fill-opacity="1" /><path clip-path="url(#clip710)" d="M32.4621 773.564 Q32.4621 778.274 36.1542 781.011 Q39.8145 783.749 46.212 783.749 Q52.6095 783.749 56.3017 781.043 Q59.9619 778.306 59.9619 773.564 Q59.9619 768.885 56.2698 766.147 Q52.5777 763.41 46.212 763.41 Q39.8781 763.41 36.186 766.147 Q32.4621 768.885 32.4621 773.564 M27.4968 773.564 Q27.4968 765.925 32.4621 761.564 Q37.4273 757.204 46.212 757.204 Q54.9649 757.204 59.9619 761.564 Q64.9272 765.925 64.9272 773.564 Q64.9272 781.234 59.9619 785.595 Q54.9649 789.923 46.212 789.923 Q37.4273 789.923 32.4621 785.595 Q27.4968 781.234 27.4968 773.564 Z" fill="#000000" fill-rule="evenodd" fill-opacity="1" /><path clip-path="url(#clip710)" d="M49.9359 748.101 L28.3562 748.101 L28.3562 742.244 L49.7131 742.244 Q54.7739 742.244 57.3202 740.271 Q59.8346 738.298 59.8346 734.351 Q59.8346 729.608 56.8109 726.871 Q53.7872 724.102 48.5673 724.102 L28.3562 724.102 L28.3562 718.246 L64.0042 718.246 L64.0042 724.102 L58.5296 724.102 Q61.7762 726.234 63.3676 729.067 Q64.9272 731.868 64.9272 735.592 Q64.9272 741.735 61.1078 744.918 Q57.2883 748.101 49.9359 748.101 M27.4968 733.364 L27.4968 733.364 Z" fill="#000000" fill-rule="evenodd" fill-opacity="1" /><path clip-path="url(#clip710)" d="M42.4881 676.55 L64.0042 676.55 L64.0042 682.407 L42.679 682.407 Q37.6183 682.407 35.1038 684.38 Q32.5894 686.353 32.5894 690.3 Q32.5894 695.043 35.6131 697.78 Q38.6368 700.517 43.8567 700.517 L64.0042 700.517 L64.0042 706.405 L28.3562 706.405 L28.3562 700.517 L33.8944 700.517 Q30.6797 698.416 29.0883 695.584 Q27.4968 692.719 27.4968 688.995 Q27.4968 682.852 31.3163 679.701 Q35.1038 676.55 42.4881 676.55 Z" fill="#000000" fill-rule="evenodd" fill-opacity="1" /><path clip-path="url(#clip710)" d="M18.2347 659.076 L28.3562 659.076 L28.3562 647.013 L32.9077 647.013 L32.9077 659.076 L52.2594 659.076 Q56.6199 659.076 57.8613 657.899 Q59.1026 656.689 59.1026 653.029 L59.1026 647.013 L64.0042 647.013 L64.0042 653.029 Q64.0042 659.808 61.4897 662.386 Q58.9434 664.965 52.2594 664.965 L32.9077 664.965 L32.9077 669.261 L28.3562 669.261 L28.3562 664.965 L18.2347 664.965 L18.2347 659.076 Z" fill="#000000" fill-rule="evenodd" fill-opacity="1" /><path clip-path="url(#clip713)" d="
M588.195 1375.08 L588.195 1386.52 L658.777 1386.52 L658.777 1375.08 L588.195 1375.08 L588.195 1375.08  Z
  " fill="#009af9" fill-rule="evenodd" fill-opacity="1"/>
<polyline clip-path="url(#clip713)" style="stroke:#009af9; stroke-linecap:butt; stroke-linejoin:round; stroke-width:4; stroke-opacity:1; fill:none" points="
  588.195,1375.08 588.195,1386.52 658.777,1386.52 658.777,1375.08 588.195,1375.08 
  "/>
<path clip-path="url(#clip713)" d="
M658.777 1370.5 L658.777 1386.52 L729.36 1386.52 L729.36 1370.5 L658.777 1370.5 L658.777 1370.5  Z
  " fill="#009af9" fill-rule="evenodd" fill-opacity="1"/>
<polyline clip-path="url(#clip713)" style="stroke:#009af9; stroke-linecap:butt; stroke-linejoin:round; stroke-width:4; stroke-opacity:1; fill:none" points="
  658.777,1370.5 658.777,1386.52 729.36,1386.52 729.36,1370.5 658.777,1370.5 
  "/>
<path clip-path="url(#clip713)" d="
M729.36 1331.58 L729.36 1386.52 L799.942 1386.52 L799.942 1331.58 L729.36 1331.58 L729.36 1331.58  Z
  " fill="#009af9" fill-rule="evenodd" fill-opacity="1"/>
<polyline clip-path="url(#clip713)" style="stroke:#009af9; stroke-linecap:butt; stroke-linejoin:round; stroke-width:4; stroke-opacity:1; fill:none" points="
  729.36,1331.58 729.36,1386.52 799.942,1386.52 799.942,1331.58 729.36,1331.58 
  "/>
<path clip-path="url(#clip713)" d="
M799.942 1258.33 L799.942 1386.52 L870.525 1386.52 L870.525 1258.33 L799.942 1258.33 L799.942 1258.33  Z
  " fill="#009af9" fill-rule="evenodd" fill-opacity="1"/>
<polyline clip-path="url(#clip713)" style="stroke:#009af9; stroke-linecap:butt; stroke-linejoin:round; stroke-width:4; stroke-opacity:1; fill:none" points="
  799.942,1258.33 799.942,1386.52 870.525,1386.52 870.525,1258.33 799.942,1258.33 
  "/>
<path clip-path="url(#clip713)" d="
M870.525 1187.36 L870.525 1386.52 L941.107 1386.52 L941.107 1187.36 L870.525 1187.36 L870.525 1187.36  Z
  " fill="#009af9" fill-rule="evenodd" fill-opacity="1"/>
<polyline clip-path="url(#clip713)" style="stroke:#009af9; stroke-linecap:butt; stroke-linejoin:round; stroke-width:4; stroke-opacity:1; fill:none" points="
  870.525,1187.36 870.525,1386.52 941.107,1386.52 941.107,1187.36 870.525,1187.36 
  "/>
<path clip-path="url(#clip713)" d="
M941.107 1125.55 L941.107 1386.52 L1011.69 1386.52 L1011.69 1125.55 L941.107 1125.55 L941.107 1125.55  Z
  " fill="#009af9" fill-rule="evenodd" fill-opacity="1"/>
<polyline clip-path="url(#clip713)" style="stroke:#009af9; stroke-linecap:butt; stroke-linejoin:round; stroke-width:4; stroke-opacity:1; fill:none" points="
  941.107,1125.55 941.107,1386.52 1011.69,1386.52 1011.69,1125.55 941.107,1125.55 
  "/>
<path clip-path="url(#clip713)" d="
M1011.69 1004.23 L1011.69 1386.52 L1082.27 1386.52 L1082.27 1004.23 L1011.69 1004.23 L1011.69 1004.23  Z
  " fill="#009af9" fill-rule="evenodd" fill-opacity="1"/>
<polyline clip-path="url(#clip713)" style="stroke:#009af9; stroke-linecap:butt; stroke-linejoin:round; stroke-width:4; stroke-opacity:1; fill:none" points="
  1011.69,1004.23 1011.69,1386.52 1082.27,1386.52 1082.27,1004.23 1011.69,1004.23 
  "/>
<path clip-path="url(#clip713)" d="
M1082.27 871.451 L1082.27 1386.52 L1152.85 1386.52 L1152.85 871.451 L1082.27 871.451 L1082.27 871.451  Z
  " fill="#009af9" fill-rule="evenodd" fill-opacity="1"/>
<polyline clip-path="url(#clip713)" style="stroke:#009af9; stroke-linecap:butt; stroke-linejoin:round; stroke-width:4; stroke-opacity:1; fill:none" points="
  1082.27,871.451 1082.27,1386.52 1152.85,1386.52 1152.85,871.451 1082.27,871.451 
  "/>
<path clip-path="url(#clip713)" d="
M1152.85 566.986 L1152.85 1386.52 L1223.44 1386.52 L1223.44 566.986 L1152.85 566.986 L1152.85 566.986  Z
  " fill="#009af9" fill-rule="evenodd" fill-opacity="1"/>
<polyline clip-path="url(#clip713)" style="stroke:#009af9; stroke-linecap:butt; stroke-linejoin:round; stroke-width:4; stroke-opacity:1; fill:none" points="
  1152.85,566.986 1152.85,1386.52 1223.44,1386.52 1223.44,566.986 1152.85,566.986 
  "/>
<path clip-path="url(#clip713)" d="
M1223.44 393.006 L1223.44 1386.52 L1294.02 1386.52 L1294.02 393.006 L1223.44 393.006 L1223.44 393.006  Z
  " fill="#009af9" fill-rule="evenodd" fill-opacity="1"/>
<polyline clip-path="url(#clip713)" style="stroke:#009af9; stroke-linecap:butt; stroke-linejoin:round; stroke-width:4; stroke-opacity:1; fill:none" points="
  1223.44,393.006 1223.44,1386.52 1294.02,1386.52 1294.02,393.006 1223.44,393.006 
  "/>
<path clip-path="url(#clip713)" d="
M1294.02 157.218 L1294.02 1386.52 L1364.6 1386.52 L1364.6 157.218 L1294.02 157.218 L1294.02 157.218  Z
  " fill="#009af9" fill-rule="evenodd" fill-opacity="1"/>
<polyline clip-path="url(#clip713)" style="stroke:#009af9; stroke-linecap:butt; stroke-linejoin:round; stroke-width:4; stroke-opacity:1; fill:none" points="
  1294.02,157.218 1294.02,1386.52 1364.6,1386.52 1364.6,157.218 1294.02,157.218 
  "/>
<path clip-path="url(#clip713)" d="
M1364.6 88.5414 L1364.6 1386.52 L1435.18 1386.52 L1435.18 88.5414 L1364.6 88.5414 L1364.6 88.5414  Z
  " fill="#009af9" fill-rule="evenodd" fill-opacity="1"/>
<polyline clip-path="url(#clip713)" style="stroke:#009af9; stroke-linecap:butt; stroke-linejoin:round; stroke-width:4; stroke-opacity:1; fill:none" points="
  1364.6,88.5414 1364.6,1386.52 1435.18,1386.52 1435.18,88.5414 1364.6,88.5414 
  "/>
<path clip-path="url(#clip713)" d="
M1435.18 86.2522 L1435.18 1386.52 L1505.77 1386.52 L1505.77 86.2522 L1435.18 86.2522 L1435.18 86.2522  Z
  " fill="#009af9" fill-rule="evenodd" fill-opacity="1"/>
<polyline clip-path="url(#clip713)" style="stroke:#009af9; stroke-linecap:butt; stroke-linejoin:round; stroke-width:4; stroke-opacity:1; fill:none" points="
  1435.18,86.2522 1435.18,1386.52 1505.77,1386.52 1505.77,86.2522 1435.18,86.2522 
  "/>
<path clip-path="url(#clip713)" d="
M1505.77 296.86 L1505.77 1386.52 L1576.35 1386.52 L1576.35 296.86 L1505.77 296.86 L1505.77 296.86  Z
  " fill="#009af9" fill-rule="evenodd" fill-opacity="1"/>
<polyline clip-path="url(#clip713)" style="stroke:#009af9; stroke-linecap:butt; stroke-linejoin:round; stroke-width:4; stroke-opacity:1; fill:none" points="
  1505.77,296.86 1505.77,1386.52 1576.35,1386.52 1576.35,296.86 1505.77,296.86 
  "/>
<path clip-path="url(#clip713)" d="
M1576.35 550.962 L1576.35 1386.52 L1646.93 1386.52 L1646.93 550.962 L1576.35 550.962 L1576.35 550.962  Z
  " fill="#009af9" fill-rule="evenodd" fill-opacity="1"/>
<polyline clip-path="url(#clip713)" style="stroke:#009af9; stroke-linecap:butt; stroke-linejoin:round; stroke-width:4; stroke-opacity:1; fill:none" points="
  1576.35,550.962 1576.35,1386.52 1646.93,1386.52 1646.93,550.962 1576.35,550.962 
  "/>
<path clip-path="url(#clip713)" d="
M1646.93 912.657 L1646.93 1386.52 L1717.51 1386.52 L1717.51 912.657 L1646.93 912.657 L1646.93 912.657  Z
  " fill="#009af9" fill-rule="evenodd" fill-opacity="1"/>
<polyline clip-path="url(#clip713)" style="stroke:#009af9; stroke-linecap:butt; stroke-linejoin:round; stroke-width:4; stroke-opacity:1; fill:none" points="
  1646.93,912.657 1646.93,1386.52 1717.51,1386.52 1717.51,912.657 1646.93,912.657 
  "/>
<path clip-path="url(#clip713)" d="
M1717.51 1272.06 L1717.51 1386.52 L1788.1 1386.52 L1788.1 1272.06 L1717.51 1272.06 L1717.51 1272.06  Z
  " fill="#009af9" fill-rule="evenodd" fill-opacity="1"/>
<polyline clip-path="url(#clip713)" style="stroke:#009af9; stroke-linecap:butt; stroke-linejoin:round; stroke-width:4; stroke-opacity:1; fill:none" points="
  1717.51,1272.06 1717.51,1386.52 1788.1,1386.52 1788.1,1272.06 1717.51,1272.06 
  "/>
</svg>
