<?xml version="1.0" encoding="utf-8"?>
<svg xmlns="http://www.w3.org/2000/svg" xmlns:xlink="http://www.w3.org/1999/xlink" width="600" height="400" viewBox="0 0 2400 1600">
<defs>
  <clipPath id="clip340">
    <rect x="0" y="0" width="2400" height="1600"/>
  </clipPath>
</defs>
<path clip-path="url(#clip340)" d="
M0 1600 L2400 1600 L2400 0 L0 0  Z
  " fill="#ffffff" fill-rule="evenodd" fill-opacity="1"/>
<defs>
  <clipPath id="clip341">
    <rect x="480" y="0" width="1681" height="1600"/>
  </clipPath>
</defs>
<path clip-path="url(#clip340)" d="
M211.602 1423.18 L2352.76 1423.18 L2352.76 47.2441 L211.602 47.2441  Z
  " fill="#ffffff" fill-rule="evenodd" fill-opacity="1"/>
<defs>
  <clipPath id="clip342">
    <rect x="211" y="47" width="2142" height="1377"/>
  </clipPath>
</defs>
<polyline clip-path="url(#clip342)" style="stroke:#000000; stroke-width:2; stroke-opacity:0.1; fill:none" points="
  329.37,1423.18 329.37,47.2441 
  "/>
<polyline clip-path="url(#clip342)" style="stroke:#000000; stroke-width:2; stroke-opacity:0.1; fill:none" points="
  737.717,1423.18 737.717,47.2441 
  "/>
<polyline clip-path="url(#clip342)" style="stroke:#000000; stroke-width:2; stroke-opacity:0.1; fill:none" points="
  1146.06,1423.18 1146.06,47.2441 
  "/>
<polyline clip-path="url(#clip342)" style="stroke:#000000; stroke-width:2; stroke-opacity:0.1; fill:none" points="
  1554.41,1423.18 1554.41,47.2441 
  "/>
<polyline clip-path="url(#clip342)" style="stroke:#000000; stroke-width:2; stroke-opacity:0.1; fill:none" points="
  1962.76,1423.18 1962.76,47.2441 
  "/>
<polyline clip-path="url(#clip340)" style="stroke:#000000; stroke-width:4; stroke-opacity:1; fill:none" points="
  211.602,1423.18 2352.76,1423.18 
  "/>
<polyline clip-path="url(#clip340)" style="stroke:#000000; stroke-width:4; stroke-opacity:1; fill:none" points="
  329.37,1423.18 329.37,1406.67 
  "/>
<polyline clip-path="url(#clip340)" style="stroke:#000000; stroke-width:4; stroke-opacity:1; fill:none" points="
  737.717,1423.18 737.717,1406.67 
  "/>
<polyline clip-path="url(#clip340)" style="stroke:#000000; stroke-width:4; stroke-opacity:1; fill:none" points="
  1146.06,1423.18 1146.06,1406.67 
  "/>
<polyline clip-path="url(#clip340)" style="stroke:#000000; stroke-width:4; stroke-opacity:1; fill:none" points="
  1554.41,1423.18 1554.41,1406.67 
  "/>
<polyline clip-path="url(#clip340)" style="stroke:#000000; stroke-width:4; stroke-opacity:1; fill:none" points="
  1962.76,1423.18 1962.76,1406.67 
  "/>
<path clip-path="url(#clip340)" d="M 0 0 M329.37 1452.37 Q325.759 1452.37 323.93 1455.94 Q322.124 1459.48 322.124 1466.61 Q322.124 1473.71 323.93 1477.28 Q325.759 1480.82 329.37 1480.82 Q333.004 1480.82 334.809 1477.28 Q336.638 1473.71 336.638 1466.61 Q336.638 1459.48 334.809 1455.94 Q333.004 1452.37 329.37 1452.37 M329.37 1448.67 Q335.18 1448.67 338.235 1453.27 Q341.314 1457.86 341.314 1466.61 Q341.314 1475.33 338.235 1479.94 Q335.18 1484.52 329.37 1484.52 Q323.56 1484.52 320.481 1479.94 Q317.425 1475.33 317.425 1466.61 Q317.425 1457.86 320.481 1453.27 Q323.56 1448.67 329.37 1448.67 Z" fill="#000000" fill-rule="evenodd" fill-opacity="1" /><path clip-path="url(#clip340)" d="M 0 0 M741.964 1465.22 Q745.321 1465.94 747.196 1468.2 Q749.094 1470.47 749.094 1473.81 Q749.094 1478.92 745.575 1481.72 Q742.057 1484.52 735.575 1484.52 Q733.399 1484.52 731.085 1484.08 Q728.793 1483.67 726.339 1482.81 L726.339 1478.3 Q728.284 1479.43 730.599 1480.01 Q732.913 1480.59 735.437 1480.59 Q739.835 1480.59 742.126 1478.85 Q744.441 1477.12 744.441 1473.81 Q744.441 1470.75 742.288 1469.04 Q740.159 1467.3 736.339 1467.3 L732.312 1467.3 L732.312 1463.46 L736.524 1463.46 Q739.974 1463.46 741.802 1462.09 Q743.631 1460.7 743.631 1458.11 Q743.631 1455.45 741.733 1454.04 Q739.858 1452.6 736.339 1452.6 Q734.418 1452.6 732.219 1453.02 Q730.02 1453.44 727.381 1454.31 L727.381 1450.15 Q730.043 1449.41 732.358 1449.04 Q734.696 1448.67 736.756 1448.67 Q742.08 1448.67 745.182 1451.1 Q748.284 1453.5 748.284 1457.63 Q748.284 1460.5 746.64 1462.49 Q744.997 1464.45 741.964 1465.22 Z" fill="#000000" fill-rule="evenodd" fill-opacity="1" /><path clip-path="url(#clip340)" d="M 0 0 M1146.47 1464.71 Q1143.32 1464.71 1141.47 1466.86 Q1139.64 1469.01 1139.64 1472.76 Q1139.64 1476.49 1141.47 1478.67 Q1143.32 1480.82 1146.47 1480.82 Q1149.62 1480.82 1151.45 1478.67 Q1153.3 1476.49 1153.3 1472.76 Q1153.3 1469.01 1151.45 1466.86 Q1149.62 1464.71 1146.47 1464.71 M1155.75 1450.06 L1155.75 1454.31 Q1153.99 1453.48 1152.19 1453.04 Q1150.4 1452.6 1148.64 1452.6 Q1144.01 1452.6 1141.56 1455.73 Q1139.13 1458.85 1138.78 1465.17 Q1140.15 1463.16 1142.21 1462.09 Q1144.27 1461 1146.75 1461 Q1151.95 1461 1154.96 1464.18 Q1158 1467.32 1158 1472.76 Q1158 1478.09 1154.85 1481.31 Q1151.7 1484.52 1146.47 1484.52 Q1140.47 1484.52 1137.3 1479.94 Q1134.13 1475.33 1134.13 1466.61 Q1134.13 1458.41 1138.02 1453.55 Q1141.91 1448.67 1148.46 1448.67 Q1150.22 1448.67 1152 1449.01 Q1153.81 1449.36 1155.75 1450.06 Z" fill="#000000" fill-rule="evenodd" fill-opacity="1" /><path clip-path="url(#clip340)" d="M 0 0 M1544.71 1483.13 L1544.71 1478.88 Q1546.47 1479.71 1548.28 1480.15 Q1550.08 1480.59 1551.82 1480.59 Q1556.45 1480.59 1558.88 1477.49 Q1561.33 1474.36 1561.68 1468.02 Q1560.34 1470.01 1558.28 1471.07 Q1556.22 1472.14 1553.72 1472.14 Q1548.53 1472.14 1545.5 1469.01 Q1542.49 1465.87 1542.49 1460.43 Q1542.49 1455.1 1545.64 1451.88 Q1548.79 1448.67 1554.02 1448.67 Q1560.01 1448.67 1563.16 1453.27 Q1566.33 1457.86 1566.33 1466.61 Q1566.33 1474.78 1562.44 1479.66 Q1558.58 1484.52 1552.03 1484.52 Q1550.27 1484.52 1548.46 1484.18 Q1546.66 1483.83 1544.71 1483.13 M1554.02 1468.48 Q1557.17 1468.48 1558.99 1466.33 Q1560.85 1464.18 1560.85 1460.43 Q1560.85 1456.7 1558.99 1454.55 Q1557.17 1452.37 1554.02 1452.37 Q1550.87 1452.37 1549.02 1454.55 Q1547.19 1456.7 1547.19 1460.43 Q1547.19 1464.18 1549.02 1466.33 Q1550.87 1468.48 1554.02 1468.48 Z" fill="#000000" fill-rule="evenodd" fill-opacity="1" /><path clip-path="url(#clip340)" d="M 0 0 M1940.43 1479.92 L1948.07 1479.92 L1948.07 1453.55 L1939.76 1455.22 L1939.76 1450.96 L1948.02 1449.29 L1952.7 1449.29 L1952.7 1479.92 L1960.34 1479.92 L1960.34 1483.85 L1940.43 1483.85 L1940.43 1479.92 Z" fill="#000000" fill-rule="evenodd" fill-opacity="1" /><path clip-path="url(#clip340)" d="M 0 0 M1969.44 1479.92 L1985.75 1479.92 L1985.75 1483.85 L1963.81 1483.85 L1963.81 1479.92 Q1966.47 1477.16 1971.06 1472.53 Q1975.66 1467.88 1976.84 1466.54 Q1979.09 1464.01 1979.97 1462.28 Q1980.87 1460.52 1980.87 1458.83 Q1980.87 1456.07 1978.93 1454.34 Q1977 1452.6 1973.9 1452.6 Q1971.7 1452.6 1969.25 1453.37 Q1966.82 1454.13 1964.04 1455.68 L1964.04 1450.96 Q1966.87 1449.82 1969.32 1449.25 Q1971.77 1448.67 1973.81 1448.67 Q1979.18 1448.67 1982.38 1451.35 Q1985.57 1454.04 1985.57 1458.53 Q1985.57 1460.66 1984.76 1462.58 Q1983.97 1464.48 1981.87 1467.07 Q1981.29 1467.74 1978.19 1470.96 Q1975.08 1474.15 1969.44 1479.92 Z" fill="#000000" fill-rule="evenodd" fill-opacity="1" /><path clip-path="url(#clip340)" d="M 0 0 M1272.12 1562.7 L1272.12 1581.6 L1266.23 1581.6 L1266.23 1532.4 L1272.12 1532.4 L1272.12 1537.81 Q1273.97 1534.62 1276.77 1533.1 Q1279.6 1531.54 1283.52 1531.54 Q1290.01 1531.54 1294.05 1536.69 Q1298.13 1541.85 1298.13 1550.25 Q1298.13 1558.65 1294.05 1563.81 Q1290.01 1568.97 1283.52 1568.97 Q1279.6 1568.97 1276.77 1567.44 Q1273.97 1565.88 1272.12 1562.7 M1292.05 1550.25 Q1292.05 1543.79 1289.37 1540.13 Q1286.73 1536.44 1282.08 1536.44 Q1277.44 1536.44 1274.76 1540.13 Q1272.12 1543.79 1272.12 1550.25 Q1272.12 1556.71 1274.76 1560.4 Q1277.44 1564.07 1282.08 1564.07 Q1286.73 1564.07 1289.37 1560.4 Q1292.05 1556.71 1292.05 1550.25 Z" fill="#000000" fill-rule="evenodd" fill-opacity="1" /><polyline clip-path="url(#clip342)" style="stroke:#000000; stroke-width:2; stroke-opacity:0.1; fill:none" points="
  211.602,1384.24 2352.76,1384.24 
  "/>
<polyline clip-path="url(#clip342)" style="stroke:#000000; stroke-width:2; stroke-opacity:0.1; fill:none" points="
  211.602,1100.56 2352.76,1100.56 
  "/>
<polyline clip-path="url(#clip342)" style="stroke:#000000; stroke-width:2; stroke-opacity:0.1; fill:none" points="
  211.602,816.891 2352.76,816.891 
  "/>
<polyline clip-path="url(#clip342)" style="stroke:#000000; stroke-width:2; stroke-opacity:0.1; fill:none" points="
  211.602,533.217 2352.76,533.217 
  "/>
<polyline clip-path="url(#clip342)" style="stroke:#000000; stroke-width:2; stroke-opacity:0.1; fill:none" points="
  211.602,249.544 2352.76,249.544 
  "/>
<polyline clip-path="url(#clip340)" style="stroke:#000000; stroke-width:4; stroke-opacity:1; fill:none" points="
  211.602,1423.18 211.602,47.2441 
  "/>
<polyline clip-path="url(#clip340)" style="stroke:#000000; stroke-width:4; stroke-opacity:1; fill:none" points="
  211.602,1384.24 237.296,1384.24 
  "/>
<polyline clip-path="url(#clip340)" style="stroke:#000000; stroke-width:4; stroke-opacity:1; fill:none" points="
  211.602,1100.56 237.296,1100.56 
  "/>
<polyline clip-path="url(#clip340)" style="stroke:#000000; stroke-width:4; stroke-opacity:1; fill:none" points="
  211.602,816.891 237.296,816.891 
  "/>
<polyline clip-path="url(#clip340)" style="stroke:#000000; stroke-width:4; stroke-opacity:1; fill:none" points="
  211.602,533.217 237.296,533.217 
  "/>
<polyline clip-path="url(#clip340)" style="stroke:#000000; stroke-width:4; stroke-opacity:1; fill:none" points="
  211.602,249.544 237.296,249.544 
  "/>
<path clip-path="url(#clip340)" d="M 0 0 M126.691 1370.04 Q123.08 1370.04 121.251 1373.6 Q119.445 1377.14 119.445 1384.27 Q119.445 1391.38 121.251 1394.94 Q123.08 1398.49 126.691 1398.49 Q130.325 1398.49 132.13 1394.94 Q133.959 1391.38 133.959 1384.27 Q133.959 1377.14 132.13 1373.6 Q130.325 1370.04 126.691 1370.04 M126.691 1366.33 Q132.501 1366.33 135.556 1370.94 Q138.635 1375.52 138.635 1384.27 Q138.635 1393 135.556 1397.61 Q132.501 1402.19 126.691 1402.19 Q120.88 1402.19 117.802 1397.61 Q114.746 1393 114.746 1384.27 Q114.746 1375.52 117.802 1370.94 Q120.88 1366.33 126.691 1366.33 Z" fill="#000000" fill-rule="evenodd" fill-opacity="1" /><path clip-path="url(#clip340)" d="M 0 0 M143.704 1395.64 L148.589 1395.64 L148.589 1401.52 L143.704 1401.52 L143.704 1395.64 Z" fill="#000000" fill-rule="evenodd" fill-opacity="1" /><path clip-path="url(#clip340)" d="M 0 0 M163.658 1370.04 Q160.047 1370.04 158.218 1373.6 Q156.413 1377.14 156.413 1384.27 Q156.413 1391.38 158.218 1394.94 Q160.047 1398.49 163.658 1398.49 Q167.292 1398.49 169.098 1394.94 Q170.927 1391.38 170.927 1384.27 Q170.927 1377.14 169.098 1373.6 Q167.292 1370.04 163.658 1370.04 M163.658 1366.33 Q169.468 1366.33 172.524 1370.94 Q175.602 1375.52 175.602 1384.27 Q175.602 1393 172.524 1397.61 Q169.468 1402.19 163.658 1402.19 Q157.848 1402.19 154.769 1397.61 Q151.714 1393 151.714 1384.27 Q151.714 1375.52 154.769 1370.94 Q157.848 1366.33 163.658 1366.33 Z" fill="#000000" fill-rule="evenodd" fill-opacity="1" /><path clip-path="url(#clip340)" d="M 0 0 M127.917 1086.36 Q124.306 1086.36 122.478 1089.93 Q120.672 1093.47 120.672 1100.6 Q120.672 1107.71 122.478 1111.27 Q124.306 1114.81 127.917 1114.81 Q131.552 1114.81 133.357 1111.27 Q135.186 1107.71 135.186 1100.6 Q135.186 1093.47 133.357 1089.93 Q131.552 1086.36 127.917 1086.36 M127.917 1082.66 Q133.728 1082.66 136.783 1087.27 Q139.862 1091.85 139.862 1100.6 Q139.862 1109.33 136.783 1113.93 Q133.728 1118.52 127.917 1118.52 Q122.107 1118.52 119.029 1113.93 Q115.973 1109.33 115.973 1100.6 Q115.973 1091.85 119.029 1087.27 Q122.107 1082.66 127.917 1082.66 Z" fill="#000000" fill-rule="evenodd" fill-opacity="1" /><path clip-path="url(#clip340)" d="M 0 0 M144.931 1111.97 L149.816 1111.97 L149.816 1117.84 L144.931 1117.84 L144.931 1111.97 Z" fill="#000000" fill-rule="evenodd" fill-opacity="1" /><path clip-path="url(#clip340)" d="M 0 0 M155.695 1113.91 L163.334 1113.91 L163.334 1087.54 L155.024 1089.21 L155.024 1084.95 L163.288 1083.28 L167.964 1083.28 L167.964 1113.91 L175.602 1113.91 L175.602 1117.84 L155.695 1117.84 L155.695 1113.91 Z" fill="#000000" fill-rule="evenodd" fill-opacity="1" /><path clip-path="url(#clip340)" d="M 0 0 M128.288 802.69 Q124.677 802.69 122.848 806.255 Q121.043 809.796 121.043 816.926 Q121.043 824.032 122.848 827.597 Q124.677 831.139 128.288 831.139 Q131.922 831.139 133.728 827.597 Q135.556 824.032 135.556 816.926 Q135.556 809.796 133.728 806.255 Q131.922 802.69 128.288 802.69 M128.288 798.986 Q134.098 798.986 137.154 803.593 Q140.232 808.176 140.232 816.926 Q140.232 825.653 137.154 830.259 Q134.098 834.842 128.288 834.842 Q122.478 834.842 119.399 830.259 Q116.343 825.653 116.343 816.926 Q116.343 808.176 119.399 803.593 Q122.478 798.986 128.288 798.986 Z" fill="#000000" fill-rule="evenodd" fill-opacity="1" /><path clip-path="url(#clip340)" d="M 0 0 M145.302 828.291 L150.186 828.291 L150.186 834.171 L145.302 834.171 L145.302 828.291 Z" fill="#000000" fill-rule="evenodd" fill-opacity="1" /><path clip-path="url(#clip340)" d="M 0 0 M159.283 830.236 L175.602 830.236 L175.602 834.171 L153.658 834.171 L153.658 830.236 Q156.32 827.481 160.903 822.852 Q165.51 818.199 166.69 816.856 Q168.936 814.333 169.815 812.597 Q170.718 810.838 170.718 809.148 Q170.718 806.393 168.774 804.657 Q166.852 802.921 163.751 802.921 Q161.552 802.921 159.098 803.685 Q156.667 804.449 153.89 806 L153.89 801.278 Q156.714 800.143 159.167 799.565 Q161.621 798.986 163.658 798.986 Q169.028 798.986 172.223 801.671 Q175.417 804.356 175.417 808.847 Q175.417 810.977 174.607 812.898 Q173.82 814.796 171.714 817.389 Q171.135 818.06 168.033 821.278 Q164.931 824.472 159.283 830.236 Z" fill="#000000" fill-rule="evenodd" fill-opacity="1" /><path clip-path="url(#clip340)" d="M 0 0 M127.339 519.016 Q123.728 519.016 121.899 522.581 Q120.093 526.123 120.093 533.252 Q120.093 540.359 121.899 543.923 Q123.728 547.465 127.339 547.465 Q130.973 547.465 132.779 543.923 Q134.607 540.359 134.607 533.252 Q134.607 526.123 132.779 522.581 Q130.973 519.016 127.339 519.016 M127.339 515.312 Q133.149 515.312 136.204 519.919 Q139.283 524.502 139.283 533.252 Q139.283 541.979 136.204 546.585 Q133.149 551.169 127.339 551.169 Q121.529 551.169 118.45 546.585 Q115.394 541.979 115.394 533.252 Q115.394 524.502 118.45 519.919 Q121.529 515.312 127.339 515.312 Z" fill="#000000" fill-rule="evenodd" fill-opacity="1" /><path clip-path="url(#clip340)" d="M 0 0 M144.353 544.618 L149.237 544.618 L149.237 550.497 L144.353 550.497 L144.353 544.618 Z" fill="#000000" fill-rule="evenodd" fill-opacity="1" /><path clip-path="url(#clip340)" d="M 0 0 M168.473 531.863 Q171.829 532.581 173.704 534.849 Q175.602 537.118 175.602 540.451 Q175.602 545.567 172.084 548.368 Q168.565 551.169 162.084 551.169 Q159.908 551.169 157.593 550.729 Q155.302 550.312 152.848 549.456 L152.848 544.942 Q154.792 546.076 157.107 546.655 Q159.422 547.234 161.945 547.234 Q166.343 547.234 168.635 545.497 Q170.95 543.761 170.95 540.451 Q170.95 537.396 168.797 535.683 Q166.667 533.947 162.848 533.947 L158.82 533.947 L158.82 530.104 L163.033 530.104 Q166.482 530.104 168.311 528.738 Q170.139 527.349 170.139 524.757 Q170.139 522.095 168.241 520.683 Q166.366 519.248 162.848 519.248 Q160.927 519.248 158.728 519.664 Q156.528 520.081 153.89 520.961 L153.89 516.794 Q156.552 516.053 158.866 515.683 Q161.204 515.312 163.265 515.312 Q168.589 515.312 171.69 517.743 Q174.792 520.15 174.792 524.271 Q174.792 527.141 173.149 529.132 Q171.505 531.099 168.473 531.863 Z" fill="#000000" fill-rule="evenodd" fill-opacity="1" /><path clip-path="url(#clip340)" d="M 0 0 M126.205 235.343 Q122.593 235.343 120.765 238.907 Q118.959 242.449 118.959 249.579 Q118.959 256.685 120.765 260.25 Q122.593 263.791 126.205 263.791 Q129.839 263.791 131.644 260.25 Q133.473 256.685 133.473 249.579 Q133.473 242.449 131.644 238.907 Q129.839 235.343 126.205 235.343 M126.205 231.639 Q132.015 231.639 135.07 236.245 Q138.149 240.829 138.149 249.579 Q138.149 258.305 135.07 262.912 Q132.015 267.495 126.205 267.495 Q120.394 267.495 117.316 262.912 Q114.26 258.305 114.26 249.579 Q114.26 240.829 117.316 236.245 Q120.394 231.639 126.205 231.639 Z" fill="#000000" fill-rule="evenodd" fill-opacity="1" /><path clip-path="url(#clip340)" d="M 0 0 M143.218 260.944 L148.103 260.944 L148.103 266.824 L143.218 266.824 L143.218 260.944 Z" fill="#000000" fill-rule="evenodd" fill-opacity="1" /><path clip-path="url(#clip340)" d="M 0 0 M166.019 236.338 L154.214 254.787 L166.019 254.787 L166.019 236.338 M164.792 232.264 L170.672 232.264 L170.672 254.787 L175.602 254.787 L175.602 258.676 L170.672 258.676 L170.672 266.824 L166.019 266.824 L166.019 258.676 L150.417 258.676 L150.417 254.162 L164.792 232.264 Z" fill="#000000" fill-rule="evenodd" fill-opacity="1" /><path clip-path="url(#clip340)" d="M 0 0 M21.7677 783.05 L39.6235 783.05 L39.6235 774.966 Q39.6235 770.478 37.3 768.027 Q34.9765 765.576 30.6797 765.576 Q26.4147 765.576 24.0912 768.027 Q21.7677 770.478 21.7677 774.966 L21.7677 783.05 M16.4842 789.48 L16.4842 774.966 Q16.4842 766.977 20.1126 762.903 Q23.7092 758.797 30.6797 758.797 Q37.7138 758.797 41.3104 762.903 Q44.907 766.977 44.907 774.966 L44.907 783.05 L64.0042 783.05 L64.0042 789.48 L16.4842 789.48 Z" fill="#000000" fill-rule="evenodd" fill-opacity="1" /><path clip-path="url(#clip340)" d="M 0 0 M14.5426 738.586 Q21.8632 742.851 29.0246 744.92 Q36.186 746.989 43.5384 746.989 Q50.8908 746.989 58.1159 744.92 Q65.3091 742.819 72.5979 738.586 L72.5979 743.678 Q65.1182 748.453 57.8931 750.84 Q50.668 753.195 43.5384 753.195 Q36.4406 753.195 29.2474 750.84 Q22.0542 748.484 14.5426 743.678 L14.5426 738.586 Z" fill="#000000" fill-rule="evenodd" fill-opacity="1" /><path clip-path="url(#clip340)" d="M 0 0 M58.657 726.777 L77.5631 726.777 L77.5631 732.666 L28.3562 732.666 L28.3562 726.777 L33.7671 726.777 Q30.5842 724.931 29.0564 722.13 Q27.4968 719.298 27.4968 715.383 Q27.4968 708.89 32.6531 704.848 Q37.8093 700.773 46.212 700.773 Q54.6147 700.773 59.771 704.848 Q64.9272 708.89 64.9272 715.383 Q64.9272 719.298 63.3994 722.13 Q61.8398 724.931 58.657 726.777 M46.212 706.853 Q39.7508 706.853 36.0905 709.526 Q32.3984 712.168 32.3984 716.815 Q32.3984 721.462 36.0905 724.136 Q39.7508 726.777 46.212 726.777 Q52.6732 726.777 56.3653 724.136 Q60.0256 721.462 60.0256 716.815 Q60.0256 712.168 56.3653 709.526 Q52.6732 706.853 46.212 706.853 Z" fill="#000000" fill-rule="evenodd" fill-opacity="1" /><path clip-path="url(#clip340)" d="M 0 0 M14.5426 695.554 L14.5426 690.461 Q22.0542 685.687 29.2474 683.331 Q36.4406 680.944 43.5384 680.944 Q50.668 680.944 57.8931 683.331 Q65.1182 685.687 72.5979 690.461 L72.5979 695.554 Q65.3091 691.32 58.1159 689.252 Q50.8908 687.151 43.5384 687.151 Q36.186 687.151 29.0246 689.252 Q21.8632 691.32 14.5426 695.554 Z" fill="#000000" fill-rule="evenodd" fill-opacity="1" /><path clip-path="url(#clip342)" d="
M329.37 86.1857 L329.37 1384.24 L465.485 1384.24 L465.485 86.1857 L329.37 86.1857 L329.37 86.1857  Z
  " fill="#009af9" fill-rule="evenodd" fill-opacity="1"/>
<polyline clip-path="url(#clip342)" style="stroke:#000000; stroke-width:4; stroke-opacity:1; fill:none" points="
  329.37,86.1857 329.37,1384.24 465.485,1384.24 465.485,86.1857 329.37,86.1857 
  "/>
<path clip-path="url(#clip342)" d="
M465.485 504.751 L465.485 1384.24 L601.601 1384.24 L601.601 504.751 L465.485 504.751 L465.485 504.751  Z
  " fill="#009af9" fill-rule="evenodd" fill-opacity="1"/>
<polyline clip-path="url(#clip342)" style="stroke:#000000; stroke-width:4; stroke-opacity:1; fill:none" points="
  465.485,504.751 465.485,1384.24 601.601,1384.24 601.601,504.751 465.485,504.751 
  "/>
<path clip-path="url(#clip342)" d="
M601.601 970.8 L601.601 1384.24 L737.717 1384.24 L737.717 970.8 L601.601 970.8 L601.601 970.8  Z
  " fill="#009af9" fill-rule="evenodd" fill-opacity="1"/>
<polyline clip-path="url(#clip342)" style="stroke:#000000; stroke-width:4; stroke-opacity:1; fill:none" points="
  601.601,970.8 601.601,1384.24 737.717,1384.24 737.717,970.8 601.601,970.8 
  "/>
<path clip-path="url(#clip342)" d="
M737.717 1221.85 L737.717 1384.24 L873.832 1384.24 L873.832 1221.85 L737.717 1221.85 L737.717 1221.85  Z
  " fill="#009af9" fill-rule="evenodd" fill-opacity="1"/>
<polyline clip-path="url(#clip342)" style="stroke:#000000; stroke-width:4; stroke-opacity:1; fill:none" points="
  737.717,1221.85 737.717,1384.24 873.832,1384.24 873.832,1221.85 737.717,1221.85 
  "/>
<path clip-path="url(#clip342)" d="
M873.832 1327.09 L873.832 1384.24 L1009.95 1384.24 L1009.95 1327.09 L873.832 1327.09 L873.832 1327.09  Z
  " fill="#009af9" fill-rule="evenodd" fill-opacity="1"/>
<polyline clip-path="url(#clip342)" style="stroke:#000000; stroke-width:4; stroke-opacity:1; fill:none" points="
  873.832,1327.09 873.832,1384.24 1009.95,1384.24 1009.95,1327.09 873.832,1327.09 
  "/>
<path clip-path="url(#clip342)" d="
M1009.95 1365.71 L1009.95 1384.24 L1146.06 1384.24 L1146.06 1365.71 L1009.95 1365.71 L1009.95 1365.71  Z
  " fill="#009af9" fill-rule="evenodd" fill-opacity="1"/>
<polyline clip-path="url(#clip342)" style="stroke:#000000; stroke-width:4; stroke-opacity:1; fill:none" points="
  1009.95,1365.71 1009.95,1384.24 1146.06,1384.24 1146.06,1365.71 1009.95,1365.71 
  "/>
<path clip-path="url(#clip342)" d="
M1146.06 1378.68 L1146.06 1384.24 L1282.18 1384.24 L1282.18 1378.68 L1146.06 1378.68 L1146.06 1378.68  Z
  " fill="#009af9" fill-rule="evenodd" fill-opacity="1"/>
<polyline clip-path="url(#clip342)" style="stroke:#000000; stroke-width:4; stroke-opacity:1; fill:none" points="
  1146.06,1378.68 1146.06,1384.24 1282.18,1384.24 1282.18,1378.68 1146.06,1378.68 
  "/>
<path clip-path="url(#clip342)" d="
M1282.18 1382.71 L1282.18 1384.24 L1418.29 1384.24 L1418.29 1382.71 L1282.18 1382.71 L1282.18 1382.71  Z
  " fill="#009af9" fill-rule="evenodd" fill-opacity="1"/>
<polyline clip-path="url(#clip342)" style="stroke:#000000; stroke-width:4; stroke-opacity:1; fill:none" points="
  1282.18,1382.71 1282.18,1384.24 1418.29,1384.24 1418.29,1382.71 1282.18,1382.71 
  "/>
<path clip-path="url(#clip342)" d="
M1418.29 1383.78 L1418.29 1384.24 L1554.41 1384.24 L1554.41 1383.78 L1418.29 1383.78 L1418.29 1383.78  Z
  " fill="#009af9" fill-rule="evenodd" fill-opacity="1"/>
<polyline clip-path="url(#clip342)" style="stroke:#000000; stroke-width:4; stroke-opacity:1; fill:none" points="
  1418.29,1383.78 1418.29,1384.24 1554.41,1384.24 1554.41,1383.78 1418.29,1383.78 
  "/>
<path clip-path="url(#clip342)" d="
M1554.41 1384.16 L1554.41 1384.24 L1690.53 1384.24 L1690.53 1384.16 L1554.41 1384.16 L1554.41 1384.16  Z
  " fill="#009af9" fill-rule="evenodd" fill-opacity="1"/>
<polyline clip-path="url(#clip342)" style="stroke:#000000; stroke-width:4; stroke-opacity:1; fill:none" points="
  1554.41,1384.16 1554.41,1384.24 1690.53,1384.24 1690.53,1384.16 1554.41,1384.16 
  "/>
<path clip-path="url(#clip342)" d="
M1690.53 1384.19 L1690.53 1384.24 L1826.64 1384.24 L1826.64 1384.19 L1690.53 1384.19 L1690.53 1384.19  Z
  " fill="#009af9" fill-rule="evenodd" fill-opacity="1"/>
<polyline clip-path="url(#clip342)" style="stroke:#000000; stroke-width:4; stroke-opacity:1; fill:none" points="
  1690.53,1384.19 1690.53,1384.24 1826.64,1384.24 1826.64,1384.19 1690.53,1384.19 
  "/>
<path clip-path="url(#clip342)" d="
M1826.64 1384.23 L1826.64 1384.24 L1962.76 1384.24 L1962.76 1384.23 L1826.64 1384.23 L1826.64 1384.23  Z
  " fill="#009af9" fill-rule="evenodd" fill-opacity="1"/>
<polyline clip-path="url(#clip342)" style="stroke:#000000; stroke-width:4; stroke-opacity:1; fill:none" points="
  1826.64,1384.23 1826.64,1384.24 1962.76,1384.24 1962.76,1384.23 1826.64,1384.23 
  "/>
<path clip-path="url(#clip342)" d="
M1962.76 1384.23 L1962.76 1384.24 L2098.87 1384.24 L2098.87 1384.23 L1962.76 1384.23 L1962.76 1384.23  Z
  " fill="#009af9" fill-rule="evenodd" fill-opacity="1"/>
<polyline clip-path="url(#clip342)" style="stroke:#000000; stroke-width:4; stroke-opacity:1; fill:none" points="
  1962.76,1384.23 1962.76,1384.24 2098.87,1384.24 2098.87,1384.23 1962.76,1384.23 
  "/>
<path clip-path="url(#clip342)" d="
M2098.87 1384.24 L2098.87 1384.24 L2234.99 1384.24 L2234.99 1384.24 L2098.87 1384.24 L2098.87 1384.24  Z
  " fill="#009af9" fill-rule="evenodd" fill-opacity="1"/>
<polyline clip-path="url(#clip342)" style="stroke:#000000; stroke-width:4; stroke-opacity:1; fill:none" points="
  2098.87,1384.24 2098.87,1384.24 2234.99,1384.24 2234.99,1384.24 2098.87,1384.24 
  "/>
<polyline clip-path="url(#clip342)" style="stroke:#e26f46; stroke-width:4; stroke-opacity:1; fill:none" points="
  452.373,2799.12 452.373,-1328.69 
  "/>
<polyline clip-path="url(#clip342)" style="stroke:#3da44d; stroke-width:4; stroke-opacity:1; fill:none" points="
  452.396,2799.12 452.396,-1328.69 
  "/>
<path clip-path="url(#clip340)" d="
M1685.73 335.029 L2281.38 335.029 L2281.38 93.1086 L1685.73 93.1086  Z
  " fill="#ffffff" fill-rule="evenodd" fill-opacity="1"/>
<polyline clip-path="url(#clip340)" style="stroke:#000000; stroke-width:4; stroke-opacity:1; fill:none" points="
  1685.73,335.029 2281.38,335.029 2281.38,93.1086 1685.73,93.1086 1685.73,335.029 
  "/>
<path clip-path="url(#clip340)" d="
M1709.52 177.781 L1852.26 177.781 L1852.26 129.397 L1709.52 129.397 L1709.52 177.781  Z
  " fill="#009af9" fill-rule="evenodd" fill-opacity="1"/>
<polyline clip-path="url(#clip340)" style="stroke:#000000; stroke-width:4; stroke-opacity:1; fill:none" points="
  1709.52,177.781 1852.26,177.781 1852.26,129.397 1709.52,129.397 1709.52,177.781 
  "/>
<path clip-path="url(#clip340)" d="M 0 0 M1889.89 173.276 Q1888.09 177.906 1886.37 179.318 Q1884.66 180.73 1881.79 180.73 L1878.39 180.73 L1878.39 177.165 L1880.89 177.165 Q1882.65 177.165 1883.62 176.332 Q1884.59 175.498 1885.77 172.396 L1886.54 170.452 L1876.05 144.943 L1880.56 144.943 L1888.67 165.221 L1896.77 144.943 L1901.28 144.943 L1889.89 173.276 Z" fill="#000000" fill-rule="evenodd" fill-opacity="1" /><path clip-path="url(#clip340)" d="M 0 0 M1907.16 166.933 L1914.8 166.933 L1914.8 140.568 L1906.49 142.235 L1906.49 137.975 L1914.75 136.309 L1919.43 136.309 L1919.43 166.933 L1927.07 166.933 L1927.07 170.869 L1907.16 170.869 L1907.16 166.933 Z" fill="#000000" fill-rule="evenodd" fill-opacity="1" /><polyline clip-path="url(#clip340)" style="stroke:#e26f46; stroke-width:4; stroke-opacity:1; fill:none" points="
  1709.52,214.069 1852.26,214.069 
  "/>
<path clip-path="url(#clip340)" d="M 0 0 M1883.46 198.062 L1883.46 205.423 L1892.23 205.423 L1892.23 208.733 L1883.46 208.733 L1883.46 222.807 Q1883.46 225.978 1884.31 226.881 Q1885.19 227.784 1887.86 227.784 L1892.23 227.784 L1892.23 231.349 L1887.86 231.349 Q1882.93 231.349 1881.05 229.52 Q1879.18 227.668 1879.18 222.807 L1879.18 208.733 L1876.05 208.733 L1876.05 205.423 L1879.18 205.423 L1879.18 198.062 L1883.46 198.062 Z" fill="#000000" fill-rule="evenodd" fill-opacity="1" /><path clip-path="url(#clip340)" d="M 0 0 M1918.25 215.701 L1918.25 231.349 L1913.99 231.349 L1913.99 215.839 Q1913.99 212.159 1912.55 210.33 Q1911.12 208.502 1908.25 208.502 Q1904.8 208.502 1902.81 210.701 Q1900.82 212.9 1900.82 216.696 L1900.82 231.349 L1896.54 231.349 L1896.54 195.33 L1900.82 195.33 L1900.82 209.451 Q1902.35 207.113 1904.41 205.955 Q1906.49 204.798 1909.2 204.798 Q1913.67 204.798 1915.96 207.576 Q1918.25 210.33 1918.25 215.701 Z" fill="#000000" fill-rule="evenodd" fill-opacity="1" /><path clip-path="url(#clip340)" d="M 0 0 M1944.89 217.321 L1944.89 219.404 L1925.31 219.404 Q1925.59 223.802 1927.95 226.117 Q1930.33 228.409 1934.57 228.409 Q1937.02 228.409 1939.31 227.807 Q1941.63 227.205 1943.9 226.001 L1943.9 230.029 Q1941.61 231.001 1939.2 231.511 Q1936.79 232.02 1934.31 232.02 Q1928.11 232.02 1924.48 228.409 Q1920.86 224.798 1920.86 218.64 Q1920.86 212.275 1924.29 208.548 Q1927.74 204.798 1933.57 204.798 Q1938.8 204.798 1941.84 208.177 Q1944.89 211.534 1944.89 217.321 M1940.63 216.071 Q1940.59 212.576 1938.67 210.492 Q1936.77 208.409 1933.62 208.409 Q1930.05 208.409 1927.9 210.423 Q1925.77 212.437 1925.45 216.094 L1940.63 216.071 Z" fill="#000000" fill-rule="evenodd" fill-opacity="1" /><path clip-path="url(#clip340)" d="M 0 0 M1959.41 208.409 Q1955.98 208.409 1953.99 211.094 Q1952 213.756 1952 218.409 Q1952 223.062 1953.97 225.747 Q1955.96 228.409 1959.41 228.409 Q1962.81 228.409 1964.8 225.724 Q1966.79 223.038 1966.79 218.409 Q1966.79 213.802 1964.8 211.117 Q1962.81 208.409 1959.41 208.409 M1959.41 204.798 Q1964.96 204.798 1968.13 208.409 Q1971.3 212.02 1971.3 218.409 Q1971.3 224.775 1968.13 228.409 Q1964.96 232.02 1959.41 232.02 Q1953.83 232.02 1950.66 228.409 Q1947.51 224.775 1947.51 218.409 Q1947.51 212.02 1950.66 208.409 Q1953.83 204.798 1959.41 204.798 Z" fill="#000000" fill-rule="evenodd" fill-opacity="1" /><path clip-path="url(#clip340)" d="M 0 0 M1990.79 209.404 Q1990.08 208.988 1989.22 208.802 Q1988.39 208.594 1987.37 208.594 Q1983.76 208.594 1981.81 210.955 Q1979.89 213.293 1979.89 217.691 L1979.89 231.349 L1975.61 231.349 L1975.61 205.423 L1979.89 205.423 L1979.89 209.451 Q1981.23 207.089 1983.39 205.955 Q1985.54 204.798 1988.62 204.798 Q1989.06 204.798 1989.59 204.867 Q1990.12 204.914 1990.77 205.029 L1990.79 209.404 Z" fill="#000000" fill-rule="evenodd" fill-opacity="1" /><path clip-path="url(#clip340)" d="M 0 0 M2016.4 217.321 L2016.4 219.404 L1996.81 219.404 Q1997.09 223.802 1999.45 226.117 Q2001.84 228.409 2006.07 228.409 Q2008.53 228.409 2010.82 227.807 Q2013.13 227.205 2015.4 226.001 L2015.4 230.029 Q2013.11 231.001 2010.7 231.511 Q2008.29 232.02 2005.82 232.02 Q1999.61 232.02 1995.98 228.409 Q1992.37 224.798 1992.37 218.64 Q1992.37 212.275 1995.79 208.548 Q1999.24 204.798 2005.08 204.798 Q2010.31 204.798 2013.34 208.177 Q2016.4 211.534 2016.4 217.321 M2012.14 216.071 Q2012.09 212.576 2010.17 210.492 Q2008.27 208.409 2005.12 208.409 Q2001.56 208.409 1999.41 210.423 Q1997.28 212.437 1996.95 216.094 L2012.14 216.071 Z" fill="#000000" fill-rule="evenodd" fill-opacity="1" /><path clip-path="url(#clip340)" d="M 0 0 M2025.08 198.062 L2025.08 205.423 L2033.85 205.423 L2033.85 208.733 L2025.08 208.733 L2025.08 222.807 Q2025.08 225.978 2025.93 226.881 Q2026.81 227.784 2029.48 227.784 L2033.85 227.784 L2033.85 231.349 L2029.48 231.349 Q2024.54 231.349 2022.67 229.52 Q2020.79 227.668 2020.79 222.807 L2020.79 208.733 L2017.67 208.733 L2017.67 205.423 L2020.79 205.423 L2020.79 198.062 L2025.08 198.062 Z" fill="#000000" fill-rule="evenodd" fill-opacity="1" /><path clip-path="url(#clip340)" d="M 0 0 M2038.32 205.423 L2042.58 205.423 L2042.58 231.349 L2038.32 231.349 L2038.32 205.423 M2038.32 195.33 L2042.58 195.33 L2042.58 200.724 L2038.32 200.724 L2038.32 195.33 Z" fill="#000000" fill-rule="evenodd" fill-opacity="1" /><path clip-path="url(#clip340)" d="M 0 0 M2065.7 206.418 L2065.7 210.4 Q2063.9 209.404 2062.07 208.918 Q2060.26 208.409 2058.41 208.409 Q2054.27 208.409 2051.98 211.048 Q2049.68 213.664 2049.68 218.409 Q2049.68 223.154 2051.98 225.793 Q2054.27 228.409 2058.41 228.409 Q2060.26 228.409 2062.07 227.923 Q2063.9 227.413 2065.7 226.418 L2065.7 230.353 Q2063.92 231.187 2062 231.603 Q2060.1 232.02 2057.95 232.02 Q2052.09 232.02 2048.64 228.339 Q2045.19 224.659 2045.19 218.409 Q2045.19 212.066 2048.67 208.432 Q2052.16 204.798 2058.23 204.798 Q2060.19 204.798 2062.07 205.215 Q2063.94 205.608 2065.7 206.418 Z" fill="#000000" fill-rule="evenodd" fill-opacity="1" /><path clip-path="url(#clip340)" d="M 0 0 M2081.95 218.316 Q2076.79 218.316 2074.8 219.497 Q2072.81 220.677 2072.81 223.525 Q2072.81 225.793 2074.29 227.136 Q2075.79 228.455 2078.36 228.455 Q2081.91 228.455 2084.04 225.955 Q2086.19 223.432 2086.19 219.265 L2086.19 218.316 L2081.95 218.316 M2090.45 216.557 L2090.45 231.349 L2086.19 231.349 L2086.19 227.413 Q2084.73 229.775 2082.55 230.909 Q2080.38 232.02 2077.23 232.02 Q2073.25 232.02 2070.89 229.798 Q2068.55 227.552 2068.55 223.802 Q2068.55 219.427 2071.47 217.205 Q2074.41 214.983 2080.22 214.983 L2086.19 214.983 L2086.19 214.566 Q2086.19 211.627 2084.24 210.029 Q2082.32 208.409 2078.83 208.409 Q2076.6 208.409 2074.5 208.941 Q2072.39 209.474 2070.45 210.539 L2070.45 206.603 Q2072.79 205.701 2074.98 205.261 Q2077.18 204.798 2079.27 204.798 Q2084.89 204.798 2087.67 207.714 Q2090.45 210.631 2090.45 216.557 Z" fill="#000000" fill-rule="evenodd" fill-opacity="1" /><path clip-path="url(#clip340)" d="M 0 0 M2094.91 195.33 L2099.17 195.33 L2099.17 231.349 L2094.91 231.349 L2094.91 195.33 Z" fill="#000000" fill-rule="evenodd" fill-opacity="1" /><path clip-path="url(#clip340)" d="M 0 0 M2138.9 210.4 Q2140.49 207.529 2142.72 206.164 Q2144.94 204.798 2147.95 204.798 Q2152 204.798 2154.2 207.645 Q2156.4 210.469 2156.4 215.701 L2156.4 231.349 L2152.11 231.349 L2152.11 215.839 Q2152.11 212.113 2150.79 210.307 Q2149.47 208.502 2146.77 208.502 Q2143.46 208.502 2141.53 210.701 Q2139.61 212.9 2139.61 216.696 L2139.61 231.349 L2135.33 231.349 L2135.33 215.839 Q2135.33 212.089 2134.01 210.307 Q2132.69 208.502 2129.94 208.502 Q2126.67 208.502 2124.75 210.724 Q2122.83 212.923 2122.83 216.696 L2122.83 231.349 L2118.55 231.349 L2118.55 205.423 L2122.83 205.423 L2122.83 209.451 Q2124.29 207.066 2126.33 205.932 Q2128.36 204.798 2131.16 204.798 Q2133.99 204.798 2135.96 206.233 Q2137.95 207.668 2138.9 210.4 Z" fill="#000000" fill-rule="evenodd" fill-opacity="1" /><path clip-path="url(#clip340)" d="M 0 0 M2183.04 217.321 L2183.04 219.404 L2163.46 219.404 Q2163.73 223.802 2166.09 226.117 Q2168.48 228.409 2172.72 228.409 Q2175.17 228.409 2177.46 227.807 Q2179.78 227.205 2182.04 226.001 L2182.04 230.029 Q2179.75 231.001 2177.34 231.511 Q2174.94 232.02 2172.46 232.02 Q2166.26 232.02 2162.62 228.409 Q2159.01 224.798 2159.01 218.64 Q2159.01 212.275 2162.44 208.548 Q2165.89 204.798 2171.72 204.798 Q2176.95 204.798 2179.98 208.177 Q2183.04 211.534 2183.04 217.321 M2178.78 216.071 Q2178.73 212.576 2176.81 210.492 Q2174.91 208.409 2171.77 208.409 Q2168.2 208.409 2166.05 210.423 Q2163.92 212.437 2163.59 216.094 L2178.78 216.071 Z" fill="#000000" fill-rule="evenodd" fill-opacity="1" /><path clip-path="url(#clip340)" d="M 0 0 M2199.29 218.316 Q2194.13 218.316 2192.14 219.497 Q2190.15 220.677 2190.15 223.525 Q2190.15 225.793 2191.63 227.136 Q2193.13 228.455 2195.7 228.455 Q2199.24 228.455 2201.37 225.955 Q2203.53 223.432 2203.53 219.265 L2203.53 218.316 L2199.29 218.316 M2207.78 216.557 L2207.78 231.349 L2203.53 231.349 L2203.53 227.413 Q2202.07 229.775 2199.89 230.909 Q2197.72 232.02 2194.57 232.02 Q2190.59 232.02 2188.22 229.798 Q2185.89 227.552 2185.89 223.802 Q2185.89 219.427 2188.8 217.205 Q2191.74 214.983 2197.55 214.983 L2203.53 214.983 L2203.53 214.566 Q2203.53 211.627 2201.58 210.029 Q2199.66 208.409 2196.16 208.409 Q2193.94 208.409 2191.84 208.941 Q2189.73 209.474 2187.78 210.539 L2187.78 206.603 Q2190.12 205.701 2192.32 205.261 Q2194.52 204.798 2196.6 204.798 Q2202.23 204.798 2205.01 207.714 Q2207.78 210.631 2207.78 216.557 Z" fill="#000000" fill-rule="evenodd" fill-opacity="1" /><path clip-path="url(#clip340)" d="M 0 0 M2233.8 215.701 L2233.8 231.349 L2229.54 231.349 L2229.54 215.839 Q2229.54 212.159 2228.11 210.33 Q2226.67 208.502 2223.8 208.502 Q2220.35 208.502 2218.36 210.701 Q2216.37 212.9 2216.37 216.696 L2216.37 231.349 L2212.09 231.349 L2212.09 205.423 L2216.37 205.423 L2216.37 209.451 Q2217.9 207.113 2219.96 205.955 Q2222.04 204.798 2224.75 204.798 Q2229.22 204.798 2231.51 207.576 Q2233.8 210.33 2233.8 215.701 Z" fill="#000000" fill-rule="evenodd" fill-opacity="1" /><polyline clip-path="url(#clip340)" style="stroke:#3da44d; stroke-width:4; stroke-opacity:1; fill:none" points="
  1709.52,274.549 1852.26,274.549 
  "/>
<path clip-path="url(#clip340)" d="M 0 0 M1894.48 266.667 L1894.48 270.694 Q1892.67 269.769 1890.73 269.306 Q1888.78 268.843 1886.7 268.843 Q1883.53 268.843 1881.93 269.815 Q1880.36 270.787 1880.36 272.731 Q1880.36 274.213 1881.49 275.069 Q1882.62 275.903 1886.05 276.667 L1887.51 276.991 Q1892.05 277.963 1893.94 279.745 Q1895.86 281.505 1895.86 284.676 Q1895.86 288.287 1892.99 290.393 Q1890.15 292.5 1885.15 292.5 Q1883.06 292.5 1880.8 292.083 Q1878.55 291.69 1876.05 290.88 L1876.05 286.481 Q1878.41 287.708 1880.7 288.333 Q1882.99 288.935 1885.24 288.935 Q1888.25 288.935 1889.87 287.917 Q1891.49 286.875 1891.49 285 Q1891.49 283.264 1890.31 282.338 Q1889.15 281.412 1885.19 280.556 L1883.71 280.208 Q1879.75 279.375 1877.99 277.662 Q1876.24 275.926 1876.24 272.917 Q1876.24 269.259 1878.83 267.269 Q1881.42 265.278 1886.19 265.278 Q1888.55 265.278 1890.63 265.625 Q1892.72 265.972 1894.48 266.667 Z" fill="#000000" fill-rule="evenodd" fill-opacity="1" /><path clip-path="url(#clip340)" d="M 0 0 M1904.55 258.542 L1904.55 265.903 L1913.32 265.903 L1913.32 269.213 L1904.55 269.213 L1904.55 283.287 Q1904.55 286.458 1905.4 287.361 Q1906.28 288.264 1908.94 288.264 L1913.32 288.264 L1913.32 291.829 L1908.94 291.829 Q1904.01 291.829 1902.14 290 Q1900.26 288.148 1900.26 283.287 L1900.26 269.213 L1897.14 269.213 L1897.14 265.903 L1900.26 265.903 L1900.26 258.542 L1904.55 258.542 Z" fill="#000000" fill-rule="evenodd" fill-opacity="1" /><path clip-path="url(#clip340)" d="M 0 0 M1929.57 278.796 Q1924.41 278.796 1922.42 279.977 Q1920.42 281.157 1920.42 284.005 Q1920.42 286.273 1921.91 287.616 Q1923.41 288.935 1925.98 288.935 Q1929.52 288.935 1931.65 286.435 Q1933.8 283.912 1933.8 279.745 L1933.8 278.796 L1929.57 278.796 M1938.06 277.037 L1938.06 291.829 L1933.8 291.829 L1933.8 287.893 Q1932.35 290.255 1930.17 291.389 Q1927.99 292.5 1924.85 292.5 Q1920.86 292.5 1918.5 290.278 Q1916.17 288.032 1916.17 284.282 Q1916.17 279.907 1919.08 277.685 Q1922.02 275.463 1927.83 275.463 L1933.8 275.463 L1933.8 275.046 Q1933.8 272.107 1931.86 270.509 Q1929.94 268.889 1926.44 268.889 Q1924.22 268.889 1922.11 269.421 Q1920.01 269.954 1918.06 271.019 L1918.06 267.083 Q1920.4 266.181 1922.6 265.741 Q1924.8 265.278 1926.88 265.278 Q1932.51 265.278 1935.29 268.194 Q1938.06 271.111 1938.06 277.037 Z" fill="#000000" fill-rule="evenodd" fill-opacity="1" /><path clip-path="url(#clip340)" d="M 0 0 M1946.74 258.542 L1946.74 265.903 L1955.52 265.903 L1955.52 269.213 L1946.74 269.213 L1946.74 283.287 Q1946.74 286.458 1947.6 287.361 Q1948.48 288.264 1951.14 288.264 L1955.52 288.264 L1955.52 291.829 L1951.14 291.829 Q1946.21 291.829 1944.34 290 Q1942.46 288.148 1942.46 283.287 L1942.46 269.213 L1939.34 269.213 L1939.34 265.903 L1942.46 265.903 L1942.46 258.542 L1946.74 258.542 Z" fill="#000000" fill-rule="evenodd" fill-opacity="1" /><path clip-path="url(#clip340)" d="M 0 0 M1959.98 265.903 L1964.24 265.903 L1964.24 291.829 L1959.98 291.829 L1959.98 265.903 M1959.98 255.81 L1964.24 255.81 L1964.24 261.204 L1959.98 261.204 L1959.98 255.81 Z" fill="#000000" fill-rule="evenodd" fill-opacity="1" /><path clip-path="url(#clip340)" d="M 0 0 M1985.24 266.667 L1985.24 270.694 Q1983.43 269.769 1981.49 269.306 Q1979.55 268.843 1977.46 268.843 Q1974.29 268.843 1972.69 269.815 Q1971.12 270.787 1971.12 272.731 Q1971.12 274.213 1972.25 275.069 Q1973.39 275.903 1976.81 276.667 L1978.27 276.991 Q1982.81 277.963 1984.71 279.745 Q1986.63 281.505 1986.63 284.676 Q1986.63 288.287 1983.76 290.393 Q1980.91 292.5 1975.91 292.5 Q1973.83 292.5 1971.56 292.083 Q1969.31 291.69 1966.81 290.88 L1966.81 286.481 Q1969.17 287.708 1971.47 288.333 Q1973.76 288.935 1976 288.935 Q1979.01 288.935 1980.63 287.917 Q1982.25 286.875 1982.25 285 Q1982.25 283.264 1981.07 282.338 Q1979.92 281.412 1975.96 280.556 L1974.48 280.208 Q1970.52 279.375 1968.76 277.662 Q1967 275.926 1967 272.917 Q1967 269.259 1969.59 267.269 Q1972.18 265.278 1976.95 265.278 Q1979.31 265.278 1981.4 265.625 Q1983.48 265.972 1985.24 266.667 Z" fill="#000000" fill-rule="evenodd" fill-opacity="1" /><path clip-path="url(#clip340)" d="M 0 0 M1995.31 258.542 L1995.31 265.903 L2004.08 265.903 L2004.08 269.213 L1995.31 269.213 L1995.31 283.287 Q1995.31 286.458 1996.17 287.361 Q1997.04 288.264 1999.71 288.264 L2004.08 288.264 L2004.08 291.829 L1999.71 291.829 Q1994.78 291.829 1992.9 290 Q1991.03 288.148 1991.03 283.287 L1991.03 269.213 L1987.9 269.213 L1987.9 265.903 L1991.03 265.903 L1991.03 258.542 L1995.31 258.542 Z" fill="#000000" fill-rule="evenodd" fill-opacity="1" /><path clip-path="url(#clip340)" d="M 0 0 M2008.55 265.903 L2012.81 265.903 L2012.81 291.829 L2008.55 291.829 L2008.55 265.903 M2008.55 255.81 L2012.81 255.81 L2012.81 261.204 L2008.55 261.204 L2008.55 255.81 Z" fill="#000000" fill-rule="evenodd" fill-opacity="1" /><path clip-path="url(#clip340)" d="M 0 0 M2035.93 266.898 L2035.93 270.88 Q2034.13 269.884 2032.3 269.398 Q2030.49 268.889 2028.64 268.889 Q2024.5 268.889 2022.21 271.528 Q2019.92 274.144 2019.92 278.889 Q2019.92 283.634 2022.21 286.273 Q2024.5 288.889 2028.64 288.889 Q2030.49 288.889 2032.3 288.403 Q2034.13 287.893 2035.93 286.898 L2035.93 290.833 Q2034.15 291.667 2032.23 292.083 Q2030.33 292.5 2028.18 292.5 Q2022.32 292.5 2018.87 288.819 Q2015.42 285.139 2015.42 278.889 Q2015.42 272.546 2018.9 268.912 Q2022.39 265.278 2028.46 265.278 Q2030.42 265.278 2032.3 265.695 Q2034.17 266.088 2035.93 266.898 Z" fill="#000000" fill-rule="evenodd" fill-opacity="1" /><path clip-path="url(#clip340)" d="M 0 0 M2052.18 278.796 Q2047.02 278.796 2045.03 279.977 Q2043.04 281.157 2043.04 284.005 Q2043.04 286.273 2044.52 287.616 Q2046.03 288.935 2048.6 288.935 Q2052.14 288.935 2054.27 286.435 Q2056.42 283.912 2056.42 279.745 L2056.42 278.796 L2052.18 278.796 M2060.68 277.037 L2060.68 291.829 L2056.42 291.829 L2056.42 287.893 Q2054.96 290.255 2052.79 291.389 Q2050.61 292.5 2047.46 292.5 Q2043.48 292.5 2041.12 290.278 Q2038.78 288.032 2038.78 284.282 Q2038.78 279.907 2041.7 277.685 Q2044.64 275.463 2050.45 275.463 L2056.42 275.463 L2056.42 275.046 Q2056.42 272.107 2054.48 270.509 Q2052.55 268.889 2049.06 268.889 Q2046.84 268.889 2044.73 269.421 Q2042.62 269.954 2040.68 271.019 L2040.68 267.083 Q2043.02 266.181 2045.22 265.741 Q2047.42 265.278 2049.5 265.278 Q2055.12 265.278 2057.9 268.194 Q2060.68 271.111 2060.68 277.037 Z" fill="#000000" fill-rule="evenodd" fill-opacity="1" /><path clip-path="url(#clip340)" d="M 0 0 M2065.15 255.81 L2069.41 255.81 L2069.41 291.829 L2065.15 291.829 L2065.15 255.81 Z" fill="#000000" fill-rule="evenodd" fill-opacity="1" /><path clip-path="url(#clip340)" d="M 0 0 M2109.13 270.88 Q2110.72 268.009 2112.95 266.644 Q2115.17 265.278 2118.18 265.278 Q2122.23 265.278 2124.43 268.125 Q2126.63 270.949 2126.63 276.181 L2126.63 291.829 L2122.35 291.829 L2122.35 276.319 Q2122.35 272.593 2121.03 270.787 Q2119.71 268.982 2117 268.982 Q2113.69 268.982 2111.77 271.181 Q2109.85 273.38 2109.85 277.176 L2109.85 291.829 L2105.56 291.829 L2105.56 276.319 Q2105.56 272.569 2104.24 270.787 Q2102.92 268.982 2100.17 268.982 Q2096.91 268.982 2094.98 271.204 Q2093.06 273.403 2093.06 277.176 L2093.06 291.829 L2088.78 291.829 L2088.78 265.903 L2093.06 265.903 L2093.06 269.931 Q2094.52 267.546 2096.56 266.412 Q2098.6 265.278 2101.4 265.278 Q2104.22 265.278 2106.19 266.713 Q2108.18 268.148 2109.13 270.88 Z" fill="#000000" fill-rule="evenodd" fill-opacity="1" /><path clip-path="url(#clip340)" d="M 0 0 M2153.27 277.801 L2153.27 279.884 L2133.69 279.884 Q2133.97 284.282 2136.33 286.597 Q2138.71 288.889 2142.95 288.889 Q2145.4 288.889 2147.69 288.287 Q2150.01 287.685 2152.28 286.481 L2152.28 290.509 Q2149.98 291.481 2147.58 291.991 Q2145.17 292.5 2142.69 292.5 Q2136.49 292.5 2132.85 288.889 Q2129.24 285.278 2129.24 279.12 Q2129.24 272.755 2132.67 269.028 Q2136.12 265.278 2141.95 265.278 Q2147.18 265.278 2150.22 268.657 Q2153.27 272.014 2153.27 277.801 M2149.01 276.551 Q2148.97 273.056 2147.04 270.972 Q2145.15 268.889 2142 268.889 Q2138.43 268.889 2136.28 270.903 Q2134.15 272.917 2133.83 276.574 L2149.01 276.551 Z" fill="#000000" fill-rule="evenodd" fill-opacity="1" /><path clip-path="url(#clip340)" d="M 0 0 M2169.52 278.796 Q2164.36 278.796 2162.37 279.977 Q2160.38 281.157 2160.38 284.005 Q2160.38 286.273 2161.86 287.616 Q2163.36 288.935 2165.93 288.935 Q2169.47 288.935 2171.6 286.435 Q2173.76 283.912 2173.76 279.745 L2173.76 278.796 L2169.52 278.796 M2178.02 277.037 L2178.02 291.829 L2173.76 291.829 L2173.76 287.893 Q2172.3 290.255 2170.12 291.389 Q2167.95 292.5 2164.8 292.5 Q2160.82 292.5 2158.46 290.278 Q2156.12 288.032 2156.12 284.282 Q2156.12 279.907 2159.03 277.685 Q2161.97 275.463 2167.78 275.463 L2173.76 275.463 L2173.76 275.046 Q2173.76 272.107 2171.81 270.509 Q2169.89 268.889 2166.4 268.889 Q2164.17 268.889 2162.07 269.421 Q2159.96 269.954 2158.02 271.019 L2158.02 267.083 Q2160.35 266.181 2162.55 265.741 Q2164.75 265.278 2166.84 265.278 Q2172.46 265.278 2175.24 268.194 Q2178.02 271.111 2178.02 277.037 Z" fill="#000000" fill-rule="evenodd" fill-opacity="1" /><path clip-path="url(#clip340)" d="M 0 0 M2204.03 276.181 L2204.03 291.829 L2199.78 291.829 L2199.78 276.319 Q2199.78 272.639 2198.34 270.81 Q2196.9 268.982 2194.03 268.982 Q2190.59 268.982 2188.59 271.181 Q2186.6 273.38 2186.6 277.176 L2186.6 291.829 L2182.32 291.829 L2182.32 265.903 L2186.6 265.903 L2186.6 269.931 Q2188.13 267.593 2190.19 266.435 Q2192.28 265.278 2194.98 265.278 Q2199.45 265.278 2201.74 268.056 Q2204.03 270.81 2204.03 276.181 Z" fill="#000000" fill-rule="evenodd" fill-opacity="1" /></svg>
