<?xml version="1.0" encoding="utf-8"?>
<svg xmlns="http://www.w3.org/2000/svg" xmlns:xlink="http://www.w3.org/1999/xlink" width="600" height="400" viewBox="0 0 2400 1600">
<defs>
  <clipPath id="clip910">
    <rect x="0" y="0" width="2400" height="1600"/>
  </clipPath>
</defs>
<path clip-path="url(#clip910)" d="
M0 1600 L2400 1600 L2400 0 L0 0  Z
  " fill="#ffffff" fill-rule="evenodd" fill-opacity="1"/>
<defs>
  <clipPath id="clip911">
    <rect x="480" y="0" width="1681" height="1600"/>
  </clipPath>
</defs>
<path clip-path="url(#clip910)" d="
M219.866 1423.18 L2352.76 1423.18 L2352.76 47.2441 L219.866 47.2441  Z
  " fill="#ffffff" fill-rule="evenodd" fill-opacity="1"/>
<defs>
  <clipPath id="clip912">
    <rect x="219" y="47" width="2134" height="1377"/>
  </clipPath>
</defs>
<polyline clip-path="url(#clip912)" style="stroke:#000000; stroke-width:2; stroke-opacity:0.1; fill:none" points="
  337.179,1423.18 337.179,47.2441 
  "/>
<polyline clip-path="url(#clip912)" style="stroke:#000000; stroke-width:2; stroke-opacity:0.1; fill:none" points="
  653.556,1423.18 653.556,47.2441 
  "/>
<polyline clip-path="url(#clip912)" style="stroke:#000000; stroke-width:2; stroke-opacity:0.1; fill:none" points="
  969.934,1423.18 969.934,47.2441 
  "/>
<polyline clip-path="url(#clip912)" style="stroke:#000000; stroke-width:2; stroke-opacity:0.1; fill:none" points="
  1286.31,1423.18 1286.31,47.2441 
  "/>
<polyline clip-path="url(#clip912)" style="stroke:#000000; stroke-width:2; stroke-opacity:0.1; fill:none" points="
  1602.69,1423.18 1602.69,47.2441 
  "/>
<polyline clip-path="url(#clip912)" style="stroke:#000000; stroke-width:2; stroke-opacity:0.1; fill:none" points="
  1919.07,1423.18 1919.07,47.2441 
  "/>
<polyline clip-path="url(#clip912)" style="stroke:#000000; stroke-width:2; stroke-opacity:0.1; fill:none" points="
  2235.44,1423.18 2235.44,47.2441 
  "/>
<polyline clip-path="url(#clip910)" style="stroke:#000000; stroke-width:4; stroke-opacity:1; fill:none" points="
  219.866,1423.18 2352.76,1423.18 
  "/>
<polyline clip-path="url(#clip910)" style="stroke:#000000; stroke-width:4; stroke-opacity:1; fill:none" points="
  337.179,1423.18 337.179,1406.67 
  "/>
<polyline clip-path="url(#clip910)" style="stroke:#000000; stroke-width:4; stroke-opacity:1; fill:none" points="
  653.556,1423.18 653.556,1406.67 
  "/>
<polyline clip-path="url(#clip910)" style="stroke:#000000; stroke-width:4; stroke-opacity:1; fill:none" points="
  969.934,1423.18 969.934,1406.67 
  "/>
<polyline clip-path="url(#clip910)" style="stroke:#000000; stroke-width:4; stroke-opacity:1; fill:none" points="
  1286.31,1423.18 1286.31,1406.67 
  "/>
<polyline clip-path="url(#clip910)" style="stroke:#000000; stroke-width:4; stroke-opacity:1; fill:none" points="
  1602.69,1423.18 1602.69,1406.67 
  "/>
<polyline clip-path="url(#clip910)" style="stroke:#000000; stroke-width:4; stroke-opacity:1; fill:none" points="
  1919.07,1423.18 1919.07,1406.67 
  "/>
<polyline clip-path="url(#clip910)" style="stroke:#000000; stroke-width:4; stroke-opacity:1; fill:none" points="
  2235.44,1423.18 2235.44,1406.67 
  "/>
<path clip-path="url(#clip910)" d="M 0 0 M337.179 1452.37 Q333.568 1452.37 331.739 1455.94 Q329.934 1459.48 329.934 1466.61 Q329.934 1473.71 331.739 1477.28 Q333.568 1480.82 337.179 1480.82 Q340.813 1480.82 342.619 1477.28 Q344.447 1473.71 344.447 1466.61 Q344.447 1459.48 342.619 1455.94 Q340.813 1452.37 337.179 1452.37 M337.179 1448.67 Q342.989 1448.67 346.045 1453.27 Q349.123 1457.86 349.123 1466.61 Q349.123 1475.33 346.045 1479.94 Q342.989 1484.52 337.179 1484.52 Q331.369 1484.52 328.29 1479.94 Q325.235 1475.33 325.235 1466.61 Q325.235 1457.86 328.29 1453.27 Q331.369 1448.67 337.179 1448.67 Z" fill="#000000" fill-rule="evenodd" fill-opacity="1" /><path clip-path="url(#clip910)" d="M 0 0 M643.938 1479.92 L651.577 1479.92 L651.577 1453.55 L643.267 1455.22 L643.267 1450.96 L651.531 1449.29 L656.207 1449.29 L656.207 1479.92 L663.846 1479.92 L663.846 1483.85 L643.938 1483.85 L643.938 1479.92 Z" fill="#000000" fill-rule="evenodd" fill-opacity="1" /><path clip-path="url(#clip910)" d="M 0 0 M964.587 1479.92 L980.906 1479.92 L980.906 1483.85 L958.962 1483.85 L958.962 1479.92 Q961.624 1477.16 966.207 1472.53 Q970.813 1467.88 971.994 1466.54 Q974.239 1464.01 975.119 1462.28 Q976.022 1460.52 976.022 1458.83 Q976.022 1456.07 974.077 1454.34 Q972.156 1452.6 969.054 1452.6 Q966.855 1452.6 964.401 1453.37 Q961.971 1454.13 959.193 1455.68 L959.193 1450.96 Q962.017 1449.82 964.471 1449.25 Q966.924 1448.67 968.962 1448.67 Q974.332 1448.67 977.526 1451.35 Q980.721 1454.04 980.721 1458.53 Q980.721 1460.66 979.911 1462.58 Q979.123 1464.48 977.017 1467.07 Q976.438 1467.74 973.336 1470.96 Q970.235 1474.15 964.587 1479.92 Z" fill="#000000" fill-rule="evenodd" fill-opacity="1" /><path clip-path="url(#clip910)" d="M 0 0 M1290.56 1465.22 Q1293.92 1465.94 1295.79 1468.2 Q1297.69 1470.47 1297.69 1473.81 Q1297.69 1478.92 1294.17 1481.72 Q1290.65 1484.52 1284.17 1484.52 Q1281.99 1484.52 1279.68 1484.08 Q1277.39 1483.67 1274.93 1482.81 L1274.93 1478.3 Q1276.88 1479.43 1279.19 1480.01 Q1281.51 1480.59 1284.03 1480.59 Q1288.43 1480.59 1290.72 1478.85 Q1293.04 1477.12 1293.04 1473.81 Q1293.04 1470.75 1290.88 1469.04 Q1288.75 1467.3 1284.93 1467.3 L1280.91 1467.3 L1280.91 1463.46 L1285.12 1463.46 Q1288.57 1463.46 1290.4 1462.09 Q1292.23 1460.7 1292.23 1458.11 Q1292.23 1455.45 1290.33 1454.04 Q1288.45 1452.6 1284.93 1452.6 Q1283.01 1452.6 1280.81 1453.02 Q1278.61 1453.44 1275.98 1454.31 L1275.98 1450.15 Q1278.64 1449.41 1280.95 1449.04 Q1283.29 1448.67 1285.35 1448.67 Q1290.67 1448.67 1293.78 1451.1 Q1296.88 1453.5 1296.88 1457.63 Q1296.88 1460.5 1295.23 1462.49 Q1293.59 1464.45 1290.56 1465.22 Z" fill="#000000" fill-rule="evenodd" fill-opacity="1" /><path clip-path="url(#clip910)" d="M 0 0 M1605.7 1453.37 L1593.89 1471.81 L1605.7 1471.81 L1605.7 1453.37 M1604.47 1449.29 L1610.35 1449.29 L1610.35 1471.81 L1615.28 1471.81 L1615.28 1475.7 L1610.35 1475.7 L1610.35 1483.85 L1605.7 1483.85 L1605.7 1475.7 L1590.1 1475.7 L1590.1 1471.19 L1604.47 1449.29 Z" fill="#000000" fill-rule="evenodd" fill-opacity="1" /><path clip-path="url(#clip910)" d="M 0 0 M1909.34 1449.29 L1927.7 1449.29 L1927.7 1453.23 L1913.63 1453.23 L1913.63 1461.7 Q1914.64 1461.35 1915.66 1461.19 Q1916.68 1461 1917.7 1461 Q1923.49 1461 1926.87 1464.18 Q1930.25 1467.35 1930.25 1472.76 Q1930.25 1478.34 1926.77 1481.44 Q1923.3 1484.52 1916.98 1484.52 Q1914.81 1484.52 1912.54 1484.15 Q1910.29 1483.78 1907.89 1483.04 L1907.89 1478.34 Q1909.97 1479.48 1912.19 1480.03 Q1914.41 1480.59 1916.89 1480.59 Q1920.89 1480.59 1923.23 1478.48 Q1925.57 1476.38 1925.57 1472.76 Q1925.57 1469.15 1923.23 1467.05 Q1920.89 1464.94 1916.89 1464.94 Q1915.01 1464.94 1913.14 1465.36 Q1911.29 1465.77 1909.34 1466.65 L1909.34 1449.29 Z" fill="#000000" fill-rule="evenodd" fill-opacity="1" /><path clip-path="url(#clip910)" d="M 0 0 M2235.85 1464.71 Q2232.7 1464.71 2230.85 1466.86 Q2229.02 1469.01 2229.02 1472.76 Q2229.02 1476.49 2230.85 1478.67 Q2232.7 1480.82 2235.85 1480.82 Q2239 1480.82 2240.83 1478.67 Q2242.68 1476.49 2242.68 1472.76 Q2242.68 1469.01 2240.83 1466.86 Q2239 1464.71 2235.85 1464.71 M2245.13 1450.06 L2245.13 1454.31 Q2243.37 1453.48 2241.57 1453.04 Q2239.78 1452.6 2238.02 1452.6 Q2233.39 1452.6 2230.94 1455.73 Q2228.51 1458.85 2228.16 1465.17 Q2229.53 1463.16 2231.59 1462.09 Q2233.65 1461 2236.13 1461 Q2241.33 1461 2244.34 1464.18 Q2247.38 1467.32 2247.38 1472.76 Q2247.38 1478.09 2244.23 1481.31 Q2241.08 1484.52 2235.85 1484.52 Q2229.85 1484.52 2226.68 1479.94 Q2223.51 1475.33 2223.51 1466.61 Q2223.51 1458.41 2227.4 1453.55 Q2231.29 1448.67 2237.84 1448.67 Q2239.6 1448.67 2241.38 1449.01 Q2243.19 1449.36 2245.13 1450.06 Z" fill="#000000" fill-rule="evenodd" fill-opacity="1" /><path clip-path="url(#clip910)" d="M 0 0 M1288.27 1539.24 Q1290.46 1535.29 1293.52 1533.41 Q1296.58 1531.54 1300.71 1531.54 Q1306.28 1531.54 1309.31 1535.45 Q1312.33 1539.33 1312.33 1546.53 L1312.33 1568.04 L1306.44 1568.04 L1306.44 1546.72 Q1306.44 1541.59 1304.63 1539.11 Q1302.81 1536.63 1299.09 1536.63 Q1294.54 1536.63 1291.9 1539.65 Q1289.26 1542.68 1289.26 1547.9 L1289.26 1568.04 L1283.37 1568.04 L1283.37 1546.72 Q1283.37 1541.56 1281.55 1539.11 Q1279.74 1536.63 1275.95 1536.63 Q1271.46 1536.63 1268.82 1539.68 Q1266.18 1542.71 1266.18 1547.9 L1266.18 1568.04 L1260.29 1568.04 L1260.29 1532.4 L1266.18 1532.4 L1266.18 1537.93 Q1268.18 1534.66 1270.99 1533.1 Q1273.79 1531.54 1277.64 1531.54 Q1281.52 1531.54 1284.23 1533.51 Q1286.96 1535.48 1288.27 1539.24 Z" fill="#000000" fill-rule="evenodd" fill-opacity="1" /><polyline clip-path="url(#clip912)" style="stroke:#000000; stroke-width:2; stroke-opacity:0.1; fill:none" points="
  219.866,1384.24 2352.76,1384.24 
  "/>
<polyline clip-path="url(#clip912)" style="stroke:#000000; stroke-width:2; stroke-opacity:0.1; fill:none" points="
  219.866,1003.96 2352.76,1003.96 
  "/>
<polyline clip-path="url(#clip912)" style="stroke:#000000; stroke-width:2; stroke-opacity:0.1; fill:none" points="
  219.866,623.687 2352.76,623.687 
  "/>
<polyline clip-path="url(#clip912)" style="stroke:#000000; stroke-width:2; stroke-opacity:0.1; fill:none" points="
  219.866,243.411 2352.76,243.411 
  "/>
<polyline clip-path="url(#clip910)" style="stroke:#000000; stroke-width:4; stroke-opacity:1; fill:none" points="
  219.866,1423.18 219.866,47.2441 
  "/>
<polyline clip-path="url(#clip910)" style="stroke:#000000; stroke-width:4; stroke-opacity:1; fill:none" points="
  219.866,1384.24 245.461,1384.24 
  "/>
<polyline clip-path="url(#clip910)" style="stroke:#000000; stroke-width:4; stroke-opacity:1; fill:none" points="
  219.866,1003.96 245.461,1003.96 
  "/>
<polyline clip-path="url(#clip910)" style="stroke:#000000; stroke-width:4; stroke-opacity:1; fill:none" points="
  219.866,623.687 245.461,623.687 
  "/>
<polyline clip-path="url(#clip910)" style="stroke:#000000; stroke-width:4; stroke-opacity:1; fill:none" points="
  219.866,243.411 245.461,243.411 
  "/>
<path clip-path="url(#clip910)" d="M 0 0 M126.691 1370.04 Q123.08 1370.04 121.251 1373.6 Q119.445 1377.14 119.445 1384.27 Q119.445 1391.38 121.251 1394.94 Q123.08 1398.49 126.691 1398.49 Q130.325 1398.49 132.13 1394.94 Q133.959 1391.38 133.959 1384.27 Q133.959 1377.14 132.13 1373.6 Q130.325 1370.04 126.691 1370.04 M126.691 1366.33 Q132.501 1366.33 135.556 1370.94 Q138.635 1375.52 138.635 1384.27 Q138.635 1393 135.556 1397.61 Q132.501 1402.19 126.691 1402.19 Q120.88 1402.19 117.802 1397.61 Q114.746 1393 114.746 1384.27 Q114.746 1375.52 117.802 1370.94 Q120.88 1366.33 126.691 1366.33 Z" fill="#000000" fill-rule="evenodd" fill-opacity="1" /><path clip-path="url(#clip910)" d="M 0 0 M146.853 1395.64 L151.737 1395.64 L151.737 1401.52 L146.853 1401.52 L146.853 1395.64 Z" fill="#000000" fill-rule="evenodd" fill-opacity="1" /><path clip-path="url(#clip910)" d="M 0 0 M171.922 1370.04 Q168.311 1370.04 166.482 1373.6 Q164.677 1377.14 164.677 1384.27 Q164.677 1391.38 166.482 1394.94 Q168.311 1398.49 171.922 1398.49 Q175.556 1398.49 177.362 1394.94 Q179.19 1391.38 179.19 1384.27 Q179.19 1377.14 177.362 1373.6 Q175.556 1370.04 171.922 1370.04 M171.922 1366.33 Q177.732 1366.33 180.788 1370.94 Q183.866 1375.52 183.866 1384.27 Q183.866 1393 180.788 1397.61 Q177.732 1402.19 171.922 1402.19 Q166.112 1402.19 163.033 1397.61 Q159.978 1393 159.978 1384.27 Q159.978 1375.52 163.033 1370.94 Q166.112 1366.33 171.922 1366.33 Z" fill="#000000" fill-rule="evenodd" fill-opacity="1" /><path clip-path="url(#clip910)" d="M 0 0 M128.288 989.761 Q124.677 989.761 122.848 993.326 Q121.043 996.868 121.043 1004 Q121.043 1011.1 122.848 1014.67 Q124.677 1018.21 128.288 1018.21 Q131.922 1018.21 133.728 1014.67 Q135.556 1011.1 135.556 1004 Q135.556 996.868 133.728 993.326 Q131.922 989.761 128.288 989.761 M128.288 986.058 Q134.098 986.058 137.154 990.664 Q140.232 995.247 140.232 1004 Q140.232 1012.72 137.154 1017.33 Q134.098 1021.91 128.288 1021.91 Q122.478 1021.91 119.399 1017.33 Q116.343 1012.72 116.343 1004 Q116.343 995.247 119.399 990.664 Q122.478 986.058 128.288 986.058 Z" fill="#000000" fill-rule="evenodd" fill-opacity="1" /><path clip-path="url(#clip910)" d="M 0 0 M148.45 1015.36 L153.334 1015.36 L153.334 1021.24 L148.45 1021.24 L148.45 1015.36 Z" fill="#000000" fill-rule="evenodd" fill-opacity="1" /><path clip-path="url(#clip910)" d="M 0 0 M167.547 1017.31 L183.866 1017.31 L183.866 1021.24 L161.922 1021.24 L161.922 1017.31 Q164.584 1014.55 169.167 1009.92 Q173.774 1005.27 174.954 1003.93 Q177.2 1001.4 178.079 999.669 Q178.982 997.909 178.982 996.22 Q178.982 993.465 177.038 991.729 Q175.116 989.993 172.014 989.993 Q169.815 989.993 167.362 990.757 Q164.931 991.521 162.153 993.071 L162.153 988.349 Q164.977 987.215 167.431 986.636 Q169.885 986.058 171.922 986.058 Q177.292 986.058 180.487 988.743 Q183.681 991.428 183.681 995.919 Q183.681 998.048 182.871 999.97 Q182.084 1001.87 179.977 1004.46 Q179.399 1005.13 176.297 1008.35 Q173.195 1011.54 167.547 1017.31 Z" fill="#000000" fill-rule="evenodd" fill-opacity="1" /><path clip-path="url(#clip910)" d="M 0 0 M126.205 609.486 Q122.593 609.486 120.765 613.05 Q118.959 616.592 118.959 623.722 Q118.959 630.828 120.765 634.393 Q122.593 637.935 126.205 637.935 Q129.839 637.935 131.644 634.393 Q133.473 630.828 133.473 623.722 Q133.473 616.592 131.644 613.05 Q129.839 609.486 126.205 609.486 M126.205 605.782 Q132.015 605.782 135.07 610.388 Q138.149 614.972 138.149 623.722 Q138.149 632.448 135.07 637.055 Q132.015 641.638 126.205 641.638 Q120.394 641.638 117.316 637.055 Q114.26 632.448 114.26 623.722 Q114.26 614.972 117.316 610.388 Q120.394 605.782 126.205 605.782 Z" fill="#000000" fill-rule="evenodd" fill-opacity="1" /><path clip-path="url(#clip910)" d="M 0 0 M146.366 635.087 L151.251 635.087 L151.251 640.967 L146.366 640.967 L146.366 635.087 Z" fill="#000000" fill-rule="evenodd" fill-opacity="1" /><path clip-path="url(#clip910)" d="M 0 0 M174.283 610.481 L162.477 628.93 L174.283 628.93 L174.283 610.481 M173.056 606.407 L178.936 606.407 L178.936 628.93 L183.866 628.93 L183.866 632.819 L178.936 632.819 L178.936 640.967 L174.283 640.967 L174.283 632.819 L158.681 632.819 L158.681 628.305 L173.056 606.407 Z" fill="#000000" fill-rule="evenodd" fill-opacity="1" /><path clip-path="url(#clip910)" d="M 0 0 M126.529 229.21 Q122.918 229.21 121.089 232.775 Q119.283 236.316 119.283 243.446 Q119.283 250.552 121.089 254.117 Q122.918 257.659 126.529 257.659 Q130.163 257.659 131.968 254.117 Q133.797 250.552 133.797 243.446 Q133.797 236.316 131.968 232.775 Q130.163 229.21 126.529 229.21 M126.529 225.506 Q132.339 225.506 135.394 230.113 Q138.473 234.696 138.473 243.446 Q138.473 252.173 135.394 256.779 Q132.339 261.363 126.529 261.363 Q120.718 261.363 117.64 256.779 Q114.584 252.173 114.584 243.446 Q114.584 234.696 117.64 230.113 Q120.718 225.506 126.529 225.506 Z" fill="#000000" fill-rule="evenodd" fill-opacity="1" /><path clip-path="url(#clip910)" d="M 0 0 M146.691 254.812 L151.575 254.812 L151.575 260.691 L146.691 260.691 L146.691 254.812 Z" fill="#000000" fill-rule="evenodd" fill-opacity="1" /><path clip-path="url(#clip910)" d="M 0 0 M172.339 241.548 Q169.19 241.548 167.339 243.701 Q165.51 245.853 165.51 249.603 Q165.51 253.33 167.339 255.506 Q169.19 257.659 172.339 257.659 Q175.487 257.659 177.315 255.506 Q179.167 253.33 179.167 249.603 Q179.167 245.853 177.315 243.701 Q175.487 241.548 172.339 241.548 M181.621 226.895 L181.621 231.154 Q179.862 230.321 178.056 229.881 Q176.274 229.441 174.514 229.441 Q169.885 229.441 167.431 232.566 Q165.001 235.691 164.653 242.011 Q166.019 239.997 168.079 238.932 Q170.139 237.844 172.616 237.844 Q177.825 237.844 180.834 241.015 Q183.866 244.164 183.866 249.603 Q183.866 254.927 180.718 258.145 Q177.57 261.363 172.339 261.363 Q166.343 261.363 163.172 256.779 Q160.001 252.173 160.001 243.446 Q160.001 235.252 163.89 230.391 Q167.778 225.506 174.329 225.506 Q176.089 225.506 177.871 225.854 Q179.676 226.201 181.621 226.895 Z" fill="#000000" fill-rule="evenodd" fill-opacity="1" /><path clip-path="url(#clip910)" d="M 0 0 M21.7677 799.617 L39.6235 799.617 L39.6235 791.533 Q39.6235 787.045 37.3 784.594 Q34.9765 782.143 30.6797 782.143 Q26.4147 782.143 24.0912 784.594 Q21.7677 787.045 21.7677 791.533 L21.7677 799.617 M16.4842 806.046 L16.4842 791.533 Q16.4842 783.544 20.1126 779.47 Q23.7092 775.364 30.6797 775.364 Q37.7138 775.364 41.3104 779.47 Q44.907 783.544 44.907 791.533 L44.907 799.617 L64.0042 799.617 L64.0042 806.046 L16.4842 806.046 Z" fill="#000000" fill-rule="evenodd" fill-opacity="1" /><path clip-path="url(#clip910)" d="M 0 0 M14.5426 752.925 Q21.8632 757.19 29.0246 759.258 Q36.186 761.327 43.5384 761.327 Q50.8908 761.327 58.1159 759.258 Q65.3091 757.158 72.5979 752.925 L72.5979 758.017 Q65.1182 762.791 57.8931 765.179 Q50.668 767.534 43.5384 767.534 Q36.4406 767.534 29.2474 765.179 Q22.0542 762.823 14.5426 758.017 L14.5426 752.925 Z" fill="#000000" fill-rule="evenodd" fill-opacity="1" /><path clip-path="url(#clip910)" d="M 0 0 M35.1993 713.807 Q31.2526 711.611 29.3747 708.556 Q27.4968 705.5 27.4968 701.362 Q27.4968 695.792 31.4117 692.769 Q35.2948 689.745 42.4881 689.745 L64.0042 689.745 L64.0042 695.633 L42.679 695.633 Q37.5546 695.633 35.072 697.447 Q32.5894 699.262 32.5894 702.986 Q32.5894 707.537 35.6131 710.179 Q38.6368 712.821 43.8567 712.821 L64.0042 712.821 L64.0042 718.709 L42.679 718.709 Q37.5228 718.709 35.072 720.523 Q32.5894 722.337 32.5894 726.125 Q32.5894 730.613 35.6449 733.255 Q38.6686 735.896 43.8567 735.896 L64.0042 735.896 L64.0042 741.785 L28.3562 741.785 L28.3562 735.896 L33.8944 735.896 Q30.616 733.891 29.0564 731.09 Q27.4968 728.289 27.4968 724.438 Q27.4968 720.555 29.4702 717.85 Q31.4436 715.112 35.1993 713.807 Z" fill="#000000" fill-rule="evenodd" fill-opacity="1" /><path clip-path="url(#clip910)" d="M 0 0 M14.5426 678.987 L14.5426 673.894 Q22.0542 669.12 29.2474 666.765 Q36.4406 664.378 43.5384 664.378 Q50.668 664.378 57.8931 666.765 Q65.1182 669.12 72.5979 673.894 L72.5979 678.987 Q65.3091 674.754 58.1159 672.685 Q50.8908 670.584 43.5384 670.584 Q36.186 670.584 29.0246 672.685 Q21.8632 674.754 14.5426 678.987 Z" fill="#000000" fill-rule="evenodd" fill-opacity="1" /><path clip-path="url(#clip912)" d="
M337.179 86.1857 L337.179 1384.24 L653.556 1384.24 L653.556 86.1857 L337.179 86.1857 L337.179 86.1857  Z
  " fill="#009af9" fill-rule="evenodd" fill-opacity="1"/>
<polyline clip-path="url(#clip912)" style="stroke:#009af9; stroke-width:4; stroke-opacity:1; fill:none" points="
  337.179,86.1857 337.179,1384.24 653.556,1384.24 653.556,86.1857 337.179,86.1857 
  "/>
<path clip-path="url(#clip912)" d="
M653.556 890.031 L653.556 1384.24 L969.934 1384.24 L969.934 890.031 L653.556 890.031 L653.556 890.031  Z
  " fill="#009af9" fill-rule="evenodd" fill-opacity="1"/>
<polyline clip-path="url(#clip912)" style="stroke:#009af9; stroke-width:4; stroke-opacity:1; fill:none" points="
  653.556,890.031 653.556,1384.24 969.934,1384.24 969.934,890.031 653.556,890.031 
  "/>
<path clip-path="url(#clip912)" d="
M969.934 1289.69 L969.934 1384.24 L1286.31 1384.24 L1286.31 1289.69 L969.934 1289.69 L969.934 1289.69  Z
  " fill="#009af9" fill-rule="evenodd" fill-opacity="1"/>
<polyline clip-path="url(#clip912)" style="stroke:#009af9; stroke-width:4; stroke-opacity:1; fill:none" points="
  969.934,1289.69 969.934,1384.24 1286.31,1384.24 1286.31,1289.69 969.934,1289.69 
  "/>
<path clip-path="url(#clip912)" d="
M1286.31 1370.8 L1286.31 1384.24 L1602.69 1384.24 L1602.69 1370.8 L1286.31 1370.8 L1286.31 1370.8  Z
  " fill="#009af9" fill-rule="evenodd" fill-opacity="1"/>
<polyline clip-path="url(#clip912)" style="stroke:#009af9; stroke-width:4; stroke-opacity:1; fill:none" points="
  1286.31,1370.8 1286.31,1384.24 1602.69,1384.24 1602.69,1370.8 1286.31,1370.8 
  "/>
<path clip-path="url(#clip912)" d="
M1602.69 1383.17 L1602.69 1384.24 L1919.07 1384.24 L1919.07 1383.17 L1602.69 1383.17 L1602.69 1383.17  Z
  " fill="#009af9" fill-rule="evenodd" fill-opacity="1"/>
<polyline clip-path="url(#clip912)" style="stroke:#009af9; stroke-width:4; stroke-opacity:1; fill:none" points="
  1602.69,1383.17 1602.69,1384.24 1919.07,1384.24 1919.07,1383.17 1602.69,1383.17 
  "/>
<path clip-path="url(#clip912)" d="
M1919.07 1384.18 L1919.07 1384.24 L2235.44 1384.24 L2235.44 1384.18 L1919.07 1384.18 L1919.07 1384.18  Z
  " fill="#009af9" fill-rule="evenodd" fill-opacity="1"/>
<polyline clip-path="url(#clip912)" style="stroke:#009af9; stroke-width:4; stroke-opacity:1; fill:none" points="
  1919.07,1384.18 1919.07,1384.24 2235.44,1384.24 2235.44,1384.18 1919.07,1384.18 
  "/>
<polyline clip-path="url(#clip912)" style="stroke:#e26f46; stroke-width:12; stroke-opacity:1; fill:none" points="
  337.179,379.961 368.817,288.577 400.454,219.346 432.092,177.309 463.73,165.629 495.368,185.199 527.005,234.525 558.643,309.923 590.281,405.963 621.919,516.124 
  653.556,633.517 685.194,751.582 716.832,864.669 748.47,968.418 780.107,1059.93 811.745,1137.75 843.383,1201.68 875.021,1252.47 906.658,1291.55 938.296,1320.71 
  969.934,1341.8 1001.57,1356.61 1033.21,1366.71 1064.85,1373.4 1096.48,1377.71 1128.12,1380.41 1159.76,1382.05 1191.4,1383.02 1223.04,1383.57 1254.67,1383.89 
  1286.31,1384.06 1317.95,1384.15 1349.59,1384.19 1381.22,1384.22 1412.86,1384.23 1444.5,1384.23 1476.14,1384.24 1507.78,1384.24 1539.41,1384.24 1571.05,1384.24 
  1602.69,1384.24 1634.33,1384.24 1665.96,1384.24 1697.6,1384.24 1729.24,1384.24 1760.88,1384.24 1792.51,1384.24 1824.15,1384.24 1855.79,1384.24 1887.43,1384.24 
  1919.07,1384.24 
  "/>
<polyline clip-path="url(#clip912)" style="stroke:#3da44d; stroke-width:12; stroke-opacity:1; fill:none" points="
  337.179,93.4167 368.817,150.195 400.454,221.309 432.092,302.156 463.73,388.758 495.368,477.786 527.005,566.541 558.643,652.917 590.281,735.341 621.919,812.707 
  653.556,884.303 685.194,949.743 716.832,1008.9 748.47,1061.86 780.107,1108.85 811.745,1150.19 843.383,1186.3 875.021,1217.63 906.658,1244.62 938.296,1267.74 
  969.934,1287.43 1001.57,1304.1 1033.21,1318.16 1064.85,1329.95 1096.48,1339.8 1128.12,1347.98 1159.76,1354.75 1191.4,1360.34 1223.04,1364.93 1254.67,1368.68 
  1286.31,1371.74 1317.95,1374.23 1349.59,1376.24 1381.22,1377.87 1412.86,1379.18 1444.5,1380.23 1476.14,1381.07 1507.78,1381.74 1539.41,1382.27 1571.05,1382.69 
  1602.69,1383.03 1634.33,1383.29 1665.96,1383.5 1697.6,1383.66 1729.24,1383.79 1760.88,1383.89 1792.51,1383.97 1824.15,1384.03 1855.79,1384.08 1887.43,1384.12 
  1919.07,1384.14 
  "/>
<path clip-path="url(#clip910)" d="
M1774.05 335.029 L2281.66 335.029 L2281.66 93.1086 L1774.05 93.1086  Z
  " fill="#ffffff" fill-rule="evenodd" fill-opacity="1"/>
<polyline clip-path="url(#clip910)" style="stroke:#000000; stroke-width:4; stroke-opacity:1; fill:none" points="
  1774.05,335.029 2281.66,335.029 2281.66,93.1086 1774.05,93.1086 1774.05,335.029 
  "/>
<path clip-path="url(#clip910)" d="
M1797.75 177.781 L1939.94 177.781 L1939.94 129.397 L1797.75 129.397 L1797.75 177.781  Z
  " fill="#009af9" fill-rule="evenodd" fill-opacity="1"/>
<polyline clip-path="url(#clip910)" style="stroke:#009af9; stroke-width:4; stroke-opacity:1; fill:none" points="
  1797.75,177.781 1939.94,177.781 1939.94,129.397 1797.75,129.397 1797.75,177.781 
  "/>
<path clip-path="url(#clip910)" d="M 0 0 M1977.48 173.276 Q1975.68 177.906 1973.96 179.318 Q1972.25 180.73 1969.38 180.73 L1965.98 180.73 L1965.98 177.165 L1968.48 177.165 Q1970.24 177.165 1971.21 176.332 Q1972.18 175.498 1973.36 172.396 L1974.12 170.452 L1963.64 144.943 L1968.15 144.943 L1976.25 165.221 L1984.36 144.943 L1988.87 144.943 L1977.48 173.276 Z" fill="#000000" fill-rule="evenodd" fill-opacity="1" /><path clip-path="url(#clip910)" d="M 0 0 M1996.16 166.933 L2003.8 166.933 L2003.8 140.568 L1995.49 142.235 L1995.49 137.975 L2003.75 136.309 L2008.43 136.309 L2008.43 166.933 L2016.07 166.933 L2016.07 170.869 L1996.16 170.869 L1996.16 166.933 Z" fill="#000000" fill-rule="evenodd" fill-opacity="1" /><polyline clip-path="url(#clip910)" style="stroke:#e26f46; stroke-width:4; stroke-opacity:1; fill:none" points="
  1797.75,214.069 1939.94,214.069 
  "/>
<path clip-path="url(#clip910)" d="M 0 0 M1982.55 218.085 Q1982.55 213.455 1980.63 210.909 Q1978.73 208.363 1975.28 208.363 Q1971.86 208.363 1969.93 210.909 Q1968.04 213.455 1968.04 218.085 Q1968.04 222.691 1969.93 225.238 Q1971.86 227.784 1975.28 227.784 Q1978.73 227.784 1980.63 225.238 Q1982.55 222.691 1982.55 218.085 M1986.81 228.131 Q1986.81 234.751 1983.87 237.969 Q1980.93 241.21 1974.87 241.21 Q1972.62 241.21 1970.63 240.862 Q1968.64 240.538 1966.76 239.844 L1966.76 235.7 Q1968.64 236.719 1970.47 237.205 Q1972.3 237.691 1974.19 237.691 Q1978.38 237.691 1980.47 235.492 Q1982.55 233.316 1982.55 228.895 L1982.55 226.788 Q1981.23 229.08 1979.17 230.214 Q1977.11 231.349 1974.24 231.349 Q1969.47 231.349 1966.56 227.714 Q1963.64 224.08 1963.64 218.085 Q1963.64 212.066 1966.56 208.432 Q1969.47 204.798 1974.24 204.798 Q1977.11 204.798 1979.17 205.932 Q1981.23 207.066 1982.55 209.358 L1982.55 205.423 L1986.81 205.423 L1986.81 228.131 Z" fill="#000000" fill-rule="evenodd" fill-opacity="1" /><path clip-path="url(#clip910)" d="M 0 0 M2007.37 218.316 Q2002.2 218.316 2000.21 219.497 Q1998.22 220.677 1998.22 223.525 Q1998.22 225.793 1999.7 227.136 Q2001.21 228.455 2003.78 228.455 Q2007.32 228.455 2009.45 225.955 Q2011.6 223.432 2011.6 219.265 L2011.6 218.316 L2007.37 218.316 M2015.86 216.557 L2015.86 231.349 L2011.6 231.349 L2011.6 227.413 Q2010.14 229.775 2007.97 230.909 Q2005.79 232.02 2002.64 232.02 Q1998.66 232.02 1996.3 229.798 Q1993.96 227.552 1993.96 223.802 Q1993.96 219.427 1996.88 217.205 Q1999.82 214.983 2005.63 214.983 L2011.6 214.983 L2011.6 214.566 Q2011.6 211.627 2009.66 210.029 Q2007.74 208.409 2004.24 208.409 Q2002.02 208.409 1999.91 208.941 Q1997.8 209.474 1995.86 210.539 L1995.86 206.603 Q1998.2 205.701 2000.4 205.261 Q2002.6 204.798 2004.68 204.798 Q2010.3 204.798 2013.08 207.714 Q2015.86 210.631 2015.86 216.557 Z" fill="#000000" fill-rule="evenodd" fill-opacity="1" /><path clip-path="url(#clip910)" d="M 0 0 M2024.19 221.117 L2024.19 205.423 L2028.45 205.423 L2028.45 220.955 Q2028.45 224.636 2029.89 226.488 Q2031.32 228.316 2034.19 228.316 Q2037.64 228.316 2039.63 226.117 Q2041.65 223.918 2041.65 220.122 L2041.65 205.423 L2045.91 205.423 L2045.91 231.349 L2041.65 231.349 L2041.65 227.367 Q2040.1 229.728 2038.04 230.886 Q2036 232.02 2033.29 232.02 Q2028.82 232.02 2026.51 229.242 Q2024.19 226.464 2024.19 221.117 M2034.91 204.798 L2034.91 204.798 Z" fill="#000000" fill-rule="evenodd" fill-opacity="1" /><path clip-path="url(#clip910)" d="M 0 0 M2071.21 206.187 L2071.21 210.214 Q2069.4 209.289 2067.46 208.826 Q2065.51 208.363 2063.43 208.363 Q2060.26 208.363 2058.66 209.335 Q2057.09 210.307 2057.09 212.251 Q2057.09 213.733 2058.22 214.589 Q2059.36 215.423 2062.78 216.187 L2064.24 216.511 Q2068.78 217.483 2070.67 219.265 Q2072.6 221.025 2072.6 224.196 Q2072.6 227.807 2069.73 229.913 Q2066.88 232.02 2061.88 232.02 Q2059.8 232.02 2057.53 231.603 Q2055.28 231.21 2052.78 230.4 L2052.78 226.001 Q2055.14 227.228 2057.43 227.853 Q2059.73 228.455 2061.97 228.455 Q2064.98 228.455 2066.6 227.437 Q2068.22 226.395 2068.22 224.52 Q2068.22 222.784 2067.04 221.858 Q2065.88 220.932 2061.92 220.076 L2060.44 219.728 Q2056.49 218.895 2054.73 217.182 Q2052.97 215.446 2052.97 212.437 Q2052.97 208.779 2055.56 206.789 Q2058.15 204.798 2062.92 204.798 Q2065.28 204.798 2067.36 205.145 Q2069.45 205.492 2071.21 206.187 Z" fill="#000000" fill-rule="evenodd" fill-opacity="1" /><path clip-path="url(#clip910)" d="M 0 0 M2095.91 206.187 L2095.91 210.214 Q2094.1 209.289 2092.16 208.826 Q2090.21 208.363 2088.13 208.363 Q2084.96 208.363 2083.36 209.335 Q2081.79 210.307 2081.79 212.251 Q2081.79 213.733 2082.92 214.589 Q2084.05 215.423 2087.48 216.187 L2088.94 216.511 Q2093.48 217.483 2095.37 219.265 Q2097.3 221.025 2097.3 224.196 Q2097.3 227.807 2094.42 229.913 Q2091.58 232.02 2086.58 232.02 Q2084.49 232.02 2082.23 231.603 Q2079.98 231.21 2077.48 230.4 L2077.48 226.001 Q2079.84 227.228 2082.13 227.853 Q2084.42 228.455 2086.67 228.455 Q2089.68 228.455 2091.3 227.437 Q2092.92 226.395 2092.92 224.52 Q2092.92 222.784 2091.74 221.858 Q2090.58 220.932 2086.62 220.076 L2085.14 219.728 Q2081.18 218.895 2079.42 217.182 Q2077.67 215.446 2077.67 212.437 Q2077.67 208.779 2080.26 206.789 Q2082.85 204.798 2087.62 204.798 Q2089.98 204.798 2092.06 205.145 Q2094.15 205.492 2095.91 206.187 Z" fill="#000000" fill-rule="evenodd" fill-opacity="1" /><path clip-path="url(#clip910)" d="M 0 0 M2104.08 205.423 L2108.34 205.423 L2108.34 231.349 L2104.08 231.349 L2104.08 205.423 M2104.08 195.33 L2108.34 195.33 L2108.34 200.724 L2104.08 200.724 L2104.08 195.33 Z" fill="#000000" fill-rule="evenodd" fill-opacity="1" /><path clip-path="url(#clip910)" d="M 0 0 M2129.03 218.316 Q2123.87 218.316 2121.88 219.497 Q2119.89 220.677 2119.89 223.525 Q2119.89 225.793 2121.37 227.136 Q2122.87 228.455 2125.44 228.455 Q2128.98 228.455 2131.11 225.955 Q2133.27 223.432 2133.27 219.265 L2133.27 218.316 L2129.03 218.316 M2137.53 216.557 L2137.53 231.349 L2133.27 231.349 L2133.27 227.413 Q2131.81 229.775 2129.63 230.909 Q2127.46 232.02 2124.31 232.02 Q2120.33 232.02 2117.97 229.798 Q2115.63 227.552 2115.63 223.802 Q2115.63 219.427 2118.55 217.205 Q2121.48 214.983 2127.3 214.983 L2133.27 214.983 L2133.27 214.566 Q2133.27 211.627 2131.32 210.029 Q2129.4 208.409 2125.91 208.409 Q2123.68 208.409 2121.58 208.941 Q2119.47 209.474 2117.53 210.539 L2117.53 206.603 Q2119.86 205.701 2122.06 205.261 Q2124.26 204.798 2126.35 204.798 Q2131.97 204.798 2134.75 207.714 Q2137.53 210.631 2137.53 216.557 Z" fill="#000000" fill-rule="evenodd" fill-opacity="1" /><path clip-path="url(#clip910)" d="M 0 0 M2167.85 215.701 L2167.85 231.349 L2163.59 231.349 L2163.59 215.839 Q2163.59 212.159 2162.16 210.33 Q2160.72 208.502 2157.85 208.502 Q2154.4 208.502 2152.41 210.701 Q2150.42 212.9 2150.42 216.696 L2150.42 231.349 L2146.14 231.349 L2146.14 205.423 L2150.42 205.423 L2150.42 209.451 Q2151.95 207.113 2154.01 205.955 Q2156.09 204.798 2158.8 204.798 Q2163.27 204.798 2165.56 207.576 Q2167.85 210.33 2167.85 215.701 Z" fill="#000000" fill-rule="evenodd" fill-opacity="1" /><path clip-path="url(#clip910)" d="M 0 0 M2204.54 195.33 L2204.54 198.872 L2200.47 198.872 Q2198.17 198.872 2197.27 199.798 Q2196.39 200.724 2196.39 203.131 L2196.39 205.423 L2203.41 205.423 L2203.41 208.733 L2196.39 208.733 L2196.39 231.349 L2192.11 231.349 L2192.11 208.733 L2188.04 208.733 L2188.04 205.423 L2192.11 205.423 L2192.11 203.617 Q2192.11 199.289 2194.12 197.321 Q2196.14 195.33 2200.51 195.33 L2204.54 195.33 Z" fill="#000000" fill-rule="evenodd" fill-opacity="1" /><path clip-path="url(#clip910)" d="M 0 0 M2208.1 205.423 L2212.36 205.423 L2212.36 231.349 L2208.1 231.349 L2208.1 205.423 M2208.1 195.33 L2212.36 195.33 L2212.36 200.724 L2208.1 200.724 L2208.1 195.33 Z" fill="#000000" fill-rule="evenodd" fill-opacity="1" /><path clip-path="url(#clip910)" d="M 0 0 M2225.49 198.062 L2225.49 205.423 L2234.26 205.423 L2234.26 208.733 L2225.49 208.733 L2225.49 222.807 Q2225.49 225.978 2226.35 226.881 Q2227.23 227.784 2229.89 227.784 L2234.26 227.784 L2234.26 231.349 L2229.89 231.349 Q2224.96 231.349 2223.08 229.52 Q2221.21 227.668 2221.21 222.807 L2221.21 208.733 L2218.08 208.733 L2218.08 205.423 L2221.21 205.423 L2221.21 198.062 L2225.49 198.062 Z" fill="#000000" fill-rule="evenodd" fill-opacity="1" /><polyline clip-path="url(#clip910)" style="stroke:#3da44d; stroke-width:4; stroke-opacity:1; fill:none" points="
  1797.75,274.549 1939.94,274.549 
  "/>
<path clip-path="url(#clip910)" d="M 0 0 M1967.92 287.94 L1967.92 301.69 L1963.64 301.69 L1963.64 265.903 L1967.92 265.903 L1967.92 269.838 Q1969.26 267.523 1971.3 266.412 Q1973.36 265.278 1976.21 265.278 Q1980.93 265.278 1983.87 269.028 Q1986.83 272.778 1986.83 278.889 Q1986.83 285 1983.87 288.75 Q1980.93 292.5 1976.21 292.5 Q1973.36 292.5 1971.3 291.389 Q1969.26 290.255 1967.92 287.94 M1982.41 278.889 Q1982.41 274.19 1980.47 271.528 Q1978.55 268.843 1975.17 268.843 Q1971.79 268.843 1969.84 271.528 Q1967.92 274.19 1967.92 278.889 Q1967.92 283.588 1969.84 286.273 Q1971.79 288.935 1975.17 288.935 Q1978.55 288.935 1980.47 286.273 Q1982.41 283.588 1982.41 278.889 Z" fill="#000000" fill-rule="evenodd" fill-opacity="1" /><path clip-path="url(#clip910)" d="M 0 0 M2003.94 268.889 Q2000.51 268.889 1998.52 271.574 Q1996.53 274.236 1996.53 278.889 Q1996.53 283.542 1998.5 286.227 Q2000.49 288.889 2003.94 288.889 Q2007.34 288.889 2009.33 286.204 Q2011.32 283.518 2011.32 278.889 Q2011.32 274.282 2009.33 271.597 Q2007.34 268.889 2003.94 268.889 M2003.94 265.278 Q2009.49 265.278 2012.67 268.889 Q2015.84 272.5 2015.84 278.889 Q2015.84 285.255 2012.67 288.889 Q2009.49 292.5 2003.94 292.5 Q1998.36 292.5 1995.19 288.889 Q1992.04 285.255 1992.04 278.889 Q1992.04 272.5 1995.19 268.889 Q1998.36 265.278 2003.94 265.278 Z" fill="#000000" fill-rule="evenodd" fill-opacity="1" /><path clip-path="url(#clip910)" d="M 0 0 M2022.9 265.903 L2027.16 265.903 L2027.16 291.829 L2022.9 291.829 L2022.9 265.903 M2022.9 255.81 L2027.16 255.81 L2027.16 261.204 L2022.9 261.204 L2022.9 255.81 Z" fill="#000000" fill-rule="evenodd" fill-opacity="1" /><path clip-path="url(#clip910)" d="M 0 0 M2052.6 266.667 L2052.6 270.694 Q2050.79 269.769 2048.85 269.306 Q2046.9 268.843 2044.82 268.843 Q2041.65 268.843 2040.05 269.815 Q2038.48 270.787 2038.48 272.731 Q2038.48 274.213 2039.61 275.069 Q2040.74 275.903 2044.17 276.667 L2045.63 276.991 Q2050.17 277.963 2052.06 279.745 Q2053.99 281.505 2053.99 284.676 Q2053.99 288.287 2051.11 290.393 Q2048.27 292.5 2043.27 292.5 Q2041.18 292.5 2038.92 292.083 Q2036.67 291.69 2034.17 290.88 L2034.17 286.481 Q2036.53 287.708 2038.82 288.333 Q2041.11 288.935 2043.36 288.935 Q2046.37 288.935 2047.99 287.917 Q2049.61 286.875 2049.61 285 Q2049.61 283.264 2048.43 282.338 Q2047.27 281.412 2043.31 280.556 L2041.83 280.208 Q2037.87 279.375 2036.11 277.662 Q2034.36 275.926 2034.36 272.917 Q2034.36 269.259 2036.95 267.269 Q2039.54 265.278 2044.31 265.278 Q2046.67 265.278 2048.75 265.625 Q2050.84 265.972 2052.6 266.667 Z" fill="#000000" fill-rule="evenodd" fill-opacity="1" /><path clip-path="url(#clip910)" d="M 0 0 M2077.3 266.667 L2077.3 270.694 Q2075.49 269.769 2073.55 269.306 Q2071.6 268.843 2069.52 268.843 Q2066.35 268.843 2064.75 269.815 Q2063.17 270.787 2063.17 272.731 Q2063.17 274.213 2064.31 275.069 Q2065.44 275.903 2068.87 276.667 L2070.33 276.991 Q2074.86 277.963 2076.76 279.745 Q2078.68 281.505 2078.68 284.676 Q2078.68 288.287 2075.81 290.393 Q2072.97 292.5 2067.97 292.5 Q2065.88 292.5 2063.61 292.083 Q2061.37 291.69 2058.87 290.88 L2058.87 286.481 Q2061.23 287.708 2063.52 288.333 Q2065.81 288.935 2068.06 288.935 Q2071.07 288.935 2072.69 287.917 Q2074.31 286.875 2074.31 285 Q2074.31 283.264 2073.13 282.338 Q2071.97 281.412 2068.01 280.556 L2066.53 280.208 Q2062.57 279.375 2060.81 277.662 Q2059.05 275.926 2059.05 272.917 Q2059.05 269.259 2061.65 267.269 Q2064.24 265.278 2069.01 265.278 Q2071.37 265.278 2073.45 265.625 Q2075.54 265.972 2077.3 266.667 Z" fill="#000000" fill-rule="evenodd" fill-opacity="1" /><path clip-path="url(#clip910)" d="M 0 0 M2095.51 268.889 Q2092.09 268.889 2090.1 271.574 Q2088.11 274.236 2088.11 278.889 Q2088.11 283.542 2090.07 286.227 Q2092.06 288.889 2095.51 288.889 Q2098.92 288.889 2100.91 286.204 Q2102.9 283.518 2102.9 278.889 Q2102.9 274.282 2100.91 271.597 Q2098.92 268.889 2095.51 268.889 M2095.51 265.278 Q2101.07 265.278 2104.24 268.889 Q2107.41 272.5 2107.41 278.889 Q2107.41 285.255 2104.24 288.889 Q2101.07 292.5 2095.51 292.5 Q2089.93 292.5 2086.76 288.889 Q2083.61 285.255 2083.61 278.889 Q2083.61 272.5 2086.76 268.889 Q2089.93 265.278 2095.51 265.278 Z" fill="#000000" fill-rule="evenodd" fill-opacity="1" /><path clip-path="url(#clip910)" d="M 0 0 M2136.02 276.181 L2136.02 291.829 L2131.76 291.829 L2131.76 276.319 Q2131.76 272.639 2130.33 270.81 Q2128.89 268.982 2126.02 268.982 Q2122.57 268.982 2120.58 271.181 Q2118.59 273.38 2118.59 277.176 L2118.59 291.829 L2114.31 291.829 L2114.31 265.903 L2118.59 265.903 L2118.59 269.931 Q2120.12 267.593 2122.18 266.435 Q2124.26 265.278 2126.97 265.278 Q2131.44 265.278 2133.73 268.056 Q2136.02 270.81 2136.02 276.181 Z" fill="#000000" fill-rule="evenodd" fill-opacity="1" /><path clip-path="url(#clip910)" d="M 0 0 M2172.71 255.81 L2172.71 259.352 L2168.64 259.352 Q2166.35 259.352 2165.44 260.278 Q2164.56 261.204 2164.56 263.611 L2164.56 265.903 L2171.58 265.903 L2171.58 269.213 L2164.56 269.213 L2164.56 291.829 L2160.28 291.829 L2160.28 269.213 L2156.21 269.213 L2156.21 265.903 L2160.28 265.903 L2160.28 264.097 Q2160.28 259.769 2162.29 257.801 Q2164.31 255.81 2168.68 255.81 L2172.71 255.81 Z" fill="#000000" fill-rule="evenodd" fill-opacity="1" /><path clip-path="url(#clip910)" d="M 0 0 M2176.28 265.903 L2180.54 265.903 L2180.54 291.829 L2176.28 291.829 L2176.28 265.903 M2176.28 255.81 L2180.54 255.81 L2180.54 261.204 L2176.28 261.204 L2176.28 255.81 Z" fill="#000000" fill-rule="evenodd" fill-opacity="1" /><path clip-path="url(#clip910)" d="M 0 0 M2193.66 258.542 L2193.66 265.903 L2202.43 265.903 L2202.43 269.213 L2193.66 269.213 L2193.66 283.287 Q2193.66 286.458 2194.52 287.361 Q2195.4 288.264 2198.06 288.264 L2202.43 288.264 L2202.43 291.829 L2198.06 291.829 Q2193.13 291.829 2191.25 290 Q2189.38 288.148 2189.38 283.287 L2189.38 269.213 L2186.25 269.213 L2186.25 265.903 L2189.38 265.903 L2189.38 258.542 L2193.66 258.542 Z" fill="#000000" fill-rule="evenodd" fill-opacity="1" /></svg>
