<?xml version="1.0" encoding="utf-8"?>
<svg xmlns="http://www.w3.org/2000/svg" xmlns:xlink="http://www.w3.org/1999/xlink" width="600" height="400" viewBox="0 0 2400 1600">
<defs>
  <clipPath id="clip880">
    <rect x="0" y="0" width="2400" height="1600"/>
  </clipPath>
</defs>
<path clip-path="url(#clip880)" d="
M0 1600 L2400 1600 L2400 0 L0 0  Z
  " fill="#ffffff" fill-rule="evenodd" fill-opacity="1"/>
<defs>
  <clipPath id="clip881">
    <rect x="480" y="0" width="1681" height="1600"/>
  </clipPath>
</defs>
<path clip-path="url(#clip880)" d="
M219.866 1423.18 L2352.76 1423.18 L2352.76 47.2441 L219.866 47.2441  Z
  " fill="#ffffff" fill-rule="evenodd" fill-opacity="1"/>
<defs>
  <clipPath id="clip882">
    <rect x="219" y="47" width="2134" height="1377"/>
  </clipPath>
</defs>
<polyline clip-path="url(#clip882)" style="stroke:#000000; stroke-width:2; stroke-opacity:0.1; fill:none" points="
  337.179,1423.18 337.179,47.2441 
  "/>
<polyline clip-path="url(#clip882)" style="stroke:#000000; stroke-width:2; stroke-opacity:0.1; fill:none" points="
  811.745,1423.18 811.745,47.2441 
  "/>
<polyline clip-path="url(#clip882)" style="stroke:#000000; stroke-width:2; stroke-opacity:0.1; fill:none" points="
  1286.31,1423.18 1286.31,47.2441 
  "/>
<polyline clip-path="url(#clip882)" style="stroke:#000000; stroke-width:2; stroke-opacity:0.1; fill:none" points="
  1760.88,1423.18 1760.88,47.2441 
  "/>
<polyline clip-path="url(#clip882)" style="stroke:#000000; stroke-width:2; stroke-opacity:0.1; fill:none" points="
  2235.44,1423.18 2235.44,47.2441 
  "/>
<polyline clip-path="url(#clip880)" style="stroke:#000000; stroke-width:4; stroke-opacity:1; fill:none" points="
  219.866,1423.18 2352.76,1423.18 
  "/>
<polyline clip-path="url(#clip880)" style="stroke:#000000; stroke-width:4; stroke-opacity:1; fill:none" points="
  337.179,1423.18 337.179,1406.67 
  "/>
<polyline clip-path="url(#clip880)" style="stroke:#000000; stroke-width:4; stroke-opacity:1; fill:none" points="
  811.745,1423.18 811.745,1406.67 
  "/>
<polyline clip-path="url(#clip880)" style="stroke:#000000; stroke-width:4; stroke-opacity:1; fill:none" points="
  1286.31,1423.18 1286.31,1406.67 
  "/>
<polyline clip-path="url(#clip880)" style="stroke:#000000; stroke-width:4; stroke-opacity:1; fill:none" points="
  1760.88,1423.18 1760.88,1406.67 
  "/>
<polyline clip-path="url(#clip880)" style="stroke:#000000; stroke-width:4; stroke-opacity:1; fill:none" points="
  2235.44,1423.18 2235.44,1406.67 
  "/>
<path clip-path="url(#clip880)" d="M 0 0 M337.179 1452.37 Q333.568 1452.37 331.739 1455.94 Q329.934 1459.48 329.934 1466.61 Q329.934 1473.71 331.739 1477.28 Q333.568 1480.82 337.179 1480.82 Q340.813 1480.82 342.619 1477.28 Q344.447 1473.71 344.447 1466.61 Q344.447 1459.48 342.619 1455.94 Q340.813 1452.37 337.179 1452.37 M337.179 1448.67 Q342.989 1448.67 346.045 1453.27 Q349.123 1457.86 349.123 1466.61 Q349.123 1475.33 346.045 1479.94 Q342.989 1484.52 337.179 1484.52 Q331.369 1484.52 328.29 1479.94 Q325.235 1475.33 325.235 1466.61 Q325.235 1457.86 328.29 1453.27 Q331.369 1448.67 337.179 1448.67 Z" fill="#000000" fill-rule="evenodd" fill-opacity="1" /><path clip-path="url(#clip880)" d="M 0 0 M806.398 1479.92 L822.717 1479.92 L822.717 1483.85 L800.773 1483.85 L800.773 1479.92 Q803.435 1477.16 808.018 1472.53 Q812.625 1467.88 813.805 1466.54 Q816.051 1464.01 816.93 1462.28 Q817.833 1460.52 817.833 1458.83 Q817.833 1456.07 815.889 1454.34 Q813.967 1452.6 810.865 1452.6 Q808.666 1452.6 806.213 1453.37 Q803.782 1454.13 801.004 1455.68 L801.004 1450.96 Q803.828 1449.82 806.282 1449.25 Q808.736 1448.67 810.773 1448.67 Q816.143 1448.67 819.338 1451.35 Q822.532 1454.04 822.532 1458.53 Q822.532 1460.66 821.722 1462.58 Q820.935 1464.48 818.828 1467.07 Q818.25 1467.74 815.148 1470.96 Q812.046 1474.15 806.398 1479.92 Z" fill="#000000" fill-rule="evenodd" fill-opacity="1" /><path clip-path="url(#clip880)" d="M 0 0 M1289.32 1453.37 L1277.51 1471.81 L1289.32 1471.81 L1289.32 1453.37 M1288.09 1449.29 L1293.97 1449.29 L1293.97 1471.81 L1298.9 1471.81 L1298.9 1475.7 L1293.97 1475.7 L1293.97 1483.85 L1289.32 1483.85 L1289.32 1475.7 L1273.72 1475.7 L1273.72 1471.19 L1288.09 1449.29 Z" fill="#000000" fill-rule="evenodd" fill-opacity="1" /><path clip-path="url(#clip880)" d="M 0 0 M1761.28 1464.71 Q1758.13 1464.71 1756.28 1466.86 Q1754.45 1469.01 1754.45 1472.76 Q1754.45 1476.49 1756.28 1478.67 Q1758.13 1480.82 1761.28 1480.82 Q1764.43 1480.82 1766.26 1478.67 Q1768.11 1476.49 1768.11 1472.76 Q1768.11 1469.01 1766.26 1466.86 Q1764.43 1464.71 1761.28 1464.71 M1770.56 1450.06 L1770.56 1454.31 Q1768.81 1453.48 1767 1453.04 Q1765.22 1452.6 1763.46 1452.6 Q1758.83 1452.6 1756.37 1455.73 Q1753.94 1458.85 1753.6 1465.17 Q1754.96 1463.16 1757.02 1462.09 Q1759.08 1461 1761.56 1461 Q1766.77 1461 1769.78 1464.18 Q1772.81 1467.32 1772.81 1472.76 Q1772.81 1478.09 1769.66 1481.31 Q1766.51 1484.52 1761.28 1484.52 Q1755.29 1484.52 1752.12 1479.94 Q1748.94 1475.33 1748.94 1466.61 Q1748.94 1458.41 1752.83 1453.55 Q1756.72 1448.67 1763.27 1448.67 Q1765.03 1448.67 1766.81 1449.01 Q1768.62 1449.36 1770.56 1450.06 Z" fill="#000000" fill-rule="evenodd" fill-opacity="1" /><path clip-path="url(#clip880)" d="M 0 0 M2235.44 1467.44 Q2232.11 1467.44 2230.19 1469.22 Q2228.29 1471 2228.29 1474.13 Q2228.29 1477.25 2230.19 1479.04 Q2232.11 1480.82 2235.44 1480.82 Q2238.78 1480.82 2240.7 1479.04 Q2242.62 1477.23 2242.62 1474.13 Q2242.62 1471 2240.7 1469.22 Q2238.8 1467.44 2235.44 1467.44 M2230.77 1465.45 Q2227.76 1464.71 2226.07 1462.65 Q2224.4 1460.59 2224.4 1457.63 Q2224.4 1453.48 2227.34 1451.07 Q2230.3 1448.67 2235.44 1448.67 Q2240.61 1448.67 2243.54 1451.07 Q2246.48 1453.48 2246.48 1457.63 Q2246.48 1460.59 2244.79 1462.65 Q2243.13 1464.71 2240.14 1465.45 Q2243.52 1466.24 2245.4 1468.53 Q2247.29 1470.82 2247.29 1474.13 Q2247.29 1479.15 2244.22 1481.84 Q2241.16 1484.52 2235.44 1484.52 Q2229.73 1484.52 2226.65 1481.84 Q2223.59 1479.15 2223.59 1474.13 Q2223.59 1470.82 2225.49 1468.53 Q2227.39 1466.24 2230.77 1465.45 M2229.05 1458.06 Q2229.05 1460.75 2230.72 1462.25 Q2232.41 1463.76 2235.44 1463.76 Q2238.45 1463.76 2240.14 1462.25 Q2241.86 1460.75 2241.86 1458.06 Q2241.86 1455.38 2240.14 1453.88 Q2238.45 1452.37 2235.44 1452.37 Q2232.41 1452.37 2230.72 1453.88 Q2229.05 1455.38 2229.05 1458.06 Z" fill="#000000" fill-rule="evenodd" fill-opacity="1" /><path clip-path="url(#clip880)" d="M 0 0 M1288.27 1539.24 Q1290.46 1535.29 1293.52 1533.41 Q1296.58 1531.54 1300.71 1531.54 Q1306.28 1531.54 1309.31 1535.45 Q1312.33 1539.33 1312.33 1546.53 L1312.33 1568.04 L1306.44 1568.04 L1306.44 1546.72 Q1306.44 1541.59 1304.63 1539.11 Q1302.81 1536.63 1299.09 1536.63 Q1294.54 1536.63 1291.9 1539.65 Q1289.26 1542.68 1289.26 1547.9 L1289.26 1568.04 L1283.37 1568.04 L1283.37 1546.72 Q1283.37 1541.56 1281.55 1539.11 Q1279.74 1536.63 1275.95 1536.63 Q1271.46 1536.63 1268.82 1539.68 Q1266.18 1542.71 1266.18 1547.9 L1266.18 1568.04 L1260.29 1568.04 L1260.29 1532.4 L1266.18 1532.4 L1266.18 1537.93 Q1268.18 1534.66 1270.99 1533.1 Q1273.79 1531.54 1277.64 1531.54 Q1281.52 1531.54 1284.23 1533.51 Q1286.96 1535.48 1288.27 1539.24 Z" fill="#000000" fill-rule="evenodd" fill-opacity="1" /><polyline clip-path="url(#clip882)" style="stroke:#000000; stroke-width:2; stroke-opacity:0.1; fill:none" points="
  219.866,1384.24 2352.76,1384.24 
  "/>
<polyline clip-path="url(#clip882)" style="stroke:#000000; stroke-width:2; stroke-opacity:0.1; fill:none" points="
  219.866,1112.09 2352.76,1112.09 
  "/>
<polyline clip-path="url(#clip882)" style="stroke:#000000; stroke-width:2; stroke-opacity:0.1; fill:none" points="
  219.866,839.944 2352.76,839.944 
  "/>
<polyline clip-path="url(#clip882)" style="stroke:#000000; stroke-width:2; stroke-opacity:0.1; fill:none" points="
  219.866,567.797 2352.76,567.797 
  "/>
<polyline clip-path="url(#clip882)" style="stroke:#000000; stroke-width:2; stroke-opacity:0.1; fill:none" points="
  219.866,295.649 2352.76,295.649 
  "/>
<polyline clip-path="url(#clip880)" style="stroke:#000000; stroke-width:4; stroke-opacity:1; fill:none" points="
  219.866,1423.18 219.866,47.2441 
  "/>
<polyline clip-path="url(#clip880)" style="stroke:#000000; stroke-width:4; stroke-opacity:1; fill:none" points="
  219.866,1384.24 245.461,1384.24 
  "/>
<polyline clip-path="url(#clip880)" style="stroke:#000000; stroke-width:4; stroke-opacity:1; fill:none" points="
  219.866,1112.09 245.461,1112.09 
  "/>
<polyline clip-path="url(#clip880)" style="stroke:#000000; stroke-width:4; stroke-opacity:1; fill:none" points="
  219.866,839.944 245.461,839.944 
  "/>
<polyline clip-path="url(#clip880)" style="stroke:#000000; stroke-width:4; stroke-opacity:1; fill:none" points="
  219.866,567.797 245.461,567.797 
  "/>
<polyline clip-path="url(#clip880)" style="stroke:#000000; stroke-width:4; stroke-opacity:1; fill:none" points="
  219.866,295.649 245.461,295.649 
  "/>
<path clip-path="url(#clip880)" d="M 0 0 M126.691 1370.04 Q123.08 1370.04 121.251 1373.6 Q119.445 1377.14 119.445 1384.27 Q119.445 1391.38 121.251 1394.94 Q123.08 1398.49 126.691 1398.49 Q130.325 1398.49 132.13 1394.94 Q133.959 1391.38 133.959 1384.27 Q133.959 1377.14 132.13 1373.6 Q130.325 1370.04 126.691 1370.04 M126.691 1366.33 Q132.501 1366.33 135.556 1370.94 Q138.635 1375.52 138.635 1384.27 Q138.635 1393 135.556 1397.61 Q132.501 1402.19 126.691 1402.19 Q120.88 1402.19 117.802 1397.61 Q114.746 1393 114.746 1384.27 Q114.746 1375.52 117.802 1370.94 Q120.88 1366.33 126.691 1366.33 Z" fill="#000000" fill-rule="evenodd" fill-opacity="1" /><path clip-path="url(#clip880)" d="M 0 0 M146.853 1395.64 L151.737 1395.64 L151.737 1401.52 L146.853 1401.52 L146.853 1395.64 Z" fill="#000000" fill-rule="evenodd" fill-opacity="1" /><path clip-path="url(#clip880)" d="M 0 0 M171.922 1370.04 Q168.311 1370.04 166.482 1373.6 Q164.677 1377.14 164.677 1384.27 Q164.677 1391.38 166.482 1394.94 Q168.311 1398.49 171.922 1398.49 Q175.556 1398.49 177.362 1394.94 Q179.19 1391.38 179.19 1384.27 Q179.19 1377.14 177.362 1373.6 Q175.556 1370.04 171.922 1370.04 M171.922 1366.33 Q177.732 1366.33 180.788 1370.94 Q183.866 1375.52 183.866 1384.27 Q183.866 1393 180.788 1397.61 Q177.732 1402.19 171.922 1402.19 Q166.112 1402.19 163.033 1397.61 Q159.978 1393 159.978 1384.27 Q159.978 1375.52 163.033 1370.94 Q166.112 1366.33 171.922 1366.33 Z" fill="#000000" fill-rule="evenodd" fill-opacity="1" /><path clip-path="url(#clip880)" d="M 0 0 M127.917 1097.89 Q124.306 1097.89 122.478 1101.45 Q120.672 1105 120.672 1112.13 Q120.672 1119.23 122.478 1122.8 Q124.306 1126.34 127.917 1126.34 Q131.552 1126.34 133.357 1122.8 Q135.186 1119.23 135.186 1112.13 Q135.186 1105 133.357 1101.45 Q131.552 1097.89 127.917 1097.89 M127.917 1094.19 Q133.728 1094.19 136.783 1098.79 Q139.862 1103.38 139.862 1112.13 Q139.862 1120.85 136.783 1125.46 Q133.728 1130.04 127.917 1130.04 Q122.107 1130.04 119.029 1125.46 Q115.973 1120.85 115.973 1112.13 Q115.973 1103.38 119.029 1098.79 Q122.107 1094.19 127.917 1094.19 Z" fill="#000000" fill-rule="evenodd" fill-opacity="1" /><path clip-path="url(#clip880)" d="M 0 0 M148.079 1123.49 L152.964 1123.49 L152.964 1129.37 L148.079 1129.37 L148.079 1123.49 Z" fill="#000000" fill-rule="evenodd" fill-opacity="1" /><path clip-path="url(#clip880)" d="M 0 0 M163.959 1125.44 L171.598 1125.44 L171.598 1099.07 L163.288 1100.74 L163.288 1096.48 L171.552 1094.81 L176.227 1094.81 L176.227 1125.44 L183.866 1125.44 L183.866 1129.37 L163.959 1129.37 L163.959 1125.44 Z" fill="#000000" fill-rule="evenodd" fill-opacity="1" /><path clip-path="url(#clip880)" d="M 0 0 M128.288 825.743 Q124.677 825.743 122.848 829.307 Q121.043 832.849 121.043 839.979 Q121.043 847.085 122.848 850.65 Q124.677 854.191 128.288 854.191 Q131.922 854.191 133.728 850.65 Q135.556 847.085 135.556 839.979 Q135.556 832.849 133.728 829.307 Q131.922 825.743 128.288 825.743 M128.288 822.039 Q134.098 822.039 137.154 826.645 Q140.232 831.229 140.232 839.979 Q140.232 848.705 137.154 853.312 Q134.098 857.895 128.288 857.895 Q122.478 857.895 119.399 853.312 Q116.343 848.705 116.343 839.979 Q116.343 831.229 119.399 826.645 Q122.478 822.039 128.288 822.039 Z" fill="#000000" fill-rule="evenodd" fill-opacity="1" /><path clip-path="url(#clip880)" d="M 0 0 M148.45 851.344 L153.334 851.344 L153.334 857.224 L148.45 857.224 L148.45 851.344 Z" fill="#000000" fill-rule="evenodd" fill-opacity="1" /><path clip-path="url(#clip880)" d="M 0 0 M167.547 853.289 L183.866 853.289 L183.866 857.224 L161.922 857.224 L161.922 853.289 Q164.584 850.534 169.167 845.904 Q173.774 841.252 174.954 839.909 Q177.2 837.386 178.079 835.65 Q178.982 833.891 178.982 832.201 Q178.982 829.446 177.038 827.71 Q175.116 825.974 172.014 825.974 Q169.815 825.974 167.362 826.738 Q164.931 827.502 162.153 829.053 L162.153 824.33 Q164.977 823.196 167.431 822.618 Q169.885 822.039 171.922 822.039 Q177.292 822.039 180.487 824.724 Q183.681 827.409 183.681 831.9 Q183.681 834.03 182.871 835.951 Q182.084 837.849 179.977 840.442 Q179.399 841.113 176.297 844.33 Q173.195 847.525 167.547 853.289 Z" fill="#000000" fill-rule="evenodd" fill-opacity="1" /><path clip-path="url(#clip880)" d="M 0 0 M127.339 553.595 Q123.728 553.595 121.899 557.16 Q120.093 560.702 120.093 567.831 Q120.093 574.938 121.899 578.503 Q123.728 582.044 127.339 582.044 Q130.973 582.044 132.779 578.503 Q134.607 574.938 134.607 567.831 Q134.607 560.702 132.779 557.16 Q130.973 553.595 127.339 553.595 M127.339 549.892 Q133.149 549.892 136.204 554.498 Q139.283 559.081 139.283 567.831 Q139.283 576.558 136.204 581.165 Q133.149 585.748 127.339 585.748 Q121.529 585.748 118.45 581.165 Q115.394 576.558 115.394 567.831 Q115.394 559.081 118.45 554.498 Q121.529 549.892 127.339 549.892 Z" fill="#000000" fill-rule="evenodd" fill-opacity="1" /><path clip-path="url(#clip880)" d="M 0 0 M147.501 579.197 L152.385 579.197 L152.385 585.077 L147.501 585.077 L147.501 579.197 Z" fill="#000000" fill-rule="evenodd" fill-opacity="1" /><path clip-path="url(#clip880)" d="M 0 0 M176.737 566.442 Q180.093 567.16 181.968 569.429 Q183.866 571.697 183.866 575.03 Q183.866 580.146 180.348 582.947 Q176.829 585.748 170.348 585.748 Q168.172 585.748 165.857 585.308 Q163.565 584.891 161.112 584.035 L161.112 579.521 Q163.056 580.655 165.371 581.234 Q167.686 581.813 170.209 581.813 Q174.607 581.813 176.899 580.077 Q179.214 578.341 179.214 575.03 Q179.214 571.975 177.061 570.262 Q174.931 568.526 171.112 568.526 L167.084 568.526 L167.084 564.683 L171.297 564.683 Q174.746 564.683 176.575 563.317 Q178.403 561.929 178.403 559.336 Q178.403 556.674 176.505 555.262 Q174.63 553.827 171.112 553.827 Q169.19 553.827 166.991 554.243 Q164.792 554.66 162.153 555.54 L162.153 551.373 Q164.815 550.632 167.13 550.262 Q169.468 549.892 171.528 549.892 Q176.852 549.892 179.954 552.322 Q183.056 554.73 183.056 558.85 Q183.056 561.72 181.413 563.711 Q179.769 565.679 176.737 566.442 Z" fill="#000000" fill-rule="evenodd" fill-opacity="1" /><path clip-path="url(#clip880)" d="M 0 0 M126.205 281.448 Q122.593 281.448 120.765 285.013 Q118.959 288.555 118.959 295.684 Q118.959 302.791 120.765 306.355 Q122.593 309.897 126.205 309.897 Q129.839 309.897 131.644 306.355 Q133.473 302.791 133.473 295.684 Q133.473 288.555 131.644 285.013 Q129.839 281.448 126.205 281.448 M126.205 277.744 Q132.015 277.744 135.07 282.351 Q138.149 286.934 138.149 295.684 Q138.149 304.411 135.07 309.017 Q132.015 313.601 126.205 313.601 Q120.394 313.601 117.316 309.017 Q114.26 304.411 114.26 295.684 Q114.26 286.934 117.316 282.351 Q120.394 277.744 126.205 277.744 Z" fill="#000000" fill-rule="evenodd" fill-opacity="1" /><path clip-path="url(#clip880)" d="M 0 0 M146.366 307.05 L151.251 307.05 L151.251 312.929 L146.366 312.929 L146.366 307.05 Z" fill="#000000" fill-rule="evenodd" fill-opacity="1" /><path clip-path="url(#clip880)" d="M 0 0 M174.283 282.443 L162.477 300.892 L174.283 300.892 L174.283 282.443 M173.056 278.369 L178.936 278.369 L178.936 300.892 L183.866 300.892 L183.866 304.781 L178.936 304.781 L178.936 312.929 L174.283 312.929 L174.283 304.781 L158.681 304.781 L158.681 300.267 L173.056 278.369 Z" fill="#000000" fill-rule="evenodd" fill-opacity="1" /><path clip-path="url(#clip880)" d="M 0 0 M21.7677 799.617 L39.6235 799.617 L39.6235 791.533 Q39.6235 787.045 37.3 784.594 Q34.9765 782.143 30.6797 782.143 Q26.4147 782.143 24.0912 784.594 Q21.7677 787.045 21.7677 791.533 L21.7677 799.617 M16.4842 806.046 L16.4842 791.533 Q16.4842 783.544 20.1126 779.47 Q23.7092 775.364 30.6797 775.364 Q37.7138 775.364 41.3104 779.47 Q44.907 783.544 44.907 791.533 L44.907 799.617 L64.0042 799.617 L64.0042 806.046 L16.4842 806.046 Z" fill="#000000" fill-rule="evenodd" fill-opacity="1" /><path clip-path="url(#clip880)" d="M 0 0 M14.5426 752.925 Q21.8632 757.19 29.0246 759.258 Q36.186 761.327 43.5384 761.327 Q50.8908 761.327 58.1159 759.258 Q65.3091 757.158 72.5979 752.925 L72.5979 758.017 Q65.1182 762.791 57.8931 765.179 Q50.668 767.534 43.5384 767.534 Q36.4406 767.534 29.2474 765.179 Q22.0542 762.823 14.5426 758.017 L14.5426 752.925 Z" fill="#000000" fill-rule="evenodd" fill-opacity="1" /><path clip-path="url(#clip880)" d="M 0 0 M35.1993 713.807 Q31.2526 711.611 29.3747 708.556 Q27.4968 705.5 27.4968 701.362 Q27.4968 695.792 31.4117 692.769 Q35.2948 689.745 42.4881 689.745 L64.0042 689.745 L64.0042 695.633 L42.679 695.633 Q37.5546 695.633 35.072 697.447 Q32.5894 699.262 32.5894 702.986 Q32.5894 707.537 35.6131 710.179 Q38.6368 712.821 43.8567 712.821 L64.0042 712.821 L64.0042 718.709 L42.679 718.709 Q37.5228 718.709 35.072 720.523 Q32.5894 722.337 32.5894 726.125 Q32.5894 730.613 35.6449 733.255 Q38.6686 735.896 43.8567 735.896 L64.0042 735.896 L64.0042 741.785 L28.3562 741.785 L28.3562 735.896 L33.8944 735.896 Q30.616 733.891 29.0564 731.09 Q27.4968 728.289 27.4968 724.438 Q27.4968 720.555 29.4702 717.85 Q31.4436 715.112 35.1993 713.807 Z" fill="#000000" fill-rule="evenodd" fill-opacity="1" /><path clip-path="url(#clip880)" d="M 0 0 M14.5426 678.987 L14.5426 673.894 Q22.0542 669.12 29.2474 666.765 Q36.4406 664.378 43.5384 664.378 Q50.668 664.378 57.8931 666.765 Q65.1182 669.12 72.5979 673.894 L72.5979 678.987 Q65.3091 674.754 58.1159 672.685 Q50.8908 670.584 43.5384 670.584 Q36.186 670.584 29.0246 672.685 Q21.8632 674.754 14.5426 678.987 Z" fill="#000000" fill-rule="evenodd" fill-opacity="1" /><path clip-path="url(#clip882)" d="
M337.179 121.186 L337.179 1384.24 L574.462 1384.24 L574.462 121.186 L337.179 121.186 L337.179 121.186  Z
  " fill="#009af9" fill-rule="evenodd" fill-opacity="1"/>
<polyline clip-path="url(#clip882)" style="stroke:#009af9; stroke-width:4; stroke-opacity:1; fill:none" points="
  337.179,121.186 337.179,1384.24 574.462,1384.24 574.462,121.186 337.179,121.186 
  "/>
<path clip-path="url(#clip882)" d="
M574.462 414.871 L574.462 1384.24 L811.745 1384.24 L811.745 414.871 L574.462 414.871 L574.462 414.871  Z
  " fill="#009af9" fill-rule="evenodd" fill-opacity="1"/>
<polyline clip-path="url(#clip882)" style="stroke:#009af9; stroke-width:4; stroke-opacity:1; fill:none" points="
  574.462,414.871 574.462,1384.24 811.745,1384.24 811.745,414.871 574.462,414.871 
  "/>
<path clip-path="url(#clip882)" d="
M811.745 1013.42 L811.745 1384.24 L1049.03 1384.24 L1049.03 1013.42 L811.745 1013.42 L811.745 1013.42  Z
  " fill="#009af9" fill-rule="evenodd" fill-opacity="1"/>
<polyline clip-path="url(#clip882)" style="stroke:#009af9; stroke-width:4; stroke-opacity:1; fill:none" points="
  811.745,1013.42 811.745,1384.24 1049.03,1384.24 1049.03,1013.42 811.745,1013.42 
  "/>
<path clip-path="url(#clip882)" d="
M1049.03 1287.39 L1049.03 1384.24 L1286.31 1384.24 L1286.31 1287.39 L1049.03 1287.39 L1049.03 1287.39  Z
  " fill="#009af9" fill-rule="evenodd" fill-opacity="1"/>
<polyline clip-path="url(#clip882)" style="stroke:#009af9; stroke-width:4; stroke-opacity:1; fill:none" points="
  1049.03,1287.39 1049.03,1384.24 1286.31,1384.24 1286.31,1287.39 1049.03,1287.39 
  "/>
<path clip-path="url(#clip882)" d="
M1286.31 1366.35 L1286.31 1384.24 L1523.59 1384.24 L1523.59 1366.35 L1286.31 1366.35 L1286.31 1366.35  Z
  " fill="#009af9" fill-rule="evenodd" fill-opacity="1"/>
<polyline clip-path="url(#clip882)" style="stroke:#009af9; stroke-width:4; stroke-opacity:1; fill:none" points="
  1286.31,1366.35 1286.31,1384.24 1523.59,1384.24 1523.59,1366.35 1286.31,1366.35 
  "/>
<path clip-path="url(#clip882)" d="
M1523.59 1381.21 L1523.59 1384.24 L1760.88 1384.24 L1760.88 1381.21 L1523.59 1381.21 L1523.59 1381.21  Z
  " fill="#009af9" fill-rule="evenodd" fill-opacity="1"/>
<polyline clip-path="url(#clip882)" style="stroke:#009af9; stroke-width:4; stroke-opacity:1; fill:none" points="
  1523.59,1381.21 1523.59,1384.24 1760.88,1384.24 1760.88,1381.21 1523.59,1381.21 
  "/>
<path clip-path="url(#clip882)" d="
M1760.88 1383.83 L1760.88 1384.24 L1998.16 1384.24 L1998.16 1383.83 L1760.88 1383.83 L1760.88 1383.83  Z
  " fill="#009af9" fill-rule="evenodd" fill-opacity="1"/>
<polyline clip-path="url(#clip882)" style="stroke:#009af9; stroke-width:4; stroke-opacity:1; fill:none" points="
  1760.88,1383.83 1760.88,1384.24 1998.16,1384.24 1998.16,1383.83 1760.88,1383.83 
  "/>
<path clip-path="url(#clip882)" d="
M1998.16 1384.18 L1998.16 1384.24 L2235.44 1384.24 L2235.44 1384.18 L1998.16 1384.18 L1998.16 1384.18  Z
  " fill="#009af9" fill-rule="evenodd" fill-opacity="1"/>
<polyline clip-path="url(#clip882)" style="stroke:#009af9; stroke-width:4; stroke-opacity:1; fill:none" points="
  1998.16,1384.18 1998.16,1384.24 2235.44,1384.24 2235.44,1384.18 1998.16,1384.18 
  "/>
<polyline clip-path="url(#clip882)" style="stroke:#e26f46; stroke-width:12; stroke-opacity:1; fill:none" points="
  337.179,546.761 360.907,464.638 384.636,387.415 408.364,317.566 432.092,257.464 455.821,209.242 479.549,174.674 503.277,155.06 527.005,151.15 550.734,163.094 
  574.462,190.435 598.19,232.134 621.919,286.637 645.647,351.976 669.375,425.877 693.104,505.9 716.832,589.567 740.56,674.486 764.288,758.462 788.017,839.579 
  811.745,916.262 835.473,987.307 859.202,1051.88 882.93,1109.52 906.658,1160.08 930.387,1203.68 954.115,1240.66 977.843,1271.54 1001.57,1296.91 1025.3,1317.43 
  1049.03,1333.79 1072.76,1346.63 1096.48,1356.56 1120.21,1364.13 1143.94,1369.82 1167.67,1374.03 1191.4,1377.1 1215.13,1379.32 1238.85,1380.89 1262.58,1381.98 
  1286.31,1382.74 1310.04,1383.26 1333.77,1383.6 1357.5,1383.83 1381.22,1383.98 1404.95,1384.08 1428.68,1384.14 1452.41,1384.18 1476.14,1384.2 1499.87,1384.22 
  1523.59,1384.23 1547.32,1384.23 1571.05,1384.23 1594.78,1384.24 1618.51,1384.24 1642.24,1384.24 1665.96,1384.24 1689.69,1384.24 1713.42,1384.24 1737.15,1384.24 
  1760.88,1384.24 1784.61,1384.24 1808.33,1384.24 1832.06,1384.24 1855.79,1384.24 1879.52,1384.24 1903.25,1384.24 1926.98,1384.24 1950.7,1384.24 1974.43,1384.24 
  1998.16,1384.24 
  "/>
<polyline clip-path="url(#clip882)" style="stroke:#3da44d; stroke-width:12; stroke-opacity:1; fill:none" points="
  337.179,129.945 360.907,99.0512 384.636,86.1857 408.364,89.7376 432.092,107.865 455.821,138.597 479.549,179.913 503.277,229.822 527.005,286.414 550.734,347.904 
  574.462,412.662 598.19,479.233 621.919,546.345 645.647,612.915 669.375,678.039 693.104,740.989 716.832,801.194 740.56,858.232 764.288,911.808 788.017,961.741 
  811.745,1007.95 835.473,1050.42 859.202,1089.22 882.93,1124.47 906.658,1156.31 930.387,1184.93 954.115,1210.54 977.843,1233.33 1001.57,1253.54 1025.3,1271.39 
  1049.03,1287.08 1072.76,1300.83 1096.48,1312.83 1120.21,1323.26 1143.94,1332.31 1167.67,1340.13 1191.4,1346.86 1215.13,1352.65 1238.85,1357.6 1262.58,1361.82 
  1286.31,1365.42 1310.04,1368.48 1333.77,1371.07 1357.5,1373.25 1381.22,1375.1 1404.95,1376.65 1428.68,1377.94 1452.41,1379.03 1476.14,1379.94 1499.87,1380.7 
  1523.59,1381.32 1547.32,1381.84 1571.05,1382.28 1594.78,1382.63 1618.51,1382.93 1642.24,1383.17 1665.96,1383.37 1689.69,1383.53 1713.42,1383.66 1737.15,1383.77 
  1760.88,1383.86 1784.61,1383.93 1808.33,1383.99 1832.06,1384.04 1855.79,1384.08 1879.52,1384.11 1903.25,1384.14 1926.98,1384.16 1950.7,1384.17 1974.43,1384.19 
  1998.16,1384.2 
  "/>
<path clip-path="url(#clip880)" d="
M1774.05 335.029 L2281.66 335.029 L2281.66 93.1086 L1774.05 93.1086  Z
  " fill="#ffffff" fill-rule="evenodd" fill-opacity="1"/>
<polyline clip-path="url(#clip880)" style="stroke:#000000; stroke-width:4; stroke-opacity:1; fill:none" points="
  1774.05,335.029 2281.66,335.029 2281.66,93.1086 1774.05,93.1086 1774.05,335.029 
  "/>
<path clip-path="url(#clip880)" d="
M1797.75 177.781 L1939.94 177.781 L1939.94 129.397 L1797.75 129.397 L1797.75 177.781  Z
  " fill="#009af9" fill-rule="evenodd" fill-opacity="1"/>
<polyline clip-path="url(#clip880)" style="stroke:#009af9; stroke-width:4; stroke-opacity:1; fill:none" points="
  1797.75,177.781 1939.94,177.781 1939.94,129.397 1797.75,129.397 1797.75,177.781 
  "/>
<path clip-path="url(#clip880)" d="M 0 0 M1977.48 173.276 Q1975.68 177.906 1973.96 179.318 Q1972.25 180.73 1969.38 180.73 L1965.98 180.73 L1965.98 177.165 L1968.48 177.165 Q1970.24 177.165 1971.21 176.332 Q1972.18 175.498 1973.36 172.396 L1974.12 170.452 L1963.64 144.943 L1968.15 144.943 L1976.25 165.221 L1984.36 144.943 L1988.87 144.943 L1977.48 173.276 Z" fill="#000000" fill-rule="evenodd" fill-opacity="1" /><path clip-path="url(#clip880)" d="M 0 0 M1996.16 166.933 L2003.8 166.933 L2003.8 140.568 L1995.49 142.235 L1995.49 137.975 L2003.75 136.309 L2008.43 136.309 L2008.43 166.933 L2016.07 166.933 L2016.07 170.869 L1996.16 170.869 L1996.16 166.933 Z" fill="#000000" fill-rule="evenodd" fill-opacity="1" /><polyline clip-path="url(#clip880)" style="stroke:#e26f46; stroke-width:4; stroke-opacity:1; fill:none" points="
  1797.75,214.069 1939.94,214.069 
  "/>
<path clip-path="url(#clip880)" d="M 0 0 M1982.55 218.085 Q1982.55 213.455 1980.63 210.909 Q1978.73 208.363 1975.28 208.363 Q1971.86 208.363 1969.93 210.909 Q1968.04 213.455 1968.04 218.085 Q1968.04 222.691 1969.93 225.238 Q1971.86 227.784 1975.28 227.784 Q1978.73 227.784 1980.63 225.238 Q1982.55 222.691 1982.55 218.085 M1986.81 228.131 Q1986.81 234.751 1983.87 237.969 Q1980.93 241.21 1974.87 241.21 Q1972.62 241.21 1970.63 240.862 Q1968.64 240.538 1966.76 239.844 L1966.76 235.7 Q1968.64 236.719 1970.47 237.205 Q1972.3 237.691 1974.19 237.691 Q1978.38 237.691 1980.47 235.492 Q1982.55 233.316 1982.55 228.895 L1982.55 226.788 Q1981.23 229.08 1979.17 230.214 Q1977.11 231.349 1974.24 231.349 Q1969.47 231.349 1966.56 227.714 Q1963.64 224.08 1963.64 218.085 Q1963.64 212.066 1966.56 208.432 Q1969.47 204.798 1974.24 204.798 Q1977.11 204.798 1979.17 205.932 Q1981.23 207.066 1982.55 209.358 L1982.55 205.423 L1986.81 205.423 L1986.81 228.131 Z" fill="#000000" fill-rule="evenodd" fill-opacity="1" /><path clip-path="url(#clip880)" d="M 0 0 M2007.37 218.316 Q2002.2 218.316 2000.21 219.497 Q1998.22 220.677 1998.22 223.525 Q1998.22 225.793 1999.7 227.136 Q2001.21 228.455 2003.78 228.455 Q2007.32 228.455 2009.45 225.955 Q2011.6 223.432 2011.6 219.265 L2011.6 218.316 L2007.37 218.316 M2015.86 216.557 L2015.86 231.349 L2011.6 231.349 L2011.6 227.413 Q2010.14 229.775 2007.97 230.909 Q2005.79 232.02 2002.64 232.02 Q1998.66 232.02 1996.3 229.798 Q1993.96 227.552 1993.96 223.802 Q1993.96 219.427 1996.88 217.205 Q1999.82 214.983 2005.63 214.983 L2011.6 214.983 L2011.6 214.566 Q2011.6 211.627 2009.66 210.029 Q2007.74 208.409 2004.24 208.409 Q2002.02 208.409 1999.91 208.941 Q1997.8 209.474 1995.86 210.539 L1995.86 206.603 Q1998.2 205.701 2000.4 205.261 Q2002.6 204.798 2004.68 204.798 Q2010.3 204.798 2013.08 207.714 Q2015.86 210.631 2015.86 216.557 Z" fill="#000000" fill-rule="evenodd" fill-opacity="1" /><path clip-path="url(#clip880)" d="M 0 0 M2024.19 221.117 L2024.19 205.423 L2028.45 205.423 L2028.45 220.955 Q2028.45 224.636 2029.89 226.488 Q2031.32 228.316 2034.19 228.316 Q2037.64 228.316 2039.63 226.117 Q2041.65 223.918 2041.65 220.122 L2041.65 205.423 L2045.91 205.423 L2045.91 231.349 L2041.65 231.349 L2041.65 227.367 Q2040.1 229.728 2038.04 230.886 Q2036 232.02 2033.29 232.02 Q2028.82 232.02 2026.51 229.242 Q2024.19 226.464 2024.19 221.117 M2034.91 204.798 L2034.91 204.798 Z" fill="#000000" fill-rule="evenodd" fill-opacity="1" /><path clip-path="url(#clip880)" d="M 0 0 M2071.21 206.187 L2071.21 210.214 Q2069.4 209.289 2067.46 208.826 Q2065.51 208.363 2063.43 208.363 Q2060.26 208.363 2058.66 209.335 Q2057.09 210.307 2057.09 212.251 Q2057.09 213.733 2058.22 214.589 Q2059.36 215.423 2062.78 216.187 L2064.24 216.511 Q2068.78 217.483 2070.67 219.265 Q2072.6 221.025 2072.6 224.196 Q2072.6 227.807 2069.73 229.913 Q2066.88 232.02 2061.88 232.02 Q2059.8 232.02 2057.53 231.603 Q2055.28 231.21 2052.78 230.4 L2052.78 226.001 Q2055.14 227.228 2057.43 227.853 Q2059.73 228.455 2061.97 228.455 Q2064.98 228.455 2066.6 227.437 Q2068.22 226.395 2068.22 224.52 Q2068.22 222.784 2067.04 221.858 Q2065.88 220.932 2061.92 220.076 L2060.44 219.728 Q2056.49 218.895 2054.73 217.182 Q2052.97 215.446 2052.97 212.437 Q2052.97 208.779 2055.56 206.789 Q2058.15 204.798 2062.92 204.798 Q2065.28 204.798 2067.36 205.145 Q2069.45 205.492 2071.21 206.187 Z" fill="#000000" fill-rule="evenodd" fill-opacity="1" /><path clip-path="url(#clip880)" d="M 0 0 M2095.91 206.187 L2095.91 210.214 Q2094.1 209.289 2092.16 208.826 Q2090.21 208.363 2088.13 208.363 Q2084.96 208.363 2083.36 209.335 Q2081.79 210.307 2081.79 212.251 Q2081.79 213.733 2082.92 214.589 Q2084.05 215.423 2087.48 216.187 L2088.94 216.511 Q2093.48 217.483 2095.37 219.265 Q2097.3 221.025 2097.3 224.196 Q2097.3 227.807 2094.42 229.913 Q2091.58 232.02 2086.58 232.02 Q2084.49 232.02 2082.23 231.603 Q2079.98 231.21 2077.48 230.4 L2077.48 226.001 Q2079.84 227.228 2082.13 227.853 Q2084.42 228.455 2086.67 228.455 Q2089.68 228.455 2091.3 227.437 Q2092.92 226.395 2092.92 224.52 Q2092.92 222.784 2091.74 221.858 Q2090.58 220.932 2086.62 220.076 L2085.14 219.728 Q2081.18 218.895 2079.42 217.182 Q2077.67 215.446 2077.67 212.437 Q2077.67 208.779 2080.26 206.789 Q2082.85 204.798 2087.62 204.798 Q2089.98 204.798 2092.06 205.145 Q2094.15 205.492 2095.91 206.187 Z" fill="#000000" fill-rule="evenodd" fill-opacity="1" /><path clip-path="url(#clip880)" d="M 0 0 M2104.08 205.423 L2108.34 205.423 L2108.34 231.349 L2104.08 231.349 L2104.08 205.423 M2104.08 195.33 L2108.34 195.33 L2108.34 200.724 L2104.08 200.724 L2104.08 195.33 Z" fill="#000000" fill-rule="evenodd" fill-opacity="1" /><path clip-path="url(#clip880)" d="M 0 0 M2129.03 218.316 Q2123.87 218.316 2121.88 219.497 Q2119.89 220.677 2119.89 223.525 Q2119.89 225.793 2121.37 227.136 Q2122.87 228.455 2125.44 228.455 Q2128.98 228.455 2131.11 225.955 Q2133.27 223.432 2133.27 219.265 L2133.27 218.316 L2129.03 218.316 M2137.53 216.557 L2137.53 231.349 L2133.27 231.349 L2133.27 227.413 Q2131.81 229.775 2129.63 230.909 Q2127.46 232.02 2124.31 232.02 Q2120.33 232.02 2117.97 229.798 Q2115.63 227.552 2115.63 223.802 Q2115.63 219.427 2118.55 217.205 Q2121.48 214.983 2127.3 214.983 L2133.27 214.983 L2133.27 214.566 Q2133.27 211.627 2131.32 210.029 Q2129.4 208.409 2125.91 208.409 Q2123.68 208.409 2121.58 208.941 Q2119.47 209.474 2117.53 210.539 L2117.53 206.603 Q2119.86 205.701 2122.06 205.261 Q2124.26 204.798 2126.35 204.798 Q2131.97 204.798 2134.75 207.714 Q2137.53 210.631 2137.53 216.557 Z" fill="#000000" fill-rule="evenodd" fill-opacity="1" /><path clip-path="url(#clip880)" d="M 0 0 M2167.85 215.701 L2167.85 231.349 L2163.59 231.349 L2163.59 215.839 Q2163.59 212.159 2162.16 210.33 Q2160.72 208.502 2157.85 208.502 Q2154.4 208.502 2152.41 210.701 Q2150.42 212.9 2150.42 216.696 L2150.42 231.349 L2146.14 231.349 L2146.14 205.423 L2150.42 205.423 L2150.42 209.451 Q2151.95 207.113 2154.01 205.955 Q2156.09 204.798 2158.8 204.798 Q2163.27 204.798 2165.56 207.576 Q2167.85 210.33 2167.85 215.701 Z" fill="#000000" fill-rule="evenodd" fill-opacity="1" /><path clip-path="url(#clip880)" d="M 0 0 M2204.54 195.33 L2204.54 198.872 L2200.47 198.872 Q2198.17 198.872 2197.27 199.798 Q2196.39 200.724 2196.39 203.131 L2196.39 205.423 L2203.41 205.423 L2203.41 208.733 L2196.39 208.733 L2196.39 231.349 L2192.11 231.349 L2192.11 208.733 L2188.04 208.733 L2188.04 205.423 L2192.11 205.423 L2192.11 203.617 Q2192.11 199.289 2194.12 197.321 Q2196.14 195.33 2200.51 195.33 L2204.54 195.33 Z" fill="#000000" fill-rule="evenodd" fill-opacity="1" /><path clip-path="url(#clip880)" d="M 0 0 M2208.1 205.423 L2212.36 205.423 L2212.36 231.349 L2208.1 231.349 L2208.1 205.423 M2208.1 195.33 L2212.36 195.33 L2212.36 200.724 L2208.1 200.724 L2208.1 195.33 Z" fill="#000000" fill-rule="evenodd" fill-opacity="1" /><path clip-path="url(#clip880)" d="M 0 0 M2225.49 198.062 L2225.49 205.423 L2234.26 205.423 L2234.26 208.733 L2225.49 208.733 L2225.49 222.807 Q2225.49 225.978 2226.35 226.881 Q2227.23 227.784 2229.89 227.784 L2234.26 227.784 L2234.26 231.349 L2229.89 231.349 Q2224.96 231.349 2223.08 229.52 Q2221.21 227.668 2221.21 222.807 L2221.21 208.733 L2218.08 208.733 L2218.08 205.423 L2221.21 205.423 L2221.21 198.062 L2225.49 198.062 Z" fill="#000000" fill-rule="evenodd" fill-opacity="1" /><polyline clip-path="url(#clip880)" style="stroke:#3da44d; stroke-width:4; stroke-opacity:1; fill:none" points="
  1797.75,274.549 1939.94,274.549 
  "/>
<path clip-path="url(#clip880)" d="M 0 0 M1967.92 287.94 L1967.92 301.69 L1963.64 301.69 L1963.64 265.903 L1967.92 265.903 L1967.92 269.838 Q1969.26 267.523 1971.3 266.412 Q1973.36 265.278 1976.21 265.278 Q1980.93 265.278 1983.87 269.028 Q1986.83 272.778 1986.83 278.889 Q1986.83 285 1983.87 288.75 Q1980.93 292.5 1976.21 292.5 Q1973.36 292.5 1971.3 291.389 Q1969.26 290.255 1967.92 287.94 M1982.41 278.889 Q1982.41 274.19 1980.47 271.528 Q1978.55 268.843 1975.17 268.843 Q1971.79 268.843 1969.84 271.528 Q1967.92 274.19 1967.92 278.889 Q1967.92 283.588 1969.84 286.273 Q1971.79 288.935 1975.17 288.935 Q1978.55 288.935 1980.47 286.273 Q1982.41 283.588 1982.41 278.889 Z" fill="#000000" fill-rule="evenodd" fill-opacity="1" /><path clip-path="url(#clip880)" d="M 0 0 M2003.94 268.889 Q2000.51 268.889 1998.52 271.574 Q1996.53 274.236 1996.53 278.889 Q1996.53 283.542 1998.5 286.227 Q2000.49 288.889 2003.94 288.889 Q2007.34 288.889 2009.33 286.204 Q2011.32 283.518 2011.32 278.889 Q2011.32 274.282 2009.33 271.597 Q2007.34 268.889 2003.94 268.889 M2003.94 265.278 Q2009.49 265.278 2012.67 268.889 Q2015.84 272.5 2015.84 278.889 Q2015.84 285.255 2012.67 288.889 Q2009.49 292.5 2003.94 292.5 Q1998.36 292.5 1995.19 288.889 Q1992.04 285.255 1992.04 278.889 Q1992.04 272.5 1995.19 268.889 Q1998.36 265.278 2003.94 265.278 Z" fill="#000000" fill-rule="evenodd" fill-opacity="1" /><path clip-path="url(#clip880)" d="M 0 0 M2022.9 265.903 L2027.16 265.903 L2027.16 291.829 L2022.9 291.829 L2022.9 265.903 M2022.9 255.81 L2027.16 255.81 L2027.16 261.204 L2022.9 261.204 L2022.9 255.81 Z" fill="#000000" fill-rule="evenodd" fill-opacity="1" /><path clip-path="url(#clip880)" d="M 0 0 M2052.6 266.667 L2052.6 270.694 Q2050.79 269.769 2048.85 269.306 Q2046.9 268.843 2044.82 268.843 Q2041.65 268.843 2040.05 269.815 Q2038.48 270.787 2038.48 272.731 Q2038.48 274.213 2039.61 275.069 Q2040.74 275.903 2044.17 276.667 L2045.63 276.991 Q2050.17 277.963 2052.06 279.745 Q2053.99 281.505 2053.99 284.676 Q2053.99 288.287 2051.11 290.393 Q2048.27 292.5 2043.27 292.5 Q2041.18 292.5 2038.92 292.083 Q2036.67 291.69 2034.17 290.88 L2034.17 286.481 Q2036.53 287.708 2038.82 288.333 Q2041.11 288.935 2043.36 288.935 Q2046.37 288.935 2047.99 287.917 Q2049.61 286.875 2049.61 285 Q2049.61 283.264 2048.43 282.338 Q2047.27 281.412 2043.31 280.556 L2041.83 280.208 Q2037.87 279.375 2036.11 277.662 Q2034.36 275.926 2034.36 272.917 Q2034.36 269.259 2036.95 267.269 Q2039.54 265.278 2044.31 265.278 Q2046.67 265.278 2048.75 265.625 Q2050.84 265.972 2052.6 266.667 Z" fill="#000000" fill-rule="evenodd" fill-opacity="1" /><path clip-path="url(#clip880)" d="M 0 0 M2077.3 266.667 L2077.3 270.694 Q2075.49 269.769 2073.55 269.306 Q2071.6 268.843 2069.52 268.843 Q2066.35 268.843 2064.75 269.815 Q2063.17 270.787 2063.17 272.731 Q2063.17 274.213 2064.31 275.069 Q2065.44 275.903 2068.87 276.667 L2070.33 276.991 Q2074.86 277.963 2076.76 279.745 Q2078.68 281.505 2078.68 284.676 Q2078.68 288.287 2075.81 290.393 Q2072.97 292.5 2067.97 292.5 Q2065.88 292.5 2063.61 292.083 Q2061.37 291.69 2058.87 290.88 L2058.87 286.481 Q2061.23 287.708 2063.52 288.333 Q2065.81 288.935 2068.06 288.935 Q2071.07 288.935 2072.69 287.917 Q2074.31 286.875 2074.31 285 Q2074.31 283.264 2073.13 282.338 Q2071.97 281.412 2068.01 280.556 L2066.53 280.208 Q2062.57 279.375 2060.81 277.662 Q2059.05 275.926 2059.05 272.917 Q2059.05 269.259 2061.65 267.269 Q2064.24 265.278 2069.01 265.278 Q2071.37 265.278 2073.45 265.625 Q2075.54 265.972 2077.3 266.667 Z" fill="#000000" fill-rule="evenodd" fill-opacity="1" /><path clip-path="url(#clip880)" d="M 0 0 M2095.51 268.889 Q2092.09 268.889 2090.1 271.574 Q2088.11 274.236 2088.11 278.889 Q2088.11 283.542 2090.07 286.227 Q2092.06 288.889 2095.51 288.889 Q2098.92 288.889 2100.91 286.204 Q2102.9 283.518 2102.9 278.889 Q2102.9 274.282 2100.91 271.597 Q2098.92 268.889 2095.51 268.889 M2095.51 265.278 Q2101.07 265.278 2104.24 268.889 Q2107.41 272.5 2107.41 278.889 Q2107.41 285.255 2104.24 288.889 Q2101.07 292.5 2095.51 292.5 Q2089.93 292.5 2086.76 288.889 Q2083.61 285.255 2083.61 278.889 Q2083.61 272.5 2086.76 268.889 Q2089.93 265.278 2095.51 265.278 Z" fill="#000000" fill-rule="evenodd" fill-opacity="1" /><path clip-path="url(#clip880)" d="M 0 0 M2136.02 276.181 L2136.02 291.829 L2131.76 291.829 L2131.76 276.319 Q2131.76 272.639 2130.33 270.81 Q2128.89 268.982 2126.02 268.982 Q2122.57 268.982 2120.58 271.181 Q2118.59 273.38 2118.59 277.176 L2118.59 291.829 L2114.31 291.829 L2114.31 265.903 L2118.59 265.903 L2118.59 269.931 Q2120.12 267.593 2122.18 266.435 Q2124.26 265.278 2126.97 265.278 Q2131.44 265.278 2133.73 268.056 Q2136.02 270.81 2136.02 276.181 Z" fill="#000000" fill-rule="evenodd" fill-opacity="1" /><path clip-path="url(#clip880)" d="M 0 0 M2172.71 255.81 L2172.71 259.352 L2168.64 259.352 Q2166.35 259.352 2165.44 260.278 Q2164.56 261.204 2164.56 263.611 L2164.56 265.903 L2171.58 265.903 L2171.58 269.213 L2164.56 269.213 L2164.56 291.829 L2160.28 291.829 L2160.28 269.213 L2156.21 269.213 L2156.21 265.903 L2160.28 265.903 L2160.28 264.097 Q2160.28 259.769 2162.29 257.801 Q2164.31 255.81 2168.68 255.81 L2172.71 255.81 Z" fill="#000000" fill-rule="evenodd" fill-opacity="1" /><path clip-path="url(#clip880)" d="M 0 0 M2176.28 265.903 L2180.54 265.903 L2180.54 291.829 L2176.28 291.829 L2176.28 265.903 M2176.28 255.81 L2180.54 255.81 L2180.54 261.204 L2176.28 261.204 L2176.28 255.81 Z" fill="#000000" fill-rule="evenodd" fill-opacity="1" /><path clip-path="url(#clip880)" d="M 0 0 M2193.66 258.542 L2193.66 265.903 L2202.43 265.903 L2202.43 269.213 L2193.66 269.213 L2193.66 283.287 Q2193.66 286.458 2194.52 287.361 Q2195.4 288.264 2198.06 288.264 L2202.43 288.264 L2202.43 291.829 L2198.06 291.829 Q2193.13 291.829 2191.25 290 Q2189.38 288.148 2189.38 283.287 L2189.38 269.213 L2186.25 269.213 L2186.25 265.903 L2189.38 265.903 L2189.38 258.542 L2193.66 258.542 Z" fill="#000000" fill-rule="evenodd" fill-opacity="1" /></svg>
