<?xml version="1.0" encoding="utf-8"?>
<svg xmlns="http://www.w3.org/2000/svg" xmlns:xlink="http://www.w3.org/1999/xlink" width="600" height="400" viewBox="0 0 2400 1600">
<defs>
  <clipPath id="clip940">
    <rect x="0" y="0" width="2400" height="1600"/>
  </clipPath>
</defs>
<path clip-path="url(#clip940)" d="
M0 1600 L2400 1600 L2400 0 L0 0  Z
  " fill="#ffffff" fill-rule="evenodd" fill-opacity="1"/>
<defs>
  <clipPath id="clip941">
    <rect x="480" y="0" width="1681" height="1600"/>
  </clipPath>
</defs>
<path clip-path="url(#clip940)" d="
M219.38 1423.18 L2352.76 1423.18 L2352.76 47.2441 L219.38 47.2441  Z
  " fill="#ffffff" fill-rule="evenodd" fill-opacity="1"/>
<defs>
  <clipPath id="clip942">
    <rect x="219" y="47" width="2134" height="1377"/>
  </clipPath>
</defs>
<polyline clip-path="url(#clip942)" style="stroke:#000000; stroke-width:2; stroke-opacity:0.1; fill:none" points="
  336.72,1423.18 336.72,47.2441 
  "/>
<polyline clip-path="url(#clip942)" style="stroke:#000000; stroke-width:2; stroke-opacity:0.1; fill:none" points="
  912.082,1423.18 912.082,47.2441 
  "/>
<polyline clip-path="url(#clip942)" style="stroke:#000000; stroke-width:2; stroke-opacity:0.1; fill:none" points="
  1487.44,1423.18 1487.44,47.2441 
  "/>
<polyline clip-path="url(#clip942)" style="stroke:#000000; stroke-width:2; stroke-opacity:0.1; fill:none" points="
  2062.81,1423.18 2062.81,47.2441 
  "/>
<polyline clip-path="url(#clip940)" style="stroke:#000000; stroke-width:4; stroke-opacity:1; fill:none" points="
  219.38,1423.18 2352.76,1423.18 
  "/>
<polyline clip-path="url(#clip940)" style="stroke:#000000; stroke-width:4; stroke-opacity:1; fill:none" points="
  336.72,1423.18 336.72,1406.67 
  "/>
<polyline clip-path="url(#clip940)" style="stroke:#000000; stroke-width:4; stroke-opacity:1; fill:none" points="
  912.082,1423.18 912.082,1406.67 
  "/>
<polyline clip-path="url(#clip940)" style="stroke:#000000; stroke-width:4; stroke-opacity:1; fill:none" points="
  1487.44,1423.18 1487.44,1406.67 
  "/>
<polyline clip-path="url(#clip940)" style="stroke:#000000; stroke-width:4; stroke-opacity:1; fill:none" points="
  2062.81,1423.18 2062.81,1406.67 
  "/>
<path clip-path="url(#clip940)" d="M 0 0 M336.72 1452.37 Q333.109 1452.37 331.28 1455.94 Q329.474 1459.48 329.474 1466.61 Q329.474 1473.71 331.28 1477.28 Q333.109 1480.82 336.72 1480.82 Q340.354 1480.82 342.159 1477.28 Q343.988 1473.71 343.988 1466.61 Q343.988 1459.48 342.159 1455.94 Q340.354 1452.37 336.72 1452.37 M336.72 1448.67 Q342.53 1448.67 345.585 1453.27 Q348.664 1457.86 348.664 1466.61 Q348.664 1475.33 345.585 1479.94 Q342.53 1484.52 336.72 1484.52 Q330.909 1484.52 327.831 1479.94 Q324.775 1475.33 324.775 1466.61 Q324.775 1457.86 327.831 1453.27 Q330.909 1448.67 336.72 1448.67 Z" fill="#000000" fill-rule="evenodd" fill-opacity="1" /><path clip-path="url(#clip940)" d="M 0 0 M886.77 1479.92 L894.409 1479.92 L894.409 1453.55 L886.099 1455.22 L886.099 1450.96 L894.362 1449.29 L899.038 1449.29 L899.038 1479.92 L906.677 1479.92 L906.677 1483.85 L886.77 1483.85 L886.77 1479.92 Z" fill="#000000" fill-rule="evenodd" fill-opacity="1" /><path clip-path="url(#clip940)" d="M 0 0 M926.122 1452.37 Q922.51 1452.37 920.682 1455.94 Q918.876 1459.48 918.876 1466.61 Q918.876 1473.71 920.682 1477.28 Q922.51 1480.82 926.122 1480.82 Q929.756 1480.82 931.561 1477.28 Q933.39 1473.71 933.39 1466.61 Q933.39 1459.48 931.561 1455.94 Q929.756 1452.37 926.122 1452.37 M926.122 1448.67 Q931.932 1448.67 934.987 1453.27 Q938.066 1457.86 938.066 1466.61 Q938.066 1475.33 934.987 1479.94 Q931.932 1484.52 926.122 1484.52 Q920.311 1484.52 917.233 1479.94 Q914.177 1475.33 914.177 1466.61 Q914.177 1457.86 917.233 1453.27 Q920.311 1448.67 926.122 1448.67 Z" fill="#000000" fill-rule="evenodd" fill-opacity="1" /><path clip-path="url(#clip940)" d="M 0 0 M1466.22 1479.92 L1482.54 1479.92 L1482.54 1483.85 L1460.59 1483.85 L1460.59 1479.92 Q1463.26 1477.16 1467.84 1472.53 Q1472.45 1467.88 1473.63 1466.54 Q1475.87 1464.01 1476.75 1462.28 Q1477.65 1460.52 1477.65 1458.83 Q1477.65 1456.07 1475.71 1454.34 Q1473.79 1452.6 1470.69 1452.6 Q1468.49 1452.6 1466.03 1453.37 Q1463.6 1454.13 1460.82 1455.68 L1460.82 1450.96 Q1463.65 1449.82 1466.1 1449.25 Q1468.56 1448.67 1470.59 1448.67 Q1475.96 1448.67 1479.16 1451.35 Q1482.35 1454.04 1482.35 1458.53 Q1482.35 1460.66 1481.54 1462.58 Q1480.76 1464.48 1478.65 1467.07 Q1478.07 1467.74 1474.97 1470.96 Q1471.87 1474.15 1466.22 1479.92 Z" fill="#000000" fill-rule="evenodd" fill-opacity="1" /><path clip-path="url(#clip940)" d="M 0 0 M1502.35 1452.37 Q1498.74 1452.37 1496.91 1455.94 Q1495.11 1459.48 1495.11 1466.61 Q1495.11 1473.71 1496.91 1477.28 Q1498.74 1480.82 1502.35 1480.82 Q1505.99 1480.82 1507.79 1477.28 Q1509.62 1473.71 1509.62 1466.61 Q1509.62 1459.48 1507.79 1455.94 Q1505.99 1452.37 1502.35 1452.37 M1502.35 1448.67 Q1508.16 1448.67 1511.22 1453.27 Q1514.3 1457.86 1514.3 1466.61 Q1514.3 1475.33 1511.22 1479.94 Q1508.16 1484.52 1502.35 1484.52 Q1496.54 1484.52 1493.46 1479.94 Q1490.41 1475.33 1490.41 1466.61 Q1490.41 1457.86 1493.46 1453.27 Q1496.54 1448.67 1502.35 1448.67 Z" fill="#000000" fill-rule="evenodd" fill-opacity="1" /><path clip-path="url(#clip940)" d="M 0 0 M2051.65 1465.22 Q2055.01 1465.94 2056.88 1468.2 Q2058.78 1470.47 2058.78 1473.81 Q2058.78 1478.92 2055.26 1481.72 Q2051.74 1484.52 2045.26 1484.52 Q2043.09 1484.52 2040.77 1484.08 Q2038.48 1483.67 2036.03 1482.81 L2036.03 1478.3 Q2037.97 1479.43 2040.28 1480.01 Q2042.6 1480.59 2045.12 1480.59 Q2049.52 1480.59 2051.81 1478.85 Q2054.13 1477.12 2054.13 1473.81 Q2054.13 1470.75 2051.97 1469.04 Q2049.84 1467.3 2046.03 1467.3 L2042 1467.3 L2042 1463.46 L2046.21 1463.46 Q2049.66 1463.46 2051.49 1462.09 Q2053.32 1460.7 2053.32 1458.11 Q2053.32 1455.45 2051.42 1454.04 Q2049.54 1452.6 2046.03 1452.6 Q2044.1 1452.6 2041.9 1453.02 Q2039.71 1453.44 2037.07 1454.31 L2037.07 1450.15 Q2039.73 1449.41 2042.04 1449.04 Q2044.38 1448.67 2046.44 1448.67 Q2051.77 1448.67 2054.87 1451.1 Q2057.97 1453.5 2057.97 1457.63 Q2057.97 1460.5 2056.33 1462.49 Q2054.68 1464.45 2051.65 1465.22 Z" fill="#000000" fill-rule="evenodd" fill-opacity="1" /><path clip-path="url(#clip940)" d="M 0 0 M2077.65 1452.37 Q2074.03 1452.37 2072.21 1455.94 Q2070.4 1459.48 2070.4 1466.61 Q2070.4 1473.71 2072.21 1477.28 Q2074.03 1480.82 2077.65 1480.82 Q2081.28 1480.82 2083.09 1477.28 Q2084.91 1473.71 2084.91 1466.61 Q2084.91 1459.48 2083.09 1455.94 Q2081.28 1452.37 2077.65 1452.37 M2077.65 1448.67 Q2083.46 1448.67 2086.51 1453.27 Q2089.59 1457.86 2089.59 1466.61 Q2089.59 1475.33 2086.51 1479.94 Q2083.46 1484.52 2077.65 1484.52 Q2071.84 1484.52 2068.76 1479.94 Q2065.7 1475.33 2065.7 1466.61 Q2065.7 1457.86 2068.76 1453.27 Q2071.84 1448.67 2077.65 1448.67 Z" fill="#000000" fill-rule="evenodd" fill-opacity="1" /><path clip-path="url(#clip940)" d="M 0 0 M1276.01 1562.7 L1276.01 1581.6 L1270.12 1581.6 L1270.12 1532.4 L1276.01 1532.4 L1276.01 1537.81 Q1277.86 1534.62 1280.66 1533.1 Q1283.49 1531.54 1287.4 1531.54 Q1293.9 1531.54 1297.94 1536.69 Q1302.01 1541.85 1302.01 1550.25 Q1302.01 1558.65 1297.94 1563.81 Q1293.9 1568.97 1287.4 1568.97 Q1283.49 1568.97 1280.66 1567.44 Q1277.86 1565.88 1276.01 1562.7 M1295.93 1550.25 Q1295.93 1543.79 1293.26 1540.13 Q1290.62 1536.44 1285.97 1536.44 Q1281.33 1536.44 1278.65 1540.13 Q1276.01 1543.79 1276.01 1550.25 Q1276.01 1556.71 1278.65 1560.4 Q1281.33 1564.07 1285.97 1564.07 Q1290.62 1564.07 1293.26 1560.4 Q1295.93 1556.71 1295.93 1550.25 Z" fill="#000000" fill-rule="evenodd" fill-opacity="1" /><polyline clip-path="url(#clip942)" style="stroke:#000000; stroke-width:2; stroke-opacity:0.1; fill:none" points="
  219.38,1384.24 2352.76,1384.24 
  "/>
<polyline clip-path="url(#clip942)" style="stroke:#000000; stroke-width:2; stroke-opacity:0.1; fill:none" points="
  219.38,1013.15 2352.76,1013.15 
  "/>
<polyline clip-path="url(#clip942)" style="stroke:#000000; stroke-width:2; stroke-opacity:0.1; fill:none" points="
  219.38,642.055 2352.76,642.055 
  "/>
<polyline clip-path="url(#clip942)" style="stroke:#000000; stroke-width:2; stroke-opacity:0.1; fill:none" points="
  219.38,270.963 2352.76,270.963 
  "/>
<polyline clip-path="url(#clip940)" style="stroke:#000000; stroke-width:4; stroke-opacity:1; fill:none" points="
  219.38,1423.18 219.38,47.2441 
  "/>
<polyline clip-path="url(#clip940)" style="stroke:#000000; stroke-width:4; stroke-opacity:1; fill:none" points="
  219.38,1384.24 244.981,1384.24 
  "/>
<polyline clip-path="url(#clip940)" style="stroke:#000000; stroke-width:4; stroke-opacity:1; fill:none" points="
  219.38,1013.15 244.981,1013.15 
  "/>
<polyline clip-path="url(#clip940)" style="stroke:#000000; stroke-width:4; stroke-opacity:1; fill:none" points="
  219.38,642.055 244.981,642.055 
  "/>
<polyline clip-path="url(#clip940)" style="stroke:#000000; stroke-width:4; stroke-opacity:1; fill:none" points="
  219.38,270.963 244.981,270.963 
  "/>
<path clip-path="url(#clip940)" d="M 0 0 M126.205 1370.04 Q122.593 1370.04 120.765 1373.6 Q118.959 1377.14 118.959 1384.27 Q118.959 1391.38 120.765 1394.94 Q122.593 1398.49 126.205 1398.49 Q129.839 1398.49 131.644 1394.94 Q133.473 1391.38 133.473 1384.27 Q133.473 1377.14 131.644 1373.6 Q129.839 1370.04 126.205 1370.04 M126.205 1366.33 Q132.015 1366.33 135.07 1370.94 Q138.149 1375.52 138.149 1384.27 Q138.149 1393 135.07 1397.61 Q132.015 1402.19 126.205 1402.19 Q120.394 1402.19 117.316 1397.61 Q114.26 1393 114.26 1384.27 Q114.26 1375.52 117.316 1370.94 Q120.394 1366.33 126.205 1366.33 Z" fill="#000000" fill-rule="evenodd" fill-opacity="1" /><path clip-path="url(#clip940)" d="M 0 0 M146.366 1395.64 L151.251 1395.64 L151.251 1401.52 L146.366 1401.52 L146.366 1395.64 Z" fill="#000000" fill-rule="evenodd" fill-opacity="1" /><path clip-path="url(#clip940)" d="M 0 0 M171.436 1370.04 Q167.825 1370.04 165.996 1373.6 Q164.19 1377.14 164.19 1384.27 Q164.19 1391.38 165.996 1394.94 Q167.825 1398.49 171.436 1398.49 Q175.07 1398.49 176.876 1394.94 Q178.704 1391.38 178.704 1384.27 Q178.704 1377.14 176.876 1373.6 Q175.07 1370.04 171.436 1370.04 M171.436 1366.33 Q177.246 1366.33 180.301 1370.94 Q183.38 1375.52 183.38 1384.27 Q183.38 1393 180.301 1397.61 Q177.246 1402.19 171.436 1402.19 Q165.626 1402.19 162.547 1397.61 Q159.491 1393 159.491 1384.27 Q159.491 1375.52 162.547 1370.94 Q165.626 1366.33 171.436 1366.33 Z" fill="#000000" fill-rule="evenodd" fill-opacity="1" /><path clip-path="url(#clip940)" d="M 0 0 M127.431 998.945 Q123.82 998.945 121.992 1002.51 Q120.186 1006.05 120.186 1013.18 Q120.186 1020.29 121.992 1023.85 Q123.82 1027.39 127.431 1027.39 Q131.066 1027.39 132.871 1023.85 Q134.7 1020.29 134.7 1013.18 Q134.7 1006.05 132.871 1002.51 Q131.066 998.945 127.431 998.945 M127.431 995.242 Q133.242 995.242 136.297 999.848 Q139.376 1004.43 139.376 1013.18 Q139.376 1021.91 136.297 1026.51 Q133.242 1031.1 127.431 1031.1 Q121.621 1031.1 118.543 1026.51 Q115.487 1021.91 115.487 1013.18 Q115.487 1004.43 118.543 999.848 Q121.621 995.242 127.431 995.242 Z" fill="#000000" fill-rule="evenodd" fill-opacity="1" /><path clip-path="url(#clip940)" d="M 0 0 M147.593 1024.55 L152.478 1024.55 L152.478 1030.43 L147.593 1030.43 L147.593 1024.55 Z" fill="#000000" fill-rule="evenodd" fill-opacity="1" /><path clip-path="url(#clip940)" d="M 0 0 M163.473 1026.49 L171.112 1026.49 L171.112 1000.13 L162.802 1001.79 L162.802 997.533 L171.065 995.867 L175.741 995.867 L175.741 1026.49 L183.38 1026.49 L183.38 1030.43 L163.473 1030.43 L163.473 1026.49 Z" fill="#000000" fill-rule="evenodd" fill-opacity="1" /><path clip-path="url(#clip940)" d="M 0 0 M127.802 627.854 Q124.191 627.854 122.362 631.418 Q120.556 634.96 120.556 642.09 Q120.556 649.196 122.362 652.761 Q124.191 656.303 127.802 656.303 Q131.436 656.303 133.242 652.761 Q135.07 649.196 135.07 642.09 Q135.07 634.96 133.242 631.418 Q131.436 627.854 127.802 627.854 M127.802 624.15 Q133.612 624.15 136.667 628.756 Q139.746 633.34 139.746 642.09 Q139.746 650.816 136.667 655.423 Q133.612 660.006 127.802 660.006 Q121.992 660.006 118.913 655.423 Q115.857 650.816 115.857 642.09 Q115.857 633.34 118.913 628.756 Q121.992 624.15 127.802 624.15 Z" fill="#000000" fill-rule="evenodd" fill-opacity="1" /><path clip-path="url(#clip940)" d="M 0 0 M147.964 653.455 L152.848 653.455 L152.848 659.335 L147.964 659.335 L147.964 653.455 Z" fill="#000000" fill-rule="evenodd" fill-opacity="1" /><path clip-path="url(#clip940)" d="M 0 0 M167.061 655.4 L183.38 655.4 L183.38 659.335 L161.436 659.335 L161.436 655.4 Q164.098 652.645 168.681 648.016 Q173.288 643.363 174.468 642.02 Q176.714 639.497 177.593 637.761 Q178.496 636.002 178.496 634.312 Q178.496 631.557 176.551 629.821 Q174.63 628.085 171.528 628.085 Q169.329 628.085 166.876 628.849 Q164.445 629.613 161.667 631.164 L161.667 626.442 Q164.491 625.307 166.945 624.729 Q169.399 624.15 171.436 624.15 Q176.806 624.15 180.001 626.835 Q183.195 629.52 183.195 634.011 Q183.195 636.141 182.385 638.062 Q181.598 639.96 179.491 642.553 Q178.913 643.224 175.811 646.442 Q172.709 649.636 167.061 655.4 Z" fill="#000000" fill-rule="evenodd" fill-opacity="1" /><path clip-path="url(#clip940)" d="M 0 0 M126.853 256.762 Q123.242 256.762 121.413 260.327 Q119.607 263.868 119.607 270.998 Q119.607 278.104 121.413 281.669 Q123.242 285.211 126.853 285.211 Q130.487 285.211 132.292 281.669 Q134.121 278.104 134.121 270.998 Q134.121 263.868 132.292 260.327 Q130.487 256.762 126.853 256.762 M126.853 253.058 Q132.663 253.058 135.718 257.665 Q138.797 262.248 138.797 270.998 Q138.797 279.725 135.718 284.331 Q132.663 288.915 126.853 288.915 Q121.043 288.915 117.964 284.331 Q114.908 279.725 114.908 270.998 Q114.908 262.248 117.964 257.665 Q121.043 253.058 126.853 253.058 Z" fill="#000000" fill-rule="evenodd" fill-opacity="1" /><path clip-path="url(#clip940)" d="M 0 0 M147.015 282.364 L151.899 282.364 L151.899 288.243 L147.015 288.243 L147.015 282.364 Z" fill="#000000" fill-rule="evenodd" fill-opacity="1" /><path clip-path="url(#clip940)" d="M 0 0 M176.251 269.609 Q179.607 270.327 181.482 272.595 Q183.38 274.864 183.38 278.197 Q183.38 283.313 179.862 286.114 Q176.343 288.915 169.862 288.915 Q167.686 288.915 165.371 288.475 Q163.079 288.058 160.626 287.202 L160.626 282.688 Q162.57 283.822 164.885 284.401 Q167.2 284.979 169.723 284.979 Q174.121 284.979 176.413 283.243 Q178.727 281.507 178.727 278.197 Q178.727 275.142 176.575 273.429 Q174.445 271.692 170.626 271.692 L166.598 271.692 L166.598 267.85 L170.811 267.85 Q174.26 267.85 176.089 266.484 Q177.917 265.095 177.917 262.503 Q177.917 259.841 176.019 258.429 Q174.144 256.993 170.626 256.993 Q168.704 256.993 166.505 257.41 Q164.306 257.827 161.667 258.706 L161.667 254.54 Q164.329 253.799 166.644 253.429 Q168.982 253.058 171.042 253.058 Q176.366 253.058 179.468 255.489 Q182.57 257.896 182.57 262.017 Q182.57 264.887 180.926 266.878 Q179.283 268.845 176.251 269.609 Z" fill="#000000" fill-rule="evenodd" fill-opacity="1" /><path clip-path="url(#clip940)" d="M 0 0 M21.7677 788.557 L39.6235 788.557 L39.6235 780.472 Q39.6235 775.984 37.3 773.534 Q34.9765 771.083 30.6797 771.083 Q26.4147 771.083 24.0912 773.534 Q21.7677 775.984 21.7677 780.472 L21.7677 788.557 M16.4842 794.986 L16.4842 780.472 Q16.4842 772.483 20.1126 768.409 Q23.7092 764.303 30.6797 764.303 Q37.7138 764.303 41.3104 768.409 Q44.907 772.483 44.907 780.472 L44.907 788.557 L64.0042 788.557 L64.0042 794.986 L16.4842 794.986 Z" fill="#000000" fill-rule="evenodd" fill-opacity="1" /><path clip-path="url(#clip940)" d="M 0 0 M14.5426 741.864 Q21.8632 746.129 29.0246 748.198 Q36.186 750.267 43.5384 750.267 Q50.8908 750.267 58.1159 748.198 Q65.3091 746.097 72.5979 741.864 L72.5979 746.957 Q65.1182 751.731 57.8931 754.118 Q50.668 756.473 43.5384 756.473 Q36.4406 756.473 29.2474 754.118 Q22.0542 751.763 14.5426 746.957 L14.5426 741.864 Z" fill="#000000" fill-rule="evenodd" fill-opacity="1" /><path clip-path="url(#clip940)" d="M 0 0 M58.657 724.836 L77.5631 724.836 L77.5631 730.724 L28.3562 730.724 L28.3562 724.836 L33.7671 724.836 Q30.5842 722.99 29.0564 720.189 Q27.4968 717.356 27.4968 713.441 Q27.4968 706.948 32.6531 702.906 Q37.8093 698.832 46.212 698.832 Q54.6147 698.832 59.771 702.906 Q64.9272 706.948 64.9272 713.441 Q64.9272 717.356 63.3994 720.189 Q61.8398 722.99 58.657 724.836 M46.212 704.911 Q39.7508 704.911 36.0905 707.585 Q32.3984 710.227 32.3984 714.874 Q32.3984 719.521 36.0905 722.194 Q39.7508 724.836 46.212 724.836 Q52.6732 724.836 56.3653 722.194 Q60.0256 719.521 60.0256 714.874 Q60.0256 710.227 56.3653 707.585 Q52.6732 704.911 46.212 704.911 Z" fill="#000000" fill-rule="evenodd" fill-opacity="1" /><path clip-path="url(#clip940)" d="M 0 0 M14.5426 690.047 L14.5426 684.955 Q22.0542 680.18 29.2474 677.825 Q36.4406 675.438 43.5384 675.438 Q50.668 675.438 57.8931 677.825 Q65.1182 680.18 72.5979 684.955 L72.5979 690.047 Q65.3091 685.814 58.1159 683.745 Q50.8908 681.645 43.5384 681.645 Q36.186 681.645 29.0246 683.745 Q21.8632 685.814 14.5426 690.047 Z" fill="#000000" fill-rule="evenodd" fill-opacity="1" /><path clip-path="url(#clip942)" d="
M336.72 86.1857 L336.72 1384.24 L394.256 1384.24 L394.256 86.1857 L336.72 86.1857 L336.72 86.1857  Z
  " fill="#009af9" fill-rule="evenodd" fill-opacity="1"/>
<polyline clip-path="url(#clip942)" style="stroke:#009af9; stroke-width:4; stroke-opacity:1; fill:none" points="
  336.72,86.1857 336.72,1384.24 394.256,1384.24 394.256,86.1857 336.72,86.1857 
  "/>
<path clip-path="url(#clip942)" d="
M394.256 529.567 L394.256 1384.24 L451.792 1384.24 L451.792 529.567 L394.256 529.567 L394.256 529.567  Z
  " fill="#009af9" fill-rule="evenodd" fill-opacity="1"/>
<polyline clip-path="url(#clip942)" style="stroke:#009af9; stroke-width:4; stroke-opacity:1; fill:none" points="
  394.256,529.567 394.256,1384.24 451.792,1384.24 451.792,529.567 394.256,529.567 
  "/>
<path clip-path="url(#clip942)" d="
M451.792 841.053 L451.792 1384.24 L509.328 1384.24 L509.328 841.053 L451.792 841.053 L451.792 841.053  Z
  " fill="#009af9" fill-rule="evenodd" fill-opacity="1"/>
<polyline clip-path="url(#clip942)" style="stroke:#009af9; stroke-width:4; stroke-opacity:1; fill:none" points="
  451.792,841.053 451.792,1384.24 509.328,1384.24 509.328,841.053 451.792,841.053 
  "/>
<path clip-path="url(#clip942)" d="
M509.328 1032.76 L509.328 1384.24 L566.865 1384.24 L566.865 1032.76 L509.328 1032.76 L509.328 1032.76  Z
  " fill="#009af9" fill-rule="evenodd" fill-opacity="1"/>
<polyline clip-path="url(#clip942)" style="stroke:#009af9; stroke-width:4; stroke-opacity:1; fill:none" points="
  509.328,1032.76 509.328,1384.24 566.865,1384.24 566.865,1032.76 509.328,1032.76 
  "/>
<path clip-path="url(#clip942)" d="
M566.865 1160.04 L566.865 1384.24 L624.401 1384.24 L624.401 1160.04 L566.865 1160.04 L566.865 1160.04  Z
  " fill="#009af9" fill-rule="evenodd" fill-opacity="1"/>
<polyline clip-path="url(#clip942)" style="stroke:#009af9; stroke-width:4; stroke-opacity:1; fill:none" points="
  566.865,1160.04 566.865,1384.24 624.401,1384.24 624.401,1160.04 566.865,1160.04 
  "/>
<path clip-path="url(#clip942)" d="
M624.401 1234.93 L624.401 1384.24 L681.937 1384.24 L681.937 1234.93 L624.401 1234.93 L624.401 1234.93  Z
  " fill="#009af9" fill-rule="evenodd" fill-opacity="1"/>
<polyline clip-path="url(#clip942)" style="stroke:#009af9; stroke-width:4; stroke-opacity:1; fill:none" points="
  624.401,1234.93 624.401,1384.24 681.937,1384.24 681.937,1234.93 624.401,1234.93 
  "/>
<path clip-path="url(#clip942)" d="
M681.937 1286.68 L681.937 1384.24 L739.473 1384.24 L739.473 1286.68 L681.937 1286.68 L681.937 1286.68  Z
  " fill="#009af9" fill-rule="evenodd" fill-opacity="1"/>
<polyline clip-path="url(#clip942)" style="stroke:#009af9; stroke-width:4; stroke-opacity:1; fill:none" points="
  681.937,1286.68 681.937,1384.24 739.473,1384.24 739.473,1286.68 681.937,1286.68 
  "/>
<path clip-path="url(#clip942)" d="
M739.473 1319.49 L739.473 1384.24 L797.01 1384.24 L797.01 1319.49 L739.473 1319.49 L739.473 1319.49  Z
  " fill="#009af9" fill-rule="evenodd" fill-opacity="1"/>
<polyline clip-path="url(#clip942)" style="stroke:#009af9; stroke-width:4; stroke-opacity:1; fill:none" points="
  739.473,1319.49 739.473,1384.24 797.01,1384.24 797.01,1319.49 739.473,1319.49 
  "/>
<path clip-path="url(#clip942)" d="
M797.01 1343.32 L797.01 1384.24 L854.546 1384.24 L854.546 1343.32 L797.01 1343.32 L797.01 1343.32  Z
  " fill="#009af9" fill-rule="evenodd" fill-opacity="1"/>
<polyline clip-path="url(#clip942)" style="stroke:#009af9; stroke-width:4; stroke-opacity:1; fill:none" points="
  797.01,1343.32 797.01,1384.24 854.546,1384.24 854.546,1343.32 797.01,1343.32 
  "/>
<path clip-path="url(#clip942)" d="
M854.546 1356.56 L854.546 1384.24 L912.082 1384.24 L912.082 1356.56 L854.546 1356.56 L854.546 1356.56  Z
  " fill="#009af9" fill-rule="evenodd" fill-opacity="1"/>
<polyline clip-path="url(#clip942)" style="stroke:#009af9; stroke-width:4; stroke-opacity:1; fill:none" points="
  854.546,1356.56 854.546,1384.24 912.082,1384.24 912.082,1356.56 854.546,1356.56 
  "/>
<path clip-path="url(#clip942)" d="
M912.082 1365.55 L912.082 1384.24 L969.619 1384.24 L969.619 1365.55 L912.082 1365.55 L912.082 1365.55  Z
  " fill="#009af9" fill-rule="evenodd" fill-opacity="1"/>
<polyline clip-path="url(#clip942)" style="stroke:#009af9; stroke-width:4; stroke-opacity:1; fill:none" points="
  912.082,1365.55 912.082,1384.24 969.619,1384.24 969.619,1365.55 912.082,1365.55 
  "/>
<path clip-path="url(#clip942)" d="
M969.619 1370.56 L969.619 1384.24 L1027.15 1384.24 L1027.15 1370.56 L969.619 1370.56 L969.619 1370.56  Z
  " fill="#009af9" fill-rule="evenodd" fill-opacity="1"/>
<polyline clip-path="url(#clip942)" style="stroke:#009af9; stroke-width:4; stroke-opacity:1; fill:none" points="
  969.619,1370.56 969.619,1384.24 1027.15,1384.24 1027.15,1370.56 969.619,1370.56 
  "/>
<path clip-path="url(#clip942)" d="
M1027.15 1374.97 L1027.15 1384.24 L1084.69 1384.24 L1084.69 1374.97 L1027.15 1374.97 L1027.15 1374.97  Z
  " fill="#009af9" fill-rule="evenodd" fill-opacity="1"/>
<polyline clip-path="url(#clip942)" style="stroke:#009af9; stroke-width:4; stroke-opacity:1; fill:none" points="
  1027.15,1374.97 1027.15,1384.24 1084.69,1384.24 1084.69,1374.97 1027.15,1374.97 
  "/>
<path clip-path="url(#clip942)" d="
M1084.69 1378.58 L1084.69 1384.24 L1142.23 1384.24 L1142.23 1378.58 L1084.69 1378.58 L1084.69 1378.58  Z
  " fill="#009af9" fill-rule="evenodd" fill-opacity="1"/>
<polyline clip-path="url(#clip942)" style="stroke:#009af9; stroke-width:4; stroke-opacity:1; fill:none" points="
  1084.69,1378.58 1084.69,1384.24 1142.23,1384.24 1142.23,1378.58 1084.69,1378.58 
  "/>
<path clip-path="url(#clip942)" d="
M1142.23 1380.43 L1142.23 1384.24 L1199.76 1384.24 L1199.76 1380.43 L1142.23 1380.43 L1142.23 1380.43  Z
  " fill="#009af9" fill-rule="evenodd" fill-opacity="1"/>
<polyline clip-path="url(#clip942)" style="stroke:#009af9; stroke-width:4; stroke-opacity:1; fill:none" points="
  1142.23,1380.43 1142.23,1384.24 1199.76,1384.24 1199.76,1380.43 1142.23,1380.43 
  "/>
<path clip-path="url(#clip942)" d="
M1199.76 1381.35 L1199.76 1384.24 L1257.3 1384.24 L1257.3 1381.35 L1199.76 1381.35 L1199.76 1381.35  Z
  " fill="#009af9" fill-rule="evenodd" fill-opacity="1"/>
<polyline clip-path="url(#clip942)" style="stroke:#009af9; stroke-width:4; stroke-opacity:1; fill:none" points="
  1199.76,1381.35 1199.76,1384.24 1257.3,1384.24 1257.3,1381.35 1199.76,1381.35 
  "/>
<path clip-path="url(#clip942)" d="
M1257.3 1382.63 L1257.3 1384.24 L1314.84 1384.24 L1314.84 1382.63 L1257.3 1382.63 L1257.3 1382.63  Z
  " fill="#009af9" fill-rule="evenodd" fill-opacity="1"/>
<polyline clip-path="url(#clip942)" style="stroke:#009af9; stroke-width:4; stroke-opacity:1; fill:none" points="
  1257.3,1382.63 1257.3,1384.24 1314.84,1384.24 1314.84,1382.63 1257.3,1382.63 
  "/>
<path clip-path="url(#clip942)" d="
M1314.84 1383.03 L1314.84 1384.24 L1372.37 1384.24 L1372.37 1383.03 L1314.84 1383.03 L1314.84 1383.03  Z
  " fill="#009af9" fill-rule="evenodd" fill-opacity="1"/>
<polyline clip-path="url(#clip942)" style="stroke:#009af9; stroke-width:4; stroke-opacity:1; fill:none" points="
  1314.84,1383.03 1314.84,1384.24 1372.37,1384.24 1372.37,1383.03 1314.84,1383.03 
  "/>
<path clip-path="url(#clip942)" d="
M1372.37 1383.6 L1372.37 1384.24 L1429.91 1384.24 L1429.91 1383.6 L1372.37 1383.6 L1372.37 1383.6  Z
  " fill="#009af9" fill-rule="evenodd" fill-opacity="1"/>
<polyline clip-path="url(#clip942)" style="stroke:#009af9; stroke-width:4; stroke-opacity:1; fill:none" points="
  1372.37,1383.6 1372.37,1384.24 1429.91,1384.24 1429.91,1383.6 1372.37,1383.6 
  "/>
<path clip-path="url(#clip942)" d="
M1429.91 1383.92 L1429.91 1384.24 L1487.44 1384.24 L1487.44 1383.92 L1429.91 1383.92 L1429.91 1383.92  Z
  " fill="#009af9" fill-rule="evenodd" fill-opacity="1"/>
<polyline clip-path="url(#clip942)" style="stroke:#009af9; stroke-width:4; stroke-opacity:1; fill:none" points="
  1429.91,1383.92 1429.91,1384.24 1487.44,1384.24 1487.44,1383.92 1429.91,1383.92 
  "/>
<path clip-path="url(#clip942)" d="
M1487.44 1383.8 L1487.44 1384.24 L1544.98 1384.24 L1544.98 1383.8 L1487.44 1383.8 L1487.44 1383.8  Z
  " fill="#009af9" fill-rule="evenodd" fill-opacity="1"/>
<polyline clip-path="url(#clip942)" style="stroke:#009af9; stroke-width:4; stroke-opacity:1; fill:none" points="
  1487.44,1383.8 1487.44,1384.24 1544.98,1384.24 1544.98,1383.8 1487.44,1383.8 
  "/>
<path clip-path="url(#clip942)" d="
M1544.98 1383.96 L1544.98 1384.24 L1602.52 1384.24 L1602.52 1383.96 L1544.98 1383.96 L1544.98 1383.96  Z
  " fill="#009af9" fill-rule="evenodd" fill-opacity="1"/>
<polyline clip-path="url(#clip942)" style="stroke:#009af9; stroke-width:4; stroke-opacity:1; fill:none" points="
  1544.98,1383.96 1544.98,1384.24 1602.52,1384.24 1602.52,1383.96 1544.98,1383.96 
  "/>
<path clip-path="url(#clip942)" d="
M1602.52 1384.08 L1602.52 1384.24 L1660.05 1384.24 L1660.05 1384.08 L1602.52 1384.08 L1602.52 1384.08  Z
  " fill="#009af9" fill-rule="evenodd" fill-opacity="1"/>
<polyline clip-path="url(#clip942)" style="stroke:#009af9; stroke-width:4; stroke-opacity:1; fill:none" points="
  1602.52,1384.08 1602.52,1384.24 1660.05,1384.24 1660.05,1384.08 1602.52,1384.08 
  "/>
<path clip-path="url(#clip942)" d="
M1660.05 1384.12 L1660.05 1384.24 L1717.59 1384.24 L1717.59 1384.12 L1660.05 1384.12 L1660.05 1384.12  Z
  " fill="#009af9" fill-rule="evenodd" fill-opacity="1"/>
<polyline clip-path="url(#clip942)" style="stroke:#009af9; stroke-width:4; stroke-opacity:1; fill:none" points="
  1660.05,1384.12 1660.05,1384.24 1717.59,1384.24 1717.59,1384.12 1660.05,1384.12 
  "/>
<path clip-path="url(#clip942)" d="
M1717.59 1384.2 L1717.59 1384.24 L1775.13 1384.24 L1775.13 1384.2 L1717.59 1384.2 L1717.59 1384.2  Z
  " fill="#009af9" fill-rule="evenodd" fill-opacity="1"/>
<polyline clip-path="url(#clip942)" style="stroke:#009af9; stroke-width:4; stroke-opacity:1; fill:none" points="
  1717.59,1384.2 1717.59,1384.24 1775.13,1384.24 1775.13,1384.2 1717.59,1384.2 
  "/>
<path clip-path="url(#clip942)" d="
M1775.13 1384.16 L1775.13 1384.24 L1832.66 1384.24 L1832.66 1384.16 L1775.13 1384.16 L1775.13 1384.16  Z
  " fill="#009af9" fill-rule="evenodd" fill-opacity="1"/>
<polyline clip-path="url(#clip942)" style="stroke:#009af9; stroke-width:4; stroke-opacity:1; fill:none" points="
  1775.13,1384.16 1775.13,1384.24 1832.66,1384.24 1832.66,1384.16 1775.13,1384.16 
  "/>
<path clip-path="url(#clip942)" d="
M1832.66 1384.2 L1832.66 1384.24 L1890.2 1384.24 L1890.2 1384.2 L1832.66 1384.2 L1832.66 1384.2  Z
  " fill="#009af9" fill-rule="evenodd" fill-opacity="1"/>
<polyline clip-path="url(#clip942)" style="stroke:#009af9; stroke-width:4; stroke-opacity:1; fill:none" points="
  1832.66,1384.2 1832.66,1384.24 1890.2,1384.24 1890.2,1384.2 1832.66,1384.2 
  "/>
<path clip-path="url(#clip942)" d="
M1890.2 1384.24 L1890.2 1384.24 L1947.74 1384.24 L1947.74 1384.24 L1890.2 1384.24 L1890.2 1384.24  Z
  " fill="#009af9" fill-rule="evenodd" fill-opacity="1"/>
<polyline clip-path="url(#clip942)" style="stroke:#009af9; stroke-width:4; stroke-opacity:1; fill:none" points="
  1890.2,1384.24 1890.2,1384.24 1947.74,1384.24 1890.2,1384.24 
  "/>
<path clip-path="url(#clip942)" d="
M1947.74 1384.12 L1947.74 1384.24 L2005.27 1384.24 L2005.27 1384.12 L1947.74 1384.12 L1947.74 1384.12  Z
  " fill="#009af9" fill-rule="evenodd" fill-opacity="1"/>
<polyline clip-path="url(#clip942)" style="stroke:#009af9; stroke-width:4; stroke-opacity:1; fill:none" points="
  1947.74,1384.12 1947.74,1384.24 2005.27,1384.24 2005.27,1384.12 1947.74,1384.12 
  "/>
<path clip-path="url(#clip942)" d="
M2005.27 1384.24 L2005.27 1384.24 L2062.81 1384.24 L2062.81 1384.24 L2005.27 1384.24 L2005.27 1384.24  Z
  " fill="#009af9" fill-rule="evenodd" fill-opacity="1"/>
<polyline clip-path="url(#clip942)" style="stroke:#009af9; stroke-width:4; stroke-opacity:1; fill:none" points="
  2005.27,1384.24 2005.27,1384.24 2062.81,1384.24 2005.27,1384.24 
  "/>
<path clip-path="url(#clip942)" d="
M2062.81 1384.24 L2062.81 1384.24 L2120.34 1384.24 L2120.34 1384.24 L2062.81 1384.24 L2062.81 1384.24  Z
  " fill="#009af9" fill-rule="evenodd" fill-opacity="1"/>
<polyline clip-path="url(#clip942)" style="stroke:#009af9; stroke-width:4; stroke-opacity:1; fill:none" points="
  2062.81,1384.24 2062.81,1384.24 2120.34,1384.24 2062.81,1384.24 
  "/>
<path clip-path="url(#clip942)" d="
M2120.34 1384.2 L2120.34 1384.24 L2177.88 1384.24 L2177.88 1384.2 L2120.34 1384.2 L2120.34 1384.2  Z
  " fill="#009af9" fill-rule="evenodd" fill-opacity="1"/>
<polyline clip-path="url(#clip942)" style="stroke:#009af9; stroke-width:4; stroke-opacity:1; fill:none" points="
  2120.34,1384.2 2120.34,1384.24 2177.88,1384.24 2177.88,1384.2 2120.34,1384.2 
  "/>
<path clip-path="url(#clip942)" d="
M2177.88 1384.2 L2177.88 1384.24 L2235.42 1384.24 L2235.42 1384.2 L2177.88 1384.2 L2177.88 1384.2  Z
  " fill="#009af9" fill-rule="evenodd" fill-opacity="1"/>
<polyline clip-path="url(#clip942)" style="stroke:#009af9; stroke-width:4; stroke-opacity:1; fill:none" points="
  2177.88,1384.2 2177.88,1384.24 2235.42,1384.24 2235.42,1384.2 2177.88,1384.2 
  "/>
<polyline clip-path="url(#clip942)" style="stroke:#e26f46; stroke-width:12; stroke-opacity:1; fill:none" points="
  336.72,916.463 342.473,896.447 348.227,876.724 353.981,857.396 359.734,838.57 365.488,820.347 371.241,802.834 376.995,786.131 382.749,770.34 388.502,755.555 
  394.256,741.871 400.01,729.371 405.763,718.138 411.517,708.243 417.27,699.752 423.024,692.721 428.778,687.197 434.531,683.218 440.285,680.808 446.039,679.987 
  451.792,680.758 457.546,683.116 463.299,687.046 469.053,692.521 474.807,699.505 480.56,707.95 486.314,717.8 492.068,728.992 497.821,741.452 503.575,755.1 
  509.328,769.851 515.082,785.612 520.836,802.287 526.589,819.776 532.343,837.977 538.097,856.786 543.85,876.099 549.604,895.811 555.357,915.82 561.111,936.024 
  566.865,956.327 572.618,976.633 578.372,996.853 584.126,1016.9 589.879,1036.7 595.633,1056.18 601.386,1075.26 607.14,1093.89 612.894,1112.02 618.647,1129.59 
  624.401,1146.56 630.155,1162.91 635.908,1178.59 641.662,1193.6 647.415,1207.91 653.169,1221.51 658.923,1234.41 664.676,1246.59 670.43,1258.07 676.184,1268.86 
  681.937,1278.96 687.691,1288.39 693.444,1297.18 699.198,1305.34 704.952,1312.89 710.705,1319.87 716.459,1326.3 722.213,1332.2 727.966,1337.61 733.72,1342.55 
  739.473,1347.05 745.227,1351.14 750.981,1354.85 756.734,1358.2 762.488,1361.22 768.242,1363.93 773.995,1366.37 779.749,1368.55 785.503,1370.49 791.256,1372.23 
  797.01,1373.76 802.763,1375.12 808.517,1376.32 814.271,1377.38 820.024,1378.31 825.778,1379.13 831.532,1379.84 837.285,1380.47 843.039,1381.01 848.792,1381.48 
  854.546,1381.88 860.3,1382.24 866.053,1382.54 871.807,1382.8 877.561,1383.02 883.314,1383.21 889.068,1383.38 894.821,1383.51 900.575,1383.63 906.329,1383.73 
  912.082,1383.82 917.836,1383.89 923.59,1383.95 929.343,1384 935.097,1384.04 940.85,1384.07 946.604,1384.1 952.358,1384.13 958.111,1384.15 963.865,1384.16 
  969.619,1384.18 975.372,1384.19 981.126,1384.2 986.879,1384.21 992.633,1384.21 998.387,1384.22 1004.14,1384.22 1009.89,1384.22 1015.65,1384.23 1021.4,1384.23 
  1027.15,1384.23 1032.91,1384.23 1038.66,1384.23 1044.42,1384.23 1050.17,1384.24 1055.92,1384.24 1061.68,1384.24 1067.43,1384.24 1073.18,1384.24 1078.94,1384.24 
  1084.69,1384.24 1090.44,1384.24 1096.2,1384.24 1101.95,1384.24 1107.71,1384.24 1113.46,1384.24 1119.21,1384.24 1124.97,1384.24 1130.72,1384.24 1136.47,1384.24 
  1142.23,1384.24 1147.98,1384.24 1153.73,1384.24 1159.49,1384.24 1165.24,1384.24 1171,1384.24 1176.75,1384.24 1182.5,1384.24 1188.26,1384.24 1194.01,1384.24 
  1199.76,1384.24 1205.52,1384.24 1211.27,1384.24 1217.02,1384.24 1222.78,1384.24 1228.53,1384.24 1234.29,1384.24 1240.04,1384.24 1245.79,1384.24 1251.55,1384.24 
  1257.3,1384.24 1263.05,1384.24 1268.81,1384.24 1274.56,1384.24 1280.31,1384.24 1286.07,1384.24 1291.82,1384.24 1297.58,1384.24 1303.33,1384.24 1309.08,1384.24 
  1314.84,1384.24 1320.59,1384.24 1326.34,1384.24 1332.1,1384.24 1337.85,1384.24 1343.6,1384.24 1349.36,1384.24 1355.11,1384.24 1360.87,1384.24 1366.62,1384.24 
  1372.37,1384.24 1378.13,1384.24 1383.88,1384.24 1389.63,1384.24 1395.39,1384.24 1401.14,1384.24 1406.89,1384.24 1412.65,1384.24 1418.4,1384.24 1424.16,1384.24 
  1429.91,1384.24 1435.66,1384.24 1441.42,1384.24 1447.17,1384.24 1452.92,1384.24 1458.68,1384.24 1464.43,1384.24 1470.18,1384.24 1475.94,1384.24 1481.69,1384.24 
  1487.44,1384.24 1493.2,1384.24 1498.95,1384.24 1504.71,1384.24 1510.46,1384.24 1516.21,1384.24 1521.97,1384.24 1527.72,1384.24 1533.47,1384.24 1539.23,1384.24 
  1544.98,1384.24 1550.73,1384.24 1556.49,1384.24 1562.24,1384.24 1568,1384.24 1573.75,1384.24 1579.5,1384.24 1585.26,1384.24 1591.01,1384.24 1596.76,1384.24 
  1602.52,1384.24 1608.27,1384.24 1614.02,1384.24 1619.78,1384.24 1625.53,1384.24 1631.29,1384.24 1637.04,1384.24 1642.79,1384.24 1648.55,1384.24 1654.3,1384.24 
  1660.05,1384.24 1665.81,1384.24 1671.56,1384.24 1677.31,1384.24 1683.07,1384.24 1688.82,1384.24 1694.58,1384.24 1700.33,1384.24 1706.08,1384.24 1711.84,1384.24 
  1717.59,1384.24 1723.34,1384.24 1729.1,1384.24 1734.85,1384.24 1740.6,1384.24 1746.36,1384.24 1752.11,1384.24 1757.87,1384.24 1763.62,1384.24 1769.37,1384.24 
  1775.13,1384.24 1780.88,1384.24 1786.63,1384.24 1792.39,1384.24 1798.14,1384.24 1803.89,1384.24 1809.65,1384.24 1815.4,1384.24 1821.16,1384.24 1826.91,1384.24 
  1832.66,1384.24 1838.42,1384.24 1844.17,1384.24 1849.92,1384.24 1855.68,1384.24 1861.43,1384.24 1867.18,1384.24 1872.94,1384.24 1878.69,1384.24 1884.45,1384.24 
  1890.2,1384.24 1895.95,1384.24 1901.71,1384.24 1907.46,1384.24 1913.21,1384.24 1918.97,1384.24 1924.72,1384.24 1930.47,1384.24 1936.23,1384.24 1941.98,1384.24 
  1947.74,1384.24 1953.49,1384.24 1959.24,1384.24 1965,1384.24 1970.75,1384.24 1976.5,1384.24 1982.26,1384.24 1988.01,1384.24 1993.76,1384.24 1999.52,1384.24 
  2005.27,1384.24 2011.02,1384.24 2016.78,1384.24 2022.53,1384.24 2028.29,1384.24 2034.04,1384.24 2039.79,1384.24 2045.55,1384.24 2051.3,1384.24 2057.05,1384.24 
  2062.81,1384.24 2068.56,1384.24 2074.31,1384.24 2080.07,1384.24 2085.82,1384.24 2091.58,1384.24 2097.33,1384.24 2103.08,1384.24 2108.84,1384.24 2114.59,1384.24 
  2120.34,1384.24 2126.1,1384.24 2131.85,1384.24 2137.6,1384.24 2143.36,1384.24 2149.11,1384.24 2154.87,1384.24 2160.62,1384.24 2166.37,1384.24 2172.13,1384.24 
  2177.88,1384.24 
  "/>
<polyline clip-path="url(#clip942)" style="stroke:#3da44d; stroke-width:12; stroke-opacity:1; fill:none" points="
  336.72,279.005 342.473,283.483 348.227,293.742 353.981,308.603 359.734,327.114 365.488,348.501 371.241,372.129 376.995,397.475 382.749,424.104 388.502,451.656 
  394.256,479.829 400.01,508.372 405.763,537.074 411.517,565.762 417.27,594.288 423.024,622.531 428.778,650.393 434.531,677.789 440.285,704.655 446.039,730.935 
  451.792,756.589 457.546,781.582 463.299,805.89 469.053,829.496 474.807,852.388 480.56,874.56 486.314,896.01 492.068,916.739 497.821,936.752 503.575,956.057 
  509.328,974.664 515.082,992.585 520.836,1009.83 526.589,1026.42 532.343,1042.36 538.097,1057.68 543.85,1072.39 549.604,1086.5 555.357,1100.04 561.111,1113.02 
  566.865,1125.46 572.618,1137.37 578.372,1148.78 584.126,1159.71 589.879,1170.16 595.633,1180.16 601.386,1189.73 607.14,1198.87 612.894,1207.61 618.647,1215.97 
  624.401,1223.95 630.155,1231.57 635.908,1238.85 641.662,1245.8 647.415,1252.43 653.169,1258.76 658.923,1264.79 664.676,1270.55 670.43,1276.05 676.184,1281.29 
  681.937,1286.28 687.691,1291.04 693.444,1295.58 699.198,1299.91 704.952,1304.03 710.705,1307.95 716.459,1311.69 722.213,1315.26 727.966,1318.65 733.72,1321.88 
  739.473,1324.96 745.227,1327.88 750.981,1330.67 756.734,1333.32 762.488,1335.85 768.242,1338.25 773.995,1340.54 779.749,1342.71 785.503,1344.78 791.256,1346.75 
  797.01,1348.62 802.763,1350.4 808.517,1352.1 814.271,1353.71 820.024,1355.24 825.778,1356.7 831.532,1358.08 837.285,1359.4 843.039,1360.65 848.792,1361.84 
  854.546,1362.97 860.3,1364.04 866.053,1365.06 871.807,1366.03 877.561,1366.95 883.314,1367.83 889.068,1368.66 894.821,1369.45 900.575,1370.2 906.329,1370.91 
  912.082,1371.59 917.836,1372.23 923.59,1372.85 929.343,1373.43 935.097,1373.98 940.85,1374.5 946.604,1375 952.358,1375.47 958.111,1375.92 963.865,1376.34 
  969.619,1376.75 975.372,1377.13 981.126,1377.5 986.879,1377.84 992.633,1378.17 998.387,1378.48 1004.14,1378.78 1009.89,1379.06 1015.65,1379.32 1021.4,1379.58 
  1027.15,1379.82 1032.91,1380.04 1038.66,1380.26 1044.42,1380.46 1050.17,1380.66 1055.92,1380.84 1061.68,1381.02 1067.43,1381.18 1073.18,1381.34 1078.94,1381.49 
  1084.69,1381.63 1090.44,1381.77 1096.2,1381.9 1101.95,1382.02 1107.71,1382.13 1113.46,1382.24 1119.21,1382.35 1124.97,1382.44 1130.72,1382.54 1136.47,1382.62 
  1142.23,1382.71 1147.98,1382.79 1153.73,1382.86 1159.49,1382.93 1165.24,1383 1171,1383.07 1176.75,1383.13 1182.5,1383.19 1188.26,1383.24 1194.01,1383.29 
  1199.76,1383.34 1205.52,1383.39 1211.27,1383.43 1217.02,1383.47 1222.78,1383.51 1228.53,1383.55 1234.29,1383.59 1240.04,1383.62 1245.79,1383.65 1251.55,1383.68 
  1257.3,1383.71 1263.05,1383.74 1268.81,1383.77 1274.56,1383.79 1280.31,1383.81 1286.07,1383.84 1291.82,1383.86 1297.58,1383.88 1303.33,1383.9 1309.08,1383.91 
  1314.84,1383.93 1320.59,1383.95 1326.34,1383.96 1332.1,1383.98 1337.85,1383.99 1343.6,1384 1349.36,1384.02 1355.11,1384.03 1360.87,1384.04 1366.62,1384.05 
  1372.37,1384.06 1378.13,1384.07 1383.88,1384.08 1389.63,1384.09 1395.39,1384.09 1401.14,1384.1 1406.89,1384.11 1412.65,1384.12 1418.4,1384.12 1424.16,1384.13 
  1429.91,1384.13 1435.66,1384.14 1441.42,1384.14 1447.17,1384.15 1452.92,1384.15 1458.68,1384.16 1464.43,1384.16 1470.18,1384.17 1475.94,1384.17 1481.69,1384.17 
  1487.44,1384.18 1493.2,1384.18 1498.95,1384.18 1504.71,1384.19 1510.46,1384.19 1516.21,1384.19 1521.97,1384.19 1527.72,1384.2 1533.47,1384.2 1539.23,1384.2 
  1544.98,1384.2 1550.73,1384.2 1556.49,1384.21 1562.24,1384.21 1568,1384.21 1573.75,1384.21 1579.5,1384.21 1585.26,1384.21 1591.01,1384.22 1596.76,1384.22 
  1602.52,1384.22 1608.27,1384.22 1614.02,1384.22 1619.78,1384.22 1625.53,1384.22 1631.29,1384.22 1637.04,1384.22 1642.79,1384.22 1648.55,1384.22 1654.3,1384.23 
  1660.05,1384.23 1665.81,1384.23 1671.56,1384.23 1677.31,1384.23 1683.07,1384.23 1688.82,1384.23 1694.58,1384.23 1700.33,1384.23 1706.08,1384.23 1711.84,1384.23 
  1717.59,1384.23 1723.34,1384.23 1729.1,1384.23 1734.85,1384.23 1740.6,1384.23 1746.36,1384.23 1752.11,1384.23 1757.87,1384.23 1763.62,1384.23 1769.37,1384.23 
  1775.13,1384.23 1780.88,1384.23 1786.63,1384.23 1792.39,1384.23 1798.14,1384.24 1803.89,1384.24 1809.65,1384.24 1815.4,1384.24 1821.16,1384.24 1826.91,1384.24 
  1832.66,1384.24 1838.42,1384.24 1844.17,1384.24 1849.92,1384.24 1855.68,1384.24 1861.43,1384.24 1867.18,1384.24 1872.94,1384.24 1878.69,1384.24 1884.45,1384.24 
  1890.2,1384.24 1895.95,1384.24 1901.71,1384.24 1907.46,1384.24 1913.21,1384.24 1918.97,1384.24 1924.72,1384.24 1930.47,1384.24 1936.23,1384.24 1941.98,1384.24 
  1947.74,1384.24 1953.49,1384.24 1959.24,1384.24 1965,1384.24 1970.75,1384.24 1976.5,1384.24 1982.26,1384.24 1988.01,1384.24 1993.76,1384.24 1999.52,1384.24 
  2005.27,1384.24 2011.02,1384.24 2016.78,1384.24 2022.53,1384.24 2028.29,1384.24 2034.04,1384.24 2039.79,1384.24 2045.55,1384.24 2051.3,1384.24 2057.05,1384.24 
  2062.81,1384.24 2068.56,1384.24 2074.31,1384.24 2080.07,1384.24 2085.82,1384.24 2091.58,1384.24 2097.33,1384.24 2103.08,1384.24 2108.84,1384.24 2114.59,1384.24 
  2120.34,1384.24 2126.1,1384.24 2131.85,1384.24 2137.6,1384.24 2143.36,1384.24 2149.11,1384.24 2154.87,1384.24 2160.62,1384.24 2166.37,1384.24 2172.13,1384.24 
  2177.88,1384.24 
  "/>
<path clip-path="url(#clip940)" d="
M1560.23 335.029 L2281.64 335.029 L2281.64 93.1086 L1560.23 93.1086  Z
  " fill="#ffffff" fill-rule="evenodd" fill-opacity="1"/>
<polyline clip-path="url(#clip940)" style="stroke:#000000; stroke-width:4; stroke-opacity:1; fill:none" points="
  1560.23,335.029 2281.64,335.029 2281.64,93.1086 1560.23,93.1086 1560.23,335.029 
  "/>
<path clip-path="url(#clip940)" d="
M1583.93 177.781 L1726.16 177.781 L1726.16 129.397 L1583.93 129.397 L1583.93 177.781  Z
  " fill="#009af9" fill-rule="evenodd" fill-opacity="1"/>
<polyline clip-path="url(#clip940)" style="stroke:#009af9; stroke-width:4; stroke-opacity:1; fill:none" points="
  1583.93,177.781 1726.16,177.781 1726.16,129.397 1583.93,129.397 1583.93,177.781 
  "/>
<path clip-path="url(#clip940)" d="M 0 0 M1763.71 173.276 Q1761.9 177.906 1760.19 179.318 Q1758.47 180.73 1755.6 180.73 L1752.2 180.73 L1752.2 177.165 L1754.7 177.165 Q1756.46 177.165 1757.43 176.332 Q1758.4 175.498 1759.58 172.396 L1760.35 170.452 L1749.86 144.943 L1754.38 144.943 L1762.48 165.221 L1770.58 144.943 L1775.09 144.943 L1763.71 173.276 Z" fill="#000000" fill-rule="evenodd" fill-opacity="1" /><path clip-path="url(#clip940)" d="M 0 0 M1782.39 166.933 L1790.02 166.933 L1790.02 140.568 L1781.71 142.235 L1781.71 137.975 L1789.98 136.309 L1794.65 136.309 L1794.65 166.933 L1802.29 166.933 L1802.29 170.869 L1782.39 170.869 L1782.39 166.933 Z" fill="#000000" fill-rule="evenodd" fill-opacity="1" /><polyline clip-path="url(#clip940)" style="stroke:#e26f46; stroke-width:4; stroke-opacity:1; fill:none" points="
  1583.93,214.069 1726.16,214.069 
  "/>
<path clip-path="url(#clip940)" d="M 0 0 M1768.77 218.085 Q1768.77 213.455 1766.85 210.909 Q1764.96 208.363 1761.51 208.363 Q1758.08 208.363 1756.16 210.909 Q1754.26 213.455 1754.26 218.085 Q1754.26 222.691 1756.16 225.238 Q1758.08 227.784 1761.51 227.784 Q1764.96 227.784 1766.85 225.238 Q1768.77 222.691 1768.77 218.085 M1773.03 228.131 Q1773.03 234.751 1770.09 237.969 Q1767.15 241.21 1761.09 241.21 Q1758.84 241.21 1756.85 240.862 Q1754.86 240.538 1752.99 239.844 L1752.99 235.7 Q1754.86 236.719 1756.69 237.205 Q1758.52 237.691 1760.42 237.691 Q1764.61 237.691 1766.69 235.492 Q1768.77 233.316 1768.77 228.895 L1768.77 226.788 Q1767.46 229.08 1765.39 230.214 Q1763.33 231.349 1760.46 231.349 Q1755.7 231.349 1752.78 227.714 Q1749.86 224.08 1749.86 218.085 Q1749.86 212.066 1752.78 208.432 Q1755.7 204.798 1760.46 204.798 Q1763.33 204.798 1765.39 205.932 Q1767.46 207.066 1768.77 209.358 L1768.77 205.423 L1773.03 205.423 L1773.03 228.131 Z" fill="#000000" fill-rule="evenodd" fill-opacity="1" /><path clip-path="url(#clip940)" d="M 0 0 M1793.59 218.316 Q1788.43 218.316 1786.44 219.497 Q1784.45 220.677 1784.45 223.525 Q1784.45 225.793 1785.93 227.136 Q1787.43 228.455 1790 228.455 Q1793.54 228.455 1795.67 225.955 Q1797.83 223.432 1797.83 219.265 L1797.83 218.316 L1793.59 218.316 M1802.08 216.557 L1802.08 231.349 L1797.83 231.349 L1797.83 227.413 Q1796.37 229.775 1794.19 230.909 Q1792.02 232.02 1788.87 232.02 Q1784.89 232.02 1782.52 229.798 Q1780.19 227.552 1780.19 223.802 Q1780.19 219.427 1783.1 217.205 Q1786.04 214.983 1791.85 214.983 L1797.83 214.983 L1797.83 214.566 Q1797.83 211.627 1795.88 210.029 Q1793.96 208.409 1790.46 208.409 Q1788.24 208.409 1786.14 208.941 Q1784.03 209.474 1782.08 210.539 L1782.08 206.603 Q1784.42 205.701 1786.62 205.261 Q1788.82 204.798 1790.9 204.798 Q1796.53 204.798 1799.31 207.714 Q1802.08 210.631 1802.08 216.557 Z" fill="#000000" fill-rule="evenodd" fill-opacity="1" /><path clip-path="url(#clip940)" d="M 0 0 M1810.42 221.117 L1810.42 205.423 L1814.68 205.423 L1814.68 220.955 Q1814.68 224.636 1816.11 226.488 Q1817.55 228.316 1820.42 228.316 Q1823.87 228.316 1825.86 226.117 Q1827.87 223.918 1827.87 220.122 L1827.87 205.423 L1832.13 205.423 L1832.13 231.349 L1827.87 231.349 L1827.87 227.367 Q1826.32 229.728 1824.26 230.886 Q1822.22 232.02 1819.52 232.02 Q1815.05 232.02 1812.73 229.242 Q1810.42 226.464 1810.42 221.117 M1821.14 204.798 L1821.14 204.798 Z" fill="#000000" fill-rule="evenodd" fill-opacity="1" /><path clip-path="url(#clip940)" d="M 0 0 M1857.43 206.187 L1857.43 210.214 Q1855.63 209.289 1853.68 208.826 Q1851.74 208.363 1849.65 208.363 Q1846.48 208.363 1844.89 209.335 Q1843.31 210.307 1843.31 212.251 Q1843.31 213.733 1844.45 214.589 Q1845.58 215.423 1849.01 216.187 L1850.46 216.511 Q1855 217.483 1856.9 219.265 Q1858.82 221.025 1858.82 224.196 Q1858.82 227.807 1855.95 229.913 Q1853.1 232.02 1848.1 232.02 Q1846.02 232.02 1843.75 231.603 Q1841.51 231.21 1839.01 230.4 L1839.01 226.001 Q1841.37 227.228 1843.66 227.853 Q1845.95 228.455 1848.2 228.455 Q1851.2 228.455 1852.83 227.437 Q1854.45 226.395 1854.45 224.52 Q1854.45 222.784 1853.26 221.858 Q1852.11 220.932 1848.15 220.076 L1846.67 219.728 Q1842.71 218.895 1840.95 217.182 Q1839.19 215.446 1839.19 212.437 Q1839.19 208.779 1841.78 206.789 Q1844.38 204.798 1849.14 204.798 Q1851.51 204.798 1853.59 205.145 Q1855.67 205.492 1857.43 206.187 Z" fill="#000000" fill-rule="evenodd" fill-opacity="1" /><path clip-path="url(#clip940)" d="M 0 0 M1882.13 206.187 L1882.13 210.214 Q1880.32 209.289 1878.38 208.826 Q1876.44 208.363 1874.35 208.363 Q1871.18 208.363 1869.58 209.335 Q1868.01 210.307 1868.01 212.251 Q1868.01 213.733 1869.14 214.589 Q1870.28 215.423 1873.7 216.187 L1875.16 216.511 Q1879.7 217.483 1881.6 219.265 Q1883.52 221.025 1883.52 224.196 Q1883.52 227.807 1880.65 229.913 Q1877.8 232.02 1872.8 232.02 Q1870.72 232.02 1868.45 231.603 Q1866.2 231.21 1863.7 230.4 L1863.7 226.001 Q1866.07 227.228 1868.36 227.853 Q1870.65 228.455 1872.89 228.455 Q1875.9 228.455 1877.52 227.437 Q1879.14 226.395 1879.14 224.52 Q1879.14 222.784 1877.96 221.858 Q1876.81 220.932 1872.85 220.076 L1871.37 219.728 Q1867.41 218.895 1865.65 217.182 Q1863.89 215.446 1863.89 212.437 Q1863.89 208.779 1866.48 206.789 Q1869.07 204.798 1873.84 204.798 Q1876.2 204.798 1878.29 205.145 Q1880.37 205.492 1882.13 206.187 Z" fill="#000000" fill-rule="evenodd" fill-opacity="1" /><path clip-path="url(#clip940)" d="M 0 0 M1890.3 205.423 L1894.56 205.423 L1894.56 231.349 L1890.3 231.349 L1890.3 205.423 M1890.3 195.33 L1894.56 195.33 L1894.56 200.724 L1890.3 200.724 L1890.3 195.33 Z" fill="#000000" fill-rule="evenodd" fill-opacity="1" /><path clip-path="url(#clip940)" d="M 0 0 M1915.26 218.316 Q1910.09 218.316 1908.1 219.497 Q1906.11 220.677 1906.11 223.525 Q1906.11 225.793 1907.59 227.136 Q1909.1 228.455 1911.67 228.455 Q1915.21 228.455 1917.34 225.955 Q1919.49 223.432 1919.49 219.265 L1919.49 218.316 L1915.26 218.316 M1923.75 216.557 L1923.75 231.349 L1919.49 231.349 L1919.49 227.413 Q1918.03 229.775 1915.86 230.909 Q1913.68 232.02 1910.53 232.02 Q1906.55 232.02 1904.19 229.798 Q1901.85 227.552 1901.85 223.802 Q1901.85 219.427 1904.77 217.205 Q1907.71 214.983 1913.52 214.983 L1919.49 214.983 L1919.49 214.566 Q1919.49 211.627 1917.55 210.029 Q1915.63 208.409 1912.13 208.409 Q1909.91 208.409 1907.8 208.941 Q1905.7 209.474 1903.75 210.539 L1903.75 206.603 Q1906.09 205.701 1908.29 205.261 Q1910.49 204.798 1912.57 204.798 Q1918.2 204.798 1920.97 207.714 Q1923.75 210.631 1923.75 216.557 Z" fill="#000000" fill-rule="evenodd" fill-opacity="1" /><path clip-path="url(#clip940)" d="M 0 0 M1954.07 215.701 L1954.07 231.349 L1949.82 231.349 L1949.82 215.839 Q1949.82 212.159 1948.38 210.33 Q1946.94 208.502 1944.07 208.502 Q1940.63 208.502 1938.63 210.701 Q1936.64 212.9 1936.64 216.696 L1936.64 231.349 L1932.36 231.349 L1932.36 205.423 L1936.64 205.423 L1936.64 209.451 Q1938.17 207.113 1940.23 205.955 Q1942.32 204.798 1945.02 204.798 Q1949.49 204.798 1951.78 207.576 Q1954.07 210.33 1954.07 215.701 Z" fill="#000000" fill-rule="evenodd" fill-opacity="1" /><path clip-path="url(#clip940)" d="M 0 0 M1990.76 195.33 L1990.76 198.872 L1986.69 198.872 Q1984.4 198.872 1983.5 199.798 Q1982.62 200.724 1982.62 203.131 L1982.62 205.423 L1989.63 205.423 L1989.63 208.733 L1982.62 208.733 L1982.62 231.349 L1978.33 231.349 L1978.33 208.733 L1974.26 208.733 L1974.26 205.423 L1978.33 205.423 L1978.33 203.617 Q1978.33 199.289 1980.35 197.321 Q1982.36 195.33 1986.74 195.33 L1990.76 195.33 Z" fill="#000000" fill-rule="evenodd" fill-opacity="1" /><path clip-path="url(#clip940)" d="M 0 0 M1994.33 205.423 L1998.59 205.423 L1998.59 231.349 L1994.33 231.349 L1994.33 205.423 M1994.33 195.33 L1998.59 195.33 L1998.59 200.724 L1994.33 200.724 L1994.33 195.33 Z" fill="#000000" fill-rule="evenodd" fill-opacity="1" /><path clip-path="url(#clip940)" d="M 0 0 M2011.71 198.062 L2011.71 205.423 L2020.49 205.423 L2020.49 208.733 L2011.71 208.733 L2011.71 222.807 Q2011.71 225.978 2012.57 226.881 Q2013.45 227.784 2016.11 227.784 L2020.49 227.784 L2020.49 231.349 L2016.11 231.349 Q2011.18 231.349 2009.31 229.52 Q2007.43 227.668 2007.43 222.807 L2007.43 208.733 L2004.31 208.733 L2004.31 205.423 L2007.43 205.423 L2007.43 198.062 L2011.71 198.062 Z" fill="#000000" fill-rule="evenodd" fill-opacity="1" /><polyline clip-path="url(#clip940)" style="stroke:#3da44d; stroke-width:4; stroke-opacity:1; fill:none" points="
  1583.93,274.549 1726.16,274.549 
  "/>
<path clip-path="url(#clip940)" d="M 0 0 M1771.58 276.181 L1771.58 291.829 L1767.32 291.829 L1767.32 276.319 Q1767.32 272.639 1765.88 270.81 Q1764.45 268.982 1761.58 268.982 Q1758.13 268.982 1756.14 271.181 Q1754.15 273.38 1754.15 277.176 L1754.15 291.829 L1749.86 291.829 L1749.86 265.903 L1754.15 265.903 L1754.15 269.931 Q1755.67 267.593 1757.73 266.435 Q1759.82 265.278 1762.52 265.278 Q1766.99 265.278 1769.28 268.056 Q1771.58 270.81 1771.58 276.181 Z" fill="#000000" fill-rule="evenodd" fill-opacity="1" /><path clip-path="url(#clip940)" d="M 0 0 M1802.25 277.801 L1802.25 279.884 L1782.66 279.884 Q1782.94 284.282 1785.3 286.597 Q1787.69 288.889 1791.92 288.889 Q1794.38 288.889 1796.67 288.287 Q1798.98 287.685 1801.25 286.481 L1801.25 290.509 Q1798.96 291.481 1796.55 291.991 Q1794.14 292.5 1791.67 292.5 Q1785.46 292.5 1781.83 288.889 Q1778.22 285.278 1778.22 279.12 Q1778.22 272.755 1781.64 269.028 Q1785.09 265.278 1790.93 265.278 Q1796.16 265.278 1799.19 268.657 Q1802.25 272.014 1802.25 277.801 M1797.99 276.551 Q1797.94 273.056 1796.02 270.972 Q1794.12 268.889 1790.97 268.889 Q1787.41 268.889 1785.26 270.903 Q1783.13 272.917 1782.8 276.574 L1797.99 276.551 Z" fill="#000000" fill-rule="evenodd" fill-opacity="1" /><path clip-path="url(#clip940)" d="M 0 0 M1826.3 278.565 Q1826.3 273.935 1824.38 271.389 Q1822.48 268.843 1819.03 268.843 Q1815.6 268.843 1813.68 271.389 Q1811.78 273.935 1811.78 278.565 Q1811.78 283.171 1813.68 285.718 Q1815.6 288.264 1819.03 288.264 Q1822.48 288.264 1824.38 285.718 Q1826.3 283.171 1826.3 278.565 M1830.56 288.611 Q1830.56 295.231 1827.62 298.449 Q1824.68 301.69 1818.61 301.69 Q1816.37 301.69 1814.38 301.342 Q1812.39 301.018 1810.51 300.324 L1810.51 296.18 Q1812.39 297.199 1814.21 297.685 Q1816.04 298.171 1817.94 298.171 Q1822.13 298.171 1824.21 295.972 Q1826.3 293.796 1826.3 289.375 L1826.3 287.268 Q1824.98 289.56 1822.92 290.694 Q1820.86 291.829 1817.99 291.829 Q1813.22 291.829 1810.3 288.194 Q1807.39 284.56 1807.39 278.565 Q1807.39 272.546 1810.3 268.912 Q1813.22 265.278 1817.99 265.278 Q1820.86 265.278 1822.92 266.412 Q1824.98 267.546 1826.3 269.838 L1826.3 265.903 L1830.56 265.903 L1830.56 288.611 Z" fill="#000000" fill-rule="evenodd" fill-opacity="1" /><path clip-path="url(#clip940)" d="M 0 0 M1851.11 278.796 Q1845.95 278.796 1843.96 279.977 Q1841.97 281.157 1841.97 284.005 Q1841.97 286.273 1843.45 287.616 Q1844.95 288.935 1847.52 288.935 Q1851.07 288.935 1853.2 286.435 Q1855.35 283.912 1855.35 279.745 L1855.35 278.796 L1851.11 278.796 M1859.61 277.037 L1859.61 291.829 L1855.35 291.829 L1855.35 287.893 Q1853.89 290.255 1851.71 291.389 Q1849.54 292.5 1846.39 292.5 Q1842.41 292.5 1840.05 290.278 Q1837.71 288.032 1837.71 284.282 Q1837.71 279.907 1840.63 277.685 Q1843.57 275.463 1849.38 275.463 L1855.35 275.463 L1855.35 275.046 Q1855.35 272.107 1853.4 270.509 Q1851.48 268.889 1847.99 268.889 Q1845.76 268.889 1843.66 269.421 Q1841.55 269.954 1839.61 271.019 L1839.61 267.083 Q1841.95 266.181 1844.14 265.741 Q1846.34 265.278 1848.43 265.278 Q1854.05 265.278 1856.83 268.194 Q1859.61 271.111 1859.61 277.037 Z" fill="#000000" fill-rule="evenodd" fill-opacity="1" /><path clip-path="url(#clip940)" d="M 0 0 M1872.59 258.542 L1872.59 265.903 L1881.37 265.903 L1881.37 269.213 L1872.59 269.213 L1872.59 283.287 Q1872.59 286.458 1873.45 287.361 Q1874.33 288.264 1876.99 288.264 L1881.37 288.264 L1881.37 291.829 L1876.99 291.829 Q1872.06 291.829 1870.19 290 Q1868.31 288.148 1868.31 283.287 L1868.31 269.213 L1865.19 269.213 L1865.19 265.903 L1868.31 265.903 L1868.31 258.542 L1872.59 258.542 Z" fill="#000000" fill-rule="evenodd" fill-opacity="1" /><path clip-path="url(#clip940)" d="M 0 0 M1886.97 265.903 L1891.23 265.903 L1891.23 291.829 L1886.97 291.829 L1886.97 265.903 M1886.97 255.81 L1891.23 255.81 L1891.23 261.204 L1886.97 261.204 L1886.97 255.81 Z" fill="#000000" fill-rule="evenodd" fill-opacity="1" /><path clip-path="url(#clip940)" d="M 0 0 M1897.08 265.903 L1901.6 265.903 L1909.7 287.662 L1917.8 265.903 L1922.32 265.903 L1912.59 291.829 L1906.81 291.829 L1897.08 265.903 Z" fill="#000000" fill-rule="evenodd" fill-opacity="1" /><path clip-path="url(#clip940)" d="M 0 0 M1950.37 277.801 L1950.37 279.884 L1930.79 279.884 Q1931.07 284.282 1933.43 286.597 Q1935.81 288.889 1940.05 288.889 Q1942.5 288.889 1944.79 288.287 Q1947.11 287.685 1949.38 286.481 L1949.38 290.509 Q1947.08 291.481 1944.68 291.991 Q1942.27 292.5 1939.79 292.5 Q1933.59 292.5 1929.95 288.889 Q1926.34 285.278 1926.34 279.12 Q1926.34 272.755 1929.77 269.028 Q1933.22 265.278 1939.05 265.278 Q1944.28 265.278 1947.32 268.657 Q1950.37 272.014 1950.37 277.801 M1946.11 276.551 Q1946.07 273.056 1944.14 270.972 Q1942.25 268.889 1939.1 268.889 Q1935.53 268.889 1933.38 270.903 Q1931.25 272.917 1930.93 276.574 L1946.11 276.551 Z" fill="#000000" fill-rule="evenodd" fill-opacity="1" /><path clip-path="url(#clip940)" d="M 0 0 M1991.04 278.889 Q1991.04 274.19 1989.1 271.528 Q1987.18 268.843 1983.8 268.843 Q1980.42 268.843 1978.47 271.528 Q1976.55 274.19 1976.55 278.889 Q1976.55 283.588 1978.47 286.273 Q1980.42 288.935 1983.8 288.935 Q1987.18 288.935 1989.1 286.273 Q1991.04 283.588 1991.04 278.889 M1976.55 269.838 Q1977.89 267.523 1979.93 266.412 Q1981.99 265.278 1984.84 265.278 Q1989.56 265.278 1992.5 269.028 Q1995.46 272.778 1995.46 278.889 Q1995.46 285 1992.5 288.75 Q1989.56 292.5 1984.84 292.5 Q1981.99 292.5 1979.93 291.389 Q1977.89 290.255 1976.55 287.94 L1976.55 291.829 L1972.27 291.829 L1972.27 255.81 L1976.55 255.81 L1976.55 269.838 Z" fill="#000000" fill-rule="evenodd" fill-opacity="1" /><path clip-path="url(#clip940)" d="M 0 0 M2002.52 265.903 L2006.78 265.903 L2006.78 291.829 L2002.52 291.829 L2002.52 265.903 M2002.52 255.81 L2006.78 255.81 L2006.78 261.204 L2002.52 261.204 L2002.52 255.81 Z" fill="#000000" fill-rule="evenodd" fill-opacity="1" /><path clip-path="url(#clip940)" d="M 0 0 M2037.25 276.181 L2037.25 291.829 L2032.99 291.829 L2032.99 276.319 Q2032.99 272.639 2031.55 270.81 Q2030.12 268.982 2027.25 268.982 Q2023.8 268.982 2021.81 271.181 Q2019.81 273.38 2019.81 277.176 L2019.81 291.829 L2015.53 291.829 L2015.53 265.903 L2019.81 265.903 L2019.81 269.931 Q2021.34 267.593 2023.4 266.435 Q2025.49 265.278 2028.19 265.278 Q2032.66 265.278 2034.95 268.056 Q2037.25 270.81 2037.25 276.181 Z" fill="#000000" fill-rule="evenodd" fill-opacity="1" /><path clip-path="url(#clip940)" d="M 0 0 M2055.79 268.889 Q2052.36 268.889 2050.37 271.574 Q2048.38 274.236 2048.38 278.889 Q2048.38 283.542 2050.35 286.227 Q2052.34 288.889 2055.79 288.889 Q2059.19 288.889 2061.18 286.204 Q2063.17 283.518 2063.17 278.889 Q2063.17 274.282 2061.18 271.597 Q2059.19 268.889 2055.79 268.889 M2055.79 265.278 Q2061.34 265.278 2064.51 268.889 Q2067.68 272.5 2067.68 278.889 Q2067.68 285.255 2064.51 288.889 Q2061.34 292.5 2055.79 292.5 Q2050.21 292.5 2047.04 288.889 Q2043.89 285.255 2043.89 278.889 Q2043.89 272.5 2047.04 268.889 Q2050.21 265.278 2055.79 265.278 Z" fill="#000000" fill-rule="evenodd" fill-opacity="1" /><path clip-path="url(#clip940)" d="M 0 0 M2094.93 270.88 Q2096.53 268.009 2098.75 266.644 Q2100.97 265.278 2103.98 265.278 Q2108.03 265.278 2110.23 268.125 Q2112.43 270.949 2112.43 276.181 L2112.43 291.829 L2108.15 291.829 L2108.15 276.319 Q2108.15 272.593 2106.83 270.787 Q2105.51 268.982 2102.8 268.982 Q2099.49 268.982 2097.57 271.181 Q2095.65 273.38 2095.65 277.176 L2095.65 291.829 L2091.37 291.829 L2091.37 276.319 Q2091.37 272.569 2090.05 270.787 Q2088.73 268.982 2085.97 268.982 Q2082.71 268.982 2080.79 271.204 Q2078.87 273.403 2078.87 277.176 L2078.87 291.829 L2074.58 291.829 L2074.58 265.903 L2078.87 265.903 L2078.87 269.931 Q2080.32 267.546 2082.36 266.412 Q2084.4 265.278 2087.2 265.278 Q2090.02 265.278 2091.99 266.713 Q2093.98 268.148 2094.93 270.88 Z" fill="#000000" fill-rule="evenodd" fill-opacity="1" /><path clip-path="url(#clip940)" d="M 0 0 M2120.93 265.903 L2125.18 265.903 L2125.18 291.829 L2120.93 291.829 L2120.93 265.903 M2120.93 255.81 L2125.18 255.81 L2125.18 261.204 L2120.93 261.204 L2120.93 255.81 Z" fill="#000000" fill-rule="evenodd" fill-opacity="1" /><path clip-path="url(#clip940)" d="M 0 0 M2145.88 278.796 Q2140.72 278.796 2138.73 279.977 Q2136.74 281.157 2136.74 284.005 Q2136.74 286.273 2138.22 287.616 Q2139.72 288.935 2142.29 288.935 Q2145.83 288.935 2147.96 286.435 Q2150.12 283.912 2150.12 279.745 L2150.12 278.796 L2145.88 278.796 M2154.37 277.037 L2154.37 291.829 L2150.12 291.829 L2150.12 287.893 Q2148.66 290.255 2146.48 291.389 Q2144.3 292.5 2141.16 292.5 Q2137.18 292.5 2134.81 290.278 Q2132.48 288.032 2132.48 284.282 Q2132.48 279.907 2135.39 277.685 Q2138.33 275.463 2144.14 275.463 L2150.12 275.463 L2150.12 275.046 Q2150.12 272.107 2148.17 270.509 Q2146.25 268.889 2142.75 268.889 Q2140.53 268.889 2138.43 269.421 Q2136.32 269.954 2134.37 271.019 L2134.37 267.083 Q2136.71 266.181 2138.91 265.741 Q2141.11 265.278 2143.19 265.278 Q2148.82 265.278 2151.6 268.194 Q2154.37 271.111 2154.37 277.037 Z" fill="#000000" fill-rule="evenodd" fill-opacity="1" /><path clip-path="url(#clip940)" d="M 0 0 M2163.15 255.81 L2167.41 255.81 L2167.41 291.829 L2163.15 291.829 L2163.15 255.81 Z" fill="#000000" fill-rule="evenodd" fill-opacity="1" /><path clip-path="url(#clip940)" d="M 0 0 M2204.51 255.81 L2204.51 259.352 L2200.44 259.352 Q2198.15 259.352 2197.24 260.278 Q2196.36 261.204 2196.36 263.611 L2196.36 265.903 L2203.38 265.903 L2203.38 269.213 L2196.36 269.213 L2196.36 291.829 L2192.08 291.829 L2192.08 269.213 L2188.01 269.213 L2188.01 265.903 L2192.08 265.903 L2192.08 264.097 Q2192.08 259.769 2194.1 257.801 Q2196.11 255.81 2200.49 255.81 L2204.51 255.81 Z" fill="#000000" fill-rule="evenodd" fill-opacity="1" /><path clip-path="url(#clip940)" d="M 0 0 M2208.08 265.903 L2212.34 265.903 L2212.34 291.829 L2208.08 291.829 L2208.08 265.903 M2208.08 255.81 L2212.34 255.81 L2212.34 261.204 L2208.08 261.204 L2208.08 255.81 Z" fill="#000000" fill-rule="evenodd" fill-opacity="1" /><path clip-path="url(#clip940)" d="M 0 0 M2225.46 258.542 L2225.46 265.903 L2234.24 265.903 L2234.24 269.213 L2225.46 269.213 L2225.46 283.287 Q2225.46 286.458 2226.32 287.361 Q2227.2 288.264 2229.86 288.264 L2234.24 288.264 L2234.24 291.829 L2229.86 291.829 Q2224.93 291.829 2223.05 290 Q2221.18 288.148 2221.18 283.287 L2221.18 269.213 L2218.05 269.213 L2218.05 265.903 L2221.18 265.903 L2221.18 258.542 L2225.46 258.542 Z" fill="#000000" fill-rule="evenodd" fill-opacity="1" /></svg>
