<?xml version="1.0" encoding="utf-8"?>
<svg xmlns="http://www.w3.org/2000/svg" xmlns:xlink="http://www.w3.org/1999/xlink" width="600" height="400" viewBox="0 0 2400 1600">
<defs>
  <clipPath id="clip970">
    <rect x="0" y="0" width="2400" height="1600"/>
  </clipPath>
</defs>
<path clip-path="url(#clip970)" d="
M0 1600 L2400 1600 L2400 0 L0 0  Z
  " fill="#ffffff" fill-rule="evenodd" fill-opacity="1"/>
<defs>
  <clipPath id="clip971">
    <rect x="480" y="0" width="1681" height="1600"/>
  </clipPath>
</defs>
<path clip-path="url(#clip970)" d="
M219.866 1423.18 L2352.76 1423.18 L2352.76 47.2441 L219.866 47.2441  Z
  " fill="#ffffff" fill-rule="evenodd" fill-opacity="1"/>
<defs>
  <clipPath id="clip972">
    <rect x="219" y="47" width="2134" height="1377"/>
  </clipPath>
</defs>
<polyline clip-path="url(#clip972)" style="stroke:#000000; stroke-width:2; stroke-opacity:0.1; fill:none" points="
  337.179,1423.18 337.179,47.2441 
  "/>
<polyline clip-path="url(#clip972)" style="stroke:#000000; stroke-width:2; stroke-opacity:0.1; fill:none" points="
  768.603,1423.18 768.603,47.2441 
  "/>
<polyline clip-path="url(#clip972)" style="stroke:#000000; stroke-width:2; stroke-opacity:0.1; fill:none" points="
  1200.03,1423.18 1200.03,47.2441 
  "/>
<polyline clip-path="url(#clip972)" style="stroke:#000000; stroke-width:2; stroke-opacity:0.1; fill:none" points="
  1631.45,1423.18 1631.45,47.2441 
  "/>
<polyline clip-path="url(#clip972)" style="stroke:#000000; stroke-width:2; stroke-opacity:0.1; fill:none" points="
  2062.87,1423.18 2062.87,47.2441 
  "/>
<polyline clip-path="url(#clip970)" style="stroke:#000000; stroke-width:4; stroke-opacity:1; fill:none" points="
  219.866,1423.18 2352.76,1423.18 
  "/>
<polyline clip-path="url(#clip970)" style="stroke:#000000; stroke-width:4; stroke-opacity:1; fill:none" points="
  337.179,1423.18 337.179,1406.67 
  "/>
<polyline clip-path="url(#clip970)" style="stroke:#000000; stroke-width:4; stroke-opacity:1; fill:none" points="
  768.603,1423.18 768.603,1406.67 
  "/>
<polyline clip-path="url(#clip970)" style="stroke:#000000; stroke-width:4; stroke-opacity:1; fill:none" points="
  1200.03,1423.18 1200.03,1406.67 
  "/>
<polyline clip-path="url(#clip970)" style="stroke:#000000; stroke-width:4; stroke-opacity:1; fill:none" points="
  1631.45,1423.18 1631.45,1406.67 
  "/>
<polyline clip-path="url(#clip970)" style="stroke:#000000; stroke-width:4; stroke-opacity:1; fill:none" points="
  2062.87,1423.18 2062.87,1406.67 
  "/>
<path clip-path="url(#clip970)" d="M 0 0 M337.179 1452.37 Q333.568 1452.37 331.739 1455.94 Q329.934 1459.48 329.934 1466.61 Q329.934 1473.71 331.739 1477.28 Q333.568 1480.82 337.179 1480.82 Q340.813 1480.82 342.619 1477.28 Q344.447 1473.71 344.447 1466.61 Q344.447 1459.48 342.619 1455.94 Q340.813 1452.37 337.179 1452.37 M337.179 1448.67 Q342.989 1448.67 346.045 1453.27 Q349.123 1457.86 349.123 1466.61 Q349.123 1475.33 346.045 1479.94 Q342.989 1484.52 337.179 1484.52 Q331.369 1484.52 328.29 1479.94 Q325.235 1475.33 325.235 1466.61 Q325.235 1457.86 328.29 1453.27 Q331.369 1448.67 337.179 1448.67 Z" fill="#000000" fill-rule="evenodd" fill-opacity="1" /><path clip-path="url(#clip970)" d="M 0 0 M758.881 1449.29 L777.237 1449.29 L777.237 1453.23 L763.163 1453.23 L763.163 1461.7 Q764.181 1461.35 765.2 1461.19 Q766.218 1461 767.237 1461 Q773.024 1461 776.404 1464.18 Q779.783 1467.35 779.783 1472.76 Q779.783 1478.34 776.311 1481.44 Q772.839 1484.52 766.519 1484.52 Q764.343 1484.52 762.075 1484.15 Q759.83 1483.78 757.422 1483.04 L757.422 1478.34 Q759.505 1479.48 761.728 1480.03 Q763.95 1480.59 766.427 1480.59 Q770.431 1480.59 772.769 1478.48 Q775.107 1476.38 775.107 1472.76 Q775.107 1469.15 772.769 1467.05 Q770.431 1464.94 766.427 1464.94 Q764.552 1464.94 762.677 1465.36 Q760.825 1465.77 758.881 1466.65 L758.881 1449.29 Z" fill="#000000" fill-rule="evenodd" fill-opacity="1" /><path clip-path="url(#clip970)" d="M 0 0 M1174.71 1479.92 L1182.35 1479.92 L1182.35 1453.55 L1174.04 1455.22 L1174.04 1450.96 L1182.31 1449.29 L1186.98 1449.29 L1186.98 1479.92 L1194.62 1479.92 L1194.62 1483.85 L1174.71 1483.85 L1174.71 1479.92 Z" fill="#000000" fill-rule="evenodd" fill-opacity="1" /><path clip-path="url(#clip970)" d="M 0 0 M1214.07 1452.37 Q1210.45 1452.37 1208.63 1455.94 Q1206.82 1459.48 1206.82 1466.61 Q1206.82 1473.71 1208.63 1477.28 Q1210.45 1480.82 1214.07 1480.82 Q1217.7 1480.82 1219.51 1477.28 Q1221.33 1473.71 1221.33 1466.61 Q1221.33 1459.48 1219.51 1455.94 Q1217.7 1452.37 1214.07 1452.37 M1214.07 1448.67 Q1219.88 1448.67 1222.93 1453.27 Q1226.01 1457.86 1226.01 1466.61 Q1226.01 1475.33 1222.93 1479.94 Q1219.88 1484.52 1214.07 1484.52 Q1208.26 1484.52 1205.18 1479.94 Q1202.12 1475.33 1202.12 1466.61 Q1202.12 1457.86 1205.18 1453.27 Q1208.26 1448.67 1214.07 1448.67 Z" fill="#000000" fill-rule="evenodd" fill-opacity="1" /><path clip-path="url(#clip970)" d="M 0 0 M1606.64 1479.92 L1614.27 1479.92 L1614.27 1453.55 L1605.96 1455.22 L1605.96 1450.96 L1614.23 1449.29 L1618.9 1449.29 L1618.9 1479.92 L1626.54 1479.92 L1626.54 1483.85 L1606.64 1483.85 L1606.64 1479.92 Z" fill="#000000" fill-rule="evenodd" fill-opacity="1" /><path clip-path="url(#clip970)" d="M 0 0 M1636.03 1449.29 L1654.39 1449.29 L1654.39 1453.23 L1640.32 1453.23 L1640.32 1461.7 Q1641.33 1461.35 1642.35 1461.19 Q1643.37 1461 1644.39 1461 Q1650.18 1461 1653.56 1464.18 Q1656.94 1467.35 1656.94 1472.76 Q1656.94 1478.34 1653.46 1481.44 Q1649.99 1484.52 1643.67 1484.52 Q1641.5 1484.52 1639.23 1484.15 Q1636.98 1483.78 1634.58 1483.04 L1634.58 1478.34 Q1636.66 1479.48 1638.88 1480.03 Q1641.1 1480.59 1643.58 1480.59 Q1647.58 1480.59 1649.92 1478.48 Q1652.26 1476.38 1652.26 1472.76 Q1652.26 1469.15 1649.92 1467.05 Q1647.58 1464.94 1643.58 1464.94 Q1641.7 1464.94 1639.83 1465.36 Q1637.98 1465.77 1636.03 1466.65 L1636.03 1449.29 Z" fill="#000000" fill-rule="evenodd" fill-opacity="1" /><path clip-path="url(#clip970)" d="M 0 0 M2041.65 1479.92 L2057.97 1479.92 L2057.97 1483.85 L2036.02 1483.85 L2036.02 1479.92 Q2038.68 1477.16 2043.27 1472.53 Q2047.87 1467.88 2049.05 1466.54 Q2051.3 1464.01 2052.18 1462.28 Q2053.08 1460.52 2053.08 1458.83 Q2053.08 1456.07 2051.14 1454.34 Q2049.22 1452.6 2046.11 1452.6 Q2043.92 1452.6 2041.46 1453.37 Q2039.03 1454.13 2036.25 1455.68 L2036.25 1450.96 Q2039.08 1449.82 2041.53 1449.25 Q2043.98 1448.67 2046.02 1448.67 Q2051.39 1448.67 2054.59 1451.35 Q2057.78 1454.04 2057.78 1458.53 Q2057.78 1460.66 2056.97 1462.58 Q2056.18 1464.48 2054.08 1467.07 Q2053.5 1467.74 2050.4 1470.96 Q2047.3 1474.15 2041.65 1479.92 Z" fill="#000000" fill-rule="evenodd" fill-opacity="1" /><path clip-path="url(#clip970)" d="M 0 0 M2077.78 1452.37 Q2074.17 1452.37 2072.34 1455.94 Q2070.54 1459.48 2070.54 1466.61 Q2070.54 1473.71 2072.34 1477.28 Q2074.17 1480.82 2077.78 1480.82 Q2081.42 1480.82 2083.22 1477.28 Q2085.05 1473.71 2085.05 1466.61 Q2085.05 1459.48 2083.22 1455.94 Q2081.42 1452.37 2077.78 1452.37 M2077.78 1448.67 Q2083.59 1448.67 2086.65 1453.27 Q2089.73 1457.86 2089.73 1466.61 Q2089.73 1475.33 2086.65 1479.94 Q2083.59 1484.52 2077.78 1484.52 Q2071.97 1484.52 2068.89 1479.94 Q2065.84 1475.33 2065.84 1466.61 Q2065.84 1457.86 2068.89 1453.27 Q2071.97 1448.67 2077.78 1448.67 Z" fill="#000000" fill-rule="evenodd" fill-opacity="1" /><path clip-path="url(#clip970)" d="M 0 0 M1276.25 1562.7 L1276.25 1581.6 L1270.36 1581.6 L1270.36 1532.4 L1276.25 1532.4 L1276.25 1537.81 Q1278.1 1534.62 1280.9 1533.1 Q1283.73 1531.54 1287.65 1531.54 Q1294.14 1531.54 1298.18 1536.69 Q1302.26 1541.85 1302.26 1550.25 Q1302.26 1558.65 1298.18 1563.81 Q1294.14 1568.97 1287.65 1568.97 Q1283.73 1568.97 1280.9 1567.44 Q1278.1 1565.88 1276.25 1562.7 M1296.18 1550.25 Q1296.18 1543.79 1293.5 1540.13 Q1290.86 1536.44 1286.22 1536.44 Q1281.57 1536.44 1278.9 1540.13 Q1276.25 1543.79 1276.25 1550.25 Q1276.25 1556.71 1278.9 1560.4 Q1281.57 1564.07 1286.22 1564.07 Q1290.86 1564.07 1293.5 1560.4 Q1296.18 1556.71 1296.18 1550.25 Z" fill="#000000" fill-rule="evenodd" fill-opacity="1" /><polyline clip-path="url(#clip972)" style="stroke:#000000; stroke-width:2; stroke-opacity:0.1; fill:none" points="
  219.866,1384.24 2352.76,1384.24 
  "/>
<polyline clip-path="url(#clip972)" style="stroke:#000000; stroke-width:2; stroke-opacity:0.1; fill:none" points="
  219.866,1133.53 2352.76,1133.53 
  "/>
<polyline clip-path="url(#clip972)" style="stroke:#000000; stroke-width:2; stroke-opacity:0.1; fill:none" points="
  219.866,882.812 2352.76,882.812 
  "/>
<polyline clip-path="url(#clip972)" style="stroke:#000000; stroke-width:2; stroke-opacity:0.1; fill:none" points="
  219.866,632.099 2352.76,632.099 
  "/>
<polyline clip-path="url(#clip972)" style="stroke:#000000; stroke-width:2; stroke-opacity:0.1; fill:none" points="
  219.866,381.386 2352.76,381.386 
  "/>
<polyline clip-path="url(#clip972)" style="stroke:#000000; stroke-width:2; stroke-opacity:0.1; fill:none" points="
  219.866,130.673 2352.76,130.673 
  "/>
<polyline clip-path="url(#clip970)" style="stroke:#000000; stroke-width:4; stroke-opacity:1; fill:none" points="
  219.866,1423.18 219.866,47.2441 
  "/>
<polyline clip-path="url(#clip970)" style="stroke:#000000; stroke-width:4; stroke-opacity:1; fill:none" points="
  219.866,1384.24 245.461,1384.24 
  "/>
<polyline clip-path="url(#clip970)" style="stroke:#000000; stroke-width:4; stroke-opacity:1; fill:none" points="
  219.866,1133.53 245.461,1133.53 
  "/>
<polyline clip-path="url(#clip970)" style="stroke:#000000; stroke-width:4; stroke-opacity:1; fill:none" points="
  219.866,882.812 245.461,882.812 
  "/>
<polyline clip-path="url(#clip970)" style="stroke:#000000; stroke-width:4; stroke-opacity:1; fill:none" points="
  219.866,632.099 245.461,632.099 
  "/>
<polyline clip-path="url(#clip970)" style="stroke:#000000; stroke-width:4; stroke-opacity:1; fill:none" points="
  219.866,381.386 245.461,381.386 
  "/>
<polyline clip-path="url(#clip970)" style="stroke:#000000; stroke-width:4; stroke-opacity:1; fill:none" points="
  219.866,130.673 245.461,130.673 
  "/>
<path clip-path="url(#clip970)" d="M 0 0 M126.691 1370.04 Q123.08 1370.04 121.251 1373.6 Q119.445 1377.14 119.445 1384.27 Q119.445 1391.38 121.251 1394.94 Q123.08 1398.49 126.691 1398.49 Q130.325 1398.49 132.13 1394.94 Q133.959 1391.38 133.959 1384.27 Q133.959 1377.14 132.13 1373.6 Q130.325 1370.04 126.691 1370.04 M126.691 1366.33 Q132.501 1366.33 135.556 1370.94 Q138.635 1375.52 138.635 1384.27 Q138.635 1393 135.556 1397.61 Q132.501 1402.19 126.691 1402.19 Q120.88 1402.19 117.802 1397.61 Q114.746 1393 114.746 1384.27 Q114.746 1375.52 117.802 1370.94 Q120.88 1366.33 126.691 1366.33 Z" fill="#000000" fill-rule="evenodd" fill-opacity="1" /><path clip-path="url(#clip970)" d="M 0 0 M146.853 1395.64 L151.737 1395.64 L151.737 1401.52 L146.853 1401.52 L146.853 1395.64 Z" fill="#000000" fill-rule="evenodd" fill-opacity="1" /><path clip-path="url(#clip970)" d="M 0 0 M171.922 1370.04 Q168.311 1370.04 166.482 1373.6 Q164.677 1377.14 164.677 1384.27 Q164.677 1391.38 166.482 1394.94 Q168.311 1398.49 171.922 1398.49 Q175.556 1398.49 177.362 1394.94 Q179.19 1391.38 179.19 1384.27 Q179.19 1377.14 177.362 1373.6 Q175.556 1370.04 171.922 1370.04 M171.922 1366.33 Q177.732 1366.33 180.788 1370.94 Q183.866 1375.52 183.866 1384.27 Q183.866 1393 180.788 1397.61 Q177.732 1402.19 171.922 1402.19 Q166.112 1402.19 163.033 1397.61 Q159.978 1393 159.978 1384.27 Q159.978 1375.52 163.033 1370.94 Q166.112 1366.33 171.922 1366.33 Z" fill="#000000" fill-rule="evenodd" fill-opacity="1" /><path clip-path="url(#clip970)" d="M 0 0 M127.917 1119.32 Q124.306 1119.32 122.478 1122.89 Q120.672 1126.43 120.672 1133.56 Q120.672 1140.67 122.478 1144.23 Q124.306 1147.77 127.917 1147.77 Q131.552 1147.77 133.357 1144.23 Q135.186 1140.67 135.186 1133.56 Q135.186 1126.43 133.357 1122.89 Q131.552 1119.32 127.917 1119.32 M127.917 1115.62 Q133.728 1115.62 136.783 1120.23 Q139.862 1124.81 139.862 1133.56 Q139.862 1142.29 136.783 1146.89 Q133.728 1151.48 127.917 1151.48 Q122.107 1151.48 119.029 1146.89 Q115.973 1142.29 115.973 1133.56 Q115.973 1124.81 119.029 1120.23 Q122.107 1115.62 127.917 1115.62 Z" fill="#000000" fill-rule="evenodd" fill-opacity="1" /><path clip-path="url(#clip970)" d="M 0 0 M148.079 1144.93 L152.964 1144.93 L152.964 1150.81 L148.079 1150.81 L148.079 1144.93 Z" fill="#000000" fill-rule="evenodd" fill-opacity="1" /><path clip-path="url(#clip970)" d="M 0 0 M163.959 1146.87 L171.598 1146.87 L171.598 1120.5 L163.288 1122.17 L163.288 1117.91 L171.552 1116.25 L176.227 1116.25 L176.227 1146.87 L183.866 1146.87 L183.866 1150.81 L163.959 1150.81 L163.959 1146.87 Z" fill="#000000" fill-rule="evenodd" fill-opacity="1" /><path clip-path="url(#clip970)" d="M 0 0 M128.288 868.611 Q124.677 868.611 122.848 872.176 Q121.043 875.717 121.043 882.847 Q121.043 889.953 122.848 893.518 Q124.677 897.06 128.288 897.06 Q131.922 897.06 133.728 893.518 Q135.556 889.953 135.556 882.847 Q135.556 875.717 133.728 872.176 Q131.922 868.611 128.288 868.611 M128.288 864.907 Q134.098 864.907 137.154 869.514 Q140.232 874.097 140.232 882.847 Q140.232 891.574 137.154 896.18 Q134.098 900.763 128.288 900.763 Q122.478 900.763 119.399 896.18 Q116.343 891.574 116.343 882.847 Q116.343 874.097 119.399 869.514 Q122.478 864.907 128.288 864.907 Z" fill="#000000" fill-rule="evenodd" fill-opacity="1" /><path clip-path="url(#clip970)" d="M 0 0 M148.45 894.212 L153.334 894.212 L153.334 900.092 L148.45 900.092 L148.45 894.212 Z" fill="#000000" fill-rule="evenodd" fill-opacity="1" /><path clip-path="url(#clip970)" d="M 0 0 M167.547 896.157 L183.866 896.157 L183.866 900.092 L161.922 900.092 L161.922 896.157 Q164.584 893.402 169.167 888.773 Q173.774 884.12 174.954 882.777 Q177.2 880.254 178.079 878.518 Q178.982 876.759 178.982 875.069 Q178.982 872.314 177.038 870.578 Q175.116 868.842 172.014 868.842 Q169.815 868.842 167.362 869.606 Q164.931 870.37 162.153 871.921 L162.153 867.199 Q164.977 866.064 167.431 865.486 Q169.885 864.907 171.922 864.907 Q177.292 864.907 180.487 867.592 Q183.681 870.277 183.681 874.768 Q183.681 876.898 182.871 878.819 Q182.084 880.717 179.977 883.31 Q179.399 883.981 176.297 887.199 Q173.195 890.393 167.547 896.157 Z" fill="#000000" fill-rule="evenodd" fill-opacity="1" /><path clip-path="url(#clip970)" d="M 0 0 M127.339 617.898 Q123.728 617.898 121.899 621.462 Q120.093 625.004 120.093 632.134 Q120.093 639.24 121.899 642.805 Q123.728 646.347 127.339 646.347 Q130.973 646.347 132.779 642.805 Q134.607 639.24 134.607 632.134 Q134.607 625.004 132.779 621.462 Q130.973 617.898 127.339 617.898 M127.339 614.194 Q133.149 614.194 136.204 618.8 Q139.283 623.384 139.283 632.134 Q139.283 640.86 136.204 645.467 Q133.149 650.05 127.339 650.05 Q121.529 650.05 118.45 645.467 Q115.394 640.86 115.394 632.134 Q115.394 623.384 118.45 618.8 Q121.529 614.194 127.339 614.194 Z" fill="#000000" fill-rule="evenodd" fill-opacity="1" /><path clip-path="url(#clip970)" d="M 0 0 M147.501 643.499 L152.385 643.499 L152.385 649.379 L147.501 649.379 L147.501 643.499 Z" fill="#000000" fill-rule="evenodd" fill-opacity="1" /><path clip-path="url(#clip970)" d="M 0 0 M176.737 630.745 Q180.093 631.462 181.968 633.731 Q183.866 635.999 183.866 639.333 Q183.866 644.448 180.348 647.249 Q176.829 650.05 170.348 650.05 Q168.172 650.05 165.857 649.61 Q163.565 649.194 161.112 648.337 L161.112 643.823 Q163.056 644.958 165.371 645.536 Q167.686 646.115 170.209 646.115 Q174.607 646.115 176.899 644.379 Q179.214 642.643 179.214 639.333 Q179.214 636.277 177.061 634.564 Q174.931 632.828 171.112 632.828 L167.084 632.828 L167.084 628.986 L171.297 628.986 Q174.746 628.986 176.575 627.62 Q178.403 626.231 178.403 623.638 Q178.403 620.976 176.505 619.564 Q174.63 618.129 171.112 618.129 Q169.19 618.129 166.991 618.546 Q164.792 618.962 162.153 619.842 L162.153 615.675 Q164.815 614.935 167.13 614.564 Q169.468 614.194 171.528 614.194 Q176.852 614.194 179.954 616.625 Q183.056 619.032 183.056 623.152 Q183.056 626.023 181.413 628.013 Q179.769 629.981 176.737 630.745 Z" fill="#000000" fill-rule="evenodd" fill-opacity="1" /><path clip-path="url(#clip970)" d="M 0 0 M126.205 367.185 Q122.593 367.185 120.765 370.749 Q118.959 374.291 118.959 381.421 Q118.959 388.527 120.765 392.092 Q122.593 395.633 126.205 395.633 Q129.839 395.633 131.644 392.092 Q133.473 388.527 133.473 381.421 Q133.473 374.291 131.644 370.749 Q129.839 367.185 126.205 367.185 M126.205 363.481 Q132.015 363.481 135.07 368.087 Q138.149 372.671 138.149 381.421 Q138.149 390.147 135.07 394.754 Q132.015 399.337 126.205 399.337 Q120.394 399.337 117.316 394.754 Q114.26 390.147 114.26 381.421 Q114.26 372.671 117.316 368.087 Q120.394 363.481 126.205 363.481 Z" fill="#000000" fill-rule="evenodd" fill-opacity="1" /><path clip-path="url(#clip970)" d="M 0 0 M146.366 392.786 L151.251 392.786 L151.251 398.666 L146.366 398.666 L146.366 392.786 Z" fill="#000000" fill-rule="evenodd" fill-opacity="1" /><path clip-path="url(#clip970)" d="M 0 0 M174.283 368.18 L162.477 386.629 L174.283 386.629 L174.283 368.18 M173.056 364.106 L178.936 364.106 L178.936 386.629 L183.866 386.629 L183.866 390.518 L178.936 390.518 L178.936 398.666 L174.283 398.666 L174.283 390.518 L158.681 390.518 L158.681 386.004 L173.056 364.106 Z" fill="#000000" fill-rule="evenodd" fill-opacity="1" /><path clip-path="url(#clip970)" d="M 0 0 M127.686 116.471 Q124.075 116.471 122.246 120.036 Q120.441 123.578 120.441 130.707 Q120.441 137.814 122.246 141.379 Q124.075 144.92 127.686 144.92 Q131.32 144.92 133.126 141.379 Q134.954 137.814 134.954 130.707 Q134.954 123.578 133.126 120.036 Q131.32 116.471 127.686 116.471 M127.686 112.768 Q133.496 112.768 136.552 117.374 Q139.63 121.958 139.63 130.707 Q139.63 139.434 136.552 144.041 Q133.496 148.624 127.686 148.624 Q121.876 148.624 118.797 144.041 Q115.742 139.434 115.742 130.707 Q115.742 121.958 118.797 117.374 Q121.876 112.768 127.686 112.768 Z" fill="#000000" fill-rule="evenodd" fill-opacity="1" /><path clip-path="url(#clip970)" d="M 0 0 M147.848 142.073 L152.732 142.073 L152.732 147.953 L147.848 147.953 L147.848 142.073 Z" fill="#000000" fill-rule="evenodd" fill-opacity="1" /><path clip-path="url(#clip970)" d="M 0 0 M162.964 113.393 L181.32 113.393 L181.32 117.328 L167.246 117.328 L167.246 125.8 Q168.264 125.453 169.283 125.291 Q170.302 125.106 171.32 125.106 Q177.107 125.106 180.487 128.277 Q183.866 131.448 183.866 136.865 Q183.866 142.444 180.394 145.545 Q176.922 148.624 170.602 148.624 Q168.427 148.624 166.158 148.254 Q163.913 147.883 161.505 147.143 L161.505 142.444 Q163.589 143.578 165.811 144.133 Q168.033 144.689 170.51 144.689 Q174.514 144.689 176.852 142.582 Q179.19 140.476 179.19 136.865 Q179.19 133.254 176.852 131.147 Q174.514 129.041 170.51 129.041 Q168.635 129.041 166.76 129.457 Q164.908 129.874 162.964 130.754 L162.964 113.393 Z" fill="#000000" fill-rule="evenodd" fill-opacity="1" /><path clip-path="url(#clip970)" d="M 0 0 M21.7677 788.557 L39.6235 788.557 L39.6235 780.472 Q39.6235 775.984 37.3 773.534 Q34.9765 771.083 30.6797 771.083 Q26.4147 771.083 24.0912 773.534 Q21.7677 775.984 21.7677 780.472 L21.7677 788.557 M16.4842 794.986 L16.4842 780.472 Q16.4842 772.483 20.1126 768.409 Q23.7092 764.303 30.6797 764.303 Q37.7138 764.303 41.3104 768.409 Q44.907 772.483 44.907 780.472 L44.907 788.557 L64.0042 788.557 L64.0042 794.986 L16.4842 794.986 Z" fill="#000000" fill-rule="evenodd" fill-opacity="1" /><path clip-path="url(#clip970)" d="M 0 0 M14.5426 741.864 Q21.8632 746.129 29.0246 748.198 Q36.186 750.267 43.5384 750.267 Q50.8908 750.267 58.1159 748.198 Q65.3091 746.097 72.5979 741.864 L72.5979 746.957 Q65.1182 751.731 57.8931 754.118 Q50.668 756.473 43.5384 756.473 Q36.4406 756.473 29.2474 754.118 Q22.0542 751.763 14.5426 746.957 L14.5426 741.864 Z" fill="#000000" fill-rule="evenodd" fill-opacity="1" /><path clip-path="url(#clip970)" d="M 0 0 M58.657 724.836 L77.5631 724.836 L77.5631 730.724 L28.3562 730.724 L28.3562 724.836 L33.7671 724.836 Q30.5842 722.99 29.0564 720.189 Q27.4968 717.356 27.4968 713.441 Q27.4968 706.948 32.6531 702.906 Q37.8093 698.832 46.212 698.832 Q54.6147 698.832 59.771 702.906 Q64.9272 706.948 64.9272 713.441 Q64.9272 717.356 63.3994 720.189 Q61.8398 722.99 58.657 724.836 M46.212 704.911 Q39.7508 704.911 36.0905 707.585 Q32.3984 710.227 32.3984 714.874 Q32.3984 719.521 36.0905 722.194 Q39.7508 724.836 46.212 724.836 Q52.6732 724.836 56.3653 722.194 Q60.0256 719.521 60.0256 714.874 Q60.0256 710.227 56.3653 707.585 Q52.6732 704.911 46.212 704.911 Z" fill="#000000" fill-rule="evenodd" fill-opacity="1" /><path clip-path="url(#clip970)" d="M 0 0 M14.5426 690.047 L14.5426 684.955 Q22.0542 680.18 29.2474 677.825 Q36.4406 675.438 43.5384 675.438 Q50.668 675.438 57.8931 677.825 Q65.1182 680.18 72.5979 684.955 L72.5979 690.047 Q65.3091 685.814 58.1159 683.745 Q50.8908 681.645 43.5384 681.645 Q36.186 681.645 29.0246 683.745 Q21.8632 685.814 14.5426 690.047 Z" fill="#000000" fill-rule="evenodd" fill-opacity="1" /><path clip-path="url(#clip972)" d="
M337.179 86.1857 L337.179 1384.24 L423.464 1384.24 L423.464 86.1857 L337.179 86.1857 L337.179 86.1857  Z
  " fill="#009af9" fill-rule="evenodd" fill-opacity="1"/>
<polyline clip-path="url(#clip972)" style="stroke:#009af9; stroke-width:4; stroke-opacity:1; fill:none" points="
  337.179,86.1857 337.179,1384.24 423.464,1384.24 423.464,86.1857 337.179,86.1857 
  "/>
<path clip-path="url(#clip972)" d="
M423.464 755.104 L423.464 1384.24 L509.748 1384.24 L509.748 755.104 L423.464 755.104 L423.464 755.104  Z
  " fill="#009af9" fill-rule="evenodd" fill-opacity="1"/>
<polyline clip-path="url(#clip972)" style="stroke:#009af9; stroke-width:4; stroke-opacity:1; fill:none" points="
  423.464,755.104 423.464,1384.24 509.748,1384.24 509.748,755.104 423.464,755.104 
  "/>
<path clip-path="url(#clip972)" d="
M509.748 1086.96 L509.748 1384.24 L596.033 1384.24 L596.033 1086.96 L509.748 1086.96 L509.748 1086.96  Z
  " fill="#009af9" fill-rule="evenodd" fill-opacity="1"/>
<polyline clip-path="url(#clip972)" style="stroke:#009af9; stroke-width:4; stroke-opacity:1; fill:none" points="
  509.748,1086.96 509.748,1384.24 596.033,1384.24 596.033,1086.96 509.748,1086.96 
  "/>
<path clip-path="url(#clip972)" d="
M596.033 1240.38 L596.033 1384.24 L682.318 1384.24 L682.318 1240.38 L596.033 1240.38 L596.033 1240.38  Z
  " fill="#009af9" fill-rule="evenodd" fill-opacity="1"/>
<polyline clip-path="url(#clip972)" style="stroke:#009af9; stroke-width:4; stroke-opacity:1; fill:none" points="
  596.033,1240.38 596.033,1384.24 682.318,1384.24 682.318,1240.38 596.033,1240.38 
  "/>
<path clip-path="url(#clip972)" d="
M682.318 1315.45 L682.318 1384.24 L768.603 1384.24 L768.603 1315.45 L682.318 1315.45 L682.318 1315.45  Z
  " fill="#009af9" fill-rule="evenodd" fill-opacity="1"/>
<polyline clip-path="url(#clip972)" style="stroke:#009af9; stroke-width:4; stroke-opacity:1; fill:none" points="
  682.318,1315.45 682.318,1384.24 768.603,1384.24 768.603,1315.45 682.318,1315.45 
  "/>
<path clip-path="url(#clip972)" d="
M768.603 1349.58 L768.603 1384.24 L854.887 1384.24 L854.887 1349.58 L768.603 1349.58 L768.603 1349.58  Z
  " fill="#009af9" fill-rule="evenodd" fill-opacity="1"/>
<polyline clip-path="url(#clip972)" style="stroke:#009af9; stroke-width:4; stroke-opacity:1; fill:none" points="
  768.603,1349.58 768.603,1384.24 854.887,1384.24 854.887,1349.58 768.603,1349.58 
  "/>
<path clip-path="url(#clip972)" d="
M854.887 1366.38 L854.887 1384.24 L941.172 1384.24 L941.172 1366.38 L854.887 1366.38 L854.887 1366.38  Z
  " fill="#009af9" fill-rule="evenodd" fill-opacity="1"/>
<polyline clip-path="url(#clip972)" style="stroke:#009af9; stroke-width:4; stroke-opacity:1; fill:none" points="
  854.887,1366.38 854.887,1384.24 941.172,1384.24 941.172,1366.38 854.887,1366.38 
  "/>
<path clip-path="url(#clip972)" d="
M941.172 1375.95 L941.172 1384.24 L1027.46 1384.24 L1027.46 1375.95 L941.172 1375.95 L941.172 1375.95  Z
  " fill="#009af9" fill-rule="evenodd" fill-opacity="1"/>
<polyline clip-path="url(#clip972)" style="stroke:#009af9; stroke-width:4; stroke-opacity:1; fill:none" points="
  941.172,1375.95 941.172,1384.24 1027.46,1384.24 1027.46,1375.95 941.172,1375.95 
  "/>
<path clip-path="url(#clip972)" d="
M1027.46 1379.55 L1027.46 1384.24 L1113.74 1384.24 L1113.74 1379.55 L1027.46 1379.55 L1027.46 1379.55  Z
  " fill="#009af9" fill-rule="evenodd" fill-opacity="1"/>
<polyline clip-path="url(#clip972)" style="stroke:#009af9; stroke-width:4; stroke-opacity:1; fill:none" points="
  1027.46,1379.55 1027.46,1384.24 1113.74,1384.24 1113.74,1379.55 1027.46,1379.55 
  "/>
<path clip-path="url(#clip972)" d="
M1113.74 1382.15 L1113.74 1384.24 L1200.03 1384.24 L1200.03 1382.15 L1113.74 1382.15 L1113.74 1382.15  Z
  " fill="#009af9" fill-rule="evenodd" fill-opacity="1"/>
<polyline clip-path="url(#clip972)" style="stroke:#009af9; stroke-width:4; stroke-opacity:1; fill:none" points="
  1113.74,1382.15 1113.74,1384.24 1200.03,1384.24 1200.03,1382.15 1113.74,1382.15 
  "/>
<path clip-path="url(#clip972)" d="
M1200.03 1383.1 L1200.03 1384.24 L1286.31 1384.24 L1286.31 1383.1 L1200.03 1383.1 L1200.03 1383.1  Z
  " fill="#009af9" fill-rule="evenodd" fill-opacity="1"/>
<polyline clip-path="url(#clip972)" style="stroke:#009af9; stroke-width:4; stroke-opacity:1; fill:none" points="
  1200.03,1383.1 1200.03,1384.24 1286.31,1384.24 1286.31,1383.1 1200.03,1383.1 
  "/>
<path clip-path="url(#clip972)" d="
M1286.31 1383.75 L1286.31 1384.24 L1372.6 1384.24 L1372.6 1383.75 L1286.31 1383.75 L1286.31 1383.75  Z
  " fill="#009af9" fill-rule="evenodd" fill-opacity="1"/>
<polyline clip-path="url(#clip972)" style="stroke:#009af9; stroke-width:4; stroke-opacity:1; fill:none" points="
  1286.31,1383.75 1286.31,1384.24 1372.6,1384.24 1372.6,1383.75 1286.31,1383.75 
  "/>
<path clip-path="url(#clip972)" d="
M1372.6 1383.75 L1372.6 1384.24 L1458.88 1384.24 L1458.88 1383.75 L1372.6 1383.75 L1372.6 1383.75  Z
  " fill="#009af9" fill-rule="evenodd" fill-opacity="1"/>
<polyline clip-path="url(#clip972)" style="stroke:#009af9; stroke-width:4; stroke-opacity:1; fill:none" points="
  1372.6,1383.75 1372.6,1384.24 1458.88,1384.24 1458.88,1383.75 1372.6,1383.75 
  "/>
<path clip-path="url(#clip972)" d="
M1458.88 1384.16 L1458.88 1384.24 L1545.17 1384.24 L1545.17 1384.16 L1458.88 1384.16 L1458.88 1384.16  Z
  " fill="#009af9" fill-rule="evenodd" fill-opacity="1"/>
<polyline clip-path="url(#clip972)" style="stroke:#009af9; stroke-width:4; stroke-opacity:1; fill:none" points="
  1458.88,1384.16 1458.88,1384.24 1545.17,1384.24 1545.17,1384.16 1458.88,1384.16 
  "/>
<path clip-path="url(#clip972)" d="
M1545.17 1384.1 L1545.17 1384.24 L1631.45 1384.24 L1631.45 1384.1 L1545.17 1384.1 L1545.17 1384.1  Z
  " fill="#009af9" fill-rule="evenodd" fill-opacity="1"/>
<polyline clip-path="url(#clip972)" style="stroke:#009af9; stroke-width:4; stroke-opacity:1; fill:none" points="
  1545.17,1384.1 1545.17,1384.24 1631.45,1384.24 1631.45,1384.1 1545.17,1384.1 
  "/>
<path clip-path="url(#clip972)" d="
M1631.45 1384.21 L1631.45 1384.24 L1717.73 1384.24 L1717.73 1384.21 L1631.45 1384.21 L1631.45 1384.21  Z
  " fill="#009af9" fill-rule="evenodd" fill-opacity="1"/>
<polyline clip-path="url(#clip972)" style="stroke:#009af9; stroke-width:4; stroke-opacity:1; fill:none" points="
  1631.45,1384.21 1631.45,1384.24 1717.73,1384.24 1717.73,1384.21 1631.45,1384.21 
  "/>
<path clip-path="url(#clip972)" d="
M1717.73 1384.21 L1717.73 1384.24 L1804.02 1384.24 L1804.02 1384.21 L1717.73 1384.21 L1717.73 1384.21  Z
  " fill="#009af9" fill-rule="evenodd" fill-opacity="1"/>
<polyline clip-path="url(#clip972)" style="stroke:#009af9; stroke-width:4; stroke-opacity:1; fill:none" points="
  1717.73,1384.21 1717.73,1384.24 1804.02,1384.24 1804.02,1384.21 1717.73,1384.21 
  "/>
<path clip-path="url(#clip972)" d="
M1804.02 1384.21 L1804.02 1384.24 L1890.3 1384.24 L1890.3 1384.21 L1804.02 1384.21 L1804.02 1384.21  Z
  " fill="#009af9" fill-rule="evenodd" fill-opacity="1"/>
<polyline clip-path="url(#clip972)" style="stroke:#009af9; stroke-width:4; stroke-opacity:1; fill:none" points="
  1804.02,1384.21 1804.02,1384.24 1890.3,1384.24 1890.3,1384.21 1804.02,1384.21 
  "/>
<path clip-path="url(#clip972)" d="
M1890.3 1384.24 L1890.3 1384.24 L1976.59 1384.24 L1976.59 1384.24 L1890.3 1384.24 L1890.3 1384.24  Z
  " fill="#009af9" fill-rule="evenodd" fill-opacity="1"/>
<polyline clip-path="url(#clip972)" style="stroke:#009af9; stroke-width:4; stroke-opacity:1; fill:none" points="
  1890.3,1384.24 1890.3,1384.24 1976.59,1384.24 1890.3,1384.24 
  "/>
<path clip-path="url(#clip972)" d="
M1976.59 1384.24 L1976.59 1384.24 L2062.87 1384.24 L2062.87 1384.24 L1976.59 1384.24 L1976.59 1384.24  Z
  " fill="#009af9" fill-rule="evenodd" fill-opacity="1"/>
<polyline clip-path="url(#clip972)" style="stroke:#009af9; stroke-width:4; stroke-opacity:1; fill:none" points="
  1976.59,1384.24 1976.59,1384.24 2062.87,1384.24 1976.59,1384.24 
  "/>
<path clip-path="url(#clip972)" d="
M2062.87 1384.24 L2062.87 1384.24 L2149.16 1384.24 L2149.16 1384.24 L2062.87 1384.24 L2062.87 1384.24  Z
  " fill="#009af9" fill-rule="evenodd" fill-opacity="1"/>
<polyline clip-path="url(#clip972)" style="stroke:#009af9; stroke-width:4; stroke-opacity:1; fill:none" points="
  2062.87,1384.24 2062.87,1384.24 2149.16,1384.24 2062.87,1384.24 
  "/>
<path clip-path="url(#clip972)" d="
M2149.16 1384.21 L2149.16 1384.24 L2235.44 1384.24 L2235.44 1384.21 L2149.16 1384.21 L2149.16 1384.21  Z
  " fill="#009af9" fill-rule="evenodd" fill-opacity="1"/>
<polyline clip-path="url(#clip972)" style="stroke:#009af9; stroke-width:4; stroke-opacity:1; fill:none" points="
  2149.16,1384.21 2149.16,1384.24 2235.44,1384.24 2235.44,1384.21 2149.16,1384.21 
  "/>
<polyline clip-path="url(#clip972)" style="stroke:#e26f46; stroke-width:12; stroke-opacity:1; fill:none" points="
  337.179,786.508 345.807,751.443 354.436,718.547 363.064,688.359 371.693,661.392 380.321,638.115 388.95,618.948 397.578,604.241 406.207,594.266 414.835,589.21 
  423.464,589.17 432.092,594.146 440.721,604.043 449.349,618.677 457.978,637.776 466.606,660.989 475.235,687.902 483.863,718.042 492.492,750.898 501.12,785.933 
  509.748,822.595 518.377,860.336 527.005,898.625 535.634,936.955 544.262,974.858 552.891,1011.91 561.519,1047.75 570.148,1082.06 578.776,1114.58 587.405,1145.12 
  596.033,1173.53 604.662,1199.75 613.29,1223.72 621.919,1245.45 630.547,1265 639.176,1282.45 647.804,1297.89 656.433,1311.44 665.061,1323.26 673.689,1333.48 
  682.318,1342.26 690.946,1349.73 699.575,1356.06 708.203,1361.37 716.832,1365.8 725.46,1369.46 734.089,1372.47 742.717,1374.93 751.346,1376.92 759.974,1378.52 
  768.603,1379.8 777.231,1380.81 785.86,1381.61 794.488,1382.24 803.117,1382.72 811.745,1383.1 820.374,1383.39 829.002,1383.61 837.63,1383.77 846.259,1383.9 
  854.887,1383.99 863.516,1384.06 872.144,1384.11 880.773,1384.15 889.401,1384.17 898.03,1384.19 906.658,1384.21 915.287,1384.22 923.915,1384.22 932.544,1384.23 
  941.172,1384.23 949.801,1384.23 958.429,1384.23 967.058,1384.24 975.686,1384.24 984.315,1384.24 992.943,1384.24 1001.57,1384.24 1010.2,1384.24 1018.83,1384.24 
  1027.46,1384.24 1036.09,1384.24 1044.71,1384.24 1053.34,1384.24 1061.97,1384.24 1070.6,1384.24 1079.23,1384.24 1087.86,1384.24 1096.48,1384.24 1105.11,1384.24 
  1113.74,1384.24 1122.37,1384.24 1131,1384.24 1139.63,1384.24 1148.26,1384.24 1156.88,1384.24 1165.51,1384.24 1174.14,1384.24 1182.77,1384.24 1191.4,1384.24 
  1200.03,1384.24 1208.65,1384.24 1217.28,1384.24 1225.91,1384.24 1234.54,1384.24 1243.17,1384.24 1251.8,1384.24 1260.43,1384.24 1269.05,1384.24 1277.68,1384.24 
  1286.31,1384.24 1294.94,1384.24 1303.57,1384.24 1312.2,1384.24 1320.82,1384.24 1329.45,1384.24 1338.08,1384.24 1346.71,1384.24 1355.34,1384.24 1363.97,1384.24 
  1372.6,1384.24 1381.22,1384.24 1389.85,1384.24 1398.48,1384.24 1407.11,1384.24 1415.74,1384.24 1424.37,1384.24 1433,1384.24 1441.62,1384.24 1450.25,1384.24 
  1458.88,1384.24 1467.51,1384.24 1476.14,1384.24 1484.77,1384.24 1493.39,1384.24 1502.02,1384.24 1510.65,1384.24 1519.28,1384.24 1527.91,1384.24 1536.54,1384.24 
  1545.17,1384.24 1553.79,1384.24 1562.42,1384.24 1571.05,1384.24 1579.68,1384.24 1588.31,1384.24 1596.94,1384.24 1605.56,1384.24 1614.19,1384.24 1622.82,1384.24 
  1631.45,1384.24 1640.08,1384.24 1648.71,1384.24 1657.34,1384.24 1665.96,1384.24 1674.59,1384.24 1683.22,1384.24 1691.85,1384.24 1700.48,1384.24 1709.11,1384.24 
  1717.73,1384.24 1726.36,1384.24 1734.99,1384.24 1743.62,1384.24 1752.25,1384.24 1760.88,1384.24 1769.51,1384.24 1778.13,1384.24 1786.76,1384.24 1795.39,1384.24 
  1804.02,1384.24 1812.65,1384.24 1821.28,1384.24 1829.9,1384.24 1838.53,1384.24 1847.16,1384.24 1855.79,1384.24 1864.42,1384.24 1873.05,1384.24 1881.68,1384.24 
  1890.3,1384.24 1898.93,1384.24 1907.56,1384.24 1916.19,1384.24 1924.82,1384.24 1933.45,1384.24 1942.08,1384.24 1950.7,1384.24 1959.33,1384.24 1967.96,1384.24 
  1976.59,1384.24 1985.22,1384.24 1993.85,1384.24 2002.47,1384.24 2011.1,1384.24 2019.73,1384.24 2028.36,1384.24 2036.99,1384.24 2045.62,1384.24 2054.25,1384.24 
  2062.87,1384.24 2071.5,1384.24 2080.13,1384.24 2088.76,1384.24 2097.39,1384.24 2106.02,1384.24 2114.64,1384.24 2123.27,1384.24 2131.9,1384.24 2140.53,1384.24 
  2149.16,1384.24 
  "/>
<polyline clip-path="url(#clip972)" style="stroke:#3da44d; stroke-width:12; stroke-opacity:1; fill:none" points="
  337.179,175.625 345.807,222.841 354.436,274.116 363.064,327.741 371.693,382.427 380.321,437.203 388.95,491.343 397.578,544.308 406.207,595.708 414.835,645.262 
  423.464,692.782 432.092,738.146 440.721,781.289 449.349,822.187 457.978,860.847 466.606,897.303 475.235,931.607 483.863,963.824 492.492,994.03 501.12,1022.31 
  509.748,1048.75 518.377,1073.43 527.005,1096.45 535.634,1117.9 544.262,1137.87 552.891,1156.44 561.519,1173.7 570.148,1189.73 578.776,1204.6 587.405,1218.39 
  596.033,1231.18 604.662,1243.02 613.29,1253.98 621.919,1264.13 630.547,1273.52 639.176,1282.2 647.804,1290.22 656.433,1297.63 665.061,1304.47 673.689,1310.79 
  682.318,1316.62 690.946,1322.01 699.575,1326.97 708.203,1331.55 716.832,1335.77 725.46,1339.65 734.089,1343.24 742.717,1346.54 751.346,1349.58 759.974,1352.38 
  768.603,1354.96 777.231,1357.33 785.86,1359.51 794.488,1361.52 803.117,1363.37 811.745,1365.07 820.374,1366.64 829.002,1368.07 837.63,1369.4 846.259,1370.61 
  854.887,1371.73 863.516,1372.75 872.144,1373.7 880.773,1374.56 889.401,1375.36 898.03,1376.09 906.658,1376.76 915.287,1377.38 923.915,1377.95 932.544,1378.47 
  941.172,1378.94 949.801,1379.38 958.429,1379.79 967.058,1380.16 975.686,1380.49 984.315,1380.8 992.943,1381.09 1001.57,1381.35 1010.2,1381.59 1018.83,1381.81 
  1027.46,1382.01 1036.09,1382.2 1044.71,1382.37 1053.34,1382.53 1061.97,1382.67 1070.6,1382.8 1079.23,1382.92 1087.86,1383.03 1096.48,1383.13 1105.11,1383.22 
  1113.74,1383.31 1122.37,1383.39 1131,1383.46 1139.63,1383.52 1148.26,1383.58 1156.88,1383.64 1165.51,1383.69 1174.14,1383.74 1182.77,1383.78 1191.4,1383.82 
  1200.03,1383.85 1208.65,1383.88 1217.28,1383.91 1225.91,1383.94 1234.54,1383.97 1243.17,1383.99 1251.8,1384.01 1260.43,1384.03 1269.05,1384.05 1277.68,1384.06 
  1286.31,1384.08 1294.94,1384.09 1303.57,1384.1 1312.2,1384.12 1320.82,1384.13 1329.45,1384.14 1338.08,1384.14 1346.71,1384.15 1355.34,1384.16 1363.97,1384.17 
  1372.6,1384.17 1381.22,1384.18 1389.85,1384.18 1398.48,1384.19 1407.11,1384.19 1415.74,1384.2 1424.37,1384.2 1433,1384.2 1441.62,1384.21 1450.25,1384.21 
  1458.88,1384.21 1467.51,1384.21 1476.14,1384.22 1484.77,1384.22 1493.39,1384.22 1502.02,1384.22 1510.65,1384.22 1519.28,1384.22 1527.91,1384.22 1536.54,1384.23 
  1545.17,1384.23 1553.79,1384.23 1562.42,1384.23 1571.05,1384.23 1579.68,1384.23 1588.31,1384.23 1596.94,1384.23 1605.56,1384.23 1614.19,1384.23 1622.82,1384.23 
  1631.45,1384.23 1640.08,1384.23 1648.71,1384.23 1657.34,1384.23 1665.96,1384.24 1674.59,1384.24 1683.22,1384.24 1691.85,1384.24 1700.48,1384.24 1709.11,1384.24 
  1717.73,1384.24 1726.36,1384.24 1734.99,1384.24 1743.62,1384.24 1752.25,1384.24 1760.88,1384.24 1769.51,1384.24 1778.13,1384.24 1786.76,1384.24 1795.39,1384.24 
  1804.02,1384.24 1812.65,1384.24 1821.28,1384.24 1829.9,1384.24 1838.53,1384.24 1847.16,1384.24 1855.79,1384.24 1864.42,1384.24 1873.05,1384.24 1881.68,1384.24 
  1890.3,1384.24 1898.93,1384.24 1907.56,1384.24 1916.19,1384.24 1924.82,1384.24 1933.45,1384.24 1942.08,1384.24 1950.7,1384.24 1959.33,1384.24 1967.96,1384.24 
  1976.59,1384.24 1985.22,1384.24 1993.85,1384.24 2002.47,1384.24 2011.1,1384.24 2019.73,1384.24 2028.36,1384.24 2036.99,1384.24 2045.62,1384.24 2054.25,1384.24 
  2062.87,1384.24 2071.5,1384.24 2080.13,1384.24 2088.76,1384.24 2097.39,1384.24 2106.02,1384.24 2114.64,1384.24 2123.27,1384.24 2131.9,1384.24 2140.53,1384.24 
  2149.16,1384.24 
  "/>
<path clip-path="url(#clip970)" d="
M1560.3 335.029 L2281.66 335.029 L2281.66 93.1086 L1560.3 93.1086  Z
  " fill="#ffffff" fill-rule="evenodd" fill-opacity="1"/>
<polyline clip-path="url(#clip970)" style="stroke:#000000; stroke-width:4; stroke-opacity:1; fill:none" points="
  1560.3,335.029 2281.66,335.029 2281.66,93.1086 1560.3,93.1086 1560.3,335.029 
  "/>
<path clip-path="url(#clip970)" d="
M1584 177.781 L1726.19 177.781 L1726.19 129.397 L1584 129.397 L1584 177.781  Z
  " fill="#009af9" fill-rule="evenodd" fill-opacity="1"/>
<polyline clip-path="url(#clip970)" style="stroke:#009af9; stroke-width:4; stroke-opacity:1; fill:none" points="
  1584,177.781 1726.19,177.781 1726.19,129.397 1584,129.397 1584,177.781 
  "/>
<path clip-path="url(#clip970)" d="M 0 0 M1763.73 173.276 Q1761.93 177.906 1760.21 179.318 Q1758.5 180.73 1755.63 180.73 L1752.23 180.73 L1752.23 177.165 L1754.73 177.165 Q1756.49 177.165 1757.46 176.332 Q1758.43 175.498 1759.61 172.396 L1760.38 170.452 L1749.89 144.943 L1754.4 144.943 L1762.51 165.221 L1770.61 144.943 L1775.12 144.943 L1763.73 173.276 Z" fill="#000000" fill-rule="evenodd" fill-opacity="1" /><path clip-path="url(#clip970)" d="M 0 0 M1782.41 166.933 L1790.05 166.933 L1790.05 140.568 L1781.74 142.235 L1781.74 137.975 L1790.01 136.309 L1794.68 136.309 L1794.68 166.933 L1802.32 166.933 L1802.32 170.869 L1782.41 170.869 L1782.41 166.933 Z" fill="#000000" fill-rule="evenodd" fill-opacity="1" /><polyline clip-path="url(#clip970)" style="stroke:#e26f46; stroke-width:4; stroke-opacity:1; fill:none" points="
  1584,214.069 1726.19,214.069 
  "/>
<path clip-path="url(#clip970)" d="M 0 0 M1768.8 218.085 Q1768.8 213.455 1766.88 210.909 Q1764.98 208.363 1761.53 208.363 Q1758.11 208.363 1756.19 210.909 Q1754.29 213.455 1754.29 218.085 Q1754.29 222.691 1756.19 225.238 Q1758.11 227.784 1761.53 227.784 Q1764.98 227.784 1766.88 225.238 Q1768.8 222.691 1768.8 218.085 M1773.06 228.131 Q1773.06 234.751 1770.12 237.969 Q1767.18 241.21 1761.12 241.21 Q1758.87 241.21 1756.88 240.862 Q1754.89 240.538 1753.01 239.844 L1753.01 235.7 Q1754.89 236.719 1756.72 237.205 Q1758.55 237.691 1760.45 237.691 Q1764.63 237.691 1766.72 235.492 Q1768.8 233.316 1768.8 228.895 L1768.8 226.788 Q1767.48 229.08 1765.42 230.214 Q1763.36 231.349 1760.49 231.349 Q1755.72 231.349 1752.81 227.714 Q1749.89 224.08 1749.89 218.085 Q1749.89 212.066 1752.81 208.432 Q1755.72 204.798 1760.49 204.798 Q1763.36 204.798 1765.42 205.932 Q1767.48 207.066 1768.8 209.358 L1768.8 205.423 L1773.06 205.423 L1773.06 228.131 Z" fill="#000000" fill-rule="evenodd" fill-opacity="1" /><path clip-path="url(#clip970)" d="M 0 0 M1793.62 218.316 Q1788.45 218.316 1786.46 219.497 Q1784.47 220.677 1784.47 223.525 Q1784.47 225.793 1785.95 227.136 Q1787.46 228.455 1790.03 228.455 Q1793.57 228.455 1795.7 225.955 Q1797.85 223.432 1797.85 219.265 L1797.85 218.316 L1793.62 218.316 M1802.11 216.557 L1802.11 231.349 L1797.85 231.349 L1797.85 227.413 Q1796.39 229.775 1794.22 230.909 Q1792.04 232.02 1788.89 232.02 Q1784.91 232.02 1782.55 229.798 Q1780.21 227.552 1780.21 223.802 Q1780.21 219.427 1783.13 217.205 Q1786.07 214.983 1791.88 214.983 L1797.85 214.983 L1797.85 214.566 Q1797.85 211.627 1795.91 210.029 Q1793.99 208.409 1790.49 208.409 Q1788.27 208.409 1786.16 208.941 Q1784.06 209.474 1782.11 210.539 L1782.11 206.603 Q1784.45 205.701 1786.65 205.261 Q1788.85 204.798 1790.93 204.798 Q1796.56 204.798 1799.33 207.714 Q1802.11 210.631 1802.11 216.557 Z" fill="#000000" fill-rule="evenodd" fill-opacity="1" /><path clip-path="url(#clip970)" d="M 0 0 M1810.44 221.117 L1810.44 205.423 L1814.7 205.423 L1814.7 220.955 Q1814.7 224.636 1816.14 226.488 Q1817.57 228.316 1820.44 228.316 Q1823.89 228.316 1825.88 226.117 Q1827.9 223.918 1827.9 220.122 L1827.9 205.423 L1832.16 205.423 L1832.16 231.349 L1827.9 231.349 L1827.9 227.367 Q1826.35 229.728 1824.29 230.886 Q1822.25 232.02 1819.54 232.02 Q1815.07 232.02 1812.76 229.242 Q1810.44 226.464 1810.44 221.117 M1821.16 204.798 L1821.16 204.798 Z" fill="#000000" fill-rule="evenodd" fill-opacity="1" /><path clip-path="url(#clip970)" d="M 0 0 M1857.46 206.187 L1857.46 210.214 Q1855.65 209.289 1853.71 208.826 Q1851.76 208.363 1849.68 208.363 Q1846.51 208.363 1844.91 209.335 Q1843.34 210.307 1843.34 212.251 Q1843.34 213.733 1844.47 214.589 Q1845.61 215.423 1849.03 216.187 L1850.49 216.511 Q1855.03 217.483 1856.93 219.265 Q1858.85 221.025 1858.85 224.196 Q1858.85 227.807 1855.98 229.913 Q1853.13 232.02 1848.13 232.02 Q1846.05 232.02 1843.78 231.603 Q1841.53 231.21 1839.03 230.4 L1839.03 226.001 Q1841.39 227.228 1843.69 227.853 Q1845.98 228.455 1848.22 228.455 Q1851.23 228.455 1852.85 227.437 Q1854.47 226.395 1854.47 224.52 Q1854.47 222.784 1853.29 221.858 Q1852.13 220.932 1848.18 220.076 L1846.69 219.728 Q1842.74 218.895 1840.98 217.182 Q1839.22 215.446 1839.22 212.437 Q1839.22 208.779 1841.81 206.789 Q1844.4 204.798 1849.17 204.798 Q1851.53 204.798 1853.62 205.145 Q1855.7 205.492 1857.46 206.187 Z" fill="#000000" fill-rule="evenodd" fill-opacity="1" /><path clip-path="url(#clip970)" d="M 0 0 M1882.16 206.187 L1882.16 210.214 Q1880.35 209.289 1878.41 208.826 Q1876.46 208.363 1874.38 208.363 Q1871.21 208.363 1869.61 209.335 Q1868.04 210.307 1868.04 212.251 Q1868.04 213.733 1869.17 214.589 Q1870.31 215.423 1873.73 216.187 L1875.19 216.511 Q1879.73 217.483 1881.63 219.265 Q1883.55 221.025 1883.55 224.196 Q1883.55 227.807 1880.68 229.913 Q1877.83 232.02 1872.83 232.02 Q1870.75 232.02 1868.48 231.603 Q1866.23 231.21 1863.73 230.4 L1863.73 226.001 Q1866.09 227.228 1868.38 227.853 Q1870.68 228.455 1872.92 228.455 Q1875.93 228.455 1877.55 227.437 Q1879.17 226.395 1879.17 224.52 Q1879.17 222.784 1877.99 221.858 Q1876.83 220.932 1872.88 220.076 L1871.39 219.728 Q1867.44 218.895 1865.68 217.182 Q1863.92 215.446 1863.92 212.437 Q1863.92 208.779 1866.51 206.789 Q1869.1 204.798 1873.87 204.798 Q1876.23 204.798 1878.31 205.145 Q1880.4 205.492 1882.16 206.187 Z" fill="#000000" fill-rule="evenodd" fill-opacity="1" /><path clip-path="url(#clip970)" d="M 0 0 M1890.33 205.423 L1894.59 205.423 L1894.59 231.349 L1890.33 231.349 L1890.33 205.423 M1890.33 195.33 L1894.59 195.33 L1894.59 200.724 L1890.33 200.724 L1890.33 195.33 Z" fill="#000000" fill-rule="evenodd" fill-opacity="1" /><path clip-path="url(#clip970)" d="M 0 0 M1915.28 218.316 Q1910.12 218.316 1908.13 219.497 Q1906.14 220.677 1906.14 223.525 Q1906.14 225.793 1907.62 227.136 Q1909.12 228.455 1911.69 228.455 Q1915.24 228.455 1917.37 225.955 Q1919.52 223.432 1919.52 219.265 L1919.52 218.316 L1915.28 218.316 M1923.78 216.557 L1923.78 231.349 L1919.52 231.349 L1919.52 227.413 Q1918.06 229.775 1915.88 230.909 Q1913.71 232.02 1910.56 232.02 Q1906.58 232.02 1904.22 229.798 Q1901.88 227.552 1901.88 223.802 Q1901.88 219.427 1904.8 217.205 Q1907.74 214.983 1913.55 214.983 L1919.52 214.983 L1919.52 214.566 Q1919.52 211.627 1917.57 210.029 Q1915.65 208.409 1912.16 208.409 Q1909.94 208.409 1907.83 208.941 Q1905.72 209.474 1903.78 210.539 L1903.78 206.603 Q1906.12 205.701 1908.31 205.261 Q1910.51 204.798 1912.6 204.798 Q1918.22 204.798 1921 207.714 Q1923.78 210.631 1923.78 216.557 Z" fill="#000000" fill-rule="evenodd" fill-opacity="1" /><path clip-path="url(#clip970)" d="M 0 0 M1954.1 215.701 L1954.1 231.349 L1949.84 231.349 L1949.84 215.839 Q1949.84 212.159 1948.41 210.33 Q1946.97 208.502 1944.1 208.502 Q1940.65 208.502 1938.66 210.701 Q1936.67 212.9 1936.67 216.696 L1936.67 231.349 L1932.39 231.349 L1932.39 205.423 L1936.67 205.423 L1936.67 209.451 Q1938.2 207.113 1940.26 205.955 Q1942.34 204.798 1945.05 204.798 Q1949.52 204.798 1951.81 207.576 Q1954.1 210.33 1954.1 215.701 Z" fill="#000000" fill-rule="evenodd" fill-opacity="1" /><path clip-path="url(#clip970)" d="M 0 0 M1990.79 195.33 L1990.79 198.872 L1986.72 198.872 Q1984.43 198.872 1983.52 199.798 Q1982.64 200.724 1982.64 203.131 L1982.64 205.423 L1989.66 205.423 L1989.66 208.733 L1982.64 208.733 L1982.64 231.349 L1978.36 231.349 L1978.36 208.733 L1974.29 208.733 L1974.29 205.423 L1978.36 205.423 L1978.36 203.617 Q1978.36 199.289 1980.37 197.321 Q1982.39 195.33 1986.76 195.33 L1990.79 195.33 Z" fill="#000000" fill-rule="evenodd" fill-opacity="1" /><path clip-path="url(#clip970)" d="M 0 0 M1994.36 205.423 L1998.62 205.423 L1998.62 231.349 L1994.36 231.349 L1994.36 205.423 M1994.36 195.33 L1998.62 195.33 L1998.62 200.724 L1994.36 200.724 L1994.36 195.33 Z" fill="#000000" fill-rule="evenodd" fill-opacity="1" /><path clip-path="url(#clip970)" d="M 0 0 M2011.74 198.062 L2011.74 205.423 L2020.51 205.423 L2020.51 208.733 L2011.74 208.733 L2011.74 222.807 Q2011.74 225.978 2012.6 226.881 Q2013.48 227.784 2016.14 227.784 L2020.51 227.784 L2020.51 231.349 L2016.14 231.349 Q2011.21 231.349 2009.33 229.52 Q2007.46 227.668 2007.46 222.807 L2007.46 208.733 L2004.33 208.733 L2004.33 205.423 L2007.46 205.423 L2007.46 198.062 L2011.74 198.062 Z" fill="#000000" fill-rule="evenodd" fill-opacity="1" /><polyline clip-path="url(#clip970)" style="stroke:#3da44d; stroke-width:4; stroke-opacity:1; fill:none" points="
  1584,274.549 1726.19,274.549 
  "/>
<path clip-path="url(#clip970)" d="M 0 0 M1771.6 276.181 L1771.6 291.829 L1767.34 291.829 L1767.34 276.319 Q1767.34 272.639 1765.91 270.81 Q1764.47 268.982 1761.6 268.982 Q1758.15 268.982 1756.16 271.181 Q1754.17 273.38 1754.17 277.176 L1754.17 291.829 L1749.89 291.829 L1749.89 265.903 L1754.17 265.903 L1754.17 269.931 Q1755.7 267.593 1757.76 266.435 Q1759.84 265.278 1762.55 265.278 Q1767.02 265.278 1769.31 268.056 Q1771.6 270.81 1771.6 276.181 Z" fill="#000000" fill-rule="evenodd" fill-opacity="1" /><path clip-path="url(#clip970)" d="M 0 0 M1802.27 277.801 L1802.27 279.884 L1782.69 279.884 Q1782.97 284.282 1785.33 286.597 Q1787.71 288.889 1791.95 288.889 Q1794.4 288.889 1796.69 288.287 Q1799.01 287.685 1801.28 286.481 L1801.28 290.509 Q1798.99 291.481 1796.58 291.991 Q1794.17 292.5 1791.69 292.5 Q1785.49 292.5 1781.86 288.889 Q1778.25 285.278 1778.25 279.12 Q1778.25 272.755 1781.67 269.028 Q1785.12 265.278 1790.95 265.278 Q1796.19 265.278 1799.22 268.657 Q1802.27 272.014 1802.27 277.801 M1798.01 276.551 Q1797.97 273.056 1796.05 270.972 Q1794.15 268.889 1791 268.889 Q1787.44 268.889 1785.28 270.903 Q1783.15 272.917 1782.83 276.574 L1798.01 276.551 Z" fill="#000000" fill-rule="evenodd" fill-opacity="1" /><path clip-path="url(#clip970)" d="M 0 0 M1826.32 278.565 Q1826.32 273.935 1824.4 271.389 Q1822.5 268.843 1819.06 268.843 Q1815.63 268.843 1813.71 271.389 Q1811.81 273.935 1811.81 278.565 Q1811.81 283.171 1813.71 285.718 Q1815.63 288.264 1819.06 288.264 Q1822.5 288.264 1824.4 285.718 Q1826.32 283.171 1826.32 278.565 M1830.58 288.611 Q1830.58 295.231 1827.64 298.449 Q1824.7 301.69 1818.64 301.69 Q1816.39 301.69 1814.4 301.342 Q1812.41 301.018 1810.54 300.324 L1810.54 296.18 Q1812.41 297.199 1814.24 297.685 Q1816.07 298.171 1817.97 298.171 Q1822.16 298.171 1824.24 295.972 Q1826.32 293.796 1826.32 289.375 L1826.32 287.268 Q1825 289.56 1822.94 290.694 Q1820.88 291.829 1818.01 291.829 Q1813.25 291.829 1810.33 288.194 Q1807.41 284.56 1807.41 278.565 Q1807.41 272.546 1810.33 268.912 Q1813.25 265.278 1818.01 265.278 Q1820.88 265.278 1822.94 266.412 Q1825 267.546 1826.32 269.838 L1826.32 265.903 L1830.58 265.903 L1830.58 288.611 Z" fill="#000000" fill-rule="evenodd" fill-opacity="1" /><path clip-path="url(#clip970)" d="M 0 0 M1851.14 278.796 Q1845.98 278.796 1843.99 279.977 Q1842 281.157 1842 284.005 Q1842 286.273 1843.48 287.616 Q1844.98 288.935 1847.55 288.935 Q1851.09 288.935 1853.22 286.435 Q1855.38 283.912 1855.38 279.745 L1855.38 278.796 L1851.14 278.796 M1859.63 277.037 L1859.63 291.829 L1855.38 291.829 L1855.38 287.893 Q1853.92 290.255 1851.74 291.389 Q1849.57 292.5 1846.42 292.5 Q1842.44 292.5 1840.07 290.278 Q1837.74 288.032 1837.74 284.282 Q1837.74 279.907 1840.65 277.685 Q1843.59 275.463 1849.4 275.463 L1855.38 275.463 L1855.38 275.046 Q1855.38 272.107 1853.43 270.509 Q1851.51 268.889 1848.01 268.889 Q1845.79 268.889 1843.69 269.421 Q1841.58 269.954 1839.63 271.019 L1839.63 267.083 Q1841.97 266.181 1844.17 265.741 Q1846.37 265.278 1848.45 265.278 Q1854.08 265.278 1856.86 268.194 Q1859.63 271.111 1859.63 277.037 Z" fill="#000000" fill-rule="evenodd" fill-opacity="1" /><path clip-path="url(#clip970)" d="M 0 0 M1872.62 258.542 L1872.62 265.903 L1881.39 265.903 L1881.39 269.213 L1872.62 269.213 L1872.62 283.287 Q1872.62 286.458 1873.48 287.361 Q1874.36 288.264 1877.02 288.264 L1881.39 288.264 L1881.39 291.829 L1877.02 291.829 Q1872.09 291.829 1870.21 290 Q1868.34 288.148 1868.34 283.287 L1868.34 269.213 L1865.21 269.213 L1865.21 265.903 L1868.34 265.903 L1868.34 258.542 L1872.62 258.542 Z" fill="#000000" fill-rule="evenodd" fill-opacity="1" /><path clip-path="url(#clip970)" d="M 0 0 M1887 265.903 L1891.25 265.903 L1891.25 291.829 L1887 291.829 L1887 265.903 M1887 255.81 L1891.25 255.81 L1891.25 261.204 L1887 261.204 L1887 255.81 Z" fill="#000000" fill-rule="evenodd" fill-opacity="1" /><path clip-path="url(#clip970)" d="M 0 0 M1897.11 265.903 L1901.62 265.903 L1909.73 287.662 L1917.83 265.903 L1922.34 265.903 L1912.62 291.829 L1906.83 291.829 L1897.11 265.903 Z" fill="#000000" fill-rule="evenodd" fill-opacity="1" /><path clip-path="url(#clip970)" d="M 0 0 M1950.4 277.801 L1950.4 279.884 L1930.81 279.884 Q1931.09 284.282 1933.45 286.597 Q1935.84 288.889 1940.07 288.889 Q1942.53 288.889 1944.82 288.287 Q1947.13 287.685 1949.4 286.481 L1949.4 290.509 Q1947.11 291.481 1944.7 291.991 Q1942.3 292.5 1939.82 292.5 Q1933.62 292.5 1929.98 288.889 Q1926.37 285.278 1926.37 279.12 Q1926.37 272.755 1929.8 269.028 Q1933.25 265.278 1939.08 265.278 Q1944.31 265.278 1947.34 268.657 Q1950.4 272.014 1950.4 277.801 M1946.14 276.551 Q1946.09 273.056 1944.17 270.972 Q1942.27 268.889 1939.12 268.889 Q1935.56 268.889 1933.41 270.903 Q1931.28 272.917 1930.95 276.574 L1946.14 276.551 Z" fill="#000000" fill-rule="evenodd" fill-opacity="1" /><path clip-path="url(#clip970)" d="M 0 0 M1991.07 278.889 Q1991.07 274.19 1989.12 271.528 Q1987.2 268.843 1983.82 268.843 Q1980.44 268.843 1978.5 271.528 Q1976.58 274.19 1976.58 278.889 Q1976.58 283.588 1978.5 286.273 Q1980.44 288.935 1983.82 288.935 Q1987.2 288.935 1989.12 286.273 Q1991.07 283.588 1991.07 278.889 M1976.58 269.838 Q1977.92 267.523 1979.96 266.412 Q1982.02 265.278 1984.87 265.278 Q1989.59 265.278 1992.53 269.028 Q1995.49 272.778 1995.49 278.889 Q1995.49 285 1992.53 288.75 Q1989.59 292.5 1984.87 292.5 Q1982.02 292.5 1979.96 291.389 Q1977.92 290.255 1976.58 287.94 L1976.58 291.829 L1972.3 291.829 L1972.3 255.81 L1976.58 255.81 L1976.58 269.838 Z" fill="#000000" fill-rule="evenodd" fill-opacity="1" /><path clip-path="url(#clip970)" d="M 0 0 M2002.55 265.903 L2006.81 265.903 L2006.81 291.829 L2002.55 291.829 L2002.55 265.903 M2002.55 255.81 L2006.81 255.81 L2006.81 261.204 L2002.55 261.204 L2002.55 255.81 Z" fill="#000000" fill-rule="evenodd" fill-opacity="1" /><path clip-path="url(#clip970)" d="M 0 0 M2037.27 276.181 L2037.27 291.829 L2033.01 291.829 L2033.01 276.319 Q2033.01 272.639 2031.58 270.81 Q2030.14 268.982 2027.27 268.982 Q2023.82 268.982 2021.83 271.181 Q2019.84 273.38 2019.84 277.176 L2019.84 291.829 L2015.56 291.829 L2015.56 265.903 L2019.84 265.903 L2019.84 269.931 Q2021.37 267.593 2023.43 266.435 Q2025.51 265.278 2028.22 265.278 Q2032.69 265.278 2034.98 268.056 Q2037.27 270.81 2037.27 276.181 Z" fill="#000000" fill-rule="evenodd" fill-opacity="1" /><path clip-path="url(#clip970)" d="M 0 0 M2055.81 268.889 Q2052.39 268.889 2050.4 271.574 Q2048.41 274.236 2048.41 278.889 Q2048.41 283.542 2050.37 286.227 Q2052.36 288.889 2055.81 288.889 Q2059.22 288.889 2061.21 286.204 Q2063.2 283.518 2063.2 278.889 Q2063.2 274.282 2061.21 271.597 Q2059.22 268.889 2055.81 268.889 M2055.81 265.278 Q2061.37 265.278 2064.54 268.889 Q2067.71 272.5 2067.71 278.889 Q2067.71 285.255 2064.54 288.889 Q2061.37 292.5 2055.81 292.5 Q2050.24 292.5 2047.06 288.889 Q2043.92 285.255 2043.92 278.889 Q2043.92 272.5 2047.06 268.889 Q2050.24 265.278 2055.81 265.278 Z" fill="#000000" fill-rule="evenodd" fill-opacity="1" /><path clip-path="url(#clip970)" d="M 0 0 M2094.96 270.88 Q2096.55 268.009 2098.78 266.644 Q2101 265.278 2104.01 265.278 Q2108.06 265.278 2110.26 268.125 Q2112.46 270.949 2112.46 276.181 L2112.46 291.829 L2108.17 291.829 L2108.17 276.319 Q2108.17 272.593 2106.86 270.787 Q2105.54 268.982 2102.83 268.982 Q2099.52 268.982 2097.6 271.181 Q2095.67 273.38 2095.67 277.176 L2095.67 291.829 L2091.39 291.829 L2091.39 276.319 Q2091.39 272.569 2090.07 270.787 Q2088.75 268.982 2086 268.982 Q2082.74 268.982 2080.81 271.204 Q2078.89 273.403 2078.89 277.176 L2078.89 291.829 L2074.61 291.829 L2074.61 265.903 L2078.89 265.903 L2078.89 269.931 Q2080.35 267.546 2082.39 266.412 Q2084.42 265.278 2087.23 265.278 Q2090.05 265.278 2092.02 266.713 Q2094.01 268.148 2094.96 270.88 Z" fill="#000000" fill-rule="evenodd" fill-opacity="1" /><path clip-path="url(#clip970)" d="M 0 0 M2120.95 265.903 L2125.21 265.903 L2125.21 291.829 L2120.95 291.829 L2120.95 265.903 M2120.95 255.81 L2125.21 255.81 L2125.21 261.204 L2120.95 261.204 L2120.95 255.81 Z" fill="#000000" fill-rule="evenodd" fill-opacity="1" /><path clip-path="url(#clip970)" d="M 0 0 M2145.91 278.796 Q2140.74 278.796 2138.75 279.977 Q2136.76 281.157 2136.76 284.005 Q2136.76 286.273 2138.24 287.616 Q2139.75 288.935 2142.32 288.935 Q2145.86 288.935 2147.99 286.435 Q2150.14 283.912 2150.14 279.745 L2150.14 278.796 L2145.91 278.796 M2154.4 277.037 L2154.4 291.829 L2150.14 291.829 L2150.14 287.893 Q2148.68 290.255 2146.51 291.389 Q2144.33 292.5 2141.18 292.5 Q2137.2 292.5 2134.84 290.278 Q2132.5 288.032 2132.5 284.282 Q2132.5 279.907 2135.42 277.685 Q2138.36 275.463 2144.17 275.463 L2150.14 275.463 L2150.14 275.046 Q2150.14 272.107 2148.2 270.509 Q2146.28 268.889 2142.78 268.889 Q2140.56 268.889 2138.45 269.421 Q2136.35 269.954 2134.4 271.019 L2134.4 267.083 Q2136.74 266.181 2138.94 265.741 Q2141.14 265.278 2143.22 265.278 Q2148.85 265.278 2151.62 268.194 Q2154.4 271.111 2154.4 277.037 Z" fill="#000000" fill-rule="evenodd" fill-opacity="1" /><path clip-path="url(#clip970)" d="M 0 0 M2163.17 255.81 L2167.43 255.81 L2167.43 291.829 L2163.17 291.829 L2163.17 255.81 Z" fill="#000000" fill-rule="evenodd" fill-opacity="1" /><path clip-path="url(#clip970)" d="M 0 0 M2204.54 255.81 L2204.54 259.352 L2200.47 259.352 Q2198.17 259.352 2197.27 260.278 Q2196.39 261.204 2196.39 263.611 L2196.39 265.903 L2203.41 265.903 L2203.41 269.213 L2196.39 269.213 L2196.39 291.829 L2192.11 291.829 L2192.11 269.213 L2188.04 269.213 L2188.04 265.903 L2192.11 265.903 L2192.11 264.097 Q2192.11 259.769 2194.12 257.801 Q2196.14 255.81 2200.51 255.81 L2204.54 255.81 Z" fill="#000000" fill-rule="evenodd" fill-opacity="1" /><path clip-path="url(#clip970)" d="M 0 0 M2208.1 265.903 L2212.36 265.903 L2212.36 291.829 L2208.1 291.829 L2208.1 265.903 M2208.1 255.81 L2212.36 255.81 L2212.36 261.204 L2208.1 261.204 L2208.1 255.81 Z" fill="#000000" fill-rule="evenodd" fill-opacity="1" /><path clip-path="url(#clip970)" d="M 0 0 M2225.49 258.542 L2225.49 265.903 L2234.26 265.903 L2234.26 269.213 L2225.49 269.213 L2225.49 283.287 Q2225.49 286.458 2226.35 287.361 Q2227.23 288.264 2229.89 288.264 L2234.26 288.264 L2234.26 291.829 L2229.89 291.829 Q2224.96 291.829 2223.08 290 Q2221.21 288.148 2221.21 283.287 L2221.21 269.213 L2218.08 269.213 L2218.08 265.903 L2221.21 265.903 L2221.21 258.542 L2225.49 258.542 Z" fill="#000000" fill-rule="evenodd" fill-opacity="1" /></svg>
