<?xml version="1.0" encoding="utf-8"?>
<svg xmlns="http://www.w3.org/2000/svg" xmlns:xlink="http://www.w3.org/1999/xlink" width="600" height="400" viewBox="0 0 2400 1600">
<defs>
  <clipPath id="clip000">
    <rect x="0" y="0" width="2400" height="1600"/>
  </clipPath>
</defs>
<path clip-path="url(#clip000)" d="
M0 1600 L2400 1600 L2400 0 L0 0  Z
  " fill="#ffffff" fill-rule="evenodd" fill-opacity="1"/>
<defs>
  <clipPath id="clip001">
    <rect x="480" y="0" width="1681" height="1600"/>
  </clipPath>
</defs>
<path clip-path="url(#clip000)" d="
M249.542 1423.18 L2352.76 1423.18 L2352.76 47.2441 L249.542 47.2441  Z
  " fill="#ffffff" fill-rule="evenodd" fill-opacity="1"/>
<defs>
  <clipPath id="clip002">
    <rect x="249" y="47" width="2104" height="1377"/>
  </clipPath>
</defs>
<polyline clip-path="url(#clip002)" style="stroke:#000000; stroke-width:2; stroke-opacity:0.1; fill:none" points="
  365.223,1423.18 365.223,47.2441 
  "/>
<polyline clip-path="url(#clip002)" style="stroke:#000000; stroke-width:2; stroke-opacity:0.1; fill:none" points="
  677.198,1423.18 677.198,47.2441 
  "/>
<polyline clip-path="url(#clip002)" style="stroke:#000000; stroke-width:2; stroke-opacity:0.1; fill:none" points="
  989.173,1423.18 989.173,47.2441 
  "/>
<polyline clip-path="url(#clip002)" style="stroke:#000000; stroke-width:2; stroke-opacity:0.1; fill:none" points="
  1301.15,1423.18 1301.15,47.2441 
  "/>
<polyline clip-path="url(#clip002)" style="stroke:#000000; stroke-width:2; stroke-opacity:0.1; fill:none" points="
  1613.12,1423.18 1613.12,47.2441 
  "/>
<polyline clip-path="url(#clip002)" style="stroke:#000000; stroke-width:2; stroke-opacity:0.1; fill:none" points="
  1925.1,1423.18 1925.1,47.2441 
  "/>
<polyline clip-path="url(#clip002)" style="stroke:#000000; stroke-width:2; stroke-opacity:0.1; fill:none" points="
  2237.08,1423.18 2237.08,47.2441 
  "/>
<polyline clip-path="url(#clip000)" style="stroke:#000000; stroke-width:4; stroke-opacity:1; fill:none" points="
  249.542,1423.18 2352.76,1423.18 
  "/>
<polyline clip-path="url(#clip000)" style="stroke:#000000; stroke-width:4; stroke-opacity:1; fill:none" points="
  365.223,1423.18 365.223,1406.67 
  "/>
<polyline clip-path="url(#clip000)" style="stroke:#000000; stroke-width:4; stroke-opacity:1; fill:none" points="
  677.198,1423.18 677.198,1406.67 
  "/>
<polyline clip-path="url(#clip000)" style="stroke:#000000; stroke-width:4; stroke-opacity:1; fill:none" points="
  989.173,1423.18 989.173,1406.67 
  "/>
<polyline clip-path="url(#clip000)" style="stroke:#000000; stroke-width:4; stroke-opacity:1; fill:none" points="
  1301.15,1423.18 1301.15,1406.67 
  "/>
<polyline clip-path="url(#clip000)" style="stroke:#000000; stroke-width:4; stroke-opacity:1; fill:none" points="
  1613.12,1423.18 1613.12,1406.67 
  "/>
<polyline clip-path="url(#clip000)" style="stroke:#000000; stroke-width:4; stroke-opacity:1; fill:none" points="
  1925.1,1423.18 1925.1,1406.67 
  "/>
<polyline clip-path="url(#clip000)" style="stroke:#000000; stroke-width:4; stroke-opacity:1; fill:none" points="
  2237.08,1423.18 2237.08,1406.67 
  "/>
<path clip-path="url(#clip000)" d="M 0 0 M365.223 1452.37 Q361.611 1452.37 359.783 1455.94 Q357.977 1459.48 357.977 1466.61 Q357.977 1473.71 359.783 1477.28 Q361.611 1480.82 365.223 1480.82 Q368.857 1480.82 370.662 1477.28 Q372.491 1473.71 372.491 1466.61 Q372.491 1459.48 370.662 1455.94 Q368.857 1452.37 365.223 1452.37 M365.223 1448.67 Q371.033 1448.67 374.088 1453.27 Q377.167 1457.86 377.167 1466.61 Q377.167 1475.33 374.088 1479.94 Q371.033 1484.52 365.223 1484.52 Q359.412 1484.52 356.334 1479.94 Q353.278 1475.33 353.278 1466.61 Q353.278 1457.86 356.334 1453.27 Q359.412 1448.67 365.223 1448.67 Z" fill="#000000" fill-rule="evenodd" fill-opacity="1" /><path clip-path="url(#clip000)" d="M 0 0 M671.851 1479.92 L688.17 1479.92 L688.17 1483.85 L666.226 1483.85 L666.226 1479.92 Q668.888 1477.16 673.471 1472.53 Q678.078 1467.88 679.258 1466.54 Q681.504 1464.01 682.383 1462.28 Q683.286 1460.52 683.286 1458.83 Q683.286 1456.07 681.342 1454.34 Q679.42 1452.6 676.318 1452.6 Q674.119 1452.6 671.666 1453.37 Q669.235 1454.13 666.457 1455.68 L666.457 1450.96 Q669.281 1449.82 671.735 1449.25 Q674.189 1448.67 676.226 1448.67 Q681.596 1448.67 684.791 1451.35 Q687.985 1454.04 687.985 1458.53 Q687.985 1460.66 687.175 1462.58 Q686.388 1464.48 684.281 1467.07 Q683.703 1467.74 680.601 1470.96 Q677.499 1474.15 671.851 1479.92 Z" fill="#000000" fill-rule="evenodd" fill-opacity="1" /><path clip-path="url(#clip000)" d="M 0 0 M992.183 1453.37 L980.377 1471.81 L992.183 1471.81 L992.183 1453.37 M990.956 1449.29 L996.835 1449.29 L996.835 1471.81 L1001.77 1471.81 L1001.77 1475.7 L996.835 1475.7 L996.835 1483.85 L992.183 1483.85 L992.183 1475.7 L976.581 1475.7 L976.581 1471.19 L990.956 1449.29 Z" fill="#000000" fill-rule="evenodd" fill-opacity="1" /><path clip-path="url(#clip000)" d="M 0 0 M1301.55 1464.71 Q1298.41 1464.71 1296.55 1466.86 Q1294.73 1469.01 1294.73 1472.76 Q1294.73 1476.49 1296.55 1478.67 Q1298.41 1480.82 1301.55 1480.82 Q1304.7 1480.82 1306.53 1478.67 Q1308.38 1476.49 1308.38 1472.76 Q1308.38 1469.01 1306.53 1466.86 Q1304.7 1464.71 1301.55 1464.71 M1310.84 1450.06 L1310.84 1454.31 Q1309.08 1453.48 1307.27 1453.04 Q1305.49 1452.6 1303.73 1452.6 Q1299.1 1452.6 1296.65 1455.73 Q1294.22 1458.85 1293.87 1465.17 Q1295.23 1463.16 1297.29 1462.09 Q1299.35 1461 1301.83 1461 Q1307.04 1461 1310.05 1464.18 Q1313.08 1467.32 1313.08 1472.76 Q1313.08 1478.09 1309.93 1481.31 Q1306.79 1484.52 1301.55 1484.52 Q1295.56 1484.52 1292.39 1479.94 Q1289.22 1475.33 1289.22 1466.61 Q1289.22 1458.41 1293.11 1453.55 Q1296.99 1448.67 1303.54 1448.67 Q1305.3 1448.67 1307.09 1449.01 Q1308.89 1449.36 1310.84 1450.06 Z" fill="#000000" fill-rule="evenodd" fill-opacity="1" /><path clip-path="url(#clip000)" d="M 0 0 M1613.12 1467.44 Q1609.79 1467.44 1607.87 1469.22 Q1605.97 1471 1605.97 1474.13 Q1605.97 1477.25 1607.87 1479.04 Q1609.79 1480.82 1613.12 1480.82 Q1616.46 1480.82 1618.38 1479.04 Q1620.3 1477.23 1620.3 1474.13 Q1620.3 1471 1618.38 1469.22 Q1616.48 1467.44 1613.12 1467.44 M1608.45 1465.45 Q1605.44 1464.71 1603.75 1462.65 Q1602.08 1460.59 1602.08 1457.63 Q1602.08 1453.48 1605.02 1451.07 Q1607.99 1448.67 1613.12 1448.67 Q1618.29 1448.67 1621.23 1451.07 Q1624.17 1453.48 1624.17 1457.63 Q1624.17 1460.59 1622.48 1462.65 Q1620.81 1464.71 1617.82 1465.45 Q1621.2 1466.24 1623.08 1468.53 Q1624.98 1470.82 1624.98 1474.13 Q1624.98 1479.15 1621.9 1481.84 Q1618.84 1484.52 1613.12 1484.52 Q1607.41 1484.52 1604.33 1481.84 Q1601.27 1479.15 1601.27 1474.13 Q1601.27 1470.82 1603.17 1468.53 Q1605.07 1466.24 1608.45 1465.45 M1606.74 1458.06 Q1606.74 1460.75 1608.4 1462.25 Q1610.09 1463.76 1613.12 1463.76 Q1616.13 1463.76 1617.82 1462.25 Q1619.54 1460.75 1619.54 1458.06 Q1619.54 1455.38 1617.82 1453.88 Q1616.13 1452.37 1613.12 1452.37 Q1610.09 1452.37 1608.4 1453.88 Q1606.74 1455.38 1606.74 1458.06 Z" fill="#000000" fill-rule="evenodd" fill-opacity="1" /><path clip-path="url(#clip000)" d="M 0 0 M1899.79 1479.92 L1907.43 1479.92 L1907.43 1453.55 L1899.12 1455.22 L1899.12 1450.96 L1907.38 1449.29 L1912.06 1449.29 L1912.06 1479.92 L1919.69 1479.92 L1919.69 1483.85 L1899.79 1483.85 L1899.79 1479.92 Z" fill="#000000" fill-rule="evenodd" fill-opacity="1" /><path clip-path="url(#clip000)" d="M 0 0 M1939.14 1452.37 Q1935.53 1452.37 1933.7 1455.94 Q1931.89 1459.48 1931.89 1466.61 Q1931.89 1473.71 1933.7 1477.28 Q1935.53 1480.82 1939.14 1480.82 Q1942.77 1480.82 1944.58 1477.28 Q1946.41 1473.71 1946.41 1466.61 Q1946.41 1459.48 1944.58 1455.94 Q1942.77 1452.37 1939.14 1452.37 M1939.14 1448.67 Q1944.95 1448.67 1948 1453.27 Q1951.08 1457.86 1951.08 1466.61 Q1951.08 1475.33 1948 1479.94 Q1944.95 1484.52 1939.14 1484.52 Q1933.33 1484.52 1930.25 1479.94 Q1927.19 1475.33 1927.19 1466.61 Q1927.19 1457.86 1930.25 1453.27 Q1933.33 1448.67 1939.14 1448.67 Z" fill="#000000" fill-rule="evenodd" fill-opacity="1" /><path clip-path="url(#clip000)" d="M 0 0 M2212.56 1479.92 L2220.2 1479.92 L2220.2 1453.55 L2211.89 1455.22 L2211.89 1450.96 L2220.15 1449.29 L2224.83 1449.29 L2224.83 1479.92 L2232.47 1479.92 L2232.47 1483.85 L2212.56 1483.85 L2212.56 1479.92 Z" fill="#000000" fill-rule="evenodd" fill-opacity="1" /><path clip-path="url(#clip000)" d="M 0 0 M2245.94 1479.92 L2262.26 1479.92 L2262.26 1483.85 L2240.32 1483.85 L2240.32 1479.92 Q2242.98 1477.16 2247.56 1472.53 Q2252.17 1467.88 2253.35 1466.54 Q2255.59 1464.01 2256.47 1462.28 Q2257.38 1460.52 2257.38 1458.83 Q2257.38 1456.07 2255.43 1454.34 Q2253.51 1452.6 2250.41 1452.6 Q2248.21 1452.6 2245.76 1453.37 Q2243.33 1454.13 2240.55 1455.68 L2240.55 1450.96 Q2243.37 1449.82 2245.83 1449.25 Q2248.28 1448.67 2250.32 1448.67 Q2255.69 1448.67 2258.88 1451.35 Q2262.08 1454.04 2262.08 1458.53 Q2262.08 1460.66 2261.27 1462.58 Q2260.48 1464.48 2258.37 1467.07 Q2257.79 1467.74 2254.69 1470.96 Q2251.59 1474.15 2245.94 1479.92 Z" fill="#000000" fill-rule="evenodd" fill-opacity="1" /><path clip-path="url(#clip000)" d="M 0 0 M1311.59 1537.87 Q1310.6 1537.3 1309.42 1537.04 Q1308.28 1536.76 1306.88 1536.76 Q1301.91 1536.76 1299.24 1540 Q1296.6 1543.22 1296.6 1549.27 L1296.6 1568.04 L1290.71 1568.04 L1290.71 1532.4 L1296.6 1532.4 L1296.6 1537.93 Q1298.44 1534.69 1301.4 1533.13 Q1304.36 1531.54 1308.6 1531.54 Q1309.2 1531.54 1309.93 1531.63 Q1310.67 1531.7 1311.56 1531.85 L1311.59 1537.87 Z" fill="#000000" fill-rule="evenodd" fill-opacity="1" /><polyline clip-path="url(#clip002)" style="stroke:#000000; stroke-width:2; stroke-opacity:0.1; fill:none" points="
  249.542,1384.24 2352.76,1384.24 
  "/>
<polyline clip-path="url(#clip002)" style="stroke:#000000; stroke-width:2; stroke-opacity:0.1; fill:none" points="
  249.542,1158.84 2352.76,1158.84 
  "/>
<polyline clip-path="url(#clip002)" style="stroke:#000000; stroke-width:2; stroke-opacity:0.1; fill:none" points="
  249.542,933.45 2352.76,933.45 
  "/>
<polyline clip-path="url(#clip002)" style="stroke:#000000; stroke-width:2; stroke-opacity:0.1; fill:none" points="
  249.542,708.056 2352.76,708.056 
  "/>
<polyline clip-path="url(#clip002)" style="stroke:#000000; stroke-width:2; stroke-opacity:0.1; fill:none" points="
  249.542,482.662 2352.76,482.662 
  "/>
<polyline clip-path="url(#clip002)" style="stroke:#000000; stroke-width:2; stroke-opacity:0.1; fill:none" points="
  249.542,257.268 2352.76,257.268 
  "/>
<polyline clip-path="url(#clip000)" style="stroke:#000000; stroke-width:4; stroke-opacity:1; fill:none" points="
  249.542,1423.18 249.542,47.2441 
  "/>
<polyline clip-path="url(#clip000)" style="stroke:#000000; stroke-width:4; stroke-opacity:1; fill:none" points="
  249.542,1384.24 274.781,1384.24 
  "/>
<polyline clip-path="url(#clip000)" style="stroke:#000000; stroke-width:4; stroke-opacity:1; fill:none" points="
  249.542,1158.84 274.781,1158.84 
  "/>
<polyline clip-path="url(#clip000)" style="stroke:#000000; stroke-width:4; stroke-opacity:1; fill:none" points="
  249.542,933.45 274.781,933.45 
  "/>
<polyline clip-path="url(#clip000)" style="stroke:#000000; stroke-width:4; stroke-opacity:1; fill:none" points="
  249.542,708.056 274.781,708.056 
  "/>
<polyline clip-path="url(#clip000)" style="stroke:#000000; stroke-width:4; stroke-opacity:1; fill:none" points="
  249.542,482.662 274.781,482.662 
  "/>
<polyline clip-path="url(#clip000)" style="stroke:#000000; stroke-width:4; stroke-opacity:1; fill:none" points="
  249.542,257.268 274.781,257.268 
  "/>
<path clip-path="url(#clip000)" d="M 0 0 M126.205 1370.04 Q122.593 1370.04 120.765 1373.6 Q118.959 1377.14 118.959 1384.27 Q118.959 1391.38 120.765 1394.94 Q122.593 1398.49 126.205 1398.49 Q129.839 1398.49 131.644 1394.94 Q133.473 1391.38 133.473 1384.27 Q133.473 1377.14 131.644 1373.6 Q129.839 1370.04 126.205 1370.04 M126.205 1366.33 Q132.015 1366.33 135.07 1370.94 Q138.149 1375.52 138.149 1384.27 Q138.149 1393 135.07 1397.61 Q132.015 1402.19 126.205 1402.19 Q120.394 1402.19 117.316 1397.61 Q114.26 1393 114.26 1384.27 Q114.26 1375.52 117.316 1370.94 Q120.394 1366.33 126.205 1366.33 Z" fill="#000000" fill-rule="evenodd" fill-opacity="1" /><path clip-path="url(#clip000)" d="M 0 0 M146.366 1395.64 L151.251 1395.64 L151.251 1401.52 L146.366 1401.52 L146.366 1395.64 Z" fill="#000000" fill-rule="evenodd" fill-opacity="1" /><path clip-path="url(#clip000)" d="M 0 0 M171.436 1370.04 Q167.825 1370.04 165.996 1373.6 Q164.19 1377.14 164.19 1384.27 Q164.19 1391.38 165.996 1394.94 Q167.825 1398.49 171.436 1398.49 Q175.07 1398.49 176.876 1394.94 Q178.704 1391.38 178.704 1384.27 Q178.704 1377.14 176.876 1373.6 Q175.07 1370.04 171.436 1370.04 M171.436 1366.33 Q177.246 1366.33 180.301 1370.94 Q183.38 1375.52 183.38 1384.27 Q183.38 1393 180.301 1397.61 Q177.246 1402.19 171.436 1402.19 Q165.626 1402.19 162.547 1397.61 Q159.491 1393 159.491 1384.27 Q159.491 1375.52 162.547 1370.94 Q165.626 1366.33 171.436 1366.33 Z" fill="#000000" fill-rule="evenodd" fill-opacity="1" /><path clip-path="url(#clip000)" d="M 0 0 M201.598 1370.04 Q197.987 1370.04 196.158 1373.6 Q194.352 1377.14 194.352 1384.27 Q194.352 1391.38 196.158 1394.94 Q197.987 1398.49 201.598 1398.49 Q205.232 1398.49 207.037 1394.94 Q208.866 1391.38 208.866 1384.27 Q208.866 1377.14 207.037 1373.6 Q205.232 1370.04 201.598 1370.04 M201.598 1366.33 Q207.408 1366.33 210.463 1370.94 Q213.542 1375.52 213.542 1384.27 Q213.542 1393 210.463 1397.61 Q207.408 1402.19 201.598 1402.19 Q195.787 1402.19 192.709 1397.61 Q189.653 1393 189.653 1384.27 Q189.653 1375.52 192.709 1370.94 Q195.787 1366.33 201.598 1366.33 Z" fill="#000000" fill-rule="evenodd" fill-opacity="1" /><path clip-path="url(#clip000)" d="M 0 0 M127.2 1144.64 Q123.589 1144.64 121.76 1148.21 Q119.955 1151.75 119.955 1158.88 Q119.955 1165.99 121.76 1169.55 Q123.589 1173.09 127.2 1173.09 Q130.834 1173.09 132.64 1169.55 Q134.468 1165.99 134.468 1158.88 Q134.468 1151.75 132.64 1148.21 Q130.834 1144.64 127.2 1144.64 M127.2 1140.94 Q133.01 1140.94 136.066 1145.55 Q139.144 1150.13 139.144 1158.88 Q139.144 1167.61 136.066 1172.21 Q133.01 1176.8 127.2 1176.8 Q121.39 1176.8 118.311 1172.21 Q115.256 1167.61 115.256 1158.88 Q115.256 1150.13 118.311 1145.55 Q121.39 1140.94 127.2 1140.94 Z" fill="#000000" fill-rule="evenodd" fill-opacity="1" /><path clip-path="url(#clip000)" d="M 0 0 M147.362 1170.24 L152.246 1170.24 L152.246 1176.12 L147.362 1176.12 L147.362 1170.24 Z" fill="#000000" fill-rule="evenodd" fill-opacity="1" /><path clip-path="url(#clip000)" d="M 0 0 M172.431 1144.64 Q168.82 1144.64 166.991 1148.21 Q165.186 1151.75 165.186 1158.88 Q165.186 1165.99 166.991 1169.55 Q168.82 1173.09 172.431 1173.09 Q176.065 1173.09 177.871 1169.55 Q179.7 1165.99 179.7 1158.88 Q179.7 1151.75 177.871 1148.21 Q176.065 1144.64 172.431 1144.64 M172.431 1140.94 Q178.241 1140.94 181.297 1145.55 Q184.376 1150.13 184.376 1158.88 Q184.376 1167.61 181.297 1172.21 Q178.241 1176.8 172.431 1176.8 Q166.621 1176.8 163.542 1172.21 Q160.487 1167.61 160.487 1158.88 Q160.487 1150.13 163.542 1145.55 Q166.621 1140.94 172.431 1140.94 Z" fill="#000000" fill-rule="evenodd" fill-opacity="1" /><path clip-path="url(#clip000)" d="M 0 0 M192.639 1141.56 L210.996 1141.56 L210.996 1145.5 L196.922 1145.5 L196.922 1153.97 Q197.94 1153.62 198.959 1153.46 Q199.977 1153.28 200.996 1153.28 Q206.783 1153.28 210.162 1156.45 Q213.542 1159.62 213.542 1165.04 Q213.542 1170.61 210.07 1173.72 Q206.598 1176.8 200.278 1176.8 Q198.102 1176.8 195.834 1176.43 Q193.588 1176.05 191.181 1175.31 L191.181 1170.61 Q193.264 1171.75 195.487 1172.3 Q197.709 1172.86 200.186 1172.86 Q204.19 1172.86 206.528 1170.75 Q208.866 1168.65 208.866 1165.04 Q208.866 1161.43 206.528 1159.32 Q204.19 1157.21 200.186 1157.21 Q198.311 1157.21 196.436 1157.63 Q194.584 1158.05 192.639 1158.93 L192.639 1141.56 Z" fill="#000000" fill-rule="evenodd" fill-opacity="1" /><path clip-path="url(#clip000)" d="M 0 0 M126.205 919.249 Q122.593 919.249 120.765 922.814 Q118.959 926.355 118.959 933.485 Q118.959 940.591 120.765 944.156 Q122.593 947.698 126.205 947.698 Q129.839 947.698 131.644 944.156 Q133.473 940.591 133.473 933.485 Q133.473 926.355 131.644 922.814 Q129.839 919.249 126.205 919.249 M126.205 915.545 Q132.015 915.545 135.07 920.152 Q138.149 924.735 138.149 933.485 Q138.149 942.212 135.07 946.818 Q132.015 951.401 126.205 951.401 Q120.394 951.401 117.316 946.818 Q114.26 942.212 114.26 933.485 Q114.26 924.735 117.316 920.152 Q120.394 915.545 126.205 915.545 Z" fill="#000000" fill-rule="evenodd" fill-opacity="1" /><path clip-path="url(#clip000)" d="M 0 0 M146.366 944.851 L151.251 944.851 L151.251 950.73 L146.366 950.73 L146.366 944.851 Z" fill="#000000" fill-rule="evenodd" fill-opacity="1" /><path clip-path="url(#clip000)" d="M 0 0 M162.246 946.795 L169.885 946.795 L169.885 920.429 L161.575 922.096 L161.575 917.837 L169.839 916.17 L174.514 916.17 L174.514 946.795 L182.153 946.795 L182.153 950.73 L162.246 950.73 L162.246 946.795 Z" fill="#000000" fill-rule="evenodd" fill-opacity="1" /><path clip-path="url(#clip000)" d="M 0 0 M201.598 919.249 Q197.987 919.249 196.158 922.814 Q194.352 926.355 194.352 933.485 Q194.352 940.591 196.158 944.156 Q197.987 947.698 201.598 947.698 Q205.232 947.698 207.037 944.156 Q208.866 940.591 208.866 933.485 Q208.866 926.355 207.037 922.814 Q205.232 919.249 201.598 919.249 M201.598 915.545 Q207.408 915.545 210.463 920.152 Q213.542 924.735 213.542 933.485 Q213.542 942.212 210.463 946.818 Q207.408 951.401 201.598 951.401 Q195.787 951.401 192.709 946.818 Q189.653 942.212 189.653 933.485 Q189.653 924.735 192.709 920.152 Q195.787 915.545 201.598 915.545 Z" fill="#000000" fill-rule="evenodd" fill-opacity="1" /><path clip-path="url(#clip000)" d="M 0 0 M127.2 693.855 Q123.589 693.855 121.76 697.42 Q119.955 700.961 119.955 708.091 Q119.955 715.197 121.76 718.762 Q123.589 722.304 127.2 722.304 Q130.834 722.304 132.64 718.762 Q134.468 715.197 134.468 708.091 Q134.468 700.961 132.64 697.42 Q130.834 693.855 127.2 693.855 M127.2 690.151 Q133.01 690.151 136.066 694.758 Q139.144 699.341 139.144 708.091 Q139.144 716.818 136.066 721.424 Q133.01 726.007 127.2 726.007 Q121.39 726.007 118.311 721.424 Q115.256 716.818 115.256 708.091 Q115.256 699.341 118.311 694.758 Q121.39 690.151 127.2 690.151 Z" fill="#000000" fill-rule="evenodd" fill-opacity="1" /><path clip-path="url(#clip000)" d="M 0 0 M147.362 719.456 L152.246 719.456 L152.246 725.336 L147.362 725.336 L147.362 719.456 Z" fill="#000000" fill-rule="evenodd" fill-opacity="1" /><path clip-path="url(#clip000)" d="M 0 0 M163.241 721.401 L170.88 721.401 L170.88 695.035 L162.57 696.702 L162.57 692.443 L170.834 690.776 L175.51 690.776 L175.51 721.401 L183.149 721.401 L183.149 725.336 L163.241 725.336 L163.241 721.401 Z" fill="#000000" fill-rule="evenodd" fill-opacity="1" /><path clip-path="url(#clip000)" d="M 0 0 M192.639 690.776 L210.996 690.776 L210.996 694.711 L196.922 694.711 L196.922 703.183 Q197.94 702.836 198.959 702.674 Q199.977 702.489 200.996 702.489 Q206.783 702.489 210.162 705.66 Q213.542 708.832 213.542 714.248 Q213.542 719.827 210.07 722.929 Q206.598 726.007 200.278 726.007 Q198.102 726.007 195.834 725.637 Q193.588 725.267 191.181 724.526 L191.181 719.827 Q193.264 720.961 195.487 721.517 Q197.709 722.072 200.186 722.072 Q204.19 722.072 206.528 719.966 Q208.866 717.859 208.866 714.248 Q208.866 710.637 206.528 708.531 Q204.19 706.424 200.186 706.424 Q198.311 706.424 196.436 706.841 Q194.584 707.257 192.639 708.137 L192.639 690.776 Z" fill="#000000" fill-rule="evenodd" fill-opacity="1" /><path clip-path="url(#clip000)" d="M 0 0 M126.205 468.461 Q122.593 468.461 120.765 472.026 Q118.959 475.567 118.959 482.697 Q118.959 489.803 120.765 493.368 Q122.593 496.91 126.205 496.91 Q129.839 496.91 131.644 493.368 Q133.473 489.803 133.473 482.697 Q133.473 475.567 131.644 472.026 Q129.839 468.461 126.205 468.461 M126.205 464.757 Q132.015 464.757 135.07 469.363 Q138.149 473.947 138.149 482.697 Q138.149 491.424 135.07 496.03 Q132.015 500.613 126.205 500.613 Q120.394 500.613 117.316 496.03 Q114.26 491.424 114.26 482.697 Q114.26 473.947 117.316 469.363 Q120.394 464.757 126.205 464.757 Z" fill="#000000" fill-rule="evenodd" fill-opacity="1" /><path clip-path="url(#clip000)" d="M 0 0 M146.366 494.062 L151.251 494.062 L151.251 499.942 L146.366 499.942 L146.366 494.062 Z" fill="#000000" fill-rule="evenodd" fill-opacity="1" /><path clip-path="url(#clip000)" d="M 0 0 M165.464 496.007 L181.783 496.007 L181.783 499.942 L159.839 499.942 L159.839 496.007 Q162.501 493.252 167.084 488.623 Q171.69 483.97 172.871 482.627 Q175.116 480.104 175.996 478.368 Q176.899 476.609 176.899 474.919 Q176.899 472.164 174.954 470.428 Q173.033 468.692 169.931 468.692 Q167.732 468.692 165.278 469.456 Q162.848 470.22 160.07 471.771 L160.07 467.049 Q162.894 465.914 165.348 465.336 Q167.802 464.757 169.839 464.757 Q175.209 464.757 178.403 467.442 Q181.598 470.127 181.598 474.618 Q181.598 476.748 180.788 478.669 Q180.001 480.567 177.894 483.16 Q177.315 483.831 174.214 487.049 Q171.112 490.243 165.464 496.007 Z" fill="#000000" fill-rule="evenodd" fill-opacity="1" /><path clip-path="url(#clip000)" d="M 0 0 M201.598 468.461 Q197.987 468.461 196.158 472.026 Q194.352 475.567 194.352 482.697 Q194.352 489.803 196.158 493.368 Q197.987 496.91 201.598 496.91 Q205.232 496.91 207.037 493.368 Q208.866 489.803 208.866 482.697 Q208.866 475.567 207.037 472.026 Q205.232 468.461 201.598 468.461 M201.598 464.757 Q207.408 464.757 210.463 469.363 Q213.542 473.947 213.542 482.697 Q213.542 491.424 210.463 496.03 Q207.408 500.613 201.598 500.613 Q195.787 500.613 192.709 496.03 Q189.653 491.424 189.653 482.697 Q189.653 473.947 192.709 469.363 Q195.787 464.757 201.598 464.757 Z" fill="#000000" fill-rule="evenodd" fill-opacity="1" /><path clip-path="url(#clip000)" d="M 0 0 M127.2 243.067 Q123.589 243.067 121.76 246.631 Q119.955 250.173 119.955 257.303 Q119.955 264.409 121.76 267.974 Q123.589 271.516 127.2 271.516 Q130.834 271.516 132.64 267.974 Q134.468 264.409 134.468 257.303 Q134.468 250.173 132.64 246.631 Q130.834 243.067 127.2 243.067 M127.2 239.363 Q133.01 239.363 136.066 243.969 Q139.144 248.553 139.144 257.303 Q139.144 266.03 136.066 270.636 Q133.01 275.219 127.2 275.219 Q121.39 275.219 118.311 270.636 Q115.256 266.03 115.256 257.303 Q115.256 248.553 118.311 243.969 Q121.39 239.363 127.2 239.363 Z" fill="#000000" fill-rule="evenodd" fill-opacity="1" /><path clip-path="url(#clip000)" d="M 0 0 M147.362 268.668 L152.246 268.668 L152.246 274.548 L147.362 274.548 L147.362 268.668 Z" fill="#000000" fill-rule="evenodd" fill-opacity="1" /><path clip-path="url(#clip000)" d="M 0 0 M166.459 270.613 L182.778 270.613 L182.778 274.548 L160.834 274.548 L160.834 270.613 Q163.496 267.858 168.079 263.229 Q172.686 258.576 173.866 257.233 Q176.112 254.71 176.991 252.974 Q177.894 251.215 177.894 249.525 Q177.894 246.77 175.95 245.034 Q174.028 243.298 170.927 243.298 Q168.727 243.298 166.274 244.062 Q163.843 244.826 161.065 246.377 L161.065 241.655 Q163.89 240.52 166.343 239.942 Q168.797 239.363 170.834 239.363 Q176.204 239.363 179.399 242.048 Q182.593 244.733 182.593 249.224 Q182.593 251.354 181.783 253.275 Q180.996 255.173 178.889 257.766 Q178.311 258.437 175.209 261.655 Q172.107 264.849 166.459 270.613 Z" fill="#000000" fill-rule="evenodd" fill-opacity="1" /><path clip-path="url(#clip000)" d="M 0 0 M192.639 239.988 L210.996 239.988 L210.996 243.923 L196.922 243.923 L196.922 252.395 Q197.94 252.048 198.959 251.886 Q199.977 251.701 200.996 251.701 Q206.783 251.701 210.162 254.872 Q213.542 258.043 213.542 263.46 Q213.542 269.039 210.07 272.141 Q206.598 275.219 200.278 275.219 Q198.102 275.219 195.834 274.849 Q193.588 274.479 191.181 273.738 L191.181 269.039 Q193.264 270.173 195.487 270.729 Q197.709 271.284 200.186 271.284 Q204.19 271.284 206.528 269.178 Q208.866 267.071 208.866 263.46 Q208.866 259.849 206.528 257.743 Q204.19 255.636 200.186 255.636 Q198.311 255.636 196.436 256.053 Q194.584 256.469 192.639 257.349 L192.639 239.988 Z" fill="#000000" fill-rule="evenodd" fill-opacity="1" /><path clip-path="url(#clip000)" d="M 0 0 M21.7677 781.268 L39.6235 781.268 L39.6235 773.183 Q39.6235 768.696 37.3 766.245 Q34.9765 763.794 30.6797 763.794 Q26.4147 763.794 24.0912 766.245 Q21.7677 768.696 21.7677 773.183 L21.7677 781.268 M16.4842 787.697 L16.4842 773.183 Q16.4842 765.194 20.1126 761.12 Q23.7092 757.015 30.6797 757.015 Q37.7138 757.015 41.3104 761.12 Q44.907 765.194 44.907 773.183 L44.907 781.268 L64.0042 781.268 L64.0042 787.697 L16.4842 787.697 Z" fill="#000000" fill-rule="evenodd" fill-opacity="1" /><path clip-path="url(#clip000)" d="M 0 0 M14.5426 734.575 Q21.8632 738.84 29.0246 740.909 Q36.186 742.978 43.5384 742.978 Q50.8908 742.978 58.1159 740.909 Q65.3091 738.809 72.5979 734.575 L72.5979 739.668 Q65.1182 744.442 57.8931 746.829 Q50.668 749.185 43.5384 749.185 Q36.4406 749.185 29.2474 746.829 Q22.0542 744.474 14.5426 739.668 L14.5426 734.575 Z" fill="#000000" fill-rule="evenodd" fill-opacity="1" /><path clip-path="url(#clip000)" d="M 0 0 M33.8307 702.556 Q33.2578 703.543 33.0032 704.72 Q32.7167 705.866 32.7167 707.267 Q32.7167 712.232 35.9632 714.905 Q39.1779 717.547 45.2253 717.547 L64.0042 717.547 L64.0042 723.435 L28.3562 723.435 L28.3562 717.547 L33.8944 717.547 Q30.6479 715.701 29.0883 712.741 Q27.4968 709.781 27.4968 705.548 Q27.4968 704.943 27.5923 704.211 Q27.656 703.479 27.8151 702.588 L33.8307 702.556 Z" fill="#000000" fill-rule="evenodd" fill-opacity="1" /><path clip-path="url(#clip000)" d="M 0 0 M14.5426 697.336 L14.5426 692.243 Q22.0542 687.469 29.2474 685.114 Q36.4406 682.727 43.5384 682.727 Q50.668 682.727 57.8931 685.114 Q65.1182 687.469 72.5979 692.243 L72.5979 697.336 Q65.3091 693.103 58.1159 691.034 Q50.8908 688.933 43.5384 688.933 Q36.186 688.933 29.0246 691.034 Q21.8632 693.103 14.5426 697.336 Z" fill="#000000" fill-rule="evenodd" fill-opacity="1" /><path clip-path="url(#clip002)" d="
M365.223 763.624 L365.223 1384.24 L521.21 1384.24 L521.21 763.624 L365.223 763.624 L365.223 763.624  Z
  " fill="#009af9" fill-rule="evenodd" fill-opacity="1"/>
<polyline clip-path="url(#clip002)" style="stroke:#009af9; stroke-width:4; stroke-opacity:1; fill:none" points="
  365.223,763.624 365.223,1384.24 521.21,1384.24 521.21,763.624 365.223,763.624 
  "/>
<path clip-path="url(#clip002)" d="
M521.21 161.722 L521.21 1384.24 L677.198 1384.24 L677.198 161.722 L521.21 161.722 L521.21 161.722  Z
  " fill="#009af9" fill-rule="evenodd" fill-opacity="1"/>
<polyline clip-path="url(#clip002)" style="stroke:#009af9; stroke-width:4; stroke-opacity:1; fill:none" points="
  521.21,161.722 521.21,1384.24 677.198,1384.24 677.198,161.722 521.21,161.722 
  "/>
<path clip-path="url(#clip002)" d="
M677.198 154.413 L677.198 1384.24 L833.186 1384.24 L833.186 154.413 L677.198 154.413 L677.198 154.413  Z
  " fill="#009af9" fill-rule="evenodd" fill-opacity="1"/>
<polyline clip-path="url(#clip002)" style="stroke:#009af9; stroke-width:4; stroke-opacity:1; fill:none" points="
  677.198,154.413 677.198,1384.24 833.186,1384.24 833.186,154.413 677.198,154.413 
  "/>
<path clip-path="url(#clip002)" d="
M833.186 582.498 L833.186 1384.24 L989.173 1384.24 L989.173 582.498 L833.186 582.498 L833.186 582.498  Z
  " fill="#009af9" fill-rule="evenodd" fill-opacity="1"/>
<polyline clip-path="url(#clip002)" style="stroke:#009af9; stroke-width:4; stroke-opacity:1; fill:none" points="
  833.186,582.498 833.186,1384.24 989.173,1384.24 989.173,582.498 833.186,582.498 
  "/>
<path clip-path="url(#clip002)" d="
M989.173 983.393 L989.173 1384.24 L1145.16 1384.24 L1145.16 983.393 L989.173 983.393 L989.173 983.393  Z
  " fill="#009af9" fill-rule="evenodd" fill-opacity="1"/>
<polyline clip-path="url(#clip002)" style="stroke:#009af9; stroke-width:4; stroke-opacity:1; fill:none" points="
  989.173,983.393 989.173,1384.24 1145.16,1384.24 1145.16,983.393 989.173,983.393 
  "/>
<path clip-path="url(#clip002)" d="
M1145.16 1227.48 L1145.16 1384.24 L1301.15 1384.24 L1301.15 1227.48 L1145.16 1227.48 L1145.16 1227.48  Z
  " fill="#009af9" fill-rule="evenodd" fill-opacity="1"/>
<polyline clip-path="url(#clip002)" style="stroke:#009af9; stroke-width:4; stroke-opacity:1; fill:none" points="
  1145.16,1227.48 1145.16,1384.24 1301.15,1384.24 1301.15,1227.48 1145.16,1227.48 
  "/>
<path clip-path="url(#clip002)" d="
M1301.15 1330 L1301.15 1384.24 L1457.14 1384.24 L1457.14 1330 L1301.15 1330 L1301.15 1330  Z
  " fill="#009af9" fill-rule="evenodd" fill-opacity="1"/>
<polyline clip-path="url(#clip002)" style="stroke:#009af9; stroke-width:4; stroke-opacity:1; fill:none" points="
  1301.15,1330 1301.15,1384.24 1457.14,1384.24 1457.14,1330 1301.15,1330 
  "/>
<path clip-path="url(#clip002)" d="
M1457.14 1368.11 L1457.14 1384.24 L1613.12 1384.24 L1613.12 1368.11 L1457.14 1368.11 L1457.14 1368.11  Z
  " fill="#009af9" fill-rule="evenodd" fill-opacity="1"/>
<polyline clip-path="url(#clip002)" style="stroke:#009af9; stroke-width:4; stroke-opacity:1; fill:none" points="
  1457.14,1368.11 1457.14,1384.24 1613.12,1384.24 1613.12,1368.11 1457.14,1368.11 
  "/>
<path clip-path="url(#clip002)" d="
M1613.12 1380.49 L1613.12 1384.24 L1769.11 1384.24 L1769.11 1380.49 L1613.12 1380.49 L1613.12 1380.49  Z
  " fill="#009af9" fill-rule="evenodd" fill-opacity="1"/>
<polyline clip-path="url(#clip002)" style="stroke:#009af9; stroke-width:4; stroke-opacity:1; fill:none" points="
  1613.12,1380.49 1613.12,1384.24 1769.11,1384.24 1769.11,1380.49 1613.12,1380.49 
  "/>
<path clip-path="url(#clip002)" d="
M1769.11 1383.02 L1769.11 1384.24 L1925.1 1384.24 L1925.1 1383.02 L1769.11 1383.02 L1769.11 1383.02  Z
  " fill="#009af9" fill-rule="evenodd" fill-opacity="1"/>
<polyline clip-path="url(#clip002)" style="stroke:#009af9; stroke-width:4; stroke-opacity:1; fill:none" points="
  1769.11,1383.02 1769.11,1384.24 1925.1,1384.24 1925.1,1383.02 1769.11,1383.02 
  "/>
<path clip-path="url(#clip002)" d="
M1925.1 1384.04 L1925.1 1384.24 L2081.09 1384.24 L2081.09 1384.04 L1925.1 1384.04 L1925.1 1384.04  Z
  " fill="#009af9" fill-rule="evenodd" fill-opacity="1"/>
<polyline clip-path="url(#clip002)" style="stroke:#009af9; stroke-width:4; stroke-opacity:1; fill:none" points="
  1925.1,1384.04 1925.1,1384.24 2081.09,1384.24 2081.09,1384.04 1925.1,1384.04 
  "/>
<path clip-path="url(#clip002)" d="
M2081.09 1384.19 L2081.09 1384.24 L2237.08 1384.24 L2237.08 1384.19 L2081.09 1384.19 L2081.09 1384.19  Z
  " fill="#009af9" fill-rule="evenodd" fill-opacity="1"/>
<polyline clip-path="url(#clip002)" style="stroke:#009af9; stroke-width:4; stroke-opacity:1; fill:none" points="
  2081.09,1384.19 2081.09,1384.24 2237.08,1384.24 2237.08,1384.19 2081.09,1384.19 
  "/>
<polyline clip-path="url(#clip002)" style="stroke:#e26f46; stroke-width:12; stroke-opacity:1; fill:none" points="
  365.223,916.424 380.821,868.515 396.42,818.535 412.019,766.805 427.618,713.707 443.216,659.674 458.815,605.192 474.414,550.791 490.013,497.038 505.612,444.529 
  521.21,393.876 536.809,345.699 552.408,300.61 568.007,259.202 583.605,222.038 599.204,189.634 614.803,162.451 630.402,140.881 646,125.242 661.599,115.764 
  677.198,112.588 692.797,115.764 708.396,125.242 723.994,140.881 739.593,162.451 755.192,189.634 770.791,222.038 786.389,259.202 801.988,300.61 817.587,345.699 
  833.186,393.876 848.785,444.529 864.383,497.038 879.982,550.791 895.581,605.192 911.18,659.674 926.778,713.707 942.377,766.805 957.976,818.535 973.575,868.515 
  989.173,916.424 1004.77,962 1020.37,1005.04 1035.97,1045.38 1051.57,1082.95 1067.17,1117.69 1082.77,1149.59 1098.36,1178.71 1113.96,1205.12 1129.56,1228.91 
  1145.16,1250.21 1160.76,1269.16 1176.36,1285.93 1191.96,1300.68 1207.56,1313.56 1223.16,1324.76 1238.75,1334.44 1254.35,1342.74 1269.95,1349.84 1285.55,1355.86 
  1301.15,1360.95 1316.75,1365.22 1332.35,1368.78 1347.95,1371.74 1363.54,1374.18 1379.14,1376.19 1394.74,1377.83 1410.34,1379.16 1425.94,1380.23 1441.54,1381.09 
  1457.14,1381.78 1472.74,1382.33 1488.33,1382.76 1503.93,1383.1 1519.53,1383.37 1535.13,1383.58 1550.73,1383.74 1566.33,1383.86 1581.93,1383.96 1597.53,1384.03 
  1613.12,1384.08 1628.72,1384.12 1644.32,1384.15 1659.92,1384.18 1675.52,1384.19 1691.12,1384.21 1706.72,1384.21 1722.32,1384.22 1737.91,1384.23 1753.51,1384.23 
  1769.11,1384.23 1784.71,1384.23 1800.31,1384.24 1815.91,1384.24 1831.51,1384.24 1847.11,1384.24 1862.7,1384.24 1878.3,1384.24 1893.9,1384.24 1909.5,1384.24 
  1925.1,1384.24 1940.7,1384.24 1956.3,1384.24 1971.9,1384.24 1987.5,1384.24 2003.09,1384.24 2018.69,1384.24 2034.29,1384.24 2049.89,1384.24 2065.49,1384.24 
  2081.09,1384.24 
  "/>
<polyline clip-path="url(#clip002)" style="stroke:#3da44d; stroke-width:12; stroke-opacity:1; fill:none" points="
  365.223,774.163 380.821,696.939 396.42,620.988 412.019,547.341 427.618,476.955 443.216,410.699 458.815,349.336 474.414,293.518 490.013,243.782 505.612,200.54 
  521.21,164.088 536.809,134.603 552.408,112.154 568.007,96.7038 583.605,88.1198 599.204,86.1857 614.803,90.61 630.402,101.038 646,117.064 661.599,138.24 
  677.198,164.088 692.797,194.11 708.396,227.798 723.994,264.643 739.593,304.14 755.192,345.796 770.791,389.14 786.389,433.72 801.988,479.114 817.587,524.929 
  833.186,570.804 848.785,616.413 864.383,661.463 879.982,705.696 895.581,748.886 911.18,790.843 926.778,831.406 942.377,870.445 957.976,907.857 973.575,943.567 
  989.173,977.521 1004.77,1009.69 1020.37,1040.06 1035.97,1068.64 1051.57,1095.44 1067.17,1120.51 1082.77,1143.88 1098.36,1165.6 1113.96,1185.75 1129.56,1204.37 
  1145.16,1221.55 1160.76,1237.36 1176.36,1251.86 1191.96,1265.14 1207.56,1277.28 1223.16,1288.34 1238.75,1298.39 1254.35,1307.52 1269.95,1315.79 1285.55,1323.27 
  1301.15,1330.01 1316.75,1336.08 1332.35,1341.54 1347.95,1346.43 1363.54,1350.81 1379.14,1354.73 1394.74,1358.23 1410.34,1361.34 1425.94,1364.11 1441.54,1366.57 
  1457.14,1368.74 1472.74,1370.67 1488.33,1372.38 1503.93,1373.88 1519.53,1375.2 1535.13,1376.37 1550.73,1377.39 1566.33,1378.29 1581.93,1379.08 1597.53,1379.76 
  1613.12,1380.36 1628.72,1380.89 1644.32,1381.35 1659.92,1381.74 1675.52,1382.09 1691.12,1382.39 1706.72,1382.65 1722.32,1382.87 1737.91,1383.07 1753.51,1383.23 
  1769.11,1383.38 1784.71,1383.5 1800.31,1383.61 1815.91,1383.7 1831.51,1383.78 1847.11,1383.85 1862.7,1383.91 1878.3,1383.96 1893.9,1384 1909.5,1384.04 
  1925.1,1384.07 1940.7,1384.09 1956.3,1384.11 1971.9,1384.13 1987.5,1384.15 2003.09,1384.16 2018.69,1384.18 2034.29,1384.19 2049.89,1384.19 2065.49,1384.2 
  2081.09,1384.21 
  "/>
<path clip-path="url(#clip000)" d="
M1778.33 335.029 L2282.65 335.029 L2282.65 93.1086 L1778.33 93.1086  Z
  " fill="#ffffff" fill-rule="evenodd" fill-opacity="1"/>
<polyline clip-path="url(#clip000)" style="stroke:#000000; stroke-width:4; stroke-opacity:1; fill:none" points="
  1778.33,335.029 2282.65,335.029 2282.65,93.1086 1778.33,93.1086 1778.33,335.029 
  "/>
<path clip-path="url(#clip000)" d="
M1801.7 177.781 L1941.92 177.781 L1941.92 129.397 L1801.7 129.397 L1801.7 177.781  Z
  " fill="#009af9" fill-rule="evenodd" fill-opacity="1"/>
<polyline clip-path="url(#clip000)" style="stroke:#009af9; stroke-width:4; stroke-opacity:1; fill:none" points="
  1801.7,177.781 1941.92,177.781 1941.92,129.397 1801.7,129.397 1801.7,177.781 
  "/>
<path clip-path="url(#clip000)" d="M 0 0 M1979.13 173.276 Q1977.32 177.906 1975.61 179.318 Q1973.9 180.73 1971.03 180.73 L1967.63 180.73 L1967.63 177.165 L1970.13 177.165 Q1971.88 177.165 1972.86 176.332 Q1973.83 175.498 1975.01 172.396 L1975.77 170.452 L1965.29 144.943 L1969.8 144.943 L1977.9 165.221 L1986 144.943 L1990.52 144.943 L1979.13 173.276 Z" fill="#000000" fill-rule="evenodd" fill-opacity="1" /><path clip-path="url(#clip000)" d="M 0 0 M1997.81 166.933 L2005.45 166.933 L2005.45 140.568 L1997.14 142.235 L1997.14 137.975 L2005.4 136.309 L2010.08 136.309 L2010.08 166.933 L2017.72 166.933 L2017.72 170.869 L1997.81 170.869 L1997.81 166.933 Z" fill="#000000" fill-rule="evenodd" fill-opacity="1" /><polyline clip-path="url(#clip000)" style="stroke:#e26f46; stroke-width:4; stroke-opacity:1; fill:none" points="
  1801.7,214.069 1941.92,214.069 
  "/>
<path clip-path="url(#clip000)" d="M 0 0 M1984.2 218.085 Q1984.2 213.455 1982.28 210.909 Q1980.38 208.363 1976.93 208.363 Q1973.5 208.363 1971.58 210.909 Q1969.69 213.455 1969.69 218.085 Q1969.69 222.691 1971.58 225.238 Q1973.5 227.784 1976.93 227.784 Q1980.38 227.784 1982.28 225.238 Q1984.2 222.691 1984.2 218.085 M1988.46 228.131 Q1988.46 234.751 1985.52 237.969 Q1982.58 241.21 1976.51 241.21 Q1974.27 241.21 1972.28 240.862 Q1970.29 240.538 1968.41 239.844 L1968.41 235.7 Q1970.29 236.719 1972.12 237.205 Q1973.94 237.691 1975.84 237.691 Q1980.03 237.691 1982.12 235.492 Q1984.2 233.316 1984.2 228.895 L1984.2 226.788 Q1982.88 229.08 1980.82 230.214 Q1978.76 231.349 1975.89 231.349 Q1971.12 231.349 1968.2 227.714 Q1965.29 224.08 1965.29 218.085 Q1965.29 212.066 1968.2 208.432 Q1971.12 204.798 1975.89 204.798 Q1978.76 204.798 1980.82 205.932 Q1982.88 207.066 1984.2 209.358 L1984.2 205.423 L1988.46 205.423 L1988.46 228.131 Z" fill="#000000" fill-rule="evenodd" fill-opacity="1" /><path clip-path="url(#clip000)" d="M 0 0 M2009.01 218.316 Q2003.85 218.316 2001.86 219.497 Q1999.87 220.677 1999.87 223.525 Q1999.87 225.793 2001.35 227.136 Q2002.86 228.455 2005.43 228.455 Q2008.97 228.455 2011.1 225.955 Q2013.25 223.432 2013.25 219.265 L2013.25 218.316 L2009.01 218.316 M2017.51 216.557 L2017.51 231.349 L2013.25 231.349 L2013.25 227.413 Q2011.79 229.775 2009.62 230.909 Q2007.44 232.02 2004.29 232.02 Q2000.31 232.02 1997.95 229.798 Q1995.61 227.552 1995.61 223.802 Q1995.61 219.427 1998.53 217.205 Q2001.47 214.983 2007.28 214.983 L2013.25 214.983 L2013.25 214.566 Q2013.25 211.627 2011.31 210.029 Q2009.38 208.409 2005.89 208.409 Q2003.67 208.409 2001.56 208.941 Q1999.45 209.474 1997.51 210.539 L1997.51 206.603 Q1999.85 205.701 2002.05 205.261 Q2004.25 204.798 2006.33 204.798 Q2011.95 204.798 2014.73 207.714 Q2017.51 210.631 2017.51 216.557 Z" fill="#000000" fill-rule="evenodd" fill-opacity="1" /><path clip-path="url(#clip000)" d="M 0 0 M2025.84 221.117 L2025.84 205.423 L2030.1 205.423 L2030.1 220.955 Q2030.1 224.636 2031.54 226.488 Q2032.97 228.316 2035.84 228.316 Q2039.29 228.316 2041.28 226.117 Q2043.3 223.918 2043.3 220.122 L2043.3 205.423 L2047.56 205.423 L2047.56 231.349 L2043.3 231.349 L2043.3 227.367 Q2041.75 229.728 2039.68 230.886 Q2037.65 232.02 2034.94 232.02 Q2030.47 232.02 2028.16 229.242 Q2025.84 226.464 2025.84 221.117 M2036.56 204.798 L2036.56 204.798 Z" fill="#000000" fill-rule="evenodd" fill-opacity="1" /><path clip-path="url(#clip000)" d="M 0 0 M2072.86 206.187 L2072.86 210.214 Q2071.05 209.289 2069.11 208.826 Q2067.16 208.363 2065.08 208.363 Q2061.91 208.363 2060.31 209.335 Q2058.74 210.307 2058.74 212.251 Q2058.74 213.733 2059.87 214.589 Q2061 215.423 2064.43 216.187 L2065.89 216.511 Q2070.43 217.483 2072.32 219.265 Q2074.24 221.025 2074.24 224.196 Q2074.24 227.807 2071.37 229.913 Q2068.53 232.02 2063.53 232.02 Q2061.44 232.02 2059.18 231.603 Q2056.93 231.21 2054.43 230.4 L2054.43 226.001 Q2056.79 227.228 2059.08 227.853 Q2061.37 228.455 2063.62 228.455 Q2066.63 228.455 2068.25 227.437 Q2069.87 226.395 2069.87 224.52 Q2069.87 222.784 2068.69 221.858 Q2067.53 220.932 2063.57 220.076 L2062.09 219.728 Q2058.13 218.895 2056.37 217.182 Q2054.62 215.446 2054.62 212.437 Q2054.62 208.779 2057.21 206.789 Q2059.8 204.798 2064.57 204.798 Q2066.93 204.798 2069.01 205.145 Q2071.1 205.492 2072.86 206.187 Z" fill="#000000" fill-rule="evenodd" fill-opacity="1" /><path clip-path="url(#clip000)" d="M 0 0 M2097.55 206.187 L2097.55 210.214 Q2095.75 209.289 2093.8 208.826 Q2091.86 208.363 2089.78 208.363 Q2086.61 208.363 2085.01 209.335 Q2083.43 210.307 2083.43 212.251 Q2083.43 213.733 2084.57 214.589 Q2085.7 215.423 2089.13 216.187 L2090.59 216.511 Q2095.12 217.483 2097.02 219.265 Q2098.94 221.025 2098.94 224.196 Q2098.94 227.807 2096.07 229.913 Q2093.23 232.02 2088.23 232.02 Q2086.14 232.02 2083.87 231.603 Q2081.63 231.21 2079.13 230.4 L2079.13 226.001 Q2081.49 227.228 2083.78 227.853 Q2086.07 228.455 2088.32 228.455 Q2091.33 228.455 2092.95 227.437 Q2094.57 226.395 2094.57 224.52 Q2094.57 222.784 2093.39 221.858 Q2092.23 220.932 2088.27 220.076 L2086.79 219.728 Q2082.83 218.895 2081.07 217.182 Q2079.31 215.446 2079.31 212.437 Q2079.31 208.779 2081.91 206.789 Q2084.5 204.798 2089.27 204.798 Q2091.63 204.798 2093.71 205.145 Q2095.8 205.492 2097.55 206.187 Z" fill="#000000" fill-rule="evenodd" fill-opacity="1" /><path clip-path="url(#clip000)" d="M 0 0 M2105.73 205.423 L2109.99 205.423 L2109.99 231.349 L2105.73 231.349 L2105.73 205.423 M2105.73 195.33 L2109.99 195.33 L2109.99 200.724 L2105.73 200.724 L2105.73 195.33 Z" fill="#000000" fill-rule="evenodd" fill-opacity="1" /><path clip-path="url(#clip000)" d="M 0 0 M2130.68 218.316 Q2125.52 218.316 2123.53 219.497 Q2121.54 220.677 2121.54 223.525 Q2121.54 225.793 2123.02 227.136 Q2124.52 228.455 2127.09 228.455 Q2130.63 228.455 2132.76 225.955 Q2134.92 223.432 2134.92 219.265 L2134.92 218.316 L2130.68 218.316 M2139.18 216.557 L2139.18 231.349 L2134.92 231.349 L2134.92 227.413 Q2133.46 229.775 2131.28 230.909 Q2129.11 232.02 2125.96 232.02 Q2121.98 232.02 2119.62 229.798 Q2117.28 227.552 2117.28 223.802 Q2117.28 219.427 2120.19 217.205 Q2123.13 214.983 2128.94 214.983 L2134.92 214.983 L2134.92 214.566 Q2134.92 211.627 2132.97 210.029 Q2131.05 208.409 2127.55 208.409 Q2125.33 208.409 2123.23 208.941 Q2121.12 209.474 2119.18 210.539 L2119.18 206.603 Q2121.51 205.701 2123.71 205.261 Q2125.91 204.798 2127.99 204.798 Q2133.62 204.798 2136.4 207.714 Q2139.18 210.631 2139.18 216.557 Z" fill="#000000" fill-rule="evenodd" fill-opacity="1" /><path clip-path="url(#clip000)" d="M 0 0 M2169.5 215.701 L2169.5 231.349 L2165.24 231.349 L2165.24 215.839 Q2165.24 212.159 2163.8 210.33 Q2162.37 208.502 2159.5 208.502 Q2156.05 208.502 2154.06 210.701 Q2152.07 212.9 2152.07 216.696 L2152.07 231.349 L2147.79 231.349 L2147.79 205.423 L2152.07 205.423 L2152.07 209.451 Q2153.6 207.113 2155.66 205.955 Q2157.74 204.798 2160.45 204.798 Q2164.92 204.798 2167.21 207.576 Q2169.5 210.33 2169.5 215.701 Z" fill="#000000" fill-rule="evenodd" fill-opacity="1" /><path clip-path="url(#clip000)" d="M 0 0 M2206.19 195.33 L2206.19 198.872 L2202.11 198.872 Q2199.82 198.872 2198.92 199.798 Q2198.04 200.724 2198.04 203.131 L2198.04 205.423 L2205.05 205.423 L2205.05 208.733 L2198.04 208.733 L2198.04 231.349 L2193.76 231.349 L2193.76 208.733 L2189.68 208.733 L2189.68 205.423 L2193.76 205.423 L2193.76 203.617 Q2193.76 199.289 2195.77 197.321 Q2197.79 195.33 2202.16 195.33 L2206.19 195.33 Z" fill="#000000" fill-rule="evenodd" fill-opacity="1" /><path clip-path="url(#clip000)" d="M 0 0 M2209.75 205.423 L2214.01 205.423 L2214.01 231.349 L2209.75 231.349 L2209.75 205.423 M2209.75 195.33 L2214.01 195.33 L2214.01 200.724 L2209.75 200.724 L2209.75 195.33 Z" fill="#000000" fill-rule="evenodd" fill-opacity="1" /><path clip-path="url(#clip000)" d="M 0 0 M2227.14 198.062 L2227.14 205.423 L2235.91 205.423 L2235.91 208.733 L2227.14 208.733 L2227.14 222.807 Q2227.14 225.978 2227.99 226.881 Q2228.87 227.784 2231.54 227.784 L2235.91 227.784 L2235.91 231.349 L2231.54 231.349 Q2226.61 231.349 2224.73 229.52 Q2222.86 227.668 2222.86 222.807 L2222.86 208.733 L2219.73 208.733 L2219.73 205.423 L2222.86 205.423 L2222.86 198.062 L2227.14 198.062 Z" fill="#000000" fill-rule="evenodd" fill-opacity="1" /><polyline clip-path="url(#clip000)" style="stroke:#3da44d; stroke-width:4; stroke-opacity:1; fill:none" points="
  1801.7,274.549 1941.92,274.549 
  "/>
<path clip-path="url(#clip000)" d="M 0 0 M1969.57 287.94 L1969.57 301.69 L1965.29 301.69 L1965.29 265.903 L1969.57 265.903 L1969.57 269.838 Q1970.91 267.523 1972.95 266.412 Q1975.01 265.278 1977.86 265.278 Q1982.58 265.278 1985.52 269.028 Q1988.48 272.778 1988.48 278.889 Q1988.48 285 1985.52 288.75 Q1982.58 292.5 1977.86 292.5 Q1975.01 292.5 1972.95 291.389 Q1970.91 290.255 1969.57 287.94 M1984.06 278.889 Q1984.06 274.19 1982.12 271.528 Q1980.19 268.843 1976.81 268.843 Q1973.44 268.843 1971.49 271.528 Q1969.57 274.19 1969.57 278.889 Q1969.57 283.588 1971.49 286.273 Q1973.44 288.935 1976.81 288.935 Q1980.19 288.935 1982.12 286.273 Q1984.06 283.588 1984.06 278.889 Z" fill="#000000" fill-rule="evenodd" fill-opacity="1" /><path clip-path="url(#clip000)" d="M 0 0 M2005.59 268.889 Q2002.16 268.889 2000.17 271.574 Q1998.18 274.236 1998.18 278.889 Q1998.18 283.542 2000.15 286.227 Q2002.14 288.889 2005.59 288.889 Q2008.99 288.889 2010.98 286.204 Q2012.97 283.518 2012.97 278.889 Q2012.97 274.282 2010.98 271.597 Q2008.99 268.889 2005.59 268.889 M2005.59 265.278 Q2011.14 265.278 2014.31 268.889 Q2017.49 272.5 2017.49 278.889 Q2017.49 285.255 2014.31 288.889 Q2011.14 292.5 2005.59 292.5 Q2000.01 292.5 1996.84 288.889 Q1993.69 285.255 1993.69 278.889 Q1993.69 272.5 1996.84 268.889 Q2000.01 265.278 2005.59 265.278 Z" fill="#000000" fill-rule="evenodd" fill-opacity="1" /><path clip-path="url(#clip000)" d="M 0 0 M2024.55 265.903 L2028.81 265.903 L2028.81 291.829 L2024.55 291.829 L2024.55 265.903 M2024.55 255.81 L2028.81 255.81 L2028.81 261.204 L2024.55 261.204 L2024.55 255.81 Z" fill="#000000" fill-rule="evenodd" fill-opacity="1" /><path clip-path="url(#clip000)" d="M 0 0 M2054.24 266.667 L2054.24 270.694 Q2052.44 269.769 2050.5 269.306 Q2048.55 268.843 2046.47 268.843 Q2043.3 268.843 2041.7 269.815 Q2040.12 270.787 2040.12 272.731 Q2040.12 274.213 2041.26 275.069 Q2042.39 275.903 2045.82 276.667 L2047.28 276.991 Q2051.81 277.963 2053.71 279.745 Q2055.63 281.505 2055.63 284.676 Q2055.63 288.287 2052.76 290.393 Q2049.92 292.5 2044.92 292.5 Q2042.83 292.5 2040.56 292.083 Q2038.32 291.69 2035.82 290.88 L2035.82 286.481 Q2038.18 287.708 2040.47 288.333 Q2042.76 288.935 2045.01 288.935 Q2048.02 288.935 2049.64 287.917 Q2051.26 286.875 2051.26 285 Q2051.26 283.264 2050.08 282.338 Q2048.92 281.412 2044.96 280.556 L2043.48 280.208 Q2039.52 279.375 2037.76 277.662 Q2036 275.926 2036 272.917 Q2036 269.259 2038.6 267.269 Q2041.19 265.278 2045.96 265.278 Q2048.32 265.278 2050.4 265.625 Q2052.49 265.972 2054.24 266.667 Z" fill="#000000" fill-rule="evenodd" fill-opacity="1" /><path clip-path="url(#clip000)" d="M 0 0 M2078.94 266.667 L2078.94 270.694 Q2077.14 269.769 2075.19 269.306 Q2073.25 268.843 2071.17 268.843 Q2067.99 268.843 2066.4 269.815 Q2064.82 270.787 2064.82 272.731 Q2064.82 274.213 2065.96 275.069 Q2067.09 275.903 2070.52 276.667 L2071.98 276.991 Q2076.51 277.963 2078.41 279.745 Q2080.33 281.505 2080.33 284.676 Q2080.33 288.287 2077.46 290.393 Q2074.62 292.5 2069.62 292.5 Q2067.53 292.5 2065.26 292.083 Q2063.02 291.69 2060.52 290.88 L2060.52 286.481 Q2062.88 287.708 2065.17 288.333 Q2067.46 288.935 2069.71 288.935 Q2072.72 288.935 2074.34 287.917 Q2075.96 286.875 2075.96 285 Q2075.96 283.264 2074.78 282.338 Q2073.62 281.412 2069.66 280.556 L2068.18 280.208 Q2064.22 279.375 2062.46 277.662 Q2060.7 275.926 2060.7 272.917 Q2060.7 269.259 2063.3 267.269 Q2065.89 265.278 2070.66 265.278 Q2073.02 265.278 2075.1 265.625 Q2077.18 265.972 2078.94 266.667 Z" fill="#000000" fill-rule="evenodd" fill-opacity="1" /><path clip-path="url(#clip000)" d="M 0 0 M2097.16 268.889 Q2093.74 268.889 2091.74 271.574 Q2089.75 274.236 2089.75 278.889 Q2089.75 283.542 2091.72 286.227 Q2093.71 288.889 2097.16 288.889 Q2100.56 288.889 2102.55 286.204 Q2104.55 283.518 2104.55 278.889 Q2104.55 274.282 2102.55 271.597 Q2100.56 268.889 2097.16 268.889 M2097.16 265.278 Q2102.72 265.278 2105.89 268.889 Q2109.06 272.5 2109.06 278.889 Q2109.06 285.255 2105.89 288.889 Q2102.72 292.5 2097.16 292.5 Q2091.58 292.5 2088.41 288.889 Q2085.26 285.255 2085.26 278.889 Q2085.26 272.5 2088.41 268.889 Q2091.58 265.278 2097.16 265.278 Z" fill="#000000" fill-rule="evenodd" fill-opacity="1" /><path clip-path="url(#clip000)" d="M 0 0 M2137.67 276.181 L2137.67 291.829 L2133.41 291.829 L2133.41 276.319 Q2133.41 272.639 2131.98 270.81 Q2130.54 268.982 2127.67 268.982 Q2124.22 268.982 2122.23 271.181 Q2120.24 273.38 2120.24 277.176 L2120.24 291.829 L2115.96 291.829 L2115.96 265.903 L2120.24 265.903 L2120.24 269.931 Q2121.77 267.593 2123.83 266.435 Q2125.91 265.278 2128.62 265.278 Q2133.09 265.278 2135.38 268.056 Q2137.67 270.81 2137.67 276.181 Z" fill="#000000" fill-rule="evenodd" fill-opacity="1" /><path clip-path="url(#clip000)" d="M 0 0 M2174.36 255.81 L2174.36 259.352 L2170.29 259.352 Q2167.99 259.352 2167.09 260.278 Q2166.21 261.204 2166.21 263.611 L2166.21 265.903 L2173.23 265.903 L2173.23 269.213 L2166.21 269.213 L2166.21 291.829 L2161.93 291.829 L2161.93 269.213 L2157.86 269.213 L2157.86 265.903 L2161.93 265.903 L2161.93 264.097 Q2161.93 259.769 2163.94 257.801 Q2165.96 255.81 2170.33 255.81 L2174.36 255.81 Z" fill="#000000" fill-rule="evenodd" fill-opacity="1" /><path clip-path="url(#clip000)" d="M 0 0 M2177.92 265.903 L2182.18 265.903 L2182.18 291.829 L2177.92 291.829 L2177.92 265.903 M2177.92 255.81 L2182.18 255.81 L2182.18 261.204 L2177.92 261.204 L2177.92 255.81 Z" fill="#000000" fill-rule="evenodd" fill-opacity="1" /><path clip-path="url(#clip000)" d="M 0 0 M2195.31 258.542 L2195.31 265.903 L2204.08 265.903 L2204.08 269.213 L2195.31 269.213 L2195.31 283.287 Q2195.31 286.458 2196.17 287.361 Q2197.05 288.264 2199.71 288.264 L2204.08 288.264 L2204.08 291.829 L2199.71 291.829 Q2194.78 291.829 2192.9 290 Q2191.03 288.148 2191.03 283.287 L2191.03 269.213 L2187.9 269.213 L2187.9 265.903 L2191.03 265.903 L2191.03 258.542 L2195.31 258.542 Z" fill="#000000" fill-rule="evenodd" fill-opacity="1" /></svg>
