<?xml version="1.0" encoding="utf-8"?>
<svg xmlns="http://www.w3.org/2000/svg" xmlns:xlink="http://www.w3.org/1999/xlink" width="600" height="400" viewBox="0 0 2400 1600">
<defs>
  <clipPath id="clip030">
    <rect x="0" y="0" width="2400" height="1600"/>
  </clipPath>
</defs>
<path clip-path="url(#clip030)" d="
M0 1600 L2400 1600 L2400 0 L0 0  Z
  " fill="#ffffff" fill-rule="evenodd" fill-opacity="1"/>
<defs>
  <clipPath id="clip031">
    <rect x="480" y="0" width="1681" height="1600"/>
  </clipPath>
</defs>
<path clip-path="url(#clip030)" d="
M219.866 1423.18 L2352.76 1423.18 L2352.76 47.2441 L219.866 47.2441  Z
  " fill="#ffffff" fill-rule="evenodd" fill-opacity="1"/>
<defs>
  <clipPath id="clip032">
    <rect x="219" y="47" width="2134" height="1377"/>
  </clipPath>
</defs>
<polyline clip-path="url(#clip032)" style="stroke:#000000; stroke-width:2; stroke-opacity:0.1; fill:none" points="
  337.179,1423.18 337.179,47.2441 
  "/>
<polyline clip-path="url(#clip032)" style="stroke:#000000; stroke-width:2; stroke-opacity:0.1; fill:none" points="
  759.015,1423.18 759.015,47.2441 
  "/>
<polyline clip-path="url(#clip032)" style="stroke:#000000; stroke-width:2; stroke-opacity:0.1; fill:none" points="
  1180.85,1423.18 1180.85,47.2441 
  "/>
<polyline clip-path="url(#clip032)" style="stroke:#000000; stroke-width:2; stroke-opacity:0.1; fill:none" points="
  1602.69,1423.18 1602.69,47.2441 
  "/>
<polyline clip-path="url(#clip032)" style="stroke:#000000; stroke-width:2; stroke-opacity:0.1; fill:none" points="
  2024.52,1423.18 2024.52,47.2441 
  "/>
<polyline clip-path="url(#clip030)" style="stroke:#000000; stroke-width:4; stroke-opacity:1; fill:none" points="
  219.866,1423.18 2352.76,1423.18 
  "/>
<polyline clip-path="url(#clip030)" style="stroke:#000000; stroke-width:4; stroke-opacity:1; fill:none" points="
  337.179,1423.18 337.179,1406.67 
  "/>
<polyline clip-path="url(#clip030)" style="stroke:#000000; stroke-width:4; stroke-opacity:1; fill:none" points="
  759.015,1423.18 759.015,1406.67 
  "/>
<polyline clip-path="url(#clip030)" style="stroke:#000000; stroke-width:4; stroke-opacity:1; fill:none" points="
  1180.85,1423.18 1180.85,1406.67 
  "/>
<polyline clip-path="url(#clip030)" style="stroke:#000000; stroke-width:4; stroke-opacity:1; fill:none" points="
  1602.69,1423.18 1602.69,1406.67 
  "/>
<polyline clip-path="url(#clip030)" style="stroke:#000000; stroke-width:4; stroke-opacity:1; fill:none" points="
  2024.52,1423.18 2024.52,1406.67 
  "/>
<path clip-path="url(#clip030)" d="M 0 0 M337.179 1452.37 Q333.568 1452.37 331.739 1455.94 Q329.934 1459.48 329.934 1466.61 Q329.934 1473.71 331.739 1477.28 Q333.568 1480.82 337.179 1480.82 Q340.813 1480.82 342.619 1477.28 Q344.447 1473.71 344.447 1466.61 Q344.447 1459.48 342.619 1455.94 Q340.813 1452.37 337.179 1452.37 M337.179 1448.67 Q342.989 1448.67 346.045 1453.27 Q349.123 1457.86 349.123 1466.61 Q349.123 1475.33 346.045 1479.94 Q342.989 1484.52 337.179 1484.52 Q331.369 1484.52 328.29 1479.94 Q325.235 1475.33 325.235 1466.61 Q325.235 1457.86 328.29 1453.27 Q331.369 1448.67 337.179 1448.67 Z" fill="#000000" fill-rule="evenodd" fill-opacity="1" /><path clip-path="url(#clip030)" d="M 0 0 M753.668 1479.92 L769.988 1479.92 L769.988 1483.85 L748.043 1483.85 L748.043 1479.92 Q750.705 1477.16 755.289 1472.53 Q759.895 1467.88 761.076 1466.54 Q763.321 1464.01 764.201 1462.28 Q765.103 1460.52 765.103 1458.83 Q765.103 1456.07 763.159 1454.34 Q761.238 1452.6 758.136 1452.6 Q755.937 1452.6 753.483 1453.37 Q751.053 1454.13 748.275 1455.68 L748.275 1450.96 Q751.099 1449.82 753.553 1449.25 Q756.006 1448.67 758.043 1448.67 Q763.414 1448.67 766.608 1451.35 Q769.802 1454.04 769.802 1458.53 Q769.802 1460.66 768.992 1462.58 Q768.205 1464.48 766.099 1467.07 Q765.52 1467.74 762.418 1470.96 Q759.316 1474.15 753.668 1479.92 Z" fill="#000000" fill-rule="evenodd" fill-opacity="1" /><path clip-path="url(#clip030)" d="M 0 0 M1183.86 1453.37 L1172.06 1471.81 L1183.86 1471.81 L1183.86 1453.37 M1182.63 1449.29 L1188.51 1449.29 L1188.51 1471.81 L1193.44 1471.81 L1193.44 1475.7 L1188.51 1475.7 L1188.51 1483.85 L1183.86 1483.85 L1183.86 1475.7 L1168.26 1475.7 L1168.26 1471.19 L1182.63 1449.29 Z" fill="#000000" fill-rule="evenodd" fill-opacity="1" /><path clip-path="url(#clip030)" d="M 0 0 M1603.09 1464.71 Q1599.95 1464.71 1598.09 1466.86 Q1596.26 1469.01 1596.26 1472.76 Q1596.26 1476.49 1598.09 1478.67 Q1599.95 1480.82 1603.09 1480.82 Q1606.24 1480.82 1608.07 1478.67 Q1609.92 1476.49 1609.92 1472.76 Q1609.92 1469.01 1608.07 1466.86 Q1606.24 1464.71 1603.09 1464.71 M1612.38 1450.06 L1612.38 1454.31 Q1610.62 1453.48 1608.81 1453.04 Q1607.03 1452.6 1605.27 1452.6 Q1600.64 1452.6 1598.19 1455.73 Q1595.76 1458.85 1595.41 1465.17 Q1596.77 1463.16 1598.83 1462.09 Q1600.89 1461 1603.37 1461 Q1608.58 1461 1611.59 1464.18 Q1614.62 1467.32 1614.62 1472.76 Q1614.62 1478.09 1611.47 1481.31 Q1608.32 1484.52 1603.09 1484.52 Q1597.1 1484.52 1593.93 1479.94 Q1590.76 1475.33 1590.76 1466.61 Q1590.76 1458.41 1594.64 1453.55 Q1598.53 1448.67 1605.08 1448.67 Q1606.84 1448.67 1608.63 1449.01 Q1610.43 1449.36 1612.38 1450.06 Z" fill="#000000" fill-rule="evenodd" fill-opacity="1" /><path clip-path="url(#clip030)" d="M 0 0 M2024.52 1467.44 Q2021.19 1467.44 2019.27 1469.22 Q2017.37 1471 2017.37 1474.13 Q2017.37 1477.25 2019.27 1479.04 Q2021.19 1480.82 2024.52 1480.82 Q2027.86 1480.82 2029.78 1479.04 Q2031.7 1477.23 2031.7 1474.13 Q2031.7 1471 2029.78 1469.22 Q2027.88 1467.44 2024.52 1467.44 M2019.85 1465.45 Q2016.84 1464.71 2015.15 1462.65 Q2013.48 1460.59 2013.48 1457.63 Q2013.48 1453.48 2016.42 1451.07 Q2019.39 1448.67 2024.52 1448.67 Q2029.69 1448.67 2032.63 1451.07 Q2035.57 1453.48 2035.57 1457.63 Q2035.57 1460.59 2033.88 1462.65 Q2032.21 1464.71 2029.22 1465.45 Q2032.6 1466.24 2034.48 1468.53 Q2036.38 1470.82 2036.38 1474.13 Q2036.38 1479.15 2033.3 1481.84 Q2030.24 1484.52 2024.52 1484.52 Q2018.81 1484.52 2015.73 1481.84 Q2012.67 1479.15 2012.67 1474.13 Q2012.67 1470.82 2014.57 1468.53 Q2016.47 1466.24 2019.85 1465.45 M2018.14 1458.06 Q2018.14 1460.75 2019.8 1462.25 Q2021.49 1463.76 2024.52 1463.76 Q2027.53 1463.76 2029.22 1462.25 Q2030.94 1460.75 2030.94 1458.06 Q2030.94 1455.38 2029.22 1453.88 Q2027.53 1452.37 2024.52 1452.37 Q2021.49 1452.37 2019.8 1453.88 Q2018.14 1455.38 2018.14 1458.06 Z" fill="#000000" fill-rule="evenodd" fill-opacity="1" /><path clip-path="url(#clip030)" d="M 0 0 M1296.75 1537.87 Q1295.76 1537.3 1294.59 1537.04 Q1293.44 1536.76 1292.04 1536.76 Q1287.07 1536.76 1284.4 1540 Q1281.76 1543.22 1281.76 1549.27 L1281.76 1568.04 L1275.87 1568.04 L1275.87 1532.4 L1281.76 1532.4 L1281.76 1537.93 Q1283.61 1534.69 1286.57 1533.13 Q1289.53 1531.54 1293.76 1531.54 Q1294.36 1531.54 1295.1 1531.63 Q1295.83 1531.7 1296.72 1531.85 L1296.75 1537.87 Z" fill="#000000" fill-rule="evenodd" fill-opacity="1" /><polyline clip-path="url(#clip032)" style="stroke:#000000; stroke-width:2; stroke-opacity:0.1; fill:none" points="
  219.866,1384.24 2352.76,1384.24 
  "/>
<polyline clip-path="url(#clip032)" style="stroke:#000000; stroke-width:2; stroke-opacity:0.1; fill:none" points="
  219.866,1071.54 2352.76,1071.54 
  "/>
<polyline clip-path="url(#clip032)" style="stroke:#000000; stroke-width:2; stroke-opacity:0.1; fill:none" points="
  219.866,758.833 2352.76,758.833 
  "/>
<polyline clip-path="url(#clip032)" style="stroke:#000000; stroke-width:2; stroke-opacity:0.1; fill:none" points="
  219.866,446.13 2352.76,446.13 
  "/>
<polyline clip-path="url(#clip032)" style="stroke:#000000; stroke-width:2; stroke-opacity:0.1; fill:none" points="
  219.866,133.427 2352.76,133.427 
  "/>
<polyline clip-path="url(#clip030)" style="stroke:#000000; stroke-width:4; stroke-opacity:1; fill:none" points="
  219.866,1423.18 219.866,47.2441 
  "/>
<polyline clip-path="url(#clip030)" style="stroke:#000000; stroke-width:4; stroke-opacity:1; fill:none" points="
  219.866,1384.24 245.461,1384.24 
  "/>
<polyline clip-path="url(#clip030)" style="stroke:#000000; stroke-width:4; stroke-opacity:1; fill:none" points="
  219.866,1071.54 245.461,1071.54 
  "/>
<polyline clip-path="url(#clip030)" style="stroke:#000000; stroke-width:4; stroke-opacity:1; fill:none" points="
  219.866,758.833 245.461,758.833 
  "/>
<polyline clip-path="url(#clip030)" style="stroke:#000000; stroke-width:4; stroke-opacity:1; fill:none" points="
  219.866,446.13 245.461,446.13 
  "/>
<polyline clip-path="url(#clip030)" style="stroke:#000000; stroke-width:4; stroke-opacity:1; fill:none" points="
  219.866,133.427 245.461,133.427 
  "/>
<path clip-path="url(#clip030)" d="M 0 0 M126.691 1370.04 Q123.08 1370.04 121.251 1373.6 Q119.445 1377.14 119.445 1384.27 Q119.445 1391.38 121.251 1394.94 Q123.08 1398.49 126.691 1398.49 Q130.325 1398.49 132.13 1394.94 Q133.959 1391.38 133.959 1384.27 Q133.959 1377.14 132.13 1373.6 Q130.325 1370.04 126.691 1370.04 M126.691 1366.33 Q132.501 1366.33 135.556 1370.94 Q138.635 1375.52 138.635 1384.27 Q138.635 1393 135.556 1397.61 Q132.501 1402.19 126.691 1402.19 Q120.88 1402.19 117.802 1397.61 Q114.746 1393 114.746 1384.27 Q114.746 1375.52 117.802 1370.94 Q120.88 1366.33 126.691 1366.33 Z" fill="#000000" fill-rule="evenodd" fill-opacity="1" /><path clip-path="url(#clip030)" d="M 0 0 M146.853 1395.64 L151.737 1395.64 L151.737 1401.52 L146.853 1401.52 L146.853 1395.64 Z" fill="#000000" fill-rule="evenodd" fill-opacity="1" /><path clip-path="url(#clip030)" d="M 0 0 M171.922 1370.04 Q168.311 1370.04 166.482 1373.6 Q164.677 1377.14 164.677 1384.27 Q164.677 1391.38 166.482 1394.94 Q168.311 1398.49 171.922 1398.49 Q175.556 1398.49 177.362 1394.94 Q179.19 1391.38 179.19 1384.27 Q179.19 1377.14 177.362 1373.6 Q175.556 1370.04 171.922 1370.04 M171.922 1366.33 Q177.732 1366.33 180.788 1370.94 Q183.866 1375.52 183.866 1384.27 Q183.866 1393 180.788 1397.61 Q177.732 1402.19 171.922 1402.19 Q166.112 1402.19 163.033 1397.61 Q159.978 1393 159.978 1384.27 Q159.978 1375.52 163.033 1370.94 Q166.112 1366.33 171.922 1366.33 Z" fill="#000000" fill-rule="evenodd" fill-opacity="1" /><path clip-path="url(#clip030)" d="M 0 0 M127.917 1057.33 Q124.306 1057.33 122.478 1060.9 Q120.672 1064.44 120.672 1071.57 Q120.672 1078.68 122.478 1082.24 Q124.306 1085.78 127.917 1085.78 Q131.552 1085.78 133.357 1082.24 Q135.186 1078.68 135.186 1071.57 Q135.186 1064.44 133.357 1060.9 Q131.552 1057.33 127.917 1057.33 M127.917 1053.63 Q133.728 1053.63 136.783 1058.24 Q139.862 1062.82 139.862 1071.57 Q139.862 1080.3 136.783 1084.9 Q133.728 1089.49 127.917 1089.49 Q122.107 1089.49 119.029 1084.9 Q115.973 1080.3 115.973 1071.57 Q115.973 1062.82 119.029 1058.24 Q122.107 1053.63 127.917 1053.63 Z" fill="#000000" fill-rule="evenodd" fill-opacity="1" /><path clip-path="url(#clip030)" d="M 0 0 M148.079 1082.94 L152.964 1082.94 L152.964 1088.82 L148.079 1088.82 L148.079 1082.94 Z" fill="#000000" fill-rule="evenodd" fill-opacity="1" /><path clip-path="url(#clip030)" d="M 0 0 M163.959 1084.88 L171.598 1084.88 L171.598 1058.51 L163.288 1060.18 L163.288 1055.92 L171.552 1054.26 L176.227 1054.26 L176.227 1084.88 L183.866 1084.88 L183.866 1088.82 L163.959 1088.82 L163.959 1084.88 Z" fill="#000000" fill-rule="evenodd" fill-opacity="1" /><path clip-path="url(#clip030)" d="M 0 0 M128.288 744.631 Q124.677 744.631 122.848 748.196 Q121.043 751.738 121.043 758.867 Q121.043 765.974 122.848 769.539 Q124.677 773.08 128.288 773.08 Q131.922 773.08 133.728 769.539 Q135.556 765.974 135.556 758.867 Q135.556 751.738 133.728 748.196 Q131.922 744.631 128.288 744.631 M128.288 740.928 Q134.098 740.928 137.154 745.534 Q140.232 750.118 140.232 758.867 Q140.232 767.594 137.154 772.201 Q134.098 776.784 128.288 776.784 Q122.478 776.784 119.399 772.201 Q116.343 767.594 116.343 758.867 Q116.343 750.118 119.399 745.534 Q122.478 740.928 128.288 740.928 Z" fill="#000000" fill-rule="evenodd" fill-opacity="1" /><path clip-path="url(#clip030)" d="M 0 0 M148.45 770.233 L153.334 770.233 L153.334 776.113 L148.45 776.113 L148.45 770.233 Z" fill="#000000" fill-rule="evenodd" fill-opacity="1" /><path clip-path="url(#clip030)" d="M 0 0 M167.547 772.178 L183.866 772.178 L183.866 776.113 L161.922 776.113 L161.922 772.178 Q164.584 769.423 169.167 764.793 Q173.774 760.141 174.954 758.798 Q177.2 756.275 178.079 754.539 Q178.982 752.78 178.982 751.09 Q178.982 748.335 177.038 746.599 Q175.116 744.863 172.014 744.863 Q169.815 744.863 167.362 745.627 Q164.931 746.391 162.153 747.942 L162.153 743.219 Q164.977 742.085 167.431 741.506 Q169.885 740.928 171.922 740.928 Q177.292 740.928 180.487 743.613 Q183.681 746.298 183.681 750.789 Q183.681 752.918 182.871 754.84 Q182.084 756.738 179.977 759.33 Q179.399 760.002 176.297 763.219 Q173.195 766.414 167.547 772.178 Z" fill="#000000" fill-rule="evenodd" fill-opacity="1" /><path clip-path="url(#clip030)" d="M 0 0 M127.339 431.929 Q123.728 431.929 121.899 435.493 Q120.093 439.035 120.093 446.165 Q120.093 453.271 121.899 456.836 Q123.728 460.378 127.339 460.378 Q130.973 460.378 132.779 456.836 Q134.607 453.271 134.607 446.165 Q134.607 439.035 132.779 435.493 Q130.973 431.929 127.339 431.929 M127.339 428.225 Q133.149 428.225 136.204 432.831 Q139.283 437.415 139.283 446.165 Q139.283 454.892 136.204 459.498 Q133.149 464.081 127.339 464.081 Q121.529 464.081 118.45 459.498 Q115.394 454.892 115.394 446.165 Q115.394 437.415 118.45 432.831 Q121.529 428.225 127.339 428.225 Z" fill="#000000" fill-rule="evenodd" fill-opacity="1" /><path clip-path="url(#clip030)" d="M 0 0 M147.501 457.53 L152.385 457.53 L152.385 463.41 L147.501 463.41 L147.501 457.53 Z" fill="#000000" fill-rule="evenodd" fill-opacity="1" /><path clip-path="url(#clip030)" d="M 0 0 M176.737 444.776 Q180.093 445.493 181.968 447.762 Q183.866 450.03 183.866 453.364 Q183.866 458.479 180.348 461.28 Q176.829 464.081 170.348 464.081 Q168.172 464.081 165.857 463.641 Q163.565 463.225 161.112 462.368 L161.112 457.854 Q163.056 458.989 165.371 459.567 Q167.686 460.146 170.209 460.146 Q174.607 460.146 176.899 458.41 Q179.214 456.674 179.214 453.364 Q179.214 450.308 177.061 448.595 Q174.931 446.859 171.112 446.859 L167.084 446.859 L167.084 443.017 L171.297 443.017 Q174.746 443.017 176.575 441.651 Q178.403 440.262 178.403 437.669 Q178.403 435.007 176.505 433.595 Q174.63 432.16 171.112 432.16 Q169.19 432.16 166.991 432.577 Q164.792 432.993 162.153 433.873 L162.153 429.706 Q164.815 428.966 167.13 428.595 Q169.468 428.225 171.528 428.225 Q176.852 428.225 179.954 430.656 Q183.056 433.063 183.056 437.183 Q183.056 440.054 181.413 442.044 Q179.769 444.012 176.737 444.776 Z" fill="#000000" fill-rule="evenodd" fill-opacity="1" /><path clip-path="url(#clip030)" d="M 0 0 M126.205 119.226 Q122.593 119.226 120.765 122.791 Q118.959 126.332 118.959 133.462 Q118.959 140.568 120.765 144.133 Q122.593 147.675 126.205 147.675 Q129.839 147.675 131.644 144.133 Q133.473 140.568 133.473 133.462 Q133.473 126.332 131.644 122.791 Q129.839 119.226 126.205 119.226 M126.205 115.522 Q132.015 115.522 135.07 120.129 Q138.149 124.712 138.149 133.462 Q138.149 142.189 135.07 146.795 Q132.015 151.379 126.205 151.379 Q120.394 151.379 117.316 146.795 Q114.26 142.189 114.26 133.462 Q114.26 124.712 117.316 120.129 Q120.394 115.522 126.205 115.522 Z" fill="#000000" fill-rule="evenodd" fill-opacity="1" /><path clip-path="url(#clip030)" d="M 0 0 M146.366 144.828 L151.251 144.828 L151.251 150.707 L146.366 150.707 L146.366 144.828 Z" fill="#000000" fill-rule="evenodd" fill-opacity="1" /><path clip-path="url(#clip030)" d="M 0 0 M174.283 120.221 L162.477 138.67 L174.283 138.67 L174.283 120.221 M173.056 116.147 L178.936 116.147 L178.936 138.67 L183.866 138.67 L183.866 142.559 L178.936 142.559 L178.936 150.707 L174.283 150.707 L174.283 142.559 L158.681 142.559 L158.681 138.045 L173.056 116.147 Z" fill="#000000" fill-rule="evenodd" fill-opacity="1" /><path clip-path="url(#clip030)" d="M 0 0 M21.7677 781.268 L39.6235 781.268 L39.6235 773.183 Q39.6235 768.696 37.3 766.245 Q34.9765 763.794 30.6797 763.794 Q26.4147 763.794 24.0912 766.245 Q21.7677 768.696 21.7677 773.183 L21.7677 781.268 M16.4842 787.697 L16.4842 773.183 Q16.4842 765.194 20.1126 761.12 Q23.7092 757.015 30.6797 757.015 Q37.7138 757.015 41.3104 761.12 Q44.907 765.194 44.907 773.183 L44.907 781.268 L64.0042 781.268 L64.0042 787.697 L16.4842 787.697 Z" fill="#000000" fill-rule="evenodd" fill-opacity="1" /><path clip-path="url(#clip030)" d="M 0 0 M14.5426 734.575 Q21.8632 738.84 29.0246 740.909 Q36.186 742.978 43.5384 742.978 Q50.8908 742.978 58.1159 740.909 Q65.3091 738.809 72.5979 734.575 L72.5979 739.668 Q65.1182 744.442 57.8931 746.829 Q50.668 749.185 43.5384 749.185 Q36.4406 749.185 29.2474 746.829 Q22.0542 744.474 14.5426 739.668 L14.5426 734.575 Z" fill="#000000" fill-rule="evenodd" fill-opacity="1" /><path clip-path="url(#clip030)" d="M 0 0 M33.8307 702.556 Q33.2578 703.543 33.0032 704.72 Q32.7167 705.866 32.7167 707.267 Q32.7167 712.232 35.9632 714.905 Q39.1779 717.547 45.2253 717.547 L64.0042 717.547 L64.0042 723.435 L28.3562 723.435 L28.3562 717.547 L33.8944 717.547 Q30.6479 715.701 29.0883 712.741 Q27.4968 709.781 27.4968 705.548 Q27.4968 704.943 27.5923 704.211 Q27.656 703.479 27.8151 702.588 L33.8307 702.556 Z" fill="#000000" fill-rule="evenodd" fill-opacity="1" /><path clip-path="url(#clip030)" d="M 0 0 M14.5426 697.336 L14.5426 692.243 Q22.0542 687.469 29.2474 685.114 Q36.4406 682.727 43.5384 682.727 Q50.668 682.727 57.8931 685.114 Q65.1182 687.469 72.5979 692.243 L72.5979 697.336 Q65.3091 693.103 58.1159 691.034 Q50.8908 688.933 43.5384 688.933 Q36.186 688.933 29.0246 691.034 Q21.8632 693.103 14.5426 697.336 Z" fill="#000000" fill-rule="evenodd" fill-opacity="1" /><path clip-path="url(#clip032)" d="
M337.179 220.015 L337.179 1384.24 L548.097 1384.24 L548.097 220.015 L337.179 220.015 L337.179 220.015  Z
  " fill="#009af9" fill-rule="evenodd" fill-opacity="1"/>
<polyline clip-path="url(#clip032)" style="stroke:#009af9; stroke-width:4; stroke-opacity:1; fill:none" points="
  337.179,220.015 337.179,1384.24 548.097,1384.24 548.097,220.015 337.179,220.015 
  "/>
<path clip-path="url(#clip032)" d="
M548.097 234.72 L548.097 1384.24 L759.015 1384.24 L759.015 234.72 L548.097 234.72 L548.097 234.72  Z
  " fill="#009af9" fill-rule="evenodd" fill-opacity="1"/>
<polyline clip-path="url(#clip032)" style="stroke:#009af9; stroke-width:4; stroke-opacity:1; fill:none" points="
  548.097,234.72 548.097,1384.24 759.015,1384.24 759.015,234.72 548.097,234.72 
  "/>
<path clip-path="url(#clip032)" d="
M759.015 812.301 L759.015 1384.24 L969.934 1384.24 L969.934 812.301 L759.015 812.301 L759.015 812.301  Z
  " fill="#009af9" fill-rule="evenodd" fill-opacity="1"/>
<polyline clip-path="url(#clip032)" style="stroke:#009af9; stroke-width:4; stroke-opacity:1; fill:none" points="
  759.015,812.301 759.015,1384.24 969.934,1384.24 969.934,812.301 759.015,812.301 
  "/>
<path clip-path="url(#clip032)" d="
M969.934 1199.41 L969.934 1384.24 L1180.85 1384.24 L1180.85 1199.41 L969.934 1199.41 L969.934 1199.41  Z
  " fill="#009af9" fill-rule="evenodd" fill-opacity="1"/>
<polyline clip-path="url(#clip032)" style="stroke:#009af9; stroke-width:4; stroke-opacity:1; fill:none" points="
  969.934,1199.41 969.934,1384.24 1180.85,1384.24 1180.85,1199.41 969.934,1199.41 
  "/>
<path clip-path="url(#clip032)" d="
M1180.85 1339.45 L1180.85 1384.24 L1391.77 1384.24 L1391.77 1339.45 L1180.85 1339.45 L1180.85 1339.45  Z
  " fill="#009af9" fill-rule="evenodd" fill-opacity="1"/>
<polyline clip-path="url(#clip032)" style="stroke:#009af9; stroke-width:4; stroke-opacity:1; fill:none" points="
  1180.85,1339.45 1180.85,1384.24 1391.77,1384.24 1391.77,1339.45 1180.85,1339.45 
  "/>
<path clip-path="url(#clip032)" d="
M1391.77 1375.15 L1391.77 1384.24 L1602.69 1384.24 L1602.69 1375.15 L1391.77 1375.15 L1391.77 1375.15  Z
  " fill="#009af9" fill-rule="evenodd" fill-opacity="1"/>
<polyline clip-path="url(#clip032)" style="stroke:#009af9; stroke-width:4; stroke-opacity:1; fill:none" points="
  1391.77,1375.15 1391.77,1384.24 1602.69,1384.24 1602.69,1375.15 1391.77,1375.15 
  "/>
<path clip-path="url(#clip032)" d="
M1602.69 1381.91 L1602.69 1384.24 L1813.61 1384.24 L1813.61 1381.91 L1602.69 1381.91 L1602.69 1381.91  Z
  " fill="#009af9" fill-rule="evenodd" fill-opacity="1"/>
<polyline clip-path="url(#clip032)" style="stroke:#009af9; stroke-width:4; stroke-opacity:1; fill:none" points="
  1602.69,1381.91 1602.69,1384.24 1813.61,1384.24 1813.61,1381.91 1602.69,1381.91 
  "/>
<path clip-path="url(#clip032)" d="
M1813.61 1384 L1813.61 1384.24 L2024.52 1384.24 L2024.52 1384 L1813.61 1384 L1813.61 1384  Z
  " fill="#009af9" fill-rule="evenodd" fill-opacity="1"/>
<polyline clip-path="url(#clip032)" style="stroke:#009af9; stroke-width:4; stroke-opacity:1; fill:none" points="
  1813.61,1384 1813.61,1384.24 2024.52,1384.24 2024.52,1384 1813.61,1384 
  "/>
<path clip-path="url(#clip032)" d="
M2024.52 1384.17 L2024.52 1384.24 L2235.44 1384.24 L2235.44 1384.17 L2024.52 1384.17 L2024.52 1384.17  Z
  " fill="#009af9" fill-rule="evenodd" fill-opacity="1"/>
<polyline clip-path="url(#clip032)" style="stroke:#009af9; stroke-width:4; stroke-opacity:1; fill:none" points="
  2024.52,1384.17 2024.52,1384.24 2235.44,1384.24 2235.44,1384.17 2024.52,1384.17 
  "/>
<polyline clip-path="url(#clip032)" style="stroke:#e26f46; stroke-width:12; stroke-opacity:1; fill:none" points="
  337.179,627.589 358.271,552.182 379.363,478.365 400.454,407.812 421.546,342.236 442.638,283.32 463.73,232.647 484.822,191.628 505.914,161.437 527.005,142.957 
  548.097,136.735 569.189,142.957 590.281,161.437 611.373,191.628 632.465,232.647 653.556,283.32 674.648,342.236 695.74,407.812 716.832,478.365 737.924,552.182 
  759.015,627.589 780.107,703.008 801.199,777.013 822.291,848.364 843.383,916.036 864.475,979.233 885.566,1037.39 906.658,1090.14 927.75,1137.36 948.842,1179.06 
  969.934,1215.41 991.026,1246.7 1012.12,1273.31 1033.21,1295.66 1054.3,1314.21 1075.39,1329.43 1096.48,1341.76 1117.58,1351.65 1138.67,1359.49 1159.76,1365.62 
  1180.85,1370.38 1201.94,1374.02 1223.04,1376.78 1244.13,1378.85 1265.22,1380.39 1286.31,1381.51 1307.4,1382.32 1328.49,1382.91 1349.59,1383.33 1370.68,1383.62 
  1391.77,1383.82 1412.86,1383.96 1433.95,1384.05 1455.05,1384.12 1476.14,1384.16 1497.23,1384.19 1518.32,1384.21 1539.41,1384.22 1560.5,1384.23 1581.6,1384.23 
  1602.69,1384.23 1623.78,1384.24 1644.87,1384.24 1665.96,1384.24 1687.06,1384.24 1708.15,1384.24 1729.24,1384.24 1750.33,1384.24 1771.42,1384.24 1792.51,1384.24 
  1813.61,1384.24 1834.7,1384.24 1855.79,1384.24 1876.88,1384.24 1897.97,1384.24 1919.07,1384.24 1940.16,1384.24 1961.25,1384.24 1982.34,1384.24 2003.43,1384.24 
  2024.52,1384.24 
  "/>
<polyline clip-path="url(#clip032)" style="stroke:#3da44d; stroke-width:12; stroke-opacity:1; fill:none" points="
  337.179,233.869 358.271,175.043 379.363,131.343 400.454,102.448 421.546,87.7026 442.638,86.1857 463.73,96.7739 484.822,118.202 505.914,149.12 527.005,188.137 
  548.097,233.869 569.189,284.97 590.281,340.159 611.373,398.246 632.465,458.141 653.556,518.87 674.648,579.573 695.74,639.511 716.832,698.061 737.924,754.711 
  759.015,809.054 780.107,860.777 801.199,909.657 822.291,955.546 843.383,998.365 864.475,1038.09 885.566,1074.75 906.658,1108.41 927.75,1139.18 948.842,1167.16 
  969.934,1192.51 991.026,1215.38 1012.12,1235.93 1033.21,1254.33 1054.3,1270.75 1075.39,1285.34 1096.48,1298.27 1117.58,1309.69 1138.67,1319.75 1159.76,1328.58 
  1180.85,1336.31 1201.94,1343.05 1223.04,1348.93 1244.13,1354.03 1265.22,1358.44 1286.31,1362.26 1307.4,1365.55 1328.49,1368.38 1349.59,1370.8 1370.68,1372.88 
  1391.77,1374.65 1412.86,1376.16 1433.95,1377.45 1455.05,1378.54 1476.14,1379.46 1497.23,1380.24 1518.32,1380.9 1539.41,1381.46 1560.5,1381.92 1581.6,1382.31 
  1602.69,1382.64 1623.78,1382.91 1644.87,1383.14 1665.96,1383.33 1687.06,1383.49 1708.15,1383.62 1729.24,1383.73 1750.33,1383.82 1771.42,1383.9 1792.51,1383.96 
  1813.61,1384.01 1834.7,1384.05 1855.79,1384.09 1876.88,1384.11 1897.97,1384.14 1919.07,1384.16 1940.16,1384.17 1961.25,1384.18 1982.34,1384.19 2003.43,1384.2 
  2024.52,1384.21 
  "/>
<path clip-path="url(#clip030)" d="
M1774.05 335.029 L2281.66 335.029 L2281.66 93.1086 L1774.05 93.1086  Z
  " fill="#ffffff" fill-rule="evenodd" fill-opacity="1"/>
<polyline clip-path="url(#clip030)" style="stroke:#000000; stroke-width:4; stroke-opacity:1; fill:none" points="
  1774.05,335.029 2281.66,335.029 2281.66,93.1086 1774.05,93.1086 1774.05,335.029 
  "/>
<path clip-path="url(#clip030)" d="
M1797.75 177.781 L1939.94 177.781 L1939.94 129.397 L1797.75 129.397 L1797.75 177.781  Z
  " fill="#009af9" fill-rule="evenodd" fill-opacity="1"/>
<polyline clip-path="url(#clip030)" style="stroke:#009af9; stroke-width:4; stroke-opacity:1; fill:none" points="
  1797.75,177.781 1939.94,177.781 1939.94,129.397 1797.75,129.397 1797.75,177.781 
  "/>
<path clip-path="url(#clip030)" d="M 0 0 M1977.48 173.276 Q1975.68 177.906 1973.96 179.318 Q1972.25 180.73 1969.38 180.73 L1965.98 180.73 L1965.98 177.165 L1968.48 177.165 Q1970.24 177.165 1971.21 176.332 Q1972.18 175.498 1973.36 172.396 L1974.12 170.452 L1963.64 144.943 L1968.15 144.943 L1976.25 165.221 L1984.36 144.943 L1988.87 144.943 L1977.48 173.276 Z" fill="#000000" fill-rule="evenodd" fill-opacity="1" /><path clip-path="url(#clip030)" d="M 0 0 M1996.16 166.933 L2003.8 166.933 L2003.8 140.568 L1995.49 142.235 L1995.49 137.975 L2003.75 136.309 L2008.43 136.309 L2008.43 166.933 L2016.07 166.933 L2016.07 170.869 L1996.16 170.869 L1996.16 166.933 Z" fill="#000000" fill-rule="evenodd" fill-opacity="1" /><polyline clip-path="url(#clip030)" style="stroke:#e26f46; stroke-width:4; stroke-opacity:1; fill:none" points="
  1797.75,214.069 1939.94,214.069 
  "/>
<path clip-path="url(#clip030)" d="M 0 0 M1982.55 218.085 Q1982.55 213.455 1980.63 210.909 Q1978.73 208.363 1975.28 208.363 Q1971.86 208.363 1969.93 210.909 Q1968.04 213.455 1968.04 218.085 Q1968.04 222.691 1969.93 225.238 Q1971.86 227.784 1975.28 227.784 Q1978.73 227.784 1980.63 225.238 Q1982.55 222.691 1982.55 218.085 M1986.81 228.131 Q1986.81 234.751 1983.87 237.969 Q1980.93 241.21 1974.87 241.21 Q1972.62 241.21 1970.63 240.862 Q1968.64 240.538 1966.76 239.844 L1966.76 235.7 Q1968.64 236.719 1970.47 237.205 Q1972.3 237.691 1974.19 237.691 Q1978.38 237.691 1980.47 235.492 Q1982.55 233.316 1982.55 228.895 L1982.55 226.788 Q1981.23 229.08 1979.17 230.214 Q1977.11 231.349 1974.24 231.349 Q1969.47 231.349 1966.56 227.714 Q1963.64 224.08 1963.64 218.085 Q1963.64 212.066 1966.56 208.432 Q1969.47 204.798 1974.24 204.798 Q1977.11 204.798 1979.17 205.932 Q1981.23 207.066 1982.55 209.358 L1982.55 205.423 L1986.81 205.423 L1986.81 228.131 Z" fill="#000000" fill-rule="evenodd" fill-opacity="1" /><path clip-path="url(#clip030)" d="M 0 0 M2007.37 218.316 Q2002.2 218.316 2000.21 219.497 Q1998.22 220.677 1998.22 223.525 Q1998.22 225.793 1999.7 227.136 Q2001.21 228.455 2003.78 228.455 Q2007.32 228.455 2009.45 225.955 Q2011.6 223.432 2011.6 219.265 L2011.6 218.316 L2007.37 218.316 M2015.86 216.557 L2015.86 231.349 L2011.6 231.349 L2011.6 227.413 Q2010.14 229.775 2007.97 230.909 Q2005.79 232.02 2002.64 232.02 Q1998.66 232.02 1996.3 229.798 Q1993.96 227.552 1993.96 223.802 Q1993.96 219.427 1996.88 217.205 Q1999.82 214.983 2005.63 214.983 L2011.6 214.983 L2011.6 214.566 Q2011.6 211.627 2009.66 210.029 Q2007.74 208.409 2004.24 208.409 Q2002.02 208.409 1999.91 208.941 Q1997.8 209.474 1995.86 210.539 L1995.86 206.603 Q1998.2 205.701 2000.4 205.261 Q2002.6 204.798 2004.68 204.798 Q2010.3 204.798 2013.08 207.714 Q2015.86 210.631 2015.86 216.557 Z" fill="#000000" fill-rule="evenodd" fill-opacity="1" /><path clip-path="url(#clip030)" d="M 0 0 M2024.19 221.117 L2024.19 205.423 L2028.45 205.423 L2028.45 220.955 Q2028.45 224.636 2029.89 226.488 Q2031.32 228.316 2034.19 228.316 Q2037.64 228.316 2039.63 226.117 Q2041.65 223.918 2041.65 220.122 L2041.65 205.423 L2045.91 205.423 L2045.91 231.349 L2041.65 231.349 L2041.65 227.367 Q2040.1 229.728 2038.04 230.886 Q2036 232.02 2033.29 232.02 Q2028.82 232.02 2026.51 229.242 Q2024.19 226.464 2024.19 221.117 M2034.91 204.798 L2034.91 204.798 Z" fill="#000000" fill-rule="evenodd" fill-opacity="1" /><path clip-path="url(#clip030)" d="M 0 0 M2071.21 206.187 L2071.21 210.214 Q2069.4 209.289 2067.46 208.826 Q2065.51 208.363 2063.43 208.363 Q2060.26 208.363 2058.66 209.335 Q2057.09 210.307 2057.09 212.251 Q2057.09 213.733 2058.22 214.589 Q2059.36 215.423 2062.78 216.187 L2064.24 216.511 Q2068.78 217.483 2070.67 219.265 Q2072.6 221.025 2072.6 224.196 Q2072.6 227.807 2069.73 229.913 Q2066.88 232.02 2061.88 232.02 Q2059.8 232.02 2057.53 231.603 Q2055.28 231.21 2052.78 230.4 L2052.78 226.001 Q2055.14 227.228 2057.43 227.853 Q2059.73 228.455 2061.97 228.455 Q2064.98 228.455 2066.6 227.437 Q2068.22 226.395 2068.22 224.52 Q2068.22 222.784 2067.04 221.858 Q2065.88 220.932 2061.92 220.076 L2060.44 219.728 Q2056.49 218.895 2054.73 217.182 Q2052.97 215.446 2052.97 212.437 Q2052.97 208.779 2055.56 206.789 Q2058.15 204.798 2062.92 204.798 Q2065.28 204.798 2067.36 205.145 Q2069.45 205.492 2071.21 206.187 Z" fill="#000000" fill-rule="evenodd" fill-opacity="1" /><path clip-path="url(#clip030)" d="M 0 0 M2095.91 206.187 L2095.91 210.214 Q2094.1 209.289 2092.16 208.826 Q2090.21 208.363 2088.13 208.363 Q2084.96 208.363 2083.36 209.335 Q2081.79 210.307 2081.79 212.251 Q2081.79 213.733 2082.92 214.589 Q2084.05 215.423 2087.48 216.187 L2088.94 216.511 Q2093.48 217.483 2095.37 219.265 Q2097.3 221.025 2097.3 224.196 Q2097.3 227.807 2094.42 229.913 Q2091.58 232.02 2086.58 232.02 Q2084.49 232.02 2082.23 231.603 Q2079.98 231.21 2077.48 230.4 L2077.48 226.001 Q2079.84 227.228 2082.13 227.853 Q2084.42 228.455 2086.67 228.455 Q2089.68 228.455 2091.3 227.437 Q2092.92 226.395 2092.92 224.52 Q2092.92 222.784 2091.74 221.858 Q2090.58 220.932 2086.62 220.076 L2085.14 219.728 Q2081.18 218.895 2079.42 217.182 Q2077.67 215.446 2077.67 212.437 Q2077.67 208.779 2080.26 206.789 Q2082.85 204.798 2087.62 204.798 Q2089.98 204.798 2092.06 205.145 Q2094.15 205.492 2095.91 206.187 Z" fill="#000000" fill-rule="evenodd" fill-opacity="1" /><path clip-path="url(#clip030)" d="M 0 0 M2104.08 205.423 L2108.34 205.423 L2108.34 231.349 L2104.08 231.349 L2104.08 205.423 M2104.08 195.33 L2108.34 195.33 L2108.34 200.724 L2104.08 200.724 L2104.08 195.33 Z" fill="#000000" fill-rule="evenodd" fill-opacity="1" /><path clip-path="url(#clip030)" d="M 0 0 M2129.03 218.316 Q2123.87 218.316 2121.88 219.497 Q2119.89 220.677 2119.89 223.525 Q2119.89 225.793 2121.37 227.136 Q2122.87 228.455 2125.44 228.455 Q2128.98 228.455 2131.11 225.955 Q2133.27 223.432 2133.27 219.265 L2133.27 218.316 L2129.03 218.316 M2137.53 216.557 L2137.53 231.349 L2133.27 231.349 L2133.27 227.413 Q2131.81 229.775 2129.63 230.909 Q2127.46 232.02 2124.31 232.02 Q2120.33 232.02 2117.97 229.798 Q2115.63 227.552 2115.63 223.802 Q2115.63 219.427 2118.55 217.205 Q2121.48 214.983 2127.3 214.983 L2133.27 214.983 L2133.27 214.566 Q2133.27 211.627 2131.32 210.029 Q2129.4 208.409 2125.91 208.409 Q2123.68 208.409 2121.58 208.941 Q2119.47 209.474 2117.53 210.539 L2117.53 206.603 Q2119.86 205.701 2122.06 205.261 Q2124.26 204.798 2126.35 204.798 Q2131.97 204.798 2134.75 207.714 Q2137.53 210.631 2137.53 216.557 Z" fill="#000000" fill-rule="evenodd" fill-opacity="1" /><path clip-path="url(#clip030)" d="M 0 0 M2167.85 215.701 L2167.85 231.349 L2163.59 231.349 L2163.59 215.839 Q2163.59 212.159 2162.16 210.33 Q2160.72 208.502 2157.85 208.502 Q2154.4 208.502 2152.41 210.701 Q2150.42 212.9 2150.42 216.696 L2150.42 231.349 L2146.14 231.349 L2146.14 205.423 L2150.42 205.423 L2150.42 209.451 Q2151.95 207.113 2154.01 205.955 Q2156.09 204.798 2158.8 204.798 Q2163.27 204.798 2165.56 207.576 Q2167.85 210.33 2167.85 215.701 Z" fill="#000000" fill-rule="evenodd" fill-opacity="1" /><path clip-path="url(#clip030)" d="M 0 0 M2204.54 195.33 L2204.54 198.872 L2200.47 198.872 Q2198.17 198.872 2197.27 199.798 Q2196.39 200.724 2196.39 203.131 L2196.39 205.423 L2203.41 205.423 L2203.41 208.733 L2196.39 208.733 L2196.39 231.349 L2192.11 231.349 L2192.11 208.733 L2188.04 208.733 L2188.04 205.423 L2192.11 205.423 L2192.11 203.617 Q2192.11 199.289 2194.12 197.321 Q2196.14 195.33 2200.51 195.33 L2204.54 195.33 Z" fill="#000000" fill-rule="evenodd" fill-opacity="1" /><path clip-path="url(#clip030)" d="M 0 0 M2208.1 205.423 L2212.36 205.423 L2212.36 231.349 L2208.1 231.349 L2208.1 205.423 M2208.1 195.33 L2212.36 195.33 L2212.36 200.724 L2208.1 200.724 L2208.1 195.33 Z" fill="#000000" fill-rule="evenodd" fill-opacity="1" /><path clip-path="url(#clip030)" d="M 0 0 M2225.49 198.062 L2225.49 205.423 L2234.26 205.423 L2234.26 208.733 L2225.49 208.733 L2225.49 222.807 Q2225.49 225.978 2226.35 226.881 Q2227.23 227.784 2229.89 227.784 L2234.26 227.784 L2234.26 231.349 L2229.89 231.349 Q2224.96 231.349 2223.08 229.52 Q2221.21 227.668 2221.21 222.807 L2221.21 208.733 L2218.08 208.733 L2218.08 205.423 L2221.21 205.423 L2221.21 198.062 L2225.49 198.062 Z" fill="#000000" fill-rule="evenodd" fill-opacity="1" /><polyline clip-path="url(#clip030)" style="stroke:#3da44d; stroke-width:4; stroke-opacity:1; fill:none" points="
  1797.75,274.549 1939.94,274.549 
  "/>
<path clip-path="url(#clip030)" d="M 0 0 M1967.92 287.94 L1967.92 301.69 L1963.64 301.69 L1963.64 265.903 L1967.92 265.903 L1967.92 269.838 Q1969.26 267.523 1971.3 266.412 Q1973.36 265.278 1976.21 265.278 Q1980.93 265.278 1983.87 269.028 Q1986.83 272.778 1986.83 278.889 Q1986.83 285 1983.87 288.75 Q1980.93 292.5 1976.21 292.5 Q1973.36 292.5 1971.3 291.389 Q1969.26 290.255 1967.92 287.94 M1982.41 278.889 Q1982.41 274.19 1980.47 271.528 Q1978.55 268.843 1975.17 268.843 Q1971.79 268.843 1969.84 271.528 Q1967.92 274.19 1967.92 278.889 Q1967.92 283.588 1969.84 286.273 Q1971.79 288.935 1975.17 288.935 Q1978.55 288.935 1980.47 286.273 Q1982.41 283.588 1982.41 278.889 Z" fill="#000000" fill-rule="evenodd" fill-opacity="1" /><path clip-path="url(#clip030)" d="M 0 0 M2003.94 268.889 Q2000.51 268.889 1998.52 271.574 Q1996.53 274.236 1996.53 278.889 Q1996.53 283.542 1998.5 286.227 Q2000.49 288.889 2003.94 288.889 Q2007.34 288.889 2009.33 286.204 Q2011.32 283.518 2011.32 278.889 Q2011.32 274.282 2009.33 271.597 Q2007.34 268.889 2003.94 268.889 M2003.94 265.278 Q2009.49 265.278 2012.67 268.889 Q2015.84 272.5 2015.84 278.889 Q2015.84 285.255 2012.67 288.889 Q2009.49 292.5 2003.94 292.5 Q1998.36 292.5 1995.19 288.889 Q1992.04 285.255 1992.04 278.889 Q1992.04 272.5 1995.19 268.889 Q1998.36 265.278 2003.94 265.278 Z" fill="#000000" fill-rule="evenodd" fill-opacity="1" /><path clip-path="url(#clip030)" d="M 0 0 M2022.9 265.903 L2027.16 265.903 L2027.16 291.829 L2022.9 291.829 L2022.9 265.903 M2022.9 255.81 L2027.16 255.81 L2027.16 261.204 L2022.9 261.204 L2022.9 255.81 Z" fill="#000000" fill-rule="evenodd" fill-opacity="1" /><path clip-path="url(#clip030)" d="M 0 0 M2052.6 266.667 L2052.6 270.694 Q2050.79 269.769 2048.85 269.306 Q2046.9 268.843 2044.82 268.843 Q2041.65 268.843 2040.05 269.815 Q2038.48 270.787 2038.48 272.731 Q2038.48 274.213 2039.61 275.069 Q2040.74 275.903 2044.17 276.667 L2045.63 276.991 Q2050.17 277.963 2052.06 279.745 Q2053.99 281.505 2053.99 284.676 Q2053.99 288.287 2051.11 290.393 Q2048.27 292.5 2043.27 292.5 Q2041.18 292.5 2038.92 292.083 Q2036.67 291.69 2034.17 290.88 L2034.17 286.481 Q2036.53 287.708 2038.82 288.333 Q2041.11 288.935 2043.36 288.935 Q2046.37 288.935 2047.99 287.917 Q2049.61 286.875 2049.61 285 Q2049.61 283.264 2048.43 282.338 Q2047.27 281.412 2043.31 280.556 L2041.83 280.208 Q2037.87 279.375 2036.11 277.662 Q2034.36 275.926 2034.36 272.917 Q2034.36 269.259 2036.95 267.269 Q2039.54 265.278 2044.31 265.278 Q2046.67 265.278 2048.75 265.625 Q2050.84 265.972 2052.6 266.667 Z" fill="#000000" fill-rule="evenodd" fill-opacity="1" /><path clip-path="url(#clip030)" d="M 0 0 M2077.3 266.667 L2077.3 270.694 Q2075.49 269.769 2073.55 269.306 Q2071.6 268.843 2069.52 268.843 Q2066.35 268.843 2064.75 269.815 Q2063.17 270.787 2063.17 272.731 Q2063.17 274.213 2064.31 275.069 Q2065.44 275.903 2068.87 276.667 L2070.33 276.991 Q2074.86 277.963 2076.76 279.745 Q2078.68 281.505 2078.68 284.676 Q2078.68 288.287 2075.81 290.393 Q2072.97 292.5 2067.97 292.5 Q2065.88 292.5 2063.61 292.083 Q2061.37 291.69 2058.87 290.88 L2058.87 286.481 Q2061.23 287.708 2063.52 288.333 Q2065.81 288.935 2068.06 288.935 Q2071.07 288.935 2072.69 287.917 Q2074.31 286.875 2074.31 285 Q2074.31 283.264 2073.13 282.338 Q2071.97 281.412 2068.01 280.556 L2066.53 280.208 Q2062.57 279.375 2060.81 277.662 Q2059.05 275.926 2059.05 272.917 Q2059.05 269.259 2061.65 267.269 Q2064.24 265.278 2069.01 265.278 Q2071.37 265.278 2073.45 265.625 Q2075.54 265.972 2077.3 266.667 Z" fill="#000000" fill-rule="evenodd" fill-opacity="1" /><path clip-path="url(#clip030)" d="M 0 0 M2095.51 268.889 Q2092.09 268.889 2090.1 271.574 Q2088.11 274.236 2088.11 278.889 Q2088.11 283.542 2090.07 286.227 Q2092.06 288.889 2095.51 288.889 Q2098.92 288.889 2100.91 286.204 Q2102.9 283.518 2102.9 278.889 Q2102.9 274.282 2100.91 271.597 Q2098.92 268.889 2095.51 268.889 M2095.51 265.278 Q2101.07 265.278 2104.24 268.889 Q2107.41 272.5 2107.41 278.889 Q2107.41 285.255 2104.24 288.889 Q2101.07 292.5 2095.51 292.5 Q2089.93 292.5 2086.76 288.889 Q2083.61 285.255 2083.61 278.889 Q2083.61 272.5 2086.76 268.889 Q2089.93 265.278 2095.51 265.278 Z" fill="#000000" fill-rule="evenodd" fill-opacity="1" /><path clip-path="url(#clip030)" d="M 0 0 M2136.02 276.181 L2136.02 291.829 L2131.76 291.829 L2131.76 276.319 Q2131.76 272.639 2130.33 270.81 Q2128.89 268.982 2126.02 268.982 Q2122.57 268.982 2120.58 271.181 Q2118.59 273.38 2118.59 277.176 L2118.59 291.829 L2114.31 291.829 L2114.31 265.903 L2118.59 265.903 L2118.59 269.931 Q2120.12 267.593 2122.18 266.435 Q2124.26 265.278 2126.97 265.278 Q2131.44 265.278 2133.73 268.056 Q2136.02 270.81 2136.02 276.181 Z" fill="#000000" fill-rule="evenodd" fill-opacity="1" /><path clip-path="url(#clip030)" d="M 0 0 M2172.71 255.81 L2172.71 259.352 L2168.64 259.352 Q2166.35 259.352 2165.44 260.278 Q2164.56 261.204 2164.56 263.611 L2164.56 265.903 L2171.58 265.903 L2171.58 269.213 L2164.56 269.213 L2164.56 291.829 L2160.28 291.829 L2160.28 269.213 L2156.21 269.213 L2156.21 265.903 L2160.28 265.903 L2160.28 264.097 Q2160.28 259.769 2162.29 257.801 Q2164.31 255.81 2168.68 255.81 L2172.71 255.81 Z" fill="#000000" fill-rule="evenodd" fill-opacity="1" /><path clip-path="url(#clip030)" d="M 0 0 M2176.28 265.903 L2180.54 265.903 L2180.54 291.829 L2176.28 291.829 L2176.28 265.903 M2176.28 255.81 L2180.54 255.81 L2180.54 261.204 L2176.28 261.204 L2176.28 255.81 Z" fill="#000000" fill-rule="evenodd" fill-opacity="1" /><path clip-path="url(#clip030)" d="M 0 0 M2193.66 258.542 L2193.66 265.903 L2202.43 265.903 L2202.43 269.213 L2193.66 269.213 L2193.66 283.287 Q2193.66 286.458 2194.52 287.361 Q2195.4 288.264 2198.06 288.264 L2202.43 288.264 L2202.43 291.829 L2198.06 291.829 Q2193.13 291.829 2191.25 290 Q2189.38 288.148 2189.38 283.287 L2189.38 269.213 L2186.25 269.213 L2186.25 265.903 L2189.38 265.903 L2189.38 258.542 L2193.66 258.542 Z" fill="#000000" fill-rule="evenodd" fill-opacity="1" /></svg>
