<?xml version="1.0" encoding="utf-8"?>
<svg xmlns="http://www.w3.org/2000/svg" xmlns:xlink="http://www.w3.org/1999/xlink" width="600" height="400" viewBox="0 0 2400 1600">
<defs>
  <clipPath id="clip200">
    <rect x="0" y="0" width="2400" height="1600"/>
  </clipPath>
</defs>
<path clip-path="url(#clip200)" d="
M0 1600 L2400 1600 L2400 0 L0 0  Z
  " fill="#ffffff" fill-rule="evenodd" fill-opacity="1"/>
<defs>
  <clipPath id="clip201">
    <rect x="480" y="0" width="1681" height="1600"/>
  </clipPath>
</defs>
<path clip-path="url(#clip200)" d="
M238.616 1423.18 L2352.76 1423.18 L2352.76 47.2441 L238.616 47.2441  Z
  " fill="#ffffff" fill-rule="evenodd" fill-opacity="1"/>
<defs>
  <clipPath id="clip202">
    <rect x="238" y="47" width="2115" height="1377"/>
  </clipPath>
</defs>
<polyline clip-path="url(#clip202)" style="stroke:#000000; stroke-width:2; stroke-opacity:0.1; fill:none" points="
  354.898,1423.18 354.898,47.2441 
  "/>
<polyline clip-path="url(#clip202)" style="stroke:#000000; stroke-width:2; stroke-opacity:0.1; fill:none" points="
  768.431,1423.18 768.431,47.2441 
  "/>
<polyline clip-path="url(#clip202)" style="stroke:#000000; stroke-width:2; stroke-opacity:0.1; fill:none" points="
  1181.96,1423.18 1181.96,47.2441 
  "/>
<polyline clip-path="url(#clip202)" style="stroke:#000000; stroke-width:2; stroke-opacity:0.1; fill:none" points="
  1595.5,1423.18 1595.5,47.2441 
  "/>
<polyline clip-path="url(#clip202)" style="stroke:#000000; stroke-width:2; stroke-opacity:0.1; fill:none" points="
  2009.03,1423.18 2009.03,47.2441 
  "/>
<polyline clip-path="url(#clip200)" style="stroke:#000000; stroke-width:4; stroke-opacity:1; fill:none" points="
  238.616,1423.18 2352.76,1423.18 
  "/>
<polyline clip-path="url(#clip200)" style="stroke:#000000; stroke-width:4; stroke-opacity:1; fill:none" points="
  354.898,1423.18 354.898,1406.67 
  "/>
<polyline clip-path="url(#clip200)" style="stroke:#000000; stroke-width:4; stroke-opacity:1; fill:none" points="
  768.431,1423.18 768.431,1406.67 
  "/>
<polyline clip-path="url(#clip200)" style="stroke:#000000; stroke-width:4; stroke-opacity:1; fill:none" points="
  1181.96,1423.18 1181.96,1406.67 
  "/>
<polyline clip-path="url(#clip200)" style="stroke:#000000; stroke-width:4; stroke-opacity:1; fill:none" points="
  1595.5,1423.18 1595.5,1406.67 
  "/>
<polyline clip-path="url(#clip200)" style="stroke:#000000; stroke-width:4; stroke-opacity:1; fill:none" points="
  2009.03,1423.18 2009.03,1406.67 
  "/>
<path clip-path="url(#clip200)" d="M 0 0 M354.898 1452.37 Q351.287 1452.37 349.458 1455.94 Q347.652 1459.48 347.652 1466.61 Q347.652 1473.71 349.458 1477.28 Q351.287 1480.82 354.898 1480.82 Q358.532 1480.82 360.337 1477.28 Q362.166 1473.71 362.166 1466.61 Q362.166 1459.48 360.337 1455.94 Q358.532 1452.37 354.898 1452.37 M354.898 1448.67 Q360.708 1448.67 363.763 1453.27 Q366.842 1457.86 366.842 1466.61 Q366.842 1475.33 363.763 1479.94 Q360.708 1484.52 354.898 1484.52 Q349.087 1484.52 346.009 1479.94 Q342.953 1475.33 342.953 1466.61 Q342.953 1457.86 346.009 1453.27 Q349.087 1448.67 354.898 1448.67 Z" fill="#000000" fill-rule="evenodd" fill-opacity="1" /><path clip-path="url(#clip200)" d="M 0 0 M749.577 1479.92 L765.896 1479.92 L765.896 1483.85 L743.952 1483.85 L743.952 1479.92 Q746.614 1477.16 751.197 1472.53 Q755.804 1467.88 756.984 1466.54 Q759.23 1464.01 760.109 1462.28 Q761.012 1460.52 761.012 1458.83 Q761.012 1456.07 759.068 1454.34 Q757.146 1452.6 754.044 1452.6 Q751.845 1452.6 749.392 1453.37 Q746.961 1454.13 744.183 1455.68 L744.183 1450.96 Q747.007 1449.82 749.461 1449.25 Q751.915 1448.67 753.952 1448.67 Q759.322 1448.67 762.517 1451.35 Q765.711 1454.04 765.711 1458.53 Q765.711 1460.66 764.901 1462.58 Q764.114 1464.48 762.007 1467.07 Q761.429 1467.74 758.327 1470.96 Q755.225 1474.15 749.577 1479.92 Z" fill="#000000" fill-rule="evenodd" fill-opacity="1" /><path clip-path="url(#clip200)" d="M 0 0 M780.966 1452.37 Q777.355 1452.37 775.526 1455.94 Q773.72 1459.48 773.72 1466.61 Q773.72 1473.71 775.526 1477.28 Q777.355 1480.82 780.966 1480.82 Q784.6 1480.82 786.405 1477.28 Q788.234 1473.71 788.234 1466.61 Q788.234 1459.48 786.405 1455.94 Q784.6 1452.37 780.966 1452.37 M780.966 1448.67 Q786.776 1448.67 789.831 1453.27 Q792.91 1457.86 792.91 1466.61 Q792.91 1475.33 789.831 1479.94 Q786.776 1484.52 780.966 1484.52 Q775.155 1484.52 772.077 1479.94 Q769.021 1475.33 769.021 1466.61 Q769.021 1457.86 772.077 1453.27 Q775.155 1448.67 780.966 1448.67 Z" fill="#000000" fill-rule="evenodd" fill-opacity="1" /><path clip-path="url(#clip200)" d="M 0 0 M1171.47 1453.37 L1159.66 1471.81 L1171.47 1471.81 L1171.47 1453.37 M1170.24 1449.29 L1176.12 1449.29 L1176.12 1471.81 L1181.05 1471.81 L1181.05 1475.7 L1176.12 1475.7 L1176.12 1483.85 L1171.47 1483.85 L1171.47 1475.7 L1155.86 1475.7 L1155.86 1471.19 L1170.24 1449.29 Z" fill="#000000" fill-rule="evenodd" fill-opacity="1" /><path clip-path="url(#clip200)" d="M 0 0 M1196.12 1452.37 Q1192.51 1452.37 1190.68 1455.94 Q1188.87 1459.48 1188.87 1466.61 Q1188.87 1473.71 1190.68 1477.28 Q1192.51 1480.82 1196.12 1480.82 Q1199.75 1480.82 1201.56 1477.28 Q1203.39 1473.71 1203.39 1466.61 Q1203.39 1459.48 1201.56 1455.94 Q1199.75 1452.37 1196.12 1452.37 M1196.12 1448.67 Q1201.93 1448.67 1204.99 1453.27 Q1208.06 1457.86 1208.06 1466.61 Q1208.06 1475.33 1204.99 1479.94 Q1201.93 1484.52 1196.12 1484.52 Q1190.31 1484.52 1187.23 1479.94 Q1184.17 1475.33 1184.17 1466.61 Q1184.17 1457.86 1187.23 1453.27 Q1190.31 1448.67 1196.12 1448.67 Z" fill="#000000" fill-rule="evenodd" fill-opacity="1" /><path clip-path="url(#clip200)" d="M 0 0 M1582.4 1464.71 Q1579.25 1464.71 1577.4 1466.86 Q1575.57 1469.01 1575.57 1472.76 Q1575.57 1476.49 1577.4 1478.67 Q1579.25 1480.82 1582.4 1480.82 Q1585.54 1480.82 1587.37 1478.67 Q1589.22 1476.49 1589.22 1472.76 Q1589.22 1469.01 1587.37 1466.86 Q1585.54 1464.71 1582.4 1464.71 M1591.68 1450.06 L1591.68 1454.31 Q1589.92 1453.48 1588.11 1453.04 Q1586.33 1452.6 1584.57 1452.6 Q1579.94 1452.6 1577.49 1455.73 Q1575.06 1458.85 1574.71 1465.17 Q1576.08 1463.16 1578.14 1462.09 Q1580.2 1461 1582.67 1461 Q1587.88 1461 1590.89 1464.18 Q1593.92 1467.32 1593.92 1472.76 Q1593.92 1478.09 1590.78 1481.31 Q1587.63 1484.52 1582.4 1484.52 Q1576.4 1484.52 1573.23 1479.94 Q1570.06 1475.33 1570.06 1466.61 Q1570.06 1458.41 1573.95 1453.55 Q1577.84 1448.67 1584.39 1448.67 Q1586.15 1448.67 1587.93 1449.01 Q1589.73 1449.36 1591.68 1450.06 Z" fill="#000000" fill-rule="evenodd" fill-opacity="1" /><path clip-path="url(#clip200)" d="M 0 0 M1608.99 1452.37 Q1605.38 1452.37 1603.55 1455.94 Q1601.75 1459.48 1601.75 1466.61 Q1601.75 1473.71 1603.55 1477.28 Q1605.38 1480.82 1608.99 1480.82 Q1612.63 1480.82 1614.43 1477.28 Q1616.26 1473.71 1616.26 1466.61 Q1616.26 1459.48 1614.43 1455.94 Q1612.63 1452.37 1608.99 1452.37 M1608.99 1448.67 Q1614.8 1448.67 1617.86 1453.27 Q1620.94 1457.86 1620.94 1466.61 Q1620.94 1475.33 1617.86 1479.94 Q1614.8 1484.52 1608.99 1484.52 Q1603.18 1484.52 1600.1 1479.94 Q1597.05 1475.33 1597.05 1466.61 Q1597.05 1457.86 1600.1 1453.27 Q1603.18 1448.67 1608.99 1448.67 Z" fill="#000000" fill-rule="evenodd" fill-opacity="1" /><path clip-path="url(#clip200)" d="M 0 0 M1995.52 1467.44 Q1992.19 1467.44 1990.27 1469.22 Q1988.37 1471 1988.37 1474.13 Q1988.37 1477.25 1990.27 1479.04 Q1992.19 1480.82 1995.52 1480.82 Q1998.86 1480.82 2000.78 1479.04 Q2002.7 1477.23 2002.7 1474.13 Q2002.7 1471 2000.78 1469.22 Q1998.88 1467.44 1995.52 1467.44 M1990.85 1465.45 Q1987.84 1464.71 1986.15 1462.65 Q1984.48 1460.59 1984.48 1457.63 Q1984.48 1453.48 1987.42 1451.07 Q1990.39 1448.67 1995.52 1448.67 Q2000.69 1448.67 2003.63 1451.07 Q2006.57 1453.48 2006.57 1457.63 Q2006.57 1460.59 2004.88 1462.65 Q2003.21 1464.71 2000.22 1465.45 Q2003.6 1466.24 2005.48 1468.53 Q2007.38 1470.82 2007.38 1474.13 Q2007.38 1479.15 2004.3 1481.84 Q2001.24 1484.52 1995.52 1484.52 Q1989.81 1484.52 1986.73 1481.84 Q1983.67 1479.15 1983.67 1474.13 Q1983.67 1470.82 1985.57 1468.53 Q1987.47 1466.24 1990.85 1465.45 M1989.14 1458.06 Q1989.14 1460.75 1990.8 1462.25 Q1992.49 1463.76 1995.52 1463.76 Q1998.53 1463.76 2000.22 1462.25 Q2001.94 1460.75 2001.94 1458.06 Q2001.94 1455.38 2000.22 1453.88 Q1998.53 1452.37 1995.52 1452.37 Q1992.49 1452.37 1990.8 1453.88 Q1989.14 1455.38 1989.14 1458.06 Z" fill="#000000" fill-rule="evenodd" fill-opacity="1" /><path clip-path="url(#clip200)" d="M 0 0 M2022.45 1452.37 Q2018.83 1452.37 2017.01 1455.94 Q2015.2 1459.48 2015.2 1466.61 Q2015.2 1473.71 2017.01 1477.28 Q2018.83 1480.82 2022.45 1480.82 Q2026.08 1480.82 2027.89 1477.28 Q2029.71 1473.71 2029.71 1466.61 Q2029.71 1459.48 2027.89 1455.94 Q2026.08 1452.37 2022.45 1452.37 M2022.45 1448.67 Q2028.26 1448.67 2031.31 1453.27 Q2034.39 1457.86 2034.39 1466.61 Q2034.39 1475.33 2031.31 1479.94 Q2028.26 1484.52 2022.45 1484.52 Q2016.64 1484.52 2013.56 1479.94 Q2010.5 1475.33 2010.5 1466.61 Q2010.5 1457.86 2013.56 1453.27 Q2016.64 1448.67 2022.45 1448.67 Z" fill="#000000" fill-rule="evenodd" fill-opacity="1" /><path clip-path="url(#clip200)" d="M 0 0 M1285.63 1562.7 L1285.63 1581.6 L1279.74 1581.6 L1279.74 1532.4 L1285.63 1532.4 L1285.63 1537.81 Q1287.47 1534.62 1290.28 1533.1 Q1293.11 1531.54 1297.02 1531.54 Q1303.52 1531.54 1307.56 1536.69 Q1311.63 1541.85 1311.63 1550.25 Q1311.63 1558.65 1307.56 1563.81 Q1303.52 1568.97 1297.02 1568.97 Q1293.11 1568.97 1290.28 1567.44 Q1287.47 1565.88 1285.63 1562.7 M1305.55 1550.25 Q1305.55 1543.79 1302.88 1540.13 Q1300.24 1536.44 1295.59 1536.44 Q1290.94 1536.44 1288.27 1540.13 Q1285.63 1543.79 1285.63 1550.25 Q1285.63 1556.71 1288.27 1560.4 Q1290.94 1564.07 1295.59 1564.07 Q1300.24 1564.07 1302.88 1560.4 Q1305.55 1556.71 1305.55 1550.25 Z" fill="#000000" fill-rule="evenodd" fill-opacity="1" /><polyline clip-path="url(#clip202)" style="stroke:#000000; stroke-width:2; stroke-opacity:0.1; fill:none" points="
  238.616,1384.24 2352.76,1384.24 
  "/>
<polyline clip-path="url(#clip202)" style="stroke:#000000; stroke-width:2; stroke-opacity:0.1; fill:none" points="
  238.616,1050.72 2352.76,1050.72 
  "/>
<polyline clip-path="url(#clip202)" style="stroke:#000000; stroke-width:2; stroke-opacity:0.1; fill:none" points="
  238.616,717.202 2352.76,717.202 
  "/>
<polyline clip-path="url(#clip202)" style="stroke:#000000; stroke-width:2; stroke-opacity:0.1; fill:none" points="
  238.616,383.684 2352.76,383.684 
  "/>
<polyline clip-path="url(#clip202)" style="stroke:#000000; stroke-width:2; stroke-opacity:0.1; fill:none" points="
  238.616,50.1657 2352.76,50.1657 
  "/>
<polyline clip-path="url(#clip200)" style="stroke:#000000; stroke-width:4; stroke-opacity:1; fill:none" points="
  238.616,1423.18 238.616,47.2441 
  "/>
<polyline clip-path="url(#clip200)" style="stroke:#000000; stroke-width:4; stroke-opacity:1; fill:none" points="
  238.616,1384.24 263.986,1384.24 
  "/>
<polyline clip-path="url(#clip200)" style="stroke:#000000; stroke-width:4; stroke-opacity:1; fill:none" points="
  238.616,1050.72 263.986,1050.72 
  "/>
<polyline clip-path="url(#clip200)" style="stroke:#000000; stroke-width:4; stroke-opacity:1; fill:none" points="
  238.616,717.202 263.986,717.202 
  "/>
<polyline clip-path="url(#clip200)" style="stroke:#000000; stroke-width:4; stroke-opacity:1; fill:none" points="
  238.616,383.684 263.986,383.684 
  "/>
<polyline clip-path="url(#clip200)" style="stroke:#000000; stroke-width:4; stroke-opacity:1; fill:none" points="
  238.616,50.1657 263.986,50.1657 
  "/>
<path clip-path="url(#clip200)" d="M 0 0 M126.691 1370.04 Q123.08 1370.04 121.251 1373.6 Q119.445 1377.14 119.445 1384.27 Q119.445 1391.38 121.251 1394.94 Q123.08 1398.49 126.691 1398.49 Q130.325 1398.49 132.13 1394.94 Q133.959 1391.38 133.959 1384.27 Q133.959 1377.14 132.13 1373.6 Q130.325 1370.04 126.691 1370.04 M126.691 1366.33 Q132.501 1366.33 135.556 1370.94 Q138.635 1375.52 138.635 1384.27 Q138.635 1393 135.556 1397.61 Q132.501 1402.19 126.691 1402.19 Q120.88 1402.19 117.802 1397.61 Q114.746 1393 114.746 1384.27 Q114.746 1375.52 117.802 1370.94 Q120.88 1366.33 126.691 1366.33 Z" fill="#000000" fill-rule="evenodd" fill-opacity="1" /><path clip-path="url(#clip200)" d="M 0 0 M143.704 1395.64 L148.589 1395.64 L148.589 1401.52 L143.704 1401.52 L143.704 1395.64 Z" fill="#000000" fill-rule="evenodd" fill-opacity="1" /><path clip-path="url(#clip200)" d="M 0 0 M163.658 1370.04 Q160.047 1370.04 158.218 1373.6 Q156.413 1377.14 156.413 1384.27 Q156.413 1391.38 158.218 1394.94 Q160.047 1398.49 163.658 1398.49 Q167.292 1398.49 169.098 1394.94 Q170.927 1391.38 170.927 1384.27 Q170.927 1377.14 169.098 1373.6 Q167.292 1370.04 163.658 1370.04 M163.658 1366.33 Q169.468 1366.33 172.524 1370.94 Q175.602 1375.52 175.602 1384.27 Q175.602 1393 172.524 1397.61 Q169.468 1402.19 163.658 1402.19 Q157.848 1402.19 154.769 1397.61 Q151.714 1393 151.714 1384.27 Q151.714 1375.52 154.769 1370.94 Q157.848 1366.33 163.658 1366.33 Z" fill="#000000" fill-rule="evenodd" fill-opacity="1" /><path clip-path="url(#clip200)" d="M 0 0 M190.672 1370.04 Q187.061 1370.04 185.232 1373.6 Q183.426 1377.14 183.426 1384.27 Q183.426 1391.38 185.232 1394.94 Q187.061 1398.49 190.672 1398.49 Q194.306 1398.49 196.112 1394.94 Q197.94 1391.38 197.94 1384.27 Q197.94 1377.14 196.112 1373.6 Q194.306 1370.04 190.672 1370.04 M190.672 1366.33 Q196.482 1366.33 199.537 1370.94 Q202.616 1375.52 202.616 1384.27 Q202.616 1393 199.537 1397.61 Q196.482 1402.19 190.672 1402.19 Q184.862 1402.19 181.783 1397.61 Q178.727 1393 178.727 1384.27 Q178.727 1375.52 181.783 1370.94 Q184.862 1366.33 190.672 1366.33 Z" fill="#000000" fill-rule="evenodd" fill-opacity="1" /><path clip-path="url(#clip200)" d="M 0 0 M127.917 1036.52 Q124.306 1036.52 122.478 1040.08 Q120.672 1043.63 120.672 1050.75 Q120.672 1057.86 122.478 1061.43 Q124.306 1064.97 127.917 1064.97 Q131.552 1064.97 133.357 1061.43 Q135.186 1057.86 135.186 1050.75 Q135.186 1043.63 133.357 1040.08 Q131.552 1036.52 127.917 1036.52 M127.917 1032.82 Q133.728 1032.82 136.783 1037.42 Q139.862 1042 139.862 1050.75 Q139.862 1059.48 136.783 1064.09 Q133.728 1068.67 127.917 1068.67 Q122.107 1068.67 119.029 1064.09 Q115.973 1059.48 115.973 1050.75 Q115.973 1042 119.029 1037.42 Q122.107 1032.82 127.917 1032.82 Z" fill="#000000" fill-rule="evenodd" fill-opacity="1" /><path clip-path="url(#clip200)" d="M 0 0 M144.931 1062.12 L149.816 1062.12 L149.816 1068 L144.931 1068 L144.931 1062.12 Z" fill="#000000" fill-rule="evenodd" fill-opacity="1" /><path clip-path="url(#clip200)" d="M 0 0 M164.885 1036.52 Q161.274 1036.52 159.445 1040.08 Q157.64 1043.63 157.64 1050.75 Q157.64 1057.86 159.445 1061.43 Q161.274 1064.97 164.885 1064.97 Q168.519 1064.97 170.325 1061.43 Q172.153 1057.86 172.153 1050.75 Q172.153 1043.63 170.325 1040.08 Q168.519 1036.52 164.885 1036.52 M164.885 1032.82 Q170.695 1032.82 173.751 1037.42 Q176.829 1042 176.829 1050.75 Q176.829 1059.48 173.751 1064.09 Q170.695 1068.67 164.885 1068.67 Q159.075 1068.67 155.996 1064.09 Q152.941 1059.48 152.941 1050.75 Q152.941 1042 155.996 1037.42 Q159.075 1032.82 164.885 1032.82 Z" fill="#000000" fill-rule="evenodd" fill-opacity="1" /><path clip-path="url(#clip200)" d="M 0 0 M182.709 1064.06 L190.348 1064.06 L190.348 1037.7 L182.038 1039.37 L182.038 1035.11 L190.301 1033.44 L194.977 1033.44 L194.977 1064.06 L202.616 1064.06 L202.616 1068 L182.709 1068 L182.709 1064.06 Z" fill="#000000" fill-rule="evenodd" fill-opacity="1" /><path clip-path="url(#clip200)" d="M 0 0 M128.288 703.001 Q124.677 703.001 122.848 706.565 Q121.043 710.107 121.043 717.237 Q121.043 724.343 122.848 727.908 Q124.677 731.45 128.288 731.45 Q131.922 731.45 133.728 727.908 Q135.556 724.343 135.556 717.237 Q135.556 710.107 133.728 706.565 Q131.922 703.001 128.288 703.001 M128.288 699.297 Q134.098 699.297 137.154 703.903 Q140.232 708.487 140.232 717.237 Q140.232 725.964 137.154 730.57 Q134.098 735.153 128.288 735.153 Q122.478 735.153 119.399 730.57 Q116.343 725.964 116.343 717.237 Q116.343 708.487 119.399 703.903 Q122.478 699.297 128.288 699.297 Z" fill="#000000" fill-rule="evenodd" fill-opacity="1" /><path clip-path="url(#clip200)" d="M 0 0 M145.302 728.602 L150.186 728.602 L150.186 734.482 L145.302 734.482 L145.302 728.602 Z" fill="#000000" fill-rule="evenodd" fill-opacity="1" /><path clip-path="url(#clip200)" d="M 0 0 M165.255 703.001 Q161.644 703.001 159.815 706.565 Q158.01 710.107 158.01 717.237 Q158.01 724.343 159.815 727.908 Q161.644 731.45 165.255 731.45 Q168.889 731.45 170.695 727.908 Q172.524 724.343 172.524 717.237 Q172.524 710.107 170.695 706.565 Q168.889 703.001 165.255 703.001 M165.255 699.297 Q171.065 699.297 174.121 703.903 Q177.2 708.487 177.2 717.237 Q177.2 725.964 174.121 730.57 Q171.065 735.153 165.255 735.153 Q159.445 735.153 156.366 730.57 Q153.311 725.964 153.311 717.237 Q153.311 708.487 156.366 703.903 Q159.445 699.297 165.255 699.297 Z" fill="#000000" fill-rule="evenodd" fill-opacity="1" /><path clip-path="url(#clip200)" d="M 0 0 M186.297 730.547 L202.616 730.547 L202.616 734.482 L180.672 734.482 L180.672 730.547 Q183.334 727.792 187.917 723.163 Q192.524 718.51 193.704 717.167 Q195.95 714.644 196.829 712.908 Q197.732 711.149 197.732 709.459 Q197.732 706.704 195.787 704.968 Q193.866 703.232 190.764 703.232 Q188.565 703.232 186.112 703.996 Q183.681 704.76 180.903 706.311 L180.903 701.589 Q183.727 700.454 186.181 699.876 Q188.635 699.297 190.672 699.297 Q196.042 699.297 199.237 701.982 Q202.431 704.667 202.431 709.158 Q202.431 711.288 201.621 713.209 Q200.834 715.107 198.727 717.7 Q198.149 718.371 195.047 721.589 Q191.945 724.783 186.297 730.547 Z" fill="#000000" fill-rule="evenodd" fill-opacity="1" /><path clip-path="url(#clip200)" d="M 0 0 M127.339 369.483 Q123.728 369.483 121.899 373.047 Q120.093 376.589 120.093 383.719 Q120.093 390.825 121.899 394.39 Q123.728 397.931 127.339 397.931 Q130.973 397.931 132.779 394.39 Q134.607 390.825 134.607 383.719 Q134.607 376.589 132.779 373.047 Q130.973 369.483 127.339 369.483 M127.339 365.779 Q133.149 365.779 136.204 370.385 Q139.283 374.969 139.283 383.719 Q139.283 392.445 136.204 397.052 Q133.149 401.635 127.339 401.635 Q121.529 401.635 118.45 397.052 Q115.394 392.445 115.394 383.719 Q115.394 374.969 118.45 370.385 Q121.529 365.779 127.339 365.779 Z" fill="#000000" fill-rule="evenodd" fill-opacity="1" /><path clip-path="url(#clip200)" d="M 0 0 M144.353 395.084 L149.237 395.084 L149.237 400.964 L144.353 400.964 L144.353 395.084 Z" fill="#000000" fill-rule="evenodd" fill-opacity="1" /><path clip-path="url(#clip200)" d="M 0 0 M164.306 369.483 Q160.695 369.483 158.866 373.047 Q157.061 376.589 157.061 383.719 Q157.061 390.825 158.866 394.39 Q160.695 397.931 164.306 397.931 Q167.94 397.931 169.746 394.39 Q171.575 390.825 171.575 383.719 Q171.575 376.589 169.746 373.047 Q167.94 369.483 164.306 369.483 M164.306 365.779 Q170.116 365.779 173.172 370.385 Q176.251 374.969 176.251 383.719 Q176.251 392.445 173.172 397.052 Q170.116 401.635 164.306 401.635 Q158.496 401.635 155.417 397.052 Q152.362 392.445 152.362 383.719 Q152.362 374.969 155.417 370.385 Q158.496 365.779 164.306 365.779 Z" fill="#000000" fill-rule="evenodd" fill-opacity="1" /><path clip-path="url(#clip200)" d="M 0 0 M195.487 382.33 Q198.843 383.047 200.718 385.316 Q202.616 387.584 202.616 390.918 Q202.616 396.033 199.098 398.834 Q195.579 401.635 189.098 401.635 Q186.922 401.635 184.607 401.195 Q182.315 400.779 179.862 399.922 L179.862 395.408 Q181.806 396.543 184.121 397.121 Q186.436 397.7 188.959 397.7 Q193.357 397.7 195.649 395.964 Q197.963 394.228 197.963 390.918 Q197.963 387.862 195.811 386.149 Q193.681 384.413 189.862 384.413 L185.834 384.413 L185.834 380.57 L190.047 380.57 Q193.496 380.57 195.325 379.205 Q197.153 377.816 197.153 375.223 Q197.153 372.561 195.255 371.149 Q193.38 369.714 189.862 369.714 Q187.94 369.714 185.741 370.131 Q183.542 370.547 180.903 371.427 L180.903 367.26 Q183.565 366.52 185.88 366.149 Q188.218 365.779 190.278 365.779 Q195.602 365.779 198.704 368.209 Q201.806 370.617 201.806 374.737 Q201.806 377.607 200.162 379.598 Q198.519 381.566 195.487 382.33 Z" fill="#000000" fill-rule="evenodd" fill-opacity="1" /><path clip-path="url(#clip200)" d="M 0 0 M126.205 35.9644 Q122.593 35.9644 120.765 39.5292 Q118.959 43.0708 118.959 50.2004 Q118.959 57.3069 120.765 60.8717 Q122.593 64.4133 126.205 64.4133 Q129.839 64.4133 131.644 60.8717 Q133.473 57.3069 133.473 50.2004 Q133.473 43.0708 131.644 39.5292 Q129.839 35.9644 126.205 35.9644 M126.205 32.2607 Q132.015 32.2607 135.07 36.8672 Q138.149 41.4505 138.149 50.2004 Q138.149 58.9272 135.07 63.5337 Q132.015 68.117 126.205 68.117 Q120.394 68.117 117.316 63.5337 Q114.26 58.9272 114.26 50.2004 Q114.26 41.4505 117.316 36.8672 Q120.394 32.2607 126.205 32.2607 Z" fill="#000000" fill-rule="evenodd" fill-opacity="1" /><path clip-path="url(#clip200)" d="M 0 0 M143.218 61.5661 L148.103 61.5661 L148.103 67.4457 L143.218 67.4457 L143.218 61.5661 Z" fill="#000000" fill-rule="evenodd" fill-opacity="1" /><path clip-path="url(#clip200)" d="M 0 0 M163.172 35.9644 Q159.561 35.9644 157.732 39.5292 Q155.927 43.0708 155.927 50.2004 Q155.927 57.3069 157.732 60.8717 Q159.561 64.4133 163.172 64.4133 Q166.806 64.4133 168.612 60.8717 Q170.44 57.3069 170.44 50.2004 Q170.44 43.0708 168.612 39.5292 Q166.806 35.9644 163.172 35.9644 M163.172 32.2607 Q168.982 32.2607 172.038 36.8672 Q175.116 41.4505 175.116 50.2004 Q175.116 58.9272 172.038 63.5337 Q168.982 68.117 163.172 68.117 Q157.362 68.117 154.283 63.5337 Q151.228 58.9272 151.228 50.2004 Q151.228 41.4505 154.283 36.8672 Q157.362 32.2607 163.172 32.2607 Z" fill="#000000" fill-rule="evenodd" fill-opacity="1" /><path clip-path="url(#clip200)" d="M 0 0 M193.033 36.9598 L181.227 55.4087 L193.033 55.4087 L193.033 36.9598 M191.806 32.8857 L197.686 32.8857 L197.686 55.4087 L202.616 55.4087 L202.616 59.2976 L197.686 59.2976 L197.686 67.4457 L193.033 67.4457 L193.033 59.2976 L177.431 59.2976 L177.431 54.7837 L191.806 32.8857 Z" fill="#000000" fill-rule="evenodd" fill-opacity="1" /><path clip-path="url(#clip200)" d="M 0 0 M21.7677 783.05 L39.6235 783.05 L39.6235 774.966 Q39.6235 770.478 37.3 768.027 Q34.9765 765.576 30.6797 765.576 Q26.4147 765.576 24.0912 768.027 Q21.7677 770.478 21.7677 774.966 L21.7677 783.05 M16.4842 789.48 L16.4842 774.966 Q16.4842 766.977 20.1126 762.903 Q23.7092 758.797 30.6797 758.797 Q37.7138 758.797 41.3104 762.903 Q44.907 766.977 44.907 774.966 L44.907 783.05 L64.0042 783.05 L64.0042 789.48 L16.4842 789.48 Z" fill="#000000" fill-rule="evenodd" fill-opacity="1" /><path clip-path="url(#clip200)" d="M 0 0 M14.5426 738.586 Q21.8632 742.851 29.0246 744.92 Q36.186 746.989 43.5384 746.989 Q50.8908 746.989 58.1159 744.92 Q65.3091 742.819 72.5979 738.586 L72.5979 743.678 Q65.1182 748.453 57.8931 750.84 Q50.668 753.195 43.5384 753.195 Q36.4406 753.195 29.2474 750.84 Q22.0542 748.484 14.5426 743.678 L14.5426 738.586 Z" fill="#000000" fill-rule="evenodd" fill-opacity="1" /><path clip-path="url(#clip200)" d="M 0 0 M58.657 726.777 L77.5631 726.777 L77.5631 732.666 L28.3562 732.666 L28.3562 726.777 L33.7671 726.777 Q30.5842 724.931 29.0564 722.13 Q27.4968 719.298 27.4968 715.383 Q27.4968 708.89 32.6531 704.848 Q37.8093 700.773 46.212 700.773 Q54.6147 700.773 59.771 704.848 Q64.9272 708.89 64.9272 715.383 Q64.9272 719.298 63.3994 722.13 Q61.8398 724.931 58.657 726.777 M46.212 706.853 Q39.7508 706.853 36.0905 709.526 Q32.3984 712.168 32.3984 716.815 Q32.3984 721.462 36.0905 724.136 Q39.7508 726.777 46.212 726.777 Q52.6732 726.777 56.3653 724.136 Q60.0256 721.462 60.0256 716.815 Q60.0256 712.168 56.3653 709.526 Q52.6732 706.853 46.212 706.853 Z" fill="#000000" fill-rule="evenodd" fill-opacity="1" /><path clip-path="url(#clip200)" d="M 0 0 M14.5426 695.554 L14.5426 690.461 Q22.0542 685.687 29.2474 683.331 Q36.4406 680.944 43.5384 680.944 Q50.668 680.944 57.8931 683.331 Q65.1182 685.687 72.5979 690.461 L72.5979 695.554 Q65.3091 691.32 58.1159 689.252 Q50.8908 687.151 43.5384 687.151 Q36.186 687.151 29.0246 689.252 Q21.8632 691.32 14.5426 695.554 Z" fill="#000000" fill-rule="evenodd" fill-opacity="1" /><path clip-path="url(#clip202)" d="
M354.898 1378.5 L354.898 1384.24 L375.574 1384.24 L375.574 1378.5 L354.898 1378.5 L354.898 1378.5  Z
  " fill="#009af9" fill-rule="evenodd" fill-opacity="1"/>
<polyline clip-path="url(#clip202)" style="stroke:#000000; stroke-width:4; stroke-opacity:1; fill:none" points="
  354.898,1378.5 354.898,1384.24 375.574,1384.24 375.574,1378.5 354.898,1378.5 
  "/>
<path clip-path="url(#clip202)" d="
M375.574 1367.7 L375.574 1384.24 L396.251 1384.24 L396.251 1367.7 L375.574 1367.7 L375.574 1367.7  Z
  " fill="#009af9" fill-rule="evenodd" fill-opacity="1"/>
<polyline clip-path="url(#clip202)" style="stroke:#000000; stroke-width:4; stroke-opacity:1; fill:none" points="
  375.574,1367.7 375.574,1384.24 396.251,1384.24 396.251,1367.7 375.574,1367.7 
  "/>
<path clip-path="url(#clip202)" d="
M396.251 1350.89 L396.251 1384.24 L416.928 1384.24 L416.928 1350.89 L396.251 1350.89 L396.251 1350.89  Z
  " fill="#009af9" fill-rule="evenodd" fill-opacity="1"/>
<polyline clip-path="url(#clip202)" style="stroke:#000000; stroke-width:4; stroke-opacity:1; fill:none" points="
  396.251,1350.89 396.251,1384.24 416.928,1384.24 416.928,1350.89 396.251,1350.89 
  "/>
<path clip-path="url(#clip202)" d="
M416.928 1322.2 L416.928 1384.24 L437.604 1384.24 L437.604 1322.2 L416.928 1322.2 L416.928 1322.2  Z
  " fill="#009af9" fill-rule="evenodd" fill-opacity="1"/>
<polyline clip-path="url(#clip202)" style="stroke:#000000; stroke-width:4; stroke-opacity:1; fill:none" points="
  416.928,1322.2 416.928,1384.24 437.604,1384.24 437.604,1322.2 416.928,1322.2 
  "/>
<path clip-path="url(#clip202)" d="
M437.604 1285.92 L437.604 1384.24 L458.281 1384.24 L458.281 1285.92 L437.604 1285.92 L437.604 1285.92  Z
  " fill="#009af9" fill-rule="evenodd" fill-opacity="1"/>
<polyline clip-path="url(#clip202)" style="stroke:#000000; stroke-width:4; stroke-opacity:1; fill:none" points="
  437.604,1285.92 437.604,1384.24 458.281,1384.24 458.281,1285.92 437.604,1285.92 
  "/>
<path clip-path="url(#clip202)" d="
M458.281 1246.83 L458.281 1384.24 L478.958 1384.24 L478.958 1246.83 L458.281 1246.83 L458.281 1246.83  Z
  " fill="#009af9" fill-rule="evenodd" fill-opacity="1"/>
<polyline clip-path="url(#clip202)" style="stroke:#000000; stroke-width:4; stroke-opacity:1; fill:none" points="
  458.281,1246.83 458.281,1384.24 478.958,1384.24 478.958,1246.83 458.281,1246.83 
  "/>
<path clip-path="url(#clip202)" d="
M478.958 1181.99 L478.958 1384.24 L499.634 1384.24 L499.634 1181.99 L478.958 1181.99 L478.958 1181.99  Z
  " fill="#009af9" fill-rule="evenodd" fill-opacity="1"/>
<polyline clip-path="url(#clip202)" style="stroke:#000000; stroke-width:4; stroke-opacity:1; fill:none" points="
  478.958,1181.99 478.958,1384.24 499.634,1384.24 499.634,1181.99 478.958,1181.99 
  "/>
<path clip-path="url(#clip202)" d="
M499.634 1114.42 L499.634 1384.24 L520.311 1384.24 L520.311 1114.42 L499.634 1114.42 L499.634 1114.42  Z
  " fill="#009af9" fill-rule="evenodd" fill-opacity="1"/>
<polyline clip-path="url(#clip202)" style="stroke:#000000; stroke-width:4; stroke-opacity:1; fill:none" points="
  499.634,1114.42 499.634,1384.24 520.311,1384.24 520.311,1114.42 499.634,1114.42 
  "/>
<path clip-path="url(#clip202)" d="
M520.311 1035.98 L520.311 1384.24 L540.988 1384.24 L540.988 1035.98 L520.311 1035.98 L520.311 1035.98  Z
  " fill="#009af9" fill-rule="evenodd" fill-opacity="1"/>
<polyline clip-path="url(#clip202)" style="stroke:#000000; stroke-width:4; stroke-opacity:1; fill:none" points="
  520.311,1035.98 520.311,1384.24 540.988,1384.24 540.988,1035.98 520.311,1035.98 
  "/>
<path clip-path="url(#clip202)" d="
M540.988 949.331 L540.988 1384.24 L561.664 1384.24 L561.664 949.331 L540.988 949.331 L540.988 949.331  Z
  " fill="#009af9" fill-rule="evenodd" fill-opacity="1"/>
<polyline clip-path="url(#clip202)" style="stroke:#000000; stroke-width:4; stroke-opacity:1; fill:none" points="
  540.988,949.331 540.988,1384.24 561.664,1384.24 561.664,949.331 540.988,949.331 
  "/>
<path clip-path="url(#clip202)" d="
M561.664 861.482 L561.664 1384.24 L582.341 1384.24 L582.341 861.482 L561.664 861.482 L561.664 861.482  Z
  " fill="#009af9" fill-rule="evenodd" fill-opacity="1"/>
<polyline clip-path="url(#clip202)" style="stroke:#000000; stroke-width:4; stroke-opacity:1; fill:none" points="
  561.664,861.482 561.664,1384.24 582.341,1384.24 582.341,861.482 561.664,861.482 
  "/>
<path clip-path="url(#clip202)" d="
M582.341 772.833 L582.341 1384.24 L603.018 1384.24 L603.018 772.833 L582.341 772.833 L582.341 772.833  Z
  " fill="#009af9" fill-rule="evenodd" fill-opacity="1"/>
<polyline clip-path="url(#clip202)" style="stroke:#000000; stroke-width:4; stroke-opacity:1; fill:none" points="
  582.341,772.833 582.341,1384.24 603.018,1384.24 603.018,772.833 582.341,772.833 
  "/>
<path clip-path="url(#clip202)" d="
M603.018 671.844 L603.018 1384.24 L623.694 1384.24 L623.694 671.844 L603.018 671.844 L603.018 671.844  Z
  " fill="#009af9" fill-rule="evenodd" fill-opacity="1"/>
<polyline clip-path="url(#clip202)" style="stroke:#000000; stroke-width:4; stroke-opacity:1; fill:none" points="
  603.018,671.844 603.018,1384.24 623.694,1384.24 623.694,671.844 603.018,671.844 
  "/>
<path clip-path="url(#clip202)" d="
M623.694 577.925 L623.694 1384.24 L644.371 1384.24 L644.371 577.925 L623.694 577.925 L623.694 577.925  Z
  " fill="#009af9" fill-rule="evenodd" fill-opacity="1"/>
<polyline clip-path="url(#clip202)" style="stroke:#000000; stroke-width:4; stroke-opacity:1; fill:none" points="
  623.694,577.925 623.694,1384.24 644.371,1384.24 644.371,577.925 623.694,577.925 
  "/>
<path clip-path="url(#clip202)" d="
M644.371 484.673 L644.371 1384.24 L665.048 1384.24 L665.048 484.673 L644.371 484.673 L644.371 484.673  Z
  " fill="#009af9" fill-rule="evenodd" fill-opacity="1"/>
<polyline clip-path="url(#clip202)" style="stroke:#000000; stroke-width:4; stroke-opacity:1; fill:none" points="
  644.371,484.673 644.371,1384.24 665.048,1384.24 665.048,484.673 644.371,484.673 
  "/>
<path clip-path="url(#clip202)" d="
M665.048 379.882 L665.048 1384.24 L685.724 1384.24 L685.724 379.882 L665.048 379.882 L665.048 379.882  Z
  " fill="#009af9" fill-rule="evenodd" fill-opacity="1"/>
<polyline clip-path="url(#clip202)" style="stroke:#000000; stroke-width:4; stroke-opacity:1; fill:none" points="
  665.048,379.882 665.048,1384.24 685.724,1384.24 685.724,379.882 665.048,379.882 
  "/>
<path clip-path="url(#clip202)" d="
M685.724 312.778 L685.724 1384.24 L706.401 1384.24 L706.401 312.778 L685.724 312.778 L685.724 312.778  Z
  " fill="#009af9" fill-rule="evenodd" fill-opacity="1"/>
<polyline clip-path="url(#clip202)" style="stroke:#000000; stroke-width:4; stroke-opacity:1; fill:none" points="
  685.724,312.778 685.724,1384.24 706.401,1384.24 706.401,312.778 685.724,312.778 
  "/>
<path clip-path="url(#clip202)" d="
M706.401 250.81 L706.401 1384.24 L727.078 1384.24 L727.078 250.81 L706.401 250.81 L706.401 250.81  Z
  " fill="#009af9" fill-rule="evenodd" fill-opacity="1"/>
<polyline clip-path="url(#clip202)" style="stroke:#000000; stroke-width:4; stroke-opacity:1; fill:none" points="
  706.401,250.81 706.401,1384.24 727.078,1384.24 727.078,250.81 706.401,250.81 
  "/>
<path clip-path="url(#clip202)" d="
M727.078 179.838 L727.078 1384.24 L747.754 1384.24 L747.754 179.838 L727.078 179.838 L727.078 179.838  Z
  " fill="#009af9" fill-rule="evenodd" fill-opacity="1"/>
<polyline clip-path="url(#clip202)" style="stroke:#000000; stroke-width:4; stroke-opacity:1; fill:none" points="
  727.078,179.838 727.078,1384.24 747.754,1384.24 747.754,179.838 727.078,179.838 
  "/>
<path clip-path="url(#clip202)" d="
M747.754 142.35 L747.754 1384.24 L768.431 1384.24 L768.431 142.35 L747.754 142.35 L747.754 142.35  Z
  " fill="#009af9" fill-rule="evenodd" fill-opacity="1"/>
<polyline clip-path="url(#clip202)" style="stroke:#000000; stroke-width:4; stroke-opacity:1; fill:none" points="
  747.754,142.35 747.754,1384.24 768.431,1384.24 768.431,142.35 747.754,142.35 
  "/>
<path clip-path="url(#clip202)" d="
M768.431 109.399 L768.431 1384.24 L789.108 1384.24 L789.108 109.399 L768.431 109.399 L768.431 109.399  Z
  " fill="#009af9" fill-rule="evenodd" fill-opacity="1"/>
<polyline clip-path="url(#clip202)" style="stroke:#000000; stroke-width:4; stroke-opacity:1; fill:none" points="
  768.431,109.399 768.431,1384.24 789.108,1384.24 789.108,109.399 768.431,109.399 
  "/>
<path clip-path="url(#clip202)" d="
M789.108 86.1857 L789.108 1384.24 L809.784 1384.24 L809.784 86.1857 L789.108 86.1857 L789.108 86.1857  Z
  " fill="#009af9" fill-rule="evenodd" fill-opacity="1"/>
<polyline clip-path="url(#clip202)" style="stroke:#000000; stroke-width:4; stroke-opacity:1; fill:none" points="
  789.108,86.1857 789.108,1384.24 809.784,1384.24 809.784,86.1857 789.108,86.1857 
  "/>
<path clip-path="url(#clip202)" d="
M809.784 87.9867 L809.784 1384.24 L830.461 1384.24 L830.461 87.9867 L809.784 87.9867 L809.784 87.9867  Z
  " fill="#009af9" fill-rule="evenodd" fill-opacity="1"/>
<polyline clip-path="url(#clip202)" style="stroke:#000000; stroke-width:4; stroke-opacity:1; fill:none" points="
  809.784,87.9867 809.784,1384.24 830.461,1384.24 830.461,87.9867 809.784,87.9867 
  "/>
<path clip-path="url(#clip202)" d="
M830.461 98.259 L830.461 1384.24 L851.138 1384.24 L851.138 98.259 L830.461 98.259 L830.461 98.259  Z
  " fill="#009af9" fill-rule="evenodd" fill-opacity="1"/>
<polyline clip-path="url(#clip202)" style="stroke:#000000; stroke-width:4; stroke-opacity:1; fill:none" points="
  830.461,98.259 830.461,1384.24 851.138,1384.24 851.138,98.259 830.461,98.259 
  "/>
<path clip-path="url(#clip202)" d="
M851.138 102.461 L851.138 1384.24 L871.814 1384.24 L871.814 102.461 L851.138 102.461 L851.138 102.461  Z
  " fill="#009af9" fill-rule="evenodd" fill-opacity="1"/>
<polyline clip-path="url(#clip202)" style="stroke:#000000; stroke-width:4; stroke-opacity:1; fill:none" points="
  851.138,102.461 851.138,1384.24 871.814,1384.24 871.814,102.461 851.138,102.461 
  "/>
<path clip-path="url(#clip202)" d="
M871.814 150.088 L871.814 1384.24 L892.491 1384.24 L892.491 150.088 L871.814 150.088 L871.814 150.088  Z
  " fill="#009af9" fill-rule="evenodd" fill-opacity="1"/>
<polyline clip-path="url(#clip202)" style="stroke:#000000; stroke-width:4; stroke-opacity:1; fill:none" points="
  871.814,150.088 871.814,1384.24 892.491,1384.24 892.491,150.088 871.814,150.088 
  "/>
<path clip-path="url(#clip202)" d="
M892.491 166.764 L892.491 1384.24 L913.168 1384.24 L913.168 166.764 L892.491 166.764 L892.491 166.764  Z
  " fill="#009af9" fill-rule="evenodd" fill-opacity="1"/>
<polyline clip-path="url(#clip202)" style="stroke:#000000; stroke-width:4; stroke-opacity:1; fill:none" points="
  892.491,166.764 892.491,1384.24 913.168,1384.24 913.168,166.764 892.491,166.764 
  "/>
<path clip-path="url(#clip202)" d="
M913.168 209.521 L913.168 1384.24 L933.844 1384.24 L933.844 209.521 L913.168 209.521 L913.168 209.521  Z
  " fill="#009af9" fill-rule="evenodd" fill-opacity="1"/>
<polyline clip-path="url(#clip202)" style="stroke:#000000; stroke-width:4; stroke-opacity:1; fill:none" points="
  913.168,209.521 913.168,1384.24 933.844,1384.24 933.844,209.521 913.168,209.521 
  "/>
<path clip-path="url(#clip202)" d="
M933.844 265.885 L933.844 1384.24 L954.521 1384.24 L954.521 265.885 L933.844 265.885 L933.844 265.885  Z
  " fill="#009af9" fill-rule="evenodd" fill-opacity="1"/>
<polyline clip-path="url(#clip202)" style="stroke:#000000; stroke-width:4; stroke-opacity:1; fill:none" points="
  933.844,265.885 933.844,1384.24 954.521,1384.24 954.521,265.885 933.844,265.885 
  "/>
<path clip-path="url(#clip202)" d="
M954.521 331.522 L954.521 1384.24 L975.198 1384.24 L975.198 331.522 L954.521 331.522 L954.521 331.522  Z
  " fill="#009af9" fill-rule="evenodd" fill-opacity="1"/>
<polyline clip-path="url(#clip202)" style="stroke:#000000; stroke-width:4; stroke-opacity:1; fill:none" points="
  954.521,331.522 954.521,1384.24 975.198,1384.24 975.198,331.522 954.521,331.522 
  "/>
<path clip-path="url(#clip202)" d="
M975.198 369.142 L975.198 1384.24 L995.874 1384.24 L995.874 369.142 L975.198 369.142 L975.198 369.142  Z
  " fill="#009af9" fill-rule="evenodd" fill-opacity="1"/>
<polyline clip-path="url(#clip202)" style="stroke:#000000; stroke-width:4; stroke-opacity:1; fill:none" points="
  975.198,369.142 975.198,1384.24 995.874,1384.24 995.874,369.142 975.198,369.142 
  "/>
<path clip-path="url(#clip202)" d="
M995.874 439.381 L995.874 1384.24 L1016.55 1384.24 L1016.55 439.381 L995.874 439.381 L995.874 439.381  Z
  " fill="#009af9" fill-rule="evenodd" fill-opacity="1"/>
<polyline clip-path="url(#clip202)" style="stroke:#000000; stroke-width:4; stroke-opacity:1; fill:none" points="
  995.874,439.381 995.874,1384.24 1016.55,1384.24 1016.55,439.381 995.874,439.381 
  "/>
<path clip-path="url(#clip202)" d="
M1016.55 491.744 L1016.55 1384.24 L1037.23 1384.24 L1037.23 491.744 L1016.55 491.744 L1016.55 491.744  Z
  " fill="#009af9" fill-rule="evenodd" fill-opacity="1"/>
<polyline clip-path="url(#clip202)" style="stroke:#000000; stroke-width:4; stroke-opacity:1; fill:none" points="
  1016.55,491.744 1016.55,1384.24 1037.23,1384.24 1037.23,491.744 1016.55,491.744 
  "/>
<path clip-path="url(#clip202)" d="
M1037.23 566.318 L1037.23 1384.24 L1057.9 1384.24 L1057.9 566.318 L1037.23 566.318 L1037.23 566.318  Z
  " fill="#009af9" fill-rule="evenodd" fill-opacity="1"/>
<polyline clip-path="url(#clip202)" style="stroke:#000000; stroke-width:4; stroke-opacity:1; fill:none" points="
  1037.23,566.318 1037.23,1384.24 1057.9,1384.24 1057.9,566.318 1037.23,566.318 
  "/>
<path clip-path="url(#clip202)" d="
M1057.9 637.825 L1057.9 1384.24 L1078.58 1384.24 L1078.58 637.825 L1057.9 637.825 L1057.9 637.825  Z
  " fill="#009af9" fill-rule="evenodd" fill-opacity="1"/>
<polyline clip-path="url(#clip202)" style="stroke:#000000; stroke-width:4; stroke-opacity:1; fill:none" points="
  1057.9,637.825 1057.9,1384.24 1078.58,1384.24 1078.58,637.825 1057.9,637.825 
  "/>
<path clip-path="url(#clip202)" d="
M1078.58 701.994 L1078.58 1384.24 L1099.26 1384.24 L1099.26 701.994 L1078.58 701.994 L1078.58 701.994  Z
  " fill="#009af9" fill-rule="evenodd" fill-opacity="1"/>
<polyline clip-path="url(#clip202)" style="stroke:#000000; stroke-width:4; stroke-opacity:1; fill:none" points="
  1078.58,701.994 1078.58,1384.24 1099.26,1384.24 1099.26,701.994 1078.58,701.994 
  "/>
<path clip-path="url(#clip202)" d="
M1099.26 765.162 L1099.26 1384.24 L1119.93 1384.24 L1119.93 765.162 L1099.26 765.162 L1099.26 765.162  Z
  " fill="#009af9" fill-rule="evenodd" fill-opacity="1"/>
<polyline clip-path="url(#clip202)" style="stroke:#000000; stroke-width:4; stroke-opacity:1; fill:none" points="
  1099.26,765.162 1099.26,1384.24 1119.93,1384.24 1119.93,765.162 1099.26,765.162 
  "/>
<path clip-path="url(#clip202)" d="
M1119.93 808.786 L1119.93 1384.24 L1140.61 1384.24 L1140.61 808.786 L1119.93 808.786 L1119.93 808.786  Z
  " fill="#009af9" fill-rule="evenodd" fill-opacity="1"/>
<polyline clip-path="url(#clip202)" style="stroke:#000000; stroke-width:4; stroke-opacity:1; fill:none" points="
  1119.93,808.786 1119.93,1384.24 1140.61,1384.24 1140.61,808.786 1119.93,808.786 
  "/>
<path clip-path="url(#clip202)" d="
M1140.61 880.626 L1140.61 1384.24 L1161.29 1384.24 L1161.29 880.626 L1140.61 880.626 L1140.61 880.626  Z
  " fill="#009af9" fill-rule="evenodd" fill-opacity="1"/>
<polyline clip-path="url(#clip202)" style="stroke:#000000; stroke-width:4; stroke-opacity:1; fill:none" points="
  1140.61,880.626 1140.61,1384.24 1161.29,1384.24 1161.29,880.626 1140.61,880.626 
  "/>
<path clip-path="url(#clip202)" d="
M1161.29 930.053 L1161.29 1384.24 L1181.96 1384.24 L1181.96 930.053 L1161.29 930.053 L1161.29 930.053  Z
  " fill="#009af9" fill-rule="evenodd" fill-opacity="1"/>
<polyline clip-path="url(#clip202)" style="stroke:#000000; stroke-width:4; stroke-opacity:1; fill:none" points="
  1161.29,930.053 1161.29,1384.24 1181.96,1384.24 1181.96,930.053 1161.29,930.053 
  "/>
<path clip-path="url(#clip202)" d="
M1181.96 978.013 L1181.96 1384.24 L1202.64 1384.24 L1202.64 978.013 L1181.96 978.013 L1181.96 978.013  Z
  " fill="#009af9" fill-rule="evenodd" fill-opacity="1"/>
<polyline clip-path="url(#clip202)" style="stroke:#000000; stroke-width:4; stroke-opacity:1; fill:none" points="
  1181.96,978.013 1181.96,1384.24 1202.64,1384.24 1202.64,978.013 1181.96,978.013 
  "/>
<path clip-path="url(#clip202)" d="
M1202.64 1026.31 L1202.64 1384.24 L1223.32 1384.24 L1223.32 1026.31 L1202.64 1026.31 L1202.64 1026.31  Z
  " fill="#009af9" fill-rule="evenodd" fill-opacity="1"/>
<polyline clip-path="url(#clip202)" style="stroke:#000000; stroke-width:4; stroke-opacity:1; fill:none" points="
  1202.64,1026.31 1202.64,1384.24 1223.32,1384.24 1223.32,1026.31 1202.64,1026.31 
  "/>
<path clip-path="url(#clip202)" d="
M1223.32 1067.2 L1223.32 1384.24 L1243.99 1384.24 L1243.99 1067.2 L1223.32 1067.2 L1223.32 1067.2  Z
  " fill="#009af9" fill-rule="evenodd" fill-opacity="1"/>
<polyline clip-path="url(#clip202)" style="stroke:#000000; stroke-width:4; stroke-opacity:1; fill:none" points="
  1223.32,1067.2 1223.32,1384.24 1243.99,1384.24 1243.99,1067.2 1223.32,1067.2 
  "/>
<path clip-path="url(#clip202)" d="
M1243.99 1104.42 L1243.99 1384.24 L1264.67 1384.24 L1264.67 1104.42 L1243.99 1104.42 L1243.99 1104.42  Z
  " fill="#009af9" fill-rule="evenodd" fill-opacity="1"/>
<polyline clip-path="url(#clip202)" style="stroke:#000000; stroke-width:4; stroke-opacity:1; fill:none" points="
  1243.99,1104.42 1243.99,1384.24 1264.67,1384.24 1264.67,1104.42 1243.99,1104.42 
  "/>
<path clip-path="url(#clip202)" d="
M1264.67 1137.3 L1264.67 1384.24 L1285.35 1384.24 L1285.35 1137.3 L1264.67 1137.3 L1264.67 1137.3  Z
  " fill="#009af9" fill-rule="evenodd" fill-opacity="1"/>
<polyline clip-path="url(#clip202)" style="stroke:#000000; stroke-width:4; stroke-opacity:1; fill:none" points="
  1264.67,1137.3 1264.67,1384.24 1285.35,1384.24 1285.35,1137.3 1264.67,1137.3 
  "/>
<path clip-path="url(#clip202)" d="
M1285.35 1176.12 L1285.35 1384.24 L1306.02 1384.24 L1306.02 1176.12 L1285.35 1176.12 L1285.35 1176.12  Z
  " fill="#009af9" fill-rule="evenodd" fill-opacity="1"/>
<polyline clip-path="url(#clip202)" style="stroke:#000000; stroke-width:4; stroke-opacity:1; fill:none" points="
  1285.35,1176.12 1285.35,1384.24 1306.02,1384.24 1306.02,1176.12 1285.35,1176.12 
  "/>
<path clip-path="url(#clip202)" d="
M1306.02 1197.47 L1306.02 1384.24 L1326.7 1384.24 L1326.7 1197.47 L1306.02 1197.47 L1306.02 1197.47  Z
  " fill="#009af9" fill-rule="evenodd" fill-opacity="1"/>
<polyline clip-path="url(#clip202)" style="stroke:#000000; stroke-width:4; stroke-opacity:1; fill:none" points="
  1306.02,1197.47 1306.02,1384.24 1326.7,1384.24 1326.7,1197.47 1306.02,1197.47 
  "/>
<path clip-path="url(#clip202)" d="
M1326.7 1226.48 L1326.7 1384.24 L1347.38 1384.24 L1347.38 1226.48 L1326.7 1226.48 L1326.7 1226.48  Z
  " fill="#009af9" fill-rule="evenodd" fill-opacity="1"/>
<polyline clip-path="url(#clip202)" style="stroke:#000000; stroke-width:4; stroke-opacity:1; fill:none" points="
  1326.7,1226.48 1326.7,1384.24 1347.38,1384.24 1347.38,1226.48 1326.7,1226.48 
  "/>
<path clip-path="url(#clip202)" d="
M1347.38 1247.03 L1347.38 1384.24 L1368.05 1384.24 L1368.05 1247.03 L1347.38 1247.03 L1347.38 1247.03  Z
  " fill="#009af9" fill-rule="evenodd" fill-opacity="1"/>
<polyline clip-path="url(#clip202)" style="stroke:#000000; stroke-width:4; stroke-opacity:1; fill:none" points="
  1347.38,1247.03 1347.38,1384.24 1368.05,1384.24 1368.05,1247.03 1347.38,1247.03 
  "/>
<path clip-path="url(#clip202)" d="
M1368.05 1268.51 L1368.05 1384.24 L1388.73 1384.24 L1388.73 1268.51 L1368.05 1268.51 L1368.05 1268.51  Z
  " fill="#009af9" fill-rule="evenodd" fill-opacity="1"/>
<polyline clip-path="url(#clip202)" style="stroke:#000000; stroke-width:4; stroke-opacity:1; fill:none" points="
  1368.05,1268.51 1368.05,1384.24 1388.73,1384.24 1388.73,1268.51 1368.05,1268.51 
  "/>
<path clip-path="url(#clip202)" d="
M1388.73 1282.85 L1388.73 1384.24 L1409.41 1384.24 L1409.41 1282.85 L1388.73 1282.85 L1388.73 1282.85  Z
  " fill="#009af9" fill-rule="evenodd" fill-opacity="1"/>
<polyline clip-path="url(#clip202)" style="stroke:#000000; stroke-width:4; stroke-opacity:1; fill:none" points="
  1388.73,1282.85 1388.73,1384.24 1409.41,1384.24 1409.41,1282.85 1388.73,1282.85 
  "/>
<path clip-path="url(#clip202)" d="
M1409.41 1297.99 L1409.41 1384.24 L1430.08 1384.24 L1430.08 1297.99 L1409.41 1297.99 L1409.41 1297.99  Z
  " fill="#009af9" fill-rule="evenodd" fill-opacity="1"/>
<polyline clip-path="url(#clip202)" style="stroke:#000000; stroke-width:4; stroke-opacity:1; fill:none" points="
  1409.41,1297.99 1409.41,1384.24 1430.08,1384.24 1430.08,1297.99 1409.41,1297.99 
  "/>
<path clip-path="url(#clip202)" d="
M1430.08 1312.8 L1430.08 1384.24 L1450.76 1384.24 L1450.76 1312.8 L1430.08 1312.8 L1430.08 1312.8  Z
  " fill="#009af9" fill-rule="evenodd" fill-opacity="1"/>
<polyline clip-path="url(#clip202)" style="stroke:#000000; stroke-width:4; stroke-opacity:1; fill:none" points="
  1430.08,1312.8 1430.08,1384.24 1450.76,1384.24 1450.76,1312.8 1430.08,1312.8 
  "/>
<path clip-path="url(#clip202)" d="
M1450.76 1320.6 L1450.76 1384.24 L1471.44 1384.24 L1471.44 1320.6 L1450.76 1320.6 L1450.76 1320.6  Z
  " fill="#009af9" fill-rule="evenodd" fill-opacity="1"/>
<polyline clip-path="url(#clip202)" style="stroke:#000000; stroke-width:4; stroke-opacity:1; fill:none" points="
  1450.76,1320.6 1450.76,1384.24 1471.44,1384.24 1471.44,1320.6 1450.76,1320.6 
  "/>
<path clip-path="url(#clip202)" d="
M1471.44 1330.81 L1471.44 1384.24 L1492.11 1384.24 L1492.11 1330.81 L1471.44 1330.81 L1471.44 1330.81  Z
  " fill="#009af9" fill-rule="evenodd" fill-opacity="1"/>
<polyline clip-path="url(#clip202)" style="stroke:#000000; stroke-width:4; stroke-opacity:1; fill:none" points="
  1471.44,1330.81 1471.44,1384.24 1492.11,1384.24 1492.11,1330.81 1471.44,1330.81 
  "/>
<path clip-path="url(#clip202)" d="
M1492.11 1340.81 L1492.11 1384.24 L1512.79 1384.24 L1512.79 1340.81 L1492.11 1340.81 L1492.11 1340.81  Z
  " fill="#009af9" fill-rule="evenodd" fill-opacity="1"/>
<polyline clip-path="url(#clip202)" style="stroke:#000000; stroke-width:4; stroke-opacity:1; fill:none" points="
  1492.11,1340.81 1492.11,1384.24 1512.79,1384.24 1512.79,1340.81 1492.11,1340.81 
  "/>
<path clip-path="url(#clip202)" d="
M1512.79 1347.95 L1512.79 1384.24 L1533.47 1384.24 L1533.47 1347.95 L1512.79 1347.95 L1512.79 1347.95  Z
  " fill="#009af9" fill-rule="evenodd" fill-opacity="1"/>
<polyline clip-path="url(#clip202)" style="stroke:#000000; stroke-width:4; stroke-opacity:1; fill:none" points="
  1512.79,1347.95 1512.79,1384.24 1533.47,1384.24 1533.47,1347.95 1512.79,1347.95 
  "/>
<path clip-path="url(#clip202)" d="
M1533.47 1349.55 L1533.47 1384.24 L1554.14 1384.24 L1554.14 1349.55 L1533.47 1349.55 L1533.47 1349.55  Z
  " fill="#009af9" fill-rule="evenodd" fill-opacity="1"/>
<polyline clip-path="url(#clip202)" style="stroke:#000000; stroke-width:4; stroke-opacity:1; fill:none" points="
  1533.47,1349.55 1533.47,1384.24 1554.14,1384.24 1554.14,1349.55 1533.47,1349.55 
  "/>
<path clip-path="url(#clip202)" d="
M1554.14 1358.96 L1554.14 1384.24 L1574.82 1384.24 L1574.82 1358.96 L1554.14 1358.96 L1554.14 1358.96  Z
  " fill="#009af9" fill-rule="evenodd" fill-opacity="1"/>
<polyline clip-path="url(#clip202)" style="stroke:#000000; stroke-width:4; stroke-opacity:1; fill:none" points="
  1554.14,1358.96 1554.14,1384.24 1574.82,1384.24 1574.82,1358.96 1554.14,1358.96 
  "/>
<path clip-path="url(#clip202)" d="
M1574.82 1363.09 L1574.82 1384.24 L1595.5 1384.24 L1595.5 1363.09 L1574.82 1363.09 L1574.82 1363.09  Z
  " fill="#009af9" fill-rule="evenodd" fill-opacity="1"/>
<polyline clip-path="url(#clip202)" style="stroke:#000000; stroke-width:4; stroke-opacity:1; fill:none" points="
  1574.82,1363.09 1574.82,1384.24 1595.5,1384.24 1595.5,1363.09 1574.82,1363.09 
  "/>
<path clip-path="url(#clip202)" d="
M1595.5 1366.63 L1595.5 1384.24 L1616.17 1384.24 L1616.17 1366.63 L1595.5 1366.63 L1595.5 1366.63  Z
  " fill="#009af9" fill-rule="evenodd" fill-opacity="1"/>
<polyline clip-path="url(#clip202)" style="stroke:#000000; stroke-width:4; stroke-opacity:1; fill:none" points="
  1595.5,1366.63 1595.5,1384.24 1616.17,1384.24 1616.17,1366.63 1595.5,1366.63 
  "/>
<path clip-path="url(#clip202)" d="
M1616.17 1370.16 L1616.17 1384.24 L1636.85 1384.24 L1636.85 1370.16 L1616.17 1370.16 L1616.17 1370.16  Z
  " fill="#009af9" fill-rule="evenodd" fill-opacity="1"/>
<polyline clip-path="url(#clip202)" style="stroke:#000000; stroke-width:4; stroke-opacity:1; fill:none" points="
  1616.17,1370.16 1616.17,1384.24 1636.85,1384.24 1636.85,1370.16 1616.17,1370.16 
  "/>
<path clip-path="url(#clip202)" d="
M1636.85 1371.7 L1636.85 1384.24 L1657.53 1384.24 L1657.53 1371.7 L1636.85 1371.7 L1636.85 1371.7  Z
  " fill="#009af9" fill-rule="evenodd" fill-opacity="1"/>
<polyline clip-path="url(#clip202)" style="stroke:#000000; stroke-width:4; stroke-opacity:1; fill:none" points="
  1636.85,1371.7 1636.85,1384.24 1657.53,1384.24 1657.53,1371.7 1636.85,1371.7 
  "/>
<path clip-path="url(#clip202)" d="
M1657.53 1373.5 L1657.53 1384.24 L1678.2 1384.24 L1678.2 1373.5 L1657.53 1373.5 L1657.53 1373.5  Z
  " fill="#009af9" fill-rule="evenodd" fill-opacity="1"/>
<polyline clip-path="url(#clip202)" style="stroke:#000000; stroke-width:4; stroke-opacity:1; fill:none" points="
  1657.53,1373.5 1657.53,1384.24 1678.2,1384.24 1678.2,1373.5 1657.53,1373.5 
  "/>
<path clip-path="url(#clip202)" d="
M1678.2 1375.77 L1678.2 1384.24 L1698.88 1384.24 L1698.88 1375.77 L1678.2 1375.77 L1678.2 1375.77  Z
  " fill="#009af9" fill-rule="evenodd" fill-opacity="1"/>
<polyline clip-path="url(#clip202)" style="stroke:#000000; stroke-width:4; stroke-opacity:1; fill:none" points="
  1678.2,1375.77 1678.2,1384.24 1698.88,1384.24 1698.88,1375.77 1678.2,1375.77 
  "/>
<path clip-path="url(#clip202)" d="
M1698.88 1377.03 L1698.88 1384.24 L1719.56 1384.24 L1719.56 1377.03 L1698.88 1377.03 L1698.88 1377.03  Z
  " fill="#009af9" fill-rule="evenodd" fill-opacity="1"/>
<polyline clip-path="url(#clip202)" style="stroke:#000000; stroke-width:4; stroke-opacity:1; fill:none" points="
  1698.88,1377.03 1698.88,1384.24 1719.56,1384.24 1719.56,1377.03 1698.88,1377.03 
  "/>
<path clip-path="url(#clip202)" d="
M1719.56 1378.7 L1719.56 1384.24 L1740.23 1384.24 L1740.23 1378.7 L1719.56 1378.7 L1719.56 1378.7  Z
  " fill="#009af9" fill-rule="evenodd" fill-opacity="1"/>
<polyline clip-path="url(#clip202)" style="stroke:#000000; stroke-width:4; stroke-opacity:1; fill:none" points="
  1719.56,1378.7 1719.56,1384.24 1740.23,1384.24 1740.23,1378.7 1719.56,1378.7 
  "/>
<path clip-path="url(#clip202)" d="
M1740.23 1380.97 L1740.23 1384.24 L1760.91 1384.24 L1760.91 1380.97 L1740.23 1380.97 L1740.23 1380.97  Z
  " fill="#009af9" fill-rule="evenodd" fill-opacity="1"/>
<polyline clip-path="url(#clip202)" style="stroke:#000000; stroke-width:4; stroke-opacity:1; fill:none" points="
  1740.23,1380.97 1740.23,1384.24 1760.91,1384.24 1760.91,1380.97 1740.23,1380.97 
  "/>
<path clip-path="url(#clip202)" d="
M1760.91 1379.24 L1760.91 1384.24 L1781.59 1384.24 L1781.59 1379.24 L1760.91 1379.24 L1760.91 1379.24  Z
  " fill="#009af9" fill-rule="evenodd" fill-opacity="1"/>
<polyline clip-path="url(#clip202)" style="stroke:#000000; stroke-width:4; stroke-opacity:1; fill:none" points="
  1760.91,1379.24 1760.91,1384.24 1781.59,1384.24 1781.59,1379.24 1760.91,1379.24 
  "/>
<path clip-path="url(#clip202)" d="
M1781.59 1381.24 L1781.59 1384.24 L1802.26 1384.24 L1802.26 1381.24 L1781.59 1381.24 L1781.59 1381.24  Z
  " fill="#009af9" fill-rule="evenodd" fill-opacity="1"/>
<polyline clip-path="url(#clip202)" style="stroke:#000000; stroke-width:4; stroke-opacity:1; fill:none" points="
  1781.59,1381.24 1781.59,1384.24 1802.26,1384.24 1802.26,1381.24 1781.59,1381.24 
  "/>
<path clip-path="url(#clip202)" d="
M1802.26 1381.77 L1802.26 1384.24 L1822.94 1384.24 L1822.94 1381.77 L1802.26 1381.77 L1802.26 1381.77  Z
  " fill="#009af9" fill-rule="evenodd" fill-opacity="1"/>
<polyline clip-path="url(#clip202)" style="stroke:#000000; stroke-width:4; stroke-opacity:1; fill:none" points="
  1802.26,1381.77 1802.26,1384.24 1822.94,1384.24 1822.94,1381.77 1802.26,1381.77 
  "/>
<path clip-path="url(#clip202)" d="
M1822.94 1382.1 L1822.94 1384.24 L1843.62 1384.24 L1843.62 1382.1 L1822.94 1382.1 L1822.94 1382.1  Z
  " fill="#009af9" fill-rule="evenodd" fill-opacity="1"/>
<polyline clip-path="url(#clip202)" style="stroke:#000000; stroke-width:4; stroke-opacity:1; fill:none" points="
  1822.94,1382.1 1822.94,1384.24 1843.62,1384.24 1843.62,1382.1 1822.94,1382.1 
  "/>
<path clip-path="url(#clip202)" d="
M1843.62 1382.9 L1843.62 1384.24 L1864.29 1384.24 L1864.29 1382.9 L1843.62 1382.9 L1843.62 1382.9  Z
  " fill="#009af9" fill-rule="evenodd" fill-opacity="1"/>
<polyline clip-path="url(#clip202)" style="stroke:#000000; stroke-width:4; stroke-opacity:1; fill:none" points="
  1843.62,1382.9 1843.62,1384.24 1864.29,1384.24 1864.29,1382.9 1843.62,1382.9 
  "/>
<path clip-path="url(#clip202)" d="
M1864.29 1382.9 L1864.29 1384.24 L1884.97 1384.24 L1884.97 1382.9 L1864.29 1382.9 L1864.29 1382.9  Z
  " fill="#009af9" fill-rule="evenodd" fill-opacity="1"/>
<polyline clip-path="url(#clip202)" style="stroke:#000000; stroke-width:4; stroke-opacity:1; fill:none" points="
  1864.29,1382.9 1864.29,1384.24 1884.97,1384.24 1884.97,1382.9 1864.29,1382.9 
  "/>
<path clip-path="url(#clip202)" d="
M1884.97 1383.37 L1884.97 1384.24 L1905.65 1384.24 L1905.65 1383.37 L1884.97 1383.37 L1884.97 1383.37  Z
  " fill="#009af9" fill-rule="evenodd" fill-opacity="1"/>
<polyline clip-path="url(#clip202)" style="stroke:#000000; stroke-width:4; stroke-opacity:1; fill:none" points="
  1884.97,1383.37 1884.97,1384.24 1905.65,1384.24 1905.65,1383.37 1884.97,1383.37 
  "/>
<path clip-path="url(#clip202)" d="
M1905.65 1383.57 L1905.65 1384.24 L1926.32 1384.24 L1926.32 1383.57 L1905.65 1383.57 L1905.65 1383.57  Z
  " fill="#009af9" fill-rule="evenodd" fill-opacity="1"/>
<polyline clip-path="url(#clip202)" style="stroke:#000000; stroke-width:4; stroke-opacity:1; fill:none" points="
  1905.65,1383.57 1905.65,1384.24 1926.32,1384.24 1926.32,1383.57 1905.65,1383.57 
  "/>
<path clip-path="url(#clip202)" d="
M1926.32 1383.5 L1926.32 1384.24 L1947 1384.24 L1947 1383.5 L1926.32 1383.5 L1926.32 1383.5  Z
  " fill="#009af9" fill-rule="evenodd" fill-opacity="1"/>
<polyline clip-path="url(#clip202)" style="stroke:#000000; stroke-width:4; stroke-opacity:1; fill:none" points="
  1926.32,1383.5 1926.32,1384.24 1947,1384.24 1947,1383.5 1926.32,1383.5 
  "/>
<path clip-path="url(#clip202)" d="
M1947 1383.77 L1947 1384.24 L1967.68 1384.24 L1967.68 1383.77 L1947 1383.77 L1947 1383.77  Z
  " fill="#009af9" fill-rule="evenodd" fill-opacity="1"/>
<polyline clip-path="url(#clip202)" style="stroke:#000000; stroke-width:4; stroke-opacity:1; fill:none" points="
  1947,1383.77 1947,1384.24 1967.68,1384.24 1967.68,1383.77 1947,1383.77 
  "/>
<path clip-path="url(#clip202)" d="
M1967.68 1383.84 L1967.68 1384.24 L1988.35 1384.24 L1988.35 1383.84 L1967.68 1383.84 L1967.68 1383.84  Z
  " fill="#009af9" fill-rule="evenodd" fill-opacity="1"/>
<polyline clip-path="url(#clip202)" style="stroke:#000000; stroke-width:4; stroke-opacity:1; fill:none" points="
  1967.68,1383.84 1967.68,1384.24 1988.35,1384.24 1988.35,1383.84 1967.68,1383.84 
  "/>
<path clip-path="url(#clip202)" d="
M1988.35 1383.97 L1988.35 1384.24 L2009.03 1384.24 L2009.03 1383.97 L1988.35 1383.97 L1988.35 1383.97  Z
  " fill="#009af9" fill-rule="evenodd" fill-opacity="1"/>
<polyline clip-path="url(#clip202)" style="stroke:#000000; stroke-width:4; stroke-opacity:1; fill:none" points="
  1988.35,1383.97 1988.35,1384.24 2009.03,1384.24 2009.03,1383.97 1988.35,1383.97 
  "/>
<path clip-path="url(#clip202)" d="
M2009.03 1383.97 L2009.03 1384.24 L2029.71 1384.24 L2029.71 1383.97 L2009.03 1383.97 L2009.03 1383.97  Z
  " fill="#009af9" fill-rule="evenodd" fill-opacity="1"/>
<polyline clip-path="url(#clip202)" style="stroke:#000000; stroke-width:4; stroke-opacity:1; fill:none" points="
  2009.03,1383.97 2009.03,1384.24 2029.71,1384.24 2029.71,1383.97 2009.03,1383.97 
  "/>
<path clip-path="url(#clip202)" d="
M2029.71 1384.1 L2029.71 1384.24 L2050.38 1384.24 L2050.38 1384.1 L2029.71 1384.1 L2029.71 1384.1  Z
  " fill="#009af9" fill-rule="evenodd" fill-opacity="1"/>
<polyline clip-path="url(#clip202)" style="stroke:#000000; stroke-width:4; stroke-opacity:1; fill:none" points="
  2029.71,1384.1 2029.71,1384.24 2050.38,1384.24 2050.38,1384.1 2029.71,1384.1 
  "/>
<path clip-path="url(#clip202)" d="
M2050.38 1384.1 L2050.38 1384.24 L2071.06 1384.24 L2071.06 1384.1 L2050.38 1384.1 L2050.38 1384.1  Z
  " fill="#009af9" fill-rule="evenodd" fill-opacity="1"/>
<polyline clip-path="url(#clip202)" style="stroke:#000000; stroke-width:4; stroke-opacity:1; fill:none" points="
  2050.38,1384.1 2050.38,1384.24 2071.06,1384.24 2071.06,1384.1 2050.38,1384.1 
  "/>
<path clip-path="url(#clip202)" d="
M2071.06 1384.24 L2071.06 1384.24 L2091.74 1384.24 L2091.74 1384.24 L2071.06 1384.24 L2071.06 1384.24  Z
  " fill="#009af9" fill-rule="evenodd" fill-opacity="1"/>
<polyline clip-path="url(#clip202)" style="stroke:#000000; stroke-width:4; stroke-opacity:1; fill:none" points="
  2071.06,1384.24 2071.06,1384.24 2091.74,1384.24 2071.06,1384.24 
  "/>
<path clip-path="url(#clip202)" d="
M2091.74 1383.97 L2091.74 1384.24 L2112.41 1384.24 L2112.41 1383.97 L2091.74 1383.97 L2091.74 1383.97  Z
  " fill="#009af9" fill-rule="evenodd" fill-opacity="1"/>
<polyline clip-path="url(#clip202)" style="stroke:#000000; stroke-width:4; stroke-opacity:1; fill:none" points="
  2091.74,1383.97 2091.74,1384.24 2112.41,1384.24 2112.41,1383.97 2091.74,1383.97 
  "/>
<path clip-path="url(#clip202)" d="
M2112.41 1384.24 L2112.41 1384.24 L2133.09 1384.24 L2133.09 1384.24 L2112.41 1384.24 L2112.41 1384.24  Z
  " fill="#009af9" fill-rule="evenodd" fill-opacity="1"/>
<polyline clip-path="url(#clip202)" style="stroke:#000000; stroke-width:4; stroke-opacity:1; fill:none" points="
  2112.41,1384.24 2112.41,1384.24 2133.09,1384.24 2112.41,1384.24 
  "/>
<path clip-path="url(#clip202)" d="
M2133.09 1384.24 L2133.09 1384.24 L2153.77 1384.24 L2153.77 1384.24 L2133.09 1384.24 L2133.09 1384.24  Z
  " fill="#009af9" fill-rule="evenodd" fill-opacity="1"/>
<polyline clip-path="url(#clip202)" style="stroke:#000000; stroke-width:4; stroke-opacity:1; fill:none" points="
  2133.09,1384.24 2133.09,1384.24 2153.77,1384.24 2133.09,1384.24 
  "/>
<path clip-path="url(#clip202)" d="
M2153.77 1384.24 L2153.77 1384.24 L2174.44 1384.24 L2174.44 1384.24 L2153.77 1384.24 L2153.77 1384.24  Z
  " fill="#009af9" fill-rule="evenodd" fill-opacity="1"/>
<polyline clip-path="url(#clip202)" style="stroke:#000000; stroke-width:4; stroke-opacity:1; fill:none" points="
  2153.77,1384.24 2153.77,1384.24 2174.44,1384.24 2153.77,1384.24 
  "/>
<path clip-path="url(#clip202)" d="
M2174.44 1384.17 L2174.44 1384.24 L2195.12 1384.24 L2195.12 1384.17 L2174.44 1384.17 L2174.44 1384.17  Z
  " fill="#009af9" fill-rule="evenodd" fill-opacity="1"/>
<polyline clip-path="url(#clip202)" style="stroke:#000000; stroke-width:4; stroke-opacity:1; fill:none" points="
  2174.44,1384.17 2174.44,1384.24 2195.12,1384.24 2195.12,1384.17 2174.44,1384.17 
  "/>
<path clip-path="url(#clip202)" d="
M2195.12 1384.24 L2195.12 1384.24 L2215.8 1384.24 L2215.8 1384.24 L2195.12 1384.24 L2195.12 1384.24  Z
  " fill="#009af9" fill-rule="evenodd" fill-opacity="1"/>
<polyline clip-path="url(#clip202)" style="stroke:#000000; stroke-width:4; stroke-opacity:1; fill:none" points="
  2195.12,1384.24 2195.12,1384.24 2215.8,1384.24 2195.12,1384.24 
  "/>
<path clip-path="url(#clip202)" d="
M2215.8 1384.17 L2215.8 1384.24 L2236.47 1384.24 L2236.47 1384.17 L2215.8 1384.17 L2215.8 1384.17  Z
  " fill="#009af9" fill-rule="evenodd" fill-opacity="1"/>
<polyline clip-path="url(#clip202)" style="stroke:#000000; stroke-width:4; stroke-opacity:1; fill:none" points="
  2215.8,1384.17 2215.8,1384.24 2236.47,1384.24 2236.47,1384.17 2215.8,1384.17 
  "/>
<polyline clip-path="url(#clip202)" style="stroke:#e26f46; stroke-width:4; stroke-opacity:1; fill:none" points="
  871.814,2799.12 871.814,-1328.69 
  "/>
<polyline clip-path="url(#clip202)" style="stroke:#3da44d; stroke-width:4; stroke-opacity:1; fill:none" points="
  871.833,2799.12 871.833,-1328.69 
  "/>
<path clip-path="url(#clip200)" d="
M1689.63 335.029 L2282.28 335.029 L2282.28 93.1086 L1689.63 93.1086  Z
  " fill="#ffffff" fill-rule="evenodd" fill-opacity="1"/>
<polyline clip-path="url(#clip200)" style="stroke:#000000; stroke-width:4; stroke-opacity:1; fill:none" points="
  1689.63,335.029 2282.28,335.029 2282.28,93.1086 1689.63,93.1086 1689.63,335.029 
  "/>
<path clip-path="url(#clip200)" d="
M1713.12 177.781 L1854.06 177.781 L1854.06 129.397 L1713.12 129.397 L1713.12 177.781  Z
  " fill="#009af9" fill-rule="evenodd" fill-opacity="1"/>
<polyline clip-path="url(#clip200)" style="stroke:#000000; stroke-width:4; stroke-opacity:1; fill:none" points="
  1713.12,177.781 1854.06,177.781 1854.06,129.397 1713.12,129.397 1713.12,177.781 
  "/>
<path clip-path="url(#clip200)" d="M 0 0 M1891.39 173.276 Q1889.59 177.906 1887.88 179.318 Q1886.16 180.73 1883.29 180.73 L1879.89 180.73 L1879.89 177.165 L1882.39 177.165 Q1884.15 177.165 1885.12 176.332 Q1886.09 175.498 1887.27 172.396 L1888.04 170.452 L1877.55 144.943 L1882.06 144.943 L1890.17 165.221 L1898.27 144.943 L1902.78 144.943 L1891.39 173.276 Z" fill="#000000" fill-rule="evenodd" fill-opacity="1" /><path clip-path="url(#clip200)" d="M 0 0 M1908.66 166.933 L1916.3 166.933 L1916.3 140.568 L1907.99 142.235 L1907.99 137.975 L1916.25 136.309 L1920.93 136.309 L1920.93 166.933 L1928.57 166.933 L1928.57 170.869 L1908.66 170.869 L1908.66 166.933 Z" fill="#000000" fill-rule="evenodd" fill-opacity="1" /><polyline clip-path="url(#clip200)" style="stroke:#e26f46; stroke-width:4; stroke-opacity:1; fill:none" points="
  1713.12,214.069 1854.06,214.069 
  "/>
<path clip-path="url(#clip200)" d="M 0 0 M1884.96 198.062 L1884.96 205.423 L1893.73 205.423 L1893.73 208.733 L1884.96 208.733 L1884.96 222.807 Q1884.96 225.978 1885.81 226.881 Q1886.69 227.784 1889.36 227.784 L1893.73 227.784 L1893.73 231.349 L1889.36 231.349 Q1884.43 231.349 1882.55 229.52 Q1880.68 227.668 1880.68 222.807 L1880.68 208.733 L1877.55 208.733 L1877.55 205.423 L1880.68 205.423 L1880.68 198.062 L1884.96 198.062 Z" fill="#000000" fill-rule="evenodd" fill-opacity="1" /><path clip-path="url(#clip200)" d="M 0 0 M1919.75 215.701 L1919.75 231.349 L1915.49 231.349 L1915.49 215.839 Q1915.49 212.159 1914.06 210.33 Q1912.62 208.502 1909.75 208.502 Q1906.3 208.502 1904.31 210.701 Q1902.32 212.9 1902.32 216.696 L1902.32 231.349 L1898.04 231.349 L1898.04 195.33 L1902.32 195.33 L1902.32 209.451 Q1903.85 207.113 1905.91 205.955 Q1907.99 204.798 1910.7 204.798 Q1915.17 204.798 1917.46 207.576 Q1919.75 210.33 1919.75 215.701 Z" fill="#000000" fill-rule="evenodd" fill-opacity="1" /><path clip-path="url(#clip200)" d="M 0 0 M1946.39 217.321 L1946.39 219.404 L1926.81 219.404 Q1927.09 223.802 1929.45 226.117 Q1931.83 228.409 1936.07 228.409 Q1938.52 228.409 1940.81 227.807 Q1943.13 227.205 1945.4 226.001 L1945.4 230.029 Q1943.11 231.001 1940.7 231.511 Q1938.29 232.02 1935.81 232.02 Q1929.61 232.02 1925.98 228.409 Q1922.37 224.798 1922.37 218.64 Q1922.37 212.275 1925.79 208.548 Q1929.24 204.798 1935.07 204.798 Q1940.31 204.798 1943.34 208.177 Q1946.39 211.534 1946.39 217.321 M1942.13 216.071 Q1942.09 212.576 1940.17 210.492 Q1938.27 208.409 1935.12 208.409 Q1931.56 208.409 1929.4 210.423 Q1927.27 212.437 1926.95 216.094 L1942.13 216.071 Z" fill="#000000" fill-rule="evenodd" fill-opacity="1" /><path clip-path="url(#clip200)" d="M 0 0 M1960.91 208.409 Q1957.48 208.409 1955.49 211.094 Q1953.5 213.756 1953.5 218.409 Q1953.5 223.062 1955.47 225.747 Q1957.46 228.409 1960.91 228.409 Q1964.31 228.409 1966.3 225.724 Q1968.29 223.038 1968.29 218.409 Q1968.29 213.802 1966.3 211.117 Q1964.31 208.409 1960.91 208.409 M1960.91 204.798 Q1966.46 204.798 1969.63 208.409 Q1972.81 212.02 1972.81 218.409 Q1972.81 224.775 1969.63 228.409 Q1966.46 232.02 1960.91 232.02 Q1955.33 232.02 1952.16 228.409 Q1949.01 224.775 1949.01 218.409 Q1949.01 212.02 1952.16 208.409 Q1955.33 204.798 1960.91 204.798 Z" fill="#000000" fill-rule="evenodd" fill-opacity="1" /><path clip-path="url(#clip200)" d="M 0 0 M1992.3 209.404 Q1991.58 208.988 1990.72 208.802 Q1989.89 208.594 1988.87 208.594 Q1985.26 208.594 1983.31 210.955 Q1981.39 213.293 1981.39 217.691 L1981.39 231.349 L1977.11 231.349 L1977.11 205.423 L1981.39 205.423 L1981.39 209.451 Q1982.74 207.089 1984.89 205.955 Q1987.04 204.798 1990.12 204.798 Q1990.56 204.798 1991.09 204.867 Q1991.62 204.914 1992.27 205.029 L1992.3 209.404 Z" fill="#000000" fill-rule="evenodd" fill-opacity="1" /><path clip-path="url(#clip200)" d="M 0 0 M2017.9 217.321 L2017.9 219.404 L1998.31 219.404 Q1998.59 223.802 2000.95 226.117 Q2003.34 228.409 2007.57 228.409 Q2010.03 228.409 2012.32 227.807 Q2014.63 227.205 2016.9 226.001 L2016.9 230.029 Q2014.61 231.001 2012.2 231.511 Q2009.8 232.02 2007.32 232.02 Q2001.12 232.02 1997.48 228.409 Q1993.87 224.798 1993.87 218.64 Q1993.87 212.275 1997.3 208.548 Q2000.74 204.798 2006.58 204.798 Q2011.81 204.798 2014.84 208.177 Q2017.9 211.534 2017.9 217.321 M2013.64 216.071 Q2013.59 212.576 2011.67 210.492 Q2009.77 208.409 2006.62 208.409 Q2003.06 208.409 2000.91 210.423 Q1998.78 212.437 1998.45 216.094 L2013.64 216.071 Z" fill="#000000" fill-rule="evenodd" fill-opacity="1" /><path clip-path="url(#clip200)" d="M 0 0 M2026.58 198.062 L2026.58 205.423 L2035.35 205.423 L2035.35 208.733 L2026.58 208.733 L2026.58 222.807 Q2026.58 225.978 2027.43 226.881 Q2028.31 227.784 2030.98 227.784 L2035.35 227.784 L2035.35 231.349 L2030.98 231.349 Q2026.05 231.349 2024.17 229.52 Q2022.3 227.668 2022.3 222.807 L2022.3 208.733 L2019.17 208.733 L2019.17 205.423 L2022.3 205.423 L2022.3 198.062 L2026.58 198.062 Z" fill="#000000" fill-rule="evenodd" fill-opacity="1" /><path clip-path="url(#clip200)" d="M 0 0 M2039.82 205.423 L2044.08 205.423 L2044.08 231.349 L2039.82 231.349 L2039.82 205.423 M2039.82 195.33 L2044.08 195.33 L2044.08 200.724 L2039.82 200.724 L2039.82 195.33 Z" fill="#000000" fill-rule="evenodd" fill-opacity="1" /><path clip-path="url(#clip200)" d="M 0 0 M2067.2 206.418 L2067.2 210.4 Q2065.4 209.404 2063.57 208.918 Q2061.76 208.409 2059.91 208.409 Q2055.77 208.409 2053.48 211.048 Q2051.18 213.664 2051.18 218.409 Q2051.18 223.154 2053.48 225.793 Q2055.77 228.409 2059.91 228.409 Q2061.76 228.409 2063.57 227.923 Q2065.4 227.413 2067.2 226.418 L2067.2 230.353 Q2065.42 231.187 2063.5 231.603 Q2061.6 232.02 2059.45 232.02 Q2053.59 232.02 2050.14 228.339 Q2046.69 224.659 2046.69 218.409 Q2046.69 212.066 2050.17 208.432 Q2053.66 204.798 2059.73 204.798 Q2061.69 204.798 2063.57 205.215 Q2065.44 205.608 2067.2 206.418 Z" fill="#000000" fill-rule="evenodd" fill-opacity="1" /><path clip-path="url(#clip200)" d="M 0 0 M2083.45 218.316 Q2078.29 218.316 2076.3 219.497 Q2074.31 220.677 2074.31 223.525 Q2074.31 225.793 2075.79 227.136 Q2077.3 228.455 2079.86 228.455 Q2083.41 228.455 2085.54 225.955 Q2087.69 223.432 2087.69 219.265 L2087.69 218.316 L2083.45 218.316 M2091.95 216.557 L2091.95 231.349 L2087.69 231.349 L2087.69 227.413 Q2086.23 229.775 2084.05 230.909 Q2081.88 232.02 2078.73 232.02 Q2074.75 232.02 2072.39 229.798 Q2070.05 227.552 2070.05 223.802 Q2070.05 219.427 2072.97 217.205 Q2075.91 214.983 2081.72 214.983 L2087.69 214.983 L2087.69 214.566 Q2087.69 211.627 2085.74 210.029 Q2083.82 208.409 2080.33 208.409 Q2078.11 208.409 2076 208.941 Q2073.89 209.474 2071.95 210.539 L2071.95 206.603 Q2074.29 205.701 2076.49 205.261 Q2078.68 204.798 2080.77 204.798 Q2086.39 204.798 2089.17 207.714 Q2091.95 210.631 2091.95 216.557 Z" fill="#000000" fill-rule="evenodd" fill-opacity="1" /><path clip-path="url(#clip200)" d="M 0 0 M2096.42 195.33 L2100.67 195.33 L2100.67 231.349 L2096.42 231.349 L2096.42 195.33 Z" fill="#000000" fill-rule="evenodd" fill-opacity="1" /><path clip-path="url(#clip200)" d="M 0 0 M2140.4 210.4 Q2141.99 207.529 2144.22 206.164 Q2146.44 204.798 2149.45 204.798 Q2153.5 204.798 2155.7 207.645 Q2157.9 210.469 2157.9 215.701 L2157.9 231.349 L2153.61 231.349 L2153.61 215.839 Q2153.61 212.113 2152.29 210.307 Q2150.98 208.502 2148.27 208.502 Q2144.96 208.502 2143.04 210.701 Q2141.11 212.9 2141.11 216.696 L2141.11 231.349 L2136.83 231.349 L2136.83 215.839 Q2136.83 212.089 2135.51 210.307 Q2134.19 208.502 2131.44 208.502 Q2128.17 208.502 2126.25 210.724 Q2124.33 212.923 2124.33 216.696 L2124.33 231.349 L2120.05 231.349 L2120.05 205.423 L2124.33 205.423 L2124.33 209.451 Q2125.79 207.066 2127.83 205.932 Q2129.86 204.798 2132.67 204.798 Q2135.49 204.798 2137.46 206.233 Q2139.45 207.668 2140.4 210.4 Z" fill="#000000" fill-rule="evenodd" fill-opacity="1" /><path clip-path="url(#clip200)" d="M 0 0 M2184.54 217.321 L2184.54 219.404 L2164.96 219.404 Q2165.23 223.802 2167.6 226.117 Q2169.98 228.409 2174.22 228.409 Q2176.67 228.409 2178.96 227.807 Q2181.28 227.205 2183.54 226.001 L2183.54 230.029 Q2181.25 231.001 2178.85 231.511 Q2176.44 232.02 2173.96 232.02 Q2167.76 232.02 2164.12 228.409 Q2160.51 224.798 2160.51 218.64 Q2160.51 212.275 2163.94 208.548 Q2167.39 204.798 2173.22 204.798 Q2178.45 204.798 2181.48 208.177 Q2184.54 211.534 2184.54 217.321 M2180.28 216.071 Q2180.23 212.576 2178.31 210.492 Q2176.42 208.409 2173.27 208.409 Q2169.7 208.409 2167.55 210.423 Q2165.42 212.437 2165.1 216.094 L2180.28 216.071 Z" fill="#000000" fill-rule="evenodd" fill-opacity="1" /><path clip-path="url(#clip200)" d="M 0 0 M2200.79 218.316 Q2195.63 218.316 2193.64 219.497 Q2191.65 220.677 2191.65 223.525 Q2191.65 225.793 2193.13 227.136 Q2194.63 228.455 2197.2 228.455 Q2200.74 228.455 2202.87 225.955 Q2205.03 223.432 2205.03 219.265 L2205.03 218.316 L2200.79 218.316 M2209.29 216.557 L2209.29 231.349 L2205.03 231.349 L2205.03 227.413 Q2203.57 229.775 2201.39 230.909 Q2199.22 232.02 2196.07 232.02 Q2192.09 232.02 2189.73 229.798 Q2187.39 227.552 2187.39 223.802 Q2187.39 219.427 2190.3 217.205 Q2193.24 214.983 2199.05 214.983 L2205.03 214.983 L2205.03 214.566 Q2205.03 211.627 2203.08 210.029 Q2201.16 208.409 2197.67 208.409 Q2195.44 208.409 2193.34 208.941 Q2191.23 209.474 2189.29 210.539 L2189.29 206.603 Q2191.62 205.701 2193.82 205.261 Q2196.02 204.798 2198.1 204.798 Q2203.73 204.798 2206.51 207.714 Q2209.29 210.631 2209.29 216.557 Z" fill="#000000" fill-rule="evenodd" fill-opacity="1" /><path clip-path="url(#clip200)" d="M 0 0 M2235.3 215.701 L2235.3 231.349 L2231.04 231.349 L2231.04 215.839 Q2231.04 212.159 2229.61 210.33 Q2228.17 208.502 2225.3 208.502 Q2221.85 208.502 2219.86 210.701 Q2217.87 212.9 2217.87 216.696 L2217.87 231.349 L2213.59 231.349 L2213.59 205.423 L2217.87 205.423 L2217.87 209.451 Q2219.4 207.113 2221.46 205.955 Q2223.54 204.798 2226.25 204.798 Q2230.72 204.798 2233.01 207.576 Q2235.3 210.33 2235.3 215.701 Z" fill="#000000" fill-rule="evenodd" fill-opacity="1" /><polyline clip-path="url(#clip200)" style="stroke:#3da44d; stroke-width:4; stroke-opacity:1; fill:none" points="
  1713.12,274.549 1854.06,274.549 
  "/>
<path clip-path="url(#clip200)" d="M 0 0 M1895.98 266.667 L1895.98 270.694 Q1894.17 269.769 1892.23 269.306 Q1890.28 268.843 1888.2 268.843 Q1885.03 268.843 1883.43 269.815 Q1881.86 270.787 1881.86 272.731 Q1881.86 274.213 1882.99 275.069 Q1884.13 275.903 1887.55 276.667 L1889.01 276.991 Q1893.55 277.963 1895.44 279.745 Q1897.37 281.505 1897.37 284.676 Q1897.37 288.287 1894.5 290.393 Q1891.65 292.5 1886.65 292.5 Q1884.56 292.5 1882.3 292.083 Q1880.05 291.69 1877.55 290.88 L1877.55 286.481 Q1879.91 287.708 1882.2 288.333 Q1884.5 288.935 1886.74 288.935 Q1889.75 288.935 1891.37 287.917 Q1892.99 286.875 1892.99 285 Q1892.99 283.264 1891.81 282.338 Q1890.65 281.412 1886.69 280.556 L1885.21 280.208 Q1881.25 279.375 1879.5 277.662 Q1877.74 275.926 1877.74 272.917 Q1877.74 269.259 1880.33 267.269 Q1882.92 265.278 1887.69 265.278 Q1890.05 265.278 1892.13 265.625 Q1894.22 265.972 1895.98 266.667 Z" fill="#000000" fill-rule="evenodd" fill-opacity="1" /><path clip-path="url(#clip200)" d="M 0 0 M1906.05 258.542 L1906.05 265.903 L1914.82 265.903 L1914.82 269.213 L1906.05 269.213 L1906.05 283.287 Q1906.05 286.458 1906.9 287.361 Q1907.78 288.264 1910.44 288.264 L1914.82 288.264 L1914.82 291.829 L1910.44 291.829 Q1905.51 291.829 1903.64 290 Q1901.76 288.148 1901.76 283.287 L1901.76 269.213 L1898.64 269.213 L1898.64 265.903 L1901.76 265.903 L1901.76 258.542 L1906.05 258.542 Z" fill="#000000" fill-rule="evenodd" fill-opacity="1" /><path clip-path="url(#clip200)" d="M 0 0 M1931.07 278.796 Q1925.91 278.796 1923.92 279.977 Q1921.93 281.157 1921.93 284.005 Q1921.93 286.273 1923.41 287.616 Q1924.91 288.935 1927.48 288.935 Q1931.02 288.935 1933.15 286.435 Q1935.31 283.912 1935.31 279.745 L1935.31 278.796 L1931.07 278.796 M1939.56 277.037 L1939.56 291.829 L1935.31 291.829 L1935.31 287.893 Q1933.85 290.255 1931.67 291.389 Q1929.5 292.5 1926.35 292.5 Q1922.37 292.5 1920 290.278 Q1917.67 288.032 1917.67 284.282 Q1917.67 279.907 1920.58 277.685 Q1923.52 275.463 1929.33 275.463 L1935.31 275.463 L1935.31 275.046 Q1935.31 272.107 1933.36 270.509 Q1931.44 268.889 1927.94 268.889 Q1925.72 268.889 1923.62 269.421 Q1921.51 269.954 1919.56 271.019 L1919.56 267.083 Q1921.9 266.181 1924.1 265.741 Q1926.3 265.278 1928.38 265.278 Q1934.01 265.278 1936.79 268.194 Q1939.56 271.111 1939.56 277.037 Z" fill="#000000" fill-rule="evenodd" fill-opacity="1" /><path clip-path="url(#clip200)" d="M 0 0 M1948.25 258.542 L1948.25 265.903 L1957.02 265.903 L1957.02 269.213 L1948.25 269.213 L1948.25 283.287 Q1948.25 286.458 1949.1 287.361 Q1949.98 288.264 1952.64 288.264 L1957.02 288.264 L1957.02 291.829 L1952.64 291.829 Q1947.71 291.829 1945.84 290 Q1943.96 288.148 1943.96 283.287 L1943.96 269.213 L1940.84 269.213 L1940.84 265.903 L1943.96 265.903 L1943.96 258.542 L1948.25 258.542 Z" fill="#000000" fill-rule="evenodd" fill-opacity="1" /><path clip-path="url(#clip200)" d="M 0 0 M1961.49 265.903 L1965.74 265.903 L1965.74 291.829 L1961.49 291.829 L1961.49 265.903 M1961.49 255.81 L1965.74 255.81 L1965.74 261.204 L1961.49 261.204 L1961.49 255.81 Z" fill="#000000" fill-rule="evenodd" fill-opacity="1" /><path clip-path="url(#clip200)" d="M 0 0 M1986.74 266.667 L1986.74 270.694 Q1984.93 269.769 1982.99 269.306 Q1981.05 268.843 1978.96 268.843 Q1975.79 268.843 1974.19 269.815 Q1972.62 270.787 1972.62 272.731 Q1972.62 274.213 1973.75 275.069 Q1974.89 275.903 1978.31 276.667 L1979.77 276.991 Q1984.31 277.963 1986.21 279.745 Q1988.13 281.505 1988.13 284.676 Q1988.13 288.287 1985.26 290.393 Q1982.41 292.5 1977.41 292.5 Q1975.33 292.5 1973.06 292.083 Q1970.81 291.69 1968.31 290.88 L1968.31 286.481 Q1970.68 287.708 1972.97 288.333 Q1975.26 288.935 1977.5 288.935 Q1980.51 288.935 1982.13 287.917 Q1983.75 286.875 1983.75 285 Q1983.75 283.264 1982.57 282.338 Q1981.42 281.412 1977.46 280.556 L1975.98 280.208 Q1972.02 279.375 1970.26 277.662 Q1968.5 275.926 1968.5 272.917 Q1968.5 269.259 1971.09 267.269 Q1973.68 265.278 1978.45 265.278 Q1980.81 265.278 1982.9 265.625 Q1984.98 265.972 1986.74 266.667 Z" fill="#000000" fill-rule="evenodd" fill-opacity="1" /><path clip-path="url(#clip200)" d="M 0 0 M1996.81 258.542 L1996.81 265.903 L2005.58 265.903 L2005.58 269.213 L1996.81 269.213 L1996.81 283.287 Q1996.81 286.458 1997.67 287.361 Q1998.55 288.264 2001.21 288.264 L2005.58 288.264 L2005.58 291.829 L2001.21 291.829 Q1996.28 291.829 1994.4 290 Q1992.53 288.148 1992.53 283.287 L1992.53 269.213 L1989.4 269.213 L1989.4 265.903 L1992.53 265.903 L1992.53 258.542 L1996.81 258.542 Z" fill="#000000" fill-rule="evenodd" fill-opacity="1" /><path clip-path="url(#clip200)" d="M 0 0 M2010.05 265.903 L2014.31 265.903 L2014.31 291.829 L2010.05 291.829 L2010.05 265.903 M2010.05 255.81 L2014.31 255.81 L2014.31 261.204 L2010.05 261.204 L2010.05 255.81 Z" fill="#000000" fill-rule="evenodd" fill-opacity="1" /><path clip-path="url(#clip200)" d="M 0 0 M2037.43 266.898 L2037.43 270.88 Q2035.63 269.884 2033.8 269.398 Q2031.99 268.889 2030.14 268.889 Q2026 268.889 2023.71 271.528 Q2021.42 274.144 2021.42 278.889 Q2021.42 283.634 2023.71 286.273 Q2026 288.889 2030.14 288.889 Q2031.99 288.889 2033.8 288.403 Q2035.63 287.893 2037.43 286.898 L2037.43 290.833 Q2035.65 291.667 2033.73 292.083 Q2031.83 292.5 2029.68 292.5 Q2023.82 292.5 2020.37 288.819 Q2016.93 285.139 2016.93 278.889 Q2016.93 272.546 2020.4 268.912 Q2023.89 265.278 2029.96 265.278 Q2031.93 265.278 2033.8 265.695 Q2035.68 266.088 2037.43 266.898 Z" fill="#000000" fill-rule="evenodd" fill-opacity="1" /><path clip-path="url(#clip200)" d="M 0 0 M2053.68 278.796 Q2048.52 278.796 2046.53 279.977 Q2044.54 281.157 2044.54 284.005 Q2044.54 286.273 2046.02 287.616 Q2047.53 288.935 2050.1 288.935 Q2053.64 288.935 2055.77 286.435 Q2057.92 283.912 2057.92 279.745 L2057.92 278.796 L2053.68 278.796 M2062.18 277.037 L2062.18 291.829 L2057.92 291.829 L2057.92 287.893 Q2056.46 290.255 2054.29 291.389 Q2052.11 292.5 2048.96 292.5 Q2044.98 292.5 2042.62 290.278 Q2040.28 288.032 2040.28 284.282 Q2040.28 279.907 2043.2 277.685 Q2046.14 275.463 2051.95 275.463 L2057.92 275.463 L2057.92 275.046 Q2057.92 272.107 2055.98 270.509 Q2054.05 268.889 2050.56 268.889 Q2048.34 268.889 2046.23 269.421 Q2044.12 269.954 2042.18 271.019 L2042.18 267.083 Q2044.52 266.181 2046.72 265.741 Q2048.92 265.278 2051 265.278 Q2056.62 265.278 2059.4 268.194 Q2062.18 271.111 2062.18 277.037 Z" fill="#000000" fill-rule="evenodd" fill-opacity="1" /><path clip-path="url(#clip200)" d="M 0 0 M2066.65 255.81 L2070.91 255.81 L2070.91 291.829 L2066.65 291.829 L2066.65 255.81 Z" fill="#000000" fill-rule="evenodd" fill-opacity="1" /><path clip-path="url(#clip200)" d="M 0 0 M2110.63 270.88 Q2112.23 268.009 2114.45 266.644 Q2116.67 265.278 2119.68 265.278 Q2123.73 265.278 2125.93 268.125 Q2128.13 270.949 2128.13 276.181 L2128.13 291.829 L2123.85 291.829 L2123.85 276.319 Q2123.85 272.593 2122.53 270.787 Q2121.21 268.982 2118.5 268.982 Q2115.19 268.982 2113.27 271.181 Q2111.35 273.38 2111.35 277.176 L2111.35 291.829 L2107.06 291.829 L2107.06 276.319 Q2107.06 272.569 2105.74 270.787 Q2104.42 268.982 2101.67 268.982 Q2098.41 268.982 2096.48 271.204 Q2094.56 273.403 2094.56 277.176 L2094.56 291.829 L2090.28 291.829 L2090.28 265.903 L2094.56 265.903 L2094.56 269.931 Q2096.02 267.546 2098.06 266.412 Q2100.1 265.278 2102.9 265.278 Q2105.72 265.278 2107.69 266.713 Q2109.68 268.148 2110.63 270.88 Z" fill="#000000" fill-rule="evenodd" fill-opacity="1" /><path clip-path="url(#clip200)" d="M 0 0 M2154.77 277.801 L2154.77 279.884 L2135.19 279.884 Q2135.47 284.282 2137.83 286.597 Q2140.21 288.889 2144.45 288.889 Q2146.9 288.889 2149.19 288.287 Q2151.51 287.685 2153.78 286.481 L2153.78 290.509 Q2151.48 291.481 2149.08 291.991 Q2146.67 292.5 2144.19 292.5 Q2137.99 292.5 2134.36 288.889 Q2130.74 285.278 2130.74 279.12 Q2130.74 272.755 2134.17 269.028 Q2137.62 265.278 2143.45 265.278 Q2148.68 265.278 2151.72 268.657 Q2154.77 272.014 2154.77 277.801 M2150.51 276.551 Q2150.47 273.056 2148.54 270.972 Q2146.65 268.889 2143.5 268.889 Q2139.93 268.889 2137.78 270.903 Q2135.65 272.917 2135.33 276.574 L2150.51 276.551 Z" fill="#000000" fill-rule="evenodd" fill-opacity="1" /><path clip-path="url(#clip200)" d="M 0 0 M2171.02 278.796 Q2165.86 278.796 2163.87 279.977 Q2161.88 281.157 2161.88 284.005 Q2161.88 286.273 2163.36 287.616 Q2164.86 288.935 2167.43 288.935 Q2170.98 288.935 2173.1 286.435 Q2175.26 283.912 2175.26 279.745 L2175.26 278.796 L2171.02 278.796 M2179.52 277.037 L2179.52 291.829 L2175.26 291.829 L2175.26 287.893 Q2173.8 290.255 2171.62 291.389 Q2169.45 292.5 2166.3 292.5 Q2162.32 292.5 2159.96 290.278 Q2157.62 288.032 2157.62 284.282 Q2157.62 279.907 2160.54 277.685 Q2163.48 275.463 2169.29 275.463 L2175.26 275.463 L2175.26 275.046 Q2175.26 272.107 2173.31 270.509 Q2171.39 268.889 2167.9 268.889 Q2165.67 268.889 2163.57 269.421 Q2161.46 269.954 2159.52 271.019 L2159.52 267.083 Q2161.86 266.181 2164.05 265.741 Q2166.25 265.278 2168.34 265.278 Q2173.96 265.278 2176.74 268.194 Q2179.52 271.111 2179.52 277.037 Z" fill="#000000" fill-rule="evenodd" fill-opacity="1" /><path clip-path="url(#clip200)" d="M 0 0 M2205.54 276.181 L2205.54 291.829 L2201.28 291.829 L2201.28 276.319 Q2201.28 272.639 2199.84 270.81 Q2198.41 268.982 2195.54 268.982 Q2192.09 268.982 2190.1 271.181 Q2188.1 273.38 2188.1 277.176 L2188.1 291.829 L2183.82 291.829 L2183.82 265.903 L2188.1 265.903 L2188.1 269.931 Q2189.63 267.593 2191.69 266.435 Q2193.78 265.278 2196.48 265.278 Q2200.95 265.278 2203.24 268.056 Q2205.54 270.81 2205.54 276.181 Z" fill="#000000" fill-rule="evenodd" fill-opacity="1" /></svg>
